<svg xmlns="http://www.w3.org/2000/svg" width="367" height="168" fill="none" viewBox="0 0 367 168"><path fill="#fff" d="M0-23.165h367v206H0z" opacity=".01"/><path fill="#EBEFF3" d="M46.095 112.76c1.6-1.29 3.22-2.5 4.815-3.595 6.555-4.535 14.91-8.12 17.59-16.32 2.76-8.44-.71-17.345-1.5-25.82a4.266 4.266 0 01.14-1.965c.58-1.475 2.445-1.875 4-2 4.295-.41 8.72-.58 12.66-2.34 5.2-2.32 8.89-7.12 13.825-9.965 11.155-6.425 24.66-3.335 36.335-7.955 19.5-7.71 30.335-28.09 50-36.085 6.095-2.5 12.915-3.625 19.32-2.095C217 7.87 221.5 21.085 226.1 32.805c3.275 8.325 8.685 22.42 19.54 22.475 10.63.055 19.815-6.815 29.93-9.085 8.4-1.89 24.535.6 25.725 11.765.705 6.375-5.54 12.375-8.96 17.11-3.22 4.445-6 9.83-4.925 15.21 2.31 11.64 15.94 12.055 25.03 15.055 11.755 3.855 18.805 13.905 23.61 24.84 3.655 8.32 14.185 28.85-1.15 31.19-26.31 4-96.345-14.685-122.925-15.945-43.085-2.025-95.4 10.785-138.5 15.055-15.945 1.58-41.7-.97-43.67-21.795-.97-10.44 8.855-19.94 16.29-25.92z"/><path fill="#92A2B1" d="M71.025 161.395h-10.86L56.97 147.96h17.245l-3.19 13.435z"/><path fill="#fff" d="M61.135 146.87c1.335-1.13.9-3.39-.275-4.685-1.175-1.295-2.86-2-4.255-3.04s-2.5-2.57-2.295-4.245c.205-1.675 2.28-3.035 3.645-2.05.67.5.96 1.335 1.18 2.13.22.795.435 1.65 1.035 2.22.6.57 1.72.675 2.175 0l.775-9.5c.19-2.295.705-5.055 2.86-5.875 1.895-.72 4.07.655 4.95 2.5.88 1.845.8 3.955.705 6l-.79 16.755-9.71-.21z"/><path fill="#CFD7DF" d="M56.3 145.945h18.585v2.015H56.3z"/><path stroke="#CFD7DF" stroke-width=".5" d="M57.195 151.095h8.51"/><path stroke="#fff" stroke-width=".5" d="M74.885 147.905h-9.29"/><path stroke="#92A2B1" stroke-width=".5" d="M55.545 134.015a6 6 0 005.195 5.405m4.005-16.175l-.945 21.44m4.125-21.61l-1.425 21.76m3.61-19.5l-1.255 19.5"/><path stroke="#92A2B1" stroke-width=".5" d="M54.63 135.055c.328.283.747.437 1.18.435.095-.4.145-.835.245-1.23m7.07 3.605c.213.376.556.66.965.8.225-.34.42-.735.645-1.075m-1.03-11.725c.178.393.495.706.89.88.255-.315.5-.695.735-1m-.14 3.795a5.829 5.829 0 01-.78 1.115c-.255-.32-.4-.5-.65-.835m-.18 4.695l.595.56c.255-.32.4-.5.655-.835m1.135 5.895c.212.377.556.662.965.8.225-.34.42-.735.645-1.075m-1.035-11.725c.182.393.5.708.895.885.255-.32.5-.7.735-1m-.14 3.815a5.504 5.504 0 01-.785 1.115c-.25-.32-.395-.5-.65-.835m-.175 4.675l.58.545c.255-.32.395-.5.65-.835m.59 2.235c.203.383.536.681.94.84.235-.335.445-.725.68-1.055m-.595-11.755c.166.399.472.724.86.915.265-.31.5-.675.775-1m-.285 3.815a5.9 5.9 0 01-.82 1.085c-.245-.33-.38-.53-.62-.86m-.355 4.69l.575.58c.27-.31.415-.5.685-.815"/><path fill="#EBEFF3" d="M304.945 85.835a13.729 13.729 0 008.645 12.755h10.18a13.736 13.736 0 001.375-24.875h-12.93a13.739 13.739 0 00-7.27 12.12z"/><path stroke="#92A2B1" stroke-width=".5" d="M332.415 85.835A13.674 13.674 0 00331 79.79m-26.055 6.045a13.695 13.695 0 001.4 6.045"/><path fill="#CFD7DF" d="M306.3 85.72a12.399 12.399 0 007.58 11.575l.21.085h9.18l.055-.025a12.403 12.403 0 007.1-7.595c.338-1.024.54-2.089.6-3.165-4.46-3.735-7.425-4.11-9.415-3.56-.381.103-.75.247-1.1.43a21.675 21.675 0 01-13.555 2.37l-.65-.11-.005-.005z"/><path stroke="#fff" stroke-width=".5" d="M323.27 97.38a12.404 12.404 0 007.17-7.625c.338-1.024.54-2.088.6-3.165"/><path stroke="#92A2B1" stroke-width=".5" d="M330.235 98.605h-23.11m20.445-24.93h-17.78"/><path stroke="#fff" stroke-width=".5" d="M320.53 83.46s-8.085 4-14.225 2.255"/><path fill="#EBEFF3" d="M319.87 92.59h-8.37l1.46 1.455a3.085 3.085 0 003.81.445l3.1-1.9zm0 0l1.57-1.57v3.45l-1.57-1.88z"/><path stroke="#92A2B1" stroke-width=".5" d="M313.45 93.845a.89.89 0 100-1.78.89.89 0 000 1.78z" clip-rule="evenodd"/><path fill="#EBEFF3" d="M319 87.62h7l-1.24 1.215a2.585 2.585 0 01-3.18.37L319 87.62z"/><path fill="#EBEFF3" d="M319.005 87.62l-1.305-1.31v2.875l1.305-1.565z"/><path stroke="#92A2B1" stroke-width=".5" d="M324.36 88.665a.74.74 0 100-1.48.74.74 0 000 1.48z" clip-rule="evenodd"/><path fill="#fff" d="M104.935 84.95H242.85v74.29H104.935z"/><path stroke="#92A2B1" stroke-width=".5" d="M102.56 82.78h141.875v78.595H102.56zm110.355 45.855h21.53"/><path stroke="#92A2B1" stroke-width=".5" d="M106.135 152.105V106.96H173.5m67.365 17.665v27.48h-20.28m14.425-45.145h5.855M109.27 128.635h20.805m20.115 2.55v17.335m0-31.565v8.21m43.065-16.42v9.67m0 19.705v10.22m-31.8-19.705h19.71m-8.03-7.665a2.92 2.92 0 110-5.84m-48.9 4.38a2.92 2.92 0 115.84 0m90.5-2.92a2.92 2.92 0 11-5.835 0m-90.505 22.21a2.92 2.92 0 110 5.835m48.9-4.375a2.92 2.92 0 01-5.84 0m52.915 4.375a2.92 2.92 0 010-5.835"/><path fill="#fff" stroke="#EBEFF3" stroke-width=".5" d="M125.91 48.44v59.21a3.122 3.122 0 01-3.12 3.125H51.895a3.125 3.125 0 01-3.125-3.125V48.44c0-1.726 1.4-3.125 3.125-3.125A1.105 1.105 0 0053 44.21v-5c0-1.726 1.4-3.125 3.125-3.125h9.415a3.12 3.12 0 013.12 3.125v5a1.105 1.105 0 001.105 1.105h53.025a3.12 3.12 0 013.12 3.125z"/><path fill="#fff" d="M55.205 38.88H66.47 55.205z"/><path stroke="#EBEFF3" stroke-width=".5" d="M55.205 38.88H66.47"/><path fill="#fff" d="M55.205 41.265H66.47 55.205z"/><path stroke="#EBEFF3" stroke-width=".5" d="M55.205 41.265H66.47"/><path fill="#fff" d="M55.205 43.65H66.47 55.205z"/><path stroke="#EBEFF3" stroke-width=".5" d="M55.205 43.65H66.47"/><rect width="71.55" height="16.75" x="51.565" y="48.575" fill="#fff" stroke="#EBEFF3" stroke-width=".5" rx="2.83"/><path fill="#EBEFF3" d="M73.785 54.885h41.57c1.5 0 1.5-2.36 0-2.36h-41.57c-1.5 0-1.5 2.36 0 2.36zm0 6.2H95.85c1.5 0 1.5-2.36 0-2.36H73.785c-1.5 0-1.5 2.36 0 2.36zm26.745 0h5.785c1.5 0 1.5-2.36 0-2.36h-5.785c-1.5 0-1.5 2.36 0 2.36z"/><rect width="71.55" height="16.75" x="51.565" y="69.67" fill="#fff" stroke="#EBEFF3" stroke-width=".5" rx="2.83"/><path fill="#EBEFF3" d="M73.785 75.98H88.83c1.5 0 1.5-2.36 0-2.36H73.785c-1.5 0-1.5 2.36 0 2.36zm0 6.2h14.5c1.5 0 1.5-2.36 0-2.36h-14.5c-1.5 0-1.5 2.36 0 2.36zm20.56 0h18.55c1.5 0 1.5-2.36 0-2.36h-18.55c-1.5 0-1.5 2.36 0 2.36z"/><rect width="71.55" height="16.75" x="51.565" y="90.765" fill="#fff" stroke="#EBEFF3" stroke-width=".5" rx="2.83"/><path fill="#EBEFF3" d="M73.785 97.075H90.17c1.5 0 1.5-2.36 0-2.36H73.785c-1.5 0-1.5 2.36 0 2.36zm0 6.2h14.5c1.5 0 1.5-2.36 0-2.36h-14.5c-1.5 0-1.5 2.36 0 2.36zm20.56 0H107.5c1.5 0 1.5-2.36 0-2.36H94.345c-1.5 0-1.5 2.36 0 2.36z"/><rect width="11.71" height="11.71" x="54.635" y="51.095" fill="#EBEFF3" rx="2.07"/><path fill="#fff" d="M56.59 62.835a4 4 0 118 0"/><path stroke="#EBEFF3" stroke-width=".5" d="M56.59 62.835a4 4 0 118 0"/><path fill="#fff" stroke="#EBEFF3" stroke-width=".5" d="M60.415 57.74a2.22 2.22 0 100-4.44 2.22 2.22 0 000 4.44z"/><rect width="11.71" height="11.71" x="54.635" y="72.19" fill="#EBEFF3" rx="2.07"/><path fill="#fff" d="M56.59 83.93a4 4 0 118 0"/><path stroke="#EBEFF3" stroke-width=".5" d="M56.59 83.93a4 4 0 118 0"/><path fill="#fff" stroke="#EBEFF3" stroke-width=".5" d="M60.415 78.835a2.22 2.22 0 100-4.44 2.22 2.22 0 000 4.44z"/><rect width="11.71" height="11.71" x="54.635" y="93.285" fill="#EBEFF3" rx="2.07"/><path fill="#fff" d="M56.59 105.025a4 4 0 018 0"/><path stroke="#EBEFF3" stroke-width=".5" d="M56.59 105.025a4 4 0 018 0"/><path fill="#fff" stroke="#EBEFF3" stroke-width=".5" d="M60.415 99.93a2.22 2.22 0 100-4.44 2.22 2.22 0 000 4.44zM297.3 54.09v59.215a3.125 3.125 0 01-3.125 3.125h-70.89a3.125 3.125 0 01-3.125-3.125V54.09a3.125 3.125 0 013.125-3.12c.61 0 1.105-.495 1.105-1.105v-5.03a3.122 3.122 0 013.12-3.125h9.415a3.125 3.125 0 013.125 3.125v5c0 .61.495 1.105 1.105 1.105h53a3.127 3.127 0 013.145 3.15z"/><path fill="#fff" d="M226.59 44.635h11.27-11.27z"/><path stroke="#EBEFF3" stroke-width=".5" d="M226.59 44.635h11.27"/><path fill="#fff" d="M226.59 47.015h11.27-11.27z"/><path stroke="#EBEFF3" stroke-width=".5" d="M226.59 47.015h11.27"/><path fill="#fff" d="M226.59 49.4h11.27-11.27z"/><path stroke="#EBEFF3" stroke-width=".5" d="M226.59 49.4h11.27"/><rect width="71.55" height="16.75" x="222.955" y="54.23" fill="#fff" stroke="#EBEFF3" stroke-width=".5" rx="2.83"/><path fill="#EBEFF3" d="M245.17 60.54h41.57c1.5 0 1.5-2.36 0-2.36h-41.57c-1.5 0-1.5 2.36 0 2.36zm0 6.2h22.065c1.5 0 1.5-2.36 0-2.36H245.17c-1.5 0-1.5 2.36 0 2.36zm26.745 0h5.785c1.5 0 1.525-2.36 0-2.36h-5.785c-1.5 0-1.5 2.36 0 2.36z"/><rect width="71.55" height="16.75" x="222.955" y="75.325" fill="#fff" stroke="#EBEFF3" stroke-width=".5" rx="2.83"/><path fill="#EBEFF3" d="M245.17 81.635h15.05c1.5 0 1.5-2.36 0-2.36h-15.05c-1.5 0-1.5 2.36 0 2.36zm0 6.2h14.5c1.5 0 1.5-2.36 0-2.36h-14.5c-1.5 0-1.5 2.36 0 2.36zm20.56 0h18.55c1.5 0 1.5-2.36 0-2.36h-18.55c-1.5 0-1.5 2.36 0 2.36z"/><rect width="71.55" height="16.75" x="222.955" y="96.415" fill="#fff" stroke="#EBEFF3" stroke-width=".5" rx="2.83"/><path fill="#EBEFF3" d="M245.17 102.725h16.385c1.5 0 1.5-2.355 0-2.355H245.17c-1.5 0-1.5 2.355 0 2.355zm0 6.205h14.5c1.5 0 1.5-2.36 0-2.36h-14.5c-1.5 0-1.5 2.36 0 2.36zm20.56 0h13.135c1.5 0 1.5-2.36 0-2.36H265.73c-1.5 0-1.5 2.36 0 2.36z"/><rect width="11.71" height="11.71" x="226.025" y="56.745" fill="#EBEFF3" rx="2.07"/><path fill="#fff" d="M228 68.49a4 4 0 018 0"/><path stroke="#EBEFF3" stroke-width=".5" d="M228 68.49a4 4 0 018 0"/><path fill="#fff" stroke="#EBEFF3" stroke-width=".5" d="M231.805 63.395a2.22 2.22 0 100-4.44 2.22 2.22 0 000 4.44z"/><rect width="11.71" height="11.71" x="226.025" y="77.84" fill="#EBEFF3" rx="2.07"/><path fill="#fff" d="M228 89.585a4 4 0 018 0"/><path stroke="#EBEFF3" stroke-width=".5" d="M228 89.585a4 4 0 018 0"/><path fill="#fff" stroke="#EBEFF3" stroke-width=".5" d="M231.805 84.49a2.22 2.22 0 100-4.44 2.22 2.22 0 000 4.44z"/><rect width="11.71" height="11.71" x="226.025" y="98.935" fill="#EBEFF3" rx="2.07"/><path fill="#fff" d="M228 110.68a4 4 0 018 0"/><path stroke="#EBEFF3" stroke-width=".5" d="M228 110.68a4 4 0 018 0"/><path fill="#fff" stroke="#EBEFF3" stroke-width=".5" d="M231.805 105.585a2.22 2.22 0 100-4.44 2.22 2.22 0 000 4.44z"/><path fill="#CFD7DF" d="M78.67 22.225c6.009 0 10.88-4.871 10.88-10.88S84.679.465 78.67.465s-10.88 4.871-10.88 10.88 4.871 10.88 10.88 10.88z"/><path fill="#fff" d="M78.67 19.955a8.61 8.61 0 100-17.22 8.61 8.61 0 000 17.22z"/><path stroke="#92A2B1" stroke-width=".5" d="M74.27 1.335a10.915 10.915 0 0114.39 5.59M74.715 21.52c-5.614-2.19-8.395-8.512-6.215-14.13m16.565 1.14l1.485-.655M72.275 14.16l-1.485.655m11.35 4.41l-.655-1.485m-5.63-12.79L75.2 3.46m.35 15.91l.59-1.515M81.2 4.83l.59-1.515m-11.145 4.91l1.515.59m13.025 5.06l1.515.585m-7.525-7.12l-.81 4.235-5.42-.15"/><path fill="#fff" d="M219.61 79.835v37.415a4 4 0 01-4 4h-90.805a4 4 0 01-4-4V41.42a4 4 0 014-4c.782 0 1.415-.634 1.415-1.415v-6.42a4 4 0 014-4h12.06a4 4 0 014 4v6.42c0 .781.634 1.415 1.415 1.415h67.915a4 4 0 014 4v33.83"/><path stroke="#273139" stroke-width=".5" d="M219.61 79.835v37.415a4 4 0 01-4 4h-90.805a4 4 0 01-4-4V41.42a4 4 0 014-4v0c.782 0 1.415-.634 1.415-1.415v-6.42a4 4 0 014-4h12.06a4 4 0 014 4v6.42c0 .781.634 1.415 1.415 1.415h67.915a4 4 0 014 4v33.83"/><rect width="91.65" height="21.455" x="123.88" y="41.67" fill="#fff" stroke="#B2E4D9" stroke-width=".5" rx="3.625"/><path fill="#DFF4F0" d="M152.34 49.75h53.245c1.945 0 1.95-3 0-3H152.34c-1.945 0-1.95 3 0 3zm0 7.945h18.58c1.945 0 1.95-3 0-3h-18.58c-1.945 0-1.95 3 0 3zm26.335 0H194c1.94 0 1.945-3 0-3h-15.325c-1.945 0-1.945 3 0 3z"/><rect width="91.65" height="21.455" x="123.88" y="68.69" fill="#fff" stroke="#B2E4D9" stroke-width=".5" rx="3.625"/><path fill="#DFF4F0" d="M152.34 76.77h42.95c1.945 0 1.95-3 0-3h-42.95c-1.945 0-1.95 3 0 3zm0 7.945h18.58c1.945 0 1.95-3 0-3h-18.58c-1.945 0-1.95 3 0 3zm26.335 0h7.875c1.945 0 1.945-3 0-3h-7.875c-1.945 0-1.945 3 0 3z"/><rect width="91.65" height="21.455" x="123.88" y="95.71" fill="#fff" stroke="#B2E4D9" stroke-width=".5" rx="3.625"/><path fill="#DFF4F0" d="M152.34 103.79h48.1c1.945 0 1.945-3 0-3h-48.1c-1.945 0-1.95 3 0 3zm0 7.945h18.58c1.945 0 1.95-3 0-3h-18.58c-1.945 0-1.95 3 0 3zm26.335 0H195.5c1.945 0 1.945-3 0-3h-16.825c-1.945 0-1.945 3 0 3z"/><rect width="15" height="15" x="127.815" y="44.895" fill="#DFF4F0" rx="2.65"/><path fill="#fff" d="M130.315 59.94a5.136 5.136 0 1110.265 0"/><path stroke="#B2E4D9" stroke-width=".5" d="M130.315 59.94a5.136 5.136 0 1110.265 0"/><path fill="#fff" stroke="#B2E4D9" stroke-width=".5" d="M135.22 53.41a2.845 2.845 0 100-5.69 2.845 2.845 0 000 5.69z"/><rect width="15" height="15" x="127.815" y="71.915" fill="#DFF4F0" rx="2.65"/><path fill="#fff" d="M130.315 86.96a5.136 5.136 0 017.746-4.58 5.136 5.136 0 012.519 4.58"/><path stroke="#B2E4D9" stroke-width=".5" d="M130.315 86.96a5.136 5.136 0 017.746-4.58 5.136 5.136 0 012.519 4.58"/><path fill="#fff" stroke="#B2E4D9" stroke-width=".5" d="M135.22 80.43a2.845 2.845 0 100-5.69 2.845 2.845 0 000 5.69z"/><rect width="15" height="15" x="127.815" y="98.935" fill="#DFF4F0" rx="2.65"/><path fill="#fff" d="M130.315 113.98a5.135 5.135 0 1110.265 0"/><path stroke="#B2E4D9" stroke-width=".5" d="M130.315 113.98a5.135 5.135 0 1110.265 0"/><path fill="#fff" stroke="#B2E4D9" stroke-width=".5" d="M135.22 107.45a2.845 2.845 0 100-5.69 2.845 2.845 0 000 5.69z"/><path stroke="#273139" stroke-linecap="round" stroke-linejoin="round" stroke-width=".5" d="M258.91 78.41c1.04 1.5 2.5 4.32 3.5 5.8 2.535-2.1 5.955-5.24 8.5-7.34l-14.025-14.29"/><path fill="#273139" d="M257.525 66.83l2.19 12.525-.915-.665-1.275-11.86z"/><path fill="#fff" stroke="#273139" stroke-linecap="round" stroke-linejoin="round" stroke-width=".51" d="M240.685 50.305a2.18 2.18 0 100-4.36 2.18 2.18 0 000 4.36z"/><path fill="#273139" d="M242.36 45.945a4.129 4.129 0 01-3.25-1.93 3 3 0 01.43-3.61c1.13-1.045 2.88-.88 4.4-.645l3 .46c.357.03.705.128 1.025.29.82.5.95 1.685.525 2.535-.99 1.99-4.065 3.07-6.13 2.9zm6.845 64.74l-6.91 23.575.085-1.035.695 29.705a2.03 2.03 0 01-4.045.28l-3.41-29.5a2.227 2.227 0 01.025-.71l.065-.325 4.655-24.12a4.554 4.554 0 118.84 2.13zm9.7-.935L257 134.545l-.055-.72 4 28.875a2.036 2.036 0 01-4 .745l-6.655-28.385a1.496 1.496 0 01-.05-.395v-.33l-.405-24.865a4.556 4.556 0 019.11-.15c-.025.145-.03.295-.04.43z"/><path stroke="#273139" stroke-linecap="round" stroke-linejoin="round" stroke-width=".51" d="M255.035 36.74a5.575 5.575 0 00-3.135 4.255c.045-1.93-.965-5.28-2.565-6.36"/><path fill="#EBEFF3" stroke="#273139" stroke-linecap="round" stroke-linejoin="round" stroke-width=".51" d="M240.925 48.16A7.88 7.88 0 00255.68 52a.654.654 0 00.06-.1 7.875 7.875 0 10-14.815-3.74h0z"/><path fill="#273139" d="M242.185 44.68a8.74 8.74 0 008.735 8.74 8.636 8.636 0 004.76-1.42.654.654 0 00.06-.1 7.876 7.876 0 00-13.5-8.065c-.04.28-.055.565-.055.845z"/><path fill="#FF5959" d="M252.5 40.6a7.87 7.87 0 001.765 10.375A5.314 5.314 0 01252.5 40.6z"/><path fill="#273139" d="M250.215 45.23a6.336 6.336 0 106.33-6.33 6.33 6.33 0 00-6.33 6.33z"/><path stroke="#EBEFF3" stroke-linecap="round" stroke-linejoin="round" stroke-width=".5" d="M257.56 134.615a3.969 3.969 0 01-3.575.91m-11.275-.91a3.969 3.969 0 01-3.575.91"/><path fill="#475867" d="M258.88 107.785h-18.115c-1.635 0-1.64 2.545 0 2.545h18.115c1.635 0 1.64-2.545 0-2.545z"/><path fill="#5CA6F4" d="M243.5 108.41h13a5.27 5.27 0 005.23-5.885l-4.5-38.67a7.77 7.77 0 00-5.545-6.21 7.69 7.69 0 01-2.825.53c-.72 0-1.437-.1-2.13-.295a7.775 7.775 0 00-4.925 6.685l-3.5 38.095a5.269 5.269 0 005.195 5.75z"/><path stroke="#273139" stroke-linecap="round" stroke-linejoin="round" stroke-width=".5" d="M241.91 62.58l-14.03 14.29c2.535 2.1 5.955 5.24 8.5 7.34 1.04-1.5 4.795-6.21 5.835-7.69m33.915 7.74c-3.37 3.175-7.34 8.31-10.71 11.5m5.08-11.495c-3 3.36-6.5 8.43-9.5 11.79m3.315-.47a10.652 10.652 0 004.71 2.935.5.5 0 01-.035 1 6.934 6.934 0 01-5.885-1.6M263 96.59a4.151 4.151 0 00-.175 1.715.37.37 0 01-.65.29 4.71 4.71 0 01-1.175-2.41M217.045 77.78a10.653 10.653 0 00-5.42-1.185.501.501 0 11-.305-.955 6.945 6.945 0 016.08-.465m.565 1.215a4.126 4.126 0 00-.41-1.675.375.375 0 01.5-.5 5.166 5.166 0 011.89 2.075m56.225 7.44h-.06l-5.42-5.395m1.355 6.14l-5.215-3m-31.99 2.735l-4.625 4.945m-1.075-.435l-12.095-10.94m14.455 3.58l-2.165 3.68m-.24-1.205c-3.1-2.355-6.265-4.135-9.135-7.55m34.665 6.755a29.498 29.498 0 001.31 14.65l.285-.35m-10.84-28.575a41.467 41.467 0 01-.935 16m12.465-24.73a22.33 22.33 0 00-14.32.37"/><path stroke="#273139" stroke-linecap="round" stroke-linejoin="round" stroke-width=".51" d="M249.61 43.93a4.762 4.762 0 00.765 4.545"/><path stroke="#fff" stroke-linecap="round" stroke-linejoin="round" stroke-width=".5" d="M243.875 44.68a7.72 7.72 0 005 6.56M259 49.575a4.5 4.5 0 001-7.895"/><path stroke="#273139" stroke-linecap="round" stroke-linejoin="round" stroke-width=".51" d="M239.98 47.61l-.925-.925m1.715 3.16l-.925-.92"/><path fill="#273139" d="M240.23 81.44c.305-.19 2.165-3.65 2.29-4 .125-.35.175-.9-.165-1.035-.64.21-2 2.83-2 2.83l-.125 2.205z"/><path stroke="#DFF4F0" stroke-width=".5" d="M130.585 30.155h11.265m-11.265 2.38h11.265m-11.265 2.385h11.265"/><path fill="#fff" d="M315.46 102.215l-1.325 15.45-3.675 42.87h-1.38v-58.32h6.38zm14.125 0v58.32h-1.375l-4.5-52.445-.505-5.875h6.38z"/><path fill="#CFD7DF" d="M309.08 102.215h6.38l-1.325 15.45-5.055 5.055v-20.505zm20.505 0l-5.875 5.875-.505-5.875h6.38z"/><rect width="35.31" height="3.875" x="301.675" y="98.765" fill="#92A2B1" rx="1.935"/><path stroke="#92A2B1" stroke-width=".5" d="M309.08 102.215v20.505m1.38 37.815l1.965-22.925m11.285-29.52l2.53 29.485"/><path stroke="#fff" stroke-width=".5" d="M335.05 100.38h-14.79"/></svg>