<svg xmlns="http://www.w3.org/2000/svg" width="367" height="168" fill="none" viewBox="0 0 367 168"><path fill="#fff" d="M0-11h367v206H0z" opacity=".01"/><path fill="#EBEFF3" d="M109.525 122.29c-4.2-6.265-9.475-12.33-16.625-14.725-4.935-1.65-10.55-1.47-14.92-4.3-7.78-5.04-7.555-16.32-11.555-24.68-4.93-10.27-17.76-16-28.695-12.805C26.795 68.975 19.055 80.69 20.425 92c1 8.235 6.135 15.62 6.6 23.9.455 8.05-3.555 15.585-5.61 23.38-2.055 7.795-1.34 17.69 5.615 21.775 7.535 4.425 17.72-.635 25.69 2.95 4.145 1.86 7.03 5.805 11.075 7.87 6.215 3.18 13.79 1.325 20.2-1.445s12.69-6.445 19.655-6.85c7.945-.455 15.33 3.445 23.215 3.44 5.735 0 21.11 1.045 19.65-6.65-1.31-6.91-16.735-14.25-21.5-17.895-6.82-5.215-10.8-13.205-15.49-20.185zm133.86-4.02c4.3-5.25 9-10.05 15.765-12.73 9.405-3.73 22.5-1.895 27.235-12.81 1.5-3.395 2.2-7.08 3.59-10.5 3.445-8.5 15.61 0 24.43-2.37 14.085-3.75 26.165-11.335 30.88 2.96 3.5 10.68-2.705 19.685-4.26 30.05-1.305 8.685 2.255 14.77 4.93 22.675 1.935 5.72 2.42 12.575-1.32 17.315-2.5 3.16-6.5 4.83-10.5 5.325-7.075.875-13.5-1.285-20.545.765-6.13 1.785-11.465 5.59-17.5 7.65-14.43 4.93-27.18-5.54-40.875-7.97-6.37-1.13-50.315 19.295-46.5 1.5 1.41-6.605 11.27-19.54 16.76-22.95 7.56-4.72 12.4-12.185 17.91-18.91z"/><path fill="#fff" d="M105.385 94.06v28.045c0 .8.319 1.567.888 2.13a2.995 2.995 0 002.137.87h159.905a3 3 0 003-3V107.5"/><path stroke="#273139" stroke-linecap="round" stroke-linejoin="round" stroke-width=".5" d="M105.385 94.06v28.045c0 .8.319 1.567.888 2.13a2.995 2.995 0 002.137.87h159.905a3 3 0 003-3V107.5"/><path fill="#fff" d="M105.385 47.565V19.41c.014-1.66 1.364-3 3.025-3h159.905a3 3 0 013 3v46.865"/><path stroke="#273139" stroke-linecap="round" stroke-linejoin="round" stroke-width=".5" d="M105.385 47.565V19.41c.014-1.66 1.364-3 3.025-3h159.905a3 3 0 013 3v46.865"/><path fill="#273139" stroke="#273139" stroke-linecap="round" stroke-linejoin="round" stroke-width=".5" d="M108.425 16.385h159.89a3 3 0 013 3v10.97h-165.93V19.41a3 3 0 013.04-3.025z"/><path fill="#fff" d="M110.805 24.95a1.39 1.39 0 100-2.78 1.39 1.39 0 000 2.78zm4.575 0a1.39 1.39 0 100-2.78 1.39 1.39 0 000 2.78zm4.57 0a1.39 1.39 0 100-2.78 1.39 1.39 0 000 2.78z"/><path fill="#CFD7DF" d="M294.615 37.875c6.009 0 10.88-4.87 10.88-10.88 0-6.009-4.871-10.88-10.88-10.88s-10.88 4.871-10.88 10.88c0 6.01 4.871 10.88 10.88 10.88z"/><path fill="#fff" d="M294.615 35.605a8.61 8.61 0 100-17.22 8.61 8.61 0 000 17.22z"/><path stroke="#92A2B1" stroke-linecap="round" stroke-linejoin="round" stroke-width=".5" d="M283.7 26.995c0-6.028 4.887-10.915 10.915-10.915m7.72 18.635a10.914 10.914 0 01-15.44 0m7.72-14.705v-1.625m0 15.6v1.625m8.61-8.615H301.6m-13.97 0h-1.625m14.7 6.09l-1.15-1.145m-9.88-9.885l-1.15-1.145m0 12.175l1.15-1.145m9.88-9.885l1.15-1.145m-9.55 4.01l3.55 2.45 4.67 2.355"/><rect width="6.32" height="22.255" x="325.325" y="83.2" fill="#CFD7DF" rx="3.16"/><path stroke="#92A2B1" stroke-linecap="round" stroke-linejoin="round" stroke-width=".5" d="M333.425 166.855H299.71c-6.677 0-12.09-5.413-12.09-12.09v-10.91c0-7.116 5.769-12.885 12.885-12.885h20.82c6.672.003 12.086-5.398 12.1-12.07V85.195"/><path fill="#CFD7DF" d="M318.08 125.015a1.732 1.732 0 011.265 2.92 4.936 4.936 0 01-3.5 1.44H291a4.908 4.908 0 01-3.44-1.4 1.74 1.74 0 011.205-3l29.315.04z"/><path stroke="#92A2B1" stroke-linecap="round" stroke-linejoin="round" stroke-width=".5" d="M333.515 111.355h-4.625a23.196 23.196 0 00-21.205 13.805l-2.62 5.92"/><path fill="#CFD7DF" d="M289.438 47.618l5.749 1.084-5.67 30.065-5.749-1.084zm4.602 23.847h21.085v7.03H294.04zm0-10.19h17.83v5.945h-17.83z"/><path stroke="#92A2B1" stroke-linecap="round" stroke-linejoin="round" stroke-width=".5" d="M288.32 50.345l6.91 1.305m-7.21.305l6.905 1.305m-10.9 19.875l6.905 1.305m-7.21.305l6.905 1.305"/><path fill="#CFD7DF" d="M281.625 46.405h1.17v32.78h-1.17zm35.725 0h1.17v32.78h-1.17z"/><path fill="#92A2B1" d="M294.04 68.025h22.085v2.615H294.04z"/><path stroke="#fff" stroke-linecap="round" stroke-linejoin="round" stroke-width=".5" d="M297.195 66.275a1.98 1.98 0 100-3.96 1.98 1.98 0 000 3.96zm13.21 10.685a1.98 1.98 0 100-3.96 1.98 1.98 0 000 3.96z" clip-rule="evenodd"/><path fill="#fff" d="M281.625 46.405V63.58 46.405z"/><path stroke="#92A2B1" stroke-linecap="round" stroke-linejoin="round" stroke-width=".5" d="M281.625 46.405V63.58m-5.865 15.705h60.87"/><path fill="#fff" d="M282.795 78.535V72.14v6.395z"/><path stroke="#92A2B1" stroke-linecap="round" stroke-linejoin="round" stroke-width=".5" d="M282.795 78.535V72.14"/><path fill="#fff" d="M318.52 78.535v-12.79 12.79z"/><path stroke="#92A2B1" stroke-linecap="round" stroke-linejoin="round" stroke-width=".5" d="M318.52 78.535v-12.79"/><path fill="#fff" d="M311.87 61.275h-4.07 4.07z"/><path stroke="#92A2B1" stroke-linecap="round" stroke-linejoin="round" stroke-width=".5" d="M311.87 61.275h-4.07"/><path fill="#fff" d="M298.11 71.65h-4.07 4.07z"/><path stroke="#92A2B1" stroke-linecap="round" stroke-linejoin="round" stroke-width=".5" d="M298.11 71.65h-4.07"/><path fill="#fff" d="M37.08 114.055l-1.23 14.315-3.405 39.735h-1.28v-54.05h5.915zm13.09 0v54.05h-1.275l-4.17-48.61-.47-5.44h5.915z"/><path fill="#CFD7DF" d="M31.165 114.055h5.915l-1.23 14.315-4.685 4.685v-19zm19.005 0l-5.445 5.44-.47-5.44h5.915z"/><path stroke="#92A2B1" stroke-linecap="round" stroke-linejoin="round" stroke-width=".5" d="M45.695 83.795a14.12 14.12 0 00-5.27 6.83"/><rect width=".5" height="5.35" x="46.991" y="81.018" fill="#CFD7DF" rx=".25" transform="rotate(26.94 46.99 81.018)"/><rect width=".5" height="5.35" x="48.497" y="84.506" fill="#CFD7DF" rx=".25" transform="rotate(116.94 48.497 84.506)"/><rect width=".5" height="5.35" x="48.464" y="82.449" fill="#CFD7DF" rx=".25" transform="rotate(71.94 48.464 82.449)"/><rect width=".5" height="5.35" x="44.934" y="81.046" fill="#CFD7DF" rx=".25" transform="rotate(-18.06 44.934 81.046)"/><path fill="#92A2B1" d="M46 84.34a.825.825 0 100-1.65.825.825 0 000 1.65z"/><path stroke="#92A2B1" stroke-linecap="round" stroke-linejoin="round" stroke-width=".5" d="M34.275 79.395a14.16 14.16 0 016.09 11.215"/><rect width=".5" height="5.35" x="35.404" y="81.377" fill="#CFD7DF" rx=".25" transform="rotate(153.06 35.404 81.377)"/><rect width=".5" height="5.35" x="36.237" y="77.676" fill="#CFD7DF" rx=".25" transform="rotate(63.06 36.237 77.676)"/><rect width=".5" height="5.35" x="36.589" y="79.698" fill="#CFD7DF" rx=".25" transform="rotate(108.06 36.589 79.698)"/><rect width=".5" height="5.35" x="33.383" y="81.729" fill="#CFD7DF" rx=".25" transform="rotate(-161.94 33.383 81.729)"/><path fill="#92A2B1" d="M33.97 79.935a.825.825 0 100-1.65.825.825 0 000 1.65z"/><path fill="#fff" d="M43.595 109.935h-6.47a1.272 1.272 0 01-1.265-1.43l1.975-16c.078-.64.621-1.12 1.265-1.12h2.5a1.28 1.28 0 011.265 1.12l2 16a1.273 1.273 0 01-1.27 1.43z"/><path stroke="#92A2B1" stroke-linecap="round" stroke-linejoin="round" stroke-width=".5" d="M42.85 108.8h-5a.602.602 0 01-.6-.675l1.38-15.055c.04-.3.297-.525.6-.525h2.195c.303 0 .56.224.6.525l1.43 15.055a.606.606 0 01-.605.675v0z" clip-rule="evenodd"/><rect width="6.84" height="1.26" x="36.94" y="89.88" fill="#B1BDC7" rx=".63"/><rect width="32.725" height="3.59" x="24.305" y="110.855" fill="#92A2B1" rx="1.795"/><path stroke="#92A2B1" stroke-linecap="round" stroke-linejoin="round" stroke-width=".5" d="M31.165 114.05v19.005m1.28 35.05l1.82-21.25m10.46-27.36l2.345 27.33"/><path stroke="#fff" stroke-linecap="round" stroke-linejoin="round" stroke-width=".5" d="M55.235 112.35H41.53"/><path stroke="#273139" stroke-linecap="round" stroke-linejoin="round" stroke-width=".5" d="M294.86 67.445a10.71 10.71 0 001.67 2.31 3.345 3.345 0 003.735.825 48.021 48.021 0 017.66-4.225m.955-15.59a45.216 45.216 0 01-8.455 5.795 31.821 31.821 0 01-4.67 2.055c-1.07.36-2.665.88-2.59 2.3"/><path fill="#007657" d="M313.835 98.17l-3.465 15.76-1.735 7.88-.865 3.94-.2.92c-.06.28-.11.565-.155.85-.09.57-.16 1.145-.195 1.725l-1.33 30.54a1.72 1.72 0 01-1.72 1.645 1.72 1.72 0 01-1.72-1.645l-1.32-30.645c0-.763.02-1.528.06-2.295.025-.385.06-.765.105-1.145l.14-1.07.525-4 1.055-8 2.105-16 8.715 1.54z"/><path fill="#007657" d="M322.21 97.145l-2.19 16.675-1.095 8.34-.5 4.045a19.06 19.06 0 000 3.575l-.055-.31 6 27.035a2.19 2.19 0 01-1.635 2.605 2.19 2.19 0 01-2.59-1.5l-8.08-26.685c0-.035 0-.07-.025-.11l-.03-.2c-.257-1.59-.364-3.2-.32-4.81 0-.385.035-.84.055-1.175l.065-1.05.125-2.095.5-8.395 1-16.79 8.775.845z"/><path fill="#34479D" d="M323.12 95.145h-18.65c-2.525 0-2.53 3.93 0 3.93h18.65c2.53 0 2.535-3.93 0-3.93z"/><path fill="#5CA6F4" d="M299.81 91.23a5.5 5.5 0 005.465 5.46h20.095a5.419 5.419 0 002.445-.575c3.04-1.535 3.035-4.66 2.5-7.56a67.602 67.602 0 00-2.91-10.5 4.5 4.5 0 01-3.455-1.5 13.17 13.17 0 01-2.12-3.245l-6.8-13c-1.635-3.14.37-7.465 3.115-9.335a6.996 6.996 0 001.34-1c.86-.95.39-1.6-.5-2.135-.42-.25-1.785-1.18-2.28-.72a8.76 8.76 0 01-10.305 1.21 5.461 5.461 0 00-2 4.235l-4.59 38.665z"/><path fill="#273139" d="M322.565 35.34a5.925 5.925 0 100-11.85 5.925 5.925 0 000 11.85z"/><path fill="#F48927" d="M312.865 29.505a8.629 8.629 0 013.68 1.795 8.775 8.775 0 013.19 6.775 7.96 7.96 0 01-.055 1 5.925 5.925 0 00-6.815-9.55v-.02z"/><path stroke="#273139" stroke-linecap="round" stroke-linejoin="round" stroke-width=".5" d="M313.57 22.81a6.225 6.225 0 013.5 4.745c-.05-2.155 1.075-5.885 2.86-7.09"/><path fill="#fff" stroke="#273139" stroke-linecap="round" stroke-linejoin="round" stroke-width=".5" d="M302.175 38.075a8.785 8.785 0 1017.57.01 8.785 8.785 0 00-17.57-.01z"/><path fill="#273139" d="M307.58 34.26c-3.15-.435-6.47-2.585-6.465-5.865a4.655 4.655 0 013-4.295 4.545 4.545 0 015.195 1.5 1.725 1.725 0 002.375.285c2.245-1.65 5.335-.47 5.56 3 .3 4.785-5.97 5.88-9.665 5.375z"/><path fill="#273139" d="M314.585 36.05a6.72 6.72 0 004.105 6.195 8.81 8.81 0 00-2.145-10.945 6.718 6.718 0 00-1.96 4.75z"/><path stroke="#fff" stroke-linecap="round" stroke-linejoin="round" stroke-width=".5" d="M310.83 32.355a8.405 8.405 0 01-8.25-2.28m13.845 4.145a4.37 4.37 0 002.665 5.795"/><path fill="#fff" stroke="#273139" stroke-linecap="round" stroke-linejoin="round" stroke-width=".5" d="M302.335 40.11a2.57 2.57 0 100-5.14 2.57 2.57 0 000 5.14zm6.74 0a2.57 2.57 0 100-5.14 2.57 2.57 0 000 5.14z"/><path stroke="#273139" stroke-linecap="round" stroke-linejoin="round" stroke-width=".5" d="M306.505 37.54h-1.6m15.305 8.63a15.06 15.06 0 01-15.785 3.745m16.955-.56a52.283 52.283 0 0015.5 21.805 1.23 1.23 0 01-.13 1.97c-3.69 2.39-8 4.39-12.27 4.905-4.9-6-7.76-12.695-9.695-20.215m14.775 20.72s3.365 14.315 4.865 17.25m.275-.12c1.24-.605 2.055-.62 3.295-1.225-.825-3.81-3.17-14.685-4-18.5m-24.7-22.33v38.04m-2.37-33.985l-3.46.245m4.41-22.43l.155-.155 2.855 2.86m-9.91-2.17l3.015 2.7m4.775-.265l1.18 1.185m-9.795-2.92l1.185 1.185m19.09-1.83a5.317 5.317 0 00-1.85-4.65m5.515 64.595h-19.545"/><path stroke="#fff" stroke-linecap="round" stroke-linejoin="round" stroke-width=".5" d="M317.425 98.925a2.918 2.918 0 003.185 3.77m-13.685-3.975a3.7 3.7 0 01-2.315 3.575m2.655 25.74l-2.135-.31m13.11-.175h-2.135"/><path stroke="#273139" stroke-linecap="round" stroke-linejoin="round" stroke-width=".5" d="M324.565 88.855a4.776 4.776 0 01-5.405-6.305"/><path fill="#273139" d="M314.765 57.825s7.745 19.955 9.825 20.05c3.27.16 3-.56 3-.56l.885 3.685-3.45-.06a2.415 2.415 0 01-2.11-1.18c-1.82-3-6.59-13.905-8.15-21.935z"/><path stroke="#273139" stroke-linecap="round" stroke-linejoin="round" stroke-width=".5" d="M334.425 96.775c1.345 1.905 4.245 5.43 6.065 6.885.44.351.916.654 1.42.905h.045a.88.88 0 001.065-1.335l-3.455-4.455"/><path stroke="#273139" stroke-linecap="round" stroke-linejoin="round" stroke-width=".5" d="M337.245 97.395a4.655 4.655 0 003.41 1.32.871.871 0 00.5-1.54 17.235 17.235 0 00-2.705-2.07m-40.025-25.75a15.393 15.393 0 00-4-8.545l-4.95 2.405-20.61 4.83s-4.75 1.24-6.94 3.44"/><path fill="#fff" d="M271.05 71.61h8.815a4.1 4.1 0 014.085 4.085v34.295a4.095 4.095 0 01-4.085 4.085H194.51a4.095 4.095 0 01-4.085-4.085V75.695a4.1 4.1 0 014.085-4.085h71"/><path stroke="#273139" stroke-linecap="round" stroke-linejoin="round" stroke-width=".5" d="M271.05 71.61h8.815a4.1 4.1 0 014.085 4.085v34.295a4.095 4.095 0 01-4.085 4.085H194.51a4.095 4.095 0 01-4.085-4.085V75.695a4.1 4.1 0 014.085-4.085h71"/><path stroke="#273139" stroke-linecap="round" stroke-linejoin="round" stroke-width=".5" d="M268.8 69.855s-2.185 1.6-2.875 3.145a.74.74 0 00.665.87c.416.035.824-.132 1.095-.45.66-.74 2.215-2.35 3.365-2.605m3.315.795l17.205-3.545c.136-.03.27-.07.4-.12l5.53-2.2"/><rect width="102.1" height="41.78" x="85.535" y="49.25" fill="#fff" rx="4.015"/><path stroke="#273139" stroke-linecap="round" stroke-linejoin="round" stroke-width=".5" d="M85.535 67.355V53.27a4.035 4.035 0 014-4h94.085a4.03 4.03 0 014 4v33.745a4.03 4.03 0 01-4 4h-58.86m-25.585.015h-9.62a4.03 4.03 0 01-4-4v-2.325"/><rect width="88.82" height="10.93" x="92.355" y="52.99" stroke="#B2E4D9" stroke-linecap="round" stroke-linejoin="round" stroke-width=".54" rx="2.185"/><path stroke="#B2E4D9" stroke-linecap="round" stroke-linejoin="round" stroke-width=".685" d="M92.355 74.94v-3.165a2.79 2.79 0 012.78-2.785h83.26a2.795 2.795 0 012.785 2.785V83.9a2.795 2.795 0 01-2.785 2.785H111.84"/><path fill="#527FA5" d="M85.79 136.48l-.09.755-3.285 26.5a4 4 0 01-.805 2.295c-2-1.075-5.595-2-6.935-.605a4 4 0 01-.435-1.965l.9-18.3a23.37 23.37 0 00-2.93-12.53c-5.62-10.055-8.045-16.665-9.23-21.045a9.33 9.33 0 0116.1-9.415c5 7.7 6.4 28.5 6.66 33.29.035.665.05 1.02.05 1.02z"/><path fill="#34479D" d="M85.7 137.235l.09-.755c-.01.254-.04.506-.09.755zm.09-.755s0-.355-.05-1c.054.33.07.666.05 1z"/><path stroke="#fff" stroke-linecap="round" stroke-linejoin="round" stroke-width=".5" d="M75.47 139.17c1.36-.06 2.135-.145 3.5-.2"/><path fill="#527FA5" d="M52.05 163.22a.442.442 0 01-.46-.54l5.29-23.325c.04-.18.085-.36.14-.54.234-.8.346-1.631.33-2.465v-.595c-4.135-18.165-3.34-26.675-2.555-31.67a13.61 13.61 0 011.14-3.975c.02-.035.039-.072.055-.11.14-.24.285-.47.435-.7a.714.714 0 00.05-.065 9.335 9.335 0 0116.45 2.34l.12.38c2.925 9.82-5.34 36.83-5.34 36.83h-.025a3.98 3.98 0 01-.11.5h.025l-8.055 25.5a.45.45 0 01-.565.285l-4.71-1.585a5.565 5.565 0 00-2.215-.265z"/><path fill="#34479D" d="M55.925 100.12a13.61 13.61 0 00-1.14 3.975 9.297 9.297 0 011.14-3.975zm.5-.81c-.15.23-.295.46-.435.7.125-.245.27-.48.435-.7z"/><path stroke="#fff" stroke-linecap="round" stroke-linejoin="round" stroke-width=".5" d="M59.425 138.135c1.36-.06 2.135-.14 3.5-.2m9.5-4.84c-1.61-3.025-5.395-8.84-8.775-20.255m4.23-3.985l7.525-.125"/><path stroke="#273139" stroke-linecap="round" stroke-linejoin="round" stroke-width=".615" d="M55.53 62.815l-9.555 20.41a6.145 6.145 0 00-.44 4.15 4.58 4.58 0 003.82 3.5 5.64 5.64 0 002.795-.17l4.835-1.5"/><path fill="#273139" d="M55.425 80.355c.13.324.378.587.695.735a.965.965 0 001.04-.44c.2-.355.318-.75.345-1.155.255-1.935.865-14.775-3.065-13.455-3.75 1.255-.21 12.11.985 14.315z"/><path stroke="#273139" stroke-linecap="round" stroke-linejoin="round" stroke-width=".615" d="M62.36 72.14L52.07 85.72"/><path fill="#EBEFF3" stroke="#273139" stroke-linecap="round" stroke-linejoin="round" stroke-width=".615" d="M77.605 47.12a2.63 2.63 0 100-5.26 2.63 2.63 0 000 5.26z"/><path stroke="#273139" stroke-linecap="round" stroke-linejoin="round" stroke-width=".615" d="M78.46 43.875l1.12-1.105m-2.09 3.795l1.115-1.105"/><path fill="#fff" stroke="#273139" stroke-linecap="round" stroke-linejoin="round" stroke-width=".615" d="M76.815 41.605c1.04 4.315.6 10.345-3.715 11.385-4.315 1.04-9.95-3.835-11-8.15a8.03 8.03 0 015.93-9.69c4.33-1.04 7.745 2.14 8.785 6.455z"/><path fill="#273139" d="M76.08 40.92a5 5 0 003.935-2.29 3.635 3.635 0 00-.5-4.36c-1.345-1.27-3.46-1.085-5.295-.82l-3.62.5a3.416 3.416 0 00-1.24.34c-1 .575-1.155 2-.655 3.055 1.18 2.43 4.88 3.765 7.375 3.575z"/><path stroke="#273139" stroke-linecap="round" stroke-linejoin="round" stroke-width=".615" d="M57.98 31.13a6.735 6.735 0 013.74 5.155c-.035-2.325 1.215-6.35 3.155-7.635"/><path fill="#273139" d="M76.305 39.4c-.05 5.818-4.802 10.497-10.62 10.455-1.84 0-3.29-.15-4.72-.905A3.051 3.051 0 0159.91 48a9.5 9.5 0 0116.35-9.645c.03.36.045.705.045 1.045z"/><path stroke="#fff" stroke-linecap="round" stroke-linejoin="round" stroke-width=".5" d="M74.26 39.38a9.3 9.3 0 01-6.105 7.865"/><path fill="#273139" d="M51.205 31.415c-4.45.5-7.67 5.05-8.625 8.87-1.5 6 2.545 10.46.665 12.17-2.315 2.105-9.45-3.73-10.82-2.175-1.065 1.205 1.55 6.65 6.205 9 5.33 2.67 13 1.08 15.04-2.925 2.1-4.125-2.845-8.715-.475-12 2.265-3.125 8.1-.705 9.15-2.97 1.235-2.665-4.72-10.695-11.14-9.97z"/><path fill="#FF5959" d="M59.815 35.08a6.09 6.09 0 01.915 2.74 6.205 6.205 0 01-1.845 4.955 4.908 4.908 0 01-.5.455 4.18 4.18 0 003.135-7.105 4.1 4.1 0 00-1.705-1.045z"/><path stroke="#273139" stroke-linecap="round" stroke-linejoin="round" stroke-width=".5" d="M62.055 37.715a3.74 3.74 0 01-.63 3.575"/><path fill="#1AB394" d="M76.34 100.47c-5.25-.045-12.6 1.795-18.34 1a2.5 2.5 0 01-2.09-3.095c3.55-14.5-2.89-23.845-1.765-31.09.615-4 1.945-7.57 5.695-9.5a18.694 18.694 0 0111.35-1.925c1.905.325 3.39 1.17 5 2.195a7.936 7.936 0 011.855 1.87c.5.655 1.06 1.46.82 2.335a.25.25 0 01-.085.155c-.125.095-.465-.125-.54-.22a15.324 15.324 0 00-.58-.64 4.291 4.291 0 01-.555-.575c-.44-.58-.77-1.525-1.475-1.35-.84.21-1.285 1.11-1.62 1.915-.885 2.12-1.79 4.32-1.725 6.615a8.24 8.24 0 002 5 8.904 8.904 0 001.965 1.735c.5.305 2.05.66 2.32 1.065.68 1-.755 4.345-1.025 5.5a16.224 16.224 0 00-.47 5.635c.41 3.465.86 7.025 1 7.555.545 2.735 1.35 5.845-1.735 5.82z"/><path fill="#92A2B1" d="M78.705 75.915c-.079.732-.198 1.46-.355 2.18-1.955-1.42-4.1-3.44-4.605-5.45 1.475-.43 3.915 2.425 4.96 3.27z"/><path stroke="#273139" stroke-linecap="round" stroke-linejoin="round" stroke-width=".615" d="M75.625 59.63c5.725 6.335 11 11.94 16.735 18.28l19.975 11.97s3.75-1.88 6.5-1.38c0 0 2 1-2.125 2.375h5.875s0 3-7.625 3c0 0-10.215-1.08-23.5-7.8-6.75-3.41-11.85-9.4-17.77-14.105m15.915 1.58a14.05 14.05 0 01-3.64 10.035"/><path fill="#231F20" d="M78.705 75.915c-.079.732-.198 1.46-.355 2.18-1.955-1.42-4.1-3.44-4.605-5.45 1.475-.43 3.915 2.425 4.96 3.27z"/><path stroke="#273139" stroke-linecap="round" stroke-linejoin="round" stroke-width=".615" d="M60.835 57.155c-.715-.265-.69-1.385-.125-1.89.565-.505 1.39-.57 2.145-.605l7.93-.365c.96-.045 2-.075 2.815.395.815.47 1.355 1.645.8 2.425M47.165 77.24c-.225 4.15 3.745 8 7.89 7.675"/><path fill="#447093" d="M53.195 99.21c2.32 3.8 8 4 11.945 4 4.972.065 9.93-.559 14.73-1.855 2.43-.69 1.4-4.5-1.045-3.79a49.726 49.726 0 01-11.9 1.705c-2.575.085-8.69.62-10.32-2.045-1.315-2.155-4.715-.18-3.39 2l-.02-.015z"/><path stroke="#273139" stroke-linecap="round" stroke-linejoin="round" stroke-width=".615" d="M60.925 57.855a14.9 14.9 0 0114.115-.615m3.135 23.615l2.345-.92 2.92 1.155"/><path stroke="#B2E4D9" stroke-linecap="round" stroke-linejoin="round" stroke-width=".5" d="M177.49 57.23l-2.46 2.455-2.46-2.455"/><path stroke="#C0DEFC" stroke-linecap="round" stroke-linejoin="round" stroke-width=".5" d="M201.495 78.49h5.195v5.195h-5.195z"/><path stroke="#C0DEFC" stroke-linecap="round" stroke-linejoin="round" stroke-width="2.5" d="M218.82 81.085h52.665"/><path stroke="#C0DEFC" stroke-linecap="round" stroke-linejoin="round" stroke-width=".5" d="M201.495 89.9h5.195v5.195h-5.195z"/><path stroke="#C0DEFC" stroke-linecap="round" stroke-linejoin="round" stroke-width="2.5" d="M218.82 92.5h52.665"/><path stroke="#C0DEFC" stroke-linecap="round" stroke-linejoin="round" stroke-width=".5" d="M201.495 101.495h5.195v5.195h-5.195z"/><path stroke="#C0DEFC" stroke-linecap="round" stroke-linejoin="round" stroke-width="2.5" d="M218.82 104.095h52.665"/></svg>