<svg width="336" height="200" viewBox="0 0 336 200" fill="none" xmlns="http://www.w3.org/2000/svg">
<g clip-path="url(#clip0_2618_1486)">
<circle cx="226.169" cy="54.6104" r="44.2389" fill="#02B190"/>
<path fill-rule="evenodd" clip-rule="evenodd" d="M225.94 36.1045C215.847 36.1045 207.664 44.2868 207.664 54.3802C207.664 64.4736 215.847 72.6559 225.94 72.6559C236.033 72.6559 244.216 64.4736 244.216 54.3802C244.216 44.2868 236.033 36.1045 225.94 36.1045ZM204.83 54.3802C204.83 42.7216 214.281 33.2705 225.94 33.2705C237.599 33.2705 247.05 42.7216 247.05 54.3802C247.05 66.0387 237.599 75.4898 225.94 75.4898C214.281 75.4898 204.83 66.0387 204.83 54.3802Z" fill="white"/>
<path fill-rule="evenodd" clip-rule="evenodd" d="M226.094 42.756C222.927 42.756 220.051 44.1475 217.958 46.4208C217.41 47.0154 216.522 47.0154 215.975 46.4208C215.427 45.8262 215.427 44.8622 215.975 44.2677C218.573 41.4466 222.154 39.7109 226.094 39.7109H226.326C227.1 39.7109 227.729 40.3926 227.729 41.2334C227.729 42.0743 227.101 42.756 226.327 42.756H226.094Z" fill="white"/>
<path fill-rule="evenodd" clip-rule="evenodd" d="M235.91 62.3465C236.455 62.9461 236.451 63.9135 235.9 64.5072C233.306 67.3062 229.751 69.0494 225.809 69.0494H225.554C224.78 69.0494 224.151 68.3653 224.151 67.5215C224.151 66.6776 224.779 65.9936 225.553 65.9936H225.808C228.973 65.9936 231.83 64.5985 233.927 62.3357C234.477 61.742 235.365 61.7468 235.91 62.3465Z" fill="white"/>
<path fill-rule="evenodd" clip-rule="evenodd" d="M225.94 51.5965C224.403 51.5965 223.156 52.8428 223.156 54.38C223.156 55.9173 224.403 57.1636 225.94 57.1636C227.477 57.1636 228.723 55.9173 228.723 54.38C228.723 52.8428 227.477 51.5965 225.94 51.5965ZM220.573 54.38C220.573 51.416 222.976 49.0132 225.94 49.0132C228.904 49.0132 231.307 51.416 231.307 54.38C231.307 57.3441 228.904 59.7469 225.94 59.7469C222.976 59.7469 220.573 57.3441 220.573 54.38Z" fill="white"/>
<path fill-rule="evenodd" clip-rule="evenodd" d="M237.032 37.0898L227.482 51.8759L224.867 50.2036L234.416 35.4175L237.032 37.0898Z" fill="white"/>
<path fill-rule="evenodd" clip-rule="evenodd" d="M245.618 45.8561L230.145 55.4535L228.445 52.886L243.918 43.2886L245.618 45.8561Z" fill="white"/>
<path fill-rule="evenodd" clip-rule="evenodd" d="M223.435 55.8934L208.605 65.4715L206.977 62.8848L221.807 53.3066L223.435 55.8934Z" fill="white"/>
<path fill-rule="evenodd" clip-rule="evenodd" d="M227.013 58.4954L217.416 73.3431L214.848 71.7325L224.445 56.8848L227.013 58.4954Z" fill="white"/>
<path d="M107.523 84.0713L132.733 83.0029L154.213 195.684L131.275 199.833L107.523 84.0713Z" fill="white"/>
<path d="M107.45 16.8531C107.45 16.8531 106.324 0.63535 96.0656 0.419752C85.7357 0.27602 87.9849 12.1435 87.9849 12.1435C87.9849 12.1435 82.0096 8.77057 83.6976 16.3548C85.3857 23.9391 99.7966 22.8132 99.7966 22.8132L107.46 16.8435L107.45 16.8531Z" fill="#27313A"/>
<path d="M106.746 13.1968C106.746 13.1968 98.1039 15.4438 95.3608 22.8843C95.3608 22.8843 96.5549 24.427 99.5042 24.8486C99.5042 24.8486 100.77 19.8611 107.379 16.7757C107.451 16.8476 108.362 14.4568 106.746 13.1968Z" fill="#FFC12D"/>
<path d="M99.8592 25.3856L99.4324 25.3281C96.3248 24.8825 95.0299 23.2488 94.9772 23.1817L94.8141 22.9709L94.9053 22.7217C97.706 15.1327 106.257 12.833 106.621 12.7372L106.851 12.6797L107.038 12.8234C108.352 13.8487 108.223 15.4633 108.103 16.1101C107.921 17.1018 107.662 17.1977 107.532 17.236C101.269 20.1777 99.9791 24.9208 99.9695 24.9688L99.864 25.3856H99.8592ZM95.9124 22.7745C96.296 23.1386 97.3223 23.9578 99.1686 24.3076C99.6338 23.0092 101.451 19.0614 107.033 16.4071C107.187 15.9951 107.503 14.6057 106.621 13.7289C105.25 14.1505 98.3773 16.5461 95.9076 22.7745H95.9124Z" fill="#FFC12D"/>
<path d="M144.761 71.8257C137.519 73.8619 113.061 76.1089 94.0227 67.9641C94.0946 64.663 93.8165 60.9452 93.1115 56.662C91.4234 46.481 90.0855 17.9023 111.033 14.6779C131.98 11.4487 148.137 25.2134 143.643 44.1621C141.821 51.8805 143.082 62.21 144.77 71.8257H144.761Z" fill="#27313A"/>
<path d="M133.947 55.8857C133.947 53.495 135.913 51.6025 138.306 51.6025C140.699 51.6025 142.593 53.5669 142.593 55.9576C142.593 58.3483 140.627 60.2408 138.234 60.2408C135.841 60.2408 133.947 58.2765 133.947 55.8857ZM135.213 55.8857C135.213 57.5722 136.551 58.9808 138.239 58.9808C139.927 58.9808 141.337 57.6441 141.337 55.9576C141.337 54.2712 139.999 52.8626 138.311 52.8626C136.623 52.7907 135.213 54.1993 135.213 55.8857Z" fill="white"/>
<path d="M104.703 78.2937C104.703 78.2937 109.345 86.1606 118.553 87.1428C130.287 88.3357 131.419 83.2812 131.419 83.2812C130.858 81.7384 130.508 80.1861 130.292 78.5093C130.22 77.8768 130.148 77.2444 130.148 76.5449C130.077 74.7243 130.076 72.6833 130.22 70.3645C130.22 69.8039 130.292 69.2386 130.364 68.678V68.6061C122.212 67.0634 115.469 63.6905 110.683 57.9364L109.417 57.2322L108.578 56.8105L108.434 57.2992L108.64 58.7701C109.695 65.7219 108.362 71.6245 104.703 78.2889V78.2985V78.2937Z" fill="white"/>
<path d="M116.514 63.8252C118.409 67.6149 122.629 74.2889 130.148 76.464C130.077 74.6434 130.076 72.6024 130.22 70.2835C130.22 69.723 130.292 69.1576 130.364 68.5971C130.22 68.5971 130.014 68.669 129.875 68.669C125.453 69.0906 120.595 67.0544 116.524 63.8252H116.514Z" fill="#27313A"/>
<path d="M98.3149 45.4992C97.9648 49.8542 101.825 55.3304 107.523 55.6083H107.666C107.738 55.8862 107.873 56.097 107.945 56.3844C108.016 56.5282 108.016 56.5905 108.088 56.7342C111.527 64.2466 122.001 68.8843 127.77 69.1622C129.808 69.2341 131.208 68.8125 131.635 68.7406C137.75 67.5476 139.083 59.3309 138.244 53.0834C138.1 52.1731 137.965 51.3251 137.754 50.4866C137.754 50.4148 137.754 50.3429 137.682 50.3429C137.682 50.3429 139.932 41.5657 140.488 37.7808C141.543 30.3402 137.462 22.756 121.157 20.8587C104.851 19.0381 103.94 28.9317 102.674 34.2689C102.468 35.1792 102.674 41.077 103.513 41.9873C102.175 41.8436 98.5211 42.2652 98.3149 45.4944H98.3053L98.3149 45.4992Z" fill="white"/>
<path d="M136.474 47.7405C136.268 48.9335 135.563 49.8533 134.93 49.7048C134.297 49.5611 133.947 48.5118 134.153 47.3141C134.359 46.1211 135.064 45.2012 135.697 45.3497C136.33 45.4935 136.68 46.5427 136.474 47.7405Z" fill="#27313A"/>
<path d="M125.856 46.0545C125.65 47.2474 124.945 48.1673 124.312 48.0188C123.679 47.8751 123.329 46.8258 123.535 45.628C123.742 44.4351 124.446 43.5152 125.08 43.6637C125.784 43.8074 126.135 44.8567 125.856 46.0545Z" fill="#27313A"/>
<path d="M130.499 59.3979C130.292 59.3979 130.149 59.3261 129.938 59.3261C127.971 58.9045 126.777 56.9353 126.705 56.8731C126.561 56.5952 126.633 56.1688 126.912 56.0346C127.19 55.8909 127.616 55.9628 127.751 56.2406C127.751 56.2406 128.734 57.8552 130.144 58.1331C131.616 58.411 132.259 57.6444 132.321 57.5726C132.527 57.2947 132.954 57.2947 133.16 57.5007C133.438 57.7067 133.438 58.0612 133.304 58.3391C133.232 58.411 132.321 59.5321 130.499 59.3932V59.3979Z" fill="#27313A"/>
<path d="M108.155 52.2349C107.949 52.163 107.733 52.0289 107.666 51.7462C106.961 47.6067 102.113 45.7143 102.041 45.7143C101.763 45.5705 101.552 45.2256 101.691 44.9381C101.835 44.6602 102.113 44.4494 102.468 44.5884C102.674 44.6602 108.021 46.7635 108.86 51.5402C108.932 51.8899 108.716 52.1726 108.371 52.2445H108.165L108.155 52.2349Z" fill="#27313A"/>
<path d="M103.015 49.7818C102.943 49.7818 102.871 49.71 102.809 49.71C102.53 49.5039 102.458 49.1494 102.602 48.8715C102.674 48.7997 103.796 47.0509 106.185 47.1851C106.535 47.1851 106.746 47.463 106.746 47.8175C106.746 48.172 106.468 48.378 106.113 48.378C104.425 48.2343 103.585 49.5039 103.585 49.5039C103.514 49.7818 103.235 49.8537 103.024 49.7818H103.015Z" fill="#27313A"/>
<path d="M107.523 55.6081H107.666C107.738 55.886 107.873 56.0968 107.945 56.3842C108.016 56.528 108.017 56.5903 108.088 56.734C108.721 56.6621 109.561 56.4561 110.338 55.8956C110.76 55.6177 111.177 55.1913 111.532 54.6307C111.676 54.3528 111.604 53.9983 111.326 53.7923C111.047 53.5863 110.692 53.7204 110.486 53.9983C110.136 54.5589 109.575 54.9805 109.076 55.1913C108.726 55.335 108.371 55.4692 108.021 55.4692C107.877 55.6129 107.671 55.6129 107.532 55.6129L107.523 55.6033V55.6081Z" fill="#722324"/>
<path d="M108.995 55.5364C108.573 55.6801 108.084 55.6801 107.729 55.6801V55.752C107.729 57.4384 106.319 58.7751 104.631 58.7751C102.943 58.7751 101.605 57.3665 101.605 55.6801C101.605 54.1374 102.732 52.8773 104.204 52.6569C104.554 52.2353 104.626 51.8185 104.204 51.3921C102.027 51.5981 100.339 53.4283 100.339 55.6753C100.339 58.066 102.233 60.0304 104.626 60.0304C107.019 60.0304 108.985 58.1379 108.985 55.7472V55.5316L108.995 55.5364Z" fill="white"/>
<path d="M128.882 62.0659C128.043 61.8599 127.616 61.2898 127.544 61.2898C127.4 61.146 127.472 60.8682 127.616 60.7292C127.76 60.5855 128.038 60.6574 128.177 60.8011C128.177 60.873 128.81 61.5772 129.865 61.2898C130.072 61.2179 130.287 61.3616 130.355 61.5677C130.426 61.7737 130.283 61.9893 130.076 62.0563C129.654 62.2001 129.237 62.1282 128.882 62.0563V62.0659Z" fill="#27313A"/>
<path d="M104.353 25.2756C107.935 21.7685 112.855 18.9514 118.764 19.3778C126.988 20.0102 134.508 23.1052 138.651 27.5944C140.618 29.7696 141.812 32.304 141.884 35.1068C142.162 43.6732 140.339 41.9149 140.339 41.9149C140.339 41.9149 140.411 41.7089 140.195 39.8787C140.052 38.7528 139.845 37.0759 139.419 34.4744C138.435 28.4424 118.898 27.3118 120.087 31.3171C120.087 31.3171 120.159 31.8058 120.087 32.5819C120.015 33.4204 119.809 34.5463 119.248 35.6769C119.104 35.6769 118.97 35.7488 118.826 35.7488C116.86 36.0267 115.244 36.5872 113.906 37.2197C113.762 37.3634 110.745 39.4667 111.1 42.5569C111.45 45.7861 112.572 49.9974 110.395 49.159C108.218 48.3206 107.59 45.7238 107.59 45.7238C106.463 44.2529 105.062 42.7725 102.948 42.073C102.108 36.3189 102.036 30.5553 104.357 25.2851V25.2756H104.353Z" fill="#27313A"/>
<path d="M103.159 28.9266C109.062 27.0342 118.409 31.5952 120.025 32.5774C119.953 33.4159 119.747 34.5418 119.186 35.6724C119.042 35.6724 118.908 35.7443 118.764 35.7443C116.798 36.0222 115.181 36.5827 113.843 37.2152C113.7 37.3589 110.683 39.4622 111.038 42.5524C111.388 45.7816 114.064 62.9192 110.688 65.516C103.873 70.7813 106.607 45.5756 106.607 45.5756C105.48 44.1047 104.919 42.6961 102.813 41.9248C100.636 37.3589 101.475 33.0757 103.163 28.9362V28.9266H103.159Z" fill="#27313A"/>
<path d="M131.132 53.7154C131.204 53.7154 131.338 53.7154 131.41 53.6435L133.659 52.3787C133.803 52.3068 133.937 52.1727 133.937 51.9571C133.937 51.7415 133.865 51.6073 133.731 51.5354C131.971 50.4814 130.988 48.8668 130.499 46.4138C130.427 46.1359 130.22 45.9922 129.938 45.9922C129.659 46.0641 129.516 46.2701 129.516 46.5527C130.005 48.9435 130.925 50.6299 132.542 51.8181L130.997 52.6566C130.791 52.8003 130.647 53.0782 130.791 53.3608C130.791 53.6387 130.935 53.7106 131.141 53.7106L131.132 53.7202V53.7154Z" fill="#27313A"/>
<path d="M123.257 53.2168C120.025 52.939 117.56 50.1218 117.776 46.8926C118.054 43.6635 120.874 41.2009 124.106 41.4165C127.338 41.6943 129.803 44.5115 129.588 47.7407C129.381 50.9698 126.562 53.4324 123.257 53.2168ZM124.097 42.3316C121.353 42.1255 118.97 44.1522 118.754 46.9693C118.548 49.7098 120.577 52.091 123.396 52.3065C126.139 52.5126 128.523 50.4859 128.739 47.6688C128.883 44.9283 126.844 42.5472 124.097 42.3316Z" fill="#27313A"/>
<path d="M137.313 54.271C134.081 53.9932 131.616 51.176 131.832 47.9468C132.11 44.7177 134.93 42.2551 138.162 42.4707C141.394 42.7485 143.859 45.5657 143.643 48.7949C143.437 52.024 140.545 54.4866 137.313 54.271ZM138.09 43.3858C135.347 43.1797 132.963 45.2064 132.748 48.0235C132.541 50.764 134.57 53.1451 137.39 53.3607C140.133 53.5668 142.516 51.5401 142.732 48.723C142.938 45.9825 140.838 43.6014 138.09 43.3858Z" fill="#27313A"/>
<path d="M105.906 44.7951L105.417 44.0908C105.623 43.9471 111.954 39.9514 119.401 43.3866L118.979 44.225C112.093 40.9958 105.978 44.7137 105.906 44.7855V44.7951Z" fill="#27313A"/>
<path d="M129.444 47.6686L128.954 46.8925C129.659 46.4709 131.347 45.9103 132.685 47.1704L132.052 47.8747C130.858 46.7488 129.525 47.5968 129.453 47.6686H129.444Z" fill="#27313A"/>
<path d="M126.072 40.7989C127.127 41.5751 128.528 40.3773 127.832 39.2562C127.482 38.6957 126.849 38.1303 125.866 37.7854C121.507 36.3768 118.14 38.9783 118.14 38.9783C118.14 38.9783 122.782 39.1221 124.883 40.1042C125.372 40.3102 125.794 40.5929 126.077 40.8085V40.7989H126.072Z" fill="#27313A"/>
<path d="M133.314 41.9145C132.048 42.4032 131.065 40.7886 132.048 39.9502C132.537 39.4615 133.314 39.1118 134.369 39.0399C138.939 38.8339 139.994 41.8427 139.994 41.8427C139.994 41.8427 136.968 41.1384 134.652 41.5648C134.091 41.7085 133.669 41.7708 133.314 41.9145Z" fill="#27313A"/>
<path d="M107.096 71.8984C107.096 71.8984 100.415 73.513 98.5211 83.4162C98.5211 83.4162 86.5032 86.9951 83.2709 89.5966C80.0387 92.1934 76.1733 94.9339 76.4563 99.15C77.2955 112.915 97.8162 143.381 99.9311 151.598C102.046 159.814 89.3231 189.653 89.3231 189.653C98.5307 197.237 112.515 200.601 131.276 199.834C131.276 199.834 128.043 119.795 122.14 106.806C116.236 93.8894 110.611 84.1923 107.101 71.908V71.8984H107.096Z" fill="white"/>
<path d="M126.269 200.418C109.916 200.418 97.3991 196.93 89.0163 190.022C88.8533 189.887 88.7957 189.657 88.882 189.466C89.0067 189.169 101.514 159.685 99.466 151.717C98.6939 148.708 95.3274 142.518 91.4333 135.356C84.7865 123.129 76.514 107.912 75.9769 99.1783C75.6987 95.0148 79.1996 92.2264 82.288 89.7686L82.9738 89.2224C86.0046 86.7886 96.2434 83.6073 98.1089 83.042C99.1447 77.9682 101.447 75.1032 103.211 73.5796C105.182 71.8836 106.919 71.4476 106.99 71.4332C107.134 71.3949 107.283 71.4332 107.398 71.5243C107.494 71.5961 107.552 71.7015 107.576 71.8165C110.108 80.6608 113.671 88.0151 117.8 96.5336C119.349 99.734 120.955 103.045 122.581 106.604C128.456 119.531 131.631 196.542 131.76 199.814C131.77 200.078 131.563 200.303 131.3 200.313C129.588 200.385 127.909 200.418 126.274 200.418H126.269ZM89.9035 189.509C98.8714 196.734 112.616 200.049 130.777 199.379C130.494 192.705 127.267 119.243 121.704 107.007C120.078 103.457 118.481 100.151 116.932 96.9552C112.851 88.5325 109.321 81.2405 106.775 72.5112C105.288 73.0574 100.545 75.405 98.9961 83.5115C98.9625 83.6888 98.833 83.8277 98.6604 83.8804C98.5405 83.9139 86.6952 87.4641 83.5732 89.9746L82.8874 90.5256C79.8422 92.9499 76.6914 95.4556 76.936 99.1208C77.4539 107.644 85.6737 122.76 92.2773 134.9C96.205 142.121 99.5955 148.359 100.396 151.482C102.43 159.388 91.3662 186.045 89.9035 189.514V189.509Z" fill="#27313A"/>
<path d="M98.238 83.7695C99.9261 93.7349 106.597 102.656 115.953 106.446L98.238 83.7695Z" fill="white"/>
<path d="M115.953 106.92C115.896 106.92 115.834 106.911 115.771 106.887C106.429 103.102 99.5332 94.2768 97.7636 83.8466C97.7204 83.5879 97.8978 83.3388 98.1568 83.2957C98.4157 83.2525 98.6651 83.425 98.7083 83.6885C100.42 93.7929 107.096 102.34 116.131 106C116.375 106.101 116.495 106.379 116.395 106.623C116.318 106.81 116.141 106.92 115.949 106.92H115.953Z" fill="#27313A"/>
<path d="M231.83 117.83C232.57 117.642 247.137 113.761 245.856 111.539C245.053 110.152 242.203 109.127 238.697 109.419C235.558 109.681 228.613 110.178 227.192 110.279C227.024 110.293 226.862 110.266 226.708 110.199C225.686 109.765 221.424 108.085 217.66 108.471C217.522 108.471 217.323 108.535 217.118 108.542C217.018 108.549 216.913 108.559 216.813 108.565C215.771 108.781 214.934 109.069 214.228 109.493C212.547 110.662 211.962 112.857 212.766 114.685C213.058 115.344 213.495 115.928 214.154 116.439C214.638 116.856 215.256 117.272 216.006 117.625C216.019 117.632 216.06 117.635 216.107 117.666C216.268 117.773 216.268 118.025 216.271 118.045C216.292 118.291 219.841 120.908 231.83 117.827V117.83Z" fill="white"/>
<path d="M221.865 119.658C221.411 119.658 220.97 119.645 220.547 119.618C217.764 119.443 216.571 118.734 216.272 118.522C216.046 118.365 215.946 118.23 215.936 118.079C215.936 118.008 215.922 117.971 215.915 117.955C215.892 117.948 215.875 117.941 215.865 117.934C215.146 117.595 214.497 117.178 213.936 116.698C213.277 116.184 212.789 115.569 212.46 114.823C211.583 112.823 212.245 110.467 214.036 109.217C214.766 108.78 215.62 108.471 216.746 108.236C216.759 108.236 216.772 108.233 216.786 108.229L217.092 108.202C217.196 108.199 217.287 108.179 217.367 108.166C217.461 108.149 217.552 108.132 217.643 108.129C221.431 107.745 225.642 109.375 226.842 109.883C226.95 109.926 227.058 109.943 227.172 109.94C229.101 109.802 235.628 109.335 238.67 109.08C242.072 108.797 245.218 109.758 246.149 111.368C246.3 111.63 246.313 111.923 246.189 112.218C245.134 114.729 232.049 118.116 231.914 118.153C228.036 119.151 224.661 119.652 221.865 119.652V119.658ZM216.594 117.921C216.977 118.213 220.436 120.414 231.746 117.508C235.951 116.429 244.858 113.653 245.567 111.966C245.621 111.842 245.598 111.771 245.564 111.714C244.888 110.548 242.263 109.466 238.724 109.758C235.679 110.014 229.145 110.481 227.216 110.619C226.997 110.635 226.779 110.598 226.577 110.511C225.747 110.162 221.421 108.428 217.693 108.807C217.633 108.814 217.566 108.821 217.485 108.834C217.381 108.854 217.26 108.875 217.129 108.881L216.856 108.905C215.818 109.123 215.035 109.402 214.396 109.785C212.887 110.837 212.322 112.85 213.072 114.554C213.358 115.192 213.778 115.727 214.359 116.177C214.88 116.624 215.472 117.004 216.127 117.316C216.164 117.326 216.225 117.35 216.288 117.39C216.453 117.501 216.561 117.686 216.594 117.918V117.921Z" fill="#27313A" stroke="#27313A" stroke-width="0.221194"/>
<path d="M222.497 118.496C219.495 121.974 216.094 126.272 213.092 129.747C211.694 129.31 209.576 128.456 207.445 126.743C204.504 124.374 203.073 121.598 202.437 120.112C204.851 118.133 207.271 116.127 209.697 114.09C210.682 113.264 211.66 112.44 212.635 111.614" fill="white"/>
<path d="M227.192 110.28C231.162 110.032 233.958 109.094 235.85 108.214C236.462 107.928 239.003 106.812 240.744 107.259C241.383 107.424 241.981 107.884 242.788 108.798C242.831 108.849 242.855 108.896 242.858 108.956C242.882 109.507 240.704 109.934 237.222 110.852C236.005 111.171 235.003 111.453 234.318 111.651" fill="white"/>
<path d="M213.092 130.083C213.059 130.083 213.025 130.08 212.992 130.07C210.881 129.411 208.941 128.379 207.234 127.005C205.026 125.227 203.258 122.888 202.128 120.244C202.071 120.106 202.108 119.948 202.226 119.851C204.639 117.871 207.083 115.848 209.483 113.832C210.467 113.005 211.445 112.182 212.42 111.355C212.561 111.234 212.773 111.254 212.894 111.396C213.015 111.537 212.995 111.748 212.854 111.869C211.879 112.696 210.898 113.519 209.913 114.346C207.573 116.309 205.197 118.278 202.848 120.207C203.94 122.657 205.6 124.821 207.657 126.477C209.244 127.754 211.032 128.722 212.982 129.357L221.845 119.094C221.966 118.953 222.178 118.94 222.319 119.061C222.46 119.182 222.473 119.394 222.352 119.535L213.345 129.966C213.281 130.04 213.187 130.083 213.089 130.083H213.092Z" fill="#27313A" stroke="#27313A" stroke-width="0.221194"/>
<path d="M234.317 111.991C234.173 111.991 234.039 111.893 233.995 111.749C233.944 111.57 234.045 111.386 234.223 111.332C235.171 111.06 236.149 110.791 237.134 110.532C237.786 110.361 238.395 110.206 238.949 110.065C240.593 109.645 242.152 109.248 242.485 108.969C241.736 108.129 241.204 107.729 240.657 107.588C239.07 107.182 236.68 108.2 235.988 108.523C233.43 109.709 230.479 110.414 227.212 110.619C227.024 110.63 226.866 110.492 226.856 110.304C226.846 110.115 226.983 109.957 227.172 109.947C230.355 109.749 233.228 109.064 235.709 107.914C236.664 107.471 239.077 106.489 240.828 106.94C241.53 107.121 242.172 107.595 243.043 108.583C243.14 108.697 243.191 108.815 243.198 108.953C243.228 109.672 242.109 109.957 239.121 110.72C238.566 110.861 237.961 111.016 237.309 111.187C236.327 111.446 235.353 111.715 234.412 111.984C234.381 111.994 234.348 111.997 234.317 111.997V111.991Z" fill="#27313A" stroke="#27313A" stroke-width="0.221194"/>
<path d="M154.602 85.4928C154.602 85.4928 159.132 85.345 163.441 94.6333C165.851 99.8992 175.787 127.835 178.852 135.443C178.852 135.443 190.757 126.595 196.236 123.083C200.767 120.16 203.029 118.036 203.029 118.036C203.029 118.036 207.119 113.939 208.726 114.89L218.588 123.08C218.588 123.08 220.12 124.616 218.514 126.37C217.707 127.237 203.328 142.967 193.359 152.282C189.453 155.932 184.334 158.005 178.99 158.103C170.241 158.261 162.248 153.136 158.773 145.104C151.795 128.984 144.3 104.429 144.3 104.429" fill="white"/>
<path d="M178.59 158.449C169.821 158.449 161.952 153.301 158.464 145.246C151.56 129.29 144.054 104.782 143.98 104.537C143.927 104.359 144.027 104.17 144.202 104.117C144.38 104.059 144.569 104.164 144.622 104.338C144.696 104.584 152.192 129.058 159.082 144.977C162.514 152.907 170.332 157.921 178.983 157.773C184.254 157.679 189.278 155.643 193.13 152.044C199.063 146.499 207.842 137.463 217.855 126.598C218.067 126.366 218.208 126.215 218.272 126.148C219.609 124.686 218.483 123.456 218.352 123.322L208.538 115.173C207.513 114.618 204.77 116.776 203.271 118.278C203.241 118.308 200.925 120.462 196.421 123.369C191.013 126.833 179.175 135.628 179.054 135.715C178.97 135.779 178.862 135.796 178.761 135.769C178.661 135.742 178.58 135.668 178.54 135.571C177.219 132.301 174.647 125.315 171.925 117.921C168.278 108.015 164.503 97.7687 163.132 94.7779C158.988 85.8491 154.639 85.8155 154.608 85.8323C154.423 85.8457 154.269 85.6911 154.265 85.5063C154.262 85.3215 154.403 85.1669 154.588 85.1635C154.783 85.1568 159.388 85.1165 163.744 94.4989C165.125 97.5166 168.903 107.773 172.557 117.693C175.172 124.79 177.646 131.511 179.003 134.919C181.017 133.43 191.157 125.946 196.055 122.804C200.501 119.934 202.777 117.817 202.8 117.797C203.231 117.367 207.119 113.553 208.897 114.608C208.914 114.618 208.928 114.628 208.941 114.638L218.803 122.828C219.435 123.46 220.204 125.029 218.762 126.605C218.699 126.672 218.557 126.827 218.349 127.055C208.329 137.933 199.537 146.983 193.591 152.538C189.618 156.251 184.435 158.351 178.997 158.449C178.862 158.449 178.724 158.452 178.593 158.452L178.59 158.449Z" fill="#27313A" stroke="#27313A" stroke-width="0.221194"/>
<path d="M173.448 139.658C173.343 139.658 173.239 139.611 173.175 139.52C173.068 139.369 173.101 139.16 173.249 139.049L178.802 135.027C178.953 134.916 179.161 134.953 179.272 135.101C179.38 135.252 179.346 135.46 179.198 135.571L173.646 139.594C173.585 139.637 173.518 139.658 173.448 139.658Z" fill="#27313A" stroke="#27313A" stroke-width="0.221194"/>
<path d="M229.676 113.271C229.528 113.271 229.393 113.174 229.353 113.026C229.303 112.848 229.41 112.663 229.588 112.612L242.078 109.175C242.257 109.124 242.441 109.232 242.492 109.41C242.542 109.588 242.435 109.773 242.257 109.823L229.767 113.261C229.736 113.268 229.706 113.274 229.676 113.274V113.271Z" fill="#27313A" stroke="#27313A" stroke-width="0.221194"/>
<path d="M135.563 102.22C135.481 102.22 135.395 102.201 135.318 102.153C135.088 102.019 135.016 101.727 135.146 101.497C137.927 96.7681 138.584 88.8149 136.781 81.7098C136.719 81.4511 136.872 81.1924 137.126 81.1301C137.385 81.0678 137.644 81.2211 137.707 81.475C139.596 88.9251 138.91 96.9789 135.966 101.986C135.875 102.139 135.716 102.22 135.553 102.22H135.563Z" fill="#27313A"/>
<path d="M97.4807 117.537C97.4807 117.537 97.3081 137.813 98.5693 147.294L93.0352 137.248L97.4759 117.537H97.4807Z" fill="#27313A"/>
<path d="M129.659 74.0732C129.659 74.0732 131.347 87.972 132.613 96.9648C133.951 106.581 145.125 134.11 146.463 152.22C147.801 170.33 152.16 195.685 152.16 195.685C152.16 195.685 167.056 194.631 176.762 184.871C176.762 184.871 163.895 157.342 161.296 146.322C158.697 135.298 166.706 121.112 164.672 115.08C162.706 108.971 156.448 106.729 155.959 101.243C155.469 95.7671 157.997 87.1288 153.92 84.532C149.839 81.9353 138.67 82.5677 137.265 81.437C137.193 81.3651 133.889 74.557 129.674 74.0684L129.664 74.0779L129.659 74.0732Z" fill="white"/>
<path d="M152.156 196.164C151.926 196.164 151.724 195.997 151.686 195.767C151.643 195.513 147.308 170.182 145.984 152.254C145.164 141.129 140.584 126.354 136.911 114.481C134.628 107.113 132.657 100.745 132.139 97.0324C130.887 88.1402 129.204 74.2701 129.185 74.1311C129.166 73.9874 129.218 73.8389 129.324 73.7335L129.333 73.7239C129.434 73.6185 129.578 73.5658 129.727 73.5849C133.304 73.997 136.196 78.4383 137.601 81.0494C137.611 81.0686 137.62 81.0829 137.63 81.0973C138.205 81.4279 140.445 81.6052 142.613 81.7777C146.631 82.0987 151.633 82.4963 154.18 84.1157C157.23 86.0561 156.894 90.8663 156.573 95.5136C156.429 97.5786 156.295 99.5237 156.443 101.191C156.683 103.917 158.501 105.862 160.419 107.918C162.26 109.892 164.169 111.933 165.133 114.922C166.087 117.754 164.97 122.128 163.68 127.197C162.121 133.31 160.357 140.238 161.767 146.203C164.327 157.05 177.069 184.383 177.199 184.661C177.285 184.843 177.247 185.059 177.103 185.202C167.382 194.976 152.348 196.145 152.194 196.155C152.185 196.155 152.17 196.155 152.161 196.155L152.156 196.164ZM130.211 74.6581C130.561 77.4992 131.99 89.108 133.084 96.8982C133.592 100.539 135.549 106.868 137.822 114.199C141.514 126.119 146.109 140.947 146.938 152.182C148.161 168.764 151.974 191.718 152.554 195.163C155.033 194.895 167.636 193.155 176.182 184.766C174.768 181.714 163.263 156.748 160.827 146.428C159.364 140.233 161.162 133.186 162.745 126.967C163.997 122.047 165.08 117.802 164.217 115.229C163.315 112.436 161.484 110.476 159.714 108.579C157.676 106.399 155.753 104.339 155.484 101.282C155.331 99.5429 155.475 97.4636 155.614 95.4513C155.921 91.0819 156.232 86.5639 153.662 84.9302C151.317 83.4354 146.444 83.0521 142.531 82.7407C139.318 82.4867 137.611 82.3286 136.959 81.8064C136.944 81.7968 136.93 81.7824 136.92 81.7729C136.863 81.7154 136.848 81.6866 136.752 81.5093C134.705 77.7052 132.355 75.257 130.211 74.6629V74.6581Z" fill="#27313A"/>
<path d="M135.563 101.746C138.661 96.4805 138.939 88.2639 137.251 81.5947L135.563 101.746Z" fill="white"/>
<path d="M130.077 157.821C129.065 156.949 127.391 153.461 126.921 152.095C125.823 148.905 125.852 147.113 128.513 145.038L131.942 141.531L135.846 132.289C137.198 129.946 138.69 128.61 139.361 128.907C139.994 129.185 140.018 130.957 139.51 133.065C139.26 134.033 139.016 134.996 138.766 135.964C143.087 134.158 147.47 132.505 152.602 130.531C153.537 130.172 154.592 130.617 154.98 131.542C155.369 132.471 154.947 133.54 154.026 133.947L145.581 137.713L159.752 134.421C160.702 134.201 161.656 134.752 161.939 135.681C162.231 136.644 161.694 137.665 160.735 137.976L147.259 142.298L158.064 141.344C159.052 141.258 159.93 141.958 160.064 142.94C160.184 143.831 159.647 144.684 158.788 144.957L149.149 148.023L154.28 147.333C155.048 147.233 155.815 147.664 156.04 148.406C156.28 149.211 155.848 150.035 155.091 150.308L142.435 154.913L130.086 157.816L130.077 157.821Z" fill="white"/>
<path d="M130.076 158.3C129.961 158.3 129.851 158.261 129.765 158.185C128.604 157.188 126.906 153.528 126.47 152.253C125.353 149.005 125.314 146.94 128.196 144.683L131.539 141.263L135.409 132.102C135.409 132.102 135.424 132.064 135.433 132.049C136.579 130.066 138.344 127.929 139.557 128.466C140.867 129.041 140.21 132.217 139.979 133.175L139.471 135.149C142.814 133.769 146.18 132.476 150.031 131L152.429 130.08C153.613 129.625 154.928 130.181 155.421 131.355C155.906 132.514 155.369 133.87 154.223 134.383L150.343 136.112L159.642 133.951C160.831 133.674 162.039 134.373 162.394 135.542C162.759 136.749 162.083 138.048 160.879 138.431L151.489 141.44L158.016 140.865C159.253 140.75 160.366 141.636 160.534 142.872C160.687 143.998 160.011 145.067 158.927 145.412L154.438 146.839C154.438 146.839 154.477 146.839 154.496 146.839C155.407 146.839 156.232 147.419 156.491 148.267C156.798 149.297 156.251 150.394 155.244 150.759L142.588 155.363C142.588 155.363 142.555 155.377 142.536 155.377L130.187 158.281C130.148 158.29 130.115 158.295 130.076 158.295V158.3ZM136.277 132.505L132.383 141.718C132.359 141.775 132.326 141.823 132.282 141.866L128.853 145.373C128.853 145.373 128.82 145.402 128.806 145.417C126.307 147.362 126.336 148.928 127.372 151.937C127.818 153.24 129.295 156.287 130.22 157.289L142.286 154.452L154.913 149.863C155.445 149.671 155.733 149.091 155.57 148.545C155.421 148.052 154.884 147.735 154.338 147.812L149.206 148.502C148.952 148.535 148.727 148.373 148.674 148.133C148.621 147.889 148.76 147.644 148.995 147.572L158.635 144.506C159.272 144.305 159.67 143.673 159.579 143.011C159.479 142.283 158.822 141.756 158.093 141.828L147.288 142.781C147.048 142.805 146.823 142.638 146.775 142.398C146.727 142.159 146.866 141.919 147.096 141.847L160.572 137.526C161.277 137.3 161.68 136.539 161.464 135.825C161.253 135.14 160.543 134.728 159.843 134.891L145.672 138.182C145.432 138.239 145.188 138.101 145.111 137.866C145.034 137.631 145.144 137.377 145.37 137.276L153.815 133.511C154.491 133.209 154.808 132.409 154.52 131.728C154.232 131.039 153.455 130.708 152.755 130.981L150.357 131.901C146.175 133.506 142.559 134.891 138.934 136.409C138.766 136.481 138.574 136.448 138.435 136.328C138.296 136.208 138.239 136.021 138.282 135.849L139.025 132.95C139.605 130.555 139.313 129.453 139.145 129.347C138.891 129.285 137.639 130.123 136.258 132.509L136.277 132.505Z" fill="#27313A"/>
<path d="M75.5834 98.6129L66.7066 156.815C65.6324 163.853 68.3755 170.934 73.9097 175.418C79.9474 180.31 88.2679 181.283 95.2743 177.915L134.91 158.841L127.559 144.209L92.0469 156.8L99.0869 101.904C99.8686 95.8102 95.8594 90.128 89.8457 88.8152C83.1509 87.3539 76.6144 91.848 75.5834 98.6129Z" fill="white"/>
<path d="M86.5847 180.367C81.9425 180.367 77.3291 178.81 73.6077 175.791C67.9632 171.221 65.1385 163.919 66.2319 156.742L75.1087 98.5404C75.6266 95.1339 77.4778 92.1874 80.3168 90.2327C83.1558 88.2827 86.5751 87.612 89.9465 88.345C96.248 89.72 100.377 95.5747 99.5618 101.961L92.6225 156.086L127.401 143.754C127.626 143.672 127.88 143.773 127.99 143.988L135.342 158.62C135.4 158.735 135.409 158.869 135.366 158.989C135.323 159.109 135.237 159.21 135.122 159.267L95.4855 178.34C92.6656 179.696 89.6204 180.362 86.5895 180.362L86.5847 180.367ZM76.0582 98.6889L67.1815 156.891C66.136 163.732 68.8312 170.689 74.2119 175.049C80.077 179.802 88.2632 180.755 95.0683 177.483L134.268 158.625L127.324 144.808L92.2101 157.255C92.0518 157.312 91.8791 157.279 91.7496 157.178C91.6201 157.078 91.553 156.91 91.577 156.742L98.6171 101.846C99.3748 95.9532 95.5622 90.5537 89.7499 89.2841C86.6423 88.6085 83.4915 89.2266 80.8683 91.0232C78.2499 92.8246 76.5426 95.5412 76.063 98.6841L76.0582 98.6889Z" fill="#27313A"/>
<path d="M129.635 161.289C129.463 161.289 129.295 161.193 129.209 161.026L121.713 146.346C121.593 146.111 121.684 145.824 121.924 145.704C122.159 145.584 122.447 145.675 122.567 145.915L130.062 160.595C130.182 160.829 130.091 161.117 129.851 161.237C129.779 161.27 129.707 161.289 129.635 161.289Z" fill="#27313A"/>
</g>
<defs>
<clipPath id="clip0_2618_1486">
<rect width="336" height="200" fill="white"/>
</clipPath>
</defs>
</svg>
