<svg xmlns="http://www.w3.org/2000/svg" width="225" height="100" fill="none" viewBox="0 0 225 100"><g clip-path="url(#clip0)"><path fill="#fff" d="M0 0h225v100H0z"/><g filter="url(#filter0_d)"><path fill="#345C7C" d="M0 6.308a6 6 0 015.992-6L225 0v30c0 38.66-31.34 70-70 70H6a6 6 0 01-6-6V6.308z"/></g><g clip-path="url(#clip1)"><path fill="#4D8AF0" d="M34.261 64.524H15.83v2.797H34.26v-2.797z"/><path fill="#EEE" d="M15.838 67.254l-2.149 43.395h1.34l2.983-43.372-2.174-.023zM34.223 67.254l1.801 43.395h-1.13l-2.472-43.372 1.801-.023z"/><path fill="#E0E0E0" d="M19.506 67.277l-2.215 43.372h1.558l2.045-43.395-1.387.023zM30.927 67.277l2.215 43.372h-1.558L29.54 67.254l1.387.023zM29.91 94.432h-9.778v1.692h9.778v-1.692zM30.277 86.605H20.132v1.447h10.145v-1.447z"/><path fill="#E0E0E0" d="M30.277 78.508H20.132v1.57h10.145v-1.57zM29.886 70.535h-9.24v1.57h9.24v-1.57z"/><path fill="#4D8AF0" d="M38.613 59.15H11.527v5.742h27.086v-5.741z"/><path fill="url(#paint0_linear)" d="M37.17 18.718l-9.41 6.158a1.807 1.807 0 00-.612-.957c.122-.294.122-.613.049-.932a.736.736 0 00-.098-.246c-.098-.098-.244-.122-.367-.098l-1.49.098a.879.879 0 00-.49.148c-.22.171-.269.54-.489.711-.146.098-.317.098-.489.172-.342.196-.415.736-.44 1.178-.024.613-.024 1.324.367 1.717.293.27.685.245 1.051.22l.367-.024.293.148v.515h-.073s-4.229-1.227-8.85 11.58h-.073s-.684 2.33.416 1.914c.953-.368.978-1.546.953-1.84h.074s1.906-5.619 4.913-6.306c0 0 2.176 2.748-1.369 8.22h2.787c0 .613.122 1.226.367 1.79.83 1.644-1.638 17.273-1.638 17.273h2.053L26 54.98l.122 5.177h1.491l1.516-9.961-.195-11.998v-3.116l.268.368v-4.808h3.96l.685-5.349h-.073c.024-.368 0-.736-.05-1.128l5.11-1.08c.782-3.41-1.663-4.367-1.663-4.367zm-4.473 6.673l-1.198 3.067s-3.275-1.497-4.498-.957h-.073v-.662a1.8 1.8 0 00.88-1.423l4.913-1.03a4.58 4.58 0 00-.024 1.005z" opacity=".5"/><path fill="#FDA57D" d="M33.455 26.176s.147-2.257-.538-1.766c-.684.49-.391 1.914-.391 1.914l.929-.148zM16.93 39.106s-.66 2.208.39 1.84c1.052-.368.905-1.84.905-1.84H16.93zM26.977 27.206h-1.442v1.3h1.442v-1.3z"/><path fill="#4D8AF0" d="M25.535 34.395H24.36v5.889h1.174v-5.889z"/><path fill="#000" d="M25.535 34.395H24.36v5.889h1.174v-5.889z" opacity=".1"/><path fill="#fff" d="M26.072 28.066h1.345c.782 0 1.417.638 1.417 1.423v8.783H24.68v-8.808c0-.76.635-1.398 1.393-1.398z"/><path fill="#FDA57D" d="M26.121 27.648a1.69 1.69 0 001.687-1.692 1.69 1.69 0 00-1.687-1.693 1.69 1.69 0 00-1.686 1.693 1.69 1.69 0 001.686 1.692z"/><path fill="#4D8AF0" d="M25.461 28.065s-4.034-1.177-8.458 11.114h1.296s1.833-5.348 4.693-6.01c0 0 2.078 2.6-1.296 7.85h2.738v-1.741c-.024-2.65.318-5.3.978-7.876a6.711 6.711 0 00.049-3.337zM27.026 28.065v.393s.904 4.048 1.687 6.673l.39.54V31.06h3.765l.66-5.079h-1.05l-1.199 2.993c.025 0-3.08-1.447-4.253-.908z"/><path fill="#333" d="M24.68 38.247s-.783 2.87 0 4.441c.782 1.57-1.565 16.463-1.565 16.463h1.955l2.787-14.059.465-6.87-3.643.025z"/><path fill="#333" d="M28.835 38.247l.195 11.433-1.418 9.47H26.17l-.513-20.903h3.178zM25.828 25.317c.024-.049.073-.098.122-.147.049-.025.098-.05.171-.05.342-.024.758-.024.978-.367.147-.294.196-.663.098-.982 0-.098-.05-.171-.098-.245a.362.362 0 00-.342-.098l-1.418.098a.802.802 0 00-.464.147c-.196.172-.27.516-.465.663-.147.098-.318.098-.464.172-.318.171-.392.687-.416 1.128-.024.589-.024 1.276.342 1.62.27.27.66.245 1.003.22l.66-.049c.073 0 .122-.024.195-.049.073-.123.122-.245.098-.393-.025-.318-.049-.711-.269-.907-.049-.05-.098-.074-.147-.123-.244-.392.294-.466.416-.638z"/><path fill="#F55F44" d="M36.73 19.699s2.347.908 1.565 4.17L27.76 26.103v-.515l8.972-5.888z"/><path fill="#000" d="M34.237 64.843H15.878v.515h18.359v-.516z" opacity=".1"/><path fill="#EEE" d="M34.188 99.534H15.83v2.209h18.358v-2.209z"/><path fill="url(#paint1_linear)" d="M48.464 18.791l.196-.073h-.05l.025-.025h-.024l-5.06-.638.122 1.669.147 1.496.318-.171.293.662 4.033-2.92z"/><path fill="#fff" d="M43.844 19.699l.147 1.35 4.498-2.282-3.911.073-.734.859z"/><path fill="#000" d="M43.844 19.699l.147 1.35 4.498-2.282-3.911.073-.734.859z" opacity=".2"/><path fill="#fff" d="M43.746 18.153l4.742.613-4.644.933-.098-1.546z"/><path fill="#fff" d="M44.529 21.515l3.935-2.773-4.547 1.374.612 1.399z"/><path fill="url(#paint2_linear)" d="M72.934 11.799l.196-.098h-.05l.025-.025-.049.024-5.035-.662.097 1.668.171 1.497.318-.172.27.663 4.057-2.895z"/><path fill="#fff" d="M68.29 12.682l.146 1.35 4.522-2.282-3.911.074-.758.858z"/><path fill="#000" d="M68.29 12.682l.146 1.35 4.522-2.282-3.911.074-.758.858z" opacity=".2"/><path fill="#fff" d="M68.191 11.137l4.767.613-4.669.932-.098-1.545z"/><path fill="#fff" d="M68.998 14.498l3.936-2.773-4.547 1.374.611 1.399z"/><path fill="url(#paint3_linear)" d="M115.787 9.59l.268-.17h-.073l.025-.025-.049.024-7.774.319.611 2.503.611 2.183.44-.319.587.908 5.354-5.422z"/><path fill="#fff" d="M109.04 12.142l.562 2.012 6.209-4.637-5.867 1.153-.904 1.472z"/><path fill="#000" d="M109.04 12.142l.562 2.012 6.209-4.637-5.867 1.153-.904 1.472z" opacity=".2"/><path fill="#fff" d="M108.502 9.86l7.309-.343-6.771 2.625-.538-2.281z"/><path fill="#fff" d="M110.555 14.694l5.207-5.177-6.502 3.214 1.295 1.963z"/><path fill="url(#paint4_linear)" d="M95.179 23.723l.195-.049h-.048l.024-.025h-.024l-4.743-1.84-.293 1.644-.22 1.472.342-.073.122.711 4.645-1.84z"/><path fill="#fff" d="M90.461 23.453l-.195 1.373 4.938-1.153-3.838-.858-.905.638z"/><path fill="#000" d="M90.461 23.453l-.195 1.373 4.938-1.153-3.838-.858-.905.638z" opacity=".2"/><path fill="#fff" d="M90.73 21.956l4.474 1.718-4.743-.221.27-1.497zM90.705 25.391l4.474-1.717-4.743.196.27 1.521z"/><g opacity=".5"><path fill="url(#paint5_linear)" d="M67.287 41.191l.196-.098h-.05.025-.049l-5.036-.662.098 1.693.171 1.472.318-.147.27.662 4.057-2.92z" opacity=".5"/><path fill="#fff" d="M62.643 42.074l.146 1.374 4.523-2.306-3.912.098-.757.834z" opacity=".5"/><path fill="#000" d="M62.643 42.074l.146 1.374 4.523-2.306-3.912.098-.757.834z" opacity=".2"/><path fill="#fff" d="M62.545 40.553l4.767.59-4.669.932-.098-1.522z" opacity=".5"/><path fill="#fff" d="M63.351 43.89l3.936-2.748-4.547 1.35.611 1.398z" opacity=".5"/></g><g opacity=".2"><path fill="url(#paint6_linear)" d="M121.971 18.767l.269-.172h-.073l.024-.025-.049.025-7.773.319.611 2.502.611 2.184.44-.319.587.908 5.353-5.422z" opacity=".2"/><path fill="#fff" d="M115.224 21.318l.562 2.012 6.209-4.637-5.866 1.153-.905 1.472z" opacity=".2"/><path fill="#000" d="M115.224 21.318l.562 2.012 6.209-4.637-5.866 1.153-.905 1.472z" opacity=".2"/><path fill="#fff" d="M114.687 19.036l7.309-.343-6.772 2.625-.537-2.282z" opacity=".2"/><path fill="#fff" d="M116.74 23.87l5.207-5.177-6.503 3.214 1.296 1.963z" opacity=".2"/></g><g opacity=".3"><path fill="url(#paint7_linear)" d="M142.676 46.025l.245-.197h-.049v-.024l-.025.024-7.773.32.611 2.502.611 2.208.416-.32.611.909 5.353-5.422z" opacity=".3"/><path fill="#fff" d="M135.929 48.552l.562 2.012 6.209-4.613-5.891 1.153-.88 1.448z" opacity=".3"/><path fill="#000" d="M135.929 48.552l.562 2.012 6.209-4.613-5.891 1.153-.88 1.448z" opacity=".2"/><path fill="#fff" d="M135.367 46.27l7.333-.319-6.771 2.6-.562-2.28z" opacity=".3"/><path fill="#fff" d="M137.445 51.103l5.207-5.177-6.503 3.239 1.296 1.938z" opacity=".3"/></g><g opacity=".3"><path fill="url(#paint8_linear)" d="M206.649 59.519l.269-.196h-.073l.024-.025-.049.025-7.773.319.611 2.502.611 2.208.416-.343.611.932 5.353-5.422z" opacity=".3"/><path fill="#fff" d="M199.902 62.046l.563 2.012 6.209-4.612-5.892 1.128-.88 1.472z" opacity=".3"/><path fill="#000" d="M199.902 62.046l.563 2.012 6.209-4.612-5.892 1.128-.88 1.472z" opacity=".2"/><path fill="#fff" d="M199.34 59.764l7.333-.318-6.771 2.6-.562-2.282z" opacity=".3"/><path fill="#fff" d="M201.418 64.597l5.207-5.176-6.502 3.238 1.295 1.938z" opacity=".3"/></g><g opacity=".5"><path fill="url(#paint9_linear)" d="M95.986 45.583l.195-.049-.049-.024h.025-.025l-4.742-1.865-.293 1.668-.22 1.472.342-.073.122.711 4.645-1.84z" opacity=".5"/><path fill="#fff" d="M91.268 45.314l-.195 1.35 4.938-1.13-3.838-.858-.905.638z" opacity=".5"/><path fill="#000" d="M91.268 45.314l-.195 1.35 4.938-1.13-3.838-.858-.905.638z" opacity=".2"/><path fill="#fff" d="M91.537 43.792l4.473 1.742-4.742-.22.269-1.522z" opacity=".5"/><path fill="#fff" d="M91.512 47.252l4.474-1.742-4.743.22.27 1.522z" opacity=".5"/></g><g opacity=".5"><path fill="url(#paint10_linear)" d="M178.488 43.694l.22-.05-.048-.024h.024-.024l-4.743-1.864-.318 1.668-.195 1.472.342-.074.122.712 4.62-1.84z" opacity=".5"/><path fill="#fff" d="M173.796 43.424l-.196 1.35 4.938-1.129-3.838-.859-.904.638z" opacity=".5"/><path fill="#000" d="M173.796 43.424l-.196 1.35 4.938-1.129-3.838-.859-.904.638z" opacity=".2"/><path fill="#fff" d="M174.064 41.927l4.473 1.718-4.742-.221.269-1.497z" opacity=".5"/><path fill="#fff" d="M174.039 45.362l4.474-1.742-4.742.221.268 1.521z" opacity=".5"/></g><g opacity=".2"><path fill="url(#paint11_linear)" d="M223.126 15.356l.195-.049h-.049l.025-.024h-.025l-4.742-1.84-.293 1.643-.196 1.497.342-.098.122.711 4.621-1.84z" opacity=".2"/><path fill="#fff" d="M218.408 15.111l-.195 1.35 4.938-1.129-3.814-.883-.929.662z" opacity=".2"/><path fill="#000" d="M218.408 15.111l-.195 1.35 4.938-1.129-3.814-.883-.929.662z" opacity=".2"/><path fill="#fff" d="M218.677 13.59l4.473 1.742-4.742-.22.269-1.522z" opacity=".2"/><path fill="#fff" d="M218.652 17.025l4.474-1.718-4.743.221.269 1.497z" opacity=".2"/></g><g opacity=".2"><path fill="url(#paint12_linear)" d="M58.07 24.532l.197-.049h-.025v-.024h-.024l-4.743-1.84-.293 1.643-.196 1.472.343-.073.122.711 4.62-1.84z" opacity=".2"/><path fill="#fff" d="M53.354 24.287l-.171 1.35 4.913-1.154-3.813-.858-.93.662z" opacity=".2"/><path fill="#000" d="M53.354 24.287l-.171 1.35 4.913-1.154-3.813-.858-.93.662z" opacity=".2"/><path fill="#fff" d="M53.622 22.766l4.473 1.717-4.742-.196.269-1.521zM53.597 26.2l4.474-1.717-4.742.196.268 1.522z" opacity=".2"/></g><path fill="url(#paint13_linear)" d="M153.75 18.521l.293-.147h-.073l.024-.024h-.049l-7.7-.982.171 2.552.22 2.281.489-.245.44 1.006 6.185-4.44z"/><path fill="#fff" d="M146.661 19.87l.22 2.086 6.894-3.508-5.989.122-1.125 1.3z"/><path fill="#000" d="M146.661 19.87l.22 2.086 6.894-3.508-5.989.122-1.125 1.3z" opacity=".2"/><path fill="#fff" d="M146.514 17.54l7.26.908-7.113 1.423-.147-2.33z"/><path fill="#fff" d="M147.737 22.643l6.013-4.22-6.967 2.086.954 2.134z"/><path fill="url(#paint14_linear)" d="M204.914 15.577l.66-.294-.171-.025.049-.024-.074.024-17.527-3.214.098 5.889.293 5.225 1.1-.515.88 2.355 14.692-9.42z"/><path fill="#fff" d="M188.536 17.86l.269 4.759 16.158-7.189-13.689-.417-2.738 2.846z"/><path fill="#000" d="M188.536 17.86l.269 4.759 16.158-7.189-13.689-.417-2.738 2.846z" opacity=".2"/><path fill="#fff" d="M188.462 12.486l16.501 2.944-16.427 2.43-.074-5.374z"/><path fill="#fff" d="M190.663 24.311l14.227-8.93-16.159 3.9 1.932 5.03z"/><path fill="url(#paint15_linear)" d="M129.476 34.1l.293-.147h-.073.024-.049l-7.7-1.006.171 2.577.245 2.257.464-.245.44 1.005 6.185-4.44z"/><path fill="#fff" d="M122.387 35.475l.244 2.06 6.869-3.508-5.964.147-1.149 1.3z"/><path fill="#000" d="M122.387 35.475l.244 2.06 6.869-3.508-5.964.147-1.149 1.3z" opacity=".2"/><path fill="#fff" d="M122.24 33.12l7.26.907-7.113 1.448-.147-2.355z"/><path fill="#fff" d="M123.462 38.247l6.014-4.22-6.967 2.061.953 2.16z"/><path fill="url(#paint16_linear)" d="M175.995 30.592l.269-.147h-.049.025-.049l-7.725-1.006.171 2.576.245 2.258.489-.246.44 1.006 6.184-4.44z"/><path fill="#fff" d="M168.906 31.966l.22 2.061 6.894-3.484-5.989.123-1.125 1.3z"/><path fill="#000" d="M168.906 31.966l.22 2.061 6.894-3.484-5.989.123-1.125 1.3z" opacity=".2"/><path fill="#fff" d="M168.759 29.61l7.261.933-7.114 1.423-.147-2.355z"/><path fill="#fff" d="M169.982 34.739l5.989-4.22-6.943 2.06.954 2.16z"/></g><g clip-path="url(#clip2)" opacity=".1"><path fill="#fff" fill-rule="evenodd" d="M155.292 13.734a2.545 2.545 0 012.535 2.557 2.543 2.543 0 01-2.535 2.545 2.545 2.545 0 01-2.547-2.545 2.548 2.548 0 012.547-2.557zm40.683 40.85a2.543 2.543 0 01-2.535 2.545 2.545 2.545 0 01-2.547-2.545 2.548 2.548 0 012.547-2.557 2.545 2.545 0 012.535 2.557zm-9.537 0a2.543 2.543 0 01-2.535 2.545 2.545 2.545 0 01-2.547-2.545 2.548 2.548 0 012.547-2.557 2.545 2.545 0 012.535 2.557zm9.537-9.573a2.543 2.543 0 01-2.535 2.545 2.545 2.545 0 01-2.547-2.545 2.548 2.548 0 012.547-2.557 2.545 2.545 0 012.535 2.557zm-9.537 0a2.543 2.543 0 01-2.535 2.545 2.545 2.545 0 01-2.547-2.545 2.548 2.548 0 012.547-2.557 2.545 2.545 0 012.535 2.557zm-28.611 9.573a2.543 2.543 0 01-2.535 2.545 2.545 2.545 0 01-2.547-2.545 2.548 2.548 0 012.547-2.557 2.545 2.545 0 012.535 2.557zm19.074 0a2.543 2.543 0 01-2.535 2.545 2.545 2.545 0 01-2.547-2.545 2.548 2.548 0 012.547-2.557 2.545 2.545 0 012.535 2.557zm-9.537 0a2.543 2.543 0 01-2.535 2.545 2.545 2.545 0 01-2.547-2.545 2.548 2.548 0 012.547-2.557 2.545 2.545 0 012.535 2.557zm-9.537-9.573a2.543 2.543 0 01-2.535 2.545 2.545 2.545 0 01-2.547-2.545 2.548 2.548 0 012.547-2.557 2.545 2.545 0 012.535 2.557zm19.074 0a2.543 2.543 0 01-2.535 2.545 2.545 2.545 0 01-2.547-2.545 2.548 2.548 0 012.547-2.557 2.545 2.545 0 012.535 2.557zm-9.537 0a2.543 2.543 0 01-2.535 2.545 2.545 2.545 0 01-2.547-2.545 2.548 2.548 0 012.547-2.557 2.545 2.545 0 012.535 2.557zm28.611-9.573a2.543 2.543 0 01-2.535 2.545 2.545 2.545 0 01-2.547-2.545 2.548 2.548 0 012.547-2.557 2.545 2.545 0 012.535 2.557zm-9.537 0a2.543 2.543 0 01-2.535 2.545 2.545 2.545 0 01-2.547-2.545 2.548 2.548 0 012.547-2.557 2.545 2.545 0 012.535 2.557zm9.537-9.574a2.543 2.543 0 01-2.535 2.545 2.545 2.545 0 01-2.547-2.544 2.548 2.548 0 012.547-2.557 2.545 2.545 0 012.535 2.556zm-12.072-12.13a2.545 2.545 0 012.535 2.557 2.543 2.543 0 01-2.535 2.545 2.545 2.545 0 01-2.547-2.545 2.548 2.548 0 012.547-2.557zm9.537 0a2.545 2.545 0 012.535 2.557 2.543 2.543 0 01-2.535 2.545 2.545 2.545 0 01-2.547-2.545 2.548 2.548 0 012.547-2.557zm-7.002 12.13a2.543 2.543 0 01-2.535 2.545 2.545 2.545 0 01-2.547-2.544 2.548 2.548 0 012.547-2.557 2.545 2.545 0 012.535 2.556zm-28.611 9.574a2.543 2.543 0 01-2.535 2.545 2.545 2.545 0 01-2.547-2.545 2.548 2.548 0 012.547-2.557 2.545 2.545 0 012.535 2.557zm19.074 0a2.543 2.543 0 01-2.535 2.545 2.545 2.545 0 01-2.547-2.545 2.548 2.548 0 012.547-2.557 2.545 2.545 0 012.535 2.557zm-9.537 0a2.543 2.543 0 01-2.535 2.545 2.545 2.545 0 01-2.547-2.545 2.548 2.548 0 012.547-2.557 2.545 2.545 0 012.535 2.557zm-9.537-9.574a2.543 2.543 0 01-2.535 2.545 2.545 2.545 0 01-2.547-2.544 2.548 2.548 0 012.547-2.557 2.545 2.545 0 012.535 2.556zm19.074 0a2.543 2.543 0 01-2.535 2.545 2.545 2.545 0 01-2.547-2.544 2.548 2.548 0 012.547-2.557 2.545 2.545 0 012.535 2.556zm-12.072-12.13a2.545 2.545 0 012.535 2.557 2.543 2.543 0 01-2.535 2.545 2.545 2.545 0 01-2.547-2.545 2.548 2.548 0 012.547-2.557zm9.537 0a2.545 2.545 0 012.535 2.557 2.543 2.543 0 01-2.535 2.545 2.545 2.545 0 01-2.547-2.545 2.548 2.548 0 012.547-2.557zm-7.002 12.13a2.543 2.543 0 01-2.535 2.545 2.545 2.545 0 01-2.547-2.544 2.548 2.548 0 012.547-2.557 2.545 2.545 0 012.535 2.556z" clip-rule="evenodd"/></g><g clip-path="url(#clip3)" opacity=".1"><path fill="#fff" fill-rule="evenodd" d="M155.293-34a2.545 2.545 0 012.535 2.557 2.543 2.543 0 01-2.535 2.545 2.545 2.545 0 01-2.547-2.545A2.548 2.548 0 01155.293-34zm40.682 40.85a2.543 2.543 0 01-2.535 2.545 2.545 2.545 0 01-2.547-2.545 2.548 2.548 0 012.547-2.557 2.545 2.545 0 012.535 2.557zm-9.536 0a2.544 2.544 0 01-2.536 2.545 2.545 2.545 0 01-2.547-2.545 2.548 2.548 0 012.547-2.557 2.546 2.546 0 012.536 2.557zm9.536-9.573a2.543 2.543 0 01-2.535 2.545 2.545 2.545 0 01-2.547-2.545 2.548 2.548 0 012.547-2.557 2.545 2.545 0 012.535 2.557zm-9.536 0a2.544 2.544 0 01-2.536 2.545 2.545 2.545 0 01-2.547-2.545 2.548 2.548 0 012.547-2.557 2.546 2.546 0 012.536 2.557zM157.828 6.85a2.543 2.543 0 01-2.535 2.545 2.545 2.545 0 01-2.547-2.545 2.548 2.548 0 012.547-2.557 2.545 2.545 0 012.535 2.557zm19.074 0a2.544 2.544 0 01-2.536 2.545 2.546 2.546 0 01-2.547-2.545 2.548 2.548 0 012.547-2.557 2.546 2.546 0 012.536 2.557zm-9.537 0a2.543 2.543 0 01-2.535 2.545 2.546 2.546 0 01-2.548-2.545 2.549 2.549 0 012.548-2.557 2.545 2.545 0 012.535 2.557zm-9.537-9.573a2.543 2.543 0 01-2.535 2.545 2.545 2.545 0 01-2.547-2.545 2.548 2.548 0 012.547-2.557 2.545 2.545 0 012.535 2.557zm19.074 0a2.544 2.544 0 01-2.536 2.545 2.546 2.546 0 01-2.547-2.545 2.548 2.548 0 012.547-2.557 2.546 2.546 0 012.536 2.557zm-9.537 0a2.543 2.543 0 01-2.535 2.545 2.546 2.546 0 01-2.548-2.545 2.549 2.549 0 012.548-2.557 2.545 2.545 0 012.535 2.557zm28.61-9.574a2.543 2.543 0 01-2.535 2.545 2.545 2.545 0 01-2.547-2.545 2.548 2.548 0 012.547-2.556 2.545 2.545 0 012.535 2.556zm-9.536 0a2.544 2.544 0 01-2.536 2.545 2.545 2.545 0 01-2.547-2.545 2.548 2.548 0 012.547-2.556 2.546 2.546 0 012.536 2.556zm9.536-9.573a2.543 2.543 0 01-2.535 2.545 2.545 2.545 0 01-2.547-2.545 2.548 2.548 0 012.547-2.557 2.545 2.545 0 012.535 2.557zM183.903-34a2.546 2.546 0 012.536 2.557 2.544 2.544 0 01-2.536 2.545 2.545 2.545 0 01-2.547-2.545A2.548 2.548 0 01183.903-34zm9.537 0a2.545 2.545 0 012.535 2.557 2.543 2.543 0 01-2.535 2.545 2.545 2.545 0 01-2.547-2.545A2.548 2.548 0 01193.44-34zm-7.001 12.13a2.544 2.544 0 01-2.536 2.545 2.545 2.545 0 01-2.547-2.545 2.548 2.548 0 012.547-2.557 2.546 2.546 0 012.536 2.557zm-28.611 9.573a2.543 2.543 0 01-2.535 2.545 2.545 2.545 0 01-2.547-2.545 2.548 2.548 0 012.547-2.556 2.545 2.545 0 012.535 2.556zm19.074 0a2.544 2.544 0 01-2.536 2.545 2.546 2.546 0 01-2.547-2.545 2.549 2.549 0 012.547-2.556 2.546 2.546 0 012.536 2.556zm-9.537 0a2.543 2.543 0 01-2.535 2.545 2.546 2.546 0 01-2.548-2.545 2.549 2.549 0 012.548-2.556 2.545 2.545 0 012.535 2.556zm-9.537-9.573a2.543 2.543 0 01-2.535 2.545 2.545 2.545 0 01-2.547-2.545 2.548 2.548 0 012.547-2.557 2.545 2.545 0 012.535 2.557zm19.074 0a2.544 2.544 0 01-2.536 2.545 2.546 2.546 0 01-2.547-2.545 2.548 2.548 0 012.547-2.557 2.546 2.546 0 012.536 2.557zM164.83-34a2.545 2.545 0 012.535 2.557 2.543 2.543 0 01-2.535 2.545 2.546 2.546 0 01-2.548-2.545A2.549 2.549 0 01164.83-34zm9.536 0a2.546 2.546 0 012.536 2.557 2.544 2.544 0 01-2.536 2.545 2.546 2.546 0 01-2.547-2.545A2.548 2.548 0 01174.366-34zm-7.001 12.13a2.543 2.543 0 01-2.535 2.545 2.546 2.546 0 01-2.548-2.545 2.549 2.549 0 012.548-2.557 2.545 2.545 0 012.535 2.557z" clip-rule="evenodd"/></g><path fill="#fff" d="M61.753 84v-8.736h.15L68.124 84h1.96V71.317h-2.18v8.737h-.15l-6.222-8.737h-1.968V84h2.188zm17.508-2.628c-.317.72-1.064 1.125-2.145 1.125-1.432 0-2.355-1.02-2.408-2.645v-.115h6.715v-.694c0-3.015-1.644-4.834-4.386-4.834-2.786 0-4.518 1.942-4.518 5.027 0 3.076 1.706 4.957 4.536 4.957 2.267 0 3.876-1.09 4.271-2.82h-2.065zm-2.233-5.467c1.31 0 2.171.923 2.215 2.382h-4.526c.097-1.441 1.01-2.382 2.311-2.382zm9.932 4.773l1.969 3.34h2.46l-3.137-4.86 3.103-4.747h-2.4l-1.898 3.331h-.15L85 74.412h-2.531l3.137 4.842-3.11 4.764h2.355l1.96-3.34h.149zm7.049-8.64v2.417h-1.52v1.696h1.52v5.3c0 1.855.879 2.593 3.085 2.593.422 0 .826-.035 1.142-.097v-1.67c-.263.027-.43.044-.738.044-.914 0-1.318-.43-1.318-1.388V76.15h2.056v-1.696H96.18v-2.417h-2.171zm10.854 8.526c.115 2.293 2.039 3.752 4.949 3.752 3.076 0 4.983-1.529 4.983-3.99 0-1.925-1.081-2.997-3.656-3.586l-1.459-.334c-1.574-.369-2.215-.87-2.215-1.74 0-1.099.967-1.82 2.426-1.82 1.388 0 2.373.713 2.531 1.846h2.171c-.106-2.17-2.031-3.691-4.694-3.691-2.838 0-4.719 1.53-4.719 3.814 0 1.881 1.081 3.015 3.383 3.542l1.644.378c1.626.378 2.32.94 2.32 1.864 0 1.08-1.081 1.863-2.575 1.863-1.608 0-2.733-.738-2.874-1.898h-2.215zm12.947-8.526v2.417h-1.521v1.696h1.521v5.3c0 1.855.878 2.593 3.085 2.593a6.23 6.23 0 001.142-.097v-1.67c-.264.027-.431.044-.738.044-.914 0-1.319-.43-1.319-1.388V76.15h2.057v-1.696h-2.057v-2.417h-2.17zm12.586 9.334c-.317.72-1.064 1.125-2.145 1.125-1.433 0-2.355-1.02-2.408-2.645v-.115h6.715v-.694c0-3.015-1.644-4.834-4.386-4.834-2.786 0-4.518 1.942-4.518 5.027 0 3.076 1.705 4.957 4.535 4.957 2.268 0 3.876-1.09 4.272-2.82h-2.065zm-2.233-5.467c1.31 0 2.171.923 2.215 2.382h-4.526c.096-1.441 1.01-2.382 2.311-2.382zm11.821-1.67c-1.318 0-2.434.66-2.988 1.75h-.149v-1.591h-2.101V87.19h2.18v-4.649h.149c.492 1.02 1.556 1.617 2.936 1.617 2.426 0 3.937-1.907 3.937-4.957 0-3.076-1.529-4.966-3.964-4.966zm-.685 8.113c-1.486 0-2.408-1.204-2.417-3.147.009-1.942.94-3.146 2.426-3.146 1.494 0 2.399 1.177 2.399 3.146 0 1.969-.896 3.147-2.408 3.147zm6.618-5.212c0 1.441.87 2.285 2.716 2.707l1.705.395c.914.211 1.327.563 1.327 1.108 0 .73-.765 1.23-1.863 1.23-1.09 0-1.767-.44-1.978-1.151h-2.153c.167 1.731 1.679 2.768 4.078 2.768s4.096-1.221 4.096-3.058c0-1.415-.853-2.198-2.69-2.62l-1.696-.377c-.967-.229-1.424-.572-1.424-1.117 0-.711.747-1.195 1.74-1.195 1.02 0 1.662.44 1.82 1.116h2.048c-.159-1.731-1.591-2.733-3.876-2.733-2.268 0-3.85 1.204-3.85 2.927z"/></g><defs><linearGradient id="paint0_linear" x1="27.584" x2="27.584" y1="60.157" y2="18.718" gradientUnits="userSpaceOnUse"><stop stop-color="gray" stop-opacity=".25"/><stop offset=".54" stop-color="gray" stop-opacity=".12"/><stop offset="1" stop-color="gray" stop-opacity=".1"/></linearGradient><linearGradient id="paint1_linear" x1="46.321" x2="46.078" y1="21.587" y2="17.885" gradientUnits="userSpaceOnUse"><stop stop-color="gray" stop-opacity=".25"/><stop offset=".54" stop-color="gray" stop-opacity=".12"/><stop offset="1" stop-color="gray" stop-opacity=".1"/></linearGradient><linearGradient id="paint2_linear" x1="70.784" x2="70.541" y1="14.573" y2="10.871" gradientUnits="userSpaceOnUse"><stop stop-color="gray" stop-opacity=".25"/><stop offset=".54" stop-color="gray" stop-opacity=".12"/><stop offset="1" stop-color="gray" stop-opacity=".1"/></linearGradient><linearGradient id="paint3_linear" x1="113.267" x2="111.941" y1="14.332" y2="8.823" gradientUnits="userSpaceOnUse"><stop stop-color="gray" stop-opacity=".25"/><stop offset=".54" stop-color="gray" stop-opacity=".12"/><stop offset="1" stop-color="gray" stop-opacity=".1"/></linearGradient><linearGradient id="paint4_linear" x1="92.407" x2="93.066" y1="25.903" y2="22.254" gradientUnits="userSpaceOnUse"><stop stop-color="gray" stop-opacity=".25"/><stop offset=".54" stop-color="gray" stop-opacity=".12"/><stop offset="1" stop-color="gray" stop-opacity=".1"/></linearGradient><linearGradient id="paint5_linear" x1="65.138" x2="64.895" y1="43.981" y2="40.279" gradientUnits="userSpaceOnUse"><stop stop-color="gray" stop-opacity=".25"/><stop offset=".54" stop-color="gray" stop-opacity=".12"/><stop offset="1" stop-color="gray" stop-opacity=".1"/></linearGradient><linearGradient id="paint6_linear" x1="119.451" x2="118.125" y1="23.506" y2="17.995" gradientUnits="userSpaceOnUse"><stop stop-color="gray" stop-opacity=".25"/><stop offset=".54" stop-color="gray" stop-opacity=".12"/><stop offset="1" stop-color="gray" stop-opacity=".1"/></linearGradient><linearGradient id="paint7_linear" x1="140.148" x2="138.822" y1="50.754" y2="45.243" gradientUnits="userSpaceOnUse"><stop stop-color="gray" stop-opacity=".25"/><stop offset=".54" stop-color="gray" stop-opacity=".12"/><stop offset="1" stop-color="gray" stop-opacity=".1"/></linearGradient><linearGradient id="paint8_linear" x1="204.128" x2="202.802" y1="64.242" y2="58.731" gradientUnits="userSpaceOnUse"><stop stop-color="gray" stop-opacity=".25"/><stop offset=".54" stop-color="gray" stop-opacity=".12"/><stop offset="1" stop-color="gray" stop-opacity=".1"/></linearGradient><linearGradient id="paint9_linear" x1="93.213" x2="93.872" y1="47.756" y2="44.107" gradientUnits="userSpaceOnUse"><stop stop-color="gray" stop-opacity=".25"/><stop offset=".54" stop-color="gray" stop-opacity=".12"/><stop offset="1" stop-color="gray" stop-opacity=".1"/></linearGradient><linearGradient id="paint10_linear" x1="175.739" x2="176.398" y1="45.867" y2="42.218" gradientUnits="userSpaceOnUse"><stop stop-color="gray" stop-opacity=".25"/><stop offset=".54" stop-color="gray" stop-opacity=".12"/><stop offset="1" stop-color="gray" stop-opacity=".1"/></linearGradient><linearGradient id="paint11_linear" x1="220.362" x2="221.021" y1="17.54" y2="13.891" gradientUnits="userSpaceOnUse"><stop stop-color="gray" stop-opacity=".25"/><stop offset=".54" stop-color="gray" stop-opacity=".12"/><stop offset="1" stop-color="gray" stop-opacity=".1"/></linearGradient><linearGradient id="paint12_linear" x1="55.311" x2="55.97" y1="26.711" y2="23.062" gradientUnits="userSpaceOnUse"><stop stop-color="gray" stop-opacity=".25"/><stop offset=".54" stop-color="gray" stop-opacity=".12"/><stop offset="1" stop-color="gray" stop-opacity=".1"/></linearGradient><linearGradient id="paint13_linear" x1="150.463" x2="150.091" y1="22.772" y2="17.115" gradientUnits="userSpaceOnUse"><stop stop-color="gray" stop-opacity=".25"/><stop offset=".54" stop-color="gray" stop-opacity=".12"/><stop offset="1" stop-color="gray" stop-opacity=".1"/></linearGradient><linearGradient id="paint14_linear" x1="196.835" x2="196.705" y1="25.925" y2="12.966" gradientUnits="userSpaceOnUse"><stop stop-color="gray" stop-opacity=".25"/><stop offset=".54" stop-color="gray" stop-opacity=".12"/><stop offset="1" stop-color="gray" stop-opacity=".1"/></linearGradient><linearGradient id="paint15_linear" x1="126.197" x2="125.825" y1="38.363" y2="32.707" gradientUnits="userSpaceOnUse"><stop stop-color="gray" stop-opacity=".25"/><stop offset=".54" stop-color="gray" stop-opacity=".12"/><stop offset="1" stop-color="gray" stop-opacity=".1"/></linearGradient><linearGradient id="paint16_linear" x1="172.703" x2="172.33" y1="34.857" y2="29.2" gradientUnits="userSpaceOnUse"><stop stop-color="gray" stop-opacity=".25"/><stop offset=".54" stop-color="gray" stop-opacity=".12"/><stop offset="1" stop-color="gray" stop-opacity=".1"/></linearGradient><clipPath id="clip0"><path fill="#fff" d="M0 0h225v100H0z"/></clipPath><clipPath id="clip1"><path fill="#fff" d="M0 0h220.472v152.605H0z" transform="translate(11.527 9.395)"/></clipPath><clipPath id="clip2"><path fill="#fff" d="M0 0h43.23v43.395H0z" transform="translate(152.745 13.734)"/></clipPath><clipPath id="clip3"><path fill="#fff" d="M0 0h43.23v43.395H0z" transform="translate(152.746 -34)"/></clipPath><filter id="filter0_d" width="235" height="110" x="-2" y="-3" color-interpolation-filters="sRGB" filterUnits="userSpaceOnUse"><feFlood flood-opacity="0" result="BackgroundImageFix"/><feColorMatrix in="SourceAlpha" result="hardAlpha" values="0 0 0 0 0 0 0 0 0 0 0 0 0 0 0 0 0 0 127 0"/><feOffset dx="3" dy="2"/><feGaussianBlur stdDeviation="2.5"/><feColorMatrix values="0 0 0 0 0 0 0 0 0 0 0 0 0 0 0 0 0 0 0.08 0"/><feBlend in2="BackgroundImageFix" result="effect1_dropShadow"/><feBlend in="SourceGraphic" in2="effect1_dropShadow" result="shape"/></filter></defs></svg>