<svg xmlns="http://www.w3.org/2000/svg" width="235" height="112" fill="none" viewBox="0 0 235 112"><g filter="url(#filter0_d)"><path fill="#345C7C" d="M2 7.728a6 6 0 015.99-6l218.805-.352V15.65c0 55.229-44.772 100-100 100H8a6 6 0 01-6-6V7.729z"/></g><g clip-path="url(#clip0)"><path fill="#4D8AF0" d="M36.262 69.524H17.83v2.797h18.432v-2.797z"/><path fill="#EEE" d="M17.838 72.254L15.69 115.65h1.34l2.983-43.372-2.174-.023zM36.224 72.254l1.8 43.395h-1.13l-2.472-43.372 1.802-.023z"/><path fill="#E0E0E0" d="M21.507 72.277l-2.215 43.372h1.558l2.044-43.395-1.387.023zM32.928 72.277l2.215 43.372h-1.558L31.54 72.254l1.388.023zM31.91 99.431h-9.778v1.693h9.778v-1.692zM32.277 91.605H22.132v1.447h10.145v-1.447z"/><path fill="#E0E0E0" d="M32.277 83.508H22.132v1.57h10.145v-1.57zM31.886 75.535h-9.24v1.57h9.24v-1.57z"/><path fill="#4D8AF0" d="M40.613 64.15H13.528v5.742h27.085v-5.741z"/><path fill="url(#paint0_linear)" d="M39.171 23.718l-9.411 6.158a1.806 1.806 0 00-.612-.957c.123-.294.123-.613.05-.932a.737.737 0 00-.098-.246c-.098-.098-.245-.122-.367-.098l-1.491.098a.88.88 0 00-.49.148c-.22.171-.268.54-.488.711-.147.098-.318.098-.489.172-.342.196-.416.736-.44 1.177-.024.614-.024 1.325.367 1.718.293.27.684.245 1.05.22l.367-.024.294.147v.516h-.073s-4.23-1.227-8.85 11.58h-.073s-.684 2.33.415 1.914c.954-.368.978-1.546.954-1.84h.073s1.907-5.619 4.914-6.306c0 0 2.175 2.748-1.37 8.22h2.788c0 .613.122 1.226.366 1.79.831 1.644-1.638 17.273-1.638 17.273h2.054L28 59.98l.122 5.177h1.49l1.517-9.961-.196-11.998v-3.116l.269.368v-4.809h3.96l.684-5.348h-.073c.025-.368 0-.736-.049-1.129l5.11-1.08c.781-3.41-1.663-4.366-1.663-4.366zm-4.474 6.673L33.5 33.458s-3.276-1.497-4.498-.957h-.074v-.662a1.8 1.8 0 00.88-1.423l4.914-1.03a4.582 4.582 0 00-.025 1.005z" opacity=".5"/><path fill="#FDA57D" d="M35.455 31.176s.147-2.257-.538-1.766c-.684.49-.39 1.913-.39 1.913l.928-.147zM18.93 44.106s-.66 2.208.391 1.84c1.051-.368.905-1.84.905-1.84H18.93zM28.977 32.206h-1.442v1.3h1.442v-1.3z"/><path fill="#4D8AF0" d="M27.535 39.395h-1.173v5.889h1.173v-5.889z"/><path fill="#000" d="M27.535 39.395h-1.173v5.889h1.173v-5.889z" opacity=".1"/><path fill="#fff" d="M28.073 33.066h1.344c.782 0 1.418.637 1.418 1.423v8.783h-4.156v-8.808c0-.76.636-1.398 1.394-1.398z"/><path fill="#FDA57D" d="M28.122 32.648a1.69 1.69 0 001.686-1.692 1.69 1.69 0 00-1.686-1.693 1.69 1.69 0 00-1.687 1.693 1.69 1.69 0 001.687 1.692z"/><path fill="#4D8AF0" d="M27.462 33.065s-4.034-1.177-8.459 11.114H20.3s1.833-5.348 4.694-6.01c0 0 2.077 2.6-1.296 7.85h2.738v-1.741c-.025-2.65.318-5.3.978-7.876a6.713 6.713 0 00.049-3.337zM29.026 33.065v.393s.905 4.048 1.687 6.673l.391.54V36.06h3.765l.66-5.079h-1.051l-1.198 2.993c.024 0-3.08-1.447-4.254-.908z"/><path fill="#333" d="M26.68 43.247s-.782 2.87 0 4.441c.782 1.57-1.565 16.463-1.565 16.463h1.956l2.787-14.059.464-6.87-3.642.025z"/><path fill="#333" d="M30.835 43.247l.196 11.434-1.418 9.47H28.17l-.514-20.904h3.178zM27.828 30.317c.025-.049.074-.098.123-.147.049-.025.097-.05.17-.05.343-.024.759-.024.979-.367.146-.294.195-.663.097-.982 0-.098-.049-.171-.098-.245-.097-.098-.22-.122-.342-.098l-1.418.098a.802.802 0 00-.464.147c-.196.172-.269.516-.465.663-.146.098-.317.098-.464.172-.318.171-.391.687-.416 1.128-.024.589-.024 1.276.343 1.62.269.27.66.245 1.002.22l.66-.049c.073 0 .122-.024.196-.049.073-.123.122-.245.097-.393-.024-.318-.049-.711-.269-.907-.048-.05-.097-.074-.146-.123-.245-.392.293-.466.415-.638z"/><path fill="#F55F44" d="M38.731 24.699s2.347.908 1.565 4.17L29.76 31.103v-.515L38.73 24.7z"/><path fill="#000" d="M36.237 69.843H17.88v.515h18.358v-.516z" opacity=".1"/><path fill="#EEE" d="M36.188 104.534H17.83v2.209h18.358v-2.209z"/><path fill="url(#paint1_linear)" d="M50.465 23.791l.195-.073h-.049l.025-.025h-.025l-5.06-.638.122 1.669.147 1.496.318-.171.293.662 4.034-2.92z"/><path fill="#fff" d="M45.845 24.699l.146 1.35 4.498-2.282-3.91.073-.734.859z"/><path fill="#000" d="M45.845 24.699l.146 1.35 4.498-2.282-3.91.073-.734.859z" opacity=".2"/><path fill="#fff" d="M45.747 23.153l4.742.613-4.645.933-.097-1.546z"/><path fill="#fff" d="M46.53 26.515l3.935-2.773-4.547 1.374.611 1.399z"/><path fill="url(#paint2_linear)" d="M74.934 16.799l.196-.098h-.049l.025-.025-.05.025-5.035-.663.098 1.669.17 1.496.319-.172.269.663 4.058-2.895z"/><path fill="#fff" d="M70.29 17.682l.146 1.35 4.523-2.282-3.912.074-.757.858z"/><path fill="#000" d="M70.29 17.682l.146 1.35 4.523-2.282-3.912.074-.757.858z" opacity=".2"/><path fill="#fff" d="M70.192 16.137l4.767.613-4.67.932-.097-1.545z"/><path fill="#fff" d="M70.999 19.498l3.936-2.773-4.547 1.374.61 1.399z"/><path fill="url(#paint3_linear)" d="M117.787 14.59l.269-.17h-.073l.024-.025-.049.024-7.773.319.611 2.503.611 2.183.44-.319.587.908 5.353-5.422z"/><path fill="#fff" d="M111.04 17.142l.562 2.012 6.209-4.637-5.866 1.153-.905 1.472z"/><path fill="#000" d="M111.04 17.142l.562 2.012 6.209-4.637-5.866 1.153-.905 1.472z" opacity=".2"/><path fill="#fff" d="M110.502 14.86l7.31-.343-6.772 2.625-.538-2.281z"/><path fill="#fff" d="M112.556 19.694l5.207-5.177-6.503 3.214 1.296 1.963z"/><path fill="url(#paint4_linear)" d="M97.18 28.723l.195-.049h-.049l.025-.025h-.025l-4.742-1.84-.294 1.644-.22 1.472.343-.073.122.711 4.644-1.84z"/><path fill="#fff" d="M92.462 28.453l-.196 1.373 4.938-1.153-3.838-.858-.904.638z"/><path fill="#000" d="M92.462 28.453l-.196 1.373 4.938-1.153-3.838-.858-.904.638z" opacity=".2"/><path fill="#fff" d="M92.73 26.956l4.474 1.718-4.742-.221.269-1.497zM92.706 30.391l4.473-1.717-4.742.196.269 1.521z"/><g opacity=".5"><path fill="url(#paint5_linear)" d="M69.287 46.191l.196-.098h-.049.025-.05l-5.035-.662.098 1.693.17 1.472.319-.147.269.662 4.057-2.92z" opacity=".5"/><path fill="#fff" d="M64.643 47.075l.147 1.373 4.522-2.306-3.911.098-.758.834z" opacity=".5"/><path fill="#000" d="M64.643 47.075l.147 1.373 4.522-2.306-3.911.098-.758.834z" opacity=".2"/><path fill="#fff" d="M64.546 45.553l4.767.59-4.67.932-.097-1.522z" opacity=".5"/><path fill="#fff" d="M65.352 48.89l3.935-2.748-4.546 1.35.61 1.398z" opacity=".5"/></g><g opacity=".2"><path fill="url(#paint6_linear)" d="M123.972 23.767l.269-.172h-.074l.025-.025-.049.025-7.774.319.611 2.502.611 2.184.44-.319.587.908 5.354-5.422z" opacity=".2"/><path fill="#fff" d="M117.225 26.318l.562 2.012 6.209-4.637-5.867 1.153-.904 1.472z" opacity=".2"/><path fill="#000" d="M117.225 26.318l.562 2.012 6.209-4.637-5.867 1.153-.904 1.472z" opacity=".2"/><path fill="#fff" d="M116.687 24.036l7.309-.343-6.771 2.625-.538-2.282z" opacity=".2"/><path fill="#fff" d="M118.74 28.87l5.207-5.177-6.502 3.214 1.295 1.963z" opacity=".2"/></g><g opacity=".3"><path fill="url(#paint7_linear)" d="M144.677 51.025l.244-.197h-.049v-.024l-.024.024-7.774.32.611 2.502.611 2.208.416-.32.611.909 5.354-5.422z" opacity=".3"/><path fill="#fff" d="M137.93 53.552l.562 2.011 6.209-4.612-5.891 1.153-.88 1.448z" opacity=".3"/><path fill="#000" d="M137.93 53.552l.562 2.011 6.209-4.612-5.891 1.153-.88 1.448z" opacity=".2"/><path fill="#fff" d="M137.367 51.27l7.334-.319-6.772 2.6-.562-2.281z" opacity=".3"/><path fill="#fff" d="M139.446 56.103l5.206-5.177-6.502 3.239 1.296 1.938z" opacity=".3"/></g><g opacity=".3"><path fill="url(#paint8_linear)" d="M208.65 64.519l.269-.196h-.074l.025-.025-.049.025-7.774.319.611 2.502.612 2.208.415-.343.611.932 5.354-5.422z" opacity=".3"/><path fill="#fff" d="M201.903 67.046l.562 2.012 6.209-4.613-5.891 1.129-.88 1.472z" opacity=".3"/><path fill="#000" d="M201.903 67.046l.562 2.012 6.209-4.613-5.891 1.129-.88 1.472z" opacity=".2"/><path fill="#fff" d="M201.34 64.764l7.334-.319-6.771 2.601-.563-2.282z" opacity=".3"/><path fill="#fff" d="M203.419 69.597l5.206-5.176-6.502 3.238 1.296 1.938z" opacity=".3"/></g><g opacity=".5"><path fill="url(#paint9_linear)" d="M97.986 50.583l.196-.049-.05-.024h.025-.024l-4.743-1.865-.293 1.668-.22 1.473.342-.074.122.711 4.645-1.84z" opacity=".5"/><path fill="#fff" d="M93.269 50.314l-.196 1.35 4.938-1.13-3.838-.858-.904.638z" opacity=".5"/><path fill="#000" d="M93.269 50.314l-.196 1.35 4.938-1.13-3.838-.858-.904.638z" opacity=".2"/><path fill="#fff" d="M93.537 48.792l4.473 1.742-4.742-.22.269-1.522z" opacity=".5"/><path fill="#fff" d="M93.513 52.252l4.473-1.742-4.742.22.269 1.522z" opacity=".5"/></g><g opacity=".5"><path fill="url(#paint10_linear)" d="M180.489 48.694l.22-.05-.049-.024h.024-.024l-4.742-1.864-.318 1.668-.196 1.472.343-.074.122.712 4.62-1.84z" opacity=".5"/><path fill="#fff" d="M175.796 48.424l-.195 1.35 4.938-1.129-3.838-.859-.905.638z" opacity=".5"/><path fill="#000" d="M175.796 48.424l-.195 1.35 4.938-1.129-3.838-.859-.905.638z" opacity=".2"/><path fill="#fff" d="M176.064 46.927l4.474 1.718-4.743-.221.269-1.497z" opacity=".5"/><path fill="#fff" d="M176.04 50.362l4.473-1.742-4.742.221.269 1.521z" opacity=".5"/></g><g opacity=".2"><path fill="url(#paint11_linear)" d="M225.127 20.356l.195-.049h-.049l.025-.024h-.025l-4.742-1.84-.293 1.643-.196 1.497.342-.098.122.711 4.621-1.84z" opacity=".2"/><path fill="#fff" d="M220.409 20.111l-.195 1.35 4.938-1.13-3.814-.882-.929.662z" opacity=".2"/><path fill="#000" d="M220.409 20.111l-.195 1.35 4.938-1.13-3.814-.882-.929.662z" opacity=".2"/><path fill="#fff" d="M220.678 18.59l4.473 1.742-4.742-.22.269-1.522z" opacity=".2"/><path fill="#fff" d="M220.653 22.025l4.474-1.718-4.743.221.269 1.497z" opacity=".2"/></g><g opacity=".2"><path fill="url(#paint12_linear)" d="M60.071 29.532l.196-.049h-.024v-.024h-.025l-4.742-1.84-.294 1.643-.195 1.472.342-.073.122.711 4.62-1.84z" opacity=".2"/><path fill="#fff" d="M55.354 29.287l-.17 1.35 4.913-1.154-3.814-.859-.929.663z" opacity=".2"/><path fill="#000" d="M55.354 29.287l-.17 1.35 4.913-1.154-3.814-.859-.929.663z" opacity=".2"/><path fill="#fff" d="M55.622 27.766l4.474 1.717-4.742-.196.268-1.521zM55.598 31.2l4.474-1.717-4.743.196.269 1.522z" opacity=".2"/></g><path fill="url(#paint13_linear)" d="M155.75 23.521l.294-.147h-.074l.025-.024h-.049l-7.7-.982.171 2.552.22 2.281.489-.245.44 1.006 6.184-4.44z"/><path fill="#fff" d="M148.662 24.87l.22 2.086 6.893-3.508-5.989.122-1.124 1.3z"/><path fill="#000" d="M148.662 24.87l.22 2.086 6.893-3.508-5.989.122-1.124 1.3z" opacity=".2"/><path fill="#fff" d="M148.515 22.54l7.26.908-7.114 1.423-.146-2.33z"/><path fill="#fff" d="M149.737 27.643l6.014-4.22-6.967 2.086.953 2.134z"/><path fill="url(#paint14_linear)" d="M206.914 20.577l.66-.294-.171-.025.049-.024-.073.024-17.527-3.214.097 5.889.294 5.225 1.1-.515.88 2.355 14.691-9.42z"/><path fill="#fff" d="M190.536 22.86l.269 4.759 16.158-7.189-13.689-.417-2.738 2.846z"/><path fill="#000" d="M190.536 22.86l.269 4.759 16.158-7.189-13.689-.417-2.738 2.846z" opacity=".2"/><path fill="#fff" d="M190.463 17.486l16.501 2.944-16.428 2.43-.073-5.374z"/><path fill="#fff" d="M192.663 29.311l14.227-8.93-16.158 3.9 1.931 5.03z"/><path fill="url(#paint15_linear)" d="M131.476 39.1l.294-.147h-.074.025-.049l-7.7-1.005.171 2.576.244 2.257.465-.245.44 1.005 6.184-4.44z"/><path fill="#fff" d="M124.387 40.475l.245 2.06 6.869-3.508-5.965.147-1.149 1.3z"/><path fill="#000" d="M124.387 40.475l.245 2.06 6.869-3.508-5.965.147-1.149 1.3z" opacity=".2"/><path fill="#fff" d="M124.241 38.12l7.26.907-7.114 1.448-.146-2.355z"/><path fill="#fff" d="M125.463 43.247l6.013-4.22-6.967 2.061.954 2.16z"/><path fill="url(#paint16_linear)" d="M177.996 35.593l.269-.148h-.049.024-.048l-7.725-1.006.171 2.577.244 2.257.489-.246.44 1.006 6.185-4.44z"/><path fill="#fff" d="M170.907 36.966l.22 2.061 6.893-3.484-5.989.123-1.124 1.3z"/><path fill="#000" d="M170.907 36.966l.22 2.061 6.893-3.484-5.989.123-1.124 1.3z" opacity=".2"/><path fill="#fff" d="M170.76 34.61l7.26.933-7.114 1.423-.146-2.355z"/><path fill="#fff" d="M171.982 39.739l5.989-4.22-6.942 2.06.953 2.16z"/></g><path fill="#fff" d="M56.63 77.317h-2.268v8.315c0 2.768 2.004 4.684 5.212 4.684 3.208 0 5.212-1.916 5.212-4.684v-8.315h-2.268v8.113c0 1.731-1.063 2.909-2.944 2.909s-2.945-1.178-2.945-2.91v-8.112zm16.285 2.918c-1.318 0-2.434.66-2.988 1.75h-.15v-1.591h-2.1V93.19h2.18v-4.649h.15c.492 1.02 1.555 1.617 2.935 1.617 2.426 0 3.937-1.907 3.937-4.957 0-3.076-1.529-4.966-3.964-4.966zm-.685 8.113c-1.485 0-2.408-1.204-2.417-3.147.009-1.942.94-3.146 2.426-3.146 1.494 0 2.4 1.177 2.4 3.146 0 1.969-.897 3.147-2.409 3.147zm10.318 1.81c1.336 0 2.444-.624 2.989-1.678h.149V90h2.11V76.676h-2.18v5.247h-.15c-.51-1.055-1.6-1.688-2.918-1.688-2.425 0-3.955 1.916-3.955 4.957 0 3.05 1.52 4.966 3.955 4.966zm.677-8.103c1.494 0 2.417 1.204 2.417 3.146 0 1.951-.914 3.147-2.417 3.147-1.494 0-2.4-1.178-2.4-3.147 0-1.96.915-3.146 2.4-3.146zm9.967 8.103c1.257 0 2.311-.545 2.848-1.476h.149V90h2.1v-6.565c0-2.03-1.388-3.226-3.858-3.226-2.285 0-3.876 1.072-4.052 2.751h2.057c.202-.66.888-1.02 1.89-1.02 1.177 0 1.81.537 1.81 1.495v.826l-2.478.15c-2.338.131-3.648 1.142-3.648 2.864 0 1.758 1.327 2.883 3.182 2.883zm.642-1.678c-.967 0-1.662-.484-1.662-1.31 0-.8.572-1.248 1.793-1.327l2.171-.15v.783c0 1.142-.984 2.004-2.302 2.004zm7.778-10.442v2.417h-1.521v1.696h1.521v5.3c0 1.855.879 2.593 3.085 2.593.422 0 .826-.035 1.142-.097v-1.67c-.263.027-.43.044-.738.044-.914 0-1.318-.43-1.318-1.388V82.15h2.056v-1.696h-2.056v-2.417h-2.171zm12.586 9.334c-.317.72-1.064 1.125-2.145 1.125-1.432 0-2.355-1.02-2.408-2.645v-.115h6.715v-.694c0-3.015-1.644-4.834-4.386-4.834-2.786 0-4.517 1.942-4.517 5.027 0 3.076 1.705 4.957 4.535 4.957 2.267 0 3.876-1.09 4.271-2.82h-2.065zm-2.233-5.467c1.31 0 2.171.923 2.215 2.382h-4.526c.096-1.441 1.011-2.382 2.311-2.382zm6.364 1.23c0 1.442.87 2.286 2.715 2.708l1.706.395c.914.211 1.327.563 1.327 1.108 0 .73-.765 1.23-1.864 1.23-1.089 0-1.766-.44-1.977-1.151h-2.153c.167 1.731 1.678 2.768 4.078 2.768 2.399 0 4.095-1.221 4.095-3.058 0-1.415-.852-2.198-2.689-2.62l-1.696-.377c-.967-.229-1.424-.572-1.424-1.117 0-.711.747-1.195 1.74-1.195 1.02 0 1.661.44 1.819 1.116h2.048c-.158-1.731-1.591-2.733-3.876-2.733-2.267 0-3.849 1.204-3.849 2.927z"/><g clip-path="url(#clip1)" opacity=".1"><path fill="#fff" fill-rule="evenodd" d="M157.292 18.734a2.545 2.545 0 012.535 2.557 2.543 2.543 0 01-2.535 2.545 2.545 2.545 0 01-2.547-2.545 2.548 2.548 0 012.547-2.557zm40.683 40.85a2.543 2.543 0 01-2.535 2.545 2.545 2.545 0 01-2.547-2.545 2.548 2.548 0 012.547-2.557 2.545 2.545 0 012.535 2.557zm-9.537 0a2.543 2.543 0 01-2.535 2.545 2.545 2.545 0 01-2.547-2.545 2.548 2.548 0 012.547-2.557 2.545 2.545 0 012.535 2.557zm9.537-9.573a2.543 2.543 0 01-2.535 2.545 2.545 2.545 0 01-2.547-2.545 2.548 2.548 0 012.547-2.557 2.545 2.545 0 012.535 2.557zm-9.537 0a2.543 2.543 0 01-2.535 2.545 2.545 2.545 0 01-2.547-2.545 2.548 2.548 0 012.547-2.557 2.545 2.545 0 012.535 2.557zm-28.611 9.573a2.543 2.543 0 01-2.535 2.545 2.545 2.545 0 01-2.547-2.545 2.548 2.548 0 012.547-2.557 2.545 2.545 0 012.535 2.557zm19.074 0a2.543 2.543 0 01-2.535 2.545 2.545 2.545 0 01-2.547-2.545 2.548 2.548 0 012.547-2.557 2.545 2.545 0 012.535 2.557zm-9.537 0a2.543 2.543 0 01-2.535 2.545 2.545 2.545 0 01-2.547-2.545 2.548 2.548 0 012.547-2.557 2.545 2.545 0 012.535 2.557zm-9.537-9.573a2.543 2.543 0 01-2.535 2.545 2.545 2.545 0 01-2.547-2.545 2.548 2.548 0 012.547-2.557 2.545 2.545 0 012.535 2.557zm19.074 0a2.543 2.543 0 01-2.535 2.545 2.545 2.545 0 01-2.547-2.545 2.548 2.548 0 012.547-2.557 2.545 2.545 0 012.535 2.557zm-9.537 0a2.543 2.543 0 01-2.535 2.545 2.545 2.545 0 01-2.547-2.545 2.548 2.548 0 012.547-2.557 2.545 2.545 0 012.535 2.557zm28.611-9.573a2.543 2.543 0 01-2.535 2.545 2.545 2.545 0 01-2.547-2.545 2.548 2.548 0 012.547-2.557 2.545 2.545 0 012.535 2.557zm-9.537 0a2.543 2.543 0 01-2.535 2.545 2.545 2.545 0 01-2.547-2.545 2.548 2.548 0 012.547-2.557 2.545 2.545 0 012.535 2.557zm9.537-9.574a2.543 2.543 0 01-2.535 2.545 2.545 2.545 0 01-2.547-2.544 2.548 2.548 0 012.547-2.557 2.545 2.545 0 012.535 2.556zm-12.072-12.13a2.545 2.545 0 012.535 2.557 2.543 2.543 0 01-2.535 2.545 2.545 2.545 0 01-2.547-2.545 2.548 2.548 0 012.547-2.557zm9.537 0a2.545 2.545 0 012.535 2.557 2.543 2.543 0 01-2.535 2.545 2.545 2.545 0 01-2.547-2.545 2.548 2.548 0 012.547-2.557zm-7.002 12.13a2.543 2.543 0 01-2.535 2.545 2.545 2.545 0 01-2.547-2.544 2.548 2.548 0 012.547-2.557 2.545 2.545 0 012.535 2.556zm-28.611 9.574a2.543 2.543 0 01-2.535 2.545 2.545 2.545 0 01-2.547-2.545 2.548 2.548 0 012.547-2.557 2.545 2.545 0 012.535 2.557zm19.074 0a2.543 2.543 0 01-2.535 2.545 2.545 2.545 0 01-2.547-2.545 2.548 2.548 0 012.547-2.557 2.545 2.545 0 012.535 2.557zm-9.537 0a2.543 2.543 0 01-2.535 2.545 2.545 2.545 0 01-2.547-2.545 2.548 2.548 0 012.547-2.557 2.545 2.545 0 012.535 2.557zm-9.537-9.574a2.543 2.543 0 01-2.535 2.545 2.545 2.545 0 01-2.547-2.544 2.548 2.548 0 012.547-2.557 2.545 2.545 0 012.535 2.556zm19.074 0a2.543 2.543 0 01-2.535 2.545 2.545 2.545 0 01-2.547-2.544 2.548 2.548 0 012.547-2.557 2.545 2.545 0 012.535 2.556zm-12.072-12.13a2.545 2.545 0 012.535 2.557 2.543 2.543 0 01-2.535 2.545 2.545 2.545 0 01-2.547-2.545 2.548 2.548 0 012.547-2.557zm9.537 0a2.545 2.545 0 012.535 2.557 2.543 2.543 0 01-2.535 2.545 2.545 2.545 0 01-2.547-2.545 2.548 2.548 0 012.547-2.557zm-7.002 12.13a2.543 2.543 0 01-2.535 2.545 2.545 2.545 0 01-2.547-2.544 2.548 2.548 0 012.547-2.557 2.545 2.545 0 012.535 2.556z" clip-rule="evenodd"/></g><g clip-path="url(#clip2)" opacity=".1"><path fill="#fff" fill-rule="evenodd" d="M157.293-29a2.545 2.545 0 012.535 2.557 2.543 2.543 0 01-2.535 2.545 2.545 2.545 0 01-2.547-2.545A2.548 2.548 0 01157.293-29zm40.682 40.85a2.543 2.543 0 01-2.535 2.545 2.545 2.545 0 01-2.547-2.545 2.548 2.548 0 012.547-2.557 2.545 2.545 0 012.535 2.557zm-9.536 0a2.544 2.544 0 01-2.536 2.545 2.545 2.545 0 01-2.547-2.545 2.548 2.548 0 012.547-2.557 2.546 2.546 0 012.536 2.557zm9.536-9.573a2.543 2.543 0 01-2.535 2.545 2.545 2.545 0 01-2.547-2.545A2.548 2.548 0 01195.44-.28a2.545 2.545 0 012.535 2.557zm-9.536 0a2.544 2.544 0 01-2.536 2.545 2.545 2.545 0 01-2.547-2.545 2.548 2.548 0 012.547-2.557 2.546 2.546 0 012.536 2.557zm-28.611 9.573a2.543 2.543 0 01-2.535 2.545 2.545 2.545 0 01-2.547-2.545 2.548 2.548 0 012.547-2.557 2.545 2.545 0 012.535 2.557zm19.074 0a2.544 2.544 0 01-2.536 2.545 2.546 2.546 0 01-2.547-2.545 2.548 2.548 0 012.547-2.557 2.546 2.546 0 012.536 2.557zm-9.537 0a2.543 2.543 0 01-2.535 2.545 2.546 2.546 0 01-2.548-2.545 2.549 2.549 0 012.548-2.557 2.545 2.545 0 012.535 2.557zm-9.537-9.573a2.543 2.543 0 01-2.535 2.545 2.545 2.545 0 01-2.547-2.545 2.548 2.548 0 012.547-2.557 2.545 2.545 0 012.535 2.557zm19.074 0a2.544 2.544 0 01-2.536 2.545 2.546 2.546 0 01-2.547-2.545 2.548 2.548 0 012.547-2.557 2.546 2.546 0 012.536 2.557zm-9.537 0a2.543 2.543 0 01-2.535 2.545 2.546 2.546 0 01-2.548-2.545A2.549 2.549 0 01166.83-.28a2.545 2.545 0 012.535 2.557zm28.61-9.574a2.543 2.543 0 01-2.535 2.545 2.545 2.545 0 01-2.547-2.545 2.548 2.548 0 012.547-2.556 2.545 2.545 0 012.535 2.556zm-9.536 0a2.544 2.544 0 01-2.536 2.545 2.545 2.545 0 01-2.547-2.545 2.548 2.548 0 012.547-2.556 2.546 2.546 0 012.536 2.556zm9.536-9.573a2.543 2.543 0 01-2.535 2.545 2.545 2.545 0 01-2.547-2.545 2.548 2.548 0 012.547-2.557 2.545 2.545 0 012.535 2.557zM185.903-29a2.546 2.546 0 012.536 2.557 2.544 2.544 0 01-2.536 2.545 2.545 2.545 0 01-2.547-2.545A2.548 2.548 0 01185.903-29zm9.537 0a2.545 2.545 0 012.535 2.557 2.543 2.543 0 01-2.535 2.545 2.545 2.545 0 01-2.547-2.545A2.548 2.548 0 01195.44-29zm-7.001 12.13a2.544 2.544 0 01-2.536 2.545 2.545 2.545 0 01-2.547-2.545 2.548 2.548 0 012.547-2.557 2.546 2.546 0 012.536 2.557zm-28.611 9.573a2.543 2.543 0 01-2.535 2.545 2.545 2.545 0 01-2.547-2.545 2.548 2.548 0 012.547-2.556 2.545 2.545 0 012.535 2.556zm19.074 0a2.544 2.544 0 01-2.536 2.545 2.546 2.546 0 01-2.547-2.545 2.548 2.548 0 012.547-2.556 2.546 2.546 0 012.536 2.556zm-9.537 0a2.543 2.543 0 01-2.535 2.545 2.546 2.546 0 01-2.548-2.545 2.549 2.549 0 012.548-2.556 2.545 2.545 0 012.535 2.556zm-9.537-9.573a2.543 2.543 0 01-2.535 2.545 2.545 2.545 0 01-2.547-2.545 2.548 2.548 0 012.547-2.557 2.545 2.545 0 012.535 2.557zm19.074 0a2.544 2.544 0 01-2.536 2.545 2.546 2.546 0 01-2.547-2.545 2.548 2.548 0 012.547-2.557 2.546 2.546 0 012.536 2.557zM166.83-29a2.545 2.545 0 012.535 2.557 2.543 2.543 0 01-2.535 2.545 2.546 2.546 0 01-2.548-2.545A2.549 2.549 0 01166.83-29zm9.536 0a2.546 2.546 0 012.536 2.557 2.544 2.544 0 01-2.536 2.545 2.546 2.546 0 01-2.547-2.545A2.548 2.548 0 01176.366-29zm-7.001 12.13a2.543 2.543 0 01-2.535 2.545 2.546 2.546 0 01-2.548-2.545 2.549 2.549 0 012.548-2.557 2.545 2.545 0 012.535 2.557z" clip-rule="evenodd"/></g><defs><linearGradient id="paint8_linear" x1="206.128" x2="204.803" y1="69.242" y2="63.731" gradientUnits="userSpaceOnUse"><stop stop-color="gray" stop-opacity=".25"/><stop offset=".54" stop-color="gray" stop-opacity=".12"/><stop offset="1" stop-color="gray" stop-opacity=".1"/></linearGradient><linearGradient id="paint9_linear" x1="95.214" x2="95.873" y1="52.756" y2="49.107" gradientUnits="userSpaceOnUse"><stop stop-color="gray" stop-opacity=".25"/><stop offset=".54" stop-color="gray" stop-opacity=".12"/><stop offset="1" stop-color="gray" stop-opacity=".1"/></linearGradient><linearGradient id="paint2_linear" x1="72.785" x2="72.541" y1="19.573" y2="15.871" gradientUnits="userSpaceOnUse"><stop stop-color="gray" stop-opacity=".25"/><stop offset=".54" stop-color="gray" stop-opacity=".12"/><stop offset="1" stop-color="gray" stop-opacity=".1"/></linearGradient><linearGradient id="paint3_linear" x1="115.267" x2="113.942" y1="19.332" y2="13.823" gradientUnits="userSpaceOnUse"><stop stop-color="gray" stop-opacity=".25"/><stop offset=".54" stop-color="gray" stop-opacity=".12"/><stop offset="1" stop-color="gray" stop-opacity=".1"/></linearGradient><linearGradient id="paint4_linear" x1="94.407" x2="95.066" y1="30.903" y2="27.254" gradientUnits="userSpaceOnUse"><stop stop-color="gray" stop-opacity=".25"/><stop offset=".54" stop-color="gray" stop-opacity=".12"/><stop offset="1" stop-color="gray" stop-opacity=".1"/></linearGradient><linearGradient id="paint5_linear" x1="67.139" x2="66.895" y1="48.981" y2="45.279" gradientUnits="userSpaceOnUse"><stop stop-color="gray" stop-opacity=".25"/><stop offset=".54" stop-color="gray" stop-opacity=".12"/><stop offset="1" stop-color="gray" stop-opacity=".1"/></linearGradient><linearGradient id="paint6_linear" x1="121.451" x2="120.125" y1="28.506" y2="22.995" gradientUnits="userSpaceOnUse"><stop stop-color="gray" stop-opacity=".25"/><stop offset=".54" stop-color="gray" stop-opacity=".12"/><stop offset="1" stop-color="gray" stop-opacity=".1"/></linearGradient><linearGradient id="paint7_linear" x1="142.149" x2="140.823" y1="55.754" y2="50.243" gradientUnits="userSpaceOnUse"><stop stop-color="gray" stop-opacity=".25"/><stop offset=".54" stop-color="gray" stop-opacity=".12"/><stop offset="1" stop-color="gray" stop-opacity=".1"/></linearGradient><linearGradient id="paint1_linear" x1="48.322" x2="48.078" y1="26.587" y2="22.885" gradientUnits="userSpaceOnUse"><stop stop-color="gray" stop-opacity=".25"/><stop offset=".54" stop-color="gray" stop-opacity=".12"/><stop offset="1" stop-color="gray" stop-opacity=".1"/></linearGradient><linearGradient id="paint0_linear" x1="29.585" x2="29.585" y1="65.157" y2="23.718" gradientUnits="userSpaceOnUse"><stop stop-color="gray" stop-opacity=".25"/><stop offset=".54" stop-color="gray" stop-opacity=".12"/><stop offset="1" stop-color="gray" stop-opacity=".1"/></linearGradient><linearGradient id="paint10_linear" x1="177.739" x2="178.398" y1="50.867" y2="47.218" gradientUnits="userSpaceOnUse"><stop stop-color="gray" stop-opacity=".25"/><stop offset=".54" stop-color="gray" stop-opacity=".12"/><stop offset="1" stop-color="gray" stop-opacity=".1"/></linearGradient><linearGradient id="paint11_linear" x1="222.363" x2="223.022" y1="22.54" y2="18.891" gradientUnits="userSpaceOnUse"><stop stop-color="gray" stop-opacity=".25"/><stop offset=".54" stop-color="gray" stop-opacity=".12"/><stop offset="1" stop-color="gray" stop-opacity=".1"/></linearGradient><linearGradient id="paint12_linear" x1="57.311" x2="57.97" y1="31.711" y2="28.062" gradientUnits="userSpaceOnUse"><stop stop-color="gray" stop-opacity=".25"/><stop offset=".54" stop-color="gray" stop-opacity=".12"/><stop offset="1" stop-color="gray" stop-opacity=".1"/></linearGradient><linearGradient id="paint13_linear" x1="152.463" x2="152.091" y1="27.772" y2="22.115" gradientUnits="userSpaceOnUse"><stop stop-color="gray" stop-opacity=".25"/><stop offset=".54" stop-color="gray" stop-opacity=".12"/><stop offset="1" stop-color="gray" stop-opacity=".1"/></linearGradient><linearGradient id="paint14_linear" x1="198.835" x2="198.705" y1="30.925" y2="17.966" gradientUnits="userSpaceOnUse"><stop stop-color="gray" stop-opacity=".25"/><stop offset=".54" stop-color="gray" stop-opacity=".12"/><stop offset="1" stop-color="gray" stop-opacity=".1"/></linearGradient><linearGradient id="paint15_linear" x1="128.198" x2="127.826" y1="43.364" y2="37.707" gradientUnits="userSpaceOnUse"><stop stop-color="gray" stop-opacity=".25"/><stop offset=".54" stop-color="gray" stop-opacity=".12"/><stop offset="1" stop-color="gray" stop-opacity=".1"/></linearGradient><linearGradient id="paint16_linear" x1="174.703" x2="174.331" y1="39.857" y2="34.2" gradientUnits="userSpaceOnUse"><stop stop-color="gray" stop-opacity=".25"/><stop offset=".54" stop-color="gray" stop-opacity=".12"/><stop offset="1" stop-color="gray" stop-opacity=".1"/></linearGradient><clipPath id="clip2"><path fill="#fff" d="M0 0h43.23v43.395H0z" transform="translate(154.746 -29)"/></clipPath><clipPath id="clip0"><path fill="#fff" d="M0 0h220.472v152.605H0z" transform="translate(13.528 14.395)"/></clipPath><clipPath id="clip1"><path fill="#fff" d="M0 0h43.23v43.395H0z" transform="translate(154.745 18.734)"/></clipPath><filter id="filter0_d" width="234.795" height="124.273" x="0" y="-1.624" color-interpolation-filters="sRGB" filterUnits="userSpaceOnUse"><feFlood flood-opacity="0" result="BackgroundImageFix"/><feColorMatrix in="SourceAlpha" result="hardAlpha" values="0 0 0 0 0 0 0 0 0 0 0 0 0 0 0 0 0 0 127 0"/><feOffset dx="3" dy="2"/><feGaussianBlur stdDeviation="2.5"/><feColorMatrix values="0 0 0 0 0 0 0 0 0 0 0 0 0 0 0 0 0 0 0.08 0"/><feBlend in2="BackgroundImageFix" result="effect1_dropShadow"/><feBlend in="SourceGraphic" in2="effect1_dropShadow" result="shape"/></filter></defs></svg>