<svg xmlns="http://www.w3.org/2000/svg" class="usage_activity" data-name="Layer 1" viewBox="0 0 210 210"><defs><mask id="fs-s73kezgoha" width="26.7" height="26.7" x="16.91" y="121.43" maskUnits="userSpaceOnUse"><path fill="#fff" fill-rule="evenodd" d="M16.91 121.43H43.6v26.7H16.91v-26.7z"/></mask><mask id="fs-p2dhdsyj8b" width="52.69" height="1.56" x="94.05" y="203.99" maskUnits="userSpaceOnUse"><path fill="#fff" fill-rule="evenodd" d="M94.05 203.99h52.7v1.56h-52.7v-1.56z"/></mask></defs><path fill="#fff" d="M0 0h210v210H0z" opacity=".01"/><path fill="#f1f3f8" fill-rule="evenodd" d="M114.18 178.24l56.33-56.33a9 9 0 1112.72 12.71L126.9 191a9 9 0 11-12.72-12.72"/><g mask="url(#fs-s73kezgoha)"><path fill="#f1f3f8" fill-rule="evenodd" d="M19.54 132.78l8.71-8.72A9 9 0 0141 136.78l-8.71 8.71a9 9 0 01-12.72-12.71"/></g><path fill="#f1f3f8" fill-rule="evenodd" d="M118.18 149.31l25.75-25.75a9 9 0 0012.71 12.72L130.9 162a9 9 0 00-12.72-12.71m-11-39.2L131.3 86A9 9 0 00144 98.68l-24.1 24.12a9 9 0 00-12.72-12.71"/><path fill="#f1f3f8" fill-rule="evenodd" d="M98.64 143.55L169 73.17a9 9 0 1112.72 12.72l-70.38 70.37a9 9 0 01-12.71-12.71m-69.14 19.07l95.79-95.79A9 9 0 01138 79.55l-95.79 95.79a9 9 0 11-12.72-12.72m16.93-63.06L82 64a9 9 0 0112.69 12.73l-35.55 35.55a9 9 0 01-12.72-12.72m58.8-58.8l.21-.21a9 9 0 0112.72 12.71l-.21.22a9 9 0 01-12.72 0 9 9 0 010-12.72M78 163.62l.21-.21a9 9 0 1112.72 12.72l-.22.21a9 9 0 01-12.71 0 9 9 0 010-12.72"/><path fill="#717790" fill-rule="evenodd" d="M199.17 195.48a4.73 4.73 0 011.85-.25 9.56 9.56 0 011.84.18.56.56 0 01.43.66.55.55 0 01-.43.42 8.83 8.83 0 01-1.84.18 4.73 4.73 0 01-1.85-.25.51.51 0 010-.94m-168.52.03c6.9-.21 13.81-.24 20.72-.23h124.36c6.91 0 13.82 0 20.73.19a.58.58 0 010 1.16c-6.91.17-13.82.19-20.73.19H51.36c-6.91 0-13.82 0-20.72-.22a.46.46 0 01-.44-.46.44.44 0 01.44-.43m-4.07-.42a1.22 1.22 0 01.27 0 .65.65 0 01.13 0 .39.39 0 01.14 0 .69.69 0 01.18 1 .66.66 0 01-.18.19.39.39 0 01-.14 0 .33.33 0 01-.13 0 1.22 1.22 0 01-.27 0 .68.68 0 010-1.32m-6.64.31a6.85 6.85 0 011.34-.18 3.58 3.58 0 011.34.13.55.55 0 010 1.06 3.58 3.58 0 01-1.34.13 6.17 6.17 0 01-1.34-.18.49.49 0 01-.36-.6.52.52 0 01.36-.36"/><g mask="url(#fs-p2dhdsyj8b)"><path fill="#717790" fill-rule="evenodd" d="M94.46 204.33c2.15-.21 4.31-.23 6.47-.24h6.47l12.93-.07h19.41c2.16 0 4.31 0 6.47.19a.58.58 0 01.53.63.57.57 0 01-.53.53c-2.16.18-4.31.19-6.47.2h-19.41l-12.93-.07h-6.47c-2.16 0-4.32 0-6.47-.23a.45.45 0 01-.4-.49.44.44 0 01.4-.4"/></g><path fill="#717790" fill-rule="evenodd" d="M73.16 204.29c2.21-.11 4.43-.16 6.64-.18s4.42 0 6.63.13a.53.53 0 01.49.56.51.51 0 01-.49.5c-2.21.14-4.42.15-6.63.13s-4.43-.06-6.64-.18a.48.48 0 01-.45-.5.49.49 0 01.45-.46"/><path fill="#c8d6ec" d="M193 159a2.72 2.72 0 112.71-2.72A2.72 2.72 0 01193 159zm0-3.44a.72.72 0 10.71.72.72.72 0 00-.71-.72zM10.1 78a1 1 0 01-1-1v-8.5a1 1 0 012 0V77a1 1 0 01-1 1z"/><path fill="#c8d6ec" d="M14.35 73.71h-8.5a1 1 0 110-2h8.5a1 1 0 010 2zm51.07-5.07a2.72 2.72 0 112.71-2.72 2.72 2.72 0 01-2.71 2.72zm0-3.44a.72.72 0 10.71.72.72.72 0 00-.71-.72zm128.14 40.63a2.72 2.72 0 112.72-2.71 2.72 2.72 0 01-2.72 2.71zm0-3.43a.72.72 0 100 1.43.72.72 0 100-1.43zM98.22 60.5a1 1 0 01-.49-.13 1 1 0 01-.47-.6l-.84-3.07a1 1 0 01.7-1.23l3.07-.83a1 1 0 011.23.7l.83 3.06a1 1 0 01-.7 1.23l-3.06.84a1.24 1.24 0 01-.27.03zm.4-3.36l.31 1.14 1.13-.31-.31-1.14zm-55.5 64.52a3 3 0 113-3 3 3 0 01-3 3zm0-4a1 1 0 101 1 1 1 0 00-1-.99z"/><path fill="#ced6de" d="M119.11 148.09H119c-.62-.1-1.32-.24-2.08-.39a.5.5 0 01.2-1l2.06.39a.5.5 0 01-.09 1zm-4.13-.84h-.12c-.66-.15-1.35-.32-2.06-.5a.5.5 0 11.25-1l2 .5a.5.5 0 01.37.6.49.49 0 01-.42.4zm-4.09-1.05h-.14c-.66-.19-1.34-.4-2-.62a.49.49 0 01-.32-.62.49.49 0 01.62-.33c.69.22 1.36.42 2 .61a.5.5 0 01-.14 1zm-4-1.28a.45.45 0 01-.16 0c-.66-.23-1.33-.47-2-.73a.51.51 0 01-.28-.65.49.49 0 01.65-.28c.65.25 1.31.49 2 .72a.5.5 0 01-.17 1zm-3.93-1.52a.65.65 0 01-.19 0c-.65-.28-1.3-.57-1.94-.87a.5.5 0 01.42-.91c.64.3 1.27.59 1.91.86a.5.5 0 01-.2 1zm-3.81-1.8a.49.49 0 01-.23-.06c-.62-.33-1.25-.67-1.86-1a.5.5 0 11.5-.86c.6.35 1.21.68 1.83 1a.5.5 0 01-.24.95zm-3.63-2.12a.57.57 0 01-.28-.08c-.59-.39-1.18-.79-1.76-1.21a.5.5 0 01.59-.81c.56.41 1.14.8 1.72 1.18a.5.5 0 01.15.69.51.51 0 01-.44.23zM92.09 137a.47.47 0 01-.31-.12c-.56-.46-1.1-.93-1.61-1.41a.5.5 0 11.69-.73c.49.46 1 .93 1.55 1.37a.5.5 0 01-.32.89zm-3-2.89a.5.5 0 01-.37-.17c-.49-.53-1-1.08-1.39-1.63a.5.5 0 01.09-.7.5.5 0 01.7.08c.41.54.86 1.07 1.33 1.58a.5.5 0 010 .71.51.51 0 01-.45.13zm-2.58-3.31a.48.48 0 01-.42-.23c-.39-.6-.76-1.23-1.09-1.85a.5.5 0 11.88-.47q.48.9 1 1.77a.5.5 0 01-.15.69.46.46 0 01-.27.09zm-2-3.72a.48.48 0 01-.46-.31 21.19 21.19 0 01-.73-2 .5.5 0 011-.29c.2.65.43 1.3.69 1.93a.49.49 0 01-.27.65.43.43 0 01-.24.02zm-1.22-4a.49.49 0 01-.49-.4 20.82 20.82 0 01-.34-2.12.5.5 0 01.44-.55.51.51 0 01.56.44 19.08 19.08 0 00.32 2 .5.5 0 01-.39.59zm-.47-4.17a.5.5 0 01-.5-.49v-2.14a.49.49 0 01.53-.47.5.5 0 01.47.52v2.07a.51.51 0 01-.49.51zm43.9-.88a.5.5 0 01-.5-.49.51.51 0 01.5-.51h2.09a.5.5 0 110 1h-2.11zm-2.1 0c-.7 0-1.4 0-2.12-.07a.5.5 0 110-1c.71 0 1.4.06 2.09.07a.5.5 0 010 1zm6.31-.14a.5.5 0 010-1c.71-.05 1.4-.11 2.08-.18a.5.5 0 01.55.45.5.5 0 01-.45.55c-.69.07-1.39.13-2.11.18zm-10.52-.05c-.69 0-1.4-.1-2.11-.17a.49.49 0 01-.45-.54.5.5 0 01.54-.46c.71.07 1.4.12 2.09.17a.5.5 0 010 1zm-4.19-.38l-2.1-.26a.5.5 0 01.13-1c.7.09 1.39.18 2.08.25a.5.5 0 01-.06 1zm18.89 0a.49.49 0 01-.49-.43.5.5 0 01.42-.57c.7-.09 1.39-.21 2.06-.33a.51.51 0 01.58.41.5.5 0 01-.4.58c-.69.12-1.38.23-2.1.33zm-23.11-.57l-2.08-.33a.5.5 0 01.16-1l2.07.33a.5.5 0 01.42.57.5.5 0 01-.57.43zm27.2-.2a.5.5 0 01-.11-1c.69-.16 1.36-.32 2-.5a.5.5 0 11.27 1c-.67.19-1.36.36-2.06.52zm-31.35-.5h-.09c-.69-.12-1.38-.26-2.08-.4a.5.5 0 01.2-1l2.06.4a.5.5 0 01.4.58.51.51 0 01-.45.42zm35.4-.62a.5.5 0 01-.16-1c.68-.22 1.33-.46 2-.7a.49.49 0 01.64.28.5.5 0 01-.28.65c-.65.25-1.31.49-2 .72zm-39.53-.21h-.11l-2.06-.46a.5.5 0 01-.37-.6.5.5 0 01.6-.38c.69.16 1.37.32 2.05.46a.5.5 0 01-.11 1zM83 114.7a.5.5 0 01-.43-.56c.08-.7.2-1.41.34-2.11a.5.5 0 01.58-.4.51.51 0 01.4.59c-.13.68-.25 1.37-.33 2a.5.5 0 01-.56.48zm16.63-.29h-.12l-2.05-.51a.5.5 0 01.25-1l2 .51a.5.5 0 01-.12 1zm47.57-.41a.49.49 0 01-.45-.29.49.49 0 01.25-.66c.64-.3 1.26-.6 1.85-.92a.51.51 0 01.68.2.5.5 0 01-.21.68c-.61.33-1.24.64-1.91 1a.52.52 0 01-.21-.01zm-51.62-.68h-.13l-2-.57a.5.5 0 01-.35-.61.51.51 0 01.62-.35l2 .56a.5.5 0 01-.13 1zm-4-1.14h-.14l-2-.61a.5.5 0 11.29-1l2 .6a.5.5 0 01-.14 1zm59.38-.16a.52.52 0 01-.43-.24.51.51 0 01.16-.69c.59-.36 1.17-.75 1.72-1.15a.51.51 0 01.7.11.5.5 0 01-.12.7c-.56.41-1.16.81-1.77 1.19a.5.5 0 01-.31.12zM87.5 111h-.15l-2-.65a.5.5 0 11.31-.95l2 .64a.5.5 0 01-.16 1zm-3.67-.42h-.12a.5.5 0 01-.36-.61c0-.09.05-.17.07-.27h-.08c-.66-.22-1.32-.44-2-.68a.5.5 0 01.32-.94l2 .68c.08-.28.16-.55.25-.82a.5.5 0 01.63-.33.49.49 0 01.32.63c-.21.67-.4 1.34-.57 2a.5.5 0 01-.46.33zm70.48-1a.48.48 0 01-.38-.18.48.48 0 01.06-.7c.52-.44 1-.91 1.52-1.39a.5.5 0 01.71 0 .49.49 0 010 .7c-.5.5-1 1-1.58 1.44a.49.49 0 01-.33.14zm-74.79-1.28a.45.45 0 01-.16 0l-2-.71a.5.5 0 01.35-.94l2 .71a.51.51 0 01.29.64.52.52 0 01-.48.3zm-4-1.44a.47.47 0 01-.17 0c-.66-.25-1.32-.49-2-.75a.5.5 0 11.36-.93l2 .74a.51.51 0 01.3.64.5.5 0 01-.44.3zm81.74-.21a.51.51 0 01-.33-.13.49.49 0 010-.7c.45-.52.89-1.06 1.3-1.61a.5.5 0 11.8.6c-.42.57-.88 1.13-1.34 1.67a.52.52 0 01-.38.17zm-72.2-.1a.63.63 0 01-.19 0 .52.52 0 01-.27-.66c.16-.39.46-1.06.89-2a.51.51 0 01.67-.23.5.5 0 01.23.67c-.42.87-.71 1.52-.87 1.9a.49.49 0 01-.41.32zm-13.47-1.19a.39.39 0 01-.18 0l-2-.77a.5.5 0 11.37-.93l2 .77a.5.5 0 01.28.65.48.48 0 01-.42.28zm-3.91-1.56a.41.41 0 01-.19 0l-2-.8a.5.5 0 01.51-1l1.94.8a.5.5 0 01.28.65.51.51 0 01-.49.35zm92.09-.53a.45.45 0 01-.27-.08.5.5 0 01-.16-.68c.37-.59.71-1.19 1-1.8a.5.5 0 01.67-.21.49.49 0 01.21.67c-.32.63-.68 1.26-1.06 1.86a.48.48 0 01-.34.24zM87 102.75a.53.53 0 01-.24-.06.49.49 0 01-.2-.67q.47-.87 1-1.86a.5.5 0 11.86.51c-.38.65-.72 1.26-1 1.82a.49.49 0 01-.42.26zm-23.12-.56a.48.48 0 01-.2 0l-1.94-.82a.5.5 0 11.4-.92l1.93.82a.5.5 0 01.27.65.51.51 0 01-.5.27zM60 100.44a.47.47 0 01-.3-.1c-.34-.26-.92-.71-1.67-1.34a.5.5 0 11.64-.76c.74.61 1.3 1.05 1.63 1.31a.51.51 0 01.1.7.5.5 0 01-.4.19zm101.74-.91a.43.43 0 01-.19 0 .49.49 0 01-.27-.65 20.58 20.58 0 00.72-1.98.5.5 0 01.63-.32.49.49 0 01.32.62 21.26 21.26 0 01-.74 2 .48.48 0 01-.46.33zm-72.64-.41a.53.53 0 01-.27-.08.5.5 0 01-.15-.69c.36-.57.75-1.17 1.17-1.78a.5.5 0 11.82.57c-.41.6-.79 1.18-1.15 1.75a.52.52 0 01-.42.23zm-32.34-1.38a.52.52 0 01-.33-.12l-1.57-1.44a.5.5 0 11.69-.72c.54.51 1.06 1 1.54 1.41a.49.49 0 01-.33.87zm34.72-2.1a.46.46 0 01-.29-.1.5.5 0 01-.11-.7c.41-.55.84-1.12 1.29-1.69a.5.5 0 01.7-.08.5.5 0 01.08.71c-.44.55-.86 1.11-1.27 1.66a.48.48 0 01-.4.2zm71.52-.13h-.1a.5.5 0 01-.39-.59c.07-.37.1-.57.1-.59V92.9a.48.48 0 01.47-.52.48.48 0 01.52.47v1.51a7 7 0 01-.11.7.51.51 0 01-.49.45zm-109.31-.66a.52.52 0 01-.35-.14c-.48-.48-1-1-1.48-1.52a.5.5 0 11.72-.69L54 94a.48.48 0 010 .7.47.47 0 01-.31.15zm40.41-2.52a.49.49 0 01-.38-.82c.45-.53.92-1.06 1.4-1.59a.5.5 0 01.74.67c-.48.53-.94 1-1.38 1.57a.52.52 0 01-.38.17zm-43.31-.54a.5.5 0 01-.37-.17C50 91.11 49.49 90.57 49 90a.51.51 0 01.06-.71.49.49 0 01.7.07l1.4 1.64a.48.48 0 010 .7.46.46 0 01-.37.09zm112.07-.47a.49.49 0 01-.49-.42 19 19 0 00-.47-2 .48.48 0 01.33-.62.49.49 0 01.62.33 16.45 16.45 0 01.5 2.1.5.5 0 01-.4.58zm-65.92-2.09a.5.5 0 01-.35-.15.49.49 0 010-.7c.49-.5 1-1 1.52-1.49a.49.49 0 01.7 0 .5.5 0 010 .71c-.51.48-1 1-1.49 1.46a.51.51 0 01-.38.17zm-48.86-.67a.52.52 0 01-.39-.19c-.43-.55-.86-1.12-1.28-1.69a.5.5 0 01.11-.7.49.49 0 01.7.11c.41.56.83 1.12 1.26 1.66a.5.5 0 01-.09.7.51.51 0 01-.31.11zm113.55-1.25a.49.49 0 01-.45-.29 15.67 15.67 0 00-1-1.81.5.5 0 01.86-.52 20.51 20.51 0 011 1.91.49.49 0 01-.46.71zm-61.62-1a.52.52 0 01-.38-.17.49.49 0 01.05-.7c.53-.46 1.07-.92 1.63-1.37a.5.5 0 01.7.08.49.49 0 01-.07.7c-.55.44-1.08.89-1.6 1.34a.52.52 0 01-.34.15zM45.6 85.15a.47.47 0 01-.41-.22c-.4-.58-.78-1.17-1.16-1.78a.5.5 0 01.85-.53c.37.6.75 1.18 1.14 1.76a.5.5 0 01-.14.69.48.48 0 01-.28.08zm113.85-1.43a.51.51 0 01-.39-.19 19.44 19.44 0 00-1.35-1.53.5.5 0 010-.71.49.49 0 01.7 0 21.5 21.5 0 011.42 1.63.5.5 0 01-.09.7.51.51 0 01-.29.1zm-56.16 0a.5.5 0 01-.3-.9l1.74-1.23a.5.5 0 01.69.14.49.49 0 01-.13.69c-.58.4-1.15.8-1.7 1.21a.53.53 0 01-.3.07zm-59.9-2.13a.49.49 0 01-.44-.26c-.35-.61-.68-1.24-1-1.87a.52.52 0 01.22-.68.5.5 0 01.67.23c.32.62.64 1.23 1 1.84a.5.5 0 01-.19.68.53.53 0 01-.26.04zm63.39-.22a.52.52 0 01-.43-.24.51.51 0 01.16-.69c.6-.37 1.21-.73 1.84-1.08a.5.5 0 11.48.87c-.61.35-1.21.7-1.79 1.06a.5.5 0 01-.26.06zm49.76-.66a.52.52 0 01-.33-.12c-.5-.44-1.05-.87-1.62-1.28a.5.5 0 11.59-.81c.59.43 1.16.88 1.69 1.33a.5.5 0 01-.33.88zm-46.09-1.4A.49.49 0 01110 79a.51.51 0 01.22-.67c.63-.31 1.27-.62 1.92-.91a.5.5 0 01.41.91c-.64.29-1.26.59-1.88.9a.59.59 0 01-.22.06zm42.68-1.07a.48.48 0 01-.26-.07c-.59-.35-1.19-.69-1.81-1a.5.5 0 11.45-.89c.64.33 1.27.68 1.88 1a.49.49 0 01.16.68.48.48 0 01-.42.26zM41.5 77.81a.5.5 0 01-.46-.3c-.28-.65-.55-1.3-.81-2a.5.5 0 01.94-.35c.24.64.51 1.28.79 1.91a.5.5 0 01-.26.66.46.46 0 01-.2.08zm72.78-.25a.5.5 0 01-.18-1 36.1 36.1 0 012-.75.5.5 0 01.63.31.49.49 0 01-.3.63c-.66.23-1.31.48-2 .73a.43.43 0 01-.15.08zm35.1-1.26a.45.45 0 01-.2 0 19 19 0 00-1.84-.69.55.55 0 01-.34-.61.47.47 0 01.55-.38h.09c.07 0 .81.25 2 .74a.52.52 0 01.27.66.51.51 0 01-.53.28zm-31.13-.13a.51.51 0 01-.48-.36.5.5 0 01.34-.62q1-.3 2-.57a.51.51 0 01.61.36.5.5 0 01-.36.61c-.68.17-1.35.36-2 .56zm27.08-1h-.09l-2.07-.36a.49.49 0 01-.41-.57.49.49 0 01.57-.41c.69.1 1.38.22 2.09.35a.5.5 0 01-.09 1zm-23 0a.5.5 0 01-.11-1c.69-.14 1.38-.28 2.09-.39a.5.5 0 11.17 1c-.7.12-1.38.25-2 .39zm18.84-.63h-.06c-.7-.09-1.4-.16-2.08-.23a.49.49 0 01-.45-.54.49.49 0 01.54-.45c.7.06 1.4.14 2.11.23a.5.5 0 01-.06 1zm-14.7-.07a.5.5 0 01-.06-1c.69-.09 1.4-.17 2.11-.23a.51.51 0 01.54.46.49.49 0 01-.45.54c-.7.06-1.39.13-2.07.22zm10.53-.36l-2.14-.11a.5.5 0 01-.49-.51.48.48 0 01.52-.49c.69 0 1.4 0 2.11.1a.5.5 0 010 1zm-6.32 0a.51.51 0 01-.5-.48.5.5 0 01.48-.52c.7 0 1.41 0 2.12-.06a.5.5 0 110 1c-.7 0-1.4 0-2.08.06zM40 73.88a.49.49 0 01-.47-.35c-.22-.68-.41-1.37-.58-2.06a.49.49 0 01.36-.6.5.5 0 01.61.36c.17.67.35 1.34.56 2a.49.49 0 01-.33.62.4.4 0 01-.15.03zm-1-4.09a.51.51 0 01-.5-.41c-.12-.7-.22-1.42-.3-2.11a.5.5 0 011-.11c.07.67.17 1.36.29 2a.5.5 0 01-.41.58zm-.45-4.18a.5.5 0 01-.5-.48v-2.17a.5.5 0 011 0v2.07a.5.5 0 01-.48.51zm.17-4.19a.5.5 0 01-.44-.55c.08-.71.19-1.42.33-2.12a.49.49 0 01.59-.39.48.48 0 01.39.58c-.13.68-.24 1.36-.32 2a.51.51 0 01-.54.48zm.82-4.13a.34.34 0 01-.14 0 .5.5 0 01-.35-.61c.19-.68.41-1.36.65-2a.5.5 0 01.64-.3.49.49 0 01.3.64c-.23.65-.44 1.31-.62 2a.49.49 0 01-.47.27zM41 53.34a.65.65 0 01-.2 0 .5.5 0 01-.26-.66c.28-.65.59-1.29.92-1.93a.51.51 0 01.68-.21.5.5 0 01.21.67c-.32.62-.62 1.25-.89 1.87a.51.51 0 01-.46.26zm1.93-3.73a.47.47 0 01-.25-.07.49.49 0 01-.17-.69c.35-.59.74-1.19 1.15-1.79a.5.5 0 11.82.56c-.4.59-.77 1.17-1.12 1.75a.51.51 0 01-.47.24zm2.37-3.47a.51.51 0 01-.4-.81c.43-.55.87-1.1 1.34-1.66a.5.5 0 11.76.65c-.46.54-.89 1.08-1.3 1.62a.51.51 0 01-.44.2zm2.7-3.22a.5.5 0 01-.34-.13.51.51 0 010-.71c.47-.51 1-1 1.48-1.53a.49.49 0 01.7 0 .48.48 0 010 .7q-.75.75-1.44 1.5a.5.5 0 01-.4.17zm3-3a.49.49 0 01-.37-.16.5.5 0 010-.71c.51-.47 1-.94 1.58-1.41a.5.5 0 11.65.76c-.53.46-1.05.92-1.55 1.39A.5.5 0 0151 40zm3.18-2.75a.51.51 0 01-.39-.18.49.49 0 01.08-.7c.54-.44 1.09-.88 1.67-1.31a.51.51 0 01.7.09.52.52 0 01-.1.71c-.56.42-1.11.85-1.64 1.28a.5.5 0 01-.37.14zm3.35-2.54a.48.48 0 01-.4-.21.5.5 0 01.11-.7c.56-.4 1.14-.81 1.74-1.21a.5.5 0 01.56.83c-.59.4-1.16.79-1.72 1.19a.45.45 0 01-.34.13zM61 32.29a.51.51 0 01-.42-.23.5.5 0 01.15-.69c.58-.38 1.18-.75 1.79-1.13a.5.5 0 01.52.86l-1.77 1.11a.45.45 0 01-.27.08zm3.58-2.2a.5.5 0 01-.43-.25.51.51 0 01.18-.69l1.83-1a.5.5 0 01.68.19.49.49 0 01-.19.68L64.8 30a.59.59 0 01-.26.09zM68.21 28a.49.49 0 01-.44-.26.51.51 0 01.2-.68l1.87-1a.5.5 0 01.46.89c-.63.33-1.25.65-1.85 1a.53.53 0 01-.24.05zm3.73-1.94a.48.48 0 01-.44-.28.49.49 0 01.22-.67l1.9-.93a.5.5 0 01.43.9l-1.88.92a.59.59 0 01-.23.08zm3.8-1.82a.5.5 0 01-.21-1l1.92-.87a.49.49 0 01.66.25.5.5 0 01-.25.66l-1.86.93a.54.54 0 01-.26.05zm3.84-1.73a.49.49 0 01-.46-.3.51.51 0 01.26-.66l1.94-.82A.49.49 0 0182 21a.5.5 0 01-.26.65c-.66.27-1.3.55-1.93.82a.51.51 0 01-.23.06zm3.88-1.63a.47.47 0 01-.46-.31.49.49 0 01.27-.65l2-.78a.49.49 0 01.65.28.51.51 0 01-.28.65l-1.95.78zm3.91-1.54a.48.48 0 01-.46-.32.51.51 0 01.28-.65l2-.74a.49.49 0 01.64.29.5.5 0 01-.29.65c-.67.24-1.32.49-2 .74a.57.57 0 01-.17.05zm3.95-1.47a.48.48 0 01-.47-.33.5.5 0 01.3-.64l2-.7a.48.48 0 01.63.3.5.5 0 01-.3.64l-2 .7a.51.51 0 01-.16.05zm4-1.39a.49.49 0 01-.47-.34.51.51 0 01.31-.64l2-.67a.49.49 0 01.63.32.5.5 0 01-.32.63l-2 .67a.45.45 0 01-.18.05zm4-1.33a.5.5 0 01-.15-1l2-.64a.5.5 0 01.3.95l-2 .64a.45.45 0 01-.19.07zm4-1.28a.48.48 0 01-.48-.35.5.5 0 01.33-.62l2-.62a.5.5 0 01.28 1l-2 .61a.34.34 0 01-.15 0zm4-1.21a.49.49 0 01-.48-.36.5.5 0 01.34-.62l2-.59a.5.5 0 01.28 1l-2 .59zm4-1.16a.5.5 0 01-.13-1l2-.57a.5.5 0 01.61.35.5.5 0 01-.35.62l-2 .56zm4.06-1.12a.5.5 0 01-.13-1l1.81-.48a.5.5 0 11.25 1l-1.8.47a.27.27 0 01-.08.03z"/><path fill="#dae1e7" fill-rule="evenodd" d="M78.22 126.57h-1.99v-2.01h-1.32v2.01h-1.98v1.33h1.98v2h1.32v-2h1.99v-1.33z"/><circle cx="119.55" cy="8.31" r="3.29" fill="#fff"/><path fill="#ced6de" d="M119.54 12.6a4.29 4.29 0 114.29-4.29 4.29 4.29 0 01-4.29 4.29zm0-6.58a2.29 2.29 0 102.29 2.29A2.28 2.28 0 00119.54 6z"/><rect width="172.59" height="117.28" x="19.95" y="45.98" fill="#fff" rx="6.73"/><path fill="#717790" d="M185.8 164.26H26.68a7.73 7.73 0 01-7.68-7.72V52.71A7.74 7.74 0 0126.68 45H185.8a7.74 7.74 0 017.73 7.73v103.81a7.73 7.73 0 01-7.73 7.72zM26.68 47A5.74 5.74 0 0021 52.71v103.83a5.73 5.73 0 005.73 5.72H185.8a5.73 5.73 0 005.73-5.72V52.71A5.74 5.74 0 00185.8 47z" class="cls-11"/><path fill="#a9e0d0" d="M26.68 45.58H185.8a6.73 6.73 0 016.73 6.73v13.55H19.95V52.31a6.73 6.73 0 016.73-6.73z" class="cls-12"/><path fill="#717790" d="M192.53 66.86H20a1 1 0 01-1-1V52.31a7.74 7.74 0 017.73-7.73H185.8a7.74 7.74 0 017.73 7.73v13.55a1 1 0 01-1 1zM21 64.86h170.53V52.31a5.74 5.74 0 00-5.73-5.73H26.68A5.74 5.74 0 0021 52.31z" class="cls-11"/><circle cx="31.07" cy="55.72" r="2.64" fill="#fff"/><path fill="#717790" d="M31.07 59.36a3.64 3.64 0 113.64-3.64 3.65 3.65 0 01-3.64 3.64zm0-5.28a1.64 1.64 0 101.64 1.64 1.65 1.65 0 00-1.64-1.64z" class="cls-11"/><circle cx="42.07" cy="55.72" r="2.64" fill="#fff"/><path fill="#717790" d="M42.07 59.36a3.64 3.64 0 113.64-3.64 3.65 3.65 0 01-3.64 3.64zm0-5.28a1.64 1.64 0 101.64 1.64 1.65 1.65 0 00-1.64-1.64z" class="cls-11"/><circle cx="53.07" cy="55.72" r="2.64" fill="#fff"/><path fill="#717790" d="M53.07 59.36a3.64 3.64 0 113.64-3.64 3.65 3.65 0 01-3.64 3.64zm0-5.28a1.64 1.64 0 101.64 1.64 1.65 1.65 0 00-1.64-1.64z" class="cls-11"/><path fill="#a9e0d0" d="M152.37 103.84h2.88a20.35 20.35 0 0120.35 20.35v.69h-42.89a.69.69 0 01-.69-.69 20.35 20.35 0 0120.35-20.35z" class="cls-12"/><path fill="#717790" d="M175.59 125.81h-42.88a1.63 1.63 0 01-1.62-1.62 21.3 21.3 0 0121.28-21.28h2.88a21.3 21.3 0 0121.28 21.28v.69a.94.94 0 01-.94.93zM133 123.94h41.69a19.42 19.42 0 00-19.4-19.16h-2.88A19.43 19.43 0 00133 123.94z" class="cls-11"/><circle cx="153.81" cy="91.38" r="9.29" fill="#a9e0d0" class="cls-12"/><path fill="#717790" d="M153.81 101.61A10.23 10.23 0 11164 91.38a10.24 10.24 0 01-10.19 10.23zm0-18.59a8.36 8.36 0 108.36 8.36 8.37 8.37 0 00-8.36-8.38zM176.29 136h-46a1 1 0 010-2h46a1 1 0 010 2zm-9.5 8.5h-26a1 1 0 010-2h26a1 1 0 010 2z" class="cls-11"/><circle cx="74.08" cy="117.24" r="33.31" fill="#a9e0d0" class="cls-12"/><path fill="#717790" d="M74.08 151.51a34.27 34.27 0 1134.27-34.27 34.31 34.31 0 01-34.27 34.27zm0-66.62a32.35 32.35 0 1032.35 32.35 32.38 32.38 0 00-32.35-32.35z" class="cls-11"/><path fill="#fff" d="M72.9 77.13v44.1l39.39-19.71S103.26 75 72.9 77.13z"/><path fill="#717790" d="M72.9 122.16a.91.91 0 01-.94-.93v-44.1a.93.93 0 01.87-.93c30.72-2.2 40.25 24.75 40.35 25a.94.94 0 01-.47 1.14l-39.4 19.71a1 1 0 01-.41.11zM73.83 78v41.7l37.29-18.65C109.4 96.76 99.92 76.6 73.83 78z" class="cls-11"/></svg>