<svg fill="none" xmlns="http://www.w3.org/2000/svg" viewBox="2.62 2.61 13.82 14.83"> <g id="Github"> <path id="Vector" d="M7.72651 14.9659C4.43902 15.9521 4.43902 13.3221 3.12402 12.9934M12.329 16.9384V14.3938C12.3537 14.0803 12.3113 13.7651 12.2047 13.4693C12.0982 13.1734 11.9299 12.9036 11.711 12.6778C13.7755 12.4476 15.9452 11.6652 15.9452 8.07529C15.9451 7.1573 15.592 6.27453 14.959 5.60967C15.2587 4.80654 15.2375 3.91881 14.8998 3.1309C14.8998 3.1309 14.124 2.90077 12.329 4.104C10.822 3.69557 9.23349 3.69557 7.72651 4.104C5.93154 2.90077 5.15569 3.1309 5.15569 3.1309C4.81799 3.91881 4.79679 4.80654 5.09652 5.60967C4.45883 6.27946 4.10535 7.17021 4.11027 8.09501C4.11027 11.6587 6.28002 12.4411 8.34456 12.6975C8.12824 12.921 7.96141 13.1876 7.85493 13.4799C7.74844 13.7721 7.70469 14.0835 7.72651 14.3938V16.9384" stroke="black" stroke-linecap="round" stroke-linejoin="round"></path> </g> </svg>
