<svg fill="none" xmlns="http://www.w3.org/2000/svg" viewBox="3.93 3.93 12.15 12.15"> <g id="Instagram"> <g id="Group 410"> <path id="Vector" d="M12.7862 4.42578H7.2126C5.67348 4.42578 4.42578 5.67348 4.42578 7.2126V12.7862C4.42578 14.3254 5.67348 15.5731 7.2126 15.5731H12.7862C14.3254 15.5731 15.5731 14.3254 15.5731 12.7862V7.2126C15.5731 5.67348 14.3254 4.42578 12.7862 4.42578Z" stroke="black" stroke-linecap="round" stroke-linejoin="round"></path> <path id="Vector_2" d="M12.2287 9.64853C12.2975 10.1124 12.2183 10.5861 12.0023 11.0024C11.7863 11.4186 11.4446 11.7562 11.0257 11.967C10.6069 12.1778 10.1322 12.2512 9.66921 12.1767C9.20623 12.1022 8.77853 11.8836 8.44694 11.552C8.11535 11.2204 7.89676 10.7927 7.82226 10.3297C7.74776 9.86677 7.82115 9.39208 8.03198 8.97321C8.24281 8.55434 8.58034 8.21261 8.99658 7.99664C9.41282 7.78066 9.88657 7.70143 10.3504 7.77021C10.8236 7.84037 11.2616 8.06086 11.5999 8.39909C11.9381 8.73732 12.1586 9.17537 12.2287 9.64853Z" stroke="black" stroke-linecap="round" stroke-linejoin="round"></path> <path id="Vector_3" d="M13.0654 6.93359H13.0696" stroke="black" stroke-linecap="round" stroke-linejoin="round"></path> </g> </g> </svg>
