<svg fill="none" xmlns="http://www.w3.org/2000/svg" viewBox="0.48 1.64 19.04 18.14"> <g id="Linkedin"> <g id="Group 401"> <g id="Group 399"> <path id="Vector" d="M13.6088 7.55664C15.0446 7.55664 16.4216 8.12699 17.4368 9.14223C18.452 10.1575 19.0224 11.5344 19.0224 12.9702V19.286H15.4134V12.9702C15.4134 12.4916 15.2232 12.0326 14.8848 11.6942C14.5464 11.3558 14.0874 11.1657 13.6088 11.1657C13.1303 11.1657 12.6713 11.3558 12.3329 11.6942C11.9945 12.0326 11.8043 12.4916 11.8043 12.9702V19.286H8.19531V12.9702C8.19531 11.5344 8.76567 10.1575 9.7809 9.14223C10.7961 8.12699 12.1731 7.55664 13.6088 7.55664Z" stroke="#1B344B" stroke-linecap="round" stroke-linejoin="round"></path> <path id="Vector_2" d="M4.58656 8.45898H0.977539V19.2861H4.58656V8.45898Z" stroke="#1B344B" stroke-linecap="round" stroke-linejoin="round"></path> <path id="Vector_3" d="M2.78205 5.7516C3.77865 5.7516 4.58656 4.94369 4.58656 3.94709C4.58656 2.95049 3.77865 2.14258 2.78205 2.14258C1.78545 2.14258 0.977539 2.95049 0.977539 3.94709C0.977539 4.94369 1.78545 5.7516 2.78205 5.7516Z" stroke="#1B344B" stroke-linecap="round" stroke-linejoin="round"></path> </g> </g> </g> </svg>
