<svg xmlns="http://www.w3.org/2000/svg" width="15" height="13" fill="none"><g clip-path="url(#a)"><path stroke="#12344D" stroke-linecap="round" stroke-linejoin="round" d="M13.59 2.14c-.05.02-.11.03-.17.05-.3.08-.6.14-.91.17a.206.206 0 0 1-.23-.19c0-.09.04-.17.11-.21.28-.17.53-.39.73-.65.09-.11.16-.22.23-.34-.13.06-.26.12-.4.17-.32.13-.66.22-1.01.29-.08.01-.15-.01-.2-.07a2.78 2.78 0 0 0-.91-.64C10.49.58 10.12.5 9.73.5c-.76 0-1.46.31-1.95.81a2.751 2.751 0 0 0-.79 2.27c.01.11.03.21.05.31a.2.2 0 0 1-.16.25h-.07a8.59 8.59 0 0 1-3.47-.92A8.68 8.68 0 0 1 .74 1.2a2.703 2.703 0 0 0-.23 1.12c0 .47.12.92.32 1.3.21.4.52.74.9.99.1.06.13.2.06.29-.04.07-.12.1-.19.09-.25 0-.5-.04-.73-.11C.74 4.84.62 4.8.5 4.75a2.777 2.777 0 0 0 2.2 2.41c.12.02.19.13.17.25-.02.09-.08.14-.16.17-.13.04-.27.06-.41.08-.14.02-.28.03-.42.03h-.24c.2.42.49.78.86 1.06.45.33 1 .53 1.59.55.12 0 .21.1.21.21 0 .07-.03.13-.08.16-.54.42-1.15.76-1.8.98-.59.2-1.21.32-1.87.34.44.22.9.4 1.37.54.73.21 1.5.33 2.31.33 2.45 0 4.4-.94 5.78-2.32 1.63-1.63 2.48-3.87 2.48-5.94v-.38c0-.07.03-.14.09-.18.28-.2.54-.43.78-.67.08-.08.15-.16.22-.24l.01.01Z"/></g><defs><clipPath id="a"><path fill="#fff" d="M0 0h14.09v12.36H0z"/></clipPath></defs></svg>