<svg fill="none" xmlns="http://www.w3.org/2000/svg" viewBox="2.42 4.53 15.16 10.95"> <g id="Youtube"> <g id="Group 409"> <path id="Vector" d="M16.7824 6.58257C16.706 6.27719 16.5503 5.99739 16.3311 5.77142C16.1119 5.54546 15.837 5.38134 15.5341 5.29564C14.4273 5.02539 10.0003 5.02539 10.0003 5.02539C10.0003 5.02539 5.57331 5.02539 4.46655 5.32138C4.16364 5.40708 3.88871 5.5712 3.66953 5.79716C3.45034 6.02313 3.29467 6.30293 3.21824 6.60831C3.01568 7.73151 2.9166 8.87092 2.92224 10.0122C2.91502 11.1621 3.01411 12.3102 3.21824 13.4419C3.3025 13.7378 3.46166 14.0069 3.68033 14.2233C3.89901 14.4398 4.1698 14.5961 4.46655 14.6773C5.57331 14.9733 10.0003 14.9733 10.0003 14.9733C10.0003 14.9733 14.4273 14.9733 15.5341 14.6773C15.837 14.5916 16.1119 14.4275 16.3311 14.2015C16.5503 13.9756 16.706 13.6958 16.7824 13.3904C16.9834 12.2757 17.0825 11.1449 17.0784 10.0122C17.0856 8.86233 16.9865 7.71423 16.7824 6.58257Z" stroke="black" stroke-width="1.00001" stroke-linecap="round" stroke-linejoin="round"></path> <path id="Vector_2" d="M8.55273 12.1164L12.2526 10.0123L8.55273 7.9082V12.1164Z" stroke="black" stroke-width="1.00001" stroke-linecap="round" stroke-linejoin="round"></path> </g> </g> </svg>
