<!-- Generated by IcoMoon.io -->
<svg version="1.1" xmlns="http://www.w3.org/2000/svg" width="32" height="32" viewBox="0 0 32 32">
<title>delete</title>
<path d="M26.222 8.061c0 0 0 19.787 0 19.787 0 1.115-0.915 2.019-2.044 2.019 0 0-16.356 0-16.356 0-1.129 0-2.044-0.904-2.044-2.019 0 0 0-19.787 0-19.787s-0.818 0-0.818 0c-0.677 0-1.227-0.542-1.227-1.211s0.549-1.211 1.227-1.211c0 0 4.907 0 4.907 0s0-2.019 0-2.019c0-1.115 0.915-2.019 2.044-2.019 0 0 8.178 0 8.178 0 1.129 0 2.044 0.904 2.044 2.019 0 0 0 2.019 0 2.019s4.907 0 4.907 0c0.677 0 1.227 0.542 1.227 1.211s-0.549 1.211-1.227 1.211c0 0-0.818 0-0.818 0zM8.231 8.061c0 0 0 19.383 0 19.383s15.538 0 15.538 0c0 0 0-19.383 0-19.383s-15.538 0-15.538 0zM19.271 10.686c0.677 0 1.227 0.542 1.227 1.211 0 0 0 11.71 0 11.71 0 0.669-0.549 1.211-1.227 1.211s-1.227-0.542-1.227-1.211c0 0 0-11.71 0-11.71 0-0.669 0.549-1.211 1.227-1.211zM13.138 10.686c0.677 0 1.227 0.542 1.227 1.211 0 0 0 11.71 0 11.71 0 0.669-0.549 1.211-1.227 1.211s-1.227-0.542-1.227-1.211c0 0 0-11.71 0-11.71 0-0.669 0.549-1.211 1.227-1.211zM12.32 5.638c0 0 7.36 0 7.36 0s0-1.615 0-1.615c0 0-7.36 0-7.36 0s0 1.615 0 1.615z"></path>
</svg>
