<svg width="20" height="20" fill="none" xmlns="http://www.w3.org/2000/svg"><path d="M16 6.87h.22v.2c0 .33.3.6.66.6.36 0 .66-.27.66-.6v-.2h.22c.36 0 .66-.27.66-.6 0-.33-.3-.6-.66-.6h-.22v-.2c0-.33-.3-.6-.66-.6-.36 0-.66.27-.66.6v.2H16c-.36 0-.66.27-.66.6 0 .33.3.6.66.6Zm-14.34-.6h.65v.6c0 .33.3.6.66.6.36 0 .66-.27.66-.6v-.6h.65c.36 0 .66-.27.66-.6 0-.33-.3-.6-.66-.6h-.65v-.6c0-.33-.3-.6-.66-.6-.36 0-.66.27-.66.6v.6h-.65c-.36 0-.66.27-.66.6 0 .33.3.6.66.6Z" fill="#264966"/><path fill-rule="evenodd" clip-rule="evenodd" d="M6.06 17.87c-.35 0-.64-.29-.64-.64 0-.35.29-.64.64-.64h2.06v-2l-.09-.01c-.4-.06-.8-.17-1.17-.33-.6-.25-1.15-.61-1.61-1.07-.46-.47-.83-1.01-1.08-1.61-.25-.61-.38-1.24-.38-1.9 0-.35.29-.64.64-.64.35 0 .64.29.64.64 0 .49.09.96.28 1.41.19.45.46.85.8 1.2.34.34.74.61 1.19.8.45.19.92.28 1.41.28.49 0 .96-.09 1.41-.28a3.722 3.722 0 0 0 1.99-1.99c.19-.45.28-.92.28-1.41 0-.35.29-.64.64-.64.35 0 .64.29.64.64 0 .66-.13 1.3-.38 1.9-.25.6-.61 1.15-1.07 1.61-.46.46-1.01.83-1.61 1.07-.37.16-.77.27-1.17.33H9.4v2.01h2.06c.35 0 .64.29.64.64 0 .35-.29.64-.64.64h-5.4v-.01Zm2.7-4.86c-1.55 0-2.8-1.26-2.8-2.8V4.8c0-1.54 1.26-2.8 2.8-2.8 1.54 0 2.8 1.26 2.8 2.8v5.4c0 1.54-1.26 2.8-2.8 2.8v.01Zm0-9.81c-.88 0-1.6.72-1.6 1.6v5.4c0 .88.72 1.6 1.6 1.6.88 0 1.6-.72 1.6-1.6V4.8c0-.88-.72-1.6-1.6-1.6Z" fill="#264966"/></svg>