<svg width="20" height="20" fill="none" xmlns="http://www.w3.org/2000/svg"><path d="M16.898 3h-3.876c-.364 0-.662.27-.662.6 0 .33.298.6.662.6h2.275l-4.295 3.89a.57.57 0 0 0 0 .85.689.689 0 0 0 .927 0l4.295-3.89v2.06c0 .33.298.6.663.6.364 0 .662-.27.662-.6V3.6c0-.33-.298-.6-.662-.6h.01Zm-9.175 8.07-4.295 3.89V12.9c0-.33-.298-.6-.662-.6-.365 0-.663.27-.663.6v3.51c0 .06.022.11.033.16 0 .02 0 .04.011.06.067.15.2.27.365.33.022 0 .044 0 .066.01.055.02.121.03.188.03H6.64c.364 0 .662-.27.662-.6 0-.33-.298-.6-.662-.6H4.367l4.294-3.89a.57.57 0 0 0 0-.85.724.724 0 0 0-.938 0v.01Z" fill="#264966"/></svg>