<svg width="20" height="20" viewBox="0 0 20 20" fill="none" xmlns="http://www.w3.org/2000/svg">
<path fill-rule="evenodd" clip-rule="evenodd" d="M14.8334 4.33334C15.064 4.10454 15.436 4.10454 15.6667 4.33334C15.8901 4.56299 15.8901 4.92869 15.6667 5.15834L12.6334 8.19167H14.1C14.4222 8.19167 14.6834 8.45284 14.6834 8.77501C14.6834 9.09717 14.4222 9.35834 14.1 9.35834H11.225C10.9029 9.35834 10.6417 9.09717 10.6417 8.77501V5.90001C10.6417 5.57784 10.9029 5.31667 11.225 5.31667C11.5472 5.31667 11.8084 5.57784 11.8084 5.90001V7.36667L14.8334 4.33334ZM9.00005 10.6833C9.14302 10.7433 9.25673 10.857 9.31671 11C9.32505 11.0333 9.35838 11.0833 9.35838 11.0833C9.3624 11.1305 9.3624 11.1779 9.35838 11.225V14.1C9.35838 14.4222 9.09721 14.6833 8.77505 14.6833C8.45288 14.6833 8.19171 14.4222 8.19171 14.1V12.6333L5.16671 15.6583C5.05698 15.7703 4.90681 15.8334 4.75005 15.8333C4.59683 15.8362 4.44919 15.7759 4.34171 15.6667C4.22758 15.5581 4.16296 15.4075 4.16296 15.25C4.16296 15.0925 4.22758 14.9419 4.34171 14.8333L7.36671 11.85H5.90005C5.57788 11.85 5.31671 11.5888 5.31671 11.2667C5.31671 10.9445 5.57788 10.6833 5.90005 10.6833H8.77505C8.82218 10.6793 8.86958 10.6793 8.91671 10.6833H9.00005Z" fill="#3B4854"/>
</svg>
