<svg width="20" height="20" fill="none" xmlns="http://www.w3.org/2000/svg"><path d="M17.199 4.249c-.601-.544-1.772-.375-3.492.506-1.502.769-3.17 1.969-4.724 3.366-1.17 1.059-2.207 2.165-3.015 3.206a2.73 2.73 0 0 0-1.129.59c-.912.825-1.647 3.863-1.792 4.463a.545.545 0 0 0 .166.516c.114.103.28.168.435.168.041 0 .083 0 .124-.009.663-.122 4.02-.797 4.931-1.622.332-.3.54-.647.663-1.022a26.05 26.05 0 0 0 3.523-2.718c2.414-2.185 5.708-6.141 4.279-7.435l.03-.01ZM8.61 10.127a2.03 2.03 0 0 1 1.596.469c.414.375.59.89.518 1.415-.435.347-.87.675-1.306.985 0-.029-.03-.057-.041-.094a3.164 3.164 0 0 0-.176-.384c-.031-.047-.052-.094-.083-.141a2.8 2.8 0 0 0-.394-.46 2.672 2.672 0 0 0-.476-.337 2.267 2.267 0 0 0-.311-.14c-.052-.02-.114-.047-.166-.066-.072-.028-.145-.066-.218-.085.332-.384.684-.768 1.068-1.162h-.01Zm-4.123 5.625c.342-1.256.85-2.69 1.233-3.038.425-.384 1.077-.478 1.616-.29a1.48 1.48 0 0 1 .508.29c.134.122.217.254.29.404.01.028.03.056.041.093.062.14.093.29.093.44v.085c-.02.328-.145.647-.424.9-.384.347-1.969.807-3.357 1.116Zm7.387-4.716a2.7 2.7 0 0 0-.798-1.228 3.207 3.207 0 0 0-1.388-.712c.062-.057.114-.113.176-.17 3.066-2.784 5.79-3.974 6.444-3.862.124.582-1.192 3.047-4.269 5.832-.051.046-.114.093-.165.14Z" fill="#264966"/></svg>