<svg width="205" height="200" viewBox="0 0 205 200" fill="none" xmlns="http://www.w3.org/2000/svg">
<circle cx="160.239" cy="54.192" r="44.2389" fill="#02B190"/>
<g clip-path="url(#clip0_421_21652)">
<path fill-rule="evenodd" clip-rule="evenodd" d="M140 55C140 43.954 148.954 35 160 35C171.046 35 180 43.954 180 55C180 66.046 171.046 75 160 75C148.954 75 140 66.046 140 55ZM142.976 55.0088C142.985 64.4092 150.608 72.0241 160.009 72.0241C169.409 72.0241 177.042 64.3917 177.033 54.9913C177.024 45.5908 169.4 37.9759 160 37.9759C155.484 37.9672 151.151 39.7615 147.965 42.965C144.77 46.1598 142.976 50.4924 142.976 55.0088Z" fill="white"/>
<path fill-rule="evenodd" clip-rule="evenodd" d="M166.469 50.8944C166.81 50.8944 167.134 50.9995 167.405 51.192C168.149 51.7084 168.333 52.7413 167.816 53.4852L167.808 53.5028L157.514 67.6909C157.199 68.1373 156.692 68.3912 156.167 68.3912C155.974 68.3912 155.781 68.3649 155.598 68.2949C155.186 68.1373 154.854 67.8397 154.67 67.4371C154.486 67.0432 154.469 66.6056 154.609 66.1942L156.946 59.2008H153.112C152.762 59.2008 152.438 59.0958 152.167 58.9032C151.799 58.6494 151.563 58.273 151.484 57.8354C151.405 57.3977 151.501 56.9601 151.755 56.6012L161.803 42.3693C162.092 41.9842 162.539 41.7391 163.02 41.6953H163.09C163.265 41.6953 163.449 41.7216 163.624 41.7741C164.49 42.0542 164.972 42.9732 164.7 43.8397L162.565 50.8944H166.469ZM159.965 57.0039L157.768 63.5947L165.409 53.0826H159.615L161.637 46.3956L154.145 57.0039H158.451H159.965Z" fill="white"/>
</g>
<path d="M41.5234 83.6524L66.7343 82.584L88.214 195.265L65.2764 199.414L41.5234 83.6524Z" fill="white"/>
<path d="M41.4518 16.4346C41.4518 16.4346 40.3248 0.216893 30.0669 0.00129514C19.737 -0.142437 21.9862 11.725 21.9862 11.725C21.9862 11.725 16.0108 8.35211 17.6989 15.9364C19.387 23.5206 33.7979 22.3947 33.7979 22.3947L41.4614 16.4251L41.4518 16.4346Z" fill="#27313A"/>
<path d="M40.7443 12.7793C40.7443 12.7793 32.1025 15.0263 29.3594 22.4668C29.3594 22.4668 30.5535 24.0095 33.5028 24.4312C33.5028 24.4312 34.7689 19.4437 41.3773 16.3582C41.4492 16.4301 42.3604 14.0393 40.7443 12.7793Z" fill="#FFC12D"/>
<path d="M33.8575 24.9676L33.4307 24.9101C30.3231 24.4645 29.0283 22.8308 28.9755 22.7637L28.8125 22.5529L28.9036 22.3038C31.7043 14.7147 40.2549 12.415 40.6194 12.3192L40.8496 12.2617L41.0366 12.4055C42.3507 13.4307 42.2212 15.0453 42.1013 15.6921C41.919 16.6839 41.6601 16.7797 41.5306 16.818C35.2675 19.7597 33.9774 24.5029 33.9678 24.5508L33.8623 24.9676H33.8575ZM29.9107 22.3565C30.2944 22.7206 31.3206 23.5399 33.1669 23.8896C33.6321 22.5912 35.4497 18.6434 41.0318 15.9892C41.1853 15.5771 41.5018 14.1877 40.6194 13.311C39.2479 13.7326 32.3757 16.1281 29.9059 22.3565H29.9107Z" fill="#FFC12D"/>
<path d="M78.7595 71.4077C71.5181 73.4439 47.0602 75.6909 28.0214 67.5461C28.0933 64.2451 27.8152 60.5272 27.1102 56.244C25.4221 46.063 24.0842 17.4843 45.0317 14.2599C65.9791 11.0308 82.1357 24.7955 77.6422 43.7441C75.8198 51.4625 77.0811 61.792 78.7691 71.4077H78.7595Z" fill="#27313A"/>
<path d="M67.9453 55.4668C67.9453 53.0761 69.9116 51.1836 72.3046 51.1836C74.6976 51.1836 76.5919 53.1479 76.5919 55.5387C76.5919 57.9294 74.6257 59.8219 72.2327 59.8219C69.8396 59.8219 67.9453 57.8575 67.9453 55.4668ZM69.2114 55.4668C69.2114 57.1533 70.5494 58.5618 72.2375 58.5618C73.9255 58.5618 75.3354 57.2251 75.3354 55.5387C75.3354 53.8522 73.9974 52.4436 72.3094 52.4436C70.6213 52.3718 69.2114 53.7803 69.2114 55.4668Z" fill="white"/>
<path d="M38.7031 77.8757C38.7031 77.8757 43.3453 85.7426 52.553 86.7248C64.288 87.9178 65.4197 82.8632 65.4197 82.8632C64.8586 81.3205 64.5086 79.7682 64.2928 78.0913C64.2208 77.4589 64.1489 76.8265 64.1489 76.127C64.077 74.3064 64.077 72.2654 64.2208 69.9465C64.2208 69.3859 64.2928 68.8206 64.3647 68.26V68.1882C56.2121 66.6454 49.4694 63.2725 44.6833 57.5185L43.4172 56.8142L42.578 56.3926L42.4342 56.8813L42.6403 58.3521C43.6954 65.304 42.3622 71.2065 38.7031 77.8709V77.8805V77.8757Z" fill="white"/>
<path d="M50.5156 63.4062C52.4099 67.196 56.6301 73.8699 64.1497 76.0451C64.0778 74.2245 64.0777 72.1835 64.2216 69.8646C64.2216 69.304 64.2936 68.7387 64.3655 68.1781C64.2216 68.1781 64.0154 68.25 63.8763 68.25C59.4547 68.6716 54.5967 66.6354 50.5252 63.4062H50.5156Z" fill="#27313A"/>
<path d="M32.315 45.0797C31.9649 49.4348 35.8254 54.911 41.5226 55.1889H41.6665C41.7385 55.4667 41.8727 55.6775 41.9446 55.965C42.0166 56.1087 42.0166 56.171 42.0885 56.3148C45.527 63.8271 56.0007 68.4649 61.7699 68.7428C63.8081 68.8146 65.2084 68.393 65.6352 68.3212C71.7497 67.1282 73.0829 58.9115 72.2437 52.664C72.0998 51.7537 71.9655 50.9057 71.7545 50.0672C71.7545 49.9953 71.7545 49.9235 71.6826 49.9235C71.6826 49.9235 73.9317 41.1463 74.488 37.3613C75.543 29.9208 71.462 22.3366 55.1567 20.4393C38.8515 18.6187 37.9403 28.5122 36.6742 33.8495C36.468 34.7598 36.6742 40.6576 37.5135 41.5679C36.1755 41.4241 32.5212 41.8458 32.315 45.0749H32.3054L32.315 45.0797Z" fill="white"/>
<path d="M70.474 47.3225C70.2678 48.5155 69.5629 49.4354 68.9298 49.2869C68.2968 49.1431 67.9467 48.0939 68.153 46.8961C68.3592 45.7031 69.0641 44.7833 69.6971 44.9318C70.3302 45.0755 70.6803 46.1248 70.474 47.3225Z" fill="#27313A"/>
<path d="M59.8568 45.635C59.6506 46.828 58.9457 47.7479 58.3127 47.5994C57.6796 47.4556 57.3296 46.4064 57.5358 45.2086C57.742 44.0156 58.4469 43.0958 59.08 43.2443C59.7849 43.388 60.135 44.4373 59.8568 45.635Z" fill="#27313A"/>
<path d="M64.4985 58.9785C64.2923 58.9785 64.1484 58.9067 63.9374 58.9067C61.9712 58.485 60.777 56.5159 60.7051 56.4536C60.5612 56.1757 60.6332 55.7493 60.9113 55.6152C61.1895 55.4715 61.6163 55.5433 61.7506 55.8212C61.7506 55.8212 62.7337 57.4358 64.1436 57.7137C65.6159 57.9916 66.2585 57.225 66.3208 57.1531C66.527 56.8752 66.9538 56.8752 67.16 57.0813C67.4382 57.2873 67.4382 57.6418 67.3039 57.9197C67.232 57.9916 66.3208 59.1127 64.4985 58.9737V58.9785Z" fill="#27313A"/>
<path d="M42.157 51.8155C41.9508 51.7436 41.735 51.6094 41.6678 51.3268C40.9629 47.1873 36.1145 45.2948 36.0425 45.2948C35.7644 45.1511 35.5533 44.8061 35.6924 44.5187C35.8363 44.2408 36.1144 44.03 36.4693 44.1689C36.6755 44.2408 42.0227 46.3441 42.862 51.1208C42.9339 51.4705 42.7181 51.7532 42.3728 51.825H42.1665L42.157 51.8155Z" fill="#27313A"/>
<path d="M37.016 49.3639C36.944 49.3639 36.8721 49.292 36.8098 49.292C36.5316 49.086 36.4597 48.7314 36.6035 48.4536C36.6755 48.3817 37.7976 46.633 40.1859 46.7671C40.536 46.7671 40.747 47.045 40.747 47.3995C40.747 47.7541 40.4689 47.9601 40.114 47.9601C38.4259 47.8163 37.5867 49.086 37.5867 49.086C37.5147 49.3639 37.2366 49.4357 37.0256 49.3639H37.016Z" fill="#27313A"/>
<path d="M41.5234 55.1892H41.6673C41.7393 55.467 41.8735 55.6778 41.9455 55.9653C42.0174 56.109 42.0174 56.1713 42.0894 56.3151C42.7224 56.2432 43.5616 56.0372 44.3385 55.4766C44.7605 55.1987 45.1777 54.7723 45.5326 54.2118C45.6765 53.9339 45.6046 53.5794 45.3264 53.3733C45.0483 53.1673 44.6934 53.3015 44.4872 53.5794C44.1371 54.1399 43.576 54.5615 43.0772 54.7723C42.7271 54.9161 42.3723 55.0502 42.0222 55.0502C41.8783 55.1939 41.6721 55.1939 41.533 55.1939L41.5234 55.1844V55.1892Z" fill="#722324"/>
<path d="M42.996 55.1189C42.574 55.2626 42.0849 55.2626 41.73 55.2626V55.3345C41.73 57.0209 40.32 58.3576 38.6319 58.3576C36.9439 58.3576 35.6059 56.9491 35.6059 55.2626C35.6059 53.7199 36.7328 52.4598 38.2051 52.2394C38.5552 51.8178 38.6271 51.401 38.2051 50.9746C36.0279 51.1806 34.3398 53.0108 34.3398 55.2578C34.3398 57.6486 36.2341 59.6129 38.6271 59.6129C41.0202 59.6129 42.9864 57.7204 42.9864 55.3297V55.1141L42.996 55.1189Z" fill="white"/>
<path d="M62.8813 61.6475C62.042 61.4415 61.6152 60.8713 61.5433 60.8713C61.3994 60.7276 61.4713 60.4497 61.6152 60.3108C61.7591 60.167 62.0372 60.2389 62.1763 60.3826C62.1763 60.4545 62.8093 61.1588 63.8643 60.8713C64.0706 60.7995 64.2864 60.9432 64.3535 61.1492C64.4254 61.3552 64.2816 61.5708 64.0754 61.6379C63.6534 61.7816 63.2361 61.7098 62.8813 61.6379V61.6475Z" fill="#27313A"/>
<path d="M38.3546 24.8566C41.9369 21.3496 46.8573 18.5324 52.7656 18.9588C60.9901 19.5912 68.5097 22.6863 72.6532 27.1755C74.6194 29.3506 75.8135 31.8851 75.8854 34.6879C76.1636 43.2543 74.3413 41.496 74.3413 41.496C74.3413 41.496 74.4132 41.2899 74.1974 39.4598C74.0535 38.3339 73.8473 36.657 73.4205 34.0554C72.4374 28.0235 52.8998 26.8928 54.0891 30.8981C54.0891 30.8981 54.1611 31.3868 54.0891 32.163C54.0172 33.0014 53.811 34.1273 53.2499 35.258C53.106 35.258 52.9718 35.3299 52.8279 35.3299C50.8617 35.6077 49.2456 36.1683 47.9076 36.8007C47.7637 36.9445 44.7472 39.0477 45.1021 42.138C45.4521 45.3671 46.5743 49.5785 44.3971 48.74C42.2199 47.9016 41.5917 45.3049 41.5917 45.3049C40.4647 43.834 39.0643 42.3536 36.9494 41.6541C36.1102 35.9 36.0383 30.1364 38.3594 24.8662V24.8566H38.3546Z" fill="#27313A"/>
<path d="M37.157 28.5077C43.0605 26.6152 52.4072 31.1763 54.0234 32.1585C53.9514 32.9969 53.7452 34.1228 53.1841 35.2535C53.0403 35.2535 52.906 35.3254 52.7621 35.3254C50.7959 35.6032 49.1798 36.1638 47.8418 36.7962C47.6979 36.9399 44.6814 39.0432 45.0363 42.1335C45.3863 45.3626 48.0623 62.5003 44.6862 65.097C37.8715 70.3624 40.6051 45.1566 40.6051 45.1566C39.4781 43.6858 38.917 42.2772 36.8117 41.5058C34.6345 36.9399 35.4737 32.6567 37.1618 28.5173V28.5077H37.157Z" fill="#27313A"/>
<path d="M65.1318 53.2974C65.2037 53.2974 65.338 53.2974 65.4099 53.2255L67.6591 51.9607C67.803 51.8888 67.9372 51.7547 67.9372 51.5391C67.9372 51.3235 67.8653 51.1893 67.731 51.1175C65.971 50.0634 64.9879 48.4489 64.4988 45.9958C64.4268 45.7179 64.2206 45.5742 63.9376 45.5742C63.6595 45.6461 63.5156 45.8521 63.5156 46.1348C64.0048 48.5255 64.9256 50.212 66.5417 51.4001L64.9975 52.2386C64.7913 52.3823 64.6474 52.6602 64.7913 52.9429C64.7913 53.2207 64.9351 53.2926 65.1414 53.2926L65.1318 53.3022V53.2974Z" fill="#27313A"/>
<path d="M57.2563 52.7979C54.0241 52.52 51.5591 49.7029 51.7749 46.4737C52.053 43.2445 54.8729 40.7819 58.1051 40.9975C61.3374 41.2754 63.8024 44.0925 63.5866 47.3217C63.3804 50.5509 60.5606 53.0135 57.2563 52.7979ZM58.0956 41.9126C55.3525 41.7066 52.969 43.7332 52.7532 46.5504C52.547 49.2908 54.5755 51.672 57.3954 51.8876C60.1385 52.0936 62.5219 50.067 62.7378 47.2499C62.8816 44.5094 60.8435 42.1282 58.0956 41.9126Z" fill="#27313A"/>
<path d="M71.3149 53.8526C68.0826 53.5747 65.6177 50.7576 65.8335 47.5284C66.1116 44.2992 68.9314 41.8366 72.1637 42.0522C75.396 42.3301 77.861 45.1472 77.6452 48.3764C77.439 51.6056 74.5472 54.0682 71.3149 53.8526ZM72.0918 42.9673C69.3487 42.7613 66.9652 44.7879 66.7494 47.605C66.5432 50.3455 68.5718 52.7267 71.3916 52.9423C74.1347 53.1483 76.5182 51.1217 76.734 48.3045C76.9402 45.5641 74.8397 43.1829 72.0918 42.9673Z" fill="#27313A"/>
<path d="M39.9071 44.3767L39.418 43.6724C39.6242 43.5286 45.9545 39.5329 53.4021 42.9681L52.9801 43.8065C46.0935 40.5774 39.9791 44.2952 39.9071 44.3671V44.3767Z" fill="#27313A"/>
<path d="M63.4422 47.2507L62.9531 46.4745C63.6581 46.0529 65.3461 45.4923 66.6841 46.7524L66.0511 47.4567C64.857 46.3308 63.5238 47.1788 63.4518 47.2507H63.4422Z" fill="#27313A"/>
<path d="M60.0727 40.381C61.1277 41.1571 62.528 39.9593 61.8326 38.8382C61.4826 38.2777 60.8495 37.7123 59.8664 37.3674C55.5072 35.9588 52.1406 38.5604 52.1406 38.5604C52.1406 38.5604 56.7828 38.7041 58.8833 39.6863C59.3725 39.8923 59.7945 40.1749 60.0775 40.3905V40.381H60.0727Z" fill="#27313A"/>
<path d="M67.3149 41.4961C66.0489 41.9848 65.0657 40.3702 66.0488 39.5317C66.538 39.0431 67.3149 38.6933 68.3699 38.6214C72.9402 38.4154 73.9952 41.4242 73.9952 41.4242C73.9952 41.4242 70.9692 40.7199 68.6529 41.1463C68.0918 41.2901 67.6698 41.3523 67.3149 41.4961Z" fill="#27313A"/>
<path d="M41.0956 71.4785C41.0956 71.4785 34.4152 73.0931 32.5209 82.9962C32.5209 82.9962 20.503 86.5751 17.2708 89.1767C14.0385 91.7734 10.1731 94.5139 10.4561 98.7301C11.2953 112.495 31.816 142.961 33.9309 151.178C36.0458 159.394 23.3229 189.233 23.3229 189.233C32.5305 196.817 46.5147 200.181 65.2753 199.414C65.2753 199.414 62.043 119.375 56.1396 106.386C50.2361 93.4695 44.6108 83.7724 41.1004 71.4881V71.4785H41.0956Z" fill="white"/>
<path d="M60.2686 200C43.9154 200 31.3988 196.512 23.0159 189.603C22.8529 189.469 22.7953 189.239 22.8817 189.047C23.0063 188.75 35.5134 159.266 33.4657 151.299C32.6936 148.29 29.327 142.1 25.4329 134.937C18.7861 122.71 10.5136 107.494 9.97651 98.7598C9.69836 94.5964 13.1992 91.808 16.2876 89.3502L16.9734 88.804C20.0043 86.3701 30.243 83.1889 32.1085 82.6235C33.1444 77.5498 35.4463 74.6847 37.2111 73.1612C39.1821 71.4651 40.9181 71.0291 40.9901 71.0148C41.134 70.9764 41.2826 71.0148 41.3977 71.1058C41.4936 71.1777 41.5512 71.2831 41.5751 71.3981C44.1072 80.2424 47.6705 87.5966 51.7995 96.1151C53.3485 99.3156 54.9551 102.626 56.5808 106.186C62.4555 119.112 65.6302 196.124 65.7597 199.396C65.7693 199.66 65.563 199.885 65.2993 199.894C63.5872 199.966 61.9087 200 60.2734 200H60.2686ZM23.9031 189.09C32.871 196.315 46.6154 199.631 64.7766 198.96C64.4936 192.286 61.2662 118.825 55.7032 106.588C54.0775 103.038 52.4805 99.7324 50.9315 96.5368C46.8504 88.1141 43.3208 80.8221 40.7743 72.0928C39.2876 72.6389 34.5447 74.9866 32.9957 83.093C32.9621 83.2703 32.8327 83.4092 32.66 83.462C32.5401 83.4955 20.6949 87.0457 17.5729 89.5562L16.8871 90.1071C13.8418 92.5314 10.6911 95.0372 10.9356 98.7023C11.4536 107.226 19.6733 122.341 26.277 134.482C30.2046 141.702 33.5952 147.94 34.396 151.064C36.4294 158.969 25.3658 185.627 23.9031 189.095V189.09Z" fill="#27313A"/>
<path d="M32.2383 83.3516C33.9264 93.317 40.5971 102.238 49.9534 106.028L32.2383 83.3516Z" fill="white"/>
<path d="M49.9542 106.502C49.8967 106.502 49.8343 106.493 49.772 106.469C40.43 102.684 33.5339 93.8588 31.7643 83.4287C31.7211 83.1699 31.8985 82.9208 32.1575 82.8777C32.4165 82.8346 32.6659 83.007 32.709 83.2706C34.4211 93.3749 41.0966 101.922 50.1316 105.583C50.3762 105.683 50.4961 105.961 50.3954 106.205C50.3187 106.392 50.1413 106.502 49.9495 106.502H49.9542Z" fill="#27313A"/>
<path d="M165.831 117.414C166.57 117.226 181.137 113.345 179.857 111.123C179.053 109.736 176.203 108.711 172.697 109.003C169.558 109.265 162.614 109.762 161.192 109.863C161.024 109.877 160.863 109.85 160.708 109.783C159.686 109.349 155.425 107.669 151.66 108.055C151.522 108.055 151.324 108.119 151.119 108.126C151.018 108.133 150.914 108.143 150.813 108.149C149.771 108.364 148.934 108.653 148.228 109.077C146.548 110.246 145.963 112.441 146.766 114.269C147.059 114.927 147.496 115.512 148.154 116.023C148.638 116.44 149.257 116.856 150.006 117.209C150.02 117.216 150.06 117.219 150.107 117.25C150.269 117.357 150.269 117.609 150.272 117.629C150.292 117.875 153.841 120.492 165.831 117.411V117.414Z" fill="white"/>
<path d="M155.864 119.242C155.41 119.242 154.97 119.228 154.546 119.202C151.763 119.027 150.57 118.318 150.271 118.106C150.046 117.948 149.945 117.814 149.935 117.662C149.935 117.592 149.921 117.555 149.914 117.538C149.891 117.531 149.874 117.525 149.864 117.518C149.145 117.178 148.496 116.762 147.935 116.281C147.276 115.767 146.789 115.152 146.459 114.406C145.582 112.407 146.244 110.051 148.036 108.801C148.765 108.364 149.619 108.055 150.745 107.82C150.758 107.82 150.772 107.816 150.785 107.813L151.091 107.786C151.195 107.783 151.286 107.762 151.366 107.749C151.461 107.732 151.551 107.715 151.642 107.712C155.43 107.329 159.642 108.959 160.842 109.466C160.949 109.51 161.057 109.527 161.171 109.523C163.1 109.386 169.628 108.918 172.669 108.663C176.071 108.381 179.217 109.342 180.148 110.952C180.299 111.214 180.313 111.506 180.188 111.802C179.133 114.312 166.048 117.699 165.914 117.736C162.035 118.734 158.66 119.235 155.864 119.235V119.242ZM150.593 117.504C150.977 117.797 154.435 119.998 165.745 117.091C169.95 116.012 178.857 113.237 179.566 111.55C179.62 111.425 179.597 111.355 179.563 111.298C178.888 110.132 176.262 109.05 172.723 109.342C169.678 109.597 163.144 110.064 161.215 110.202C160.996 110.219 160.778 110.182 160.576 110.095C159.746 109.745 155.42 108.011 151.693 108.391C151.632 108.398 151.565 108.404 151.484 108.418C151.38 108.438 151.259 108.458 151.128 108.465L150.856 108.488C149.817 108.707 149.034 108.986 148.395 109.369C146.886 110.421 146.321 112.434 147.071 114.137C147.357 114.776 147.777 115.31 148.358 115.76C148.879 116.207 149.471 116.587 150.126 116.9C150.163 116.91 150.224 116.933 150.288 116.974C150.452 117.084 150.56 117.269 150.593 117.501V117.504Z" fill="#27313A" stroke="#27313A" stroke-width="0.221194"/>
<path d="M156.497 118.08C153.495 121.558 150.094 125.856 147.092 129.33C145.694 128.894 143.577 128.04 141.446 126.326C138.505 123.957 137.073 121.181 136.438 119.696C138.851 117.717 141.271 115.71 143.698 113.674C144.682 112.847 145.66 112.024 146.635 111.197" fill="white"/>
<path d="M161.191 109.864C165.161 109.615 167.957 108.677 169.85 107.797C170.461 107.511 173.002 106.396 174.744 106.843C175.382 107.007 175.98 107.468 176.787 108.382C176.831 108.432 176.854 108.479 176.858 108.54C176.881 109.091 174.703 109.518 171.221 110.435C170.004 110.754 169.003 111.037 168.317 111.235" fill="white"/>
<path d="M147.092 129.667C147.058 129.667 147.025 129.663 146.991 129.653C144.88 128.995 142.941 127.963 141.234 126.589C139.025 124.811 137.257 122.472 136.128 119.827C136.071 119.69 136.108 119.532 136.225 119.434C138.639 117.455 141.082 115.432 143.482 113.415C144.467 112.589 145.445 111.765 146.42 110.939C146.561 110.818 146.773 110.838 146.894 110.979C147.015 111.12 146.995 111.332 146.853 111.453C145.879 112.28 144.897 113.103 143.912 113.93C141.573 115.892 139.197 117.861 136.847 119.79C137.94 122.24 139.6 124.404 141.657 126.061C143.244 127.338 145.032 128.306 146.981 128.941L155.844 118.678C155.965 118.537 156.177 118.523 156.318 118.644C156.46 118.765 156.473 118.977 156.352 119.118L147.344 129.549C147.28 129.623 147.186 129.667 147.089 129.667H147.092Z" fill="#27313A" stroke="#27313A" stroke-width="0.221194"/>
<path d="M168.318 111.575C168.173 111.575 168.039 111.477 167.995 111.333C167.945 111.154 168.045 110.97 168.224 110.916C169.171 110.644 170.15 110.375 171.134 110.116C171.786 109.945 172.395 109.79 172.949 109.649C174.593 109.229 176.153 108.832 176.485 108.553C175.736 107.713 175.205 107.313 174.657 107.172C173.07 106.766 170.681 107.784 169.988 108.106C167.43 109.293 164.479 109.998 161.212 110.203C161.024 110.214 160.866 110.076 160.856 109.888C160.846 109.699 160.984 109.541 161.172 109.531C164.355 109.333 167.229 108.648 169.709 107.498C170.664 107.055 173.077 106.073 174.828 106.524C175.531 106.705 176.173 107.179 177.043 108.167C177.141 108.281 177.191 108.399 177.198 108.537C177.228 109.256 176.109 109.541 173.121 110.304C172.566 110.445 171.961 110.6 171.309 110.771C170.328 111.03 169.353 111.299 168.412 111.568C168.382 111.578 168.348 111.581 168.318 111.581V111.575Z" fill="#27313A" stroke="#27313A" stroke-width="0.221194"/>
<path d="M88.5988 85.0763C88.5988 85.0763 93.1296 84.9285 97.4386 94.2168C99.8485 99.4827 109.784 127.418 112.849 135.026C112.849 135.026 124.755 126.178 130.233 122.667C134.764 119.743 137.026 117.619 137.026 117.619C137.026 117.619 141.117 113.523 142.723 114.474L152.585 122.663C152.585 122.663 154.117 124.199 152.511 125.953C151.704 126.82 137.325 142.551 127.356 151.866C123.45 155.515 118.331 157.589 112.987 157.686C104.238 157.844 96.2454 152.719 92.77 144.688C85.7922 128.568 78.2969 104.013 78.2969 104.013" fill="white"/>
<path d="M112.589 158.032C103.82 158.032 95.9513 152.884 92.4625 144.829C85.5587 128.873 78.0533 104.365 77.9793 104.12C77.9256 103.942 78.0264 103.753 78.2012 103.7C78.3793 103.643 78.5675 103.747 78.6213 103.921C78.6953 104.167 86.1906 128.641 93.0809 144.56C96.5127 152.49 104.331 157.504 112.982 157.356C118.253 157.262 123.277 155.226 127.129 151.627C133.062 146.082 141.841 137.046 151.854 126.181C152.066 125.949 152.207 125.798 152.271 125.731C153.608 124.269 152.482 123.039 152.351 122.905L142.537 114.756C141.512 114.201 138.769 116.359 137.27 117.861C137.24 117.891 134.924 120.045 130.42 122.952C125.012 126.416 113.174 135.211 113.053 135.298C112.969 135.362 112.861 135.379 112.76 135.352C112.66 135.325 112.579 135.251 112.539 135.154C111.218 131.884 108.646 124.898 105.924 117.504C102.277 107.598 98.5025 97.3517 97.1311 94.3609C92.9868 85.4321 88.6375 85.3985 88.6073 85.4153C88.4224 85.4287 88.2678 85.2741 88.2644 85.0893C88.2611 84.9045 88.4022 84.7499 88.5871 84.7465C88.782 84.7398 93.3868 84.6995 97.7428 94.0819C99.1243 97.0997 102.902 107.356 106.556 117.276C109.171 124.373 111.645 131.094 113.002 134.502C115.016 133.013 125.156 125.529 130.053 122.387C134.5 119.517 136.776 117.4 136.799 117.38C137.23 116.95 141.118 113.136 142.896 114.191C142.913 114.201 142.927 114.211 142.94 114.221L152.802 122.411C153.434 123.043 154.203 124.612 152.761 126.188C152.697 126.255 152.556 126.41 152.348 126.638C142.328 137.516 133.536 146.566 127.59 152.121C123.617 155.834 118.434 157.934 112.996 158.032C112.861 158.032 112.723 158.035 112.592 158.035L112.589 158.032Z" fill="#27313A" stroke="#27313A" stroke-width="0.221194"/>
<path d="M107.445 139.24C107.34 139.24 107.236 139.193 107.172 139.102C107.065 138.951 107.098 138.743 107.246 138.632L112.799 134.609C112.95 134.499 113.159 134.535 113.27 134.683C113.377 134.835 113.343 135.043 113.196 135.154L107.643 139.176C107.582 139.22 107.515 139.24 107.445 139.24Z" fill="#27313A" stroke="#27313A" stroke-width="0.221194"/>
<path d="M163.675 112.853C163.527 112.853 163.393 112.756 163.352 112.608C163.302 112.43 163.409 112.245 163.588 112.194L176.078 108.757C176.256 108.706 176.441 108.814 176.491 108.992C176.541 109.17 176.434 109.355 176.256 109.405L163.766 112.843C163.735 112.85 163.705 112.856 163.675 112.856V112.853Z" fill="#27313A" stroke="#27313A" stroke-width="0.221194"/>
<path d="M69.5632 101.801C69.4817 101.801 69.3953 101.782 69.3186 101.734C69.0884 101.6 69.0165 101.308 69.146 101.078C71.9275 96.3491 72.5845 88.396 70.7813 81.2909C70.719 81.0321 70.8724 80.7734 71.1266 80.7111C71.3856 80.6488 71.6446 80.8022 71.7069 81.0561C73.5964 88.5062 72.9106 96.56 69.9661 101.567C69.875 101.72 69.7166 101.801 69.5536 101.801H69.5632Z" fill="#27313A"/>
<path d="M31.4807 117.119C31.4807 117.119 31.3081 137.395 32.5693 146.876L27.0352 136.83L31.4759 117.119H31.4807Z" fill="#27313A"/>
<path d="M63.6562 73.6552C63.6562 73.6552 65.3443 87.5541 66.6104 96.5469C67.9484 106.163 79.1222 133.692 80.4602 151.802C81.7982 169.912 86.1575 195.267 86.1575 195.267C86.1575 195.267 101.053 194.213 110.759 184.453C110.759 184.453 97.8925 156.924 95.2932 145.904C92.694 134.88 100.703 120.694 98.6694 114.662C96.7032 108.553 90.4448 106.311 89.9556 100.825C89.4665 95.3491 91.9938 86.7108 87.9175 84.1141C83.8364 81.5173 72.6673 82.1497 71.2622 81.019C71.1902 80.9472 67.886 74.1391 63.6707 73.6504L63.6611 73.66L63.6562 73.6552Z" fill="white"/>
<path d="M86.1548 195.745C85.9246 195.745 85.7232 195.578 85.6848 195.348C85.6416 195.094 81.3063 169.763 79.9827 151.835C79.1627 140.71 74.5829 125.935 70.9094 114.062C68.6266 106.694 66.6556 100.327 66.1377 96.6134C64.886 87.7212 63.2028 73.8511 63.1836 73.7122C63.1644 73.5684 63.2171 73.4199 63.3226 73.3145L63.3322 73.3049C63.4329 73.1995 63.5768 73.1468 63.7255 73.166C67.303 73.578 70.1948 78.0193 71.5999 80.6305C71.6095 80.6496 71.6191 80.664 71.6287 80.6784C72.2042 81.009 74.4438 81.1862 76.6114 81.3587C80.6302 81.6797 85.6321 82.0774 88.1786 83.6967C91.2286 85.6371 90.8929 90.4473 90.5716 95.0947C90.4277 97.1596 90.2934 99.1048 90.4421 100.772C90.6819 103.498 92.4995 105.443 94.4177 107.499C96.2593 109.473 98.1679 111.514 99.1318 114.503C100.086 117.335 98.9688 121.709 97.6787 126.778C96.1202 132.891 94.3554 139.819 95.7653 145.784C98.3262 156.631 111.068 183.964 111.198 184.242C111.284 184.424 111.246 184.64 111.102 184.783C101.381 194.557 86.3466 195.726 86.1932 195.736C86.1836 195.736 86.1691 195.736 86.1596 195.736L86.1548 195.745ZM64.2099 74.2392C64.5599 77.0803 65.989 88.689 67.0824 96.4793C67.5908 100.12 69.5474 106.449 71.8206 113.78C75.5132 125.7 80.1075 140.528 80.9371 151.763C82.16 168.345 85.9726 191.299 86.5528 194.744C89.0322 194.476 101.635 192.736 110.181 184.347C108.766 181.295 97.2615 156.329 94.8253 146.009C93.3627 139.814 95.161 132.767 96.7436 126.548C97.9953 121.628 99.0791 117.383 98.2159 114.81C97.3143 112.017 95.4823 110.057 93.7127 108.16C91.6746 105.98 89.7515 103.92 89.483 100.863C89.3295 99.124 89.4734 97.0446 89.6125 95.0324C89.9194 90.6629 90.2311 86.145 87.6606 84.5112C85.3155 83.0164 80.4431 82.6331 76.5299 82.3217C73.3168 82.0678 71.6095 81.9097 70.9573 81.3875C70.9429 81.3779 70.9286 81.3635 70.919 81.3539C70.8614 81.2964 70.847 81.2677 70.7511 81.0904C68.7033 77.2863 66.3535 74.8381 64.2099 74.244V74.2392Z" fill="#27313A"/>
<path d="M69.5625 101.327C72.6605 96.0616 72.9387 87.8449 71.2506 81.1758L69.5625 101.327Z" fill="white"/>
<path d="M64.0791 157.404C63.0673 156.532 61.3935 153.044 60.9236 151.679C59.8253 148.488 59.8542 146.696 62.5157 144.622L65.9447 141.115L69.8483 131.873C71.2007 129.53 72.6921 128.193 73.3635 128.49C73.9966 128.768 74.0205 130.541 73.5122 132.649C73.2628 133.617 73.0183 134.58 72.7689 135.547C77.0898 133.741 81.473 132.088 86.6044 130.114C87.5395 129.755 88.5945 130.201 88.983 131.125C89.3714 132.055 88.9494 133.123 88.0287 133.53L79.5835 137.296L93.7547 134.005C94.7042 133.784 95.6586 134.335 95.9415 135.265C96.234 136.228 95.6969 137.248 94.7378 137.56L81.262 141.881L92.0666 140.928C93.0545 140.842 93.9322 141.541 94.0664 142.523C94.1863 143.414 93.6492 144.267 92.7908 144.54L83.1515 147.607L88.2828 146.917C89.0501 146.816 89.8175 147.247 90.0429 147.99C90.2827 148.795 89.8511 149.619 89.0933 149.892L76.4376 154.496L64.0887 157.399L64.0791 157.404Z" fill="white"/>
<path d="M64.0777 157.883C63.9626 157.883 63.8523 157.844 63.766 157.768C62.6055 156.771 60.9078 153.111 60.4714 151.836C59.354 148.588 59.3156 146.523 62.1978 144.266L65.5404 140.846L69.4105 131.685C69.4105 131.685 69.4249 131.647 69.4345 131.632C70.5806 129.649 72.3455 127.512 73.5588 128.049C74.868 128.624 74.211 131.8 73.9808 132.758L73.4724 134.732C76.815 133.352 80.1816 132.059 84.0325 130.583L86.4303 129.663C87.6148 129.208 88.9288 129.764 89.4228 130.938C89.9072 132.097 89.37 133.453 88.2239 133.966L84.3442 135.695L93.643 133.535C94.8323 133.257 96.0408 133.956 96.3957 135.125C96.7602 136.332 96.084 137.631 94.8803 138.014L85.4904 141.023L92.0173 140.448C93.2546 140.333 94.3671 141.219 94.535 142.455C94.6885 143.581 94.0123 144.65 92.9285 144.995L88.4397 146.422C88.4397 146.422 88.478 146.422 88.4972 146.422C89.4084 146.422 90.2333 147.002 90.4922 147.85C90.7991 148.88 90.2525 149.977 89.2454 150.342L76.5896 154.946C76.5896 154.946 76.556 154.96 76.5369 154.96L64.188 157.864C64.1497 157.873 64.1161 157.878 64.0777 157.878V157.883ZM70.2785 132.088L66.3844 141.301C66.3604 141.358 66.3269 141.406 66.2837 141.449L62.8548 144.956C62.8548 144.956 62.8213 144.985 62.8069 145C60.3083 146.945 60.3371 148.511 61.373 151.52C61.819 152.823 63.296 155.87 64.2216 156.872L76.2875 154.035L88.9145 149.446C89.4468 149.254 89.7345 148.674 89.5715 148.128C89.4228 147.635 88.8857 147.318 88.339 147.395L83.2076 148.085C82.9535 148.118 82.7281 147.956 82.6753 147.716C82.6226 147.472 82.7616 147.227 82.9966 147.155L92.6359 144.089C93.2737 143.888 93.6718 143.256 93.5807 142.594C93.48 141.866 92.8229 141.339 92.094 141.411L81.2894 142.364C81.0496 142.388 80.8242 142.221 80.7762 141.981C80.7283 141.742 80.8673 141.502 81.0975 141.43L94.5733 137.109C95.2783 136.883 95.6811 136.122 95.4653 135.408C95.2543 134.723 94.5446 134.311 93.8444 134.474L79.6732 137.765C79.4335 137.822 79.1889 137.684 79.1121 137.449C79.0354 137.214 79.1457 136.96 79.3711 136.859L87.8163 133.094C88.4925 132.792 88.809 131.992 88.5212 131.311C88.2335 130.622 87.4566 130.291 86.7564 130.564L84.3586 131.484C80.1768 133.089 76.5608 134.474 72.9353 135.992C72.7675 136.064 72.5756 136.031 72.4365 135.911C72.2975 135.791 72.2399 135.604 72.2831 135.432L73.0265 132.533C73.6067 130.138 73.3142 129.036 73.1463 128.93C72.8922 128.868 71.6405 129.706 70.2594 132.092L70.2785 132.088Z" fill="#27313A"/>
<path d="M9.583 98.195L0.706227 156.397C-0.368002 163.435 2.37513 170.516 7.90932 175C13.9471 179.892 22.2675 180.865 29.274 177.497L68.9101 158.423L61.5584 143.791L26.0465 156.382L33.0865 101.486C33.8682 95.3922 29.8591 89.71 23.8453 88.3972C17.1506 86.936 10.6141 91.43 9.583 98.195Z" fill="white"/>
<path d="M20.5847 179.95C15.9425 179.95 11.3291 178.393 7.60766 175.374C1.96316 170.804 -0.861483 163.502 0.231928 156.325L9.1087 98.1234C9.62664 94.7169 11.4778 91.7704 14.3168 89.8157C17.1558 87.8657 20.5751 87.195 23.9465 87.928C30.248 89.303 34.377 95.1577 33.5618 101.544L26.6225 155.669L61.4006 143.337C61.626 143.255 61.8802 143.356 61.9905 143.571L69.3422 158.203C69.3998 158.318 69.4094 158.452 69.3662 158.572C69.3231 158.692 69.2367 158.793 69.1216 158.85L29.4855 177.923C26.6656 179.279 23.6204 179.945 20.5895 179.945L20.5847 179.95ZM10.0582 98.2719L1.18146 156.474C0.136005 163.315 2.83118 170.272 8.21192 174.632C14.077 179.385 22.2632 180.338 29.0683 177.066L68.268 158.208L61.3239 144.391L26.2101 156.838C26.0518 156.895 25.8791 156.862 25.7496 156.761C25.6201 156.661 25.553 156.493 25.577 156.325L32.6171 101.429C33.3748 95.5362 29.5622 90.1367 23.7499 88.8671C20.6423 88.1915 17.4915 88.8096 14.8683 90.6062C12.2499 92.4077 10.5426 95.1242 10.063 98.2671L10.0582 98.2719Z" fill="#27313A"/>
<path d="M63.6352 160.87C63.4626 160.87 63.2947 160.774 63.2084 160.607L55.7128 145.927C55.5929 145.692 55.684 145.405 55.9238 145.285C56.1588 145.165 56.4465 145.256 56.5664 145.496L64.062 160.176C64.1819 160.41 64.0908 160.698 63.8511 160.818C63.7791 160.851 63.7071 160.87 63.6352 160.87Z" fill="#27313A"/>
<defs>
<clipPath id="clip0_421_21652">
<rect width="40" height="40" fill="white" transform="translate(140 35)"/>
</clipPath>
</defs>
</svg>
