<svg xmlns="http://www.w3.org/2000/svg" width="512" height="512" viewBox="0 0 512 512"><path fill-rule="evenodd" d="M256 41c118.327 0 215 96.673 215 215s-96.673 215-215 215S41 374.327 41 256 137.673 41 256 41zm0 33.506C156.179 74.506 74.506 156.18 74.506 256S156.18 437.494 256 437.494 437.494 355.82 437.494 256 355.82 74.506 256 74.506zm-.797 132.726c5.694 0 10.391 1.946 14.092 5.836 3.701 3.891 5.552 9.3 5.552 16.228v112.311c0 7.782-1.85 13.665-5.552 17.651-3.7 3.986-8.398 5.979-14.092 5.979-5.694 0-10.32-2.04-13.879-6.121-3.559-4.08-5.338-9.917-5.338-17.509V230.435c0-7.687 1.78-13.476 5.338-17.367 3.559-3.89 8.185-5.836 13.879-5.836zm.57-59.757c5.978 0 11.007 2.04 15.088 6.121 4.08 4.08 6.12 9.11 6.12 15.089 0 6.643-2.134 11.862-6.405 15.658-4.27 3.796-9.205 5.694-14.804 5.694-5.789 0-10.842-1.875-15.16-5.623s-6.476-8.992-6.476-15.73c0-5.978 2.087-11.007 6.263-15.088 4.175-4.08 9.3-6.12 15.373-6.12z"/></svg>