<svg xmlns="http://www.w3.org/2000/svg" width="512" height="512" viewBox="0 0 512 512"><path fill="var(--color-text-primary)" d="M381.123 284.479c-8.472-8.497-23.03-9.058-32.428-.429l-4.886 4.72c-8.971 8.662-27.936 26.976-30.197 29.055.34-.339.754-.624.458-.839-15.591 0-62.086-30.386-96.636-76.19-19.404-25.771-22.365-40.456-22.162-44.374l33.978-32.855c4.344-4.236 6.854-10.096 6.887-16.033.069-6.044-2.35-11.957-6.596-16.197L114.459 15.516c-4.265-4.327-10.216-6.831-16.503-6.876-6.053 0-11.796 2.316-16.206 6.541L66.486 29.974c-9.647 9.341-20.299 19.661-20.598 19.975l-1.256 1.265c-70.728 71.291-39.027 166.743 102.78 309.496 95.353 95.99 171.021 142.639 231.339 142.651h.004c16.725 0 32.469-3.63 46.803-10.784 14.854-7.423 25.483-17.274 32.466-23.734l2.147-1.969c.233-.204 35.226-33.806 36.918-35.595 8.473-8.947 8.302-22.819-.435-31.619L381.123 284.479zm63.309 165.58l-2.225 2.033c-6.433 5.96-15.24 14.112-27.137 20.058-11.203 5.602-23.085 8.322-36.315 8.322h-.004c-53.015-.016-125.278-45.695-214.778-135.793-189.13-190.401-128.614-251.4-102.8-277.423l1.23-1.232c.792-.783 11.038-10.708 20.33-19.717l15.14-14.793L212.99 147.245l-35.48 34.322c-11.782 12.274-3.813 39.521 21.311 72.902 35.534 47.103 87.237 85.413 115.251 85.413 4.156 0 7.9-.817 11.073-2.402 1.778-.886 3.385-2.011 4.507-3.12 2.022-1.844 21.276-20.438 30.383-29.225l4.599-4.572 115.644 114.95c-1.821 1.824-33.977 32.813-35.846 34.546z"/></svg>
