<svg xmlns="http://www.w3.org/2000/svg" viewBox="0 0 512 512"><path d="M133 341l57.7-91.9c4.5-5.9 4.2-14-.1-19.6l-42.2 4.7C165 159.4 213.5 83.3 282.9 83.3v-9.5C180 73.6 94.2 145.9 73.1 242.4l-58.4 6.4c-4.4 7-2.9 16.3 3.8 21.4l91.9 73.8c7.1 5.4 17.2 4.1 22.6-3zM501 93.6l-16.7-17.3-374.9 363 16.7 17.3 56.5-54.7c56.5 53.2 138.4 71.9 212.8 47.9l33.5 48.5c8.2.6 15.7-5.2 17-13.5l21.3-116c1.4-8.8-4.6-17-13.4-18.4l-108.3-7.2c-7.4-1.2-14.3 2.9-17.2 9.4l24.8 36c-52.1 15.9-112.8 19.1-156.3-.6l217.5-210.6c45.6 43.6 74.9 103.2 52.8 156.5l8.8 3.6c28.4-68.5 18.7-143.3-19.4-200.9l44.5-43zm-158 69.5l73.8-71.4c-2.1-1.8-4.3-3.6-6.5-5.3l13.6-60.5c-5.2-6.5-14.4-8-21.4-3.4l-99.7 62.9c-7.4 4.9-9.4 14.9-4.4 22.3l44.6 55.4z"/></svg>