<svg xmlns="http://www.w3.org/2000/svg" viewBox="0 0 512 512"><path d="M189.9 229.2l-42.5 4.7c16.7-75.4 65.6-152 135.5-152v-9.6c-103.5 0-190 72.8-211.3 170l-58.8 6.5c-4.5 7-2.9 16.4 3.8 21.5l92.6 74.4c7.1 5.4 17.3 4 22.7-3.1L190 249c4.6-6 4.3-14.1-.1-19.8zM455.2 351l-109.1-7.2c-7.4-1.2-14.4 2.9-17.3 9.5l25 36.2c-74.4 22.7-166.5 19.8-201.3-38.7l-8.2 4.9c52.5 88.4 158.2 125.6 252.1 95.4L430 500c8.3.6 15.8-5.2 17.1-13.6l21.5-116.8c1.5-8.9-4.6-17.2-13.4-18.6zm-44-265.9l13.7-61c-5.2-6.5-14.6-8.1-21.6-3.4L302.9 84.1c-7.5 5-9.5 15-4.5 22.5l68.6 85.1c4.2 6.3 11.9 8.6 18.7 6.3l8.8-39.2c57.2 44.5 99.5 114.2 74.1 175.6l8.8 3.7c38.1-91.8 8.3-194.6-66.2-253z"/></svg>