<svg xmlns="http://www.w3.org/2000/svg" width="512" height="512" viewBox="0 0 512 512"><path fill-rule="evenodd" d="M256 41c118.327 0 215 96.673 215 215s-96.673 215-215 215S41 374.327 41 256 137.673 41 256 41zm0 33.506C156.179 74.506 74.506 156.18 74.506 256S156.18 437.494 256 437.494 437.494 355.82 437.494 256 355.82 74.506 256 74.506zm2.836 240.596c5.978 0 11.008 2.04 15.088 6.121 4.08 4.08 6.121 9.11 6.121 15.089 0 6.643-2.135 11.862-6.405 15.658-4.27 3.796-9.205 5.694-14.804 5.694-5.79 0-10.842-1.874-15.16-5.623-4.318-3.748-6.477-8.991-6.477-15.73 0-5.978 2.088-11.007 6.263-15.088 4.176-4.08 9.3-6.12 15.374-6.12zm3.416-172.95c13.76 0 25.907 2.538 36.44 7.615 10.534 5.077 18.672 11.98 24.413 20.711 5.741 8.73 8.612 18.22 8.612 28.47 0 8.066-1.637 15.136-4.911 21.21-3.274 6.073-7.165 11.316-11.672 15.728-4.508 4.413-12.598 11.839-24.27 22.278-3.227 2.942-5.813 5.527-7.758 7.758-1.946 2.23-3.393 4.27-4.342 6.12a30.038 30.038 0 00-2.206 5.552c-.522 1.85-1.305 5.1-2.349 9.75-1.803 9.87-7.45 14.805-16.94 14.805-4.934 0-9.086-1.614-12.455-4.84-3.368-3.227-5.053-8.019-5.053-14.377 0-7.971 1.234-14.875 3.701-20.711 2.467-5.837 5.741-10.961 9.822-15.374 4.08-4.413 9.585-9.656 16.512-15.73 6.074-5.313 10.463-9.323 13.167-12.027a40.828 40.828 0 006.833-9.04c1.85-3.32 2.776-6.927 2.776-10.818 0-7.592-2.824-13.997-8.47-19.217-5.646-5.219-12.93-7.829-21.85-7.829-10.439 0-18.126 2.634-23.06 7.9-4.935 5.268-9.11 13.025-12.527 23.274-3.226 10.724-9.347 16.085-18.362 16.085-5.315 0-9.799-1.874-13.452-5.622-3.654-3.749-5.48-7.806-5.48-12.17 0-9.016 2.894-18.15 8.683-27.403 5.788-9.252 14.234-16.915 25.337-22.988 11.103-6.074 24.057-9.11 38.86-9.11z"/></svg>