<svg width="244" height="110" viewBox="0 0 244 110" fill="none" xmlns="http://www.w3.org/2000/svg">
	<path d="M54.2838 189.355C120.216 210.21 190.571 173.668 211.427 107.736C232.282 41.8043 195.74 -28.5509 129.808 -49.4064C63.8762 -70.262 -6.47901 -33.7202 -27.3345 32.2119C-48.1901 98.1439 -11.6483 168.499 54.2838 189.355Z" fill="url(#paint0_radial_4052_3690)" fill-opacity="0.6"/>
	<path opacity="0.65" d="M85.8979 15.6606C85.8979 15.6606 83.1787 22.4468 80.108 30.1297C77.3165 37.113 74.2349 44.8375 72.6416 48.882C70.2214 55.0231 75.1301 68.4112 75.1301 68.4112L67.4092 87.0407C67.2022 87.54 66.6833 87.8353 66.1486 87.759L57.9079 86.5799C57.6979 86.5502 57.49 86.6503 57.383 86.8346C57.2266 87.1041 57.3404 87.4499 57.6256 87.5737L75.8044 95.4825C76.0866 95.6053 76.4134 95.4577 76.5075 95.1644L76.5144 95.1426C76.5807 94.9375 76.5134 94.7116 76.3451 94.5769L69.9521 89.4285C69.5402 89.0966 69.3986 88.5318 69.6045 88.0444L77.4769 69.4436C77.4769 69.4436 90.954 63.9227 93.895 56.5619C95.9191 51.4958 99.7087 41.9769 102.656 34.5725C104.977 28.7395 106.775 24.2184 106.775 24.2184L85.8969 15.6606H85.8979Z" fill="#CECEF3"/>
	<path d="M77.4776 69.4436C77.4776 69.4436 90.9547 63.9227 93.8957 56.5619C95.9198 51.4958 99.7094 41.9769 102.656 34.5725L80.1077 30.1296C77.3162 37.113 74.2346 44.8374 72.6413 48.882C70.2212 55.0231 75.1298 68.4111 75.1298 68.4111L75.4655 69.3138C75.6388 69.7795 76.1665 70.0064 76.623 69.8102L77.4786 69.4446L77.4776 69.4436Z" fill="#F3D4B2"/>
	<path d="M77.4776 69.4436C77.4776 69.4436 90.9547 63.9227 93.8957 56.5619C95.9198 51.4958 99.7094 41.9769 102.656 34.5725L80.1077 30.1296C77.3162 37.113 74.2346 44.8374 72.6413 48.882C70.2212 55.0231 75.1298 68.4111 75.1298 68.4111L75.4655 69.3138C75.6388 69.7795 76.1665 70.0064 76.623 69.8102L77.4786 69.4446L77.4776 69.4436Z" fill="url(#paint1_linear_4052_3690)"/>
	<g opacity="0.35">
		<path d="M81.7165 34.0265C82.136 34.0265 82.4761 33.6863 82.4761 33.2666C82.4761 32.8468 82.136 32.5066 81.7165 32.5066C81.2971 32.5066 80.957 32.8468 80.957 33.2666C80.957 33.6863 81.2971 34.0265 81.7165 34.0265Z" fill="white"/>
		<path d="M81.7165 34.0265C82.136 34.0265 82.4761 33.6863 82.4761 33.2666C82.4761 32.8468 82.136 32.5066 81.7165 32.5066C81.2971 32.5066 80.957 32.8468 80.957 33.2666C80.957 33.6863 81.2971 34.0265 81.7165 34.0265Z" fill="url(#paint2_radial_4052_3690)"/>
		<path d="M98.6306 36.9604C99.0501 36.9604 99.3901 36.6201 99.3901 36.2004C99.3901 35.7807 99.0501 35.4404 98.6306 35.4404C98.2111 35.4404 97.8711 35.7807 97.8711 36.2004C97.8711 36.6201 98.2111 36.9604 98.6306 36.9604Z" fill="white"/>
		<path d="M98.6306 36.9604C99.0501 36.9604 99.3901 36.6201 99.3901 36.2004C99.3901 35.7807 99.0501 35.4404 98.6306 35.4404C98.2111 35.4404 97.8711 35.7807 97.8711 36.2004C97.8711 36.6201 98.2111 36.9604 98.6306 36.9604Z" fill="url(#paint3_radial_4052_3690)"/>
		<path d="M96.4897 41.7301C96.9748 41.7301 97.368 41.3367 97.368 40.8513C97.368 40.3659 96.9748 39.9724 96.4897 39.9724C96.0046 39.9724 95.6113 40.3659 95.6113 40.8513C95.6113 41.3367 96.0046 41.7301 96.4897 41.7301Z" fill="white"/>
		<path d="M96.4897 41.7301C96.9748 41.7301 97.368 41.3367 97.368 40.8513C97.368 40.3659 96.9748 39.9724 96.4897 39.9724C96.0046 39.9724 95.6113 40.3659 95.6113 40.8513C95.6113 41.3367 96.0046 41.7301 96.4897 41.7301Z" fill="url(#paint4_radial_4052_3690)"/>
		<path d="M95.4812 43.1392C95.7459 43.1392 95.9605 42.9245 95.9605 42.6596C95.9605 42.3948 95.7459 42.1801 95.4812 42.1801C95.2165 42.1801 95.002 42.3948 95.002 42.6596C95.002 42.9245 95.2165 43.1392 95.4812 43.1392Z" fill="white"/>
		<path d="M95.4812 43.1392C95.7459 43.1392 95.9605 42.9245 95.9605 42.6596C95.9605 42.3948 95.7459 42.1801 95.4812 42.1801C95.2165 42.1801 95.002 42.3948 95.002 42.6596C95.002 42.9245 95.2165 43.1392 95.4812 43.1392Z" fill="url(#paint5_radial_4052_3690)"/>
		<path d="M87.2168 44.6472C87.6095 44.6472 87.9278 44.3287 87.9278 43.9358C87.9278 43.5429 87.6095 43.2244 87.2168 43.2244C86.8242 43.2244 86.5059 43.5429 86.5059 43.9358C86.5059 44.3287 86.8242 44.6472 87.2168 44.6472Z" fill="white"/>
		<path d="M87.2168 44.6472C87.6095 44.6472 87.9278 44.3287 87.9278 43.9358C87.9278 43.5429 87.6095 43.2244 87.2168 43.2244C86.8242 43.2244 86.5059 43.5429 86.5059 43.9358C86.5059 44.3287 86.8242 44.6472 87.2168 44.6472Z" fill="url(#paint6_radial_4052_3690)"/>
		<path d="M81.4395 48.3707C81.8322 48.3707 82.1505 48.0522 82.1505 47.6593C82.1505 47.2664 81.8322 46.9479 81.4395 46.9479C81.0468 46.9479 80.7285 47.2664 80.7285 47.6593C80.7285 48.0522 81.0468 48.3707 81.4395 48.3707Z" fill="white"/>
		<path d="M81.4395 48.3707C81.8322 48.3707 82.1505 48.0522 82.1505 47.6593C82.1505 47.2664 81.8322 46.9479 81.4395 46.9479C81.0468 46.9479 80.7285 47.2664 80.7285 47.6593C80.7285 48.0522 81.0468 48.3707 81.4395 48.3707Z" fill="url(#paint7_radial_4052_3690)"/>
		<path d="M76.749 54.8595C77.2155 54.8595 77.5936 54.4811 77.5936 54.0144C77.5936 53.5476 77.2155 53.1692 76.749 53.1692C76.2825 53.1692 75.9043 53.5476 75.9043 54.0144C75.9043 54.4811 76.2825 54.8595 76.749 54.8595Z" fill="white"/>
		<path d="M76.749 54.8595C77.2155 54.8595 77.5936 54.4811 77.5936 54.0144C77.5936 53.5476 77.2155 53.1692 76.749 53.1692C76.2825 53.1692 75.9043 53.5476 75.9043 54.0144C75.9043 54.4811 76.2825 54.8595 76.749 54.8595Z" fill="url(#paint8_radial_4052_3690)"/>
		<path d="M78.1027 56.5579C78.4592 56.5579 78.7483 56.2687 78.7483 55.9119C78.7483 55.5551 78.4592 55.2659 78.1027 55.2659C77.7461 55.2659 77.457 55.5551 77.457 55.9119C77.457 56.2687 77.7461 56.5579 78.1027 56.5579Z" fill="white"/>
		<path d="M78.1027 56.5579C78.4592 56.5579 78.7483 56.2687 78.7483 55.9119C78.7483 55.5551 78.4592 55.2659 78.1027 55.2659C77.7461 55.2659 77.457 55.5551 77.457 55.9119C77.457 56.2687 77.7461 56.5579 78.1027 56.5579Z" fill="url(#paint9_radial_4052_3690)"/>
		<path d="M76.5861 64.4804C76.8655 64.4804 77.0921 64.2537 77.0921 63.9741C77.0921 63.6945 76.8655 63.4678 76.5861 63.4678C76.3066 63.4678 76.0801 63.6945 76.0801 63.9741C76.0801 64.2537 76.3066 64.4804 76.5861 64.4804Z" fill="white"/>
		<path d="M81.6398 59.6473C81.9964 59.6473 82.2854 59.358 82.2854 59.0012C82.2854 58.6445 81.9964 58.3552 81.6398 58.3552C81.2832 58.3552 80.9941 58.6445 80.9941 59.0012C80.9941 59.358 81.2832 59.6473 81.6398 59.6473Z" fill="white"/>
		<path d="M81.6398 59.6473C81.9964 59.6473 82.2854 59.358 82.2854 59.0012C82.2854 58.6445 81.9964 58.3552 81.6398 58.3552C81.2832 58.3552 80.9941 58.6445 80.9941 59.0012C80.9941 59.358 81.2832 59.6473 81.6398 59.6473Z" fill="url(#paint10_radial_4052_3690)"/>
	</g>
	<path d="M75.6884 71.3371C76.2677 71.6908 79.0651 73.3762 79.0631 73.4069L83.3885 73.7061C83.3915 73.6586 99.2461 71.8662 99.2461 71.8662C99.6026 71.8246 99.9254 71.6858 100.193 71.4798C100.221 71.458 100.246 71.4332 100.273 71.4104C100.32 71.3698 100.365 71.3272 100.408 71.2826C100.454 71.234 100.496 71.1835 100.536 71.13L98.4668 71.1934C97.7756 71.2142 97.1973 70.6712 97.1765 69.9797C97.1557 69.2881 97.6984 68.7104 98.3896 68.6886L100.392 68.6272C100.363 68.5984 100.33 68.5737 100.3 68.5459C100.213 68.4686 100.12 68.4003 100.02 68.3398C99.9819 68.317 99.9452 68.2923 99.9056 68.2715C99.6828 68.1575 84.347 67.0716 84.347 67.0716L78.6532 65.297C78.6502 65.2812 78.6472 65.2663 78.6443 65.2504L102.013 65.3446H102.041C102.539 65.3446 102.994 65.1524 103.337 64.8373L100.653 64.4538C99.969 64.3557 99.4927 63.7216 99.5907 63.036C99.6888 62.3513 100.323 61.8747 101.008 61.9728L103.613 62.3453C103.337 61.948 102.913 61.6547 102.404 61.5606L74.2674 56.5867L72.184 56.2181C72.0196 54.9875 71.9958 52.2191 71.9958 52.2191L61.4052 56.547L61.4072 56.55C60.0328 57.1663 58.7643 58.0313 57.678 59.1252L21.7344 95.1981C22.789 95.8669 44.9277 106.733 46.0853 107.204L62.8985 79.8027C64.4611 80.2773 66.0673 80.4279 67.6338 80.2822L77.5857 85.7268C78.0779 85.9973 78.574 86.1142 79.0235 86.0924V86.0964L82.2507 85.9547L82.4507 85.9458L91.345 85.5564C91.7332 85.5425 92.0847 85.3899 92.359 85.1502L90.2617 85.1204C89.5705 85.1105 89.017 84.5418 89.0269 83.8502C89.0368 83.1576 89.6052 82.6047 90.2964 82.6146L92.2917 82.6424C92.0788 82.4769 91.8253 82.359 91.5411 82.3164L84.756 81.4683L84.5728 81.4455L78.5997 80.6984L76.5212 78.9862" fill="#B77B61"/>
	<path d="M99.5909 63.0369C99.4929 63.7225 99.9692 64.3567 100.653 64.4548L103.337 64.8382L103.526 64.865C104.169 64.9571 104.76 64.541 104.912 63.9237C104.922 63.8831 104.936 63.8444 104.942 63.8018C105.04 63.1171 104.564 62.482 103.88 62.3839L103.613 62.3463L101.008 61.9737C100.323 61.8756 99.6889 62.3522 99.5909 63.0369Z" fill="#E498C0"/>
	<path d="M89.0275 83.8492C89.0176 84.5408 89.5701 85.1095 90.2623 85.1195L92.3596 85.1492L93.1637 85.1601C93.8549 85.17 94.4243 84.6171 94.4332 83.9245C94.4431 83.2329 93.8905 82.6632 93.1984 82.6543L92.2923 82.6414L90.297 82.6137C89.6058 82.6037 89.0374 83.1566 89.0275 83.8492Z" fill="#E498C0"/>
	<path d="M100.832 71.1211L100.887 71.1192L101.069 71.1132L101.296 71.1063L101.366 71.1043C101.452 71.1013 101.535 71.0904 101.616 71.0716C101.716 71.0478 101.808 71.0092 101.897 70.9636C101.948 70.9368 102 70.9091 102.047 70.8754C102.085 70.8487 102.117 70.8179 102.151 70.7872C102.195 70.7486 102.237 70.7099 102.274 70.6654C102.471 70.4365 102.59 70.1382 102.58 69.8123C102.578 69.7647 102.568 69.7191 102.561 69.6735C102.552 69.6131 102.542 69.5537 102.524 69.4962C102.366 68.9641 101.87 68.5807 101.289 68.5985L100.436 68.6243H100.392L98.3895 68.6867C97.6983 68.7085 97.1546 69.2861 97.1764 69.9777C97.1972 70.6693 97.7755 71.2133 98.4667 71.1915L100.536 71.1281H100.554L100.832 71.1192V71.1211Z" fill="#E498C0"/>
	<path d="M23.3304 89.1136L23.3264 89.1116L-1.9375 115.045L34.6359 135.312L52.675 104.647C52.675 104.647 25.7347 90.3957 23.3314 89.1136H23.3304Z" fill="#F4BBFB"/>
	<path d="M47.9165 98.9504C47.8561 97.6574 47.1283 96.4298 45.8955 95.7947C44.6626 95.1595 43.2416 95.2784 42.1544 95.9809C42.094 94.6879 41.3661 93.4603 40.1333 92.8251C38.9004 92.19 37.4794 92.3099 36.3922 93.0114C36.3318 91.7184 35.6039 90.4908 34.3711 89.8556C33.1383 89.2205 31.7173 89.3404 30.63 90.0419C30.5745 88.8549 29.9566 87.7254 28.902 87.0566C28.807 86.9961 28.7109 86.9387 28.6089 86.8861C26.773 85.9399 24.9629 86.7623 23.5716 88.4992C23.5597 88.5141 23.0111 89.3107 22.207 90.2609C27.0958 92.5656 52.6746 104.648 52.6746 104.648C52.9054 104.401 53.1084 104.122 53.2698 103.806C54.2154 101.969 53.4936 99.7124 51.6577 98.7661C51.5567 98.7136 51.4527 98.669 51.3497 98.6264C50.1931 98.1558 48.9147 98.3084 47.9165 98.9514V98.9504Z" fill="#F4BBFB"/>
	<path d="M103.313 63.2261C103.444 63.1171 103.589 63.0418 103.757 63.0141C103.682 62.8595 103.659 62.698 103.672 62.5266C103.54 62.6366 103.396 62.7119 103.227 62.7406C103.301 62.8942 103.325 63.0557 103.313 63.2261Z" fill="white"/>
	<path d="M100.856 69.6042C101.02 69.9034 101.082 70.2234 101.073 70.5653C101.326 70.3354 101.609 70.1719 101.942 70.0996C101.777 69.7984 101.717 69.4764 101.726 69.1345C101.473 69.3664 101.191 69.5299 100.855 69.6032L100.856 69.6042Z" fill="white"/>
	<path d="M93.214 84.8907C93.4467 84.641 93.7161 84.4557 94.0419 84.3566C93.8537 84.0693 93.7676 83.7532 93.7497 83.4124C93.517 83.664 93.2477 83.8503 92.9199 83.9494C93.1071 84.2347 93.1942 84.5488 93.213 84.8907H93.214Z" fill="white"/>
	<path d="M92.7413 83.5629C92.8581 83.438 92.9918 83.3449 93.1552 83.2964C93.0611 83.1527 93.0176 82.9951 93.0087 82.8237C92.8928 82.9496 92.7581 83.0427 92.5938 83.0922C92.6878 83.2349 92.7314 83.3925 92.7403 83.5629H92.7413Z" fill="white"/>
	<path d="M92.3567 72.6499C92.2062 72.9234 92.1171 73.4495 92.2042 73.7755C92.3835 74.4443 93.0707 74.8407 93.7381 74.6613L95.9374 74.0708L96.5405 73.9093C97.2089 73.7299 97.605 73.0423 97.4257 72.3745C97.4129 72.3279 97.3931 72.2863 97.3762 72.2427C97.3584 72.1971 97.3307 72.1298 97.3079 72.0872L92.3567 72.6509V72.6499Z" fill="#81C9EC"/>
	<path d="M95.7012 72.5647C95.9289 72.8184 96.0626 73.1166 96.1329 73.4505C96.326 73.1691 96.5637 72.9452 96.8716 72.7986C96.7132 72.6212 96.6033 72.4221 96.526 72.2061L96.1488 72.2526C96.018 72.3775 95.8715 72.4835 95.7022 72.5647H95.7012Z" fill="white"/>
	<path d="M79.0633 73.407L75.7351 71.2856L73.0664 74.2294L76.5204 78.9873L80.5566 80.208C81.1457 80.4141 81.7102 80.424 82.1746 80.2685C82.1845 80.2655 82.1924 80.2605 82.2023 80.2576L94.8566 75.1994C95.3804 74.9893 95.7577 74.5682 95.9389 74.0709L93.7396 74.6614C93.0712 74.8407 92.3849 74.4444 92.2057 73.7756C92.1186 73.4506 92.2077 72.9235 92.3582 72.65C92.3582 72.65 84.0749 73.4813 83.7689 73.4635L79.0643 73.406L79.0633 73.407Z" fill="#B77B61"/>
	<path d="M92.3567 72.6499C92.2062 72.9234 92.1171 73.4495 92.2042 73.7755C92.3835 74.4443 93.0707 74.8407 93.7381 74.6613L95.9374 74.0708L96.5405 73.9093C97.2089 73.7299 97.605 73.0423 97.4257 72.3745C97.4129 72.3279 97.3931 72.2863 97.3762 72.2427C97.3584 72.1971 97.3307 72.1298 97.3079 72.0872L92.3567 72.6509V72.6499Z" fill="#E498C0"/>
	<path d="M95.7012 72.5647C95.9289 72.8184 96.0626 73.1166 96.1329 73.4505C96.326 73.1691 96.5637 72.9452 96.8716 72.7986C96.7132 72.6212 96.6033 72.4221 96.526 72.2061L96.1488 72.2526C96.018 72.3775 95.8715 72.4835 95.7022 72.5647H95.7012Z" fill="white"/>
	<path d="M79.0633 73.407L75.7351 71.2856L73.0664 74.2294L76.5204 78.9873L80.5566 80.208C81.1457 80.4141 81.7102 80.424 82.1746 80.2685C82.1845 80.2655 82.1924 80.2605 82.2023 80.2576L94.8566 75.1994C95.3804 74.9893 95.7577 74.5682 95.9389 74.0709L93.7396 74.6614C93.0712 74.8407 92.3849 74.4444 92.2057 73.7756C92.1186 73.4506 92.2077 72.9235 92.3582 72.65C92.3582 72.65 84.0749 73.4813 83.7689 73.4635L79.0643 73.406L79.0633 73.407Z" fill="#B77B61"/>
	<path d="M92.3565 72.65L79.0626 73.407L75.7344 71.2856L78.713 74.2452L92.3565 72.65Z" fill="#AA6B55"/>
	<path d="M86.9771 20.6484C87.2662 20.3819 87.6138 20.1966 88.0535 20.1232C87.7534 19.7547 87.591 19.3663 87.5207 18.9561C87.2316 19.2246 86.884 19.4108 86.4434 19.4852C86.7414 19.8518 86.9048 20.2382 86.9771 20.6484Z" fill="white"/>
	<path d="M85.5019 24.7515C85.9228 24.3641 86.4278 24.0955 87.0665 23.9885C86.6308 23.4535 86.3951 22.8887 86.2921 22.2922C85.8723 22.6826 85.3672 22.9531 84.7266 23.0621C85.1593 23.5942 85.3979 24.156 85.5029 24.7525L85.5019 24.7515Z" fill="white"/>
	<path d="M143.088 78.6958L141.778 91.2971C141.64 92.6199 142.709 93.7563 144.037 93.6989C145.003 93.6573 145.826 92.9835 146.057 92.0442L148.742 81.1461L143.088 78.6958Z" fill="#D67B69"/>
	<path d="M148.742 81.1451L155.665 78.6958L150.047 74.5264L143.088 78.6958L148.742 81.1451Z" fill="#C7685D"/>
	<path d="M140.8 71.527L149.365 70.8552L142.972 82.004L137.316 79.5537L140.8 71.527Z" fill="#D67B69"/>
	<path d="M137.316 79.5537L136.006 92.155C135.868 93.4778 136.938 94.6142 138.266 94.5568C139.231 94.5152 140.054 93.8414 140.286 92.9021L142.97 82.004L137.316 79.5537Z" fill="#D67B69"/>
	<path d="M132.654 75.4141L143.852 70.7156L144.363 76.9726L135.623 80.818L132.654 75.4141Z" fill="#EB9A80"/>
	<path d="M132.654 75.4141L123.901 84.5693C122.982 85.5304 123.131 87.084 124.216 87.8529C125.005 88.4117 126.068 88.384 126.826 87.7835L135.622 80.818L132.655 75.415L132.654 75.4141Z" fill="#EB9A80"/>
	<path d="M144.363 76.9726L152.237 80.4811L156.617 73.9546L143.852 70.7156L144.363 76.9726Z" fill="#D67B69"/>
	<path d="M130.11 85.1826L125.193 83.2177L126.715 81.6255L130.11 85.1826Z" fill="#D67B69"/>
	<path d="M130.354 68.9251L140.8 66.99L141.31 73.248L132.457 74.7204L130.354 68.9251Z" fill="#EB9A80"/>
	<path d="M130.353 68.925L120.299 76.6267C119.243 77.4352 119.152 78.9928 120.106 79.9192C120.799 80.593 121.855 80.7287 122.695 80.2522L132.456 74.7204L130.353 68.925Z" fill="#EB9A80"/>
	<path d="M166.209 96.374L190.096 124.989L209.099 106.616L179.208 83.5735L159.94 68.3178C158.252 66.9811 156.139 66.2995 153.989 66.3966L140.798 66.9911L135.668 74.1567" fill="#EB9A80"/>
	<path d="M129.57 76.3555L122.963 80.1008L124.05 76.837L125.774 75.7124L129.57 76.3555Z" fill="#D67B69"/>
	<path d="M159.94 68.3178C158.253 66.9811 156.14 66.2995 153.99 66.3966L140.799 66.9911L141.31 73.2481L149.224 72.7071C150.223 72.6388 151.174 73.15 151.668 74.021L155.365 80.5346" fill="#EB9A80"/>
	<path opacity="0.65" d="M137.686 25.5508C137.686 25.5508 138.371 32.7283 139.14 40.8521C139.838 48.2357 140.604 56.4021 140.987 60.6716C141.567 67.1555 132.699 78.3013 132.699 78.3013L134.836 98.0811C134.894 98.6112 135.322 99.0412 135.876 99.1264L144.425 100.435C144.643 100.469 144.82 100.625 144.87 100.829C144.946 101.128 144.73 101.419 144.409 101.453L123.97 103.556C123.653 103.589 123.372 103.354 123.365 103.051V103.029C123.36 102.816 123.494 102.625 123.702 102.547L131.593 99.5812C132.102 99.39 132.411 98.9006 132.351 98.3824L130.055 78.5857C130.055 78.5857 118.291 69.4413 117.557 61.6594C117.051 56.303 116.114 46.2422 115.386 38.4156C114.813 32.2507 114.369 27.473 114.369 27.473L137.685 25.5508H137.686Z" fill="#CECEF3"/>
	<path d="M130.056 78.5857C130.056 78.5857 118.292 69.4414 117.557 61.6594C117.051 56.303 116.115 46.2422 115.387 38.4156L139.141 40.8531C139.839 48.2367 140.605 56.4031 140.987 60.6725C141.568 67.1565 132.7 78.3023 132.7 78.3023L132.098 79.0523C131.787 79.4398 131.195 79.4982 130.799 79.1802L130.057 78.5847L130.056 78.5857Z" fill="#F3D4B2"/>
	<path d="M130.056 78.5857C130.056 78.5857 118.292 69.4414 117.557 61.6594C117.051 56.303 116.115 46.2422 115.387 38.4156L139.141 40.8531C139.839 48.2367 140.605 56.4031 140.987 60.6725C141.568 67.1565 132.7 78.3023 132.7 78.3023L132.098 79.0523C131.787 79.4398 131.195 79.4982 130.799 79.1802L130.057 78.5847L130.056 78.5857Z" fill="url(#paint11_linear_4052_3690)"/>
	<g opacity="0.35">
		<path d="M137.393 43.4144C137.437 43.0036 137.121 42.6331 136.687 42.5869C136.254 42.5407 135.867 42.8363 135.823 43.2471C135.78 43.6579 136.095 44.0284 136.529 44.0746C136.962 44.1208 137.349 43.8252 137.393 43.4144Z" fill="white"/>
		<path d="M137.393 43.4144C137.437 43.0036 137.121 42.6331 136.687 42.5869C136.254 42.5407 135.867 42.8363 135.823 43.2471C135.78 43.6579 136.095 44.0284 136.529 44.0746C136.962 44.1208 137.349 43.8252 137.393 43.4144Z" fill="url(#paint12_radial_4052_3690)"/>
		<path d="M119.692 41.2116C119.735 40.8008 119.42 40.4303 118.986 40.3841C118.553 40.3379 118.166 40.6335 118.122 41.0444C118.078 41.4552 118.394 41.8257 118.828 41.8718C119.261 41.918 119.648 41.6225 119.692 41.2116Z" fill="white"/>
		<path d="M119.692 41.2116C119.735 40.8008 119.42 40.4303 118.986 40.3841C118.553 40.3379 118.166 40.6335 118.122 41.0444C118.078 41.4552 118.394 41.8257 118.828 41.8718C119.261 41.918 119.648 41.6225 119.692 41.2116Z" fill="url(#paint13_radial_4052_3690)"/>
		<path d="M120.562 46.2243C120.612 45.7492 120.247 45.3208 119.745 45.2674C119.244 45.2139 118.796 45.5557 118.746 46.0307C118.695 46.5058 119.061 46.9342 119.562 46.9876C120.064 47.0411 120.511 46.6993 120.562 46.2243Z" fill="white"/>
		<path d="M120.562 46.2243C120.612 45.7492 120.247 45.3208 119.745 45.2674C119.244 45.2139 118.796 45.5557 118.746 46.0307C118.695 46.5058 119.061 46.9342 119.562 46.9876C120.064 47.0411 120.511 46.6993 120.562 46.2243Z" fill="url(#paint14_radial_4052_3690)"/>
		<path d="M120.615 48.1769C120.642 47.9179 120.443 47.6843 120.169 47.6551C119.896 47.626 119.652 47.8123 119.624 48.0713C119.597 48.3303 119.796 48.5639 120.07 48.5931C120.343 48.6222 120.587 48.4359 120.615 48.1769Z" fill="white"/>
		<path d="M120.615 48.1769C120.642 47.9179 120.443 47.6843 120.169 47.6551C119.896 47.626 119.652 47.8123 119.624 48.0713C119.597 48.3303 119.796 48.5639 120.07 48.5931C120.343 48.6222 120.587 48.4359 120.615 48.1769Z" fill="url(#paint15_radial_4052_3690)"/>
		<path d="M128.694 51.8257C128.735 51.441 128.439 51.0941 128.033 51.0509C127.628 51.0076 127.265 51.2844 127.225 51.6691C127.184 52.0538 127.479 52.4008 127.885 52.444C128.291 52.4872 128.653 52.2104 128.694 51.8257Z" fill="white"/>
		<path d="M128.694 51.8257C128.735 51.441 128.439 51.0941 128.033 51.0509C127.628 51.0076 127.265 51.2844 127.225 51.6691C127.184 52.0538 127.479 52.4008 127.885 52.444C128.291 52.4872 128.653 52.2104 128.694 51.8257Z" fill="url(#paint16_radial_4052_3690)"/>
		<path d="M133.332 57.0213C133.373 56.6366 133.078 56.2897 132.672 56.2464C132.266 56.2032 131.904 56.48 131.863 56.8647C131.822 57.2494 132.118 57.5963 132.524 57.6396C132.929 57.6828 133.291 57.406 133.332 57.0213Z" fill="white"/>
		<path d="M133.332 57.0213C133.373 56.6366 133.078 56.2897 132.672 56.2464C132.266 56.2032 131.904 56.48 131.863 56.8647C131.822 57.2494 132.118 57.5963 132.524 57.6396C132.929 57.6828 133.291 57.406 133.332 57.0213Z" fill="url(#paint17_radial_4052_3690)"/>
		<path d="M136.247 64.3864C136.296 63.9293 135.945 63.5172 135.463 63.4658C134.981 63.4145 134.551 63.7434 134.502 64.2005C134.454 64.6575 134.805 65.0697 135.286 65.1211C135.768 65.1724 136.198 64.8435 136.247 64.3864Z" fill="white"/>
		<path d="M136.247 64.3864C136.296 63.9293 135.945 63.5172 135.463 63.4658C134.981 63.4145 134.551 63.7434 134.502 64.2005C134.454 64.6575 134.805 65.0697 135.286 65.1211C135.768 65.1724 136.198 64.8435 136.247 64.3864Z" fill="url(#paint18_radial_4052_3690)"/>
		<path d="M134.131 65.7522C134.168 65.4029 133.899 65.0878 133.531 65.0485C133.162 65.0092 132.833 65.2606 132.796 65.6099C132.759 65.9592 133.027 66.2743 133.396 66.3136C133.765 66.3529 134.094 66.1016 134.131 65.7522Z" fill="white"/>
		<path d="M134.131 65.7522C134.168 65.4029 133.899 65.0878 133.531 65.0485C133.162 65.0092 132.833 65.2606 132.796 65.6099C132.759 65.9592 133.027 66.2743 133.396 66.3136C133.765 66.3529 134.094 66.1016 134.131 65.7522Z" fill="url(#paint19_radial_4052_3690)"/>
		<path d="M133.095 73.7614C133.124 73.4877 132.913 73.2408 132.624 73.2101C132.336 73.1793 132.078 73.3762 132.049 73.6499C132.02 73.9236 132.23 74.1705 132.519 74.2012C132.808 74.232 133.065 74.0351 133.095 73.7614Z" fill="white"/>
		<path d="M129.692 67.6194C129.729 67.2701 129.46 66.955 129.091 66.9157C128.723 66.8764 128.394 67.1277 128.356 67.4771C128.319 67.8264 128.588 68.1415 128.957 68.1808C129.325 68.2201 129.654 67.9687 129.692 67.6194Z" fill="white"/>
		<path d="M129.692 67.6194C129.729 67.2701 129.46 66.955 129.091 66.9157C128.723 66.8764 128.394 67.1277 128.356 67.4771C128.319 67.8264 128.588 68.1415 128.957 68.1808C129.325 68.2201 129.654 67.9687 129.692 67.6194Z" fill="url(#paint20_radial_4052_3690)"/>
	</g>
	<path d="M243.589 128.307L185.824 78.9878L168.189 105.775L218.643 168.342L243.589 128.307Z" fill="#55A967"/>
	<path d="M175.073 108.319C176.362 108.319 177.406 107.274 177.406 105.985C177.406 104.696 176.362 103.65 175.073 103.65C173.785 103.65 172.74 104.696 172.74 105.985C172.74 107.274 173.785 108.319 175.073 108.319Z" fill="#F9FAFF"/>
	<path d="M175.073 108.319C176.362 108.319 177.406 107.274 177.406 105.985C177.406 104.696 176.362 103.65 175.073 103.65C173.785 103.65 172.74 104.696 172.74 105.985C172.74 107.274 173.785 108.319 175.073 108.319Z" fill="white"/>
	<path d="M133.381 77.1598L148.249 74.0437L159.53 88.914L145.254 87.5506L133.381 77.1598Z" fill="#D67B69"/>
	<path d="M142.957 90.3169C142.957 90.3169 159.859 96.9416 166.21 96.3748C164.055 88.3194 158.5 76.7466 158.5 76.7466C158.5 76.7466 153.068 79.3554 149.434 80.263C145.12 86.5775 142.958 90.3169 142.958 90.3169H142.957Z" fill="#EB9A80"/>
	<path d="M149.433 80.2631L126.05 75.743C125.013 75.5428 124.016 76.283 123.938 77.3372C123.777 79.4962 124.88 83.1335 132.499 86.2933C140.011 89.4074 142.957 90.317 142.957 90.317C142.957 90.317 148.653 90.6727 150.833 87.728C154.166 83.2257 149.434 80.2631 149.434 80.2631H149.433Z" fill="#EB9A80"/>
	<path d="M131.793 76.8537C131.626 77.47 131.365 78.446 131.038 79.7004C130.734 80.8715 129.433 81.4749 128.346 80.9448C126.886 80.2314 125.599 79.0315 125.128 78.0486C124.821 77.4096 124.759 76.8408 124.808 76.3692C124.826 76.1938 124.877 76.0293 124.951 75.8817C125.282 75.7252 125.664 75.6687 126.051 75.744L131.793 76.8537Z" fill="#F2D3CF"/>
	<path d="M170.554 26.5759C162.938 26.5759 156.762 20.3996 156.762 12.7834C156.771 20.3996 150.595 26.5759 142.979 26.5759V26.558C150.595 26.558 156.771 32.7343 156.771 40.3504C156.771 32.7343 162.947 26.558 170.563 26.558" fill="#C78CD3"/>
	<path d="M172.93 43.386C168.467 43.386 164.848 39.7669 164.848 35.3042C164.853 39.7669 161.234 43.386 156.771 43.386V43.3755C161.234 43.3755 164.853 46.9945 164.853 51.4573C164.853 46.9945 168.472 43.3755 172.935 43.3755" fill="#C78CD3"/>
	<path d="M42.911 58.9813C46.3211 58.9813 49.0864 61.7467 49.0864 65.1567C49.0824 61.7467 51.8478 58.9813 55.2578 58.9813V58.9894C51.8478 58.9894 49.0824 56.224 49.0824 52.814C49.0824 56.224 46.317 58.9894 42.907 58.9894" fill="#C78CD3"/>
	<path d="M41.8493 51.455C43.8474 51.455 45.4678 53.0754 45.4678 55.0735C45.4655 53.0754 47.0859 51.455 49.084 51.455V51.4597C47.0859 51.4597 45.4655 49.8393 45.4655 47.8412C45.4655 49.8393 43.8451 51.4597 41.8469 51.4597" fill="#C78CD3"/>
	<defs>
		<radialGradient id="paint0_radial_4052_3690" cx="0" cy="0" r="1" gradientUnits="userSpaceOnUse" gradientTransform="translate(242.731 32.5109) rotate(-10.4195) scale(238.881)">
			<stop offset="0.268299" stop-color="#21215D"/>
			<stop offset="1" stop-color="#333367" stop-opacity="0"/>
		</radialGradient>
		<linearGradient id="paint1_linear_4052_3690" x1="99.6094" y1="12.5375" x2="80.3188" y2="59.6224" gradientUnits="userSpaceOnUse">
			<stop stop-color="#F8DBA7"/>
			<stop offset="0.25" stop-color="#F4D198"/>
			<stop offset="0.72" stop-color="#EBB771"/>
			<stop offset="1" stop-color="#E6A657"/>
		</linearGradient>
		<radialGradient id="paint2_radial_4052_3690" cx="0" cy="0" r="1" gradientUnits="userSpaceOnUse" gradientTransform="translate(82.0484 34.6749) rotate(10.9063) scale(2.31622 2.31749)">
			<stop stop-color="#F3CD50"/>
			<stop offset="1" stop-color="white" stop-opacity="0"/>
		</radialGradient>
		<radialGradient id="paint3_radial_4052_3690" cx="0" cy="0" r="1" gradientUnits="userSpaceOnUse" gradientTransform="translate(99.6901 35.8728) rotate(10.9063) scale(1.95675 1.95783)">
			<stop stop-color="#F3CD50"/>
			<stop offset="1" stop-color="white" stop-opacity="0"/>
		</radialGradient>
		<radialGradient id="paint4_radial_4052_3690" cx="0" cy="0" r="1" gradientUnits="userSpaceOnUse" gradientTransform="translate(96.5169 42.2738) rotate(10.9063) scale(2.35879 2.3601)">
			<stop stop-color="#F3CD50"/>
			<stop offset="1" stop-color="white" stop-opacity="0"/>
		</radialGradient>
		<radialGradient id="paint5_radial_4052_3690" cx="0" cy="0" r="1" gradientUnits="userSpaceOnUse" gradientTransform="translate(95.3019 43.5393) rotate(10.9064) scale(1.31011 1.31084)">
			<stop stop-color="#F3CD50"/>
			<stop offset="1" stop-color="white" stop-opacity="0"/>
		</radialGradient>
		<radialGradient id="paint6_radial_4052_3690" cx="0" cy="0" r="1" gradientUnits="userSpaceOnUse" gradientTransform="translate(88.4466 42.9582) rotate(10.9063) scale(2.28453 2.28579)">
			<stop stop-color="#F3CD50"/>
			<stop offset="1" stop-color="white" stop-opacity="0"/>
		</radialGradient>
		<radialGradient id="paint7_radial_4052_3690" cx="0" cy="0" r="1" gradientUnits="userSpaceOnUse" gradientTransform="translate(80.4871 48.5632) rotate(10.9063) scale(1.95576 1.95684)">
			<stop stop-color="#F3CD50"/>
			<stop offset="1" stop-color="white" stop-opacity="0"/>
		</radialGradient>
		<radialGradient id="paint8_radial_4052_3690" cx="0" cy="0" r="1" gradientUnits="userSpaceOnUse" gradientTransform="translate(75.8195 54.7189) rotate(10.9063) scale(2.21719 2.21841)">
			<stop stop-color="#F3CD50"/>
			<stop offset="1" stop-color="white" stop-opacity="0"/>
		</radialGradient>
		<radialGradient id="paint9_radial_4052_3690" cx="0" cy="0" r="1" gradientUnits="userSpaceOnUse" gradientTransform="translate(78.6594 54.9907) rotate(10.9063) scale(1.95179 1.95287)">
			<stop stop-color="#F3CD50"/>
			<stop offset="1" stop-color="white" stop-opacity="0"/>
		</radialGradient>
		<radialGradient id="paint10_radial_4052_3690" cx="0" cy="0" r="1" gradientUnits="userSpaceOnUse" gradientTransform="translate(81.3119 60.2967) rotate(10.9063) scale(2.03498 2.0361)">
			<stop stop-color="#F3CD50"/>
			<stop offset="1" stop-color="white" stop-opacity="0"/>
		</radialGradient>
		<linearGradient id="paint11_linear_4052_3690" x1="125.444" y1="21.7856" x2="130.053" y2="68.4896" gradientUnits="userSpaceOnUse">
			<stop stop-color="#F8DBA7"/>
			<stop offset="0.25" stop-color="#F4D198"/>
			<stop offset="0.72" stop-color="#EBB771"/>
			<stop offset="1" stop-color="#E6A657"/>
		</linearGradient>
		<radialGradient id="paint12_radial_4052_3690" cx="0" cy="0" r="1" gradientUnits="userSpaceOnUse" gradientTransform="translate(135.875 44.7569) rotate(-173.916) scale(2.40718 2.27477)">
			<stop stop-color="#F3CD50"/>
			<stop offset="1" stop-color="white" stop-opacity="0"/>
		</radialGradient>
		<radialGradient id="paint13_radial_4052_3690" cx="0" cy="0" r="1" gradientUnits="userSpaceOnUse" gradientTransform="translate(117.959 40.7137) rotate(-173.916) scale(2.03376 1.92189)">
			<stop stop-color="#F3CD50"/>
			<stop offset="1" stop-color="white" stop-opacity="0"/>
		</radialGradient>
		<radialGradient id="paint14_radial_4052_3690" cx="0" cy="0" r="1" gradientUnits="userSpaceOnUse" gradientTransform="translate(119.214 47.6457) rotate(-173.916) scale(2.45174 2.31687)">
			<stop stop-color="#F3CD50"/>
			<stop offset="1" stop-color="white" stop-opacity="0"/>
		</radialGradient>
		<radialGradient id="paint15_radial_4052_3690" cx="0" cy="0" r="1" gradientUnits="userSpaceOnUse" gradientTransform="translate(120.048 49.1888) rotate(-173.916) scale(1.36178 1.28688)">
			<stop stop-color="#F3CD50"/>
			<stop offset="1" stop-color="white" stop-opacity="0"/>
		</radialGradient>
		<radialGradient id="paint16_radial_4052_3690" cx="0" cy="0" r="1" gradientUnits="userSpaceOnUse" gradientTransform="translate(127.041 50.6505) rotate(-173.916) scale(2.37421 2.24361)">
			<stop stop-color="#F3CD50"/>
			<stop offset="1" stop-color="white" stop-opacity="0"/>
		</radialGradient>
		<radialGradient id="paint17_radial_4052_3690" cx="0" cy="0" r="1" gradientUnits="userSpaceOnUse" gradientTransform="translate(133.296 58.2386) rotate(-173.916) scale(2.03287 1.92103)">
			<stop stop-color="#F3CD50"/>
			<stop offset="1" stop-color="white" stop-opacity="0"/>
		</radialGradient>
		<radialGradient id="paint18_radial_4052_3690" cx="0" cy="0" r="1" gradientUnits="userSpaceOnUse" gradientTransform="translate(136.113 65.3779) rotate(-173.916) scale(2.3047 2.17792)">
			<stop stop-color="#F3CD50"/>
			<stop offset="1" stop-color="white" stop-opacity="0"/>
		</radialGradient>
		<radialGradient id="paint19_radial_4052_3690" cx="0" cy="0" r="1" gradientUnits="userSpaceOnUse" gradientTransform="translate(133.207 64.8021) rotate(-173.916) scale(2.02841 1.91683)">
			<stop stop-color="#F3CD50"/>
			<stop offset="1" stop-color="white" stop-opacity="0"/>
		</radialGradient>
		<radialGradient id="paint20_radial_4052_3690" cx="0" cy="0" r="1" gradientUnits="userSpaceOnUse" gradientTransform="translate(128.989 69.0015) rotate(-173.916) scale(2.11486 1.99852)">
			<stop stop-color="#F3CD50"/>
			<stop offset="1" stop-color="white" stop-opacity="0"/>
		</radialGradient>
	</defs>
</svg>
