<svg width="141" height="110" viewBox="0 0 141 110" fill="none" xmlns="http://www.w3.org/2000/svg">
<mask id="mask0_943_5570" style="mask-type:luminance" maskUnits="userSpaceOnUse" x="0" y="0" width="141" height="110">
<path d="M120.099 22.3018C115.91 21.1755 111.451 21.6509 107.558 23.5649C100.81 26.8818 86.0561 32.3229 84.6765 17.3299C83.0171 -0.701521 45.469 -5.97545 31.4389 7.79565C14.3705 24.5481 30.7438 36.4312 16.8771 43.7559C3.01038 51.0805 -8.25607 70.5206 8.08425 78.9171C18.665 84.3544 27.9099 83.2173 28.676 88.7084C30.122 99.0701 29.8258 105.33 39.3302 108.209C57.304 113.653 61.998 103.546 73.1954 101.785C84.3929 100.024 125.708 115.317 139.504 90.6793C147.82 75.8268 118.375 61.9937 126.73 53.9017C135.622 45.2887 134.826 26.262 120.099 22.3024V22.3018Z" fill="white"/>
</mask>
<g mask="url(#mask0_943_5570)">
<path d="M120.099 22.3018C115.91 21.1755 111.451 21.6509 107.558 23.5649C100.81 26.8818 86.0561 32.3229 84.6765 17.3299C83.0171 -0.701521 45.469 -5.97545 31.4389 7.79565C14.3705 24.5481 30.7438 36.4312 16.8771 43.7559C3.01038 51.0805 -8.25607 70.5206 8.08425 78.9171C18.665 84.3544 27.9099 83.2173 28.676 88.7084C30.122 99.0701 29.8258 105.33 39.3302 108.209C57.304 113.653 61.998 103.546 73.1954 101.785C84.3929 100.024 125.708 115.317 139.504 90.6793C147.82 75.8268 118.375 61.9937 126.73 53.9017C135.622 45.2887 134.826 26.262 120.099 22.3024V22.3018Z" fill="#1B4768"/>
<path d="M46.8418 83.1964C49.3262 84.2537 55.6284 84.6823 62.2882 84.788C64.7549 84.8292 67.2747 84.8235 69.659 84.7937C75.5439 84.7114 80.6596 84.4531 82.3981 84.2473C82.4804 84.2353 82.5741 84.2182 82.6685 84.1948H82.6742C82.9211 84.1359 83.2085 84.0302 83.5378 83.8896C87.3498 82.2277 96.1889 75.4203 98.7315 72.9714C101.087 70.7042 106.337 63.4036 106.337 63.4036C106.472 61.5714 102.39 61.0661 98.508 65.5353C98.2611 65.8171 94.7846 67.9551 92.4705 69.3708C92.4237 69.3942 92.3768 69.4234 92.3293 69.4531C92.1413 69.5646 91.9653 69.676 91.8007 69.776C91.0662 70.2224 90.5439 70.5339 90.4325 70.6041C90.5262 70.5161 90.8788 70.2167 91.3898 69.788C91.5069 69.688 91.6304 69.5823 91.7595 69.4709C91.8007 69.4354 91.8418 69.3942 91.8887 69.3594C93.557 67.9324 96.1762 65.6772 97.1569 64.7022C98.596 63.2751 103.194 56.9673 102.178 56.462C99.4647 55.1287 96.4693 58.8052 93.4272 61.8537C92.3699 62.9111 87.1719 66.0001 85.3631 67.4271C86.4964 66.2641 88.8516 63.7917 89.5626 62.6641C90.5085 61.1548 92.0292 57.3604 91.3125 57.1376C90.0026 56.7324 88.8225 57.7308 85.9911 61.3371C83.6004 64.3793 77.663 66.2413 76.1714 67.1808C73.176 69.0606 67.1265 67.7152 57.4885 67.5981C56.6369 67.586 55.8556 67.6272 55.1453 67.7095V67.7152C45.9593 68.7782 47.4693 77.1475 45.7719 81.8814C45.5838 82.4043 45.989 82.8386 46.8406 83.197L46.8418 83.1964Z" fill="#FFCFBF"/>
<path d="M83.9947 64.0045C83.9947 64.0045 86.5354 58.8736 83.9947 59.703C81.454 60.5324 76.715 67.9571 71.0764 68.166L74.3503 70.1426L83.9947 64.0045Z" fill="#FFCFBF"/>
<path d="M93.4222 41.0955H51.2073C49.4314 41.0955 47.9917 42.5351 47.9917 44.3111V69.4841C47.9917 71.2601 49.4314 72.6998 51.2073 72.6998H93.4222C95.1982 72.6998 96.6378 71.2601 96.6378 69.4841V44.3111C96.6378 42.5351 95.1982 41.0955 93.4222 41.0955Z" fill="#FF8D67"/>
<path d="M66.5876 47.6477V64.4609C66.5876 65.1656 67.3841 65.5746 67.9571 65.1643L79.6978 56.7577C80.1796 56.4126 80.1796 55.6959 79.6978 55.3503L67.9571 46.9436C67.3841 46.5334 66.5876 46.943 66.5876 47.647V47.6477Z" fill="#E9F4F6"/>
<path d="M65.441 48.2403C65.4638 47.3945 65.6531 45.6774 66.9302 46.044C67.3081 46.1523 67.4696 45.5641 67.0922 45.4552C65.36 44.9582 64.8649 46.9658 64.8307 48.2403C64.8199 48.6335 65.4303 48.6328 65.441 48.2403Z" fill="#E9F4F6"/>
<path d="M80.06 57.6921C79.4161 58.243 78.7728 58.7944 78.1289 59.3459C77.8301 59.6016 78.2638 60.0315 78.5607 59.7777C79.2046 59.2262 79.8479 58.6754 80.4917 58.1239C80.7906 57.8682 80.3569 57.4383 80.06 57.6921Z" fill="#E9F4F6"/>
<path d="M29.8938 112.175L59.4215 109.007C60.42 106.323 63.9211 88.1182 64.5435 87.4668L64.5492 87.4611C64.5726 87.4319 64.5903 87.4142 64.6138 87.3908C64.772 87.2325 64.9075 87.1204 65.019 87.0381C65.2361 86.8856 65.3653 86.8501 65.3716 86.8444C66.5404 86.022 68.0263 85.3464 69.6591 84.7943L69.6648 84.7886C75.896 82.6683 84.1659 82.3043 84.1894 82.2808C85.9393 80.1662 82.0627 78.0338 76.4893 76.4187L75.7238 75.9901C72.4879 75.0506 70.3049 74.6264 67.333 74.0217C66.9278 73.9394 65.2716 74.0293 64.8955 73.9527H64.8898C64.5726 73.8882 64.2611 73.8293 63.9617 73.7704C62.1471 73.4177 58.746 74.6175 58.123 74.6454C49.4226 75.0335 49.3491 74.0756 48.1975 75.2855V75.2912C47.8569 75.6438 47.71 75.8844 47.71 75.8844C47.8391 76.213 30.0749 111.776 29.8926 112.175H29.8938Z" fill="#FFCFBF"/>
<path d="M58.6648 86.9925C64.0039 88.1486 73.3387 87.0185 78.6576 85.5256C80.0467 85.1356 81.52 84.945 82.728 84.1568C83.8138 83.4477 84.6603 82.4353 85.4878 81.4362C87.9538 78.4599 90.4033 75.4703 92.8371 72.4674C93.512 71.6348 94.1223 70.2477 93.2258 69.6595C92.9029 69.448 92.4908 69.448 92.1052 69.4563C89.6695 69.5056 87.0244 69.6304 85.1636 71.2024C83.9309 72.2439 83.2199 73.7919 82.0195 74.8701C80.5734 76.1693 78.4417 76.6561 76.5753 76.1142L58.6648 86.9932V86.9925Z" fill="#FFCFBF"/>
<path d="M62.2028 86.6146C66.018 87.4288 69.9408 87.2464 73.7611 86.5614C75.7206 86.21 77.6307 85.6839 79.5643 85.2211C80.5349 84.9887 81.5257 84.7551 82.3963 84.2492C83.258 83.7484 83.9734 83.0153 84.6223 82.2688C85.9753 80.7139 87.2599 79.095 88.5673 77.502C89.9058 75.8704 91.2448 74.2383 92.5693 72.5953C93.0188 72.0381 93.7273 71.0663 93.4032 70.3009C93.2151 69.8577 92.7327 69.776 92.3022 69.7703C91.8108 69.764 91.3157 69.788 90.8244 69.8115C89.0561 69.8963 87.1624 70.1242 85.674 71.1657C84.0538 72.2996 83.3251 74.2813 81.7435 75.457C80.2456 76.5707 78.2816 76.9151 76.4892 76.4175C76.2493 76.351 76.3917 75.9901 76.6304 76.0566C78.4893 76.5732 80.5615 76.0794 81.9734 74.7593C83.313 73.5064 84.0563 71.7387 85.6385 70.7257C87.1935 69.7304 89.089 69.5012 90.8947 69.4227C91.6171 69.3911 92.6219 69.2081 93.2753 69.5981C93.8742 69.9558 93.9356 70.6548 93.7583 71.2714C93.5045 72.154 92.8707 72.8384 92.3053 73.5349C91.6 74.4035 90.8934 75.2709 90.185 76.137C88.7687 77.8699 87.3473 79.5976 85.9209 81.3216C84.6825 82.8177 83.4359 84.3746 81.553 85.0634C80.6172 85.4059 79.6333 85.5876 78.6722 85.8409C77.6668 86.1062 76.6589 86.3607 75.6427 86.5816C71.2197 87.5446 66.6207 87.9517 62.1584 86.9995C61.9172 86.9482 61.9577 86.562 62.2021 86.6146H62.2028Z" fill="#EF9F8A"/>
<path d="M51.7619 79.6097C51.715 76.8335 54.761 75.621 56.956 74.9239C59.6044 74.0825 62.4009 73.6938 65.1784 73.771C66.7302 73.8141 68.2763 74.004 69.7933 74.3332C70.025 74.3833 69.9269 74.7384 69.6951 74.6884C67.1132 74.1275 64.4472 73.9901 61.8203 74.2744C60.5085 74.4162 59.2087 74.6663 57.9367 75.0176C56.6977 75.3595 55.4175 75.7616 54.2988 76.4055C53.1357 77.0747 52.1063 78.1909 52.1297 79.6103C52.1335 79.8471 51.7657 79.8471 51.7612 79.6103L51.7619 79.6097Z" fill="#EF9F8A"/>
<path d="M50.8565 84.612C50.6299 85.5414 50.2544 86.4385 49.7504 87.2521C49.6086 87.4813 49.4554 87.7042 49.2933 87.9194C49.2541 87.9713 49.2148 88.0119 49.1496 88.0302C49.092 88.046 49.0154 88.0391 48.9641 88.0062C48.8647 87.9422 48.797 87.7846 48.878 87.6769C49.1597 87.3027 49.4124 86.9064 49.6321 86.4924C49.741 86.2866 49.8423 86.077 49.9347 85.8637C49.9398 85.8516 49.9701 85.7801 49.9499 85.8282C49.9619 85.8003 49.9733 85.7725 49.9847 85.744C50.0075 85.6877 50.0303 85.6313 50.0518 85.575C50.0942 85.4648 50.1341 85.354 50.1721 85.2419C50.2569 84.9931 50.3298 84.7405 50.3924 84.4847C50.4222 84.3625 50.5672 84.2777 50.6887 84.3163C50.816 84.3575 50.8888 84.4816 50.8572 84.6126L50.8565 84.612Z" fill="#F18E7B"/>
<path d="M104.404 113.005C111.937 110.262 118.015 104.088 120.847 96.6073C121.649 94.4888 122.179 92.2805 122.421 90.0285C122.454 89.7239 122.929 89.7512 122.897 90.057C122.027 98.1502 117.416 105.657 110.73 110.269C108.832 111.579 106.78 112.644 104.613 113.433C104.328 113.537 104.115 113.11 104.404 113.005Z" fill="#4C99AF"/>
<path d="M114.827 106.74C115.383 106.966 115.94 107.194 116.516 107.365C117.041 107.522 117.84 107.796 118.391 107.639C118.655 107.678 118.783 107.521 118.772 107.169C118.575 107.039 118.359 106.966 118.123 106.952C117.778 106.914 117.428 106.964 117.084 106.994C116.4 107.053 115.716 107.119 115.033 107.181C114.73 107.209 114.634 106.742 114.939 106.714C115.649 106.649 119.621 105.819 119.398 107.471C119.178 109.102 115.4 107.487 114.677 107.192C114.394 107.077 114.542 106.624 114.826 106.74L114.827 106.74Z" fill="#4C99AF"/>
<path d="M117.006 103.939C117.956 104.092 118.912 104.219 119.872 104.296C120.576 104.353 121.989 104.522 122.528 103.925C122.792 103.827 122.742 103.68 122.378 103.483C122.274 103.434 122.17 103.386 122.065 103.337C121.829 103.261 121.565 103.259 121.32 103.265C120.848 103.276 120.374 103.346 119.912 103.435C118.978 103.618 118.09 103.94 117.243 104.371C116.97 104.51 116.76 104.082 117.035 103.943C118.193 103.352 119.44 102.962 120.736 102.833C121.504 102.756 122.871 102.709 123.136 103.691C123.36 104.524 121.674 104.766 121.159 104.8C119.779 104.893 118.336 104.633 116.979 104.414C116.678 104.366 116.704 103.89 117.007 103.938L117.006 103.939Z" fill="#4C99AF"/>
<path d="M119.556 100.179C120.518 100.391 121.499 100.491 122.485 100.46C122.967 100.445 123.447 100.398 123.923 100.322C124.151 100.286 124.379 100.243 124.605 100.193C124.715 100.17 124.823 100.143 124.931 100.113C125.509 100.007 125.619 99.7924 125.262 99.4695C125.054 99.1454 124.987 99.1074 124.648 99.0263C124.391 98.9643 124.125 98.932 123.861 98.9238C123.378 98.9086 122.895 98.9706 122.427 99.0916C121.472 99.3391 120.602 99.8247 119.77 100.341C119.509 100.503 119.302 100.074 119.561 99.9127C120.734 99.1853 121.996 98.5433 123.399 98.4559C124.122 98.4109 125.864 98.4762 126.008 99.4391C126.186 100.625 124.315 100.763 123.557 100.853C122.165 101.019 120.773 100.931 119.406 100.631C119.107 100.565 119.259 100.113 119.556 100.178V100.179Z" fill="#4C99AF"/>
<path d="M121.48 95.8183C122.334 95.4454 123.24 95.3068 124.147 95.12C125.086 94.9269 127.04 94.4204 127.033 93.2003C127.116 92.949 127.022 92.8009 126.754 92.7565C126.592 92.692 126.423 92.6552 126.248 92.647C125.962 92.6293 125.659 92.6812 125.393 92.785C124.845 92.999 124.409 93.4194 124.029 93.8556C123.345 94.6413 122.81 95.5252 121.953 96.145C121.707 96.3229 121.392 95.9646 121.641 95.7848C122.819 94.9332 123.399 93.4979 124.602 92.6787C125.377 92.1513 126.923 91.8094 127.553 92.7717C128.123 93.6416 126.566 94.7528 125.927 95.0624C124.59 95.7101 123.046 95.6543 121.689 96.2469C121.409 96.3691 121.198 95.9418 121.48 95.8183H121.48Z" fill="#4C99AF"/>
<path d="M122.454 90.3424C123.329 89.7618 124.005 88.9844 124.529 88.0777C125.036 87.2008 125.601 86.0245 125.41 84.9773C125.428 84.6595 125.288 84.5582 124.988 84.674C124.76 84.5854 124.619 84.6411 124.564 84.8406C124.391 85.0172 124.272 85.4205 124.172 85.6459C123.977 86.0846 123.807 86.5342 123.661 86.9906C123.325 88.041 123.13 89.123 123.054 90.2227C123.033 90.5292 122.557 90.5007 122.578 90.1943C122.685 88.6545 123.024 87.1401 123.624 85.7162C123.88 85.1084 124.518 83.3185 125.473 84.0846C126.367 84.8013 125.79 86.5215 125.427 87.3528C124.845 88.683 123.986 89.8929 122.766 90.7027C122.514 90.8698 122.198 90.5121 122.453 90.3424H122.454Z" fill="#4C99AF"/>
<path d="M121.017 95.5124C121.065 94.6862 120.948 93.8834 120.743 93.0838C120.652 92.7267 120.546 92.3741 120.436 92.0227C120.389 91.8707 120.339 91.4883 120.224 91.3775C119.745 91.2572 119.519 91.3446 119.547 91.6409C119.541 91.7568 119.542 91.8726 119.549 91.9885C119.569 92.4348 119.618 92.9958 119.832 93.3991C120.014 93.7397 120.357 93.9455 120.619 94.2183C121.087 94.7084 121.379 95.3086 121.537 95.9626C121.609 96.2614 121.142 96.3539 121.07 96.0557C120.887 95.2991 120.5 94.7546 119.933 94.2316C119.621 93.9436 119.401 93.6739 119.273 93.2611C119.063 92.583 118.729 90.9755 119.614 90.6013C120.487 90.2316 120.759 91.4605 120.938 92.0353C121.292 93.1781 121.563 94.3374 121.494 95.5409C121.476 95.848 121.001 95.8189 121.018 95.5124H121.017Z" fill="#4C99AF"/>
<path d="M118.877 100.47C118.8 99.8994 118.727 99.3232 118.575 98.7661C118.477 98.4058 118.119 97.1371 117.661 97.0712C117.367 97.0288 117.489 98.497 117.558 98.7167C117.757 99.3498 118.398 99.7455 118.902 100.134C119.143 100.32 118.881 100.719 118.637 100.531C117.989 100.03 117.202 99.517 117.047 98.6534C116.953 98.1298 116.836 96.9338 117.324 96.5533C117.826 96.1608 118.301 96.9933 118.52 97.3682C119.054 98.2799 119.205 99.3473 119.345 100.377C119.386 100.679 118.919 100.775 118.877 100.47Z" fill="#4C99AF"/>
<path d="M116.258 104.554C115.745 103.707 115.37 102.787 115.171 101.817C115.059 101.276 114.727 100.183 115.587 100.108C116.412 100.037 116.775 100.98 116.929 101.622C117.143 102.509 117.092 103.425 116.839 104.296C116.754 104.591 116.302 104.441 116.387 104.147C116.56 103.547 116.634 102.926 116.565 102.303C116.536 102.04 116.485 101.777 116.412 101.523C116.365 101.362 116.311 101.192 116.232 101.042C116.078 100.754 115.614 100.557 115.525 101.007C115.432 101.473 115.754 102.255 115.903 102.692C116.102 103.273 116.37 103.82 116.688 104.345C116.846 104.607 116.417 104.815 116.259 104.554H116.258Z" fill="#4C99AF"/>
<path d="M113.936 106.875C113.623 105.961 113.383 105.019 113.288 104.057C113.245 103.616 113.194 102.814 113.784 102.697C114.379 102.579 114.671 103.342 114.755 103.8C114.914 104.667 114.692 105.625 114.533 106.475C114.477 106.773 114.001 106.748 114.057 106.447C114.154 105.931 114.242 105.411 114.293 104.887C114.319 104.615 114.34 104.338 114.312 104.065C114.283 103.786 114.297 103.426 113.947 103.485C113.754 103.44 113.683 103.505 113.735 103.682C113.744 103.848 113.759 104.015 113.782 104.18C113.812 104.433 113.854 104.684 113.902 104.934C114.014 105.523 114.171 106.099 114.365 106.666C114.463 106.952 114.036 107.165 113.937 106.875H113.936Z" fill="#4C99AF"/>
<path d="M95.1238 111.677C102.542 105.722 107.001 96.4819 107.353 87.0015C107.453 84.2873 107.198 81.5775 106.606 78.9272C106.491 78.4119 107.299 78.2738 107.414 78.7886C109.539 88.312 107.167 98.6161 101.34 106.412C99.7001 108.608 97.7874 110.589 95.6506 112.305C95.2397 112.635 94.711 112.009 95.1232 111.677H95.1238Z" fill="#F28A75"/>
<path d="M104.599 100.597C105.372 100.642 106.151 100.693 106.927 100.646C107.248 100.626 108.943 100.527 109.07 100.181C109.394 99.2942 107.417 100.19 107.203 100.284C106.466 100.61 105.729 100.939 104.992 101.266C104.511 101.48 104.166 100.736 104.65 100.521C105.391 100.192 110.052 97.5556 110.144 99.9115C110.177 100.731 109.183 101.061 108.55 101.227C107.242 101.572 105.864 101.492 104.528 101.413C104 101.382 104.073 100.565 104.599 100.597H104.599Z" fill="#F28A75"/>
<path d="M105.955 96.592C106.975 96.4192 107.989 96.2191 108.994 95.9779C109.575 95.8386 110.162 95.6949 110.714 95.4625C111.082 95.3074 111.902 94.9813 112.012 94.5673C112.192 94.4166 112.148 94.3356 111.88 94.3254C111.736 94.2381 111.582 94.2115 111.42 94.2463C111.077 94.245 110.747 94.3736 110.432 94.497C109.971 94.6768 109.52 94.9073 109.091 95.1536C108.109 95.7189 107.238 96.4236 106.446 97.2315C106.077 97.6082 105.552 96.9776 105.919 96.604C107.101 95.3973 108.514 94.3811 110.09 93.7518C110.915 93.4226 112.334 93.0889 112.904 94.0658C113.453 95.0079 111.706 95.9323 111.055 96.2083C109.508 96.8643 107.739 97.1213 106.093 97.4005C105.573 97.4885 105.433 96.6813 105.955 96.5927L105.955 96.592Z" fill="#F28A75"/>
<path d="M107.322 91.3782C108.444 91.2528 109.543 91.0192 110.605 90.633C111.079 90.4602 111.543 90.2626 111.997 90.0398C112.33 89.8758 113.386 89.489 113.522 89.1388C113.49 88.8818 113.459 88.6241 113.428 88.3671C113.262 88.3493 113.096 88.3474 112.931 88.3614C112.672 88.3715 112.419 88.4019 112.166 88.457C111.662 88.5671 111.172 88.7621 110.72 89.0116C109.567 89.6485 108.659 90.6254 107.831 91.6302C107.497 92.0347 106.82 91.5719 107.155 91.1655C108.222 89.872 109.423 88.6159 111.005 87.9701C111.868 87.6181 113.946 87.0147 114.517 88.1391C115.167 89.4199 113.328 90.2861 112.474 90.7185C110.907 91.5118 109.203 91.9917 107.461 92.1867C106.939 92.2449 106.796 91.4377 107.322 91.3788V91.3782Z" fill="#F28A75"/>
<path d="M107.828 85.7231C108.842 84.8102 110.079 84.2853 111.203 83.5332C111.667 83.2229 112.113 82.8627 112.468 82.4284C112.77 82.0586 113.408 81.1507 113.08 80.6866C112.712 80.1656 111.698 80.6493 111.306 80.9494C110.728 81.3913 110.384 82.0694 110.118 82.7285C109.654 83.8846 109.371 85.0793 108.643 86.1119C108.339 86.5437 107.664 86.0783 107.968 85.6472C109.051 84.1093 109.102 82.0213 110.438 80.636C111.17 79.8769 112.712 79.1988 113.672 79.975C114.613 80.736 113.532 82.4714 112.939 83.128C111.664 84.5405 109.755 85.0913 108.355 86.3512C107.962 86.7045 107.436 86.0764 107.828 85.7238V85.7231Z" fill="#F28A75"/>
<path d="M106.802 79.1868C107.619 78.1263 108.088 76.8955 108.307 75.5799C108.459 74.6593 108.771 72.6092 107.904 71.9318C107.722 71.5899 107.522 71.6842 107.303 72.2148C107.288 72.3129 107.273 72.4117 107.258 72.5098C107.178 72.7859 107.18 73.1119 107.155 73.3994C107.104 73.9945 107.084 74.5922 107.099 75.1892C107.132 76.4504 107.335 77.697 107.656 78.9158C107.79 79.4255 106.982 79.5622 106.848 79.0544C106.395 77.3317 106.202 75.5545 106.307 73.7748C106.357 72.9207 106.428 70.2876 107.985 70.9479C109.298 71.5051 109.333 73.5994 109.233 74.7733C109.084 76.5257 108.558 78.2472 107.477 79.6515C107.156 80.0687 106.48 79.6046 106.802 79.1868Z" fill="#F28A75"/>
<path d="M107.122 85.6598C106.846 84.6747 106.368 83.7851 105.803 82.9361C105.572 82.5892 105.326 82.2517 105.079 81.9155C105.003 81.8123 104.849 81.4989 104.73 81.4508C104.651 81.2906 104.55 81.3236 104.429 81.549C104.129 81.6718 104.1 81.8731 104.342 82.1523C104.499 82.5594 104.693 83.0013 104.953 83.3534C105.315 83.8434 105.839 83.9789 106.354 84.2454C107.077 84.619 107.641 85.1742 108.079 85.8536C108.361 86.2911 107.737 86.8241 107.451 86.381C106.868 85.4756 106.151 85.1065 105.22 84.6361C104.7 84.3727 104.383 84.0061 104.089 83.5091C103.651 82.7683 102.826 81.2488 103.741 80.517C104.695 79.7528 105.528 81.133 105.984 81.7674C106.819 82.9304 107.541 84.1327 107.931 85.5212C108.073 86.0283 107.264 86.1644 107.123 85.6598H107.122Z" fill="#F28A75"/>
<path d="M106.608 92.114C106.252 91.3998 105.9 90.6768 105.416 90.0379C105.181 89.7271 104.309 88.5919 103.825 88.7318C103.931 88.6432 104.036 88.5545 104.142 88.4659C103.892 89.0579 104.382 90.1373 104.742 90.5818C105.208 91.1541 106.015 91.3517 106.698 91.5859C107.198 91.7575 106.922 92.5293 106.422 92.3577C105.404 92.0089 104.301 91.6955 103.793 90.6597C103.508 90.081 102.93 88.7552 103.393 88.1424C103.902 87.4694 104.848 88.2912 105.271 88.6679C106.217 89.5099 106.797 90.6559 107.353 91.7721C107.588 92.2438 106.843 92.5863 106.608 92.114H106.608Z" fill="#F28A75"/>
<path d="M105.31 97.8399C104.371 97.0441 103.57 96.133 102.945 95.0693C102.58 94.4483 101.811 93.3099 102.783 92.8395C104.834 91.8455 105.953 95.8285 106.019 97.1219C106.045 97.6424 105.237 97.788 105.211 97.2606C105.177 96.5983 105.068 95.9614 104.818 95.3422C104.697 95.0447 103.476 93.0434 103.303 93.7246C103.174 94.2292 103.957 95.17 104.24 95.5467C104.69 96.1469 105.203 96.6806 105.776 97.1656C106.175 97.5043 105.713 98.1818 105.311 97.8412L105.31 97.8399Z" fill="#F28A75"/>
<path d="M103.495 101.276C102.935 100.546 100.226 97.1655 101.835 96.4033C102.447 96.1133 103.05 96.7236 103.346 97.1782C103.973 98.1399 104.098 99.4302 104.258 100.538C104.333 101.059 103.525 101.201 103.45 100.677C103.37 100.126 103.285 99.574 103.164 99.0307C103.089 98.6907 103.012 98.34 102.871 98.0196C102.778 97.8094 102.602 97.1383 102.395 97.5536C102.203 97.9399 102.754 98.6584 102.957 99.0174C103.303 99.6252 103.698 100.196 104.122 100.75C104.443 101.167 103.817 101.696 103.495 101.277V101.276Z" fill="#F28A75"/>
<path d="M117.32 41.4191C119.495 39.2448 119.495 35.7195 117.32 33.5452C115.146 31.3709 111.621 31.3709 109.446 33.5452C107.272 35.7195 107.272 39.2448 109.446 41.4191C111.621 43.5935 115.146 43.5935 117.32 41.4191Z" fill="#FFCB8A"/>
<path d="M114.315 35.5829C114.701 35.0175 115.398 34.775 116.055 34.9504C116.259 35.0048 116.335 34.6857 116.132 34.6313C115.324 34.4154 114.494 34.7408 114.026 35.4265C113.908 35.6006 114.197 35.7557 114.315 35.5822V35.5829Z" fill="#384955"/>
<path d="M109.907 37.2695C110.294 36.7041 110.991 36.4616 111.647 36.637C111.851 36.6914 111.928 36.3723 111.724 36.3179C110.917 36.102 110.087 36.4274 109.619 37.1131C109.5 37.2872 109.789 37.4423 109.907 37.2688V37.2695Z" fill="#384955"/>
<path d="M115.816 36.6256C115.208 37.8159 113.309 38.6687 111.373 38.6079C111.373 38.6079 112.443 41.0055 114.726 40.0274C116.838 39.1233 115.816 36.6256 115.816 36.6256Z" fill="#E9F4F6"/>
<path d="M110.282 39.1809C110.459 39.0904 110.639 38.8289 110.469 38.6472C110.294 38.4611 110.016 38.6105 109.903 38.7909C109.788 38.9752 109.866 39.248 110.108 39.2626C110.32 39.2753 110.582 39.0594 110.651 38.8694C110.724 38.6687 110.635 38.437 110.419 38.3788C110.21 38.3224 109.981 38.4345 109.88 38.6219C109.777 38.8099 109.828 39.0385 109.98 39.1828C110.148 39.343 110.382 39.3411 110.58 39.2385C111.067 38.9859 110.868 38.3357 110.37 38.2559C109.903 38.1812 109.505 38.6839 109.697 39.1208C109.781 39.3145 109.975 39.4595 110.193 39.4247C110.438 39.3854 110.692 39.1512 110.753 38.9112C110.879 38.4148 110.24 38.1065 109.943 38.5307C109.798 38.7371 109.819 39.0233 110.005 39.1974C110.205 39.3848 110.471 39.3088 110.65 39.1353C110.832 38.9593 110.92 38.6922 110.765 38.4687C110.609 38.2433 110.326 38.2078 110.078 38.273C109.924 38.3135 109.922 38.5605 110.085 38.5902C110.198 38.6105 110.309 38.6212 110.424 38.6206C110.635 38.6193 110.628 38.2914 110.417 38.2927C110.33 38.2927 110.247 38.287 110.161 38.2711C110.164 38.3769 110.166 38.4826 110.168 38.5883C110.344 38.5421 110.637 38.6244 110.466 38.8498C110.421 38.9087 110.33 39.0093 110.247 38.972C110.159 38.9321 110.16 38.7941 110.205 38.7244C110.257 38.6447 110.384 38.6181 110.43 38.7181C110.477 38.8181 110.392 38.9283 110.323 38.9923C110.242 39.067 110.125 39.1512 110.033 39.0492C109.973 38.9828 109.964 38.8859 109.988 38.8036C110.04 38.6225 110.233 38.5206 110.407 38.6073C110.484 38.6459 110.563 38.7365 110.541 38.8314C110.518 38.9296 110.352 39.01 110.257 38.979C110.018 38.9024 110.26 38.6143 110.34 38.6979C110.432 38.7928 110.16 38.8796 110.14 38.9283C110.122 38.9714 110.246 38.9486 110.249 38.9005C110.232 38.8783 110.215 38.8568 110.198 38.8346C110.177 38.8656 110.149 38.8872 110.114 38.8992C109.926 38.9954 110.095 39.2765 110.282 39.1809Z" fill="#FF8F65"/>
<path d="M116.811 36.5965C116.989 36.506 117.168 36.2445 116.998 36.0628C116.823 35.8767 116.546 36.0261 116.432 36.2065C116.317 36.3908 116.396 36.6636 116.637 36.6782C116.849 36.6909 117.112 36.475 117.181 36.285C117.253 36.0843 117.165 35.8526 116.948 35.7943C116.739 35.738 116.511 35.8501 116.409 36.0375C116.306 36.2255 116.357 36.4541 116.509 36.5984C116.677 36.7586 116.912 36.7567 117.109 36.6541C117.596 36.4015 117.398 35.7513 116.899 35.6715C116.432 35.5968 116.035 36.0995 116.226 36.5364C116.311 36.7301 116.504 36.8751 116.722 36.8403C116.967 36.801 117.221 36.5668 117.283 36.3268C117.409 35.8304 116.769 35.5221 116.472 35.9463C116.328 36.1527 116.349 36.4389 116.534 36.613C116.734 36.8004 117 36.7244 117.179 36.5509C117.361 36.3749 117.449 36.1077 117.295 35.8843C117.138 35.6589 116.855 35.6234 116.608 35.6886C116.453 35.7291 116.451 35.9761 116.615 36.0058C116.727 36.0261 116.839 36.0368 116.953 36.0362C117.165 36.0349 117.158 35.707 116.946 35.7082C116.86 35.7082 116.777 35.7025 116.691 35.6867C116.693 35.7924 116.695 35.8982 116.698 36.0039C116.873 35.9577 117.166 36.04 116.995 36.2654C116.95 36.3243 116.86 36.4249 116.777 36.3876C116.688 36.3477 116.689 36.2097 116.734 36.14C116.786 36.0603 116.913 36.0337 116.96 36.1337C117.006 36.2337 116.922 36.3439 116.853 36.4078C116.772 36.4826 116.654 36.5668 116.562 36.4648C116.503 36.3983 116.494 36.3015 116.518 36.2192C116.57 36.0381 116.762 35.9362 116.936 36.0229C117.013 36.0615 117.093 36.1521 117.07 36.247C117.047 36.3452 116.882 36.4256 116.787 36.3946C116.547 36.3179 116.789 36.0299 116.87 36.1134C116.962 36.2084 116.689 36.2951 116.669 36.3439C116.651 36.387 116.775 36.3642 116.778 36.316C116.761 36.2939 116.744 36.2724 116.727 36.2502C116.706 36.2812 116.679 36.3027 116.644 36.3148C116.455 36.411 116.625 36.6921 116.811 36.5965Z" fill="#FF8F65"/>
<path d="M41.9212 23.5864C42.4524 18.1561 47.6041 14.3263 53.0534 14.0497C59.8025 13.7065 62.8985 17.4882 62.8985 22.9444C62.8985 28.4007 59.7329 31.8658 53.1927 32.5584C47.7668 33.1327 41.226 30.7027 41.9212 23.5864Z" fill="#9CD9EF"/>
<path d="M48.4214 30.2412C48.5202 31.8588 47.9877 33.5062 46.9608 34.7604C46.7468 35.0219 46.4828 35.2821 46.1472 35.3188C48.8842 35.2783 51.4984 33.3808 52.3841 30.7914L48.4214 30.2418V30.2412Z" fill="#9CD9EF"/>
<path d="M69.2373 27.5669C68.8327 23.4314 64.9099 20.5152 60.7598 20.3044C55.6207 20.0435 53.2629 22.923 53.2629 27.0781C53.2629 31.2333 55.6732 33.8716 60.654 34.399C64.7858 34.8364 69.7672 32.9858 69.2373 27.5669Z" fill="#FF8F65"/>
<path d="M64.2875 32.635C64.2122 33.8664 64.618 35.1213 65.3999 36.076C65.5626 36.2748 65.7639 36.473 66.0197 36.5015C63.9355 36.4705 61.9449 35.0257 61.27 33.0535L64.2881 32.635H64.2875Z" fill="#FF8F65"/>
<path d="M57.8183 26.5406C60.3692 26.6033 62.92 26.6666 65.4709 26.7292C65.7488 26.7362 65.7488 26.3044 65.4709 26.2975C62.92 26.2348 60.3692 26.1715 57.8183 26.1088C57.5404 26.1018 57.5404 26.5336 57.8183 26.5406Z" fill="white"/>
<path d="M57.7606 28.1221C58.3734 28.2177 58.985 28.2538 59.6042 28.2209C59.8803 28.2063 59.8822 27.7745 59.6042 27.7891C59.0249 27.8195 58.4488 27.7948 57.8752 27.7055C57.6036 27.6631 57.4864 28.0791 57.7606 28.1215V28.1221Z" fill="white"/>
<path d="M60.8681 28.1677C62.4028 28.0613 63.9407 28.0879 65.471 28.2475C65.759 28.2772 65.7571 27.8271 65.471 27.7973C63.9407 27.6378 62.4028 27.6112 60.8681 27.7175C60.5807 27.7372 60.5782 28.1879 60.8681 28.1677Z" fill="white"/>
<path d="M28.7685 63.1283C29.6125 62.794 30.502 62.7452 31.3998 62.7458C31.8791 62.7458 32.39 62.7205 32.8351 62.9377C33.2529 63.1416 33.6277 63.5487 33.9785 63.8551C35.3283 65.034 36.6053 66.2951 37.5759 67.8121C37.6607 67.7089 37.7456 67.6063 37.8304 67.5031C34.7344 66.2147 31.7632 64.6611 28.935 62.8592C28.6995 62.7091 28.4684 63.077 28.7046 63.227C31.5657 65.0498 34.5743 66.6155 37.7057 67.9191C37.8741 67.9894 38.0577 67.7621 37.9602 67.6101C36.7978 65.7937 35.1973 64.1989 33.498 62.8769C32.7977 62.3324 32.1614 62.3065 31.2909 62.3109C30.352 62.3153 29.4466 62.3945 28.5665 62.7427C28.3063 62.8459 28.5102 63.2296 28.7679 63.1276L28.7685 63.1283Z" fill="#E9F4F6"/>
<path d="M37.7679 67.7114C37.7679 67.7114 32.4123 67.4106 31.3303 66.7592L30.8245 64.3894L37.7686 67.712L37.7679 67.7114Z" fill="#E9F4F6"/>
<path d="M37.9957 67.4385C37.714 66.5021 35.5278 59.6991 34.3363 60.4405C33.9412 60.6862 33.4796 61.5225 33.4208 61.9936C33.3606 62.4767 33.7671 62.7362 34.083 63.0439C35.2955 64.2266 36.6598 65.4258 37.3297 67.0162C37.4386 67.2745 37.8223 67.0706 37.7146 66.8148C37.3132 65.8613 36.6788 65.0737 35.9723 64.3273C35.5614 63.893 35.1359 63.4713 34.7104 63.0515C34.1679 62.5165 33.4885 62.0341 34.2318 61.2611C34.5832 60.8957 34.7326 60.8977 35.039 61.3985C35.1802 61.6289 35.2986 61.8739 35.4202 62.1151C35.7158 62.6995 35.9925 63.2934 36.2521 63.8949C36.7643 65.0813 37.1993 66.2976 37.5715 67.5353C37.6519 67.8019 38.0755 67.7063 37.9951 67.4385H37.9957Z" fill="#E9F4F6"/>
<path d="M39.2886 31.6087C35.1942 31.2706 31.177 34.7402 31.298 38.934C31.4126 42.9049 35.5139 47.2836 39.7344 45.9281C41.333 45.4146 42.6461 43.4222 41.5077 41.8653C40.8474 40.9625 39.5799 40.5301 38.5523 40.2116C37.5172 39.8906 36.4345 39.7127 35.3519 39.6709C30.8352 39.4968 26.1804 41.6684 23.8043 45.59C22.3532 47.9851 22.1449 50.7088 23.3504 53.2477C24.7236 56.1404 27.3859 58.0797 29.9127 59.9037C30.007 59.9721 30.1026 59.8182 30.0089 59.7505C26.3108 57.0819 21.6112 53.3224 22.9192 48.1168C23.9601 43.9762 27.9234 41.0549 31.9355 40.1629C33.8843 39.7298 35.9381 39.7248 37.878 40.2116C38.8619 40.4585 39.9389 40.8087 40.7701 41.4038C41.8927 42.2079 41.9997 43.633 41.2057 44.71C39.7723 46.6543 36.7042 46.0452 34.9555 44.9347C33.3005 43.8837 32.0773 42.1471 31.6443 40.235C30.6167 35.6955 34.758 31.4163 39.2836 31.7904C39.3994 31.7999 39.4051 31.6195 39.2893 31.61L39.2886 31.6087Z" fill="#E9F4F6"/>
<path d="M115.111 53.4281L117.008 54.6304C117.328 54.833 117.277 55.3148 116.922 55.4452L114.813 56.2202C114.672 56.2721 114.566 56.3898 114.528 56.5355L113.971 58.7115C113.878 59.0781 113.403 59.1781 113.17 58.8805L111.781 57.1148C111.688 56.9964 111.543 56.9318 111.393 56.9413L109.152 57.0844C108.774 57.1084 108.533 56.6887 108.744 56.374L109.994 54.5082C110.078 54.3835 110.095 54.2252 110.039 54.0853L109.211 51.9979C109.071 51.6458 109.396 51.2862 109.76 51.3894L111.921 52.0017C112.066 52.0428 112.221 52.0099 112.337 51.9137L114.067 50.4809C114.359 50.239 114.801 50.4372 114.815 50.8152L114.901 53.0596C114.906 53.2097 114.986 53.3477 115.113 53.4281H115.111Z" fill="#FF8F65"/>
<path d="M114.171 51.2216C114.194 51.7364 114.211 52.284 113.909 52.7291C113.824 52.8545 114.006 53.0064 114.092 52.8804C114.433 52.3777 114.432 51.7858 114.406 51.2001C114.399 51.0475 114.164 51.0703 114.17 51.2223L114.171 51.2216Z" fill="#FFC8B7"/>
<path d="M114.895 54.2062C115.395 54.3398 115.913 54.4892 116.26 54.8976C116.358 55.0128 116.553 54.8779 116.455 54.7621C116.06 54.2993 115.503 54.1251 114.934 53.9726C114.787 53.9333 114.749 54.1669 114.895 54.2062Z" fill="#FFC8B7"/>
<path d="M113.685 57.7587C113.665 57.9688 113.592 58.1556 113.459 58.3202C113.364 58.4386 113.545 58.5899 113.641 58.4715C113.799 58.2772 113.895 58.0467 113.919 57.7973C113.933 57.6466 113.699 57.6061 113.685 57.7587H113.685Z" fill="#FFC8B7"/>
</g>
</svg>
