<svg xmlns="http://www.w3.org/2000/svg" width="408" height="230" fill="none" viewBox="0 0 408 230"><rect width="408" height="229.213" fill="#B9DBFE" rx="16"/><g clip-path="url(#clip0_9935_368379)" opacity=".7"><path fill="#EBF0F2" d="M393.48 227.564H15.083c-3.853-8.772-4.084-18.803 1.054-28.794 9.587-18.641 30.6-31.048 51.597-31.809 10.03-.364 20.376 1.676 29.943-1.317 8.522-2.672 15.317-9.04 21.055-15.8 20.372-23.98 33.525-51.323 64.653-63.834 14.469-5.809 35.181-7.212 46.324 5.709 7.4 8.587 8.18 21.191 15.061 30.188 9.908 12.954 26.728 16.447 42.31 16.827 8.607.214 17.222-.496 25.776-1.386 8.695-.902 18.597-3.579 27.235-2.705 23.895 2.425 11.864 39.032 28.451 50.223 4.802 3.241 10.646 4.518 16.071 6.578 15.5 5.883 18.977 23.568 8.864 36.115l.003.005z" opacity=".9"/><path fill="#fff" d="M181.018 115.527c-.864 7.202-7.782 8.693-12.19 7.202-3.454-1.168-8.574-6.492-10.635-8.747 3.999-5.248 2.31-10.291.264-13.532a18.82 18.82 0 00-1.657-2.235c-2.454-2.857-1.128-6.874-1.169-10.162-.031-2.69 2.836-5.67 4.205-8.967 2.667 2.242 8.972 6.856 15.707 6.916.359.003.718-.007 1.08-.03a10.7 10.7 0 002.059-.339v16.384s3.2 6.307 2.336 13.51z"/><path fill="#22313B" d="M172.088 123.379c-1.124 0-2.249-.175-3.298-.529-3.477-1.175-8.633-6.532-10.689-8.782l-.072-.078.064-.084c3.938-5.167 2.313-10.132.259-13.388a18.628 18.628 0 00-1.646-2.22c-1.846-2.15-1.598-4.901-1.357-7.56.085-.94.167-1.828.157-2.683-.021-1.693 1.077-3.483 2.236-5.38.715-1.17 1.456-2.38 1.979-3.634l.067-.162.136.114c2.438 2.05 8.841 6.825 15.625 6.886.354.002.713-.008 1.069-.03.698-.049 1.382-.16 2.033-.334l.162-.043v16.52c.226.463 3.164 6.636 2.336 13.552l-.128-.015.128.015c-.344 2.86-1.68 5.087-3.867 6.442-1.479.915-3.33 1.393-5.192 1.393h-.002zm-13.726-9.402c2.087 2.278 7.131 7.49 10.513 8.636 2.718.92 5.964.589 8.271-.84 2.118-1.314 3.416-3.476 3.749-6.256.849-7.081-2.292-13.376-2.323-13.439l-.013-.028V85.8c-.62.155-1.264.256-1.923.301-.364.023-.731.036-1.09.03-6.748-.06-13.102-4.709-15.656-6.835-.523 1.216-1.238 2.381-1.928 3.511-1.141 1.864-2.218 3.623-2.2 5.246.011.867-.072 1.76-.156 2.707-.236 2.61-.482 5.306 1.295 7.374.62.72 1.182 1.48 1.666 2.25 2.087 3.307 3.739 8.34-.207 13.591l.002.002z"/><path fill="#2C5CC5" d="M225.458 127.071l-.633 1.12-15.367 27.123-2.243 3.961-3.375-2.452-2.017 34.772-.188 3.241s-67.603 6.61-69.977-.716c-2.375-7.326-.088-32.411-.088-32.411l-25.25 1.29-3.803.523s4.087-28.194 5.315-38.369c1.159-9.597 6.177-17.325 13.341-18.374-.318 3.393 2.587 5.994 5.149 4.733 2.559-1.264 3.495-1.684 3.787.419.292 2.104.049 16.217.902 23.139 1.723 13.969 10.057 16.793 12.877 17.501 2.823.708 12.902.414 17.6-7.779 4.694-8.19 2.569-12.283-.344-16.735-2.91-4.454-3.802-13.049-3.802-13.049.31-.341.592-.683.851-1.024 2.061 2.255 7.182 7.579 10.635 8.747 4.408 1.491 11.326 0 12.19-7.202.864-7.203-2.336-13.51-2.336-13.51v-.114c7.002-.942 19.928 4.354 19.928 4.354 0-.127-.003-.256-.008-.385 4.936 3.461 19.018 13.54 26.856 21.197z"/><path fill="#22313B" d="M152.983 197.7c-13.484 0-20.681-1.186-21.446-3.544-2.261-6.977-.287-30.25-.105-32.315l-25.104 1.282-3.792.523a.127.127 0 01-.144-.142c.041-.283 4.1-28.31 5.315-38.367 1.234-10.213 6.513-17.468 13.449-18.482a.13.13 0 01.107.033.123.123 0 01.039.104c-.164 1.757.579 3.466 1.892 4.353.962.65 2.082.743 3.072.255 1.723-.851 2.654-1.281 3.266-.96.372.192.59.649.705 1.476.111.789.144 3.233.19 6.33.075 5.258.177 12.463.716 16.811.674 5.468 3.23 14.998 12.781 17.395 2.921.731 12.887.253 17.456-7.718 4.562-7.958 2.736-11.902-.338-16.604-2.892-4.429-3.813-13.019-3.823-13.104a.13.13 0 01.031-.097c.295-.323.579-.667.843-1.016a.131.131 0 01.098-.05.117.117 0 01.1.04c2.043 2.235 7.161 7.556 10.581 8.711 2.718.921 5.964.589 8.272-.839 2.118-1.314 3.415-3.476 3.749-6.257.848-7.08-2.293-13.375-2.323-13.438a.143.143 0 01-.013-.056v-.114c0-.063.046-.116.11-.126 6.508-.877 18.225 3.658 19.815 4.29 0-.063-.003-.126-.005-.19a.128.128 0 01.202-.108c4.29 3.008 18.903 13.423 26.872 21.209a.125.125 0 01.02.152l-.633 1.12-17.61 31.084a.13.13 0 01-.085.06.123.123 0 01-.102-.022l-3.185-2.313-2.192 37.78a.124.124 0 01-.115.119c-.17.015-17.103 1.661-34.107 2.389-5.472.235-10.328.351-14.561.351l.002-.005zm-21.41-36.12c.036 0 .07.013.093.038a.135.135 0 01.036.099c-.024.25-2.259 25.143.082 32.36 2.271 7.01 66.652.936 69.734.64l2.2-37.904a.12.12 0 01.074-.106.126.126 0 01.131.012l3.256 2.366 18.125-31.994c-7.845-7.642-22.043-17.794-26.56-20.969v.134a.128.128 0 01-.057.106.135.135 0 01-.12.013c-.129-.053-12.823-5.208-19.738-4.361.302.625 3.141 6.717 2.323 13.53-.344 2.859-1.68 5.086-3.867 6.441-2.369 1.469-5.702 1.807-8.492.865-3.42-1.156-8.464-6.358-10.584-8.669-.231.298-.475.589-.726.867.085.743 1.038 8.747 3.777 12.938 3.025 4.624 4.971 8.8.346 16.867-2.556 4.459-6.62 6.423-9.577 7.286-3.295.96-6.541.96-8.164.553-4.161-1.044-11.381-4.722-12.971-17.607-.539-4.361-.641-11.573-.715-16.836-.044-3.089-.08-5.526-.188-6.3-.102-.731-.282-1.138-.569-1.289-.502-.261-1.433.174-3.033.963-1.074.528-2.29.43-3.331-.273-1.349-.91-2.131-2.634-2.015-4.424-6.741 1.087-11.864 8.221-13.074 18.239-1.164 9.654-4.951 35.862-5.292 38.205l3.633-.5 25.261-1.29h.007-.005z"/><path fill="#22313B" d="M131.571 161.707h.597s3.839 26.129 13.026 33.789c11.661 9.722-20.336-1.145-20.336-1.145l6.713-32.644z"/><path fill="#DAE3E8" d="M155.311 78.227s6.808 13.633 23.371 13.128c16.564-.506-2.833-14.445-2.833-14.445l-18.053-.703-2.485 2.02z"/><path fill="#2C5CC5" d="M205.721 227.426h-78.262l.59-2.838v-.005l1.323-6.381c7.548-1.254 11.74-.753 21.54-3.393 12.559-3.382 28.961-7.369 40.561-10.387 6.592-1.716 11.63-3.122 13.533-3.926l.715 26.93z"/><path fill="#22313B" d="M205.721 227.55h-78.263a.138.138 0 01-.1-.046.121.121 0 01-.025-.106l.587-2.829v-.015l1.323-6.38a.124.124 0 01.105-.099c2.685-.445 4.969-.672 7.179-.892 4.134-.41 8.039-.799 14.351-2.498 7.552-2.032 16.39-4.26 24.938-6.413 5.657-1.426 10.997-2.771 15.623-3.974 7.536-1.962 11.83-3.208 13.515-3.921a.136.136 0 01.121.01.126.126 0 01.059.104l.715 26.93a.136.136 0 01-.036.091.123.123 0 01-.092.038zm-78.106-.253h77.972l-.707-26.617c-1.808.728-6.075 1.959-13.377 3.86a2100.69 2100.69 0 01-15.625 3.974c-8.549 2.154-17.387 4.381-24.933 6.414-6.333 1.706-10.246 2.093-14.392 2.505-2.182.217-4.436.44-7.074.875l-1.303 6.287v.015l-.559 2.687h-.002zM191.78 43.845c-.577-9.68-5.948-16.934-8.028-19.402.395-1.686.344-3.269.287-4.002 1.675.842 5.333 3.077 6.518 6.92 1.518 4.926 1.238 15.979 1.223 16.484z"/><path fill="#22313B" d="M191.744 43.846c-.571-9.583-5.8-16.747-8.02-19.382l-.01-.012v-.016c.392-1.66.351-3.212.289-3.991l-.005-.058.054.027c1.564.787 5.331 3.037 6.536 6.94 1.551 5.038 1.228 16.381 1.226 16.495h-.067l-.003-.003zm-7.958-19.412c2.174 2.584 7.192 9.462 7.974 18.687.043-2.592.084-11.462-1.236-15.75-1.182-3.834-4.862-6.064-6.449-6.87.057.796.09 2.315-.289 3.935v-.002z"/><path fill="#fff" d="M191.69 66.469c-.272 2.002-.905 4.52-1.913 7.076-2.074 5.255-5.733 10.67-11.094 12.096-.659.177-1.347.29-2.059.339a15.38 15.38 0 01-1.08.03c-6.736-.06-13.041-4.674-15.707-6.916.307-.738.538-1.492.646-2.26a6 6 0 00.036-1.221c-.272-4.192-4.169-9.973-4.749-12.959-.638-3.291.885-7.79 5.598-14.278 4.71-6.484 6.674-6.628 10.207-9.484 3.536-2.855 7.805-7.84 10.456-10.889.339-.389.623-.808.859-1.246.408-.743.68-1.537.859-2.308 2.08 2.467 7.451 9.723 8.028 19.402v.018c.039.645.057 1.302.049 1.967-.136 13.097.761 14.01-.136 20.633z"/><path fill="#22313B" d="M175.649 86.13h-.105c-6.869-.062-13.33-4.878-15.789-6.946l-.072-.06.036-.087c.331-.79.538-1.519.638-2.23.052-.368.064-.77.036-1.195-.159-2.447-1.577-5.465-2.825-8.127-.864-1.838-1.68-3.575-1.921-4.816-.684-3.527 1.154-8.229 5.618-14.374 3.459-4.76 5.492-6.15 7.646-7.625.805-.55 1.638-1.12 2.585-1.883 3.335-2.692 7.343-7.306 9.994-10.36l.444-.51a6.76 6.76 0 00.843-1.224 8.865 8.865 0 00.847-2.277l.058-.248.167.197c2.231 2.647 7.485 9.844 8.056 19.476.041.687.057 1.352.049 1.994a208.41 208.41 0 00.172 11.51c.133 3.44.208 5.337-.308 9.139-.297 2.196-.979 4.72-1.92 7.106-3.531 8.944-8.521 11.464-11.182 12.172a10.84 10.84 0 01-2.085.344c-.328.02-.659.03-.984.03l.002-.005zm-15.658-7.08c2.489 2.08 8.835 6.767 15.556 6.828.354.003.713-.008 1.069-.03.697-.048 1.382-.16 2.033-.334 2.616-.695 7.521-3.18 11.01-12.02.934-2.367 1.61-4.87 1.905-7.048.513-3.782.439-5.668.305-9.096-.097-2.498-.23-5.918-.171-11.523a27.076 27.076 0 00-.049-1.959c-.556-9.346-5.538-16.378-7.836-19.152a8.998 8.998 0 01-.81 2.094 7.01 7.01 0 01-.874 1.269l-.444.51c-2.659 3.062-6.674 7.685-10.028 10.393-.954.77-1.79 1.342-2.6 1.896-2.228 1.524-4.154 2.839-7.584 7.563-4.423 6.088-6.246 10.727-5.577 14.18.236 1.21 1.044 2.932 1.9 4.757 1.259 2.683 2.687 5.721 2.849 8.216.028.443.018.86-.036 1.247a9.24 9.24 0 01-.621 2.207l.003.002z"/><path fill="#22313B" d="M198.611 106.266s-12.925-5.296-19.928-4.353v-16.27c5.362-1.426 9.02-6.84 11.095-12.096v10.496s8.556 12.187 8.825 21.839c.005.129.008.258.008.384z"/><path fill="#22313B" d="M198.646 106.314l-.046-.02c-.128-.053-12.997-5.281-19.909-4.351l-.039.005V85.615l.026-.008c2.63-.7 7.569-3.2 11.071-12.076l.064.013V84.03c.129.182 2.216 3.198 4.308 7.296 1.985 3.883 4.377 9.56 4.518 14.553.005.129.007.258.007.384v.051zm-18.155-4.548c6.904 0 17.297 4.128 18.089 4.447 0-.111-.003-.223-.008-.334-.138-4.98-2.528-10.648-4.51-14.523-2.146-4.202-4.29-7.268-4.31-7.298l-.005-.008V73.72c-1.141 2.845-2.61 5.378-4.254 7.33-2.021 2.398-4.3 3.95-6.772 4.615v16.207a13.68 13.68 0 011.772-.106h-.002zM183.75 24.444a9.09 9.09 0 01-.859 2.308 6.886 6.886 0 01-.859 1.246c-2.651 3.049-6.92 8.034-10.456 10.888-3.534 2.856-5.498 3-10.208 9.485-4.712 6.486-6.235 10.986-5.597 14.278.579 2.985 4.477 8.767 4.749 12.958a6 6 0 01-.036 1.22c-.108.77-.339 1.523-.646 2.261-1.37 3.296-4.236 6.277-4.205 8.967.041 3.288-1.285 7.305 1.169 10.162a18.713 18.713 0 011.656 2.235c2.046 3.241 3.736 8.284-.264 13.532-.259.341-.541.682-.851 1.024 0 0 .892 8.595 3.802 13.049 2.913 4.452 5.039 8.545.344 16.735-4.698 8.193-14.777 8.487-17.6 7.779-2.82-.708-11.153-3.532-12.876-17.501-.854-6.922-.611-21.036-.903-23.139-.292-2.103-1.228-1.683-3.787-.419-2.562 1.261-5.467-1.34-5.149-4.733.321-3.395 1.649-18.55 4.228-26.548 2.582-7.999 7.654-20.907 8.759-32.176 1.108-11.273 5.349-29.542 23.971-34.27 18.623-4.727 25.864 6.227 25.864 6.227s.02.157.041.43c.056.733.108 2.315-.287 4.002z"/><path fill="#22313B" d="M146.499 152.858c-1.19 0-2.103-.124-2.618-.253a15.085 15.085 0 01-6.864-3.787c-3.266-3.129-5.297-7.756-6.036-13.744-.538-4.356-.641-11.566-.715-16.826-.044-3.092-.08-5.534-.187-6.31-.108-.771-.298-1.191-.618-1.358-.544-.283-1.492.16-3.121.963-1.043.514-2.223.418-3.235-.265-1.362-.918-2.134-2.685-1.962-4.5l.049-.526c1.138-12.2 2.543-20.956 4.179-26.03.495-1.537 1.09-3.269 1.718-5.104 2.595-7.581 6.149-17.961 7.041-27.064.759-7.72 2.582-14.316 5.42-19.602 4.118-7.668 10.367-12.615 18.577-14.698 4.251-1.08 8.259-1.423 11.91-1.021 2.923.321 5.623 1.117 8.03 2.366 4.098 2.126 5.944 4.869 5.962 4.897l.005.015s.02.162.041.432c.059.781.103 2.344-.287 4.012-.2.86-.49 1.638-.862 2.316a6.84 6.84 0 01-.864 1.251l-.443.51c-2.657 3.06-6.669 7.68-10.016 10.38-.951.77-1.784 1.34-2.594 1.894-2.236 1.53-4.167 2.849-7.608 7.586-4.438 6.108-6.266 10.772-5.592 14.253.236 1.221 1.049 2.95 1.908 4.78 1.256 2.675 2.679 5.706 2.841 8.184.028.434.018.846-.036 1.228-.1.723-.313 1.464-.649 2.268-.526 1.266-1.269 2.482-1.99 3.658-1.148 1.875-2.23 3.645-2.212 5.296.01.862-.07 1.754-.157 2.697-.238 2.626-.485 5.344 1.318 7.442a18.616 18.616 0 011.659 2.24c2.082 3.299 3.728 8.332-.267 13.57-.264.349-.548.69-.843 1.014.043.404.979 8.709 3.795 13.019 1.417 2.166 2.715 4.33 3.03 6.98.341 2.887-.51 5.996-2.684 9.79-2.541 4.432-6.582 6.386-9.523 7.243a19.835 19.835 0 01-5.498.804h-.002zm-17.433-42.432c.162 0 .3.03.426.096.341.177.543.612.653 1.408.108.781.144 3.226.188 6.32.074 5.261.177 12.468.715 16.821.677 5.491 3.249 15.062 12.851 17.473 1.151.289 4.32.546 8.079-.551 2.931-.854 6.954-2.798 9.482-7.212 2.167-3.779 3.018-6.879 2.677-9.75-.313-2.634-1.608-4.793-3.02-6.952-2.882-4.409-3.8-12.979-3.808-13.065v-.015l.008-.01c.297-.326.582-.67.848-1.021 3.969-5.208 2.334-10.213.262-13.495a18.615 18.615 0 00-1.654-2.23c-1.82-2.12-1.574-4.85-1.333-7.492.084-.943.166-1.833.156-2.692-.018-1.669 1.069-3.448 2.223-5.332.718-1.173 1.462-2.386 1.985-3.648.333-.798.543-1.534.643-2.252.052-.374.064-.784.036-1.213-.159-2.465-1.582-5.491-2.836-8.16-.861-1.833-1.674-3.565-1.912-4.796-.68-3.502 1.153-8.178 5.602-14.303 3.449-4.748 5.385-6.07 7.623-7.602.808-.551 1.641-1.123 2.59-1.889 3.341-2.697 7.353-7.315 10.007-10.372l.444-.51c.325-.374.612-.792.853-1.242.37-.672.657-1.446.857-2.3.39-1.66.346-3.213.287-3.992a7.668 7.668 0 00-.041-.42c-.1-.148-1.946-2.8-5.936-4.868-2.397-1.244-5.092-2.038-8.005-2.356-3.641-.4-7.641-.056-11.881 1.021-8.19 2.078-14.423 7.013-18.533 14.665-2.834 5.278-4.657 11.866-5.413 19.576-.892 9.111-4.449 19.496-7.043 27.08a331.026 331.026 0 00-1.718 5.104c-1.634 5.068-3.041 13.82-4.177 26.015l-.049.523c-.167 1.793.592 3.534 1.933 4.439.993.668 2.146.764 3.167.261 1.328-.657 2.174-1.059 2.756-1.059l.008-.003zM192.431 207.247c-7.715 5.961-64.383 17.337-64.383 17.337v-.006l1.323-6.38c7.548-1.254 11.74-.753 21.54-3.393 12.559-3.382 28.961-7.369 40.561-10.387 2.074.561 2.738 1.454.959 2.829z"/><path fill="#fff" d="M226.62 206.236c-1.438-.425-.751-2.49-2.143-3.822-.472-.45-1.603-1.242-1.603-1.242.539 4.02-.715 6.3-1.307 6.313-.593.012-1.611-.294-2.067-3.087-.456-2.796-1.087-.543-1.087-.543-.882 5.384-1.449 4.81-2.239 4.722-.789-.091-2.099-.67-1.671-3.929.428-3.258-3.393-4.436-3.393-4.436s-2.046 2.399-5.081 5.22c-3.041 2.819-8.795.576-8.795.576l-.882.233c-5.523 1.441-35.81 9.207-56.076 11.616-10.084 1.201-20.386 3.587-28.261-9.326-6.648-10.9-6.371-34.19-5.694-45.531l25.25-1.289s-2.287 25.085.087 32.411c2.375 7.326 69.978.715 69.978.715l.188-3.241c2.438-.849 4.984-1.645 6.871-2.019 5.023-.984 8.654-.195 12.723 2.5 4.066 2.692 4.979 5.584 6.284 9.068 1.431 3.824.359 5.513-1.082 5.091z"/><path fill="#22313B" d="M129.738 218.965c-6.456 0-12.69-1.939-17.833-10.37-2.918-4.783-4.805-12.405-5.613-22.656-.728-9.242-.374-18.345-.1-22.949a.127.127 0 01.121-.118l25.251-1.29a.14.14 0 01.1.038.128.128 0 01.035.099c-.023.25-2.259 25.143.082 32.36 2.272 7.01 66.653.936 69.735.64l.182-3.132a.124.124 0 01.084-.112c2.913-1.013 5.231-1.696 6.89-2.024 4.943-.969 8.656-.238 12.82 2.52 3.895 2.578 4.933 5.372 6.138 8.605l.195.523c.867 2.316.916 4.113.139 4.93-.349.369-.839.483-1.377.326-.831-.245-1.013-.993-1.208-1.787-.166-.685-.359-1.464-.987-2.066-.328-.313-.995-.803-1.351-1.059.331 2.88-.262 5.046-.974 5.865-.172.197-.339.298-.495.301-1.108.018-1.846-1.052-2.195-3.193-.208-1.269-.426-1.294-.428-1.294-.098 0-.298.376-.408.766-.605 3.696-1.051 4.464-1.444 4.742-.256.182-.51.139-.753.099a2.053 2.053 0 00-.18-.025c-.536-.064-.969-.296-1.284-.693-.539-.678-.706-1.815-.5-3.378.374-2.856-2.688-4.08-3.223-4.272a72.41 72.41 0 01-5.036 5.165c-1.272 1.178-3.223 1.656-5.641 1.378a15.089 15.089 0 01-3.249-.761l-.841.222c-5.82 1.519-35.884 9.217-56.093 11.619-.723.086-1.446.179-2.172.27-2.79.354-5.608.713-8.385.713l-.002-.002zm-23.294-55.846c-.275 4.632-.613 13.649.107 22.8.805 10.21 2.68 17.797 5.577 22.544 3.259 5.347 7.246 8.515 12.19 9.682 4.412 1.045 9.171.44 13.774-.146.725-.094 1.448-.185 2.171-.271 20.192-2.401 50.24-10.094 56.058-11.613l.882-.233a.126.126 0 01.079.005c.057.023 5.713 2.179 8.659-.551 2.995-2.783 5.051-5.185 5.072-5.21a.135.135 0 01.136-.04c.038.012 3.918 1.248 3.482 4.573-.198 1.494-.046 2.566.449 3.19.271.344.646.544 1.11.597.064.007.128.017.192.027.221.036.392.066.564-.055.462-.326.877-1.742 1.344-4.591.066-.24.305-.986.671-.963.298.015.498.468.667 1.507.326 1.997.98 3.008 1.939 2.98.028 0 .135-.018.305-.215.502-.576 1.333-2.566.877-5.956a.124.124 0 01.061-.124.137.137 0 01.141.005c.046.033 1.144.802 1.618 1.254.685.655.885 1.469 1.059 2.19.192.783.344 1.4 1.031 1.605.446.129.833.043 1.118-.258.697-.736.625-2.48-.193-4.669l-.195-.526c-1.187-3.193-2.212-5.948-6.04-8.481-4.1-2.715-7.759-3.433-12.626-2.483-1.63.324-3.91.991-6.774 1.987l-.182 3.158a.123.123 0 01-.115.118c-.17.018-17.103 1.661-34.107 2.392-22.889.981-35.002-.094-36.007-3.193-2.262-6.977-.287-30.25-.105-32.315l-24.989 1.277v.002z"/><path fill="#fff" d="M314.875 80.836c-6.666 1.936-11.728 2.753-11.728 2.753s2.236 5.233-.915 10.567c0 0 3.115 3.208-3.459 5.842-6.574 2.634-10.171.101-10.171.101s-17.049 35.723-25.402 47.152c-8.351 11.426-14.831 18.484-26.251 18.737-5.066.114-11.41-2.207-16.897-4.821-4.492-2.144-8.413-4.482-10.592-5.85l15.366-27.122 1.493.986 9.633 6.368s39.273-46.36 43.67-49.515c4.4-3.153 10.767-7.622 22.595-8.173 11.83-.551 18.438-.95 18.438-.95s.887 1.989-5.78 3.925z"/><path fill="#22313B" d="M236.586 166.116c-4.27 0-9.849-1.626-16.59-4.839-4.618-2.204-8.625-4.616-10.605-5.857l-.102-.063 15.492-27.345 11.146 7.366c2.438-2.877 39.312-46.358 43.619-49.45 4.246-3.04 10.661-7.636 22.664-8.195 11.694-.546 18.371-.946 18.435-.95l.09-.006.036.081c.008.015.154.36-.095.885-.385.814-1.695 2.032-5.767 3.213-5.956 1.73-10.687 2.576-11.589 2.73.328.89 1.856 5.65-.933 10.453.22.26.912 1.189.651 2.392-.298 1.375-1.718 2.58-4.218 3.582-3.425 1.373-6.036 1.327-7.623 1.047-1.382-.246-2.236-.693-2.543-.878-1.144 2.384-17.341 36.082-25.351 47.041-4.272 5.842-7.946 10.39-11.997 13.582-4.354 3.431-8.915 5.087-14.354 5.205-.12.003-.243.006-.366.006zm-26.954-10.843c2.008 1.256 5.949 3.618 10.477 5.779 6.9 3.286 12.564 4.902 16.838 4.808 11.79-.26 18.274-7.91 26.151-18.684 8.251-11.29 25.22-46.775 25.389-47.131l.064-.137.126.089c.036.025 3.625 2.457 10.048-.117 2.416-.968 3.785-2.11 4.064-3.4.275-1.264-.641-2.23-.648-2.24l-.067-.068.049-.083c3.082-5.215.93-10.403.907-10.453l-.064-.147.162-.025c.051-.008 5.13-.837 11.712-2.75 3.98-1.156 5.246-2.314 5.608-3.08.131-.28.128-.488.113-.594-.895.053-7.436.438-18.336.946-11.925.556-18.305 5.124-22.525 8.15-4.333 3.11-43.255 49.03-43.648 49.495l-.074.088-11.105-7.341-15.241 26.898v-.003z"/><g opacity=".41"><path fill="#fff" d="M298.346 61.004h84.662v70.308c0 .963-.792 1.744-1.769 1.744h-81.124c-.977 0-1.769-.781-1.769-1.744V61.004z"/><path fill="#22313B" d="M381.239 133.112h-81.124c-1.01 0-1.831-.809-1.831-1.805V60.941h84.783v70.369c0 .996-.821 1.805-1.831 1.805l.003-.003zm-82.832-72.05v70.248c0 .928.767 1.683 1.708 1.683h81.124c.941 0 1.707-.755 1.707-1.683V61.063h-84.541.002z" opacity=".41"/></g><path fill="#262F3A" d="M302.756 52.523h75.842c2.433 0 4.41 1.95 4.41 4.348v4.131h-84.662v-4.13c0-2.4 1.977-4.349 4.41-4.349z"/><path fill="#2C5CC5" d="M370.965 70.402h-36.017a.843.843 0 00-.849.837c0 .462.38.837.849.837h36.017a.843.843 0 00.848-.837.843.843 0 00-.848-.837z" opacity=".7"/><path fill="#EDF1F4" d="M363.011 78.836h-28.063a.843.843 0 00-.849.837c0 .462.38.837.849.837h28.063a.843.843 0 00.849-.837.843.843 0 00-.849-.837zM355.291 74.621h-20.343a.843.843 0 00-.849.837c0 .462.38.837.849.837h20.343a.843.843 0 00.848-.837.843.843 0 00-.848-.837zM327.438 87.996h-15.92c-1.092 0-1.977.873-1.977 1.95v14.151c0 1.076.885 1.949 1.977 1.949h15.92c1.092 0 1.977-.873 1.977-1.949V89.945c0-1.076-.885-1.949-1.977-1.949z"/><path fill="#92A2B1" d="M327.438 106.143h-15.921c-1.143 0-2.071-.918-2.071-2.043V89.949c0-1.128.93-2.043 2.071-2.043h15.921c1.143 0 2.071.918 2.071 2.043V104.1c0 1.128-.93 2.043-2.071 2.043zm-15.921-18.05c-1.035 0-1.879.832-1.879 1.853v14.152c0 1.021.844 1.853 1.879 1.853h15.921c1.035 0 1.879-.832 1.879-1.853V89.946c0-1.021-.844-1.853-1.879-1.853h-15.921z"/><path fill="#fff" d="M313.697 104.623c0-2 1.082-3.85 2.839-4.849a5.74 5.74 0 015.676 0 5.583 5.583 0 012.839 4.849"/><path fill="#92A2B1" d="M325.115 104.622h-.128a5.534 5.534 0 00-2.805-4.793 5.696 5.696 0 00-5.613 0 5.535 5.535 0 00-2.805 4.793h-.128c0-2.018 1.1-3.896 2.869-4.905a5.825 5.825 0 015.741 0 5.661 5.661 0 012.869 4.905z"/><path fill="#fff" d="M319.12 97.504c1.739 0 3.146-1.388 3.146-3.101 0-1.714-1.407-3.102-3.146-3.102-1.738 0-3.143 1.388-3.143 3.102 0 1.713 1.407 3.101 3.143 3.101z"/><path fill="#92A2B1" d="M319.12 97.564c-1.769 0-3.208-1.42-3.208-3.165 0-1.744 1.439-3.165 3.208-3.165 1.769 0 3.21 1.421 3.21 3.165 0 1.745-1.441 3.165-3.21 3.165zm0-6.203c-1.697 0-3.079 1.362-3.079 3.038 0 1.676 1.382 3.039 3.079 3.039 1.697 0 3.082-1.363 3.082-3.039 0-1.676-1.382-3.038-3.082-3.038z"/><path fill="#2C5CC5" d="M370.965 91.969h-36.018a.843.843 0 00-.848.837c0 .462.38.836.848.836h36.018a.843.843 0 00.848-.837.843.843 0 00-.848-.836z" opacity=".7"/><path fill="#EDF1F4" d="M363.011 100.402h-28.064a.843.843 0 00-.848.837c0 .462.38.837.848.837h28.064a.843.843 0 00.849-.837.843.843 0 00-.849-.837zM355.291 96.188h-20.344a.843.843 0 00-.848.836c0 .462.38.837.848.837h20.344a.843.843 0 00.848-.837.843.843 0 00-.848-.837zM327.438 109.57h-15.92c-1.092 0-1.977.873-1.977 1.949v14.152c0 1.076.885 1.949 1.977 1.949h15.92c1.092 0 1.977-.873 1.977-1.949v-14.152c0-1.076-.885-1.949-1.977-1.949z"/><path fill="#92A2B1" d="M327.438 127.717h-15.921c-1.143 0-2.071-.917-2.071-2.042v-14.152c0-1.127.93-2.043 2.071-2.043h15.921c1.143 0 2.071.918 2.071 2.043v14.152c0 1.127-.93 2.042-2.071 2.042zm-15.921-18.049c-1.035 0-1.879.831-1.879 1.853v14.151c0 1.021.844 1.853 1.879 1.853h15.921c1.035 0 1.879-.832 1.879-1.853v-14.151c0-1.022-.844-1.853-1.879-1.853h-15.921z"/><path fill="#fff" d="M313.697 126.197c0-2 1.082-3.85 2.839-4.849a5.74 5.74 0 015.676 0 5.584 5.584 0 012.839 4.849"/><path fill="#92A2B1" d="M325.115 126.196h-.128a5.533 5.533 0 00-2.805-4.793 5.695 5.695 0 00-5.613 0 5.534 5.534 0 00-2.805 4.793h-.128c0-2.017 1.1-3.896 2.869-4.904a5.823 5.823 0 015.741 0 5.66 5.66 0 012.869 4.904z"/><path fill="#fff" d="M319.12 119.079c1.739 0 3.146-1.388 3.146-3.102s-1.407-3.102-3.146-3.102c-1.738 0-3.143 1.388-3.143 3.102s1.407 3.102 3.143 3.102z"/><path fill="#92A2B1" d="M319.12 119.139c-1.769 0-3.208-1.421-3.208-3.165 0-1.745 1.439-3.165 3.208-3.165 1.769 0 3.21 1.42 3.21 3.165 0 1.744-1.441 3.165-3.21 3.165zm0-6.204c-1.697 0-3.079 1.363-3.079 3.039 0 1.676 1.382 3.038 3.079 3.038 1.697 0 3.082-1.362 3.082-3.038 0-1.676-1.382-3.039-3.082-3.039z"/><path fill="#2C5CC5" d="M370.965 113.543h-36.018a.843.843 0 00-.848.837c0 .462.38.836.848.836h36.018a.842.842 0 00.848-.836.843.843 0 00-.848-.837z" opacity=".7"/><path fill="#EDF1F4" d="M363.011 121.977h-28.064a.842.842 0 00-.848.836c0 .462.38.837.848.837h28.064a.843.843 0 00.849-.837.842.842 0 00-.849-.836zM355.291 117.762h-20.344a.842.842 0 00-.848.836c0 .463.38.837.848.837h20.344a.842.842 0 00.848-.837.842.842 0 00-.848-.836z"/><path fill="#fff" d="M328.667 65.285h-17.999c-1.235 0-2.236.987-2.236 2.205v15.999c0 1.218 1.001 2.204 2.236 2.204h17.999c1.235 0 2.236-.986 2.236-2.204v-16c0-1.217-1.001-2.204-2.236-2.204z"/><path fill="#87A1B3" d="M328.668 85.871h-18.002c-1.334 0-2.418-1.069-2.418-2.384V67.485c0-1.314 1.084-2.383 2.418-2.383h18.002c1.333 0 2.418 1.069 2.418 2.383v16.002c0 1.315-1.085 2.384-2.418 2.384zm-18.002-20.408c-1.131 0-2.052.908-2.052 2.022v16.002c0 1.115.921 2.023 2.052 2.023h18.002c1.131 0 2.051-.908 2.051-2.023V67.485c0-1.114-.92-2.022-2.051-2.022h-18.002z"/><path fill="#FFE8EE" d="M313.134 84.078a6.308 6.308 0 013.208-5.48 6.5 6.5 0 016.418 0 6.309 6.309 0 013.207 5.48"/><path fill="#FFC9D4" d="M326.155 84.076h-.369a6.147 6.147 0 00-3.115-5.323 6.331 6.331 0 00-6.236 0c-1.923 1.094-3.118 3.134-3.118 5.323h-.369c0-2.32 1.264-4.479 3.3-5.64a6.695 6.695 0 016.602 0 6.51 6.51 0 013.3 5.64h.005z"/><path fill="#FFE8EE" d="M319.265 76.027c1.964 0 3.557-1.57 3.557-3.509 0-1.939-1.593-3.506-3.557-3.506s-3.556 1.57-3.556 3.506c0 1.936 1.592 3.509 3.556 3.509z"/><path fill="#FFC9D4" d="M319.266 76.207c-2.062 0-3.741-1.656-3.741-3.69 0-2.036 1.677-3.689 3.741-3.689s3.741 1.656 3.741 3.688c0 2.033-1.68 3.691-3.741 3.691zm0-7.015c-1.859 0-3.372 1.492-3.372 3.324 0 1.833 1.513 3.327 3.372 3.327s3.372-1.491 3.372-3.327c0-1.835-1.513-3.324-3.372-3.324z"/><path fill="#fff" d="M329.638 71.04c2.1 0 3.802-1.678 3.802-3.748 0-2.07-1.702-3.749-3.802-3.749s-3.803 1.678-3.803 3.749c0 2.07 1.703 3.749 3.803 3.749z"/><path fill="#00CBFF" d="M329.637 71.402c-2.3 0-4.172-1.846-4.172-4.113 0-2.268 1.872-4.113 4.172-4.113s4.172 1.845 4.172 4.113c0 2.267-1.872 4.113-4.172 4.113zm0-7.498c-1.895 0-3.433 1.52-3.433 3.385 0 1.865 1.541 3.385 3.433 3.385s3.433-1.52 3.433-3.385c0-1.866-1.541-3.385-3.433-3.385z"/><path fill="#fff" d="M331.563 66.129l-2.397 2.89-1.405-1.23"/><path fill="#00CBFF" d="M329.209 69.537l-1.692-1.479.487-.543 1.121.978 2.151-2.599.572.46-2.639 3.183z"/><path fill="#CFD7DF" d="M78.111 92.704c14.107 0 25.54-11.277 25.54-25.189 0-13.911-11.433-25.19-25.54-25.19s-25.54 11.276-25.54 25.19c0 13.914 11.435 25.189 25.54 25.189z"/><path fill="#fff" d="M78.113 87.448c11.161 0 20.212-8.924 20.212-19.933 0-11.01-9.048-19.933-20.212-19.933S57.9 56.506 57.9 67.515c0 11.01 9.049 19.933 20.213 19.933z"/><path fill="#92A2B1" d="M52.78 67.515H52.2c0-14.094 11.625-25.558 25.912-25.558v.574c-13.967 0-25.33 11.206-25.33 24.984zM78.106 93.067c-6.923 0-13.428-2.66-18.322-7.49l.412-.405c4.785 4.72 11.144 7.32 17.91 7.32 6.767 0 13.128-2.6 17.91-7.32l.413.404c-4.892 4.829-11.4 7.49-18.323 7.49zM78.406 47.57h-.582v3.762h.582V47.57z"/><path fill="#92A2B1" d="M78.406 83.684h-.582v3.761h.582v-3.761zM98.325 67.227H94.51v.573h3.815v-.573zM61.705 67.227H57.89v.573h3.815v-.573zM89.916 78.754l-.411.406 2.7 2.665.412-.406-2.7-2.665zM64.024 53.22l-.411.405 2.699 2.662.412-.406-2.7-2.662zM66.31 78.757l-2.7 2.665.412.405 2.7-2.664-.412-.406zM92.202 53.214l-2.7 2.661.412.406 2.7-2.661-.412-.406zM78.295 68.713L69.81 62.94l.33-.473 8.188 5.571 11.566-6.327.282.503-11.881 6.5z"/><path fill="#fff" d="M256.167 54.441c.218-.1.329-.151.547-.257v-1.848c.015-1.257-1.334-2.045-3.016-1.838h-.025c-9.682 1.145-18.782 2.035-28.564 2.042-1.651-.073-2.987.415-2.997 1.307v1.333c.213.078.318.116.531.19 2.325.828 3.184 2.239 1.894 3.46-.441.417-1.1.773-1.894 1.057-.213.078-.318.118-.531.204v1.312c0 .89 1.323 1.383 2.972 1.315h.025c9.782.008 18.884.897 28.564 2.037 1.682.215 3.038-.56 3.043-1.815v-1.847c-.218-.112-.326-.167-.546-.276-2.385-1.138-3.261-3.145-1.941-4.882.451-.594 1.126-1.11 1.941-1.499l-.003.005z"/><path fill="#C2CCD3" d="M254.221 64.853c-.182 0-.369-.013-.561-.035-10.326-1.219-19.133-2.03-28.556-2.04h-.023c-1.205.053-2.215-.198-2.705-.66a.96.96 0 01-.328-.716V60.05l.038-.015c.213-.084.318-.124.533-.205.821-.293 1.452-.642 1.875-1.044.466-.44.656-.925.556-1.4-.161-.754-1.046-1.47-2.428-1.96a22.064 22.064 0 01-.531-.19l-.038-.015v-1.375c.002-.268.115-.505.336-.71.497-.463 1.515-.71 2.723-.655 9.43-.008 18.235-.822 28.553-2.04l.033.056-.008-.061c1.008-.124 1.921.099 2.498.607.39.343.592.788.587 1.289v1.886l-.033.015c-.218.104-.329.157-.546.258-.813.387-1.477.9-1.918 1.481-.536.706-.721 1.479-.531 2.24.249 1.011 1.12 1.919 2.451 2.553.221.109.328.164.546.278l.034.018v1.886c0 .498-.211.94-.603 1.279-.474.41-1.167.63-1.949.63l-.005-.003zm-29.117-2.194c9.43.01 18.241.821 28.571 2.04.977.126 1.856-.081 2.415-.567.364-.316.559-.728.559-1.19v-1.813c-.197-.1-.305-.157-.512-.26-1.365-.65-2.257-1.585-2.516-2.632-.197-.796-.005-1.605.554-2.338.454-.597 1.133-1.12 1.962-1.517.205-.096.315-.146.51-.24v-1.81a1.546 1.546 0 00-.546-1.2c-.552-.486-1.429-.699-2.403-.577h-.026c-10.322 1.22-19.132 2.035-28.571 2.042-1.179-.053-2.164.182-2.638.622-.195.182-.295.392-.297.625v1.291c.187.069.292.107.489.175 1.423.505 2.336 1.254 2.508 2.047.113.519-.092 1.042-.59 1.512-.436.412-1.079.774-1.915 1.07-.198.073-.303.113-.49.187v1.271c0 .235.098.445.29.627.467.443 1.446.678 2.618.627h.028v.008z"/><path fill="#fff" d="M260.872 54.046l.538-.3v-2.084c.016-1.415-1.318-2.247-2.987-1.931l-.025.005c-9.662 1.663-18.864 2.371-28.615 2.745-1.672.066-3.026.756-3.036 1.595v1.254l.539.144c2.358.643 3.228 2.17 1.92 3.36-.446.407-1.113.736-1.92.953l-.539.157v1.233c0 .837 1.341 1.53 3.01 1.6h.026c9.754.375 18.953 1.083 28.615 2.746 1.669.324 3.01-.493 3.015-1.903v-2.084c-.215-.131-.323-.194-.539-.32-2.361-1.325-3.23-3.52-1.923-5.464.447-.664 1.116-1.253 1.923-1.706h-.002z"/><path fill="#8AA3B4" d="M259.108 65.654c-.234 0-.477-.023-.723-.07-8.498-1.465-17.32-2.311-28.607-2.744h-.026c-1.72-.076-3.069-.804-3.069-1.66V59.9l.043-.012.539-.157c.808-.22 1.461-.544 1.895-.94.484-.443.677-.943.554-1.444-.19-.771-1.106-1.449-2.449-1.815l-.539-.144-.043-.013v-1.3c.01-.859 1.369-1.587 3.095-1.655 11.287-.435 20.109-1.282 28.607-2.745l.023-.005c.933-.177 1.797-.005 2.374.47.456.377.695.902.69 1.52v2.118l-.031.017c-.215.122-.323.182-.538.301-.806.453-1.464 1.034-1.903 1.686-.546.812-.723 1.697-.513 2.564.264 1.09 1.121 2.09 2.416 2.816.218.126.325.192.541.323l.028.018v2.116c0 .614-.246 1.135-.703 1.507-.428.346-1.01.528-1.661.528zm-29.325-2.935c11.292.435 20.12 1.282 28.625 2.745.897.175 1.73.018 2.284-.432.431-.349.659-.837.659-1.413v-2.05c-.197-.12-.305-.185-.51-.304-1.323-.743-2.202-1.77-2.472-2.892-.218-.9-.033-1.817.531-2.656.449-.668 1.121-1.264 1.944-1.724.205-.114.312-.172.507-.284v-2.047c.005-.582-.218-1.075-.646-1.429-.549-.452-1.377-.614-2.269-.444l-.028.005c-8.505 1.463-17.333 2.313-28.625 2.745-1.659.066-2.969.74-2.98 1.537v1.206l.495.131c1.387.377 2.334 1.087 2.534 1.901.135.546-.07 1.085-.59 1.56-.449.41-1.121.743-1.946.968l-.495.144v1.188c0 .794 1.297 1.47 2.954 1.543l.023.06v-.06l.005.002z"/><path fill="#fff" d="M265.978 53.464l.531-.357v-2.43c.012-1.65-1.298-2.575-2.946-2.14l-.026.007c-9.02 2.233-19.251 4.217-28.564 3.81-1.687-.035-3.058.736-3.069 1.605v1.297c.218.056.326.086.546.142 2.385.65 3.262 2.234 1.941 3.478-.451.425-1.125.774-1.941.996l-.546.157v1.276c0 .867 1.359 1.641 3.044 1.613h.025c9.313-.407 19.544 1.578 28.564 3.81 1.646.445 2.966-.463 2.972-2.108v-2.43a34.655 34.655 0 00-.531-.384c-2.11-1.393-3.221-4.037-1.895-6.34.441-.769 1.1-1.464 1.895-2.002z"/><path fill="#22313B" d="M264.352 66.894c-.267 0-.543-.037-.831-.116-15.568-3.852-23.748-4.02-28.545-3.807h-.028c-1.105.015-2.144-.306-2.705-.852-.259-.253-.398-.536-.398-.819v-1.322l.044-.013.543-.156c.805-.22 1.467-.559 1.916-.984.497-.47.689-.998.554-1.527-.203-.793-1.126-1.486-2.47-1.853a41.722 41.722 0 00-.543-.141l-.046-.013v-1.345c.002-.285.146-.569.41-.821.572-.544 1.613-.872 2.72-.845 10.013.435 21.09-1.964 28.548-3.807l.026-.007c.844-.223 1.62-.107 2.192.33.541.415.836 1.078.831 1.869v2.46l-.026.017c-.212.147-.318.218-.53.36-.79.535-1.439 1.22-1.877 1.981-1.041 1.81-.731 4.54 1.877 6.262.215.152.32.23.533.384l.026.018v2.46c0 .786-.303 1.443-.844 1.85-.382.286-.854.433-1.374.433l-.003.004zm-26.92-4.095c9.346 0 19.261 2.167 26.12 3.866.81.22 1.554.113 2.1-.296.513-.385.795-1.009.795-1.755v-2.399c-.195-.144-.303-.22-.505-.364-1.077-.71-1.88-1.726-2.259-2.859-.41-1.223-.29-2.454.346-3.56.446-.775 1.108-1.476 1.913-2.022l.505-.338v-2.397c.005-.753-.272-1.383-.782-1.774-.541-.413-1.282-.524-2.087-.309l-.023.008c-15.592 3.855-23.779 4.024-28.584 3.812-1.072-.018-2.085.288-2.633.811-.242.23-.37.483-.372.736v1.251c.189.048.297.079.5.132 1.387.376 2.341 1.102 2.556 1.939.146.574-.056 1.14-.59 1.643-.464.437-1.143.786-1.966 1.011-.203.058-.311.088-.5.144v1.231c0 .25.125.506.361.733.541.524 1.544.835 2.621.82h.025a56.673 56.673 0 012.462-.054l-.003-.01z"/><path fill="#475867" d="M243.729 55.074c3.718-.29 7.43-.548 11.153-.758 2.049-.137 3.695 1.006 3.695 2.601v1.43c0 1.599-1.648 2.739-3.695 2.602-3.723-.21-7.435-.468-11.153-.758-2.064-.147-3.736-1.047-3.736-2.09v-.936c0-1.044 1.672-1.944 3.736-2.09z"/><path fill="#8AA3B4" d="M48.711 150.571s.995-1.81 3.47-1.193c2.474.617 7.807 2.336 11.592 10.39 3.802 8.095.453 13.616-3.29 14.72-2.98.88-10.082.172-12.864-8.847-2.802-9.091 1.092-15.07 1.092-15.07z"/><path fill="#7B8E9F" d="M59.824 172.11a.328.328 0 01-.303-.197l-8.728-20.057a.323.323 0 01.175-.427.33.33 0 01.433.172l8.728 20.057a.323.323 0 01-.305.452z"/><path fill="#7B8E9F" d="M53.509 157.538a.317.317 0 01-.097-.015.324.324 0 01-.218-.407l1.346-4.247a.334.334 0 01.413-.215.324.324 0 01.217.407l-1.346 4.247a.33.33 0 01-.315.228v.002zM55.185 162.131a.363.363 0 01-.102-.015l-6.875-2.212a.321.321 0 01-.21-.41.333.333 0 01.416-.209l6.874 2.212a.32.32 0 01.21.409.33.33 0 01-.313.225zM57.686 166.896a.324.324 0 01-.315-.425l2.42-7.591a.33.33 0 01.413-.213.324.324 0 01.215.41L58 166.668a.33.33 0 01-.316.228h.003zM58.619 169.595a.313.313 0 01-.095-.015l-7.7-2.298a.324.324 0 01-.22-.407.334.334 0 01.412-.217l7.7 2.298a.325.325 0 01.22.407.33.33 0 01-.315.232h-.002z"/><path fill="#647A8E" d="M60.653 174.352l-.322.074 6.208 26.386.322-.073-6.208-26.387zM68.615 181.635l-.62 19.162.332.01.62-19.162-.332-.01z"/><path fill="#7690A3" d="M63.278 227.304a.487.487 0 01-.48-.389c-.107-.521-.215-1.016-.315-1.492-.97-4.492-1.554-7.204 1.292-13.236 2.477-5.248-.092-9.204-1.313-10.663a.477.477 0 01-.066-.511.485.485 0 01.44-.278l9.055-.055c.194.01.361.103.446.273a.474.474 0 01-.06.51c-1.202 1.474-3.72 5.461-1.176 10.678 2.923 5.997 2.374 8.717 1.461 13.222-.097.475-.197.973-.297 1.494a.491.491 0 01-.48.394l-8.502.053h-.005zm8.615-26.298l-9.054.055a.157.157 0 00-.143.091.15.15 0 00.02.165c1.26 1.504 3.916 5.589 1.36 11.006-2.8 5.936-2.226 8.606-1.27 13.032.103.475.21.971.318 1.494a.162.162 0 00.156.127l8.503-.054a.16.16 0 00.156-.128c.1-.524.203-1.022.298-1.497.897-4.437 1.44-7.116-1.436-13.016-2.626-5.385-.023-9.503 1.218-11.022.059-.071.028-.144.02-.165a.16.16 0 00-.143-.088h-.003z"/><path fill="#7690A3" d="M68.108 201.762h-3.785v.326h3.785v-.326zM70.813 225.723h-7.1v.326h7.1v-.326z"/><path fill="#576C7D" d="M59.167 174.715s-.815-8.676 4.239-15.746c0 0 1.14 2.49 1.548 4.138 0 0-1.548 9.922-2.85 10.605 0 0-.978.682-2.934 1.003h-.003z"/><path fill="#647A8E" d="M72.96 155.541s1.91-.832 3.484 1.145c1.575 1.979 4.73 6.555 2.728 15.211-2.01 8.696-8.087 11.047-11.733 9.664-2.905-1.1-8.084-5.943-4.69-14.756 3.421-8.883 10.21-11.264 10.21-11.264z"/><path fill="#B1BDC7" d="M68.788 179.752a.323.323 0 01-.32-.404l5.417-21.162a.33.33 0 01.4-.235.323.323 0 01.239.394l-5.418 21.162a.33.33 0 01-.32.245h.002z"/><path fill="#B1BDC7" d="M72.824 164.358a.339.339 0 01-.282-.154.324.324 0 01.108-.448l3.843-2.333a.333.333 0 01.454.106.324.324 0 01-.108.447l-3.843 2.334a.326.326 0 01-.172.048zM71.403 169.266a.332.332 0 01-.272-.141l-4.1-5.873a.321.321 0 01.085-.452.332.332 0 01.459.083l4.1 5.872a.322.322 0 01-.085.453.339.339 0 01-.187.058zM70.436 173.644a.33.33 0 01-.269-.139.321.321 0 01.08-.452l6.6-4.583a.331.331 0 01.458.078.322.322 0 01-.08.453l-6.599 4.583a.334.334 0 01-.19.06zM69.52 177.068a.336.336 0 01-.268-.137l-4.703-6.433a.322.322 0 01.075-.455.332.332 0 01.461.073l4.703 6.434a.322.322 0 01-.075.455.341.341 0 01-.192.06v.003z"/><path fill="#DAE3E8" d="M81.04 111.434H60.757c-1 0-1.812.8-1.812 1.787v19.604c0 .987.811 1.787 1.813 1.787H81.04c1 0 1.812-.8 1.812-1.787v-19.604c0-.987-.811-1.787-1.812-1.787z"/><path fill="#576C7D" d="M64.162 133.138a4.126 4.126 0 01-2.916-1.193 4.066 4.066 0 01-1.207-2.885v-15.221c0-1.074.438-2.126 1.207-2.884a4.183 4.183 0 012.916-1.193H80.02c1.085 0 2.149.435 2.916 1.193.769.758 1.21 1.81 1.207 2.884v2.725a.1.1 0 01-.1.099.098.098 0 01-.1-.099v-2.725a3.888 3.888 0 00-1.148-2.745 3.969 3.969 0 00-2.775-1.135H64.162a3.977 3.977 0 00-2.775 1.135 3.877 3.877 0 00-1.148 2.745v15.221a3.89 3.89 0 001.148 2.746 3.917 3.917 0 002.775 1.135h15.86a3.917 3.917 0 002.775-1.135 3.88 3.88 0 001.149-2.746v-3.6c0-.053.043-.098.1-.098.056 0 .1.043.1.098v3.6a4.077 4.077 0 01-1.208 2.885 4.178 4.178 0 01-2.915 1.193H64.162z"/><path fill="#fff" d="M71.695 127.535c3.52 0 6.376-2.814 6.376-6.287s-2.853-6.287-6.376-6.287-6.377 2.814-6.377 6.287 2.854 6.287 6.377 6.287z"/><path fill="#D72D30" d="M71.694 127.641c-3.574 0-6.482-2.867-6.482-6.391s2.908-6.391 6.482-6.391c3.575 0 6.482 2.867 6.482 6.391s-2.907 6.391-6.482 6.391zm0-12.572c-3.456 0-6.269 2.773-6.269 6.181s2.813 6.181 6.27 6.181c3.456 0 6.268-2.773 6.268-6.181s-2.813-6.181-6.269-6.181z"/><path fill="#FFD0D6" d="M77.126 121.764l-5.364-.753-1.038-5.245c1.717.015 3.556.434 4.756 1.559 1.2 1.125 1.664 2.865 1.646 4.439z"/><path fill="#DAE3E8" d="M226.32 129.177l-6.266 31.987c-4.492-2.144-8.413-4.482-10.592-5.85l15.366-27.123 1.492.986z"/><path fill="#fff" d="M148.727 221.862v.791c0 2.569 2.11 4.649 4.715 4.649H195.3l.224-.776h-1.982c-2.859 0-5.126-2.075-5.547-4.667h-39.268v.003z"/><path fill="#22313B" d="M195.372 227.399h-41.93c-2.654 0-4.813-2.128-4.813-4.745v-.884h39.446l.012.078c.431 2.659 2.723 4.588 5.451 4.588h2.108l-.277.963h.003zm-46.553-5.442v.697c0 2.513 2.072 4.556 4.62 4.556h41.787l.169-.587h-1.857c-2.794 0-5.148-1.959-5.625-4.666h-39.094z"/><path fill="#22313B" d="M187.995 221.863c.418 2.591 2.687 4.667 5.546 4.667h1.982l1.341-4.667h-8.869z"/><path fill="#22313B" d="M195.564 226.581h-2.023c-2.803 0-5.157-1.982-5.598-4.712l-.01-.06h9.003l-1.372 4.772zm-7.505-4.666c.459 2.647 2.754 4.563 5.482 4.563h1.941l1.31-4.563h-8.736.003z"/><path fill="#fff" d="M188.557 219.914c.418 2.591 2.687 4.667 5.546 4.667h87.678c2.641 0 4.92-1.815 5.484-4.361l12.736-57.819c.761-3.451-1.905-6.71-5.485-6.71h-87.672c-2.643 0-4.925 1.815-5.484 4.359l-12.741 57.819a5.389 5.389 0 00-.059 2.043l-.003.002z"/><path fill="#22313B" d="M281.78 224.678h-87.677c-2.823 0-5.195-1.997-5.638-4.747a5.45 5.45 0 01.061-2.078l12.741-57.817c.564-2.569 2.91-4.434 5.579-4.434h87.672c1.736 0 3.357.763 4.447 2.095a5.542 5.542 0 011.133 4.728l-12.736 57.819c-.569 2.568-2.915 4.434-5.579 4.434h-.003zm-74.936-68.887c-2.58 0-4.846 1.803-5.393 4.285l-12.74 57.817a5.344 5.344 0 00-.059 2.007c.43 2.66 2.723 4.589 5.451 4.589h87.677c2.575 0 4.841-1.803 5.392-4.285l12.736-57.82a5.368 5.368 0 00-1.095-4.57 5.529 5.529 0 00-4.297-2.028h-87.672v.005z"/><path fill="#8AA3B4" d="M196.344 227.309h87.674c2.641 0 4.926-1.815 5.485-4.358l12.736-57.82c.759-3.448-1.906-6.709-5.485-6.709h-87.675c-2.641 0-4.925 1.815-5.484 4.358l-12.736 57.82c-.759 3.448 1.905 6.709 5.485 6.709z"/><path fill="#22313B" d="M284.018 227.401h-87.675a5.714 5.714 0 01-4.444-2.096 5.54 5.54 0 01-1.133-4.727l12.736-57.82c.566-2.568 2.913-4.434 5.577-4.434h87.674c1.736 0 3.354.764 4.444 2.096a5.538 5.538 0 011.133 4.727l-12.735 57.82c-.567 2.568-2.913 4.434-5.577 4.434zm-74.939-68.887c-2.577 0-4.846 1.802-5.393 4.285l-12.735 57.819a5.349 5.349 0 001.097 4.568 5.525 5.525 0 004.295 2.025h87.675c2.577 0 4.846-1.802 5.392-4.285l12.736-57.819a5.352 5.352 0 00-1.098-4.568 5.525 5.525 0 00-4.295-2.025h-87.674z"/><path fill="#fff" d="M254.149 181.886v16.765c0 .572.444 1.176.993 1.343 2.833.819 5.643 1.549 8.517 2.217v9.614c3.569-2.544 7.064-5.175 10.526-7.855 15.476 1.578 30.486.175 45.391-4.227.549-.172.992-.75.992-1.289v-15.792c0-.536-.443-.837-.992-.675-21.443 5.956-43.148 5.65-64.434-.809-.549-.177-.993.139-.993.708zm48.72 10.579c-10.633 1.292-21.028 1.196-31.638-.285-1.267-.197-1.269-2.518 0-2.318 10.605 1.501 20.999 1.62 31.638.348 1.274-.171 1.277 2.081 0 2.255zm4.825-2.265c0-.826.69-1.62 1.541-1.787a90.21 90.21 0 006.131-1.38c.841-.215 1.523.263 1.523 1.084v5.933c0 .819-.682 1.674-1.523 1.896a89.976 89.976 0 01-6.131 1.431c-.851.172-1.541-.366-1.541-1.193V190.2zm-43.045 3.861c12.613 2.515 25.074 2.998 37.848 1.461 1.769-.24 1.777 2.009 0 2.255-12.769 1.562-25.23 1.104-37.848-1.383-1.746-.374-1.751-2.71 0-2.333z"/><path fill="#647A8E" d="M263.483 212.169v-9.816a165.712 165.712 0 01-8.392-2.189c-.628-.192-1.118-.855-1.118-1.509v-16.766c0-.331.128-.606.361-.773.234-.167.541-.205.862-.101 21.325 6.469 42.971 6.739 64.334.806.323-.096.644-.053.875.116.22.162.341.42.341.723v15.792c0 .622-.49 1.259-1.116 1.457-15.002 4.429-29.85 5.816-45.391 4.241a327.882 327.882 0 01-10.477 7.817l-.277.197-.002.005zm-9.159-30.277v16.765c0 .496.397 1.034.869 1.178 2.841.819 5.623 1.545 8.505 2.215l.136.03v9.412a337.072 337.072 0 0010.243-7.652l.057-.043.072.007c15.52 1.583 30.348.2 45.322-4.222.469-.146.869-.662.869-1.124v-15.793a.54.54 0 00-.2-.447c-.144-.106-.346-.127-.567-.063-21.433 5.953-43.145 5.68-64.537-.809-.213-.069-.407-.051-.548.05-.141.101-.218.276-.218.493l-.003.003zm33.453 16.975c-7.725 0-15.392-.763-23.166-2.298-.674-.144-1.19-.581-1.379-1.17-.147-.45-.067-.913.205-1.209.277-.301.72-.404 1.243-.293 12.641 2.52 25.005 2.998 37.792 1.459.933-.127 1.435.384 1.515.948.097.697-.423 1.504-1.469 1.648-4.964.607-9.864.913-14.741.913v.002zm-23.494-4.669c-.249 0-.449.076-.585.225-.19.205-.238.538-.131.87.152.47.57.821 1.118.937 12.641 2.493 25.002 2.945 37.789 1.381.857-.119 1.241-.736 1.167-1.259-.054-.382-.377-.754-1.123-.655-12.828 1.545-25.225 1.064-37.907-1.464h-.003a1.548 1.548 0 00-.325-.038v.003zm44.635 3.39c-.339 0-.649-.104-.898-.306-.323-.26-.5-.647-.5-1.095v-5.983c0-.913.739-1.772 1.682-1.957 2.48-.483 3.68-.753 6.121-1.378.469-.121.928-.045 1.259.205.312.238.484.609.484 1.044v5.933c0 .898-.741 1.823-1.654 2.063a90.809 90.809 0 01-6.141 1.433c-.12.026-.238.036-.351.036l-.002.005zm6.841-10.428c-.113 0-.231.015-.352.046a90.412 90.412 0 01-6.141 1.382c-.771.15-1.4.875-1.4 1.616v5.983c0 .339.134.632.372.827.251.202.592.273.959.197a90.611 90.611 0 006.12-1.428c.77-.202 1.393-.978 1.393-1.729v-5.933c0-.326-.123-.599-.349-.771a.974.974 0 00-.602-.19zm-27.641 6.386c-5.615 0-11.22-.397-16.912-1.191-.444-.068-.803-.374-.982-.837-.205-.528-.141-1.147.156-1.511.213-.258.523-.37.877-.314 10.62 1.504 20.953 1.621 31.589.349.59-.081 1.046.301 1.138.948.1.708-.289 1.539-1.092 1.651h-.002c-4.97.604-9.875.905-14.772.905zm-17.035-3.522a.524.524 0 00-.429.2c-.218.268-.261.758-.102 1.17.079.203.277.551.708.62 10.62 1.481 20.95 1.575 31.586.285.587-.08.867-.718.792-1.261-.023-.172-.148-.731-.743-.652-10.669 1.274-21.033 1.16-31.687-.349a.672.672 0 00-.125-.01v-.003z"/><path fill="#fff" d="M307.694 190.207v5.984c0 .826.69 1.365 1.541 1.193a90.576 90.576 0 006.131-1.431c.841-.222 1.523-1.077 1.523-1.896v-5.933c0-.819-.682-1.299-1.523-1.085-2.439.625-3.667.9-6.131 1.381-.851.167-1.541.96-1.541 1.787z"/><path fill="#647A8E" d="M308.918 197.592c-.339 0-.649-.104-.898-.306-.323-.261-.5-.647-.5-1.095v-5.984c0-.912.739-1.772 1.682-1.956 2.48-.483 3.68-.754 6.121-1.378.469-.121.928-.045 1.259.205.312.237.484.609.484 1.044v5.933c0 .897-.741 1.823-1.654 2.063a90.809 90.809 0 01-6.141 1.433c-.12.025-.238.036-.351.036l-.002.005zm6.841-10.428c-.113 0-.231.015-.352.045a89.685 89.685 0 01-6.141 1.383c-.771.149-1.4.875-1.4 1.615v5.984c0 .339.134.632.372.827.251.202.592.273.959.197a91.394 91.394 0 006.121-1.428c.769-.203 1.392-.979 1.392-1.729v-5.934c0-.326-.123-.599-.349-.771a.98.98 0 00-.602-.189z"/><path fill="#fff" d="M302.87 190.216c-10.639 1.27-21.031 1.153-31.638-.348-1.269-.2-1.267 2.123 0 2.318a120.846 120.846 0 0031.638.285c1.277-.174 1.274-2.426 0-2.255z"/><path fill="#647A8E" d="M288.118 193.55c-5.615 0-11.22-.397-16.91-1.19-.443-.069-.802-.375-.982-.837-.205-.529-.141-1.148.157-1.512.21-.258.523-.369.877-.313 10.617 1.504 20.951 1.617 31.586.348.592-.078 1.049.301 1.139.948.1.708-.29 1.54-1.093 1.651a122.15 122.15 0 01-14.774.905zm-17.035-3.521a.52.52 0 00-.428.199c-.218.268-.262.759-.103 1.171.08.202.277.551.708.619 10.62 1.484 20.953 1.575 31.589.286.584-.081.866-.715.789-1.262-.023-.171-.151-.73-.743-.652h-.003c-10.666 1.274-21.03 1.161-31.681-.349a.79.79 0 00-.126-.01l-.002-.002z"/><path fill="#fff" d="M264.648 196.394c12.618 2.49 25.079 2.945 37.848 1.383 1.777-.246 1.769-2.496 0-2.255-12.774 1.537-25.233 1.054-37.848-1.462-1.751-.376-1.746 1.96 0 2.334z"/><path fill="#647A8E" d="M287.778 198.868c-7.726 0-15.392-.764-23.166-2.298h-.003c-.672-.144-1.187-.581-1.377-1.17-.146-.45-.066-.913.205-1.209.28-.301.721-.404 1.247-.291 12.64 2.521 25.002 2.996 37.788 1.459.934-.126 1.436.384 1.516.948.097.698-.423 1.504-1.469 1.648-4.964.607-9.864.913-14.741.913zm-23.094-2.637c12.643 2.493 25.004 2.945 37.788 1.381.857-.119 1.241-.739 1.167-1.259-.054-.382-.377-.756-1.123-.655-12.828 1.544-25.225 1.064-37.907-1.464-.405-.088-.72-.023-.915.187-.19.205-.239.539-.131.87.151.47.569.819 1.115.938l.006.002z"/><path fill="#EBEFF3" d="M264.647 196.394c12.617 2.49 25.078 2.945 37.847 1.383 1.777-.246 1.77-2.496 0-2.255-12.774 1.537-25.232 1.054-37.847-1.462-1.752-.376-1.747 1.96 0 2.334z"/><path fill="#2C5CC5" d="M271.231 192.186a120.846 120.846 0 0031.638.285c1.277-.174 1.274-2.426 0-2.255-10.639 1.27-21.031 1.153-31.638-.348-1.269-.2-1.267 2.123 0 2.318z"/><path fill="#F5F7F9" d="M307.694 190.203v5.984c0 .826.69 1.365 1.541 1.193a90.576 90.576 0 006.131-1.431c.841-.222 1.523-1.077 1.523-1.896v-5.933c0-.819-.682-1.299-1.523-1.084a90.21 90.21 0 01-6.131 1.38c-.851.167-1.541.96-1.541 1.787z"/><path fill="#CFD7DF" d="M308.743 197.588l-.171-.041a1.356 1.356 0 01-.688-.391l-.118-.127.259-.235.118.126c.134.142.311.243.511.289l.171.04-.079.336-.003.003zm.429-.015l-.072-.339.171-.035.685-.142.172-.035.072.338-.172.036-.687.141-.172.036h.003zm1.374-.283l-.075-.339.172-.036.685-.146.172-.038.077.336-.172.038c-.221.048-.449.099-.685.149l-.172.036h-.002zm1.372-.301l-.08-.337.172-.04.679-.159.172-.041.082.337-.172.04c-.228.056-.456.109-.684.159l-.172.041h.003zm1.366-.324l-.084-.336.169-.043c.218-.056.443-.111.679-.172l.17-.043.087.334-.169.043-.68.172-.169.043-.003.002zm-5.712-.04l-.029-.17a1.537 1.537 0 01-.023-.265v-.627h.352v.627c0 .071.005.141.018.207l.028.17-.346.058zm7.074-.304l-.09-.333.767-.2c.023-.005.048-.013.071-.02l.167-.053.108.328-.167.053c-.028.01-.059.018-.087.026l-.767.202-.002-.003zm1.387-.475l-.215-.273.138-.106a2.14 2.14 0 00.441-.465l.097-.144.29.194-.097.144c-.144.208-.316.39-.516.544l-.138.106zm-8.161-.629h-.352v-1.037h.352v1.037zm9.087-.529l-.339-.088.044-.167c.033-.126.051-.253.051-.374v-.44h.351v.44c0 .151-.02.308-.061.462l-.044.167h-.002zm-9.087-.852h-.352V192.8h.352v1.036zm9.194-.563h-.351v-1.037h.351v1.037zm-9.194-.819h-.352v-1.037h.352v1.037zm9.194-.564h-.351v-1.037h.351v1.037zm-9.194-.819h-.352v-.865c0-.243.052-.483.154-.718l.069-.159.323.136-.069.16a1.441 1.441 0 00-.125.581v.865zm9.194-.564h-.351v-1.036h.351v1.036zm-8.835-1.279l-.254-.238.12-.126c.18-.185.385-.334.61-.445l.157-.076.156.311-.156.076c-.19.093-.362.217-.513.374l-.12.126v-.002zm8.835-.104h-.351v-1.036h.351v1.036zm-7.748-.543l-.07-.339.172-.033c.241-.048.469-.091.687-.136l.172-.036.069.339-.171.035-.688.137-.171.033zm1.377-.273l-.072-.339.172-.035c.235-.048.461-.097.684-.145l.172-.035.074.339-.172.035c-.223.048-.451.096-.687.144l-.171.036zm1.374-.291l-.077-.336.172-.038c.225-.051.451-.101.682-.157l.172-.04.079.336-.172.04c-.231.053-.456.106-.684.157l-.172.038zm4.625-.2l-.074-.156a.848.848 0 00-.402-.4l-.159-.076.153-.311.159.076c.252.119.446.314.567.564l.074.157-.318.149v-.003zm-3.256-.116l-.085-.336.17-.041.679-.167.169-.043.085.337-.169.043-.682.167-.169.04h.002zm1.362-.336l-.088-.334.613-.157c.09-.022.177-.038.264-.048l.175-.017.036.343-.175.018c-.069.008-.141.02-.213.038l-.612.157z"/><path fill="#12344D" d="M120.679 201.663c30.376 8.681 74.075 1.253 74.075 1.253l2.602-11.808c-111.146 14.824-101.83-14.513-101.83-14.513 2.502-2.664 10.115-4.515 10.115-4.515l-.903-5.24c-4.02.824-6.661 2.404-8.29 3.767-1.594 1.332-11.768 20.769 24.233 31.058l-.002-.002z"/><path fill="#22313B" d="M156.965 205.935c-17.471 0-29.179-2.177-36.304-4.214-8.597-2.457-15.248-5.643-19.769-9.47-3.63-3.074-5.884-6.545-6.702-10.322-1.293-5.96 1.407-10.703 2.215-11.375 1.5-1.254 4.159-2.925 8.318-3.78.018-.002.036 0 .049.01a.06.06 0 01.025.041l.903 5.24a.063.063 0 01-.049.071c-.077.018-7.6 1.871-10.072 4.485-.071.248-1.028 3.875 2.35 7.816 4.112 4.801 12.627 8.049 25.306 9.655 17.446 2.206 42.381 1.18 74.111-3.052a.072.072 0 01.057.02c.015.016.02.036.015.056l-2.602 11.808a.064.064 0 01-.052.048c-.11.018-11.097 1.866-25.653 2.629-4.325.228-8.372.329-12.146.329v.005zm-52.281-39.022c-4.094.852-6.717 2.503-8.197 3.739-.69.577-3.451 5.344-2.172 11.255 2.32 10.711 15.628 16.621 26.382 19.695 8.656 2.475 24.079 5.155 48.404 3.881 14.092-.739 24.838-2.496 25.597-2.622l2.571-11.679c-31.701 4.224-56.621 5.245-74.062 3.038-12.71-1.61-21.251-4.873-25.381-9.699-3.526-4.118-2.377-7.908-2.364-7.946a.047.047 0 01.012-.022c2.372-2.526 9.38-4.341 10.087-4.518l-.879-5.119.002-.003z"/><path fill="#22313B" d="M95.523 176.601c2.502-2.665 10.477-4.508 10.477-4.508l.151-5.718c-4.02.824-8.077 2.877-9.705 4.237-.713 1.585-1.318 3.726-.923 5.989z"/><path fill="#22313B" d="M95.523 176.657s-.013 0-.018-.002c-.023-.008-.04-.026-.043-.051-.41-2.361.276-4.581.928-6.027.005-.007.01-.015.018-.022 1.756-1.469 5.876-3.459 9.733-4.252a.063.063 0 01.054.012.066.066 0 01.023.051l-.152 5.718c0 .028-.02.053-.048.061-.08.018-7.985 1.871-10.446 4.489a.064.064 0 01-.046.021l-.003.002zm.974-6.014c-.63 1.406-1.292 3.539-.933 5.817 2.474-2.49 9.71-4.265 10.372-4.424l.148-5.592c-3.805.797-7.848 2.751-9.587 4.199z"/></g><defs><clipPath id="clip0_9935_368379"><path fill="#fff" d="M0 0h400.942v214.993H0z" transform="translate(3.62 12.57)"/></clipPath></defs></svg>