<svg width="132" height="110" viewBox="0 0 132 110" fill="none" xmlns="http://www.w3.org/2000/svg"><g clip-path="url(#clip0_1_213)"><mask id="a" style="mask-type:luminance" maskUnits="userSpaceOnUse" x="0" y="0" width="132" height="110"><path d="M0 0h132v110H0V0z" fill="#fff"/></mask><g mask="url(#a)"><mask id="b" style="mask-type:luminance" maskUnits="userSpaceOnUse" x="0" y="0" width="132" height="110"><path d="M131.1 0H.9v109.3h130.2V0z" fill="#fff"/></mask><g mask="url(#b)"><path opacity=".2" d="M66 101.8a50 50 0 100-100 50 50 0 000 100z" fill="#BEC6D2"/><path d="M29 16.3h74c3 0 5.6 2.5 5.6 5.6v59.7c0 3.1-2.5 5.7-5.7 5.7H29.1a5.7 5.7 0 01-5.7-5.7V22c0-3.2 2.5-5.7 5.7-5.7H29z" fill="#fff" stroke="#91A1B0" stroke-width="1.2" stroke-miterlimit="10"/><path d="M125 108.7h5.5m-35.5 0h24m-117.5 0h87.8" stroke="#91A1B0" stroke-width="1.2" stroke-linecap="round" stroke-linejoin="round"/><path d="M28.6 17h74.8c2.5 0 4.5 2 4.5 4.4v11.9H24V21.5c0-2.5 2-4.6 4.6-4.6v.1z" fill="#91A1B0" stroke="#91A1B0" stroke-width=".8" stroke-linecap="round" stroke-linejoin="round"/><path d="M43.2 25.1h-9.9" stroke="#fff" stroke-width="1.2" stroke-miterlimit="10" stroke-linecap="round"/><path d="M9.4 14.7h6M22.6.6v6M12 5l4.8 3.6" stroke="#91A1B0" stroke-width="1.2" stroke-linecap="round" stroke-linejoin="round"/><path d="M103.2 98.7a18 18 0 100-36 18 18 0 000 36z" fill="#fff" stroke="#91A1B0" stroke-width="1.2" stroke-miterlimit="10"/><path d="M97.4 86.4a.6.6 0 010-.8L108 75c.3-.3.7-.3.9 0 .2.2.2.6 0 .8L98.3 86.4c-.3.3-.6.3-.9 0z" fill="#91A1B0"/><path d="M108 86.4L97.4 75.8a.6.6 0 010-.8c.3-.3.6-.3.9 0l10.6 10.6c.2.2.2.6 0 .8-.3.3-.6.3-.9 0z" fill="#91A1B0"/><path d="M41 40.4h-6a1 1 0 00-1 1v6c0 .5.4 1 1 1h6c.5 0 1-.5 1-1v-6c0-.6-.5-1-1-1zm31.2 2.5H47.3a.6.6 0 01-.6-.6c0-.4.3-.6.6-.6h25c.2 0 .5.2.5.6 0 .3-.3.6-.6.6zM66 47H47.3a.6.6 0 01-.6-.6c0-.3.3-.6.6-.6H66c.3 0 .6.3.6.6 0 .4-.3.6-.6.6zM41 54.4h-6a1 1 0 00-1 1v6c0 .5.4 1 1 1h6c.5 0 1-.5 1-1v-6c0-.6-.5-1-1-1zM72.2 57H47.3a.6.6 0 01-.6-.7c0-.3.3-.6.6-.6h25c.2 0 .5.3.5.6s-.3.6-.6.6v.1zM66 61H47.3a.6.6 0 01-.6-.5c0-.4.3-.6.6-.6H66c.3 0 .6.2.6.6 0 .3-.3.6-.6.6V61zM41 69.1h-6a1 1 0 00-1 1v6c0 .6.4 1 1 1h6c.5 0 1-.4 1-1v-6c0-.5-.5-1-1-1zm31.2 2.5H47.3a.6.6 0 01-.6-.6c0-.3.3-.6.6-.6h25c.2 0 .5.3.5.6 0 .4-.3.6-.6.6zM66 75.8H47.3a.6.6 0 01-.6-.6c0-.3.3-.6.6-.6H66c.3 0 .6.3.6.6s-.3.6-.6.6z" fill="#CFD7DF" opacity=".5"/></g></g></g><defs><clipPath id="clip0_1_213"><path fill="#fff" d="M0 0h132v110H0z"/></clipPath></defs></svg>