<svg width="132" height="110" fill="none" xmlns="http://www.w3.org/2000/svg"><g clip-path="url(#clip0_1_56)"><path d="M106.61 97.54h-.06l-90.15-.77c-4.05-.04-7.35-3.36-7.35-7.41V15.37c0-3.46 3.38-6.28 7.54-6.28h89.9c4.16 0 7.54 2.82 7.54 6.28v74.76c0 1.99-.78 3.86-2.19 5.26a7.353 7.353 0 01-5.22 2.15h-.01zm-90.2-1.62l90.15.77h.05c1.74 0 3.38-.67 4.62-1.9a6.504 6.504 0 001.94-4.65V15.37c0-2.99-3-5.42-6.68-5.42h-89.9c-3.68 0-6.68 2.43-6.68 5.42v74c0 3.58 2.91 6.52 6.49 6.55h.01z" fill="#586D7E"/><path d="M113.59 23.11H9.48c-.24 0-.43-.19-.43-.43s.19-.43.43-.43h104.11c.24 0 .43.19.43.43s-.19.43-.43.43zm-94.01-5.6c.87 0 1.57-.7 1.57-1.57 0-.87-.7-1.57-1.57-1.57-.87 0-1.57.7-1.57 1.57 0 .87.7 1.57 1.57 1.57zm7.04 0c.87 0 1.57-.7 1.57-1.57 0-.87-.7-1.57-1.57-1.57-.87 0-1.57.7-1.57 1.57 0 .87.7 1.57 1.57 1.57zm8.01 0c.87 0 1.57-.7 1.57-1.57 0-.87-.7-1.57-1.57-1.57-.87 0-1.57.7-1.57 1.57 0 .87.7 1.57 1.57 1.57zM80.82 78.1H42.64c-.24 0-.43-.19-.43-.43s.19-.43.43-.43h38.18c.24 0 .43.19.43.43s-.19.43-.43.43zm-11.57 5.54H42.64c-.24 0-.43-.19-.43-.43s.19-.43.43-.43h26.61c.24 0 .43.19.43.43s-.19.43-.43.43zM80.82 57H42.64c-.24 0-.43-.19-.43-.43s.19-.43.43-.43h38.18c.24 0 .43.19.43.43s-.19.43-.43.43zm-11.57 5.54H42.64c-.24 0-.43-.19-.43-.43s.19-.43.43-.43h26.61c.24 0 .43.19.43.43s-.19.43-.43.43zm11.57-27.21H42.64c-.24 0-.43-.19-.43-.43s.19-.43.43-.43h38.18c.24 0 .43.19.43.43s-.19.43-.43.43zm-11.57 5.54H42.64c-.24 0-.43-.19-.43-.43s.19-.43.43-.43h26.61c.24 0 .43.19.43.43s-.19.43-.43.43zM29.4 45.55c-4.53 0-8.21-3.68-8.21-8.21 0-4.53 3.68-8.21 8.21-8.21 4.53 0 8.21 3.68 8.21 8.21 0 4.53-3.68 8.21-8.21 8.21zm0-15.56c-4.05 0-7.35 3.3-7.35 7.35s3.3 7.35 7.35 7.35 7.35-3.3 7.35-7.35-3.3-7.35-7.35-7.35z" fill="#586D7E"/><path d="M29.4 39.52c-1.87 0-3.4-1.52-3.4-3.4s1.52-3.4 3.4-3.4 3.4 1.52 3.4 3.4-1.52 3.4-3.4 3.4zm0-5.94c-1.4 0-2.54 1.14-2.54 2.54 0 1.4 1.14 2.54 2.54 2.54 1.4 0 2.54-1.14 2.54-2.54 0-1.4-1.14-2.54-2.54-2.54z" fill="#586D7E"/><path d="M34.72 43.29c-.18 0-.34-.11-.4-.29a5.277 5.277 0 00-4.96-3.49c-2.22 0-4.19 1.39-4.94 3.46-.08.22-.33.34-.55.26a.435.435 0 01-.26-.55 6.136 6.136 0 015.75-4.02c2.56 0 4.9 1.63 5.77 4.06.08.22-.04.47-.26.55-.05.02-.1.03-.14.03l-.01-.01zM29.4 67.91c-4.53 0-8.21-3.68-8.21-8.21 0-4.53 3.68-8.21 8.21-8.21 4.53 0 8.21 3.68 8.21 8.21 0 4.53-3.68 8.21-8.21 8.21zm0-15.55c-4.05 0-7.35 3.3-7.35 7.35s3.3 7.35 7.35 7.35 7.35-3.3 7.35-7.35-3.3-7.35-7.35-7.35z" fill="#586D7E"/><path d="M29.4 61.88c-1.87 0-3.4-1.52-3.4-3.4s1.52-3.4 3.4-3.4 3.4 1.52 3.4 3.4-1.52 3.4-3.4 3.4zm0-5.93c-1.4 0-2.54 1.14-2.54 2.54 0 1.4 1.14 2.54 2.54 2.54 1.4 0 2.54-1.14 2.54-2.54 0-1.4-1.14-2.54-2.54-2.54z" fill="#586D7E"/><path d="M34.72 65.66c-.18 0-.34-.11-.4-.29a5.277 5.277 0 00-4.96-3.49c-2.22 0-4.19 1.39-4.94 3.46-.08.22-.33.34-.55.26a.435.435 0 01-.26-.55 6.136 6.136 0 015.75-4.02c2.56 0 4.9 1.63 5.77 4.06.08.22-.04.47-.26.55-.05.02-.1.02-.14.02h-.01zm-5.08 22.93c-4.53 0-8.21-3.68-8.21-8.21 0-4.53 3.68-8.21 8.21-8.21 4.53 0 8.21 3.68 8.21 8.21 0 4.53-3.68 8.21-8.21 8.21zm0-15.56c-4.05 0-7.35 3.3-7.35 7.35s3.3 7.35 7.35 7.35 7.35-3.3 7.35-7.35-3.3-7.35-7.35-7.35z" fill="#586D7E"/><path d="M29.64 82.55c-1.87 0-3.4-1.52-3.4-3.4s1.52-3.4 3.4-3.4 3.4 1.52 3.4 3.4-1.52 3.4-3.4 3.4zm0-5.93c-1.4 0-2.54 1.14-2.54 2.54 0 1.4 1.14 2.54 2.54 2.54 1.4 0 2.54-1.14 2.54-2.54 0-1.4-1.14-2.54-2.54-2.54z" fill="#586D7E"/><path d="M34.96 86.33c-.18 0-.34-.11-.4-.29a5.277 5.277 0 00-4.96-3.49c-2.22 0-4.19 1.39-4.94 3.46-.08.22-.33.34-.55.26a.435.435 0 01-.26-.55 6.136 6.136 0 015.75-4.02c2.56 0 4.9 1.63 5.77 4.06.08.22-.04.47-.26.55-.05.02-.1.02-.14.02h-.01zM60.24.43l2.58-.07V.5L60.24.43zm4.73-.11l2.58-.06v.33L64.97.54V.32zm4.73-.1l2.58-.03v.49L69.7.65V.22zm4.73-.06l2.58-.03v.6L74.43.7V.16zM79.15.1l2.58-.03v.72L79.15.76V.1zm4.73-.04h2.58v.75h-2.58V.06zm4.73-.02h2.58v.79h-2.58V.04zm4.73-.02h2.58v.83h-2.58V.02zM98.07 0h2.58v.85h-2.58V0zm4.73.02h2.58v.81h-2.58V.02zm4.73.02h2.58v.77h-2.58V.04zm4.76.05c.88.08 1.77.25 2.6.54l-.22.68c-.79-.25-1.61-.42-2.44-.48l.06-.74zm4.62 1.47c.76.45 1.48.98 2.12 1.59l-.41.44c-.62-.56-1.3-1.05-2.03-1.45l.33-.58h-.01zm3.54 3.26c.51.72.93 1.5 1.25 2.32l-.44.18c-.33-.77-.75-1.51-1.25-2.18l.44-.32zm1.85 4.43c.07.43.12.87.15 1.31.03.44.01.88 0 1.3h-.32c0-.43-.01-.86-.06-1.28-.04-.42-.1-.84-.19-1.25l.42-.08zm.1 4.76l-.06 2.58h-.12l-.06-2.58h.24zM.78 89.35c.03.86.07 1.72.09 2.58H.69c.02-.86.06-1.72.09-2.58zm.16 4.73l.07 2.58H.56l.07-2.58h.31zm.22 4.68c.16.82.45 1.6.85 2.32l-.55.3a7.84 7.84 0 01-.83-2.53l.53-.09zm2.1 3.96a7.57 7.57 0 001.99 1.43l-.34.67c-.8-.42-1.53-.96-2.14-1.62l.5-.48h-.01zm3.91 2.08c.4.08.81.12 1.22.13h1.28v.83c-.43 0-.85 0-1.3-.01-.45-.02-.9-.07-1.35-.17l.15-.78zm4.65.12h2.58v.85h-2.58v-.85zm4.72 0h2.58v.84h-2.58v-.84zm4.73.01l2.58.02v.77l-2.58.02v-.82.01zm4.73.04l2.58.04v.66l-2.58.03v-.73zm4.73.07l2.58.05v.49l-2.58.05v-.59zm4.73.11l2.58.08v.24l-2.58.07v-.39zm4.73.14l1.35.05-1.35.05v-.1z" fill="#586D7E"/><path fill-rule="evenodd" clip-rule="evenodd" d="M104.9 43.41c-.09 0-.19-.03-.25-.1l-1.75-1.63a.847.847 0 00-.6-.24h-6.96c-.59 0-1.1-.43-1.2-1l-1.13 1.06c-.07.06-.16.1-.25.1a.38.38 0 01-.38-.38v-8.73c0-.67.55-1.22 1.22-1.22h8.72c.68 0 1.22.55 1.22 1.22v.59h.33c.35 0 .72.03 1.06.36.23.23.36.54.36.86v8.73c0 .21-.17.38-.38.38h-.01zm-10.02-3.57c0 .24-.02.56.15.73.07.08.18.11.32.11h6.96c.43 0 .8.15 1.11.44l1.11 1.04V34.3c0-.26-.21-.46-.46-.46h-.52v4.57c0 .67-.55 1.22-1.22 1.22h-6.94l-.49.16v.06l-.02-.01zm-1.29-7.82c-.26 0-.46.21-.46.46v7.86l1.11-1.04c.31-.29.69-.44 1.11-.44h6.96c.26 0 .47-.21.47-.46v-5.91c0-.26-.21-.46-.47-.46h-8.72v-.01zm1.7 4.95c-.25 0-.37-.19-.37-.38s.13-.38.37-.38h5.33c.25 0 .37.19.37.38s-.13.38-.37.38h-5.33zm0-2.3c-.25 0-.37-.19-.37-.38s.13-.38.37-.38h5.33c.25 0 .37.19.37.38s-.13.38-.37.38h-5.33zm9.61 31.1c-.09 0-.19-.03-.25-.1l-1.75-1.63a.847.847 0 00-.6-.24h-6.96c-.59 0-1.1-.43-1.2-1l-1.13 1.06c-.07.06-.16.1-.25.1a.38.38 0 01-.38-.38v-8.73c0-.67.55-1.22 1.22-1.22h8.72c.68 0 1.22.55 1.22 1.22v.59h.33c.35 0 .72.03 1.06.36.23.23.36.54.36.86v8.73c0 .21-.17.38-.38.38h-.01zM94.88 62.2c0 .24-.02.56.15.73.07.08.18.11.32.11h6.96c.43 0 .8.15 1.11.44l1.11 1.04v-7.86c0-.26-.21-.46-.46-.46h-.52v4.57c0 .67-.55 1.22-1.22 1.22h-6.94l-.49.16v.06l-.02-.01zm-1.29-7.81c-.26 0-.46.21-.46.46v7.86l1.11-1.04c.31-.29.69-.44 1.11-.44h6.96c.26 0 .47-.21.47-.46v-5.91c0-.26-.21-.46-.47-.46h-8.72v-.01zm1.7 4.94c-.25 0-.37-.19-.37-.38s.13-.38.37-.38h5.33c.25 0 .37.19.37.38s-.13.38-.37.38h-5.33zm0-2.29c-.25 0-.37-.19-.37-.38s.13-.38.37-.38h5.33c.25 0 .37.19.37.38s-.13.38-.37.38h-5.33zm9.61 29.41c-.09 0-.19-.03-.25-.1l-1.75-1.63a.847.847 0 00-.6-.24h-6.96c-.59 0-1.1-.43-1.2-1l-1.13 1.06c-.07.06-.16.1-.25.1a.38.38 0 01-.38-.38v-8.73c0-.67.55-1.22 1.22-1.22h8.72c.68 0 1.22.55 1.22 1.22v.59h.33c.35 0 .72.03 1.06.36.23.23.36.54.36.86v8.73c0 .21-.17.38-.38.38h-.01zm-10.02-3.57c0 .24-.02.56.15.73.07.08.18.11.32.11h6.96c.43 0 .8.15 1.11.44l1.11 1.04v-7.86c0-.26-.21-.46-.46-.46h-.52v4.57c0 .67-.55 1.22-1.22 1.22h-6.94l-.49.16v.06l-.02-.01zm-1.29-7.82c-.26 0-.46.21-.46.46v7.86l1.11-1.04c.31-.29.69-.44 1.11-.44h6.96c.26 0 .47-.21.47-.46v-5.91c0-.26-.21-.46-.47-.46h-8.72v-.01zm1.7 4.95c-.25 0-.37-.19-.37-.38s.13-.38.37-.38h5.33c.25 0 .37.19.37.38s-.13.38-.37.38h-5.33zm0-2.29c-.25 0-.37-.19-.37-.38s.13-.38.37-.38h5.33c.25 0 .37.19.37.38s-.13.38-.37.38h-5.33z" fill="#586D7E"/><path d="M112.7 109.39c10.33 0 18.7-8.37 18.7-18.7s-8.37-18.7-18.7-18.7S94 80.36 94 90.69s8.37 18.7 18.7 18.7z" fill="#1CA98A"/><path d="M105.78 85.12c0-.26.21-.47.47-.47h2.7c3.07 0 5.56 2.49 5.57 5.56v1.49l1.52-1.52c.18-.19.48-.19.66-.01.19.18.19.48.01.66l-.01.01-2.31 2.31s-.1.08-.15.1c-.11.05-.23.05-.34 0a.396.396 0 01-.15-.1l-2.31-2.31a.47.47 0 01.01-.66c.18-.17.47-.17.65 0l1.52 1.52v-1.49c0-2.56-2.08-4.63-4.63-4.63h-2.7a.47.47 0 01-.47-.47l-.04.01zm11.79-.47h-2.28a.47.47 0 100 .94h2.28c.95 0 1.71.77 1.71 1.71v6.71c0 .95-.77 1.71-1.71 1.71h-9.14c-.95 0-1.71-.77-1.71-1.71v-5.8a.47.47 0 10-.94 0V94c0 1.46 1.19 2.64 2.65 2.65h9.14c1.46 0 2.64-1.19 2.65-2.65v-6.71c0-1.46-1.19-2.64-2.65-2.65v.01z" fill="#fff"/></g><defs><clipPath id="clip0_1_56"><path fill="#fff" d="M0 0h132v110H0z"/></clipPath></defs></svg>