<svg xmlns="http://www.w3.org/2000/svg" width="92" height="88" fill="none" viewBox="0 0 92 88"><path fill="url(#paint0_radial)" d="M43.273 87.74c23.9 0 43.274-19.375 43.274-43.274 0-23.9-19.374-43.274-43.274-43.274C19.374 1.192 0 20.567 0 44.466s19.374 43.273 43.273 43.273z"/><path fill="url(#paint1_linear)" d="M81.041 58.781c-9.772 10.86-30.204 8.406-45.639-5.482C19.967 39.41 15.373 19.35 25.142 8.49 34.91-2.37 57.073-1.67 72.507 12.215 87.943 26.099 90.81 47.92 81.041 58.78z"/><path fill="url(#paint2_linear)" d="M56.736 33.992c2.913 0 5.274-3.137 5.274-7.006 0-3.87-2.361-7.006-5.274-7.006s-5.275 3.137-5.275 7.006 2.362 7.006 5.275 7.006z"/><path fill="url(#paint3_linear)" d="M34.81 30.927a5.637 5.637 0 01-.77 4.425 5.34 5.34 0 01-1.766 1.7 4.797 4.797 0 01-4.909 0 5.313 5.313 0 01-1.766-1.704 5.606 5.606 0 01-.77-4.424 8.054 8.054 0 001.882 3.547 4.05 4.05 0 006.19 0c.926-1 1.583-2.22 1.908-3.544z"/><path fill="url(#paint4_linear)" d="M61.605 30.927a5.62 5.62 0 01-.77 4.425 5.306 5.306 0 01-1.765 1.7 4.797 4.797 0 01-4.909 0 5.313 5.313 0 01-1.766-1.704 5.606 5.606 0 01-.77-4.424 8.054 8.054 0 001.882 3.547 4.05 4.05 0 006.19 0c.926-1 1.583-2.22 1.908-3.544z"/><ellipse cx="29.997" cy="36.5" fill="url(#paint5_radial)" fill-opacity=".6" rx="12" ry="6.5"/><ellipse cx="56.997" cy="36.5" fill="url(#paint6_radial)" fill-opacity=".6" rx="12" ry="6.5"/><path fill="url(#paint7_linear)" d="M15.27 48.317c-.216.1-.25.361-.289.573a4.38 4.38 0 00-.035.673c.018.453.063.904.135 1.35.142.893.343 1.774.6 2.64a28.387 28.387 0 001.99 5.001 27.778 27.778 0 006.397 8.356 25.497 25.497 0 008.968 5.083 35.24 35.24 0 0020.436 0 25.095 25.095 0 004.732-2.066 26.577 26.577 0 004.232-3.005 27.81 27.81 0 006.394-8.352c.82-1.601 1.487-3.276 1.993-5.002.258-.865.458-1.747.6-2.639.073-.447.117-.898.131-1.35a3.937 3.937 0 00-.03-.674c-.04-.211-.074-.473-.29-.573.232.073.305.346.386.554.058.225.098.454.119.685.042.463.054.928.034 1.393-.048.924-.159 1.845-.33 2.754a27.705 27.705 0 01-1.6 5.321 29.322 29.322 0 01-2.632 4.917 26.928 26.928 0 01-3.59 4.29 26.068 26.068 0 01-9.472 5.8c-3.512 1.228-7.22 2.105-10.883 2.132-3.663.027-7.372-.9-10.884-2.135a26 26 0 01-9.468-5.802 26.35 26.35 0 01-3.59-4.285 29.045 29.045 0 01-2.631-4.917 27.705 27.705 0 01-1.6-5.32c-.175-.91-.287-1.83-.335-2.755-.02-.465-.008-.93.035-1.393.02-.231.06-.46.119-.685.054-.223.127-.496.357-.57z"/><path fill="url(#paint8_linear)" d="M71.358 47.447c-1.831-.384-4.836 3.74-28.104 3.74s-26.272-4.128-28.084-3.74c-1.813.389 1.57 26.311 28.084 26.311 26.515 0 29.935-25.922 28.104-26.31z"/><path fill="url(#paint9_linear)" d="M29.886 33.992c2.913 0 5.275-3.137 5.275-7.006 0-3.87-2.362-7.006-5.275-7.006-2.913 0-5.274 3.137-5.274 7.006s2.361 7.006 5.274 7.006z"/><path fill="url(#paint10_linear)" d="M29.889 35.972c2.913 0 5.274-3.137 5.274-7.006s-2.361-7.006-5.274-7.006-5.275 3.137-5.275 7.006c0 3.87 2.362 7.006 5.275 7.006z"/><path fill="url(#paint11_linear)" d="M56.742 35.972c2.914 0 5.275-3.137 5.275-7.006s-2.361-7.006-5.275-7.006c-2.913 0-5.274 3.137-5.274 7.006 0 3.87 2.361 7.006 5.274 7.006z"/><path fill="#fff" d="M18.586 48.42v5.637a2.258 2.258 0 002.258 2.258l.712.085a187.816 187.816 0 0043.404.027l.977-.112a2.258 2.258 0 002.259-2.258V48.42s-24.942 6.078-49.61 0z"/><path fill="#D64964" d="M29.543 70.865s12.722-10.237 27.465-.03c.011.003-11.692 7.806-27.465.03z"/><path fill="url(#paint12_linear)" d="M29.997 70.415s12.5-9.415 26-.026c0 0-11.07 5.857-26 .026z"/><path fill="url(#paint13_linear)" d="M18.586 48.42v1.374s22.621 6.583 49.629 0v-1.373l-.27.027h-.138c-3.228.657-11.045 2.693-24.534 2.723-14.3.05-21.367-1.923-24.664-2.766l-.023.016z"/><path fill="url(#paint14_linear)" fill-rule="evenodd" d="M57.37 10.657a3.5 3.5 0 014.657-1.677c4.023 1.893 9.308 6.099 13.343 11.726 4.063 5.667 7.123 13.159 5.935 21.552a3.5 3.5 0 11-6.931-.981c.858-6.063-1.306-11.77-4.693-16.492-3.415-4.763-7.804-8.139-10.634-9.47a3.5 3.5 0 01-1.677-4.658z" clip-rule="evenodd"/><circle cx="52.057" cy="8.375" r="3.684" fill="#fff" fill-opacity=".24"/><defs><linearGradient id="paint7_linear" x1="43.254" x2="43.254" y1="76.163" y2="48.317" gradientUnits="userSpaceOnUse"><stop stop-color="#FFF200"/><stop offset=".13" stop-color="#F5CE08"/><stop offset=".53" stop-color="#F59B0F"/><stop offset="1" stop-color="#F66217"/></linearGradient><linearGradient id="paint14_linear" x1="56.149" x2="81.612" y1="20.098" y2="35.552" gradientUnits="userSpaceOnUse"><stop stop-color="#fff" stop-opacity=".46"/><stop offset="1" stop-color="#fff" stop-opacity="0"/></linearGradient><linearGradient id="paint2_linear" x1="56.736" x2="56.736" y1="19.976" y2="33.992" gradientUnits="userSpaceOnUse"><stop stop-color="#FBB040"/><stop offset=".09" stop-color="#FBB13D" stop-opacity=".96"/><stop offset=".24" stop-color="#FAB236" stop-opacity=".84"/><stop offset=".44" stop-color="#F9B52A" stop-opacity=".65"/><stop offset=".68" stop-color="#F7B819" stop-opacity=".39"/><stop offset=".96" stop-color="#F5BC04" stop-opacity=".06"/><stop offset="1" stop-color="#F5BD00" stop-opacity="0"/></linearGradient><linearGradient id="paint3_linear" x1="29.819" x2="29.819" y1="30.924" y2="37.728" gradientUnits="userSpaceOnUse"><stop stop-color="#FAAE3D"/><stop offset="1" stop-color="#FADC3D"/></linearGradient><linearGradient id="paint4_linear" x1="56.615" x2="56.615" y1="30.924" y2="37.728" gradientUnits="userSpaceOnUse"><stop stop-color="#FAAE3D"/><stop offset="1" stop-color="#FADC3D"/></linearGradient><linearGradient id="paint13_linear" x1="43.454" x2="43.373" y1="52.733" y2="47.986" gradientUnits="userSpaceOnUse"><stop stop-color="#F1F2F2"/><stop offset="1" stop-color="#BCBEC0"/></linearGradient><linearGradient id="paint12_linear" x1="42.997" x2="42.997" y1="67" y2="73" gradientUnits="userSpaceOnUse"><stop stop-color="#FF708B"/><stop offset=".621" stop-color="#FF708B" stop-opacity="0"/></linearGradient><linearGradient id="paint1_linear" x1="45.497" x2="69.497" y1="30.5" y2="1" gradientUnits="userSpaceOnUse"><stop stop-color="#F5BD01"/><stop offset=".974" stop-color="#fff" stop-opacity=".51"/></linearGradient><linearGradient id="paint8_linear" x1="43.511" x2="42.838" y1="47.422" y2="73.747" gradientUnits="userSpaceOnUse"><stop stop-color="#04030A"/><stop offset="1" stop-color="#6D451C"/></linearGradient><linearGradient id="paint9_linear" x1="29.886" x2="29.886" y1="19.98" y2="33.992" gradientUnits="userSpaceOnUse"><stop stop-color="#ED9100" stop-opacity=".96"/><stop offset="1" stop-color="#C4C4C4" stop-opacity="0"/></linearGradient><linearGradient id="paint10_linear" x1="29.889" x2="29.889" y1="21.96" y2="35.972" gradientUnits="userSpaceOnUse"><stop stop-color="#0D2846"/><stop offset="1" stop-color="#0D2846"/></linearGradient><linearGradient id="paint11_linear" x1="56.742" x2="56.742" y1="21.96" y2="35.972" gradientUnits="userSpaceOnUse"><stop stop-color="#0D2846"/><stop offset="1" stop-color="#0D2846"/></linearGradient><radialGradient id="paint6_radial" cx="0" cy="0" r="1" gradientTransform="rotate(121.607 18.3 34.175) scale(9.0632 11.5582)" gradientUnits="userSpaceOnUse"><stop stop-color="#FFEA79"/><stop offset="1" stop-color="#F9E139" stop-opacity="0"/></radialGradient><radialGradient id="paint5_radial" cx="0" cy="0" r="1" gradientTransform="rotate(121.607 4.8 26.631) scale(9.0632 11.5582)" gradientUnits="userSpaceOnUse"><stop stop-color="#FFEA79"/><stop offset="1" stop-color="#F9E139" stop-opacity="0"/></radialGradient><radialGradient id="paint0_radial" cx="0" cy="0" r="1" gradientTransform="translate(11985 9779.25) scale(9734.78)" gradientUnits="userSpaceOnUse"><stop stop-color="#F9E139"/><stop offset=".28" stop-color="#F8DA2E"/><stop offset=".76" stop-color="#F6C811"/><stop offset="1" stop-color="#F5BD00"/></radialGradient></defs></svg>