<svg xmlns="http://www.w3.org/2000/svg" width="89" height="87" fill="none" viewBox="0 0 89 87"><path fill="url(#paint0_radial)" d="M43.732 86.547c23.9 0 43.273-19.374 43.273-43.274C87.005 19.374 67.631 0 43.732 0 19.832 0 .459 19.374.459 43.273c0 23.9 19.374 43.274 43.273 43.274z"/><path fill="url(#paint1_linear)" d="M27.252 58.924c5.713 0 10.344-4.802 10.344-10.726 0-5.924-4.631-10.726-10.344-10.726-5.712 0-10.343 4.802-10.343 10.726 0 5.924 4.63 10.726 10.343 10.726z"/><path fill="url(#paint2_linear)" d="M61.882 59.793c5.763 0 10.435-4.607 10.435-10.29 0-5.684-4.672-10.291-10.435-10.291-5.764 0-10.436 4.607-10.436 10.29 0 5.684 4.672 10.291 10.436 10.291z"/><ellipse cx="30.032" cy="55.101" fill="url(#paint3_radial)" fill-opacity=".7" rx="12" ry="6.5"/><ellipse cx="57.032" cy="55.101" fill="url(#paint4_radial)" fill-opacity=".7" rx="12" ry="6.5"/><path fill="#491C36" d="M31.29 58.335c3.476 0 6.294-3.743 6.294-8.36 0-4.617-2.818-8.36-6.294-8.36-3.476 0-6.294 3.743-6.294 8.36 0 4.617 2.818 8.36 6.294 8.36zM57.285 58.335c3.477 0 6.294-3.743 6.294-8.36 0-4.617-2.818-8.36-6.294-8.36-3.476 0-6.294 3.743-6.294 8.36 0 4.617 2.818 8.36 6.294 8.36z"/><path fill="#491C36" fill-rule="evenodd" d="M32.696 68.556v-.001l.015-.014.07-.068c.064-.063.166-.158.302-.278.273-.241.683-.582 1.22-.962a16.449 16.449 0 014.599-2.282c3.856-1.195 9.377-1.254 15.907 3.724a1.154 1.154 0 101.399-1.836c-7.14-5.444-13.44-5.503-17.99-4.093a18.759 18.759 0 00-5.25 2.604 16.95 16.95 0 00-1.414 1.115 11.649 11.649 0 00-.48.449l-.03.03-.009.01-.003.003h-.001c-.001.002-.002.002.832.8l-.834-.798a1.154 1.154 0 001.667 1.597z" clip-rule="evenodd"/><path fill="#491C36" d="M36.464 45.612s-8.175-7.759-16.54-8.17c0 0-5.133-.61-2.005-2.41 3.127-1.798 16.326-1.614 20.71 8.298 2.257 5.103-2.165 2.282-2.165 2.282zM50.8 46.666s8.176-7.76 16.54-8.172c0 0 5.133-.61 2.005-2.408-3.127-1.8-16.325-1.614-20.71 8.297-2.257 5.103 2.165 2.283 2.165 2.283z"/><path fill="url(#paint5_linear)" fill-rule="evenodd" d="M52.05 8.875a3.5 3.5 0 014.135-2.72c4.354.9 10.477 3.753 15.715 8.28 5.276 4.56 10.003 11.128 10.811 19.567a3.5 3.5 0 11-6.968.667c-.584-6.096-4.023-11.137-8.42-14.937-4.434-3.832-9.49-6.088-12.554-6.721a3.5 3.5 0 01-2.72-4.136z" clip-rule="evenodd"/><circle cx="46.673" cy="7.661" r="3.684" fill="#FFCFCF" fill-opacity=".24"/><defs><radialGradient id="paint0_radial" cx="0" cy="0" r="1" gradientTransform="translate(43.732 43.273) scale(43.2734)" gradientUnits="userSpaceOnUse"><stop offset=".02" stop-color="#EE84D8"/><stop offset=".14" stop-color="#EE83CD"/><stop offset=".26" stop-color="#EE81BD"/><stop offset=".5" stop-color="#EE7B93"/><stop offset=".84" stop-color="#EE7350"/><stop offset="1" stop-color="#EE6E2D"/></radialGradient><radialGradient id="paint3_radial" cx="0" cy="0" r="1" gradientTransform="rotate(121.607 -.38 35.941) scale(9.0632 11.5582)" gradientUnits="userSpaceOnUse"><stop stop-color="#FFDAE9"/><stop offset="1" stop-color="#EE7773" stop-opacity="0"/></radialGradient><radialGradient id="paint4_radial" cx="0" cy="0" r="1" gradientTransform="rotate(121.607 13.12 43.485) scale(9.0632 11.5582)" gradientUnits="userSpaceOnUse"><stop stop-color="#FFDAE9"/><stop offset="1" stop-color="#EE7773" stop-opacity="0"/></radialGradient><linearGradient id="paint1_linear" x1="22.563" x2="36.281" y1="51.232" y2="36.603" gradientUnits="userSpaceOnUse"><stop stop-color="#EA6D55" stop-opacity=".07"/><stop offset=".74" stop-color="#BE1E2D" stop-opacity=".8"/></linearGradient><linearGradient id="paint2_linear" x1="57.15" x2="48.469" y1="52.413" y2="41.576" gradientUnits="userSpaceOnUse"><stop stop-color="#EA6D55" stop-opacity=".07"/><stop offset=".74" stop-color="#BE1E2D" stop-opacity=".8"/></linearGradient><linearGradient id="paint5_linear" x1="53.07" x2="81.441" y1="18.339" y2="27.41" gradientUnits="userSpaceOnUse"><stop stop-color="#FFBFBF" stop-opacity=".31"/><stop offset="1" stop-color="#fff" stop-opacity="0"/></linearGradient></defs></svg>