<svg xmlns="http://www.w3.org/2000/svg" width="92" height="87" fill="none" viewBox="0 0 92 87"><path fill="url(#paint0_radial)" d="M44.27 86.74c23.9 0 43.274-19.374 43.274-43.273 0-23.9-19.374-43.273-43.273-43.273C20.37.194.997 19.568.997 43.467c0 23.9 19.374 43.273 43.274 43.273z"/><path fill="url(#paint1_linear)" d="M82.039 57.782c-9.772 10.861-30.205 8.407-45.64-5.482C20.964 38.412 16.371 18.352 26.14 7.492c9.768-10.86 31.932-10.16 47.367 3.724 15.435 13.884 18.3 35.706 8.533 46.566z"/><path fill="url(#paint2_linear)" d="M57.733 36.993c2.913 0 5.275-3.137 5.275-7.006 0-3.87-2.362-7.006-5.275-7.006-2.913 0-5.274 3.137-5.274 7.006 0 3.87 2.361 7.006 5.274 7.006z"/><path fill="url(#paint3_linear)" d="M35.807 33.929a5.635 5.635 0 01-.77 4.424 5.34 5.34 0 01-1.765 1.7 4.797 4.797 0 01-4.91 0 5.313 5.313 0 01-1.765-1.704 5.606 5.606 0 01-.77-4.424 8.056 8.056 0 001.881 3.547 4.053 4.053 0 006.19 0 8.05 8.05 0 001.909-3.543z"/><path fill="url(#paint4_linear)" d="M62.603 33.929a5.62 5.62 0 01-.77 4.424 5.305 5.305 0 01-1.766 1.7 4.798 4.798 0 01-4.909 0 5.313 5.313 0 01-1.766-1.704 5.606 5.606 0 01-.77-4.424 8.056 8.056 0 001.882 3.547 4.053 4.053 0 006.19 0 8.05 8.05 0 001.909-3.543z"/><ellipse cx="30.994" cy="39.5" fill="url(#paint5_radial)" fill-opacity=".5" rx="12" ry="6.5"/><ellipse cx="57.995" cy="39.5" fill="url(#paint6_radial)" fill-opacity=".5" rx="12" ry="6.5"/><path fill="url(#paint7_linear)" d="M30.884 36.993c2.913 0 5.274-3.137 5.274-7.006 0-3.87-2.361-7.006-5.274-7.006-2.914 0-5.275 3.137-5.275 7.006 0 3.87 2.361 7.006 5.274 7.006z"/><path fill="url(#paint8_linear)" d="M30.886 38.973c2.913 0 5.275-3.136 5.275-7.006 0-3.869-2.362-7.005-5.275-7.005-2.913 0-5.274 3.136-5.274 7.005 0 3.87 2.361 7.006 5.274 7.006z"/><path fill="url(#paint9_linear)" d="M57.74 38.973c2.913 0 5.274-3.136 5.274-7.006 0-3.869-2.361-7.005-5.274-7.005s-5.275 3.136-5.275 7.005c0 3.87 2.362 7.006 5.275 7.006z"/><path fill="url(#paint10_linear)" d="M22.994 52.012a58.27 58.27 0 0010.25 5.386 31.826 31.826 0 0010.718 2.354h1.354c.45 0 .9-.065 1.35-.088.224 0 .45 0 .674-.047l.67-.096c.445-.069.9-.115 1.338-.219a27.785 27.785 0 005.263-1.577c3.462-1.412 6.725-3.463 10.026-5.725a26.186 26.186 0 01-8.676 8.433c-.434.289-.915.496-1.377.743-.463.244-.938.465-1.424.661-.488.193-.977.385-1.47.574-.492.188-1.015.296-1.538.446-.506.144-1.02.259-1.539.342l-.77.15c-.261.046-.526.066-.792.096l-.792.077c-.265.032-.53.05-.797.05-.53 0-1.062.027-1.593.027a25.618 25.618 0 01-11.926-3.485 29.739 29.739 0 01-4.967-3.582 23.6 23.6 0 01-3.982-4.52z"/><path fill="url(#paint11_linear)" fill-rule="evenodd" d="M56.967 9.496a3.5 3.5 0 014.508-2.043c4.161 1.567 9.765 5.337 14.236 10.625 4.502 5.324 8.15 12.548 7.634 21.01a3.5 3.5 0 11-6.987-.425c.372-6.113-2.24-11.628-5.993-16.066-3.784-4.475-8.428-7.49-11.356-8.592a3.5 3.5 0 01-2.042-4.51z" clip-rule="evenodd"/><circle cx="49.612" cy="6.953" r="3.684" fill="#fff" fill-opacity=".24"/><defs><linearGradient id="paint11_linear" x1="56.503" x2="83.116" y1="19.004" y2="32.379" gradientUnits="userSpaceOnUse"><stop stop-color="#fff" stop-opacity=".46"/><stop offset="1" stop-color="#fff" stop-opacity="0"/></linearGradient><linearGradient id="paint2_linear" x1="57.733" x2="57.733" y1="22.977" y2="36.993" gradientUnits="userSpaceOnUse"><stop stop-color="#FBB040"/><stop offset=".09" stop-color="#FBB13D" stop-opacity=".96"/><stop offset=".24" stop-color="#FAB236" stop-opacity=".84"/><stop offset=".44" stop-color="#F9B52A" stop-opacity=".65"/><stop offset=".68" stop-color="#F7B819" stop-opacity=".39"/><stop offset=".96" stop-color="#F5BC04" stop-opacity=".06"/><stop offset="1" stop-color="#F5BD00" stop-opacity="0"/></linearGradient><linearGradient id="paint3_linear" x1="30.816" x2="30.816" y1="33.925" y2="40.729" gradientUnits="userSpaceOnUse"><stop stop-color="#FAAE3D"/><stop offset="1" stop-color="#FADC3D"/></linearGradient><linearGradient id="paint4_linear" x1="57.612" x2="57.612" y1="33.925" y2="40.729" gradientUnits="userSpaceOnUse"><stop stop-color="#FAAE3D"/><stop offset="1" stop-color="#FADC3D"/></linearGradient><linearGradient id="paint1_linear" x1="46.495" x2="70.495" y1="29.501" y2=".001" gradientUnits="userSpaceOnUse"><stop stop-color="#F5BD01"/><stop offset=".974" stop-color="#fff" stop-opacity=".51"/></linearGradient><linearGradient id="paint7_linear" x1="30.884" x2="30.884" y1="22.981" y2="36.993" gradientUnits="userSpaceOnUse"><stop stop-color="#ED9100" stop-opacity=".96"/><stop offset="1" stop-color="#C4C4C4" stop-opacity="0"/></linearGradient><linearGradient id="paint8_linear" x1="30.886" x2="30.886" y1="24.962" y2="38.973" gradientUnits="userSpaceOnUse"><stop stop-color="#0D2846"/><stop offset="1" stop-color="#0D2846"/></linearGradient><linearGradient id="paint9_linear" x1="57.74" x2="57.74" y1="24.962" y2="38.973" gradientUnits="userSpaceOnUse"><stop stop-color="#0D2846"/><stop offset="1" stop-color="#0D2846"/></linearGradient><linearGradient id="paint10_linear" x1="43.995" x2="43.816" y1="52" y2="63.599" gradientUnits="userSpaceOnUse"><stop/><stop offset="1" stop-color="#6D451C"/></linearGradient><radialGradient id="paint5_radial" cx="0" cy="0" r="1" gradientTransform="rotate(121.607 4.46 28.41) scale(9.0632 11.5582)" gradientUnits="userSpaceOnUse"><stop stop-color="#FFEA79"/><stop offset="1" stop-color="#F9E139" stop-opacity="0"/></radialGradient><radialGradient id="paint0_radial" cx="0" cy="0" r="1" gradientTransform="translate(11986 9778.25) scale(9734.78)" gradientUnits="userSpaceOnUse"><stop stop-color="#F9E139"/><stop offset=".28" stop-color="#F8DA2E"/><stop offset=".76" stop-color="#F6C811"/><stop offset="1" stop-color="#F5BD00"/></radialGradient><radialGradient id="paint6_radial" cx="0" cy="0" r="1" gradientTransform="rotate(121.607 17.96 35.954) scale(9.0632 11.5582)" gradientUnits="userSpaceOnUse"><stop stop-color="#FFEA79"/><stop offset="1" stop-color="#F9E139" stop-opacity="0"/></radialGradient></defs></svg>