<svg xmlns="http://www.w3.org/2000/svg" width="96" height="87" fill="none" viewBox="0 0 96 87"><path fill="url(#paint0_radial)" d="M44.27 86.601c23.9 0 43.274-19.374 43.274-43.273 0-23.9-19.374-43.274-43.273-43.274C20.37.054.997 19.43.997 43.328S20.371 86.6 44.271 86.6z"/><path fill="url(#paint1_linear)" d="M82.062 57.836c-9.772 10.86-30.205 8.406-45.64-5.479C20.987 38.473 16.39 18.406 26.162 7.55s31.932-10.165 47.367 3.724c15.435 13.888 18.3 35.706 8.533 46.563z"/><path fill="url(#paint2_linear)" fill-rule="evenodd" d="M65.767 13.798a3.5 3.5 0 014.905-.666c3.538 2.693 7.827 7.91 10.595 14.257 2.788 6.39 4.214 14.357 1.297 22.316a3.5 3.5 0 01-6.573-2.408c2.108-5.75 1.184-11.783-1.14-17.11-2.343-5.37-5.93-9.59-8.419-11.485a3.5 3.5 0 01-.665-4.904z" clip-rule="evenodd"/><path fill="url(#paint3_linear)" d="M64.368 40.2l-11.326-7.622a2.1 2.1 0 01.093-3.539l12.1-7.264a.335.335 0 01.384.531l-8.045 7.752a1.539 1.539 0 00-.038 2.17l7.225 7.46a.334.334 0 01-.393.512z"/><path fill="url(#paint4_linear)" d="M24.188 40.2L35.5 32.578a2.097 2.097 0 00-.092-3.539l-12.1-7.264a.335.335 0 00-.384.531l8.048 7.752a1.539 1.539 0 01.038 2.17l-7.229 7.46a.335.335 0 00.408.512z"/><path fill="url(#paint5_linear)" d="M52.273 11.815l.073.123c.027.05.07.108.104.162.034.054.15.211.227.32.077.107.17.207.258.31.086.106.178.206.276.3l.29.293.315.27c.212.177.432.344.661.5a10.385 10.385 0 003.051 1.388l.827.212.85.139.424.069.434.034.866.062h1.75l1.763-.158h.096a1.352 1.352 0 01.238 2.693h-.065l-1.966.077c-.662-.023-1.32-.038-1.981-.088l-.99-.12-.495-.065-.493-.1-.98-.215-.97-.3a12.695 12.695 0 01-3.617-1.874 9.423 9.423 0 01-.792-.666l-.385-.357-.354-.385a4.86 4.86 0 01-.335-.385c-.107-.142-.215-.277-.311-.427-.096-.15-.2-.292-.293-.454-.046-.08-.092-.15-.134-.242-.043-.093-.085-.158-.143-.289a.98.98 0 011.724-.93l.077.103z"/><path fill="url(#paint6_linear)" d="M38.808 12.338a5.55 5.55 0 01-.254.504c-.085.158-.181.3-.273.443-.093.142-.197.28-.3.419a3.981 3.981 0 01-.32.385l-.335.384-.361.358a9.722 9.722 0 01-.77.666 12.413 12.413 0 01-3.54 1.923l-.953.316-.974.227-.488.111-.489.07-.989.138c-.654.062-1.311.085-1.973.123l-1.966-.046a1.35 1.35 0 01.062-2.693H25.092l1.762.189c.581 0 1.155.046 1.755.046l.87-.05.438-.023.427-.062.861-.123.84-.2a10.56 10.56 0 003.13-1.354c.239-.155.469-.322.69-.5l.326-.27.304-.296c.105-.095.202-.196.293-.304.092-.104.192-.208.273-.32.08-.11.177-.218.246-.33.07-.112.158-.242.2-.312l.046-.077a.708.708 0 011.255.647v.011z"/><path fill="url(#paint7_linear)" d="M23.461 62.025a2.407 2.407 0 01-2.758-3.178c2.246-6.113 8.463-16.966 24.237-16.966 15.916 0 21.379 11.042 23.183 17.12a2.409 2.409 0 01-2.793 3.047c-6.975-1.439-23.218-3.835-41.869-.023z"/><path fill="#fff" d="M30.444 45.775h.088c10.488 0 16.1 0 27.539-.62 0 0-13.435-9.13-27.627.62z"/><path fill="url(#paint8_linear)" d="M31.84 63.968c6.429-.55 16.893-1.127 26-.18 3.02.315 4.616 2.35 3.077 3.935-2.646 2.724-7.736 6.24-16.385 6.275-7.763.027-12.907-3.267-15.812-5.963-1.746-1.628-.077-3.794 3.12-4.067z"/><circle cx="60.017" cy="11.17" r="3.684" fill="#fff" fill-opacity=".24"/><defs><linearGradient id="paint1_linear" x1="48.023" x2="78.02" y1="37.341" y2="6.84" gradientUnits="userSpaceOnUse"><stop stop-color="#F5BD01" stop-opacity="0"/><stop offset=".974" stop-color="#fff"/></linearGradient><linearGradient id="paint2_linear" x1="62.599" x2="84.266" y1="22.774" y2="43.212" gradientUnits="userSpaceOnUse"><stop stop-color="#fff" stop-opacity=".46"/><stop offset="1" stop-color="#fff" stop-opacity="0"/></linearGradient><linearGradient id="paint3_linear" x1="58.912" x2="58.912" y1="21.746" y2="40.224" gradientUnits="userSpaceOnUse"><stop stop-color="#0D2846"/><stop offset="1" stop-color="#0D2846"/></linearGradient><linearGradient id="paint4_linear" x1="29.631" x2="29.631" y1="21.746" y2="40.234" gradientUnits="userSpaceOnUse"><stop stop-color="#0D2846"/><stop offset="1" stop-color="#0D2846"/></linearGradient><linearGradient id="paint5_linear" x1="4529.32" x2="5175.99" y1="5995.05" y2="5995.05" gradientUnits="userSpaceOnUse"><stop stop-color="#603913"/><stop offset=".11" stop-color="#6B3F14"/><stop offset=".3" stop-color="#884F18"/><stop offset=".51" stop-color="#AF651C"/><stop offset=".61" stop-color="#AA621B"/><stop offset=".73" stop-color="#9D5B1A"/><stop offset=".85" stop-color="#864E17"/><stop offset=".98" stop-color="#663D14"/><stop offset="1" stop-color="#603913"/></linearGradient><linearGradient id="paint6_linear" x1="3972.87" x2="3342.44" y1="5708.44" y2="5708.44" gradientUnits="userSpaceOnUse"><stop stop-color="#603913"/><stop offset=".11" stop-color="#6B3F14"/><stop offset=".3" stop-color="#884F18"/><stop offset=".51" stop-color="#AF651C"/><stop offset=".61" stop-color="#AA621B"/><stop offset=".73" stop-color="#9D5B1A"/><stop offset=".85" stop-color="#864E17"/><stop offset=".98" stop-color="#663D14"/><stop offset="1" stop-color="#603913"/></linearGradient><linearGradient id="paint7_linear" x1="44.596" x2="44.121" y1="41.881" y2="62.091" gradientUnits="userSpaceOnUse"><stop stop-color="#04030A"/><stop offset="1" stop-color="#6D451C"/></linearGradient><linearGradient id="paint8_linear" x1="44.767" x2="44.767" y1="73.998" y2="63.283" gradientUnits="userSpaceOnUse"><stop offset=".536" stop-color="#F7BD1E" stop-opacity=".8"/><stop offset="1" stop-color="#F69C17"/></linearGradient><radialGradient id="paint0_radial" cx="0" cy="0" r="1" gradientTransform="translate(9953.01 56628.5) scale(9734.78)" gradientUnits="userSpaceOnUse"><stop stop-color="#F9E139"/><stop offset=".28" stop-color="#F8DA2E"/><stop offset=".76" stop-color="#F6C811"/><stop offset="1" stop-color="#F5BD00"/></radialGradient></defs></svg>