<svg xmlns="http://www.w3.org/2000/svg" width="92" height="87" fill="none" viewBox="0 0 92 87"><path fill="url(#paint0_radial)" d="M44.268 86.74c23.9 0 43.273-19.374 43.273-43.273 0-23.9-19.374-43.273-43.273-43.273C20.368.194.995 19.568.995 43.467c0 23.9 19.374 43.273 43.273 43.273z"/><path fill="url(#paint1_linear)" d="M82.036 57.782C72.264 68.643 51.83 66.19 36.396 52.3 20.963 38.412 16.369 18.352 26.137 7.492c9.768-10.86 31.932-10.16 47.367 3.724C88.938 25.1 91.804 46.922 82.036 57.782z"/><path fill="url(#paint2_linear)" d="M57.73 35.993c2.913 0 5.275-3.137 5.275-7.006 0-3.87-2.362-7.006-5.275-7.006-2.913 0-5.274 3.137-5.274 7.006 0 3.87 2.361 7.006 5.274 7.006z"/><path fill="url(#paint3_linear)" d="M35.804 32.929a5.637 5.637 0 01-.77 4.424 5.34 5.34 0 01-1.765 1.7 4.797 4.797 0 01-4.91 0 5.313 5.313 0 01-1.765-1.704 5.606 5.606 0 01-.77-4.424 8.056 8.056 0 001.882 3.547 4.05 4.05 0 006.19 0c.926-1 1.582-2.22 1.908-3.543z"/><ellipse cx="30.994" cy="39.5" fill="url(#paint4_radial)" fill-opacity=".5" rx="12" ry="6.5"/><ellipse cx="57.995" cy="39.5" fill="url(#paint5_radial)" fill-opacity=".5" rx="12" ry="6.5"/><path fill="url(#paint6_linear)" d="M62.6 32.929a5.62 5.62 0 01-.77 4.424 5.305 5.305 0 01-1.765 1.7 4.797 4.797 0 01-4.91 0 5.313 5.313 0 01-1.765-1.704 5.606 5.606 0 01-.77-4.424 8.054 8.054 0 001.882 3.547 4.05 4.05 0 006.19 0c.925-1 1.582-2.22 1.908-3.543z"/><path fill="url(#paint7_linear)" d="M30.88 35.993c2.914 0 5.275-3.137 5.275-7.006 0-3.87-2.361-7.006-5.274-7.006s-5.275 3.137-5.275 7.006c0 3.87 2.362 7.006 5.275 7.006z"/><path fill="url(#paint8_linear)" d="M30.884 37.973c2.913 0 5.274-3.136 5.274-7.006 0-3.869-2.361-7.005-5.274-7.005-2.914 0-5.275 3.136-5.275 7.005 0 3.87 2.361 7.006 5.274 7.006z"/><path fill="url(#paint9_linear)" d="M57.737 37.973c2.913 0 5.274-3.136 5.274-7.006 0-3.869-2.361-7.005-5.274-7.005s-5.275 3.136-5.275 7.005c0 3.87 2.362 7.006 5.275 7.006z"/><path fill="url(#paint10_linear)" d="M61.495 58h-35a1.5 1.5 0 010-3h35a1.5 1.5 0 010 3z"/><path fill="url(#paint11_linear)" fill-rule="evenodd" d="M24.648 55c0-.744.603-1.346 1.346-1.346H62.12a1.347 1.347 0 010 2.692H25.995A1.346 1.346 0 0124.648 55z" clip-rule="evenodd"/><path fill="url(#paint12_linear)" fill-rule="evenodd" d="M56.964 9.496a3.5 3.5 0 014.508-2.043c4.161 1.567 9.765 5.337 14.236 10.625 4.502 5.324 8.15 12.548 7.634 21.01a3.5 3.5 0 11-6.987-.425c.372-6.113-2.24-11.628-5.993-16.066-3.784-4.475-8.428-7.49-11.356-8.592a3.5 3.5 0 01-2.042-4.51z" clip-rule="evenodd"/><circle cx="50.67" cy="6.953" r="3.684" fill="#fff" fill-opacity=".24"/><defs><linearGradient id="paint6_linear" x1="57.609" x2="57.609" y1="32.925" y2="39.729" gradientUnits="userSpaceOnUse"><stop stop-color="#FAAE3D"/><stop offset="1" stop-color="#FADC3D"/></linearGradient><linearGradient id="paint12_linear" x1="56.5" x2="83.114" y1="19.004" y2="32.379" gradientUnits="userSpaceOnUse"><stop stop-color="#fff" stop-opacity=".46"/><stop offset="1" stop-color="#fff" stop-opacity="0"/></linearGradient><linearGradient id="paint2_linear" x1="57.73" x2="57.73" y1="21.977" y2="35.993" gradientUnits="userSpaceOnUse"><stop stop-color="#FBB040"/><stop offset=".09" stop-color="#FBB13D" stop-opacity=".96"/><stop offset=".24" stop-color="#FAB236" stop-opacity=".84"/><stop offset=".44" stop-color="#F9B52A" stop-opacity=".65"/><stop offset=".68" stop-color="#F7B819" stop-opacity=".39"/><stop offset=".96" stop-color="#F5BC04" stop-opacity=".06"/><stop offset="1" stop-color="#F5BD00" stop-opacity="0"/></linearGradient><linearGradient id="paint3_linear" x1="30.813" x2="30.813" y1="32.925" y2="39.729" gradientUnits="userSpaceOnUse"><stop stop-color="#FAAE3D"/><stop offset="1" stop-color="#FADC3D"/></linearGradient><linearGradient id="paint11_linear" x1="44.224" x2="44.214" y1="53.654" y2="56.347" gradientUnits="userSpaceOnUse"><stop stop-color="#04030A"/><stop offset="1" stop-color="#6D451C"/></linearGradient><linearGradient id="paint10_linear" x1="43.995" x2="43.995" y1="56.5" y2="57.5" gradientUnits="userSpaceOnUse"><stop stop-color="#F9E139"/><stop offset="1" stop-color="#F9E139" stop-opacity="0"/></linearGradient><linearGradient id="paint1_linear" x1="46.492" x2="70.492" y1="29.501" y2=".001" gradientUnits="userSpaceOnUse"><stop stop-color="#F5BD01"/><stop offset=".974" stop-color="#fff" stop-opacity=".51"/></linearGradient><linearGradient id="paint7_linear" x1="30.881" x2="30.881" y1="21.981" y2="35.993" gradientUnits="userSpaceOnUse"><stop stop-color="#ED9100" stop-opacity=".96"/><stop offset="1" stop-color="#C4C4C4" stop-opacity="0"/></linearGradient><linearGradient id="paint8_linear" x1="30.884" x2="30.884" y1="23.962" y2="37.973" gradientUnits="userSpaceOnUse"><stop stop-color="#0D2846"/><stop offset="1" stop-color="#0D2846"/></linearGradient><linearGradient id="paint9_linear" x1="57.737" x2="57.737" y1="23.962" y2="37.973" gradientUnits="userSpaceOnUse"><stop stop-color="#0D2846"/><stop offset="1" stop-color="#0D2846"/></linearGradient><radialGradient id="paint5_radial" cx="0" cy="0" r="1" gradientTransform="rotate(121.607 17.96 35.954) scale(9.0632 11.5582)" gradientUnits="userSpaceOnUse"><stop stop-color="#FFEA79"/><stop offset="1" stop-color="#F9E139" stop-opacity="0"/></radialGradient><radialGradient id="paint4_radial" cx="0" cy="0" r="1" gradientTransform="rotate(121.607 4.46 28.41) scale(9.0632 11.5582)" gradientUnits="userSpaceOnUse"><stop stop-color="#FFEA79"/><stop offset="1" stop-color="#F9E139" stop-opacity="0"/></radialGradient><radialGradient id="paint0_radial" cx="0" cy="0" r="1" gradientTransform="translate(11986 9778.25) scale(9734.78)" gradientUnits="userSpaceOnUse"><stop stop-color="#F9E139"/><stop offset=".28" stop-color="#F8DA2E"/><stop offset=".76" stop-color="#F6C811"/><stop offset="1" stop-color="#F5BD00"/></radialGradient></defs></svg>