<svg xmlns="http://www.w3.org/2000/svg" width="20" height="20" fill="none" viewBox="0 0 20 20"><path fill="#345c7c" fill-rule="evenodd" d="M7.96.4A2.04 2.04 0 0110 2.44v5.52A2.04 2.04 0 017.96 10H2.44A2.04 2.04 0 01.4 7.96V2.44A2.04 2.04 0 012.44.4h5.52zm0 7.92a.36.36 0 00.36-.36V2.44a.36.36 0 00-.36-.36H2.44a.36.36 0 00-.36.36v5.52a.36.36 0 00.36.36h5.52zm9.6 1.68h-5.52A2.04 2.04 0 0010 12.04v5.52a2.04 2.04 0 002.04 2.04h5.52a2.04 2.04 0 002.04-2.04v-5.52A2.04 2.04 0 0017.56 10zm0 7.92a.36.36 0 00.36-.36v-5.52a.36.36 0 00-.36-.36h-5.52a.36.36 0 00-.36.36v5.52a.36.36 0 00.36.36h5.52zm0-17.52h-3.12a2.04 2.04 0 00-2.04 2.04v3.12a2.04 2.04 0 002.04 2.04h3.12a2.04 2.04 0 002.04-2.04V2.44A2.04 2.04 0 0017.56.4zm0 5.52a.36.36 0 00.36-.36V2.44a.36.36 0 00-.36-.36h-3.12a.36.36 0 00-.36.36v3.12a.36.36 0 00.36.36h3.12zm-12 6.48H2.44A2.04 2.04 0 00.4 14.44v3.12a2.04 2.04 0 002.04 2.04h3.12a2.04 2.04 0 002.04-2.04v-3.12a2.04 2.04 0 00-2.04-2.04zm-3.12 5.52h3.12a.36.36 0 00.36-.36v-3.12a.36.36 0 00-.36-.36H2.44a.36.36 0 00-.36.36v3.12a.36.36 0 00.36.36z"/></svg>