<svg width="40" height="40" viewBox="0 0 40 40" fill="none" xmlns="http://www.w3.org/2000/svg">
<rect width="39.9976" height="39.9976" rx="9.99939" fill="var(--ws-icon-color-4)"/>
<rect width="39.9976" height="39.9976" rx="9.99939" fill="var(--ws-icon-color-9)" fill-opacity="0.9"/>
<path fill-rule="evenodd" clip-rule="evenodd" d="M20.259 6.66626C20.7849 6.66626 21.2113 7.09263 21.2113 7.61858L21.2113 32.379C21.2113 32.9049 20.7849 33.3313 20.259 33.3313C19.733 33.3313 19.3066 32.9049 19.3066 32.379L19.3066 7.61858C19.3066 7.09263 19.733 6.66626 20.259 6.66626Z" fill="var(--ws-icon-color-4)"/>
<path fill-rule="evenodd" clip-rule="evenodd" d="M13.3325 15.7133C13.3325 12.8206 15.6776 10.4756 18.5703 10.4756H24.7604C25.2863 10.4756 25.7127 10.9019 25.7127 11.4279C25.7127 11.9538 25.2863 12.3802 24.7604 12.3802H18.5703C16.7295 12.3802 15.2372 13.8725 15.2372 15.7133C15.2372 17.5542 16.7295 19.0465 18.5703 19.0465H22.3796C25.2723 19.0465 27.6174 21.3915 27.6174 24.2842C27.6174 27.177 25.2723 29.522 22.3796 29.522H16.1895C15.6635 29.522 15.2372 29.0956 15.2372 28.5697C15.2372 28.0437 15.6635 27.6174 16.1895 27.6174H22.3796C24.2204 27.6174 25.7127 26.1251 25.7127 24.2842C25.7127 22.4434 24.2204 20.9511 22.3796 20.9511H18.5703C15.6776 20.9511 13.3325 18.6061 13.3325 15.7133Z" fill="var(--ws-icon-color-4)"/>
</svg>
