<svg xmlns="http://www.w3.org/2000/svg" width="40" height="40" fill="none" viewBox="0 0 40 40"><rect width="39.998" height="39.998" x="-.005" fill="var(--ws-icon-color-5)" rx="9.999"/><rect width="39.998" height="39.998" x="-.005" fill="var(--ws-icon-color-9)" fill-opacity=".9" rx="9.999"/><path fill="var(--ws-icon-color-5)" fill-rule="evenodd" d="M19.648 6.709c.227-.057.465-.057.692 0l10.952 2.738c.636.159 1.082.73 1.082 1.386v2.961a1.43 1.43 0 01-1.428 1.429h-1.429V26.65h1.429c.789 0 1.428.64 1.428 1.429v3.81c0 .788-.64 1.428-1.428 1.428H9.042c-.789 0-1.428-.64-1.428-1.429v-3.81c0-.788.64-1.428 1.428-1.428h1.429V15.223H9.042c-.789 0-1.428-.64-1.428-1.429v-2.961c0-.656.446-1.227 1.082-1.386l10.952-2.738zm.346 1.877L9.518 11.204v2.114h1.905c.526 0 .952.426.952.952v13.333a.952.952 0 01-.952.952H9.518v2.857H30.47v-2.857h-1.904a.952.952 0 01-.953-.952V14.27a.953.953 0 01.953-.952h1.904v-2.114L19.995 8.586zm-5.435 5.01a.952.952 0 01.673-.278h2.857c.526 0 .953.426.953.952v13.333a.952.952 0 01-.953.952h-2.857a.952.952 0 01-.952-.952V14.27c0-.252.1-.495.279-.673zm1.626 1.627V26.65h.952V15.223h-.952zm4.761-.953c0-.526.427-.952.953-.952h2.857c.526 0 .952.426.952.952v13.333a.952.952 0 01-.952.952h-2.857a.952.952 0 01-.953-.952V14.27zm1.905.953V26.65h.952V15.223h-.952z" clip-rule="evenodd"/></svg>