<svg xmlns="http://www.w3.org/2000/svg" width="36" height="36" fill="none" viewBox="0 0 36 36"><path fill="#6487BC" d="M28.004 0H7.996A7.996 7.996 0 000 7.996v20.008A7.996 7.996 0 007.996 36h20.008A7.996 7.996 0 0036 28.004V7.996A7.996 7.996 0 0028.004 0z"/><path fill="#AECCF8" d="M13.415 25.388V14.266a.502.502 0 00-.502-.502h-2.577a.502.502 0 00-.502.502v11.122c0 .277.225.502.502.502h2.577a.502.502 0 00.502-.502zm6.375 0V14.266a.502.502 0 00-.502-.502h-2.576a.502.502 0 00-.503.502v11.122c0 .277.225.502.503.502h2.576a.502.502 0 00.503-.502zm6.376 0V14.266a.502.502 0 00-.502-.502h-2.576a.502.502 0 00-.503.502v11.122c0 .277.225.502.503.502h2.576a.502.502 0 00.502-.502z"/><path fill="#E6F0FF" d="M8.062 11.54V9.842c0-.199.123-.379.303-.454l9.436-3.941a.549.549 0 01.389 0l9.435 3.94c.19.076.303.256.303.455v1.696a.505.505 0 01-.502.502H8.555a.505.505 0 01-.502-.502h.01z"/><path fill="#fff" d="M27.426 27.037H8.564a.502.502 0 00-.502.502v2.549c0 .277.225.502.502.502h18.862a.502.502 0 00.502-.502v-2.549a.502.502 0 00-.502-.502z"/></svg>