<svg xmlns="http://www.w3.org/2000/svg" width="36" height="36" fill="none" viewBox="0 0 36 36"><path fill="#EB8321" d="M28.004 0H7.996A7.996 7.996 0 000 7.996v20.008A7.996 7.996 0 007.996 36h20.008A7.996 7.996 0 0036 28.004V7.996A7.996 7.996 0 0028.004 0z"/><path fill="#fff" d="M13.642 15.5a3.932 3.932 0 100-7.863 3.932 3.932 0 000 7.863zm9 10.45v1.155a1.26 1.26 0 01-1.26 1.26H5.874a1.26 1.26 0 01-1.26-1.26v-.55c0-4.944 3.713-9.407 8.64-9.587a8.981 8.981 0 019.379 8.982h.01z"/><path fill="#FFAF63" d="M30.08 10.242h-7.315a1.31 1.31 0 01-1.307-1.308c0-.72.587-1.307 1.307-1.307h7.314c.72 0 1.307.587 1.307 1.307a1.31 1.31 0 01-1.307 1.308zm0 4.822h-7.315a1.31 1.31 0 01-1.307-1.307c0-.72.587-1.308 1.307-1.308h7.314c.72 0 1.307.588 1.307 1.308a1.31 1.31 0 01-1.307 1.307zm0 4.813h-7.315a1.31 1.31 0 01-1.307-1.308c0-.72.587-1.307 1.307-1.307h7.314c.72 0 1.307.587 1.307 1.307a1.31 1.31 0 01-1.307 1.308zm0 4.822h-2.9a1.31 1.31 0 01-1.307-1.308c0-.72.587-1.307 1.307-1.307h2.9c.72 0 1.307.587 1.307 1.307a1.31 1.31 0 01-1.308 1.308z"/></svg>