<svg xmlns="http://www.w3.org/2000/svg" width="36" height="36" fill="none" viewBox="0 0 36 36"><path fill="#8f5bba" d="M28 0H8a8 8 0 00-8 8v20a8 8 0 008 8h20a8 8 0 008-8V8a8 8 0 00-8-8z"/><path fill="#8239bf" d="M29.27 9.783V23.96c0 .695-.562 1.278-1.257 1.278H8.603c-.695 0-1.257-.583-1.257-1.278V9.783c0-.695.562-1.257 1.257-1.257h19.41c.695 0 1.257.562 1.257 1.257z"/><g fill="#fff"><path d="M15.087 26.527l-2.72 5.509c-.2.402-.54.638-.9.638a1.05 1.05 0 01-.52-.166c-.5-.355-.68-1.111-.38-1.702l2.1-4.28h2.42zm9.74 5.982c-.18.095-.36.166-.54.166-.36 0-.7-.236-.9-.638l-2.72-5.509h2.42l2.1 4.28c.3.591.12 1.348-.36 1.702zm-5.992-5.984v4.399c0 .692-.433 1.285-.956 1.285s-.938-.593-.938-1.285v-4.399h1.895zm-7.557-4.752a.884.884 0 01-.529-.184.883.883 0 01-.149-1.22l4.398-5.632c.149-.2.38-.318.645-.334.248 0 .496.084.661.267l3.489 3.677 4.233-5.682a.845.845 0 011.207-.167c.38.284.463.836.165 1.22l-4.845 6.501a.87.87 0 01-.645.351.88.88 0 01-.678-.267l-3.505-3.693-3.786 4.846a.866.866 0 01-.678.334l.017-.017z"/><path d="M28.013 6.357H8.603a3.252 3.252 0 00-3.25 3.25v14.177c0 1.799 1.462 3.271 3.25 3.271h19.41c1.799 0 3.25-1.482 3.25-3.271V9.608a3.252 3.252 0 00-3.25-3.25zm1.257 17.427c0 .695-.562 1.278-1.257 1.278H8.603c-.695 0-1.257-.583-1.257-1.278V9.608c0-.695.562-1.257 1.257-1.257h19.41c.695 0 1.257.562 1.257 1.257v14.177z"/></g></svg>