<svg xmlns="http://www.w3.org/2000/svg" width="36" height="36" fill="none" viewBox="0 0 36 36"><path fill="#ff676c" d="M28.004 0H7.996A8 8 0 000 7.996v20.008A8 8 0 007.996 36h20.008A8 8 0 0036 28.004V7.996A8 8 0 0028.004 0z"/><path fill="#d93f44" d="M31.207 17.376v1.26a1.61 1.61 0 01-1.61 1.611h-.36c-.673 0-1.279.417-1.497 1.07l-.521 1.241c-.303.606-.161 1.336.313 1.819l.237.237a1.606 1.606 0 010 2.283l-.89.891a1.613 1.613 0 01-2.274 0l-.237-.237a1.588 1.588 0 00-1.828-.303l-1.241.521a1.58 1.58 0 00-1.07 1.497v.341c0 .104-.01.189-.038.294l.218-5.978c2.255-.938 3.875-3.183 3.875-5.788a6.14 6.14 0 00-3.581-5.675v4.907h-5.409V12.46c-2.103 1.004-3.581 3.164-3.581 5.675s1.611 4.851 3.875 5.788l.218 5.978a1.04 1.04 0 01-.038-.294v-.341c0-.673-.417-1.279-1.071-1.497a11.56 11.56 0 01-1.269-.53 1.61 1.61 0 00-1.819.313l-.237.237a1.613 1.613 0 01-2.274 0l-.891-.891a1.606 1.606 0 010-2.283l.237-.237a1.59 1.59 0 00.313-1.819 10.71 10.71 0 01-.521-1.241 1.582 1.582 0 00-1.506-1.07h-.341a1.61 1.61 0 01-1.611-1.611v-1.26a1.61 1.61 0 011.611-1.611h.341c.682 0 1.298-.417 1.506-1.051a8.61 8.61 0 01.521-1.26c.303-.597.161-1.336-.303-1.819l-.256-.256a1.606 1.606 0 010-2.283l.891-.891a1.613 1.613 0 012.274 0l.256.256c.483.483 1.222.625 1.828.313a9.537 9.537 0 011.241-.521 1.592 1.592 0 001.07-1.506v-.341a1.6 1.6 0 011.601-1.611h1.26a1.61 1.61 0 011.611 1.611v.341c0 .673.417 1.298 1.07 1.506a8.67 8.67 0 011.232.512c.606.303 1.345.18 1.828-.303l.256-.256a1.613 1.613 0 012.274 0l.89.891a1.606 1.606 0 010 2.283l-.256.256a1.576 1.576 0 00-.303 1.819 11.35 11.35 0 01.521 1.26 1.574 1.574 0 001.497 1.051h.36a1.61 1.61 0 011.61 1.611z"/><path fill="#fff" d="M24.291 18.124c0 2.605-1.611 4.851-3.875 5.788l-.218 5.978c-.123.748-.786 1.307-1.573 1.307h-1.26a1.58 1.58 0 01-1.563-1.307l-.218-5.978c-2.255-.938-3.875-3.164-3.875-5.788a6.15 6.15 0 013.581-5.675v4.907h5.41v-4.907a6.245 6.245 0 013.581 5.675h.009z"/></svg>