<svg xmlns="http://www.w3.org/2000/svg" width="36" height="36" fill="none" viewBox="0 0 36 36"><path fill="#1479EB" d="M28.004 0H7.996A7.996 7.996 0 000 7.996v20.008A7.996 7.996 0 007.996 36h20.008A7.996 7.996 0 0036 28.004V7.996A7.996 7.996 0 0028.004 0z"/><path fill="#3BA0FE" d="M26.64 19.99a10.97 10.97 0 01-10.98 10.98c-1.62 0-3.164-.36-4.538-.976h-.038l-.7.18-3.184.862a1.118 1.118 0 01-1.364-1.364l.862-3.202.019-.104A10.97 10.97 0 014.68 19.99c0-6.063 4.917-10.98 10.98-10.98 6.063 0 10.98 4.917 10.98 10.98z"/><path fill="#fff" d="M19.42 5.959c-6.072 0-10.98 4.926-10.98 10.98 0 6.053 4.918 10.98 10.98 10.98a10.9 10.9 0 004.548-.986h.01a10.892 10.892 0 004.386-3.628 10.948 10.948 0 002.037-6.376c0-6.053-4.917-10.98-10.98-10.98v.01zm4.757 9.265a1.73 1.73 0 011.724 1.724 1.73 1.73 0 01-1.724 1.724 1.73 1.73 0 01-1.724-1.724 1.73 1.73 0 011.724-1.724zm-9.512 3.439a1.73 1.73 0 01-1.724-1.724 1.73 1.73 0 011.724-1.725 1.73 1.73 0 011.724 1.725 1.73 1.73 0 01-1.724 1.724zm4.756 0a1.73 1.73 0 01-1.724-1.724 1.73 1.73 0 011.724-1.725 1.73 1.73 0 011.724 1.725 1.73 1.73 0 01-1.724 1.724z"/><path fill="#fff" d="M29.245 26.622c.218.833-.54 1.591-1.364 1.364l-3.183-.853-3.183-.852c-.834-.218-1.109-1.26-.503-1.867l2.331-2.33 2.33-2.33a1.115 1.115 0 011.867.501l.852 3.184.853 3.183z"/></svg>