<svg xmlns="http://www.w3.org/2000/svg" viewBox="0 0 16.9 16.9"><path fill="#264748" d="M13.2 0H3.8C1.7 0 0 1.7 0 3.8v9.4C0 15.3 1.7 17 3.8 17h9.4c2.1 0 3.8-1.7 3.8-3.8V3.8C16.9 1.7 15.3 0 13.2 0zM5.7 3.8H7c.1 0 .2-.1.3-.2.2-.5.6-.9 1.2-.9s1 .4 1.2.9c0 .1.1.2.3.2h1.3c.2 0 .3.2.3.4l-.3.9c0 .1-.1.2-.3.2H6c-.1 0-.2-.1-.3-.2l-.3-.9c-.1-.2.1-.4.3-.4zm6.2 10.5H5c-1.3 0-2.3-1.2-2-2.5.4-1.6 1-3.8 2.2-5.2.4-.5 1-.7 1.6-.7h3.3c.6 0 1.2.3 1.6.7 1.2 1.4 1.9 3.6 2.2 5.2.3 1.3-.7 2.5-2 2.5z"/><path fill="#2ac7cc" d="M11.5 4.2l-.3.9c0 .1-.1.2-.3.2H6c-.1 0-.2-.1-.3-.2l-.3-.9c-.1-.2.1-.4.3-.4H7c.1 0 .2-.1.3-.2.2-.5.6-.9 1.2-.9s1 .4 1.2.9c0 .1.1.2.3.2h1.3c.2 0 .3.2.2.4z"/><path fill="#264748" d="M8.6 12.4c.2 0 .4.2.4.4 0 .1 0 .2-.2.2h-.6c-.1 0-.2-.1-.2-.2v-.4-.1c-.7-.1-1.5-.5-1.5-1.3 0-.1.1-.1.1-.1h1c.1 0 .1.1.2.1.2.4.8.4 1.2.3.1-.1.3-.1.3-.3 0-.2-.2-.3-.4-.4l-1.2-.3c-1.6-.5-1.2-2.4.3-2.6h.4c-.2 0-.3-.2-.4-.3 0-.1 0-.3.2-.3h.6c.3 0 .1.4.2.6.4.1.9.3 1.2.7.1.2.3.6 0 .6h-.9c-.1 0-.2 0-.2-.1-.2-.3-.9-.4-1.2-.1-.1.2 0 .4.2.5.6.3 1.8.2 2.2 1 .6 1.2-.6 2.1-1.7 2.1z"/></svg>
