<svg xmlns="http://www.w3.org/2000/svg" width="36" height="36" fill="none" viewBox="0 0 36 36"><path fill="#00A35D" d="M28.004 0H7.996A7.996 7.996 0 000 7.996v20.008A7.996 7.996 0 007.996 36h20.008A7.996 7.996 0 0036 28.004V7.996A7.996 7.996 0 0028.004 0z"/><path fill="#fff" d="M26.99 6.168H9a3.014 3.014 0 00-3.013 3.013v13.14c0 1.667 1.355 3.031 3.013 3.031h17.99c1.668 0 3.013-1.373 3.013-3.031V9.18a3.014 3.014 0 00-3.012-3.013zm1.166 16.153c0 .644-.521 1.184-1.165 1.184H9c-.644 0-1.165-.54-1.165-1.184V9.18c0-.645.52-1.166 1.165-1.166h17.99c.645 0 1.166.521 1.166 1.166v13.14z"/><path fill="#07814D" d="M28.156 9.19v13.14c0 .645-.521 1.185-1.165 1.185H9a1.18 1.18 0 01-1.166-1.184V9.19c0-.645.521-1.166 1.165-1.166h17.99c.645 0 1.166.521 1.166 1.166z"/><path fill="#fff" d="M24.044 26.49H11.946a.853.853 0 00-.852.853v1.648c0 .471.382.853.852.853h12.098a.853.853 0 00.853-.853v-1.648a.853.853 0 00-.853-.853z"/></svg>