<svg width="41" height="40" viewBox="0 0 41 40" fill="none" xmlns="http://www.w3.org/2000/svg">
<rect x="0.987793" width="39.9976" height="39.9976" rx="9.99939" fill="var(--ws-icon-color-3)"/>
<rect x="0.987793" width="39.9976" height="39.9976" rx="9.99939" fill="var(--ws-icon-color-9)" fill-opacity="0.9"/>
<path fill-rule="evenodd" clip-rule="evenodd" d="M19.4641 8.85617C21.7599 6.56031 25.0334 5.8405 27.9404 6.69181C29.0362 7.01272 29.2161 8.32757 28.518 9.0257L24.2595 13.2842L27.1571 16.1819L31.4156 11.9233C32.1138 11.2252 33.4286 11.4051 33.7495 12.501C34.6008 15.4079 33.881 18.6814 31.5851 20.9773C29.2454 23.3171 25.8907 24.02 22.9417 23.0908L16.2399 29.7926C14.6959 31.3366 12.1927 31.3366 10.6487 29.7926C9.10473 28.2486 9.10473 25.7454 10.6487 24.2014L11.3221 24.8748L10.6487 24.2014L17.3505 17.4996C16.4213 14.5506 17.1243 11.196 19.4641 8.85617ZM26.5248 8.32534C24.5013 8.01998 22.3669 8.64694 20.8108 10.203C18.8679 12.1459 18.3737 14.9914 19.3337 17.3942C19.475 17.7478 19.392 18.1516 19.1228 18.4209L11.9955 25.5482C11.1953 26.3483 11.1953 27.6457 11.9955 28.4458C12.7956 29.246 14.093 29.246 14.8931 28.4458L22.0204 21.3186C22.2897 21.0493 22.6935 20.9663 23.0471 21.1076C25.4499 22.0677 28.2954 21.5734 30.2384 19.6305C31.7944 18.0745 32.4213 15.94 32.116 13.9166L28.1672 17.8654C27.6093 18.4232 26.7049 18.4232 26.147 17.8654L22.576 14.2943C22.0181 13.7365 22.0181 12.832 22.576 12.2741L26.5248 8.32534Z" fill="var(--ws-icon-color-3)"/>
</svg>
