<svg width="41" height="40" viewBox="0 0 41 40" fill="none" xmlns="http://www.w3.org/2000/svg"><rect x=".983" width="39.998" height="39.998" rx="9.999" fill="var(--ws-icon-color-7)"/><rect x=".983" width="39.998" height="39.998" rx="9.999" fill="var(--ws-icon-color-9)" fill-opacity=".9"/><path fill-rule="evenodd" clip-rule="evenodd" d="M16.186 14.285c-1.425 0-2.481 1.074-2.481 2.28 0 1.204 1.054 2.278 2.478 2.28v1.904c-2.819.003-5.193 2.131-5.634 4.964h11.28c-.441-2.834-2.817-4.962-5.637-4.964v-1.905c1.423-.002 2.476-1.075 2.476-2.28s-1.056-2.28-2.482-2.28m-4.386 2.28c0-2.365 2.02-4.185 4.386-4.185 2.368 0 4.387 1.82 4.387 4.185 0 1.17-.494 2.206-1.28 2.955 2.445 1.12 4.198 3.523 4.476 6.353.099 1.007-.73 1.744-1.614 1.744H10.223c-.885 0-1.713-.737-1.614-1.744.278-2.828 2.03-5.23 4.473-6.352a4.06 4.06 0 0 1-1.282-2.956m11.086-3.231c0-.527.427-.953.953-.953h8.57a.952.952 0 1 1 0 1.905h-8.57a.95.95 0 0 1-.953-.953m.953 6.667c0-.526.426-.953.952-.953h7.619a.952.952 0 0 1 0 1.905h-7.62a.95.95 0 0 1-.95-.951m2.856 6.665c0-.526.426-.952.952-.952h4.762a.952.952 0 1 1 0 1.904h-4.762a.95.95 0 0 1-.952-.952" fill="var(--ws-icon-color-7)"/></svg>