<svg width="40" height="40" viewBox="0 0 40 40" fill="none" xmlns="http://www.w3.org/2000/svg">
<rect x="-0.00244141" width="39.9976" height="39.9976" rx="9.99939" fill="var(--ws-icon-color-1)"/>
<rect x="-0.00244141" width="39.9976" height="39.9976" rx="9.99939" fill="var(--ws-icon-color-9)" fill-opacity="0.9"/>
<path fill-rule="evenodd" clip-rule="evenodd" d="M26.1031 13.2693C22.5616 9.74257 16.8179 9.74257 13.2764 13.2693C9.73701 16.7938 9.73701 22.5066 13.2764 26.0311C15.9745 28.7179 19.9534 29.3597 23.2638 27.9484C23.5669 27.8191 23.9148 27.7846 24.2537 27.8728L29.1406 29.1451L27.8833 24.3561C27.7914 24.0061 27.8307 23.6465 27.97 23.3362C29.4596 20.0188 28.8363 15.9911 26.1031 13.2693ZM29.3881 30.0876C29.388 30.0874 29.3879 30.0871 29.3879 30.0868L29.3881 30.0876ZM30.0806 29.3898C30.0809 29.3899 30.0812 29.39 30.0815 29.39L30.0806 29.3898ZM11.9535 11.9408C16.2266 7.68568 23.1529 7.68568 27.426 11.9408C30.6996 15.2007 31.4658 20.0116 29.7275 23.9975L31.2014 29.6116C31.4565 30.5833 30.5674 31.4539 29.6091 31.2043L23.895 29.7167C19.9281 31.3595 15.1839 30.5764 11.9535 27.3596C7.67826 23.1023 7.67826 16.1981 11.9535 11.9408Z" fill="var(--ws-icon-color-1)"/>
</svg>
