<svg width="40" height="40" viewBox="0 0 40 40" fill="none" xmlns="http://www.w3.org/2000/svg">
<rect x="-0.00732422" width="39.9976" height="39.9976" rx="9.99939" fill="var(--ws-icon-color-2)"/>
<rect x="-0.00732422" width="39.9976" height="39.9976" rx="9.99939" fill="var(--ws-icon-color-9)" fill-opacity="0.9"/>
<path fill-rule="evenodd" clip-rule="evenodd" d="M6.65918 14.2849C6.65918 12.181 8.36466 10.4756 10.4685 10.4756H28.8427C30.9465 10.4756 32.652 12.181 32.652 14.2849V24.6297C32.652 26.7335 30.9465 28.439 28.8427 28.439H10.4685C8.36466 28.439 6.65918 26.7335 6.65918 24.6297V14.2849ZM10.4685 12.3802C9.41656 12.3802 8.56383 13.233 8.56383 14.2849V24.6297C8.56383 25.6816 9.41656 26.5343 10.4685 26.5343H28.8427C29.8946 26.5343 30.7473 25.6816 30.7473 24.6297V14.2849C30.7473 13.233 29.8946 12.3802 28.8427 12.3802H10.4685Z" fill="var(--ws-icon-color-2)"/>
<path fill-rule="evenodd" clip-rule="evenodd" d="M19.6564 26.5343C20.1824 26.5343 20.6087 26.9607 20.6087 27.4866V30.9505H25.1276C25.6536 30.9505 26.0799 31.3768 26.0799 31.9028C26.0799 32.4287 25.6536 32.8551 25.1276 32.8551H14.1852C13.6593 32.8551 13.2329 32.4287 13.2329 31.9028C13.2329 31.3768 13.6593 30.9505 14.1852 30.9505H18.7041V27.4866C18.7041 26.9607 19.1305 26.5343 19.6564 26.5343Z" fill="var(--ws-icon-color-2)"/>
</svg>
