<svg width="41" height="40" viewBox="0 0 41 40" fill="none" xmlns="http://www.w3.org/2000/svg">
<rect x="0.985352" width="39.9976" height="39.9976" rx="9.99939" fill="var(--ws-icon-color-8)"/>
<rect x="0.985352" width="39.9976" height="39.9976" rx="9.99939" fill="var(--ws-icon-color-9)" fill-opacity="0.9"/>
<path fill-rule="evenodd" clip-rule="evenodd" d="M9.8355 19.6957C9.4636 19.3238 9.4636 18.7208 9.8355 18.3489L21.2392 6.94519C21.6111 6.57328 22.2141 6.57328 22.586 6.94519L27.5569 11.916C27.9288 12.2879 27.9288 12.8909 27.5569 13.2628L22.3822 18.4375L30.4809 26.5362C30.8528 26.9081 30.8528 27.5111 30.4809 27.883C30.109 28.2549 29.506 28.2549 29.1341 27.883L21.0354 19.7843L16.1531 24.6665C15.7812 25.0384 15.1783 25.0384 14.8064 24.6665L9.8355 19.6957ZM11.8557 19.0223L15.4797 22.6464L25.5367 12.5894L21.9126 8.96537L11.8557 19.0223Z" fill="var(--ws-icon-color-8)"/>
<path fill-rule="evenodd" clip-rule="evenodd" d="M12.4131 32.3789C12.4131 31.853 12.8395 31.4266 13.3654 31.4266H25.7456C26.2716 31.4266 26.6979 31.853 26.6979 32.3789C26.6979 32.9049 26.2716 33.3313 25.7456 33.3313H13.3654C12.8395 33.3313 12.4131 32.9049 12.4131 32.3789Z" fill="var(--ws-icon-color-8)"/>
</svg>
