<svg width="40" height="40" viewBox="0 0 40 40" fill="none" xmlns="http://www.w3.org/2000/svg">
<rect x="-0.00976562" width="39.9976" height="39.9976" rx="9.99939" fill="var(--ws-icon-color-6)"/>
<rect x="-0.00976562" width="39.9976" height="39.9976" rx="9.99939" fill="var(--ws-icon-color-9)" fill-opacity="0.9"/>
<path fill-rule="evenodd" clip-rule="evenodd" d="M5.70459 12.3802C5.70459 10.2764 7.41007 8.57091 9.51388 8.57091H30.465C32.5688 8.57091 34.2743 10.2764 34.2743 12.3802V24.443C34.2743 26.5468 32.5688 28.2522 30.465 28.2522H28.0623L29.3176 31.3904C29.5129 31.8787 29.2754 32.433 28.787 32.6283C28.2987 32.8236 27.7445 32.5861 27.5492 32.0978L26.0109 28.2522H13.9679L12.4297 32.0978C12.2344 32.5861 11.6802 32.8236 11.1918 32.6283C10.7035 32.433 10.466 31.8787 10.6613 31.3904L11.9166 28.2522H9.51388C7.41007 28.2522 5.70459 26.5468 5.70459 24.443V12.3802ZM9.51388 10.4756C8.46197 10.4756 7.60924 11.3283 7.60924 12.3802V24.443C7.60924 25.4949 8.46198 26.3476 9.51388 26.3476H30.465C31.5169 26.3476 32.3696 25.4949 32.3696 24.443V12.3802C32.3696 11.3283 31.5169 10.4756 30.465 10.4756H9.51388Z" fill="var(--ws-icon-color-6)"/>
<path fill-rule="evenodd" clip-rule="evenodd" d="M27.8049 14.2164C28.1582 14.606 28.1288 15.2083 27.7393 15.5616L22.0667 20.7067C21.7037 21.0359 21.1501 21.0359 20.7871 20.7067L18.2361 18.3929L13.5179 22.6723C13.1283 23.0256 12.5261 22.9963 12.1727 22.6067C11.8194 22.2171 11.8487 21.6149 12.2383 21.2615L17.5963 16.4018C17.9593 16.0726 18.5129 16.0726 18.8759 16.4018L21.4269 18.7156L26.4597 14.1508C26.8492 13.7975 27.4515 13.8269 27.8049 14.2164Z" fill="var(--ws-icon-color-6)"/>
</svg>
