<svg xmlns="http://www.w3.org/2000/svg" width="36" height="36" fill="none" viewBox="0 0 36 36"><path fill="#795367" d="M28.004 0H7.996A7.996 7.996 0 000 7.996v20.008A7.996 7.996 0 007.996 36h20.008A7.996 7.996 0 0036 28.004V7.996A7.996 7.996 0 0028.004 0z"/><path fill="#fff" d="M10.663 14.37L8.36 16.675a.474.474 0 000 .67l5.52 5.52a.474.474 0 00.67 0l2.304-2.305a.474.474 0 000-.67l-5.52-5.52a.474.474 0 00-.67 0zm8.934-8.931l-2.305 2.304a.474.474 0 000 .67l5.52 5.52a.474.474 0 00.67 0l2.305-2.304a.474.474 0 000-.67l-5.52-5.52a.474.474 0 00-.67 0z"/><path fill="#CD84AB" d="M16.663 9.894l-3.846 3.845a.474.474 0 000 .67l4 4a.474.474 0 00.67 0l3.845-3.846a.474.474 0 000-.67l-4-3.999a.474.474 0 00-.67 0z"/><path fill="#fff" d="M28.393 22.795l-2.634 2.634a.62.62 0 01-.91-.038l-5.267-6.101a.626.626 0 01.029-.843l1.8-1.8a.616.616 0 01.843-.029l6.1 5.267a.628.628 0 01.039.91z"/><path fill="#CD84AB" d="M9.9 25.2h8.763a2.474 2.474 0 012.473 2.472v2.103a.92.92 0 01-.92.919H8.347a.92.92 0 01-.919-.919v-2.103A2.474 2.474 0 019.9 25.199z"/></svg>