<svg width="24" height="24" viewBox="0 0 24 24" fill="none" xmlns="http://www.w3.org/2000/svg">
<g clip-path="url(#clip0_11693_29729)">
<path d="M19.2293 13.08C18.9906 13.08 18.7617 12.9852 18.5929 12.8164C18.4241 12.6476 18.3293 12.4187 18.3293 12.18C18.3293 11.9413 18.4241 11.7124 18.5929 11.5436C18.7617 11.3748 18.9906 11.28 19.2293 11.28H20.2493C20.3045 11.2862 20.3604 11.2814 20.4138 11.2659C20.4671 11.2504 20.5168 11.2244 20.5601 11.1896C20.6033 11.1547 20.6392 11.1116 20.6657 11.0627C20.6922 11.0139 20.7087 10.9603 20.7143 10.905V5.42998L18.4343 3.23998L14.9993 3.19498C14.8943 3.19081 14.7918 3.22759 14.7135 3.29756C14.6351 3.36753 14.587 3.46521 14.5793 3.56998V5.87998C14.5793 6.11868 14.4845 6.34759 14.3157 6.51638C14.1469 6.68516 13.918 6.77998 13.6793 6.77998C13.5611 6.77998 13.4441 6.7567 13.3349 6.71147C13.2257 6.66624 13.1265 6.59995 13.0429 6.51638C12.9593 6.43281 12.893 6.33359 12.8478 6.2244C12.8026 6.1152 12.7793 5.99817 12.7793 5.87998V3.56998C12.7812 3.28111 12.8403 2.99548 12.9531 2.72954C13.066 2.4636 13.2303 2.2226 13.4366 2.02044C13.643 1.81827 13.8873 1.65893 14.1555 1.55158C14.4237 1.44424 14.7104 1.39102 14.9993 1.39498H18.2843C18.7862 1.39875 19.2682 1.59157 19.6343 1.93498L21.8543 4.06498C22.0389 4.24122 22.1859 4.45302 22.2865 4.68762C22.387 4.92221 22.439 5.17475 22.4393 5.42998V10.86C22.4315 11.437 22.1977 11.9879 21.7883 12.3946C21.3789 12.8012 20.8263 13.0311 20.2493 13.035H19.2743L19.2293 13.08Z" fill="#9B65C3"/>
<path d="M18.7356 7.08003H16.2906C16.0519 7.08003 15.823 6.98521 15.6542 6.81643C15.4854 6.64764 15.3906 6.41872 15.3906 6.18003C15.3906 5.94133 15.4854 5.71242 15.6542 5.54363C15.823 5.37485 16.0519 5.28003 16.2906 5.28003H18.7356C18.9743 5.28003 19.2032 5.37485 19.372 5.54363C19.5408 5.71242 19.6356 5.94133 19.6356 6.18003C19.6356 6.41872 19.5408 6.64764 19.372 6.81643C19.2032 6.98521 18.9743 7.08003 18.7356 7.08003Z" fill="#9B65C3"/>
<path d="M16.095 21.0001H3.165C2.72432 20.9812 2.30725 20.7957 1.99816 20.481C1.68906 20.1664 1.511 19.746 1.5 19.3051V10.2151C1.49958 9.76633 1.67257 9.33475 1.98284 9.01051C2.2931 8.68627 2.71665 8.49444 3.165 8.4751H16.095C16.3228 8.47509 16.5483 8.5202 16.7586 8.60783C16.9689 8.69545 17.1597 8.82386 17.3201 8.98563C17.4805 9.1474 17.6072 9.33934 17.693 9.55036C17.7788 9.76138 17.822 9.98731 17.82 10.2151V19.3051C17.8121 19.7574 17.6269 20.1885 17.3043 20.5055C16.9816 20.8226 16.5473 21.0002 16.095 21.0001ZM16.095 10.1701H3.225V19.1701H9.93H16.095V10.1701Z" fill="#4A5868"/>
<path d="M16.9348 14.415H2.86484C2.74665 14.415 2.62962 14.3917 2.52043 14.3465C2.41124 14.3013 2.31202 14.235 2.22845 14.1514C2.14487 14.0678 2.07858 13.9686 2.03335 13.8594C1.98812 13.7502 1.96484 13.6332 1.96484 13.515C1.96484 13.3968 1.98812 13.2798 2.03335 13.1706C2.07858 13.0614 2.14487 12.9622 2.22845 12.8786C2.31202 12.795 2.41124 12.7287 2.52043 12.6835C2.62962 12.6383 2.74665 12.615 2.86484 12.615H16.9348C17.1735 12.615 17.4025 12.7098 17.5712 12.8786C17.74 13.0474 17.8348 13.2763 17.8348 13.515C17.8348 13.7537 17.74 13.9826 17.5712 14.1514C17.4025 14.3202 17.1735 14.415 16.9348 14.415Z" fill="#4A5868"/>
<path d="M13.1852 15.66C12.9465 15.66 12.7175 15.5652 12.5488 15.3964C12.38 15.2276 12.2852 14.9987 12.2852 14.76V12.39C12.2852 12.2718 12.3084 12.1548 12.3537 12.0456C12.3989 11.9364 12.4652 11.8372 12.5488 11.7536C12.6323 11.67 12.7315 11.6037 12.8407 11.5585C12.9499 11.5133 13.067 11.49 13.1852 11.49C13.3033 11.49 13.4204 11.5133 13.5296 11.5585C13.6388 11.6037 13.738 11.67 13.8216 11.7536C13.9051 11.8372 13.9714 11.9364 14.0166 12.0456C14.0619 12.1548 14.0852 12.2718 14.0852 12.39V14.76C14.0852 14.9987 13.9903 15.2276 13.8216 15.3964C13.6528 15.5652 13.4239 15.66 13.1852 15.66Z" fill="#4A5868"/>
<path d="M6.76523 15.66C6.52654 15.66 6.29762 15.5652 6.12884 15.3964C5.96006 15.2276 5.86523 14.9987 5.86523 14.76V12.39C5.86523 12.1513 5.96006 11.9224 6.12884 11.7536C6.29762 11.5848 6.52654 11.49 6.76523 11.49C7.00393 11.49 7.23285 11.5848 7.40163 11.7536C7.57041 11.9224 7.66523 12.1513 7.66523 12.39V14.76C7.66523 14.9987 7.57041 15.2276 7.40163 15.3964C7.23285 15.5652 7.00393 15.66 6.76523 15.66Z" fill="#4A5868"/>
<path d="M12.1357 10.275H7.9957C7.75701 10.275 7.52809 10.1802 7.35931 10.0114C7.19052 9.84259 7.0957 9.61368 7.0957 9.37498V8.06998C7.0957 7.64829 7.26322 7.24386 7.5614 6.94568C7.85959 6.6475 8.26401 6.47998 8.6857 6.47998H11.4607C11.8666 6.50299 12.2483 6.68062 12.5273 6.97634C12.8062 7.27207 12.9614 7.66343 12.9607 8.06998V9.37498C12.9615 9.60123 12.877 9.81948 12.7241 9.98626C12.5713 10.153 12.3612 10.2561 12.1357 10.275ZM8.8957 8.47498H11.2507V8.27998H8.8957V8.47498Z" fill="#4A5868"/>
</g>
<defs>
<clipPath id="clip0_11693_29729">
<rect width="24" height="24" fill="white"/>
</clipPath>
</defs>
</svg>
