<svg width="24" height="24" viewBox="0 0 24 24" fill="none" xmlns="http://www.w3.org/2000/svg">
<g clip-path="url(#clip0_11693_29724)">
<path d="M12.0009 22.5C9.23399 22.5 6.58044 21.4009 4.62397 19.4444C2.66749 17.4879 1.56836 14.8344 1.56836 12.0675C1.56836 9.30064 2.66749 6.64709 4.62397 4.69062C6.58044 2.73414 9.23399 1.63501 12.0009 1.63501C12.2396 1.63501 12.4685 1.72983 12.6373 1.89861C12.806 2.0674 12.9009 2.29631 12.9009 2.53501C12.9009 2.7737 12.806 3.00262 12.6373 3.17141C12.4685 3.34019 12.2396 3.43501 12.0009 3.43501C10.2997 3.43502 8.63671 3.93987 7.22263 4.88564C5.80855 5.8314 4.70693 7.17553 4.05728 8.74781C3.40764 10.3201 3.23919 12.0498 3.57327 13.7179C3.90735 15.386 4.72893 16.9174 5.93396 18.1182C7.139 19.319 8.67328 20.1353 10.3425 20.4635C12.0118 20.7917 13.7409 20.6173 15.3109 19.9621C16.8809 19.307 18.2211 18.2007 19.1619 16.7833C20.1028 15.3659 20.6018 13.7012 20.5959 12C20.5959 11.8818 20.6191 11.7648 20.6644 11.6556C20.7096 11.5464 20.7759 11.4472 20.8595 11.3636C20.943 11.28 21.0422 11.2137 21.1514 11.1685C21.2606 11.1233 21.3777 11.1 21.4959 11.1C21.614 11.1 21.7311 11.1233 21.8403 11.1685C21.9495 11.2137 22.0487 11.28 22.1323 11.3636C22.2158 11.4472 22.2821 11.5464 22.3273 11.6556C22.3726 11.7648 22.3959 11.8818 22.3959 12C22.4077 13.3734 22.1477 14.7355 21.6308 16.0079C21.1139 17.2803 20.3504 18.4379 19.3841 19.4139C18.4179 20.3899 17.268 21.1651 16.0009 21.6948C14.7337 22.2244 13.3743 22.4981 12.0009 22.5Z" fill="#4A5868"/>
<path d="M13.3816 3.52499H13.2466C12.8343 3.46465 12.4182 3.43457 12.0016 3.43499C11.7629 3.43499 11.5339 3.34017 11.3652 3.17139C11.1964 3.00261 11.1016 2.77369 11.1016 2.53499C11.1016 2.2963 11.1964 2.06738 11.3652 1.8986C11.5339 1.72982 11.7629 1.63499 12.0016 1.63499C12.5035 1.63157 13.005 1.66667 13.5016 1.73999C13.6189 1.75654 13.7317 1.79608 13.8337 1.85634C13.9357 1.91661 14.0248 1.99641 14.0958 2.09117C14.1669 2.18593 14.2186 2.29379 14.2479 2.40856C14.2772 2.52333 14.2835 2.64276 14.2666 2.75999C14.2374 2.97335 14.1314 3.16874 13.9685 3.30957C13.8056 3.45039 13.5969 3.52698 13.3816 3.52499Z" fill="#4A5868"/>
<path d="M19.5008 7.12486C19.363 7.12612 19.2269 7.09404 19.1041 7.03136C18.9814 6.96868 18.8756 6.87725 18.7958 6.76486C18.3567 6.20747 17.8532 5.70398 17.2958 5.26486C17.1072 5.11942 16.9839 4.90513 16.9529 4.66895C16.922 4.43277 16.986 4.19396 17.1308 4.00486C17.2016 3.90978 17.2907 3.82987 17.3929 3.76989C17.4951 3.70991 17.6084 3.67107 17.7259 3.65569C17.8434 3.6403 17.9628 3.64867 18.077 3.68031C18.1912 3.71194 18.2979 3.7662 18.3908 3.83986C19.0955 4.3797 19.726 5.01014 20.2658 5.71486C20.3403 5.80678 20.3955 5.91269 20.4284 6.02634C20.4612 6.13999 20.4709 6.25907 20.4569 6.37654C20.4429 6.494 20.4055 6.60747 20.3469 6.71024C20.2884 6.81301 20.2098 6.90299 20.1158 6.97486C19.9337 7.09295 19.7169 7.14583 19.5008 7.12486Z" fill="#4A5868"/>
<path d="M21.4954 12.9301C21.2568 12.9301 21.0278 12.8353 20.8591 12.6665C20.6903 12.4977 20.5954 12.2688 20.5954 12.0301C20.5959 11.6134 20.5658 11.1973 20.5054 10.7851C20.4677 10.5484 20.5254 10.3063 20.6661 10.1122C20.8067 9.91815 21.0187 9.78787 21.2554 9.75008C21.4922 9.71228 21.7342 9.77007 21.9283 9.91072C22.1224 10.0514 22.2527 10.2634 22.2904 10.5001C22.3627 10.9968 22.3978 11.4982 22.3954 12.0001C22.3995 12.1208 22.3792 12.241 22.3357 12.3537C22.2923 12.4664 22.2267 12.5692 22.1427 12.656C22.0587 12.7427 21.9581 12.8117 21.8469 12.8588C21.7357 12.9059 21.6162 12.9301 21.4954 12.9301Z" fill="#4A5868"/>
<path d="M17.8351 12.9299H12.0001C11.8794 12.93 11.7598 12.9058 11.6486 12.8587C11.5374 12.8116 11.4368 12.7426 11.3529 12.6558C11.2689 12.569 11.2032 12.4662 11.1598 12.3536C11.1164 12.2409 11.0961 12.1206 11.1001 11.9999V6.19492C11.1001 5.95623 11.1949 5.72731 11.3637 5.55853C11.5325 5.38974 11.7614 5.29492 12.0001 5.29492C12.2388 5.29492 12.4677 5.38974 12.6365 5.55853C12.8053 5.72731 12.9001 5.95623 12.9001 6.19492V11.1299H17.8351C18.0738 11.1299 18.3027 11.2247 18.4715 11.3935C18.6403 11.5623 18.7351 11.7912 18.7351 12.0299C18.7351 12.2686 18.6403 12.4975 18.4715 12.6663C18.3027 12.8351 18.0738 12.9299 17.8351 12.9299Z" fill="#9B65C3"/>
</g>
<defs>
<clipPath id="clip0_11693_29724">
<rect width="24" height="24" fill="white"/>
</clipPath>
</defs>
</svg>
