<svg width="24" height="24" viewBox="0 0 24 24" fill="none" xmlns="http://www.w3.org/2000/svg">
<g clip-path="url(#clip0_11693_29739)">
<path d="M11.3863 6.10493H21.5863C21.825 6.10493 22.0539 6.01011 22.2227 5.84133C22.3915 5.67255 22.4863 5.44363 22.4863 5.20493C22.4863 4.96624 22.3915 4.73732 22.2227 4.56854C22.0539 4.39975 21.825 4.30493 21.5863 4.30493H11.3863C11.1476 4.30493 10.9187 4.39975 10.7499 4.56854C10.5811 4.73732 10.4863 4.96624 10.4863 5.20493C10.4863 5.44363 10.5811 5.67255 10.7499 5.84133C10.9187 6.01011 11.1476 6.10493 11.3863 6.10493Z" fill="#9B65C3"/>
<path d="M19.0813 17.5349H11.3863C11.1476 17.5349 10.9187 17.6297 10.7499 17.7985C10.5811 17.9673 10.4863 18.1962 10.4863 18.4349C10.4863 18.6736 10.5811 18.9025 10.7499 19.0713C10.9187 19.2401 11.1476 19.3349 11.3863 19.3349H21.5863C21.7045 19.3349 21.8215 19.3116 21.9307 19.2664C22.0399 19.2212 22.1392 19.1549 22.2227 19.0713C22.3063 18.9877 22.3726 18.8885 22.4178 18.7793C22.463 18.6701 22.4863 18.5531 22.4863 18.4349C22.4863 18.3167 22.463 18.1997 22.4178 18.0905C22.3726 17.9813 22.3063 17.8821 22.2227 17.7985C22.1392 17.7149 22.0399 17.6486 21.9307 17.6034C21.8215 17.5582 21.7045 17.5349 21.5863 17.5349H19.0813Z" fill="#4A5868"/>
<path d="M21.5863 10.9199H11.3863C11.1476 10.9199 10.9187 11.0147 10.7499 11.1835C10.5811 11.3523 10.4863 11.5812 10.4863 11.8199C10.4863 12.0586 10.5811 12.2875 10.7499 12.4563C10.9187 12.6251 11.1476 12.7199 11.3863 12.7199H21.5863C21.825 12.7199 22.0539 12.6251 22.2227 12.4563C22.3915 12.2875 22.4863 12.0586 22.4863 11.8199C22.4863 11.5812 22.3915 11.3523 22.2227 11.1835C22.0539 11.0147 21.825 10.9199 21.5863 10.9199Z" fill="#4A5868"/>
<path d="M6.00094 3.08996L3.58594 5.45996L3.00094 4.85996C2.83524 4.69599 2.61155 4.60402 2.37844 4.60402C2.14533 4.60402 1.92163 4.69599 1.75594 4.85996C1.59197 5.02566 1.5 5.24935 1.5 5.48246C1.5 5.71557 1.59197 5.93927 1.75594 6.10496L2.97094 7.30496C3.14205 7.46515 3.36658 7.55603 3.60094 7.55996C3.83038 7.55376 4.04943 7.46294 4.21594 7.30496L7.21594 4.30496C7.31813 4.13564 7.36067 3.93698 7.33676 3.74066C7.31285 3.54435 7.22388 3.3617 7.08404 3.22186C6.9442 3.08202 6.76155 2.99304 6.56523 2.96914C6.36892 2.94523 6.17025 2.98777 6.00094 3.08996Z" fill="#9B65C3"/>
<path d="M6.00094 9.70506L3.58594 12.0751L3.00094 11.4901C2.83524 11.3261 2.61155 11.2341 2.37844 11.2341C2.14533 11.2341 1.92163 11.3261 1.75594 11.4901C1.59197 11.6558 1.5 11.8795 1.5 12.1126C1.5 12.3457 1.59197 12.5694 1.75594 12.7351L2.97094 13.9351C3.05346 14.0177 3.15177 14.0828 3.26001 14.1266C3.36824 14.1704 3.48419 14.192 3.60094 14.1901C3.83164 14.19 4.05286 14.0982 4.21594 13.9351L7.21594 10.9351C7.2985 10.8553 7.36416 10.7598 7.40901 10.6541C7.45386 10.5485 7.47697 10.4348 7.47697 10.3201C7.47697 10.2053 7.45386 10.0917 7.40901 9.98601C7.36416 9.88035 7.2985 9.7848 7.21594 9.70506C7.05167 9.55 6.83433 9.46362 6.60844 9.46362C6.38255 9.46362 6.1652 9.55 6.00094 9.70506Z" fill="#4A5868"/>
<path d="M6.00094 16.35L3.58594 18.705L3.00094 18.12C2.83524 17.956 2.61155 17.864 2.37844 17.864C2.14533 17.864 1.92163 17.956 1.75594 18.12C1.59197 18.2857 1.5 18.5094 1.5 18.7425C1.5 18.9756 1.59197 19.1993 1.75594 19.365L2.97094 20.565C3.05346 20.6476 3.15177 20.7127 3.26001 20.7565C3.36824 20.8003 3.48419 20.8219 3.60094 20.82C3.83164 20.8199 4.05286 20.7281 4.21594 20.565L7.21594 17.565C7.31813 17.3957 7.36067 17.197 7.33676 17.0007C7.31285 16.8044 7.22388 16.6217 7.08404 16.4819C6.9442 16.342 6.76155 16.2531 6.56523 16.2291C6.36892 16.2052 6.17025 16.2478 6.00094 16.35Z" fill="#4A5868"/>
</g>
<defs>
<clipPath id="clip0_11693_29739">
<rect width="24" height="24" fill="white"/>
</clipPath>
</defs>
</svg>
