<svg width="24" height="24" viewBox="0 0 24 24" fill="none" xmlns="http://www.w3.org/2000/svg">
<g clip-path="url(#clip0_11693_29719)">
<path d="M15.6892 22.5001C15.4759 22.4992 15.2694 22.4251 15.1042 22.2901C14.9739 22.181 14.8777 22.0367 14.8271 21.8745C14.7766 21.7122 14.7739 21.5389 14.8192 21.3751L16.1692 16.2451C16.2391 16.0258 16.3902 15.8417 16.5916 15.7304C16.793 15.6192 17.0294 15.5893 17.2521 15.6469C17.4749 15.7045 17.6671 15.8452 17.7893 16.0402C17.9115 16.2351 17.9544 16.4695 17.9092 16.6951L17.0392 19.9951L17.6692 19.7101C17.963 19.5838 18.2794 19.5187 18.5992 19.5187C18.919 19.5187 19.2354 19.5838 19.5292 19.7101L20.2042 20.0251L19.3642 16.5001C19.3218 16.3812 19.3049 16.2548 19.3146 16.1289C19.3243 16.0031 19.3603 15.8807 19.4203 15.7697C19.4803 15.6587 19.563 15.5616 19.663 15.4846C19.763 15.4077 19.8781 15.3526 20.0008 15.323C20.1235 15.2934 20.251 15.2899 20.3751 15.3128C20.4992 15.3356 20.6171 15.3843 20.7211 15.4557C20.8252 15.5271 20.9131 15.6196 20.9791 15.7272C21.0451 15.8347 21.0877 15.955 21.1042 16.0801L22.3942 21.3901C22.4387 21.5529 22.4339 21.7253 22.3805 21.8855C22.3271 22.0457 22.2275 22.1864 22.0942 22.2901C21.9652 22.3989 21.8082 22.4693 21.6411 22.4932C21.474 22.5171 21.3035 22.4935 21.1492 22.4251L18.7942 21.3301C18.7349 21.3049 18.6711 21.2919 18.6067 21.2919C18.5423 21.2919 18.4785 21.3049 18.4192 21.3301L16.0492 22.5001C15.9301 22.5211 15.8083 22.5211 15.6892 22.5001Z" fill="#9B65C3"/>
<path d="M10.905 22.5H3.9C3.26348 22.5 2.65303 22.2472 2.20294 21.7971C1.75286 21.347 1.5 20.7366 1.5 20.1V7.90505C1.50127 7.57443 1.57126 7.24769 1.70554 6.94557C1.83982 6.64344 2.03544 6.37254 2.28 6.15005L6.645 2.16005C7.08355 1.74533 7.6615 1.50987 8.265 1.50005H17.07C17.3909 1.49803 17.7091 1.56 18.0058 1.68235C18.3025 1.8047 18.5719 1.98496 18.7981 2.2126C19.0243 2.44024 19.2029 2.7107 19.3235 3.00816C19.444 3.30562 19.504 3.62412 19.5 3.94505V5.65505C19.5 5.89374 19.4052 6.12266 19.2364 6.29144C19.0676 6.46023 18.8387 6.55505 18.6 6.55505C18.3613 6.55505 18.1324 6.46023 17.9636 6.29144C17.7948 6.12266 17.7 5.89374 17.7 5.65505V3.94505C17.6961 3.78853 17.6311 3.63975 17.519 3.53045C17.4069 3.42115 17.2566 3.36 17.1 3.36005H8.295C8.14555 3.35499 8.0001 3.40886 7.89 3.51005L3.495 7.50005C3.43518 7.55593 3.38712 7.62319 3.35364 7.69789C3.32015 7.77258 3.30192 7.85321 3.3 7.93505V20.1C3.30391 20.2566 3.36885 20.4053 3.48095 20.5146C3.59305 20.6239 3.74344 20.6851 3.9 20.685H10.905C11.1437 20.685 11.3726 20.7799 11.5414 20.9487C11.7102 21.1174 11.805 21.3464 11.805 21.585C11.805 21.8237 11.7102 22.0527 11.5414 22.2214C11.3726 22.3902 11.1437 22.485 10.905 22.485V22.5Z" fill="#4A5868"/>
<path d="M18.5999 17.1C17.8243 17.103 17.0653 16.8755 16.4192 16.4465C15.7731 16.0174 15.269 15.4061 14.9708 14.6901C14.6726 13.9742 14.5938 13.1857 14.7444 12.4249C14.895 11.6641 15.2682 10.9651 15.8166 10.4167C16.365 9.86827 17.064 9.4951 17.8248 9.34452C18.5856 9.19394 19.3741 9.27273 20.09 9.5709C20.806 9.86908 21.4173 10.3732 21.8464 11.0193C22.2754 11.6654 22.5029 12.4244 22.4999 13.2C22.4959 14.2331 22.0838 15.2228 21.3532 15.9533C20.6227 16.6839 19.633 17.096 18.5999 17.1ZM18.5999 11.1C18.1803 11.097 17.7694 11.2189 17.4193 11.4502C17.0692 11.6814 16.7958 12.0116 16.6338 12.3987C16.4719 12.7857 16.4287 13.2122 16.5099 13.6239C16.591 14.0356 16.7927 14.4138 17.0894 14.7105C17.3861 15.0072 17.7643 15.2089 18.176 15.29C18.5877 15.3712 19.0141 15.328 19.4012 15.1661C19.7883 15.0041 20.1185 14.7307 20.3497 14.3806C20.581 14.0305 20.7029 13.6196 20.6999 13.2C20.6999 12.6416 20.4791 12.106 20.0857 11.7097C19.6923 11.3135 19.1582 11.089 18.5999 11.085V11.1Z" fill="#9B65C3"/>
</g>
<defs>
<clipPath id="clip0_11693_29719">
<rect width="24" height="24" fill="white"/>
</clipPath>
</defs>
</svg>
