<svg width="24" height="24" viewBox="0 0 24 24" fill="none" xmlns="http://www.w3.org/2000/svg">
<g clip-path="url(#clip0_11693_29734)">
<path d="M9.585 18.0751H3.87C3.24006 18.0711 2.63727 17.8181 2.19324 17.3713C1.7492 16.9244 1.49999 16.32 1.5 15.6901V14.1901C1.49922 12.7846 2.04496 11.4339 3.02186 10.4234C3.99876 9.41287 5.33028 8.8218 6.735 8.77508C6.85477 8.76213 6.97592 8.77556 7.08994 8.81443C7.20396 8.8533 7.30809 8.91667 7.395 9.00009C8.03147 9.5959 8.87067 9.9274 9.7425 9.9274C10.6143 9.9274 11.4535 9.5959 12.09 9.00009C12.1754 8.91294 12.2785 8.84509 12.3924 8.80111C12.5062 8.75713 12.6282 8.73802 12.75 8.74508C13.801 8.78089 14.8188 9.12195 15.6792 9.72661C16.5396 10.3313 17.2053 11.1734 17.595 12.1501C17.6412 12.2592 17.665 12.3765 17.665 12.4949C17.665 12.6134 17.6412 12.7307 17.595 12.8398C17.5489 12.9489 17.4813 13.0477 17.3962 13.1302C17.3112 13.2127 17.2105 13.2772 17.1 13.3201C16.8792 13.4091 16.632 13.407 16.4128 13.3143C16.1935 13.2215 16.0199 13.0456 15.93 12.8251C15.6919 12.226 15.2979 11.7014 14.7889 11.3058C14.2799 10.9102 13.6743 10.6579 13.035 10.5751C12.0997 11.3211 10.9389 11.7274 9.7425 11.7274C8.54615 11.7274 7.38526 11.3211 6.45 10.5751C5.57519 10.6853 4.77123 11.1127 4.19061 11.7762C3.60999 12.4398 3.29309 13.2934 3.3 14.1751V15.6751C3.298 15.7512 3.31126 15.8269 3.33901 15.8978C3.36675 15.9687 3.40842 16.0333 3.46155 16.0879C3.51468 16.1424 3.5782 16.1857 3.64835 16.2153C3.7185 16.2449 3.79387 16.2601 3.87 16.2601H9.585C9.8237 16.2601 10.0526 16.3549 10.2214 16.5237C10.3902 16.6925 10.485 16.9214 10.485 17.1601C10.485 17.3988 10.3902 17.6277 10.2214 17.7965C10.0526 17.9653 9.8237 18.0601 9.585 18.0601V18.0751Z" fill="#4A5868"/>
<path d="M9.75055 11.805C8.72874 11.811 7.72817 11.5134 6.87568 10.95C6.02318 10.3867 5.35715 9.58287 4.962 8.64054C4.56684 7.69822 4.46037 6.65978 4.65607 5.65687C4.85177 4.65396 5.34083 3.73173 6.06126 3.00709C6.78169 2.28245 7.70105 1.78802 8.7028 1.58648C9.70455 1.38493 10.7436 1.48535 11.6882 1.875C12.6328 2.26465 13.4405 2.92599 14.0088 3.77519C14.5771 4.62438 14.8805 5.6232 14.8806 6.64502C14.8825 7.32067 14.7514 7.9901 14.4947 8.61507C14.2379 9.24005 13.8606 9.80834 13.3842 10.2875C12.9079 10.7666 12.3418 11.1473 11.7183 11.4076C11.0949 11.668 10.4262 11.8031 9.75055 11.805ZM9.75055 3.30002C9.08412 3.29408 8.43098 3.48645 7.87417 3.85269C7.31737 4.21892 6.88205 4.74247 6.62357 5.35676C6.3651 5.97105 6.29514 6.64833 6.4226 7.30248C6.55006 7.95664 6.86918 8.55811 7.33937 9.03042C7.80957 9.50274 8.4096 9.82455 9.06317 9.95495C9.71674 10.0853 10.3943 10.0184 11.0098 9.76272C11.6252 9.50701 12.1507 9.07405 12.5195 8.5189C12.8882 7.96374 13.0835 7.31147 13.0806 6.64502C13.0806 5.76047 12.7302 4.91192 12.1061 4.28504C11.4821 3.65816 10.6351 3.30399 9.75055 3.30002Z" fill="#4A5868"/>
<path d="M21.6007 18.12L14.3707 18C14.132 18 13.9031 17.9051 13.7343 17.7363C13.5655 17.5676 13.4707 17.3386 13.4707 17.1C13.4782 16.8636 13.5754 16.6391 13.7426 16.4719C13.9098 16.3047 14.1344 16.2075 14.3707 16.2L21.5857 16.29C21.8244 16.29 22.0533 16.3848 22.2221 16.5536C22.3909 16.7223 22.4857 16.9513 22.4857 17.19C22.4898 17.4301 22.3992 17.6622 22.2337 17.8362C22.0681 18.0102 21.8408 18.1121 21.6007 18.12Z" fill="#9B65C3"/>
<path d="M21.4507 22.5H14.3707C14.132 22.5 13.9031 22.4051 13.7343 22.2363C13.5655 22.0676 13.4707 21.8386 13.4707 21.6C13.4707 21.3613 13.5655 21.1323 13.7343 20.9636C13.9031 20.7948 14.132 20.7 14.3707 20.7H21.4507C21.5689 20.7 21.6859 20.7232 21.7951 20.7685C21.9043 20.8137 22.0035 20.88 22.0871 20.9636C22.1707 21.0471 22.237 21.1463 22.2822 21.2555C22.3274 21.3647 22.3507 21.4818 22.3507 21.6C22.3507 21.7181 22.3274 21.8352 22.2822 21.9444C22.237 22.0536 22.1707 22.1528 22.0871 22.2363C22.0035 22.3199 21.9043 22.3862 21.7951 22.4314C21.6859 22.4767 21.5689 22.5 21.4507 22.5Z" fill="#9B65C3"/>
</g>
<defs>
<clipPath id="clip0_11693_29734">
<rect width="24" height="24" fill="white"/>
</clipPath>
</defs>
</svg>
