<svg xmlns="http://www.w3.org/2000/svg" width="47" height="52" fill="none" viewBox="0 0 47 52"><g filter="url(#filter0_d)"><path fill="#fff" fill-rule="evenodd" d="M42.997 15.06c.048-.746-.47-1.424-1.252-1.633C31.51 10.686 23.636 5.1 23.503 5.006c-.139.093-8.011 5.679-18.248 8.42-.782.209-1.3.886-1.252 1.633.364 5.666 2.849 28.162 19.494 33.94 16.651-5.776 19.136-28.273 19.5-33.94z" clip-rule="evenodd"/></g><path fill="#239CFF" d="M39.397 15.34C30.488 12.947 23.626 8.096 23.5 8c-.126.095-6.988 4.946-15.897 7.34-.692.19-1.133.788-1.101 1.418.314 4.947 2.486 24.574 16.998 29.615 14.512-5.041 16.684-24.668 16.998-29.615.032-.63-.409-1.228-1.101-1.417zm-2.204 1.072l.284.063c.188.063.346.126.503.22.158.126.22.347.095.504a.388.388 0 01-.315.158.582.582 0 01-.22-.063 1.116 1.116 0 00-.284-.126l-.283-.063c-.19-.063-.315-.252-.252-.441a.444.444 0 01.472-.252zm-2.077-.63c.22.063.44.157.692.22.189.063.315.284.252.473-.063.157-.189.252-.346.252-.032 0-.063 0-.126-.032-.22-.063-.472-.157-.693-.22-.189-.063-.283-.284-.22-.473.031-.189.252-.283.44-.22zm-12.12-5.45l.284-.19c.031-.031.031-.031.063-.031a.286.286 0 01.314 0c.032.031.063.031.095.063l.252.189c.157.126.22.346.094.504a.387.387 0 01-.315.157.583.583 0 01-.22-.063l-.063-.063-.094.063c-.158.126-.41.063-.504-.094-.126-.19-.063-.41.094-.536zm-11.804 5.67c.22-.063.472-.157.692-.22.19-.063.41.031.473.22.063.19-.032.41-.22.473-.221.063-.473.157-.693.22-.032 0-.063.032-.126.032-.158 0-.315-.095-.346-.252-.063-.19.031-.41.22-.473zm-2.172.725c.157-.095.315-.19.504-.22l.283-.064c.189-.063.41.063.472.252.063.19-.063.41-.252.473l-.283.063a1.084 1.084 0 00-.283.126.455.455 0 01-.22.063.387.387 0 01-.316-.158c-.125-.189-.094-.41.095-.535zm-.661 2.363c-.032-.284-.032-.505-.063-.725 0-.189.126-.378.346-.41.189 0 .378.127.41.347 0 .22.03.473.062.725.032.189-.126.378-.346.41h-.031c-.19 0-.347-.158-.378-.347zm.252 2.205c-.032-.252-.063-.504-.095-.725-.031-.189.126-.378.315-.41.189-.03.378.127.41.316.03.22.062.472.094.724.031.19-.126.378-.315.41h-.063a.367.367 0 01-.346-.315zm.377 2.205c-.031-.252-.094-.504-.126-.724-.031-.19.095-.41.315-.441.19-.032.378.094.441.315.031.22.094.472.126.724.031.19-.095.41-.283.441h-.063c-.22-.031-.378-.157-.41-.315zm.441 2.174c-.063-.252-.126-.473-.157-.724-.032-.19.094-.41.283-.442.189-.031.41.095.44.284.064.22.095.473.158.693.032.19-.063.41-.283.441h-.095c-.157.032-.314-.094-.346-.252zm.567 2.142c-.063-.252-.126-.472-.19-.724-.062-.19.064-.41.253-.441.189-.063.409.063.44.252.063.22.126.472.19.693.062.189-.064.41-.253.472h-.094c-.157.032-.315-.063-.346-.252zm1.007 2.395c-.157 0-.283-.095-.346-.252-.095-.22-.158-.473-.252-.693a.367.367 0 01.252-.473.366.366 0 01.472.252c.063.22.157.441.22.693.063.19-.031.41-.22.473h-.126zm.819 2.047a.387.387 0 01-.347-.22c-.094-.22-.189-.441-.283-.693-.063-.19.031-.41.22-.473.19-.063.41.032.472.22l.284.662c.094.19 0 .41-.19.473-.062.032-.125.032-.156.032zm.912 2.017a.435.435 0 01-.346-.19 6.295 6.295 0 01-.315-.66c-.094-.19 0-.41.19-.505.188-.094.408 0 .503.19.094.22.22.44.315.66.094.19.031.41-.158.505-.063-.032-.126 0-.189 0zm1.291 1.859a.448.448 0 01-.189.063.346.346 0 01-.315-.19c-.126-.22-.252-.409-.377-.63-.095-.189-.032-.41.126-.504.188-.094.409-.031.503.126.126.22.252.41.378.63.094.158.031.379-.126.505zm-.504-20.132c-.031.032-.094.032-.126.032-.157 0-.283-.095-.346-.252-.063-.19.032-.41.22-.473.22-.095.441-.157.662-.252.188-.063.409.031.472.22.063.19-.032.41-.22.473-.19.063-.41.158-.662.252zm1.763 21.927c-.063.063-.157.063-.22.063a.33.33 0 01-.284-.157c-.157-.19-.283-.41-.44-.599-.126-.157-.063-.41.094-.504.158-.126.41-.094.504.095.126.189.283.378.41.567.125.189.093.41-.064.535zm.157-22.746a.387.387 0 01-.346-.22.337.337 0 01.19-.473l.66-.284c.189-.094.41 0 .504.19.094.188 0 .409-.19.503l-.66.284h-.158zm1.291 24.416a.384.384 0 01-.535-.032 8.35 8.35 0 00-.504-.535.392.392 0 01.032-.536.391.391 0 01.535.032c.157.189.315.346.472.535a.363.363 0 010 .536zm1.637 1.48c-.063.095-.189.127-.283.127-.095 0-.158-.032-.252-.095a8.022 8.022 0 01-.567-.504c-.157-.126-.157-.378-.031-.535.126-.158.377-.158.535-.032.189.158.346.315.535.473.157.157.189.41.063.567zm-.094-27.156c-.22.094-.441.22-.662.315-.062.031-.094.031-.157.031a.367.367 0 01-.346-.22c-.095-.19 0-.41.189-.504.22-.095.44-.22.66-.315a.367.367 0 01.504.157c.095.19 0 .441-.188.536zm1.888 28.417c-.063.126-.189.157-.314.157a.445.445 0 01-.19-.063c-.22-.125-.409-.283-.629-.41-.157-.125-.22-.346-.094-.503a.393.393 0 01.503-.095c.19.126.378.284.598.41.19.094.22.346.126.504zm.063-29.457c-.22.126-.409.22-.66.347-.064.031-.127.031-.19.031a.346.346 0 01-.315-.189.367.367 0 01.158-.504c.22-.126.44-.22.63-.346a.367.367 0 01.503.157c.126.19.063.41-.126.504zm1.858 30.497a.387.387 0 01-.347.22c-.063 0-.094 0-.157-.031a6.68 6.68 0 01-.661-.347.367.367 0 01-.158-.504.367.367 0 01.504-.158c.22.127.41.221.63.316.22.094.283.315.189.504zm.062-31.631c-.188.126-.409.252-.63.378a.448.448 0 01-.188.063.346.346 0 01-.315-.189c-.094-.189-.031-.41.126-.504.22-.126.44-.252.63-.378.157-.095.409-.063.503.126.126.189.063.41-.126.504zm1.826 32.418l-.346.126c-.032 0-.095.032-.126.032-.032 0-.094 0-.126-.032l-.346-.126c-.189-.063-.284-.283-.22-.472.062-.19.283-.284.472-.22l.22.094.22-.063c.19-.063.41.031.473.22.063.158-.032.347-.22.441zm.756-32.922c.094-.19.346-.22.503-.126.19.126.41.252.63.378.189.095.22.347.126.504a.346.346 0 01-.315.19.448.448 0 01-.189-.064c-.22-.126-.44-.252-.63-.378-.188-.095-.251-.315-.125-.504zm1.322 31.977c-.22.126-.44.22-.661.347-.063.031-.095.031-.158.031a.367.367 0 01-.346-.22c-.094-.19 0-.41.189-.504.22-.095.44-.221.63-.316a.367.367 0 01.503.158c.095.19 0 .41-.157.504zm.566-30.843a.367.367 0 01.504-.157l.63.346a.367.367 0 01.157.504.346.346 0 01-.315.19c-.063 0-.126 0-.189-.032a6.639 6.639 0 00-.66-.347c-.158-.094-.221-.315-.127-.504zm1.323 29.677c-.19.158-.41.284-.63.41a.44.44 0 01-.189.063.387.387 0 01-.315-.158c-.126-.157-.063-.41.126-.504.189-.126.41-.252.598-.41.158-.125.41-.094.504.095.126.158.094.378-.095.504zM29.7 40.64c-.189.157-.378.346-.566.504a.357.357 0 01-.252.094c-.095 0-.22-.031-.284-.126a.392.392 0 01.032-.535c.189-.158.346-.315.535-.473a.391.391 0 01.535.032.328.328 0 010 .504zm.19-26.559a.387.387 0 01-.347.22c-.063 0-.095 0-.157-.03-.22-.095-.441-.221-.662-.316a.367.367 0 01-.157-.504.367.367 0 01.504-.157c.22.094.44.22.66.315.158.063.253.283.158.472zm1.384 24.952a8.259 8.259 0 01-.503.567.399.399 0 01-.284.126.357.357 0 01-.252-.094c-.157-.126-.157-.379-.031-.536.157-.189.315-.346.472-.536.126-.157.378-.157.535-.031.19.126.19.346.063.504zm.126-23.88l-.66-.284c-.19-.095-.284-.315-.19-.504.095-.19.315-.284.504-.19l.66.284c.19.095.284.284.19.473a.387.387 0 01-.347.22c-.062.032-.094.032-.157 0zm1.26 22.116c-.158.189-.284.41-.441.598a.376.376 0 01-.284.158.582.582 0 01-.22-.063c-.158-.126-.189-.347-.063-.536a6.4 6.4 0 00.41-.567.393.393 0 01.503-.094c.189.094.22.346.094.504zm-.095-22.022c.063-.189.283-.284.472-.22.22.094.44.188.661.252.189.063.283.283.22.472-.063.158-.188.252-.346.252-.031 0-.094 0-.126-.031a6.102 6.102 0 00-.692-.252c-.158-.063-.252-.284-.19-.473zm1.29 20.131c-.126.221-.251.441-.377.63a.346.346 0 01-.315.19.448.448 0 01-.189-.063c-.189-.095-.22-.347-.126-.505.126-.188.252-.41.378-.63.094-.189.346-.252.504-.126.188.095.251.315.125.505zm1.07-1.984c-.094.22-.22.44-.314.661-.063.126-.189.19-.346.19-.063 0-.126 0-.158-.032a.367.367 0 01-.157-.504c.094-.22.22-.441.315-.662.094-.189.315-.252.503-.189.158.126.22.347.158.536zm.599-1.355c-.063.158-.19.22-.346.22-.063 0-.095 0-.158-.031-.189-.094-.283-.283-.189-.473l.284-.661c.063-.19.283-.284.472-.22.189.062.283.283.22.472-.094.252-.189.473-.283.693zm.818-2.08c-.063.158-.189.253-.346.253-.032 0-.094 0-.126-.032-.189-.063-.283-.283-.22-.472.094-.22.157-.441.22-.694.063-.189.283-.315.472-.252.19.064.315.284.252.473-.094.252-.189.504-.252.725zm.661-2.11a.369.369 0 01-.346.283h-.094a.378.378 0 01-.252-.472c.063-.22.126-.473.189-.693.063-.19.252-.315.44-.252.19.063.315.252.252.44-.063.221-.126.442-.189.694zm.567-2.174a.369.369 0 01-.346.284h-.095c-.189-.032-.315-.252-.283-.441.063-.252.094-.473.157-.694.032-.189.252-.346.441-.283.189.031.315.252.283.441-.031.22-.094.441-.157.693zm.44-2.174a.374.374 0 01-.377.315h-.063a.35.35 0 01-.283-.44c.031-.253.094-.473.126-.725a.392.392 0 01.44-.315.39.39 0 01.315.44c-.063.221-.094.473-.157.725zm.378-2.205a.374.374 0 01-.377.315h-.063c-.19-.032-.347-.22-.315-.41.031-.252.063-.504.094-.724.032-.19.22-.347.41-.315.188.031.346.22.314.41 0 .22-.031.472-.063.724zm.252-2.205c-.031.189-.189.346-.378.346h-.031a.41.41 0 01-.346-.41c.031-.251.031-.503.063-.724 0-.189.189-.347.409-.347.189 0 .346.19.346.41-.031.22-.063.441-.063.725z"/><path fill="#fff" fill-rule="evenodd" d="M22.217 23.484h-5.218l4.222 3.094-1.617 5.002 4.221-3.09 4.216 3.09-1.61-5.002 4.217-3.094h-5.213l-1.61-5.004-1.608 5.004z" clip-rule="evenodd"/><defs><filter id="filter0_d" width="47" height="51.993" x="0" y=".006" color-interpolation-filters="sRGB" filterUnits="userSpaceOnUse"><feFlood flood-opacity="0" result="BackgroundImageFix"/><feColorMatrix in="SourceAlpha" values="0 0 0 0 0 0 0 0 0 0 0 0 0 0 0 0 0 0 127 0"/><feOffset dy="-1"/><feGaussianBlur stdDeviation="2"/><feColorMatrix values="0 0 0 0 0 0 0 0 0 0 0 0 0 0 0 0 0 0 0.1581 0"/><feBlend in2="BackgroundImageFix" result="effect1_dropShadow"/><feBlend in="SourceGraphic" in2="effect1_dropShadow" result="shape"/></filter></defs></svg>