<svg xmlns="http://www.w3.org/2000/svg" width="47" height="52" fill="none" viewBox="0 0 47 52"><g filter="url(#filter0_d)"><path fill="#fff" fill-rule="evenodd" d="M42.997 15.06c.048-.746-.47-1.424-1.252-1.633C31.51 10.686 23.636 5.1 23.503 5.006c-.139.093-8.011 5.679-18.248 8.42-.782.209-1.3.886-1.252 1.633.364 5.666 2.849 28.162 19.494 33.94 16.651-5.776 19.136-28.273 19.5-33.94z" clip-rule="evenodd"/></g><path fill="#fff" stroke="#fff" d="M31.594 24.438h-7.759a.277.277 0 01-.276-.28c0-.155.123-.28.276-.28h7.759c.153 0 .276.125.276.28 0 .156-.123.28-.276.28z"/><path fill="#FF936E" d="M39.047 15.223C30.369 12.888 23.653 8.093 23.53 8c-.122.093-6.808 4.92-15.455 7.285-.675.187-1.104.779-1.073 1.401.306 4.888 2.483 24.285 16.65 29.204C37.79 40.877 39.845 21.45 40.12 16.562c.03-.56-.398-1.152-1.073-1.339zM36.9 16.282l.276.062c.184.062.338.124.491.218.153.124.215.342.092.498a.375.375 0 01-.307.156.563.563 0 01-.214-.063c-.092-.062-.184-.093-.276-.124l-.276-.062c-.184-.063-.307-.25-.246-.436a.431.431 0 01.46-.25zm-2.023-.592c.214.062.429.156.674.218.184.062.307.28.245.467-.06.156-.184.25-.337.25-.03 0-.061 0-.123-.032-.214-.062-.46-.156-.674-.218-.184-.062-.276-.28-.215-.467.03-.187.245-.28.43-.218zM23.04 10.335l.276-.187c.03-.03.03-.03.06-.03a.275.275 0 01.308 0c.03.03.06.03.092.061l.245.187c.153.125.215.343.092.498a.376.376 0 01-.307.156.56.56 0 01-.214-.062l-.062-.063-.092.063c-.153.124-.398.062-.49-.094-.123-.187-.062-.404.092-.529zM11.57 15.97c.215-.062.46-.155.675-.218.184-.062.399.031.46.218.062.187-.03.405-.214.467-.215.063-.46.156-.675.218-.03 0-.061.031-.123.031-.153 0-.306-.093-.337-.249-.061-.187.03-.404.215-.467zm-2.115.716c.153-.093.306-.186.49-.218l.276-.062c.184-.062.4.062.46.25.062.186-.06.404-.245.466l-.276.063a1.082 1.082 0 00-.276.124.438.438 0 01-.215.062.376.376 0 01-.306-.155c-.123-.187-.092-.405.092-.53zm-.644 2.335c-.03-.28-.03-.498-.062-.716a.4.4 0 01.338-.404c.184 0 .368.124.398.342 0 .218.031.467.062.716.03.187-.123.374-.338.405h-.03c-.184 0-.338-.156-.368-.343zm.245 2.18c-.03-.25-.061-.498-.092-.716-.03-.187.123-.374.307-.405.184-.031.368.125.398.311.031.218.062.467.092.716.031.187-.122.374-.306.405h-.062c-.153 0-.306-.124-.337-.311zm.399 2.18c-.03-.25-.092-.499-.123-.717-.03-.187.092-.405.307-.436.184-.03.368.094.43.311.03.218.091.468.122.717.03.186-.092.404-.276.436h-.062c-.214-.032-.368-.156-.398-.312zm.43 2.147c-.062-.249-.124-.467-.154-.716-.03-.187.092-.404.276-.436.184-.03.398.094.43.28.06.219.091.468.152.686.031.186-.06.404-.276.436h-.092c-.153.03-.306-.094-.337-.25zm.551 2.117c-.061-.249-.123-.466-.184-.716-.061-.186.061-.404.245-.435.184-.063.4.062.43.249.061.218.122.467.184.685.061.186-.062.404-.246.467h-.092c-.153.03-.306-.063-.337-.25zm.981 2.367c-.153 0-.276-.094-.337-.25-.092-.217-.153-.466-.245-.684a.363.363 0 01.245-.467.356.356 0 01.46.249c.061.218.153.436.215.685.061.186-.031.404-.215.467h-.123zm.798 2.023a.377.377 0 01-.338-.217c-.092-.219-.184-.436-.276-.686-.061-.186.031-.404.215-.466.184-.063.399.03.46.217l.276.654a.334.334 0 01-.184.467c-.061.031-.123.031-.153.031zm.92 1.993a.422.422 0 01-.338-.187 6.4 6.4 0 01-.306-.654c-.092-.186 0-.404.184-.498.184-.093.398 0 .49.187.092.218.215.436.307.654.092.187.03.405-.153.498-.062-.031-.123 0-.184 0zm1.257 1.837a.431.431 0 01-.184.062.336.336 0 01-.307-.187c-.122-.218-.245-.404-.368-.622-.092-.187-.03-.405.123-.498.184-.094.399-.032.49.124.123.218.246.405.369.623.092.155.03.373-.123.498zM13.84 15.97c-.03.031-.092.031-.123.031-.153 0-.276-.093-.337-.249-.061-.187.03-.404.215-.467.214-.093.429-.155.644-.249.184-.062.398.031.46.218.06.187-.031.405-.215.467-.184.063-.399.156-.644.25zm1.778 21.638c-.06.063-.153.063-.214.063a.32.32 0 01-.276-.156c-.153-.187-.276-.405-.43-.592-.122-.155-.06-.404.093-.498.153-.124.398-.093.49.094.123.187.276.373.399.56.123.187.092.405-.062.53zm.092-22.478a.377.377 0 01-.337-.218.334.334 0 01.184-.467l.644-.28c.184-.094.399 0 .49.186.093.187 0 .405-.183.498l-.644.28h-.154zm1.32 24.128a.346.346 0 01-.246.094.372.372 0 01-.276-.125 8.183 8.183 0 00-.49-.529.391.391 0 01.03-.53.377.377 0 01.521.032c.154.187.307.342.46.53a.362.362 0 010 .529zm1.594 1.464c-.062.093-.184.124-.276.124-.092 0-.154-.03-.245-.093-.184-.156-.369-.311-.553-.498-.153-.125-.153-.374-.03-.53.122-.155.368-.155.521-.03.184.155.337.31.521.466.154.156.184.405.062.56zm-.154-26.838c-.214.094-.429.218-.643.312-.062.03-.093.03-.154.03a.357.357 0 01-.337-.217c-.092-.187 0-.405.184-.498.215-.094.43-.218.644-.312a.355.355 0 01.49.156c.092.187 0 .436-.184.53zm1.902 28.083c-.062.125-.184.156-.307.156a.43.43 0 01-.184-.063c-.215-.124-.399-.28-.613-.404-.154-.125-.215-.343-.092-.498a.379.379 0 01.49-.094c.184.125.368.28.583.405.184.093.215.343.123.498zm0-29.11a12.59 12.59 0 01-.644.342c-.062.031-.123.031-.184.031a.337.337 0 01-.307-.186c-.092-.187-.03-.405.153-.498.215-.125.43-.218.614-.343a.355.355 0 01.49.156c.123.187.062.405-.122.498zm1.87 30.138a.377.377 0 01-.337.218c-.061 0-.092 0-.153-.032a6.46 6.46 0 01-.644-.342c-.184-.093-.246-.311-.154-.498a.355.355 0 01.491-.156c.215.125.399.218.613.311a.354.354 0 01.184.498zm0-31.259c-.184.125-.398.25-.613.374a.432.432 0 01-.184.062.337.337 0 01-.307-.187c-.092-.187-.03-.405.123-.498.215-.124.43-.25.613-.374.154-.093.399-.062.491.125.123.187.061.405-.123.498zm1.87 32.037l-.336.124c-.031 0-.092.032-.123.032-.03 0-.092 0-.123-.032l-.337-.124c-.184-.062-.276-.28-.215-.467.062-.187.276-.28.46-.218l.215.093.215-.062c.184-.062.398.031.46.218a.398.398 0 01-.215.436zm.614-32.535c.092-.187.338-.218.49-.125.185.125.4.25.614.374.184.093.215.342.123.498a.336.336 0 01-.307.187.431.431 0 01-.184-.062c-.215-.125-.43-.25-.613-.374-.154-.093-.215-.311-.123-.498zm1.38 31.57c-.215.124-.43.218-.644.342-.061.031-.092.031-.153.031a.357.357 0 01-.338-.218c-.091-.186 0-.404.184-.498.215-.093.43-.218.614-.311a.355.355 0 01.49.156c.093.186 0 .404-.153.498zm.49-30.48a.355.355 0 01.491-.156l.614.342c.184.094.245.312.153.499a.337.337 0 01-.307.186c-.06 0-.122 0-.184-.03a6.46 6.46 0 00-.643-.343c-.154-.094-.215-.312-.123-.498zm1.35 29.328c-.184.156-.399.28-.613.404a.431.431 0 01-.184.063.376.376 0 01-.307-.156c-.122-.155-.061-.405.123-.498.184-.125.398-.25.582-.405.154-.124.4-.093.491.094.123.155.092.373-.092.498zm1.717-1.401c-.184.155-.368.342-.552.498a.345.345 0 01-.245.093c-.092 0-.215-.03-.276-.124a.392.392 0 01.03-.53c.185-.155.338-.31.522-.467a.377.377 0 01.521.032.327.327 0 010 .498zm.123-26.246a.377.377 0 01-.337.218c-.062 0-.092 0-.154-.031-.214-.094-.429-.218-.644-.312-.184-.093-.245-.311-.153-.498a.355.355 0 01.49-.155c.215.093.43.217.645.31.153.063.245.281.153.468zm1.41 24.658a8.006 8.006 0 01-.49.56.386.386 0 01-.276.125.345.345 0 01-.245-.093c-.154-.125-.154-.374-.031-.53.153-.187.307-.342.46-.53.123-.155.368-.155.521-.03.184.124.184.342.062.498zm.062-23.6l-.644-.28c-.184-.093-.276-.311-.184-.498.092-.187.307-.28.49-.187l.645.28c.184.094.276.28.184.468a.377.377 0 01-.338.217c-.061.031-.092.031-.153 0zm1.288 21.856c-.153.187-.276.405-.43.592a.364.364 0 01-.275.156.563.563 0 01-.215-.063c-.153-.124-.184-.342-.061-.529.153-.187.276-.373.398-.56a.379.379 0 01.49-.094c.185.094.216.343.093.498zm-.153-21.762c.06-.187.276-.28.46-.218.214.093.429.187.643.249.184.062.276.28.215.467-.061.156-.184.249-.337.249-.03 0-.092 0-.123-.031a5.92 5.92 0 00-.674-.25c-.154-.062-.246-.28-.184-.466zm1.318 19.894c-.122.218-.245.436-.368.623a.337.337 0 01-.307.187.433.433 0 01-.183-.062c-.184-.094-.215-.343-.123-.498.123-.187.245-.405.368-.623.092-.187.337-.25.49-.125.184.094.246.312.123.498zm1.043-1.961c-.092.218-.215.436-.307.654-.061.124-.184.187-.337.187-.062 0-.123 0-.154-.032-.184-.093-.245-.31-.153-.498.092-.218.215-.436.307-.654.092-.186.306-.249.49-.186.123.124.215.342.154.529zm.552-1.339c-.061.156-.184.218-.337.218-.062 0-.093 0-.154-.031-.184-.093-.276-.28-.184-.467l.276-.654c.062-.187.276-.28.46-.218.184.063.276.28.215.467-.092.25-.184.467-.276.685zm.797-2.086c-.061.156-.184.25-.337.25-.03 0-.092 0-.123-.032-.184-.062-.276-.28-.215-.467a4.45 4.45 0 00.215-.685c.061-.187.276-.311.46-.249s.307.28.245.467c-.092.25-.184.498-.245.716zm.644-2.086a.36.36 0 01-.337.28h-.092a.375.375 0 01-.246-.467c.062-.218.123-.467.184-.684.062-.187.246-.312.43-.25.184.063.306.25.245.436-.061.218-.123.436-.184.685zm.552-2.148a.36.36 0 01-.337.28h-.092c-.184-.03-.307-.249-.276-.436.061-.249.092-.467.153-.685.03-.186.245-.342.43-.28.183.031.306.25.275.436-.03.218-.092.436-.153.685zm.43-2.148a.366.366 0 01-.369.311h-.06a.346.346 0 01-.277-.436c.03-.249.092-.467.123-.716a.383.383 0 01.429-.311.387.387 0 01.307.436c-.062.218-.092.467-.154.716zm.337-2.18a.366.366 0 01-.368.312h-.062c-.184-.031-.337-.218-.306-.405.03-.25.061-.498.092-.716.03-.187.214-.343.398-.311.184.03.338.218.307.404 0 .218-.03.467-.061.716zm.245-2.179c-.03.187-.184.342-.368.342h-.03a.403.403 0 01-.338-.404c.03-.25.03-.498.061-.716 0-.187.184-.343.399-.343.184 0 .337.187.337.405-.03.218-.061.436-.061.716z"/><path fill="#fff" stroke="#fff" d="M21.26 32.44h-.062c-.153-.03-.245-.186-.245-.342l.368-1.961c.03-.156.184-.28.337-.25.153.032.245.187.245.343l-.368 1.961c0 .125-.122.25-.276.25zm4.845 0c-.123 0-.246-.093-.276-.248l-.368-1.962a.285.285 0 01.245-.342c.153-.032.307.062.337.249l.368 1.961a.285.285 0 01-.245.343c-.03-.032-.061 0-.061 0zm-2.423-7.16a1.108 1.108 0 01-1.104-1.121c0-.623.49-1.12 1.104-1.12.613 0 1.104.497 1.104 1.12 0 .156-.123.28-.276.28a.277.277 0 01-.276-.28c0-.28-.215-.53-.521-.53-.307 0-.522.219-.522.53 0 .311.215.53.522.53.153 0 .276.124.276.28-.031.186-.154.31-.307.31z"/><path fill="#fff" stroke="#fff" d="M23.682 29.483c-2.883 0-5.244-2.398-5.244-5.324 0-2.927 2.361-5.324 5.244-5.324 2.883 0 5.244 2.397 5.244 5.324 0 .155-.123.28-.276.28a.277.277 0 01-.276-.28c0-2.615-2.085-4.732-4.661-4.732-2.576 0-4.662 2.117-4.662 4.732s2.086 4.732 4.662 4.732c2.146 0 4.017-1.494 4.508-3.611a.283.283 0 01.337-.218c.153.03.245.187.215.342-.583 2.429-2.668 4.079-5.091 4.079z"/><path fill="#fff" stroke="#fff" d="M23.682 27.397c-1.748 0-3.158-1.432-3.158-3.207 0-1.774 1.41-3.207 3.158-3.207s3.159 1.433 3.159 3.207c0 .156-.123.28-.276.28a.277.277 0 01-.276-.28c0-1.463-1.166-2.615-2.576-2.615-1.41 0-2.576 1.183-2.576 2.615 0 1.463 1.165 2.615 2.576 2.615 1.012 0 1.932-.622 2.361-1.556.061-.156.245-.218.399-.156.153.062.214.25.153.405-.583 1.152-1.717 1.899-2.944 1.899zm7.237-2.833a.328.328 0 01-.215-.094c-.122-.124-.122-.31 0-.404l1.35-1.34c.122-.124.306-.124.398 0 .123.125.123.312 0 .406l-1.349 1.338c-.03.063-.123.094-.184.094zm-1.84 0a.328.328 0 01-.214-.094c-.123-.124-.123-.31 0-.404l1.349-1.34c.123-.124.306-.124.399 0 .122.125.122.312 0 .406l-1.35 1.338c-.03.063-.092.094-.184.094z"/><path fill="#fff" stroke="#fff" d="M32.268 25.81a.328.328 0 01-.214-.094l-1.35-1.339c-.122-.124-.122-.311 0-.405.123-.124.307-.124.399 0l1.35 1.34c.122.124.122.31 0 .404-.031.093-.093.093-.185.093zm-1.84 0a.329.329 0 01-.214-.094l-1.35-1.339c-.122-.124-.122-.311 0-.405.123-.124.307-.124.4 0l1.348 1.34c.123.124.123.31 0 .404-.06.093-.122.093-.184.093z"/><defs><filter id="filter0_d" width="47" height="51.993" x="0" y=".006" color-interpolation-filters="sRGB" filterUnits="userSpaceOnUse"><feFlood flood-opacity="0" result="BackgroundImageFix"/><feColorMatrix in="SourceAlpha" values="0 0 0 0 0 0 0 0 0 0 0 0 0 0 0 0 0 0 127 0"/><feOffset dy="-1"/><feGaussianBlur stdDeviation="2"/><feColorMatrix values="0 0 0 0 0 0 0 0 0 0 0 0 0 0 0 0 0 0 0.1581 0"/><feBlend in2="BackgroundImageFix" result="effect1_dropShadow"/><feBlend in="SourceGraphic" in2="effect1_dropShadow" result="shape"/></filter></defs></svg>