<svg xmlns="http://www.w3.org/2000/svg" width="47" height="52" fill="none" viewBox="0 0 47 52"><g filter="url(#filter0_d)"><path fill="#fff" fill-rule="evenodd" d="M42.997 15.06c.048-.746-.47-1.424-1.252-1.633C31.51 10.686 23.636 5.1 23.503 5.006c-.139.093-8.011 5.679-18.248 8.42-.782.209-1.3.886-1.252 1.633.364 5.666 2.849 28.162 19.494 33.94 16.651-5.776 19.136-28.273 19.5-33.94z" clip-rule="evenodd"/></g><path fill="#F7D44C" d="M39.054 15.256C30.374 12.889 23.687 8.093 23.564 8c-.122.093-6.808 4.89-15.489 7.256-.675.187-1.104.778-1.073 1.401.306 4.89 2.423 24.29 16.563 29.273 14.14-4.983 16.256-24.384 16.563-29.273.03-.623-.399-1.214-1.074-1.401zm-2.147 1.059l.276.062c.184.062.338.125.491.218.154.125.215.343.092.498a.375.375 0 01-.306.156.563.563 0 01-.215-.062 1.078 1.078 0 00-.276-.125L36.693 17c-.184-.063-.307-.25-.246-.436a.431.431 0 01.46-.25zm-2.024-.623c.215.062.43.156.675.218.184.062.306.28.245.467-.061.156-.184.25-.337.25-.03 0-.062 0-.123-.032-.215-.062-.46-.156-.675-.218-.184-.062-.276-.28-.214-.467.03-.187.245-.28.429-.218zm-11.809-5.387l.276-.187c.03-.032.03-.032.061-.032a.275.275 0 01.307 0c.03.032.061.032.092.063l.245.187c.154.124.215.342.093.498a.376.376 0 01-.307.156.563.563 0 01-.215-.063l-.061-.062-.092.062c-.154.125-.399.063-.491-.093-.123-.187-.061-.405.092-.53zM11.572 15.91c.215-.062.46-.156.675-.218.184-.062.398.031.46.218.061.187-.031.405-.215.467-.215.062-.46.156-.675.218-.03 0-.061.031-.123.031-.153 0-.306-.093-.337-.249-.061-.187.03-.405.215-.467zm-2.117.716c.154-.093.307-.187.491-.218l.276-.062c.184-.062.399.062.46.249.062.187-.061.405-.245.467l-.276.062a1.083 1.083 0 00-.276.125.438.438 0 01-.215.062.376.376 0 01-.307-.155c-.122-.187-.092-.405.092-.53zm-.644 2.336c-.03-.28-.03-.499-.061-.716a.4.4 0 01.337-.405c.184 0 .368.124.399.342 0 .218.03.467.061.716.031.187-.122.374-.337.405h-.03c-.185 0-.338-.155-.369-.342zm.246 2.18c-.031-.25-.062-.499-.092-.717-.031-.187.122-.373.306-.405.184-.03.368.125.4.312.03.218.06.467.091.716.03.187-.123.374-.307.405h-.061c-.153 0-.307-.125-.337-.311zm.368 2.18c-.031-.25-.092-.499-.123-.717-.03-.187.092-.405.307-.436.184-.03.368.094.43.312.03.218.091.467.122.716.03.187-.092.405-.276.436h-.062c-.214-.031-.368-.156-.398-.311zm.43 2.148c-.062-.249-.124-.467-.154-.716-.03-.187.092-.405.276-.436.184-.031.399.093.43.28.06.218.091.467.153.685.03.187-.062.405-.277.436h-.091c-.154.031-.307-.093-.338-.249zm.551 2.118c-.061-.25-.123-.467-.184-.716-.061-.187.062-.405.246-.436.184-.063.398.062.429.249.061.218.123.467.184.685.061.187-.061.405-.245.467h-.092c-.154.031-.307-.062-.338-.25zm.982 2.367c-.154 0-.276-.094-.338-.25-.092-.218-.153-.467-.245-.685a.363.363 0 01.245-.467.356.356 0 01.46.25c.062.217.154.435.215.684.062.187-.03.405-.215.468h-.122zm.797 2.024a.377.377 0 01-.337-.218 15.536 15.536 0 01-.276-.685c-.062-.187.03-.405.215-.468a.365.365 0 01.46.218l.276.654a.334.334 0 01-.184.468c-.062.03-.123.03-.154.03zm.89 1.993a.422.422 0 01-.338-.187 6.4 6.4 0 01-.306-.654c-.092-.187 0-.405.184-.498.184-.094.398 0 .49.186.092.218.215.436.307.654a.367.367 0 01-.153.499c-.062-.031-.123 0-.184 0zm1.257 1.837c-.061.031-.122.062-.184.062a.337.337 0 01-.306-.187c-.123-.217-.246-.404-.369-.622-.091-.187-.03-.405.123-.498.184-.094.399-.032.49.124.124.218.246.405.369.623.092.156.03.373-.123.498zm-.49-19.9c-.031.032-.093.032-.123.032-.153 0-.276-.093-.337-.25-.062-.186.03-.404.214-.466.215-.094.43-.156.644-.25.184-.062.399.032.46.219.062.186-.03.404-.214.467-.184.062-.4.155-.645.249zm1.717 21.675c-.061.062-.153.062-.214.062a.32.32 0 01-.277-.155c-.153-.187-.276-.405-.429-.592-.123-.156-.061-.405.092-.498.153-.125.399-.094.49.093.123.187.277.374.4.56.122.188.092.406-.062.53zm.154-22.484a.377.377 0 01-.338-.218.334.334 0 01.184-.467l.644-.28c.184-.094.4 0 .491.187.092.187 0 .405-.184.498l-.644.28h-.153zm1.257 24.135a.345.345 0 01-.245.093.372.372 0 01-.276-.125c-.154-.186-.338-.373-.491-.529a.392.392 0 01.03-.53.377.377 0 01.522.032c.153.187.307.342.46.53a.362.362 0 010 .529zm1.595 1.463c-.061.094-.184.125-.276.125-.092 0-.153-.031-.245-.094a7.755 7.755 0 01-.552-.498c-.154-.124-.154-.373-.031-.53.123-.155.368-.155.521-.03.184.155.338.311.522.467.153.155.184.405.061.56zm-.092-26.843c-.215.093-.43.217-.644.311-.061.031-.092.031-.153.031a.358.358 0 01-.338-.218c-.092-.187 0-.405.184-.498.215-.094.43-.218.644-.312a.355.355 0 01.491.156c.092.187 0 .436-.184.53zm1.84 28.089c-.06.124-.184.156-.306.156a.431.431 0 01-.184-.063c-.215-.124-.399-.28-.614-.404-.153-.125-.214-.343-.092-.499a.379.379 0 01.491-.093c.184.124.368.28.583.405.184.093.215.342.123.498zm.062-29.117a12.59 12.59 0 01-.644.342c-.062.032-.123.032-.184.032a.337.337 0 01-.307-.187c-.092-.187-.03-.405.153-.498.215-.125.43-.219.614-.343a.355.355 0 01.49.156c.123.186.062.404-.122.498zm1.81 30.145a.377.377 0 01-.338.218c-.061 0-.092 0-.153-.032-.215-.093-.43-.218-.644-.342a.366.366 0 01-.154-.498.355.355 0 01.491-.156c.215.124.399.218.613.311a.354.354 0 01.184.499zm.06-31.266c-.183.124-.398.249-.613.373a.413.413 0 01-.184.063.337.337 0 01-.306-.187c-.092-.187-.031-.405.122-.498.215-.125.43-.25.614-.374.153-.093.398-.062.49.124.123.187.062.405-.122.499zm1.78 32.044l-.337.125c-.031 0-.092.03-.123.03-.03 0-.092 0-.123-.03l-.337-.125c-.184-.062-.276-.28-.215-.467.061-.187.276-.28.46-.218l.215.093.214-.062c.184-.062.4.031.46.218.062.156-.03.343-.214.436zm.736-32.543c.092-.186.337-.217.49-.124.185.124.4.25.614.374.184.093.215.342.123.498a.337.337 0 01-.307.187.421.421 0 01-.184-.063c-.215-.124-.43-.249-.613-.373-.184-.094-.246-.312-.123-.498zm1.288 31.609c-.214.124-.43.218-.644.342-.061.032-.092.032-.153.032a.358.358 0 01-.338-.218c-.092-.187 0-.405.184-.499.215-.093.43-.218.614-.311a.355.355 0 01.49.156c.093.187 0 .404-.153.498zm.552-30.487a.355.355 0 01.491-.156l.614.342c.184.094.245.312.153.499a.337.337 0 01-.307.187c-.061 0-.122 0-.184-.032a6.477 6.477 0 00-.644-.342c-.153-.094-.215-.312-.123-.498zm1.289 29.335c-.184.155-.4.28-.614.404a.417.417 0 01-.184.063.376.376 0 01-.307-.156c-.122-.156-.06-.405.123-.498.184-.125.399-.25.583-.405.153-.125.399-.094.49.093.123.156.093.374-.091.499zm1.717-1.402c-.184.156-.368.343-.552.499a.346.346 0 01-.245.093c-.092 0-.215-.031-.276-.125a.392.392 0 01.03-.529c.184-.156.338-.311.522-.467a.377.377 0 01.521.031.327.327 0 010 .498zm.184-26.252a.377.377 0 01-.337.218c-.061 0-.092 0-.153-.03-.215-.094-.43-.219-.645-.312-.184-.094-.245-.312-.153-.499a.355.355 0 01.49-.155c.216.093.43.218.645.311.153.062.245.28.153.467zm1.35 24.664a8.01 8.01 0 01-.49.56.386.386 0 01-.277.125.345.345 0 01-.245-.093c-.154-.125-.154-.374-.03-.53.152-.186.306-.342.46-.529.122-.156.367-.156.52-.031.185.124.185.342.062.498zm.123-23.605l-.645-.28c-.183-.094-.276-.312-.183-.498.091-.187.306-.28.49-.187l.644.28c.184.093.276.28.184.467a.377.377 0 01-.337.218c-.061.031-.092.031-.153 0zM32.49 36.93c-.153.187-.276.405-.429.592a.365.365 0 01-.276.156.563.563 0 01-.215-.063c-.153-.124-.184-.342-.061-.53a6.3 6.3 0 00.399-.56.379.379 0 01.49-.093c.184.093.215.343.092.498zm-.092-21.767c.062-.187.277-.28.46-.219.215.094.43.187.645.25.184.062.276.28.214.467-.06.155-.184.249-.337.249-.03 0-.092 0-.123-.031a5.91 5.91 0 00-.674-.25c-.154-.062-.246-.28-.184-.466zm1.258 19.899c-.123.218-.245.436-.368.623a.337.337 0 01-.307.186.424.424 0 01-.184-.062c-.184-.093-.214-.342-.122-.498.122-.187.245-.405.368-.623.092-.187.337-.25.49-.125.184.094.246.312.123.499zM34.7 33.1c-.092.218-.215.436-.307.654-.061.124-.184.187-.337.187-.062 0-.123 0-.154-.032-.184-.093-.245-.31-.153-.498.092-.218.215-.436.307-.654.092-.187.307-.249.49-.187a.496.496 0 01.154.53zm.583-1.34c-.062.156-.184.219-.338.219-.061 0-.092 0-.153-.031-.184-.094-.276-.28-.184-.468l.276-.654c.061-.186.276-.28.46-.218.184.063.276.28.215.468a15.68 15.68 0 01-.276.685zm.797-2.055c-.061.156-.184.25-.337.25-.03 0-.092 0-.123-.032-.184-.062-.276-.28-.215-.467.092-.218.154-.436.215-.685.062-.187.276-.311.46-.249s.307.28.246.467c-.092.25-.184.498-.246.716zm.644-2.086a.36.36 0 01-.337.28h-.092a.374.374 0 01-.245-.467c.06-.218.122-.467.184-.685.06-.187.245-.311.429-.25.184.063.307.25.245.437-.061.218-.122.436-.184.685zm.553-2.149a.36.36 0 01-.338.28h-.092c-.184-.03-.307-.249-.276-.436.061-.249.092-.467.153-.685.031-.186.246-.342.43-.28.184.031.306.25.276.436-.03.218-.092.436-.154.685zm.429-2.148a.366.366 0 01-.368.31h-.062a.346.346 0 01-.276-.435c.031-.25.092-.467.123-.716a.383.383 0 01.43-.312.387.387 0 01.306.436c-.061.218-.092.467-.153.716zm.368-2.18a.366.366 0 01-.368.311h-.061c-.184-.031-.338-.218-.307-.405.03-.249.061-.498.092-.716.03-.187.215-.343.399-.312.184.032.337.218.306.405 0 .218-.03.467-.061.717zm.245-2.18c-.03.187-.184.342-.368.342h-.03a.403.403 0 01-.338-.405c.03-.249.03-.498.062-.716 0-.187.184-.342.398-.342.184 0 .338.186.338.404-.031.218-.062.436-.062.717z"/><path fill="#fff" d="M27.777 25.533c-.153-.312-.49-.467-.797-.467h-3.19l1.503-4.017a.93.93 0 00-.154-.841.91.91 0 00-.736-.374h-2.668a.95.95 0 00-.89.685l-1.84 5.543a.93.93 0 00.153.841.91.91 0 00.736.374h3.926l-2.116 5.948 6.073-6.727c.153-.311.184-.685 0-.965z"/><defs><filter id="filter0_d" width="47" height="51.993" x="0" y=".006" color-interpolation-filters="sRGB" filterUnits="userSpaceOnUse"><feFlood flood-opacity="0" result="BackgroundImageFix"/><feColorMatrix in="SourceAlpha" values="0 0 0 0 0 0 0 0 0 0 0 0 0 0 0 0 0 0 127 0"/><feOffset dy="-1"/><feGaussianBlur stdDeviation="2"/><feColorMatrix values="0 0 0 0 0 0 0 0 0 0 0 0 0 0 0 0 0 0 0.1581 0"/><feBlend in2="BackgroundImageFix" result="effect1_dropShadow"/><feBlend in="SourceGraphic" in2="effect1_dropShadow" result="shape"/></filter></defs></svg>