<svg xmlns="http://www.w3.org/2000/svg" width="18" height="18" fill="none" viewBox="0 0 18 18"><path fill="#3B4854" fill-rule="evenodd" stroke="#3B4854" stroke-width=".7" d="M11.989 17.038c-.165.066-.363-.033-.429-.198s.033-.363.198-.429A7.58 7.58 0 0016.84 9.25a7.591 7.591 0 00-15.18 0c0 3.234 2.046 6.105 5.049 7.161.165.066.264.264.198.429-.066.165-.264.264-.429.198A8.284 8.284 0 011 9.25 8.253 8.253 0 019.25 1a8.253 8.253 0 018.25 8.25 8.269 8.269 0 01-5.511 7.788zM9.481 5.191l3.96 3.993c.297.297-.165.792-.462.462L9.811 6.478c-.132-.132-.231-.099-.231.099v7.953a.33.33 0 01-.33.33c-.198 0-.33-.132-.33-.33V6.577c0-.165-.099-.231-.231-.099L5.521 9.646c-.297.297-.792-.165-.462-.462l3.96-3.993a.319.319 0 01.462 0z" clip-rule="evenodd"/></svg>
