<svg xmlns="http://www.w3.org/2000/svg" width="35" height="32" fill="none" class="add-code-light" viewBox="0 0 35 32"><rect width="35" height="32" rx="8" ry="8" /><path d="M.5.5H33A1.5 1.5 0 0134.5 2v28a1.5 1.5 0 01-1.5 1.5H.5V.5z"/><path fill="var(--color-icon-semantic-info)" d="M8.962 16.857v-.109c.807-.082 1.223-.636 1.223-1.627v-2.023c0-1.1.459-1.538 1.6-1.538h.308v-.964h-.41c-1.778 0-2.619.758-2.619 2.351v1.743c0 1.087-.307 1.457-1.216 1.457v1.305c.909 0 1.216.362 1.216 1.442v1.976c0 1.634.848 2.413 2.619 2.413h.41v-.964h-.308c-1.135 0-1.6-.444-1.6-1.53v-2.284c0-1.012-.416-1.572-1.223-1.648zm8.716.684h2.973v-1.012h-2.973v-2.973h-1.012v2.973h-2.974v1.012h2.974v2.974h1.012V17.54zm7.704-.684c-.807.076-1.224.636-1.224 1.648v2.283c0 1.087-.465 1.531-1.6 1.531h-.307v.964h.41c1.77 0 2.618-.78 2.618-2.413v-1.976c0-1.08.308-1.442 1.217-1.442v-1.306c-.91 0-1.217-.369-1.217-1.456v-1.743c0-1.592-.84-2.351-2.618-2.351h-.41v.964h.308c1.141 0 1.6.437 1.6 1.538v2.023c0 .991.416 1.545 1.223 1.627v.11z" class="add-code-light-sign"/></svg>
