<svg xmlns="http://www.w3.org/2000/svg" data-name="Layer 2" viewBox="0 0 16 16"><path fill="#2C5CC5" stroke="#2C5CC5" stroke-width=".2" d="M12.3 0H3.7A2.7 2.7 0 001 2.7v10.6A2.7 2.7 0 003.7 16h8.6a2.7 2.7 0 002.7-2.7V2.7A2.7 2.7 0 0012.3 0zm1.3 13.3a1.3 1.3 0 01-1.3 1.3H3.7a1.3 1.3 0 01-1.3-1.3V2.7a1.3 1.3 0 011.3-1.3h8.6a1.3 1.3 0 011.3 1.3zM12.25 8a.7.7 0 01-.7.7h-7.1a.7.7 0 010-1.4h7.1a.7.7 0 01.7.7zm0 3.61a.7.7 0 01-.7.7h-7.1a.7.7 0 110-1.4h7.1a.7.7 0 01.7.74zm0-7.26a.7.7 0 01-.7.7h-7.1a.7.7 0 110-1.4h7.1a.7.7 0 01.7.74z"/></svg>