<svg xmlns="http://www.w3.org/2000/svg" width="15" height="14" fill="none" viewBox="0 0 15 14"><path fill="#2C5CC5" fill-rule="evenodd" d="M14.595 9.484l-4.53-7.983A2.964 2.964 0 007.495 0a2.964 2.964 0 00-2.569 1.501L.397 9.484a3.052 3.052 0 00-.002 3.008A2.955 2.955 0 002.957 14h9.078a2.955 2.955 0 002.561-1.508 3.052 3.052 0 00-.001-3.008zM13.46 11.83a1.637 1.637 0 01-1.425.838H2.957a1.646 1.646 0 01-1.426-.84 1.7 1.7 0 010-1.675l4.54-7.983c.296-.501.83-.808 1.406-.808s1.11.307 1.407.808l4.538 7.984a1.67 1.67 0 01.038 1.676zM7.496 8.275a.662.662 0 00.656-.667V4.141a.662.662 0 00-.656-.667.662.662 0 00-.657.667v3.43a.673.673 0 00.179.495.652.652 0 00.478.21zm-.89 1.992a.947.947 0 01.89-.983.93.93 0 01.694.262.96.96 0 01.29.691c0 .52-.41.943-.922.951a.944.944 0 01-.952-.92z" clip-rule="evenodd"/></svg>