<svg xmlns="http://www.w3.org/2000/svg" width="20" height="16" fill="none" viewBox="0 0 20 16"><path fill="var(--color-text-placeholder)" fill-rule="evenodd" d="M0 10.3A1.7 1.7 0 001.7 12h12.6a1.7 1.7 0 001.7-1.7V1.7A1.7 1.7 0 0014.3 0H1.7A1.7 1.7 0 000 1.7v8.6zm1.4-8.6a.3.3 0 01.3-.3h12.6a.3.3 0 01.3.3v8.6a.3.3 0 01-.3.3H1.7a.3.3 0 01-.3-.3V1.7zM7 7.09c.293.204.643.31 1 .3a1.68 1.68 0 001-.3l4.69-3.21a.695.695 0 00-.78-1.15L8.18 5.94a.3.3 0 01-.33 0L3.09 2.72a.695.695 0 00-.78 1.15L7 7.09z" clip-rule="evenodd"/><rect width="10" height="10" x="10" y="6" fill="var(--color-text-placeholder)" rx="5"/><path fill="var(--color-icon-inverse)" d="M15.7 11l1.067-1.066c.2-.2.2-.5 0-.7-.2-.2-.5-.2-.7 0L15 10.3l-1.066-1.067c-.2-.2-.5-.2-.7 0-.2.2-.2.5 0 .7L14.3 11l-1.067 1.067c-.2.2-.2.5 0 .7.2.2.5.2.7 0L15 11.7l1.067 1.067c.2.2.5.2.7 0 .2-.2.2-.5 0-.7L15.7 11z"/></svg>
