<svg width="16" height="16" viewBox="0 0 16 16" fill="none" xmlns="http://www.w3.org/2000/svg">
<path fill-rule="evenodd" clip-rule="evenodd" d="M16 8C16 12.4183 12.4183 16 8 16C3.58172 16 0 12.4183 0 8C0 3.58172 3.58172 0 8 0C12.4183 0 16 3.58172 16 8ZM11.7657 9.03425L8.56569 5.83425C8.25327 5.52183 7.74673 5.52183 7.43431 5.83425L4.23431 9.03425C3.9219 9.34667 3.9219 9.8532 4.23431 10.1656C4.54673 10.478 5.05327 10.478 5.36569 10.1656L8 7.53131L10.6343 10.1656C10.9467 10.478 11.4533 10.478 11.7657 10.1656C12.0781 9.8532 12.0781 9.34667 11.7657 9.03425Z" fill="var(--color-icon-primary)"/>
</svg>
