<svg xmlns="http://www.w3.org/2000/svg" data-name="Layer 2" viewBox="0 0 16 16"><path fill="var(--color-icon-semantic-info)" d="M13.72 1.35a4.64 4.64 0 00-6.54 0L2 6.54a.72.72 0 000 1 .71.71 0 001 0l5.19-5.2a3.22 3.22 0 014.54 4.56L5.6 14a1.92 1.92 0 01-2.71-2.71l6.77-6.74a.63.63 0 01.43-.17.58.58 0 01.43.18.59.59 0 010 .85L5.2 10.73a.71.71 0 000 1 .69.69 0 001 0l5.31-5.33a2 2 0 00-2.84-2.84L1.9 10.34a3.31 3.31 0 000 4.66 3.27 3.27 0 002.34 1 3.31 3.31 0 002.35-1l7.13-7.14a4.64 4.64 0 000-6.51z"/></svg>
