<svg xmlns="http://www.w3.org/2000/svg" width="29" height="32" fill="none" viewBox="0 0 29 32"><clipPath id="fs-ny24lxb05a"><path d="M0 0h29v32H0z"/></clipPath><g clip-path="url(#fs-ny24lxb05a)"><path fill="var(--color-fill-base)" d="M3.668.652c-.717 0-1.298.584-1.298 1.304v28.681c0 .72.581 1.304 1.298 1.304h23.365c.717 0 1.298-.584 1.298-1.304V7.545c0-.367-.154-.717-.424-.964L21.799.991a1.294 1.294 0 00-.874-.34H3.668z"/><path fill="var(--color-text-primary)" d="M1.886 10.291l.538.395v5.285L0 13.601v-2.354a1.185 1.185 0 011.886-.956z"/><path fill="var(--color-text-secondary)" d="M.593 5.6h18.015c.327 0 .593.265.593.593v6.815a.593.593 0 01-.593.593H.001V6.194c0-.327.265-.593.593-.593z"/><path fill="var(--color-text-placeholder)" d="M8.617 27.893v-9.387h.862c.16 0 .289-.131.289-.293s-.129-.293-.289-.293H7.176c-.16 0-.289.131-.289.293s.129.293.289.293h.862v9.387h-.862c-.16 0-.289.131-.289.293s.129.293.289.293h2.303c.16 0 .289-.131.289-.293s-.129-.293-.289-.293zm3.602-7.92c-.24 0-.434.197-.434.44s.194.44.434.44h12.083c.24 0 .434-.197.434-.44s-.194-.44-.434-.44zm0 2.934c-.24 0-.434.197-.434.44s.194.44.434.44h12.083c.24 0 .434-.197.434-.44s-.194-.44-.434-.44zm0 2.933c-.24 0-.434.197-.434.44s.194.44.434.44h12.083c.24 0 .434-.197.434-.44s-.194-.44-.434-.44z"/></g></svg>
