<svg xmlns="http://www.w3.org/2000/svg" width="22" height="22" fill="none" viewBox="0 0 22 22"><circle cx="11" cy="11" r="11" fill="#1B9EE2"/><path fill="#fff" fill-rule="evenodd" d="M7.08 6.307a6.124 6.124 0 017.654-.146 6.162 6.162 0 012.25 6.101.536.536 0 01-.52.429h-.114a.544.544 0 01-.414-.636 5.09 5.09 0 00-1.868-5.044 5.06 5.06 0 00-6.223.038h.727a.536.536 0 110 1.072h-2.06a.468.468 0 01-.099 0 .643.643 0 01-.137-.077h-.054l-.069-.084-.145-.107a.429.429 0 010-.092.268.268 0 010-.107v-1.99a.536.536 0 111.071 0v.643zm8.864 7.884a.428.428 0 010 .092.269.269 0 010 .107v1.99a.536.536 0 11-1.072 0v-.643a6.125 6.125 0 01-3.866 1.409 6.078 6.078 0 01-3.697-1.248 6.162 6.162 0 01-2.296-6.124.536.536 0 111.048.215 5.09 5.09 0 001.891 5.113 5.06 5.06 0 006.239-.077h-.72a.536.536 0 010-1.071h2.06a.473.473 0 01.099 0 .647.647 0 01.107.046h.054l.069.084.084.107z" clip-rule="evenodd"/></svg>