<svg xmlns="http://www.w3.org/2000/svg" width="16" height="20" fill="none" viewBox="0 0 16 20"><path fill="#E86F25" fill-rule="evenodd" d="M15.431 13.888l-.56-.63c-.563-.623-.882-1.472-.889-2.36v-1.1c.04-3.47-2.189-6.45-5.235-7a.483.483 0 000-.11v-1c0-.386-.279-.7-.622-.7-.344 0-.623.314-.623.7v1a.213.213 0 000 .07c-3.135.288-5.54 3.252-5.51 6.79v1.35c-.002.89-.323 1.74-.89 2.36l-.56.63C.18 14.29.07 14.9.267 15.428c.196.53.654.876 1.164.88h3.556c.289 1.575 1.521 2.705 2.95 2.705 1.43 0 2.663-1.13 2.952-2.705h3.556c.51-.004.968-.35 1.164-.88a1.54 1.54 0 00-.178-1.54zm-7.43 3.71c-.74 0-1.401-.513-1.663-1.29h3.324c-.262.777-.923 1.29-1.662 1.29zm6.541-2.7H1.45l.56-.63c.795-.892 1.237-2.107 1.227-3.37v-1.35c0-2.96 2.133-5.36 4.764-5.36h.151c2.622.187 4.652 2.655 4.614 5.61v1.1c0 1.255.44 2.46 1.226 3.35l.56.65h-.009z" clip-rule="evenodd"/></svg>