<svg width="21" height="20" viewBox="0 0 21 20" fill="none" xmlns="http://www.w3.org/2000/svg">
<path fill-rule="evenodd" clip-rule="evenodd" d="M17.875 4.42501C18.5377 4.42402 19.1625 4.7341 19.5625 5.26251C19.9708 5.78639 20.1054 6.47329 19.925 7.11251L18.05 13.925C17.7978 14.8437 16.9651 15.4823 16.0125 15.4875H7.7625C6.73905 15.4866 5.86163 14.7563 5.675 13.75L3.5 2.05001C3.46474 1.87721 3.31384 1.75233 3.1375 1.75001H0.875C0.391751 1.75001 0 1.35826 0 0.87501C0 0.391761 0.391751 1.02682e-05 0.875 1.02682e-05H3.1375C4.15991 -0.00316507 5.03602 0.730445 5.2125 1.73751L5.725 4.42501H17.875ZM16.0125 13.7375C16.1783 13.7367 16.3225 13.6234 16.3625 13.4625L18.2375 6.65001C18.2663 6.53778 18.2434 6.41855 18.175 6.32501C18.107 6.22723 17.994 6.17072 17.875 6.17501H6.05L7.4 13.425C7.42512 13.6055 7.5803 13.7392 7.7625 13.7375H16.0125ZM8.75 16.925C7.90086 16.925 7.2125 17.6134 7.2125 18.4625C7.2125 19.3116 7.90086 20 8.75 20C9.59914 20 10.2875 19.3116 10.2875 18.4625C10.2875 17.6134 9.59914 16.925 8.75 16.925ZM15 16.925C14.1509 16.925 13.4625 17.6134 13.4625 18.4625C13.4625 19.3116 14.1509 20 15 20C15.8491 20 16.5375 19.3116 16.5375 18.4625C16.5375 17.6134 15.8491 16.925 15 16.925Z" fill="var(--color-icon-inverse)"/>
</svg>
