<svg xmlns="http://www.w3.org/2000/svg" width="16" height="16" fill="none" viewBox="0 0 16 16"><path fill="var(--color-fill-semantic-success-mildest)" fill-rule="evenodd" d="M8 16A8 8 0 108 0a8 8 0 000 16z" clip-rule="evenodd"/><path fill="var(--color-icon-semantic-success)" fill-rule="evenodd" d="M0 8a8 8 0 1116 0A8 8 0 010 8zm1.4 0A6.6 6.6 0 008 14.6 6.61 6.61 0 0014.6 8 6.6 6.6 0 101.4 8zM7 9.18l3.8-3.85a.71.71 0 011.204.5.69.69 0 01-.214.5l-4.34 4.35a.71.71 0 01-1 0L4.2 8.42a.707.707 0 111-1L7 9.18z" clip-rule="evenodd"/></svg>
