<svg xmlns="http://www.w3.org/2000/svg" width="20" height="20" fill="none" viewBox="0 0 20 20"><path fill="#009A79" fill-rule="evenodd" d="M12.379 17.722a8.08 8.08 0 005.7-7.8c0-.401-.03-.802-.09-1.2a.702.702 0 00-1.39.2c.057.33.084.665.08 1a6.6 6.6 0 11-6.6-6.6 6.46 6.46 0 012.55.54.701.701 0 00.55-1.29 8.08 8.08 0 10-.8 15.15zm-5.66-8.594a.69.69 0 01.5.214l1.8 1.8 6.26-6.28a.707.707 0 011 1l-6.77 6.77a.7.7 0 01-.5.21.67.67 0 01-.49-.21l-2.3-2.29a.71.71 0 010-1 .69.69 0 01.5-.214z" clip-rule="evenodd"/></svg>