<svg fill="none" height="12" viewBox="0 0 12 12" width="12" xmlns="http://www.w3.org/2000/svg"><path class="clock-icon-path" clip-rule="evenodd" d="m6 0c-3.31371 0-6 2.68629-6 6s2.68629 6 6 6 6-2.68629 6-6c0-1.5913-.6321-3.11742-1.7574-4.24264-1.12518-1.125219-2.6513-1.75736-4.2426-1.75736zm0 10.95c-2.73381 0-4.95-2.21619-4.95-4.95s2.21619-4.95 4.95-4.95 4.95 2.21619 4.95 4.95c-.0041 2.7321-2.2179 4.9459-4.95 4.95zm2.475-4.425c.28995 0 .525-.23505.525-.525s-.23505-.525-.525-.525h-1.95v-1.95c0-.28995-.23505-.525-.525-.525s-.525.23505-.525.525v2.475c0 .28995.23505.525.525.525z" fill="var(--color-icon-semantic-success)" fill-rule="evenodd"/></svg>
