<svg xmlns="http://www.w3.org/2000/svg" width="16" height="16" fill="none" viewBox="0 0 16 16"><path fill="#EBEFF3" fill-rule="evenodd" d="M8 16A8 8 0 108 0a8 8 0 000 16z" clip-rule="evenodd"/><path fill="#EBEFF3" fill-rule="evenodd" d="M8 16A8 8 0 108 0a8 8 0 000 16z" clip-rule="evenodd"/><path fill="#647A8E" fill-rule="evenodd" d="M0 8a8 8 0 1116 0A8 8 0 010 8zm1.4 0A6.6 6.6 0 008 14.6 6.61 6.61 0 0014.6 8 6.6 6.6 0 101.4 8zm8.42-2.82a.71.71 0 011 0 .71.71 0 01.01.99L9 8l1.83 1.83a.707.707 0 01-1 1L8 9l-1.82 1.83a.707.707 0 01-1-1L7 8 5.17 6.18a.707.707 0 011-1L8 7l1.82-1.82z" clip-rule="evenodd"/></svg>