<svg width="18" height="18" viewBox="0 0 18 18" fill="none" xmlns="http://www.w3.org/2000/svg">
<path d="M10.2662 8.9998L12.9378 11.6715C13.2875 12.0211 13.2875 12.588 12.9378 12.9376C12.5882 13.2872 12.0213 13.2872 11.6717 12.9376L9.00005 10.2659L6.32839 12.9376C5.97876 13.2872 5.4119 13.2872 5.06227 12.9376C4.71264 12.588 4.71264 12.0211 5.06227 11.6715L7.73393 8.9998L5.06227 6.32814C4.71264 5.97851 4.71264 5.41165 5.06227 5.06203C5.4119 4.7124 5.97876 4.7124 6.32839 5.06203L9.00005 7.73369L11.6717 5.06203C12.0213 4.7124 12.5882 4.7124 12.9378 5.06203C13.2875 5.41165 13.2875 5.97851 12.9378 6.32814L10.2662 8.9998Z" fill="var(--color-boundary-divider-mildest)"/>
<mask id="mask0_1649_15751" style="mask-type:luminance" maskUnits="userSpaceOnUse" x="4" y="4" width="10" height="10">
<path d="M10.2662 8.9998L12.9378 11.6715C13.2875 12.0211 13.2875 12.588 12.9378 12.9376C12.5882 13.2872 12.0213 13.2872 11.6717 12.9376L9.00005 10.2659L6.32839 12.9376C5.97876 13.2872 5.4119 13.2872 5.06227 12.9376C4.71264 12.588 4.71264 12.0211 5.06227 11.6715L7.73393 8.9998L5.06227 6.32814C4.71264 5.97851 4.71264 5.41165 5.06227 5.06203C5.4119 4.7124 5.97876 4.7124 6.32839 5.06203L9.00005 7.73369L11.6717 5.06203C12.0213 4.7124 12.5882 4.7124 12.9378 5.06203C13.2875 5.41165 13.2875 5.97851 12.9378 6.32814L10.2662 8.9998Z" fill="var(--color-boundary-divider-mildest)"/>
</mask>
<g mask="url(#mask0_1649_15751)">
<rect width="18" height="18" fill="var(--color-fill-neutral-bold)"/>
</g>
</svg>
