<svg width="16" height="16" viewBox="0 0 16 16" fill="none" xmlns="http://www.w3.org/2000/svg">
<g clip-path="url(#clip0_40491_124990)">
<path fill-rule="evenodd" clip-rule="evenodd" d="M0 8C0 3.58162 3.58162 0 8 0C12.4184 0 16 3.58162 16 8C16 12.4184 12.4184 16 8 16C3.58162 16 0 12.4184 0 8ZM1.19037 8.00351C1.19387 11.7637 4.24333 14.8096 8.0035 14.8096C11.7637 14.8096 14.8166 11.7567 14.8131 7.99651C14.8096 4.23633 11.7602 1.19038 8 1.19038C6.19344 1.18688 4.46039 1.9046 3.186 3.186C1.9081 4.4639 1.19037 6.19694 1.19037 8.00351Z" fill="#2C5CC5"/>
<path fill-rule="evenodd" clip-rule="evenodd" d="M10.5876 6.35836C10.7241 6.35836 10.8537 6.40037 10.9622 6.4774C11.2598 6.68396 11.3333 7.09709 11.1268 7.39469L11.1233 7.40169L7.00598 13.077C6.87994 13.2555 6.67687 13.357 6.46681 13.357C6.38978 13.357 6.31276 13.3465 6.23924 13.3185C6.07469 13.2555 5.94164 13.1365 5.86812 12.9754C5.7946 12.8179 5.7876 12.6428 5.84361 12.4783L6.77841 9.6809H5.24493C5.10488 9.6809 4.97534 9.63889 4.86681 9.56186C4.71976 9.46033 4.62523 9.30978 4.59372 9.13473C4.56221 8.95967 4.60073 8.78462 4.70226 8.64108L8.72151 2.9483C8.83705 2.79425 9.01561 2.69622 9.20817 2.67871H9.23617C9.3062 2.67871 9.37972 2.68921 9.44974 2.71022C9.79635 2.82226 9.98891 3.18987 9.88038 3.53648L9.02611 6.35836H10.5876ZM7.98628 8.80214L7.10751 11.4385L10.164 7.23364H7.84624L8.65499 4.55881L5.65806 8.80214H7.38059H7.98628Z" fill="#2C5CC5"/>
</g>
<defs>
<clipPath id="clip0_40491_124990">
<rect width="16" height="16" fill="white"/>
</clipPath>
</defs>
</svg>
