<svg xmlns="http://www.w3.org/2000/svg" width="14" height="14" fill="none"><g clip-path="url(#color-problem __a)"><path fill="#2C5CC5" fill-rule="evenodd" d="M13.058 9.985l-.617-.59c-.439-.43-1.233-.753-1.85-.753h-.28v-.786h.28c.321 0 .823.204 1.053.426l.604.591.004.003a.574.574 0 00.797-.018.545.545 0 000-.764l-.607-.588c-.44-.43-1.234-.753-1.85-.753h-.281v-.786h.28c.321 0 .823.204 1.053.427l.601.59c.1.101.243.16.393.16h.006a.6.6 0 00.402-.156l.003-.003a.544.544 0 00-.003-.78l-.604-.591c-.44-.43-1.234-.752-1.85-.752h-.306a3.528 3.528 0 00-.913-1.986l.184-.18c.433-.427.748-1.082.748-1.554v-.59A.558.558 0 009.74 0a.558.558 0 00-.564.551v.591c0 .128-.159.518-.42.777l-.26.253a3.837 3.837 0 00-3.796 0l-.259-.253c-.262-.253-.42-.646-.42-.774V.551a.545.545 0 00-.166-.39.57.57 0 00-.797 0 .545.545 0 00-.165.39v.591c0 .475.314 1.127.75 1.554l.184.18a3.539 3.539 0 00-.912 1.986h-.3c-.616 0-1.41.323-1.847.752l-.604.591a.538.538 0 00-.003.774l.003.003c.221.21.57.21.794 0l.608-.594c.23-.226.729-.427 1.053-.427h.28v.786h-.28c-.617 0-1.411.323-1.847.753l-.605.594a.543.543 0 000 .782.58.58 0 00.791 0l.611-.594c.23-.225.729-.426 1.053-.426h.28v.786h-.28c-.617 0-1.411.323-1.847.752l-.605.588a.54.54 0 00-.003.777l.006.006c.222.207.57.207.792 0l.607-.594c.23-.225.729-.426 1.053-.426h.364c.194.728.748 1.596 1.651 2.583.712.775 1.419 1.377 1.58 1.515l.028.023a.575.575 0 00.732.003c.29-.24 2.79-2.355 3.261-4.121h.362c.32 0 .822.204 1.053.426l.604.591.003.003c.221.201.57.201.791 0l.006-.006a.546.546 0 00-.003-.777zm-8.974-5.26c.115-.487.377-.935.751-1.28l.13-.124.157-.107c.869-.6 2.084-.6 2.956.003l.143.095.143.134c.374.344.639.792.751 1.282h-5.03v-.003zm5.1 4.502V5.965H4.028l.013 3.366c.068.444.42 1.06 1.015 1.782.573.697 1.215 1.3 1.548 1.599.932-.835 2.42-2.394 2.564-3.39l.016-.095z" clip-rule="evenodd"/></g><defs><clipPath id="color-problem __a"><path fill="#fff" d="M0 0h14v14H0z"/></clipPath></defs></svg>