<svg xmlns="http://www.w3.org/2000/svg" width="14" height="14" fill="none" viewBox="0 0 14 14"><path fill="#2C5CC5" fill-rule="evenodd" d="M12.2 9.56l-.54-.5a2.52 2.52 0 00-1.58-.65h-.24v-.68h.24c.27 0 .7.18.9.37l.52.5a.5.5 0 00.69 0 .47.47 0 000-.66l-.52-.5a2.53 2.53 0 00-1.59-.65h-.24v-.67h.24c.27 0 .7.17.9.36l.52.5c.08.1.2.14.33.14.14 0 .26-.04.35-.13a.47.47 0 000-.67l-.51-.5a2.53 2.53 0 00-1.59-.65h-.26a3.02 3.02 0 00-.78-1.7l.15-.16c.37-.36.64-.93.64-1.33v-.5A.48.48 0 009.35 1a.48.48 0 00-.48.47v.51c0 .11-.14.44-.36.67l-.23.21a3.29 3.29 0 00-3.25 0l-.22-.21a1.28 1.28 0 01-.36-.67v-.5a.47.47 0 00-.14-.34.49.49 0 00-.8.15.47.47 0 00-.03.18v.51c0 .4.27.97.64 1.33l.16.16c-.43.47-.7 1.06-.78 1.7h-.26c-.53 0-1.2.28-1.58.64l-.52.51a.46.46 0 000 .66.5.5 0 00.68 0l.52-.5c.2-.2.63-.37.9-.37h.25v.67h-.24c-.53 0-1.21.28-1.59.65l-.52.5a.47.47 0 000 .68.5.5 0 00.68 0l.53-.51c.2-.2.62-.37.9-.37h.24v.68h-.24c-.53 0-1.21.28-1.58.64l-.52.5a.46.46 0 000 .67.5.5 0 00.68 0l.52-.5c.2-.2.62-.37.9-.37h.31c.17.63.64 1.37 1.42 2.22.6.66 1.21 1.18 1.35 1.3l.03.02a.5.5 0 00.62 0c.25-.2 2.4-2.02 2.8-3.53h.3c.28 0 .71.17.91.36l.52.5v.01a.5.5 0 00.68 0 .47.47 0 000-.67zm-7.7-4.5c.1-.43.33-.81.65-1.1l.1-.11.14-.1a2.27 2.27 0 012.54 0l.12.09.12.11c.32.3.55.68.64 1.1h-4.3zM8.87 8.9V6.1H4.45L4.47 9c.05.38.36.9.87 1.53.49.6 1.04 1.11 1.32 1.37.8-.72 2.08-2.06 2.2-2.9l.01-.09z" clip-rule="evenodd"/></svg>