<svg width="14" height="11" viewBox="0 0 14 11" fill="none" xmlns="http://www.w3.org/2000/svg">
<path fill-rule="evenodd" clip-rule="evenodd" d="M0.526281 1.25505C0.518211 1.72657 0.885277 2.11967 1.35625 2.14387C1.6036 2.15658 1.84474 2.06387 2.01987 1.88874C2.195 1.71361 2.28771 1.47246 2.275 1.22512C2.2508 0.754146 1.8577 0.38708 1.38618 0.39515C0.914654 0.40322 0.534351 0.783523 0.526281 1.25505ZM3.91125 5.86262H12.95C13.2883 5.86262 13.5625 5.58839 13.5625 5.25012C13.5625 4.91184 13.2883 4.63762 12.95 4.63762H3.91125C3.57298 4.63762 3.29875 4.91184 3.29875 5.25012C3.29875 5.58839 3.57298 5.86262 3.91125 5.86262ZM12.95 1.83762H3.91125C3.57298 1.83762 3.29875 1.56339 3.29875 1.22512C3.29875 0.886845 3.57298 0.612619 3.91125 0.612619H12.95C13.2883 0.612619 13.5625 0.886845 13.5625 1.22512C13.5625 1.56339 13.2883 1.83762 12.95 1.83762ZM3.91125 9.88762H12.95C13.2883 9.88762 13.5625 9.61339 13.5625 9.27512C13.5625 8.93684 13.2883 8.66262 12.95 8.66262H3.91125C3.57298 8.66262 3.29875 8.93684 3.29875 9.27512C3.29875 9.61339 3.57298 9.88762 3.91125 9.88762ZM1.35625 10.1939C0.885277 10.1697 0.518211 9.77657 0.526281 9.30505C0.534351 8.83352 0.914654 8.45322 1.38618 8.44515C1.8577 8.43708 2.2508 8.80415 2.275 9.27512C2.28771 9.52246 2.195 9.76361 2.01987 9.93874C1.84474 10.1139 1.6036 10.2066 1.35625 10.1939ZM0.4375 5.25012C0.4375 5.75753 0.848838 6.16887 1.35625 6.16887C1.6036 6.18158 1.84474 6.08887 2.01987 5.91374C2.195 5.73861 2.28771 5.49746 2.275 5.25012C2.275 4.74271 1.86366 4.33137 1.35625 4.33137C0.848838 4.33137 0.4375 4.74271 0.4375 5.25012Z" fill="var(--color-icon-semantic-info)"/>
</svg>
