<svg xmlns="http://www.w3.org/2000/svg" width="16" height="16" fill="none"><g clip-path="url(#color-project 1__a)"><mask id="fs-vtquyhpvla" style="mask-type:luminance" width="16" height="16" x="0" y="0" maskUnits="userSpaceOnUse"><path fill="#fff" d="M0 0h16v16H0V0z"/></mask><g mask="url(#fs-vtquyhpvla)"><path fill="#2C5CC5" fill-rule="evenodd" d="M12.9 2.75h-1.44A2.09 2.09 0 009.4 1H6.6a2.09 2.09 0 00-2.06 1.75H3.1A2.11 2.11 0 001 4.85v2.8a2.05 2.05 0 00.7 1.55v3A2.8 2.8 0 004.5 15h7a2.8 2.8 0 002.8-2.8v-3a2.05 2.05 0 00.7-1.55v-2.8a2.11 2.11 0 00-2.1-2.1zM6.6 2.4h2.8a.69.69 0 01.59.35H6a.69.69 0 01.6-.35zM2.4 4.85a.7.7 0 01.7-.7h9.8a.7.7 0 01.7.7v2.8a.689.689 0 01-.7.7H10a1.75 1.75 0 00-1.6-1h-.7a1.75 1.75 0 00-1.6 1h-3a.69.69 0 01-.7-.7v-2.8zm6.3 4.2a.36.36 0 01-.35.36h-.7a.36.36 0 01-.35-.36.35.35 0 01.35-.34h.7c.19 0 .345.15.35.34zm2.8 4.55h-7a1.4 1.4 0 01-1.4-1.4V9.75h2.95a1.75 1.75 0 001.6 1.06h.7A1.75 1.75 0 0010 9.75h3v2.45a1.398 1.398 0 01-1.5 1.4z" clip-rule="evenodd"/></g></g><defs><clipPath id="color-project 1__a"><path fill="#fff" d="M0 0h16v16H0z"/></clipPath></defs></svg>