<svg xmlns="http://www.w3.org/2000/svg" width="14" height="14" fill="none" viewBox="0 0 14 14"><path fill="var(--color-icon-semantic-info)" fill-rule="evenodd" d="M3.5 4H5V2.5L3.5 4zm7-2.12v3.46h.9v-3.9a.44.44 0 00-.45-.44h-5.5a.5.5 0 00-.2.03.68.68 0 00-.11.1l-3 3a.43.43 0 00-.1.14.44.44 0 00-.04.17v8.12a.44.44 0 00.44.44h5.69a.44.44 0 100-.88H2.88V4.88h2.56a.44.44 0 00.44-.44V1.88h4.63zm-3.94 5.3h-2a.44.44 0 010-.88h2a.44.44 0 010 .88zm-2 2h2.8a.44.44 0 000-.89h-2.8a.44.44 0 000 .88zm2 1.99h-2a.44.44 0 110-.88h2a.44.44 0 010 .88zm3.97-4.41v-.23a.5.5 0 111 0v.23c.59.13 1.12.5 1.3 1.13a.52.52 0 01-.33.66.52.52 0 01-.63-.39c-.08-.28-.37-.47-.84-.47a.94.94 0 00-.62.2.56.56 0 00-.2.47c0 .31.42.47.8.62l.2.08.27.1c.23.08.48.17.72.33.34.22.65.66.65 1.19 0 .49-.22.93-.56 1.22-.22.19-.48.32-.76.38v.22a.5.5 0 11-1 0v-.22c-.6-.13-1.12-.51-1.3-1.13a.52.52 0 01.33-.66.52.52 0 01.62.39c.08.28.38.46.85.46.22.01.44-.06.61-.2a.55.55 0 00.21-.46c0-.32-.43-.48-.8-.63l-.21-.08a6.54 6.54 0 00-.26-.1c-.25-.08-.5-.19-.72-.33a1.43 1.43 0 01-.65-1.18c0-.5.22-.94.56-1.23.22-.18.48-.3.76-.37z" clip-rule="evenodd"/></svg>
