<svg xmlns="http://www.w3.org/2000/svg" width="14" height="14" fill="none" viewBox="0 0 14 14"><path fill="var(--color-icon-semantic-info)" d="M8.7 7c.2 0 .4 0 .5.2H12c.4 0 .9.2 1.2.5a1.7 1.7 0 0 1 0 2.4c-.3.3-.8.5-1.2.5H9.8l-.4.1a.6.6 0 0 0 .3 1h3a.8.8 0 0 1 1.3.5.8.8 0 0 1-.5.7.8.8 0 0 1-.8-.1h-3c-.5 0-.9-.2-1.2-.6-.3-.3-.4-.7-.4-1 0-1 .8-1.8 1.7-1.8H12c.3 0 .6-.2.6-.5s-.3-.6-.6-.6H9a.8.8 0 0 1-1 0 .8.8 0 0 1-.2-.6.8.8 0 0 1 .4-.6l.4-.1Zm2.1-6c.5 0 .9.3 1.2.6.3.3.4.7.4 1.1v1c0 .3-.2.5-.5.5a1 1 0 0 0-1 1c0 .3-.3.5-.6.5a.6.6 0 0 1-.5-.6 2 2 0 0 1 1.5-2v-.4c0-.3-.3-.6-.6-.6h-9c-.3 0-.6.3-.6.6v.5a2 2 0 0 1 1.6 2v.2A2 2 0 0 1 1 7v.5c0 .3.3.6.7.6h4.5c.3 0 .5.3.5.5 0 .3-.2.5-.5.6H1.7C.8 9.3 0 8.5 0 7.6v-1c0-.3.3-.5.6-.5a1 1 0 0 0 1-.9 1 1 0 0 0-1-1 .6.6 0 0 1-.6-.5v-1C0 1.7.8 1 1.8 1h9Zm-3 3.6c.2 0 .4.3.4.5 0 .3-.2.5-.4.6H4.7a.6.6 0 0 1-.5-.6c0-.3.2-.5.6-.5h3Z"/></svg>