<svg xmlns="http://www.w3.org/2000/svg" width="16" height="11" fill="none" viewBox="0 0 16 11"><path fill="var(--color-icon-semantic-info)" fill-rule="evenodd" d="M0 2.019v1.393l.517.297c.547.313.883.877.883 1.491 0 .614-.336 1.178-.883 1.491L0 6.988V8.38C0 9.496.87 10.4 1.941 10.4H14.06C15.13 10.4 16 9.496 16 8.381V6.988l-.518-.297A1.722 1.722 0 0114.6 5.2c0-.614.336-1.178.883-1.491L16 3.412V2.02C16 .904 15.13 0 14.059 0H1.94C.87 0 0 .904 0 2.019zm1 5.583A2.768 2.768 0 002.4 5.2 2.768 2.768 0 001 2.798v-.78c0-.54.421-.978.941-.978H14.06c.52 0 .941.438.941.979v.779A2.768 2.768 0 0013.6 5.2c0 1.026.563 1.923 1.4 2.402v.779c0 .54-.421.979-.941.979H1.94C1.421 9.36 1 8.922 1 8.38v-.779zm4.441-5.11h5.118c1.072 0 1.941.903 1.941 2.018v1.37c0 1.116-.87 2.02-1.941 2.02H5.44C4.37 7.9 3.5 6.995 3.5 5.88V4.51c0-1.115.87-2.019 1.941-2.019zM4.5 4.51c0-.54.421-.979.941-.979h5.118c.52 0 .941.438.941.98v1.37c0 .54-.421.978-.941.978H5.44c-.52 0-.941-.438-.941-.979V4.51z" clip-rule="evenodd"/></svg>
