<svg xmlns="http://www.w3.org/2000/svg" width="11" height="12" fill="none"><g clip-path="url(#color-purchase-order __a)"><path fill="#2C5CC5" fill-rule="evenodd" d="M1.5 3.004h1.504V1.501L1.5 3.004zM8.509.88v3.459h.886v-3.9A.44.44 0 008.955 0H3.444a.494.494 0 00-.199.034.684.684 0 00-.105.09L.133 3.128a.425.425 0 00-.093.142.438.438 0 00-.04.174v8.116a.44.44 0 00.44.439h5.688a.439.439 0 000-.878H.88V3.884h2.563a.44.44 0 00.44-.44V.88h4.626zM4.557 6.175H2.559a.44.44 0 010-.879h1.998a.44.44 0 010 .88zM2.559 8.172h2.797a.44.44 0 000-.879H2.559a.44.44 0 000 .88zm1.998 1.997H2.559a.44.44 0 010-.88h1.998a.44.44 0 010 .88zM8.53 5.756v-.223a.497.497 0 11.995 0v.223c.595.135 1.127.512 1.3 1.135a.519.519 0 01-.326.658.522.522 0 01-.627-.388c-.078-.28-.373-.467-.844-.467-.271 0-.482.082-.617.197a.56.56 0 00-.207.466c.002.315.428.476.807.619l.208.08c.084.036.172.068.264.101.229.084.478.174.721.33.34.218.643.66.643 1.192 0 .488-.215.933-.555 1.223a1.823 1.823 0 01-.767.378v.223a.497.497 0 11-.995 0v-.223c-.595-.135-1.12-.512-1.295-1.135a.519.519 0 01.326-.658.517.517 0 01.622.389c.078.28.373.466.845.466a.944.944 0 00.616-.202.55.55 0 00.208-.461c-.002-.32-.43-.481-.81-.625-.07-.027-.14-.053-.206-.08a6.54 6.54 0 00-.258-.099 3.523 3.523 0 01-.721-.331 1.433 1.433 0 01-.643-1.187c0-.488.214-.933.555-1.223.217-.185.477-.31.761-.378z" clip-rule="evenodd"/></g><defs><clipPath id="color-purchase-order __a"><path fill="#fff" d="M0 0h11v12H0z"/></clipPath></defs></svg>