<svg width="12" height="14" viewBox="0 0 12 14" fill="none" xmlns="http://www.w3.org/2000/svg">
<g clip-path="url(#clip0_4957:89446)">
<path fill-rule="evenodd" clip-rule="evenodd" d="M10.7428 4.05893C10.911 4.00893 11.092 4.0433 11.2285 4.15893C11.3618 4.27143 11.4285 4.44018 11.4063 4.61205C11.0253 7.69955 9.86024 11.7683 6.50469 13.6558L6.51103 13.6621L6.33008 13.7496C6.15548 13.8339 5.95865 13.8777 5.76183 13.8746H5.74278C5.58088 13.8746 5.41897 13.8464 5.26976 13.7871L5.25389 13.8027L5.15865 13.7402L4.99992 13.6652L5.00627 13.6589C1.61897 11.7496 0.463415 7.63393 0.0919868 4.5058C0.0729392 4.33393 0.14278 4.16518 0.279288 4.05268C0.418971 3.9433 0.599923 3.90893 0.768177 3.96205L5.55548 5.47455C5.65707 5.50893 5.87294 5.50893 5.9777 5.47768L10.7428 4.05893ZM9.01897 9.38704C9.5904 8.22766 10.0063 6.84329 10.2634 5.27454L6.27929 6.45891C5.97452 6.54954 5.54595 6.54641 5.23802 6.44954L1.23801 5.18391C1.66024 7.85266 2.76183 11.2558 5.59357 12.8058L5.63802 12.8277L5.65071 12.8339C5.69516 12.8558 5.82214 12.8527 5.85706 12.837L5.86976 12.8308C5.87294 12.8308 5.87929 12.8277 5.88564 12.8245L5.95548 12.787C7.22532 12.0808 8.25706 10.937 9.01897 9.38704Z" fill="var(--color-icon-semantic-info)"/>
<path fill-rule="evenodd" clip-rule="evenodd" d="M10.6015 0.045281C10.846 -0.026594 11.1127 0.020281 11.319 0.170281C11.5222 0.326531 11.6365 0.557781 11.6301 0.807781V2.67028C11.6301 2.89841 11.4714 3.10153 11.2492 3.16403L6.319 4.51716C6.1571 4.55778 5.98567 4.57653 5.82059 4.57653C5.65551 4.57653 5.48725 4.55778 5.32217 4.51716H5.319L0.39519 3.16403C0.169793 3.10466 0.0142372 2.90153 0.0142372 2.67028V0.807781C0.007888 0.560906 0.125348 0.323406 0.325348 0.170281L0.328523 0.167156C0.534872 0.020281 0.801539 -0.023469 1.04281 0.048406L5.59519 1.30153C5.74757 1.33278 5.89995 1.33278 6.04916 1.30153L10.6015 0.045281ZM10.5873 2.27832V1.11582L6.3238 2.28769C6.03491 2.36894 5.60951 2.36894 5.31745 2.28769L1.05396 1.11582V2.27832L5.59364 3.52832C5.74602 3.55957 5.8984 3.55957 6.04761 3.52832L10.5873 2.27832Z" fill="var(--color-icon-semantic-info)"/>
</g>
<defs>
<clipPath id="clip0_4957:89446">
<rect width="11.6667" height="14" fill="var(--color-icon-inverse)"/>
</clipPath>
</defs>
</svg>
