<svg xmlns="http://www.w3.org/2000/svg" width="14" height="14" fill="none" viewBox="0 0 14 14"><path fill="var(--color-icon-semantic-info)" fill-rule="evenodd" d="M11.2 2.5H9.97A1.8 1.8 0 008.2 1H5.8a1.8 1.8 0 00-1.77 1.5H2.8A1.8 1.8 0 001 4.3v2.4a1.76 1.76 0 00.6 1.33v2.57A2.4 2.4 0 004 13h6a2.4 2.4 0 002.4-2.4V8.03A1.76 1.76 0 0013 6.7V4.3a1.8 1.8 0 00-1.8-1.8zm-5.4-.3h2.4a.6.6 0 01.5.3H5.3a.6.6 0 01.51-.3zM2.2 4.3a.6.6 0 01.6-.6h8.4a.6.6 0 01.6.6v2.4a.59.59 0 01-.6.6H8.71a1.5 1.5 0 00-1.37-.86h-.6a1.5 1.5 0 00-1.37.86H2.8a.6.6 0 01-.6-.6V4.3zm5.4 3.6a.3.3 0 01-.3.3h-.6a.3.3 0 01-.3-.3.3.3 0 01.3-.3h.6c.16 0 .3.14.3.3zm2.4 3.9H4a1.2 1.2 0 01-1.2-1.2V8.5h2.53a1.5 1.5 0 001.37.9h.6a1.5 1.5 0 001.41-.9h2.58v2.1A1.2 1.2 0 0110 11.8z" clip-rule="evenodd"/></svg>
