<svg xmlns="http://www.w3.org/2000/svg" xmlns:xlink="http://www.w3.org/1999/xlink" width="10" height="16" viewBox="0 0 10 16"><defs><path id="fs-c8ry4pqkya" d="M9.87 10.319c0-1.032-.446-3.43-4.574-3.43-3.05 0-3.05-1.385-3.05-1.907 0-.47 0-1.906 3.05-1.906 2.134 0 2.28 1.28 2.287 1.536.005.17.513.167 1.525-.011 0-.959-.664-2.69-3.05-2.998V.79a.762.762 0 00-1.525 0v.794C1.113 1.86.721 4.019.721 4.983c0 1.28.594 3.43 4.575 3.43 3.05 0 3.05 1.435 3.05 1.906 0 .521 0 1.906-3.05 1.906-2.893 0-3.042-1.384-3.05-1.525H.721c0 .03.049 2.697 3.812 3.017v.795a.762.762 0 001.525 0v-.793c3.293-.26 3.812-2.206 3.812-3.4z"/></defs><use fill="#2E8EFA" xlink:href="#fs-c8ry4pqkya"/></svg>