<svg fill="none" height="17" viewBox="0 0 16 17" width="16" xmlns="http://www.w3.org/2000/svg"><path d="m16 8.96875c0-4.41875-3.5813-8-8-8-4.41875-.000001-8.00000016 3.58125-8.00000035 8s3.58125035 7.99995 8.00000035 7.99995c4.4187 0 8-3.5812 8-7.99995zm-7.88125 5.11245c-.00625 0-.00625 0-.0125 0s-.0125 0-.01875 0-.0125 0-.01875 0h-.00625-.00625c-.00625 0-.0125 0-.01875 0s-.0125 0-.01875 0-.00625 0-.0125 0-.00625 0-.0125 0-.0125 0-.025-.0062c-.00625 0-.00625 0-.0125-.0062-.00625 0-.00625 0-.0125-.0063-.00625 0-.0125-.0063-.025-.0063-.00625 0-.00625-.0062-.0125-.0062s-.00625-.0063-.0125-.0063c-.00625-.0062-.0125-.0062-.025-.0062-.00625 0-.00625-.0063-.0125-.0063s-.00625-.0062-.0125-.0062c-.00625-.0063-.0125-.0063-.01875-.0063s-.00625-.0062-.0125-.0062c-.00625-.0063-.00625-.0062-.0125-.0062-.00625-.0063-.0125-.0063-.01875-.0063-.00625-.0063-.00625-.0063-.00625-.0063-.00625-.0062-.00625-.0062-.0125-.0062-.00625-.0063-.00625-.0062-.0125-.0125s-.00625-.0063-.00625-.0063c-.00625-.0062-.00625-.0062-.0125-.0125-.00625-.0062-.00625-.0062-.00625-.0062l-3.4125-3.2375c-.2125-.2-.21875-.5313-.01875-.74375.2-.2125.53125-.21875.74375-.01875l2.50625 2.375v-7.9375c0-.2875.23125-.53125.525-.53125s.525.23125.525.525v7.94375l2.50625-2.375c.2125-.2.5437-.19375.7437.01875.1.10005.1438.23125.1438.36255 0 .1374-.0563.2812-.1625.3812l-3.39375 3.2187c-.00625.0063-.00625.0063-.00625.0063-.00625.0063-.00625.0062-.0125.0125-.00625.0062-.00625.0062-.00625.0062-.00625.0063-.00625.0063-.0125.0125-.00625.0063-.00625.0063-.0125.0063-.00625.0063-.00625.0062-.00625.0062-.00625.0063-.0125.0063-.01875.0063-.00625.0063-.00625.0062-.0125.0062s-.00625.0063-.0125.0063c-.00625.0063-.0125.0063-.01875.0063s-.00625.0062-.0125.0062-.00625.0062-.0125.0062c-.00625.0063-.0125.0063-.025.0063-.00625 0-.00625.0062-.0125.0062s-.00625.0063-.0125.0063-.0125.0062-.025.0062c-.00625 0-.00625.0063-.0125.0063s-.00625 0-.0125.0062c-.00625 0-.0125.0063-.025.0063-.0375.0187-.0375.0187-.04375.0187z" fill="#2c5cc5"/></svg>
