<svg xmlns="http://www.w3.org/2000/svg" width="18" height="18" fill="none" viewBox="0 0 18 18"><path fill="var(--color-icon-semantic-error)" fill-rule="evenodd" d="M0 9a9 9 0 1118 0A9 9 0 010 9zm1.575 0c0 4.1 3.324 7.425 7.425 7.425A7.436 7.436 0 0016.425 9a7.425 7.425 0 00-14.85 0zm7.044-2.825L6.142 8.66h-.063a.632.632 0 11-.894-.895L8.762 4.19a.778.778 0 01.205-.143.644.644 0 01.483 0 .777.777 0 01.206.143l3.576 3.576a.626.626 0 01-.438 1.073.661.661 0 01-.447-.178L9.87 6.175v6.67a.626.626 0 01-1.251 0v-6.67z" clip-rule="evenodd"/></svg>
