<svg xmlns="http://www.w3.org/2000/svg" width="48" height="48" fill="none" viewBox="0 0 48 48"><g clip-path="url(#clip0_101_90)"><path fill="var(--color-fill-container)" d="M40 0H8a8 8 0 00-8 8v32a8 8 0 008 8h32a8 8 0 008-8V8a8 8 0 00-8-8z"/><path fill="var(--color-icon-semantic-highlight)" d="M10.86 19.88v10.7a4.86 4.86 0 004.85 4.85H24a8.4 8.4 0 01-1-1.72h-7.3a3.14 3.14 0 01-3.14-3.14V19.88a3.15 3.15 0 01-1.71 0zM36 15.14v8.29c-.53-.4-1.1-.74-1.71-1v-7.29c0-1.73-1.41-3.14-3.15-3.14H15.71c-1.3 0-2.41.79-2.89 1.91a3.14 3.14 0 00-1.77-.13 4.86 4.86 0 014.66-3.5h15.43A4.86 4.86 0 0136 15.15zM18.57 24h6.46a8.59 8.59 0 00-1.43 1.71h-5.03a.86.86 0 010-1.71zm-8.86-7.14a2 2 0 104 0 2 2 0 00-4 0zm8.86 2.57a.86.86 0 000 1.71h9.71a.86.86 0 000-1.71h-9.7z"/><path fill="var(--color-fill-semantic-highlight-mild)" d="M23.43 30.29a7.43 7.43 0 1114.86 0 7.43 7.43 0 01-14.86 0zm2.86-.58a.57.57 0 100 1.15h7.76L31.6 33.3a.57.57 0 10.8.8l3.43-3.42c.1-.1.17-.25.17-.4 0-.16-.06-.3-.17-.4l-3.43-3.44a.57.57 0 00-.97.4.57.57 0 00.17.41l2.45 2.45h-7.76z"/></g><defs><clipPath id="clip0_101_90"><path fill="var(--color-icon-inverse)" d="M0 0h48v48H0z"/></clipPath></defs></svg>
