<svg xmlns="http://www.w3.org/2000/svg" width="48" height="48" fill="none" xmlns:v="https://vecta.io/nano"><rect width="48" height="48" rx="8" fill="#f5f7f9"/><path d="M10.857 19.881v10.69a4.86 4.86 0 0 0 4.857 4.857h8.285c-.396-.527-.733-1.102-1-1.714h-7.285c-1.736 0-3.143-1.407-3.143-3.143v-10.69c-.273.077-.56.118-.857.118s-.585-.041-.857-.118zM36 15.142v8.285c-.528-.396-1.102-.733-1.714-1v-7.285c0-1.736-1.407-3.143-3.143-3.143H15.714c-1.3 0-2.415.789-2.894 1.915-.344-.129-.717-.2-1.106-.2a3.15 3.15 0 0 0-.665.071 4.86 4.86 0 0 1 4.665-3.499h15.429A4.86 4.86 0 0 1 36 15.142zm-17.429 8.857h6.458c-.546.506-1.025 1.082-1.424 1.714h-5.034c-.473 0-.857-.384-.857-.857s.384-.857.857-.857zm-8.857-7.143a2 2 0 0 0 1.143 1.808c.26.123.55.192.857.192a1.99 1.99 0 0 0 .857-.192 2 2 0 0 0 .001-3.614 1.99 1.99 0 0 0-.858-.193c-.306 0-.597.069-.856.192a2 2 0 0 0-1.144 1.808zm8.857 2.571c-.473 0-.857.384-.857.857s.384.857.857.857h9.714c.473 0 .857-.384.857-.857s-.384-.857-.857-.857h-9.714z" fill="#4f57be"/><path d="M23.429 30.286a7.43 7.43 0 0 1 7.429-7.429 7.43 7.43 0 0 1 7.429 7.429 7.43 7.43 0 0 1-7.429 7.428 7.43 7.43 0 0 1-7.429-7.428zm2.857-.572a.57.57 0 1 0 0 1.143h7.763l-2.453 2.453a.57.57 0 1 0 .808.808l3.429-3.429A.57.57 0 0 0 36 30.29v-.003-.003a.57.57 0 0 0-.167-.401l-3.429-3.429a.57.57 0 1 0-.808.808l2.453 2.453h-7.763z" fill="#7b83eb"/></svg>