<svg xmlns="http://www.w3.org/2000/svg" width="32" height="32" fill="var(--color-icon-selected)" xmlns:v="https://vecta.io/nano"><path d="M2.857 11.881v10.69a4.86 4.86 0 0 0 4.857 4.857h8.285a8.56 8.56 0 0 1-1.001-1.714H7.714c-1.736 0-3.143-1.407-3.143-3.143v-10.69c-.272.077-.56.118-.857.118s-.585-.041-.857-.118zM28 7.142v8.285a8.62 8.62 0 0 0-1.714-1.001V7.142c0-1.736-1.407-3.143-3.143-3.143H7.714c-1.3 0-2.415.789-2.894 1.915-.344-.129-.717-.2-1.106-.2a3.17 3.17 0 0 0-.665.07 4.86 4.86 0 0 1 4.665-3.499h15.429A4.86 4.86 0 0 1 28 7.142zm-17.429 8.857h6.458c-.546.506-1.025 1.082-1.424 1.714h-5.034a.86.86 0 0 1-.857-.857.86.86 0 0 1 .857-.857zM1.714 8.857a2 2 0 0 0 1.143 1.808 1.99 1.99 0 0 0 .857.193 1.99 1.99 0 0 0 .857-.193 2 2 0 0 0 .001-3.614 1.99 1.99 0 0 0-.858-.193 1.99 1.99 0 0 0-.856.192 2 2 0 0 0-1.144 1.808zm8.857 2.571a.86.86 0 0 0-.857.857.86.86 0 0 0 .857.857h9.714a.86.86 0 0 0 .857-.857.86.86 0 0 0-.857-.857h-9.714zm4.857 10.858a7.43 7.43 0 0 1 7.429-7.429 7.43 7.43 0 0 1 7.429 7.429 7.43 7.43 0 0 1-7.429 7.429 7.43 7.43 0 0 1-7.429-7.428zm2.857-.572a.572.572 0 1 0 0 1.143h7.763l-2.453 2.453a.571.571 0 1 0 .808.808l3.429-3.429a.57.57 0 0 0 .167-.401v-.003-.003a.57.57 0 0 0-.167-.401l-3.429-3.429a.571.571 0 1 0-.808.808l2.453 2.453h-7.763z"/></svg>