<svg xmlns="http://www.w3.org/2000/svg" width="16" height="17" viewBox="0 0 16 17"><path fill="var(--color-icon-semantic-success)" fill-rule="evenodd" d="M4.37 1.28h.13l.1.07.11.09.004.04-.004.04a.75.75 0 01.07.12l.003.07-.003.07v3.29a.7.7 0 01-1.394.095L3.38 5.07V3.35a5.79 5.79 0 00-.9 1 6.58 6.58 0 00.88 8.4 6.72 6.72 0 009.16 0 6.32 6.32 0 001.15-1.49.7.7 0 011-.26.69.69 0 01.26 1.08 7.59 7.59 0 01-1.4 1.8A8 8 0 011.36 3.68a6.56 6.56 0 01.626-.766l.234-.234H.92a.7.7 0 01-.106-1.392L.92 1.28h3.31l.07-.004zm10.853 4.107a.7.7 0 01.497.503 8 8 0 01.25 2.42.7.7 0 01-.599.673l-.101.007-.103-.013a.72.72 0 01-.577-.717 6.5 6.5 0 00-.22-2 .7.7 0 01.853-.873zM8 4a.7.7 0 01.7.7v2.6h2.6a.7.7 0 010 1.4H8a.7.7 0 01-.7-.7V4.7A.7.7 0 018 4zm4.52-2.62c.38.253.734.54 1.06.86a7 7 0 01.69.76.7.7 0 01-.11 1 .66.66 0 01-.44.18.73.73 0 01-.55-.27 5.59 5.59 0 00-.57-.63 5.26 5.26 0 00-.86-.74.7.7 0 01.78-1.16zM9.79.2a.68.68 0 01.53.8.69.69 0 01-.571.552l-.109.008h-.15a7.19 7.19 0 00-2.12-.13A.69.69 0 016.6.8a.71.71 0 01.64-.8 8.11 8.11 0 012.55.2z"/></svg>
