<svg xmlns="http://www.w3.org/2000/svg" viewBox="0 0 14 14"><circle cx="7" cy="7" r="7" fill="#fbc88c"/><path d="M8.01 11.1a.3.3 0 01-.3-.3c0-.08.03-.15.09-.21L9.48 8.9H8.37c-.17 0-.3-.13-.3-.3 0-.17.13-.3.3-.3h1.79c.08 0 .15.03.21.08.06.06.09.13.09.21v1.79c0 .11-.06.2-.14.26l.03.04h-.18a.28.28 0 01-.3-.29V9.35L8.22 11c-.06.06-.13.09-.21.09zm-4.18-.4c-.17 0-.3-.13-.3-.3 0-1.55 1.05-2.93 2.52-3.36A2.3 2.3 0 119.73 5.2c0 1.05-.71 1.96-1.72 2.23 0 .04-.09.07-.18.07h-.8c-1.6 0-2.9 1.3-2.9 2.9 0 .17-.13.3-.3.3zm3.6-7.2c-.94 0-1.7.76-1.7 1.7s.76 1.7 1.7 1.7 1.7-.76 1.7-1.7-.76-1.7-1.7-1.7z" fill="#de5421" fill-rule="evenodd"/></svg>