<svg width="17" height="15" viewBox="0 0 17 15" fill="none" xmlns="http://www.w3.org/2000/svg">
<path d="M3.05595 3.68994H14.6038L14.708 1.18999C14.696 0.811996 14.39 0.5 14 0.5H9.35006L8.25807 1.94797H1C0.144306 1.94797 0 2.5 0 3V12.9178L2.42596 4.11593C2.52795 3.86393 2.77395 3.68994 3.05595 3.68994Z" fill="#2C5CC5"/>
<path d="M16.3279 4.61987H3.53006C3.24806 4.61987 2.99006 4.79387 2.90006 5.06387L0.942102 13.2718C0.786104 13.7098 1.1101 14.1717 1.57209 14.1717L14.3039 14.1657C14.5859 14.1657 14.8379 13.9918 14.9339 13.7218L16.9579 5.52586C17.1199 5.08187 16.7959 4.61987 16.3279 4.61987Z" fill="#2C5CC5"/>
</svg>
