<svg width="18" height="18" viewBox="0 0 18 18" fill="none" xmlns="http://www.w3.org/2000/svg">
<g id="a" clip-path="url(#clip0_298_7718)">
<path id="Vector" d="M11.97 12.1242C13.6671 10.4014 13.6671 7.61135 11.97 5.87564C10.2729 4.15278 7.50857 4.15278 5.79857 5.87564L1.27286 10.4656C-0.424286 12.1885 -0.424286 14.9785 1.27286 16.7142C2.97 18.4371 5.73429 18.4371 7.44429 16.7142L11.97 12.1242Z" fill="#92A2B1"/>
<path id="Vector_2" d="M16.7271 16.7015C18.4243 14.9787 18.4243 12.1887 16.7271 10.4529L12.2014 5.86294C10.5043 4.14009 7.73999 4.14009 6.02999 5.86294C5.77285 6.12009 5.56713 6.39009 5.38713 6.6858C4.35856 8.38294 4.57713 10.6329 6.02999 12.0987L10.5557 16.6887C12.2528 18.4115 15.0171 18.4115 16.7271 16.6887V16.7015Z" fill="#92A2B1"/>
<path id="Vector_3" d="M13.2302 8.96135C13.2302 7.97135 12.8959 6.94278 12.2273 6.11992C12.163 6.02992 12.073 5.93992 11.9959 5.84992C11.173 5.00135 10.093 4.57707 9.01304 4.56421C7.93304 4.56421 6.85304 5.00135 6.03018 5.84992C5.95304 5.92707 5.86304 6.01707 5.79876 6.11992C5.11733 6.94278 4.7959 7.97135 4.7959 8.96135C4.7959 10.0799 5.20733 11.2114 6.03018 12.0599L9.01304 15.1328L11.9959 12.0599C12.8188 11.2114 13.2302 10.0799 13.2302 8.96135Z" fill="#12344D"/>
<path id="Vector_4" d="M3.50996 3.6C4.49996 3.6 5.30996 2.79 5.30996 1.8C5.30996 0.81 4.49996 0 3.50996 0C2.51996 0 1.70996 0.81 1.70996 1.8C1.70996 2.79 2.51996 3.6 3.50996 3.6Z" fill="#12344D"/>
<path id="Vector_5" d="M14.5158 3.6C15.5058 3.6 16.3158 2.79 16.3158 1.8C16.3158 0.81 15.5058 0 14.5158 0C13.5258 0 12.7158 0.81 12.7158 1.8C12.7158 2.79 13.5258 3.6 14.5158 3.6Z" fill="#12344D"/>
</g>
<defs>
<clipPath id="clip0_298_7718">
<rect width="18" height="18" fill="white"/>
</clipPath>
</defs>
</svg>
