<svg width="38" height="38" viewBox="0 0 38 38" fill="none" xmlns="http://www.w3.org/2000/svg">
<g clip-path="url(#clip0_1640_132)">
<path d="M25.2 25.5248C28.7729 21.8978 28.7729 16.0241 25.2 12.37C21.6271 8.74289 15.8075 8.74289 12.2075 12.37L2.6797 22.0331C-0.893233 25.6602 -0.893233 31.5339 2.6797 35.188C6.25263 38.8151 12.0722 38.8151 15.6722 35.188L25.2 25.5248Z" fill="#459FFC"/>
<path d="M35.215 35.1609C38.7879 31.5338 38.7879 25.6602 35.215 22.006L25.6872 12.3429C22.1143 8.71579 16.2947 8.71579 12.6947 12.3429C12.1534 12.8842 11.7203 13.4526 11.3413 14.0752C9.17592 17.6481 9.63607 22.385 12.6947 25.4707L22.2225 35.1338C25.7955 38.7609 31.615 38.7609 35.215 35.1338V35.1609Z" fill="#459FFC"/>
<path d="M27.8526 18.8661C27.8526 16.7819 27.1488 14.6165 25.7413 12.8842C25.606 12.6947 25.4165 12.5052 25.2541 12.3158C23.5218 10.5293 21.2481 9.63608 18.9744 9.60901C16.7007 9.60901 14.427 10.5293 12.6947 12.3158C12.5323 12.4782 12.3428 12.6677 12.2075 12.8842C10.7729 14.6165 10.0962 16.7819 10.0962 18.8661C10.0962 21.221 10.9624 23.603 12.6947 25.3895L18.9744 31.8586L25.2541 25.3895C26.9864 23.603 27.8526 21.221 27.8526 18.8661Z" fill="#12344D"/>
<path d="M7.38945 7.57895C9.47366 7.57895 11.1789 5.87368 11.1789 3.78947C11.1789 1.70526 9.47366 0 7.38945 0C5.30524 0 3.59998 1.70526 3.59998 3.78947C3.59998 5.87368 5.30524 7.57895 7.38945 7.57895Z" fill="#12344D"/>
<path d="M30.5594 7.57895C32.6436 7.57895 34.3488 5.87368 34.3488 3.78947C34.3488 1.70526 32.6436 0 30.5594 0C28.4752 0 26.7699 1.70526 26.7699 3.78947C26.7699 5.87368 28.4752 7.57895 30.5594 7.57895Z" fill="#12344D"/>
</g>
<defs>
<clipPath id="clip0_1640_132">
<rect width="37.8947" height="37.8947" fill="var(--color-icon-inverse)"/>
</clipPath>
</defs>
</svg>
