<svg width="400" height="400" viewBox="0 0 400 400" fill="none" xmlns="http://www.w3.org/2000/svg">
<g clip-path="url(#clip0_513_17273)">
<path class='freddy-blue' d="M266 269.429C303.714 231.143 303.714 169.143 266 130.572C228.286 92.286 166.857 92.286 128.857 130.572L28.2857 232.572C-9.42857 270.857 -9.42857 332.857 28.2857 371.429C66 409.715 127.429 409.715 165.429 371.429L266 269.429Z" fill="#459FFC"/>
<path class='freddy-blue' d="M371.714 371.143C409.429 332.857 409.429 270.857 371.714 232.286L271.143 130.286C233.429 91.9999 172 91.9999 134 130.286C128.286 136 123.714 142 119.714 148.571C96.8571 186.286 101.714 236.286 134 268.857L234.571 370.857C272.286 409.143 333.714 409.143 371.714 370.857V371.143Z" fill="#459FFC"/>
<path d="M294 199.143C294 177.143 286.571 154.286 271.714 136C270.286 134 268.286 132 266.571 130C248.286 111.143 224.286 101.714 200.286 101.429C176.286 101.429 152.286 111.143 134 130C132.286 131.714 130.286 133.714 128.857 136C113.714 154.286 106.571 177.143 106.571 199.143C106.571 224 115.714 249.143 134 268L200.286 336.286L266.571 268C284.857 249.143 294 224 294 199.143Z" fill="#12344D"/>
<path d="M78 80C100 80 118 62 118 40C118 18 100 0 78 0C56 0 38 18 38 40C38 62 56 80 78 80Z" fill="#12344D"/>
<path d="M322.571 80C344.571 80 362.571 62 362.571 40C362.571 18 344.571 0 322.571 0C300.571 0 282.571 18 282.571 40C282.571 62 300.571 80 322.571 80Z" fill="#12344D"/>
</g>
<defs>
<clipPath id="clip0_513_17273">
<rect width="400" height="400" fill="var(--color-icon-inverse)"/>
</clipPath>
</defs>
</svg>
