<svg xmlns="http://www.w3.org/2000/svg" width="16" height="16" fill="none" viewBox="0 0 16 16"><path fill="var(--color-icon-semantic-info)" fill-rule="evenodd" d="M0 8c0-4.426 3.574-8 8-8 4.427 0 8 3.574 8 8A8 8 0 010 8zm9.513.161c-.48.499-.818.871-.818 1.689a.908.908 0 01-.906.906.908.908 0 01-.905-.906c0-1.548.747-2.348 1.299-2.935.48-.516.712-.782.712-1.369 0-.603-.498-1.102-1.102-1.102-.604 0-1.102.499-1.102 1.102a.908.908 0 01-.906.906.908.908 0 01-.906-.906 2.9 2.9 0 015.8 0c.024 1.334-.636 2.047-1.166 2.615zm-1.727 5.564c-.604 0-1.085-.48-1.085-1.084 0-.604.481-1.085 1.085-1.085A1.09 1.09 0 018.87 12.64c0 .603-.481 1.084-1.085 1.084z" clip-rule="evenodd"/></svg>
