<svg xmlns="http://www.w3.org/2000/svg" width="14" height="20" fill="none" viewBox="0 0 14 20"><g class="Group 13295"><path fill="#78797F" d="M4.16 14.285v2.813c0 .28.082.55.238.785l.504.758c.262.394.703.632 1.18.632h1.824c.473 0 .914-.234 1.18-.632l.504-.758a1.41 1.41 0 00.238-.785v-2.813H4.16z" class="Combined-Shape"/><path fill="#C3C3C3" d="M5.105 16.441h3.778V15.5H5.105v.941z" class="Fill-3"/><path fill="#C3C3C3" d="M7.906 18.332H6.082a.477.477 0 01-.394-.21l-.489-.735h3.586l-.488.734a.465.465 0 01-.39.211z" class="Fill-5"/><path fill="#FFD100" d="M1.418 5.793c.399-2.27 2.18-4.094 4.434-4.531a5.76 5.76 0 011.129-.11c1.32 0 2.594.45 3.617 1.29a5.652 5.652 0 012.066 4.374 5.64 5.64 0 01-2.617 4.77.472.472 0 00-.219.398v.973c0 .262-.21.473-.472.473H4.633a.472.472 0 01-.473-.473v-.973a.472.472 0 00-.218-.398C2.008 10.348 1.02 8.074 1.418 5.793z" class="Fill-6"/><path fill="#FFB902" d="M5.766.82A6.369 6.369 0 016.98.703a6.13 6.13 0 013.902 1.39 6.101 6.101 0 012.23 4.723 6.09 6.09 0 01-2.824 5.149.022.022 0 00-.012.02v.972a.924.924 0 01-.921.922H4.633a.924.924 0 01-.922-.922v-.973a.022.022 0 00-.012-.02 6.144 6.144 0 01-2.726-6.25A6.08 6.08 0 015.766.82zM1.859 5.871a5.247 5.247 0 002.329 5.34.918.918 0 01.425.777v.973c0 .012.012.023.024.023h4.722a.025.025 0 00.024-.023v-.973c0-.312.16-.605.426-.777a5.203 5.203 0 002.41-4.39 5.191 5.191 0 00-1.903-4.028 5.228 5.228 0 00-3.332-1.188 5.55 5.55 0 00-1.043.102A5.157 5.157 0 001.86 5.871z" class="Fill-6-Copy"/><path fill="#fff" d="M3.489 7.48a4.663 4.663 0 014.62-3.851c1.095 0 2.157.371 3.005 1.07.18.149.34.313.492.48a4.738 4.738 0 00-1.277-1.656 4.704 4.704 0 00-3.004-1.07 5.08 5.08 0 00-.938.09c-1.871.363-3.351 1.879-3.683 3.762a4.73 4.73 0 001.164 4.011 4.768 4.768 0 01-.38-2.836z" class="Fill-7"/></g></svg>