<svg width="18" height="18" viewBox="0 0 18 18" fill="none" xmlns="http://www.w3.org/2000/svg">
<path fill-rule="evenodd" clip-rule="evenodd" d="M11.989 1.0206C11.824 0.954596 11.626 1.05359 11.56 1.21859C11.494 1.38359 11.593 1.58159 11.758 1.64759C14.794 2.70359 16.84 5.57459 16.84 8.80859C16.84 12.9996 13.441 16.3986 9.25 16.3986C5.059 16.3986 1.66 12.9996 1.66 8.80859C1.66 5.57459 3.706 2.70359 6.709 1.64759C6.874 1.58159 6.973 1.38359 6.907 1.21859C6.841 1.05359 6.643 0.954596 6.478 1.0206C3.244 2.1756 1 5.27759 1 8.80859C1 13.3626 4.696 17.0586 9.25 17.0586C13.804 17.0586 17.5 13.3626 17.5 8.80859C17.5 5.27759 15.256 2.1756 11.989 1.0206ZM9.481 12.8676L13.441 8.87459C13.738 8.57759 13.276 8.08259 12.979 8.41259L9.811 11.5806C9.679 11.7126 9.58 11.6796 9.58 11.4816V3.52859C9.58 3.36359 9.448 3.19859 9.25 3.19859C9.052 3.19859 8.92 3.33059 8.92 3.52859V11.4816C8.92 11.6466 8.821 11.7126 8.689 11.5806L5.521 8.41259C5.224 8.11559 4.729 8.57759 5.059 8.87459L9.019 12.8676C9.151 12.9996 9.349 12.9996 9.481 12.8676Z" fill="var(--color-icon-semantic-success)" stroke="var(--color-icon-semantic-success)" stroke-width="0.5"/>
</svg>
