<svg xmlns="http://www.w3.org/2000/svg" width="48" height="48" fill="none"><path fill="#f5f5f5" d="M0 0h48v48H0z"/><g clip-path="url(#B)"><path fill="#ebeff3" d="M-57-877h1280v2014H-57z"/><rect width="1248" height="1902" x="-41" y="-805" fill="#fff" rx="4"/><mask id="fs-i9s5awq9ia" width="1248" height="1535" x="-41" y="-805" maskUnits="userSpaceOnUse"><rect width="1248" height="1535" x="-41" y="-805" fill="#fff" rx="4"/></mask><g mask="url(#fs-i9s5awq9ia)"><path fill="#fff" stroke="#ebeff3" d="M-13-44.5h887a3.5 3.5 0 013.5 3.5V59.34a3.5 3.5 0 01-3.5 3.5H-13a3.5 3.5 0 01-3.5-3.5V-41a3.5 3.5 0 013.5-3.5z"/><rect width="47" height="47" x=".5" y=".5" fill="#f5f7f9" stroke="#ebeff3" rx="3.5"/><path fill="#ebeff3" d="M13.71 4h15.76c.71 0 1.4.25 1.94.71l9.53 8.06c.67.57 1.06 1.41 1.06 2.29v25.11c0 3.58-.04 3.83-3.71 3.83H13.71c-3.67 0-3.71-.25-3.71-3.83V7.83C10 4.25 10.04 4 13.71 4z"/><path fill="#cfd7df" d="M30 15h8.238c.935 0 1.359-1.169.64-1.768L30.64 6.367a1 1 0 00-1.64.768V14a1 1 0 001 1z"/><rect width="23" height="12" x="6" y="24" fill="#d72d30" rx="1"/><text fill="#fff" style="white-space:pre" font-family="SF Pro Display" font-size="8" font-weight="bold" letter-spacing="0"><tspan x="10" y="32.844">PDF</tspan></text><rect width="48" height="48" fill="#475867" rx="4"/><path fill="#fff" fill-rule="evenodd" d="M33.745 18.905a.873.873 0 000-.27v-.09a.86.86 0 00-.195-.315l-6.03-5.91a.78.78 0 00-.3-.21l-.105-.105a.873.873 0 00-.27 0h-8.55a4.05 4.05 0 00-4.05 4.05v15.9a4.05 4.05 0 004.05 4.05h11.4a4.05 4.05 0 004.05-4.05V18.905zm-3.585-.9h-2.325V15.59l2.325 2.415zm-11.865 15.9h11.4a1.95 1.95 0 001.95-1.875v-12h-4.8a1.05 1.05 0 01-1.05-1.05v-4.875h-7.5a1.95 1.95 0 00-1.95 1.95v15.9a1.95 1.95 0 001.95 1.95zm4.65-7.65v-5.13a1.05 1.05 0 012.1 0v5.13a1.05 1.05 0 01-2.1 0zm-.45 3.75a1.5 1.5 0 113 0 1.5 1.5 0 11-3 0z"/></g></g><defs><clipPath id="B"><path fill="#fff" d="M0 0h1280v2014H0z" transform="translate(-57 -877)"/></clipPath></defs></svg>