<svg width="30" height="30" viewBox="0 0 30 30" fill="none" xmlns="http://www.w3.org/2000/svg">
<path fill-rule="evenodd" clip-rule="evenodd" d="M24.7446 9.90486C24.7589 9.81543 24.7589 9.7243 24.7446 9.63486V9.54486C24.7034 9.42688 24.6369 9.31935 24.5496 9.22986L18.5196 3.31987C18.4377 3.22705 18.3349 3.15507 18.2196 3.10987L18.1146 3.00487C18.0252 2.99057 17.9341 2.99057 17.8446 3.00487H9.29463C7.05788 3.00487 5.24463 4.81811 5.24463 7.05486V22.9549C5.24463 25.1916 7.05788 27.0049 9.29463 27.0049H20.6946C22.9314 27.0049 24.7446 25.1916 24.7446 22.9549V9.97986V9.90486ZM21.1596 9.00487H18.8346V6.58987L21.1596 9.00487ZM9.29462 24.9049H20.6946C21.743 24.9056 22.6043 24.0774 22.6446 23.0299V11.0299H17.8446C17.5661 11.0299 17.2991 10.9192 17.1022 10.7223C16.9052 10.5254 16.7946 10.2583 16.7946 9.97987V5.10487H9.29462C8.21767 5.10487 7.34462 5.97791 7.34462 7.05487V22.9549C7.34462 23.472 7.55007 23.968 7.91576 24.3337C8.28146 24.6994 8.77745 24.9049 9.29462 24.9049ZM13.9446 17.2549V12.1249C13.9446 11.545 14.4147 11.0749 14.9946 11.0749C15.5745 11.0749 16.0446 11.545 16.0446 12.1249V17.2549C16.0446 17.8348 15.5745 18.3049 14.9946 18.3049C14.4147 18.3049 13.9446 17.8348 13.9446 17.2549ZM13.4946 21.0049C13.4946 20.1764 14.1662 19.5049 14.9946 19.5049C15.8231 19.5049 16.4946 20.1764 16.4946 21.0049C16.4946 21.8333 15.8231 22.5049 14.9946 22.5049C14.1662 22.5049 13.4946 21.8333 13.4946 21.0049Z" fill="var(--color-icon-inverse)"/>
</svg>
