<svg width="24" height="24" viewBox="0 0 24 24" fill="none" xmlns="http://www.w3.org/2000/svg">
<path fill-rule="evenodd" clip-rule="evenodd" d="M12 24C5.37258 24 0 18.6274 0 12C0 5.37258 5.37258 0 12 0C18.6274 0 24 5.37258 24 12C24 13.1598 23.0598 14.1 21.9 14.1C20.7402 14.1 19.8 13.1598 19.8 12C19.8 7.69218 16.3078 4.2 12 4.2C7.69218 4.2 4.2 7.69218 4.2 12C4.2 16.3078 7.69218 19.8 12 19.8C12.7503 19.8 13.4435 20.2003 13.8187 20.85C14.1938 21.4997 14.1938 22.3003 13.8187 22.95C13.4435 23.5997 12.7503 24 12 24Z" fill="var(--color-icon-semantic-info)"/>
</svg>
