<svg xmlns="http://www.w3.org/2000/svg" width="24" height="24" fill="none" viewBox="0 0 24 24"><path fill="#2C5CC5" fill-rule="evenodd" d="M16.25 9h.05a2.7 2.7 0 012.7 2.7v5.6a2.7 2.7 0 01-2.7 2.7H7.7A2.7 2.7 0 015 17.3v-5.6A2.7 2.7 0 017.75 9v-.75a4.25 4.25 0 018.5 0V9zM12 5.4a2.85 2.85 0 00-2.85 2.85V9h5.7v-.75A2.85 2.85 0 0012 5.4zm4.3 13.2a1.3 1.3 0 001.3-1.3v-5.6a1.3 1.3 0 00-1.3-1.3H7.7a1.3 1.3 0 00-1.3 1.3v5.6a1.3 1.3 0 001.3 1.3h8.6zm-5.6-4.77a1.3 1.3 0 112.6 0 1.27 1.27 0 01-.6 1.06v.81a.7.7 0 11-1.4 0v-.81a1.27 1.27 0 01-.6-1.06z" clip-rule="evenodd"/></svg>