<svg xmlns="http://www.w3.org/2000/svg" width="13" height="14" fill="none" viewBox="0 0 13 14"><path fill="var(--color-icon-inverse)" fill-rule="evenodd" d="M9.844 4.375h.043a2.362 2.362 0 012.363 2.362v4.9A2.362 2.362 0 019.887 14H2.362A2.362 2.362 0 010 11.637v-4.9a2.362 2.362 0 012.406-2.362v-.656a3.719 3.719 0 117.438 0v.656zm-3.719-3.15a2.494 2.494 0 00-2.494 2.494v.656H8.62v-.656a2.494 2.494 0 00-2.494-2.494zm3.762 11.55c.629 0 1.138-.51 1.138-1.138v-4.9c0-.628-.51-1.137-1.138-1.137H2.362c-.628 0-1.137.51-1.137 1.138v4.9a1.137 1.137 0 001.137 1.137h7.525zm-4.9-4.174a1.138 1.138 0 012.276 0 1.111 1.111 0 01-.526.928v.709a.612.612 0 11-1.224 0v-.71a1.11 1.11 0 01-.526-.927z" clip-rule="evenodd"/></svg>
