<svg width="28" height="28" fill="none" xmlns="http://www.w3.org/2000/svg"><path d="M5.5 5.5A3.5 3.5 0 0 0 2 9v10a3.5 3.5 0 0 0 3.5 3.5h10A3.5 3.5 0 0 0 19 19v-2.028l4.737 2.802A1.5 1.5 0 0 0 26 18.484v-8.97a1.5 1.5 0 0 0-2.163-1.346L19 10.553V9a3.5 3.5 0 0 0-3.5-3.5h-10ZM19 12.782l5-2.464v7.289l-5-2.959v-1.866ZM4 9a1.5 1.5 0 0 1 1.5-1.5h10A1.5 1.5 0 0 1 17 9v10a1.5 1.5 0 0 1-1.5 1.5h-10A1.5 1.5 0 0 1 4 19V9Z" fill="#4F57BE"/><path d="M5.486 1.643A1 1 0 0 0 6.509 3.36l.009-.005.06-.033c.061-.031.16-.08.3-.142.28-.123.723-.295 1.334-.47C9.435 2.363 11.342 2 14 2c2.658 0 4.565.362 5.788.712.612.174 1.054.346 1.334.47a5.208 5.208 0 0 1 .36.174l.01.005a1 1 0 0 0 1.023-1.718l-.002-.002h-.002l-.005-.003-.012-.008a3.607 3.607 0 0 0-.152-.082 7.208 7.208 0 0 0-.416-.198 12.727 12.727 0 0 0-1.589-.562C18.935.388 16.842 0 14 0c-2.842 0-4.935.388-6.337.788-.7.2-1.228.404-1.588.562a7.184 7.184 0 0 0-.569.28l-.012.008-.005.002-.002.001-.001.002Zm-.343 23.342a1 1 0 0 0 .343 1.373h.001l.002.002.005.003.012.006a2.406 2.406 0 0 0 .152.083c.098.051.236.119.417.198.36.158.887.361 1.588.562 1.402.4 3.495.788 6.337.788 2.842 0 4.935-.388 6.337-.788.701-.2 1.228-.404 1.589-.562a7.15 7.15 0 0 0 .533-.26l.035-.02.012-.008.005-.002.002-.002h.002a1 1 0 0 0-1.024-1.719l-.008.005a5.213 5.213 0 0 1-.361.175c-.28.123-.722.295-1.334.47-1.223.349-3.13.711-5.788.711-2.658 0-4.565-.362-5.788-.712a10.54 10.54 0 0 1-1.333-.47 5.203 5.203 0 0 1-.361-.174l-.009-.005a1 1 0 0 0-1.366.346Z" fill="#7B83EB"/></svg>