<svg width="16" height="16" viewBox="0 0 16 16" fill="none" xmlns="http://www.w3.org/2000/svg">
<g id="Meet Now">
<path id="Shape" d="M3.2857 3.42871C2.02334 3.42871 1 4.45206 1 5.71442V10.2858C1 11.5482 2.02334 12.5715 3.2857 12.5715H8.42854C9.6909 12.5715 10.7142 11.5482 10.7142 10.2858V10.1276L13.8593 11.9248C14.0362 12.0259 14.2535 12.0251 14.4296 11.9229C14.6058 11.8207 14.7143 11.6324 14.7143 11.4287V4.57156C14.7143 4.36787 14.6058 4.17957 14.4296 4.07733C14.2535 3.97509 14.0362 3.97436 13.8593 4.07543L10.7142 5.87261V5.71442C10.7142 4.45206 9.6909 3.42871 8.42854 3.42871H3.2857ZM10.7142 7.18889L13.5714 5.55623V10.444L10.7142 8.81135V7.18889ZM2.14285 5.71442C2.14285 5.08324 2.65452 4.57156 3.2857 4.57156H8.42854C9.05972 4.57156 9.57139 5.08324 9.57139 5.71442V10.2858C9.57139 10.917 9.05972 11.4287 8.42854 11.4287H3.2857C2.65452 11.4287 2.14285 10.917 2.14285 10.2858V5.71442Z" fill="#2C5CC5"/>
</g>
</svg>
