<svg xmlns="http://www.w3.org/2000/svg" width="28" height="28" fill="var(--color-icon-selected)" xmlns:v="https://vecta.io/nano"><path d="M5.5 5.5A3.5 3.5 0 0 0 2 9v10a3.5 3.5 0 0 0 3.5 3.5h10A3.5 3.5 0 0 0 19 19v-2.028l4.737 2.802A1.5 1.5 0 0 0 26 18.483V9.514a1.5 1.5 0 0 0-2.163-1.345L19 10.553V9a3.5 3.5 0 0 0-3.5-3.5h-10zM19 12.782l5-2.464v7.289l-5-2.958v-1.866zM4 9a1.5 1.5 0 0 1 1.5-1.5h10A1.5 1.5 0 0 1 17 9v10a1.5 1.5 0 0 1-1.5 1.5h-10A1.5 1.5 0 0 1 4 19V9zm1.486-7.357A1 1 0 0 0 6.51 3.361l.008-.005.061-.033.3-.142a10.55 10.55 0 0 1 1.334-.47C9.435 2.362 11.342 2 14 2s4.565.362 5.788.712a10.55 10.55 0 0 1 1.334.47l.3.142.061.033.008.005a1 1 0 0 0 1.024-1.718l-.002-.001-.002-.001-.005-.003-.012-.007-.035-.02-.116-.062-.417-.198A12.7 12.7 0 0 0 20.338.79C18.935.388 16.842 0 14 0S9.065.388 7.663.788c-.701.2-1.228.403-1.588.562l-.417.198-.116.062-.035.02-.012.007-.005.003-.002.001-.002.001zm-.343 23.343a1 1 0 0 0 .343 1.372l.002.001.002.001.005.003.012.007.035.02.116.063.417.198a12.7 12.7 0 0 0 1.588.562C9.065 27.612 11.158 28 14 28s4.935-.388 6.337-.788c.701-.2 1.228-.403 1.588-.562l.417-.198.116-.062.035-.02.012-.007.005-.003.002-.001.002-.001a1 1 0 0 0-1.024-1.718l-.008.005-.061.033-.3.142a10.56 10.56 0 0 1-1.334.47c-1.223.349-3.13.712-5.788.712s-4.565-.362-5.788-.712a10.54 10.54 0 0 1-1.334-.47l-.3-.142-.061-.033-.008-.005a1 1 0 0 0-1.367.346z"/></svg>