<?xml version="1.0" encoding="utf-8"?>
<!-- Generator: Adobe Illustrator 24.2.3, SVG Export Plug-In . SVG Version: 6.00 Build 0)  -->
<svg version="1.1" id="Layer_1" xmlns="http://www.w3.org/2000/svg" xmlns:xlink="http://www.w3.org/1999/xlink" x="0px" y="0px"
	 viewBox="0 0 16 16" style="enable-background:new 0 0 16 16;" xml:space="preserve">
<style type="text/css">
	.st0{fill:#5059C9;}
	.st1{fill:#7B83EB;}
	.st2{opacity:0.2;enable-background:new    ;}
	.st3{fill:url(#SVGID_1_);}
	.st4{fill:#FFFFFF;}
</style>
<path class="st0" d="M10.8,5.9h3.6c0.3,0,0.6,0.3,0.6,0.6v3.3c0,1.3-1,2.3-2.3,2.3h0c-1.3,0-2.3-1-2.3-2.3c0,0,0,0,0,0V6.2
	C10.4,6,10.6,5.9,10.8,5.9z"/>
<path class="st0" d="M13.2,5.2c0.8,0,1.5-0.7,1.5-1.5c0-0.8-0.7-1.5-1.5-1.5c-0.8,0-1.5,0.7-1.5,1.5C11.7,4.6,12.4,5.2,13.2,5.2z"/>
<path class="st1" d="M8.7,5.2c1.2,0,2.1-0.9,2.1-2.1S9.8,1,8.7,1S6.5,1.9,6.5,3.1S7.5,5.2,8.7,5.2z"/>
<path class="st1" d="M11.5,5.9h-6c-0.3,0-0.6,0.3-0.6,0.6v3.8c0,2,1.6,3.7,3.6,3.8c2,0,3.6-1.7,3.6-3.8V6.5
	C12.1,6.2,11.8,5.9,11.5,5.9z"/>
<path class="st2" d="M8.2,4.5v0.6C7.5,5,7,4.6,6.7,3.9h0.9C7.9,3.9,8.2,4.2,8.2,4.5z"/>
<linearGradient id="SVGID_1_" gradientUnits="userSpaceOnUse" x1="2.2443" y1="14.5361" x2="6.9185" y2="6.4407" gradientTransform="matrix(1 0 0 -1 0 18)">
	<stop  offset="0" style="stop-color:#5A62C3"/>
	<stop  offset="0.5" style="stop-color:#4D55BD"/>
	<stop  offset="1" style="stop-color:#3940AB"/>
</linearGradient>
<path class="st3" d="M1.6,3.9h6c0.3,0,0.6,0.3,0.6,0.6v6c0,0.3-0.3,0.6-0.6,0.6h-6c-0.3,0-0.6-0.3-0.6-0.6v-6C1,4.2,1.3,3.9,1.6,3.9
	z"/>
<path class="st4" d="M6.2,6.2H5v3.2H4.2V6.2H3V5.6h3.1V6.2z"/>
</svg>
