<svg xmlns="http://www.w3.org/2000/svg" width="10" height="10" fill="none" viewBox="0 0 10 10"><path fill="#2C5CC5" fill-rule="evenodd" d="M9.413.367a.473.473 0 01.253.253c.012.06.014.12.007.18v2.273a.467.467 0 01-.933 0v-1.14L3.406 7.267a.473.473 0 01-.666 0 .473.473 0 010-.667l5.333-5.333H6.926a.467.467 0 010-.934H9.2a.573.573 0 01.213.034zm-.68 4.973a.467.467 0 11.933 0v2.727a1.607 1.607 0 01-1.6 1.6H1.933a1.607 1.607 0 01-1.6-1.6V1.933a1.607 1.607 0 011.6-1.6H4.66a.467.467 0 110 .934H1.933a.667.667 0 00-.667.666v6.134c0 .368.299.666.667.666h6.133a.667.667 0 00.667-.666V5.34z" clip-rule="evenodd"/></svg>