<svg xmlns="http://www.w3.org/2000/svg" width="48" height="48" fill="none"><rect width="48" height="48" fill="#f5f7f9" rx="8"/><path fill="#4f57be" d="M10.857 19.881v10.69a4.86 4.86 0 004.857 4.857h8.285a8.538 8.538 0 01-1-1.714h-7.285a3.143 3.143 0 01-3.143-3.143v-10.69a3.15 3.15 0 01-1.714 0zM36 15.142v8.285a8.566 8.566 0 00-1.714-1v-7.285a3.143 3.143 0 00-3.143-3.143H15.714c-1.3 0-2.415.789-2.894 1.915a3.145 3.145 0 00-1.106-.2 3.15 3.15 0 00-.665.071 4.86 4.86 0 014.665-3.499h15.429A4.86 4.86 0 0136 15.142zm-17.429 8.857h6.458a8.586 8.586 0 00-1.424 1.714h-5.034a.857.857 0 010-1.714zm-8.857-7.143a2 2 0 001.143 1.808c.26.123.55.192.857.192a1.99 1.99 0 00.857-.192 2 2 0 00.001-3.614 1.99 1.99 0 00-.858-.193c-.306 0-.597.069-.856.192a2 2 0 00-1.144 1.808zm8.857 2.571a.857.857 0 000 1.714h9.714a.857.857 0 000-1.714h-9.714z"/><path fill="#7b83eb" d="M38.286 30.288a7.43 7.43 0 01-7.429 7.429 7.43 7.43 0 01-7.429-7.429 7.43 7.43 0 017.429-7.428 7.43 7.43 0 017.429 7.429zm-6.857-4.571a.57.57 0 10-1.143 0v4h-4a.57.57 0 100 1.143h4v4a.57.57 0 101.143 0v-4h4a.57.57 0 100-1.143h-4v-4z"/></svg>