<svg xmlns="http://www.w3.org/2000/svg" width="48" height="48" fill="none" viewBox="0 0 48 48"><g clip-path="url(#clip0_101_58)"><path fill="#F5F7F9" d="M40 0H8a8 8 0 00-8 8v32a8 8 0 008 8h32a8 8 0 008-8V8a8 8 0 00-8-8z"/><path fill="#4F57BE" d="M10.86 19.88v10.7a4.86 4.86 0 004.85 4.85H24c-.4-.53-.74-1.1-1-1.72h-7.3a3.14 3.14 0 01-3.14-3.14V19.88c-.56.16-1.15.16-1.71 0zM36 15.14v8.29c-.53-.4-1.1-.74-1.71-1v-7.29A3.14 3.14 0 0031.14 12H15.71c-1.3 0-2.41.79-2.89 1.91a3.15 3.15 0 00-1.77-.13 4.86 4.86 0 014.66-3.5h15.43A4.86 4.86 0 0136 15.15zM18.57 24h6.46a8.59 8.59 0 00-1.43 1.71h-5.03a.86.86 0 110-1.71zm-8.86-7.14a2 2 0 104 0 2 2 0 00-4 0zm8.86 2.57a.86.86 0 100 1.71h9.71a.86.86 0 100-1.71h-9.7z"/><path fill="#7B83EB" d="M38.29 30.29a7.43 7.43 0 11-14.86 0 7.43 7.43 0 0114.86 0zm-6.86-4.57a.57.57 0 10-1.14 0v4h-4a.57.57 0 100 1.14h4v4a.57.57 0 101.14 0v-4h4a.57.57 0 100-1.14h-4v-4z"/></g><defs><clipPath id="clip0_101_58"><path fill="#fff" d="M0 0h48v48H0z"/></clipPath></defs></svg>