<svg xmlns="http://www.w3.org/2000/svg" width="20" height="20" fill="none" viewBox="0 0 20 20"><path fill="#2C5CC5" fill-rule="evenodd" d="M10.017 20C15.518 20 20 15.519 20 9.984 20 4.48 15.519 0 10.017 0 4.48 0 0 4.481 0 9.984A10.012 10.012 0 0010.017 20zm-2.702-5.173h.23c.56 0 1.022-.461 1.022-1.021V6.194c0-.593-.462-1.054-1.022-1.054h-.23c-.56 0-1.022.461-1.022 1.054v7.612c0 .56.462 1.021 1.022 1.021zm5.173 0h.23c.56 0 1.022-.461 1.022-1.021V6.194c0-.593-.462-1.054-1.022-1.054h-.23c-.56 0-1.055.461-1.055 1.054v7.612c0 .56.495 1.021 1.055 1.021z" clip-rule="evenodd"/></svg>