<svg xmlns="http://www.w3.org/2000/svg" width="36" height="40" fill="none" viewBox="0 0 36 40"><path fill="#EBEFF3" d="M7.71 0h15.76c.71 0 1.4.25 1.94.71l9.53 8.06c.67.57 1.06 1.41 1.06 2.29v25.11c0 3.58-.04 3.83-3.71 3.83H7.71C4.04 40 4 39.75 4 36.17V3.83C4 .25 4.04 0 7.71 0z"/><path fill="#CFD7DF" d="M24 11h8.238c.935 0 1.359-1.17.64-1.768L24.64 2.367a1 1 0 00-1.64.768V10a1 1 0 001 1z"/><rect width="23" height="12" y="20" fill="#D72D30" rx="1"/><path fill="#fff" d="M4.469 23.363V29h1.18v-1.777h1.054c1.188 0 2.012-.774 2.012-1.93 0-1.16-.797-1.93-1.953-1.93H4.469zm1.18.934h.8c.676 0 1.067.36 1.067 1 0 .644-.395 1.004-1.07 1.004h-.798v-2.004zm3.765-.934V29h2.152c1.692 0 2.688-1.05 2.688-2.84 0-1.789-.996-2.797-2.688-2.797H9.414zm1.18.973h.832c1.039 0 1.625.648 1.625 1.828 0 1.219-.57 1.86-1.625 1.86h-.832v-3.688zM16.195 29v-2.219h2.293v-.933h-2.293v-1.512h2.512v-.973h-3.691V29h1.18z"/></svg>