<svg xmlns="http://www.w3.org/2000/svg" width="18" height="18" fill="none" viewBox="0 0 18 18"><path fill="var(--color-icon-semantic-warning)" fill-rule="evenodd" d="M3.274 2.059A8.91 8.91 0 019 0a9 9 0 11-9 9 .787.787 0 111.575 0 7.425 7.425 0 102.767-5.828h1.07a.787.787 0 110 1.575H2.25a.9.9 0 01-.203-.112H1.98a.484.484 0 01-.124-.135.529.529 0 01-.157-.146.563.563 0 010-.147.394.394 0 010-.157V1.125a.788.788 0 011.575 0v.934zm4.939 3.228a.788.788 0 011.575 0v2.925h2.925a.788.788 0 010 1.575H9A.787.787 0 018.213 9V5.287z" clip-rule="evenodd"/></svg>
