<svg xmlns="http://www.w3.org/2000/svg" fill="none" viewBox="0 0 9 11"><path fill="#12344D" fill-rule="evenodd" d="M2.938 3.701A1.956 1.956 0 106.55 2.198a1.956 1.956 0 00-3.612 1.503zm.809-1.163a1.081 1.081 0 111.994.836 1.081 1.081 0 01-1.994-.836zM1.437 11H8.07a.443.443 0 00.431-.513L7.956 7.25A1.931 1.931 0 006.05 5.637h-2.6c-.944 0-1.75.682-1.906 1.613L1 10.487a.406.406 0 00.106.357c.081.1.203.158.332.156zm6.107-.875H1.956l.45-2.731c.088-.508.528-.88 1.044-.882h2.6c.516.002.956.374 1.044.882l.45 2.73z" clip-rule="evenodd"/></svg>