<svg width="16" height="16" viewBox="0 0 16 16" fill="none" xmlns="http://www.w3.org/2000/svg">
<g id="play">
<path id="Combined Shape" fill-rule="evenodd" clip-rule="evenodd" d="M0 8C0 12.4183 3.58172 16 8 16C10.1217 16 12.1566 15.1571 13.6569 13.6569C15.1571 12.1566 16 10.1217 16 8C16 3.58172 12.4183 0 8 0C3.58172 0 0 3.58172 0 8ZM1.4 8C1.4 4.35492 4.35492 1.4 8 1.4C11.6428 1.40551 14.5945 4.3572 14.6 8C14.6 11.6451 11.6451 14.6 8 14.6C4.35492 14.6 1.4 11.6451 1.4 8ZM6 11.46C6.10453 11.5265 6.22611 11.5612 6.35 11.56C6.47389 11.5612 6.59547 11.5265 6.7 11.46L11.65 8.61C11.865 8.48196 11.9967 8.25022 11.9967 8C11.9967 7.74978 11.865 7.51804 11.65 7.39L6.65 4.54C6.43827 4.43927 6.19017 4.45123 5.98912 4.57186C5.78806 4.69249 5.66075 4.90578 5.65 5.14V10.86C5.64801 11.109 5.78228 11.3392 6 11.46ZM9.9 8L7.05 9.65V6.35L9.9 8Z" fill="#2C5CC5"/>
</g>
</svg>
