<svg width="18" height="18" fill="none" viewBox="0 0 18 18" xmlns="http://www.w3.org/2000/svg"><path d="M12.908 9.746V3a2 2 0 0 0-2-2H3a2 2 0 0 0-2 2v10.885a2 2 0 0 0 2 2h3.056" stroke="#12344D" stroke-width="1.3" stroke-linecap="round" stroke-linejoin="round"/><path d="M8.804 14.867a.65.65 0 1 0 0 1.3v-1.3zm.742-2.049h6.698v-1.3H9.546v1.3zm-.092.834v-.742h-1.3v.742h1.3zm.932.932c0-.874-.708-1.582-1.582-1.582v1.3c.156 0 .282.126.282.282h1.3zm-1.582 1.583c.874 0 1.582-.709 1.582-1.583h-1.3a.282.282 0 0 1-.282.283v1.3zm.65.092v-.742h-1.3v.742h1.3zm6.79.092H9.547v1.3h6.699v-1.3zm.078-.804v.727h1.3v-.727h-1.3zm-.962-.962c0 .89.721 1.612 1.612 1.612v-1.3a.312.312 0 0 1-.312-.312h-1.3zm1.612-1.612c-.89 0-1.612.722-1.612 1.612h1.3c0-.172.14-.312.312-.312v-1.3zm-.65-.078v.728h1.3v-.727h-1.3zm1.3 2.652a.65.65 0 0 0-.65-.65v1.3a.65.65 0 0 1-.65-.65h1.3zm-1.377 2.104c.76 0 1.377-.617 1.377-1.377h-1.3a.077.077 0 0 1-.077.077v1.3zm-8.091-1.392c0 .769.623 1.392 1.392 1.392v-1.3a.092.092 0 0 1-.092-.092h-1.3zm8.818-1.986a.65.65 0 0 0 .65-.65h-1.3a.65.65 0 0 1 .65-.65v1.3zm-8.818-.621c0 .359.29.65.65.65v-1.3a.65.65 0 0 1 .65.65h-1.3zm.65 1.215a.65.65 0 0 0-.65.65h1.3a.65.65 0 0 1-.65.65v-1.3zm7.44-2.049c.043 0 .078.035.078.078h1.3c0-.761-.617-1.378-1.378-1.378v1.3zm-6.698-1.3c-.77 0-1.392.623-1.392 1.392h1.3c0-.05.04-.092.092-.092v-1.3z" fill="#12344D"/><path d="M3.812 4.309h6.284M3.812 7.064h6.284M3.812 9.821h3.704M3.812 12.577h2.29" stroke="#12344D" stroke-width="1.3" stroke-linecap="round" stroke-linejoin="round"/></svg>