<svg xmlns="http://www.w3.org/2000/svg" width="24" height="24" fill="none"><path d="M15.908 12.746V6a2 2 0 0 0-2-2H12.13 6a2 2 0 0 0-2 2v10.885a2 2 0 0 0 2 2h3.056" stroke="#12344d" stroke-width="1.3" stroke-linecap="round" stroke-linejoin="round"/><path d="M11.804 17.867a.65.65 0 1 0 0 1.3v-1.3zm.742-2.049h6.699v-1.3h-6.699v1.3zm-.092.834v-.742h-1.3v.742h1.3zm.932.932c0-.874-.708-1.582-1.582-1.582v1.3c.156 0 .282.126.282.282h1.3zm-1.582 1.582c.874 0 1.582-.708 1.582-1.582h-1.3c0 .156-.126.282-.282.282v1.3zm.65.092v-.742h-1.3v.742h1.3zm6.791.092h-6.699v1.3h6.699v-1.3zm.077-.804v.727h1.3v-.727h-1.3zm-.962-.962a1.61 1.61 0 0 0 1.612 1.612v-1.3c-.172 0-.312-.14-.312-.312h-1.3zm1.612-1.612a1.61 1.61 0 0 0-1.612 1.612h1.3c0-.172.14-.312.312-.312v-1.3zm-.649-.078v.727h1.3v-.727h-1.3zm1.3 2.652a.65.65 0 0 0-.651-.651v1.3a.65.65 0 0 1-.649-.649h1.3zm-1.377 2.104a1.38 1.38 0 0 0 1.377-1.377h-1.3c0 .043-.035.077-.077.077v1.3zm-8.091-1.392c0 .769.623 1.392 1.392 1.392v-1.3c-.051 0-.092-.041-.092-.092h-1.3zm8.818-1.986a.65.65 0 0 0 .651-.651h-1.3a.65.65 0 0 1 .649-.649v1.3zm-8.818-.621a.65.65 0 0 0 .65.65v-1.3a.65.65 0 0 1 .65.65h-1.3zm.65 1.215a.65.65 0 0 0-.65.65h1.3a.65.65 0 0 1-.65.65v-1.3zm7.441-2.049c.043 0 .078.035.078.078h1.3a1.38 1.38 0 0 0-1.378-1.377v1.3zm-6.699-1.3a1.39 1.39 0 0 0-1.392 1.392h1.3c0-.051.041-.092.092-.092v-1.3z" fill="#12344d"/><path d="M6.812 7.309h6.284m-6.284 2.756h6.284m-6.284 2.756h3.703m-3.703 2.756h2.29" stroke="#12344d" stroke-width="1.3" stroke-linecap="round" stroke-linejoin="round"/></svg>