<svg xmlns="http://www.w3.org/2000/svg" fill="none" viewBox="0 0 11 11"><path fill="#12344D" fill-rule="evenodd" d="M2.999 3.697a1.956 1.956 0 103.615-1.494A1.956 1.956 0 003 3.697zm.726-.74a1.081 1.081 0 112.163 0 1.081 1.081 0 01-2.163 0zM1.444 11H4.9a.438.438 0 000-.875H1.956l.457-2.738a1.054 1.054 0 011.044-.88h2.75a.431.431 0 00.387-.457.438.438 0 00-.438-.413h-2.7A1.925 1.925 0 001.55 7.25L1 10.488a.45.45 0 00.107.356.43.43 0 00.337.156zm7.131-3.944a1.331 1.331 0 111.332-1.331 1.325 1.325 0 01-1.332 1.331zm0-1.787a.456.456 0 100 .912.456.456 0 000-.912zM6.625 11h3.938c.128 0 .25-.058.331-.156a.45.45 0 00.1-.356l-.319-1.876a1.313 1.313 0 00-1.3-1.1H7.813a1.312 1.312 0 00-1.3 1.1l-.319 1.876a.45.45 0 00.1.356.431.431 0 00.331.156zm3.419-.875H7.113l.231-1.4a.444.444 0 01.438-.369h1.593c.216 0 .401.156.438.369l.231 1.4z" clip-rule="evenodd"/></svg>