<svg width="16" height="16" viewBox="0 0 16 16" fill="none" xmlns="http://www.w3.org/2000/svg">
<path d="M12.41 9.84C11.57 9.84 10.82 10.25 10.35 10.87L6.12001 8.77C6.16001 8.59 6.19001 8.4 6.19001 8.21C6.19001 7.89 6.12001 7.6 6.02001 7.32L10.37 5.14C10.84 5.75 11.58 6.16 12.42 6.16C13.85 6.16 15.01 5 15.01 3.58C15.01 2.16 13.85 1 12.42 1C10.99 1 9.83001 2.16 9.83001 3.58C9.83001 3.74 9.85001 3.9 9.88001 4.06L5.35001 6.32C4.89001 5.9 4.28001 5.63 3.60001 5.63C2.17001 5.63 1.01001 6.79 1.01001 8.21C1.01001 9.63 2.17001 10.79 3.60001 10.79C4.41001 10.79 5.12001 10.41 5.59001 9.84L9.87001 11.97C9.84001 12.12 9.82001 12.27 9.82001 12.43C9.82001 13.85 10.98 15.01 12.41 15.01C13.84 15.01 15 13.85 15 12.43C15 11.01 13.84 9.85 12.41 9.85V9.84ZM12.41 2.19C13.18 2.19 13.81 2.81 13.81 3.58C13.81 4.35 13.18 4.97 12.41 4.97C11.64 4.97 11.01 4.35 11.01 3.58C11.01 2.81 11.64 2.19 12.41 2.19ZM3.59001 9.6C2.82001 9.6 2.19001 8.98 2.19001 8.21C2.19001 7.44 2.82001 6.82 3.59001 6.82C4.36001 6.82 4.99001 7.44 4.99001 8.21C4.99001 8.98 4.36001 9.6 3.59001 9.6ZM12.41 13.81C11.64 13.81 11.01 13.19 11.01 12.42C11.01 11.65 11.64 11.03 12.41 11.03C13.18 11.03 13.81 11.65 13.81 12.42C13.81 13.19 13.18 13.81 12.41 13.81Z" fill="var(--color-icon-primary)"/>
</svg>
