<svg width="16" height="16" viewBox="0 0 16 16" fill="none" xmlns="http://www.w3.org/2000/svg">
<path fill-rule="evenodd" clip-rule="evenodd" d="M6.13297 1C5.35908 1.00057 4.73276 1.62861 4.73333 2.4025C4.73276 3.17639 5.35965 3.80443 6.13354 3.805H7.53376V2.40307C7.53433 1.62918 6.90743 1.00114 6.13297 1C6.13354 1 6.13354 1 6.13297 1V1ZM6.13297 4.74076H2.40021C1.62632 4.74134 0.99943 5.36937 1 6.14327C0.998858 6.91716 1.62575 7.54519 2.39964 7.54634H6.13297C6.90686 7.54577 7.53375 6.91773 7.53318 6.14384C7.53375 5.36937 6.90686 4.74134 6.13297 4.74076Z" fill="#36C5F0"/>
<path fill-rule="evenodd" clip-rule="evenodd" d="M15 6.14327C15.0006 5.36937 14.3737 4.74134 13.5998 4.74076C12.8259 4.74134 12.199 5.36937 12.1996 6.14327V7.54634H13.5998C14.3737 7.54577 15.0006 6.91773 15 6.14327ZM11.2667 6.14327V2.4025C11.2672 1.62918 10.6409 1.00114 9.86702 1C9.09312 1.00057 8.46623 1.62861 8.4668 2.4025V6.14327C8.46565 6.91716 9.09255 7.54519 9.86645 7.54634C10.6403 7.54577 11.2672 6.91773 11.2667 6.14327Z" fill="#2EB67D"/>
<path fill-rule="evenodd" clip-rule="evenodd" d="M9.86603 15.0274C10.6399 15.0268 11.2668 14.3988 11.2662 13.6249C11.2668 12.851 10.6399 12.2229 9.86603 12.2224H8.46582V13.6249C8.46525 14.3982 9.09214 15.0262 9.86603 15.0274ZM9.86603 11.286H13.5994C14.3733 11.2855 15.0001 10.6574 14.9996 9.88354C15.0007 9.10965 14.3738 8.48161 13.5999 8.48047H9.8666C9.09271 8.48104 8.46582 9.10908 8.46639 9.88297C8.46582 10.6574 9.09214 11.2855 9.86603 11.286Z" fill="#ECB22E"/>
<path fill-rule="evenodd" clip-rule="evenodd" d="M1 9.88298C0.999428 10.6569 1.62632 11.2849 2.40021 11.2855C3.17411 11.2849 3.801 10.6569 3.80043 9.88298V8.48047H2.40021C1.62632 8.48104 0.999428 9.10908 1 9.88298ZM4.73333 9.88298V13.6238C4.73219 14.3977 5.35908 15.0257 6.13297 15.0269C6.90686 15.0263 7.53375 14.3982 7.53318 13.6243V9.88412C7.53433 9.11023 6.90743 8.48218 6.13354 8.48104C5.35908 8.48104 4.73276 9.10908 4.73333 9.88298C4.73333 9.88298 4.73333 9.88355 4.73333 9.88298Z" fill="#E01E5A"/>
</svg>
