<svg xmlns="http://www.w3.org/2000/svg" width="15" height="16" fill="none" viewBox="0 0 15 16"><path fill="#12344D" fill-rule="evenodd" d="M13.963 11.451l-.49-.56c-.49-.552-.77-1.306-.776-2.094V7.82c.034-3.08-1.912-5.725-4.575-6.213a.436.436 0 000-.098V.621C8.122.278 7.88 0 7.58 0c-.3 0-.544.278-.544.621v.888a.193.193 0 000 .062c-2.74.256-4.841 2.886-4.816 6.027v1.199c-.001.79-.281 1.545-.776 2.095l-.49.559c-.317.356-.413.898-.24 1.367.17.47.571.778 1.017.781h3.107C5.089 14.997 6.167 16 7.416 16s2.326-1.003 2.578-2.4h3.107c.446-.004.846-.312 1.018-.782.194-.45.133-.989-.156-1.367zM7.47 14.744c-.646 0-1.224-.455-1.453-1.145h2.905c-.229.69-.807 1.146-1.452 1.146zm5.716-2.396H1.745l.49-.56c.694-.792 1.08-1.87 1.072-2.991V7.599C3.307 4.97 5.17 2.84 7.47 2.84h.132c2.29.165 4.064 2.357 4.03 4.98v.976c.001 1.114.386 2.183 1.073 2.974l.49.577h-.009z" clip-rule="evenodd"/></svg>