<svg xmlns="http://www.w3.org/2000/svg" width="15" height="17" fill="none" viewBox="0 0 15 17"><path fill="#12344D" fill-rule="evenodd" d="M13.007 1.402c.28.23.32.643.089.922L1.428 16.494a.656.656 0 01-1.012-.833L12.084 1.49c.23-.28.643-.32.923-.09z" clip-rule="evenodd"/><path fill="#12344D" fill-rule="evenodd" d="M14.141 11.49l.517.59c.304.4.369.968.164 1.443-.181.496-.604.82-1.074.824H10.47c-.266 1.475-1.402 2.533-2.72 2.533-1.318 0-2.454-1.058-2.72-2.533H2.038l1.087-1.32H13.846l-.516-.61c-.724-.834-1.13-1.961-1.13-3.137V8.25c.02-1.673-.655-3.179-1.726-4.147l.793-.964c1.284 1.23 2.077 3.08 2.055 5.111v1.03c.006.832.3 1.627.82 2.21zm-3.918-9.145a5.247 5.247 0 00-1.728-.65.46.46 0 000-.103V.656C8.495.293 8.24 0 7.922 0c-.317 0-.574.293-.574.656v.936a.203.203 0 000 .066c-2.89.27-5.107 3.044-5.08 6.358v1.265c-.002.832-.297 1.63-.82 2.21l-.516.59c-.335.376-.435.947-.254 1.442.034.093.077.18.126.26l2.34-2.842a4.96 4.96 0 00.271-1.66V8.015c0-2.772 1.966-5.02 4.392-5.02h.14c.505.037.986.167 1.431.375l.845-1.026zM6.274 14.347c.242.727.852 1.208 1.533 1.208.68 0 1.29-.48 1.532-1.208H6.274z" clip-rule="evenodd"/></svg>