<svg width="16" height="16" viewBox="0 0 16 16" fill="none" xmlns="http://www.w3.org/2000/svg">
<path d="M4.71249 7.88123C4.71249 7.49373 5.02499 7.18123 5.41249 7.18123H10.85C11.2375 7.18123 11.55 7.49373 11.55 7.88123C11.55 8.26873 11.2375 8.58123 10.85 8.58123H5.41249C5.03124 8.58748 4.71249 8.26873 4.71249 7.88123ZM10.8562 10.25H5.41874C5.03124 10.25 4.71874 10.5625 4.71874 10.95C4.71874 11.3375 5.03124 11.65 5.41874 11.65H10.8562C11.2437 11.65 11.5562 11.3375 11.5562 10.95C11.5562 10.5625 11.2437 10.25 10.8562 10.25ZM14.6375 4.08123V15.2562C14.6375 15.6437 14.325 15.9562 13.9375 15.9562H2.43749C2.04999 15.9562 1.73749 15.6437 1.73749 15.2562V2.76873C1.73749 2.73123 1.74374 2.68748 1.74999 2.64998C1.74374 2.57498 1.73749 2.49998 1.73749 2.42498C1.73749 1.11248 2.80624 0.0374756 4.12499 0.0374756H13.9375C14.2437 0.0374756 14.5187 0.237476 14.6125 0.537476C14.7 0.831226 14.5875 1.15623 14.3312 1.32498L13.9062 1.61248C13.6312 1.79998 13.475 2.09373 13.475 2.42498C13.475 2.75623 13.6312 3.05623 13.9062 3.23748L14.1562 3.40623C14.4375 3.50623 14.6375 3.76873 14.6375 4.08123ZM3.07499 2.36873C3.07499 2.90623 3.51249 3.34998 4.04999 3.34998H12.2625C12.2062 3.19373 12.1375 3.04373 12.1062 2.87498C12 2.38123 12.0625 1.84998 12.2687 1.39373H4.05624C3.51249 1.39373 3.07499 1.83123 3.07499 2.36873ZM13.2375 4.81248H4.12499C3.77499 4.81248 3.44374 4.73748 3.14374 4.59998V14.55H13.2375V4.81248Z" fill="#2C5CC5"/>
</svg>
