<svg xmlns="http://www.w3.org/2000/svg" width="12" height="12" fill="none" viewBox="0 0 12 12"><g clip-path="url(#clip0)"><path fill="#F8E47B" d="M3.5 7.5L1 5l3.5-1L6 1l.5 1L8 4l3.5 1L9 7.5l.5 4L6 10h-.5l-3 1 1-3.5z"/><path fill="#022E52" d="M9.615 12.002a.376.376 0 01-.152-.032l-3.464-1.542-3.464 1.542a.376.376 0 01-.52-.417l.764-3.827L.11 5.05a.376.376 0 01.19-.633l3.828-.767L5.656.206c.121-.272.565-.272.686 0L7.87 3.65l3.828.767a.375.375 0 01.191.634L9.22 7.726l.764 3.827a.376.376 0 01-.368.449zM5.999 9.641c.052 0 .104.01.152.032l2.954 1.316-.661-3.313a.376.376 0 01.102-.34l2.317-2.32-3.33-.668a.375.375 0 01-.27-.215L6 1.283l-1.265 2.85a.375.375 0 01-.269.215l-3.33.668 2.317 2.32a.376.376 0 01.102.34l-.661 3.313 2.954-1.316A.373.373 0 016 9.641z"/></g><defs><clipPath id="clip0"><path fill="#fff" d="M0 0h12v12H0z"/></clipPath></defs></svg>