<svg xmlns="http://www.w3.org/2000/svg" width="20" height="20" fill="none" viewBox="0 0 20 20"><path fill="#E86F25" d="M20 10.036a.905.905 0 00-.35-.703l-1.875-1.38.975-2.171a.882.882 0 000-.79.862.862 0 00-.663-.427L15.775 4.3l-.25-2.321A.89.89 0 0015 1.327a.872.872 0 00-.787 0l-2.125.941L10.7.336a.899.899 0 00-1.4 0L7.913 2.218l-2.125-.966a.872.872 0 00-.788 0 .891.891 0 00-.437.652l-.25 2.322L2 4.565a.862.862 0 00-.662.451.882.882 0 000 .791l.925 2.146L.35 9.308a.892.892 0 000 1.418l1.875 1.38-.975 2.146a.882.882 0 000 .791c.14.241.386.4.663.427l2.312.263.25 2.31a.916.916 0 00.438.664c.247.126.54.126.787 0l2.125-.94 1.388 1.882a.874.874 0 001.4 0L12 17.766l2.125.941c.248.126.54.126.787 0 .24-.143.4-.387.438-.665l.25-2.309 2.313-.263a.862.862 0 00.662-.427.882.882 0 000-.79l-.925-2.146 1.875-1.38a.903.903 0 00.475-.691z"/><path fill="#E86F25" d="M15.886 12.17l.738 1.632-1.825.213a.877.877 0 00-.775.778l-.2 1.82-1.675-.678a.885.885 0 00-1.063.276L10 17.692l-1.088-1.48a.899.899 0 00-.712-.352.923.923 0 00-.35.075l-1.675.728-.2-1.82a.877.877 0 00-.775-.778l-1.825-.263.737-1.631a.868.868 0 00-.287-1.055L2.35 10.037l1.475-1.092a.868.868 0 00.287-1.054l-.737-1.719 1.825-.2a.877.877 0 00.775-.779l.2-1.832 1.675.74a.885.885 0 001.062-.276L10 2.332l1.087 1.493a.885.885 0 001.063.276l1.675-.74.2 1.832c.044.41.366.734.775.778l1.825.201-.738 1.694a.868.868 0 00.288 1.054l1.475 1.117-1.475 1.104a.868.868 0 00-.288 1.03z"/><path fill="#fff" d="M13.488 7.526a.868.868 0 010 1.255l-3.75 3.765a.873.873 0 01-.625.264.848.848 0 01-.637-.264l-1.963-1.983a.868.868 0 010-1.255.885.885 0 011.25 0l1.325 1.368 3.163-3.15a.86.86 0 011.237 0z"/></svg>