<svg xmlns="http://www.w3.org/2000/svg" width="18" height="18" fill="none" viewBox="0 0 18 18"><path fill="var(--color-fill-neutral-bold)" fill-rule="evenodd" d="M15.469 2.756a.946.946 0 00-.09-.135.935.935 0 00-.135-.09A9 9 0 002.53 15.244a.935.935 0 00.09.135.946.946 0 00.135.09A9 9 0 0015.47 2.756zM9 1.575a7.346 7.346 0 014.658 1.654L3.228 13.658A7.346 7.346 0 011.576 9 7.436 7.436 0 019 1.575zm0 14.85a7.346 7.346 0 01-4.657-1.654L14.77 4.343A7.346 7.346 0 0116.425 9 7.436 7.436 0 019 16.425z" clip-rule="evenodd"/></svg>
