<svg xmlns="http://www.w3.org/2000/svg" width="12" height="12" fill="none" viewBox="0 0 12 12"><path fill="#007958" d="M6.422 2.648a4.12 4.12 0 012.934 1.214 4.12 4.12 0 011.214 2.935 4.153 4.153 0 01-4.148 4.148 4.153 4.153 0 01-4.149-4.148 4.153 4.153 0 014.149-4.149zm0-1.054a5.203 5.203 0 100 10.406 5.203 5.203 0 000-10.406zm.525 5.203V4.13a.524.524 0 10-1.05 0v2.667a.524.524 0 101.05 0zM8.283.525A.524.524 0 007.758 0H5.086a.524.524 0 100 1.05h2.667c.29.005.53-.23.53-.525z"/><path fill="#007958" d="M6.422 7.321h2.667a.524.524 0 100-1.05H6.422a.524.524 0 100 1.05z"/></svg>