<svg width="16" height="10" viewBox="0 0 16 10" fill="none" xmlns="http://www.w3.org/2000/svg">
<path fill-rule="evenodd" clip-rule="evenodd" d="M1.0491 9.72971C1.32922 9.72975 1.59757 9.61704 1.79366 9.417L4.54856 6.64729C4.60619 6.60508 4.68452 6.60508 4.74215 6.64729L6.544 8.46398C7.41885 9.29977 8.79633 9.29977 9.67118 8.46398L13.9152 4.22007V5.70916C13.9152 6.28484 14.3819 6.75153 14.9576 6.75153C15.5333 6.75153 16 6.28484 16 5.70916V1.70351C15.9901 1.28395 15.733 0.909968 15.3448 0.75049C15.2244 0.691024 15.0919 0.660432 14.9576 0.661145H10.9965C10.4208 0.661145 9.95412 1.12783 9.95412 1.70351C9.95412 2.27919 10.4208 2.74587 10.9965 2.74587H12.4856L8.19694 6.98978C8.14606 7.03528 8.06912 7.03528 8.01824 6.98978L6.21639 5.17309C5.33356 4.3429 3.95715 4.3429 3.07432 5.17309L0.31942 7.9428C0.115461 8.13676 0 8.40589 0 8.68734C0 8.9688 0.115461 9.23793 0.31942 9.43189C0.511467 9.62709 0.775305 9.73477 1.0491 9.72971Z" fill="#1CB697"/>
</svg>
