<svg width="16" height="16" viewBox="0 0 16 16" fill="none" xmlns="http://www.w3.org/2000/svg">
<path d="M14.4405 7.36411C14.4097 7.36279 14.3789 7.36222 14.3481 7.36241C13.8099 7.36346 9.93957 7.78887 10.1338 8.18424C10.3272 8.57545 12.7105 8.76527 14.4091 8.76604C14.7651 8.7041 15.0229 8.38168 14.9984 8.013C14.9755 7.68938 14.7412 7.43077 14.4405 7.36417V7.36411ZM13.128 11.467C11.6383 10.649 9.45799 9.66543 9.1005 9.91598C8.74054 10.1685 11.929 12.4081 12.4007 12.6682C12.4294 12.6838 12.4563 12.6982 12.4822 12.7119C12.7786 12.7984 13.1074 12.6847 13.2831 12.4114C13.4817 12.1004 13.4099 11.6929 13.128 11.467H13.128ZM13.128 4.73364C13.41 4.50764 13.4817 4.10015 13.2831 3.78941C13.1074 3.516 12.7786 3.40286 12.4822 3.48909C12.4563 3.50241 12.4294 3.51688 12.4007 3.53239C11.929 3.79292 8.74054 6.03213 9.1005 6.28488C9.45799 6.53532 11.6383 5.5519 13.128 4.73364V4.73364ZM4.19426 10.7287C3.75096 11.9833 3.34059 12.5708 2.39788 12.5708C2.30677 12.5708 1.98959 12.552 1.96913 12.5501C1.66502 12.5345 1.38097 12.7328 1.29905 13.0393C1.20499 13.3875 1.40897 13.7462 1.75449 13.8454C2.00435 13.8895 2.26089 13.9057 2.49107 13.9057C4.22871 13.9057 4.80321 12.903 5.37693 11.4391L8.76701 2.9626C8.88924 2.57851 8.67634 2.16796 8.2955 2.04578C7.92121 1.9265 7.52495 2.12482 7.39086 2.48922L5.00878 8.79969H4.97142L2.46564 2.44181C2.29611 2.08256 1.87671 1.90721 1.49838 2.04934C1.11027 2.19525 0.910876 2.62089 1.03841 3.01226L4.19426 10.7287V10.7287Z" fill="#0072C6"/>
</svg>
