<svg xmlns="http://www.w3.org/2000/svg" xmlns:xlink="http://www.w3.org/1999/xlink" viewBox="0 0 28 28"><defs><radialGradient id="fs-kq49x2zqlb" cx="14" cy="12.373" r="18.876" fx="14" fy="12.373" gradientTransform="matrix(1 0 0 .83578 0 2.032)" gradientUnits="userSpaceOnUse"><stop offset=".82" stop-color="#0b5cff" stop-opacity="0"/><stop offset=".98" stop-color="#003cb3"/></radialGradient><radialGradient id="fs-lhu980on6c" cx="14" cy="15.621" r="18.869" fx="14" fy="15.621" gradientTransform="matrix(1 0 0 .83578 0 2.565)" gradientUnits="userSpaceOnUse"><stop offset=".8" stop-color="#0b5cff" stop-opacity="0"/><stop offset="1" stop-color="#71a5f1"/></radialGradient><path id="fs-fpej77u2na" d="M28 14c0 1.497-.12 2.965-.35 4.397a11.202 11.202 0 01-9.253 9.253 27.684 27.684 0 01-8.792 0 11.202 11.202 0 01-9.253-9.253A27.684 27.684 0 01.35 9.604 11.203 11.203 0 019.604.35a27.684 27.684 0 018.792 0 11.202 11.202 0 019.253 9.253c.23 1.431.35 2.899.35 4.397z"/></defs><use fill="#0b5cff" xlink:href="#fs-fpej77u2na"/><use fill="url(#fs-kq49x2zqlb)" xlink:href="#fs-fpej77u2na"/><path fill="url(#fs-lhu980on6c)" d="M28 14c0 1.497-.12 2.965-.35 4.396a11.202 11.202 0 01-9.253 9.253 27.684 27.684 0 01-8.792 0 11.202 11.202 0 01-9.253-9.253A27.706 27.706 0 01.35 9.603 11.203 11.203 0 019.604.35C11.035.12 12.503 0 14 0a27.7 27.7 0 014.396.35 11.202 11.202 0 019.253 9.253c.23 1.431.35 2.899.35 4.397z"/><path fill="#fff" d="M17 17.5a1.5 1.5 0 01-1.5 1.5H9a3 3 0 01-3-3v-5.5A1.5 1.5 0 017.5 9H14a3 3 0 013 3v5.5zm3.8-7.6l-2.2 1.65a1.5 1.5 0 00-.6 1.2v2.5a1.5 1.5 0 00.6 1.2l2.2 1.65a.75.75 0 001.2-.6v-7a.75.75 0 00-1.2-.6z"/></svg>