<svg xmlns="http://www.w3.org/2000/svg" width="44" height="19" fill="none" viewBox="0 0 44 19"><rect width="43" height="18" x=".5" y=".5" fill="var(--color-fill-semantic-info-mildest)" rx="9"/><circle cx="9" cy="9.5" r="5" fill="var(--color-icon-semantic-info)" opacity=".3"/><circle cx="9" cy="9.499" r="3.261" fill="var(--color-icon-semantic-info)"/><circle cx="9" cy="9.499" r="1.957" fill="var(--color-icon-inverse)" opacity=".8"/><path fill="var(--color-icon-semantic-info)" d="M23.361 11.896H20.13V5.954h-1.26V13h4.492v-1.104zM24.606 13h1.206V7.658h-1.206V13zm.601-6.226c.4 0 .723-.322.723-.727a.726.726 0 00-.723-.733.73.73 0 00-.723.733c0 .405.327.727.723.727zm6.768.884h-1.28L29.47 11.79h-.083L28.15 7.66h-1.299l1.9 5.341h1.333l1.89-5.342zm3.051.855c.728 0 1.206.508 1.23 1.299h-2.514c.054-.782.562-1.3 1.284-1.3zm1.24 3.017c-.175.396-.59.616-1.19.616-.797 0-1.31-.557-1.339-1.446v-.063h3.73v-.39c0-1.685-.912-2.696-2.436-2.696-1.548 0-2.51 1.079-2.51 2.798 0 1.718.948 2.758 2.52 2.758 1.26 0 2.153-.605 2.373-1.577h-1.147z"/><rect width="43" height="18" x=".5" y=".5" stroke="var(--color-fill-semantic-info-mildest)" rx="9"/></svg>
