<svg xmlns="http://www.w3.org/2000/svg" width="44" height="19" fill="none" viewBox="0 0 44 19"><rect width="43" height="18" x=".5" y=".5" fill="#FEF1E1" rx="9"/><circle cx="9" cy="9.5" r="5" fill="#E16023" opacity=".3"/><circle cx="9" cy="9.5" r="3.261" fill="#C13E1B"/><circle cx="9" cy="9.5" r="1.957" fill="#fff" opacity=".2"/><path fill="#C13E1B" d="M18.87 13h4.491v-1.06H20.13V5.954h-1.26V13zm6.347-6.23a.72.72 0 00.723-.718.723.723 0 00-.723-.718c-.4 0-.728.322-.728.718 0 .4.327.718.728.718zm-.61 6.23h1.215V7.663h-1.216V13zm4.145 0h1.333l1.89-5.337h-1.28l-1.225 4.15h-.083l-1.236-4.15h-1.299l1.9 5.337zm6.318.107c1.45 0 2.163-.834 2.334-1.523l.015-.044h-1.157l-.015.034c-.117.244-.493.576-1.152.576-.825 0-1.343-.556-1.358-1.513h3.73v-.4c0-1.612-.937-2.676-2.455-2.676-1.519 0-2.49 1.098-2.49 2.778v.005c0 1.699.961 2.763 2.548 2.763zm-.044-4.594c.68 0 1.172.434 1.255 1.308h-2.534c.093-.85.6-1.308 1.28-1.308z"/><rect width="43" height="18" x=".5" y=".5" stroke="#FDDBB5" rx="9"/></svg>