<svg xmlns="http://www.w3.org/2000/svg" width="342" height="199" fill="none" viewBox="0 0 342 199"><g clip-path="url(#clip0_390_19163)"><path fill="#EBF0F2" d="M313.649 181.092H22.989c-2.96-6.851-3.137-14.685.81-22.487 7.364-14.559 23.504-24.248 39.632-24.843 7.705-.284 15.652 1.309 23-1.028 6.547-2.087 11.767-7.06 16.174-12.339 15.648-18.728 25.752-40.082 49.662-49.853 11.114-4.537 27.024-5.632 35.584 4.458 5.684 6.707 6.283 16.55 11.569 23.577 7.61 10.116 20.53 12.845 32.499 13.141 6.612.168 13.23-.387 19.8-1.082 6.679-.705 14.285-2.796 20.92-2.113 18.354 1.894 9.113 30.483 21.854 39.223 3.689 2.531 8.178 3.528 12.345 5.137 11.906 4.594 14.577 18.406 6.809 28.205l.002.004z"/><path fill="#fff" d="M150.449 93.596c-.663 5.625-5.977 6.789-9.363 5.625-2.653-.913-6.586-5.07-8.169-6.831 3.072-4.099 1.774-8.038.202-10.569a14.616 14.616 0 00-1.272-1.745c-1.885-2.23-.866-5.368-.898-7.936-.024-2.101 2.178-4.429 3.23-7.003 2.048 1.751 6.891 5.354 12.065 5.401.276.002.552-.005.83-.023a8.093 8.093 0 001.581-.265v12.795s2.458 4.926 1.794 10.55z"/><path fill="#22313B" d="M143.59 99.728a7.834 7.834 0 01-2.533-.413c-2.671-.918-6.632-5.101-8.211-6.858l-.055-.061.049-.066c3.025-4.035 1.776-7.912.199-10.455a14.551 14.551 0 00-1.265-1.734c-1.418-1.68-1.227-3.828-1.042-5.905.065-.734.128-1.427.121-2.094-.016-1.323.827-2.721 1.717-4.202.549-.914 1.119-1.86 1.52-2.839l.052-.126.104.089c1.873 1.601 6.791 5.33 12.002 5.378.272.002.548-.006.822-.024a8.13 8.13 0 001.562-.26l.124-.034v12.902c.173.361 2.43 5.182 1.794 10.584l-.099-.012.099.012c-.264 2.233-1.29 3.972-2.97 5.03-1.137.715-2.559 1.088-3.989 1.088h-.001zm-10.543-7.342c1.603 1.779 5.477 5.85 8.075 6.744 2.087.719 4.581.46 6.353-.656 1.627-1.026 2.624-2.714 2.88-4.886.652-5.53-1.761-10.446-1.785-10.495l-.009-.022v-12.69c-.477.12-.971.199-1.478.234a10.87 10.87 0 01-.837.024c-5.183-.047-10.064-3.678-12.026-5.338-.401.95-.951 1.86-1.481 2.742-.876 1.455-1.703 2.83-1.69 4.097.008.677-.055 1.374-.12 2.114-.181 2.037-.37 4.144.995 5.759.477.563.908 1.155 1.28 1.757 1.603 2.582 2.872 6.513-.159 10.614l.002.002z"/><path fill="#FFA61F" d="M184.585 102.61l-.486.875-11.804 21.182-1.723 3.094-2.592-1.915-1.55 27.156-.144 2.531s-51.928 5.162-53.752-.559c-1.824-5.722-.067-25.312-.067-25.312l-19.396 1.007-2.921.408s3.14-22.019 4.083-29.965c.89-7.494 4.745-13.53 10.247-14.35-.244 2.65 1.988 4.682 3.955 3.697 1.966-.987 2.685-1.315 2.909.327.225 1.643.038 12.665.693 18.071 1.324 10.91 7.725 13.115 9.891 13.668 2.169.553 9.911.324 13.519-6.075 3.607-6.397 1.974-9.593-.264-13.07-2.235-3.478-2.92-10.19-2.92-10.19.238-.267.455-.534.653-.8 1.584 1.76 5.517 5.918 8.17 6.83 3.386 1.165 8.7 0 9.363-5.624.664-5.625-1.794-10.55-1.794-10.55v-.09c5.379-.736 15.307 3.4 15.307 3.4 0-.099-.002-.2-.006-.3 3.792 2.703 14.608 10.574 20.629 16.554z"/><path fill="#22313B" d="M128.914 157.771c-10.357 0-15.886-.925-16.473-2.767-1.737-5.449-.22-23.625-.08-25.238l-19.284 1.001-2.913.409a.098.098 0 01-.11-.11c.031-.222 3.149-22.11 4.082-29.964.948-7.976 5.003-13.642 10.331-14.434a.096.096 0 01.082.026.097.097 0 01.03.08c-.126 1.373.445 2.707 1.453 3.4.739.508 1.6.58 2.36.2 1.323-.665 2.038-1.001 2.509-.75.286.15.453.507.542 1.153.084.616.11 2.525.145 4.943.058 4.107.136 9.733.55 13.129.518 4.27 2.482 11.713 9.818 13.585 2.243.571 9.899.197 13.409-6.027 3.504-6.215 2.101-9.295-.26-12.967-2.222-3.46-2.929-10.168-2.937-10.235a.1.1 0 01.024-.075c.226-.253.445-.521.648-.794a.1.1 0 01.075-.04.087.087 0 01.076.032c1.57 1.746 5.501 5.901 8.129 6.804 2.087.718 4.581.46 6.353-.656 1.627-1.026 2.624-2.714 2.88-4.886.652-5.53-1.761-10.446-1.785-10.495a.135.135 0 01-.009-.044v-.088a.1.1 0 01.084-.1c4.999-.684 14 2.858 15.221 3.351 0-.05-.002-.099-.004-.148 0-.038.018-.073.051-.09a.1.1 0 01.105.005c3.295 2.35 14.519 10.484 20.64 16.564a.098.098 0 01.016.119l-.486.874-13.527 24.276a.1.1 0 01-.065.047.096.096 0 01-.079-.017l-2.446-1.807-1.684 29.506a.096.096 0 01-.089.092c-.13.012-13.137 1.297-26.199 1.866-4.203.184-7.933.274-11.184.274l.001-.004zm-16.445-28.208c.027 0 .053.01.071.03a.102.102 0 01.027.077c-.017.195-1.735 19.636.063 25.272 1.745 5.475 51.198.731 53.566.5l1.69-29.602a.094.094 0 01.057-.083.095.095 0 01.1.01l2.502 1.848 13.922-24.987c-6.027-5.968-16.932-13.897-20.402-16.376v.104a.1.1 0 01-.136.093c-.099-.041-9.85-4.067-15.162-3.406.233.488 2.413 5.246 1.785 10.567-.264 2.233-1.29 3.972-2.97 5.03-1.82 1.147-4.381 1.412-6.523.675-2.628-.902-6.502-4.965-8.131-6.77-.177.233-.364.46-.557.678.065.58.798 6.831 2.901 10.104 2.324 3.611 3.819 6.872.266 13.172-1.964 3.483-5.085 5.017-7.356 5.69-2.531.75-5.024.75-6.271.433-3.197-.816-8.743-3.688-9.964-13.751-.414-3.406-.492-9.038-.55-13.149-.033-2.412-.061-4.316-.143-4.92-.079-.57-.217-.888-.438-1.007-.386-.203-1.101.137-2.33.753-.825.412-1.758.335-2.558-.214-1.036-.71-1.637-2.057-1.548-3.455-5.178.85-9.113 6.42-10.043 14.245-.894 7.539-3.803 28.007-4.065 29.837l2.791-.391 19.404-1.007h.006-.004z"/><path fill="#22313B" d="M112.467 129.662h.459s2.948 20.406 10.005 26.388c8.957 7.593-15.62-.894-15.62-.894l5.156-25.494z"/><path fill="#DAE3E8" d="M130.703 64.462s5.229 10.647 17.952 10.252c12.723-.395-2.176-11.281-2.176-11.281l-13.868-.549-1.908 1.578z"/><path fill="#FFA61F" d="M169.424 180.983h-60.116l.453-2.217v-.004l1.016-4.983c5.798-.979 9.019-.588 16.546-2.65 9.647-2.641 22.246-5.755 31.156-8.112 5.064-1.34 8.934-2.438 10.395-3.066l.55 21.032z"/><path fill="#22313B" d="M169.424 181.082h-60.116a.104.104 0 01-.077-.036.095.095 0 01-.02-.083l.451-2.209v-.012l1.017-4.983a.096.096 0 01.08-.077c2.062-.347 3.817-.525 5.515-.697 3.175-.32 6.175-.624 11.024-1.95 5.8-1.588 12.589-3.327 19.155-5.009 4.345-1.114 8.448-2.164 12.001-3.104 5.788-1.532 9.087-2.505 10.381-3.062a.098.098 0 01.138.089l.549 21.032a.105.105 0 01-.027.071.094.094 0 01-.071.03zm-59.996-.198h59.893l-.543-20.787c-1.389.569-4.666 1.53-10.275 3.015-3.555.94-7.658 1.992-12.003 3.103-6.566 1.682-13.355 3.422-19.151 5.009-4.865 1.333-7.871 1.635-11.055 1.957-1.676.169-3.408.343-5.434.683l-1.001 4.91v.012l-.429 2.098h-.002zM158.716 37.614c-.443-7.56-4.57-13.226-6.167-15.153.304-1.317.264-2.552.221-3.125 1.286.657 4.096 2.403 5.006 5.404 1.166 3.847.952 12.479.94 12.874z"/><path fill="#22313B" d="M158.688 37.615c-.439-7.484-4.455-13.079-6.161-15.136l-.008-.01v-.012c.302-1.297.27-2.51.223-3.117l-.004-.046.041.022c1.202.614 4.095 2.371 5.021 5.42 1.191 3.934.943 12.793.941 12.881h-.051l-.002-.002zm-6.113-15.16c1.67 2.018 5.524 7.39 6.125 14.594.033-2.024.065-8.951-.95-12.3-.907-2.995-3.734-4.736-4.953-5.366.043.622.069 1.809-.222 3.074v-.002z"/><path fill="#fff" d="M158.647 55.277c-.209 1.564-.696 3.53-1.47 5.526-1.593 4.105-4.404 8.334-8.522 9.447a8.093 8.093 0 01-1.581.265c-.278.017-.554.025-.83.023-5.174-.047-10.017-3.65-12.065-5.401a7.273 7.273 0 00.496-1.765c.042-.302.05-.622.028-.954-.209-3.273-3.203-7.788-3.648-10.12-.49-2.57.68-6.084 4.3-11.15 3.618-5.065 5.127-5.177 7.841-7.408 2.716-2.229 5.995-6.122 8.031-8.503.26-.304.479-.632.66-.973.313-.58.522-1.2.66-1.803 1.597 1.927 5.723 7.593 6.166 15.153v.013c.03.504.044 1.017.038 1.536-.104 10.23.585 10.942-.104 16.114z"/><path fill="#22313B" d="M146.325 70.637h-.081c-5.276-.05-10.239-3.81-12.128-5.425l-.055-.047.027-.068a7.093 7.093 0 00.491-1.74c.039-.29.049-.603.027-.935-.122-1.91-1.211-4.268-2.17-6.347-.664-1.435-1.29-2.792-1.475-3.761-.526-2.754.886-6.426 4.315-11.226 2.657-3.717 4.219-4.803 5.873-5.954.619-.43 1.259-.875 1.986-1.471 2.562-2.102 5.64-5.706 7.677-8.09l.34-.4c.247-.288.465-.61.648-.955.282-.521.501-1.12.65-1.779l.046-.193.128.154c1.713 2.067 5.749 7.688 6.188 15.21.032.537.043 1.056.037 1.557-.045 4.371.058 7.04.132 8.99.103 2.686.16 4.167-.236 7.136-.228 1.716-.752 3.686-1.475 5.55-2.712 6.985-6.545 8.953-8.589 9.506a8.198 8.198 0 01-1.601.268c-.253.016-.507.024-.757.024l.002-.004zm-12.028-5.53c1.913 1.625 6.787 5.285 11.949 5.333.272.002.548-.006.822-.024a8.13 8.13 0 001.562-.26c2.008-.544 5.776-2.484 8.457-9.388.717-1.848 1.237-3.803 1.463-5.505.394-2.953.337-4.426.234-7.103-.074-1.95-.177-4.622-.132-8.999.006-.497-.005-1.01-.037-1.53-.427-7.299-4.254-12.791-6.019-14.957-.151.6-.36 1.15-.622 1.635a5.47 5.47 0 01-.672.991l-.341.399c-2.042 2.39-5.126 6.002-7.702 8.116a29.017 29.017 0 01-1.998 1.48c-1.711 1.191-3.19 2.218-5.825 5.908-3.398 4.754-4.798 8.377-4.284 11.073.181.946.801 2.29 1.459 3.716.967 2.095 2.064 4.468 2.188 6.416a4.93 4.93 0 01-.027.974 7.333 7.333 0 01-.477 1.723l.002.002z"/><path fill="#22313B" d="M163.963 86.356s-9.929-4.136-15.308-3.4V70.25c4.119-1.113 6.929-5.342 8.523-9.447v8.198s6.572 9.517 6.779 17.055c.004.1.006.202.006.3z"/><path fill="#22313B" d="M163.99 86.396l-.035-.016c-.099-.041-9.984-4.124-15.294-3.398l-.029.004V70.231l.019-.006c2.021-.547 5.814-2.5 8.505-9.431l.049.01v8.189c.098.142 1.702 2.497 3.309 5.697 1.524 3.033 3.362 7.467 3.47 11.366.004.1.006.202.006.3v.04zm-13.946-3.552c5.304 0 13.286 3.224 13.895 3.473 0-.087-.002-.174-.006-.26-.106-3.89-1.942-8.316-3.465-11.343-1.648-3.281-3.295-5.676-3.31-5.7l-.004-.006v-8.066c-.877 2.22-2.005 4.199-3.268 5.723-1.552 1.873-3.303 3.086-5.201 3.605v12.657c.427-.057.882-.083 1.361-.083h-.002zM152.547 22.46a7.178 7.178 0 01-.66 1.803c-.181.342-.4.67-.66.974-2.036 2.38-5.315 6.274-8.031 8.503-2.714 2.23-4.223 2.343-7.841 7.407-3.62 5.066-4.79 8.58-4.3 11.151.446 2.332 3.439 6.847 3.648 10.12.022.332.014.652-.028.954-.082.6-.26 1.188-.496 1.765-1.052 2.574-3.254 4.902-3.23 7.002.032 2.569-.987 5.706.898 7.937.388.458.841 1.048 1.272 1.745 1.572 2.531 2.87 6.47-.202 10.569a11.76 11.76 0 01-.654.8s.685 6.712 2.921 10.19c2.237 3.477 3.87 6.673.263 13.07-3.608 6.399-11.35 6.628-13.518 6.075-2.167-.553-8.568-2.758-9.891-13.668-.656-5.406-.469-16.428-.694-18.07-.224-1.643-.943-1.315-2.909-.328-1.967.985-4.199-1.047-3.955-3.696.247-2.652 1.267-14.487 3.248-20.734 1.984-6.246 5.879-16.327 6.728-25.128.851-8.804 4.109-23.072 18.413-26.764C147.174 10.445 152.736 19 152.736 19s.016.122.032.336c.043.572.082 1.808-.221 3.125z"/><path fill="#22313B" d="M123.934 122.748c-.914 0-1.615-.097-2.011-.197a11.549 11.549 0 01-5.273-2.958c-2.509-2.444-4.069-6.057-4.636-10.734-.414-3.402-.492-9.032-.55-13.14-.033-2.415-.061-4.322-.143-4.929-.083-.602-.229-.93-.475-1.06-.418-.22-1.146.125-2.397.752-.802.401-1.708.326-2.485-.207-1.046-.717-1.639-2.097-1.507-3.514l.037-.41c.875-9.528 1.954-16.367 3.211-20.33.38-1.2.837-2.553 1.319-3.986 1.993-5.92 4.723-14.027 5.409-21.136.583-6.03 1.983-11.18 4.163-15.309 3.163-5.988 7.963-9.851 14.269-11.478 3.266-.843 6.344-1.112 9.149-.798 2.245.25 4.319.873 6.168 1.848 3.148 1.66 4.566 3.803 4.58 3.824l.004.012s.015.127.031.338c.045.61.079 1.83-.221 3.133a7.177 7.177 0 01-.661 1.808 5.363 5.363 0 01-.664.978l-.341.398c-2.04 2.39-5.122 5.998-7.693 8.107-.73.6-1.371 1.046-1.993 1.478-1.717 1.195-3.2 2.225-5.844 5.925-3.409 4.77-4.813 8.413-4.295 11.131.181.954.805 2.304 1.465 3.734.965 2.088 2.058 4.455 2.183 6.39.021.34.013.662-.028.96a7.194 7.194 0 01-.498 1.77c-.404.99-.975 1.94-1.529 2.857-.882 1.465-1.713 2.847-1.699 4.136.007.674-.054 1.37-.121 2.107-.183 2.051-.372 4.174 1.013 5.812.474.561.904 1.15 1.274 1.75 1.599 2.576 2.864 6.507-.205 10.597a11.24 11.24 0 01-.648.792c.034.316.753 6.801 2.915 10.168 1.089 1.691 2.086 3.381 2.328 5.45.262 2.255-.392 4.683-2.062 7.647-1.952 3.461-5.056 4.987-7.315 5.656a14.995 14.995 0 01-4.222.628h-.002zM110.543 89.61a.68.68 0 01.327.075c.262.138.417.478.502 1.1.083.61.11 2.519.144 4.935.057 4.109.136 9.737.549 13.137.52 4.288 2.496 11.763 9.871 13.646.885.225 3.319.427 6.206-.43 2.252-.668 5.342-2.186 7.284-5.633 1.664-2.951 2.318-5.372 2.056-7.615-.24-2.057-1.235-3.743-2.32-5.429-2.214-3.443-2.919-10.136-2.925-10.203v-.012l.006-.008c.228-.254.447-.523.652-.797 3.049-4.067 1.792-7.976.201-10.539a14.416 14.416 0 00-1.271-1.741c-1.398-1.657-1.209-3.789-1.024-5.852.065-.736.128-1.431.12-2.103-.013-1.303.822-2.692 1.708-4.163.552-.916 1.123-1.864 1.524-2.85a7.144 7.144 0 00.495-1.758c.039-.292.049-.612.027-.948-.122-1.925-1.215-4.288-2.178-6.373-.662-1.431-1.286-2.783-1.469-3.745-.522-2.734.886-6.387 4.303-11.17 2.649-3.708 4.136-4.74 5.856-5.937.62-.43 1.26-.877 1.989-1.475 2.566-2.106 5.649-5.713 7.687-8.1l.341-.399c.25-.292.47-.618.656-.97a7.16 7.16 0 00.657-1.796c.3-1.297.266-2.51.221-3.117a5.83 5.83 0 00-.032-.328c-.076-.117-1.494-2.188-4.559-3.803-1.842-.97-3.911-1.59-6.149-1.84-2.797-.312-5.869-.043-9.127.798-6.29 1.623-11.078 5.477-14.235 11.453-2.177 4.122-3.577 9.267-4.158 15.288-.686 7.116-3.417 15.226-5.41 21.149a266.16 266.16 0 00-1.32 3.986c-1.255 3.958-2.336 10.793-3.208 20.317l-.038.409c-.128 1.4.455 2.76 1.485 3.467.762.52 1.649.596 2.433.203 1.02-.513 1.67-.827 2.117-.827l.006-.002zM159.216 165.226c-5.927 4.656-49.455 13.54-49.455 13.54v-.004l1.016-4.983c5.798-.979 9.019-.588 16.546-2.65 9.647-2.641 22.246-5.755 31.156-8.112 1.594.438 2.104 1.135.737 2.209z"/><path fill="#fff" d="M185.478 164.435c-1.105-.332-.578-1.945-1.647-2.985-.362-.352-1.231-.97-1.231-.97.414 3.139-.549 4.92-1.004 4.93-.455.01-1.237-.229-1.588-2.41-.35-2.184-.835-.425-.835-.425-.677 4.205-1.113 3.757-1.719 3.688-.607-.071-1.613-.523-1.284-3.068.328-2.545-2.606-3.465-2.606-3.465s-1.572 1.874-3.904 4.077c-2.336 2.201-6.755.45-6.755.45l-.678.182c-4.242 1.125-27.506 7.19-43.074 9.072-7.746.937-15.659 2.801-21.708-7.284-5.107-8.513-4.894-26.702-4.374-35.558l19.396-1.007s-1.757 19.591.067 25.312c1.824 5.722 53.752.559 53.752.559l.144-2.531c1.873-.664 3.829-1.285 5.279-1.578 3.858-.768 6.647-.152 9.772 1.953 3.124 2.103 3.825 4.361 4.828 7.082 1.099 2.987.275 4.306-.831 3.976z"/><path fill="#22313B" d="M111.059 174.377c-4.96 0-9.748-1.514-13.698-8.098-2.242-3.736-3.691-9.688-4.312-17.694-.56-7.218-.287-14.327-.077-17.922a.099.099 0 01.093-.093l19.396-1.007a.102.102 0 01.077.03.1.1 0 01.027.077c-.017.195-1.735 19.636.063 25.272 1.745 5.475 51.198.731 53.566.5l.14-2.446a.095.095 0 01.065-.087c2.237-.792 4.018-1.325 5.292-1.581 3.797-.757 6.649-.186 9.847 1.968 2.992 2.014 3.79 4.195 4.716 6.72l.149.409c.666 1.808.703 3.212.107 3.85-.268.288-.644.377-1.058.254-.638-.191-.778-.775-.928-1.395-.128-.535-.275-1.143-.758-1.613-.252-.245-.764-.628-1.038-.828.254 2.249-.201 3.941-.748 4.581-.132.154-.26.233-.38.235-.851.014-1.419-.822-1.686-2.494-.16-.991-.327-1.011-.329-1.011-.075 0-.229.295-.313.599-.465 2.886-.808 3.486-1.109 3.703-.197.142-.392.109-.579.077a1.579 1.579 0 00-.138-.019 1.421 1.421 0 01-.987-.541c-.414-.529-.542-1.418-.384-2.638.288-2.231-2.064-3.186-2.476-3.337a55.812 55.812 0 01-3.868 4.034c-.977.92-2.476 1.293-4.333 1.076a11.417 11.417 0 01-2.495-.594l-.646.173c-4.471 1.187-27.564 7.199-43.088 9.074-.555.067-1.111.14-1.668.211-2.143.277-4.307.557-6.44.557l-.002-.002zm-17.894-43.613c-.21 3.616-.47 10.659.083 17.805.619 7.975 2.058 13.899 4.284 17.607 2.503 4.176 5.566 6.649 9.363 7.561 3.39.816 7.045.344 10.58-.114.558-.073 1.113-.144 1.669-.211 15.51-1.876 38.591-7.884 43.06-9.07l.677-.182a.092.092 0 01.061.004c.043.018 4.388 1.702 6.651-.43a54.372 54.372 0 003.896-4.069.103.103 0 01.104-.032c.03.01 3.01.976 2.675 3.572-.152 1.167-.035 2.004.345 2.491.208.269.496.425.852.466.05.006.099.014.148.022.17.028.302.051.433-.044.355-.254.674-1.36 1.033-3.585.051-.187.234-.77.516-.752.228.012.382.365.512 1.177.25 1.559.752 2.349 1.489 2.327.021 0 .104-.013.234-.167.386-.451 1.024-2.004.674-4.652a.096.096 0 01.047-.097.105.105 0 01.108.004c.036.026.879.626 1.243.98.526.511.679 1.147.813 1.709.148.612.264 1.094.792 1.254.343.101.64.034.859-.201.536-.575.48-1.937-.148-3.647l-.15-.411c-.911-2.493-1.699-4.645-4.64-6.623-3.149-2.121-5.96-2.681-9.698-1.939-1.252.253-3.003.774-5.203 1.552l-.14 2.466a.097.097 0 01-.089.093c-.13.013-13.137 1.297-26.199 1.867-17.582.766-26.886-.073-27.658-2.493-1.737-5.449-.22-23.624-.08-25.237l-19.196.997v.002z"/><path fill="#fff" d="M253.271 66.501c-5.121 1.512-9.009 2.15-9.009 2.15s1.718 4.087-.703 8.252c0 0 2.393 2.506-2.657 4.563s-7.813.079-7.813.079-13.095 27.898-19.512 36.824c-6.415 8.924-11.392 14.436-20.164 14.633-3.892.089-8.765-1.723-12.979-3.765-3.451-1.674-6.462-3.5-8.137-4.568l11.804-21.182 1.146.77 7.4 4.973s30.167-36.206 33.545-38.67c3.38-2.462 8.27-5.952 17.355-6.383 9.088-.43 14.163-.742 14.163-.742s.682 1.554-4.439 3.066z"/><path fill="#22313B" d="M193.133 133.103c-3.279 0-7.565-1.269-12.743-3.779-3.547-1.721-6.625-3.605-8.146-4.574l-.078-.049 11.899-21.356 8.562 5.753c1.873-2.247 30.197-36.204 33.506-38.619 3.261-2.375 8.189-5.964 17.408-6.4 8.984-.427 14.112-.739 14.161-.743l.069-.004.028.064c.006.011.118.28-.073.69-.295.636-1.302 1.588-4.429 2.51-4.576 1.35-8.209 2.012-8.903 2.132.252.695 1.426 4.413-.717 8.164.17.203.702.928.501 1.867-.229 1.074-1.32 2.016-3.24 2.798-2.632 1.072-4.637 1.036-5.856.817-1.061-.191-1.717-.54-1.953-.685-.879 1.862-13.32 28.179-19.473 36.737-3.281 4.563-6.104 8.115-9.216 10.608-3.344 2.679-6.848 3.972-11.025 4.065-.093.002-.187.004-.282.004zm-20.704-8.468c1.543.982 4.57 2.826 8.048 4.514 5.3 2.566 9.651 3.828 12.934 3.755 9.056-.204 14.037-6.178 20.087-14.592 6.338-8.817 19.373-36.53 19.503-36.808l.049-.107.096.07c.028.019 2.785 1.918 7.719-.092 1.855-.756 2.907-1.648 3.122-2.655.21-.987-.493-1.742-.499-1.75l-.051-.053.037-.065c2.368-4.073.715-8.124.698-8.163l-.05-.115.125-.02c.039-.006 3.941-.653 8.996-2.148 3.057-.902 4.03-1.806 4.308-2.404.1-.22.098-.381.086-.464-.687.041-5.711.341-14.084.738-9.16.434-14.06 4.002-17.302 6.365-3.329 2.428-33.226 38.291-33.527 38.654l-.058.069-8.53-5.733-11.707 21.006v-.002z"/><g opacity=".41"><path fill="#CFD7DF" d="M240.574 51.005h65.032v54.909c0 .752-.609 1.362-1.359 1.362h-62.314a1.36 1.36 0 01-1.359-1.362V51.005z" opacity=".41"/><path fill="#22313B" d="M304.246 107.321h-62.314a1.409 1.409 0 01-1.406-1.41V50.958h65.125v54.955c0 .778-.63 1.41-1.406 1.41l.001-.002zm-63.625-56.269v54.861c0 .725.589 1.315 1.311 1.315h62.314c.723 0 1.312-.59 1.312-1.315v-54.86h-64.939.002z" opacity=".41"/></g><path fill="#262F3A" d="M243.961 44.385h58.257a3.394 3.394 0 013.388 3.396v3.226h-65.032v-3.226a3.394 3.394 0 013.387-3.396z"/><path fill="#ECAD58" d="M296.354 58.345h-27.666a.653.653 0 000 1.307h27.666a.652.652 0 00.652-.653.652.652 0 00-.652-.654z"/><path fill="#EDF1F4" d="M290.245 64.93h-21.557a.653.653 0 000 1.306h21.557a.653.653 0 000-1.306zM284.315 61.636h-15.627a.653.653 0 000 1.307h15.627a.653.653 0 000-1.306zM262.92 72.092h-12.229a1.52 1.52 0 00-1.518 1.523v11.052c0 .84.68 1.522 1.518 1.522h12.229a1.52 1.52 0 001.519-1.522V73.614c0-.841-.68-1.523-1.519-1.523z"/><path fill="#92A2B1" d="M262.92 86.261h-12.229a1.595 1.595 0 01-1.592-1.595V73.614c0-.88.715-1.595 1.592-1.595h12.229c.878 0 1.591.717 1.591 1.595v11.052c0 .88-.715 1.596-1.591 1.596zm-12.229-14.096c-.796 0-1.444.65-1.444 1.447v11.052c0 .798.648 1.448 1.444 1.448h12.229c.795 0 1.443-.65 1.443-1.448V73.612c0-.797-.648-1.447-1.443-1.447h-12.229z"/><path fill="#fff" d="M252.365 85.075c0-1.562.832-3.007 2.181-3.787a4.346 4.346 0 014.36 0 4.374 4.374 0 012.18 3.787"/><path fill="#92A2B1" d="M261.135 85.075h-.098c0-1.54-.825-2.975-2.155-3.743a4.312 4.312 0 00-4.311 0 4.335 4.335 0 00-2.155 3.743h-.098c0-1.575.845-3.042 2.204-3.83a4.408 4.408 0 014.409 0 4.433 4.433 0 012.204 3.83z"/><path fill="#fff" d="M256.531 79.514a2.42 2.42 0 002.417-2.423 2.42 2.42 0 00-2.417-2.422 2.418 2.418 0 00-2.415 2.422 2.419 2.419 0 002.415 2.423z"/><path fill="#92A2B1" d="M256.531 79.563a2.47 2.47 0 01-2.464-2.472 2.47 2.47 0 012.464-2.472 2.472 2.472 0 010 4.944zm0-4.845a2.372 2.372 0 00-2.366 2.373 2.372 2.372 0 002.366 2.373 2.374 2.374 0 000-4.746z"/><path fill="#ECAD58" d="M296.355 75.194h-27.666a.652.652 0 00-.652.653c0 .361.291.654.652.654h27.666c.36 0 .651-.293.651-.654a.652.652 0 00-.651-.653z"/><path fill="#EDF1F4" d="M290.245 81.78h-21.556a.652.652 0 00-.652.653c0 .361.291.654.652.654h21.556a.653.653 0 000-1.307zM284.315 78.487h-15.626a.652.652 0 00-.652.653c0 .361.291.654.652.654h15.626a.653.653 0 000-1.307zM262.92 88.94h-12.229a1.52 1.52 0 00-1.518 1.523v11.052c0 .841.68 1.522 1.518 1.522h12.229a1.52 1.52 0 001.519-1.522V90.463c0-.84-.68-1.522-1.519-1.522z"/><path fill="#92A2B1" d="M262.92 103.112h-12.229a1.596 1.596 0 01-1.592-1.595V90.465c0-.88.715-1.596 1.592-1.596h12.229c.878 0 1.591.717 1.591 1.596v11.052c0 .88-.715 1.595-1.591 1.595zm-12.229-14.096c-.796 0-1.444.65-1.444 1.447v11.052c0 .797.648 1.447 1.444 1.447h12.229c.795 0 1.443-.65 1.443-1.447V90.463c0-.798-.648-1.447-1.443-1.447h-12.229z"/><path fill="#fff" d="M252.365 101.923c0-1.561.832-3.006 2.181-3.786a4.346 4.346 0 014.36 0 4.374 4.374 0 012.18 3.786"/><path fill="#92A2B1" d="M261.135 101.923h-.098c0-1.54-.825-2.975-2.155-3.743a4.311 4.311 0 00-4.311 0 4.334 4.334 0 00-2.155 3.743h-.098c0-1.575.845-3.042 2.204-3.83a4.408 4.408 0 014.409 0 4.434 4.434 0 012.204 3.83z"/><path fill="#fff" d="M256.531 96.364a2.42 2.42 0 002.417-2.422 2.42 2.42 0 00-2.417-2.423 2.417 2.417 0 00-2.415 2.423 2.419 2.419 0 002.415 2.422z"/><path fill="#92A2B1" d="M256.531 96.413a2.471 2.471 0 01-2.464-2.472 2.47 2.47 0 012.464-2.471 2.472 2.472 0 010 4.943zm0-4.845a2.372 2.372 0 00-2.366 2.373 2.372 2.372 0 002.366 2.373 2.374 2.374 0 000-4.746z"/><path fill="#ECAD58" d="M296.355 92.044h-27.666a.652.652 0 00-.652.654c0 .36.291.653.652.653h27.666c.36 0 .651-.292.651-.653a.652.652 0 00-.651-.654z"/><path fill="#EDF1F4" d="M290.245 98.628h-21.556a.652.652 0 00-.652.654c0 .36.291.653.652.653h21.556a.653.653 0 000-1.307zM284.315 95.335h-15.626a.652.652 0 00-.652.654c0 .36.291.653.652.653h15.626a.653.653 0 000-1.307z"/><path fill="#fff" d="M263.865 54.347h-13.826c-.949 0-1.717.771-1.717 1.722v12.495c0 .95.768 1.722 1.717 1.722h13.826a1.72 1.72 0 001.718-1.722V56.07a1.72 1.72 0 00-1.718-1.722z"/><path fill="#87A1B3" d="M263.865 70.428h-13.828a1.861 1.861 0 01-1.857-1.862V56.07c0-1.027.833-1.862 1.857-1.862h13.828c1.024 0 1.857.835 1.857 1.862v12.497a1.861 1.861 0 01-1.857 1.862zM250.037 54.49a1.58 1.58 0 00-1.576 1.579v12.497c0 .87.707 1.58 1.576 1.58h13.828a1.58 1.58 0 001.576-1.58V56.07c0-.87-.707-1.58-1.576-1.58h-13.828z"/><path fill="#FFE8EE" d="M251.934 69.026c0-1.767.939-3.4 2.464-4.28a4.92 4.92 0 014.929 0 4.94 4.94 0 012.464 4.28"/><path fill="#FFC9D4" d="M261.935 69.026h-.284a4.812 4.812 0 00-2.393-4.158 4.794 4.794 0 00-4.79 0 4.816 4.816 0 00-2.394 4.158h-.284c0-1.812.971-3.498 2.535-4.404a5.07 5.07 0 015.071 0 5.1 5.1 0 012.535 4.404h.004z"/><path fill="#FFE8EE" d="M256.643 62.738a2.735 2.735 0 002.732-2.74 2.734 2.734 0 00-2.732-2.739 2.735 2.735 0 00-2.732 2.739 2.737 2.737 0 002.732 2.74z"/><path fill="#FFC9D4" d="M256.643 62.88a2.882 2.882 0 010-5.763 2.88 2.88 0 012.873 2.88 2.883 2.883 0 01-2.873 2.883zm0-5.478a2.598 2.598 0 000 5.194 2.597 2.597 0 002.59-2.598 2.595 2.595 0 00-2.59-2.596z"/><path fill="#fff" d="M264.61 58.845c1.613 0 2.92-1.311 2.92-2.928a2.924 2.924 0 00-2.92-2.928 2.924 2.924 0 00-2.921 2.928 2.924 2.924 0 002.921 2.928z"/><path fill="#00CBFF" d="M264.61 59.13a3.213 3.213 0 010-6.425 3.212 3.212 0 010 6.424zm0-5.857a2.643 2.643 0 000 5.287 2.644 2.644 0 000-5.287z"/><path fill="#fff" d="M266.089 55.003l-1.842 2.257-1.079-.96"/><path fill="#00CBFF" d="M264.281 57.668l-1.3-1.155.374-.424.861.764 1.652-2.03.439.36-2.026 2.485z"/><path fill="#CFD7DF" d="M71.402 75.77c10.837 0 19.619-8.807 19.619-19.671 0-10.865-8.782-19.674-19.619-19.674-10.836 0-19.618 8.807-19.618 19.674 0 10.866 8.784 19.671 19.618 19.671z"/><path fill="#fff" d="M71.404 71.666c8.574 0 15.526-6.97 15.526-15.567 0-8.598-6.95-15.567-15.526-15.567-8.575 0-15.526 6.969-15.526 15.567 0 8.598 6.95 15.567 15.526 15.567z"/><path fill="#92A2B1" d="M51.945 56.099h-.447c0-11.007 8.93-19.96 19.904-19.96v.448c-10.728 0-19.457 8.752-19.457 19.512zM71.398 76.055c-5.317 0-10.314-2.077-14.074-5.85l.317-.316c3.675 3.686 8.56 5.717 13.757 5.717a19.296 19.296 0 0013.758-5.717l.317.316c-3.758 3.77-8.757 5.85-14.075 5.85zM71.629 40.522h-.448v2.937h.448v-2.937z"/><path fill="#92A2B1" d="M71.629 68.728h-.448v2.938h.448v-2.938zM86.93 55.873H84v.449h2.93v-.449zM58.801 55.873h-2.93v.449h2.93v-.449zM80.47 64.875l-.316.317 2.074 2.08.317-.316-2.075-2.081zM60.581 44.933l-.316.316 2.074 2.08.316-.317-2.074-2.08zM62.338 64.876l-2.074 2.08.316.318 2.074-2.082-.316-.316zM82.226 44.93l-2.074 2.079.316.317 2.075-2.078-.317-.317zM71.544 57.03l-6.517-4.509.254-.369 6.288 4.351 8.885-4.941.217.393-9.127 5.076z"/><path fill="#22313B" d="M322.063 181.08H14.282a.098.098 0 01-.099-.099c0-.055.044-.099.099-.099h307.781c.055 0 .098.044.098.099a.098.098 0 01-.098.099z"/><path fill="#fff" d="M208.175 45.884c.167-.08.252-.119.419-.202V44.24c.012-.981-1.024-1.597-2.316-1.435h-.019c-7.437.894-14.427 1.59-21.941 1.595-1.268-.057-2.294.324-2.302 1.02v1.041c.163.062.244.091.407.148 1.787.648 2.446 1.75 1.456 2.703-.339.326-.845.604-1.456.825-.163.062-.244.093-.407.16v1.025c0 .695 1.016 1.08 2.282 1.027h.02c7.514.005 14.506.7 21.941 1.59 1.292.169 2.334-.438 2.337-1.417v-1.443c-.167-.087-.25-.13-.419-.215-1.832-.889-2.505-2.456-1.491-3.812.347-.464.865-.867 1.491-1.171l-.002.004z"/><path fill="#C2CCD3" d="M206.68 54.018c-.14 0-.284-.01-.432-.028-7.931-.952-14.696-1.585-21.934-1.593h-.018c-.926.041-1.702-.154-2.078-.515a.758.758 0 01-.252-.56v-1.055l.029-.012c.164-.065.245-.097.41-.16.63-.23 1.115-.502 1.44-.816.358-.343.504-.722.427-1.093-.124-.589-.803-1.147-1.865-1.53a18.37 18.37 0 01-.408-.148l-.029-.012v-1.074a.756.756 0 01.258-.555c.382-.361 1.164-.555 2.092-.511 7.243-.006 14.007-.642 21.932-1.594l.026.044-.006-.048c.774-.096 1.475.077 1.918.474.3.269.455.616.451 1.007v1.473l-.025.012c-.168.08-.252.122-.42.201-.624.302-1.134.703-1.473 1.157-.412.55-.553 1.155-.408 1.75.191.789.861 1.498 1.883 1.993.17.085.252.129.42.217l.025.014v1.473a1.3 1.3 0 01-.463.999c-.364.32-.896.492-1.496.492l-.004-.002zm-22.366-1.714c7.244.008 14.011.642 21.946 1.593.751.099 1.426-.063 1.855-.442.28-.247.43-.569.43-.93V51.11c-.152-.08-.235-.123-.394-.204-1.048-.507-1.733-1.238-1.932-2.055-.152-.622-.004-1.254.425-1.826.349-.466.871-.875 1.507-1.185.157-.075.242-.114.392-.187v-1.414a1.214 1.214 0 00-.42-.938c-.423-.379-1.097-.545-1.845-.45h-.02c-7.929.954-14.696 1.59-21.946 1.595-.906-.041-1.663.143-2.027.486a.668.668 0 00-.228.488v1.009c.143.053.224.082.376.136 1.093.395 1.794.979 1.926 1.599.087.405-.071.813-.453 1.18-.335.322-.829.605-1.471.836-.152.057-.233.089-.376.146v.993c0 .183.074.347.222.49.359.345 1.111.529 2.011.49h.022v.005z"/><path fill="#fff" d="M211.789 45.576c.166-.093.248-.14.414-.235v-1.627c.011-1.105-1.013-1.755-2.295-1.508l-.02.004c-7.421 1.299-14.489 1.852-21.98 2.144-1.284.051-2.324.59-2.331 1.246v.979l.413.112c1.812.502 2.48 1.694 1.475 2.624-.342.318-.854.575-1.475.745l-.413.122v.963c0 .654 1.03 1.195 2.312 1.25h.019c7.493.292 14.559.845 21.98 2.144 1.283.253 2.313-.385 2.317-1.486v-1.627c-.166-.103-.249-.152-.414-.251-1.814-1.035-2.482-2.748-1.477-4.266.343-.52.857-.98 1.477-1.333h-.002z"/><path fill="#8AA3B4" d="M210.434 54.642c-.18 0-.367-.018-.556-.056-6.527-1.143-13.304-1.804-21.974-2.142h-.02c-1.321-.059-2.357-.628-2.357-1.297v-.999l.033-.01c.166-.05.249-.073.414-.122.62-.172 1.123-.425 1.455-.735.373-.345.52-.736.426-1.127-.146-.602-.849-1.131-1.881-1.417l-.414-.113-.033-.01V45.6c.008-.67 1.052-1.24 2.377-1.293 8.67-.34 15.447-1 21.974-2.144l.018-.004c.717-.138 1.381-.004 1.824.367.35.295.533.705.53 1.187v1.654l-.024.014c-.166.095-.248.142-.414.235-.618.354-1.124.808-1.461 1.317-.42.634-.556 1.325-.394 2.002.203.85.861 1.633 1.855 2.2.168.098.25.15.416.252l.022.014v1.652c0 .48-.19.887-.54 1.177-.329.27-.776.413-1.276.413zm-22.526-2.293c8.674.34 15.455 1.001 21.988 2.145.689.136 1.329.013 1.755-.338a1.38 1.38 0 00.506-1.104v-1.6c-.152-.094-.234-.145-.392-.238-1.016-.58-1.692-1.382-1.899-2.258-.167-.703-.025-1.42.408-2.075.345-.522.861-.987 1.493-1.347.158-.089.24-.134.39-.22v-1.6c.004-.454-.167-.84-.496-1.115-.422-.354-1.058-.48-1.743-.348l-.022.004c-6.533 1.143-13.314 1.806-21.988 2.144-1.274.051-2.281.578-2.289 1.2v.942c.144.04.227.061.381.103 1.065.294 1.792.849 1.945 1.485.105.426-.053.846-.453 1.218-.344.32-.86.58-1.494.756l-.381.112v.928c0 .62.997 1.147 2.269 1.204l.018.048v-.048l.004.002z"/><path fill="#fff" d="M215.71 45.118c.164-.11.245-.166.408-.279v-1.897c.01-1.289-.997-2.012-2.263-1.672l-.02.006c-6.928 1.743-14.787 3.293-21.94 2.975-1.296-.027-2.35.575-2.358 1.254v1.013c.168.043.25.067.42.11 1.831.508 2.505 1.745 1.491 2.717-.347.331-.865.604-1.491.778l-.42.122v.997c0 .677 1.044 1.281 2.338 1.26h.02c7.153-.318 15.012 1.231 21.94 2.975 1.265.347 2.279-.361 2.283-1.647v-1.897a22.9 22.9 0 00-.408-.3c-1.621-1.088-2.473-3.153-1.455-4.952a4.8 4.8 0 011.455-1.563z"/><path fill="#22313B" d="M214.461 55.61c-.204 0-.417-.029-.638-.09-11.959-3.009-18.242-3.139-21.927-2.973h-.021c-.849.012-1.647-.239-2.078-.665-.199-.198-.305-.419-.305-.64v-1.033l.033-.01.418-.122c.618-.172 1.126-.436 1.471-.768.382-.367.53-.78.425-1.192-.155-.62-.864-1.161-1.896-1.447a37.146 37.146 0 00-.418-.111l-.035-.01v-1.05c.002-.223.112-.445.315-.642.439-.424 1.239-.681 2.089-.66 7.691.34 16.2-1.533 21.929-2.973l.02-.005c.648-.174 1.245-.083 1.684.258.415.324.642.841.638 1.46v1.92l-.02.014c-.163.114-.244.17-.407.28a4.758 4.758 0 00-1.442 1.548c-.8 1.414-.561 3.546 1.442 4.89.165.119.246.18.409.3l.02.014v1.921c0 .614-.232 1.128-.648 1.445a1.717 1.717 0 01-1.056.338l-.002.004zm-20.678-3.197c7.179 0 14.795 1.692 20.064 3.018.622.172 1.193.09 1.613-.23.394-.3.61-.788.61-1.37v-1.874c-.149-.113-.232-.172-.388-.285-.827-.554-1.443-1.348-1.735-2.233a3.368 3.368 0 01.266-2.78 4.85 4.85 0 011.469-1.579l.388-.264v-1.872c.004-.588-.208-1.08-.6-1.386-.416-.322-.985-.409-1.603-.24l-.018.005c-11.977 3.01-18.266 3.143-21.957 2.977-.823-.014-1.601.225-2.022.634-.185.18-.284.377-.286.575v.977c.146.037.229.061.384.103 1.066.294 1.798.86 1.964 1.514.112.448-.043.89-.453 1.283-.357.342-.879.614-1.511.79l-.384.112v.962c0 .195.097.395.278.572.415.409 1.186.652 2.013.64h.019a42.762 42.762 0 011.891-.042l-.002-.007z"/><path fill="#8AA3B4" d="M198.62 46.38c2.856-.228 5.708-.43 8.568-.593 1.573-.107 2.838.786 2.838 2.032v1.117c0 1.248-1.266 2.138-2.838 2.031-2.86-.163-5.712-.365-8.568-.592-1.585-.114-2.869-.817-2.869-1.633v-.73c0-.815 1.284-1.518 2.869-1.633zM48.82 120.961s.764-1.413 2.664-.932c1.9.482 5.997 1.825 8.904 8.115 2.921 6.321.35 10.633-2.526 11.496-2.289.687-7.745.134-9.882-6.91-2.152-7.1.84-11.769.84-11.769z"/><path fill="#7B8E9F" d="M57.355 137.784a.252.252 0 01-.232-.154l-6.704-15.664a.254.254 0 01.134-.334.253.253 0 01.333.135l6.704 15.664a.253.253 0 01-.235.353z"/><path fill="#7B8E9F" d="M52.505 126.404a.253.253 0 01-.242-.329l1.033-3.317a.256.256 0 01.317-.168.254.254 0 01.168.318l-1.034 3.317a.253.253 0 01-.242.177v.002zM53.792 129.99a.27.27 0 01-.078-.012l-5.28-1.728a.254.254 0 01.157-.483l5.28 1.727a.252.252 0 01.162.32.256.256 0 01-.24.176zM55.713 133.709a.253.253 0 01-.242-.332l1.859-5.928a.253.253 0 11.483.154l-1.86 5.928a.253.253 0 01-.242.178h.002zM56.43 135.818a.232.232 0 01-.073-.012l-5.915-1.795a.254.254 0 11.148-.487l5.914 1.794c.135.042.211.182.17.318a.254.254 0 01-.242.182h-.002z"/><path fill="#647A8E" d="M57.993 139.534l-.248.058 4.769 20.607.247-.058-4.768-20.607zM64.109 145.22l-.477 14.965.255.008.477-14.965-.255-.008z"/><path fill="#7690A3" d="M60.008 180.888a.375.375 0 01-.368-.304c-.083-.407-.165-.793-.242-1.165-.745-3.508-1.194-5.626.992-10.337 1.903-4.098-.07-7.188-1.008-8.327a.378.378 0 01-.051-.399.372.372 0 01.339-.217l6.954-.044a.39.39 0 01.343.213.376.376 0 01-.046.399c-.923 1.151-2.857 4.265-.904 8.34 2.246 4.683 1.824 6.807 1.123 10.325-.075.371-.152.76-.228 1.167a.38.38 0 01-.369.308l-6.53.041h-.005zm6.618-20.538l-6.955.043a.122.122 0 00-.11.071.12.12 0 00.016.129c.967 1.174 3.008 4.365 1.044 8.596-2.15 4.635-1.71 6.72-.975 10.177.079.371.161.758.244 1.167a.125.125 0 00.12.099l6.531-.042c.06 0 .109-.043.12-.101.077-.408.156-.797.229-1.168.69-3.465 1.107-5.558-1.103-10.166-2.017-4.205-.018-7.421.935-8.608.046-.055.022-.112.016-.128a.122.122 0 00-.11-.069h-.002z"/><path fill="#7690A3" d="M63.719 160.942h-2.907v.255h2.907v-.255zM65.797 179.648h-5.454v.255h5.454v-.255z"/><path fill="#576C7D" d="M56.851 139.818s-.626-6.776 3.256-12.298c0 0 .876 1.944 1.19 3.232 0 0-1.19 7.749-2.19 8.282 0 0-.751.533-2.254.784h-.002z"/><path fill="#647A8E" d="M67.445 124.841s1.468-.65 2.677.894c1.21 1.546 3.634 5.119 2.096 11.879-1.545 6.792-6.213 8.628-9.013 7.548-2.232-.859-6.21-4.642-3.602-11.524 2.627-6.938 7.842-8.797 7.842-8.797z"/><path fill="#B1BDC7" d="M64.24 143.752a.252.252 0 01-.246-.316l4.162-16.526a.253.253 0 11.49.124l-4.16 16.527a.255.255 0 01-.247.191h.002z"/><path fill="#B1BDC7" d="M67.34 131.727a.26.26 0 01-.216-.12.256.256 0 01.083-.35l2.952-1.822a.254.254 0 01.266.432l-2.952 1.822a.246.246 0 01-.132.038zM66.25 135.559a.253.253 0 01-.209-.111l-3.15-4.586a.254.254 0 11.418-.288l3.15 4.586a.255.255 0 01-.21.399zM65.507 138.978a.254.254 0 01-.146-.462l5.07-3.579a.253.253 0 01.353.061.255.255 0 01-.061.354l-5.07 3.579a.248.248 0 01-.146.047zM64.804 141.656a.258.258 0 01-.207-.107l-3.612-5.025a.254.254 0 11.412-.298l3.612 5.025a.254.254 0 01-.205.403v.002z"/><path fill="#DAE3E8" d="M73.653 90.395h-15.58c-.77 0-1.393.625-1.393 1.396v15.311c0 .771.623 1.396 1.392 1.396h15.581c.77 0 1.393-.625 1.393-1.396v-15.31c0-.772-.624-1.397-1.393-1.397z"/><path fill="#576C7D" d="M60.688 107.347c-.847 0-1.64-.332-2.24-.932a3.202 3.202 0 01-.927-2.253V92.275c0-.839.337-1.66.928-2.253a3.185 3.185 0 012.239-.931h12.181c.834 0 1.65.34 2.24.931.59.593.93 1.414.928 2.253v2.128a.077.077 0 11-.154 0v-2.128c0-.797-.321-1.58-.882-2.144a3.023 3.023 0 00-2.132-.886H60.689c-.794 0-1.57.323-2.131.886a3.054 3.054 0 00-.883 2.144v11.887c0 .798.322 1.58.883 2.144.57.573 1.325.887 2.13.887h12.184c.806 0 1.562-.314 2.132-.887a3.052 3.052 0 00.882-2.144v-2.811c0-.042.033-.077.077-.077.043 0 .076.033.076.077v2.811a3.21 3.21 0 01-.927 2.253 3.182 3.182 0 01-2.24.932H60.688z"/><path fill="#fff" d="M66.475 102.974a4.905 4.905 0 004.898-4.91 4.903 4.903 0 00-4.898-4.91 4.903 4.903 0 00-4.899 4.91 4.903 4.903 0 004.899 4.91z"/><path fill="#D72D30" d="M66.475 103.057c-2.746 0-4.98-2.239-4.98-4.991s2.234-4.991 4.98-4.991c2.745 0 4.978 2.239 4.978 4.99 0 2.753-2.233 4.992-4.978 4.992zm0-9.818c-2.655 0-4.816 2.165-4.816 4.827 0 2.661 2.16 4.827 4.816 4.827 2.654 0 4.815-2.166 4.815-4.827 0-2.662-2.16-4.827-4.816-4.827z"/><path fill="#FFD0D6" d="M70.646 98.464l-4.12-.588-.798-4.097c1.32.012 2.732.34 3.654 1.219.921.878 1.278 2.236 1.264 3.466z"/><path fill="#DAE3E8" d="M185.247 104.257l-4.813 24.98c-3.451-1.674-6.462-3.5-8.137-4.568l11.804-21.182 1.146.77z"/><path fill="#fff" d="M125.646 176.64v.618c0 2.005 1.62 3.63 3.621 3.63h32.153l.171-.606h-1.522c-2.196 0-3.937-1.621-4.26-3.644h-30.163v.002z"/><path fill="#22313B" d="M161.475 180.963h-32.208a3.706 3.706 0 01-3.697-3.706v-.691h30.3l.009.062a4.226 4.226 0 004.188 3.583h1.619l-.213.752h.002zm-35.759-4.25v.544a3.556 3.556 0 003.549 3.558h32.098l.13-.458h-1.426a4.373 4.373 0 01-4.322-3.644h-30.029z"/><path fill="#22313B" d="M155.809 176.64c.321 2.023 2.064 3.644 4.26 3.644h1.522l1.03-3.644h-6.812z"/><path fill="#22313B" d="M161.623 180.326h-1.554a4.34 4.34 0 01-4.3-3.68l-.008-.048h6.915l-1.053 3.728zm-5.765-3.645a4.258 4.258 0 004.211 3.564h1.491l1.006-3.564h-6.71.002z"/><path fill="#fff" d="M156.24 175.12c.321 2.023 2.064 3.644 4.26 3.644h67.349a4.316 4.316 0 004.213-3.406l9.782-45.155c.585-2.695-1.463-5.24-4.213-5.24h-67.344a4.313 4.313 0 00-4.213 3.404l-9.786 45.155a4.286 4.286 0 00-.046 1.596l-.002.002z"/><path fill="#22313B" d="M227.848 178.839H160.5a4.37 4.37 0 01-4.331-3.708 4.33 4.33 0 01.047-1.623l9.787-45.153a4.41 4.41 0 014.285-3.463h67.345c1.333 0 2.578.596 3.415 1.637a4.378 4.378 0 01.87 3.692l-9.782 45.155c-.437 2.006-2.24 3.463-4.286 3.463h-.002zm-57.561-53.799a4.263 4.263 0 00-4.142 3.346l-9.787 45.154a4.246 4.246 0 00-.045 1.568 4.226 4.226 0 004.187 3.583h67.348c1.978 0 3.719-1.408 4.142-3.347l9.783-45.155a4.246 4.246 0 00-.841-3.57 4.223 4.223 0 00-3.301-1.583h-67.344v.004z"/><path fill="#8AA3B4" d="M162.222 180.89h67.346a4.312 4.312 0 004.213-3.403l9.783-45.156c.583-2.693-1.464-5.239-4.213-5.239h-67.346a4.312 4.312 0 00-4.213 3.403l-9.783 45.156c-.583 2.693 1.463 5.239 4.213 5.239z"/><path fill="#22313B" d="M229.568 180.965h-67.347a4.36 4.36 0 01-3.413-1.636 4.379 4.379 0 01-.87-3.692l9.782-45.156c.436-2.006 2.238-3.463 4.284-3.463h67.346a4.36 4.36 0 013.413 1.637 4.375 4.375 0 01.871 3.692l-9.783 45.155c-.435 2.006-2.237 3.463-4.283 3.463zm-57.564-53.799a4.266 4.266 0 00-4.142 3.347l-9.783 45.155a4.237 4.237 0 00.843 3.568 4.217 4.217 0 003.299 1.581h67.347a4.266 4.266 0 004.142-3.346l9.782-45.156a4.23 4.23 0 00-.843-3.567 4.217 4.217 0 00-3.299-1.582h-67.346z"/><path fill="#fff" d="M206.624 145.418v13.094c0 .446.341.918.763 1.048 2.176.64 4.335 1.21 6.542 1.732v7.508a255.06 255.06 0 008.085-6.134c11.888 1.232 23.418.136 34.867-3.301.421-.135.762-.587.762-1.007v-12.333c0-.419-.341-.654-.762-.528-16.471 4.652-33.143 4.413-49.494-.631-.422-.139-.763.108-.763.552zm37.424 8.263a91.306 91.306 0 01-24.303-.223c-.973-.154-.975-1.967 0-1.811a91.306 91.306 0 0024.303.273c.978-.135.98 1.625 0 1.761zm3.706-1.769c0-.646.53-1.266 1.184-1.396a67.892 67.892 0 004.709-1.078c.646-.168 1.17.205 1.17.847v4.634c0 .639-.524 1.307-1.17 1.48a68.177 68.177 0 01-4.709 1.118c-.654.134-1.184-.287-1.184-.932v-4.673zm-33.064 3.015c9.688 1.964 19.26 2.341 29.072 1.141 1.359-.188 1.365 1.569 0 1.761-9.808 1.22-19.38.862-29.072-1.08-1.342-.292-1.346-2.117 0-1.822z"/><path fill="#647A8E" d="M213.794 169.066V161.4a125.339 125.339 0 01-6.447-1.71c-.482-.15-.858-.667-.858-1.178v-13.094c0-.258.098-.473.277-.604.179-.13.416-.16.662-.079 16.381 5.053 33.007 5.264 49.418.63.248-.075.494-.041.671.091a.68.68 0 01.262.565v12.333c0 .486-.376.983-.857 1.137-11.523 3.459-22.929 4.543-34.866 3.313a252.356 252.356 0 01-8.048 6.104l-.213.154-.001.004zm-7.036-23.646v13.094c0 .387.306.807.668.92 2.182.639 4.319 1.206 6.533 1.729l.104.024v7.35a257.363 257.363 0 007.869-5.976l.043-.034.055.006c11.922 1.236 23.312.156 34.814-3.297.36-.114.667-.517.667-.878v-12.333a.427.427 0 00-.153-.35c-.111-.083-.266-.099-.436-.049-16.463 4.649-33.141 4.436-49.573-.632-.163-.053-.313-.039-.421.039-.109.079-.168.216-.168.385l-.002.002zm25.697 13.258c-5.934 0-11.823-.597-17.795-1.795-.518-.112-.914-.454-1.059-.914-.113-.351-.052-.713.157-.944.213-.235.554-.316.955-.229 9.71 1.969 19.207 2.342 29.029 1.139.717-.098 1.103.3 1.164.741.075.545-.325 1.174-1.128 1.287a91.597 91.597 0 01-11.323.713v.002zm-18.047-3.647c-.191 0-.345.059-.449.176-.146.16-.183.42-.1.679.116.367.437.642.858.733 9.71 1.946 19.205 2.3 29.027 1.077.658-.092.953-.574.896-.983-.041-.298-.289-.588-.862-.511-9.854 1.206-19.377.831-29.118-1.143h-.002a1.141 1.141 0 00-.25-.03v.002zm34.286 2.648c-.26 0-.499-.081-.69-.239a1.078 1.078 0 01-.384-.855v-4.673c0-.713.568-1.384 1.292-1.528a68.1 68.1 0 004.702-1.076c.36-.095.713-.036.967.16.24.185.372.475.372.815v4.634c0 .701-.569 1.423-1.27 1.611a69.358 69.358 0 01-4.718 1.119c-.092.02-.183.028-.269.028l-.002.004zm5.254-8.144c-.086 0-.177.012-.269.035a68.09 68.09 0 01-4.717 1.08c-.593.117-1.076.683-1.076 1.262v4.673c0 .264.103.494.286.646.193.157.455.213.736.154a69.176 69.176 0 004.702-1.116c.591-.158 1.069-.764 1.069-1.35v-4.634c0-.255-.094-.468-.268-.602a.74.74 0 00-.463-.148zm-21.231 4.987c-4.313 0-8.619-.31-12.991-.93-.341-.053-.617-.292-.755-.654-.157-.412-.108-.896.121-1.18a.69.69 0 01.673-.245c8.158 1.175 16.095 1.266 24.265.272.453-.063.803.235.874.741.077.553-.222 1.202-.839 1.289h-.002a92.196 92.196 0 01-11.346.707zm-13.086-2.75a.398.398 0 00-.329.156c-.167.209-.201.592-.078.914.061.158.212.43.543.483a91.134 91.134 0 0024.263.224c.451-.064.666-.561.608-.986-.017-.134-.114-.57-.571-.509a91.29 91.29 0 01-24.339-.272.544.544 0 00-.097-.008v-.002z"/><path fill="#fff" d="M247.754 151.912v4.673c0 .645.53 1.066 1.184.932a68.177 68.177 0 004.709-1.118c.646-.174 1.17-.841 1.17-1.48v-4.634c0-.64-.524-1.015-1.17-.847a67.892 67.892 0 01-4.709 1.078c-.654.13-1.184.75-1.184 1.396z"/><path fill="#647A8E" d="M248.694 157.679c-.26 0-.499-.081-.69-.239a1.078 1.078 0 01-.384-.855v-4.673c0-.713.567-1.384 1.292-1.528a68.1 68.1 0 004.702-1.076c.36-.095.712-.036.967.16.24.185.372.475.372.815v4.634c0 .7-.569 1.423-1.271 1.611a69.19 69.19 0 01-4.717 1.119c-.092.02-.183.028-.269.028l-.002.004zm5.254-8.144c-.086 0-.177.012-.269.035a68.09 68.09 0 01-4.717 1.08c-.593.117-1.076.683-1.076 1.262v4.673a.82.82 0 00.286.645c.193.158.455.214.736.154a68.577 68.577 0 004.702-1.115c.59-.158 1.069-.764 1.069-1.35v-4.634c0-.255-.094-.468-.268-.602a.74.74 0 00-.463-.148z"/><path fill="#fff" d="M244.048 151.92a91.39 91.39 0 01-24.303-.273c-.974-.156-.972 1.659 0 1.811a91.304 91.304 0 0024.303.223c.98-.136.978-1.895 0-1.761z"/><path fill="#647A8E" d="M232.717 154.522c-4.313 0-8.619-.31-12.989-.93-.341-.053-.617-.292-.755-.653-.157-.413-.108-.897.121-1.181a.69.69 0 01.673-.245 91.013 91.013 0 0024.263.273c.455-.062.805.235.874.74.077.553-.222 1.202-.839 1.289a92.252 92.252 0 01-11.348.707zm-13.086-2.75a.398.398 0 00-.329.156c-.167.209-.201.592-.078.914.061.158.212.43.543.484a91.107 91.107 0 0024.265.223c.449-.064.666-.559.606-.986-.017-.134-.116-.57-.571-.509h-.002a91.26 91.26 0 01-24.335-.272.544.544 0 00-.097-.008l-.002-.002z"/><path fill="#fff" d="M214.688 156.749c9.692 1.945 19.264 2.3 29.072 1.08 1.365-.192 1.359-1.949 0-1.761-9.812 1.2-19.382.823-29.072-1.141-1.345-.294-1.342 1.53 0 1.822z"/><path fill="#647A8E" d="M232.455 158.676c-5.934 0-11.823-.596-17.795-1.795h-.002c-.516-.112-.912-.454-1.058-.914-.112-.351-.051-.713.158-.944.215-.235.553-.315.957-.227 9.71 1.969 19.205 2.34 29.027 1.14.717-.099 1.103.3 1.164.74.075.545-.325 1.175-1.128 1.287a91.597 91.597 0 01-11.323.713zm-17.74-2.059c9.712 1.946 19.207 2.3 29.027 1.078.658-.093.953-.577.896-.984-.041-.298-.289-.59-.862-.511-9.854 1.206-19.377.831-29.118-1.143-.311-.069-.553-.018-.703.146-.146.16-.183.421-.1.679.116.367.437.64.856.733l.004.002z"/><path fill="#EBEFF3" d="M214.688 156.749c9.692 1.944 19.264 2.3 29.072 1.08 1.365-.192 1.359-1.949 0-1.761-9.812 1.2-19.382.823-29.072-1.141-1.345-.295-1.342 1.53 0 1.822z"/><path fill="#ECAD58" d="M219.745 153.458a91.304 91.304 0 0024.303.223c.98-.137.978-1.896 0-1.761a91.39 91.39 0 01-24.303-.273c-.974-.156-.972 1.659 0 1.811z"/><path fill="#F5F7F9" d="M247.754 151.912v4.673c0 .646.53 1.066 1.184.932a68.177 68.177 0 004.709-1.118c.646-.173 1.17-.841 1.17-1.48v-4.634c0-.64-.524-1.015-1.17-.847a67.892 67.892 0 01-4.709 1.078c-.654.13-1.184.75-1.184 1.396z"/><path fill="#CFD7DF" d="M248.56 157.679l-.132-.032a1.035 1.035 0 01-.528-.306l-.091-.099.199-.183.091.099c.102.11.238.189.392.225l.132.031-.061.263-.002.002zm.329-.012l-.056-.265.132-.027.526-.111.132-.027.055.264-.132.028-.527.11-.132.028h.002zm1.055-.221l-.057-.265.132-.027.526-.115.132-.029.059.262-.132.03-.526.116-.132.028h-.002zm1.054-.235l-.061-.263.132-.031.522-.125.132-.031.063.262-.132.032c-.175.043-.351.085-.526.124l-.132.032h.002zm1.05-.253l-.065-.262.13-.034.522-.134.13-.034.067.261-.13.033-.522.135-.13.033-.002.002zm-4.388-.031l-.022-.133a1.172 1.172 0 01-.018-.207v-.49h.27v.49c0 .055.004.111.014.162l.022.132-.266.046zm5.434-.237l-.069-.261.589-.156a.666.666 0 00.055-.016l.128-.041.082.257-.128.041c-.021.008-.045.014-.067.02l-.588.158-.002-.002zm1.065-.371l-.165-.214.106-.083c.13-.102.244-.225.339-.363l.075-.112.222.152-.075.112c-.11.162-.242.304-.396.425l-.106.083zm-6.269-.492h-.27v-.81h.27v.81zm6.98-.413l-.26-.069.034-.13c.025-.099.039-.198.039-.292v-.344h.27v.344c0 .118-.016.241-.047.361l-.034.13h-.002zm-6.98-.665h-.27v-.809h.27v.809zm7.063-.44h-.27v-.81h.27v.81zm-7.063-.64h-.27v-.809h.27v.809zm7.063-.44h-.27v-.81h.27v.81zm-7.063-.64h-.27v-.675c0-.19.04-.377.118-.561l.054-.124.248.106-.053.125c-.065.15-.097.302-.097.454v.675zm7.063-.44h-.27v-.81h.27v.81zm-6.787-.999l-.195-.186.092-.098c.138-.145.296-.261.469-.348l.12-.059.12.243-.12.059a1.44 1.44 0 00-.394.292l-.092.099v-.002zm6.787-.081h-.27v-.81h.27v.81zm-5.952-.425l-.053-.264.132-.026c.185-.037.36-.071.527-.106l.132-.028.054.265-.132.027-.528.107-.132.025zm1.058-.213l-.056-.264.132-.028c.182-.037.355-.075.526-.112l.132-.028.057.264-.132.028c-.171.038-.346.075-.528.113l-.131.027zm1.055-.227l-.059-.262.132-.03c.173-.039.347-.079.524-.122l.132-.032.061.263-.132.031a65.19 65.19 0 01-.526.123l-.132.029zm3.553-.156l-.057-.122a.65.65 0 00-.309-.312l-.122-.059.118-.243.122.059a.916.916 0 01.435.44l.057.123-.244.116v-.002zm-2.501-.091l-.065-.262.13-.032.522-.13.13-.034.065.263-.13.034-.524.13-.13.031h.002zm1.046-.262l-.067-.261.471-.122c.068-.018.135-.03.202-.038l.134-.014.028.269-.134.014a1.452 1.452 0 00-.164.029l-.47.123z"/><path fill="#08C7FB" d="M104.101 160.863c23.333 6.78 56.9.98 56.9.98l1.999-9.222c-85.376 11.577-78.22-11.334-78.22-11.334 1.922-2.081 7.77-3.526 7.77-3.526l-.694-4.093c-3.088.643-5.117 1.877-6.367 2.942-1.225 1.04-9.04 16.22 18.614 24.255l-.002-.002z"/><path fill="#22313B" d="M131.973 164.202c-13.42 0-22.413-1.7-27.886-3.291-6.604-1.919-11.713-4.407-15.186-7.396-2.788-2.401-4.52-5.111-5.148-8.061-.993-4.655 1.081-8.359 1.702-8.884 1.152-.979 3.194-2.284 6.389-2.952a.048.048 0 01.057.04l.693 4.092a.05.05 0 01-.037.056c-.06.014-5.838 1.461-7.736 3.502-.055.194-.79 3.027 1.804 6.104 3.159 3.75 9.7 6.287 19.439 7.54 13.401 1.724 32.554.922 56.927-2.383a.053.053 0 01.044.016.045.045 0 01.012.044l-1.999 9.221a.05.05 0 01-.04.038c-.085.014-8.524 1.457-19.705 2.053-3.323.178-6.431.257-9.33.257v.004zm-40.159-30.475c-3.145.665-5.16 1.954-6.296 2.92-.53.45-2.651 4.173-1.668 8.789 1.782 8.365 12.004 12.981 20.264 15.382 6.649 1.933 18.496 4.025 37.181 3.03 10.825-.576 19.079-1.948 19.662-2.047l1.975-9.121c-24.351 3.299-43.493 4.096-56.89 2.373-9.763-1.258-16.323-3.806-19.496-7.575-2.708-3.216-1.826-6.176-1.816-6.205a.039.039 0 01.01-.018c1.822-1.973 7.204-3.39 7.748-3.528l-.675-3.998.001-.002z"/><path fill="#22313B" d="M84.778 141.286c1.922-2.08 8.047-3.52 8.047-3.52l.116-4.465c-3.088.643-6.204 2.246-7.454 3.308-.548 1.238-1.013 2.91-.71 4.677z"/><path fill="#22313B" d="M84.777 141.336s-.01 0-.013-.002a.047.047 0 01-.034-.04c-.315-1.844.213-3.577.713-4.706.004-.006.008-.012.014-.018 1.349-1.147 4.514-2.701 7.476-3.321.014-.004.03 0 .041.01a.05.05 0 01.018.039l-.116 4.466a.05.05 0 01-.037.048c-.061.013-6.133 1.461-8.024 3.506a.05.05 0 01-.036.016l-.002.002zm.749-4.697c-.485 1.098-.993 2.764-.717 4.543 1.9-1.945 7.459-3.331 7.967-3.455l.114-4.367c-2.923.622-6.029 2.148-7.364 3.279z"/><g filter="url(#filter0_d_390_19163)"><path fill="#000" fill-opacity=".3" fill-rule="evenodd" d="M168.256 115.744c8.998 0 16.293-7.305 16.293-16.318 0-9.012-7.295-16.317-16.293-16.317-8.999 0-16.293 7.305-16.293 16.317 0 9.013 7.294 16.318 16.293 16.318z" clip-rule="evenodd"/></g><path fill="#fff" fill-rule="evenodd" d="M175.107 98.778a.725.725 0 010 1.297l-10.69 5.353a.725.725 0 01-1.049-.649V94.073c0-.539.567-.89 1.049-.648l10.69 5.353z" clip-rule="evenodd"/></g><rect width="340.099" height="197.565" x=".5" y=".5" stroke="#CFD7DF" rx="3.5"/><defs><clipPath id="clip0_390_19163"><path fill="#fff" d="M0 0h307.978v167.904H0z" transform="translate(14.183 13.188)"/></clipPath><filter id="filter0_d_390_19163" width="34.036" height="34.086" x="150.513" y="81.658" color-interpolation-filters="sRGB" filterUnits="userSpaceOnUse"><feFlood flood-opacity="0" result="BackgroundImageFix"/><feColorMatrix in="SourceAlpha" result="hardAlpha" values="0 0 0 0 0 0 0 0 0 0 0 0 0 0 0 0 0 0 127 0"/><feOffset dx="-.725" dy="-.725"/><feGaussianBlur stdDeviation=".363"/><feColorMatrix values="0 0 0 0 0 0 0 0 0 0 0 0 0 0 0 0 0 0 0.162014 0"/><feBlend in2="BackgroundImageFix" result="effect1_dropShadow_390_19163"/><feBlend in="SourceGraphic" in2="effect1_dropShadow_390_19163" result="shape"/></filter></defs></svg>