<svg width="112" height="112" viewBox="0 0 112 112" fill="none" xmlns="http://www.w3.org/2000/svg">
<circle cx="56" cy="56" r="56" fill="white"/>
<g clip-path="url(#clip0_1449_104725)">
<path d="M63.02 63.4584C67.8435 58.5618 67.8435 50.6323 63.02 45.6993C58.1965 40.8027 50.3402 40.8027 45.4802 45.6993L32.6176 58.7445C27.7941 63.6411 27.7941 71.5705 32.6176 76.5036C37.4411 81.4002 45.2974 81.4002 50.1574 76.5036L63.02 63.4584Z" fill="#459FFC"/>
<path d="M76.5403 76.467C81.3637 71.5705 81.3637 63.641 76.5403 58.7079L63.6777 45.6626C58.8543 40.7661 50.9979 40.7661 46.1379 45.6626C45.407 46.3935 44.8224 47.1608 44.3108 48.0013C41.3875 52.8247 42.0087 59.2195 46.1379 63.3852L59.0004 76.4305C63.8239 81.327 71.6803 81.327 76.5403 76.4305V76.467Z" fill="#459FFC"/>
<path d="M66.601 54.4693C66.601 51.6556 65.6509 48.7323 63.7508 46.3937C63.5681 46.1379 63.3123 45.8821 63.093 45.6263C60.7544 43.2146 57.6849 42.0087 54.6154 41.9722C51.546 41.9722 48.4765 43.2146 46.1379 45.6263C45.9186 45.8456 45.6628 46.1013 45.4801 46.3937C43.5434 48.7323 42.6299 51.6556 42.6299 54.4693C42.6299 57.6484 43.7992 60.864 46.1379 63.2758L54.6154 72.0092L63.093 63.2758C65.4317 60.864 66.601 57.6484 66.601 54.4693Z" fill="#12344D"/>
<path d="M38.9761 39.2316C41.7898 39.2316 44.0919 36.9295 44.0919 34.1158C44.0919 31.3021 41.7898 29 38.9761 29C36.1625 29 33.8604 31.3021 33.8604 34.1158C33.8604 36.9295 36.1625 39.2316 38.9761 39.2316Z" fill="#12344D"/>
<path d="M70.2554 39.2316C73.0691 39.2316 75.3712 36.9295 75.3712 34.1158C75.3712 31.3021 73.0691 29 70.2554 29C67.4418 29 65.1396 31.3021 65.1396 34.1158C65.1396 36.9295 67.4418 39.2316 70.2554 39.2316Z" fill="#12344D"/>
</g>
<defs>
<clipPath id="clip0_1449_104725">
<rect width="51.1579" height="51.1579" fill="white" transform="translate(29 29)"/>
</clipPath>
</defs>
</svg>
