<svg width="112" height="112" viewBox="0 0 22 22" fill="none" xmlns="http://www.w3.org/2000/svg">
<g clip-path="url(#clip0_85597_3270)">
<path d="M21.9195 10.9521C21.0025 10.8751 17.149 10.4496 14.106 7.17249C11.4668 4.33053 11.0515 1.08157 10.9622 0.0308483V0.0194083C10.9622 0.0141283 10.9613 0.00576828 10.9604 0.000488281C10.872 1.02129 10.4557 4.32173 7.76248 7.19581C4.73352 10.4285 0.93324 10.8689 0 10.9512H1.848L0.00044 10.9521C0.9614 11.0454 4.664 11.5162 7.66788 14.671V14.6718C10.4122 17.5534 10.8618 20.8785 10.96 21.9037C10.96 21.8984 10.9608 21.8914 10.9617 21.8856C11.0541 20.853 11.4836 17.5442 14.2014 14.6705V14.6718C17.2234 11.477 20.9836 11.0348 21.9204 10.9521H21.9195ZM15.5241 10.9582C15.4942 10.9613 15.253 10.9873 14.9952 11.0414C14.6564 11.1122 14.34 11.2222 14.2045 11.2737C13.8525 11.4075 13.0478 11.7621 12.3257 12.5198C11.2143 13.6867 11.007 15.0762 10.9564 15.5668C10.9155 15.1356 10.7285 13.7342 9.57352 12.5194C8.30896 11.1892 6.7474 10.9917 6.3448 10.9534C6.73728 10.9191 8.33712 10.7338 9.614 9.37161C10.74 8.16953 10.9168 6.78749 10.9564 6.34705C10.9934 6.77913 11.1659 8.15721 12.2852 9.36149C13.5674 10.7413 15.1888 10.9208 15.5764 10.9534C15.5641 10.9547 15.5456 10.9565 15.5232 10.9587L15.5241 10.9582Z" fill="url(#paint0_radial_85597_3270)"/>
</g>
<defs>
<radialGradient id="paint0_radial_85597_3270" cx="0" cy="0" r="1" gradientUnits="userSpaceOnUse" gradientTransform="translate(4.19517 3.49664) rotate(-180) scale(22.6582 22.6402)">
<stop offset="0.34" stop-color="#9B43E0"/>
<stop offset="1" stop-color="#2950FF"/>
</radialGradient>
<clipPath id="clip0_85597_3270">
<rect width="22" height="22" fill="white"/>
</clipPath>
</defs>
</svg>
