<svg width="130" height="86" viewBox="0 0 130 86" fill="none" xmlns="http://www.w3.org/2000/svg">
<path d="M3.39742 12.7187C3.39742 8.91224 6.718 5.82721 10.8143 5.82721H119.052C123.148 5.82721 126.469 8.91224 126.469 12.7187V73.8792C126.469 77.6857 123.148 80.7707 119.052 80.7707H10.8107C6.71437 80.7707 3.3938 77.6857 3.3938 73.8792V12.7187H3.39742Z" fill="white" stroke="#273139" stroke-miterlimit="10"/>
<path d="M42.7628 16.3983H16.4846C14.5806 16.3983 13.0371 17.9418 13.0371 19.8459V66.7522C13.0371 68.6562 14.5806 70.1997 16.4846 70.1997H42.7628C44.6668 70.1997 46.2103 68.6562 46.2103 66.7522V19.8459C46.2103 17.9418 44.6668 16.3983 42.7628 16.3983Z" fill="#EBEFF3"/>
<path d="M42.7628 16.3983H16.4846C14.5806 16.3983 13.0371 17.9418 13.0371 19.8459V66.7522C13.0371 68.6562 14.5806 70.1997 16.4846 70.1997H42.7628C44.6668 70.1997 46.2103 68.6562 46.2103 66.7522V19.8459C46.2103 17.9418 44.6668 16.3983 42.7628 16.3983Z" stroke="#273139" stroke-miterlimit="10" stroke-linecap="round"/>
<path d="M114.611 16.3983H57.1357C55.2317 16.3983 53.6882 17.9418 53.6882 19.8459V35.329C53.6882 37.2331 55.2317 38.7766 57.1357 38.7766H114.611C116.515 38.7766 118.059 37.2331 118.059 35.329V19.8459C118.059 17.9418 116.515 16.3983 114.611 16.3983Z" fill="white" stroke="#273139" stroke-miterlimit="10"/>
<path d="M78.7339 47.8179H57.1357C55.2317 47.8179 53.6882 49.3614 53.6882 51.2654V66.7486C53.6882 68.6526 55.2317 70.1962 57.1357 70.1962H78.7339C80.6379 70.1962 82.1814 68.6526 82.1814 66.7486V51.2654C82.1814 49.3614 80.6379 47.8179 78.7339 47.8179Z" fill="#EBEFF3" stroke="#273139" stroke-miterlimit="10" stroke-linecap="round"/>
<path d="M114.617 47.8179H93.0183C91.1143 47.8179 89.5708 49.3614 89.5708 51.2654V66.5166C89.5708 68.4206 91.1143 69.9641 93.0183 69.9641H114.617C116.52 69.9641 118.064 68.4206 118.064 66.5166V51.2654C118.064 49.3614 116.52 47.8179 114.617 47.8179Z" fill="white" stroke="#273139" stroke-miterlimit="10"/>
<path d="M37.3826 16.5291L8.48361 19.5717C6.835 19.7453 5.63924 21.2225 5.81281 22.8711L10.851 70.7274C11.0246 72.3761 12.5017 73.5719 14.1503 73.3983L43.0493 70.3557C44.6979 70.1821 45.8937 68.7049 45.7201 67.0563L40.6819 19.2C40.5083 17.5513 39.0312 16.3555 37.3826 16.5291Z" fill="#2E81ED"/>
<path d="M13.3677 29.4929L33.9255 27.325" stroke="white" stroke-width="0.902297" stroke-miterlimit="10" stroke-linecap="round"/>
<path d="M31.618 33.564L16.9198 35.1115C15.301 35.2819 14.1269 36.7323 14.2973 38.3511C14.4678 39.9699 15.9182 41.144 17.5369 40.9736L32.2351 39.4261C33.8539 39.2557 35.028 37.8053 34.8576 36.1865C34.6871 34.5677 33.2367 33.3935 31.618 33.564Z" fill="white"/>
<path d="M15.4666 49.4022L36.028 47.2379" stroke="white" stroke-width="0.902297" stroke-miterlimit="10" stroke-linecap="round"/>
<path d="M33.7169 53.4772L19.0186 55.0247C17.3999 55.1952 16.2258 56.6456 16.3962 58.2644C16.5666 59.8832 18.0171 61.0573 19.6358 60.8869L34.334 59.3394C35.9528 59.169 37.1269 57.7185 36.9564 56.0997C36.786 54.4809 35.3356 53.3068 33.7169 53.4772Z" fill="white"/>
<path d="M75.6179 22.4709H111.187" stroke="#273139" stroke-miterlimit="10" stroke-linecap="round"/>
<path d="M75.6179 27.5902H102.407" stroke="#273139" stroke-miterlimit="10" stroke-linecap="round"/>
<path d="M75.6179 32.708H95.2187" stroke="#273139" stroke-miterlimit="10" stroke-linecap="round"/>
<path d="M65.6853 32.7084C68.5122 32.7084 70.8039 30.4167 70.8039 27.5897C70.8039 24.7626 68.5122 22.4709 65.6853 22.4709C62.8583 22.4709 60.5667 24.7626 60.5667 27.5897C60.5667 30.4167 62.8583 32.7084 65.6853 32.7084Z" fill="#E98D3C"/>
<path d="M50.1762 2.39444L48.1099 2.38356L48.1135 2.27118L50.1762 2.39444Z" fill="#27313A"/>
<path d="M46.3847 2.36552L44.3184 2.34014L44.3256 2.0755L46.3919 2.18426L46.3847 2.36552Z" fill="#27313A"/>
<path d="M42.5944 2.32194L40.5281 2.28569L40.5426 1.89417L42.6052 1.98479L42.5944 2.32194Z" fill="#27313A"/>
<path d="M38.8065 2.25301L36.7402 2.21313L36.7547 1.72736L38.821 1.81799L38.8065 2.25301Z" fill="#27313A"/>
<path d="M35.0145 2.18082L32.9482 2.14094L32.9664 1.56091L35.0327 1.65154L35.0145 2.18082Z" fill="#27313A"/>
<path d="M31.2279 2.09379L29.1616 2.03941L29.1797 1.42676L31.246 1.49926L31.2279 2.09379Z" fill="#27313A"/>
<path d="M27.4415 1.99147L25.3752 1.93347L25.3934 1.29181L27.4597 1.36431L27.4415 1.99147Z" fill="#27313A"/>
<path d="M23.6427 1.88613L21.5764 1.82813L21.5982 1.15747L23.6645 1.22997L23.6427 1.88613Z" fill="#27313A"/>
<path d="M19.8554 1.78113L17.7891 1.70862L17.8108 1.03796L19.8771 1.09597L19.8554 1.78113Z" fill="#27313A"/>
<path d="M16.0685 1.64757L14.0022 1.57507L14.0239 0.933411L16.0902 0.991414L16.0685 1.64757Z" fill="#27313A"/>
<path d="M12.2819 1.51375L10.2156 1.44125L10.2337 0.832214L12.3036 0.886593L12.2819 1.51375Z" fill="#27313A"/>
<path d="M8.51656 1.40813C7.84954 1.43713 7.18978 1.54951 6.54814 1.73077L6.38501 1.17974C7.06653 0.969482 7.77342 0.849851 8.48756 0.813599L8.51656 1.40813Z" fill="#27313A"/>
<path d="M4.99635 2.33596C4.40184 2.64047 3.83995 3.01387 3.32881 3.44889L3.01343 3.09C3.53906 2.6151 4.1227 2.20545 4.74984 1.86469L4.99635 2.33596Z" fill="#27313A"/>
<path d="M2.16459 4.65929C1.7477 5.18857 1.39245 5.76497 1.10969 6.37763L0.758057 6.22175C1.03719 5.57647 1.39245 4.96018 1.81658 4.39465L2.16096 4.65929H2.16459Z" fill="#27313A"/>
<path d="M0.560904 7.9699C0.481153 8.2998 0.419526 8.63331 0.376025 8.96683C0.332524 9.30397 0.318024 9.64112 0.299899 9.98913L0.0461426 9.98188C0.0461426 9.64111 0.0497678 9.28947 0.0823935 8.93783C0.111394 8.58981 0.162145 8.24179 0.231022 7.8974L0.560904 7.9699Z" fill="#27313A"/>
<path d="M0.20956 11.7074L0.100807 13.7737L0.00292969 13.7701L0.0246807 11.7037L0.20956 11.7074Z" fill="#27313A"/>
<path d="M129.818 72.0273C129.843 72.7161 129.876 73.4049 129.89 74.0936H129.745C129.763 73.4049 129.792 72.7161 129.818 72.0273Z" fill="#27313A"/>
<path d="M129.942 75.8154L130 77.8853H129.641L129.699 75.8154H129.942Z" fill="#27313A"/>
<path d="M129.942 79.6398C129.837 80.3467 129.612 81.0355 129.275 81.6699L128.833 81.427C129.159 80.8506 129.387 80.2199 129.518 79.5673L129.942 79.6398Z" fill="#27313A"/>
<path d="M128.235 83.1271C127.742 83.6528 127.158 84.0915 126.516 84.425L126.241 83.8884C126.828 83.5948 127.364 83.2033 127.836 82.7393L128.235 83.1271Z" fill="#27313A"/>
<path d="M124.818 85.0305C124.462 85.103 124.104 85.1501 123.741 85.1646C123.375 85.1755 123.045 85.1719 122.697 85.1755V84.5121H123.719C124.046 84.5048 124.372 84.4722 124.694 84.4106L124.818 85.0341V85.0305Z" fill="#27313A"/>
<path d="M120.977 85.1792L118.907 85.1864V84.4976L120.977 84.5049V85.1792Z" fill="#27313A"/>
<path d="M117.186 85.1831L115.119 85.1758V84.5088L117.186 84.5015V85.1831Z" fill="#27313A"/>
<path d="M113.391 85.1718L111.325 85.1501V84.5338L113.391 84.5157V85.1718Z" fill="#27313A"/>
<path d="M109.603 85.1362L107.533 85.1072V84.5779L109.603 84.5489V85.1362Z" fill="#27313A"/>
<path d="M105.812 85.0811L103.746 85.0376V84.646L105.812 84.6025V85.0811Z" fill="#27313A"/>
<path d="M102.021 84.998L99.9548 84.9364V84.7478L102.021 84.6862V84.998Z" fill="#27313A"/>
<path d="M98.2318 84.8856L97.1443 84.8421L98.2318 84.7986V84.8856Z" fill="#27313A"/>
</svg>
