<svg width="122" height="72" viewBox="0 0 122 72" fill="none" xmlns="http://www.w3.org/2000/svg">
<rect x="1.00024" y="1.01172" width="107.298" height="70.3085" rx="1.95264" fill="white" stroke="#535665" stroke-width="0.77"/>
<path d="M2.9528 1.00004H106.342C107.413 1.00004 108.282 1.86849 108.282 2.93977V10.0521H1.00017V2.96563C0.993212 2.44447 1.19628 1.94243 1.56361 1.57267C1.93093 1.2029 2.43161 0.996523 2.9528 1.00004Z" fill="#535665" stroke="#535665" stroke-width="0.323285"/>
<path d="M4.50029 6.55065C4.99664 6.55065 5.39902 6.14827 5.39902 5.65191C5.39902 5.15555 4.99664 4.75317 4.50029 4.75317C4.00394 4.75317 3.60156 5.15555 3.60156 5.65191C3.60156 6.14827 4.00394 6.55065 4.50029 6.55065Z" fill="white"/>
<path d="M7.45903 6.55065C7.95538 6.55065 8.35776 6.14827 8.35776 5.65191C8.35776 5.15555 7.95538 4.75317 7.45903 4.75317C6.96268 4.75317 6.5603 5.15555 6.5603 5.65191C6.5603 6.14827 6.96268 6.55065 7.45903 6.55065Z" fill="white"/>
<path d="M10.4165 6.55065C10.9129 6.55065 11.3153 6.14827 11.3153 5.65191C11.3153 5.15555 10.9129 4.75317 10.4165 4.75317C9.9202 4.75317 9.51782 5.15555 9.51782 5.65191C9.51782 6.14827 9.9202 6.55065 10.4165 6.55065Z" fill="white"/>
<rect x="71.2175" y="14.5039" width="31.1192" height="52.3822" rx="3.87942" fill="#FEF1E1"/>
<rect x="71.2175" y="14.5039" width="31.1192" height="52.3822" rx="3.87942" stroke="#535665" stroke-width="0.77" stroke-linecap="round" stroke-linejoin="round" stroke-dasharray="3.82"/>
<rect x="22.3276" y="14.5037" width="42.974" height="52.3822" rx="1.93971" stroke="#EBEFF3" stroke-width="0.77"/>
<rect x="5.30298" y="14.5037" width="10.497" height="52.3822" rx="1.93971" stroke="#EBEFF3" stroke-width="0.77"/>
<path d="M22.3071 56.8965H65.5624" stroke="#EBEFF3" stroke-width="0.77"/>
<path d="M22.3071 46.6453H65.5624" stroke="#EBEFF3" stroke-width="0.77"/>
<path d="M22.3071 36.3904H65.5624" stroke="#EBEFF3" stroke-width="0.77"/>
<path d="M22.3071 26.1389H65.5624" stroke="#EBEFF3" stroke-width="0.77"/>
<path d="M5.05396 56.8965H15.8063" stroke="#EBEFF3" stroke-width="0.77"/>
<path d="M5.05396 46.645H15.8063" stroke="#EBEFF3" stroke-width="0.77"/>
<path d="M5.05396 36.3904H15.8063" stroke="#EBEFF3" stroke-width="0.77"/>
<path d="M5.05396 26.1389H15.8063" stroke="#EBEFF3" stroke-width="0.77"/>
<path d="M93.7694 14.9907L83.5439 58.5601L110.619 65.097L120.369 23.7001L93.7694 14.9907Z" fill="#FAC386"/>
<path d="M116.484 40.3242L110.632 65.0977C110.38 66.3262 108.99 67.1894 107.6 66.8629L85.484 61.6709C84.8137 61.517 84.2322 61.1024 83.8682 60.5188C83.5042 59.9352 83.3876 59.2306 83.5444 58.5609L90.9314 27.2893" fill="#FAC386"/>
<path d="M116.484 40.3242L110.632 65.0977C110.38 66.3262 108.99 67.1894 107.6 66.8629L85.484 61.6709C84.8137 61.517 84.2322 61.1024 83.8682 60.5188C83.5042 59.9352 83.3876 59.2306 83.5444 58.5609L90.9314 27.2893" stroke="#647A8E" stroke-width="0.77" stroke-linecap="round" stroke-linejoin="round"/>
<path d="M118.413 32.0356L116.875 38.6792L118.413 32.0356Z" fill="white"/>
<path d="M118.413 32.0356L116.875 38.6792" stroke="#535665" stroke-width="0.77" stroke-linecap="round" stroke-linejoin="round"/>
<path d="M91.9814 22.5398L93.7692 14.991C94.1001 13.6054 95.4891 12.7483 96.8759 13.0739L118.992 18.2692C119.663 18.423 120.245 18.8381 120.609 19.4224C120.973 20.0068 121.089 20.7122 120.931 21.3824L120.382 23.7004" fill="#FAC386"/>
<path d="M91.9814 22.5398L93.7692 14.991C94.1001 13.6054 95.4891 12.7483 96.8759 13.0739L118.992 18.2692C119.663 18.423 120.245 18.8381 120.609 19.4224C120.973 20.0068 121.089 20.7122 120.931 21.3824L120.382 23.7004" stroke="#535665" stroke-width="0.77" stroke-linecap="round" stroke-linejoin="round"/>
<path d="M108.266 63.895L86.1531 58.7031C85.6455 58.5834 85.4322 59.3496 85.9365 59.4822L108.046 64.6871C108.55 64.8067 108.767 64.0405 108.259 63.908L108.266 63.895Z" fill="#535665"/>
<path d="M88.4484 48.762L110.564 53.954C111.068 54.0736 111.285 53.3074 110.778 53.1748L88.665 47.9828C88.1574 47.8632 87.9408 48.6294 88.4484 48.762Z" fill="#535665"/>
<path d="M90.9603 38.0417L113.076 43.237C113.584 43.3534 113.797 42.5742 113.29 42.4578L91.1769 37.2626C90.6694 37.143 90.4528 37.9092 90.9603 38.0417Z" fill="#535665"/>
<path d="M95.9842 16.6015L118.1 21.7967C118.608 21.9163 118.824 21.1501 118.317 21.0176L96.1976 15.8224C95.6933 15.706 95.4767 16.4851 95.9842 16.6015Z" fill="#535665"/>
</svg>