<svg width="200" height="150" viewBox="0 0 200 150" fill="none" xmlns="http://www.w3.org/2000/svg">
<g clip-path="url(#clip0_1357_2495)">
<path d="M19.4256 35.3714C19.4256 30.3849 23.7756 26.3435 29.1418 26.3435H170.933C176.3 26.3435 180.65 30.3849 180.65 35.3714V115.492C180.65 120.478 176.3 124.52 170.933 124.52H29.1371C23.7709 124.52 19.4209 120.478 19.4209 115.492V35.3714H19.4256Z" fill="white" stroke="#273139" stroke-miterlimit="10"/>
<path d="M70.9944 40.1917H36.5699C34.0757 40.1917 32.0537 42.2137 32.0537 44.708V106.155C32.0537 108.65 34.0757 110.672 36.5699 110.672H70.9944C73.4886 110.672 75.5106 108.65 75.5106 106.155V44.708C75.5106 42.2137 73.4886 40.1917 70.9944 40.1917Z" fill="#EBEFF3"/>
<path d="M70.9944 40.1917H36.5699C34.0757 40.1917 32.0537 42.2137 32.0537 44.708V106.155C32.0537 108.65 34.0757 110.672 36.5699 110.672H70.9944C73.4886 110.672 75.5106 108.65 75.5106 106.155V44.708C75.5106 42.2137 73.4886 40.1917 70.9944 40.1917Z" stroke="#273139" stroke-miterlimit="10" stroke-linecap="round"/>
<path d="M165.116 40.1917H89.8228C87.3286 40.1917 85.3066 42.2137 85.3066 44.708V64.9909C85.3066 67.4852 87.3286 69.5072 89.8228 69.5072H165.116C167.61 69.5072 169.632 67.4852 169.632 64.9909V44.708C169.632 42.2137 167.61 40.1917 165.116 40.1917Z" fill="white" stroke="#273139" stroke-miterlimit="10"/>
<path d="M118.117 81.3513H89.8228C87.3286 81.3513 85.3066 83.3733 85.3066 85.8676V106.151C85.3066 108.645 87.3286 110.667 89.8228 110.667H118.117C120.611 110.667 122.633 108.645 122.633 106.151V85.8676C122.633 83.3733 120.611 81.3513 118.117 81.3513Z" fill="#EBEFF3" stroke="#273139" stroke-miterlimit="10" stroke-linecap="round"/>
<path d="M165.123 81.3513H136.829C134.335 81.3513 132.313 83.3733 132.313 85.8676V105.847C132.313 108.341 134.335 110.363 136.829 110.363H165.123C167.617 110.363 169.639 108.341 169.639 105.847V85.8676C169.639 83.3733 167.617 81.3513 165.123 81.3513Z" fill="white" stroke="#273139" stroke-miterlimit="10"/>
<path d="M63.9463 40.363L26.0887 44.3488C23.929 44.5762 22.3625 46.5113 22.5899 48.6711L29.19 111.363C29.4173 113.523 31.3524 115.089 33.5121 114.862L71.3698 110.876C73.5295 110.649 75.0959 108.713 74.8685 106.554L68.2685 43.8619C68.0411 41.7021 66.106 40.1356 63.9463 40.363Z" fill="#2E81ED"/>
<path d="M32.4868 57.3455L59.4176 54.5056" stroke="white" stroke-width="0.902297" stroke-miterlimit="10" stroke-linecap="round"/>
<path d="M56.3946 62.6787L37.1399 64.7059C35.0193 64.9291 33.4813 66.8292 33.7045 68.9498C33.9278 71.0704 35.8278 72.6086 37.9484 72.3853L57.2031 70.3581C59.3236 70.1348 60.8617 68.2347 60.6384 66.1141C60.4152 63.9935 58.5152 62.4554 56.3946 62.6787Z" fill="white"/>
<path d="M35.2363 83.4267L62.1719 80.5916" stroke="white" stroke-width="0.902297" stroke-miterlimit="10" stroke-linecap="round"/>
<path d="M59.1441 88.7651L39.8894 90.7923C37.7689 91.0155 36.2308 92.9156 36.454 95.0363C36.6773 97.1569 38.5773 98.695 40.6979 98.4717L59.9526 96.4445C62.0732 96.2213 63.6112 94.3212 63.388 92.2005C63.1647 90.0799 61.2647 88.5418 59.1441 88.7651Z" fill="white"/>
<path d="M114.035 48.1467H160.631" stroke="#273139" stroke-miterlimit="10" stroke-linecap="round"/>
<path d="M114.035 54.853H149.129" stroke="#273139" stroke-miterlimit="10" stroke-linecap="round"/>
<path d="M114.035 61.5574H139.712" stroke="#273139" stroke-miterlimit="10" stroke-linecap="round"/>
<path d="M101.023 61.5579C104.726 61.5579 107.728 58.5557 107.728 54.8523C107.728 51.1489 104.726 48.1467 101.023 48.1467C97.3195 48.1467 94.3174 51.1489 94.3174 54.8523C94.3174 58.5557 97.3195 61.5579 101.023 61.5579Z" fill="#E98D3C"/>
<path d="M80.7059 21.8465L77.999 21.8323L78.0038 21.6851L80.7059 21.8465Z" fill="#27313A"/>
<path d="M75.7391 21.8086L73.0322 21.7754L73.0417 21.4287L75.7486 21.5712L75.7391 21.8086Z" fill="#27313A"/>
<path d="M70.7737 21.7515L68.0669 21.7041L68.0859 21.1912L70.788 21.3099L70.7737 21.7515Z" fill="#27313A"/>
<path d="M65.8118 21.6613L63.105 21.609L63.124 20.9727L65.8308 21.0914L65.8118 21.6613Z" fill="#27313A"/>
<path d="M60.8441 21.5667L58.1372 21.5145L58.1609 20.7546L60.8678 20.8734L60.8441 21.5667Z" fill="#27313A"/>
<path d="M55.8836 21.4527L53.1768 21.3814L53.2005 20.5789L55.9074 20.6738L55.8836 21.4527Z" fill="#27313A"/>
<path d="M50.9236 21.3187L48.2168 21.2427L48.2405 20.4021L50.9474 20.4971L50.9236 21.3187Z" fill="#27313A"/>
<path d="M45.9471 21.1806L43.2402 21.1046L43.2687 20.2261L45.9756 20.3211L45.9471 21.1806Z" fill="#27313A"/>
<path d="M40.9857 21.0431L38.2788 20.9481L38.3073 20.0696L41.0142 20.1456L40.9857 21.0431Z" fill="#27313A"/>
<path d="M36.0247 20.8682L33.3179 20.7732L33.3464 19.9326L36.0532 20.0086L36.0247 20.8682Z" fill="#27313A"/>
<path d="M31.0643 20.6929L28.3574 20.5979L28.3812 19.8L31.0928 19.8713L31.0643 20.6929Z" fill="#27313A"/>
<path d="M26.1317 20.5545C25.2579 20.5925 24.3936 20.7397 23.5531 20.9771L23.3394 20.2553C24.2321 19.9798 25.1582 19.8231 26.0937 19.7756L26.1317 20.5545Z" fill="#27313A"/>
<path d="M21.5205 21.77C20.7417 22.1689 20.0056 22.658 19.336 23.2279L18.9229 22.7578C19.6114 22.1356 20.376 21.599 21.1976 21.1526L21.5205 21.77Z" fill="#27313A"/>
<path d="M17.8108 24.8135C17.2647 25.5068 16.7993 26.2619 16.4289 27.0645L15.9683 26.8603C16.3339 26.015 16.7993 25.2076 17.3549 24.4668L17.8061 24.8135H17.8108Z" fill="#27313A"/>
<path d="M15.71 29.1504C15.6055 29.5826 15.5248 30.0195 15.4678 30.4564C15.4108 30.898 15.3918 31.3397 15.3681 31.7956L15.0356 31.7861C15.0356 31.3397 15.0404 30.879 15.0831 30.4184C15.1211 29.9625 15.1876 29.5066 15.2778 29.0554L15.71 29.1504Z" fill="#27313A"/>
<path d="M15.2497 34.0465L15.1072 36.7534L14.979 36.7487L15.0075 34.0417L15.2497 34.0465Z" fill="#27313A"/>
<path d="M185.036 113.066C185.07 113.968 185.112 114.87 185.131 115.773H184.941C184.965 114.87 185.003 113.968 185.036 113.066Z" fill="#27313A"/>
<path d="M185.199 118.028L185.275 120.74H184.805L184.881 118.028H185.199Z" fill="#27313A"/>
<path d="M185.199 123.038C185.061 123.964 184.767 124.866 184.325 125.698L183.746 125.379C184.173 124.624 184.472 123.798 184.643 122.943L185.199 123.038Z" fill="#27313A"/>
<path d="M182.962 127.607C182.316 128.295 181.552 128.87 180.711 129.307L180.35 128.604C181.12 128.219 181.822 127.706 182.44 127.098L182.962 127.607Z" fill="#27313A"/>
<path d="M178.487 130.1C178.021 130.195 177.551 130.257 177.076 130.276C176.597 130.29 176.164 130.285 175.708 130.29V129.421H177.048C177.475 129.411 177.902 129.369 178.325 129.288L178.487 130.105V130.1Z" fill="#27313A"/>
<path d="M173.456 130.295L170.744 130.304V129.402L173.456 129.411V130.295Z" fill="#27313A"/>
<path d="M168.488 130.3L165.781 130.29V129.416L168.488 129.407V130.3Z" fill="#27313A"/>
<path d="M163.518 130.285L160.811 130.257V129.449L163.518 129.426V130.285Z" fill="#27313A"/>
<path d="M158.555 130.238L155.844 130.2V129.507L158.555 129.469V130.238Z" fill="#27313A"/>
<path d="M153.59 130.166L150.883 130.109V129.596L153.59 129.539V130.166Z" fill="#27313A"/>
<path d="M148.623 130.057L145.916 129.977V129.73L148.623 129.649V130.057Z" fill="#27313A"/>
<path d="M143.659 129.91L142.234 129.853L143.659 129.796V129.91Z" fill="#27313A"/>
</g>
<defs>
<clipPath id="clip0_1357_2495">
<rect width="200" height="150" fill="white"/>
</clipPath>
</defs>
</svg>
