<svg xmlns="http://www.w3.org/2000/svg" width="76" height="76" fill="none" viewBox="0 0 76 76"><g filter="url(#filter0_d_2141_17340)"><rect width="64" height="64" x="6" y="5" fill="#fff" rx="8"/><rect width="63" height="63" x="6.5" y="5.5" stroke="#EBEFF3" rx="7.5"/></g><path stroke="#5DBD77" stroke-linecap="round" stroke-linejoin="round" stroke-width="3.24" d="M20 37.553h8.32l4.817-9.108 5.697 9.108 6.016-4.254 4.497 4.254H56"/><path stroke="#4A5866" stroke-linecap="round" stroke-linejoin="round" stroke-width="3.24" d="M21.18 43.4a18.035 18.035 0 006.147 8.096A17.95 17.95 0 0037.991 55c7.44 0 13.811-4.516 16.547-10.944M21.106 30.769C23.636 23.89 30.25 19 37.99 19h13.493a4.499 4.499 0 014.497 4.498v7.27"/><defs><filter id="filter0_d_2141_17340" width="76" height="76" x="0" y="0" color-interpolation-filters="sRGB" filterUnits="userSpaceOnUse"><feFlood flood-opacity="0" result="BackgroundImageFix"/><feColorMatrix in="SourceAlpha" result="hardAlpha" values="0 0 0 0 0 0 0 0 0 0 0 0 0 0 0 0 0 0 127 0"/><feOffset dy="1"/><feGaussianBlur stdDeviation="3"/><feColorMatrix values="0 0 0 0 0.0863 0 0 0 0 0.1137 0 0 0 0 0.1451 0 0 0 0.05 0"/><feBlend in2="BackgroundImageFix" result="effect1_dropShadow_2141_17340"/><feBlend in="SourceGraphic" in2="effect1_dropShadow_2141_17340" result="shape"/></filter></defs></svg>