<svg width="64" height="64" viewBox="0 0 64 64" fill="none" xmlns="http://www.w3.org/2000/svg">
<g clip-path="url(#clip0_740_2)">
<path d="M31.9832 51.9827C30.4353 51.9827 28.8687 51.8073 27.3083 51.4501C20.114 49.8082 14.1794 43.8736 12.5376 36.6794C11.1401 30.5881 12.525 24.3465 16.3415 19.5524C20.1642 14.7583 25.8669 12.0073 31.9895 12.0073H45.394C49.0413 12.0073 52.0054 14.9714 52.0054 18.6187V32.0044C52.0054 38.1207 49.2544 43.8235 44.4666 47.6399C40.8945 50.485 36.5141 51.9827 31.9832 51.9827ZM31.9832 15.642C26.9761 15.642 22.3074 17.8917 19.1866 21.821C16.0657 25.7439 14.9315 30.8639 16.0783 35.871C17.4193 41.7366 22.2573 46.5746 28.1167 47.9094C33.1426 49.0625 38.2688 47.9282 42.1917 44.8011C46.1147 41.674 48.3645 37.0115 48.3645 32.0044V18.6187C48.3645 16.9768 47.0297 15.642 45.3878 15.642H31.9832Z" fill="#475867"/>
<path d="M41.1013 26.3205C42.9814 26.3205 44.5104 24.7977 44.5104 22.9114C44.5104 21.0251 42.9814 19.5023 41.1013 19.5023C39.2213 19.5023 37.6922 21.0251 37.6922 22.9114C37.6922 24.7977 39.2213 26.3205 41.1013 26.3205Z" fill="#25C16F"/>
<path d="M38.0432 33.8656C35.8498 33.8656 33.8194 33.0697 32.3592 31.6033C30.6672 29.9113 29.8839 27.5425 30.1534 24.9293C30.2536 23.9328 31.1498 23.2059 32.1462 23.3062C33.1426 23.4127 33.8695 24.3026 33.7693 25.299C33.6126 26.803 34.0262 28.1253 34.9286 29.0277C35.8498 29.9489 37.1846 30.3625 38.6824 30.187C39.6788 30.0742 40.5812 30.7887 40.694 31.7851C40.8068 32.7815 40.0924 33.6839 39.096 33.7967C38.7388 33.8406 38.3878 33.8594 38.0369 33.8594L38.0432 33.8656Z" fill="#25C16F"/>
<path d="M34.6466 42.7519H34.6341C30.9179 42.7268 27.5339 41.3669 25.0898 38.9229C22.6458 36.4789 21.3173 33.1951 21.2609 29.4413C21.2483 28.4386 22.0505 27.6114 23.0531 27.5989H23.0782C24.0684 27.5989 24.883 28.3948 24.8956 29.3912C24.9394 32.1799 25.892 34.5926 27.6592 36.3598C29.4201 38.1207 31.908 39.1046 34.6591 39.1234C35.6618 39.1297 36.4702 39.9506 36.464 40.9533C36.4577 41.956 35.643 42.7581 34.6466 42.7581V42.7519Z" fill="#25C16F"/>
</g>
<defs>
<clipPath id="clip0_740_2">
<rect width="64" height="64" fill="white"/>
</clipPath>
</defs>
</svg>
