<svg width="130" height="110" viewBox="0 0 130 110" fill="none" xmlns="http://www.w3.org/2000/svg">
<path d="M15.7383 96.3429C11.9339 96.3085 8.86401 93.1963 8.86401 89.3618V15.3679C8.86401 12.1395 12.0236 9.52161 15.9219 9.52161H105.214C109.113 9.52161 112.272 12.1395 112.272 15.3679V90.127C112.272 94.0044 109.134 97.1382 105.283 97.1081L15.7468 96.3429H15.7383Z" fill="white" stroke="#27313A" stroke-linecap="round" stroke-linejoin="round"/>
<path d="M8.86401 22.6758H112.268" stroke="#27313A" stroke-linecap="round" stroke-linejoin="round"/>
<path d="M18.8979 17.5043C19.761 17.5043 20.4606 16.7999 20.4606 15.931C20.4606 15.0621 19.761 14.3577 18.8979 14.3577C18.0349 14.3577 17.3352 15.0621 17.3352 15.931C17.3352 16.7999 18.0349 17.5043 18.8979 17.5043Z" fill="#27313A"/>
<path d="M25.8916 17.5043C26.7546 17.5043 27.4543 16.7999 27.4543 15.931C27.4543 15.0621 26.7546 14.3577 25.8916 14.3577C25.0285 14.3577 24.3289 15.0621 24.3289 15.931C24.3289 16.7999 25.0285 17.5043 25.8916 17.5043Z" fill="#27313A"/>
<path d="M33.8418 17.5043C34.7048 17.5043 35.4045 16.7999 35.4045 15.931C35.4045 15.0621 34.7048 14.3577 33.8418 14.3577C32.9787 14.3577 32.2791 15.0621 32.2791 15.931C32.2791 16.7999 32.9787 17.5043 33.8418 17.5043Z" fill="#27313A"/>
<path d="M41.8005 77.6693H79.7242" stroke="#27313A" stroke-linecap="round" stroke-linejoin="round"/>
<path d="M41.8005 83.2104H68.2258" stroke="#27313A" stroke-linecap="round" stroke-linejoin="round"/>
<path d="M41.8005 56.567H79.7242" stroke="#27313A" stroke-linecap="round" stroke-linejoin="round"/>
<path d="M41.8005 62.108H68.2258" stroke="#27313A" stroke-linecap="round" stroke-linejoin="round"/>
<path d="M41.8005 34.9013H79.7242" stroke="#27313A" stroke-linecap="round" stroke-linejoin="round"/>
<path d="M41.8005 40.4381H68.2258" stroke="#27313A" stroke-linecap="round" stroke-linejoin="round"/>
<path d="M28.6499 45.1151C32.9157 45.1151 36.3739 41.6335 36.3739 37.3387C36.3739 33.0439 32.9157 29.5623 28.6499 29.5623C24.3841 29.5623 20.926 33.0439 20.926 37.3387C20.926 41.6335 24.3841 45.1151 28.6499 45.1151Z" fill="white" stroke="#27313A" stroke-linecap="round" stroke-linejoin="round"/>
<path d="M28.65 39.084C30.2771 39.084 31.5961 37.7561 31.5961 36.1179C31.5961 34.4798 30.2771 33.1518 28.65 33.1518C27.0229 33.1518 25.7039 34.4798 25.7039 36.1179C25.7039 37.7561 27.0229 39.084 28.65 39.084Z" fill="white" stroke="#27313A" stroke-linecap="round" stroke-linejoin="round"/>
<path d="M23.3 42.8239C24.0899 40.6401 26.1693 39.084 28.6116 39.084C31.0539 39.084 33.1546 40.6573 33.9359 42.8583" fill="white"/>
<path d="M23.3 42.8239C24.0899 40.6401 26.1693 39.084 28.6116 39.084C31.0539 39.084 33.1546 40.6573 33.9359 42.8583" stroke="#27313A" stroke-linecap="round" stroke-linejoin="round"/>
<path d="M28.6499 67.4771C32.9157 67.4771 36.3739 63.9955 36.3739 59.7007C36.3739 55.4059 32.9157 51.9243 28.6499 51.9243C24.3841 51.9243 20.926 55.4059 20.926 59.7007C20.926 63.9955 24.3841 67.4771 28.6499 67.4771Z" fill="white" stroke="#27313A" stroke-linecap="round" stroke-linejoin="round"/>
<path d="M28.65 61.446C30.2771 61.446 31.5961 60.1181 31.5961 58.4799C31.5961 56.8418 30.2771 55.5138 28.65 55.5138C27.0229 55.5138 25.7039 56.8418 25.7039 58.4799C25.7039 60.1181 27.0229 61.446 28.65 61.446Z" fill="white" stroke="#27313A" stroke-linecap="round" stroke-linejoin="round"/>
<path d="M23.3 65.1902C24.0899 63.0064 26.1693 61.4503 28.6116 61.4503C31.0539 61.4503 33.1546 63.0236 33.9359 65.2245" fill="white"/>
<path d="M23.3 65.1902C24.0899 63.0064 26.1693 61.4503 28.6116 61.4503C31.0539 61.4503 33.1546 63.0236 33.9359 65.2245" stroke="#27313A" stroke-linecap="round" stroke-linejoin="round"/>
<path d="M28.889 88.154C33.1548 88.154 36.6129 84.6724 36.6129 80.3776C36.6129 76.0828 33.1548 72.6012 28.889 72.6012C24.6232 72.6012 21.165 76.0828 21.165 80.3776C21.165 84.6724 24.6232 88.154 28.889 88.154Z" fill="white" stroke="#27313A" stroke-linecap="round" stroke-linejoin="round"/>
<path d="M28.889 82.1185C30.5161 82.1185 31.8351 80.7905 31.8351 79.1524C31.8351 77.5143 30.5161 76.1863 28.889 76.1863C27.2619 76.1863 25.9429 77.5143 25.9429 79.1524C25.9429 80.7905 27.2619 82.1185 28.889 82.1185Z" fill="white" stroke="#27313A" stroke-linecap="round" stroke-linejoin="round"/>
<path d="M23.5388 85.8627C24.3287 83.6789 26.4081 82.1228 28.8503 82.1228C31.2926 82.1228 33.3933 83.6961 34.1747 85.8971" fill="white"/>
<path d="M23.5388 85.8627C24.3287 83.6789 26.4081 82.1228 28.8503 82.1228C31.2926 82.1228 33.3933 83.6961 34.1747 85.8971" stroke="#27313A" stroke-linecap="round" stroke-linejoin="round"/>
<path d="M59.2766 0.429925L61.8384 0.361145V0.498704L59.2766 0.429925Z" fill="#27313A"/>
<path d="M63.9731 0.313852L66.535 0.262268V0.59327L63.9731 0.541685V0.313852Z" fill="#27313A"/>
<path d="M68.6699 0.219204L71.2318 0.184814V0.670571L68.6699 0.640479V0.219204Z" fill="#27313A"/>
<path d="M73.3667 0.159085L75.9285 0.124695V0.730815L73.3667 0.700724V0.159085Z" fill="#27313A"/>
<path d="M78.0632 0.0988165L80.6251 0.0687256V0.790911L78.0632 0.756522V0.0988165Z" fill="#27313A"/>
<path d="M82.76 0.0601987L85.3218 0.0473022V0.812475L82.76 0.799579V0.0601987Z" fill="#27313A"/>
<path d="M87.4568 0.038688L90.0186 0.0300903V0.829653L87.4568 0.821056V0.038688Z" fill="#27313A"/>
<path d="M92.1536 0.0172036L94.7154 0.00860596V0.851155L92.1536 0.83826V0.0172036Z" fill="#27313A"/>
<path d="M96.8503 0L99.4122 0.00859764V0.846849L96.8503 0.859745V0Z" fill="#27313A"/>
<path d="M101.547 0.0172119L104.109 0.0301076V0.82967L101.547 0.838268V0.0172119Z" fill="#27313A"/>
<path d="M106.244 0.0386963L108.805 0.0472939V0.808168L106.244 0.821064V0.0386963Z" fill="#27313A"/>
<path d="M110.97 0.0945435C111.85 0.17192 112.725 0.348167 113.558 0.636182L113.336 1.31538C112.546 1.06606 111.734 0.898405 110.91 0.838222L110.97 0.0988415V0.0945435Z" fill="#27313A"/>
<path d="M115.56 1.55621C116.32 2.00328 117.029 2.54062 117.661 3.15104L117.255 3.58951C116.64 3.02638 115.961 2.53632 115.236 2.13654L115.56 1.56051V1.55621Z" fill="#27313A"/>
<path d="M119.087 4.81887C119.591 5.54106 120.009 6.31913 120.325 7.13589L119.885 7.31643C119.561 6.54266 119.142 5.80758 118.647 5.13268L119.087 4.81458V4.81887Z" fill="#27313A"/>
<path d="M120.918 9.24658C120.991 9.68075 121.038 10.1149 121.063 10.5534C121.089 10.9919 121.076 11.4303 121.063 11.8559H120.748C120.739 11.4217 120.735 11.0005 120.692 10.5792C120.654 10.1579 120.59 9.74093 120.504 9.32826L120.918 9.24658Z" fill="#27313A"/>
<path d="M121.021 14.0052L120.965 16.5845H120.846L120.794 14.0052H121.021Z" fill="#27313A"/>
<path d="M120.91 18.7339L120.906 18.764V18.7339H120.91Z" fill="#27313A"/>
<path d="M0.226259 89.349C0.256147 90.2087 0.294574 91.0685 0.315922 91.9282H0.132324C0.153673 91.0685 0.1921 90.2087 0.221988 89.349H0.226259Z" fill="#27313A"/>
<path d="M0.375734 94.0776L0.44832 96.6569H0L0.0725844 94.0776H0.375734Z" fill="#27313A"/>
<path d="M0.597804 98.7546C0.755783 99.5713 1.04185 100.358 1.44321 101.076L0.892415 101.377C0.478252 100.586 0.196451 99.7261 0.0683594 98.8449L0.593535 98.7546H0.597804Z" fill="#27313A"/>
<path d="M2.68132 102.714C3.262 103.294 3.92808 103.78 4.65393 104.145L4.31235 104.816C3.51819 104.399 2.7966 103.853 2.18604 103.195L2.68132 102.714Z" fill="#27313A"/>
<path d="M6.57534 104.794C6.97242 104.872 7.37805 104.915 7.78367 104.923C8.18502 104.923 8.62907 104.923 9.05178 104.923V105.753C8.62053 105.753 8.21064 105.753 7.75805 105.74C7.30973 105.723 6.86141 105.667 6.42163 105.572L6.57534 104.794Z" fill="#27313A"/>
<path d="M11.1824 104.915L13.7442 104.91V105.766L11.1824 105.757V104.915Z" fill="#27313A"/>
<path d="M15.8792 104.91L18.441 104.919V105.753L15.8792 105.762V104.91Z" fill="#27313A"/>
<path d="M20.5757 104.928L23.1375 104.949V105.723L20.5757 105.744V104.928Z" fill="#27313A"/>
<path d="M25.2725 104.971L27.8343 105.005V105.667L25.2725 105.701V104.971Z" fill="#27313A"/>
<path d="M29.9692 105.039L32.5311 105.091V105.581L29.9692 105.633V105.039Z" fill="#27313A"/>
<path d="M34.6658 105.143L37.2276 105.22V105.456L34.6658 105.529V105.143Z" fill="#27313A"/>
<path d="M39.3625 105.284L40.7075 105.336L39.3625 105.387V105.284Z" fill="#27313A"/>
<path d="M101.598 42.0845H92.7555C91.9443 42.0845 91.2825 41.4182 91.2825 40.6014V34.0717C91.2825 33.2549 91.9443 32.5886 92.7555 32.5886H101.598C102.409 32.5886 103.071 33.2549 103.071 34.0717V40.6014C103.071 41.4182 102.409 42.0845 101.598 42.0845Z" fill="#E98D3C" stroke="white" stroke-linecap="round" stroke-linejoin="round"/>
<path d="M102.934 34.9185L97.9643 38.0781C97.7252 38.2285 97.4519 38.3059 97.1787 38.3059C96.9054 38.3059 96.6322 38.2285 96.3931 38.0781L91.4231 34.9185" stroke="white" stroke-linecap="round" stroke-linejoin="round"/>
<path d="M101.598 64.4508H92.7555C91.9443 64.4508 91.2825 63.7845 91.2825 62.9677V56.438C91.2825 55.6212 91.9443 54.9549 92.7555 54.9549H101.598C102.409 54.9549 103.071 55.6212 103.071 56.438V62.9677C103.071 63.7845 102.409 64.4508 101.598 64.4508Z" stroke="#27313A" stroke-linecap="round" stroke-linejoin="round"/>
<path d="M102.934 57.2805L97.9643 60.4401C97.7252 60.5905 97.4519 60.6679 97.1787 60.6679C96.9054 60.6679 96.6322 60.5905 96.3931 60.4401L91.4231 57.2805" stroke="#27313A" stroke-linecap="round" stroke-linejoin="round"/>
<path d="M101.598 85.1233H92.7555C91.9443 85.1233 91.2825 84.457 91.2825 83.6403V77.1105C91.2825 76.2937 91.9443 75.6274 92.7555 75.6274H101.598C102.409 75.6274 103.071 76.2937 103.071 77.1105V83.6403C103.071 84.457 102.409 85.1233 101.598 85.1233Z" stroke="#27313A" stroke-linecap="round" stroke-linejoin="round"/>
<path d="M102.934 77.9574L97.9643 81.117C97.7252 81.2674 97.4519 81.3448 97.1787 81.3448C96.9054 81.3448 96.6322 81.2674 96.3931 81.117L91.4231 77.9574" stroke="#27313A" stroke-linecap="round" stroke-linejoin="round"/>
<path d="M111.431 110C121.686 110 130 101.63 130 91.3048C130 80.9798 121.686 72.6097 111.431 72.6097C101.176 72.6097 92.8621 80.9798 92.8621 91.3048C92.8621 101.63 101.176 110 111.431 110Z" fill="#1CA98A"/>
<path d="M117.276 95.6294L116.281 92.2463C116.234 92.0787 116.209 91.9368 116.209 91.7692V89.2888C116.209 86.8085 114.411 84.6892 112.02 84.4012V83.9025C112.02 83.5672 111.76 83.305 111.427 83.305C111.094 83.305 110.833 83.5672 110.833 83.9025V84.4012C108.468 84.6892 106.645 86.7139 106.645 89.1685V91.7434C106.645 91.911 106.619 92.0787 106.572 92.2205L105.577 95.6036C105.483 95.9389 105.718 96.2699 106.072 96.2699H116.751C117.105 96.2957 117.366 95.9604 117.272 95.6251L117.276 95.6294Z" fill="white"/>
<path d="M113.677 97.0351H109.177C109.177 98.2731 110.193 99.3005 111.427 99.3005C112.661 99.3005 113.677 98.2774 113.677 97.0351Z" fill="white"/>
<path d="M117.844 90.8879C117.819 91.0298 117.772 91.1501 117.75 91.2705C117.656 91.58 117.844 91.9153 118.152 92.0099C118.199 92.0357 118.271 92.0357 118.318 92.0357C118.579 92.0357 118.813 91.868 118.886 91.6058C118.933 91.4639 118.98 91.2963 119.006 91.1544C119.147 90.5827 119.219 89.9852 119.219 89.392C119.219 88.1754 118.959 87.032 118.412 85.9358C118.271 85.6478 117.917 85.5059 117.631 85.6736C117.345 85.8154 117.229 86.1722 117.37 86.4602C117.819 87.3673 118.032 88.3689 118.032 89.392C118.007 89.8906 117.96 90.3936 117.844 90.8922V90.8879Z" fill="white"/>
<path d="M120.167 93.0803C120.24 93.106 120.308 93.106 120.355 93.106C120.59 93.106 120.829 92.9642 120.923 92.702C121.303 91.6273 121.491 90.5096 121.491 89.3662C121.491 87.6982 121.089 86.0518 120.308 84.5989C120.141 84.3109 119.787 84.1948 119.501 84.3624C119.215 84.5301 119.1 84.8869 119.266 85.1749C119.954 86.4602 120.308 87.9175 120.308 89.3705C120.308 90.3721 120.141 91.3737 119.813 92.328C119.693 92.6633 119.86 92.9943 120.167 93.0889V93.0803Z" fill="white"/>
<path d="M102.695 93.0803C103.002 92.9599 103.169 92.6289 103.049 92.3194C102.716 91.3651 102.554 90.3893 102.554 89.3619C102.554 87.7628 102.981 86.1937 103.784 84.8096C103.95 84.5215 103.856 84.1647 103.57 83.9971C103.284 83.8294 102.93 83.924 102.763 84.212C101.841 85.7596 101.367 87.5478 101.367 89.3619C101.367 90.5054 101.555 91.6273 101.935 92.6977C102.029 92.9341 102.242 93.1018 102.503 93.1018C102.55 93.1276 102.622 93.1018 102.691 93.076L102.695 93.0803Z" fill="white"/>
<path d="M105.253 85.665C104.967 85.5231 104.613 85.6392 104.472 85.9272C103.951 87.0019 103.665 88.1669 103.665 89.3834C103.665 89.9809 103.737 90.5741 103.878 91.1459C103.925 91.3135 103.951 91.4554 103.998 91.5972C104.07 91.8595 104.305 92.0271 104.566 92.0271C104.613 92.0271 104.685 92.0271 104.732 92.0013C105.04 91.9067 105.228 91.5714 105.134 91.2619C105.087 91.1416 105.061 90.9997 105.04 90.8793C104.92 90.3807 104.873 89.8777 104.873 89.3791C104.873 88.356 105.108 87.3759 105.535 86.4474C105.654 86.1593 105.535 85.8026 105.249 85.6607L105.253 85.665Z" fill="white"/>
</svg>
