<svg xmlns="http://www.w3.org/2000/svg" width="116" height="116" fill="none" viewBox="0 0 116 116"><path fill="#FFAA85" d="M16.26 47.862a6.883 6.883 0 100-13.766 6.883 6.883 0 000 13.766zm11.166 14.569l-16.858 2.01c-3.465.418-6.265-3.03-4.95-6.263 2.026-4.996 6.326-8.692 11.662-9.326 5.336-.635 10.177 1.84 13.317 6.062 2.18 2.908.448 7.084-3.17 7.517z"/><path stroke="#535665" stroke-linecap="round" stroke-linejoin="round" stroke-width=".773" d="M17.466 47.645a6.883 6.883 0 100-13.765 6.883 6.883 0 000 13.765zm11.182 14.57l-16.859 2.01c-3.464.418-6.264-3.031-4.949-6.264 2.026-4.995 6.326-8.692 11.662-9.326 5.336-.634 10.177 1.84 13.317 6.063 2.18 2.908.448 7.084-3.17 7.517v0z"/><path fill="#FFDCA4" d="M93.608 40.886a5.475 5.475 0 100-10.95 5.475 5.475 0 000 10.95zm8.893 11.584l-13.425 1.594c-2.768.325-4.995-2.413-3.944-4.98 1.609-3.976 5.027-6.914 9.28-7.425 4.254-.51 8.089 1.47 10.61 4.826 1.733 2.32.356 5.645-2.521 5.986z"/><path stroke="#BC7812" stroke-linecap="round" stroke-linejoin="round" stroke-width=".773" d="M92.51 40.283a5.475 5.475 0 100-10.95 5.475 5.475 0 000 10.95zm8.893 11.6l-13.425 1.593c-2.768.325-4.996-2.413-3.944-4.98 1.609-3.975 5.027-6.914 9.28-7.424 4.254-.51 8.089 1.47 10.61 4.825 1.733 2.32.356 5.646-2.521 5.986v0z"/><path fill="#FFDCA4" d="M77.507 39.68a6.883 6.883 0 100-13.766 6.883 6.883 0 000 13.766zm11.167 14.554l-16.859 2.01c-3.464.418-6.264-3.03-4.95-6.264 2.027-4.995 6.327-8.692 11.663-9.326 5.336-.634 10.177 1.84 13.316 6.063 2.181 2.908.449 7.084-3.17 7.517z"/><path stroke="#BC7812" stroke-linecap="round" stroke-linejoin="round" stroke-width=".773" d="M76.115 38.937a6.883 6.883 0 100-13.765 6.883 6.883 0 000 13.765zm11.167 14.554l-16.86 2.011c-3.464.418-6.263-3.031-4.948-6.264 2.026-4.996 6.325-8.692 11.661-9.326 5.337-.634 10.177 1.84 13.317 6.063 2.181 2.907.449 7.083-3.17 7.516z"/><path fill="#F2F2F2" d="M111.425 72.454L8.819 84.58a1.053 1.053 0 01-1.16-.913L5.927 69.159a1.03 1.03 0 01.913-1.144l102.59-12.126a2.232 2.232 0 012.49 1.964l1.439 12.11a2.252 2.252 0 01-1.965 2.49h.031z"/><path stroke="#535665" stroke-linecap="round" stroke-linejoin="round" stroke-width=".773" d="M108.116 69.809L5.526 81.919a1.054 1.054 0 01-1.16-.912L2.632 66.499a1.03 1.03 0 01.913-1.144l102.59-12.126a2.232 2.232 0 012.49 1.964l1.438 12.11a2.25 2.25 0 01-1.964 2.49l.016.016z"/><path fill="#BABCBE" d="M60.138 76.29l8.476 12.558c.572.85-.031 1.98-1.052 1.98H50.626c-1.02 0-1.624-1.145-1.052-1.98L58.05 76.29c.51-.742 1.609-.742 2.104 0h-.016z"/><path stroke="#535665" stroke-linecap="round" stroke-linejoin="round" stroke-width=".773" d="M57.88 76.29l8.476 12.558c.572.85-.031 1.98-1.052 1.98H48.368c-1.02 0-1.624-1.145-1.052-1.98l8.476-12.559c.51-.742 1.608-.742 2.103 0h-.015z"/></svg>