<svg width="200" height="150" viewBox="0 0 200 150" fill="none" xmlns="http://www.w3.org/2000/svg">
<g clip-path="url(#clip0_1357_2548)">
<path d="M47.505 125.55C43.05 125.51 39.455 121.89 39.455 117.43V31.3649C39.455 27.6099 43.155 24.5649 47.72 24.5649H152.285C156.85 24.5649 160.55 27.6099 160.55 31.3649V118.32C160.55 122.83 156.875 126.475 152.365 126.44L47.515 125.55H47.505Z" fill="white" stroke="#27313A" stroke-linecap="round" stroke-linejoin="round"/>
<path d="M39.455 39.865H160.545" stroke="#27313A" stroke-linecap="round" stroke-linejoin="round"/>
<path d="M51.205 33.8499C52.2157 33.8499 53.035 33.0306 53.035 32.0199C53.035 31.0093 52.2157 30.1899 51.205 30.1899C50.1943 30.1899 49.375 31.0093 49.375 32.0199C49.375 33.0306 50.1943 33.8499 51.205 33.8499Z" fill="#27313A"/>
<path d="M59.3949 33.8499C60.4056 33.8499 61.2249 33.0306 61.2249 32.0199C61.2249 31.0093 60.4056 30.1899 59.3949 30.1899C58.3843 30.1899 57.5649 31.0093 57.5649 32.0199C57.5649 33.0306 58.3843 33.8499 59.3949 33.8499Z" fill="#27313A"/>
<path d="M68.705 33.8499C69.7157 33.8499 70.535 33.0306 70.535 32.0199C70.535 31.0093 69.7157 30.1899 68.705 30.1899C67.6943 30.1899 66.875 31.0093 66.875 32.0199C66.875 33.0306 67.6943 33.8499 68.705 33.8499Z" fill="#27313A"/>
<path d="M78.025 103.83H122.435" stroke="#27313A" stroke-linecap="round" stroke-linejoin="round"/>
<path d="M78.025 110.275H108.97" stroke="#27313A" stroke-linecap="round" stroke-linejoin="round"/>
<path d="M78.025 79.2849H122.435" stroke="#27313A" stroke-linecap="round" stroke-linejoin="round"/>
<path d="M78.025 85.73H108.97" stroke="#27313A" stroke-linecap="round" stroke-linejoin="round"/>
<path d="M78.025 54.085H122.435" stroke="#27313A" stroke-linecap="round" stroke-linejoin="round"/>
<path d="M78.025 60.5249H108.97" stroke="#27313A" stroke-linecap="round" stroke-linejoin="round"/>
<path d="M62.625 65.965C67.6204 65.965 71.67 61.9154 71.67 56.92C71.67 51.9246 67.6204 47.875 62.625 47.875C57.6295 47.875 53.58 51.9246 53.58 56.92C53.58 61.9154 57.6295 65.965 62.625 65.965Z" fill="white" stroke="#27313A" stroke-linecap="round" stroke-linejoin="round"/>
<path d="M62.625 58.9501C64.5304 58.9501 66.075 57.4054 66.075 55.5C66.075 53.5947 64.5304 52.05 62.625 52.05C60.7197 52.05 59.175 53.5947 59.175 55.5C59.175 57.4054 60.7197 58.9501 62.625 58.9501Z" fill="white" stroke="#27313A" stroke-linecap="round" stroke-linejoin="round"/>
<path d="M56.36 63.2999C57.285 60.7599 59.72 58.95 62.58 58.95C65.44 58.95 67.9 60.78 68.815 63.34" fill="white"/>
<path d="M56.36 63.2999C57.285 60.7599 59.72 58.95 62.58 58.95C65.44 58.95 67.9 60.78 68.815 63.34" stroke="#27313A" stroke-linecap="round" stroke-linejoin="round"/>
<path d="M62.625 91.975C67.6204 91.975 71.67 87.9254 71.67 82.93C71.67 77.9346 67.6204 73.885 62.625 73.885C57.6295 73.885 53.58 77.9346 53.58 82.93C53.58 87.9254 57.6295 91.975 62.625 91.975Z" fill="white" stroke="#27313A" stroke-linecap="round" stroke-linejoin="round"/>
<path d="M62.625 84.9601C64.5304 84.9601 66.075 83.4154 66.075 81.5101C66.075 79.6047 64.5304 78.0601 62.625 78.0601C60.7197 78.0601 59.175 79.6047 59.175 81.5101C59.175 83.4154 60.7197 84.9601 62.625 84.9601Z" fill="white" stroke="#27313A" stroke-linecap="round" stroke-linejoin="round"/>
<path d="M56.36 89.3151C57.285 86.7751 59.72 84.9651 62.58 84.9651C65.44 84.9651 67.9 86.7951 68.815 89.3551" fill="white"/>
<path d="M56.36 89.3151C57.285 86.7751 59.72 84.9651 62.58 84.9651C65.44 84.9651 67.9 86.7951 68.815 89.3551" stroke="#27313A" stroke-linecap="round" stroke-linejoin="round"/>
<path d="M62.905 116.025C67.9004 116.025 71.95 111.975 71.95 106.98C71.95 101.985 67.9004 97.9351 62.905 97.9351C57.9096 97.9351 53.86 101.985 53.86 106.98C53.86 111.975 57.9096 116.025 62.905 116.025Z" fill="white" stroke="#27313A" stroke-linecap="round" stroke-linejoin="round"/>
<path d="M62.905 109.005C64.8103 109.005 66.355 107.46 66.355 105.555C66.355 103.65 64.8103 102.105 62.905 102.105C60.9996 102.105 59.455 103.65 59.455 105.555C59.455 107.46 60.9996 109.005 62.905 109.005Z" fill="white" stroke="#27313A" stroke-linecap="round" stroke-linejoin="round"/>
<path d="M56.64 113.36C57.565 110.82 60 109.01 62.86 109.01C65.72 109.01 68.18 110.84 69.095 113.4" fill="white"/>
<path d="M56.64 113.36C57.565 110.82 60 109.01 62.86 109.01C65.72 109.01 68.18 110.84 69.095 113.4" stroke="#27313A" stroke-linecap="round" stroke-linejoin="round"/>
<path d="M98.49 13.9899L101.49 13.9099V14.0699L98.49 13.9899Z" fill="#27313A"/>
<path d="M103.99 13.8549L106.99 13.7949V14.1799L103.99 14.1199V13.8549Z" fill="#27313A"/>
<path d="M109.49 13.7451L112.49 13.7051V14.2701L109.49 14.2351V13.7451Z" fill="#27313A"/>
<path d="M114.99 13.675L117.99 13.635V14.34L114.99 14.305V13.675Z" fill="#27313A"/>
<path d="M120.49 13.6051L123.49 13.5701V14.4101L120.49 14.3701V13.6051Z" fill="#27313A"/>
<path d="M125.99 13.5599L128.99 13.5449V14.4349L125.99 14.4199V13.5599Z" fill="#27313A"/>
<path d="M131.49 13.5349L134.49 13.5249V14.4549L131.49 14.4449V13.5349Z" fill="#27313A"/>
<path d="M136.99 13.51L139.99 13.5V14.48L136.99 14.465V13.51Z" fill="#27313A"/>
<path d="M142.49 13.49L145.49 13.5V14.475L142.49 14.49V13.49Z" fill="#27313A"/>
<path d="M147.99 13.51L150.99 13.525V14.455L147.99 14.465V13.51Z" fill="#27313A"/>
<path d="M153.49 13.5349L156.49 13.5449V14.4299L153.49 14.4449V13.5349Z" fill="#27313A"/>
<path d="M159.025 13.6001C160.055 13.6901 161.08 13.8951 162.055 14.2301L161.795 15.0201C160.87 14.7301 159.92 14.5351 158.955 14.4651L159.025 13.6051V13.6001Z" fill="#27313A"/>
<path d="M164.4 15.3C165.29 15.82 166.12 16.445 166.86 17.155L166.385 17.665C165.665 17.01 164.87 16.44 164.02 15.975L164.4 15.305V15.3Z" fill="#27313A"/>
<path d="M168.53 19.0951C169.12 19.9351 169.61 20.8401 169.98 21.7901L169.465 22.0001C169.085 21.1001 168.595 20.2451 168.015 19.4601L168.53 19.0901V19.0951Z" fill="#27313A"/>
<path d="M170.675 24.2451C170.76 24.7501 170.815 25.2551 170.845 25.7651C170.875 26.2751 170.86 26.7851 170.845 27.2801H170.475C170.465 26.7751 170.46 26.2851 170.41 25.7951C170.365 25.3051 170.29 24.8201 170.19 24.3401L170.675 24.2451Z" fill="#27313A"/>
<path d="M170.795 29.78L170.73 32.78H170.59L170.53 29.78H170.795Z" fill="#27313A"/>
<path d="M170.665 35.28L170.66 35.315V35.28H170.665Z" fill="#27313A"/>
<path d="M29.34 117.415C29.375 118.415 29.42 119.415 29.445 120.415H29.23C29.255 119.415 29.3 118.415 29.335 117.415H29.34Z" fill="#27313A"/>
<path d="M29.5149 122.915L29.6 125.915H29.075L29.16 122.915H29.5149Z" fill="#27313A"/>
<path d="M29.775 128.355C29.96 129.305 30.295 130.22 30.765 131.055L30.12 131.405C29.635 130.485 29.305 129.485 29.155 128.46L29.77 128.355H29.775Z" fill="#27313A"/>
<path d="M32.215 132.96C32.895 133.635 33.675 134.2 34.525 134.625L34.125 135.405C33.195 134.92 32.35 134.285 31.635 133.52L32.215 132.96Z" fill="#27313A"/>
<path d="M36.775 135.38C37.24 135.47 37.715 135.52 38.19 135.53C38.66 135.53 39.18 135.53 39.675 135.53V136.495C39.17 136.495 38.69 136.495 38.16 136.48C37.635 136.46 37.11 136.395 36.595 136.285L36.775 135.38Z" fill="#27313A"/>
<path d="M42.17 135.52L45.17 135.515V136.51L42.17 136.5V135.52Z" fill="#27313A"/>
<path d="M47.67 135.515L50.67 135.525V136.495L47.67 136.505V135.515Z" fill="#27313A"/>
<path d="M53.17 135.535L56.17 135.56V136.46L53.17 136.485V135.535Z" fill="#27313A"/>
<path d="M58.67 135.585L61.67 135.625V136.395L58.67 136.435V135.585Z" fill="#27313A"/>
<path d="M64.17 135.665L67.17 135.725V136.295L64.17 136.355V135.665Z" fill="#27313A"/>
<path d="M69.67 135.785L72.67 135.875V136.15L69.67 136.235V135.785Z" fill="#27313A"/>
<path d="M75.17 135.95L76.745 136.01L75.17 136.07V135.95Z" fill="#27313A"/>
<path d="M148.05 62.44H137.695C136.745 62.44 135.97 61.665 135.97 60.715V53.12C135.97 52.17 136.745 51.395 137.695 51.395H148.05C149 51.395 149.775 52.17 149.775 53.12V60.715C149.775 61.665 149 62.44 148.05 62.44Z" fill="#E98D3C" stroke="white" stroke-linecap="round" stroke-linejoin="round"/>
<path d="M149.615 54.105L143.795 57.78C143.515 57.955 143.195 58.045 142.875 58.045C142.555 58.045 142.235 57.955 141.955 57.78L136.135 54.105" stroke="white" stroke-linecap="round" stroke-linejoin="round"/>
<path d="M148.05 88.4549H137.695C136.745 88.4549 135.97 87.6799 135.97 86.7299V79.1349C135.97 78.1849 136.745 77.4099 137.695 77.4099H148.05C149 77.4099 149.775 78.1849 149.775 79.1349V86.7299C149.775 87.6799 149 88.4549 148.05 88.4549Z" stroke="#27313A" stroke-linecap="round" stroke-linejoin="round"/>
<path d="M149.615 80.115L143.795 83.79C143.515 83.965 143.195 84.055 142.875 84.055C142.555 84.055 142.235 83.965 141.955 83.79L136.135 80.115" stroke="#27313A" stroke-linecap="round" stroke-linejoin="round"/>
<path d="M148.05 112.5H137.695C136.745 112.5 135.97 111.725 135.97 110.775V103.18C135.97 102.23 136.745 101.455 137.695 101.455H148.05C149 101.455 149.775 102.23 149.775 103.18V110.775C149.775 111.725 149 112.5 148.05 112.5Z" stroke="#27313A" stroke-linecap="round" stroke-linejoin="round"/>
<path d="M149.615 104.165L143.795 107.84C143.515 108.015 143.195 108.105 142.875 108.105C142.555 108.105 142.235 108.015 141.955 107.84L136.135 104.165" stroke="#27313A" stroke-linecap="round" stroke-linejoin="round"/>
<path d="M159.565 141.435C171.574 141.435 181.31 131.7 181.31 119.69C181.31 107.681 171.574 97.9451 159.565 97.9451C147.556 97.9451 137.82 107.681 137.82 119.69C137.82 131.7 147.556 141.435 159.565 141.435Z" fill="#1CA98A"/>
<path d="M166.41 124.72L165.245 120.785C165.19 120.59 165.16 120.425 165.16 120.23V117.345C165.16 114.46 163.055 111.995 160.255 111.66V111.08C160.255 110.69 159.95 110.385 159.56 110.385C159.17 110.385 158.865 110.69 158.865 111.08V111.66C156.095 111.995 153.96 114.35 153.96 117.205V120.2C153.96 120.395 153.93 120.59 153.875 120.755L152.71 124.69C152.6 125.08 152.875 125.465 153.29 125.465H165.795C166.21 125.495 166.515 125.105 166.405 124.715L166.41 124.72Z" fill="white"/>
<path d="M162.195 126.355H156.925C156.925 127.795 158.115 128.99 159.56 128.99C161.005 128.99 162.195 127.8 162.195 126.355Z" fill="white"/>
<path d="M167.075 119.205C167.045 119.37 166.99 119.51 166.965 119.65C166.855 120.01 167.075 120.4 167.435 120.51C167.49 120.54 167.575 120.54 167.63 120.54C167.935 120.54 168.21 120.345 168.295 120.04C168.35 119.875 168.405 119.68 168.435 119.515C168.6 118.85 168.685 118.155 168.685 117.465C168.685 116.05 168.38 114.72 167.74 113.445C167.575 113.11 167.16 112.945 166.825 113.14C166.49 113.305 166.355 113.72 166.52 114.055C167.045 115.11 167.295 116.275 167.295 117.465C167.265 118.045 167.21 118.63 167.075 119.21V119.205Z" fill="white"/>
<path d="M169.795 121.755C169.88 121.785 169.96 121.785 170.015 121.785C170.29 121.785 170.57 121.62 170.68 121.315C171.125 120.065 171.345 118.765 171.345 117.435C171.345 115.495 170.875 113.58 169.96 111.89C169.765 111.555 169.35 111.42 169.015 111.615C168.68 111.81 168.545 112.225 168.74 112.56C169.545 114.055 169.96 115.75 169.96 117.44C169.96 118.605 169.765 119.77 169.38 120.88C169.24 121.27 169.435 121.655 169.795 121.765V121.755Z" fill="white"/>
<path d="M149.335 121.755C149.695 121.615 149.89 121.23 149.75 120.87C149.36 119.76 149.17 118.625 149.17 117.43C149.17 115.57 149.67 113.745 150.61 112.135C150.805 111.8 150.695 111.385 150.36 111.19C150.025 110.995 149.61 111.105 149.415 111.44C148.335 113.24 147.78 115.32 147.78 117.43C147.78 118.76 148 120.065 148.445 121.31C148.555 121.585 148.805 121.78 149.11 121.78C149.165 121.81 149.25 121.78 149.33 121.75L149.335 121.755Z" fill="white"/>
<path d="M152.33 113.13C151.995 112.965 151.58 113.1 151.415 113.435C150.805 114.685 150.47 116.04 150.47 117.455C150.47 118.15 150.555 118.84 150.72 119.505C150.775 119.7 150.805 119.865 150.86 120.03C150.945 120.335 151.22 120.53 151.525 120.53C151.58 120.53 151.665 120.53 151.72 120.5C152.08 120.39 152.3 120 152.19 119.64C152.135 119.5 152.105 119.335 152.08 119.195C151.94 118.615 151.885 118.03 151.885 117.45C151.885 116.26 152.16 115.12 152.66 114.04C152.8 113.705 152.66 113.29 152.325 113.125L152.33 113.13Z" fill="white"/>
</g>
<defs>
<clipPath id="clip0_1357_2548">
<rect width="200" height="150" fill="white"/>
</clipPath>
</defs>
</svg>
