<svg width="130" height="98" viewBox="0 0 130 98" fill="none" xmlns="http://www.w3.org/2000/svg">
<path d="M108.758 12H25.2422C23.4516 12 22 13.9103 22 16.2668V78.7332C22 81.0897 23.4516 83 25.2422 83H108.758C110.548 83 112 81.0897 112 78.7332V16.2668C112 13.9103 110.548 12 108.758 12Z" fill="white" stroke="#27313A" stroke-linecap="round" stroke-linejoin="round"/>
<path d="M72 4.5L74 4V5L72 4.5Z" fill="#27313A"/>
<path d="M75 4.15584L77 4V5L75 4.84415V4.15584Z" fill="#27313A"/>
<path d="M79 4.07079L81 4V5L79 4.93805V4.07079Z" fill="#27313A"/>
<path d="M83 4.05674L85 4V5L83 4.95035V4.05674Z" fill="#27313A"/>
<path d="M86 4.04167L88 4V5L86 4.95238V4.04167Z" fill="#27313A"/>
<path d="M90 4.01124L92 4V5L90 4.98315V4.01124Z" fill="#27313A"/>
<path d="M93 4.01604L95 4V5L93 4.9893V4.01604Z" fill="#27313A"/>
<path d="M97 4.0102L99 4V5L97 4.98469V4.0102Z" fill="#27313A"/>
<path d="M100 4L102 4.01V4.985L100 5V4Z" fill="#27313A"/>
<path d="M104 4L106 4.01571V4.98953L104 5V4Z" fill="#27313A"/>
<path d="M108 4L110 4.01099V4.98352L108 5V4Z" fill="#27313A"/>
<path d="M111.045 4C111.71 4.06338 112.371 4.20775 113 4.44366L112.832 5C112.235 4.79577 111.623 4.65845 111 4.60915L111.045 4.00352V4Z" fill="#27313A"/>
<path d="M114.268 5C114.894 5.43975 115.479 5.96829 116 6.56871L115.665 7C115.158 6.44609 114.599 5.96406 114 5.57083L114.268 5.00423V5Z" fill="#27313A"/>
<path d="M117.262 8.00344C117.562 8.58076 117.812 9.20275 118 9.85567L117.738 10C117.545 9.38144 117.295 8.79381 117 8.25429L117.262 8V8.00344Z" fill="#27313A"/>
<path d="M118.721 11C118.848 11.3328 118.93 11.6656 118.974 12.0016C119.019 12.3377 118.997 12.6738 118.974 13H118.424C118.409 12.6672 118.402 12.3443 118.327 12.0214C118.26 11.6985 118.149 11.3789 118 11.0626L118.721 11Z" fill="#27313A"/>
<path d="M10.3851 83C10.5 83.623 10.7081 84.2229 11 84.7705L10.5994 85C10.2981 84.3967 10.0932 83.741 10 83.0688L10.382 83H10.3851Z" fill="#27313A"/>
<path d="M12.2007 86C12.436 86.5521 12.7059 87.0143 13 87.362L12.8616 88C12.5398 87.6033 12.2474 87.0838 12 86.4581L12.2007 86Z" fill="#27313A"/>
<path d="M15.1169 88C15.4188 88.0807 15.7273 88.1256 16.0357 88.1345C16.3409 88.1345 16.6786 88.1345 17 88.1345V89C16.6721 89 16.3604 89 16.0162 88.9865C15.6753 88.9686 15.3344 88.9103 15 88.8117L15.1169 88Z" fill="#27313A"/>
<path d="M18 88.005L20 88V89L18 88.9899V88.005Z" fill="#27313A"/>
<path d="M22 88L24 88.0101V88.9899L22 89V88Z" fill="#27313A"/>
<path d="M26 88L27 88.0263V88.9737L26 89V88Z" fill="#27313A"/>
<path d="M29 88L31 88.0471V88.9529L29 89V88Z" fill="#27313A"/>
<path d="M33 88L35 88.087V88.913L33 89V88Z" fill="#27313A"/>
<path d="M23 29C25.2091 29 27 27.2091 27 25C27 22.7909 25.2091 21 23 21C20.7909 21 19 22.7909 19 25C19 27.2091 20.7909 29 23 29Z" fill="white"/>
<path d="M24.5 36C31.4036 36 37 30.6274 37 24C37 17.3726 31.4036 12 24.5 12C17.5964 12 12 17.3726 12 24C12 30.6274 17.5964 36 24.5 36Z" fill="#E98D3C"/>
<path d="M104.759 59H45.2407C43.4509 59 42 60.4579 42 62.2564V66.7436C42 68.5421 43.4509 70 45.2407 70H104.759C106.549 70 108 68.5421 108 66.7436V62.2564C108 60.4579 106.549 59 104.759 59Z" fill="white" stroke="#27313A" stroke-linecap="round" stroke-linejoin="round"/>
<path d="M46 63H76" stroke="#27313A" stroke-linecap="round" stroke-linejoin="round"/>
<path d="M46 66H85" stroke="#27313A" stroke-linecap="round" stroke-linejoin="round"/>
<path d="M24.7 30.55C28.2898 30.55 31.2 27.6398 31.2 24.05C31.2 20.4601 28.2898 17.55 24.7 17.55C21.1101 17.55 18.2 20.4601 18.2 24.05C18.2 27.6398 21.1101 30.55 24.7 30.55Z" stroke="white" stroke-width="2" stroke-linecap="round" stroke-linejoin="round"/>
<path d="M18.2 24.05H31.2" stroke="white" stroke-width="2" stroke-linecap="round" stroke-linejoin="round"/>
<path d="M24.7001 17.55C26.3259 19.3299 27.2499 21.6398 27.3001 24.05C27.2499 26.4602 26.3259 28.7701 24.7001 30.55C23.0743 28.7701 22.1503 26.4602 22.1001 24.05C22.1503 21.6398 23.0743 19.3299 24.7001 17.55Z" stroke="white" stroke-width="2" stroke-linecap="round" stroke-linejoin="round"/>
<path d="M36.9499 58H31.0501C29.3656 58 28 59.438 28 61.2118V66.7882C28 68.562 29.3656 70 31.0501 70H36.9499C38.6344 70 40 68.562 40 66.7882V61.2118C40 59.438 38.6344 58 36.9499 58Z" stroke="#27313A" stroke-width="0.97" stroke-linecap="round" stroke-linejoin="round"/>
<path d="M104.759 41H45.2407C43.4509 41 42 42.4579 42 44.2564V48.7436C42 50.5421 43.4509 52 45.2407 52H104.759C106.549 52 108 50.5421 108 48.7436V44.2564C108 42.4579 106.549 41 104.759 41Z" fill="white" stroke="#27313A" stroke-linecap="round" stroke-linejoin="round"/>
<path d="M46 45H76" stroke="#27313A" stroke-linecap="round" stroke-linejoin="round"/>
<path d="M46 48H85" stroke="#27313A" stroke-linecap="round" stroke-linejoin="round"/>
<path d="M36.9499 41H31.0501C29.3656 41 28 42.3181 28 43.9441V49.0559C28 50.6819 29.3656 52 31.0501 52H36.9499C38.6344 52 40 50.6819 40 49.0559V43.9441C40 42.3181 38.6344 41 36.9499 41Z" stroke="#27313A" stroke-width="0.97" stroke-linecap="round" stroke-linejoin="round"/>
<path d="M100.376 44H103.718C104.977 44 106 45.077 106 46.4011V46.5989C106 47.923 104.977 49 103.718 49H100.376C99.0638 49 98 47.8807 98 46.5C98 45.1194 99.0638 44 100.376 44Z" fill="white" stroke="#27313A" stroke-linecap="round" stroke-linejoin="round"/>
<path d="M104 48C105.105 48 106 47.1046 106 46C106 44.8954 105.105 44 104 44C102.895 44 102 44.8954 102 46C102 47.1046 102.895 48 104 48Z" fill="#1CA98A"/>
<path d="M100.376 62H103.718C104.977 62 106 63.077 106 64.4011V64.5989C106 65.923 104.977 67 103.718 67H100.376C99.0638 67 98 65.8806 98 64.5C98 63.1194 99.0638 62 100.376 62Z" fill="white" stroke="#27313A" stroke-linecap="round" stroke-linejoin="round"/>
<path d="M104 66C105.105 66 106 65.1046 106 64C106 62.8954 105.105 62 104 62C102.895 62 102 62.8954 102 64C102 65.1046 102.895 66 104 66Z" fill="#1CA98A"/>
</svg>
