<svg xmlns="http://www.w3.org/2000/svg" width="116" height="116" fill="none" viewBox="0 0 116 116"><path fill="#F2F2F2" d="M87.72 30.995H10.632a2.423 2.423 0 00-2.428 2.428v57.63a2.422 2.422 0 002.428 2.428H87.72a2.422 2.422 0 002.428-2.429V33.423a2.423 2.423 0 00-2.428-2.428z"/><path stroke="#525666" stroke-linecap="round" stroke-linejoin="round" stroke-width=".773" d="M12.242 80.35V42.89m82.02 37.46v-9.605M66.065 26.974h25.72c.65 0 1.254.263 1.702.711.449.449.712 1.068.712 1.702V64.96"/><path fill="#BABCBE" stroke="#525666" stroke-linecap="round" stroke-linejoin="round" stroke-width=".773" d="M94.246 80.35v6.635a2.5 2.5 0 01-.712 1.732 2.439 2.439 0 01-1.7.696h-77.18c-.65 0-1.268-.263-1.732-.696a2.485 2.485 0 01-.696-1.733V80.35h82.02z"/><path stroke="#525666" stroke-linecap="round" stroke-linejoin="round" stroke-width=".773" d="M80.744 26.974H14.593c-.634 0-1.238.278-1.686.727a2.411 2.411 0 00-.696 1.701v6.96M72.747 102.235h2.769m-44.699 0h39.13m-28.783-9.512v9.512m24.02-9.512v9.512"/><path fill="#B2D9CD" d="M106.743 28.784v-3.295c0-.773-.634-1.407-1.407-1.407h-2.444c-.155-.464-.34-.898-.557-1.33l1.732-1.733a1.4 1.4 0 000-1.995l-2.273-2.274a1.42 1.42 0 00-2.011 0l-1.732 1.764a8.89 8.89 0 00-1.33-.542v-2.474c0-.774-.635-1.408-1.408-1.408h-3.232c-.774 0-1.408.634-1.408 1.408v2.49a8.1 8.1 0 00-1.314.541l-1.764-1.779c-.556-.556-1.47-.556-2.01 0l-2.197 2.259a1.41 1.41 0 000 1.98l1.81 1.809a7.437 7.437 0 00-.495 1.268h-2.676c-.773 0-1.407.634-1.407 1.408v3.248c0 .773.634 1.407 1.407 1.407h2.599c.139.418.325.835.525 1.237l-1.855 1.856c-.542.542-.557 1.439 0 1.98l2.196 2.258a1.419 1.419 0 002.01.016l1.826-1.81c.402.186.82.356 1.252.495v2.599c0 .773.635 1.407 1.408 1.407h3.232c.774 0 1.408-.634 1.408-1.407v-2.552c.433-.14.866-.31 1.268-.526l1.794 1.794a1.4 1.4 0 001.995 0l2.305-2.305a1.406 1.406 0 00.031-1.964l-1.64-1.732a9.57 9.57 0 00.542-1.3h2.428c.773 0 1.407-.634 1.407-1.407l-.015.015z"/><path stroke="#40A084" stroke-linecap="round" stroke-linejoin="round" stroke-width=".773" d="M107.795 28.722v-3.774a1.205 1.205 0 00-.34-.804 1.074 1.074 0 00-.805-.325h-2.737a9.267 9.267 0 00-.541-1.361l1.917-1.918a1.107 1.107 0 00.356-.82c0-.155-.031-.31-.093-.448a1.02 1.02 0 00-.263-.372l-2.644-2.644a1.106 1.106 0 00-.82-.356c-.155 0-.309.03-.449.092a1.246 1.246 0 00-.371.264l-1.98 1.917c-.417-.185-.835-.34-1.268-.48V14.91c0-.31-.124-.603-.34-.804a1.15 1.15 0 00-.804-.34h-3.836c-.31 0-.603.123-.804.34a1.15 1.15 0 00-.34.804v2.8c-.45.154-.882.34-1.3.556l-1.964-1.964a1.11 1.11 0 00-.82-.356 1.11 1.11 0 00-.82.356l-2.582 2.614a1.11 1.11 0 00-.356.82c0 .154.03.309.093.448.061.14.139.263.263.371l1.98 2.088c-.202.418-.387.85-.527 1.3h-2.815c-.293 0-.587.123-.804.324-.216.217-.34.495-.34.805v3.773c0 .31.124.604.34.805.217.216.51.34.804.34h2.862c.154.418.325.835.495 1.253l-2.088 2.088a1.11 1.11 0 00-.356.82c0 .154.03.309.093.448.062.14.139.263.263.371l2.644 2.676c.217.216.51.325.82.325.31 0 .603-.124.82-.325l2.088-2.088c.402.2.804.371 1.237.526v2.83c0 .31.124.603.34.804.217.217.51.34.805.34h3.774c.309 0 .603-.123.804-.34.217-.216.34-.51.34-.804v-2.939c.433-.139.866-.324 1.269-.525l1.979 2.088c.217.216.511.324.82.324.309 0 .603-.123.82-.324l2.675-2.753a1.107 1.107 0 00.356-.82c0-.155-.031-.31-.093-.449a1.02 1.02 0 00-.263-.37l-1.933-1.965c.217-.418.402-.85.541-1.3h2.753c.31 0 .604-.123.805-.34.216-.216.34-.51.34-.804v-.015z"/><path fill="#fff" d="M94.71 32.325a5.429 5.429 0 100-10.857 5.429 5.429 0 000 10.857zM28.59 39.75h-6.774a.587.587 0 00-.588.587v4.532c0 .325.263.588.587.588h6.775a.587.587 0 00.588-.588v-4.532a.587.587 0 00-.588-.588zM28.59 49.772h-6.774a.587.587 0 00-.588.587v4.532c0 .325.263.588.587.588h6.775a.588.588 0 00.588-.588V50.36a.587.587 0 00-.588-.587zM28.59 59.81h-6.774a.588.588 0 00-.588.587v4.532c0 .325.263.588.587.588h6.775a.587.587 0 00.588-.588v-4.532a.588.588 0 00-.588-.587zM28.59 69.832h-6.774a.587.587 0 00-.588.588v4.531c0 .325.263.588.587.588h6.775a.587.587 0 00.588-.588V70.42a.587.587 0 00-.588-.588zM78.238 39.966H34.792a.742.742 0 00-.742.742v3.589c0 .41.332.742.742.742h43.446c.41 0 .742-.333.742-.742v-3.589a.742.742 0 00-.742-.742zM78.238 48.24H34.792a.742.742 0 00-.742.743v25.968c0 .41.332.743.742.743h43.446c.41 0 .742-.332.742-.743V48.983a.742.742 0 00-.742-.742z"/><path stroke="#37ADC9" stroke-linecap="round" stroke-linejoin="round" stroke-width=".773" d="M28.018 38.342h2.227c.155 0 .31.062.433.17a.62.62 0 01.186.433v4.656a.61.61 0 01-.62.603h-7.887a.664.664 0 01-.433-.17.62.62 0 01-.186-.433v-4.656a.61.61 0 01.619-.603h2.985"/><path fill="#37ADC9" stroke="#37ADC9" stroke-linecap="round" stroke-linejoin="round" stroke-width=".773" d="M21.908 38.543h1.64v5.475h-1.64v-5.475z"/><path stroke="#37ADC9" stroke-linecap="round" stroke-linejoin="round" stroke-width=".773" d="M28.018 48.364h2.227c.155 0 .31.062.433.17a.62.62 0 01.186.434v4.655a.61.61 0 01-.62.603h-7.887a.664.664 0 01-.433-.17.62.62 0 01-.186-.433v-4.655a.61.61 0 01.619-.604h2.985"/><path fill="#37ADC9" stroke="#37ADC9" stroke-linecap="round" stroke-linejoin="round" stroke-width=".773" d="M21.908 48.565h1.64v5.476h-1.64v-5.476z"/><path stroke="#37ADC9" stroke-linecap="round" stroke-linejoin="round" stroke-width=".773" d="M28.018 58.387h2.227c.155 0 .31.062.433.17a.62.62 0 01.186.433v4.655a.61.61 0 01-.62.604h-7.887a.664.664 0 01-.433-.17.62.62 0 01-.186-.434V58.99a.61.61 0 01.619-.603h2.985"/><path fill="#37ADC9" stroke="#37ADC9" stroke-linecap="round" stroke-linejoin="round" stroke-width=".773" d="M21.908 58.588h1.64v5.475h-1.64v-5.475z"/><path stroke="#37ADC9" stroke-linecap="round" stroke-linejoin="round" stroke-width=".773" d="M28.018 68.41h2.227c.155 0 .31.06.433.17a.62.62 0 01.186.432v4.656a.61.61 0 01-.62.603h-7.887a.664.664 0 01-.433-.17.62.62 0 01-.186-.433v-4.656a.61.61 0 01.619-.603h2.985"/><path fill="#37ADC9" stroke="#37ADC9" stroke-linecap="round" stroke-linejoin="round" stroke-width=".773" d="M21.908 68.61h1.64v5.475h-1.64V68.61z"/><path stroke="#37ADC9" stroke-linecap="round" stroke-linejoin="round" stroke-width=".773" d="M79.429 38.543H35.89a.696.696 0 00-.696.696v3.681c0 .384.312.696.696.696H79.43a.696.696 0 00.696-.696v-3.681a.696.696 0 00-.696-.696z"/><path stroke="#37ADC9" stroke-linecap="round" stroke-linejoin="round" stroke-width=".758" d="M79.429 46.818H35.89a.696.696 0 00-.696.696v26.061c0 .384.312.696.696.696H79.43a.696.696 0 00.696-.696V47.514a.696.696 0 00-.696-.696z"/></svg>