<svg width="200" height="150" viewBox="0 0 200 150" fill="none" xmlns="http://www.w3.org/2000/svg">
<g clip-path="url(#clip0_1357_2438)">
<path d="M167.065 37.8101H38.27C35.5086 37.8101 33.27 40.0486 33.27 42.8101V116.01C33.27 118.771 35.5086 121.01 38.27 121.01H167.065C169.826 121.01 172.065 118.771 172.065 116.01V42.8101C172.065 40.0486 169.826 37.8101 167.065 37.8101Z" fill="white" stroke="#27313A" stroke-linecap="round" stroke-linejoin="round"/>
<path d="M110.57 22.2951L113.57 22.2151V22.3751L110.57 22.2951Z" fill="#27313A"/>
<path d="M116.07 22.1601L119.07 22.1001V22.4851L116.07 22.4251V22.1601Z" fill="#27313A"/>
<path d="M121.57 22.05L124.57 22.01V22.575L121.57 22.54V22.05Z" fill="#27313A"/>
<path d="M127.07 21.9799L130.07 21.9399V22.6449L127.07 22.6099V21.9799Z" fill="#27313A"/>
<path d="M132.57 21.91L135.57 21.875V22.715L132.57 22.675V21.91Z" fill="#27313A"/>
<path d="M138.07 21.8601L141.07 21.8501V22.7401L138.07 22.7251V21.8601Z" fill="#27313A"/>
<path d="M143.57 21.84L146.57 21.825V22.76L143.57 22.75V21.84Z" fill="#27313A"/>
<path d="M149.07 21.8149L152.07 21.8049V22.7849L149.07 22.7699V21.8149Z" fill="#27313A"/>
<path d="M154.57 21.7949L157.57 21.8049V22.7799L154.57 22.7949V21.7949Z" fill="#27313A"/>
<path d="M160.07 21.8149L163.07 21.8299V22.7599L160.07 22.7699V21.8149Z" fill="#27313A"/>
<path d="M165.57 21.8401L168.57 21.8501V22.7351L165.57 22.7501V21.8401Z" fill="#27313A"/>
<path d="M171.105 21.905C172.135 21.995 173.16 22.2 174.135 22.535L173.875 23.325C172.95 23.035 172 22.84 171.035 22.77L171.105 21.91V21.905Z" fill="#27313A"/>
<path d="M176.48 23.605C177.37 24.125 178.2 24.75 178.94 25.46L178.465 25.97C177.745 25.315 176.95 24.745 176.1 24.28L176.48 23.61V23.605Z" fill="#27313A"/>
<path d="M180.61 27.4C181.2 28.24 181.69 29.145 182.06 30.095L181.545 30.305C181.165 29.405 180.675 28.55 180.095 27.765L180.61 27.395V27.4Z" fill="#27313A"/>
<path d="M182.755 32.55C182.84 33.055 182.895 33.56 182.925 34.07C182.955 34.58 182.94 35.09 182.925 35.585H182.555C182.545 35.08 182.54 34.59 182.49 34.1C182.445 33.61 182.37 33.1251 182.27 32.6451L182.755 32.55Z" fill="#27313A"/>
<path d="M182.875 38.085L182.81 41.085H182.67L182.61 38.085H182.875Z" fill="#27313A"/>
<path d="M182.745 43.585L182.74 43.62V43.585H182.745Z" fill="#27313A"/>
<path d="M15.4201 115.72C15.4551 116.72 15.5001 117.72 15.5251 118.72H15.3101C15.3351 117.72 15.3801 116.72 15.4151 115.72H15.4201Z" fill="#27313A"/>
<path d="M15.595 121.22L15.68 124.22H15.155L15.24 121.22H15.595Z" fill="#27313A"/>
<path d="M15.855 126.66C16.04 127.61 16.375 128.525 16.845 129.36L16.2 129.71C15.715 128.79 15.385 127.79 15.235 126.765L15.85 126.66H15.855Z" fill="#27313A"/>
<path d="M18.295 131.265C18.975 131.94 19.755 132.505 20.605 132.93L20.205 133.71C19.275 133.225 18.43 132.59 17.715 131.825L18.295 131.265Z" fill="#27313A"/>
<path d="M22.855 133.685C23.32 133.775 23.7951 133.825 24.2701 133.835C24.7401 133.835 25.26 133.835 25.755 133.835V134.8C25.25 134.8 24.77 134.8 24.24 134.785C23.715 134.765 23.19 134.7 22.675 134.59L22.855 133.685Z" fill="#27313A"/>
<path d="M28.25 133.825L31.25 133.82V134.815L28.25 134.805V133.825Z" fill="#27313A"/>
<path d="M33.75 133.82L36.75 133.83V134.8L33.75 134.81V133.82Z" fill="#27313A"/>
<path d="M39.25 133.84L42.25 133.865V134.765L39.25 134.79V133.84Z" fill="#27313A"/>
<path d="M44.75 133.89L47.75 133.93V134.7L44.75 134.74V133.89Z" fill="#27313A"/>
<path d="M50.25 133.97L53.25 134.03V134.6L50.25 134.66V133.97Z" fill="#27313A"/>
<path d="M55.75 134.09L58.75 134.18V134.455L55.75 134.54V134.09Z" fill="#27313A"/>
<path d="M61.25 134.255L62.825 134.315L61.25 134.375V134.255Z" fill="#27313A"/>
<path d="M35.305 45.08C38.6518 45.08 41.365 42.3668 41.365 39.02C41.365 35.6731 38.6518 32.96 35.305 32.96C31.9581 32.96 29.245 35.6731 29.245 39.02C29.245 42.3668 31.9581 45.08 35.305 45.08Z" fill="white"/>
<path d="M37.84 55.68C48.245 55.68 56.68 47.245 56.68 36.84C56.68 26.435 48.245 18 37.84 18C27.435 18 19 26.435 19 36.84C19 47.245 27.435 55.68 37.84 55.68Z" fill="#E98D3C"/>
<path d="M160.815 90.3601H68.985C66.2236 90.3601 63.985 92.5987 63.985 95.3601V102.25C63.985 105.012 66.2236 107.25 68.985 107.25H160.815C163.576 107.25 165.815 105.012 165.815 102.25V95.3601C165.815 92.5987 163.576 90.3601 160.815 90.3601Z" fill="white" stroke="#27313A" stroke-linecap="round" stroke-linejoin="round"/>
<path d="M71.0551 97.1201H116.78" stroke="#27313A" stroke-linecap="round" stroke-linejoin="round"/>
<path d="M71.0551 101.53H130.72" stroke="#27313A" stroke-linecap="round" stroke-linejoin="round"/>
<path d="M38 47C43.5228 47 48 42.5228 48 37C48 31.4772 43.5228 27 38 27C32.4772 27 28 31.4772 28 37C28 42.5228 32.4772 47 38 47Z" stroke="white" stroke-width="2" stroke-linecap="round" stroke-linejoin="round"/>
<path d="M28 37H48" stroke="white" stroke-width="2" stroke-linecap="round" stroke-linejoin="round"/>
<path d="M38 27C40.5013 29.7384 41.9228 33.292 42 37C41.9228 40.708 40.5013 44.2616 38 47C35.4987 44.2616 34.0772 40.708 34 37C34.0772 33.292 35.4987 29.7384 38 27Z" stroke="white" stroke-width="2" stroke-linecap="round" stroke-linejoin="round"/>
<path d="M56.1699 89.8201H47.0399C44.4332 89.8201 42.3199 91.9333 42.3199 94.5401V102.735C42.3199 105.342 44.4332 107.455 47.0399 107.455H56.1699C58.7767 107.455 60.8899 105.342 60.8899 102.735V94.5401C60.8899 91.9333 58.7767 89.8201 56.1699 89.8201Z" stroke="#27313A" stroke-width="0.97" stroke-linecap="round" stroke-linejoin="round"/>
<path d="M160.815 63.0901H68.985C66.2236 63.0901 63.985 65.3287 63.985 68.0901V74.9801C63.985 77.7415 66.2236 79.9801 68.985 79.9801H160.815C163.576 79.9801 165.815 77.7415 165.815 74.9801V68.0901C165.815 65.3287 163.576 63.0901 160.815 63.0901Z" fill="white" stroke="#27313A" stroke-linecap="round" stroke-linejoin="round"/>
<path d="M71.0551 69.8501H116.78" stroke="#27313A" stroke-linecap="round" stroke-linejoin="round"/>
<path d="M71.0551 74.26H130.72" stroke="#27313A" stroke-linecap="round" stroke-linejoin="round"/>
<path d="M56.1699 62.5449H47.0399C44.4332 62.5449 42.3199 64.6581 42.3199 67.2649V75.4599C42.3199 78.0667 44.4332 80.1799 47.0399 80.1799H56.1699C58.7767 80.1799 60.8899 78.0667 60.8899 75.4599V67.2649C60.8899 64.6581 58.7767 62.5449 56.1699 62.5449Z" stroke="#27313A" stroke-width="0.97" stroke-linecap="round" stroke-linejoin="round"/>
<path d="M154.48 67.9951H159.46C161.335 67.9951 162.86 69.5201 162.86 71.3951V71.6751C162.86 73.5501 161.335 75.0751 159.46 75.0751H154.48C152.525 75.0751 150.94 73.4901 150.94 71.5351C150.94 69.5801 152.525 67.9951 154.48 67.9951Z" fill="white" stroke="#27313A" stroke-linecap="round" stroke-linejoin="round"/>
<path d="M159.395 74.61C161.096 74.61 162.475 73.231 162.475 71.53C162.475 69.8289 161.096 68.45 159.395 68.45C157.694 68.45 156.315 69.8289 156.315 71.53C156.315 73.231 157.694 74.61 159.395 74.61Z" fill="#1CA98A"/>
<path d="M154.48 95.2649H159.46C161.335 95.2649 162.86 96.7899 162.86 98.6649V98.9449C162.86 100.82 161.335 102.345 159.46 102.345H154.48C152.525 102.345 150.94 100.76 150.94 98.8049C150.94 96.8499 152.525 95.2649 154.48 95.2649Z" fill="white" stroke="#27313A" stroke-linecap="round" stroke-linejoin="round"/>
<path d="M159.395 101.88C161.096 101.88 162.475 100.501 162.475 98.8C162.475 97.0989 161.096 95.72 159.395 95.72C157.694 95.72 156.315 97.0989 156.315 98.8C156.315 100.501 157.694 101.88 159.395 101.88Z" fill="#1CA98A"/>
</g>
<defs>
<clipPath id="clip0_1357_2438">
<rect width="200" height="150" fill="white"/>
</clipPath>
</defs>
</svg>
