<svg xmlns="http://www.w3.org/2000/svg" width="498" height="20" fill="none" viewBox="0 0 498 20"><path fill="#6FC681" d="M0 0h3v20H0V0zM5 0h3v20H5V0zM10 0h3v20h-3V0zM15 0h3v20h-3V0zM20 0h3v20h-3V0zM25 0h3v20h-3V0zM30 0h3v20h-3V0zM35 0h3v20h-3V0zM40 0h3v20h-3V0zM45 0h3v20h-3V0zM50 0h3v20h-3V0zM55 0h3v20h-3V0zM60 0h3v20h-3V0zM65 0h3v20h-3V0zM70 0h3v20h-3V0zM75 0h3v20h-3V0zM80 0h3v20h-3V0zM85 0h3v20h-3V0zM90 0h3v20h-3V0zM95 0h3v20h-3V0zM100 0h3v20h-3V0zM105 0h3v20h-3V0zM110 0h3v20h-3V0zM115 0h3v20h-3V0zM120 0h3v20h-3V0zM125 0h3v20h-3V0zM130 0h3v20h-3V0zM135 0h3v20h-3V0zM140 0h3v20h-3V0zM145 0h3v20h-3V0zM150 0h3v20h-3V0zM155 0h3v20h-3V0zM160 0h3v20h-3V0zM165 0h3v20h-3V0zM170 0h3v20h-3V0zM175 0h3v20h-3V0zM180 0h3v20h-3V0zM185 0h3v20h-3V0zM190 0h3v20h-3V0zM195 0h3v20h-3V0zM200 0h3v20h-3V0zM205 0h3v20h-3V0zM210 0h3v20h-3V0zM215 0h3v20h-3V0zM220 0h3v20h-3V0zM225 0h3v20h-3V0zM230 0h3v20h-3V0zM235 0h3v20h-3V0zM240 0h3v20h-3V0zM245 0h3v20h-3V0zM250 0h3v20h-3V0zM255 0h3v20h-3V0zM260 0h3v20h-3V0zM265 0h3v20h-3V0zM270 0h3v20h-3V0zM275 0h3v20h-3V0zM280 0h3v20h-3V0zM285 0h3v20h-3V0zM290 0h3v20h-3V0zM295 0h3v20h-3V0zM300 0h3v20h-3V0zM305 0h3v20h-3V0zM310 0h3v20h-3V0zM315 0h3v20h-3V0zM320 0h3v20h-3V0zM325 0h3v20h-3V0zM330 0h3v20h-3V0zM335 0h3v20h-3V0zM340 0h3v20h-3V0zM345 0h3v20h-3V0zM350 0h3v20h-3V0zM355 0h3v20h-3V0zM360 0h3v20h-3V0zM365 0h3v20h-3V0zM370 0h3v20h-3V0zM375 0h3v20h-3V0zM380 0h3v20h-3V0zM385 0h3v20h-3V0zM390 0h3v20h-3V0zM395 0h3v20h-3V0zM400 0h3v20h-3V0zM405 0h3v20h-3V0zM410 0h3v20h-3V0zM415 0h3v20h-3V0zM420 0h3v20h-3V0zM425 0h3v20h-3V0zM430 0h3v20h-3V0zM435 0h3v20h-3V0zM440 0h3v20h-3V0zM445 0h3v20h-3V0zM450 0h3v20h-3V0zM455 0h3v20h-3V0zM460 0h3v20h-3V0zM465 0h3v20h-3V0zM470 0h3v20h-3V0zM475 0h3v20h-3V0zM480 0h3v20h-3V0zM485 0h3v20h-3V0zM490 0h3v20h-3V0zM495 0h3v20h-3V0z"/></svg>