<svg width="150" height="128" viewBox="0 0 150 128" fill="none" xmlns="http://www.w3.org/2000/svg">
<path d="M15.265 108C15.3 109 15.345 110 15.37 111H15.155C15.18 110 15.225 109 15.26 108H15.265Z" fill="#27313A"/>
<path d="M15.44 113.5L15.525 116.5H15L15.085 113.5H15.44Z" fill="#27313A"/>
<path d="M15.7001 118.94C15.8851 119.89 16.2201 120.805 16.6901 121.64L16.0451 121.99C15.5601 121.07 15.2301 120.07 15.0801 119.045L15.6951 118.94H15.7001Z" fill="#27313A"/>
<path d="M18.1401 123.545C18.8201 124.22 19.6001 124.785 20.4501 125.21L20.0501 125.99C19.1201 125.505 18.2751 124.87 17.5601 124.105L18.1401 123.545Z" fill="#27313A"/>
<path d="M22.7 125.965C23.165 126.055 23.64 126.105 24.115 126.115C24.585 126.115 25.105 126.115 25.6 126.115V127.08C25.095 127.08 24.615 127.08 24.085 127.065C23.56 127.045 23.035 126.98 22.52 126.87L22.7 125.965Z" fill="#27313A"/>
<path d="M28.095 126.105L31.095 126.1V127.095L28.095 127.085V126.105Z" fill="#27313A"/>
<path d="M33.595 126.1L36.595 126.11V127.08L33.595 127.09V126.1Z" fill="#27313A"/>
<path d="M39.095 126.12L42.095 126.145V127.045L39.095 127.07V126.12Z" fill="#27313A"/>
<path d="M44.595 126.17L47.595 126.21V126.98L44.595 127.02V126.17Z" fill="#27313A"/>
<path d="M50.095 126.25L53.095 126.31V126.88L50.095 126.94V126.25Z" fill="#27313A"/>
<path d="M55.595 126.37L58.595 126.46V126.735L55.595 126.82V126.37Z" fill="#27313A"/>
<path d="M61.095 126.535L62.67 126.595L61.095 126.655V126.535Z" fill="#27313A"/>
<path d="M149.405 23.0952C149.37 22.0952 149.325 21.0952 149.3 20.0952L149.515 20.0952C149.49 21.0952 149.445 22.0952 149.41 23.0952L149.405 23.0952Z" fill="#27313A"/>
<path d="M149.23 17.5952L149.145 14.5952L149.67 14.5952L149.585 17.5952L149.23 17.5952Z" fill="#27313A"/>
<path d="M148.97 12.1553C148.785 11.2053 148.45 10.2903 147.98 9.45528L148.625 9.10527C149.11 10.0253 149.44 11.0253 149.59 12.0503L148.975 12.1553L148.97 12.1553Z" fill="#27313A"/>
<path d="M146.53 7.55029C145.85 6.87529 145.07 6.3103 144.22 5.8853L144.62 5.1053C145.55 5.5903 146.395 6.2253 147.11 6.9903L146.53 7.55029Z" fill="#27313A"/>
<path d="M141.97 5.13013C141.505 5.04013 141.03 4.99013 140.555 4.98013C140.085 4.98013 139.565 4.98013 139.07 4.98013L139.07 4.01514C139.575 4.01514 140.055 4.01514 140.585 4.03014C141.11 4.05014 141.635 4.11513 142.15 4.22513L141.97 5.13013Z" fill="#27313A"/>
<path d="M136.575 4.99011L133.575 4.99512L133.575 4.00012L136.575 4.01012L136.575 4.99011Z" fill="#27313A"/>
<path d="M131.075 4.99512L128.075 4.98512L128.075 4.01512L131.075 4.00511L131.075 4.99512Z" fill="#27313A"/>
<path d="M125.575 4.9751L122.575 4.9501L122.575 4.05009L125.575 4.0251L125.575 4.9751Z" fill="#27313A"/>
<path d="M120.075 4.92529L117.075 4.8853L117.075 4.1153L120.075 4.0753L120.075 4.92529Z" fill="#27313A"/>
<path d="M114.575 4.84521L111.575 4.7852L111.575 4.21521L114.575 4.15521L114.575 4.84521Z" fill="#27313A"/>
<path d="M109.075 4.7251L106.075 4.6351L106.075 4.36011L109.075 4.2751L109.075 4.7251Z" fill="#27313A"/>
<path d="M103.575 4.5603L102 4.50031L103.575 4.44029L103.575 4.5603Z" fill="#27313A"/>
<path d="M136.854 9.57812H28.6915C24.2066 9.57812 20.5673 13.2174 20.5673 17.7024V112.421C20.5673 116.906 24.2066 120.545 28.6915 120.545H136.854C141.339 120.545 144.978 116.906 144.978 112.421V17.7024C144.978 13.2174 141.339 9.57812 136.854 9.57812Z" fill="white"/>
<path d="M136.865 121.123H28.7022C23.9069 121.123 20 117.216 20 112.421V17.7023C20 12.9069 23.9069 9 28.7022 9H136.865C141.66 9 145.567 12.9069 145.567 17.7023V112.432C145.567 117.227 141.66 121.134 136.865 121.134V121.123ZM28.6915 10.156C24.5277 10.156 21.1453 13.5384 21.1453 17.7023V112.432C21.1453 116.595 24.5277 119.978 28.6915 119.978H136.854C141.018 119.978 144.401 116.595 144.401 112.432V17.7023C144.401 13.5384 141.018 10.156 136.854 10.156H28.6915Z" fill="#27313A"/>
<path d="M144.989 27.7318C102.784 27.6355 22.4833 27.5177 20.6744 27.7318L20.4496 26.6079C21.6377 26.3296 124.406 26.5437 145 26.5865V27.7425L144.989 27.7318Z" fill="#27313A"/>
<path d="M37.0619 43.2632H75.7351C77.7474 43.2632 79.3744 44.8902 79.3744 46.9025V47.5661C79.3744 49.5785 77.7474 51.2055 75.7351 51.2055H37.0619C35.0496 51.2055 33.4226 49.5785 33.4226 47.5661V46.9025C33.4226 44.8902 35.0496 43.2632 37.0619 43.2632Z" stroke="#27313A" stroke-width="1.07039"/>
<path d="M89.8107 43.2632H128.484C130.496 43.2632 132.123 44.8902 132.123 46.9025V47.5661C132.123 49.5785 130.496 51.2055 128.484 51.2055H89.8107C87.7984 51.2055 86.1714 49.5785 86.1714 47.5661V46.9025C86.1714 44.8902 87.7984 43.2632 89.8107 43.2632Z" stroke="#27313A" stroke-width="1.07039"/>
<path d="M40.077 78.6091C40.077 78.6091 45.9971 75.6491 45.9971 71.209V66.0289L40.077 63.8088L34.1569 66.0289V71.209C34.1569 75.6491 40.077 78.6091 40.077 78.6091Z" fill="#1CA98A"/>
<path d="M40.077 101.775C40.077 101.775 45.9971 98.8148 45.9971 94.3747V89.1947L40.077 86.9746L34.1569 89.1947V94.3747C34.1569 98.8148 40.077 101.775 40.077 101.775Z" fill="#1CA98A"/>
<path d="M38.9665 73.5127C38.8579 73.5127 38.741 73.4709 38.6491 73.3874L36.8697 71.6665C36.686 71.4995 36.6859 71.2071 36.8614 71.0317C37.0284 70.8562 37.3208 70.8479 37.4963 71.0233L38.9582 72.4351L42.3581 69.0852C42.5335 68.9098 42.8175 68.9182 42.993 69.0852C43.1684 69.2607 43.16 69.5447 42.993 69.7201L39.2756 73.3707C39.1921 73.4542 39.0751 73.5043 38.9582 73.5043L38.9665 73.5127Z" fill="white"/>
<path d="M38.9665 96.6782C38.8579 96.6782 38.741 96.6365 38.6491 96.5529L36.8697 94.8321C36.686 94.665 36.6859 94.3726 36.8614 94.1972C37.0284 94.0218 37.3208 94.0134 37.4963 94.1888L38.9582 95.6006L42.3581 92.2508C42.5335 92.0753 42.8175 92.0837 42.993 92.2508C43.1684 92.4262 43.16 92.7102 42.993 92.8857L39.2756 96.5362C39.1921 96.6198 39.0751 96.6699 38.9582 96.6699L38.9665 96.6782Z" fill="white"/>
<path d="M116.26 67.4968H57.3672C57.0461 67.4968 56.7892 67.2399 56.7892 66.9188C56.7892 66.5977 57.0461 66.3408 57.3672 66.3408H116.26C116.581 66.3408 116.838 66.5977 116.838 66.9188C116.838 67.2399 116.581 67.4968 116.26 67.4968Z" fill="#27313A"/>
<path d="M132.701 75.8352H57.3672C57.0461 75.8352 56.7892 75.5783 56.7892 75.2572C56.7892 74.9361 57.0461 74.6792 57.3672 74.6792H132.701C133.022 74.6792 133.279 74.9361 133.279 75.2572C133.279 75.5783 133.022 75.8352 132.701 75.8352Z" fill="#27313A"/>
<path d="M116.26 91.6233H57.3672C57.0461 91.6233 56.7892 91.3664 56.7892 91.0453C56.7892 90.7242 57.0461 90.4673 57.3672 90.4673H116.26C116.581 90.4673 116.838 90.7242 116.838 91.0453C116.838 91.3664 116.581 91.6233 116.26 91.6233Z" fill="#27313A"/>
<path d="M132.701 99.9724H57.3672C57.0461 99.9724 56.7892 99.7155 56.7892 99.3944C56.7892 99.0733 57.0461 98.8164 57.3672 98.8164H132.701C133.022 98.8164 133.279 99.0733 133.279 99.3944C133.279 99.7155 133.022 99.9724 132.701 99.9724Z" fill="#27313A"/>
<path d="M21.745 43.49C33.7544 43.49 43.49 33.7544 43.49 21.745C43.49 9.73557 33.7544 0 21.745 0C9.73556 0 0 9.73557 0 21.745C0 33.7544 9.73556 43.49 21.745 43.49Z" fill="#2E89F5"/>
<path d="M12.0454 27.7316C11.6723 28.0997 11.6723 28.6947 12.0454 29.0678L14.3901 31.3873C15.3331 32.4059 16.5331 30.4595 17.1786 29.9654C17.7433 29.446 19.13 30.0007 19.1804 30.7873C19.2762 31.6243 18.7417 33.7875 20.1284 33.7421H23.4463C24.843 33.8178 24.2984 31.589 24.4043 30.7722C24.4447 29.9704 25.8364 29.4561 26.3961 29.9654C27.0516 30.4797 28.2365 32.4059 29.1946 31.4025L31.5443 29.088C32.8503 27.6509 29.3963 26.8139 29.961 25.4323C30.1678 24.9633 30.3241 24.333 30.9443 24.3482C31.7208 24.2372 33.9597 24.8121 33.9395 23.4153L33.9496 20.1378C33.9496 19.6184 33.526 19.1948 32.9966 19.1948H30.9393C30.1728 19.1797 29.5879 17.7981 30.1274 17.2232C30.6115 16.5929 32.6083 15.4332 31.5847 14.46C30.8283 13.9759 28.9677 10.9656 27.8987 12.1304C27.0264 12.8767 26.2599 14.3743 24.959 13.4515C24.0766 13.2196 24.5304 11.3589 24.4245 10.7034C24.4245 10.1841 24.0009 9.7605 23.4715 9.7605H20.1536C19.6292 9.7605 19.2006 10.1841 19.2006 10.7034C19.0896 11.3035 19.5434 13.2397 18.7014 13.4616C17.3903 14.3692 16.6491 12.8817 15.7616 12.1153C14.6876 10.9505 12.832 13.9457 12.0656 14.4348C11.0268 15.3929 13.0438 16.5728 13.5027 17.193C14.0472 17.7779 13.422 19.1494 12.6707 19.1696H10.6335C10.1091 19.1696 9.68052 19.5881 9.68052 20.1125V23.3901C9.62001 24.9129 12.4589 24.1616 13.2304 24.3381C14.2641 26.4307 13.4068 26.234 12.0504 27.7366L12.0454 27.7316ZM17.1786 22.5934C16.16 16.5375 25.3271 15.0096 26.4263 20.9193C27.4449 26.9752 18.2778 28.5031 17.1786 22.5934Z" fill="white"/>
</svg>
