<svg width="130" height="111" viewBox="0 0 130 111" fill="none" xmlns="http://www.w3.org/2000/svg">
<path d="M13.2589 93.8064C13.2893 94.675 13.3284 95.5436 13.3501 96.4121H13.1633C13.185 95.5436 13.2241 94.675 13.2545 93.8064H13.2589Z" fill="#27313A"/>
<path d="M13.4107 98.5836L13.4846 101.189H13.0286L13.1024 98.5836H13.4107Z" fill="#27313A"/>
<path d="M13.6367 103.309C13.7973 104.134 14.0883 104.928 14.4966 105.654L13.9363 105.958C13.5151 105.159 13.2284 104.29 13.0981 103.4L13.6323 103.309H13.6367Z" fill="#27313A"/>
<path d="M15.756 107.308C16.3466 107.895 17.0241 108.385 17.7624 108.755L17.415 109.432C16.6072 109.011 15.8732 108.459 15.2522 107.795L15.756 107.308Z" fill="#27313A"/>
<path d="M19.7166 109.41C20.1205 109.489 20.5331 109.532 20.9457 109.541C21.3539 109.541 21.8056 109.541 22.2355 109.541V110.379C21.7969 110.379 21.38 110.379 20.9196 110.366C20.4636 110.348 20.0076 110.292 19.5603 110.196L19.7166 109.41Z" fill="#27313A"/>
<path d="M24.4026 109.532L27.0083 109.528V110.392L24.4026 110.383V109.532Z" fill="#27313A"/>
<path d="M29.1799 109.528L31.7857 109.536V110.379L29.1799 110.388V109.528Z" fill="#27313A"/>
<path d="M33.957 109.545L36.5628 109.567V110.348L33.957 110.37V109.545Z" fill="#27313A"/>
<path d="M38.7341 109.588L41.3399 109.623V110.292L38.7341 110.327V109.588Z" fill="#27313A"/>
<path d="M43.5115 109.658L46.1172 109.71V110.205L43.5115 110.257V109.658Z" fill="#27313A"/>
<path d="M48.2886 109.762L50.8943 109.84V110.079L48.2886 110.153V109.762Z" fill="#27313A"/>
<path d="M53.0657 109.905L54.4337 109.958L53.0657 110.01V109.905Z" fill="#27313A"/>
<path d="M129.77 20.06C129.739 19.1914 129.7 18.3228 129.678 17.4543L129.865 17.4543C129.844 18.3228 129.804 19.1914 129.774 20.06L129.77 20.06Z" fill="#27313A"/>
<path d="M129.618 15.2828L129.544 12.6771L130 12.6771L129.926 15.2828L129.618 15.2828Z" fill="#27313A"/>
<path d="M129.392 10.5578C129.231 9.73265 128.94 8.9379 128.532 8.21264L129.092 7.90863C129.514 8.70773 129.8 9.5763 129.93 10.4666L129.396 10.5578L129.392 10.5578Z" fill="#27313A"/>
<path d="M127.273 6.55804C126.682 5.97175 126.004 5.48101 125.266 5.11187L125.614 4.43438C126.421 4.85564 127.155 5.40718 127.776 6.07164L127.273 6.55804Z" fill="#27313A"/>
<path d="M123.312 4.45599C122.908 4.37782 122.495 4.3344 122.083 4.32571C121.675 4.32571 121.223 4.32571 120.793 4.32571L120.793 3.48754C121.232 3.48754 121.649 3.48754 122.109 3.50057C122.565 3.51794 123.021 3.57439 123.468 3.66993L123.312 4.45599Z" fill="#27313A"/>
<path d="M118.626 4.3344L116.02 4.33874L116.02 3.47451L118.626 3.4832L118.626 4.3344Z" fill="#27313A"/>
<path d="M113.849 4.33875L111.243 4.33006L111.243 3.48754L113.849 3.47885L113.849 4.33875Z" fill="#27313A"/>
<path d="M109.072 4.32135L106.466 4.29964L106.466 3.51791L109.072 3.4962L109.072 4.32135Z" fill="#27313A"/>
<path d="M104.294 4.27802L101.689 4.24328L101.689 3.57447L104.294 3.53973L104.294 4.27802Z" fill="#27313A"/>
<path d="M99.5173 4.20844L96.9116 4.15631L96.9116 3.66123L99.5173 3.60911L99.5173 4.20844Z" fill="#27313A"/>
<path d="M94.74 4.10425L92.1343 4.02608L92.1343 3.78723L94.74 3.71339L94.74 4.10425Z" fill="#27313A"/>
<path d="M89.9629 3.961L88.5949 3.90889L89.9629 3.85676L89.9629 3.961Z" fill="#27313A"/>
<path d="M118.869 8.31934H24.9208C21.0253 8.31934 17.8643 11.4804 17.8643 15.3759V97.6464C17.8643 101.542 21.0253 104.703 24.9208 104.703H118.869C122.764 104.703 125.925 101.542 125.925 97.6464V15.3759C125.925 11.4804 122.764 8.31934 118.869 8.31934Z" fill="white"/>
<path d="M118.878 105.205H24.9301C20.765 105.205 17.3716 101.811 17.3716 97.6463V15.3758C17.3716 11.2107 20.765 7.8172 24.9301 7.8172H118.878C123.043 7.8172 126.437 11.2107 126.437 15.3758V97.6556C126.437 101.821 123.043 105.214 118.878 105.214V105.205ZM24.9209 8.82129C21.3043 8.82129 18.3664 11.7592 18.3664 15.3758V97.6556C18.3664 101.272 21.3043 104.21 24.9209 104.21H118.869C122.485 104.21 125.423 101.272 125.423 97.6556V15.3758C125.423 11.7592 122.485 8.82129 118.869 8.82129H24.9209Z" fill="#27313A"/>
<path d="M125.934 24.0873C89.2757 24.0036 19.5284 23.9013 17.9572 24.0873L17.762 23.1111C18.7939 22.8693 108.056 23.0553 125.944 23.0925V24.0966L125.934 24.0873Z" fill="#27313A"/>
<path d="M32.1911 37.5775H65.7817C67.5296 37.5775 68.9427 38.9906 68.9427 40.7385V41.3149C68.9427 43.0628 67.5296 44.4759 65.7817 44.4759H32.1911C30.4432 44.4759 29.03 43.0628 29.03 41.3149V40.7385C29.03 38.9906 30.4432 37.5775 32.1911 37.5775Z" stroke="#27313A" stroke-width="1.07039"/>
<path d="M78.0077 37.5775H111.598C113.346 37.5775 114.759 38.9906 114.759 40.7385V41.3149C114.759 43.0628 113.346 44.4759 111.598 44.4759H78.0077C76.2598 44.4759 74.8467 43.0628 74.8467 41.3149V40.7385C74.8467 38.9906 76.2598 37.5775 78.0077 37.5775Z" stroke="#27313A" stroke-width="1.07039"/>
<path d="M34.81 68.2782C34.81 68.2782 39.9521 65.7071 39.9521 61.8506V57.3513L34.81 55.423L29.668 57.3513V61.8506C29.668 65.7071 34.81 68.2782 34.81 68.2782Z" fill="#1CA98A"/>
<path d="M34.81 88.3993C34.81 88.3993 39.9521 85.8283 39.9521 81.9717V77.4724L34.81 75.5441L29.668 77.4724V81.9717C29.668 85.8283 34.81 88.3993 34.81 88.3993Z" fill="#1CA98A"/>
<path d="M33.8454 63.8515C33.7511 63.8515 33.6495 63.8152 33.5697 63.7427L32.0242 62.248C31.8646 62.1029 31.8646 61.8489 32.0169 61.6965C32.1621 61.5442 32.416 61.5369 32.5684 61.6893L33.8382 62.9155L36.7913 60.0059C36.9437 59.8536 37.1903 59.8608 37.3427 60.0059C37.4951 60.1583 37.4878 60.405 37.3427 60.5574L34.1139 63.7282C34.0413 63.8007 33.9397 63.8443 33.8382 63.8443L33.8454 63.8515Z" fill="white"/>
<path d="M33.8454 83.9727C33.7511 83.9727 33.6495 83.9364 33.5697 83.8638L32.0242 82.3691C31.8646 82.224 31.8646 81.9701 32.0169 81.8177C32.1621 81.6653 32.416 81.6581 32.5684 81.8104L33.8382 83.0367L36.7913 80.1271C36.9437 79.9747 37.1903 79.982 37.3427 80.1271C37.4951 80.2795 37.4878 80.5261 37.3427 80.6785L34.1139 83.8493C34.0413 83.9219 33.9397 83.9654 33.8382 83.9654L33.8454 83.9727Z" fill="white"/>
<path d="M100.981 58.6263H49.828C49.549 58.6263 49.3259 58.4032 49.3259 58.1243C49.3259 57.8454 49.549 57.6223 49.828 57.6223H100.981C101.26 57.6223 101.483 57.8454 101.483 58.1243C101.483 58.4032 101.26 58.6263 100.981 58.6263Z" fill="#27313A"/>
<path d="M115.261 65.8688H49.828C49.549 65.8688 49.3259 65.6456 49.3259 65.3667C49.3259 65.0878 49.549 64.8647 49.828 64.8647H115.261C115.54 64.8647 115.763 65.0878 115.763 65.3667C115.763 65.6456 115.54 65.8688 115.261 65.8688Z" fill="#27313A"/>
<path d="M100.981 79.582H49.828C49.549 79.582 49.3259 79.3589 49.3259 79.08C49.3259 78.8011 49.549 78.5779 49.828 78.5779H100.981C101.26 78.5779 101.483 78.8011 101.483 79.08C101.483 79.3589 101.26 79.582 100.981 79.582Z" fill="#27313A"/>
<path d="M115.261 86.8339H49.828C49.549 86.8339 49.3259 86.6107 49.3259 86.3318C49.3259 86.0529 49.549 85.8298 49.828 85.8298H115.261C115.54 85.8298 115.763 86.0529 115.763 86.3318C115.763 86.6107 115.54 86.8339 115.261 86.8339Z" fill="#27313A"/>
<path d="M18.8872 37.7745C29.3184 37.7745 37.7744 29.3184 37.7744 18.8872C37.7744 8.4561 29.3184 0 18.8872 0C8.4561 0 0 8.4561 0 18.8872C0 29.3184 8.4561 37.7745 18.8872 37.7745Z" fill="#2E89F5"/>
<path d="M10.4624 24.0871C10.1383 24.4068 10.1383 24.9236 10.4624 25.2477L12.499 27.2624C13.318 28.1471 14.3603 26.4565 14.9209 26.0273C15.4115 25.5762 16.6159 26.058 16.6597 26.7412C16.7429 27.4682 16.2786 29.3471 17.4831 29.3077H20.3649C21.5781 29.3734 21.1051 27.4376 21.1971 26.7281C21.2321 26.0317 22.4409 25.585 22.9271 26.0273C23.4964 26.474 24.5256 28.1471 25.3578 27.2755L27.3987 25.2652C28.5331 24.017 25.533 23.29 26.0235 22.0899C26.2031 21.6826 26.3388 21.1352 26.8776 21.1483C27.552 21.0519 29.4966 21.5512 29.4791 20.3381L29.4879 17.4912C29.4879 17.0401 29.12 16.6722 28.6601 16.6722H26.8732C26.2075 16.6591 25.6994 15.459 26.168 14.9598C26.5885 14.4123 28.3229 13.405 27.4338 12.5597C26.7768 12.1392 25.1607 9.52453 24.2322 10.5362C23.4745 11.1844 22.8088 12.4852 21.6788 11.6837C20.9124 11.4823 21.3066 9.86615 21.2146 9.29679C21.2146 8.84568 20.8467 8.47778 20.3868 8.47778H17.505C17.0495 8.47778 16.6772 8.84568 16.6772 9.29679C16.5808 9.81797 16.975 11.4998 16.2436 11.6925C15.1049 12.4808 14.4611 11.1888 13.6902 10.5231C12.7573 9.51139 11.1456 12.1129 10.4799 12.5378C9.57768 13.3699 11.3296 14.3948 11.7281 14.9335C12.2011 15.4415 11.6581 16.6328 11.0055 16.6503H9.23606C8.78057 16.6503 8.4083 17.0138 8.4083 17.4693V20.3162C8.35574 21.6388 10.8215 20.9862 11.4916 21.1395C12.3895 22.9571 11.6449 22.7863 10.4668 24.0915L10.4624 24.0871ZM14.9209 19.6242C14.0362 14.3641 21.9986 13.0371 22.9533 18.1701C23.838 23.4301 15.8757 24.7572 14.9209 19.6242Z" fill="white"/>
</svg>
