<svg width="130" height="110" viewBox="0 0 130 110" fill="none" xmlns="http://www.w3.org/2000/svg">
<g clip-path="url(#clip0_73_15596)">
<path d="M104.411 6.05219H11.9052C8.07361 6.05219 4.96045 9.15186 4.96045 12.9669V93.6269C4.96045 97.4504 8.07361 100.542 11.9052 100.542H104.411C108.251 100.542 111.355 97.4419 111.355 93.6269V12.9669C111.355 9.15186 108.242 6.05219 104.411 6.05219Z" fill="white" stroke="#27313A"/>
<path d="M13.1796 15.2832C14.1478 15.2832 14.9328 14.5016 14.9328 13.5375C14.9328 12.5733 14.1478 11.7917 13.1796 11.7917C12.2112 11.7917 11.4263 12.5733 11.4263 13.5375C11.4263 14.5016 12.2112 15.2832 13.1796 15.2832Z" fill="white" stroke="#27313A"/>
<path d="M19.3717 15.2832C20.3399 15.2832 21.125 14.5016 21.125 13.5375C21.125 12.5733 20.3399 11.7917 19.3717 11.7917C18.4034 11.7917 17.6184 12.5733 17.6184 13.5375C17.6184 14.5016 18.4034 15.2832 19.3717 15.2832Z" fill="white" stroke="#27313A"/>
<path d="M25.555 15.2832C26.5234 15.2832 27.3083 14.5016 27.3083 13.5375C27.3083 12.5733 26.5234 11.7917 25.555 11.7917C24.5867 11.7917 23.8018 12.5733 23.8018 13.5375C23.8018 14.5016 24.5867 15.2832 25.555 15.2832Z" fill="white" stroke="#27313A"/>
<path d="M0.795258 89.4457C0.820916 90.2972 0.863676 91.1488 0.880781 92.0004H0.692627C0.718285 91.1488 0.752495 90.2972 0.778152 89.4457H0.795258Z" fill="#27313A"/>
<path d="M0.940767 94.1293L1.01774 96.684H0.564453L0.632876 94.1293H0.932215H0.940767Z" fill="#27313A"/>
<path d="M1.17163 98.7618C1.33413 99.5708 1.61636 100.346 2.01834 101.061L1.46242 101.359C1.04334 100.576 0.761102 99.724 0.632812 98.8469L1.15452 98.7618H1.17163Z" fill="#27313A"/>
<path d="M3.2585 102.688C3.84008 103.267 4.50719 103.743 5.23416 104.11L4.89206 104.774C4.09666 104.357 3.37824 103.82 2.76245 103.164L3.2585 102.688Z" fill="#27313A"/>
<path d="M7.15858 104.748C7.56055 104.825 7.96253 104.868 8.37305 104.876H9.63888V105.694C9.21125 105.694 8.80064 105.694 8.34739 105.685C7.90266 105.668 7.44937 105.608 7.01318 105.515L7.16713 104.748H7.15858Z" fill="#27313A"/>
<path d="M11.7683 104.867H14.3341V105.711H11.7683V104.867Z" fill="#27313A"/>
<path d="M16.4724 104.859H19.0382V105.694H16.4724V104.859Z" fill="#27313A"/>
<path d="M21.1763 104.876L23.7421 104.902V105.668L21.1763 105.694V104.885V104.876Z" fill="#27313A"/>
<path d="M25.8804 104.919L28.4462 104.953V105.608L25.8804 105.642V104.919Z" fill="#27313A"/>
<path d="M30.5842 104.987L33.15 105.038V105.523L30.5842 105.574V104.987Z" fill="#27313A"/>
<path d="M35.2881 105.089L37.8539 105.166V105.395L35.2881 105.472V105.089Z" fill="#27313A"/>
<path d="M39.9922 105.234L41.335 105.285L39.9922 105.336V105.234Z" fill="#27313A"/>
<path d="M115.52 17.1481C115.486 16.2965 115.452 15.4449 115.435 14.5934H115.614C115.597 15.4449 115.555 16.2965 115.529 17.1481H115.52Z" fill="#27313A"/>
<path d="M115.367 12.4645L115.298 9.90979H115.743L115.674 12.4645H115.367Z" fill="#27313A"/>
<path d="M115.153 7.83201C114.999 7.02302 114.708 6.23958 114.306 5.53279L114.862 5.23474C115.281 6.01818 115.563 6.86974 115.683 7.73834L115.161 7.82349L115.153 7.83201Z" fill="#27313A"/>
<path d="M113.057 3.90627C112.476 3.32721 111.809 2.85034 111.082 2.48417L111.424 1.81995C112.219 2.2287 112.946 2.7737 113.553 3.42088L113.057 3.89776V3.90627Z" fill="#27313A"/>
<path d="M109.166 1.84541C108.772 1.76877 108.362 1.72619 107.951 1.71768H106.686V0.891663C107.113 0.891663 107.524 0.891663 107.977 0.900178C108.422 0.917209 108.875 0.968304 109.311 1.06198L109.157 1.82838L109.166 1.84541Z" fill="#27313A"/>
<path d="M104.547 1.72622H101.982V0.883179H104.547V1.72622Z" fill="#27313A"/>
<path d="M99.8434 1.73474H97.2776V0.900208H99.8434V1.73474Z" fill="#27313A"/>
<path d="M95.1395 1.71774L92.5737 1.69219V0.925785L95.1395 0.908752V1.71774Z" fill="#27313A"/>
<path d="M90.4354 1.67518L87.8696 1.64112V0.985417L90.4354 0.951355V1.67518Z" fill="#27313A"/>
<path d="M85.7316 1.60692L83.1658 1.55583V1.07044L85.7316 1.01935V1.60692Z" fill="#27313A"/>
<path d="M81.0277 1.50485L78.4619 1.42821V1.19828L81.0277 1.12164V1.50485Z" fill="#27313A"/>
<path d="M76.3237 1.36L74.981 1.30891L76.3237 1.25781V1.36Z" fill="#27313A"/>
<path d="M103.324 29.0018H13.0001C12.0554 29.0018 11.2896 29.7643 11.2896 30.7049V50.4101C11.2896 51.3506 12.0554 52.1132 13.0001 52.1132H103.324C104.269 52.1132 105.035 51.3506 105.035 50.4101V30.7049C105.035 29.7643 104.269 29.0018 103.324 29.0018Z" fill="#EBEFF3" stroke="#27313A"/>
<path d="M52.3593 76.6041H13.0001C12.0554 76.6041 11.2896 77.3666 11.2896 78.3072V92.4262C11.2896 93.3663 12.0554 94.1293 13.0001 94.1293H52.3593C53.3039 94.1293 54.0698 93.3663 54.0698 92.4262V78.3072C54.0698 77.3666 53.3039 76.6041 52.3593 76.6041Z" fill="white" stroke="#27313A"/>
<path d="M101.417 76.6041H62.0577C61.113 76.6041 60.3472 77.3666 60.3472 78.3072V92.4262C60.3472 93.3663 61.113 94.1293 62.0577 94.1293H101.417C102.361 94.1293 103.128 93.3663 103.128 92.4262V78.3072C103.128 77.3666 102.361 76.6041 101.417 76.6041Z" fill="#EBEFF3" stroke="#27313A"/>
<path d="M111.364 109.245C121.636 109.245 129.957 100.95 129.957 90.7316C129.957 80.5128 121.627 72.2186 111.364 72.2186C101.101 72.2186 92.7705 80.5128 92.7705 90.7316C92.7705 100.95 101.101 109.245 111.364 109.245Z" fill="#2E89F5"/>
<path d="M99.2705 88.8666L107.797 85.1282V87.7085L99.3902 91.0892V89.4883L107.797 92.869V95.5088L99.2705 91.7704V88.8581V88.8666Z" fill="#F5F7F9"/>
<path d="M110.953 99.7581H108.858L111.766 81.6964H113.861L110.953 99.7581Z" fill="#F5F7F9"/>
<path d="M123.449 91.779L114.922 95.5174V92.9371L123.329 89.5564V91.1573L114.922 87.7766V85.1367L123.449 88.8752V91.7875V91.779Z" fill="#F5F7F9"/>
<path d="M51.6922 60.0923H15.5659C13.2041 60.0923 11.2896 61.9987 11.2896 64.3502V64.3757C11.2896 66.7272 13.2041 68.6335 15.5659 68.6335H51.6922C54.0539 68.6335 55.9685 66.7272 55.9685 64.3757V64.3502C55.9685 61.9987 54.0539 60.0923 51.6922 60.0923Z" fill="#EBEFF3" stroke="#27313A"/>
<path d="M100.75 60.0923H64.6235C62.2618 60.0923 60.3472 61.9987 60.3472 64.3502V64.3757C60.3472 66.7272 62.2618 68.6335 64.6235 68.6335H100.75C103.111 68.6335 105.026 66.7272 105.026 64.3757V64.3502C105.026 61.9987 103.111 60.0923 100.75 60.0923Z" fill="#EBEFF3" stroke="#27313A"/>
<path d="M32.0381 83.3059H48.3052" stroke="#18B462" stroke-linecap="round" stroke-linejoin="round"/>
<path d="M32.0381 87.666H41.2151" stroke="#18B462" stroke-linecap="round" stroke-linejoin="round"/>
<path d="M17.054 85.4859H18.927L20.0046 83.4677L21.279 85.4859L22.6217 84.5406L23.6309 85.4859H25.1276" stroke="#18B462" stroke-linecap="round" stroke-linejoin="round"/>
<path d="M17.302 86.7888C17.5842 87.5041 18.0546 88.1343 18.6704 88.5856C19.3461 89.0795 20.1671 89.3605 21.0652 89.3605C22.7329 89.3605 24.1612 88.3642 24.777 86.9421" stroke="#4A5866" stroke-linecap="round" stroke-linejoin="round"/>
<path d="M17.2935 83.9872C17.8579 82.4544 19.3375 81.3814 21.0737 81.3814H24.1014C24.6658 81.3814 25.1106 81.8327 25.1106 82.3777V83.9872" stroke="#4A5866" stroke-linecap="round" stroke-linejoin="round"/>
<path d="M4.9519 21.0311H111.364" stroke="#27313A"/>
</g>
<defs>
<clipPath id="clip0_73_15596">
<rect width="130" height="109" fill="white" transform="translate(0 0.5)"/>
</clipPath>
</defs>
</svg>
