<svg width="200" height="150" viewBox="0 0 200 150" fill="none" xmlns="http://www.w3.org/2000/svg">
<g clip-path="url(#clip0_49_2224)">
<path d="M47.505 125.55C43.05 125.51 39.455 121.89 39.455 117.43V31.365C39.455 27.61 43.155 24.565 47.72 24.565H152.285C156.85 24.565 160.55 27.61 160.55 31.365V118.32C160.55 122.83 156.875 126.475 152.365 126.44L47.515 125.55H47.505Z" fill="white" stroke="#27313A" stroke-linecap="round" stroke-linejoin="round"/>
<path d="M39.455 39.865H160.545" stroke="#27313A" stroke-linecap="round" stroke-linejoin="round"/>
<path d="M51.205 33.85C52.2157 33.85 53.035 33.0307 53.035 32.02C53.035 31.0093 52.2157 30.19 51.205 30.19C50.1943 30.19 49.375 31.0093 49.375 32.02C49.375 33.0307 50.1943 33.85 51.205 33.85Z" fill="#27313A"/>
<path d="M59.395 33.85C60.4057 33.85 61.225 33.0307 61.225 32.02C61.225 31.0093 60.4057 30.19 59.395 30.19C58.3843 30.19 57.565 31.0093 57.565 32.02C57.565 33.0307 58.3843 33.85 59.395 33.85Z" fill="#27313A"/>
<path d="M68.705 33.85C69.7157 33.85 70.535 33.0307 70.535 32.02C70.535 31.0093 69.7157 30.19 68.705 30.19C67.6943 30.19 66.875 31.0093 66.875 32.02C66.875 33.0307 67.6943 33.85 68.705 33.85Z" fill="#27313A"/>
<path d="M78.025 103.83H122.435" stroke="#27313A" stroke-linecap="round" stroke-linejoin="round"/>
<path d="M78.025 110.275H108.97" stroke="#27313A" stroke-linecap="round" stroke-linejoin="round"/>
<path d="M78.025 79.285H122.435" stroke="#27313A" stroke-linecap="round" stroke-linejoin="round"/>
<path d="M78.025 85.73H108.97" stroke="#27313A" stroke-linecap="round" stroke-linejoin="round"/>
<path d="M78.025 54.085H122.435" stroke="#27313A" stroke-linecap="round" stroke-linejoin="round"/>
<path d="M78.025 60.525H108.97" stroke="#27313A" stroke-linecap="round" stroke-linejoin="round"/>
<path d="M98.49 13.99L101.49 13.91V14.07L98.49 13.99Z" fill="#27313A"/>
<path d="M103.99 13.855L106.99 13.795V14.18L103.99 14.12V13.855Z" fill="#27313A"/>
<path d="M109.49 13.745L112.49 13.705V14.27L109.49 14.235V13.745Z" fill="#27313A"/>
<path d="M114.99 13.675L117.99 13.635V14.34L114.99 14.305V13.675Z" fill="#27313A"/>
<path d="M120.49 13.605L123.49 13.57V14.41L120.49 14.37V13.605Z" fill="#27313A"/>
<path d="M125.99 13.56L128.99 13.545V14.435L125.99 14.42V13.56Z" fill="#27313A"/>
<path d="M131.49 13.535L134.49 13.525V14.455L131.49 14.445V13.535Z" fill="#27313A"/>
<path d="M136.99 13.51L139.99 13.5V14.48L136.99 14.465V13.51Z" fill="#27313A"/>
<path d="M142.49 13.49L145.49 13.5V14.475L142.49 14.49V13.49Z" fill="#27313A"/>
<path d="M147.99 13.51L150.99 13.525V14.455L147.99 14.465V13.51Z" fill="#27313A"/>
<path d="M153.49 13.535L156.49 13.545V14.43L153.49 14.445V13.535Z" fill="#27313A"/>
<path d="M159.025 13.6C160.055 13.69 161.08 13.895 162.055 14.23L161.795 15.02C160.87 14.73 159.92 14.535 158.955 14.465L159.025 13.605V13.6Z" fill="#27313A"/>
<path d="M164.4 15.3C165.29 15.82 166.12 16.445 166.86 17.155L166.385 17.665C165.665 17.01 164.87 16.44 164.02 15.975L164.4 15.305V15.3Z" fill="#27313A"/>
<path d="M168.53 19.095C169.12 19.935 169.61 20.84 169.98 21.79L169.465 22C169.085 21.1 168.595 20.245 168.015 19.46L168.53 19.09V19.095Z" fill="#27313A"/>
<path d="M170.675 24.245C170.76 24.75 170.815 25.255 170.845 25.765C170.875 26.275 170.86 26.785 170.845 27.28H170.475C170.465 26.775 170.46 26.285 170.41 25.795C170.365 25.305 170.29 24.82 170.19 24.34L170.675 24.245Z" fill="#27313A"/>
<path d="M170.795 29.78L170.73 32.78H170.59L170.53 29.78H170.795Z" fill="#27313A"/>
<path d="M170.665 35.28L170.66 35.315V35.28H170.665Z" fill="#27313A"/>
<path d="M29.34 117.415C29.375 118.415 29.42 119.415 29.445 120.415H29.23C29.255 119.415 29.3 118.415 29.335 117.415H29.34Z" fill="#27313A"/>
<path d="M29.515 122.915L29.6 125.915H29.075L29.16 122.915H29.515Z" fill="#27313A"/>
<path d="M29.775 128.355C29.96 129.305 30.295 130.22 30.765 131.055L30.12 131.405C29.635 130.485 29.305 129.485 29.155 128.46L29.77 128.355H29.775Z" fill="#27313A"/>
<path d="M32.215 132.96C32.895 133.635 33.675 134.2 34.525 134.625L34.125 135.405C33.195 134.92 32.35 134.285 31.635 133.52L32.215 132.96Z" fill="#27313A"/>
<path d="M36.775 135.38C37.24 135.47 37.715 135.52 38.19 135.53C38.66 135.53 39.18 135.53 39.675 135.53V136.495C39.17 136.495 38.69 136.495 38.16 136.48C37.635 136.46 37.11 136.395 36.595 136.285L36.775 135.38Z" fill="#27313A"/>
<path d="M42.17 135.52L45.17 135.515V136.51L42.17 136.5V135.52Z" fill="#27313A"/>
<path d="M47.67 135.515L50.67 135.525V136.495L47.67 136.505V135.515Z" fill="#27313A"/>
<path d="M53.17 135.535L56.17 135.56V136.46L53.17 136.485V135.535Z" fill="#27313A"/>
<path d="M58.67 135.585L61.67 135.625V136.395L58.67 136.435V135.585Z" fill="#27313A"/>
<path d="M64.17 135.665L67.17 135.725V136.295L64.17 136.355V135.665Z" fill="#27313A"/>
<path d="M69.67 135.785L72.67 135.875V136.15L69.67 136.235V135.785Z" fill="#27313A"/>
<path d="M75.17 135.95L76.745 136.01L75.17 136.07V135.95Z" fill="#27313A"/>
<path d="M149.615 54.105L143.795 57.78C143.515 57.955 143.195 58.045 142.875 58.045C142.555 58.045 142.235 57.955 141.955 57.78L136.135 54.105" stroke="white" stroke-linecap="round" stroke-linejoin="round"/>
<path d="M84.7681 46.4117L46.9104 50.3975C44.7508 50.6249 43.1843 52.56 43.4117 54.7198L50.0117 117.412C50.2391 119.571 52.1742 121.138 54.3339 120.91L92.1916 116.925C94.3512 116.697 95.9177 114.762 95.6903 112.602L89.0903 49.9106C88.8629 47.7508 86.9278 46.1843 84.7681 46.4117Z" fill="#A987FC"/>
<path d="M53.3086 63.3942L80.2394 60.5543" stroke="white" stroke-width="0.902297" stroke-miterlimit="10" stroke-linecap="round"/>
<path d="M77.2164 68.7274L57.9617 70.7546C55.8411 70.9778 54.3031 72.8779 54.5263 74.9985C54.7496 77.1191 56.6496 78.6573 58.7702 78.434L78.0249 76.4068C80.1454 76.1835 81.6835 74.2834 81.4602 72.1628C81.237 70.0422 79.3369 68.5041 77.2164 68.7274Z" fill="white"/>
<path d="M56.0581 89.4754L82.9937 86.6403" stroke="white" stroke-width="0.902297" stroke-miterlimit="10" stroke-linecap="round"/>
<path d="M79.9659 94.8138L60.7112 96.841C58.5906 97.0643 57.0526 98.9643 57.2758 101.085C57.4991 103.206 59.3991 104.744 61.5197 104.52L80.7744 102.493C82.8949 102.27 84.433 100.37 84.2097 98.2493C83.9865 96.1286 82.0865 94.5905 79.9659 94.8138Z" fill="white"/>
<path d="M152.11 55.4628L122.998 54.8537C121.338 54.8189 119.963 56.1371 119.929 57.7979L118.92 106.006C118.885 107.667 120.203 109.042 121.864 109.076L150.975 109.686C152.636 109.72 154.011 108.402 154.045 106.741L155.054 58.5328C155.089 56.872 153.771 55.4975 152.11 55.4628Z" fill="#C9D3DB"/>
<path d="M126.606 65.3307L147.316 65.7605" stroke="white" stroke-width="0.902297" stroke-miterlimit="10" stroke-linecap="round"/>
<path d="M144.237 71.6726L129.431 71.3629C127.8 71.3287 126.451 72.623 126.417 74.2537C126.382 75.8844 127.677 77.234 129.307 77.2682L144.114 77.5779C145.744 77.6121 147.094 76.3178 147.128 74.6871C147.162 73.0564 145.868 71.7068 144.237 71.6726Z" fill="white"/>
<path d="M126.189 85.3869L146.902 85.8208" stroke="white" stroke-width="0.902297" stroke-miterlimit="10" stroke-linecap="round"/>
<path d="M143.82 91.7328L129.014 91.423C127.383 91.3889 126.033 92.6832 125.999 94.3139C125.965 95.9446 127.259 97.2942 128.89 97.3283L143.696 97.6381C145.327 97.6722 146.677 96.3779 146.711 94.7472C146.745 93.1165 145.451 91.7669 143.82 91.7328Z" fill="white"/>
</g>
<defs>
<clipPath id="clip0_49_2224">
<rect width="200" height="150" fill="white"/>
</clipPath>
</defs>
</svg>