<svg width="130" height="114" viewBox="0 0 130 114" fill="none" xmlns="http://www.w3.org/2000/svg">
<path d="M16.8979 103.244C12.8132 103.208 9.51709 99.8885 9.51709 95.7992V16.889C9.51709 13.4462 12.9095 10.6543 17.095 10.6543H112.967C117.153 10.6543 120.545 13.4462 120.545 16.889V96.6152C120.545 100.75 117.176 104.092 113.041 104.06L16.907 103.244H16.8979Z" fill="white" stroke="#27313A" stroke-linecap="round" stroke-linejoin="round"/>
<path d="M9.51709 24.6824H120.541" stroke="#27313A" stroke-linecap="round" stroke-linejoin="round"/>
<path d="M20.2902 19.1674C21.2168 19.1674 21.968 18.4162 21.968 17.4896C21.968 16.5629 21.2168 15.8117 20.2902 15.8117C19.3635 15.8117 18.6123 16.5629 18.6123 17.4896C18.6123 18.4162 19.3635 19.1674 20.2902 19.1674Z" fill="#27313A"/>
<path d="M27.7992 19.1674C28.7259 19.1674 29.4771 18.4162 29.4771 17.4896C29.4771 16.5629 28.7259 15.8117 27.7992 15.8117C26.8725 15.8117 26.1213 16.5629 26.1213 17.4896C26.1213 18.4162 26.8725 19.1674 27.7992 19.1674Z" fill="#27313A"/>
<path d="M36.3353 19.1674C37.262 19.1674 38.0132 18.4162 38.0132 17.4896C38.0132 16.5629 37.262 15.8117 36.3353 15.8117C35.4087 15.8117 34.6575 16.5629 34.6575 17.4896C34.6575 18.4162 35.4087 19.1674 36.3353 19.1674Z" fill="#27313A"/>
<path d="M44.8804 83.3298H85.5985" stroke="#27313A" stroke-linecap="round" stroke-linejoin="round"/>
<path d="M44.8804 89.2391H73.2528" stroke="#27313A" stroke-linecap="round" stroke-linejoin="round"/>
<path d="M44.8804 60.8254H85.5985" stroke="#27313A" stroke-linecap="round" stroke-linejoin="round"/>
<path d="M44.8804 66.7345H73.2528" stroke="#27313A" stroke-linecap="round" stroke-linejoin="round"/>
<path d="M44.8804 37.7203H85.5985" stroke="#27313A" stroke-linecap="round" stroke-linejoin="round"/>
<path d="M44.8804 43.6249H73.2528" stroke="#27313A" stroke-linecap="round" stroke-linejoin="round"/>
<path d="M63.6445 0.95842L66.3951 0.885071V1.03177L63.6445 0.95842Z" fill="#27313A"/>
<path d="M68.6873 0.834675L71.4379 0.779663V1.13266L68.6873 1.07764V0.834675Z" fill="#27313A"/>
<path d="M73.73 0.733818L76.4806 0.697144V1.21517L73.73 1.18308V0.733818Z" fill="#27313A"/>
<path d="M78.7727 0.669609L81.5233 0.632935V1.27933L78.7727 1.24724V0.669609Z" fill="#27313A"/>
<path d="M83.8154 0.605454L86.566 0.573364V1.34353L83.8154 1.30686V0.605454Z" fill="#27313A"/>
<path d="M88.8584 0.564168L91.609 0.550415V1.36643L88.8584 1.35267V0.564168Z" fill="#27313A"/>
<path d="M93.9011 0.541273L96.6517 0.532104V1.38479L93.9011 1.37562V0.541273Z" fill="#27313A"/>
<path d="M98.9438 0.518324L101.694 0.509155V1.40769L98.9438 1.39393V0.518324Z" fill="#27313A"/>
<path d="M103.987 0.5L106.737 0.509169V1.40312L103.987 1.41687V0.5Z" fill="#27313A"/>
<path d="M109.029 0.518372L111.78 0.532124V1.38481L109.029 1.39398V0.518372Z" fill="#27313A"/>
<path d="M114.072 0.54126L116.823 0.550429V1.36186L114.072 1.37561V0.54126Z" fill="#27313A"/>
<path d="M119.147 0.60083C120.091 0.683348 121.031 0.871305 121.925 1.17846L121.687 1.90278C120.839 1.63689 119.968 1.4581 119.083 1.39392L119.147 0.605414V0.60083Z" fill="#27313A"/>
<path d="M124.075 2.15955C124.891 2.63632 125.652 3.20936 126.33 3.86034L125.895 4.32794C125.235 3.72739 124.506 3.20478 123.727 2.77843L124.075 2.16413V2.15955Z" fill="#27313A"/>
<path d="M127.862 5.63911C128.403 6.40927 128.852 7.23904 129.191 8.11007L128.719 8.30261C128.371 7.47743 127.921 6.6935 127.39 5.97376L127.862 5.63452V5.63911Z" fill="#27313A"/>
<path d="M129.828 10.3609C129.906 10.8239 129.957 11.2869 129.984 11.7545C130.012 12.2221 129.998 12.6897 129.984 13.1436H129.645C129.636 12.6806 129.631 12.2313 129.585 11.782C129.544 11.3328 129.475 10.8881 129.384 10.448L129.828 10.3609Z" fill="#27313A"/>
<path d="M129.938 15.4358L129.878 18.1864H129.75L129.695 15.4358H129.938Z" fill="#27313A"/>
<path d="M129.819 20.4786L129.815 20.5107V20.4786H129.819Z" fill="#27313A"/>
<path d="M0.242702 95.7855C0.274792 96.7024 0.316051 97.6193 0.338972 98.5361H0.141846C0.164767 97.6193 0.206026 96.7024 0.238116 95.7855H0.242702Z" fill="#27313A"/>
<path d="M0.403421 100.828L0.481355 103.579H0L0.0779329 100.828H0.403421Z" fill="#27313A"/>
<path d="M0.641455 105.816C0.811076 106.687 1.11823 107.526 1.54915 108.292L0.957776 108.612C0.513095 107.769 0.210528 106.852 0.072998 105.912L0.636872 105.816H0.641455Z" fill="#27313A"/>
<path d="M2.87846 110.038C3.50193 110.657 4.21709 111.175 4.99643 111.565L4.62968 112.28C3.77699 111.835 3.00224 111.253 2.34668 110.552L2.87846 110.038Z" fill="#27313A"/>
<path d="M7.05981 112.257C7.48616 112.34 7.92166 112.385 8.35718 112.395C8.78811 112.395 9.26488 112.395 9.71873 112.395V113.279C9.25571 113.279 8.81561 113.279 8.32967 113.266C7.84832 113.247 7.36696 113.188 6.89478 113.087L7.05981 112.257Z" fill="#27313A"/>
<path d="M12.0061 112.385L14.7567 112.381V113.293L12.0061 113.284V112.385Z" fill="#27313A"/>
<path d="M17.0488 112.381L19.7994 112.39V113.279L17.0488 113.289V112.381Z" fill="#27313A"/>
<path d="M22.0918 112.399L24.8424 112.422V113.247L22.0918 113.27V112.399Z" fill="#27313A"/>
<path d="M27.1345 112.445L29.8851 112.482V113.188L27.1345 113.224V112.445Z" fill="#27313A"/>
<path d="M32.1772 112.518L34.9278 112.573V113.096L32.1772 113.151V112.518Z" fill="#27313A"/>
<path d="M37.22 112.628L39.9706 112.711V112.963L37.22 113.041V112.628Z" fill="#27313A"/>
<path d="M42.2627 112.78L43.7068 112.835L42.2627 112.89V112.78Z" fill="#27313A"/>
<path d="M110.519 37.7386L105.183 41.1081C104.926 41.2685 104.633 41.351 104.339 41.351C104.046 41.351 103.752 41.2685 103.496 41.1081L98.1594 37.7386" stroke="white" stroke-linecap="round" stroke-linejoin="round"/>
<path d="M51.0629 30.6849L16.3525 34.3393C14.3723 34.5478 12.9361 36.3221 13.1446 38.3023L19.1959 95.7823C19.4044 97.7625 21.1786 99.1988 23.1588 98.9903L57.8692 95.3359C59.8494 95.1274 61.2856 93.3531 61.0771 91.3729L55.0258 33.8929C54.8173 31.9127 53.0431 30.4764 51.0629 30.6849Z" fill="#A987FC"/>
<path d="M22.2188 46.2556L46.9107 43.6518" stroke="white" stroke-width="0.902297" stroke-miterlimit="10" stroke-linecap="round"/>
<path d="M44.139 51.1454L26.485 53.0041C24.5407 53.2088 23.1305 54.9509 23.3352 56.8952C23.5399 58.8395 25.282 60.2498 27.2263 60.0451L44.8803 58.1864C46.8246 57.9817 48.2348 56.2396 48.0301 54.2952C47.8254 52.3509 46.0833 50.9407 44.139 51.1454Z" fill="white"/>
<path d="M24.7397 70.1686L49.4361 67.5692" stroke="white" stroke-width="0.902297" stroke-miterlimit="10" stroke-linecap="round"/>
<path d="M46.66 75.0632L29.006 76.9218C27.0617 77.1265 25.6515 78.8687 25.8562 80.813C26.0609 82.7573 27.803 84.1676 29.7473 83.9629L47.4013 82.1042C49.3456 81.8995 50.7558 80.1574 50.5511 78.213C50.3464 76.2687 48.6043 74.8585 46.66 75.0632Z" fill="white"/>
<path d="M112.807 38.9835L86.1152 38.4251C84.5925 38.3932 83.3323 39.6018 83.3005 41.1245L82.3754 85.3253C82.3436 86.8481 83.5521 88.1083 85.0748 88.1402L111.766 88.6986C113.289 88.7305 114.549 87.5219 114.581 85.9992L115.506 41.7983C115.538 40.2756 114.329 39.0154 112.807 38.9835Z" fill="#C9D3DB"/>
<path d="M89.4234 48.031L108.411 48.4251" stroke="white" stroke-width="0.902297" stroke-miterlimit="10" stroke-linecap="round"/>
<path d="M105.589 53.8458L92.013 53.5618C90.5179 53.5305 89.2805 54.7172 89.2493 56.2123C89.218 57.7075 90.4046 58.9449 91.8997 58.9762L105.475 59.2602C106.97 59.2915 108.208 58.1048 108.239 56.6096C108.27 55.1145 107.084 53.8771 105.589 53.8458Z" fill="white"/>
<path d="M89.041 66.4199L108.032 66.8178" stroke="white" stroke-width="0.902297" stroke-miterlimit="10" stroke-linecap="round"/>
<path d="M105.206 72.2383L91.6302 71.9543C90.1351 71.923 88.8977 73.1097 88.8664 74.6048C88.8351 76.1 90.0218 77.3374 91.5169 77.3687L105.092 77.6527C106.588 77.684 107.825 76.4973 107.856 75.0021C107.888 73.507 106.701 72.2696 105.206 72.2383Z" fill="white"/>
</svg>
