<svg width="152" height="128" viewBox="0 0 152 128" fill="none" xmlns="http://www.w3.org/2000/svg">
<path d="M122.08 6.52002H13.9198C9.4398 6.52002 5.7998 10.16 5.7998 14.64V109.36C5.7998 113.85 9.4398 117.48 13.9198 117.48H122.08C126.57 117.48 130.2 113.84 130.2 109.36V14.64C130.2 10.16 126.56 6.52002 122.08 6.52002Z" fill="white" stroke="#27313A"/>
<path d="M15.4099 17.36C16.542 17.36 17.4599 16.4422 17.4599 15.31C17.4599 14.1778 16.542 13.26 15.4099 13.26C14.2777 13.26 13.3599 14.1778 13.3599 15.31C13.3599 16.4422 14.2777 17.36 15.4099 17.36Z" fill="white" stroke="#27313A"/>
<path d="M22.6499 17.36C23.782 17.36 24.6999 16.4422 24.6999 15.31C24.6999 14.1778 23.782 13.26 22.6499 13.26C21.5177 13.26 20.5999 14.1778 20.5999 15.31C20.5999 16.4422 21.5177 17.36 22.6499 17.36Z" fill="white" stroke="#27313A"/>
<path d="M29.8798 17.36C31.012 17.36 31.9298 16.4422 31.9298 15.31C31.9298 14.1778 31.012 13.26 29.8798 13.26C28.7476 13.26 27.8298 14.1778 27.8298 15.31C27.8298 16.4422 28.7476 17.36 29.8798 17.36Z" fill="white" stroke="#27313A"/>
<path d="M0.929813 104.45C0.959813 105.45 1.00981 106.45 1.02981 107.45H0.809814C0.839814 106.45 0.879813 105.45 0.909813 104.45H0.929813Z" fill="#27313A"/>
<path d="M1.09991 109.95L1.18991 112.95H0.659912L0.739914 109.95H1.08991H1.09991Z" fill="#27313A"/>
<path d="M1.36999 115.39C1.55999 116.34 1.88999 117.25 2.35999 118.09L1.70999 118.44C1.21999 117.52 0.88999 116.52 0.73999 115.49L1.34999 115.39H1.36999Z" fill="#27313A"/>
<path d="M3.80998 120C4.48998 120.68 5.26998 121.24 6.11998 121.67L5.71998 122.45C4.78998 121.96 3.94998 121.33 3.22998 120.56L3.80998 120Z" fill="#27313A"/>
<path d="M8.36995 122.42C8.83995 122.51 9.30995 122.56 9.78995 122.57H11.27V123.53C10.77 123.53 10.2899 123.53 9.75995 123.52C9.23995 123.5 8.70995 123.43 8.19995 123.32L8.37995 122.42H8.36995Z" fill="#27313A"/>
<path d="M13.76 122.56H16.76V123.55H13.76V122.56Z" fill="#27313A"/>
<path d="M19.26 122.55H22.26V123.53H19.26V122.55Z" fill="#27313A"/>
<path d="M24.76 122.57L27.76 122.6V123.5L24.76 123.53V122.58V122.57Z" fill="#27313A"/>
<path d="M30.26 122.62L33.26 122.66V123.43L30.26 123.47V122.62Z" fill="#27313A"/>
<path d="M35.76 122.7L38.76 122.76V123.33L35.76 123.39V122.7Z" fill="#27313A"/>
<path d="M41.26 122.82L44.26 122.91V123.18L41.26 123.27V122.82Z" fill="#27313A"/>
<path d="M46.76 122.99L48.33 123.05L46.76 123.11V122.99Z" fill="#27313A"/>
<path d="M135.07 19.55C135.03 18.55 134.99 17.55 134.97 16.55H135.18C135.16 17.55 135.11 18.55 135.08 19.55H135.07Z" fill="#27313A"/>
<path d="M134.89 14.05L134.81 11.05H135.33L135.25 14.05H134.89Z" fill="#27313A"/>
<path d="M134.64 8.61006C134.46 7.66006 134.12 6.74006 133.65 5.91006L134.3 5.56006C134.79 6.48006 135.12 7.48006 135.26 8.50006L134.65 8.60006L134.64 8.61006Z" fill="#27313A"/>
<path d="M132.19 4.00005C131.51 3.32005 130.73 2.76005 129.88 2.33005L130.28 1.55005C131.21 2.03005 132.06 2.67005 132.77 3.43005L132.19 3.99005V4.00005Z" fill="#27313A"/>
<path d="M127.64 1.57996C127.18 1.48996 126.7 1.43996 126.22 1.42996H124.74V0.459961C125.24 0.459961 125.72 0.459961 126.25 0.469961C126.77 0.489961 127.3 0.549962 127.81 0.659962L127.63 1.55996L127.64 1.57996Z" fill="#27313A"/>
<path d="M122.24 1.43995H119.24V0.449951H122.24V1.43995Z" fill="#27313A"/>
<path d="M116.74 1.44997H113.74V0.469971H116.74V1.44997Z" fill="#27313A"/>
<path d="M111.24 1.42998L108.24 1.39998V0.499981L111.24 0.47998V1.42998Z" fill="#27313A"/>
<path d="M105.74 1.38003L102.74 1.34003V0.570028L105.74 0.530029V1.38003Z" fill="#27313A"/>
<path d="M100.24 1.29986L97.24 1.23986V0.669863L100.24 0.609863V1.29986Z" fill="#27313A"/>
<path d="M94.74 1.17998L91.74 1.08998V0.819981L94.74 0.72998V1.17998Z" fill="#27313A"/>
<path d="M89.2399 1.00989L87.6699 0.949894L89.2399 0.889893V1.00989Z" fill="#27313A"/>
<path d="M120.81 33.47H15.2C14.0954 33.47 13.2 34.3654 13.2 35.47V58.61C13.2 59.7145 14.0954 60.61 15.2 60.61H120.81C121.915 60.61 122.81 59.7145 122.81 58.61V35.47C122.81 34.3654 121.915 33.47 120.81 33.47Z" fill="#EBEFF3" stroke="#27313A"/>
<path d="M61.22 89.3699H15.2C14.0954 89.3699 13.2 90.2653 13.2 91.3699V107.95C13.2 109.054 14.0954 109.95 15.2 109.95H61.22C62.3245 109.95 63.22 109.054 63.22 107.95V91.3699C63.22 90.2653 62.3245 89.3699 61.22 89.3699Z" fill="white" stroke="#27313A"/>
<path d="M118.58 89.3699H72.5598C71.4552 89.3699 70.5598 90.2653 70.5598 91.3699V107.95C70.5598 109.054 71.4552 109.95 72.5598 109.95H118.58C119.684 109.95 120.58 109.054 120.58 107.95V91.3699C120.58 90.2653 119.684 89.3699 118.58 89.3699Z" fill="#EBEFF3" stroke="#27313A"/>
<path d="M130.21 127.7C142.22 127.7 151.95 117.96 151.95 105.96C151.95 93.96 142.21 84.22 130.21 84.22C118.21 84.22 108.47 93.96 108.47 105.96C108.47 117.96 118.21 127.7 130.21 127.7Z" fill="#2E89F5"/>
<path d="M116.07 103.77L126.04 99.3799V102.41L116.21 106.38V104.5L126.04 108.47V111.57L116.07 107.18V103.76V103.77Z" fill="#F5F7F9"/>
<path d="M129.73 116.56H127.28L130.68 95.3499H133.13L129.73 116.56Z" fill="#F5F7F9"/>
<path d="M144.34 107.19L134.37 111.58V108.55L144.2 104.58V106.46L134.37 102.49V99.3899L144.34 103.78V107.2V107.19Z" fill="#F5F7F9"/>
<path d="M60.44 69.98H18.2C15.4385 69.98 13.2 72.2186 13.2 74.98V75.01C13.2 77.7714 15.4385 80.01 18.2 80.01H60.44C63.2014 80.01 65.44 77.7714 65.44 75.01V74.98C65.44 72.2186 63.2014 69.98 60.44 69.98Z" fill="#EBEFF3" stroke="#27313A"/>
<path d="M117.8 69.98H75.5598C72.7984 69.98 70.5598 72.2186 70.5598 74.98V75.01C70.5598 77.7714 72.7984 80.01 75.5598 80.01H117.8C120.561 80.01 122.8 77.7714 122.8 75.01V74.98C122.8 72.2186 120.561 69.98 117.8 69.98Z" fill="#EBEFF3" stroke="#27313A"/>
<path d="M37.46 97.24H56.48" stroke="#18B462" stroke-linecap="round" stroke-linejoin="round"/>
<path d="M37.46 102.36H48.19" stroke="#18B462" stroke-linecap="round" stroke-linejoin="round"/>
<path d="M19.9399 99.7999H22.1299L23.3899 97.4299L24.8799 99.7999L26.4499 98.6899L27.6299 99.7999H29.3799" stroke="#18B462" stroke-linecap="round" stroke-linejoin="round"/>
<path d="M20.23 101.33C20.56 102.17 21.11 102.91 21.83 103.44C22.62 104.02 23.58 104.35 24.63 104.35C26.58 104.35 28.25 103.18 28.97 101.51" stroke="#4A5866" stroke-linecap="round" stroke-linejoin="round"/>
<path d="M20.22 98.04C20.88 96.24 22.61 94.98 24.64 94.98H28.18C28.84 94.98 29.36 95.51 29.36 96.15V98.04" stroke="#4A5866" stroke-linecap="round" stroke-linejoin="round"/>
<path d="M5.78979 24.1099H130.21" stroke="#27313A"/>
</svg>
