<svg xmlns="http://www.w3.org/2000/svg" width="16" height="16" fill="none" viewBox="0 0 16 16"><path fill="#3FB76F" d="M8 15c-3.86 0-7-3.14-7-7s3.14-7 7-7h5.25c.963 0 1.75.788 1.75 1.75V8c0 3.86-3.14 7-7 7z"/><path fill="#fff" d="M7.989 4.5a2.883 2.883 0 00-2.898 2.898v1.925c0 .525.426.974.973.974h.81V8.044H5.746v-.646A2.25 2.25 0 018 5.145a2.25 2.25 0 012.253 2.253v.646H9.127v2.253h.754v.055a.878.878 0 01-.875.875h-.875a.145.145 0 00-.142.142c0 .076.066.142.142.142h.842c.646 0 1.16-.514 1.16-1.16v-.065a.971.971 0 00.722-.93V7.398C10.887 5.791 9.597 4.5 7.989 4.5z"/></svg>