<svg xmlns="http://www.w3.org/2000/svg" width="16" height="17" fill="none" viewBox="0 0 16 17"><path fill="#2684FF" fill-rule="evenodd" d="M8.273.683l6.776 7.049a.667.667 0 010 .917l-2.253 2.343-.08.083-5.1 5.306-2.773-2.885L.183 8.65a.667.667 0 010-.917l2.332-2.426L7.615 0l.658.683zM5.288 8.19l2.328 2.422L9.944 8.19 7.616 5.77 5.288 8.19z" clip-rule="evenodd"/><path fill="url(#paint0_linear)" d="M7.615 5.769C6.091 4.183 6.084 1.615 7.6.019L2.504 5.318 5.277 8.2l2.338-2.43z"/><path fill="url(#paint1_linear)" d="M9.95 8.184l-2.334 2.428a4.162 4.162 0 011.15 2.884 4.16 4.16 0 01-1.15 2.884l5.107-5.312-2.772-2.884z"/><defs><linearGradient id="paint0_linear" x1="6.143" x2="2.174" y1=".717" y2="2.329" gradientUnits="userSpaceOnUse"><stop offset=".18" stop-color="#0052CC"/><stop offset="1" stop-color="#2684FF"/></linearGradient><linearGradient id="paint1_linear" x1="9.113" x2="13.074" y1="15.637" y2="14.037" gradientUnits="userSpaceOnUse"><stop offset=".18" stop-color="#0052CC"/><stop offset="1" stop-color="#2684FF"/></linearGradient></defs></svg>