<svg xmlns="http://www.w3.org/2000/svg" width="163" height="160" fill="none" viewBox="0 0 163 160"><mask id="fs-nryvvkyxja" width="160" height="160" x="3" y="0" maskUnits="userSpaceOnUse"><path fill="url(#paint0_linear)" d="M83.062 159.654c44.087 0 79.827-35.74 79.827-79.827C162.889 35.74 127.149 0 83.062 0 38.975 0 3.235 35.74 3.235 79.827c0 44.087 35.74 79.827 79.827 79.827z"/></mask><g mask="url(#fs-nryvvkyxja)"><path fill="url(#paint1_linear)" d="M82.052 158.721c44.081 0 79.817-35.531 79.817-79.36C161.869 35.53 126.133 0 82.052 0 37.97 0 2.235 35.53 2.235 79.36s35.735 79.361 79.817 79.361z"/><path fill="#fff" d="M109.041 42.66a5 5 0 00-4.999 5v196.6h201.599V42.66h-196.6zm196.007 12.533H293.01V43.154h12.038v12.039zm-99.96 75.39v-12.039h12.038v12.039h-12.038zm12.038.592v12.039h-12.038v-12.039h12.038zm-12.532-.592h-12.038v-12.039h12.038v12.039zm0 .592v12.039h-12.038v-12.039h12.038zm-12.63 12.039h-12.039v-12.039h12.039v12.039zm0 .493v12.039h-12.039v-12.039h12.039zm.592 0h12.038v12.039h-12.038v-12.039zm12.038 12.532v12.039h-12.038v-12.039h12.038zm.494 0h12.038v12.039h-12.038v-12.039zm0-.493v-12.039h12.038v12.039h-12.038zm12.532-12.039h12.039v12.039H217.62v-12.039zm0-.493v-12.039h12.039v12.039H217.62zm0-12.631v-12.039h12.039v12.039H217.62zm0-12.532v-12.039h12.039v12.039H217.62zm-.494 0h-12.038v-12.039h12.038v12.039zm-12.532 0h-12.038v-12.039h12.038v12.039zm-12.63 0h-12.039v-12.039h12.039v12.039zm0 .493v12.039h-12.039v-12.039h12.039zm-12.533 12.039h-12.038v-12.039h12.038v12.039zm0 .592v12.039h-12.038v-12.039h12.038zm0 12.532v12.039h-12.038v-12.039h12.038zm0 12.532v12.039h-12.038v-12.039h12.038zm.494 0h12.039v12.039h-12.039v-12.039zm12.039 12.631v12.039h-12.039V168.87h12.039zm.592 0h12.038v12.039h-12.038V168.87zm12.532 0h12.038v12.039h-12.038V168.87zm12.532 0h12.039v12.039H217.62V168.87zm0-.592v-12.039h12.039v12.039H217.62zm12.631-12.039h12.038v12.039h-12.038v-12.039zm0-.493v-12.039h12.038v12.039h-12.038zm0-12.532v-12.039h12.038v12.039h-12.038zm0-12.631v-12.039h12.038v12.039h-12.038zm0-12.532v-12.039h12.038v12.039h-12.038zm0-12.532v-12.04h12.038v12.04h-12.038zm-.592 0H217.62v-12.04h12.039v12.04zm-12.533 0h-12.038v-12.04h12.038v12.04zm-12.532 0h-12.038v-12.04h12.038v12.04zm-12.63 0h-12.039v-12.04h12.039v12.04zm-12.533 0h-12.038v-12.04h12.038v12.04zm0 .493v12.039h-12.038v-12.039h12.038zm-12.532 12.039h-12.038v-12.039h12.038v12.039zm0 .493v12.039h-12.038v-12.039h12.038zm0 12.631v12.039h-12.038v-12.039h12.038zm0 12.532v12.039h-12.038v-12.039h12.038zm0 12.532v12.039h-12.038v-12.039h12.038zm0 12.631v12.039h-12.038V168.87h12.038zm.494 0h12.038v12.039h-12.038V168.87zm12.038 12.532v12.039h-12.038v-12.039h12.038zm.494 0h12.039v12.039h-12.039v-12.039zm12.631 0h12.038v12.039h-12.038v-12.039zm12.532 0h12.038v12.039h-12.038v-12.039zm12.532 0h12.039v12.039H217.62v-12.039zm12.631 0h12.038v12.039h-12.038v-12.039zm0-.493V168.87h12.038v12.039h-12.038zm12.532-12.039h12.038v12.039h-12.038V168.87zm0-.592v-12.039h12.038v12.039h-12.038zm0-12.532v-12.039h12.038v12.039h-12.038zm0-12.532v-12.039h12.038v12.039h-12.038zm0-12.631v-12.039h12.038v12.039h-12.038zm0-12.532v-12.039h12.038v12.039h-12.038zm0-12.532v-12.04h12.038v12.04h-12.038zm0-12.631V80.849h12.038v12.039h-12.038zm-.494 0h-12.038V80.849h12.038v12.039zm-12.63 0H217.62V80.849h12.039v12.039zm-12.533 0h-12.038V80.849h12.038v12.039zm-12.532 0h-12.038V80.849h12.038v12.039zm-12.63 0h-12.039V80.849h12.039v12.039zm-12.533 0h-12.038V80.849h12.038v12.039zm-12.532 0h-12.038V80.849h12.038v12.039zm0 .592v12.039h-12.038v-12.04h12.038zm-12.63 12.039H142.23v-12.04h12.039v12.04zm0 .493v12.039H142.23v-12.039h12.039zm0 12.532v12.039H142.23v-12.039h12.039zm0 12.631v12.039H142.23v-12.039h12.039zm0 12.532v12.039H142.23v-12.039h12.039zm0 12.532v12.039H142.23v-12.039h12.039zm0 12.631v12.039H142.23V168.87h12.039zm0 12.532v12.039H142.23v-12.039h12.039zm.592 0h12.038v12.039h-12.038v-12.039zm12.038 12.532v12.039h-12.038v-12.039h12.038zm.494 0h12.038v12.039h-12.038v-12.039zm12.532 0h12.039v12.039h-12.039v-12.039zm12.631 0h12.038v12.039h-12.038v-12.039zm12.532 0h12.038v12.039h-12.038v-12.039zm12.532 0h12.039v12.039H217.62v-12.039zm12.631 0h12.038v12.039h-12.038v-12.039zm12.532 0h12.038v12.039h-12.038v-12.039zm0-.493v-12.039h12.038v12.039h-12.038zm12.532-12.039h12.039v12.039h-12.039v-12.039zm0-.493V168.87h12.039v12.039h-12.039zm0-12.631v-12.039h12.039v12.039h-12.039zm0-12.532v-12.039h12.039v12.039h-12.039zm0-12.532v-12.039h12.039v12.039h-12.039zm0-12.631v-12.039h12.039v12.039h-12.039zm0-12.532v-12.039h12.039v12.039h-12.039zm0-12.532v-12.04h12.039v12.04h-12.039zm0-12.631V80.849h12.039v12.039h-12.039zm0-12.532V68.317h12.039v12.039h-12.039zm-.494 0h-12.038V68.317h12.038v12.039zm-12.532 0h-12.038V68.317h12.038v12.039zm-12.63 0H217.62V68.317h12.039v12.039zm-12.533 0h-12.038V68.317h12.038v12.039zm-12.532 0h-12.038V68.317h12.038v12.039zm-12.63 0h-12.039V68.317h12.039v12.039zm-12.533 0h-12.038V68.317h12.038v12.039zm-12.532 0h-12.038V68.317h12.038v12.039zm-12.63 0H142.23V68.317h12.039v12.039zm0 .493v12.039H142.23V80.849h12.039zm-12.533 12.039h-12.038V80.849h12.038v12.039zm0 .592v12.039h-12.038v-12.04h12.038zm0 12.532v12.039h-12.038v-12.039h12.038zm0 12.532v12.039h-12.038v-12.039h12.038zm0 12.631v12.039h-12.038v-12.039h12.038zm0 12.532v12.039h-12.038v-12.039h12.038zm0 12.532v12.039h-12.038v-12.039h12.038zm0 12.631v12.039h-12.038V168.87h12.038zm0 12.532v12.039h-12.038v-12.039h12.038zm0 12.532v12.039h-12.038v-12.039h12.038zm.494 0h12.039v12.039H142.23v-12.039zm12.039 12.631v12.039H142.23v-12.039h12.039zm.592 0h12.038v12.039h-12.038v-12.039zm12.532 0h12.038v12.039h-12.038v-12.039zm12.532 0h12.039v12.039h-12.039v-12.039zm12.631 0h12.038v12.039h-12.038v-12.039zm12.532 0h12.038v12.039h-12.038v-12.039zm12.532 0h12.039v12.039H217.62v-12.039zm12.631 0h12.038v12.039h-12.038v-12.039zm12.532 0h12.038v12.039h-12.038v-12.039zm12.532 0h12.039v12.039h-12.039v-12.039zm0-.592v-12.039h12.039v12.039h-12.039zm12.631-12.039h12.038v12.039h-12.038v-12.039zm0-.493v-12.039h12.038v12.039h-12.038zm0-12.532V168.87h12.038v12.039h-12.038zm0-12.631v-12.039h12.038v12.039h-12.038zm0-12.532v-12.039h12.038v12.039h-12.038zm0-12.532v-12.039h12.038v12.039h-12.038zm0-12.631v-12.039h12.038v12.039h-12.038zm0-12.532v-12.039h12.038v12.039h-12.038zm0-12.532v-12.04h12.038v12.04h-12.038zm0-12.631V80.849h12.038v12.039h-12.038zm0-12.532V68.317h12.038v12.039h-12.038zm0-12.532V55.785h12.038v12.039h-12.038zm-.592 0h-12.039V55.785h12.039v12.039zm-12.533 0h-12.038V55.785h12.038v12.039zm-12.532 0h-12.038V55.785h12.038v12.039zm-12.63 0H217.62V55.785h12.039v12.039zm-12.533 0h-12.038V55.785h12.038v12.039zm-12.532 0h-12.038V55.785h12.038v12.039zm-12.63 0h-12.039V55.785h12.039v12.039zm-12.533 0h-12.038V55.785h12.038v12.039zm-12.532 0h-12.038V55.785h12.038v12.039zm-12.63 0H142.23V55.785h12.039v12.039zm-12.533 0h-12.038V55.785h12.038v12.039zm0 .493v12.039h-12.038V68.317h12.038zm-12.532 12.039h-12.038V68.317h12.038v12.039zm0 .493v12.039h-12.038V80.849h12.038zm0 12.63v12.04h-12.038v-12.04h12.038zm0 12.533v12.039h-12.038v-12.039h12.038zm0 12.532v12.039h-12.038v-12.039h12.038zm0 12.631v12.039h-12.038v-12.039h12.038zm0 12.532v12.039h-12.038v-12.039h12.038zm0 12.532v12.039h-12.038v-12.039h12.038zm0 12.631v12.039h-12.038V168.87h12.038zm0 12.532v12.039h-12.038v-12.039h12.038zm0 12.532v12.039h-12.038v-12.039h12.038zm0 12.631v12.039h-12.038v-12.039h12.038zm.494 0h12.038v12.039h-12.038v-12.039zm12.038 12.532v12.039h-12.038v-12.039h12.038zm.494 0h12.039v12.039H142.23v-12.039zm12.631 0h12.038v12.039h-12.038v-12.039zm12.532 0h12.038v12.039h-12.038v-12.039zm12.532 0h12.039v12.039h-12.039v-12.039zm12.631 0h12.038v12.039h-12.038v-12.039zm12.532 0h12.038v12.039h-12.038v-12.039zm12.532 0h12.039v12.039H217.62v-12.039zm12.631 0h12.038v12.039h-12.038v-12.039zm12.532 0h12.038v12.039h-12.038v-12.039zm12.532 0h12.039v12.039h-12.039v-12.039zm12.631 0h12.038v12.039h-12.038v-12.039zm0-.493v-12.039h12.038v12.039h-12.038zm12.532-12.039h12.038v12.039h-12.038v-12.039zm0-.592v-12.039h12.038v12.039h-12.038zm0-12.532v-12.039h12.038v12.039h-12.038zm0-12.532V168.87h12.038v12.039h-12.038zm0-12.631v-12.039h12.038v12.039h-12.038zm0-12.532v-12.039h12.038v12.039h-12.038zm0-12.532v-12.039h12.038v12.039h-12.038zm0-12.631v-12.039h12.038v12.039h-12.038zm0-12.532v-12.039h12.038v12.039h-12.038zm0-12.532v-12.04h12.038v12.04h-12.038zm0-12.631V80.849h12.038v12.039h-12.038zm0-12.532V68.317h12.038v12.039h-12.038zm0-12.532V55.785h12.038v12.039h-12.038zm0-12.631V43.154h12.038v12.039h-12.038zm-.494 0h-12.038V43.154h12.038v12.039zm-12.63 0h-12.039V43.154h12.039v12.039zm-12.533 0h-12.038V43.154h12.038v12.039zm-12.532 0h-12.038V43.154h12.038v12.039zm-12.63 0H217.62V43.154h12.039v12.039zm-12.533 0h-12.038V43.154h12.038v12.039zm-12.532 0h-12.038V43.154h12.038v12.039zm-12.63 0h-12.039V43.154h12.039v12.039zm-12.533 0h-12.038V43.154h12.038v12.039zm-12.532 0h-12.038V43.154h12.038v12.039zm-12.63 0H142.23V43.154h12.039v12.039zm-12.533 0h-12.038V43.154h12.038v12.039zm-12.532 0h-12.038V43.154h12.038v12.039zm0 .592v12.039h-12.038V55.785h12.038zm-12.63 12.039h-12.039V55.785h12.039v12.039zm0 .493v12.039h-12.039V68.317h12.039zm0 12.532v12.039h-12.039V80.849h12.039zm0 12.63v12.04h-12.039v-12.04h12.039zm0 12.533v12.039h-12.039v-12.039h12.039zm0 12.532v12.039h-12.039v-12.039h12.039zm0 12.631v12.039h-12.039v-12.039h12.039zm0 12.532v12.039h-12.039v-12.039h12.039zm0 12.532v12.039h-12.039v-12.039h12.039zm0 12.631v12.039h-12.039V168.87h12.039zm0 12.532v12.039h-12.039v-12.039h12.039zm0 12.532v12.039h-12.039v-12.039h12.039zm0 12.631v12.039h-12.039v-12.039h12.039zm0 12.532v12.039h-12.039v-12.039h12.039zm.592 0h12.038v12.039h-12.038v-12.039zm12.038 12.532v12.039h-12.038v-12.039h12.038zm.494 0h12.038v12.039h-12.038v-12.039zm12.532 0h12.039v12.039H142.23v-12.039zm12.631 0h12.038v12.039h-12.038v-12.039zm12.532 0h12.038v12.039h-12.038v-12.039zm12.532 0h12.039v12.039h-12.039v-12.039zm12.631 0h12.038v12.039h-12.038v-12.039zm12.532 0h12.038v12.039h-12.038v-12.039zm12.532 0h12.039v12.039H217.62v-12.039zm12.631 0h12.038v12.039h-12.038v-12.039zm12.532 0h12.038v12.039h-12.038v-12.039zm12.532 0h12.039v12.039h-12.039v-12.039zm12.631 0h12.038v12.039h-12.038v-12.039zm12.532 0h12.038v12.039h-12.038v-12.039zm0-.493v-12.039h12.038v12.039h-12.038zm12.532-12.039h12.038v12.039H293.01v-12.039zm0-.493v-12.039h12.038v12.039H293.01zm0-12.631v-12.039h12.038v12.039H293.01zm0-12.532v-12.039h12.038v12.039H293.01zm0-12.532V168.87h12.038v12.039H293.01zm0-12.631v-12.039h12.038v12.039H293.01zm0-12.532v-12.039h12.038v12.039H293.01zm0-12.532v-12.039h12.038v12.039H293.01zm0-12.631v-12.039h12.038v12.039H293.01zm0-12.532v-12.039h12.038v12.039H293.01zm0-12.532v-12.04h12.038v12.04H293.01zm0-12.631V80.849h12.038v12.039H293.01zm0-12.532V68.317h12.038v12.039H293.01zm0-12.532V55.785h12.038v12.039H293.01zm-176.436-24.67v12.039h-12.039v-7.039a5 5 0 015-5h7.039zM104.535 231.63h12.039v12.039h-12.039v-12.039zm188.475 12.039v-12.039h12.038v12.039H293.01z"/></g><path fill="url(#paint2_radial)" d="M155.221 121.43a7.78 7.78 0 100-15.559 7.78 7.78 0 000 15.559z"/><path fill="url(#paint3_radial)" d="M150.721 113.271c-1.409-.867-1.762-2.846-.786-4.391.949-1.545 2.873-2.114 4.283-1.246 1.409.867 1.762 2.846.786 4.391-.976 1.572-2.9 2.114-4.283 1.246z" opacity=".5"/><g filter="url(#filter0_f)"><ellipse cx="82.624" cy="143.103" fill="#000" fill-opacity=".37" rx="58.025" ry=".44"/></g><g filter="url(#filter1_ii)"><ellipse cx="79.15" cy="57.436" fill="#92A2B1" rx="21.023" ry="20.812"/></g><g filter="url(#filter2_ii)"><path fill="#92A2B1" d="M125.849 123.876c1.755-.39 3.025-1.949 2.874-3.74-.384-4.533-1.615-8.992-3.654-13.203-2.498-5.161-6.159-9.85-10.774-13.799-4.616-3.95-10.095-7.082-16.126-9.22-6.03-2.137-12.493-3.237-19.02-3.237-6.528 0-12.99 1.1-19.021 3.237-6.03 2.138-11.51 5.27-16.125 9.22-4.616 3.95-8.277 8.638-10.775 13.799-2.038 4.211-3.27 8.67-3.653 13.203-.152 1.791 1.119 3.35 2.873 3.74l3.446.764a199.673 199.673 0 0086.51 0l3.445-.764z"/></g><g filter="url(#filter3_ii)"><circle cx="126.38" cy="66" r="20.062" fill="#13B091"/></g><g filter="url(#filter4_di)"><path stroke="#fff" stroke-linecap="round" stroke-width="3.819" d="M117.961 67.48l4.416 4.766c.04.043.107.045.149.004l12.273-11.785"/></g><path fill="url(#paint4_radial)" d="M11.882 63.18c6.277 0 11.365-5.088 11.365-11.364 0-6.277-5.088-11.366-11.365-11.366S.517 45.54.517 51.815c0 6.277 5.088 11.366 11.365 11.366z"/><path fill="url(#paint5_radial)" d="M5.309 51.26c-2.06-1.266-2.574-4.157-1.149-6.414 1.386-2.257 4.198-3.089 6.257-1.822 2.06 1.267 2.574 4.158 1.148 6.415-1.425 2.297-4.237 3.09-6.256 1.822z" opacity=".5"/><defs><filter id="filter0_f" width="119.617" height="4.447" x="22.815" y="140.879" color-interpolation-filters="sRGB" filterUnits="userSpaceOnUse"><feFlood flood-opacity="0" result="BackgroundImageFix"/><feBlend in="SourceGraphic" in2="BackgroundImageFix" result="shape"/><feGaussianBlur result="effect1_foregroundBlur" stdDeviation=".892"/></filter><filter id="filter2_ii" width="107.176" height="50.597" x="23.451" y="80.677" color-interpolation-filters="sRGB" filterUnits="userSpaceOnUse"><feFlood flood-opacity="0" result="BackgroundImageFix"/><feBlend in="SourceGraphic" in2="BackgroundImageFix" result="shape"/><feColorMatrix in="SourceAlpha" result="hardAlpha" values="0 0 0 0 0 0 0 0 0 0 0 0 0 0 0 0 0 0 127 0"/><feOffset dx="-6.112"/><feGaussianBlur stdDeviation="3.31"/><feComposite in2="hardAlpha" k2="-1" k3="1" operator="arithmetic"/><feColorMatrix values="0 0 0 0 0.392157 0 0 0 0 0.478431 0 0 0 0 0.556863 0 0 0 1 0"/><feBlend in2="shape" result="effect1_innerShadow"/><feColorMatrix in="SourceAlpha" result="hardAlpha" values="0 0 0 0 0 0 0 0 0 0 0 0 0 0 0 0 0 0 127 0"/><feOffset dx="1.891" dy="1.891"/><feGaussianBlur stdDeviation="1.891"/><feComposite in2="hardAlpha" k2="-1" k3="1" operator="arithmetic"/><feColorMatrix values="0 0 0 0 0.754687 0 0 0 0 0.816784 0 0 0 0 0.875 0 0 0 1 0"/><feBlend in2="effect1_innerShadow" result="effect2_innerShadow"/></filter><filter id="filter3_ii" width="40.176" height="40.996" x="106.266" y="45.319" color-interpolation-filters="sRGB" filterUnits="userSpaceOnUse"><feFlood flood-opacity="0" result="BackgroundImageFix"/><feBlend in="SourceGraphic" in2="BackgroundImageFix" result="shape"/><feColorMatrix in="SourceAlpha" result="hardAlpha" values="0 0 0 0 0 0 0 0 0 0 0 0 0 0 0 0 0 0 127 0"/><feOffset dy="1.263"/><feGaussianBlur stdDeviation=".126"/><feComposite in2="hardAlpha" k2="-1" k3="1" operator="arithmetic"/><feColorMatrix values="0 0 0 0 0 0 0 0 0 0.870833 0 0 0 0 0.694593 0 0 0 1 0"/><feBlend in2="shape" result="effect1_innerShadow"/><feColorMatrix in="SourceAlpha" result="hardAlpha" values="0 0 0 0 0 0 0 0 0 0 0 0 0 0 0 0 0 0 127 0"/><feOffset dx="-.051" dy="-.619"/><feGaussianBlur stdDeviation=".632"/><feComposite in2="hardAlpha" k2="-1" k3="1" operator="arithmetic"/><feColorMatrix values="0 0 0 0 0 0 0 0 0 0.491667 0 0 0 0 0.392163 0 0 0 1 0"/><feBlend in2="effect1_innerShadow" result="effect2_innerShadow"/></filter><filter id="filter4_di" width="27.43" height="24.552" x="112.665" y="57.539" color-interpolation-filters="sRGB" filterUnits="userSpaceOnUse"><feFlood flood-opacity="0" result="BackgroundImageFix"/><feColorMatrix in="SourceAlpha" values="0 0 0 0 0 0 0 0 0 0 0 0 0 0 0 0 0 0 127 0"/><feOffset dy="4.516"/><feGaussianBlur stdDeviation="1.693"/><feColorMatrix values="0 0 0 0 0 0 0 0 0 0 0 0 0 0 0 0 0 0 0.18 0"/><feBlend in2="BackgroundImageFix" result="effect1_dropShadow"/><feBlend in="SourceGraphic" in2="effect1_dropShadow" result="shape"/><feColorMatrix in="SourceAlpha" result="hardAlpha" values="0 0 0 0 0 0 0 0 0 0 0 0 0 0 0 0 0 0 127 0"/><feOffset dx="-.113" dy="-1.016"/><feGaussianBlur stdDeviation="1.468"/><feComposite in2="hardAlpha" k2="-1" k3="1" operator="arithmetic"/><feColorMatrix values="0 0 0 0 0.641771 0 0 0 0 0.704083 0 0 0 0 0.7625 0 0 0 1 0"/><feBlend in2="shape" result="effect2_innerShadow"/></filter><filter id="filter1_ii" width="50.05" height="43.516" x="52.014" y="36.624" color-interpolation-filters="sRGB" filterUnits="userSpaceOnUse"><feFlood flood-opacity="0" result="BackgroundImageFix"/><feBlend in="SourceGraphic" in2="BackgroundImageFix" result="shape"/><feColorMatrix in="SourceAlpha" result="hardAlpha" values="0 0 0 0 0 0 0 0 0 0 0 0 0 0 0 0 0 0 127 0"/><feOffset dx="-6.112"/><feGaussianBlur stdDeviation="3.31"/><feComposite in2="hardAlpha" k2="-1" k3="1" operator="arithmetic"/><feColorMatrix values="0 0 0 0 0.392157 0 0 0 0 0.478431 0 0 0 0 0.556863 0 0 0 1 0"/><feBlend in2="shape" result="effect1_innerShadow"/><feColorMatrix in="SourceAlpha" result="hardAlpha" values="0 0 0 0 0 0 0 0 0 0 0 0 0 0 0 0 0 0 127 0"/><feOffset dx="1.891" dy="1.891"/><feGaussianBlur stdDeviation="1.891"/><feComposite in2="hardAlpha" k2="-1" k3="1" operator="arithmetic"/><feColorMatrix values="0 0 0 0 0.754687 0 0 0 0 0.816784 0 0 0 0 0.875 0 0 0 1 0"/><feBlend in2="effect1_innerShadow" result="effect2_innerShadow"/></filter><radialGradient id="paint5_radial" cx="0" cy="0" r="1" gradientTransform="matrix(-2.50746 4.03013 -3.67025 -2.28355 7.834 47.176)" gradientUnits="userSpaceOnUse"><stop stop-color="#fff"/><stop offset=".694" stop-color="#fff" stop-opacity="0"/></radialGradient><radialGradient id="paint4_radial" cx="0" cy="0" r="1" gradientTransform="rotate(-15.177 180.479 -.692) scale(21.6729)" gradientUnits="userSpaceOnUse"><stop stop-color="#FFF1CF"/><stop offset=".188" stop-color="#FFE4A2"/><stop offset=".318" stop-color="#FFD364"/><stop offset=".49" stop-color="#FFD364"/><stop offset=".651" stop-color="#FFC73A"/><stop offset=".948" stop-color="#D09500"/></radialGradient><radialGradient id="paint2_radial" cx="0" cy="0" r="1" gradientTransform="rotate(-15.177 490.503 -513.407) scale(14.8345)" gradientUnits="userSpaceOnUse"><stop stop-color="#E6C6FF"/><stop offset=".188" stop-color="#C07DF5"/><stop offset=".318" stop-color="#BE6FFC"/><stop offset=".49" stop-color="#B56AF0"/><stop offset=".651" stop-color="#A745F4"/><stop offset=".948" stop-color="#9F3DED"/></radialGradient><radialGradient id="paint3_radial" cx="0" cy="0" r="1" gradientTransform="rotate(121.889 45.536 97.586) scale(3.24885 2.95873)" gradientUnits="userSpaceOnUse"><stop stop-color="#fff"/><stop offset=".694" stop-color="#fff" stop-opacity="0"/></radialGradient><linearGradient id="paint1_linear" x1="82.052" x2="82.052" y1="0" y2="158.721" gradientUnits="userSpaceOnUse"><stop stop-color="#B5EFFF"/><stop offset="1" stop-color="#EDFBFF"/></linearGradient><linearGradient id="paint0_linear" x1="83.062" x2="83.062" y1="0" y2="159.654" gradientUnits="userSpaceOnUse"><stop stop-color="#B5EFFF"/><stop offset="1" stop-color="#E7F8FE"/></linearGradient></defs></svg>