<svg width="137" height="129" viewBox="0 0 137 129" fill="none" xmlns="http://www.w3.org/2000/svg">
<mask id="mask0_37_9162" style="mask-type:alpha" maskUnits="userSpaceOnUse" x="0" y="0" width="129" height="129">
<path d="M64.2751 128.55C99.7733 128.55 128.55 99.7733 128.55 64.2751C128.55 28.777 99.7733 0 64.2751 0C28.777 0 0 28.777 0 64.2751C0 99.7733 28.777 128.55 64.2751 128.55Z" fill="url(#paint0_linear_37_9162)"/>
</mask>
<g mask="url(#mask0_37_9162)">
<path d="M64.267 127.799C99.7607 127.799 128.534 99.1904 128.534 63.8996C128.534 28.6088 99.7607 0 64.267 0C28.7733 0 0 28.6088 0 63.8996C0 99.1904 28.7733 127.799 64.267 127.799Z" fill="url(#paint1_linear_37_9162)"/>
<mask id="mask1_37_9162" style="mask-type:alpha" maskUnits="userSpaceOnUse" x="-13" y="-18" width="156" height="155">
<path d="M65.1709 136.805C107.872 136.805 142.487 102.189 142.487 59.4885C142.487 16.7879 107.872 -17.8279 65.1709 -17.8279C22.4702 -17.8279 -12.1455 16.7879 -12.1455 59.4885C-12.1455 102.189 22.4702 136.805 65.1709 136.805Z" fill="url(#paint2_linear_37_9162)"/>
</mask>
<g mask="url(#mask1_37_9162)">
<path d="M84.3428 34.3491C82.5894 34.3491 81.168 35.7706 81.168 37.524V196.673H243.492V34.3491H84.3428ZM243.015 44.4397H233.322V34.7464H243.015V44.4397ZM162.529 105.142V95.449H172.222V105.142H162.529ZM172.222 105.619V115.312H162.529V105.619H172.222ZM162.131 105.142H152.438V95.449H162.131V105.142ZM162.131 105.619V115.312H152.438V105.619H162.131ZM151.961 115.312H142.268V105.619H151.961V115.312ZM151.961 115.71V125.403H142.268V115.71H151.961ZM152.438 115.71H162.131V125.403H152.438V115.71ZM162.131 125.8V135.494H152.438V125.8H162.131ZM162.529 125.8H172.222V135.494H162.529V125.8ZM162.529 125.403V115.71H172.222V125.403H162.529ZM172.619 115.71H182.312V125.403H172.619V115.71ZM172.619 115.312V105.619H182.312V115.312H172.619ZM172.619 105.142V95.449H182.312V105.142H172.619ZM172.619 95.0517V85.3584H182.312V95.0517H172.619ZM172.222 95.0517H162.529V85.3584H172.222V95.0517ZM162.131 95.0517H152.438V85.3584H162.131V95.0517ZM151.961 95.0517H142.268V85.3584H151.961V95.0517ZM151.961 95.449V105.142H142.268V95.449H151.961ZM141.871 105.142H132.177V95.449H141.871V105.142ZM141.871 105.619V115.312H132.177V105.619H141.871ZM141.871 115.71V125.403H132.177V115.71H141.871ZM141.871 125.8V135.494H132.177V125.8H141.871ZM142.268 125.8H151.961V135.494H142.268V125.8ZM151.961 135.97V145.664H142.268V135.97H151.961ZM152.438 135.97H162.131V145.664H152.438V135.97ZM162.529 135.97H172.222V145.664H162.529V135.97ZM172.619 135.97H182.312V145.664H172.619V135.97ZM172.619 135.494V125.8H182.312V135.494H172.619ZM182.789 125.8H192.483V135.494H182.789V125.8ZM182.789 125.403V115.71H192.483V125.403H182.789ZM182.789 115.312V105.619H192.483V115.312H182.789ZM182.789 105.142V95.449H192.483V105.142H182.789ZM182.789 95.0517V85.3584H192.483V95.0517H182.789ZM182.789 84.9611V75.2677H192.483V84.9611H182.789ZM182.312 84.9611H172.619V75.2677H182.312V84.9611ZM172.222 84.9611H162.529V75.2677H172.222V84.9611ZM162.131 84.9611H152.438V75.2677H162.131V84.9611ZM151.961 84.9611H142.268V75.2677H151.961V84.9611ZM141.871 84.9611H132.177V75.2677H141.871V84.9611ZM141.871 85.3584V95.0517H132.177V85.3584H141.871ZM131.78 95.0517H122.087V85.3584H131.78V95.0517ZM131.78 95.449V105.142H122.087V95.449H131.78ZM131.78 105.619V115.312H122.087V105.619H131.78ZM131.78 115.71V125.403H122.087V115.71H131.78ZM131.78 125.8V135.494H122.087V125.8H131.78ZM131.78 135.97V145.664H122.087V135.97H131.78ZM132.177 135.97H141.871V145.664H132.177V135.97ZM141.871 146.061V155.754H132.177V146.061H141.871ZM142.268 146.061H151.961V155.754H142.268V146.061ZM152.438 146.061H162.131V155.754H152.438V146.061ZM162.529 146.061H172.222V155.754H162.529V146.061ZM172.619 146.061H182.312V155.754H172.619V146.061ZM182.789 146.061H192.483V155.754H182.789V146.061ZM182.789 145.664V135.97H192.483V145.664H182.789ZM192.88 135.97H202.573V145.664H192.88V135.97ZM192.88 135.494V125.8H202.573V135.494H192.88ZM192.88 125.403V115.71H202.573V125.403H192.88ZM192.88 115.312V105.619H202.573V115.312H192.88ZM192.88 105.142V95.449H202.573V105.142H192.88ZM192.88 95.0517V85.3584H202.573V95.0517H192.88ZM192.88 84.9611V75.2677H202.573V84.9611H192.88ZM192.88 74.791V65.0977H202.573V74.791H192.88ZM192.483 74.791H182.789V65.0977H192.483V74.791ZM182.312 74.791H172.619V65.0977H182.312V74.791ZM172.222 74.791H162.529V65.0977H172.222V74.791ZM162.131 74.791H152.438V65.0977H162.131V74.791ZM151.961 74.791H142.268V65.0977H151.961V74.791ZM141.871 74.791H132.177V65.0977H141.871V74.791ZM131.78 74.791H122.087V65.0977H131.78V74.791ZM131.78 75.2677V84.9611H122.087V75.2677H131.78ZM121.61 84.9611H111.917V75.2677H121.61V84.9611ZM121.61 85.3584V95.0517H111.917V85.3584H121.61ZM121.61 95.449V105.142H111.917V95.449H121.61ZM121.61 105.619V115.312H111.917V105.619H121.61ZM121.61 115.71V125.403H111.917V115.71H121.61ZM121.61 125.8V135.494H111.917V125.8H121.61ZM121.61 135.97V145.664H111.917V135.97H121.61ZM121.61 146.061V155.754H111.917V146.061H121.61ZM122.087 146.061H131.78V155.754H122.087V146.061ZM131.78 156.152V165.845H122.087V156.152H131.78ZM132.177 156.152H141.871V165.845H132.177V156.152ZM142.268 156.152H151.961V165.845H142.268V156.152ZM152.438 156.152H162.131V165.845H152.438V156.152ZM162.529 156.152H172.222V165.845H162.529V156.152ZM172.619 156.152H182.312V165.845H172.619V156.152ZM182.789 156.152H192.483V165.845H182.789V156.152ZM192.88 156.152H202.573V165.845H192.88V156.152ZM192.88 155.754V146.061H202.573V155.754H192.88ZM202.97 146.061H212.664V155.754H202.97V146.061ZM202.97 145.664V135.97H212.664V145.664H202.97ZM202.97 135.494V125.8H212.664V135.494H202.97ZM202.97 125.403V115.71H212.664V125.403H202.97ZM202.97 115.312V105.619H212.664V115.312H202.97ZM202.97 105.142V95.449H212.664V105.142H202.97ZM202.97 95.0517V85.3584H212.664V95.0517H202.97ZM202.97 84.9611V75.2677H212.664V84.9611H202.97ZM202.97 74.791V65.0977H212.664V74.791H202.97ZM202.97 64.7004V55.0071H212.664V64.7004H202.97ZM202.573 64.7004H192.88V55.0071H202.573V64.7004ZM192.483 64.7004H182.789V55.0071H192.483V64.7004ZM182.312 64.7004H172.619V55.0071H182.312V64.7004ZM172.222 64.7004H162.529V55.0071H172.222V64.7004ZM162.131 64.7004H152.438V55.0071H162.131V64.7004ZM151.961 64.7004H142.268V55.0071H151.961V64.7004ZM141.871 64.7004H132.177V55.0071H141.871V64.7004ZM131.78 64.7004H122.087V55.0071H131.78V64.7004ZM121.61 64.7004H111.917V55.0071H121.61V64.7004ZM121.61 65.0977V74.791H111.917V65.0977H121.61ZM111.519 74.791H101.826V65.0977H111.519V74.791ZM111.519 75.2677V84.9611H101.826V75.2677H111.519ZM111.519 85.3584V95.0517H101.826V85.3584H111.519ZM111.519 95.449V105.142H101.826V95.449H111.519ZM111.519 105.619V115.312H101.826V105.619H111.519ZM111.519 115.71V125.403H101.826V115.71H111.519ZM111.519 125.8V135.494H101.826V125.8H111.519ZM111.519 135.97V145.664H101.826V135.97H111.519ZM111.519 146.061V155.754H101.826V146.061H111.519ZM111.519 156.152V165.845H101.826V156.152H111.519ZM111.917 156.152H121.61V165.845H111.917V156.152ZM121.61 166.322V176.015H111.917V166.322H121.61ZM122.087 166.322H131.78V176.015H122.087V166.322ZM132.177 166.322H141.871V176.015H132.177V166.322ZM142.268 166.322H151.961V176.015H142.268V166.322ZM152.438 166.322H162.131V176.015H152.438V166.322ZM162.529 166.322H172.222V176.015H162.529V166.322ZM172.619 166.322H182.312V176.015H172.619V166.322ZM182.789 166.322H192.483V176.015H182.789V166.322ZM192.88 166.322H202.573V176.015H192.88V166.322ZM202.97 166.322H212.664V176.015H202.97V166.322ZM202.97 165.845V156.152H212.664V165.845H202.97ZM213.14 156.152H222.834V165.845H213.14V156.152ZM213.14 155.754V146.061H222.834V155.754H213.14ZM213.14 145.664V135.97H222.834V145.664H213.14ZM213.14 135.494V125.8H222.834V135.494H213.14ZM213.14 125.403V115.71H222.834V125.403H213.14ZM213.14 115.312V105.619H222.834V115.312H213.14ZM213.14 105.142V95.449H222.834V105.142H213.14ZM213.14 95.0517V85.3584H222.834V95.0517H213.14ZM213.14 84.9611V75.2677H222.834V84.9611H213.14ZM213.14 74.791V65.0977H222.834V74.791H213.14ZM213.14 64.7004V55.0071H222.834V64.7004H213.14ZM213.14 54.6098V44.9165H222.834V54.6098H213.14ZM212.664 54.6098H202.97V44.9165H212.664V54.6098ZM202.573 54.6098H192.88V44.9165H202.573V54.6098ZM192.483 54.6098H182.789V44.9165H192.483V54.6098ZM182.312 54.6098H172.619V44.9165H182.312V54.6098ZM172.222 54.6098H162.529V44.9165H172.222V54.6098ZM162.131 54.6098H152.438V44.9165H162.131V54.6098ZM151.961 54.6098H142.268V44.9165H151.961V54.6098ZM141.871 54.6098H132.177V44.9165H141.871V54.6098ZM131.78 54.6098H122.087V44.9165H131.78V54.6098ZM121.61 54.6098H111.917V44.9165H121.61V54.6098ZM111.519 54.6098H101.826V44.9165H111.519V54.6098ZM111.519 55.0071V64.7004H101.826V55.0071H111.519ZM101.429 64.7004H91.7353V55.0071H101.429V64.7004ZM101.429 65.0977V74.791H91.7353V65.0977H101.429ZM101.429 75.2677V84.9611H91.7353V75.2677H101.429ZM101.429 85.3584V95.0517H91.7353V85.3584H101.429ZM101.429 95.449V105.142H91.7353V95.449H101.429ZM101.429 105.619V115.312H91.7353V105.619H101.429ZM101.429 115.71V125.403H91.7353V115.71H101.429ZM101.429 125.8V135.494H91.7353V125.8H101.429ZM101.429 135.97V145.664H91.7353V135.97H101.429ZM101.429 146.061V155.754H91.7353V146.061H101.429ZM101.429 156.152V165.845H91.7353V156.152H101.429ZM101.429 166.322V176.015H91.7353V166.322H101.429ZM101.826 166.322H111.519V176.015H101.826V166.322ZM111.519 176.412V186.106H101.826V176.412H111.519ZM111.917 176.412H121.61V186.106H111.917V176.412ZM122.087 176.412H131.78V186.106H122.087V176.412ZM132.177 176.412H141.871V186.106H132.177V176.412ZM142.268 176.412H151.961V186.106H142.268V176.412ZM152.438 176.412H162.131V186.106H152.438V176.412ZM162.529 176.412H172.222V186.106H162.529V176.412ZM172.619 176.412H182.312V186.106H172.619V176.412ZM182.789 176.412H192.483V186.106H182.789V176.412ZM192.88 176.412H202.573V186.106H192.88V176.412ZM202.97 176.412H212.664V186.106H202.97V176.412ZM213.14 176.412H222.834V186.106H213.14V176.412ZM213.14 176.015V166.322H222.834V176.015H213.14ZM223.231 166.322H232.924V176.015H223.231V166.322ZM223.231 165.845V156.152H232.924V165.845H223.231ZM223.231 155.754V146.061H232.924V155.754H223.231ZM223.231 145.664V135.97H232.924V145.664H223.231ZM223.231 135.494V125.8H232.924V135.494H223.231ZM223.231 125.403V115.71H232.924V125.403H223.231ZM223.231 115.312V105.619H232.924V115.312H223.231ZM223.231 105.142V95.449H232.924V105.142H223.231ZM223.231 95.0517V85.3584H232.924V95.0517H223.231ZM223.231 84.9611V75.2677H232.924V84.9611H223.231ZM223.231 74.791V65.0977H232.924V74.791H223.231ZM223.231 64.7004V55.0071H232.924V64.7004H223.231ZM223.231 54.6098V44.9165H232.924V54.6098H223.231ZM223.231 44.4397V34.7464H232.924V44.4397H223.231ZM222.834 44.4397H213.14V34.7464H222.834V44.4397ZM212.664 44.4397H202.97V34.7464H212.664V44.4397ZM202.573 44.4397H192.88V34.7464H202.573V44.4397ZM192.483 44.4397H182.789V34.7464H192.483V44.4397ZM182.312 44.4397H172.619V34.7464H182.312V44.4397ZM172.222 44.4397H162.529V34.7464H172.222V44.4397ZM162.131 44.4397H152.438V34.7464H162.131V44.4397ZM151.961 44.4397H142.268V34.7464H151.961V44.4397ZM141.871 44.4397H132.177V34.7464H141.871V44.4397ZM131.78 44.4397H122.087V34.7464H131.78V44.4397ZM121.61 44.4397H111.917V34.7464H121.61V44.4397ZM111.519 44.4397H101.826V34.7464H111.519V44.4397ZM101.429 44.4397H91.7353V34.7464H101.429V44.4397ZM101.429 44.9165V54.6098H91.7353V44.9165H101.429ZM91.2586 54.6098H81.5652V44.9165H91.2586V54.6098ZM91.2586 55.0071V64.7004H81.5652V55.0071H91.2586ZM91.2586 65.0977V74.791H81.5652V65.0977H91.2586ZM91.2586 75.2677V84.9611H81.5652V75.2677H91.2586ZM91.2586 85.3584V95.0517H81.5652V85.3584H91.2586ZM91.2586 95.449V105.142H81.5652V95.449H91.2586ZM91.2586 105.619V115.312H81.5652V105.619H91.2586ZM91.2586 115.71V125.403H81.5652V115.71H91.2586ZM91.2586 125.8V135.494H81.5652V125.8H91.2586ZM91.2586 135.97V145.664H81.5652V135.97H91.2586ZM91.2586 146.061V155.754H81.5652V146.061H91.2586ZM91.2586 156.152V165.845H81.5652V156.152H91.2586ZM91.2586 166.322V176.015H81.5652V166.322H91.2586ZM91.2586 176.412V186.106H81.5652V176.412H91.2586ZM91.7353 176.412H101.429V186.106H91.7353V176.412ZM101.429 186.503V196.196H91.7353V186.503H101.429ZM101.826 186.503H111.519V196.196H101.826V186.503ZM111.917 186.503H121.61V196.196H111.917V186.503ZM122.087 186.503H131.78V196.196H122.087V186.503ZM132.177 186.503H141.871V196.196H132.177V186.503ZM142.268 186.503H151.961V196.196H142.268V186.503ZM152.438 186.503H162.131V196.196H152.438V186.503ZM162.529 186.503H172.222V196.196H162.529V186.503ZM172.619 186.503H182.312V196.196H172.619V186.503ZM182.789 186.503H192.483V196.196H182.789V186.503ZM192.88 186.503H202.573V196.196H192.88V186.503ZM202.97 186.503H212.664V196.196H202.97V186.503ZM213.14 186.503H222.834V196.196H213.14V186.503ZM223.231 186.503H232.924V196.196H223.231V186.503ZM223.231 186.106V176.412H232.924V186.106H223.231ZM233.322 176.412H243.015V186.106H233.322V176.412ZM233.322 176.015V166.322H243.015V176.015H233.322ZM233.322 165.845V156.152H243.015V165.845H233.322ZM233.322 155.754V146.061H243.015V155.754H233.322ZM233.322 145.664V135.97H243.015V145.664H233.322ZM233.322 135.494V125.8H243.015V135.494H233.322ZM233.322 125.403V115.71H243.015V125.403H233.322ZM233.322 115.312V105.619H243.015V115.312H233.322ZM233.322 105.142V95.449H243.015V105.142H233.322ZM233.322 95.0517V85.3584H243.015V95.0517H233.322ZM233.322 84.9611V75.2677H243.015V84.9611H233.322ZM233.322 74.791V65.0977H243.015V74.791H233.322ZM233.322 64.7004V55.0071H243.015V64.7004H233.322ZM233.322 54.6098V44.9165H243.015V54.6098H233.322ZM91.2586 34.7464V44.4397H81.5652V37.9213C81.5652 36.1678 82.9867 34.7464 84.7401 34.7464H91.2586ZM81.5652 186.503H91.2586V196.196H81.5652V186.503ZM233.322 196.196V186.503H243.015V196.196H233.322Z" fill="white"/>
</g>
<rect x="4.12109" y="96.6025" width="120.611" height="45.8645" fill="url(#paint3_linear_37_9162)"/>
<rect x="87.6094" y="96.8936" width="120.611" height="45.8645" fill="url(#paint4_linear_37_9162)"/>
<rect x="-24.9502" y="94.7275" width="120.611" height="5.98934" fill="#E2E9F0"/>
<rect x="94.1802" y="94.7275" width="120.611" height="5.98934" fill="#8296A8"/>
</g>
<path d="M18.0492 28.4386C21.8467 28.4386 24.9252 25.3601 24.9252 21.5627C24.9252 17.7652 21.8467 14.6868 18.0492 14.6868C14.2518 14.6868 11.1733 17.7652 11.1733 21.5627C11.1733 25.3601 14.2518 28.4386 18.0492 28.4386Z" fill="url(#paint5_radial_37_9162)"/>
<g filter="url(#filter0_i_37_9162)">
<path d="M101.749 62.5241C101.75 59.5556 102.756 56.6749 104.604 54.3521C106.452 52.0293 109.034 50.4015 111.926 49.7345C112.445 49.6185 112.91 49.3294 113.243 48.9146C113.576 48.4999 113.758 47.9842 113.759 47.4522V38.0986C113.759 37.4767 113.512 36.8804 113.073 36.4406C112.633 36.0009 112.037 35.7539 111.415 35.7539H11.2182C10.5964 35.7539 9.99998 36.0009 9.56027 36.4406C9.12057 36.8804 8.87354 37.4767 8.87354 38.0986V47.3275C8.87523 47.8767 9.06969 48.4079 9.42297 48.8284C9.77625 49.249 10.2659 49.5321 10.8066 49.6285C13.8378 50.1638 16.5836 51.7498 18.5619 54.108C20.5401 56.4662 21.6244 59.446 21.6244 62.5241C21.6244 65.6022 20.5401 68.5819 18.5619 70.9401C16.5836 73.2984 13.8378 74.8844 10.8066 75.4197C10.2659 75.5161 9.77625 75.7992 9.42297 76.2197C9.06969 76.6402 8.87523 77.1714 8.87354 77.7207V86.9309C8.87354 87.5527 9.12057 88.1491 9.56027 88.5888C9.99998 89.0285 10.5964 89.2755 11.2182 89.2755H111.415C112.037 89.2755 112.633 89.0285 113.073 88.5888C113.512 88.1491 113.759 87.5527 113.759 86.9309V77.5772C113.758 77.0453 113.576 76.5295 113.243 76.1148C112.91 75.7001 112.445 75.411 111.926 75.2949C109.037 74.6286 106.458 73.0037 104.61 70.6847C102.762 68.3657 101.754 65.4893 101.749 62.5241Z" fill="#92A2B1"/>
</g>
<g filter="url(#filter1_ii_37_9162)">
<path d="M81.6677 52.9927H41.8024C40.4248 52.9927 39.3081 54.1094 39.3081 55.487V55.4933C39.3081 56.8709 40.4248 57.9876 41.8024 57.9876H81.6677C83.0452 57.9876 84.162 56.8709 84.162 55.4933V55.487C84.162 54.1094 83.0452 52.9927 81.6677 52.9927Z" fill="#F3F3F3"/>
</g>
<g filter="url(#filter2_ii_37_9162)">
<path d="M75.9405 66.4856H48.6403C47.2627 66.4856 46.146 67.6023 46.146 68.9799V68.9862C46.146 70.3637 47.2627 71.4805 48.6403 71.4805H75.9405C77.3181 71.4805 78.4348 70.3637 78.4348 68.9862V68.9799C78.4348 67.6023 77.3181 66.4856 75.9405 66.4856Z" fill="#F3F3F3"/>
</g>
<g filter="url(#filter3_dii_37_9162)">
<ellipse cx="110.715" cy="35.9681" rx="25.2851" ry="25.8235" fill="#FF8946"/>
</g>
<path fill-rule="evenodd" clip-rule="evenodd" d="M124.96 42.264L123.659 41.0176C122.733 40.1118 121.058 39.4307 119.757 39.4307H119.166V37.7732H119.757C120.434 37.7732 121.491 38.2036 121.978 38.6726L123.252 39.919L123.259 39.9254C123.489 40.1374 123.791 40.2531 124.106 40.2467C124.422 40.2402 124.717 40.1118 124.941 39.8869C125.381 39.4372 125.381 38.7305 124.941 38.2743L123.659 37.0344C122.733 36.1285 121.058 35.4475 119.757 35.4475H119.166V33.7899H119.757C120.434 33.7899 121.491 34.2204 121.978 34.6894L123.246 35.9358C123.456 36.1478 123.758 36.2698 124.073 36.2698H124.087C124.402 36.2698 124.711 36.1478 124.934 35.9422L124.941 35.9358C125.401 35.4732 125.401 34.7536 124.934 34.291L123.659 33.0447C122.733 32.1388 121.058 31.4578 119.757 31.4578H119.113C118.936 29.903 118.266 28.4446 117.188 27.2689L117.576 26.8899C118.489 25.9904 119.152 24.6091 119.152 23.6133V22.367C119.152 21.7245 118.62 21.2041 117.963 21.2041C117.306 21.2041 116.774 21.7245 116.774 22.367V23.6133C116.774 23.8832 116.439 24.7055 115.887 25.2516L115.342 25.7849C112.911 24.3714 109.764 24.3714 107.333 25.7849L106.788 25.2516C106.236 24.7184 105.901 23.8896 105.901 23.6198V22.367C105.901 22.0586 105.776 21.763 105.553 21.5446C105.329 21.3262 105.027 21.2041 104.712 21.2041C104.396 21.2041 104.094 21.3262 103.871 21.5446C103.647 21.763 103.522 22.0586 103.522 22.367V23.6133C103.522 24.6156 104.186 25.9904 105.106 26.8899L105.493 27.2689C104.416 28.4446 103.752 29.8966 103.568 31.4578H102.938C101.637 31.4578 99.9615 32.1388 99.0417 33.0447L97.7672 34.291C97.5438 34.5095 97.4189 34.7986 97.4189 35.107C97.4189 35.4154 97.5372 35.7045 97.7606 35.9229L97.7672 35.9293C98.2336 36.3726 98.9695 36.3726 99.4425 35.9293L100.724 34.6765C101.21 34.2011 102.261 33.7771 102.944 33.7771H103.536V35.4346H102.944C101.643 35.4346 99.9681 36.1156 99.0483 37.0215L97.7737 38.2743C97.5503 38.4863 97.4189 38.7883 97.4189 39.0967C97.4189 39.405 97.5438 39.707 97.7737 39.9254C98.2402 40.3623 98.976 40.3623 99.4425 39.9254L100.73 38.6726C101.216 38.1972 102.268 37.7732 102.951 37.7732H103.542V39.4307H102.951C101.65 39.4307 99.9747 40.1118 99.0549 41.0176L97.7803 42.2576C97.5569 42.476 97.4321 42.7651 97.4321 43.0799C97.4321 43.3947 97.5569 43.6838 97.7737 43.8959L97.7869 43.9087C98.2533 44.3456 98.9892 44.3456 99.4556 43.9087L100.737 42.6559C101.223 42.1805 102.274 41.7565 102.957 41.7565H103.726C104.133 43.2919 105.303 45.123 107.208 47.2045C108.71 48.8397 110.199 50.109 110.541 50.3997L110.541 50.3997L110.598 50.449C110.822 50.6353 111.098 50.7316 111.374 50.7316C111.65 50.7316 111.925 50.6417 112.142 50.4554C112.753 49.9478 118.029 45.4892 119.021 41.7629H119.783C120.46 41.7629 121.518 42.1933 122.004 42.6623L123.278 43.9087L123.285 43.9151C123.751 44.3391 124.487 44.3391 124.954 43.9151L124.967 43.9023C125.42 43.4461 125.42 42.7266 124.96 42.264ZM106.032 31.1685C106.275 30.1405 106.827 29.1961 107.616 28.4701L107.892 28.2067L108.22 27.9818C110.053 26.7162 112.616 26.7162 114.455 27.9883L114.757 28.1874L115.06 28.4701C115.848 29.1961 116.406 30.1405 116.643 31.1749H106.032V31.1685ZM116.788 40.6644V33.7836H105.915L105.941 40.8828C106.086 41.8208 106.828 43.1186 108.083 44.6412C109.292 46.1125 110.645 47.3846 111.348 48.0142C113.313 46.2538 116.453 42.9644 116.755 40.8635L116.788 40.6644Z" fill="white"/>
<path opacity="0.5" d="M103.344 116.015C101.712 115.011 101.304 112.72 102.434 110.93C103.533 109.141 105.761 108.482 107.393 109.487C109.026 110.491 109.434 112.782 108.304 114.572C107.174 116.392 104.945 117.02 103.344 116.015Z" fill="url(#paint6_radial_37_9162)"/>
<g filter="url(#filter4_i_37_9162)">
<path d="M112.237 103.44C112.208 103.433 112.18 103.428 112.156 103.411C111.403 102.894 113.498 93.6778 113.695 92.9948C114.691 89.5563 116.34 86.2099 118.993 83.7555C120.87 82.018 125.885 78.6185 128.487 80.6168C130.68 82.3032 128.626 86.5375 127.615 88.3081C125.802 91.4566 123.131 94.0074 120.85 96.7996C119.489 98.4697 118.122 100.172 116.761 101.842C116.663 101.97 115.807 103.185 115.29 103.786C115.068 104.044 114.75 104.077 114.421 103.994C113.716 103.816 112.479 103.502 112.237 103.44Z" fill="url(#paint7_linear_37_9162)"/>
</g>
<g filter="url(#filter5_i_37_9162)">
<path d="M115.24 106.2C116.353 106.44 117.344 105.494 117.112 104.379C115.833 98.2473 111.598 82.2587 102.626 85.172C94.4716 87.8487 111.995 103.617 114.534 105.85C114.738 106.03 114.974 106.143 115.24 106.2Z" fill="url(#paint8_linear_37_9162)"/>
</g>
<path d="M105.067 88.3608C105.067 88.3608 115.56 102.056 115.68 104.953L105.067 88.3608Z" fill="#77FFE4" fill-opacity="0.2"/>
<path d="M125.385 83.3178C125.385 83.3178 116.763 94.3165 115.826 99.1982L125.385 83.3178Z" fill="#77FFE4" fill-opacity="0.2"/>
<path d="M104.492 102.666C104.414 101.851 105.054 101.146 105.873 101.146H122.083C122.901 101.146 123.542 101.851 123.463 102.666L121.697 120.989C121.628 121.7 121.031 122.243 120.316 122.243H107.639C106.925 122.243 106.327 121.7 106.259 120.989L104.492 102.666Z" fill="url(#paint9_linear_37_9162)"/>
<g filter="url(#filter6_i_37_9162)">
<rect x="103.648" y="101.146" width="20.6553" height="5.08509" rx="0.693524" fill="url(#paint10_linear_37_9162)"/>
</g>
<defs>
<filter id="filter0_i_37_9162" x="8.78354" y="35.1139" width="104.976" height="54.1617" filterUnits="userSpaceOnUse" color-interpolation-filters="sRGB">
<feFlood flood-opacity="0" result="BackgroundImageFix"/>
<feBlend mode="normal" in="SourceGraphic" in2="BackgroundImageFix" result="shape"/>
<feColorMatrix in="SourceAlpha" type="matrix" values="0 0 0 0 0 0 0 0 0 0 0 0 0 0 0 0 0 0 127 0" result="hardAlpha"/>
<feOffset dx="-0.09" dy="-0.64"/>
<feGaussianBlur stdDeviation="0.5"/>
<feComposite in2="hardAlpha" operator="arithmetic" k2="-1" k3="1"/>
<feColorMatrix type="matrix" values="0 0 0 0 0.438437 0 0 0 0 0.508921 0 0 0 0 0.575 0 0 0 1 0"/>
<feBlend mode="normal" in2="shape" result="effect1_innerShadow_37_9162"/>
</filter>
<filter id="filter1_ii_37_9162" x="39.209" y="52.7945" width="44.9531" height="5.49028" filterUnits="userSpaceOnUse" color-interpolation-filters="sRGB">
<feFlood flood-opacity="0" result="BackgroundImageFix"/>
<feBlend mode="normal" in="SourceGraphic" in2="BackgroundImageFix" result="shape"/>
<feColorMatrix in="SourceAlpha" type="matrix" values="0 0 0 0 0 0 0 0 0 0 0 0 0 0 0 0 0 0 127 0" result="hardAlpha"/>
<feOffset dy="0.495411"/>
<feGaussianBlur stdDeviation="0.148623"/>
<feComposite in2="hardAlpha" operator="arithmetic" k2="-1" k3="1"/>
<feColorMatrix type="matrix" values="0 0 0 0 1 0 0 0 0 1 0 0 0 0 1 0 0 0 1 0"/>
<feBlend mode="normal" in2="shape" result="effect1_innerShadow_37_9162"/>
<feColorMatrix in="SourceAlpha" type="matrix" values="0 0 0 0 0 0 0 0 0 0 0 0 0 0 0 0 0 0 127 0" result="hardAlpha"/>
<feOffset dx="-0.0990822" dy="-0.396329"/>
<feGaussianBlur stdDeviation="0.0990822"/>
<feComposite in2="hardAlpha" operator="arithmetic" k2="-1" k3="1"/>
<feColorMatrix type="matrix" values="0 0 0 0 0.833333 0 0 0 0 0.833333 0 0 0 0 0.833333 0 0 0 1 0"/>
<feBlend mode="normal" in2="effect1_innerShadow_37_9162" result="effect2_innerShadow_37_9162"/>
</filter>
<filter id="filter2_ii_37_9162" x="46.0469" y="66.2874" width="32.3877" height="5.49028" filterUnits="userSpaceOnUse" color-interpolation-filters="sRGB">
<feFlood flood-opacity="0" result="BackgroundImageFix"/>
<feBlend mode="normal" in="SourceGraphic" in2="BackgroundImageFix" result="shape"/>
<feColorMatrix in="SourceAlpha" type="matrix" values="0 0 0 0 0 0 0 0 0 0 0 0 0 0 0 0 0 0 127 0" result="hardAlpha"/>
<feOffset dy="0.495411"/>
<feGaussianBlur stdDeviation="0.148623"/>
<feComposite in2="hardAlpha" operator="arithmetic" k2="-1" k3="1"/>
<feColorMatrix type="matrix" values="0 0 0 0 1 0 0 0 0 1 0 0 0 0 1 0 0 0 1 0"/>
<feBlend mode="normal" in2="shape" result="effect1_innerShadow_37_9162"/>
<feColorMatrix in="SourceAlpha" type="matrix" values="0 0 0 0 0 0 0 0 0 0 0 0 0 0 0 0 0 0 127 0" result="hardAlpha"/>
<feOffset dx="-0.0990822" dy="-0.396329"/>
<feGaussianBlur stdDeviation="0.0990822"/>
<feComposite in2="hardAlpha" operator="arithmetic" k2="-1" k3="1"/>
<feColorMatrix type="matrix" values="0 0 0 0 0.833333 0 0 0 0 0.833333 0 0 0 0 0.833333 0 0 0 1 0"/>
<feBlend mode="normal" in2="effect1_innerShadow_37_9162" result="effect2_innerShadow_37_9162"/>
</filter>
<filter id="filter3_dii_37_9162" x="84.5666" y="9.62638" width="52.2975" height="53.8923" filterUnits="userSpaceOnUse" color-interpolation-filters="sRGB">
<feFlood flood-opacity="0" result="BackgroundImageFix"/>
<feColorMatrix in="SourceAlpha" type="matrix" values="0 0 0 0 0 0 0 0 0 0 0 0 0 0 0 0 0 0 127 0" result="hardAlpha"/>
<feOffset dy="0.863587"/>
<feGaussianBlur stdDeviation="0.431794"/>
<feColorMatrix type="matrix" values="0 0 0 0 0 0 0 0 0 0 0 0 0 0 0 0 0 0 0.25 0"/>
<feBlend mode="normal" in2="BackgroundImageFix" result="effect1_dropShadow_37_9162"/>
<feBlend mode="normal" in="SourceGraphic" in2="effect1_dropShadow_37_9162" result="shape"/>
<feColorMatrix in="SourceAlpha" type="matrix" values="0 0 0 0 0 0 0 0 0 0 0 0 0 0 0 0 0 0 127 0" result="hardAlpha"/>
<feOffset dy="0.777228"/>
<feGaussianBlur stdDeviation="0.302255"/>
<feComposite in2="hardAlpha" operator="arithmetic" k2="-1" k3="1"/>
<feColorMatrix type="matrix" values="0 0 0 0 1 0 0 0 0 0.838871 0 0 0 0 0.691667 0 0 0 1 0"/>
<feBlend mode="normal" in2="shape" result="effect2_innerShadow_37_9162"/>
<feColorMatrix in="SourceAlpha" type="matrix" values="0 0 0 0 0 0 0 0 0 0 0 0 0 0 0 0 0 0 127 0" result="hardAlpha"/>
<feOffset dx="-0.0863587" dy="-0.777228"/>
<feGaussianBlur stdDeviation="0.259076"/>
<feComposite in2="hardAlpha" operator="arithmetic" k2="-1" k3="1"/>
<feColorMatrix type="matrix" values="0 0 0 0 0.808333 0 0 0 0 0.461597 0 0 0 0 0.144826 0 0 0 1 0"/>
<feBlend mode="normal" in2="effect2_innerShadow_37_9162" result="effect3_innerShadow_37_9162"/>
</filter>
<filter id="filter4_i_37_9162" x="111.993" y="79.7521" width="18.1334" height="24.2826" filterUnits="userSpaceOnUse" color-interpolation-filters="sRGB">
<feFlood flood-opacity="0" result="BackgroundImageFix"/>
<feBlend mode="normal" in="SourceGraphic" in2="BackgroundImageFix" result="shape"/>
<feColorMatrix in="SourceAlpha" type="matrix" values="0 0 0 0 0 0 0 0 0 0 0 0 0 0 0 0 0 0 127 0" result="hardAlpha"/>
<feOffset dx="0.665089" dy="-0.254246"/>
<feGaussianBlur stdDeviation="0.866905"/>
<feComposite in2="hardAlpha" operator="arithmetic" k2="-1" k3="1"/>
<feColorMatrix type="matrix" values="0 0 0 0 0.113056 0 0 0 0 0.616667 0 0 0 0 0.58645 0 0 0 1 0"/>
<feBlend mode="normal" in2="shape" result="effect1_innerShadow_37_9162"/>
</filter>
<filter id="filter5_i_37_9162" x="100.479" y="84.5666" width="17.3321" height="21.6712" filterUnits="userSpaceOnUse" color-interpolation-filters="sRGB">
<feFlood flood-opacity="0" result="BackgroundImageFix"/>
<feBlend mode="normal" in="SourceGraphic" in2="BackgroundImageFix" result="shape"/>
<feColorMatrix in="SourceAlpha" type="matrix" values="0 0 0 0 0 0 0 0 0 0 0 0 0 0 0 0 0 0 127 0" result="hardAlpha"/>
<feOffset dx="0.665089" dy="-0.254246"/>
<feGaussianBlur stdDeviation="0.866905"/>
<feComposite in2="hardAlpha" operator="arithmetic" k2="-1" k3="1"/>
<feColorMatrix type="matrix" values="0 0 0 0 0.0996528 0 0 0 0 0.683333 0 0 0 0 0.555806 0 0 0 1 0"/>
<feBlend mode="normal" in2="shape" result="effect1_innerShadow_37_9162"/>
</filter>
<filter id="filter6_i_37_9162" x="103.648" y="100.937" width="20.9327" height="5.29326" filterUnits="userSpaceOnUse" color-interpolation-filters="sRGB">
<feFlood flood-opacity="0" result="BackgroundImageFix"/>
<feBlend mode="normal" in="SourceGraphic" in2="BackgroundImageFix" result="shape"/>
<feColorMatrix in="SourceAlpha" type="matrix" values="0 0 0 0 0 0 0 0 0 0 0 0 0 0 0 0 0 0 127 0" result="hardAlpha"/>
<feOffset dx="0.27741" dy="-0.208057"/>
<feGaussianBlur stdDeviation="0.242733"/>
<feComposite in2="hardAlpha" operator="arithmetic" k2="-1" k3="1"/>
<feColorMatrix type="matrix" values="0 0 0 0 0.833333 0 0 0 0 0.604343 0 0 0 0 0.0555555 0 0 0 1 0"/>
<feBlend mode="normal" in2="shape" result="effect1_innerShadow_37_9162"/>
</filter>
<linearGradient id="paint0_linear_37_9162" x1="64.2751" y1="0" x2="64.2751" y2="128.55" gradientUnits="userSpaceOnUse">
<stop stop-color="#B5EFFF"/>
<stop offset="1" stop-color="#E7F8FE"/>
</linearGradient>
<linearGradient id="paint1_linear_37_9162" x1="64.267" y1="0" x2="64.267" y2="127.799" gradientUnits="userSpaceOnUse">
<stop stop-color="#B5EFFF"/>
<stop offset="1" stop-color="#EDFBFF"/>
</linearGradient>
<linearGradient id="paint2_linear_37_9162" x1="65.1709" y1="-17.8279" x2="65.1709" y2="136.805" gradientUnits="userSpaceOnUse">
<stop stop-color="#B5EFFF"/>
<stop offset="1" stop-color="#E7F8FE"/>
</linearGradient>
<linearGradient id="paint3_linear_37_9162" x1="63.1524" y1="99.0542" x2="64.4265" y2="128.184" gradientUnits="userSpaceOnUse">
<stop stop-color="#CFD7DF"/>
<stop offset="1" stop-color="#E1E9F1"/>
</linearGradient>
<linearGradient id="paint4_linear_37_9162" x1="147.915" y1="96.8936" x2="147.915" y2="142.758" gradientUnits="userSpaceOnUse">
<stop stop-color="#647A8E"/>
<stop offset="1" stop-color="#647A8E" stop-opacity="0"/>
</linearGradient>
<radialGradient id="paint5_radial_37_9162" cx="0" cy="0" r="1" gradientUnits="userSpaceOnUse" gradientTransform="translate(14.7786 18.7861) rotate(-15.1772) scale(13.1123)">
<stop stop-color="#E6C6FF"/>
<stop offset="0.1875" stop-color="#C07DF5"/>
<stop offset="0.317708" stop-color="#BE6FFC"/>
<stop offset="0.489583" stop-color="#B56AF0"/>
<stop offset="0.651042" stop-color="#A745F4"/>
<stop offset="0.947917" stop-color="#9F3DED"/>
</radialGradient>
<radialGradient id="paint6_radial_37_9162" cx="0" cy="0" r="1" gradientUnits="userSpaceOnUse" gradientTransform="translate(105.346 112.777) rotate(121.889) scale(3.76234 3.42637)">
<stop stop-color="white"/>
<stop offset="0.6944" stop-color="white" stop-opacity="0"/>
</radialGradient>
<linearGradient id="paint7_linear_37_9162" x1="131.993" y1="80.382" x2="112.539" y2="97.8528" gradientUnits="userSpaceOnUse">
<stop stop-color="#BAFFF1" stop-opacity="0.26"/>
<stop offset="0.682292" stop-color="#4DC7AE"/>
<stop offset="0.96875" stop-color="#06896F"/>
</linearGradient>
<linearGradient id="paint8_linear_37_9162" x1="123.338" y1="87.1617" x2="111.507" y2="107.087" gradientUnits="userSpaceOnUse">
<stop stop-color="#B7FDEF"/>
<stop offset="0.682292" stop-color="#09B794"/>
<stop offset="0.96875" stop-color="#7EE0CC"/>
</linearGradient>
<linearGradient id="paint9_linear_37_9162" x1="123.61" y1="115.034" x2="105.72" y2="115.034" gradientUnits="userSpaceOnUse">
<stop offset="0.0989583" stop-color="#FFEEC5"/>
<stop offset="0.606776" stop-color="#FACD63"/>
<stop offset="0.838542" stop-color="#EAAF23"/>
<stop offset="0.984375" stop-color="#EDB52F"/>
</linearGradient>
<linearGradient id="paint10_linear_37_9162" x1="124.304" y1="104.493" x2="105.122" y2="104.493" gradientUnits="userSpaceOnUse">
<stop offset="0.0989583" stop-color="#FFEEC5"/>
<stop offset="0.606776" stop-color="#FCBD27"/>
<stop offset="0.984375" stop-color="#EFB222"/>
</linearGradient>
</defs>
</svg>
