<svg width="220" height="221" viewBox="0 0 220 221" fill="none" xmlns="http://www.w3.org/2000/svg">
<path d="M196.64 189.468H204.661M152.843 189.468H187.948M16.2083 189.468H144.502" stroke="#91A1B0" stroke-width="1.2" stroke-linecap="round" stroke-linejoin="round"/>
<path opacity="0.2" d="M110.434 179.329C150.775 179.329 183.478 146.627 183.478 106.286C183.478 65.9449 150.775 33.2422 110.434 33.2422C70.0936 33.2422 37.3909 65.9449 37.3909 106.286C37.3909 146.627 70.0936 179.329 110.434 179.329Z" fill="#BEC6D2"/>
<path d="M56.5141 54.4248H164.37C168.943 54.4248 172.668 58.1354 172.668 62.7226V149.849C172.668 154.422 168.957 158.147 164.37 158.147H56.5141C51.9416 158.147 48.2163 154.436 48.2163 149.849V62.7226C48.2163 58.15 51.927 54.4248 56.5141 54.4248Z" fill="white" stroke="#91A1B0" stroke-width="1.2" stroke-miterlimit="10"/>
<path d="M55.8422 55.4033H165.13C168.753 55.4033 171.704 58.3543 171.704 61.9772V79.3032H49.1221V62.1233C49.1221 58.4127 52.1316 55.4033 55.8422 55.4033Z" fill="#91A1B0" stroke="#91A1B0" stroke-width="0.83" stroke-linecap="round" stroke-linejoin="round"/>
<path d="M77.0529 67.3535H62.678H77.0529Z" fill="white"/>
<path d="M77.0529 67.3535H62.678" stroke="white" stroke-width="1.2" stroke-miterlimit="10" stroke-linecap="round"/>
<path d="M27.7498 52.1167H36.5735M47.0328 31.5332V40.3715M31.5039 37.8589L38.516 43.2495" stroke="#91A1B0" stroke-width="1.2" stroke-linecap="round" stroke-linejoin="round"/>
<path d="M95.6393 114.86L91.5276 116.745C91.4812 116.766 91.4819 116.833 91.5287 116.853L110.388 125.053C110.403 125.059 110.42 125.059 110.435 125.053L129.293 116.853C129.34 116.833 129.341 116.766 129.294 116.745L125.101 114.86" stroke="#CFD7DF" stroke-width="1.2" stroke-linecap="round"/>
<path d="M95.6393 123.775L91.5276 125.66C91.4812 125.681 91.4819 125.748 91.5287 125.768L110.388 133.968C110.403 133.974 110.42 133.974 110.435 133.968L129.293 125.768C129.34 125.748 129.341 125.681 129.294 125.66L125.101 123.775" stroke="#CFD7DF" stroke-width="1.2" stroke-linecap="round"/>
<path d="M110.438 116.55C110.423 116.557 110.406 116.557 110.391 116.55L91.5349 108.352C91.4876 108.331 91.4876 108.264 91.5349 108.244L110.391 100.045C110.406 100.039 110.423 100.039 110.438 100.045L129.294 108.244C129.341 108.264 129.341 108.331 129.294 108.352L110.438 116.55Z" stroke="#CFD7DF" stroke-width="1.2" stroke-linecap="round"/>
</svg>
