<svg width="420" height="200" viewBox="0 0 420 200" fill="none" xmlns="http://www.w3.org/2000/svg">
<path d="M326.04 169.299H324.96C324.66 169.299 324.42 169.059 324.42 168.759C324.42 168.459 324.66 168.219 324.96 168.219H326.04C326.34 168.219 326.58 168.459 326.58 168.759C326.58 169.059 326.34 169.299 326.04 169.299ZM321.74 169.299H320.66C320.36 169.299 320.12 169.059 320.12 168.759C320.12 168.459 320.36 168.219 320.66 168.219H321.74C322.04 168.219 322.28 168.459 322.28 168.759C322.28 169.059 322.04 169.299 321.74 169.299ZM317.44 169.299H316.36C316.06 169.299 315.82 169.059 315.82 168.759C315.82 168.459 316.06 168.219 316.36 168.219H317.44C317.74 168.219 317.98 168.459 317.98 168.759C317.98 169.059 317.74 169.299 317.44 169.299ZM313.14 169.299H312.06C311.76 169.299 311.52 169.059 311.52 168.759C311.52 168.459 311.76 168.219 312.06 168.219H313.14C313.44 168.219 313.68 168.459 313.68 168.759C313.68 169.059 313.44 169.299 313.14 169.299ZM308.84 169.299H307.76C307.46 169.299 307.22 169.059 307.22 168.759C307.22 168.459 307.46 168.219 307.76 168.219H308.84C309.14 168.219 309.38 168.459 309.38 168.759C309.38 169.059 309.14 169.299 308.84 169.299ZM304.54 169.299H303.46C303.16 169.299 302.92 169.059 302.92 168.759C302.92 168.459 303.16 168.219 303.46 168.219H304.54C304.84 168.219 305.08 168.459 305.08 168.759C305.08 169.059 304.84 169.299 304.54 169.299ZM300.24 169.299H299.16C298.86 169.299 298.62 169.059 298.62 168.759C298.62 168.459 298.86 168.219 299.16 168.219H300.24C300.54 168.219 300.78 168.459 300.78 168.759C300.78 169.059 300.54 169.299 300.24 169.299ZM295.94 169.299H294.86C294.56 169.299 294.32 169.059 294.32 168.759C294.32 168.459 294.56 168.219 294.86 168.219H295.94C296.24 168.219 296.48 168.459 296.48 168.759C296.48 169.059 296.24 169.299 295.94 169.299ZM291.64 169.299H290.56C290.26 169.299 290.02 169.059 290.02 168.759C290.02 168.459 290.26 168.219 290.56 168.219H291.64C291.94 168.219 292.18 168.459 292.18 168.759C292.18 169.059 291.94 169.299 291.64 169.299ZM287.34 169.299H286.26C285.96 169.299 285.72 169.059 285.72 168.759C285.72 168.459 285.96 168.219 286.26 168.219H287.34C287.64 168.219 287.88 168.459 287.88 168.759C287.88 169.059 287.64 169.299 287.34 169.299ZM283.04 169.299H281.96C281.66 169.299 281.42 169.059 281.42 168.759C281.42 168.459 281.66 168.219 281.96 168.219H283.04C283.34 168.219 283.58 168.459 283.58 168.759C283.58 169.059 283.34 169.299 283.04 169.299ZM278.74 169.299H277.66C277.36 169.299 277.12 169.059 277.12 168.759C277.12 168.459 277.36 168.219 277.66 168.219H278.74C279.04 168.219 279.28 168.459 279.28 168.759C279.28 169.059 279.04 169.299 278.74 169.299ZM274.44 169.299H273.36C273.06 169.299 272.82 169.059 272.82 168.759C272.82 168.459 273.06 168.219 273.36 168.219H274.44C274.74 168.219 274.98 168.459 274.98 168.759C274.98 169.059 274.74 169.299 274.44 169.299ZM270.14 169.299H269.06C268.76 169.299 268.52 169.059 268.52 168.759C268.52 168.459 268.76 168.219 269.06 168.219H270.14C270.44 168.219 270.68 168.459 270.68 168.759C270.68 169.059 270.44 169.299 270.14 169.299ZM265.84 169.299H264.76C264.46 169.299 264.22 169.059 264.22 168.759C264.22 168.459 264.46 168.219 264.76 168.219H265.84C266.14 168.219 266.38 168.459 266.38 168.759C266.38 169.059 266.14 169.299 265.84 169.299ZM261.54 169.299H260.46C260.16 169.299 259.92 169.059 259.92 168.759C259.92 168.459 260.16 168.219 260.46 168.219H261.54C261.84 168.219 262.08 168.459 262.08 168.759C262.08 169.059 261.84 169.299 261.54 169.299ZM257.24 169.299H256.16C255.86 169.299 255.62 169.059 255.62 168.759C255.62 168.459 255.86 168.219 256.16 168.219H257.24C257.54 168.219 257.78 168.459 257.78 168.759C257.78 169.059 257.54 169.299 257.24 169.299ZM252.94 169.299H251.86C251.56 169.299 251.32 169.059 251.32 168.759C251.32 168.459 251.56 168.219 251.86 168.219H252.94C253.24 168.219 253.48 168.459 253.48 168.759C253.48 169.059 253.24 169.299 252.94 169.299ZM248.64 169.299H247.56C247.26 169.299 247.02 169.059 247.02 168.759C247.02 168.459 247.26 168.219 247.56 168.219H248.64C248.94 168.219 249.18 168.459 249.18 168.759C249.18 169.059 248.94 169.299 248.64 169.299ZM244.34 169.299H243.26C242.96 169.299 242.72 169.059 242.72 168.759C242.72 168.459 242.96 168.219 243.26 168.219H244.34C244.64 168.219 244.88 168.459 244.88 168.759C244.88 169.059 244.64 169.299 244.34 169.299ZM240.04 169.299H238.96C238.66 169.299 238.42 169.059 238.42 168.759C238.42 168.459 238.66 168.219 238.96 168.219H240.04C240.34 168.219 240.58 168.459 240.58 168.759C240.58 169.059 240.34 169.299 240.04 169.299ZM235.74 169.299H234.66C234.36 169.299 234.12 169.059 234.12 168.759C234.12 168.459 234.36 168.219 234.66 168.219H235.74C236.04 168.219 236.28 168.459 236.28 168.759C236.28 169.059 236.04 169.299 235.74 169.299ZM231.44 169.299H230.36C230.06 169.299 229.82 169.059 229.82 168.759C229.82 168.459 230.06 168.219 230.36 168.219H231.44C231.74 168.219 231.98 168.459 231.98 168.759C231.98 169.059 231.74 169.299 231.44 169.299ZM227.14 169.299H226.06C225.76 169.299 225.52 169.059 225.52 168.759C225.52 168.459 225.76 168.219 226.06 168.219H227.14C227.44 168.219 227.68 168.459 227.68 168.759C227.68 169.059 227.44 169.299 227.14 169.299ZM222.84 169.299H221.76C221.46 169.299 221.22 169.059 221.22 168.759C221.22 168.459 221.46 168.219 221.76 168.219H222.84C223.14 168.219 223.38 168.459 223.38 168.759C223.38 169.059 223.14 169.299 222.84 169.299ZM218.54 169.299H217.46C217.16 169.299 216.92 169.059 216.92 168.759C216.92 168.459 217.16 168.219 217.46 168.219H218.54C218.84 168.219 219.08 168.459 219.08 168.759C219.08 169.059 218.84 169.299 218.54 169.299ZM214.24 169.299H213.2C212.9 169.299 212.65 169.059 212.65 168.759C212.65 168.459 212.88 168.219 213.17 168.219H214.25C214.55 168.219 214.79 168.459 214.79 168.759C214.79 169.059 214.55 169.299 214.25 169.299H214.24ZM329.29 169.269C329.01 169.269 328.77 169.049 328.75 168.759C328.73 168.459 328.96 168.209 329.26 168.189C329.61 168.169 329.95 168.139 330.3 168.099C330.6 168.059 330.86 168.269 330.9 168.569C330.94 168.869 330.73 169.129 330.43 169.169C330.06 169.209 329.7 169.249 329.33 169.269H329.3H329.29ZM209.96 168.999C209.96 168.999 209.9 168.999 209.86 168.989C209.5 168.919 209.14 168.839 208.78 168.749C208.49 168.669 208.32 168.379 208.39 168.089C208.47 167.799 208.76 167.629 209.05 167.699C209.38 167.789 209.72 167.859 210.07 167.929C210.36 167.979 210.55 168.259 210.5 168.559C210.45 168.819 210.23 168.999 209.97 168.999H209.96ZM333.51 168.489C333.28 168.489 333.07 168.339 333 168.109C332.91 167.829 333.06 167.519 333.35 167.429C333.68 167.319 334.01 167.209 334.33 167.079C334.6 166.969 334.92 167.109 335.03 167.389C335.14 167.659 335 167.979 334.72 168.089C334.38 168.219 334.03 168.349 333.67 168.459C333.62 168.479 333.56 168.489 333.51 168.489ZM205.88 167.679C205.8 167.679 205.72 167.659 205.65 167.629C205.32 167.469 204.98 167.309 204.66 167.119C204.4 166.969 204.31 166.649 204.45 166.389C204.59 166.129 204.92 166.039 205.18 166.179C205.48 166.349 205.79 166.499 206.1 166.649C206.37 166.769 206.48 167.099 206.36 167.369C206.27 167.559 206.08 167.679 205.87 167.679H205.88ZM337.4 166.669C337.22 166.669 337.05 166.579 336.94 166.419C336.78 166.169 336.86 165.839 337.11 165.679C337.41 165.499 337.69 165.299 337.98 165.099C338.22 164.929 338.56 164.979 338.73 165.219C338.9 165.459 338.85 165.799 338.61 165.969C338.31 166.189 338 166.389 337.69 166.589C337.6 166.639 337.5 166.669 337.41 166.669H337.4ZM202.26 165.369C202.14 165.369 202.02 165.329 201.92 165.249C201.64 165.009 201.36 164.769 201.09 164.519C200.87 164.319 200.86 163.979 201.06 163.759C201.26 163.539 201.6 163.529 201.82 163.729C202.07 163.969 202.34 164.199 202.6 164.419C202.83 164.609 202.86 164.949 202.67 165.179C202.56 165.309 202.41 165.369 202.26 165.369ZM340.72 163.949C340.59 163.949 340.45 163.899 340.35 163.799C340.13 163.599 340.12 163.259 340.33 163.039C340.57 162.789 340.8 162.529 341.02 162.269C341.21 162.039 341.55 162.009 341.78 162.209C342.01 162.399 342.04 162.739 341.84 162.969C341.6 163.249 341.36 163.529 341.1 163.799C340.99 163.909 340.85 163.969 340.71 163.969L340.72 163.949ZM199.32 162.249C199.15 162.249 198.99 162.169 198.88 162.029C198.66 161.729 198.45 161.429 198.25 161.119C198.09 160.869 198.16 160.539 198.41 160.379C198.66 160.219 198.99 160.289 199.15 160.539C199.34 160.829 199.54 161.119 199.74 161.399C199.92 161.639 199.86 161.979 199.62 162.149C199.52 162.219 199.42 162.249 199.3 162.249H199.32ZM343.27 160.499C343.18 160.499 343.09 160.479 343.01 160.429C342.75 160.279 342.66 159.959 342.81 159.699C342.98 159.399 343.14 159.089 343.29 158.779C343.42 158.509 343.74 158.399 344.01 158.529C344.28 158.659 344.39 158.979 344.26 159.249C344.1 159.579 343.93 159.909 343.75 160.229C343.65 160.409 343.47 160.499 343.28 160.499H343.27ZM197.23 158.509C197.01 158.509 196.82 158.379 196.73 158.169C196.59 157.829 196.47 157.479 196.35 157.129C196.26 156.849 196.41 156.539 196.69 156.449C196.97 156.349 197.28 156.509 197.37 156.789C197.48 157.119 197.6 157.449 197.73 157.769C197.84 158.039 197.71 158.359 197.43 158.469C197.37 158.499 197.3 158.509 197.23 158.509ZM344.88 156.529C344.88 156.529 344.79 156.529 344.74 156.509C344.46 156.429 344.28 156.139 344.36 155.849C344.45 155.519 344.53 155.179 344.6 154.839C344.66 154.549 344.94 154.359 345.23 154.419C345.52 154.479 345.71 154.759 345.65 155.049C345.58 155.419 345.49 155.779 345.4 156.129C345.34 156.369 345.12 156.529 344.88 156.529ZM196.14 154.359C195.87 154.359 195.65 154.159 195.61 153.889C195.56 153.519 195.52 153.159 195.5 152.789C195.48 152.489 195.7 152.239 196 152.209C196.31 152.199 196.55 152.409 196.58 152.709C196.6 153.059 196.64 153.399 196.68 153.749C196.72 154.049 196.51 154.309 196.22 154.349H196.15L196.14 154.359ZM345.46 152.289C345.16 152.289 344.92 152.039 344.93 151.749V150.679C344.93 150.379 345.17 150.139 345.47 150.139C345.77 150.139 346.01 150.379 346.01 150.679V151.759C346.01 152.059 345.77 152.289 345.47 152.289H345.46ZM196 150.069C195.7 150.069 195.46 149.829 195.46 149.529V148.449C195.46 148.149 195.7 147.909 196 147.909C196.3 147.909 196.54 148.149 196.54 148.449V149.529C196.54 149.829 196.3 150.069 196 150.069ZM345.46 147.989C345.16 147.989 344.92 147.749 344.92 147.449V146.369C344.92 146.069 345.16 145.829 345.46 145.829C345.76 145.829 346 146.069 346 146.369V147.449C346 147.749 345.76 147.989 345.46 147.989ZM196 145.769C195.7 145.769 195.46 145.529 195.46 145.229V144.149C195.46 143.849 195.7 143.609 196 143.609C196.3 143.609 196.54 143.849 196.54 144.149V145.229C196.54 145.529 196.3 145.769 196 145.769ZM345.46 143.689C345.16 143.689 344.92 143.449 344.92 143.149V142.069C344.92 141.769 345.16 141.529 345.46 141.529C345.76 141.529 346 141.769 346 142.069V143.149C346 143.449 345.76 143.689 345.46 143.689ZM196 141.469C195.7 141.469 195.46 141.229 195.46 140.929V139.849C195.46 139.549 195.7 139.309 196 139.309C196.3 139.309 196.54 139.549 196.54 139.849V140.929C196.54 141.229 196.3 141.469 196 141.469ZM345.46 139.389C345.16 139.389 344.92 139.149 344.92 138.849V137.769C344.92 137.469 345.16 137.229 345.46 137.229C345.76 137.229 346 137.469 346 137.769V138.849C346 139.149 345.76 139.389 345.46 139.389ZM196 137.169C195.7 137.169 195.46 136.929 195.46 136.629V135.549C195.46 135.249 195.7 135.009 196 135.009C196.3 135.009 196.54 135.249 196.54 135.549V136.629C196.54 136.929 196.3 137.169 196 137.169ZM345.46 135.089C345.16 135.089 344.92 134.849 344.92 134.549V133.469C344.92 133.169 345.16 132.929 345.46 132.929C345.76 132.929 346 133.169 346 133.469V134.549C346 134.849 345.76 135.089 345.46 135.089ZM196 132.869C195.7 132.869 195.46 132.629 195.46 132.329V131.249C195.46 130.949 195.7 130.709 196 130.709C196.3 130.709 196.54 130.949 196.54 131.249V132.329C196.54 132.629 196.3 132.869 196 132.869ZM345.46 130.789C345.16 130.789 344.92 130.549 344.92 130.249V129.169C344.92 128.869 345.16 128.629 345.46 128.629C345.76 128.629 346 128.869 346 129.169V130.249C346 130.549 345.76 130.789 345.46 130.789Z" fill="#27313A"/>
<path d="M211.59 137.778C211.35 136.758 219.13 96.6384 221.25 85.6484C221.56 84.2384 220.38 82.8984 218.98 82.8984H162.06C160.96 82.8984 160.02 83.5984 159.79 84.7084L148.17 133.848L119.44 135.968L120.46 137.848H211.6V137.768L211.59 137.778Z" fill="#27313A"/>
<path d="M209.08 134.25L218.34 85.5801L162.37 85.9701L150.12 134.33L209.08 134.25Z" fill="white"/>
<path d="M183.885 115.282C184.438 115.309 184.912 114.907 184.938 114.388L185.363 105.892C185.389 105.373 184.957 104.926 184.404 104.898C183.851 104.87 183.377 105.272 183.351 105.792L182.926 114.287C182.9 114.807 183.331 115.254 183.885 115.282Z" fill="#27313A"/>
<path d="M183.696 119.058C184.249 119.086 184.723 118.684 184.749 118.164L184.796 117.22C184.822 116.701 184.391 116.254 183.838 116.226C183.284 116.198 182.81 116.601 182.784 117.12L182.737 118.064C182.711 118.583 183.143 119.03 183.696 119.058Z" fill="#27313A"/>
<path d="M182.975 98.5858L169.411 118.344C168.813 119.218 169.082 120.39 170.016 120.957C170.315 121.138 170.658 121.245 171.01 121.263L196.099 122.517C197.21 122.573 198.153 121.773 198.205 120.73C198.221 120.399 198.142 120.069 197.981 119.772L186.455 98.7599C185.947 97.8307 184.73 97.4576 183.744 97.9287C183.429 98.0786 183.16 98.3065 182.97 98.5856L182.975 98.5858ZM196.193 120.629L171.104 119.375L184.668 99.6168L196.193 120.629Z" fill="#27313A"/>
<path d="M180.85 142.339L192.2 137.459H177.04L180.38 141.729" fill="white"/>
<path d="M180.85 142.879C180.64 142.879 180.44 142.759 180.36 142.549C180.32 142.459 180.31 142.359 180.32 142.269C180.19 142.249 180.05 142.179 179.96 142.069L176.62 137.799C176.49 137.639 176.47 137.419 176.56 137.239C176.65 137.059 176.84 136.939 177.04 136.939H192.2C192.45 136.939 192.67 137.119 192.73 137.369C192.79 137.619 192.65 137.869 192.42 137.969L181.07 142.849C181 142.879 180.93 142.889 180.86 142.889L180.85 142.879ZM178.15 137.999L180.81 141.399C180.89 141.489 180.92 141.599 180.92 141.719L189.59 137.999H178.15Z" fill="#27313A"/>
<path d="M112.37 188.399L112.02 147.849L114.09 132.159L123.73 148.689C127.34 154.889 133.44 159.229 140.48 160.609C146.53 161.799 152.82 160.709 158.11 157.539L181.92 143.299L180.85 141.629C179.31 139.159 177.04 137.219 174.31 136.159L169.9 136.959L146 140.429L122.76 96.6291C122.23 95.3591 121.36 94.2291 120.36 93.2891C110.88 85.0791 92.9802 84.5391 92.9802 84.5391L69.2802 85.1391C69.2802 85.1391 38.7002 83.1291 32.7602 100.699C32.3602 101.899 25.5502 131.479 20.5402 149.639C18.4702 157.119 20.3402 164.989 27.6902 167.669C29.1602 168.199 30.7002 168.469 32.1602 168.469L46.2002 167.979" fill="white"/>
<path d="M112.37 188.93C112.07 188.93 111.83 188.69 111.83 188.4L111.48 147.85V147.77L113.55 132.08C113.58 131.85 113.75 131.67 113.97 131.62C114.2 131.58 114.43 131.68 114.54 131.88L124.18 148.41C127.71 154.47 133.69 158.73 140.57 160.08C146.51 161.25 152.63 160.18 157.82 157.07L181.15 143.11L180.38 141.91C178.9 139.52 176.78 137.73 174.23 136.7L169.97 137.47L146.05 140.94C145.82 140.98 145.6 140.86 145.5 140.66L122.26 96.8602C121.77 95.7002 120.99 94.6202 119.96 93.6602C110.75 85.6802 93.1202 85.0602 92.9402 85.0602L69.2702 85.6602C68.9202 85.6402 38.9902 83.8902 33.2402 100.85C33.1302 101.18 32.4302 104.1 31.4602 108.15C29.0502 118.2 24.5702 136.9 21.0302 149.76C19.1602 156.5 20.5502 164.49 27.8402 167.14C29.2202 167.65 30.7102 167.91 32.1302 167.91L46.1502 167.42H46.1702C46.4602 167.42 46.7002 167.65 46.7102 167.94C46.7202 168.24 46.4902 168.48 46.1902 168.49L32.1502 168.98C30.5902 168.98 28.9802 168.69 27.4802 168.15C19.5402 165.26 18.0102 156.69 20.0002 149.47C23.5402 136.63 28.0202 117.94 30.4202 107.9C31.5502 103.16 32.1102 100.86 32.2302 100.51C34.7202 93.1302 41.9502 88.0502 53.1202 85.7902C61.4802 84.1002 69.2202 84.5802 69.2902 84.5902L92.9502 83.9902C93.7202 84.0102 111.18 84.6202 120.69 92.8702C121.84 93.9402 122.71 95.1602 123.24 96.4102L146.28 139.83L169.81 136.41L174.2 135.61C174.3 135.59 174.4 135.61 174.49 135.64C177.31 136.74 179.66 138.71 181.3 141.33L182.36 142.99C182.44 143.11 182.46 143.26 182.43 143.4C182.4 143.54 182.31 143.66 182.18 143.74L158.37 157.98C152.95 161.22 146.55 162.33 140.35 161.11C133.16 159.7 126.93 155.26 123.24 148.93L114.4 133.75L112.54 147.84L112.89 188.36C112.89 188.66 112.65 188.9 112.36 188.9V188.93H112.37Z" fill="#27313A"/>
<path d="M150.76 146.469C150.52 146.469 150.3 146.309 150.24 146.069C149.96 144.989 149.44 143.969 148.73 143.109C147.75 141.929 146.62 141.279 145.83 140.949C145.56 140.829 145.43 140.519 145.55 140.249C145.66 139.979 145.98 139.849 146.25 139.969C147.53 140.509 148.67 141.369 149.56 142.429C150.37 143.409 150.96 144.579 151.28 145.809C151.36 146.099 151.18 146.389 150.89 146.469C150.85 146.479 150.8 146.489 150.76 146.489V146.469Z" fill="#27313A"/>
<path d="M122.23 96.2096C122.06 96.2096 121.9 96.1296 121.79 95.9896C119.61 93.0196 116.33 92.2796 113.97 92.1896C111.21 92.0796 108.53 92.8096 107.29 93.5896C107.04 93.7496 106.71 93.6696 106.55 93.4196C106.39 93.1696 106.46 92.8396 106.72 92.6796C109.35 91.0196 118.24 89.3196 122.67 95.3496C122.85 95.5896 122.79 95.9296 122.55 96.0996C122.45 96.1696 122.35 96.1996 122.23 96.1996V96.2096Z" fill="#27313A"/>
<path d="M111.49 148.199L113.88 131.859L105.75 117.859C105.75 117.859 107.28 126.449 108.41 132.419C109.13 136.229 110.16 141.629 111.5 148.199H111.49Z" fill="#27313A"/>
<path d="M42.4399 118.359L46.2499 141.989L46.7799 179.309" fill="#F8F9FF"/>
<path d="M46.4302 188.93C46.1302 188.93 45.9002 188.69 45.8902 188.4L45.3702 142.05L41.5702 118.45C41.5202 118.15 41.7202 117.88 42.0202 117.83C42.3102 117.78 42.5902 117.98 42.6402 118.28L46.4502 141.91C46.4502 141.91 46.4502 141.96 46.4502 141.99L46.9702 188.38C46.9702 188.68 46.7302 188.92 46.4402 188.92L46.4302 188.93Z" fill="#27313A"/>
<path d="M114.09 132.129L106.34 117.709L114.09 132.129Z" fill="white"/>
<path d="M114.09 132.669C113.9 132.669 113.71 132.569 113.62 132.389L105.87 117.969C105.73 117.709 105.83 117.379 106.09 117.239C106.35 117.099 106.68 117.199 106.82 117.459L114.57 131.879C114.71 132.139 114.61 132.469 114.35 132.609C114.27 132.649 114.18 132.669 114.1 132.669H114.09Z" fill="#27313A"/>
<path d="M59.6704 85.6491C59.6704 85.6491 74.5604 93.129 92.1204 84.379C92.1204 84.379 91.2504 79.839 88.9204 75.499C88.9204 75.499 72.9004 73.4891 61.4804 76.2991C61.4204 76.2991 59.5404 80.3791 59.6804 85.6491H59.6704Z" fill="white"/>
<path d="M74.4304 89.1293C65.5704 89.1293 59.5204 86.1693 59.4204 86.1193C59.2404 86.0293 59.1304 85.8493 59.1204 85.6493C58.9904 80.4293 60.8104 76.1793 61.0704 75.9193C61.1404 75.8393 61.2304 75.7993 61.3304 75.7693C72.7104 72.9693 88.8004 74.9393 88.9604 74.9593C89.1304 74.9793 89.2804 75.0793 89.3704 75.2393C91.7204 79.5993 92.6004 84.0793 92.6304 84.2693C92.6704 84.5093 92.5604 84.7393 92.3404 84.8493C85.8204 88.0993 79.6304 89.1193 74.4204 89.1193L74.4304 89.1293ZM60.2004 85.2993C62.3304 86.2493 75.8804 91.6693 91.5004 84.0793C91.2404 82.9193 90.3504 79.3993 88.5604 75.9993C86.4104 75.7593 72.1704 74.2993 61.8204 76.7693C61.4304 77.6093 60.1504 81.0393 60.1904 85.2993H60.2004Z" fill="#27313A"/>
<path d="M93.6501 72.1598C95.1901 71.8898 96.1901 71.3598 96.4601 71.1598C100.8 69.2198 101.07 61.0098 99.4001 55.9998C99.1301 55.2598 98.8701 54.5998 98.6001 53.9898C98.6001 53.9298 98.5401 51.9198 98.5401 51.8598C98.6701 46.3198 98.8701 46.4498 98.5401 41.1798C98.0701 34.9698 94.0001 29.0298 81.5801 30.2298L93.6701 72.1598H93.6501Z" fill="white"/>
<path d="M93.2701 72.7692L80.8701 29.7492L81.5201 29.6892C87.4801 29.1092 92.0401 30.1092 95.0601 32.6592C97.4101 34.6392 98.8001 37.5692 99.0701 41.1392C99.3101 44.9792 99.2701 45.9692 99.1801 48.3392C99.1501 49.2392 99.1001 50.3292 99.0701 51.8692C99.0701 51.9092 99.0901 52.4092 99.1001 52.9092C99.1101 53.2992 99.1301 53.6792 99.1301 53.8692C99.3901 54.4492 99.6501 55.1092 99.9001 55.8092C101.6 60.9192 101.44 69.4592 96.7301 71.6192C96.3401 71.8892 95.2901 72.4192 93.7501 72.6792L93.2801 72.7592L93.2701 72.7692ZM82.2601 30.7092L94.0301 71.5392C95.2101 71.2692 95.9501 70.8692 96.1301 70.7292L96.2301 70.6692C98.0001 69.8792 99.2101 67.7492 99.6401 64.6592C100.01 61.9492 99.7201 58.6992 98.8801 56.1692C98.6201 55.4592 98.3601 54.7992 98.1001 54.2092L98.0501 54.1092V53.9992C98.0501 53.9492 98.0301 53.4492 98.0201 52.9492C98.0001 52.4192 97.9901 51.8992 97.9901 51.8592C98.0301 50.3092 98.0701 49.1992 98.1001 48.2992C98.1901 45.9592 98.2301 44.9892 97.9901 41.2092C97.7401 37.9492 96.4901 35.2692 94.3701 33.4792C91.6801 31.2192 87.6101 30.2892 82.2701 30.6992L82.2601 30.7092Z" fill="#27313A"/>
<path d="M98.9903 74.0997C90.7803 77.9697 65.6103 82.8497 50.7903 70.4297C50.8503 67.2897 50.5903 63.7497 49.9203 59.6797C48.3203 50.0697 47.0503 22.8297 66.9503 19.8197C86.8503 16.7497 102.2 24.8297 97.9303 47.8597C96.6003 55.2697 97.4003 65.0197 99.0003 74.0997H98.9903Z" fill="#27313A"/>
<path d="M61.1404 29.8294C61.1404 29.8294 49.3204 25.0194 54.0604 16.3394C58.8004 7.72939 65.5404 13.3294 65.5404 13.3294C65.5404 13.3294 68.2804 8.98939 72.0804 13.1294C76.7504 18.2094 71.4804 28.0194 71.4804 28.0194L61.1304 29.8194L61.1404 29.8294Z" fill="#27313A"/>
<path d="M73.0903 30.8993C73.0903 30.8993 65.8803 35.3093 58.9303 32.2993C58.9303 32.2993 58.6603 30.4293 60.2603 28.1593C60.2603 28.1593 64.4603 30.5593 70.9403 28.0293C71.0003 28.0293 73.2803 28.9693 73.0703 30.8993H73.0903Z" fill="#FFC12D"/>
<path d="M67.8101 76.8984C67.8101 76.8984 65.8701 83.3784 66.5401 86.9784L67.8101 76.8984Z" fill="white"/>
<path d="M66.5403 87.5194C66.2903 87.5194 66.0603 87.3394 66.0103 87.0794C65.3303 83.3894 67.2103 77.0194 67.2903 76.7494C67.3803 76.4694 67.6703 76.2994 67.9603 76.3894C68.2503 76.4794 68.4103 76.7694 68.3203 77.0594C68.3003 77.1194 66.4303 83.4494 67.0703 86.8894C67.1203 87.1794 66.9303 87.4694 66.6403 87.5194C66.6103 87.5194 66.5803 87.5294 66.5403 87.5294V87.5194Z" fill="#27313A"/>
<path d="M83.3701 77.9102C83.3701 77.9102 85.3101 82.7902 85.3101 86.9902L83.3701 77.9102Z" fill="white"/>
<path d="M85.3102 87.519C85.0102 87.519 84.7702 87.279 84.7702 86.979C84.7702 82.929 82.8902 78.149 82.8702 78.099C82.7602 77.829 82.9002 77.509 83.1702 77.399C83.4402 77.289 83.7602 77.429 83.8702 77.699C83.9502 77.899 85.8402 82.719 85.8402 86.979C85.8402 87.279 85.6002 87.519 85.3002 87.519H85.3102Z" fill="#27313A"/>
<path d="M75.2202 78.1699L75.5502 87.9199L75.2202 78.1699Z" fill="white"/>
<path d="M75.55 88.4598C75.26 88.4598 75.02 88.2298 75.01 87.9398L74.68 78.1898C74.67 77.8898 74.9 77.6498 75.2 77.6398C75.48 77.6198 75.74 77.8598 75.75 78.1598L76.08 87.9098C76.09 88.2098 75.86 88.4498 75.56 88.4598H75.54H75.55Z" fill="#27313A"/>
<path d="M255.99 178.779C255.25 179.509 255.25 180.689 255.99 181.429L260.64 186.029C262.51 188.049 264.89 184.189 266.17 183.209C267.29 182.179 270.04 183.279 270.14 184.839C270.33 186.499 269.27 190.789 272.02 190.699H278.6C281.37 190.849 280.29 186.429 280.5 184.809C280.58 183.219 283.34 182.199 284.45 183.209C285.75 184.229 288.1 188.049 290 186.059L294.66 181.469C297.25 178.619 290.4 176.959 291.52 174.219C291.93 173.289 292.24 172.039 293.47 172.069C295.01 171.849 299.45 172.989 299.41 170.219L299.43 163.719C299.43 162.689 298.59 161.849 297.54 161.849H293.46C291.94 161.819 290.78 159.079 291.85 157.939C292.81 156.689 296.77 154.389 294.74 152.459C293.24 151.499 289.55 145.529 287.43 147.839C285.7 149.319 284.18 152.289 281.6 150.459C279.85 149.999 280.75 146.309 280.54 145.009C280.54 143.979 279.7 143.139 278.65 143.139H272.07C271.03 143.139 270.18 143.979 270.18 145.009C269.96 146.199 270.86 150.039 269.19 150.479C266.59 152.279 265.12 149.329 263.36 147.809C261.23 145.499 257.55 151.439 256.03 152.409C253.97 154.309 257.97 156.649 258.88 157.879C259.96 159.039 258.72 161.759 257.23 161.799H253.19C252.15 161.799 251.3 162.629 251.3 163.669V170.169C251.18 173.189 256.81 171.699 258.34 172.049C260.39 176.199 258.69 175.809 256 178.789L255.99 178.779ZM266.17 168.589C264.15 156.579 282.33 153.549 284.51 165.269C286.53 177.279 268.35 180.309 266.17 168.589Z" fill="#2E89F5"/>
<path d="M275.35 176.989C280.9 176.989 285.4 172.489 285.4 166.939C285.4 161.389 280.9 156.889 275.35 156.889C269.8 156.889 265.3 161.389 265.3 166.939C265.3 172.489 269.8 176.989 275.35 176.989Z" fill="white"/>
<path d="M393.64 24.6895H292.59C288.4 24.6895 285 28.0895 285 32.2795V120.769C285 124.959 288.4 128.359 292.59 128.359H393.64C397.83 128.359 401.23 124.959 401.23 120.769V32.2795C401.23 28.0895 397.83 24.6895 393.64 24.6895Z" fill="white"/>
<path d="M315.56 83.42H300.86C298.73 83.42 297 81.69 297 79.56V64.86C297 62.73 298.73 61 300.86 61H315.56C317.69 61 319.42 62.73 319.42 64.86V79.56C319.42 81.69 317.69 83.42 315.56 83.42ZM300.86 62.09C299.33 62.09 298.09 63.33 298.09 64.86V79.56C298.09 81.09 299.33 82.33 300.86 82.33H315.56C317.09 82.33 318.33 81.09 318.33 79.56V64.86C318.33 63.33 317.09 62.09 315.56 62.09H300.86Z" fill="#27313A"/>
<path d="M387.83 68.4687H328.59C328.29 68.4687 328.05 68.2287 328.05 67.9287C328.05 67.6287 328.29 67.3887 328.59 67.3887H387.83C388.13 67.3887 388.37 67.6287 388.37 67.9287C388.37 68.2287 388.13 68.4687 387.83 68.4687Z" fill="#27313A"/>
<path d="M369.87 77.0585H328.59C328.29 77.0585 328.05 76.8185 328.05 76.5185C328.05 76.2185 328.29 75.9785 328.59 75.9785H369.87C370.17 75.9785 370.41 76.2185 370.41 76.5185C370.41 76.8185 370.17 77.0585 369.87 77.0585Z" fill="#27313A"/>
<path d="M393.18 128.898H292.13C287.65 128.898 284 125.248 284 120.768V32.2784C284 27.7984 287.65 24.1484 292.13 24.1484H393.18C397.66 24.1484 401.31 27.7984 401.31 32.2784V120.778C401.31 125.258 397.66 128.908 393.18 128.908V128.898ZM292.12 25.2284C288.23 25.2284 285.07 28.3884 285.07 32.2784V120.778C285.07 124.668 288.23 127.828 292.12 127.828H393.17C397.06 127.828 400.22 124.668 400.22 120.778V32.2784C400.22 28.3884 397.06 25.2284 393.17 25.2284H292.12Z" fill="#27313A"/>
<path d="M400.91 41.6499C361.48 41.5599 286.46 41.4499 284.77 41.6499L284.56 40.5999C285.67 40.3399 381.68 40.5399 400.92 40.5799V41.6599L400.91 41.6499Z" fill="#27313A"/>
<rect x="328" y="89" width="55" height="18" rx="2" fill="#1CA98A"/>
<g clip-path="url(#clip0_4694_148516)">
<path d="M340.5 102.083C343.031 102.083 345.083 100.031 345.083 97.4993C345.083 94.968 343.031 92.916 340.5 92.916C337.969 92.916 335.917 94.968 335.917 97.4993C335.917 100.031 337.969 102.083 340.5 102.083Z" stroke="white" stroke-width="0.916667" stroke-linecap="round" stroke-linejoin="round"/>
<path d="M340.5 95.666V99.3327" stroke="white" stroke-width="0.916667" stroke-linecap="round" stroke-linejoin="round"/>
<path d="M338.667 97.5H342.333" stroke="white" stroke-width="0.916667" stroke-linecap="round" stroke-linejoin="round"/>
</g>
<path d="M349.5 98H376.5" stroke="white" stroke-width="1.6" stroke-linecap="round"/>
<defs>
<clipPath id="clip0_4694_148516">
<rect width="11" height="11" fill="white" transform="translate(335 92)"/>
</clipPath>
</defs>
</svg>
