<svg width="114" height="112" viewBox="0 0 114 112" fill="none" xmlns="http://www.w3.org/2000/svg">
<mask id="mask0_1395_14861" style="mask-type:alpha" maskUnits="userSpaceOnUse" x="1" y="0" width="113" height="112">
<path d="M57.5386 111.287C88.2698 111.287 113.182 86.3749 113.182 55.6437C113.182 24.9125 88.2698 0 57.5386 0C26.8074 0 1.8949 24.9125 1.8949 55.6437C1.8949 86.3749 26.8074 111.287 57.5386 111.287Z" fill="url(#paint0_linear_1395_14861)"/>
</mask>
<g mask="url(#mask0_1395_14861)">
<path d="M57.1898 110.637C88.1134 110.637 113.182 85.8703 113.182 55.3186C113.182 24.767 88.1134 0 57.1898 0C26.2661 0 1.19751 24.767 1.19751 55.3186C1.19751 85.8703 26.2661 110.637 57.1898 110.637Z" fill="url(#paint1_linear_1395_14861)"/>
<path d="M76.1773 29.7368C73.9599 29.7368 72.1622 31.5344 72.1622 33.7519V170.262H212.688V29.7368H76.1773ZM212.275 38.4724H203.883V30.0807H212.275V38.4724ZM142.597 91.0233V82.6317H150.989V91.0233H142.597ZM150.989 91.436V99.8276H142.597V91.436H150.989ZM142.253 91.0233H133.861V82.6317H142.253V91.0233ZM142.253 91.436V99.8276H133.861V91.436H142.253ZM133.449 99.8276H125.057V91.436H133.449V99.8276ZM133.449 100.172V108.563H125.057V100.172H133.449ZM133.861 100.172H142.253V108.563H133.861V100.172ZM142.253 108.907V117.299H133.861V108.907H142.253ZM142.597 108.907H150.989V117.299H142.597V108.907ZM142.597 108.563V100.172H150.989V108.563H142.597ZM151.333 100.172H159.724V108.563H151.333V100.172ZM151.333 99.8276V91.436H159.724V99.8276H151.333ZM151.333 91.0233V82.6317H159.724V91.0233H151.333ZM151.333 82.2877V73.8961H159.724V82.2877H151.333ZM150.989 82.2877H142.597V73.8961H150.989V82.2877ZM142.253 82.2877H133.861V73.8961H142.253V82.2877ZM133.449 82.2877H125.057V73.8961H133.449V82.2877ZM133.449 82.6317V91.0233H125.057V82.6317H133.449ZM124.713 91.0233H116.322V82.6317H124.713V91.0233ZM124.713 91.436V99.8276H116.322V91.436H124.713ZM124.713 100.172V108.563H116.322V100.172H124.713ZM124.713 108.907V117.299H116.322V108.907H124.713ZM125.057 108.907H133.449V117.299H125.057V108.907ZM133.449 117.711V126.103H125.057V117.711H133.449ZM133.861 117.711H142.253V126.103H133.861V117.711ZM142.597 117.711H150.989V126.103H142.597V117.711ZM151.333 117.711H159.724V126.103H151.333V117.711ZM151.333 117.299V108.907H159.724V117.299H151.333ZM160.137 108.907H168.529V117.299H160.137V108.907ZM160.137 108.563V100.172H168.529V108.563H160.137ZM160.137 99.8276V91.436H168.529V99.8276H160.137ZM160.137 91.0233V82.6317H168.529V91.0233H160.137ZM160.137 82.2877V73.8961H168.529V82.2877H160.137ZM160.137 73.5522V65.1605H168.529V73.5522H160.137ZM159.724 73.5522H151.333V65.1605H159.724V73.5522ZM150.989 73.5522H142.597V65.1605H150.989V73.5522ZM142.253 73.5522H133.861V65.1605H142.253V73.5522ZM133.449 73.5522H125.057V65.1605H133.449V73.5522ZM124.713 73.5522H116.322V65.1605H124.713V73.5522ZM124.713 73.8961V82.2877H116.322V73.8961H124.713ZM115.978 82.2877H107.586V73.8961H115.978V82.2877ZM115.978 82.6317V91.0233H107.586V82.6317H115.978ZM115.978 91.436V99.8276H107.586V91.436H115.978ZM115.978 100.172V108.563H107.586V100.172H115.978ZM115.978 108.907V117.299H107.586V108.907H115.978ZM115.978 117.711V126.103H107.586V117.711H115.978ZM116.322 117.711H124.713V126.103H116.322V117.711ZM124.713 126.447V134.839H116.322V126.447H124.713ZM125.057 126.447H133.449V134.839H125.057V126.447ZM133.861 126.447H142.253V134.839H133.861V126.447ZM142.597 126.447H150.989V134.839H142.597V126.447ZM151.333 126.447H159.724V134.839H151.333V126.447ZM160.137 126.447H168.529V134.839H160.137V126.447ZM160.137 126.103V117.711H168.529V126.103H160.137ZM168.872 117.711H177.264V126.103H168.872V117.711ZM168.872 117.299V108.907H177.264V117.299H168.872ZM168.872 108.563V100.172H177.264V108.563H168.872ZM168.872 99.8276V91.436H177.264V99.8276H168.872ZM168.872 91.0233V82.6317H177.264V91.0233H168.872ZM168.872 82.2877V73.8961H177.264V82.2877H168.872ZM168.872 73.5522V65.1605H177.264V73.5522H168.872ZM168.872 64.7478V56.3562H177.264V64.7478H168.872ZM168.529 64.7478H160.137V56.3562H168.529V64.7478ZM159.724 64.7478H151.333V56.3562H159.724V64.7478ZM150.989 64.7478H142.597V56.3562H150.989V64.7478ZM142.253 64.7478H133.861V56.3562H142.253V64.7478ZM133.449 64.7478H125.057V56.3562H133.449V64.7478ZM124.713 64.7478H116.322V56.3562H124.713V64.7478ZM115.978 64.7478H107.586V56.3562H115.978V64.7478ZM115.978 65.1605V73.5522H107.586V65.1605H115.978ZM107.173 73.5522H98.7816V65.1605H107.173V73.5522ZM107.173 73.8961V82.2877H98.7816V73.8961H107.173ZM107.173 82.6317V91.0233H98.7816V82.6317H107.173ZM107.173 91.436V99.8276H98.7816V91.436H107.173ZM107.173 100.172V108.563H98.7816V100.172H107.173ZM107.173 108.907V117.299H98.7816V108.907H107.173ZM107.173 117.711V126.103H98.7816V117.711H107.173ZM107.173 126.447V134.839H98.7816V126.447H107.173ZM107.586 126.447H115.978V134.839H107.586V126.447ZM115.978 135.183V143.574H107.586V135.183H115.978ZM116.322 135.183H124.713V143.574H116.322V135.183ZM125.057 135.183H133.449V143.574H125.057V135.183ZM133.861 135.183H142.253V143.574H133.861V135.183ZM142.597 135.183H150.989V143.574H142.597V135.183ZM151.333 135.183H159.724V143.574H151.333V135.183ZM160.137 135.183H168.529V143.574H160.137V135.183ZM168.872 135.183H177.264V143.574H168.872V135.183ZM168.872 134.839V126.447H177.264V134.839H168.872ZM177.608 126.447H186V134.839H177.608V126.447ZM177.608 126.103V117.711H186V126.103H177.608ZM177.608 117.299V108.907H186V117.299H177.608ZM177.608 108.563V100.172H186V108.563H177.608ZM177.608 99.8276V91.436H186V99.8276H177.608ZM177.608 91.0233V82.6317H186V91.0233H177.608ZM177.608 82.2877V73.8961H186V82.2877H177.608ZM177.608 73.5522V65.1605H186V73.5522H177.608ZM177.608 64.7478V56.3562H186V64.7478H177.608ZM177.608 56.0123V47.6206H186V56.0123H177.608ZM177.264 56.0123H168.872V47.6206H177.264V56.0123ZM168.529 56.0123H160.137V47.6206H168.529V56.0123ZM159.724 56.0123H151.333V47.6206H159.724V56.0123ZM150.989 56.0123H142.597V47.6206H150.989V56.0123ZM142.253 56.0123H133.861V47.6206H142.253V56.0123ZM133.449 56.0123H125.057V47.6206H133.449V56.0123ZM124.713 56.0123H116.322V47.6206H124.713V56.0123ZM115.978 56.0123H107.586V47.6206H115.978V56.0123ZM107.173 56.0123H98.7816V47.6206H107.173V56.0123ZM107.173 56.3562V64.7478H98.7816V56.3562H107.173ZM98.4377 64.7478H90.0461V56.3562H98.4377V64.7478ZM98.4377 65.1605V73.5522H90.0461V65.1605H98.4377ZM98.4377 73.8961V82.2877H90.0461V73.8961H98.4377ZM98.4377 82.6317V91.0233H90.0461V82.6317H98.4377ZM98.4377 91.436V99.8276H90.0461V91.436H98.4377ZM98.4377 100.172V108.563H90.0461V100.172H98.4377ZM98.4377 108.907V117.299H90.0461V108.907H98.4377ZM98.4377 117.711V126.103H90.0461V117.711H98.4377ZM98.4377 126.447V134.839H90.0461V126.447H98.4377ZM98.4377 135.183V143.574H90.0461V135.183H98.4377ZM98.7816 135.183H107.173V143.574H98.7816V135.183ZM107.173 143.987V152.379H98.7816V143.987H107.173ZM107.586 143.987H115.978V152.379H107.586V143.987ZM116.322 143.987H124.713V152.379H116.322V143.987ZM125.057 143.987H133.449V152.379H125.057V143.987ZM133.861 143.987H142.253V152.379H133.861V143.987ZM142.597 143.987H150.989V152.379H142.597V143.987ZM151.333 143.987H159.724V152.379H151.333V143.987ZM160.137 143.987H168.529V152.379H160.137V143.987ZM168.872 143.987H177.264V152.379H168.872V143.987ZM177.608 143.987H186V152.379H177.608V143.987ZM177.608 143.574V135.183H186V143.574H177.608ZM186.412 135.183H194.804V143.574H186.412V135.183ZM186.412 134.839V126.447H194.804V134.839H186.412ZM186.412 126.103V117.711H194.804V126.103H186.412ZM186.412 117.299V108.907H194.804V117.299H186.412ZM186.412 108.563V100.172H194.804V108.563H186.412ZM186.412 99.8276V91.436H194.804V99.8276H186.412ZM186.412 91.0233V82.6317H194.804V91.0233H186.412ZM186.412 82.2877V73.8961H194.804V82.2877H186.412ZM186.412 73.5522V65.1605H194.804V73.5522H186.412ZM186.412 64.7478V56.3562H194.804V64.7478H186.412ZM186.412 56.0123V47.6206H194.804V56.0123H186.412ZM186.412 47.2767V38.8851H194.804V47.2767H186.412ZM186 47.2767H177.608V38.8851H186V47.2767ZM177.264 47.2767H168.872V38.8851H177.264V47.2767ZM168.529 47.2767H160.137V38.8851H168.529V47.2767ZM159.724 47.2767H151.333V38.8851H159.724V47.2767ZM150.989 47.2767H142.597V38.8851H150.989V47.2767ZM142.253 47.2767H133.861V38.8851H142.253V47.2767ZM133.449 47.2767H125.057V38.8851H133.449V47.2767ZM124.713 47.2767H116.322V38.8851H124.713V47.2767ZM115.978 47.2767H107.586V38.8851H115.978V47.2767ZM107.173 47.2767H98.7816V38.8851H107.173V47.2767ZM98.4377 47.2767H90.0461V38.8851H98.4377V47.2767ZM98.4377 47.6206V56.0123H90.0461V47.6206H98.4377ZM89.7021 56.0123H81.3105V47.6206H89.7021V56.0123ZM89.7021 56.3562V64.7478H81.3105V56.3562H89.7021ZM89.7021 65.1605V73.5522H81.3105V65.1605H89.7021ZM89.7021 73.8961V82.2877H81.3105V73.8961H89.7021ZM89.7021 82.6317V91.0233H81.3105V82.6317H89.7021ZM89.7021 91.436V99.8276H81.3105V91.436H89.7021ZM89.7021 100.172V108.563H81.3105V100.172H89.7021ZM89.7021 108.907V117.299H81.3105V108.907H89.7021ZM89.7021 117.711V126.103H81.3105V117.711H89.7021ZM89.7021 126.447V134.839H81.3105V126.447H89.7021ZM89.7021 135.183V143.574H81.3105V135.183H89.7021ZM89.7021 143.987V152.379H81.3105V143.987H89.7021ZM90.0461 143.987H98.4377V152.379H90.0461V143.987ZM98.4377 152.722V161.114H90.0461V152.722H98.4377ZM98.7816 152.722H107.173V161.114H98.7816V152.722ZM107.586 152.722H115.978V161.114H107.586V152.722ZM116.322 152.722H124.713V161.114H116.322V152.722ZM125.057 152.722H133.449V161.114H125.057V152.722ZM133.861 152.722H142.253V161.114H133.861V152.722ZM142.597 152.722H150.989V161.114H142.597V152.722ZM151.333 152.722H159.724V161.114H151.333V152.722ZM160.137 152.722H168.529V161.114H160.137V152.722ZM168.872 152.722H177.264V161.114H168.872V152.722ZM177.608 152.722H186V161.114H177.608V152.722ZM186.412 152.722H194.804V161.114H186.412V152.722ZM186.412 152.379V143.987H194.804V152.379H186.412ZM195.148 143.987H203.54V152.379H195.148V143.987ZM195.148 143.574V135.183H203.54V143.574H195.148ZM195.148 134.839V126.447H203.54V134.839H195.148ZM195.148 126.103V117.711H203.54V126.103H195.148ZM195.148 117.299V108.907H203.54V117.299H195.148ZM195.148 108.563V100.172H203.54V108.563H195.148ZM195.148 99.8276V91.436H203.54V99.8276H195.148ZM195.148 91.0233V82.6317H203.54V91.0233H195.148ZM195.148 82.2877V73.8961H203.54V82.2877H195.148ZM195.148 73.5522V65.1605H203.54V73.5522H195.148ZM195.148 64.7478V56.3562H203.54V64.7478H195.148ZM195.148 56.0123V47.6206H203.54V56.0123H195.148ZM195.148 47.2767V38.8851H203.54V47.2767H195.148ZM195.148 38.4724V30.0807H203.54V38.4724H195.148ZM194.804 38.4724H186.412V30.0807H194.804V38.4724ZM186 38.4724H177.608V30.0807H186V38.4724ZM177.264 38.4724H168.872V30.0807H177.264V38.4724ZM168.529 38.4724H160.137V30.0807H168.529V38.4724ZM159.724 38.4724H151.333V30.0807H159.724V38.4724ZM150.989 38.4724H142.597V30.0807H150.989V38.4724ZM142.253 38.4724H133.861V30.0807H142.253V38.4724ZM133.449 38.4724H125.057V30.0807H133.449V38.4724ZM124.713 38.4724H116.322V30.0807H124.713V38.4724ZM115.978 38.4724H107.586V30.0807H115.978V38.4724ZM107.173 38.4724H98.7816V30.0807H107.173V38.4724ZM98.4377 38.4724H90.0461V30.0807H98.4377V38.4724ZM89.7021 38.4724H81.3105V30.0807H89.7021V38.4724ZM89.7021 38.8851V47.2767H81.3105V38.8851H89.7021ZM80.8978 47.2767H72.5062V38.8851H80.8978V47.2767ZM80.8978 47.6206V56.0123H72.5062V47.6206H80.8978ZM80.8978 56.3562V64.7478H72.5062V56.3562H80.8978ZM80.8978 65.1605V73.5522H72.5062V65.1605H80.8978ZM80.8978 73.8961V82.2877H72.5062V73.8961H80.8978ZM80.8978 82.6317V91.0233H72.5062V82.6317H80.8978ZM80.8978 91.436V99.8276H72.5062V91.436H80.8978ZM80.8978 100.172V108.563H72.5062V100.172H80.8978ZM80.8978 108.907V117.299H72.5062V108.907H80.8978ZM80.8978 117.711V126.103H72.5062V117.711H80.8978ZM80.8978 126.447V134.839H72.5062V126.447H80.8978ZM80.8978 135.183V143.574H72.5062V135.183H80.8978ZM80.8978 143.987V152.379H72.5062V143.987H80.8978ZM80.8978 152.722V161.114H72.5062V152.722H80.8978ZM81.3105 152.722H89.7021V161.114H81.3105V152.722ZM89.7021 161.458V169.85H81.3105V161.458H89.7021ZM90.0461 161.458H98.4377V169.85H90.0461V161.458ZM98.7816 161.458H107.173V169.85H98.7816V161.458ZM107.586 161.458H115.978V169.85H107.586V161.458ZM116.322 161.458H124.713V169.85H116.322V161.458ZM125.057 161.458H133.449V169.85H125.057V161.458ZM133.861 161.458H142.253V169.85H133.861V161.458ZM142.597 161.458H150.989V169.85H142.597V161.458ZM151.333 161.458H159.724V169.85H151.333V161.458ZM160.137 161.458H168.529V169.85H160.137V161.458ZM168.872 161.458H177.264V169.85H168.872V161.458ZM177.608 161.458H186V169.85H177.608V161.458ZM186.412 161.458H194.804V169.85H186.412V161.458ZM195.148 161.458H203.54V169.85H195.148V161.458ZM195.148 161.114V152.722H203.54V161.114H195.148ZM203.883 152.722H212.275V161.114H203.883V152.722ZM203.883 152.379V143.987H212.275V152.379H203.883ZM203.883 143.574V135.183H212.275V143.574H203.883ZM203.883 134.839V126.447H212.275V134.839H203.883ZM203.883 126.103V117.711H212.275V126.103H203.883ZM203.883 117.299V108.907H212.275V117.299H203.883ZM203.883 108.563V100.172H212.275V108.563H203.883ZM203.883 99.8276V91.436H212.275V99.8276H203.883ZM203.883 91.0233V82.6317H212.275V91.0233H203.883ZM203.883 82.2877V73.8961H212.275V82.2877H203.883ZM203.883 73.5522V65.1605H212.275V73.5522H203.883ZM203.883 64.7478V56.3562H212.275V64.7478H203.883ZM203.883 56.0123V47.6206H212.275V56.0123H203.883ZM203.883 47.2767V38.8851H212.275V47.2767H203.883ZM80.8978 30.0807V38.4724H72.5062V34.0958C72.5062 31.8784 74.3038 30.0807 76.5212 30.0807H80.8978ZM72.5062 161.458H80.8978V169.85H72.5062V161.458ZM203.883 169.85V161.458H212.275V169.85H203.883Z" fill="white"/>
<rect x="0.631714" y="92" width="113.812" height="37.9374" fill="url(#paint2_linear_1395_14861)"/>
</g>
<path d="M7.10419 79.1278C11.0277 79.1278 14.2084 75.9472 14.2084 72.0236C14.2084 68.1001 11.0277 64.9194 7.10419 64.9194C3.18066 64.9194 0 68.1001 0 72.0236C0 75.9472 3.18066 79.1278 7.10419 79.1278Z" fill="url(#paint3_radial_1395_14861)"/>
<path opacity="0.5" d="M2.99545 71.6771C1.70828 70.885 1.38648 69.078 2.2776 67.6671C3.14397 66.2561 4.90145 65.7363 6.18862 66.5284C7.47579 67.3205 7.79758 69.1275 6.90646 70.5385C6.01535 71.9741 4.25786 72.4692 2.99545 71.6771Z" fill="url(#paint4_radial_1395_14861)"/>
<path d="M102.687 31.3839C105.682 31.3839 108.109 28.9562 108.109 25.9615C108.109 22.9668 105.682 20.5391 102.687 20.5391C99.6922 20.5391 97.2645 22.9668 97.2645 25.9615C97.2645 28.9562 99.6922 31.3839 102.687 31.3839Z" fill="url(#paint5_radial_1395_14861)"/>
<g filter="url(#filter0_iii_1395_14861)">
<path d="M79.5117 31.9512H35.4879C34.0769 31.9512 32.9331 33.095 32.9331 34.5059V86.2119C32.9331 87.6229 34.0769 88.7667 35.4879 88.7667H79.5117C80.9226 88.7667 82.0664 87.6229 82.0664 86.2119V34.5059C82.0664 33.095 80.9226 31.9512 79.5117 31.9512Z" fill="#4392F4"/>
</g>
<g filter="url(#filter1_iii_1395_14861)">
<path d="M74.3009 25.4756H40.6993C39.2883 25.4756 38.1445 26.6194 38.1445 28.0304V28.1538C38.1445 29.5648 39.2883 30.7086 40.6993 30.7086H74.3009C75.7118 30.7086 76.8556 29.5648 76.8556 28.1538V28.0304C76.8556 26.6194 75.7118 25.4756 74.3009 25.4756Z" fill="#4392F4"/>
</g>
<g filter="url(#filter2_iii_1395_14861)">
<path d="M68.3453 19H46.6549C45.2439 19 44.1001 20.1438 44.1001 21.5548V21.6782C44.1001 23.0892 45.2439 24.233 46.6549 24.233H68.3453C69.7563 24.233 70.9001 23.0892 70.9001 21.6782V21.5548C70.9001 20.1438 69.7563 19 68.3453 19Z" fill="#4392F4"/>
</g>
<g filter="url(#filter3_iii_1395_14861)">
<path d="M88.4452 88.7671H26.5548C25.1438 88.7671 24 89.9109 24 91.3219V91.4453C24 92.8563 25.1438 94.0001 26.5548 94.0001H88.4452C89.8562 94.0001 91 92.8563 91 91.4453V91.3219C91 89.9109 89.8562 88.7671 88.4452 88.7671Z" fill="#4392F4"/>
</g>
<g filter="url(#filter4_d_1395_14861)">
<path d="M47.5145 38.0439H40.6929C40.1406 38.0439 39.6929 38.4917 39.6929 39.0439V45.9027C39.6929 46.455 40.1406 46.9027 40.6929 46.9027H47.5145C48.0668 46.9027 48.5145 46.455 48.5145 45.9027V39.0439C48.5145 38.4917 48.0668 38.0439 47.5145 38.0439Z" fill="#4BBEFF"/>
</g>
<g filter="url(#filter5_d_1395_14861)">
<path d="M61.3363 38.0439H54.5146C53.9624 38.0439 53.5146 38.4917 53.5146 39.0439V45.9027C53.5146 46.455 53.9624 46.9027 54.5146 46.9027H61.3363C61.8886 46.9027 62.3363 46.455 62.3363 45.9027V39.0439C62.3363 38.4917 61.8886 38.0439 61.3363 38.0439Z" fill="#4BBEFF"/>
</g>
<g filter="url(#filter6_d_1395_14861)">
<path d="M75.1581 38.0439H68.3364C67.7841 38.0439 67.3364 38.4917 67.3364 39.0439V45.9027C67.3364 46.455 67.7841 46.9027 68.3364 46.9027H75.1581C75.7104 46.9027 76.1581 46.455 76.1581 45.9027V39.0439C76.1581 38.4917 75.7104 38.0439 75.1581 38.0439Z" fill="#4BBEFF"/>
</g>
<g filter="url(#filter7_d_1395_14861)">
<path d="M47.5145 51.9028H40.6929C40.1406 51.9028 39.6929 52.3505 39.6929 52.9028V59.7616C39.6929 60.3139 40.1406 60.7616 40.6929 60.7616H47.5145C48.0668 60.7616 48.5145 60.3139 48.5145 59.7616V52.9028C48.5145 52.3505 48.0668 51.9028 47.5145 51.9028Z" fill="#4BBEFF"/>
</g>
<g filter="url(#filter8_d_1395_14861)">
<path d="M61.3363 51.9028H54.5146C53.9624 51.9028 53.5146 52.3505 53.5146 52.9028V59.7616C53.5146 60.3139 53.9624 60.7616 54.5146 60.7616H61.3363C61.8886 60.7616 62.3363 60.3139 62.3363 59.7616V52.9028C62.3363 52.3505 61.8886 51.9028 61.3363 51.9028Z" fill="#4BBEFF"/>
</g>
<g filter="url(#filter9_d_1395_14861)">
<path d="M75.1581 51.9028H68.3364C67.7841 51.9028 67.3364 52.3505 67.3364 52.9028V59.7616C67.3364 60.3139 67.7841 60.7616 68.3364 60.7616H75.1581C75.7104 60.7616 76.1581 60.3139 76.1581 59.7616V52.9028C76.1581 52.3505 75.7104 51.9028 75.1581 51.9028Z" fill="#4BBEFF"/>
</g>
<g filter="url(#filter10_d_1395_14861)">
<path d="M47.5145 65.7617H40.6929C40.1406 65.7617 39.6929 66.2094 39.6929 66.7617V73.6205C39.6929 74.1727 40.1406 74.6205 40.6929 74.6205H47.5145C48.0668 74.6205 48.5145 74.1727 48.5145 73.6205V66.7617C48.5145 66.2094 48.0668 65.7617 47.5145 65.7617Z" fill="#4BBEFF"/>
</g>
<g filter="url(#filter11_d_1395_14861)">
<path d="M61.3363 65.7617H54.5146C53.9624 65.7617 53.5146 66.2094 53.5146 66.7617V73.6205C53.5146 74.1727 53.9624 74.6205 54.5146 74.6205H61.3363C61.8886 74.6205 62.3363 74.1727 62.3363 73.6205V66.7617C62.3363 66.2094 61.8886 65.7617 61.3363 65.7617Z" fill="#4BBEFF"/>
</g>
<g filter="url(#filter12_d_1395_14861)">
<path d="M75.1581 65.7617H68.3364C67.7841 65.7617 67.3364 66.2094 67.3364 66.7617V73.6205C67.3364 74.1727 67.7841 74.6205 68.3364 74.6205H75.1581C75.7104 74.6205 76.1581 74.1727 76.1581 73.6205V66.7617C76.1581 66.2094 75.7104 65.7617 75.1581 65.7617Z" fill="#4BBEFF"/>
</g>
<g filter="url(#filter13_d_1395_14861)">
<path d="M75.8556 78H39.1445C38.5922 78 38.1445 78.4477 38.1445 79V84.4757C38.1445 85.028 38.5922 85.4757 39.1445 85.4757H75.8556C76.4079 85.4757 76.8556 85.028 76.8556 84.4757V79C76.8556 78.4477 76.4079 78 75.8556 78Z" fill="#4BBEFF"/>
</g>
<g filter="url(#filter14_i_1395_14861)">
<path d="M98.7783 80.4454C98.7477 80.4376 98.715 80.4321 98.6922 80.4102C98.2148 79.9541 99.627 73.7441 99.761 73.28C100.444 70.9227 101.574 68.6285 103.393 66.9458C104.68 65.7546 108.118 63.424 109.902 64.794C111.405 65.9502 109.997 68.8531 109.304 70.0669C108.061 72.2255 106.23 73.9742 104.666 75.8884C103.733 77.0334 102.796 78.2004 101.863 79.3454C101.803 79.4239 101.33 80.0945 100.977 80.531C100.75 80.8111 100.422 80.8621 100.072 80.7736C99.6002 80.654 98.9543 80.4901 98.7783 80.4454Z" fill="url(#paint6_linear_1395_14861)"/>
</g>
<g filter="url(#filter15_i_1395_14861)">
<path d="M100.819 82.3332C101.582 82.4974 102.262 81.8488 102.102 81.0848C101.226 76.8808 98.322 65.9195 92.1712 67.9167C86.5809 69.7518 98.5947 80.562 100.335 82.0932C100.475 82.2161 100.637 82.294 100.819 82.3332Z" fill="url(#paint7_linear_1395_14861)"/>
</g>
<path d="M93.8459 70.103C93.8459 70.103 101.039 79.4918 101.122 81.4781L93.8459 70.103Z" fill="#77FFE4" fill-opacity="0.2"/>
<path d="M107.775 66.6458C107.775 66.6458 101.864 74.1862 101.221 77.5329L107.775 66.6458Z" fill="#77FFE4" fill-opacity="0.2"/>
<path d="M93.5055 80.4799C93.4222 79.6159 94.1013 78.8682 94.9693 78.8682H104.938C105.806 78.8682 106.485 79.6159 106.402 80.4799L105.291 92.0024C105.218 92.7564 104.585 93.3318 103.827 93.3318H96.0802C95.3227 93.3318 94.6891 92.7564 94.6164 92.0024L93.5055 80.4799Z" fill="url(#paint8_linear_1395_14861)"/>
<g filter="url(#filter16_i_1395_14861)">
<rect x="92.873" y="78.8682" width="14.1607" height="3.48619" rx="0.735287" fill="url(#paint9_linear_1395_14861)"/>
</g>
<defs>
<filter id="filter0_iii_1395_14861" x="32.3642" y="31.6098" width="49.7022" height="57.7825" filterUnits="userSpaceOnUse" color-interpolation-filters="sRGB">
<feFlood flood-opacity="0" result="BackgroundImageFix"/>
<feBlend mode="normal" in="SourceGraphic" in2="BackgroundImageFix" result="shape"/>
<feColorMatrix in="SourceAlpha" type="matrix" values="0 0 0 0 0 0 0 0 0 0 0 0 0 0 0 0 0 0 127 0" result="hardAlpha"/>
<feOffset dy="-0.341334"/>
<feGaussianBlur stdDeviation="0.341334"/>
<feComposite in2="hardAlpha" operator="arithmetic" k2="-1" k3="1"/>
<feColorMatrix type="matrix" values="0 0 0 0 0.089132 0 0 0 0 0.328429 0 0 0 0 0.629167 0 0 0 1 0"/>
<feBlend mode="normal" in2="shape" result="effect1_innerShadow_1395_14861"/>
<feColorMatrix in="SourceAlpha" type="matrix" values="0 0 0 0 0 0 0 0 0 0 0 0 0 0 0 0 0 0 127 0" result="hardAlpha"/>
<feOffset dy="0.62578"/>
<feGaussianBlur stdDeviation="0.31289"/>
<feComposite in2="hardAlpha" operator="arithmetic" k2="-1" k3="1"/>
<feColorMatrix type="matrix" values="0 0 0 0 0.641667 0 0 0 0 0.8495 0 0 0 0 1 0 0 0 1 0"/>
<feBlend mode="normal" in2="effect1_innerShadow_1395_14861" result="effect2_innerShadow_1395_14861"/>
<feColorMatrix in="SourceAlpha" type="matrix" values="0 0 0 0 0 0 0 0 0 0 0 0 0 0 0 0 0 0 127 0" result="hardAlpha"/>
<feOffset dx="-0.568891"/>
<feGaussianBlur stdDeviation="0.284445"/>
<feComposite in2="hardAlpha" operator="arithmetic" k2="-1" k3="1"/>
<feColorMatrix type="matrix" values="0 0 0 0 0 0 0 0 0 0 0 0 0 0 0 0 0 0 0.25 0"/>
<feBlend mode="normal" in2="effect2_innerShadow_1395_14861" result="effect3_innerShadow_1395_14861"/>
</filter>
<filter id="filter1_iii_1395_14861" x="37.5756" y="25.1343" width="39.28" height="6.20002" filterUnits="userSpaceOnUse" color-interpolation-filters="sRGB">
<feFlood flood-opacity="0" result="BackgroundImageFix"/>
<feBlend mode="normal" in="SourceGraphic" in2="BackgroundImageFix" result="shape"/>
<feColorMatrix in="SourceAlpha" type="matrix" values="0 0 0 0 0 0 0 0 0 0 0 0 0 0 0 0 0 0 127 0" result="hardAlpha"/>
<feOffset dy="-0.341334"/>
<feGaussianBlur stdDeviation="0.341334"/>
<feComposite in2="hardAlpha" operator="arithmetic" k2="-1" k3="1"/>
<feColorMatrix type="matrix" values="0 0 0 0 0.089132 0 0 0 0 0.328429 0 0 0 0 0.629167 0 0 0 1 0"/>
<feBlend mode="normal" in2="shape" result="effect1_innerShadow_1395_14861"/>
<feColorMatrix in="SourceAlpha" type="matrix" values="0 0 0 0 0 0 0 0 0 0 0 0 0 0 0 0 0 0 127 0" result="hardAlpha"/>
<feOffset dy="0.62578"/>
<feGaussianBlur stdDeviation="0.31289"/>
<feComposite in2="hardAlpha" operator="arithmetic" k2="-1" k3="1"/>
<feColorMatrix type="matrix" values="0 0 0 0 0.641667 0 0 0 0 0.8495 0 0 0 0 1 0 0 0 1 0"/>
<feBlend mode="normal" in2="effect1_innerShadow_1395_14861" result="effect2_innerShadow_1395_14861"/>
<feColorMatrix in="SourceAlpha" type="matrix" values="0 0 0 0 0 0 0 0 0 0 0 0 0 0 0 0 0 0 127 0" result="hardAlpha"/>
<feOffset dx="-0.568891"/>
<feGaussianBlur stdDeviation="0.284445"/>
<feComposite in2="hardAlpha" operator="arithmetic" k2="-1" k3="1"/>
<feColorMatrix type="matrix" values="0 0 0 0 0 0 0 0 0 0 0 0 0 0 0 0 0 0 0.25 0"/>
<feBlend mode="normal" in2="effect2_innerShadow_1395_14861" result="effect3_innerShadow_1395_14861"/>
</filter>
<filter id="filter2_iii_1395_14861" x="43.5312" y="18.6587" width="27.3689" height="6.20002" filterUnits="userSpaceOnUse" color-interpolation-filters="sRGB">
<feFlood flood-opacity="0" result="BackgroundImageFix"/>
<feBlend mode="normal" in="SourceGraphic" in2="BackgroundImageFix" result="shape"/>
<feColorMatrix in="SourceAlpha" type="matrix" values="0 0 0 0 0 0 0 0 0 0 0 0 0 0 0 0 0 0 127 0" result="hardAlpha"/>
<feOffset dy="-0.341334"/>
<feGaussianBlur stdDeviation="0.341334"/>
<feComposite in2="hardAlpha" operator="arithmetic" k2="-1" k3="1"/>
<feColorMatrix type="matrix" values="0 0 0 0 0.089132 0 0 0 0 0.328429 0 0 0 0 0.629167 0 0 0 1 0"/>
<feBlend mode="normal" in2="shape" result="effect1_innerShadow_1395_14861"/>
<feColorMatrix in="SourceAlpha" type="matrix" values="0 0 0 0 0 0 0 0 0 0 0 0 0 0 0 0 0 0 127 0" result="hardAlpha"/>
<feOffset dy="0.62578"/>
<feGaussianBlur stdDeviation="0.31289"/>
<feComposite in2="hardAlpha" operator="arithmetic" k2="-1" k3="1"/>
<feColorMatrix type="matrix" values="0 0 0 0 0.641667 0 0 0 0 0.8495 0 0 0 0 1 0 0 0 1 0"/>
<feBlend mode="normal" in2="effect1_innerShadow_1395_14861" result="effect2_innerShadow_1395_14861"/>
<feColorMatrix in="SourceAlpha" type="matrix" values="0 0 0 0 0 0 0 0 0 0 0 0 0 0 0 0 0 0 127 0" result="hardAlpha"/>
<feOffset dx="-0.568891"/>
<feGaussianBlur stdDeviation="0.284445"/>
<feComposite in2="hardAlpha" operator="arithmetic" k2="-1" k3="1"/>
<feColorMatrix type="matrix" values="0 0 0 0 0 0 0 0 0 0 0 0 0 0 0 0 0 0 0.25 0"/>
<feBlend mode="normal" in2="effect2_innerShadow_1395_14861" result="effect3_innerShadow_1395_14861"/>
</filter>
<filter id="filter3_iii_1395_14861" x="23.4311" y="88.4258" width="67.5689" height="6.20002" filterUnits="userSpaceOnUse" color-interpolation-filters="sRGB">
<feFlood flood-opacity="0" result="BackgroundImageFix"/>
<feBlend mode="normal" in="SourceGraphic" in2="BackgroundImageFix" result="shape"/>
<feColorMatrix in="SourceAlpha" type="matrix" values="0 0 0 0 0 0 0 0 0 0 0 0 0 0 0 0 0 0 127 0" result="hardAlpha"/>
<feOffset dy="-0.341334"/>
<feGaussianBlur stdDeviation="0.341334"/>
<feComposite in2="hardAlpha" operator="arithmetic" k2="-1" k3="1"/>
<feColorMatrix type="matrix" values="0 0 0 0 0.089132 0 0 0 0 0.328429 0 0 0 0 0.629167 0 0 0 1 0"/>
<feBlend mode="normal" in2="shape" result="effect1_innerShadow_1395_14861"/>
<feColorMatrix in="SourceAlpha" type="matrix" values="0 0 0 0 0 0 0 0 0 0 0 0 0 0 0 0 0 0 127 0" result="hardAlpha"/>
<feOffset dy="0.62578"/>
<feGaussianBlur stdDeviation="0.31289"/>
<feComposite in2="hardAlpha" operator="arithmetic" k2="-1" k3="1"/>
<feColorMatrix type="matrix" values="0 0 0 0 0.641667 0 0 0 0 0.8495 0 0 0 0 1 0 0 0 1 0"/>
<feBlend mode="normal" in2="effect1_innerShadow_1395_14861" result="effect2_innerShadow_1395_14861"/>
<feColorMatrix in="SourceAlpha" type="matrix" values="0 0 0 0 0 0 0 0 0 0 0 0 0 0 0 0 0 0 127 0" result="hardAlpha"/>
<feOffset dx="-0.568891"/>
<feGaussianBlur stdDeviation="0.284445"/>
<feComposite in2="hardAlpha" operator="arithmetic" k2="-1" k3="1"/>
<feColorMatrix type="matrix" values="0 0 0 0 0 0 0 0 0 0 0 0 0 0 0 0 0 0 0.25 0"/>
<feBlend mode="normal" in2="effect2_innerShadow_1395_14861" result="effect3_innerShadow_1395_14861"/>
</filter>
<filter id="filter4_d_1395_14861" x="35.839" y="35.1901" width="16.5293" height="16.5666" filterUnits="userSpaceOnUse" color-interpolation-filters="sRGB">
<feFlood flood-opacity="0" result="BackgroundImageFix"/>
<feColorMatrix in="SourceAlpha" type="matrix" values="0 0 0 0 0 0 0 0 0 0 0 0 0 0 0 0 0 0 127 0" result="hardAlpha"/>
<feOffset dy="1"/>
<feGaussianBlur stdDeviation="1.92692"/>
<feColorMatrix type="matrix" values="0 0 0 0 0.0330729 0 0 0 0 0.254189 0 0 0 0 0.529167 0 0 0 1 0"/>
<feBlend mode="normal" in2="BackgroundImageFix" result="effect1_dropShadow_1395_14861"/>
<feBlend mode="normal" in="SourceGraphic" in2="effect1_dropShadow_1395_14861" result="shape"/>
</filter>
<filter id="filter5_d_1395_14861" x="49.6608" y="35.1901" width="16.5293" height="16.5666" filterUnits="userSpaceOnUse" color-interpolation-filters="sRGB">
<feFlood flood-opacity="0" result="BackgroundImageFix"/>
<feColorMatrix in="SourceAlpha" type="matrix" values="0 0 0 0 0 0 0 0 0 0 0 0 0 0 0 0 0 0 127 0" result="hardAlpha"/>
<feOffset dy="1"/>
<feGaussianBlur stdDeviation="1.92692"/>
<feColorMatrix type="matrix" values="0 0 0 0 0.0330729 0 0 0 0 0.254189 0 0 0 0 0.529167 0 0 0 1 0"/>
<feBlend mode="normal" in2="BackgroundImageFix" result="effect1_dropShadow_1395_14861"/>
<feBlend mode="normal" in="SourceGraphic" in2="effect1_dropShadow_1395_14861" result="shape"/>
</filter>
<filter id="filter6_d_1395_14861" x="63.4826" y="35.1901" width="16.5293" height="16.5666" filterUnits="userSpaceOnUse" color-interpolation-filters="sRGB">
<feFlood flood-opacity="0" result="BackgroundImageFix"/>
<feColorMatrix in="SourceAlpha" type="matrix" values="0 0 0 0 0 0 0 0 0 0 0 0 0 0 0 0 0 0 127 0" result="hardAlpha"/>
<feOffset dy="1"/>
<feGaussianBlur stdDeviation="1.92692"/>
<feColorMatrix type="matrix" values="0 0 0 0 0.0330729 0 0 0 0 0.254189 0 0 0 0 0.529167 0 0 0 1 0"/>
<feBlend mode="normal" in2="BackgroundImageFix" result="effect1_dropShadow_1395_14861"/>
<feBlend mode="normal" in="SourceGraphic" in2="effect1_dropShadow_1395_14861" result="shape"/>
</filter>
<filter id="filter7_d_1395_14861" x="35.839" y="49.049" width="16.5293" height="16.5666" filterUnits="userSpaceOnUse" color-interpolation-filters="sRGB">
<feFlood flood-opacity="0" result="BackgroundImageFix"/>
<feColorMatrix in="SourceAlpha" type="matrix" values="0 0 0 0 0 0 0 0 0 0 0 0 0 0 0 0 0 0 127 0" result="hardAlpha"/>
<feOffset dy="1"/>
<feGaussianBlur stdDeviation="1.92692"/>
<feColorMatrix type="matrix" values="0 0 0 0 0.0330729 0 0 0 0 0.254189 0 0 0 0 0.529167 0 0 0 1 0"/>
<feBlend mode="normal" in2="BackgroundImageFix" result="effect1_dropShadow_1395_14861"/>
<feBlend mode="normal" in="SourceGraphic" in2="effect1_dropShadow_1395_14861" result="shape"/>
</filter>
<filter id="filter8_d_1395_14861" x="49.6608" y="49.049" width="16.5293" height="16.5666" filterUnits="userSpaceOnUse" color-interpolation-filters="sRGB">
<feFlood flood-opacity="0" result="BackgroundImageFix"/>
<feColorMatrix in="SourceAlpha" type="matrix" values="0 0 0 0 0 0 0 0 0 0 0 0 0 0 0 0 0 0 127 0" result="hardAlpha"/>
<feOffset dy="1"/>
<feGaussianBlur stdDeviation="1.92692"/>
<feColorMatrix type="matrix" values="0 0 0 0 0.0330729 0 0 0 0 0.254189 0 0 0 0 0.529167 0 0 0 1 0"/>
<feBlend mode="normal" in2="BackgroundImageFix" result="effect1_dropShadow_1395_14861"/>
<feBlend mode="normal" in="SourceGraphic" in2="effect1_dropShadow_1395_14861" result="shape"/>
</filter>
<filter id="filter9_d_1395_14861" x="63.4826" y="49.049" width="16.5293" height="16.5666" filterUnits="userSpaceOnUse" color-interpolation-filters="sRGB">
<feFlood flood-opacity="0" result="BackgroundImageFix"/>
<feColorMatrix in="SourceAlpha" type="matrix" values="0 0 0 0 0 0 0 0 0 0 0 0 0 0 0 0 0 0 127 0" result="hardAlpha"/>
<feOffset dy="1"/>
<feGaussianBlur stdDeviation="1.92692"/>
<feColorMatrix type="matrix" values="0 0 0 0 0.0330729 0 0 0 0 0.254189 0 0 0 0 0.529167 0 0 0 1 0"/>
<feBlend mode="normal" in2="BackgroundImageFix" result="effect1_dropShadow_1395_14861"/>
<feBlend mode="normal" in="SourceGraphic" in2="effect1_dropShadow_1395_14861" result="shape"/>
</filter>
<filter id="filter10_d_1395_14861" x="35.839" y="62.9079" width="16.5293" height="16.5666" filterUnits="userSpaceOnUse" color-interpolation-filters="sRGB">
<feFlood flood-opacity="0" result="BackgroundImageFix"/>
<feColorMatrix in="SourceAlpha" type="matrix" values="0 0 0 0 0 0 0 0 0 0 0 0 0 0 0 0 0 0 127 0" result="hardAlpha"/>
<feOffset dy="1"/>
<feGaussianBlur stdDeviation="1.92692"/>
<feColorMatrix type="matrix" values="0 0 0 0 0.0330729 0 0 0 0 0.254189 0 0 0 0 0.529167 0 0 0 1 0"/>
<feBlend mode="normal" in2="BackgroundImageFix" result="effect1_dropShadow_1395_14861"/>
<feBlend mode="normal" in="SourceGraphic" in2="effect1_dropShadow_1395_14861" result="shape"/>
</filter>
<filter id="filter11_d_1395_14861" x="49.6608" y="62.9079" width="16.5293" height="16.5666" filterUnits="userSpaceOnUse" color-interpolation-filters="sRGB">
<feFlood flood-opacity="0" result="BackgroundImageFix"/>
<feColorMatrix in="SourceAlpha" type="matrix" values="0 0 0 0 0 0 0 0 0 0 0 0 0 0 0 0 0 0 127 0" result="hardAlpha"/>
<feOffset dy="1"/>
<feGaussianBlur stdDeviation="1.92692"/>
<feColorMatrix type="matrix" values="0 0 0 0 0.0330729 0 0 0 0 0.254189 0 0 0 0 0.529167 0 0 0 1 0"/>
<feBlend mode="normal" in2="BackgroundImageFix" result="effect1_dropShadow_1395_14861"/>
<feBlend mode="normal" in="SourceGraphic" in2="effect1_dropShadow_1395_14861" result="shape"/>
</filter>
<filter id="filter12_d_1395_14861" x="63.4826" y="62.9079" width="16.5293" height="16.5666" filterUnits="userSpaceOnUse" color-interpolation-filters="sRGB">
<feFlood flood-opacity="0" result="BackgroundImageFix"/>
<feColorMatrix in="SourceAlpha" type="matrix" values="0 0 0 0 0 0 0 0 0 0 0 0 0 0 0 0 0 0 127 0" result="hardAlpha"/>
<feOffset dy="1"/>
<feGaussianBlur stdDeviation="1.92692"/>
<feColorMatrix type="matrix" values="0 0 0 0 0.0330729 0 0 0 0 0.254189 0 0 0 0 0.529167 0 0 0 1 0"/>
<feBlend mode="normal" in2="BackgroundImageFix" result="effect1_dropShadow_1395_14861"/>
<feBlend mode="normal" in="SourceGraphic" in2="effect1_dropShadow_1395_14861" result="shape"/>
</filter>
<filter id="filter13_d_1395_14861" x="34.2907" y="75.1462" width="46.4187" height="15.1833" filterUnits="userSpaceOnUse" color-interpolation-filters="sRGB">
<feFlood flood-opacity="0" result="BackgroundImageFix"/>
<feColorMatrix in="SourceAlpha" type="matrix" values="0 0 0 0 0 0 0 0 0 0 0 0 0 0 0 0 0 0 127 0" result="hardAlpha"/>
<feOffset dy="1"/>
<feGaussianBlur stdDeviation="1.92692"/>
<feColorMatrix type="matrix" values="0 0 0 0 0.0330729 0 0 0 0 0.254189 0 0 0 0 0.529167 0 0 0 1 0"/>
<feBlend mode="normal" in2="BackgroundImageFix" result="effect1_dropShadow_1395_14861"/>
<feBlend mode="normal" in="SourceGraphic" in2="effect1_dropShadow_1395_14861" result="shape"/>
</filter>
<filter id="filter14_i_1395_14861" x="98.594" y="64.1059" width="12.6807" height="16.7071" filterUnits="userSpaceOnUse" color-interpolation-filters="sRGB">
<feFlood flood-opacity="0" result="BackgroundImageFix"/>
<feBlend mode="normal" in="SourceGraphic" in2="BackgroundImageFix" result="shape"/>
<feColorMatrix in="SourceAlpha" type="matrix" values="0 0 0 0 0 0 0 0 0 0 0 0 0 0 0 0 0 0 127 0" result="hardAlpha"/>
<feOffset dx="0.70514" dy="-0.269557"/>
<feGaussianBlur stdDeviation="0.919109"/>
<feComposite in2="hardAlpha" operator="arithmetic" k2="-1" k3="1"/>
<feColorMatrix type="matrix" values="0 0 0 0 0.113056 0 0 0 0 0.616667 0 0 0 0 0.58645 0 0 0 1 0"/>
<feBlend mode="normal" in2="shape" result="effect1_innerShadow_1395_14861"/>
</filter>
<filter id="filter15_i_1395_14861" x="90.6996" y="67.4062" width="12.1313" height="14.9527" filterUnits="userSpaceOnUse" color-interpolation-filters="sRGB">
<feFlood flood-opacity="0" result="BackgroundImageFix"/>
<feBlend mode="normal" in="SourceGraphic" in2="BackgroundImageFix" result="shape"/>
<feColorMatrix in="SourceAlpha" type="matrix" values="0 0 0 0 0 0 0 0 0 0 0 0 0 0 0 0 0 0 127 0" result="hardAlpha"/>
<feOffset dx="0.70514" dy="-0.269557"/>
<feGaussianBlur stdDeviation="0.919109"/>
<feComposite in2="hardAlpha" operator="arithmetic" k2="-1" k3="1"/>
<feColorMatrix type="matrix" values="0 0 0 0 0.0996528 0 0 0 0 0.683333 0 0 0 0 0.555806 0 0 0 1 0"/>
<feBlend mode="normal" in2="shape" result="effect1_innerShadow_1395_14861"/>
</filter>
<filter id="filter16_i_1395_14861" x="92.873" y="78.6476" width="14.4548" height="3.70691" filterUnits="userSpaceOnUse" color-interpolation-filters="sRGB">
<feFlood flood-opacity="0" result="BackgroundImageFix"/>
<feBlend mode="normal" in="SourceGraphic" in2="BackgroundImageFix" result="shape"/>
<feColorMatrix in="SourceAlpha" type="matrix" values="0 0 0 0 0 0 0 0 0 0 0 0 0 0 0 0 0 0 127 0" result="hardAlpha"/>
<feOffset dx="0.294115" dy="-0.220586"/>
<feGaussianBlur stdDeviation="0.25735"/>
<feComposite in2="hardAlpha" operator="arithmetic" k2="-1" k3="1"/>
<feColorMatrix type="matrix" values="0 0 0 0 0.833333 0 0 0 0 0.604343 0 0 0 0 0.0555555 0 0 0 1 0"/>
<feBlend mode="normal" in2="shape" result="effect1_innerShadow_1395_14861"/>
</filter>
<linearGradient id="paint0_linear_1395_14861" x1="57.5386" y1="0" x2="57.5386" y2="111.287" gradientUnits="userSpaceOnUse">
<stop stop-color="#B5EFFF"/>
<stop offset="1" stop-color="#E7F8FE"/>
</linearGradient>
<linearGradient id="paint1_linear_1395_14861" x1="57.1898" y1="0" x2="57.1898" y2="110.637" gradientUnits="userSpaceOnUse">
<stop stop-color="#B5EFFF"/>
<stop offset="1" stop-color="#EDFBFF"/>
</linearGradient>
<linearGradient id="paint2_linear_1395_14861" x1="50.6944" y1="92" x2="66.3903" y2="139.675" gradientUnits="userSpaceOnUse">
<stop stop-color="#7FD3E9"/>
<stop offset="1" stop-color="#7FD3E9" stop-opacity="0"/>
</linearGradient>
<radialGradient id="paint3_radial_1395_14861" cx="0" cy="0" r="1" gradientUnits="userSpaceOnUse" gradientTransform="translate(3.72498 69.1549) rotate(-15.1772) scale(13.5476)">
<stop stop-color="#FFF1CF"/>
<stop offset="0.1875" stop-color="#FFE4A2"/>
<stop offset="0.317708" stop-color="#FFD364"/>
<stop offset="0.489583" stop-color="#FFD364"/>
<stop offset="0.651042" stop-color="#FFC73A"/>
<stop offset="0.947917" stop-color="#D09500"/>
</radialGradient>
<radialGradient id="paint4_radial_1395_14861" cx="0" cy="0" r="1" gradientUnits="userSpaceOnUse" gradientTransform="translate(4.57368 69.1234) rotate(121.889) scale(2.96701 2.70207)">
<stop stop-color="white"/>
<stop offset="0.6944" stop-color="white" stop-opacity="0"/>
</radialGradient>
<radialGradient id="paint5_radial_1395_14861" cx="0" cy="0" r="1" gradientUnits="userSpaceOnUse" gradientTransform="translate(100.108 23.7719) rotate(-15.1772) scale(10.3404)">
<stop stop-color="#E6C6FF"/>
<stop offset="0.1875" stop-color="#C07DF5"/>
<stop offset="0.317708" stop-color="#BE6FFC"/>
<stop offset="0.489583" stop-color="#B56AF0"/>
<stop offset="0.651042" stop-color="#A745F4"/>
<stop offset="0.947917" stop-color="#9F3DED"/>
</radialGradient>
<linearGradient id="paint6_linear_1395_14861" x1="112.305" y1="64.633" x2="98.968" y2="76.6105" gradientUnits="userSpaceOnUse">
<stop stop-color="#BAFFF1" stop-opacity="0.26"/>
<stop offset="0.682292" stop-color="#4DC7AE"/>
<stop offset="0.96875" stop-color="#06896F"/>
</linearGradient>
<linearGradient id="paint7_linear_1395_14861" x1="106.371" y1="69.2808" x2="98.26" y2="82.9408" gradientUnits="userSpaceOnUse">
<stop stop-color="#B7FDEF"/>
<stop offset="0.682292" stop-color="#09B794"/>
<stop offset="0.96875" stop-color="#7EE0CC"/>
</linearGradient>
<linearGradient id="paint8_linear_1395_14861" x1="106.557" y1="88.3898" x2="94.2926" y2="88.3898" gradientUnits="userSpaceOnUse">
<stop offset="0.0989583" stop-color="#FFEEC5"/>
<stop offset="0.606776" stop-color="#FACD63"/>
<stop offset="0.838542" stop-color="#EAAF23"/>
<stop offset="0.984375" stop-color="#EDB52F"/>
</linearGradient>
<linearGradient id="paint9_linear_1395_14861" x1="107.034" y1="81.1632" x2="93.8836" y2="81.1632" gradientUnits="userSpaceOnUse">
<stop offset="0.0989583" stop-color="#FFEEC5"/>
<stop offset="0.606776" stop-color="#FCBD27"/>
<stop offset="0.984375" stop-color="#EFB222"/>
</linearGradient>
</defs>
</svg>
