<svg width="151" height="151" viewBox="0 0 151 151" fill="none" xmlns="http://www.w3.org/2000/svg">
<path opacity="0.2" d="M79.8072 125.859C108.366 125.859 131.517 102.708 131.517 74.1495C131.517 45.5908 108.366 22.4395 79.8072 22.4395C51.2485 22.4395 28.0972 45.5908 28.0972 74.1495C28.0972 102.708 51.2485 125.859 79.8072 125.859Z" fill="#BEC6D2"/>
<path d="M30.4571 24.3496H36.7971" stroke="#91A1B0" stroke-width="1.2" stroke-linecap="round" stroke-linejoin="round"/>
<path d="M44.3169 9.55957V15.9096" stroke="#91A1B0" stroke-width="1.2" stroke-linecap="round" stroke-linejoin="round"/>
<path d="M33.1573 14.0996L38.1872 17.9696" stroke="#91A1B0" stroke-width="1.2" stroke-linecap="round" stroke-linejoin="round"/>
<path d="M117.767 48.78V114.84C117.767 117.16 115.887 119.04 113.567 119.04H48.5169C46.1969 119.04 44.3169 117.16 44.3169 114.84V29.2C44.3169 26.88 46.1969 25 48.5169 25H95.5569" fill="white"/>
<path d="M117.767 48.78V114.84C117.767 117.16 115.887 119.04 113.567 119.04H48.5169C46.1969 119.04 44.3169 117.16 44.3169 114.84V29.2C44.3169 26.88 46.1969 25 48.5169 25H95.5569" stroke="#91A1B0" stroke-width="1.2" stroke-miterlimit="10"/>
<path d="M117.767 48.78H100.067C97.5769 48.78 95.5469 46.72 95.5469 44.17V25L117.767 48.78Z" fill="#91A1B0" stroke="#91A1B0" stroke-width="1.2" stroke-linecap="round" stroke-linejoin="round"/>
<path d="M54.4971 57.9297H93.9971" stroke="#CED6DE" stroke-width="1.2" stroke-linecap="round" stroke-linejoin="round"/>
<path d="M54.4971 63.7598H81.9171" stroke="#CED6DE" stroke-width="1.2" stroke-linecap="round" stroke-linejoin="round"/>
<path d="M117.767 124.32C128.15 124.32 136.567 115.903 136.567 105.52C136.567 95.1368 128.15 86.7197 117.767 86.7197C107.384 86.7197 98.9668 95.1368 98.9668 105.52C98.9668 115.903 107.384 124.32 117.767 124.32Z" fill="white" stroke="#91A1B0" stroke-width="1.2" stroke-linecap="round" stroke-linejoin="round"/>
<path d="M135.987 133.85H141.377" stroke="#91A1B0" stroke-width="1.2" stroke-linecap="round" stroke-linejoin="round"/>
<path d="M106.567 133.85H130.147" stroke="#91A1B0" stroke-width="1.2" stroke-linecap="round" stroke-linejoin="round"/>
<path d="M14.7969 133.85H100.967" stroke="#91A1B0" stroke-width="1.2" stroke-linecap="round" stroke-linejoin="round"/>
<path d="M112.037 111.24C111.807 111.01 111.807 110.63 112.037 110.39L122.647 99.7799C122.877 99.5499 123.257 99.5499 123.497 99.7799C123.737 100.01 123.727 100.39 123.497 100.63L112.887 111.24C112.657 111.47 112.277 111.47 112.037 111.24Z" fill="#91A1B0"/>
<path d="M122.647 111.24L112.037 100.63C111.807 100.4 111.807 100.02 112.037 99.7798C112.267 99.5398 112.647 99.5498 112.887 99.7798L123.497 110.39C123.727 110.62 123.727 111 123.497 111.24C123.267 111.48 122.887 111.47 122.647 111.24Z" fill="#91A1B0"/>
<path d="M54.1172 79.7998H95.5572" stroke="#CED6DE" stroke-width="1.2" stroke-linecap="round" stroke-linejoin="round"/>
<path d="M54.1172 85.9102H82.8872" stroke="#CED6DE" stroke-width="1.2" stroke-linecap="round" stroke-linejoin="round"/>
<path d="M54.1172 98.25H95.5572" stroke="#CED6DE" stroke-width="1.2" stroke-linecap="round" stroke-linejoin="round"/>
<path d="M54.1172 104.359H82.8872" stroke="#CED6DE" stroke-width="1.2" stroke-linecap="round" stroke-linejoin="round"/>
<path opacity="0.2" d="M79.4868 36.4102H67.1068C66.433 36.4102 65.8867 36.9564 65.8867 37.6302V37.8402C65.8867 38.5139 66.433 39.0602 67.1068 39.0602H79.4868C80.1606 39.0602 80.7068 38.5139 80.7068 37.8402V37.6302C80.7068 36.9564 80.1606 36.4102 79.4868 36.4102Z" fill="#BEC6D2"/>
<path opacity="0.2" d="M88.1967 41.1094H67.6668C66.6837 41.1094 65.8867 41.9063 65.8867 42.8894V43.1994C65.8867 44.1824 66.6837 44.9794 67.6668 44.9794H88.1967C89.1798 44.9794 89.9768 44.1824 89.9768 43.1994V42.8894C89.9768 41.9063 89.1798 41.1094 88.1967 41.1094Z" fill="#BEC6D2"/>
<path opacity="0.2" d="M56.5473 45.8095C58.9277 45.8095 60.8573 43.8798 60.8573 41.4995C60.8573 39.1191 58.9277 37.1895 56.5473 37.1895C54.167 37.1895 52.2373 39.1191 52.2373 41.4995C52.2373 43.8798 54.167 45.8095 56.5473 45.8095Z" fill="#BEC6D2"/>
</svg>
