<svg width="123" height="123" viewBox="0 0 123 123" fill="none" xmlns="http://www.w3.org/2000/svg">
<path opacity="0.2" d="M65.574 102.746C88.9921 102.746 107.976 83.7618 107.976 60.3437C107.976 36.9256 88.9921 17.9415 65.574 17.9415C42.156 17.9415 23.1719 36.9256 23.1719 60.3437C23.1719 83.7618 42.156 102.746 65.574 102.746Z" fill="#BEC6D2"/>
<path d="M25.1094 19.5079H30.3081" stroke="#91A1B0" stroke-width="1.2" stroke-linecap="round" stroke-linejoin="round"/>
<path d="M36.4727 7.38V12.587" stroke="#91A1B0" stroke-width="1.2" stroke-linecap="round" stroke-linejoin="round"/>
<path d="M27.3223 11.1028L31.4469 14.2762" stroke="#91A1B0" stroke-width="1.2" stroke-linecap="round" stroke-linejoin="round"/>
<path d="M96.4086 39.5403V93.7095C96.4086 95.6119 94.8671 97.1535 92.9647 97.1535H39.6236C37.7212 97.1535 36.1797 95.6119 36.1797 93.7095V23.4847C36.1797 21.5823 37.7212 20.0407 39.6236 20.0407H78.1965" fill="white"/>
<path d="M96.4087 39.5403V93.7095C96.4087 95.6119 94.8671 97.1535 92.9647 97.1535H39.6236C37.7212 97.1535 36.1797 95.6119 36.1797 93.7095V23.4847C36.1797 21.5823 37.7212 20.0407 39.6236 20.0407H78.1965" stroke="#91A1B0" stroke-width="1.2" stroke-miterlimit="10"/>
<path d="M96.4059 39.5403H81.892C79.8502 39.5403 78.1855 37.8511 78.1855 35.7601V20.0407L96.4059 39.5403Z" fill="#91A1B0" stroke="#91A1B0" stroke-width="1.2" stroke-linecap="round" stroke-linejoin="round"/>
<path d="M96.703 101.483C105.217 101.483 112.119 94.5814 112.119 86.0674C112.119 77.5533 105.217 70.6514 96.703 70.6514C88.189 70.6514 81.2871 77.5533 81.2871 86.0674C81.2871 94.5814 88.189 101.483 96.703 101.483Z" fill="white" stroke="#91A1B0" stroke-width="1.2" stroke-linecap="round" stroke-linejoin="round"/>
<path d="M111.645 109.298H116.064" stroke="#91A1B0" stroke-width="1.2" stroke-linecap="round" stroke-linejoin="round"/>
<path d="M87.5176 109.298H106.853" stroke="#91A1B0" stroke-width="1.2" stroke-linecap="round" stroke-linejoin="round"/>
<path d="M12.2676 109.298H82.927" stroke="#91A1B0" stroke-width="1.2" stroke-linecap="round" stroke-linejoin="round"/>
<path d="M92.0028 90.7575C91.8142 90.5689 91.8142 90.2573 92.0028 90.0605L100.703 81.3603C100.892 81.1717 101.203 81.1717 101.4 81.3603C101.597 81.5489 101.589 81.8605 101.4 82.0573L92.6998 90.7575C92.5112 90.9461 92.1996 90.9461 92.0028 90.7575Z" fill="#91A1B0"/>
<path d="M100.703 90.7578L92.0028 82.0576C91.8142 81.869 91.8142 81.5574 92.0028 81.3606C92.1914 81.1638 92.503 81.172 92.6998 81.3606L101.4 90.0608C101.589 90.2494 101.589 90.561 101.4 90.7578C101.211 90.9546 100.9 90.9464 100.703 90.7578Z" fill="#91A1B0"/>
<path opacity="0.2" d="M65.8951 28.7737H56.0961C55.5436 28.7737 55.0957 29.2216 55.0957 29.7741V29.8889C55.0957 30.4414 55.5436 30.8893 56.0961 30.8893H65.8951C66.4476 30.8893 66.8955 30.4414 66.8955 29.8889V29.7741C66.8955 29.2216 66.4476 28.7737 65.8951 28.7737Z" fill="#BEC6D2"/>
<path opacity="0.2" d="M72.8241 32.5214H56.5553C55.7492 32.5214 55.0957 33.1748 55.0957 33.981V34.145C55.0957 34.9511 55.7492 35.6046 56.5553 35.6046H72.8241C73.6302 35.6046 74.2837 34.9511 74.2837 34.145V33.981C74.2837 33.1748 73.6302 32.5214 72.8241 32.5214Z" fill="#BEC6D2"/>
<path opacity="0.2" d="M47.6487 35.6289C49.5463 35.6289 51.0845 34.0906 51.0845 32.1931C51.0845 30.2955 49.5463 28.7573 47.6487 28.7573C45.7512 28.7573 44.2129 30.2955 44.2129 32.1931C44.2129 34.0906 45.7512 35.6289 47.6487 35.6289Z" fill="#BEC6D2"/>
<path d="M44.2129 86.8135H66.8695" stroke="#CED6DE" stroke-width="1.2" stroke-linecap="round" stroke-linejoin="round"/>
<path d="M44.2129 91.8235H59.9405" stroke="#CED6DE" stroke-width="1.2" stroke-linecap="round" stroke-linejoin="round"/>
<path d="M59.924 43.788L60.8259 46.5514H63.737L61.3836 48.2652L62.2773 51.0286L59.924 49.323L57.5706 51.0286L58.4725 48.2652L56.1191 46.5514H59.0302L59.924 43.788Z" stroke="#CED6DE" stroke-width="1.2" stroke-linecap="round" stroke-linejoin="round"/>
<path d="M71.8556 43.788L72.7576 46.5514H75.6685L73.3151 48.2652L74.209 51.0286L71.8556 49.323L69.5022 51.0286L70.4042 48.2652L68.0508 46.5514H70.9617L71.8556 43.788Z" stroke="#CED6DE" stroke-width="1.2" stroke-linecap="round" stroke-linejoin="round"/>
<path d="M83.7872 43.788L84.6892 46.5514H87.6003L85.2469 48.2652L86.1406 51.0286L83.7872 49.323L81.4338 51.0286L82.3358 48.2652L79.9824 46.5514H82.8853L83.7872 43.788Z" stroke="#CED6DE" stroke-width="1.2" stroke-linecap="round" stroke-linejoin="round"/>
<path d="M44.2129 48.5359L46.9107 50.7499L51.7815 44.8377" stroke="#CED6DE" stroke-width="1.2" stroke-linecap="round" stroke-linejoin="round"/>
<path d="M59.924 57.0965L60.8259 59.8681H63.737L61.3836 61.5737L62.2773 64.3453L59.924 62.6315L57.5706 64.3453L58.4725 61.5737L56.1191 59.8681H59.0302L59.924 57.0965Z" stroke="#CED6DE" stroke-width="1.2" stroke-linecap="round" stroke-linejoin="round"/>
<path d="M71.8556 57.0965L72.7576 59.8681H75.6685L73.3151 61.5737L74.209 64.3453L71.8556 62.6315L69.5022 64.3453L70.4042 61.5737L68.0508 59.8681H70.9617L71.8556 57.0965Z" stroke="#CED6DE" stroke-width="1.2" stroke-linecap="round" stroke-linejoin="round"/>
<path d="M51.5355 57.4408H44.2129V64.7634H51.5355V57.4408Z" stroke="#CED6DE" stroke-width="1.2" stroke-linecap="round" stroke-linejoin="round"/>
<path d="M59.924 70.8315L60.8259 73.6031H63.737L61.3836 75.3087L62.2773 78.0803L59.924 76.3665L57.5706 78.0803L58.4725 75.3087L56.1191 73.6031H59.0302L59.924 70.8315Z" stroke="#CED6DE" stroke-width="1.2" stroke-linecap="round" stroke-linejoin="round"/>
<path d="M51.5355 71.1758H44.2129V78.4984H51.5355V71.1758Z" stroke="#CED6DE" stroke-width="1.2" stroke-linecap="round" stroke-linejoin="round"/>
</svg>
