<svg xmlns="http://www.w3.org/2000/svg" width="150" height="150" fill="none" viewBox="0 0 150 150"><path stroke="#91A1B0" stroke-linecap="round" stroke-linejoin="round" stroke-width="1.2" d="M134 129h5.5m-35.5 0h24m-117.5 0h87.8"/><path fill="#BEC6D2" d="M75 122.1a50 50 0 1 0 0-100 50 50 0 0 0 0 100Z" opacity=".2"/><path fill="#fff" stroke="#91A1B0" stroke-miterlimit="10" stroke-width="1.2" d="M38 36.6h74c3 0 5.6 2.6 5.6 5.7v59.6c0 3.2-2.5 5.7-5.7 5.7H38.1a5.7 5.7 0 0 1-5.7-5.7V42.3c0-3.1 2.6-5.7 5.7-5.7Z"/><path fill="#91A1B0" stroke="#91A1B0" stroke-linecap="round" stroke-linejoin="round" stroke-width=".8" d="M37.6 37.3h74.8c2.5 0 4.5 2 4.5 4.5v11.8H33V42c0-2.6 2-4.6 4.6-4.6Z"/><path fill="#fff" d="M52.1 45.5h-9.8 9.8Z"/><path stroke="#fff" stroke-linecap="round" stroke-miterlimit="10" stroke-width="1.2" d="M52.1 45.5h-9.8"/><path stroke="#91A1B0" stroke-linecap="round" stroke-linejoin="round" stroke-width="1.2" d="M18.4 35h6m7.2-14v6M21 25.3l4.8 3.7"/><path fill="#fff" stroke="#C4CCD4" d="M65.6 80.3v3.4c0 .7.7 1.4 1.4 1.4h28.5c.8 0 1.4-.7 1.4-1.4v-3.4c0-.4-.2-.8-.5-1.1-.8-.6-2-2-2-4.2 0-2.1 1.2-3.5 2-4.1.3-.3.5-.7.5-1.1v-3.4c0-.8-.6-1.4-1.4-1.4H67c-.7 0-1.4.6-1.4 1.4v3.4c0 .4.2.8.5 1 .8.7 2.1 2 2.1 4.2s-1.3 3.6-2 4.2c-.4.3-.6.6-.6 1Z"/><rect width="13" height="7" x="74.7" y="71.5" stroke="#C4CCD4" rx="1.7"/><path fill="#fff" stroke="#C4CCD4" d="M53.1 89.4v3.4c0 .8.6 1.4 1.4 1.4H83c.8 0 1.4-.6 1.4-1.4v-3.4c0-.4-.2-.8-.5-1-.8-.6-2.1-2-2.1-4.2 0-2.1 1.3-3.6 2-4.2.4-.2.6-.6.6-1v-3.4c0-.8-.6-1.4-1.4-1.4H54.5c-.8 0-1.4.6-1.4 1.4v3.3c0 .5.2.8.5 1.1.8.6 2.1 2 2.1 4.2s-1.3 3.5-2 4.2c-.4.2-.6.6-.6 1Z"/><rect width="13" height="7" x="62.2" y="80.7" stroke="#C4CCD4" rx="1.7"/></svg>