<svg xmlns="http://www.w3.org/2000/svg" xmlns:xlink="http://www.w3.org/1999/xlink" data-name="Layer 1" viewBox="0 0 414.29 300"><defs><clipPath id="fs-bxea6wtila"><path fill="none" d="M-1193.94-755.96h903.35v92.09h-903.35z"/></clipPath><clipPath id="fs-f06yu0ccwb"><path fill="none" d="M-608.33-335.24h868.89v88.58h-868.89z"/></clipPath><clipPath id="fs-oeuccfcl8c"><path fill="none" d="M-608.33-452.81h868.89v88.58h-868.89z"/></clipPath></defs><path fill="#ebeff3" d="M272.28 125.27c5.2-6.36 10.88-12.14 19.07-15.37 11.36-4.51 27.18-2.29 32.89-15.47 1.78-4.1 2.65-8.55 4.34-12.71 4.15-10.25 18.85 0 29.49-2.83 17-4.53 31.6-13.69 37.3 3.57 4.24 12.9-3.27 23.78-5.15 36.29-1.58 10.49 2.72 17.83 5.95 27.38 2.33 6.91 2.93 15.19-1.59 20.91-3 3.81-7.87 5.83-12.72 6.43-8.55 1.06-16.3-1.56-24.81.92-7.4 2.16-13.84 6.75-21.13 9.24-17.42 6-32.81-6.69-49.35-9.63-7.69-1.36-60.75 23.32-56.18 1.82 1.71-8 13.62-23.59 20.24-27.71 9.15-5.71 14.99-14.73 21.65-22.84z"/><path fill="#273139" d="M150.42 266.27a31.19 31.19 0 008.73 3.35c1.79 1.41 2.82 5 8.34 5.5s5.42 5.9.44 5.43c-4.07-.35-6.29-.2-9.09-2a8.74 8.74 0 01-2-2 9 9 0 00-4.16-3 54.53 54.53 0 00-5.45-1.84c1.25-2.15 1.9-3.27 3.19-5.44z"/><path fill="#273139" d="M147.06 272.52c-.15.8-.22 1.2-.37 2 2.94.54 4.31 1.41 7.23 2.12.11-.62.18-.95.3-1.6a29.86 29.86 0 00-7.16-2.51z"/><path fill="#fff" d="M160.41 273.7a1.18 1.18 0 01.25-.76.66.66 0 01.51-.23 1 1 0 01.55.19.29.29 0 00.27 0 .27.27 0 00.16-.22.3.3 0 00-.12-.25 1.56 1.56 0 00-.86-.29 1.22 1.22 0 00-.92.43 1.79 1.79 0 00-.39 1.09.29.29 0 00.07.2.27.27 0 00.19.08.31.31 0 00.2-.07.31.31 0 00.09-.17zM161.92 275.43a1.2 1.2 0 01.39-.89 1.24 1.24 0 01.9-.35 1.32 1.32 0 01.39.06.27.27 0 00.33-.19.26.26 0 00-.18-.33 2 2 0 00-.54-.08 1.8 1.8 0 00-1.84 1.77.29.29 0 00.28.23.28.28 0 00.27-.23zM163.9 276.31a1.27 1.27 0 01.48-.95 1.68 1.68 0 011.13-.43h.29a.28.28 0 00.29-.42.25.25 0 00-.17-.11 2 2 0 00-.41 0 2.3 2.3 0 00-1.48.57 1.87 1.87 0 00-.71 1.36.28.28 0 00.55 0z"/><path fill="#273139" d="M191.24 271.49a31.46 31.46 0 009.33.7c2.12.86 4.14 4 9.57 2.88s6.88 4.11 2 5.08c-4 .82-6.08 1.61-9.27.7a8 8 0 01-2.48-1.31 9.17 9.17 0 00-4.85-1.68 52.35 52.35 0 00-5.74-.2c.54-2.46.83-3.72 1.44-6.17z"/><path fill="#273139" d="M189.82 278.44c.08.8.13 1.21.21 2 3-.31 4.53.1 7.53-.05-.07-.62-.1-1-.18-1.62a29 29 0 00-7.56-.33z"/><path fill="#fff" d="M202.94 275.75a1.22 1.22 0 010-.8.67.67 0 01.42-.37 1 1 0 01.58 0 .27.27 0 10.17-.52 1.53 1.53 0 00-.9 0 1.19 1.19 0 00-.76.66 1.8 1.8 0 00-.06 1.17.28.28 0 00.33.19.31.31 0 00.17-.13.27.27 0 000-.2zM204.88 277a1.31 1.31 0 01.12-1 1.27 1.27 0 01.77-.59 1.23 1.23 0 01.39-.06.27.27 0 000-.54 1.91 1.91 0 00-.54.08 1.79 1.79 0 00-1.25 2.22.28.28 0 00.34.19.29.29 0 00.19-.33zM207 277.25a1.29 1.29 0 01.2-1.06 1.77 1.77 0 011-.71 1.47 1.47 0 01.29-.05.28.28 0 00.26-.29.3.3 0 00-.3-.26l-.4.08a2.35 2.35 0 00-1.26 1 1.81 1.81 0 00-.25 1.5.26.26 0 00.13.16.26.26 0 00.21 0 .26.26 0 00.16-.13.26.26 0 000-.21z"/><path fill="#b1bdc7" d="M69.12 38.98h.71v65.51h-.71z"/><path fill="#e5f2fd" d="M73.92 40.79h116.77v52.27H73.92z"/><path fill="#ebeff3" d="M73.92 96.11h116.77v42H73.92z"/><path fill="#e5f2fd" d="M67.48 33.77h123.56v4.73H67.48z"/><rect width="4.53" height="13.13" x="67.32" y="101.89" fill="#b1bdc7" rx="2.26"/><path fill="#cfd7df" d="M194.92 60.1H302.7v8.17H194.92z"/><path fill="#34479d" d="M162 188.12l28.07 22.61.42.34a5 5 0 011.83 3.33l5.93 51.94a3.36 3.36 0 01-6.62 1l-10.37-51.24 2.26 3.67-30.28-19.5a7.52 7.52 0 118.11-12.64 5.41 5.41 0 01.65.49z"/><path fill="#34479d" d="M149.82 190.78l18.21 25 .37.52a4.92 4.92 0 01.82 4.07l-10.32 43.7a3.35 3.35 0 01-6.58-1.22l5.93-44.5 1.2 4.58-21.2-22.53a7.53 7.53 0 1111-10.31 5 5 0 01.57.69z"/><path fill="#cfd7df" d="M43.39 82.6l8.66 10.19a15 15 0 00-3.62 6.35l-6.36-11.25s-.71-.4-.11-1.58a11.48 11.48 0 011.43-3.71z"/><path fill="#92a2b1" d="M26.22 115.46a.36.36 0 01-.2-.06l-4.37-3a.39.39 0 01-.15-.26.35.35 0 01.1-.28l9.28-9.27a.35.35 0 01.5.5l-9 9 3.78 2.61 19.36-19.29-2.35-4.12-5.87 5.86a.35.35 0 01-.5-.5l6.2-6.19a.33.33 0 01.3-.1.36.36 0 01.26.17l2.7 4.77a.35.35 0 010 .42l-19.79 19.64a.35.35 0 01-.25.1zM56.39 154.18H27.86v-3.83a3 3 0 013-3h5.84v.7h-5.85a2.3 2.3 0 00-2.29 2.29v3.12h27.12v-3.12a2.29 2.29 0 00-2.28-2.29H43.05v-.7H53.4a3 3 0 013 3z"/><path fill="#92a2b1" d="M51.64 147.71h-.71v-1.8a1.24 1.24 0 00-1.24-1.24H34.55a1.25 1.25 0 00-1.25 1.24v1.8h-.7v-1.8a2 2 0 011.95-1.91h15.14a2 2 0 012 1.94z"/><path fill="#cfd7df" d="M37.67 144.13l-16-29.67a3 3 0 011.3-4.13 3 3 0 014 1.31l16.77 32.5z"/><path fill="#92a2b1" d="M28.987 112.404l.63-.326 16.628 32.077-.63.326z"/><path fill="#fff" d="M24.42 114.53a1.24 1.24 0 111.23-1.24 1.24 1.24 0 01-1.23 1.24zm0-1.77a.53.53 0 00-.53.53.52.52 0 00.53.53.53.53 0 00.53-.53.53.53 0 00-.53-.53z"/><path fill="#92a2b1" d="M32.36 280.41h306.17v.71H32.36zM341.25 280.41h5.09v.71h-5.09zM42.82 84.05l-2.09-2.84a2.76 2.76 0 01-.5-2.76 10.1 10.1 0 015.87-5.66 2.33 2.33 0 012.72.59l2.68 2.22-.49.24a17.76 17.76 0 00-7.93 7.71zM47 73.29a1.56 1.56 0 00-.67.15 9.42 9.42 0 00-5.48 5.27 2 2 0 00.39 2.06l1.44 2a18.51 18.51 0 017.5-7.28l-1.89-1.56a1.71 1.71 0 00-1.29-.64z"/><path fill="#92a2b1" d="M48.69 100.71L41.62 88.5a2.68 2.68 0 01-.3-1.82c.55-2.63 2.81-9.11 11.91-12.57a2.63 2.63 0 012.29.19l12.32 7.26-.35.61-12.32-7.26a2 2 0 00-1.68-.14c-8.78 3.34-11 9.54-11.48 12a1.85 1.85 0 00.23 1.32l7.06 12.22zM17.14 280.41h12.9v.71h-12.9z"/><rect width="116.48" height="78.17" x="190.44" y="55.13" fill="#fff" rx="3"/><path fill="#92a2b1" d="M303.93 133.65h-110.5a3.36 3.36 0 01-3.35-3.35V58.12a3.36 3.36 0 013.35-3.35h110.5a3.36 3.36 0 013.35 3.35v72.18a3.36 3.36 0 01-3.35 3.35zm-110.5-78.17a2.64 2.64 0 00-2.64 2.64v72.18a2.64 2.64 0 002.64 2.64h110.5a2.65 2.65 0 002.64-2.64V58.12a2.64 2.64 0 00-2.64-2.64z"/><path fill="#fff" d="M275.63 59.72H303v69H195v-69h27.9"/><path fill="#92a2b1" d="M303.39 129.05H194.63V59.37h28.25v.71h-27.55v68.26h107.35V60.08h-27.05v-.71h27.76v69.68z"/><g fill="#fff" opacity=".6"><path d="M39.22 160.22h6.39v120.03h-6.39z"/><path d="M43.07 160.22h2.54v120.03h-2.54z"/><path d="M39.26 199.63l6.29-6V160l-6.47.21z"/></g><g fill="#fff" opacity=".6"><path d="M58.15 160.22h6.39v120.03h-6.39z"/><path d="M62 160.22h2.54v120.03H62z"/><path d="M58.18 199.63l6.28-6V160l-6.47.21z"/></g><path fill="#7b8e9f" d="M38.12 280.61h-11v-48.9h.7v48.19h9.6V276h.7zm0-67.63h-.7v-52.4h-9.6v8.08h-.7v-8.79h11z"/><path fill="#7b8e9f" d="M35.78 280.61h-2.46v-61.3H34v60.59h1.76zm2.34-61.43h-.7v-58.6h-3.75v-.71h4.45z"/><path fill="#7b8e9f" d="M27.7 199.94l-.35-.61 9.96-5.89v-33.07l-9.72.2.05 6.87h-.71l-.05-7.56 11.14-.23v34.19l-10.32 6.1zM57 280.61H46v-48.9h.71v48.19h9.59V276h.7zM57 213h-.71v-52.4h-9.55v8.08H46v-8.79h11z"/><path fill="#7b8e9f" d="M54.7 280.61h-2.46v-61.3h.7v60.59h1.76zm2.3-61.43h-.71v-58.6h-3.7v-.71H57z"/><path fill="#7b8e9f" d="M46.62 199.94l-.36-.61 9.97-5.89v-33.07l-9.72.2.05 6.87h-.71l-.05-7.56 11.14-.23v34.19l-10.32 6.1z"/><path fill="#7b8e9f" d="M368.49 160.58h-63.06v-.71h63.06zm-126.11 0h-63.06v-.71h63.06zm-126.12 0H53.2v-.71h63.06zM331.61 152h-63.06v-.71h63.06zm-126.11 0h-63.06v-.71h63.06zm-126.12 0h-63v-.71h63z"/><path fill="#cfd7df" d="M380.14 160.13H19.19l2.52-8.62h361z"/><path fill="#b1bdc7" d="M361.58 153.67h-63.06V153h63.06zm-126.11 0h-63.06V153h63.06zm-126.12 0h-63V153h63.05zM331.61 152h-63.06v-.71h63.06zm-126.11 0h-63.06v-.71h63.06zm-126.12 0h-63v-.71h63z"/><path fill="#fff" d="M16.33 150.97h360.94v1.71H16.33z"/><g opacity=".6"><path fill="#cfd7df" d="M31.03 160.22h6.39v120.03h-6.39z"/><path fill="#cfd7df" d="M34.88 160.22h2.54v120.03h-2.54z"/><path fill="#92a2b1" d="M31.06 199.63l6.29-6V160l-6.47.21z"/></g><path fill="#cfd7df" d="M49.95 160.22h6.39v120.03h-6.39z"/><path fill="#cfd7df" d="M53.8 160.22h2.54v120.03H53.8z"/><path fill="#92a2b1" d="M50 199.63l6.29-6V160l-6.47.21z"/><g fill="#fff" opacity=".6"><path d="M348.25 160.22h6.39v120.03h-6.39z"/><path d="M352.1 160.22h2.54v120.03h-2.54z"/><path d="M348.28 199.63l6.28-6V160l-6.47.21z"/></g><g fill="#fff" opacity=".6"><path d="M367.17 160.22h6.39v120.03h-6.39z"/><path d="M371.02 160.22h2.54v120.03h-2.54z"/><path d="M367.19 199.63l6.3-6V160l-6.47.21z"/></g><g opacity=".6"><path fill="#cfd7df" d="M340.05 160.22h6.39v120.03h-6.39z"/><path fill="#cfd7df" d="M343.9 160.22h2.54v120.03h-2.54z"/><path fill="#92a2b1" d="M340.07 199.63l6.3-6V160l-6.47.21z"/></g><g opacity=".6"><path fill="#cfd7df" d="M358.96 160.22h6.39v120.03h-6.39z"/><path fill="#cfd7df" d="M362.81 160.22h2.54v120.03h-2.54z"/><path fill="#92a2b1" d="M359 199.63l6.29-6V160l-6.47.21z"/></g><path fill="#7b8e9f" d="M347.14 280.61h-11v-48.9h.71v48.19h9.59V276h.71zm0-67.63h-.71v-52.4h-9.59v8.08h-.71v-8.79h11z"/><path fill="#7b8e9f" d="M346.79 280.61h-4.09a.36.36 0 01-.36-.36v-120a.36.36 0 01.36-.35h4.09a.36.36 0 01.36.35v120a.36.36 0 01-.36.36zm-3.74-.71h3.39V160.58h-3.39z"/><path fill="#7b8e9f" d="M336.54 200a.34.34 0 01-.17-.05.35.35 0 01-.18-.3l-.29-39.41a.35.35 0 01.35-.36l10.43-.21a.33.33 0 01.25.1.34.34 0 01.11.25v33.63a.38.38 0 01-.17.31l-10.15 6a.37.37 0 01-.18.04zm.07-39.42l.28 38.45 9.44-5.58v-33.08zM366.06 280.61h-11v-48.9h.71v48.19h9.59V276h.71zm0-67.63h-.71v-52.4h-9.59v8.08h-.71v-8.79h11z"/><path fill="#7b8e9f" d="M363.72 280.61h-2.46v-61.3h.74v60.59h1.75zm2.34-61.43h-.7v-58.6h-3.75v-.71h4.45z"/><path fill="#7b8e9f" d="M355.64 199.94l-.36-.61 9.97-5.89v-33.07l-9.72.2.05 6.86h-.71l-.05-7.55 11.14-.23v34.19l-10.32 6.1z"/><path fill="#92a2b1" d="M267.57 152.45h-1v-18.66h-36.28v-1h37.28v19.66z"/><path fill="#cfd7df" d="M230.1 133.55h36.78v6.89H230.1z"/><path fill="#273139" d="M119.46 150.47a.44.44 0 01-.29-.11c-2.65-2.17-5.81-5-8.87-7.66-2.89-2.54-5.88-5.17-8.38-7.25a.42.42 0 01-.16-.33.45.45 0 01.13-.35l28.49-29a.46.46 0 01.66 0 .47.47 0 010 .65l-28.14 28.64c2.43 2 5.27 4.53 8 6.95 2.91 2.56 5.91 5.2 8.46 7.32 1-1.46 2.13-3.47 3.24-5.42 1.25-2.17 2.54-4.42 3.61-5.95a.47.47 0 01.65-.11.45.45 0 01.11.64c-1 1.49-2.33 3.72-3.56 5.88s-2.52 4.39-3.58 5.9a.46.46 0 01-.32.2z"/><path fill="#273139" d="M129.41 114.67L125 140.12l1.86-1.36z"/><path fill="#475867" d="M126.67 203h36.8c3.32 0 3.33-5.16 0-5.16h-36.8c-3.32.04-3.33 5.16 0 5.16z"/><path fill="#92a2b1" d="M157.88 199.15h-26.32a10.71 10.71 0 01-10.6-12l9.18-78.56A15.79 15.79 0 01141.41 96a15.63 15.63 0 005.74 1.07 15.81 15.81 0 004.32-.6 15.81 15.81 0 0110 13.59l7.06 77.39a10.7 10.7 0 01-10.66 11.69z"/><path fill="#273139" d="M172.4 150.44h-.06a.51.51 0 01-.32-.19c-1-1.48-3.46-4.61-5.8-7.65s-5-6.44-6.05-8a.47.47 0 01.11-.65.48.48 0 01.65.12c1.06 1.52 3.58 4.79 6 7.95 2.25 2.91 4.39 5.68 5.54 7.26 2.42-2 5.25-4.51 8-6.92 2.91-2.57 5.92-5.22 8.48-7.35l-28.14-28.67a.46.46 0 11.66-.65l28.5 29a.49.49 0 01.13.35.47.47 0 01-.17.33c-2.63 2.17-5.79 5-8.85 7.65-2.89 2.55-5.88 5.18-8.39 7.27a.47.47 0 01-.29.15zM113.38 173.86a.45.45 0 01-.32-.13c-3.44-3.23-7.24-7.53-10.92-11.7s-7.43-8.41-10.84-11.61a.47.47 0 010-.65.46.46 0 01.66 0c3.43 3.23 7.22 7.52 10.89 11.67s7.45 8.43 10.87 11.64a.47.47 0 010 .65.46.46 0 01-.34.13zM122.4 174.51a.49.49 0 01-.35-.15c-3.06-3.42-6.42-7.78-9.67-12s-6.62-8.58-9.68-12a.46.46 0 010-.65.47.47 0 01.66 0c3.08 3.43 6.46 7.8 9.72 12s6.59 8.53 9.63 11.93a.46.46 0 010 .65.47.47 0 01-.31.22z"/><path fill="#273139" d="M108.73 181.77a15.35 15.35 0 01-2.69-.23 1.51 1.51 0 01-.1-2.94 21.14 21.14 0 009.33-5.81.46.46 0 01.71.59 21.85 21.85 0 01-9.8 6.12.58.58 0 000 1.13 13.69 13.69 0 0011.56-3.13.46.46 0 01.63.67 14.2 14.2 0 01-9.64 3.6z"/><path fill="#273139" d="M119.44 179.93a1.34 1.34 0 01-.51-.11 1.24 1.24 0 01-.71-1.27 7.78 7.78 0 00-.32-3.28.45.45 0 01.3-.58.46.46 0 01.58.3 8.77 8.77 0 01.36 3.67.33.33 0 00.17.32.31.31 0 00.35-.08 8.94 8.94 0 002.25-4.67.47.47 0 01.53-.39.46.46 0 01.39.53 10 10 0 01-2.48 5.15 1.25 1.25 0 01-.91.41zM91.66 149.47h-.12a.47.47 0 01-.46-.47.46.46 0 01.38-.45l10.89-10.89a.46.46 0 01.65 0 .47.47 0 010 .66l-11 11a.45.45 0 01-.34.15zM99.92 151a.46.46 0 01-.4-.23.47.47 0 01.17-.64l10.6-6.11a.46.46 0 01.46.8l-10.6 6.12a.46.46 0 01-.23.06zM179.67 156.33a.47.47 0 01-.38-.2l-4.16-5.88a.47.47 0 01.11-.65.46.46 0 01.64.11l4.17 5.89a.46.46 0 01-.11.64.46.46 0 01-.27.09zM186.65 152.11a.46.46 0 01-.4-.23l-4.4-7.46a.46.46 0 01.16-.63.47.47 0 01.64.16l4.4 7.46a.46.46 0 01-.16.63.44.44 0 01-.24.07zM132.65 177.82a.45.45 0 01-.35-.16l-.59-.71a.45.45 0 01.06-.65.46.46 0 01.65.06l.06.07a59.75 59.75 0 002.38-28.76.46.46 0 01.38-.53.47.47 0 01.53.38 60.78 60.78 0 01-2.68 30 .47.47 0 01-.36.31zM156 151.57a.48.48 0 01-.45-.35 84.31 84.31 0 01-1.91-32.68.46.46 0 01.92.13 83.26 83.26 0 001.88 32.33.47.47 0 01-.33.56zM159.73 100a.41.41 0 01-.16 0 45 45 0 00-28.79-.74.46.46 0 11-.27-.88 45.9 45.9 0 0129.38.75.47.47 0 01-.16.9zM164.55 144.35c-.62-.38-4.41-7.41-4.65-8.1s-.36-1.83.34-2.12c1.29.43 4.09 5.75 4.09 5.75z"/><path fill="#fff" d="M163.63 81.09a4.43 4.43 0 10-4.43-4.43 4.43 4.43 0 004.43 4.43z"/><path fill="#273139" d="M163.63 81.61a4.95 4.95 0 114.94-5 5 5 0 01-4.94 5zm0-8.86a3.92 3.92 0 103.91 3.91 3.92 3.92 0 00-3.91-3.91z"/><path fill="#273139" d="M160.23 72.23a8.39 8.39 0 006.6-3.91A6.11 6.11 0 00166 61c-2.29-2.12-5.85-1.79-8.93-1.31l-6.09.93a5.79 5.79 0 00-2.12.59c-1.67 1-1.93 3.42-1.06 5.15 1.97 4.05 8.2 6.23 12.43 5.87zM140.84 62.69a.51.51 0 01-.51-.44 10.77 10.77 0 00-6.07-8.25.51.51 0 01-.25-.68.52.52 0 01.69-.25 11.76 11.76 0 015.86 6.15c.63-3.86 2.47-8.54 5.2-10.39a.53.53 0 01.72.14.52.52 0 01-.14.72c-3.16 2.13-5.07 8.81-5 12.47a.51.51 0 01-.47.53z"/><path fill="#fff" d="M163.14 76.76a16 16 0 01-30 7.77.82.82 0 01-.12-.2 16 16 0 1130.09-7.57z"/><path fill="#273139" d="M147.14 93.26a16.51 16.51 0 01-14.42-8.48 1 1 0 01-.14-.23 16.52 16.52 0 1118.7 8.18 16.79 16.79 0 01-4.14.53zm0-32a15.48 15.48 0 00-13.64 22.82.76.76 0 00.09.16 15.48 15.48 0 0029-7.48 15.53 15.53 0 00-10-14.53 15.23 15.23 0 00-5.42-.99z"/><path fill="#273139" d="M160.59 69.7a17.75 17.75 0 01-17.75 17.75 17.41 17.41 0 01-9.67-2.92.82.82 0 01-.12-.2 16 16 0 0127.46-16.39c.04.57.08 1.15.08 1.76z"/><path fill="#ff5959" d="M139.67 61.38a16 16 0 01-2.25 19.89 15.18 15.18 0 01-1.34 1.19 10.79 10.79 0 003.59-21.08z"/><path fill="#273139" d="M144.27 70.78a12.86 12.86 0 11-12.86-12.86 12.87 12.87 0 0112.86 12.86z"/><path fill="#273139" d="M143.92 77.89a.5.5 0 01-.32-.11.51.51 0 01-.08-.72 9 9 0 001.48-8.75.52.52 0 011-.35 10.1 10.1 0 01-1.64 9.74.5.5 0 01-.44.19z"/><path fill="#fff" d="M147 83.38a.35.35 0 01-.12-.68 15.4 15.4 0 0010-13 .32.32 0 01.38-.32.34.34 0 01.32.38 16.11 16.11 0 01-10.41 13.63.3.3 0 01-.17-.01zM126.48 79.94a.27.27 0 01-.13 0 9.54 9.54 0 01-2.2-16.66.35.35 0 01.49.08.34.34 0 01-.08.49 8.84 8.84 0 002 15.43.35.35 0 01-.12.68z"/><path fill="#273139" d="M165.07 76.13a.53.53 0 01-.37-.15.52.52 0 010-.73l1.88-1.87a.51.51 0 01.72.72l-1.87 1.9a.51.51 0 01-.36.13zM163.46 80.68a.53.53 0 01-.37-.15.52.52 0 010-.73l1.91-1.88a.51.51 0 01.73 0 .52.52 0 010 .73l-1.88 1.87a.51.51 0 01-.39.16z"/><path fill="#92a2b1" d="M185.55 281.13h-5.46l-.07-.26-19.78-70.25 8.83-3 .09.39zm-4.93-.71h4l-16.11-71.83-7.45 2.49zM110.7 281.13h-5.46l16.47-73.46 8.84 3-.1.33zm-4.58-.71h4l19.51-69.34-7.45-2.49z"/><path fill="#0f0d0d" d="M95.84 151.19h-.7v-2.12c0-.94-.54-1-.65-1v-.7c.46 0 1.34.36 1.34 1.71z"/><path fill="#fff" d="M170.2 138.85L182.71 198a5.3 5.3 0 01-2.21 5.46c-32.2 21.81-61.65 6.09-70.84 0a5.27 5.27 0 01-2.28-5.44l11.92-59.06a10.22 10.22 0 0110-8.2h30.87a10.22 10.22 0 0110.03 8.09z"/><path fill="#92a2b1" d="M145.8 214.93c-17.43 0-31.08-7.73-36.33-11.21a5.6 5.6 0 01-2.44-5.8L119 138.86a10.63 10.63 0 0110.37-8.49h30.87a10.63 10.63 0 0110.36 8.41l12.5 59.11a5.62 5.62 0 01-2.35 5.83c-12.4 8.36-24.37 11.21-34.95 11.21zm-16.48-83.85a9.89 9.89 0 00-9.67 7.92l-11.92 59.06a4.87 4.87 0 002.13 5.07c8.35 5.54 38.12 21.9 70.44 0a4.93 4.93 0 002.06-5.1l-12.5-59.12a9.93 9.93 0 00-9.67-7.84h-30.87z"/><path fill="#92a2b1" d="M169.94 246.43l-41.41-33.95.45-.54 41.41 33.94-.45.55z"/><path fill="#92a2b1" d="M120.16 246.43l-.45-.55 41.41-33.94.45.54-41.41 33.95z"/><path fill="#273139" d="M227.11 152.93a.46.46 0 01-.4-.23c-2.47-4.22-4.9-4.14-8.08-3.57a.46.46 0 01-.53-.38.45.45 0 01.37-.53c3.31-.6 6.28-.71 9 4a.46.46 0 01-.17.63.39.39 0 01-.19.08zM220.6 156.17a12.72 12.72 0 01-4.68-.89.47.47 0 01-.25-.61.46.46 0 01.6-.25 11.72 11.72 0 005.86.73c.16 0 .41-.4.45-.77 0-.15 0-.28-.06-.3a10.22 10.22 0 00-1.11-.38 6.42 6.42 0 01-2.74-1.35.46.46 0 010-.65.45.45 0 01.65 0 5.72 5.72 0 002.34 1.09c.43.14.85.27 1.19.42a1.12 1.12 0 01.62 1.24 1.76 1.76 0 01-1.22 1.59 11.85 11.85 0 01-1.65.13z"/><path fill="#273139" d="M218.55 149.13l-33.13-.52a.48.48 0 01-.46-.48.47.47 0 01.47-.45l33.12.53a.46.46 0 01.46.47.47.47 0 01-.46.45zM179.67 156.35a.47.47 0 010-.93c2.77-.16 5.69-.37 8.66-.58 10.26-.74 20.88-1.5 27.87-.43a.46.46 0 01.38.53.46.46 0 01-.53.38c-6.88-1-17.44-.29-27.66.44-3 .22-5.89.43-8.66.59z"/><path fill="#92a2b1" d="M229.65 133.52h.71v19.07h-.71z"/><path fill="#b1bdc7" d="M279.38 49.14a2.89 2.89 0 01-2.08-.86l-.14-.13a2.3 2.3 0 00-3.19 0 2.93 2.93 0 01-2.12.91 3 3 0 01-2.12-.91 2.3 2.3 0 00-3.18 0l-.14.13a2.93 2.93 0 01-4.15 0l-1-1a.35.35 0 010-.5.36.36 0 01.5 0l1 1a2.3 2.3 0 003.17 0l.13-.13a2.95 2.95 0 014.19 0 2.3 2.3 0 003.22 0 3 3 0 014.21 0l.13.13a2.29 2.29 0 003.16 0l.92-1a.36.36 0 01.52.49l-.94 1a2.89 2.89 0 01-2.09.87zM287 44.25a2.93 2.93 0 01-2.08-.86l-.14-.13a2.21 2.21 0 00-1.6-.65 2.24 2.24 0 00-1.59.68 2.92 2.92 0 01-4.24 0 2.21 2.21 0 00-1.59-.68 2.21 2.21 0 00-1.57.65l-.12.12a2.92 2.92 0 01-4.16 0l-1-1a.35.35 0 01.49-.51l1 1a2.3 2.3 0 003.17 0l.11-.12a3.08 3.08 0 012.12-.87 3 3 0 012.09.91 2.31 2.31 0 003.22 0 3 3 0 012.09-.91 3 3 0 012.11.86l.14.13a2.3 2.3 0 003.16 0l.92-1a.34.34 0 01.49 0 .35.35 0 010 .5l-.92 1a2.91 2.91 0 01-2.1.88z"/><path fill="#92a2b1" d="M28.21 151.92L56 152v1.92l-27.83-.08zM291.26 212h-28.21a11.89 11.89 0 01-11.88-11.88v-36.46h.71v36.44a11.2 11.2 0 0011.17 11.18h28.21a11.1 11.1 0 007.9-3.28 11.26 11.26 0 003.28-7.9v-4.94h.7v4.94a12 12 0 01-3.48 8.4 11.78 11.78 0 01-8.4 3.5z"/><path fill="#92a2b1" d="M332.65 202.13h-41.67v-4.92h.71v4.22h40.25v-21.02h-40.25v9.38h-.71v-10.08h41.67v22.42z"/><path fill="#cfd7df" d="M297.48 192.8l4.13-6a1.42 1.42 0 012.33 0l4.05 6a1.42 1.42 0 01.07 1.45 1.4 1.4 0 01-1.25.74l-8.19-.09a1.41 1.41 0 01-1.22-.76 1.39 1.39 0 01.08-1.34z"/><path fill="#92a2b1" d="M317.36 195.86h-2.29a1.76 1.76 0 01-1.76-1.76v-6.36a1.75 1.75 0 011.76-1.75h2.29a1.75 1.75 0 011.76 1.75v6.36a1.76 1.76 0 01-1.76 1.76zm-2.29-9.17a1 1 0 00-1.05 1.05v6.36a1 1 0 001.05 1.05h2.29a1 1 0 001.05-1.05v-6.36a1 1 0 00-1.05-1.05zM325.93 195.86h-2.29a1.76 1.76 0 01-1.76-1.76v-6.36a1.75 1.75 0 011.76-1.75h2.29a1.75 1.75 0 011.75 1.75v6.36a1.75 1.75 0 01-1.75 1.76zm-2.29-9.17a1 1 0 00-1.05 1.05v6.36a1 1 0 001.05 1.05h2.29a1 1 0 001.07-1.05v-6.36a1 1 0 00-1.05-1.05z"/><rect width="3.31" height="3.14" x="314.56" y="191.29" fill="#92a2b1" rx=".78"/><rect width="3.31" height="3.14" x="323.13" y="191.38" fill="#92a2b1" rx=".78"/><path fill="#ebeff3" d="M166.19 144l10.65 50.31A4.52 4.52 0 01175 199c-27.4 18.56-52.46 5.18-60.29 0a4.49 4.49 0 01-1.93-4.64l10.13-50.24a8.7 8.7 0 018.53-7h26.27a8.7 8.7 0 018.48 6.88z"/><path fill="#647a8e" d="M48.2 96.77l-.35-.58.61-.36.35.58zm-.7-1.16l-.35-.61.61-.36.35.58zm-.7-1.16l-.35-.58.61-.37.35.58zm-.69-1.16l-.35-.59.6-.36.35.58zm-.7-1.17l-.35-.58.6-.36.35.58zm-.7-1.12l-.35-.58L45 90l.35.58zM44 89.8l-.35-.58.61-.37.34.58zm-.7-1.16l-.3-.59.61-.36.35.58zm-.7-1.17l-.35-.58.61-.36.35.58z"/><path fill="#7b8e9f" d="M49.08 95l-.37-.57.59-.39.37.57zm-.75-1.13l-.33-.53.59-.39.37.57zm-.75-1.13l-.37-.56.58-.4.38.57zm-.75-1.13l-.37-.57.58-.39.38.57zm-.75-1.13l-.37-.48.58-.39.38.57zm-.75-1.13l-.33-.53.59-.39.38.57zm-.75-1.13l-.38-.56.59-.4.38.57zm-.75-1.13l-.38-.56.59-.39.38.56zM43.08 86l-.38-.56.59-.39.38.56z"/><path fill="#92a2b1" d="M50.07 101.25a1.79 1.79 0 01-1.33-.47c-1.87-1.87 2.06-7.82 6.7-12.47s10.6-8.58 12.47-6.7-2.06 7.82-6.7 12.46c-3.84 3.84-8.56 7.18-11.14 7.18zM66.6 81.84c-1.91 0-6.15 2.47-10.66 7-5.35 5.35-7.83 10.34-6.7 11.47s6.11-1.35 11.47-6.71 7.83-10.34 6.7-11.46a1.1 1.1 0 00-.81-.3z"/><path fill="#92a2b1" d="M53.8 94.82a8.17 8.17 0 01-2.54-.4l.22-.67a7.58 7.58 0 007.78-2c3.82-3.75 1.74-7.14 1.65-7.29l.6-.38s2.48 4-1.75 8.21a8.27 8.27 0 01-5.96 2.53z"/><path fill="#fff" d="M309.29 70.67l-18.15-18.15zM358 53.67l-18.17 18.15z"/><path fill="#cfd7df" d="M227.22 206.1h49.85a3.07 3.07 0 013.08 3.08v18.65h-56v-18.65A3.11 3.11 0 01225 207a3.07 3.07 0 012.22-.9z"/><path fill="#92a2b1" d="M224.19 227.82h56v4.66h-56z"/><path fill="#cfd7df" d="M224.14 232.58h56.01v21.72h-56.01z"/><path fill="#cfd7df" d="M224.14 254.02h56.01v26.07h-56.01z"/><path fill="#92a2b1" d="M224.15 275.68h56v4.66h-56zM224.19 251.24h56v4.66h-56z"/><path fill="#fff" d="M261.84 221.39h-19.38V218h19.38zm-18.67-.71h18v-2h-18zM259.58 244.8h-17.12v-3.42h19.38v3.07h-.71v-2.36h-17.96v2.01h16.41v.7zM259.58 268.57h-17.12v-3.43h19.38v3.08h-.71v-2.37h-17.96v2.01h16.41v.71z"/><path fill="#92a2b1" d="M224.01 230.41h.71v45.21h-.71zM279.82 235.24h.71v45.21h-.71zM280.5 227.82h-.71v-18.65a2.72 2.72 0 00-2.72-2.72v-.71a3.44 3.44 0 013.43 3.43zM224.49 209.17h-.7a3.44 3.44 0 013.43-3.43h36.94v.71h-36.94a2.74 2.74 0 00-2.73 2.72z"/><path fill="#fff" d="M353.27 71.52h-76.11l38.42-52.78 37.69 52.78z"/><path fill="#fff" d="M353.27 71.94h-76.11a.42.42 0 01-.37-.23.42.42 0 010-.43l38.45-52.78a.53.53 0 01.34-.17.42.42 0 01.34.17l37.68 52.78a.4.4 0 010 .43.41.41 0 01-.33.23zM278 71.11h74.48l-36.9-51.66z"/><rect width="147.29" height="37.2" x="231.83" y="29.8" fill="#f9dac0" rx="3.55"/><path fill="#ff9d45" d="M375.57 67.33h-140.2a3.88 3.88 0 01-3.87-3.87V33.35a3.87 3.87 0 013.87-3.87h140.2a3.87 3.87 0 013.87 3.87v30.11a3.87 3.87 0 01-3.87 3.87zm-140.2-37.21a3.23 3.23 0 00-3.22 3.23v30.11a3.22 3.22 0 003.22 3.22h140.2a3.23 3.23 0 003.23-3.22V33.35a3.23 3.23 0 00-3.23-3.23z"/><path fill="#fcf2eb" d="M235.8 29.8h44.06v13.73A23.48 23.48 0 01256.38 67H235.8a4 4 0 01-4-4V33.77a4 4 0 014-4z"/><path fill="#ff9d45" d="M256.38 67.17H235.8a4.14 4.14 0 01-4.14-4.17V33.77a4.15 4.15 0 014.14-4.14h44.05a.17.17 0 01.17.17v13.73a23.67 23.67 0 01-23.64 23.64zM235.8 30a3.81 3.81 0 00-3.81 3.8V63a3.82 3.82 0 003.81 3.81h20.58a23.34 23.34 0 0023.31-23.31V30z"/><path fill="#ff9d45" d="M253.28 58a2.84 2.84 0 01-1.65-.53 2.8 2.8 0 01-1-3.13.32.32 0 01.61.19 2.17 2.17 0 104.15 0 .32.32 0 01.21-.4.33.33 0 01.41.21 2.82 2.82 0 01-2.73 3.66z"/><path fill="#f9dac0" d="M253.34 39c-4.71 0-6 3.57-6.05 6.67s.49 4.45-.37 5.31-2.31 1.9-1.43 2.86 14.67.95 15.57.07-.55-2-1.4-2.86-.34-2.18-.33-5.3-1.27-6.75-5.99-6.75z"/><path fill="#ff9d45" d="M253.42 54.85h-1.94c-3.71-.09-5.81-.36-6.22-.8-1-1.05.18-2.13 1-2.92a5.16 5.16 0 00.41-.39c.46-.46.45-1.13.36-2.59 0-.66-.09-1.49-.08-2.49 0-4.38 2.41-7 6.37-7 5.71 0 6.32 5 6.31 7.07 0 1-.06 1.82-.1 2.48-.09 1.4-.14 2.1.34 2.6.12.13.26.26.4.4.64.62 1.37 1.33 1.37 2.07a1.1 1.1 0 01-.37.84c-.6.6-4.89.73-7.85.73zm-.08-15.55c-5.13 0-5.71 4.44-5.72 6.34 0 1 0 1.8.08 2.46.08 1.49.14 2.39-.55 3.08l-.43.4c-1.05 1-1.45 1.52-1 2 .87.78 14.15.84 15.11.06a.51.51 0 00.18-.38c0-.47-.65-1.1-1.18-1.61l-.41-.41c-.68-.7-.62-1.6-.53-3.09.05-.65.1-1.46.1-2.44 0-1.93-.53-6.4-5.66-6.42z"/><path fill="#ff9d45" d="M253.28 39.05a.32.32 0 01-.33-.32v-1.68a.33.33 0 11.65 0v1.68a.32.32 0 01-.32.32zM359.17 45.5h-72.56a.6.6 0 110-1.2h72.56a.6.6 0 010 1.2zM316.17 52.5h-29.56a.6.6 0 110-1.2h29.56a.6.6 0 010 1.2z"/><rect width="23.31" height="11.67" x="199.92" y="75.09" fill="#ebeff3" rx="1.27"/><rect width="23.31" height="11.67" x="199.92" y="91.85" fill="#ebeff3" rx="1.27"/><rect width="45.19" height="11.67" x="199.92" y="108.61" fill="#ebeff3" rx="1.27"/><rect width="45.19" height="11.67" x="249.92" y="108.61" fill="#ebeff3" rx="1.27"/><rect width="29.58" height="28.43" x="229.27" y="75.09" fill="#ebeff3" rx="1.27"/><rect width="29.58" height="28.43" x="265.53" y="75.09" fill="#ebeff3" rx="1.27"/><path fill="#fff" d="M203.74 80h13.08a.8.8 0 000-1.59h-13.08a.8.8 0 000 1.59z"/><path fill="#92a2b1" d="M203.74 83.46h4.12a.8.8 0 000-1.59h-4.12a.8.8 0 000 1.59z"/><path fill="#fff" d="M203.74 96.74h9a.8.8 0 000-1.59h-9a.8.8 0 000 1.59zM215.49 96.74h3.21a.8.8 0 000-1.59h-3.21a.8.8 0 000 1.59z"/><path fill="#92a2b1" d="M203.74 100.22h7.91a.8.8 0 000-1.59h-7.91a.8.8 0 000 1.59z"/><path fill="#fff" d="M248.11 92.91h-14.36v-2.55h14.36a1.28 1.28 0 010 2.55zM239.14 97.21h-5.39v-2.55h5.39a1.28 1.28 0 110 2.55zM248.11 84.31h-14.36v-2.55h14.36a1.28 1.28 0 010 2.55zM253.17 88.61h-19.41v-2.55h19.41a1.28 1.28 0 010 2.55z"/><path fill="#fff" d="M233.53 80.78h.32V98.1h-.32z"/><rect width="6.39" height="7.5" x="268.32" y="80.3" fill="#fff" rx="1.27"/><rect width="6.39" height="7.5" x="268.32" y="90.8" fill="#fff" rx="1.27"/><rect width="6.39" height="7.5" x="277.13" y="80.3" fill="#fff" rx="1.27"/><rect width="6.39" height="7.5" x="277.13" y="90.8" fill="#fff" rx="1.27"/><rect width="6.39" height="7.5" x="285.93" y="80.3" fill="#fff" rx="1.27"/><rect width="6.39" height="7.5" x="285.93" y="90.8" fill="#fff" rx="1.27"/><path fill="#fff" d="M203.89 113.5h28.52a.8.8 0 000-1.59h-28.52a.8.8 0 000 1.59z"/><path fill="#92a2b1" d="M203.89 117h14.26a.8.8 0 000-1.59h-14.26a.8.8 0 000 1.59z"/><path fill="#1ab394" d="M241.15 115.62a.49.49 0 01-.34-.14l-1.06-1.06-1.07 1.06a.47.47 0 11-.67-.67l1.4-1.4a.48.48 0 01.68 0l1.4 1.4a.48.48 0 010 .67.51.51 0 01-.34.14z"/><path fill="#fff" d="M253.89 113.5h15.66a.8.8 0 000-1.59h-15.66a.8.8 0 000 1.59z"/><path fill="#92a2b1" d="M253.89 117h8.53a.8.8 0 000-1.59h-8.53a.8.8 0 000 1.59z"/><path fill="#ff5959" d="M289.74 115.62a.49.49 0 01-.34-.14l-1.39-1.4a.47.47 0 01.67-.67l1.06 1.06 1.06-1.06a.48.48 0 01.68 0 .46.46 0 010 .67l-1.4 1.4a.48.48 0 01-.34.14z"/><path fill="#527fa5" d="M295.23 112.37l-.44-.12a3.17 3.17 0 01.44.12zM294.79 112.25h-.11z"/><g clip-path="url(#fs-bxea6wtila)"><use transform="matrix(.25 0 0 .25 -1337.85 -1024.88)" xlink:href="#image"/></g><g clip-path="url(#fs-f06yu0ccwb)"><use transform="matrix(.24 0 0 .24 -746.76 -593.9)" xlink:href="#image"/></g><g clip-path="url(#fs-oeuccfcl8c)"><use transform="matrix(.24 0 0 .24 -746.76 -711.47)" xlink:href="#image"/></g></svg>