<svg width="150" height="150" viewBox="0 0 150 150" fill="none" xmlns="http://www.w3.org/2000/svg">
<path d="M134.061 134.19H139.551" stroke="#91A1B0" stroke-width="1.2" stroke-linecap="round" stroke-linejoin="round"/>
<path d="M104.07 134.19H128.1" stroke="#91A1B0" stroke-width="1.2" stroke-linecap="round" stroke-linejoin="round"/>
<path d="M10.5508 134.19H98.3708" stroke="#91A1B0" stroke-width="1.2" stroke-linecap="round" stroke-linejoin="round"/>
<path opacity="0.2" d="M75.0508 127.25C102.665 127.25 125.051 104.864 125.051 77.25C125.051 49.6358 102.665 27.25 75.0508 27.25C47.4365 27.25 25.0508 49.6358 25.0508 77.25C25.0508 104.864 47.4365 127.25 75.0508 127.25Z" fill="#BEC6D2"/>
<path d="M38.1292 41.75H111.959C115.089 41.75 117.639 44.29 117.639 47.43V107.07C117.639 110.2 115.099 112.75 111.959 112.75H38.1292C34.9992 112.75 32.4492 110.21 32.4492 107.07V47.43C32.4492 44.3 34.9892 41.75 38.1292 41.75Z" fill="white" stroke="#91A1B0" stroke-width="1.2" stroke-miterlimit="10"/>
<path d="M75.0508 92.6699C82.3708 92.6699 88.3008 86.7399 88.3008 79.4199C88.3008 72.0999 82.3708 66.1699 75.0508 66.1699C67.7308 66.1699 61.8008 72.0999 61.8008 79.4199C61.8008 86.7399 67.7308 92.6699 75.0508 92.6699Z" fill="white" stroke="#91A1B0" stroke-width="1.2" stroke-miterlimit="10"/>
<path d="M65.6797 88.7898L84.4197 70.0498L65.6797 88.7898Z" fill="white"/>
<path d="M65.6797 88.7898L84.4197 70.0498" stroke="#91A1B0" stroke-width="1.2" stroke-miterlimit="10"/>
<path d="M52.1992 99.2998H97.8992" stroke="#CED6DE" stroke-width="1.2" stroke-linecap="round" stroke-linejoin="round"/>
<path d="M63.6211 105.37H86.4711" stroke="#CED6DE" stroke-width="1.2" stroke-linecap="round" stroke-linejoin="round"/>
<path opacity="0.25" d="M37.6801 42.4199H112.49C114.97 42.4199 116.99 44.4399 116.99 46.9199V58.7799H33.0801V47.0199C33.0801 44.4799 35.1401 42.4199 37.6801 42.4199Z" fill="#92A2B1"/>
<path d="M52.1994 50.6001H42.3594H52.1994Z" fill="white"/>
<path d="M52.1994 50.6001H42.3594" stroke="#91A1B0" stroke-width="1.2" stroke-miterlimit="10" stroke-linecap="round"/>
</svg>
