<svg xmlns="http://www.w3.org/2000/svg" width="136" height="122" fill="none" viewBox="0 0 136 122"><mask id="fs-a0yz44u54a" width="123" height="122" x="9" y="0" maskUnits="userSpaceOnUse"><path fill="url(#paint0_linear)" d="M70.377 121.412c33.527 0 60.706-27.179 60.706-60.706S103.904 0 70.377 0 9.671 27.179 9.671 60.706s27.18 60.706 60.706 60.706z"/></mask><g mask="url(#fs-a0yz44u54a)"><path fill="url(#paint1_linear)" d="M69.61 120.703c33.522 0 60.698-27.02 60.698-60.352C130.308 27.021 103.132 0 69.609 0 36.087 0 8.911 27.02 8.911 60.351c0 33.332 27.176 60.352 60.698 60.352z"/><path fill="#fff" d="M89.385 32.442a3.053 3.053 0 00-3.053 3.054v150.257h153.31V32.443H89.385zm149.807 9.53h-9.155v-9.154h9.155v9.155zm-76.017 57.333v-9.156h9.155v9.156h-9.155zm9.155.45v9.155h-9.155v-9.155h9.155zm-9.53-.45h-9.155v-9.156h9.155v9.156zm0 .45v9.155h-9.155v-9.155h9.155zm-9.606 9.155h-9.155v-9.155h9.155v9.155zm0 .375v9.155h-9.155v-9.155h9.155zm.451 0h9.155v9.155h-9.155v-9.155zm9.155 9.53v9.155h-9.155v-9.155h9.155zm.375 0h9.155v9.155h-9.155v-9.155zm0-.375v-9.155h9.155v9.155h-9.155zm9.53-9.155h9.155v9.155h-9.155v-9.155zm0-.375v-9.155h9.155v9.155h-9.155zm0-9.605v-9.156h9.155v9.156h-9.155zm0-9.53v-9.156h9.155v9.155h-9.155zm-.375 0h-9.155v-9.156h9.155v9.155zm-9.53 0h-9.155v-9.156h9.155v9.155zm-9.606 0h-9.155v-9.156h9.155v9.155zm0 .374v9.156h-9.155v-9.156h9.155zm-9.53 9.156h-9.155v-9.156h9.155v9.156zm0 .45v9.155h-9.155v-9.155h9.155zm0 9.53v9.155h-9.155v-9.155h9.155zm0 9.53v9.155h-9.155v-9.155h9.155zm.375 0h9.155v9.155h-9.155v-9.155zm9.155 9.606v9.155h-9.155v-9.155h9.155zm.451 0h9.155v9.155h-9.155v-9.155zm9.53 0h9.155v9.155h-9.155v-9.155zm9.53 0h9.155v9.155h-9.155v-9.155zm0-.451v-9.155h9.155v9.155h-9.155zm9.606-9.155h9.155v9.155h-9.155v-9.155zm0-.375v-9.155h9.155v9.155h-9.155zm0-9.53v-9.155h9.155v9.155h-9.155zm0-9.605v-9.156h9.155v9.156h-9.155zm0-9.53v-9.156h9.155v9.155h-9.155zm0-9.531v-9.155h9.155v9.155h-9.155zm-.451 0h-9.155v-9.155h9.155v9.155zm-9.53 0h-9.155v-9.155h9.155v9.155zm-9.53 0h-9.155v-9.155h9.155v9.155zm-9.606 0h-9.155v-9.155h9.155v9.155zm-9.53 0h-9.155v-9.155h9.155v9.155zm0 .375v9.155h-9.155V80.62h9.155zm-9.53 9.155h-9.155V80.62h9.155v9.155zm0 .376v9.155h-9.155v-9.156h9.155zm0 9.605v9.155h-9.155v-9.155h9.155zm0 9.53v9.155h-9.155v-9.155h9.155zm0 9.53v9.155h-9.155v-9.155h9.155zm0 9.606v9.155h-9.155v-9.155h9.155zm.375 0h9.155v9.155h-9.155v-9.155zm9.155 9.53v9.155h-9.155v-9.155h9.155zm.375 0h9.155v9.155h-9.155v-9.155zm9.606 0h9.155v9.155h-9.155v-9.155zm9.53 0h9.155v9.155h-9.155v-9.155zm9.53 0h9.155v9.155h-9.155v-9.155zm9.606 0h9.155v9.155h-9.155v-9.155zm0-.375v-9.155h9.155v9.155h-9.155zm9.53-9.155h9.155v9.155h-9.155v-9.155zm0-.451v-9.155h9.155v9.155h-9.155zm0-9.53v-9.155h9.155v9.155h-9.155zm0-9.53v-9.155h9.155v9.155h-9.155zm0-9.605v-9.156h9.155v9.156h-9.155zm0-9.53v-9.156h9.155v9.155h-9.155zm0-9.531v-9.155h9.155v9.155h-9.155zm0-9.605v-9.155h9.155v9.155h-9.155zm-.375 0h-9.155v-9.155h9.155v9.155zm-9.606 0h-9.155v-9.155h9.155v9.155zm-9.53 0h-9.155v-9.155h9.155v9.155zm-9.53 0h-9.155v-9.155h9.155v9.155zm-9.606 0h-9.155v-9.155h9.155v9.155zm-9.53 0h-9.155v-9.155h9.155v9.155zm-9.53 0h-9.155v-9.155h9.155v9.155zm0 .45v9.155h-9.155v-9.155h9.155zm-9.606 9.155h-9.155v-9.155h9.155v9.155zm0 .375v9.155h-9.155V80.62h9.155zm0 9.53v9.156h-9.155v-9.156h9.155zm0 9.606v9.155h-9.155v-9.155h9.155zm0 9.53v9.155h-9.155v-9.155h9.155zm0 9.53v9.155h-9.155v-9.155h9.155zm0 9.606v9.155h-9.155v-9.155h9.155zm0 9.53v9.155h-9.155v-9.155h9.155zm.451 0h9.155v9.155h-9.155v-9.155zm9.155 9.53v9.155h-9.155v-9.155h9.155zm.375 0h9.155v9.155h-9.155v-9.155zm9.53 0h9.155v9.155h-9.155v-9.155zm9.606 0h9.155v9.155h-9.155v-9.155zm9.53 0h9.155v9.155h-9.155v-9.155zm9.53 0h9.155v9.155h-9.155v-9.155zm9.606 0h9.155v9.155h-9.155v-9.155zm9.53 0h9.155v9.155h-9.155v-9.155zm0-.375v-9.155h9.155v9.155h-9.155zm9.53-9.155h9.155v9.155h-9.155v-9.155zm0-.375v-9.155h9.155v9.155h-9.155zm0-9.606v-9.155h9.155v9.155h-9.155zm0-9.53v-9.155h9.155v9.155h-9.155zm0-9.53v-9.155h9.155v9.155h-9.155zm0-9.605v-9.156h9.155v9.156h-9.155zm0-9.53v-9.156h9.155v9.155h-9.155zm0-9.531v-9.155h9.155v9.155h-9.155zm0-9.605v-9.155h9.155v9.155h-9.155zm0-9.53v-9.156h9.155v9.155h-9.155zm-.375 0h-9.155v-9.156h9.155v9.155zm-9.53 0h-9.155v-9.156h9.155v9.155zm-9.606 0h-9.155v-9.156h9.155v9.155zm-9.53 0h-9.155v-9.156h9.155v9.155zm-9.53 0h-9.155v-9.156h9.155v9.155zm-9.606 0h-9.155v-9.156h9.155v9.155zm-9.53 0h-9.155v-9.156h9.155v9.155zm-9.53 0h-9.155v-9.156h9.155v9.155zm-9.606 0h-9.155v-9.156h9.155v9.155zm0 .374v9.156h-9.155v-9.155h9.155zm-9.53 9.156h-9.155v-9.155h9.155v9.155zm0 .45v9.155h-9.155v-9.155h9.155zm0 9.53v9.155h-9.155V80.62h9.155zm0 9.53v9.156h-9.155v-9.156h9.155zm0 9.606v9.155h-9.155v-9.155h9.155zm0 9.53v9.155h-9.155v-9.155h9.155zm0 9.53v9.155h-9.155v-9.155h9.155zm0 9.606v9.155h-9.155v-9.155h9.155zm0 9.53v9.155h-9.155v-9.155h9.155zm0 9.53v9.155h-9.155v-9.155h9.155zm.375 0h9.155v9.155h-9.155v-9.155zm9.155 9.606v9.155h-9.155v-9.155h9.155zm.451 0h9.155v9.155h-9.155v-9.155zm9.53 0h9.155v9.155h-9.155v-9.155zm9.53 0h9.155v9.155h-9.155v-9.155zm9.606 0h9.155v9.155h-9.155v-9.155zm9.53 0h9.155v9.155h-9.155v-9.155zm9.53 0h9.155v9.155h-9.155v-9.155zm9.606 0h9.155v9.155h-9.155v-9.155zm9.53 0h9.155v9.155h-9.155v-9.155zm9.53 0h9.155v9.155h-9.155v-9.155zm0-.451v-9.155h9.155v9.155h-9.155zm9.605-9.155h9.156v9.155h-9.156v-9.155zm0-.375v-9.155h9.156v9.155h-9.156zm0-9.53v-9.155h9.156v9.155h-9.156zm0-9.606v-9.155h9.156v9.155h-9.156zm0-9.53v-9.155h9.156v9.155h-9.156zm0-9.53v-9.155h9.156v9.155h-9.156zm0-9.605v-9.156h9.156v9.156h-9.156zm0-9.53v-9.156h9.156v9.155h-9.156zm0-9.531v-9.155h9.156v9.155h-9.156zm0-9.605v-9.155h9.156v9.155h-9.156zm0-9.53v-9.156h9.156v9.155h-9.156zm0-9.531v-9.155h9.156v9.155h-9.156zm-.45 0h-9.155v-9.155h9.155v9.155zm-9.53 0h-9.155v-9.155h9.155v9.155zm-9.53 0h-9.155v-9.155h9.155v9.155zm-9.606 0h-9.155v-9.155h9.155v9.155zm-9.53 0h-9.155v-9.155h9.155v9.155zm-9.53 0h-9.155v-9.155h9.155v9.155zm-9.606 0h-9.155v-9.155h9.155v9.155zm-9.53 0h-9.155v-9.155h9.155v9.155zm-9.53 0h-9.155v-9.155h9.155v9.155zm-9.606 0h-9.155v-9.155h9.155v9.155zm-9.53 0h-9.155v-9.155h9.155v9.155zm0 .375v9.155h-9.155v-9.155h9.155zm-9.53 9.155h-9.155v-9.155h9.155v9.155zm0 .376v9.155h-9.155v-9.155h9.155zm0 9.605v9.155h-9.155v-9.155h9.155zm0 9.53v9.155h-9.155V80.62h9.155zm0 9.53v9.156h-9.155v-9.156h9.155zm0 9.606v9.155h-9.155v-9.155h9.155zm0 9.53v9.155h-9.155v-9.155h9.155zm0 9.53v9.155h-9.155v-9.155h9.155zm0 9.606v9.155h-9.155v-9.155h9.155zm0 9.53v9.155h-9.155v-9.155h9.155zm0 9.53v9.155h-9.155v-9.155h9.155zm0 9.606v9.155h-9.155v-9.155h9.155zm.375 0h9.155v9.155h-9.155v-9.155zm9.155 9.53v9.155h-9.155v-9.155h9.155zm.375 0h9.155v9.155h-9.155v-9.155zm9.606 0h9.155v9.155h-9.155v-9.155zm9.53 0h9.155v9.155h-9.155v-9.155zm9.53 0h9.155v9.155h-9.155v-9.155zm9.606 0h9.155v9.155h-9.155v-9.155zm9.53 0h9.155v9.155h-9.155v-9.155zm9.53 0h9.155v9.155h-9.155v-9.155zm9.606 0h9.155v9.155h-9.155v-9.155zm9.53 0h9.155v9.155h-9.155v-9.155zm9.53 0h9.155v9.155h-9.155v-9.155zm9.605 0h9.156v9.155h-9.156v-9.155zm0-.375v-9.155h9.156v9.155h-9.156zm9.531-9.155h9.155v9.155h-9.155v-9.155zm0-.451v-9.155h9.155v9.155h-9.155zm0-9.53v-9.155h9.155v9.155h-9.155zm0-9.53v-9.155h9.155v9.155h-9.155zm0-9.606v-9.155h9.155v9.155h-9.155zm0-9.53v-9.155h9.155v9.155h-9.155zm0-9.53v-9.155h9.155v9.155h-9.155zm0-9.605v-9.156h9.155v9.156h-9.155zm0-9.53v-9.156h9.155v9.155h-9.155zm0-9.531v-9.155h9.155v9.155h-9.155zm0-9.605v-9.155h9.155v9.155h-9.155zm0-9.53v-9.156h9.155v9.155h-9.155zm0-9.531v-9.155h9.155v9.155h-9.155zm0-9.605v-9.155h9.155v9.155h-9.155zm-.375 0h-9.156v-9.155h9.156v9.155zm-9.606 0h-9.155v-9.155h9.155v9.155zm-9.53 0h-9.155v-9.155h9.155v9.155zm-9.53 0h-9.155v-9.155h9.155v9.155zm-9.606 0h-9.155v-9.155h9.155v9.155zm-9.53 0h-9.155v-9.155h9.155v9.155zm-9.53 0h-9.155v-9.155h9.155v9.155zm-9.606 0h-9.155v-9.155h9.155v9.155zm-9.53 0h-9.155v-9.155h9.155v9.155zm-9.53 0h-9.155v-9.155h9.155v9.155zm-9.606 0h-9.155v-9.155h9.155v9.155zm-9.53 0h-9.155v-9.155h9.155v9.155zm-9.53 0h-9.155v-9.155h9.155v9.155zm0 .45v9.155h-9.155v-9.155h9.155zm-9.606 9.155h-9.155v-9.155h9.156v9.155zm0 .375v9.155h-9.155v-9.155h9.156zm0 9.53v9.156h-9.155v-9.155h9.156zm0 9.606v9.155h-9.155v-9.155h9.156zm0 9.53v9.155h-9.155V80.62h9.156zm0 9.53v9.156h-9.155v-9.156h9.156zm0 9.606v9.155h-9.155v-9.155h9.156zm0 9.53v9.155h-9.155v-9.155h9.156zm0 9.53v9.155h-9.155v-9.155h9.156zm0 9.606v9.155h-9.155v-9.155h9.156zm0 9.53v9.155h-9.155v-9.155h9.156zm0 9.53v9.155h-9.155v-9.155h9.156zm0 9.606v9.155h-9.155v-9.155h9.156zm0 9.53v9.155h-9.155v-9.155h9.156zm.45 0h9.156v9.155h-9.155v-9.155zm9.156 9.53v9.155h-9.155v-9.155h9.155zm.375 0h9.155v9.155h-9.155v-9.155zm9.53 0h9.155v9.155h-9.155v-9.155zm9.606 0h9.155v9.155h-9.155v-9.155zm9.53 0h9.155v9.155h-9.155v-9.155zm9.53 0h9.155v9.155h-9.155v-9.155zm9.606 0h9.155v9.155h-9.155v-9.155zm9.53 0h9.155v9.155h-9.155v-9.155zm9.53 0h9.155v9.155h-9.155v-9.155zm9.606 0h9.155v9.155h-9.155v-9.155zm9.53 0h9.155v9.155h-9.155v-9.155zm9.53 0h9.155v9.155h-9.155v-9.155zm9.605 0h9.156v9.155h-9.156v-9.155zm9.531 0h9.155v9.155h-9.155v-9.155zm0-.375v-9.155h9.155v9.155h-9.155zm9.53-9.155h9.155v9.155h-9.155v-9.155zm0-.375v-9.155h9.155v9.155h-9.155zm0-9.606v-9.155h9.155v9.155h-9.155zm0-9.53v-9.155h9.155v9.155h-9.155zm0-9.53v-9.155h9.155v9.155h-9.155zm0-9.606v-9.155h9.155v9.155h-9.155zm0-9.53v-9.155h9.155v9.155h-9.155zm0-9.53v-9.155h9.155v9.155h-9.155zm0-9.605v-9.156h9.155v9.156h-9.155zm0-9.53v-9.156h9.155v9.155h-9.155zm0-9.531v-9.155h9.155v9.155h-9.155zm0-9.605v-9.155h9.155v9.155h-9.155zm0-9.53v-9.156h9.155v9.155h-9.155zm0-9.531v-9.155h9.155v9.155h-9.155zM95.862 32.818v9.155h-9.155V35.87a3.053 3.053 0 013.054-3.053h6.102zm-9.155 143.329h9.156v9.155h-9.156v-9.155zm143.33 9.155v-9.155h9.155v9.155h-9.155z"/></g><path fill="url(#paint2_radial)" d="M7.75 107.42a7.75 7.75 0 100-15.5 7.75 7.75 0 000 15.5z"/><path fill="url(#paint3_radial)" d="M3.268 99.292c-1.405-.865-1.756-2.836-.784-4.375.946-1.54 2.863-2.107 4.267-1.243 1.404.865 1.756 2.836.783 4.375-.972 1.567-2.89 2.107-4.266 1.243z" opacity=".5"/><path fill="url(#paint4_radial)" d="M108.506 17.724a5.916 5.916 0 100-11.832 5.916 5.916 0 000 11.832z"/><path fill="url(#paint5_radial)" d="M105.084 11.52c-1.072-.66-1.34-2.165-.598-3.34.722-1.174 2.185-1.607 3.257-.948 1.072.66 1.34 2.165.598 3.34-.742 1.195-2.206 1.607-3.257.948z" opacity=".5"/><g filter="url(#filter0_f)"><ellipse cx="65.773" cy="109.38" fill="#000" fill-opacity=".37" rx="58.169" ry=".308"/></g><g filter="url(#filter1_ii)"><path fill="#E4E4E4" d="M55.454 86.092c0-1.043.845-1.889 1.887-1.889h16.227c1.042 0 1.887.845 1.887 1.888v22.981H55.454v-22.98z"/></g><path fill="url(#paint6_linear)" d="M55.93 93.552h19.368v11.164H55.93z"/><g filter="url(#filter2_ii)"><rect width="106.281" height="71.011" x="13.764" y="24.744" fill="#E4E4E4" rx="2.831"/></g><rect width="98.097" height="62.191" x="18.444" y="29.777" fill="#010101" rx="2.359"/><g filter="url(#filter3_iii)"><path fill="#4392F4" d="M113.641 27.507H19.648c-1.824 0-3.302 1.488-3.302 3.325v58.925c0 1.836 1.478 3.325 3.302 3.325h93.993c1.824 0 3.302-1.489 3.302-3.325V30.832c0-1.837-1.478-3.325-3.302-3.325z"/></g><path fill="#231F20" d="M108.62 36.218H24.614a2.76 2.76 0 00-2.76 2.76v.216a2.76 2.76 0 002.76 2.76h84.006a2.76 2.76 0 002.76-2.76v-.216a2.76 2.76 0 00-2.76-2.76z" opacity=".2"/><g filter="url(#filter4_ii)"><path fill="url(#paint7_linear)" d="M109.139 36.218H24.93a2.659 2.659 0 100 5.316h84.209a2.659 2.659 0 100-5.316z"/></g><path fill="#231F20" d="M41.354 38.219H28.037a.834.834 0 100 1.667h13.317a.834.834 0 100-1.667z" opacity=".4"/><path fill="#D7D7D7" d="M41.41 38.045H28.105a.834.834 0 100 1.667H41.41a.834.834 0 100-1.667z"/><g filter="url(#filter5_ii)"><path fill="#EAEAEA" d="M22.506 33.17a1.062 1.062 0 100-2.122 1.062 1.062 0 000 2.123z"/></g><g filter="url(#filter6_ii)"><path fill="#EAEAEA" d="M26.01 33.17a1.062 1.062 0 100-2.123 1.062 1.062 0 000 2.123z"/></g><g filter="url(#filter7_ii)"><path fill="#EAEAEA" d="M29.513 33.17a1.062 1.062 0 100-2.123 1.062 1.062 0 000 2.123z"/></g><rect width="88.431" height="40.597" x="21.853" y="47.42" fill="#002880" fill-opacity=".32" rx=".944"/><g filter="url(#filter8_ii)"><rect width="88.012" height="40.597" x="22.271" y="46.719" fill="url(#paint8_linear)" rx=".944"/></g><g filter="url(#filter9_di)"><path fill="#4BBEFF" d="M82.18 57.7a3.667 3.667 0 012.842-3.573.655.655 0 00.512-.637v-2.613a.655.655 0 00-.655-.654H56.894a.655.655 0 00-.655.654v2.578a.654.654 0 00.54.643 3.658 3.658 0 010 7.203.655.655 0 00-.54.643v2.572a.655.655 0 00.655.655H84.88a.655.655 0 00.655-.655v-2.612a.654.654 0 00-.512-.638A3.666 3.666 0 0182.18 57.7z"/></g><g filter="url(#filter10_d)"><path fill="#000" d="M76.814 55.281H65.679a.697.697 0 00-.696.697v.002c0 .384.312.696.696.696h11.135a.697.697 0 00.696-.696v-.002a.697.697 0 00-.696-.697z"/></g><g filter="url(#filter11_ii)"><path fill="#F3F3F3" d="M76.814 55.281H65.679a.697.697 0 00-.696.697v.002c0 .384.312.696.696.696h11.135a.697.697 0 00.696-.696v-.002a.697.697 0 00-.696-.697z"/></g><g filter="url(#filter12_d)"><path fill="#000" d="M75.214 59.05h-7.625a.697.697 0 00-.697.696v.002c0 .385.312.696.697.696h7.625a.697.697 0 00.697-.696v-.002a.697.697 0 00-.697-.697z"/></g><g filter="url(#filter13_ii)"><path fill="#F3F3F3" d="M75.214 59.05h-7.625a.697.697 0 00-.697.696v.002c0 .385.312.696.697.696h7.625a.697.697 0 00.697-.696v-.002a.697.697 0 00-.697-.697z"/></g><g filter="url(#filter14_d)"><g filter="url(#filter15_i)"><path fill="#92A2B1" d="M73.483 64.386a3.315 3.315 0 012.57-3.23.592.592 0 00.463-.577v-2.362a.592.592 0 00-.592-.593H50.616a.592.592 0 00-.592.593v2.33a.592.592 0 00.488.582 3.307 3.307 0 010 6.514.592.592 0 00-.488.582v2.326a.592.592 0 00.592.592h25.308a.592.592 0 00.592-.592v-2.363a.592.592 0 00-.463-.576 3.315 3.315 0 01-2.57-3.226z"/></g><g filter="url(#filter16_d)"><path fill="#000" d="M68.63 62.199H58.561a.63.63 0 00-.63.63v.001c0 .348.282.63.63.63h10.07a.63.63 0 00.63-.63v-.001a.63.63 0 00-.63-.63z"/></g><g filter="url(#filter17_ii)"><path fill="#F3F3F3" d="M68.63 62.199H58.561a.63.63 0 00-.63.63v.001c0 .348.282.63.63.63h10.07a.63.63 0 00.63-.63v-.001a.63.63 0 00-.63-.63z"/></g><g filter="url(#filter18_d)"><path fill="#000" d="M67.183 65.607h-6.895a.63.63 0 00-.63.63v.002c0 .347.282.63.63.63h6.895a.63.63 0 00.63-.63v-.002a.63.63 0 00-.63-.63z"/></g><g filter="url(#filter19_ii)"><path fill="#F3F3F3" d="M67.183 65.607h-6.895a.63.63 0 00-.63.63v.002c0 .347.282.63.63.63h6.895a.63.63 0 00.63-.63v-.002a.63.63 0 00-.63-.63z"/></g></g><g filter="url(#filter20_d)"><rect width="22.652" height="1.472" x="52.648" y="80.196" fill="#3E3E3E" rx=".736"/></g><g filter="url(#filter21_dii)"><rect width="23.015" height="1.777" x="52.441" y="79.891" fill="url(#paint9_linear)" rx=".889"/></g><g filter="url(#filter22_d)"><rect width="37.488" height="1.472" x="45.205" y="75.783" fill="#3E3E3E" rx=".736"/></g><g filter="url(#filter23_dii)"><rect width="38.089" height="1.777" x="44.862" y="75.477" fill="url(#paint10_linear)" rx=".889"/></g><g filter="url(#filter24_ii)"><rect width="31.819" height="2.467" x="49.664" y="106.604" fill="#E4E4E4" rx="1.234"/></g><g filter="url(#filter25_i)"><path fill="url(#paint11_linear)" d="M121.209 93.179c-.029-.008-.059-.013-.083-.032-.607-.486 1.126-8.107 1.29-8.673.83-2.865 2.204-5.653 4.413-7.698 1.564-1.448 5.743-4.28 7.911-2.615 1.827 1.405.115 4.933-.727 6.408-1.51 2.623-3.735 4.748-5.636 7.075-1.134 1.391-2.273 2.81-3.407 4.201-.078.102-.725 1.02-1.159 1.541-.225.27-.55.313-.891.227l-1.711-.434z"/></g><g filter="url(#filter26_i)"><path fill="url(#paint12_linear)" d="M123.702 95.476c.927.2 1.753-.589 1.56-1.517-1.065-5.11-4.595-18.43-12.07-16.003-6.793 2.23 7.807 15.367 9.922 17.228.17.15.367.244.588.292z"/></g><path fill="#77FFE4" fill-opacity=".2" d="M115.228 80.613s8.742 11.41 8.842 13.824l-8.842-13.824zm16.927-4.202s-7.183 9.164-7.964 13.231l7.964-13.23z"/><path fill="url(#paint13_linear)" d="M114.776 92.838a1.436 1.436 0 011.429-1.573h12.89c.847 0 1.51.73 1.428 1.573l-1.418 14.707a1.435 1.435 0 01-1.428 1.298h-10.054c-.74 0-1.358-.562-1.429-1.298l-1.418-14.707z"/><g filter="url(#filter27_i)"><rect width="17.209" height="4.237" x="114.046" y="91.265" fill="url(#paint14_linear)" rx=".718"/></g><defs><filter id="filter0_f" width="118.318" height="2.597" x="6.615" y="108.082" color-interpolation-filters="sRGB" filterUnits="userSpaceOnUse"><feFlood flood-opacity="0" result="BackgroundImageFix"/><feBlend in="SourceGraphic" in2="BackgroundImageFix" result="shape"/><feGaussianBlur result="effect1_foregroundBlur" stdDeviation=".495"/></filter><filter id="filter1_ii" width="20.19" height="25.057" x="55.359" y="84.109" color-interpolation-filters="sRGB" filterUnits="userSpaceOnUse"><feFlood flood-opacity="0" result="BackgroundImageFix"/><feBlend in="SourceGraphic" in2="BackgroundImageFix" result="shape"/><feColorMatrix in="SourceAlpha" result="hardAlpha" values="0 0 0 0 0 0 0 0 0 0 0 0 0 0 0 0 0 0 127 0"/><feOffset dx=".472" dy=".519"/><feGaussianBlur stdDeviation=".047"/><feComposite in2="hardAlpha" k2="-1" k3="1" operator="arithmetic"/><feColorMatrix values="0 0 0 0 0.958333 0 0 0 0 0.958333 0 0 0 0 0.958333 0 0 0 1 0"/><feBlend in2="shape" result="effect1_innerShadow"/><feColorMatrix in="SourceAlpha" result="hardAlpha" values="0 0 0 0 0 0 0 0 0 0 0 0 0 0 0 0 0 0 127 0"/><feOffset dx="-.472" dy="-.283"/><feGaussianBlur stdDeviation=".047"/><feComposite in2="hardAlpha" k2="-1" k3="1" operator="arithmetic"/><feColorMatrix values="0 0 0 0 0.833333 0 0 0 0 0.833333 0 0 0 0 0.833333 0 0 0 1 0"/><feBlend in2="effect1_innerShadow" result="effect2_innerShadow"/></filter><filter id="filter2_ii" width="106.847" height="71.625" x="13.669" y="24.649" color-interpolation-filters="sRGB" filterUnits="userSpaceOnUse"><feFlood flood-opacity="0" result="BackgroundImageFix"/><feBlend in="SourceGraphic" in2="BackgroundImageFix" result="shape"/><feColorMatrix in="SourceAlpha" result="hardAlpha" values="0 0 0 0 0 0 0 0 0 0 0 0 0 0 0 0 0 0 127 0"/><feOffset dx=".472" dy=".519"/><feGaussianBlur stdDeviation=".283"/><feComposite in2="hardAlpha" k2="-1" k3="1" operator="arithmetic"/><feColorMatrix values="0 0 0 0 1 0 0 0 0 1 0 0 0 0 1 0 0 0 1 0"/><feBlend in2="shape" result="effect1_innerShadow"/><feColorMatrix in="SourceAlpha" result="hardAlpha" values="0 0 0 0 0 0 0 0 0 0 0 0 0 0 0 0 0 0 127 0"/><feOffset dx="-.472" dy="-.283"/><feGaussianBlur stdDeviation=".047"/><feComposite in2="hardAlpha" k2="-1" k3="1" operator="arithmetic"/><feColorMatrix values="0 0 0 0 0.833333 0 0 0 0 0.833333 0 0 0 0 0.833333 0 0 0 1 0"/><feBlend in2="effect1_innerShadow" result="effect2_innerShadow"/></filter><filter id="filter3_iii" width="101.069" height="66.377" x="15.874" y="27.224" color-interpolation-filters="sRGB" filterUnits="userSpaceOnUse"><feFlood flood-opacity="0" result="BackgroundImageFix"/><feBlend in="SourceGraphic" in2="BackgroundImageFix" result="shape"/><feColorMatrix in="SourceAlpha" result="hardAlpha" values="0 0 0 0 0 0 0 0 0 0 0 0 0 0 0 0 0 0 127 0"/><feOffset dy="-.283"/><feGaussianBlur stdDeviation=".283"/><feComposite in2="hardAlpha" k2="-1" k3="1" operator="arithmetic"/><feColorMatrix values="0 0 0 0 0.089132 0 0 0 0 0.328429 0 0 0 0 0.629167 0 0 0 1 0"/><feBlend in2="shape" result="effect1_innerShadow"/><feColorMatrix in="SourceAlpha" result="hardAlpha" values="0 0 0 0 0 0 0 0 0 0 0 0 0 0 0 0 0 0 127 0"/><feOffset dy=".519"/><feGaussianBlur stdDeviation=".26"/><feComposite in2="hardAlpha" k2="-1" k3="1" operator="arithmetic"/><feColorMatrix values="0 0 0 0 0.641667 0 0 0 0 0.8495 0 0 0 0 1 0 0 0 1 0"/><feBlend in2="effect1_innerShadow" result="effect2_innerShadow"/><feColorMatrix in="SourceAlpha" result="hardAlpha" values="0 0 0 0 0 0 0 0 0 0 0 0 0 0 0 0 0 0 127 0"/><feOffset dx="-.472"/><feGaussianBlur stdDeviation=".236"/><feComposite in2="hardAlpha" k2="-1" k3="1" operator="arithmetic"/><feColorMatrix values="0 0 0 0 0 0 0 0 0 0 0 0 0 0 0 0 0 0 0.25 0"/><feBlend in2="effect2_innerShadow" result="effect3_innerShadow"/></filter><filter id="filter4_ii" width="90.093" height="5.929" x="22.177" y="36.123" color-interpolation-filters="sRGB" filterUnits="userSpaceOnUse"><feFlood flood-opacity="0" result="BackgroundImageFix"/><feBlend in="SourceGraphic" in2="BackgroundImageFix" result="shape"/><feColorMatrix in="SourceAlpha" result="hardAlpha" values="0 0 0 0 0 0 0 0 0 0 0 0 0 0 0 0 0 0 127 0"/><feOffset dx=".472" dy=".519"/><feGaussianBlur stdDeviation=".283"/><feComposite in2="hardAlpha" k2="-1" k3="1" operator="arithmetic"/><feColorMatrix values="0 0 0 0 1 0 0 0 0 1 0 0 0 0 1 0 0 0 1 0"/><feBlend in2="shape" result="effect1_innerShadow"/><feColorMatrix in="SourceAlpha" result="hardAlpha" values="0 0 0 0 0 0 0 0 0 0 0 0 0 0 0 0 0 0 127 0"/><feOffset dx="-.472" dy="-.283"/><feGaussianBlur stdDeviation=".047"/><feComposite in2="hardAlpha" k2="-1" k3="1" operator="arithmetic"/><feColorMatrix values="0 0 0 0 0.833333 0 0 0 0 0.833333 0 0 0 0 0.833333 0 0 0 1 0"/><feBlend in2="effect1_innerShadow" result="effect2_innerShadow"/></filter><filter id="filter5_ii" width="2.265" height="2.265" x="21.351" y="30.953" color-interpolation-filters="sRGB" filterUnits="userSpaceOnUse"><feFlood flood-opacity="0" result="BackgroundImageFix"/><feBlend in="SourceGraphic" in2="BackgroundImageFix" result="shape"/><feColorMatrix in="SourceAlpha" result="hardAlpha" values="0 0 0 0 0 0 0 0 0 0 0 0 0 0 0 0 0 0 127 0"/><feOffset dx=".094" dy=".094"/><feGaussianBlur stdDeviation=".024"/><feComposite in2="hardAlpha" k2="-1" k3="1" operator="arithmetic"/><feColorMatrix values="0 0 0 0 1 0 0 0 0 1 0 0 0 0 1 0 0 0 1 0"/><feBlend in2="shape" result="effect1_innerShadow"/><feColorMatrix in="SourceAlpha" result="hardAlpha" values="0 0 0 0 0 0 0 0 0 0 0 0 0 0 0 0 0 0 127 0"/><feOffset dx="-.094" dy="-.094"/><feGaussianBlur stdDeviation=".047"/><feComposite in2="hardAlpha" k2="-1" k3="1" operator="arithmetic"/><feColorMatrix values="0 0 0 0 0.658333 0 0 0 0 0.658333 0 0 0 0 0.658333 0 0 0 1 0"/><feBlend in2="effect1_innerShadow" result="effect2_innerShadow"/></filter><filter id="filter6_ii" width="2.265" height="2.265" x="24.853" y="30.953" color-interpolation-filters="sRGB" filterUnits="userSpaceOnUse"><feFlood flood-opacity="0" result="BackgroundImageFix"/><feBlend in="SourceGraphic" in2="BackgroundImageFix" result="shape"/><feColorMatrix in="SourceAlpha" result="hardAlpha" values="0 0 0 0 0 0 0 0 0 0 0 0 0 0 0 0 0 0 127 0"/><feOffset dx=".094" dy=".094"/><feGaussianBlur stdDeviation=".024"/><feComposite in2="hardAlpha" k2="-1" k3="1" operator="arithmetic"/><feColorMatrix values="0 0 0 0 1 0 0 0 0 1 0 0 0 0 1 0 0 0 1 0"/><feBlend in2="shape" result="effect1_innerShadow"/><feColorMatrix in="SourceAlpha" result="hardAlpha" values="0 0 0 0 0 0 0 0 0 0 0 0 0 0 0 0 0 0 127 0"/><feOffset dx="-.094" dy="-.094"/><feGaussianBlur stdDeviation=".047"/><feComposite in2="hardAlpha" k2="-1" k3="1" operator="arithmetic"/><feColorMatrix values="0 0 0 0 0.658333 0 0 0 0 0.658333 0 0 0 0 0.658333 0 0 0 1 0"/><feBlend in2="effect1_innerShadow" result="effect2_innerShadow"/></filter><filter id="filter7_ii" width="2.265" height="2.265" x="28.357" y="30.953" color-interpolation-filters="sRGB" filterUnits="userSpaceOnUse"><feFlood flood-opacity="0" result="BackgroundImageFix"/><feBlend in="SourceGraphic" in2="BackgroundImageFix" result="shape"/><feColorMatrix in="SourceAlpha" result="hardAlpha" values="0 0 0 0 0 0 0 0 0 0 0 0 0 0 0 0 0 0 127 0"/><feOffset dx=".094" dy=".094"/><feGaussianBlur stdDeviation=".024"/><feComposite in2="hardAlpha" k2="-1" k3="1" operator="arithmetic"/><feColorMatrix values="0 0 0 0 1 0 0 0 0 1 0 0 0 0 1 0 0 0 1 0"/><feBlend in2="shape" result="effect1_innerShadow"/><feColorMatrix in="SourceAlpha" result="hardAlpha" values="0 0 0 0 0 0 0 0 0 0 0 0 0 0 0 0 0 0 127 0"/><feOffset dx="-.094" dy="-.094"/><feGaussianBlur stdDeviation=".047"/><feComposite in2="hardAlpha" k2="-1" k3="1" operator="arithmetic"/><feColorMatrix values="0 0 0 0 0.658333 0 0 0 0 0.658333 0 0 0 0 0.658333 0 0 0 1 0"/><feBlend in2="effect1_innerShadow" result="effect2_innerShadow"/></filter><filter id="filter8_ii" width="88.578" height="41.21" x="22.177" y="46.624" color-interpolation-filters="sRGB" filterUnits="userSpaceOnUse"><feFlood flood-opacity="0" result="BackgroundImageFix"/><feBlend in="SourceGraphic" in2="BackgroundImageFix" result="shape"/><feColorMatrix in="SourceAlpha" result="hardAlpha" values="0 0 0 0 0 0 0 0 0 0 0 0 0 0 0 0 0 0 127 0"/><feOffset dx=".472" dy=".519"/><feGaussianBlur stdDeviation=".283"/><feComposite in2="hardAlpha" k2="-1" k3="1" operator="arithmetic"/><feColorMatrix values="0 0 0 0 1 0 0 0 0 1 0 0 0 0 1 0 0 0 1 0"/><feBlend in2="shape" result="effect1_innerShadow"/><feColorMatrix in="SourceAlpha" result="hardAlpha" values="0 0 0 0 0 0 0 0 0 0 0 0 0 0 0 0 0 0 127 0"/><feOffset dx="-.472" dy="-.283"/><feGaussianBlur stdDeviation=".047"/><feComposite in2="hardAlpha" k2="-1" k3="1" operator="arithmetic"/><feColorMatrix values="0 0 0 0 0.833333 0 0 0 0 0.833333 0 0 0 0 0.833333 0 0 0 1 0"/><feBlend in2="effect1_innerShadow" result="effect2_innerShadow"/></filter><filter id="filter9_di" width="30.238" height="15.987" x="55.767" y="49.94" color-interpolation-filters="sRGB" filterUnits="userSpaceOnUse"><feFlood flood-opacity="0" result="BackgroundImageFix"/><feColorMatrix in="SourceAlpha" values="0 0 0 0 0 0 0 0 0 0 0 0 0 0 0 0 0 0 127 0"/><feOffset dy=".283"/><feGaussianBlur stdDeviation=".236"/><feColorMatrix values="0 0 0 0 0 0 0 0 0 0 0 0 0 0 0 0 0 0 0.25 0"/><feBlend in2="BackgroundImageFix" result="effect1_dropShadow"/><feBlend in="SourceGraphic" in2="effect1_dropShadow" result="shape"/><feColorMatrix in="SourceAlpha" result="hardAlpha" values="0 0 0 0 0 0 0 0 0 0 0 0 0 0 0 0 0 0 127 0"/><feOffset dx="-.094" dy="-.283"/><feGaussianBlur stdDeviation=".142"/><feComposite in2="hardAlpha" k2="-1" k3="1" operator="arithmetic"/><feColorMatrix values="0 0 0 0 0.0961458 0 0 0 0 0.412254 0 0 0 0 0.591667 0 0 0 1 0"/><feBlend in2="shape" result="effect2_innerShadow"/></filter><filter id="filter10_d" width="13.471" height="2.339" x="64.511" y="55.281" color-interpolation-filters="sRGB" filterUnits="userSpaceOnUse"><feFlood flood-opacity="0" result="BackgroundImageFix"/><feColorMatrix in="SourceAlpha" values="0 0 0 0 0 0 0 0 0 0 0 0 0 0 0 0 0 0 127 0"/><feOffset dy=".472"/><feGaussianBlur stdDeviation=".236"/><feColorMatrix values="0 0 0 0 0 0 0 0 0 0 0 0 0 0 0 0 0 0 0.25 0"/><feBlend in2="BackgroundImageFix" result="effect1_dropShadow"/><feBlend in="SourceGraphic" in2="effect1_dropShadow" result="shape"/></filter><filter id="filter11_ii" width="12.575" height="1.631" x="64.936" y="55.187" color-interpolation-filters="sRGB" filterUnits="userSpaceOnUse"><feFlood flood-opacity="0" result="BackgroundImageFix"/><feBlend in="SourceGraphic" in2="BackgroundImageFix" result="shape"/><feColorMatrix in="SourceAlpha" result="hardAlpha" values="0 0 0 0 0 0 0 0 0 0 0 0 0 0 0 0 0 0 127 0"/><feOffset dy=".236"/><feGaussianBlur stdDeviation=".071"/><feComposite in2="hardAlpha" k2="-1" k3="1" operator="arithmetic"/><feColorMatrix values="0 0 0 0 1 0 0 0 0 1 0 0 0 0 1 0 0 0 1 0"/><feBlend in2="shape" result="effect1_innerShadow"/><feColorMatrix in="SourceAlpha" result="hardAlpha" values="0 0 0 0 0 0 0 0 0 0 0 0 0 0 0 0 0 0 127 0"/><feOffset dx="-.047" dy="-.189"/><feGaussianBlur stdDeviation=".047"/><feComposite in2="hardAlpha" k2="-1" k3="1" operator="arithmetic"/><feColorMatrix values="0 0 0 0 0.833333 0 0 0 0 0.833333 0 0 0 0 0.833333 0 0 0 1 0"/><feBlend in2="effect1_innerShadow" result="effect2_innerShadow"/></filter><filter id="filter12_d" width="9.962" height="2.339" x="66.42" y="59.049" color-interpolation-filters="sRGB" filterUnits="userSpaceOnUse"><feFlood flood-opacity="0" result="BackgroundImageFix"/><feColorMatrix in="SourceAlpha" values="0 0 0 0 0 0 0 0 0 0 0 0 0 0 0 0 0 0 127 0"/><feOffset dy=".472"/><feGaussianBlur stdDeviation=".236"/><feColorMatrix values="0 0 0 0 0 0 0 0 0 0 0 0 0 0 0 0 0 0 0.25 0"/><feBlend in2="BackgroundImageFix" result="effect1_dropShadow"/><feBlend in="SourceGraphic" in2="effect1_dropShadow" result="shape"/></filter><filter id="filter13_ii" width="9.065" height="1.631" x="66.845" y="58.955" color-interpolation-filters="sRGB" filterUnits="userSpaceOnUse"><feFlood flood-opacity="0" result="BackgroundImageFix"/><feBlend in="SourceGraphic" in2="BackgroundImageFix" result="shape"/><feColorMatrix in="SourceAlpha" result="hardAlpha" values="0 0 0 0 0 0 0 0 0 0 0 0 0 0 0 0 0 0 127 0"/><feOffset dy=".236"/><feGaussianBlur stdDeviation=".071"/><feComposite in2="hardAlpha" k2="-1" k3="1" operator="arithmetic"/><feColorMatrix values="0 0 0 0 1 0 0 0 0 1 0 0 0 0 1 0 0 0 1 0"/><feBlend in2="shape" result="effect1_innerShadow"/><feColorMatrix in="SourceAlpha" result="hardAlpha" values="0 0 0 0 0 0 0 0 0 0 0 0 0 0 0 0 0 0 127 0"/><feOffset dx="-.047" dy="-.189"/><feGaussianBlur stdDeviation=".047"/><feComposite in2="hardAlpha" k2="-1" k3="1" operator="arithmetic"/><feColorMatrix values="0 0 0 0 0.833333 0 0 0 0 0.833333 0 0 0 0 0.833333 0 0 0 1 0"/><feBlend in2="effect1_innerShadow" result="effect2_innerShadow"/></filter><filter id="filter14_d" width="31.21" height="18.237" x="47.665" y="57.153" color-interpolation-filters="sRGB" filterUnits="userSpaceOnUse"><feFlood flood-opacity="0" result="BackgroundImageFix"/><feColorMatrix in="SourceAlpha" values="0 0 0 0 0 0 0 0 0 0 0 0 0 0 0 0 0 0 127 0"/><feOffset dy="1.887"/><feGaussianBlur stdDeviation="1.18"/><feColorMatrix values="0 0 0 0 0 0 0 0 0 0 0 0 0 0 0 0 0 0 0.2 0"/><feBlend in2="BackgroundImageFix" result="effect1_dropShadow"/><feBlend in="SourceGraphic" in2="effect1_dropShadow" result="shape"/></filter><filter id="filter15_i" width="26.586" height="13.802" x="49.93" y="57.341" color-interpolation-filters="sRGB" filterUnits="userSpaceOnUse"><feFlood flood-opacity="0" result="BackgroundImageFix"/><feBlend in="SourceGraphic" in2="BackgroundImageFix" result="shape"/><feColorMatrix in="SourceAlpha" result="hardAlpha" values="0 0 0 0 0 0 0 0 0 0 0 0 0 0 0 0 0 0 127 0"/><feOffset dx="-.094" dy="-.283"/><feGaussianBlur stdDeviation=".142"/><feComposite in2="hardAlpha" k2="-1" k3="1" operator="arithmetic"/><feColorMatrix values="0 0 0 0 0.278431 0 0 0 0 0.345098 0 0 0 0 0.403922 0 0 0 1 0"/><feBlend in2="shape" result="effect1_innerShadow"/></filter><filter id="filter16_d" width="12.273" height="2.205" x="57.459" y="62.199" color-interpolation-filters="sRGB" filterUnits="userSpaceOnUse"><feFlood flood-opacity="0" result="BackgroundImageFix"/><feColorMatrix in="SourceAlpha" values="0 0 0 0 0 0 0 0 0 0 0 0 0 0 0 0 0 0 127 0"/><feOffset dy=".472"/><feGaussianBlur stdDeviation=".236"/><feColorMatrix values="0 0 0 0 0 0 0 0 0 0 0 0 0 0 0 0 0 0 0.25 0"/><feBlend in2="BackgroundImageFix" result="effect1_dropShadow"/><feBlend in="SourceGraphic" in2="effect1_dropShadow" result="shape"/></filter><filter id="filter17_ii" width="11.376" height="1.498" x="57.884" y="62.104" color-interpolation-filters="sRGB" filterUnits="userSpaceOnUse"><feFlood flood-opacity="0" result="BackgroundImageFix"/><feBlend in="SourceGraphic" in2="BackgroundImageFix" result="shape"/><feColorMatrix in="SourceAlpha" result="hardAlpha" values="0 0 0 0 0 0 0 0 0 0 0 0 0 0 0 0 0 0 127 0"/><feOffset dy=".236"/><feGaussianBlur stdDeviation=".071"/><feComposite in2="hardAlpha" k2="-1" k3="1" operator="arithmetic"/><feColorMatrix values="0 0 0 0 1 0 0 0 0 1 0 0 0 0 1 0 0 0 1 0"/><feBlend in2="shape" result="effect1_innerShadow"/><feColorMatrix in="SourceAlpha" result="hardAlpha" values="0 0 0 0 0 0 0 0 0 0 0 0 0 0 0 0 0 0 127 0"/><feOffset dx="-.047" dy="-.189"/><feGaussianBlur stdDeviation=".047"/><feComposite in2="hardAlpha" k2="-1" k3="1" operator="arithmetic"/><feColorMatrix values="0 0 0 0 0.833333 0 0 0 0 0.833333 0 0 0 0 0.833333 0 0 0 1 0"/><feBlend in2="effect1_innerShadow" result="effect2_innerShadow"/></filter><filter id="filter18_d" width="9.099" height="2.205" x="59.186" y="65.607" color-interpolation-filters="sRGB" filterUnits="userSpaceOnUse"><feFlood flood-opacity="0" result="BackgroundImageFix"/><feColorMatrix in="SourceAlpha" values="0 0 0 0 0 0 0 0 0 0 0 0 0 0 0 0 0 0 127 0"/><feOffset dy=".472"/><feGaussianBlur stdDeviation=".236"/><feColorMatrix values="0 0 0 0 0 0 0 0 0 0 0 0 0 0 0 0 0 0 0.25 0"/><feBlend in2="BackgroundImageFix" result="effect1_dropShadow"/><feBlend in="SourceGraphic" in2="effect1_dropShadow" result="shape"/></filter><filter id="filter19_ii" width="8.203" height="1.498" x="59.611" y="65.513" color-interpolation-filters="sRGB" filterUnits="userSpaceOnUse"><feFlood flood-opacity="0" result="BackgroundImageFix"/><feBlend in="SourceGraphic" in2="BackgroundImageFix" result="shape"/><feColorMatrix in="SourceAlpha" result="hardAlpha" values="0 0 0 0 0 0 0 0 0 0 0 0 0 0 0 0 0 0 127 0"/><feOffset dy=".236"/><feGaussianBlur stdDeviation=".071"/><feComposite in2="hardAlpha" k2="-1" k3="1" operator="arithmetic"/><feColorMatrix values="0 0 0 0 1 0 0 0 0 1 0 0 0 0 1 0 0 0 1 0"/><feBlend in2="shape" result="effect1_innerShadow"/><feColorMatrix in="SourceAlpha" result="hardAlpha" values="0 0 0 0 0 0 0 0 0 0 0 0 0 0 0 0 0 0 127 0"/><feOffset dx="-.047" dy="-.189"/><feGaussianBlur stdDeviation=".047"/><feComposite in2="hardAlpha" k2="-1" k3="1" operator="arithmetic"/><feColorMatrix values="0 0 0 0 0.833333 0 0 0 0 0.833333 0 0 0 0 0.833333 0 0 0 1 0"/><feBlend in2="effect1_innerShadow" result="effect2_innerShadow"/></filter><filter id="filter20_d" width="23.029" height="1.849" x="52.459" y="80.055" color-interpolation-filters="sRGB" filterUnits="userSpaceOnUse"><feFlood flood-opacity="0" result="BackgroundImageFix"/><feColorMatrix in="SourceAlpha" values="0 0 0 0 0 0 0 0 0 0 0 0 0 0 0 0 0 0 127 0"/><feOffset dy=".047"/><feGaussianBlur stdDeviation=".094"/><feColorMatrix values="0 0 0 0 0 0 0 0 0 0 0 0 0 0 0 0 0 0 0.48 0"/><feBlend in2="BackgroundImageFix" result="effect1_dropShadow"/><feBlend in="SourceGraphic" in2="effect1_dropShadow" result="shape"/></filter><filter id="filter21_dii" width="23.959" height="3.004" x="51.969" y="79.608" color-interpolation-filters="sRGB" filterUnits="userSpaceOnUse"><feFlood flood-opacity="0" result="BackgroundImageFix"/><feColorMatrix in="SourceAlpha" values="0 0 0 0 0 0 0 0 0 0 0 0 0 0 0 0 0 0 127 0"/><feOffset dy=".472"/><feGaussianBlur stdDeviation=".236"/><feColorMatrix values="0 0 0 0 0 0 0 0 0 0 0 0 0 0 0 0 0 0 0.07 0"/><feBlend in2="BackgroundImageFix" result="effect1_dropShadow"/><feBlend in="SourceGraphic" in2="effect1_dropShadow" result="shape"/><feColorMatrix in="SourceAlpha" result="hardAlpha" values="0 0 0 0 0 0 0 0 0 0 0 0 0 0 0 0 0 0 127 0"/><feOffset dx=".472" dy=".519"/><feGaussianBlur stdDeviation=".283"/><feComposite in2="hardAlpha" k2="-1" k3="1" operator="arithmetic"/><feColorMatrix values="0 0 0 0 1 0 0 0 0 1 0 0 0 0 1 0 0 0 1 0"/><feBlend in2="shape" result="effect2_innerShadow"/><feColorMatrix in="SourceAlpha" result="hardAlpha" values="0 0 0 0 0 0 0 0 0 0 0 0 0 0 0 0 0 0 127 0"/><feOffset dx="-.519" dy="-.283"/><feGaussianBlur stdDeviation=".236"/><feComposite in2="hardAlpha" k2="-1" k3="1" operator="arithmetic"/><feColorMatrix values="0 0 0 0 0.833333 0 0 0 0 0.833333 0 0 0 0 0.833333 0 0 0 1 0"/><feBlend in2="effect2_innerShadow" result="effect3_innerShadow"/></filter><filter id="filter22_d" width="37.865" height="1.849" x="45.016" y="75.641" color-interpolation-filters="sRGB" filterUnits="userSpaceOnUse"><feFlood flood-opacity="0" result="BackgroundImageFix"/><feColorMatrix in="SourceAlpha" values="0 0 0 0 0 0 0 0 0 0 0 0 0 0 0 0 0 0 127 0"/><feOffset dy=".047"/><feGaussianBlur stdDeviation=".094"/><feColorMatrix values="0 0 0 0 0 0 0 0 0 0 0 0 0 0 0 0 0 0 0.48 0"/><feBlend in2="BackgroundImageFix" result="effect1_dropShadow"/><feBlend in="SourceGraphic" in2="effect1_dropShadow" result="shape"/></filter><filter id="filter23_dii" width="39.033" height="3.004" x="44.391" y="75.194" color-interpolation-filters="sRGB" filterUnits="userSpaceOnUse"><feFlood flood-opacity="0" result="BackgroundImageFix"/><feColorMatrix in="SourceAlpha" values="0 0 0 0 0 0 0 0 0 0 0 0 0 0 0 0 0 0 127 0"/><feOffset dy=".472"/><feGaussianBlur stdDeviation=".236"/><feColorMatrix values="0 0 0 0 0 0 0 0 0 0 0 0 0 0 0 0 0 0 0.07 0"/><feBlend in2="BackgroundImageFix" result="effect1_dropShadow"/><feBlend in="SourceGraphic" in2="effect1_dropShadow" result="shape"/><feColorMatrix in="SourceAlpha" result="hardAlpha" values="0 0 0 0 0 0 0 0 0 0 0 0 0 0 0 0 0 0 127 0"/><feOffset dx=".472" dy=".519"/><feGaussianBlur stdDeviation=".283"/><feComposite in2="hardAlpha" k2="-1" k3="1" operator="arithmetic"/><feColorMatrix values="0 0 0 0 1 0 0 0 0 1 0 0 0 0 1 0 0 0 1 0"/><feBlend in2="shape" result="effect2_innerShadow"/><feColorMatrix in="SourceAlpha" result="hardAlpha" values="0 0 0 0 0 0 0 0 0 0 0 0 0 0 0 0 0 0 127 0"/><feOffset dx="-.519" dy="-.283"/><feGaussianBlur stdDeviation=".236"/><feComposite in2="hardAlpha" k2="-1" k3="1" operator="arithmetic"/><feColorMatrix values="0 0 0 0 0.833333 0 0 0 0 0.833333 0 0 0 0 0.833333 0 0 0 1 0"/><feBlend in2="effect2_innerShadow" result="effect3_innerShadow"/></filter><filter id="filter24_ii" width="32.007" height="2.656" x="49.569" y="106.51" color-interpolation-filters="sRGB" filterUnits="userSpaceOnUse"><feFlood flood-opacity="0" result="BackgroundImageFix"/><feBlend in="SourceGraphic" in2="BackgroundImageFix" result="shape"/><feColorMatrix in="SourceAlpha" result="hardAlpha" values="0 0 0 0 0 0 0 0 0 0 0 0 0 0 0 0 0 0 127 0"/><feOffset dx=".472" dy=".519"/><feGaussianBlur stdDeviation=".047"/><feComposite in2="hardAlpha" k2="-1" k3="1" operator="arithmetic"/><feColorMatrix values="0 0 0 0 0.958333 0 0 0 0 0.958333 0 0 0 0 0.958333 0 0 0 1 0"/><feBlend in2="shape" result="effect1_innerShadow"/><feColorMatrix in="SourceAlpha" result="hardAlpha" values="0 0 0 0 0 0 0 0 0 0 0 0 0 0 0 0 0 0 127 0"/><feOffset dx="-.472" dy="-.283"/><feGaussianBlur stdDeviation=".047"/><feComposite in2="hardAlpha" k2="-1" k3="1" operator="arithmetic"/><feColorMatrix values="0 0 0 0 0.833333 0 0 0 0 0.833333 0 0 0 0 0.833333 0 0 0 1 0"/><feBlend in2="effect1_innerShadow" result="effect2_innerShadow"/></filter><filter id="filter25_i" width="15.242" height="20.264" x="120.998" y="73.389" color-interpolation-filters="sRGB" filterUnits="userSpaceOnUse"><feFlood flood-opacity="0" result="BackgroundImageFix"/><feBlend in="SourceGraphic" in2="BackgroundImageFix" result="shape"/><feColorMatrix in="SourceAlpha" result="hardAlpha" values="0 0 0 0 0 0 0 0 0 0 0 0 0 0 0 0 0 0 127 0"/><feOffset dx=".688" dy="-.263"/><feGaussianBlur stdDeviation=".897"/><feComposite in2="hardAlpha" k2="-1" k3="1" operator="arithmetic"/><feColorMatrix values="0 0 0 0 0.113056 0 0 0 0 0.616667 0 0 0 0 0.58645 0 0 0 1 0"/><feBlend in2="shape" result="effect1_innerShadow"/></filter><filter id="filter26_i" width="14.574" height="18.107" x="111.404" y="77.4" color-interpolation-filters="sRGB" filterUnits="userSpaceOnUse"><feFlood flood-opacity="0" result="BackgroundImageFix"/><feBlend in="SourceGraphic" in2="BackgroundImageFix" result="shape"/><feColorMatrix in="SourceAlpha" result="hardAlpha" values="0 0 0 0 0 0 0 0 0 0 0 0 0 0 0 0 0 0 127 0"/><feOffset dx=".688" dy="-.263"/><feGaussianBlur stdDeviation=".897"/><feComposite in2="hardAlpha" k2="-1" k3="1" operator="arithmetic"/><feColorMatrix values="0 0 0 0 0.0996528 0 0 0 0 0.683333 0 0 0 0 0.555806 0 0 0 1 0"/><feBlend in2="shape" result="effect1_innerShadow"/></filter><filter id="filter27_i" width="17.496" height="4.452" x="114.046" y="91.05" color-interpolation-filters="sRGB" filterUnits="userSpaceOnUse"><feFlood flood-opacity="0" result="BackgroundImageFix"/><feBlend in="SourceGraphic" in2="BackgroundImageFix" result="shape"/><feColorMatrix in="SourceAlpha" result="hardAlpha" values="0 0 0 0 0 0 0 0 0 0 0 0 0 0 0 0 0 0 127 0"/><feOffset dx=".287" dy="-.215"/><feGaussianBlur stdDeviation=".251"/><feComposite in2="hardAlpha" k2="-1" k3="1" operator="arithmetic"/><feColorMatrix values="0 0 0 0 0.833333 0 0 0 0 0.604343 0 0 0 0 0.0555555 0 0 0 1 0"/><feBlend in2="shape" result="effect1_innerShadow"/></filter><linearGradient id="paint0_linear" x1="70.377" x2="70.377" y1="0" y2="121.412" gradientUnits="userSpaceOnUse"><stop stop-color="#B5EFFF"/><stop offset="1" stop-color="#E7F8FE"/></linearGradient><linearGradient id="paint1_linear" x1="69.609" x2="69.609" y1="0" y2="120.703" gradientUnits="userSpaceOnUse"><stop stop-color="#B5EFFF"/><stop offset="1" stop-color="#EDFBFF"/></linearGradient><linearGradient id="paint6_linear" x1="65.614" x2="65.614" y1="93.552" y2="106.328" gradientUnits="userSpaceOnUse"><stop stop-color="#8B8B8B"/><stop offset="1" stop-color="#fff" stop-opacity="0"/></linearGradient><linearGradient id="paint7_linear" x1="29.725" x2="29.849" y1="36.218" y2="42.293" gradientUnits="userSpaceOnUse"><stop stop-color="#F1F1F1"/><stop offset="1" stop-color="#F8F8F8"/></linearGradient><linearGradient id="paint8_linear" x1="29.599" x2="36.783" y1="46.719" y2="91.995" gradientUnits="userSpaceOnUse"><stop stop-color="#F1F1F1"/><stop offset="1" stop-color="#F8F8F8"/></linearGradient><linearGradient id="paint9_linear" x1="54.357" x2="54.411" y1="79.891" y2="81.922" gradientUnits="userSpaceOnUse"><stop stop-color="#fff"/><stop offset=".271" stop-color="#fff"/><stop offset="1" stop-color="#B8B8B8"/></linearGradient><linearGradient id="paint10_linear" x1="48.034" x2="48.066" y1="75.477" y2="77.509" gradientUnits="userSpaceOnUse"><stop stop-color="#fff"/><stop offset=".271" stop-color="#fff"/><stop offset="1" stop-color="#B8B8B8"/></linearGradient><linearGradient id="paint11_linear" x1="137.661" x2="121.452" y1="73.965" y2="88.521" gradientUnits="userSpaceOnUse"><stop stop-color="#BAFFF1" stop-opacity=".26"/><stop offset=".682" stop-color="#4DC7AE"/><stop offset=".969" stop-color="#06896F"/></linearGradient><linearGradient id="paint12_linear" x1="130.45" x2="120.592" y1="79.613" y2="96.214" gradientUnits="userSpaceOnUse"><stop stop-color="#B7FDEF"/><stop offset=".682" stop-color="#09B794"/><stop offset=".969" stop-color="#7EE0CC"/></linearGradient><linearGradient id="paint13_linear" x1="130.675" x2="115.77" y1="102.837" y2="102.837" gradientUnits="userSpaceOnUse"><stop offset=".099" stop-color="#FFEEC5"/><stop offset=".607" stop-color="#FACD63"/><stop offset=".839" stop-color="#EAAF23"/><stop offset=".984" stop-color="#EDB52F"/></linearGradient><linearGradient id="paint14_linear" x1="131.255" x2="115.274" y1="94.054" y2="94.054" gradientUnits="userSpaceOnUse"><stop offset=".099" stop-color="#FFEEC5"/><stop offset=".607" stop-color="#FCBD27"/><stop offset=".984" stop-color="#EFB222"/></linearGradient><radialGradient id="paint2_radial" cx="0" cy="0" r="1" gradientTransform="rotate(-15.177 364.35 33.018) scale(14.7801)" gradientUnits="userSpaceOnUse"><stop stop-color="#FFF1CF"/><stop offset=".188" stop-color="#FFE4A2"/><stop offset=".318" stop-color="#FFD364"/><stop offset=".49" stop-color="#FFD364"/><stop offset=".651" stop-color="#FFC73A"/><stop offset=".948" stop-color="#D09500"/></radialGradient><radialGradient id="paint3_radial" cx="0" cy="0" r="1" gradientTransform="matrix(-1.71 2.7484 -2.50297 -1.5573 4.99 96.506)" gradientUnits="userSpaceOnUse"><stop stop-color="#fff"/><stop offset=".694" stop-color="#fff" stop-opacity="0"/></radialGradient><radialGradient id="paint4_radial" cx="0" cy="0" r="1" gradientTransform="rotate(-15.177 88.198 -391.955) scale(11.2812)" gradientUnits="userSpaceOnUse"><stop stop-color="#E6C6FF"/><stop offset=".188" stop-color="#C07DF5"/><stop offset=".318" stop-color="#BE6FFC"/><stop offset=".49" stop-color="#B56AF0"/><stop offset=".651" stop-color="#A745F4"/><stop offset=".948" stop-color="#9F3DED"/></radialGradient><radialGradient id="paint5_radial" cx="0" cy="0" r="1" gradientTransform="rotate(121.889 50.59 34.253) scale(2.47065 2.25003)" gradientUnits="userSpaceOnUse"><stop stop-color="#fff"/><stop offset=".694" stop-color="#fff" stop-opacity="0"/></radialGradient></defs></svg>