<svg width="151" height="150" viewBox="0 0 151 150" fill="none" xmlns="http://www.w3.org/2000/svg">
<g clip-path="url(#clip0_3039_456483)">
<path d="M134.56 134.18H140.05" stroke="#91A1B0" stroke-width="1.2" stroke-linecap="round" stroke-linejoin="round"/>
<path d="M104.57 134.18H128.6" stroke="#91A1B0" stroke-width="1.2" stroke-linecap="round" stroke-linejoin="round"/>
<path d="M11.0498 134.18H98.8698" stroke="#91A1B0" stroke-width="1.2" stroke-linecap="round" stroke-linejoin="round"/>
<path opacity="0.2" d="M75.5498 127.24C103.164 127.24 125.55 104.854 125.55 77.2402C125.55 49.626 103.164 27.2402 75.5498 27.2402C47.9356 27.2402 25.5498 49.626 25.5498 77.2402C25.5498 104.854 47.9356 127.24 75.5498 127.24Z" fill="#BEC6D2"/>
<path d="M38.6302 41.7402H112.46C115.59 41.7402 118.14 44.2802 118.14 47.4202V107.06C118.14 110.19 115.6 112.74 112.46 112.74H38.6302C35.5002 112.74 32.9502 110.2 32.9502 107.06V47.4202C32.9502 44.2902 35.4902 41.7402 38.6302 41.7402Z" fill="white" stroke="#91A1B0" stroke-width="1.2" stroke-miterlimit="10"/>
<path d="M38.1801 42.4004H112.99C115.47 42.4004 117.49 44.4204 117.49 46.9004V58.7604H33.5801V47.0004C33.5801 44.4604 35.6401 42.4004 38.1801 42.4004Z" fill="#91A1B0" stroke="#91A1B0" stroke-width="0.83" stroke-linecap="round" stroke-linejoin="round"/>
<path d="M52.7004 50.5801H42.8604H52.7004Z" fill="white"/>
<path d="M52.7004 50.5801H42.8604" stroke="white" stroke-width="1.2" stroke-miterlimit="10" stroke-linecap="round"/>
<path d="M18.9502 40.1602H24.9902" stroke="#91A1B0" stroke-width="1.2" stroke-linecap="round" stroke-linejoin="round"/>
<path d="M32.1504 26.0703V32.1203" stroke="#91A1B0" stroke-width="1.2" stroke-linecap="round" stroke-linejoin="round"/>
<path d="M21.5098 30.3896L26.3098 34.0797" stroke="#91A1B0" stroke-width="1.2" stroke-linecap="round" stroke-linejoin="round"/>
<path d="M112.7 124.17C122.641 124.17 130.7 116.111 130.7 106.17C130.7 96.2288 122.641 88.1699 112.7 88.1699C102.759 88.1699 94.7002 96.2288 94.7002 106.17C94.7002 116.111 102.759 124.17 112.7 124.17Z" fill="white" stroke="#91A1B0" stroke-width="1.2" stroke-miterlimit="10"/>
<path d="M112.61 108.61C109.54 108.61 107.04 106.11 107.04 103.04C107.04 99.9697 109.54 97.4697 112.61 97.4697C115.68 97.4697 118.18 99.9697 118.18 103.04C118.18 106.11 115.68 108.61 112.61 108.61ZM112.61 98.6597C110.2 98.6597 108.24 100.62 108.24 103.03C108.24 105.44 110.2 107.41 112.61 107.41C115.02 107.41 116.99 105.45 116.99 103.03C116.99 100.61 115.03 98.6597 112.61 98.6597Z" fill="#CFD7DF"/>
<path d="M122.23 114.88C122.08 114.88 121.94 114.83 121.82 114.72C120.69 113.68 117.56 111.24 112.97 111.15C108.08 111.08 104.8 113.62 103.6 114.72C103.36 114.94 102.98 114.93 102.75 114.69C102.52 114.45 102.54 114.07 102.78 113.84C104.08 112.64 107.7 109.84 112.99 109.95C118 110.05 121.4 112.7 122.63 113.84C122.87 114.06 122.89 114.44 122.66 114.69C122.54 114.82 122.38 114.88 122.22 114.88H122.23Z" fill="#CFD7DF"/>
<path d="M65.1419 70.5559C64.5748 70.7911 64.1212 71.2447 63.886 71.8118L64.3479 72.0033C64.2592 72.2172 64.21 72.4522 64.21 72.6999V73.7529H63.71V75.8589H64.21V77.9649H63.71V80.0709H64.21V82.1769H63.71V84.2829H64.21V86.3889H63.71V88.4949H64.21V90.6009H63.71V92.7069H64.21V93.7599C64.21 94.0076 64.2592 94.2425 64.3479 94.4564L63.886 94.648C64.1212 95.2151 64.5748 95.6687 65.1419 95.9038L65.3334 95.442C65.5473 95.5307 65.7823 95.5799 66.03 95.5799H66.9156V96.0799H68.6868V95.5799H70.4581V96.0799H72.2293V95.5799H74.0006V96.0799H75.7718V95.5799H77.5431V96.0799H79.3143V95.5799H80.2C80.4477 95.5799 80.6826 95.5307 80.8965 95.442L81.088 95.9038C81.6551 95.6687 82.1087 95.2151 82.3439 94.648L81.8821 94.4564C81.9708 94.2425 82.02 94.0076 82.02 93.7599V92.7069H82.52V90.6009H82.02V88.4949H82.52V86.3889H82.02V84.2829H82.52V82.1769H82.02V80.0709H82.52V77.9649H82.02V75.8589H82.52V73.7529H82.02V72.6999C82.02 72.4522 81.9708 72.2172 81.8821 72.0033L82.3439 71.8118C82.1087 71.2447 81.6551 70.7911 81.088 70.5559L80.8965 71.0178C80.6826 70.9291 80.4477 70.8799 80.2 70.8799H79.3143V70.3799H77.5431V70.8799H75.7718V70.3799H74.0006V70.8799H72.2293V70.3799H70.4581V70.8799H68.6868V70.3799H66.9156V70.8799H66.03C65.7823 70.8799 65.5473 70.9291 65.3334 71.0178L65.1419 70.5559Z" stroke="#BEC6D2" stroke-dasharray="2 2"/>
<path d="M85.0701 75.1299H70.9001C69.6188 75.1299 68.5801 76.1686 68.5801 77.4499V98.5099C68.5801 99.7912 69.6188 100.83 70.9001 100.83H85.0701C86.3514 100.83 87.3901 99.7912 87.3901 98.5099V77.4499C87.3901 76.1686 86.3514 75.1299 85.0701 75.1299Z" fill="#BEC6D2" stroke="#BEC6D2" stroke-miterlimit="10"/>
<path d="M77.9805 83.6904V92.2704" stroke="white" stroke-width="1.2" stroke-linecap="round" stroke-linejoin="round"/>
<path d="M73.6904 87.9805H82.2704" stroke="white" stroke-width="1.2" stroke-linecap="round" stroke-linejoin="round"/>
</g>
<defs>
<clipPath id="clip0_3039_456483">
<rect width="150" height="150" fill="white" transform="translate(0.5)"/>
</clipPath>
</defs>
</svg>
