<svg xmlns="http://www.w3.org/2000/svg" width="199" height="202" viewBox="0 0 199 202"><g fill="none" fill-rule="evenodd" transform="translate(1)"><path fill="#F1F3F8" d="M108.35 174l56.33-56.34a9 9 0 0112.71 12.72l-56.33 56.33A9 9 0 01108.35 174m-94.64-45.51l8.71-8.71a9 9 0 1112.71 12.72l-8.71 8.71a9 9 0 11-12.71-12.72"/><path fill="#F1F3F8" d="M112.35 145l25.74-25.74A9.001 9.001 0 10150.81 132l-25.75 25.75A9.001 9.001 0 10112.35 145m-11.01-39.2l24.13-24.12a9 9 0 1012.71 12.72l-24.12 24.12a9 9 0 00-12.72-12.72"/><path fill="#F1F3F8" d="M92.8 139.26l70.38-70.37a9 9 0 0112.71 12.72L105.52 152a9.001 9.001 0 11-12.72-12.74m-69.14 19.08l95.79-95.79a9 9 0 1112.71 12.71l-95.79 95.8a9 9 0 01-12.71-12.72m16.93-63.07l35.55-35.54a9 9 0 1112.71 12.71L53.31 108a9 9 0 01-12.72-12.73m58.8-58.79l.21-.22A9.001 9.001 0 11112.32 49l-.21.21a9 9 0 01-12.72 0 9 9 0 010-12.71M72.12 159.34l.21-.21a9 9 0 0112.72 12.72l-.21.21a9 9 0 01-12.72 0 9 9 0 010-12.72"/><path fill="#717790" d="M193.34 191.2a4.69 4.69 0 011.84-.25 8.86 8.86 0 011.85.18.55.55 0 01.43.65.57.57 0 01-.43.43 9.59 9.59 0 01-1.85.18 4.88 4.88 0 01-1.84-.25.5.5 0 01-.29-.65.49.49 0 01.29-.29m-168.53.02c6.91-.2 13.82-.23 20.73-.23H169.9c6.91 0 13.82 0 20.73.2a.57.57 0 01.56.59.59.59 0 01-.56.57c-6.91.17-13.82.19-20.73.19H45.54c-6.91 0-13.82 0-20.73-.23a.45.45 0 01-.43-.46.45.45 0 01.43-.43m-4.08-.42c.09-.01.18-.01.27 0a.7.7 0 01.14 0 .69.69 0 01.32 1.06.65.65 0 01-.32.24H21a.82.82 0 01-.27 0 .69.69 0 01-.51-.81.7.7 0 01.51-.51m-6.64.21a6.26 6.26 0 011.35-.18c.45-.04.905.003 1.34.13a.56.56 0 01.37.69.57.57 0 01-.37.37 3.85 3.85 0 01-1.34.13 7 7 0 01-1.35-.18.5.5 0 01-.35-.61.46.46 0 01.35-.35M88.62 200c2.16-.2 4.32-.23 6.47-.23h6.47l12.94-.07h19.41c2.15 0 4.31 0 6.47.2a.58.58 0 110 1.16c-2.16.17-4.32.18-6.47.19H114.5l-12.94-.07h-6.47c-2.15 0-4.31 0-6.47-.24a.45.45 0 010-.89M67.33 200c2.21-.12 4.42-.16 6.63-.18 2.21-.02 4.42 0 6.63.13a.53.53 0 010 1.06c-2.21.14-4.42.15-6.63.13a163 163 0 01-6.63-.18.48.48 0 010-.96"/><path stroke="#C8D6EC" stroke-linecap="round" stroke-linejoin="round" stroke-width="2" d="M188.9 152a1.72 1.72 0 11-3.44 0 1.72 1.72 0 013.44 0h0zM4.27 64.18v8.49m4.24-4.25H.02m61.28-6.78a1.72 1.72 0 11-3.44 0 1.72 1.72 0 013.44 0h0zm128.14 37.19a1.72 1.72 0 11-3.44.02 1.72 1.72 0 013.44-.02zM94.62 51.32l.83 3.06-3.06.84-.84-3.06zm-59.33 63.06a2 2 0 114 0 2 2 0 01-4 0z"/><path stroke="#CED6DE" stroke-dasharray="2.11" stroke-linecap="round" d="M113.28 143.31c-10.94-1.91-45.19-10.44-34.15-41.17 0 0 15.93-41.43 62.52-31.33 0 0 16 4.78 15.63 19.29 0 0-5.64 48-102.77 5.81 0 0-76.42-55.68 56.89-90.77"/><path fill="#DAE1E7" d="M72.38 122.28H70.4v-2h-1.32v2h-1.99v1.34h1.99v2h1.32v-2h1.98z"/><circle cx="113.71" cy="4.02" r="3.29" fill="#FFF" fill-rule="nonzero" stroke="#CED6DE"/><path fill="#F0E0B4" fill-rule="nonzero" d="M147.28 157H44.43a7.64 7.64 0 01-7.63-7.63V65.82A4.8 4.8 0 0141.59 61h36.24a4.8 4.8 0 013.78 1.84l6.51 8.33A4.79 4.79 0 0091.89 73h56.94a6.07 6.07 0 016.07 6.07v70.22a7.632 7.632 0 01-7.62 7.71z"/><path fill="#717790" fill-rule="nonzero" d="M147.28 158H44.43a8.64 8.64 0 01-8.63-8.63V65.82A5.8 5.8 0 0141.59 60h36.24a5.72 5.72 0 014.56 2.23l6.52 8.32a3.74 3.74 0 003 1.45h56.94a7.08 7.08 0 017.07 7.07v70.22a8.641 8.641 0 01-8.64 8.71zM41.59 62a3.8 3.8 0 00-3.79 3.79v83.5a6.642 6.642 0 006.63 6.71h102.85a6.64 6.64 0 006.62-6.63V79.1a5.08 5.08 0 00-5.07-5.1H91.89a5.71 5.71 0 01-4.55-2.22l-6.52-8.32a3.77 3.77 0 00-3-1.46H41.59z"/><path fill="#717790" fill-rule="nonzero" d="M107.07 132.32a1 1 0 01-.69-.27c0-.05-1.17-1.12-2.85-3a1 1 0 111.49-1.33c1.62 1.81 2.73 2.87 2.74 2.88a1 1 0 01-.69 1.72zm-7.26-8.42a1 1 0 01-.81-.4c-.82-1.11-1.62-2.24-2.35-3.36a1 1 0 011.67-1.1c.71 1.09 1.48 2.18 2.29 3.26a1 1 0 01-.21 1.4 1 1 0 01-.59.2zm-5.88-9.42a1 1 0 01-.89-.55c-.64-1.26-1.2-2.53-1.7-3.76a1 1 0 111.86-.74c.47 1.18 1 2.39 1.63 3.6a1 1 0 01-.9 1.45zM90.29 104a1 1 0 01-1-.83 28.74 28.74 0 01-.45-4.15 1 1 0 012 0 26.45 26.45 0 00.42 3.86 1 1 0 01-.8 1.16l-.17-.04zm.42-11a.92.92 0 01-.28-.05 1 1 0 01-.68-1.24 21.2 21.2 0 011.58-3.91 1 1 0 111.77.92 20.22 20.22 0 00-1.43 3.56 1 1 0 01-.96.72zm5.66-9.42a1 1 0 01-.72-1.7 32.11 32.11 0 013.1-2.77 1.02 1.02 0 111.25 1.61 29.38 29.38 0 00-2.9 2.6 1 1 0 01-.73.3v-.04zm8.92-6.54a1 1 0 01-.48-1.88c1.15-.62 2.39-1.23 3.68-1.82a1 1 0 011.32.5 1 1 0 01-.5 1.32c-1.24.57-2.44 1.16-3.55 1.76a1 1 0 01-.47.16v-.04zm10.13-4.52a1 1 0 01-.41-1.91c1.26-.56 2.47-1.12 3.62-1.69a1 1 0 01.89 1.79c-1.17.58-2.42 1.16-3.7 1.73a1.14 1.14 0 01-.4.12v-.04zm9.79-5.2a1 1 0 01-.84-.45 1 1 0 01.29-1.38c1.15-.75 2.22-1.53 3.19-2.31a1 1 0 111.25 1.56c-1 .82-2.14 1.63-3.34 2.42a1 1 0 01-.55.2v-.04zm8.22-7.32a1.06 1.06 0 01-.61-.2 1 1 0 01-.19-1.4 22.17 22.17 0 002-3.27 1 1 0 111.78.9 22.07 22.07 0 01-2.23 3.57 1 1 0 01-.75.4zm-4.37-12.17a19.432 19.432 0 01-6-1c-1.44-.47-4.83-1.82-5.25-4-.31-1.55.7-3.18 2.84-4.59a20.8 20.8 0 017.34-2.8c5.43-1.06 11.55-.37 12.21 3a6.93 6.93 0 01-1.58 5.23 10.64 10.64 0 01-6.62 3.89c-.97.183-1.954.273-2.94.27zM132.57 37a21.58 21.58 0 00-4.23.43 18.83 18.83 0 00-6.62 2.5c-1.35.89-2.11 1.86-2 2.53.09.5 1.24 1.61 3.92 2.5a16.31 16.31 0 008 .64 8.61 8.61 0 005.36-3.14 5 5 0 001.21-3.62c-.21-.96-2.33-1.84-5.64-1.84zM154 58.24a12 12 0 01-4.62-1.24 18.32 18.32 0 01-7-5.72c-3.6-5.15-2-10.49.45-12.22 2.82-2 7.7 1.79 10.87 6.32a21 21 0 013.35 7.11c.55 2.5.15 4.37-1.15 5.27a3.3 3.3 0 01-1.9.48zm-9.95-8.16a16.22 16.22 0 006.19 5.07c2.53 1.22 4.14 1.21 4.55.92.41-.29.69-1.61.33-3.19a18.75 18.75 0 00-3-6.4c-3.29-4.71-7-6.6-8.08-5.83-1.54 1.07-2.88 5.26 0 9.43h.01z"/><path fill="#717790" fill-rule="nonzero" d="M143.12 43.15a10.52 10.52 0 011.75-3.35 6.05 6.05 0 00.84-1.37c1.11-2.47.4-5.2-1.59-6.1-1.99-.9-4.5.37-5.62 2.84a5.59 5.59 0 00-.48 1.92 16.1 16.1 0 01-.78 4.25l-.12.35c-1.46 4.46-1.37 8.48.19 9 1.56.52 4.35-3 5.8-7.5l.01-.04z"/><path fill="#717790" fill-rule="nonzero" d="M144.38 152h-103c-4.16 0-3.56-2.38-3.56-6.37l-.84-14.25 8.26-35.41a3.38 3.38 0 013.29-2.61h45a2.57 2.57 0 002-1l7.74-9.6a2.54 2.54 0 012-1h49.63l-.39 6.5-2.61 56.43a7.38 7.38 0 01-7.52 7.31z" opacity=".2"/><path fill="#F0E0B4" fill-rule="nonzero" d="M147.38 157h-103a7.39 7.39 0 01-7.53-7.23l11.5-49.28A2.77 2.77 0 0151 98.31h44.78a4.07 4.07 0 003.17-1.52l6.83-8.48a4.09 4.09 0 013.22-1.52h58l-12 62.93a7.38 7.38 0 01-7.62 7.28z"/><path fill="#717790" fill-rule="nonzero" d="M147.38 157.93h-103a8.37 8.37 0 01-8.51-8.21.83.83 0 010-.22l11.5-49.28A3.73 3.73 0 0151 97.33h44.78a3.09 3.09 0 002.41-1.15l6.81-8.49a5 5 0 014-1.88h58a1 1 0 01.76.35 1 1 0 01.21.81l-12 62.85a8.37 8.37 0 01-8.59 8.11zm-109.6-8.1a6.42 6.42 0 006.55 6.17h103.05a6.41 6.41 0 006.54-6.25 1.1 1.1 0 010-.18L165.7 87.8H109a3.09 3.09 0 00-2.41 1.15l-6.84 8.48a5 5 0 01-3.93 1.89H51a1.77 1.77 0 00-1.73 1.37l-11.49 49.14z"/></g></svg>