<svg xmlns="http://www.w3.org/2000/svg" width="112" height="110" fill="none" viewBox="0 0 112 110"><mask id="fs-sp0pezukba" width="109" height="110" x="3" y="0" maskUnits="userSpaceOnUse"><path fill="url(#paint0_linear)" d="M57.57 109.083c30.022 0 54.361-24.338 54.361-54.361C111.931 24.699 87.592.36 57.569.36 27.546.36 3.208 24.699 3.208 54.72c0 30.024 24.338 54.362 54.361 54.362z"/></mask><g mask="url(#fs-sp0pezukba)"><path fill="url(#paint1_linear)" d="M56.882 108.448c30.019 0 54.354-24.196 54.354-54.044 0-29.847-24.335-54.043-54.354-54.043-30.02 0-54.355 24.196-54.355 54.043 0 29.848 24.336 54.044 54.355 54.044z"/><path fill="#fff" d="M75.261 29.412a3.405 3.405 0 00-3.405 3.405V166.7h137.287V29.412H75.261zm133.479 8.534h-8.198v-8.198h8.198v8.198zm-68.072 51.34v-8.198h8.198v8.198h-8.198zm8.198.403v8.199h-8.198v-8.199h8.198zm-8.534-.403h-8.198v-8.198h8.198v8.198zm0 .403v8.199h-8.198v-8.199h8.198zm-8.602 8.199h-8.198v-8.199h8.198v8.199zm0 .335v8.199h-8.198v-8.198h8.198zm.404 0h8.198v8.199h-8.198v-8.198zm8.198 8.535v8.198h-8.198v-8.198h8.198zm.336 0h8.198v8.198h-8.198v-8.198zm0-.336v-8.198h8.198v8.198h-8.198zm8.534-8.198h8.198v8.198h-8.198v-8.198zm0-.337V89.69h8.198v8.199h-8.198zm0-8.6v-8.2h8.198v8.2h-8.198zm0-8.535v-8.198h8.198v8.198h-8.198zm-.336 0h-8.198v-8.198h8.198v8.198zm-8.534 0h-8.198v-8.198h8.198v8.198zm-8.602 0h-8.198v-8.198h8.198v8.198zm0 .336v8.198h-8.198v-8.198h8.198zm-8.534 8.198h-8.198v-8.198h8.198v8.198zm0 .403v8.199h-8.198v-8.199h8.198zm0 8.535v8.198h-8.198v-8.198h8.198zm0 8.534v8.198h-8.198v-8.198h8.198zm.336 0h8.198v8.198h-8.198v-8.198zm8.198 8.601v8.198h-8.198v-8.198h8.198zm.404 0h8.198v8.198h-8.198v-8.198zm8.534 0h8.198v8.198h-8.198v-8.198zm8.534 0h8.198v8.198h-8.198v-8.198zm0-.403v-8.198h8.198v8.198h-8.198zm8.602-8.198h8.198v8.198h-8.198v-8.198zm0-.336v-8.198h8.198v8.198h-8.198zm0-8.534v-8.199h8.198v8.199h-8.198zm0-8.602v-8.198h8.198v8.198h-8.198zm0-8.534v-8.198h8.198v8.198h-8.198zm0-8.534v-8.199h8.198v8.199h-8.198zm-.404 0h-8.198v-8.199h8.198v8.199zm-8.534 0h-8.198v-8.199h8.198v8.199zm-8.534 0h-8.198v-8.199h8.198v8.199zm-8.602 0h-8.198v-8.199h8.198v8.199zm-8.534 0h-8.198v-8.199h8.198v8.199zm0 .336v8.198h-8.198v-8.198h8.198zm-8.534 8.198h-8.198v-8.198h8.198v8.198zm0 .336v8.198h-8.198v-8.198h8.198zm0 8.601v8.199h-8.198v-8.199h8.198zm0 8.535v8.198h-8.198v-8.198h8.198zm0 8.534v8.198h-8.198v-8.198h8.198zm0 8.601v8.198h-8.198v-8.198h8.198zm.336 0h8.198v8.198h-8.198v-8.198zm8.198 8.534v8.199h-8.198v-8.199h8.198zm.336 0h8.198v8.199h-8.198v-8.199zm8.602 0h8.198v8.199h-8.198v-8.199zm8.534 0h8.198v8.199h-8.198v-8.199zm8.534 0h8.198v8.199h-8.198v-8.199zm8.602 0h8.198v8.199h-8.198v-8.199zm0-.336v-8.198h8.198v8.198h-8.198zm8.534-8.198h8.198v8.198h-8.198v-8.198zm0-.403v-8.198h8.198v8.198h-8.198zm0-8.534v-8.198h8.198v8.198h-8.198zm0-8.534v-8.199h8.198v8.199h-8.198zm0-8.602v-8.198h8.198v8.198h-8.198zm0-8.534v-8.198h8.198v8.198h-8.198zm0-8.534v-8.199h8.198v8.199h-8.198zm0-8.602v-8.198h8.198v8.198h-8.198zm-.336 0h-8.198v-8.198h8.198v8.198zm-8.602 0h-8.198v-8.198h8.198v8.198zm-8.534 0h-8.198v-8.198h8.198v8.198zm-8.534 0h-8.198v-8.198h8.198v8.198zm-8.602 0h-8.198v-8.198h8.198v8.198zm-8.534 0h-8.198v-8.198h8.198v8.198zm-8.534 0h-8.198v-8.198h8.198v8.198zm0 .403v8.199h-8.198v-8.199h8.198zm-8.601 8.199h-8.199v-8.199h8.199v8.199zm0 .336v8.198h-8.199v-8.198h8.199zm0 8.534v8.198h-8.199v-8.198h8.199zm0 8.601v8.199h-8.199v-8.199h8.199zm0 8.535v8.198h-8.199v-8.198h8.199zm0 8.534v8.198h-8.199v-8.198h8.199zm0 8.601v8.198h-8.199v-8.198h8.199zm0 8.534v8.199h-8.199v-8.199h8.199zm.403 0h8.198v8.199h-8.198v-8.199zm8.198 8.535v8.198h-8.198v-8.198h8.198zm.336 0h8.198v8.198h-8.198v-8.198zm8.534 0h8.198v8.198h-8.198v-8.198zm8.602 0h8.198v8.198h-8.198v-8.198zm8.534 0h8.198v8.198h-8.198v-8.198zm8.534 0h8.198v8.198h-8.198v-8.198zm8.602 0h8.198v8.198h-8.198v-8.198zm8.534 0h8.198v8.198h-8.198v-8.198zm0-.336v-8.199h8.198v8.199h-8.198zm8.534-8.199h8.198v8.199h-8.198v-8.199zm0-.336v-8.198h8.198v8.198h-8.198zm0-8.601v-8.198h8.198v8.198h-8.198zm0-8.534v-8.198h8.198v8.198h-8.198zm0-8.534v-8.199h8.198v8.199h-8.198zm0-8.602v-8.198h8.198v8.198h-8.198zm0-8.534v-8.198h8.198v8.198h-8.198zm0-8.534v-8.199h8.198v8.199h-8.198zm0-8.602v-8.198h8.198v8.198h-8.198zm0-8.534v-8.198h8.198v8.198h-8.198zm-.336 0h-8.198v-8.198h8.198v8.198zm-8.534 0h-8.198v-8.198h8.198v8.198zm-8.602 0h-8.198v-8.198h8.198v8.198zm-8.534 0h-8.198v-8.198h8.198v8.198zm-8.534 0h-8.198v-8.198h8.198v8.198zm-8.602 0h-8.198v-8.198h8.198v8.198zm-8.534 0h-8.198v-8.198h8.198v8.198zm-8.534 0h-8.198v-8.198h8.198v8.198zm-8.601 0h-8.199v-8.198h8.199v8.198zm0 .336v8.198h-8.199v-8.198h8.199zm-8.535 8.198h-8.198v-8.198h8.198v8.198zm0 .403v8.199h-8.198v-8.199h8.198zm0 8.535v8.198h-8.198v-8.198h8.198zm0 8.534v8.198h-8.198v-8.198h8.198zm0 8.601v8.199h-8.198v-8.199h8.198zm0 8.535v8.198h-8.198v-8.198h8.198zm0 8.534v8.198h-8.198v-8.198h8.198zm0 8.601v8.198h-8.198v-8.198h8.198zm0 8.534v8.199h-8.198v-8.199h8.198zm0 8.535v8.198h-8.198v-8.198h8.198zm.336 0h8.199v8.198h-8.199v-8.198zm8.199 8.601v8.198h-8.199v-8.198h8.199zm.403 0h8.198v8.198h-8.198v-8.198zm8.534 0h8.198v8.198h-8.198v-8.198zm8.534 0h8.198v8.198h-8.198v-8.198zm8.602 0h8.198v8.198h-8.198v-8.198zm8.534 0h8.198v8.198h-8.198v-8.198zm8.534 0h8.198v8.198h-8.198v-8.198zm8.602 0h8.198v8.198h-8.198v-8.198zm8.534 0h8.198v8.198h-8.198v-8.198zm8.534 0h8.198v8.198h-8.198v-8.198zm0-.403v-8.198h8.198v8.198h-8.198zm8.601-8.198h8.199v8.198h-8.199v-8.198zm0-.336v-8.199h8.199v8.199h-8.199zm0-8.535v-8.198h8.199v8.198h-8.199zm0-8.601v-8.198h8.199v8.198h-8.199zm0-8.534v-8.198h8.199v8.198h-8.199zm0-8.534v-8.199h8.199v8.199h-8.199zm0-8.602v-8.198h8.199v8.198h-8.199zm0-8.534v-8.198h8.199v8.198h-8.199zm0-8.534v-8.199h8.199v8.199h-8.199zm0-8.602v-8.198h8.199v8.198h-8.199zm0-8.534v-8.198h8.199v8.198h-8.199zm0-8.534v-8.199h8.199v8.199h-8.199zm-.403 0h-8.198v-8.199h8.198v8.199zm-8.534 0h-8.198v-8.199h8.198v8.199zm-8.534 0h-8.198v-8.199h8.198v8.199zm-8.602 0h-8.198v-8.199h8.198v8.199zm-8.534 0h-8.198v-8.199h8.198v8.199zm-8.534 0h-8.198v-8.199h8.198v8.199zm-8.602 0h-8.198v-8.199h8.198v8.199zm-8.534 0h-8.198v-8.199h8.198v8.199zm-8.534 0h-8.198v-8.199h8.198v8.199zm-8.601 0h-8.199v-8.199h8.199v8.199zm-8.535 0h-8.198v-8.199h8.198v8.199zm0 .336v8.198h-8.198v-8.198h8.198zm-8.534 8.198h-8.198v-8.198h8.198v8.198zm0 .336v8.198h-8.198v-8.198h8.198zm0 8.601v8.199h-8.198v-8.199h8.198zm0 8.535v8.198h-8.198v-8.198h8.198zm0 8.534v8.198h-8.198v-8.198h8.198zm0 8.601v8.199h-8.198v-8.199h8.198zm0 8.535v8.198h-8.198v-8.198h8.198zm0 8.534v8.198h-8.198v-8.198h8.198zm0 8.601v8.198h-8.198v-8.198h8.198zm0 8.534v8.199h-8.198v-8.199h8.198zm0 8.535v8.198h-8.198v-8.198h8.198zm0 8.601v8.198h-8.198v-8.198h8.198zm.336 0h8.198v8.198h-8.198v-8.198zm8.198 8.534v8.199h-8.198v-8.199h8.198zm.336 0h8.199v8.199h-8.199v-8.199zm8.602 0h8.198v8.199h-8.198v-8.199zm8.534 0h8.198v8.199h-8.198v-8.199zm8.534 0h8.198v8.199h-8.198v-8.199zm8.602 0h8.198v8.199h-8.198v-8.199zm8.534 0h8.198v8.199h-8.198v-8.199zm8.534 0h8.198v8.199h-8.198v-8.199zm8.602 0h8.198v8.199h-8.198v-8.199zm8.534 0h8.198v8.199h-8.198v-8.199zm8.534 0h8.198v8.199h-8.198v-8.199zm8.601 0h8.199v8.199h-8.199v-8.199zm0-.336v-8.198h8.199v8.198h-8.199zm8.535-8.198h8.198v8.198h-8.198v-8.198zm0-.403v-8.198h8.198v8.198h-8.198zm0-8.534v-8.199h8.198v8.199h-8.198zm0-8.535v-8.198h8.198v8.198h-8.198zm0-8.601v-8.198h8.198v8.198h-8.198zm0-8.534v-8.198h8.198v8.198h-8.198zm0-8.534v-8.199h8.198v8.199h-8.198zm0-8.602v-8.198h8.198v8.198h-8.198zm0-8.534v-8.198h8.198v8.198h-8.198zm0-8.534v-8.199h8.198v8.199h-8.198zm0-8.602v-8.198h8.198v8.198h-8.198zm0-8.534v-8.198h8.198v8.198h-8.198zm0-8.534v-8.199h8.198v8.199h-8.198zm0-8.602v-8.198h8.198v8.198h-8.198zm-.336 0h-8.199v-8.198h8.199v8.198zm-8.602 0h-8.198v-8.198h8.198v8.198zm-8.534 0h-8.198v-8.198h8.198v8.198zm-8.534 0h-8.198v-8.198h8.198v8.198zm-8.602 0h-8.198v-8.198h8.198v8.198zm-8.534 0h-8.198v-8.198h8.198v8.198zm-8.534 0h-8.198v-8.198h8.198v8.198zm-8.602 0h-8.198v-8.198h8.198v8.198zm-8.534 0h-8.198v-8.198h8.198v8.198zm-8.534 0h-8.198v-8.198h8.198v8.198zm-8.601 0h-8.199v-8.198h8.199v8.198zm-8.535 0h-8.198v-8.198h8.198v8.198zm-8.534 0h-8.198v-8.198h8.198v8.198zm0 .404v8.198h-8.198v-8.199h8.198zm-8.601 8.198h-8.199v-8.199h8.199v8.199zm0 .336v8.198h-8.199v-8.198h8.199zm0 8.534v8.198h-8.199v-8.198h8.199zm0 8.601v8.199h-8.199v-8.199h8.199zm0 8.535v8.198h-8.199v-8.198h8.199zm0 8.534v8.198h-8.199v-8.198h8.199zm0 8.601v8.199h-8.199v-8.199h8.199zm0 8.535v8.198h-8.199v-8.198h8.199zm0 8.534v8.198h-8.199v-8.198h8.199zm0 8.601v8.198h-8.199v-8.198h8.199zm0 8.534v8.199h-8.199v-8.199h8.199zm0 8.535v8.198h-8.199v-8.198h8.199zm0 8.601v8.198h-8.199v-8.198h8.199zm0 8.534v8.199h-8.199v-8.199h8.199zm.403 0h8.198v8.199h-8.198v-8.199zm8.198 8.535v8.198h-8.198v-8.198h8.198zm.336 0h8.198v8.198h-8.198v-8.198zm8.534 0h8.199v8.198h-8.199v-8.198zm8.602 0h8.198v8.198h-8.198v-8.198zm8.534 0h8.198v8.198h-8.198v-8.198zm8.534 0h8.198v8.198h-8.198v-8.198zm8.602 0h8.198v8.198h-8.198v-8.198zm8.534 0h8.198v8.198h-8.198v-8.198zm8.534 0h8.198v8.198h-8.198v-8.198zm8.602 0h8.198v8.198h-8.198v-8.198zm8.534 0h8.198v8.198h-8.198v-8.198zm8.534 0h8.198v8.198h-8.198v-8.198zm8.601 0h8.199v8.198h-8.199v-8.198zm8.535 0h8.198v8.198h-8.198v-8.198zm0-.336v-8.199h8.198v8.199h-8.198zm8.534-8.199h8.198v8.199h-8.198v-8.199zm0-.336v-8.198h8.198v8.198h-8.198zm0-8.601v-8.198h8.198v8.198h-8.198zm0-8.534v-8.199h8.198v8.199h-8.198zm0-8.535v-8.198h8.198v8.198h-8.198zm0-8.601v-8.198h8.198v8.198h-8.198zm0-8.534v-8.198h8.198v8.198h-8.198zm0-8.534v-8.199h8.198v8.199h-8.198zm0-8.602v-8.198h8.198v8.198h-8.198zm0-8.534v-8.198h8.198v8.198h-8.198zm0-8.534v-8.199h8.198v8.199h-8.198zm0-8.602v-8.198h8.198v8.198h-8.198zm0-8.534v-8.198h8.198v8.198h-8.198zm0-8.534v-8.199h8.198v8.199h-8.198zm-120.151-16.8v8.198h-8.199v-4.793a3.405 3.405 0 013.405-3.405h4.794zm-8.199 128.35h8.199v8.198h-8.199v-8.198zm128.35 8.198v-8.198h8.198v8.198h-8.198z"/></g><g filter="url(#filter0_f)"><ellipse cx="53.447" cy="94.222" fill="#000" fill-opacity=".37" rx="52.089" ry=".276"/></g><path fill="url(#paint2_radial)" d="M10.149 42.38a6.94 6.94 0 100-13.88 6.94 6.94 0 000 13.88z"/><path fill="url(#paint3_radial)" d="M6.134 35.102c-1.257-.774-1.572-2.54-.701-3.918.846-1.378 2.563-1.886 3.82-1.112 1.258.774 1.573 2.54.702 3.918-.87 1.402-2.588 1.886-3.82 1.112z" opacity=".5"/><path fill="url(#paint4_radial)" d="M105.536 74.29a5.297 5.297 0 100-10.594 5.297 5.297 0 000 10.595z"/><path fill="url(#paint5_radial)" d="M102.472 68.735c-.96-.59-1.2-1.938-.536-2.99.646-1.052 1.957-1.44 2.917-.85.96.592 1.2 1.939.535 2.991-.664 1.07-1.975 1.44-2.916.85z" opacity=".5"/><g filter="url(#filter1_dii)"><path fill="#FFE177" fill-rule="evenodd" d="M45.214 90.268c-.63 1.458-2.677 1.518-3.392.098l-4.16-8.267a1.873 1.873 0 00-2.206-.953l-8.873 2.635c-1.524.452-2.882-1.08-2.252-2.538l17.834-41.266a1.873 1.873 0 012.461-.976l17.445 7.54a1.87 1.87 0 01.976 2.46L45.214 90.269z" clip-rule="evenodd"/></g><g filter="url(#filter2_dii)"><path fill="#FFE177" fill-rule="evenodd" d="M69.923 90.268c.63 1.459 2.677 1.518 3.392.099l4.16-8.268a1.872 1.872 0 012.206-.953l8.874 2.635c1.523.452 2.882-1.08 2.252-2.538L72.973 39.977a1.872 1.872 0 00-2.462-.976l-17.445 7.54a1.873 1.873 0 00-.977 2.46l17.834 41.267z" clip-rule="evenodd"/></g><g filter="url(#filter3_dii)"><path fill="#FFE177" fill-rule="evenodd" d="M85.534 25.852a1.873 1.873 0 00-1.016-1.922L59.351 11.295a1.872 1.872 0 00-1.68 0L32.505 23.93a1.873 1.873 0 00-1.015 1.922l1.224 9.14a42.304 42.304 0 0022.038 31.72l2.878 1.533c.55.293 1.211.293 1.761 0l2.877-1.532a42.313 42.313 0 0022.04-31.723l1.226-9.138z" clip-rule="evenodd"/></g><g filter="url(#filter4_ii)"><path fill="#F38421" fill-rule="evenodd" d="M81.334 27.903a1.872 1.872 0 00-1.016-1.922L59.352 15.454a1.872 1.872 0 00-1.68 0L36.703 25.98a1.872 1.872 0 00-1.016 1.922l1.009 7.525a35.777 35.777 0 0018.636 26.824l2.299 1.224c.55.293 1.21.293 1.76 0l2.297-1.224a35.78 35.78 0 0018.638-26.825l1.008-7.524z" clip-rule="evenodd"/></g><g filter="url(#filter5_dii)"><path fill="#F2F2F2" fill-rule="evenodd" d="M59.737 25.218l3.295 6.495c.143.28.417.473.733.519l7.37 1.041c.799.113 1.119 1.068.54 1.616l-5.333 5.055a.93.93 0 00-.28.84l1.26 7.138c.135.775-.699 1.365-1.415.999l-6.59-3.37a.996.996 0 00-.907 0l-6.591 3.37c-.715.366-1.55-.224-1.415-.999l1.26-7.138a.937.937 0 00-.28-.84l-5.333-5.055c-.578-.548-.26-1.503.54-1.616l7.37-1.041a.973.973 0 00.733-.519l3.296-6.495c.357-.704 1.39-.704 1.747 0z" clip-rule="evenodd"/></g><defs><filter id="filter0_f" width="106.387" height="2.761" x=".253" y="92.842" color-interpolation-filters="sRGB" filterUnits="userSpaceOnUse"><feFlood flood-opacity="0" result="BackgroundImageFix"/><feBlend in="SourceGraphic" in2="BackgroundImageFix" result="shape"/><feGaussianBlur result="effect1_foregroundBlur" stdDeviation=".552"/></filter><filter id="filter1_dii" width="48.391" height="61.912" x="19.492" y="36.975" color-interpolation-filters="sRGB" filterUnits="userSpaceOnUse"><feFlood flood-opacity="0" result="BackgroundImageFix"/><feColorMatrix in="SourceAlpha" values="0 0 0 0 0 0 0 0 0 0 0 0 0 0 0 0 0 0 127 0"/><feOffset dy="2.809"/><feGaussianBlur stdDeviation="2.341"/><feColorMatrix values="0 0 0 0 0 0 0 0 0 0 0 0 0 0 0 0 0 0 0.25 0"/><feBlend in2="BackgroundImageFix" result="effect1_dropShadow"/><feBlend in="SourceGraphic" in2="effect1_dropShadow" result="shape"/><feColorMatrix in="SourceAlpha" result="hardAlpha" values="0 0 0 0 0 0 0 0 0 0 0 0 0 0 0 0 0 0 127 0"/><feOffset dy=".655"/><feGaussianBlur stdDeviation=".14"/><feComposite in2="hardAlpha" k2="-1" k3="1" operator="arithmetic"/><feColorMatrix values="0 0 0 0 1 0 0 0 0 0.868273 0 0 0 0 0.466667 0 0 0 1 0"/><feBlend in2="shape" result="effect2_innerShadow"/><feColorMatrix in="SourceAlpha" result="hardAlpha" values="0 0 0 0 0 0 0 0 0 0 0 0 0 0 0 0 0 0 127 0"/><feOffset dx="-.094" dy="-1.123"/><feGaussianBlur stdDeviation=".281"/><feComposite in2="hardAlpha" k2="-1" k3="1" operator="arithmetic"/><feColorMatrix values="0 0 0 0 0.679167 0 0 0 0 0.540077 0 0 0 0 0.116024 0 0 0 1 0"/><feBlend in2="effect2_innerShadow" result="effect3_innerShadow"/></filter><filter id="filter2_dii" width="48.392" height="61.913" x="47.254" y="36.975" color-interpolation-filters="sRGB" filterUnits="userSpaceOnUse"><feFlood flood-opacity="0" result="BackgroundImageFix"/><feColorMatrix in="SourceAlpha" values="0 0 0 0 0 0 0 0 0 0 0 0 0 0 0 0 0 0 127 0"/><feOffset dy="2.809"/><feGaussianBlur stdDeviation="2.341"/><feColorMatrix values="0 0 0 0 0 0 0 0 0 0 0 0 0 0 0 0 0 0 0.25 0"/><feBlend in2="BackgroundImageFix" result="effect1_dropShadow"/><feBlend in="SourceGraphic" in2="effect1_dropShadow" result="shape"/><feColorMatrix in="SourceAlpha" result="hardAlpha" values="0 0 0 0 0 0 0 0 0 0 0 0 0 0 0 0 0 0 127 0"/><feOffset dy=".655"/><feGaussianBlur stdDeviation=".14"/><feComposite in2="hardAlpha" k2="-1" k3="1" operator="arithmetic"/><feColorMatrix values="0 0 0 0 1 0 0 0 0 0.868273 0 0 0 0 0.466667 0 0 0 1 0"/><feBlend in2="shape" result="effect2_innerShadow"/><feColorMatrix in="SourceAlpha" result="hardAlpha" values="0 0 0 0 0 0 0 0 0 0 0 0 0 0 0 0 0 0 127 0"/><feOffset dx="-.094" dy="-1.123"/><feGaussianBlur stdDeviation=".281"/><feComposite in2="hardAlpha" k2="-1" k3="1" operator="arithmetic"/><feColorMatrix values="0 0 0 0 0.679167 0 0 0 0 0.540077 0 0 0 0 0.116024 0 0 0 1 0"/><feBlend in2="effect2_innerShadow" result="effect3_innerShadow"/></filter><filter id="filter3_dii" width="63.44" height="66.732" x="26.791" y="9.223" color-interpolation-filters="sRGB" filterUnits="userSpaceOnUse"><feFlood flood-opacity="0" result="BackgroundImageFix"/><feColorMatrix in="SourceAlpha" values="0 0 0 0 0 0 0 0 0 0 0 0 0 0 0 0 0 0 127 0"/><feOffset dy="2.809"/><feGaussianBlur stdDeviation="2.341"/><feColorMatrix values="0 0 0 0 0 0 0 0 0 0 0 0 0 0 0 0 0 0 0.25 0"/><feBlend in2="BackgroundImageFix" result="effect1_dropShadow"/><feBlend in="SourceGraphic" in2="effect1_dropShadow" result="shape"/><feColorMatrix in="SourceAlpha" result="hardAlpha" values="0 0 0 0 0 0 0 0 0 0 0 0 0 0 0 0 0 0 127 0"/><feOffset dy=".655"/><feGaussianBlur stdDeviation=".14"/><feComposite in2="hardAlpha" k2="-1" k3="1" operator="arithmetic"/><feColorMatrix values="0 0 0 0 1 0 0 0 0 0.868273 0 0 0 0 0.466667 0 0 0 1 0"/><feBlend in2="shape" result="effect2_innerShadow"/><feColorMatrix in="SourceAlpha" result="hardAlpha" values="0 0 0 0 0 0 0 0 0 0 0 0 0 0 0 0 0 0 127 0"/><feOffset dx="-.094" dy="-1.123"/><feGaussianBlur stdDeviation=".281"/><feComposite in2="hardAlpha" k2="-1" k3="1" operator="arithmetic"/><feColorMatrix values="0 0 0 0 0.679167 0 0 0 0 0.540077 0 0 0 0 0.116024 0 0 0 1 0"/><feBlend in2="effect2_innerShadow" result="effect3_innerShadow"/></filter><filter id="filter4_ii" width="45.774" height="49.284" x="35.577" y="14.693" color-interpolation-filters="sRGB" filterUnits="userSpaceOnUse"><feFlood flood-opacity="0" result="BackgroundImageFix"/><feBlend in="SourceGraphic" in2="BackgroundImageFix" result="shape"/><feColorMatrix in="SourceAlpha" result="hardAlpha" values="0 0 0 0 0 0 0 0 0 0 0 0 0 0 0 0 0 0 127 0"/><feOffset dy=".655"/><feGaussianBlur stdDeviation=".14"/><feComposite in2="hardAlpha" k2="-1" k3="1" operator="arithmetic"/><feColorMatrix values="0 0 0 0 1 0 0 0 0 0.802632 0 0 0 0 0.625 0 0 0 1 0"/><feBlend in2="shape" result="effect1_innerShadow"/><feColorMatrix in="SourceAlpha" result="hardAlpha" values="0 0 0 0 0 0 0 0 0 0 0 0 0 0 0 0 0 0 127 0"/><feOffset dx="-.094" dy="-1.123"/><feGaussianBlur stdDeviation=".281"/><feComposite in2="hardAlpha" k2="-1" k3="1" operator="arithmetic"/><feColorMatrix values="0 0 0 0 0.7875 0 0 0 0 0.373835 0 0 0 0 0.00656247 0 0 0 1 0"/><feBlend in2="effect1_innerShadow" result="effect2_innerShadow"/></filter><filter id="filter5_dii" width="39.322" height="37.449" x="39.202" y="21.881" color-interpolation-filters="sRGB" filterUnits="userSpaceOnUse"><feFlood flood-opacity="0" result="BackgroundImageFix"/><feColorMatrix in="SourceAlpha" values="0 0 0 0 0 0 0 0 0 0 0 0 0 0 0 0 0 0 127 0"/><feOffset dy="3.745"/><feGaussianBlur stdDeviation="3.277"/><feColorMatrix values="0 0 0 0 0 0 0 0 0 0 0 0 0 0 0 0 0 0 0.25 0"/><feBlend in2="BackgroundImageFix" result="effect1_dropShadow"/><feBlend in="SourceGraphic" in2="effect1_dropShadow" result="shape"/><feColorMatrix in="SourceAlpha" result="hardAlpha" values="0 0 0 0 0 0 0 0 0 0 0 0 0 0 0 0 0 0 127 0"/><feOffset dy=".843"/><feGaussianBlur stdDeviation=".14"/><feComposite in2="hardAlpha" k2="-1" k3="1" operator="arithmetic"/><feColorMatrix values="0 0 0 0 1 0 0 0 0 1 0 0 0 0 1 0 0 0 1 0"/><feBlend in2="shape" result="effect2_innerShadow"/><feColorMatrix in="SourceAlpha" result="hardAlpha" values="0 0 0 0 0 0 0 0 0 0 0 0 0 0 0 0 0 0 127 0"/><feOffset dx="-.094" dy="-1.123"/><feGaussianBlur stdDeviation=".281"/><feComposite in2="hardAlpha" k2="-1" k3="1" operator="arithmetic"/><feColorMatrix values="0 0 0 0 0.741176 0 0 0 0 0.741176 0 0 0 0 0.741176 0 0 0 1 0"/><feBlend in2="effect2_innerShadow" result="effect3_innerShadow"/></filter><radialGradient id="paint2_radial" cx="0" cy="0" r="1" gradientTransform="rotate(-15.177 125.914 -9.378) scale(13.2354)" gradientUnits="userSpaceOnUse"><stop stop-color="#FFF1CF"/><stop offset=".188" stop-color="#FFE4A2"/><stop offset=".318" stop-color="#FFD364"/><stop offset=".49" stop-color="#FFD364"/><stop offset=".651" stop-color="#FFC73A"/><stop offset=".948" stop-color="#D09500"/></radialGradient><radialGradient id="paint3_radial" cx="0" cy="0" r="1" gradientTransform="matrix(-1.53127 2.46115 -2.24137 -1.39454 7.676 32.607)" gradientUnits="userSpaceOnUse"><stop stop-color="#fff"/><stop offset=".694" stop-color="#fff" stop-opacity="0"/></radialGradient><radialGradient id="paint4_radial" cx="0" cy="0" r="1" gradientTransform="rotate(-15.177 302.414 -353.194) scale(10.1021)" gradientUnits="userSpaceOnUse"><stop stop-color="#E6C6FF"/><stop offset=".188" stop-color="#C07DF5"/><stop offset=".318" stop-color="#BE6FFC"/><stop offset=".49" stop-color="#B56AF0"/><stop offset=".651" stop-color="#A745F4"/><stop offset=".948" stop-color="#9F3DED"/></radialGradient><radialGradient id="paint5_radial" cx="0" cy="0" r="1" gradientTransform="rotate(121.889 33.26 62.208) scale(2.21243 2.01487)" gradientUnits="userSpaceOnUse"><stop stop-color="#fff"/><stop offset=".694" stop-color="#fff" stop-opacity="0"/></radialGradient><linearGradient id="paint0_linear" x1="57.569" x2="57.569" y1=".361" y2="109.083" gradientUnits="userSpaceOnUse"><stop stop-color="#B5EFFF"/><stop offset="1" stop-color="#E7F8FE"/></linearGradient><linearGradient id="paint1_linear" x1="56.882" x2="56.882" y1=".361" y2="108.448" gradientUnits="userSpaceOnUse"><stop stop-color="#B5EFFF"/><stop offset="1" stop-color="#EDFBFF"/></linearGradient></defs></svg>