<svg width="128" height="108" viewBox="0 0 128 108" fill="none" xmlns="http://www.w3.org/2000/svg">
<path d="M34.8008 0.949219V6.99922" stroke="#91A1B0" stroke-width="1.2" stroke-linecap="round" stroke-linejoin="round"/>
<path d="M24.1602 5.2793L28.9602 8.9693" stroke="#91A1B0" stroke-width="1.2" stroke-linecap="round" stroke-linejoin="round"/>
<path d="M121.792 107.26H127.182M92.3716 107.26H115.952M0.601562 107.26H86.7716" stroke="#91A1B0" stroke-width="1.2" stroke-linecap="round" stroke-linejoin="round"/>
<path opacity="0.2" d="M64.8016 100.81C92.8016 100.81 115.492 78.24 115.492 50.41C115.492 22.58 92.7916 0 64.8016 0C36.8116 0 14.1016 22.57 14.1016 50.4C14.1016 78.23 36.8016 100.8 64.7916 100.8L64.8016 100.81Z" fill="#BEC6D2"/>
<path d="M51.4431 74.9478C50.1475 74.5183 49.4431 73.1154 49.8726 71.8198L65.7525 23.9157C66.182 22.62 67.5849 21.9157 68.8805 22.3452L105.266 34.4067C106.562 34.8362 107.266 36.2391 106.837 37.5348L90.9566 85.4388C90.5271 86.7345 89.1242 87.4388 87.8286 87.0093L51.4431 74.9478Z" fill="white" stroke="#91A1B0" stroke-miterlimit="10" stroke-linecap="round" stroke-linejoin="round" stroke-dasharray="1.8 1.8"/>
<path d="M41.6898 86.4384C40.3916 86.8602 38.9929 86.1476 38.5711 84.8494L22.9758 36.8519C22.5539 35.5537 23.2666 34.155 24.5648 33.7332L61.0212 21.8878C62.3194 21.466 63.7181 22.1787 64.1399 23.4769L79.7352 71.4743C80.157 72.7725 79.4443 74.1712 78.1461 74.593L41.6898 86.4384Z" fill="white" stroke="#91A1B0" stroke-miterlimit="10" stroke-linecap="round" stroke-linejoin="round" stroke-dasharray="1.8 1.8"/>
<path d="M39.3 86.89C37.48 86.89 36 85.41 36 83.59V16.3C36 14.48 37.48 13 39.3 13H90.41C92.23 13 93.71 14.48 93.71 16.3V83.59C93.71 85.41 92.23 86.89 90.41 86.89H39.3Z" fill="white" stroke="#91A1B0" stroke-miterlimit="10" stroke-linecap="round" stroke-linejoin="round" stroke-dasharray="2.4 2.4"/>
<path d="M53.3964 61.8109C59.8028 68.2173 70.1972 68.2173 76.6036 61.8109C83.01 55.4045 83.01 45.01 76.6036 38.6036C70.1972 32.1972 59.8028 32.1972 53.3964 38.6036C46.99 45.01 46.99 55.4045 53.3964 61.8109Z" fill="#EBEFF3" stroke="#91A1B0" stroke-width="1.2" stroke-linecap="round" stroke-linejoin="round"/>
<path d="M71.5832 50.2004L58.4168 50.2004" stroke="#91A1B0" stroke-width="1.2" stroke-linecap="round" stroke-linejoin="round"/>
<path d="M65 56.7835L65 43.6172" stroke="#91A1B0" stroke-width="1.2" stroke-linecap="round" stroke-linejoin="round"/>
<path d="M21.6016 15.0391H27.6416" stroke="#91A1B0" stroke-width="1.2" stroke-linecap="round" stroke-linejoin="round"/>
</svg>
