<svg xmlns="http://www.w3.org/2000/svg" width="165" height="168" fill="none" viewBox="0 0 165 168"><mask id="fs-iv3due7era" style="mask-type:alpha" width="160" height="161" x="5" y="7" maskUnits="userSpaceOnUse"><path fill="url(#paint0_linear_25189_169578)" d="M85.155 167.073c44.097 0 79.845-35.747 79.845-79.844 0-44.097-35.748-79.845-79.845-79.845S5.311 43.132 5.311 87.229s35.747 79.844 79.844 79.844z"/></mask><g mask="url(#fs-iv3due7era)"><path fill="url(#paint1_linear_25189_169578)" d="M84.145 166.14c44.092 0 79.835-35.538 79.835-79.378S128.237 7.384 84.145 7.384c-44.091 0-79.834 35.539-79.834 79.378 0 43.84 35.743 79.378 79.834 79.378z"/><path fill="#fff" d="M109.269 50.055a3.129 3.129 0 00-3.129 3.128V251.7h201.644V50.055H109.269zM307.192 62.59h-12.041V50.548h12.041V62.59zm-99.983 75.406v-12.041h12.041v12.041h-12.041zm12.041.593v12.041h-12.041v-12.041h12.041zm-12.534-.593h-12.042v-12.041h12.042v12.041zm0 .593v12.041h-12.042v-12.041h12.042zm-12.634 12.041H182.04v-12.041h12.042v12.041zm0 .494v12.041H182.04v-12.041h12.042zm.592 0h12.042v12.041h-12.042v-12.041zm12.042 12.534V175.7h-12.042v-12.042h12.042zm.493 0h12.041V175.7h-12.041v-12.042zm0-.493v-12.041h12.041v12.041h-12.041zm12.535-12.041h12.041v12.041h-12.041v-12.041zm0-.494v-12.041h12.041v12.041h-12.041zm0-12.634v-12.041h12.041v12.041h-12.041zm0-12.534V113.42h12.041v12.042h-12.041zm-.494 0h-12.041V113.42h12.041v12.042zm-12.534 0h-12.042V113.42h12.042v12.042zm-12.634 0H182.04V113.42h12.042v12.042zm0 .493v12.041H182.04v-12.041h12.042zm-12.535 12.041h-12.041v-12.041h12.041v12.041zm0 .593v12.041h-12.041v-12.041h12.041zm0 12.535v12.041h-12.041v-12.041h12.041zm0 12.534V175.7h-12.041v-12.042h12.041zm.493 0h12.042V175.7H182.04v-12.042zm12.042 12.634v12.041H182.04v-12.041h12.042zm.592 0h12.042v12.041h-12.042v-12.041zm12.535 0h12.041v12.041h-12.041v-12.041zm12.535 0h12.041v12.041h-12.041v-12.041zm0-.592v-12.042h12.041V175.7h-12.041zm12.634-12.042h12.041V175.7h-12.041v-12.042zm0-.493v-12.041h12.041v12.041h-12.041zm0-12.535v-12.041h12.041v12.041h-12.041zm0-12.634v-12.041h12.041v12.041h-12.041zm0-12.534V113.42h12.041v12.042h-12.041zm0-12.535v-12.042h12.041v12.042h-12.041zm-.593 0h-12.041v-12.042h12.041v12.042zm-12.535 0h-12.041v-12.042h12.041v12.042zm-12.534 0h-12.042v-12.042h12.042v12.042zm-12.634 0H182.04v-12.042h12.042v12.042zm-12.535 0h-12.041v-12.042h12.041v12.042zm0 .493v12.042h-12.041V113.42h12.041zm-12.535 12.042h-12.041V113.42h12.041v12.042zm0 .493v12.041h-12.041v-12.041h12.041zm0 12.634v12.041h-12.041v-12.041h12.041zm0 12.535v12.041h-12.041v-12.041h12.041zm0 12.534V175.7h-12.041v-12.042h12.041zm0 12.634v12.041h-12.041v-12.041h12.041zm.494 0h12.041v12.041h-12.041v-12.041zm12.041 12.535v12.041h-12.041v-12.041h12.041zm.493 0h12.042v12.041H182.04v-12.041zm12.634 0h12.042v12.041h-12.042v-12.041zm12.535 0h12.041v12.041h-12.041v-12.041zm12.535 0h12.041v12.041h-12.041v-12.041zm12.634 0h12.041v12.041h-12.041v-12.041zm0-.494v-12.041h12.041v12.041h-12.041zm12.534-12.041h12.042v12.041h-12.042v-12.041zm0-.592v-12.042h12.042V175.7h-12.042zm0-12.535v-12.041h12.042v12.041h-12.042zm0-12.535v-12.041h12.042v12.041h-12.042zm0-12.634v-12.041h12.042v12.041h-12.042zm0-12.534V113.42h12.042v12.042h-12.042zm0-12.535v-12.042h12.042v12.042h-12.042zm0-12.634V88.252h12.042v12.041h-12.042zm-.493 0h-12.041V88.252h12.041v12.041zm-12.634 0h-12.041V88.252h12.041v12.041zm-12.535 0h-12.041V88.252h12.041v12.041zm-12.534 0h-12.042V88.252h12.042v12.041zm-12.634 0H182.04V88.252h12.042v12.041zm-12.535 0h-12.041V88.252h12.041v12.041zm-12.535 0h-12.041V88.252h12.041v12.041zm0 .592v12.042h-12.041v-12.042h12.041zm-12.634 12.042h-12.041v-12.042h12.041v12.042zm0 .493v12.042h-12.041V113.42h12.041zm0 12.535v12.041h-12.041v-12.041h12.041zm0 12.634v12.041h-12.041v-12.041h12.041zm0 12.535v12.041h-12.041v-12.041h12.041zm0 12.534V175.7h-12.041v-12.042h12.041zm0 12.634v12.041h-12.041v-12.041h12.041zm0 12.535v12.041h-12.041v-12.041h12.041zm.593 0h12.041v12.041h-12.041v-12.041zm12.041 12.535v12.041h-12.041v-12.041h12.041zm.494 0h12.041v12.041h-12.041v-12.041zm12.534 0h12.042v12.041H182.04v-12.041zm12.634 0h12.042v12.041h-12.042v-12.041zm12.535 0h12.041v12.041h-12.041v-12.041zm12.535 0h12.041v12.041h-12.041v-12.041zm12.634 0h12.041v12.041h-12.041v-12.041zm12.534 0h12.042v12.041h-12.042v-12.041zm0-.494v-12.041h12.042v12.041h-12.042zm12.535-12.041h12.042v12.041h-12.042v-12.041zm0-.494v-12.041h12.042v12.041h-12.042zm0-12.633v-12.042h12.042V175.7h-12.042zm0-12.535v-12.041h12.042v12.041h-12.042zm0-12.535v-12.041h12.042v12.041h-12.042zm0-12.634v-12.041h12.042v12.041h-12.042zm0-12.534V113.42h12.042v12.042h-12.042zm0-12.535v-12.042h12.042v12.042h-12.042zm0-12.634V88.252h12.042v12.041h-12.042zm0-12.535V75.717h12.042v12.041h-12.042zm-.493 0h-12.042V75.717h12.042v12.041zm-12.535 0h-12.041V75.717h12.041v12.041zm-12.634 0h-12.041V75.717h12.041v12.041zm-12.535 0h-12.041V75.717h12.041v12.041zm-12.534 0h-12.042V75.717h12.042v12.041zm-12.634 0H182.04V75.717h12.042v12.041zm-12.535 0h-12.041V75.717h12.041v12.041zm-12.535 0h-12.041V75.717h12.041v12.041zm-12.634 0h-12.041V75.717h12.041v12.041zm0 .494v12.041h-12.041V88.252h12.041zm-12.534 12.041h-12.042V88.252h12.042v12.041zm0 .592v12.042h-12.042v-12.042h12.042zm0 12.535v12.042h-12.042V113.42h12.042zm0 12.535v12.041h-12.042v-12.041h12.042zm0 12.634v12.041h-12.042v-12.041h12.042zm0 12.535v12.041h-12.042v-12.041h12.042zm0 12.534V175.7h-12.042v-12.042h12.042zm0 12.634v12.041h-12.042v-12.041h12.042zm0 12.535v12.041h-12.042v-12.041h12.042zm0 12.535v12.041h-12.042v-12.041h12.042zm.493 0h12.041v12.041h-12.041v-12.041zm12.041 12.633v12.042h-12.041v-12.042h12.041zm.593 0h12.041v12.042h-12.041v-12.042zm12.535 0h12.041v12.042h-12.041v-12.042zm12.534 0h12.042v12.042H182.04v-12.042zm12.634 0h12.042v12.042h-12.042v-12.042zm12.535 0h12.041v12.042h-12.041v-12.042zm12.535 0h12.041v12.042h-12.041v-12.042zm12.634 0h12.041v12.042h-12.041v-12.042zm12.534 0h12.042v12.042h-12.042v-12.042zm12.535 0h12.042v12.042h-12.042v-12.042zm0-.592v-12.041h12.042v12.041h-12.042zm12.634-12.041h12.041v12.041h-12.041v-12.041zm0-.494v-12.041h12.041v12.041h-12.041zm0-12.535v-12.041h12.041v12.041h-12.041zm0-12.633v-12.042h12.041V175.7h-12.041zm0-12.535v-12.041h12.041v12.041h-12.041zm0-12.535v-12.041h12.041v12.041h-12.041zm0-12.634v-12.041h12.041v12.041h-12.041zm0-12.534V113.42h12.041v12.042h-12.041zm0-12.535v-12.042h12.041v12.042h-12.041zm0-12.634V88.252h12.041v12.041h-12.041zm0-12.535V75.717h12.041v12.041h-12.041zm0-12.535V63.182h12.041v12.041h-12.041zm-.592 0h-12.042V63.182h12.042v12.041zm-12.535 0h-12.042V63.182h12.042v12.041zm-12.535 0h-12.041V63.182h12.041v12.041zm-12.634 0h-12.041V63.182h12.041v12.041zm-12.535 0h-12.041V63.182h12.041v12.041zm-12.534 0h-12.042V63.182h12.042v12.041zm-12.634 0H182.04V63.182h12.042v12.041zm-12.535 0h-12.041V63.182h12.041v12.041zm-12.535 0h-12.041V63.182h12.041v12.041zm-12.634 0h-12.041V63.182h12.041v12.041zm-12.534 0h-12.042V63.182h12.042v12.041zm0 .494v12.041h-12.042V75.717h12.042zm-12.535 12.041h-12.042V75.717h12.042v12.041zm0 .494v12.041h-12.042V88.252h12.042zm0 12.633v12.042h-12.042v-12.042h12.042zm0 12.535v12.042h-12.042V113.42h12.042zm0 12.535v12.041h-12.042v-12.041h12.042zm0 12.634v12.041h-12.042v-12.041h12.042zm0 12.535v12.041h-12.042v-12.041h12.042zm0 12.534V175.7h-12.042v-12.042h12.042zm0 12.634v12.041h-12.042v-12.041h12.042zm0 12.535v12.041h-12.042v-12.041h12.042zm0 12.535v12.041h-12.042v-12.041h12.042zm0 12.633v12.042h-12.042v-12.042h12.042zm.493 0h12.042v12.042h-12.042v-12.042zm12.042 12.535v12.042h-12.042V226.53h12.042zm.493 0h12.041v12.042h-12.041V226.53zm12.634 0h12.041v12.042h-12.041V226.53zm12.535 0h12.041v12.042h-12.041V226.53zm12.534 0h12.042v12.042H182.04V226.53zm12.634 0h12.042v12.042h-12.042V226.53zm12.535 0h12.041v12.042h-12.041V226.53zm12.535 0h12.041v12.042h-12.041V226.53zm12.634 0h12.041v12.042h-12.041V226.53zm12.534 0h12.042v12.042h-12.042V226.53zm12.535 0h12.042v12.042h-12.042V226.53zm12.634 0h12.041v12.042h-12.041V226.53zm0-.493v-12.042h12.041v12.042h-12.041zm12.535-12.042h12.041v12.042h-12.041v-12.042zm0-.592v-12.041h12.041v12.041h-12.041zm0-12.535v-12.041h12.041v12.041h-12.041zm0-12.535v-12.041h12.041v12.041h-12.041zm0-12.633v-12.042h12.041V175.7h-12.041zm0-12.535v-12.041h12.041v12.041h-12.041zm0-12.535v-12.041h12.041v12.041h-12.041zm0-12.634v-12.041h12.041v12.041h-12.041zm0-12.534V113.42h12.041v12.042h-12.041zm0-12.535v-12.042h12.041v12.042h-12.041zm0-12.634V88.252h12.041v12.041h-12.041zm0-12.535V75.717h12.041v12.041h-12.041zm0-12.535V63.182h12.041v12.041h-12.041zm0-12.633V50.548h12.041V62.59h-12.041zm-.494 0h-12.041V50.548h12.041V62.59zm-12.633 0h-12.042V50.548h12.042V62.59zm-12.535 0h-12.042V50.548h12.042V62.59zm-12.535 0h-12.041V50.548h12.041V62.59zm-12.634 0h-12.041V50.548h12.041V62.59zm-12.535 0h-12.041V50.548h12.041V62.59zm-12.534 0h-12.042V50.548h12.042V62.59zm-12.634 0H182.04V50.548h12.042V62.59zm-12.535 0h-12.041V50.548h12.041V62.59zm-12.535 0h-12.041V50.548h12.041V62.59zm-12.634 0h-12.041V50.548h12.041V62.59zm-12.534 0h-12.042V50.548h12.042V62.59zm-12.535 0h-12.042V50.548h12.042V62.59zm0 .592v12.041h-12.042V63.182h12.042zm-12.634 12.041h-12.041V63.182h12.041v12.041zm0 .494v12.041h-12.041V75.717h12.041zm0 12.535v12.041h-12.041V88.252h12.041zm0 12.633v12.042h-12.041v-12.042h12.041zm0 12.535v12.042h-12.041V113.42h12.041zm0 12.535v12.041h-12.041v-12.041h12.041zm0 12.634v12.041h-12.041v-12.041h12.041zm0 12.535v12.041h-12.041v-12.041h12.041zm0 12.534V175.7h-12.041v-12.042h12.041zm0 12.634v12.041h-12.041v-12.041h12.041zm0 12.535v12.041h-12.041v-12.041h12.041zm0 12.535v12.041h-12.041v-12.041h12.041zm0 12.633v12.042h-12.041v-12.042h12.041zm0 12.535v12.042h-12.041V226.53h12.041zm.592 0h12.042v12.042h-12.042V226.53zm12.042 12.535v12.042h-12.042v-12.042h12.042zm.493 0h12.042v12.042h-12.042v-12.042zm12.535 0h12.041v12.042h-12.041v-12.042zm12.634 0h12.041v12.042h-12.041v-12.042zm12.535 0h12.041v12.042h-12.041v-12.042zm12.534 0h12.042v12.042H182.04v-12.042zm12.634 0h12.042v12.042h-12.042v-12.042zm12.535 0h12.041v12.042h-12.041v-12.042zm12.535 0h12.041v12.042h-12.041v-12.042zm12.634 0h12.041v12.042h-12.041v-12.042zm12.534 0h12.042v12.042h-12.042v-12.042zm12.535 0h12.042v12.042h-12.042v-12.042zm12.634 0h12.041v12.042h-12.041v-12.042zm12.535 0h12.041v12.042h-12.041v-12.042zm0-.493V226.53h12.041v12.042h-12.041zm12.535-12.042h12.041v12.042h-12.041V226.53zm0-.493v-12.042h12.041v12.042h-12.041zm0-12.634v-12.041h12.041v12.041h-12.041zm0-12.535v-12.041h12.041v12.041h-12.041zm0-12.535v-12.041h12.041v12.041h-12.041zm0-12.633v-12.042h12.041V175.7h-12.041zm0-12.535v-12.041h12.041v12.041h-12.041zm0-12.535v-12.041h12.041v12.041h-12.041zm0-12.634v-12.041h12.041v12.041h-12.041zm0-12.534V113.42h12.041v12.042h-12.041zm0-12.535v-12.042h12.041v12.042h-12.041zm0-12.634V88.252h12.041v12.041h-12.041zm0-12.535V75.717h12.041v12.041h-12.041zm0-12.535V63.182h12.041v12.041h-12.041zM118.675 50.548V62.59h-12.041v-8.913c0-1.728 1.4-3.129 3.128-3.129h8.913zm-12.041 188.517h12.041v12.042h-12.041v-12.042zm188.517 12.042v-12.042h12.041v12.042h-12.041z"/></g><g filter="url(#filter0_f_25189_169578)"><ellipse cx="79.1" cy="145.245" fill="#000" fill-opacity=".37" rx="76.508" ry=".405"/></g><path fill="url(#paint2_radial_25189_169578)" d="M80.526 21.374c5.63 0 10.194-4.564 10.194-10.194C90.72 5.55 86.156.986 80.526.986c-5.63 0-10.194 4.564-10.194 10.194 0 5.63 4.564 10.194 10.194 10.194z"/><path fill="url(#paint3_radial_25189_169578)" d="M74.63 10.683c-1.847-1.136-2.308-3.73-1.03-5.754 1.243-2.024 3.765-2.77 5.612-1.634 1.847 1.137 2.309 3.73 1.03 5.754-1.278 2.06-3.8 2.771-5.612 1.634z" opacity=".5"/><path fill="url(#paint4_radial_25189_169578)" d="M10.39 112.877c5.738 0 10.39-4.651 10.39-10.389 0-5.739-4.652-10.39-10.39-10.39S0 96.749 0 102.488c0 5.738 4.652 10.389 10.39 10.389z"/><path fill="url(#paint5_radial_25189_169578)" d="M4.38 101.981c-1.882-1.158-2.353-3.801-1.05-5.865 1.267-2.063 3.838-2.823 5.72-1.665 1.883 1.159 2.353 3.801 1.05 5.865-1.303 2.099-3.873 2.823-5.72 1.665z" opacity=".5"/><g filter="url(#filter1_iii_25189_169578)"><path fill="#3687EC" d="M140.791 26.56H26.396c-2.22 0-4.019 2.519-4.019 5.625v99.68c0 3.106 1.8 5.624 4.02 5.624H140.79c2.22 0 4.019-2.518 4.019-5.624v-99.68c0-3.106-1.799-5.625-4.019-5.625z"/></g><g filter="url(#filter2_dii_25189_169578)"><rect width="110.293" height="81.521" x="28.771" y="44.144" fill="url(#paint6_linear_25189_169578)" rx="1.877"/></g><g filter="url(#filter3_ii_25189_169578)"><path fill="#EAEAEA" d="M30.147 36.75a1.804 1.804 0 100-3.606 1.804 1.804 0 000 3.607z"/></g><g filter="url(#filter4_ii_25189_169578)"><path fill="#EAEAEA" d="M42.4 36.75a1.804 1.804 0 100-3.607 1.804 1.804 0 000 3.608z"/></g><g filter="url(#filter5_ii_25189_169578)"><path fill="#EAEAEA" d="M36.274 36.75a1.804 1.804 0 100-3.607 1.804 1.804 0 000 3.608z"/></g><g filter="url(#filter6_di_25189_169578)"><path fill="#FB7558" d="M82.515 51.967c.768-1.34 2.702-1.34 3.47 0l34.112 59.514c.764 1.333-.198 2.995-1.735 2.995H50.138c-1.537 0-2.5-1.662-1.735-2.995l34.112-59.514z"/></g><g filter="url(#filter7_d_25189_169578)"><path fill="#fff" d="M84.695 92.896a2.67 2.67 0 002.67-2.642l.207-19.224a2.877 2.877 0 10-5.754 0l.207 19.224a2.67 2.67 0 002.67 2.642zm-.022 3.711c-1.732 0-3.153 1.485-3.153 3.387 0 1.809 1.421 3.294 3.153 3.294 1.776 0 3.241-1.485 3.241-3.294 0-1.902-1.465-3.387-3.241-3.387z"/></g><g filter="url(#filter8_i_25189_169578)"><path fill="url(#paint7_linear_25189_169578)" d="M137.141 116.083c-.049-.013-.097-.021-.138-.052-1.149-.858 2.085-15.289 2.39-16.36 1.542-5.403 4.095-10.66 8.203-14.516 2.906-2.73 10.672-8.07 14.702-4.931 3.396 2.65.214 9.301-1.351 12.083-2.807 4.947-6.943 8.954-10.475 13.341-2.107 2.624-4.224 5.298-6.332 7.922-.149.198-1.422 2.031-2.227 2.994-.373.447-.916.511-1.481.366l-3.291-.847z"/></g><g filter="url(#filter9_i_25189_169578)"><path fill="url(#paint8_linear_25189_169578)" d="M141.79 120.419c1.722.376 3.256-1.083 2.902-2.812-1.967-9.596-8.525-34.812-22.442-30.227-12.623 4.204 14.491 28.963 18.436 32.484.318.284.688.464 1.104.555z"/></g><path fill="#77FFE4" fill-opacity=".2" d="M126.033 92.39s16.247 21.516 16.433 26.067L126.033 92.39zM157.494 84.466s-13.35 17.28-14.802 24.95l14.802-24.95z"/><path fill="url(#paint9_linear_25189_169578)" d="M125.158 115.051a2.348 2.348 0 012.339-2.572h24.663a2.35 2.35 0 012.339 2.572l-2.703 28.445a2.35 2.35 0 01-2.339 2.128H130.2a2.349 2.349 0 01-2.339-2.128l-2.703-28.445z"/><g filter="url(#filter10_i_25189_169578)"><rect width="31.985" height="7.989" x="123.836" y="112.479" fill="url(#paint10_linear_25189_169578)" rx="1.175"/></g><defs><filter id="filter0_f_25189_169578" width="155.044" height="2.84" x="1.578" y="143.825" color-interpolation-filters="sRGB" filterUnits="userSpaceOnUse"><feFlood flood-opacity="0" result="BackgroundImageFix"/><feBlend in="SourceGraphic" in2="BackgroundImageFix" result="shape"/><feGaussianBlur result="effect1_foregroundBlur_25189_169578" stdDeviation=".507"/></filter><filter id="filter1_iii_25189_169578" width="122.916" height="111.751" x="21.894" y="26.27" color-interpolation-filters="sRGB" filterUnits="userSpaceOnUse"><feFlood flood-opacity="0" result="BackgroundImageFix"/><feBlend in="SourceGraphic" in2="BackgroundImageFix" result="shape"/><feColorMatrix in="SourceAlpha" result="hardAlpha" values="0 0 0 0 0 0 0 0 0 0 0 0 0 0 0 0 0 0 127 0"/><feOffset dy="-.29"/><feGaussianBlur stdDeviation=".29"/><feComposite in2="hardAlpha" k2="-1" k3="1" operator="arithmetic"/><feColorMatrix values="0 0 0 0 0.089132 0 0 0 0 0.328429 0 0 0 0 0.629167 0 0 0 1 0"/><feBlend in2="shape" result="effect1_innerShadow_25189_169578"/><feColorMatrix in="SourceAlpha" result="hardAlpha" values="0 0 0 0 0 0 0 0 0 0 0 0 0 0 0 0 0 0 127 0"/><feOffset dy=".532"/><feGaussianBlur stdDeviation=".266"/><feComposite in2="hardAlpha" k2="-1" k3="1" operator="arithmetic"/><feColorMatrix values="0 0 0 0 0.641667 0 0 0 0 0.8495 0 0 0 0 1 0 0 0 1 0"/><feBlend in2="effect1_innerShadow_25189_169578" result="effect2_innerShadow_25189_169578"/><feColorMatrix in="SourceAlpha" result="hardAlpha" values="0 0 0 0 0 0 0 0 0 0 0 0 0 0 0 0 0 0 127 0"/><feOffset dx="-.484"/><feGaussianBlur stdDeviation=".242"/><feComposite in2="hardAlpha" k2="-1" k3="1" operator="arithmetic"/><feColorMatrix values="0 0 0 0 0 0 0 0 0 0 0 0 0 0 0 0 0 0 0.25 0"/><feBlend in2="effect2_innerShadow_25189_169578" result="effect3_innerShadow_25189_169578"/></filter><filter id="filter2_dii_25189_169578" width="114.047" height="85.275" x="26.894" y="43.518" color-interpolation-filters="sRGB" filterUnits="userSpaceOnUse"><feFlood flood-opacity="0" result="BackgroundImageFix"/><feColorMatrix in="SourceAlpha" result="hardAlpha" values="0 0 0 0 0 0 0 0 0 0 0 0 0 0 0 0 0 0 127 0"/><feOffset dy="1.252"/><feGaussianBlur stdDeviation=".939"/><feColorMatrix values="0 0 0 0 0 0 0 0 0 0 0 0 0 0 0 0 0 0 0.25 0"/><feBlend in2="BackgroundImageFix" result="effect1_dropShadow_25189_169578"/><feBlend in="SourceGraphic" in2="effect1_dropShadow_25189_169578" result="shape"/><feColorMatrix in="SourceAlpha" result="hardAlpha" values="0 0 0 0 0 0 0 0 0 0 0 0 0 0 0 0 0 0 127 0"/><feOffset dx=".626" dy=".688"/><feGaussianBlur stdDeviation=".375"/><feComposite in2="hardAlpha" k2="-1" k3="1" operator="arithmetic"/><feColorMatrix values="0 0 0 0 1 0 0 0 0 1 0 0 0 0 1 0 0 0 1 0"/><feBlend in2="shape" result="effect2_innerShadow_25189_169578"/><feColorMatrix in="SourceAlpha" result="hardAlpha" values="0 0 0 0 0 0 0 0 0 0 0 0 0 0 0 0 0 0 127 0"/><feOffset dx="-.626" dy="-.375"/><feGaussianBlur stdDeviation=".063"/><feComposite in2="hardAlpha" k2="-1" k3="1" operator="arithmetic"/><feColorMatrix values="0 0 0 0 0.833333 0 0 0 0 0.833333 0 0 0 0 0.833333 0 0 0 1 0"/><feBlend in2="effect2_innerShadow_25189_169578" result="effect3_innerShadow_25189_169578"/></filter><filter id="filter3_ii_25189_169578" width="3.752" height="3.752" x="28.247" y="33.047" color-interpolation-filters="sRGB" filterUnits="userSpaceOnUse"><feFlood flood-opacity="0" result="BackgroundImageFix"/><feBlend in="SourceGraphic" in2="BackgroundImageFix" result="shape"/><feColorMatrix in="SourceAlpha" result="hardAlpha" values="0 0 0 0 0 0 0 0 0 0 0 0 0 0 0 0 0 0 127 0"/><feOffset dx=".097" dy=".097"/><feGaussianBlur stdDeviation=".024"/><feComposite in2="hardAlpha" k2="-1" k3="1" operator="arithmetic"/><feColorMatrix values="0 0 0 0 1 0 0 0 0 1 0 0 0 0 1 0 0 0 1 0"/><feBlend in2="shape" result="effect1_innerShadow_25189_169578"/><feColorMatrix in="SourceAlpha" result="hardAlpha" values="0 0 0 0 0 0 0 0 0 0 0 0 0 0 0 0 0 0 127 0"/><feOffset dx="-.097" dy="-.097"/><feGaussianBlur stdDeviation=".048"/><feComposite in2="hardAlpha" k2="-1" k3="1" operator="arithmetic"/><feColorMatrix values="0 0 0 0 0.658333 0 0 0 0 0.658333 0 0 0 0 0.658333 0 0 0 1 0"/><feBlend in2="effect1_innerShadow_25189_169578" result="effect2_innerShadow_25189_169578"/></filter><filter id="filter4_ii_25189_169578" width="3.752" height="3.752" x="40.499" y="33.047" color-interpolation-filters="sRGB" filterUnits="userSpaceOnUse"><feFlood flood-opacity="0" result="BackgroundImageFix"/><feBlend in="SourceGraphic" in2="BackgroundImageFix" result="shape"/><feColorMatrix in="SourceAlpha" result="hardAlpha" values="0 0 0 0 0 0 0 0 0 0 0 0 0 0 0 0 0 0 127 0"/><feOffset dx=".097" dy=".097"/><feGaussianBlur stdDeviation=".024"/><feComposite in2="hardAlpha" k2="-1" k3="1" operator="arithmetic"/><feColorMatrix values="0 0 0 0 1 0 0 0 0 1 0 0 0 0 1 0 0 0 1 0"/><feBlend in2="shape" result="effect1_innerShadow_25189_169578"/><feColorMatrix in="SourceAlpha" result="hardAlpha" values="0 0 0 0 0 0 0 0 0 0 0 0 0 0 0 0 0 0 127 0"/><feOffset dx="-.097" dy="-.097"/><feGaussianBlur stdDeviation=".048"/><feComposite in2="hardAlpha" k2="-1" k3="1" operator="arithmetic"/><feColorMatrix values="0 0 0 0 0.658333 0 0 0 0 0.658333 0 0 0 0 0.658333 0 0 0 1 0"/><feBlend in2="effect1_innerShadow_25189_169578" result="effect2_innerShadow_25189_169578"/></filter><filter id="filter5_ii_25189_169578" width="3.752" height="3.752" x="34.373" y="33.047" color-interpolation-filters="sRGB" filterUnits="userSpaceOnUse"><feFlood flood-opacity="0" result="BackgroundImageFix"/><feBlend in="SourceGraphic" in2="BackgroundImageFix" result="shape"/><feColorMatrix in="SourceAlpha" result="hardAlpha" values="0 0 0 0 0 0 0 0 0 0 0 0 0 0 0 0 0 0 127 0"/><feOffset dx=".097" dy=".097"/><feGaussianBlur stdDeviation=".024"/><feComposite in2="hardAlpha" k2="-1" k3="1" operator="arithmetic"/><feColorMatrix values="0 0 0 0 1 0 0 0 0 1 0 0 0 0 1 0 0 0 1 0"/><feBlend in2="shape" result="effect1_innerShadow_25189_169578"/><feColorMatrix in="SourceAlpha" result="hardAlpha" values="0 0 0 0 0 0 0 0 0 0 0 0 0 0 0 0 0 0 127 0"/><feOffset dx="-.097" dy="-.097"/><feGaussianBlur stdDeviation=".048"/><feComposite in2="hardAlpha" k2="-1" k3="1" operator="arithmetic"/><feColorMatrix values="0 0 0 0 0.658333 0 0 0 0 0.658333 0 0 0 0 0.658333 0 0 0 1 0"/><feBlend in2="effect1_innerShadow_25189_169578" result="effect2_innerShadow_25189_169578"/></filter><filter id="filter6_di_25189_169578" width="78.23" height="69.515" x="46.135" y="49.961" color-interpolation-filters="sRGB" filterUnits="userSpaceOnUse"><feFlood flood-opacity="0" result="BackgroundImageFix"/><feColorMatrix in="SourceAlpha" result="hardAlpha" values="0 0 0 0 0 0 0 0 0 0 0 0 0 0 0 0 0 0 127 0"/><feOffset dx="1" dy="2"/><feGaussianBlur stdDeviation="1.5"/><feColorMatrix values="0 0 0 0 0 0 0 0 0 0 0 0 0 0 0 0 0 0 0.25 0"/><feBlend in2="BackgroundImageFix" result="effect1_dropShadow_25189_169578"/><feBlend in="SourceGraphic" in2="effect1_dropShadow_25189_169578" result="shape"/><feColorMatrix in="SourceAlpha" result="hardAlpha" values="0 0 0 0 0 0 0 0 0 0 0 0 0 0 0 0 0 0 127 0"/><feOffset dx="-.155" dy="-.464"/><feGaussianBlur stdDeviation=".232"/><feComposite in2="hardAlpha" k2="-1" k3="1" operator="arithmetic"/><feColorMatrix values="0 0 0 0 0.6875 0 0 0 0 0.207795 0 0 0 0 0.177604 0 0 0 1 0"/><feBlend in2="shape" result="effect2_innerShadow_25189_169578"/></filter><filter id="filter7_d_25189_169578" width="8.415" height="37.187" x="80.51" y="68.122" color-interpolation-filters="sRGB" filterUnits="userSpaceOnUse"><feFlood flood-opacity="0" result="BackgroundImageFix"/><feColorMatrix in="SourceAlpha" result="hardAlpha" values="0 0 0 0 0 0 0 0 0 0 0 0 0 0 0 0 0 0 127 0"/><feOffset dy="1.011"/><feGaussianBlur stdDeviation=".505"/><feColorMatrix values="0 0 0 0 0 0 0 0 0 0 0 0 0 0 0 0 0 0 0.25 0"/><feBlend in2="BackgroundImageFix" result="effect1_dropShadow_25189_169578"/><feBlend in="SourceGraphic" in2="effect1_dropShadow_25189_169578" result="shape"/></filter><filter id="filter8_i_25189_169578" width="28.176" height="38.165" x="136.757" y="78.834" color-interpolation-filters="sRGB" filterUnits="userSpaceOnUse"><feFlood flood-opacity="0" result="BackgroundImageFix"/><feBlend in="SourceGraphic" in2="BackgroundImageFix" result="shape"/><feColorMatrix in="SourceAlpha" result="hardAlpha" values="0 0 0 0 0 0 0 0 0 0 0 0 0 0 0 0 0 0 127 0"/><feOffset dx="1.127" dy="-.431"/><feGaussianBlur stdDeviation="1.469"/><feComposite in2="hardAlpha" k2="-1" k3="1" operator="arithmetic"/><feColorMatrix values="0 0 0 0 0.113056 0 0 0 0 0.616667 0 0 0 0 0.58645 0 0 0 1 0"/><feBlend in2="shape" result="effect1_innerShadow_25189_169578"/></filter><filter id="filter9_i_25189_169578" width="26.944" height="34.081" x="118.926" y="86.397" color-interpolation-filters="sRGB" filterUnits="userSpaceOnUse"><feFlood flood-opacity="0" result="BackgroundImageFix"/><feBlend in="SourceGraphic" in2="BackgroundImageFix" result="shape"/><feColorMatrix in="SourceAlpha" result="hardAlpha" values="0 0 0 0 0 0 0 0 0 0 0 0 0 0 0 0 0 0 127 0"/><feOffset dx="1.127" dy="-.431"/><feGaussianBlur stdDeviation="1.469"/><feComposite in2="hardAlpha" k2="-1" k3="1" operator="arithmetic"/><feColorMatrix values="0 0 0 0 0.0996528 0 0 0 0 0.683333 0 0 0 0 0.555806 0 0 0 1 0"/><feBlend in2="shape" result="effect1_innerShadow_25189_169578"/></filter><filter id="filter10_i_25189_169578" width="32.455" height="8.342" x="123.836" y="112.126" color-interpolation-filters="sRGB" filterUnits="userSpaceOnUse"><feFlood flood-opacity="0" result="BackgroundImageFix"/><feBlend in="SourceGraphic" in2="BackgroundImageFix" result="shape"/><feColorMatrix in="SourceAlpha" result="hardAlpha" values="0 0 0 0 0 0 0 0 0 0 0 0 0 0 0 0 0 0 127 0"/><feOffset dx=".47" dy="-.353"/><feGaussianBlur stdDeviation=".411"/><feComposite in2="hardAlpha" k2="-1" k3="1" operator="arithmetic"/><feColorMatrix values="0 0 0 0 0.833333 0 0 0 0 0.604343 0 0 0 0 0.0555555 0 0 0 1 0"/><feBlend in2="shape" result="effect1_innerShadow_25189_169578"/></filter><linearGradient id="paint0_linear_25189_169578" x1="85.155" x2="85.155" y1="7.384" y2="167.073" gradientUnits="userSpaceOnUse"><stop stop-color="#B5EFFF"/><stop offset="1" stop-color="#E7F8FE"/></linearGradient><linearGradient id="paint1_linear_25189_169578" x1="84.145" x2="84.145" y1="7.384" y2="166.14" gradientUnits="userSpaceOnUse"><stop stop-color="#B5EFFF"/><stop offset="1" stop-color="#EDFBFF"/></linearGradient><linearGradient id="paint6_linear_25189_169578" x1="37.954" x2="60.213" y1="44.144" y2="131.691" gradientUnits="userSpaceOnUse"><stop stop-color="#F9F9F9"/><stop offset="1" stop-color="#F8F8F8"/></linearGradient><linearGradient id="paint7_linear_25189_169578" x1="167.726" x2="137.213" y1="79.855" y2="106.863" gradientUnits="userSpaceOnUse"><stop stop-color="#BAFFF1" stop-opacity=".26"/><stop offset=".682" stop-color="#4DC7AE"/><stop offset=".969" stop-color="#06896F"/></linearGradient><linearGradient id="paint8_linear_25189_169578" x1="154.323" x2="135.608" y1="90.506" y2="121.572" gradientUnits="userSpaceOnUse"><stop stop-color="#B7FDEF"/><stop offset=".682" stop-color="#09B794"/><stop offset=".969" stop-color="#7EE0CC"/></linearGradient><linearGradient id="paint9_linear_25189_169578" x1="154.744" x2="127.042" y1="134.299" y2="134.299" gradientUnits="userSpaceOnUse"><stop offset=".099" stop-color="#FFEEC5"/><stop offset=".607" stop-color="#FACD63"/><stop offset=".839" stop-color="#EAAF23"/><stop offset=".984" stop-color="#EDB52F"/></linearGradient><linearGradient id="paint10_linear_25189_169578" x1="155.821" x2="126.119" y1="117.738" y2="117.738" gradientUnits="userSpaceOnUse"><stop offset=".099" stop-color="#FFEEC5"/><stop offset=".607" stop-color="#FCBD27"/><stop offset=".984" stop-color="#EFB222"/></linearGradient><radialGradient id="paint2_radial_25189_169578" cx="0" cy="0" r="1" gradientTransform="rotate(-15.177 64.35 -280.486) scale(19.4399)" gradientUnits="userSpaceOnUse"><stop stop-color="#FFF1CF"/><stop offset=".188" stop-color="#FFE4A2"/><stop offset=".318" stop-color="#FFD364"/><stop offset=".49" stop-color="#FFD364"/><stop offset=".651" stop-color="#FFC73A"/><stop offset=".948" stop-color="#D09500"/></radialGradient><radialGradient id="paint3_radial_25189_169578" cx="0" cy="0" r="1" gradientTransform="matrix(-2.2491 3.61489 -3.29209 -2.04827 76.895 7.019)" gradientUnits="userSpaceOnUse"><stop stop-color="#fff"/><stop offset=".694" stop-color="#fff" stop-opacity="0"/></radialGradient><radialGradient id="paint4_radial_25189_169578" cx="0" cy="0" r="1" gradientTransform="rotate(-15.177 371.616 28.7) scale(19.8134)" gradientUnits="userSpaceOnUse"><stop stop-color="#E6C6FF"/><stop offset=".188" stop-color="#C07DF5"/><stop offset=".318" stop-color="#BE6FFC"/><stop offset=".49" stop-color="#B56AF0"/><stop offset=".651" stop-color="#A745F4"/><stop offset=".948" stop-color="#9F3DED"/></radialGradient><radialGradient id="paint5_radial_25189_169578" cx="0" cy="0" r="1" gradientTransform="rotate(121.889 -23.947 50.981) scale(4.33925 3.95177)" gradientUnits="userSpaceOnUse"><stop stop-color="#fff"/><stop offset=".694" stop-color="#fff" stop-opacity="0"/></radialGradient></defs></svg>