<svg xmlns="http://www.w3.org/2000/svg" width="118" height="99" fill="none" viewBox="0 0 118 99"><mask id="fs-7l70e4hbca" style="mask-type:alpha" width="99" height="99" x="7" y="0" maskUnits="userSpaceOnUse"><path fill="url(#paint0_linear_21770_38446)" d="M56.55 98.448c27.185 0 49.224-22.038 49.224-49.224C105.774 22.038 83.735 0 56.55 0 29.364 0 7.326 22.038 7.326 49.224c0 27.186 22.038 49.224 49.224 49.224z"/></mask><g mask="url(#fs-7l70e4hbca)"><path fill="url(#paint1_linear_21770_38446)" d="M55.927 97.873c27.182 0 49.217-21.91 49.217-48.937C105.144 21.91 83.109 0 55.927 0 28.744 0 6.709 21.91 6.709 48.936c0 27.027 22.035 48.937 49.218 48.937z"/><path fill="#fff" d="M74.486 26.306a5 5 0 00-5 5v119.312H193.8V26.306H74.486zm118.948 7.727h-7.423V26.61h7.423v7.423zm-61.639 46.488v-7.423h7.423v7.423h-7.423zm7.423.365v7.424h-7.423v-7.424h7.423zm-7.727-.365h-7.424v-7.423h7.424v7.423zm0 .365v7.424h-7.424v-7.424h7.424zm-7.789 7.424h-7.423v-7.424h7.423v7.424zm0 .304v7.424h-7.423v-7.424h7.423zm.365 0h7.424v7.424h-7.424v-7.424zm7.424 7.728v7.423h-7.424v-7.423h7.424zm.304 0h7.423v7.423h-7.423v-7.423zm0-.304v-7.424h7.423v7.424h-7.423zm7.728-7.424h7.423v7.424h-7.423v-7.424zm0-.304v-7.424h7.423v7.424h-7.423zm0-7.789v-7.423h7.423v7.423h-7.423zm0-7.727V65.37h7.423v7.424h-7.423zm-.305 0h-7.423V65.37h7.423v7.424zm-7.727 0h-7.424V65.37h7.424v7.424zm-7.789 0h-7.423V65.37h7.423v7.424zm0 .304v7.423h-7.423v-7.423h7.423zm-7.728 7.423h-7.423v-7.423h7.423v7.423zm0 .365v7.424h-7.423v-7.424h7.423zm0 7.728v7.424h-7.423v-7.424h7.423zm0 7.728v7.423h-7.423v-7.423h7.423zm.305 0h7.423v7.423h-7.423v-7.423zm7.423 7.788v7.424h-7.423v-7.424h7.423zm.365 0h7.424v7.424h-7.424v-7.424zm7.728 0h7.423v7.424h-7.423v-7.424zm7.728 0h7.423v7.424h-7.423v-7.424zm0-.365v-7.423h7.423v7.423h-7.423zm7.788-7.423h7.424v7.423h-7.424v-7.423zm0-.304v-7.424h7.424v7.424h-7.424zm0-7.728v-7.424h7.424v7.424h-7.424zm0-7.789v-7.423h7.424v7.423h-7.424zm0-7.727V65.37h7.424v7.424h-7.424zm0-7.728v-7.424h7.424v7.424h-7.424zm-.365 0h-7.423v-7.424h7.423v7.424zm-7.728 0h-7.423v-7.424h7.423v7.424zm-7.727 0h-7.424v-7.424h7.424v7.424zm-7.789 0h-7.423v-7.424h7.423v7.424zm-7.728 0h-7.423v-7.424h7.423v7.424zm0 .304v7.424h-7.423V65.37h7.423zm-7.727 7.424h-7.424V65.37h7.424v7.424zm0 .304v7.423h-7.424v-7.423h7.424zm0 7.788v7.424h-7.424v-7.424h7.424zm0 7.728v7.424h-7.424v-7.424h7.424zm0 7.728v7.423h-7.424v-7.423h7.424zm0 7.788v7.424h-7.424v-7.424h7.424zm.304 0h7.423v7.424h-7.423v-7.424zm7.423 7.728v7.424h-7.423v-7.424h7.423zm.305 0h7.423v7.424h-7.423v-7.424zm7.788 0h7.424v7.424h-7.424v-7.424zm7.728 0h7.423v7.424h-7.423v-7.424zm7.728 0h7.423v7.424h-7.423v-7.424zm7.788 0h7.424v7.424h-7.424v-7.424zm0-.304v-7.424h7.424v7.424h-7.424zm7.728-7.424h7.423v7.424h-7.423v-7.424zm0-.365v-7.423h7.423v7.423h-7.423zm0-7.727v-7.424h7.423v7.424h-7.423zm0-7.728v-7.424h7.423v7.424h-7.423zm0-7.789v-7.423h7.423v7.423h-7.423zm0-7.727V65.37h7.423v7.424h-7.423zm0-7.728v-7.424h7.423v7.424h-7.423zm0-7.789v-7.423h7.423v7.423h-7.423zm-.304 0h-7.424v-7.423h7.424v7.423zm-7.789 0h-7.423v-7.423h7.423v7.423zm-7.728 0h-7.423v-7.423h7.423v7.423zm-7.727 0h-7.424v-7.423h7.424v7.423zm-7.789 0h-7.423v-7.423h7.423v7.423zm-7.728 0h-7.423v-7.423h7.423v7.423zm-7.727 0h-7.424v-7.423h7.424v7.423zm0 .365v7.424h-7.424v-7.424h7.424zm-7.789 7.424h-7.423v-7.424h7.423v7.424zm0 .304v7.424h-7.423V65.37h7.423zm0 7.728v7.423h-7.423v-7.423h7.423zm0 7.788v7.424h-7.423v-7.424h7.423zm0 7.728v7.424h-7.423v-7.424h7.423zm0 7.728v7.423h-7.423v-7.423h7.423zm0 7.788v7.424h-7.423v-7.424h7.423zm0 7.728v7.424h-7.423v-7.424h7.423zm.365 0h7.424v7.424h-7.424v-7.424zm7.424 7.728v7.423h-7.424v-7.423h7.424zm.304 0h7.423v7.423h-7.423v-7.423zm7.728 0h7.423v7.423h-7.423v-7.423zm7.788 0h7.424v7.423h-7.424v-7.423zm7.728 0h7.423v7.423h-7.423v-7.423zm7.728 0h7.423v7.423h-7.423v-7.423zm7.788 0h7.424v7.423h-7.424v-7.423zm7.728 0h7.423v7.423h-7.423v-7.423zm0-.304v-7.424h7.423v7.424h-7.423zm7.728-7.424h7.423v7.424h-7.423v-7.424zm0-.304v-7.424h7.423v7.424h-7.423zm0-7.789v-7.423h7.423v7.423h-7.423zm0-7.727v-7.424h7.423v7.424h-7.423zm0-7.728v-7.424h7.423v7.424h-7.423zm0-7.789v-7.423h7.423v7.423h-7.423zm0-7.727V65.37h7.423v7.424h-7.423zm0-7.728v-7.424h7.423v7.424h-7.423zm0-7.789v-7.423h7.423v7.423h-7.423zm0-7.727v-7.424h7.423v7.424h-7.423zm-.305 0h-7.423v-7.424h7.423v7.424zm-7.727 0h-7.424v-7.424h7.424v7.424zm-7.789 0h-7.423v-7.424h7.423v7.424zm-7.728 0h-7.423v-7.424h7.423v7.424zm-7.727 0h-7.424v-7.424h7.424v7.424zm-7.789 0h-7.423v-7.424h7.423v7.424zm-7.728 0h-7.423v-7.424h7.423v7.424zm-7.727 0h-7.424v-7.424h7.424v7.424zm-7.789 0h-7.423v-7.424h7.423v7.424zm0 .304v7.423h-7.423v-7.423h7.423zm-7.728 7.423h-7.423v-7.423h7.423v7.423zm0 .365v7.424h-7.423v-7.424h7.423zm0 7.728v7.424h-7.423V65.37h7.423zm0 7.728v7.423h-7.423v-7.423h7.423zm0 7.788v7.424h-7.423v-7.424h7.423zm0 7.728v7.424h-7.423v-7.424h7.423zm0 7.728v7.423h-7.423v-7.423h7.423zm0 7.788v7.424h-7.423v-7.424h7.423zm0 7.728v7.424h-7.423v-7.424h7.423zm0 7.728v7.423h-7.423v-7.423h7.423zm.305 0h7.423v7.423h-7.423v-7.423zm7.423 7.788v7.424h-7.423v-7.424h7.423zm.365 0h7.424v7.424h-7.424v-7.424zm7.728 0h7.423v7.424h-7.423v-7.424zm7.728 0h7.423v7.424h-7.423v-7.424zm7.788 0h7.424v7.424h-7.424v-7.424zm7.728 0h7.423v7.424h-7.423v-7.424zm7.728 0h7.423v7.424h-7.423v-7.424zm7.788 0h7.424v7.424h-7.424v-7.424zm7.728 0h7.423v7.424h-7.423v-7.424zm7.728 0h7.423v7.424h-7.423v-7.424zm0-.365v-7.423h7.423v7.423h-7.423zm7.788-7.423h7.424v7.423h-7.424v-7.423zm0-.304v-7.424h7.424v7.424h-7.424zm0-7.728v-7.424h7.424v7.424h-7.424zm0-7.789v-7.423h7.424v7.423h-7.424zm0-7.727v-7.424h7.424v7.424h-7.424zm0-7.728v-7.424h7.424v7.424h-7.424zm0-7.789v-7.423h7.424v7.423h-7.424zm0-7.727V65.37h7.424v7.424h-7.424zm0-7.728v-7.424h7.424v7.424h-7.424zm0-7.789v-7.423h7.424v7.423h-7.424zm0-7.727v-7.424h7.424v7.424h-7.424zm0-7.728v-7.424h7.424v7.424h-7.424zm-.365 0h-7.423v-7.424h7.423v7.424zm-7.728 0h-7.423v-7.424h7.423v7.424zm-7.727 0h-7.424v-7.424h7.424v7.424zm-7.789 0h-7.423v-7.424h7.423v7.424zm-7.728 0h-7.423v-7.424h7.423v7.424zm-7.727 0h-7.424v-7.424h7.424v7.424zm-7.789 0h-7.423v-7.424h7.423v7.424zm-7.728 0h-7.423v-7.424h7.423v7.424zm-7.727 0h-7.424v-7.424h7.424v7.424zm-7.789 0h-7.423v-7.424h7.423v7.424zm-7.728 0h-7.423v-7.424h7.423v7.424zm0 .304v7.424h-7.423v-7.424h7.423zm-7.727 7.424h-7.424v-7.424h7.424v7.424zm0 .304v7.423h-7.424v-7.423h7.424zm0 7.788v7.424h-7.424v-7.424h7.424zm0 7.728v7.424h-7.424V65.37h7.424zm0 7.728v7.423h-7.424v-7.423h7.424zm0 7.788v7.424h-7.424v-7.424h7.424zm0 7.728v7.424h-7.424v-7.424h7.424zm0 7.728v7.423h-7.424v-7.423h7.424zm0 7.788v7.424h-7.424v-7.424h7.424zm0 7.728v7.424h-7.424v-7.424h7.424zm0 7.728v7.423h-7.424v-7.423h7.424zm0 7.788v7.424h-7.424v-7.424h7.424zm.304 0h7.423v7.424h-7.423v-7.424zm7.423 7.728v7.424h-7.423v-7.424h7.423zm.305 0h7.423v7.424h-7.423v-7.424zm7.788 0h7.424v7.424h-7.424v-7.424zm7.728 0h7.423v7.424h-7.423v-7.424zm7.728 0h7.423v7.424h-7.423v-7.424zm7.788 0h7.424v7.424h-7.424v-7.424zm7.728 0h7.423v7.424h-7.423v-7.424zm7.728 0h7.423v7.424h-7.423v-7.424zm7.788 0h7.424v7.424h-7.424v-7.424zm7.728 0h7.423v7.424h-7.423v-7.424zm7.728 0h7.423v7.424h-7.423v-7.424zm7.788 0h7.424v7.424h-7.424v-7.424zm0-.304v-7.424h7.424v7.424h-7.424zm7.728-7.424h7.423v7.424h-7.423v-7.424zm0-.365v-7.423h7.423v7.423h-7.423zm0-7.727v-7.424h7.423v7.424h-7.423zm0-7.728v-7.424h7.423v7.424h-7.423zm0-7.789v-7.423h7.423v7.423h-7.423zm0-7.727v-7.424h7.423v7.424h-7.423zm0-7.728v-7.424h7.423v7.424h-7.423zm0-7.789v-7.423h7.423v7.423h-7.423zm0-7.727V65.37h7.423v7.424h-7.423zm0-7.728v-7.424h7.423v7.424h-7.423zm0-7.789v-7.423h7.423v7.423h-7.423zm0-7.727v-7.424h7.423v7.424h-7.423zm0-7.728v-7.424h7.423v7.424h-7.423zm0-7.789V26.61h7.423v7.423h-7.423zm-.304 0h-7.424V26.61h7.424v7.423zm-7.789 0h-7.423V26.61h7.423v7.423zm-7.728 0h-7.423V26.61h7.423v7.423zm-7.727 0h-7.424V26.61h7.424v7.423zm-7.789 0h-7.423V26.61h7.423v7.423zm-7.728 0h-7.423V26.61h7.423v7.423zm-7.727 0h-7.424V26.61h7.424v7.423zm-7.789 0h-7.423V26.61h7.423v7.423zm-7.728 0h-7.423V26.61h7.423v7.423zm-7.727 0h-7.424V26.61h7.424v7.423zm-7.789 0h-7.423V26.61h7.423v7.423zm-7.728 0h-7.423V26.61h7.423v7.423zm-7.727 0h-7.424V26.61h7.424v7.423zm0 .365v7.424h-7.424v-7.424h7.424zm-7.789 7.424h-7.423v-7.424h7.423v7.424zm0 .304v7.424h-7.423v-7.424h7.423zm0 7.728v7.423h-7.423v-7.423h7.423zm0 7.788v7.424h-7.423v-7.424h7.423zm0 7.728v7.424h-7.423V65.37h7.423zm0 7.728v7.423h-7.423v-7.423h7.423zm0 7.788v7.424h-7.423v-7.424h7.423zm0 7.728v7.424h-7.423v-7.424h7.423zm0 7.728v7.423h-7.423v-7.423h7.423zm0 7.788v7.424h-7.423v-7.424h7.423zm0 7.728v7.424h-7.423v-7.424h7.423zm0 7.728v7.423h-7.423v-7.423h7.423zm0 7.788v7.424h-7.423v-7.424h7.423zm0 7.728v7.424h-7.423v-7.424h7.423zm.365 0h7.424v7.424h-7.424v-7.424zm7.424 7.728v7.423h-7.424v-7.423h7.424zm.304 0h7.423v7.423h-7.423v-7.423zm7.728 0h7.423v7.423h-7.423v-7.423zm7.788 0h7.424v7.423h-7.424v-7.423zm7.728 0h7.423v7.423h-7.423v-7.423zm7.728 0h7.423v7.423h-7.423v-7.423zm7.788 0h7.424v7.423h-7.424v-7.423zm7.728 0h7.423v7.423h-7.423v-7.423zm7.728 0h7.423v7.423h-7.423v-7.423zm7.788 0h7.424v7.423h-7.424v-7.423zm7.728 0h7.423v7.423h-7.423v-7.423zm7.728 0h7.423v7.423h-7.423v-7.423zm7.788 0h7.424v7.423h-7.424v-7.423zm7.728 0h7.423v7.423h-7.423v-7.423zm0-.304v-7.424h7.423v7.424h-7.423zm7.728-7.424h7.423v7.424h-7.423v-7.424zm0-.304v-7.424h7.423v7.424h-7.423zm0-7.789v-7.423h7.423v7.423h-7.423zm0-7.727v-7.424h7.423v7.424h-7.423zm0-7.728v-7.424h7.423v7.424h-7.423zm0-7.789v-7.423h7.423v7.423h-7.423zm0-7.727v-7.424h7.423v7.424h-7.423zm0-7.728v-7.424h7.423v7.424h-7.423zm0-7.789v-7.423h7.423v7.423h-7.423zm0-7.727V65.37h7.423v7.424h-7.423zm0-7.728v-7.424h7.423v7.424h-7.423zm0-7.789v-7.423h7.423v7.423h-7.423zm0-7.727v-7.424h7.423v7.424h-7.423zm0-7.728v-7.424h7.423v7.424h-7.423zM77.214 26.61v7.423h-7.423V31.61a5 5 0 015-5h2.423zm-7.423 116.22h7.423v7.423h-7.423v-7.423zm116.22 7.423v-7.423h7.423v7.423h-7.423z"/></g><path fill="url(#paint2_radial_21770_38446)" d="M9.673 59.638a5.319 5.319 0 100-10.638 5.319 5.319 0 000 10.638z"/><path fill="url(#paint3_radial_21770_38446)" d="M6.596 54.06c-.963-.594-1.204-1.947-.537-3.003.649-1.056 1.964-1.445 2.928-.852.964.593 1.205 1.946.538 3.002-.668 1.075-1.983 1.446-2.929.852z" opacity=".5"/><path fill="url(#paint4_radial_21770_38446)" d="M105.151 41.594a4.797 4.797 0 100-9.595 4.797 4.797 0 000 9.595z"/><path fill="url(#paint5_radial_21770_38446)" d="M102.376 36.563c-.869-.535-1.086-1.755-.484-2.708.585-.952 1.771-1.303 2.64-.768.869.534 1.087 1.755.485 2.707-.602.97-1.788 1.304-2.641.769z" opacity=".5"/><g filter="url(#filter0_iii_21770_38446)"><path fill="#4392F4" d="M93.66 17H18.011c-1.468 0-2.658 1.4-2.658 3.128v55.443c0 1.728 1.19 3.128 2.658 3.128h75.647c1.468 0 2.658-1.4 2.658-3.128V20.129c0-1.728-1.19-3.129-2.658-3.129z"/></g><path stroke="#BBDCFE" stroke-width="2.219" d="M71.354 59.264v-2.499A7.765 7.765 0 0063.589 49H49.418a7.765 7.765 0 00-7.765 7.765v2.5m13.701-9.942V41"/><g filter="url(#filter1_dii_21770_38446)"><rect width="23" height="21.16" x="44.354" y="22.92" fill="#F2F1F1" rx="2.253"/></g><g filter="url(#filter2_di_21770_38446)"><rect width="9.104" height="9.104" x="51.354" y="25.68" fill="#4BBEFF" rx="2"/></g><g filter="url(#filter3_ii_21770_38446)"><rect width="14.521" height="1.183" x="48.354" y="37.421" fill="url(#paint6_linear_21770_38446)" rx=".592"/></g><g filter="url(#filter4_ii_21770_38446)"><rect width="9.151" height="1.299" x="51.354" y="40.03" fill="url(#paint7_linear_21770_38446)" rx=".649"/></g><g filter="url(#filter5_ii_21770_38446)"><path fill="#EAEAEA" d="M20.216 23.106a1.053 1.053 0 100-2.106 1.053 1.053 0 000 2.106z"/></g><g filter="url(#filter6_ii_21770_38446)"><path fill="#EAEAEA" d="M23.69 23.106a1.053 1.053 0 100-2.106 1.053 1.053 0 000 2.106z"/></g><g filter="url(#filter7_ii_21770_38446)"><path fill="#EAEAEA" d="M27.11 23.106a1.053 1.053 0 100-2.106 1.053 1.053 0 000 2.106z"/></g><g filter="url(#filter8_i_21770_38446)"><path fill="url(#paint8_linear_21770_38446)" d="M105.573 69.28c-.049-.013-.103-.023-.132-.065-.405-.602.929-6.553 1.057-7.004.663-2.323 1.761-4.584 3.527-6.242 1.25-1.174 4.59-3.47 6.323-2.12 1.46 1.14.092 4-.582 5.196-1.206 2.127-2.985 3.85-4.504 5.737-.906 1.128-1.816 2.278-2.722 3.406-.048.063-.354.502-.65.896-.35.465-.864.57-1.429.424l-.888-.228z"/></g><g filter="url(#filter9_i_21770_38446)"><path fill="url(#paint9_linear_21770_38446)" d="M107.53 71.133c.74.162 1.4-.465 1.247-1.209-.845-4.126-3.665-14.97-9.65-12.998-5.428 1.808 6.231 12.455 7.928 13.969.136.122.296.2.475.239z"/></g><path fill="#77FFE4" fill-opacity=".2" d="M100.753 59.081s6.987 9.252 7.067 11.21l-7.067-11.21zm13.529-3.407s-5.741 7.43-6.365 10.728l6.365-10.728z"/><path fill="url(#paint10_linear_21770_38446)" d="M100.516 70.29a2.35 2.35 0 012.34-2.572h7.659a2.35 2.35 0 012.34 2.572l-.908 9.553a2.35 2.35 0 01-2.339 2.128h-5.844a2.35 2.35 0 01-2.34-2.128l-.908-9.553z"/><g filter="url(#filter10_i_21770_38446)"><rect width="13.754" height="3.435" x="99.809" y="67.718" fill="url(#paint11_linear_21770_38446)" rx="1.175"/></g><g filter="url(#filter11_f_21770_38446)"><ellipse cx="53.197" cy="82.242" fill="#000" fill-opacity=".37" rx="51.197" ry=".271"/></g><g filter="url(#filter12_dii_21770_38446)"><rect width="21.474" height="20.16" x="30.354" y="54" fill="#F2F1F1" rx="2.292"/></g><g filter="url(#filter13_dii_21770_38446)"><rect width="3.153" height="14.417" fill="#00A886" rx="1.576" transform="matrix(-1 0 0 1 48.638 57.045)"/></g><g filter="url(#filter14_dii_21770_38446)"><rect width="3.153" height="10.854" fill="#00A886" rx="1.576" transform="matrix(-1 0 0 1 42.976 60.608)"/></g><g filter="url(#filter15_dii_21770_38446)"><rect width="3.153" height="7.751" fill="#00A886" rx="1.576" transform="matrix(-1 0 0 1 37.314 63.71)"/></g><g filter="url(#filter16_dii_21770_38446)"><rect width="21.474" height="20.16" x="59.88" y="54" fill="#F2F1F1" rx="2.292"/></g><g filter="url(#filter17_d_21770_38446)"><rect width="9.785" height="1.027" x="66.37" y="68.224" fill="#3E3E3E" rx=".513"/></g><g filter="url(#filter18_ii_21770_38446)"><rect width="9.942" height="1.24" x="66.281" y="68.01" fill="#E0E0E0" rx=".62"/></g><g filter="url(#filter19_dii_21770_38446)"><path stroke="#F2C94C" stroke-linecap="round" stroke-width=".95" d="M64.354 63.537s2.644-5.05 6.255-1.607c2.923 2.793 4.841 2.969 7.54-1.667"/></g><defs><filter id="filter0_iii_21770_38446" width="81.736" height="63.013" x="14.581" y="16.536" color-interpolation-filters="sRGB" filterUnits="userSpaceOnUse"><feFlood flood-opacity="0" result="BackgroundImageFix"/><feBlend in="SourceGraphic" in2="BackgroundImageFix" result="shape"/><feColorMatrix in="SourceAlpha" result="hardAlpha" values="0 0 0 0 0 0 0 0 0 0 0 0 0 0 0 0 0 0 127 0"/><feOffset dy="-.464"/><feGaussianBlur stdDeviation=".464"/><feComposite in2="hardAlpha" k2="-1" k3="1" operator="arithmetic"/><feColorMatrix values="0 0 0 0 0.089132 0 0 0 0 0.328429 0 0 0 0 0.629167 0 0 0 1 0"/><feBlend in2="shape" result="effect1_innerShadow_21770_38446"/><feColorMatrix in="SourceAlpha" result="hardAlpha" values="0 0 0 0 0 0 0 0 0 0 0 0 0 0 0 0 0 0 127 0"/><feOffset dy=".85"/><feGaussianBlur stdDeviation=".425"/><feComposite in2="hardAlpha" k2="-1" k3="1" operator="arithmetic"/><feColorMatrix values="0 0 0 0 0.641667 0 0 0 0 0.8495 0 0 0 0 1 0 0 0 1 0"/><feBlend in2="effect1_innerShadow_21770_38446" result="effect2_innerShadow_21770_38446"/><feColorMatrix in="SourceAlpha" result="hardAlpha" values="0 0 0 0 0 0 0 0 0 0 0 0 0 0 0 0 0 0 127 0"/><feOffset dx="-.773"/><feGaussianBlur stdDeviation=".386"/><feComposite in2="hardAlpha" k2="-1" k3="1" operator="arithmetic"/><feColorMatrix values="0 0 0 0 0 0 0 0 0 0 0 0 0 0 0 0 0 0 0.25 0"/><feBlend in2="effect2_innerShadow_21770_38446" result="effect3_innerShadow_21770_38446"/></filter><filter id="filter1_dii_21770_38446" width="40.546" height="38.706" x="33.031" y="19.247" color-interpolation-filters="sRGB" filterUnits="userSpaceOnUse"><feFlood flood-opacity="0" result="BackgroundImageFix"/><feColorMatrix in="SourceAlpha" result="hardAlpha" values="0 0 0 0 0 0 0 0 0 0 0 0 0 0 0 0 0 0 127 0"/><feOffset dx="-2.55" dy="5.101"/><feGaussianBlur stdDeviation="4.386"/><feColorMatrix values="0 0 0 0 0 0 0 0 0 0 0 0 0 0 0 0 0 0 0.25 0"/><feBlend in2="BackgroundImageFix" result="effect1_dropShadow_21770_38446"/><feBlend in="SourceGraphic" in2="effect1_dropShadow_21770_38446" result="shape"/><feColorMatrix in="SourceAlpha" result="hardAlpha" values="0 0 0 0 0 0 0 0 0 0 0 0 0 0 0 0 0 0 127 0"/><feOffset dx=".563" dy=".62"/><feGaussianBlur stdDeviation=".338"/><feComposite in2="hardAlpha" k2="-1" k3="1" operator="arithmetic"/><feColorMatrix values="0 0 0 0 1 0 0 0 0 1 0 0 0 0 1 0 0 0 1 0"/><feBlend in2="shape" result="effect2_innerShadow_21770_38446"/><feColorMatrix in="SourceAlpha" result="hardAlpha" values="0 0 0 0 0 0 0 0 0 0 0 0 0 0 0 0 0 0 127 0"/><feOffset dx="-.563" dy="-.338"/><feGaussianBlur stdDeviation=".056"/><feComposite in2="hardAlpha" k2="-1" k3="1" operator="arithmetic"/><feColorMatrix values="0 0 0 0 0.833333 0 0 0 0 0.833333 0 0 0 0 0.833333 0 0 0 1 0"/><feBlend in2="effect2_innerShadow_21770_38446" result="effect3_innerShadow_21770_38446"/></filter><filter id="filter2_di_21770_38446" width="10.65" height="10.804" x="50.581" y="25.216" color-interpolation-filters="sRGB" filterUnits="userSpaceOnUse"><feFlood flood-opacity="0" result="BackgroundImageFix"/><feColorMatrix in="SourceAlpha" result="hardAlpha" values="0 0 0 0 0 0 0 0 0 0 0 0 0 0 0 0 0 0 127 0"/><feOffset dy=".464"/><feGaussianBlur stdDeviation=".386"/><feColorMatrix values="0 0 0 0 0 0 0 0 0 0 0 0 0 0 0 0 0 0 0.25 0"/><feBlend in2="BackgroundImageFix" result="effect1_dropShadow_21770_38446"/><feBlend in="SourceGraphic" in2="effect1_dropShadow_21770_38446" result="shape"/><feColorMatrix in="SourceAlpha" result="hardAlpha" values="0 0 0 0 0 0 0 0 0 0 0 0 0 0 0 0 0 0 127 0"/><feOffset dx="-.155" dy="-.464"/><feGaussianBlur stdDeviation=".232"/><feComposite in2="hardAlpha" k2="-1" k3="1" operator="arithmetic"/><feColorMatrix values="0 0 0 0 0.0961458 0 0 0 0 0.412254 0 0 0 0 0.591667 0 0 0 1 0"/><feBlend in2="shape" result="effect2_innerShadow_21770_38446"/></filter><filter id="filter3_ii_21770_38446" width="15.209" height="1.929" x="48.239" y="37.306" color-interpolation-filters="sRGB" filterUnits="userSpaceOnUse"><feFlood flood-opacity="0" result="BackgroundImageFix"/><feBlend in="SourceGraphic" in2="BackgroundImageFix" result="shape"/><feColorMatrix in="SourceAlpha" result="hardAlpha" values="0 0 0 0 0 0 0 0 0 0 0 0 0 0 0 0 0 0 127 0"/><feOffset dx=".573" dy=".63"/><feGaussianBlur stdDeviation=".344"/><feComposite in2="hardAlpha" k2="-1" k3="1" operator="arithmetic"/><feColorMatrix values="0 0 0 0 1 0 0 0 0 1 0 0 0 0 1 0 0 0 1 0"/><feBlend in2="shape" result="effect1_innerShadow_21770_38446"/><feColorMatrix in="SourceAlpha" result="hardAlpha" values="0 0 0 0 0 0 0 0 0 0 0 0 0 0 0 0 0 0 127 0"/><feOffset dx="-.573" dy="-.344"/><feGaussianBlur stdDeviation=".057"/><feComposite in2="hardAlpha" k2="-1" k3="1" operator="arithmetic"/><feColorMatrix values="0 0 0 0 0.833333 0 0 0 0 0.833333 0 0 0 0 0.833333 0 0 0 1 0"/><feBlend in2="effect1_innerShadow_21770_38446" result="effect2_innerShadow_21770_38446"/></filter><filter id="filter4_ii_21770_38446" width="9.839" height="2.044" x="51.239" y="39.916" color-interpolation-filters="sRGB" filterUnits="userSpaceOnUse"><feFlood flood-opacity="0" result="BackgroundImageFix"/><feBlend in="SourceGraphic" in2="BackgroundImageFix" result="shape"/><feColorMatrix in="SourceAlpha" result="hardAlpha" values="0 0 0 0 0 0 0 0 0 0 0 0 0 0 0 0 0 0 127 0"/><feOffset dx=".573" dy=".63"/><feGaussianBlur stdDeviation=".344"/><feComposite in2="hardAlpha" k2="-1" k3="1" operator="arithmetic"/><feColorMatrix values="0 0 0 0 1 0 0 0 0 1 0 0 0 0 1 0 0 0 1 0"/><feBlend in2="shape" result="effect1_innerShadow_21770_38446"/><feColorMatrix in="SourceAlpha" result="hardAlpha" values="0 0 0 0 0 0 0 0 0 0 0 0 0 0 0 0 0 0 127 0"/><feOffset dx="-.573" dy="-.344"/><feGaussianBlur stdDeviation=".057"/><feComposite in2="hardAlpha" k2="-1" k3="1" operator="arithmetic"/><feColorMatrix values="0 0 0 0 0.833333 0 0 0 0 0.833333 0 0 0 0 0.833333 0 0 0 1 0"/><feBlend in2="effect1_innerShadow_21770_38446" result="effect2_innerShadow_21770_38446"/></filter><filter id="filter5_ii_21770_38446" width="2.39" height="2.39" x="18.974" y="20.811" color-interpolation-filters="sRGB" filterUnits="userSpaceOnUse"><feFlood flood-opacity="0" result="BackgroundImageFix"/><feBlend in="SourceGraphic" in2="BackgroundImageFix" result="shape"/><feColorMatrix in="SourceAlpha" result="hardAlpha" values="0 0 0 0 0 0 0 0 0 0 0 0 0 0 0 0 0 0 127 0"/><feOffset dx=".189" dy=".189"/><feGaussianBlur stdDeviation=".047"/><feComposite in2="hardAlpha" k2="-1" k3="1" operator="arithmetic"/><feColorMatrix values="0 0 0 0 1 0 0 0 0 1 0 0 0 0 1 0 0 0 1 0"/><feBlend in2="shape" result="effect1_innerShadow_21770_38446"/><feColorMatrix in="SourceAlpha" result="hardAlpha" values="0 0 0 0 0 0 0 0 0 0 0 0 0 0 0 0 0 0 127 0"/><feOffset dx="-.189" dy="-.189"/><feGaussianBlur stdDeviation=".095"/><feComposite in2="hardAlpha" k2="-1" k3="1" operator="arithmetic"/><feColorMatrix values="0 0 0 0 0.658333 0 0 0 0 0.658333 0 0 0 0 0.658333 0 0 0 1 0"/><feBlend in2="effect1_innerShadow_21770_38446" result="effect2_innerShadow_21770_38446"/></filter><filter id="filter6_ii_21770_38446" width="2.39" height="2.39" x="22.448" y="20.811" color-interpolation-filters="sRGB" filterUnits="userSpaceOnUse"><feFlood flood-opacity="0" result="BackgroundImageFix"/><feBlend in="SourceGraphic" in2="BackgroundImageFix" result="shape"/><feColorMatrix in="SourceAlpha" result="hardAlpha" values="0 0 0 0 0 0 0 0 0 0 0 0 0 0 0 0 0 0 127 0"/><feOffset dx=".189" dy=".189"/><feGaussianBlur stdDeviation=".047"/><feComposite in2="hardAlpha" k2="-1" k3="1" operator="arithmetic"/><feColorMatrix values="0 0 0 0 1 0 0 0 0 1 0 0 0 0 1 0 0 0 1 0"/><feBlend in2="shape" result="effect1_innerShadow_21770_38446"/><feColorMatrix in="SourceAlpha" result="hardAlpha" values="0 0 0 0 0 0 0 0 0 0 0 0 0 0 0 0 0 0 127 0"/><feOffset dx="-.189" dy="-.189"/><feGaussianBlur stdDeviation=".095"/><feComposite in2="hardAlpha" k2="-1" k3="1" operator="arithmetic"/><feColorMatrix values="0 0 0 0 0.658333 0 0 0 0 0.658333 0 0 0 0 0.658333 0 0 0 1 0"/><feBlend in2="effect1_innerShadow_21770_38446" result="effect2_innerShadow_21770_38446"/></filter><filter id="filter7_ii_21770_38446" width="2.39" height="2.39" x="25.868" y="20.811" color-interpolation-filters="sRGB" filterUnits="userSpaceOnUse"><feFlood flood-opacity="0" result="BackgroundImageFix"/><feBlend in="SourceGraphic" in2="BackgroundImageFix" result="shape"/><feColorMatrix in="SourceAlpha" result="hardAlpha" values="0 0 0 0 0 0 0 0 0 0 0 0 0 0 0 0 0 0 127 0"/><feOffset dx=".189" dy=".189"/><feGaussianBlur stdDeviation=".047"/><feComposite in2="hardAlpha" k2="-1" k3="1" operator="arithmetic"/><feColorMatrix values="0 0 0 0 1 0 0 0 0 1 0 0 0 0 1 0 0 0 1 0"/><feBlend in2="shape" result="effect1_innerShadow_21770_38446"/><feColorMatrix in="SourceAlpha" result="hardAlpha" values="0 0 0 0 0 0 0 0 0 0 0 0 0 0 0 0 0 0 127 0"/><feOffset dx="-.189" dy="-.189"/><feGaussianBlur stdDeviation=".095"/><feComposite in2="hardAlpha" k2="-1" k3="1" operator="arithmetic"/><feColorMatrix values="0 0 0 0 0.658333 0 0 0 0 0.658333 0 0 0 0 0.658333 0 0 0 1 0"/><feBlend in2="effect1_innerShadow_21770_38446" result="effect2_innerShadow_21770_38446"/></filter><filter id="filter8_i_21770_38446" width="12.758" height="16.564" x="105.365" y="53.006" color-interpolation-filters="sRGB" filterUnits="userSpaceOnUse"><feFlood flood-opacity="0" result="BackgroundImageFix"/><feBlend in="SourceGraphic" in2="BackgroundImageFix" result="shape"/><feColorMatrix in="SourceAlpha" result="hardAlpha" values="0 0 0 0 0 0 0 0 0 0 0 0 0 0 0 0 0 0 127 0"/><feOffset dx="1.127" dy="-.431"/><feGaussianBlur stdDeviation="1.469"/><feComposite in2="hardAlpha" k2="-1" k3="1" operator="arithmetic"/><feColorMatrix values="0 0 0 0 0.113056 0 0 0 0 0.616667 0 0 0 0 0.58645 0 0 0 1 0"/><feBlend in2="shape" result="effect1_innerShadow_21770_38446"/></filter><filter id="filter9_i_21770_38446" width="12.228" height="14.9" x="97.698" y="56.259" color-interpolation-filters="sRGB" filterUnits="userSpaceOnUse"><feFlood flood-opacity="0" result="BackgroundImageFix"/><feBlend in="SourceGraphic" in2="BackgroundImageFix" result="shape"/><feColorMatrix in="SourceAlpha" result="hardAlpha" values="0 0 0 0 0 0 0 0 0 0 0 0 0 0 0 0 0 0 127 0"/><feOffset dx="1.127" dy="-.431"/><feGaussianBlur stdDeviation="1.469"/><feComposite in2="hardAlpha" k2="-1" k3="1" operator="arithmetic"/><feColorMatrix values="0 0 0 0 0.0996528 0 0 0 0 0.683333 0 0 0 0 0.555806 0 0 0 1 0"/><feBlend in2="shape" result="effect1_innerShadow_21770_38446"/></filter><filter id="filter10_i_21770_38446" width="14.224" height="3.788" x="99.809" y="67.365" color-interpolation-filters="sRGB" filterUnits="userSpaceOnUse"><feFlood flood-opacity="0" result="BackgroundImageFix"/><feBlend in="SourceGraphic" in2="BackgroundImageFix" result="shape"/><feColorMatrix in="SourceAlpha" result="hardAlpha" values="0 0 0 0 0 0 0 0 0 0 0 0 0 0 0 0 0 0 127 0"/><feOffset dx=".47" dy="-.353"/><feGaussianBlur stdDeviation=".411"/><feComposite in2="hardAlpha" k2="-1" k3="1" operator="arithmetic"/><feColorMatrix values="0 0 0 0 0.833333 0 0 0 0 0.604343 0 0 0 0 0.0555555 0 0 0 1 0"/><feBlend in2="shape" result="effect1_innerShadow_21770_38446"/></filter><filter id="filter11_f_21770_38446" width="105.961" height="4.11" x=".216" y="80.187" color-interpolation-filters="sRGB" filterUnits="userSpaceOnUse"><feFlood flood-opacity="0" result="BackgroundImageFix"/><feBlend in="SourceGraphic" in2="BackgroundImageFix" result="shape"/><feGaussianBlur result="effect1_foregroundBlur_21770_38446" stdDeviation=".892"/></filter><filter id="filter12_dii_21770_38446" width="39.324" height="38.011" x="18.834" y="50.264" color-interpolation-filters="sRGB" filterUnits="userSpaceOnUse"><feFlood flood-opacity="0" result="BackgroundImageFix"/><feColorMatrix in="SourceAlpha" result="hardAlpha" values="0 0 0 0 0 0 0 0 0 0 0 0 0 0 0 0 0 0 127 0"/><feOffset dx="-2.595" dy="5.189"/><feGaussianBlur stdDeviation="4.463"/><feColorMatrix values="0 0 0 0 0 0 0 0 0 0 0 0 0 0 0 0 0 0 0.25 0"/><feBlend in2="BackgroundImageFix" result="effect1_dropShadow_21770_38446"/><feBlend in="SourceGraphic" in2="effect1_dropShadow_21770_38446" result="shape"/><feColorMatrix in="SourceAlpha" result="hardAlpha" values="0 0 0 0 0 0 0 0 0 0 0 0 0 0 0 0 0 0 127 0"/><feOffset dx=".573" dy=".63"/><feGaussianBlur stdDeviation=".344"/><feComposite in2="hardAlpha" k2="-1" k3="1" operator="arithmetic"/><feColorMatrix values="0 0 0 0 1 0 0 0 0 1 0 0 0 0 1 0 0 0 1 0"/><feBlend in2="shape" result="effect2_innerShadow_21770_38446"/><feColorMatrix in="SourceAlpha" result="hardAlpha" values="0 0 0 0 0 0 0 0 0 0 0 0 0 0 0 0 0 0 127 0"/><feOffset dx="-.573" dy="-.344"/><feGaussianBlur stdDeviation=".057"/><feComposite in2="hardAlpha" k2="-1" k3="1" operator="arithmetic"/><feColorMatrix values="0 0 0 0 0.833333 0 0 0 0 0.833333 0 0 0 0 0.833333 0 0 0 1 0"/><feBlend in2="effect2_innerShadow_21770_38446" result="effect3_innerShadow_21770_38446"/></filter><filter id="filter13_dii_21770_38446" width="4.182" height="15.755" x="44.97" y="56.736" color-interpolation-filters="sRGB" filterUnits="userSpaceOnUse"><feFlood flood-opacity="0" result="BackgroundImageFix"/><feColorMatrix in="SourceAlpha" result="hardAlpha" values="0 0 0 0 0 0 0 0 0 0 0 0 0 0 0 0 0 0 127 0"/><feOffset dy=".515"/><feGaussianBlur stdDeviation=".257"/><feColorMatrix values="0 0 0 0 0 0 0 0 0 0 0 0 0 0 0 0 0 0 0.25 0"/><feBlend in2="BackgroundImageFix" result="effect1_dropShadow_21770_38446"/><feBlend in="SourceGraphic" in2="effect1_dropShadow_21770_38446" result="shape"/><feColorMatrix in="SourceAlpha" result="hardAlpha" values="0 0 0 0 0 0 0 0 0 0 0 0 0 0 0 0 0 0 127 0"/><feOffset dy=".463"/><feGaussianBlur stdDeviation=".18"/><feComposite in2="hardAlpha" k2="-1" k3="1" operator="arithmetic"/><feColorMatrix values="0 0 0 0 0.532292 0 0 0 0 0.9125 0 0 0 0 0.835553 0 0 0 1 0"/><feBlend in2="shape" result="effect2_innerShadow_21770_38446"/><feColorMatrix in="SourceAlpha" result="hardAlpha" values="0 0 0 0 0 0 0 0 0 0 0 0 0 0 0 0 0 0 127 0"/><feOffset dx="-.051" dy="-.463"/><feGaussianBlur stdDeviation=".154"/><feComposite in2="hardAlpha" k2="-1" k3="1" operator="arithmetic"/><feColorMatrix values="0 0 0 0 0.0168056 0 0 0 0 0.504167 0 0 0 0 0.405534 0 0 0 1 0"/><feBlend in2="effect2_innerShadow_21770_38446" result="effect3_innerShadow_21770_38446"/></filter><filter id="filter14_dii_21770_38446" width="4.182" height="12.192" x="39.309" y="60.3" color-interpolation-filters="sRGB" filterUnits="userSpaceOnUse"><feFlood flood-opacity="0" result="BackgroundImageFix"/><feColorMatrix in="SourceAlpha" result="hardAlpha" values="0 0 0 0 0 0 0 0 0 0 0 0 0 0 0 0 0 0 127 0"/><feOffset dy=".515"/><feGaussianBlur stdDeviation=".257"/><feColorMatrix values="0 0 0 0 0 0 0 0 0 0 0 0 0 0 0 0 0 0 0.25 0"/><feBlend in2="BackgroundImageFix" result="effect1_dropShadow_21770_38446"/><feBlend in="SourceGraphic" in2="effect1_dropShadow_21770_38446" result="shape"/><feColorMatrix in="SourceAlpha" result="hardAlpha" values="0 0 0 0 0 0 0 0 0 0 0 0 0 0 0 0 0 0 127 0"/><feOffset dy=".463"/><feGaussianBlur stdDeviation=".18"/><feComposite in2="hardAlpha" k2="-1" k3="1" operator="arithmetic"/><feColorMatrix values="0 0 0 0 0.532292 0 0 0 0 0.9125 0 0 0 0 0.835553 0 0 0 1 0"/><feBlend in2="shape" result="effect2_innerShadow_21770_38446"/><feColorMatrix in="SourceAlpha" result="hardAlpha" values="0 0 0 0 0 0 0 0 0 0 0 0 0 0 0 0 0 0 127 0"/><feOffset dx="-.051" dy="-.463"/><feGaussianBlur stdDeviation=".154"/><feComposite in2="hardAlpha" k2="-1" k3="1" operator="arithmetic"/><feColorMatrix values="0 0 0 0 0.0168056 0 0 0 0 0.504167 0 0 0 0 0.405534 0 0 0 1 0"/><feBlend in2="effect2_innerShadow_21770_38446" result="effect3_innerShadow_21770_38446"/></filter><filter id="filter15_dii_21770_38446" width="4.182" height="9.089" x="33.646" y="63.402" color-interpolation-filters="sRGB" filterUnits="userSpaceOnUse"><feFlood flood-opacity="0" result="BackgroundImageFix"/><feColorMatrix in="SourceAlpha" result="hardAlpha" values="0 0 0 0 0 0 0 0 0 0 0 0 0 0 0 0 0 0 127 0"/><feOffset dy=".515"/><feGaussianBlur stdDeviation=".257"/><feColorMatrix values="0 0 0 0 0 0 0 0 0 0 0 0 0 0 0 0 0 0 0.25 0"/><feBlend in2="BackgroundImageFix" result="effect1_dropShadow_21770_38446"/><feBlend in="SourceGraphic" in2="effect1_dropShadow_21770_38446" result="shape"/><feColorMatrix in="SourceAlpha" result="hardAlpha" values="0 0 0 0 0 0 0 0 0 0 0 0 0 0 0 0 0 0 127 0"/><feOffset dy=".463"/><feGaussianBlur stdDeviation=".18"/><feComposite in2="hardAlpha" k2="-1" k3="1" operator="arithmetic"/><feColorMatrix values="0 0 0 0 0.532292 0 0 0 0 0.9125 0 0 0 0 0.835553 0 0 0 1 0"/><feBlend in2="shape" result="effect2_innerShadow_21770_38446"/><feColorMatrix in="SourceAlpha" result="hardAlpha" values="0 0 0 0 0 0 0 0 0 0 0 0 0 0 0 0 0 0 127 0"/><feOffset dx="-.051" dy="-.463"/><feGaussianBlur stdDeviation=".154"/><feComposite in2="hardAlpha" k2="-1" k3="1" operator="arithmetic"/><feColorMatrix values="0 0 0 0 0.0168056 0 0 0 0 0.504167 0 0 0 0 0.405534 0 0 0 1 0"/><feBlend in2="effect2_innerShadow_21770_38446" result="effect3_innerShadow_21770_38446"/></filter><filter id="filter16_dii_21770_38446" width="39.324" height="38.011" x="48.361" y="50.264" color-interpolation-filters="sRGB" filterUnits="userSpaceOnUse"><feFlood flood-opacity="0" result="BackgroundImageFix"/><feColorMatrix in="SourceAlpha" result="hardAlpha" values="0 0 0 0 0 0 0 0 0 0 0 0 0 0 0 0 0 0 127 0"/><feOffset dx="-2.595" dy="5.189"/><feGaussianBlur stdDeviation="4.463"/><feColorMatrix values="0 0 0 0 0 0 0 0 0 0 0 0 0 0 0 0 0 0 0.25 0"/><feBlend in2="BackgroundImageFix" result="effect1_dropShadow_21770_38446"/><feBlend in="SourceGraphic" in2="effect1_dropShadow_21770_38446" result="shape"/><feColorMatrix in="SourceAlpha" result="hardAlpha" values="0 0 0 0 0 0 0 0 0 0 0 0 0 0 0 0 0 0 127 0"/><feOffset dx=".573" dy=".63"/><feGaussianBlur stdDeviation=".344"/><feComposite in2="hardAlpha" k2="-1" k3="1" operator="arithmetic"/><feColorMatrix values="0 0 0 0 1 0 0 0 0 1 0 0 0 0 1 0 0 0 1 0"/><feBlend in2="shape" result="effect2_innerShadow_21770_38446"/><feColorMatrix in="SourceAlpha" result="hardAlpha" values="0 0 0 0 0 0 0 0 0 0 0 0 0 0 0 0 0 0 127 0"/><feOffset dx="-.573" dy="-.344"/><feGaussianBlur stdDeviation=".057"/><feComposite in2="hardAlpha" k2="-1" k3="1" operator="arithmetic"/><feColorMatrix values="0 0 0 0 0.833333 0 0 0 0 0.833333 0 0 0 0 0.833333 0 0 0 1 0"/><feBlend in2="effect2_innerShadow_21770_38446" result="effect3_innerShadow_21770_38446"/></filter><filter id="filter17_d_21770_38446" width="10.165" height="1.406" x="66.18" y="68.081" color-interpolation-filters="sRGB" filterUnits="userSpaceOnUse"><feFlood flood-opacity="0" result="BackgroundImageFix"/><feColorMatrix in="SourceAlpha" result="hardAlpha" values="0 0 0 0 0 0 0 0 0 0 0 0 0 0 0 0 0 0 127 0"/><feOffset dy=".047"/><feGaussianBlur stdDeviation=".095"/><feColorMatrix values="0 0 0 0 0 0 0 0 0 0 0 0 0 0 0 0 0 0 0.48 0"/><feBlend in2="BackgroundImageFix" result="effect1_dropShadow_21770_38446"/><feBlend in="SourceGraphic" in2="effect1_dropShadow_21770_38446" result="shape"/></filter><filter id="filter18_ii_21770_38446" width="9.989" height="1.478" x="66.233" y="67.915" color-interpolation-filters="sRGB" filterUnits="userSpaceOnUse"><feFlood flood-opacity="0" result="BackgroundImageFix"/><feBlend in="SourceGraphic" in2="BackgroundImageFix" result="shape"/><feColorMatrix in="SourceAlpha" result="hardAlpha" values="0 0 0 0 0 0 0 0 0 0 0 0 0 0 0 0 0 0 127 0"/><feOffset dy=".237"/><feGaussianBlur stdDeviation=".071"/><feComposite in2="hardAlpha" k2="-1" k3="1" operator="arithmetic"/><feColorMatrix values="0 0 0 0 0.95 0 0 0 0 0.95 0 0 0 0 0.95 0 0 0 1 0"/><feBlend in2="shape" result="effect1_innerShadow_21770_38446"/><feColorMatrix in="SourceAlpha" result="hardAlpha" values="0 0 0 0 0 0 0 0 0 0 0 0 0 0 0 0 0 0 127 0"/><feOffset dx="-.047" dy="-.19"/><feGaussianBlur stdDeviation=".047"/><feComposite in2="hardAlpha" k2="-1" k3="1" operator="arithmetic"/><feColorMatrix values="0 0 0 0 0.741176 0 0 0 0 0.741176 0 0 0 0 0.741176 0 0 0 1 0"/><feBlend in2="effect1_innerShadow_21770_38446" result="effect2_innerShadow_21770_38446"/></filter><filter id="filter19_dii_21770_38446" width="18.545" height="8.397" x="61.979" y="58.838" color-interpolation-filters="sRGB" filterUnits="userSpaceOnUse"><feFlood flood-opacity="0" result="BackgroundImageFix"/><feColorMatrix in="SourceAlpha" result="hardAlpha" values="0 0 0 0 0 0 0 0 0 0 0 0 0 0 0 0 0 0 127 0"/><feOffset dy=".95"/><feGaussianBlur stdDeviation=".95"/><feColorMatrix values="0 0 0 0 0 0 0 0 0 0 0 0 0 0 0 0 0 0 0.18 0"/><feBlend in2="BackgroundImageFix" result="effect1_dropShadow_21770_38446"/><feBlend in="SourceGraphic" in2="effect1_dropShadow_21770_38446" result="shape"/><feColorMatrix in="SourceAlpha" result="hardAlpha" values="0 0 0 0 0 0 0 0 0 0 0 0 0 0 0 0 0 0 127 0"/><feOffset dy=".427"/><feGaussianBlur stdDeviation=".166"/><feComposite in2="hardAlpha" k2="-1" k3="1" operator="arithmetic"/><feColorMatrix values="0 0 0 0 1 0 0 0 0 0.899147 0 0 0 0 0.591667 0 0 0 1 0"/><feBlend in2="shape" result="effect2_innerShadow_21770_38446"/><feColorMatrix in="SourceAlpha" result="hardAlpha" values="0 0 0 0 0 0 0 0 0 0 0 0 0 0 0 0 0 0 127 0"/><feOffset dx="-.047" dy="-.427"/><feGaussianBlur stdDeviation=".142"/><feComposite in2="hardAlpha" k2="-1" k3="1" operator="arithmetic"/><feColorMatrix values="0 0 0 0 0.941667 0 0 0 0 0.545853 0 0 0 0 0.180486 0 0 0 1 0"/><feBlend in2="effect2_innerShadow_21770_38446" result="effect3_innerShadow_21770_38446"/></filter><linearGradient id="paint0_linear_21770_38446" x1="56.55" x2="56.55" y1="0" y2="98.448" gradientUnits="userSpaceOnUse"><stop stop-color="#B5EFFF"/><stop offset="1" stop-color="#E7F8FE"/></linearGradient><linearGradient id="paint1_linear_21770_38446" x1="55.927" x2="55.927" y1="0" y2="97.873" gradientUnits="userSpaceOnUse"><stop stop-color="#B5EFFF"/><stop offset="1" stop-color="#EDFBFF"/></linearGradient><linearGradient id="paint6_linear_21770_38446" x1="49.563" x2="49.601" y1="37.421" y2="38.773" gradientUnits="userSpaceOnUse"><stop stop-color="#F1F1F1"/><stop offset="1" stop-color="#F8F8F8"/></linearGradient><linearGradient id="paint7_linear_21770_38446" x1="52.116" x2="52.188" y1="40.03" y2="41.512" gradientUnits="userSpaceOnUse"><stop stop-color="#F1F1F1"/><stop offset="1" stop-color="#F8F8F8"/></linearGradient><linearGradient id="paint8_linear_21770_38446" x1="118.682" x2="105.561" y1="53.69" y2="65.304" gradientUnits="userSpaceOnUse"><stop stop-color="#BAFFF1" stop-opacity=".26"/><stop offset=".682" stop-color="#4DC7AE"/><stop offset=".969" stop-color="#06896F"/></linearGradient><linearGradient id="paint9_linear_21770_38446" x1="112.919" x2="104.871" y1="58.27" y2="71.629" gradientUnits="userSpaceOnUse"><stop stop-color="#B7FDEF"/><stop offset=".682" stop-color="#09B794"/><stop offset=".969" stop-color="#7EE0CC"/></linearGradient><linearGradient id="paint10_linear_21770_38446" x1="113.099" x2="101.187" y1="77.101" y2="77.101" gradientUnits="userSpaceOnUse"><stop offset=".099" stop-color="#FFEEC5"/><stop offset=".607" stop-color="#FACD63"/><stop offset=".839" stop-color="#EAAF23"/><stop offset=".984" stop-color="#EDB52F"/></linearGradient><linearGradient id="paint11_linear_21770_38446" x1="113.563" x2="100.791" y1="69.979" y2="69.979" gradientUnits="userSpaceOnUse"><stop offset=".099" stop-color="#FFEEC5"/><stop offset=".607" stop-color="#FCBD27"/><stop offset=".984" stop-color="#EFB222"/></linearGradient><radialGradient id="paint2_radial_21770_38446" cx="0" cy="0" r="1" gradientTransform="rotate(-15.177 199.37 -.722) scale(10.143)" gradientUnits="userSpaceOnUse"><stop stop-color="#FFF1CF"/><stop offset=".188" stop-color="#FFE4A2"/><stop offset=".318" stop-color="#FFD364"/><stop offset=".49" stop-color="#FFD364"/><stop offset=".651" stop-color="#FFC73A"/><stop offset=".948" stop-color="#D09500"/></radialGradient><radialGradient id="paint3_radial_21770_38446" cx="0" cy="0" r="1" gradientTransform="matrix(-1.1735 1.88611 -1.71768 -1.0687 7.778 52.148)" gradientUnits="userSpaceOnUse"><stop stop-color="#fff"/><stop offset=".694" stop-color="#fff" stop-opacity="0"/></radialGradient><radialGradient id="paint4_radial_21770_38446" cx="0" cy="0" r="1" gradientTransform="rotate(-15.177 182.264 -368.64) scale(9.14744)" gradientUnits="userSpaceOnUse"><stop stop-color="#E6C6FF"/><stop offset=".188" stop-color="#C07DF5"/><stop offset=".318" stop-color="#BE6FFC"/><stop offset=".49" stop-color="#B56AF0"/><stop offset=".651" stop-color="#A745F4"/><stop offset=".948" stop-color="#9F3DED"/></radialGradient><radialGradient id="paint5_radial_21770_38446" cx="0" cy="0" r="1" gradientTransform="rotate(121.889 42.043 46.154) scale(2.00335 1.82445)" gradientUnits="userSpaceOnUse"><stop stop-color="#fff"/><stop offset=".694" stop-color="#fff" stop-opacity="0"/></radialGradient></defs></svg>