<svg width="137" height="129" viewBox="0 0 137 129" fill="none" xmlns="http://www.w3.org/2000/svg">
<mask id="mask0_112_24223" style="mask-type:alpha" maskUnits="userSpaceOnUse" x="0" y="0" width="129" height="129">
<path d="M64.2751 128.55C99.7733 128.55 128.55 99.7733 128.55 64.2751C128.55 28.777 99.7733 0 64.2751 0C28.777 0 0 28.777 0 64.2751C0 99.7733 28.777 128.55 64.2751 128.55Z" fill="url(#paint0_linear_112_24223)"/>
</mask>
<g mask="url(#mask0_112_24223)">
<path d="M64.267 127.799C99.7607 127.799 128.534 99.1904 128.534 63.8996C128.534 28.6088 99.7607 0 64.267 0C28.7733 0 0 28.6088 0 63.8996C0 99.1904 28.7733 127.799 64.267 127.799Z" fill="url(#paint1_linear_112_24223)"/>
<mask id="mask1_112_24223" style="mask-type:alpha" maskUnits="userSpaceOnUse" x="-13" y="-18" width="156" height="155">
<path d="M65.1709 136.805C107.872 136.805 142.487 102.189 142.487 59.4883C142.487 16.7876 107.872 -17.8281 65.1709 -17.8281C22.4702 -17.8281 -12.1455 16.7876 -12.1455 59.4883C-12.1455 102.189 22.4702 136.805 65.1709 136.805Z" fill="url(#paint2_linear_112_24223)"/>
</mask>
<g mask="url(#mask1_112_24223)">
<path d="M84.3428 34.3486C82.5894 34.3486 81.168 35.7701 81.168 37.5235V196.672H243.492V34.3486H84.3428ZM243.015 44.4392H233.322V34.7459H243.015V44.4392ZM162.529 105.142V95.4485H172.222V105.142H162.529ZM172.222 105.619V115.312H162.529V105.619H172.222ZM162.131 105.142H152.438V95.4485H162.131V105.142ZM162.131 105.619V115.312H152.438V105.619H162.131ZM151.961 115.312H142.268V105.619H151.961V115.312ZM151.961 115.709V125.403H142.268V115.709H151.961ZM152.438 115.709H162.131V125.403H152.438V115.709ZM162.131 125.8V135.493H152.438V125.8H162.131ZM162.529 125.8H172.222V135.493H162.529V125.8ZM162.529 125.403V115.709H172.222V125.403H162.529ZM172.619 115.709H182.312V125.403H172.619V115.709ZM172.619 115.312V105.619H182.312V115.312H172.619ZM172.619 105.142V95.4485H182.312V105.142H172.619ZM172.619 95.0512V85.3579H182.312V95.0512H172.619ZM172.222 95.0512H162.529V85.3579H172.222V95.0512ZM162.131 95.0512H152.438V85.3579H162.131V95.0512ZM151.961 95.0512H142.268V85.3579H151.961V95.0512ZM151.961 95.4485V105.142H142.268V95.4485H151.961ZM141.871 105.142H132.177V95.4485H141.871V105.142ZM141.871 105.619V115.312H132.177V105.619H141.871ZM141.871 115.709V125.403H132.177V115.709H141.871ZM141.871 125.8V135.493H132.177V125.8H141.871ZM142.268 125.8H151.961V135.493H142.268V125.8ZM151.961 135.97V145.663H142.268V135.97H151.961ZM152.438 135.97H162.131V145.663H152.438V135.97ZM162.529 135.97H172.222V145.663H162.529V135.97ZM172.619 135.97H182.312V145.663H172.619V135.97ZM172.619 135.493V125.8H182.312V135.493H172.619ZM182.789 125.8H192.483V135.493H182.789V125.8ZM182.789 125.403V115.709H192.483V125.403H182.789ZM182.789 115.312V105.619H192.483V115.312H182.789ZM182.789 105.142V95.4485H192.483V105.142H182.789ZM182.789 95.0512V85.3579H192.483V95.0512H182.789ZM182.789 84.9606V75.2673H192.483V84.9606H182.789ZM182.312 84.9606H172.619V75.2673H182.312V84.9606ZM172.222 84.9606H162.529V75.2673H172.222V84.9606ZM162.131 84.9606H152.438V75.2673H162.131V84.9606ZM151.961 84.9606H142.268V75.2673H151.961V84.9606ZM141.871 84.9606H132.177V75.2673H141.871V84.9606ZM141.871 85.3579V95.0512H132.177V85.3579H141.871ZM131.78 95.0512H122.087V85.3579H131.78V95.0512ZM131.78 95.4485V105.142H122.087V95.4485H131.78ZM131.78 105.619V115.312H122.087V105.619H131.78ZM131.78 115.709V125.403H122.087V115.709H131.78ZM131.78 125.8V135.493H122.087V125.8H131.78ZM131.78 135.97V145.663H122.087V135.97H131.78ZM132.177 135.97H141.871V145.663H132.177V135.97ZM141.871 146.06V155.754H132.177V146.06H141.871ZM142.268 146.06H151.961V155.754H142.268V146.06ZM152.438 146.06H162.131V155.754H152.438V146.06ZM162.529 146.06H172.222V155.754H162.529V146.06ZM172.619 146.06H182.312V155.754H172.619V146.06ZM182.789 146.06H192.483V155.754H182.789V146.06ZM182.789 145.663V135.97H192.483V145.663H182.789ZM192.88 135.97H202.573V145.663H192.88V135.97ZM192.88 135.493V125.8H202.573V135.493H192.88ZM192.88 125.403V115.709H202.573V125.403H192.88ZM192.88 115.312V105.619H202.573V115.312H192.88ZM192.88 105.142V95.4485H202.573V105.142H192.88ZM192.88 95.0512V85.3579H202.573V95.0512H192.88ZM192.88 84.9606V75.2673H202.573V84.9606H192.88ZM192.88 74.7905V65.0972H202.573V74.7905H192.88ZM192.483 74.7905H182.789V65.0972H192.483V74.7905ZM182.312 74.7905H172.619V65.0972H182.312V74.7905ZM172.222 74.7905H162.529V65.0972H172.222V74.7905ZM162.131 74.7905H152.438V65.0972H162.131V74.7905ZM151.961 74.7905H142.268V65.0972H151.961V74.7905ZM141.871 74.7905H132.177V65.0972H141.871V74.7905ZM131.78 74.7905H122.087V65.0972H131.78V74.7905ZM131.78 75.2673V84.9606H122.087V75.2673H131.78ZM121.61 84.9606H111.917V75.2673H121.61V84.9606ZM121.61 85.3579V95.0512H111.917V85.3579H121.61ZM121.61 95.4485V105.142H111.917V95.4485H121.61ZM121.61 105.619V115.312H111.917V105.619H121.61ZM121.61 115.709V125.403H111.917V115.709H121.61ZM121.61 125.8V135.493H111.917V125.8H121.61ZM121.61 135.97V145.663H111.917V135.97H121.61ZM121.61 146.06V155.754H111.917V146.06H121.61ZM122.087 146.06H131.78V155.754H122.087V146.06ZM131.78 156.151V165.844H122.087V156.151H131.78ZM132.177 156.151H141.871V165.844H132.177V156.151ZM142.268 156.151H151.961V165.844H142.268V156.151ZM152.438 156.151H162.131V165.844H152.438V156.151ZM162.529 156.151H172.222V165.844H162.529V156.151ZM172.619 156.151H182.312V165.844H172.619V156.151ZM182.789 156.151H192.483V165.844H182.789V156.151ZM192.88 156.151H202.573V165.844H192.88V156.151ZM192.88 155.754V146.06H202.573V155.754H192.88ZM202.97 146.06H212.664V155.754H202.97V146.06ZM202.97 145.663V135.97H212.664V145.663H202.97ZM202.97 135.493V125.8H212.664V135.493H202.97ZM202.97 125.403V115.709H212.664V125.403H202.97ZM202.97 115.312V105.619H212.664V115.312H202.97ZM202.97 105.142V95.4485H212.664V105.142H202.97ZM202.97 95.0512V85.3579H212.664V95.0512H202.97ZM202.97 84.9606V75.2673H212.664V84.9606H202.97ZM202.97 74.7905V65.0972H212.664V74.7905H202.97ZM202.97 64.6999V55.0066H212.664V64.6999H202.97ZM202.573 64.6999H192.88V55.0066H202.573V64.6999ZM192.483 64.6999H182.789V55.0066H192.483V64.6999ZM182.312 64.6999H172.619V55.0066H182.312V64.6999ZM172.222 64.6999H162.529V55.0066H172.222V64.6999ZM162.131 64.6999H152.438V55.0066H162.131V64.6999ZM151.961 64.6999H142.268V55.0066H151.961V64.6999ZM141.871 64.6999H132.177V55.0066H141.871V64.6999ZM131.78 64.6999H122.087V55.0066H131.78V64.6999ZM121.61 64.6999H111.917V55.0066H121.61V64.6999ZM121.61 65.0972V74.7905H111.917V65.0972H121.61ZM111.519 74.7905H101.826V65.0972H111.519V74.7905ZM111.519 75.2673V84.9606H101.826V75.2673H111.519ZM111.519 85.3579V95.0512H101.826V85.3579H111.519ZM111.519 95.4485V105.142H101.826V95.4485H111.519ZM111.519 105.619V115.312H101.826V105.619H111.519ZM111.519 115.709V125.403H101.826V115.709H111.519ZM111.519 125.8V135.493H101.826V125.8H111.519ZM111.519 135.97V145.663H101.826V135.97H111.519ZM111.519 146.06V155.754H101.826V146.06H111.519ZM111.519 156.151V165.844H101.826V156.151H111.519ZM111.917 156.151H121.61V165.844H111.917V156.151ZM121.61 166.321V176.014H111.917V166.321H121.61ZM122.087 166.321H131.78V176.014H122.087V166.321ZM132.177 166.321H141.871V176.014H132.177V166.321ZM142.268 166.321H151.961V176.014H142.268V166.321ZM152.438 166.321H162.131V176.014H152.438V166.321ZM162.529 166.321H172.222V176.014H162.529V166.321ZM172.619 166.321H182.312V176.014H172.619V166.321ZM182.789 166.321H192.483V176.014H182.789V166.321ZM192.88 166.321H202.573V176.014H192.88V166.321ZM202.97 166.321H212.664V176.014H202.97V166.321ZM202.97 165.844V156.151H212.664V165.844H202.97ZM213.14 156.151H222.834V165.844H213.14V156.151ZM213.14 155.754V146.06H222.834V155.754H213.14ZM213.14 145.663V135.97H222.834V145.663H213.14ZM213.14 135.493V125.8H222.834V135.493H213.14ZM213.14 125.403V115.709H222.834V125.403H213.14ZM213.14 115.312V105.619H222.834V115.312H213.14ZM213.14 105.142V95.4485H222.834V105.142H213.14ZM213.14 95.0512V85.3579H222.834V95.0512H213.14ZM213.14 84.9606V75.2673H222.834V84.9606H213.14ZM213.14 74.7905V65.0972H222.834V74.7905H213.14ZM213.14 64.6999V55.0066H222.834V64.6999H213.14ZM213.14 54.6093V44.916H222.834V54.6093H213.14ZM212.664 54.6093H202.97V44.916H212.664V54.6093ZM202.573 54.6093H192.88V44.916H202.573V54.6093ZM192.483 54.6093H182.789V44.916H192.483V54.6093ZM182.312 54.6093H172.619V44.916H182.312V54.6093ZM172.222 54.6093H162.529V44.916H172.222V54.6093ZM162.131 54.6093H152.438V44.916H162.131V54.6093ZM151.961 54.6093H142.268V44.916H151.961V54.6093ZM141.871 54.6093H132.177V44.916H141.871V54.6093ZM131.78 54.6093H122.087V44.916H131.78V54.6093ZM121.61 54.6093H111.917V44.916H121.61V54.6093ZM111.519 54.6093H101.826V44.916H111.519V54.6093ZM111.519 55.0066V64.6999H101.826V55.0066H111.519ZM101.429 64.6999H91.7353V55.0066H101.429V64.6999ZM101.429 65.0972V74.7905H91.7353V65.0972H101.429ZM101.429 75.2673V84.9606H91.7353V75.2673H101.429ZM101.429 85.3579V95.0512H91.7353V85.3579H101.429ZM101.429 95.4485V105.142H91.7353V95.4485H101.429ZM101.429 105.619V115.312H91.7353V105.619H101.429ZM101.429 115.709V125.403H91.7353V115.709H101.429ZM101.429 125.8V135.493H91.7353V125.8H101.429ZM101.429 135.97V145.663H91.7353V135.97H101.429ZM101.429 146.06V155.754H91.7353V146.06H101.429ZM101.429 156.151V165.844H91.7353V156.151H101.429ZM101.429 166.321V176.014H91.7353V166.321H101.429ZM101.826 166.321H111.519V176.014H101.826V166.321ZM111.519 176.412V186.105H101.826V176.412H111.519ZM111.917 176.412H121.61V186.105H111.917V176.412ZM122.087 176.412H131.78V186.105H122.087V176.412ZM132.177 176.412H141.871V186.105H132.177V176.412ZM142.268 176.412H151.961V186.105H142.268V176.412ZM152.438 176.412H162.131V186.105H152.438V176.412ZM162.529 176.412H172.222V186.105H162.529V176.412ZM172.619 176.412H182.312V186.105H172.619V176.412ZM182.789 176.412H192.483V186.105H182.789V176.412ZM192.88 176.412H202.573V186.105H192.88V176.412ZM202.97 176.412H212.664V186.105H202.97V176.412ZM213.14 176.412H222.834V186.105H213.14V176.412ZM213.14 176.014V166.321H222.834V176.014H213.14ZM223.231 166.321H232.924V176.014H223.231V166.321ZM223.231 165.844V156.151H232.924V165.844H223.231ZM223.231 155.754V146.06H232.924V155.754H223.231ZM223.231 145.663V135.97H232.924V145.663H223.231ZM223.231 135.493V125.8H232.924V135.493H223.231ZM223.231 125.403V115.709H232.924V125.403H223.231ZM223.231 115.312V105.619H232.924V115.312H223.231ZM223.231 105.142V95.4485H232.924V105.142H223.231ZM223.231 95.0512V85.3579H232.924V95.0512H223.231ZM223.231 84.9606V75.2673H232.924V84.9606H223.231ZM223.231 74.7905V65.0972H232.924V74.7905H223.231ZM223.231 64.6999V55.0066H232.924V64.6999H223.231ZM223.231 54.6093V44.916H232.924V54.6093H223.231ZM223.231 44.4392V34.7459H232.924V44.4392H223.231ZM222.834 44.4392H213.14V34.7459H222.834V44.4392ZM212.664 44.4392H202.97V34.7459H212.664V44.4392ZM202.573 44.4392H192.88V34.7459H202.573V44.4392ZM192.483 44.4392H182.789V34.7459H192.483V44.4392ZM182.312 44.4392H172.619V34.7459H182.312V44.4392ZM172.222 44.4392H162.529V34.7459H172.222V44.4392ZM162.131 44.4392H152.438V34.7459H162.131V44.4392ZM151.961 44.4392H142.268V34.7459H151.961V44.4392ZM141.871 44.4392H132.177V34.7459H141.871V44.4392ZM131.78 44.4392H122.087V34.7459H131.78V44.4392ZM121.61 44.4392H111.917V34.7459H121.61V44.4392ZM111.519 44.4392H101.826V34.7459H111.519V44.4392ZM101.429 44.4392H91.7353V34.7459H101.429V44.4392ZM101.429 44.916V54.6093H91.7353V44.916H101.429ZM91.2586 54.6093H81.5652V44.916H91.2586V54.6093ZM91.2586 55.0066V64.6999H81.5652V55.0066H91.2586ZM91.2586 65.0972V74.7905H81.5652V65.0972H91.2586ZM91.2586 75.2673V84.9606H81.5652V75.2673H91.2586ZM91.2586 85.3579V95.0512H81.5652V85.3579H91.2586ZM91.2586 95.4485V105.142H81.5652V95.4485H91.2586ZM91.2586 105.619V115.312H81.5652V105.619H91.2586ZM91.2586 115.709V125.403H81.5652V115.709H91.2586ZM91.2586 125.8V135.493H81.5652V125.8H91.2586ZM91.2586 135.97V145.663H81.5652V135.97H91.2586ZM91.2586 146.06V155.754H81.5652V146.06H91.2586ZM91.2586 156.151V165.844H81.5652V156.151H91.2586ZM91.2586 166.321V176.014H81.5652V166.321H91.2586ZM91.2586 176.412V186.105H81.5652V176.412H91.2586ZM91.7353 176.412H101.429V186.105H91.7353V176.412ZM101.429 186.502V196.196H91.7353V186.502H101.429ZM101.826 186.502H111.519V196.196H101.826V186.502ZM111.917 186.502H121.61V196.196H111.917V186.502ZM122.087 186.502H131.78V196.196H122.087V186.502ZM132.177 186.502H141.871V196.196H132.177V186.502ZM142.268 186.502H151.961V196.196H142.268V186.502ZM152.438 186.502H162.131V196.196H152.438V186.502ZM162.529 186.502H172.222V196.196H162.529V186.502ZM172.619 186.502H182.312V196.196H172.619V186.502ZM182.789 186.502H192.483V196.196H182.789V186.502ZM192.88 186.502H202.573V196.196H192.88V186.502ZM202.97 186.502H212.664V196.196H202.97V186.502ZM213.14 186.502H222.834V196.196H213.14V186.502ZM223.231 186.502H232.924V196.196H223.231V186.502ZM223.231 186.105V176.412H232.924V186.105H223.231ZM233.322 176.412H243.015V186.105H233.322V176.412ZM233.322 176.014V166.321H243.015V176.014H233.322ZM233.322 165.844V156.151H243.015V165.844H233.322ZM233.322 155.754V146.06H243.015V155.754H233.322ZM233.322 145.663V135.97H243.015V145.663H233.322ZM233.322 135.493V125.8H243.015V135.493H233.322ZM233.322 125.403V115.709H243.015V125.403H233.322ZM233.322 115.312V105.619H243.015V115.312H233.322ZM233.322 105.142V95.4485H243.015V105.142H233.322ZM233.322 95.0512V85.3579H243.015V95.0512H233.322ZM233.322 84.9606V75.2673H243.015V84.9606H233.322ZM233.322 74.7905V65.0972H243.015V74.7905H233.322ZM233.322 64.6999V55.0066H243.015V64.6999H233.322ZM233.322 54.6093V44.916H243.015V54.6093H233.322ZM91.2586 34.7459V44.4392H81.5652V37.9208C81.5652 36.1673 82.9867 34.7459 84.7401 34.7459H91.2586ZM81.5652 186.502H91.2586V196.196H81.5652V186.502ZM233.322 196.196V186.502H243.015V196.196H233.322Z" fill="white"/>
</g>
<rect x="4.12109" y="96.6025" width="120.611" height="45.8645" fill="url(#paint3_linear_112_24223)"/>
<rect x="87.6094" y="96.8936" width="120.611" height="45.8645" fill="url(#paint4_linear_112_24223)"/>
<rect x="-24.9502" y="94.7275" width="120.611" height="5.98934" fill="#E2E9F0"/>
<rect x="94.1807" y="94.7275" width="120.611" height="5.98934" fill="#8296A8"/>
</g>
<path d="M18.0488 28.4383C21.8462 28.4383 24.9247 25.3599 24.9247 21.5624C24.9247 17.765 21.8462 14.6865 18.0488 14.6865C14.2513 14.6865 11.1729 17.765 11.1729 21.5624C11.1729 25.3599 14.2513 28.4383 18.0488 28.4383Z" fill="url(#paint5_radial_112_24223)"/>
<g filter="url(#filter0_i_112_24223)">
<path d="M101.749 62.5241C101.749 59.5556 102.755 56.6749 104.604 54.3521C106.452 52.0293 109.033 50.4015 111.926 49.7345C112.445 49.6185 112.909 49.3294 113.242 48.9146C113.575 48.4999 113.758 47.9842 113.759 47.4522V38.0986C113.759 37.4767 113.512 36.8804 113.072 36.4406C112.632 36.0009 112.036 35.7539 111.414 35.7539H11.2177C10.5959 35.7539 9.99949 36.0009 9.55979 36.4406C9.12008 36.8804 8.87305 37.4767 8.87305 38.0986V47.3275C8.87474 47.8767 9.0692 48.4079 9.42248 48.8284C9.77576 49.249 10.2654 49.5321 10.8061 49.6285C13.8373 50.1638 16.5831 51.7498 18.5614 54.108C20.5396 56.4662 21.6239 59.446 21.6239 62.5241C21.6239 65.6022 20.5396 68.5819 18.5614 70.9401C16.5831 73.2984 13.8373 74.8844 10.8061 75.4197C10.2654 75.5161 9.77576 75.7992 9.42248 76.2197C9.0692 76.6402 8.87474 77.1714 8.87305 77.7207V86.9309C8.87305 87.5527 9.12008 88.1491 9.55979 88.5888C9.99949 89.0285 10.5959 89.2755 11.2177 89.2755H111.414C112.036 89.2755 112.632 89.0285 113.072 88.5888C113.512 88.1491 113.759 87.5527 113.759 86.9309V77.5772C113.758 77.0453 113.575 76.5295 113.242 76.1148C112.909 75.7001 112.445 75.411 111.926 75.2949C109.036 74.6286 106.457 73.0037 104.61 70.6847C102.762 68.3657 101.753 65.4893 101.749 62.5241V62.5241Z" fill="#92A2B1"/>
</g>
<g filter="url(#filter1_ii_112_24223)">
<path d="M81.6672 52.9922H41.8019C40.4244 52.9922 39.3076 54.109 39.3076 55.4866V55.4928C39.3076 56.8704 40.4244 57.9872 41.8019 57.9872H81.6672C83.0448 57.9872 84.1615 56.8704 84.1615 55.4928V55.4866C84.1615 54.109 83.0448 52.9922 81.6672 52.9922Z" fill="#F3F3F3"/>
</g>
<g filter="url(#filter2_ii_112_24223)">
<path d="M75.94 66.4854H48.6398C47.2622 66.4854 46.1455 67.6021 46.1455 68.9797V68.9859C46.1455 70.3635 47.2622 71.4802 48.6398 71.4802H75.94C77.3176 71.4802 78.4343 70.3635 78.4343 68.9859V68.9797C78.4343 67.6021 77.3176 66.4854 75.94 66.4854Z" fill="#F3F3F3"/>
</g>
<g filter="url(#filter3_dii_112_24223)">
<ellipse cx="110.715" cy="35.9681" rx="25.2851" ry="25.8235" fill="#FF8946"/>
</g>
<g clip-path="url(#clip0_112_24223)">
<path fill-rule="evenodd" clip-rule="evenodd" d="M119.416 32.9582C119.705 32.8724 120.015 32.9314 120.249 33.1296C120.477 33.3224 120.592 33.6117 120.554 33.9064C119.9 39.1992 117.903 46.1742 112.151 49.4099L112.162 49.4207L111.852 49.5707C111.552 49.7153 111.215 49.7903 110.877 49.7849H110.845C110.567 49.7849 110.29 49.7367 110.034 49.6349L110.007 49.6617L109.843 49.5546L109.571 49.426L109.582 49.4153C103.775 46.1421 101.794 39.0867 101.158 33.7242C101.125 33.4296 101.245 33.1403 101.479 32.9474C101.718 32.7599 102.028 32.701 102.317 32.7921L110.524 35.3849C110.698 35.4439 111.068 35.4439 111.247 35.3903L119.416 32.9582ZM116.461 42.0921C117.441 40.1046 118.154 37.7314 118.594 35.0421L111.764 37.0724C111.242 37.2278 110.507 37.2224 109.979 37.0564L103.122 34.8867C103.846 39.4617 105.735 45.2956 110.589 47.9528L110.665 47.9903L110.687 48.001C110.763 48.0385 110.981 48.0331 111.041 48.0064L111.062 47.9956C111.068 47.9956 111.079 47.9903 111.09 47.9849L111.209 47.9206C113.386 46.7099 115.155 44.7492 116.461 42.0921Z" fill="white"/>
<path fill-rule="evenodd" clip-rule="evenodd" d="M119.172 26.0753C119.591 25.952 120.048 26.0324 120.401 26.2895C120.75 26.5574 120.946 26.9538 120.935 27.3824V30.5753C120.935 30.9663 120.663 31.3145 120.282 31.4217L111.83 33.7413C111.553 33.811 111.259 33.8431 110.976 33.8431C110.693 33.8431 110.404 33.811 110.121 33.7413H110.116L101.675 31.4217C101.289 31.3199 101.022 30.9717 101.022 30.5753V27.3824C101.011 26.9592 101.212 26.552 101.555 26.2895L101.561 26.2842C101.914 26.0324 102.372 25.9574 102.785 26.0806L110.589 28.2288C110.85 28.2824 111.112 28.2824 111.367 28.2288L119.172 26.0753ZM119.15 29.9056V27.9128L111.841 29.9217C111.346 30.061 110.616 30.061 110.116 29.9217L102.807 27.9128V29.9056L110.589 32.0485C110.85 32.102 111.112 32.102 111.367 32.0485L119.15 29.9056Z" fill="white"/>
</g>
<path opacity="0.5" d="M103.344 116.015C101.712 115.011 101.304 112.719 102.434 110.93C103.533 109.141 105.761 108.482 107.393 109.486C109.026 110.491 109.434 112.782 108.304 114.571C107.174 116.392 104.945 117.02 103.344 116.015Z" fill="url(#paint6_radial_112_24223)"/>
<g filter="url(#filter4_i_112_24223)">
<path d="M112.236 103.44C112.208 103.433 112.18 103.428 112.155 103.411C111.402 102.894 113.498 93.6778 113.695 92.9948C114.691 89.5563 116.34 86.2099 118.992 83.7555C120.869 82.018 125.884 78.6185 128.487 80.6168C130.68 82.3032 128.625 86.5375 127.614 88.3081C125.802 91.4566 123.131 94.0074 120.85 96.7996C119.489 98.4697 118.122 100.172 116.761 101.842C116.662 101.97 115.807 103.185 115.289 103.786C115.068 104.044 114.75 104.077 114.42 103.994C113.715 103.816 112.478 103.502 112.236 103.44Z" fill="url(#paint7_linear_112_24223)"/>
</g>
<g filter="url(#filter5_i_112_24223)">
<path d="M115.239 106.2C116.352 106.44 117.344 105.494 117.111 104.379C115.833 98.2473 111.597 82.2587 102.625 85.172C94.4711 87.8487 111.995 103.617 114.533 105.85C114.737 106.03 114.974 106.143 115.239 106.2V106.2Z" fill="url(#paint8_linear_112_24223)"/>
</g>
<path d="M105.067 88.3613C105.067 88.3613 115.56 102.056 115.68 104.953Z" fill="#77FFE4" fill-opacity="0.2"/>
<path d="M125.385 83.3178C125.385 83.3178 116.763 94.3165 115.826 99.1982Z" fill="#77FFE4" fill-opacity="0.2"/>
<path d="M104.492 102.666C104.414 101.851 105.054 101.146 105.873 101.146H122.083C122.901 101.146 123.542 101.851 123.463 102.666L121.697 120.989C121.628 121.7 121.031 122.243 120.316 122.243H107.639C106.925 122.243 106.327 121.7 106.259 120.989L104.492 102.666Z" fill="url(#paint9_linear_112_24223)"/>
<g filter="url(#filter6_i_112_24223)">
<rect x="103.648" y="101.146" width="20.6553" height="5.08509" rx="0.693524" fill="url(#paint10_linear_112_24223)"/>
</g>
<defs>
<filter id="filter0_i_112_24223" x="8.78305" y="35.1139" width="104.976" height="54.1615" filterUnits="userSpaceOnUse" color-interpolation-filters="sRGB">
<feFlood flood-opacity="0" result="BackgroundImageFix"/>
<feBlend mode="normal" in="SourceGraphic" in2="BackgroundImageFix" result="shape"/>
<feColorMatrix in="SourceAlpha" type="matrix" values="0 0 0 0 0 0 0 0 0 0 0 0 0 0 0 0 0 0 127 0" result="hardAlpha"/>
<feOffset dx="-0.09" dy="-0.64"/>
<feGaussianBlur stdDeviation="0.5"/>
<feComposite in2="hardAlpha" operator="arithmetic" k2="-1" k3="1"/>
<feColorMatrix type="matrix" values="0 0 0 0 0.438437 0 0 0 0 0.508921 0 0 0 0 0.575 0 0 0 1 0"/>
<feBlend mode="normal" in2="shape" result="effect1_innerShadow_112_24223"/>
</filter>
<filter id="filter1_ii_112_24223" x="39.2085" y="52.794" width="44.9526" height="5.49053" filterUnits="userSpaceOnUse" color-interpolation-filters="sRGB">
<feFlood flood-opacity="0" result="BackgroundImageFix"/>
<feBlend mode="normal" in="SourceGraphic" in2="BackgroundImageFix" result="shape"/>
<feColorMatrix in="SourceAlpha" type="matrix" values="0 0 0 0 0 0 0 0 0 0 0 0 0 0 0 0 0 0 127 0" result="hardAlpha"/>
<feOffset dy="0.495411"/>
<feGaussianBlur stdDeviation="0.148623"/>
<feComposite in2="hardAlpha" operator="arithmetic" k2="-1" k3="1"/>
<feColorMatrix type="matrix" values="0 0 0 0 1 0 0 0 0 1 0 0 0 0 1 0 0 0 1 0"/>
<feBlend mode="normal" in2="shape" result="effect1_innerShadow_112_24223"/>
<feColorMatrix in="SourceAlpha" type="matrix" values="0 0 0 0 0 0 0 0 0 0 0 0 0 0 0 0 0 0 127 0" result="hardAlpha"/>
<feOffset dx="-0.0990822" dy="-0.396329"/>
<feGaussianBlur stdDeviation="0.0990822"/>
<feComposite in2="hardAlpha" operator="arithmetic" k2="-1" k3="1"/>
<feColorMatrix type="matrix" values="0 0 0 0 0.833333 0 0 0 0 0.833333 0 0 0 0 0.833333 0 0 0 1 0"/>
<feBlend mode="normal" in2="effect1_innerShadow_112_24223" result="effect2_innerShadow_112_24223"/>
</filter>
<filter id="filter2_ii_112_24223" x="46.0464" y="66.2872" width="32.3881" height="5.49053" filterUnits="userSpaceOnUse" color-interpolation-filters="sRGB">
<feFlood flood-opacity="0" result="BackgroundImageFix"/>
<feBlend mode="normal" in="SourceGraphic" in2="BackgroundImageFix" result="shape"/>
<feColorMatrix in="SourceAlpha" type="matrix" values="0 0 0 0 0 0 0 0 0 0 0 0 0 0 0 0 0 0 127 0" result="hardAlpha"/>
<feOffset dy="0.495411"/>
<feGaussianBlur stdDeviation="0.148623"/>
<feComposite in2="hardAlpha" operator="arithmetic" k2="-1" k3="1"/>
<feColorMatrix type="matrix" values="0 0 0 0 1 0 0 0 0 1 0 0 0 0 1 0 0 0 1 0"/>
<feBlend mode="normal" in2="shape" result="effect1_innerShadow_112_24223"/>
<feColorMatrix in="SourceAlpha" type="matrix" values="0 0 0 0 0 0 0 0 0 0 0 0 0 0 0 0 0 0 127 0" result="hardAlpha"/>
<feOffset dx="-0.0990822" dy="-0.396329"/>
<feGaussianBlur stdDeviation="0.0990822"/>
<feComposite in2="hardAlpha" operator="arithmetic" k2="-1" k3="1"/>
<feColorMatrix type="matrix" values="0 0 0 0 0.833333 0 0 0 0 0.833333 0 0 0 0 0.833333 0 0 0 1 0"/>
<feBlend mode="normal" in2="effect1_innerShadow_112_24223" result="effect2_innerShadow_112_24223"/>
</filter>
<filter id="filter3_dii_112_24223" x="84.5661" y="9.62638" width="52.2975" height="53.8928" filterUnits="userSpaceOnUse" color-interpolation-filters="sRGB">
<feFlood flood-opacity="0" result="BackgroundImageFix"/>
<feColorMatrix in="SourceAlpha" type="matrix" values="0 0 0 0 0 0 0 0 0 0 0 0 0 0 0 0 0 0 127 0" result="hardAlpha"/>
<feOffset dy="0.863587"/>
<feGaussianBlur stdDeviation="0.431794"/>
<feColorMatrix type="matrix" values="0 0 0 0 0 0 0 0 0 0 0 0 0 0 0 0 0 0 0.25 0"/>
<feBlend mode="normal" in2="BackgroundImageFix" result="effect1_dropShadow_112_24223"/>
<feBlend mode="normal" in="SourceGraphic" in2="effect1_dropShadow_112_24223" result="shape"/>
<feColorMatrix in="SourceAlpha" type="matrix" values="0 0 0 0 0 0 0 0 0 0 0 0 0 0 0 0 0 0 127 0" result="hardAlpha"/>
<feOffset dy="0.777228"/>
<feGaussianBlur stdDeviation="0.302255"/>
<feComposite in2="hardAlpha" operator="arithmetic" k2="-1" k3="1"/>
<feColorMatrix type="matrix" values="0 0 0 0 1 0 0 0 0 0.838871 0 0 0 0 0.691667 0 0 0 1 0"/>
<feBlend mode="normal" in2="shape" result="effect2_innerShadow_112_24223"/>
<feColorMatrix in="SourceAlpha" type="matrix" values="0 0 0 0 0 0 0 0 0 0 0 0 0 0 0 0 0 0 127 0" result="hardAlpha"/>
<feOffset dx="-0.0863587" dy="-0.777228"/>
<feGaussianBlur stdDeviation="0.259076"/>
<feComposite in2="hardAlpha" operator="arithmetic" k2="-1" k3="1"/>
<feColorMatrix type="matrix" values="0 0 0 0 0.808333 0 0 0 0 0.461597 0 0 0 0 0.144826 0 0 0 1 0"/>
<feBlend mode="normal" in2="effect2_innerShadow_112_24223" result="effect3_innerShadow_112_24223"/>
</filter>
<filter id="filter4_i_112_24223" x="111.993" y="79.7516" width="18.1329" height="24.2826" filterUnits="userSpaceOnUse" color-interpolation-filters="sRGB">
<feFlood flood-opacity="0" result="BackgroundImageFix"/>
<feBlend mode="normal" in="SourceGraphic" in2="BackgroundImageFix" result="shape"/>
<feColorMatrix in="SourceAlpha" type="matrix" values="0 0 0 0 0 0 0 0 0 0 0 0 0 0 0 0 0 0 127 0" result="hardAlpha"/>
<feOffset dx="0.665089" dy="-0.254246"/>
<feGaussianBlur stdDeviation="0.866905"/>
<feComposite in2="hardAlpha" operator="arithmetic" k2="-1" k3="1"/>
<feColorMatrix type="matrix" values="0 0 0 0 0.113056 0 0 0 0 0.616667 0 0 0 0 0.58645 0 0 0 1 0"/>
<feBlend mode="normal" in2="shape" result="effect1_innerShadow_112_24223"/>
</filter>
<filter id="filter5_i_112_24223" x="100.479" y="84.5661" width="17.3321" height="21.6712" filterUnits="userSpaceOnUse" color-interpolation-filters="sRGB">
<feFlood flood-opacity="0" result="BackgroundImageFix"/>
<feBlend mode="normal" in="SourceGraphic" in2="BackgroundImageFix" result="shape"/>
<feColorMatrix in="SourceAlpha" type="matrix" values="0 0 0 0 0 0 0 0 0 0 0 0 0 0 0 0 0 0 127 0" result="hardAlpha"/>
<feOffset dx="0.665089" dy="-0.254246"/>
<feGaussianBlur stdDeviation="0.866905"/>
<feComposite in2="hardAlpha" operator="arithmetic" k2="-1" k3="1"/>
<feColorMatrix type="matrix" values="0 0 0 0 0.0996528 0 0 0 0 0.683333 0 0 0 0 0.555806 0 0 0 1 0"/>
<feBlend mode="normal" in2="shape" result="effect1_innerShadow_112_24223"/>
</filter>
<filter id="filter6_i_112_24223" x="103.648" y="100.937" width="20.9327" height="5.29302" filterUnits="userSpaceOnUse" color-interpolation-filters="sRGB">
<feFlood flood-opacity="0" result="BackgroundImageFix"/>
<feBlend mode="normal" in="SourceGraphic" in2="BackgroundImageFix" result="shape"/>
<feColorMatrix in="SourceAlpha" type="matrix" values="0 0 0 0 0 0 0 0 0 0 0 0 0 0 0 0 0 0 127 0" result="hardAlpha"/>
<feOffset dx="0.27741" dy="-0.208057"/>
<feGaussianBlur stdDeviation="0.242733"/>
<feComposite in2="hardAlpha" operator="arithmetic" k2="-1" k3="1"/>
<feColorMatrix type="matrix" values="0 0 0 0 0.833333 0 0 0 0 0.604343 0 0 0 0 0.0555555 0 0 0 1 0"/>
<feBlend mode="normal" in2="shape" result="effect1_innerShadow_112_24223"/>
</filter>
<linearGradient id="paint0_linear_112_24223" x1="64.2751" y1="0" x2="64.2751" y2="128.55" gradientUnits="userSpaceOnUse">
<stop stop-color="#B5EFFF"/>
<stop offset="1" stop-color="#E7F8FE"/>
</linearGradient>
<linearGradient id="paint1_linear_112_24223" x1="64.267" y1="0" x2="64.267" y2="127.799" gradientUnits="userSpaceOnUse">
<stop stop-color="#B5EFFF"/>
<stop offset="1" stop-color="#EDFBFF"/>
</linearGradient>
<linearGradient id="paint2_linear_112_24223" x1="65.1709" y1="-17.8281" x2="65.1709" y2="136.805" gradientUnits="userSpaceOnUse">
<stop stop-color="#B5EFFF"/>
<stop offset="1" stop-color="#E7F8FE"/>
</linearGradient>
<linearGradient id="paint3_linear_112_24223" x1="63.1524" y1="99.0542" x2="64.4265" y2="128.184" gradientUnits="userSpaceOnUse">
<stop stop-color="#CFD7DF"/>
<stop offset="1" stop-color="#E1E9F1"/>
</linearGradient>
<linearGradient id="paint4_linear_112_24223" x1="147.915" y1="96.8936" x2="147.915" y2="142.758" gradientUnits="userSpaceOnUse">
<stop stop-color="#647A8E"/>
<stop offset="1" stop-color="#647A8E" stop-opacity="0"/>
</linearGradient>
<radialGradient id="paint5_radial_112_24223" cx="0" cy="0" r="1" gradientUnits="userSpaceOnUse" gradientTransform="translate(14.7781 18.7859) rotate(-15.1772) scale(13.1123)">
<stop stop-color="#E6C6FF"/>
<stop offset="0.1875" stop-color="#C07DF5"/>
<stop offset="0.317708" stop-color="#BE6FFC"/>
<stop offset="0.489583" stop-color="#B56AF0"/>
<stop offset="0.651042" stop-color="#A745F4"/>
<stop offset="0.947917" stop-color="#9F3DED"/>
</radialGradient>
<radialGradient id="paint6_radial_112_24223" cx="0" cy="0" r="1" gradientUnits="userSpaceOnUse" gradientTransform="translate(105.346 112.777) rotate(121.889) scale(3.76234 3.42637)">
<stop stop-color="white"/>
<stop offset="0.6944" stop-color="white" stop-opacity="0"/>
</radialGradient>
<linearGradient id="paint7_linear_112_24223" x1="131.992" y1="80.382" x2="112.538" y2="97.8528" gradientUnits="userSpaceOnUse">
<stop stop-color="#BAFFF1" stop-opacity="0.26"/>
<stop offset="0.682292" stop-color="#4DC7AE"/>
<stop offset="0.96875" stop-color="#06896F"/>
</linearGradient>
<linearGradient id="paint8_linear_112_24223" x1="123.338" y1="87.1617" x2="111.507" y2="107.087" gradientUnits="userSpaceOnUse">
<stop stop-color="#B7FDEF"/>
<stop offset="0.682292" stop-color="#09B794"/>
<stop offset="0.96875" stop-color="#7EE0CC"/>
</linearGradient>
<linearGradient id="paint9_linear_112_24223" x1="123.61" y1="115.034" x2="105.72" y2="115.034" gradientUnits="userSpaceOnUse">
<stop offset="0.0989583" stop-color="#FFEEC5"/>
<stop offset="0.606776" stop-color="#FACD63"/>
<stop offset="0.838542" stop-color="#EAAF23"/>
<stop offset="0.984375" stop-color="#EDB52F"/>
</linearGradient>
<linearGradient id="paint10_linear_112_24223" x1="124.304" y1="104.493" x2="105.122" y2="104.493" gradientUnits="userSpaceOnUse">
<stop offset="0.0989583" stop-color="#FFEEC5"/>
<stop offset="0.606776" stop-color="#FCBD27"/>
<stop offset="0.984375" stop-color="#EFB222"/>
</linearGradient>
<clipPath id="clip0_112_24223">
<rect width="20" height="24" fill="white" transform="translate(101 26)"/>
</clipPath>
</defs>
</svg>
