<svg width="134" height="126" viewBox="0 0 134 126" fill="none" xmlns="http://www.w3.org/2000/svg">
<g clip-path="url(#clip0_584_48351)">
<mask id="mask0_584_48351" style="mask-type:alpha" maskUnits="userSpaceOnUse" x="0" y="0" width="126" height="125">
<path d="M62.8985 124.797C97.3602 124.797 125.297 96.8602 125.297 62.3985C125.297 27.9368 97.3602 0 62.8985 0C28.4368 0 0.5 27.9368 0.5 62.3985C0.5 96.8602 28.4368 124.797 62.8985 124.797Z" fill="url(#paint0_linear_584_48351)"/>
</mask>
<g mask="url(#mask0_584_48351)">
<path d="M62.8906 124.068C97.348 124.068 125.281 96.2943 125.281 62.0339C125.281 27.7735 97.348 0 62.8906 0C28.4332 0 0.5 27.7735 0.5 62.0339C0.5 96.2943 28.4332 124.068 62.8906 124.068Z" fill="url(#paint1_linear_584_48351)"/>
<mask id="mask1_584_48351" style="mask-type:alpha" maskUnits="userSpaceOnUse" x="-12" y="-18" width="151" height="151">
<path d="M63.768 132.811C105.222 132.811 138.827 99.2053 138.827 57.7514C138.827 16.2974 105.222 -17.3076 63.768 -17.3076C22.314 -17.3076 -11.291 16.2974 -11.291 57.7514C-11.291 99.2053 22.314 132.811 63.768 132.811Z" fill="url(#paint2_linear_584_48351)"/>
</mask>
<g mask="url(#mask1_584_48351)">
<path d="M82.3809 33.3457C80.6787 33.3457 79.2988 34.7257 79.2988 36.4279V190.93H236.883V33.3457H82.3809ZM236.42 43.1417H227.01V33.7314H236.42V43.1417ZM158.284 102.072V92.6617H167.694V102.072H158.284ZM167.694 102.535V111.945H158.284V102.535H167.694ZM157.898 102.072H148.488V92.6617H157.898V102.072ZM157.898 102.535V111.945H148.488V102.535H157.898ZM148.025 111.945H138.615V102.535H148.025V111.945ZM148.025 112.331V121.742H138.615V112.331H148.025ZM148.488 112.331H157.898V121.742H148.488V112.331ZM157.898 122.127V131.537H148.488V122.127H157.898ZM158.284 122.127H167.694V131.537H158.284V122.127ZM158.284 121.742V112.331H167.694V121.742H158.284ZM168.08 112.331H177.49V121.742H168.08V112.331ZM168.08 111.945V102.535H177.49V111.945H168.08ZM168.08 102.072V92.6617H177.49V102.072H168.08ZM168.08 92.276V82.8657H177.49V92.276H168.08ZM167.694 92.276H158.284V82.8657H167.694V92.276ZM157.898 92.276H148.488V82.8657H157.898V92.276ZM148.025 92.276H138.615V82.8657H148.025V92.276ZM148.025 92.6617V102.072H138.615V92.6617H148.025ZM138.229 102.072H128.819V92.6617H138.229V102.072ZM138.229 102.535V111.945H128.819V102.535H138.229ZM138.229 112.331V121.742H128.819V112.331H138.229ZM138.229 122.127V131.537H128.819V122.127H138.229ZM138.615 122.127H148.025V131.537H138.615V122.127ZM148.025 132V141.41H138.615V132H148.025ZM148.488 132H157.898V141.41H148.488V132ZM158.284 132H167.694V141.41H158.284V132ZM168.08 132H177.49V141.41H168.08V132ZM168.08 131.537V122.127H177.49V131.537H168.08ZM177.953 122.127H187.364V131.537H177.953V122.127ZM177.953 121.742V112.331H187.364V121.742H177.953ZM177.953 111.945V102.535H187.364V111.945H177.953ZM177.953 102.072V92.6617H187.364V102.072H177.953ZM177.953 92.276V82.8657H187.364V92.276H177.953ZM177.953 82.48V73.0697H187.364V82.48H177.953ZM177.49 82.48H168.08V73.0697H177.49V82.48ZM167.694 82.48H158.284V73.0697H167.694V82.48ZM157.898 82.48H148.488V73.0697H157.898V82.48ZM148.025 82.48H138.615V73.0697H148.025V82.48ZM138.229 82.48H128.819V73.0697H138.229V82.48ZM138.229 82.8657V92.276H128.819V82.8657H138.229ZM128.433 92.276H119.023V82.8657H128.433V92.276ZM128.433 92.6617V102.072H119.023V92.6617H128.433ZM128.433 102.535V111.945H119.023V102.535H128.433ZM128.433 112.331V121.742H119.023V112.331H128.433ZM128.433 122.127V131.537H119.023V122.127H128.433ZM128.433 132V141.41H119.023V132H128.433ZM128.819 132H138.229V141.41H128.819V132ZM138.229 141.795V151.206H128.819V141.795H138.229ZM138.615 141.795H148.025V151.206H138.615V141.795ZM148.488 141.795H157.898V151.206H148.488V141.795ZM158.284 141.795H167.694V151.206H158.284V141.795ZM168.08 141.795H177.49V151.206H168.08V141.795ZM177.953 141.795H187.364V151.206H177.953V141.795ZM177.953 141.41V132H187.364V141.41H177.953ZM187.749 132H197.159V141.41H187.749V132ZM187.749 131.537V122.127H197.159V131.537H187.749ZM187.749 121.742V112.331H197.159V121.742H187.749ZM187.749 111.945V102.535H197.159V111.945H187.749ZM187.749 102.072V92.6617H197.159V102.072H187.749ZM187.749 92.276V82.8657H197.159V92.276H187.749ZM187.749 82.48V73.0697H197.159V82.48H187.749ZM187.749 72.6068V63.1965H197.159V72.6068H187.749ZM187.364 72.6068H177.953V63.1965H187.364V72.6068ZM177.49 72.6068H168.08V63.1965H177.49V72.6068ZM167.694 72.6068H158.284V63.1965H167.694V72.6068ZM157.898 72.6068H148.488V63.1965H157.898V72.6068ZM148.025 72.6068H138.615V63.1965H148.025V72.6068ZM138.229 72.6068H128.819V63.1965H138.229V72.6068ZM128.433 72.6068H119.023V63.1965H128.433V72.6068ZM128.433 73.0697V82.48H119.023V73.0697H128.433ZM118.56 82.48H109.15V73.0697H118.56V82.48ZM118.56 82.8657V92.276H109.15V82.8657H118.56ZM118.56 92.6617V102.072H109.15V92.6617H118.56ZM118.56 102.535V111.945H109.15V102.535H118.56ZM118.56 112.331V121.742H109.15V112.331H118.56ZM118.56 122.127V131.537H109.15V122.127H118.56ZM118.56 132V141.41H109.15V132H118.56ZM118.56 141.795V151.206H109.15V141.795H118.56ZM119.023 141.795H128.433V151.206H119.023V141.795ZM128.433 151.592V161.002H119.023V151.592H128.433ZM128.819 151.592H138.229V161.002H128.819V151.592ZM138.615 151.592H148.025V161.002H138.615V151.592ZM148.488 151.592H157.898V161.002H148.488V151.592ZM158.284 151.592H167.694V161.002H158.284V151.592ZM168.08 151.592H177.49V161.002H168.08V151.592ZM177.953 151.592H187.364V161.002H177.953V151.592ZM187.749 151.592H197.159V161.002H187.749V151.592ZM187.749 151.206V141.795H197.159V151.206H187.749ZM197.545 141.795H206.956V151.206H197.545V141.795ZM197.545 141.41V132H206.956V141.41H197.545ZM197.545 131.537V122.127H206.956V131.537H197.545ZM197.545 121.742V112.331H206.956V121.742H197.545ZM197.545 111.945V102.535H206.956V111.945H197.545ZM197.545 102.072V92.6617H206.956V102.072H197.545ZM197.545 92.276V82.8657H206.956V92.276H197.545ZM197.545 82.48V73.0697H206.956V82.48H197.545ZM197.545 72.6068V63.1965H206.956V72.6068H197.545ZM197.545 62.8108V53.4006H206.956V62.8108H197.545ZM197.159 62.8108H187.749V53.4006H197.159V62.8108ZM187.364 62.8108H177.953V53.4006H187.364V62.8108ZM177.49 62.8108H168.08V53.4006H177.49V62.8108ZM167.694 62.8108H158.284V53.4006H167.694V62.8108ZM157.898 62.8108H148.488V53.4006H157.898V62.8108ZM148.025 62.8108H138.615V53.4006H148.025V62.8108ZM138.229 62.8108H128.819V53.4006H138.229V62.8108ZM128.433 62.8108H119.023V53.4006H128.433V62.8108ZM118.56 62.8108H109.15V53.4006H118.56V62.8108ZM118.56 63.1965V72.6068H109.15V63.1965H118.56ZM108.764 72.6068H99.3537V63.1965H108.764V72.6068ZM108.764 73.0697V82.48H99.3537V73.0697H108.764ZM108.764 82.8657V92.276H99.3537V82.8657H108.764ZM108.764 92.6617V102.072H99.3537V92.6617H108.764ZM108.764 102.535V111.945H99.3537V102.535H108.764ZM108.764 112.331V121.742H99.3537V112.331H108.764ZM108.764 122.127V131.537H99.3537V122.127H108.764ZM108.764 132V141.41H99.3537V132H108.764ZM108.764 141.795V151.206H99.3537V141.795H108.764ZM108.764 151.592V161.002H99.3537V151.592H108.764ZM109.15 151.592H118.56V161.002H109.15V151.592ZM118.56 161.465V170.875H109.15V161.465H118.56ZM119.023 161.465H128.433V170.875H119.023V161.465ZM128.819 161.465H138.229V170.875H128.819V161.465ZM138.615 161.465H148.025V170.875H138.615V161.465ZM148.488 161.465H157.898V170.875H148.488V161.465ZM158.284 161.465H167.694V170.875H158.284V161.465ZM168.08 161.465H177.49V170.875H168.08V161.465ZM177.953 161.465H187.364V170.875H177.953V161.465ZM187.749 161.465H197.159V170.875H187.749V161.465ZM197.545 161.465H206.956V170.875H197.545V161.465ZM197.545 161.002V151.592H206.956V161.002H197.545ZM207.418 151.592H216.829V161.002H207.418V151.592ZM207.418 151.206V141.795H216.829V151.206H207.418ZM207.418 141.41V132H216.829V141.41H207.418ZM207.418 131.537V122.127H216.829V131.537H207.418ZM207.418 121.742V112.331H216.829V121.742H207.418ZM207.418 111.945V102.535H216.829V111.945H207.418ZM207.418 102.072V92.6617H216.829V102.072H207.418ZM207.418 92.276V82.8657H216.829V92.276H207.418ZM207.418 82.48V73.0697H216.829V82.48H207.418ZM207.418 72.6068V63.1965H216.829V72.6068H207.418ZM207.418 62.8108V53.4006H216.829V62.8108H207.418ZM207.418 53.0149V43.6046H216.829V53.0149H207.418ZM206.956 53.0149H197.545V43.6046H206.956V53.0149ZM197.159 53.0149H187.749V43.6046H197.159V53.0149ZM187.364 53.0149H177.953V43.6046H187.364V53.0149ZM177.49 53.0149H168.08V43.6046H177.49V53.0149ZM167.694 53.0149H158.284V43.6046H167.694V53.0149ZM157.898 53.0149H148.488V43.6046H157.898V53.0149ZM148.025 53.0149H138.615V43.6046H148.025V53.0149ZM138.229 53.0149H128.819V43.6046H138.229V53.0149ZM128.433 53.0149H119.023V43.6046H128.433V53.0149ZM118.56 53.0149H109.15V43.6046H118.56V53.0149ZM108.764 53.0149H99.3537V43.6046H108.764V53.0149ZM108.764 53.4006V62.8108H99.3537V53.4006H108.764ZM98.9683 62.8108H89.5576V53.4006H98.9683V62.8108ZM98.9683 63.1965V72.6068H89.5576V63.1965H98.9683ZM98.9683 73.0697V82.48H89.5576V73.0697H98.9683ZM98.9683 82.8657V92.276H89.5576V82.8657H98.9683ZM98.9683 92.6617V102.072H89.5576V92.6617H98.9683ZM98.9683 102.535V111.945H89.5576V102.535H98.9683ZM98.9683 112.331V121.742H89.5576V112.331H98.9683ZM98.9683 122.127V131.537H89.5576V122.127H98.9683ZM98.9683 132V141.41H89.5576V132H98.9683ZM98.9683 141.795V151.206H89.5576V141.795H98.9683ZM98.9683 151.592V161.002H89.5576V151.592H98.9683ZM98.9683 161.465V170.875H89.5576V161.465H98.9683ZM99.3537 161.465H108.764V170.875H99.3537V161.465ZM108.764 171.261V180.671H99.3537V171.261H108.764ZM109.15 171.261H118.56V180.671H109.15V171.261ZM119.023 171.261H128.433V180.671H119.023V171.261ZM128.819 171.261H138.229V180.671H128.819V171.261ZM138.615 171.261H148.025V180.671H138.615V171.261ZM148.488 171.261H157.898V180.671H148.488V171.261ZM158.284 171.261H167.694V180.671H158.284V171.261ZM168.08 171.261H177.49V180.671H168.08V171.261ZM177.953 171.261H187.364V180.671H177.953V171.261ZM187.749 171.261H197.159V180.671H187.749V171.261ZM197.545 171.261H206.956V180.671H197.545V171.261ZM207.418 171.261H216.829V180.671H207.418V171.261ZM207.418 170.875V161.465H216.829V170.875H207.418ZM217.214 161.465H226.624V170.875H217.214V161.465ZM217.214 161.002V151.592H226.624V161.002H217.214ZM217.214 151.206V141.795H226.624V151.206H217.214ZM217.214 141.41V132H226.624V141.41H217.214ZM217.214 131.537V122.127H226.624V131.537H217.214ZM217.214 121.742V112.331H226.624V121.742H217.214ZM217.214 111.945V102.535H226.624V111.945H217.214ZM217.214 102.072V92.6617H226.624V102.072H217.214ZM217.214 92.276V82.8657H226.624V92.276H217.214ZM217.214 82.48V73.0697H226.624V82.48H217.214ZM217.214 72.6068V63.1965H226.624V72.6068H217.214ZM217.214 62.8108V53.4006H226.624V62.8108H217.214ZM217.214 53.0149V43.6046H226.624V53.0149H217.214ZM217.214 43.1417V33.7314H226.624V43.1417H217.214ZM216.829 43.1417H207.418V33.7314H216.829V43.1417ZM206.956 43.1417H197.545V33.7314H206.956V43.1417ZM197.159 43.1417H187.749V33.7314H197.159V43.1417ZM187.364 43.1417H177.953V33.7314H187.364V43.1417ZM177.49 43.1417H168.08V33.7314H177.49V43.1417ZM167.694 43.1417H158.284V33.7314H167.694V43.1417ZM157.898 43.1417H148.488V33.7314H157.898V43.1417ZM148.025 43.1417H138.615V33.7314H148.025V43.1417ZM138.229 43.1417H128.819V33.7314H138.229V43.1417ZM128.433 43.1417H119.023V33.7314H128.433V43.1417ZM118.56 43.1417H109.15V33.7314H118.56V43.1417ZM108.764 43.1417H99.3537V33.7314H108.764V43.1417ZM98.9683 43.1417H89.5576V33.7314H98.9683V43.1417ZM98.9683 43.6046V53.0149H89.5576V43.6046H98.9683ZM89.0948 53.0149H79.6844V43.6046H89.0948V53.0149ZM89.0948 53.4006V62.8108H79.6844V53.4006H89.0948ZM89.0948 63.1965V72.6068H79.6844V63.1965H89.0948ZM89.0948 73.0697V82.48H79.6844V73.0697H89.0948ZM89.0948 82.8657V92.276H79.6844V82.8657H89.0948ZM89.0948 92.6617V102.072H79.6844V92.6617H89.0948ZM89.0948 102.535V111.945H79.6844V102.535H89.0948ZM89.0948 112.331V121.742H79.6844V112.331H89.0948ZM89.0948 122.127V131.537H79.6844V122.127H89.0948ZM89.0948 132V141.41H79.6844V132H89.0948ZM89.0948 141.795V151.206H79.6844V141.795H89.0948ZM89.0948 151.592V161.002H79.6844V151.592H89.0948ZM89.0948 161.465V170.875H79.6844V161.465H89.0948ZM89.0948 171.261V180.671H79.6844V171.261H89.0948ZM89.5576 171.261H98.9683V180.671H89.5576V171.261ZM98.9683 181.057V190.468H89.5576V181.057H98.9683ZM99.3537 181.057H108.764V190.468H99.3537V181.057ZM109.15 181.057H118.56V190.468H109.15V181.057ZM119.023 181.057H128.433V190.468H119.023V181.057ZM128.819 181.057H138.229V190.468H128.819V181.057ZM138.615 181.057H148.025V190.468H138.615V181.057ZM148.488 181.057H157.898V190.468H148.488V181.057ZM158.284 181.057H167.694V190.468H158.284V181.057ZM168.08 181.057H177.49V190.468H168.08V181.057ZM177.953 181.057H187.364V190.468H177.953V181.057ZM187.749 181.057H197.159V190.468H187.749V181.057ZM197.545 181.057H206.956V190.468H197.545V181.057ZM207.418 181.057H216.829V190.468H207.418V181.057ZM217.214 181.057H226.624V190.468H217.214V181.057ZM217.214 180.671V171.261H226.624V180.671H217.214ZM227.01 171.261H236.42V180.671H227.01V171.261ZM227.01 170.875V161.465H236.42V170.875H227.01ZM227.01 161.002V151.592H236.42V161.002H227.01ZM227.01 151.206V141.795H236.42V151.206H227.01ZM227.01 141.41V132H236.42V141.41H227.01ZM227.01 131.537V122.127H236.42V131.537H227.01ZM227.01 121.742V112.331H236.42V121.742H227.01ZM227.01 111.945V102.535H236.42V111.945H227.01ZM227.01 102.072V92.6617H236.42V102.072H227.01ZM227.01 92.276V82.8657H236.42V92.276H227.01ZM227.01 82.48V73.0697H236.42V82.48H227.01ZM227.01 72.6068V63.1965H236.42V72.6068H227.01ZM227.01 62.8108V53.4006H236.42V62.8108H227.01ZM227.01 53.0149V43.6046H236.42V53.0149H227.01ZM89.0948 33.7314V43.1417H79.6844V36.8136C79.6844 35.1113 81.0644 33.7314 82.7666 33.7314H89.0948ZM79.6844 181.057H89.0948V190.468H79.6844V181.057ZM227.01 190.468V181.057H236.42V190.468H227.01Z" fill="white"/>
</g>
<path d="M121.59 93.7822H4.50098V138.308H121.59V93.7822Z" fill="url(#paint3_linear_584_48351)"/>
<path d="M202.641 94.0645H85.5518V138.59H202.641V94.0645Z" fill="url(#paint4_linear_584_48351)"/>
<path d="M93.3678 91.9614H-23.7217V97.7759H93.3678V91.9614Z" fill="#E2E9F0"/>
<path d="M209.02 91.9614H91.9307V97.7759H209.02V91.9614Z" fill="#8296A8"/>
</g>
<path d="M18.0218 27.6076C21.7083 27.6076 24.697 24.6191 24.697 20.9325C24.697 17.2459 21.7083 14.2573 18.0218 14.2573C14.3352 14.2573 11.3467 17.2459 11.3467 20.9325C11.3467 24.6191 14.3352 27.6076 18.0218 27.6076Z" fill="url(#paint5_radial_584_48351)"/>
<g filter="url(#filter0_i_584_48351)">
<path d="M99.2785 60.6986C99.2785 57.8167 100.255 55.0201 102.05 52.7652C103.844 50.5102 106.35 48.9299 109.158 48.2824C109.662 48.1698 110.113 47.8891 110.436 47.4864C110.759 47.0838 110.937 46.5832 110.938 46.0667V36.9862C110.938 36.3825 110.698 35.8036 110.271 35.3766C109.844 34.9498 109.265 34.71 108.661 34.71H11.3905C10.7868 34.71 10.2078 34.9498 9.78095 35.3766C9.35408 35.8036 9.11426 36.3825 9.11426 36.9862V45.9456C9.1159 46.4788 9.30468 46.9945 9.64765 47.4027C9.99061 47.811 10.466 48.0859 10.9909 48.1795C13.9336 48.6991 16.5992 50.2388 18.5197 52.5282C20.4402 54.8175 21.4928 57.7103 21.4928 60.6986C21.4928 63.6868 20.4402 66.5795 18.5197 68.8688C16.5992 71.1583 13.9336 72.698 10.9909 73.2176C10.466 73.3112 9.99061 73.5861 9.64765 73.9943C9.30468 74.4025 9.1159 74.9182 9.11426 75.4515V84.3927C9.11426 84.9964 9.35408 85.5754 9.78095 86.0022C10.2078 86.4291 10.7868 86.6689 11.3905 86.6689H108.661C109.265 86.6689 109.844 86.4291 110.271 86.0022C110.698 85.5754 110.938 84.9964 110.938 84.3927V75.3121C110.937 74.7958 110.759 74.295 110.436 73.8924C110.113 73.4899 109.662 73.2092 109.158 73.0965C106.353 72.4496 103.849 70.8722 102.056 68.6209C100.262 66.3696 99.2824 63.5772 99.2785 60.6986Z" fill="#92A2B1"/>
</g>
<g filter="url(#filter1_ii_584_48351)">
<path d="M79.782 51.4448H41.0807C39.7434 51.4448 38.6592 52.529 38.6592 53.8664V53.8724C38.6592 55.2098 39.7434 56.294 41.0807 56.294H79.782C81.1194 56.294 82.2035 55.2098 82.2035 53.8724V53.8664C82.2035 52.529 81.1194 51.4448 79.782 51.4448Z" fill="#F3F3F3"/>
</g>
<g filter="url(#filter2_ii_584_48351)">
<path d="M74.2234 64.5444H47.7203C46.3829 64.5444 45.2988 65.6285 45.2988 66.9659V66.9719C45.2988 68.3093 46.3829 69.3934 47.7203 69.3934H74.2234C75.5608 69.3934 76.6449 68.3093 76.6449 66.9719V66.9659C76.6449 65.6285 75.5608 64.5444 74.2234 64.5444Z" fill="#F3F3F3"/>
</g>
<g filter="url(#filter3_dii_584_48351)">
<path d="M107.982 59.9872C121.539 59.9872 132.529 48.7632 132.529 34.9177C132.529 21.0722 121.539 9.84814 107.982 9.84814C94.4255 9.84814 83.4355 21.0722 83.4355 34.9177C83.4355 48.7632 94.4255 59.9872 107.982 59.9872Z" fill="#FF8946"/>
</g>
<mask id="mask2_584_48351" style="mask-type:luminance" maskUnits="userSpaceOnUse" x="98" y="25" width="20" height="24">
<path d="M117.968 25.2407H98.5518V48.54H117.968V25.2407Z" fill="white"/>
</mask>
<g mask="url(#mask2_584_48351)">
<path fill-rule="evenodd" clip-rule="evenodd" d="M116.43 31.9956C116.711 31.9123 117.012 31.9696 117.239 32.162C117.46 32.3492 117.572 32.63 117.535 32.9161C116.9 38.0544 114.962 44.8257 109.377 47.967L109.388 47.9774L109.087 48.1231C108.796 48.2634 108.469 48.3362 108.141 48.331H108.11C107.84 48.331 107.571 48.2842 107.322 48.1854L107.296 48.2114L107.137 48.1074L106.873 47.9826L106.883 47.9722C101.246 44.7946 99.3229 37.9452 98.7054 32.7392C98.6734 32.4532 98.7899 32.1724 99.0171 31.9851C99.2491 31.8031 99.55 31.7459 99.8306 31.8343L107.798 34.3514C107.967 34.4087 108.326 34.4087 108.5 34.3567L116.43 31.9956ZM113.562 40.8628C114.513 38.9333 115.205 36.6294 115.632 34.0186L109.002 35.9897C108.495 36.1405 107.781 36.1353 107.269 35.9741L100.612 33.8678C101.315 38.3092 103.149 43.9728 107.861 46.5524L107.935 46.5888L107.956 46.5992C108.03 46.6356 108.242 46.6304 108.3 46.6044L108.32 46.5939C108.326 46.5939 108.337 46.5888 108.347 46.5836L108.463 46.5211C110.576 45.3458 112.294 43.4423 113.562 40.8628Z" fill="white"/>
<path fill-rule="evenodd" clip-rule="evenodd" d="M116.194 25.3134C116.6 25.1937 117.044 25.2717 117.387 25.5213C117.726 25.7814 117.916 26.1662 117.905 26.5823V29.682C117.905 30.0616 117.641 30.3996 117.271 30.5037L109.066 32.7556C108.797 32.8232 108.512 32.8544 108.237 32.8544C107.962 32.8544 107.682 32.8232 107.407 32.7556H107.402L99.2076 30.5037C98.8329 30.4049 98.5737 30.0668 98.5737 29.682V26.5823C98.563 26.1715 98.7581 25.7762 99.0911 25.5213L99.0969 25.5162C99.4396 25.2717 99.8842 25.1989 100.285 25.3185L107.861 27.404C108.115 27.4561 108.369 27.4561 108.617 27.404L116.194 25.3134ZM116.172 29.0319V27.0972L109.077 29.0475C108.596 29.1827 107.888 29.1827 107.402 29.0475L100.307 27.0972V29.0319L107.861 31.1122C108.115 31.1641 108.369 31.1641 108.617 31.1122L116.172 29.0319Z" fill="white"/>
</g>
<path opacity="0.5" d="M100.826 112.628C99.2419 111.653 98.8458 109.428 99.9428 107.691C101.01 105.954 103.173 105.315 104.757 106.289C106.342 107.265 106.738 109.489 105.641 111.226C104.544 112.994 102.38 113.603 100.826 112.628Z" fill="url(#paint6_radial_584_48351)"/>
<g filter="url(#filter4_i_584_48351)">
<path d="M109.459 100.42C109.432 100.413 109.405 100.408 109.38 100.392C108.649 99.8899 110.684 90.9428 110.876 90.2797C111.842 86.9416 113.443 83.6929 116.018 81.3102C117.84 79.6234 122.709 76.3232 125.236 78.2631C127.365 79.9003 125.37 84.0109 124.388 85.7298C122.629 88.7864 120.036 91.2627 117.822 93.9734C116.5 95.5948 115.173 97.2474 113.852 98.8686C113.756 98.9929 112.926 100.172 112.423 100.756C112.208 101.006 111.9 101.038 111.579 100.958C110.895 100.785 109.694 100.48 109.459 100.42Z" fill="url(#paint7_linear_584_48351)"/>
</g>
<g filter="url(#filter5_i_584_48351)">
<path d="M112.374 103.099C113.455 103.332 114.418 102.414 114.192 101.331C112.951 95.3788 108.839 79.857 100.129 82.6852C92.2129 85.2838 109.225 100.592 111.689 102.759C111.887 102.934 112.117 103.044 112.374 103.099Z" fill="url(#paint8_linear_584_48351)"/>
</g>
<path d="M102.5 85.7812C102.5 85.7812 112.687 99.0761 112.803 101.889L102.5 85.7812Z" fill="#77FFE4" fill-opacity="0.2"/>
<path d="M122.224 80.8853C122.224 80.8853 113.854 91.5628 112.944 96.302L122.224 80.8853Z" fill="#77FFE4" fill-opacity="0.2"/>
<path d="M101.941 99.6685C101.865 98.8773 102.486 98.1929 103.282 98.1929H119.018C119.812 98.1929 120.435 98.8773 120.358 99.6685L118.643 117.457C118.577 118.147 117.997 118.674 117.303 118.674H104.996C104.303 118.674 103.722 118.147 103.656 117.457L101.941 99.6685Z" fill="url(#paint9_linear_584_48351)"/>
<g filter="url(#filter6_i_584_48351)">
<path d="M120.5 98.1924H101.794C101.423 98.1924 101.121 98.4938 101.121 98.8657V102.456C101.121 102.828 101.423 103.129 101.794 103.129H120.5C120.872 103.129 121.173 102.828 121.173 102.456V98.8657C121.173 98.4938 120.872 98.1924 120.5 98.1924Z" fill="url(#paint10_linear_584_48351)"/>
</g>
</g>
<defs>
<filter id="filter0_i_584_48351" x="9.02689" y="34.0886" width="101.911" height="52.5803" filterUnits="userSpaceOnUse" color-interpolation-filters="sRGB">
<feFlood flood-opacity="0" result="BackgroundImageFix"/>
<feBlend mode="normal" in="SourceGraphic" in2="BackgroundImageFix" result="shape"/>
<feColorMatrix in="SourceAlpha" type="matrix" values="0 0 0 0 0 0 0 0 0 0 0 0 0 0 0 0 0 0 127 0" result="hardAlpha"/>
<feOffset dx="-0.0873723" dy="-0.621314"/>
<feGaussianBlur stdDeviation="0.485401"/>
<feComposite in2="hardAlpha" operator="arithmetic" k2="-1" k3="1"/>
<feColorMatrix type="matrix" values="0 0 0 0 0.438437 0 0 0 0 0.508921 0 0 0 0 0.575 0 0 0 1 0"/>
<feBlend mode="normal" in2="shape" result="effect1_innerShadow_584_48351"/>
</filter>
<filter id="filter1_ii_584_48351" x="38.563" y="51.2524" width="43.6401" height="5.33007" filterUnits="userSpaceOnUse" color-interpolation-filters="sRGB">
<feFlood flood-opacity="0" result="BackgroundImageFix"/>
<feBlend mode="normal" in="SourceGraphic" in2="BackgroundImageFix" result="shape"/>
<feColorMatrix in="SourceAlpha" type="matrix" values="0 0 0 0 0 0 0 0 0 0 0 0 0 0 0 0 0 0 127 0" result="hardAlpha"/>
<feOffset dy="0.480946"/>
<feGaussianBlur stdDeviation="0.144284"/>
<feComposite in2="hardAlpha" operator="arithmetic" k2="-1" k3="1"/>
<feColorMatrix type="matrix" values="0 0 0 0 1 0 0 0 0 1 0 0 0 0 1 0 0 0 1 0"/>
<feBlend mode="normal" in2="shape" result="effect1_innerShadow_584_48351"/>
<feColorMatrix in="SourceAlpha" type="matrix" values="0 0 0 0 0 0 0 0 0 0 0 0 0 0 0 0 0 0 127 0" result="hardAlpha"/>
<feOffset dx="-0.0961893" dy="-0.384757"/>
<feGaussianBlur stdDeviation="0.0961893"/>
<feComposite in2="hardAlpha" operator="arithmetic" k2="-1" k3="1"/>
<feColorMatrix type="matrix" values="0 0 0 0 0.833333 0 0 0 0 0.833333 0 0 0 0 0.833333 0 0 0 1 0"/>
<feBlend mode="normal" in2="effect1_innerShadow_584_48351" result="effect2_innerShadow_584_48351"/>
</filter>
<filter id="filter2_ii_584_48351" x="45.2026" y="64.3521" width="31.4419" height="5.33007" filterUnits="userSpaceOnUse" color-interpolation-filters="sRGB">
<feFlood flood-opacity="0" result="BackgroundImageFix"/>
<feBlend mode="normal" in="SourceGraphic" in2="BackgroundImageFix" result="shape"/>
<feColorMatrix in="SourceAlpha" type="matrix" values="0 0 0 0 0 0 0 0 0 0 0 0 0 0 0 0 0 0 127 0" result="hardAlpha"/>
<feOffset dy="0.480946"/>
<feGaussianBlur stdDeviation="0.144284"/>
<feComposite in2="hardAlpha" operator="arithmetic" k2="-1" k3="1"/>
<feColorMatrix type="matrix" values="0 0 0 0 1 0 0 0 0 1 0 0 0 0 1 0 0 0 1 0"/>
<feBlend mode="normal" in2="shape" result="effect1_innerShadow_584_48351"/>
<feColorMatrix in="SourceAlpha" type="matrix" values="0 0 0 0 0 0 0 0 0 0 0 0 0 0 0 0 0 0 127 0" result="hardAlpha"/>
<feOffset dx="-0.0961893" dy="-0.384757"/>
<feGaussianBlur stdDeviation="0.0961893"/>
<feComposite in2="hardAlpha" operator="arithmetic" k2="-1" k3="1"/>
<feColorMatrix type="matrix" values="0 0 0 0 0.833333 0 0 0 0 0.833333 0 0 0 0 0.833333 0 0 0 1 0"/>
<feBlend mode="normal" in2="effect1_innerShadow_584_48351" result="effect2_innerShadow_584_48351"/>
</filter>
<filter id="filter3_dii_584_48351" x="82.5972" y="9.34512" width="50.7705" height="52.3189" filterUnits="userSpaceOnUse" color-interpolation-filters="sRGB">
<feFlood flood-opacity="0" result="BackgroundImageFix"/>
<feColorMatrix in="SourceAlpha" type="matrix" values="0 0 0 0 0 0 0 0 0 0 0 0 0 0 0 0 0 0 127 0" result="hardAlpha"/>
<feOffset dy="0.838373"/>
<feGaussianBlur stdDeviation="0.419187"/>
<feColorMatrix type="matrix" values="0 0 0 0 0 0 0 0 0 0 0 0 0 0 0 0 0 0 0.25 0"/>
<feBlend mode="normal" in2="BackgroundImageFix" result="effect1_dropShadow_584_48351"/>
<feBlend mode="normal" in="SourceGraphic" in2="effect1_dropShadow_584_48351" result="shape"/>
<feColorMatrix in="SourceAlpha" type="matrix" values="0 0 0 0 0 0 0 0 0 0 0 0 0 0 0 0 0 0 127 0" result="hardAlpha"/>
<feOffset dy="0.754535"/>
<feGaussianBlur stdDeviation="0.29343"/>
<feComposite in2="hardAlpha" operator="arithmetic" k2="-1" k3="1"/>
<feColorMatrix type="matrix" values="0 0 0 0 1 0 0 0 0 0.838871 0 0 0 0 0.691667 0 0 0 1 0"/>
<feBlend mode="normal" in2="shape" result="effect2_innerShadow_584_48351"/>
<feColorMatrix in="SourceAlpha" type="matrix" values="0 0 0 0 0 0 0 0 0 0 0 0 0 0 0 0 0 0 127 0" result="hardAlpha"/>
<feOffset dx="-0.0838373" dy="-0.754535"/>
<feGaussianBlur stdDeviation="0.251512"/>
<feComposite in2="hardAlpha" operator="arithmetic" k2="-1" k3="1"/>
<feColorMatrix type="matrix" values="0 0 0 0 0.808333 0 0 0 0 0.461597 0 0 0 0 0.144826 0 0 0 1 0"/>
<feBlend mode="normal" in2="effect2_innerShadow_584_48351" result="effect3_innerShadow_584_48351"/>
</filter>
<filter id="filter4_i_584_48351" x="109.223" y="77.4236" width="17.6037" height="23.5735" filterUnits="userSpaceOnUse" color-interpolation-filters="sRGB">
<feFlood flood-opacity="0" result="BackgroundImageFix"/>
<feBlend mode="normal" in="SourceGraphic" in2="BackgroundImageFix" result="shape"/>
<feColorMatrix in="SourceAlpha" type="matrix" values="0 0 0 0 0 0 0 0 0 0 0 0 0 0 0 0 0 0 127 0" result="hardAlpha"/>
<feOffset dx="0.64567" dy="-0.246823"/>
<feGaussianBlur stdDeviation="0.841594"/>
<feComposite in2="hardAlpha" operator="arithmetic" k2="-1" k3="1"/>
<feColorMatrix type="matrix" values="0 0 0 0 0.113056 0 0 0 0 0.616667 0 0 0 0 0.58645 0 0 0 1 0"/>
<feBlend mode="normal" in2="shape" result="effect1_innerShadow_584_48351"/>
</filter>
<filter id="filter5_i_584_48351" x="98.0449" y="82.0974" width="16.8254" height="21.0383" filterUnits="userSpaceOnUse" color-interpolation-filters="sRGB">
<feFlood flood-opacity="0" result="BackgroundImageFix"/>
<feBlend mode="normal" in="SourceGraphic" in2="BackgroundImageFix" result="shape"/>
<feColorMatrix in="SourceAlpha" type="matrix" values="0 0 0 0 0 0 0 0 0 0 0 0 0 0 0 0 0 0 127 0" result="hardAlpha"/>
<feOffset dx="0.64567" dy="-0.246823"/>
<feGaussianBlur stdDeviation="0.841594"/>
<feComposite in2="hardAlpha" operator="arithmetic" k2="-1" k3="1"/>
<feColorMatrix type="matrix" values="0 0 0 0 0.0996528 0 0 0 0 0.683333 0 0 0 0 0.555806 0 0 0 1 0"/>
<feBlend mode="normal" in2="shape" result="effect1_innerShadow_584_48351"/>
</filter>
<filter id="filter6_i_584_48351" x="101.121" y="97.9904" width="20.3211" height="5.13851" filterUnits="userSpaceOnUse" color-interpolation-filters="sRGB">
<feFlood flood-opacity="0" result="BackgroundImageFix"/>
<feBlend mode="normal" in="SourceGraphic" in2="BackgroundImageFix" result="shape"/>
<feColorMatrix in="SourceAlpha" type="matrix" values="0 0 0 0 0 0 0 0 0 0 0 0 0 0 0 0 0 0 127 0" result="hardAlpha"/>
<feOffset dx="0.26931" dy="-0.201982"/>
<feGaussianBlur stdDeviation="0.235646"/>
<feComposite in2="hardAlpha" operator="arithmetic" k2="-1" k3="1"/>
<feColorMatrix type="matrix" values="0 0 0 0 0.833333 0 0 0 0 0.604343 0 0 0 0 0.0555555 0 0 0 1 0"/>
<feBlend mode="normal" in2="shape" result="effect1_innerShadow_584_48351"/>
</filter>
<linearGradient id="paint0_linear_584_48351" x1="62.8985" y1="0" x2="62.8985" y2="124.797" gradientUnits="userSpaceOnUse">
<stop stop-color="#B5EFFF"/>
<stop offset="1" stop-color="#E7F8FE"/>
</linearGradient>
<linearGradient id="paint1_linear_584_48351" x1="62.8906" y1="0" x2="62.8906" y2="124.068" gradientUnits="userSpaceOnUse">
<stop stop-color="#B5EFFF"/>
<stop offset="1" stop-color="#EDFBFF"/>
</linearGradient>
<linearGradient id="paint2_linear_584_48351" x1="63.768" y1="-17.3076" x2="63.768" y2="132.811" gradientUnits="userSpaceOnUse">
<stop stop-color="#B5EFFF"/>
<stop offset="1" stop-color="#E7F8FE"/>
</linearGradient>
<linearGradient id="paint3_linear_584_48351" x1="61.8087" y1="96.1623" x2="63.0456" y2="124.442" gradientUnits="userSpaceOnUse">
<stop stop-color="#CFD7DF"/>
<stop offset="1" stop-color="#E1E9F1"/>
</linearGradient>
<linearGradient id="paint4_linear_584_48351" x1="144.097" y1="94.0645" x2="144.097" y2="138.59" gradientUnits="userSpaceOnUse">
<stop stop-color="#647A8E"/>
<stop offset="1" stop-color="#647A8E" stop-opacity="0"/>
</linearGradient>
<radialGradient id="paint5_radial_584_48351" cx="0" cy="0" r="1" gradientUnits="userSpaceOnUse" gradientTransform="translate(14.8466 18.237) rotate(-15.1772) scale(12.7295)">
<stop stop-color="#E6C6FF"/>
<stop offset="0.1875" stop-color="#C07DF5"/>
<stop offset="0.317708" stop-color="#BE6FFC"/>
<stop offset="0.489583" stop-color="#B56AF0"/>
<stop offset="0.651042" stop-color="#A745F4"/>
<stop offset="0.947917" stop-color="#9F3DED"/>
</radialGradient>
<radialGradient id="paint6_radial_584_48351" cx="0" cy="0" r="1" gradientUnits="userSpaceOnUse" gradientTransform="translate(102.77 109.484) rotate(121.889) scale(3.65249 3.32633)">
<stop stop-color="white"/>
<stop offset="0.6944" stop-color="white" stop-opacity="0"/>
</radialGradient>
<linearGradient id="paint7_linear_584_48351" x1="128.638" y1="78.0352" x2="109.752" y2="94.9959" gradientUnits="userSpaceOnUse">
<stop stop-color="#BAFFF1" stop-opacity="0.26"/>
<stop offset="0.682292" stop-color="#4DC7AE"/>
<stop offset="0.96875" stop-color="#06896F"/>
</linearGradient>
<linearGradient id="paint8_linear_584_48351" x1="120.237" y1="84.6168" x2="108.751" y2="103.96" gradientUnits="userSpaceOnUse">
<stop stop-color="#B7FDEF"/>
<stop offset="0.682292" stop-color="#09B794"/>
<stop offset="0.96875" stop-color="#7EE0CC"/>
</linearGradient>
<linearGradient id="paint9_linear_584_48351" x1="120.501" y1="111.675" x2="103.133" y2="111.675" gradientUnits="userSpaceOnUse">
<stop offset="0.0989583" stop-color="#FFEEC5"/>
<stop offset="0.606776" stop-color="#FACD63"/>
<stop offset="0.838542" stop-color="#EAAF23"/>
<stop offset="0.984375" stop-color="#EDB52F"/>
</linearGradient>
<linearGradient id="paint10_linear_584_48351" x1="121.174" y1="101.442" x2="102.552" y2="101.442" gradientUnits="userSpaceOnUse">
<stop offset="0.0989583" stop-color="#FFEEC5"/>
<stop offset="0.606776" stop-color="#FCBD27"/>
<stop offset="0.984375" stop-color="#EFB222"/>
</linearGradient>
<clipPath id="clip0_584_48351">
<rect width="133" height="125.234" fill="white" transform="translate(0.5)"/>
</clipPath>
</defs>
</svg>
