<svg xmlns="http://www.w3.org/2000/svg" width="161" height="150" fill="none" viewBox="0 0 161 150"><mask id="fs-h6fftd16ma" style="mask-type:alpha" width="151" height="150" x="4" y="0" maskUnits="userSpaceOnUse"><path fill="url(#paint0_linear_1529_25453)" d="M79.553 150c41.422 0 75-33.579 75-75s-33.578-75-75-75c-41.421 0-75 33.579-75 75s33.579 75 75 75z"/></mask><g mask="url(#fs-h6fftd16ma)"><path fill="url(#paint1_linear_1529_25453)" d="M78.604 149.124c41.417 0 74.991-33.383 74.991-74.562C153.595 33.382 120.021 0 78.605 0 37.187 0 3.613 33.383 3.613 74.562c0 41.179 33.574 74.562 74.99 74.562z"/><path fill="#fff" d="M103.962 40.082a4.698 4.698 0 00-4.698 4.697v184.712h189.41V40.081H103.962zm184.155 11.774h-11.311v-11.31h11.311v11.31zm-93.916 70.831v-11.31h11.311v11.31h-11.311zm11.311.557v11.31h-11.311v-11.31h11.311zm-11.775-.557h-11.311v-11.31h11.311v11.31zm0 .557v11.31h-11.311v-11.31h11.311zm-11.867 11.31h-11.311v-11.31h11.311v11.31zm0 .464v11.311h-11.311v-11.311h11.311zm.556 0h11.311v11.311h-11.311v-11.311zm11.311 11.774v11.311h-11.311v-11.311h11.311zm.464 0h11.311v11.311h-11.311v-11.311zm0-.463v-11.311h11.311v11.311h-11.311zm11.774-11.311h11.311v11.311h-11.311v-11.311zm0-.464v-11.31h11.311v11.31h-11.311zm0-11.867v-11.31h11.311v11.31h-11.311zm0-11.774v-11.31h11.311v11.31h-11.311zm-.463 0h-11.311v-11.31h11.311v11.31zm-11.775 0h-11.311v-11.31h11.311v11.31zm-11.867 0h-11.311v-11.31h11.311v11.31zm0 .464v11.31h-11.311v-11.31h11.311zm-11.774 11.31h-11.311v-11.31h11.311v11.31zm0 .557v11.31h-11.311v-11.31h11.311zm0 11.774v11.311h-11.311v-11.311h11.311zm0 11.774v11.311h-11.311v-11.311h11.311zm.463 0h11.311v11.311h-11.311v-11.311zm11.311 11.867v11.311h-11.311v-11.311h11.311zm.556 0h11.311v11.311h-11.311v-11.311zm11.775 0h11.311v11.311h-11.311v-11.311zm11.774 0h11.311v11.311h-11.311v-11.311zm0-.556v-11.311h11.311v11.311h-11.311zm11.867-11.311h11.311v11.311h-11.311v-11.311zm0-.463v-11.311h11.311v11.311h-11.311zm0-11.775v-11.31h11.311v11.31h-11.311zm0-11.867v-11.31h11.311v11.31h-11.311zm0-11.774v-11.31h11.311v11.31h-11.311zm0-11.774V87.828h11.311v11.31h-11.311zm-.556 0h-11.311V87.828h11.311v11.31zm-11.774 0h-11.311V87.828h11.311v11.31zm-11.775 0h-11.311V87.828h11.311v11.31zm-11.867 0h-11.311V87.828h11.311v11.31zm-11.774 0h-11.311V87.828h11.311v11.31zm0 .463v11.311h-11.311v-11.31h11.311zm-11.774 11.311h-11.311v-11.31h11.311v11.31zm0 .464v11.31h-11.311v-11.31h11.311zm0 11.867v11.31h-11.311v-11.31h11.311zm0 11.774v11.311h-11.311v-11.311h11.311zm0 11.774v11.311h-11.311v-11.311h11.311zm0 11.867v11.311h-11.311v-11.311h11.311zm.463 0h11.311v11.311h-11.311v-11.311zm11.311 11.775v11.31h-11.311v-11.31h11.311zm.463 0h11.311v11.31h-11.311v-11.31zm11.867 0h11.311v11.31h-11.311v-11.31zm11.775 0h11.311v11.31h-11.311v-11.31zm11.774 0h11.311v11.31h-11.311v-11.31zm11.867 0h11.311v11.31h-11.311v-11.31zm0-.464v-11.311h11.311v11.311h-11.311zm11.774-11.311h11.311v11.311h-11.311v-11.311zm0-.556v-11.311h11.311v11.311h-11.311zm0-11.774v-11.311h11.311v11.311h-11.311zm0-11.775v-11.31h11.311v11.31h-11.311zm0-11.867v-11.31h11.311v11.31h-11.311zm0-11.774v-11.31h11.311v11.31h-11.311zm0-11.774V87.828h11.311v11.31h-11.311zm0-11.867V75.96h11.311v11.31h-11.311zm-.463 0h-11.311V75.96h11.311v11.31zm-11.867 0h-11.311V75.96h11.311v11.31zm-11.774 0h-11.311V75.96h11.311v11.31zm-11.775 0h-11.311V75.96h11.311v11.31zm-11.867 0h-11.311V75.96h11.311v11.31zm-11.774 0h-11.311V75.96h11.311v11.31zm-11.774 0h-11.311V75.96h11.311v11.31zm0 .556v11.31h-11.311v-11.31h11.311zm-11.867 11.31h-11.311v-11.31h11.311v11.31zm0 .464v11.311h-11.311v-11.31h11.311zm0 11.775v11.31h-11.311v-11.31h11.311zm0 11.867v11.31h-11.311v-11.31h11.311zm0 11.774v11.311h-11.311v-11.311h11.311zm0 11.774v11.311h-11.311v-11.311h11.311zm0 11.867v11.311h-11.311v-11.311h11.311zm0 11.775v11.31h-11.311v-11.31h11.311zm.556 0h11.311v11.31h-11.311v-11.31zm11.311 11.774v11.311h-11.311v-11.311h11.311zm.463 0h11.311v11.311h-11.311v-11.311zm11.774 0h11.311v11.311h-11.311v-11.311zm11.867 0h11.311v11.311h-11.311v-11.311zm11.775 0h11.311v11.311h-11.311v-11.311zm11.774 0h11.311v11.311h-11.311v-11.311zm11.867 0h11.311v11.311h-11.311v-11.311zm11.774 0h11.311v11.311h-11.311v-11.311zm0-.464v-11.31h11.311v11.31h-11.311zm11.775-11.31h11.311v11.31h-11.311v-11.31zm0-.464v-11.311h11.311v11.311h-11.311zm0-11.867v-11.311h11.311v11.311h-11.311zm0-11.774v-11.311h11.311v11.311h-11.311zm0-11.775v-11.31h11.311v11.31h-11.311zm0-11.867v-11.31h11.311v11.31h-11.311zm0-11.774v-11.31h11.311v11.31h-11.311zm0-11.774V87.828h11.311v11.31h-11.311zm0-11.867V75.96h11.311v11.31h-11.311zm0-11.775v-11.31h11.311v11.31h-11.311zm-.464 0h-11.311v-11.31h11.311v11.31zm-11.774 0h-11.311v-11.31h11.311v11.31zm-11.867 0h-11.311v-11.31h11.311v11.31zm-11.774 0h-11.311v-11.31h11.311v11.31zm-11.775 0h-11.311v-11.31h11.311v11.31zm-11.867 0h-11.311v-11.31h11.311v11.31zm-11.774 0h-11.311v-11.31h11.311v11.31zm-11.774 0h-11.311v-11.31h11.311v11.31zm-11.867 0h-11.311v-11.31h11.311v11.31zm0 .464v11.31h-11.311v-11.31h11.311zM134.68 87.27h-11.311v-11.31h11.311v11.31zm0 .557v11.31h-11.311v-11.31h11.311zm0 11.774v11.311h-11.311v-11.31h11.311zm0 11.775v11.31h-11.311v-11.31h11.311zm0 11.867v11.31h-11.311v-11.31h11.311zm0 11.774v11.311h-11.311v-11.311h11.311zm0 11.774v11.311h-11.311v-11.311h11.311zm0 11.867v11.311h-11.311v-11.311h11.311zm0 11.775v11.31h-11.311v-11.31h11.311zm0 11.774v11.311h-11.311v-11.311h11.311zm.464 0h11.311v11.311h-11.311v-11.311zm11.311 11.867v11.311h-11.311v-11.311h11.311zm.556 0h11.311v11.311h-11.311v-11.311zm11.774 0h11.311v11.311h-11.311v-11.311zm11.774 0h11.311v11.311h-11.311v-11.311zm11.867 0h11.311v11.311h-11.311v-11.311zm11.775 0h11.311v11.311h-11.311v-11.311zm11.774 0h11.311v11.311h-11.311v-11.311zm11.867 0h11.311v11.311h-11.311v-11.311zm11.774 0h11.311v11.311h-11.311v-11.311zm11.775 0h11.311v11.311h-11.311v-11.311zm0-.556v-11.311h11.311v11.311h-11.311zm11.867-11.311h11.311v11.311h-11.311v-11.311zm0-.464v-11.31h11.311v11.31h-11.311zm0-11.774v-11.311h11.311v11.311h-11.311zm0-11.867v-11.311h11.311v11.311h-11.311zm0-11.774v-11.311h11.311v11.311h-11.311zm0-11.775v-11.31h11.311v11.31h-11.311zm0-11.867v-11.31h11.311v11.31h-11.311zm0-11.774v-11.31h11.311v11.31h-11.311zm0-11.774V87.828h11.311v11.31h-11.311zm0-11.867V75.96h11.311v11.31h-11.311zm0-11.775v-11.31h11.311v11.31h-11.311zm0-11.774v-11.31h11.311v11.31h-11.311zm-.556 0h-11.311v-11.31h11.311v11.31zm-11.775 0h-11.311v-11.31h11.311v11.31zm-11.774 0h-11.311v-11.31h11.311v11.31zm-11.867 0h-11.311v-11.31h11.311v11.31zm-11.774 0h-11.311v-11.31h11.311v11.31zm-11.775 0h-11.311v-11.31h11.311v11.31zm-11.867 0h-11.311v-11.31h11.311v11.31zm-11.774 0h-11.311v-11.31h11.311v11.31zm-11.774 0h-11.311v-11.31h11.311v11.31zm-11.867 0h-11.311v-11.31h11.311v11.31zm-11.775 0h-11.311v-11.31h11.311v11.31zm0 .464v11.31h-11.311v-11.31h11.311zm-11.774 11.31h-11.311v-11.31h11.311v11.31zm0 .464v11.31h-11.311v-11.31h11.311zm0 11.867v11.31h-11.311v-11.31h11.311zm0 11.774v11.311h-11.311v-11.31h11.311zm0 11.775v11.31h-11.311v-11.31h11.311zm0 11.867v11.31h-11.311v-11.31h11.311zm0 11.774v11.311h-11.311v-11.311h11.311zm0 11.774v11.311h-11.311v-11.311h11.311zm0 11.867v11.311h-11.311v-11.311h11.311zm0 11.775v11.31h-11.311v-11.31h11.311zm0 11.774v11.311h-11.311v-11.311h11.311zm0 11.867v11.311h-11.311v-11.311h11.311zm.463 0h11.311v11.311h-11.311v-11.311zm11.311 11.774v11.311h-11.311v-11.311h11.311zm.464 0h11.311v11.311h-11.311v-11.311zm11.867 0h11.311v11.311h-11.311v-11.311zm11.774 0h11.311v11.311h-11.311v-11.311zm11.774 0h11.311v11.311h-11.311v-11.311zm11.867 0h11.311v11.311h-11.311v-11.311zm11.775 0h11.311v11.311h-11.311v-11.311zm11.774 0h11.311v11.311h-11.311v-11.311zm11.867 0h11.311v11.311h-11.311v-11.311zm11.774 0h11.311v11.311h-11.311v-11.311zm11.775 0h11.311v11.311h-11.311v-11.311zm11.867 0h11.311v11.311h-11.311v-11.311zm0-.463v-11.311h11.311v11.311h-11.311zm11.774-11.311h11.311v11.311h-11.311v-11.311zm0-.556v-11.311h11.311v11.311h-11.311zm0-11.775v-11.31h11.311v11.31h-11.311zm0-11.774v-11.311h11.311v11.311h-11.311zm0-11.867v-11.311h11.311v11.311h-11.311zm0-11.774v-11.311h11.311v11.311h-11.311zm0-11.775v-11.31h11.311v11.31h-11.311zm0-11.867v-11.31h11.311v11.31h-11.311zm0-11.774v-11.31h11.311v11.31h-11.311zm0-11.774V87.828h11.311v11.31h-11.311zm0-11.867V75.96h11.311v11.31h-11.311zm0-11.775v-11.31h11.311v11.31h-11.311zm0-11.774v-11.31h11.311v11.31h-11.311zm0-11.867v-11.31h11.311v11.31h-11.311zm-.463 0h-11.311v-11.31h11.311v11.31zm-11.867 0h-11.311v-11.31h11.311v11.31zm-11.775 0h-11.311v-11.31h11.311v11.31zm-11.774 0h-11.311v-11.31h11.311v11.31zm-11.867 0h-11.311v-11.31h11.311v11.31zm-11.774 0h-11.311v-11.31h11.311v11.31zm-11.775 0h-11.311v-11.31h11.311v11.31zm-11.867 0h-11.311v-11.31h11.311v11.31zm-11.774 0h-11.311v-11.31h11.311v11.31zm-11.774 0h-11.311v-11.31h11.311v11.31zm-11.867 0h-11.311v-11.31h11.311v11.31zm-11.775 0h-11.311v-11.31h11.311v11.31zm-11.774 0h-11.311v-11.31h11.311v11.31zm0 .556v11.311h-11.311v-11.31h11.311zm-11.867 11.311h-11.31v-11.31h11.31v11.31zm0 .464v11.31h-11.31v-11.31h11.31zm0 11.774v11.31h-11.31v-11.31h11.31zm0 11.867v11.31h-11.31v-11.31h11.31zm0 11.774v11.311h-11.31v-11.31h11.31zm0 11.775v11.31h-11.31v-11.31h11.31zm0 11.867v11.31h-11.31v-11.31h11.31zm0 11.774v11.311h-11.31v-11.311h11.31zm0 11.774v11.311h-11.31v-11.311h11.31zm0 11.867v11.311h-11.31v-11.311h11.31zm0 11.775v11.31h-11.31v-11.31h11.31zm0 11.774v11.311h-11.31v-11.311h11.31zm0 11.867v11.311h-11.31v-11.311h11.31zm0 11.774v11.311h-11.31v-11.311h11.31zm.556 0h11.311v11.311h-11.311v-11.311zm11.311 11.775v11.31h-11.311v-11.31h11.311zm.463 0h11.311v11.31h-11.311v-11.31zm11.775 0h11.311v11.31h-11.311v-11.31zm11.867 0h11.311v11.31h-11.311v-11.31zm11.774 0h11.311v11.31h-11.311v-11.31zm11.774 0h11.311v11.31h-11.311v-11.31zm11.867 0h11.311v11.31h-11.311v-11.31zm11.775 0h11.311v11.31h-11.311v-11.31zm11.774 0h11.311v11.31h-11.311v-11.31zm11.867 0h11.311v11.31h-11.311v-11.31zm11.774 0h11.311v11.31h-11.311v-11.31zm11.775 0h11.311v11.31h-11.311v-11.31zm11.867 0h11.311v11.31h-11.311v-11.31zm11.774 0h11.311v11.31h-11.311v-11.31zm0-.464v-11.311h11.311v11.311h-11.311zm11.774-11.311h11.311v11.311h-11.311v-11.311zm0-.463v-11.311h11.311v11.311h-11.311zm0-11.867v-11.311h11.311v11.311h-11.311zm0-11.775v-11.31h11.311v11.31h-11.311zm0-11.774v-11.311h11.311v11.311h-11.311zm0-11.867v-11.311h11.311v11.311h-11.311zm0-11.774v-11.311h11.311v11.311h-11.311zm0-11.775v-11.31h11.311v11.31h-11.311zm0-11.867v-11.31h11.311v11.31h-11.311zm0-11.774v-11.31h11.311v11.31h-11.311zm0-11.774V87.828h11.311v11.31h-11.311zm0-11.867V75.96h11.311v11.31h-11.311zm0-11.775v-11.31h11.311v11.31h-11.311zm0-11.774v-11.31h11.311v11.31h-11.311zM111.039 40.545v11.311h-11.31v-6.613a4.698 4.698 0 014.697-4.698h6.613zm-11.31 177.079h11.31v11.31h-11.31v-11.31zm177.077 11.31v-11.31h11.311v11.31h-11.311z"/></g><path fill="url(#paint2_radial_1529_25453)" d="M14.924 118.621c5.289 0 9.576-4.287 9.576-9.575a9.575 9.575 0 00-9.576-9.576 9.575 9.575 0 00-9.575 9.576c0 5.288 4.287 9.575 9.575 9.575z"/><path fill="url(#paint3_radial_1529_25453)" d="M9.386 108.578c-1.735-1.067-2.17-3.503-.968-5.405 1.168-1.901 3.537-2.602 5.272-1.534 1.735 1.067 2.168 3.503.967 5.405-1.201 1.935-3.57 2.602-5.271 1.534z" opacity=".5"/><path fill="url(#paint4_radial_1529_25453)" d="M141.242 44.467a7.309 7.309 0 100-14.617 7.31 7.31 0 000 14.617z"/><path fill="url(#paint5_radial_1529_25453)" d="M137.014 36.802c-1.324-.815-1.655-2.674-.738-4.126.891-1.451 2.699-1.986 4.024-1.171 1.324.815 1.655 2.674.738 4.125-.917 1.477-2.725 1.987-4.024 1.172z" opacity=".5"/><g filter="url(#filter0_f_1529_25453)"><ellipse cx="73.865" cy="129.497" fill="#000" fill-opacity=".37" rx="71.865" ry=".381"/></g><g filter="url(#filter1_iii_1529_25453)"><path fill="#4392F4" d="M106.27 109.75l-5.842 5.546a.505.505 0 01-.347.139H40.176a2.32 2.32 0 01-2.32-2.324V25.103a2.319 2.319 0 012.32-2.324h68.879a2.32 2.32 0 012.321 2.324v79.071c0 .129-.05.253-.139.347l-4.967 5.229z"/></g><g filter="url(#filter2_di_1529_25453)"><path fill="#054599" d="M111.374 104.395l-11.361-1.294c-1.394 0-1.956 1.207-1.79 2.639l2.095 9.64 5.769-5.482 5.287-5.503z"/></g><g filter="url(#filter3_dii_1529_25453)"><rect width="53.791" height="2.48" x="47.427" y="38.367" fill="#F3F3F3" rx="1.24"/></g><g filter="url(#filter4_dii_1529_25453)"><rect width="38.697" height="2.48" x="47.427" y="53.176" fill="#F3F3F3" rx="1.24"/></g><g filter="url(#filter5_dii_1529_25453)"><rect width="21.923" height="2.48" x="47.427" y="68.089" fill="#F3F3F3" rx="1.24"/></g><g filter="url(#filter6_di_1529_25453)"><path fill="#FFC736" fill-rule="evenodd" d="M76.873 95.113c8.247 8.88 21.765 9.921 31.175 2.757l12.837 13.823a2.29 2.29 0 003.238.126 2.291 2.291 0 00.114-3.239L111.4 94.757c7.839-8.854 7.799-22.413-.447-31.293-8.774-9.448-23.516-10.022-32.927-1.282-9.41 8.74-9.927 23.483-1.153 32.93zM80.226 92c-7.048-7.59-6.633-19.433.926-26.453 7.56-7.02 19.401-6.559 26.449 1.03 7.048 7.59 6.633 19.433-.926 26.453-7.56 7.021-19.401 6.56-26.45-1.03z" clip-rule="evenodd"/></g><g filter="url(#filter7_ii_1529_25453)"><path fill="#F3F3F3" d="M93.926 84.09a1.064 1.064 0 01-.825-.352 1.228 1.228 0 01-.339-.85l-.16-13.5c-.005-.35.102-.636.318-.857.216-.244.488-.368.817-.371l.624-.008a1.1 1.1 0 01.858.351c.222.217.335.5.339.85l.16 13.5c.004.328-.113.615-.35.858a1.064 1.064 0 01-.818.371l-.624.008zm.45 7.386c-.68.008-1.251-.204-1.716-.637-.443-.433-.669-.988-.677-1.667-.008-.679.204-1.23.637-1.65.455-.444 1.022-.67 1.7-.678.701-.008 1.273.204 1.716.637.443.41.669.956.677 1.635.008.678-.204 1.24-.637 1.682-.433.444-1 .67-1.7.678z"/></g><g filter="url(#filter8_i_1529_25453)"><path fill="url(#paint6_linear_1529_25453)" d="M139.535 107.246c-.052-.013-.108-.023-.147-.06-.81-.774 1.587-11.313 1.814-12.1 1.159-4.001 3.078-7.895 6.164-10.75 2.184-2.022 8.019-5.977 11.047-3.653 2.551 1.963.161 6.89-1.016 8.95-2.108 3.663-5.216 6.63-7.87 9.88-1.583 1.942-3.174 3.923-4.757 5.866-.103.133-.905 1.271-1.504 2.012-.385.476-.942.562-1.535.412l-2.196-.557z"/></g><g filter="url(#filter9_i_1529_25453)"><path fill="url(#paint7_linear_1529_25453)" d="M142.999 110.45c1.295.279 2.449-.822 2.178-2.119-1.487-7.134-6.416-25.737-16.854-22.347-9.488 3.114 10.901 21.46 13.855 24.059.237.208.512.341.821.407z"/></g><path fill="#77FFE4" fill-opacity=".2" d="M131.163 89.694s12.208 15.934 12.348 19.305l-12.348-19.305zM154.803 83.827s-10.031 12.797-11.122 18.477l11.122-18.477z"/><path fill="url(#paint8_linear_1529_25453)" d="M130.586 107.304a2.496 2.496 0 012.484-2.735h16.918a2.496 2.496 0 012.485 2.735l-1.886 19.555a2.495 2.495 0 01-2.484 2.257h-13.147a2.497 2.497 0 01-2.485-2.257l-1.885-19.555z"/><g filter="url(#filter10_i_1529_25453)"><rect width="24.032" height="5.917" x="129.513" y="104.57" fill="url(#paint9_linear_1529_25453)" rx="1.248"/></g><defs><filter id="filter0_f_1529_25453" width="146.778" height="3.809" x=".477" y="127.593" color-interpolation-filters="sRGB" filterUnits="userSpaceOnUse"><feFlood flood-opacity="0" result="BackgroundImageFix"/><feBlend in="SourceGraphic" in2="BackgroundImageFix" result="shape"/><feGaussianBlur result="effect1_foregroundBlur_1529_25453" stdDeviation=".762"/></filter><filter id="filter1_iii_1529_25453" width="74.341" height="94.05" x="37.035" y="22.287" color-interpolation-filters="sRGB" filterUnits="userSpaceOnUse"><feFlood flood-opacity="0" result="BackgroundImageFix"/><feBlend in="SourceGraphic" in2="BackgroundImageFix" result="shape"/><feColorMatrix in="SourceAlpha" result="hardAlpha" values="0 0 0 0 0 0 0 0 0 0 0 0 0 0 0 0 0 0 127 0"/><feOffset dy="-.492"/><feGaussianBlur stdDeviation=".492"/><feComposite in2="hardAlpha" k2="-1" k3="1" operator="arithmetic"/><feColorMatrix values="0 0 0 0 0.089132 0 0 0 0 0.328429 0 0 0 0 0.629167 0 0 0 1 0"/><feBlend in2="shape" result="effect1_innerShadow_1529_25453"/><feColorMatrix in="SourceAlpha" result="hardAlpha" values="0 0 0 0 0 0 0 0 0 0 0 0 0 0 0 0 0 0 127 0"/><feOffset dy=".903"/><feGaussianBlur stdDeviation=".451"/><feComposite in2="hardAlpha" k2="-1" k3="1" operator="arithmetic"/><feColorMatrix values="0 0 0 0 0.641667 0 0 0 0 0.8495 0 0 0 0 1 0 0 0 1 0"/><feBlend in2="effect1_innerShadow_1529_25453" result="effect2_innerShadow_1529_25453"/><feColorMatrix in="SourceAlpha" result="hardAlpha" values="0 0 0 0 0 0 0 0 0 0 0 0 0 0 0 0 0 0 127 0"/><feOffset dx="-.821"/><feGaussianBlur stdDeviation=".41"/><feComposite in2="hardAlpha" k2="-1" k3="1" operator="arithmetic"/><feColorMatrix values="0 0 0 0 0 0 0 0 0 0 0 0 0 0 0 0 0 0 0.25 0"/><feBlend in2="effect2_innerShadow_1529_25453" result="effect3_innerShadow_1529_25453"/></filter><filter id="filter2_di_1529_25453" width="13.736" height="13.069" x="97.873" y="102.686" color-interpolation-filters="sRGB" filterUnits="userSpaceOnUse"><feFlood flood-opacity="0" result="BackgroundImageFix"/><feColorMatrix in="SourceAlpha" result="hardAlpha" values="0 0 0 0 0 0 0 0 0 0 0 0 0 0 0 0 0 0 127 0"/><feOffset dy=".141"/><feGaussianBlur stdDeviation=".117"/><feColorMatrix values="0 0 0 0 0 0 0 0 0 0 0 0 0 0 0 0 0 0 0.25 0"/><feBlend in2="BackgroundImageFix" result="effect1_dropShadow_1529_25453"/><feBlend in="SourceGraphic" in2="effect1_dropShadow_1529_25453" result="shape"/><feColorMatrix in="SourceAlpha" result="hardAlpha" values="0 0 0 0 0 0 0 0 0 0 0 0 0 0 0 0 0 0 127 0"/><feOffset dx="-.322" dy="-.415"/><feGaussianBlur stdDeviation=".208"/><feComposite in2="hardAlpha" k2="-1" k3="1" operator="arithmetic"/><feColorMatrix values="0 0 0 0 0.0505208 0 0 0 0 0.161469 0 0 0 0 0.404167 0 0 0 1 0"/><feBlend in2="shape" result="effect2_innerShadow_1529_25453"/></filter><filter id="filter3_dii_1529_25453" width="54.126" height="3.114" x="47.26" y="38.321" color-interpolation-filters="sRGB" filterUnits="userSpaceOnUse"><feFlood flood-opacity="0" result="BackgroundImageFix"/><feColorMatrix in="SourceAlpha" result="hardAlpha" values="0 0 0 0 0 0 0 0 0 0 0 0 0 0 0 0 0 0 127 0"/><feOffset dy=".419"/><feGaussianBlur stdDeviation=".084"/><feColorMatrix values="0 0 0 0 0 0 0 0 0 0 0 0 0 0 0 0 0 0 0.25 0"/><feBlend in2="BackgroundImageFix" result="effect1_dropShadow_1529_25453"/><feBlend in="SourceGraphic" in2="effect1_dropShadow_1529_25453" result="shape"/><feColorMatrix in="SourceAlpha" result="hardAlpha" values="0 0 0 0 0 0 0 0 0 0 0 0 0 0 0 0 0 0 127 0"/><feOffset dy=".503"/><feComposite in2="hardAlpha" k2="-1" k3="1" operator="arithmetic"/><feColorMatrix values="0 0 0 0 1 0 0 0 0 1 0 0 0 0 1 0 0 0 1 0"/><feBlend in2="shape" result="effect2_innerShadow_1529_25453"/><feColorMatrix in="SourceAlpha" result="hardAlpha" values="0 0 0 0 0 0 0 0 0 0 0 0 0 0 0 0 0 0 127 0"/><feOffset dx="-.023" dy="-.419"/><feGaussianBlur stdDeviation=".023"/><feComposite in2="hardAlpha" k2="-1" k3="1" operator="arithmetic"/><feColorMatrix values="0 0 0 0 0.833333 0 0 0 0 0.833333 0 0 0 0 0.833333 0 0 0 1 0"/><feBlend in2="effect2_innerShadow_1529_25453" result="effect3_innerShadow_1529_25453"/></filter><filter id="filter4_dii_1529_25453" width="39.032" height="3.114" x="47.26" y="53.13" color-interpolation-filters="sRGB" filterUnits="userSpaceOnUse"><feFlood flood-opacity="0" result="BackgroundImageFix"/><feColorMatrix in="SourceAlpha" result="hardAlpha" values="0 0 0 0 0 0 0 0 0 0 0 0 0 0 0 0 0 0 127 0"/><feOffset dy=".419"/><feGaussianBlur stdDeviation=".084"/><feColorMatrix values="0 0 0 0 0 0 0 0 0 0 0 0 0 0 0 0 0 0 0.25 0"/><feBlend in2="BackgroundImageFix" result="effect1_dropShadow_1529_25453"/><feBlend in="SourceGraphic" in2="effect1_dropShadow_1529_25453" result="shape"/><feColorMatrix in="SourceAlpha" result="hardAlpha" values="0 0 0 0 0 0 0 0 0 0 0 0 0 0 0 0 0 0 127 0"/><feOffset dy=".503"/><feComposite in2="hardAlpha" k2="-1" k3="1" operator="arithmetic"/><feColorMatrix values="0 0 0 0 1 0 0 0 0 1 0 0 0 0 1 0 0 0 1 0"/><feBlend in2="shape" result="effect2_innerShadow_1529_25453"/><feColorMatrix in="SourceAlpha" result="hardAlpha" values="0 0 0 0 0 0 0 0 0 0 0 0 0 0 0 0 0 0 127 0"/><feOffset dx="-.023" dy="-.419"/><feGaussianBlur stdDeviation=".023"/><feComposite in2="hardAlpha" k2="-1" k3="1" operator="arithmetic"/><feColorMatrix values="0 0 0 0 0.833333 0 0 0 0 0.833333 0 0 0 0 0.833333 0 0 0 1 0"/><feBlend in2="effect2_innerShadow_1529_25453" result="effect3_innerShadow_1529_25453"/></filter><filter id="filter5_dii_1529_25453" width="22.259" height="3.114" x="47.26" y="68.043" color-interpolation-filters="sRGB" filterUnits="userSpaceOnUse"><feFlood flood-opacity="0" result="BackgroundImageFix"/><feColorMatrix in="SourceAlpha" result="hardAlpha" values="0 0 0 0 0 0 0 0 0 0 0 0 0 0 0 0 0 0 127 0"/><feOffset dy=".419"/><feGaussianBlur stdDeviation=".084"/><feColorMatrix values="0 0 0 0 0 0 0 0 0 0 0 0 0 0 0 0 0 0 0.25 0"/><feBlend in2="BackgroundImageFix" result="effect1_dropShadow_1529_25453"/><feBlend in="SourceGraphic" in2="effect1_dropShadow_1529_25453" result="shape"/><feColorMatrix in="SourceAlpha" result="hardAlpha" values="0 0 0 0 0 0 0 0 0 0 0 0 0 0 0 0 0 0 127 0"/><feOffset dy=".503"/><feComposite in2="hardAlpha" k2="-1" k3="1" operator="arithmetic"/><feColorMatrix values="0 0 0 0 1 0 0 0 0 1 0 0 0 0 1 0 0 0 1 0"/><feBlend in2="shape" result="effect2_innerShadow_1529_25453"/><feColorMatrix in="SourceAlpha" result="hardAlpha" values="0 0 0 0 0 0 0 0 0 0 0 0 0 0 0 0 0 0 127 0"/><feOffset dx="-.023" dy="-.419"/><feGaussianBlur stdDeviation=".023"/><feComposite in2="hardAlpha" k2="-1" k3="1" operator="arithmetic"/><feColorMatrix values="0 0 0 0 0.833333 0 0 0 0 0.833333 0 0 0 0 0.833333 0 0 0 1 0"/><feBlend in2="effect2_innerShadow_1529_25453" result="effect3_innerShadow_1529_25453"/></filter><filter id="filter6_di_1529_25453" width="63.074" height="66.754" x="66.197" y="55.985" color-interpolation-filters="sRGB" filterUnits="userSpaceOnUse"><feFlood flood-opacity="0" result="BackgroundImageFix"/><feColorMatrix in="SourceAlpha" result="hardAlpha" values="0 0 0 0 0 0 0 0 0 0 0 0 0 0 0 0 0 0 127 0"/><feOffset dy="5.892"/><feGaussianBlur stdDeviation="2.209"/><feColorMatrix values="0 0 0 0 0 0 0 0 0 0 0 0 0 0 0 0 0 0 0.11 0"/><feBlend in2="BackgroundImageFix" result="effect1_dropShadow_1529_25453"/><feBlend in="SourceGraphic" in2="effect1_dropShadow_1529_25453" result="shape"/><feColorMatrix in="SourceAlpha" result="hardAlpha" values="0 0 0 0 0 0 0 0 0 0 0 0 0 0 0 0 0 0 127 0"/><feOffset dy="1.473"/><feGaussianBlur stdDeviation="1.105"/><feComposite in2="hardAlpha" k2="-1" k3="1" operator="arithmetic"/><feColorMatrix values="0 0 0 0 0.841667 0 0 0 0 0.561793 0 0 0 0 0.248993 0 0 0 1 0"/><feBlend in2="shape" result="effect2_innerShadow_1529_25453"/></filter><filter id="filter7_ii_1529_25453" width="4.75" height="23.422" x="91.963" y="68.113" color-interpolation-filters="sRGB" filterUnits="userSpaceOnUse"><feFlood flood-opacity="0" result="BackgroundImageFix"/><feBlend in="SourceGraphic" in2="BackgroundImageFix" result="shape"/><feColorMatrix in="SourceAlpha" result="hardAlpha" values="0 0 0 0 0 0 0 0 0 0 0 0 0 0 0 0 0 0 127 0"/><feOffset dy=".328"/><feGaussianBlur stdDeviation=".03"/><feComposite in2="hardAlpha" k2="-1" k3="1" operator="arithmetic"/><feColorMatrix values="0 0 0 0 1 0 0 0 0 1 0 0 0 0 1 0 0 0 1 0"/><feBlend in2="shape" result="effect1_innerShadow_1529_25453"/><feColorMatrix in="SourceAlpha" result="hardAlpha" values="0 0 0 0 0 0 0 0 0 0 0 0 0 0 0 0 0 0 127 0"/><feOffset dx="-.02" dy="-.308"/><feGaussianBlur stdDeviation=".02"/><feComposite in2="hardAlpha" k2="-1" k3="1" operator="arithmetic"/><feColorMatrix values="0 0 0 0 0.833333 0 0 0 0 0.833333 0 0 0 0 0.833333 0 0 0 1 0"/><feBlend in2="effect1_innerShadow_1529_25453" result="effect2_innerShadow_1529_25453"/></filter><filter id="filter8_i_1529_25453" width="21.521" height="28.354" x="139.222" y="79.516" color-interpolation-filters="sRGB" filterUnits="userSpaceOnUse"><feFlood flood-opacity="0" result="BackgroundImageFix"/><feBlend in="SourceGraphic" in2="BackgroundImageFix" result="shape"/><feColorMatrix in="SourceAlpha" result="hardAlpha" values="0 0 0 0 0 0 0 0 0 0 0 0 0 0 0 0 0 0 127 0"/><feOffset dx="1.197" dy="-.457"/><feGaussianBlur stdDeviation="1.56"/><feComposite in2="hardAlpha" k2="-1" k3="1" operator="arithmetic"/><feColorMatrix values="0 0 0 0 0.113056 0 0 0 0 0.616667 0 0 0 0 0.58645 0 0 0 1 0"/><feBlend in2="shape" result="effect1_innerShadow_1529_25453"/></filter><filter id="filter9_i_1529_25453" width="20.588" height="25.376" x="125.825" y="85.117" color-interpolation-filters="sRGB" filterUnits="userSpaceOnUse"><feFlood flood-opacity="0" result="BackgroundImageFix"/><feBlend in="SourceGraphic" in2="BackgroundImageFix" result="shape"/><feColorMatrix in="SourceAlpha" result="hardAlpha" values="0 0 0 0 0 0 0 0 0 0 0 0 0 0 0 0 0 0 127 0"/><feOffset dx="1.197" dy="-.457"/><feGaussianBlur stdDeviation="1.56"/><feComposite in2="hardAlpha" k2="-1" k3="1" operator="arithmetic"/><feColorMatrix values="0 0 0 0 0.0996528 0 0 0 0 0.683333 0 0 0 0 0.555806 0 0 0 1 0"/><feBlend in2="shape" result="effect1_innerShadow_1529_25453"/></filter><filter id="filter10_i_1529_25453" width="24.532" height="6.291" x="129.513" y="104.196" color-interpolation-filters="sRGB" filterUnits="userSpaceOnUse"><feFlood flood-opacity="0" result="BackgroundImageFix"/><feBlend in="SourceGraphic" in2="BackgroundImageFix" result="shape"/><feColorMatrix in="SourceAlpha" result="hardAlpha" values="0 0 0 0 0 0 0 0 0 0 0 0 0 0 0 0 0 0 127 0"/><feOffset dx=".499" dy="-.374"/><feGaussianBlur stdDeviation=".437"/><feComposite in2="hardAlpha" k2="-1" k3="1" operator="arithmetic"/><feColorMatrix values="0 0 0 0 0.833333 0 0 0 0 0.604343 0 0 0 0 0.0555555 0 0 0 1 0"/><feBlend in2="shape" result="effect1_innerShadow_1529_25453"/></filter><linearGradient id="paint0_linear_1529_25453" x1="79.553" x2="79.553" y1="0" y2="150" gradientUnits="userSpaceOnUse"><stop stop-color="#B5EFFF"/><stop offset="1" stop-color="#E7F8FE"/></linearGradient><linearGradient id="paint1_linear_1529_25453" x1="78.604" x2="78.604" y1="0" y2="149.124" gradientUnits="userSpaceOnUse"><stop stop-color="#B5EFFF"/><stop offset="1" stop-color="#EDFBFF"/></linearGradient><linearGradient id="paint6_linear_1529_25453" x1="162.491" x2="139.857" y1="80.41" y2="100.738" gradientUnits="userSpaceOnUse"><stop stop-color="#BAFFF1" stop-opacity=".26"/><stop offset=".682" stop-color="#4DC7AE"/><stop offset=".969" stop-color="#06896F"/></linearGradient><linearGradient id="paint7_linear_1529_25453" x1="152.422" x2="138.656" y1="88.299" y2="111.481" gradientUnits="userSpaceOnUse"><stop stop-color="#B7FDEF"/><stop offset=".682" stop-color="#09B794"/><stop offset=".969" stop-color="#7EE0CC"/></linearGradient><linearGradient id="paint8_linear_1529_25453" x1="152.736" x2="131.922" y1="120.728" y2="120.728" gradientUnits="userSpaceOnUse"><stop offset=".099" stop-color="#FFEEC5"/><stop offset=".607" stop-color="#FACD63"/><stop offset=".839" stop-color="#EAAF23"/><stop offset=".984" stop-color="#EDB52F"/></linearGradient><linearGradient id="paint9_linear_1529_25453" x1="153.546" x2="131.228" y1="108.465" y2="108.465" gradientUnits="userSpaceOnUse"><stop offset=".099" stop-color="#FFEEC5"/><stop offset=".607" stop-color="#FCBD27"/><stop offset=".984" stop-color="#EFB222"/></linearGradient><radialGradient id="paint2_radial_1529_25453" cx="0" cy="0" r="1" gradientTransform="rotate(-15.177 399.924 13.672) scale(18.2603)" gradientUnits="userSpaceOnUse"><stop stop-color="#FFF1CF"/><stop offset=".188" stop-color="#FFE4A2"/><stop offset=".318" stop-color="#FFD364"/><stop offset=".49" stop-color="#FFD364"/><stop offset=".651" stop-color="#FFC73A"/><stop offset=".948" stop-color="#D09500"/></radialGradient><radialGradient id="paint3_radial_1529_25453" cx="0" cy="0" r="1" gradientTransform="rotate(121.889 -23.45 55.766) scale(3.99912 3.64201)" gradientUnits="userSpaceOnUse"><stop stop-color="#fff"/><stop offset=".694" stop-color="#fff" stop-opacity="0"/></radialGradient><radialGradient id="paint4_radial_1529_25453" cx="0" cy="0" r="1" gradientTransform="rotate(-15.177 197.262 -499.935) scale(13.9375)" gradientUnits="userSpaceOnUse"><stop stop-color="#E6C6FF"/><stop offset=".188" stop-color="#C07DF5"/><stop offset=".318" stop-color="#BE6FFC"/><stop offset=".49" stop-color="#B56AF0"/><stop offset=".651" stop-color="#A745F4"/><stop offset=".948" stop-color="#9F3DED"/></radialGradient><radialGradient id="paint5_radial_1529_25453" cx="0" cy="0" r="1" gradientTransform="matrix(-1.6125 2.59171 -2.36028 -1.46852 138.638 34.175)" gradientUnits="userSpaceOnUse"><stop stop-color="#fff"/><stop offset=".694" stop-color="#fff" stop-opacity="0"/></radialGradient></defs></svg>