<svg xmlns="http://www.w3.org/2000/svg" width="337" height="189" fill="none" viewBox="0 0 337 189"><path fill="#fff" d="M0 0h337v189H0z" opacity=".01"/><path fill="#CFD7DF" d="M273.899 154.807l20.889-.226.075 6.959-20.889.226zM273.688 144.955l17.667-.177.059 5.886-17.667.177z"/><path fill="#92A2B1" d="M273.754 151.638l21.882-.219.026 2.587-21.882.219z"/><path stroke="#fff" stroke-width=".5" d="M276.955 149.626a1.964 1.964 0 100-3.926 1.964 1.964 0 100 3.926zM290.16 160.063a1.964 1.964 0 100-3.927 1.964 1.964 0 100 3.927z" clip-rule="evenodd"/><path fill="#fff" d="M291.464 144.516l-4.031.046 4.031-.046z"/><path stroke="#92A2B1" stroke-width=".5" d="M291.464 144.516l-4.031.046"/><path fill="#fff" d="M277.943 154.934l-4.036.046 4.036-.046z"/><path stroke="#92A2B1" stroke-width=".5" d="M277.943 154.934l-4.036.046"/><path fill="#CFD7DF" d="M274.596 128.043h13.076v15.969h-13.076z"/><path stroke="#92A2B1" stroke-width=".5" d="M287.415 132.217a3.814 3.814 0 013.683 3.81 3.814 3.814 0 01-3.683 3.81M287.415 133.428a2.602 2.602 0 110 5.203"/><path fill="#fff" d="M281.133 139.355a3.327 3.327 0 003.329-3.326 3.327 3.327 0 00-3.329-3.325 3.327 3.327 0 100 6.651z"/><path stroke="#fff" stroke-width=".5" d="M275.739 137.135v-8.01h7.098"/><path fill="#EBEFF3" d="M251.506 50.608c-.615 9.803 7.346 17.74 14.375 24.625 7.03 6.886 14.187 16.088 11.529 25.542-2.383 8.483-11.675 12.928-20.266 14.905-8.59 1.977-17.906 2.752-24.907 8.133-2.953 2.294-5.299 5.235-8.155 7.625-10.229 8.541-25.1 8.326-38.231 6.037-13.131-2.29-26.496-6.221-39.563-3.565-18.365 3.73-33.099 19.964-51.831 20.643-12.534.459-24.508-6.528-32.52-16.17-8.012-9.643-12.539-21.698-15.776-33.805-2.002-7.5-3.572-15.28-2.7-22.996.873-7.716 4.523-15.432 11.052-19.643 4.678-3.019 10.955-4.496 13.383-9.505 1.598-3.299.987-7.18 1.378-10.822a19.67 19.67 0 0110.522-15.45 19.702 19.702 0 0118.701.312c4.94 2.752 8.54 7.578 13.618 10.092 7.699 3.798 17.135 1.45 24.517-2.922 7.383-4.372 13.503-10.615 20.684-15.294 7.181-4.68 16.226-7.8 24.334-5.047 8.902 3.051 14.921 12.565 24.233 13.955 5.587.835 11.129-1.514 16.165-4.073 8.517-4.34 21.198-10.221 28.687-.487 6.611 8.583 1.35 18.735.771 27.91z"/><path fill="#CFD7DF" d="M252.263 37.548c5.518 0 9.991-4.47 9.991-9.983 0-5.513-4.473-9.982-9.991-9.982s-9.991 4.47-9.991 9.983c0 5.512 4.473 9.982 9.991 9.982z"/><path fill="#fff" d="M252.263 35.465c4.366 0 7.906-3.537 7.906-7.9 0-4.362-3.54-7.899-7.906-7.899-4.367 0-7.907 3.537-7.907 7.9 0 4.362 3.54 7.899 7.907 7.899z"/><path stroke="#92A2B1" stroke-width=".5" d="M262.285 27.566c0-5.531-4.487-10.015-10.022-10.015M245.174 34.648c3.916 3.908 10.261 3.908 14.178 0M252.263 21.157v-1.491M252.263 33.979v1.49M244.353 27.566h1.492M258.677 27.566h1.492M246.671 33.153l1.056-1.055M256.799 23.033l1.056-1.055M257.855 33.153l-1.056-1.055M247.727 23.033l-1.056-1.055M255.441 25.662l-3.26 2.243-4.288 2.165M283.989 161.751h-53.406"/><path fill="#fff" d="M30.89 160.774v-82.71h92.032v82.71z"/><path fill="#CFD7DF" d="M85.003 154.347V78.063h37.915v76.284z"/><path stroke="#92A2B1" stroke-width=".5" d="M37.446 128.726a4.172 4.172 0 004.173-4.17 4.172 4.172 0 00-4.173-4.17 4.172 4.172 0 00-4.173 4.17 4.172 4.172 0 004.173 4.17zM50.7 128.726a4.172 4.172 0 004.174-4.17 4.172 4.172 0 00-4.173-4.17 4.172 4.172 0 00-4.174 4.17 4.172 4.172 0 004.174 4.17zM63.956 128.726a4.172 4.172 0 004.173-4.17 4.172 4.172 0 00-4.173-4.17 4.172 4.172 0 00-4.174 4.17 4.172 4.172 0 004.174 4.17z" clip-rule="evenodd"/><path fill="#fff" d="M125.475 160.778v-37.305h92.032v37.305z"/><path fill="#fff" stroke="#B1BDC7" stroke-width=".5" d="M35.164 158.847v-14.996H54.81v14.996z"/><path stroke="#B1BDC7" stroke-width=".5" d="M105.709 157.223V85.719h17.213v71.504zM85.003 157.219V85.715h17.213v71.504z"/><path stroke="#B1BDC7" stroke-width=".5" d="M28.984 162.333V74.76h100.26v87.573zM135.686 162.338v-41.91h86.256v41.91z"/><path stroke="#B1BDC7" stroke-width=".5" d="M152.825 155.599v-24.047h57.304v24.047z"/><path fill="#CFD7DF" d="M73.07 151.59v-48.51h5.996v48.51zM46.28 65.554V54.14h22.295v11.413z"/><path fill="#fff" d="M62.193 106.799H22.125v-41.63h69.572v32.716L81.233 106.8H67.4"/><path stroke="#92A2B1" stroke-width=".5" d="M62.193 106.799H22.125v-41.63h69.572v32.716L81.233 106.8H67.4"/><rect width="17.978" height="16.57" x="28.806" y="101.037" stroke="#92A2B1" stroke-width=".5" rx="2.655" transform="rotate(-90 28.806 101.037)"/><path fill="#EBEFF3" d="M55.802 101.413a3.947 3.947 0 003.949-3.945 3.947 3.947 0 00-3.949-3.945 3.947 3.947 0 00-3.949 3.945 3.947 3.947 0 003.949 3.945z"/><path stroke="#92A2B1" stroke-width=".5" d="M74.791 96.023c6.776 0 12.268-5.488 12.268-12.258 0-6.77-5.492-12.257-12.268-12.257-6.775 0-12.268 5.488-12.268 12.257 0 6.77 5.493 12.258 12.268 12.258z" clip-rule="evenodd"/><path stroke="#92A2B1" stroke-width=".5" d="M66.12 83.766h17.345M74.792 75.1V92.43M68.657 77.637l12.268 12.257M80.925 77.637L68.657 89.894"/><path fill="#CFD7DF" d="M58.81 47.98l.165.302h1.377a1.7 1.7 0 001.708-1.693V30.735c0-.453-.178-.888-.496-1.21a1.704 1.704 0 00-1.212-.496h-1.377l-.166.303a2.755 2.755 0 01-4.811 0l-.18-.303h-1.377a1.686 1.686 0 00-1.694 1.706v15.85c0 .933.756 1.69 1.69 1.693h1.377l.18-.303a2.755 2.755 0 014.81 0l.005.004z"/><rect width="10.482" height="5.046" x="58.92" y="33.414" stroke="#fff" stroke-width=".5" rx="1.47" transform="rotate(90 58.92 33.414)"/><path stroke="#92A2B1" stroke-width=".5" d="M58.975 29.033h1.377M50.747 46.59V30.74M46.28 54.14h13.18"/><path fill="#fff" d="M215.028 112.79H89.686a2.756 2.756 0 01-2.778-2.753V15.799a2.777 2.777 0 012.778-2.752H236.5a2.754 2.754 0 012.755 2.752v94.22a2.754 2.754 0 01-2.755 2.753"/><path stroke="#273139" stroke-width=".5" d="M215.028 112.79H89.686a2.756 2.756 0 01-2.778-2.753V15.799a2.777 2.777 0 012.778-2.752H236.5a2.754 2.754 0 012.755 2.752v94.22a2.754 2.754 0 01-2.755 2.753"/><path fill="#273139" stroke="#273139" stroke-width=".5" d="M89.668 13.024H236.5a2.753 2.753 0 012.755 2.752v10.06H86.89V15.8a2.751 2.751 0 012.778-2.775z"/><path fill="#fff" d="M91.866 20.882a1.276 1.276 0 10.001-2.552 1.276 1.276 0 000 2.552zM96.067 20.882a1.276 1.276 0 10.001-2.552 1.276 1.276 0 000 2.552zM100.264 20.882a1.275 1.275 0 10.001-2.551 1.275 1.275 0 00-.001 2.55z"/><rect width="137.931" height="19.684" x="92.799" y="32.506" fill="#fff" stroke="#B2E4D9" stroke-width=".5" rx="3.625"/><path fill="#DFF4F0" d="M118.914 39.91h78.929c1.786 0 1.79-2.752 0-2.752h-78.929c-1.781 0-1.786 2.752 0 2.752zM118.914 47.209h17.08c1.786 0 1.79-2.753 0-2.753h-17.08c-1.781 0-1.786 2.753 0 2.753zM143.115 47.209h32.084c1.786 0 1.79-2.753 0-2.753h-32.084c-1.786 0-1.791 2.753 0 2.753z"/><rect width="137.931" height="19.684" x="92.799" y="57.296" fill="#fff" stroke="#B2E4D9" stroke-width=".5" rx="3.625"/><path fill="#DFF4F0" d="M118.914 64.71h69.466c1.786 0 1.786-2.753 0-2.753h-69.466c-1.781 0-1.786 2.753 0 2.753zM118.914 72.022h17.08c1.786 0 1.79-2.753 0-2.753h-17.08c-1.781 0-1.786 2.753 0 2.753zM143.115 72.022h25.192c1.786 0 1.791-2.753 0-2.753h-25.192c-1.786 0-1.791 2.753 0 2.753z"/><rect width="137.931" height="19.684" x="92.799" y="82.087" fill="#fff" stroke="#B2E4D9" stroke-width=".5" rx="3.625"/><path fill="#DFF4F0" d="M118.914 89.5h74.204c1.786 0 1.791-2.753 0-2.753h-74.204c-1.781 0-1.786 2.753 0 2.753zM118.914 96.794h17.08c1.786 0 1.79-2.753 0-2.753h-17.08c-1.781 0-1.786 2.753 0 2.753zM143.115 96.794h36.404c1.786 0 1.786-2.753 0-2.753h-36.404c-1.786 0-1.791 2.753 0 2.753z"/><rect width="13.774" height="13.762" x="96.412" y="35.465" fill="#DFF4F0" rx="2.65"/><path fill="#fff" d="M98.712 49.268a4.713 4.713 0 014.715-4.71 4.713 4.713 0 014.715 4.71"/><path stroke="#B2E4D9" stroke-width=".5" d="M98.712 49.268a4.713 4.713 0 014.715-4.71 4.713 4.713 0 014.715 4.71"/><path fill="#fff" stroke="#B2E4D9" stroke-width=".5" d="M103.207 43.277a2.612 2.612 0 002.613-2.61c0-1.442-1.17-2.61-2.613-2.61a2.61 2.61 0 100 5.22z"/><rect width="13.774" height="13.762" x="96.412" y="60.255" fill="#DFF4F0" rx="2.65"/><path fill="#fff" d="M98.712 74.058a4.713 4.713 0 014.715-4.71 4.713 4.713 0 014.715 4.71"/><path stroke="#B2E4D9" stroke-width=".5" d="M98.712 74.058a4.713 4.713 0 014.715-4.71 4.713 4.713 0 014.715 4.71"/><path fill="#fff" stroke="#B2E4D9" stroke-width=".5" d="M103.207 68.067a2.612 2.612 0 002.613-2.61 2.612 2.612 0 00-5.225 0 2.61 2.61 0 002.612 2.61z"/><rect width="13.774" height="13.762" x="96.412" y="85.045" fill="#DFF4F0" rx="2.65"/><path fill="#fff" d="M98.712 98.849a4.713 4.713 0 014.715-4.711 4.713 4.713 0 014.715 4.71"/><path stroke="#B2E4D9" stroke-width=".5" d="M98.712 98.849a4.713 4.713 0 014.715-4.711 4.713 4.713 0 014.715 4.71"/><path fill="#fff" stroke="#B2E4D9" stroke-width=".5" d="M103.207 92.858a2.612 2.612 0 002.613-2.61 2.612 2.612 0 00-5.225 0 2.61 2.61 0 002.612 2.61z"/><path stroke="#92A2B1" stroke-width=".5" d="M28.985 162.168h-8.577"/><path fill="#CFD7DF" d="M305.006 60.94l-5.28.995-5.206-27.584 5.28-.995zM295.572 61.687h-19.361v-6.45h19.361zM279.2 45.892h16.372v5.454H279.2z"/><path stroke="#92A2B1" stroke-width=".5" d="M300.82 35.864l-6.341 1.193M301.1 37.341l-6.34 1.193M304.768 56.773l-6.34 1.193M305.048 58.25l-6.345 1.193"/><path fill="#CFD7DF" d="M306.973 62.32h-1.074V32.245h1.074zM274.168 62.32h-1.074V32.245h1.074z"/><path fill="#92A2B1" d="M295.568 54.485h-20.28v-2.4h20.28z"/><path stroke="#fff" stroke-width=".5" d="M292.676 50.475a1.817 1.817 0 10-1.819-1.817c0 1.004.814 1.817 1.819 1.817zM280.541 60.283a1.817 1.817 0 10.001-3.635 1.817 1.817 0 00-.001 3.635z" clip-rule="evenodd"/><path fill="#fff" d="M306.973 32.245v15.757-15.757z"/><path stroke="#92A2B1" stroke-width=".5" d="M306.973 32.245v15.757M316.591 62.416h-55.894"/><path fill="#fff" d="M305.899 61.723v-5.867 5.867z"/><path stroke="#92A2B1" stroke-width=".5" d="M305.899 61.723v-5.867"/><path fill="#fff" d="M273.094 61.723V49.99v11.734z"/><path stroke="#92A2B1" stroke-width=".5" d="M273.094 61.723V49.99"/><path fill="#fff" d="M279.2 45.892h3.738-3.738z"/><path stroke="#92A2B1" stroke-width=".5" d="M279.2 45.892h3.737"/><path fill="#fff" d="M291.835 55.41h3.737-3.737z"/><path stroke="#92A2B1" stroke-width=".5" d="M291.835 55.41h3.737M264.127 121.965l-2.686 8.216c-2.029 6.197-3.916 16.225-12.185 16.477h-15.445s-9.298-.321-11.841 4.762l-11.658 24.859"/><rect width="2.851" height="22.012" fill="#CFD7DF" rx="1.425" transform="rotate(18.645 -203.552 856.068) skewX(-.03)"/><path stroke="#131735" stroke-linecap="round" stroke-linejoin="round" stroke-width=".72" d="M185.529 168.283s-6.161 1.808-8.999 4.716c0 0 7.521 2.395 18.696.688 0 0 .239-2.087-1.469-4.587a7.425 7.425 0 01-8.228-.817z" clip-rule="evenodd"/><path fill="#fff" d="M216.855 161.742c1.446-.542 2.86-1.477 4.394-1.298 1.657.197 2.998 2.009 2.516 3.605-.349 1.142-1.419 1.904-2.447 2.514a32.918 32.918 0 01-16.024 4.587c.234 0 1.735-2.931 1.988-3.293a28.836 28.836 0 012.7-3.289c.711-.748 1.634-1.964 2.626-2.271 1.313-.436 2.842-.032 4.247-.555z"/><path fill="#5CA6F4" d="M212.733 101.643a6.999 6.999 0 001.313 7.904c2.378 2.339 6.042 2.624 9.38 2.752 5.702.252 11.671.459 16.822-2.009a17.606 17.606 0 005.969-4.656 5.296 5.296 0 001.244-2.294 2.247 2.247 0 00-.863-2.326c-1.125-.702-2.548.073-3.724.688-3.966 2.074-8.659 2.294-13.112 1.808-4.454-.487-8.825-1.569-13.287-1.959-1.309-.115-2.755-.119-3.756.757s-.827 2.904.459 3.119"/><path stroke="#131735" stroke-linecap="round" stroke-linejoin="round" stroke-width=".72" d="M233.062 102.698a138.739 138.739 0 01-19.839-.982.885.885 0 00-.991.743 9.296 9.296 0 00.638 4.794c1.088 2.826 2.947 3.977 3.558 4.294a.86.86 0 00.395.096c1.515 0 2.966.037 4.366.046M236.864 102.505c-.675.05-1.354.092-2.029.124M226.35 111.675c24.884-.243 29.044-3.133 29.044-3.133l-.156-.28a4.894 4.894 0 00-1.763-8.505 4.843 4.843 0 00-2.92.078v0c-3.416 1.34-7.557 2.115-11.841 2.523"/><path fill="#FF5959" d="M251.496 134.309a6.506 6.506 0 01-1.903 4.612 6.515 6.515 0 01-4.612 1.911l-34.434 1.216-13.581 20.932a4.331 4.331 0 01-8.306-1.711 4.242 4.242 0 01.432-1.871l.252-.459 13.246-24.07a5.366 5.366 0 014.5-3.459v-.028l36.675-3.472 1.216-.115a6.515 6.515 0 014.61 1.907 6.5 6.5 0 011.905 4.607z"/><path fill="#527FA5" d="M244.981 127.804l-1.216.115a6.616 6.616 0 011.216-.115zM210.505 156.654a3.59 3.59 0 01-.092-.628l.092.628zM213.076 118.854l-.642-.174c.218.044.432.102.642.174z"/><path fill="#FF5959" d="M246.804 133.465l-12.038-1.05-2.324-3.418-14.93 1.408-.313-.055 1.727 24.313a4.325 4.325 0 01-2.286 4.956 4.332 4.332 0 01-5.322-1.221 4.216 4.216 0 01-.813-1.744l-.092-.628-4.439-31.603h.023c0-.16-.023-.321-.023-.481a5.374 5.374 0 015.376-5.372c.308 0 .615.028.918.083l.152.027.643.174 31.679 8.657 2.062 5.954z"/><path fill="#527FA5" d="M212.433 118.68l-.151-.027.151.027z"/><path fill="#131735" d="M217.512 130.401s1.662 10.574 3.31 11.271l-2.814.096"/><path stroke="#fff" stroke-linecap="round" stroke-linejoin="round" stroke-width=".72" d="M205.593 124.726l4.504 31.942"/><path fill="#5CA6F4" d="M259.008 99.404c-1.157-.202-2.296.165-3.793.165-2.98 0-5.413-1.298-5.601-2.936-.124-1.032-4.477 6.34-4.78 7.005-9.963 22.079-12.235 13.501-12.942 22.501-.607 7.757 9.412 8.592 14.774 10.368 5.184 1.72 8.444-2.858 9.94-7.051 2.264-6.335-5.179-21.382 1.534-21.818 9.531 4.611 5.569-7.431.868-8.234z"/><path fill="#5CA6F4" d="M265.21 121.625c.299 2.198.524 4.688-.918 6.381-.918 1.106-2.401 1.61-3.801 1.996a44.12 44.12 0 01-17.447 1.165c-.179-2.459-1.116-4.175-1.295-6.638 2.112.807 5.05-.665 7.3-.601 2.25.064 6.428.495 7.691-1.376.996-1.491-.634-3.12-.79-4.904-.156-1.785-.565-3.56-.519-5.358.083-3.326 3.976-7.987 7.172-4.491 1.226 1.339 1.203 3.739 1.432 5.404l1.175 8.422z"/><path stroke="#fff" stroke-linecap="round" stroke-linejoin="round" stroke-width=".72" d="M216.111 124.726a11.665 11.665 0 011.492 5.413c0 .133.074.248.207.234l11.267-1.064"/><path stroke="#131735" stroke-linecap="round" stroke-linejoin="round" stroke-width=".72" d="M210.707 103.785c-1.259-.06-2.521.04-3.756.298a5.096 5.096 0 00-2.878 1.707c-.978 1.252-1.378 4.238.078 5.335M209.362 107.45a4.586 4.586 0 01-2.388 2.835c-.532.239.368.918.524.964 1.083.403 4.945-.427 4.669-2.046"/><path fill="#EBEFF3" d="M253.723 81.853s-4.592 7.34-3.889 10.592c0 0 2.341 6.147 7.699 3.312 0 0 2.797-1.835 3.416-4.496l2.223-6.16-4.133-4.716-5.316 1.468z"/><path stroke="#131735" stroke-linecap="round" stroke-linejoin="round" stroke-width=".72" d="M253.213 81.655c-1.538 2.57-2.952 5.505-3.388 8.496-.23 1.578 0 3.33 1.005 4.615 1.584 1.982 5.051 2.037 7.08.766 1.804-1.124 2.856-3.179 3.512-5.129"/><path fill="#12344D" d="M251.083 76.742s.569 3.211 4.761 4.198c3.471.84 2.02 4.55 1.424 5.794a.485.485 0 00.206.642l.459.257c.233.129.526.05.661-.18.386-.66 1.217-1.802 2.007-1.11 0 0 1.648.524-.064 6.551 0 0 4.729-1.605 6.097-8.798 0 0 .583-2.895-1.837-2.753 0 0 1.97-2.527-.257-3.853s-8.673-1.083-8.673-1.083-2.424.06-3.994-.674a.62.62 0 00-.863.683l.073.326z"/><path stroke="#12344D" stroke-linecap="round" stroke-linejoin="round" stroke-width=".72" d="M264.224 81.655a4.694 4.694 0 013.54-1.275M264.457 81.394a4.708 4.708 0 013.636.968"/><path fill="#EBEFF3" stroke="#131735" stroke-linecap="round" stroke-linejoin="round" stroke-width=".72" d="M253.738 86.405c.521-1.9-.006-3.702-1.178-4.022-1.171-.321-2.543.96-3.064 2.861-.522 1.901.005 3.702 1.177 4.023 1.171.32 2.543-.96 3.065-2.862z"/><path stroke="#131735" stroke-linecap="round" stroke-linejoin="round" stroke-width=".72" d="M253.925 84.775l4.77 2.417"/><path fill="#fff" d="M252.282 85.472l-.579-2.986.579 2.986z"/><path stroke="#131735" stroke-linecap="round" stroke-linejoin="round" stroke-width=".5" d="M252.282 85.472l-.579-2.986"/><path fill="#fff" d="M250.808 82.944l.39 2.22-.39-2.22z"/><path stroke="#131735" stroke-linecap="round" stroke-linejoin="round" stroke-width=".5" d="M250.808 82.944l.39 2.22"/><path fill="#fff" d="M251.014 86.67l.367 2.55-.367-2.55z"/><path stroke="#131735" stroke-linecap="round" stroke-linejoin="round" stroke-width=".5" d="M251.014 86.67l.367 2.55"/><path stroke="#131735" stroke-linecap="round" stroke-linejoin="round" stroke-width=".72" d="M212.576 162.251s-5.105 3.886-6.717 7.615c0 0 11.621-.816 17.397-6.808 0 0-.216-1.261-2.7-2.986a7.434 7.434 0 01-7.98 2.179v0z" clip-rule="evenodd"/><path stroke="#131735" stroke-linecap="round" stroke-linejoin="round" stroke-width=".72" d="M223.265 163.058c.882-.243 1.263.844 1.263.844-6.887 7.189-18.365 7.189-18.365 7.189s-1.125.027-1.07-.574c.055-.6.767-.651.767-.651"/><path stroke="#92A2B1" stroke-width=".5" d="M260.036 133.346h-30.775"/><path stroke="#131735" stroke-linecap="round" stroke-linejoin="round" stroke-width=".72" d="M258.066 130.942c-5.271.152-6.643.298-11.937.459M263.457 108.4l1.97 15.845"/><path fill="#131735" d="M254.954 112.698l-.087 8.12c-.032.456.017.914.142 1.353.132.452.493.801.95.918.726.128 1.378-.624 1.424-1.377a5.531 5.531 0 00-.459-2.147c-.992-3.105.179-5.876-.101-8.922-.322-3.427-1.851.372-1.869 2.055z"/><path stroke="#131735" stroke-linecap="round" stroke-linejoin="round" stroke-width=".72" d="M255.923 112.019l.73 9.689M256.593 123.355a61.62 61.62 0 01-14.825 1.174c1.377 1.963 1.464 5.537.22 7.588M240.417 125.561h-3.962c-.643 0-1.409.069-1.74.624-.331.555.096 1.445.748 1.729a3.8 3.8 0 002.103.074M240.964 130.667c-3.03.684-6.145.912-9.242.679-.592-.046-1.295-.193-1.506-.748a1.045 1.045 0 01.239-1.028c.256-.263.571-.464.918-.587a6.278 6.278 0 013.361-.335"/><path fill="#131735" d="M242.571 108.9c-.519 1.119-1.121 2.326-2.241 2.849.459-.216 1.235-4.45 1.497-5.138.459-1.262 1.262-4.198 2.396-4.991 1.621-1.133 1.52.422 1.024 1.536-.854 1.932-1.781 3.831-2.676 5.744z"/><path stroke="#131735" stroke-linecap="round" stroke-linejoin="round" stroke-width=".72" d="M258.691 99.014c-1.786.353-3.622.711-5.417.413s-3.577-1.404-4.132-3.133M252.722 135.429l-.335-.542c-.762 1.055-2.14 1.519-3.439 1.5a12.266 12.266 0 01-3.788-.88l-4.366-1.519M233.526 120.717a7.7 7.7 0 00-1.685 4.555M249.692 137.066a4.502 4.502 0 01-4.591 3.468M230.734 124.277l-4.646-1.904M176.53 172.999s-.675-.133-.785.363a.545.545 0 00.39.637s2.943 1.376 9.747 1.376c3.287.14 6.579-.096 9.812-.701 0 0 .28 0 .211-.556-.069-.555-.679-.435-.679-.435"/><rect width="29.678" height="3.528" x="223.265" y="140.819" fill="#CFD7DF" rx="1.764"/><path stroke="#92A2B1" stroke-width=".5" d="M241.015 146.659s11.478-.996 14.412 7.248c2.934 8.243 9.1 22.831 9.1 22.831"/><path fill="#fff" d="M94.369 131.694h30.096v30.07H94.369z"/><path stroke="#92A2B1" stroke-width=".5" d="M94.37 131.694v17.295"/><path fill="#CFD7DF" d="M124.465 131.694h18.292v30.07h-18.292z"/><path stroke="#92A2B1" stroke-width=".5" d="M118.455 161.765h14.348M142.655 137.314v13.051M124.465 148.599v13.051M98.759 131.538h17.773M97.859 153.787v-16.868M110.535 157.641h-10.496"/><path stroke="#fff" stroke-width=".5" d="M135.044 157.641h-5.248"/><path stroke="#92A2B1" stroke-width=".5" d="M120.177 143.947v9.198M106.467 138.167h8.563M139.657 161.765h3.099v-3.482"/><path stroke="#fff" stroke-width=".5" d="M127.711 137.571v15.244M124.465 131.694v9.895"/><path stroke="#92A2B1" stroke-width=".5" d="M142.757 131.694h-4.536"/></svg>