<svg width="137" height="129" viewBox="0 0 137 129" fill="none" xmlns="http://www.w3.org/2000/svg">
<mask id="mask0_331_22432" style="mask-type:alpha" maskUnits="userSpaceOnUse" x="0" y="0" width="129" height="129">
<path d="M64.2751 128.55C99.7733 128.55 128.55 99.7733 128.55 64.2751C128.55 28.777 99.7733 0 64.2751 0C28.777 0 0 28.777 0 64.2751C0 99.7733 28.777 128.55 64.2751 128.55Z" fill="url(#paint0_linear_331_22432)"/>
</mask>
<g mask="url(#mask0_331_22432)">
<path d="M64.267 127.799C99.7607 127.799 128.534 99.1904 128.534 63.8996C128.534 28.6088 99.7607 0 64.267 0C28.7733 0 0 28.6088 0 63.8996C0 99.1904 28.7733 127.799 64.267 127.799Z" fill="url(#paint1_linear_331_22432)"/>
<mask id="mask1_331_22432" style="mask-type:alpha" maskUnits="userSpaceOnUse" x="-13" y="-18" width="156" height="155">
<path d="M65.1709 136.805C107.872 136.805 142.487 102.189 142.487 59.4883C142.487 16.7876 107.872 -17.8281 65.1709 -17.8281C22.4702 -17.8281 -12.1455 16.7876 -12.1455 59.4883C-12.1455 102.189 22.4702 136.805 65.1709 136.805Z" fill="url(#paint2_linear_331_22432)"/>
</mask>
<g mask="url(#mask1_331_22432)">
<path d="M84.3428 34.3496C82.5894 34.3496 81.168 35.771 81.168 37.5245V196.673H243.492V34.3496H84.3428ZM243.015 44.4402H233.322V34.7469H243.015V44.4402ZM162.529 105.143V95.4495H172.222V105.143H162.529ZM172.222 105.62V115.313H162.529V105.62H172.222ZM162.131 105.143H152.438V95.4495H162.131V105.143ZM162.131 105.62V115.313H152.438V105.62H162.131ZM151.961 115.313H142.268V105.62H151.961V115.313ZM151.961 115.71V125.403H142.268V115.71H151.961ZM152.438 115.71H162.131V125.403H152.438V115.71ZM162.131 125.801V135.494H152.438V125.801H162.131ZM162.529 125.801H172.222V135.494H162.529V125.801ZM162.529 125.403V115.71H172.222V125.403H162.529ZM172.619 115.71H182.312V125.403H172.619V115.71ZM172.619 115.313V105.62H182.312V115.313H172.619ZM172.619 105.143V95.4495H182.312V105.143H172.619ZM172.619 95.0522V85.3589H182.312V95.0522H172.619ZM172.222 95.0522H162.529V85.3589H172.222V95.0522ZM162.131 95.0522H152.438V85.3589H162.131V95.0522ZM151.961 95.0522H142.268V85.3589H151.961V95.0522ZM151.961 95.4495V105.143H142.268V95.4495H151.961ZM141.871 105.143H132.177V95.4495H141.871V105.143ZM141.871 105.62V115.313H132.177V105.62H141.871ZM141.871 115.71V125.403H132.177V115.71H141.871ZM141.871 125.801V135.494H132.177V125.801H141.871ZM142.268 125.801H151.961V135.494H142.268V125.801ZM151.961 135.971V145.664H142.268V135.971H151.961ZM152.438 135.971H162.131V145.664H152.438V135.971ZM162.529 135.971H172.222V145.664H162.529V135.971ZM172.619 135.971H182.312V145.664H172.619V135.971ZM172.619 135.494V125.801H182.312V135.494H172.619ZM182.789 125.801H192.483V135.494H182.789V125.801ZM182.789 125.403V115.71H192.483V125.403H182.789ZM182.789 115.313V105.62H192.483V115.313H182.789ZM182.789 105.143V95.4495H192.483V105.143H182.789ZM182.789 95.0522V85.3589H192.483V95.0522H182.789ZM182.789 84.9616V75.2682H192.483V84.9616H182.789ZM182.312 84.9616H172.619V75.2682H182.312V84.9616ZM172.222 84.9616H162.529V75.2682H172.222V84.9616ZM162.131 84.9616H152.438V75.2682H162.131V84.9616ZM151.961 84.9616H142.268V75.2682H151.961V84.9616ZM141.871 84.9616H132.177V75.2682H141.871V84.9616ZM141.871 85.3589V95.0522H132.177V85.3589H141.871ZM131.78 95.0522H122.087V85.3589H131.78V95.0522ZM131.78 95.4495V105.143H122.087V95.4495H131.78ZM131.78 105.62V115.313H122.087V105.62H131.78ZM131.78 115.71V125.403H122.087V115.71H131.78ZM131.78 125.801V135.494H122.087V125.801H131.78ZM131.78 135.971V145.664H122.087V135.971H131.78ZM132.177 135.971H141.871V145.664H132.177V135.971ZM141.871 146.061V155.755H132.177V146.061H141.871ZM142.268 146.061H151.961V155.755H142.268V146.061ZM152.438 146.061H162.131V155.755H152.438V146.061ZM162.529 146.061H172.222V155.755H162.529V146.061ZM172.619 146.061H182.312V155.755H172.619V146.061ZM182.789 146.061H192.483V155.755H182.789V146.061ZM182.789 145.664V135.971H192.483V145.664H182.789ZM192.88 135.971H202.573V145.664H192.88V135.971ZM192.88 135.494V125.801H202.573V135.494H192.88ZM192.88 125.403V115.71H202.573V125.403H192.88ZM192.88 115.313V105.62H202.573V115.313H192.88ZM192.88 105.143V95.4495H202.573V105.143H192.88ZM192.88 95.0522V85.3589H202.573V95.0522H192.88ZM192.88 84.9616V75.2682H202.573V84.9616H192.88ZM192.88 74.7915V65.0982H202.573V74.7915H192.88ZM192.483 74.7915H182.789V65.0982H192.483V74.7915ZM182.312 74.7915H172.619V65.0982H182.312V74.7915ZM172.222 74.7915H162.529V65.0982H172.222V74.7915ZM162.131 74.7915H152.438V65.0982H162.131V74.7915ZM151.961 74.7915H142.268V65.0982H151.961V74.7915ZM141.871 74.7915H132.177V65.0982H141.871V74.7915ZM131.78 74.7915H122.087V65.0982H131.78V74.7915ZM131.78 75.2682V84.9616H122.087V75.2682H131.78ZM121.61 84.9616H111.917V75.2682H121.61V84.9616ZM121.61 85.3589V95.0522H111.917V85.3589H121.61ZM121.61 95.4495V105.143H111.917V95.4495H121.61ZM121.61 105.62V115.313H111.917V105.62H121.61ZM121.61 115.71V125.403H111.917V115.71H121.61ZM121.61 125.801V135.494H111.917V125.801H121.61ZM121.61 135.971V145.664H111.917V135.971H121.61ZM121.61 146.061V155.755H111.917V146.061H121.61ZM122.087 146.061H131.78V155.755H122.087V146.061ZM131.78 156.152V165.845H122.087V156.152H131.78ZM132.177 156.152H141.871V165.845H132.177V156.152ZM142.268 156.152H151.961V165.845H142.268V156.152ZM152.438 156.152H162.131V165.845H152.438V156.152ZM162.529 156.152H172.222V165.845H162.529V156.152ZM172.619 156.152H182.312V165.845H172.619V156.152ZM182.789 156.152H192.483V165.845H182.789V156.152ZM192.88 156.152H202.573V165.845H192.88V156.152ZM192.88 155.755V146.061H202.573V155.755H192.88ZM202.97 146.061H212.664V155.755H202.97V146.061ZM202.97 145.664V135.971H212.664V145.664H202.97ZM202.97 135.494V125.801H212.664V135.494H202.97ZM202.97 125.403V115.71H212.664V125.403H202.97ZM202.97 115.313V105.62H212.664V115.313H202.97ZM202.97 105.143V95.4495H212.664V105.143H202.97ZM202.97 95.0522V85.3589H212.664V95.0522H202.97ZM202.97 84.9616V75.2682H212.664V84.9616H202.97ZM202.97 74.7915V65.0982H212.664V74.7915H202.97ZM202.97 64.7009V55.0076H212.664V64.7009H202.97ZM202.573 64.7009H192.88V55.0076H202.573V64.7009ZM192.483 64.7009H182.789V55.0076H192.483V64.7009ZM182.312 64.7009H172.619V55.0076H182.312V64.7009ZM172.222 64.7009H162.529V55.0076H172.222V64.7009ZM162.131 64.7009H152.438V55.0076H162.131V64.7009ZM151.961 64.7009H142.268V55.0076H151.961V64.7009ZM141.871 64.7009H132.177V55.0076H141.871V64.7009ZM131.78 64.7009H122.087V55.0076H131.78V64.7009ZM121.61 64.7009H111.917V55.0076H121.61V64.7009ZM121.61 65.0982V74.7915H111.917V65.0982H121.61ZM111.519 74.7915H101.826V65.0982H111.519V74.7915ZM111.519 75.2682V84.9616H101.826V75.2682H111.519ZM111.519 85.3589V95.0522H101.826V85.3589H111.519ZM111.519 95.4495V105.143H101.826V95.4495H111.519ZM111.519 105.62V115.313H101.826V105.62H111.519ZM111.519 115.71V125.403H101.826V115.71H111.519ZM111.519 125.801V135.494H101.826V125.801H111.519ZM111.519 135.971V145.664H101.826V135.971H111.519ZM111.519 146.061V155.755H101.826V146.061H111.519ZM111.519 156.152V165.845H101.826V156.152H111.519ZM111.917 156.152H121.61V165.845H111.917V156.152ZM121.61 166.322V176.015H111.917V166.322H121.61ZM122.087 166.322H131.78V176.015H122.087V166.322ZM132.177 166.322H141.871V176.015H132.177V166.322ZM142.268 166.322H151.961V176.015H142.268V166.322ZM152.438 166.322H162.131V176.015H152.438V166.322ZM162.529 166.322H172.222V176.015H162.529V166.322ZM172.619 166.322H182.312V176.015H172.619V166.322ZM182.789 166.322H192.483V176.015H182.789V166.322ZM192.88 166.322H202.573V176.015H192.88V166.322ZM202.97 166.322H212.664V176.015H202.97V166.322ZM202.97 165.845V156.152H212.664V165.845H202.97ZM213.14 156.152H222.834V165.845H213.14V156.152ZM213.14 155.755V146.061H222.834V155.755H213.14ZM213.14 145.664V135.971H222.834V145.664H213.14ZM213.14 135.494V125.801H222.834V135.494H213.14ZM213.14 125.403V115.71H222.834V125.403H213.14ZM213.14 115.313V105.62H222.834V115.313H213.14ZM213.14 105.143V95.4495H222.834V105.143H213.14ZM213.14 95.0522V85.3589H222.834V95.0522H213.14ZM213.14 84.9616V75.2682H222.834V84.9616H213.14ZM213.14 74.7915V65.0982H222.834V74.7915H213.14ZM213.14 64.7009V55.0076H222.834V64.7009H213.14ZM213.14 54.6103V44.9169H222.834V54.6103H213.14ZM212.664 54.6103H202.97V44.9169H212.664V54.6103ZM202.573 54.6103H192.88V44.9169H202.573V54.6103ZM192.483 54.6103H182.789V44.9169H192.483V54.6103ZM182.312 54.6103H172.619V44.9169H182.312V54.6103ZM172.222 54.6103H162.529V44.9169H172.222V54.6103ZM162.131 54.6103H152.438V44.9169H162.131V54.6103ZM151.961 54.6103H142.268V44.9169H151.961V54.6103ZM141.871 54.6103H132.177V44.9169H141.871V54.6103ZM131.78 54.6103H122.087V44.9169H131.78V54.6103ZM121.61 54.6103H111.917V44.9169H121.61V54.6103ZM111.519 54.6103H101.826V44.9169H111.519V54.6103ZM111.519 55.0076V64.7009H101.826V55.0076H111.519ZM101.429 64.7009H91.7353V55.0076H101.429V64.7009ZM101.429 65.0982V74.7915H91.7353V65.0982H101.429ZM101.429 75.2682V84.9616H91.7353V75.2682H101.429ZM101.429 85.3589V95.0522H91.7353V85.3589H101.429ZM101.429 95.4495V105.143H91.7353V95.4495H101.429ZM101.429 105.62V115.313H91.7353V105.62H101.429ZM101.429 115.71V125.403H91.7353V115.71H101.429ZM101.429 125.801V135.494H91.7353V125.801H101.429ZM101.429 135.971V145.664H91.7353V135.971H101.429ZM101.429 146.061V155.755H91.7353V146.061H101.429ZM101.429 156.152V165.845H91.7353V156.152H101.429ZM101.429 166.322V176.015H91.7353V166.322H101.429ZM101.826 166.322H111.519V176.015H101.826V166.322ZM111.519 176.413V186.106H101.826V176.413H111.519ZM111.917 176.413H121.61V186.106H111.917V176.413ZM122.087 176.413H131.78V186.106H122.087V176.413ZM132.177 176.413H141.871V186.106H132.177V176.413ZM142.268 176.413H151.961V186.106H142.268V176.413ZM152.438 176.413H162.131V186.106H152.438V176.413ZM162.529 176.413H172.222V186.106H162.529V176.413ZM172.619 176.413H182.312V186.106H172.619V176.413ZM182.789 176.413H192.483V186.106H182.789V176.413ZM192.88 176.413H202.573V186.106H192.88V176.413ZM202.97 176.413H212.664V186.106H202.97V176.413ZM213.14 176.413H222.834V186.106H213.14V176.413ZM213.14 176.015V166.322H222.834V176.015H213.14ZM223.231 166.322H232.924V176.015H223.231V166.322ZM223.231 165.845V156.152H232.924V165.845H223.231ZM223.231 155.755V146.061H232.924V155.755H223.231ZM223.231 145.664V135.971H232.924V145.664H223.231ZM223.231 135.494V125.801H232.924V135.494H223.231ZM223.231 125.403V115.71H232.924V125.403H223.231ZM223.231 115.313V105.62H232.924V115.313H223.231ZM223.231 105.143V95.4495H232.924V105.143H223.231ZM223.231 95.0522V85.3589H232.924V95.0522H223.231ZM223.231 84.9616V75.2682H232.924V84.9616H223.231ZM223.231 74.7915V65.0982H232.924V74.7915H223.231ZM223.231 64.7009V55.0076H232.924V64.7009H223.231ZM223.231 54.6103V44.9169H232.924V54.6103H223.231ZM223.231 44.4402V34.7469H232.924V44.4402H223.231ZM222.834 44.4402H213.14V34.7469H222.834V44.4402ZM212.664 44.4402H202.97V34.7469H212.664V44.4402ZM202.573 44.4402H192.88V34.7469H202.573V44.4402ZM192.483 44.4402H182.789V34.7469H192.483V44.4402ZM182.312 44.4402H172.619V34.7469H182.312V44.4402ZM172.222 44.4402H162.529V34.7469H172.222V44.4402ZM162.131 44.4402H152.438V34.7469H162.131V44.4402ZM151.961 44.4402H142.268V34.7469H151.961V44.4402ZM141.871 44.4402H132.177V34.7469H141.871V44.4402ZM131.78 44.4402H122.087V34.7469H131.78V44.4402ZM121.61 44.4402H111.917V34.7469H121.61V44.4402ZM111.519 44.4402H101.826V34.7469H111.519V44.4402ZM101.429 44.4402H91.7353V34.7469H101.429V44.4402ZM101.429 44.9169V54.6103H91.7353V44.9169H101.429ZM91.2586 54.6103H81.5652V44.9169H91.2586V54.6103ZM91.2586 55.0076V64.7009H81.5652V55.0076H91.2586ZM91.2586 65.0982V74.7915H81.5652V65.0982H91.2586ZM91.2586 75.2682V84.9616H81.5652V75.2682H91.2586ZM91.2586 85.3589V95.0522H81.5652V85.3589H91.2586ZM91.2586 95.4495V105.143H81.5652V95.4495H91.2586ZM91.2586 105.62V115.313H81.5652V105.62H91.2586ZM91.2586 115.71V125.403H81.5652V115.71H91.2586ZM91.2586 125.801V135.494H81.5652V125.801H91.2586ZM91.2586 135.971V145.664H81.5652V135.971H91.2586ZM91.2586 146.061V155.755H81.5652V146.061H91.2586ZM91.2586 156.152V165.845H81.5652V156.152H91.2586ZM91.2586 166.322V176.015H81.5652V166.322H91.2586ZM91.2586 176.413V186.106H81.5652V176.413H91.2586ZM91.7353 176.413H101.429V186.106H91.7353V176.413ZM101.429 186.503V196.197H91.7353V186.503H101.429ZM101.826 186.503H111.519V196.197H101.826V186.503ZM111.917 186.503H121.61V196.197H111.917V186.503ZM122.087 186.503H131.78V196.197H122.087V186.503ZM132.177 186.503H141.871V196.197H132.177V186.503ZM142.268 186.503H151.961V196.197H142.268V186.503ZM152.438 186.503H162.131V196.197H152.438V186.503ZM162.529 186.503H172.222V196.197H162.529V186.503ZM172.619 186.503H182.312V196.197H172.619V186.503ZM182.789 186.503H192.483V196.197H182.789V186.503ZM192.88 186.503H202.573V196.197H192.88V186.503ZM202.97 186.503H212.664V196.197H202.97V186.503ZM213.14 186.503H222.834V196.197H213.14V186.503ZM223.231 186.503H232.924V196.197H223.231V186.503ZM223.231 186.106V176.413H232.924V186.106H223.231ZM233.322 176.413H243.015V186.106H233.322V176.413ZM233.322 176.015V166.322H243.015V176.015H233.322ZM233.322 165.845V156.152H243.015V165.845H233.322ZM233.322 155.755V146.061H243.015V155.755H233.322ZM233.322 145.664V135.971H243.015V145.664H233.322ZM233.322 135.494V125.801H243.015V135.494H233.322ZM233.322 125.403V115.71H243.015V125.403H233.322ZM233.322 115.313V105.62H243.015V115.313H233.322ZM233.322 105.143V95.4495H243.015V105.143H233.322ZM233.322 95.0522V85.3589H243.015V95.0522H233.322ZM233.322 84.9616V75.2682H243.015V84.9616H233.322ZM233.322 74.7915V65.0982H243.015V74.7915H233.322ZM233.322 64.7009V55.0076H243.015V64.7009H233.322ZM233.322 54.6103V44.9169H243.015V54.6103H233.322ZM91.2586 34.7469V44.4402H81.5652V37.9217C81.5652 36.1683 82.9867 34.7469 84.7401 34.7469H91.2586ZM81.5652 186.503H91.2586V196.197H81.5652V186.503ZM233.322 196.197V186.503H243.015V196.197H233.322Z" fill="white"/>
</g>
<rect x="4.12109" y="96.6016" width="120.611" height="45.8645" fill="url(#paint3_linear_331_22432)"/>
<rect x="87.6094" y="96.8926" width="120.611" height="45.8645" fill="url(#paint4_linear_331_22432)"/>
<rect x="-24.9502" y="94.7285" width="120.611" height="5.98934" fill="#E2E9F0"/>
<rect x="94.1802" y="94.7285" width="120.611" height="5.98934" fill="#8296A8"/>
</g>
<path d="M18.0492 28.4393C21.8467 28.4393 24.9252 25.3609 24.9252 21.5634C24.9252 17.7659 21.8467 14.6875 18.0492 14.6875C14.2518 14.6875 11.1733 17.7659 11.1733 21.5634C11.1733 25.3609 14.2518 28.4393 18.0492 28.4393Z" fill="url(#paint5_radial_331_22432)"/>
<g filter="url(#filter0_i_331_22432)">
<path d="M101.749 62.5241C101.75 59.5556 102.756 56.6749 104.604 54.3521C106.452 52.0293 109.034 50.4015 111.926 49.7345C112.445 49.6185 112.91 49.3294 113.243 48.9146C113.576 48.4999 113.758 47.9842 113.759 47.4522V38.0986C113.759 37.4767 113.512 36.8804 113.073 36.4406C112.633 36.0009 112.037 35.7539 111.415 35.7539H11.2182C10.5964 35.7539 9.99998 36.0009 9.56027 36.4406C9.12057 36.8804 8.87354 37.4767 8.87354 38.0986V47.3275C8.87523 47.8767 9.06969 48.4079 9.42297 48.8284C9.77625 49.249 10.2659 49.5321 10.8066 49.6285C13.8378 50.1638 16.5836 51.7498 18.5619 54.108C20.5401 56.4662 21.6244 59.446 21.6244 62.5241C21.6244 65.6022 20.5401 68.5819 18.5619 70.9401C16.5836 73.2984 13.8378 74.8844 10.8066 75.4197C10.2659 75.5161 9.77625 75.7992 9.42297 76.2197C9.06969 76.6402 8.87523 77.1714 8.87354 77.7207V86.9309C8.87354 87.5527 9.12057 88.1491 9.56027 88.5888C9.99998 89.0285 10.5964 89.2755 11.2182 89.2755H111.415C112.037 89.2755 112.633 89.0285 113.073 88.5888C113.512 88.1491 113.759 87.5527 113.759 86.9309V77.5772C113.758 77.0453 113.576 76.5295 113.243 76.1148C112.91 75.7001 112.445 75.411 111.926 75.2949C109.037 74.6286 106.458 73.0037 104.61 70.6847C102.762 68.3657 101.754 65.4893 101.749 62.5241V62.5241Z" fill="#92A2B1"/>
</g>
<g filter="url(#filter1_ii_331_22432)">
<path d="M81.6677 52.9922H41.8024C40.4248 52.9922 39.3081 54.109 39.3081 55.4866V55.4928C39.3081 56.8704 40.4248 57.9872 41.8024 57.9872H81.6677C83.0452 57.9872 84.162 56.8704 84.162 55.4928V55.4866C84.162 54.109 83.0452 52.9922 81.6677 52.9922Z" fill="#F3F3F3"/>
</g>
<g filter="url(#filter2_ii_331_22432)">
<path d="M75.9405 66.4863H48.6403C47.2627 66.4863 46.146 67.6031 46.146 68.9807V68.9869C46.146 70.3645 47.2627 71.4812 48.6403 71.4812H75.9405C77.3181 71.4812 78.4348 70.3645 78.4348 68.9869V68.9807C78.4348 67.6031 77.3181 66.4863 75.9405 66.4863Z" fill="#F3F3F3"/>
</g>
<g filter="url(#filter3_dii_331_22432)">
<ellipse cx="110.285" cy="35.8235" rx="25.2851" ry="25.8235" fill="#FF8946"/>
</g>
<g clip-path="url(#clip0_331_22432)">
<path fill-rule="evenodd" clip-rule="evenodd" d="M97 36C97 28.8201 102.82 23 110 23C117.18 23 123 28.8201 123 36C123 43.1799 117.18 49 110 49C102.82 49 97 43.1799 97 36ZM98.9344 36.0057C98.94 42.116 103.895 47.0657 110.006 47.0657C116.116 47.0657 121.077 42.1046 121.071 35.9943C121.066 29.884 116.11 24.9344 110 24.9344C107.064 24.9287 104.248 26.095 102.177 28.1773C100.101 30.2538 98.9344 33.07 98.9344 36.0057Z" fill="white"/>
<path fill-rule="evenodd" clip-rule="evenodd" d="M114.204 33.331C114.426 33.331 114.637 33.3993 114.813 33.5244C115.297 33.8601 115.416 34.5314 115.08 35.015L115.075 35.0264L108.384 44.2487C108.179 44.5389 107.849 44.7039 107.508 44.7039C107.383 44.7039 107.258 44.6868 107.138 44.6413C106.871 44.5389 106.655 44.3454 106.535 44.0837C106.416 43.8277 106.404 43.5432 106.495 43.2759L108.014 38.7301H105.522C105.295 38.7301 105.084 38.6618 104.908 38.5367C104.669 38.3717 104.515 38.1271 104.464 37.8426C104.413 37.5581 104.476 37.2737 104.641 37.0404L111.172 27.7896C111.36 27.5393 111.65 27.38 111.963 27.3516H112.008C112.122 27.3516 112.241 27.3686 112.355 27.4028C112.918 27.5848 113.231 28.1822 113.055 28.7454L111.667 33.331H114.204ZM109.977 37.3021L108.549 41.5862L113.516 34.7533H109.75L111.064 30.4067L106.194 37.3021H108.993H109.977Z" fill="white"/>
</g>
<path opacity="0.5" d="M103.344 116.015C101.712 115.011 101.304 112.719 102.434 110.93C103.533 109.141 105.761 108.482 107.393 109.486C109.026 110.491 109.434 112.782 108.304 114.571C107.174 116.392 104.945 117.02 103.344 116.015Z" fill="url(#paint6_radial_331_22432)"/>
<g filter="url(#filter4_i_331_22432)">
<path d="M112.237 103.44C112.208 103.433 112.18 103.428 112.156 103.411C111.403 102.894 113.498 93.6778 113.695 92.9948C114.691 89.5563 116.34 86.2099 118.993 83.7555C120.87 82.018 125.885 78.6185 128.487 80.6168C130.68 82.3032 128.626 86.5375 127.615 88.3081C125.802 91.4566 123.131 94.0074 120.85 96.7996C119.489 98.4697 118.122 100.172 116.761 101.842C116.663 101.97 115.807 103.185 115.29 103.786C115.068 104.044 114.75 104.077 114.421 103.994C113.716 103.816 112.479 103.502 112.237 103.44Z" fill="url(#paint7_linear_331_22432)"/>
</g>
<g filter="url(#filter5_i_331_22432)">
<path d="M115.24 106.2C116.353 106.44 117.344 105.494 117.112 104.379C115.833 98.2473 111.598 82.2587 102.626 85.172C94.4716 87.8487 111.995 103.617 114.534 105.85C114.738 106.03 114.974 106.143 115.24 106.2V106.2Z" fill="url(#paint8_linear_331_22432)"/>
</g>
<path d="M105.067 88.3613C105.067 88.3613 115.56 102.056 115.68 104.953Z" fill="#77FFE4" fill-opacity="0.2"/>
<path d="M125.385 83.3188C125.385 83.3188 116.763 94.3175 115.826 99.1992Z" fill="#77FFE4" fill-opacity="0.2"/>
<path d="M104.492 102.667C104.414 101.852 105.054 101.146 105.873 101.146H122.083C122.901 101.146 123.542 101.852 123.463 102.667L121.697 120.99C121.628 121.701 121.031 122.244 120.316 122.244H107.639C106.925 122.244 106.327 121.701 106.259 120.99L104.492 102.667Z" fill="url(#paint9_linear_331_22432)"/>
<g filter="url(#filter6_i_331_22432)">
<rect x="103.648" y="101.146" width="20.6553" height="5.08509" rx="0.693524" fill="url(#paint10_linear_331_22432)"/>
</g>
<defs>
<filter id="filter0_i_331_22432" x="8.78354" y="35.1139" width="104.976" height="54.1615" filterUnits="userSpaceOnUse" color-interpolation-filters="sRGB">
<feFlood flood-opacity="0" result="BackgroundImageFix"/>
<feBlend mode="normal" in="SourceGraphic" in2="BackgroundImageFix" result="shape"/>
<feColorMatrix in="SourceAlpha" type="matrix" values="0 0 0 0 0 0 0 0 0 0 0 0 0 0 0 0 0 0 127 0" result="hardAlpha"/>
<feOffset dx="-0.09" dy="-0.64"/>
<feGaussianBlur stdDeviation="0.5"/>
<feComposite in2="hardAlpha" operator="arithmetic" k2="-1" k3="1"/>
<feColorMatrix type="matrix" values="0 0 0 0 0.438437 0 0 0 0 0.508921 0 0 0 0 0.575 0 0 0 1 0"/>
<feBlend mode="normal" in2="shape" result="effect1_innerShadow_331_22432"/>
</filter>
<filter id="filter1_ii_331_22432" x="39.209" y="52.794" width="44.9531" height="5.48955" filterUnits="userSpaceOnUse" color-interpolation-filters="sRGB">
<feFlood flood-opacity="0" result="BackgroundImageFix"/>
<feBlend mode="normal" in="SourceGraphic" in2="BackgroundImageFix" result="shape"/>
<feColorMatrix in="SourceAlpha" type="matrix" values="0 0 0 0 0 0 0 0 0 0 0 0 0 0 0 0 0 0 127 0" result="hardAlpha"/>
<feOffset dy="0.495411"/>
<feGaussianBlur stdDeviation="0.148623"/>
<feComposite in2="hardAlpha" operator="arithmetic" k2="-1" k3="1"/>
<feColorMatrix type="matrix" values="0 0 0 0 1 0 0 0 0 1 0 0 0 0 1 0 0 0 1 0"/>
<feBlend mode="normal" in2="shape" result="effect1_innerShadow_331_22432"/>
<feColorMatrix in="SourceAlpha" type="matrix" values="0 0 0 0 0 0 0 0 0 0 0 0 0 0 0 0 0 0 127 0" result="hardAlpha"/>
<feOffset dx="-0.0990822" dy="-0.396329"/>
<feGaussianBlur stdDeviation="0.0990822"/>
<feComposite in2="hardAlpha" operator="arithmetic" k2="-1" k3="1"/>
<feColorMatrix type="matrix" values="0 0 0 0 0.833333 0 0 0 0 0.833333 0 0 0 0 0.833333 0 0 0 1 0"/>
<feBlend mode="normal" in2="effect1_innerShadow_331_22432" result="effect2_innerShadow_331_22432"/>
</filter>
<filter id="filter2_ii_331_22432" x="46.0469" y="66.2882" width="32.3877" height="5.48955" filterUnits="userSpaceOnUse" color-interpolation-filters="sRGB">
<feFlood flood-opacity="0" result="BackgroundImageFix"/>
<feBlend mode="normal" in="SourceGraphic" in2="BackgroundImageFix" result="shape"/>
<feColorMatrix in="SourceAlpha" type="matrix" values="0 0 0 0 0 0 0 0 0 0 0 0 0 0 0 0 0 0 127 0" result="hardAlpha"/>
<feOffset dy="0.495411"/>
<feGaussianBlur stdDeviation="0.148623"/>
<feComposite in2="hardAlpha" operator="arithmetic" k2="-1" k3="1"/>
<feColorMatrix type="matrix" values="0 0 0 0 1 0 0 0 0 1 0 0 0 0 1 0 0 0 1 0"/>
<feBlend mode="normal" in2="shape" result="effect1_innerShadow_331_22432"/>
<feColorMatrix in="SourceAlpha" type="matrix" values="0 0 0 0 0 0 0 0 0 0 0 0 0 0 0 0 0 0 127 0" result="hardAlpha"/>
<feOffset dx="-0.0990822" dy="-0.396329"/>
<feGaussianBlur stdDeviation="0.0990822"/>
<feComposite in2="hardAlpha" operator="arithmetic" k2="-1" k3="1"/>
<feColorMatrix type="matrix" values="0 0 0 0 0.833333 0 0 0 0 0.833333 0 0 0 0 0.833333 0 0 0 1 0"/>
<feBlend mode="normal" in2="effect1_innerShadow_331_22432" result="effect2_innerShadow_331_22432"/>
</filter>
<filter id="filter3_dii_331_22432" x="84.1364" y="9.48185" width="52.2975" height="53.8918" filterUnits="userSpaceOnUse" color-interpolation-filters="sRGB">
<feFlood flood-opacity="0" result="BackgroundImageFix"/>
<feColorMatrix in="SourceAlpha" type="matrix" values="0 0 0 0 0 0 0 0 0 0 0 0 0 0 0 0 0 0 127 0" result="hardAlpha"/>
<feOffset dy="0.863587"/>
<feGaussianBlur stdDeviation="0.431794"/>
<feColorMatrix type="matrix" values="0 0 0 0 0 0 0 0 0 0 0 0 0 0 0 0 0 0 0.25 0"/>
<feBlend mode="normal" in2="BackgroundImageFix" result="effect1_dropShadow_331_22432"/>
<feBlend mode="normal" in="SourceGraphic" in2="effect1_dropShadow_331_22432" result="shape"/>
<feColorMatrix in="SourceAlpha" type="matrix" values="0 0 0 0 0 0 0 0 0 0 0 0 0 0 0 0 0 0 127 0" result="hardAlpha"/>
<feOffset dy="0.777228"/>
<feGaussianBlur stdDeviation="0.302255"/>
<feComposite in2="hardAlpha" operator="arithmetic" k2="-1" k3="1"/>
<feColorMatrix type="matrix" values="0 0 0 0 1 0 0 0 0 0.838871 0 0 0 0 0.691667 0 0 0 1 0"/>
<feBlend mode="normal" in2="shape" result="effect2_innerShadow_331_22432"/>
<feColorMatrix in="SourceAlpha" type="matrix" values="0 0 0 0 0 0 0 0 0 0 0 0 0 0 0 0 0 0 127 0" result="hardAlpha"/>
<feOffset dx="-0.0863587" dy="-0.777228"/>
<feGaussianBlur stdDeviation="0.259076"/>
<feComposite in2="hardAlpha" operator="arithmetic" k2="-1" k3="1"/>
<feColorMatrix type="matrix" values="0 0 0 0 0.808333 0 0 0 0 0.461597 0 0 0 0 0.144826 0 0 0 1 0"/>
<feBlend mode="normal" in2="effect2_innerShadow_331_22432" result="effect3_innerShadow_331_22432"/>
</filter>
<filter id="filter4_i_331_22432" x="111.993" y="79.7516" width="18.1334" height="24.2835" filterUnits="userSpaceOnUse" color-interpolation-filters="sRGB">
<feFlood flood-opacity="0" result="BackgroundImageFix"/>
<feBlend mode="normal" in="SourceGraphic" in2="BackgroundImageFix" result="shape"/>
<feColorMatrix in="SourceAlpha" type="matrix" values="0 0 0 0 0 0 0 0 0 0 0 0 0 0 0 0 0 0 127 0" result="hardAlpha"/>
<feOffset dx="0.665089" dy="-0.254246"/>
<feGaussianBlur stdDeviation="0.866905"/>
<feComposite in2="hardAlpha" operator="arithmetic" k2="-1" k3="1"/>
<feColorMatrix type="matrix" values="0 0 0 0 0.113056 0 0 0 0 0.616667 0 0 0 0 0.58645 0 0 0 1 0"/>
<feBlend mode="normal" in2="shape" result="effect1_innerShadow_331_22432"/>
</filter>
<filter id="filter5_i_331_22432" x="100.479" y="84.5661" width="17.3321" height="21.6722" filterUnits="userSpaceOnUse" color-interpolation-filters="sRGB">
<feFlood flood-opacity="0" result="BackgroundImageFix"/>
<feBlend mode="normal" in="SourceGraphic" in2="BackgroundImageFix" result="shape"/>
<feColorMatrix in="SourceAlpha" type="matrix" values="0 0 0 0 0 0 0 0 0 0 0 0 0 0 0 0 0 0 127 0" result="hardAlpha"/>
<feOffset dx="0.665089" dy="-0.254246"/>
<feGaussianBlur stdDeviation="0.866905"/>
<feComposite in2="hardAlpha" operator="arithmetic" k2="-1" k3="1"/>
<feColorMatrix type="matrix" values="0 0 0 0 0.0996528 0 0 0 0 0.683333 0 0 0 0 0.555806 0 0 0 1 0"/>
<feBlend mode="normal" in2="shape" result="effect1_innerShadow_331_22432"/>
</filter>
<filter id="filter6_i_331_22432" x="103.648" y="100.938" width="20.9327" height="5.29399" filterUnits="userSpaceOnUse" color-interpolation-filters="sRGB">
<feFlood flood-opacity="0" result="BackgroundImageFix"/>
<feBlend mode="normal" in="SourceGraphic" in2="BackgroundImageFix" result="shape"/>
<feColorMatrix in="SourceAlpha" type="matrix" values="0 0 0 0 0 0 0 0 0 0 0 0 0 0 0 0 0 0 127 0" result="hardAlpha"/>
<feOffset dx="0.27741" dy="-0.208057"/>
<feGaussianBlur stdDeviation="0.242733"/>
<feComposite in2="hardAlpha" operator="arithmetic" k2="-1" k3="1"/>
<feColorMatrix type="matrix" values="0 0 0 0 0.833333 0 0 0 0 0.604343 0 0 0 0 0.0555555 0 0 0 1 0"/>
<feBlend mode="normal" in2="shape" result="effect1_innerShadow_331_22432"/>
</filter>
<linearGradient id="paint0_linear_331_22432" x1="64.2751" y1="0" x2="64.2751" y2="128.55" gradientUnits="userSpaceOnUse">
<stop stop-color="#B5EFFF"/>
<stop offset="1" stop-color="#E7F8FE"/>
</linearGradient>
<linearGradient id="paint1_linear_331_22432" x1="64.267" y1="0" x2="64.267" y2="127.799" gradientUnits="userSpaceOnUse">
<stop stop-color="#B5EFFF"/>
<stop offset="1" stop-color="#EDFBFF"/>
</linearGradient>
<linearGradient id="paint2_linear_331_22432" x1="65.1709" y1="-17.8281" x2="65.1709" y2="136.805" gradientUnits="userSpaceOnUse">
<stop stop-color="#B5EFFF"/>
<stop offset="1" stop-color="#E7F8FE"/>
</linearGradient>
<linearGradient id="paint3_linear_331_22432" x1="63.1524" y1="99.0532" x2="64.4265" y2="128.183" gradientUnits="userSpaceOnUse">
<stop stop-color="#CFD7DF"/>
<stop offset="1" stop-color="#E1E9F1"/>
</linearGradient>
<linearGradient id="paint4_linear_331_22432" x1="147.915" y1="96.8926" x2="147.915" y2="142.757" gradientUnits="userSpaceOnUse">
<stop stop-color="#647A8E"/>
<stop offset="1" stop-color="#647A8E" stop-opacity="0"/>
</linearGradient>
<radialGradient id="paint5_radial_331_22432" cx="0" cy="0" r="1" gradientUnits="userSpaceOnUse" gradientTransform="translate(14.7786 18.7869) rotate(-15.1772) scale(13.1123)">
<stop stop-color="#E6C6FF"/>
<stop offset="0.1875" stop-color="#C07DF5"/>
<stop offset="0.317708" stop-color="#BE6FFC"/>
<stop offset="0.489583" stop-color="#B56AF0"/>
<stop offset="0.651042" stop-color="#A745F4"/>
<stop offset="0.947917" stop-color="#9F3DED"/>
</radialGradient>
<radialGradient id="paint6_radial_331_22432" cx="0" cy="0" r="1" gradientUnits="userSpaceOnUse" gradientTransform="translate(105.346 112.777) rotate(121.889) scale(3.76234 3.42637)">
<stop stop-color="white"/>
<stop offset="0.6944" stop-color="white" stop-opacity="0"/>
</radialGradient>
<linearGradient id="paint7_linear_331_22432" x1="131.993" y1="80.382" x2="112.539" y2="97.8528" gradientUnits="userSpaceOnUse">
<stop stop-color="#BAFFF1" stop-opacity="0.26"/>
<stop offset="0.682292" stop-color="#4DC7AE"/>
<stop offset="0.96875" stop-color="#06896F"/>
</linearGradient>
<linearGradient id="paint8_linear_331_22432" x1="123.338" y1="87.1617" x2="111.507" y2="107.087" gradientUnits="userSpaceOnUse">
<stop stop-color="#B7FDEF"/>
<stop offset="0.682292" stop-color="#09B794"/>
<stop offset="0.96875" stop-color="#7EE0CC"/>
</linearGradient>
<linearGradient id="paint9_linear_331_22432" x1="123.61" y1="115.035" x2="105.72" y2="115.035" gradientUnits="userSpaceOnUse">
<stop offset="0.0989583" stop-color="#FFEEC5"/>
<stop offset="0.606776" stop-color="#FACD63"/>
<stop offset="0.838542" stop-color="#EAAF23"/>
<stop offset="0.984375" stop-color="#EDB52F"/>
</linearGradient>
<linearGradient id="paint10_linear_331_22432" x1="124.304" y1="104.494" x2="105.122" y2="104.494" gradientUnits="userSpaceOnUse">
<stop offset="0.0989583" stop-color="#FFEEC5"/>
<stop offset="0.606776" stop-color="#FCBD27"/>
<stop offset="0.984375" stop-color="#EFB222"/>
</linearGradient>
<clipPath id="clip0_331_22432">
<rect width="26" height="26" fill="white" transform="translate(97 23)"/>
</clipPath>
</defs>
</svg>
