<svg width="180" height="150" viewBox="0 0 180 150" fill="none" xmlns="http://www.w3.org/2000/svg">
<g clip-path="url(#clip0_4720_158680)">
<path d="M170.976 149.176H178.51" stroke="#91A1B0" stroke-width="1.64668" stroke-linecap="round" stroke-linejoin="round"/>
<path d="M129.823 149.176H162.798" stroke="#91A1B0" stroke-width="1.64668" stroke-linecap="round" stroke-linejoin="round"/>
<path d="M1.49097 149.176H122.001" stroke="#91A1B0" stroke-width="1.64668" stroke-linecap="round" stroke-linejoin="round"/>
<path opacity="0.2" d="M90.0003 139.65C127.888 139.65 158.612 108.925 158.612 71.0376C158.612 33.1502 127.888 2.42578 90.0003 2.42578C52.1128 2.42578 21.3884 33.1502 21.3884 71.0376C21.3884 108.925 52.1128 139.65 90.0003 139.65Z" fill="#BEC6D2"/>
<path d="M39.337 22.3242H140.649C144.944 22.3242 148.444 25.8097 148.444 30.1185V111.959C148.444 116.254 144.958 119.753 140.649 119.753H39.337C35.0419 119.753 31.5427 116.268 31.5427 111.959V30.1185C31.5427 25.8234 35.0282 22.3242 39.337 22.3242Z" fill="white" stroke="#91A1B0" stroke-width="1.64668" stroke-miterlimit="10"/>
<path d="M38.7195 23.2461H141.377C144.78 23.2461 147.552 26.018 147.552 29.4212V45.6959H32.4072V29.5584C32.4072 26.0729 35.234 23.2461 38.7195 23.2461Z" fill="#91A1B0" stroke="#91A1B0" stroke-width="1.13896" stroke-linecap="round" stroke-linejoin="round"/>
<path d="M58.6444 34.4688H45.1416" stroke="white" stroke-width="1.64668" stroke-miterlimit="10" stroke-linecap="round"/>
<path d="M12.3315 20.1602H20.6199" stroke="#91A1B0" stroke-width="1.64668" stroke-linecap="round" stroke-linejoin="round"/>
<path d="M30.4453 0.824219V9.12625" stroke="#91A1B0" stroke-width="1.64668" stroke-linecap="round" stroke-linejoin="round"/>
<path d="M15.8445 6.76172L22.4312 11.8253" stroke="#91A1B0" stroke-width="1.64668" stroke-linecap="round" stroke-linejoin="round"/>
<path d="M55.9826 93.1364H71.4889C73.0121 93.1364 74.1647 92.6012 74.7411 91.6132C75.3174 90.6252 75.2214 89.3627 74.4666 88.0316L66.6174 74.0623C65.8627 72.7312 64.8473 72.0039 63.7357 72.0039C62.6242 72.0039 61.5951 72.7312 60.854 74.0623L53.0048 88.0316C52.2638 89.3627 52.1678 90.6389 52.7304 91.6132C53.3067 92.6012 54.4594 93.1364 55.9826 93.1364Z" fill="white" stroke="#91A1B0" stroke-width="1.0429" stroke-miterlimit="10"/>
<path d="M63.7354 83.3633V89.1404" stroke="#91A1B0" stroke-width="1.0429" stroke-linecap="round" stroke-linejoin="round"/>
<path d="M63.7354 80.5625V80.5899" stroke="#91A1B0" stroke-width="1.0429" stroke-linecap="round" stroke-linejoin="round"/>
<path d="M147.538 46.6562H95.3245V119.248H147.538V46.6562Z" fill="#F4F4F4"/>
<path d="M115.936 54.2013C115.936 51.5487 118.086 49.3984 120.738 49.3984H139.95C142.602 49.3984 144.753 51.5487 144.753 54.2013C144.753 56.8538 142.602 59.0041 139.95 59.0041H120.738C118.086 59.0041 115.936 56.8538 115.936 54.2013Z" fill="white"/>
<path d="M141.429 52.5127L141.429 52.5121C141.201 52.285 140.888 52.1445 140.542 52.1445C140.196 52.1445 139.882 52.2851 139.654 52.5128L139.488 56.1606V55.088M141.429 52.5127C141.657 52.7399 141.797 53.0538 141.797 53.3998C141.797 53.7457 141.657 54.0595 141.429 54.2867L141.429 54.2872C141.201 54.5145 140.888 54.6551 140.542 54.6551C140.374 54.6551 140.214 54.6221 140.068 54.5624L139.488 55.088M141.429 52.5127L141.47 52.4719C141.708 52.7095 141.855 53.0379 141.855 53.3998C141.855 53.7616 141.708 54.0899 141.47 54.3274L141.47 54.3275L141.47 54.3279L141.47 54.3279C141.232 54.5657 140.904 54.7128 140.542 54.7128C140.379 54.7128 140.223 54.6832 140.08 54.6291L139.546 55.1135M141.429 52.5127L141.47 52.4719L141.469 52.4713L141.469 52.4713C141.232 52.2338 140.904 52.0869 140.542 52.0869C140.18 52.0869 139.852 52.234 139.613 52.472L139.613 52.4721C139.51 52.5759 139.423 52.697 139.359 52.8307H137.078C136.991 52.8307 136.92 52.9019 136.92 52.9894L136.92 52.9895L136.92 53.5742C136.92 53.5742 136.92 53.5742 136.92 53.5742C136.92 53.5742 136.92 53.5742 136.92 53.5742C136.92 53.6171 136.937 53.6601 136.972 53.6914L136.972 53.6914L138.539 55.1135V55.7705C138.539 55.8334 138.575 55.8877 138.628 55.9133L139.309 56.2983C139.309 56.2983 139.309 56.2983 139.309 56.2983L139.309 56.2983L139.338 56.2481C139.386 56.2755 139.447 56.2586 139.475 56.2103L139.546 55.1135M139.488 55.088L139.527 55.1307L139.546 55.1135M139.488 55.088H139.546V55.1135M139.956 53.6218L140.055 53.7202V53.7201L140.239 53.9045L140.239 53.9046C140.301 53.9663 140.401 53.9664 140.463 53.9045L140.463 53.9046L140.466 53.901L141.136 53.1102L141.136 53.1102C141.193 53.0434 141.184 52.9434 141.118 52.8869C141.051 52.8305 140.951 52.8388 140.894 52.9055C140.894 52.9055 140.894 52.9055 140.894 52.9055L140.342 53.5585L140.181 53.3974L140.18 53.3973C140.118 53.3356 140.018 53.3354 139.956 53.3974L139.956 53.3975C139.894 53.4595 139.894 53.5598 139.956 53.6218ZM139.608 53.052L139.613 53.0412C139.663 52.9104 139.74 52.7928 139.838 52.6954C140.018 52.5155 140.267 52.4041 140.542 52.4041C140.817 52.4041 141.066 52.5155 141.246 52.6958C141.426 52.8757 141.538 53.1247 141.538 53.4C141.538 53.6753 141.426 53.9241 141.246 54.1044C141.066 54.2843 140.817 54.3957 140.542 54.3957C140.267 54.3957 140.018 54.2843 139.838 54.1041C139.657 53.9238 139.546 53.675 139.546 53.4C139.546 53.2774 139.568 53.1602 139.608 53.052ZM139.613 54.3285L139.613 54.3286C139.666 54.3807 139.722 54.4285 139.782 54.4713L139.287 54.9214C139.251 54.9504 139.229 54.9944 139.229 55.0437V55.8892L138.856 55.6785V55.0437C138.856 54.9944 138.834 54.9504 138.798 54.9214L137.237 53.5043V53.1481H139.253C139.237 53.2298 139.229 53.314 139.229 53.4001C139.229 53.7627 139.376 54.0909 139.613 54.3285Z" fill="#C2CAD2" stroke="#C2CAD2" stroke-width="0.115304"/>
<path d="M110.908 68.1875H135.234" stroke="#C2CAD2" stroke-width="1.49699" stroke-linecap="round" stroke-linejoin="round"/>
<path d="M106.829 65.8672L102.712 69.9839L100.841 68.1127" stroke="#C2CAD2" stroke-width="1.49574" stroke-linecap="round" stroke-linejoin="round"/>
<path d="M106.829 76.8438L102.712 80.9605L100.841 79.0892" stroke="#C2CAD2" stroke-width="1.49574" stroke-linecap="round" stroke-linejoin="round"/>
<path d="M106.829 89.1953L102.712 93.312L100.841 91.4408" stroke="#C2CAD2" stroke-width="1.49574" stroke-linecap="round" stroke-linejoin="round"/>
<path d="M106.829 101.543L102.712 105.66L100.841 103.788" stroke="#C2CAD2" stroke-width="1.49574" stroke-linecap="round" stroke-linejoin="round"/>
<path d="M110.908 80.1406H135.234" stroke="#C2CAD2" stroke-width="1.49699" stroke-linecap="round" stroke-linejoin="round"/>
<path d="M110.908 92.7383H135.234" stroke="#C2CAD2" stroke-width="1.49699" stroke-linecap="round" stroke-linejoin="round"/>
<path d="M110.908 104.914H135.234" stroke="#C2CAD2" stroke-width="1.49699" stroke-linecap="round" stroke-linejoin="round"/>
<path d="M156.252 131.418L162.152 125.559L171.113 134.588C172.732 136.207 172.719 138.856 171.099 140.461C169.48 142.08 166.832 142.067 165.226 140.447L156.265 131.418H156.252Z" fill="white" stroke="#91A1B0" stroke-width="1.64668" stroke-miterlimit="10"/>
<path d="M157.679 124.078L154.783 126.946L157.651 129.842L160.547 126.974L157.679 124.078Z" fill="white" stroke="#91A1B0" stroke-width="1.64668" stroke-miterlimit="10"/>
<path d="M139.881 132.391C152.492 132.391 162.715 122.168 162.715 109.557C162.715 96.9458 152.492 86.7227 139.881 86.7227C127.27 86.7227 117.047 96.9458 117.047 109.557C117.047 122.168 127.27 132.391 139.881 132.391Z" fill="white" stroke="#91A1B0" stroke-width="1.64668" stroke-miterlimit="10"/>
<path d="M139.881 128.101C150.118 128.101 158.42 119.799 158.42 109.562C158.42 99.3255 150.118 91.0234 139.881 91.0234C129.644 91.0234 121.342 99.3255 121.342 109.562C121.342 119.799 129.644 128.101 139.881 128.101Z" fill="white" stroke="#91A1B0" stroke-width="1.64668" stroke-miterlimit="10"/>
<path d="M137.562 112.565L137.631 112.154C137.905 110.644 138.674 109.546 140.814 108.243C142.145 107.419 142.557 106.678 142.722 105.773C142.9 104.757 142.475 103.701 141.061 103.454C139.552 103.179 138.77 104.071 138.358 105.389L135.394 104.853C135.833 103.028 137.548 100.352 141.555 101.093C145.384 101.807 146.097 104.551 145.768 106.418C145.48 107.996 144.78 108.984 142.722 110.287C141.446 111.111 140.938 111.852 140.746 112.908L140.705 113.142L137.562 112.579V112.565ZM136.629 117.78L137.315 113.992L140.458 114.555L139.771 118.342L136.629 117.78Z" fill="#CED6DE"/>
<path d="M120.052 54.2031H133.775" stroke="#C2CAD2" stroke-width="1.49574" stroke-linecap="round"/>
</g>
<defs>
<clipPath id="clip0_4720_158680">
<rect width="178.665" height="149.999" fill="white" transform="translate(0.66748)"/>
</clipPath>
</defs>
</svg>
