<svg xmlns="http://www.w3.org/2000/svg" width="199" height="202" viewBox="0 0 199 202"><g fill="none" fill-rule="evenodd"><path fill="#F1F3F8" d="M109.44 174.22l56.33-56.33a9 9 0 0112.72 12.72l-56.33 56.33a9 9 0 01-12.72-12.72M14.8 128.76l8.71-8.71a9 9 0 1112.72 12.72l-8.71 8.71a9 9 0 11-12.72-12.72"/><path fill="#F1F3F8" d="M113.45 145.29l25.74-25.74a9 9 0 0012.72 12.71L126.16 158a9 9 0 10-12.71-12.72m-11.01-39.21L126.56 82a9 9 0 0012.72 12.72l-24.12 24.12a9 9 0 00-12.72-12.72"/><path fill="#F1F3F8" d="M93.9 139.53l70.37-70.37A9 9 0 01177 81.87l-70.37 70.38a9 9 0 01-12.73-12.72m-69.15 19.08l95.8-95.8a9 9 0 1112.71 12.72l-95.79 95.79a9 9 0 01-12.72-12.71m16.94-63.07L77.23 60A9.009 9.009 0 1190 72.71l-35.6 35.55a9 9 0 01-12.71-12.72m58.8-58.8l.21-.21a9 9 0 0112.72 12.72l-.22.21a9 9 0 01-12.71 0 9 9 0 010-12.72M73.22 159.61l.21-.21a9 9 0 1112.72 12.71l-.21.22a9 9 0 01-12.72 0 9 9 0 010-12.72"/><path fill="#717790" d="M194.44 191.47a4.89 4.89 0 011.84-.26c.621 0 1.24.06 1.85.18a.56.56 0 010 1.09 9.66 9.66 0 01-1.85.18 4.89 4.89 0 01-1.84-.26.49.49 0 010-.93m-168.53.02c6.91-.2 13.82-.23 20.73-.23H171c6.91 0 13.81 0 20.72.2a.58.58 0 010 1.15c-6.91.18-13.81.19-20.72.2H46.64c-6.91 0-13.82 0-20.73-.23a.44.44 0 01-.43-.46.45.45 0 01.43-.43m-4.08-.41c.09-.01.18-.01.27 0h.13a.42.42 0 01.14.06.69.69 0 01.18.95.77.77 0 01-.18.18.42.42 0 01-.14.06h-.13c-.09.01-.18.01-.27 0a.67.67 0 01-.51-.8.65.65 0 01.51-.51m-6.64.24a6.25 6.25 0 011.34-.18c.454-.04.91 0 1.35.12a.56.56 0 01.37.7.59.59 0 01-.37.37c-.44.12-.896.16-1.35.12a6.25 6.25 0 01-1.34-.18.48.48 0 01-.35-.6.46.46 0 01.35-.35m74.53 8.85c2.16-.2 4.31-.23 6.47-.23h6.47l12.94-.08H135c2.16 0 4.32 0 6.47.2a.58.58 0 01.54.62.61.61 0 01-.54.54c-2.15.17-4.31.18-6.47.19h-19.4l-12.94-.07h-6.47c-2.16 0-4.31 0-6.47-.23a.45.45 0 010-.89m-21.29-.08c2.21-.12 4.42-.16 6.63-.18 2.21-.02 4.42 0 6.63.12a.54.54 0 010 1.07c-2.21.14-4.42.15-6.63.12s-4.42-.06-6.63-.18a.47.47 0 01-.46-.5.49.49 0 01.46-.45"/><g fill="#C8D6EC" fill-rule="nonzero"><path d="M188.28 155a2.72 2.72 0 110-5.44 2.72 2.72 0 010 5.44zm0-3.43a.72.72 0 10.72.71.72.72 0 00-.72-.73v.02zM5.36 73.94a1 1 0 01-1-1v-8.5a1 1 0 112 0v8.5a1 1 0 01-1 1z"/><path d="M9.61 69.69h-8.5a1 1 0 110-2h8.5a1 1 0 010 2zm51.07-5.07a2.72 2.72 0 110-5.44 2.72 2.72 0 010 5.44zm0-3.43a.72.72 0 100 1.44.72.72 0 000-1.44zm128.14 40.63a2.72 2.72 0 110-5.44 2.72 2.72 0 010 5.44zm0-3.43a.72.72 0 10.72.71.71.71 0 00-.72-.71zm-95.33-41.9a1.09 1.09 0 01-.5-.13 1 1 0 01-.47-.61l-.83-3.06a1 1 0 01.7-1.23l3.06-.84a1 1 0 011.23.7l.84 3.07a1 1 0 01-.7 1.23l-3.07.83a.75.75 0 01-.26.04zm.39-3.37l.31 1.14 1.13-.26-.32-1.19-1.12.31zm-55.49 64.53a3 3 0 110-6 3 3 0 010 6zm0-4a1 1 0 100 2 1 1 0 000-2z"/></g><path fill="#CED6DE" fill-rule="nonzero" d="M114.37 144.08h-.08c-.63-.11-1.33-.24-2.09-.4a.5.5 0 01-.39-.59.51.51 0 01.59-.39c.75.16 1.44.29 2.06.39a.502.502 0 11-.09 1v-.01zm-4.13-.84h-.11c-.66-.15-1.35-.31-2.07-.5a.515.515 0 01.25-1l2 .5a.5.5 0 01.38.6.51.51 0 01-.45.4zm-4.09-1.06a.3.3 0 01-.13 0c-.67-.19-1.35-.39-2-.61a.522.522 0 11.3-1l2 .6a.505.505 0 01-.14 1l-.03.01zm-4-1.28a.5.5 0 01-.17 0c-.66-.23-1.32-.48-2-.74a.5.5 0 01-.026-.92.5.5 0 01.386-.01c.66.25 1.31.5 2 .72a.51.51 0 01.31.64.49.49 0 01-.51.31h.01zm-3.93-1.52a.45.45 0 01-.2 0c-.65-.27-1.29-.56-1.94-.87a.49.49 0 01-.24-.66.5.5 0 01.67-.24c.63.3 1.27.58 1.9.85a.51.51 0 01.27.66.5.5 0 01-.47.26h.01zm-3.81-1.8a.46.46 0 01-.23-.06c-.63-.32-1.25-.67-1.87-1a.51.51 0 01-.18-.69.51.51 0 01.69-.18c.6.35 1.21.69 1.82 1a.5.5 0 01-.23.94v-.01zm-3.64-2.12a.45.45 0 01-.27-.08c-.6-.38-1.19-.78-1.76-1.2a.5.5 0 01-.11-.7.51.51 0 01.7-.11c.56.41 1.13.8 1.71 1.18a.5.5 0 01.15.69.52.52 0 01-.43.22h.01zM87.36 133a.54.54 0 01-.32-.11c-.56-.46-1.1-.94-1.61-1.42a.49.49 0 010-.7.5.5 0 01.71 0c.49.46 1 .92 1.56 1.37a.5.5 0 01-.32.88l-.02-.02zm-3.06-2.89a.49.49 0 01-.37-.16c-.48-.53-1-1.08-1.38-1.63a.51.51 0 01.08-.71.5.5 0 01.7.09c.42.54.87 1.06 1.34 1.57a.51.51 0 010 .71.5.5 0 01-.37.11v.02zm-2.58-3.31a.51.51 0 01-.42-.23c-.39-.6-.76-1.22-1.09-1.85a.5.5 0 01.21-.67.5.5 0 01.68.2 20.1 20.1 0 001 1.78.5.5 0 01-.15.69.53.53 0 01-.23.06v.02zm-2-3.71a.51.51 0 01-.46-.31 21.11 21.11 0 01-.72-2 .51.51 0 01.33-.63.5.5 0 01.62.33c.2.658.434 1.305.7 1.94a.5.5 0 01-.19.58.41.41 0 01-.24.07l-.04.02zm-1.22-4a.51.51 0 01-.49-.4c-.14-.7-.26-1.41-.34-2.12a.51.51 0 01.45-.56.5.5 0 01.55.45c.08.68.18 1.36.32 2a.51.51 0 01-.39.59l-.1.04zm-.47-4.18a.5.5 0 01-.5-.48v-2.15a.5.5 0 111 .06v2.06a.49.49 0 01-.49.51h-.01zM122 114a.5.5 0 010-1c.71 0 1.41 0 2.09-.05a.5.5 0 010 1c-.69 0-1.4 0-2.12.05h.03zm-2.11 0l-2.11-.06a.51.51 0 01-.48-.53.5.5 0 01.52-.47l2.09.06a.5.5 0 01.49.51.49.49 0 01-.53.49h.02zm6.31-.14a.5.5 0 010-1c.7 0 1.4-.1 2.08-.17a.502.502 0 01.1 1c-.69.07-1.4.13-2.12.18l-.06-.01zm-10.51 0c-.69 0-1.39-.1-2.11-.17a.49.49 0 01-.45-.54.51.51 0 01.54-.45l2.09.17a.5.5 0 01.47.53.51.51 0 01-.56.41l.02.05zm-4.2-.39c-.69-.08-1.39-.16-2.1-.26a.49.49 0 01-.43-.56.51.51 0 01.56-.43l2.08.26a.5.5 0 01-.06 1l-.05-.01zm18.89 0a.501.501 0 01-.07-1c.71-.1 1.39-.21 2.06-.33a.508.508 0 11.18 1c-.68.12-1.38.24-2.1.34l-.07-.01zm-23.06-.55h-.07l-2.09-.34a.49.49 0 01-.41-.57.5.5 0 01.58-.41c.667.12 1.357.23 2.07.33a.5.5 0 01.42.57.51.51 0 01-.52.37l.02.05zm27.2-.2a.503.503 0 01-.11-1c.69-.16 1.36-.33 2-.51a.517.517 0 01.26 1c-.67.18-1.35.35-2.06.51h-.09zm-31.35-.5h-.09l-2.07-.4a.51.51 0 01-.4-.59.5.5 0 01.59-.39l2.06.39a.5.5 0 01.4.59.49.49 0 01-.51.35l.02.05zm35.4-.61a.5.5 0 01-.47-.35.49.49 0 01.32-.63c.67-.22 1.32-.45 1.95-.7a.51.51 0 01.65.29.5.5 0 01-.29.64c-.64.25-1.31.49-2 .72a.45.45 0 01-.18-.02l.02.05zM99 111.34h-.1c-.68-.14-1.37-.3-2.06-.46a.5.5 0 01-.38-.6.5.5 0 01.6-.37l2 .46a.49.49 0 01-.06.97zm-20.72-.66h-.07a.49.49 0 01-.43-.56c.09-.69.2-1.4.34-2.11a.49.49 0 01.59-.39.48.48 0 01.39.58c-.13.69-.24 1.38-.33 2a.5.5 0 01-.47.48h-.02zm16.62-.28h-.12l-2-.51a.5.5 0 01-.35-.61.49.49 0 01.6-.36l2 .51a.51.51 0 01.37.61.5.5 0 01-.48.36h-.02zm47.55-.37a.51.51 0 01-.21-1c.64-.29 1.26-.6 1.85-.92a.501.501 0 01.48.88c-.61.33-1.25.65-1.91 1a.54.54 0 01-.19.01l-.02.03zm-51.62-.68h-.14l-2-.56a.51.51 0 01-.35-.62.5.5 0 01.62-.34l2 .56a.504.504 0 01-.13 1v-.04zm-4.06-1.15a.36.36 0 01-.14 0l-2-.6a.51.51 0 01-.33-.63.5.5 0 01.62-.33l2 .6a.5.5 0 01.33.62.49.49 0 01-.46.34h-.02zm59.38-.16a.5.5 0 01-.27-.92c.59-.37 1.17-.76 1.72-1.16a.501.501 0 01.59.81c-.57.42-1.17.82-1.78 1.19a.42.42 0 01-.24.04l-.02.04zM82.77 107a.39.39 0 01-.15 0l-2-.65a.523.523 0 01.31-1l2 .65a.49.49 0 01.32.62.48.48 0 01-.48.38zm-3.67-.42H79a.51.51 0 01-.36-.61 2.68 2.68 0 00.07-.27h-.07l-2-.68a.503.503 0 01.33-.95l2 .68c.08-.27.16-.54.25-.82a.522.522 0 111 .3c-.22.68-.41 1.34-.58 2a.5.5 0 01-.54.32v.03zm70.47-1a.52.52 0 01-.38-.17.51.51 0 01.06-.71c.53-.44 1-.91 1.53-1.39a.49.49 0 01.7 0 .5.5 0 010 .71c-.507.493-1.037.973-1.59 1.44a.48.48 0 01-.32.11v.01zm-74.78-1.28a.51.51 0 01-.17 0c-.66-.24-1.32-.47-2-.72a.49.49 0 01-.3-.64.5.5 0 01.64-.3c.66.25 1.32.48 2 .72a.49.49 0 01.3.63.5.5 0 01-.47.3v.01zm-4-1.45a.51.51 0 01-.17 0l-2-.74a.502.502 0 01.35-.94l2 .75a.508.508 0 11-.18 1v-.07zm81.74-.21a.54.54 0 01-.33-.12.5.5 0 010-.71c.45-.52.89-1.06 1.29-1.61a.51.51 0 01.7-.1.5.5 0 01.1.7c-.42.57-.87 1.13-1.34 1.67a.52.52 0 01-.38.16l-.04.01zm-72.19-.09a.48.48 0 01-.2 0 .5.5 0 01-.26-.66c.16-.38.45-1 .89-1.94a.5.5 0 01.9.43c-.43.87-.71 1.53-.87 1.9a.51.51 0 01-.42.26l-.04.01zm-13.48-1.2a.57.57 0 01-.18 0l-2-.78a.5.5 0 01-.28-.65.51.51 0 01.65-.28c.65.27 1.31.52 2 .78a.5.5 0 01.29.64.51.51 0 01-.44.28l-.04.01zM63 99.78a.63.63 0 01-.19 0l-1.95-.8a.502.502 0 01.38-.93l2 .8a.49.49 0 01.27.65.48.48 0 01-.51.28zm92.09-.53a.49.49 0 01-.42-.76c.36-.59.71-1.19 1-1.8a.5.5 0 01.89.46c-.33.64-.69 1.26-1.07 1.87a.48.48 0 01-.41.23h.01zm-72.86-.51a.46.46 0 01-.23-.06.5.5 0 01-.21-.68c.31-.57.66-1.19 1-1.85a.5.5 0 01.86.5c-.38.65-.72 1.26-1 1.83a.51.51 0 01-.43.26h.01zm-23.12-.57a.41.41 0 01-.19 0L57 97.31a.5.5 0 01-.27-.66.51.51 0 01.66-.26l1.93.82a.509.509 0 11-.19 1l-.02-.04zm-3.83-1.74a.49.49 0 01-.3-.1c-.34-.26-.91-.71-1.67-1.34a.49.49 0 01-.06-.7.49.49 0 01.7-.07c.74.62 1.31 1.06 1.64 1.31a.5.5 0 01.09.7.51.51 0 01-.41.2h.01zM157 95.52a.71.71 0 01-.2 0 .52.52 0 01-.27-.66c.27-.64.51-1.29.71-1.93a.522.522 0 111 .3c-.22.67-.46 1.35-.74 2a.51.51 0 01-.5.29zm-72.66-.42a.5.5 0 01-.42-.77c.36-.567.75-1.157 1.17-1.77a.5.5 0 01.7-.13.51.51 0 01.13.69c-.41.6-.8 1.18-1.16 1.75a.48.48 0 01-.4.23h-.02zM52 93.73a.5.5 0 01-.34-.13c-.49-.43-1-.91-1.56-1.43a.5.5 0 01.35-.857.49.49 0 01.35.147c.55.51 1.07 1 1.55 1.41a.5.5 0 01-.33.88l-.02-.02zm34.72-2.11a.53.53 0 01-.3-.09.51.51 0 01-.11-.7c.41-.56.84-1.12 1.29-1.69a.502.502 0 01.79.62c-.45.56-.87 1.11-1.27 1.66a.51.51 0 01-.37.2h-.03zm71.52-.13h-.09a.49.49 0 01-.4-.58c.07-.37.1-.58.1-.59v-1.43a.5.5 0 011 0v1.5c0 .05 0 .28-.12.71a.49.49 0 01-.46.39h-.03zM49 90.84a.5.5 0 01-.35-.15c-.48-.48-1-1-1.48-1.52a.5.5 0 01.35-.857.49.49 0 01.35.147c.5.533.99 1.033 1.47 1.5a.51.51 0 010 .71.51.51 0 01-.34.17zm40.41-2.52a.5.5 0 01-.41-.82c.45-.53.92-1.07 1.41-1.6a.502.502 0 11.74.68c-.48.52-.94 1-1.39 1.56a.49.49 0 01-.4.18h.05zm-43.31-.55a.5.5 0 01-.37-.16c-.46-.52-.92-1-1.39-1.61a.49.49 0 01.06-.7.51.51 0 01.71.06c.46.55.91 1.07 1.37 1.58a.51.51 0 010 .71.54.54 0 01-.43.12h.05zm112.07-.47a.49.49 0 01-.49-.41 16.3 16.3 0 00-.47-2 .51.51 0 01.33-.63.5.5 0 01.62.33c.21.693.38 1.398.51 2.11a.5.5 0 01-.41.57l-.09.03zm-65.96-2.09a.5.5 0 01-.36-.85c.49-.5 1-1 1.52-1.48a.5.5 0 01.71 0 .48.48 0 010 .7c-.51.49-1 1-1.49 1.46a.49.49 0 01-.38.17zm-48.86-.67a.5.5 0 01-.4-.19c-.43-.55-.86-1.11-1.28-1.69a.501.501 0 01.81-.59c.41.57.84 1.12 1.26 1.67a.5.5 0 01-.08.7.52.52 0 01-.31.1zm113.54-1.25a.49.49 0 01-.45-.29 17.49 17.49 0 00-1-1.81.502.502 0 01.86-.52c.374.618.708 1.26 1 1.92a.51.51 0 01-.25.66.52.52 0 01-.16.04zm-61.62-1a.46.46 0 01-.37-.18.49.49 0 010-.7c.53-.46 1.08-.92 1.63-1.37a.52.52 0 01.71.08.49.49 0 01-.08.7c-.55.44-1.08.89-1.6 1.34a.46.46 0 01-.29.17v-.04zm-54.41-1.15a.5.5 0 01-.41-.22c-.39-.58-.78-1.18-1.16-1.79a.502.502 0 01.86-.52c.36.59.74 1.18 1.13 1.75a.5.5 0 01-.14.69.47.47 0 01-.28.09zm113.86-1.44a.5.5 0 01-.4-.19A19.29 19.29 0 00153 78a.48.48 0 010-.7.5.5 0 01.71 0c.5.517.97 1.061 1.41 1.63a.5.5 0 01-.09.7.49.49 0 01-.31.07zm-56.16 0a.51.51 0 01-.41-.2.51.51 0 01.11-.7c.56-.42 1.14-.83 1.73-1.23a.5.5 0 01.7.13.51.51 0 01-.14.7c-.58.39-1.15.79-1.7 1.2a.46.46 0 01-.29.09v.01zm-59.91-2.14a.51.51 0 01-.44-.26c-.34-.62-.68-1.24-1-1.88a.5.5 0 01.23-.67.51.51 0 01.67.22c.31.63.64 1.24 1 1.84a.49.49 0 01-.19.68.42.42 0 01-.27.07zm63.35-.23a.5.5 0 01-.43-.24.51.51 0 01.17-.69c.59-.36 1.2-.72 1.83-1.07a.5.5 0 01.68.19.51.51 0 01-.19.68c-.607.34-1.207.673-1.8 1a.42.42 0 01-.26.13zm49.76-.66a.49.49 0 01-.32-.12c-.51-.44-1.06-.87-1.63-1.27a.51.51 0 01-.11-.7.5.5 0 01.7-.12c.59.43 1.16.88 1.69 1.33a.51.51 0 01.05.71.52.52 0 01-.34.17h-.04zm-46.09-1.4a.51.51 0 01-.45-.27.5.5 0 01.23-.67c.62-.32 1.26-.63 1.91-.92a.5.5 0 01.66.25.49.49 0 01-.25.66c-.63.29-1.26.59-1.87.9a.48.48 0 01-.19.05h-.04zm42.68-1.06a.59.59 0 01-.26-.07c-.58-.36-1.19-.7-1.81-1a.5.5 0 01-.22-.67.52.52 0 01.68-.22c.63.33 1.26.68 1.87 1a.51.51 0 01.17.69.52.52 0 01-.39.27h-.04zm-111.59-.42a.49.49 0 01-.45-.3c-.29-.64-.56-1.3-.81-2a.5.5 0 11.93-.35c.25.65.51 1.29.79 1.92a.5.5 0 01-.26.66.45.45 0 01-.2.07zm72.78-.25a.51.51 0 01-.46-.31.5.5 0 01.28-.65c.65-.26 1.31-.51 2-.75a.527.527 0 11.33 1c-.66.23-1.31.47-2 .73a.58.58 0 01-.15-.02zm35.1-1.26a.48.48 0 01-.2 0c-1.11-.47-1.83-.68-1.84-.69a.53.53 0 01-.38-.61.46.46 0 01.54-.38h.1c.68.203 1.349.447 2 .73a.509.509 0 01-.19 1l-.03-.05zm-31.13-.13a.505.505 0 11-.14-1c.67-.21 1.35-.4 2-.57a.514.514 0 11.24 1c-.68.18-1.34.36-2 .56a.39.39 0 01-.1.01zm27.08-1h-.09c-.7-.13-1.38-.25-2.06-.35a.5.5 0 01-.42-.57.49.49 0 01.57-.42l2.09.36a.502.502 0 01-.09 1v-.02zm-23 0a.5.5 0 01-.49-.39.51.51 0 01.39-.6c.68-.14 1.38-.27 2.08-.39a.51.51 0 01.58.41.51.51 0 01-.41.58c-.69.11-1.38.24-2 .38l-.15.01zm18.84-.62h-.06c-.7-.09-1.39-.17-2.08-.23a.502.502 0 01.09-1c.7.07 1.4.14 2.11.23a.5.5 0 11-.06 1zm-14.69-.07a.51.51 0 01-.5-.44.5.5 0 01.43-.56c.7-.09 1.4-.16 2.11-.22a.5.5 0 01.55.45.5.5 0 01-.46.54c-.7.06-1.39.14-2.07.22l-.06.01zm10.5-.32l-2.12-.14a.52.52 0 01-.49-.51.5.5 0 01.52-.49l2.12.09a.5.5 0 110 1l-.03.05zm-6.31 0a.49.49 0 01-.5-.47.5.5 0 01.47-.53c.7 0 1.41 0 2.12-.06a.5.5 0 110 1c-.71 0-1.4 0-2.09.06zm-90.65-.19a.49.49 0 01-.48-.35c-.21-.67-.41-1.36-.58-2.05a.51.51 0 01.37-.61.49.49 0 01.6.37c.17.67.36 1.34.56 2a.49.49 0 01-.32.63.39.39 0 01-.15-.08v.09zm-1-4.08a.49.49 0 01-.49-.41c-.13-.71-.23-1.42-.31-2.12a.5.5 0 01.45-.55.5.5 0 01.55.44c.07.68.17 1.37.29 2a.5.5 0 01-.4.58l-.09.06zm-.45-4.18a.5.5 0 01-.5-.48v-2.17a.5.5 0 111 0v2.06a.5.5 0 01-.48.52l-.02.07zM34 57.4h-.06a.5.5 0 01-.44-.56c.08-.7.2-1.42.33-2.11a.51.51 0 01.59-.4.5.5 0 01.39.59c-.13.67-.24 1.36-.32 2a.5.5 0 01-.49.48zm.81-4.12h-.13a.49.49 0 01-.35-.61c.19-.68.4-1.37.64-2a.527.527 0 111 .33c-.24.66-.45 1.32-.63 2a.5.5 0 01-.53.28zm1.41-4a.48.48 0 01-.2 0 .51.51 0 01-.26-.66c.29-.64.6-1.29.93-1.92a.5.5 0 11.88.46c-.32.61-.62 1.24-.89 1.86a.5.5 0 01-.46.3v-.04zm1.94-3.73a.48.48 0 01-.26-.07.49.49 0 01-.17-.68c.36-.6.74-1.2 1.15-1.8a.5.5 0 01.69-.13.51.51 0 01.14.7c-.4.58-.77 1.16-1.12 1.74a.5.5 0 01-.43.28v-.04zm2.36-3.47a.49.49 0 01-.39-.8c.42-.55.86-1.11 1.33-1.66a.5.5 0 01.76.64 46.1 46.1 0 00-1.3 1.62.51.51 0 01-.4.24v-.04zm2.71-3.21a.49.49 0 01-.34-.84c.473-.507.963-1.017 1.47-1.53a.5.5 0 01.71 0 .5.5 0 010 .71c-.5.5-.98 1-1.44 1.5a.52.52 0 01-.4.2v-.04zm3-3a.54.54 0 01-.37-.16.51.51 0 010-.71c.51-.47 1-.94 1.58-1.41a.503.503 0 11.66.76c-.54.46-1.06.92-1.56 1.38a.51.51 0 01-.33.21l.02-.07zm3.19-2.75A.48.48 0 0149 33a.49.49 0 01.07-.7c.54-.43 1.1-.87 1.67-1.3a.5.5 0 11.6.79c-.56.43-1.11.86-1.64 1.29a.51.51 0 01-.3.11l.02-.07zm3.35-2.55a.51.51 0 01-.41-.2.51.51 0 01.11-.7c.57-.41 1.14-.81 1.74-1.21a.5.5 0 01.56.82c-.593.4-1.163.8-1.71 1.2a.52.52 0 01-.31.16l.02-.07zm3.47-2.36a.5.5 0 01-.27-.92c.58-.38 1.18-.76 1.79-1.13a.5.5 0 01.69.16.51.51 0 01-.16.69c-.61.37-1.2.74-1.78 1.12a.5.5 0 01-.29.15l.02-.07zM59.83 26a.5.5 0 01-.26-.93l1.83-1.06a.5.5 0 01.68.19.5.5 0 01-.19.69c-.61.34-1.22.69-1.81 1a.47.47 0 01-.27.18l.02-.07zm3.64-2a.49.49 0 01-.44-.26.51.51 0 01.2-.68l1.87-1a.5.5 0 11.46.88l-1.85 1a.43.43 0 01-.24.06zm3.74-1.93a.51.51 0 01-.45-.28.5.5 0 01.22-.67l1.9-.93a.5.5 0 11.43.9l-1.88.91a.46.46 0 01-.22.07zM71 20.24a.5.5 0 01-.21-.95l1.92-.88a.5.5 0 01.41.91l-1.91.88a.52.52 0 01-.21.04zm3.84-1.72a.5.5 0 01-.46-.3.51.51 0 01.26-.66l1.94-.83a.52.52 0 01.66.27.51.51 0 01-.27.65l-1.97.83a.48.48 0 01-.16.04zm3.88-1.63a.5.5 0 01-.46-.31.49.49 0 01.27-.65l2-.79a.51.51 0 01.65.28.5.5 0 01-.28.65l-2 .78a.43.43 0 01-.18.04zm3.92-1.54a.52.52 0 01-.47-.33.5.5 0 01.29-.64l2-.75a.5.5 0 01.64.3.49.49 0 01-.29.64l-2 .74a.47.47 0 01-.17.04zm3.94-1.47a.52.52 0 01-.47-.33.5.5 0 01.3-.64l2-.71a.51.51 0 01.64.31.5.5 0 01-.31.63l-2 .71a.47.47 0 01-.16.03zm4-1.4a.506.506 0 01-.16-1l2-.68a.51.51 0 01.63.32.49.49 0 01-.32.63l-2 .68-.15.05zm4-1.33a.49.49 0 01-.48-.35.5.5 0 01.32-.63l2-.64a.522.522 0 11.3 1l-2 .65-.14-.03zm4-1.27a.51.51 0 01-.48-.35.51.51 0 01.33-.63l2-.61a.52.52 0 01.29 1l-2 .62-.14-.03zm4-1.21a.5.5 0 01-.48-.36.49.49 0 01.34-.62l2-.59a.49.49 0 01.62.34.51.51 0 01-.34.62l-2 .58a.35.35 0 01-.13.03h-.01zm4-1.17a.51.51 0 01-.48-.36.5.5 0 01.35-.62l2-.56a.518.518 0 11.27 1l-2 .56a.32.32 0 01-.09-.02h-.05zm4.06-1.11a.5.5 0 01-.48-.37.51.51 0 01.36-.62l1.8-.48a.515.515 0 11.25 1l-1.79.48-.14-.01z"/><path fill="#DAE1E7" d="M73.48 122.55H71.5v-2h-1.33v2h-1.98v1.33h1.98v2.01h1.33v-2.01h1.98z"/><g fill-rule="nonzero" transform="translate(111)"><circle cx="3.81" cy="4.29" r="3.29" fill="#FFF"/><path fill="#CED6DE" d="M3.81 8.08a3.79 3.79 0 110-7.58 3.79 3.79 0 010 7.58zm0-6.58a2.79 2.79 0 100 5.58 2.79 2.79 0 000-5.58z"/></g><path fill="#F9CECD" fill-rule="nonzero" d="M74.52 96.75h89.7v73.29h-89.7z"/><path fill="#717790" fill-rule="nonzero" d="M165.22 171h-91.7V95.75h91.7V171zm-89.7-2h87.7V97.75h-87.7V169z"/><path fill="#717790" fill-rule="nonzero" d="M101.43 126.91a1 1 0 01-.69-.27s-1.17-1.12-2.85-3a1 1 0 011.49-1.33c1.62 1.81 2.73 2.87 2.74 2.88a1 1 0 010 1.41 1 1 0 01-.69.31zm-7.26-8.42a1 1 0 01-.81-.4c-.83-1.12-1.62-2.25-2.35-3.36a1 1 0 011.67-1.1c.71 1.08 1.48 2.18 2.29 3.26a1 1 0 01-.21 1.4 1 1 0 01-.59.2zm-5.88-9.42a1 1 0 01-.89-.55c-.63-1.27-1.2-2.53-1.69-3.76a1 1 0 111.85-.74c.47 1.18 1 2.39 1.63 3.6a1 1 0 01-.45 1.34.91.91 0 01-.45.11zm-3.64-10.46a1 1 0 01-1-.82 30.22 30.22 0 01-.45-4.15 1 1 0 012 0 26.16 26.16 0 00.42 3.86 1 1 0 01-.8 1.17l-.17-.06zm.42-11a.9.9 0 01-.28 0 1 1 0 01-.68-1.24 22.38 22.38 0 011.58-3.91 1 1 0 111.77.92A20.22 20.22 0 0086 86.91a1 1 0 01-.93.71v-.01zm5.66-9.41a1 1 0 01-.71-1.7 32.45 32.45 0 013.1-2.78 1 1 0 111.23 1.57 30.77 30.77 0 00-2.9 2.61 1 1 0 01-.72.31v-.01zm8.92-6.54a1 1 0 01-.48-1.88c1.16-.63 2.4-1.24 3.68-1.82a1 1 0 11.82 1.82c-1.24.56-2.43 1.15-3.55 1.76a1 1 0 01-.47.13v-.01zm10.13-4.52a1 1 0 01-.92-.6 1 1 0 01.51-1.32c1.26-.55 2.48-1.12 3.62-1.68a1 1 0 01.89 1.79c-1.17.58-2.41 1.16-3.7 1.73a1.14 1.14 0 01-.4.09v-.01zm9.79-5.2a1 1 0 01-.55-1.83c1.15-.75 2.22-1.53 3.19-2.31a1.003 1.003 0 011.26 1.56c-1 .82-2.15 1.63-3.35 2.42a1 1 0 01-.55.22v-.06zm8.22-7.37a1 1 0 01-.6-.2A1 1 0 01127 53a20.81 20.81 0 002-3.26 1 1 0 011.34-.45 1 1 0 01.45 1.35 23.55 23.55 0 01-2.23 3.57 1 1 0 01-.77.37v-.01zm-4.37-12.15a19.43 19.43 0 01-6-1c-1.44-.47-4.83-1.82-5.25-4-.66-3.37 4.75-6.32 10.18-7.38 5.43-1.06 11.55-.37 12.21 3a6.9 6.9 0 01-1.56 5.22 10.55 10.55 0 01-6.57 3.88c-.991.195-2 .289-3.01.28zm3.51-10.85a22.37 22.37 0 00-4.23.43c-5.63 1.11-8.86 3.72-8.6 5 .1.49 1.25 1.61 3.92 2.49a16.2 16.2 0 008 .65 8.61 8.61 0 005.37-3.13 5 5 0 001.21-3.63c-.22-.91-2.36-1.81-5.67-1.81zm21.42 21.25c-3.39 0-8.84-3.1-11.57-7a10.55 10.55 0 01-2-7.35 6.88 6.88 0 012.48-4.86c2.82-2 7.7 1.79 10.87 6.32a20.89 20.89 0 013.32 7.07c.55 2.5.15 4.37-1.14 5.27a3.35 3.35 0 01-1.96.55zM139 35.07a1.08 1.08 0 00-.62.17 5 5 0 00-1.65 3.44 8.65 8.65 0 001.69 6c3.26 4.66 9.54 6.83 10.74 6 .56-.39.69-1.61.34-3.2a19 19 0 00-3-6.39c-2.85-4.09-5.97-6.02-7.5-6.02z"/><path fill="#717790" fill-rule="nonzero" d="M137.48 37.74a10.72 10.72 0 011.75-3.35 6.36 6.36 0 00.84-1.38c1.12-2.46.41-5.19-1.58-6.09-1.99-.9-4.51.37-5.63 2.84a5.59 5.59 0 00-.48 1.92 16.18 16.18 0 01-.78 4.25l-.12.35c-1.45 4.46-1.37 8.48.19 9 1.56.52 4.35-3.05 5.8-7.5l.01-.04z"/><path fill="#F9CECD" fill-rule="nonzero" d="M46.58 96.75h89.7v73.29h-89.7z"/><path fill="#717790" fill-rule="nonzero" d="M137.28 171h-91.7V95.75h91.7V171zm-89.7-2h87.7V97.75h-87.7V169z"/><path fill="#F9CECD" fill-rule="nonzero" d="M136.28 96.75l22.4-20.8h27.51l-21.97 20.8z"/><path fill="#717790" fill-rule="nonzero" d="M164.61 97.75h-30.88L158.28 75h30.42l-24.09 22.75zm-25.79-2h25L183.68 77h-24.61l-20.25 18.75z"/><path fill="#F9CECD" fill-rule="nonzero" d="M74.94 96.75l-22.4-20.8H25.02L47 96.75z"/><path fill="#717790" fill-rule="nonzero" d="M77.49 97.75H46.6L22.51 75h30.42l24.56 22.75zm-30.09-2h25L52.14 77h-24.6L47.4 95.75z"/></g></svg>