<svg xmlns="http://www.w3.org/2000/svg" width="179" height="160" fill="none" viewBox="0 0 179 160"><mask id="fs-jrmo7phfwa" width="161" height="160" x="12" y="0" maskUnits="userSpaceOnUse"><path fill="url(#paint0_linear)" d="M92.545 159.654c44.087 0 79.827-35.74 79.827-79.827C172.372 35.74 136.632 0 92.545 0 48.458 0 12.718 35.74 12.718 79.827c0 44.087 35.74 79.827 79.827 79.827z"/></mask><g mask="url(#fs-jrmo7phfwa)"><path fill="url(#paint1_linear)" d="M91.535 158.721c44.081 0 79.816-35.531 79.816-79.36C171.351 35.53 135.616 0 91.535 0 47.453 0 11.718 35.53 11.718 79.36s35.735 79.361 79.817 79.361z"/><path fill="#fff" d="M118.524 42.66a5 5 0 00-5 5v196.6h201.599V42.66H118.524zm196.007 12.533h-12.038V43.154h12.038v12.039zm-99.96 75.39v-12.039h12.038v12.039h-12.038zm12.038.592v12.039h-12.038v-12.039h12.038zm-12.532-.592h-12.038v-12.039h12.038v12.039zm0 .592v12.039h-12.038v-12.039h12.038zm-12.631 12.039h-12.038v-12.039h12.038v12.039zm0 .493v12.039h-12.038v-12.039h12.038zm.593 0h12.038v12.039h-12.038v-12.039zm12.038 12.532v12.039h-12.038v-12.039h12.038zm.494 0h12.038v12.039h-12.038v-12.039zm0-.493v-12.039h12.038v12.039h-12.038zm12.532-12.039h12.038v12.039h-12.038v-12.039zm0-.493v-12.039h12.038v12.039h-12.038zm0-12.631v-12.039h12.038v12.039h-12.038zm0-12.532v-12.039h12.038v12.039h-12.038zm-.494 0h-12.038v-12.039h12.038v12.039zm-12.532 0h-12.038v-12.039h12.038v12.039zm-12.631 0h-12.038v-12.039h12.038v12.039zm0 .493v12.039h-12.038v-12.039h12.038zm-12.532 12.039h-12.038v-12.039h12.038v12.039zm0 .592v12.039h-12.038v-12.039h12.038zm0 12.532v12.039h-12.038v-12.039h12.038zm0 12.532v12.039h-12.038v-12.039h12.038zm.494 0h12.038v12.039h-12.038v-12.039zm12.038 12.631v12.039h-12.038V168.87h12.038zm.593 0h12.038v12.039h-12.038V168.87zm12.532 0h12.038v12.039h-12.038V168.87zm12.532 0h12.038v12.039h-12.038V168.87zm0-.592v-12.039h12.038v12.039h-12.038zm12.631-12.039h12.038v12.039h-12.038v-12.039zm0-.493v-12.039h12.038v12.039h-12.038zm0-12.532v-12.039h12.038v12.039h-12.038zm0-12.631v-12.039h12.038v12.039h-12.038zm0-12.532v-12.039h12.038v12.039h-12.038zm0-12.532v-12.04h12.038v12.04h-12.038zm-.593 0h-12.038v-12.04h12.038v12.04zm-12.532 0h-12.038v-12.04h12.038v12.04zm-12.532 0h-12.038v-12.04h12.038v12.04zm-12.631 0h-12.038v-12.04h12.038v12.04zm-12.532 0h-12.038v-12.04h12.038v12.04zm0 .493v12.039h-12.038v-12.039h12.038zm-12.532 12.039h-12.038v-12.039h12.038v12.039zm0 .493v12.039h-12.038v-12.039h12.038zm0 12.631v12.039h-12.038v-12.039h12.038zm0 12.532v12.039h-12.038v-12.039h12.038zm0 12.532v12.039h-12.038v-12.039h12.038zm0 12.631v12.039h-12.038V168.87h12.038zm.494 0h12.038v12.039h-12.038V168.87zm12.038 12.532v12.039h-12.038v-12.039h12.038zm.494 0h12.038v12.039h-12.038v-12.039zm12.631 0h12.038v12.039h-12.038v-12.039zm12.532 0h12.038v12.039h-12.038v-12.039zm12.532 0h12.038v12.039h-12.038v-12.039zm12.631 0h12.038v12.039h-12.038v-12.039zm0-.493V168.87h12.038v12.039h-12.038zm12.532-12.039h12.038v12.039h-12.038V168.87zm0-.592v-12.039h12.038v12.039h-12.038zm0-12.532v-12.039h12.038v12.039h-12.038zm0-12.532v-12.039h12.038v12.039h-12.038zm0-12.631v-12.039h12.038v12.039h-12.038zm0-12.532v-12.039h12.038v12.039h-12.038zm0-12.532v-12.04h12.038v12.04h-12.038zm0-12.631V80.849h12.038v12.039h-12.038zm-.494 0h-12.038V80.849h12.038v12.039zm-12.631 0h-12.038V80.849h12.038v12.039zm-12.532 0h-12.038V80.849h12.038v12.039zm-12.532 0h-12.038V80.849h12.038v12.039zm-12.631 0h-12.038V80.849h12.038v12.039zm-12.532 0h-12.038V80.849h12.038v12.039zm-12.532 0h-12.038V80.849h12.038v12.039zm0 .592v12.039h-12.038v-12.04h12.038zm-12.631 12.039h-12.038v-12.04h12.038v12.04zm0 .493v12.039h-12.038v-12.039h12.038zm0 12.532v12.039h-12.038v-12.039h12.038zm0 12.631v12.039h-12.038v-12.039h12.038zm0 12.532v12.039h-12.038v-12.039h12.038zm0 12.532v12.039h-12.038v-12.039h12.038zm0 12.631v12.039h-12.038V168.87h12.038zm0 12.532v12.039h-12.038v-12.039h12.038zm.593 0h12.038v12.039h-12.038v-12.039zm12.038 12.532v12.039h-12.038v-12.039h12.038zm.494 0h12.038v12.039h-12.038v-12.039zm12.532 0h12.038v12.039h-12.038v-12.039zm12.631 0h12.038v12.039h-12.038v-12.039zm12.532 0h12.038v12.039h-12.038v-12.039zm12.532 0h12.038v12.039h-12.038v-12.039zm12.631 0h12.038v12.039h-12.038v-12.039zm12.532 0h12.038v12.039h-12.038v-12.039zm0-.493v-12.039h12.038v12.039h-12.038zm12.532-12.039h12.038v12.039h-12.038v-12.039zm0-.493V168.87h12.038v12.039h-12.038zm0-12.631v-12.039h12.038v12.039h-12.038zm0-12.532v-12.039h12.038v12.039h-12.038zm0-12.532v-12.039h12.038v12.039h-12.038zm0-12.631v-12.039h12.038v12.039h-12.038zm0-12.532v-12.039h12.038v12.039h-12.038zm0-12.532v-12.04h12.038v12.04h-12.038zm0-12.631V80.849h12.038v12.039h-12.038zm0-12.532V68.317h12.038v12.039h-12.038zm-.494 0h-12.038V68.317h12.038v12.039zm-12.532 0h-12.038V68.317h12.038v12.039zm-12.631 0h-12.038V68.317h12.038v12.039zm-12.532 0h-12.038V68.317h12.038v12.039zm-12.532 0h-12.038V68.317h12.038v12.039zm-12.631 0h-12.038V68.317h12.038v12.039zm-12.532 0h-12.038V68.317h12.038v12.039zm-12.532 0h-12.038V68.317h12.038v12.039zm-12.631 0h-12.038V68.317h12.038v12.039zm0 .493v12.039h-12.038V80.849h12.038zm-12.532 12.039h-12.038V80.849h12.038v12.039zm0 .592v12.039h-12.038v-12.04h12.038zm0 12.532v12.039h-12.038v-12.039h12.038zm0 12.532v12.039h-12.038v-12.039h12.038zm0 12.631v12.039h-12.038v-12.039h12.038zm0 12.532v12.039h-12.038v-12.039h12.038zm0 12.532v12.039h-12.038v-12.039h12.038zm0 12.631v12.039h-12.038V168.87h12.038zm0 12.532v12.039h-12.038v-12.039h12.038zm0 12.532v12.039h-12.038v-12.039h12.038zm.494 0h12.038v12.039h-12.038v-12.039zm12.038 12.631v12.039h-12.038v-12.039h12.038zm.593 0h12.038v12.039h-12.038v-12.039zm12.532 0h12.038v12.039h-12.038v-12.039zm12.532 0h12.038v12.039h-12.038v-12.039zm12.631 0h12.038v12.039h-12.038v-12.039zm12.532 0h12.038v12.039h-12.038v-12.039zm12.532 0h12.038v12.039h-12.038v-12.039zm12.631 0h12.038v12.039h-12.038v-12.039zm12.532 0h12.038v12.039h-12.038v-12.039zm12.532 0h12.038v12.039h-12.038v-12.039zm0-.592v-12.039h12.038v12.039h-12.038zm12.63-12.039h12.039v12.039h-12.039v-12.039zm0-.493v-12.039h12.039v12.039h-12.039zm0-12.532V168.87h12.039v12.039h-12.039zm0-12.631v-12.039h12.039v12.039h-12.039zm0-12.532v-12.039h12.039v12.039h-12.039zm0-12.532v-12.039h12.039v12.039h-12.039zm0-12.631v-12.039h12.039v12.039h-12.039zm0-12.532v-12.039h12.039v12.039h-12.039zm0-12.532v-12.04h12.039v12.04h-12.039zm0-12.631V80.849h12.039v12.039h-12.039zm0-12.532V68.317h12.039v12.039h-12.039zm0-12.532V55.785h12.039v12.039h-12.039zm-.592 0h-12.038V55.785h12.038v12.039zm-12.532 0h-12.038V55.785h12.038v12.039zm-12.532 0h-12.038V55.785h12.038v12.039zm-12.631 0h-12.038V55.785h12.038v12.039zm-12.532 0h-12.038V55.785h12.038v12.039zm-12.532 0h-12.038V55.785h12.038v12.039zm-12.631 0h-12.038V55.785h12.038v12.039zm-12.532 0h-12.038V55.785h12.038v12.039zm-12.532 0h-12.038V55.785h12.038v12.039zm-12.631 0h-12.038V55.785h12.038v12.039zm-12.532 0h-12.038V55.785h12.038v12.039zm0 .493v12.039h-12.038V68.317h12.038zm-12.532 12.039h-12.038V68.317h12.038v12.039zm0 .493v12.039h-12.038V80.849h12.038zm0 12.63v12.04h-12.038v-12.04h12.038zm0 12.533v12.039h-12.038v-12.039h12.038zm0 12.532v12.039h-12.038v-12.039h12.038zm0 12.631v12.039h-12.038v-12.039h12.038zm0 12.532v12.039h-12.038v-12.039h12.038zm0 12.532v12.039h-12.038v-12.039h12.038zm0 12.631v12.039h-12.038V168.87h12.038zm0 12.532v12.039h-12.038v-12.039h12.038zm0 12.532v12.039h-12.038v-12.039h12.038zm0 12.631v12.039h-12.038v-12.039h12.038zm.494 0h12.038v12.039h-12.038v-12.039zm12.038 12.532v12.039h-12.038v-12.039h12.038zm.494 0h12.038v12.039h-12.038v-12.039zm12.631 0h12.038v12.039h-12.038v-12.039zm12.532 0h12.038v12.039h-12.038v-12.039zm12.532 0h12.038v12.039h-12.038v-12.039zm12.631 0h12.038v12.039h-12.038v-12.039zm12.532 0h12.038v12.039h-12.038v-12.039zm12.532 0h12.038v12.039h-12.038v-12.039zm12.631 0h12.038v12.039h-12.038v-12.039zm12.532 0h12.038v12.039h-12.038v-12.039zm12.532 0h12.038v12.039h-12.038v-12.039zm12.63 0h12.039v12.039h-12.039v-12.039zm0-.493v-12.039h12.039v12.039h-12.039zm12.533-12.039h12.038v12.039h-12.038v-12.039zm0-.592v-12.039h12.038v12.039h-12.038zm0-12.532v-12.039h12.038v12.039h-12.038zm0-12.532V168.87h12.038v12.039h-12.038zm0-12.631v-12.039h12.038v12.039h-12.038zm0-12.532v-12.039h12.038v12.039h-12.038zm0-12.532v-12.039h12.038v12.039h-12.038zm0-12.631v-12.039h12.038v12.039h-12.038zm0-12.532v-12.039h12.038v12.039h-12.038zm0-12.532v-12.04h12.038v12.04h-12.038zm0-12.631V80.849h12.038v12.039h-12.038zm0-12.532V68.317h12.038v12.039h-12.038zm0-12.532V55.785h12.038v12.039h-12.038zm0-12.631V43.154h12.038v12.039h-12.038zm-.494 0h-12.039V43.154h12.039v12.039zm-12.631 0h-12.038V43.154h12.038v12.039zm-12.532 0h-12.038V43.154h12.038v12.039zm-12.532 0h-12.038V43.154h12.038v12.039zm-12.631 0h-12.038V43.154h12.038v12.039zm-12.532 0h-12.038V43.154h12.038v12.039zm-12.532 0h-12.038V43.154h12.038v12.039zm-12.631 0h-12.038V43.154h12.038v12.039zm-12.532 0h-12.038V43.154h12.038v12.039zm-12.532 0h-12.038V43.154h12.038v12.039zm-12.631 0h-12.038V43.154h12.038v12.039zm-12.532 0h-12.038V43.154h12.038v12.039zm-12.532 0h-12.038V43.154h12.038v12.039zm0 .592v12.039h-12.038V55.785h12.038zm-12.63 12.039h-12.039V55.785h12.039v12.039zm0 .493v12.039h-12.039V68.317h12.039zm0 12.532v12.039h-12.039V80.849h12.039zm0 12.63v12.04h-12.039v-12.04h12.039zm0 12.533v12.039h-12.039v-12.039h12.039zm0 12.532v12.039h-12.039v-12.039h12.039zm0 12.631v12.039h-12.039v-12.039h12.039zm0 12.532v12.039h-12.039v-12.039h12.039zm0 12.532v12.039h-12.039v-12.039h12.039zm0 12.631v12.039h-12.039V168.87h12.039zm0 12.532v12.039h-12.039v-12.039h12.039zm0 12.532v12.039h-12.039v-12.039h12.039zm0 12.631v12.039h-12.039v-12.039h12.039zm0 12.532v12.039h-12.039v-12.039h12.039zm.592 0h12.038v12.039h-12.038v-12.039zm12.038 12.532v12.039h-12.038v-12.039h12.038zm.494 0h12.038v12.039h-12.038v-12.039zm12.532 0h12.038v12.039h-12.038v-12.039zm12.631 0h12.038v12.039h-12.038v-12.039zm12.532 0h12.038v12.039h-12.038v-12.039zm12.532 0h12.038v12.039h-12.038v-12.039zm12.631 0h12.038v12.039h-12.038v-12.039zm12.532 0h12.038v12.039h-12.038v-12.039zm12.532 0h12.038v12.039h-12.038v-12.039zm12.631 0h12.038v12.039h-12.038v-12.039zm12.532 0h12.038v12.039h-12.038v-12.039zm12.532 0h12.038v12.039h-12.038v-12.039zm12.63 0h12.039v12.039h-12.039v-12.039zm12.533 0h12.038v12.039h-12.038v-12.039zm0-.493v-12.039h12.038v12.039h-12.038zm12.532-12.039h12.038v12.039h-12.038v-12.039zm0-.493v-12.039h12.038v12.039h-12.038zm0-12.631v-12.039h12.038v12.039h-12.038zm0-12.532v-12.039h12.038v12.039h-12.038zm0-12.532V168.87h12.038v12.039h-12.038zm0-12.631v-12.039h12.038v12.039h-12.038zm0-12.532v-12.039h12.038v12.039h-12.038zm0-12.532v-12.039h12.038v12.039h-12.038zm0-12.631v-12.039h12.038v12.039h-12.038zm0-12.532v-12.039h12.038v12.039h-12.038zm0-12.532v-12.04h12.038v12.04h-12.038zm0-12.631V80.849h12.038v12.039h-12.038zm0-12.532V68.317h12.038v12.039h-12.038zm0-12.532V55.785h12.038v12.039h-12.038zm-176.436-24.67v12.039h-12.039v-7.039a5 5 0 015-5h7.039zM114.018 231.63h12.039v12.039h-12.039V231.63zm188.475 12.039V231.63h12.038v12.039h-12.038z"/></g><path fill="url(#paint2_radial)" d="M10.192 141.255c5.628 0 10.192-4.563 10.192-10.192 0-5.628-4.564-10.191-10.192-10.191C4.563 120.872 0 125.435 0 131.063c0 5.629 4.563 10.192 10.192 10.192z"/><path fill="url(#paint3_radial)" d="M4.297 130.566c-1.847-1.136-2.308-3.729-1.03-5.753 1.243-2.024 3.764-2.77 5.611-1.633 1.847 1.136 2.308 3.728 1.03 5.752-1.279 2.06-3.8 2.77-5.611 1.634z" opacity=".5"/><path fill="url(#paint4_radial)" d="M142.682 23.306a7.78 7.78 0 100-15.558 7.78 7.78 0 000 15.558z"/><path fill="url(#paint5_radial)" d="M138.183 15.148c-1.41-.867-1.762-2.846-.786-4.39.948-1.546 2.873-2.115 4.282-1.248 1.41.868 1.762 2.846.786 4.391-.975 1.572-2.9 2.114-4.282 1.247z" opacity=".5"/><g filter="url(#filter0_f)"><ellipse cx="86.49" cy="143.832" fill="#000" fill-opacity=".37" rx="76.49" ry=".405"/></g><g filter="url(#filter1_ii)"><path fill="#E4E4E4" d="M72.92 113.819a3.094 3.094 0 013.09-3.094h20.12a3.09 3.09 0 013.091 3.091v29.61H72.92v-29.607z"/></g><path fill="url(#paint6_linear)" d="M73.547 123.019h25.469V137.7H73.547z"/><g filter="url(#filter2_ii)"><rect width="139.757" height="93.378" x="18.099" y="32.537" fill="#E4E4E4" rx="4.636"/></g><rect width="128.996" height="81.779" x="24.253" y="39.156" fill="#010101" rx="3.863"/><g filter="url(#filter3_iii)"><path fill="#4392F4" d="M149.435 36.17H25.837c-2.398 0-4.342 1.958-4.342 4.373v77.485c0 2.415 1.944 4.373 4.342 4.373h123.598c2.398 0 4.342-1.958 4.342-4.373V40.543c0-2.415-1.944-4.372-4.342-4.372z"/></g><path fill="#231F20" d="M142.832 47.626H32.366a3.63 3.63 0 00-3.63 3.63v.284a3.63 3.63 0 003.63 3.63h110.466a3.63 3.63 0 003.629-3.63v-.285a3.63 3.63 0 00-3.629-3.63z" opacity=".2"/><g filter="url(#filter4_ii)"><path fill="url(#paint7_linear)" d="M143.514 47.626H32.783a3.496 3.496 0 100 6.99h110.731a3.496 3.496 0 100-6.99z"/></g><path fill="#231F20" d="M54.379 50.257H36.867a1.097 1.097 0 100 2.192H54.38a1.097 1.097 0 100-2.192z" opacity=".4"/><path fill="#D7D7D7" d="M54.453 50.028H36.957a1.097 1.097 0 100 2.192h17.496a1.097 1.097 0 100-2.192z"/><g filter="url(#filter5_ii)"><path fill="#EAEAEA" d="M29.595 43.619a1.396 1.396 0 100-2.792 1.396 1.396 0 000 2.792z"/></g><g filter="url(#filter6_ii)"><path fill="#EAEAEA" d="M34.202 43.618a1.396 1.396 0 100-2.791 1.396 1.396 0 000 2.791z"/></g><g filter="url(#filter7_ii)"><path fill="#EAEAEA" d="M38.808 43.618a1.396 1.396 0 100-2.791 1.396 1.396 0 000 2.791z"/></g><rect width="116.284" height="53.384" x="28.735" y="62.356" fill="#002880" fill-opacity=".32" rx="1.545"/><g filter="url(#filter8_ii)"><rect width="115.734" height="53.384" x="29.286" y="61.434" fill="url(#paint8_linear)" rx="1.545"/></g><g filter="url(#filter9_di)"><path fill="#4BBEFF" d="M108.064 75.873a4.82 4.82 0 013.738-4.697.86.86 0 00.673-.838v-3.436a.863.863 0 00-.861-.86h-36.8a.861.861 0 00-.86.86v3.39a.862.862 0 00.71.845 4.81 4.81 0 010 9.472.862.862 0 00-.71.846v3.382a.861.861 0 00.86.861h36.8a.863.863 0 00.861-.86v-3.436a.86.86 0 00-.673-.838 4.822 4.822 0 01-3.738-4.69z"/></g><g filter="url(#filter10_d)"><path fill="#000" d="M101.008 72.693H86.366a.916.916 0 00-.916.916v.003c0 .505.41.916.916.916h14.642c.506 0 .916-.41.916-.916v-.003a.916.916 0 00-.916-.916z"/></g><g filter="url(#filter11_ii)"><path fill="#F3F3F3" d="M101.008 72.693H86.366a.916.916 0 00-.916.916v.003c0 .505.41.916.916.916h14.642c.506 0 .916-.41.916-.916v-.003a.916.916 0 00-.916-.916z"/></g><g filter="url(#filter12_d)"><path fill="#000" d="M98.904 77.648H88.878a.916.916 0 00-.917.916v.002c0 .506.41.916.916.916h10.027c.506 0 .916-.41.916-.916v-.002a.916.916 0 00-.916-.916z"/></g><g filter="url(#filter13_ii)"><path fill="#F3F3F3" d="M98.904 77.648H88.878a.916.916 0 00-.917.916v.002c0 .506.41.916.916.916h10.027c.506 0 .916-.41.916-.916v-.002a.916.916 0 00-.916-.916z"/></g><g filter="url(#filter14_d)"><g filter="url(#filter15_i)"><path fill="#92A2B1" d="M96.627 84.666a4.36 4.36 0 013.38-4.248.78.78 0 00.609-.758v-3.107a.78.78 0 00-.778-.778h-33.28a.779.779 0 00-.778.778v3.066a.78.78 0 00.642.764 4.35 4.35 0 010 8.566.779.779 0 00-.642.764v3.06a.779.779 0 00.779.778h33.279a.779.779 0 00.778-.779v-3.106a.78.78 0 00-.609-.758 4.36 4.36 0 01-3.38-4.242z"/></g><g filter="url(#filter16_d)"><path fill="#000" d="M90.247 81.79H77.006a.829.829 0 00-.829.828v.002c0 .458.371.829.829.829h13.24a.829.829 0 00.829-.829v-.002a.828.828 0 00-.828-.828z"/></g><g filter="url(#filter17_ii)"><path fill="#F3F3F3" d="M90.247 81.79H77.006a.829.829 0 00-.829.828v.002c0 .458.371.829.829.829h13.24a.829.829 0 00.829-.829v-.002a.828.828 0 00-.828-.828z"/></g><g filter="url(#filter18_d)"><path fill="#000" d="M88.344 86.271h-9.067a.828.828 0 00-.829.829v.002c0 .457.371.828.829.828h9.067c.458 0 .829-.37.829-.828V87.1a.828.828 0 00-.829-.829z"/></g><g filter="url(#filter19_ii)"><path fill="#F3F3F3" d="M88.344 86.271h-9.067a.828.828 0 00-.829.829v.002c0 .457.371.828.829.828h9.067c.458 0 .829-.37.829-.828V87.1a.828.828 0 00-.829-.829z"/></g></g><g filter="url(#filter20_d)"><rect width="29.786" height="1.935" x="69.23" y="105.456" fill="#3E3E3E" rx=".968"/></g><g filter="url(#filter21_dii)"><rect width="30.264" height="2.337" x="68.957" y="105.055" fill="url(#paint9_linear)" rx="1.169"/></g><g filter="url(#filter22_d)"><rect width="49.296" height="1.935" x="59.442" y="99.652" fill="#3E3E3E" rx=".968"/></g><g filter="url(#filter23_dii)"><rect width="50.086" height="2.337" x="58.993" y="99.25" fill="url(#paint10_linear)" rx="1.169"/></g><g filter="url(#filter24_ii)"><rect width="41.841" height="3.244" x="65.306" y="140.182" fill="#E4E4E4" rx="1.622"/></g><g filter="url(#filter25_i)"><path fill="url(#paint11_linear)" d="M159.403 122.531c-.049-.012-.101-.021-.137-.056-.763-.729 1.494-10.653 1.708-11.394 1.091-3.768 2.898-7.434 5.803-10.123 2.057-1.904 7.551-5.628 10.403-3.439 2.402 1.848.151 6.487-.956 8.427-1.986 3.449-4.912 6.244-7.411 9.303-1.491 1.83-2.989 3.695-4.48 5.525-.097.125-.852 1.197-1.416 1.894-.362.448-.888.529-1.446.388l-2.068-.525z"/></g><g filter="url(#filter26_i)"><path fill="url(#paint12_linear)" d="M162.665 125.549c1.219.262 2.306-.775 2.051-1.996-1.4-6.718-6.041-24.235-15.871-21.043-8.933 2.932 10.266 20.208 13.047 22.655.223.196.482.321.773.384z"/></g><path fill="#77FFE4" fill-opacity=".2" d="M151.521 106.003s11.496 15.005 11.627 18.179zm22.26-5.524s-9.446 12.05-10.473 17.398z"/><path fill="url(#paint13_linear)" d="M150.977 122.587a2.35 2.35 0 012.339-2.576h15.931a2.35 2.35 0 012.339 2.576l-1.775 18.414a2.35 2.35 0 01-2.339 2.124h-12.38a2.35 2.35 0 01-2.34-2.124l-1.775-18.414z"/><g filter="url(#filter27_i)"><rect width="22.63" height="5.571" x="149.967" y="120.011" fill="url(#paint14_linear)" rx="1.175"/></g><defs><filter id="filter1_ii" width="26.611" height="33.011" x="72.765" y="110.57" color-interpolation-filters="sRGB" filterUnits="userSpaceOnUse"><feFlood flood-opacity="0" result="BackgroundImageFix"/><feBlend in="SourceGraphic" in2="BackgroundImageFix" result="shape"/><feColorMatrix in="SourceAlpha" result="hardAlpha" values="0 0 0 0 0 0 0 0 0 0 0 0 0 0 0 0 0 0 127 0"/><feOffset dx=".773" dy=".85"/><feGaussianBlur stdDeviation=".077"/><feComposite in2="hardAlpha" k2="-1" k3="1" operator="arithmetic"/><feColorMatrix values="0 0 0 0 0.958333 0 0 0 0 0.958333 0 0 0 0 0.958333 0 0 0 1 0"/><feBlend in2="shape" result="effect1_innerShadow"/><feColorMatrix in="SourceAlpha" result="hardAlpha" values="0 0 0 0 0 0 0 0 0 0 0 0 0 0 0 0 0 0 127 0"/><feOffset dx="-.773" dy="-.464"/><feGaussianBlur stdDeviation=".077"/><feComposite in2="hardAlpha" k2="-1" k3="1" operator="arithmetic"/><feColorMatrix values="0 0 0 0 0.833333 0 0 0 0 0.833333 0 0 0 0 0.833333 0 0 0 1 0"/><feBlend in2="effect1_innerShadow" result="effect2_innerShadow"/></filter><filter id="filter21_dii" width="31.809" height="4.346" x="68.185" y="104.591" color-interpolation-filters="sRGB" filterUnits="userSpaceOnUse"><feFlood flood-opacity="0" result="BackgroundImageFix"/><feColorMatrix in="SourceAlpha" values="0 0 0 0 0 0 0 0 0 0 0 0 0 0 0 0 0 0 127 0"/><feOffset dy=".773"/><feGaussianBlur stdDeviation=".386"/><feColorMatrix values="0 0 0 0 0 0 0 0 0 0 0 0 0 0 0 0 0 0 0.07 0"/><feBlend in2="BackgroundImageFix" result="effect1_dropShadow"/><feBlend in="SourceGraphic" in2="effect1_dropShadow" result="shape"/><feColorMatrix in="SourceAlpha" result="hardAlpha" values="0 0 0 0 0 0 0 0 0 0 0 0 0 0 0 0 0 0 127 0"/><feOffset dx=".773" dy=".85"/><feGaussianBlur stdDeviation=".464"/><feComposite in2="hardAlpha" k2="-1" k3="1" operator="arithmetic"/><feColorMatrix values="0 0 0 0 1 0 0 0 0 1 0 0 0 0 1 0 0 0 1 0"/><feBlend in2="shape" result="effect2_innerShadow"/><feColorMatrix in="SourceAlpha" result="hardAlpha" values="0 0 0 0 0 0 0 0 0 0 0 0 0 0 0 0 0 0 127 0"/><feOffset dx="-.85" dy="-.464"/><feGaussianBlur stdDeviation=".386"/><feComposite in2="hardAlpha" k2="-1" k3="1" operator="arithmetic"/><feColorMatrix values="0 0 0 0 0.833333 0 0 0 0 0.833333 0 0 0 0 0.833333 0 0 0 1 0"/><feBlend in2="effect2_innerShadow" result="effect3_innerShadow"/></filter><filter id="filter2_ii" width="140.684" height="94.383" x="17.944" y="32.383" color-interpolation-filters="sRGB" filterUnits="userSpaceOnUse"><feFlood flood-opacity="0" result="BackgroundImageFix"/><feBlend in="SourceGraphic" in2="BackgroundImageFix" result="shape"/><feColorMatrix in="SourceAlpha" result="hardAlpha" values="0 0 0 0 0 0 0 0 0 0 0 0 0 0 0 0 0 0 127 0"/><feOffset dx=".773" dy=".85"/><feGaussianBlur stdDeviation=".464"/><feComposite in2="hardAlpha" k2="-1" k3="1" operator="arithmetic"/><feColorMatrix values="0 0 0 0 1 0 0 0 0 1 0 0 0 0 1 0 0 0 1 0"/><feBlend in2="shape" result="effect1_innerShadow"/><feColorMatrix in="SourceAlpha" result="hardAlpha" values="0 0 0 0 0 0 0 0 0 0 0 0 0 0 0 0 0 0 127 0"/><feOffset dx="-.773" dy="-.464"/><feGaussianBlur stdDeviation=".077"/><feComposite in2="hardAlpha" k2="-1" k3="1" operator="arithmetic"/><feColorMatrix values="0 0 0 0 0.833333 0 0 0 0 0.833333 0 0 0 0 0.833333 0 0 0 1 0"/><feBlend in2="effect1_innerShadow" result="effect2_innerShadow"/></filter><filter id="filter3_iii" width="133.055" height="87.543" x="20.722" y="35.707" color-interpolation-filters="sRGB" filterUnits="userSpaceOnUse"><feFlood flood-opacity="0" result="BackgroundImageFix"/><feBlend in="SourceGraphic" in2="BackgroundImageFix" result="shape"/><feColorMatrix in="SourceAlpha" result="hardAlpha" values="0 0 0 0 0 0 0 0 0 0 0 0 0 0 0 0 0 0 127 0"/><feOffset dy="-.464"/><feGaussianBlur stdDeviation=".464"/><feComposite in2="hardAlpha" k2="-1" k3="1" operator="arithmetic"/><feColorMatrix values="0 0 0 0 0.089132 0 0 0 0 0.328429 0 0 0 0 0.629167 0 0 0 1 0"/><feBlend in2="shape" result="effect1_innerShadow"/><feColorMatrix in="SourceAlpha" result="hardAlpha" values="0 0 0 0 0 0 0 0 0 0 0 0 0 0 0 0 0 0 127 0"/><feOffset dy=".85"/><feGaussianBlur stdDeviation=".425"/><feComposite in2="hardAlpha" k2="-1" k3="1" operator="arithmetic"/><feColorMatrix values="0 0 0 0 0.641667 0 0 0 0 0.8495 0 0 0 0 1 0 0 0 1 0"/><feBlend in2="effect1_innerShadow" result="effect2_innerShadow"/><feColorMatrix in="SourceAlpha" result="hardAlpha" values="0 0 0 0 0 0 0 0 0 0 0 0 0 0 0 0 0 0 127 0"/><feOffset dx="-.773"/><feGaussianBlur stdDeviation=".386"/><feComposite in2="hardAlpha" k2="-1" k3="1" operator="arithmetic"/><feColorMatrix values="0 0 0 0 0 0 0 0 0 0 0 0 0 0 0 0 0 0 0.25 0"/><feBlend in2="effect2_innerShadow" result="effect3_innerShadow"/></filter><filter id="filter4_ii" width="118.653" height="7.995" x="29.131" y="47.471" color-interpolation-filters="sRGB" filterUnits="userSpaceOnUse"><feFlood flood-opacity="0" result="BackgroundImageFix"/><feBlend in="SourceGraphic" in2="BackgroundImageFix" result="shape"/><feColorMatrix in="SourceAlpha" result="hardAlpha" values="0 0 0 0 0 0 0 0 0 0 0 0 0 0 0 0 0 0 127 0"/><feOffset dx=".773" dy=".85"/><feGaussianBlur stdDeviation=".464"/><feComposite in2="hardAlpha" k2="-1" k3="1" operator="arithmetic"/><feColorMatrix values="0 0 0 0 1 0 0 0 0 1 0 0 0 0 1 0 0 0 1 0"/><feBlend in2="shape" result="effect1_innerShadow"/><feColorMatrix in="SourceAlpha" result="hardAlpha" values="0 0 0 0 0 0 0 0 0 0 0 0 0 0 0 0 0 0 127 0"/><feOffset dx="-.773" dy="-.464"/><feGaussianBlur stdDeviation=".077"/><feComposite in2="hardAlpha" k2="-1" k3="1" operator="arithmetic"/><feColorMatrix values="0 0 0 0 0.833333 0 0 0 0 0.833333 0 0 0 0 0.833333 0 0 0 1 0"/><feBlend in2="effect1_innerShadow" result="effect2_innerShadow"/></filter><filter id="filter5_ii" width="3.024" height="3.024" x="28.044" y="40.673" color-interpolation-filters="sRGB" filterUnits="userSpaceOnUse"><feFlood flood-opacity="0" result="BackgroundImageFix"/><feBlend in="SourceGraphic" in2="BackgroundImageFix" result="shape"/><feColorMatrix in="SourceAlpha" result="hardAlpha" values="0 0 0 0 0 0 0 0 0 0 0 0 0 0 0 0 0 0 127 0"/><feOffset dx=".155" dy=".155"/><feGaussianBlur stdDeviation=".039"/><feComposite in2="hardAlpha" k2="-1" k3="1" operator="arithmetic"/><feColorMatrix values="0 0 0 0 1 0 0 0 0 1 0 0 0 0 1 0 0 0 1 0"/><feBlend in2="shape" result="effect1_innerShadow"/><feColorMatrix in="SourceAlpha" result="hardAlpha" values="0 0 0 0 0 0 0 0 0 0 0 0 0 0 0 0 0 0 127 0"/><feOffset dx="-.155" dy="-.155"/><feGaussianBlur stdDeviation=".077"/><feComposite in2="hardAlpha" k2="-1" k3="1" operator="arithmetic"/><feColorMatrix values="0 0 0 0 0.658333 0 0 0 0 0.658333 0 0 0 0 0.658333 0 0 0 1 0"/><feBlend in2="effect1_innerShadow" result="effect2_innerShadow"/></filter><filter id="filter6_ii" width="3.024" height="3.024" x="32.651" y="40.672" color-interpolation-filters="sRGB" filterUnits="userSpaceOnUse"><feFlood flood-opacity="0" result="BackgroundImageFix"/><feBlend in="SourceGraphic" in2="BackgroundImageFix" result="shape"/><feColorMatrix in="SourceAlpha" result="hardAlpha" values="0 0 0 0 0 0 0 0 0 0 0 0 0 0 0 0 0 0 127 0"/><feOffset dx=".155" dy=".155"/><feGaussianBlur stdDeviation=".039"/><feComposite in2="hardAlpha" k2="-1" k3="1" operator="arithmetic"/><feColorMatrix values="0 0 0 0 1 0 0 0 0 1 0 0 0 0 1 0 0 0 1 0"/><feBlend in2="shape" result="effect1_innerShadow"/><feColorMatrix in="SourceAlpha" result="hardAlpha" values="0 0 0 0 0 0 0 0 0 0 0 0 0 0 0 0 0 0 127 0"/><feOffset dx="-.155" dy="-.155"/><feGaussianBlur stdDeviation=".077"/><feComposite in2="hardAlpha" k2="-1" k3="1" operator="arithmetic"/><feColorMatrix values="0 0 0 0 0.658333 0 0 0 0 0.658333 0 0 0 0 0.658333 0 0 0 1 0"/><feBlend in2="effect1_innerShadow" result="effect2_innerShadow"/></filter><filter id="filter7_ii" width="3.024" height="3.024" x="37.258" y="40.672" color-interpolation-filters="sRGB" filterUnits="userSpaceOnUse"><feFlood flood-opacity="0" result="BackgroundImageFix"/><feBlend in="SourceGraphic" in2="BackgroundImageFix" result="shape"/><feColorMatrix in="SourceAlpha" result="hardAlpha" values="0 0 0 0 0 0 0 0 0 0 0 0 0 0 0 0 0 0 127 0"/><feOffset dx=".155" dy=".155"/><feGaussianBlur stdDeviation=".039"/><feComposite in2="hardAlpha" k2="-1" k3="1" operator="arithmetic"/><feColorMatrix values="0 0 0 0 1 0 0 0 0 1 0 0 0 0 1 0 0 0 1 0"/><feBlend in2="shape" result="effect1_innerShadow"/><feColorMatrix in="SourceAlpha" result="hardAlpha" values="0 0 0 0 0 0 0 0 0 0 0 0 0 0 0 0 0 0 127 0"/><feOffset dx="-.155" dy="-.155"/><feGaussianBlur stdDeviation=".077"/><feComposite in2="hardAlpha" k2="-1" k3="1" operator="arithmetic"/><feColorMatrix values="0 0 0 0 0.658333 0 0 0 0 0.658333 0 0 0 0 0.658333 0 0 0 1 0"/><feBlend in2="effect1_innerShadow" result="effect2_innerShadow"/></filter><filter id="filter8_ii" width="116.661" height="54.388" x="29.131" y="61.28" color-interpolation-filters="sRGB" filterUnits="userSpaceOnUse"><feFlood flood-opacity="0" result="BackgroundImageFix"/><feBlend in="SourceGraphic" in2="BackgroundImageFix" result="shape"/><feColorMatrix in="SourceAlpha" result="hardAlpha" values="0 0 0 0 0 0 0 0 0 0 0 0 0 0 0 0 0 0 127 0"/><feOffset dx=".773" dy=".85"/><feGaussianBlur stdDeviation=".464"/><feComposite in2="hardAlpha" k2="-1" k3="1" operator="arithmetic"/><feColorMatrix values="0 0 0 0 1 0 0 0 0 1 0 0 0 0 1 0 0 0 1 0"/><feBlend in2="shape" result="effect1_innerShadow"/><feColorMatrix in="SourceAlpha" result="hardAlpha" values="0 0 0 0 0 0 0 0 0 0 0 0 0 0 0 0 0 0 127 0"/><feOffset dx="-.773" dy="-.464"/><feGaussianBlur stdDeviation=".077"/><feComposite in2="hardAlpha" k2="-1" k3="1" operator="arithmetic"/><feColorMatrix values="0 0 0 0 0.833333 0 0 0 0 0.833333 0 0 0 0 0.833333 0 0 0 1 0"/><feBlend in2="effect1_innerShadow" result="effect2_innerShadow"/></filter><filter id="filter9_di" width="40.067" height="21.357" x="73.181" y="65.578" color-interpolation-filters="sRGB" filterUnits="userSpaceOnUse"><feFlood flood-opacity="0" result="BackgroundImageFix"/><feColorMatrix in="SourceAlpha" values="0 0 0 0 0 0 0 0 0 0 0 0 0 0 0 0 0 0 127 0"/><feOffset dy=".464"/><feGaussianBlur stdDeviation=".386"/><feColorMatrix values="0 0 0 0 0 0 0 0 0 0 0 0 0 0 0 0 0 0 0.25 0"/><feBlend in2="BackgroundImageFix" result="effect1_dropShadow"/><feBlend in="SourceGraphic" in2="effect1_dropShadow" result="shape"/><feColorMatrix in="SourceAlpha" result="hardAlpha" values="0 0 0 0 0 0 0 0 0 0 0 0 0 0 0 0 0 0 127 0"/><feOffset dx="-.155" dy="-.464"/><feGaussianBlur stdDeviation=".232"/><feComposite in2="hardAlpha" k2="-1" k3="1" operator="arithmetic"/><feColorMatrix values="0 0 0 0 0.0961458 0 0 0 0 0.412254 0 0 0 0 0.591667 0 0 0 1 0"/><feBlend in2="shape" result="effect2_innerShadow"/></filter><filter id="filter10_d" width="18.019" height="3.38" x="84.677" y="72.693" color-interpolation-filters="sRGB" filterUnits="userSpaceOnUse"><feFlood flood-opacity="0" result="BackgroundImageFix"/><feColorMatrix in="SourceAlpha" values="0 0 0 0 0 0 0 0 0 0 0 0 0 0 0 0 0 0 127 0"/><feOffset dy=".773"/><feGaussianBlur stdDeviation=".386"/><feColorMatrix values="0 0 0 0 0 0 0 0 0 0 0 0 0 0 0 0 0 0 0.25 0"/><feBlend in2="BackgroundImageFix" result="effect1_dropShadow"/><feBlend in="SourceGraphic" in2="effect1_dropShadow" result="shape"/></filter><filter id="filter11_ii" width="16.551" height="2.221" x="85.373" y="72.538" color-interpolation-filters="sRGB" filterUnits="userSpaceOnUse"><feFlood flood-opacity="0" result="BackgroundImageFix"/><feBlend in="SourceGraphic" in2="BackgroundImageFix" result="shape"/><feColorMatrix in="SourceAlpha" result="hardAlpha" values="0 0 0 0 0 0 0 0 0 0 0 0 0 0 0 0 0 0 127 0"/><feOffset dy=".386"/><feGaussianBlur stdDeviation=".116"/><feComposite in2="hardAlpha" k2="-1" k3="1" operator="arithmetic"/><feColorMatrix values="0 0 0 0 1 0 0 0 0 1 0 0 0 0 1 0 0 0 1 0"/><feBlend in2="shape" result="effect1_innerShadow"/><feColorMatrix in="SourceAlpha" result="hardAlpha" values="0 0 0 0 0 0 0 0 0 0 0 0 0 0 0 0 0 0 127 0"/><feOffset dx="-.077" dy="-.309"/><feGaussianBlur stdDeviation=".077"/><feComposite in2="hardAlpha" k2="-1" k3="1" operator="arithmetic"/><feColorMatrix values="0 0 0 0 0.833333 0 0 0 0 0.833333 0 0 0 0 0.833333 0 0 0 1 0"/><feBlend in2="effect1_innerShadow" result="effect2_innerShadow"/></filter><filter id="filter12_d" width="13.404" height="3.38" x="87.189" y="77.648" color-interpolation-filters="sRGB" filterUnits="userSpaceOnUse"><feFlood flood-opacity="0" result="BackgroundImageFix"/><feColorMatrix in="SourceAlpha" values="0 0 0 0 0 0 0 0 0 0 0 0 0 0 0 0 0 0 127 0"/><feOffset dy=".773"/><feGaussianBlur stdDeviation=".386"/><feColorMatrix values="0 0 0 0 0 0 0 0 0 0 0 0 0 0 0 0 0 0 0.25 0"/><feBlend in2="BackgroundImageFix" result="effect1_dropShadow"/><feBlend in="SourceGraphic" in2="effect1_dropShadow" result="shape"/></filter><filter id="filter13_ii" width="11.936" height="2.221" x="87.884" y="77.493" color-interpolation-filters="sRGB" filterUnits="userSpaceOnUse"><feFlood flood-opacity="0" result="BackgroundImageFix"/><feBlend in="SourceGraphic" in2="BackgroundImageFix" result="shape"/><feColorMatrix in="SourceAlpha" result="hardAlpha" values="0 0 0 0 0 0 0 0 0 0 0 0 0 0 0 0 0 0 127 0"/><feOffset dy=".386"/><feGaussianBlur stdDeviation=".116"/><feComposite in2="hardAlpha" k2="-1" k3="1" operator="arithmetic"/><feColorMatrix values="0 0 0 0 1 0 0 0 0 1 0 0 0 0 1 0 0 0 1 0"/><feBlend in2="shape" result="effect1_innerShadow"/><feColorMatrix in="SourceAlpha" result="hardAlpha" values="0 0 0 0 0 0 0 0 0 0 0 0 0 0 0 0 0 0 127 0"/><feOffset dx="-.077" dy="-.309"/><feGaussianBlur stdDeviation=".077"/><feComposite in2="hardAlpha" k2="-1" k3="1" operator="arithmetic"/><feColorMatrix values="0 0 0 0 0.833333 0 0 0 0 0.833333 0 0 0 0 0.833333 0 0 0 1 0"/><feBlend in2="effect1_innerShadow" result="effect2_innerShadow"/></filter><filter id="filter14_d" width="42.563" height="25.503" x="61.917" y="75.002" color-interpolation-filters="sRGB" filterUnits="userSpaceOnUse"><feFlood flood-opacity="0" result="BackgroundImageFix"/><feColorMatrix in="SourceAlpha" values="0 0 0 0 0 0 0 0 0 0 0 0 0 0 0 0 0 0 127 0"/><feOffset dy="3.091"/><feGaussianBlur stdDeviation="1.932"/><feColorMatrix values="0 0 0 0 0 0 0 0 0 0 0 0 0 0 0 0 0 0 0.2 0"/><feBlend in2="BackgroundImageFix" result="effect1_dropShadow"/><feBlend in="SourceGraphic" in2="effect1_dropShadow" result="shape"/></filter><filter id="filter15_i" width="34.991" height="18.24" x="65.626" y="75.311" color-interpolation-filters="sRGB" filterUnits="userSpaceOnUse"><feFlood flood-opacity="0" result="BackgroundImageFix"/><feBlend in="SourceGraphic" in2="BackgroundImageFix" result="shape"/><feColorMatrix in="SourceAlpha" result="hardAlpha" values="0 0 0 0 0 0 0 0 0 0 0 0 0 0 0 0 0 0 127 0"/><feOffset dx="-.155" dy="-.464"/><feGaussianBlur stdDeviation=".232"/><feComposite in2="hardAlpha" k2="-1" k3="1" operator="arithmetic"/><feColorMatrix values="0 0 0 0 0.278431 0 0 0 0 0.345098 0 0 0 0 0.403922 0 0 0 1 0"/><feBlend in2="shape" result="effect1_innerShadow"/></filter><filter id="filter16_d" width="16.443" height="3.204" x="75.405" y="81.79" color-interpolation-filters="sRGB" filterUnits="userSpaceOnUse"><feFlood flood-opacity="0" result="BackgroundImageFix"/><feColorMatrix in="SourceAlpha" values="0 0 0 0 0 0 0 0 0 0 0 0 0 0 0 0 0 0 127 0"/><feOffset dy=".773"/><feGaussianBlur stdDeviation=".386"/><feColorMatrix values="0 0 0 0 0 0 0 0 0 0 0 0 0 0 0 0 0 0 0.25 0"/><feBlend in2="BackgroundImageFix" result="effect1_dropShadow"/><feBlend in="SourceGraphic" in2="effect1_dropShadow" result="shape"/></filter><filter id="filter17_ii" width="14.975" height="2.045" x="76.1" y="81.635" color-interpolation-filters="sRGB" filterUnits="userSpaceOnUse"><feFlood flood-opacity="0" result="BackgroundImageFix"/><feBlend in="SourceGraphic" in2="BackgroundImageFix" result="shape"/><feColorMatrix in="SourceAlpha" result="hardAlpha" values="0 0 0 0 0 0 0 0 0 0 0 0 0 0 0 0 0 0 127 0"/><feOffset dy=".386"/><feGaussianBlur stdDeviation=".116"/><feComposite in2="hardAlpha" k2="-1" k3="1" operator="arithmetic"/><feColorMatrix values="0 0 0 0 1 0 0 0 0 1 0 0 0 0 1 0 0 0 1 0"/><feBlend in2="shape" result="effect1_innerShadow"/><feColorMatrix in="SourceAlpha" result="hardAlpha" values="0 0 0 0 0 0 0 0 0 0 0 0 0 0 0 0 0 0 127 0"/><feOffset dx="-.077" dy="-.309"/><feGaussianBlur stdDeviation=".077"/><feComposite in2="hardAlpha" k2="-1" k3="1" operator="arithmetic"/><feColorMatrix values="0 0 0 0 0.833333 0 0 0 0 0.833333 0 0 0 0 0.833333 0 0 0 1 0"/><feBlend in2="effect1_innerShadow" result="effect2_innerShadow"/></filter><filter id="filter18_d" width="12.27" height="3.204" x="77.676" y="86.271" color-interpolation-filters="sRGB" filterUnits="userSpaceOnUse"><feFlood flood-opacity="0" result="BackgroundImageFix"/><feColorMatrix in="SourceAlpha" values="0 0 0 0 0 0 0 0 0 0 0 0 0 0 0 0 0 0 127 0"/><feOffset dy=".773"/><feGaussianBlur stdDeviation=".386"/><feColorMatrix values="0 0 0 0 0 0 0 0 0 0 0 0 0 0 0 0 0 0 0.25 0"/><feBlend in2="BackgroundImageFix" result="effect1_dropShadow"/><feBlend in="SourceGraphic" in2="effect1_dropShadow" result="shape"/></filter><filter id="filter19_ii" width="10.802" height="2.045" x="78.371" y="86.117" color-interpolation-filters="sRGB" filterUnits="userSpaceOnUse"><feFlood flood-opacity="0" result="BackgroundImageFix"/><feBlend in="SourceGraphic" in2="BackgroundImageFix" result="shape"/><feColorMatrix in="SourceAlpha" result="hardAlpha" values="0 0 0 0 0 0 0 0 0 0 0 0 0 0 0 0 0 0 127 0"/><feOffset dy=".386"/><feGaussianBlur stdDeviation=".116"/><feComposite in2="hardAlpha" k2="-1" k3="1" operator="arithmetic"/><feColorMatrix values="0 0 0 0 1 0 0 0 0 1 0 0 0 0 1 0 0 0 1 0"/><feBlend in2="shape" result="effect1_innerShadow"/><feColorMatrix in="SourceAlpha" result="hardAlpha" values="0 0 0 0 0 0 0 0 0 0 0 0 0 0 0 0 0 0 127 0"/><feOffset dx="-.077" dy="-.309"/><feGaussianBlur stdDeviation=".077"/><feComposite in2="hardAlpha" k2="-1" k3="1" operator="arithmetic"/><feColorMatrix values="0 0 0 0 0.833333 0 0 0 0 0.833333 0 0 0 0 0.833333 0 0 0 1 0"/><feBlend in2="effect1_innerShadow" result="effect2_innerShadow"/></filter><filter id="filter20_d" width="30.404" height="2.553" x="68.921" y="105.225" color-interpolation-filters="sRGB" filterUnits="userSpaceOnUse"><feFlood flood-opacity="0" result="BackgroundImageFix"/><feColorMatrix in="SourceAlpha" values="0 0 0 0 0 0 0 0 0 0 0 0 0 0 0 0 0 0 127 0"/><feOffset dy=".077"/><feGaussianBlur stdDeviation=".155"/><feColorMatrix values="0 0 0 0 0 0 0 0 0 0 0 0 0 0 0 0 0 0 0.48 0"/><feBlend in2="BackgroundImageFix" result="effect1_dropShadow"/><feBlend in="SourceGraphic" in2="effect1_dropShadow" result="shape"/></filter><filter id="filter0_f" width="156.224" height="4.054" x="8.378" y="141.805" color-interpolation-filters="sRGB" filterUnits="userSpaceOnUse"><feFlood flood-opacity="0" result="BackgroundImageFix"/><feBlend in="SourceGraphic" in2="BackgroundImageFix" result="shape"/><feGaussianBlur result="effect1_foregroundBlur" stdDeviation=".811"/></filter><filter id="filter22_d" width="49.914" height="2.553" x="59.133" y="99.42" color-interpolation-filters="sRGB" filterUnits="userSpaceOnUse"><feFlood flood-opacity="0" result="BackgroundImageFix"/><feColorMatrix in="SourceAlpha" values="0 0 0 0 0 0 0 0 0 0 0 0 0 0 0 0 0 0 127 0"/><feOffset dy=".077"/><feGaussianBlur stdDeviation=".155"/><feColorMatrix values="0 0 0 0 0 0 0 0 0 0 0 0 0 0 0 0 0 0 0.48 0"/><feBlend in2="BackgroundImageFix" result="effect1_dropShadow"/><feBlend in="SourceGraphic" in2="effect1_dropShadow" result="shape"/></filter><filter id="filter23_dii" width="51.632" height="4.346" x="58.22" y="98.787" color-interpolation-filters="sRGB" filterUnits="userSpaceOnUse"><feFlood flood-opacity="0" result="BackgroundImageFix"/><feColorMatrix in="SourceAlpha" values="0 0 0 0 0 0 0 0 0 0 0 0 0 0 0 0 0 0 127 0"/><feOffset dy=".773"/><feGaussianBlur stdDeviation=".386"/><feColorMatrix values="0 0 0 0 0 0 0 0 0 0 0 0 0 0 0 0 0 0 0.07 0"/><feBlend in2="BackgroundImageFix" result="effect1_dropShadow"/><feBlend in="SourceGraphic" in2="effect1_dropShadow" result="shape"/><feColorMatrix in="SourceAlpha" result="hardAlpha" values="0 0 0 0 0 0 0 0 0 0 0 0 0 0 0 0 0 0 127 0"/><feOffset dx=".773" dy=".85"/><feGaussianBlur stdDeviation=".464"/><feComposite in2="hardAlpha" k2="-1" k3="1" operator="arithmetic"/><feColorMatrix values="0 0 0 0 1 0 0 0 0 1 0 0 0 0 1 0 0 0 1 0"/><feBlend in2="shape" result="effect2_innerShadow"/><feColorMatrix in="SourceAlpha" result="hardAlpha" values="0 0 0 0 0 0 0 0 0 0 0 0 0 0 0 0 0 0 127 0"/><feOffset dx="-.85" dy="-.464"/><feGaussianBlur stdDeviation=".386"/><feComposite in2="hardAlpha" k2="-1" k3="1" operator="arithmetic"/><feColorMatrix values="0 0 0 0 0.833333 0 0 0 0 0.833333 0 0 0 0 0.833333 0 0 0 1 0"/><feBlend in2="effect2_innerShadow" result="effect3_innerShadow"/></filter><filter id="filter24_ii" width="42.15" height="3.553" x="65.152" y="140.027" color-interpolation-filters="sRGB" filterUnits="userSpaceOnUse"><feFlood flood-opacity="0" result="BackgroundImageFix"/><feBlend in="SourceGraphic" in2="BackgroundImageFix" result="shape"/><feColorMatrix in="SourceAlpha" result="hardAlpha" values="0 0 0 0 0 0 0 0 0 0 0 0 0 0 0 0 0 0 127 0"/><feOffset dx=".773" dy=".85"/><feGaussianBlur stdDeviation=".077"/><feComposite in2="hardAlpha" k2="-1" k3="1" operator="arithmetic"/><feColorMatrix values="0 0 0 0 0.958333 0 0 0 0 0.958333 0 0 0 0 0.958333 0 0 0 1 0"/><feBlend in2="shape" result="effect1_innerShadow"/><feColorMatrix in="SourceAlpha" result="hardAlpha" values="0 0 0 0 0 0 0 0 0 0 0 0 0 0 0 0 0 0 127 0"/><feOffset dx="-.773" dy="-.464"/><feGaussianBlur stdDeviation=".077"/><feComposite in2="hardAlpha" k2="-1" k3="1" operator="arithmetic"/><feColorMatrix values="0 0 0 0 0.833333 0 0 0 0 0.833333 0 0 0 0 0.833333 0 0 0 1 0"/><feBlend in2="effect1_innerShadow" result="effect2_innerShadow"/></filter><filter id="filter25_i" width="21.313" height="31.145" x="158.65" y="94.222" color-interpolation-filters="sRGB" filterUnits="userSpaceOnUse"><feFlood flood-opacity="0" result="BackgroundImageFix"/><feBlend in="SourceGraphic" in2="BackgroundImageFix" result="shape"/><feColorMatrix in="SourceAlpha" result="hardAlpha" values="0 0 0 0 0 0 0 0 0 0 0 0 0 0 0 0 0 0 127 0"/><feOffset dx="1.127" dy="-.431"/><feGaussianBlur stdDeviation="1.469"/><feComposite in2="hardAlpha" k2="-1" k3="1" operator="arithmetic"/><feColorMatrix values="0 0 0 0 0.113056 0 0 0 0 0.616667 0 0 0 0 0.58645 0 0 0 1 0"/><feBlend in2="shape" result="effect1_innerShadow"/></filter><filter id="filter26_i" width="25.076" height="24.846" x="143.8" y="100.985" color-interpolation-filters="sRGB" filterUnits="userSpaceOnUse"><feFlood flood-opacity="0" result="BackgroundImageFix"/><feBlend in="SourceGraphic" in2="BackgroundImageFix" result="shape"/><feColorMatrix in="SourceAlpha" result="hardAlpha" values="0 0 0 0 0 0 0 0 0 0 0 0 0 0 0 0 0 0 127 0"/><feOffset dx="1.127" dy="-.431"/><feGaussianBlur stdDeviation="1.469"/><feComposite in2="hardAlpha" k2="-1" k3="1" operator="arithmetic"/><feColorMatrix values="0 0 0 0 0.0996528 0 0 0 0 0.683333 0 0 0 0 0.555806 0 0 0 1 0"/><feBlend in2="shape" result="effect1_innerShadow"/></filter><filter id="filter27_i" width="23.1" height="5.924" x="149.967" y="119.659" color-interpolation-filters="sRGB" filterUnits="userSpaceOnUse"><feFlood flood-opacity="0" result="BackgroundImageFix"/><feBlend in="SourceGraphic" in2="BackgroundImageFix" result="shape"/><feColorMatrix in="SourceAlpha" result="hardAlpha" values="0 0 0 0 0 0 0 0 0 0 0 0 0 0 0 0 0 0 127 0"/><feOffset dx=".47" dy="-.353"/><feGaussianBlur stdDeviation=".411"/><feComposite in2="hardAlpha" k2="-1" k3="1" operator="arithmetic"/><feColorMatrix values="0 0 0 0 0.833333 0 0 0 0 0.604343 0 0 0 0 0.0555555 0 0 0 1 0"/><feBlend in2="shape" result="effect1_innerShadow"/></filter><linearGradient id="paint1_linear" x1="91.535" x2="91.535" y1="0" y2="158.721" gradientUnits="userSpaceOnUse"><stop stop-color="#B5EFFF"/><stop offset="1" stop-color="#EDFBFF"/></linearGradient><linearGradient id="paint7_linear" x1="39.088" x2="39.251" y1="47.626" y2="55.615" gradientUnits="userSpaceOnUse"><stop stop-color="#F1F1F1"/><stop offset="1" stop-color="#F8F8F8"/></linearGradient><linearGradient id="paint13_linear" x1="171.835" x2="152.235" y1="135.228" y2="135.228" gradientUnits="userSpaceOnUse"><stop offset=".099" stop-color="#FFEEC5"/><stop offset=".607" stop-color="#FACD63"/><stop offset=".839" stop-color="#EAAF23"/><stop offset=".984" stop-color="#EDB52F"/></linearGradient><linearGradient id="paint12_linear" x1="171.538" x2="158.576" y1="104.69" y2="126.519" gradientUnits="userSpaceOnUse"><stop stop-color="#B7FDEF"/><stop offset=".682" stop-color="#09B794"/><stop offset=".969" stop-color="#7EE0CC"/></linearGradient><linearGradient id="paint11_linear" x1="181.02" x2="159.706" y1="97.262" y2="116.403" gradientUnits="userSpaceOnUse"><stop stop-color="#BAFFF1" stop-opacity=".26"/><stop offset=".682" stop-color="#4DC7AE"/><stop offset=".969" stop-color="#06896F"/></linearGradient><linearGradient id="paint10_linear" x1="63.163" x2="63.206" y1="99.25" y2="101.922" gradientUnits="userSpaceOnUse"><stop stop-color="#fff"/><stop offset=".271" stop-color="#fff"/><stop offset="1" stop-color="#B8B8B8"/></linearGradient><linearGradient id="paint6_linear" x1="86.281" x2="86.281" y1="123.019" y2="139.819" gradientUnits="userSpaceOnUse"><stop stop-color="#8B8B8B"/><stop offset="1" stop-color="#fff" stop-opacity="0"/></linearGradient><linearGradient id="paint0_linear" x1="92.545" x2="92.545" y1="0" y2="159.654" gradientUnits="userSpaceOnUse"><stop stop-color="#B5EFFF"/><stop offset="1" stop-color="#E7F8FE"/></linearGradient><linearGradient id="paint8_linear" x1="38.922" x2="48.368" y1="61.434" y2="120.972" gradientUnits="userSpaceOnUse"><stop stop-color="#F1F1F1"/><stop offset="1" stop-color="#F8F8F8"/></linearGradient><linearGradient id="paint9_linear" x1="71.477" x2="71.548" y1="105.055" y2="107.725" gradientUnits="userSpaceOnUse"><stop stop-color="#fff"/><stop offset=".271" stop-color="#fff"/><stop offset="1" stop-color="#B8B8B8"/></linearGradient><linearGradient id="paint14_linear" x1="172.597" x2="151.582" y1="123.679" y2="123.679" gradientUnits="userSpaceOnUse"><stop offset=".099" stop-color="#FFEEC5"/><stop offset=".607" stop-color="#FCBD27"/><stop offset=".984" stop-color="#EFB222"/></linearGradient><radialGradient id="paint5_radial" cx="0" cy="0" r="1" gradientTransform="rotate(121.889 66.524 45.042) scale(3.24885 2.95873)" gradientUnits="userSpaceOnUse"><stop stop-color="#fff"/><stop offset=".694" stop-color="#fff" stop-opacity="0"/></radialGradient><radialGradient id="paint4_radial" cx="0" cy="0" r="1" gradientTransform="rotate(-15.177 115.977 -515.41) scale(14.8345)" gradientUnits="userSpaceOnUse"><stop stop-color="#E6C6FF"/><stop offset=".188" stop-color="#C07DF5"/><stop offset=".318" stop-color="#BE6FFC"/><stop offset=".49" stop-color="#B56AF0"/><stop offset=".651" stop-color="#A745F4"/><stop offset=".948" stop-color="#9F3DED"/></radialGradient><radialGradient id="paint3_radial" cx="0" cy="0" r="1" gradientTransform="matrix(-2.2486 3.61408 -3.29135 -2.0478 6.561 126.902)" gradientUnits="userSpaceOnUse"><stop stop-color="#fff"/><stop offset=".694" stop-color="#fff" stop-opacity="0"/></radialGradient><radialGradient id="paint2_radial" cx="0" cy="0" r="1" gradientTransform="rotate(-15.177 479.11 43.418) scale(19.4355)" gradientUnits="userSpaceOnUse"><stop stop-color="#FFF1CF"/><stop offset=".188" stop-color="#FFE4A2"/><stop offset=".318" stop-color="#FFD364"/><stop offset=".49" stop-color="#FFD364"/><stop offset=".651" stop-color="#FFC73A"/><stop offset=".948" stop-color="#D09500"/></radialGradient></defs></svg>