<svg xmlns="http://www.w3.org/2000/svg" width="79" height="71" fill="none" viewBox="0 0 79 71"><path fill="#fff" d="M0 0h79v70H0z"/><mask id="fs-260hybgmga" style="mask-type:alpha" width="70" height="71" x="5" y="0" maskUnits="userSpaceOnUse"><path fill="url(#paint0_linear_8383_374131)" d="M39.713 70.27c19.126 0 34.63-15.73 34.63-35.135C74.343 15.731 58.838 0 39.713 0 20.587 0 5.083 15.73 5.083 35.135c0 19.404 15.504 35.135 34.63 35.135z"/></mask><g mask="url(#fs-260hybgmga)"><path fill="url(#paint1_linear_8383_374131)" fill-opacity=".5" d="M39.276 69.86c19.123 0 34.625-15.64 34.625-34.93C73.901 15.639 58.4 0 39.276 0 20.153 0 4.65 15.639 4.65 34.93c0 19.29 15.503 34.93 34.626 34.93z"/><path fill="#fff" d="M52.025 18.776a3.214 3.214 0 00-3.214 3.214v85.518h87.456V18.776H52.025zm83.985 5.516h-5.223v-5.299h5.223v5.3zM92.646 57.474v-5.298h5.222v5.298h-5.222zm5.222.26v5.3h-5.222v-5.3h5.222zm-5.436-.26h-5.223v-5.298h5.223v5.298zm0 .26v5.3h-5.223v-5.3h5.223zm-5.48 5.3H81.73v-5.3h5.222v5.3zm0 .217v5.298H81.73v-5.298h5.222zm.257 0h5.223v5.298h-5.223v-5.298zm5.223 5.516v5.298h-5.223v-5.298h5.223zm.214 0h5.222v5.298h-5.222v-5.298zm0-.218v-5.298h5.222v5.298h-5.222zm5.436-5.298h5.223v5.298h-5.223v-5.298zm0-.217v-5.3h5.223v5.3h-5.223zm0-5.56v-5.298h5.223v5.298h-5.223zm0-5.515v-5.3h5.223v5.3h-5.223zm-.214 0h-5.222v-5.3h5.222v5.3zm-5.436 0h-5.223v-5.3h5.223v5.3zm-5.48 0H81.73v-5.3h5.222v5.3zm0 .217v5.298H81.73v-5.298h5.222zm-5.436 5.298h-5.223v-5.298h5.223v5.298zm0 .26v5.3h-5.223v-5.3h5.223zm0 5.517v5.298h-5.223v-5.298h5.223zm0 5.516v5.298h-5.223v-5.298h5.223zm.214 0h5.222v5.298H81.73v-5.298zm5.222 5.559v5.299H81.73v-5.299h5.222zm.257 0h5.223v5.299h-5.223v-5.299zm5.437 0h5.222v5.299h-5.222v-5.299zm5.436 0h5.223v5.299h-5.223v-5.299zm0-.26v-5.3h5.223v5.3h-5.223zm5.48-5.3h5.222v5.3h-5.222v-5.3zm0-.217v-5.298h5.222v5.298h-5.222zm0-5.515v-5.3h5.222v5.3h-5.222zm0-5.56v-5.298h5.222v5.298h-5.222zm0-5.515v-5.3h5.222v5.3h-5.222zm0-5.516v-5.3h5.222v5.3h-5.222zm-.257 0h-5.223v-5.3h5.223v5.3zm-5.437 0h-5.222v-5.3h5.222v5.3zm-5.436 0h-5.223v-5.3h5.223v5.3zm-5.48 0H81.73v-5.3h5.222v5.3zm-5.436 0h-5.223v-5.3h5.223v5.3zm0 .217v5.299h-5.223v-5.3h5.223zm-5.437 5.299h-5.222v-5.3h5.222v5.3zm0 .217v5.298h-5.222v-5.298h5.222zm0 5.559v5.299h-5.222v-5.3h5.222zm0 5.516v5.298h-5.222v-5.298h5.222zm0 5.516v5.298h-5.222v-5.298h5.222zm0 5.559v5.299h-5.222v-5.299h5.222zm.214 0h5.223v5.299h-5.223v-5.299zm5.223 5.516v5.299h-5.223v-5.3h5.223zm.214 0h5.222v5.299H81.73v-5.3zm5.48 0h5.222v5.299h-5.223v-5.3zm5.436 0h5.222v5.299h-5.222v-5.3zm5.436 0h5.223v5.299h-5.223v-5.3zm5.48 0h5.222v5.299h-5.222v-5.3zm0-.217v-5.299h5.222v5.299h-5.222zm5.436-5.299h5.223v5.299h-5.223v-5.299zm0-.26v-5.3h5.223v5.3h-5.223zm0-5.517v-5.298h5.223v5.298h-5.223zm0-5.515v-5.3h5.223v5.3h-5.223zm0-5.56v-5.298h5.223v5.298h-5.223zm0-5.515v-5.3h5.223v5.3h-5.223zm0-5.516v-5.3h5.223v5.3h-5.223zm0-5.56v-5.298h5.223v5.298h-5.223zm-.214 0h-5.222v-5.298h5.222v5.298zm-5.479 0h-5.223v-5.298h5.223v5.298zm-5.437 0h-5.222v-5.298h5.222v5.298zm-5.436 0h-5.223v-5.298h5.223v5.298zm-5.48 0H81.73v-5.298h5.222v5.298zm-5.436 0h-5.223v-5.298h5.223v5.298zm-5.437 0h-5.222v-5.298h5.222v5.298zm0 .26v5.3h-5.222v-5.3h5.222zm-5.48 5.3h-5.222v-5.3H70.6v5.3zm0 .217v5.299h-5.222v-5.3H70.6zm0 5.516v5.298h-5.222v-5.298H70.6zm0 5.559v5.299h-5.222v-5.3H70.6zm0 5.516v5.298h-5.222v-5.298H70.6zm0 5.516v5.298h-5.222v-5.298H70.6zm0 5.559v5.299h-5.222v-5.299H70.6zm0 5.516v5.299h-5.222v-5.3H70.6zm.258 0h5.222v5.299h-5.222v-5.3zm5.222 5.516v5.298h-5.222v-5.298h5.222zm.214 0h5.223v5.298h-5.223v-5.298zm5.437 0h5.222v5.298H81.73v-5.298zm5.48 0h5.222v5.298h-5.223v-5.298zm5.436 0h5.222v5.298h-5.222v-5.298zm5.436 0h5.223v5.298h-5.223v-5.298zm5.48 0h5.222v5.298h-5.222v-5.298zm5.436 0h5.223v5.298h-5.223v-5.298zm0-.217v-5.3h5.223v5.3h-5.223zm5.437-5.3h5.222v5.3h-5.222v-5.3zm0-.216v-5.299h5.222v5.299h-5.222zm0-5.56v-5.298h5.222v5.298h-5.222zm0-5.516v-5.298h5.222v5.298h-5.222zm0-5.515v-5.3h5.222v5.3h-5.222zm0-5.56v-5.298h5.222v5.298h-5.222zm0-5.515v-5.3h5.222v5.3h-5.222zm0-5.516v-5.3h5.222v5.3h-5.222zm0-5.56v-5.298h5.222v5.298h-5.222zm0-5.516V30.07h5.222v5.298h-5.222zm-.214 0h-5.223V30.07h5.223v5.298zm-5.437 0h-5.222V30.07h5.222v5.298zm-5.479 0h-5.223V30.07h5.223v5.298zm-5.437 0h-5.222V30.07h5.222v5.298zm-5.436 0h-5.223V30.07h5.223v5.298zm-5.48 0H81.73V30.07h5.222v5.298zm-5.436 0h-5.223V30.07h5.223v5.298zm-5.437 0h-5.222V30.07h5.222v5.298zm-5.48 0h-5.222V30.07H70.6v5.298zm0 .218v5.298h-5.222v-5.298H70.6zm-5.436 5.298h-5.222v-5.298h5.222v5.298zm0 .26v5.3h-5.222v-5.3h5.222zm0 5.517v5.299h-5.222v-5.3h5.222zm0 5.516v5.298h-5.222v-5.298h5.222zm0 5.559v5.299h-5.222v-5.3h5.222zm0 5.516v5.298h-5.222v-5.298h5.222zm0 5.516v5.298h-5.222v-5.298h5.222zm0 5.559v5.299h-5.222v-5.299h5.222zm0 5.516v5.299h-5.222v-5.3h5.222zm0 5.516v5.298h-5.222v-5.298h5.222zm.214 0H70.6v5.298h-5.223v-5.298zm5.223 5.56v5.298h-5.223v-5.299H70.6zm.257 0h5.222v5.298h-5.222v-5.299zm5.436 0h5.223v5.298h-5.223v-5.299zm5.437 0h5.222v5.298H81.73v-5.299zm5.48 0h5.222v5.298h-5.223v-5.299zm5.436 0h5.222v5.298h-5.222v-5.299zm5.436 0h5.223v5.298h-5.223v-5.299zm5.48 0h5.222v5.298h-5.222v-5.299zm5.436 0h5.223v5.298h-5.223v-5.299zm5.437 0h5.222v5.298h-5.222v-5.299zm0-.262v-5.298h5.222v5.298h-5.222zm5.479-5.298h5.223v5.298h-5.223v-5.298zm0-.217v-5.3h5.223v5.3h-5.223zm0-5.516v-5.299h5.223v5.299h-5.223zm0-5.56v-5.298h5.223v5.298h-5.223zm0-5.516v-5.298h5.223v5.298h-5.223zm0-5.515v-5.3h5.223v5.3h-5.223zm0-5.56v-5.298h5.223v5.298h-5.223zm0-5.515v-5.3h5.223v5.3h-5.223zm0-5.516v-5.3h5.223v5.3h-5.223zm0-5.56v-5.298h5.223v5.298h-5.223zm0-5.516V30.07h5.223v5.298h-5.223zm0-5.515v-5.3h5.223v5.3h-5.223zm-.257 0h-5.222v-5.3h5.222v5.3zm-5.436 0h-5.223v-5.3h5.223v5.3zm-5.437 0h-5.222v-5.3h5.222v5.3zm-5.479 0h-5.223v-5.3h5.223v5.3zm-5.437 0h-5.222v-5.3h5.222v5.3zm-5.436 0h-5.223v-5.3h5.223v5.3zm-5.48 0H81.73v-5.3h5.222v5.3zm-5.436 0h-5.223v-5.3h5.223v5.3zm-5.437 0h-5.222v-5.3h5.222v5.3zm-5.48 0h-5.222v-5.3H70.6v5.3zm-5.436 0h-5.222v-5.3h5.222v5.3zm0 .217v5.298h-5.222V30.07h5.222zm-5.436 5.298h-5.223V30.07h5.223v5.298zm0 .218v5.298h-5.223v-5.298h5.223zm0 5.559v5.299h-5.223v-5.3h5.223zm0 5.516v5.299h-5.223v-5.3h5.223zm0 5.516v5.298h-5.223v-5.298h5.223zm0 5.559v5.299h-5.223v-5.3h5.223zm0 5.516v5.298h-5.223v-5.298h5.223zm0 5.516v5.298h-5.223v-5.298h5.223zm0 5.559v5.299h-5.223v-5.299h5.223zm0 5.516v5.299h-5.223v-5.3h5.223zm0 5.516v5.298h-5.223v-5.298h5.223zm0 5.56v5.298h-5.223v-5.299h5.223zm.214 0h5.222v5.298h-5.222v-5.299zm5.222 5.515v5.299h-5.222v-5.3h5.222zm.214 0H70.6v5.299h-5.223v-5.3zm5.48 0h5.222v5.299h-5.222v-5.3zm5.436 0h5.223v5.299h-5.223v-5.3zm5.437 0h5.222v5.299H81.73v-5.3zm5.48 0h5.222v5.299h-5.223v-5.3zm5.436 0h5.222v5.299h-5.222v-5.3zm5.436 0h5.223v5.299h-5.223v-5.3zm5.48 0h5.222v5.299h-5.222v-5.3zm5.436 0h5.223v5.299h-5.223v-5.3zm5.437 0h5.222v5.299h-5.222v-5.3zm5.479 0h5.223v5.299h-5.223v-5.3zm0-.217v-5.299h5.223v5.299h-5.223zm5.437-5.299h5.222v5.299h-5.222v-5.299zm0-.26v-5.3h5.222v5.3h-5.222zm0-5.516v-5.3h5.222v5.3h-5.222zm0-5.516v-5.299h5.222v5.299h-5.222zm0-5.56v-5.298h5.222v5.298h-5.222zm0-5.516v-5.298h5.222v5.298h-5.222zm0-5.515v-5.3h5.222v5.3h-5.222zm0-5.56v-5.298h5.222v5.298h-5.222zm0-5.515v-5.3h5.222v5.3h-5.222zm0-5.516v-5.3h5.222v5.3h-5.222zm0-5.56v-5.298h5.222v5.298h-5.222zm0-5.516V30.07h5.222v5.298h-5.222zm0-5.515v-5.3h5.222v5.3h-5.222zm0-5.56v-5.299h5.222v5.3h-5.222zm-.214 0h-5.223v-5.299h5.223v5.3zm-5.48 0h-5.222v-5.299h5.222v5.3zm-5.436 0h-5.223v-5.299h5.223v5.3zm-5.437 0h-5.222v-5.299h5.222v5.3zm-5.479 0h-5.223v-5.299h5.223v5.3zm-5.437 0h-5.222v-5.299h5.222v5.3zm-5.436 0h-5.223v-5.299h5.223v5.3zm-5.48 0H81.73v-5.299h5.222v5.3zm-5.436 0h-5.223v-5.299h5.223v5.3zm-5.437 0h-5.222v-5.299h5.222v5.3zm-5.48 0h-5.222v-5.299H70.6v5.3zm-5.436 0h-5.222v-5.299h5.222v5.3zm-5.436 0h-5.223v-5.299h5.223v5.3zm0 .26v5.3h-5.223v-5.3h5.223zm-5.48 5.3h-5.222v-5.3h5.222v5.3zm0 .217v5.298h-5.222V30.07h5.222zm0 5.516v5.298h-5.222v-5.298h5.222zm0 5.559v5.299h-5.222v-5.3h5.222zm0 5.516v5.299h-5.222v-5.3h5.222zm0 5.516v5.298h-5.222v-5.298h5.222zm0 5.559v5.299h-5.222v-5.3h5.222zm0 5.516v5.298h-5.222v-5.298h5.222zm0 5.516v5.298h-5.222v-5.298h5.222zm0 5.559v5.299h-5.222v-5.299h5.222zm0 5.516v5.299h-5.222v-5.3h5.222zm0 5.516v5.298h-5.222v-5.298h5.222zm0 5.56v5.298h-5.222v-5.299h5.222zm0 5.515v5.299h-5.222v-5.3h5.222zm.257 0h5.223v5.299h-5.223v-5.3zm5.223 5.516v5.299h-5.223v-5.299h5.223zm.214 0h5.222v5.299h-5.222v-5.299zm5.436 0H70.6v5.299h-5.223v-5.299zm5.48 0h5.222v5.299h-5.222v-5.299zm5.436 0h5.223v5.299h-5.223v-5.299zm5.437 0h5.222v5.299H81.73v-5.299zm5.48 0h5.222v5.299h-5.223v-5.299zm5.436 0h5.222v5.299h-5.222v-5.299zm5.436 0h5.223v5.299h-5.223v-5.299zm5.48 0h5.222v5.299h-5.222v-5.299zm5.436 0h5.223v5.299h-5.223v-5.299zm5.437 0h5.222v5.299h-5.222v-5.299zm5.479 0h5.223v5.299h-5.223v-5.299zm5.437 0h5.222v5.299h-5.222v-5.299zm0-.217v-5.3h5.222v5.3h-5.222zm5.436-5.3h5.223v5.3h-5.223v-5.3zm0-.216v-5.299h5.223v5.299h-5.223zm0-5.56v-5.298h5.223v5.298h-5.223zm0-5.515v-5.3h5.223v5.3h-5.223zm0-5.516v-5.299h5.223v5.299h-5.223zm0-5.56v-5.298h5.223v5.298h-5.223zm0-5.516v-5.298h5.223v5.298h-5.223zm0-5.515v-5.3h5.223v5.3h-5.223zm0-5.56v-5.298h5.223v5.298h-5.223zm0-5.515v-5.3h5.223v5.3h-5.223zm0-5.516v-5.3h5.223v5.3h-5.223zm0-5.56v-5.298h5.223v5.298h-5.223zm0-5.516V30.07h5.223v5.298h-5.223zm0-5.515v-5.3h5.223v5.3h-5.223zm-76.54-10.858v5.298h-5.222v-2.085a3.214 3.214 0 013.214-3.213h2.008zm-5.222 82.955h5.222v5.299h-5.222v-5.299zm81.762 5.299v-5.299h5.223v5.299h-5.223z"/></g><path fill="url(#paint2_radial_8383_374131)" d="M4.421 48.968c2.442 0 4.422-2.009 4.422-4.486 0-2.478-1.98-4.486-4.422-4.486C1.98 39.996 0 42.004 0 44.482c0 2.477 1.98 4.486 4.421 4.486z"/><path fill="url(#paint3_radial_8383_374131)" d="M1.863 44.263c-.8-.5-1.001-1.641-.447-2.532.54-.891 1.633-1.22 2.434-.72.802.5 1.002 1.642.447 2.533-.554.906-1.648 1.219-2.434.719z" opacity=".5"/><path fill="url(#paint4_radial_8383_374131)" d="M72.546 23.933c1.864 0 3.375-1.533 3.375-3.424s-1.511-3.424-3.375-3.424-3.374 1.533-3.374 3.424c0 1.89 1.51 3.424 3.374 3.424z"/><path fill="url(#paint5_radial_8383_374131)" d="M70.595 20.342c-.611-.382-.764-1.253-.34-1.933.41-.68 1.246-.93 1.857-.549.612.382.764 1.253.341 1.933-.423.692-1.258.93-1.858.549z" opacity=".5"/><path fill="#DADFE3" stroke="#363D42" stroke-linecap="round" stroke-linejoin="round" stroke-width=".875" d="M51.734 31.92a4.125 4.125 0 100-8.25 4.125 4.125 0 000 8.25z"/><path stroke="#363D42" stroke-linecap="round" stroke-linejoin="round" stroke-width=".875" d="M51.734 17.654v2.063M51.734 36.045v2.062M41.594 27.795h2.062M59.813 27.795h2.062M44.516 20.748l1.375 1.375M57.406 33.639l1.375 1.375M57.406 22.123l1.375-1.375"/><path fill="#448EE1" fill-opacity=".3" stroke="#448EE1" stroke-linecap="round" stroke-linejoin="round" stroke-width=".875" d="M30.766 44.639a8.937 8.937 0 100-17.875 8.937 8.937 0 000 17.875z"/><path fill="#448EE1" fill-opacity=".3" d="M46.234 64.404V60.28c0-4.125-1.547-8.078-4.468-11-2.922-2.922-6.875-4.469-11-4.469s-8.078 1.547-11 4.47c-2.922 2.921-4.47 6.874-4.47 11v4.124"/><path stroke="#448EE1" stroke-linecap="round" stroke-linejoin="round" stroke-width=".875" d="M46.234 64.404V60.28c0-4.125-1.547-8.078-4.468-11-2.922-2.922-6.875-4.469-11-4.469s-8.078 1.547-11 4.47c-2.922 2.921-4.47 6.874-4.47 11v4.124"/><g filter="url(#filter0_i_8383_374131)"><path fill="url(#paint6_linear_8383_374131)" d="M70.3 55.354c-.032-.008-.066-.015-.086-.041-.298-.406.66-4.68.752-5.003.473-1.658 1.257-3.272 2.518-4.456.892-.837 3.275-2.477 4.513-1.513 1.042.813.065 2.855-.415 3.709-.862 1.518-2.131 2.748-3.215 4.095-.647.805-1.297 1.626-1.944 2.431-.035.047-.279.396-.501.689-.227.297-.559.362-.922.269l-.7-.18z"/></g><g filter="url(#filter1_i_8383_374131)"><path fill="url(#paint7_linear_8383_374131)" d="M71.7 56.678c.53.115 1-.333.891-.863-.603-2.946-2.616-10.685-6.888-9.278-3.874 1.29 4.448 8.89 5.659 9.97a.734.734 0 00.339.17z"/></g><path fill="#77FFE4" fill-opacity=".2" d="M66.864 48.075s4.987 6.604 5.044 8.001zM76.521 45.644s-4.097 5.304-4.543 7.658z"/><path fill="url(#paint8_linear_8383_374131)" d="M66.678 55.894a1.51 1.51 0 011.504-1.654h5.834c.89 0 1.588.767 1.504 1.654l-.68 7.152a1.51 1.51 0 01-1.504 1.368h-4.474a1.51 1.51 0 01-1.504-1.368l-.68-7.152z"/><g filter="url(#filter2_i_8383_374131)"><rect width="9.817" height="2.452" x="66.19" y="54.24" fill="url(#paint9_linear_8383_374131)" rx=".755"/></g><g filter="url(#filter3_f_8383_374131)"><ellipse cx="39.911" cy="64.882" fill="#000" fill-opacity=".37" rx="36.018" ry=".194"/></g><defs><linearGradient id="paint0_linear_8383_374131" x1="39.713" x2="39.713" y1="0" y2="70.27" gradientUnits="userSpaceOnUse"><stop stop-color="#B5EFFF"/><stop offset="1" stop-color="#E7F8FE"/></linearGradient><linearGradient id="paint1_linear_8383_374131" x1="39.276" x2="39.276" y1="0" y2="69.859" gradientUnits="userSpaceOnUse"><stop stop-color="#B5EFFF"/><stop offset="1" stop-color="#EDFBFF"/></linearGradient><linearGradient id="paint6_linear_8383_374131" x1="79.662" x2="70.297" y1="44.228" y2="52.518" gradientUnits="userSpaceOnUse"><stop stop-color="#BAFFF1" stop-opacity=".26"/><stop offset=".682" stop-color="#4DC7AE"/><stop offset=".969" stop-color="#06896F"/></linearGradient><linearGradient id="paint7_linear_8383_374131" x1="75.548" x2="69.803" y1="47.496" y2="57.032" gradientUnits="userSpaceOnUse"><stop stop-color="#B7FDEF"/><stop offset=".682" stop-color="#09B794"/><stop offset=".969" stop-color="#7EE0CC"/></linearGradient><linearGradient id="paint8_linear_8383_374131" x1="75.677" x2="67.174" y1="60.938" y2="60.938" gradientUnits="userSpaceOnUse"><stop offset=".099" stop-color="#FFEEC5"/><stop offset=".607" stop-color="#FACD63"/><stop offset=".839" stop-color="#EAAF23"/><stop offset=".984" stop-color="#EDB52F"/></linearGradient><linearGradient id="paint9_linear_8383_374131" x1="76.007" x2="66.891" y1="55.855" y2="55.855" gradientUnits="userSpaceOnUse"><stop offset=".099" stop-color="#FFEEC5"/><stop offset=".607" stop-color="#FCBD27"/><stop offset=".984" stop-color="#EFB222"/></linearGradient><radialGradient id="paint2_radial_8383_374131" cx="0" cy="0" r="1" gradientTransform="matrix(8.13725 -2.23957 2.26767 8.23937 2.318 42.67)" gradientUnits="userSpaceOnUse"><stop stop-color="#FFF1CF"/><stop offset=".188" stop-color="#FFE4A2"/><stop offset=".318" stop-color="#FFD364"/><stop offset=".49" stop-color="#FFD364"/><stop offset=".651" stop-color="#FFC73A"/><stop offset=".948" stop-color="#D09500"/></radialGradient><radialGradient id="paint3_radial_8383_374131" cx="0" cy="0" r="1" gradientTransform="matrix(-.97547 1.5907 -1.4393 -.88262 2.845 42.65)" gradientUnits="userSpaceOnUse"><stop stop-color="#fff"/><stop offset=".694" stop-color="#fff" stop-opacity="0"/></radialGradient><radialGradient id="paint4_radial_8383_374131" cx="0" cy="0" r="1" gradientTransform="matrix(6.2109 -1.7094 1.73084 6.28884 70.941 19.126)" gradientUnits="userSpaceOnUse"><stop stop-color="#E6C6FF"/><stop offset=".188" stop-color="#C07DF5"/><stop offset=".318" stop-color="#BE6FFC"/><stop offset=".49" stop-color="#B56AF0"/><stop offset=".651" stop-color="#A745F4"/><stop offset=".948" stop-color="#9F3DED"/></radialGradient><radialGradient id="paint5_radial_8383_374131" cx="0" cy="0" r="1" gradientTransform="matrix(-.74454 1.21413 -1.09856 -.67367 71.345 19.111)" gradientUnits="userSpaceOnUse"><stop stop-color="#fff"/><stop offset=".694" stop-color="#fff" stop-opacity="0"/></radialGradient><filter id="filter0_i_8383_374131" width="9.027" height="11.803" x="70.157" y="43.77" color-interpolation-filters="sRGB" filterUnits="userSpaceOnUse"><feFlood flood-opacity="0" result="BackgroundImageFix"/><feBlend in="SourceGraphic" in2="BackgroundImageFix" result="shape"/><feColorMatrix in="SourceAlpha" result="hardAlpha" values="0 0 0 0 0 0 0 0 0 0 0 0 0 0 0 0 0 0 127 0"/><feOffset dx=".724" dy="-.277"/><feGaussianBlur stdDeviation=".944"/><feComposite in2="hardAlpha" k2="-1" k3="1" operator="arithmetic"/><feColorMatrix values="0 0 0 0 0.113056 0 0 0 0 0.616667 0 0 0 0 0.58645 0 0 0 1 0"/><feBlend in2="shape" result="effect1_innerShadow_8383_374131"/></filter><filter id="filter1_i_8383_374131" width="8.648" height="10.606" x="64.683" y="46.09" color-interpolation-filters="sRGB" filterUnits="userSpaceOnUse"><feFlood flood-opacity="0" result="BackgroundImageFix"/><feBlend in="SourceGraphic" in2="BackgroundImageFix" result="shape"/><feColorMatrix in="SourceAlpha" result="hardAlpha" values="0 0 0 0 0 0 0 0 0 0 0 0 0 0 0 0 0 0 127 0"/><feOffset dx=".724" dy="-.277"/><feGaussianBlur stdDeviation=".944"/><feComposite in2="hardAlpha" k2="-1" k3="1" operator="arithmetic"/><feColorMatrix values="0 0 0 0 0.0996528 0 0 0 0 0.683333 0 0 0 0 0.555806 0 0 0 1 0"/><feBlend in2="shape" result="effect1_innerShadow_8383_374131"/></filter><filter id="filter2_i_8383_374131" width="10.119" height="2.679" x="66.19" y="54.014" color-interpolation-filters="sRGB" filterUnits="userSpaceOnUse"><feFlood flood-opacity="0" result="BackgroundImageFix"/><feBlend in="SourceGraphic" in2="BackgroundImageFix" result="shape"/><feColorMatrix in="SourceAlpha" result="hardAlpha" values="0 0 0 0 0 0 0 0 0 0 0 0 0 0 0 0 0 0 127 0"/><feOffset dx=".302" dy="-.227"/><feGaussianBlur stdDeviation=".264"/><feComposite in2="hardAlpha" k2="-1" k3="1" operator="arithmetic"/><feColorMatrix values="0 0 0 0 0.833333 0 0 0 0 0.604343 0 0 0 0 0.0555555 0 0 0 1 0"/><feBlend in2="shape" result="effect1_innerShadow_8383_374131"/></filter><filter id="filter3_f_8383_374131" width="74.328" height="2.681" x="2.747" y="63.542" color-interpolation-filters="sRGB" filterUnits="userSpaceOnUse"><feFlood flood-opacity="0" result="BackgroundImageFix"/><feBlend in="SourceGraphic" in2="BackgroundImageFix" result="shape"/><feGaussianBlur result="effect1_foregroundBlur_8383_374131" stdDeviation=".573"/></filter></defs></svg>