<svg xmlns="http://www.w3.org/2000/svg" width="180" height="169" fill="none" viewBox="0 0 180 169"><mask id="fs-6adlvul8xa" style="mask-type:alpha" width="170" height="169" x="4" y="0" maskUnits="userSpaceOnUse"><path fill="url(#paint0_linear_11856_9570)" d="M89.275 168.4c46.614 0 84.402-37.608 84.402-84S135.889.4 89.275.4C42.661.4 4.873 38.008 4.873 84.4s37.788 84 84.402 84z"/></mask><g mask="url(#fs-6adlvul8xa)"><path fill="url(#paint1_linear_11856_9570)" d="M88.207 167.418c46.608 0 84.392-37.388 84.392-83.509C172.599 37.79 134.815.4 88.207.4S3.816 37.79 3.816 83.91c0 46.121 37.783 83.509 84.391 83.509z"/><path fill="#fff" d="M115.881 45.29a4.423 4.423 0 00-4.423 4.424v207.715h213.153V45.291h-208.73zm208.104 13.188h-12.729V45.81h12.729v12.668zm-105.69 79.331v-12.668h12.729v12.668h-12.729zm12.729.623V151.1h-12.729v-12.668h12.729zm-13.251-.623h-12.728v-12.668h12.728v12.668zm0 .623V151.1h-12.728v-12.668h12.728zM204.419 151.1H191.69v-12.668h12.729V151.1zm0 .519v12.668H191.69v-12.668h12.729zm.626 0h12.728v12.668h-12.728v-12.668zm12.728 13.187v12.668h-12.728v-12.668h12.728zm.522 0h12.729v12.668h-12.729v-12.668zm0-.519v-12.668h12.729v12.668h-12.729zm13.25-12.668h12.729v12.668h-12.729v-12.668zm0-.519v-12.668h12.729V151.1h-12.729zm0-13.291v-12.668h12.729v12.668h-12.729zm0-13.187v-12.668h12.729v12.668h-12.729zm-.521 0h-12.729v-12.668h12.729v12.668zm-13.251 0h-12.728v-12.668h12.728v12.668zm-13.354 0H191.69v-12.668h12.729v12.668zm0 .519v12.668H191.69v-12.668h12.729zm-13.251 12.668H178.44v-12.668h12.728v12.668zm0 .623V151.1H178.44v-12.668h12.728zm0 13.187v12.668H178.44v-12.668h12.728zm0 13.187v12.668H178.44v-12.668h12.728zm.522 0h12.729v12.668H191.69v-12.668zm12.729 13.291v12.669H191.69v-12.669h12.729zm.626 0h12.728v12.669h-12.728v-12.669zm13.25 0h12.729v12.669h-12.729v-12.669zm13.25 0h12.729v12.669h-12.729v-12.669zm0-.623v-12.668h12.729v12.668h-12.729zm13.355-12.668h12.729v12.668H244.9v-12.668zm0-.519v-12.668h12.729v12.668H244.9zm0-13.187v-12.668h12.729V151.1H244.9zm0-13.291v-12.668h12.729v12.668H244.9zm0-13.187v-12.668h12.729v12.668H244.9zm0-13.188V98.766h12.729v12.668H244.9zm-.626 0h-12.729V98.766h12.729v12.668zm-13.25 0h-12.729V98.766h12.729v12.668zm-13.251 0h-12.728V98.766h12.728v12.668zm-13.354 0H191.69V98.766h12.729v12.668zm-13.251 0H178.44V98.766h12.728v12.668zm0 .52v12.668H178.44v-12.668h12.728zm-13.25 12.668h-12.729v-12.668h12.729v12.668zm0 .519v12.668h-12.729v-12.668h12.729zm0 13.291V151.1h-12.729v-12.668h12.729zm0 13.187v12.668h-12.729v-12.668h12.729zm0 13.187v12.668h-12.729v-12.668h12.729zm0 13.291v12.669h-12.729v-12.669h12.729zm.522 0h12.728v12.669H178.44v-12.669zm12.728 13.188v12.668H178.44v-12.668h12.728zm.522 0h12.729v12.668H191.69v-12.668zm13.355 0h12.728v12.668h-12.728v-12.668zm13.25 0h12.729v12.668h-12.729v-12.668zm13.25 0h12.729v12.668h-12.729v-12.668zm13.355 0h12.729v12.668H244.9v-12.668zm0-.519v-12.669h12.729v12.669H244.9zm13.25-12.669h12.729v12.669H258.15v-12.669zm0-.623v-12.668h12.729v12.668H258.15zm0-13.187v-12.668h12.729v12.668H258.15zm0-13.187v-12.668h12.729V151.1H258.15zm0-13.291v-12.668h12.729v12.668H258.15zm0-13.187v-12.668h12.729v12.668H258.15zm0-13.188V98.766h12.729v12.668H258.15zm0-13.29V85.474h12.729v12.668H258.15zm-.521 0H244.9V85.474h12.729v12.668zm-13.355 0h-12.729V85.474h12.729v12.668zm-13.25 0h-12.729V85.474h12.729v12.668zm-13.251 0h-12.728V85.474h12.728v12.668zm-13.354 0H191.69V85.474h12.729v12.668zm-13.251 0H178.44V85.474h12.728v12.668zm-13.25 0h-12.729V85.474h12.729v12.668zm0 .622v12.668h-12.729V98.766h12.729zm-13.355 12.668h-12.728V98.766h12.728v12.668zm0 .52v12.668h-12.728v-12.668h12.728zm0 13.187v12.668h-12.728v-12.668h12.728zm0 13.291V151.1h-12.728v-12.668h12.728zm0 13.187v12.668h-12.728v-12.668h12.728zm0 13.187v12.668h-12.728v-12.668h12.728zm0 13.291v12.669h-12.728v-12.669h12.728zm0 13.188v12.668h-12.728v-12.668h12.728zm.626 0h12.729v12.668h-12.729v-12.668zm12.729 13.187v12.668h-12.729v-12.668h12.729zm.522 0h12.728v12.668H178.44v-12.668zm13.25 0h12.729v12.668H191.69v-12.668zm13.355 0h12.728v12.668h-12.728v-12.668zm13.25 0h12.729v12.668h-12.729v-12.668zm13.25 0h12.729v12.668h-12.729v-12.668zm13.355 0h12.729v12.668H244.9v-12.668zm13.25 0h12.729v12.668H258.15v-12.668zm0-.519v-12.668h12.729v12.668H258.15zm13.251-12.668h12.729v12.668h-12.729v-12.668zm0-.519v-12.669h12.729v12.669h-12.729zm0-13.292v-12.668h12.729v12.668h-12.729zm0-13.187v-12.668h12.729v12.668h-12.729zm0-13.187v-12.668h12.729V151.1h-12.729zm0-13.291v-12.668h12.729v12.668h-12.729zm0-13.187v-12.668h12.729v12.668h-12.729zm0-13.188V98.766h12.729v12.668h-12.729zm0-13.29V85.474h12.729v12.668h-12.729zm0-13.188V72.288h12.729v12.668h-12.729zm-.522 0H258.15V72.288h12.729v12.668zm-13.25 0H244.9V72.288h12.729v12.668zm-13.355 0h-12.729V72.288h12.729v12.668zm-13.25 0h-12.729V72.288h12.729v12.668zm-13.251 0h-12.728V72.288h12.728v12.668zm-13.354 0H191.69V72.288h12.729v12.668zm-13.251 0H178.44V72.288h12.728v12.668zm-13.25 0h-12.729V72.288h12.729v12.668zm-13.355 0h-12.728V72.288h12.728v12.668zm0 .52v12.667h-12.728V85.475h12.728zm-13.25 12.667h-12.729V85.475h12.729v12.668zm0 .623v12.668h-12.729V98.766h12.729zm0 13.188v12.668h-12.729v-12.668h12.729zm0 13.187v12.668h-12.729v-12.668h12.729zm0 13.291V151.1h-12.729v-12.668h12.729zm0 13.187v12.668h-12.729v-12.668h12.729zm0 13.187v12.668h-12.729v-12.668h12.729zm0 13.291v12.669h-12.729v-12.669h12.729zm0 13.188v12.668h-12.729v-12.668h12.729zm0 13.187v12.668h-12.729v-12.668h12.729zm.522 0h12.728v12.668h-12.728v-12.668zm12.728 13.291v12.668h-12.728v-12.668h12.728zm.626 0h12.729v12.668h-12.729v-12.668zm13.251 0h12.728v12.668H178.44v-12.668zm13.25 0h12.729v12.668H191.69v-12.668zm13.355 0h12.728v12.668h-12.728v-12.668zm13.25 0h12.729v12.668h-12.729v-12.668zm13.25 0h12.729v12.668h-12.729v-12.668zm13.355 0h12.729v12.668H244.9v-12.668zm13.25 0h12.729v12.668H258.15v-12.668zm13.251 0h12.729v12.668h-12.729v-12.668zm0-.623v-12.668h12.729v12.668h-12.729zm13.355-12.668h12.728v12.668h-12.728v-12.668zm0-.519v-12.668h12.728v12.668h-12.728zm0-13.187v-12.669h12.728v12.669h-12.728zm0-13.292v-12.668h12.728v12.668h-12.728zm0-13.187v-12.668h12.728v12.668h-12.728zm0-13.187v-12.668h12.728V151.1h-12.728zm0-13.291v-12.668h12.728v12.668h-12.728zm0-13.187v-12.668h12.728v12.668h-12.728zm0-13.188V98.766h12.728v12.668h-12.728zm0-13.29V85.474h12.728v12.668h-12.728zm0-13.188V72.288h12.728v12.668h-12.728zm0-13.187V59.1h12.728v12.668h-12.728zm-.626 0h-12.729V59.1h12.729v12.668zm-13.251 0H258.15V59.1h12.729v12.668zm-13.25 0H244.9V59.1h12.729v12.668zm-13.355 0h-12.729V59.1h12.729v12.668zm-13.25 0h-12.729V59.1h12.729v12.668zm-13.251 0h-12.728V59.1h12.728v12.668zm-13.354 0H191.69V59.1h12.729v12.668zm-13.251 0H178.44V59.1h12.728v12.668zm-13.25 0h-12.729V59.1h12.729v12.668zm-13.355 0h-12.728V59.1h12.728v12.668zm-13.25 0h-12.729V59.1h12.729v12.668zm0 .519v12.668h-12.729V72.288h12.729zm-13.25 12.668h-12.729V72.288h12.729v12.668zm0 .52v12.667h-12.729V85.475h12.729zm0 13.29v12.668h-12.729V98.766h12.729zm0 13.188v12.668h-12.729v-12.668h12.729zm0 13.187v12.668h-12.729v-12.668h12.729zm0 13.291V151.1h-12.729v-12.668h12.729zm0 13.187v12.668h-12.729v-12.668h12.729zm0 13.187v12.668h-12.729v-12.668h12.729zm0 13.291v12.669h-12.729v-12.669h12.729zm0 13.188v12.668h-12.729v-12.668h12.729zm0 13.187v12.668h-12.729v-12.668h12.729zm0 13.291v12.668h-12.729v-12.668h12.729zm.521 0h12.729v12.668h-12.729v-12.668zm12.729 13.187v12.668h-12.729V230.95h12.729zm.522 0h12.728v12.668h-12.728V230.95zm13.354 0h12.729v12.668h-12.729V230.95zm13.251 0h12.728v12.668H178.44V230.95zm13.25 0h12.729v12.668H191.69V230.95zm13.355 0h12.728v12.668h-12.728V230.95zm13.25 0h12.729v12.668h-12.729V230.95zm13.25 0h12.729v12.668h-12.729V230.95zm13.355 0h12.729v12.668H244.9V230.95zm13.25 0h12.729v12.668H258.15V230.95zm13.251 0h12.729v12.668h-12.729V230.95zm13.355 0h12.728v12.668h-12.728V230.95zm0-.519v-12.668h12.728v12.668h-12.728zm13.25-12.668h12.729v12.668h-12.729v-12.668zm0-.623v-12.668h12.729v12.668h-12.729zm0-13.187v-12.668h12.729v12.668h-12.729zm0-13.187v-12.669h12.729v12.669h-12.729zm0-13.292v-12.668h12.729v12.668h-12.729zm0-13.187v-12.668h12.729v12.668h-12.729zm0-13.187v-12.668h12.729V151.1h-12.729zm0-13.291v-12.668h12.729v12.668h-12.729zm0-13.187v-12.668h12.729v12.668h-12.729zm0-13.188V98.766h12.729v12.668h-12.729zm0-13.29V85.474h12.729v12.668h-12.729zm0-13.188V72.288h12.729v12.668h-12.729zm0-13.187V59.1h12.729v12.668h-12.729zm0-13.291V45.81h12.729v12.668h-12.729zm-.522 0h-12.728V45.81h12.728v12.668zm-13.354 0h-12.729V45.81h12.729v12.668zm-13.251 0H258.15V45.81h12.729v12.668zm-13.25 0H244.9V45.81h12.729v12.668zm-13.355 0h-12.729V45.81h12.729v12.668zm-13.25 0h-12.729V45.81h12.729v12.668zm-13.251 0h-12.728V45.81h12.728v12.668zm-13.354 0H191.69V45.81h12.729v12.668zm-13.251 0H178.44V45.81h12.728v12.668zm-13.25 0h-12.729V45.81h12.729v12.668zm-13.355 0h-12.728V45.81h12.728v12.668zm-13.25 0h-12.729V45.81h12.729v12.668zm-13.25 0h-12.729V45.81h12.729v12.668zm0 .623v12.668h-12.729V59.1h12.729zm-13.355 12.668h-12.729V59.1h12.729v12.668zm0 .519v12.668h-12.729V72.288h12.729zm0 13.187v12.668h-12.729V85.475h12.729zm0 13.291v12.668h-12.729V98.766h12.729zm0 13.188v12.668h-12.729v-12.668h12.729zm0 13.187v12.668h-12.729v-12.668h12.729zm0 13.291V151.1h-12.729v-12.668h12.729zm0 13.187v12.668h-12.729v-12.668h12.729zm0 13.187v12.668h-12.729v-12.668h12.729zm0 13.291v12.669h-12.729v-12.669h12.729zm0 13.188v12.668h-12.729v-12.668h12.729zm0 13.187v12.668h-12.729v-12.668h12.729zm0 13.291v12.668h-12.729v-12.668h12.729zm0 13.187v12.668h-12.729V230.95h12.729zm.626 0h12.729v12.668h-12.729V230.95zm12.729 13.187v12.669h-12.729v-12.669h12.729zm.521 0h12.729v12.669h-12.729v-12.669zm13.251 0h12.728v12.669h-12.728v-12.669zm13.354 0h12.729v12.669h-12.729v-12.669zm13.251 0h12.728v12.669H178.44v-12.669zm13.25 0h12.729v12.669H191.69v-12.669zm13.355 0h12.728v12.669h-12.728v-12.669zm13.25 0h12.729v12.669h-12.729v-12.669zm13.25 0h12.729v12.669h-12.729v-12.669zm13.355 0h12.729v12.669H244.9v-12.669zm13.25 0h12.729v12.669H258.15v-12.669zm13.251 0h12.729v12.669h-12.729v-12.669zm13.355 0h12.728v12.669h-12.728v-12.669zm13.25 0h12.729v12.669h-12.729v-12.669zm0-.519V230.95h12.729v12.668h-12.729zm13.25-12.668h12.729v12.668h-12.729V230.95zm0-.519v-12.668h12.729v12.668h-12.729zm0-13.291v-12.668h12.729v12.668h-12.729zm0-13.187v-12.668h12.729v12.668h-12.729zm0-13.187v-12.669h12.729v12.669h-12.729zm0-13.292v-12.668h12.729v12.668h-12.729zm0-13.187v-12.668h12.729v12.668h-12.729zm0-13.187v-12.668h12.729V151.1h-12.729zm0-13.291v-12.668h12.729v12.668h-12.729zm0-13.187v-12.668h12.729v12.668h-12.729zm0-13.188V98.766h12.729v12.668h-12.729zm0-13.29V85.474h12.729v12.668h-12.729zm0-13.188V72.288h12.729v12.668h-12.729zm0-13.187V59.1h12.729v12.668h-12.729zm-186.548-25.96v12.669h-12.729v-8.245a4.424 4.424 0 014.424-4.423h8.305zm-12.729 198.328h12.729v12.669h-12.729v-12.669zm199.277 12.669v-12.669h12.729v12.669h-12.729z"/></g><path fill="url(#paint2_radial_11856_9570)" d="M16.544 133.255c5.952 0 10.776-4.801 10.776-10.724s-4.824-10.725-10.776-10.725c-5.95 0-10.775 4.802-10.775 10.725s4.824 10.724 10.775 10.724z"/><path fill="url(#paint3_radial_11856_9570)" d="M10.312 122.008c-1.952-1.196-2.44-3.924-1.088-6.054 1.314-2.13 3.98-2.915 5.932-1.719 1.952 1.196 2.44 3.924 1.089 6.054-1.352 2.167-4.018 2.914-5.933 1.719z" opacity=".5"/><path fill="url(#paint4_radial_11856_9570)" d="M158.697 50.203c4.542 0 8.225-3.665 8.225-8.186 0-4.52-3.683-8.186-8.225-8.186s-8.225 3.665-8.225 8.186 3.683 8.186 8.225 8.186z"/><path fill="url(#paint5_radial_11856_9570)" d="M153.941 41.618c-1.491-.913-1.863-2.995-.832-4.62 1.003-1.626 3.038-2.225 4.528-1.313 1.491.913 1.863 2.995.831 4.621-1.031 1.654-3.066 2.225-4.527 1.312z" opacity=".5"/><g filter="url(#filter0_f_11856_9570)"><ellipse cx="82.874" cy="145.437" fill="#000" fill-opacity=".37" rx="80.874" ry=".427"/></g><g filter="url(#filter1_iii_11856_9570)"><path fill="#4392F4" d="M119.342 123.32l-6.601 6.238a.475.475 0 01-.326.129H44.963a2.603 2.603 0 01-2.612-2.602v-98.57a2.603 2.603 0 012.612-2.602h77.513a2.604 2.604 0 012.612 2.602v88.596a.47.47 0 01-.132.327l-5.614 5.882z"/></g><g filter="url(#filter2_di_11856_9570)"><path fill="#054599" d="M125.085 117.323l-12.785-1.449c-1.569 0-2.201 1.352-2.015 2.955l2.358 10.798 6.493-6.14 5.949-6.164z"/></g><g filter="url(#filter3_dii_11856_9570)"><rect width="60.534" height="2.778" x="53.123" y="43.372" fill="#F3F3F3" rx="1.389"/></g><g filter="url(#filter4_dii_11856_9570)"><rect width="43.548" height="2.778" x="53.123" y="59.957" fill="#F3F3F3" rx="1.389"/></g><g filter="url(#filter5_dii_11856_9570)"><rect width="24.672" height="2.778" x="53.123" y="76.659" fill="#F3F3F3" rx="1.389"/></g><g filter="url(#filter6_di_11856_9570)"><path fill="#FFC736" fill-rule="evenodd" d="M86.26 106.927c9.28 9.946 24.494 11.112 35.082 3.088l14.447 15.482a2.588 2.588 0 003.644.142 2.558 2.558 0 00.128-3.628l-14.446-15.482c8.822-9.917 8.777-25.103-.503-35.048-9.874-10.582-26.464-11.225-37.054-1.437-10.591 9.789-11.172 26.302-1.298 36.883zm3.772-3.486c-7.931-8.5-7.464-21.765 1.043-29.627 8.507-7.863 21.833-7.347 29.765 1.153 7.931 8.5 7.464 21.765-1.043 29.628-8.507 7.862-21.833 7.346-29.765-1.154z" clip-rule="evenodd"/></g><g filter="url(#filter7_ii_11856_9570)"><path fill="#F3F3F3" d="M105.451 94.581c-.37.004-.68-.127-.929-.394a1.368 1.368 0 01-.381-.952l-.181-15.12c-.005-.391.114-.712.358-.96a1.2 1.2 0 01.919-.416l.702-.008c.395-.005.717.127.966.393.25.243.377.56.381.952l.181 15.12c.005.368-.127.688-.395.961a1.198 1.198 0 01-.919.416l-.702.008zm.505 8.272c-.764.009-1.407-.228-1.931-.713-.498-.484-.752-1.107-.761-1.867-.01-.76.23-1.376.717-1.848.511-.497 1.149-.75 1.913-.759.789-.009 1.432.229 1.931.713.498.46.752 1.07.761 1.831.009.76-.23 1.389-.717 1.885s-1.124.749-1.913.758z"/></g><g filter="url(#filter8_i_11856_9570)"><path fill="url(#paint6_linear_11856_9570)" d="M156.788 120.519c-.049-.013-.098-.021-.137-.053-.947-.778 1.762-12.68 2.018-13.566 1.3-4.481 3.455-8.842 6.924-12.038 2.455-2.263 9.016-6.69 12.424-4.081 2.872 2.2.188 7.718-1.134 10.025-2.369 4.102-5.862 7.424-8.845 11.061-1.779 2.176-3.567 4.393-5.346 6.569-.122.157-1.117 1.566-1.798 2.384-.367.441-.896.512-1.452.371l-2.654-.672z"/></g><g filter="url(#filter9_i_11856_9570)"><path fill="url(#paint7_linear_11856_9570)" d="M160.671 124.104c1.457.312 2.756-.927 2.45-2.386-1.677-8.001-7.224-28.81-18.964-25.016-10.678 3.489 12.273 24.04 15.593 26.947.266.233.575.381.921.455z"/></g><path fill="#77FFE4" fill-opacity=".2" d="M147.355 100.857s13.738 17.847 13.896 21.622l-13.896-21.622zM173.957 94.286s-11.288 14.333-12.516 20.694l12.516-20.694z"/><path fill="url(#paint8_linear_11856_9570)" d="M146.657 120.095a2.35 2.35 0 012.339-2.576h20.047a2.35 2.35 0 012.339 2.576l-2.208 22.792a2.35 2.35 0 01-2.339 2.124h-15.631a2.35 2.35 0 01-2.339-2.124l-2.208-22.792z"/><g filter="url(#filter10_i_11856_9570)"><rect width="27.045" height="6.627" x="145.497" y="117.519" fill="url(#paint9_linear_11856_9570)" rx="1.175"/></g><defs><filter id="filter0_f_11856_9570" width="164.618" height="3.722" x=".565" y="143.576" color-interpolation-filters="sRGB" filterUnits="userSpaceOnUse"><feFlood flood-opacity="0" result="BackgroundImageFix"/><feBlend in="SourceGraphic" in2="BackgroundImageFix" result="shape"/><feGaussianBlur result="effect1_foregroundBlur_11856_9570" stdDeviation=".717"/></filter><filter id="filter1_iii_11856_9570" width="83.51" height="105.088" x="41.578" y="25.45" color-interpolation-filters="sRGB" filterUnits="userSpaceOnUse"><feFlood flood-opacity="0" result="BackgroundImageFix"/><feBlend in="SourceGraphic" in2="BackgroundImageFix" result="shape"/><feColorMatrix in="SourceAlpha" result="hardAlpha" values="0 0 0 0 0 0 0 0 0 0 0 0 0 0 0 0 0 0 127 0"/><feOffset dy="-.464"/><feGaussianBlur stdDeviation=".464"/><feComposite in2="hardAlpha" k2="-1" k3="1" operator="arithmetic"/><feColorMatrix values="0 0 0 0 0.089132 0 0 0 0 0.328429 0 0 0 0 0.629167 0 0 0 1 0"/><feBlend in2="shape" result="effect1_innerShadow_11856_9570"/><feColorMatrix in="SourceAlpha" result="hardAlpha" values="0 0 0 0 0 0 0 0 0 0 0 0 0 0 0 0 0 0 127 0"/><feOffset dy=".85"/><feGaussianBlur stdDeviation=".425"/><feComposite in2="hardAlpha" k2="-1" k3="1" operator="arithmetic"/><feColorMatrix values="0 0 0 0 0.641667 0 0 0 0 0.8495 0 0 0 0 1 0 0 0 1 0"/><feBlend in2="effect1_innerShadow_11856_9570" result="effect2_innerShadow_11856_9570"/><feColorMatrix in="SourceAlpha" result="hardAlpha" values="0 0 0 0 0 0 0 0 0 0 0 0 0 0 0 0 0 0 127 0"/><feOffset dx="-.773"/><feGaussianBlur stdDeviation=".386"/><feComposite in2="hardAlpha" k2="-1" k3="1" operator="arithmetic"/><feColorMatrix values="0 0 0 0 0 0 0 0 0 0 0 0 0 0 0 0 0 0 0.25 0"/><feBlend in2="effect2_innerShadow_11856_9570" result="effect3_innerShadow_11856_9570"/></filter><filter id="filter2_di_11856_9570" width="15.355" height="14.496" x="109.951" y="115.483" color-interpolation-filters="sRGB" filterUnits="userSpaceOnUse"><feFlood flood-opacity="0" result="BackgroundImageFix"/><feColorMatrix in="SourceAlpha" result="hardAlpha" values="0 0 0 0 0 0 0 0 0 0 0 0 0 0 0 0 0 0 127 0"/><feOffset dy=".132"/><feGaussianBlur stdDeviation=".11"/><feColorMatrix values="0 0 0 0 0 0 0 0 0 0 0 0 0 0 0 0 0 0 0.25 0"/><feBlend in2="BackgroundImageFix" result="effect1_dropShadow_11856_9570"/><feBlend in="SourceGraphic" in2="effect1_dropShadow_11856_9570" result="shape"/><feColorMatrix in="SourceAlpha" result="hardAlpha" values="0 0 0 0 0 0 0 0 0 0 0 0 0 0 0 0 0 0 127 0"/><feOffset dx="-.303" dy="-.391"/><feGaussianBlur stdDeviation=".195"/><feComposite in2="hardAlpha" k2="-1" k3="1" operator="arithmetic"/><feColorMatrix values="0 0 0 0 0.0505208 0 0 0 0 0.161469 0 0 0 0 0.404167 0 0 0 1 0"/><feBlend in2="shape" result="effect2_innerShadow_11856_9570"/></filter><filter id="filter3_dii_11856_9570" width="60.85" height="3.374" x="52.965" y="43.328" color-interpolation-filters="sRGB" filterUnits="userSpaceOnUse"><feFlood flood-opacity="0" result="BackgroundImageFix"/><feColorMatrix in="SourceAlpha" result="hardAlpha" values="0 0 0 0 0 0 0 0 0 0 0 0 0 0 0 0 0 0 127 0"/><feOffset dy=".395"/><feGaussianBlur stdDeviation=".079"/><feColorMatrix values="0 0 0 0 0 0 0 0 0 0 0 0 0 0 0 0 0 0 0.25 0"/><feBlend in2="BackgroundImageFix" result="effect1_dropShadow_11856_9570"/><feBlend in="SourceGraphic" in2="effect1_dropShadow_11856_9570" result="shape"/><feColorMatrix in="SourceAlpha" result="hardAlpha" values="0 0 0 0 0 0 0 0 0 0 0 0 0 0 0 0 0 0 127 0"/><feOffset dy=".474"/><feComposite in2="hardAlpha" k2="-1" k3="1" operator="arithmetic"/><feColorMatrix values="0 0 0 0 1 0 0 0 0 1 0 0 0 0 1 0 0 0 1 0"/><feBlend in2="shape" result="effect2_innerShadow_11856_9570"/><feColorMatrix in="SourceAlpha" result="hardAlpha" values="0 0 0 0 0 0 0 0 0 0 0 0 0 0 0 0 0 0 127 0"/><feOffset dx="-.022" dy="-.395"/><feGaussianBlur stdDeviation=".022"/><feComposite in2="hardAlpha" k2="-1" k3="1" operator="arithmetic"/><feColorMatrix values="0 0 0 0 0.833333 0 0 0 0 0.833333 0 0 0 0 0.833333 0 0 0 1 0"/><feBlend in2="effect2_innerShadow_11856_9570" result="effect3_innerShadow_11856_9570"/></filter><filter id="filter4_dii_11856_9570" width="43.864" height="3.374" x="52.965" y="59.913" color-interpolation-filters="sRGB" filterUnits="userSpaceOnUse"><feFlood flood-opacity="0" result="BackgroundImageFix"/><feColorMatrix in="SourceAlpha" result="hardAlpha" values="0 0 0 0 0 0 0 0 0 0 0 0 0 0 0 0 0 0 127 0"/><feOffset dy=".395"/><feGaussianBlur stdDeviation=".079"/><feColorMatrix values="0 0 0 0 0 0 0 0 0 0 0 0 0 0 0 0 0 0 0.25 0"/><feBlend in2="BackgroundImageFix" result="effect1_dropShadow_11856_9570"/><feBlend in="SourceGraphic" in2="effect1_dropShadow_11856_9570" result="shape"/><feColorMatrix in="SourceAlpha" result="hardAlpha" values="0 0 0 0 0 0 0 0 0 0 0 0 0 0 0 0 0 0 127 0"/><feOffset dy=".474"/><feComposite in2="hardAlpha" k2="-1" k3="1" operator="arithmetic"/><feColorMatrix values="0 0 0 0 1 0 0 0 0 1 0 0 0 0 1 0 0 0 1 0"/><feBlend in2="shape" result="effect2_innerShadow_11856_9570"/><feColorMatrix in="SourceAlpha" result="hardAlpha" values="0 0 0 0 0 0 0 0 0 0 0 0 0 0 0 0 0 0 127 0"/><feOffset dx="-.022" dy="-.395"/><feGaussianBlur stdDeviation=".022"/><feComposite in2="hardAlpha" k2="-1" k3="1" operator="arithmetic"/><feColorMatrix values="0 0 0 0 0.833333 0 0 0 0 0.833333 0 0 0 0 0.833333 0 0 0 1 0"/><feBlend in2="effect2_innerShadow_11856_9570" result="effect3_innerShadow_11856_9570"/></filter><filter id="filter5_dii_11856_9570" width="24.987" height="3.374" x="52.965" y="76.615" color-interpolation-filters="sRGB" filterUnits="userSpaceOnUse"><feFlood flood-opacity="0" result="BackgroundImageFix"/><feColorMatrix in="SourceAlpha" result="hardAlpha" values="0 0 0 0 0 0 0 0 0 0 0 0 0 0 0 0 0 0 127 0"/><feOffset dy=".395"/><feGaussianBlur stdDeviation=".079"/><feColorMatrix values="0 0 0 0 0 0 0 0 0 0 0 0 0 0 0 0 0 0 0.25 0"/><feBlend in2="BackgroundImageFix" result="effect1_dropShadow_11856_9570"/><feBlend in="SourceGraphic" in2="effect1_dropShadow_11856_9570" result="shape"/><feColorMatrix in="SourceAlpha" result="hardAlpha" values="0 0 0 0 0 0 0 0 0 0 0 0 0 0 0 0 0 0 127 0"/><feOffset dy=".474"/><feComposite in2="hardAlpha" k2="-1" k3="1" operator="arithmetic"/><feColorMatrix values="0 0 0 0 1 0 0 0 0 1 0 0 0 0 1 0 0 0 1 0"/><feBlend in2="shape" result="effect2_innerShadow_11856_9570"/><feColorMatrix in="SourceAlpha" result="hardAlpha" values="0 0 0 0 0 0 0 0 0 0 0 0 0 0 0 0 0 0 127 0"/><feOffset dx="-.022" dy="-.395"/><feGaussianBlur stdDeviation=".022"/><feComposite in2="hardAlpha" k2="-1" k3="1" operator="arithmetic"/><feColorMatrix values="0 0 0 0 0.833333 0 0 0 0 0.833333 0 0 0 0 0.833333 0 0 0 1 0"/><feBlend in2="effect2_innerShadow_11856_9570" result="effect3_innerShadow_11856_9570"/></filter><filter id="filter6_di_11856_9570" width="69.357" height="72.926" x="75.058" y="63.104" color-interpolation-filters="sRGB" filterUnits="userSpaceOnUse"><feFlood flood-opacity="0" result="BackgroundImageFix"/><feColorMatrix in="SourceAlpha" result="hardAlpha" values="0 0 0 0 0 0 0 0 0 0 0 0 0 0 0 0 0 0 127 0"/><feOffset dy="5.548"/><feGaussianBlur stdDeviation="2.08"/><feColorMatrix values="0 0 0 0 0 0 0 0 0 0 0 0 0 0 0 0 0 0 0.11 0"/><feBlend in2="BackgroundImageFix" result="effect1_dropShadow_11856_9570"/><feBlend in="SourceGraphic" in2="effect1_dropShadow_11856_9570" result="shape"/><feColorMatrix in="SourceAlpha" result="hardAlpha" values="0 0 0 0 0 0 0 0 0 0 0 0 0 0 0 0 0 0 127 0"/><feOffset dy="1.387"/><feGaussianBlur stdDeviation="1.04"/><feComposite in2="hardAlpha" k2="-1" k3="1" operator="arithmetic"/><feColorMatrix values="0 0 0 0 0.841667 0 0 0 0 0.561793 0 0 0 0 0.248993 0 0 0 1 0"/><feBlend in2="shape" result="effect2_innerShadow_11856_9570"/></filter><filter id="filter7_ii_11856_9570" width="5.342" height="26.216" x="103.245" y="76.694" color-interpolation-filters="sRGB" filterUnits="userSpaceOnUse"><feFlood flood-opacity="0" result="BackgroundImageFix"/><feBlend in="SourceGraphic" in2="BackgroundImageFix" result="shape"/><feColorMatrix in="SourceAlpha" result="hardAlpha" values="0 0 0 0 0 0 0 0 0 0 0 0 0 0 0 0 0 0 127 0"/><feOffset dy=".309"/><feGaussianBlur stdDeviation=".028"/><feComposite in2="hardAlpha" k2="-1" k3="1" operator="arithmetic"/><feColorMatrix values="0 0 0 0 1 0 0 0 0 1 0 0 0 0 1 0 0 0 1 0"/><feBlend in2="shape" result="effect1_innerShadow_11856_9570"/><feColorMatrix in="SourceAlpha" result="hardAlpha" values="0 0 0 0 0 0 0 0 0 0 0 0 0 0 0 0 0 0 127 0"/><feOffset dx="-.018" dy="-.29"/><feGaussianBlur stdDeviation=".018"/><feComposite in2="hardAlpha" k2="-1" k3="1" operator="arithmetic"/><feColorMatrix values="0 0 0 0 0.833333 0 0 0 0 0.833333 0 0 0 0 0.833333 0 0 0 1 0"/><feBlend in2="effect1_innerShadow_11856_9570" result="effect2_innerShadow_11856_9570"/></filter><filter id="filter8_i_11856_9570" width="23.97" height="31.705" x="156.451" y="89.552" color-interpolation-filters="sRGB" filterUnits="userSpaceOnUse"><feFlood flood-opacity="0" result="BackgroundImageFix"/><feBlend in="SourceGraphic" in2="BackgroundImageFix" result="shape"/><feColorMatrix in="SourceAlpha" result="hardAlpha" values="0 0 0 0 0 0 0 0 0 0 0 0 0 0 0 0 0 0 127 0"/><feOffset dx="1.127" dy="-.431"/><feGaussianBlur stdDeviation="1.469"/><feComposite in2="hardAlpha" k2="-1" k3="1" operator="arithmetic"/><feColorMatrix values="0 0 0 0 0.113056 0 0 0 0 0.616667 0 0 0 0 0.58645 0 0 0 1 0"/><feBlend in2="shape" result="effect1_innerShadow_11856_9570"/></filter><filter id="filter9_i_11856_9570" width="22.947" height="28.339" x="141.346" y="95.814" color-interpolation-filters="sRGB" filterUnits="userSpaceOnUse"><feFlood flood-opacity="0" result="BackgroundImageFix"/><feBlend in="SourceGraphic" in2="BackgroundImageFix" result="shape"/><feColorMatrix in="SourceAlpha" result="hardAlpha" values="0 0 0 0 0 0 0 0 0 0 0 0 0 0 0 0 0 0 127 0"/><feOffset dx="1.127" dy="-.431"/><feGaussianBlur stdDeviation="1.469"/><feComposite in2="hardAlpha" k2="-1" k3="1" operator="arithmetic"/><feColorMatrix values="0 0 0 0 0.0996528 0 0 0 0 0.683333 0 0 0 0 0.555806 0 0 0 1 0"/><feBlend in2="shape" result="effect1_innerShadow_11856_9570"/></filter><filter id="filter10_i_11856_9570" width="27.515" height="6.979" x="145.497" y="117.167" color-interpolation-filters="sRGB" filterUnits="userSpaceOnUse"><feFlood flood-opacity="0" result="BackgroundImageFix"/><feBlend in="SourceGraphic" in2="BackgroundImageFix" result="shape"/><feColorMatrix in="SourceAlpha" result="hardAlpha" values="0 0 0 0 0 0 0 0 0 0 0 0 0 0 0 0 0 0 127 0"/><feOffset dx=".47" dy="-.353"/><feGaussianBlur stdDeviation=".411"/><feComposite in2="hardAlpha" k2="-1" k3="1" operator="arithmetic"/><feColorMatrix values="0 0 0 0 0.833333 0 0 0 0 0.604343 0 0 0 0 0.0555555 0 0 0 1 0"/><feBlend in2="shape" result="effect1_innerShadow_11856_9570"/></filter><linearGradient id="paint0_linear_11856_9570" x1="89.275" x2="89.275" y1=".4" y2="168.4" gradientUnits="userSpaceOnUse"><stop stop-color="#B5EFFF"/><stop offset="1" stop-color="#E7F8FE"/></linearGradient><linearGradient id="paint1_linear_11856_9570" x1="88.207" x2="88.207" y1=".4" y2="167.418" gradientUnits="userSpaceOnUse"><stop stop-color="#B5EFFF"/><stop offset="1" stop-color="#EDFBFF"/></linearGradient><linearGradient id="paint6_linear_11856_9570" x1="182.605" x2="157.258" y1="90.478" y2="113.34" gradientUnits="userSpaceOnUse"><stop stop-color="#BAFFF1" stop-opacity=".26"/><stop offset=".682" stop-color="#4DC7AE"/><stop offset=".969" stop-color="#06896F"/></linearGradient><linearGradient id="paint7_linear_11856_9570" x1="171.277" x2="155.895" y1="99.295" y2="125.324" gradientUnits="userSpaceOnUse"><stop stop-color="#B7FDEF"/><stop offset=".682" stop-color="#09B794"/><stop offset=".969" stop-color="#7EE0CC"/></linearGradient><linearGradient id="paint8_linear_11856_9570" x1="171.632" x2="148.208" y1="135.617" y2="135.617" gradientUnits="userSpaceOnUse"><stop offset=".099" stop-color="#FFEEC5"/><stop offset=".607" stop-color="#FACD63"/><stop offset=".839" stop-color="#EAAF23"/><stop offset=".984" stop-color="#EDB52F"/></linearGradient><linearGradient id="paint9_linear_11856_9570" x1="172.542" x2="147.427" y1="121.881" y2="121.881" gradientUnits="userSpaceOnUse"><stop offset=".099" stop-color="#FFEEC5"/><stop offset=".607" stop-color="#FCBD27"/><stop offset=".984" stop-color="#EFB222"/></linearGradient><radialGradient id="paint2_radial_11856_9570" cx="0" cy="0" r="1" gradientTransform="rotate(-15.108 451.366 16.047) scale(20.5427 20.4582)" gradientUnits="userSpaceOnUse"><stop stop-color="#FFF1CF"/><stop offset=".188" stop-color="#FFE4A2"/><stop offset=".318" stop-color="#FFD364"/><stop offset=".49" stop-color="#FFD364"/><stop offset=".651" stop-color="#FFC73A"/><stop offset=".948" stop-color="#D09500"/></radialGradient><radialGradient id="paint3_radial_11856_9570" cx="0" cy="0" r="1" gradientTransform="rotate(122.012 -26.385 62.597) scale(4.48501 4.0931)" gradientUnits="userSpaceOnUse"><stop stop-color="#fff"/><stop offset=".694" stop-color="#fff" stop-opacity="0"/></radialGradient><radialGradient id="paint4_radial_11856_9570" cx="0" cy="0" r="1" gradientTransform="rotate(-15.108 223.35 -564.24) scale(15.6796 15.6151)" gradientUnits="userSpaceOnUse"><stop stop-color="#E6C6FF"/><stop offset=".188" stop-color="#C07DF5"/><stop offset=".318" stop-color="#BE6FFC"/><stop offset=".49" stop-color="#B56AF0"/><stop offset=".651" stop-color="#A745F4"/><stop offset=".948" stop-color="#9F3DED"/></radialGradient><radialGradient id="paint5_radial_11856_9570" cx="0" cy="0" r="1" gradientTransform="rotate(122.012 67.168 62.499) scale(3.42326 3.12413)" gradientUnits="userSpaceOnUse"><stop stop-color="#fff"/><stop offset=".694" stop-color="#fff" stop-opacity="0"/></radialGradient></defs></svg>