<svg width="432" height="328" viewBox="0 0 432 328" fill="none" xmlns="http://www.w3.org/2000/svg">
<g clip-path="url(#clip0_1991_361601)">
<path d="M432 0H0V328H432V0Z" fill="white"/>
<path fill-rule="evenodd" clip-rule="evenodd" d="M391.452 288.072H36.2852C37.9803 276.363 44.6134 263.363 53.261 258.05C61.9209 252.75 69.7087 258.952 78.7862 257.246C89.608 255.199 91.1312 242.455 92.1262 233.499C92.8263 227.249 92.077 221.778 94.3495 215.625C96.5974 209.581 100.221 204.05 104.717 199.408C113.61 190.221 125.365 184.311 137.194 179.34C149.024 174.369 161.246 170.141 172.227 163.537C181.71 157.835 190.075 150.5 199.079 144.079C208.083 137.658 218.057 132.041 229.051 130.542C243.459 128.568 256.591 135.282 263.42 147.917C269.66 159.455 271.319 173.321 279.88 183.629C282.963 187.333 287.189 190.501 292.029 190.745C298.342 191.074 303.71 186.529 308.353 182.277C312.554 178.438 316.792 174.576 321.681 171.64C330.464 166.364 341.249 165.231 350.363 170.494C355.682 173.565 359.785 178.877 360.755 184.896C362.057 192.877 357.954 200.736 353.078 207.205C348.201 213.675 342.33 219.585 339.136 227.017C337.269 231.379 336.421 236.484 338.362 240.81C340.487 245.574 345.609 248.461 350.768 249.424C355.928 250.386 361.234 249.741 366.467 249.266C372.793 248.693 381.183 248.218 386.796 251.727C391.218 254.468 393.994 259.354 395.026 264.398C396.672 272.416 395.198 280.823 391.427 288.036L391.452 288.072Z" fill="#EBEEF2"/>
<path d="M115.624 288.267H88.6367" stroke="#94A1AE" stroke-width="0.62"/>
<path d="M273.959 288.267H145.006" stroke="#94A1AE" stroke-width="0.62"/>
<path fill-rule="evenodd" clip-rule="evenodd" d="M69.5122 177.646C72.8779 151.487 89.2396 126.412 113.708 116.092C122.11 112.546 132.06 110.865 140.192 114.959C146.763 118.273 151.026 124.742 156.652 129.482C170.078 140.789 189.412 141.021 207.027 140.862C224.641 140.704 244.086 141.423 256.996 153.302C267.339 162.818 271.097 178.207 268.137 191.89C265.177 205.573 256.198 217.513 244.934 225.945C233.67 234.376 220.256 239.579 206.597 243.1C193.048 246.585 178.48 248.815 167.645 257.6C162.069 262.12 157.855 268.115 152.193 272.525C144.798 278.276 135.057 280.969 125.722 279.836C93.4774 275.937 75.6417 235.193 70.5195 207.717C68.6769 197.811 68.2347 187.638 69.5122 177.646Z" fill="#EBEEF2"/>
<path d="M251.555 155.386C253.803 148.892 258.532 142.86 265.14 140.801C269.71 139.376 274.648 139.973 279.389 140.594C284.34 141.228 289.486 141.934 293.65 144.664C300.763 149.318 303.195 158.517 308.968 164.719C312.518 168.533 317.235 171.116 320.822 174.881C325.317 179.62 327.811 186.188 327.516 192.694C327.221 199.2 324.151 205.536 319.188 209.788C314.397 213.895 308.096 215.978 301.782 216.551C295.468 217.123 289.13 216.258 282.915 215.04C276.847 213.846 270.779 212.286 265.361 209.338C259.944 206.389 255.178 201.917 252.906 196.215C249.761 188.332 251.702 179.45 253.864 171.25C253.655 172.03 249.933 174.783 249.344 174.43C248.435 173.882 249.221 169.13 249.282 168.167C249.553 163.842 250.13 159.504 251.542 155.386H251.555Z" fill="#EBEEF2"/>
<path d="M356.162 195.643C360.031 195.034 364.023 194.778 367.831 195.667C371.639 196.557 375.275 198.738 377.228 202.1C379.967 206.803 378.985 212.701 377.584 217.94C376.184 223.179 374.391 228.674 375.779 233.913C377.474 240.383 383.738 245.403 383.824 252.092C383.873 256.308 381.343 260.195 378.137 262.961C373.654 266.823 367.696 268.968 361.763 268.846C355.83 268.724 349.959 266.36 345.635 262.315C343.51 260.329 341.704 257.929 339.137 256.527C333.953 253.688 326.878 255.614 322.149 252.068C318.55 249.375 317.616 244.489 316.953 240.054C316.388 236.289 315.835 232.342 317.112 228.747C318.451 224.982 321.584 222.18 324.605 219.548C328.978 215.735 333.339 211.933 337.712 208.119C336.963 208.765 332.872 204.781 333.241 203.782C333.744 202.405 339.051 200.724 340.39 200.163C345.426 198.006 350.732 196.471 356.162 195.618V195.643Z" fill="#EBEEF2"/>
<path d="M312.087 151.06V262.376C312.087 263.35 311.706 264.289 311.006 264.983C310.305 265.665 309.36 266.043 308.377 266.031H111.951C109.924 266.031 108.266 264.398 108.266 262.376V151.06H312.087Z" fill="white"/>
<path d="M111.743 133.6H308.169C310.208 133.6 311.854 135.233 311.854 137.256V150.585H108.033V137.256C108.033 136.281 108.426 135.343 109.126 134.66C109.827 133.978 110.772 133.588 111.743 133.6Z" fill="#293138" stroke="#293138" stroke-width="0.5"/>
<path d="M219.113 87.6294C240.253 100.508 300.123 142.312 300.123 142.312" stroke="#94A1AE" stroke-width="0.5"/>
<path d="M211.51 69.2431V74.9088C211.51 74.9088 215.232 78.5762 215.6 81.4517C216.141 85.6431 210.343 86.9346 208.795 82.8286C208.795 82.8286 208.476 77.2482 205.442 77.1141C205.442 77.1141 202.518 77.1872 205.442 79.7703C205.442 79.7703 202.825 90.2853 212.726 90.4193C222.627 90.5534 221.705 80.2942 221.705 80.2942C221.705 80.2942 221.816 76.2856 216.178 74.2874V68.1709L211.498 69.2553L211.51 69.2431Z" fill="#3A454F"/>
<path d="M218.732 72.3989H210.146L206.424 57.8996C206.007 54.4271 207.911 51.0765 211.129 49.6509C213.229 48.7127 215.649 48.7127 217.75 49.6509C220.968 51.0886 222.872 54.4271 222.454 57.8996L218.732 72.3989Z" fill="#CFD6DD" stroke="#94A1AE" stroke-width="0.5"/>
<path d="M214.433 62.0057C216.496 62.0057 218.168 60.3473 218.168 58.3017C218.168 56.256 216.496 54.5977 214.433 54.5977C212.371 54.5977 210.699 56.256 210.699 58.3017C210.699 60.3473 212.371 62.0057 214.433 62.0057Z" fill="#94A1AE" stroke="#CFD6DD" stroke-width="0.5"/>
<path d="M114.52 142.312C114.52 142.312 202.715 85.2412 212.935 84.9731" stroke="#94A1AE" stroke-width="0.5"/>
<path d="M115.17 144.895C116.954 144.895 118.401 143.461 118.401 141.691C118.401 139.921 116.954 138.486 115.17 138.486C113.386 138.486 111.939 139.921 111.939 141.691C111.939 143.461 113.386 144.895 115.17 144.895Z" fill="white"/>
<path d="M115.171 143.055C115.93 143.055 116.546 142.444 116.546 141.691C116.546 140.937 115.93 140.326 115.171 140.326C114.411 140.326 113.795 140.937 113.795 141.691C113.795 142.444 114.411 143.055 115.171 143.055Z" fill="#94A1AE"/>
<path d="M300.123 144.895C301.907 144.895 303.354 143.461 303.354 141.691C303.354 139.921 301.907 138.486 300.123 138.486C298.339 138.486 296.893 139.921 296.893 141.691C296.893 143.461 298.339 144.895 300.123 144.895Z" fill="white"/>
<path d="M300.124 143.055C300.884 143.055 301.5 142.444 301.5 141.691C301.5 140.937 300.884 140.326 300.124 140.326C299.364 140.326 298.748 140.937 298.748 141.691C298.748 142.444 299.364 143.055 300.124 143.055Z" fill="#94A1AE"/>
<path d="M212.922 84.6562C212.922 84.6562 213.45 84.8025 213.61 85.0583L212.946 85.2655L212.922 84.6684V84.6562Z" fill="#94A1AE"/>
<path d="M312.087 235.522V262.376C312.087 263.35 311.706 264.289 311.006 264.983C310.305 265.665 309.36 266.043 308.377 266.031H111.951C109.924 266.031 108.266 264.398 108.266 262.376V137.256C108.266 135.233 109.924 133.6 111.951 133.6H308.377C310.416 133.6 312.074 135.233 312.087 137.256V229.064" stroke="#293138" stroke-width="0.5"/>
<path d="M222.504 20.3965V57.8874" stroke="#94A1AE" stroke-width="0.5"/>
<path d="M206.363 20.3965V57.8874" stroke="#94A1AE" stroke-width="0.5"/>
<path d="M198.685 165.828H130.474C129.117 165.828 128.018 166.919 128.018 168.264V186.894C128.018 188.24 129.117 189.331 130.474 189.331H198.685C200.042 189.331 201.142 188.24 201.142 186.894V168.264C201.142 166.919 200.042 165.828 198.685 165.828Z" fill="white" stroke="#C4DCF8" stroke-width="0.25"/>
<path d="M147.451 168.557H133.693C132.477 168.557 131.482 169.544 131.482 170.75V184.396C131.482 185.603 132.477 186.59 133.693 186.59H147.451C148.667 186.59 149.662 185.603 149.662 184.396V170.75C149.662 169.544 148.667 168.557 147.451 168.557Z" fill="#E6F1FB"/>
<path fill-rule="evenodd" clip-rule="evenodd" d="M135.61 172.419C135.511 172.419 135.425 172.505 135.425 172.602V182.557C135.425 182.654 135.511 182.739 135.61 182.739H138.189C138.287 182.739 138.373 182.654 138.373 182.557V172.602C138.373 172.505 138.287 172.419 138.189 172.419H135.61ZM134.332 172.602C134.332 171.908 134.897 171.335 135.61 171.335H138.189C138.889 171.335 139.467 171.895 139.467 172.602V182.557C139.467 183.251 138.902 183.824 138.189 183.824H135.61C134.909 183.824 134.332 183.263 134.332 182.557V172.602Z" fill="#C4DCF8"/>
<path fill-rule="evenodd" clip-rule="evenodd" d="M142.194 172.419C142.095 172.419 142.009 172.505 142.009 172.602V175.892C142.009 175.989 142.095 176.075 142.194 176.075H145.51C145.608 176.075 145.694 175.989 145.694 175.892V172.602C145.694 172.505 145.608 172.419 145.51 172.419H142.194ZM140.916 172.602C140.916 171.908 141.481 171.335 142.194 171.335H145.51C146.21 171.335 146.788 171.895 146.788 172.602V175.892C146.788 176.586 146.223 177.159 145.51 177.159H142.194C141.493 177.159 140.916 176.599 140.916 175.892V172.602Z" fill="#C4DCF8"/>
<path fill-rule="evenodd" clip-rule="evenodd" d="M143.852 179.084C142.832 179.084 142.009 179.9 142.009 180.912C142.009 181.923 142.832 182.739 143.852 182.739C144.871 182.739 145.694 181.923 145.694 180.912C145.694 179.9 144.871 179.084 143.852 179.084ZM140.916 180.912C140.916 179.303 142.23 178 143.852 178C145.473 178 146.788 179.303 146.788 180.912C146.788 182.52 145.473 183.824 143.852 183.824C142.23 183.824 140.916 182.52 140.916 180.912Z" fill="#C4DCF8"/>
<path d="M189.927 181.959C192.372 181.959 194.337 179.998 194.337 177.585C194.337 175.173 192.36 173.211 189.927 173.211C187.495 173.211 185.518 175.173 185.518 177.585C185.518 179.998 187.495 181.959 189.927 181.959Z" fill="#E6F1FB"/>
<path d="M155.557 177.573H178.502" stroke="#E6F1FB" stroke-width="3" stroke-miterlimit="10" stroke-linecap="round"/>
<path d="M189.926 183.178C193.058 183.178 195.576 180.668 195.576 177.573C195.576 174.478 193.046 171.969 189.926 171.969C186.806 171.969 184.275 174.478 184.275 177.573C184.275 180.668 186.806 183.178 189.926 183.178Z" fill="#E7F0F9"/>
<path d="M189.201 179.657C189.053 179.657 188.93 179.608 188.844 179.498L187.149 177.817C186.965 177.61 186.977 177.305 187.149 177.11C187.358 176.903 187.665 176.903 187.862 177.11L189.201 178.438L191.989 175.672C192.198 175.465 192.529 175.465 192.714 175.672C192.824 175.77 192.873 175.892 192.873 176.026C192.873 176.16 192.824 176.294 192.714 176.379L189.569 179.498C189.471 179.596 189.348 179.645 189.213 179.657H189.225H189.201Z" fill="#6BAC94"/>
<path d="M198.685 196.8H130.474C129.117 196.8 128.018 197.891 128.018 199.237V217.867C128.018 219.212 129.117 220.303 130.474 220.303H198.685C200.042 220.303 201.142 219.212 201.142 217.867V199.237C201.142 197.891 200.042 196.8 198.685 196.8Z" fill="white" stroke="#C4DCF8" stroke-width="0.25"/>
<path d="M147.451 199.529H133.693C132.477 199.529 131.482 200.516 131.482 201.722V215.369C131.482 216.575 132.477 217.562 133.693 217.562H147.451C148.667 217.562 149.662 216.575 149.662 215.369V201.722C149.662 200.516 148.667 199.529 147.451 199.529Z" fill="#E6F1FB"/>
<path d="M189.927 212.92C192.372 212.92 194.337 210.958 194.337 208.546C194.337 206.133 192.36 204.172 189.927 204.172C187.495 204.172 185.518 206.133 185.518 208.546C185.518 210.958 187.495 212.92 189.927 212.92Z" fill="#E6F1FB"/>
<path d="M155.557 208.546H178.502" stroke="#E6F1FB" stroke-width="3" stroke-miterlimit="10" stroke-linecap="round"/>
<path d="M145.326 215.015H135.794C135.56 215.015 135.339 214.967 135.118 214.881C134.909 214.796 134.713 214.662 134.553 214.504C134.393 214.345 134.258 214.15 134.172 213.943C134.086 213.736 134.037 213.505 134.037 213.273V212.079C134.037 210.995 134.467 209.947 135.229 209.167C135.99 208.387 137.034 207.936 138.128 207.9C138.201 207.9 138.275 207.9 138.349 207.936C138.422 207.961 138.484 208.01 138.533 208.058C139.073 208.57 139.798 208.85 140.547 208.85C141.297 208.85 142.009 208.57 142.562 208.058C142.672 207.961 142.82 207.9 142.967 207.9C144.06 207.936 145.105 208.387 145.866 209.167C146.628 209.947 147.058 210.995 147.058 212.079V213.273C147.058 213.505 147.009 213.724 146.923 213.943C146.837 214.15 146.701 214.345 146.542 214.504C146.382 214.662 146.186 214.796 145.977 214.881C145.768 214.967 145.535 215.015 145.301 215.015H145.326ZM137.968 209.033C137.206 209.118 136.506 209.472 135.99 210.032C135.474 210.593 135.192 211.324 135.179 212.091V213.285C135.179 213.456 135.253 213.614 135.364 213.724C135.487 213.846 135.646 213.907 135.806 213.907H145.326C145.498 213.907 145.657 213.846 145.768 213.724C145.891 213.602 145.952 213.444 145.952 213.285V212.091C145.952 211.336 145.657 210.593 145.141 210.032C144.626 209.472 143.925 209.118 143.151 209.033C142.414 209.63 141.505 209.959 140.547 209.959C139.589 209.959 138.68 209.63 137.943 209.033H137.968Z" fill="#C4DCF8"/>
<path d="M140.561 209.995C139.774 209.995 139.001 209.764 138.337 209.338C137.674 208.899 137.17 208.29 136.863 207.559C136.556 206.84 136.482 206.036 136.63 205.268C136.777 204.5 137.158 203.794 137.723 203.233C138.276 202.673 138.988 202.295 139.762 202.149C140.536 201.99 141.334 202.076 142.072 202.368C142.796 202.673 143.423 203.172 143.865 203.83C144.307 204.476 144.54 205.244 144.54 206.036C144.54 207.083 144.123 208.095 143.374 208.838C142.624 209.581 141.617 209.995 140.561 209.995ZM140.561 203.197C139.996 203.197 139.431 203.367 138.964 203.684C138.485 204.001 138.116 204.439 137.907 204.963C137.686 205.487 137.637 206.06 137.748 206.608C137.858 207.157 138.128 207.668 138.534 208.07C138.939 208.472 139.455 208.741 140.008 208.85C140.561 208.96 141.15 208.899 141.666 208.68C142.194 208.46 142.637 208.095 142.956 207.62C143.275 207.144 143.435 206.596 143.435 206.036C143.435 205.658 143.361 205.292 143.214 204.951C143.066 204.61 142.858 204.293 142.587 204.025C142.317 203.757 141.998 203.55 141.654 203.404C141.31 203.258 140.929 203.184 140.548 203.184L140.561 203.197Z" fill="#C4DCF8"/>
<path d="M189.926 214.15C193.058 214.15 195.576 211.64 195.576 208.546C195.576 205.451 193.046 202.941 189.926 202.941C186.806 202.941 184.275 205.451 184.275 208.546C184.275 211.64 186.806 214.15 189.926 214.15Z" fill="#E7F0F9"/>
<path d="M189.201 210.629C189.053 210.629 188.93 210.58 188.844 210.471L187.149 208.789C186.965 208.582 186.977 208.278 187.149 208.083C187.358 207.875 187.665 207.875 187.862 208.083L189.201 209.411L191.989 206.645C192.198 206.438 192.529 206.438 192.714 206.645C192.824 206.742 192.873 206.864 192.873 206.998C192.873 207.132 192.824 207.266 192.714 207.352L189.569 210.471C189.471 210.568 189.348 210.617 189.213 210.629H189.225H189.201Z" fill="#6BAC94"/>
<path d="M198.685 227.76H130.474C129.117 227.76 128.018 228.851 128.018 230.197V248.827C128.018 250.173 129.117 251.264 130.474 251.264H198.685C200.042 251.264 201.142 250.173 201.142 248.827V230.197C201.142 228.851 200.042 227.76 198.685 227.76Z" fill="white" stroke="#C4DCF8" stroke-width="0.25"/>
<path d="M147.451 230.502H133.693C132.477 230.502 131.482 231.489 131.482 232.695V246.341C131.482 247.547 132.477 248.534 133.693 248.534H147.451C148.667 248.534 149.662 247.547 149.662 246.341V232.695C149.662 231.489 148.667 230.502 147.451 230.502Z" fill="#E6F1FB"/>
<path d="M189.927 243.892C192.372 243.892 194.337 241.931 194.337 239.518C194.337 237.106 192.36 235.144 189.927 235.144C187.495 235.144 185.518 237.106 185.518 239.518C185.518 241.931 187.495 243.892 189.927 243.892Z" fill="#E6F1FB"/>
<path d="M155.557 239.518H178.502" stroke="#E6F1FB" stroke-width="3" stroke-miterlimit="10" stroke-linecap="round"/>
<path d="M138.225 245.951H135.683C135.474 245.951 135.265 245.915 135.069 245.842C134.872 245.769 134.7 245.647 134.553 245.501C134.405 245.354 134.282 245.184 134.209 244.989C134.135 244.794 134.086 244.587 134.086 244.38V241.845C134.086 241.638 134.135 241.431 134.209 241.248C134.282 241.065 134.405 240.883 134.553 240.749C134.7 240.602 134.872 240.493 135.069 240.42C135.265 240.347 135.474 240.31 135.671 240.31H138.213C138.631 240.31 139.024 240.468 139.319 240.761C139.614 241.053 139.773 241.443 139.786 241.845V244.38C139.786 244.587 139.749 244.794 139.675 244.977C139.601 245.172 139.478 245.342 139.343 245.488C139.196 245.635 139.024 245.744 138.84 245.83C138.643 245.915 138.447 245.951 138.238 245.951H138.225ZM135.683 241.407C135.683 241.407 135.56 241.407 135.511 241.443C135.462 241.468 135.4 241.492 135.363 241.541C135.327 241.577 135.29 241.626 135.265 241.687C135.241 241.736 135.228 241.797 135.228 241.857V244.392C135.228 244.514 135.277 244.623 135.363 244.709C135.449 244.794 135.56 244.843 135.683 244.843H138.225C138.225 244.843 138.348 244.843 138.41 244.818C138.471 244.794 138.52 244.77 138.569 244.721C138.619 244.684 138.655 244.635 138.68 244.575C138.705 244.514 138.717 244.465 138.717 244.404V241.87C138.717 241.87 138.717 241.748 138.68 241.699C138.655 241.65 138.619 241.602 138.582 241.553C138.545 241.516 138.483 241.48 138.434 241.455C138.385 241.431 138.324 241.419 138.262 241.419H135.695L135.683 241.407Z" fill="#C4DCF8"/>
<path d="M144.256 245.951C143.691 245.964 143.139 245.805 142.659 245.513C142.18 245.22 141.812 244.782 141.591 244.27C141.37 243.758 141.296 243.186 141.394 242.637C141.493 242.089 141.763 241.577 142.156 241.175C142.549 240.773 143.053 240.493 143.605 240.383C144.158 240.261 144.735 240.322 145.251 240.529C145.779 240.737 146.222 241.09 146.541 241.553C146.86 242.016 147.032 242.564 147.032 243.125C147.032 243.868 146.75 244.575 146.234 245.111C145.718 245.647 145.006 245.951 144.256 245.964V245.951ZM144.256 241.37C143.912 241.37 143.581 241.468 143.298 241.65C143.016 241.833 142.795 242.101 142.659 242.418C142.524 242.735 142.488 243.076 142.561 243.405C142.623 243.734 142.795 244.051 143.028 244.282C143.274 244.526 143.581 244.684 143.912 244.757C144.244 244.818 144.6 244.794 144.907 244.66C145.227 244.526 145.497 244.306 145.681 244.026C145.878 243.746 145.976 243.417 145.976 243.076C145.976 242.625 145.792 242.186 145.472 241.87C145.153 241.553 144.711 241.37 144.256 241.358V241.37Z" fill="#C4DCF8"/>
<path d="M136.96 238.702C136.395 238.702 135.854 238.543 135.387 238.239C134.921 237.934 134.552 237.496 134.343 236.984C134.122 236.472 134.073 235.912 134.171 235.363C134.27 234.815 134.54 234.315 134.933 233.913C135.326 233.523 135.83 233.243 136.382 233.134C136.935 233.024 137.5 233.073 138.016 233.28C138.532 233.487 138.986 233.84 139.294 234.303C139.613 234.766 139.785 235.302 139.785 235.863C139.785 236.228 139.723 236.606 139.576 236.947C139.441 237.288 139.232 237.605 138.962 237.873C138.704 238.141 138.385 238.348 138.041 238.495C137.697 238.641 137.328 238.714 136.947 238.714L136.96 238.702ZM136.96 234.181C136.616 234.181 136.284 234.291 136.014 234.486C135.731 234.681 135.522 234.949 135.387 235.266C135.265 235.583 135.24 235.924 135.301 236.253C135.375 236.582 135.547 236.886 135.78 237.118C136.026 237.349 136.333 237.508 136.665 237.569C136.997 237.63 137.34 237.593 137.66 237.459C137.967 237.325 138.237 237.106 138.421 236.813C138.606 236.533 138.704 236.204 138.692 235.863C138.692 235.644 138.643 235.412 138.544 235.217C138.458 235.01 138.323 234.827 138.163 234.669C138.004 234.51 137.807 234.389 137.598 234.303C137.39 234.218 137.168 234.181 136.935 234.181H136.96Z" fill="#C4DCF8"/>
<path d="M136.961 241.419C136.887 241.419 136.814 241.407 136.752 241.382C136.691 241.358 136.629 241.309 136.568 241.261C136.519 241.212 136.47 241.151 136.445 241.078C136.42 241.017 136.408 240.944 136.408 240.871V238.166C136.408 238.02 136.47 237.885 136.568 237.776C136.666 237.678 136.814 237.617 136.961 237.617C137.108 237.617 137.243 237.678 137.354 237.776C137.465 237.873 137.514 238.02 137.514 238.166V240.871C137.514 240.944 137.501 241.017 137.477 241.078C137.452 241.139 137.403 241.2 137.354 241.261C137.305 241.309 137.243 241.358 137.17 241.382C137.108 241.407 137.035 241.419 136.961 241.419Z" fill="#C4DCF8"/>
<path d="M139.232 236.435C139.085 236.435 138.95 236.375 138.839 236.277C138.729 236.18 138.68 236.033 138.68 235.887C138.68 235.741 138.741 235.607 138.839 235.497C138.938 235.4 139.085 235.339 139.232 235.339H141.419C141.566 235.339 141.701 235.4 141.812 235.497C141.91 235.595 141.972 235.741 141.972 235.887C141.972 236.033 141.91 236.167 141.812 236.277C141.714 236.375 141.566 236.435 141.419 236.435H139.232Z" fill="#C4DCF8"/>
<path d="M144.256 241.37C144.108 241.37 143.973 241.309 143.863 241.212C143.765 241.114 143.703 240.968 143.703 240.822V238.677C143.703 238.531 143.765 238.397 143.863 238.288C143.961 238.19 144.108 238.129 144.256 238.129C144.403 238.129 144.538 238.19 144.649 238.288C144.747 238.385 144.809 238.531 144.809 238.677V240.858C144.809 240.992 144.735 241.126 144.637 241.224C144.538 241.321 144.403 241.37 144.256 241.37Z" fill="#C4DCF8"/>
<path d="M144.159 238.921C143.815 238.921 143.484 238.775 143.238 238.531L141.629 236.948C141.383 236.704 141.248 236.375 141.248 236.034C141.248 235.693 141.383 235.364 141.629 235.12L143.226 233.536C143.471 233.292 143.803 233.158 144.147 233.158C144.491 233.158 144.823 233.292 145.068 233.536L146.665 235.12C146.911 235.364 147.046 235.693 147.046 236.034C147.046 236.375 146.911 236.704 146.665 236.948L145.081 238.531C144.958 238.653 144.81 238.751 144.651 238.812C144.491 238.873 144.319 238.909 144.147 238.909L144.159 238.921ZM144.159 234.23C144.159 234.23 144.049 234.255 144.012 234.291L142.415 235.863C142.415 235.863 142.354 235.948 142.354 236.009C142.354 236.034 142.354 236.07 142.366 236.095C142.366 236.119 142.39 236.143 142.415 236.156L144.012 237.739C144.012 237.739 144.049 237.788 144.073 237.8C144.098 237.813 144.122 237.825 144.159 237.825C144.196 237.825 144.221 237.825 144.245 237.8C144.27 237.788 144.294 237.764 144.307 237.739L145.904 236.156C145.904 236.156 145.94 236.119 145.953 236.095C145.953 236.07 145.965 236.046 145.965 236.009C145.965 235.973 145.965 235.961 145.953 235.924C145.953 235.9 145.928 235.875 145.904 235.863L144.307 234.291C144.307 234.291 144.208 234.23 144.159 234.23Z" fill="#C4DCF8"/>
<path d="M186.315 236.984C185.811 237.703 185.504 238.568 185.504 239.506C185.504 241.918 187.482 243.88 189.914 243.88C192.346 243.88 194.323 241.918 194.323 239.506C194.323 237.094 192.346 235.132 189.914 235.132" stroke="#53AF94" stroke-width="0.75" stroke-miterlimit="10" stroke-linecap="round"/>
<path d="M279.769 165.828H211.558C210.201 165.828 209.102 166.919 209.102 168.264V186.894C209.102 188.24 210.201 189.331 211.558 189.331H279.769C281.126 189.331 282.226 188.24 282.226 186.894V168.264C282.226 166.919 281.126 165.828 279.769 165.828Z" fill="white" stroke="#C4DCF8" stroke-width="0.25"/>
<path d="M228.535 168.557H214.777C213.561 168.557 212.566 169.544 212.566 170.75V184.396C212.566 185.603 213.561 186.59 214.777 186.59H228.535C229.751 186.59 230.746 185.603 230.746 184.396V170.75C230.746 169.544 229.751 168.557 228.535 168.557Z" fill="#E6F1FB"/>
<path d="M271.011 181.959C273.456 181.959 275.421 179.998 275.421 177.585C275.421 175.173 273.444 173.211 271.011 173.211C268.579 173.211 266.602 175.173 266.602 177.585C266.602 179.998 268.579 181.959 271.011 181.959Z" fill="#E6F1FB"/>
<path d="M236.641 177.573H259.586" stroke="#E6F1FB" stroke-width="3" stroke-miterlimit="10" stroke-linecap="round"/>
<path d="M223.254 180.852C223.1 180.852 222.952 180.791 222.844 180.683C222.735 180.575 222.674 180.429 222.674 180.277V178.657C222.674 178.504 222.735 178.358 222.844 178.25C222.952 178.142 223.1 178.082 223.254 178.082C223.407 178.082 223.555 178.142 223.664 178.25C223.772 178.358 223.833 178.504 223.833 178.657V180.277C223.833 180.429 223.772 180.575 223.664 180.683C223.555 180.791 223.407 180.852 223.254 180.852Z" fill="#C4DCF8"/>
<path d="M225.737 179.376C225.587 179.387 225.437 179.338 225.322 179.242L224.491 178.398C224.437 178.345 224.394 178.281 224.365 178.211C224.335 178.141 224.32 178.066 224.32 177.991C224.32 177.915 224.335 177.84 224.365 177.77C224.394 177.7 224.437 177.637 224.491 177.583C224.544 177.53 224.607 177.488 224.677 177.459C224.746 177.43 224.821 177.415 224.897 177.415C224.972 177.415 225.047 177.43 225.117 177.459C225.186 177.488 225.25 177.53 225.303 177.583L226.134 178.427C226.189 178.479 226.233 178.542 226.264 178.611C226.295 178.68 226.312 178.755 226.314 178.83C226.316 178.906 226.302 178.981 226.275 179.052C226.247 179.123 226.206 179.187 226.153 179.242C226.036 179.336 225.888 179.384 225.737 179.376Z" fill="#C4DCF8"/>
<path d="M226.743 180.383C226.651 180.384 226.56 180.364 226.478 180.324C226.396 180.284 226.324 180.225 226.269 180.153L226.153 180.018C226.061 179.891 226.023 179.733 226.049 179.578C226.074 179.424 226.16 179.286 226.289 179.194C226.417 179.103 226.576 179.065 226.732 179.09C226.888 179.116 227.027 179.201 227.12 179.328L227.226 179.462C227.271 179.523 227.304 179.593 227.322 179.666C227.34 179.74 227.343 179.816 227.332 179.891C227.32 179.966 227.293 180.038 227.254 180.102C227.214 180.167 227.162 180.223 227.1 180.268C227.001 180.35 226.872 180.392 226.743 180.383Z" fill="#C4DCF8"/>
<path d="M227.419 176.883H225.486C225.332 176.883 225.185 176.823 225.076 176.715C224.967 176.607 224.906 176.461 224.906 176.308C224.906 176.156 224.967 176.009 225.076 175.902C225.185 175.794 225.332 175.733 225.486 175.733H227.419C227.573 175.733 227.72 175.794 227.829 175.902C227.938 176.009 227.999 176.156 227.999 176.308C227.999 176.461 227.938 176.607 227.829 176.715C227.72 176.823 227.573 176.883 227.419 176.883Z" fill="#C4DCF8"/>
<path d="M215.522 184.648C215.419 184.646 215.318 184.615 215.232 184.558C215.146 184.5 215.079 184.419 215.039 184.324C214.999 184.23 214.988 184.126 215.007 184.025C215.026 183.924 215.074 183.83 215.145 183.756L223.253 175.551C223.302 175.501 223.36 175.462 223.425 175.434C223.489 175.407 223.558 175.392 223.628 175.391C223.698 175.391 223.768 175.403 223.833 175.429C223.898 175.455 223.957 175.493 224.007 175.541C224.057 175.59 224.097 175.648 224.125 175.712C224.152 175.775 224.167 175.844 224.168 175.913C224.169 175.983 224.156 176.052 224.13 176.116C224.104 176.181 224.065 176.239 224.017 176.289L215.899 184.494C215.85 184.544 215.791 184.583 215.726 184.609C215.662 184.635 215.592 184.649 215.522 184.648Z" fill="#C4DCF8"/>
<path d="M224.77 175.312C224.614 175.311 224.464 175.249 224.354 175.139C224.3 175.086 224.257 175.022 224.228 174.952C224.199 174.882 224.184 174.807 224.184 174.732C224.184 174.656 224.199 174.581 224.228 174.511C224.257 174.441 224.3 174.378 224.354 174.324L225.079 173.615C225.133 173.561 225.197 173.519 225.267 173.49C225.338 173.461 225.413 173.446 225.49 173.446C225.566 173.446 225.641 173.461 225.712 173.49C225.782 173.519 225.846 173.561 225.9 173.615C226.007 173.724 226.067 173.87 226.067 174.022C226.067 174.174 226.007 174.321 225.9 174.43L225.185 175.149C225.131 175.202 225.066 175.244 224.994 175.272C224.923 175.3 224.846 175.314 224.77 175.312Z" fill="#C4DCF8"/>
<path d="M226.587 173.538C226.472 173.544 226.358 173.517 226.26 173.459C226.161 173.401 226.081 173.315 226.032 173.213C225.982 173.11 225.964 172.995 225.98 172.882C225.997 172.769 226.046 172.664 226.123 172.579L226.22 172.445C226.312 172.324 226.449 172.243 226.6 172.22C226.752 172.196 226.906 172.233 227.031 172.321C227.092 172.366 227.144 172.423 227.182 172.488C227.221 172.553 227.247 172.625 227.258 172.699C227.268 172.774 227.264 172.85 227.245 172.923C227.226 172.997 227.193 173.065 227.147 173.126L227.051 173.26C227.002 173.34 226.934 173.407 226.853 173.455C226.772 173.503 226.681 173.532 226.587 173.538Z" fill="#C4DCF8"/>
<path d="M223.254 174.669C223.1 174.669 222.952 174.609 222.844 174.501C222.735 174.393 222.674 174.247 222.674 174.094V172.177C222.674 172.024 222.735 171.878 222.844 171.77C222.952 171.662 223.1 171.602 223.254 171.602C223.407 171.602 223.555 171.662 223.664 171.77C223.772 171.878 223.833 172.024 223.833 172.177V174.094C223.833 174.247 223.772 174.393 223.664 174.501C223.555 174.609 223.407 174.669 223.254 174.669Z" fill="#C4DCF8"/>
<path d="M221.658 175.273C221.585 175.275 221.513 175.262 221.445 175.236C221.377 175.209 221.315 175.17 221.262 175.12L220.547 174.449C220.464 174.341 220.422 174.208 220.428 174.073C220.434 173.938 220.488 173.809 220.581 173.71C220.673 173.61 220.798 173.546 220.933 173.529C221.068 173.511 221.205 173.542 221.32 173.615L222.035 174.286C222.142 174.395 222.202 174.541 222.202 174.693C222.202 174.845 222.142 174.991 222.035 175.101C221.934 175.201 221.801 175.262 221.658 175.273Z" fill="#C4DCF8"/>
<path d="M220.084 173.644C219.954 173.632 219.832 173.578 219.736 173.49L219.591 173.385C219.463 173.294 219.377 173.155 219.351 173.001C219.326 172.846 219.364 172.688 219.456 172.561C219.548 172.434 219.688 172.348 219.843 172.323C219.999 172.298 220.159 172.335 220.287 172.426L220.432 172.542C220.494 172.586 220.546 172.642 220.586 172.707C220.625 172.772 220.651 172.845 220.662 172.92C220.673 172.995 220.668 173.071 220.649 173.145C220.629 173.218 220.595 173.287 220.548 173.347C220.504 173.432 220.438 173.505 220.356 173.557C220.275 173.609 220.181 173.639 220.084 173.644Z" fill="#C4DCF8"/>
<path d="M220.954 176.922H219.021C218.867 176.922 218.72 176.861 218.611 176.754C218.502 176.646 218.441 176.499 218.441 176.347C218.441 176.194 218.502 176.048 218.611 175.94C218.72 175.832 218.867 175.772 219.021 175.772H220.954C221.108 175.772 221.255 175.832 221.364 175.94C221.473 176.048 221.534 176.194 221.534 176.347C221.534 176.499 221.473 176.646 221.364 176.754C221.255 176.861 221.108 176.922 220.954 176.922Z" fill="#C4DCF8"/>
<path d="M279.769 196.8H211.558C210.201 196.8 209.102 197.891 209.102 199.237V217.867C209.102 219.212 210.201 220.303 211.558 220.303H279.769C281.126 220.303 282.226 219.212 282.226 217.867V199.237C282.226 197.891 281.126 196.8 279.769 196.8Z" fill="white" stroke="#C4DCF8" stroke-width="0.25"/>
<path d="M228.535 199.529H214.777C213.561 199.529 212.566 200.516 212.566 201.722V215.369C212.566 216.575 213.561 217.562 214.777 217.562H228.535C229.751 217.562 230.746 216.575 230.746 215.369V201.722C230.746 200.516 229.751 199.529 228.535 199.529Z" fill="#E6F1FB"/>
<path d="M271.011 212.92C273.456 212.92 275.421 210.958 275.421 208.546C275.421 206.133 273.444 204.172 271.011 204.172C268.579 204.172 266.602 206.133 266.602 208.546C266.602 210.958 268.579 212.92 271.011 212.92Z" fill="#E6F1FB"/>
<path d="M236.641 208.546H259.586" stroke="#E6F1FB" stroke-width="3" stroke-miterlimit="10" stroke-linecap="round"/>
<path d="M267.498 211.19C268.309 212.238 269.574 212.92 271.011 212.92C273.456 212.92 275.421 210.958 275.421 208.546C275.421 206.133 273.443 204.172 271.011 204.172" stroke="#53AF94" stroke-width="0.75" stroke-miterlimit="10" stroke-linecap="round"/>
<path d="M227.11 202.454H216.19C215.809 202.454 215.502 202.758 215.502 203.136V213.968C215.502 214.345 215.809 214.65 216.19 214.65H220.624C220.808 214.65 220.968 214.504 220.968 214.309C220.968 214.114 220.821 213.968 220.624 213.968H216.19V205.841H227.11V207.534C227.11 207.717 227.257 207.876 227.454 207.876C227.65 207.876 227.798 207.729 227.798 207.534V203.136C227.798 202.758 227.491 202.454 227.11 202.454ZM216.19 205.159V203.124H227.11V205.159H216.19Z" fill="#C4DCF8"/>
<path d="M224.038 207.193C221.974 207.193 220.279 208.863 220.279 210.922C220.279 212.981 221.962 214.65 224.038 214.65C226.114 214.65 227.797 212.981 227.797 210.922C227.797 208.863 226.114 207.193 224.038 207.193ZM224.038 213.968C222.343 213.968 220.967 212.603 220.967 210.922C220.967 209.24 222.343 207.876 224.038 207.876C225.733 207.876 227.109 209.24 227.109 210.922C227.109 212.603 225.733 213.968 224.038 213.968Z" fill="#C4DCF8"/>
<path d="M224.284 209.326C224.284 209.326 224.149 209.24 224.063 209.24C224.039 209.24 224.014 209.24 223.989 209.24C223.965 209.24 223.928 209.24 223.903 209.24C223.879 209.24 223.854 209.277 223.83 209.301C223.818 209.301 223.805 209.301 223.793 209.313L222.429 210.666C222.294 210.8 222.294 211.007 222.429 211.141C222.491 211.202 222.589 211.238 222.675 211.238C222.761 211.238 222.847 211.202 222.921 211.141L223.695 210.373V212.262C223.695 212.445 223.842 212.603 224.039 212.603C224.235 212.603 224.383 212.457 224.383 212.262V210.373L225.169 211.153C225.304 211.287 225.513 211.287 225.648 211.153C225.783 211.019 225.783 210.812 225.648 210.678L224.284 209.326Z" fill="#C4DCF8"/>
<path d="M266.835 176.16C266.688 176.599 266.602 177.086 266.602 177.573C266.602 179.986 268.579 181.948 271.011 181.948C273.444 181.948 275.421 179.986 275.421 177.573C275.421 175.161 273.444 173.199 271.011 173.199" stroke="#53AF94" stroke-width="0.75" stroke-miterlimit="10" stroke-linecap="round"/>
<path d="M266.688 209.423C267.093 211.421 268.874 212.92 271.011 212.92C273.456 212.92 275.421 210.958 275.421 208.546C275.421 206.133 273.443 204.172 271.011 204.172" stroke="#53AF94" stroke-width="0.75" stroke-miterlimit="10" stroke-linecap="round"/>
<path fill-rule="evenodd" clip-rule="evenodd" d="M88.7491 255.784L87.361 257.161C87.361 257.161 87.3365 257.161 87.3242 257.185L87.275 257.222C86.9557 257.441 86.5135 257.441 86.2187 257.161C85.9116 256.844 85.9116 256.332 86.2187 256.028L87.275 254.968L93.2571 249.034C93.859 248.437 94.1538 247.657 94.1538 246.865C94.1538 246.073 93.859 245.293 93.2571 244.696C92.0533 243.502 90.1002 243.502 88.9087 244.696L87.2382 246.341V246.305C86.8083 246.646 86.1818 246.646 85.7764 246.244C85.3465 245.817 85.3465 245.123 85.7764 244.672L87.2382 243.234V243.21L87.2628 243.185L93.1711 237.325C93.773 236.728 94.0678 235.948 94.0678 235.156C94.0678 234.364 93.773 233.609 93.1711 233.012C92.0288 231.878 90.1985 231.842 88.9947 232.865L88.2086 233.645C87.6804 234.169 86.796 234.169 86.2678 233.645C86.1081 233.487 85.9976 233.292 85.9484 233.097L85.8501 233.072V229.649C85.8501 228.162 84.6095 226.932 83.1109 226.932H83.0863C81.5878 226.932 80.3471 228.162 80.3471 229.649V232.122L80.3226 232.146C80.3226 232.561 80.1629 232.987 79.8435 233.304C79.217 233.925 78.2221 233.938 77.571 233.353H77.5342L77.092 232.926C76.5024 232.329 75.7162 232.037 74.9178 232.037C74.1194 232.037 73.3455 232.329 72.7436 232.926C71.5275 234.133 71.5275 236.045 72.7436 237.264L78.652 243.112V243.137L80.2366 244.708C80.6419 245.098 80.6419 245.781 80.2366 246.171C79.8189 246.597 79.1556 246.597 78.738 246.171L78.6397 246.073V246.097L77.178 244.648C76.5761 244.051 75.7899 243.734 74.9915 243.734C74.1931 243.734 73.4315 244.038 72.8296 244.648C71.6258 245.842 71.6258 247.767 72.8296 248.961L77.1902 253.286C77.1902 253.286 77.2271 253.311 77.2517 253.335L79.3153 255.394C79.7084 255.772 79.7084 256.381 79.3153 256.759C78.9345 257.136 78.3203 257.136 77.9395 256.759L76.9569 255.784C76.355 255.187 75.5688 254.894 74.7704 254.894C73.972 254.894 73.1981 255.187 72.5962 255.784C71.3924 256.978 71.3924 258.915 72.5962 260.097L80.5928 268.029C80.7033 268.139 80.8139 268.236 80.9367 268.309C81.0718 268.419 81.207 268.492 81.3421 268.577C82.509 269.272 84.0445 269.089 85.064 268.09L93.0606 260.17C93.6625 259.573 93.9573 258.793 93.9573 258.001C93.9573 257.209 93.6625 256.454 93.0606 255.857C91.8691 254.687 89.9897 254.663 88.7613 255.796" fill="#B2BCC5"/>
<path d="M82.9141 229.368V287.573" stroke="#687A8B" stroke-width="0.5"/>
<path d="M83.123 242.393L90.6897 234.888" stroke="#7E8D9C" stroke-width="0.5" stroke-linecap="round" stroke-linejoin="round"/>
<path d="M83.123 254.127L90.6897 246.621" stroke="#7E8D9C" stroke-width="0.5" stroke-linecap="round" stroke-linejoin="round"/>
<path d="M83.123 265.154L90.6897 257.648" stroke="#7E8D9C" stroke-width="0.5" stroke-linecap="round" stroke-linejoin="round"/>
<path d="M82.8772 242.625L75.3105 235.119" stroke="#7E8D9C" stroke-width="0.5" stroke-linecap="round" stroke-linejoin="round"/>
<path d="M82.8772 254.358L75.3105 246.853" stroke="#7E8D9C" stroke-width="0.5" stroke-linecap="round" stroke-linejoin="round"/>
<path d="M82.8772 265.385L75.3105 257.88" stroke="#7E8D9C" stroke-width="0.5" stroke-linecap="round" stroke-linejoin="round"/>
<path d="M274.205 200.516C274.205 200.516 276.207 201.016 278.001 199.456C279.794 197.897 281.072 194.79 281.121 194.168C281.121 194.168 285.002 199.749 287.631 201.211C290.26 202.673 291.685 205.097 293.527 205.183C295.37 205.268 303.538 200.967 305.786 200.138C308.034 199.31 309.741 198.177 311.965 199.675C314.188 201.174 313.77 204.671 313.205 205.853C312.64 207.035 299.227 213.115 297.151 213.919C295.075 214.723 291.795 215.32 289.068 213.687C286.341 212.055 280.703 207.973 280.052 207.327C279.401 206.681 274.525 201.674 274.34 201.345C274.156 201.016 274.205 200.504 274.205 200.504V200.516Z" fill="white"/>
<path d="M308.034 193.595C312.553 193.595 316.215 190.202 316.215 186.017C316.215 181.831 312.553 178.438 308.034 178.438C303.516 178.438 299.854 181.831 299.854 186.017C299.854 190.202 303.516 193.595 308.034 193.595Z" fill="white"/>
<path d="M310.527 234.827C310.355 234.327 310.527 233.779 310.945 233.45C313.229 231.415 315.256 229.113 316.964 226.59C318.253 224.763 319.383 222.838 320.342 220.827C320.624 220.206 320.587 219.463 320.231 218.866L313.512 207.644C312.431 206.316 312.198 204.488 312.935 202.941C313.659 201.393 315.232 200.394 316.951 200.382C318.671 200.382 320.256 201.345 321.017 202.88L329.395 216.88C329.8 217.464 330.058 218.147 330.132 218.853H330.181C330.807 225.567 322 235.972 319.248 239.055C318.72 239.615 317.922 239.822 317.185 239.603" stroke="#131733" stroke-width="0.61" stroke-linecap="round" stroke-linejoin="round"/>
<path d="M316.891 237.325L315.785 238.604" stroke="#131733" stroke-width="0.61" stroke-linecap="round" stroke-linejoin="round"/>
<path d="M311.793 233.986C311.793 233.986 316.461 234.242 317.382 238.324" stroke="#131733" stroke-width="0.61" stroke-linecap="round" stroke-linejoin="round"/>
<path d="M312.898 234.486L311.375 235.911C311.375 235.911 308.132 239.128 308.033 240.639C308.033 240.639 307.505 244.648 309.262 246.621C309.262 246.621 311.092 248.717 312.714 246.134C314.568 243.807 315.158 240.736 314.286 237.885" stroke="#131733" stroke-width="0.61" stroke-linecap="round" stroke-linejoin="round"/>
<path d="M297.863 204.111C298.318 197.641 301.389 195.204 304.005 194.327C304.251 194.497 304.509 194.668 304.779 194.814C301.438 196.776 300.91 201.004 300.91 201.004L298.65 227.175C298.613 227.577 298.564 227.98 298.502 228.382C297.618 234.449 298.944 236.082 298.944 236.082V237.837C294.645 238.044 294.928 233.889 294.928 233.889C294.903 230.709 297.863 204.111 297.863 204.111Z" fill="#5E96E9"/>
<path d="M298.243 226.054L301.78 288.608C301.842 290.156 302.505 291.618 303.66 292.666C304.814 293.701 306.338 294.25 307.898 294.176C310.969 294.018 313.376 291.52 313.413 288.486L314.039 222.959L298.23 226.054H298.243Z" fill="#E99C50"/>
<path d="M307.211 225.591L307.395 288.243C307.371 289.802 307.973 291.289 309.066 292.385C310.159 293.494 311.658 294.116 313.218 294.103C316.276 294.103 318.819 291.752 319.015 288.73L323.143 223.313L307.211 225.591Z" fill="#E99C50"/>
<path d="M307.604 194.729L312.038 194.57C316.313 194.424 320.072 197.47 321.005 201.82L326.852 225.53C328.081 231.269 325.87 236.728 318.254 236.728L301.99 237.191C300.75 237.191 299.558 236.691 298.711 235.79C297.851 234.888 297.421 233.682 297.482 232.451L299.128 203.562C299.128 196.715 302.998 194.887 307.592 194.716L307.604 194.729Z" fill="white"/>
<path d="M300.725 236.813C300.566 236.423 301.057 235.863 301.831 235.558C302.605 235.253 303.354 235.339 303.501 235.729C303.661 236.118 303.158 236.691 302.384 236.983C301.61 237.288 300.873 237.203 300.713 236.813H300.725Z" stroke="#131733" stroke-width="0.47" stroke-linecap="round" stroke-linejoin="round"/>
<path d="M298.809 236.984C298.047 236.679 297.544 236.119 297.703 235.729C297.863 235.327 298.612 235.254 299.374 235.558C300.148 235.863 300.651 236.423 300.492 236.813C300.332 237.203 299.583 237.288 298.821 236.984H298.809Z" stroke="#131733" stroke-width="0.47" stroke-linecap="round" stroke-linejoin="round"/>
<path d="M300.787 237.105C301.156 237.702 301.745 238.129 302.409 238.287" stroke="#131733" stroke-width="0.47" stroke-linecap="round" stroke-linejoin="round"/>
<path d="M300.48 237.105C300.308 237.885 299.829 238.568 299.141 238.957" stroke="#131733" stroke-width="0.47" stroke-linecap="round" stroke-linejoin="round"/>
<path d="M305.896 194.278L310.785 194.083C315.502 193.876 320.034 196.934 321.103 201.308L327.417 225.116C328.842 230.892 326.471 238.178 318.045 238.263L306.142 238.689C306.142 238.689 301.621 238.763 301.867 232.67L302.813 197.604C302.813 197.604 303.022 194.412 305.884 194.29" fill="#82B4EF"/>
<path d="M307.972 195.545C305.184 195.545 302.924 194.132 302.924 192.401C302.924 190.671 305.184 189.258 307.972 189.258C310.761 189.258 313.021 190.671 313.021 192.401C313.021 194.132 310.761 195.545 307.972 195.545Z" fill="white"/>
<path d="M307.652 193.705C303.279 193.705 299.717 190.172 299.717 185.822C299.717 181.472 303.279 177.951 307.652 177.951C312.037 177.951 315.599 181.472 315.599 185.822C315.599 190.172 312.037 193.705 307.652 193.705Z" stroke="#131733" stroke-width="0.57" stroke-linecap="round" stroke-linejoin="round"/>
<path d="M316.828 228.589L307.873 225.981" stroke="#131733" stroke-width="0.57" stroke-linecap="round" stroke-linejoin="round"/>
<path d="M322.258 237.459C317.111 238.592 311.841 239.031 306.559 238.775C306.559 238.775 304.532 239.323 302.923 236.594C302.764 237.727 302.96 238.884 303.476 239.908C304.164 241.163 305.491 241.967 306.928 241.991C311.988 242.467 317.086 242.162 322.036 241.09L322.258 237.459Z" fill="#131733"/>
<path d="M305.049 245.988L307.383 288.56C307.383 288.56 307.469 293.141 311.399 294.189" stroke="white" stroke-width="0.4" stroke-linecap="round" stroke-linejoin="round"/>
<path d="M299.84 301.853C299.681 301.938 299.521 302.023 299.349 302.121C298.944 302.218 298.55 302.34 298.157 302.498L298.01 302.523L296.094 299.891L299.238 297.405L301.756 300.756C301.081 301.024 300.43 301.402 299.84 301.84V301.853Z" fill="#82B4EF"/>
<path d="M292.175 306.251C290.947 306.251 287.778 306.312 288.122 304.497C288.466 302.681 291.684 302.096 292.998 301.56C295.467 300.585 297.347 298.807 299.41 297.223C300.135 296.674 301.818 295.09 302.8 295.176C303.869 295.261 304.103 297.186 304.852 297.881" stroke="#131733" stroke-width="0.57" stroke-linecap="round" stroke-linejoin="round"/>
<path d="M293.588 304.399C292.728 304.399 288.294 305.045 289.412 303.071" stroke="#131733" stroke-width="0.57" stroke-linecap="round" stroke-linejoin="round"/>
<path d="M306.486 298.733L311.424 305.301H306.302L303.354 301.207L306.486 298.721V298.733Z" fill="#82B4EF"/>
<path d="M316.387 307.604H298.527C298.527 307.604 296.758 307.604 295.738 306.933C295.382 306.702 295.235 306.263 295.37 305.861C295.616 305.179 296.488 304.107 299.313 303.254C303.6 301.987 305.528 298.782 309.668 296.65C309.901 296.528 310.184 296.528 310.417 296.625C310.663 296.735 310.847 296.942 310.909 297.198C311.105 297.978 311.523 298.697 312.1 299.257C313.046 300.074 314.336 300.366 315.552 300.037C316.387 299.818 317.529 299.452 317.972 298.892C317.972 298.892 319.188 297.917 318.573 300.963C318.573 300.963 317.947 304.801 318.745 305.739C318.77 305.764 320.391 307.604 316.375 307.604H316.387Z" stroke="#131733" stroke-width="0.57" stroke-linecap="round" stroke-linejoin="round"/>
<path d="M318.769 305.764H297.543C297.543 305.764 295.922 306.068 296.659 304.448" stroke="#131733" stroke-width="0.57" stroke-linecap="round" stroke-linejoin="round"/>
<path d="M314.802 191.573C313.525 191.573 312.48 190.537 312.48 189.27C312.48 188.003 313.525 186.967 314.802 186.967C316.08 186.967 317.124 188.003 317.124 189.27C317.124 190.537 316.08 191.573 314.802 191.573Z" fill="#131733"/>
<path d="M315.452 187.601C314.175 187.601 313.131 186.565 313.131 185.298C313.131 184.019 314.175 182.995 315.452 182.995C316.73 182.995 317.774 184.019 317.774 185.298C317.774 186.577 316.73 187.601 315.452 187.601Z" fill="#131733"/>
<path d="M317.124 189.27C315.847 189.27 314.803 188.235 314.803 186.967C314.803 185.7 315.847 184.665 317.124 184.665C318.402 184.665 319.446 185.7 319.446 186.967C319.446 188.235 318.402 189.27 317.124 189.27Z" fill="#131733"/>
<path d="M318.327 186.967C317.05 186.967 316.006 185.932 316.006 184.664C316.006 183.397 317.05 182.362 318.327 182.362C319.605 182.362 320.649 183.385 320.649 184.664C320.649 185.944 319.605 186.967 318.327 186.967Z" fill="#131733"/>
<path d="M317.775 183.885C316.497 183.885 315.453 182.849 315.453 181.582C315.453 180.315 316.497 179.279 317.775 179.279C319.052 179.279 320.096 180.315 320.096 181.582C320.096 182.849 319.052 183.885 317.775 183.885Z" fill="#131733"/>
<path d="M316.398 180.997C315.12 180.997 314.076 179.961 314.076 178.694C314.076 177.427 315.12 176.391 316.398 176.391C317.675 176.391 318.719 177.427 318.719 178.694C318.719 179.961 317.688 180.997 316.398 180.997Z" fill="#131733"/>
<path d="M314.335 178.682C313.058 178.682 312.014 177.646 312.014 176.379C312.014 175.112 313.058 174.076 314.335 174.076C315.613 174.076 316.657 175.112 316.657 176.379C316.657 177.646 315.625 178.682 314.335 178.682Z" fill="#131733"/>
<path d="M311.351 176.745C310.073 176.745 309.029 175.709 309.029 174.442C309.029 173.175 310.073 172.139 311.351 172.139C312.628 172.139 313.672 173.175 313.672 174.442C313.672 175.709 312.641 176.745 311.351 176.745Z" fill="#131733"/>
<path d="M308.378 176.148C307.101 176.148 306.057 175.112 306.057 173.845C306.057 172.578 307.101 171.542 308.378 171.542C309.656 171.542 310.7 172.565 310.7 173.845C310.7 175.112 309.656 176.148 308.378 176.148Z" fill="#131733"/>
<path d="M305.65 176.745C304.372 176.745 303.328 175.709 303.328 174.442C303.328 173.175 304.372 172.139 305.65 172.139C306.927 172.139 307.971 173.175 307.971 174.442C307.971 175.709 306.927 176.745 305.65 176.745Z" fill="#131733"/>
<path d="M303.329 178.17C302.052 178.17 301.008 177.147 301.008 175.868C301.008 174.6 302.052 173.565 303.329 173.565C304.607 173.565 305.651 174.6 305.651 175.868C305.651 177.135 304.607 178.17 303.329 178.17Z" fill="#131733"/>
<path d="M315.452 184.835C314.175 184.835 313.131 183.812 313.131 182.532C313.131 181.253 314.175 180.229 315.452 180.229C316.73 180.229 317.774 181.265 317.774 182.532C317.774 183.799 316.73 184.835 315.452 184.835Z" fill="#131733"/>
<path d="M312.468 185.298C311.191 185.298 310.146 184.262 310.146 182.995C310.146 181.728 311.191 180.692 312.468 180.692C313.746 180.692 314.79 181.728 314.79 182.995C314.79 184.262 313.746 185.298 312.468 185.298Z" fill="#131733"/>
<path d="M313.671 187.832C312.394 187.832 311.35 186.809 311.35 185.53C311.35 184.262 312.394 183.227 313.671 183.227C314.949 183.227 315.993 184.262 315.993 185.53C315.993 186.797 314.961 187.832 313.671 187.832Z" fill="#131733"/>
<path d="M309.421 183.885C308.144 183.885 307.1 182.849 307.1 181.582C307.1 180.315 308.144 179.279 309.421 179.279C310.699 179.279 311.743 180.315 311.743 181.582C311.743 182.849 310.699 183.885 309.421 183.885Z" fill="#131733"/>
<path d="M311.755 182.544C310.478 182.544 309.434 181.509 309.434 180.242C309.434 178.974 310.478 177.939 311.755 177.939C313.033 177.939 314.077 178.974 314.077 180.242C314.077 181.509 313.033 182.544 311.755 182.544Z" fill="#131733"/>
<path d="M311.351 179.048C310.073 179.048 309.029 178.012 309.029 176.745C309.029 175.478 310.073 174.442 311.351 174.442C312.628 174.442 313.672 175.478 313.672 176.745C313.672 178.012 312.641 179.048 311.351 179.048Z" fill="#131733"/>
<path d="M307.101 178.45C305.823 178.45 304.779 177.427 304.779 176.148C304.779 174.868 305.823 173.845 307.101 173.845C308.378 173.845 309.422 174.88 309.422 176.148C309.422 177.415 308.378 178.45 307.101 178.45Z" fill="#131733"/>
<path d="M304.779 180.229C303.501 180.229 302.457 179.194 302.457 177.927C302.457 176.659 303.501 175.624 304.779 175.624C306.056 175.624 307.1 176.659 307.1 177.927C307.1 179.194 306.056 180.229 304.779 180.229Z" fill="#131733"/>
<path d="M303.525 182.337C302.247 182.337 301.203 181.302 301.203 180.035C301.203 178.767 302.247 177.732 303.525 177.732C304.802 177.732 305.846 178.767 305.846 180.035C305.846 181.302 304.802 182.337 303.525 182.337Z" fill="#131733"/>
<path d="M302.456 183.653C301.167 183.653 300.135 182.63 300.135 181.35C300.135 180.071 301.167 179.048 302.456 179.048C303.746 179.048 304.778 180.083 304.778 181.35C304.778 182.618 303.734 183.653 302.456 183.653Z" fill="#131733"/>
<path d="M300.603 183.885C299.325 183.885 298.281 182.849 298.281 181.582C298.281 180.315 299.325 179.279 300.603 179.279C301.88 179.279 302.924 180.315 302.924 181.582C302.924 182.849 301.893 183.885 300.603 183.885Z" fill="#131733"/>
<path d="M301.191 179.766C299.913 179.766 298.869 178.731 298.869 177.463C298.869 176.184 299.913 175.161 301.191 175.161C302.468 175.161 303.512 176.184 303.512 177.463C303.512 178.743 302.468 179.766 301.191 179.766Z" fill="#131733"/>
<path d="M299.042 181.484C297.765 181.484 296.721 180.449 296.721 179.181C296.721 177.914 297.765 176.879 299.042 176.879C300.32 176.879 301.364 177.914 301.364 179.181C301.364 180.449 300.32 181.484 299.042 181.484Z" fill="#131733"/>
<path d="M298.87 184.092C297.593 184.092 296.549 183.068 296.549 181.789C296.549 180.522 297.593 179.486 298.87 179.486C300.148 179.486 301.192 180.51 301.192 181.789C301.192 183.068 300.148 184.092 298.87 184.092Z" fill="#131733"/>
<path d="M300.38 182.678C300.577 182.678 300.761 182.678 300.958 182.715C300.245 183.592 299.815 184.664 299.717 185.785C299.693 186.163 299.717 186.553 299.828 186.919C298.206 186.748 296.99 185.883 296.99 184.811C296.99 183.629 298.513 182.666 300.38 182.666V182.678Z" fill="#131733"/>
<path d="M299.042 179.766C297.765 179.766 296.721 178.731 296.721 177.463C296.721 176.196 297.765 175.161 299.042 175.161C300.32 175.161 301.364 176.184 301.364 177.463C301.364 178.743 300.32 179.766 299.042 179.766Z" fill="#131733"/>
<path d="M301.376 177.927C300.099 177.927 299.055 176.891 299.055 175.624C299.055 174.357 300.099 173.321 301.376 173.321C302.654 173.321 303.698 174.357 303.698 175.624C303.698 176.891 302.654 177.927 301.376 177.927Z" fill="#131733"/>
<path d="M303.525 175.149C302.247 175.149 301.203 174.113 301.203 172.846C301.203 171.579 302.247 170.543 303.525 170.543C304.802 170.543 305.846 171.579 305.846 172.846C305.846 174.113 304.802 175.149 303.525 175.149Z" fill="#131733"/>
<path d="M306.706 174.076C305.429 174.076 304.385 173.053 304.385 171.774C304.385 170.494 305.429 169.471 306.706 169.471C307.984 169.471 309.028 170.506 309.028 171.774C309.028 173.053 307.984 174.076 306.706 174.076Z" fill="#131733"/>
<path d="M310.146 174.905C308.868 174.905 307.824 173.869 307.824 172.602C307.824 171.335 308.868 170.299 310.146 170.299C311.423 170.299 312.467 171.335 312.467 172.602C312.467 173.869 311.436 174.905 310.146 174.905Z" fill="#131733"/>
<path d="M314.335 175.404C313.058 175.404 312.014 174.369 312.014 173.102C312.014 171.835 313.058 170.799 314.335 170.799C315.613 170.799 316.657 171.835 316.657 173.102C316.657 174.369 315.625 175.404 314.335 175.404Z" fill="#131733"/>
<path d="M316.669 177.927C315.392 177.927 314.348 176.891 314.348 175.624C314.348 174.357 315.392 173.321 316.669 173.321C317.947 173.321 318.991 174.357 318.991 175.624C318.991 176.891 317.959 177.927 316.669 177.927Z" fill="#131733"/>
<path d="M318.634 180.473C317.357 180.473 316.312 179.45 316.312 178.17C316.312 176.891 317.357 175.867 318.634 175.867C319.912 175.867 320.956 176.903 320.956 178.17C320.956 179.437 319.924 180.473 318.634 180.473Z" fill="#131733"/>
<path d="M320.318 183.592C319.04 183.592 317.996 182.557 317.996 181.289C317.996 180.022 319.04 178.987 320.318 178.987C321.595 178.987 322.639 180.022 322.639 181.289C322.639 182.557 321.595 183.592 320.318 183.592Z" fill="#131733"/>
<path d="M320.661 187.15C319.384 187.15 318.34 186.114 318.34 184.847C318.34 183.58 319.384 182.544 320.661 182.544C321.939 182.544 322.983 183.568 322.983 184.847C322.983 186.114 321.939 187.15 320.661 187.15Z" fill="#131733"/>
<path d="M318.634 190.428C317.357 190.428 316.312 189.404 316.312 188.125C316.312 186.858 317.357 185.822 318.634 185.822C319.912 185.822 320.956 186.858 320.956 188.125C320.956 189.392 319.924 190.428 318.634 190.428Z" fill="#131733"/>
<path d="M316.767 191.768C315.489 191.768 314.445 190.732 314.445 189.465C314.445 188.198 315.489 187.162 316.767 187.162C318.044 187.162 319.088 188.198 319.088 189.465C319.088 190.732 318.044 191.768 316.767 191.768Z" fill="#131733"/>
<path d="M314.802 181.35C313.525 181.35 312.48 180.327 312.48 179.047C312.48 177.78 313.525 176.745 314.802 176.745C316.08 176.745 317.124 177.78 317.124 179.047C317.124 180.315 316.08 181.35 314.802 181.35Z" fill="#131733"/>
<path d="M313.021 180.997C311.743 180.997 310.699 179.961 310.699 178.694C310.699 177.427 311.743 176.391 313.021 176.391C314.298 176.391 315.342 177.427 315.342 178.694C315.342 179.961 314.311 180.997 313.021 180.997Z" fill="#131733"/>
<path d="M314.802 183.117C313.525 183.117 312.48 182.081 312.48 180.814C312.48 179.547 313.525 178.511 314.802 178.511C316.08 178.511 317.124 179.547 317.124 180.814C317.124 182.081 316.08 183.117 314.802 183.117Z" fill="#131733"/>
<path d="M310.023 181.57C308.745 181.57 307.701 180.534 307.701 179.267C307.701 178 308.745 176.964 310.023 176.964C311.3 176.964 312.344 178 312.344 179.267C312.344 180.534 311.313 181.57 310.023 181.57Z" fill="#131733"/>
<path d="M307.101 181.57C305.823 181.57 304.779 180.534 304.779 179.267C304.779 178 305.823 176.964 307.101 176.964C308.378 176.964 309.422 178 309.422 179.267C309.422 180.534 308.378 181.57 307.101 181.57Z" fill="#131733"/>
<path d="M305.269 183.117C303.991 183.117 302.947 182.081 302.947 180.814C302.947 179.547 303.991 178.511 305.269 178.511C306.546 178.511 307.59 179.547 307.59 180.814C307.59 182.081 306.546 183.117 305.269 183.117Z" fill="#131733"/>
<path d="M307.456 185.688C306.179 185.688 305.135 184.652 305.135 183.385C305.135 182.106 306.179 181.082 307.456 181.082C308.734 181.082 309.778 182.106 309.778 183.385C309.778 184.664 308.746 185.688 307.456 185.688Z" fill="#131733"/>
<path d="M309.779 187.832C308.501 187.832 307.457 186.809 307.457 185.53C307.457 184.25 308.501 183.227 309.779 183.227C311.056 183.227 312.1 184.262 312.1 185.53C312.1 186.797 311.068 187.832 309.779 187.832Z" fill="#131733"/>
<path d="M311.755 189.489C310.478 189.489 309.434 188.454 309.434 187.187C309.434 185.919 310.478 184.884 311.755 184.884C313.033 184.884 314.077 185.919 314.077 187.187C314.077 188.454 313.033 189.489 311.755 189.489Z" fill="#131733"/>
<path d="M311.509 191.573C310.232 191.573 309.188 190.537 309.188 189.27C309.188 188.003 310.232 186.967 311.509 186.967C312.787 186.967 313.831 188.003 313.831 189.27C313.831 190.537 312.787 191.573 311.509 191.573Z" fill="#131733"/>
<path d="M312.113 192.743C310.835 192.743 309.791 191.719 309.791 190.44C309.791 189.16 310.835 188.137 312.113 188.137C313.39 188.137 314.434 189.173 314.434 190.44C314.434 191.719 313.402 192.743 312.113 192.743Z" fill="#131733"/>
<path d="M303.98 184.835C302.702 184.835 301.658 183.812 301.658 182.532C301.658 181.265 302.702 180.229 303.98 180.229C305.257 180.229 306.301 181.265 306.301 182.532C306.301 183.812 305.27 184.835 303.98 184.835Z" fill="#131733"/>
<path d="M307.456 188.71C306.179 188.71 305.135 187.674 305.135 186.407C305.135 185.14 306.179 184.104 307.456 184.104C308.734 184.104 309.778 185.14 309.778 186.407C309.778 187.674 308.746 188.71 307.456 188.71Z" fill="#131733"/>
<path d="M309.779 190.428C308.501 190.428 307.457 189.404 307.457 188.125C307.457 186.858 308.501 185.822 309.779 185.822C311.056 185.822 312.1 186.858 312.1 188.125C312.1 189.392 311.068 190.428 309.779 190.428Z" fill="#131733"/>
<path d="M301.83 187.796C301.486 187.796 301.203 187.528 301.203 187.174C301.203 186.845 301.473 186.565 301.83 186.565C302.186 186.565 302.444 186.833 302.444 187.174C302.444 187.516 302.174 187.796 301.83 187.796Z" fill="#131733"/>
<path d="M279.905 193.79C280.433 193.681 280.962 193.9 281.244 194.339C283.025 196.824 285.126 199.066 287.484 201.016C289.167 202.478 290.985 203.794 292.901 204.951C293.491 205.305 294.228 205.341 294.879 205.061L306.855 199.663C308.293 198.737 310.147 198.713 311.621 199.602C313.095 200.492 313.918 202.137 313.746 203.842C313.574 205.548 312.444 206.986 310.823 207.583L295.898 214.357C295.26 214.686 294.547 214.869 293.822 214.869V214.906C287.042 214.796 277.559 205.012 274.758 201.954C274.243 201.381 274.12 200.565 274.439 199.858" stroke="#131733" stroke-width="0.61" stroke-linecap="round" stroke-linejoin="round"/>
<path d="M276.747 199.822L275.58 198.603" stroke="#131733" stroke-width="0.61" stroke-linecap="round" stroke-linejoin="round"/>
<path d="M280.641 195.155C280.641 195.155 279.879 199.736 275.715 200.199" stroke="#131733" stroke-width="0.61" stroke-linecap="round" stroke-linejoin="round"/>
<path d="M280.027 196.191L278.75 194.534C278.75 194.534 275.875 190.988 274.377 190.732C274.377 190.732 270.434 189.757 268.247 191.305C268.247 191.305 265.95 192.877 268.37 194.729C270.495 196.812 273.517 197.726 276.453 197.178" stroke="#131733" stroke-width="0.61" stroke-linecap="round" stroke-linejoin="round"/>
<path d="M312.111 207.339L296.745 214.321L296.438 217.172C296.438 217.172 307.812 212.286 312.099 207.339H312.111Z" fill="#131733"/>
</g>
<defs>
<clipPath id="clip0_1991_361601">
<rect width="432" height="328" fill="white"/>
</clipPath>
</defs>
</svg>
