<svg xmlns="http://www.w3.org/2000/svg" width="564" height="300" fill="none" viewBox="0 0 564 300"><g clip-path="url(#clip0_3597_67854)"><path fill="#EBEFF3" d="M72.09 194.54a35.396 35.396 0 014.81-3.35c13.1-7.7 12.44-26.29 14.1-41.41 1.73-15.78 8-31.23 18.72-42.95 20.42-22.32 52.75-28.07 79.74-41.72C215.57 51.92 237.06 31 262.77 17c18.25-9.9 41.35-15.89 59.28-5.43 23.64 13.8 25.34 47 40.27 70 3.67 5.63 8.55 10.92 15 12.83 8.21 2.44 17.1-1.18 23.91-6.37 6.81-5.19 12.32-12 19.09-17.19C430.9 62.64 445 58.43 458 61.59s24.18 14.51 25.23 27.86c1.95 24.65-27 40.75-33.36 64.65-1.44 5.39-1.61 11.35.84 16.37 4.78 9.79 17.45 12.66 28.33 12.08 10.88-.58 22-3.4 32.47-.34 15.69 4.59 25.26 22.38 23.27 38.61-1.99 16.23-13.69 30.16-28 38S475.7 269 459.35 269.19c-43.2.39-85.1-14-128-19-74.59-8.68-149.7 11.16-224.76 8.77-9.28-.29-19-1.08-26.78-6.23-11.76-7.84-15.46-24.21-16-37.52-.42-9.21 2.19-15.59 8.28-20.67z"/><path fill="#92A2B1" d="M124.93 263.7H85.81v.88h39.12v-.88zM356.37 263.7H167.76v.88h188.61v-.88z"/><path fill="#fff" d="M160.92 150.56V43.3a5.244 5.244 0 013.267-4.865 5.24 5.24 0 012.023-.385h280a5.25 5.25 0 015.25 5.25v179.83a5.273 5.273 0 01-1.523 3.742 5.259 5.259 0 01-3.727 1.558h-280a5.3 5.3 0 01-5.29-5.3v-59.48"/><path fill="#E5F2FD" d="M430.06 104.34H177.69a5.59 5.59 0 00-5.59 5.59v102.61a5.59 5.59 0 005.59 5.59h252.37a5.59 5.59 0 005.59-5.59V109.93a5.59 5.59 0 00-5.59-5.59z"/><path fill="#75B6F5" d="M430.06 218.54H177.69a6 6 0 01-6-6v-102.6a6.004 6.004 0 016-6h252.37a6 6 0 016 6v102.6a6 6 0 01-6 6zM177.69 104.75a5.202 5.202 0 00-5.19 5.19v102.6a5.189 5.189 0 005.19 5.19h252.37a5.19 5.19 0 005.19-5.19v-102.6a5.196 5.196 0 00-5.19-5.19H177.69z"/><path fill="#273139" d="M446.22 228.86h-280a5.742 5.742 0 01-5.73-5.73v-59.48h.88v59.48a4.861 4.861 0 004.85 4.86h280a4.833 4.833 0 004.461-3.005c.239-.589.358-1.22.349-1.855V68.44h.88v154.69a5.671 5.671 0 01-1.649 4.052 5.683 5.683 0 01-4.041 1.678zM451.91 48.91H451V43.3a4.819 4.819 0 00-4.81-4.81h-69.04v-.88h69.07a5.7 5.7 0 015.69 5.69v5.61zM161.36 150.56h-.88V43.3a5.737 5.737 0 011.68-4 5.861 5.861 0 014.06-1.65H357.4v.88H166.17a4.798 4.798 0 00-4.81 4.81v107.22z"/><path fill="#273139" d="M353.92 62.91H160.48V43.3a5.724 5.724 0 011.67-4.06 5.818 5.818 0 014.07-1.66h191.25v.87H166.18a4.816 4.816 0 00-3.422 1.42 4.8 4.8 0 00-1.398 3.43V62h192.56v.91zM451.91 53.84H451V43.27a4.819 4.819 0 00-4.81-4.82h-70.65v-.87h70.68a5.69 5.69 0 015.69 5.69v10.57z"/><path fill="#273139" d="M170.41 53.45a2.868 2.868 0 01-2.815-3.43 2.868 2.868 0 012.255-2.255 2.87 2.87 0 11.56 5.685zm0-4.87a2 2 0 100 3.998 2 2 0 000-3.998zM178.42 53.45a2.871 2.871 0 01-2.03-4.9 2.873 2.873 0 014.416.436c.315.471.484 1.026.484 1.594a2.88 2.88 0 01-2.87 2.87zm0-4.87a2 2 0 100 3.998 2 2 0 000-3.998zM186.43 53.45a2.871 2.871 0 01-2.03-4.9 2.873 2.873 0 014.416.436c.315.471.484 1.026.484 1.594a2.88 2.88 0 01-2.87 2.87zm0-4.87a2.002 2.002 0 00-1.848 1.235 1.996 1.996 0 00.433 2.18 2 2 0 101.415-3.415z"/><path fill="#92A2B1" d="M167 293.17l-22.23-47.44c-4.7-9.35-22-8.84-22.18-8.84H93.12c-14.16-.42-18.63-15.24-22.21-27.15-.49-1.61-1-3.16-1.43-4.6l-5.13-15.66.83-.28 5.13 15.67c.48 1.45 1 3 1.43 4.62 3.51 11.64 7.88 26.12 21.4 26.53h29.44c.71 0 18-.54 23 9.33l22.23 47.45-.81.37z"/><path fill="#CFD7DF" d="M77.78 207.19a2.701 2.701 0 01-2.076-.14 2.703 2.703 0 01-1.364-1.57l-11.71-34.64a2.723 2.723 0 115.16-1.74l11.7 34.64a2.723 2.723 0 01-1.71 3.45z"/><path fill="#131735" d="M211.27 289.85a100.71 100.71 0 01-15.2-1.16.628.628 0 01-.53-.55c0-.17-.44-4.28 2.91-9.18a.617.617 0 01.82-.2 13.49 13.49 0 0015-1.49.595.595 0 01.57-.12c.49.14 12 3.55 17.44 9.15a.673.673 0 01.155.28.63.63 0 01-.415.77c-.12.03-8.02 2.5-20.75 2.5zm-14.49-2.33c17.44 2.57 30.18-.15 33.8-1.09-5-4.45-14-7.42-15.79-8a14.726 14.726 0 01-15.61 1.68 14.127 14.127 0 00-2.4 7.41z"/><path fill="#fff" d="M154.92 265.26c-2.77-1-5.45-2.82-8.39-2.48-3.16.38-5.71 3.84-4.79 6.88.67 2.19 2.7 3.64 4.67 4.8a62.66 62.66 0 0030.59 8.71c-.45 0-3.31-5.59-3.79-6.28a55.52 55.52 0 00-5.15-6.28c-1.36-1.43-3.12-3.75-5-4.34-2.54-.78-5.47.02-8.14-1.01z"/><path fill="#EA7F7F" d="M162.78 150.56a13.38 13.38 0 01-2.5 15.05c-4.54 4.47-11.52 5-17.89 5.25-10.87.48-22.26.87-32.08-3.84a33.541 33.541 0 01-11.38-8.88 10.14 10.14 0 01-2.37-4.38 4.289 4.289 0 011.64-4.45c2.15-1.34 4.85.15 7.1 1.32 7.57 4 16.52 4.37 25 3.45 8.48-.92 16.83-3 25.34-3.74 2.49-.22 5.25-.23 7.16 1.44 1.91 1.67 1.57 5.55-.88 5.95"/><path fill="#131735" d="M146.66 170.32a.629.629 0 110-1.26h3.71c1.51 0 3-.05 4.61-.05a.99.99 0 00.48-.12c1-.51 4.45-2.6 6.48-7.86a17.256 17.256 0 001.18-8.78.988.988 0 00-.4-.692.99.99 0 00-.78-.178A265.734 265.734 0 01124 153.2a.62.62 0 01-.445-.184.63.63 0 01.445-1.076c12.608.287 25.22-.328 37.74-1.84a2.33 2.33 0 012.59 1.94c.408 3.2-.026 6.45-1.26 9.43A15.663 15.663 0 01156 170c-.307.166-.65.256-1 .26h-8.33l-.01.06zM120.64 153.07c-1.3-.06-2.59-.14-3.89-.23a.632.632 0 01-.431-.213.603.603 0 01-.12-.214.607.607 0 01-.029-.243.632.632 0 01.67-.59c1.29.09 2.57.17 3.87.23.167 0 .327.066.446.184a.633.633 0 010 .891.63.63 0 01-.446.185h-.07zM136.8 170.33c-47.11-.46-55.41-5.86-55.74-6.09a.629.629 0 01-.19-.82v-.08a9.999 9.999 0 014-17 9.72 9.72 0 015.94.16c5.92 2.31 13.47 3.92 22.45 4.77a.633.633 0 01.545.445.62.62 0 01-.202.673.618.618 0 01-.217.117c-.079.025-.163.033-.246.025-9.1-.87-16.76-2.5-22.76-4.85a8.599 8.599 0 00-5.17-.13 8.731 8.731 0 00-3.14 15.15.633.633 0 01.17.75c2.37 1.08 14 5.22 54.53 5.61a.643.643 0 01.447.191c.117.12.183.281.183.449a.628.628 0 01-.6.63z"/><path fill="#527FA5" d="M200.42 272.61a8.261 8.261 0 10-8.25-8.25 8.249 8.249 0 008.25 8.25zM172.52 227.84a10.26 10.26 0 10-10.25-10.25 10.25 10.25 0 0010.25 10.25zM101.29 225.33a12.428 12.428 0 0011.484-7.673 12.434 12.434 0 00-2.694-13.546 12.437 12.437 0 00-13.546-2.695A12.432 12.432 0 0092.5 221.69a12.43 12.43 0 008.789 3.64z"/><path fill="#527FA5" d="M207.86 260.79l-26.12-47.51-16.86 11.14 28 43.25 14.98-6.88z"/><path fill="#527FA5" d="M101.29 225.33l71.23 2.51 1-20.51-72.25-6.84.02 24.84zM159 262.07a8.259 8.259 0 005.851-14.101 8.258 8.258 0 00-12.713 1.258 8.259 8.259 0 00-1.388 4.593 8.249 8.249 0 008.25 8.25zM165.42 203.37a10.258 10.258 0 0010.073-12.259 10.262 10.262 0 00-8.064-8.064 10.254 10.254 0 00-10.534 4.369 10.258 10.258 0 00-1.725 5.704 10.25 10.25 0 0010.25 10.25z"/><path fill="#527FA5" d="M167 255.58l8.68-61.58-20.51-1.46-4.17 59.24 16 3.8z"/><path fill="#527FA5" d="M97.81 211.29l23-2 4.43-6.53 28.47 2.68 11.75-2.07-1.82-20.37-61.91 16.94-3.92 11.35z"/><path fill="#131735" d="M153.64 205.45s-3.18 20.14-6.31 21.5l5.36.19"/><path fill="#fff" d="M167.81 256.21h-.09a.645.645 0 01-.414-.245.646.646 0 01-.126-.465l8.58-61a.635.635 0 01.715-.535.632.632 0 01.535.715l-8.58 61a.63.63 0 01-.62.53z"/><path fill="#EA7F7F" d="M74.53 146.28c2.21-.38 4.38.32 7.24.32 5.68 0 10.31-2.47 10.68-5.6.24-2 8.54 12.1 9.12 13.37 19 42.14 23.33 25.76 24.68 42.95 1.15 14.79-18 16.39-28.18 19.78-9.89 3.28-16.1-5.46-18.95-13.46C74.8 191.55 89 162.83 76.19 162c-18.19 8.8-10.62-14.18-1.66-15.72z"/><path fill="#EA7F7F" d="M62.71 188.69c-.58 4.2-1 9 1.75 12.18 1.8 2.12 4.58 3.08 7.25 3.81A83.94 83.94 0 00105 206.9c.34-4.69 2.12-8 2.47-12.66-4 1.55-9.63-1.26-13.92-1.14-4.29.12-12.26.94-14.67-2.63-1.9-2.84 1.21-5.94 1.51-9.36.3-3.42 1.08-6.79 1-10.22-.16-6.35-7.58-15.24-13.68-8.58-2.34 2.56-2.29 7.14-2.73 10.32l-2.27 16.06z"/><path fill="#fff" d="M153.14 206H153l-21.48-2a.636.636 0 01-.57-.69.636.636 0 01.69-.57l21.2 2a23.109 23.109 0 012.91-10.44.628.628 0 01.626-.317.627.627 0 01.532.457.619.619 0 01-.058.48 21.857 21.857 0 00-2.73 10.08 1.07 1.07 0 01-.35.81.921.921 0 01-.63.19z"/><path fill="#131735" d="M171.37 169.72a12.336 12.336 0 01-6.89-2.14 2.826 2.826 0 01-1.2-2.7.636.636 0 01.259-.409.636.636 0 01.471-.111.63.63 0 01.51.73c0 .19-.13.78.77 1.52 1.82 1.51 6 2.18 7.29 1.69a3.18 3.18 0 00.85-.73 9.453 9.453 0 01-4.78-5.75.618.618 0 01.209-.676.613.613 0 01.221-.114.64.64 0 01.78.43 8.13 8.13 0 004.22 5 1.08 1.08 0 01.67 1.06c-.07.94-1.42 1.85-1.78 1.95a4.778 4.778 0 01-1.6.25z"/><path fill="#fff" d="M84.61 112.79s8.75 14 7.41 20.21c0 0-4.45 11.73-14.67 6.33 0 0-5.33-3.5-6.52-8.59L66.6 119l7.88-9 10.13 2.79z"/><path fill="#131735" d="M82.71 141.18a12.222 12.222 0 01-6.41-1.73c-3-1.87-5.35-5.28-7-10.12a.633.633 0 011.2-.4c1.52 4.56 3.68 7.74 6.43 9.45 3.58 2.25 9.89 2.16 12.67-1.32a10.993 10.993 0 001.79-8.32c-.68-4.73-2.77-10-6.37-16a.63.63 0 011.08-.65c3.69 6.17 5.83 11.55 6.54 16.45a12.26 12.26 0 01-2 9.29 10.002 10.002 0 01-7.93 3.35z"/><path fill="#273139" d="M89.65 103s-1.09 6.09-9.08 8c-6.62 1.6-3.85 8.68-2.71 11.06a.94.94 0 01-.4 1.23l-.87.48a.94.94 0 01-1.26-.34c-.74-1.27-2.32-3.45-3.83-2.12 0 0-3.15 1 .12 12.5 0 0-9-3.06-11.62-16.78 0 0-1.12-5.54 3.5-5.26 0 0-3.76-4.83.49-7.36 4.25-2.53 16.54-2.07 16.54-2.07s4.62.12 7.61-1.28a1.155 1.155 0 011.22.15 1.18 1.18 0 01.43 1.15l-.14.64z"/><path fill="#273139" d="M64.59 113.07a.613.613 0 01-.43-.18 8.361 8.361 0 00-6.28-2.26.633.633 0 01-.514-1.047.629.629 0 01.434-.213A9.597 9.597 0 0165 112a.63.63 0 010 .89.65.65 0 01-.41.18z"/><path fill="#273139" d="M57.25 114.4a.622.622 0 01-.5-.24.64.64 0 01.1-.89 9.623 9.623 0 017.42-2 .629.629 0 01-.19 1.24 8.361 8.361 0 00-6.44 1.73.67.67 0 01-.39.16z"/><path fill="#fff" d="M90.46 126.91c2.23-.61 3.24-4 2.24-7.68-1-3.68-3.61-6.07-5.84-5.46-2.23.61-3.24 4-2.24 7.68 1 3.68 3.61 6.07 5.84 5.46z"/><path fill="#131735" d="M89.75 127.63a4.654 4.654 0 01-3.11-1.4 9.9 9.9 0 01-2.64-4.62 10 10 0 01-.09-5.31 3.82 3.82 0 016.76-1.85 9.919 9.919 0 012.63 4.61 10 10 0 01.09 5.32 4.223 4.223 0 01-2.77 3.14 3.317 3.317 0 01-.87.11zm-2.18-13.32a1.895 1.895 0 00-.54.07 3 3 0 00-1.9 2.27 9.442 9.442 0 002.37 8.66 2.996 2.996 0 002.79 1 3.002 3.002 0 001.9-2.27 9.442 9.442 0 00-2.37-8.66 3.408 3.408 0 00-2.25-1.07z"/><path fill="#131735" d="M75.13 123.61a.626.626 0 01-.625-.487.63.63 0 01.345-.713L84 117.8a.627.627 0 01.806.295.63.63 0 01-.236.825l-9.1 4.62a.739.739 0 01-.34.07z"/><path fill="#fff" d="M87.36 119.69l1.11-5.7-1.11 5.7z"/><path fill="#131735" d="M87.36 120.13h-.08a.442.442 0 01-.35-.51l1.11-5.7a.441.441 0 01.51-.35.45.45 0 01.35.52l-1.11 5.7a.428.428 0 01-.43.34z"/><path fill="#fff" d="M90.17 114.87l-.74 4.24.74-4.24z"/><path fill="#131735" d="M89.43 119.54h-.08a.438.438 0 01-.357-.361.44.44 0 01.008-.179l.74-4.24a.463.463 0 01.51-.35.449.449 0 01.356.338.44.44 0 01.004.172l-.75 4.23a.433.433 0 01-.43.39z"/><path fill="#fff" d="M89.77 122l-.69 4.87.69-4.87z"/><path fill="#131735" d="M89.08 127.28H89a.421.421 0 01-.365-.328.428.428 0 01-.005-.172l.69-4.86a.44.44 0 01.49-.38.447.447 0 01.38.5l-.7 4.87a.427.427 0 01-.41.37zM175.86 281.4c-.92-.06-22.53-1.7-33.58-13.18a.639.639 0 01-.16-.54c0-.11.5-2.71 5.41-6.12a.618.618 0 01.83.11 13.487 13.487 0 0014.54 4 .632.632 0 01.58.1c.41.31 9.91 7.6 13 14.79a.626.626 0 01-.052.597.632.632 0 01-.528.283l-.04-.04zm-32.45-13.8c9.4 9.48 26.89 11.94 31.41 12.43-3-5.94-10.41-11.93-11.88-13.1a14.748 14.748 0 01-15.19-4c-3.14 2.26-4.08 4.07-4.34 4.67z"/><path fill="#131735" d="M175.38 283.74h-.09c-.23 0-22.3-.17-35.46-13.92a.622.622 0 01-.14-.65c.32-.91 1.4-2.49 3.18-2a.643.643 0 01.44.78.642.642 0 01-.78.44 1.374 1.374 0 00-1.5.87c12.82 13.07 34.06 13.23 34.27 13.23.486.047.974-.065 1.39-.32a.08.08 0 000-.09c-.05-.59-.8-.67-.88-.68a.627.627 0 01-.431-.213.63.63 0 01-.149-.457.622.622 0 01.206-.431.622.622 0 01.454-.149A2.11 2.11 0 01178 282a1.351 1.351 0 01-.36 1.07c-.646.492-1.45.73-2.26.67z"/><path fill="#92A2B1" d="M131.27 210.63H72.58v.88h58.69v-.88z"/><path fill="#131735" d="M106.54 208l-30.15-.87a27.675 27.675 0 01-8-1 9.874 9.874 0 01-6.27-5.35c-.94-2.35-.63-4.88-.35-7.12l3.74-30.25a.65.65 0 01.71-.55.624.624 0 01.417.243.63.63 0 01.123.467L63 193.77c-.26 2.09-.55 4.46.25 6.47a8.627 8.627 0 005.46 4.64 27.257 27.257 0 007.69 1l30.19.87a.629.629 0 110 1.26l-.05-.01z"/><path fill="#131735" d="M82.27 171.66l.17 15.49a7.33 7.33 0 01-.29 2.59 2.532 2.532 0 01-1.8 1.75c-1.38.23-2.63-1.2-2.71-2.63.013-1.411.308-2.805.87-4.1 1.89-5.92-.34-11.2.2-17 .6-6.53 3.52.71 3.56 3.9z"/><path fill="#131735" d="M79 189.48a.622.622 0 01-.58-.68l1.42-18.49a.64.64 0 01.918-.513.62.62 0 01.314.368.63.63 0 01.028.245l-1.48 18.49a.622.622 0 01-.62.58zM107 209.36a.602.602 0 01-.54-.31c-2.31-3.82-2.32-10.1-.18-14.13-9.152.285-18.307-.49-27.28-2.31a.632.632 0 01-.192-1.114.632.632 0 01.442-.116 117.009 117.009 0 0028.12 2.23.662.662 0 01.58.33.648.648 0 010 .67c-2.46 3.49-2.65 10.07-.4 13.79a.644.644 0 01-.22.87.621.621 0 01-.33.09zM117.17 201.72a7.69 7.69 0 01-1.91-.24.623.623 0 01-.406-.283.624.624 0 01-.076-.489.618.618 0 01.541-.471.645.645 0 01.251.023 6.54 6.54 0 003.67-.13 2.257 2.257 0 001.13-1.35 1.276 1.276 0 00-.05-1c-.46-.78-1.66-.88-2.78-.88H110a.629.629 0 110-1.26h7.56c.89 0 3 0 3.86 1.49a2.46 2.46 0 01.17 2.06 3.577 3.577 0 01-1.88 2.14 8.2 8.2 0 01-2.54.39zM122.11 208.05a60.485 60.485 0 01-13.26-1.48.65.65 0 01-.48-.76.652.652 0 01.76-.48 58.788 58.788 0 0017.44 1.29c1.34-.11 2.11-.44 2.33-1a1.36 1.36 0 00-.33-1.3 3.855 3.855 0 00-1.49-1 11.46 11.46 0 00-6.1-.62.631.631 0 01-.22-1.24 12.533 12.533 0 016.75.68 5.048 5.048 0 012 1.27 2.626 2.626 0 01.6 2.58c-.63 1.65-2.74 1.81-3.43 1.86-1.53.15-3.05.2-4.57.2zM105.87 164.42c1 2.12 2.15 4.43 4.28 5.42-.87-.41-2.35-8.48-2.85-9.8-.88-2.41-2.41-8-4.57-9.52-3.1-2.17-2.9.8-2 2.93 1.68 3.68 3.44 7.31 5.14 10.97zM82.75 147.17a39.554 39.554 0 01-7.73-1 .649.649 0 01-.5-.75.634.634 0 01.503-.493.625.625 0 01.247.003c3.14.63 6.7 1.35 10.1.78 3.59-.59 6.49-2.77 7.38-5.54a.628.628 0 01.8-.41.612.612 0 01.366.311.625.625 0 01.034.479c-1 3.22-4.32 5.74-8.37 6.41-.936.15-1.882.22-2.83.21zM93.6 217.5a8.817 8.817 0 01-6.36-2.42l-.18.3a.633.633 0 01-.844.17.63.63 0 01-.226-.83l.64-1a.636.636 0 01.51-.3.646.646 0 01.53.26 7.27 7.27 0 006 2.6 22.162 22.162 0 007-1.64l8.36-2.91a.638.638 0 01.81.39.63.63 0 01-.39.8l-8.34 2.9a23.484 23.484 0 01-7.38 1.72l-.13-.04zM126.34 196.29a.632.632 0 01-.63-.61 14.22 14.22 0 00-3.07-8.33.64.64 0 01-.052-.703.631.631 0 01.383-.298.624.624 0 01.482.059.631.631 0 01.187.162 15.455 15.455 0 013.35 9.07.622.622 0 01-.17.451.627.627 0 01-.44.199h-.04z"/><path fill="#131735" d="M100.66 225.4a9.24 9.24 0 01-9-7.12.636.636 0 01.246-.658.64.64 0 01.702-.025.642.642 0 01.282.393 8 8 0 008.11 6.14.65.65 0 01.66.6.64.64 0 01-.6.66l-.4.01zM128.45 194.39a.63.63 0 01-.24-1.21l8.86-3.64a.642.642 0 01.83.34.627.627 0 01-.35.82l-8.86 3.65a.655.655 0 01-.24.04zM210.53 292a83.098 83.098 0 01-15.34-1.42.997.997 0 01-.65-.35 1.715 1.715 0 01-.29-1.42 1.489 1.489 0 01.62-1.09 2 2 0 011.42-.27.633.633 0 11-.25 1.24.67.67 0 00-.44.06s-.08 0-.1.22a1.21 1.21 0 000 .38 81.719 81.719 0 0018.5 1.3c12.66 0 18.28-2.54 18.34-2.57h.11a.4.4 0 00.29-.47c-.07-.32-.76-.21-.76-.21a.636.636 0 01-.74-.5.632.632 0 01.5-.73 1.763 1.763 0 011.902.555c.149.181.261.39.328.615a1.663 1.663 0 01-1.15 1.95c-.63.28-6.33 2.66-18.8 2.66-1.19.05-2.34.05-3.49.05z"/><path fill="#CFD7DF" d="M139.33 225.33H89.46a3.36 3.36 0 00-3.36 3.36v.01a3.36 3.36 0 003.36 3.36h49.87a3.36 3.36 0 003.36-3.36v-.01a3.36 3.36 0 00-3.36-3.36z"/><path fill="#92A2B1" d="M64.42 294.05l-.81-.34c.12-.28 11.82-28 17.35-43.55C86.6 234.29 108.67 236 108.89 236l-.08.88c-.21 0-21.61-1.69-27 13.54-5.56 15.58-17.28 43.35-17.39 43.63zM131.59 283.86h-19.61v.88h19.61v-.88z"/><path fill="#92A2B1" d="M82.22 283.86H62.6v.88h19.62v-.88z"/><path fill="#fff" d="M482.23 212.6h-57.39v57.39h57.39V212.6z"/><path fill="#92A2B1" d="M425.28 212.6h-.88v33.01h.88V212.6z"/><path fill="#CFD7DF" d="M517.11 212.6h-34.88v57.39h34.88V212.6z"/><path fill="#92A2B1" d="M464.39 269.55h-32.8v.88h32.8v-.88zM498.13 269.55h-27.36v.88h27.36v-.88zM517.36 223.32h-.88v24.91h.88v-24.91z"/><path fill="#92A2B1" d="M482.67 244.86h-.88v24.91h.88v-24.91zM467.1 211.86h-33.89v.88h33.89v-.88zM431.93 222.57h-.88v32.19h.88v-32.19zM455.66 261.68h-20.01v.88h20.01v-.88z"/><path fill="#fff" d="M502.4 261.68h-10.01v.88h10.01v-.88z"/><path fill="#92A2B1" d="M474.49 235.98h-.88v17.55h.88v-17.55zM464.24 224.52h-16.33v.88h16.33v-.88zM517.55 270.43h-6.35v-.87h5.47v-6.22h.88v7.09z"/><path fill="#fff" d="M488.86 223.81h-.88v29.09h.88v-29.09zM482.67 212.6h-.88v18.89h.88V212.6z"/><path fill="#92A2B1" d="M517.11 212.16h-8.65v.88h8.65v-.88z"/><path fill="#CFD7DF" d="M60.963 15.976l-9.928 52.642 10.063 1.897 9.928-52.642-10.063-1.897zM105.93 57.72H69.01v12.31h36.92V57.72zM100.23 39.87H69.01v10.41h31.22V39.87z"/><path fill="#92A2B1" d="M59.084 20.31l-.161.854 12.086 2.284.162-.855-12.087-2.284zM58.557 23.131l-.162.855 12.096 2.286.162-.855-12.096-2.286zM51.564 60.226l-.162.855 12.096 2.286.162-.855-12.096-2.286zM51.027 63.03l-.162.856 12.086 2.283.162-.854-12.086-2.284z"/><path fill="#CFD7DF" d="M49.32 13.83h-2.05v57.4h2.05v-57.4zM111.88 13.83h-2.05v57.4h2.05v-57.4z"/><path fill="#92A2B1" d="M107.68 51.69H69.01v4.58h38.67v-4.58z"/><path fill="#fff" d="M74.54 49.07a3.91 3.91 0 11-.02-7.82 3.91 3.91 0 01.02 7.82zm0-6.94a3 3 0 100 6 3 3 0 000-6zM97.68 67.78a3.91 3.91 0 113.9-3.91 3.92 3.92 0 01-3.9 3.91zm0-6.94a3 3 0 100 6 3 3 0 000-6z"/><path fill="#92A2B1" d="M47.72 13.83h-.88V43.9h.88V13.83zM135.52 70.97H28.93v.88h106.59v-.88zM49.76 58.9h-.88v11.2h.88V58.9zM112.33 47.7h-.88v22.4h.88V47.7zM100.25 39.44h-7.13v.88h7.13v-.88zM76.14 57.6h-7.13v.88h7.13v-.88zM496.05 211.18H477l-5.59-23.54h30.19l-5.55 23.54z"/><path fill="#EBEFF3" d="M478.74 185.74c2.33-2 1.57-5.93-.49-8.19s-5-3.5-7.45-5.33-4.37-4.5-4-7.43c.37-2.93 4-5.31 6.42-3.56a6.635 6.635 0 012.07 3.73 7.997 7.997 0 001.81 3.89c1.05 1 3 1.18 3.81 0l1.36-16.64c.33-4 1.23-8.85 5-10.29 3.32-1.26 7.13 1.15 8.67 4.38s1.4 6.93 1.24 10.51c-.46 9.78-.924 19.56-1.39 29.34l-17.05-.41z"/><path fill="#CFD7DF" d="M502.81 184.11h-32.54v3.53h32.54v-3.53zM486.74 192.7h-14.9v.88h14.9v-.88z"/><path fill="#fff" d="M502.83 187.12h-16.28v.88h16.28v-.88z"/><path fill="#92A2B1" d="M478 173.13a10.874 10.874 0 01-9.48-9.86l.87-.08a9.998 9.998 0 008.72 9.07l-.11.87zM484.665 144.349l-1.679 37.552.879.04 1.679-37.553-.879-.039zM490.207 144.047l-2.558 38.104.878.059 2.558-38.104-.878-.059zM494.008 147.956l-2.221 34.248.868.056 2.221-34.248-.868-.056z"/><path fill="#92A2B1" d="M469.75 166.25h-.34a3.617 3.617 0 01-2.35-.86l.57-.67c.407.348.908.57 1.44.64.05-.23.09-.47.13-.7.07-.38.13-.75.22-1.11l.85.21c-.08.34-.14.7-.21 1.05-.07.35-.13.75-.22 1.11l-.09.33zM484.08 171.91l-.31-.11a3.616 3.616 0 01-1.93-1.6l.76-.44c.267.463.663.838 1.14 1.08.13-.21.26-.43.38-.65.12-.22.36-.64.55-.94l.74.48c-.19.28-.36.58-.53.89-.17.31-.39.69-.61 1l-.19.29zM484.93 151.05l-.31-.14a3.47 3.47 0 01-1.78-1.76l.79-.36c.212.477.56.88 1 1.16.17-.22.33-.45.49-.67l.58-.79.69.54c-.18.23-.37.49-.55.75-.18.26-.49.69-.74 1l-.17.27zM484.45 158l-.32-.41c-.45-.56-.7-.88-1.15-1.48l.7-.52.8 1c.379-.458.713-.95 1-1.47l.77.42a10.203 10.203 0 01-1.42 2l-.38.46zM484.11 165.73l-1.39-1.3.6-.64.69.66.85-1.09.7.52c-.41.54-.65.85-1 1.31l-.45.54zM489.09 175.88l-.32-.12a3.565 3.565 0 01-1.93-1.59l.76-.44c.262.465.66.838 1.14 1.07l.37-.63c.18-.32.37-.65.56-.95l.74.48c-.193.294-.373.594-.54.9-.2.34-.39.68-.59 1l-.19.28zM489.9 155l-.31-.13a3.607 3.607 0 01-1.79-1.76l.8-.37c.212.48.559.886 1 1.17.17-.22.33-.45.5-.68.17-.23.38-.54.57-.78l.69.53-.55.76c-.24.34-.49.68-.74 1l-.17.26zM489.43 162l-.47-.58c-.37-.46-.61-.77-1-1.29l.7-.53.8 1a9.59 9.59 0 001-1.47l.78.41c-.399.719-.879 1.39-1.43 2l-.38.46zM489.08 169.71l-1.39-1.31.6-.63.7.65c.27-.35.5-.64.83-1.09l.7.53c-.45.59-.69.91-1.15 1.48l-.29.37zM493 173.49l-.31-.12a3.523 3.523 0 01-1.87-1.67l.78-.4a2.59 2.59 0 001.09 1.11c.13-.19.25-.4.37-.6.12-.2.41-.64.62-.94l.71.51c-.2.28-.39.59-.58.89-.19.3-.4.65-.61.94l-.2.28zM494.59 152.68l-.3-.15a3.468 3.468 0 01-1.71-1.83l.81-.33c.201.497.55.919 1 1.21.15-.19.3-.38.44-.58.14-.2.45-.61.69-.9l.67.57c-.23.27-.44.56-.65.85-.21.29-.46.62-.71.91l-.24.25zM493.86 159.65l-.31-.42c-.2-.27-.36-.49-.51-.71-.15-.22-.35-.49-.58-.79l.7-.53c.24.31.41.56.59.81l.19.27a10.51 10.51 0 001-1.44l.75.45a11.082 11.082 0 01-1.5 2l-.33.36zM493.22 167.32l-1.34-1.32.62-.62.68.68c.13-.16.24-.3.37-.44l.52-.62.66.57-.51.61-.69.81-.31.33z"/><path fill="#75B6F5" d="M206 120.3h14.51c3.4 0 3.41-5.3 0-5.3H206c-3.38 0-3.39 5.3 0 5.3zM228 120.3h48.51c3.4 0 3.41-5.3 0-5.3H228c-3.38 0-3.39 5.3 0 5.3zM193.32 109h-11.18a3.06 3.06 0 00-3.06 3.06v11.18a3.06 3.06 0 003.06 3.06h11.18a3.06 3.06 0 003.06-3.06v-11.18a3.06 3.06 0 00-3.06-3.06z"/><path fill="#fff" d="M429.69 69.19H177.72a5.53 5.53 0 00-5.53 5.53v16.51a5.53 5.53 0 005.53 5.53h251.97a5.53 5.53 0 005.53-5.53V74.72a5.53 5.53 0 00-5.53-5.53z"/><path fill="#EBEFF3" d="M429.69 97.16h-252a5.939 5.939 0 01-5.93-5.93V74.72a5.999 5.999 0 015.93-5.94h252a5.998 5.998 0 015.93 5.94v16.51a5.94 5.94 0 01-5.93 5.93zm-252-27.56a5.123 5.123 0 00-5.12 5.12v16.51a5.12 5.12 0 005.12 5.12h252a5.119 5.119 0 005.12-5.12V74.72a5.121 5.121 0 00-5.12-5.12h-252z"/><path fill="#EBEFF3" d="M206 85.63h50.51c3.4 0 3.41-5.3 0-5.3H206c-3.38 0-3.39 5.3 0 5.3zM193.32 74.33h-11.18a3.06 3.06 0 00-3.06 3.06v11.18a3.06 3.06 0 003.06 3.06h11.18a3.06 3.06 0 003.06-3.06V77.39a3.06 3.06 0 00-3.06-3.06z"/><path fill="#fff" d="M421.2 133.9H182.72a3.64 3.64 0 00-3.64 3.64v24.79a3.64 3.64 0 003.64 3.64H421.2a3.64 3.64 0 003.64-3.64v-24.79a3.64 3.64 0 00-3.64-3.64z"/><path fill="#F9DAC0" d="M421.19 166.38H182.72a4.059 4.059 0 01-4.05-4v-24.83a4.058 4.058 0 011.186-2.864 4.062 4.062 0 012.864-1.186h238.47a4 4 0 014.05 4.05v24.78a4.054 4.054 0 01-1.186 2.864 4.054 4.054 0 01-2.864 1.186zm-238.47-32.07a3.24 3.24 0 00-3.24 3.24v24.78a3.252 3.252 0 003.24 3.24h238.47a3.252 3.252 0 003.24-3.24v-24.78a3.238 3.238 0 00-3.24-3.24H182.72z"/><path fill="#FF9D45" d="M182.08 133.9h61.36a32.077 32.077 0 01-9.386 22.7 32.07 32.07 0 01-22.694 9.4h-29.28a2.996 2.996 0 01-2.121-.879 2.996 2.996 0 01-.879-2.121v-26.1c0-.796.316-1.559.879-2.121a2.996 2.996 0 012.121-.879zM253.83 144.59h80.51c3.4 0 3.41-5.3 0-5.3h-80.51c-3.4 0-3.41 5.3 0 5.3z"/><path fill="#F9DAC0" d="M253.83 152.59h130.51c3.4 0 3.41-5.3 0-5.3H253.83c-3.4 0-3.41 5.3 0 5.3zM253.83 160.59h12.51c3.4 0 3.41-5.3 0-5.3h-12.51c-3.4 0-3.41 5.3 0 5.3zM273.83 160.59h71.51c3.4 0 3.41-5.3 0-5.3h-71.51c-3.4 0-3.41 5.3 0 5.3z"/><path fill="#fff" d="M422.81 171.64h-241.7a2.03 2.03 0 00-2.03 2.03v10.79a2.03 2.03 0 002.03 2.03h241.7a2.03 2.03 0 002.03-2.03v-10.79a2.03 2.03 0 00-2.03-2.03z"/><path fill="#EBEFF3" d="M422.81 186.89h-241.7a2.422 2.422 0 01-2.254-1.498 2.422 2.422 0 01-.186-.932v-10.79a2.422 2.422 0 01.715-1.722 2.446 2.446 0 011.725-.708h241.7a2.43 2.43 0 012.43 2.43v10.79a2.43 2.43 0 01-2.43 2.43zm-241.7-14.84a1.63 1.63 0 00-1.63 1.62v10.79a1.627 1.627 0 001.63 1.62h241.7a1.63 1.63 0 001.62-1.62v-10.79a1.63 1.63 0 00-1.62-1.62h-241.7z"/><path fill="#EBEFF3" d="M188.83 181.71h30.51c3.4 0 3.41-5.29 0-5.29h-30.51c-3.4 0-3.41 5.29 0 5.29zM228.83 181.71h130.51c3.4 0 3.41-5.29 0-5.29H228.83c-3.4 0-3.41 5.29 0 5.29z"/><path fill="#4889E3" d="M423.02 112.72h-16.45a1.82 1.82 0 00-1.82 1.82v6.22a1.82 1.82 0 001.82 1.82h16.45a1.82 1.82 0 001.82-1.82v-6.22a1.82 1.82 0 00-1.82-1.82zM398.27 113.53c.202 0 .395.08.537.223a.756.756 0 01.223.537V121c0 .202-.08.395-.223.537a.756.756 0 01-.537.223h-10.95a.756.756 0 01-.537-.223.756.756 0 01-.223-.537v-6.72c0-.202.08-.395.223-.537a.756.756 0 01.537-.223h10.95v.01zm0-.82h-10.95a1.567 1.567 0 00-1.57 1.57V121a1.567 1.567 0 001.57 1.57h10.95a1.567 1.567 0 001.57-1.57v-6.72a1.567 1.567 0 00-1.57-1.57z"/><path fill="#EBEFF3" d="M417.74 174.53a.758.758 0 01.76.76V182a.758.758 0 01-.76.76h-10.95a.763.763 0 01-.73-.462.763.763 0 01-.06-.298v-6.72a.759.759 0 01.76-.76h10.95l.03.01zm-.03-.82h-10.92a1.567 1.567 0 00-1.57 1.57V182a1.567 1.567 0 001.57 1.57h10.95a1.57 1.57 0 001.57-1.57v-6.72a1.572 1.572 0 00-1.57-1.57h-.03z"/><path fill="#fff" d="M422.81 193.64h-241.7a2.03 2.03 0 00-2.03 2.03v10.79a2.03 2.03 0 002.03 2.03h241.7a2.03 2.03 0 002.03-2.03v-10.79a2.03 2.03 0 00-2.03-2.03z"/><path fill="#EBEFF3" d="M422.81 208.89h-241.7a2.422 2.422 0 01-2.254-1.498 2.422 2.422 0 01-.186-.932v-10.79a2.422 2.422 0 01.715-1.722 2.446 2.446 0 011.725-.708h241.7a2.43 2.43 0 012.43 2.43v10.79a2.43 2.43 0 01-2.43 2.43zm-241.7-14.84a1.63 1.63 0 00-1.63 1.62v10.79a1.627 1.627 0 001.63 1.62h241.7a1.63 1.63 0 001.62-1.62v-10.79a1.63 1.63 0 00-1.62-1.62h-241.7z"/><path fill="#EBEFF3" d="M188.83 203.71h160.51c3.4 0 3.41-5.29 0-5.29H188.83c-3.4 0-3.41 5.29 0 5.29zM358.83 203.71h10.51c3.4 0 3.41-5.29 0-5.29h-10.51c-3.4 0-3.41 5.29 0 5.29zM417.74 196.53a.758.758 0 01.76.76V204a.758.758 0 01-.76.76h-10.95a.763.763 0 01-.73-.462.763.763 0 01-.06-.298v-6.72a.759.759 0 01.76-.76h10.95l.03.01zm-.03-.82h-10.92a1.567 1.567 0 00-1.57 1.57V204a1.567 1.567 0 001.57 1.57h10.95a1.57 1.57 0 001.57-1.57v-6.72a1.572 1.572 0 00-1.57-1.57h-.03z"/><path fill="#B2E4D9" d="M446.22 37.05h-82.33v20.29a4.9 4.9 0 004.9 4.9h82.68V42.3a5.248 5.248 0 00-5.25-5.25z"/><path fill="#fff" d="M496.74 13.83H376.79a4.9 4.9 0 00-4.9 4.9v31.6a4.9 4.9 0 004.9 4.9h119.95a4.9 4.9 0 004.9-4.9v-31.6a4.9 4.9 0 00-4.9-4.9z"/><path fill="#B2E4D9" d="M496.74 55.65H376.79a5.294 5.294 0 01-3.751-1.556 5.308 5.308 0 01-1.549-3.754V18.73a5.3 5.3 0 015.3-5.3h120a5.308 5.308 0 015.31 5.3v31.61a5.31 5.31 0 01-5.36 5.31zM376.79 14.24a4.5 4.5 0 00-4.49 4.49v31.61a4.49 4.49 0 004.49 4.49h120a4.49 4.49 0 004.49-4.49V18.73a4.499 4.499 0 00-4.49-4.49h-120z"/><path fill="#131735" d="M179.15 169.28a.636.636 0 01-.51-.25.628.628 0 01.13-.88 4.5 4.5 0 001.5-3 9.384 9.384 0 00-1.47-6.28 9.132 9.132 0 00-5.12-3 27.981 27.981 0 00-7-.56.642.642 0 01-.66-.6.646.646 0 01.6-.66 29.021 29.021 0 017.32.59 10.39 10.39 0 015.85 3.46 10.604 10.604 0 011.74 7.25 5.616 5.616 0 01-2 3.85.682.682 0 01-.38.08z"/><path fill="#4BC1A7" d="M390.69 48.07c7.473 0 13.53-6.058 13.53-13.53 0-7.473-6.057-13.53-13.53-13.53-7.472 0-13.53 6.057-13.53 13.53 0 7.472 6.058 13.53 13.53 13.53z"/><path fill="#fff" d="M390.69 41.3a1 1 0 01-1-1V28.77a1.002 1.002 0 011-1 1.002 1.002 0 011 1V40.3a1.001 1.001 0 01-1 1z"/><path fill="#fff" d="M396.45 35.54h-11.52a.997.997 0 01-1-1 .998.998 0 011-1h11.52a1.001 1.001 0 010 2z"/><path fill="#273139" d="M415.27 30.2h1.46l3 7.86h-1.48l-.7-2.06h-3.14l-.74 2.08h-1.41l3.01-7.88zm-.48 4.73h2.39L416 31.56l-1.21 3.37zM425.69 38.06h-1.19v-.77a1.503 1.503 0 01-.74.71 2.524 2.524 0 01-1 .21 2.81 2.81 0 01-1.17-.23 2.364 2.364 0 01-.84-.65 2.904 2.904 0 01-.49-1 4.168 4.168 0 01-.17-1.19c-.011-.452.06-.903.21-1.33a2.64 2.64 0 01.56-.93 2.08 2.08 0 01.79-.53c.289-.115.598-.172.91-.17.181-.002.362.015.54.05.183.029.362.083.53.16.166.07.321.165.46.28.148.106.27.242.36.4V30.2h1.26l-.02 7.86zm-4.38-2.78c0 .24.03.478.09.71.057.226.156.44.29.63.128.182.296.332.49.44.216.113.457.168.7.16a1.47 1.47 0 00.72-.17c.201-.116.372-.277.5-.47.13-.195.225-.412.28-.64.068-.237.102-.483.1-.73a2.3 2.3 0 00-.43-1.47 1.37 1.37 0 00-1.15-.53 1.42 1.42 0 00-.74.18 1.464 1.464 0 00-.49.47c-.13.203-.224.426-.28.66-.052.25-.079.505-.08.76zM432.41 38.06h-1.19v-.77a1.495 1.495 0 01-.74.71 2.517 2.517 0 01-1 .21c-.401.008-.8-.07-1.17-.23a2.347 2.347 0 01-.83-.65 2.762 2.762 0 01-.5-1 4.2 4.2 0 01-.16-1.19 3.564 3.564 0 01.21-1.33c.114-.346.302-.664.55-.93.221-.233.491-.414.79-.53.29-.115.599-.172.91-.17.182-.002.363.014.54.05.184.029.362.083.53.16.168.068.323.163.46.28.148.106.271.242.361.4V30.2h1.259l-.02 7.86zM428 35.28c0 .24.03.478.09.71.062.225.16.437.29.63.129.182.296.332.49.44.216.113.457.168.7.16.251.006.499-.053.72-.17.201-.116.372-.277.5-.47a1.98 1.98 0 00.28-.64c.069-.237.102-.483.101-.73a2.243 2.243 0 00-.431-1.47 1.368 1.368 0 00-1.15-.53 1.421 1.421 0 00-.74.18 1.483 1.483 0 00-.49.47 2.172 2.172 0 00-.28.66c-.051.25-.078.505-.08.76zM437 30.2h1.37v7.86H437V30.2zM439.89 32.37h1.19v.84c.179-.31.438-.565.75-.74.303-.176.648-.27 1-.27a2.132 2.132 0 011.47.48 1.85 1.85 0 01.54 1.45v3.91h-1.25v-3.56a1.554 1.554 0 00-.29-1 1.008 1.008 0 00-.82-.3 1.5 1.5 0 00-.58.11c-.16.078-.303.187-.42.32a1.594 1.594 0 00-.38 1.06v3.36h-1.25l.04-5.66zM445.63 32.37h.95v-1.7h1.25v1.7H449v.94h-1.13v3a1.756 1.756 0 000 .34.608.608 0 00.07.25.372.372 0 00.18.14.76.76 0 00.33 0h.53v1h-.4c-.137.01-.274.01-.41 0a2.885 2.885 0 01-.8-.09.995.995 0 01-.47-.28.88.88 0 01-.23-.45 2.841 2.841 0 01-.07-.63v-3.28h-.95l-.02-.94zM450.84 35.54c-.002.217.032.433.1.64.057.197.152.38.28.54a1.448 1.448 0 001.15.5c.313.012.622-.068.89-.23a1.46 1.46 0 00.5-.71H455c-.063.291-.179.569-.34.82-.323.478-.799.83-1.35 1-.29.08-.589.121-.89.12a2.996 2.996 0 01-1.19-.22 2.452 2.452 0 01-.87-.61 2.625 2.625 0 01-.54-1 3.88 3.88 0 01-.18-1.21 3.36 3.36 0 01.19-1.15c.117-.366.304-.705.55-1 .242-.274.539-.495.87-.65a2.58 2.58 0 011.14-.24c.417-.01.83.087 1.2.28.347.178.651.431.89.74.235.318.408.678.51 1.06.113.403.14.825.08 1.24l-4.23.08zm2.93-.83a2.372 2.372 0 00-.13-.57 1.392 1.392 0 00-.72-.81 1.368 1.368 0 00-.58-.12 1.638 1.638 0 00-.6.11 1.516 1.516 0 00-.46.32c-.13.141-.234.304-.31.48a1.62 1.62 0 00-.13.59h2.93zM461.24 37.76a2.417 2.417 0 01-.72 1.92 3.06 3.06 0 01-2.08.63 5.109 5.109 0 01-.86-.08 2.588 2.588 0 01-.79-.3 1.862 1.862 0 01-.6-.55 1.712 1.712 0 01-.29-.84h1.26a.904.904 0 00.5.69c.126.062.261.103.4.12.153.01.307.01.46 0a1.29 1.29 0 001.48-1.42v-.87a1.814 1.814 0 01-.72.73 1.881 1.881 0 01-1 .27c-.4.012-.798-.07-1.16-.24a2.214 2.214 0 01-.8-.65 2.695 2.695 0 01-.45-1 4.25 4.25 0 01-.14-1.15c-.005-.37.052-.739.17-1.09a2.78 2.78 0 01.51-.91 2.41 2.41 0 011.89-.85 2.18 2.18 0 011 .22c.302.154.545.403.69.71v-.78h1.26l-.01 5.44zm-2.78-.69c.247.004.492-.054.71-.17.187-.115.347-.269.47-.45.125-.196.213-.413.26-.64.056-.236.083-.478.08-.72a2.784 2.784 0 00-.08-.71 2.006 2.006 0 00-.27-.6 1.224 1.224 0 00-.48-.42 1.469 1.469 0 00-.69-.15 1.41 1.41 0 00-.71.17 1.442 1.442 0 00-.46.46 1.896 1.896 0 00-.25.64 3.46 3.46 0 00-.08.71c0 .23.03.458.09.68.053.215.144.418.27.6a1.319 1.319 0 001.14.6zM462.5 32.37h1.18v1.1c.044-.163.119-.315.22-.45.105-.152.233-.287.38-.4.151-.121.32-.22.5-.29a1.4 1.4 0 01.56-.11h.48v1.21h-.54a1.46 1.46 0 00-.6.12c-.19.088-.358.218-.49.38a1.695 1.695 0 00-.33.61 2.653 2.653 0 00-.12.83v2.71h-1.24v-5.71zM471.14 36.79a.637.637 0 00.06.33.253.253 0 00.24.1h.13c.056.01.114.01.17 0v.87h-.17l-.21.05H471a1.24 1.24 0 01-.64-.15.75.75 0 01-.33-.54 2.234 2.234 0 01-.91.53 3.69 3.69 0 01-1.06.16 2.52 2.52 0 01-.73-.1 1.712 1.712 0 01-.62-.31 1.447 1.447 0 01-.43-.52 1.55 1.55 0 01-.16-.73 1.69 1.69 0 01.19-.86c.122-.212.298-.388.51-.51.214-.133.452-.225.7-.27.261-.059.524-.102.79-.13l.65-.09c.183-.015.364-.049.54-.1a.77.77 0 00.37-.2.527.527 0 00.13-.32.699.699 0 00-.11-.4.8.8 0 00-.29-.23.938.938 0 00-.38-.11h-.4a1.501 1.501 0 00-.86.22.843.843 0 00-.39.68h-1.25c.008-.32.097-.634.26-.91.146-.241.349-.444.59-.59a2.38 2.38 0 01.81-.3c.303-.06.611-.09.92-.09.279 0 .557.03.83.09.258.05.505.144.73.28.211.127.389.302.52.51.137.233.206.5.2.77l-.04 2.87zm-1.26-1.58c-.212.13-.452.209-.7.23a7.989 7.989 0 00-.84.11c-.129.02-.256.05-.38.09a.994.994 0 00-.33.17.752.752 0 00-.23.27 1.08 1.08 0 00-.08.42.53.53 0 00.12.35c.08.093.179.167.29.22.119.06.248.101.38.12h.37c.15.014.3.014.45 0 .159-.038.311-.102.45-.19.142-.083.265-.196.36-.33.1-.15.149-.33.14-.51v-.95zM471.92 32.37h.95v-1.7h1.25v1.7h1.13v.94h-1.13v3a1.756 1.756 0 000 .34.608.608 0 00.07.25.372.372 0 00.18.14.76.76 0 00.33 0h.56v1h-.41c-.133.01-.267.01-.4 0a2.885 2.885 0 01-.8-.09.995.995 0 01-.47-.28.88.88 0 01-.23-.45 2.841 2.841 0 01-.07-.63v-3.28h-.95l-.01-.94zM476.19 30.2h1.25v1.19h-1.25V30.2zm0 2.17h1.25v5.69h-1.25v-5.69zM481.41 38.21a3.068 3.068 0 01-1.21-.21 2.67 2.67 0 01-.91-.62 2.8 2.8 0 01-.56-.95 3.921 3.921 0 010-2.41c.122-.35.312-.673.56-.95.257-.267.567-.479.91-.62a3.07 3.07 0 011.21-.22c.417-.009.832.066 1.22.22.339.144.645.355.9.62.247.277.438.6.56.95a3.921 3.921 0 010 2.41c-.122.35-.313.674-.56.95a2.726 2.726 0 01-.9.62c-.389.151-.804.222-1.22.21zm0-1c.253.005.504-.054.73-.17.201-.116.372-.277.5-.47a2 2 0 00.3-.64 2.994 2.994 0 000-1.46 2.001 2.001 0 00-.3-.64 1.571 1.571 0 00-.5-.46 1.543 1.543 0 00-.73-.17 1.468 1.468 0 00-.72.17c-.203.112-.378.27-.51.46a1.99 1.99 0 00-.29.64 3.103 3.103 0 00-.1.73 3 3 0 00.1.73c.058.229.156.446.29.64.129.196.304.357.51.47.22.12.468.183.72.18v-.01zM485.33 32.37h1.19v.84c.179-.31.438-.565.75-.74a1.94 1.94 0 011-.27 2.13 2.13 0 011.47.48 1.852 1.852 0 01.54 1.45v3.91h-1.25v-3.56a1.548 1.548 0 00-.29-1 .996.996 0 00-.82-.3 1.5 1.5 0 00-.58.11c-.16.078-.303.187-.42.32a1.594 1.594 0 00-.38 1.06v3.36h-1.25l.04-5.66z"/></g><defs><clipPath id="clip0_3597_67854"><path fill="#fff" d="M0 0h564v300H0z"/></clipPath></defs></svg>