<?xml version="1.0" encoding="UTF-8"?><svg id="Layer_1" xmlns="http://www.w3.org/2000/svg" viewBox="0 0 127.78 125.49"><defs><style>.cls-1{fill:#91a1b0;}.cls-1,.cls-2,.cls-3,.cls-4,.cls-5,.cls-6{stroke-linejoin:round;}.cls-1,.cls-2,.cls-3,.cls-4,.cls-5,.cls-6,.cls-7{stroke-linecap:round;}.cls-1,.cls-2,.cls-4,.cls-8{stroke-width:1.2px;}.cls-1,.cls-2,.cls-8{stroke:#91a1b0;}.cls-9{fill:#bec6d2;isolation:isolate;opacity:.2;}.cls-9,.cls-10,.cls-11,.cls-12{stroke-width:0px;}.cls-2,.cls-3,.cls-4,.cls-5,.cls-8,.cls-6,.cls-7{fill:none;}.cls-3{stroke-dasharray:0 0 2.22 3.33;}.cls-3,.cls-4,.cls-5,.cls-6,.cls-7{stroke:#ced6de;}.cls-3,.cls-5,.cls-6{stroke-width:2px;}.cls-13{opacity:.25;}.cls-8{stroke-miterlimit:10;}.cls-6{stroke-dasharray:0 0 2 3;}.cls-7{stroke-dasharray:0 0 2 2;stroke-width:1.5px;}.cls-10{fill:#c4ccd4;}.cls-11{fill:#92a2b1;}.cls-12{fill:#fff;}</style></defs><path class="cls-9" d="m65.61,116.9c28.56,0,51.71-23.15,51.71-51.71S94.17,13.48,65.61,13.48,13.9,36.63,13.9,65.19s23.15,51.71,51.71,51.71Z"/><path class="cls-2" d="m16.26,15.39h6.34"/><path class="cls-2" d="m30.12.6v6.35"/><path class="cls-2" d="m18.96,5.14l5.03,3.87"/><path class="cls-12" d="m103.57,39.82v66.06c0,2.32-1.88,4.2-4.2,4.2H34.32c-2.32,0-4.2-1.88-4.2-4.2V20.24c0-2.32,1.88-4.2,4.2-4.2h47.04"/><path class="cls-8" d="m103.57,39.82v66.06c0,2.32-1.88,4.2-4.2,4.2H34.32c-2.32,0-4.2-1.88-4.2-4.2V20.24c0-2.32,1.88-4.2,4.2-4.2h47.04"/><path class="cls-1" d="m103.57,39.82h-17.7c-2.49,0-4.52-2.06-4.52-4.61v-19.17l22.22,23.78Z"/><path class="cls-4" d="m40.3,48.97h39.5"/><path class="cls-4" d="m40.3,54.8h27.42"/><path class="cls-2" d="m121.79,124.89h5.39"/><path class="cls-2" d="m92.37,124.89h23.58"/><path class="cls-2" d="m.6,124.89h86.17"/><path class="cls-4" d="m39.92,70.84h41.44"/><path class="cls-4" d="m39.92,76.95h28.77"/><path class="cls-4" d="m39.92,89.29h41.44"/><path class="cls-4" d="m39.92,95.4h28.77"/><path class="cls-9" d="m65.29,27.45h-12.38c-.67,0-1.22.55-1.22,1.22v.21c0,.67.55,1.22,1.22,1.22h12.38c.67,0,1.22-.55,1.22-1.22v-.21c0-.67-.55-1.22-1.22-1.22Z"/><path class="cls-9" d="m74,32.15h-20.53c-.98,0-1.78.8-1.78,1.78v.31c0,.98.8,1.78,1.78,1.78h20.53c.98,0,1.78-.8,1.78-1.78v-.31c0-.98-.8-1.78-1.78-1.78Z"/><path class="cls-9" d="m42.35,36.85c2.38,0,4.31-1.93,4.31-4.31s-1.93-4.31-4.31-4.31-4.31,1.93-4.31,4.31,1.93,4.31,4.31,4.31Z"/><g class="cls-13"><path class="cls-10" d="m81.36,98.89v-4.17h3.45v4.17h-3.45Z"/></g><path class="cls-12" d="m84.53,116.32c13.33,0,24.13-10.8,24.13-24.13s-10.8-24.13-24.13-24.13-24.13,10.8-24.13,24.13,10.8,24.13,24.13,24.13Z"/><path class="cls-11" d="m120.03,121.66c-1.01,0-2.03-.3-2.92-.92l-11.78-8.24,5.85-8.36,11.78,8.24c2.3,1.61,2.87,4.8,1.25,7.1-.99,1.42-2.58,2.17-4.19,2.17h.01Zm-13.02-9.45l10.79,7.55c1.76,1.23,4.2.8,5.43-.96,1.23-1.76.8-4.2-.96-5.43l-10.79-7.55-4.47,6.39Z"/><path class="cls-11" d="m107.52,111.23l-4.6-3.22,3.22-4.6,4.6,3.22-3.22,4.6Zm-2.93-3.51l2.63,1.84,1.84-2.63-2.63-1.84-1.84,2.63Z"/><path class="cls-11" d="m84.53,117.52c-13.97,0-25.33-11.36-25.33-25.33s11.36-25.33,25.33-25.33,25.33,11.36,25.33,25.33-11.36,25.33-25.33,25.33Zm0-49.46c-13.31,0-24.13,10.83-24.13,24.13s10.83,24.13,24.13,24.13,24.13-10.83,24.13-24.13-10.83-24.13-24.13-24.13Z"/><path class="cls-11" d="m84.53,112.87c-11.4,0-20.67-9.27-20.67-20.67s9.27-20.67,20.67-20.67,20.67,9.27,20.67,20.67-9.27,20.67-20.67,20.67Zm0-40.15c-10.74,0-19.47,8.74-19.47,19.47s8.74,19.48,19.47,19.48,19.48-8.74,19.48-19.48-8.74-19.47-19.48-19.47Z"/><path class="cls-12" d="m84.53,72.72c-10.74,0-19.47,8.74-19.47,19.47s8.74,19.48,19.47,19.48,19.48-8.74,19.48-19.48-8.74-19.47-19.48-19.47Z"/><path class="cls-12" d="m107.01,112.21l10.79,7.55c1.76,1.23,4.2.8,5.43-.96,1.23-1.76.8-4.2-.96-5.43l-10.79-7.55-4.47,6.39Z"/><path class="cls-7" d="m91.67,88.02c1.5,0,2.72-1.22,2.72-2.72s-1.22-2.72-2.72-2.72-2.72,1.22-2.72,2.72,1.22,2.72,2.72,2.72Z"/><path class="cls-6" d="m85.49,102.27c-3.01-.02-5.85-1.07-7.93-3.16-2.09-2.09-3.12-4.88-3.16-7.9"/><path class="cls-5" d="m89.58,93.7c-.34.04-.67.05-1,.05"/><path class="cls-3" d="m85.42,92.8c-.31-.2-.6-.44-.87-.71-.67-.67-1.13-1.47-1.39-2.35"/><path class="cls-5" d="m82.9,88.1c-.01-.33,0-.66.04-1"/></svg>