<svg xmlns="http://www.w3.org/2000/svg" width="106" height="104" fill="none" viewBox="0 0 106 104"><mask id="fs-rsg2rdrhla" style="mask-type:alpha" width="105" height="104" x="1" y="0" maskUnits="userSpaceOnUse"><path fill="url(#paint0_linear_3610_28225)" d="M53.584 103.638c28.619 0 51.819-23.2 51.819-51.819C105.403 23.2 82.203 0 53.583 0 24.966 0 1.766 23.2 1.766 51.82c0 28.618 23.2 51.818 51.819 51.818z"/></mask><g mask="url(#fs-rsg2rdrhla)"><path fill="url(#paint1_linear_3610_28225)" d="M53.26 103.033c28.798 0 52.144-23.065 52.144-51.517C105.404 23.065 82.058 0 53.26 0S1.116 23.065 1.116 51.516c0 28.452 23.346 51.517 52.144 51.517z"/><path fill="#fff" d="M70.942 27.693a3.74 3.74 0 00-3.739 3.74V158.56H198.07V27.693H70.942zm126.744 8.135h-7.815v-7.815h7.815v7.815zm-64.889 48.939v-7.815h7.815v7.815h-7.815zm7.815.384v7.815h-7.815v-7.815h7.815zm-8.136-.384h-7.814v-7.815h7.814v7.815zm0 .384v7.815h-7.814v-7.815h7.814zm-8.199 7.815h-7.815v-7.815h7.815v7.815zm0 .32v7.815h-7.815v-7.814h7.815zm.385 0h7.814v7.815h-7.814v-7.814zm7.814 8.136v7.814h-7.814v-7.814h7.814zm.321 0h7.815v7.814h-7.815v-7.814zm0-.321v-7.814h7.815v7.814h-7.815zm8.135-7.814h7.815v7.814h-7.815v-7.814zm0-.32V85.15h7.815v7.815h-7.815zm0-8.2v-7.815h7.815v7.815h-7.815zm0-8.135v-7.815h7.815v7.815h-7.815zm-.32 0h-7.815v-7.815h7.815v7.815zm-8.136 0h-7.814v-7.815h7.814v7.815zm-8.199 0h-7.815v-7.815h7.815v7.815zm0 .32v7.815h-7.815v-7.815h7.815zm-8.135 7.815h-7.815v-7.815h7.815v7.815zm0 .384v7.815h-7.815v-7.815h7.815zm0 8.136v7.814h-7.815v-7.814h7.815zm0 8.135v7.814h-7.815v-7.814h7.815zm.32 0h7.815v7.814h-7.815v-7.814zm7.815 8.199v7.815h-7.815v-7.815h7.815zm.385 0h7.814v7.815h-7.814v-7.815zm8.135 0h7.815v7.815h-7.815v-7.815zm8.135 0h7.815v7.815h-7.815v-7.815zm0-.385v-7.814h7.815v7.814h-7.815zm8.199-7.814h7.815v7.814h-7.815v-7.814zm0-.321v-7.814h7.815v7.814h-7.815zm0-8.135v-7.815h7.815v7.815h-7.815zm0-8.199v-7.815h7.815v7.815h-7.815zm0-8.135v-7.815h7.815v7.815h-7.815zm0-8.135v-7.815h7.815v7.815h-7.815zm-.384 0h-7.815v-7.815h7.815v7.815zm-8.135 0h-7.815v-7.815h7.815v7.815zm-8.136 0h-7.814v-7.815h7.814v7.815zm-8.199 0h-7.815v-7.815h7.815v7.815zm-8.135 0h-7.815v-7.815h7.815v7.815zm0 .32v7.815h-7.815v-7.815h7.815zm-8.135 7.815h-7.815v-7.815h7.815v7.815zm0 .32v7.815h-7.815v-7.815h7.815zm0 8.2v7.814h-7.815v-7.815h7.815zm0 8.135v7.814h-7.815v-7.814h7.815zm0 8.135v7.814h-7.815v-7.814h7.815zm0 8.199v7.815h-7.815v-7.815h7.815zm.32 0h7.815v7.815h-7.815v-7.815zm7.815 8.135v7.815h-7.815v-7.815h7.815zm.32 0h7.815v7.815h-7.815v-7.815zm8.2 0h7.814v7.815h-7.814v-7.815zm8.135 0h7.815v7.815h-7.815v-7.815zm8.135 0h7.815v7.815h-7.815v-7.815zm8.199 0h7.815v7.815h-7.815v-7.815zm0-.32v-7.815h7.815v7.815h-7.815zm8.135-7.815h7.815v7.815h-7.815v-7.815zm0-.385v-7.814h7.815v7.814h-7.815zm0-8.135v-7.814h7.815v7.814h-7.815zm0-8.135v-7.815h7.815v7.815h-7.815zm0-8.199v-7.815h7.815v7.815h-7.815zm0-8.135v-7.815h7.815v7.815h-7.815zm0-8.135v-7.815h7.815v7.815h-7.815zm0-8.2v-7.814h7.815v7.815h-7.815zm-.32 0h-7.815v-7.814h7.815v7.815zm-8.199 0h-7.815v-7.814h7.815v7.815zm-8.135 0h-7.815v-7.814h7.815v7.815zm-8.136 0h-7.814v-7.814h7.814v7.815zm-8.199 0h-7.815v-7.814h7.815v7.815zm-8.135 0h-7.815v-7.814h7.815v7.815zm-8.135 0h-7.815v-7.814h7.815v7.815zm0 .385v7.815h-7.815v-7.815h7.815zm-8.2 7.815h-7.814v-7.815h7.815v7.815zm0 .32v7.815h-7.814v-7.815h7.815zm0 8.135v7.815h-7.814v-7.815h7.815zm0 8.2v7.814h-7.814v-7.815h7.815zm0 8.135v7.814h-7.814v-7.814h7.815zm0 8.135v7.814h-7.814v-7.814h7.815zm0 8.199v7.815h-7.814v-7.815h7.815zm0 8.135v7.815h-7.814v-7.815h7.815zm.385 0h7.815v7.815h-7.815v-7.815zm7.815 8.135v7.815h-7.815v-7.815h7.815zm.32 0h7.815v7.815h-7.815v-7.815zm8.135 0h7.815v7.815h-7.815v-7.815zm8.2 0h7.814v7.815h-7.814v-7.815zm8.135 0h7.815v7.815h-7.815v-7.815zm8.135 0h7.815v7.815h-7.815v-7.815zm8.199 0h7.815v7.815h-7.815v-7.815zm8.135 0h7.815v7.815h-7.815v-7.815zm0-.32v-7.815h7.815v7.815h-7.815zm8.135-7.815h7.815v7.815h-7.815v-7.815zm0-.32v-7.815h7.815v7.815h-7.815zm0-8.2v-7.814h7.815v7.814h-7.815zm0-8.135v-7.814h7.815v7.814h-7.815zm0-8.135v-7.815h7.815v7.815h-7.815zm0-8.199v-7.815h7.815v7.815h-7.815zm0-8.135v-7.815h7.815v7.815h-7.815zm0-8.135v-7.815h7.815v7.815h-7.815zm0-8.2v-7.814h7.815v7.815h-7.815zm0-8.135v-7.815h7.815v7.815h-7.815zm-.32 0h-7.815v-7.815h7.815v7.815zm-8.135 0h-7.815v-7.815h7.815v7.815zm-8.199 0h-7.815v-7.815h7.815v7.815zm-8.135 0h-7.815v-7.815h7.815v7.815zm-8.136 0h-7.814v-7.815h7.814v7.815zm-8.199 0h-7.815v-7.815h7.815v7.815zm-8.135 0h-7.815v-7.815h7.815v7.815zm-8.135 0h-7.815v-7.815h7.815v7.815zm-8.2 0h-7.814v-7.815h7.815v7.815zm0 .32v7.816h-7.814v-7.815h7.815zm-8.134 7.816h-7.815v-7.815h7.815v7.815zm0 .384v7.815h-7.815v-7.815h7.815zm0 8.135v7.815h-7.815v-7.815h7.815zm0 8.135v7.815h-7.815v-7.815h7.815zm0 8.2v7.814h-7.815v-7.815h7.815zm0 8.135v7.814h-7.815v-7.814h7.815zm0 8.135v7.814h-7.815v-7.814h7.815zm0 8.199v7.815h-7.815v-7.815h7.815zm0 8.135v7.815h-7.815v-7.815h7.815zm0 8.135v7.815h-7.815v-7.815h7.815zm.32 0h7.815v7.815h-7.815v-7.815zm7.815 8.199v7.815h-7.815v-7.815h7.815zm.384 0h7.815v7.815h-7.815v-7.815zm8.135 0h7.815v7.815h-7.815v-7.815zm8.135 0h7.815v7.815h-7.815v-7.815zm8.2 0h7.814v7.815h-7.814v-7.815zm8.135 0h7.815v7.815h-7.815v-7.815zm8.135 0h7.815v7.815h-7.815v-7.815zm8.199 0h7.815v7.815h-7.815v-7.815zm8.135 0h7.815v7.815h-7.815v-7.815zm8.135 0h7.815v7.815h-7.815v-7.815zm0-.384v-7.815h7.815v7.815h-7.815zm8.199-7.815h7.815v7.815H173.6v-7.815zm0-.32v-7.815h7.815v7.815H173.6zm0-8.135v-7.815h7.815v7.815H173.6zm0-8.2v-7.814h7.815v7.814H173.6zm0-8.135v-7.814h7.815v7.814H173.6zm0-8.135v-7.815h7.815v7.815H173.6zm0-8.199v-7.815h7.815v7.815H173.6zm0-8.135v-7.815h7.815v7.815H173.6zm0-8.135v-7.815h7.815v7.815H173.6zm0-8.2v-7.814h7.815v7.815H173.6zm0-8.135v-7.815h7.815v7.815H173.6zm0-8.135v-7.815h7.815v7.815H173.6zm-.384 0h-7.815v-7.815h7.815v7.815zm-8.135 0h-7.815v-7.815h7.815v7.815zm-8.135 0h-7.815v-7.815h7.815v7.815zm-8.199 0h-7.815v-7.815h7.815v7.815zm-8.135 0h-7.815v-7.815h7.815v7.815zm-8.136 0h-7.814v-7.815h7.814v7.815zm-8.199 0h-7.815v-7.815h7.815v7.815zm-8.135 0h-7.815v-7.815h7.815v7.815zm-8.135 0h-7.815v-7.815h7.815v7.815zm-8.2 0h-7.814v-7.815h7.815v7.815zm-8.134 0h-7.815v-7.815h7.815v7.815zm0 .32v7.815h-7.815v-7.815h7.815zm-8.136 7.815h-7.814v-7.815h7.814v7.815zm0 .32v7.816h-7.814v-7.815h7.814zm0 8.2v7.815h-7.814v-7.815h7.814zm0 8.135v7.815h-7.814v-7.815h7.814zm0 8.135v7.815h-7.814v-7.815h7.814zm0 8.2v7.814h-7.814v-7.815h7.814zm0 8.135v7.814h-7.814v-7.814h7.814zm0 8.135v7.814h-7.814v-7.814h7.814zm0 8.199v7.815h-7.814v-7.815h7.814zm0 8.135v7.815h-7.814v-7.815h7.814zm0 8.135v7.815h-7.814v-7.815h7.814zm0 8.199v7.815h-7.814v-7.815h7.814zm.32 0h7.816v7.815h-7.815v-7.815zm7.816 8.135v7.815h-7.815v-7.815h7.815zm.32 0h7.815v7.815h-7.815v-7.815zm8.199 0h7.815v7.815h-7.815v-7.815zm8.135 0h7.815v7.815h-7.815v-7.815zm8.135 0h7.815v7.815h-7.815v-7.815zm8.2 0h7.814v7.815h-7.814v-7.815zm8.135 0h7.815v7.815h-7.815v-7.815zm8.135 0h7.815v7.815h-7.815v-7.815zm8.199 0h7.815v7.815h-7.815v-7.815zm8.135 0h7.815v7.815h-7.815v-7.815zm8.135 0h7.815v7.815h-7.815v-7.815zm8.199 0h7.815v7.815H173.6v-7.815zm0-.32v-7.815h7.815v7.815H173.6zm8.136-7.815h7.814v7.815h-7.814v-7.815zm0-.384v-7.815h7.814v7.815h-7.814zm0-8.135v-7.815h7.814v7.815h-7.814zm0-8.135v-7.815h7.814v7.815h-7.814zm0-8.2v-7.814h7.814v7.814h-7.814zm0-8.135v-7.814h7.814v7.814h-7.814zm0-8.135v-7.815h7.814v7.815h-7.814zm0-8.199v-7.815h7.814v7.815h-7.814zm0-8.135v-7.815h7.814v7.815h-7.814zm0-8.135v-7.815h7.814v7.815h-7.814zm0-8.2v-7.814h7.814v7.815h-7.814zm0-8.135v-7.815h7.814v7.815h-7.814zm0-8.135v-7.815h7.814v7.815h-7.814zm0-8.199v-7.815h7.814v7.815h-7.814zm-.321 0H173.6v-7.815h7.815v7.815zm-8.199 0h-7.815v-7.815h7.815v7.815zm-8.135 0h-7.815v-7.815h7.815v7.815zm-8.135 0h-7.815v-7.815h7.815v7.815zm-8.199 0h-7.815v-7.815h7.815v7.815zm-8.135 0h-7.815v-7.815h7.815v7.815zm-8.136 0h-7.814v-7.815h7.814v7.815zm-8.199 0h-7.815v-7.815h7.815v7.815zm-8.135 0h-7.815v-7.815h7.815v7.815zm-8.135 0h-7.815v-7.815h7.815v7.815zm-8.2 0h-7.814v-7.815h7.815v7.815zm-8.134 0h-7.815v-7.815h7.815v7.815zm-8.136 0h-7.814v-7.815h7.814v7.815zm0 .384v7.815h-7.814v-7.815h7.814zm-8.199 7.815h-7.815v-7.815h7.815v7.815zm0 .32v7.815h-7.815v-7.815h7.815zm0 8.136v7.815h-7.815v-7.815h7.815zm0 8.199v7.815h-7.815v-7.815h7.815zm0 8.135v7.815h-7.815v-7.815h7.815zm0 8.135v7.815h-7.815v-7.815h7.815zm0 8.2v7.814h-7.815v-7.815h7.815zm0 8.135v7.814h-7.815v-7.814h7.815zm0 8.135v7.814h-7.815v-7.814h7.815zm0 8.199v7.815h-7.815v-7.815h7.815zm0 8.135v7.815h-7.815v-7.815h7.815zm0 8.135v7.815h-7.815v-7.815h7.815zm0 8.199v7.815h-7.815v-7.815h7.815zm0 8.135v7.815h-7.815v-7.815h7.815zm.385 0h7.814v7.815h-7.814v-7.815zm7.814 8.136v7.814h-7.814v-7.814h7.814zm.32 0h7.816v7.814h-7.815v-7.814zm8.136 0h7.815v7.814h-7.815v-7.814zm8.199 0h7.815v7.814h-7.815v-7.814zm8.135 0h7.815v7.814h-7.815v-7.814zm8.135 0h7.815v7.814h-7.815v-7.814zm8.2 0h7.814v7.814h-7.814v-7.814zm8.135 0h7.815v7.814h-7.815v-7.814zm8.135 0h7.815v7.814h-7.815v-7.814zm8.199 0h7.815v7.814h-7.815v-7.814zm8.135 0h7.815v7.814h-7.815v-7.814zm8.135 0h7.815v7.814h-7.815v-7.814zm8.199 0h7.815v7.814H173.6v-7.814zm8.136 0h7.814v7.814h-7.814v-7.814zm0-.321v-7.815h7.814v7.815h-7.814zm8.135-7.815h7.815v7.815h-7.815v-7.815zm0-.32v-7.815h7.815v7.815h-7.815zm0-8.199v-7.815h7.815v7.815h-7.815zm0-8.135v-7.815h7.815v7.815h-7.815zm0-8.135v-7.815h7.815v7.815h-7.815zm0-8.2v-7.814h7.815v7.814h-7.815zm0-8.135v-7.814h7.815v7.814h-7.815zm0-8.135v-7.815h7.815v7.815h-7.815zm0-8.199v-7.815h7.815v7.815h-7.815zm0-8.135v-7.815h7.815v7.815h-7.815zm0-8.135v-7.815h7.815v7.815h-7.815zm0-8.2v-7.814h7.815v7.815h-7.815zm0-8.135v-7.815h7.815v7.815h-7.815zm0-8.135v-7.815h7.815v7.815h-7.815zM75.338 28.013v7.815h-7.815v-4.076a3.74 3.74 0 013.74-3.739h4.075zm-7.815 122.348h7.815v7.814h-7.815v-7.814zm122.348 7.814v-7.814h7.815v7.814h-7.815z"/><path fill="url(#paint2_linear_3610_28225)" d="M.589 70.267h105.99v35.33H.589z"/></g><path fill="url(#paint3_radial_3610_28225)" d="M6.616 73.69a6.616 6.616 0 100-13.232 6.616 6.616 0 000 13.231z"/><path fill="url(#paint4_radial_3610_28225)" d="M2.79 66.75c-1.2-.737-1.5-2.42-.67-3.734.808-1.314 2.444-1.798 3.643-1.06 1.199.737 1.498 2.42.668 3.734-.83 1.337-2.466 1.798-3.642 1.06z" opacity=".5"/><path fill="url(#paint5_radial_3610_28225)" d="M95.629 29.227a5.05 5.05 0 100-10.1 5.05 5.05 0 000 10.1z"/><g filter="url(#filter0_i_3610_28225)"><path fill="url(#paint6_linear_3610_28225)" d="M89.728 66.472c-.034-.009-.07-.015-.095-.039-.523-.5 1.025-7.304 1.171-7.813.748-2.583 1.987-5.096 3.98-6.94 1.41-1.305 5.177-3.859 7.132-2.358 1.647 1.267.104 4.448-.656 5.778-1.361 2.365-3.368 4.281-5.081 6.378-1.022 1.255-2.05 2.534-3.072 3.788-.066.086-.584.821-.97 1.3-.249.306-.609.362-.992.265-.517-.13-1.225-.31-1.417-.36z"/></g><g filter="url(#filter1_i_3610_28225)"><path fill="url(#paint7_linear_3610_28225)" d="M91.964 68.54c.836.18 1.58-.53 1.406-1.368-.96-4.606-4.142-16.616-10.882-14.428-6.125 2.01 7.038 13.856 8.945 15.533.154.135.331.22.53.263z"/></g><path fill="#77FFE4" fill-opacity=".2" d="M84.323 55.14s7.882 10.287 7.972 12.463L84.323 55.14zM99.585 51.351s-6.476 8.262-7.18 11.93l7.18-11.93z"/><path fill="url(#paint8_linear_3610_28225)" d="M83.95 66.51a1.611 1.611 0 011.603-1.766h10.923c.951 0 1.695.819 1.604 1.766l-1.217 12.625a1.611 1.611 0 01-1.604 1.457h-8.488c-.83 0-1.525-.63-1.604-1.457L83.95 66.51z"/><g filter="url(#filter2_i_3610_28225)"><rect width="15.516" height="3.82" x="83.257" y="64.744" fill="url(#paint9_linear_3610_28225)" rx=".806"/></g><g filter="url(#filter3_f_3610_28225)"><ellipse cx="49.559" cy="88.588" fill="#000" fill-opacity=".37" rx="34.221" ry=".371"/></g><g filter="url(#filter4_d_3610_28225)"><path fill="url(#paint10_linear_3610_28225)" d="M27.822 48.395h41.707l4.592 7.07-50.11-.277 3.81-6.793z"/></g><g filter="url(#filter5_ii_3610_28225)"><path fill="#4392F4" d="M24.006 55.14l50.115.323v33.504H24.006V55.14z"/></g><g filter="url(#filter6_i_3610_28225)"><path fill="#4392F4" d="M24.137 55l3.688-6.594-7.976 3.075-5.762 6.756L24.137 55z"/></g><g filter="url(#filter7_i_3610_28225)"><path fill="#4392F4" d="M74.038 55.574l-4.494-7.208 7.967 4.253 4.883 7.044-8.356-4.09z"/></g><path stroke="#82BBCA" stroke-dasharray="2.08 0" stroke-linecap="round" stroke-linejoin="round" stroke-width=".686" d="M56.053 29.786c-10.165 8.93-16.021 23.386-5.941 36.364"/><ellipse cx="57.067" cy="28.987" fill="url(#paint11_radial_3610_28225)" rx="2.869" ry="1.809" transform="rotate(-31.958 57.067 28.987)"/><ellipse cx="52.56" cy="24.039" fill="#fff" rx="4.49" ry="1.659" transform="rotate(39.904 52.56 24.039)"/><ellipse cx="60.72" cy="34.758" fill="#fff" rx="4.49" ry="1.659" transform="rotate(60.571 60.72 34.758)"/><g filter="url(#filter8_i_3610_28225)"><path fill="#4392F4" d="M17.676 66.726l6.362-11.541H73.92l5.333 11.585a.686.686 0 01-.623.973H18.276a.686.686 0 01-.6-1.017z"/></g><defs><filter id="filter0_i_3610_28225" width="13.895" height="18.306" x="89.525" y="48.568" color-interpolation-filters="sRGB" filterUnits="userSpaceOnUse"><feFlood flood-opacity="0" result="BackgroundImageFix"/><feBlend in="SourceGraphic" in2="BackgroundImageFix" result="shape"/><feColorMatrix in="SourceAlpha" result="hardAlpha" values="0 0 0 0 0 0 0 0 0 0 0 0 0 0 0 0 0 0 127 0"/><feOffset dx=".773" dy="-.295"/><feGaussianBlur stdDeviation="1.007"/><feComposite in2="hardAlpha" k2="-1" k3="1" operator="arithmetic"/><feColorMatrix values="0 0 0 0 0.113056 0 0 0 0 0.616667 0 0 0 0 0.58645 0 0 0 1 0"/><feBlend in2="shape" result="effect1_innerShadow_3610_28225"/></filter><filter id="filter1_i_3610_28225" width="13.292" height="16.384" x="80.876" y="52.185" color-interpolation-filters="sRGB" filterUnits="userSpaceOnUse"><feFlood flood-opacity="0" result="BackgroundImageFix"/><feBlend in="SourceGraphic" in2="BackgroundImageFix" result="shape"/><feColorMatrix in="SourceAlpha" result="hardAlpha" values="0 0 0 0 0 0 0 0 0 0 0 0 0 0 0 0 0 0 127 0"/><feOffset dx=".773" dy="-.295"/><feGaussianBlur stdDeviation="1.007"/><feComposite in2="hardAlpha" k2="-1" k3="1" operator="arithmetic"/><feColorMatrix values="0 0 0 0 0.0996528 0 0 0 0 0.683333 0 0 0 0 0.555806 0 0 0 1 0"/><feBlend in2="shape" result="effect1_innerShadow_3610_28225"/></filter><filter id="filter2_i_3610_28225" width="15.838" height="4.062" x="83.257" y="64.502" color-interpolation-filters="sRGB" filterUnits="userSpaceOnUse"><feFlood flood-opacity="0" result="BackgroundImageFix"/><feBlend in="SourceGraphic" in2="BackgroundImageFix" result="shape"/><feColorMatrix in="SourceAlpha" result="hardAlpha" values="0 0 0 0 0 0 0 0 0 0 0 0 0 0 0 0 0 0 127 0"/><feOffset dx=".322" dy="-.242"/><feGaussianBlur stdDeviation=".282"/><feComposite in2="hardAlpha" k2="-1" k3="1" operator="arithmetic"/><feColorMatrix values="0 0 0 0 0.833333 0 0 0 0 0.604343 0 0 0 0 0.0555555 0 0 0 1 0"/><feBlend in2="shape" result="effect1_innerShadow_3610_28225"/></filter><filter id="filter3_f_3610_28225" width="71.333" height="3.633" x="13.893" y="86.772" color-interpolation-filters="sRGB" filterUnits="userSpaceOnUse"><feFlood flood-opacity="0" result="BackgroundImageFix"/><feBlend in="SourceGraphic" in2="BackgroundImageFix" result="shape"/><feGaussianBlur result="effect1_foregroundBlur_3610_28225" stdDeviation=".723"/></filter><filter id="filter4_d_3610_28225" width="53.388" height="10.349" x="22.372" y="47.576" color-interpolation-filters="sRGB" filterUnits="userSpaceOnUse"><feFlood flood-opacity="0" result="BackgroundImageFix"/><feColorMatrix in="SourceAlpha" result="hardAlpha" values="0 0 0 0 0 0 0 0 0 0 0 0 0 0 0 0 0 0 127 0"/><feOffset dy=".82"/><feGaussianBlur stdDeviation=".82"/><feColorMatrix values="0 0 0 0 0 0 0 0 0 0 0 0 0 0 0 0 0 0 0.25 0"/><feBlend in2="BackgroundImageFix" result="effect1_dropShadow_3610_28225"/><feBlend in="SourceGraphic" in2="effect1_dropShadow_3610_28225" result="shape"/></filter><filter id="filter5_ii_3610_28225" width="50.831" height="34.614" x="23.29" y="55.14" color-interpolation-filters="sRGB" filterUnits="userSpaceOnUse"><feFlood flood-opacity="0" result="BackgroundImageFix"/><feBlend in="SourceGraphic" in2="BackgroundImageFix" result="shape"/><feColorMatrix in="SourceAlpha" result="hardAlpha" values="0 0 0 0 0 0 0 0 0 0 0 0 0 0 0 0 0 0 127 0"/><feOffset dy=".787"/><feGaussianBlur stdDeviation=".405"/><feComposite in2="hardAlpha" k2="-1" k3="1" operator="arithmetic"/><feColorMatrix values="0 0 0 0 0.641667 0 0 0 0 0.8495 0 0 0 0 1 0 0 0 1 0"/><feBlend in2="shape" result="effect1_innerShadow_3610_28225"/><feColorMatrix in="SourceAlpha" result="hardAlpha" values="0 0 0 0 0 0 0 0 0 0 0 0 0 0 0 0 0 0 127 0"/><feOffset dx="-.716"/><feGaussianBlur stdDeviation=".405"/><feComposite in2="hardAlpha" k2="-1" k3="1" operator="arithmetic"/><feColorMatrix values="0 0 0 0 0 0 0 0 0 0 0 0 0 0 0 0 0 0 0.25 0"/><feBlend in2="effect1_innerShadow_3610_28225" result="effect2_innerShadow_3610_28225"/></filter><filter id="filter6_i_3610_28225" width="14.364" height="9.832" x="13.461" y="48.406" color-interpolation-filters="sRGB" filterUnits="userSpaceOnUse"><feFlood flood-opacity="0" result="BackgroundImageFix"/><feBlend in="SourceGraphic" in2="BackgroundImageFix" result="shape"/><feColorMatrix in="SourceAlpha" result="hardAlpha" values="0 0 0 0 0 0 0 0 0 0 0 0 0 0 0 0 0 0 127 0"/><feOffset dx="-.626"/><feGaussianBlur stdDeviation=".313"/><feComposite in2="hardAlpha" k2="-1" k3="1" operator="arithmetic"/><feColorMatrix values="0 0 0 0 0.00392157 0 0 0 0 0.282353 0 0 0 0 0.635294 0 0 0 1 0"/><feBlend in2="shape" result="effect1_innerShadow_3610_28225"/></filter><filter id="filter7_i_3610_28225" width="13.477" height="11.982" x="68.918" y="47.68" color-interpolation-filters="sRGB" filterUnits="userSpaceOnUse"><feFlood flood-opacity="0" result="BackgroundImageFix"/><feBlend in="SourceGraphic" in2="BackgroundImageFix" result="shape"/><feColorMatrix in="SourceAlpha" result="hardAlpha" values="0 0 0 0 0 0 0 0 0 0 0 0 0 0 0 0 0 0 127 0"/><feOffset dx="-.626" dy="-.686"/><feGaussianBlur stdDeviation=".343"/><feComposite in2="hardAlpha" k2="-1" k3="1" operator="arithmetic"/><feColorMatrix values="0 0 0 0 0.00392157 0 0 0 0 0.282353 0 0 0 0 0.635294 0 0 0 1 0"/><feBlend in2="shape" result="effect1_innerShadow_3610_28225"/></filter><filter id="filter8_i_3610_28225" width="61.727" height="12.557" x="17.59" y="55.185" color-interpolation-filters="sRGB" filterUnits="userSpaceOnUse"><feFlood flood-opacity="0" result="BackgroundImageFix"/><feBlend in="SourceGraphic" in2="BackgroundImageFix" result="shape"/><feColorMatrix in="SourceAlpha" result="hardAlpha" values="0 0 0 0 0 0 0 0 0 0 0 0 0 0 0 0 0 0 127 0"/><feOffset/><feGaussianBlur stdDeviation=".655"/><feComposite in2="hardAlpha" k2="-1" k3="1" operator="arithmetic"/><feColorMatrix values="0 0 0 0 0.00392157 0 0 0 0 0.282353 0 0 0 0 0.635294 0 0 0 1 0"/><feBlend in2="shape" result="effect1_innerShadow_3610_28225"/></filter><linearGradient id="paint0_linear_3610_28225" x1="53.584" x2="53.584" y1="0" y2="103.638" gradientUnits="userSpaceOnUse"><stop stop-color="#B5EFFF"/><stop offset="1" stop-color="#E7F8FE"/></linearGradient><linearGradient id="paint1_linear_3610_28225" x1="53.26" x2="53.26" y1="0" y2="103.033" gradientUnits="userSpaceOnUse"><stop stop-color="#B5EFFF"/><stop offset="1" stop-color="#EDFBFF"/></linearGradient><linearGradient id="paint2_linear_3610_28225" x1="47.211" x2="61.828" y1="70.267" y2="114.666" gradientUnits="userSpaceOnUse"><stop stop-color="#7FD3E9"/><stop offset="1" stop-color="#7FD3E9" stop-opacity="0"/></linearGradient><linearGradient id="paint6_linear_3610_28225" x1="104.549" x2="89.935" y1="49.146" y2="62.27" gradientUnits="userSpaceOnUse"><stop stop-color="#BAFFF1" stop-opacity=".26"/><stop offset=".682" stop-color="#4DC7AE"/><stop offset=".969" stop-color="#06896F"/></linearGradient><linearGradient id="paint7_linear_3610_28225" x1="98.047" x2="89.16" y1="54.239" y2="69.206" gradientUnits="userSpaceOnUse"><stop stop-color="#B7FDEF"/><stop offset=".682" stop-color="#09B794"/><stop offset=".969" stop-color="#7EE0CC"/></linearGradient><linearGradient id="paint8_linear_3610_28225" x1="98.25" x2="84.812" y1="75.177" y2="75.177" gradientUnits="userSpaceOnUse"><stop offset=".099" stop-color="#FFEEC5"/><stop offset=".607" stop-color="#FACD63"/><stop offset=".839" stop-color="#EAAF23"/><stop offset=".984" stop-color="#EDB52F"/></linearGradient><linearGradient id="paint9_linear_3610_28225" x1="98.773" x2="84.364" y1="67.258" y2="67.258" gradientUnits="userSpaceOnUse"><stop offset=".099" stop-color="#FFEEC5"/><stop offset=".607" stop-color="#FCBD27"/><stop offset=".984" stop-color="#EFB222"/></linearGradient><linearGradient id="paint10_linear_3610_28225" x1="49.003" x2="49.003" y1="39.965" y2="47.566" gradientUnits="userSpaceOnUse"><stop stop-color="#448EEB"/><stop offset="1" stop-color="#0048A2"/></linearGradient><radialGradient id="paint3_radial_3610_28225" cx="0" cy="0" r="1" gradientTransform="rotate(-15.177 243.436 19.182) scale(12.6164)" gradientUnits="userSpaceOnUse"><stop stop-color="#FFF1CF"/><stop offset=".188" stop-color="#FFE4A2"/><stop offset=".318" stop-color="#FFD364"/><stop offset=".49" stop-color="#FFD364"/><stop offset=".651" stop-color="#FFC73A"/><stop offset=".948" stop-color="#D09500"/></radialGradient><radialGradient id="paint4_radial_3610_28225" cx="0" cy="0" r="1" gradientTransform="rotate(121.889 -15.752 33.37) scale(2.76308 2.51634)" gradientUnits="userSpaceOnUse"><stop stop-color="#fff"/><stop offset=".694" stop-color="#fff" stop-opacity="0"/></radialGradient><radialGradient id="paint5_radial_3610_28225" cx="0" cy="0" r="1" gradientTransform="rotate(-15.177 129.698 -338.813) scale(9.62972)" gradientUnits="userSpaceOnUse"><stop stop-color="#E6C6FF"/><stop offset=".188" stop-color="#C07DF5"/><stop offset=".318" stop-color="#BE6FFC"/><stop offset=".49" stop-color="#B56AF0"/><stop offset=".651" stop-color="#A745F4"/><stop offset=".948" stop-color="#9F3DED"/></radialGradient><radialGradient id="paint11_radial_3610_28225" cx="0" cy="0" r="1" gradientTransform="matrix(-1.5229 1.52158 -2.41326 -2.41536 58.59 29.274)" gradientUnits="userSpaceOnUse"><stop stop-color="#69849C"/><stop offset="1" stop-color="#475867"/></radialGradient></defs></svg>