<svg xmlns="http://www.w3.org/2000/svg" width="150" height="150" viewBox="0 0 150 150" fill="none">
  <g clip-path="url(#clip0_1518_35973)">
    <path opacity="0.2" d="M75 121.66C102.614 121.66 125 99.2742 125 71.66C125 44.0457 102.614 21.66 75 21.66C47.3858 21.66 25 44.0457 25 71.66C25 99.2742 47.3858 121.66 75 121.66Z" fill="#BFC7D3"/>
    <path d="M31.35 117.1H106.99V31.1C106.99 28.89 105.2 27.1 102.99 27.1H40.99C38.78 27.1 36.99 28.89 36.99 31.1V111.25C36.99 112.87 36.32 114.42 35.13 115.52C34.34 116.25 33.54 116.59 33.31 116.68C32.53 117 31.83 117.08 31.35 117.1Z" fill="white"/>
    <path d="M107.59 117.7H31.35L31.32 116.5C31.93 116.47 32.52 116.35 33.08 116.12C33.41 115.98 34.08 115.66 34.71 115.08C35.77 114.1 36.38 112.7 36.38 111.25V31.1C36.38 28.56 38.44 26.5 40.98 26.5H102.98C105.52 26.5 107.58 28.56 107.58 31.1V117.7H107.59ZM34.86 116.5H106.39V31.1C106.39 29.22 104.86 27.7 102.99 27.7H40.99C39.11 27.7 37.59 29.23 37.59 31.1V111.25C37.59 113.03 36.84 114.75 35.54 115.96C35.31 116.17 35.09 116.35 34.87 116.5H34.86Z" fill="#8E9DAC"/>
    <path d="M25.25 92.53H36.99V111.23C36.99 114.47 34.36 117.1 31.12 117.1C27.88 117.1 25.25 114.47 25.25 111.23V92.53Z" fill="white"/>
    <path d="M31.12 117.7C27.55 117.7 24.65 114.8 24.65 111.23V91.93H37.59V111.23C37.59 114.8 34.69 117.7 31.12 117.7ZM25.85 93.12V111.23C25.85 114.14 28.21 116.5 31.12 116.5C34.03 116.5 36.39 114.13 36.39 111.23V93.12H25.85Z" fill="#8E9DAC"/>
    <path d="M114.464 117.347L119.624 109.973L130.906 117.868C132.938 119.289 133.435 122.102 132.014 124.134C130.592 126.166 127.779 126.663 125.747 125.242L114.464 117.347Z" fill="white"/>
    <path d="M128.32 126.66C127.31 126.66 126.29 126.36 125.4 125.74L113.62 117.5L119.47 109.14L131.25 117.38C133.55 118.99 134.12 122.18 132.5 124.48C131.51 125.9 129.92 126.65 128.31 126.65L128.32 126.66ZM115.3 117.21L126.09 124.76C127.85 125.99 130.29 125.56 131.52 123.8C132.75 122.04 132.32 119.6 130.56 118.37L119.77 110.82L115.3 117.21Z" fill="#8E9DAC"/>
    <path d="M114.577 109.249L112.049 112.862L115.662 115.39L118.191 111.777L114.577 109.249Z" fill="white"/>
    <path d="M115.81 116.23L111.21 113.01L114.43 108.41L119.03 111.63L115.81 116.23ZM112.88 112.72L115.51 114.56L117.35 111.93L114.72 110.09L112.88 112.72Z" fill="#8E9DAC"/>
    <path d="M92.82 121.92C106.478 121.92 117.55 110.848 117.55 97.19C117.55 83.532 106.478 72.46 92.82 72.46C79.162 72.46 68.09 83.532 68.09 97.19C68.09 110.848 79.162 121.92 92.82 121.92Z" fill="white"/>
    <path d="M92.82 122.52C78.85 122.52 67.49 111.16 67.49 97.19C67.49 83.22 78.85 71.86 92.82 71.86C106.79 71.86 118.15 83.22 118.15 97.19C118.15 111.16 106.79 122.52 92.82 122.52ZM92.82 73.06C79.51 73.06 68.69 83.89 68.69 97.19C68.69 110.49 79.52 121.32 92.82 121.32C106.12 121.32 116.95 110.49 116.95 97.19C116.95 83.89 106.12 73.06 92.82 73.06Z" fill="#8E9DAC"/>
    <path d="M92.82 117.26C103.904 117.26 112.89 108.274 112.89 97.19C112.89 86.1056 103.904 77.12 92.82 77.12C81.7356 77.12 72.75 86.1056 72.75 97.19C72.75 108.274 81.7356 117.26 92.82 117.26Z" fill="white"/>
    <path d="M92.82 117.87C81.42 117.87 72.15 108.6 72.15 97.2C72.15 85.8 81.42 76.53 92.82 76.53C104.22 76.53 113.49 85.8 113.49 97.2C113.49 108.6 104.22 117.87 92.82 117.87ZM92.82 77.72C82.08 77.72 73.35 86.46 73.35 97.19C73.35 107.92 82.09 116.67 92.82 116.67C103.55 116.67 112.3 107.93 112.3 97.19C112.3 86.45 103.56 77.72 92.82 77.72Z" fill="#8E9DAC"/>
    <g opacity="0.25">
      <path d="M90.92 100.83V100.37C90.92 98.71 91.53 97.39 93.56 95.59C94.81 94.46 95.12 93.58 95.12 92.58C95.12 91.47 94.46 90.42 92.91 90.42C91.25 90.42 90.59 91.52 90.4 93H87.13C87.25 90.96 88.56 87.79 92.97 87.81C97.19 87.83 98.48 90.62 98.48 92.68C98.48 94.42 97.91 95.6 95.97 97.39C94.76 98.51 94.36 99.4 94.36 100.57V100.83H90.91H90.92ZM90.92 106.57V102.4H94.37V106.57H90.92Z" fill="#C4CCD4"/>
    </g>
    <path d="M68.0801 64.6C67.8901 64.6 67.7001 64.51 67.5901 64.35C67.4001 64.08 67.4701 63.7 67.7401 63.51C68.6601 62.87 70.5801 61.79 73.1701 61.84C75.6101 61.88 77.4101 62.9 78.2701 63.51C78.5401 63.7 78.6101 64.08 78.4201 64.35C78.2301 64.62 77.8601 64.69 77.5801 64.5C76.8301 63.97 75.2601 63.09 73.1501 63.05C70.8801 62.99 69.2201 63.94 68.4301 64.5C68.3201 64.57 68.2001 64.61 68.0901 64.61L68.0801 64.6Z" fill="#C4CCD4"/>
    <path d="M57.3201 54.32C57.1701 54.32 57.0201 54.27 56.9001 54.15C56.6601 53.92 56.6501 53.54 56.8801 53.3L63.0801 46.84C63.3101 46.6 63.6901 46.59 63.9301 46.82C64.1701 47.05 64.1801 47.43 63.9501 47.67L57.7501 54.13C57.6301 54.25 57.4701 54.31 57.3201 54.31V54.32Z" fill="#C4CCD4"/>
    <path d="M63.65 54.19C63.5 54.19 63.35 54.14 63.23 54.02L56.77 47.82C56.53 47.59 56.52 47.21 56.75 46.97C56.98 46.73 57.36 46.72 57.6 46.95L64.06 53.15C64.3 53.38 64.31 53.76 64.08 54C63.96 54.12 63.8 54.18 63.65 54.18V54.19Z" fill="#C4CCD4"/>
    <path d="M81.4501 54.32C81.3001 54.32 81.1501 54.27 81.0301 54.15C80.7901 53.92 80.7801 53.54 81.0101 53.3L87.2101 46.84C87.4401 46.6 87.8201 46.59 88.0601 46.82C88.3001 47.05 88.3101 47.43 88.0801 47.67L81.8801 54.13C81.7601 54.25 81.6001 54.31 81.4501 54.31V54.32Z" fill="#C4CCD4"/>
    <path d="M87.7801 54.19C87.6301 54.19 87.4801 54.14 87.3601 54.02L80.9001 47.82C80.6601 47.59 80.6501 47.21 80.8801 46.97C81.1101 46.73 81.4901 46.72 81.7301 46.95L88.1901 53.15C88.4301 53.38 88.4401 53.76 88.2101 54C88.0901 54.12 87.9301 54.18 87.7801 54.18V54.19Z" fill="#C4CCD4"/>
    <path d="M140 134.34H134.47C134.14 134.34 133.87 134.07 133.87 133.74C133.87 133.41 134.14 133.14 134.47 133.14H140C140.33 133.14 140.6 133.41 140.6 133.74C140.6 134.07 140.33 134.34 140 134.34Z" fill="#8E9DAC"/>
    <path d="M128.46 134.34H104.24C103.91 134.34 103.64 134.07 103.64 133.74C103.64 133.41 103.91 133.14 104.24 133.14H128.46C128.79 133.14 129.06 133.41 129.06 133.74C129.06 134.07 128.79 134.34 128.46 134.34Z" fill="#8E9DAC"/>
    <path d="M98.5 134.34H10C9.67002 134.34 9.40002 134.07 9.40002 133.74C9.40002 133.41 9.67002 133.14 10 133.14H98.5C98.83 133.14 99.1 133.41 99.1 133.74C99.1 134.07 98.83 134.34 98.5 134.34Z" fill="#8E9DAC"/>
    <path d="M26.12 33.58H18.95C18.62 33.58 18.35 33.31 18.35 32.98C18.35 32.65 18.62 32.38 18.95 32.38H26.12C26.45 32.38 26.72 32.65 26.72 32.98C26.72 33.31 26.45 33.58 26.12 33.58Z" fill="#8E9DAC"/>
    <path d="M34.61 24.04C34.28 24.04 34.01 23.77 34.01 23.44V16.26C34.01 15.93 34.28 15.66 34.61 15.66C34.94 15.66 35.21 15.93 35.21 16.26V23.44C35.21 23.77 34.94 24.04 34.61 24.04Z" fill="#8E9DAC"/>
    <path d="M27.68 26.36C27.55 26.36 27.42 26.32 27.31 26.24L21.62 21.87C21.36 21.67 21.31 21.29 21.51 21.03C21.71 20.77 22.09 20.72 22.35 20.92L28.04 25.29C28.3 25.49 28.35 25.87 28.15 26.13C28.03 26.28 27.85 26.36 27.67 26.36H27.68Z" fill="#8E9DAC"/>
  </g>
  <defs>
    <clipPath id="clip0_1518_35973">
      <rect width="150" height="150" fill="white"/>
    </clipPath>
  </defs>
</svg>