<svg width="128" height="108" viewBox="0 0 128 108" fill="none" xmlns="http://www.w3.org/2000/svg">
<g clip-path="url(#clip0_1735_52168)">
<path opacity="0.2" d="M64.8001 100.81C92.8001 100.81 115.49 78.24 115.49 50.41C115.49 22.58 92.7901 0 64.8001 0C36.8101 0 14.1001 22.57 14.1001 50.4C14.1001 78.23 36.8001 100.8 64.7901 100.8L64.8001 100.81Z" fill="#BEC6D2"/>
<path d="M121.79 107.26H127.18M92.3701 107.26H115.95M0.600098 107.26H86.7701" stroke="#91A1B0" stroke-width="1.2" stroke-linecap="round" stroke-linejoin="round"/>
<path d="M27.1102 15.3301H100.94C104.07 15.3301 106.62 17.8701 106.62 21.0101V80.6501C106.62 83.7801 104.08 86.3301 100.94 86.3301H27.1102C23.9802 86.3301 21.4302 83.7901 21.4302 80.6501V21.0101C21.4302 17.8801 23.9702 15.3301 27.1102 15.3301Z" fill="white" stroke="#91A1B0" stroke-width="1.2" stroke-miterlimit="10"/>
<path d="M26.6601 16H101.47C103.95 16 105.97 18.02 105.97 20.5V30.17H22.0601V20.6C22.0601 18.06 24.1201 16 26.6601 16Z" fill="#91A1B0" stroke="#91A1B0" stroke-width="0.83" stroke-linecap="round" stroke-linejoin="round"/>
<path d="M41.1798 23.0801H31.3398" stroke="white" stroke-width="1.2" stroke-miterlimit="10" stroke-linecap="round"/>
<path d="M8.6001 19.04H14.6401" stroke="#91A1B0" stroke-width="1.2" stroke-linecap="round" stroke-linejoin="round"/>
<path d="M21.7998 4.9502V11.0002" stroke="#91A1B0" stroke-width="1.2" stroke-linecap="round" stroke-linejoin="round"/>
<path d="M11.1602 9.27979L15.9602 12.9698" stroke="#91A1B0" stroke-width="1.2" stroke-linecap="round" stroke-linejoin="round"/>
<path d="M81.7498 39.1499H31.3998C30.0798 39.1499 29.0098 40.2199 29.0098 41.5399V53.9499C29.0098 55.2699 30.0798 56.3399 31.3998 56.3399H81.7498C83.0697 56.3399 84.1398 55.2699 84.1398 53.9499V41.5399C84.1398 40.2199 83.0697 39.1499 81.7498 39.1499Z" fill="white" stroke="#BDC7D0" stroke-width="1.2" stroke-miterlimit="10"/>
<path d="M39.0102 51.5799C41.1254 51.5799 42.8402 49.8652 42.8402 47.7499C42.8402 45.6347 41.1254 43.9199 39.0102 43.9199C36.8949 43.9199 35.1802 45.6347 35.1802 47.7499C35.1802 49.8652 36.8949 51.5799 39.0102 51.5799Z" fill="#BDC7D0"/>
<path d="M47 46H77.97" stroke="#BDC7D0" stroke-width="1.2" stroke-linecap="round" stroke-linejoin="round"/>
<path d="M47 49.5H68.16" stroke="#BDC7D0" stroke-width="1.2" stroke-linecap="round" stroke-linejoin="round"/>
<path d="M81.7498 60.1499H31.3998C30.0798 60.1499 29.0098 61.2199 29.0098 62.5399V74.9499C29.0098 76.2699 30.0798 77.3399 31.3998 77.3399H81.7498C83.0697 77.3399 84.1398 76.2699 84.1398 74.9499V62.5399C84.1398 61.2199 83.0697 60.1499 81.7498 60.1499Z" fill="white" stroke="#BDC7D0" stroke-width="1.2" stroke-miterlimit="10"/>
<path d="M39.0102 72.5799C41.1254 72.5799 42.8402 70.8652 42.8402 68.7499C42.8402 66.6347 41.1254 64.9199 39.0102 64.9199C36.8949 64.9199 35.1802 66.6347 35.1802 68.7499C35.1802 70.8652 36.8949 72.5799 39.0102 72.5799Z" fill="#BDC7D0"/>
<path d="M47 67H77.97" stroke="#BDC7D0" stroke-width="1.2" stroke-linecap="round" stroke-linejoin="round"/>
<path d="M47 70.5H68.16" stroke="#BDC7D0" stroke-width="1.2" stroke-linecap="round" stroke-linejoin="round"/>
<path d="M99.0298 65.5601L92.6398 71.9501C92.6398 71.9501 91.6098 70.9201 90.3198 69.6301" stroke="#91A1B0" stroke-width="1.2" stroke-linecap="round" stroke-linejoin="round"/>
<path d="M99.0298 44.5498L92.6398 50.9398C92.6398 50.9398 91.6098 49.9098 90.3198 48.6198" stroke="#91A1B0" stroke-width="1.2" stroke-linecap="round" stroke-linejoin="round"/>
</g>
<defs>
<clipPath id="clip0_1735_52168">
<rect width="127.78" height="107.86" fill="white"/>
</clipPath>
</defs>
</svg>
