<svg xmlns="http://www.w3.org/2000/svg" width="295" height="177" viewBox="0 0 295 177"><g fill="none" fill-rule="evenodd"><path fill="#F8F9FA" d="M286.505 147.611c-.291.185-.56.365-.845.54a29.589 29.589 0 01-3.304 1.753c-6.002 2.752-13.4 4.096-20.605 5.01-16.161 2.048-32.66 2.447-49.09 2.837-44.391 1.06-88.89 2.118-133.174-.324-17.497-.964-35.378-2.577-51.233-7.523a99.974 99.974 0 01-6.683-2.339c-4.418-1.727-8.661-3.83-12.19-6.34-3.315-2.354-6.004-5.058-7.61-8.132-3.351-6.402-1.578-13.592 2.248-19.867a61.4 61.4 0 015.362-7.297c2.954-3.533 6.212-6.965 9.183-10.495 10.574-12.55 17.473-28.428 7.713-41.3-2.805-3.697-6.858-6.944-9.145-10.804-2.916-4.938-2.691-10.422-1.764-15.748.12-.677.248-1.346.382-2.009 1.584-7.898 4.564-16.407 13.752-21.338C39.047-.89 52.601-.63 64.446 1.19c18.42 2.861 35.413 8.817 52.585 14.194 17.173 5.377 35.14 10.29 54.012 10.817 16.665.467 36.104-3.026 47.165-12.103 10.743-8.817 30.936-9.489 45.49-4.162 9.991 3.654 17.445 10.239 20.588 17.645a20.658 20.658 0 011.368 4.596 18.47 18.47 0 01.245 4.334 20.539 20.539 0 01-.245 2.123c-2.432 14.614-19.938 26.142-30.578 39.197-5.2 6.376-8.871 14.036-5.296 20.912 5.453 10.477 24.416 14.203 35.868 22a25.357 25.357 0 015.628 5.022c5.555 6.939 3.505 16.31-4.77 21.845z"/><path stroke="#727681" stroke-width=".8" d="M45.472 90.085c0-18.897 19.244-35.31 47.49-43.574m41.626-5.694c49.218 0 89.116 22.058 89.116 49.268m.277.176c0 28.528-39.898 51.655-89.116 51.655-49.217 0-89.116-23.127-89.116-51.655m165.873 52.388c-19.92 10.743-45.91 17.244-74.343 17.244-27.26 0-52.277-5.976-71.85-15.938"/><g fill-rule="nonzero"><path fill="#FFF" stroke="#DADFE3" d="M132.044 175.513H79.36c-10.42-17.56-10.42-35.122 0-52.683h52.684c-14.57 17.561-14.57 35.122 0 52.683z"/><path fill="#206DD1" d="M114.612 135.475H84.925v2.61h29.687z"/><path fill="#DADFE3" d="M116.912 144.154H77.608v1.254h39.304zm0 6.481H77.608v1.254h39.304z"/></g><g fill-rule="nonzero"><path fill="#FFF" stroke="#DADFE3" d="M80.499 62.684H27.815c-10.42-17.562-10.42-35.123 0-52.684h52.684c-14.57 17.561-14.57 35.122 0 52.684z"/><path fill="#206DD1" d="M33.669 17.316h29.687v2.458H33.669z"/><path fill="#DADFE3" d="M27.188 26.725h39.304v1.254H27.188zm0 6.481h39.304v1.254H27.188zm0 6.481h39.304v1.254H27.188zm0 6.481h39.304v1.254H27.188z"/></g><g fill-rule="nonzero"><path fill="#FFF" stroke="#DADFE3" d="M264.282 109.182h-52.637c-10.41-17.633-10.41-35.266 0-52.898h52.637c-14.556 17.632-14.556 35.265 0 52.898z"/><path fill="#206DD1" d="M219.165 65.158h29.66v2.608h-29.66z"/><path fill="#DADFE3" d="M209.556 74.874h39.269v1.514h-39.27zm0 6.475h39.269v1.514h-39.27zm0 6.476h39.269v1.514h-39.27z"/></g><path fill="#DFE5EA" d="M108.715 92.586s-2.46 3.834-.534 9.198c0 0 29.825 18.88 56.884.767 0 0 1.116-7.385-1.318-9.493.004 0-23.22 18.398-55.032-.472"/><path fill="#206DD1" fill-rule="nonzero" d="M122.546 27.622a32.255 32.255 0 0127.032-.184l.26-.574a32.885 32.885 0 00-27.56.187l.268.57z"/><path fill="#FFF" d="M91.723 45.084l1.97-5.046c31.087-7.724 59.646-6.884 85.676 2.523.497.18 1.073 2.311 1.729 6.396l-89.375-3.873z"/><path fill="#DFE5EA" d="M128.166 32.705c-2.633-1.535-4.569-5.898-4.569-5.898-11.635 4.845-18.643 30.492-18.643 30.492-1.8 8.56 13.233 25.036 25.631 5.212s.215-28.27-2.42-29.806"/><path fill="#206DD1" fill-rule="nonzero" d="M125.611 29.91a19.908 19.908 0 01-1.348-2.188 19.803 19.803 0 01-.494-.991l-.074-.168-.17.07c-4.68 1.95-8.934 7.279-12.73 14.944-1.699 3.429-3.191 7.101-4.466 10.773a98.261 98.261 0 00-1.16 3.55 67.33 67.33 0 00-.396 1.35c-.942 4.48 2.543 10.776 7.584 13.465 6.076 3.24 12.782.86 18.388-8.104 5.533-8.848 6.662-16.115 4.443-21.928-1.47-3.854-4.127-6.507-6.928-8.14-.906-.53-1.798-1.443-2.649-2.633zm9.226 10.907c2.174 5.695 1.063 12.841-4.411 21.595-5.508 8.806-12.003 11.112-17.892 7.971-4.902-2.614-8.299-8.75-7.396-13.045l.096-.338c.082-.286.18-.617.294-.99a97.887 97.887 0 011.156-3.536c1.27-3.659 2.757-7.317 4.447-10.73 3.714-7.498 7.862-12.73 12.372-14.692l.054.113c.107.222.232.469.374.734a20.4 20.4 0 001.374 2.23c.88 1.229 1.805 2.178 2.766 2.738 2.733 1.594 5.33 4.189 6.766 7.95zm-3.589 29.661l-13.738 7.786a3.756 3.756 0 00-1.457 4.056c1.09 3.986 2.82 7.442 5.443 9.76 3.62 3.196 8.485 3.72 14.754.846a.157.157 0 00.092-.142V75.717c0-.04-.016-.08-.043-.109l-4.86-5.101a.157.157 0 00-.19-.029zm4.78 5.302v16.903c-6.116 2.777-10.818 2.256-14.324-.84-2.568-2.267-4.274-5.673-5.348-9.606a3.438 3.438 0 011.322-3.708l13.619-7.717 4.73 4.968z"/><path fill="#206DD1" fill-rule="nonzero" d="M140.813 70.511a.157.157 0 01.194-.033l14.115 7.795a3.753 3.753 0 011.443 4.046c-1.089 3.987-2.82 7.443-5.443 9.76-3.62 3.197-8.484 3.722-14.754.847a.157.157 0 01-.092-.142V75.717c0-.038.014-.075.04-.104l4.497-5.102zm.152.302l-4.375 4.963v16.907c6.117 2.777 10.818 2.256 14.324-.84 2.569-2.267 4.274-5.674 5.348-9.606a3.435 3.435 0 00-1.307-3.699l-13.99-7.725z"/><path fill="#206DD1" d="M138.869 81.8l4.519-7.825a3.012 3.012 0 00-2.607-4.517h-9.036a3.01 3.01 0 00-2.608 4.517l4.518 7.825a3.01 3.01 0 005.214 0"/><path fill="#206DD1" fill-rule="nonzero" d="M150.63 52.968a5.719 5.719 0 110 11.438 5.719 5.719 0 010-11.438zm0 .314a5.405 5.405 0 100 10.81 5.405 5.405 0 000-10.81zm-29.269-.314a5.719 5.719 0 110 11.438 5.719 5.719 0 010-11.438zm0 .314a5.405 5.405 0 100 10.81 5.405 5.405 0 000-10.81z"/><path fill="#206DD1" d="M150.627 53.996a4.724 4.724 0 110 9.45 4.724 4.724 0 010-9.45"/><path fill="#FFF" d="M148.8 55.53a.885.885 0 110 1.769.885.885 0 010-1.77"/><path fill="#206DD1" d="M121.4 53.996a4.724 4.724 0 11.001 9.45 4.724 4.724 0 010-9.45"/><path fill="#FFF" d="M119.572 55.53a.885.885 0 110 1.769.885.885 0 010-1.77"/><path fill="#206DD1" fill-rule="nonzero" d="M116.74 45.929a5.52 5.52 0 01.26-.57 6.81 6.81 0 011.021-1.452c1.411-1.535 3.393-2.337 6.207-2.023a1.575 1.575 0 10.35-3.13c-3.844-.43-6.806.768-8.876 3.021a10 10 0 00-1.492 2.12 8.655 8.655 0 00-.339.72c-.059.143-.1.256-.125.333a1.575 1.575 0 102.993.98zm41.352-.981a5.002 5.002 0 00-.125-.333 8.655 8.655 0 00-.339-.72 10 10 0 00-1.492-2.12c-2.07-2.253-5.032-3.45-8.876-3.022a1.575 1.575 0 10.35 3.131c2.814-.314 4.796.488 6.207 2.023.424.461.763.958 1.022 1.451a5.52 5.52 0 01.26.57 1.575 1.575 0 002.993-.98z"/><path fill="#DFE5EA" d="M123.597 26.807l-2.504-1.308a5.422 5.422 0 00-4.853-.082l-18.997 9.085a5.434 5.434 0 00-2.947 3.678l-5.69 24.665a5.422 5.422 0 001.102 4.673l1.304 1.58a5.43 5.43 0 007.446.889l2.583-1.938a5.42 5.42 0 002.064-3.239c1.424-6.934 7.11-30.108 20.492-38.003"/><path fill="#206DD1" fill-rule="nonzero" d="M123.78 26.458l-2.505-1.308a5.816 5.816 0 00-5.205-.089l-18.997 9.086a5.828 5.828 0 00-3.16 3.944l-5.69 24.665a5.816 5.816 0 001.181 5.013l1.304 1.58a5.824 5.824 0 007.986.953l2.584-1.937a5.814 5.814 0 002.213-3.475c1.193-5.807 3.077-12.346 5.739-18.566 3.842-8.98 8.671-15.699 14.567-19.178a.394.394 0 00-.017-.688zm-15.275 19.556c-2.686 6.276-4.583 12.863-5.786 18.717a5.026 5.026 0 01-1.913 3.003l-2.584 1.938a5.035 5.035 0 01-6.906-.825l-1.304-1.58a5.028 5.028 0 01-1.022-4.333l5.69-24.666a5.04 5.04 0 012.734-3.41l18.996-9.086a5.028 5.028 0 014.5.077l1.888.985c-5.796 3.67-10.52 10.363-14.293 19.18zm33.559 19.266a2.317 2.317 0 002.23 1.698h19.193a2.314 2.314 0 002.298-2.038l1.473-12.296a2.314 2.314 0 00-2.296-2.589h-24.057a2.314 2.314 0 00-2.23 2.927l3.39 12.298zm-1.898-12.91c0-.41.331-.74.74-.74h24.056a.74.74 0 01.733.828l-1.473 12.294a.74.74 0 01-.735.652h-19.193a.742.742 0 01-.713-.544l-3.389-12.295a.739.739 0 01-.026-.195z"/><path fill="#206DD1" fill-rule="nonzero" d="M164.962 51.63h2.009a.787.787 0 000-1.575h-2.009a.787.787 0 000 1.574zm-30.934 1.354v-.001l-3.39 12.297a2.312 2.312 0 01-2.23 1.698h-19.192a2.316 2.316 0 01-2.298-2.039l-1.473-12.295a2.314 2.314 0 012.298-2.589h24.054a2.312 2.312 0 012.23 2.93zm-1.517-.42a.738.738 0 00-.713-.935h-24.055a.742.742 0 00-.735.828l1.473 12.294a.742.742 0 00.735.653h19.193a.738.738 0 00.712-.542l3.39-12.297z"/><path fill="#206DD1" fill-rule="nonzero" d="M107.743 50.055h-2.01a.787.787 0 000 1.574h2.01a.787.787 0 000-1.574zm25.308 2.001a13.966 13.966 0 01.897-.152c1.736-.235 3.622-.235 5.422.154a.787.787 0 00.333-1.539c-2.003-.432-4.064-.432-5.966-.175-.48.065-.834.131-1.036.177a.787.787 0 00.35 1.535z"/><path fill="#206DD1" fill-rule="nonzero" d="M121.013 25.364l-.06.037-.17.107c-.186.119-.4.263-.642.432a31.221 31.221 0 00-2.284 1.778c-2.359 2.008-4.718 4.509-6.919 7.534-6.166 8.474-9.917 19.33-10.054 32.8a.157.157 0 00.314.003c.137-13.402 3.865-24.196 9.994-32.618 2.186-3.004 4.528-5.487 6.869-7.48a30.91 30.91 0 012.26-1.76 18.637 18.637 0 01.851-.562.157.157 0 00-.159-.27zm27.814 1.782a.394.394 0 01.017-.688l2.505-1.308a5.82 5.82 0 015.207-.089l18.995 9.086a5.827 5.827 0 013.16 3.944l5.69 24.661a5.816 5.816 0 01-1.181 5.015l-1.304 1.58a5.824 5.824 0 01-7.986.953l-2.584-1.937a5.817 5.817 0 01-2.207-3.479c-1.22-5.874-3.087-12.352-5.743-18.561-3.842-8.98-8.67-15.698-14.57-19.177zm15.293 18.867c2.68 6.264 4.562 12.79 5.79 18.712a5.03 5.03 0 001.909 3.007l2.583 1.938a5.036 5.036 0 006.906-.825l1.304-1.58a5.028 5.028 0 001.022-4.335l-5.69-24.662a5.039 5.039 0 00-2.733-3.41l-18.995-9.086a5.032 5.032 0 00-4.502.077l-1.887.985c5.798 3.67 10.521 10.36 14.293 19.179z"/><path fill="#206DD1" fill-rule="nonzero" d="M151.451 25.635l.056.033.165.104c.181.117.393.258.63.425a30.91 30.91 0 012.261 1.76c2.341 1.993 4.683 4.476 6.869 7.48 6.129 8.422 9.858 19.216 9.994 32.618a.157.157 0 00.314-.003c-.137-13.47-3.887-24.326-10.054-32.8-2.201-3.025-4.56-5.526-6.92-7.534a31.222 31.222 0 00-2.283-1.778 18.948 18.948 0 00-.872-.576.157.157 0 10-.16.27zm12.223 54.881a12.203 12.203 0 01-5.332 7.387c-2.83 1.784-5.524 3.282-7.777 4.25a.157.157 0 10.124.29c2.271-.977 4.977-2.482 7.821-4.275a12.517 12.517 0 005.469-7.576.157.157 0 10-.305-.076z"/><path fill="#206DD1" fill-rule="nonzero" d="M168.237 60.754l-4.879 20.253a.394.394 0 00.767.184l4.878-20.253a.394.394 0 10-.766-.184zm-59.673 19.838a12.517 12.517 0 005.469 7.576c2.856 1.799 5.553 3.3 7.821 4.274a.157.157 0 00.124-.288c-2.25-.967-4.934-2.46-7.778-4.251a12.203 12.203 0 01-5.33-7.387.157.157 0 10-.306.076z"/><path fill="#206DD1" fill-rule="nonzero" d="M103.63 61.717l4.704 18.932a.394.394 0 10.765-.19l-4.705-18.932a.394.394 0 10-.764.19z"/><path fill="#206DD1" fill-rule="nonzero" d="M108.323 80.864v11.428c0 .217.336.394.75.394.415 0 .752-.177.752-.394V80.864c0-.218-.337-.394-.751-.394-.415 0-.751.176-.751.394zm56.457 12.192l-.136-11.508c-.003-.217-.31-.392-.688-.39-.377 0-.68.178-.678.396l.137 11.507c.003.218.31.393.687.391.377-.001.68-.179.678-.396z"/><path fill="#206DD1" fill-rule="nonzero" d="M108.627 92.42a23.896 23.896 0 00.577.38c.47.301 1.024.636 1.654.997a56.27 56.27 0 006.147 3.02c6.38 2.68 13.259 4.316 20.389 4.39 9.146.097 18.045-2.405 26.445-8.018a.157.157 0 10-.175-.261c-8.345 5.577-17.182 8.06-26.267 7.966-7.086-.074-13.926-1.7-20.27-4.366a56.086 56.086 0 01-6.113-3.003 39.937 39.937 0 01-1.642-.989 23.584 23.584 0 01-.565-.373.157.157 0 00-.18.258zm56.08 9.803a48.798 48.798 0 01-4.72 2.79c-7.632 3.942-15.714 5.503-24.04 5.07-6.573-.341-12.962-1.899-18.95-4.284a62.098 62.098 0 01-6.446-2.992 44.165 44.165 0 01-1.737-.984 25.975 25.975 0 01-.597-.368.394.394 0 10-.43.66l.16.102a44.948 44.948 0 002.23 1.284 62.883 62.883 0 006.53 3.03c6.061 2.415 12.533 3.993 19.2 4.34 8.459.439 16.68-1.148 24.442-5.158a49.586 49.586 0 004.796-2.835.394.394 0 00-.438-.655z"/><path fill="#206DD1" fill-rule="nonzero" d="M163.488 93.352c.034.03.109.11.21.242.179.231.359.523.528.878.867 1.819 1.11 4.438.326 7.994a.394.394 0 00.77.17c.82-3.722.56-6.52-.384-8.503a5.666 5.666 0 00-.615-1.02 2.732 2.732 0 00-.308-.348.394.394 0 00-.527.587zM108.444 92.3a2.102 2.102 0 00-.247.299c-.163.23-.324.517-.472.865-.786 1.844-.944 4.585-.104 8.384a.394.394 0 00.77-.17c-.806-3.647-.659-6.222.06-7.905.125-.296.258-.534.39-.719a1.38 1.38 0 01.145-.182.394.394 0 10-.542-.572zm35.939 2.226a12.351 12.351 0 01-16.116.111.157.157 0 10-.203.24 12.665 12.665 0 0016.525-.114.157.157 0 00-.206-.237z"/></g></svg>