<svg width="181" height="170" viewBox="0 0 181 170" fill="none" xmlns="http://www.w3.org/2000/svg">
<mask id="mask0_40_72914" style="mask-type:alpha" maskUnits="userSpaceOnUse" x="4" y="0" width="171" height="170">
<path d="M89.6867 169.6C136.52 169.6 174.487 131.634 174.487 84.8C174.487 37.9662 136.52 0 89.6867 0C42.853 0 4.88672 37.9662 4.88672 84.8C4.88672 131.634 42.853 169.6 89.6867 169.6Z" fill="url(#paint0_linear_40_72914)"/>
</mask>
<g mask="url(#mask0_40_72914)">
<path d="M88.6135 168.609C135.441 168.609 173.403 130.865 173.403 84.3046C173.403 37.7444 135.441 0 88.6135 0C41.7857 0 3.82422 37.7444 3.82422 84.3046C3.82422 130.865 41.7857 168.609 88.6135 168.609Z" fill="url(#paint1_linear_40_72914)"/>
<path d="M116.397 45.3184C113.954 45.3184 111.974 47.2988 111.974 49.7419V259.477H326.132V45.3184H116.397ZM325.503 58.6312H312.714V45.8425H325.503V58.6312ZM219.315 138.718V125.929H232.104V138.718H219.315ZM232.104 139.347V152.135H219.315V139.347H232.104ZM218.791 138.718H206.002V125.929H218.791V138.718ZM218.791 139.347V152.135H206.002V139.347H218.791ZM205.373 152.135H192.584V139.347H205.373V152.135ZM205.373 152.66V165.448H192.584V152.66H205.373ZM206.002 152.66H218.791V165.448H206.002V152.66ZM218.791 165.972V178.761H206.002V165.972H218.791ZM219.315 165.972H232.104V178.761H219.315V165.972ZM219.315 165.448V152.66H232.104V165.448H219.315ZM232.628 152.66H245.416V165.448H232.628V152.66ZM232.628 152.135V139.347H245.416V152.135H232.628ZM232.628 138.718V125.929H245.416V138.718H232.628ZM232.628 125.405V112.616H245.416V125.405H232.628ZM232.104 125.405H219.315V112.616H232.104V125.405ZM218.791 125.405H206.002V112.616H218.791V125.405ZM205.373 125.405H192.584V112.616H205.373V125.405ZM205.373 125.929V138.718H192.584V125.929H205.373ZM192.06 138.718H179.272V125.929H192.06V138.718ZM192.06 139.347V152.135H179.272V139.347H192.06ZM192.06 152.66V165.448H179.272V152.66H192.06ZM192.06 165.972V178.761H179.272V165.972H192.06ZM192.584 165.972H205.373V178.761H192.584V165.972ZM205.373 179.39V192.179H192.584V179.39H205.373ZM206.002 179.39H218.791V192.179H206.002V179.39ZM219.315 179.39H232.104V192.179H219.315V179.39ZM232.628 179.39H245.416V192.179H232.628V179.39ZM232.628 178.761V165.972H245.416V178.761H232.628ZM246.045 165.972H258.834V178.761H246.045V165.972ZM246.045 165.448V152.66H258.834V165.448H246.045ZM246.045 152.135V139.347H258.834V152.135H246.045ZM246.045 138.718V125.929H258.834V138.718H246.045ZM246.045 125.405V112.616H258.834V125.405H246.045ZM246.045 112.092V99.3035H258.834V112.092H246.045ZM245.416 112.092H232.628V99.3035H245.416V112.092ZM232.104 112.092H219.315V99.3035H232.104V112.092ZM218.791 112.092H206.002V99.3035H218.791V112.092ZM205.373 112.092H192.584V99.3035H205.373V112.092ZM192.06 112.092H179.272V99.3035H192.06V112.092ZM192.06 112.616V125.405H179.272V112.616H192.06ZM178.747 125.405H165.959V112.616H178.747V125.405ZM178.747 125.929V138.718H165.959V125.929H178.747ZM178.747 139.347V152.135H165.959V139.347H178.747ZM178.747 152.66V165.448H165.959V152.66H178.747ZM178.747 165.972V178.761H165.959V165.972H178.747ZM178.747 179.39V192.179H165.959V179.39H178.747ZM179.272 179.39H192.06V192.179H179.272V179.39ZM192.06 192.703V205.492H179.272V192.703H192.06ZM192.584 192.703H205.373V205.492H192.584V192.703ZM206.002 192.703H218.791V205.492H206.002V192.703ZM219.315 192.703H232.104V205.492H219.315V192.703ZM232.628 192.703H245.416V205.492H232.628V192.703ZM246.045 192.703H258.834V205.492H246.045V192.703ZM246.045 192.179V179.39H258.834V192.179H246.045ZM259.358 179.39H272.147V192.179H259.358V179.39ZM259.358 178.761V165.972H272.147V178.761H259.358ZM259.358 165.448V152.66H272.147V165.448H259.358ZM259.358 152.135V139.347H272.147V152.135H259.358ZM259.358 138.718V125.929H272.147V138.718H259.358ZM259.358 125.405V112.616H272.147V125.405H259.358ZM259.358 112.092V99.3035H272.147V112.092H259.358ZM259.358 98.6745V85.8858H272.147V98.6745H259.358ZM258.834 98.6745H246.045V85.8858H258.834V98.6745ZM245.416 98.6745H232.628V85.8858H245.416V98.6745ZM232.104 98.6745H219.315V85.8858H232.104V98.6745ZM218.791 98.6745H206.002V85.8858H218.791V98.6745ZM205.373 98.6745H192.584V85.8858H205.373V98.6745ZM192.06 98.6745H179.272V85.8858H192.06V98.6745ZM178.747 98.6745H165.959V85.8858H178.747V98.6745ZM178.747 99.3035V112.092H165.959V99.3035H178.747ZM165.33 112.092H152.541V99.3035H165.33V112.092ZM165.33 112.616V125.405H152.541V112.616H165.33ZM165.33 125.929V138.718H152.541V125.929H165.33ZM165.33 139.347V152.135H152.541V139.347H165.33ZM165.33 152.66V165.448H152.541V152.66H165.33ZM165.33 165.972V178.761H152.541V165.972H165.33ZM165.33 179.39V192.179H152.541V179.39H165.33ZM165.33 192.703V205.492H152.541V192.703H165.33ZM165.959 192.703H178.747V205.492H165.959V192.703ZM178.747 206.016V218.804H165.959V206.016H178.747ZM179.272 206.016H192.06V218.804H179.272V206.016ZM192.584 206.016H205.373V218.804H192.584V206.016ZM206.002 206.016H218.791V218.804H206.002V206.016ZM219.315 206.016H232.104V218.804H219.315V206.016ZM232.628 206.016H245.416V218.804H232.628V206.016ZM246.045 206.016H258.834V218.804H246.045V206.016ZM259.358 206.016H272.147V218.804H259.358V206.016ZM259.358 205.492V192.703H272.147V205.492H259.358ZM272.671 192.703H285.46V205.492H272.671V192.703ZM272.671 192.179V179.39H285.46V192.179H272.671ZM272.671 178.761V165.972H285.46V178.761H272.671ZM272.671 165.448V152.66H285.46V165.448H272.671ZM272.671 152.135V139.347H285.46V152.135H272.671ZM272.671 138.718V125.929H285.46V138.718H272.671ZM272.671 125.405V112.616H285.46V125.405H272.671ZM272.671 112.092V99.3035H285.46V112.092H272.671ZM272.671 98.6745V85.8858H285.46V98.6745H272.671ZM272.671 85.3617V72.573H285.46V85.3617H272.671ZM272.147 85.3617H259.358V72.573H272.147V85.3617ZM258.834 85.3617H246.045V72.573H258.834V85.3617ZM245.416 85.3617H232.628V72.573H245.416V85.3617ZM232.104 85.3617H219.315V72.573H232.104V85.3617ZM218.791 85.3617H206.002V72.573H218.791V85.3617ZM205.373 85.3617H192.584V72.573H205.373V85.3617ZM192.06 85.3617H179.272V72.573H192.06V85.3617ZM178.747 85.3617H165.959V72.573H178.747V85.3617ZM165.33 85.3617H152.541V72.573H165.33V85.3617ZM165.33 85.8858V98.6745H152.541V85.8858H165.33ZM152.017 98.6745H139.228V85.8858H152.017V98.6745ZM152.017 99.3035V112.092H139.228V99.3035H152.017ZM152.017 112.616V125.405H139.228V112.616H152.017ZM152.017 125.929V138.718H139.228V125.929H152.017ZM152.017 139.347V152.135H139.228V139.347H152.017ZM152.017 152.66V165.448H139.228V152.66H152.017ZM152.017 165.972V178.761H139.228V165.972H152.017ZM152.017 179.39V192.179H139.228V179.39H152.017ZM152.017 192.703V205.492H139.228V192.703H152.017ZM152.017 206.016V218.804H139.228V206.016H152.017ZM152.541 206.016H165.33V218.804H152.541V206.016ZM165.33 219.433V232.222H152.541V219.433H165.33ZM165.959 219.433H178.747V232.222H165.959V219.433ZM179.272 219.433H192.06V232.222H179.272V219.433ZM192.584 219.433H205.373V232.222H192.584V219.433ZM206.002 219.433H218.791V232.222H206.002V219.433ZM219.315 219.433H232.104V232.222H219.315V219.433ZM232.628 219.433H245.416V232.222H232.628V219.433ZM246.045 219.433H258.834V232.222H246.045V219.433ZM259.358 219.433H272.147V232.222H259.358V219.433ZM272.671 219.433H285.46V232.222H272.671V219.433ZM272.671 218.804V206.016H285.46V218.804H272.671ZM286.089 206.016H298.877V218.804H286.089V206.016ZM286.089 205.492V192.703H298.877V205.492H286.089ZM286.089 192.179V179.39H298.877V192.179H286.089ZM286.089 178.761V165.972H298.877V178.761H286.089ZM286.089 165.448V152.66H298.877V165.448H286.089ZM286.089 152.135V139.347H298.877V152.135H286.089ZM286.089 138.718V125.929H298.877V138.718H286.089ZM286.089 125.405V112.616H298.877V125.405H286.089ZM286.089 112.092V99.3035H298.877V112.092H286.089ZM286.089 98.6745V85.8858H298.877V98.6745H286.089ZM286.089 85.3617V72.573H298.877V85.3617H286.089ZM286.089 72.0488V59.2601H298.877V72.0488H286.089ZM285.46 72.0488H272.671V59.2601H285.46V72.0488ZM272.147 72.0488H259.358V59.2601H272.147V72.0488ZM258.834 72.0488H246.045V59.2601H258.834V72.0488ZM245.416 72.0488H232.628V59.2601H245.416V72.0488ZM232.104 72.0488H219.315V59.2601H232.104V72.0488ZM218.791 72.0488H206.002V59.2601H218.791V72.0488ZM205.373 72.0488H192.584V59.2601H205.373V72.0488ZM192.06 72.0488H179.272V59.2601H192.06V72.0488ZM178.747 72.0488H165.959V59.2601H178.747V72.0488ZM165.33 72.0488H152.541V59.2601H165.33V72.0488ZM152.017 72.0488H139.228V59.2601H152.017V72.0488ZM152.017 72.573V85.3617H139.228V72.573H152.017ZM138.704 85.3617H125.915V72.573H138.704V85.3617ZM138.704 85.8858V98.6745H125.915V85.8858H138.704ZM138.704 99.3035V112.092H125.915V99.3035H138.704ZM138.704 112.616V125.405H125.915V112.616H138.704ZM138.704 125.929V138.718H125.915V125.929H138.704ZM138.704 139.347V152.135H125.915V139.347H138.704ZM138.704 152.66V165.448H125.915V152.66H138.704ZM138.704 165.972V178.761H125.915V165.972H138.704ZM138.704 179.39V192.179H125.915V179.39H138.704ZM138.704 192.703V205.492H125.915V192.703H138.704ZM138.704 206.016V218.804H125.915V206.016H138.704ZM138.704 219.433V232.222H125.915V219.433H138.704ZM139.228 219.433H152.017V232.222H139.228V219.433ZM152.017 232.746V245.535H139.228V232.746H152.017ZM152.541 232.746H165.33V245.535H152.541V232.746ZM165.959 232.746H178.747V245.535H165.959V232.746ZM179.272 232.746H192.06V245.535H179.272V232.746ZM192.584 232.746H205.373V245.535H192.584V232.746ZM206.002 232.746H218.791V245.535H206.002V232.746ZM219.315 232.746H232.104V245.535H219.315V232.746ZM232.628 232.746H245.416V245.535H232.628V232.746ZM246.045 232.746H258.834V245.535H246.045V232.746ZM259.358 232.746H272.147V245.535H259.358V232.746ZM272.671 232.746H285.46V245.535H272.671V232.746ZM286.089 232.746H298.877V245.535H286.089V232.746ZM286.089 232.222V219.433H298.877V232.222H286.089ZM299.402 219.433H312.19V232.222H299.402V219.433ZM299.402 218.804V206.016H312.19V218.804H299.402ZM299.402 205.492V192.703H312.19V205.492H299.402ZM299.402 192.179V179.39H312.19V192.179H299.402ZM299.402 178.761V165.972H312.19V178.761H299.402ZM299.402 165.448V152.66H312.19V165.448H299.402ZM299.402 152.135V139.347H312.19V152.135H299.402ZM299.402 138.718V125.929H312.19V138.718H299.402ZM299.402 125.405V112.616H312.19V125.405H299.402ZM299.402 112.092V99.3035H312.19V112.092H299.402ZM299.402 98.6745V85.8858H312.19V98.6745H299.402ZM299.402 85.3617V72.573H312.19V85.3617H299.402ZM299.402 72.0488V59.2601H312.19V72.0488H299.402ZM299.402 58.6312V45.8425H312.19V58.6312H299.402ZM298.877 58.6312H286.089V45.8425H298.877V58.6312ZM285.46 58.6312H272.671V45.8425H285.46V58.6312ZM272.147 58.6312H259.358V45.8425H272.147V58.6312ZM258.834 58.6312H246.045V45.8425H258.834V58.6312ZM245.416 58.6312H232.628V45.8425H245.416V58.6312ZM232.104 58.6312H219.315V45.8425H232.104V58.6312ZM218.791 58.6312H206.002V45.8425H218.791V58.6312ZM205.373 58.6312H192.584V45.8425H205.373V58.6312ZM192.06 58.6312H179.272V45.8425H192.06V58.6312ZM178.747 58.6312H165.959V45.8425H178.747V58.6312ZM165.33 58.6312H152.541V45.8425H165.33V58.6312ZM152.017 58.6312H139.228V45.8425H152.017V58.6312ZM138.704 58.6312H125.915V45.8425H138.704V58.6312ZM138.704 59.2601V72.0488H125.915V59.2601H138.704ZM125.286 72.0488H112.498V59.2601H125.286V72.0488ZM125.286 72.573V85.3617H112.498V72.573H125.286ZM125.286 85.8858V98.6745H112.498V85.8858H125.286ZM125.286 99.3035V112.092H112.498V99.3035H125.286ZM125.286 112.616V125.405H112.498V112.616H125.286ZM125.286 125.929V138.718H112.498V125.929H125.286ZM125.286 139.347V152.135H112.498V139.347H125.286ZM125.286 152.66V165.448H112.498V152.66H125.286ZM125.286 165.972V178.761H112.498V165.972H125.286ZM125.286 179.39V192.179H112.498V179.39H125.286ZM125.286 192.703V205.492H112.498V192.703H125.286ZM125.286 206.016V218.804H112.498V206.016H125.286ZM125.286 219.433V232.222H112.498V219.433H125.286ZM125.286 232.746V245.535H112.498V232.746H125.286ZM125.915 232.746H138.704V245.535H125.915V232.746ZM138.704 246.059V258.848H125.915V246.059H138.704ZM139.228 246.059H152.017V258.848H139.228V246.059ZM152.541 246.059H165.33V258.848H152.541V246.059ZM165.959 246.059H178.747V258.848H165.959V246.059ZM179.272 246.059H192.06V258.848H179.272V246.059ZM192.584 246.059H205.373V258.848H192.584V246.059ZM206.002 246.059H218.791V258.848H206.002V246.059ZM219.315 246.059H232.104V258.848H219.315V246.059ZM232.628 246.059H245.416V258.848H232.628V246.059ZM246.045 246.059H258.834V258.848H246.045V246.059ZM259.358 246.059H272.147V258.848H259.358V246.059ZM272.671 246.059H285.46V258.848H272.671V246.059ZM286.089 246.059H298.877V258.848H286.089V246.059ZM299.402 246.059H312.19V258.848H299.402V246.059ZM299.402 245.535V232.746H312.19V245.535H299.402ZM312.714 232.746H325.503V245.535H312.714V232.746ZM312.714 232.222V219.433H325.503V232.222H312.714ZM312.714 218.804V206.016H325.503V218.804H312.714ZM312.714 205.492V192.703H325.503V205.492H312.714ZM312.714 192.179V179.39H325.503V192.179H312.714ZM312.714 178.761V165.972H325.503V178.761H312.714ZM312.714 165.448V152.66H325.503V165.448H312.714ZM312.714 152.135V139.347H325.503V152.135H312.714ZM312.714 138.718V125.929H325.503V138.718H312.714ZM312.714 125.405V112.616H325.503V125.405H312.714ZM312.714 112.092V99.3035H325.503V112.092H312.714ZM312.714 98.6745V85.8858H325.503V98.6745H312.714ZM312.714 85.3617V72.573H325.503V85.3617H312.714ZM312.714 72.0488V59.2601H325.503V72.0488H312.714ZM125.286 45.8425V58.6312H112.498V50.266C112.498 47.823 114.478 45.8425 116.921 45.8425H125.286ZM112.498 246.059H125.286V258.848H112.498V246.059ZM312.714 258.848V246.059H325.503V258.848H312.714Z" fill="white"/>
</g>
<path d="M16.6128 134.12C22.5922 134.12 27.4394 129.273 27.4394 123.293C27.4394 117.314 22.5922 112.467 16.6128 112.467C10.6334 112.467 5.78613 117.314 5.78613 123.293C5.78613 129.273 10.6334 134.12 16.6128 134.12Z" fill="url(#paint2_radial_40_72914)"/>
<path opacity="0.5" d="M10.3514 122.765C8.38977 121.558 7.89936 118.804 9.25741 116.654C10.5777 114.503 13.2561 113.711 15.2177 114.918C17.1794 116.125 17.6698 118.879 16.3117 121.029C14.9537 123.217 12.2753 123.972 10.3514 122.765Z" fill="url(#paint3_radial_40_72914)"/>
<path d="M159.436 50.2773C163.999 50.2773 167.699 46.5775 167.699 42.0136C167.699 37.4498 163.999 33.75 159.436 33.75C154.872 33.75 151.172 37.4498 151.172 42.0136C151.172 46.5775 154.872 50.2773 159.436 50.2773Z" fill="url(#paint4_radial_40_72914)"/>
<path opacity="0.5" d="M154.656 41.6112C153.158 40.6898 152.784 38.5879 153.821 36.9467C154.828 35.3055 156.873 34.7008 158.37 35.6222C159.867 36.5436 160.242 38.6455 159.205 40.2867C158.168 41.9567 156.124 42.5326 154.656 41.6112Z" fill="url(#paint5_radial_40_72914)"/>
<g filter="url(#filter0_f_40_72914)">
<ellipse cx="83.2557" cy="146.418" rx="81.2557" ry="0.430636" fill="black" fill-opacity="0.37"/>
</g>
<g filter="url(#filter1_iii_40_72914)">
<path d="M119.895 124.091L113.262 130.388C113.174 130.472 113.057 130.518 112.935 130.518H45.1651C43.7131 130.518 42.541 129.345 42.541 127.891V28.3828C42.541 26.9292 43.7131 25.7559 45.1651 25.7559H123.044C124.496 25.7559 125.668 26.9292 125.668 28.3828V117.824C125.668 117.946 125.621 118.063 125.537 118.151L119.895 124.091Z" fill="#4392F4"/>
</g>
<g filter="url(#filter2_di_40_72914)">
<path d="M125.665 118.036L112.82 116.573C111.244 116.573 110.608 117.938 110.795 119.557L113.164 130.457L119.688 124.258L125.665 118.036Z" fill="#054599"/>
</g>
<g filter="url(#filter3_dii_40_72914)">
<rect x="53.3633" y="43.3799" width="60.8195" height="2.80447" rx="1.40223" fill="#F3F3F3"/>
</g>
<g filter="url(#filter4_dii_40_72914)">
<rect x="53.3633" y="60.124" width="43.7534" height="2.80447" rx="1.40223" fill="#F3F3F3"/>
</g>
<g filter="url(#filter5_dii_40_72914)">
<rect x="53.3633" y="76.9854" width="24.7879" height="2.80447" rx="1.40223" fill="#F3F3F3"/>
</g>
<g filter="url(#filter6_di_40_72914)">
<path fill-rule="evenodd" clip-rule="evenodd" d="M86.657 107.541C95.9812 117.581 111.266 118.758 121.905 110.659L136.42 126.288C137.395 127.339 139.035 127.403 140.081 126.431C141.128 125.459 141.185 123.819 140.21 122.768L125.695 107.139C134.559 97.1276 134.514 81.7973 125.19 71.7569C115.269 61.0745 98.6014 60.4254 87.9609 70.3069C77.3204 80.1884 76.7366 96.8587 86.657 107.541ZM90.4476 104.022C82.4787 95.4412 82.9477 82.0503 91.495 74.1127C100.042 66.175 113.431 66.6965 121.4 75.2774C129.369 83.8583 128.9 97.2492 120.353 105.187C111.805 113.124 98.4164 112.603 90.4476 104.022Z" fill="#FFC736"/>
</g>
<g filter="url(#filter7_ii_40_72914)">
<path d="M105.938 95.0774C105.566 95.0818 105.255 94.9493 105.005 94.68C104.754 94.4106 104.626 94.0902 104.622 93.7188L104.44 78.4554C104.435 78.0592 104.555 77.7359 104.8 77.4854C105.044 77.2101 105.352 77.0702 105.723 77.0658L106.429 77.0574C106.825 77.0527 107.149 77.185 107.399 77.4544C107.65 77.6991 107.778 78.0194 107.782 78.4156L107.964 93.679C107.968 94.0504 107.836 94.3739 107.567 94.6494C107.323 94.9247 107.015 95.0646 106.643 95.069L105.938 95.0774ZM106.446 103.428C105.678 103.438 105.032 103.198 104.506 102.709C104.005 102.219 103.75 101.591 103.741 100.824C103.731 100.056 103.972 99.4341 104.461 98.9578C104.975 98.4565 105.616 98.2012 106.383 98.1921C107.176 98.1827 107.822 98.4226 108.323 98.9118C108.824 99.3764 109.079 99.9924 109.088 100.76C109.097 101.527 108.857 102.162 108.368 102.663C107.879 103.164 107.238 103.419 106.446 103.428Z" fill="#F3F3F3"/>
</g>
<g filter="url(#filter8_i_40_72914)">
<path d="M157.488 121.256C157.439 121.243 157.39 121.235 157.351 121.203C156.4 120.419 159.132 108.405 159.39 107.51C160.7 102.987 162.87 98.5846 166.359 95.3557C168.829 93.07 175.426 88.5979 178.85 91.2267C181.735 93.4452 179.032 99.0156 177.702 101.345C175.317 105.487 171.804 108.842 168.803 112.516C167.013 114.713 165.214 116.952 163.424 119.149C163.302 119.308 162.298 120.733 161.613 121.559C161.246 122.002 160.715 122.074 160.156 121.932C159.228 121.698 157.82 121.34 157.488 121.256Z" fill="url(#paint6_linear_40_72914)"/>
</g>
<g filter="url(#filter9_i_40_72914)">
<path d="M161.421 124.883C162.885 125.198 164.19 123.953 163.884 122.487C162.203 114.42 156.63 93.3869 144.827 97.2194C134.1 100.741 157.153 121.484 160.493 124.422C160.761 124.658 161.072 124.808 161.421 124.883Z" fill="url(#paint7_linear_40_72914)"/>
</g>
<path d="M148.041 101.414C148.041 101.414 161.844 119.43 162.002 123.242L148.041 101.414Z" fill="#77FFE4" fill-opacity="0.2"/>
<path d="M174.768 94.7802C174.768 94.7802 163.426 109.249 162.193 115.671L174.768 94.7802Z" fill="#77FFE4" fill-opacity="0.2"/>
<path d="M147.336 120.809C147.203 119.428 148.288 118.233 149.675 118.233H169.843C171.23 118.233 172.315 119.428 172.182 120.809L169.96 143.863C169.843 145.068 168.831 145.988 167.62 145.988H151.898C150.688 145.988 149.675 145.068 149.559 143.863L147.336 120.809Z" fill="url(#paint8_linear_40_72914)"/>
<g filter="url(#filter10_i_40_72914)">
<rect x="146.174" y="118.233" width="27.1727" height="6.68961" rx="1.17505" fill="url(#paint9_linear_40_72914)"/>
</g>
<defs>
<filter id="filter0_f_40_72914" x="0.565432" y="144.553" width="165.381" height="3.73046" filterUnits="userSpaceOnUse" color-interpolation-filters="sRGB">
<feFlood flood-opacity="0" result="BackgroundImageFix"/>
<feBlend mode="normal" in="SourceGraphic" in2="BackgroundImageFix" result="shape"/>
<feGaussianBlur stdDeviation="0.717284" result="effect1_foregroundBlur_40_72914"/>
</filter>
<filter id="filter1_iii_40_72914" x="41.7683" y="25.2922" width="83.8996" height="106.076" filterUnits="userSpaceOnUse" color-interpolation-filters="sRGB">
<feFlood flood-opacity="0" result="BackgroundImageFix"/>
<feBlend mode="normal" in="SourceGraphic" in2="BackgroundImageFix" result="shape"/>
<feColorMatrix in="SourceAlpha" type="matrix" values="0 0 0 0 0 0 0 0 0 0 0 0 0 0 0 0 0 0 127 0" result="hardAlpha"/>
<feOffset dy="-0.463616"/>
<feGaussianBlur stdDeviation="0.463616"/>
<feComposite in2="hardAlpha" operator="arithmetic" k2="-1" k3="1"/>
<feColorMatrix type="matrix" values="0 0 0 0 0.089132 0 0 0 0 0.328429 0 0 0 0 0.629167 0 0 0 1 0"/>
<feBlend mode="normal" in2="shape" result="effect1_innerShadow_40_72914"/>
<feColorMatrix in="SourceAlpha" type="matrix" values="0 0 0 0 0 0 0 0 0 0 0 0 0 0 0 0 0 0 127 0" result="hardAlpha"/>
<feOffset dy="0.849963"/>
<feGaussianBlur stdDeviation="0.424981"/>
<feComposite in2="hardAlpha" operator="arithmetic" k2="-1" k3="1"/>
<feColorMatrix type="matrix" values="0 0 0 0 0.641667 0 0 0 0 0.8495 0 0 0 0 1 0 0 0 1 0"/>
<feBlend mode="normal" in2="effect1_innerShadow_40_72914" result="effect2_innerShadow_40_72914"/>
<feColorMatrix in="SourceAlpha" type="matrix" values="0 0 0 0 0 0 0 0 0 0 0 0 0 0 0 0 0 0 127 0" result="hardAlpha"/>
<feOffset dx="-0.772693"/>
<feGaussianBlur stdDeviation="0.386347"/>
<feComposite in2="hardAlpha" operator="arithmetic" k2="-1" k3="1"/>
<feColorMatrix type="matrix" values="0 0 0 0 0 0 0 0 0 0 0 0 0 0 0 0 0 0 0.25 0"/>
<feBlend mode="normal" in2="effect2_innerShadow_40_72914" result="effect3_innerShadow_40_72914"/>
</filter>
<filter id="filter2_di_40_72914" x="110.461" y="116.182" width="15.4249" height="14.6277" filterUnits="userSpaceOnUse" color-interpolation-filters="sRGB">
<feFlood flood-opacity="0" result="BackgroundImageFix"/>
<feColorMatrix in="SourceAlpha" type="matrix" values="0 0 0 0 0 0 0 0 0 0 0 0 0 0 0 0 0 0 127 0" result="hardAlpha"/>
<feOffset dy="0.132368"/>
<feGaussianBlur stdDeviation="0.110307"/>
<feColorMatrix type="matrix" values="0 0 0 0 0 0 0 0 0 0 0 0 0 0 0 0 0 0 0.25 0"/>
<feBlend mode="normal" in2="BackgroundImageFix" result="effect1_dropShadow_40_72914"/>
<feBlend mode="normal" in="SourceGraphic" in2="effect1_dropShadow_40_72914" result="shape"/>
<feColorMatrix in="SourceAlpha" type="matrix" values="0 0 0 0 0 0 0 0 0 0 0 0 0 0 0 0 0 0 127 0" result="hardAlpha"/>
<feOffset dx="-0.302898" dy="-0.39092"/>
<feGaussianBlur stdDeviation="0.19546"/>
<feComposite in2="hardAlpha" operator="arithmetic" k2="-1" k3="1"/>
<feColorMatrix type="matrix" values="0 0 0 0 0.0505208 0 0 0 0 0.161469 0 0 0 0 0.404167 0 0 0 1 0"/>
<feBlend mode="normal" in2="shape" result="effect2_innerShadow_40_72914"/>
</filter>
<filter id="filter3_dii_40_72914" x="53.2053" y="43.3362" width="61.1352" height="3.40115" filterUnits="userSpaceOnUse" color-interpolation-filters="sRGB">
<feFlood flood-opacity="0" result="BackgroundImageFix"/>
<feColorMatrix in="SourceAlpha" type="matrix" values="0 0 0 0 0 0 0 0 0 0 0 0 0 0 0 0 0 0 127 0" result="hardAlpha"/>
<feOffset dy="0.394871"/>
<feGaussianBlur stdDeviation="0.0789741"/>
<feColorMatrix type="matrix" values="0 0 0 0 0 0 0 0 0 0 0 0 0 0 0 0 0 0 0.25 0"/>
<feBlend mode="normal" in2="BackgroundImageFix" result="effect1_dropShadow_40_72914"/>
<feBlend mode="normal" in="SourceGraphic" in2="effect1_dropShadow_40_72914" result="shape"/>
<feColorMatrix in="SourceAlpha" type="matrix" values="0 0 0 0 0 0 0 0 0 0 0 0 0 0 0 0 0 0 127 0" result="hardAlpha"/>
<feOffset dy="0.473845"/>
<feComposite in2="hardAlpha" operator="arithmetic" k2="-1" k3="1"/>
<feColorMatrix type="matrix" values="0 0 0 0 1 0 0 0 0 1 0 0 0 0 1 0 0 0 1 0"/>
<feBlend mode="normal" in2="shape" result="effect2_innerShadow_40_72914"/>
<feColorMatrix in="SourceAlpha" type="matrix" values="0 0 0 0 0 0 0 0 0 0 0 0 0 0 0 0 0 0 127 0" result="hardAlpha"/>
<feOffset dx="-0.0218237" dy="-0.394871"/>
<feGaussianBlur stdDeviation="0.0218237"/>
<feComposite in2="hardAlpha" operator="arithmetic" k2="-1" k3="1"/>
<feColorMatrix type="matrix" values="0 0 0 0 0.833333 0 0 0 0 0.833333 0 0 0 0 0.833333 0 0 0 1 0"/>
<feBlend mode="normal" in2="effect2_innerShadow_40_72914" result="effect3_innerShadow_40_72914"/>
</filter>
<filter id="filter4_dii_40_72914" x="53.2053" y="60.0804" width="44.0698" height="3.40115" filterUnits="userSpaceOnUse" color-interpolation-filters="sRGB">
<feFlood flood-opacity="0" result="BackgroundImageFix"/>
<feColorMatrix in="SourceAlpha" type="matrix" values="0 0 0 0 0 0 0 0 0 0 0 0 0 0 0 0 0 0 127 0" result="hardAlpha"/>
<feOffset dy="0.394871"/>
<feGaussianBlur stdDeviation="0.0789741"/>
<feColorMatrix type="matrix" values="0 0 0 0 0 0 0 0 0 0 0 0 0 0 0 0 0 0 0.25 0"/>
<feBlend mode="normal" in2="BackgroundImageFix" result="effect1_dropShadow_40_72914"/>
<feBlend mode="normal" in="SourceGraphic" in2="effect1_dropShadow_40_72914" result="shape"/>
<feColorMatrix in="SourceAlpha" type="matrix" values="0 0 0 0 0 0 0 0 0 0 0 0 0 0 0 0 0 0 127 0" result="hardAlpha"/>
<feOffset dy="0.473845"/>
<feComposite in2="hardAlpha" operator="arithmetic" k2="-1" k3="1"/>
<feColorMatrix type="matrix" values="0 0 0 0 1 0 0 0 0 1 0 0 0 0 1 0 0 0 1 0"/>
<feBlend mode="normal" in2="shape" result="effect2_innerShadow_40_72914"/>
<feColorMatrix in="SourceAlpha" type="matrix" values="0 0 0 0 0 0 0 0 0 0 0 0 0 0 0 0 0 0 127 0" result="hardAlpha"/>
<feOffset dx="-0.0218237" dy="-0.394871"/>
<feGaussianBlur stdDeviation="0.0218237"/>
<feComposite in2="hardAlpha" operator="arithmetic" k2="-1" k3="1"/>
<feColorMatrix type="matrix" values="0 0 0 0 0.833333 0 0 0 0 0.833333 0 0 0 0 0.833333 0 0 0 1 0"/>
<feBlend mode="normal" in2="effect2_innerShadow_40_72914" result="effect3_innerShadow_40_72914"/>
</filter>
<filter id="filter5_dii_40_72914" x="53.2053" y="76.9417" width="25.104" height="3.40115" filterUnits="userSpaceOnUse" color-interpolation-filters="sRGB">
<feFlood flood-opacity="0" result="BackgroundImageFix"/>
<feColorMatrix in="SourceAlpha" type="matrix" values="0 0 0 0 0 0 0 0 0 0 0 0 0 0 0 0 0 0 127 0" result="hardAlpha"/>
<feOffset dy="0.394871"/>
<feGaussianBlur stdDeviation="0.0789741"/>
<feColorMatrix type="matrix" values="0 0 0 0 0 0 0 0 0 0 0 0 0 0 0 0 0 0 0.25 0"/>
<feBlend mode="normal" in2="BackgroundImageFix" result="effect1_dropShadow_40_72914"/>
<feBlend mode="normal" in="SourceGraphic" in2="effect1_dropShadow_40_72914" result="shape"/>
<feColorMatrix in="SourceAlpha" type="matrix" values="0 0 0 0 0 0 0 0 0 0 0 0 0 0 0 0 0 0 127 0" result="hardAlpha"/>
<feOffset dy="0.473845"/>
<feComposite in2="hardAlpha" operator="arithmetic" k2="-1" k3="1"/>
<feColorMatrix type="matrix" values="0 0 0 0 1 0 0 0 0 1 0 0 0 0 1 0 0 0 1 0"/>
<feBlend mode="normal" in2="shape" result="effect2_innerShadow_40_72914"/>
<feColorMatrix in="SourceAlpha" type="matrix" values="0 0 0 0 0 0 0 0 0 0 0 0 0 0 0 0 0 0 127 0" result="hardAlpha"/>
<feOffset dx="-0.0218237" dy="-0.394871"/>
<feGaussianBlur stdDeviation="0.0218237"/>
<feComposite in2="hardAlpha" operator="arithmetic" k2="-1" k3="1"/>
<feColorMatrix type="matrix" values="0 0 0 0 0.833333 0 0 0 0 0.833333 0 0 0 0 0.833333 0 0 0 1 0"/>
<feBlend mode="normal" in2="effect2_innerShadow_40_72914" result="effect3_innerShadow_40_72914"/>
</filter>
<filter id="filter6_di_40_72914" x="75.4212" y="63.3008" width="69.6449" height="73.5279" filterUnits="userSpaceOnUse" color-interpolation-filters="sRGB">
<feFlood flood-opacity="0" result="BackgroundImageFix"/>
<feColorMatrix in="SourceAlpha" type="matrix" values="0 0 0 0 0 0 0 0 0 0 0 0 0 0 0 0 0 0 127 0" result="hardAlpha"/>
<feOffset dy="5.54775"/>
<feGaussianBlur stdDeviation="2.08041"/>
<feColorMatrix type="matrix" values="0 0 0 0 0 0 0 0 0 0 0 0 0 0 0 0 0 0 0.11 0"/>
<feBlend mode="normal" in2="BackgroundImageFix" result="effect1_dropShadow_40_72914"/>
<feBlend mode="normal" in="SourceGraphic" in2="effect1_dropShadow_40_72914" result="shape"/>
<feColorMatrix in="SourceAlpha" type="matrix" values="0 0 0 0 0 0 0 0 0 0 0 0 0 0 0 0 0 0 127 0" result="hardAlpha"/>
<feOffset dy="1.38694"/>
<feGaussianBlur stdDeviation="1.0402"/>
<feComposite in2="hardAlpha" operator="arithmetic" k2="-1" k3="1"/>
<feColorMatrix type="matrix" values="0 0 0 0 0.841667 0 0 0 0 0.561793 0 0 0 0 0.248993 0 0 0 1 0"/>
<feBlend mode="normal" in2="shape" result="effect2_innerShadow_40_72914"/>
</filter>
<filter id="filter7_ii_40_72914" x="103.722" y="77.0208" width="5.36705" height="26.4641" filterUnits="userSpaceOnUse" color-interpolation-filters="sRGB">
<feFlood flood-opacity="0" result="BackgroundImageFix"/>
<feBlend mode="normal" in="SourceGraphic" in2="BackgroundImageFix" result="shape"/>
<feColorMatrix in="SourceAlpha" type="matrix" values="0 0 0 0 0 0 0 0 0 0 0 0 0 0 0 0 0 0 127 0" result="hardAlpha"/>
<feOffset dy="0.309022"/>
<feGaussianBlur stdDeviation="0.0280929"/>
<feComposite in2="hardAlpha" operator="arithmetic" k2="-1" k3="1"/>
<feColorMatrix type="matrix" values="0 0 0 0 1 0 0 0 0 1 0 0 0 0 1 0 0 0 1 0"/>
<feBlend mode="normal" in2="shape" result="effect1_innerShadow_40_72914"/>
<feColorMatrix in="SourceAlpha" type="matrix" values="0 0 0 0 0 0 0 0 0 0 0 0 0 0 0 0 0 0 127 0" result="hardAlpha"/>
<feOffset dx="-0.0184152" dy="-0.289573"/>
<feGaussianBlur stdDeviation="0.0184152"/>
<feComposite in2="hardAlpha" operator="arithmetic" k2="-1" k3="1"/>
<feColorMatrix type="matrix" values="0 0 0 0 0.833333 0 0 0 0 0.833333 0 0 0 0 0.833333 0 0 0 1 0"/>
<feBlend mode="normal" in2="effect1_innerShadow_40_72914" result="effect2_innerShadow_40_72914"/>
</filter>
<filter id="filter8_i_40_72914" x="157.151" y="89.9931" width="24.1064" height="32.005" filterUnits="userSpaceOnUse" color-interpolation-filters="sRGB">
<feFlood flood-opacity="0" result="BackgroundImageFix"/>
<feBlend mode="normal" in="SourceGraphic" in2="BackgroundImageFix" result="shape"/>
<feColorMatrix in="SourceAlpha" type="matrix" values="0 0 0 0 0 0 0 0 0 0 0 0 0 0 0 0 0 0 127 0" result="hardAlpha"/>
<feOffset dx="1.12687" dy="-0.430774"/>
<feGaussianBlur stdDeviation="1.46881"/>
<feComposite in2="hardAlpha" operator="arithmetic" k2="-1" k3="1"/>
<feColorMatrix type="matrix" values="0 0 0 0 0.113056 0 0 0 0 0.616667 0 0 0 0 0.58645 0 0 0 1 0"/>
<feBlend mode="normal" in2="shape" result="effect1_innerShadow_40_72914"/>
</filter>
<filter id="filter9_i_40_72914" x="142.003" y="96.3261" width="23.0527" height="28.6066" filterUnits="userSpaceOnUse" color-interpolation-filters="sRGB">
<feFlood flood-opacity="0" result="BackgroundImageFix"/>
<feBlend mode="normal" in="SourceGraphic" in2="BackgroundImageFix" result="shape"/>
<feColorMatrix in="SourceAlpha" type="matrix" values="0 0 0 0 0 0 0 0 0 0 0 0 0 0 0 0 0 0 127 0" result="hardAlpha"/>
<feOffset dx="1.12687" dy="-0.430774"/>
<feGaussianBlur stdDeviation="1.46881"/>
<feComposite in2="hardAlpha" operator="arithmetic" k2="-1" k3="1"/>
<feColorMatrix type="matrix" values="0 0 0 0 0.0996528 0 0 0 0 0.683333 0 0 0 0 0.555806 0 0 0 1 0"/>
<feBlend mode="normal" in2="shape" result="effect1_innerShadow_40_72914"/>
</filter>
<filter id="filter10_i_40_72914" x="146.174" y="117.881" width="27.6429" height="7.04197" filterUnits="userSpaceOnUse" color-interpolation-filters="sRGB">
<feFlood flood-opacity="0" result="BackgroundImageFix"/>
<feBlend mode="normal" in="SourceGraphic" in2="BackgroundImageFix" result="shape"/>
<feColorMatrix in="SourceAlpha" type="matrix" values="0 0 0 0 0 0 0 0 0 0 0 0 0 0 0 0 0 0 127 0" result="hardAlpha"/>
<feOffset dx="0.47002" dy="-0.352515"/>
<feGaussianBlur stdDeviation="0.411268"/>
<feComposite in2="hardAlpha" operator="arithmetic" k2="-1" k3="1"/>
<feColorMatrix type="matrix" values="0 0 0 0 0.833333 0 0 0 0 0.604343 0 0 0 0 0.0555555 0 0 0 1 0"/>
<feBlend mode="normal" in2="shape" result="effect1_innerShadow_40_72914"/>
</filter>
<linearGradient id="paint0_linear_40_72914" x1="89.6867" y1="0" x2="89.6867" y2="169.6" gradientUnits="userSpaceOnUse">
<stop stop-color="#B5EFFF"/>
<stop offset="1" stop-color="#E7F8FE"/>
</linearGradient>
<linearGradient id="paint1_linear_40_72914" x1="88.6135" y1="0" x2="88.6135" y2="168.609" gradientUnits="userSpaceOnUse">
<stop stop-color="#B5EFFF"/>
<stop offset="1" stop-color="#EDFBFF"/>
</linearGradient>
<radialGradient id="paint2_radial_40_72914" cx="0" cy="0" r="1" gradientUnits="userSpaceOnUse" gradientTransform="translate(11.4629 118.922) rotate(-15.1772) scale(20.6463)">
<stop stop-color="#FFF1CF"/>
<stop offset="0.1875" stop-color="#FFE4A2"/>
<stop offset="0.317708" stop-color="#FFD364"/>
<stop offset="0.489583" stop-color="#FFD364"/>
<stop offset="0.651042" stop-color="#FFC73A"/>
<stop offset="0.947917" stop-color="#D09500"/>
</radialGradient>
<radialGradient id="paint3_radial_40_72914" cx="0" cy="0" r="1" gradientUnits="userSpaceOnUse" gradientTransform="translate(12.7566 118.873) rotate(121.889) scale(4.52167 4.1179)">
<stop stop-color="white"/>
<stop offset="0.6944" stop-color="white" stop-opacity="0"/>
</radialGradient>
<radialGradient id="paint4_radial_40_72914" cx="0" cy="0" r="1" gradientUnits="userSpaceOnUse" gradientTransform="translate(155.505 38.6767) rotate(-15.1772) scale(15.7586)">
<stop stop-color="#E6C6FF"/>
<stop offset="0.1875" stop-color="#C07DF5"/>
<stop offset="0.317708" stop-color="#BE6FFC"/>
<stop offset="0.489583" stop-color="#B56AF0"/>
<stop offset="0.651042" stop-color="#A745F4"/>
<stop offset="0.947917" stop-color="#9F3DED"/>
</radialGradient>
<radialGradient id="paint5_radial_40_72914" cx="0" cy="0" r="1" gradientUnits="userSpaceOnUse" gradientTransform="translate(156.491 38.6407) rotate(121.889) scale(3.45124 3.14306)">
<stop stop-color="white"/>
<stop offset="0.6944" stop-color="white" stop-opacity="0"/>
</radialGradient>
<linearGradient id="paint6_linear_40_72914" x1="183.461" y1="90.9177" x2="157.869" y2="113.901" gradientUnits="userSpaceOnUse">
<stop stop-color="#BAFFF1" stop-opacity="0.26"/>
<stop offset="0.682292" stop-color="#4DC7AE"/>
<stop offset="0.96875" stop-color="#06896F"/>
</linearGradient>
<linearGradient id="paint7_linear_40_72914" x1="172.075" y1="99.8369" x2="156.511" y2="126.049" gradientUnits="userSpaceOnUse">
<stop stop-color="#B7FDEF"/>
<stop offset="0.682292" stop-color="#09B794"/>
<stop offset="0.96875" stop-color="#7EE0CC"/>
</linearGradient>
<linearGradient id="paint8_linear_40_72914" x1="172.431" y1="136.504" x2="148.896" y2="136.504" gradientUnits="userSpaceOnUse">
<stop offset="0.0989583" stop-color="#FFEEC5"/>
<stop offset="0.606776" stop-color="#FACD63"/>
<stop offset="0.838542" stop-color="#EAAF23"/>
<stop offset="0.984375" stop-color="#EDB52F"/>
</linearGradient>
<linearGradient id="paint9_linear_40_72914" x1="173.347" y1="122.637" x2="148.113" y2="122.637" gradientUnits="userSpaceOnUse">
<stop offset="0.0989583" stop-color="#FFEEC5"/>
<stop offset="0.606776" stop-color="#FCBD27"/>
<stop offset="0.984375" stop-color="#EFB222"/>
</linearGradient>
</defs>
</svg>
