<svg width="118" height="100" viewBox="0 0 118 100" fill="none" xmlns="http://www.w3.org/2000/svg">
<g clip-path="url(#clip0_5135_3777)">
<path d="M112.18 99.0601H117.13M85.16 99.0601H106.82M0.870003 99.0601H80.02" stroke="#91A1B0" stroke-width="1.1" stroke-linecap="round" stroke-linejoin="round"/>
<path opacity="0.2" d="M59.84 93.38C85.56 93.38 106.4 72.65 106.4 47.09C106.4 21.53 85.55 0.790039 59.84 0.790039C34.13 0.790039 13.27 21.52 13.27 47.08C13.27 72.64 34.12 93.37 59.83 93.37L59.84 93.38Z" fill="#BEC6D2"/>
<path d="M10.27 21.5898H15.82" stroke="#91A1B0" stroke-width="1.1" stroke-linecap="round" stroke-linejoin="round"/>
<path d="M22.4 8.6499V14.2099" stroke="#91A1B0" stroke-width="1.1" stroke-linecap="round" stroke-linejoin="round"/>
<path d="M12.62 12.6299L17.03 16.0199" stroke="#91A1B0" stroke-width="1.1" stroke-linecap="round" stroke-linejoin="round"/>
<path d="M25.09 18.1799H92.91C95.79 18.1799 98.13 20.5099 98.13 23.3999V78.1799C98.13 81.0599 95.8 83.3999 92.91 83.3999H25.09C22.21 83.3999 19.87 81.0699 19.87 78.1799V23.3999C19.87 20.5199 22.2 18.1799 25.09 18.1799Z" fill="white" stroke="#91A1B0" stroke-width="1.1" stroke-miterlimit="10"/>
<path d="M98.13 31.8099H19.87V23.3599C19.87 20.4999 22.19 18.1799 25.05 18.1799H92.91C95.79 18.1799 98.12 20.5099 98.12 23.3899V31.8099H98.13Z" fill="#91A1B0" stroke="#91A1B0" stroke-width="0.79" stroke-linecap="round" stroke-linejoin="round"/>
<path d="M38.02 25.3H28.98" stroke="white" stroke-width="1.1" stroke-miterlimit="10" stroke-linecap="round"/>
<path d="M54.22 64.7199L63.03 48.9799C63.62 47.9299 65.13 47.9099 65.74 48.9599L74.88 64.6999C75.48 65.7399 74.73 67.0399 73.53 67.0399H55.58C54.39 67.0399 53.64 65.7599 54.22 64.7199Z" fill="white" stroke="#91A1B0" stroke-width="1.1" stroke-miterlimit="10"/>
<path d="M64.55 54.71V59.76" stroke="#91A1B0" stroke-width="1.1" stroke-linecap="round" stroke-linejoin="round"/>
<circle cx="64.55" cy="62.26" r="0.55" fill="#91A1B0"/>
<path d="M58.65 48.24H43.95C43.38 48.24 42.91 48.71 42.91 49.28V54.2C44.81 54.2 46.35 55.74 46.35 57.64C46.35 59.54 44.81 61.08 42.91 61.08V66C42.91 66.57 43.38 67.04 43.95 67.04H49.79" fill="white"/>
<path d="M58.65 48.24H43.95C43.38 48.24 42.91 48.71 42.91 49.28V54.2C44.81 54.2 46.35 55.74 46.35 57.64C46.35 59.54 44.81 61.08 42.91 61.08V66C42.91 66.57 43.38 67.04 43.95 67.04H49.79" stroke="#CED6DE" stroke-width="1.1" stroke-linecap="round" stroke-linejoin="round"/>
<path d="M49.85 55.46H54.02" stroke="#CED6DE" stroke-width="1.1" stroke-linecap="round" stroke-linejoin="round"/>
<path d="M49.85 59.76H51.93" stroke="#CED6DE" stroke-width="1.1" stroke-linecap="round" stroke-linejoin="round"/>
</g>
<defs>
<clipPath id="clip0_5135_3777">
<rect width="118" height="100" fill="white"/>
</clipPath>
</defs>
</svg>
