<svg width="150" height="150" viewBox="0 0 150 150" fill="none" xmlns="http://www.w3.org/2000/svg">
<path d="M128.18 124.06H133.13M101.16 124.06H122.82M16.87 124.06H96.02" stroke="#91A1B0" stroke-width="1.1" stroke-linecap="round" stroke-linejoin="round"/>
<path opacity="0.2" d="M75.84 118.38C101.56 118.38 122.4 97.65 122.4 72.09C122.4 46.53 101.55 25.79 75.84 25.79C50.13 25.79 29.27 46.52 29.27 72.08C29.27 97.64 50.12 118.37 75.83 118.37L75.84 118.38Z" fill="#BEC6D2"/>
<path d="M26.27 46.5898H31.82" stroke="#91A1B0" stroke-width="1.1" stroke-linecap="round" stroke-linejoin="round"/>
<path d="M38.4 33.6499V39.2099" stroke="#91A1B0" stroke-width="1.1" stroke-linecap="round" stroke-linejoin="round"/>
<path d="M28.62 37.6299L33.03 41.0199" stroke="#91A1B0" stroke-width="1.1" stroke-linecap="round" stroke-linejoin="round"/>
<path d="M41.09 43.1799H108.91C111.79 43.1799 114.13 45.5099 114.13 48.3999V103.18C114.13 106.06 111.8 108.4 108.91 108.4H41.09C38.21 108.4 35.87 106.07 35.87 103.18V48.3999C35.87 45.5199 38.2 43.1799 41.09 43.1799Z" fill="white" stroke="#91A1B0" stroke-width="1.1" stroke-miterlimit="10"/>
<path d="M114.13 56.8099H35.87V48.3599C35.87 45.4999 38.19 43.1799 41.05 43.1799H108.91C111.79 43.1799 114.12 45.5099 114.12 48.3899V56.8099H114.13Z" fill="#91A1B0" stroke="#91A1B0" stroke-width="0.79" stroke-linecap="round" stroke-linejoin="round"/>
<path d="M54.02 50.3H44.98" stroke="white" stroke-width="1.1" stroke-miterlimit="10" stroke-linecap="round"/>
<path d="M70.22 89.7199L79.03 73.9799C79.62 72.9299 81.13 72.9099 81.74 73.9599L90.88 89.6999C91.48 90.7399 90.73 92.0399 89.53 92.0399H71.58C70.39 92.0399 69.64 90.7599 70.22 89.7199Z" fill="white" stroke="#91A1B0" stroke-width="1.1" stroke-miterlimit="10"/>
<path d="M80.55 79.71V84.76" stroke="#91A1B0" stroke-width="1.1" stroke-linecap="round" stroke-linejoin="round"/>
<circle cx="80.55" cy="87.26" r="0.55" fill="#91A1B0"/>
<path d="M74.65 73.24H59.95C59.38 73.24 58.91 73.71 58.91 74.28V79.2C60.81 79.2 62.35 80.74 62.35 82.64C62.35 84.54 60.81 86.08 58.91 86.08V91C58.91 91.57 59.38 92.04 59.95 92.04H65.79" fill="white"/>
<path d="M74.65 73.24H59.95C59.38 73.24 58.91 73.71 58.91 74.28V79.2C60.81 79.2 62.35 80.74 62.35 82.64C62.35 84.54 60.81 86.08 58.91 86.08V91C58.91 91.57 59.38 92.04 59.95 92.04H65.79" stroke="#CED6DE" stroke-width="1.1" stroke-linecap="round" stroke-linejoin="round"/>
<path d="M65.85 80.46H70.02" stroke="#CED6DE" stroke-width="1.1" stroke-linecap="round" stroke-linejoin="round"/>
<path d="M65.85 84.76H67.93" stroke="#CED6DE" stroke-width="1.1" stroke-linecap="round" stroke-linejoin="round"/>
</svg>
