<svg xmlns="http://www.w3.org/2000/svg" width="568" height="320" fill="none" viewBox="0 0 568 320"><path fill="#fff" d="M0 0h567.104v320H0z" opacity=".01"/><path fill="#EBEFF3" d="M375.865 130.783c5.686-6.957 11.906-13.28 20.861-16.82 12.423-4.931 29.722-2.504 35.973-16.92 1.947-4.49 2.897-9.352 4.744-13.913 4.543-11.215 20.613 0 32.257-3.091 18.597-4.955 34.559-14.98 40.787 3.91 4.635 14.115-3.578 26.01-5.633 39.699-1.723 11.479 2.982 19.517 6.513 29.96 2.55 7.559 3.199 16.618-1.746 22.879-3.299 4.174-8.599 6.377-13.907 7.034-9.349 1.159-17.824-1.701-27.134 1.012-8.098 2.358-15.136 7.382-23.11 10.103-19.052 6.516-35.888-7.32-53.975-10.528-8.414-1.492-66.445 25.507-61.439 1.987 1.862-8.727 14.889-25.817 22.136-30.323 10.005-6.245 16.395-16.108 23.673-24.989z"/><path fill="#273139" d="M242.595 285.055a33.979 33.979 0 009.542 3.671c1.963 1.546 3.091 5.488 9.125 6.014 6.034.525 5.926 6.462.479 5.944-4.45-.387-6.884-.217-9.936-2.157a9.22 9.22 0 01-2.202-2.156 9.94 9.94 0 00-4.551-3.27 58.07 58.07 0 00-5.957-2.01 291.956 291.956 0 013.5-6.036z"/><path fill="#273139" d="M238.918 291.903c-.162.866-.247 1.307-.402 2.172 3.214.595 4.713 1.546 7.904 2.319.124-.68.193-1.036.324-1.754a32.376 32.376 0 00-7.826-2.737z"/><path fill="#fff" d="M253.513 293.195a1.34 1.34 0 01.278-.835.725.725 0 01.556-.255c.217.008.427.08.603.209a.297.297 0 00.34-.487 1.66 1.66 0 00-.943-.317 1.303 1.303 0 00-1.004.464c-.273.34-.423.762-.425 1.198a.283.283 0 00.286.301.296.296 0 00.309-.278zm1.653 1.885a1.375 1.375 0 011.414-1.353c.144.002.286.023.425.062a.297.297 0 10.162-.572 2.239 2.239 0 00-.587-.085 1.978 1.978 0 00-2.009 1.94.302.302 0 00.595 0v.008zm2.163.966c.021-.408.215-.787.533-1.043a1.865 1.865 0 011.229-.472c.108-.011.217-.011.324 0a.301.301 0 00.356-.232.295.295 0 00-.043-.222.297.297 0 00-.189-.125 2.178 2.178 0 00-.448-.047 2.479 2.479 0 00-1.615.619 2.014 2.014 0 00-.772 1.491v.039a.3.3 0 00.594 0l.031-.008z"/><path fill="#273139" d="M287.23 290.768a34.416 34.416 0 0010.214.773c2.318.943 4.52 4.374 10.461 3.145 5.942-1.229 7.526 4.499 2.156 5.558-4.373.904-6.652 1.77-10.137.773a9.018 9.018 0 01-2.72-1.438h-.038a10.043 10.043 0 00-5.3-1.839 58.81 58.81 0 00-6.282-.217c.665-2.697.989-4.073 1.646-6.755z"/><path fill="#273139" d="M285.677 298.373c.093.881.147 1.322.239 2.195 3.253-.348 4.953.108 8.229-.054a99.582 99.582 0 00-.193-1.778 32.27 32.27 0 00-8.275-.363z"/><path fill="#fff" d="M300.032 295.428a1.346 1.346 0 010-.873.726.726 0 01.464-.402c.205-.068.428-.068.633 0a.31.31 0 00.379-.194.31.31 0 00-.193-.378 1.734 1.734 0 00-.989 0 1.323 1.323 0 00-.835.726 1.967 1.967 0 00-.062 1.276.302.302 0 00.364.208.294.294 0 00.208-.363h.031zm2.125 1.346a1.38 1.38 0 01.966-1.701c.137-.043.28-.066.425-.07a.293.293 0 100-.587 2.127 2.127 0 00-.588.085 1.965 1.965 0 00-1.359 2.435.293.293 0 00.363.201.308.308 0 00.208-.363h-.015zm2.349.301c-.099-.4-.021-.823.216-1.16a1.93 1.93 0 011.043-.772c.103-.033.209-.054.317-.062a.302.302 0 00.278-.317.316.316 0 00-.325-.278 2.65 2.65 0 00-.44.085 2.553 2.553 0 00-1.375 1.058 2.002 2.002 0 00-.278 1.647.291.291 0 00.378.185.29.29 0 00.173-.145.29.29 0 00.013-.226v-.015z"/><path stroke="#B1BDC7" stroke-width=".5" d="M154.061 36.375v71.675"/><path fill="#E5F2FD" d="M158.928 38.353h127.707v57.19H158.928z"/><path fill="#EBEFF3" d="M158.928 98.875h127.707v45.959H158.928z"/><path fill="#E5F2FD" d="M151.882 30.671h135.132v5.171H151.882z"/><rect width="4.952" height="14.361" x="151.704" y="105.206" fill="#B1BDC7" rx="1.6"/><path fill="#CFD7DF" d="M291.263 59.478h117.879v8.943H291.263z"/><path fill="#34479D" d="M255.266 199.551l30.697 24.735.463.379a5.503 5.503 0 012.001 3.64l6.483 56.835a3.67 3.67 0 01-7.24 1.136l-11.334-56.062 2.465 4.012-33.115-21.333a8.233 8.233 0 01.374-14.591 8.224 8.224 0 018.496.763c.239.131.486.309.71.486z"/><path fill="#34479D" d="M241.939 202.459l19.91 27.339.41.564a5.413 5.413 0 01.896 4.46l-11.288 47.83a3.661 3.661 0 01-7.201-1.33l6.49-48.695 1.306 5.016-23.179-24.657a8.241 8.241 0 014.064-13.793 8.234 8.234 0 017.943 2.516c.216.209.456.495.649.75z"/><path fill="#CFD7DF" d="M125.536 84.097L135 95.243a16.463 16.463 0 00-3.956 6.956l-6.953-12.313s-.773-.433-.124-1.731a12.695 12.695 0 011.569-4.058z"/><path stroke="#92A2B1" stroke-linecap="round" stroke-linejoin="round" stroke-width=".5" d="M112.123 106.218l-10.145 10.141 4.775 3.308 21.587-21.488-2.959-5.21-6.784 6.78"/><path stroke="#92A2B1" stroke-width=".5" d="M125.157 155.34h11.327a2.882 2.882 0 012.881 2.883v3.803h-30.433v-3.803a2.882 2.882 0 012.882-2.883h6.389m-4.087-.001v-1.971a1.746 1.746 0 011.746-1.739h16.565c.96 0 1.739.779 1.739 1.739v1.971"/><path fill="#CFD7DF" d="M119.277 151.42l-17.554-32.464a3.303 3.303 0 011.422-4.514 3.298 3.298 0 014.396 1.43l18.342 35.556-6.606-.008z"/><path stroke="#92A2B1" stroke-width=".5" d="M110.129 116.529l18.188 35.1"/><path stroke="#fff" stroke-width=".5" d="M104.783 118.647a.966.966 0 100-1.932.966.966 0 000 1.932z" clip-rule="evenodd"/><path stroke="#92A2B1" stroke-width=".5" d="M113.467 300.924h334.854m2.975 0h5.563"/><path stroke="#92A2B1" stroke-width=".5" d="M124.856 84.962l-1.924-2.612a2.645 2.645 0 01-.487-2.66 10.65 10.65 0 016.181-5.966 2.177 2.177 0 012.557.54l2.519 2.088a19.92 19.92 0 00-8.846 8.61v0z" clip-rule="evenodd"/><path stroke="#92A2B1" stroke-width=".5" d="M131.662 103.722l-7.726-13.364a2.47 2.47 0 01-.286-1.716c.541-2.59 2.89-9.708 12.787-13.473a2.517 2.517 0 012.171.178l13.475 7.946m-41.15 217.631H96.825"/><rect width="127.398" height="85.527" x="286.357" y="54.037" fill="#fff" stroke="#92A2B1" stroke-width=".5" rx="2.12"/><path fill="#fff" d="M379.527 59.07h29.978v75.462h-118.18V59.069h30.511"/><path stroke="#92A2B1" stroke-width=".5" d="M379.527 59.07h29.978v75.462h-118.18V59.069h30.511"/><g fill="#fff" opacity=".6"><path d="M120.978 169.029h6.992V300.36h-6.992z"/><path d="M125.188 169.028h2.781v131.331h-2.781z"/><path d="M121.016 212.15l6.876-6.554v-36.8l-7.077.232.201 43.122z"/></g><g fill="#fff" opacity=".6"><path d="M141.676 169.029h6.992V300.36h-6.992z"/><path d="M145.886 169.028h2.781v131.331h-2.781z"/><path d="M141.707 212.15l6.876-6.554v-36.8l-7.077.232.201 43.122z"/></g><path stroke="#7B8E9F" stroke-dasharray="44.63" stroke-width=".5" d="M108.121 169.028h11.265v131.331h-11.265z"/><path stroke="#7B8E9F" stroke-dasharray="44.63" stroke-width=".5" d="M114.904 169.028h4.481v131.331h-4.481z"/><path stroke="#7B8E9F" stroke-dasharray="44.63" stroke-width=".5" d="M108.182 212.15l11.088-6.554v-36.8l-11.404.232.316 43.122v0z" clip-rule="evenodd"/><path stroke="#7B8E9F" stroke-dasharray="44.63" stroke-width=".5" d="M128.811 169.028h11.265v131.331h-11.265z"/><path stroke="#7B8E9F" stroke-dasharray="44.63" stroke-width=".5" d="M135.595 169.028h4.481v131.331h-4.481z"/><path stroke="#7B8E9F" stroke-dasharray="44.63" stroke-width=".5" d="M128.873 212.15l11.087-6.554v-36.8l-11.404.232.317 43.122v0z" clip-rule="evenodd"/><path stroke="#7B8E9F" stroke-dasharray="44.63" stroke-width=".5" d="M95.936 159.599h394.756v9.43H95.936z"/><path fill="#CFD7DF" d="M493.829 168.928H99.065l2.759-9.43h394.763l-2.758 9.43z"/><path stroke="#B1BDC7" stroke-dasharray="44.63" stroke-width=".5" d="M95.936 159.599h394.756v1.871H95.936z"/><path fill="#fff" d="M95.936 158.91h394.756v1.871H95.936z"/><g opacity=".6"><path fill="#CFD7DF" d="M112.015 169.029h6.992V300.36h-6.992z"/><path fill="#CFD7DF" d="M116.225 169.028h2.781v131.331h-2.781z"/><path fill="#92A2B1" d="M112.046 212.15l6.884-6.554v-36.8l-7.078.232.194 43.122z"/></g><path fill="#CFD7DF" d="M132.705 169.028h6.992v131.331h-6.992z"/><path fill="#CFD7DF" d="M136.916 169.028h2.781v131.331h-2.781z"/><path fill="#92A2B1" d="M132.736 212.15l6.884-6.554v-36.8l-7.077.232.193 43.122z"/><g fill="#fff" opacity=".6"><path d="M458.953 169.029h6.992V300.36h-6.992z"/><path d="M463.163 169.028h2.781v131.331h-2.781z"/><path d="M458.984 212.15l6.876-6.554v-36.8l-7.077.232.201 43.122z"/></g><g fill="#fff" opacity=".6"><path d="M479.644 169.029h6.992V300.36h-6.992z"/><path d="M483.854 169.028h2.781v131.331h-2.781z"/><path d="M479.674 212.15l6.884-6.554v-36.8l-7.077.232.193 43.122z"/></g><g opacity=".6"><path fill="#CFD7DF" d="M449.983 169.029h6.992V300.36h-6.992z"/><path fill="#CFD7DF" d="M454.193 169.028h2.781v131.331h-2.781z"/><path fill="#92A2B1" d="M450.013 212.15l6.884-6.554v-36.8l-7.077.232.193 43.122z"/></g><g opacity=".6"><path fill="#CFD7DF" d="M470.674 169.029h6.992V300.36h-6.992z"/><path fill="#CFD7DF" d="M474.884 169.028h2.781v131.331h-2.781z"/><path fill="#92A2B1" d="M470.712 212.15l6.876-6.554v-36.8l-7.077.232.201 43.122z"/></g><path stroke="#7B8E9F" stroke-dasharray="44.63" stroke-width=".5" d="M446.089 169.028h11.265v131.331h-11.265z"/><path stroke="#7B8E9F" stroke-linecap="round" stroke-linejoin="round" stroke-width=".5" d="M452.88 169.028h4.481v131.331h-4.481z"/><path stroke="#7B8E9F" stroke-linecap="round" stroke-linejoin="round" stroke-width=".5" d="M446.15 212.15l11.095-6.554v-36.8l-11.411.232.316 43.122v0z" clip-rule="evenodd"/><path stroke="#7B8E9F" stroke-dasharray="44.63" stroke-width=".5" d="M466.779 169.028h11.265v131.331h-11.265z"/><path stroke="#7B8E9F" stroke-dasharray="44.63" stroke-width=".5" d="M473.571 169.028h4.481v131.331h-4.481z"/><path stroke="#7B8E9F" stroke-dasharray="44.63" stroke-width=".5" d="M466.841 212.15l11.095-6.554v-36.8l-11.412.232.317 43.122v0z" clip-rule="evenodd"/><path stroke="#92A2B1" stroke-width=".5" d="M329.94 139.563h40.231v20.963"/><path fill="#CFD7DF" d="M329.732 139.842h40.23v7.544h-40.23z"/><path stroke="#273139" stroke-linecap="round" stroke-linejoin="round" stroke-width=".655" d="M216.543 144.959c-2.318 3.293-5.501 9.6-7.812 12.893-5.624-4.638-13.235-11.649-18.859-16.317l31.167-31.768"/><path fill="#273139" d="M219.618 119.188l-4.86 27.842 2.032-1.484 2.828-26.358z"/><path fill="#475867" d="M216.612 215.877h40.246c3.639 0 3.647-5.65 0-5.65h-40.246c-3.631 0-3.639 5.65 0 5.65z"/><path fill="#92A2B1" d="M250.747 211.618h-28.788a11.7 11.7 0 01-8.723-3.942 11.715 11.715 0 01-2.867-9.136l10.044-85.96a17.265 17.265 0 0112.324-13.812 17.084 17.084 0 006.273 1.174c1.599 0 3.19-.221 4.729-.656a17.298 17.298 0 0110.948 14.863l7.726 84.684a11.715 11.715 0 01-3.011 8.97 11.702 11.702 0 01-8.655 3.815z"/><path stroke="#273139" stroke-linecap="round" stroke-linejoin="round" stroke-width=".655" d="M254.324 109.735l31.167 31.768c-5.624 4.638-13.235 11.649-18.859 16.317-2.318-3.292-10.662-13.804-12.965-17.097m-75.385 17.214c7.487 7.049 16.31 18.465 23.797 25.507m-11.303-25.507c6.706 7.474 14.471 18.743 21.17 26.218m-7.41-1.051c-2.24 2.736-7.046 5.634-10.461 6.523a1.145 1.145 0 00.069 2.226c4.636.82 9.689-.378 13.081-3.555m.278-2.961c.391 1.23.52 2.528.379 3.811a.826.826 0 001.444.649 10.353 10.353 0 002.589-5.364m-33.718-27.68h.132l12.045-12.05m-3.013 13.705l11.589-6.694m71.074 6.106l4.558 6.439m2.82-12.777l4.813 8.163m-56.146-4.429a65.733 65.733 0 01-2.913 32.564l-.641-.773m24.09-63.513a92.218 92.218 0 002.079 35.556m-27.722-57.284a49.493 49.493 0 0131.809.819"/><path fill="#273139" d="M258.048 151.66c-.68-.417-4.821-8.108-5.092-8.858-.27-.75-.386-2.002.371-2.319 1.414.472 4.474 6.292 4.474 6.292l.247 4.885z"/><path fill="#fff" stroke="#273139" stroke-linecap="round" stroke-linejoin="round" stroke-width=".73" d="M257.036 82.45a4.845 4.845 0 004.844-4.846 4.845 4.845 0 10-9.689 0 4.846 4.846 0 004.845 4.847z"/><path fill="#273139" d="M253.319 72.75a9.172 9.172 0 007.217-4.275c1.452-2.527 1.174-6.052-.958-8.03-2.504-2.32-6.398-1.956-9.774-1.438l-6.66 1.02a6.29 6.29 0 00-2.318.65c-1.823 1.066-2.101 3.74-1.159 5.634 2.218 4.444 9.063 6.833 13.652 6.439z"/><path stroke="#273139" stroke-linecap="round" stroke-linejoin="round" stroke-width=".73" d="M225.157 52.297a12.366 12.366 0 016.954 9.454c-.093-4.29 2.148-11.734 5.702-14.13"/><path fill="#fff" stroke="#273139" stroke-linecap="round" stroke-linejoin="round" stroke-width=".73" d="M256.503 77.712a17.507 17.507 0 01-13.109 16.92 17.497 17.497 0 01-19.674-8.418 1.504 1.504 0 01-.131-.224 17.52 17.52 0 012.221-19.843 17.502 17.502 0 0119.356-4.868 17.516 17.516 0 0111.337 16.433z"/><path fill="#273139" d="M253.713 69.983c-.004 10.726-8.694 19.42-19.416 19.424a19.12 19.12 0 01-10.577-3.192 1.504 1.504 0 01-.131-.224c-4.395-8.246-1.545-18.491 6.476-23.28 8.021-4.79 18.387-2.436 23.556 5.347.054.626.092 1.26.092 1.925z"/><path fill="#FF5959" d="M230.828 60.878a17.496 17.496 0 01-2.457 21.766 15.44 15.44 0 01-1.467 1.299 11.807 11.807 0 0011.999-9.823 11.81 11.81 0 00-8.075-13.242z"/><path fill="#273139" d="M235.866 71.165a14.076 14.076 0 01-8.68 13.01 14.064 14.064 0 01-15.335-3.046 14.08 14.08 0 01-3.054-15.34 14.07 14.07 0 0112.999-8.691c7.768 0 14.066 6.297 14.07 14.067z"/><path stroke="#273139" stroke-linecap="round" stroke-linejoin="round" stroke-width=".73" d="M237.187 68.274a10.54 10.54 0 01-1.7 10.11"/><path stroke="#fff" stroke-linecap="round" stroke-linejoin="round" stroke-width=".5" d="M249.951 69.982a17.16 17.16 0 01-11.141 14.586m-22.406-3.764a10.048 10.048 0 01-2.318-17.554"/><path stroke="#273139" stroke-linecap="round" stroke-linejoin="round" stroke-width=".73" d="M258.612 76.453l2.047-2.049m-3.809 7.026l2.055-2.048"/><path stroke="#92A2B1" stroke-width=".5" d="M262.707 221.449l17.816 79.482h-5.192l-21.533-76.506 8.909-2.976v0zm-51.233 0l-17.816 79.482h5.199l21.526-76.506-8.909-2.976v0z" clip-rule="evenodd"/><path stroke="#0F0D0D" stroke-width=".5" d="M181.427 155.34s1.089 0 1.089 1.492v2.318"/><path fill="#fff" stroke="#92A2B1" stroke-width=".5" d="M264.229 145.647l13.675 64.68a5.79 5.79 0 01-2.418 5.975c-35.208 23.861-67.419 6.663-77.471 0a5.76 5.76 0 01-2.495-5.952l13.034-64.618a11.18 11.18 0 0110.956-8.974h33.763a11.19 11.19 0 0110.956 8.889z"/><path stroke="#92A2B1" stroke-width=".5" d="M218.899 225.909l45.291 37.14m-9.65-37.14l-45.291 37.14"/><path stroke="#273139" stroke-linecap="round" stroke-linejoin="round" stroke-width=".655" d="M317.107 156.391c3.477-.627 6.482-.773 9.357 4.15m-8.855-.472c.873.943 2.851 1.268 4.033 1.77.773.325.255 1.987-.556 2.141a13.274 13.274 0 01-6.668-.834m-33.539-7.336l36.228.58m-42.525 7.892c13.366-.773 30.032-2.62 39.836-1.113"/><path stroke="#92A2B1" stroke-width=".5" d="M329.631 139.811v20.869"/><path stroke="#B1BDC7" stroke-linecap="round" stroke-linejoin="round" stroke-width=".5" d="M360.034 46.145l1.12 1.074a2.83 2.83 0 004.002 0l.139-.132a2.83 2.83 0 014.041 0v0a2.829 2.829 0 004.08 0v0a2.827 2.827 0 014.041 0l.146.147a2.83 2.83 0 004.003 0l1.019-1.09m-14.224-5.34l1.121 1.074a2.826 2.826 0 004.002 0l.131-.139a2.827 2.827 0 014.041.046v0a2.837 2.837 0 004.087 0v0a2.829 2.829 0 014.041-.046l.147.147a2.826 2.826 0 004.002 0l1.012-1.082"/><path fill="#92A2B1" d="M108.932 159.946l30.441.093v2.11l-30.441-.093v-2.11z"/><path stroke="#92A2B1" stroke-width=".5" d="M353.165 172.784v39.877c0 6.963 5.641 12.61 12.602 12.614h30.858a12.614 12.614 0 0012.609-12.614v-5.411"/><path stroke="#92A2B1" stroke-width=".5" d="M396.71 201.384v-10.652h44.797v23.769H396.71V209.5"/><path fill="#CFD7DF" d="M403.424 204.669l4.52-6.501a1.547 1.547 0 012.55 0l4.427 6.601a1.547 1.547 0 01-1.29 2.404l-8.955-.1a1.547 1.547 0 01-1.252-2.404z"/><rect width="5.571" height="10.025" x="421.133" y="197.604" stroke="#92A2B1" stroke-width=".5" rx=".99"/><rect width="5.571" height="10.025" x="430.505" y="197.604" stroke="#92A2B1" stroke-width=".5" rx=".99"/><rect width="3.616" height="3.432" x="422.106" y="203.022" fill="#92A2B1" rx=".555"/><rect width="3.616" height="3.432" x="431.478" y="203.115" fill="#92A2B1" rx=".555"/><path fill="#EBEFF3" d="M259.84 151.328l11.644 55.042a4.925 4.925 0 01-2.055 5.086c-29.97 20.305-57.375 5.665-65.936 0a4.927 4.927 0 01-2.117-5.071l11.087-54.972a9.514 9.514 0 019.326-7.637h28.726a9.512 9.512 0 019.325 7.552z"/><path stroke="#647A8E" stroke-dasharray=".48" stroke-width=".5" d="M124.632 88.595l6.714 11.177"/><path stroke="#7B8E9F" stroke-dasharray=".48" stroke-width=".5" d="M125.103 86.987l7.162 10.783"/><path stroke="#92A2B1" stroke-width=".5" d="M144.748 96.379c5.639-5.642 8.922-11.505 7.332-13.096-1.591-1.59-7.451 1.693-13.09 7.335-5.64 5.642-8.922 11.505-7.332 13.095 1.59 1.591 7.451-1.693 13.09-7.334z" clip-rule="evenodd"/><path stroke="#92A2B1" stroke-width=".5" d="M134.258 96.665a8.629 8.629 0 008.909-2.234c4.458-4.452 1.854-8.502 1.854-8.502"/><path fill="#D7461F" d="M297.807 76.259h23.434v6.593h-23.434zm0 10.983h14.587v4.104h-14.587z" opacity=".99"/><path fill="#647A8E" d="M297.807 96.472h14.587v3.409h-14.587zm0 9.012h14.587v3.409h-14.587zm10.709 16.449h2.264v2.829h-2.264zm-10.524-8.488h12.076v3.246h-12.076zm-.185 8.178h8.105v3.2h-8.105z"/><path fill="#EBEFF3" d="M329.94 75.973h72.92v5.952h-72.92z"/><rect width="72.92" height="5.952" x="329.94" y="84.847" fill="#fff" stroke="#B2E4D9" stroke-width=".5" rx="1.925"/><rect width="72.92" height="5.952" x="329.94" y="93.72" fill="#fff" stroke="#B2E4D9" stroke-width=".5" rx="1.925"/><rect width="72.92" height="5.952" x="329.94" y="102.594" fill="#EBEFF3" rx="1.925"/><rect width="72.92" height="5.952" x="329.94" y="111.467" fill="#EBEFF3" rx="1.925"/><rect width="72.92" height="5.952" x="329.94" y="120.332" fill="#EBEFF3" rx="1.925"/><path fill="#7B8E9F" d="M466.942 101.728h-72.913a1.876 1.876 0 01-1.877-1.878V55.19a4.721 4.721 0 012.21-3.997l33.663-21.225a1.892 1.892 0 011.947 0l36.506 21.287a4.709 4.709 0 012.318 4.073v44.56a1.877 1.877 0 01-1.854 1.84z" opacity=".49"/><path fill="#fff" d="M471.616 79.9v18.75h-76.698V51.077c0-.98.502-1.89 1.329-2.412l35.54-22.377 38.423 22.415a2.853 2.853 0 011.414 2.458v12.252"/><path stroke="#75B6F5" stroke-width=".5" d="M471.616 79.9v18.75h-76.698V51.077c0-.98.502-1.89 1.329-2.412l35.54-22.377 38.423 22.415a2.853 2.853 0 011.414 2.458v12.252"/><path fill="#75B6F5" d="M395.188 98.582l9.055-8.719 3.091-3.091 5.153-5.156 4.01-4.012a3.802 3.802 0 012.673-1.105h27.112a3.8 3.8 0 012.673 1.105l20.637 20.646"/><path fill="#fff" d="M416.343 71.042l-19.849-19.857 19.849 19.857z"/><path stroke="#75B6F5" stroke-width=".5" d="M416.343 71.042l-19.849-19.857"/><path fill="#fff" d="M469.592 52.444l-19.849 19.857 19.849-19.857z"/><path stroke="#75B6F5" stroke-width=".5" d="M469.592 52.444l-19.849 19.857"/><path fill="#F5F6F7" d="M425.112 83.595a2.31 2.31 0 100-4.62 2.31 2.31 0 000 4.62zm7.695 0a2.31 2.31 0 100-4.62 2.31 2.31 0 000 4.62zm7.688 0a2.31 2.31 0 100-4.62 2.31 2.31 0 000 4.62z"/><g opacity=".99"><path fill="#C0DEFC" d="M416.798 72.518l-11.72-12.691v-22.61a3.09 3.09 0 013.09-3.091h50.761a3.091 3.091 0 013.052 3.092v22.887l-13.134 13.14"/><path stroke="#5CA6F4" stroke-linecap="round" stroke-width=".5" d="M416.798 72.518l-11.72-12.691v-22.61a3.09 3.09 0 013.09-3.091h50.761a3.091 3.091 0 013.052 3.092v22.887l-13.134 13.14"/></g><path stroke="#5CA6F4" stroke-linecap="round" stroke-linejoin="round" stroke-width=".5" d="M411.22 41.26h44.588m-44.588 5.511h44.588m-44.588 5.821h44.588" opacity=".99"/><path stroke="#4D97F1" stroke-linecap="round" stroke-linejoin="round" stroke-width=".5" d="M416.497 77.512a3.77 3.77 0 012.673-1.106h27.112a3.77 3.77 0 012.673 1.106l20.637 20.637m-74.404.341l9.055-8.72 3.091-3.091"/><path fill="#CFD7DF" d="M326.587 219.224h54.524a3.37 3.37 0 013.369 3.37v20.405h-61.261v-20.405a3.369 3.369 0 013.368-3.37z"/><path fill="#92A2B1" d="M323.273 242.991h61.246v5.101h-61.246z"/><path fill="#CFD7DF" d="M323.219 248.193h61.253v23.768h-61.253z"/><path fill="#CFD7DF" d="M323.219 271.652h61.253v28.529h-61.253z"/><path fill="#92A2B1" d="M323.226 295.358h61.246v5.101h-61.246zm.047-26.744h61.246v5.101h-61.246z"/><path stroke="#fff" stroke-width=".5" d="M343.639 232.596h20.42v2.968h-20.42zm18.334 28.591h-18.334v-2.968h20.42v2.968m-2.086 26.002h-18.334v-2.976h20.42v2.976"/><path stroke="#92A2B1" stroke-width=".5" d="M323.466 245.828v49.469m61.037-44.19v49.469m-3.392-81.352a3.362 3.362 0 013.361 3.362v20.406m-61.253-20.406a3.369 3.369 0 013.368-3.362h40.401"/></svg>