<svg xmlns="http://www.w3.org/2000/svg" width="199" height="202" viewBox="0 0 199 202"><g fill="none" fill-rule="evenodd"><path fill="#F1F3F8" d="M109.44 174.22l56.33-56.33a9 9 0 0112.72 12.72l-56.33 56.33a9 9 0 01-12.72-12.72M14.8 128.76l8.71-8.71a9 9 0 1112.72 12.72l-8.71 8.71a9 9 0 11-12.72-12.72"/><path fill="#F1F3F8" d="M113.45 145.29l25.74-25.74a9 9 0 0012.72 12.71L126.16 158a9 9 0 10-12.71-12.72m-11.01-39.21L126.56 82a9 9 0 0012.72 12.72l-24.12 24.12a9 9 0 00-12.72-12.72"/><path fill="#F1F3F8" d="M93.9 139.53l70.37-70.37A9 9 0 01177 81.87l-70.37 70.38a9 9 0 01-12.73-12.72m-69.15 19.08l95.8-95.8a9 9 0 1112.71 12.72l-95.79 95.79a9 9 0 01-12.72-12.71m16.94-63.07L77.23 60A9.009 9.009 0 1190 72.71l-35.6 35.55a9 9 0 01-12.71-12.72m58.8-58.8l.21-.21a9 9 0 0112.72 12.72l-.22.21a9 9 0 01-12.71 0 9 9 0 010-12.72M73.22 159.61l.21-.21a9 9 0 1112.72 12.71l-.21.22a9 9 0 01-12.72 0 9 9 0 010-12.72"/><path fill="#717790" d="M194.44 191.47a4.89 4.89 0 011.84-.26c.621 0 1.24.06 1.85.18a.56.56 0 010 1.09 9.66 9.66 0 01-1.85.18 4.89 4.89 0 01-1.84-.26.49.49 0 010-.93m-168.53.02c6.91-.2 13.82-.23 20.73-.23H171c6.91 0 13.81 0 20.72.2a.58.58 0 010 1.15c-6.91.18-13.81.19-20.72.2H46.64c-6.91 0-13.82 0-20.73-.23a.44.44 0 01-.43-.46.45.45 0 01.43-.43m-4.08-.41c.09-.01.18-.01.27 0h.13a.42.42 0 01.14.06.69.69 0 01.18.95.77.77 0 01-.18.18.42.42 0 01-.14.06h-.13c-.09.01-.18.01-.27 0a.67.67 0 01-.51-.8.65.65 0 01.51-.51m-6.64.24a6.25 6.25 0 011.34-.18c.454-.04.91 0 1.35.12a.56.56 0 01.37.7.59.59 0 01-.37.37c-.44.12-.896.16-1.35.12a6.25 6.25 0 01-1.34-.18.48.48 0 01-.35-.6.46.46 0 01.35-.35m74.53 8.85c2.16-.2 4.31-.23 6.47-.23h6.47l12.94-.08H135c2.16 0 4.32 0 6.47.2a.58.58 0 01.54.62.61.61 0 01-.54.54c-2.15.17-4.31.18-6.47.19h-19.4l-12.94-.07h-6.47c-2.16 0-4.31 0-6.47-.23a.45.45 0 010-.89m-21.29-.08c2.21-.12 4.42-.16 6.63-.18 2.21-.02 4.42 0 6.63.12a.54.54 0 010 1.07c-2.21.14-4.42.15-6.63.12s-4.42-.06-6.63-.18a.47.47 0 01-.46-.5.49.49 0 01.46-.45"/><g fill="#C8D6EC" fill-rule="nonzero"><path d="M188.28 155a2.72 2.72 0 110-5.44 2.72 2.72 0 010 5.44zm0-3.43a.72.72 0 10.72.71.72.72 0 00-.72-.73v.02zM5.36 73.94a1 1 0 01-1-1v-8.5a1 1 0 112 0v8.5a1 1 0 01-1 1z"/><path d="M9.61 69.69h-8.5a1 1 0 110-2h8.5a1 1 0 010 2zm51.07-5.07a2.72 2.72 0 110-5.44 2.72 2.72 0 010 5.44zm0-3.43a.72.72 0 100 1.44.72.72 0 000-1.44zm128.14 40.63a2.72 2.72 0 110-5.44 2.72 2.72 0 010 5.44zm0-3.43a.72.72 0 10.72.71.71.71 0 00-.72-.71zm-95.33-41.9a1.09 1.09 0 01-.5-.13 1 1 0 01-.47-.61l-.83-3.06a1 1 0 01.7-1.23l3.06-.84a1 1 0 011.23.7l.84 3.07a1 1 0 01-.7 1.23l-3.07.83a.75.75 0 01-.26.04zm.39-3.37l.31 1.14 1.13-.26-.32-1.18-1.12.3zm-55.49 64.53a3 3 0 110-6 3 3 0 010 6zm0-4a1 1 0 100 2 1 1 0 000-2z"/></g><path fill="#CED6DE" fill-rule="nonzero" d="M114.38 144.08h-.09c-.63-.11-1.33-.24-2.09-.4a.5.5 0 11.2-.98c.75.16 1.44.29 2.06.39a.502.502 0 01-.08 1v-.01zm-4.14-.84h-.11c-.66-.16-1.35-.32-2.06-.51a.5.5 0 01-.36-.61.51.51 0 01.61-.36c.7.19 1.38.35 2 .5a.5.5 0 01.38.6.51.51 0 01-.46.38zm-4.09-1.06a.3.3 0 01-.13 0c-.67-.19-1.35-.39-2-.61a.5.5 0 01-.32-.63.49.49 0 01.63-.32l2 .6a.5.5 0 01.34.62.49.49 0 01-.52.34zm-4-1.27a.51.51 0 01-.17 0c-.66-.23-1.32-.48-2-.74a.5.5 0 01-.026-.92.5.5 0 01.386-.01c.66.25 1.31.5 2 .72a.51.51 0 01.31.64.5.5 0 01-.51.31h.01zm-3.93-1.53a.45.45 0 01-.2 0c-.65-.27-1.3-.56-1.94-.87a.5.5 0 11.43-.9c.63.3 1.27.58 1.9.85a.509.509 0 01-.19 1v-.08zm-3.81-1.8a.46.46 0 01-.23-.06c-.63-.32-1.25-.67-1.87-1a.51.51 0 01-.18-.69.51.51 0 01.69-.18c.6.35 1.2.69 1.82 1a.5.5 0 01-.23.94v-.01zm-3.64-2.11a.53.53 0 01-.27-.08c-.6-.39-1.19-.79-1.76-1.21a.51.51 0 01-.11-.7.5.5 0 01.7-.11c.56.41 1.13.8 1.71 1.18a.5.5 0 01-.28.92h.01zM87.36 133a.48.48 0 01-.32-.11c-.56-.46-1.1-.94-1.6-1.42a.48.48 0 010-.7.5.5 0 01.71 0c.49.46 1 .92 1.56 1.37a.49.49 0 01.06.7.48.48 0 01-.41.16zm-3.06-2.89a.49.49 0 01-.37-.16c-.49-.54-1-1.09-1.38-1.64a.5.5 0 01.08-.7.49.49 0 01.7.09c.42.53.86 1.06 1.34 1.57a.51.51 0 010 .71.5.5 0 01-.37.11v.02zm-2.58-3.31a.51.51 0 01-.42-.23c-.39-.6-.76-1.22-1.09-1.85a.503.503 0 11.89-.47c.32.6.67 1.2 1 1.78a.49.49 0 01-.15.69.5.5 0 01-.23.06v.02zm-2-3.71a.51.51 0 01-.46-.31c-.27-.66-.51-1.34-.72-2a.51.51 0 01.33-.63.5.5 0 01.62.33c.2.66.44 1.31.7 1.94a.5.5 0 01-.19.58.58.58 0 01-.24.07l-.04.02zm-1.22-4a.51.51 0 01-.49-.4c-.14-.7-.26-1.41-.33-2.12a.49.49 0 01.44-.55.5.5 0 01.55.44c.08.68.18 1.36.32 2a.51.51 0 01-.39.59l-.1.04zm-.47-4.18a.5.5 0 01-.5-.48v-2.15a.51.51 0 01.53-.47.5.5 0 01.47.53v2.06a.49.49 0 01-.49.51h-.01zM122 114a.5.5 0 010-1c.71 0 1.41 0 2.09-.05a.5.5 0 010 1c-.69 0-1.4 0-2.12.05h.03zm-2.11 0c-.69 0-1.4 0-2.12-.07a.5.5 0 010-1l2.09.06a.5.5 0 010 1l.03.01zm6.31-.14a.5.5 0 010-1c.7 0 1.4-.1 2.07-.17a.503.503 0 01.11 1c-.69.07-1.4.13-2.12.18l-.06-.01zm-10.51 0c-.69 0-1.39-.1-2.11-.17a.49.49 0 01-.45-.54.52.52 0 01.54-.45l2.09.17a.5.5 0 010 1l-.07-.01zm-4.2-.38c-.69-.08-1.39-.16-2.1-.26a.49.49 0 01-.43-.56.5.5 0 01.56-.43l2.08.26a.5.5 0 01.44.55.51.51 0 01-.57.38l.02.06zm18.89 0a.5.5 0 01-.398-.798.49.49 0 01.328-.192c.71-.1 1.39-.21 2.06-.33a.51.51 0 01.58.4.5.5 0 01-.4.58c-.68.13-1.38.24-2.1.34h-.07zm-23.06-.55h-.08l-2.08-.34a.49.49 0 01-.41-.57.5.5 0 01.57-.41l2.08.33a.502.502 0 11-.08 1v-.01zm27.2-.2a.503.503 0 01-.11-1c.69-.15 1.36-.32 2-.5a.5.5 0 01.61.35.51.51 0 01-.35.62c-.67.18-1.35.35-2.06.51l-.09.02zm-31.35-.5h-.09c-.69-.13-1.38-.26-2.08-.41a.49.49 0 01-.39-.58.51.51 0 01.59-.4c.7.14 1.38.28 2.06.4a.5.5 0 01.4.58.49.49 0 01-.51.35l.02.06zm35.4-.61a.5.5 0 01-.47-.35.49.49 0 01.32-.63c.67-.22 1.32-.45 1.95-.7a.5.5 0 01.65.29.5.5 0 01-.29.64c-.64.25-1.31.49-2 .72a.45.45 0 01-.18-.03l.02.06zM99 111.34h-.1c-.68-.14-1.37-.3-2.06-.46a.5.5 0 01-.159-.912.49.49 0 01.379-.058l2 .46a.49.49 0 01-.06.97zm-20.72-.66h-.07a.5.5 0 01-.43-.56c.09-.69.2-1.4.34-2.11a.51.51 0 01.91-.184c.074.11.1.245.07.374-.13.7-.24 1.38-.33 2a.5.5 0 01-.47.48h-.02zm16.62-.28h-.12l-2-.51a.51.51 0 01-.36-.61.5.5 0 01.61-.36l2 .51a.51.51 0 01.37.61.5.5 0 01-.48.36h-.02zm47.55-.37a.51.51 0 01-.21-1c.64-.29 1.26-.6 1.85-.92a.5.5 0 01.68.21.49.49 0 01-.21.67c-.61.33-1.24.65-1.91 1a.46.46 0 01-.18.01l-.02.03zm-51.63-.68h-.13l-2-.56a.518.518 0 11.27-1c.68.2 1.36.38 2 .56a.504.504 0 01-.13 1h-.01zm-4-1.15a.36.36 0 01-.14 0l-2-.6a.51.51 0 01-.33-.63.5.5 0 01.62-.33l2 .6a.5.5 0 01.34.62.49.49 0 01-.52.34h.03zm59.38-.16a.5.5 0 01-.27-.92c.59-.37 1.17-.76 1.72-1.16a.501.501 0 01.59.81c-.57.41-1.17.82-1.78 1.2a.48.48 0 01-.29.03l.03.04zM82.77 107h-.16l-2-.65a.49.49 0 01-.32-.63.5.5 0 01.63-.32l2 .65a.506.506 0 01-.15 1V107zm-3.67-.42H79a.51.51 0 01-.36-.61 2.68 2.68 0 00.07-.27h-.07l-2-.68a.503.503 0 01.33-.95l2 .68c.08-.27.16-.54.25-.82a.51.51 0 01.63-.33.5.5 0 01.32.63c-.21.68-.4 1.34-.57 2a.49.49 0 01-.5.32v.03zm70.47-1a.5.5 0 01-.32-.88c.52-.44 1-.91 1.53-1.39a.49.49 0 01.7 0 .5.5 0 010 .71c-.51.49-1 1-1.59 1.44a.48.48 0 01-.32.11v.01zm-74.78-1.28a.47.47 0 01-.17 0l-2-.72a.5.5 0 01-.29-.64.5.5 0 01.64-.3l2 .72a.5.5 0 01.31.64.52.52 0 01-.49.29v.01zm-4-1.45a.47.47 0 01-.17 0l-2-.74a.51.51 0 01-.28-.65.5.5 0 01.64-.29l2 .74a.5.5 0 01.29.65.5.5 0 01-.44.28l-.04.01zm81.74-.21a.54.54 0 01-.33-.12.5.5 0 010-.71c.45-.52.88-1.06 1.29-1.61a.51.51 0 01.7-.1.5.5 0 01.1.7c-.42.57-.87 1.13-1.34 1.67a.52.52 0 01-.38.16l-.04.01zm-72.19-.09a.48.48 0 01-.2 0 .5.5 0 01-.26-.66c.16-.38.45-1 .89-2a.5.5 0 01.67-.22.49.49 0 01.23.66c-.43.87-.71 1.53-.87 1.9a.51.51 0 01-.42.31l-.04.01zm-13.48-1.2a.57.57 0 01-.18 0l-2-.78a.49.49 0 01-.28-.65.5.5 0 01.64-.28l2 .78a.49.49 0 01.28.64.48.48 0 01-.42.28l-.04.01zM63 99.78a.63.63 0 01-.19 0l-1.95-.8a.502.502 0 01.38-.93l2 .8a.49.49 0 01.27.65.48.48 0 01-.51.28zm92.09-.53a.54.54 0 01-.27-.07.5.5 0 01-.15-.69c.36-.59.71-1.19 1-1.79a.5.5 0 01.922.068.49.49 0 01-.032.382c-.33.63-.68 1.26-1.07 1.87a.48.48 0 01-.41.23h.01zm-72.86-.51a.46.46 0 01-.23-.06.49.49 0 01-.2-.68c.3-.57.65-1.19 1-1.85a.5.5 0 01.86.5c-.38.65-.72 1.26-1 1.82a.5.5 0 01-.44.27h.01zm-23.12-.57a.48.48 0 01-.2 0L57 97.31a.502.502 0 01.4-.92l1.93.82a.509.509 0 01-.19 1l-.03-.04zm-3.83-1.74a.49.49 0 01-.3-.1c-.34-.26-.92-.71-1.67-1.34a.49.49 0 01-.06-.7.5.5 0 01.7-.07c.74.62 1.31 1.06 1.64 1.31a.5.5 0 01.09.7.51.51 0 01-.41.2h.01zM157 95.52a.65.65 0 01-.19 0 .52.52 0 01-.27-.66 20.58 20.58 0 00.71-1.94.523.523 0 111 .31c-.22.67-.47 1.35-.74 2a.51.51 0 01-.51.29zm-72.65-.42a.5.5 0 01-.42-.77c.36-.567.75-1.157 1.17-1.77a.5.5 0 01.83.56c-.41.6-.8 1.18-1.16 1.75a.48.48 0 01-.41.23h-.01zM52 93.73a.5.5 0 01-.33-.13c-.49-.43-1-.91-1.57-1.43a.502.502 0 01.69-.73l1.55 1.41a.5.5 0 01-.34.88zm34.73-2.11a.53.53 0 01-.3-.09.51.51 0 01-.11-.7c.41-.56.84-1.12 1.29-1.69a.502.502 0 01.79.62c-.45.56-.87 1.11-1.27 1.66a.51.51 0 01-.38.2h-.02zm71.52-.13h-.09a.5.5 0 01-.4-.58c.07-.37.1-.58.1-.59v-1.43a.49.49 0 01.47-.53.48.48 0 01.53.47v1.5c0 .05 0 .28-.12.71a.49.49 0 01-.47.45h-.02zM49 90.84a.5.5 0 01-.35-.15c-.48-.48-1-1-1.48-1.52a.5.5 0 01.35-.857.49.49 0 01.35.147c.5.533.99 1.033 1.47 1.5a.51.51 0 010 .71.51.51 0 01-.34.17zm40.41-2.52a.5.5 0 01-.41-.82c.45-.53.92-1.07 1.41-1.6a.5.5 0 11.73.68 137.9 137.9 0 00-1.38 1.56.49.49 0 01-.4.18h.05zm-43.31-.55a.5.5 0 01-.37-.16c-.46-.52-.93-1-1.39-1.61a.49.49 0 01.06-.7.51.51 0 01.71.06c.45.55.91 1.07 1.37 1.58a.51.51 0 010 .71.54.54 0 01-.43.12h.05zm112.07-.47a.49.49 0 01-.49-.41 16.3 16.3 0 00-.47-2 .522.522 0 011-.3 20.9 20.9 0 01.5 2.11.5.5 0 01-.41.57l-.13.03zm-65.96-2.09a.5.5 0 01-.36-.85c.49-.5 1-1 1.52-1.48a.5.5 0 01.71 0 .48.48 0 010 .7c-.51.49-1 1-1.49 1.46a.47.47 0 01-.38.17zm-48.86-.67a.5.5 0 01-.4-.19c-.43-.55-.86-1.11-1.28-1.69a.501.501 0 01.81-.59c.41.57.83 1.12 1.26 1.66a.51.51 0 01-.09.71.49.49 0 01-.3.1zm113.54-1.25a.49.49 0 01-.45-.29 19.55 19.55 0 00-.95-1.81.49.49 0 01.16-.68.5.5 0 01.69.16c.372.619.706 1.26 1 1.92a.5.5 0 01-.25.66.52.52 0 01-.2.04zm-61.62-1a.47.47 0 01-.37-.18.49.49 0 010-.7c.52-.46 1.07-.92 1.63-1.36a.49.49 0 01.7.07.51.51 0 01-.08.71c-.55.44-1.08.88-1.6 1.33a.46.46 0 01-.28.17v-.04zm-54.41-1.15a.49.49 0 01-.41-.22c-.4-.59-.78-1.18-1.16-1.79a.51.51 0 01.16-.69.5.5 0 01.69.17c.37.59.75 1.18 1.14 1.75a.5.5 0 01-.14.69.47.47 0 01-.28.09zm113.86-1.44a.5.5 0 01-.4-.19A19.29 19.29 0 00153 78a.5.5 0 010-.71.51.51 0 01.71 0c.5.517.97 1.061 1.41 1.63a.5.5 0 01-.09.7.49.49 0 01-.31.08zm-56.17 0a.5.5 0 01-.29-.9c.56-.42 1.14-.83 1.73-1.23a.5.5 0 01.7.13.51.51 0 01-.14.7c-.58.39-1.14.79-1.7 1.2a.47.47 0 01-.3.09v.01zm-59.9-2.14a.5.5 0 01-.44-.25c-.34-.62-.68-1.24-1-1.88a.5.5 0 01.23-.67.49.49 0 01.67.22c.31.62.64 1.24 1 1.84a.49.49 0 01-.19.68.5.5 0 01-.27.05v.01zm63.35-.23a.5.5 0 01-.43-.24.51.51 0 01.17-.69c.59-.36 1.2-.73 1.83-1.07a.5.5 0 01.68.19.51.51 0 01-.19.68c-.62.34-1.21.69-1.8 1a.5.5 0 01-.26.13zm49.76-.66a.49.49 0 01-.32-.12c-.51-.43-1.06-.86-1.63-1.27a.51.51 0 01-.11-.7.49.49 0 01.7-.11c.59.42 1.16.87 1.69 1.32a.51.51 0 01.05.71.52.52 0 01-.34.17h-.04zm-46.09-1.4a.51.51 0 01-.45-.27.5.5 0 01.23-.67c.62-.32 1.26-.62 1.91-.92a.5.5 0 01.66.25.49.49 0 01-.25.66c-.63.29-1.26.59-1.88.9a.42.42 0 01-.18.05h-.04zm42.68-1.06a.48.48 0 01-.26-.07c-.58-.36-1.19-.7-1.81-1a.5.5 0 01-.22-.67.52.52 0 01.68-.22c.64.33 1.27.69 1.87 1a.51.51 0 01.17.69.52.52 0 01-.39.27h-.04zm-111.59-.42a.51.51 0 01-.46-.3c-.28-.64-.55-1.3-.8-2a.5.5 0 11.93-.35c.25.65.51 1.29.79 1.92a.5.5 0 01-.26.66.45.45 0 01-.2.07zm72.78-.25a.51.51 0 01-.46-.31.5.5 0 01.28-.65c.65-.26 1.31-.51 2-.75a.527.527 0 11.33 1c-.66.23-1.31.47-2 .73a.58.58 0 01-.15-.02zm35.1-1.25a.71.71 0 01-.2 0c-1.11-.48-1.83-.69-1.84-.7a.53.53 0 01-.38-.61.45.45 0 01.54-.37l-.11.48.2-.46a18 18 0 012 .74.49.49 0 01.27.65.51.51 0 01-.48.27zm-31.13-.14a.505.505 0 11-.14-1c.67-.21 1.35-.4 2-.57a.5.5 0 01.63.42.5.5 0 01-.36.6c-.68.18-1.35.36-2 .56a.39.39 0 01-.13-.01zm27.08-1h-.09c-.7-.13-1.38-.25-2.06-.35a.506.506 0 01.15-1l2.09.36a.502.502 0 01-.09 1v-.01zm-23 0a.502.502 0 01-.1-1c.68-.14 1.38-.27 2.08-.39a.5.5 0 01.495.782.49.49 0 01-.325.198c-.69.12-1.38.25-2 .39l-.15.02zm18.84-.62h-.06c-.7-.09-1.4-.17-2.08-.23a.502.502 0 01.09-1c.7.07 1.4.14 2.11.23a.5.5 0 11-.06 1zm-14.69-.07a.501.501 0 11-.07-1c.7-.09 1.4-.16 2.12-.22a.51.51 0 01.54.45.5.5 0 01-.46.54c-.7.06-1.39.14-2.07.22l-.06.01zm10.5-.32l-2.12-.14a.5.5 0 110-1l2.12.09a.5.5 0 110 1v.05zm-6.31 0a.49.49 0 01-.5-.47.5.5 0 01.47-.53c.667 0 1.377-.02 2.13-.06a.5.5 0 110 1c-.71 0-1.4 0-2.09.06h-.01zm-90.65-.19a.5.5 0 01-.48-.35c-.21-.68-.41-1.36-.58-2.05a.51.51 0 01.37-.61.49.49 0 01.6.37c.17.67.36 1.33.56 2a.5.5 0 01-.32.63l-.15.01zm-1-4.08a.49.49 0 01-.49-.41c-.13-.7-.23-1.41-.31-2.12a.51.51 0 01.45-.55.5.5 0 01.55.44c.07.69.17 1.37.29 2a.5.5 0 01-.4.58l-.09.06zm-.45-4.18a.5.5 0 01-.5-.48v-2.18a.52.52 0 01.52-.48.51.51 0 01.48.52v2.07a.5.5 0 01-.48.52l-.02.03zM34 57.4h-.06a.52.52 0 01-.44-.56c.09-.71.2-1.42.34-2.11a.49.49 0 01.58-.4.51.51 0 01.4.59c-.14.67-.24 1.35-.33 2a.5.5 0 01-.49.48zm.81-4.12h-.13a.49.49 0 01-.35-.62c.19-.68.41-1.36.64-2a.527.527 0 111 .33c-.24.65-.44 1.31-.63 2a.5.5 0 01-.53.29zm1.41-4a.5.5 0 01-.46-.7c.28-.667.59-1.307.93-1.92a.49.49 0 01.67-.22.5.5 0 01.21.68c-.32.62-.62 1.25-.89 1.86a.49.49 0 01-.46.34v-.04zm1.94-3.73a.48.48 0 01-.26-.07.5.5 0 01-.17-.68c.36-.6.74-1.2 1.15-1.8a.51.51 0 01.7-.13.52.52 0 01.13.7c-.4.58-.77 1.16-1.12 1.74a.5.5 0 01-.43.28v-.04zm2.37-3.47a.49.49 0 01-.4-.8c.42-.55.86-1.11 1.33-1.66a.5.5 0 01.77.64 58.3 58.3 0 00-1.31 1.62.47.47 0 01-.39.24v-.04zm2.71-3.21a.48.48 0 01-.34-.14.48.48 0 010-.7c.473-.507.963-1.017 1.47-1.53a.5.5 0 01.71 0 .51.51 0 010 .71c-.51.5-1 1-1.45 1.5a.52.52 0 01-.39.2v-.04zm3-3a.54.54 0 01-.37-.16.51.51 0 010-.71 87.883 87.883 0 011.59-1.41.5.5 0 01.65.75c-.54.47-1.06.93-1.56 1.39a.49.49 0 01-.34.21l.03-.07zm3.19-2.75A.51.51 0 0149 33a.49.49 0 01.07-.7c.54-.44 1.1-.87 1.67-1.31a.51.51 0 01.7.1.5.5 0 01-.09.7c-.573.433-1.123.863-1.65 1.29a.51.51 0 01-.3.11l.03-.07zm3.35-2.55a.51.51 0 01-.41-.2.51.51 0 01.11-.7c.57-.41 1.15-.81 1.74-1.21a.5.5 0 01.56.82c-.58.4-1.16.8-1.71 1.2a.52.52 0 01-.32.16l.03-.07zm3.48-2.36a.48.48 0 01-.42-.23.5.5 0 01.14-.69c.59-.38 1.18-.76 1.79-1.13a.5.5 0 11.53.85c-.61.37-1.2.74-1.77 1.12a.56.56 0 01-.3.15l.03-.07zM59.84 26a.5.5 0 01-.26-.93c.6-.35 1.21-.71 1.84-1.06a.5.5 0 01.68.2.51.51 0 01-.19.68c-.62.34-1.23.69-1.82 1a.47.47 0 01-.28.18l.03-.07zm3.63-2a.5.5 0 01-.23-.94c.61-.33 1.23-.66 1.86-1a.5.5 0 11.46.88l-1.85 1a.5.5 0 01-.24.06zm3.74-1.93a.52.52 0 01-.45-.28.5.5 0 01.23-.67l1.89-.93a.5.5 0 01.67.23.51.51 0 01-.23.67l-1.89.91a.46.46 0 01-.22.07zM71 20.24a.5.5 0 01-.21-.95l1.92-.88a.5.5 0 01.66.25.49.49 0 01-.25.66l-1.91.87a.41.41 0 01-.21.05zm3.84-1.72a.51.51 0 11-.2-1l1.94-.83a.52.52 0 01.66.27.49.49 0 01-.27.65l-1.97.87a.45.45 0 01-.16.04zm3.88-1.63a.51.51 0 01-.46-.31.5.5 0 01.27-.65l2-.79a.51.51 0 01.65.28.5.5 0 01-.28.65l-2 .78a.41.41 0 01-.18.04zm3.92-1.55a.51.51 0 01-.47-.32.5.5 0 01.29-.64l2-.75a.52.52 0 01.65.3.5.5 0 01-.3.64l-2 .74a.57.57 0 01-.17.03zm3.94-1.46a.52.52 0 01-.47-.33.5.5 0 01.3-.64l2-.71a.5.5 0 11.33.94l-2 .71a.47.47 0 01-.16.03zm4-1.4a.5.5 0 01-.17-.97l2-.68a.5.5 0 01.63.32.49.49 0 01-.31.63l-2 .67-.15.03zm4-1.33a.5.5 0 01-.48-.35.51.51 0 01.32-.63l2-.64a.5.5 0 01.596.71.49.49 0 01-.296.24l-2 .64a.4.4 0 01-.17.03h.03zm4-1.27a.51.51 0 01-.48-.35.51.51 0 01.33-.63l2-.61a.49.49 0 01.62.33.5.5 0 01-.33.62l-2 .62-.14.02zm4-1.22a.505.505 0 11-.14-1l2-.58a.49.49 0 01.62.34.5.5 0 01-.34.62l-2 .58a.32.32 0 01-.13.04h-.01zm4-1.16a.505.505 0 11-.14-1l2-.56a.49.49 0 01.62.35.5.5 0 01-.35.61l-2 .56a.3.3 0 01-.07.04h-.06zm4.06-1.11a.504.504 0 01-.13-1l1.8-.48a.515.515 0 01.25 1l-1.79.48h-.13z"/><path fill="#DAE1E7" d="M73.48 122.55H71.5v-2h-1.33v2h-1.98v1.33h1.98v2.01h1.33v-2.01h1.98z"/><g fill-rule="nonzero" transform="translate(111)"><circle cx="3.81" cy="4.29" r="3.29" fill="#FFF"/><path fill="#CED6DE" d="M3.81 8.08a3.79 3.79 0 110-7.58 3.79 3.79 0 010 7.58zm0-6.58a2.79 2.79 0 100 5.58 2.79 2.79 0 000-5.58z"/></g><path fill="#A6E0D1" fill-rule="nonzero" d="M160.98 166.79H81.61L65 151.95V38h95.98z"/><path fill="#717790" fill-rule="nonzero" d="M160.49 167.44H81.12a.997.997 0 01-.67-.26l-16.61-14.83a1 1 0 01-.33-.75V37.65a1 1 0 011-1h96a1 1 0 011 1v128.79a1 1 0 01-1.02 1zm-79-2h78V38.65h-94v112.51l16 14.28z"/><path fill="#FFF" fill-rule="nonzero" d="M81.99 165.65l1-18.27-17.61 3.44"/><path fill="#717790" fill-rule="nonzero" d="M82 166.65a1 1 0 01-1-1.05l.93-17-16.36 3.2a1.018 1.018 0 11-.38-2l17.61-3.4a1 1 0 011.19 1.04l-1 18.27a1 1 0 01-.99.94z"/><path fill="#FFF" fill-rule="nonzero" stroke="#717790" stroke-width="2" d="M111.734 101.965a19.49 19.49 0 10-18.73-19.49c-.206 10.553 8.177 19.277 18.73 19.49"/><path fill="#717790" fill-rule="nonzero" d="M104.848 63.48a20.49 20.49 0 117.238 39.496l-.373-.01C100.725 102.742 91.971 93.75 92 82.82l.004-.346a20.49 20.49 0 0112.844-18.995zm20.977 6.199a18.49 18.49 0 00-31.817 12.439l-.004.377c-.194 9.89 7.574 18.084 17.417 18.46l.333.01-.02.975.039-.974a18.49 18.49 0 0017.43-10.558l.157-.342a18.49 18.49 0 00-3.535-20.387z"/><path fill="#717790" fill-rule="nonzero" d="M109.81 89.654c-.35 0-.685-.147-.923-.405l-3.553-3.849a1.258 1.258 0 111.849-1.707l2.63 2.85 8.46-9.14a1.258 1.258 0 011.847 1.71l-9.387 10.141a1.26 1.26 0 01-.923.4zm34.31 35.286h-58a1 1 0 110-2h58a1 1 0 110 2zm-8 13h-40a1 1 0 110-2h40a1 1 0 110 2z"/></g></svg>