<svg xmlns="http://www.w3.org/2000/svg" width="150" height="150" viewBox="0 0 150 150" fill="none">
  <path d="M97.8799 129.754C98.2113 129.754 98.4805 130.022 98.4805 130.354C98.4805 130.685 98.2113 130.953 97.8799 130.953H11.71C11.3786 130.953 11.1104 130.685 11.1104 130.354C11.1104 130.022 11.3786 129.754 11.71 129.754H97.8799ZM127.06 129.754C127.391 129.754 127.66 130.022 127.66 130.354C127.66 130.685 127.391 130.953 127.06 130.953H103.48C103.149 130.953 102.88 130.685 102.88 130.354C102.88 130.022 103.149 129.754 103.48 129.754H127.06ZM138.29 129.754C138.621 129.754 138.89 130.022 138.89 130.354C138.89 130.685 138.621 130.953 138.29 130.953H132.9C132.569 130.953 132.3 130.685 132.3 130.354C132.3 130.022 132.569 129.754 132.9 129.754H138.29Z" fill="#A1AEB5"/>
  <path d="M117.128 87.5371C120.442 87.5371 123.128 90.2234 123.128 93.5371V110.481C123.128 113.795 120.442 116.481 117.128 116.481H36.3115C32.9978 116.481 30.3115 113.795 30.3115 110.481V93.5371C30.3115 90.2234 32.9978 87.5371 36.3115 87.5371H117.128ZM117.128 53.5918C120.442 53.5918 123.128 56.2781 123.128 59.5918V76.5371C123.128 79.8507 120.442 82.5371 117.128 82.5371H36.3115C32.9979 82.5371 30.3117 79.8507 30.3115 76.5371V59.5918C30.3115 56.2781 32.9978 53.5918 36.3115 53.5918H117.128ZM117.128 19.6465C120.442 19.6465 123.128 22.3328 123.128 25.6465V42.5918C123.128 45.9054 120.442 48.5918 117.128 48.5918H36.3115C32.9979 48.5918 30.3117 45.9054 30.3115 42.5918V25.6465C30.3115 22.3328 32.9978 19.6465 36.3115 19.6465H117.128Z" fill="white" fill-opacity="0.1"/>
  <path d="M100.694 116.482C93.528 120.239 85.3722 122.365 76.7197 122.365C68.0673 122.365 59.9114 120.239 52.7451 116.482H100.694ZM122.131 45.9033C126.146 53.2548 128.43 61.6884 128.43 70.6553C128.43 78.8521 126.521 86.6029 123.126 93.4893C123.1 90.198 120.425 87.5381 117.128 87.5381H36.3115C33.0141 87.5381 30.3387 90.198 30.3125 93.4893C26.9177 86.603 25.0098 78.852 25.0098 70.6553C25.0098 61.6886 27.2923 53.2547 31.3076 45.9033C32.3819 47.5239 34.2217 48.5928 36.3115 48.5928H117.128C119.218 48.5928 121.057 47.5236 122.131 45.9033ZM36.3115 53.5928C32.9978 53.5928 30.3115 56.2791 30.3115 59.5928V76.5381C30.3117 79.8517 32.9979 82.5381 36.3115 82.5381H117.128C120.442 82.5381 123.128 79.8517 123.128 76.5381V59.5928C123.128 56.2791 120.442 53.5928 117.128 53.5928H36.3115Z" fill="#A9A9A9" fill-opacity="0.25"/>
  <path d="M117.128 86.9375C120.773 86.9375 123.728 89.892 123.728 93.5371V110.482C123.727 114.127 120.773 117.082 117.128 117.082H36.3115C32.6667 117.082 29.7123 114.127 29.7119 110.482V93.5371C29.7119 89.892 32.6664 86.9375 36.3115 86.9375H117.128ZM36.3115 88.1367C33.3292 88.1367 30.9111 90.5548 30.9111 93.5371V110.482C30.9115 113.464 33.3294 115.882 36.3115 115.882H117.128C120.11 115.882 122.528 113.464 122.528 110.482V93.5371C122.528 90.5548 120.11 88.1367 117.128 88.1367H36.3115ZM117.128 52.9922C120.773 52.9922 123.728 55.9467 123.728 59.5918V76.5371C123.727 80.1821 120.773 83.1367 117.128 83.1367H36.3115C32.6665 83.1367 29.712 80.1821 29.7119 76.5371V59.5918C29.7119 55.9467 32.6664 52.9922 36.3115 52.9922H117.128ZM36.3115 54.1914C33.3292 54.1914 30.9111 56.6095 30.9111 59.5918V76.5371C30.9113 79.5193 33.3293 81.9365 36.3115 81.9365H117.128C120.11 81.9365 122.528 79.5193 122.528 76.5371V59.5918C122.528 56.6095 120.11 54.1914 117.128 54.1914H36.3115ZM117.128 19.0469C120.773 19.0469 123.728 22.0014 123.728 25.6465V42.5918C123.727 46.2368 120.773 49.1914 117.128 49.1914H36.3115C32.6665 49.1914 29.712 46.2368 29.7119 42.5918V25.6465C29.7119 22.0014 32.6664 19.0469 36.3115 19.0469H117.128ZM36.3115 20.2461C33.3292 20.2461 30.9111 22.6641 30.9111 25.6465V42.5918C30.9113 45.574 33.3293 47.9912 36.3115 47.9912H117.128C120.11 47.9912 122.528 45.574 122.528 42.5918V25.6465C122.528 22.6641 120.11 20.2461 117.128 20.2461H36.3115Z" fill="#A1AEB5"/>
  <path d="M47.1553 95.5586C50.7182 95.5586 53.6064 98.4469 53.6064 102.01C53.6064 105.573 50.7182 108.461 47.1553 108.461C43.5924 108.461 40.7041 105.573 40.7041 102.01C40.7041 98.4469 43.5924 95.5586 47.1553 95.5586ZM96.2197 104.01C96.7432 104.01 97.168 104.435 97.168 104.958C97.1677 105.481 96.7437 105.905 96.2207 105.905H61.5547C61.0314 105.905 60.6067 105.481 60.6064 104.958C60.6064 104.435 61.0305 104.01 61.5537 104.01H96.2197ZM111.788 98.1143C112.311 98.1145 112.735 98.5392 112.735 99.0625C112.735 99.5855 112.311 100.009 111.788 100.01H61.5537C61.0307 100.009 60.6067 99.5855 60.6064 99.0625C60.6064 98.5392 61.0305 98.1145 61.5537 98.1143H111.788ZM47.1553 61.6143C50.7182 61.6143 53.6064 64.5025 53.6064 68.0654C53.6062 71.6281 50.718 74.5166 47.1553 74.5166C43.5926 74.5166 40.7044 71.6281 40.7041 68.0654C40.7041 64.5025 43.5924 61.6143 47.1553 61.6143ZM96.2197 70.0654C96.7432 70.0654 97.168 70.4893 97.168 71.0127C97.168 71.536 96.7439 71.9607 96.2207 71.9609H61.5547C61.0313 71.9609 60.6064 71.5361 60.6064 71.0127C60.6064 70.4894 61.0305 70.0657 61.5537 70.0654H96.2197ZM111.788 64.1699C112.311 64.1702 112.735 64.5939 112.735 65.1172C112.735 65.6405 112.311 66.0652 111.788 66.0654H61.5537C61.0305 66.0652 60.6064 65.6405 60.6064 65.1172C60.6064 64.5939 61.0305 64.1702 61.5537 64.1699H111.788ZM47.1553 27.668C50.7182 27.668 53.6064 30.5572 53.6064 34.1201C53.6062 37.6828 50.718 40.5713 47.1553 40.5713C43.5926 40.5713 40.7044 37.6828 40.7041 34.1201C40.7041 30.5572 43.5924 27.668 47.1553 27.668ZM96.2197 36.1201C96.7432 36.1201 97.168 36.544 97.168 37.0674C97.168 37.5907 96.7439 38.0154 96.2207 38.0156H61.5547C61.0313 38.0156 60.6064 37.5908 60.6064 37.0674C60.6064 36.5441 61.0305 36.1204 61.5537 36.1201H96.2197ZM111.788 30.2246C112.311 30.2249 112.735 30.6486 112.735 31.1719C112.735 31.6951 112.311 32.1199 111.788 32.1201H61.5537C61.0305 32.1199 60.6064 31.6951 60.6064 31.1719C60.6064 30.6486 61.0305 30.2249 61.5537 30.2246H111.788Z" fill="#C4CBD4"/>
</svg>
