<svg xmlns="http://www.w3.org/2000/svg" width="134" height="102" fill="none" viewBox="0 0 134 102"><g clip-path="url(#clip0_24320_37663)"><path fill="url(#paint0_linear_24320_37663)" d="M58.643 99.32c27.584 0 49.945-22.234 49.945-49.66C108.588 22.233 86.227 0 58.643 0 31.058 0 8.697 22.233 8.697 49.66c0 27.426 22.361 49.66 49.946 49.66z"/><path fill="#fff" d="M75.532 26.695a3.129 3.129 0 00-3.13 3.129v123.021h126.151V26.695H75.532zm122.651 7.842h-7.533v-7.533h7.533v7.533zm-62.551 47.175V74.18h7.534v7.533h-7.534zm7.534.37v7.534h-7.534v-7.533h7.534zm-7.842-.37h-7.534V74.18h7.534v7.533zm0 .37v7.534h-7.534v-7.533h7.534zm-7.904 7.534h-7.533v-7.533h7.533v7.533zm0 .309v7.533h-7.533v-7.533h7.533zm.37 0h7.534v7.533h-7.534v-7.533zm7.534 7.842v7.533h-7.534v-7.533h7.534zm.308 0h7.534v7.533h-7.534v-7.533zm0-.309v-7.533h7.534v7.533h-7.534zm7.842-7.533h7.534v7.533h-7.534v-7.533zm0-.309v-7.533h7.534v7.533h-7.534zm0-7.904V74.18h7.534v7.533h-7.534zm0-7.841v-7.534h7.534v7.534h-7.534zm-.308 0h-7.534v-7.534h7.534v7.534zm-7.842 0h-7.534v-7.534h7.534v7.534zm-7.904 0h-7.533v-7.534h7.533v7.534zm0 .308v7.533h-7.533V74.18h7.533zm-7.842 7.533h-7.533V74.18h7.533v7.533zm0 .37v7.534h-7.533v-7.533h7.533zm0 7.843v7.533h-7.533v-7.533h7.533zm0 7.842v7.533h-7.533v-7.533h7.533zm.309 0h7.533v7.533h-7.533v-7.533zm7.533 7.903v7.534h-7.533v-7.534h7.533zm.37 0h7.534v7.534h-7.534v-7.534zm7.842 0h7.534v7.534h-7.534v-7.534zm7.842 0h7.534v7.534h-7.534v-7.534zm0-.37v-7.533h7.534v7.533h-7.534zm7.904-7.533h7.533v7.533h-7.533v-7.533zm0-.309v-7.533h7.533v7.533h-7.533zm0-7.842v-7.533h7.533v7.533h-7.533zm0-7.904V74.18h7.533v7.533h-7.533zm0-7.841v-7.534h7.533v7.534h-7.533zm0-7.843v-7.533h7.533v7.533h-7.533zm-.37 0h-7.534v-7.533h7.534v7.533zm-7.842 0h-7.534v-7.533h7.534v7.533zm-7.842 0h-7.534v-7.533h7.534v7.533zm-7.904 0h-7.533v-7.533h7.533v7.533zm-7.842 0h-7.533v-7.533h7.533v7.533zm0 .31v7.533h-7.533v-7.534h7.533zm-7.842 7.533h-7.533v-7.534h7.533v7.534zm0 .308v7.533h-7.533V74.18h7.533zm0 7.904v7.533h-7.533v-7.533h7.533zm0 7.842v7.533h-7.533v-7.533h7.533zm0 7.842v7.533h-7.533v-7.533h7.533zm0 7.903v7.534h-7.533v-7.534h7.533zm.309 0h7.533v7.534h-7.533v-7.534zm7.533 7.842v7.533h-7.533v-7.533h7.533zm.309 0h7.533v7.533h-7.533v-7.533zm7.903 0h7.534v7.533h-7.534v-7.533zm7.842 0h7.534v7.533h-7.534v-7.533zm7.842 0h7.534v7.533h-7.534v-7.533zm7.904 0h7.533v7.533h-7.533v-7.533zm0-.308v-7.534h7.533v7.534h-7.533zm7.842-7.534h7.533v7.534h-7.533v-7.534zm0-.37v-7.533h7.533v7.533h-7.533zm0-7.842v-7.533h7.533v7.533h-7.533zm0-7.842v-7.533h7.533v7.533h-7.533zm0-7.904V74.18h7.533v7.533h-7.533zm0-7.841v-7.534h7.533v7.534h-7.533zm0-7.843v-7.533h7.533v7.533h-7.533zm0-7.903v-7.533h7.533v7.533h-7.533zm-.309 0h-7.533v-7.533h7.533v7.533zm-7.903 0h-7.534v-7.533h7.534v7.533zm-7.842 0h-7.534v-7.533h7.534v7.533zm-7.842 0h-7.534v-7.533h7.534v7.533zm-7.904 0h-7.533v-7.533h7.533v7.533zm-7.842 0h-7.533v-7.533h7.533v7.533zm-7.842 0h-7.533v-7.533h7.533v7.533zm0 .37v7.533h-7.533v-7.533h7.533zm-7.904 7.533h-7.533v-7.533h7.533v7.533zm0 .31v7.533h-7.533v-7.534h7.533zm0 7.841v7.533h-7.533V74.18h7.533zm0 7.904v7.533h-7.533v-7.533h7.533zm0 7.842v7.533h-7.533v-7.533h7.533zm0 7.842v7.533h-7.533v-7.533h7.533zm0 7.903v7.534h-7.533v-7.534h7.533zm0 7.842v7.533h-7.533v-7.533h7.533zm.371 0h7.533v7.533h-7.533v-7.533zm7.533 7.842v7.533h-7.533v-7.533h7.533zm.309 0h7.533v7.533h-7.533v-7.533zm7.842 0h7.533v7.533h-7.533v-7.533zm7.903 0h7.534v7.533h-7.534v-7.533zm7.842 0h7.534v7.533h-7.534v-7.533zm7.842 0h7.534v7.533h-7.534v-7.533zm7.904 0h7.533v7.533h-7.533v-7.533zm7.842 0h7.533v7.533h-7.533v-7.533zm0-.309v-7.533h7.533v7.533h-7.533zm7.842-7.533h7.533v7.533h-7.533v-7.533zm0-.308v-7.534h7.533v7.534h-7.533zm0-7.904v-7.533h7.533v7.533h-7.533zm0-7.842v-7.533h7.533v7.533h-7.533zm0-7.842v-7.533h7.533v7.533h-7.533zm0-7.904V74.18h7.533v7.533h-7.533zm0-7.841v-7.534h7.533v7.534h-7.533zm0-7.843v-7.533h7.533v7.533h-7.533zm0-7.903v-7.533h7.533v7.533h-7.533zm0-7.842V42.75h7.533v7.533h-7.533zm-.309 0h-7.533V42.75h7.533v7.533zm-7.842 0h-7.533V42.75h7.533v7.533zm-7.903 0h-7.534V42.75h7.534v7.533zm-7.842 0h-7.534V42.75h7.534v7.533zm-7.842 0h-7.534V42.75h7.534v7.533zm-7.904 0h-7.533V42.75h7.533v7.533zm-7.842 0h-7.533V42.75h7.533v7.533zm-7.842 0h-7.533V42.75h7.533v7.533zm-7.904 0h-7.533V42.75h7.533v7.533zm0 .309v7.533h-7.533v-7.533h7.533zm-7.842 7.533h-7.533v-7.533h7.533v7.533zm0 .37v7.533h-7.533v-7.533h7.533zm0 7.842v7.534h-7.533v-7.534h7.533zm0 7.842v7.533h-7.533V74.18h7.533zm0 7.904v7.533h-7.533v-7.533h7.533zm0 7.842v7.533h-7.533v-7.533h7.533zm0 7.842v7.533h-7.533v-7.533h7.533zm0 7.903v7.534h-7.533v-7.534h7.533zm0 7.842v7.533h-7.533v-7.533h7.533zm0 7.842v7.533h-7.533v-7.533h7.533zm.31 0h7.532v7.533h-7.533v-7.533zm7.532 7.904v7.533h-7.533v-7.533h7.533zm.371 0h7.533v7.533h-7.533v-7.533zm7.842 0h7.533v7.533h-7.533v-7.533zm7.842 0h7.533v7.533h-7.533v-7.533zm7.903 0h7.534v7.533h-7.534v-7.533zm7.842 0h7.534v7.533h-7.534v-7.533zm7.842 0h7.534v7.533h-7.534v-7.533zm7.904 0h7.533v7.533h-7.533v-7.533zm7.842 0h7.533v7.533h-7.533v-7.533zm7.842 0h7.533v7.533h-7.533v-7.533zm0-.371v-7.533h7.533v7.533h-7.533zm7.904-7.533h7.533v7.533h-7.533v-7.533zm0-.309v-7.533h7.533v7.533h-7.533zm0-7.841v-7.534h7.533v7.534h-7.533zm0-7.904v-7.533h7.533v7.533h-7.533zm0-7.842v-7.533h7.533v7.533h-7.533zm0-7.842v-7.533h7.533v7.533h-7.533zm0-7.904V74.18h7.533v7.533h-7.533zm0-7.841v-7.534h7.533v7.534h-7.533zm0-7.843v-7.533h7.533v7.533h-7.533zm0-7.903v-7.533h7.533v7.533h-7.533zm0-7.842V42.75h7.533v7.533h-7.533zm0-7.842v-7.533h7.533v7.533h-7.533zm-.371 0h-7.533v-7.533h7.533v7.533zm-7.842 0h-7.533v-7.533h7.533v7.533zm-7.842 0h-7.533v-7.533h7.533v7.533zm-7.903 0h-7.534v-7.533h7.534v7.533zm-7.842 0h-7.534v-7.533h7.534v7.533zm-7.842 0h-7.534v-7.533h7.534v7.533zm-7.904 0h-7.533v-7.533h7.533v7.533zm-7.842 0h-7.533v-7.533h7.533v7.533zm-7.842 0h-7.533v-7.533h7.533v7.533zm-7.904 0h-7.533v-7.533h7.533v7.533zm-7.842 0h-7.533v-7.533h7.533v7.533zm0 .309v7.533h-7.533V42.75h7.533zm-7.841 7.533h-7.534V42.75h7.534v7.533zm0 .309v7.533h-7.534v-7.533h7.534zm0 7.903v7.533h-7.534v-7.533h7.534zm0 7.842v7.534h-7.534v-7.534h7.534zm0 7.842v7.533h-7.534V74.18h7.534zm0 7.904v7.533h-7.534v-7.533h7.534zm0 7.842v7.533h-7.534v-7.533h7.534zm0 7.842v7.533h-7.534v-7.533h7.534zm0 7.903v7.534h-7.534v-7.534h7.534zm0 7.842v7.533h-7.534v-7.533h7.534zm0 7.842v7.533h-7.534v-7.533h7.534zm0 7.904v7.533h-7.534v-7.533h7.534zm.308 0h7.533v7.533h-7.533v-7.533zm7.533 7.842v7.533h-7.533V137.1h7.533zm.31 0h7.532v7.533h-7.533V137.1zm7.903 0h7.533v7.533h-7.533V137.1zm7.842 0h7.533v7.533h-7.533V137.1zm7.842 0h7.533v7.533h-7.533V137.1zm7.903 0h7.534v7.533h-7.534V137.1zm7.842 0h7.534v7.533h-7.534V137.1zm7.842 0h7.534v7.533h-7.534V137.1zm7.904 0h7.533v7.533h-7.533V137.1zm7.842 0h7.533v7.533h-7.533V137.1zm7.842 0h7.533v7.533h-7.533V137.1zm7.904 0h7.533v7.533h-7.533V137.1zm0-.309v-7.533h7.533v7.533h-7.533zm7.842-7.533h7.533v7.533h-7.533v-7.533zm0-.371v-7.533h7.533v7.533h-7.533zm0-7.842v-7.533h7.533v7.533h-7.533zm0-7.841v-7.534h7.533v7.534h-7.533zm0-7.904v-7.533h7.533v7.533h-7.533zm0-7.842v-7.533h7.533v7.533h-7.533zm0-7.842v-7.533h7.533v7.533h-7.533zm0-7.904V74.18h7.533v7.533h-7.533zm0-7.841v-7.534h7.533v7.534h-7.533zm0-7.843v-7.533h7.533v7.533h-7.533zm0-7.903v-7.533h7.533v7.533h-7.533zm0-7.842V42.75h7.533v7.533h-7.533zm0-7.842v-7.533h7.533v7.533h-7.533zm0-7.904v-7.533h7.533v7.533h-7.533zm-.309 0h-7.533v-7.533h7.533v7.533zm-7.904 0h-7.533v-7.533h7.533v7.533zm-7.842 0h-7.533v-7.533h7.533v7.533zm-7.842 0h-7.533v-7.533h7.533v7.533zm-7.903 0h-7.534v-7.533h7.534v7.533zm-7.842 0h-7.534v-7.533h7.534v7.533zm-7.842 0h-7.534v-7.533h7.534v7.533zm-7.904 0h-7.533v-7.533h7.533v7.533zm-7.842 0h-7.533v-7.533h7.533v7.533zm-7.842 0h-7.533v-7.533h7.533v7.533zm-7.904 0h-7.533v-7.533h7.533v7.533zm-7.842 0h-7.533v-7.533h7.533v7.533zm-7.841 0h-7.534v-7.533h7.534v7.533zm0 .37v7.534h-7.534v-7.533h7.534zm-7.904 7.534h-7.533v-7.533h7.533v7.533zm0 .309v7.533h-7.533V42.75h7.533zm0 7.842v7.533h-7.533v-7.533h7.533zm0 7.903v7.533h-7.533v-7.533h7.533zm0 7.842v7.534h-7.533v-7.534h7.533zm0 7.842v7.533h-7.533V74.18h7.533zm0 7.904v7.533h-7.533v-7.533h7.533zm0 7.842v7.533h-7.533v-7.533h7.533zm0 7.842v7.533h-7.533v-7.533h7.533zm0 7.903v7.534h-7.533v-7.534h7.533zm0 7.842v7.533h-7.533v-7.533h7.533zm0 7.842v7.533h-7.533v-7.533h7.533zm0 7.904v7.533h-7.533v-7.533h7.533zm0 7.842v7.533h-7.533V137.1h7.533zm.37 0h7.534v7.533h-7.534V137.1zm7.534 7.842v7.533h-7.534v-7.533h7.534zm.308 0h7.533v7.533h-7.533v-7.533zm7.842 0h7.533v7.533h-7.533v-7.533zm7.904 0h7.533v7.533h-7.533v-7.533zm7.842 0h7.533v7.533h-7.533v-7.533zm7.842 0h7.533v7.533h-7.533v-7.533zm7.903 0h7.534v7.533h-7.534v-7.533zm7.842 0h7.534v7.533h-7.534v-7.533zm7.842 0h7.534v7.533h-7.534v-7.533zm7.904 0h7.533v7.533h-7.533v-7.533zm7.842 0h7.533v7.533h-7.533v-7.533zm7.842 0h7.533v7.533h-7.533v-7.533zm7.904 0h7.533v7.533h-7.533v-7.533zm7.842 0h7.533v7.533h-7.533v-7.533zm0-.309V137.1h7.533v7.533h-7.533zm7.842-7.533h7.533v7.533h-7.533V137.1zm0-.309v-7.533h7.533v7.533h-7.533zm0-7.904v-7.533h7.533v7.533h-7.533zm0-7.842v-7.533h7.533v7.533h-7.533zm0-7.841v-7.534h7.533v7.534h-7.533zm0-7.904v-7.533h7.533v7.533h-7.533zm0-7.842v-7.533h7.533v7.533h-7.533zm0-7.842v-7.533h7.533v7.533h-7.533zm0-7.904V74.18h7.533v7.533h-7.533zm0-7.841v-7.534h7.533v7.534h-7.533zm0-7.843v-7.533h7.533v7.533h-7.533zm0-7.903v-7.533h7.533v7.533h-7.533zm0-7.842V42.75h7.533v7.533h-7.533zm0-7.842v-7.533h7.533v7.533h-7.533zM80.245 27.004v7.533h-7.533v-4.404c0-1.728 1.4-3.129 3.128-3.129h4.405zm-7.533 117.938h7.533v7.533h-7.533v-7.533zm117.938 7.533v-7.533h7.533v7.533h-7.533z"/><g filter="url(#filter0_f_24320_37663)"><path fill="#000" fill-opacity=".37" d="M55.486 86.501c26.434 0 47.864-.113 47.864-.253s-21.43-.254-47.864-.254c-26.435 0-47.864.114-47.864.254s21.43.253 47.864.253z"/></g><path fill="#010101" d="M107.232 18.848h-93.03a2.375 2.375 0 00-2.375 2.374v58.15a2.375 2.375 0 002.375 2.375h93.03a2.374 2.374 0 002.374-2.375v-58.15a2.374 2.374 0 00-2.374-2.374z"/><g filter="url(#filter1_iii_24320_37663)"><path fill="#4392F4" d="M106.769 18.68h-91.96c-1.785 0-3.231 1.457-3.231 3.254v57.651c0 1.797 1.446 3.253 3.23 3.253h91.961c1.785 0 3.231-1.456 3.231-3.253V21.934c0-1.797-1.446-3.253-3.231-3.253z"/></g><g filter="url(#filter2_ii_24320_37663)"><path fill="#EAEAEA" d="M16.775 24.314a1.164 1.164 0 100-2.329 1.164 1.164 0 000 2.33z"/></g><g filter="url(#filter3_ii_24320_37663)"><path fill="#EAEAEA" d="M24.686 24.314a1.164 1.164 0 100-2.328 1.164 1.164 0 000 2.328z"/></g><g filter="url(#filter4_ii_24320_37663)"><path fill="#EAEAEA" d="M20.73 24.314a1.165 1.165 0 10.001-2.329 1.165 1.165 0 000 2.33z"/></g><path fill="#231F20" d="M101.857 27.203h-82.19a2.7 2.7 0 00-2.7 2.7v.212a2.7 2.7 0 002.7 2.701h82.19a2.7 2.7 0 002.701-2.7v-.212a2.7 2.7 0 00-2.701-2.7z" opacity=".2"/><g filter="url(#filter5_ii_24320_37663)"><path fill="url(#paint1_linear_24320_37663)" d="M102.365 27.203H19.977a2.601 2.601 0 100 5.201h82.388a2.601 2.601 0 000-5.2z"/></g><path fill="#231F20" d="M36.044 29.16h-13.03a.816.816 0 100 1.631h13.03a.816.816 0 100-1.63z" opacity=".4"/><path fill="#D7D7D7" d="M36.1 28.99H23.082a.816.816 0 100 1.631H36.1a.816.816 0 100-1.63z"/><path fill="#002880" fill-opacity=".32" d="M102.06 38.75H20.069c-.787 0-1.425.638-1.425 1.425v36.87c0 .786.638 1.424 1.425 1.424h81.991c.787 0 1.425-.638 1.425-1.424v-36.87c0-.787-.638-1.425-1.425-1.425z"/><g filter="url(#filter6_ii_24320_37663)"><path fill="url(#paint2_linear_24320_37663)" d="M102.06 38.065H20.069c-.787 0-1.425.637-1.425 1.424v36.87c0 .787.638 1.425 1.425 1.425h81.991c.787 0 1.425-.638 1.425-1.425v-36.87c0-.787-.638-1.424-1.425-1.424z"/></g><g filter="url(#filter7_ii_24320_37663)"><path fill="url(#paint3_linear_24320_37663)" d="M59.085 42.44H23.298c-.787 0-1.425.637-1.425 1.424v29.528c0 .787.638 1.425 1.425 1.425h35.787c.786 0 1.424-.638 1.424-1.425V43.864c0-.787-.638-1.424-1.424-1.424z"/></g><g filter="url(#filter8_ii_24320_37663)"><path fill="url(#paint4_linear_24320_37663)" d="M98.905 42.44H63.118c-.787 0-1.425.637-1.425 1.424v29.528c0 .787.638 1.425 1.425 1.425h35.787c.787 0 1.425-.638 1.425-1.425V43.864c0-.787-.638-1.424-1.425-1.424z"/></g><path fill="#CFD7DF" d="M95.43 45.81H66.712c-.787 0-1.424.638-1.424 1.425v22.75c0 .787.637 1.424 1.424 1.424H95.43c.787 0 1.425-.637 1.425-1.424v-22.75c0-.787-.638-1.425-1.425-1.425z"/><path fill="#92A2B1" d="M82.033 57.649v-3.573a.962.962 0 10-1.923 0v3.573h-3.63a.905.905 0 100 1.809h3.63v3.687a.962.962 0 101.923 0v-3.687h3.63a.905.905 0 100-1.81h-3.63z"/><g filter="url(#filter9_dii_24320_37663)"><path fill="#08C7FB" fill-rule="evenodd" d="M41.484 67.552c6.183 0 11.194-5.012 11.194-11.194 0-6.182-5.011-11.194-11.194-11.194-6.182 0-11.194 5.012-11.194 11.194 0 6.182 5.012 11.194 11.194 11.194zm0-2.835a8.36 8.36 0 100-16.72 8.36 8.36 0 000 16.72z" clip-rule="evenodd"/></g><g filter="url(#filter10_ii_24320_37663)"><path fill="url(#paint5_linear_24320_37663)" d="M36.916 47.686c.36.7 1.22.96 1.97.717a8.353 8.353 0 012.579-.405c1.794 0 3.456.565 4.817 1.527.652.46 1.566.46 2.113-.121.525-.558.514-1.44-.091-1.909a11.145 11.145 0 00-6.84-2.33 11.17 11.17 0 00-3.909.7c-.728.272-.994 1.13-.64 1.82z"/></g><g filter="url(#filter11_d_24320_37663)"><path fill="#3E3E3E" d="M47.347 69.62h-12.28a.72.72 0 000 1.44h12.28a.72.72 0 100-1.44z"/></g><g filter="url(#filter12_ii_24320_37663)"><path fill="#E0E0E0" d="M47.29 69.32h-12.2a.87.87 0 000 1.74h12.2a.87.87 0 100-1.74z"/></g><g filter="url(#filter13_i_24320_37663)"><path fill="url(#paint6_linear_24320_37663)" d="M9.779 72.445c-.031-.008-.064-.013-.087-.035-.477-.456.935-6.666 1.07-7.13.682-2.358 1.813-4.652 3.63-6.335 1.288-1.19 4.726-3.521 6.51-2.151 1.503 1.156.095 4.059-.598 5.273-1.243 2.158-3.074 3.907-4.638 5.821-.933 1.145-1.87 2.312-2.803 3.457-.06.079-.533.75-.886 1.186-.227.28-.555.33-.904.242l-1.294-.328z"/></g><g filter="url(#filter14_i_24320_37663)"><path fill="url(#paint7_linear_24320_37663)" d="M11.819 74.333c.763.164 1.442-.484 1.283-1.248-.876-4.204-3.78-15.166-9.931-13.168-5.59 1.835 6.423 12.645 8.164 14.176.14.123.302.2.484.24z"/></g><path fill="#77FFE4" fill-opacity=".2" d="M4.846 62.102s7.193 9.39 7.275 11.376L4.846 62.103zm13.929-3.455s-5.91 7.54-6.553 10.887l6.553-10.888z"/><path fill="url(#paint8_linear_24320_37663)" d="M4.505 72.48a1.47 1.47 0 011.464-1.612h9.969a1.47 1.47 0 011.464 1.612L16.29 84.002a1.47 1.47 0 01-1.464 1.33H7.08a1.47 1.47 0 01-1.464-1.33L4.506 72.48z"/><g filter="url(#filter15_i_24320_37663)"><path fill="url(#paint9_linear_24320_37663)" d="M17.299 70.868H4.609a.735.735 0 00-.736.735v2.016c0 .406.33.735.735.735h12.69a.735.735 0 00.736-.735v-2.016a.735.735 0 00-.735-.735z"/></g><g filter="url(#filter16_iii_24320_37663)"><path fill="#2AC4F3" d="M110.872 55.125a15.353 15.353 0 014.381 12.822c-.077.6.092 1.205.479 1.668l10.513 12.508c.713.85.661 2.105-.124 2.89l-7.105 7.105a2.138 2.138 0 01-2.891.125L103.617 81.73a2.158 2.158 0 00-1.668-.479 15.35 15.35 0 01-12.823-4.38 15.32 15.32 0 01-4.502-10.853c-.002-1.832 2.14-2.824 3.531-1.637l6.38 5.442a2.14 2.14 0 002.903-.115l6.273-6.273c.79-.79.839-2.053.115-2.903l-5.443-6.38c-1.188-1.393-.194-3.533 1.637-3.53a15.33 15.33 0 0110.853 4.502l-.001.001z"/></g><g filter="url(#filter17_iii_24320_37663)"><path stroke="#FF8946" stroke-linecap="round" stroke-linejoin="round" stroke-width="3" d="M125.801 62.22c-.368-6.034-3.336-11.803-8.603-15.492a20.073 20.073 0 00-7.759-3.287"/></g><g filter="url(#filter18_iii_24320_37663)"><path stroke="#FF8946" stroke-linecap="round" stroke-linejoin="round" stroke-width="3" d="M119.638 58.752l6.344 5.522 4.487-7.114"/></g><g filter="url(#filter19_iii_24320_37663)"><path stroke="#FF8946" stroke-linecap="round" stroke-linejoin="round" stroke-width="3" d="M78.596 76.85c.368 6.034 3.336 11.803 8.603 15.492a20.077 20.077 0 007.759 3.287"/></g><g filter="url(#filter20_iii_24320_37663)"><path stroke="#FF8946" stroke-linecap="round" stroke-linejoin="round" stroke-width="3" d="M84.76 80.318l-6.345-5.522-4.487 7.114"/></g></g><defs><filter id="filter0_f_24320_37663" width="97.757" height="2.537" x="6.607" y="84.98" color-interpolation-filters="sRGB" filterUnits="userSpaceOnUse"><feFlood flood-opacity="0" result="BackgroundImageFix"/><feBlend in="SourceGraphic" in2="BackgroundImageFix" result="shape"/><feGaussianBlur result="effect1_foregroundBlur_24320_37663" stdDeviation=".507"/></filter><filter id="filter1_iii_24320_37663" width="98.931" height="65.022" x="11.069" y="18.375" color-interpolation-filters="sRGB" filterUnits="userSpaceOnUse"><feFlood flood-opacity="0" result="BackgroundImageFix"/><feBlend in="SourceGraphic" in2="BackgroundImageFix" result="shape"/><feColorMatrix in="SourceAlpha" result="hardAlpha" values="0 0 0 0 0 0 0 0 0 0 0 0 0 0 0 0 0 0 127 0"/><feOffset dy="-.305"/><feGaussianBlur stdDeviation=".305"/><feComposite in2="hardAlpha" k2="-1" k3="1" operator="arithmetic"/><feColorMatrix values="0 0 0 0 0.089132 0 0 0 0 0.328429 0 0 0 0 0.629167 0 0 0 1 0"/><feBlend in2="shape" result="effect1_innerShadow_24320_37663"/><feColorMatrix in="SourceAlpha" result="hardAlpha" values="0 0 0 0 0 0 0 0 0 0 0 0 0 0 0 0 0 0 127 0"/><feOffset dy=".56"/><feGaussianBlur stdDeviation=".28"/><feComposite in2="hardAlpha" k2="-1" k3="1" operator="arithmetic"/><feColorMatrix values="0 0 0 0 0.641667 0 0 0 0 0.8495 0 0 0 0 1 0 0 0 1 0"/><feBlend in2="effect1_innerShadow_24320_37663" result="effect2_innerShadow_24320_37663"/><feColorMatrix in="SourceAlpha" result="hardAlpha" values="0 0 0 0 0 0 0 0 0 0 0 0 0 0 0 0 0 0 127 0"/><feOffset dx="-.509"/><feGaussianBlur stdDeviation=".254"/><feComposite in2="hardAlpha" k2="-1" k3="1" operator="arithmetic"/><feColorMatrix values="0 0 0 0 0 0 0 0 0 0 0 0 0 0 0 0 0 0 0.25 0"/><feBlend in2="effect2_innerShadow_24320_37663" result="effect3_innerShadow_24320_37663"/></filter><filter id="filter2_ii_24320_37663" width="2.482" height="2.482" x="15.509" y="21.884" color-interpolation-filters="sRGB" filterUnits="userSpaceOnUse"><feFlood flood-opacity="0" result="BackgroundImageFix"/><feBlend in="SourceGraphic" in2="BackgroundImageFix" result="shape"/><feColorMatrix in="SourceAlpha" result="hardAlpha" values="0 0 0 0 0 0 0 0 0 0 0 0 0 0 0 0 0 0 127 0"/><feOffset dx=".102" dy=".102"/><feGaussianBlur stdDeviation=".025"/><feComposite in2="hardAlpha" k2="-1" k3="1" operator="arithmetic"/><feColorMatrix values="0 0 0 0 1 0 0 0 0 1 0 0 0 0 1 0 0 0 1 0"/><feBlend in2="shape" result="effect1_innerShadow_24320_37663"/><feColorMatrix in="SourceAlpha" result="hardAlpha" values="0 0 0 0 0 0 0 0 0 0 0 0 0 0 0 0 0 0 127 0"/><feOffset dx="-.102" dy="-.102"/><feGaussianBlur stdDeviation=".051"/><feComposite in2="hardAlpha" k2="-1" k3="1" operator="arithmetic"/><feColorMatrix values="0 0 0 0 0.658333 0 0 0 0 0.658333 0 0 0 0 0.658333 0 0 0 1 0"/><feBlend in2="effect1_innerShadow_24320_37663" result="effect2_innerShadow_24320_37663"/></filter><filter id="filter3_ii_24320_37663" width="2.482" height="2.482" x="23.42" y="21.884" color-interpolation-filters="sRGB" filterUnits="userSpaceOnUse"><feFlood flood-opacity="0" result="BackgroundImageFix"/><feBlend in="SourceGraphic" in2="BackgroundImageFix" result="shape"/><feColorMatrix in="SourceAlpha" result="hardAlpha" values="0 0 0 0 0 0 0 0 0 0 0 0 0 0 0 0 0 0 127 0"/><feOffset dx=".102" dy=".102"/><feGaussianBlur stdDeviation=".025"/><feComposite in2="hardAlpha" k2="-1" k3="1" operator="arithmetic"/><feColorMatrix values="0 0 0 0 1 0 0 0 0 1 0 0 0 0 1 0 0 0 1 0"/><feBlend in2="shape" result="effect1_innerShadow_24320_37663"/><feColorMatrix in="SourceAlpha" result="hardAlpha" values="0 0 0 0 0 0 0 0 0 0 0 0 0 0 0 0 0 0 127 0"/><feOffset dx="-.102" dy="-.102"/><feGaussianBlur stdDeviation=".051"/><feComposite in2="hardAlpha" k2="-1" k3="1" operator="arithmetic"/><feColorMatrix values="0 0 0 0 0.658333 0 0 0 0 0.658333 0 0 0 0 0.658333 0 0 0 1 0"/><feBlend in2="effect1_innerShadow_24320_37663" result="effect2_innerShadow_24320_37663"/></filter><filter id="filter4_ii_24320_37663" width="2.482" height="2.482" x="19.465" y="21.884" color-interpolation-filters="sRGB" filterUnits="userSpaceOnUse"><feFlood flood-opacity="0" result="BackgroundImageFix"/><feBlend in="SourceGraphic" in2="BackgroundImageFix" result="shape"/><feColorMatrix in="SourceAlpha" result="hardAlpha" values="0 0 0 0 0 0 0 0 0 0 0 0 0 0 0 0 0 0 127 0"/><feOffset dx=".102" dy=".102"/><feGaussianBlur stdDeviation=".025"/><feComposite in2="hardAlpha" k2="-1" k3="1" operator="arithmetic"/><feColorMatrix values="0 0 0 0 1 0 0 0 0 1 0 0 0 0 1 0 0 0 1 0"/><feBlend in2="shape" result="effect1_innerShadow_24320_37663"/><feColorMatrix in="SourceAlpha" result="hardAlpha" values="0 0 0 0 0 0 0 0 0 0 0 0 0 0 0 0 0 0 127 0"/><feOffset dx="-.102" dy="-.102"/><feGaussianBlur stdDeviation=".051"/><feComposite in2="hardAlpha" k2="-1" k3="1" operator="arithmetic"/><feColorMatrix values="0 0 0 0 0.658333 0 0 0 0 0.658333 0 0 0 0 0.658333 0 0 0 1 0"/><feBlend in2="effect1_innerShadow_24320_37663" result="effect2_innerShadow_24320_37663"/></filter><filter id="filter5_ii_24320_37663" width="88.161" height="5.819" x="17.28" y="27.108" color-interpolation-filters="sRGB" filterUnits="userSpaceOnUse"><feFlood flood-opacity="0" result="BackgroundImageFix"/><feBlend in="SourceGraphic" in2="BackgroundImageFix" result="shape"/><feColorMatrix in="SourceAlpha" result="hardAlpha" values="0 0 0 0 0 0 0 0 0 0 0 0 0 0 0 0 0 0 127 0"/><feOffset dx=".475" dy=".522"/><feGaussianBlur stdDeviation=".285"/><feComposite in2="hardAlpha" k2="-1" k3="1" operator="arithmetic"/><feColorMatrix values="0 0 0 0 1 0 0 0 0 1 0 0 0 0 1 0 0 0 1 0"/><feBlend in2="shape" result="effect1_innerShadow_24320_37663"/><feColorMatrix in="SourceAlpha" result="hardAlpha" values="0 0 0 0 0 0 0 0 0 0 0 0 0 0 0 0 0 0 127 0"/><feOffset dx="-.475" dy="-.285"/><feGaussianBlur stdDeviation=".047"/><feComposite in2="hardAlpha" k2="-1" k3="1" operator="arithmetic"/><feColorMatrix values="0 0 0 0 0.833333 0 0 0 0 0.833333 0 0 0 0 0.833333 0 0 0 1 0"/><feBlend in2="effect1_innerShadow_24320_37663" result="effect2_innerShadow_24320_37663"/></filter><filter id="filter6_ii_24320_37663" width="85.411" height="40.337" x="18.549" y="37.969" color-interpolation-filters="sRGB" filterUnits="userSpaceOnUse"><feFlood flood-opacity="0" result="BackgroundImageFix"/><feBlend in="SourceGraphic" in2="BackgroundImageFix" result="shape"/><feColorMatrix in="SourceAlpha" result="hardAlpha" values="0 0 0 0 0 0 0 0 0 0 0 0 0 0 0 0 0 0 127 0"/><feOffset dx=".475" dy=".522"/><feGaussianBlur stdDeviation=".285"/><feComposite in2="hardAlpha" k2="-1" k3="1" operator="arithmetic"/><feColorMatrix values="0 0 0 0 1 0 0 0 0 1 0 0 0 0 1 0 0 0 1 0"/><feBlend in2="shape" result="effect1_innerShadow_24320_37663"/><feColorMatrix in="SourceAlpha" result="hardAlpha" values="0 0 0 0 0 0 0 0 0 0 0 0 0 0 0 0 0 0 127 0"/><feOffset dx="-.475" dy="-.285"/><feGaussianBlur stdDeviation=".047"/><feComposite in2="hardAlpha" k2="-1" k3="1" operator="arithmetic"/><feColorMatrix values="0 0 0 0 0.833333 0 0 0 0 0.833333 0 0 0 0 0.833333 0 0 0 1 0"/><feBlend in2="effect1_innerShadow_24320_37663" result="effect2_innerShadow_24320_37663"/></filter><filter id="filter7_ii_24320_37663" width="39.206" height="32.994" x="21.778" y="42.344" color-interpolation-filters="sRGB" filterUnits="userSpaceOnUse"><feFlood flood-opacity="0" result="BackgroundImageFix"/><feBlend in="SourceGraphic" in2="BackgroundImageFix" result="shape"/><feColorMatrix in="SourceAlpha" result="hardAlpha" values="0 0 0 0 0 0 0 0 0 0 0 0 0 0 0 0 0 0 127 0"/><feOffset dx=".475" dy=".522"/><feGaussianBlur stdDeviation=".285"/><feComposite in2="hardAlpha" k2="-1" k3="1" operator="arithmetic"/><feColorMatrix values="0 0 0 0 1 0 0 0 0 1 0 0 0 0 1 0 0 0 1 0"/><feBlend in2="shape" result="effect1_innerShadow_24320_37663"/><feColorMatrix in="SourceAlpha" result="hardAlpha" values="0 0 0 0 0 0 0 0 0 0 0 0 0 0 0 0 0 0 127 0"/><feOffset dx="-.475" dy="-.285"/><feGaussianBlur stdDeviation=".047"/><feComposite in2="hardAlpha" k2="-1" k3="1" operator="arithmetic"/><feColorMatrix values="0 0 0 0 0.833333 0 0 0 0 0.833333 0 0 0 0 0.833333 0 0 0 1 0"/><feBlend in2="effect1_innerShadow_24320_37663" result="effect2_innerShadow_24320_37663"/></filter><filter id="filter8_ii_24320_37663" width="39.206" height="32.994" x="61.598" y="42.344" color-interpolation-filters="sRGB" filterUnits="userSpaceOnUse"><feFlood flood-opacity="0" result="BackgroundImageFix"/><feBlend in="SourceGraphic" in2="BackgroundImageFix" result="shape"/><feColorMatrix in="SourceAlpha" result="hardAlpha" values="0 0 0 0 0 0 0 0 0 0 0 0 0 0 0 0 0 0 127 0"/><feOffset dx=".475" dy=".522"/><feGaussianBlur stdDeviation=".285"/><feComposite in2="hardAlpha" k2="-1" k3="1" operator="arithmetic"/><feColorMatrix values="0 0 0 0 1 0 0 0 0 1 0 0 0 0 1 0 0 0 1 0"/><feBlend in2="shape" result="effect1_innerShadow_24320_37663"/><feColorMatrix in="SourceAlpha" result="hardAlpha" values="0 0 0 0 0 0 0 0 0 0 0 0 0 0 0 0 0 0 127 0"/><feOffset dx="-.475" dy="-.285"/><feGaussianBlur stdDeviation=".047"/><feComposite in2="hardAlpha" k2="-1" k3="1" operator="arithmetic"/><feColorMatrix values="0 0 0 0 0.833333 0 0 0 0 0.833333 0 0 0 0 0.833333 0 0 0 1 0"/><feBlend in2="effect1_innerShadow_24320_37663" result="effect2_innerShadow_24320_37663"/></filter><filter id="filter9_dii_24320_37663" width="23.337" height="23.622" x="29.816" y="44.879" color-interpolation-filters="sRGB" filterUnits="userSpaceOnUse"><feFlood flood-opacity="0" result="BackgroundImageFix"/><feColorMatrix in="SourceAlpha" result="hardAlpha" values="0 0 0 0 0 0 0 0 0 0 0 0 0 0 0 0 0 0 127 0"/><feOffset dy=".475"/><feGaussianBlur stdDeviation=".237"/><feColorMatrix values="0 0 0 0 0 0 0 0 0 0 0 0 0 0 0 0 0 0 0.25 0"/><feBlend in2="BackgroundImageFix" result="effect1_dropShadow_24320_37663"/><feBlend in="SourceGraphic" in2="effect1_dropShadow_24320_37663" result="shape"/><feColorMatrix in="SourceAlpha" result="hardAlpha" values="0 0 0 0 0 0 0 0 0 0 0 0 0 0 0 0 0 0 127 0"/><feOffset dy=".427"/><feGaussianBlur stdDeviation=".166"/><feComposite in2="hardAlpha" k2="-1" k3="1" operator="arithmetic"/><feColorMatrix values="0 0 0 0 0.675 0 0 0 0 0.930453 0 0 0 0 1 0 0 0 1 0"/><feBlend in2="shape" result="effect2_innerShadow_24320_37663"/><feColorMatrix in="SourceAlpha" result="hardAlpha" values="0 0 0 0 0 0 0 0 0 0 0 0 0 0 0 0 0 0 127 0"/><feOffset dx="-.047" dy="-.427"/><feGaussianBlur stdDeviation=".142"/><feComposite in2="hardAlpha" k2="-1" k3="1" operator="arithmetic"/><feColorMatrix values="0 0 0 0 0.0904688 0 0 0 0 0.547235 0 0 0 0 0.804167 0 0 0 1 0"/><feBlend in2="effect2_innerShadow_24320_37663" result="effect3_innerShadow_24320_37663"/></filter><filter id="filter10_ii_24320_37663" width="12.585" height="5.31" x="36.665" y="45.069" color-interpolation-filters="sRGB" filterUnits="userSpaceOnUse"><feFlood flood-opacity="0" result="BackgroundImageFix"/><feBlend in="SourceGraphic" in2="BackgroundImageFix" result="shape"/><feColorMatrix in="SourceAlpha" result="hardAlpha" values="0 0 0 0 0 0 0 0 0 0 0 0 0 0 0 0 0 0 127 0"/><feOffset dx=".475" dy=".522"/><feGaussianBlur stdDeviation=".285"/><feComposite in2="hardAlpha" k2="-1" k3="1" operator="arithmetic"/><feColorMatrix values="0 0 0 0 1 0 0 0 0 1 0 0 0 0 1 0 0 0 1 0"/><feBlend in2="shape" result="effect1_innerShadow_24320_37663"/><feColorMatrix in="SourceAlpha" result="hardAlpha" values="0 0 0 0 0 0 0 0 0 0 0 0 0 0 0 0 0 0 127 0"/><feOffset dx="-.475" dy="-.285"/><feGaussianBlur stdDeviation=".047"/><feComposite in2="hardAlpha" k2="-1" k3="1" operator="arithmetic"/><feColorMatrix values="0 0 0 0 0.833333 0 0 0 0 0.833333 0 0 0 0 0.833333 0 0 0 1 0"/><feBlend in2="effect1_innerShadow_24320_37663" result="effect2_innerShadow_24320_37663"/></filter><filter id="filter11_d_24320_37663" width="14.1" height="1.819" x="34.157" y="69.478" color-interpolation-filters="sRGB" filterUnits="userSpaceOnUse"><feFlood flood-opacity="0" result="BackgroundImageFix"/><feColorMatrix in="SourceAlpha" result="hardAlpha" values="0 0 0 0 0 0 0 0 0 0 0 0 0 0 0 0 0 0 127 0"/><feOffset dy=".047"/><feGaussianBlur stdDeviation=".095"/><feColorMatrix values="0 0 0 0 0 0 0 0 0 0 0 0 0 0 0 0 0 0 0.48 0"/><feBlend in2="BackgroundImageFix" result="effect1_dropShadow_24320_37663"/><feBlend in="SourceGraphic" in2="effect1_dropShadow_24320_37663" result="shape"/></filter><filter id="filter12_ii_24320_37663" width="13.987" height="1.977" x="34.173" y="69.225" color-interpolation-filters="sRGB" filterUnits="userSpaceOnUse"><feFlood flood-opacity="0" result="BackgroundImageFix"/><feBlend in="SourceGraphic" in2="BackgroundImageFix" result="shape"/><feColorMatrix in="SourceAlpha" result="hardAlpha" values="0 0 0 0 0 0 0 0 0 0 0 0 0 0 0 0 0 0 127 0"/><feOffset dy=".237"/><feGaussianBlur stdDeviation=".071"/><feComposite in2="hardAlpha" k2="-1" k3="1" operator="arithmetic"/><feColorMatrix values="0 0 0 0 0.95 0 0 0 0 0.95 0 0 0 0 0.95 0 0 0 1 0"/><feBlend in2="shape" result="effect1_innerShadow_24320_37663"/><feColorMatrix in="SourceAlpha" result="hardAlpha" values="0 0 0 0 0 0 0 0 0 0 0 0 0 0 0 0 0 0 127 0"/><feOffset dx="-.047" dy="-.19"/><feGaussianBlur stdDeviation=".047"/><feComposite in2="hardAlpha" k2="-1" k3="1" operator="arithmetic"/><feColorMatrix values="0 0 0 0 0.741176 0 0 0 0 0.741176 0 0 0 0 0.741176 0 0 0 1 0"/><feBlend in2="effect1_innerShadow_24320_37663" result="effect2_innerShadow_24320_37663"/></filter><filter id="filter13_i_24320_37663" width="12.681" height="16.707" x="9.594" y="56.105" color-interpolation-filters="sRGB" filterUnits="userSpaceOnUse"><feFlood flood-opacity="0" result="BackgroundImageFix"/><feBlend in="SourceGraphic" in2="BackgroundImageFix" result="shape"/><feColorMatrix in="SourceAlpha" result="hardAlpha" values="0 0 0 0 0 0 0 0 0 0 0 0 0 0 0 0 0 0 127 0"/><feOffset dx=".705" dy="-.27"/><feGaussianBlur stdDeviation=".919"/><feComposite in2="hardAlpha" k2="-1" k3="1" operator="arithmetic"/><feColorMatrix values="0 0 0 0 0.113056 0 0 0 0 0.616667 0 0 0 0 0.58645 0 0 0 1 0"/><feBlend in2="shape" result="effect1_innerShadow_24320_37663"/></filter><filter id="filter14_i_24320_37663" width="12.131" height="14.952" x="1.699" y="59.406" color-interpolation-filters="sRGB" filterUnits="userSpaceOnUse"><feFlood flood-opacity="0" result="BackgroundImageFix"/><feBlend in="SourceGraphic" in2="BackgroundImageFix" result="shape"/><feColorMatrix in="SourceAlpha" result="hardAlpha" values="0 0 0 0 0 0 0 0 0 0 0 0 0 0 0 0 0 0 127 0"/><feOffset dx=".705" dy="-.27"/><feGaussianBlur stdDeviation=".919"/><feComposite in2="hardAlpha" k2="-1" k3="1" operator="arithmetic"/><feColorMatrix values="0 0 0 0 0.0996528 0 0 0 0 0.683333 0 0 0 0 0.555806 0 0 0 1 0"/><feBlend in2="shape" result="effect1_innerShadow_24320_37663"/></filter><filter id="filter15_i_24320_37663" width="14.455" height="3.707" x="3.873" y="70.648" color-interpolation-filters="sRGB" filterUnits="userSpaceOnUse"><feFlood flood-opacity="0" result="BackgroundImageFix"/><feBlend in="SourceGraphic" in2="BackgroundImageFix" result="shape"/><feColorMatrix in="SourceAlpha" result="hardAlpha" values="0 0 0 0 0 0 0 0 0 0 0 0 0 0 0 0 0 0 127 0"/><feOffset dx=".294" dy="-.221"/><feGaussianBlur stdDeviation=".257"/><feComposite in2="hardAlpha" k2="-1" k3="1" operator="arithmetic"/><feColorMatrix values="0 0 0 0 0.833333 0 0 0 0 0.604343 0 0 0 0 0.0555555 0 0 0 1 0"/><feBlend in2="shape" result="effect1_innerShadow_24320_37663"/></filter><filter id="filter16_iii_24320_37663" width="42.123" height="45.125" x="84.624" y="49.621" color-interpolation-filters="sRGB" filterUnits="userSpaceOnUse"><feFlood flood-opacity="0" result="BackgroundImageFix"/><feBlend in="SourceGraphic" in2="BackgroundImageFix" result="shape"/><feColorMatrix in="SourceAlpha" result="hardAlpha" values="0 0 0 0 0 0 0 0 0 0 0 0 0 0 0 0 0 0 127 0"/><feOffset dy="3"/><feGaussianBlur stdDeviation="1"/><feComposite in2="hardAlpha" k2="-1" k3="1" operator="arithmetic"/><feColorMatrix values="0 0 0 0 0 0 0 0 0 0 0 0 0 0 0 0 0 0 0.25 0"/><feBlend in2="shape" result="effect1_innerShadow_24320_37663"/><feColorMatrix in="SourceAlpha" result="hardAlpha" values="0 0 0 0 0 0 0 0 0 0 0 0 0 0 0 0 0 0 127 0"/><feOffset dy="2"/><feGaussianBlur stdDeviation="2"/><feComposite in2="hardAlpha" k2="-1" k3="1" operator="arithmetic"/><feColorMatrix values="0 0 0 0 1 0 0 0 0 0.975 0 0 0 0 0.975 0 0 0 0.32 0"/><feBlend in2="effect1_innerShadow_24320_37663" result="effect2_innerShadow_24320_37663"/><feColorMatrix in="SourceAlpha" result="hardAlpha" values="0 0 0 0 0 0 0 0 0 0 0 0 0 0 0 0 0 0 127 0"/><feOffset dy="-2"/><feGaussianBlur stdDeviation=".5"/><feComposite in2="hardAlpha" k2="-1" k3="1" operator="arithmetic"/><feColorMatrix values="0 0 0 0 0.0597048 0 0 0 0 0.590148 0 0 0 0 0.754167 0 0 0 1 0"/><feBlend in2="effect2_innerShadow_24320_37663" result="effect3_innerShadow_24320_37663"/></filter><filter id="filter17_iii_24320_37663" width="19.457" height="24.059" x="107.844" y="41.661" color-interpolation-filters="sRGB" filterUnits="userSpaceOnUse"><feFlood flood-opacity="0" result="BackgroundImageFix"/><feBlend in="SourceGraphic" in2="BackgroundImageFix" result="shape"/><feColorMatrix in="SourceAlpha" result="hardAlpha" values="0 0 0 0 0 0 0 0 0 0 0 0 0 0 0 0 0 0 127 0"/><feOffset dy="2"/><feGaussianBlur stdDeviation="1"/><feComposite in2="hardAlpha" k2="-1" k3="1" operator="arithmetic"/><feColorMatrix values="0 0 0 0 0 0 0 0 0 0 0 0 0 0 0 0 0 0 0.15 0"/><feBlend in2="shape" result="effect1_innerShadow_24320_37663"/><feColorMatrix in="SourceAlpha" result="hardAlpha" values="0 0 0 0 0 0 0 0 0 0 0 0 0 0 0 0 0 0 127 0"/><feOffset dx="-.094" dy="-.28"/><feGaussianBlur stdDeviation=".64"/><feComposite in2="hardAlpha" k2="-1" k3="1" operator="arithmetic"/><feColorMatrix values="0 0 0 0 0.278431 0 0 0 0 0.345098 0 0 0 0 0.403922 0 0 0 1 0"/><feBlend in2="effect1_innerShadow_24320_37663" result="effect2_innerShadow_24320_37663"/><feColorMatrix in="SourceAlpha" result="hardAlpha" values="0 0 0 0 0 0 0 0 0 0 0 0 0 0 0 0 0 0 127 0"/><feOffset dy="1"/><feGaussianBlur stdDeviation=".25"/><feComposite in2="hardAlpha" k2="-1" k3="1" operator="arithmetic"/><feColorMatrix values="0 0 0 0 1 0 0 0 0 0.611982 0 0 0 0 0.391667 0 0 0 1 0"/><feBlend in2="effect2_innerShadow_24320_37663" result="effect3_innerShadow_24320_37663"/></filter><filter id="filter18_iii_24320_37663" width="13.925" height="12.394" x="118.044" y="55.38" color-interpolation-filters="sRGB" filterUnits="userSpaceOnUse"><feFlood flood-opacity="0" result="BackgroundImageFix"/><feBlend in="SourceGraphic" in2="BackgroundImageFix" result="shape"/><feColorMatrix in="SourceAlpha" result="hardAlpha" values="0 0 0 0 0 0 0 0 0 0 0 0 0 0 0 0 0 0 127 0"/><feOffset dy="2"/><feGaussianBlur stdDeviation="1"/><feComposite in2="hardAlpha" k2="-1" k3="1" operator="arithmetic"/><feColorMatrix values="0 0 0 0 0 0 0 0 0 0 0 0 0 0 0 0 0 0 0.15 0"/><feBlend in2="shape" result="effect1_innerShadow_24320_37663"/><feColorMatrix in="SourceAlpha" result="hardAlpha" values="0 0 0 0 0 0 0 0 0 0 0 0 0 0 0 0 0 0 127 0"/><feOffset dx="-.094" dy="-.28"/><feGaussianBlur stdDeviation=".64"/><feComposite in2="hardAlpha" k2="-1" k3="1" operator="arithmetic"/><feColorMatrix values="0 0 0 0 0.278431 0 0 0 0 0.345098 0 0 0 0 0.403922 0 0 0 1 0"/><feBlend in2="effect1_innerShadow_24320_37663" result="effect2_innerShadow_24320_37663"/><feColorMatrix in="SourceAlpha" result="hardAlpha" values="0 0 0 0 0 0 0 0 0 0 0 0 0 0 0 0 0 0 127 0"/><feOffset dy="1"/><feGaussianBlur stdDeviation=".25"/><feComposite in2="hardAlpha" k2="-1" k3="1" operator="arithmetic"/><feColorMatrix values="0 0 0 0 1 0 0 0 0 0.611982 0 0 0 0 0.391667 0 0 0 1 0"/><feBlend in2="effect2_innerShadow_24320_37663" result="effect3_innerShadow_24320_37663"/></filter><filter id="filter19_iii_24320_37663" width="19.456" height="24.059" x="77.002" y="75.07" color-interpolation-filters="sRGB" filterUnits="userSpaceOnUse"><feFlood flood-opacity="0" result="BackgroundImageFix"/><feBlend in="SourceGraphic" in2="BackgroundImageFix" result="shape"/><feColorMatrix in="SourceAlpha" result="hardAlpha" values="0 0 0 0 0 0 0 0 0 0 0 0 0 0 0 0 0 0 127 0"/><feOffset dy="2"/><feGaussianBlur stdDeviation="1"/><feComposite in2="hardAlpha" k2="-1" k3="1" operator="arithmetic"/><feColorMatrix values="0 0 0 0 0 0 0 0 0 0 0 0 0 0 0 0 0 0 0.15 0"/><feBlend in2="shape" result="effect1_innerShadow_24320_37663"/><feColorMatrix in="SourceAlpha" result="hardAlpha" values="0 0 0 0 0 0 0 0 0 0 0 0 0 0 0 0 0 0 127 0"/><feOffset dx="-.094" dy="-.28"/><feGaussianBlur stdDeviation=".64"/><feComposite in2="hardAlpha" k2="-1" k3="1" operator="arithmetic"/><feColorMatrix values="0 0 0 0 0.278431 0 0 0 0 0.345098 0 0 0 0 0.403922 0 0 0 1 0"/><feBlend in2="effect1_innerShadow_24320_37663" result="effect2_innerShadow_24320_37663"/><feColorMatrix in="SourceAlpha" result="hardAlpha" values="0 0 0 0 0 0 0 0 0 0 0 0 0 0 0 0 0 0 127 0"/><feOffset dy="1"/><feGaussianBlur stdDeviation=".25"/><feComposite in2="hardAlpha" k2="-1" k3="1" operator="arithmetic"/><feColorMatrix values="0 0 0 0 1 0 0 0 0 0.611982 0 0 0 0 0.391667 0 0 0 1 0"/><feBlend in2="effect2_innerShadow_24320_37663" result="effect3_innerShadow_24320_37663"/></filter><filter id="filter20_iii_24320_37663" width="13.925" height="12.394" x="72.334" y="73.016" color-interpolation-filters="sRGB" filterUnits="userSpaceOnUse"><feFlood flood-opacity="0" result="BackgroundImageFix"/><feBlend in="SourceGraphic" in2="BackgroundImageFix" result="shape"/><feColorMatrix in="SourceAlpha" result="hardAlpha" values="0 0 0 0 0 0 0 0 0 0 0 0 0 0 0 0 0 0 127 0"/><feOffset dy="2"/><feGaussianBlur stdDeviation="1"/><feComposite in2="hardAlpha" k2="-1" k3="1" operator="arithmetic"/><feColorMatrix values="0 0 0 0 0 0 0 0 0 0 0 0 0 0 0 0 0 0 0.15 0"/><feBlend in2="shape" result="effect1_innerShadow_24320_37663"/><feColorMatrix in="SourceAlpha" result="hardAlpha" values="0 0 0 0 0 0 0 0 0 0 0 0 0 0 0 0 0 0 127 0"/><feOffset dx="-.094" dy="-.28"/><feGaussianBlur stdDeviation=".64"/><feComposite in2="hardAlpha" k2="-1" k3="1" operator="arithmetic"/><feColorMatrix values="0 0 0 0 0.278431 0 0 0 0 0.345098 0 0 0 0 0.403922 0 0 0 1 0"/><feBlend in2="effect1_innerShadow_24320_37663" result="effect2_innerShadow_24320_37663"/><feColorMatrix in="SourceAlpha" result="hardAlpha" values="0 0 0 0 0 0 0 0 0 0 0 0 0 0 0 0 0 0 127 0"/><feOffset dy="1"/><feGaussianBlur stdDeviation=".25"/><feComposite in2="hardAlpha" k2="-1" k3="1" operator="arithmetic"/><feColorMatrix values="0 0 0 0 1 0 0 0 0 0.611982 0 0 0 0 0.391667 0 0 0 1 0"/><feBlend in2="effect2_innerShadow_24320_37663" result="effect3_innerShadow_24320_37663"/></filter><linearGradient id="paint0_linear_24320_37663" x1="58.643" x2="58.643" y1="0" y2="99.32" gradientUnits="userSpaceOnUse"><stop stop-color="#B5EFFF"/><stop offset="1" stop-color="#EDFBFF"/></linearGradient><linearGradient id="paint1_linear_24320_37663" x1="24.668" x2="24.789" y1="27.203" y2="33.147" gradientUnits="userSpaceOnUse"><stop stop-color="#F1F1F1"/><stop offset="1" stop-color="#F8F8F8"/></linearGradient><linearGradient id="paint2_linear_24320_37663" x1="25.708" x2="32.836" y1="38.065" y2="82.33" gradientUnits="userSpaceOnUse"><stop stop-color="#E8E8E8"/><stop offset="1" stop-color="#F8F8F8"/></linearGradient><linearGradient id="paint3_linear_24320_37663" x1="25.09" x2="34.942" y1="42.44" y2="76.618" gradientUnits="userSpaceOnUse"><stop stop-color="#E8E8E8"/><stop offset="1" stop-color="#F8F8F8"/></linearGradient><linearGradient id="paint4_linear_24320_37663" x1="64.91" x2="74.762" y1="42.44" y2="76.618" gradientUnits="userSpaceOnUse"><stop stop-color="#E8E8E8"/><stop offset="1" stop-color="#F8F8F8"/></linearGradient><linearGradient id="paint5_linear_24320_37663" x1="37.362" x2="38.192" y1="45.164" y2="51.11" gradientUnits="userSpaceOnUse"><stop stop-color="#E8E8E8"/><stop offset="1" stop-color="#F8F8F8"/></linearGradient><linearGradient id="paint6_linear_24320_37663" x1="23.305" x2="9.968" y1="56.633" y2="68.61" gradientUnits="userSpaceOnUse"><stop stop-color="#BAFFF1" stop-opacity=".26"/><stop offset=".682" stop-color="#4DC7AE"/><stop offset=".969" stop-color="#06896F"/></linearGradient><linearGradient id="paint7_linear_24320_37663" x1="17.371" x2="9.26" y1="61.281" y2="74.941" gradientUnits="userSpaceOnUse"><stop stop-color="#B7FDEF"/><stop offset=".682" stop-color="#09B794"/><stop offset=".969" stop-color="#7EE0CC"/></linearGradient><linearGradient id="paint8_linear_24320_37663" x1="17.557" x2="5.293" y1="80.39" y2="80.39" gradientUnits="userSpaceOnUse"><stop offset=".099" stop-color="#FFEEC5"/><stop offset=".607" stop-color="#FACD63"/><stop offset=".839" stop-color="#EAAF23"/><stop offset=".984" stop-color="#EDB52F"/></linearGradient><linearGradient id="paint9_linear_24320_37663" x1="18.034" x2="4.884" y1="73.163" y2="73.163" gradientUnits="userSpaceOnUse"><stop offset=".099" stop-color="#FFEEC5"/><stop offset=".607" stop-color="#FCBD27"/><stop offset=".984" stop-color="#EFB222"/></linearGradient><linearGradient id="paint10_linear_24320_37663" x1="59.274" x2="59.274" y1="0" y2="99.903" gradientUnits="userSpaceOnUse"><stop stop-color="#B5EFFF"/><stop offset="1" stop-color="#E7F8FE"/></linearGradient><clipPath id="clip0_24320_37663"><path fill="#fff" d="M0 0h134v102H0z"/></clipPath></defs></svg>