<svg width="150" height="150" viewBox="0 0 150 150" fill="none" xmlns="http://www.w3.org/2000/svg">
<path d="M134.06 134.19H139.55" stroke="#91A1B0" stroke-width="1.2" stroke-linecap="round" stroke-linejoin="round"/>
<path d="M104.07 134.19H128.1" stroke="#91A1B0" stroke-width="1.2" stroke-linecap="round" stroke-linejoin="round"/>
<path d="M10.5498 134.19H98.3698" stroke="#91A1B0" stroke-width="1.2" stroke-linecap="round" stroke-linejoin="round"/>
<path opacity="0.2" d="M75.0498 127.25C102.664 127.25 125.05 104.864 125.05 77.25C125.05 49.6358 102.664 27.25 75.0498 27.25C47.4356 27.25 25.0498 49.6358 25.0498 77.25C25.0498 104.864 47.4356 127.25 75.0498 127.25Z" fill="#BEC6D2"/>
<path d="M38.1302 41.75H111.96C115.09 41.75 117.64 44.29 117.64 47.43V107.07C117.64 110.2 115.1 112.75 111.96 112.75H38.1302C35.0002 112.75 32.4502 110.21 32.4502 107.07V47.43C32.4502 44.3 34.9902 41.75 38.1302 41.75Z" fill="white" stroke="#91A1B0" stroke-width="1.2" stroke-miterlimit="10"/>
<path d="M75.0498 92.6699C82.3698 92.6699 88.2998 86.7399 88.2998 79.4199C88.2998 72.0999 82.3698 66.1699 75.0498 66.1699C67.7298 66.1699 61.7998 72.0999 61.7998 79.4199C61.7998 86.7399 67.7298 92.6699 75.0498 92.6699Z" fill="white" stroke="#91A1B0" stroke-width="1.2" stroke-miterlimit="10"/>
<path d="M65.6797 88.7898L84.4197 70.0498L65.6797 88.7898Z" fill="white"/>
<path d="M65.6797 88.7898L84.4197 70.0498" stroke="#91A1B0" stroke-width="1.2" stroke-miterlimit="10"/>
<path d="M52.2002 99.2998H97.9002" stroke="#CED6DE" stroke-width="1.2" stroke-linecap="round" stroke-linejoin="round"/>
<path d="M63.6201 105.37H86.4701" stroke="#CED6DE" stroke-width="1.2" stroke-linecap="round" stroke-linejoin="round"/>
<path d="M37.6801 42.4199H112.49C114.97 42.4199 116.99 44.4399 116.99 46.9199V58.7799H33.0801V47.0199C33.0801 44.4799 35.1401 42.4199 37.6801 42.4199Z" fill="#91A1B0" stroke="#91A1B0" stroke-width="0.83" stroke-linecap="round" stroke-linejoin="round"/>
<path d="M52.1994 50.5996H42.3594H52.1994Z" fill="white"/>
<path d="M52.1994 50.5996H42.3594" stroke="white" stroke-width="1.2" stroke-miterlimit="10" stroke-linecap="round"/>
</svg>
