<svg xmlns="http://www.w3.org/2000/svg" width="199" height="202" fill="none" viewBox="0 0 199 202"><path fill="#F1F3F8" fill-rule="evenodd" d="M109.86 174.22l56.33-56.33a9 9 0 1112.72 12.72l-56.33 56.33a9 9 0 01-12.72-12.72zm-94.64-45.46l8.71-8.71a9 9 0 1112.72 12.72l-8.71 8.71a8.999 8.999 0 11-12.72-12.72z" clip-rule="evenodd"/><path fill="#F1F3F8" fill-rule="evenodd" d="M113.86 145.29l25.75-25.74a9.001 9.001 0 003.842 15.426 9.001 9.001 0 008.868-2.716L126.58 158a9.002 9.002 0 00-3.909-15.305 9 9 0 00-8.811 2.585m-11-39.21L127 82a9 9 0 0012.7 12.67l-24.12 24.12a9 9 0 00-.221-12.499 9 9 0 00-12.499-.221" clip-rule="evenodd"/><path fill="#F1F3F8" fill-rule="evenodd" d="M94.32 139.53l70.37-70.37a9 9 0 1112.72 12.71L107 152.25a9 9 0 01-12.71-12.72m-69.12 19.08L121 62.81a9 9 0 0112.499.22 9 9 0 01.221 12.5l-95.83 95.79a9 9 0 01-12.72-12.71zM42.1 95.54L77.65 60a9 9 0 0112.72 12.71l-35.55 35.55a9 9 0 01-12.5-.221 9 9 0 01-.22-12.5zm58.8-58.8l.22-.21a9 9 0 0112.71 12.72l-.21.21a9 9 0 01-12.72 0 9 9 0 010-12.72zM73.64 159.61l.21-.21a9 9 0 1112.72 12.71l-.22.22a9 9 0 01-12.71 0 9 9 0 010-12.72z" clip-rule="evenodd"/><path fill="#717790" fill-rule="evenodd" d="M194.85 191.47a4.927 4.927 0 011.85-.26 9.74 9.74 0 011.85.18.57.57 0 01.42.66.572.572 0 01-.42.43 9.74 9.74 0 01-1.85.18 4.947 4.947 0 01-1.85-.26.503.503 0 01-.28-.65.513.513 0 01.28-.28zm-168.52.02c6.91-.2 13.81-.23 20.72-.23h124.37c6.9 0 13.81 0 20.72.2a.577.577 0 01.57.59.57.57 0 01-.57.56c-6.91.18-13.82.19-20.72.2H47.05c-6.91 0-13.81 0-20.72-.23a.45.45 0 010-.89m-4.08-.41c.09-.01.18-.01.27 0h.13c.05.012.097.032.14.06a.69.69 0 01.18.95.75.75 0 01-.18.18.401.401 0 01-.14.06h-.13c-.09.01-.18.01-.27 0a.67.67 0 01-.51-.8.651.651 0 01.51-.51m-6.64.24a6.18 6.18 0 011.34-.18c.454-.04.91.001 1.35.12a.56.56 0 01.36.7.58.58 0 01-.36.37c-.44.119-.896.16-1.35.12a6.18 6.18 0 01-1.34-.18.482.482 0 01-.36-.6.49.49 0 01.36-.35zm74.53 8.85c2.16-.2 4.31-.23 6.47-.23h6.47L116 200h19.4c2.16 0 4.32 0 6.47.2.153.01.296.082.396.198a.59.59 0 01-.396.962c-2.15.17-4.31.18-6.47.19H116l-12.94-.07h-6.47c-2.16 0-4.31 0-6.47-.23a.441.441 0 01-.4-.49.45.45 0 01.4-.4m-21.27-.08c2.21-.12 4.42-.16 6.63-.18 2.21-.02 4.42 0 6.63.12a.54.54 0 01.49.57.53.53 0 01-.49.5c-2.21.14-4.42.15-6.63.12s-4.42-.06-6.63-.18a.48.48 0 010-.95z" clip-rule="evenodd"/><path fill="#C8D6EC" fill-rule="evenodd" d="M185.98 152.28a2.72 2.72 0 105.44 0 2.72 2.72 0 00-5.44 0zm2.026-.379a.72.72 0 01.694-.331.72.72 0 110 1.43.72.72 0 01-.694-1.099z" clip-rule="evenodd"/><path fill="#C8D6EC" d="M5.78 73.94a1 1 0 01-1-1v-8.5a1 1 0 012 0v8.5a1 1 0 01-1 1z"/><path fill="#C8D6EC" d="M10 69.69H1.53a1 1 0 110-2H10a1 1 0 010 2z"/><path fill="#C8D6EC" fill-rule="evenodd" d="M58.587 62.94a2.72 2.72 0 105.026-2.081 2.72 2.72 0 00-5.026 2.082zm1.82-1.42a.72.72 0 01.693-.33.72.72 0 110 1.43.72.72 0 01-.694-1.1zM186.56 99.074a2.72 2.72 0 002.68 2.746A2.706 2.706 0 00192 99.1a2.72 2.72 0 00-5.44-.026zm2.014-.237a.72.72 0 01.666-.447.708.708 0 01.72.71.72.72 0 11-1.386-.263zM93.41 56.36c.153.084.325.128.5.13a.822.822 0 00.26-.04l3.06-.83a1 1 0 00.71-1.23l-.84-3.07a1 1 0 00-1.23-.7l-3.06.84a1 1 0 00-.71 1.23l.84 3.06a1 1 0 00.47.61zm1.2-2.1l-.31-1.14 1.13-.25.31 1.13-1.13.26zM35.8 114.65a3 3 0 106 0 3 3 0 00-6 0zm2 0a1 1 0 112 0 1 1 0 01-2 0z" clip-rule="evenodd"/><path fill="#CED6DE" fill-rule="evenodd" d="M110.63 6.02a.5.5 0 00.48.37l.13.01 1.8-.48a.516.516 0 00-.25-1l-1.81.48a.52.52 0 00-.35.62zm-3.58 1.48a.49.49 0 01-.48-.36.51.51 0 01.35-.62l2-.56a.5.5 0 01.564.729.491.491 0 01-.304.23l-2 .56a.342.342 0 01-.13.02zm-4.015 1.16a.5.5 0 01-.125-.98l2-.58a.492.492 0 01.62.34.51.51 0 01-.34.62l-2 .58a.36.36 0 01-.19.02h.035zM99.05 9.88a.506.506 0 01-.15-1l2-.61a.52.52 0 11.28 1l-2 .62-.13-.01zm-4.47.92a.49.49 0 00.47.35l.15-.02 2-.65a.5.5 0 00.33-.62.51.51 0 00-.63-.33l-2 .64a.5.5 0 00-.32.63zm-3.53 1.68a.506.506 0 01-.16-1l2-.68a.51.51 0 01.63.32.49.49 0 01-.32.63l-2 .67a.45.45 0 01-.2.06h.05zm-4.475 1.223c.115.14.296.207.475.177H87a.51.51 0 00.21-.06l2-.71a.48.48 0 00.3-.63.5.5 0 00-.63-.31l-2 .71a.507.507 0 00-.305.823zM83.05 15.35a.507.507 0 01-.17-1l2-.75a.5.5 0 01.64.3.49.49 0 01-.29.64l-2 .74a.58.58 0 01-.18.07zm-4.505 1.135a.509.509 0 00.595.405.43.43 0 00.18-.08l2-.78a.5.5 0 00-.37-.93l-2 .79a.51.51 0 00-.405.595zM75.26 18.52a.51.51 0 01-.2-1l1.94-.79a.51.51 0 01.65.27.49.49 0 01-.26.65l-1.93.83a.509.509 0 01-.2.04zM71 20a.52.52 0 00.42.24.41.41 0 00.25 0l1.91-.87a.5.5 0 00.25-.66.49.49 0 00-.66-.25c-.65.29-1.29.58-1.92.88A.5.5 0 0071 20zm-3.37 2.07a.51.51 0 01-.482-.662.49.49 0 01.252-.288l1.9-.93a.5.5 0 11.43.9l-1.88.91a.459.459 0 01-.22.07zm-4.18 1.67a.49.49 0 00.44.26.43.43 0 00.26 0L66 23a.523.523 0 10-.48-.93c-.25.134-.499.266-.747.396-.379.2-.754.398-1.123.604a.49.49 0 00-.2.67zm-3.17 2.36a.5.5 0 01-.25-.93l1.83-1.05a.5.5 0 11.49.87l-.472.264c-.452.254-.9.506-1.338.736a.48.48 0 01-.32.08l.06.03zm-4 1.98a.51.51 0 00.42.23l-.06-.03a.5.5 0 00.33-.05c.58-.38 1.17-.75 1.77-1.12a.5.5 0 10-.52-.85c-.61.37-1.21.75-1.79 1.13a.5.5 0 00-.15.69zm-3.06 2.59a.49.49 0 01-.4-.2.51.51 0 01.11-.7c.57-.41 1.14-.81 1.74-1.21a.5.5 0 01.56.82c-.59.4-1.16.8-1.72 1.2a.5.5 0 01-.35.06l.06.03zm-3.82 2.214a.5.5 0 00.47.336l-.06-.03a.54.54 0 00.38-.08c.53-.43 1.08-.86 1.64-1.29a.5.5 0 00.1-.7.51.51 0 00-.7-.1c-.58.44-1.13.87-1.67 1.31a.5.5 0 00-.16.554zm-2.71 3.086a.5.5 0 01-.34-.87c.093-.086.185-.17.276-.256.415-.385.83-.77 1.304-1.154a.51.51 0 01.71.05.49.49 0 01-.06.7l-.095.084c-.497.441-.985.873-1.455 1.306a.51.51 0 01-.4.11l.06.03zm-3.34 2.86a.51.51 0 00.34.14l-.04-.06a.5.5 0 00.44-.11c.44-.49.94-.99 1.44-1.49a.5.5 0 000-.71.48.48 0 00-.7 0c-.254.28-.522.55-.788.816-.236.238-.47.474-.692.714a.5.5 0 000 .7zm-2.37 3.35a.49.49 0 01-.3-.1.51.51 0 01-.1-.7c.43-.55.87-1.11 1.34-1.66a.5.5 0 01.76.64 46.1 46.1 0 00-1.3 1.62.51.51 0 01-.44.14l.04.06zm-2.8 3.224a.49.49 0 00.44.246l-.04-.06a.47.47 0 00.46-.18c.35-.58.73-1.16 1.12-1.74a.5.5 0 00-.13-.7.51.51 0 00-.69.13c-.41.6-.79 1.2-1.15 1.8a.49.49 0 00-.01.504zm-1.5 3.976a.45.45 0 01-.2 0 .51.51 0 01-.26-.66c.28-.64.59-1.29.92-1.92a.501.501 0 01.89.46c-.32.61-.62 1.24-.89 1.86a.5.5 0 01-.5.2l.04.06zm-1.55 4h.14l-.04-.1a.5.5 0 00.45-.34c.18-.68.39-1.35.62-2a.5.5 0 00-.3-.64.51.51 0 00-.57.46c-.24.64-.46 1.33-.64 2a.5.5 0 00.34.62zm-.67 4.12h-.06a.5.5 0 01-.44-.56c.08-.7.19-1.42.33-2.11a.51.51 0 01.59-.4.5.5 0 01.39.59c-.13.67-.24 1.36-.32 2a.5.5 0 01-.53.38l.04.1zm-.68 3.72a.5.5 0 00.5.48l.02-.08a.5.5 0 00.48-.52v-2.06a.5.5 0 10-1 0v2.18zm.95 4.66a.51.51 0 01-.5-.41c-.12-.71-.22-1.42-.3-2.12a.5.5 0 01.45-.55.49.49 0 01.55.44c.07.68.17 1.37.29 2a.5.5 0 01-.41.58l-.08.06zm.53 3.73a.49.49 0 00.47.35l.15-.01a.5.5 0 00.33-.63c-.21-.67-.39-1.33-.56-2a.5.5 0 10-.97.24c.17.69.36 1.37.58 2.05zm95.28.39l2.16.15-.01-.06a.5.5 0 000-1l-2.12-.09a.479.479 0 00-.52.49.52.52 0 00.49.51zm-8.35.47a.501.501 0 01-.06-1c.7-.09 1.4-.16 2.11-.22a.502.502 0 01.09 1c-.511 0-1.016.07-1.517.138h-.003c-.184.025-.367.05-.55.072l-.07.01zm14.64.07h.06l-.04-.05a.5.5 0 00.53-.39.5.5 0 00-.43-.56c-.71-.09-1.41-.16-2.11-.23a.502.502 0 00-.09 1c.68.06 1.38.14 2.08.23zm-18.78.62a.503.503 0 11-.11-1 70.1 70.1 0 012.09-.39.51.51 0 01.58.41.51.51 0 01-.41.58c-.7.11-1.38.24-2 .38l-.15.02zm22.91 0h.09l-.05-.02a.51.51 0 00.54-.39.5.5 0 00-.4-.58l-2.09-.36a.506.506 0 10-.16 1c.69.11 1.37.22 2.07.35zm-26.99 1h-.019a.402.402 0 00.129-.03c.65-.19 1.32-.38 2-.56a.49.49 0 00.36-.6.489.489 0 00-.61-.36c-.667.166-1.333.356-2 .57a.489.489 0 00-.34.62.51.51 0 00.461.36h-.021.04zm31.116.123a.449.449 0 01-.186-.003c-.886-.375-1.524-.585-1.75-.66a1.078 1.078 0 01-.09-.03.55.55 0 01-.39-.61.461.461 0 01.55-.37h.09c.68.206 1.347.45 2 .73a.51.51 0 01.27.66.5.5 0 01-.494.283zM36.72 73.49a.51.51 0 00.46.3.45.45 0 00.2-.08.51.51 0 00.26-.66c-.28-.63-.54-1.27-.79-1.92a.5.5 0 10-.93.36c.25.7.52 1.36.8 2zm112.09.73a.478.478 0 01-.26-.07c-.58-.36-1.19-.7-1.81-1a.5.5 0 01-.22-.67.52.52 0 01.68-.22c.321.168.643.342.962.514.306.165.609.33.908.486a.5.5 0 01.16.69.49.49 0 01-.42.26v.01zm-43.13.79a.51.51 0 00.45.27v-.01a.44.44 0 00.22-.04c.62-.31 1.24-.61 1.88-.9a.49.49 0 00.25-.66.5.5 0 00-.66-.25c-.65.3-1.29.6-1.92.92a.5.5 0 00-.22.67zm46.54 1.67a.52.52 0 01-.33-.12c-.5-.43-1-.86-1.62-1.27a.51.51 0 01-.11-.7.489.489 0 01.7-.11c.59.42 1.16.87 1.69 1.32a.51.51 0 010 .71.52.52 0 01-.33.16v.01zm-113.15.89a.51.51 0 01-.44-.26c-.34-.62-.68-1.24-1-1.88a.5.5 0 01.22-.67.52.52 0 01.68.22c.31.62.64 1.24 1 1.84a.49.49 0 01-.19.68.55.55 0 01-.27.06v.01zm116.06 2.13a.49.49 0 01-.39-.19 19.337 19.337 0 00-1.35-1.51.5.5 0 01.72-.69c.503.517.977 1.06 1.42 1.63a.49.49 0 01-.4.8v-.04zM40.87 80.92a.49.49 0 00.69.13.5.5 0 00.14-.69c-.39-.57-.77-1.16-1.14-1.75a.49.49 0 00-.69-.16.5.5 0 00-.16.68c.38.61.76 1.21 1.16 1.79zm54.82 1.37a.52.52 0 01-.38-.17.51.51 0 010-.71c.53-.46 1.07-.92 1.63-1.36a.51.51 0 01.71.07.52.52 0 01-.08.71c-.55.44-1.08.88-1.6 1.33a.48.48 0 01-.28.17v-.04zm61.17.71a.49.49 0 00.45.29.5.5 0 00.41-.7c-.296-.66-.629-1.3-1-1.92a.499.499 0 00-.69-.16.49.49 0 00-.17.68c.369.583.703 1.187 1 1.81zM43.77 84.54a.5.5 0 01-.4-.19c-.43-.55-.86-1.11-1.28-1.69a.5.5 0 01.11-.7.51.51 0 01.7.11c.41.57.83 1.13 1.26 1.67a.5.5 0 01-.09.7.49.49 0 01-.3.1zm48.5.53a.54.54 0 00.35.14.51.51 0 00.38-.17c.264-.243.528-.505.795-.771v-.001h.001l.001-.001.001-.001v-.001h.001l.001-.001.001-.001c.227-.226.456-.454.689-.673a.5.5 0 00-.35-.857.49.49 0 00-.35.147c-.52.48-1.03.98-1.52 1.48a.5.5 0 000 .71zm66.27 2.23a.49.49 0 01-.49-.41 18.283 18.283 0 00-.47-2 .5.5 0 11.95-.3c.211.692.378 1.397.5 2.11a.479.479 0 01-.4.57l-.09.03zm-112.44.31a.5.5 0 00.37.17.55.55 0 00.38-.13.51.51 0 000-.71c-.46-.51-.92-1.03-1.37-1.58a.51.51 0 00-.71-.06.49.49 0 00-.06.7c.338.448.681.826 1.022 1.2.123.136.246.272.368.41zm43.68.71a.49.49 0 01-.32-.12.51.51 0 01-.06-.71c.45-.52.92-1.06 1.41-1.59a.5.5 0 11.73.68c-.48.52-.94 1.04-1.38 1.56a.49.49 0 01-.38.18zm-40.76 2.37a.49.49 0 00.35.15l-.01-.02a.5.5 0 00.35-.86c-.248-.27-.508-.53-.773-.797a38.772 38.772 0 01-.687-.703.51.51 0 00-.71 0 .5.5 0 000 .71c.48.52 1 1.039 1.479 1.519h.001zm109.67.8h-.1a.499.499 0 01-.39-.59c.07-.36.1-.57.1-.58v-1.43a.502.502 0 111-.06v1.5c0 .05 0 .28-.12.71a.5.5 0 01-.49.45zm-71.82.04a.52.52 0 00.7-.11c.4-.55.82-1.1 1.26-1.66a.49.49 0 00-.08-.7.5.5 0 00-.7.08c-.45.57-.88 1.13-1.29 1.69a.5.5 0 00.11.7zm-34.43 2.2a.5.5 0 01-.33-.13c-.33-.29-.67-.603-1.03-.935-.175-.16-.354-.326-.54-.495a.502.502 0 01.69-.73c.54.51 1.06 1 1.55 1.41a.5.5 0 01-.34.88zm32.03 1.3a.47.47 0 00.27.08l.04-.01a.49.49 0 00.38-.22c.36-.56.75-1.15 1.15-1.75a.5.5 0 00-.82-.56 60.75 60.75 0 00-1.17 1.77.5.5 0 00.15.69zm72.92.5a.65.65 0 01-.19 0 .52.52 0 01-.27-.66c.27-.64.51-1.29.71-1.93a.51.51 0 01.63-.33.487.487 0 01.32.63c-.21.67-.46 1.35-.74 2a.5.5 0 01-.42.28l-.04.01zm-102.04.81a.47.47 0 00.3.1.5.5 0 00.31-.9c-.34-.25-.9-.69-1.64-1.31a.49.49 0 00-.7.06.51.51 0 00.06.71c.75.63 1.33 1.08 1.67 1.34zm27.01 2.35a.53.53 0 00.24.06l.04-.01a.51.51 0 00.38-.25c.28-.57.62-1.18 1-1.83a.5.5 0 00-.86-.5 61.37 61.37 0 01-.73 1.358l-.27.492a.51.51 0 00.2.68zm73.1.57a.538.538 0 01-.27-.07.51.51 0 01-.16-.69c.37-.58.71-1.19 1-1.79a.5.5 0 01.67-.22.51.51 0 01.22.68c-.33.63-.69 1.25-1.07 1.86a.49.49 0 01-.35.22l-.04.01zm-92.28.53c.063.01.127.01.19 0l.04-.01a.51.51 0 00.37-.27.49.49 0 00-.27-.65l-1.95-.8a.502.502 0 00-.38.93l2 .8zm4.1 1.56a.603.603 0 01-.18 0c-.405-.162-.813-.32-1.23-.481l-.77-.299a.483.483 0 01-.28-.64.49.49 0 01.64-.28l2 .77a.49.49 0 01.28.64.48.48 0 01-.42.28l-.04.01zm13.28 1.2a.435.435 0 00.19 0l.04-.01a.52.52 0 00.43-.26c.15-.37.44-1.03.86-1.9a.481.481 0 00-.23-.66.49.49 0 00-.66.23c-.424.858-.71 1.512-.881 1.907l-.019.043a.51.51 0 00.27.65zm72.39.09a.523.523 0 01-.33-.12.51.51 0 010-.71c.45-.51.89-1.06 1.3-1.61a.51.51 0 01.7-.1.5.5 0 01.1.7c-.42.57-.88 1.13-1.34 1.67a.523.523 0 01-.38.16l-.05.01zm-81.91.21c.056.01.114.01.17 0l.04-.01a.51.51 0 00.44-.28.5.5 0 00-.29-.64l-2-.75a.496.496 0 00-.65.29.52.52 0 00.29.65l2 .74zm4.17 1.45a.485.485 0 01-.17 0l-2-.72a.493.493 0 01-.3-.64.5.5 0 01.64-.3l2 .72a.5.5 0 01.31.63.51.51 0 01-.48.3v.01zm74.4 1.11a.518.518 0 00.38.17l.01-.01a.48.48 0 00.31-.11c.54-.44 1.08-.95 1.59-1.44a.5.5 0 000-.71.49.49 0 00-.7 0 56.95 56.95 0 00-.545.502c-.328.305-.648.603-.985.888a.51.51 0 00-.06.71zm-70.09 1.17h-.13a.501.501 0 01-.36-.61c0-.09 0-.18.07-.27h-.08L77 105a.503.503 0 01.33-.95l2 .68c.08-.27.16-.54.25-.82a.51.51 0 01.63-.33.5.5 0 01.32.63c-.21.68-.4 1.34-.57 2a.49.49 0 01-.44.34v.03zm3.51.42a.43.43 0 00.16 0v.05a.506.506 0 00.15-1l-2-.65a.5.5 0 00-.63.32.49.49 0 00.32.63l2 .65zm63.57 1.13a.5.5 0 01-.27-.92c.59-.37 1.17-.76 1.72-1.16a.51.51 0 01.7.11.5.5 0 01-.12.7c-.56.42-1.16.82-1.77 1.2a.48.48 0 01-.27-.06l.01.13zm-59.52.16a.366.366 0 00.14 0l-.01-.09a.491.491 0 00.5-.25.5.5 0 00-.34-.62l-2-.6a.5.5 0 00-.62.33.51.51 0 00.33.63l2 .6zm-8.42 2.49h.06l-.01-.09a.51.51 0 00.53-.39c.08-.62.2-1.31.33-2a.509.509 0 10-1-.19c-.14.71-.25 1.42-.34 2.11a.488.488 0 00.43.56zm59.74.45a.507.507 0 00.58.42l.02-.09a.467.467 0 00.18.04c.69-.23 1.36-.47 2-.72a.5.5 0 00.29-.64.51.51 0 00-.65-.29c-.67.25-1.32.48-2 .7a.507.507 0 00-.42.58zm-34.82 1.03h-.09l-2.08-.4a.51.51 0 01-.39-.59.51.51 0 01.59-.4c.69.15 1.38.28 2.06.4a.502.502 0 01-.09 1v-.01zm30.795.055c.03.276.279.475.555.445l.09-.02c.71-.16 1.39-.33 2.06-.51a.51.51 0 00.35-.62.5.5 0 00-.61-.35c-.64.18-1.31.35-2 .5a.503.503 0 00-.445.555zm-26.645.645h-.08l-2.08-.34a.488.488 0 01-.41-.57.488.488 0 01.57-.41l2.07.33a.502.502 0 01.42.57.49.49 0 01-.5.33l.01.09zM78 114.43a.5.5 0 00.5.48h.01a.488.488 0 00.49-.51v-2.06a.5.5 0 10-1-.06v2.15zm.97 4.66a.5.5 0 01-.49-.4c-.14-.7-.26-1.41-.34-2.12a.5.5 0 01.45-.55.489.489 0 01.55.44 20.2 20.2 0 00.32 2 .51.51 0 01-.39.59l-.1.04zm.76 3.69a.5.5 0 00.46.31l-.01-.02a.423.423 0 00.2 0 .493.493 0 00.27-.65c-.26-.64-.49-1.29-.69-1.94a.5.5 0 00-.62-.33.502.502 0 00-.34.63c.21.66.46 1.34.73 2zm2.46 4.02a.51.51 0 01-.42-.23c-.39-.6-.76-1.22-1.09-1.85a.5.5 0 01.89-.46c.31.59.66 1.19 1 1.77a.5.5 0 01-.15.69.533.533 0 01-.28.06l.05.02zm2.21 3.15a.49.49 0 00.37.16l-.05-.02c.147.032.3-.009.41-.11a.5.5 0 000-.71c-.47-.51-.91-1.04-1.33-1.57a.5.5 0 00-.79.61c.385.553.888 1.097 1.373 1.621l.017.019zm3.37 3.05a.451.451 0 01-.31-.11c-.56-.46-1.1-.94-1.61-1.42a.491.491 0 010-.7.499.499 0 01.71 0c.49.46 1 .92 1.55 1.37a.489.489 0 01.07.7.5.5 0 01-.41.16zm3.16 2.38c.077.055.17.083.264.08a.522.522 0 00.426-.22.51.51 0 00-.15-.7 29.06 29.06 0 01-1.71-1.17.499.499 0 00-.793.352.502.502 0 00.203.458c.57.41 1.16.82 1.76 1.2zm3.9 2.2a.674.674 0 01-.23-.05c-.62-.33-1.25-.67-1.86-1a.502.502 0 01.5-.87c.6.35 1.21.69 1.83 1a.5.5 0 01.21.67.511.511 0 01-.47.25h.02zm3.805 1.801a.426.426 0 01-.185-.001c-.65-.27-1.3-.56-1.94-.87a.502.502 0 01-.09-.884.497.497 0 01.52-.016c.63.3 1.27.58 1.9.85a.5.5 0 01.26.66.492.492 0 01-.465.261zm3.935 1.529a.477.477 0 01-.16 0c-.66-.23-1.33-.48-2-.74a.501.501 0 11.36-.93l.153.058c.608.23 1.21.459 1.847.662a.507.507 0 01-.17 1l-.03-.05zm3.86 1.27a.366.366 0 00.14 0 .49.49 0 00.51-.39.501.501 0 00-.34-.62l-2-.6a.523.523 0 00-.31 1c.66.22 1.34.42 2 .61zm4.23 1.06h-.12a74.783 74.783 0 00-.592-.144 72.974 72.974 0 01-1.468-.366.503.503 0 01-.36-.61.51.51 0 01.61-.36c.542.145 1.066.272 1.554.391h.001l.002.001.288.07.155.038a.49.49 0 01.37.6.5.5 0 01-.44.38zm4.13.84h-.08c-.63-.11-1.33-.24-2.09-.4a.494.494 0 01-.39-.59.51.51 0 01.59-.39c.75.16 1.44.29 2.06.39a.5.5 0 01.4.58.49.49 0 01-.49.41zm7.61-30.04a.5.5 0 010-1c.71 0 1.41 0 2.09-.05a.52.52 0 01.52.48.5.5 0 01-.48.52c-.7 0-1.4 0-2.12.05h-.01zm-4.22-.06l2.12.06-.01-.04a.5.5 0 00.52-.45.52.52 0 00-.49-.51l-2.09-.06a.492.492 0 00-.52.47.5.5 0 00.47.53zm8.43-.08a.5.5 0 010-1c.554 0 1.095-.061 1.629-.121l.149-.017.18-.019.122-.013a.502.502 0 11.1 1c-.68.07-1.39.13-2.11.18l-.07-.01zm-11.991-.1c.497.051.987.1 1.471.1l-.01-.09a.51.51 0 00.54-.37.492.492 0 00-.46-.53l-2.09-.17a.502.502 0 00-.09 1c.215.018.427.039.639.06zm-2.719-.29l-.119-.014a79.252 79.252 0 01-1.981-.246.49.49 0 01-.43-.56.5.5 0 01.56-.43c.7.1 1.39.18 2.079.26h.001a.5.5 0 11-.06 1l-.05-.01zm18.355-.465a.501.501 0 00.535.465l.07.01c.72-.1 1.42-.21 2.1-.34a.508.508 0 00-.18-1c-.67.12-1.35.23-2.06.33a.501.501 0 00-.465.535zM99.45 111.43h-.11c-.67-.14-1.36-.3-2-.46a.5.5 0 01-.38-.6.5.5 0 01.6-.37l2 .46a.49.49 0 01.38.59.5.5 0 01-.5.29l.01.09zm-4.1-.94h-.12l-2-.51a.51.51 0 01-.36-.61.501.501 0 01.61-.36l2 .51a.502.502 0 01.36.61.491.491 0 01-.5.27l.01.09zm46.945-.765a.511.511 0 00.605.395l-.01-.12c.063.042.135.07.21.08l.603-.314.004-.001v-.001l.007-.003.004-.002c.444-.231.873-.452 1.292-.679a.49.49 0 00.21-.67.51.51 0 00-.68-.21c-.59.32-1.21.63-1.85.92a.511.511 0 00-.395.605zm-51.025-.285h-.13l-2-.56a.518.518 0 01.27-1c.439.129.877.249 1.305.367l.695.193a.504.504 0 01-.13 1h-.01zM59.48 98.18a.481.481 0 01-.2 0l-1.94-.82a.502.502 0 01.4-.92l1.93.82a.509.509 0 11-.19 1v-.08zM98.57 79.5a.51.51 0 00.4.2l.03-.01a.47.47 0 00.27-.09c.55-.41 1.12-.81 1.7-1.2a.5.5 0 10-.56-.83c-.59.4-1.17.81-1.73 1.23a.5.5 0 00-.11.7zm3.412-2.52a.5.5 0 00.478.36v-.01a.42.42 0 00.26-.12c.384-.202.769-.421 1.158-.643h.001c.208-.12.419-.239.631-.357a.5.5 0 10-.48-.87c-.63.35-1.24.71-1.84 1.08a.499.499 0 00-.208.56zM110 73.54a.51.51 0 01-.46-.31.503.503 0 01.28-.65c.65-.26 1.31-.51 2-.75a.527.527 0 01.33 1c-.66.23-1.31.47-1.95.73a.58.58 0 01-.2-.02zm16.38-3.39a.5.5 0 010-1c.381 0 .764-.018 1.149-.036h.002c.322-.015.646-.03.969-.034a.5.5 0 010 1c-.7 0-1.4 0-2.08.06l-.04.01z" clip-rule="evenodd"/><path fill="#DAE1E7" fill-rule="evenodd" d="M73.9 122.55h-1.99v-2h-1.32v2h-1.98v1.33h1.98v2.01h1.32v-2.01h1.99v-1.33z" clip-rule="evenodd"/><path fill="#fff" d="M115.23 7.58a3.29 3.29 0 100-6.58 3.29 3.29 0 000 6.58z"/><path fill="#CED6DE" fill-rule="evenodd" d="M110.94 4.29a4.29 4.29 0 108.58 0 4.29 4.29 0 00-8.58 0zm2 0a2.29 2.29 0 114.58 0 2.29 2.29 0 01-4.58 0z" clip-rule="evenodd"/><path fill="#fff" d="M109.52 53.36V38.5A1.53 1.53 0 00108 37H91.05a.35.35 0 00-.35.34 14.17 14.17 0 11-28.33 0A.35.35 0 0062 37H45.39a1.83 1.83 0 00-1.84 1.83v14.53a.34.34 0 01-.35.34h-.61c-7.826 0-14.17 6.344-14.17 14.17s6.344 14.17 14.17 14.17h.61a.34.34 0 01.35.34V96.9a1.83 1.83 0 001.84 1.83H62c.19.005.34.16.34.35v.12a14.171 14.171 0 0021.358 12.585A14.171 14.171 0 0090.67 99.2v-.12c0-.19.15-.344.34-.35H108a1.528 1.528 0 001.54-1.53V83"/><path fill="#717790" fill-rule="evenodd" d="M108.51 39.34a1 1 0 001 1h.01a1 1 0 00.95-.98v-.86a2.5 2.5 0 00-2.07-2.47 1 1 0 10-.35 1.92.56.56 0 01.46.55v.84zm-46 1.21a1 1 0 01-1-.82 14.91 14.91 0 01-.18-1.89 1 1 0 01.51-1.84H62c.73 0 1.325.59 1.33 1.32-.004.707.053 1.413.17 2.11a1 1 0 01-.82 1.12h-.17zm27.78.96h-.22a1 1 0 01-.73-1.17c.21-.91.323-1.838.34-2.77a1 1 0 112 0 15.278 15.278 0 01-.39 3.17 1 1 0 01-.96.77h-.04zm19.23 5.83a1 1 0 01-1-1v-3a1 1 0 012 0v3a.998.998 0 01-1 1zm-23.274-.27a1 1 0 00.904.6 1 1 0 00.7-.3 14.79 14.79 0 001.85-2.6 1 1 0 10-1.7-1c-.451.794-.98 1.54-1.58 2.23a1 1 0 00-.174 1.07zM43.55 48.45a1 1 0 01-1-1v-3a1 1 0 112 0v3a1 1 0 01-1 1zm26.76 2.69a1 1 0 00.4.08 1 1 0 00.41-1.87 12.657 12.657 0 01-2.41-1.41 1 1 0 10-1.16 1.58 15.01 15.01 0 002.76 1.62zm11.12.45a1 1 0 01-.34-1.9 13.18 13.18 0 002.5-1.23 1 1 0 111.05 1.65 15.33 15.33 0 01-2.87 1.42 1 1 0 01-.33.05l-.01.01zm28.09 2.76a1 1 0 01-1-1v-3a1 1 0 012 0v3a1 1 0 01-1 .99v.01zm-66.89.34h.57v-.01a1.33 1.33 0 001.37-1.32v-1.89a1 1 0 00-2 0v1.27a1 1 0 00.06 1.95zm-6.71 1.65a1 1 0 01-.87-.52 1 1 0 01.4-1.32c.955-.507 1.96-.912 3-1.21a1 1 0 01.55 1.88 13.34 13.34 0 00-2.58 1 1 1 0 01-.5.16v.01zm-5.68 4.49a1 1 0 00.55.17 1 1 0 00.81-.47c.52-.77 1.117-1.488 1.78-2.14a1 1 0 000-1.39A1 1 0 0032 57a15.995 15.995 0 00-2 2.46 1 1 0 00.24 1.37zm-1.79 6.69h-.09a1 1 0 01-.88-1.07c.092-1.066.3-2.12.62-3.14a1 1 0 011.23-.64A1 1 0 0130 63.9a13.199 13.199 0 00-.54 2.73 1 1 0 01-.98.89h-.03zm.16 6.25a1 1 0 00.9.6h.03a1.09 1.09 0 00.39-.08 1 1 0 00.52-1.29 12.37 12.37 0 01-.84-2.66 1 1 0 00-1.93.36c.197 1.054.51 2.084.93 3.07zm5.09 6.12a1 1 0 01-.62-.22 16.086 16.086 0 01-2.27-2.25 1 1 0 111.52-1.24 13.583 13.583 0 002 2 1 1 0 01.15 1.38 1 1 0 01-.75.33h-.03zm6.12 2.88H40l.03.02a1.004 1.004 0 00.17-2 13.202 13.202 0 01-2.67-.79 1 1 0 00-1.31.58 1 1 0 00.53 1.28c.988.412 2.017.717 3.07.91zm2.73 2.82a1 1 0 102 0v-3a1 1 0 00-2 0v3zm67 6.61a1 1 0 01-1-1v-3a1 1 0 012 0v3a1 1 0 01-1.03 1h.03zm-67 .39a1 1 0 102 0v-3a1 1 0 00-2 0v3zm66.66 6.53a1 1 0 01-.77-1.58.567.567 0 00.12-.34v-2a1 1 0 012 0v2a2.55 2.55 0 01-.53 1.55 1 1 0 01-.84.37h.02zm-64.09.59h.09l.04.05a1.001 1.001 0 00.09-2 .85.85 0 01-.77-.85v-.29a1 1 0 00-2 0v.29a2.8 2.8 0 002.55 2.8zm7.09 0h-3a1 1 0 110-2h3a1 1 0 010 2zm4 0h3a1 1 0 000-2h-3a1 1 0 100 2zm46.17 0h3a1 1 0 000-2h-3a1 1 0 000 2zm-11.82 2.46h-.13a1 1 0 01-.84-1.1c.088-.616.132-1.238.13-1.86v-.12A1.33 1.33 0 0191 97.75h.34a1 1 0 01.29 1.92c-.011.556-.058 1.11-.14 1.66a1 1 0 01-.93.84zm-28.76.75a1 1 0 001 .75h-.01a.999.999 0 00.95-1.22c-.23-.903-.36-1.829-.39-2.76a1 1 0 00-2 .07 15.24 15.24 0 00.45 3.16zm26.14 5.67a1.002 1.002 0 01-.79-1.57 13.132 13.132 0 001.41-2.4.999.999 0 111.79.81 15.599 15.599 0 01-1.62 2.76 1 1 0 01-.79.4zm-22.57.85a1 1 0 00.73.32 1 1 0 00.66-.26 1 1 0 00.06-1.38 13.093 13.093 0 01-1.66-2.25 1 1 0 00-1.69 1c.542.92 1.18 1.782 1.9 2.57zM82.59 113a1 1 0 01-.42-1.87c.844-.394 1.643-.88 2.38-1.45a1 1 0 011.37.18 1 1 0 01-.18 1.38c-.85.65-1.77 1.207-2.74 1.66a1.005 1.005 0 01-.41.1zm-11.03.51c.103.037.21.058.32.06a1 1 0 00.33-1.91 13.555 13.555 0 01-2.52-1.19 1 1 0 00-1.35.33 1 1 0 00.33 1.34c.91.56 1.88 1.02 2.89 1.37zm4.18.84h.75a14.695 14.695 0 002.45-.23 1 1 0 00-.31-1.94 13.31 13.31 0 01-2.1.17h-.68a1.002 1.002 0 00-.11 2zm22.64-14.64h-3a1 1 0 110-2h3a1 1 0 010 2zm11.17-14.51a1 1 0 01-1-1V83a1 1 0 012 0v1.22a1 1 0 01-1.03.98h.03zM74.41 52.32c.699.1 1.404.15 2.11.15l.01-.01c.107 0 .213-.002.318-.003a7.35 7.35 0 01.752.013 1.002 1.002 0 00-.13-2c-.93.07-1.866.04-2.79-.09a1 1 0 10-.27 1.94zm-9.89-5.79a1 1 0 00.77.38 1 1 0 00.6-.16 1 1 0 00.18-1.38A12.234 12.234 0 0164.62 43a1 1 0 00-1.78.8 15.064 15.064 0 001.68 2.73zm-22.01-6.08a1 1 0 001 1h.04a1 1 0 00.92-.98V38.8a.87.87 0 01.22-.57 1 1 0 00-1.47-1.3 2.84 2.84 0 00-.71 1.87v1.65zM104.26 38h-3a1 1 0 010-2h3a1 1 0 010 2zm-10 0h3a1 1 0 000-2h-3a1 1 0 100 2zm-36.42 0h-3a1 1 0 110-2h3a1 1 0 010 2zm-10 0h3a1 1 0 000-2h-3a1 1 0 100 2z" clip-rule="evenodd"/><path fill="#A8E0F8" d="M173.76 38h-16.93a.35.35 0 00-.35.34 14.17 14.17 0 11-28.33 0 .34.34 0 00-.34-.34h-16.64a1.833 1.833 0 00-1.84 1.83v14.53a.34.34 0 01-.35.34h-.61c-7.826 0-14.17 6.344-14.17 14.17s6.344 14.17 14.17 14.17h.61a.34.34 0 01.35.34V97.9a1.831 1.831 0 001.84 1.83h16.64a.34.34 0 01.34.35v.12a14.171 14.171 0 0021.358 12.585 14.171 14.171 0 006.972-12.585v-.12a.35.35 0 01.34-.35h16.94a1.53 1.53 0 001.54-1.53V39.5a1.53 1.53 0 00-1.54-1.5z"/><path fill="#F0E0B4" d="M173.76 37h-16.93a.35.35 0 00-.35.34 14.17 14.17 0 11-28.33 0 .34.34 0 00-.34-.34h-16.64a1.833 1.833 0 00-1.84 1.83v14.53a.34.34 0 01-.35.34h-.61c-7.826 0-14.17 6.344-14.17 14.17s6.344 14.17 14.17 14.17h.61a.34.34 0 01.35.34V96.9a1.831 1.831 0 001.84 1.83h16.64a.34.34 0 01.34.35v.12a14.171 14.171 0 0021.358 12.585A14.171 14.171 0 00156.48 99.2v-.12a.35.35 0 01.34-.35h16.94a1.53 1.53 0 001.54-1.53V38.5a1.53 1.53 0 00-1.54-1.5z"/><path fill="#717790" fill-rule="evenodd" d="M127.18 99.71c.285 8.159 6.976 14.629 15.14 14.64 8.158-.011 14.845-6.477 15.13-14.63h16.31a2.51 2.51 0 002.52-2.51v-58.7a2.52 2.52 0 00-2.52-2.51h-16.93a1.33 1.33 0 00-1.33 1.32 13.192 13.192 0 01-19.885 11.725 13.192 13.192 0 01-6.485-11.725 1.32 1.32 0 00-1.32-1.32h-16.64a2.82 2.82 0 00-2.81 2.8v13.9c-8.367 0-15.15 6.783-15.15 15.15S99.993 83 108.36 83v13.9a2.82 2.82 0 002.82 2.81h16zm-17.27-18.35A1.36 1.36 0 00109 81l-.08.1h-.57c-7.285 0-13.19-5.905-13.19-13.19 0-7.285 5.905-13.19 13.19-13.19h.56a1.38 1.38 0 001-.36 1.34 1.34 0 00.41-1V38.8a.86.86 0 01.86-.85h16c.361 8.097 7.03 14.476 15.135 14.476s14.774-6.379 15.135-14.476h16.31a.56.56 0 01.56.55v58.7a.56.56 0 01-.56.55h-16.94a1.32 1.32 0 00-.94.4 1.341 1.341 0 00-.38.94v.11a13.192 13.192 0 01-19.885 11.725A13.192 13.192 0 01129.13 99.2v-.1a1.31 1.31 0 00-1.32-1.35h-16.64a.86.86 0 01-.86-.85V82.36a1.37 1.37 0 00-.4-1z" clip-rule="evenodd"/><path fill="#717790" d="M156.48 100.2a1 1 0 01-1-1v-.11a1.35 1.35 0 011.34-1.36h16.94a.54.54 0 00.54-.53V38.5a.54.54 0 00-.54-.53h-16.29c-.361 8.108-7.039 14.496-15.155 14.496s-14.794-6.388-15.155-14.496h-16a.84.84 0 00-.84.83v14.56a1.331 1.331 0 01-1.4 1.34h-.56c-7.274 0-13.17 5.896-13.17 13.17s5.896 13.17 13.17 13.17h.56a1.331 1.331 0 011.4 1.34V96.9c.006.46.38.83.84.83h16.64a1.34 1.34 0 011 .41c.263.264.401.628.38 1v.1a1.001 1.001 0 01-1.85.53h-16.16a2.84 2.84 0 01-2.84-2.83V83c-8.378 0-15.17-6.792-15.17-15.17s6.792-15.17 15.17-15.17V38.8a2.84 2.84 0 012.84-2.8h16.64c.74 0 1.34.6 1.34 1.34a13.17 13.17 0 1026.33 0 1.35 1.35 0 011.35-1.34h16.93a2.54 2.54 0 012.54 2.53v58.7a2.54 2.54 0 01-2.54 2.53h-16.43a.999.999 0 01-.85.44z"/><path fill="#A8E0F8" d="M175.3 114.81V98.09h-18.83c-.204-7.671-6.481-13.784-14.155-13.784-7.674 0-13.951 6.113-14.155 13.784h-16.63a2.2 2.2 0 00-2.2 2.19v57.38a2.2 2.2 0 002.2 2.19h63.77v-16.71c-7.677-.204-13.794-6.486-13.794-14.165 0-7.679 6.117-13.961 13.794-14.165z"/><path fill="#A8E0F8" d="M111 115.57c-.38 0-.77 0-1.15.05a.34.34 0 01-.36-.33v-14.71a1.47 1.47 0 00-1.46-1.46H91a.34.34 0 00-.34.34c-.204 7.677-6.486 13.794-14.165 13.794-7.68 0-13.961-6.117-14.165-13.794a.35.35 0 00-.34-.34H45a1.46 1.46 0 00-1.46 1.46v14.32a.938.938 0 01-.95.94 14.17 14.17 0 100 28.33 1 1 0 01.95.94v14.08a1.7 1.7 0 001.7 1.7h15.28a2 2 0 001.94-1.7 14.161 14.161 0 0128-.21 2.25 2.25 0 002.25 1.91h16.39a.34.34 0 00.34-.33v-16.37a.33.33 0 01.36-.33h1.15a14.173 14.173 0 0012.585-6.971 14.173 14.173 0 00-12.585-21.359l.05.04z"/><path fill="#fff" d="M174.47 114.81V98.09h-18.83c-.204-7.671-6.481-13.784-14.155-13.784-7.674 0-13.951 6.113-14.155 13.784H110.7a2.2 2.2 0 00-2.2 2.19v57.38a2.2 2.2 0 002.2 2.19h63.77v-16.71c-7.677-.204-13.794-6.486-13.794-14.165 0-7.679 6.117-13.961 13.794-14.165z"/><path fill="#F0E0B4" d="M111 114.57c-.38 0-.77 0-1.15.05a.34.34 0 01-.36-.33V99.58a1.47 1.47 0 00-1.46-1.46H91a.34.34 0 00-.34.34c-.204 7.677-6.486 13.794-14.165 13.794-7.68 0-13.961-6.117-14.165-13.794a.35.35 0 00-.34-.34H45a1.46 1.46 0 00-1.46 1.46v14.32a.938.938 0 01-.95.94 14.17 14.17 0 100 28.33 1 1 0 01.95.94v14.08a1.7 1.7 0 001.7 1.7h15.28a2 2 0 001.94-1.7 14.161 14.161 0 0128-.21 2.25 2.25 0 002.25 1.91h16.39a.34.34 0 00.34-.33v-16.37a.33.33 0 01.36-.33h1.15a14.173 14.173 0 0012.585-6.971 14.173 14.173 0 00-12.585-21.359l.05.04z"/><path fill="#717790" fill-rule="evenodd" d="M92.75 160.87h16.39a1.32 1.32 0 001.33-1.31v-15.69h.53a15.148 15.148 0 0013.444-22.832A15.15 15.15 0 00111 113.58h-.56v-14a2.45 2.45 0 00-2.44-2.44H91a1.33 1.33 0 00-1.31 1.33 13.19 13.19 0 11-26.37 0c0-.73-.59-1.324-1.32-1.33H45a2.44 2.44 0 00-2.45 2.44v14.28c-8.203.185-14.764 6.876-14.789 15.081-.024 8.206 6.497 14.935 14.699 15.169h.07v14.08c0 1.48 1.2 2.68 2.68 2.68h15.31a3 3 0 002.91-2.55 13.18 13.18 0 0112.967-11.43 13.18 13.18 0 0113.133 11.24 3.26 3.26 0 003.22 2.74zm-1.26-2.98a15.23 15.23 0 00-15-12.89 15.17 15.17 0 00-14.97 13.06 1 1 0 01-1 .85H45.25a.72.72 0 01-.72-.72v-14.08a1.93 1.93 0 00-1.94-1.91c-7.285 0-13.19-5.905-13.19-13.19 0-7.284 5.905-13.19 13.19-13.19a1.93 1.93 0 001.93-1.92V99.58a.48.48 0 01.48-.48h16.36c.36 8.097 7.03 14.476 15.135 14.476S91.269 107.197 91.63 99.1h16.39a.49.49 0 01.48.48v14.66a1.32 1.32 0 001.42 1.31h1.07c7.285 0 13.19 5.906 13.19 13.19 0 7.285-5.905 13.19-13.19 13.19-.18 0-.358-.012-.535-.025-.178-.012-.355-.025-.535-.025a1.3 1.3 0 00-1.42 1.31v15.77H92.77a1.28 1.28 0 01-1.28-1.07z" clip-rule="evenodd"/><path fill="#717790" d="M176.3 160.85h-64.77a3.2 3.2 0 01-3.2-3.19 1 1 0 012 0 1.193 1.193 0 001.2 1.19h62.77V144.1c-7.93-.577-14.069-7.179-14.069-15.13 0-7.951 6.139-14.553 14.069-15.13V99.09h-18.8v-1c0-7.268-5.892-13.16-13.16-13.16s-13.16 5.892-13.16 13.16v1h-17.6a1.19 1.19 0 00-1.2 1.19 1 1 0 01-2 0 3.2 3.2 0 013.2-3.19h15.69c.698-7.82 7.249-13.813 15.1-13.813 7.85 0 14.402 5.993 15.1 13.813h18.83v18.71h-1c-7.13.196-12.807 6.033-12.807 13.165 0 7.132 5.677 12.968 12.807 13.165h1v18.72z"/><path fill="#717790" fill-rule="evenodd" d="M92.75 160.89h16.39a1.34 1.34 0 001.35-1.31v-15.66h.51c8.378 0 15.17-6.792 15.17-15.17s-6.792-15.17-15.17-15.17h-.54v-14a2.47 2.47 0 00-2.46-2.46H91a1.35 1.35 0 00-1.33 1.35c-.197 7.13-6.033 12.807-13.165 12.807-7.132 0-12.968-5.677-13.165-12.807A1.37 1.37 0 0062 97.12H45a2.46 2.46 0 00-2.49 2.46v14.26a15.14 15.14 0 100 30.27v14.08a2.7 2.7 0 002.7 2.7h15.31a3 3 0 002.93-2.57 13.16 13.16 0 0126.06-.19 3.29 3.29 0 003.24 2.76zm-1.26-3.1a15.25 15.25 0 00-15-12.9v.04a15.19 15.19 0 00-14.97 13.12 1 1 0 01-1 .84H45.29a.7.7 0 01-.7-.7v-14.08a2 2 0 00-2-1.94 13.17 13.17 0 110-26.33 2 2 0 001.95-1.94V99.58a.46.46 0 01.46-.46h16.34c.36 8.108 7.04 14.496 15.155 14.496 8.116 0 14.794-6.388 15.155-14.496h16.39a.47.47 0 01.46.46v14.59c-.01.378.143.742.42 1a1.38 1.38 0 001 .36c.36-.05.71-.05 1.07-.05 7.274 0 13.17 5.896 13.17 13.17s-5.896 13.17-13.17 13.17h-1.06a1.339 1.339 0 00-1.45 1.33v15.7H92.75a1.26 1.26 0 01-1.26-1.06z" clip-rule="evenodd"/></svg>