<svg xmlns="http://www.w3.org/2000/svg" width="114" height="112" fill="none" viewBox="0 0 114 112"><mask id="fs-qmgx52275a" width="113" height="112" x="1" y="0" maskUnits="userSpaceOnUse"><path fill="url(#paint0_linear)" d="M57.539 111.287c30.73 0 55.643-24.912 55.643-55.643S88.27 0 57.539 0 1.895 24.913 1.895 55.644c0 30.73 24.913 55.643 55.644 55.643z"/></mask><g mask="url(#fs-qmgx52275a)"><path fill="url(#paint1_linear)" d="M57.19 110.637c30.924 0 55.992-24.767 55.992-55.318 0-30.552-25.068-55.32-55.992-55.32C26.266 0 1.198 24.768 1.198 55.32c0 30.551 25.068 55.318 55.992 55.318z"/><path fill="#fff" d="M76.177 29.737a4.015 4.015 0 00-4.015 4.015v136.51h140.526V29.737H76.178zm136.098 8.735h-8.392v-8.391h8.392v8.391zm-69.678 52.551v-8.391h8.391v8.391h-8.391zm8.391.413v8.392h-8.391v-8.392h8.391zm-8.735-.413h-8.392v-8.391h8.392v8.391zm0 .413v8.392h-8.392v-8.392h8.392zm-8.804 8.392h-8.392v-8.392h8.392v8.392zm0 .344v8.391h-8.392v-8.391h8.392zm.412 0h8.392v8.391h-8.392v-8.391zm8.392 8.735v8.392h-8.392v-8.392h8.392zm.344 0h8.391v8.392h-8.391v-8.392zm0-.344v-8.391h8.391v8.391h-8.391zm8.735-8.391h8.392v8.391h-8.392v-8.391zm0-.344v-8.392h8.392v8.392h-8.392zm0-8.805v-8.391h8.392v8.391h-8.392zm0-8.735v-8.392h8.392v8.392h-8.392zm-.344 0h-8.391v-8.392h8.391v8.392zm-8.735 0h-8.392v-8.392h8.392v8.392zm-8.804 0h-8.392v-8.392h8.392v8.392zm0 .344v8.391h-8.392v-8.391h8.392zm-8.736 8.391h-8.392v-8.391h8.392v8.391zm0 .413v8.392h-8.392v-8.392h8.392zm0 8.736v8.391h-8.392v-8.391h8.392zm0 8.735v8.392h-8.392v-8.392h8.392zm.344 0h8.392v8.392h-8.392v-8.392zm8.392 8.805v8.391h-8.392v-8.391h8.392zm.412 0h8.392v8.391h-8.392v-8.391zm8.736 0h8.391v8.391h-8.391v-8.391zm8.735 0h8.392v8.391h-8.392v-8.391zm0-.413v-8.392h8.392v8.392h-8.392zm8.805-8.392h8.391v8.392h-8.391v-8.392zm0-.344v-8.391h8.391v8.391h-8.391zm0-8.735v-8.392h8.391v8.392h-8.391zm0-8.805v-8.391h8.391v8.391h-8.391zm0-8.735v-8.392h8.391v8.392h-8.391zm0-8.736v-8.391h8.391v8.391h-8.391zm-.413 0h-8.392v-8.391h8.392v8.391zm-8.736 0h-8.391v-8.391h8.391v8.391zm-8.735 0h-8.392v-8.391h8.392v8.391zm-8.804 0h-8.392v-8.391h8.392v8.391zm-8.736 0h-8.392v-8.391h8.392v8.391zm0 .344v8.392h-8.392v-8.392h8.392zm-8.736 8.392h-8.391v-8.392h8.391v8.392zm0 .344v8.391h-8.391v-8.391h8.391zm0 8.804v8.392h-8.391v-8.392h8.391zm0 8.736v8.391h-8.391v-8.391h8.391zm0 8.735v8.392h-8.391v-8.392h8.391zm0 8.805v8.391h-8.391v-8.391h8.391zm.344 0h8.392v8.391h-8.392v-8.391zm8.392 8.735v8.392h-8.392v-8.392h8.392zm.344 0h8.392v8.392h-8.392v-8.392zm8.804 0h8.392v8.392h-8.392v-8.392zm8.736 0h8.391v8.392h-8.391v-8.392zm8.735 0h8.392v8.392h-8.392v-8.392zm8.805 0h8.391v8.392h-8.391v-8.392zm0-.344v-8.391h8.391v8.391h-8.391zm8.735-8.391h8.392v8.391h-8.392v-8.391zm0-.413v-8.392h8.392v8.392h-8.392zm0-8.736v-8.391h8.392v8.391h-8.392zm0-8.735v-8.392h8.392v8.392h-8.392zm0-8.805v-8.391h8.392v8.391h-8.392zm0-8.735v-8.392h8.392v8.392h-8.392zm0-8.736v-8.391h8.392v8.391h-8.392zm0-8.804v-8.392h8.392v8.392h-8.392zm-.344 0h-8.391v-8.392h8.391v8.392zm-8.804 0h-8.392v-8.392h8.392v8.392zm-8.736 0h-8.391v-8.392h8.391v8.392zm-8.735 0h-8.392v-8.392h8.392v8.392zm-8.804 0h-8.392v-8.392h8.392v8.392zm-8.736 0h-8.392v-8.392h8.392v8.392zm-8.736 0h-8.391v-8.392h8.391v8.392zm0 .413v8.391h-8.391v-8.391h8.391zm-8.804 8.391h-8.392v-8.391h8.392v8.391zm0 .344v8.392h-8.392v-8.392h8.392zm0 8.736v8.391h-8.392v-8.391h8.392zm0 8.804v8.392h-8.392v-8.392h8.392zm0 8.736v8.391h-8.392v-8.391h8.392zm0 8.735v8.392h-8.392v-8.392h8.392zm0 8.805v8.391h-8.392v-8.391h8.392zm0 8.735v8.392h-8.392v-8.392h8.392zm.413 0h8.391v8.392h-8.391v-8.392zm8.391 8.736v8.391h-8.391v-8.391h8.391zm.344 0h8.392v8.391h-8.392v-8.391zm8.736 0h8.392v8.391h-8.392v-8.391zm8.804 0h8.392v8.391h-8.392v-8.391zm8.736 0h8.391v8.391h-8.391v-8.391zm8.735 0h8.392v8.391h-8.392v-8.391zm8.805 0h8.391v8.391h-8.391v-8.391zm8.735 0h8.392v8.391h-8.392v-8.391zm0-.344v-8.392h8.392v8.392h-8.392zm8.736-8.392H186v8.392h-8.392v-8.392zm0-.344v-8.391H186v8.391h-8.392zm0-8.804v-8.392H186v8.392h-8.392zm0-8.736v-8.391H186v8.391h-8.392zm0-8.735v-8.392H186v8.392h-8.392zm0-8.805v-8.391H186v8.391h-8.392zm0-8.735v-8.392H186v8.392h-8.392zm0-8.736v-8.391H186v8.391h-8.392zm0-8.804v-8.392H186v8.392h-8.392zm0-8.736v-8.391H186v8.391h-8.392zm-.344 0h-8.392v-8.391h8.392v8.391zm-8.736 0h-8.391v-8.391h8.391v8.391zm-8.804 0h-8.392v-8.391h8.392v8.391zm-8.736 0h-8.391v-8.391h8.391v8.391zm-8.735 0h-8.392v-8.391h8.392v8.391zm-8.804 0h-8.392v-8.391h8.392v8.391zm-8.736 0h-8.392v-8.391h8.392v8.391zm-8.736 0h-8.391v-8.391h8.391v8.391zm-8.804 0h-8.392v-8.391h8.392v8.391zm0 .344v8.392h-8.392v-8.392h8.392zm-8.735 8.392h-8.392v-8.392h8.392v8.392zm0 .413v8.391h-8.392v-8.391h8.392zm0 8.735v8.392h-8.392v-8.392h8.392zm0 8.736v8.391h-8.392v-8.391h8.392zm0 8.804v8.392h-8.392v-8.392h8.392zm0 8.736v8.391h-8.392v-8.391h8.392zm0 8.735v8.392h-8.392v-8.392h8.392zm0 8.805v8.391h-8.392v-8.391h8.392zm0 8.735v8.392h-8.392v-8.392h8.392zm0 8.736v8.391h-8.392v-8.391h8.392zm.343 0h8.392v8.391h-8.392v-8.391zm8.392 8.804v8.392h-8.392v-8.392h8.392zm.413 0h8.391v8.392h-8.391v-8.392zm8.735 0h8.392v8.392h-8.392v-8.392zm8.736 0h8.392v8.392h-8.392v-8.392zm8.804 0h8.392v8.392h-8.392v-8.392zm8.736 0h8.391v8.392h-8.391v-8.392zm8.735 0h8.392v8.392h-8.392v-8.392zm8.805 0h8.391v8.392h-8.391v-8.392zm8.735 0h8.392v8.392h-8.392v-8.392zm8.736 0H186v8.392h-8.392v-8.392zm0-.413v-8.391H186v8.391h-8.392zm8.804-8.391h8.392v8.391h-8.392v-8.391zm0-.344v-8.392h8.392v8.392h-8.392zm0-8.736v-8.391h8.392v8.391h-8.392zm0-8.804v-8.392h8.392v8.392h-8.392zm0-8.736v-8.391h8.392v8.391h-8.392zm0-8.735v-8.392h8.392v8.392h-8.392zm0-8.805v-8.391h8.392v8.391h-8.392zm0-8.735v-8.392h8.392v8.392h-8.392zm0-8.736v-8.391h8.392v8.391h-8.392zm0-8.804v-8.392h8.392v8.392h-8.392zm0-8.736v-8.391h8.392v8.391h-8.392zm0-8.735v-8.392h8.392v8.392h-8.392zm-.412 0h-8.392v-8.392H186v8.392zm-8.736 0h-8.392v-8.392h8.392v8.392zm-8.736 0h-8.391v-8.392h8.391v8.392zm-8.804 0h-8.392v-8.392h8.392v8.392zm-8.736 0h-8.391v-8.392h8.391v8.392zm-8.735 0h-8.392v-8.392h8.392v8.392zm-8.804 0h-8.392v-8.392h8.392v8.392zm-8.736 0h-8.392v-8.392h8.392v8.392zm-8.736 0h-8.391v-8.392h8.391v8.392zm-8.804 0h-8.392v-8.392h8.392v8.392zm-8.735 0h-8.392v-8.392h8.392v8.392zm0 .344v8.391h-8.392v-8.391h8.392zm-8.736 8.391H81.31v-8.391h8.392v8.391zm0 .344v8.392H81.31v-8.392h8.392zm0 8.805v8.391H81.31v-8.391h8.392zm0 8.735v8.392H81.31v-8.392h8.392zm0 8.736v8.391H81.31v-8.391h8.392zm0 8.804v8.392H81.31v-8.392h8.392zm0 8.736v8.391H81.31v-8.391h8.392zm0 8.735v8.392H81.31v-8.392h8.392zm0 8.805v8.391H81.31v-8.391h8.392zm0 8.735v8.392H81.31v-8.392h8.392zm0 8.736v8.391H81.31v-8.391h8.392zm0 8.804v8.392H81.31v-8.392h8.392zm.344 0h8.392v8.392h-8.392v-8.392zm8.392 8.736v8.391h-8.392v-8.391h8.392zm.343 0h8.392v8.391h-8.392v-8.391zm8.805 0h8.391v8.391h-8.391v-8.391zm8.735 0h8.392v8.391h-8.392v-8.391zm8.736 0h8.392v8.391h-8.392v-8.391zm8.804 0h8.392v8.391h-8.392v-8.391zm8.736 0h8.391v8.391h-8.391v-8.391zm8.735 0h8.392v8.391h-8.392v-8.391zm8.805 0h8.391v8.391h-8.391v-8.391zm8.735 0h8.392v8.391h-8.392v-8.391zm8.736 0H186v8.391h-8.392v-8.391zm8.804 0h8.392v8.391h-8.392v-8.391zm0-.344v-8.392h8.392v8.392h-8.392zm8.736-8.392h8.391v8.392h-8.391v-8.392zm0-.413v-8.391h8.391v8.391h-8.391zm0-8.735v-8.392h8.391v8.392h-8.391zm0-8.736v-8.391h8.391v8.391h-8.391zm0-8.804v-8.392h8.391v8.392h-8.391zm0-8.736v-8.391h8.391v8.391h-8.391zm0-8.735v-8.392h8.391v8.392h-8.391zm0-8.805v-8.391h8.391v8.391h-8.391zm0-8.735v-8.392h8.391v8.392h-8.391zm0-8.736v-8.391h8.391v8.391h-8.391zm0-8.804v-8.392h8.391v8.392h-8.391zm0-8.736v-8.391h8.391v8.391h-8.391zm0-8.735v-8.392h8.391v8.392h-8.391zm0-8.805v-8.391h8.391v8.391h-8.391zm-.344 0h-8.392v-8.391h8.392v8.391zm-8.804 0h-8.392v-8.391H186v8.391zm-8.736 0h-8.392v-8.391h8.392v8.391zm-8.736 0h-8.391v-8.391h8.391v8.391zm-8.804 0h-8.392v-8.391h8.392v8.391zm-8.736 0h-8.391v-8.391h8.391v8.391zm-8.735 0h-8.392v-8.391h8.392v8.391zm-8.804 0h-8.392v-8.391h8.392v8.391zm-8.736 0h-8.392v-8.391h8.392v8.391zm-8.736 0h-8.391v-8.391h8.391v8.391zm-8.804 0h-8.392v-8.391h8.392v8.391zm-8.735 0h-8.392v-8.391h8.392v8.391zm-8.736 0H81.31v-8.391h8.392v8.391zm0 .413v8.392H81.31v-8.392h8.392zm-8.804 8.392h-8.392v-8.392h8.392v8.392zm0 .344v8.391h-8.392v-8.391h8.392zm0 8.735v8.392h-8.392v-8.392h8.392zm0 8.805v8.391h-8.392v-8.391h8.392zm0 8.735v8.392h-8.392v-8.392h8.392zm0 8.736v8.391h-8.392v-8.391h8.392zm0 8.804v8.392h-8.392v-8.392h8.392zm0 8.736v8.391h-8.392v-8.391h8.392zm0 8.735v8.392h-8.392v-8.392h8.392zm0 8.805v8.391h-8.392v-8.391h8.392zm0 8.735v8.392h-8.392v-8.392h8.392zm0 8.736v8.391h-8.392v-8.391h8.392zm0 8.804v8.392h-8.392v-8.392h8.392zm0 8.736v8.391h-8.392v-8.391h8.392zm.412 0h8.392v8.391H81.31v-8.391zm8.392 8.735v8.392H81.31v-8.392h8.392zm.344 0h8.392v8.392h-8.392v-8.392zm8.735 0h8.392v8.392h-8.392v-8.392zm8.805 0h8.391v8.392h-8.391v-8.392zm8.735 0h8.392v8.392h-8.392v-8.392zm8.736 0h8.392v8.392h-8.392v-8.392zm8.804 0h8.392v8.392h-8.392v-8.392zm8.736 0h8.391v8.392h-8.391v-8.392zm8.735 0h8.392v8.392h-8.392v-8.392zm8.805 0h8.391v8.392h-8.391v-8.392zm8.735 0h8.392v8.392h-8.392v-8.392zm8.736 0H186v8.392h-8.392v-8.392zm8.804 0h8.392v8.392h-8.392v-8.392zm8.736 0h8.391v8.392h-8.391v-8.392zm0-.344v-8.391h8.391v8.391h-8.391zm8.735-8.391h8.392v8.391h-8.392v-8.391zm0-.344v-8.392h8.392v8.392h-8.392zm0-8.805v-8.391h8.392v8.391h-8.392zm0-8.735v-8.392h8.392v8.392h-8.392zm0-8.736v-8.391h8.392v8.391h-8.392zm0-8.804v-8.392h8.392v8.392h-8.392zm0-8.736v-8.391h8.392v8.391h-8.392zm0-8.735v-8.392h8.392v8.392h-8.392zm0-8.805v-8.391h8.392v8.391h-8.392zm0-8.735v-8.392h8.392v8.392h-8.392zm0-8.736v-8.391h8.392v8.391h-8.392zm0-8.804v-8.392h8.392v8.392h-8.392zm0-8.736v-8.391h8.392v8.391h-8.392zm0-8.735v-8.392h8.392v8.392h-8.392zM80.898 30.08v8.391h-8.392v-4.376a4.015 4.015 0 014.015-4.015h4.377zm-8.392 131.377h8.392v8.392h-8.392v-8.392zm131.377 8.392v-8.392h8.392v8.392h-8.392z"/><path fill="url(#paint2_linear)" d="M.632 75.453h113.812v37.937H.632z"/></g><path fill="url(#paint3_radial)" d="M7.104 79.128a7.104 7.104 0 100-14.208 7.104 7.104 0 000 14.208z"/><path fill="url(#paint4_radial)" d="M2.995 71.677c-1.287-.792-1.609-2.599-.718-4.01.867-1.41 2.624-1.93 3.912-1.138 1.287.792 1.608 2.599.717 4.01-.89 1.435-2.648 1.93-3.91 1.138z" opacity=".5"/><path fill="url(#paint5_radial)" d="M102.687 31.384a5.422 5.422 0 100-10.844 5.422 5.422 0 000 10.844z"/><path fill="url(#paint6_linear)" d="M40.309 87.018a3.328 3.328 0 01-4.002-2.45l-4.015-16.789a3.328 3.328 0 012.451-4.002 3.328 3.328 0 014.002 2.452l4.028 16.788c.424 1.775-.689 3.577-2.465 4.001z"/><path fill="url(#paint7_linear)" d="M50.153 32.52a54.703 54.703 0 01-24.036 12.707 3.884 3.884 0 00-2.875 4.69l3.816 15.927a3.883 3.883 0 004.65 2.89 60.674 60.674 0 0127.429.158l18.749 4.465c2.822.676 5.366-1.868 4.69-4.69L71.209 21.19c-.69-2.875-4.214-3.962-6.413-1.974L50.153 32.52z"/><path fill="url(#paint8_linear)" stroke="#6BADFF" d="M80.95 44.071h0c1.828 7.634 2.602 14.738 2.384 20.045-.11 2.657-.466 4.834-1.045 6.394-.587 1.581-1.35 2.4-2.187 2.6-.838.199-1.89-.188-3.127-1.333-1.222-1.13-2.524-2.91-3.822-5.23-2.594-4.633-5.117-11.318-6.945-18.958h0c-1.827-7.634-2.601-14.739-2.383-20.045.109-2.657.466-4.834 1.045-6.394.586-1.581 1.35-2.4 2.187-2.6.838-.199 1.89.188 3.127 1.333 1.221 1.13 2.523 2.91 3.822 5.23 2.594 4.633 5.117 11.318 6.945 18.958z"/><path fill="url(#paint9_linear)" d="M26.674 64.228l-3.127.742a3.221 3.221 0 01-3.87-2.372l-1.59-6.678a3.221 3.221 0 012.372-3.869l3.128-.742 3.087 12.919z"/><path stroke="#75B2FF" stroke-linecap="round" stroke-miterlimit="10" stroke-width="1.06" d="M29.986 51.481l2.32 9.686m2.212-10.759l2.306 9.686" opacity=".6"/><path fill="url(#paint10_linear)" d="M69.075 54.224l-1.405.278-.199-.437c-1.457-4.624-2.544-9.143-3.246-13.98l1.405-.33a7.401 7.401 0 018.93 5.485c.954 3.962-1.497 8.03-5.485 8.984z"/><g filter="url(#filter0_i)"><path fill="url(#paint11_linear)" d="M97.086 71.378c-.036-.01-.074-.016-.101-.042-.562-.537 1.1-7.843 1.257-8.389.804-2.774 2.134-5.473 4.273-7.453 1.515-1.401 5.56-4.143 7.659-2.532 1.769 1.36.112 4.776-.704 6.204-1.462 2.54-3.616 4.598-5.456 6.85-1.098 1.347-2.201 2.72-3.298 4.067-.072.093-.628.882-1.043 1.395-.267.33-.653.39-1.064.286l-1.523-.386z"/></g><g filter="url(#filter1_i)"><path fill="url(#paint12_linear)" d="M99.488 73.6c.898.193 1.698-.57 1.51-1.469-1.031-4.946-4.448-17.843-11.685-15.493-6.577 2.159 7.558 14.878 9.606 16.68.164.144.355.236.569.282z"/></g><path fill="#77FFE4" fill-opacity=".2" d="M91.283 59.209s8.464 11.047 8.56 13.384l-8.56-13.384zm16.389-4.068s-6.955 8.872-7.71 12.81l7.71-12.81z"/><path fill="url(#paint13_linear)" d="M90.882 71.418a1.73 1.73 0 011.723-1.896h11.729c1.021 0 1.82.88 1.722 1.896l-1.307 13.558a1.73 1.73 0 01-1.722 1.564h-9.115a1.73 1.73 0 01-1.722-1.564l-1.308-13.558z"/><g filter="url(#filter2_i)"><rect width="16.661" height="4.102" x="90.139" y="69.522" fill="url(#paint14_linear)" rx=".865"/></g><defs><linearGradient id="paint0_linear" x1="57.539" x2="57.539" y1="0" y2="111.287" gradientUnits="userSpaceOnUse"><stop stop-color="#B5EFFF"/><stop offset="1" stop-color="#E7F8FE"/></linearGradient><linearGradient id="paint1_linear" x1="57.19" x2="57.19" y1="0" y2="110.637" gradientUnits="userSpaceOnUse"><stop stop-color="#B5EFFF"/><stop offset="1" stop-color="#EDFBFF"/></linearGradient><linearGradient id="paint2_linear" x1="50.694" x2="66.39" y1="75.453" y2="123.129" gradientUnits="userSpaceOnUse"><stop stop-color="#7FD3E9"/><stop offset="1" stop-color="#7FD3E9" stop-opacity="0"/></linearGradient><linearGradient id="paint6_linear" x1="37.532" x2="37.532" y1="63.687" y2="87.109" gradientUnits="userSpaceOnUse"><stop stop-color="#4392F4"/><stop offset="1" stop-color="#3470BB"/></linearGradient><linearGradient id="paint7_linear" x1="52.91" x2="52.91" y1="18.205" y2="73.467" gradientUnits="userSpaceOnUse"><stop stop-color="#4392F4"/><stop offset="1" stop-color="#368FFF"/></linearGradient><linearGradient id="paint8_linear" x1="73.579" x2="73.579" y1="18" y2="73.66" gradientUnits="userSpaceOnUse"><stop stop-color="#0049A5"/><stop offset="1" stop-color="#3470BB"/></linearGradient><linearGradient id="paint9_linear" x1="22.337" x2="22.337" y1="51.309" y2="65.058" gradientUnits="userSpaceOnUse"><stop stop-color="#4392F4"/><stop offset="1" stop-color="#3470BB"/></linearGradient><linearGradient id="paint10_linear" x1="69.496" x2="69.496" y1="39.549" y2="54.502" gradientUnits="userSpaceOnUse"><stop stop-color="#4BBEFF"/><stop offset="1" stop-color="#4BBEFF" stop-opacity="0"/></linearGradient><linearGradient id="paint11_linear" x1="113.002" x2="97.309" y1="52.773" y2="66.866" gradientUnits="userSpaceOnUse"><stop stop-color="#BAFFF1" stop-opacity=".26"/><stop offset=".682" stop-color="#4DC7AE"/><stop offset=".969" stop-color="#06896F"/></linearGradient><linearGradient id="paint12_linear" x1="106.021" x2="96.477" y1="58.243" y2="74.315" gradientUnits="userSpaceOnUse"><stop stop-color="#B7FDEF"/><stop offset=".682" stop-color="#09B794"/><stop offset=".969" stop-color="#7EE0CC"/></linearGradient><linearGradient id="paint13_linear" x1="106.239" x2="91.809" y1="80.725" y2="80.725" gradientUnits="userSpaceOnUse"><stop offset=".099" stop-color="#FFEEC5"/><stop offset=".607" stop-color="#FACD63"/><stop offset=".839" stop-color="#EAAF23"/><stop offset=".984" stop-color="#EDB52F"/></linearGradient><linearGradient id="paint14_linear" x1="106.8" x2="91.328" y1="72.222" y2="72.222" gradientUnits="userSpaceOnUse"><stop offset=".099" stop-color="#FFEEC5"/><stop offset=".607" stop-color="#FCBD27"/><stop offset=".984" stop-color="#EFB222"/></linearGradient><radialGradient id="paint3_radial" cx="0" cy="0" r="1" gradientTransform="rotate(-15.177 261.403 20.598) scale(13.5476)" gradientUnits="userSpaceOnUse"><stop stop-color="#FFF1CF"/><stop offset=".188" stop-color="#FFE4A2"/><stop offset=".318" stop-color="#FFD364"/><stop offset=".49" stop-color="#FFD364"/><stop offset=".651" stop-color="#FFC73A"/><stop offset=".948" stop-color="#D09500"/></radialGradient><radialGradient id="paint4_radial" cx="0" cy="0" r="1" gradientTransform="rotate(121.889 -16.915 35.832) scale(2.96701 2.70207)" gradientUnits="userSpaceOnUse"><stop stop-color="#fff"/><stop offset=".694" stop-color="#fff" stop-opacity="0"/></radialGradient><radialGradient id="paint5_radial" cx="0" cy="0" r="1" gradientTransform="rotate(-15.177 139.27 -363.821) scale(10.3404)" gradientUnits="userSpaceOnUse"><stop stop-color="#E6C6FF"/><stop offset=".188" stop-color="#C07DF5"/><stop offset=".318" stop-color="#BE6FFC"/><stop offset=".49" stop-color="#B56AF0"/><stop offset=".651" stop-color="#A745F4"/><stop offset=".948" stop-color="#9F3DED"/></radialGradient><filter id="filter0_i" width="14.92" height="19.657" x="96.87" y="52.153" color-interpolation-filters="sRGB" filterUnits="userSpaceOnUse"><feFlood flood-opacity="0" result="BackgroundImageFix"/><feBlend in="SourceGraphic" in2="BackgroundImageFix" result="shape"/><feColorMatrix in="SourceAlpha" result="hardAlpha" values="0 0 0 0 0 0 0 0 0 0 0 0 0 0 0 0 0 0 127 0"/><feOffset dx=".83" dy="-.317"/><feGaussianBlur stdDeviation="1.081"/><feComposite in2="hardAlpha" k2="-1" k3="1" operator="arithmetic"/><feColorMatrix values="0 0 0 0 0.113056 0 0 0 0 0.616667 0 0 0 0 0.58645 0 0 0 1 0"/><feBlend in2="shape" result="effect1_innerShadow"/></filter><filter id="filter1_i" width="14.274" height="17.593" x="87.582" y="56.037" color-interpolation-filters="sRGB" filterUnits="userSpaceOnUse"><feFlood flood-opacity="0" result="BackgroundImageFix"/><feBlend in="SourceGraphic" in2="BackgroundImageFix" result="shape"/><feColorMatrix in="SourceAlpha" result="hardAlpha" values="0 0 0 0 0 0 0 0 0 0 0 0 0 0 0 0 0 0 127 0"/><feOffset dx=".83" dy="-.317"/><feGaussianBlur stdDeviation="1.081"/><feComposite in2="hardAlpha" k2="-1" k3="1" operator="arithmetic"/><feColorMatrix values="0 0 0 0 0.0996528 0 0 0 0 0.683333 0 0 0 0 0.555806 0 0 0 1 0"/><feBlend in2="shape" result="effect1_innerShadow"/></filter><filter id="filter2_i" width="17.007" height="4.361" x="90.139" y="69.263" color-interpolation-filters="sRGB" filterUnits="userSpaceOnUse"><feFlood flood-opacity="0" result="BackgroundImageFix"/><feBlend in="SourceGraphic" in2="BackgroundImageFix" result="shape"/><feColorMatrix in="SourceAlpha" result="hardAlpha" values="0 0 0 0 0 0 0 0 0 0 0 0 0 0 0 0 0 0 127 0"/><feOffset dx=".346" dy="-.26"/><feGaussianBlur stdDeviation=".303"/><feComposite in2="hardAlpha" k2="-1" k3="1" operator="arithmetic"/><feColorMatrix values="0 0 0 0 0.833333 0 0 0 0 0.604343 0 0 0 0 0.0555555 0 0 0 1 0"/><feBlend in2="shape" result="effect1_innerShadow"/></filter></defs></svg>