<svg xmlns="http://www.w3.org/2000/svg" width="210" height="210" fill="none" viewBox="0 0 210 210"><path fill="#F1F3F8" fill-rule="evenodd" d="M109.44 179.22l56.33-56.33a9 9 0 0112.72 12.72l-56.33 56.33a9 9 0 01-12.72-12.72zM14.8 133.76l8.71-8.71a9.005 9.005 0 019.955-2.209 8.989 8.989 0 015.628 8.503 9.001 9.001 0 01-2.863 6.426l-8.71 8.71a8.988 8.988 0 01-6.426 2.863 9.017 9.017 0 01-3.53-.653 9.003 9.003 0 01-2.765-14.93z" clip-rule="evenodd"/><path fill="#F1F3F8" fill-rule="evenodd" d="M113.45 150.29l25.74-25.74a9 9 0 0012.72 12.71L126.16 163a8.992 8.992 0 002.93-6.44 8.998 8.998 0 00-2.632-6.568 8.99 8.99 0 00-6.565-2.636 9.01 9.01 0 00-6.443 2.924M102.44 111.07L126.56 87a9 9 0 0012.72 12.72l-24.12 24.12a9 9 0 00-12.72-12.72" clip-rule="evenodd"/><path fill="#F1F3F8" fill-rule="evenodd" d="M93.9 144.53l70.37-70.37A9 9 0 01177 86.87l-70.37 70.38a8.996 8.996 0 01-12.59-.13 8.999 8.999 0 01-.14-12.59zM24.75 163.61l95.8-95.8a9.008 9.008 0 016.443-2.924 8.996 8.996 0 018.553 5.65 8.984 8.984 0 01.643 3.554 8.993 8.993 0 01-2.929 6.44l-95.79 95.79a8.998 8.998 0 01-15.071-6.435 9 9 0 012.351-6.275zM41.69 100.54L77.23 65A9.008 9.008 0 1190 77.71l-35.6 35.55a9 9 0 01-12.71-12.72zM100.49 41.74l.21-.21a9 9 0 0112.72 12.72l-.22.21a8.999 8.999 0 01-12.71 0 9 9 0 010-12.72zM73.22 164.61l.21-.21a8.993 8.993 0 016.44-2.929 9.001 9.001 0 018.402 12.717 9.008 9.008 0 01-2.122 2.922l-.21.22a9.002 9.002 0 01-12.72 0 9 9 0 010-12.72z" clip-rule="evenodd"/><path fill="#717790" fill-rule="evenodd" d="M194.44 196.47a4.875 4.875 0 011.84-.26c.621 0 1.241.061 1.85.18a.561.561 0 010 1.09 9.651 9.651 0 01-1.85.18 4.895 4.895 0 01-1.84-.26.493.493 0 01-.336-.465.494.494 0 01.336-.465zM25.91 196.49c6.91-.2 13.82-.23 20.73-.23H171c6.91 0 13.81 0 20.72.2.14.018.268.087.36.193a.576.576 0 010 .764.574.574 0 01-.36.193c-6.91.18-13.81.19-20.72.2H46.64c-6.91 0-13.82 0-20.73-.23a.434.434 0 01-.403-.288.452.452 0 01.403-.602M21.83 196.28c.09-.01.18-.01.27 0h.13c.05.011.098.032.14.06a.69.69 0 01.18.95c-.05.07-.11.13-.18.18a.421.421 0 01-.14.06h-.13c-.09.01-.18.01-.27 0a.679.679 0 01-.42-.294.673.673 0 01-.09-.506.65.65 0 01.51-.51M15.19 196.46a6.244 6.244 0 011.34-.18c.454-.04.91.001 1.35.12a.56.56 0 01.37.7.589.589 0 01-.37.37c-.44.119-.896.16-1.35.12a6.244 6.244 0 01-1.34-.18.476.476 0 01-.303-.225.478.478 0 01-.047-.375.458.458 0 01.35-.35zM89.72 205.31c2.16-.2 4.31-.23 6.47-.23h6.47l12.94-.08H135c2.16 0 4.32 0 6.47.2a.576.576 0 01.512.395.59.59 0 01.028.225.61.61 0 01-.54.54c-2.15.17-4.31.18-6.47.19h-19.4l-12.94-.07h-6.47c-2.16 0-4.31 0-6.47-.23a.453.453 0 01-.383-.445.451.451 0 01.383-.445M68.43 205.28c2.21-.12 4.42-.16 6.63-.18 2.21-.02 4.42 0 6.63.12a.543.543 0 01.467.535.538.538 0 01-.467.535c-2.21.14-4.42.15-6.63.12s-4.42-.06-6.63-.18a.467.467 0 01-.46-.5.49.49 0 01.46-.45z" clip-rule="evenodd"/><path fill="#C8D6EC" d="M188.28 160a2.718 2.718 0 01-2.513-1.679A2.72 2.72 0 11188.28 160zm0-3.43a.717.717 0 00-.705.864.71.71 0 00.2.368.719.719 0 001.225-.522.72.72 0 00-.72-.73v.02zM5.36 78.94a1 1 0 01-1-1v-8.5a1 1 0 012 0v8.5a1 1 0 01-1 1z"/><path fill="#C8D6EC" d="M9.61 74.69h-8.5a1 1 0 110-2h8.5a1 1 0 010 2zM60.68 69.62a2.72 2.72 0 110-5.44 2.72 2.72 0 010 5.44zm0-3.43a.72.72 0 100 1.44.72.72 0 000-1.44zM188.82 106.82a2.718 2.718 0 01-2.513-1.679 2.72 2.72 0 112.513 1.679zm0-3.43a.717.717 0 00-.705.864.718.718 0 00.988.518.72.72 0 00.437-.672.717.717 0 00-.211-.506.713.713 0 00-.509-.204zM93.49 61.49a1.09 1.09 0 01-.5-.13 1 1 0 01-.47-.61l-.83-3.06a1 1 0 01.7-1.23l3.06-.84a1 1 0 011.23.7l.84 3.07a1 1 0 01-.7 1.23l-3.07.83a.75.75 0 01-.26.04zm.39-3.37l.31 1.14 1.13-.26-.32-1.18-1.12.3zM38.39 122.65a2.998 2.998 0 01-2.772-1.852 2.998 2.998 0 012.187-4.09 2.998 2.998 0 012.706 5.063 2.999 2.999 0 01-2.121.879zm0-4a1 1 0 100 1.999 1 1 0 000-1.999z"/><path fill="#CED6DE" d="M114.37 149.08h-.08c-.63-.11-1.33-.24-2.09-.4a.494.494 0 01-.317-.214.495.495 0 01-.073-.376.522.522 0 01.59-.39c.75.16 1.44.29 2.06.39a.5.5 0 01.277.885.5.5 0 01-.367.115v-.01zm-4.13-.84h-.11c-.66-.16-1.35-.32-2.07-.51a.517.517 0 01.049-1.01.524.524 0 01.201.01c.71.19 1.39.35 2 .5a.508.508 0 01.315.221.504.504 0 01.065.379.511.511 0 01-.45.41zm-4.08-1.06a.33.33 0 01-.14 0c-.67-.19-1.35-.39-2-.61a.5.5 0 01-.33-.63.5.5 0 01.63-.32l2 .6a.496.496 0 01.422.369.518.518 0 01-.05.382.496.496 0 01-.306.236.518.518 0 01-.196.013l-.03-.04zm-4-1.27a.539.539 0 01-.17 0c-.66-.23-1.32-.48-2-.74a.5.5 0 01-.026-.921.49.49 0 01.386-.009c.66.25 1.31.5 2 .72a.507.507 0 01.31.64.504.504 0 01-.52.31h.02zm-3.93-1.53a.45.45 0 01-.2 0c-.65-.27-1.29-.56-1.94-.87a.492.492 0 01-.282-.282.5.5 0 01.315-.661.512.512 0 01.397.043c.63.3 1.27.58 1.9.85a.512.512 0 01.27.66.5.5 0 01-.48.26h.02zm-3.81-1.8c-.08 0-.16-.02-.23-.06-.63-.32-1.25-.67-1.87-1a.51.51 0 01-.18-.69.52.52 0 01.69-.18c.6.35 1.21.69 1.82 1a.498.498 0 01.074.831.502.502 0 01-.304.109v-.01zm-3.64-2.11a.537.537 0 01-.27-.08c-.6-.39-1.19-.79-1.76-1.21a.5.5 0 11.59-.81c.56.41 1.13.8 1.71 1.18a.502.502 0 01.15.69.505.505 0 01-.44.23h.02zM87.36 138a.483.483 0 01-.32-.11c-.56-.46-1.1-.94-1.61-1.42a.495.495 0 01-.109-.54.508.508 0 01.464-.308.506.506 0 01.355.148c.49.46 1 .92 1.56 1.37a.498.498 0 01-.036.788.499.499 0 01-.284.092l-.02-.02zm-3.06-2.89a.501.501 0 01-.37-.16c-.49-.53-1-1.08-1.38-1.64a.506.506 0 01-.152-.386.505.505 0 01.19-.368.505.505 0 01.6-.013.494.494 0 01.142.157c.42.53.87 1.06 1.34 1.57a.51.51 0 010 .71.502.502 0 01-.37.11v.02zm-2.58-3.31a.511.511 0 01-.42-.23c-.39-.6-.76-1.22-1.09-1.85a.5.5 0 01.21-.67.492.492 0 01.382-.041.495.495 0 01.298.241c.303.61.637 1.204 1 1.78a.5.5 0 01-.15.69.528.528 0 01-.23.06v.02zm-2-3.71a.512.512 0 01-.46-.31 21.093 21.093 0 01-.72-2 .51.51 0 01.33-.63.497.497 0 01.62.33c.199.658.433 1.306.7 1.94a.499.499 0 01-.19.58.41.41 0 01-.24.07l-.04.02zm-1.22-4a.509.509 0 01-.49-.4c-.14-.7-.25-1.41-.33-2.12a.503.503 0 111-.11c.08.68.18 1.36.32 2a.51.51 0 01-.39.59l-.11.04zm-.47-4.18a.502.502 0 01-.5-.48v-.66-1.49a.495.495 0 01.167-.345.504.504 0 01.552-.076.508.508 0 01.255.287.5.5 0 01.026.194v2.06a.494.494 0 01-.298.471.488.488 0 01-.192.039h-.01zM122 119a.513.513 0 01-.5-.5c0-.133.053-.26.146-.354A.504.504 0 01122 118c.71 0 1.41 0 2.09-.05.133 0 .26.053.354.146a.504.504 0 010 .707.5.5 0 01-.354.147c-.7 0-1.4 0-2.12.05h.03zm-2.1 0c-.69 0-1.4 0-2.12-.07a.5.5 0 01-.345-.161.502.502 0 01-.125-.359.475.475 0 01.158-.348.473.473 0 01.362-.122l2.09.06c.133 0 .26.053.354.146a.504.504 0 010 .707.5.5 0 01-.354.147h-.02zm6.31-.14a.5.5 0 010-1c.7 0 1.4-.1 2.07-.17a.495.495 0 01.368.103.475.475 0 01.125.15.499.499 0 01-.383.737c-.69.07-1.4.13-2.12.18h-.06zm-10.51 0c-.69 0-1.39-.1-2.11-.17a.49.49 0 01-.45-.54.498.498 0 01.54-.45l2.09.17a.498.498 0 01.437.337.486.486 0 01.023.193.49.49 0 01-.56.4l.03.06zm-4.2-.38c-.69-.08-1.39-.16-2.1-.26a.484.484 0 01-.42-.365.492.492 0 01-.01-.195.484.484 0 01.188-.334.498.498 0 01.372-.096l2.08.26a.498.498 0 01.47.53.498.498 0 01-.53.47l-.05-.01zm18.89 0a.49.49 0 01-.364-.122.5.5 0 01-.049-.707.5.5 0 01.343-.171c.71-.09 1.39-.2 2.06-.32a.51.51 0 01.586.608.51.51 0 01-.406.392c-.68.12-1.38.24-2.1.34l-.07-.02zm-23.06-.55h-.07l-2.09-.34a.504.504 0 01-.42-.58.504.504 0 01.58-.42l2.07.33a.5.5 0 01.465.535.5.5 0 01-.535.465v.01zm27.2-.2a.503.503 0 01-.49-.39.51.51 0 01.38-.6c.69-.15 1.36-.32 2-.5a.497.497 0 01.61.35.512.512 0 01-.35.62c-.67.18-1.35.35-2.06.51l-.09.01zm-31.35-.5h-.09c-.69-.13-1.38-.26-2.08-.41a.5.5 0 01-.317-.208.503.503 0 01-.073-.372.508.508 0 01.59-.4c.7.14 1.38.28 2.06.4a.5.5 0 01.4.58.49.49 0 01-.52.35l.03.06zm35.4-.61a.506.506 0 01-.322-.887.487.487 0 01.172-.093c.67-.22 1.32-.45 1.95-.7a.51.51 0 01.65.29.498.498 0 01-.29.64c-.64.25-1.31.49-2 .72a.454.454 0 01-.19-.03l.03.06zM99 116.34h-.1c-.68-.14-1.37-.3-2.06-.46a.496.496 0 01-.386-.404.5.5 0 01.006-.196.503.503 0 01.6-.37l2 .46a.49.49 0 01.22.85.498.498 0 01-.28.12zm-20.72-.65h-.07a.49.49 0 01-.43-.56c.09-.69.2-1.4.34-2.11a.488.488 0 01.59-.39.477.477 0 01.394.386c.012.064.01.13-.004.194-.13.69-.24 1.38-.33 2a.502.502 0 01-.47.48h-.02zm16.62-.29h-.12l-2-.51a.511.511 0 01-.36-.61.492.492 0 01.23-.307.505.505 0 01.38-.053l2 .51a.51.51 0 01.37.61.5.5 0 01-.48.36h-.02zm47.55-.37a.509.509 0 01-.605-.395.509.509 0 01.395-.605c.64-.29 1.26-.6 1.85-.92a.495.495 0 01.557.057.51.51 0 01.18.339.485.485 0 01-.021.193.483.483 0 01-.246.291c-.61.33-1.24.65-1.91 1a.475.475 0 01-.18.01l-.02.03zm-51.63-.68h-.13l-2-.56a.515.515 0 01-.379-.433.517.517 0 01.649-.567c.68.2 1.36.38 2 .56a.503.503 0 01.243.899.503.503 0 01-.373.101h-.01zm-4-1.15a.366.366 0 01-.14 0l-2-.6a.508.508 0 01-.33-.63.497.497 0 01.62-.33l2 .6a.498.498 0 01.34.62.49.49 0 01-.52.34h.03zm59.38-.16a.496.496 0 01-.479-.359.5.5 0 01.209-.561c.59-.37 1.17-.76 1.72-1.16a.5.5 0 11.59.81c-.57.41-1.17.81-1.78 1.19a.418.418 0 01-.29.04l.03.04zM82.77 112h-.16l-2-.65a.491.491 0 01-.32-.63.499.499 0 01.63-.32l2 .65a.497.497 0 01.29.243.493.493 0 01.03.377.484.484 0 01-.47.33zm-3.67-.42H79a.511.511 0 01-.36-.61 2.73 2.73 0 00.07-.27h-.08l-2-.68a.504.504 0 01.33-.95l2 .68c.08-.27.16-.54.25-.82a.519.519 0 01.447-.369.515.515 0 01.383.114.535.535 0 01.19.352.525.525 0 01-.02.203c-.22.68-.41 1.34-.58 2a.49.49 0 01-.53.32v.03zm70.47-1a.533.533 0 01-.208-.045.532.532 0 01-.172-.125.51.51 0 01.06-.71c.52-.44 1-.91 1.53-1.39a.484.484 0 01.54-.109c.06.025.114.062.16.109a.486.486 0 01.109.163.488.488 0 010 .384.497.497 0 01-.109.163c-.51.49-1 1-1.59 1.44a.485.485 0 01-.32.11v.01zm-74.78-1.28a.485.485 0 01-.17 0c-.66-.24-1.32-.47-2-.72a.487.487 0 01-.332-.447.487.487 0 01.032-.193.502.502 0 01.64-.3l2 .72a.507.507 0 01.31.64.518.518 0 01-.48.29v.01zm-4-1.45a.485.485 0 01-.17 0l-2-.74a.508.508 0 01-.28-.65.484.484 0 01.259-.28.497.497 0 01.381-.01l2 .74a.501.501 0 01.29.65.502.502 0 01-.44.28l-.04.01zm81.74-.21a.523.523 0 01-.33-.12.51.51 0 01-.05-.71c.46-.514.894-1.052 1.3-1.61a.51.51 0 01.7-.1.5.5 0 01.1.7c-.42.57-.87 1.13-1.34 1.67a.519.519 0 01-.34.16l-.04.01zm-72.19-.09a.481.481 0 01-.2 0 .503.503 0 01-.302-.469.497.497 0 01.042-.191c.16-.38.45-1 .89-2a.502.502 0 01.9.44c-.43.87-.72 1.53-.87 1.9a.511.511 0 01-.42.31l-.04.01zm-13.48-1.2a.603.603 0 01-.18 0l-2-.78a.492.492 0 01-.275-.267.498.498 0 01.263-.654.509.509 0 01.382-.009c.65.27 1.3.52 2 .78a.501.501 0 01.29.64.507.507 0 01-.44.28l-.04.01zM63 104.78a.605.605 0 01-.19 0l-1.95-.8a.495.495 0 01-.31-.467.502.502 0 01.69-.463l2 .8a.49.49 0 01.27.65.5.5 0 01-.51.28zm92.09-.53a.53.53 0 01-.27-.07.503.503 0 01-.15-.69c.36-.58.71-1.19 1-1.79a.498.498 0 01.919.075.51.51 0 01-.029.385c-.33.63-.69 1.25-1.07 1.86a.484.484 0 01-.41.23h.01zm-72.86-.51a.518.518 0 01-.383-.183.506.506 0 01-.114-.369.497.497 0 01.057-.188c.31-.57.66-1.19 1-1.85a.498.498 0 01.656-.138.5.5 0 01.204.638c-.38.65-.72 1.26-1 1.83a.513.513 0 01-.43.26h.01zm-23.12-.57a.481.481 0 01-.2 0l-1.91-.86a.5.5 0 01.016-.927.5.5 0 01.384.007l1.93.82a.512.512 0 01.403.396.51.51 0 01-.593.604l-.03-.04zm-3.83-1.74a.485.485 0 01-.3-.1c-.34-.26-.92-.71-1.67-1.34a.49.49 0 01-.06-.7.5.5 0 01.7-.07c.74.62 1.31 1.06 1.64 1.31a.5.5 0 01-.091.848.504.504 0 01-.229.052h.01zm101.72-.91a.755.755 0 01-.19 0 .518.518 0 01-.27-.66c.27-.64.51-1.29.71-1.93a.525.525 0 01.65-.35.523.523 0 01.35.65c-.22.67-.47 1.35-.74 2a.513.513 0 01-.51.29zm-72.65-.42a.5.5 0 01-.42-.77c.36-.567.75-1.157 1.17-1.77a.5.5 0 01.7-.13.51.51 0 01.13.69c-.41.6-.8 1.18-1.16 1.75a.485.485 0 01-.41.23h-.01zM52 98.73a.5.5 0 01-.33-.13c-.49-.43-1-.91-1.57-1.43a.51.51 0 010-.71.5.5 0 01.71 0c.55.51 1.06 1 1.55 1.41a.5.5 0 01-.34.88l-.02-.02zm34.73-2.11a.53.53 0 01-.3-.09.51.51 0 01-.11-.7c.41-.56.84-1.12 1.29-1.69a.5.5 0 01.71-.08.5.5 0 01.08.7c-.45.56-.87 1.11-1.27 1.66a.51.51 0 01-.38.2h-.02zm71.52-.13h-.1a.5.5 0 01-.39-.59c.07-.36.1-.57.1-.58v-.43-1a.501.501 0 111-.06v1.5c0 .05 0 .28-.12.71a.49.49 0 01-.47.45h-.02zM49 95.84a.5.5 0 01-.35-.15c-.48-.48-1-1-1.48-1.52a.5.5 0 11.72-.69c.5.533.99 1.033 1.47 1.5a.51.51 0 010 .71.51.51 0 01-.36.15zm40.41-2.52a.5.5 0 01-.41-.82c.45-.53.92-1.07 1.41-1.6a.491.491 0 01.81.163.5.5 0 01-.11.547c-.48.52-.94 1-1.39 1.56a.491.491 0 01-.36.15h.05zm-43.31-.55a.5.5 0 01-.37-.16c-.46-.52-.93-1-1.39-1.61a.49.49 0 01.06-.7.51.51 0 01.71.06c.45.55.91 1.07 1.37 1.58a.51.51 0 010 .71.54.54 0 01-.43.12h.05zm112.07-.47a.49.49 0 01-.49-.41 16.319 16.319 0 00-.47-2 .508.508 0 01.33-.63.501.501 0 01.62.33c.21.693.38 1.397.51 2.11a.5.5 0 01-.41.57l-.09.03zm-65.96-2.09a.5.5 0 01-.36-.85c.49-.5 1-1 1.52-1.48a.5.5 0 01.71 0 .481.481 0 010 .7c-.51.49-1 1-1.49 1.46a.49.49 0 01-.38.17zm-48.86-.67a.499.499 0 01-.4-.19c-.43-.55-.86-1.11-1.28-1.69a.5.5 0 11.81-.59c.41.57.83 1.12 1.26 1.67a.5.5 0 01-.09.7.49.49 0 01-.3.1zm113.54-1.25a.49.49 0 01-.45-.29 17.382 17.382 0 00-1-1.81.502.502 0 11.86-.52c.374.618.708 1.26 1 1.92a.5.5 0 01-.41.7zm-61.62-1a.46.46 0 01-.37-.18.49.49 0 010-.7c.53-.46 1.08-.92 1.63-1.37a.52.52 0 01.71.08.49.49 0 01-.08.7c-.55.44-1.08.89-1.6 1.34a.46.46 0 01-.29.17v-.04zm-54.41-1.15a.49.49 0 01-.41-.22c-.39-.58-.78-1.18-1.16-1.79a.49.49 0 01.17-.68.479.479 0 01.68.16c.37.59.75 1.18 1.14 1.75a.5.5 0 01-.14.69.47.47 0 01-.28.09zm113.86-1.44a.497.497 0 01-.4-.19A19.363 19.363 0 00153 83a.491.491 0 01-.148-.355.491.491 0 01.503-.499.51.51 0 01.355.144c.5.517.97 1.061 1.41 1.63a.503.503 0 01-.09.7.492.492 0 01-.31.08zm-56.16 0a.51.51 0 01-.41-.2.51.51 0 01.11-.7c.56-.42 1.14-.83 1.73-1.23a.501.501 0 01.7.13.51.51 0 01-.14.7c-.58.39-1.15.79-1.7 1.2a.46.46 0 01-.29.09v.01zm-59.91-2.15a.5.5 0 01-.44-.25c-.34-.62-.68-1.24-1-1.88a.5.5 0 01.23-.67.491.491 0 01.67.22c.31.62.64 1.24 1 1.84a.492.492 0 01-.46.74zm63.35-.22a.519.519 0 01-.43-.24.509.509 0 01.17-.69 37.457 37.457 0 011.83-1.08.504.504 0 01.49.88c-.62.34-1.21.69-1.8 1a.5.5 0 01-.26.13zm49.76-.66a.49.49 0 01-.32-.12c-.51-.43-1-.86-1.63-1.27a.507.507 0 01.032-.836.49.49 0 01.558.026c.59.42 1.16.87 1.69 1.32a.51.51 0 01.05.71.52.52 0 01-.34.17h-.04zm-46.09-1.4a.509.509 0 01-.45-.27.498.498 0 01.074-.552.508.508 0 01.156-.118c.62-.32 1.26-.62 1.91-.92a.5.5 0 01.571.799.49.49 0 01-.161.11c-.63.29-1.26.59-1.87.9a.48.48 0 01-.19.05h-.04zm42.68-1.06a.478.478 0 01-.26-.07c-.58-.36-1.19-.7-1.81-1a.498.498 0 01-.22-.67.522.522 0 01.68-.22c.64.33 1.27.69 1.87 1a.513.513 0 01.17.69.528.528 0 01-.39.27h-.04zm-111.59-.42a.51.51 0 01-.46-.3c-.28-.64-.55-1.3-.8-2a.498.498 0 01.472-.714.501.501 0 01.458.354c.25.65.51 1.29.79 1.92a.502.502 0 01-.26.66.45.45 0 01-.2.08zm72.78-.25a.512.512 0 01-.46-.31.502.502 0 01.28-.65c.65-.26 1.31-.51 2-.75a.527.527 0 01.33 1c-.66.23-1.31.47-2 .73a.579.579 0 01-.15-.02zm35.1-1.25a.705.705 0 01-.2 0c-1.11-.48-1.83-.69-1.84-.7a.53.53 0 01-.309-.23c-.071-.114-.096-.25-.071-.38a.443.443 0 01.357-.375.44.44 0 01.183.005h.09c.681.207 1.349.454 2 .74a.502.502 0 01.273.268.483.483 0 01-.2.599.506.506 0 01-.283.073zm-31.13-.14a.504.504 0 11-.14-1c.67-.21 1.35-.4 2-.57a.516.516 0 01.558.769.511.511 0 01-.318.23c-.68.18-1.34.36-2 .56a.386.386 0 01-.1.01zm27.08-1h-.09c-.7-.13-1.38-.25-2.06-.35a.497.497 0 01-.42-.57.503.503 0 01.375-.411.5.5 0 01.195-.01l2.09.36a.503.503 0 01.277.886.507.507 0 01-.367.115v-.02zm-23 0a.5.5 0 01-.49-.39.509.509 0 01.39-.6c.68-.14 1.38-.27 2.08-.39a.51.51 0 01.58.41.513.513 0 01-.41.58c-.69.11-1.38.24-2 .38l-.15.01zm18.84-.62h-.06c-.7-.08-1.39-.16-2.08-.22a.5.5 0 01-.455-.545.503.503 0 01.545-.455c.7.07 1.4.14 2.11.23a.5.5 0 11-.06 1v-.01zm-14.69-.07a.5.5 0 11-.07-1c.7-.09 1.4-.16 2.12-.22a.51.51 0 01.54.45.51.51 0 01-.271.487.501.501 0 01-.189.053c-.7.06-1.39.14-2.07.22l-.06.01zm10.5-.32l-2.12-.14a.501.501 0 110-1l2.12.09a.5.5 0 110 1v.05zm-6.31 0a.501.501 0 110-1c.7 0 1.41-.06 2.12-.07a.5.5 0 110 1c-.7 0-1.39 0-2.08.06l-.04.01zm-90.65-.19a.5.5 0 01-.48-.35c-.21-.68-.41-1.36-.58-2.05a.51.51 0 01.37-.61.5.5 0 01.6.37c.17.67.36 1.33.56 2a.5.5 0 01-.32.63l-.15.01zm-1-4.08a.49.49 0 01-.49-.41c-.13-.71-.23-1.42-.31-2.12a.497.497 0 01.262-.493.5.5 0 01.188-.057.49.49 0 01.55.44c.07.68.17 1.37.29 2a.5.5 0 01-.4.58l-.09.06zm-.45-4.18a.5.5 0 01-.5-.48v-1-1.18a.52.52 0 01.52-.48.51.51 0 01.48.52v2.07a.503.503 0 01-.48.52l-.02.03zM34 62.4h-.06a.499.499 0 01-.44-.56c.08-.7.2-1.41.33-2.11a.5.5 0 01.91-.187.51.51 0 01.08.377c-.14.667-.25 1.333-.33 2a.5.5 0 01-.49.48zm.81-4.12h-.13a.492.492 0 01-.35-.62c.19-.67.4-1.36.64-2a.5.5 0 01.925-.053.51.51 0 01.025.383c-.24.65-.45 1.32-.63 2a.5.5 0 01-.48.29zm1.41-4a.478.478 0 01-.2 0 .51.51 0 01-.26-.66c.29-.64.6-1.29.93-1.92a.49.49 0 01.823-.097.502.502 0 01.057.557c-.32.61-.62 1.24-.89 1.86a.5.5 0 01-.46.3v-.04zm1.94-3.73a.48.48 0 01-.26-.07.489.489 0 01-.17-.68c.36-.6.74-1.2 1.15-1.8a.503.503 0 11.83.57c-.4.58-.77 1.16-1.12 1.74a.5.5 0 01-.43.28v-.04zm2.36-3.47a.489.489 0 01-.39-.8c.42-.55.86-1.11 1.33-1.66a.49.49 0 01.7-.06.49.49 0 01.06.7 46.1 46.1 0 00-1.3 1.62.49.49 0 01-.4.24v-.04zm2.71-3.21a.47.47 0 01-.33-.14.48.48 0 010-.7c.473-.507.963-1.017 1.47-1.53a.5.5 0 01.854.355.51.51 0 01-.144.355c-.51.5-1 1-1.45 1.5a.52.52 0 01-.4.2v-.04zm3-3a.51.51 0 01-.37-.17.5.5 0 010-.7c.51-.47 1-.94 1.58-1.41a.51.51 0 01.71.05.492.492 0 010 .7c-.54.47-1.06.93-1.56 1.39a.51.51 0 01-.38.21l.02-.07zm3.19-2.75A.48.48 0 0149 38a.488.488 0 01.07-.7l1.68-1.3a.51.51 0 01.788.275.492.492 0 01-.188.525c-.56.43-1.11.86-1.64 1.29a.51.51 0 01-.31.1l.02-.07zm3.35-2.55a.51.51 0 01-.41-.2.51.51 0 01.11-.7c.57-.41 1.15-.81 1.74-1.21a.5.5 0 01.56.82c-.58.4-1.16.8-1.71 1.2a.52.52 0 01-.31.16l.02-.07zm3.48-2.36a.51.51 0 01-.43-.23.5.5 0 01.15-.69c.59-.38 1.18-.76 1.79-1.13a.5.5 0 01.69.16.51.51 0 01-.16.69c-.61.37-1.2.74-1.77 1.12a.56.56 0 01-.29.15l.02-.07zM59.83 31a.5.5 0 01-.26-.93c.6-.35 1.21-.71 1.84-1.06a.5.5 0 01.722.578.51.51 0 01-.232.302c-.62.34-1.23.69-1.82 1a.47.47 0 01-.27.18l.02-.07zm3.64-2a.5.5 0 01-.497-.446.489.489 0 01.267-.484c.61-.34 1.23-.66 1.86-1a.51.51 0 01.68.21.5.5 0 01-.22.67l-1.85 1a.41.41 0 01-.24.05zm3.74-1.93a.52.52 0 01-.45-.28.5.5 0 01.22-.67l1.9-.93a.5.5 0 11.43.9l-1.88.91a.46.46 0 01-.22.07zM71 25.24a.5.5 0 01-.21-.95l1.92-.88a.5.5 0 01.41.91l-1.91.87a.41.41 0 01-.21.05zm3.84-1.72a.51.51 0 11-.2-1l1.94-.83a.52.52 0 01.66.27.5.5 0 01-.27.65l-1.97.87a.449.449 0 01-.16.04zm3.88-1.63a.5.5 0 01-.5-.5.491.491 0 01.31-.46l2-.79a.51.51 0 01.65.28.501.501 0 01-.28.65l-2 .78a.41.41 0 01-.18.04zm3.92-1.54a.52.52 0 01-.47-.33.5.5 0 01.29-.64l2-.75a.52.52 0 01.65.3.5.5 0 01-.3.64l-2 .74a.58.58 0 01-.17.04zm3.94-1.47a.52.52 0 01-.47-.33.5.5 0 01.3-.64l2-.71a.5.5 0 11.33.94l-2 .71a.468.468 0 01-.16.03zm4-1.4a.5.5 0 01-.16-.97l2-.68a.5.5 0 01.63.32.49.49 0 01-.31.63l-2 .68-.16.02zm4-1.33a.5.5 0 01-.447-.73.51.51 0 01.287-.25l2-.64a.499.499 0 01.63.33.49.49 0 01-.33.62l-2 .65-.14.02zm4-1.27a.51.51 0 01-.48-.35.51.51 0 01.33-.63l2-.61a.49.49 0 01.62.33.501.501 0 01-.33.62l-2 .62-.14.02zm4-1.22a.504.504 0 11-.14-1l2-.58a.489.489 0 01.62.34.5.5 0 01-.34.62l-2 .58a.318.318 0 01-.13.04h-.01zm4-1.16a.504.504 0 11-.14-1l2-.56a.521.521 0 01.545.184.514.514 0 01-.094.726.515.515 0 01-.181.09l-2 .56a.293.293 0 01-.07 0h-.06zm4.06-1.11a.504.504 0 11-.13-1l1.8-.48a.515.515 0 11.25 1l-1.79.48h-.13z"/><path fill="#DAE1E7" fill-rule="evenodd" d="M73.48 127.55H71.5v-2h-1.33v2h-1.98v1.33h1.98v2.01h1.33v-2.01h1.98v-1.33z" clip-rule="evenodd"/><path fill="#fff" d="M114.81 12.58a3.29 3.29 0 100-6.58 3.29 3.29 0 000 6.58z"/><path fill="#CED6DE" d="M114.81 13.08a3.792 3.792 0 01-3.501-2.34 3.791 3.791 0 014.951-4.952 3.785 3.785 0 012.34 3.502 3.789 3.789 0 01-3.79 3.79zm0-6.58a2.79 2.79 0 100 5.58 2.79 2.79 0 000-5.58z"/><path fill="#A9E0D0" d="M164.22 101.75h-89.7v73.29h89.7v-73.29z"/><path fill="#717790" d="M165.22 176h-91.7v-75.25h91.7V176zm-89.7-2h87.7v-71.25h-87.7V174z"/><path fill="#A9E0D0" d="M136.28 101.75h-89.7v73.29h89.7v-73.29z"/><path fill="#717790" d="M137.28 176h-91.7v-75.25h91.7V176zm-89.7-2h87.7v-71.25h-87.7V174z"/><path fill="#A9E0D0" d="M136.28 101.75l22.4-20.8h27.51l-21.97 20.8h-27.94z"/><path fill="#717790" d="M164.61 102.75h-30.88L158.28 80h30.42l-24.09 22.75zm-25.79-2h25L183.68 82h-24.61l-20.25 18.75z"/><path fill="#A9E0D0" d="M74.94 101.75l-22.4-20.8H25.02L47 101.75h27.94z"/><path fill="#717790" d="M77.49 102.75H46.6L22.51 80h30.42l24.56 22.75zm-30.09-2h25L52.14 82h-24.6l19.86 18.75z"/><g fill="#717790" opacity=".3"><path d="M98.25 118.61c14.558 0 26.36-11.802 26.36-26.36s-11.802-26.36-26.36-26.36-26.36 11.802-26.36 26.36 11.802 26.36 26.36 26.36z" opacity=".3"/><path d="M120.31 131.54a.995.995 0 01-.87-.5l-11.53-20a1.005 1.005 0 111.74-1l11.52 20a.997.997 0 01-.37 1.36 1.004 1.004 0 01-.49.14z" opacity=".3"/><path d="M123.104 126.918a4.23 4.23 0 10-7.331 4.222l4.671 8.111a4.23 4.23 0 007.331-4.222l-4.671-8.111z" opacity=".3"/></g><path fill="#fff" d="M101.05 114.59c14.558 0 26.36-11.802 26.36-26.36s-11.802-26.36-26.36-26.36-26.36 11.802-26.36 26.36 11.802 26.36 26.36 26.36z"/><path fill="#717790" d="M101.09 115.6a27.402 27.402 0 01-7.187-53.86 27.402 27.402 0 0132.429 15.973A27.396 27.396 0 01114.7 111.94a27.283 27.283 0 01-13.61 3.66zM101 62.87a25.37 25.37 0 1022 12.7 25.208 25.208 0 00-22-12.7z"/><path fill="#717790" d="M123.1 127.52a1.007 1.007 0 01-.497-.135 1.008 1.008 0 01-.363-.365l-8.9-15.45a.997.997 0 01.386-1.329 1 1 0 011.344.329L124 126a.999.999 0 01-.87 1.49l-.03.03z"/><path fill="#fff" d="M125.904 122.897a4.23 4.23 0 10-7.331 4.222l4.671 8.111a4.23 4.23 0 007.331-4.222l-4.671-8.111z"/><path fill="#717790" d="M126.91 138.35a5.243 5.243 0 01-4.54-2.62l-4.67-8.11a5.243 5.243 0 01-.712-1.949 5.248 5.248 0 011.004-3.943 5.221 5.221 0 013.525-2.031 5.22 5.22 0 013.913 1.11 5.21 5.21 0 011.33 1.593l4.68 8.11a5.25 5.25 0 01-1.93 7.15 5.201 5.201 0 01-2.6.69zm-4.68-16.56a3.226 3.226 0 00-3.118 2.389 3.23 3.23 0 00.318 2.451l4.68 8.12a3.23 3.23 0 005.913-.781 3.23 3.23 0 00-.323-2.449l-4.7-8.12a3.224 3.224 0 00-2-1.51 3.455 3.455 0 00-.77-.11v.01zM101.05 101.53a1 1 0 11.55-1.83.603.603 0 01.15.12 1.005 1.005 0 01.127 1.265.997.997 0 01-.827.445zM101.05 94.65a.999.999 0 01-1-1V74.18a.998.998 0 011.707-.707.998.998 0 01.293.707v19.47a.998.998 0 01-1 1z"/></svg>