<svg xmlns="http://www.w3.org/2000/svg" width="210" height="210" fill="none" viewBox="0 0 210 210"><path fill="#fff" d="M209.93.21H.14V210h209.79V.21z" opacity=".01"/><path fill="#fff" d="M209.93.21H.14V210h209.79V.21z" opacity=".01"/><g fill="#D6DEEA" fill-rule="evenodd" clip-rule="evenodd" opacity=".7"><path d="M113.12 180.21l56.33-56.33a9 9 0 0112.72 12.72l-56.33 56.33a9 9 0 01-12.72-12.72zm-94.64-45.46l8.71-8.75a9.003 9.003 0 0112.435.275 9 9 0 01.285 12.435l-8.71 8.72a9.003 9.003 0 01-12.948.228 8.989 8.989 0 01-2.635-6.522 9 9 0 012.863-6.426" opacity=".7"/><path d="M117.12 151.28l25.75-25.75a9 9 0 0012.72 12.72L129.84 164a9.005 9.005 0 002.279-9.995 9.008 9.008 0 00-8.559-5.645 8.997 8.997 0 00-6.44 2.93m-11-39.23l24.12-24.12a9.008 9.008 0 00.025 12.735A9.007 9.007 0 00143 100.65l-24.12 24.13a9 9 0 00-12.72-12.72" opacity=".7"/><path d="M97.58 145.52L168 75.14a9.002 9.002 0 0114.806 9.798 9.008 9.008 0 01-2.086 2.922l-70.38 70.38a9 9 0 01-12.71-12.72m-69.2 19.07l95.79-95.79a9 9 0 0112.72 12.72l-95.79 95.79a9 9 0 01-12.72-12.72zm16.93-63.06L80.91 66a9 9 0 0112.72 12.7l-35.55 35.55a9 9 0 01-12.72-12.72zm58.8-58.8l.22-.21a9.002 9.002 0 0115.066 6.447 8.994 8.994 0 01-2.356 6.273l-.21.21a9 9 0 01-12.72 0 9.002 9.002 0 010-12.72zM76.9 165.6l.21-.22a9 9 0 0112.72 12.72l-.22.21a9.001 9.001 0 01-12.71 0 9 9 0 010-12.71z" opacity=".7"/></g><path fill="#717790" fill-rule="evenodd" d="M198.11 197.45a4.943 4.943 0 011.85-.25c.621 0 1.241.061 1.85.18a.558.558 0 01.42.66.528.528 0 01-.42.42 8.913 8.913 0 01-1.85.18 4.745 4.745 0 01-1.85-.25.512.512 0 01-.28-.65.53.53 0 01.28-.29zm-168.52.03c6.91-.2 13.82-.24 20.72-.23h124.37c6.9 0 13.81 0 20.72.19a.59.59 0 01.57.6.579.579 0 01-.57.56c-6.91.18-13.82.19-20.72.2H50.31c-6.9 0-13.81 0-20.72-.23a.434.434 0 01-.403-.288.437.437 0 01-.027-.172.432.432 0 01.43-.43m-4.08-.41a.816.816 0 01.27 0h.13c.05.011.098.032.14.06a.679.679 0 01.18.94.662.662 0 01-.18.19l-.14.06h-.13c-.09.01-.18.01-.27 0a.674.674 0 01-.52-.545.672.672 0 01.01-.265.646.646 0 01.51-.5m-6.64.23c.44-.106.889-.163 1.34-.17.454-.04.911.001 1.35.12a.548.548 0 01.291.863.548.548 0 01-.29.197 3.664 3.664 0 01-1.35.13 6.181 6.181 0 01-1.34-.18.481.481 0 01-.306-.225.48.48 0 01-.055-.375.519.519 0 01.36-.36zm74.53 8.86c2.16-.2 4.31-.23 6.47-.23h6.47l12.94-.07h19.4c2.16 0 4.32 0 6.47.19a.581.581 0 01.53.63.569.569 0 01-.53.53c-2.15.18-4.31.19-6.47.2h-19.4l-12.94-.06h-6.47c-2.16 0-4.31 0-6.47-.23a.452.452 0 01-.383-.445.45.45 0 01.383-.445m-21.29-.11c2.21-.11 4.42-.15 6.63-.17 2.21-.02 4.42 0 6.63.12a.543.543 0 01.467.535.54.54 0 01-.467.535c-2.21.14-4.42.14-6.63.12-2.21-.02-4.42-.06-6.63-.18a.48.48 0 01-.46-.5.499.499 0 01.46-.46z" clip-rule="evenodd"/><path fill="#C8D6EC" d="M192 161a2.725 2.725 0 01-2.513-1.679A2.72 2.72 0 11192 161zm0-3.44a.723.723 0 00-.665.444.723.723 0 00.156.785.72.72 0 001.229-.509.711.711 0 00-.2-.529.723.723 0 00-.52-.221v.03zM9 79.93a1 1 0 01-1-1v-8.5a1 1 0 012 0v8.5a1 1 0 01-1 1z"/><path fill="#C8D6EC" d="M13.29 75.68h-8.5a1 1 0 110-2h8.5a1 1 0 110 2zm51.07-5.07a2.72 2.72 0 110-5.44 2.72 2.72 0 010 5.44zm0-3.43a.72.72 0 100 1.43.72.72 0 100-1.43zm128.14 40.63a2.725 2.725 0 01-2.513-1.679 2.72 2.72 0 112.513 1.679zm0-3.44a.72.72 0 100 1.44.72.72 0 000-1.44zM97.17 62.48a1 1 0 01-.5-.14 1 1 0 01-.47-.6l-.84-3.07a1 1 0 01.71-1.22l3.06-.84a1 1 0 011.23.7l.84 3.07a1 1 0 01-.71 1.22l-3.06.84a1.27 1.27 0 01-.26.04zm.39-3.37l.31 1.14 1.13-.31-.31-1.14-1.13.31zm-55.49 64.53a2.998 2.998 0 01-2.772-1.852 2.998 2.998 0 012.187-4.09 2.998 2.998 0 012.706 5.063 2.999 2.999 0 01-2.121.879zm0-4a1 1 0 100 1.998 1 1 0 000-1.998z"/><path fill="#CED6DE" d="M118.05 150.06H118c-.63-.11-1.33-.24-2.09-.4a.508.508 0 01-.4-.6.512.512 0 01.6-.4l2.06.39a.522.522 0 01.188.055.518.518 0 01.246.295.495.495 0 01-.034.383.518.518 0 01-.295.246.497.497 0 01-.195.021l-.03.01zm-4.13-.83h-.12l-2.06-.5a.509.509 0 01-.317-.235.511.511 0 01.028-.572.52.52 0 01.539-.193l2 .5a.496.496 0 01.312.222.493.493 0 01.058.378.503.503 0 01-.44.4zm-4.09-1.06a.366.366 0 01-.14 0c-.66-.19-1.34-.39-2-.61a.523.523 0 11.31-1c.68.22 1.35.42 2 .61a.508.508 0 01.43.57.506.506 0 01-.57.43h-.03zm-4-1.28a.43.43 0 01-.16 0c-.66-.23-1.32-.47-2-.73a.49.49 0 01-.304-.259.508.508 0 01-.017-.4.51.51 0 01.281-.284.514.514 0 01.4.013l2 .72a.51.51 0 01.31.64.518.518 0 01-.53.3h.02zm-3.93-1.52a.435.435 0 01-.19 0c-.65-.28-1.3-.57-1.94-.87a.5.5 0 01.046-.926.51.51 0 01.384.016c.63.3 1.27.59 1.9.86a.5.5 0 01.164.109.497.497 0 01.096.551.511.511 0 01-.48.26h.02zm-3.81-1.8a.528.528 0 01-.23-.06c-.62-.33-1.25-.67-1.86-1a.51.51 0 01-.053-.838.496.496 0 01.553-.032c.61.35 1.21.69 1.83 1a.502.502 0 01.21.67.51.51 0 01-.47.26h.02zm-3.63-2.12a.434.434 0 01-.27-.08c-.6-.38-1.19-.79-1.76-1.21a.494.494 0 01-.196-.523.51.51 0 01.786-.287c.56.41 1.13.81 1.71 1.18a.501.501 0 01.15.69.505.505 0 01-.44.23h.02zM91 139a.507.507 0 01-.31-.11c-.56-.46-1.1-.94-1.61-1.42a.502.502 0 11.69-.73c.49.47 1 .93 1.55 1.38a.489.489 0 01.07.7.499.499 0 01-.39.18zm-3-2.89a.516.516 0 01-.37-.16c-.49-.54-1-1.08-1.39-1.64a.495.495 0 01-.062-.571.501.501 0 01.852-.039c.42.53.87 1.06 1.34 1.57a.51.51 0 010 .71.459.459 0 01-.37.1v.03zm-2.58-3.31a.506.506 0 01-.42-.23c-.39-.6-.76-1.23-1.09-1.85a.51.51 0 01.21-.68.519.519 0 01.68.21c.303.61.636 1.204 1 1.78a.5.5 0 01-.15.69.526.526 0 01-.25.05l.02.03zm-2-3.72a.49.49 0 01-.46-.3c-.27-.67-.52-1.35-.72-2a.48.48 0 01.33-.62.501.501 0 01.62.33c.2.65.43 1.3.69 1.93a.502.502 0 01-.27.66.615.615 0 01-.17-.03l-.02.03zm-1.22-4a.49.49 0 01-.49-.4c-.14-.69-.26-1.4-.34-2.11a.5.5 0 01.445-.555.516.516 0 01.37.108.497.497 0 01.185.337c.071.672.178 1.339.32 2a.498.498 0 01-.39.59l-.1.03zm-.47-4.17a.499.499 0 01-.5-.49v-2.14a.5.5 0 111 .06v2.06a.493.493 0 01-.49.51h-.01zm43.9-.87a.513.513 0 01-.5-.5.5.5 0 01.5-.5h2.09a.512.512 0 01.52.48.527.527 0 01-.03.193.506.506 0 01-.45.327h-2.13zm-2.1 0c-.69 0-1.4 0-2.12-.07a.5.5 0 110-1l2.09.06a.501.501 0 010 1l.03.01zm6.31-.14a.5.5 0 110-1l2.08-.17a.498.498 0 01.369.108.499.499 0 01.078.707.504.504 0 01-.337.185c-.69.07-1.4.13-2.12.18l-.07-.01zm-10.52 0c-.69-.05-1.39-.1-2.11-.17a.485.485 0 01-.339-.175.483.483 0 01-.111-.365.497.497 0 01.54-.45c.71.06 1.4.12 2.09.16a.49.49 0 01.342.174.506.506 0 01.118.366.493.493 0 01-.51.35l-.02.11zm-4.19-.38h-.05c-.69-.08-1.39-.16-2.1-.26a.5.5 0 01-.422-.369.498.498 0 01.05-.382.496.496 0 01.306-.236.516.516 0 01.196-.013c.7.09 1.4.18 2.08.25a.51.51 0 01.44.56.51.51 0 01-.48.34l-.02.11zm18.89 0a.49.49 0 01-.364-.122.5.5 0 01-.049-.707.5.5 0 01.343-.171c.71-.09 1.39-.2 2.06-.32a.508.508 0 01.18 1c-.68.12-1.38.24-2.1.33l-.07-.01zm-23.02-.66h-.08l-2.08-.34a.497.497 0 01-.325-.198.477.477 0 01-.08-.178.47.47 0 01-.005-.194.475.475 0 01.196-.329.484.484 0 01.374-.081l2.07.33a.496.496 0 01.332.195.494.494 0 01.088.375.504.504 0 01-.49.42zm27.2-.2a.5.5 0 01-.555-.445.503.503 0 01.445-.555c.69-.15 1.36-.32 2-.5a.523.523 0 01.391.055.508.508 0 01.25.516.506.506 0 01-.2.341.516.516 0 01-.181.088c-.67.19-1.35.36-2.06.52l-.09-.02zm-31.35-.5h-.09c-.69-.12-1.38-.26-2.08-.4a.503.503 0 01-.391-.395.492.492 0 01.217-.509c.11-.073.244-.1.374-.076.69.14 1.38.28 2.06.4a.522.522 0 01.188.055.518.518 0 01.246.295.495.495 0 01-.034.383.518.518 0 01-.295.246.497.497 0 01-.195.021v-.02zm35.4-.61a.499.499 0 01-.47-.35.499.499 0 01.31-.63c.68-.22 1.33-.46 2-.7a.501.501 0 01.664.671.514.514 0 01-.304.259c-.64.25-1.31.49-2 .72a.449.449 0 01-.22.03h.02zm-39.53-.22h-.1l-2.06-.46a.493.493 0 01-.315-.221.506.506 0 01-.065-.379.502.502 0 01.6-.37l2 .45a.504.504 0 01-.11 1l.05-.02zM82 116.67h-.06a.498.498 0 01-.43-.56c.09-.69.2-1.4.34-2.11a.509.509 0 111 .19c-.13.69-.24 1.37-.33 2a.502.502 0 01-.52.48zm16.63-.28h-.12l-2-.51a.508.508 0 01-.276-.786.504.504 0 01.33-.195.513.513 0 01.196.011l2 .51a.509.509 0 01.37.6.52.52 0 01-.53.37h.03zm47.55-.37a.509.509 0 01-.605-.395.509.509 0 01.395-.605c.64-.29 1.26-.6 1.85-.92a.495.495 0 01.557.057.51.51 0 01.159.532.479.479 0 01-.246.291c-.61.33-1.24.65-1.91 1a.486.486 0 01-.23.02l.03.02zm-51.63-.68h-.13l-2-.57a.5.5 0 01-.35-.61.508.508 0 01.62-.35l2 .56a.513.513 0 01.334.192.51.51 0 01.038.559.507.507 0 01-.502.249l-.01-.03zm-4-1.15h-.14l-2-.61a.53.53 0 01-.311-.249.523.523 0 01.205-.707.51.51 0 01.396-.044l2 .6a.498.498 0 01.34.62.492.492 0 01-.57.39h.08zm59.38-.16a.499.499 0 01-.49-.617.511.511 0 01.22-.313c.59-.36 1.17-.75 1.72-1.15a.517.517 0 01.373-.09.504.504 0 01.417.573.504.504 0 01-.2.327c-.57.41-1.17.81-1.78 1.19a.503.503 0 01-.34.05l.08.03zM86.45 113h-.16l-2-.65a.523.523 0 11.31-1l2 .64a.5.5 0 01.32.63.477.477 0 01-.47.38zm-3.67-.42h-.13a.499.499 0 01-.36-.61c.028-.089.051-.179.07-.27h-.08l-2-.68a.534.534 0 01-.305-.263.528.528 0 01.635-.737l2 .68c.08-.27.16-.55.25-.82a.512.512 0 01.63-.33.5.5 0 01.32.63c-.21.68-.4 1.34-.57 2a.496.496 0 01-.46.36v.04zm70.47-1a.498.498 0 01-.479-.627.495.495 0 01.159-.253c.52-.44 1-.91 1.53-1.39a.498.498 0 01.679.031.501.501 0 01.021.679c-.51.5-1 1-1.59 1.44a.492.492 0 01-.32.1v.02zm-74.78-1.29a.485.485 0 01-.17 0l-2-.72a.488.488 0 01-.333-.447.49.49 0 01.033-.193.497.497 0 01.64-.3l2 .71a.51.51 0 01.31.64.5.5 0 01-.48.29v.02zm-4-1.44a.485.485 0 01-.17 0c-.66-.24-1.31-.49-2-.75a.497.497 0 01-.252-.632.498.498 0 01.612-.298l2 .74a.507.507 0 11-.18 1l-.01-.06zm81.74-.21a.48.48 0 01-.33-.13.484.484 0 01-.109-.54.484.484 0 01.109-.16c.46-.52.89-1.06 1.3-1.61a.51.51 0 01.7-.1.502.502 0 01.1.7c-.42.57-.87 1.13-1.34 1.67a.517.517 0 01-.39.15l-.04.02zm-72.2-.09a.672.672 0 01-.19 0 .522.522 0 01-.27-.66c.17-.38.46-1 .9-2a.5.5 0 01.943.251.49.49 0 01-.053.189c-.42.87-.71 1.52-.86 1.9a.514.514 0 01-.43.3l-.04.02zm-13.47-1.2c-.06.01-.12.01-.18 0l-2-.78a.482.482 0 01-.279-.265.49.49 0 01-.001-.385.508.508 0 01.65-.28l2 .77a.491.491 0 01.27.59.483.483 0 01-.42.33l-.04.02zm-3.91-1.56a.435.435 0 01-.19 0l-2-.8a.487.487 0 01-.27-.65.5.5 0 01.65-.27l2 .8a.487.487 0 01.27.65.503.503 0 01-.42.25l-.04.02zm92.09-.53a.53.53 0 01-.27-.07.503.503 0 01-.15-.69c.36-.593.693-1.193 1-1.8a.498.498 0 01.675-.215.498.498 0 01.215.675c-.33.63-.69 1.26-1.07 1.87a.495.495 0 01-.36.21l-.04.02zm-72.86-.51a.528.528 0 01-.24-.06.51.51 0 01-.2-.68c.313-.58.663-1.2 1.05-1.86a.5.5 0 01.68-.17.486.486 0 01.245.496.492.492 0 01-.065.184c-.38.65-.72 1.26-1 1.82a.497.497 0 01-.43.25l-.04.02zm-23.12-.57a.481.481 0 01-.2 0l-1.94-.82a.5.5 0 11.4-.92l1.93.82a.507.507 0 01.405.595.509.509 0 01-.595.405v-.08zM59 102.42a.477.477 0 01-.3-.11c-.34-.25-.92-.71-1.67-1.33a.51.51 0 01.09-.833.49.49 0 01.55.063c.74.62 1.3 1.06 1.64 1.31a.502.502 0 01-.014.81.498.498 0 01-.296.09zm101.74-.92a.605.605 0 01-.19 0 .52.52 0 01-.27-.66c.269-.634.506-1.282.71-1.94a.509.509 0 01.63-.32.501.501 0 01.33.62c-.22.68-.47 1.36-.75 2a.492.492 0 01-.51.3h.05zM88 101.09a.502.502 0 01-.42-.77c.36-.567.75-1.157 1.17-1.77a.5.5 0 01.82.56c-.4.6-.79 1.18-1.15 1.75a.475.475 0 01-.42.23zm-32.3-1.37a.55.55 0 01-.33-.13c-.49-.43-1-.91-1.57-1.44a.49.49 0 010-.7.5.5 0 01.71 0c.55.51 1.06 1 1.55 1.41a.5.5 0 01-.34.88l-.02-.02zm34.72-2.11a.46.46 0 01-.29-.1.501.501 0 01-.11-.7c.413-.547.843-1.107 1.29-1.68a.5.5 0 11.78.62c-.44.56-.86 1.11-1.26 1.66a.51.51 0 01-.41.2zm71.58-.13h-.1a.493.493 0 01-.317-.214.493.493 0 01-.073-.376c.07-.36.1-.57.1-.58v-1.43a.501.501 0 01.125-.359.495.495 0 01.345-.16.503.503 0 01.48.28.5.5 0 01.05.19v1.5s0 .28-.12.71a.511.511 0 01-.49.44zm-109.37-.66a.471.471 0 01-.35-.14c-.48-.48-1-1-1.48-1.52a.5.5 0 11.72-.69c.5.53 1 1 1.46 1.5a.498.498 0 01-.35.85zM93 94.31a.49.49 0 01-.32-.12.51.51 0 01-.06-.71c.453-.533.923-1.063 1.41-1.59a.5.5 0 01.73.67c-.48.53-.94 1-1.38 1.57a.49.49 0 01-.38.18zm-43.31-.55a.502.502 0 01-.37-.16c-.46-.52-.93-1.06-1.39-1.61a.49.49 0 01.06-.7.51.51 0 01.71.06c.45.54.91 1.07 1.37 1.58a.51.51 0 010 .71.54.54 0 01-.34.12h-.04zm112.07-.47a.491.491 0 01-.49-.41 19.292 19.292 0 00-.47-2 .49.49 0 01.33-.62.5.5 0 01.62.33c.21.69.38 1.39.51 2.1a.498.498 0 01-.227.51.5.5 0 01-.183.07l-.09.02zM95.88 91.2a.541.541 0 01-.35-.14.498.498 0 010-.71c.49-.5 1-1 1.52-1.49a.499.499 0 01.864.377.5.5 0 01-.184.353c-.51.49-1 1-1.49 1.46a.51.51 0 01-.36.15zM47 90.53a.502.502 0 01-.4-.19c-.43-.55-.86-1.11-1.28-1.69a.5.5 0 01.11-.7.51.51 0 01.7.11c.41.57.83 1.12 1.26 1.66a.51.51 0 01-.09.71.49.49 0 01-.3.1zm113.54-1.25a.49.49 0 01-.45-.29 16.44 16.44 0 00-1-1.81.507.507 0 01.025-.558.494.494 0 01.329-.199.504.504 0 01.506.237c.374.618.708 1.26 1 1.92a.51.51 0 01-.38.7h-.03zM99 88.31a.48.48 0 01-.38-.17.49.49 0 01.05-.7c.53-.46 1.07-.92 1.63-1.37a.52.52 0 01.71.08.499.499 0 01-.08.7c-.55.44-1.08.89-1.6 1.34a.52.52 0 01-.33.12zm-54.46-1.18a.491.491 0 01-.41-.22c-.4-.59-.78-1.18-1.16-1.79a.51.51 0 01.16-.69.5.5 0 01.69.17c.37.59.75 1.18 1.14 1.75a.5.5 0 01-.14.69.47.47 0 01-.28.09zm113.85-1.44a.489.489 0 01-.39-.19 19.607 19.607 0 00-1.35-1.5.509.509 0 01-.148-.355.506.506 0 01.308-.464.492.492 0 01.54.11c.5.515.974 1.056 1.42 1.62a.51.51 0 01-.09.71.5.5 0 01-.29.07zm-56.16 0a.492.492 0 01-.4-.21.508.508 0 01-.091-.373.499.499 0 01.201-.327c.56-.41 1.14-.82 1.73-1.22a.498.498 0 01.727.507.503.503 0 01-.167.313c-.58.4-1.15.8-1.7 1.21a.54.54 0 01-.3.09v.01zm-59.9-2.14a.5.5 0 01-.44-.25c-.34-.62-.68-1.24-1-1.88a.503.503 0 11.9-.45c.31.62.64 1.24 1 1.84a.5.5 0 01-.19.68.5.5 0 01-.27.05v.01zm63.39-.22a.52.52 0 01-.43-.24.509.509 0 01.17-.69 37.297 37.297 0 011.83-1.08.5.5 0 01.722.578.514.514 0 01-.232.302c-.62.34-1.21.69-1.8 1a.502.502 0 01-.26.12v.01zm49.76-.66a.538.538 0 01-.33-.12c-.5-.43-1-.86-1.62-1.28a.5.5 0 11.59-.81c.59.43 1.16.88 1.69 1.33a.509.509 0 01.05.71.515.515 0 01-.38.16v.01zm-46.09-1.4a.513.513 0 01-.45-.27.498.498 0 01.22-.67c.63-.32 1.27-.63 1.92-.92a.498.498 0 01.66.25.489.489 0 01-.25.66c-.64.29-1.26.59-1.88.9a.591.591 0 01-.22.04v.01zm42.68-1.06a.498.498 0 01-.26-.08c-.58-.35-1.19-.69-1.81-1a.498.498 0 01.075-.919.51.51 0 01.385.03c.64.33 1.27.68 1.87 1a.508.508 0 01.223.31.495.495 0 01-.063.38.494.494 0 01-.42.27v.01zm-111.63-.43a.511.511 0 01-.46-.3c-.28-.64-.55-1.3-.8-2a.5.5 0 11.93-.35c.25.65.51 1.29.79 1.92a.498.498 0 01-.26.66.45.45 0 01-.2.07zm72.78-.25a.51.51 0 01-.46-.31.487.487 0 01.005-.383.502.502 0 01.275-.267c.65-.26 1.31-.51 2-.75a.527.527 0 01.33 1c-.66.23-1.31.47-2 .73a.583.583 0 01-.15-.02zm35.1-1.26a.481.481 0 01-.2 0 18.975 18.975 0 00-1.84-.69.54.54 0 01-.38-.61.455.455 0 01.54-.38h.09c.679.212 1.346.46 2 .74a.509.509 0 01.27.66.502.502 0 01-.48.28zm-31.13-.13a.509.509 0 01-.501-.547.506.506 0 01.361-.433c.67-.2 1.35-.39 2-.57a.516.516 0 01.62.38.515.515 0 01-.38.62c-.68.18-1.34.36-2 .56a.395.395 0 01-.1-.01zm27.08-1h-.09c-.7-.13-1.38-.25-2.06-.35a.499.499 0 01-.42-.57.485.485 0 01.57-.42l2.09.36a.502.502 0 01-.09 1v-.02zm-23 0a.502.502 0 11-.1-1c.68-.14 1.38-.27 2.08-.39a.509.509 0 01.58.41.504.504 0 01-.41.57c-.7.12-1.38.25-2 .39l-.15.02zm18.84-.62h-.06c-.7-.08-1.4-.16-2.08-.22a.5.5 0 01-.455-.545.503.503 0 01.545-.455c.7.07 1.4.14 2.11.23a.504.504 0 01.47.53.499.499 0 01-.53.47v-.01zm-14.7-.07a.501.501 0 01-.49-.44.478.478 0 01.096-.371.482.482 0 01.334-.189c.7-.09 1.4-.16 2.11-.22a.499.499 0 01.277.937.49.49 0 01-.187.053c-.7.06-1.39.14-2.07.22l-.07.01zm10.51-.32c-.71 0-1.4-.08-2.09-.09a.52.52 0 01-.453-.715.472.472 0 01.483-.285c.69 0 1.4 0 2.12.09a.495.495 0 01.443.336.491.491 0 01.027.194.512.512 0 01-.53.43v.04zm-6.31 0a.501.501 0 01-.03-1c.7 0 1.41-.05 2.12-.06a.498.498 0 01.353.854.498.498 0 01-.353.146c-.7 0-1.39 0-2.08.06h-.01zM39 75.85a.5.5 0 01-.48-.35c-.21-.68-.41-1.36-.58-2.06a.514.514 0 111-.24c.17.68.36 1.34.56 2a.51.51 0 01-.32.63l-.18.02zm-1-4.08a.49.49 0 01-.49-.42c-.13-.7-.23-1.41-.31-2.11a.5.5 0 01.45-.55.49.49 0 01.55.44c.07.68.17 1.37.29 2.05a.5.5 0 01-.4.58l-.09.01zm-.45-4.18a.51.51 0 01-.5-.49v-2.17a.52.52 0 01.52-.48.5.5 0 01.43.55v2.07a.5.5 0 01-.48.52h.03zm.18-4.2h-.06a.5.5 0 01-.44-.55c.08-.71.2-1.42.33-2.12a.51.51 0 011 .2c-.13.67-.24 1.36-.32 2a.5.5 0 01-.56.47h.05zm.81-4.12h-.14a.5.5 0 01-.34-.62c.18-.68.4-1.36.64-2a.5.5 0 01.64-.3.489.489 0 01.3.64c-.23.65-.44 1.32-.62 2a.5.5 0 01-.53.28h.05zm1.41-4a.45.45 0 01-.2 0 .51.51 0 01-.26-.66c.28-.64.59-1.29.92-1.93a.503.503 0 11.89.47c-.32.61-.62 1.24-.89 1.86a.5.5 0 01-.51.3l.05-.04zm1.94-3.73a.502.502 0 01-.43-.76c.36-.59.74-1.19 1.15-1.79a.5.5 0 11.82.57c-.39.58-.77 1.16-1.12 1.74a.47.47 0 01-.47.28l.05-.04zm2.36-3.47a.49.49 0 01-.49-.437.51.51 0 01.1-.373c.42-.55.86-1.1 1.33-1.65a.489.489 0 01.7-.06.49.49 0 01.06.7 46.1 46.1 0 00-1.3 1.62.51.51 0 01-.45.24l.05-.04zm2.71-3.22a.5.5 0 01-.34-.13.51.51 0 010-.71c.48-.51 1-1 1.48-1.52a.498.498 0 01.753-.053.5.5 0 01-.053.753c-.5.5-.98 1-1.44 1.5a.49.49 0 01-.45.2l.05-.04zm3-3a.491.491 0 01-.37-.16.49.49 0 010-.7c.51-.47 1-1 1.58-1.42a.503.503 0 11.66.76c-.54.46-1.06.93-1.56 1.39a.5.5 0 01-.38.2l.07-.07zm3.18-2.74a.522.522 0 01-.39-.19.5.5 0 01.08-.7c.54-.44 1.1-.87 1.67-1.31a.51.51 0 01.7.1.5.5 0 01-.1.7c-.56.43-1.11.86-1.64 1.29a.541.541 0 01-.39.18l.07-.07zm3.35-2.55a.48.48 0 01-.4-.21.51.51 0 01.11-.7l1.74-1.21a.5.5 0 11.56.83c-.59.4-1.16.8-1.72 1.2a.481.481 0 01-.36.16l.07-.07zm3.48-2.37a.52.52 0 01-.42-.22.51.51 0 01.15-.7c.58-.37 1.18-.75 1.79-1.12a.49.49 0 01.69.16.499.499 0 01-.17.69l-1.77 1.11a.43.43 0 01-.34.15l.07-.07zm3.58-2.2a.51.51 0 01-.495-.433.49.49 0 01.245-.497c.6-.36 1.21-.71 1.83-1.06a.5.5 0 01.743.375.49.49 0 01-.253.495l-1.81 1a.48.48 0 01-.33.19l.07-.07zm3.6-1.99a.491.491 0 01-.478-.64.51.51 0 01.238-.3l1.87-1a.5.5 0 01.67.22.49.49 0 01-.21.67c-.63.33-1.25.65-1.85 1a.532.532 0 01-.24.05zm3.74-1.94a.5.5 0 01-.23-.94l1.9-.93a.49.49 0 01.67.23.5.5 0 01-.24.67c-.64.3-1.26.61-1.88.92a.441.441 0 01-.22.04v.01zm3.79-1.82a.512.512 0 01-.533-.78.51.51 0 01.323-.22l1.92-.87a.49.49 0 01.66.25.5.5 0 01-.25.66l-1.91.87a.543.543 0 01-.21.08v.01zm3.84-1.72a.51.51 0 01-.46-.31.5.5 0 01.26-.65l1.94-.83a.5.5 0 01.66.27.51.51 0 01-.27.65l-1.93.82a.491.491 0 01-.2.04v.01zm3.88-1.63a.5.5 0 01-.46-.695.51.51 0 01.27-.275l2-.78a.499.499 0 01.644.663.501.501 0 01-.274.267l-2 .78a.432.432 0 01-.18.03v.01zm3.92-1.55a.508.508 0 01-.18-1l2-.75a.5.5 0 01.64.3.5.5 0 01-.29.64l-2 .74a.512.512 0 01-.17.06v.01zm3.94-1.46a.507.507 0 01-.17-1l2-.71a.48.48 0 01.63.3.49.49 0 01-.3.64l-2 .71a.514.514 0 01-.16.05v.01zm4-1.4a.507.507 0 01-.16-1l2-.68a.5.5 0 01.63.32.49.49 0 01-.32.63l-2 .67a.411.411 0 01-.18.05l.03.01zm4-1.33a.507.507 0 01-.15-1l2-.64a.499.499 0 11.3.95l-2 .64a.412.412 0 01-.19.04l.04.01zm4-1.27a.507.507 0 01-.482-.8.506.506 0 01.332-.2l2-.62a.52.52 0 11.29 1l-2 .61a.403.403 0 01-.16 0l.02.01zm4-1.22a.491.491 0 01-.48-.36.503.503 0 01.34-.62l2-.59a.5.5 0 01.62.35.495.495 0 01-.168.523.494.494 0 01-.172.087l-2 .59-.14.02zm4-1.16a.51.51 0 01-.48-.36.5.5 0 01.35-.62l2-.57a.496.496 0 01.525.184c.04.052.068.112.085.176a.49.49 0 01-.35.61l-2 .56-.13.02zm4.06-1.12a.49.49 0 01-.48-.37.501.501 0 01.35-.61l1.81-.48a.515.515 0 11.25 1l-1.8.48-.13-.02z"/><path fill="#DAE1E7" fill-rule="evenodd" d="M77.16 128.54h-1.99v-2.01h-1.32v2.01h-1.98v1.33h1.98v2.01h1.32v-2.01h1.99v-1.33z" clip-rule="evenodd"/><path fill="#fff" d="M118.49 13.57a3.29 3.29 0 100-6.58 3.29 3.29 0 000 6.58z"/><path fill="#CED6DE" d="M118.49 14.57a4.289 4.289 0 01-3.033-7.324 4.29 4.29 0 017.323 3.034 4.297 4.297 0 01-4.29 4.29zm0-6.58a2.29 2.29 0 102.116 1.415 2.29 2.29 0 00-1.24-1.234A2.284 2.284 0 00118.49 8v-.01z"/><path fill="#fff" d="M179.29 47.18H36.78a6.03 6.03 0 00-6.03 6.03v92.98c0 3.33 2.7 6.03 6.03 6.03h142.51c3.33 0 6.03-2.7 6.03-6.03V53.21c0-3.33-2.7-6.03-6.03-6.03z"/><path fill="#717790" d="M179.29 153.11H36.77a6.933 6.933 0 01-6.92-6.92v-93a6.93 6.93 0 016.92-6.92h142.52a6.919 6.919 0 016.92 6.92v93a6.92 6.92 0 01-6.92 6.92zM36.77 48.08a5.13 5.13 0 00-5.13 5.13v93a5.128 5.128 0 005.13 5.13h142.52a5.129 5.129 0 005.13-5.13v-93a5.13 5.13 0 00-5.13-5.13H36.77z"/><path fill="#CADAFF" d="M36.77 46.82h142.52a6.001 6.001 0 016 6V65H30.75V52.85a6 6 0 016.02-6.03z"/><path fill="#717790" d="M185.32 65.88H30.75a.9.9 0 01-.9-.9V52.85a6.94 6.94 0 016.92-6.93h142.52a6.932 6.932 0 016.92 6.93V65a.89.89 0 01-.89.88zM31.64 64.09h152.78V52.85a5.13 5.13 0 00-5.13-5.13H36.77a5.13 5.13 0 00-5.13 5.13v11.24z"/><path fill="#fff" d="M40.71 58.26a2.36 2.36 0 100-4.72 2.36 2.36 0 000 4.72z"/><path fill="#717790" d="M40.71 59.16a3.26 3.26 0 11.06-6.519 3.26 3.26 0 01-.06 6.519zm0-4.73a1.47 1.47 0 100 2.94 1.47 1.47 0 000-2.94z"/><path fill="#fff" d="M50.56 58.26a2.36 2.36 0 100-4.72 2.36 2.36 0 000 4.72z"/><path fill="#717790" d="M50.56 59.16a3.26 3.26 0 113.26-3.26 3.27 3.27 0 01-3.26 3.26zm0-4.73a1.471 1.471 0 10-.06 2.942 1.471 1.471 0 00.06-2.942z"/><path fill="#fff" d="M60.41 58.26a2.36 2.36 0 100-4.72 2.36 2.36 0 000 4.72z"/><path fill="#717790" d="M60.41 59.16a3.26 3.26 0 113.26-3.26 3.27 3.27 0 01-3.26 3.26zm0-4.73a1.47 1.47 0 101.47 1.47 1.46 1.46 0 00-1.47-1.47z"/><path fill="#717790" d="M165.04 167.15c17.877 0 32.37-14.493 32.37-32.37 0-17.877-14.493-32.37-32.37-32.37-17.878 0-32.37 14.493-32.37 32.37 0 17.877 14.492 32.37 32.37 32.37z" opacity=".2"/><path fill="#CADAFF" d="M168.62 171.23c17.8 0 32.23-14.43 32.23-32.23 0-17.8-14.43-32.23-32.23-32.23-17.8 0-32.23 14.43-32.23 32.23 0 17.8 14.43 32.23 32.23 32.23z"/><path fill="#717790" d="M168.62 172.23h-.07a33.23 33.23 0 01.07-66.45h.06a33.23 33.23 0 01-.06 66.45zm0-64.45a31.232 31.232 0 00-.06 62.45h.06a31.229 31.229 0 0021.772-53.089 31.232 31.232 0 00-21.712-9.361h-.06z"/><path fill="#717790" d="M168.62 160.23a5.22 5.22 0 01-5.22-5.23v-3.51h10.43V155a5.217 5.217 0 01-5.21 5.23zm-3.22-6.72V155a3.218 3.218 0 005.427 2.16 3.219 3.219 0 001.003-2.16v-1.51l-6.43.02z"/><path fill="#717790" d="M185.23 153.51h-33.31a2.697 2.697 0 01-2.7-2.7v-2.11a2.74 2.74 0 01.84-1.95 2.648 2.648 0 012-.74 1.535 1.535 0 001.14-.46 2.044 2.044 0 00.62-1.46v-8.65A14.732 14.732 0 01165 121.12a.937.937 0 00.73-.89v-1a2.92 2.92 0 015.83 0v1a.939.939 0 00.72.89 14.74 14.74 0 0111.1 14.3v8.88a1.732 1.732 0 00.587 1.251 1.73 1.73 0 001.313.429 2.802 2.802 0 012.76 2.79v1.94a2.773 2.773 0 01-.82 1.986 2.775 2.775 0 01-.914.606c-.341.14-.707.211-1.076.208zM151.92 148a.663.663 0 00-.48.2.69.69 0 00-.22.5v2.11a.71.71 0 00.7.7h33.31a.783.783 0 00.552-.228.783.783 0 00.228-.552v-1.94a.791.791 0 00-.77-.79 3.733 3.733 0 01-3.577-2.23 3.736 3.736 0 01-.313-1.45v-8.88a12.734 12.734 0 00-9.59-12.36 2.939 2.939 0 01-2.23-2.83v-1a.917.917 0 00-.915-.824.922.922 0 00-.915.824v1a2.93 2.93 0 01-2.24 2.83 12.729 12.729 0 00-9.66 12.38v8.65a4.006 4.006 0 01-1.24 2.91 3.536 3.536 0 01-2.6 1l-.04-.02z"/><path fill="#CADAFF" d="M74.72 77.46H56.1c-.85 0-1.54.69-1.54 1.54v18.09c0 .85.69 1.54 1.54 1.54h18.62c.85 0 1.54-.69 1.54-1.54V79c0-.85-.69-1.54-1.54-1.54zm-.2 33.24H55.9c-.85 0-1.54.689-1.54 1.54v18.09c0 .85.69 1.54 1.54 1.54h18.62c.85 0 1.54-.69 1.54-1.54v-18.09c0-.851-.69-1.54-1.54-1.54z"/><path fill="#717790" d="M74.72 99.51H56.1a2.42 2.42 0 01-2.42-2.42V79a2.42 2.42 0 012.42-2.42h18.62A2.42 2.42 0 0177.14 79v18.09a2.43 2.43 0 01-2.42 2.42zM56.1 78.34a.65.65 0 00-.66.66v18.09a.66.66 0 00.66.66h18.62a.67.67 0 00.66-.66V79a.66.66 0 00-.66-.66H56.1zm18.42 54.42H55.91a2.432 2.432 0 01-2.43-2.42v-18.09a2.416 2.416 0 011.5-2.239c.296-.121.611-.182.93-.181h18.61a2.42 2.42 0 012.42 2.42v18.09a2.42 2.42 0 01-2.42 2.42zm-18.61-21.18a.673.673 0 00-.67.67v18.09a.668.668 0 00.67.66h18.61a.663.663 0 00.66-.66v-18.09a.663.663 0 00-.66-.67H55.91zm76.51-28.13H85.63a.88.88 0 010-1.76h46.79a.88.88 0 010 1.76zm15.84 9.67H85.63a.88.88 0 110-1.76h62.63a.88.88 0 010 1.76zm-35.84 23.75H85.63a.88.88 0 010-1.76h26.79a.88.88 0 010 1.76zm15.84 9.68H85.63a.88.88 0 010-1.76h42.63a.88.88 0 010 1.76z"/></svg>