<svg xmlns="http://www.w3.org/2000/svg" width="516" height="290" fill="none" viewBox="0 0 516 290"><path fill="#fff" d="M0 0h516v290H0z" opacity=".01"/><path fill="#EBEFF3" d="M384.279 93.349c19.305 4.892 47.565-13.719 65.091-4.224 21.02 11.368 29.603 27.593 33.167 51.243 3.565 23.651-.66 49.807-16.872 67.467-16.211 17.661-45.976 23.433-64.703 8.51-8.233-6.553-13.744-16.259-22.637-21.883-14.109-8.912-32.816-5.188-47.881 1.999-15.065 7.186-28.781 17.554-44.887 21.918-16.105 4.365-36.38.479-43.881-14.443-3.599-7.152-3.775-15.838-8.344-22.405-5.104-7.334-14.763-10.347-23.67-9.854-8.907.493-17.378 3.871-25.723 7.039-18.735 7.109-38.285 13.444-58.334 13.021-20.05-.422-40.894-8.502-52.163-25.107-8.021-11.825 4.176-17.843 13.448-22.595 9.568-4.927 19.108-9.854 28.486-15.105 5.202-2.914 11.36-4.864 15.635-9.214 6.123-6.229 2.284-12.1-2.109-18.047-5.547-7.469-8.015-16.957-7.923-26.262.091-9.594 2.235-21.434 8.133-29.176 6.545-8.588 17.484-14.162 28.373-12.853 12.233 1.47 22.271 9.903 33.076 15.816 10.806 5.913 25.498 8.925 34.539.55 10.081-9.341 8.436-25.242 20.035-33.9 7.536-5.631 14.215-5.223 22.447-1.52 24.162 10.868 48.816 19.624 72.324 32.188 15.501 8.285 27.227 42.494 44.373 46.837z"/><path stroke="#273139" stroke-linecap="round" stroke-linejoin="round" stroke-width=".5" d="M107.994 157.732l20.521.725"/><path stroke="#CFD7DF" stroke-width=".5" d="M144.241 266.138V251.87h336.208"/><path fill="#92A2B1" d="M164.839 250.92H149.57l-4.485-18.913h24.239l-4.485 18.913z"/><path fill="#EBEFF3" d="M150.933 230.473c1.878-1.591 1.266-4.773-.386-6.596-1.652-1.823-4.021-2.815-5.983-4.279-1.961-1.465-3.515-3.618-3.226-5.976.288-2.358 3.205-4.273 5.124-2.886.942.704 1.35 1.879 1.66 2.998.309 1.119.611 2.323 1.455 3.125.843.803 2.418.958 3.058 0l1.089-13.373c.268-3.231.992-7.117 4.022-8.271 2.664-1.014 5.722.929 6.959 3.519 1.238 2.591 1.125 5.568.991 8.447-.374 7.86-.745 15.722-1.11 23.587l-13.653-.295z"/><path fill="#CFD7DF" d="M144.136 229.17h26.13v2.837h-26.13z"/><path stroke="#CFD7DF" stroke-width=".5" d="M145.394 236.42h11.965"/><path stroke="#fff" stroke-width=".5" d="M170.266 231.93h-13.062"/><path stroke="#92A2B1" stroke-width=".5" d="M143.074 212.376a8.442 8.442 0 007.297 7.609M156.009 197.214l-1.35 30.182M160.48 196.975l-2.017 30.633M163.552 200.121l-1.764 27.515"/><path stroke="#92A2B1" stroke-width=".5" d="M141.787 213.84a2.523 2.523 0 001.66.612c.133-.556.203-1.175.344-1.731M153.731 217.795c.298.531.782.932 1.357 1.127.317-.479.591-1.035.907-1.514M154.547 200.902c.253.553.697.996 1.251 1.246.359-.45.703-.985 1.034-1.408M156.635 206.076a8.207 8.207 0 01-1.097 1.57c-.358-.451-.562-.704-.921-1.176M154.371 213.087l.837.781c.358-.451.562-.704.914-1.176M157.724 221.019c.298.53.782.931 1.357 1.126.317-.478.584-1.035.907-1.513M158.533 204.126c.255.554.702.996 1.258 1.246.359-.451.703-.986 1.034-1.408M160.628 209.271a7.712 7.712 0 01-1.104 1.57c-.358-.45-.555-.704-.914-1.175M158.364 216.282l.837.781c.358-.45.555-.704.914-1.175M160.923 219.027c.288.536.756.953 1.322 1.176.33-.472.625-1.014.956-1.485M162.392 202.169a2.523 2.523 0 001.21 1.295c.372-.443.702-.957 1.089-1.407M164.262 207.42a8.015 8.015 0 01-1.153 1.527c-.344-.464-.534-.746-.871-1.21M161.739 214.34l.808.816c.38-.436.583-.704.963-1.147"/><path stroke="#CFD7DF" stroke-width=".5" d="M67.22 269.341h77.267M66.546 269.699v8.728H32.282"/><path stroke="#131735" stroke-linecap="round" stroke-linejoin="round" stroke-width=".5" d="M376.378 98.91a1.833 1.833 0 012.109-.1 51.69 51.69 0 0012.147 4.85 56.483 56.483 0 009.371 1.802 3.04 3.04 0 002.623-1.077l12.07-14.366a6.395 6.395 0 0111.452 1.206 6.412 6.412 0 01-1.441 6.65v0l-15.051 17.956a6.422 6.422 0 01-2.348 1.935v.05c-8.802 4.019-27.08-2.893-32.549-5.146a2.816 2.816 0 01-1.716-2.52"/><path fill="#34479D" d="M449.328 244.487l-6.236-1.943-.619-3.97 4.605 1.232 2.25 4.681zM435.289 239.532l4.084-.958v3.872l-5.568 1.07 1.484-3.984z"/><path fill="#264966" d="M414.29 129.648l.274 90.189a8.316 8.316 0 002.377 5.962 8.294 8.294 0 005.912 2.485 8.306 8.306 0 008.281-7.743l5.884-94.145-22.728 3.252z"/><path fill="#264966" d="M430.129 129.648l.274 90.189a8.312 8.312 0 002.379 5.964 8.29 8.29 0 0014.191-5.26l5.884-94.145-22.728 3.252z"/><path fill="#fff" d="M443.106 143.993l-16.872.451-7.543.204a6.56 6.56 0 01-4.83-1.922l-.042-.049a6.569 6.569 0 01-1.891-4.85l.127-2.175.168-2.851 2.152-36.601c0-6.335 2.39-9.65 5.933-11.263l.063-.035c.226.161.461.31.703.444.48.256.987.46 1.512.605 1.001.3 2.041.45 3.086.443 3.163 0 5.849-1.28 6.812-3.062l1.307-.042c6.404-.208 12.053 4.167 13.463 10.425l8.78 34.138c1.828 8.278-1.483 16.14-12.928 16.14z"/><path stroke="#131735" stroke-linecap="round" stroke-linejoin="round" stroke-width=".5" d="M424.7 145.006c1.095-.43 1.803-1.237 1.582-1.802-.222-.564-1.289-.672-2.384-.242-1.095.431-1.803 1.238-1.581 1.802.221.565 1.288.673 2.383.242zM421.969 144.76c.221-.565-.487-1.372-1.582-1.802-1.095-.431-2.162-.323-2.383.242-.222.564.486 1.371 1.581 1.802 1.095.43 2.162.322 2.384-.242z" clip-rule="evenodd"/><path stroke="#131735" stroke-linecap="round" stroke-linejoin="round" stroke-width=".5" d="M422.417 145.183a3.734 3.734 0 002.32 1.703M421.953 145.183a4.012 4.012 0 01-1.919 2.66"/><path fill="#F73F3E" d="M447.809 145.534l-16.169 2.048a5.736 5.736 0 01-5.378-3.139 11.387 11.387 0 01-1.223-4.962l-3.241-50.391a6.694 6.694 0 01.781-3.133c1.001.3 2.041.45 3.086.444 3.163 0 5.849-1.281 6.812-3.062a2.42 2.42 0 00.147-.303c6.278-.654 12.654 3.132 14.63 9.15l11.684 33.365c2.664 8.108.372 18.843-11.129 19.983z"/><path fill="#fff" d="M421.095 85.332a6.568 6.568 0 01-.703-.43c-.133-.099-.267-.197-.386-.296h.049l.401.282c.205.16.418.307.639.444z"/><path stroke="#131735" stroke-linecap="round" stroke-linejoin="round" stroke-width=".5" d="M425.201 83.74c6.255 0 11.325-5.076 11.325-11.339 0-6.263-5.07-11.34-11.325-11.34-6.255 0-11.325 5.077-11.325 11.34s5.07 11.34 11.325 11.34z" clip-rule="evenodd"/><path fill="#131735" d="M459.057 137.257s-4.921-25.375-23.121-34.525c0 0 8.773-1.816 20.569 19.195 0 0 1.371 3.224 3.515 9.629.014-.028-.26 4.019-.963 5.701z"/><path stroke="#131735" stroke-linecap="round" stroke-linejoin="round" stroke-width=".5" d="M439.626 84.874s32.099 6.082 36.844 49.335M437.967 102.703s16.584 3.667 23.375 34.033M476.47 134.209l-14.256 4.322M475.627 136.37s3.515 9.552-3.902 12.966M463.704 140.389s.942 10.143 3.093 10.143c1.962 0 1.589-5.885 1.589-5.885M451.781 132.091l-12.766-3.752"/><path fill="#131735" d="M451.704 144.873s-8.626 1.598-20.064 2.942c0 0-2.896.781-5.195-3.139a8.046 8.046 0 00.788 4.765 5.44 5.44 0 004.92 2.992c2.735 0 8.999-.352 19.298-2.675l.253-4.885z"/><path stroke="#fff" stroke-linecap="round" stroke-linejoin="round" stroke-width=".5" d="M424.737 158.127l6.2 68.453"/><path stroke="#131735" stroke-linecap="round" stroke-linejoin="round" stroke-width=".5" d="M440.287 237.708c2.046 0 3.705-1.323 3.705-2.956s-1.659-2.956-3.705-2.956c-2.046 0-3.705 1.323-3.705 2.956s1.659 2.956 3.705 2.956z" clip-rule="evenodd"/><path stroke="#131735" stroke-linecap="round" stroke-linejoin="round" stroke-width=".5" d="M443.978 234.47s3.648 7.947 6.109 11.17c.536.671.789 1.525.703 2.379-.169 1.408-1.371 3.076-6.165 3.076h-9.589s-5.153-.232-2.573-4.927c2.58-4.695 3.269-6.074 4.126-11.128M437.503 84.74s-6.327 0-6.98 6.99c-.654 6.99 4.442 9.53 4.442 9.53"/><path fill="#34479D" d="M409.383 237.187l7.037 9.46h-7.311l-4.204-5.878 4.478-3.582z"/><path stroke="#131735" stroke-linecap="round" stroke-linejoin="round" stroke-width=".5" d="M423.485 249.955h-25.462s-2.524 0-3.979-.979a1.33 1.33 0 01-.52-1.548c.358-.978 1.596-2.527 5.659-3.745 6.116-1.83 8.872-6.426 14.763-9.502a1.241 1.241 0 011.771.788 6.133 6.133 0 001.702 2.964 5.347 5.347 0 004.921 1.126c1.195-.31 2.812-.852 3.458-1.647 0 0 1.73-1.408.865 2.977 0 0-.886 5.533.246 6.877-.007 0 2.32 2.689-3.424 2.689z" clip-rule="evenodd"/><path stroke="#131735" stroke-linecap="round" stroke-linejoin="round" stroke-width=".5" d="M426.902 247.266h-30.229s-2.32.436-1.272-1.908"/><path fill="#F73F3E" d="M421.095 85.33c-4.731 2.816-5.49 8.898-5.49 8.898l-3.318 38.545a29.83 29.83 0 00-.169 2.85c0 4.16 1.04 6.152 1.765 7.039l.042.049c.172.22.382.409.618.556l-.161 3.45c-6.897 0-6.763-4.829-6.763-4.829-.956-3.52 3.655-43.183 3.655-43.183.647-9.27 4.978-12.797 8.711-14.078h.049l.401.282c.212.152.433.293.66.422z"/><path fill="#131735" d="M435.38 80.678a3.32 3.32 0 003.318-3.322 3.32 3.32 0 00-3.318-3.323 3.32 3.32 0 00-3.318 3.323 3.32 3.32 0 003.318 3.322z"/><path fill="#131735" d="M436.315 74.963a3.32 3.32 0 003.318-3.322 3.32 3.32 0 00-3.318-3.323 3.32 3.32 0 00-3.318 3.323 3.32 3.32 0 003.318 3.322z"/><path fill="#131735" d="M438.698 77.363a3.32 3.32 0 003.319-3.322 3.32 3.32 0 00-3.319-3.322 3.32 3.32 0 00-3.318 3.322 3.32 3.32 0 003.318 3.322z"/><path fill="#131735" d="M440.414 74.041a3.32 3.32 0 003.318-3.322 3.32 3.32 0 00-3.318-3.322 3.32 3.32 0 00-3.318 3.322 3.32 3.32 0 003.318 3.322z"/><path fill="#131735" d="M439.626 69.607a3.32 3.32 0 003.318-3.323 3.32 3.32 0 00-3.318-3.322 3.32 3.32 0 00-3.318 3.322 3.32 3.32 0 003.318 3.323z"/><path fill="#131735" d="M437.665 65.446a3.32 3.32 0 003.318-3.322 3.32 3.32 0 00-3.318-3.322 3.32 3.32 0 00-3.318 3.322 3.32 3.32 0 003.318 3.322z"/><path fill="#131735" d="M434.733 62.131a3.32 3.32 0 003.319-3.322 3.32 3.32 0 00-3.319-3.323 3.32 3.32 0 00-3.318 3.323 3.32 3.32 0 003.318 3.322z"/><path fill="#131735" d="M430.473 59.322A3.32 3.32 0 00433.791 56a3.32 3.32 0 00-3.318-3.322A3.32 3.32 0 00427.155 56a3.32 3.32 0 003.318 3.322z"/><path fill="#131735" d="M426.213 58.478a3.32 3.32 0 003.318-3.323 3.32 3.32 0 00-3.318-3.322 3.32 3.32 0 00-3.318 3.322 3.32 3.32 0 003.318 3.323z"/><path fill="#131735" d="M422.34 59.322A3.32 3.32 0 00425.658 56a3.32 3.32 0 00-3.318-3.322A3.32 3.32 0 00419.021 56a3.32 3.32 0 003.319 3.322z"/><path fill="#131735" d="M419.021 61.392a3.32 3.32 0 003.319-3.323 3.32 3.32 0 00-3.319-3.322 3.32 3.32 0 00-3.318 3.322 3.32 3.32 0 003.318 3.323zM436.315 70.993a3.32 3.32 0 003.318-3.322 3.32 3.32 0 00-3.318-3.322 3.32 3.32 0 00-3.318 3.322 3.32 3.32 0 003.318 3.322z"/><path fill="#131735" d="M432.069 71.64a3.32 3.32 0 003.318-3.322 3.32 3.32 0 00-3.318-3.322 3.32 3.32 0 00-3.318 3.322 3.32 3.32 0 003.318 3.323z"/><path fill="#131735" d="M433.784 75.294a3.32 3.32 0 003.319-3.322 3.32 3.32 0 00-3.319-3.323 3.32 3.32 0 00-3.318 3.323 3.32 3.32 0 003.318 3.322zM427.725 69.607a3.32 3.32 0 003.318-3.323 3.32 3.32 0 00-3.318-3.322 3.32 3.32 0 00-3.319 3.322 3.32 3.32 0 003.319 3.323z"/><path fill="#131735" d="M431.036 67.671a3.32 3.32 0 003.318-3.322 3.32 3.32 0 00-3.318-3.323 3.32 3.32 0 00-3.318 3.323 3.32 3.32 0 003.318 3.322z"/><path fill="#131735" d="M430.473 62.645a3.32 3.32 0 003.318-3.323A3.32 3.32 0 00430.473 56a3.32 3.32 0 00-3.318 3.322 3.32 3.32 0 003.318 3.323z"/><path fill="#131735" d="M424.406 61.793a3.32 3.32 0 003.319-3.322 3.32 3.32 0 00-3.319-3.323 3.32 3.32 0 00-3.318 3.323 3.32 3.32 0 003.318 3.322z"/><path fill="#131735" d="M421.088 64.356a3.32 3.32 0 003.318-3.323 3.32 3.32 0 00-3.318-3.322 3.32 3.32 0 00-3.318 3.322 3.32 3.32 0 003.318 3.323z"/><path fill="#131735" d="M419.296 67.382a3.32 3.32 0 003.318-3.322 3.32 3.32 0 00-3.318-3.323 3.32 3.32 0 00-3.318 3.323 3.32 3.32 0 003.318 3.322z"/><path fill="#131735" d="M417.77 69.282a3.32 3.32 0 003.318-3.322 3.32 3.32 0 00-3.318-3.322 3.32 3.32 0 00-3.318 3.322 3.32 3.32 0 003.318 3.322z"/><path fill="#131735" d="M415.141 69.607a3.32 3.32 0 003.318-3.323 3.32 3.32 0 00-3.318-3.322 3.32 3.32 0 00-3.318 3.322 3.32 3.32 0 003.318 3.323z"/><path fill="#131735" d="M415.985 63.673a3.32 3.32 0 003.318-3.322 3.32 3.32 0 00-3.318-3.323 3.32 3.32 0 00-3.319 3.323 3.32 3.32 0 003.319 3.322z"/><path fill="#131735" d="M412.919 66.157a3.32 3.32 0 003.319-3.322 3.32 3.32 0 00-3.319-3.322 3.32 3.32 0 00-3.318 3.322 3.32 3.32 0 003.318 3.322z"/><path fill="#131735" d="M412.666 69.923a3.32 3.32 0 003.319-3.322 3.32 3.32 0 00-3.319-3.323 3.32 3.32 0 00-3.318 3.323 3.32 3.32 0 003.318 3.322z"/><path fill="#131735" d="M414.825 67.867c.279 0 .559.02.836.056a8.126 8.126 0 00-1.778 4.42 5.553 5.553 0 00.147 1.64c-2.292-.245-4.042-1.505-4.042-3.033 0-1.703 2.165-3.083 4.837-3.083zM412.919 63.673a3.32 3.32 0 003.319-3.322 3.32 3.32 0 00-3.319-3.323 3.32 3.32 0 00-3.318 3.323 3.32 3.32 0 003.318 3.322z"/><path fill="#131735" d="M416.231 61.033a3.32 3.32 0 003.318-3.322 3.32 3.32 0 00-3.318-3.322 3.32 3.32 0 00-3.319 3.322 3.32 3.32 0 003.319 3.322z"/><path fill="#131735" d="M419.296 57.035a3.32 3.32 0 003.318-3.322 3.32 3.32 0 00-3.318-3.322 3.32 3.32 0 00-3.318 3.322 3.32 3.32 0 003.318 3.322z"/><path fill="#131735" d="M423.837 55.486a3.32 3.32 0 003.318-3.322 3.32 3.32 0 00-3.318-3.322 3.32 3.32 0 00-3.318 3.322 3.32 3.32 0 003.318 3.322z"/><path fill="#131735" d="M428.751 56.683a3.32 3.32 0 003.318-3.323 3.32 3.32 0 00-3.318-3.322 3.32 3.32 0 00-3.318 3.322 3.32 3.32 0 003.318 3.323z"/><path fill="#131735" d="M434.733 57.395a3.32 3.32 0 003.319-3.323 3.32 3.32 0 00-3.319-3.322 3.32 3.32 0 00-3.318 3.322 3.32 3.32 0 003.318 3.323z"/><path fill="#131735" d="M438.052 61.033a3.32 3.32 0 003.318-3.322 3.32 3.32 0 00-3.318-3.322 3.32 3.32 0 00-3.319 3.322 3.32 3.32 0 003.319 3.322z"/><path fill="#131735" d="M440.864 64.707a3.32 3.32 0 003.318-3.322 3.32 3.32 0 00-3.318-3.322 3.32 3.32 0 00-3.319 3.322 3.32 3.32 0 003.319 3.322z"/><path fill="#131735" d="M443.261 69.198a3.32 3.32 0 003.318-3.322 3.32 3.32 0 00-3.318-3.322 3.32 3.32 0 00-3.318 3.322 3.32 3.32 0 003.318 3.322z"/><path fill="#131735" d="M443.732 74.309a3.32 3.32 0 003.318-3.323 3.32 3.32 0 00-3.318-3.322 3.32 3.32 0 00-3.318 3.322 3.32 3.32 0 003.318 3.323z"/><path fill="#131735" d="M440.864 79.046a3.32 3.32 0 003.318-3.322 3.32 3.32 0 00-3.318-3.323 3.32 3.32 0 00-3.319 3.323 3.32 3.32 0 003.319 3.322z"/><path fill="#131735" d="M438.178 80.953a3.32 3.32 0 003.318-3.322 3.32 3.32 0 00-3.318-3.322 3.32 3.32 0 00-3.318 3.322 3.32 3.32 0 003.318 3.322zM435.38 65.967a3.32 3.32 0 003.318-3.322 3.32 3.32 0 00-3.318-3.323 3.32 3.32 0 00-3.318 3.323 3.32 3.32 0 003.318 3.322z"/><path fill="#131735" d="M432.849 65.446a3.32 3.32 0 003.319-3.322 3.32 3.32 0 00-3.319-3.322 3.32 3.32 0 00-3.318 3.322 3.32 3.32 0 003.318 3.322z"/><path fill="#131735" d="M435.38 68.508a3.32 3.32 0 003.318-3.322 3.32 3.32 0 00-3.318-3.323 3.32 3.32 0 00-3.318 3.323 3.32 3.32 0 003.318 3.322zM428.582 66.284a3.32 3.32 0 003.318-3.322 3.32 3.32 0 00-3.318-3.322 3.32 3.32 0 00-3.318 3.322 3.32 3.32 0 003.318 3.322z"/><path fill="#131735" d="M424.406 66.284a3.32 3.32 0 003.319-3.322 3.32 3.32 0 00-3.319-3.322 3.32 3.32 0 00-3.318 3.322 3.32 3.32 0 003.318 3.322z"/><path fill="#131735" d="M421.784 68.508a3.32 3.32 0 003.318-3.322 3.32 3.32 0 00-3.318-3.323 3.32 3.32 0 00-3.318 3.323 3.32 3.32 0 003.318 3.322z"/><path stroke="#131735" stroke-linecap="round" stroke-linejoin="round" stroke-width=".5" d="M425.44 73.809a1.65 1.65 0 00-2.06 0M420.913 73.809a1.65 1.65 0 00-2.06 0M442.263 237.447c.446 1.995.714 4.025.801 6.068 0 0 .38 1.436-1.582 1.436-1.961 0-2.109-1.45-2.109-1.45v-5.807M449.145 250.272s-4.218-.704-6.053-2.316a2.647 2.647 0 00-3.677 0 8.336 8.336 0 01-2.573 1.485 9.689 9.689 0 01-4.218.444M377.685 100.711s-6.017-1.851-3.381-8.06c0 0-.19-2.674-2.812-.774a5.918 5.918 0 00-2.601 4.533s-4.429-.704-5.891.958c-5.737 6.489-.408 10.438-.408 10.438a6.046 6.046 0 006.636.507c2.728-2.013 2.812-5.35 2.44-7.686-.232-1.457-2.904-1.922-4.317-2.028M375.351 109.186l-2.263-.88M378.121 100.232s1.849 6.42-3.248 9.587"/><rect width="233.325" height="153.081" x="167.341" y="35.475" fill="#fff" stroke="#273139" stroke-width=".5" rx="3.02"/><path fill="#273139" stroke="#273139" stroke-width=".5" d="M171.588 35.475h224.825a4.22 4.22 0 014.218 4.223v15.444H167.313V39.733a4.23 4.23 0 011.243-3.029 4.215 4.215 0 013.032-1.229z"/><path fill="#fff" d="M174.955 47.533a1.956 1.956 0 001.954-1.957c0-1.08-.875-1.957-1.954-1.957a1.956 1.956 0 00-1.954 1.957c0 1.08.875 1.957 1.954 1.957zM181.387 47.533c1.08 0 1.955-.876 1.955-1.957a1.956 1.956 0 10-1.955 1.957zM187.82 47.533a1.956 1.956 0 001.954-1.957 1.956 1.956 0 10-3.909 0c0 1.08.875 1.957 1.955 1.957z"/><g opacity=".4"><rect width="200.558" height="28.683" x="183.721" y="69.508" fill="#fff" stroke="#EBEFF3" stroke-width=".5" rx="3.44"/><path fill="#EBEFF3" d="M221.718 80.313h114.744c2.594 0 2.601-4.034 0-4.034H221.718c-2.594 0-2.601 4.034 0 4.034zM221.718 90.934h24.809c2.601 0 2.601-4.04 0-4.04h-24.809c-2.594 0-2.601 4.04 0 4.04zM256.882 90.934h46.651c2.601 0 2.601-4.04 0-4.04h-46.651c-2.594 0-2.601 4.04 0 4.04z"/><rect width="200.558" height="28.683" x="183.721" y="105.631" fill="#fff" stroke="#EBEFF3" stroke-width=".5" rx="3.44"/><path fill="#EBEFF3" d="M221.718 116.436h101c2.601 0 2.601-4.04 0-4.04h-101c-2.594 0-2.601 4.04 0 4.04zM221.718 127.057h24.809c2.601 0 2.601-4.04 0-4.04h-24.809c-2.594 0-2.601 4.04 0 4.04zM256.882 127.057h36.633c2.594 0 2.601-4.04 0-4.04h-36.633c-2.594 0-2.601 4.04 0 4.04z"/><rect width="200.558" height="28.683" x="183.721" y="141.755" fill="#fff" stroke="#EBEFF3" stroke-width=".5" rx="3.44"/><path fill="#EBEFF3" d="M221.718 152.56h107.875c2.594 0 2.601-4.04 0-4.04H221.718c-2.594 0-2.601 4.04 0 4.04zM221.718 163.181h24.809c2.601 0 2.601-4.04 0-4.04h-24.809c-2.594 0-2.601 4.04 0 4.04zM256.882 163.181h52.95c2.601 0 2.601-4.04 0-4.04h-52.95c-2.594 0-2.601 4.04 0 4.04z"/><rect width="20.028" height="20.054" x="188.973" y="73.823" fill="#EBEFF3" rx="2.515"/><path fill="#fff" d="M192.312 93.933c0-3.79 3.069-6.863 6.854-6.863a6.858 6.858 0 016.854 6.863"/><path fill="#fff" stroke="#EBEFF3" stroke-width=".5" d="M198.857 85.212c2.1 0 3.803-1.705 3.803-3.808a3.806 3.806 0 00-3.803-3.808 3.805 3.805 0 00-3.803 3.808 3.805 3.805 0 003.803 3.808z"/><rect width="20.028" height="20.054" x="188.973" y="109.945" fill="#EBEFF3" rx="2.515"/><path fill="#fff" d="M192.312 130.055c0-3.79 3.069-6.863 6.854-6.863 3.786 0 6.854 3.073 6.854 6.863"/><path fill="#fff" stroke="#EBEFF3" stroke-width=".5" d="M198.857 121.334c2.1 0 3.803-1.705 3.803-3.808a3.806 3.806 0 00-3.803-3.808 3.805 3.805 0 00-3.803 3.808 3.805 3.805 0 003.803 3.808z"/><rect width="20.028" height="20.054" x="188.973" y="146.069" fill="#EBEFF3" rx="2.515"/><path fill="#fff" d="M192.312 166.179c0-3.79 3.069-6.863 6.854-6.863 3.786 0 6.854 3.073 6.854 6.863"/><path fill="#fff" stroke="#EBEFF3" stroke-width=".5" d="M198.857 157.458c2.1 0 3.803-1.705 3.803-3.808a3.806 3.806 0 00-3.803-3.808 3.805 3.805 0 00-3.803 3.808 3.805 3.805 0 003.803 3.808z"/></g><path stroke="#273139" stroke-linecap="round" stroke-linejoin="round" stroke-width=".5" d="M108.557 152.193c6.418.704 11.902 2.112 18.327 2.816M128.107 159.506c2.475-.879 7.185-2.956 9.315-4.49a8.415 8.415 0 001.406-1.267l.035-.043a.992.992 0 00-1.132-1.562l-5.884 2.393"/><path stroke="#273139" stroke-linecap="round" stroke-linejoin="round" stroke-width=".5" d="M129.633 156.628a5.274 5.274 0 002.481-3.301.979.979 0 00-1.511-1.035 18.937 18.937 0 00-3.079 2.309"/><path fill="#fff" d="M224.72 138.278h-43.248a6.177 6.177 0 01-6.173-6.18V107.87a6.177 6.177 0 016.173-6.173h43.248"/><path stroke="#EBEFF3" stroke-width=".605" d="M224.72 138.278h-43.248a6.177 6.177 0 01-6.173-6.18V107.87a6.177 6.177 0 016.173-6.173h43.248"/><rect width="25.547" height="25.579" x="181.999" y="107.201" fill="#EBEFF3" rx="3.21"/><path fill="#fff" d="M186.252 132.85a8.757 8.757 0 014.298-7.789 8.735 8.735 0 018.888 0 8.757 8.757 0 014.298 7.789"/><path fill="#fff" stroke="#EBEFF3" stroke-width=".605" d="M194.604 121.715a4.846 4.846 0 004.843-4.85 4.846 4.846 0 00-4.843-4.849 4.847 4.847 0 00-4.844 4.849 4.847 4.847 0 004.844 4.85z"/><path fill="#B2E4D9" stroke="#81D4C0" stroke-width=".58" d="M160.157 135.393l-45.695 30.21a6.25 6.25 0 00-1.768 8.654 6.233 6.233 0 008.643 1.771l45.695-30.204a36.172 36.172 0 01-3.88-4.927 35.224 35.224 0 01-2.995-5.504z"/><path fill="#DFF4F0" fill-rule="evenodd" d="M160.171 135.42c-7.251-16.499-1.561-35.83 13.469-45.752 16.346-10.797 38.268-6.945 49.964 8.781 11.696 15.726 9.101 37.859-5.915 50.445-15.015 12.587-37.231 11.252-50.636-3.042a36.234 36.234 0 01-3.88-4.927 35.226 35.226 0 01-3.002-5.505zm55.423-.257a26.15 26.15 0 00.163-29.025h-.014c-7.936-12.03-24.106-15.347-36.127-7.412a26.133 26.133 0 00-11.247 26.752 26.104 26.104 0 0020.381 20.64 26.07 26.07 0 0026.844-10.955z" clip-rule="evenodd"/><path fill="#B2E4D9" d="M173.64 89.668l.16.242-.16-.242zm-13.469 45.752l.266-.116-.001-.001-.265.117zm63.433-36.97l.232-.174-.232.173zm-5.915 50.444l-.186-.222.186.222zm-50.636-3.042l.212-.199-.212.199zm-3.88-4.927l.242-.159-.001-.002-.241.161zm52.584-34.787l.242-.159-.086-.131h-.156v.29zm-.163 29.025l.24.162-.24-.162zm.149-29.025l-.242.16.086.13h.156v-.29zm-36.127-7.412l-.16-.242.16.243zm-11.247 26.752l.285-.055-.285.055zm20.381 20.64l-.059.285.059-.285zm-15.269-56.692c-15.149 10-20.884 29.482-13.576 46.111l.531-.234c-7.194-16.369-1.548-35.548 13.364-45.393l-.319-.484zm50.355 8.85c-11.788-15.849-33.881-19.732-50.356-8.85l.32.484c16.218-10.713 37.967-6.89 49.571 8.713l.465-.347zm-5.96 50.84c15.133-12.685 17.748-34.99 5.96-50.84l-.465.347c11.604 15.602 9.03 37.561-5.868 50.049l.373.444zm-51.034-3.066c13.509 14.406 35.9 15.752 51.034 3.066l-.373-.444c-14.897 12.487-36.939 11.163-50.238-3.019l-.423.397zm-3.912-4.966a36.536 36.536 0 003.912 4.966l.423-.397a35.954 35.954 0 01-3.85-4.887l-.485.318zm-3.025-5.548a35.578 35.578 0 003.026 5.549l.483-.321a34.987 34.987 0 01-2.977-5.46l-.532.232zm55.61-29.238a25.86 25.86 0 01-.161 28.703l.48.324a26.436 26.436 0 00.165-29.346l-.484.319zm.228.13h.014v-.58h-.014v.58zm-35.967-7.46c11.887-7.846 27.877-4.566 35.725 7.33l.484-.319c-8.024-12.163-24.373-15.518-36.529-7.495l.32.485zm-11.122 26.455a25.843 25.843 0 0111.122-26.454l-.32-.484a26.427 26.427 0 00-11.372 27.048l.57-.11zm20.154 20.411a25.814 25.814 0 01-20.154-20.411l-.57.11a26.397 26.397 0 0020.607 20.87l.117-.569zm26.546-10.833a25.784 25.784 0 01-26.546 10.833l-.117.569a26.364 26.364 0 0027.143-11.078l-.48-.324z"/><path stroke="#273139" stroke-linecap="round" stroke-linejoin="round" stroke-width=".5" d="M84.5 154.552c6.159 4.35 12.345 7.229 19.769 8.538M79.22 142.353a54.546 54.546 0 0025.744 7.327 2.673 2.673 0 012.602 2.316 18.49 18.49 0 01-1.652 10.959"/><path fill="#273139" d="M86.672 201.592l6.904 31.034.098.443a4.557 4.557 0 01-2.038 4.843l-36.1 22.426a2.81 2.81 0 01-3.685-.856 2.818 2.818 0 01.501-3.755l33.744-25.839-1.94 5.279-9.631-30.267a6.306 6.306 0 011.064-6.493 6.286 6.286 0 016.26-2.002 6.294 6.294 0 014.627 4.673c.074.167.14.339.197.514zM49.723 256.129a9.095 9.095 0 002.868 8.102c.907 1.978-.169 4.617 1.694 8.693 1.863 4.075-2.221 6.778-3.922 3.069l-3.515-7.539a5.394 5.394 0 01-.5-2.527l.134-3.027-2.432-6.292 5.673-.479z"/><path fill="#273139" d="M43.389 256.896l-1.645.761 2.798 6.123 1.28-.591-2.433-6.293z"/><path stroke="#EBEFF3" stroke-linecap="round" stroke-linejoin="round" stroke-width=".5" d="M51.115 266.941a1.508 1.508 0 012.214.739M51.319 268.919a1.512 1.512 0 012.214.739M51.748 270.819a1.51 1.51 0 012.215.74"/><path fill="#273139" d="M91.024 195.68l29.392 15.246.394.204a4.57 4.57 0 012.341 5.096l-9.687 41.396a2.812 2.812 0 01-5.505-1.014l5.624-42.17 2.735 5.3-30.587-12.669a6.304 6.304 0 01-3.244-8.163 6.29 6.29 0 018.059-3.473l.478.247z"/><path fill="#1AB394" d="M77.372 142.613a3.565 3.565 0 00-3.135.174 3.576 3.576 0 00-1.786 2.585c-2.411 15.95-2.11 31.154-5.371 47.266-.464 2.316-3.023 6.764-2.306 9.017.9 2.815 1.118 3.878 4.042 4.744 1.736.496 3.54.715 5.343.647 6.854-.211 16.253-1.288 19.684-7.925 2.151-4.181 1.167-9.263-.33-13.726-.851-2.534-1.181-5.152-2.812-7.257-2.25-2.816-4.605-5.631-7.03-8.299-2.946-3.301-6.145-6.827-6.658-11.227-.457-3.977 1.406-8.108.246-11.966a44.733 44.733 0 0015.312 15.486s.197-5.153.098-5.702a15.849 15.849 0 00-1.863-4.716c-1.455-2.815-3.648-5.582-6.692-6.75-2.264-.859-4.605-1.422-6.742-2.351z"/><path stroke="#273139" stroke-linecap="round" stroke-linejoin="round" stroke-width=".5" d="M76.957 162.597c4.717 7.644 10.158 13.697 17.673 18.596M76.866 146.78a65.031 65.031 0 0024.794 20.075 3.204 3.204 0 011.765 3.752 22.028 22.028 0 01-6.925 11.262M73.885 139.987a17.043 17.043 0 009.308 6.047c2.643.62 5.385.689 8.056.204"/><path fill="#273139" d="M91.34 183.453c.978.542 1.624.789 2.616.289.99-.5.703-1.359.906-2.45a15.576 15.576 0 01-1.525-.901c-3.311-2.048-7.48-6.335-10.025-9.319-.942-1.084-4.626-6.969-6.327-8.447-1.553-1.33 4.921 11.586 5.814 12.917a25.247 25.247 0 008.541 7.911z"/><path stroke="#273139" stroke-linecap="round" stroke-linejoin="round" stroke-width=".5" d="M102.757 171.508c4.612.507 15.614.894 20.225 1.408M102.209 176.991c7.43.268 13.912-.366 21.35-.098M124.529 176.822c2.749-1.267 7.93-4.146 10.214-6.124a10.347 10.347 0 001.491-1.604l.035-.05a1.142 1.142 0 00-.065-1.415 1.138 1.138 0 00-1.39-.26l-6.166 3.745M125.984 173.359c1.35-.915 2.538-1.781 2.812-3.393a1.125 1.125 0 00-1.842-1.028 30.157 30.157 0 00-3.669 3.611"/><path fill="#273139" d="M70.75 126.924c4.057 0 7.346-3.293 7.346-7.356 0-4.062-3.29-7.355-7.346-7.355-4.058 0-7.347 3.293-7.347 7.355 0 4.063 3.29 7.356 7.347 7.356z"/><path fill="#FF5959" d="M82.77 119.66a10.74 10.74 0 00-4.562 2.231 10.91 10.91 0 00-3.88 9.622 7.362 7.362 0 01-.895-9.575 7.34 7.34 0 019.33-2.278h.008z"/><path stroke="#273139" stroke-linecap="round" stroke-linejoin="round" stroke-width=".5" d="M81.9 111.375a7.742 7.742 0 00-4.331 5.884c.063-2.674-1.336-7.299-3.515-8.798"/><path stroke="#273139" stroke-linecap="round" stroke-linejoin="round" stroke-width=".5" d="M96.015 130.31a10.904 10.904 0 01-6.714 10.084 10.878 10.878 0 01-11.873-2.358 10.912 10.912 0 01-2.362-11.886 10.889 10.889 0 0110.067-6.729c6.007 0 10.879 4.874 10.882 10.889z" clip-rule="evenodd"/><path fill="#273139" d="M89.323 125.579c3.901-.542 8.021-3.21 8.014-7.278a5.787 5.787 0 00-3.712-5.336 5.62 5.62 0 00-6.432 1.866 2.143 2.143 0 01-2.946.359c-2.812-2.049-6.615-.585-6.89 3.688-.386 5.969 7.39 7.327 11.966 6.701z"/><path fill="#273139" d="M80.64 127.797a8.327 8.327 0 01-5.082 7.686 10.92 10.92 0 012.65-13.578 8.318 8.318 0 012.433 5.892z"/><path stroke="#fff" stroke-linecap="round" stroke-linejoin="round" stroke-width=".5" d="M85.295 123.179a10.43 10.43 0 0010.228-2.816M78.391 125.53a5.42 5.42 0 01-.093 4.312 5.41 5.41 0 01-3.21 2.875"/><path fill="#EBEFF3" stroke="#273139" stroke-linecap="round" stroke-linejoin="round" stroke-width=".5" d="M95.826 132.836a3.186 3.186 0 003.184-3.188 3.187 3.187 0 00-3.184-3.189 3.187 3.187 0 00-3.185 3.189 3.186 3.186 0 003.184 3.188zM87.467 132.836a3.186 3.186 0 003.184-3.188 3.187 3.187 0 00-3.184-3.189 3.187 3.187 0 00-3.185 3.189 3.186 3.186 0 003.185 3.188z"/><path stroke="#273139" stroke-linecap="round" stroke-linejoin="round" stroke-width=".5" d="M90.659 129.648h1.982M88.957 127.1l-.19-.19-3.514 3.52M97.506 127.762l-3.733 3.35M87.854 130.781l-1.463 1.471M98.525 128.634l-1.462 1.464M73.4 127.824a6.592 6.592 0 012.285-5.764"/><path fill="#273139" d="M106.335 260.437a9.068 9.068 0 008.493 1.217c2.172.12 4.007 2.302 8.478 2.541 4.471.24 4.963 5.132.893 4.927l-8.31-.373a5.34 5.34 0 01-2.467-.703l-2.623-1.528-6.692-.774 2.228-5.307z"/><path fill="#273139" d="M104.072 266.427l-.099 1.809 6.714.366.077-1.401-6.692-.774z"/><path stroke="#EBEFF3" stroke-linecap="round" stroke-linejoin="round" stroke-width=".5" d="M116.543 264.252a1.512 1.512 0 011.687-1.619M118.371 265.019a1.506 1.506 0 011.68-1.619M120.269 265.49a1.507 1.507 0 011.68-1.619"/><path stroke="#fff" stroke-linecap="round" stroke-linejoin="round" stroke-width=".5" d="M83.186 232.218s1.469 1.133 2.516.95M112.824 218.506s.155-.267 1.188-.5"/><path fill="#475867" d="M63.059 202.12c1.842 5.124 7.466 6.855 12.5 6.834 7.43 0 14.551-3.604 19.535-9.002 1.533-1.661-.942-4.153-2.481-2.492a24.096 24.096 0 01-15.508 7.898c-3.614.316-9.23-.212-10.658-4.167-.766-2.112-4.162-1.204-3.388.929z"/><path stroke="#273139" stroke-linecap="round" stroke-linejoin="round" stroke-width=".5" d="M91.811 160.048a15.492 15.492 0 00-6.798-14.957"/><path fill="#CFD7DF" d="M70.911 70.951c8.449 0 15.297-6.857 15.297-15.316 0-8.46-6.848-15.317-15.297-15.317-8.448 0-15.297 6.858-15.297 15.317S62.463 70.95 70.911 70.95z"/><path fill="#fff" d="M70.911 67.755c6.686 0 12.106-5.426 12.106-12.12 0-6.695-5.42-12.121-12.106-12.121-6.685 0-12.105 5.426-12.105 12.12 0 6.695 5.42 12.121 12.105 12.121z"/><path stroke="#92A2B1" stroke-width=".5" d="M60.057 44.774a15.337 15.337 0 0121.709 0M70.911 71a15.337 15.337 0 01-10.88-4.5 15.376 15.376 0 01-4.494-10.894M77.857 48.68l1.617-1.618M63.966 62.589l-1.617 1.619M79.474 64.208l-1.617-1.62M63.966 48.68l-1.617-1.618M70.911 67.763v-2.287M70.911 45.801v-2.287M58.806 55.635h2.284M80.732 55.635h2.285M69.533 50.123l1.097 5.969-7.177 2.57"/><path fill="#fff" d="M247.799 205.231h46.081v46.14h-46.081z"/><path stroke="#92A2B1" stroke-width=".5" d="M293.881 205.231v26.53"/><path fill="#CFD7DF" d="M219.792 205.231h28.007v46.14h-28.007z"/><path stroke="#92A2B1" stroke-width=".5" d="M277.789 251.371h23.959M257.002 251.371h-21.969M219.947 213.847v20.025M247.799 231.162v20.026M288.538 239.131v-25.882M269.128 245.037h16.071"/><path stroke="#fff" stroke-width=".5" d="M231.602 245.037h8.036"/><path stroke="#92A2B1" stroke-width=".5" d="M254.365 224.025v14.12M275.357 215.163h-13.111M224.537 251.371h-4.745v-5.35"/><path stroke="#fff" stroke-width=".5" d="M242.829 214.241v23.39M247.799 205.231v15.176"/><path stroke="#92A2B1" stroke-width=".5" d="M214.506 251.371h-6.208"/></svg>