<svg xmlns="http://www.w3.org/2000/svg" width="210" height="210" fill="none" viewBox="0 0 210 210"><path fill="#F1F3F8" fill-rule="evenodd" d="M113.86 179.22l56.33-56.33a8.991 8.991 0 016.426-2.863 8.996 8.996 0 019.157 9.157 8.991 8.991 0 01-2.863 6.426l-56.33 56.33a9 9 0 01-12.72-12.72zM19.22 133.76l8.71-8.71a8.988 8.988 0 016.426-2.863 9.017 9.017 0 013.53.653 9.001 9.001 0 012.765 14.93l-8.711 8.71a9.005 9.005 0 01-9.955 2.209 8.989 8.989 0 01-5.628-8.503 9.001 9.001 0 012.863-6.426z" clip-rule="evenodd"/><path fill="#F1F3F8" fill-rule="evenodd" d="M117.86 150.29l25.75-25.74a8.998 8.998 0 002.684 15.052 8.999 8.999 0 0010.026-2.342L130.58 163a9.006 9.006 0 002.209-9.955 8.988 8.988 0 00-4.974-4.975 9.017 9.017 0 00-7.034.125 8.987 8.987 0 00-2.921 2.085M106.86 111.07L131 87a9.002 9.002 0 00.515 12.184 9 9 0 0012.185.486l-24.12 24.12a9 9 0 00-12.72-12.72z" clip-rule="evenodd"/><path fill="#F1F3F8" fill-rule="evenodd" d="M98.32 144.53l70.37-70.37a8.999 8.999 0 1112.72 12.71L111 157.25a9.002 9.002 0 01-12.435-.285 9 9 0 01-.275-12.435M29.17 163.61L125 67.81a9 9 0 0112.72 12.72l-95.83 95.79a9.003 9.003 0 01-12.435-.275 9.001 9.001 0 01-.285-12.435zM46.1 100.54L81.65 65a9 9 0 0112.72 12.71l-35.55 35.55a9 9 0 01-12.72-12.72zM104.9 41.74l.22-.21a9 9 0 0112.71 12.72l-.21.21a9 9 0 01-12.72 0 8.997 8.997 0 010-12.72zM77.64 164.61l.21-.21a8.993 8.993 0 016.44-2.929 8.989 8.989 0 018.558 5.644 8.998 8.998 0 01-2.278 9.995l-.22.22a9.001 9.001 0 01-12.71 0 9 9 0 010-12.72z" clip-rule="evenodd"/><path fill="#717790" fill-rule="evenodd" d="M198.85 196.47a4.927 4.927 0 011.85-.26 9.732 9.732 0 011.85.18.57.57 0 01.42.66.563.563 0 01-.42.43 9.732 9.732 0 01-1.85.18 4.947 4.947 0 01-1.85-.26.492.492 0 01-.275-.267.5.5 0 01.275-.663zM30.33 196.49c6.91-.2 13.81-.23 20.72-.23H175.42c6.9 0 13.81 0 20.72.2a.581.581 0 01.57.59.573.573 0 01-.57.56c-6.91.18-13.82.19-20.72.2H51.05c-6.91 0-13.81 0-20.72-.23a.453.453 0 01-.383-.445.451.451 0 01.383-.445M26.25 196.28c.09-.01.18-.01.27 0h.13c.05.011.097.032.14.06a.69.69 0 01.18.95c-.05.07-.11.13-.18.18a.421.421 0 01-.14.06h-.13c-.09.01-.18.01-.27 0a.679.679 0 01-.421-.294.673.673 0 01-.09-.506.65.65 0 01.51-.51M19.61 196.46a6.18 6.18 0 011.34-.18c.453-.04.91.001 1.35.12a.56.56 0 01.223.927.586.586 0 01-.223.143c-.44.119-.897.16-1.35.12a6.18 6.18 0 01-1.34-.18.485.485 0 01-.374-.406.495.495 0 01.374-.544zM94.14 205.31c2.16-.2 4.31-.23 6.47-.23h6.47L120 205h19.4c2.16 0 4.32 0 6.47.2a.57.57 0 01.53.62.589.589 0 01-.53.54c-2.15.17-4.31.18-6.47.19H120l-12.94-.07h-6.47c-2.16 0-4.31 0-6.47-.23a.45.45 0 01-.304-.16.448.448 0 01.033-.601.45.45 0 01.271-.129M72.85 205.28c2.21-.12 4.42-.16 6.63-.18 2.21-.02 4.42 0 6.63.12a.539.539 0 01.34.912.533.533 0 01-.34.158c-2.21.14-4.42.15-6.63.12s-4.42-.06-6.63-.18a.483.483 0 01-.411-.475.48.48 0 01.41-.475z" clip-rule="evenodd"/><path fill="#C8D6EC" d="M192.7 160a2.717 2.717 0 01-2.668-3.251 2.716 2.716 0 01.745-1.392 2.716 2.716 0 012.964-.59 2.725 2.725 0 011.679 2.513 2.72 2.72 0 01-2.72 2.72zm0-3.43a.725.725 0 00-.742.42.73.73 0 000 .59.718.718 0 00.742.42.725.725 0 00.563-.177.715.715 0 000-1.076.724.724 0 00-.563-.177zM9.78 78.94a1 1 0 01-1-1v-8.5a1 1 0 012 0v8.5a1 1 0 01-1 1z"/><path fill="#C8D6EC" d="M14 74.69H5.53a1 1 0 110-2H14a1 1 0 010 2zM65.1 69.62a2.72 2.72 0 110-5.441 2.72 2.72 0 010 5.441zm0-3.43a.72.72 0 100 1.43.72.72 0 100-1.43zM193.24 106.82a2.718 2.718 0 01-2.623-3.275 2.722 2.722 0 014.927-.952c.297.446.456.971.456 1.507a2.712 2.712 0 01-2.76 2.72zm0-3.43a.717.717 0 00-.705.864.718.718 0 00.988.518.72.72 0 00.437-.672.717.717 0 00-.211-.506.713.713 0 00-.509-.204zM97.91 61.49a1.06 1.06 0 01-.5-.13 1 1 0 01-.47-.61l-.84-3.06a1.001 1.001 0 01.71-1.23l3.06-.84a1.001 1.001 0 011.23.7l.84 3.07a.994.994 0 01-.358 1.058.987.987 0 01-.352.172l-3.06.83a.822.822 0 01-.26.04zm.39-3.37l.31 1.14 1.13-.26-.31-1.13-1.13.25zM42.8 122.65a2.998 2.998 0 01-2.942-3.585 2.997 2.997 0 012.357-2.357 2.998 2.998 0 012.706 5.063 2.999 2.999 0 01-2.12.879zm0-4a1 1 0 10.001 1.999 1 1 0 000-1.999z"/><path fill="#CED6DE" d="M118.79 149.08h-.08c-.63-.11-1.33-.24-2.09-.4a.498.498 0 01-.321-.212.498.498 0 01.147-.692c.11-.073.244-.1.374-.076.75.16 1.44.29 2.06.39a.499.499 0 01.4.58.488.488 0 01-.49.41zm-4.13-.84h-.12c-.65-.16-1.34-.32-2.06-.51a.504.504 0 01-.371-.415.513.513 0 01.011-.195.512.512 0 01.61-.36c.71.19 1.39.35 2 .5a.496.496 0 01.312.222.483.483 0 01.058.378.503.503 0 01-.44.38zm-4.09-1.06a.366.366 0 01-.14 0c-.66-.19-1.34-.39-2-.61a.522.522 0 01-.089-.963.523.523 0 01.399-.037l2 .6a.494.494 0 01.298.24.483.483 0 01.042.38.49.49 0 01-.51.39zm-4-1.27a.43.43 0 01-.16 0c-.66-.23-1.33-.48-2-.74a.49.49 0 01-.304-.259.508.508 0 01-.017-.4.51.51 0 01.281-.284.515.515 0 01.4.013c.66.25 1.31.5 2 .72a.509.509 0 01.208.914.502.502 0 01-.378.086l-.03-.05zm-3.93-1.53a.435.435 0 01-.19 0c-.65-.27-1.3-.56-1.94-.87a.498.498 0 01-.268-.681.488.488 0 01.301-.261.5.5 0 01.397.042c.63.3 1.27.58 1.9.85a.499.499 0 01.26.66.49.49 0 01-.48.26h.02zm-3.81-1.8a.674.674 0 01-.23-.05c-.62-.33-1.25-.67-1.86-1a.502.502 0 01.5-.87c.6.35 1.21.69 1.83 1a.502.502 0 01.21.67.508.508 0 01-.47.25h.02zm-3.63-2.12a.434.434 0 01-.27-.08c-.6-.38-1.19-.79-1.76-1.2a.507.507 0 01-.192-.523.505.505 0 01.41-.377.514.514 0 01.372.09c.56.413 1.13.803 1.71 1.17a.51.51 0 01.15.7.517.517 0 01-.44.22h.02zM91.77 138a.447.447 0 01-.31-.11c-.56-.46-1.1-.94-1.61-1.42a.496.496 0 01-.147-.35.492.492 0 01.31-.459.49.49 0 01.384 0c.061.025.116.062.163.109.49.46 1 .92 1.55 1.37a.489.489 0 01.07.7.507.507 0 01-.41.16zm-3-2.89a.501.501 0 01-.37-.16c-.49-.53-1-1.08-1.39-1.64a.5.5 0 01.79-.61c.42.53.86 1.06 1.33 1.57a.506.506 0 01.11.547.495.495 0 01-.11.163.458.458 0 01-.41.11l.05.02zm-2.58-3.31a.506.506 0 01-.42-.23c-.39-.6-.76-1.22-1.09-1.85a.5.5 0 11.89-.46c.31.59.66 1.19 1 1.77a.5.5 0 01-.15.69.533.533 0 01-.28.06l.05.02zm-2-3.71a.497.497 0 01-.46-.31c-.27-.66-.52-1.34-.73-2a.5.5 0 01.34-.63.501.501 0 01.62.33c.2.65.43 1.3.69 1.94a.486.486 0 01-.107.544.487.487 0 01-.163.106.423.423 0 01-.2 0l.01.02zm-1.22-4a.5.5 0 01-.49-.4c-.14-.7-.26-1.41-.34-2.12a.497.497 0 01.262-.493.498.498 0 01.188-.057.495.495 0 01.55.44c.073.672.18 1.339.32 2a.51.51 0 01-.39.59l-.1.04zm-.47-4.18a.502.502 0 01-.5-.48v-.66-1.49a.5.5 0 111 .06v2.06a.49.49 0 01-.49.51h-.01zm43.9-.87a.504.504 0 01-.354-.146.504.504 0 010-.707.5.5 0 01.354-.147c.71 0 1.41 0 2.09-.05a.521.521 0 01.52.48.507.507 0 01-.132.36.495.495 0 01-.348.16c-.7 0-1.4 0-2.12.05h-.01zm-2.1 0l-2.12-.06a.513.513 0 01-.345-.167.51.51 0 01-.079-.551.48.48 0 01.474-.282l2.09.06a.52.52 0 01.49.51.503.503 0 01-.52.45l.01.04zm6.31-.14a.504.504 0 01-.354-.146.504.504 0 010-.707.5.5 0 01.354-.147c.71 0 1.4-.1 2.08-.17a.494.494 0 01.368.111.497.497 0 01.163.534.498.498 0 01-.431.355c-.68.07-1.39.13-2.11.18l-.07-.01zm-10.52 0c-.69 0-1.39-.1-2.11-.16a.5.5 0 01-.277-.885.5.5 0 01.367-.115l2.09.17a.498.498 0 01.438.337c.02.062.027.128.022.193a.51.51 0 01-.54.37l.01.09zm-4.19-.39c-.69-.08-1.39-.16-2.1-.26a.49.49 0 01-.43-.56.5.5 0 01.56-.43c.7.1 1.39.18 2.08.26a.498.498 0 01.47.53.498.498 0 01-.53.47l-.05-.01zm18.89 0a.49.49 0 01-.364-.122.5.5 0 01-.049-.707.5.5 0 01.343-.171c.71-.1 1.39-.21 2.06-.33a.507.507 0 11.18 1c-.68.13-1.38.24-2.1.34l-.07-.01zm-23.06-.55h-.08l-2.08-.34a.497.497 0 01-.325-.198.493.493 0 01-.085-.372.497.497 0 01.199-.325.481.481 0 01.371-.085l2.07.33a.502.502 0 01.42.57.487.487 0 01-.5.33l.01.09zm27.2-.2a.5.5 0 01-.555-.445.5.5 0 01.445-.555c.69-.15 1.36-.32 2-.5a.497.497 0 01.61.35.507.507 0 01-.35.62c-.67.18-1.35.35-2.06.51l-.09.02zm-31.35-.5h-.09l-2.08-.4a.51.51 0 01-.39-.59.51.51 0 01.59-.4c.69.15 1.38.28 2.06.4a.5.5 0 01.277.885.499.499 0 01-.367.115v-.01zm35.4-.61a.506.506 0 01-.16-1c.68-.22 1.33-.45 2-.7a.51.51 0 01.65.29.5.5 0 01-.29.64c-.64.25-1.31.49-2 .72a.45.45 0 01-.18-.04l-.02.09zm-39.53-.22h-.11c-.67-.14-1.36-.3-2-.46a.5.5 0 01-.38-.6.502.502 0 01.6-.37l2 .46a.49.49 0 01.38.59.5.5 0 01-.5.29l.01.09zm-20.73-.65h-.06a.49.49 0 01-.43-.56c.09-.69.2-1.4.34-2.11a.509.509 0 111 .19c-.13.69-.25 1.38-.33 2a.51.51 0 01-.53.39l.01.09zm16.63-.29h-.12l-2-.51a.508.508 0 01-.275-.786.504.504 0 01.33-.195.513.513 0 01.195.011l2 .51a.5.5 0 01.36.61.49.49 0 01-.5.27l.01.09zm47.55-.37a.509.509 0 01-.605-.395.509.509 0 01.395-.605c.64-.29 1.26-.6 1.85-.92a.514.514 0 01.68.21.485.485 0 01.036.379.483.483 0 01-.246.291c-.61.33-1.24.65-1.91 1a.486.486 0 01-.21-.08l.01.12zm-51.63-.68h-.13l-2-.56a.514.514 0 01-.314-.242.518.518 0 01.584-.758c.68.2 1.36.38 2 .56a.506.506 0 01.435.565.505.505 0 01-.565.435h-.01zm-4.05-1.15a.366.366 0 01-.14 0l-2-.6a.507.507 0 01-.33-.63.502.502 0 01.62-.33l2 .6a.497.497 0 01.34.62.49.49 0 01-.5.25l.01.09zm59.38-.16a.496.496 0 01-.478-.359.497.497 0 01.208-.561c.59-.37 1.17-.76 1.72-1.16a.507.507 0 01.7.11.498.498 0 01.015.558.494.494 0 01-.135.142c-.56.42-1.16.82-1.77 1.2a.48.48 0 01-.27-.06l.01.13zM87.19 112a.43.43 0 01-.16 0l-2-.65a.492.492 0 01-.32-.63.5.5 0 01.63-.32l2 .65a.506.506 0 01-.15 1V112zm-3.67-.42h-.13a.498.498 0 01-.36-.61c0-.09 0-.18.07-.27h-.08L81 110a.504.504 0 01-.054-.927.498.498 0 01.384-.023l2 .68c.08-.27.16-.54.25-.82a.512.512 0 01.63-.33.5.5 0 01.32.63c-.21.68-.4 1.34-.57 2a.49.49 0 01-.44.34v.03zm70.47-1a.533.533 0 01-.208-.045.532.532 0 01-.172-.125.51.51 0 01.06-.71c.52-.44 1-.91 1.53-1.39a.484.484 0 01.54-.109.497.497 0 01.269.656.486.486 0 01-.109.163c-.51.49-1.05 1-1.59 1.44a.48.48 0 01-.31.11l-.01.01zm-74.78-1.28a.485.485 0 01-.17 0l-2-.72a.488.488 0 01-.332-.447.488.488 0 01.032-.193.497.497 0 01.64-.3l2 .72a.502.502 0 01.31.63.513.513 0 01-.48.3v.01zm-4-1.45a.485.485 0 01-.17 0l-2-.74a.52.52 0 01-.29-.65.5.5 0 01.65-.29l2 .75a.5.5 0 01.29.64.515.515 0 01-.44.28l-.04.01zm81.74-.21a.517.517 0 01-.33-.12.51.51 0 010-.71c.45-.51.89-1.06 1.3-1.61a.51.51 0 01.7-.1.502.502 0 01.1.7c-.42.57-.88 1.13-1.34 1.67a.515.515 0 01-.38.16l-.05.01zm-72.2-.09a.435.435 0 01-.19 0 .51.51 0 01-.27-.65c.17-.39.46-1.06.9-1.95a.495.495 0 01.473-.28.486.486 0 01.187.05.474.474 0 01.258.28.482.482 0 01-.028.38c-.42.87-.71 1.53-.86 1.9a.516.516 0 01-.43.26l-.04.01zm-13.47-1.2c-.06.01-.12.01-.18 0-.65-.26-1.31-.51-2-.78a.473.473 0 01-.278-.26.474.474 0 01-.002-.38.485.485 0 01.261-.274.49.49 0 01.379-.006l2 .77a.483.483 0 01.274.261.492.492 0 01.006.379.485.485 0 01-.42.28l-.04.01zm-3.91-1.56a.605.605 0 01-.19 0l-2-.8a.503.503 0 11.38-.93l1.95.8a.487.487 0 01.27.65.508.508 0 01-.37.27l-.04.01zm92.09-.53a.53.53 0 01-.27-.07.51.51 0 01-.16-.69c.37-.58.71-1.19 1-1.79a.498.498 0 01.919.075.51.51 0 01-.029.385c-.33.63-.69 1.25-1.07 1.86a.488.488 0 01-.35.22l-.04.01zm-72.86-.51a.528.528 0 01-.24-.06.51.51 0 01-.2-.68c.31-.57.66-1.19 1-1.85a.498.498 0 01.656-.138.5.5 0 01.204.638c-.38.65-.72 1.26-1 1.83a.518.518 0 01-.38.25l-.04.01zm-23.12-.57a.481.481 0 01-.2 0l-1.94-.82a.5.5 0 11.4-.92l1.93.82a.507.507 0 01.405.595.509.509 0 01-.595.405v-.08zm-3.83-1.74a.472.472 0 01-.3-.1c-.34-.26-.92-.71-1.67-1.34a.51.51 0 01.09-.833.489.489 0 01.55.063c.74.62 1.3 1.06 1.64 1.31a.502.502 0 01-.014.81.498.498 0 01-.296.09zm101.74-.91a.672.672 0 01-.19 0 .52.52 0 01-.27-.66c.27-.64.51-1.29.71-1.93a.508.508 0 01.802-.236.486.486 0 01.148.536c-.21.67-.46 1.35-.74 2a.496.496 0 01-.42.28l-.04.01zm-72.65-.42a.5.5 0 01-.42-.77c.36-.567.75-1.157 1.17-1.77a.5.5 0 01.82.56c-.4.6-.79 1.19-1.15 1.75a.49.49 0 01-.38.22l-.04.01zm-32.3-1.38a.5.5 0 01-.33-.13c-.49-.43-1-.91-1.57-1.43a.505.505 0 01-.02-.71.502.502 0 01.71-.02c.54.51 1.06 1 1.55 1.41a.5.5 0 01-.34.88zm34.72-2.11a.521.521 0 01-.29-.09.501.501 0 01-.11-.7c.41-.56.84-1.12 1.29-1.69a.5.5 0 01.872.448.492.492 0 01-.092.172c-.44.56-.86 1.11-1.26 1.66a.511.511 0 01-.41.2zm71.53-.13h-.1a.508.508 0 01-.317-.214.513.513 0 01-.073-.376c.07-.36.1-.57.1-.58v-.43-1a.51.51 0 01.125-.362.506.506 0 01.539-.142.509.509 0 01.287.255c.028.06.045.123.049.19v1.5c0 .05 0 .28-.12.71a.5.5 0 01-.49.45zm-109.32-.65a.487.487 0 01-.35-.15c-.48-.48-1-1-1.48-1.52a.501.501 0 010-.71.51.51 0 01.71 0c.5.53 1 1 1.46 1.5a.5.5 0 01-.35.86l.01.02zm40.41-2.52a.49.49 0 01-.32-.12.51.51 0 01-.06-.71c.45-.52.92-1.06 1.41-1.59a.5.5 0 11.73.68c-.48.52-.94 1.04-1.38 1.56a.49.49 0 01-.38.18zm-43.31-.54a.5.5 0 01-.37-.17c-.46-.52-.93-1-1.39-1.61a.49.49 0 01.06-.7.51.51 0 01.71.06c.45.55.91 1.07 1.37 1.58a.51.51 0 010 .71.55.55 0 01-.38.13zm112.07-.48a.491.491 0 01-.49-.41 18.283 18.283 0 00-.47-2 .518.518 0 01-.038-.202.514.514 0 01.17-.365.498.498 0 01.733.08c.041.056.07.12.085.187.211.692.378 1.397.5 2.11a.467.467 0 01-.001.194.478.478 0 01-.399.377l-.09.03zm-65.92-2.09a.541.541 0 01-.35-.14.501.501 0 010-.71c.49-.5 1-1 1.52-1.48a.491.491 0 01.81.163.5.5 0 01-.11.547c-.51.48-1 1-1.49 1.45a.511.511 0 01-.38.17zm-48.85-.67a.502.502 0 01-.4-.19c-.43-.55-.86-1.11-1.28-1.69a.504.504 0 01-.023-.556.5.5 0 01.505-.23.51.51 0 01.328.196c.41.57.83 1.13 1.26 1.67a.5.5 0 01-.09.7.49.49 0 01-.3.1zm113.54-1.25a.49.49 0 01-.45-.29 17.362 17.362 0 00-1-1.81.494.494 0 01.025-.55.493.493 0 01.145-.13.501.501 0 01.69.16c.371.62.704 1.261 1 1.92a.5.5 0 01-.41.7zm-61.62-1a.52.52 0 01-.38-.17.51.51 0 010-.71c.53-.46 1.07-.92 1.63-1.36a.51.51 0 01.71.07.519.519 0 01-.08.71c-.55.44-1.08.88-1.6 1.33a.48.48 0 01-.28.17v-.04zm-54.41-1.15a.49.49 0 01-.41-.22 45.9 45.9 0 01-1.16-1.79.5.5 0 01.718-.665c.053.039.098.088.132.145.37.59.75 1.18 1.14 1.75a.5.5 0 01-.14.69.47.47 0 01-.28.09zm113.85-1.44a.49.49 0 01-.39-.19 19.319 19.319 0 00-1.35-1.51.498.498 0 01.04-.68.5.5 0 01.68-.01c.503.517.977 1.061 1.42 1.63a.493.493 0 01.059.53.49.49 0 01-.459.27v-.04zm-56.16 0a.51.51 0 01-.4-.2.49.49 0 01-.09-.373.503.503 0 01.2-.327c.56-.42 1.14-.83 1.73-1.23a.5.5 0 11.56.83c-.58.39-1.15.79-1.7 1.2a.472.472 0 01-.27.09l-.03.01zm-59.9-2.13a.51.51 0 01-.44-.26c-.34-.62-.68-1.24-1-1.88a.5.5 0 01.22-.67.52.52 0 01.68.22c.31.62.64 1.24 1 1.84a.488.488 0 01-.19.68.55.55 0 01-.27.06v.01zm63.39-.23a.498.498 0 01-.27-.92c.6-.37 1.21-.73 1.84-1.08a.498.498 0 01.727.166.503.503 0 01.034.407.488.488 0 01-.281.297c-.61.34-1.2.69-1.79 1a.42.42 0 01-.26.12v.01zm49.76-.66a.52.52 0 01-.33-.12c-.5-.43-1-.86-1.62-1.27a.51.51 0 01.032-.836.49.49 0 01.558.026c.59.42 1.16.87 1.69 1.32a.511.511 0 010 .71.52.52 0 01-.33.16v.01zm-46.09-1.4a.51.51 0 01-.45-.27.502.502 0 01.22-.67c.63-.32 1.27-.62 1.92-.92a.5.5 0 01.571.799.492.492 0 01-.161.111c-.64.29-1.26.59-1.88.9a.44.44 0 01-.22.04v.01zm42.68-1.06a.48.48 0 01-.26-.07c-.58-.36-1.19-.7-1.81-1a.498.498 0 01-.22-.67.522.522 0 01.68-.22c.63.33 1.26.68 1.87 1a.508.508 0 01.223.312.495.495 0 01-.063.378.49.49 0 01-.42.26v.01zm-111.63-.43a.511.511 0 01-.46-.3c-.28-.64-.55-1.3-.8-2a.5.5 0 11.93-.36c.25.65.51 1.29.79 1.92a.51.51 0 01-.26.66.45.45 0 01-.2.08zm72.82-.25a.513.513 0 01-.46-.31.503.503 0 01.28-.65c.65-.26 1.31-.51 2-.75a.527.527 0 11.33 1c-.66.23-1.31.47-1.95.73a.583.583 0 01-.2-.02zm35.1-1.26a.45.45 0 01-.2 0c-1.11-.47-1.83-.68-1.84-.69a.548.548 0 01-.39-.61.47.47 0 01.366-.372.46.46 0 01.184.002h.09c.68.206 1.347.45 2 .73a.513.513 0 01.27.66.503.503 0 01-.52.28h.04zm-31.13-.12a.513.513 0 01-.48-.36.478.478 0 01.038-.382.493.493 0 01.302-.238 32.038 32.038 0 012-.57.488.488 0 01.61.36.503.503 0 01-.054.376.5.5 0 01-.306.224c-.68.18-1.35.37-2 .56a.405.405 0 01-.15.03h.04zm27.08-1h-.09c-.7-.13-1.38-.24-2.07-.35a.506.506 0 01.16-1l2.09.36a.5.5 0 01.4.58.508.508 0 01-.54.39l.05.02zm-23 0a.504.504 0 01-.11-1 70.1 70.1 0 012.09-.39.51.51 0 01.58.41.514.514 0 01-.087.373.514.514 0 01-.323.207c-.7.11-1.38.24-2 .38l-.15.02zm18.84-.62h-.06c-.7-.09-1.4-.17-2.08-.23a.5.5 0 01-.455-.545.503.503 0 01.545-.455c.7.07 1.4.14 2.11.23a.502.502 0 01.43.56.497.497 0 01-.53.39l.04.05zm-14.7-.07a.499.499 0 01-.53-.47.501.501 0 01.47-.53c.7-.09 1.4-.16 2.11-.22a.502.502 0 11.09 1c-.7 0-1.39.13-2.07.21l-.07.01zm10.51-.32l-2.16-.15a.52.52 0 01-.453-.707.483.483 0 01.483-.293l2.12.09a.5.5 0 110 1l.01.06zm-6.32 0a.5.5 0 110-1c.7 0 1.41-.06 2.12-.07a.5.5 0 110 1c-.7 0-1.4 0-2.08.06l-.04.01zm-90.65-.19a.491.491 0 01-.47-.35c-.22-.68-.41-1.36-.58-2.05a.502.502 0 01.37-.61.5.5 0 01.6.37c.17.67.35 1.33.56 2a.5.5 0 01-.33.63l-.15.01zm-1-4.08a.51.51 0 01-.5-.41c-.12-.71-.22-1.42-.3-2.12a.5.5 0 01.45-.55.49.49 0 01.55.44c.07.68.17 1.37.29 2a.498.498 0 01-.41.58l-.08.06zm-.45-4.18a.5.5 0 01-.5-.48v-1-1.18a.5.5 0 111 0v2.06a.5.5 0 01-.48.52l-.02.08zm.18-4.2h-.06a.501.501 0 01-.44-.56c.08-.7.19-1.42.33-2.11a.51.51 0 01.59-.4.5.5 0 01.39.59c-.13.67-.24 1.36-.32 2a.5.5 0 01-.53.38l.04.1zm.81-4.12h-.14a.5.5 0 01-.34-.62c.18-.67.4-1.36.64-2a.51.51 0 01.57-.46.5.5 0 01.3.64c-.23.65-.44 1.32-.62 2a.5.5 0 01-.45.34l.04.1zm1.41-4a.45.45 0 01-.2 0 .51.51 0 01-.26-.66c.28-.64.59-1.29.92-1.92a.5.5 0 11.89.46c-.32.61-.62 1.24-.89 1.86a.5.5 0 01-.5.2l.04.06zm1.94-3.73a.49.49 0 01-.43-.75c.36-.6.74-1.2 1.15-1.8a.51.51 0 01.69-.13.5.5 0 01.13.7c-.39.58-.77 1.16-1.12 1.74a.47.47 0 01-.46.18l.04.06zm2.36-3.47a.49.49 0 01-.491-.43.51.51 0 01.091-.37c.43-.55.87-1.11 1.34-1.66a.5.5 0 01.76.64 46.1 46.1 0 00-1.3 1.62.51.51 0 01-.44.14l.04.06zm2.71-3.21a.51.51 0 01-.34-.14.5.5 0 010-.7c.47-.51 1-1 1.48-1.53a.48.48 0 01.7 0 .498.498 0 010 .71c-.5.5-1 1-1.44 1.49a.5.5 0 01-.44.11l.04.06zm3-3a.5.5 0 01-.34-.87c.51-.47 1-.94 1.58-1.41a.51.51 0 01.71.05.49.49 0 01-.06.7c-.53.47-1.05.93-1.55 1.39a.511.511 0 01-.4.11l.06.03zm3.18-2.75a.5.5 0 01-.31-.89c.54-.44 1.09-.87 1.67-1.31a.51.51 0 01.7.1.5.5 0 01-.1.7c-.56.43-1.11.86-1.64 1.29a.54.54 0 01-.38.08l.06.03zm3.35-2.55a.49.49 0 01-.4-.2.51.51 0 01.11-.7c.57-.41 1.14-.81 1.74-1.21a.5.5 0 01.56.82c-.59.4-1.16.8-1.72 1.2a.5.5 0 01-.35.06l.06.03zm3.48-2.36a.51.51 0 01-.42-.23.5.5 0 01.15-.69c.58-.38 1.18-.76 1.79-1.13a.5.5 0 11.52.85c-.6.37-1.19.74-1.77 1.12a.5.5 0 01-.33.05l.06.03zm3.58-2.21a.51.51 0 01-.43-.25.5.5 0 01.18-.68l1.83-1.05a.5.5 0 11.49.87c-.61.34-1.22.69-1.81 1a.48.48 0 01-.32.08l.06.03zm3.61-2.1a.492.492 0 01-.498-.444.492.492 0 01.258-.486c.61-.34 1.24-.66 1.87-1A.523.523 0 1170 28l-1.85 1a.43.43 0 01-.26 0zm3.74-1.93a.51.51 0 01-.482-.662.49.49 0 01.252-.288l1.9-.93a.5.5 0 11.43.9l-1.88.91a.461.461 0 01-.22.07zm3.79-1.83A.52.52 0 0175 25a.5.5 0 01.25-.66c.63-.3 1.27-.59 1.92-.88a.49.49 0 01.66.25.5.5 0 01-.25.66l-1.91.87a.41.41 0 01-.25 0zm3.84-1.72a.51.51 0 01-.2-1l1.94-.79a.51.51 0 01.692.46.49.49 0 01-.302.46l-1.93.83a.512.512 0 01-.2.04zm3.88-1.63a.51.51 0 01-.19-1l2-.79a.5.5 0 11.37.93l-2 .78a.43.43 0 01-.18.08zm3.91-1.54a.507.507 0 01-.17-1l2-.75a.5.5 0 01.64.3.488.488 0 01-.29.64l-2 .74a.582.582 0 01-.18.07zm4-1.47a.509.509 0 01-.499-.793.507.507 0 01.329-.207l2-.71a.5.5 0 01.63.31.48.48 0 01-.3.63l-2 .71a.51.51 0 01-.21.06h.05zm4-1.4a.507.507 0 01-.16-1l2-.68a.51.51 0 01.656.514.489.489 0 01-.346.436l-2 .67a.45.45 0 01-.2.06h.05zm4-1.33a.491.491 0 01-.47-.35.5.5 0 01.32-.63l2-.64a.51.51 0 01.63.33.497.497 0 01-.33.62l-2 .65-.15.02zm4-1.27a.503.503 0 01-.575-.425.508.508 0 01.425-.575l2-.61a.52.52 0 11.28 1l-2 .62-.13-.01zm4-1.22a.491.491 0 01-.48-.36.5.5 0 01.34-.62l2-.58a.489.489 0 01.62.34.514.514 0 01-.34.62l-2 .58a.36.36 0 01-.19.02h.05zm4-1.16a.491.491 0 01-.431-.741.508.508 0 01.301-.239l2-.56a.5.5 0 01.435.875.483.483 0 01-.175.085l-2 .56a.344.344 0 01-.13.02zm4.06-1.11a.499.499 0 01-.428-.75.521.521 0 01.298-.24l1.81-.48a.515.515 0 11.25 1l-1.8.48-.13-.01z"/><path fill="#DAE1E7" fill-rule="evenodd" d="M77.9 127.55h-1.99v-2h-1.32v2h-1.98v1.33h1.98v2.01h1.32v-2.01h1.99v-1.33z" clip-rule="evenodd"/><path fill="#fff" d="M119.23 12.58a3.29 3.29 0 100-6.58 3.29 3.29 0 000 6.58z"/><path fill="#CED6DE" d="M119.23 13.58a4.286 4.286 0 01-3.964-2.648 4.293 4.293 0 013.127-5.85 4.291 4.291 0 014.8 5.85 4.286 4.286 0 01-3.963 2.648zm0-6.58a2.288 2.288 0 00-2.246 2.737A2.289 2.289 0 10119.23 7z"/><path fill="#fff" d="M145.96 165.93H66.59L49.98 151.1V37.14h95.98v128.79z"/><path fill="#717790" d="M146 166.93H66.59a1 1 0 01-.67-.25l-16.61-14.83a.997.997 0 01-.33-.75v-114a1 1 0 011-1h96a.999.999 0 011 1v128.83a1 1 0 01-.98 1zm-79-2h78V38.14H51v112.51l16 14.28z"/><path fill="#A9E0D0" d="M67.46 165.15l1-18.27-17.61 3.43"/><path fill="#717790" d="M67.46 166.08a.923.923 0 01-.835-.634.931.931 0 01-.045-.366l.88-17.08L51 151.23a.952.952 0 01-.383.024.95.95 0 01-.639-.397.934.934 0 01.014-1.087.94.94 0 01.648-.38L68.28 146a1.005 1.005 0 01.8.21 1.002 1.002 0 01.32.76l-1 18.27a.933.933 0 01-.94.84z"/><path fill="#A9E0D0" d="M74.26 63.22h-6.52a3.45 3.45 0 00-3.45 3.45v6.52a3.45 3.45 0 003.45 3.45h6.52a3.45 3.45 0 003.45-3.45v-6.52a3.45 3.45 0 00-3.45-3.45zM74.26 113.22h-6.52a3.45 3.45 0 00-3.45 3.45v6.52a3.45 3.45 0 003.45 3.45h6.52a3.45 3.45 0 003.45-3.45v-6.52a3.45 3.45 0 00-3.45-3.45z"/><path fill="#717790" d="M132.16 121.3h-46a.998.998 0 01-1-1 1 1 0 011-1h46a1 1 0 110 2zM132.16 71.3h-46a1 1 0 110-2h46a1.001 1.001 0 010 2z"/><path fill="#A9E0D0" d="M74.26 88.29h-6.52a3.45 3.45 0 00-3.45 3.45v6.52a3.45 3.45 0 003.45 3.45h6.52a3.45 3.45 0 003.45-3.45v-6.52a3.45 3.45 0 00-3.45-3.45z"/><path fill="#717790" d="M132.16 96h-46a1 1 0 010-2h46a1.001 1.001 0 010 2z"/></svg>