<svg xmlns="http://www.w3.org/2000/svg" width="101" height="90" fill="none" viewBox="0 0 101 90"><mask id="fs-i2cevocr3a" style="mask-type:alpha" width="91" height="90" x="7" y="0" maskUnits="userSpaceOnUse"><path fill="url(#paint0_linear_15_142555)" d="M52.17 90c24.852 0 45-20.147 45-45s-20.148-45-45-45c-24.854 0-45 20.147-45 45s20.146 45 45 45z"/></mask><g mask="url(#fs-i2cevocr3a)"><path fill="url(#paint1_linear_15_142555)" d="M51.6 89.474c24.85 0 44.994-20.03 44.994-44.737C96.594 20.03 76.45 0 51.6 0S6.605 20.03 6.605 44.737c0 24.708 20.145 44.737 44.995 44.737z"/><path fill="#fff" d="M66.815 24.049a2.819 2.819 0 00-2.819 2.818v110.827h113.645V24.049H66.815zm110.493 7.064h-6.787v-6.786h6.787v6.786zm-56.35 42.5v-6.787h6.786v6.786h-6.786zm6.786.333v6.787h-6.786v-6.787h6.786zm-7.064-.334h-6.787v-6.786h6.787v6.786zm0 .334v6.787h-6.787v-6.787h6.787zm-7.121 6.787h-6.786v-6.787h6.786v6.787zm0 .278v6.786h-6.786v-6.786h6.786zm.334 0h6.787v6.786h-6.787v-6.786zm6.787 7.064v6.787h-6.787v-6.787h6.787zm.278 0h6.786v6.787h-6.786v-6.787zm0-.278v-6.786h6.786v6.786h-6.786zm7.064-6.786h6.787v6.786h-6.787v-6.786zm0-.278v-6.787h6.787v6.787h-6.787zm0-7.12v-6.787h6.787v6.786h-6.787zm0-7.065V59.76h6.787v6.787h-6.787zm-.278 0h-6.786V59.76h6.786v6.787zm-7.064 0h-6.787V59.76h6.787v6.787zm-7.121 0h-6.786V59.76h6.786v6.787zm0 .278v6.786h-6.786v-6.786h6.786zm-7.064 6.786h-6.787v-6.786h6.787v6.786zm0 .334v6.787h-6.787v-6.787h6.787zm0 7.065v6.786h-6.787v-6.786h6.787zm0 7.064v6.787h-6.787v-6.787h6.787zm.278 0h6.786v6.787h-6.786v-6.787zm6.786 7.12v6.787h-6.786v-6.787h6.786zm.334 0h6.787v6.787h-6.787v-6.787zm7.065 0h6.786v6.787h-6.786v-6.787zm7.064 0h6.787v6.787h-6.787v-6.787zm0-.333v-6.787h6.787v6.787h-6.787zm7.121-6.787h6.786v6.787h-6.786v-6.787zm0-.278v-6.786h6.786v6.786h-6.786zm0-7.064v-6.787h6.786v6.787h-6.786zm0-7.12v-6.787h6.786v6.786h-6.786zm0-7.065V59.76h6.786v6.787h-6.786zm0-7.065v-6.786h6.786v6.786h-6.786zm-.334 0h-6.787v-6.786h6.787v6.786zm-7.065 0h-6.786v-6.786h6.786v6.786zm-7.064 0h-6.787v-6.786h6.787v6.786zm-7.121 0h-6.786v-6.786h6.786v6.786zm-7.064 0h-6.787v-6.786h6.787v6.786zm0 .278v6.787h-6.787V59.76h6.787zm-7.065 6.787h-6.786V59.76h6.786v6.787zm0 .278v6.786h-6.786v-6.786h6.786zm0 7.12v6.787h-6.786v-6.787h6.786zm0 7.065v6.786h-6.786v-6.786h6.786zm0 7.064v6.787h-6.786v-6.787h6.786zm0 7.12v6.787h-6.786v-6.787h6.786zm.278 0h6.787v6.787h-6.787v-6.787zm6.787 7.065v6.786h-6.787v-6.786h6.787zm.278 0h6.786v6.786h-6.786v-6.786zm7.12 0h6.787v6.786h-6.787v-6.786zm7.065 0h6.786v6.786h-6.786v-6.786zm7.064 0h6.787v6.786h-6.787v-6.786zm7.121 0h6.786v6.786h-6.786v-6.786zm0-.278v-6.787h6.786v6.787h-6.786zm7.064-6.787h6.787v6.787h-6.787v-6.787zm0-.333v-6.787h6.787v6.787h-6.787zm0-7.065v-6.786h6.787v6.786h-6.787zm0-7.064v-6.787h6.787v6.787h-6.787zm0-7.12v-6.787h6.787v6.786h-6.787zm0-7.065V59.76h6.787v6.787h-6.787zm0-7.065v-6.786h6.787v6.786h-6.787zm0-7.12v-6.787h6.787v6.787h-6.787zm-.278 0h-6.786v-6.787h6.786v6.787zm-7.12 0h-6.787v-6.787h6.787v6.787zm-7.065 0h-6.786v-6.787h6.786v6.787zm-7.064 0h-6.787v-6.787h6.787v6.787zm-7.121 0h-6.786v-6.787h6.786v6.787zm-7.064 0h-6.787v-6.787h6.787v6.787zm-7.065 0h-6.786v-6.787h6.786v6.787zm0 .334v6.786h-6.786v-6.786h6.786zm-7.12 6.786h-6.786v-6.786h6.786v6.786zm0 .278v6.787h-6.786V59.76h6.786zm0 7.065v6.786h-6.786v-6.786h6.786zm0 7.12v6.787h-6.786v-6.787h6.786zm0 7.065v6.786h-6.786v-6.786h6.786zm0 7.064v6.787h-6.786v-6.787h6.786zm0 7.12v6.787h-6.786v-6.787h6.786zm0 7.065v6.786h-6.786v-6.786h6.786zm.334 0h6.786v6.786h-6.786v-6.786zm6.786 7.065v6.786h-6.786v-6.786h6.786zm.278 0h6.787v6.786h-6.787v-6.786zm7.065 0h6.786v6.786h-6.786v-6.786zm7.12 0h6.787v6.786h-6.787v-6.786zm7.065 0h6.786v6.786h-6.786v-6.786zm7.064 0h6.787v6.786h-6.787v-6.786zm7.121 0h6.786v6.786h-6.786v-6.786zm7.064 0h6.787v6.786h-6.787v-6.786zm0-.279v-6.786h6.787v6.786h-6.787zm7.065-6.786h6.786v6.786h-6.786v-6.786zm0-.278v-6.787h6.786v6.787h-6.786zm0-7.12v-6.787h6.786v6.787h-6.786zm0-7.065v-6.786h6.786v6.786h-6.786zm0-7.064v-6.787h6.786v6.787h-6.786zm0-7.12v-6.787h6.786v6.786h-6.786zm0-7.065V59.76h6.786v6.787h-6.786zm0-7.065v-6.786h6.786v6.786h-6.786zm0-7.12v-6.787h6.786v6.787h-6.786zm0-7.065v-6.786h6.786v6.786h-6.786zm-.278 0h-6.787v-6.786h6.787v6.786zm-7.065 0h-6.786v-6.786h6.786v6.786zm-7.12 0h-6.787v-6.786h6.787v6.786zm-7.065 0h-6.786v-6.786h6.786v6.786zm-7.064 0h-6.787v-6.786h6.787v6.786zm-7.121 0h-6.786v-6.786h6.786v6.786zm-7.064 0h-6.787v-6.786h6.787v6.786zm-7.065 0h-6.786v-6.786h6.786v6.786zm-7.12 0h-6.786v-6.786h6.786v6.786zm0 .278v6.787h-6.786v-6.787h6.786zm-7.064 6.787h-6.787v-6.787h6.787v6.787zm0 .334v6.786h-6.787v-6.786h6.787zm0 7.064v6.787h-6.787V59.76h6.787zm0 7.065v6.786h-6.787v-6.786h6.787zm0 7.12v6.787h-6.787v-6.787h6.787zm0 7.065v6.786h-6.787v-6.786h6.787zm0 7.064v6.787h-6.787v-6.787h6.787zm0 7.12v6.787h-6.787v-6.787h6.787zm0 7.065v6.786h-6.787v-6.786h6.787zm0 7.065v6.786h-6.787v-6.786h6.787zm.278 0h6.786v6.786h-6.786v-6.786zm6.786 7.12v6.786h-6.786v-6.786h6.786zm.334 0h6.786v6.786h-6.786v-6.786zm7.064 0h6.787v6.786h-6.787v-6.786zm7.065 0h6.786v6.786h-6.786v-6.786zm7.12 0h6.787v6.786h-6.787v-6.786zm7.065 0h6.786v6.786h-6.786v-6.786zm7.064 0h6.787v6.786h-6.787v-6.786zm7.121 0h6.786v6.786h-6.786v-6.786zm7.064 0h6.787v6.786h-6.787v-6.786zm7.065 0h6.786v6.786h-6.786v-6.786zm0-.334v-6.786h6.786v6.786h-6.786zm7.12-6.786h6.787v6.786h-6.787v-6.786zm0-.279v-6.786h6.787v6.786h-6.787zm0-7.064v-6.787h6.787v6.787h-6.787zm0-7.12v-6.787h6.787v6.787h-6.787zm0-7.065v-6.786h6.787v6.786h-6.787zm0-7.064v-6.787h6.787v6.787h-6.787zm0-7.12v-6.787h6.787v6.786h-6.787zm0-7.065V59.76h6.787v6.787h-6.787zm0-7.065v-6.786h6.787v6.786h-6.787zm0-7.12v-6.787h6.787v6.787h-6.787zm0-7.065v-6.786h6.787v6.786h-6.787zm0-7.064v-6.787h6.787v6.787h-6.787zm-.334 0h-6.786v-6.787h6.786v6.787zm-7.064 0h-6.787v-6.787h6.787v6.787zm-7.065 0h-6.786v-6.787h6.786v6.787zm-7.12 0h-6.787v-6.787h6.787v6.787zm-7.065 0h-6.786v-6.787h6.786v6.787zm-7.064 0h-6.787v-6.787h6.787v6.787zm-7.121 0h-6.786v-6.787h6.786v6.787zm-7.064 0h-6.787v-6.787h6.787v6.787zm-7.065 0h-6.786v-6.787h6.786v6.787zm-7.12 0h-6.786v-6.787h6.786v6.787zm-7.064 0h-6.787v-6.787h6.787v6.787zm0 .278v6.786h-6.787v-6.786h6.787zm-7.065 6.786h-6.787v-6.786h6.787v6.786zm0 .278v6.787h-6.787v-6.787h6.787zm0 7.12v6.787h-6.787v-6.786h6.787zm0 7.065v6.787h-6.787V59.76h6.787zm0 7.065v6.786h-6.787v-6.786h6.787zm0 7.12v6.787h-6.787v-6.787h6.787zm0 7.065v6.786h-6.787v-6.786h6.787zm0 7.064v6.787h-6.787v-6.787h6.787zm0 7.12v6.787h-6.787v-6.787h6.787zm0 7.065v6.786h-6.787v-6.786h6.787zm0 7.065v6.786h-6.787v-6.786h6.787zm0 7.12v6.786h-6.787v-6.786h6.787zm.278 0h6.787v6.786h-6.787v-6.786zm6.787 7.064v6.787h-6.787v-6.787h6.787zm.278 0h6.786v6.787h-6.786v-6.787zm7.12 0h6.786v6.787h-6.786v-6.787zm7.064 0h6.787v6.787h-6.787v-6.787zm7.065 0h6.786v6.787h-6.786v-6.787zm7.12 0h6.787v6.787h-6.787v-6.787zm7.065 0h6.786v6.787h-6.786v-6.787zm7.064 0h6.787v6.787h-6.787v-6.787zm7.121 0h6.786v6.787h-6.786v-6.787zm7.064 0h6.787v6.787h-6.787v-6.787zm7.065 0h6.786v6.787h-6.786v-6.787zm7.12 0h6.787v6.787h-6.787v-6.787zm0-.278v-6.786h6.787v6.786h-6.787zm7.065-6.786h6.786v6.786h-6.786v-6.786zm0-.334v-6.786h6.786v6.786h-6.786zm0-7.065v-6.786h6.786v6.786h-6.786zm0-7.064v-6.787h6.786v6.787h-6.786zm0-7.12v-6.787h6.786v6.787h-6.786zm0-7.065v-6.786h6.786v6.786h-6.786zm0-7.064v-6.787h6.786v6.787h-6.786zm0-7.12v-6.787h6.786v6.786h-6.786zm0-7.065V59.76h6.786v6.787h-6.786zm0-7.065v-6.786h6.786v6.786h-6.786zm0-7.12v-6.787h6.786v6.787h-6.786zm0-7.065v-6.786h6.786v6.786h-6.786zm0-7.064v-6.787h6.786v6.787h-6.786zm0-7.12v-6.787h6.786v6.786h-6.786zm-.278 0h-6.787v-6.787h6.787v6.786zm-7.121 0h-6.786v-6.787h6.786v6.786zm-7.064 0h-6.787v-6.787h6.787v6.786zm-7.065 0h-6.786v-6.787h6.786v6.786zm-7.12 0h-6.787v-6.787h6.787v6.786zm-7.065 0h-6.786v-6.787h6.786v6.786zm-7.064 0h-6.787v-6.787h6.787v6.786zm-7.121 0h-6.786v-6.787h6.786v6.786zm-7.064 0h-6.787v-6.787h6.787v6.786zm-7.065 0h-6.786v-6.787h6.786v6.786zm-7.12 0h-6.786v-6.787h6.786v6.786zm-7.064 0h-6.787v-6.787h6.787v6.786zm-7.065 0h-6.787v-6.787h6.787v6.786zm0 .333v6.787h-6.787v-6.787h6.787zm-7.12 6.787h-6.787v-6.787h6.787v6.787zm0 .278v6.786h-6.787v-6.786h6.787zm0 7.064v6.787h-6.787v-6.787h6.787zm0 7.12v6.787h-6.787v-6.786h6.787zm0 7.065v6.787h-6.787V59.76h6.787zm0 7.065v6.786h-6.787v-6.786h6.787zm0 7.12v6.787h-6.787v-6.787h6.787zm0 7.065v6.786h-6.787v-6.786h6.787zm0 7.064v6.787h-6.787v-6.787h6.787zm0 7.12v6.787h-6.787v-6.787h6.787zm0 7.065v6.786h-6.787v-6.786h6.787zm0 7.065v6.786h-6.787v-6.786h6.787zm0 7.12v6.786h-6.787v-6.786h6.787zm0 7.064v6.787h-6.787v-6.787h6.787zm.333 0h6.787v6.787h-6.787v-6.787zm6.787 7.065v6.786h-6.787v-6.786h6.787zm.278 0h6.787v6.786h-6.787v-6.786zm7.065 0h6.786v6.786h-6.786v-6.786zm7.12 0h6.786v6.786h-6.786v-6.786zm7.064 0h6.787v6.786h-6.787v-6.786zm7.065 0h6.786v6.786h-6.786v-6.786zm7.12 0h6.787v6.786h-6.787v-6.786zm7.065 0h6.786v6.786h-6.786v-6.786zm7.064 0h6.787v6.786h-6.787v-6.786zm7.121 0h6.786v6.786h-6.786v-6.786zm7.064 0h6.787v6.786h-6.787v-6.786zm7.065 0h6.786v6.786h-6.786v-6.786zm7.12 0h6.787v6.786h-6.787v-6.786zm7.065 0h6.786v6.786h-6.786v-6.786zm0-.278v-6.787h6.786v6.787h-6.786zm7.064-6.787h6.787v6.787h-6.787v-6.787zm0-.278v-6.786h6.787v6.786h-6.787zm0-7.12v-6.786h6.787v6.786h-6.787zm0-7.065v-6.786h6.787v6.786h-6.787zm0-7.064v-6.787h6.787v6.787h-6.787zm0-7.12v-6.787h6.787v6.787h-6.787zm0-7.065v-6.786h6.787v6.786h-6.787zm0-7.064v-6.787h6.787v6.787h-6.787zm0-7.12v-6.787h6.787v6.786h-6.787zm0-7.065V59.76h6.787v6.787h-6.787zm0-7.065v-6.786h6.787v6.786h-6.787zm0-7.12v-6.787h6.787v6.787h-6.787zm0-7.065v-6.786h6.787v6.786h-6.787zm0-7.064v-6.787h6.787v6.787h-6.787zm-99.46-13.907v6.786h-6.787v-3.967a2.819 2.819 0 012.819-2.819h3.968zm-6.787 106.247h6.787v6.786h-6.787v-6.786zm106.247 6.786v-6.786h6.787v6.786h-6.787z"/></g><path fill="url(#paint2_radial_15_142555)" d="M5.745 79.628a5.745 5.745 0 100-11.49 5.745 5.745 0 000 11.49z"/><path fill="url(#paint3_radial_15_142555)" d="M2.422 73.603c-1.041-.64-1.301-2.102-.58-3.243.7-1.141 2.121-1.562 3.162-.921 1.041.64 1.302 2.102.58 3.243-.72 1.16-2.141 1.561-3.162.92z" opacity=".5"/><path fill="url(#paint4_radial_15_142555)" d="M80.433 13.139a4.385 4.385 0 100-8.77 4.385 4.385 0 000 8.77z"/><path fill="url(#paint5_radial_15_142555)" d="M77.896 8.54c-.794-.49-.993-1.605-.443-2.476.535-.871 1.62-1.192 2.415-.703.794.489.993 1.604.443 2.475-.55.886-1.635 1.192-2.415.703z" opacity=".5"/><g filter="url(#filter0_f_15_142555)"><ellipse cx="48.756" cy="81.081" fill="#000" fill-opacity=".37" rx="43.119" ry=".229"/></g><g filter="url(#filter1_ii_15_142555)"><path fill="#E4E4E4" d="M41.107 64.162c0-.962.78-1.744 1.742-1.744h11.342c.962 0 1.742.78 1.742 1.742v16.692H41.107v-16.69z"/></g><path fill="url(#paint6_linear_15_142555)" d="M41.46 69.348h14.357v8.276H41.46z"/><g filter="url(#filter2_ii_15_142555)"><rect width="78.784" height="52.639" x="10.203" y="18.342" fill="#E4E4E4" rx="2.614"/></g><rect width="72.717" height="46.101" x="13.672" y="22.072" fill="#010101" rx="2.178"/><g filter="url(#filter3_iii_15_142555)"><path fill="#4392F4" d="M84.24 20.39H14.564a2.456 2.456 0 00-2.448 2.464v43.68A2.456 2.456 0 0014.564 69H84.24a2.456 2.456 0 002.448-2.465v-43.68a2.456 2.456 0 00-2.448-2.464z"/></g><path fill="#231F20" d="M80.517 26.847H18.245c-1.13 0-2.046.916-2.046 2.046v.16c0 1.13.916 2.046 2.046 2.046h62.272c1.13 0 2.046-.916 2.046-2.046v-.16c0-1.13-.916-2.046-2.046-2.046z" opacity=".2"/><g filter="url(#filter4_ii_15_142555)"><path fill="url(#paint7_linear_15_142555)" d="M80.902 26.847H18.48a1.97 1.97 0 100 3.94h62.422a1.97 1.97 0 100-3.94z"/></g><path fill="#231F20" d="M30.654 28.33h-9.871a.618.618 0 100 1.236h9.871a.618.618 0 100-1.236z" opacity=".4"/><path fill="#D7D7D7" d="M30.696 28.201h-9.863a.618.618 0 100 1.236h9.863a.618.618 0 100-1.236z"/><g filter="url(#filter6_ii_15_142555)"><path fill="#EAEAEA" d="M16.683 24.588a.787.787 0 100-1.573.787.787 0 000 1.573z"/></g><g filter="url(#filter7_ii_15_142555)"><path fill="#EAEAEA" d="M19.28 24.588a.787.787 0 100-1.573.787.787 0 000 1.573z"/></g><g filter="url(#filter8_ii_15_142555)"><path fill="#EAEAEA" d="M21.877 24.588a.787.787 0 100-1.573.787.787 0 000 1.573z"/></g><rect width="65.552" height="30.094" x="16.199" y="35.15" fill="#002880" fill-opacity=".32" rx=".871"/><g filter="url(#filter9_ii_15_142555)"><rect width="65.241" height="30.094" x="16.509" y="34.631" fill="url(#paint9_linear_15_142555)" rx=".871"/></g><g filter="url(#filter10_ii_15_142555)"><rect width="23.586" height="1.829" x="36.815" y="79.023" fill="#E4E4E4" rx=".914"/></g><g filter="url(#filter11_i_15_142555)"><path fill="url(#paint10_linear_15_142555)" d="M89.859 69.073c-.028-.006-.057-.011-.078-.031-.43-.411.842-6.006.963-6.424.615-2.123 1.634-4.19 3.272-5.706 1.16-1.073 4.256-3.173 5.864-1.938 1.354 1.041.085 3.656-.54 4.75-1.119 1.944-2.768 3.52-4.177 5.244-.84 1.032-1.685 2.083-2.525 3.115-.055.07-.48.674-.799 1.068-.204.252-.5.298-.814.218l-1.166-.296z"/></g><g filter="url(#filter12_i_15_142555)"><path fill="url(#paint11_linear_15_142555)" d="M91.697 70.775c.688.148 1.3-.437 1.157-1.125-.79-3.787-3.406-13.662-8.947-11.863-5.036 1.654 5.787 11.392 7.355 12.772a.95.95 0 00.435.216z"/></g><path fill="#77FFE4" fill-opacity=".2" d="M85.416 59.757s6.48 8.458 6.554 10.247zM97.963 56.642s-5.324 6.793-5.903 9.808z"/><path fill="url(#paint12_linear_15_142555)" d="M85.109 69.105a1.325 1.325 0 011.318-1.452h8.98c.783 0 1.395.674 1.32 1.452l-1.001 10.38a1.325 1.325 0 01-1.319 1.198h-6.979a1.325 1.325 0 01-1.319-1.197l-1-10.38z"/><g filter="url(#filter13_i_15_142555)"><rect width="12.757" height="3.141" x="84.54" y="67.653" fill="url(#paint13_linear_15_142555)" rx=".662"/></g><g filter="url(#filter14_di_15_142555)"><path fill="#FB7558" d="M39.017 36.952c.71-1.238 2.494-1.238 3.204 0l12.507 21.821c.706 1.231-.183 2.765-1.602 2.765H28.112c-1.42 0-2.308-1.534-1.602-2.765l12.507-21.821z"/></g><g filter="url(#filter15_d_15_142555)"><path fill="#fff" d="M40.805 52.521c.611 0 1.109-.492 1.115-1.104l.087-8.031a1.202 1.202 0 10-2.404 0l.086 8.031a1.116 1.116 0 001.116 1.104zm-.01 1.55c-.723 0-1.317.621-1.317 1.416 0 .756.594 1.376 1.318 1.376.742 0 1.354-.62 1.354-1.376 0-.795-.612-1.415-1.354-1.415z"/></g><g filter="url(#filter16_d_15_142555)"><rect width="15.446" height="1.091" x="53.684" y="47.812" fill="#3E3E3E" rx=".545"/></g><g filter="url(#filter17_dii_15_142555)"><rect width="15.694" height="1.318" x="53.543" y="47.585" fill="url(#paint14_linear_15_142555)" rx=".659"/></g><g filter="url(#filter18_d_15_142555)"><rect width="13.629" height="1.091" x="53.668" y="51.001" fill="#3E3E3E" rx=".545"/></g><g filter="url(#filter19_dii_15_142555)"><rect width="13.847" height="1.318" x="53.543" y="50.774" fill="url(#paint15_linear_15_142555)" rx=".659"/></g><g filter="url(#filter20_d_15_142555)"><rect width="19.08" height="1.091" x="53.718" y="44.539" fill="#3E3E3E" rx=".545"/></g><g filter="url(#filter21_dii_15_142555)"><rect width="19.386" height="1.318" x="53.543" y="44.313" fill="url(#paint16_linear_15_142555)" rx=".659"/></g><defs><filter id="filter0_f_15_142555" width="88.067" height="2.285" x="4.723" y="79.939" color-interpolation-filters="sRGB" filterUnits="userSpaceOnUse"><feFlood flood-opacity="0" result="BackgroundImageFix"/><feBlend in="SourceGraphic" in2="BackgroundImageFix" result="shape"/><feGaussianBlur result="effect1_foregroundBlur_15_142555" stdDeviation=".457"/></filter><filter id="filter1_ii_15_142555" width="15.001" height="18.609" x="41.02" y="62.331" color-interpolation-filters="sRGB" filterUnits="userSpaceOnUse"><feFlood flood-opacity="0" result="BackgroundImageFix"/><feBlend in="SourceGraphic" in2="BackgroundImageFix" result="shape"/><feColorMatrix in="SourceAlpha" result="hardAlpha" values="0 0 0 0 0 0 0 0 0 0 0 0 0 0 0 0 0 0 127 0"/><feOffset dx=".436" dy=".479"/><feGaussianBlur stdDeviation=".044"/><feComposite in2="hardAlpha" k2="-1" k3="1" operator="arithmetic"/><feColorMatrix values="0 0 0 0 0.958333 0 0 0 0 0.958333 0 0 0 0 0.958333 0 0 0 1 0"/><feBlend in2="shape" result="effect1_innerShadow_15_142555"/><feColorMatrix in="SourceAlpha" result="hardAlpha" values="0 0 0 0 0 0 0 0 0 0 0 0 0 0 0 0 0 0 127 0"/><feOffset dx="-.436" dy="-.261"/><feGaussianBlur stdDeviation=".044"/><feComposite in2="hardAlpha" k2="-1" k3="1" operator="arithmetic"/><feColorMatrix values="0 0 0 0 0.833333 0 0 0 0 0.833333 0 0 0 0 0.833333 0 0 0 1 0"/><feBlend in2="effect1_innerShadow_15_142555" result="effect2_innerShadow_15_142555"/></filter><filter id="filter2_ii_15_142555" width="79.306" height="53.205" x="10.116" y="18.255" color-interpolation-filters="sRGB" filterUnits="userSpaceOnUse"><feFlood flood-opacity="0" result="BackgroundImageFix"/><feBlend in="SourceGraphic" in2="BackgroundImageFix" result="shape"/><feColorMatrix in="SourceAlpha" result="hardAlpha" values="0 0 0 0 0 0 0 0 0 0 0 0 0 0 0 0 0 0 127 0"/><feOffset dx=".436" dy=".479"/><feGaussianBlur stdDeviation=".261"/><feComposite in2="hardAlpha" k2="-1" k3="1" operator="arithmetic"/><feColorMatrix values="0 0 0 0 1 0 0 0 0 1 0 0 0 0 1 0 0 0 1 0"/><feBlend in2="shape" result="effect1_innerShadow_15_142555"/><feColorMatrix in="SourceAlpha" result="hardAlpha" values="0 0 0 0 0 0 0 0 0 0 0 0 0 0 0 0 0 0 127 0"/><feOffset dx="-.436" dy="-.261"/><feGaussianBlur stdDeviation=".044"/><feComposite in2="hardAlpha" k2="-1" k3="1" operator="arithmetic"/><feColorMatrix values="0 0 0 0 0.833333 0 0 0 0 0.833333 0 0 0 0 0.833333 0 0 0 1 0"/><feBlend in2="effect1_innerShadow_15_142555" result="effect2_innerShadow_15_142555"/></filter><filter id="filter3_iii_15_142555" width="75.006" height="49.35" x="11.681" y="20.128" color-interpolation-filters="sRGB" filterUnits="userSpaceOnUse"><feFlood flood-opacity="0" result="BackgroundImageFix"/><feBlend in="SourceGraphic" in2="BackgroundImageFix" result="shape"/><feColorMatrix in="SourceAlpha" result="hardAlpha" values="0 0 0 0 0 0 0 0 0 0 0 0 0 0 0 0 0 0 127 0"/><feOffset dy="-.261"/><feGaussianBlur stdDeviation=".261"/><feComposite in2="hardAlpha" k2="-1" k3="1" operator="arithmetic"/><feColorMatrix values="0 0 0 0 0.089132 0 0 0 0 0.328429 0 0 0 0 0.629167 0 0 0 1 0"/><feBlend in2="shape" result="effect1_innerShadow_15_142555"/><feColorMatrix in="SourceAlpha" result="hardAlpha" values="0 0 0 0 0 0 0 0 0 0 0 0 0 0 0 0 0 0 127 0"/><feOffset dy=".479"/><feGaussianBlur stdDeviation=".24"/><feComposite in2="hardAlpha" k2="-1" k3="1" operator="arithmetic"/><feColorMatrix values="0 0 0 0 0.641667 0 0 0 0 0.8495 0 0 0 0 1 0 0 0 1 0"/><feBlend in2="effect1_innerShadow_15_142555" result="effect2_innerShadow_15_142555"/><feColorMatrix in="SourceAlpha" result="hardAlpha" values="0 0 0 0 0 0 0 0 0 0 0 0 0 0 0 0 0 0 127 0"/><feOffset dx="-.436"/><feGaussianBlur stdDeviation=".218"/><feComposite in2="hardAlpha" k2="-1" k3="1" operator="arithmetic"/><feColorMatrix values="0 0 0 0 0 0 0 0 0 0 0 0 0 0 0 0 0 0 0.25 0"/><feBlend in2="effect2_innerShadow_15_142555" result="effect3_innerShadow_15_142555"/></filter><filter id="filter4_ii_15_142555" width="66.887" height="4.507" x="16.422" y="26.76" color-interpolation-filters="sRGB" filterUnits="userSpaceOnUse"><feFlood flood-opacity="0" result="BackgroundImageFix"/><feBlend in="SourceGraphic" in2="BackgroundImageFix" result="shape"/><feColorMatrix in="SourceAlpha" result="hardAlpha" values="0 0 0 0 0 0 0 0 0 0 0 0 0 0 0 0 0 0 127 0"/><feOffset dx=".436" dy=".479"/><feGaussianBlur stdDeviation=".261"/><feComposite in2="hardAlpha" k2="-1" k3="1" operator="arithmetic"/><feColorMatrix values="0 0 0 0 1 0 0 0 0 1 0 0 0 0 1 0 0 0 1 0"/><feBlend in2="shape" result="effect1_innerShadow_15_142555"/><feColorMatrix in="SourceAlpha" result="hardAlpha" values="0 0 0 0 0 0 0 0 0 0 0 0 0 0 0 0 0 0 127 0"/><feOffset dx="-.436" dy="-.261"/><feGaussianBlur stdDeviation=".044"/><feComposite in2="hardAlpha" k2="-1" k3="1" operator="arithmetic"/><feColorMatrix values="0 0 0 0 0.833333 0 0 0 0 0.833333 0 0 0 0 0.833333 0 0 0 1 0"/><feBlend in2="effect1_innerShadow_15_142555" result="effect2_innerShadow_15_142555"/></filter><filter id="filter5_dii_15_142555" width="11.824" height="2.194" x="19.927" y="27.94" color-interpolation-filters="sRGB" filterUnits="userSpaceOnUse"><feFlood flood-opacity="0" result="BackgroundImageFix"/><feColorMatrix in="SourceAlpha" result="hardAlpha" values="0 0 0 0 0 0 0 0 0 0 0 0 0 0 0 0 0 0 127 0"/><feOffset dy=".436"/><feGaussianBlur stdDeviation=".218"/><feColorMatrix values="0 0 0 0 0 0 0 0 0 0 0 0 0 0 0 0 0 0 0.07 0"/><feBlend in2="BackgroundImageFix" result="effect1_dropShadow_15_142555"/><feBlend in="SourceGraphic" in2="effect1_dropShadow_15_142555" result="shape"/><feColorMatrix in="SourceAlpha" result="hardAlpha" values="0 0 0 0 0 0 0 0 0 0 0 0 0 0 0 0 0 0 127 0"/><feOffset dx=".436" dy=".479"/><feGaussianBlur stdDeviation=".261"/><feComposite in2="hardAlpha" k2="-1" k3="1" operator="arithmetic"/><feColorMatrix values="0 0 0 0 1 0 0 0 0 1 0 0 0 0 1 0 0 0 1 0"/><feBlend in2="shape" result="effect2_innerShadow_15_142555"/><feColorMatrix in="SourceAlpha" result="hardAlpha" values="0 0 0 0 0 0 0 0 0 0 0 0 0 0 0 0 0 0 127 0"/><feOffset dx="-.479" dy="-.261"/><feGaussianBlur stdDeviation=".218"/><feComposite in2="hardAlpha" k2="-1" k3="1" operator="arithmetic"/><feColorMatrix values="0 0 0 0 0.833333 0 0 0 0 0.833333 0 0 0 0 0.833333 0 0 0 1 0"/><feBlend in2="effect2_innerShadow_15_142555" result="effect3_innerShadow_15_142555"/></filter><filter id="filter6_ii_15_142555" width="1.704" height="1.705" x="15.809" y="22.927" color-interpolation-filters="sRGB" filterUnits="userSpaceOnUse"><feFlood flood-opacity="0" result="BackgroundImageFix"/><feBlend in="SourceGraphic" in2="BackgroundImageFix" result="shape"/><feColorMatrix in="SourceAlpha" result="hardAlpha" values="0 0 0 0 0 0 0 0 0 0 0 0 0 0 0 0 0 0 127 0"/><feOffset dx=".087" dy=".087"/><feGaussianBlur stdDeviation=".022"/><feComposite in2="hardAlpha" k2="-1" k3="1" operator="arithmetic"/><feColorMatrix values="0 0 0 0 1 0 0 0 0 1 0 0 0 0 1 0 0 0 1 0"/><feBlend in2="shape" result="effect1_innerShadow_15_142555"/><feColorMatrix in="SourceAlpha" result="hardAlpha" values="0 0 0 0 0 0 0 0 0 0 0 0 0 0 0 0 0 0 127 0"/><feOffset dx="-.087" dy="-.087"/><feGaussianBlur stdDeviation=".044"/><feComposite in2="hardAlpha" k2="-1" k3="1" operator="arithmetic"/><feColorMatrix values="0 0 0 0 0.658333 0 0 0 0 0.658333 0 0 0 0 0.658333 0 0 0 1 0"/><feBlend in2="effect1_innerShadow_15_142555" result="effect2_innerShadow_15_142555"/></filter><filter id="filter7_ii_15_142555" width="1.704" height="1.705" x="18.406" y="22.927" color-interpolation-filters="sRGB" filterUnits="userSpaceOnUse"><feFlood flood-opacity="0" result="BackgroundImageFix"/><feBlend in="SourceGraphic" in2="BackgroundImageFix" result="shape"/><feColorMatrix in="SourceAlpha" result="hardAlpha" values="0 0 0 0 0 0 0 0 0 0 0 0 0 0 0 0 0 0 127 0"/><feOffset dx=".087" dy=".087"/><feGaussianBlur stdDeviation=".022"/><feComposite in2="hardAlpha" k2="-1" k3="1" operator="arithmetic"/><feColorMatrix values="0 0 0 0 1 0 0 0 0 1 0 0 0 0 1 0 0 0 1 0"/><feBlend in2="shape" result="effect1_innerShadow_15_142555"/><feColorMatrix in="SourceAlpha" result="hardAlpha" values="0 0 0 0 0 0 0 0 0 0 0 0 0 0 0 0 0 0 127 0"/><feOffset dx="-.087" dy="-.087"/><feGaussianBlur stdDeviation=".044"/><feComposite in2="hardAlpha" k2="-1" k3="1" operator="arithmetic"/><feColorMatrix values="0 0 0 0 0.658333 0 0 0 0 0.658333 0 0 0 0 0.658333 0 0 0 1 0"/><feBlend in2="effect1_innerShadow_15_142555" result="effect2_innerShadow_15_142555"/></filter><filter id="filter8_ii_15_142555" width="1.704" height="1.705" x="21.003" y="22.927" color-interpolation-filters="sRGB" filterUnits="userSpaceOnUse"><feFlood flood-opacity="0" result="BackgroundImageFix"/><feBlend in="SourceGraphic" in2="BackgroundImageFix" result="shape"/><feColorMatrix in="SourceAlpha" result="hardAlpha" values="0 0 0 0 0 0 0 0 0 0 0 0 0 0 0 0 0 0 127 0"/><feOffset dx=".087" dy=".087"/><feGaussianBlur stdDeviation=".022"/><feComposite in2="hardAlpha" k2="-1" k3="1" operator="arithmetic"/><feColorMatrix values="0 0 0 0 1 0 0 0 0 1 0 0 0 0 1 0 0 0 1 0"/><feBlend in2="shape" result="effect1_innerShadow_15_142555"/><feColorMatrix in="SourceAlpha" result="hardAlpha" values="0 0 0 0 0 0 0 0 0 0 0 0 0 0 0 0 0 0 127 0"/><feOffset dx="-.087" dy="-.087"/><feGaussianBlur stdDeviation=".044"/><feComposite in2="hardAlpha" k2="-1" k3="1" operator="arithmetic"/><feColorMatrix values="0 0 0 0 0.658333 0 0 0 0 0.658333 0 0 0 0 0.658333 0 0 0 1 0"/><feBlend in2="effect1_innerShadow_15_142555" result="effect2_innerShadow_15_142555"/></filter><filter id="filter9_ii_15_142555" width="65.764" height="30.66" x="16.422" y="34.544" color-interpolation-filters="sRGB" filterUnits="userSpaceOnUse"><feFlood flood-opacity="0" result="BackgroundImageFix"/><feBlend in="SourceGraphic" in2="BackgroundImageFix" result="shape"/><feColorMatrix in="SourceAlpha" result="hardAlpha" values="0 0 0 0 0 0 0 0 0 0 0 0 0 0 0 0 0 0 127 0"/><feOffset dx=".436" dy=".479"/><feGaussianBlur stdDeviation=".261"/><feComposite in2="hardAlpha" k2="-1" k3="1" operator="arithmetic"/><feColorMatrix values="0 0 0 0 1 0 0 0 0 1 0 0 0 0 1 0 0 0 1 0"/><feBlend in2="shape" result="effect1_innerShadow_15_142555"/><feColorMatrix in="SourceAlpha" result="hardAlpha" values="0 0 0 0 0 0 0 0 0 0 0 0 0 0 0 0 0 0 127 0"/><feOffset dx="-.436" dy="-.261"/><feGaussianBlur stdDeviation=".044"/><feComposite in2="hardAlpha" k2="-1" k3="1" operator="arithmetic"/><feColorMatrix values="0 0 0 0 0.833333 0 0 0 0 0.833333 0 0 0 0 0.833333 0 0 0 1 0"/><feBlend in2="effect1_innerShadow_15_142555" result="effect2_innerShadow_15_142555"/></filter><filter id="filter10_ii_15_142555" width="23.761" height="2.003" x="36.727" y="78.936" color-interpolation-filters="sRGB" filterUnits="userSpaceOnUse"><feFlood flood-opacity="0" result="BackgroundImageFix"/><feBlend in="SourceGraphic" in2="BackgroundImageFix" result="shape"/><feColorMatrix in="SourceAlpha" result="hardAlpha" values="0 0 0 0 0 0 0 0 0 0 0 0 0 0 0 0 0 0 127 0"/><feOffset dx=".436" dy=".479"/><feGaussianBlur stdDeviation=".044"/><feComposite in2="hardAlpha" k2="-1" k3="1" operator="arithmetic"/><feColorMatrix values="0 0 0 0 0.958333 0 0 0 0 0.958333 0 0 0 0 0.958333 0 0 0 1 0"/><feBlend in2="shape" result="effect1_innerShadow_15_142555"/><feColorMatrix in="SourceAlpha" result="hardAlpha" values="0 0 0 0 0 0 0 0 0 0 0 0 0 0 0 0 0 0 127 0"/><feOffset dx="-.436" dy="-.261"/><feGaussianBlur stdDeviation=".044"/><feComposite in2="hardAlpha" k2="-1" k3="1" operator="arithmetic"/><feColorMatrix values="0 0 0 0 0.833333 0 0 0 0 0.833333 0 0 0 0 0.833333 0 0 0 1 0"/><feBlend in2="effect1_innerShadow_15_142555" result="effect2_innerShadow_15_142555"/></filter><filter id="filter11_i_15_142555" width="11.424" height="15.051" x="89.693" y="54.354" color-interpolation-filters="sRGB" filterUnits="userSpaceOnUse"><feFlood flood-opacity="0" result="BackgroundImageFix"/><feBlend in="SourceGraphic" in2="BackgroundImageFix" result="shape"/><feColorMatrix in="SourceAlpha" result="hardAlpha" values="0 0 0 0 0 0 0 0 0 0 0 0 0 0 0 0 0 0 127 0"/><feOffset dx=".635" dy="-.243"/><feGaussianBlur stdDeviation=".828"/><feComposite in2="hardAlpha" k2="-1" k3="1" operator="arithmetic"/><feColorMatrix values="0 0 0 0 0.113056 0 0 0 0 0.616667 0 0 0 0 0.58645 0 0 0 1 0"/><feBlend in2="shape" result="effect1_innerShadow_15_142555"/></filter><filter id="filter12_i_15_142555" width="10.929" height="13.47" x="82.581" y="57.328" color-interpolation-filters="sRGB" filterUnits="userSpaceOnUse"><feFlood flood-opacity="0" result="BackgroundImageFix"/><feBlend in="SourceGraphic" in2="BackgroundImageFix" result="shape"/><feColorMatrix in="SourceAlpha" result="hardAlpha" values="0 0 0 0 0 0 0 0 0 0 0 0 0 0 0 0 0 0 127 0"/><feOffset dx=".635" dy="-.243"/><feGaussianBlur stdDeviation=".828"/><feComposite in2="hardAlpha" k2="-1" k3="1" operator="arithmetic"/><feColorMatrix values="0 0 0 0 0.0996528 0 0 0 0 0.683333 0 0 0 0 0.555806 0 0 0 1 0"/><feBlend in2="shape" result="effect1_innerShadow_15_142555"/></filter><filter id="filter13_i_15_142555" width="13.022" height="3.339" x="84.54" y="67.455" color-interpolation-filters="sRGB" filterUnits="userSpaceOnUse"><feFlood flood-opacity="0" result="BackgroundImageFix"/><feBlend in="SourceGraphic" in2="BackgroundImageFix" result="shape"/><feColorMatrix in="SourceAlpha" result="hardAlpha" values="0 0 0 0 0 0 0 0 0 0 0 0 0 0 0 0 0 0 127 0"/><feOffset dx=".265" dy="-.199"/><feGaussianBlur stdDeviation=".232"/><feComposite in2="hardAlpha" k2="-1" k3="1" operator="arithmetic"/><feColorMatrix values="0 0 0 0 0.833333 0 0 0 0 0.604343 0 0 0 0 0.0555555 0 0 0 1 0"/><feBlend in2="shape" result="effect1_innerShadow_15_142555"/></filter><filter id="filter14_di_15_142555" width="34.252" height="31.054" x="24.416" y="35.1" color-interpolation-filters="sRGB" filterUnits="userSpaceOnUse"><feFlood flood-opacity="0" result="BackgroundImageFix"/><feColorMatrix in="SourceAlpha" result="hardAlpha" values="0 0 0 0 0 0 0 0 0 0 0 0 0 0 0 0 0 0 127 0"/><feOffset dx=".923" dy="1.846"/><feGaussianBlur stdDeviation="1.385"/><feColorMatrix values="0 0 0 0 0 0 0 0 0 0 0 0 0 0 0 0 0 0 0.25 0"/><feBlend in2="BackgroundImageFix" result="effect1_dropShadow_15_142555"/><feBlend in="SourceGraphic" in2="effect1_dropShadow_15_142555" result="shape"/><feColorMatrix in="SourceAlpha" result="hardAlpha" values="0 0 0 0 0 0 0 0 0 0 0 0 0 0 0 0 0 0 127 0"/><feOffset dx="-.143" dy="-.428"/><feGaussianBlur stdDeviation=".214"/><feComposite in2="hardAlpha" k2="-1" k3="1" operator="arithmetic"/><feColorMatrix values="0 0 0 0 0.6875 0 0 0 0 0.207795 0 0 0 0 0.177604 0 0 0 1 0"/><feBlend in2="shape" result="effect2_innerShadow_15_142555"/></filter><filter id="filter15_d_15_142555" width="4.537" height="16.558" x="38.546" y="42.171" color-interpolation-filters="sRGB" filterUnits="userSpaceOnUse"><feFlood flood-opacity="0" result="BackgroundImageFix"/><feColorMatrix in="SourceAlpha" result="hardAlpha" values="0 0 0 0 0 0 0 0 0 0 0 0 0 0 0 0 0 0 127 0"/><feOffset dy=".933"/><feGaussianBlur stdDeviation=".466"/><feColorMatrix values="0 0 0 0 0 0 0 0 0 0 0 0 0 0 0 0 0 0 0.25 0"/><feBlend in2="BackgroundImageFix" result="effect1_dropShadow_15_142555"/><feBlend in="SourceGraphic" in2="effect1_dropShadow_15_142555" result="shape"/></filter><filter id="filter16_d_15_142555" width="15.794" height="1.439" x="53.51" y="47.681" color-interpolation-filters="sRGB" filterUnits="userSpaceOnUse"><feFlood flood-opacity="0" result="BackgroundImageFix"/><feColorMatrix in="SourceAlpha" result="hardAlpha" values="0 0 0 0 0 0 0 0 0 0 0 0 0 0 0 0 0 0 127 0"/><feOffset dy=".044"/><feGaussianBlur stdDeviation=".087"/><feColorMatrix values="0 0 0 0 0 0 0 0 0 0 0 0 0 0 0 0 0 0 0.48 0"/><feBlend in2="BackgroundImageFix" result="effect1_dropShadow_15_142555"/><feBlend in="SourceGraphic" in2="effect1_dropShadow_15_142555" result="shape"/></filter><filter id="filter17_dii_15_142555" width="16.565" height="2.45" x="53.108" y="47.324" color-interpolation-filters="sRGB" filterUnits="userSpaceOnUse"><feFlood flood-opacity="0" result="BackgroundImageFix"/><feColorMatrix in="SourceAlpha" result="hardAlpha" values="0 0 0 0 0 0 0 0 0 0 0 0 0 0 0 0 0 0 127 0"/><feOffset dy=".436"/><feGaussianBlur stdDeviation=".218"/><feColorMatrix values="0 0 0 0 0 0 0 0 0 0 0 0 0 0 0 0 0 0 0.07 0"/><feBlend in2="BackgroundImageFix" result="effect1_dropShadow_15_142555"/><feBlend in="SourceGraphic" in2="effect1_dropShadow_15_142555" result="shape"/><feColorMatrix in="SourceAlpha" result="hardAlpha" values="0 0 0 0 0 0 0 0 0 0 0 0 0 0 0 0 0 0 127 0"/><feOffset dx=".436" dy=".479"/><feGaussianBlur stdDeviation=".261"/><feComposite in2="hardAlpha" k2="-1" k3="1" operator="arithmetic"/><feColorMatrix values="0 0 0 0 1 0 0 0 0 1 0 0 0 0 1 0 0 0 1 0"/><feBlend in2="shape" result="effect2_innerShadow_15_142555"/><feColorMatrix in="SourceAlpha" result="hardAlpha" values="0 0 0 0 0 0 0 0 0 0 0 0 0 0 0 0 0 0 127 0"/><feOffset dx="-.479" dy="-.261"/><feGaussianBlur stdDeviation=".218"/><feComposite in2="hardAlpha" k2="-1" k3="1" operator="arithmetic"/><feColorMatrix values="0 0 0 0 0.833333 0 0 0 0 0.833333 0 0 0 0 0.833333 0 0 0 1 0"/><feBlend in2="effect2_innerShadow_15_142555" result="effect3_innerShadow_15_142555"/></filter><filter id="filter18_d_15_142555" width="13.977" height="1.439" x="53.493" y="50.87" color-interpolation-filters="sRGB" filterUnits="userSpaceOnUse"><feFlood flood-opacity="0" result="BackgroundImageFix"/><feColorMatrix in="SourceAlpha" result="hardAlpha" values="0 0 0 0 0 0 0 0 0 0 0 0 0 0 0 0 0 0 127 0"/><feOffset dy=".044"/><feGaussianBlur stdDeviation=".087"/><feColorMatrix values="0 0 0 0 0 0 0 0 0 0 0 0 0 0 0 0 0 0 0.48 0"/><feBlend in2="BackgroundImageFix" result="effect1_dropShadow_15_142555"/><feBlend in="SourceGraphic" in2="effect1_dropShadow_15_142555" result="shape"/></filter><filter id="filter19_dii_15_142555" width="14.719" height="2.45" x="53.108" y="50.513" color-interpolation-filters="sRGB" filterUnits="userSpaceOnUse"><feFlood flood-opacity="0" result="BackgroundImageFix"/><feColorMatrix in="SourceAlpha" result="hardAlpha" values="0 0 0 0 0 0 0 0 0 0 0 0 0 0 0 0 0 0 127 0"/><feOffset dy=".436"/><feGaussianBlur stdDeviation=".218"/><feColorMatrix values="0 0 0 0 0 0 0 0 0 0 0 0 0 0 0 0 0 0 0.07 0"/><feBlend in2="BackgroundImageFix" result="effect1_dropShadow_15_142555"/><feBlend in="SourceGraphic" in2="effect1_dropShadow_15_142555" result="shape"/><feColorMatrix in="SourceAlpha" result="hardAlpha" values="0 0 0 0 0 0 0 0 0 0 0 0 0 0 0 0 0 0 127 0"/><feOffset dx=".436" dy=".479"/><feGaussianBlur stdDeviation=".261"/><feComposite in2="hardAlpha" k2="-1" k3="1" operator="arithmetic"/><feColorMatrix values="0 0 0 0 1 0 0 0 0 1 0 0 0 0 1 0 0 0 1 0"/><feBlend in2="shape" result="effect2_innerShadow_15_142555"/><feColorMatrix in="SourceAlpha" result="hardAlpha" values="0 0 0 0 0 0 0 0 0 0 0 0 0 0 0 0 0 0 127 0"/><feOffset dx="-.479" dy="-.261"/><feGaussianBlur stdDeviation=".218"/><feComposite in2="hardAlpha" k2="-1" k3="1" operator="arithmetic"/><feColorMatrix values="0 0 0 0 0.833333 0 0 0 0 0.833333 0 0 0 0 0.833333 0 0 0 1 0"/><feBlend in2="effect2_innerShadow_15_142555" result="effect3_innerShadow_15_142555"/></filter><filter id="filter20_d_15_142555" width="19.429" height="1.439" x="53.543" y="44.408" color-interpolation-filters="sRGB" filterUnits="userSpaceOnUse"><feFlood flood-opacity="0" result="BackgroundImageFix"/><feColorMatrix in="SourceAlpha" result="hardAlpha" values="0 0 0 0 0 0 0 0 0 0 0 0 0 0 0 0 0 0 127 0"/><feOffset dy=".044"/><feGaussianBlur stdDeviation=".087"/><feColorMatrix values="0 0 0 0 0 0 0 0 0 0 0 0 0 0 0 0 0 0 0.48 0"/><feBlend in2="BackgroundImageFix" result="effect1_dropShadow_15_142555"/><feBlend in="SourceGraphic" in2="effect1_dropShadow_15_142555" result="shape"/></filter><filter id="filter21_dii_15_142555" width="20.258" height="2.45" x="53.108" y="44.051" color-interpolation-filters="sRGB" filterUnits="userSpaceOnUse"><feFlood flood-opacity="0" result="BackgroundImageFix"/><feColorMatrix in="SourceAlpha" result="hardAlpha" values="0 0 0 0 0 0 0 0 0 0 0 0 0 0 0 0 0 0 127 0"/><feOffset dy=".436"/><feGaussianBlur stdDeviation=".218"/><feColorMatrix values="0 0 0 0 0 0 0 0 0 0 0 0 0 0 0 0 0 0 0.07 0"/><feBlend in2="BackgroundImageFix" result="effect1_dropShadow_15_142555"/><feBlend in="SourceGraphic" in2="effect1_dropShadow_15_142555" result="shape"/><feColorMatrix in="SourceAlpha" result="hardAlpha" values="0 0 0 0 0 0 0 0 0 0 0 0 0 0 0 0 0 0 127 0"/><feOffset dx=".436" dy=".479"/><feGaussianBlur stdDeviation=".261"/><feComposite in2="hardAlpha" k2="-1" k3="1" operator="arithmetic"/><feColorMatrix values="0 0 0 0 1 0 0 0 0 1 0 0 0 0 1 0 0 0 1 0"/><feBlend in2="shape" result="effect2_innerShadow_15_142555"/><feColorMatrix in="SourceAlpha" result="hardAlpha" values="0 0 0 0 0 0 0 0 0 0 0 0 0 0 0 0 0 0 127 0"/><feOffset dx="-.479" dy="-.261"/><feGaussianBlur stdDeviation=".218"/><feComposite in2="hardAlpha" k2="-1" k3="1" operator="arithmetic"/><feColorMatrix values="0 0 0 0 0.833333 0 0 0 0 0.833333 0 0 0 0 0.833333 0 0 0 1 0"/><feBlend in2="effect2_innerShadow_15_142555" result="effect3_innerShadow_15_142555"/></filter><linearGradient id="paint0_linear_15_142555" x1="52.169" x2="52.169" y1="0" y2="90" gradientUnits="userSpaceOnUse"><stop stop-color="#B5EFFF"/><stop offset="1" stop-color="#E7F8FE"/></linearGradient><linearGradient id="paint1_linear_15_142555" x1="51.6" x2="51.6" y1="0" y2="89.474" gradientUnits="userSpaceOnUse"><stop stop-color="#B5EFFF"/><stop offset="1" stop-color="#EDFBFF"/></linearGradient><linearGradient id="paint6_linear_15_142555" x1="48.638" x2="48.638" y1="69.348" y2="78.818" gradientUnits="userSpaceOnUse"><stop stop-color="#8B8B8B"/><stop offset="1" stop-color="#fff" stop-opacity="0"/></linearGradient><linearGradient id="paint7_linear_15_142555" x1="22.034" x2="22.126" y1="26.847" y2="31.35" gradientUnits="userSpaceOnUse"><stop stop-color="#F1F1F1"/><stop offset="1" stop-color="#F8F8F8"/></linearGradient><linearGradient id="paint8_linear_15_142555" x1="21.274" x2="21.315" y1="28.201" y2="29.413" gradientUnits="userSpaceOnUse"><stop stop-color="#fff"/><stop offset=".271" stop-color="#fff"/><stop offset="1" stop-color="#B8B8B8"/></linearGradient><linearGradient id="paint9_linear_15_142555" x1="21.941" x2="27.266" y1="34.631" y2="68.193" gradientUnits="userSpaceOnUse"><stop stop-color="#F1F1F1"/><stop offset="1" stop-color="#F8F8F8"/></linearGradient><linearGradient id="paint10_linear_15_142555" x1="102.045" x2="90.03" y1="54.828" y2="65.619" gradientUnits="userSpaceOnUse"><stop stop-color="#BAFFF1" stop-opacity=".26"/><stop offset=".682" stop-color="#4DC7AE"/><stop offset=".969" stop-color="#06896F"/></linearGradient><linearGradient id="paint11_linear_15_142555" x1="96.699" x2="89.392" y1="59.016" y2="71.322" gradientUnits="userSpaceOnUse"><stop stop-color="#B7FDEF"/><stop offset=".682" stop-color="#09B794"/><stop offset=".969" stop-color="#7EE0CC"/></linearGradient><linearGradient id="paint12_linear_15_142555" x1="96.866" x2="85.818" y1="76.231" y2="76.231" gradientUnits="userSpaceOnUse"><stop offset=".099" stop-color="#FFEEC5"/><stop offset=".607" stop-color="#FACD63"/><stop offset=".839" stop-color="#EAAF23"/><stop offset=".984" stop-color="#EDB52F"/></linearGradient><linearGradient id="paint13_linear_15_142555" x1="97.296" x2="85.45" y1="69.721" y2="69.721" gradientUnits="userSpaceOnUse"><stop offset=".099" stop-color="#FFEEC5"/><stop offset=".607" stop-color="#FCBD27"/><stop offset=".984" stop-color="#EFB222"/></linearGradient><linearGradient id="paint14_linear_15_142555" x1="54.85" x2="54.893" y1="47.585" y2="49.09" gradientUnits="userSpaceOnUse"><stop stop-color="#fff"/><stop offset=".271" stop-color="#fff"/><stop offset="1" stop-color="#B8B8B8"/></linearGradient><linearGradient id="paint15_linear_15_142555" x1="54.696" x2="54.745" y1="50.774" y2="52.279" gradientUnits="userSpaceOnUse"><stop stop-color="#fff"/><stop offset=".271" stop-color="#fff"/><stop offset="1" stop-color="#B8B8B8"/></linearGradient><linearGradient id="paint16_linear_15_142555" x1="55.157" x2="55.193" y1="44.313" y2="45.818" gradientUnits="userSpaceOnUse"><stop stop-color="#fff"/><stop offset=".271" stop-color="#fff"/><stop offset="1" stop-color="#B8B8B8"/></linearGradient><radialGradient id="paint2_radial_15_142555" cx="0" cy="0" r="1" gradientTransform="rotate(-15.177 270.084 24.476) scale(10.9562)" gradientUnits="userSpaceOnUse"><stop stop-color="#FFF1CF"/><stop offset=".188" stop-color="#FFE4A2"/><stop offset=".318" stop-color="#FFD364"/><stop offset=".49" stop-color="#FFD364"/><stop offset=".651" stop-color="#FFC73A"/><stop offset=".948" stop-color="#D09500"/></radialGradient><radialGradient id="paint3_radial_15_142555" cx="0" cy="0" r="1" gradientTransform="rotate(121.889 -18.023 36.796) scale(2.39947 2.18521)" gradientUnits="userSpaceOnUse"><stop stop-color="#fff"/><stop offset=".694" stop-color="#fff" stop-opacity="0"/></radialGradient><radialGradient id="paint4_radial_15_142555" cx="0" cy="0" r="1" gradientTransform="rotate(-15.177 65.38 -290.547) scale(8.36249)" gradientUnits="userSpaceOnUse"><stop stop-color="#E6C6FF"/><stop offset=".188" stop-color="#C07DF5"/><stop offset=".318" stop-color="#BE6FFC"/><stop offset=".49" stop-color="#B56AF0"/><stop offset=".651" stop-color="#A745F4"/><stop offset=".948" stop-color="#9F3DED"/></radialGradient><radialGradient id="paint5_radial_15_142555" cx="0" cy="0" r="1" gradientTransform="rotate(121.889 37.501 25.39) scale(1.83144 1.6679)" gradientUnits="userSpaceOnUse"><stop stop-color="#fff"/><stop offset=".694" stop-color="#fff" stop-opacity="0"/></radialGradient></defs></svg>