<svg xmlns="http://www.w3.org/2000/svg" width="403" height="221" viewBox="0 0 403 221"><g fill="none" fill-rule="evenodd"><path fill="#EBEFF3" d="M1.921 148.548c4.798-13.357 19.32-22.498 33.438-21.051 9.724.995 19.099 6.406 28.725 4.73 10.203-1.772 17.565-11.3 20.32-21.283 2.755-9.982 1.914-20.546 1.749-30.897-.166-10.35.515-21.215 5.853-30.062 6.601-10.982 20.301-17.18 32.89-14.866 31.72 5.81 14.057 48.02 36.536 62.469 28.836 18.553 47.432-23.928 52.31-44.315 2.938-12.308 5.626-25.02 12.528-35.627 9.417-14.467 36.038-26.634 47.634-7.363 8.902 14.805-3.246 31.431-2.908 46.806.393 17.983 16.172 25.768 32.787 21.78 10.687-2.552 20.185-8.589 30.535-12.307 10.97-3.926 25.547-3.982 31.732 5.89 4.87 7.773 2.049 18.184-2.988 25.853-5.037 7.67-12.068 13.953-16.437 22.033-4.368 8.08-5.307 19.227 1.362 25.529 11.97 11.312 33.94-3.21 47.487 6.135 10.29 7.116 8.387 23.405 1.307 33.744-11.964 17.399-33.97 25.65-55.07 26.302-21.1.65-41.781-5.19-62.156-10.774-20.376-5.583-41.248-11-62.304-9.46-30.64 2.239-60.126 19.104-90.47 14.411-19.78-3.067-37.095-14.976-56.445-19.995a83.583 83.583 0 00-28.456-2.264c-7.626.7-16.657 4.792-24.363 3.068-15.148-3.35-20.142-25.83-15.596-38.486"/><path fill="#EBEFF3" d="M34.004 132.005a6.294 6.294 0 017.572 4.68 6.296 6.296 0 11-7.572-4.68M55.646 23.022A8.7 8.7 0 0166.11 29.49a8.7 8.7 0 11-10.465-6.468"/><g fill-rule="nonzero"><path fill="#F48927" d="M301.44 61.298h-1.542a.476.476 0 01-.455-.323 10.812 10.812 0 00-.547-1.33.476.476 0 01.093-.547l1.095-1.094a1.472 1.472 0 000-2.08l-2.085-2.079a1.472 1.472 0 00-2.08 0l-1.094 1.095a.476.476 0 01-.547.093c-.43-.213-.874-.396-1.33-.548a.482.482 0 01-.322-.454v-1.56c0-.812-.66-1.471-1.472-1.471h-2.939a1.472 1.472 0 00-1.477 1.472v1.532a.48.48 0 01-.323.454c-.455.153-.899.336-1.33.547a.476.476 0 01-.547-.093l-1.094-1.094a1.477 1.477 0 00-2.08 0l-2.078 2.085a1.472 1.472 0 000 2.079l1.603 1.609a.487.487 0 00.695 0 .482.482 0 000-.679l-1.609-1.641a.487.487 0 010-.69l2.085-2.085a.487.487 0 01.69 0l1.094 1.095c.442.447 1.122.56 1.685.279.39-.195.791-.363 1.204-.504a1.45 1.45 0 00.99-1.384v-1.51c0-.272.22-.493.492-.493h2.939c.272 0 .492.22.492.493v1.532a1.445 1.445 0 00.99 1.384c.413.14.815.309 1.204.504a1.46 1.46 0 001.653-.247l1.094-1.094a.487.487 0 01.69 0l2.084 2.085a.498.498 0 010 .69l-1.094 1.094a1.45 1.45 0 00-.28 1.68c.196.389.364.791.504 1.203.198.596.757.996 1.385.99h1.543a.487.487 0 01.487.493v2.938a.487.487 0 01-.487.493h-1.543a1.445 1.445 0 00-1.385.99c-.14.412-.308.815-.503 1.204a1.46 1.46 0 00.279 1.685l1.094 1.095a.487.487 0 010 .689l-2.084 2.085a.487.487 0 01-.69 0l-1.641-1.609a.487.487 0 00-.695 0 .498.498 0 000 .695l1.608 1.609c.576.57 1.504.57 2.08 0l2.079-2.085a1.472 1.472 0 000-2.08l-1.094-1.094a.482.482 0 01-.099-.547c.216-.429.399-.873.547-1.33a.476.476 0 01.454-.322h1.543c.813 0 1.472-.66 1.472-1.472v-2.971a1.472 1.472 0 00-1.4-1.461z"/><path fill="#F48927" d="M293.524 62.326a6.389 6.389 0 00-8.94-1.097.491.491 0 00.606.762 5.396 5.396 0 116.692 8.465l-.057.045a.491.491 0 00.587.785 6.389 6.389 0 001.112-8.96z"/><path fill="#647A8E" d="M283.145 71.873c.43 0 .777.343.777.767a.771.771 0 01-.777.768.771.771 0 01-.776-.768c0-.424.35-.767.776-.767zm0-5.334a.58.58 0 01.582.575v3.652a.58.58 0 01-.582.574.58.58 0 01-.581-.574v-3.649a.58.58 0 01.581-.578zm.212-2.492a.389.389 0 00-.536.118l-6.232 9.66a.382.382 0 00-.06.207c0 .212.176.385.39.385h12.461a.37.37 0 00.208-.062.38.38 0 00.12-.53l-6.236-9.66a.36.36 0 00-.115-.118zm7.328 9.158a1.53 1.53 0 01-.472 2.123 1.575 1.575 0 01-.836.242h-12.46c-.86 0-1.554-.69-1.554-1.538 0-.294.086-.582.245-.827l6.229-9.66a1.566 1.566 0 012.62 0l6.228 9.66z"/></g><path fill="#B1BDC7" d="M142.039 111.89h148.46v-3.823H142.04z"/><path stroke="#7B8E9F" stroke-linecap="round" stroke-width=".96" d="M139.327 111.687h154.799"/><path stroke="#7B8E9F" stroke-linecap="round" stroke-width=".99" d="M152.432 220.079h18.455"/><path stroke="#7B8E9F" stroke-linecap="round" stroke-width=".5" d="M177.703 220.079H301.61"/><path stroke="#7B8E9F" stroke-linecap="round" stroke-width="1.11" d="M310.973 62.868h7.062a7.976 7.976 0 007.976-7.975V42.315a7.976 7.976 0 017.976-7.976m-23.014 30.677h7.062a7.976 7.976 0 017.976 7.976v12.577a7.976 7.976 0 007.976 7.976"/><path fill="#CFD7DF" d="M292.334 219.747h27.916v-9.307h-27.916zm0-14.921h23.608v-7.871h-23.608z"/><path fill="#92A2B1" d="M292.334 209.348h29.241v-3.46h-29.24z"/><path stroke="#FFF" stroke-width=".5" d="M296.512 198.323a2.626 2.626 0 110 5.251 2.626 2.626 0 010-5.251zm17.498 14.147a2.626 2.626 0 110 5.253 2.626 2.626 0 010-5.252z"/><path stroke="#92A2B1" stroke-width=".5" d="M315.943 196.955h-5.387m-12.829 13.73h-5.393"/><path fill="#CFD7DF" d="M292.347 194.765h17.473v-21.357h-17.473z"/><path stroke="#92A2B1" stroke-width=".5" d="M309.458 178.99a5.098 5.098 0 01.009 10.197h-.009"/><path stroke="#92A2B1" stroke-width=".5" d="M309.458 180.61a3.478 3.478 0 11.006 6.958h-.006"/><path fill="#FFF" d="M301.083 179.641a4.448 4.448 0 110 8.896 4.448 4.448 0 010-8.896"/><path stroke="#FFF" stroke-width=".5" d="M293.874 185.568v-10.712h9.485"/><path fill="#EBEFF3" d="M229.104 40.18h21.683V11.627h-21.683z"/><path stroke="#92A2B1" stroke-width=".49" d="M224.276 31.284V7.18h30.983v37.756h-30.983V37.42"/><path stroke="#92A2B1" stroke-width=".48" d="M246.21 11.78h4.423v28.554h-19.148m-2.535-2.454v-26.1h8.21"/><path stroke="#92A2B1" stroke-width=".49" d="M224.276 7.05l4.675 4.681m26.228-4.528l-4.675 4.681m-.154 28.296l4.675 4.681m-30.902.154l4.674-4.681"/><path fill="#FFF" d="M219.122 111.76l-25.976 108.435h-2.933l9.105-44.947 4.472-22.062 3.246-16.032 5.147-25.394"/><path fill="#CFD7DF" d="M209.024 128.706l6.939-2.527 3.331-14.499h-6.595zm46.045-12.62l-6.307 2.521-1.577-6.865 6.595-.067z"/><path stroke="#273139" stroke-linecap="round" stroke-linejoin="round" stroke-width="1.21" d="M161.426 62.893c7.774 6.092 14.111 8.59 25.4 10.65m-14.583 14.228l15.086 2.718c.939-5.245 1.644-11.344 2.577-16.565m-.846 4.822c2.736-3.129 7.975-8.448 10.724-11.577m-11.62 21.774c3.877-5.16 9.05-12.786 12.933-17.945"/><path fill="#273139" d="M162.475 65.611l3.94 22.743 3.527-.355-5.81-23.345z"/><path fill="#F2797B" d="M151.849 128l4.516 20.584 2.276 10.301 1.135 5.142.257 1.227c.08.368.148.736.21 1.11.116.749.202 1.497.25 2.258l1.737 39.88a2.251 2.251 0 002.245 2.153 2.252 2.252 0 002.246-2.154l1.724-40.026c0-1 0-2-.074-3-.036-.497-.08-1-.14-1.497l-.179-1.393-.687-5.222-1.38-10.43-2.749-20.86-11.387 1.928z"/><path fill="#F2797B" d="M140.91 126.657l2.865 21.78 1.43 10.897.68 5.282c.166 1.56.182 3.135.05 4.7l.073-.412-7.859 35.315a2.847 2.847 0 002.135 3.399 2.847 2.847 0 003.38-1.951l10.553-34.849a1.23 1.23 0 00.037-.147l.037-.263c.337-2.077.479-4.18.423-6.283 0-.503-.049-1.099-.073-1.534l-.086-1.368-.16-2.743-.656-10.963-1.307-21.934-11.522 1.074z"/><path fill="#E16022" d="M139.72 129.184h24.363c3.3 0 3.307-5.135 0-5.135H139.72c-3.301 0-3.307 5.135 0 5.135"/><path fill="#F48927" d="M170.175 118.932a7.16 7.16 0 01-7.142 7.136h-26.252a6.957 6.957 0 01-6.75-8.743l11.529-48.91a7.16 7.16 0 016.552-7.08 11.467 11.467 0 0013.467 1.582 7.116 7.116 0 012.639 5.522l5.957 50.493z"/><path fill="#273139" d="M140.443 30.444a7.743 7.743 0 110 15.485 7.743 7.743 0 010-15.485"/><path fill="#FF5959" d="M153.119 38.303a11.326 11.326 0 00-4.81 2.35 11.48 11.48 0 00-4.092 10.129 7.742 7.742 0 018.902-12.48"/><path stroke="#273139" stroke-linecap="round" stroke-linejoin="round" stroke-width="1.21" d="M152.199 29.566a8.14 8.14 0 00-4.565 6.19c.068-2.81-1.405-7.68-3.736-9.257"/><path fill="#FFF" d="M167.077 49.5c-.003 6.336-5.143 11.47-11.48 11.467-6.336-.004-11.47-5.143-11.466-11.48.003-6.336 5.142-11.47 11.479-11.466 6.333 0 11.467 5.134 11.467 11.466v.013z"/><path stroke="#273139" stroke-linecap="round" stroke-linejoin="round" stroke-width="1.21" d="M167.077 49.5c-.003 6.336-5.143 11.47-11.48 11.467-6.336-.004-11.47-5.143-11.466-11.48.003-6.336 5.142-11.47 11.479-11.466 6.333 0 11.467 5.134 11.467 11.466v.013z"/><path fill="#273139" d="M160.046 44.518c4.11-.565 8.454-3.375 8.448-7.663a6.08 6.08 0 00-3.933-5.583 5.932 5.932 0 00-6.785 1.957 2.245 2.245 0 01-3.099.374c-2.932-2.153-6.975-.613-7.264 3.884-.41 6.258 7.786 7.693 12.633 7.03"/><path fill="#273139" d="M150.873 46.855a8.766 8.766 0 01-5.362 8.093 11.498 11.498 0 012.798-14.295 8.762 8.762 0 012.564 6.202"/><path stroke="#FFF" stroke-linecap="round" stroke-linejoin="round" stroke-width=".84" d="M155.751 42.003a10.988 10.988 0 0010.78-2.976M148.5 44.463c1.337 2.865-.436 6.748-3.48 7.57"/><path fill="#FFF" d="M166.874 45.444a3.356 3.356 0 110 6.712 3.356 3.356 0 010-6.712"/><path stroke="#273139" stroke-linecap="round" stroke-linejoin="round" stroke-width="1.21" d="M166.874 45.444a3.356 3.356 0 110 6.712 3.356 3.356 0 010-6.712z"/><path fill="#FFF" d="M158.07 45.444a3.356 3.356 0 110 6.712 3.356 3.356 0 010-6.712"/><path stroke="#273139" stroke-linecap="round" stroke-linejoin="round" stroke-width="1.21" d="M158.07 45.444a3.356 3.356 0 110 6.712 3.356 3.356 0 010-6.712zm3.356 3.356h2.092m-19.995 11.308a19.676 19.676 0 0020.609 4.908m-22.136-.773a68.248 68.248 0 01-20.216 28.48 1.602 1.602 0 00.166 2.57c4.822 3.123 10.43 5.737 16.031 6.406 6.4-7.86 10.13-16.566 12.663-26.382m10.259-.221l4.521.32"/><path stroke="#273139" stroke-linecap="round" stroke-linejoin="round" stroke-width="1.21" d="M159.64 46.12l-.202-.203-3.736 3.76m12.945-2.858l-3.932 3.527m-6.24-.349l-1.546 1.546m12.798-3.81l-1.546 1.546m-24.94-2.393a6.94 6.94 0 012.411-6.074m-7.196 84.373h25.529"/><path stroke="#EBEFF3" stroke-linecap="round" stroke-linejoin="round" stroke-width=".84" d="M147.162 128.982a3.816 3.816 0 01-4.16 4.908m17.872-5.178a4.835 4.835 0 003.025 4.675m-3.461 33.622l2.786-.405m-17.124-.227h2.786"/><path stroke="#273139" stroke-linecap="round" stroke-linejoin="round" stroke-width="1.21" d="M137.124 117.258a6.239 6.239 0 007.068-8.234"/><path fill="#273139" d="M136.26 208.029a28.396 28.396 0 007.901 3.067c1.62 1.295 2.547 4.529 7.54 4.964 4.995.436 4.909 5.331.393 4.908-3.68-.32-5.687-.177-8.209-1.78a7.55 7.55 0 01-1.84-1.785 8.249 8.249 0 00-3.761-2.699 48.862 48.862 0 00-4.908-1.663c1.147-2.006 1.73-3.05 2.883-5.012"/><path fill="#273139" d="M133.234 213.686c-.135.718-.202 1.073-.33 1.791 2.656.491 3.895 1.227 6.527 1.902l.27-1.455a26.67 26.67 0 00-6.467-2.238"/><path fill="#FFF" d="M145.321 214.747a1.09 1.09 0 01.233-.687.576.576 0 01.454-.209.912.912 0 01.503.172.24.24 0 00.334-.056l.004-.005a.246.246 0 00-.06-.342l-.002-.002a1.43 1.43 0 00-.779-.258c-.318 0-.62.14-.828.38a1.614 1.614 0 00-.35.988.245.245 0 00.233.259.252.252 0 00.258-.24m1.344 1.564c.003-.62.508-1.12 1.128-1.117l.037.001c.119-.002.237.015.35.05a.246.246 0 00.135-.474 1.66 1.66 0 00-.485-.067 1.62 1.62 0 00-1.656 1.583v.018a.24.24 0 00.233.246h.006a.245.245 0 00.252-.24zm1.785.799c.016-.34.177-.654.442-.866.28-.246.64-.384 1.012-.393.091.001.182.012.27.031a.24.24 0 00.287-.18l.001-.01a.239.239 0 00-.179-.287l-.005-.001a1.573 1.573 0 00-.374-.044 2.07 2.07 0 00-1.331.51 1.658 1.658 0 00-.614 1.226.245.245 0 00.491 0v.013z"/><path fill="#273139" d="M161.003 212.133a9.148 9.148 0 008.59.761c2.19 0 4.153 2.086 8.656 2.086 4.503 0 5.264 4.878 1.16 4.878l-8.369.08a5.44 5.44 0 01-2.515-.614l-2.718-1.393-6.749-.41 1.945-5.388z"/><path fill="#273139" d="M159.285 218.293l.073 1.878h6.768v-1.412z"/><path stroke="#FFF" stroke-linecap="round" stroke-linejoin="round" stroke-width=".8" d="M171.47 215.385a1.514 1.514 0 011.6-1.718m.277 2.387a1.521 1.521 0 011.601-1.718m.332 2.092a1.522 1.522 0 011.6-1.724"/><path fill="#273139" d="M144.241 101.244c2.123-5.662 5.657-16.27 6.363-25.473 0 0-4.952 17.688-12.025 25.473"/><path stroke="#273139" stroke-linecap="round" stroke-linejoin="round" stroke-width="1.03" d="M201.594 70.237c2.503-1.73 7.142-5.479 9.062-7.841a9.923 9.923 0 001.227-1.84V60.5a1.148 1.148 0 00-1.73-1.405l-5.86 4.454"/><path stroke="#273139" stroke-linecap="round" stroke-linejoin="round" stroke-width="1.03" d="M202.434 66.556a6.059 6.059 0 001.767-4.436 1.135 1.135 0 00-2-.706c-.95 1.13-1.663 4.393-2.417 5.755"/><path stroke="#273139" stroke-linecap="round" stroke-linejoin="round" stroke-width="1.21" d="M138.388 100.938l19.645 1.368"/><path stroke="#273139" stroke-linecap="round" stroke-linejoin="round" stroke-width="1.1" d="M159.837 102.367c3.007-.534 8.945-1.073 11.964-.613a9.15 9.15 0 012.147.613h.062c1.129.479.926 2.368-.27 2.516l-7.307.914m-3.356-.902a5.9 5.9 0 014.337 2.331c.7.878.055 2.277-.975 2.13-1.46-.203-4.725-1.553-6.215-2.105"/><path stroke="#273139" stroke-linecap="round" stroke-linejoin="round" stroke-width="1.21" d="M123.37 97.355s-3.54 8.491 1.41 9.902"/><path stroke="#273139" stroke-linecap="round" stroke-linejoin="round" stroke-width="1.23" d="M126.903 107.969l31.695-.872"/><path fill="#FFF" d="M237.4 75.065h19.252a2.657 2.657 0 012.65 2.65v30.248h-54.126V77.716a2.65 2.65 0 012.651-2.65h20.136"/><path stroke="#647A8E" stroke-linecap="round" stroke-width="1.11" d="M237.4 75.065h19.252a2.657 2.657 0 012.65 2.65v30.248h-54.126V77.716a2.65 2.65 0 012.651-2.65h20.136"/><path fill="#CFD7DF" d="M204.735 107.963h-19.81a2.123 2.123 0 110-4.246h19.81"/><path stroke="#475867" stroke-width="1.03" d="M204.735 107.963h-19.81a2.123 2.123 0 110-4.246h19.81"/><path stroke="#7B8E9F" stroke-linecap="round" stroke-width="1.11" d="M232.24 88.152a3.54 3.54 0 110 7.08 3.54 3.54 0 010-7.08z"/><path stroke="#647A8E" stroke-linecap="round" stroke-width="1.11" d="M281.444 83.422c-10.88-3.717-16.686-15.55-12.97-26.43a20.82 20.82 0 018.492-10.811m22.35-.043a21.27 21.27 0 013.362 2.644c8.265 7.982 8.493 21.154.51 29.418a20.804 20.804 0 01-14.983 6.35"/><path fill="#4BC1A7" d="M366.289 30.658l.515-.27v-2.331a2.86 2.86 0 00-2.834-2.884h-26.793a2.86 2.86 0 00-2.89 2.828v2.381l.51.27a4.645 4.645 0 010 8.13l-.51.3v2.325a2.853 2.853 0 002.853 2.853h26.793a2.86 2.86 0 002.871-2.847v-2.331l-.515-.3a4.645 4.645 0 010-8.13v.006z"/><path fill="#FFF" d="M345.343 30.382h10.412a3.48 3.48 0 013.479 3.479v1.724a3.479 3.479 0 01-3.48 3.479h-10.411a3.479 3.479 0 01-3.479-3.48v-1.723a3.48 3.48 0 013.479-3.479"/><path stroke="#4BC1A7" stroke-linecap="round" stroke-linejoin="round" stroke-width="1.2" d="M348.171 34.26l1.896 1.89 3.313-3.301"/><path stroke="#7B8E9F" stroke-linecap="round" stroke-width="1.11" d="M232.325 88.158v-8.3c0-8.567 6.944-15.51 15.51-15.51h14.915"/><path fill="#92A2B1" d="M36.064 46.23s1.84-3.46 6.528-2.283c4.687 1.178 14.694 4.454 21.817 19.836 7.123 15.38.853 25.995-6.19 28.105-5.608 1.681-18.977.325-24.21-16.896-5.258-17.339 2.055-28.762 2.055-28.762"/><path stroke="#7B8E9F" stroke-linecap="round" stroke-linejoin="round" d="M40.555 48.438l16.424 38.29M45.095 58.911l2.534-8.11m.62 16.871l-12.94-4.22M52.96 76.771l4.553-14.498M54.71 81.925l-14.486-4.387"/><path stroke="#647A8E" stroke-width=".5" d="M58.219 91.716L69.9 142.087m3.945-36.578l-1.19 36.578"/><path stroke="#7690A3" stroke-width=".5" d="M77.925 163.904a19.02 19.02 0 012.252-20.713.612.612 0 00-.485-.994l-8.933.062h-2.614l-5.521.036a.613.613 0 00-.473 1 19.019 19.019 0 012.516 20.682c-5.884 12.645-3.915 17.603-1.84 27.922a.614.614 0 00.613.497l6.51-.043 9.49-.06a.614.614 0 00.614-.498c2-10.338 3.914-15.32-2.129-27.891zm27.517-.184a19.02 19.02 0 012.251-20.713.613.613 0 00-.484-.994l-8.933.056h-2.614l-5.49.037a.612.612 0 00-.473.993 19.02 19.02 0 012.515 20.688c-5.884 12.639-3.908 17.602-1.84 27.922.06.29.317.497.613.49l6.51-.036 9.49-.061a.613.613 0 00.614-.497c1.994-10.332 3.902-15.314-2.16-27.885zm-39.99-19.449h7.123m-8.27 45.726h13.363"/><path stroke="#7B8E9F" stroke-linecap="round" stroke-width=".5" d="M47.954 192.12h92.416"/><path stroke="#273139" stroke-linecap="round" stroke-linejoin="round" stroke-width="1.21" d="M148.223 50.187a8.142 8.142 0 004.976 6.362"/><path fill="#475867" d="M153.99 55.772l1.31.557c.54.229.79.852.561 1.391l-.002.007a1.06 1.06 0 01-1.392.56l-1.31-.556a1.06 1.06 0 01-.561-1.392l.001-.006c.23-.54.853-.79 1.393-.561"/><path fill="#576C7D" d="M55.746 92.318s-1.534-16.565 7.976-30.063a58.783 58.783 0 012.914 7.902s-2.914 18.94-5.368 20.247c0 0-1.84 1.3-5.522 1.914"/><path fill="#647A8E" d="M81.705 55.709s3.595-1.59 6.558 2.19c2.963 3.78 8.902 12.516 5.135 29.038-3.767 16.522-15.221 21.087-22.087 18.449-5.466-2.104-15.215-11.344-8.822-28.173 6.436-16.958 19.216-21.504 19.216-21.504"/><path stroke="#B1BDC7" stroke-linecap="round" stroke-linejoin="round" d="M84.048 60.917l-10.197 40.401m7.596-29.394l7.233-4.46m-9.902 13.823l-7.718-11.21m5.896 19.572l12.424-8.75M75.232 96.19l-8.854-12.284"/><path fill="#4BC1A7" d="M366.289 89.244l.515-.27V86.65a2.86 2.86 0 00-2.834-2.884h-26.793a2.86 2.86 0 00-2.89 2.829v2.38l.51.27a4.644 4.644 0 010 8.13l-.51.3v2.313a2.853 2.853 0 002.853 2.853h26.793a2.86 2.86 0 002.871-2.847v-2.331l-.515-.301a4.645 4.645 0 010-8.13v.013z"/><path fill="#FFF" d="M345.343 88.974h10.412a3.48 3.48 0 013.479 3.479v1.724a3.479 3.479 0 01-3.48 3.478h-10.411a3.479 3.479 0 01-3.479-3.478v-1.724a3.48 3.48 0 013.479-3.48"/><path stroke="#4BC1A7" stroke-linecap="round" stroke-linejoin="round" stroke-width="1.2" d="M348.171 92.852l1.896 1.89 3.313-3.302"/><path stroke="#7B8E9F" stroke-linecap="round" stroke-width=".5" d="M207.348 136.75l5.142-25.395m6.939 0l-25.97 108.441h-2.933l9.104-44.953"/><path fill="#FFF" d="M246.97 111.963l25.97 108.435h2.933l-9.104-44.947-4.467-22.063-3.252-16.031-5.14-25.394"/><path stroke="#7B8E9F" stroke-linecap="round" stroke-width=".5" d="M246.657 111.558l25.977 108.44h2.933l-9.11-44.952"/></g></svg>