<svg xmlns="http://www.w3.org/2000/svg" width="518" height="291" fill="none" viewBox="0 0 518 291"><path fill="#fff" d="M0 0h518v291H0z" opacity=".01"/><path fill="#EBEFF3" d="M24.171 189.037c5.519-15.376 22.223-25.9 38.462-24.233 11.185 1.144 21.969 7.374 33.042 5.445 11.736-2.041 20.205-13.01 23.373-24.501 3.169-11.492 2.202-23.655 2.012-35.57-.191-11.916.592-24.424 6.732-34.61 7.594-12.642 23.353-19.77 37.834-17.113 36.486 6.688 16.168 55.283 42.026 71.916 33.169 21.359 54.559-27.546 60.17-51.017 3.38-14.168 6.471-28.803 14.41-41.015 10.833-16.655 41.454-30.661 54.793-8.476 10.24 17.044-3.734 36.184-3.345 53.885.451 20.702 18.602 29.665 37.713 25.074 12.294-2.939 23.219-9.889 35.124-14.169 12.618-4.52 29.386-4.584 36.5 6.781 5.603 8.949 2.357 20.935-3.437 29.764-5.794 8.828-13.881 16.075-18.906 25.363-5.025 9.288-6.105 22.136 1.567 29.39 13.768 13.024 39.04-3.694 54.622 7.063 11.835 8.193 9.648 26.946 1.504 38.847-13.762 20.031-39.076 29.531-63.346 30.28-24.27.748-48.046-5.976-71.497-12.403-23.451-6.428-47.445-12.664-71.666-10.892-35.243 2.578-69.161 21.995-104.066 16.592-22.752-3.532-42.667-17.241-64.926-23.019a95.885 95.885 0 00-32.731-2.606c-8.773.805-19.16 5.516-28.025 3.531-17.41-3.856-23.168-29.735-17.939-44.307z"/><path fill="#EBEFF3" d="M90.29 96.821h73.459v2.762H90.29z"/><path stroke="#92A2B1" stroke-width=".5" d="M90.29 56.745h73.459v82.914H90.29zm67.552 40.075h-37.474M90.29 99.583h49.873"/><path fill="#EBEFF3" d="M120.107 139.659h-2.759V56.738h2.759z"/><path stroke="#92A2B1" stroke-width=".5" d="M117.517 64.14v46.01m2.759-16.5v46.008m.064-82.666v20.32"/><path fill="#CFD7DF" stroke="#92A2B1" stroke-width=".5" d="M171.039 144.391H82.993v-12.36h88.046zm0-86.452H82.993v-12.36h88.046z"/><path stroke="#92A2B1" stroke-width=".5" d="M491.931 263.871h-78.935m65.477 5.607h-17.354m-41.236 0h-17.346"/><path fill="#fff" d="M38.666 182.645h344.788v78.966H38.666z"/><path stroke="#EBEFF3" stroke-width=".5" d="M299.41 204.625v14.26h69.683m11.249-26.691v-5.516H299.41v11.837m75.611 20.37h5.321v-23.153m0 55.065v-26.268h-40.918m-40.014 8.454v23.754h80.932v-3.348m-43.508-28.86H299.41v6.223m-86.028-26.127v14.26h69.683m11.256-26.691v-5.516h-80.939v11.837M289 218.885h5.321v-23.153m0 55.905v-27.108h-23.493m-27.439 32.208h50.932v-3.348m-80.939-20.406v23.754h27.784m27.439-32.208h-55.223v6.223m-86.267-26.127v14.26h69.683m11.249-26.691v-5.516h-80.932v11.837m75.611 20.37h5.321v-23.153m0 55.065v-26.268h-40.918m-40.014 8.454v23.754h80.932v-3.348m-43.508-28.86h-37.424v6.223m-86.028-26.127v14.26h69.683m11.256-26.691v-5.516H41.087v11.837m75.618 20.37h5.321v-23.153m0 55.905v-27.108H98.533m-27.439 32.208h50.932v-3.348m-80.939-20.406v23.754h27.784m27.439-32.208H41.087v6.223"/><path stroke="#EBEFF3" stroke-width=".5" d="M370.928 244.312a4.49 4.49 0 004.488-4.492 4.49 4.49 0 00-4.488-4.492 4.49 4.49 0 00-4.489 4.492 4.49 4.49 0 004.489 4.492zm0-36.847a4.49 4.49 0 004.488-4.492 4.491 4.491 0 00-4.488-4.493 4.491 4.491 0 00-4.489 4.493 4.49 4.49 0 004.489 4.492zm-86.656 36.847a4.49 4.49 0 004.488-4.492 4.49 4.49 0 00-4.488-4.492 4.49 4.49 0 00-4.488 4.492 4.49 4.49 0 004.488 4.492zm0-36.847a4.49 4.49 0 004.488-4.492 4.49 4.49 0 00-4.488-4.493 4.49 4.49 0 00-4.488 4.493 4.49 4.49 0 004.488 4.492zm-86.663 36.847a4.49 4.49 0 004.489-4.492 4.49 4.49 0 10-8.977 0 4.49 4.49 0 004.488 4.492zm0-36.847a4.49 4.49 0 004.489-4.492 4.491 4.491 0 00-4.489-4.493 4.49 4.49 0 00-4.488 4.493 4.49 4.49 0 004.488 4.492zm-86.662 36.847a4.49 4.49 0 004.488-4.492 4.49 4.49 0 00-4.488-4.492 4.49 4.49 0 00-4.489 4.492 4.49 4.49 0 004.489 4.492zm0-36.847a4.49 4.49 0 004.488-4.492 4.491 4.491 0 00-4.488-4.493 4.491 4.491 0 00-4.489 4.493 4.49 4.49 0 004.489 4.492z" clip-rule="evenodd"/><path stroke="#92A2B1" stroke-width=".5" d="M386.835 263.793H34.588v-84.242h352.247z"/><rect width="234.229" height="153.608" x="110.453" y="64.712" fill="#fff" stroke="#273139" stroke-width=".5" rx="3.02"/><path fill="#273139" stroke="#273139" stroke-width=".5" d="M114.715 64.712h225.697a4.236 4.236 0 014.234 4.238v15.46H110.453V68.978a4.238 4.238 0 014.262-4.266z"/><path fill="#fff" d="M118.096 76.804a1.962 1.962 0 10-.003-3.93 1.962 1.962 0 00.003 3.93zm6.457 0a1.963 1.963 0 10-.002-3.926 1.963 1.963 0 00.002 3.926zm6.457 0a1.962 1.962 0 10-.001-3.925 1.962 1.962 0 00.001 3.925z"/><path fill="#CFD7DF" d="M453.525 267.275h7.961a8.949 8.949 0 007.127-3.542 8.969 8.969 0 001.497-7.822l-5.597-20.18h-14.008l-5.604 20.18a8.969 8.969 0 001.497 7.822 8.949 8.949 0 007.127 3.542z"/><rect width="22.583" height="3.765" x="468.797" y="235.279" fill="#B1BDC7" rx="1.333" transform="rotate(180 468.797 235.279)"/><path fill="#B1BDC7" d="M462.65 215.304c.043 7.946 10.657 3.044 14.397 1.879a2.207 2.207 0 001.002-.501c.635-.65.268-1.787-.388-2.423-.656-.636-1.539-1.017-2.117-1.702-.579-.685-.762-1.928 0-2.402 2.653 1.413 4.545 3.461 6.895 1.413 1.221-1.052 2.166-2.776 3.168-4.054l5.576-7.134a21.416 21.416 0 004.509-12.007 1.412 1.412 0 00-1.51-1.512 21.382 21.382 0 00-11.997 4.513l-4.157 3.257c-3.063 2.401-2.738 2.966-1.898 6.9-.77.473-1.786.071-2.499-.487-.713-.558-1.341-1.279-2.209-1.526-1.588-.452-4.996 4.711-5.878 6.053a17.673 17.673 0 00-2.894 9.733z"/><path stroke="#92A2B1" stroke-width=".5" d="M485.212 197.343l-27.579 27.602"/><path fill="#CFD7DF" d="M453.56 208.906a3.43 3.43 0 01-3.401 3.404 12.933 12.933 0 01-10.247-4.944 31.875 31.875 0 01-2.054-2.621c-.748-1.214-.628-2.705-1.277-3.658a1.544 1.544 0 00-1.701-.586c-.303.098-.572.289-.875.367a1.27 1.27 0 01-1.475-.855c-.261-.918.049-1.511-.296-2.479-.346-.968-1.2-1.843-1.624-2.783a15.371 15.371 0 01-1.411-5.65 1.054 1.054 0 011.115-1.095 15.767 15.767 0 018.843 3.32 25.612 25.612 0 003.295 2.585c.826.438 3.6.805 3.804 1.638.205.834-.247 1.604-.6 2.345-.352.742-.635 1.667-.183 2.359 3.112-1.412 4.107-1.356 6.027 1.667a13.429 13.429 0 012.06 6.986z"/><path stroke="#92A2B1" stroke-width=".5" d="M436.941 195.677l20.317 20.334m.248 15.772v-30.464"/><path fill="#B1BDC7" d="M467.139 267.593H447.16a1.059 1.059 0 100 2.119h19.979a1.06 1.06 0 000-2.119z"/><path stroke="#92A2B1" stroke-width=".5" d="M464.111 263.199h-9.626a6.764 6.764 0 01-5.258-2.51 6.778 6.778 0 01-1.362-5.669l1.362-6.392m13.247-9.302l3.804 14.882m-12.717-45.303s.239-4.203-2.04-7.063m30.657-10.474l-4.157 3.256m-12.484 10.912s-3.409 5.559-2.887 9.74"/><path fill="#EBEFF3" d="M42.167 159.894a19.394 19.394 0 0012.174 18.018h14.396a19.4 19.4 0 0012.172-16.949 19.407 19.407 0 00-10.231-18.19h-18.25a19.412 19.412 0 00-10.261 17.121z"/><path stroke="#92A2B1" stroke-width=".5" d="M80.94 159.894a19.317 19.317 0 00-1.984-8.553m-36.789 8.554a19.322 19.322 0 001.976 8.539"/><path fill="#CFD7DF" d="M44.08 159.711a17.518 17.518 0 0010.698 16.351l.297.12h12.957l.077-.036a17.516 17.516 0 0010.022-10.728c.477-1.447.761-2.95.846-4.471-6.295-5.276-10.48-5.806-13.288-5.029a7.725 7.725 0 00-1.553.607 30.57 30.57 0 01-19.153 3.341l-.918-.155h.014z"/><path stroke="#fff" stroke-width=".5" d="M68.032 176.182a17.52 17.52 0 0010.12-10.772 17.34 17.34 0 00.847-4.471"/><path stroke="#92A2B1" stroke-width=".5" d="M77.862 177.913H45.244m28.856-35.21H49.006"/><path stroke="#fff" stroke-width=".5" d="M64.164 156.525s-11.418 5.651-20.078 3.179"/><path fill="#EBEFF3" d="M63.233 169.415H51.44l2.054 2.062a4.351 4.351 0 005.377.629l4.362-2.691zm0 .008l2.216-2.218v4.874l-2.216-2.656z"/><path stroke="#92A2B1" stroke-width=".5" d="M54.171 171.195a1.257 1.257 0 100-2.513 1.257 1.257 0 000 2.513z" clip-rule="evenodd"/><path fill="#EBEFF3" d="M62.012 162.395h9.83l-1.714 1.716a3.64 3.64 0 01-4.482.53l-3.634-2.246zm0 0l-1.842-1.843v4.061l1.842-2.218z"/><path stroke="#92A2B1" stroke-width=".5" d="M69.57 163.871a1.045 1.045 0 100-2.09 1.045 1.045 0 000 2.09z" clip-rule="evenodd"/><path fill="#273139" d="M436.087 258.856c.84-1.597.847-3.574-.812-4.74a5.45 5.45 0 00-3.098-.798 16.747 16.747 0 00-5.286 1.003 17.2 17.2 0 00-3.253 1.483l-11.066 6.64c-1.073.642-2.244 1.412-2.731 2.528-.085.18-.149.37-.191.565-.381 1.816 1.285 2.826 3.077 3.207 1.793.381 3.571.078 5.413 0 2.866-.106 3.959-1.872 5.794-3.708a9.679 9.679 0 013.79-2.183c2.216-.812 4.827-.791 6.803-2.196a5.232 5.232 0 001.56-1.801z"/><path fill="#273139" d="M435.318 257.316c.297.287.497.66.571 1.067.062.271.093.548.092.826.01.16.01.32 0 .48 0 .134 0 .184-.042.276-.12.706-.226 1.377-.311 2.119-.085.741-.141 1.462-.205 2.224-.063.763-.12 1.54-.225 2.345a1.08 1.08 0 01-1.2.933 1.093 1.093 0 01-.819-.579 15.268 15.268 0 01-.938-2.31 15.842 15.842 0 01-.607-2.465 15.086 15.086 0 01-.226-2.606v-.763c.038-.437.14-.865.303-1.272a1.998 1.998 0 013.141-.699l.466.424zm.818-195.451a13.328 13.328 0 019.125 5.538c3.988 5.417 3.91 12.29 2.117 18.498-.451 1.582-1.566 4.238-.077 5.65 3.267 2.995 13.408-5.233 15.328-3.022 1.503 1.716-2.23 9.415-8.829 12.713-7.572 3.765-18.419 1.462-21.284-4.238-2.957-5.855 4.072-12.339.706-16.951-3.197-4.443-11.468-1.045-12.943-4.238-1.92-4.238 4.643-10.079 7.572-11.915a12.61 12.61 0 018.285-2.035z"/><path fill="#FF5959" d="M419.248 68.654a8.661 8.661 0 013.43 2.231 8.77 8.77 0 012.329 7.12c-.034.327-.093.65-.176.968a5.86 5.86 0 002.357-4.033 5.923 5.923 0 00-2.198-5.385 5.911 5.911 0 00-5.742-.901z"/><path fill="#92A2B1" d="M396.955 124.572c.104 1.04.266 2.073.486 3.094 2.774-2.006 5.823-4.86 6.55-7.699-2.089-.6-5.562 3.412-7.036 4.605z"/><path stroke="#273139" stroke-linecap="round" stroke-linejoin="round" stroke-width=".5" d="M402.008 100.473l-24.404 26.839m26.457-8.298l-25.243 19.889m-1.532-.077c-8.807-8.342-11.87-10.772-22.294-21.726m4.926-2.579s8.095 8.476 16.888 13.731a3.356 3.356 0 01.967 4.429m3.754-11.521c3.938 1.01 5.978 5.135 5.103 14.246m-31.334-18.794c-2.527.12-7.467 0-9.923-.586a8.318 8.318 0 01-1.722-.615h-.042a.953.953 0 01.431-1.801h6.104"/><path stroke="#273139" stroke-linecap="round" stroke-linejoin="round" stroke-width=".5" d="M352.861 114.606a5.044 5.044 0 01-3.402-2.027.941.941 0 01.967-1.47c1.193.262 8.278 2.896 9.471 3.412"/><path fill="#231F20" d="M396.955 124.572c.104 1.04.266 2.073.486 3.094 2.774-2.006 5.823-4.86 6.55-7.699-2.089-.6-5.562 3.412-7.036 4.605z"/><path fill="#273139" d="M432.057 182.518c-.833 17.841-2.35 34.905 1.32 53.376.275 1.377.515 2.754.706 4.146l1.185 10.142v.071a5.707 5.707 0 010 2.761c-.522 2.013-2.639 2.826-4.502 3.108-1.863.283-4.63.509-5.83-1.172a5.829 5.829 0 01-.917-2.013l-11.666-38.508a7.204 7.204 0 01-.155-.707s-11.552-38.317-7.353-52.217c.049-.184.112-.36.169-.537a13.22 13.22 0 0123.423-3.115c.212.325.416.65.614.996.023.051.049.101.077.148a19.542 19.542 0 011.588 5.651c.607 4.16 1.75 9.168 1.341 17.87z"/><path fill="#34479D" d="M428.373 157.854c.212.324.417.649.614.995a6.28 6.28 0 00-.614-.995z"/><path fill="#273139" d="M403.673 257.373c.84-1.589.847-3.567-.819-4.74a5.412 5.412 0 00-3.091-.791 16.53 16.53 0 00-5.264 1.017 18.185 18.185 0 00-3.261 1.484l-11.058 6.646c-1.08.643-2.245 1.413-2.732 2.522a2.596 2.596 0 00-.19.572c-.381 1.815 1.284 2.825 3.077 3.206 1.792.382 3.571.071 5.413 0 2.865-.113 3.959-1.878 5.794-3.708a9.643 9.643 0 013.789-2.189c2.216-.813 4.821-.791 6.797-2.197a5.186 5.186 0 001.545-1.822z"/><path fill="#273139" d="M402.897 255.833c.297.29.497.665.571 1.074.059.271.09.548.092.826a4.08 4.08 0 01-.035.481 2.01 2.01 0 01-.05.275c-.12.706-.218 1.377-.303 2.119-.085.742-.141 1.462-.205 2.225-.063.763-.12 1.547-.226 2.345a1.072 1.072 0 01-2.018.346 14.245 14.245 0 01-.939-2.31 15.589 15.589 0 01-.606-2.458 15.81 15.81 0 01-.233-2.606v-.805c.038-.434.14-.86.303-1.265a2.005 2.005 0 012.632-1.031c.184.084.356.193.509.325l.508.459z"/><path stroke="#fff" stroke-linecap="round" stroke-linejoin="round" stroke-width=".5" d="M387.717 264.768a10.143 10.143 0 01-7.248.303"/><path fill="#273139" d="M386.58 210.368l.127 1.073 4.496 37.597c.01.401.067.799.169 1.187a5.845 5.845 0 00.523 2.154c.875 1.879 3.726 2.154 5.511 2.239 1.786.085 4.115-.339 4.997-2.225a5.752 5.752 0 00.543-2.712v-.071l-.409-14.366a89.326 89.326 0 019.605-42.972c3.811-7.508 5.688-12.629 6.902-17.029a13.237 13.237 0 00-3.529-16.81c-5.773-4.464-15.152-6.251-19.612-.474-.247.311-.939 2.247-1.164 2.6-7.128 10.891-7.693 41.58-8.088 48.389a49.6 49.6 0 00-.071 1.42z"/><path fill="#fff" stroke="#273139" stroke-linecap="round" stroke-linejoin="round" stroke-width=".5" d="M399.813 75.957c-1.496 6.11.084 14.931 6.189 16.429 6.104 1.497 13.119-5.65 14.615-11.76a11.389 11.389 0 00-8.348-13.766c-6.105-1.498-10.96 2.987-12.456 9.097z"/><path fill="#273139" d="M400.85 74.99a7.057 7.057 0 01-5.554-3.264 5.16 5.16 0 01.706-6.18c1.912-1.787 4.94-1.519 7.502-1.13l5.109.763c.612.051 1.208.22 1.757.494 1.412.812 1.623 2.868.911 4.33-1.638 3.397-6.902 5.269-10.431 4.986z"/><path stroke="#273139" stroke-linecap="round" stroke-linejoin="round" stroke-width=".5" d="M425.783 61.216a9.516 9.516 0 00-5.321 7.296c.064-3.292-1.687-9.006-4.425-10.842"/><path fill="#273139" d="M400.554 72.693a22.511 22.511 0 016.111-.444c3.444.282 6.966 1.871 8.688 4.866a10.778 10.778 0 011.023 7.155c-.268 1.568-1.531 3.722 1.023 3.694a8.26 8.26 0 005.794-2.388c1.765-1.829 2.16-4.45 2.118-6.9a13.42 13.42 0 00-9.617-12.924 13.404 13.404 0 00-15.084 5.635c-.028.43-.056.862-.056 1.306zm-2.964 32.914a17.383 17.383 0 00-2.209 4.711 22.356 22.356 0 00-.861 5.121 19.689 19.689 0 001.919 10.044l-.705.374a16.06 16.06 0 01-1.941-5.078 19.279 19.279 0 01-.332-5.439 21.492 21.492 0 011.136-5.304 14.475 14.475 0 012.753-4.64l.24.211z"/><path fill="#1AB394" d="M395.282 109.979a20.058 20.058 0 013.458-5.805c.981-1.201 2.294-2.338 3.056-3.702 2.011-3.616 3.74-.247 9.174-.31 4.834-.064 8.511-5.425 13.698.402a7.61 7.61 0 013.134 3.369c-5.272 1.78-6.147 7.028-6.055 9.543.105 3.157.705 5.975 7.614 10.884-.705 6.448-1.997 12.855-2.025 19.36 0 1.278 1.609 14.02.868 14.126-8.335 5.552-30.748.826-32.463.106-2.4-.996-.141-7.43.261-9.069a44.671 44.671 0 00.903-17.46c-.706-4.556-2.301-8.998-2.618-13.597a18.332 18.332 0 01.995-7.847z"/><path stroke="#273139" stroke-linecap="round" stroke-linejoin="round" stroke-width=".5" d="M412.375 128.951a9.451 9.451 0 00-12.139-1.073"/><path fill="#475867" d="M429.079 155.452c-1.221 1.97-4.234 2.45-6.351 2.782a53.975 53.975 0 01-10.84.382c-6.267-.269-12.753-.925-18.801-2.67-2.117-.615-3.013 2.684-.91 3.291 7.099 2.049 14.82 2.769 22.209 2.868 5.342.078 14.375.367 17.643-4.944 1.157-1.879-1.793-3.595-2.95-1.724v.015z"/><path stroke="#fff" stroke-linecap="round" stroke-linejoin="round" stroke-width=".5" d="M409.072 203.368c-.784-4.789-3.19-14.324-2.498-31.183"/><path stroke="#273139" stroke-linecap="round" stroke-linejoin="round" stroke-width=".5" d="M424.845 100.564l24.199 27.038m-26.069-9.125c1.291 2.528 4.17 4.188 6.407 5.982l18.349 14.712m1.56-.028c8.871-8.27 10.826-10.834 21.334-21.705m-3.776-2.5s-8.567 8.475-17.403 13.674a5.65 5.65 0 00-2.385 3.92m-1.877-11.117c-5.357 2.733-7.142 8.017-5.209 14.197m30.431-18.993c3.225.459 9.174-1.702 11.433-2.825a8.483 8.483 0 001.538-.982l.043-.035a.955.955 0 00-.826-1.66l-5.949 1.356"/><path stroke="#273139" stroke-linecap="round" stroke-linejoin="round" stroke-width=".5" d="M474.203 114.104a5.059 5.059 0 002.865-2.74.947.947 0 00-1.27-1.222c-1.108.53-6.959 3.631-7.996 4.4m-47.664-16.915c-1.722 1.787-12.929 4.563-18.229-.057m19.753-.862c.063-1.78-1.877-3.08-3.656-3.058-1.778.02-3.394.946-4.989 1.737-1.595.791-3.388 1.49-5.103 1.038-1.263-.331-2.321-1.25-3.592-1.553-1.27-.304-2.985.536-2.752 1.822"/><path stroke="#fff" stroke-linecap="round" stroke-linejoin="round" stroke-width=".5" d="M420.61 161.088c-.148 5.163 4.693 9.888 9.88 9.648m-30.113-9.797a10.03 10.03 0 01-9.88 7.417m1.884 43.191a3.528 3.528 0 01-6.005.233m32.936.523a6.08 6.08 0 01-8.398.925m9.224 53.051a10.181 10.181 0 01-7.248.311m22.95-13.901c-.304 1.06-1.814 2.303-2.823 2.755a9.556 9.556 0 01-8.384-.325m-21.214-3.905c-.303 1.052-1.814 2.302-2.823 2.754a9.556 9.556 0 01-8.384-.331M434.993 77.32c1.87.707 2.823 2.826 2.915 4.846.091 2.02-.607 3.94-1.101 5.876-.494 1.935-.826 4.033-.12 5.905.705 1.872 2.78 3.348 4.686 2.754"/><path stroke="#273139" stroke-linecap="round" stroke-linejoin="round" stroke-width=".5" d="M425.903 74.6a4.239 4.239 0 00-2.223-4.675"/><path stroke="#fff" stroke-linecap="round" stroke-linejoin="round" stroke-width=".5" d="M434.45 63.215a6.594 6.594 0 016.288 5.1m-35.068 2.478A5.007 5.007 0 01397.484 69"/><path fill="#F48927" d="M360.991 112.098a9.521 9.521 0 01-6.902 5.17c-.515.092-.296.883.219.791a10.297 10.297 0 007.396-5.544c.233-.473-.473-.89-.706-.417h-.007z"/><path fill="#273139" d="M423.158 118.413a14.354 14.354 0 002.823 3.666c.546.53 1.131 1.019 1.75 1.462a5.24 5.24 0 001.828.918l-.141 1.201a5.125 5.125 0 01-2.456-1.137 11.83 11.83 0 01-1.771-1.745 13.617 13.617 0 01-1.412-1.992 8.766 8.766 0 01-.988-2.246l.367-.127z"/><path stroke="#273139" stroke-linecap="round" stroke-linejoin="round" stroke-width=".5" d="M430.06 103.361a10.122 10.122 0 00-7.558 5.919 10.807 10.807 0 00.903 9.889m-11.56-37.541a2.28 2.28 0 10-4.559 0m-2.067-.028a2.28 2.28 0 10-4.559 0"/><path fill="#DFF4F0" fill-rule="evenodd" d="M251.096 130.971v9.627a7.766 7.766 0 017.064 7.727v30.859a7.765 7.765 0 01-7.763 7.769h-40.169a7.765 7.765 0 01-7.763-7.769v-30.859a7.766 7.766 0 016.993-7.727v-9.627c0-11.508 9.321-20.836 20.819-20.836s20.819 9.328 20.819 20.836zm-6.21 1.25c0-8.075-6.533-14.626-14.602-14.642-8.08 0-14.629 6.556-14.629 14.642v8.335h29.231v-8.335z" clip-rule="evenodd"/><path fill="#81D4C0" d="M230.284 106.921c-11.498 0-20.819 9.329-20.819 20.836v29.263h6.19v-28.013c0-8.086 6.549-14.642 14.629-14.642 8.08 0 14.63 6.556 14.63 14.642v28.013h6.182v-29.263a20.84 20.84 0 00-6.093-14.733 20.802 20.802 0 00-14.719-6.103z"/><rect width="55.632" height="46.341" x="202.465" y="137.35" fill="#1AB394" rx="5.48"/><path fill="#4BC1A7" d="M234.794 164.443a4.51 4.51 0 00-8.946-.817 4.514 4.514 0 003.229 5.161v8.109a1.207 1.207 0 002.414 0v-8.088a4.499 4.499 0 003.303-4.365z"/><path fill="#007657" d="M234.794 163.638a4.51 4.51 0 00-8.946-.807 4.513 4.513 0 003.229 5.158v8.109a1.207 1.207 0 002.414 0v-8.109a4.512 4.512 0 003.303-4.351z"/><path fill="#CFD7DF" d="M200.531 132.581a1.492 1.492 0 00-.812-1.914l-7.671-3.199a1.491 1.491 0 00-1.143 2.754l7.664 3.2a1.491 1.491 0 001.962-.841zm-3.846-10.305l5.039 6.604a1.49 1.49 0 002.089.283 1.493 1.493 0 00.282-2.091l-5.039-6.611a1.496 1.496 0 00-2.371 1.815zm3.74 15.052a1.49 1.49 0 00-1.665-1.286l-8.215 1.067a1.49 1.49 0 10.381 2.952l8.236-1.066a1.49 1.49 0 001.284-1.667h-.021z"/><path fill="#fff" d="M11.821 223.406h46.26v46.299h-46.26z"/><path stroke="#92A2B1" stroke-width=".5" d="M11.82 223.406v26.621"/><path fill="#CFD7DF" d="M58.081 223.406h28.116v46.299H58.081z"/><path stroke="#92A2B1" stroke-width=".5" d="M17.262 269.705h26.43m5.151 0h22.054m15.138-37.646v20.094m-27.955-2.719v20.094m-39.52-46.369h27.32m-28.696 34.263v-25.971m19.478 31.896H20.537"/><path stroke="#fff" stroke-width=".5" d="M74.334 263.347h-8.06"/><path stroke="#92A2B1" stroke-width=".5" d="M51.482 242.271v14.162M30.41 233.372h13.168m37.848 36.333h4.77v-5.368"/><path stroke="#fff" stroke-width=".5" d="M63.07 232.447v23.471m-4.99-32.512v15.235"/><path stroke="#92A2B1" stroke-width=".5" d="M86.197 223.406h-6.973"/><path fill="#fff" d="M73.332 238.38h31.878v31.904H73.332z"/><path stroke="#92A2B1" stroke-width=".5" d="M73.332 238.38v18.343"/><path fill="#CFD7DF" d="M105.209 238.38h19.372v31.904h-19.372z"/><path stroke="#92A2B1" stroke-width=".5" d="M77.079 270.284h18.215m3.549 0h15.195m10.43-25.943v13.844m-19.259-1.872v13.844m-27.234-31.946h18.829M77.03 261.816v-17.891m13.422 21.98H79.337"/><path stroke="#fff" stroke-width=".5" d="M116.409 265.905h-5.554"/><path stroke="#92A2B1" stroke-width=".5" d="M100.664 251.376v9.761M86.14 245.246h9.076m26.076 25.038h3.289v-3.701"/><path stroke="#fff" stroke-width=".5" d="M108.646 244.609v16.175m-3.437-22.404v10.496"/><path stroke="#92A2B1" stroke-width=".5" d="M124.581 238.38h-4.806"/></svg>