<svg xmlns="http://www.w3.org/2000/svg" xmlns:xlink="http://www.w3.org/1999/xlink" width="186" height="178" viewBox="0 0 186 178"><defs><path id="fs-208nm7q50a" d="M0 .085h23.449v23.45H0z"/><path id="fs-ieetuh50mc" d="M.148.365H46.43v1.369H.148z"/></defs><g fill="none" fill-rule="evenodd"><g transform="translate(1 1)"><path fill="#C9D7ED" d="M95.265 152.15l49.478-49.478a7.9 7.9 0 0111.17 11.17l-49.478 49.479a7.9 7.9 0 01-11.17-11.17" opacity=".3"/><g transform="translate(9.824 102.169)"><mask id="fs-exgrgf9fgb" fill="#fff"><use xlink:href="#fs-208nm7q50a"/></mask><path fill="#C9D7ED" d="M2.314 10.05l7.651-7.652a7.9 7.9 0 0111.17 11.17l-7.651 7.653a7.898 7.898 0 01-11.17 0 7.898 7.898 0 010-11.17" mask="url(#fs-exgrgf9fgb)" opacity=".3"/></g><path fill="#C9D7ED" d="M98.78 126.737l22.613-22.613a7.855 7.855 0 00-2.31 5.584 7.855 7.855 0 002.31 5.584 7.898 7.898 0 0011.17.002l-22.613 22.613a7.854 7.854 0 002.31-5.584 7.897 7.897 0 00-13.48-5.587M89.115 92.29l21.187-21.188a7.855 7.855 0 00-2.31 5.584 7.855 7.855 0 002.31 5.584 7.899 7.899 0 0011.17.003l-21.187 21.186a7.854 7.854 0 002.31-5.583 7.897 7.897 0 00-13.48-5.587" opacity=".3"/><path fill="#C9D7ED" d="M81.612 121.68l61.814-61.815a7.9 7.9 0 0111.17 11.17L92.781 132.85a7.898 7.898 0 01-11.17-11.17m-60.734 16.754l84.14-84.139a7.898 7.898 0 0111.17 0 7.898 7.898 0 010 11.17l-84.14 84.139a7.9 7.9 0 01-11.17-11.17M35.75 83.042l31.225-31.225a7.898 7.898 0 0111.17 11.17L46.92 94.213a7.9 7.9 0 01-11.17-11.17m51.647-51.648l.186-.186a7.9 7.9 0 0111.17 11.17l-.186.187a7.9 7.9 0 01-11.17-11.17m-23.95 107.918l.187-.186a7.9 7.9 0 0111.17 11.17l-.187.187a7.9 7.9 0 01-11.17-11.17" opacity=".3"/><path fill="#E5EEFD" d="M169.918 167.708h3.242"/><path fill="#717791" d="M169.918 167.296c.54-.208 1.081-.228 1.622-.221.54.005 1.08.043 1.62.158a.487.487 0 010 .95c-.54.114-1.08.153-1.62.159-.541.007-1.081-.014-1.622-.223a.44.44 0 010-.823"/><path fill="#E5EEFD" d="M21.892 167.708h145.644"/><path fill="#717791" d="M21.892 167.318c6.069-.178 12.137-.206 18.206-.202l18.205-.015 36.411-.029 36.411-.03 18.206-.014c6.068.005 12.136.019 18.205.17a.51.51 0 010 1.019c-6.069.153-12.137.166-18.205.17l-18.206-.014-36.41-.029-36.412-.03-18.205-.014c-6.069.004-12.137-.024-18.206-.201a.39.39 0 010-.781"/><path fill="#E5EEFD" d="M18.31 167.708h.473"/><path fill="#717791" d="M18.31 167.13c.078-.018.157 0 .236.002.04-.002.08.018.119.028.04.01.079.024.118.051a.6.6 0 010 .994.37.37 0 01-.118.05c-.04.01-.08.031-.119.03-.08.001-.158.019-.237.001a.592.592 0 010-1.156"/><path fill="#E5EEFD" d="M12.477 167.708h2.36"/><path fill="#717791" d="M12.478 167.287c.393-.102.786-.14 1.18-.157.393-.025.786-.009 1.18.111a.489.489 0 010 .934c-.394.12-.787.136-1.18.111a5.665 5.665 0 01-1.18-.157.434.434 0 010-.842"/><path fill="#E5EEFD" d="M77.941 175.456h45.457"/><g transform="translate(77.439 174.406)"><mask id="fs-rehx0vyndd" fill="#fff"><use xlink:href="#fs-ieetuh50mc"/></mask><path fill="#717791" d="M.502.659C2.397.479 4.292.457 6.185.453l5.682-.03L23.23.365l11.364.002h5.682c1.895.01 3.789.02 5.683.173a.511.511 0 010 1.018c-1.894.153-3.788.164-5.683.172l-5.682.002-11.364.002-11.364-.058-5.682-.03C4.291 1.64 2.397 1.618.502 1.438a.391.391 0 010-.78" mask="url(#fs-rehx0vyndd)"/></g><path fill="#E5EEFD" d="M59.238 175.456h11.648"/><path fill="#717791" d="M59.239 175.035c1.94-.102 3.883-.14 5.824-.157 1.941-.02 3.883-.012 5.824.111a.467.467 0 010 .934c-1.941.123-3.883.13-5.824.111a134.172 134.172 0 01-5.824-.158.42.42 0 010-.841"/><g stroke="#C9D7ED" stroke-linecap="round" stroke-linejoin="round"><path stroke-width="1.621" d="M166.02 132.862a1.508 1.508 0 11-3.016 0 1.508 1.508 0 013.016 0z"/><path stroke-width="1.029" d="M182.853 57.181l.736 2.691-2.692.736-.736-2.692z"/><path stroke-width="1.621" d="M3.846 55.725v7.463m3.731-3.731H.113m53.829-5.962a1.508 1.508 0 11-3.015 0 1.508 1.508 0 013.015 0z"/><path stroke-width="1.367" d="M166.497 86.167a1.507 1.507 0 11-3.015 0 1.507 1.507 0 013.015 0z"/><path stroke-width="1.029" d="M83.207 44.433l.735 2.691-2.691.736-.736-2.692z"/><path stroke-width="1.367" d="M31.097 99.825a1.756 1.756 0 113.513 0 1.756 1.756 0 01-3.513 0z"/></g><path stroke="#CFD7DF" stroke-dasharray="1.84910260333916,1.84910260333916" stroke-linecap="round" stroke-width="1.161" d="M99.596 125.232c-9.61-1.68-39.69-9.17-29.994-36.162 0 0 13.995-36.386 54.916-27.52 0 0 14.05 4.202 13.728 16.947 0 0-4.954 42.113-90.268 5.105 0 0-67.12-48.911 49.969-79.73"/><path fill="#DBE2E8" d="M63.675 106.764h-1.741v-1.76h-1.162v1.76H59.03v1.171h1.74v1.76h1.163v-1.76h1.74z"/><circle cx="99.977" cy="2.89" r="2.89" fill="#FFF" stroke="#CFD7DF" stroke-width="1.161"/></g><g transform="translate(44 51)"><rect width="92" height="16" fill="#CBDBFF" stroke="#717791" stroke-width="2" rx="4"/><rect width="2" height="2" x="66" y="7" fill="#717791" rx="1"/><rect width="2" height="2" x="72" y="7" fill="#717791" rx="1"/><rect width="2" height="2" x="78" y="7" fill="#717791" rx="1"/><rect width="20" height="2" x="7" y="7" fill="#717791" rx="1"/><rect width="11" height="2" x="36" y="7" fill="#717791" rx="1"/><rect width="92" height="16" y="30" fill="#CBDBFF" stroke="#717791" stroke-width="2" rx="4"/><rect width="2" height="2" x="66" y="37" fill="#717791" rx="1"/><rect width="2" height="2" x="72" y="37" fill="#717791" rx="1"/><rect width="2" height="2" x="78" y="37" fill="#717791" rx="1"/><rect width="20" height="2" x="7" y="37" fill="#717791" rx="1"/><rect width="11" height="2" x="36" y="37" fill="#717791" rx="1"/><rect width="92" height="16" y="60" fill="#CBDBFF" stroke="#717791" stroke-width="2" rx="4"/><rect width="2" height="2" x="66" y="67" fill="#717791" rx="1"/><rect width="2" height="2" x="72" y="67" fill="#717791" rx="1"/><rect width="2" height="2" x="78" y="67" fill="#717791" rx="1"/><rect width="20" height="2" x="7" y="67" fill="#717791" rx="1"/><rect width="11" height="2" x="36" y="67" fill="#717791" rx="1"/></g><g fill-rule="nonzero"><path fill="#717791" d="M133.32 118.352a27.752 27.752 0 012.248 5.6l-6.128 4.464a21.816 21.816 0 010 6.664l6.168 4.512a27.8 27.8 0 01-2.248 5.6l-7.368-1.328a20.912 20.912 0 01-4.528 4.704l1.28 7.664a25.824 25.824 0 01-5.432 2.336l-4.304-6.4a19.528 19.528 0 01-6.4 0l-4.304 6.4a26.256 26.256 0 01-5.44-2.336l1.296-7.664a20.6 20.6 0 01-4.536-4.704l-7.368 1.328a28.296 28.296 0 01-2.256-5.6l6.128-4.472a22.504 22.504 0 010-6.664L84 123.992a25.968 25.968 0 012.256-5.6l7.368 1.336a20.472 20.472 0 014.536-4.712l-1.336-7.664a25.808 25.808 0 015.44-2.328l4.304 6.328a19.528 19.528 0 016.4 0l4.304-6.352c1.896.57 3.72 1.359 5.432 2.352l-1.28 7.656a20.8 20.8 0 014.528 4.712l7.368-1.368zm-23.552 22.112a8.68 8.68 0 10-8.344-8.68 8.512 8.512 0 008.344 8.68" opacity=".4"/><path fill="#FFF" d="M136.264 119.784a27.296 27.296 0 012.248 5.6l-6.104 4.504a21.16 21.16 0 010 6.664l6.128 4.472a27.096 27.096 0 01-2.248 5.6l-7.368-1.32a20.736 20.736 0 01-4.528 4.704l1.28 7.656a25.264 25.264 0 01-5.432 2.344l-4.296-6.4a19.576 19.576 0 01-6.4 0l-4.304 6.4a25.792 25.792 0 01-5.432-2.344l1.296-7.656a20.432 20.432 0 01-4.536-4.704l-7.376 1.32a28 28 0 01-2.248-5.6l6.12-4.472a22.504 22.504 0 010-6.664l-6.12-4.464c.547-1.942 1.3-3.82 2.248-5.6l7.376 1.336a20.312 20.312 0 014.536-4.712l-1.296-7.656a25.768 25.768 0 015.4-2.376l4.304 6.4a19.576 19.576 0 016.4 0l4.296-6.4a25.24 25.24 0 015.432 2.336l-1.28 7.656a20.608 20.608 0 014.528 4.712l7.376-1.336zm-23.552 22.112a8.68 8.68 0 10-8.304-8.68 8.52 8.52 0 008.344 8.68"/><path fill="#717791" d="M105.632 161.192l-.712-.208a27.416 27.416 0 01-5.648-2.4l-.6-.352 1.312-7.752a21.416 21.416 0 01-3.896-4l-7.464 1.344-.344-.648a29.36 29.36 0 01-2.336-5.816l-.184-.672 6.2-4.528a23.584 23.584 0 010-5.752l-6.2-4.52.184-.672a29.48 29.48 0 012.336-5.84l.344-.64 7.464 1.352a21.464 21.464 0 013.896-4l-1.312-7.752.6-.344a26.72 26.72 0 015.648-2.4l.704-.216 4.36 6.4a20.8 20.8 0 015.456 0l4.36-6.4.704.216a26.72 26.72 0 015.648 2.4l.6.344-1.296 7.752a21.6 21.6 0 013.88 4l7.472-1.352.344.64a29.552 29.552 0 012.328 5.84l.184.672-6.2 4.512a22.632 22.632 0 010 5.76l6.2 4.528-.192.664a28.176 28.176 0 01-2.32 5.824l-.344.648-7.472-1.344a21.32 21.32 0 01-3.88 4l1.296 7.752-.6.352a26.992 26.992 0 01-5.648 2.4l-.704.208-4.36-6.448a20.8 20.8 0 01-5.456 0l-4.352 6.448zm10.776-8.624l4.24 6.28a24.368 24.368 0 003.92-1.696l-1.264-7.568.488-.368a19.2 19.2 0 004.304-4.472l.368-.52 7.28 1.304a27.024 27.024 0 001.64-4.112L131.328 137l.096-.608c.165-1.059.248-2.129.248-3.2a19.856 19.856 0 00-.248-3.2l-.096-.6 6.056-4.416a28.24 28.24 0 00-1.64-4.128l-7.28 1.32-.368-.528a19.736 19.736 0 00-4.304-4.48l-.488-.368 1.264-7.56a23.8 23.8 0 00-3.92-1.68l-4.24 6.264-.632-.104a18.4 18.4 0 00-6.072 0l-.632.104-4.248-6.264a25.232 25.232 0 00-3.928 1.68l1.288 7.56-.488.368a19.496 19.496 0 00-4.32 4.48l-.36.528-7.28-1.32a27.336 27.336 0 00-1.648 4.136l6.048 4.4-.088.608a21.184 21.184 0 000 6.4l.088.6-6.048 4.416c.44 1.412.991 2.787 1.648 4.112l7.28-1.304.36.52a19.432 19.432 0 004.312 4.472l.496.368-1.288 7.568a25.52 25.52 0 003.928 1.696l4.24-6.28.64.104a18.4 18.4 0 006.072 0l.632-.096zm-3.672-9.672a9.68 9.68 0 119.352-9.68 9.528 9.528 0 01-9.376 9.68h.024zm0-17.352a7.68 7.68 0 107.352 7.672 7.528 7.528 0 00-7.376-7.672h.024z"/></g></g></svg>