<svg xmlns="http://www.w3.org/2000/svg" xmlns:xlink="http://www.w3.org/1999/xlink" width="186" height="178" viewBox="0 0 186 178"><defs><path id="fs-19es5h8aya" d="M0 .085h23.449v23.45H0z"/><path id="fs-uxwmwi521c" d="M.148.365H46.43v1.369H.148z"/></defs><g fill="none" fill-rule="evenodd"><g transform="translate(1 1)"><path fill="#F2F4F9" d="M95.265 152.15l49.478-49.478a7.9 7.9 0 0111.17 11.17l-49.478 49.479a7.9 7.9 0 01-11.17-11.17"/><g transform="translate(9.824 102.169)"><mask id="fs-jfszfx7yqb" fill="#fff"><use xlink:href="#fs-19es5h8aya"/></mask><path fill="#F2F4F9" d="M2.314 10.05l7.651-7.652a7.9 7.9 0 0111.17 11.17l-7.651 7.653a7.898 7.898 0 01-11.17 0 7.898 7.898 0 010-11.17" mask="url(#fs-jfszfx7yqb)"/></g><path fill="#F2F4F9" d="M98.78 126.737l22.613-22.613a7.855 7.855 0 00-2.31 5.584 7.855 7.855 0 002.31 5.584 7.898 7.898 0 0011.17.002l-22.613 22.613a7.854 7.854 0 002.31-5.584 7.897 7.897 0 00-13.48-5.587M89.115 92.29l21.187-21.188a7.855 7.855 0 00-2.31 5.584 7.855 7.855 0 002.31 5.584 7.899 7.899 0 0011.17.003l-21.187 21.186a7.854 7.854 0 002.31-5.583 7.897 7.897 0 00-13.48-5.587"/><path fill="#F2F4F9" d="M81.612 121.68l61.814-61.815a7.9 7.9 0 0111.17 11.17L92.781 132.85a7.898 7.898 0 01-11.17-11.17m-60.734 16.754l84.14-84.139a7.898 7.898 0 0111.17 0 7.898 7.898 0 010 11.17l-84.14 84.139a7.9 7.9 0 01-11.17-11.17M35.75 83.042l31.225-31.225a7.898 7.898 0 0111.17 11.17L46.92 94.213a7.9 7.9 0 01-11.17-11.17m51.647-51.648l.186-.186a7.9 7.9 0 0111.17 11.17l-.186.187a7.9 7.9 0 01-11.17-11.17m-23.95 107.918l.187-.186a7.9 7.9 0 0111.17 11.17l-.187.187a7.9 7.9 0 01-11.17-11.17"/><path fill="#E5EEFD" d="M169.918 167.708h3.242"/><path fill="#717791" d="M169.918 167.296c.54-.208 1.081-.228 1.622-.221.54.005 1.08.043 1.62.158a.487.487 0 010 .95c-.54.114-1.08.153-1.62.159-.541.007-1.081-.014-1.622-.223a.44.44 0 010-.823"/><path fill="#E5EEFD" d="M21.892 167.708h145.644"/><path fill="#717791" d="M21.892 167.318c6.069-.178 12.137-.206 18.206-.202l18.205-.015 36.411-.029 36.411-.03 18.206-.014c6.068.005 12.136.019 18.205.17a.51.51 0 010 1.019c-6.069.153-12.137.166-18.205.17l-18.206-.014-36.41-.029-36.412-.03-18.205-.014c-6.069.004-12.137-.024-18.206-.201a.39.39 0 010-.781"/><path fill="#E5EEFD" d="M18.31 167.708h.473"/><path fill="#717791" d="M18.31 167.13c.078-.018.157 0 .236.002.04-.002.08.018.119.028.04.01.079.024.118.051a.6.6 0 010 .994.37.37 0 01-.118.05c-.04.01-.08.031-.119.03-.08.001-.158.019-.237.001a.592.592 0 010-1.156"/><path fill="#E5EEFD" d="M12.477 167.708h2.36"/><path fill="#717791" d="M12.478 167.287c.393-.102.786-.14 1.18-.157.393-.025.786-.009 1.18.111a.489.489 0 010 .934c-.394.12-.787.136-1.18.111a5.665 5.665 0 01-1.18-.157.434.434 0 010-.842"/><path fill="#E5EEFD" d="M77.941 175.456h45.457"/><g transform="translate(77.439 174.406)"><mask id="fs-2j7p6lfs2d" fill="#fff"><use xlink:href="#fs-uxwmwi521c"/></mask><path fill="#717791" d="M.502.659C2.397.479 4.292.457 6.185.453l5.682-.03L23.23.365l11.364.002h5.682c1.895.01 3.789.02 5.683.173a.511.511 0 010 1.018c-1.894.153-3.788.164-5.683.172l-5.682.002-11.364.002-11.364-.058-5.682-.03C4.291 1.64 2.397 1.618.502 1.438a.391.391 0 010-.78" mask="url(#fs-2j7p6lfs2d)"/></g><path fill="#E5EEFD" d="M59.238 175.456h11.648"/><path fill="#717791" d="M59.239 175.035c1.94-.102 3.883-.14 5.824-.157 1.941-.02 3.883-.012 5.824.111a.467.467 0 010 .934c-1.941.123-3.883.13-5.824.111a134.172 134.172 0 01-5.824-.158.42.42 0 010-.841"/><g stroke="#C9D7ED" stroke-linecap="round" stroke-linejoin="round"><path stroke-width="1.621" d="M166.02 132.862a1.508 1.508 0 11-3.016 0 1.508 1.508 0 013.016 0z"/><path stroke-width="1.029" d="M182.853 57.181l.736 2.691-2.692.736-.736-2.692z"/><path stroke-width="1.621" d="M3.846 55.725v7.463m3.731-3.731H.113m53.829-5.962a1.508 1.508 0 11-3.015 0 1.508 1.508 0 013.015 0z"/><path stroke-width="1.367" d="M166.497 86.167a1.507 1.507 0 11-3.015 0 1.507 1.507 0 013.015 0z"/><path stroke-width="1.029" d="M83.207 44.433l.735 2.691-2.691.736-.736-2.692z"/><path stroke-width="1.367" d="M31.097 99.825a1.756 1.756 0 113.513 0 1.756 1.756 0 01-3.513 0z"/></g><path stroke="#CFD7DF" stroke-dasharray="1.84910260333916,1.84910260333916" stroke-linecap="round" stroke-width="1.161" d="M99.596 125.232c-9.61-1.68-39.69-9.17-29.994-36.162 0 0 13.995-36.386 54.916-27.52 0 0 14.05 4.202 13.728 16.947 0 0-4.954 42.113-90.268 5.105 0 0-67.12-48.911 49.969-79.73"/><path fill="#DBE2E8" d="M63.675 106.764h-1.741v-1.76h-1.162v1.76H59.03v1.171h1.74v1.76h1.163v-1.76h1.74z"/><circle cx="99.977" cy="2.89" r="2.89" fill="#FFF" stroke="#CFD7DF" stroke-width="1.161"/></g><g transform="translate(28 49)"><path fill="#CBDBFF" fill-rule="nonzero" d="M60.687 60.314h28.306m-28.306-4.54h13.979M60.687 76.716h28.306M8.723 26.838l2.878 2.91a3.867 3.867 0 01.717 4.465 26.221 26.221 0 00-1.325 3.183A3.889 3.889 0 017.3 40.024H3.194a1.293 1.293 0 00-1.303 1.293v7.81a1.293 1.293 0 001.292 1.303H7.29a3.878 3.878 0 013.66 2.661c.36 1.097.795 2.168 1.304 3.205a3.867 3.867 0 01-.76 4.453l-2.955 2.922a1.303 1.303 0 000 1.836l5.496 5.55a1.303 1.303 0 001.836 0l2.9-2.878a3.867 3.867 0 014.465-.728c1.03.52 2.098.967 3.193 1.336a3.867 3.867 0 012.618 3.693v4.106a1.293 1.293 0 001.292 1.303h7.8c.717 0 1.302-.575 1.314-1.292l.065-13.133-1.52-1.531a17.02 17.02 0 01-3.629.391c-.565 0-1.086 0-1.672-.098-.218 0-.435-.065-.641-.098-.207-.032-.674-.086-1.01-.152-.337-.065-.435-.108-.652-.163-.217-.054-.652-.152-.967-.26a5.431 5.431 0 01-.543-.196c-.348-.12-.695-.239-1.032-.38l-.37-.174c-.38-.174-.77-.358-1.085-.554l-.174-.108a16.63 16.63 0 01-6.518-6.604l-.097-.174c-.207-.37-.38-.76-.554-1.086-.055-.13-.12-.25-.163-.37-.141-.347-.26-.695-.38-1.086-.12-.391-.13-.358-.185-.543a14.01 14.01 0 01-.239-.967c-.065-.326-.12-.434-.163-.662a20.713 20.713 0 01-.152-1c-.043-.336-.065-.423-.087-.64a16.39 16.39 0 010-3.346c0-.217.065-.435.087-.64.022-.207.098-.674.163-1.011.065-.337.109-.435.163-.652.054-.217.152-.64.25-.967l.097-.619c.13-.347.25-.695.392-1.086.054-.13.119-.25.173-.37.174-.38.348-.77.554-1.085 0 0 .076-.109.109-.174a16.576 16.576 0 016.593-6.517l.185-.11c.37-.195.75-.38 1.086-.542l.37-.174a9.79 9.79 0 011.086-.37l.543-.195c.315-.098.64-.163.966-.239.326-.076.435-.12.663-.163.33-.063.664-.11 1-.14.217 0 .423-.077.64-.099.565 0 1.086-.076 1.673-.076 1.225.02 2.444.165 3.639.435l1.542-1.52.065-13.133c0-.716-.577-1.298-1.292-1.304h-7.81c-.72 0-1.304.584-1.304 1.304v4.106a3.867 3.867 0 01-2.65 3.66 24.1 24.1 0 00-3.259 1.304 3.867 3.867 0 01-4.453-.772l-2.878-2.91a1.293 1.293 0 00-1.836 0l-5.55 5.43a1.303 1.303 0 00.032 1.804z"/><path fill="#717791" fill-rule="nonzero" d="M38.127 78.715h-7.81a2.074 2.074 0 01-1.488-.63 2.053 2.053 0 01-.609-1.543v-4.095a3.052 3.052 0 00-2.074-2.921 25.548 25.548 0 01-3.259-1.38 3.063 3.063 0 00-3.53.576L16.435 71.6c-.4.386-.933.603-1.488.608a2.172 2.172 0 01-1.5-.63l-5.43-5.54a2.096 2.096 0 010-2.986l2.824-2.879a3.063 3.063 0 00.608-3.53 25.037 25.037 0 01-1.347-3.259 3.063 3.063 0 00-2.889-2.096H3.107A2.172 2.172 0 011 49.116v-7.8a2.107 2.107 0 01.695-1.542 2.248 2.248 0 011.543-.586h4.105a3.063 3.063 0 002.9-2.075c.383-1.116.84-2.204 1.37-3.259a3.041 3.041 0 00-.566-3.519l-2.878-2.91a2.172 2.172 0 010-2.988l5.55-5.496a2.172 2.172 0 011.467-.62c.56.001 1.097.228 1.488.63l2.857 2.9a3.041 3.041 0 003.519.61 25.743 25.743 0 013.259-1.337 3.052 3.052 0 002.085-2.9v-4.106a2.064 2.064 0 01.75-1.499A2.172 2.172 0 0130.643 12h7.81a2.172 2.172 0 012.107 2.172l-.066 13.47-2.096 2.074h-.489a16.054 16.054 0 00-3.454-.413 15.55 15.55 0 00-1.586.076h-.619c-.337 0-.64.076-.956.142l-.38.086-.434.109c-.25 0-.49.109-.728.185l-.272.097-.25.087c-.336.109-.662.218-.988.359a.815.815 0 00-.195.087l-.153.065c-.38.163-.738.337-1.086.521l-.174.109a15.815 15.815 0 00-6.278 6.202l-.065.12c-.228.412-.402.782-.565 1.086l-.163.358c-.14.315-.25.641-.369.978l-.076.206c0 .098-.076.207-.109.315-.032.109-.14.5-.206.76l-.109.424c0 .109 0 .228-.076.348-.076.12-.097.532-.13.793l-.065.39v.392a16.293 16.293 0 000 3.171c0 .142 0 .261.054.392v.228c.03.32.077.64.141.955 0 .12.055.25.087.38l.098.403c.054.26.12.51.195.76.025.097.058.191.098.282l.076.24c.12.336.228.662.359.988 0 .076.065.13.087.195l.076.152c.163.37.325.739.521 1.087l.098.173a15.848 15.848 0 006.213 6.279h.108c.373.213.757.405 1.152.575l.358.163c.315.13.641.25.978.37l.206.076.304.108.728.196.456.108.348.087c.275.05.547.094.815.13h.38l.39.066c.528.056 1.057.085 1.587.087a16.738 16.738 0 003.454-.38l.445-.087 2.173 2.172-.076 13.469a2.172 2.172 0 01-2.173 2.107l-.032.185zM23.593 66.69c.996.513 2.027.955 3.085 1.325a4.682 4.682 0 013.172 4.475v4.095a.467.467 0 00.13.347.521.521 0 00.348.142h7.81a.478.478 0 00.336-.142.532.532 0 00.152-.347l.065-12.785-1.02-1.086c-1.115.21-2.245.32-3.379.326-.586 0-1.173 0-1.749-.098l-.488-.076h-.337c-.304 0-.597-.087-.902-.152a3.476 3.476 0 01-.423-.13l-.413-.109c-.282-.065-.554-.13-.826-.217l-.401-.141-.174-.066c-.359-.12-.728-.25-1.086-.401l-.359-.153c-.413-.184-.815-.38-1.206-.597l-.13-.065a17.531 17.531 0 01-6.962-6.941l-.098-.174a15.182 15.182 0 01-.576-1.205l-.054-.11-.13-.292c-.142-.348-.261-.717-.392-1.087l-.076-.206c0-.12-.076-.239-.12-.358a12.693 12.693 0 01-.216-.87l-.098-.38c0-.152-.076-.304-.109-.456a16.351 16.351 0 01-.152-1.086v-.174l-.065-.489a17.922 17.922 0 010-3.497l.065-.478v-.359c0-.293.087-.586.152-.89.027-.15.064-.3.109-.446l.098-.39c.065-.283.14-.576.228-.859.087-.282.087-.271.14-.402l.066-.173c.12-.359.25-.717.402-1.087l.174-.38c.188-.413.384-.814.586-1.205l.076-.12a17.455 17.455 0 016.963-6.908l.478.652-.304-.76a13.72 13.72 0 011.216-.577h.098l.293-.13c.348-.141.706-.26 1.087-.38l.217-.076.347-.12c.283-.086.554-.152.826-.217l.413-.098a3.72 3.72 0 01.467-.108c.358-.076.706-.12 1.086-.163h.185a3.33 3.33 0 01.478-.065c.564 0 1.162-.087 1.748-.087 1.132.01 2.26.13 3.368.358l1.031-1.032.066-12.784a.489.489 0 00-.49-.49h-7.798a.532.532 0 00-.348.142.478.478 0 00-.14.348v4.106a4.66 4.66 0 01-3.26 4.431c-1.059.35-2.093.77-3.095 1.26a4.682 4.682 0 01-5.431-.923l-2.868-2.911a.717.717 0 00-.347-.141.521.521 0 00-.348.141l-5.54 5.431a.478.478 0 00-.14.348.467.467 0 00.13.347l2.867 2.9a4.67 4.67 0 01.88 5.431 21.8 21.8 0 00-1.293 3.085 4.703 4.703 0 01-4.399 3.129H3.238A.478.478 0 002.9 41a.434.434 0 00-.141.337v7.81a.49.49 0 00.478.49h4.105a4.703 4.703 0 014.443 3.258 21.952 21.952 0 001.25 3.095 4.66 4.66 0 01-.924 5.431l-2.9 2.879a.532.532 0 00-.152.347c0 .127.051.248.14.337l5.497 5.55c.09.09.21.141.337.142a.456.456 0 00.337-.141l2.91-2.879a4.66 4.66 0 013.216-1.455 4.638 4.638 0 012.096.489z"/><path fill="#FDFEFF" fill-rule="nonzero" d="M111.108 98.343V5.223a3.969 3.969 0 00-1.15-3.232A4.115 4.115 0 00106.69.812H55.387c-4.948 0-4.705 4.747-4.705 4.747v82.91"/><path fill="#717791" fill-rule="nonzero" d="M111.108 99.114a.771.771 0 01-.771-.771V5.223a3.65 3.65 0 00-.989-2.792 3.617 3.617 0 00-2.487-.848H56.309a3.737 3.737 0 00-2.824 1.01 4.443 4.443 0 00-1.086 2.933V88.47a.771.771 0 01-1.543 0V5.559a5.952 5.952 0 011.445-4.02A5.225 5.225 0 0156.255.042h50.497a5.16 5.16 0 013.596 1.26 5.116 5.116 0 011.477 3.921v93.12a.771.771 0 01-.717.772z"/><path fill="#FFF" fill-rule="nonzero" d="M76.251 90.326s-1.293 17.934 12.622 17.934c13.653 0 12.502-14.653 12.502-14.653V11.62c0-4.345-4.595-4.595-4.595-4.595H42.752a4.692 4.692 0 00-4.953 4.953V89.74"/><circle cx="51.738" cy="24.119" r="4" fill="#CBDBFF" stroke="#979797"/><rect width="44.534" height="39.828" x="46.858" y="37.602" fill="#CBDBFF" stroke="#717791" stroke-width="1.629" rx="3.259"/><path fill="#717791" fill-rule="nonzero" d="M88.873 109.074a11.829 11.829 0 01-9.048-3.671c-5.03-5.431-4.41-14.74-4.345-15.13a.826.826 0 01.88-.761c.446.034.78.422.75.869 0 .097-.587 9.037 3.953 13.914a10.265 10.265 0 007.853 3.15c3.617 0 6.463-1.086 8.44-3.259 3.715-4.03 3.259-10.482 3.259-10.547V11.62c0-3.442-3.444-3.757-3.835-3.78H42.752A4.106 4.106 0 0039.7 8.927a4.67 4.67 0 00-1.086 3.02V89.74a.815.815 0 11-1.63 0V11.978a6.226 6.226 0 011.543-4.17 5.583 5.583 0 014.225-1.597h54.072c1.9.108 5.43 1.368 5.43 5.43v81.987c0 .229.522 7.17-3.681 11.72-2.368 2.466-5.605 3.726-9.7 3.726z"/><path fill="#FFF" fill-rule="nonzero" d="M88.134 108.26H27.947c-17.379 0-16.097-17.88-16.097-17.88h64.52s-1.173 17.88 11.764 17.88z"/><path fill="#717791" fill-rule="nonzero" d="M89.134 109.074H28.947c-5.246 0-9.395-1.596-12.317-4.725-5.127-5.43-4.617-13.675-4.595-14.023a.815.815 0 01.815-.76h64.52a.826.826 0 01.598.26.85.85 0 01.217.609c0 .098-.554 9.352 3.943 14.12a9.276 9.276 0 007.006 2.89.815.815 0 010 1.63zM13.643 91.195c0 2.086.402 8.006 4.182 12.046 2.607 2.792 6.343 4.204 11.122 4.204h54.104a10.401 10.401 0 01-2.172-1.749c-4.171-4.464-4.443-11.948-4.345-14.5H13.643zm37.962-62.283a4.703 4.703 0 110-9.406 4.703 4.703 0 010 9.406zm0-7.777a3.074 3.074 0 103.074 3.074 3.074 3.074 0 00-3.074-3.117v.043zm36.388 6.322H59.686a.815.815 0 110-1.63h28.307a.815.815 0 010 1.63zm2.845 19.551H48.152c-.679 0-1.229-.364-1.229-.814 0-.45.55-.815 1.229-.815h42.686c.678 0 1.228.365 1.228.815 0 .45-.55.814-1.228.814zM73.666 22.916h-13.98a.815.815 0 010-1.629h13.98a.815.815 0 110 1.63zM57.373 53.33h-6.376a.815.815 0 110-1.63h6.376a.815.815 0 110 1.63zm15.141 0h-6.376a.815.815 0 110-1.63h6.376a.815.815 0 110 1.63zm15.207 0h-6.376a.815.815 0 010-1.63h6.376a.815.815 0 110 1.63zm-30.348 8.712h-6.376a.815.815 0 110-1.63h6.376a.815.815 0 110 1.63zm15.141 0h-6.376a.815.815 0 110-1.63h6.376a.815.815 0 110 1.63zm15.207 0h-6.376a.815.815 0 110-1.63h6.376a.815.815 0 110 1.63zm-30.348 8.689h-6.376a.815.815 0 110-1.63h6.376a.815.815 0 110 1.63zm15.141 0h-6.376a.815.815 0 110-1.63h6.376a.815.815 0 110 1.63zm15.207 0h-6.376a.815.815 0 010-1.63h6.376a.815.815 0 110 1.63z"/><path stroke="#717791" stroke-linecap="square" stroke-width="1.629" d="M61.522 38.113v38.806m15.207-38.806v38.806"/></g></g></svg>