<svg xmlns="http://www.w3.org/2000/svg" width="334" height="186" fill="none" viewBox="0 0 334 186"><path fill="#CFD7DF" d="M285.222 160.647l23.43-.253.085 7.805-23.43.254zm-.238-11.052l19.817-.198.066 6.602-19.817.198z"/><path fill="#92A2B1" d="M285.059 157.091l24.545-.245.029 2.902-24.545.245z"/><path stroke="#fff" stroke-width=".5" d="M288.65 154.835a2.203 2.203 0 10.002-4.406 2.203 2.203 0 00-.002 4.406zm14.811 11.706a2.203 2.203 0 10.002-4.406 2.203 2.203 0 00-.002 4.406z" clip-rule="evenodd"/><path fill="#fff" d="M304.923 149.103l-4.521.051 4.521-.051z"/><path stroke="#92A2B1" stroke-width=".5" d="M304.923 149.103l-4.521.051"/><path fill="#fff" d="M289.757 160.789l-4.527.051 4.527-.051z"/><path stroke="#92A2B1" stroke-width=".5" d="M289.757 160.789l-4.527.051"/><path fill="#CFD7DF" d="M286.003 130.625h14.667v17.912h-14.667z"/><path stroke="#92A2B1" stroke-width=".5" d="M300.381 135.307a4.277 4.277 0 010 8.547m0-7.188a2.918 2.918 0 110 5.835"/><path fill="#fff" d="M293.336 143.314a3.732 3.732 0 003.734-3.731c0-2.06-1.672-3.73-3.734-3.73a3.731 3.731 0 100 7.461z"/><path stroke="#fff" stroke-width=".5" d="M287.285 140.824v-8.985h7.962"/><path fill="#EBEFF3" d="M260.105 43.767c-.691 10.996 8.239 19.898 16.124 27.621 7.884 7.724 15.913 18.046 12.931 28.651-2.673 9.515-13.096 14.501-22.731 16.718-9.636 2.218-20.085 3.088-27.938 9.124-3.312 2.572-5.943 5.871-9.147 8.552-11.474 9.581-28.154 9.339-42.883 6.771-14.728-2.567-29.719-6.977-44.376-3.998-20.599 4.184-37.125 22.394-58.137 23.155-14.059.515-27.49-7.322-36.476-18.138-8.987-10.816-14.065-24.339-17.695-37.918-2.245-8.413-4.007-17.14-3.028-25.795.978-8.655 5.072-17.31 12.396-22.034 5.247-3.386 12.287-5.042 15.011-10.661 1.793-3.7 1.108-8.053 1.545-12.139a22.064 22.064 0 0111.803-17.33 22.099 22.099 0 0120.976.35c5.541 3.087 9.579 8.5 15.275 11.32 8.636 4.26 19.219 1.626 27.5-3.278 8.281-4.904 15.146-11.907 23.2-17.155 8.054-5.249 18.2-8.748 27.294-5.66 9.986 3.421 16.737 14.093 27.181 15.652 6.268.937 12.484-1.698 18.133-4.569 9.553-4.868 23.777-11.464 32.176-.545 7.416 9.627 1.514 21.014.866 31.306z"/><path fill="#CFD7DF" d="M260.954 29.117c6.189 0 11.206-5.013 11.206-11.197 0-6.184-5.017-11.197-11.206-11.197-6.189 0-11.206 5.013-11.206 11.197 0 6.184 5.017 11.197 11.206 11.197z"/><path fill="#fff" d="M260.954 26.781c4.898 0 8.868-3.967 8.868-8.86 0-4.894-3.97-8.862-8.868-8.862s-8.868 3.968-8.868 8.861c0 4.894 3.97 8.861 8.868 8.861z"/><path stroke="#92A2B1" stroke-width=".5" d="M272.196 17.92c0-6.204-5.033-11.233-11.242-11.233m-7.951 19.178c4.393 4.384 11.51 4.384 15.903 0m-7.952-15.133V9.059m0 16.055v1.672m-8.873-8.866h1.674m14.393 0h1.674m-15.14 6.268l1.184-1.184m10.176-10.168l1.184-1.183m0 12.535l-1.184-1.184m-10.176-10.168l-1.184-1.183m9.836 4.132l-3.657 2.516-4.81 2.429m40.488 147.705h-59.903"/><path fill="#fff" d="M12.648 167.34V74.562h103.23v92.776z"/><path fill="#CFD7DF" d="M73.345 160.13V74.563h42.528v85.567z"/><path stroke="#92A2B1" stroke-width=".5" d="M20.003 131.392a4.68 4.68 0 004.68-4.678 4.68 4.68 0 00-4.68-4.677 4.68 4.68 0 00-4.682 4.677 4.68 4.68 0 004.682 4.678zm14.867 0a4.68 4.68 0 004.681-4.678 4.68 4.68 0 00-4.68-4.677 4.68 4.68 0 00-4.682 4.677 4.68 4.68 0 004.681 4.678zm14.868 0a4.68 4.68 0 004.681-4.678 4.68 4.68 0 00-4.681-4.677 4.68 4.68 0 00-4.681 4.677 4.68 4.68 0 004.68 4.678z" clip-rule="evenodd"/><path fill="#fff" d="M118.741 167.344V125.5H221.97v41.844z"/><path fill="#fff" stroke="#B1BDC7" stroke-width=".5" d="M17.443 165.178v-16.821h22.036v16.82z"/><path stroke="#B1BDC7" stroke-width=".5" d="M96.57 163.356V83.15h19.308v80.205zm-23.225-.006V83.147h19.307v80.205z"/><path stroke="#B1BDC7" stroke-width=".5" d="M10.511 169.09V70.86H122.97v98.23zm119.683.004v-47.011h96.751v47.011z"/><path stroke="#B1BDC7" stroke-width=".5" d="M149.418 161.535v-26.973h64.275v26.973z"/><path fill="#CFD7DF" d="M59.96 157.037v-54.415h6.726v54.415zM29.91 60.53v-12.8h25.008v12.8z"/><path fill="#fff" d="M47.76 106.795H2.817V60.099h78.036v36.699l-11.736 9.997H53.6"/><path stroke="#92A2B1" stroke-width=".5" d="M47.76 106.795H2.817V60.099h78.036v36.699l-11.736 9.997H53.6"/><rect width="20.166" height="18.586" x="10.31" y="100.333" stroke="#92A2B1" stroke-width=".5" rx="2.655" transform="rotate(-90 10.31 100.333)"/><path fill="#EBEFF3" d="M40.592 100.755a4.427 4.427 0 004.428-4.426 4.427 4.427 0 00-4.428-4.425 4.427 4.427 0 00-4.43 4.425 4.427 4.427 0 004.43 4.426z"/><path stroke="#92A2B1" stroke-width=".5" d="M61.891 94.708c7.6 0 13.76-6.155 13.76-13.749 0-7.593-6.16-13.749-13.76-13.749s-13.76 6.156-13.76 13.75c0 7.593 6.16 13.748 13.76 13.748z" clip-rule="evenodd"/><path stroke="#92A2B1" stroke-width=".5" d="M52.164 80.96H71.62m-9.729-9.72v19.44m-6.88-16.595l13.76 13.749m.001-13.749l-13.76 13.749"/><path fill="#CFD7DF" d="M43.965 40.818l.185.34h1.545a1.907 1.907 0 001.916-1.899V21.476c0-.508-.2-.996-.556-1.359a1.91 1.91 0 00-1.36-.555H44.15l-.185.34a3.09 3.09 0 01-5.397 0l-.201-.34h-1.545a1.89 1.89 0 00-1.9 1.914v17.778a1.9 1.9 0 001.895 1.899h1.545l.2-.34a3.09 3.09 0 015.398 0l.005.005z"/><rect width="11.758" height="5.66" x="44.088" y="24.481" stroke="#fff" stroke-width=".5" rx="1.47" transform="rotate(90 44.088 24.48)"/><path stroke="#92A2B1" stroke-width=".5" d="M44.15 19.567h1.545M34.922 39.26V21.48M29.91 47.729h14.786"/><path fill="#fff" d="M219.188 113.515H78.597a3.09 3.09 0 01-3.116-3.087V4.721a3.114 3.114 0 013.116-3.087h164.677a3.088 3.088 0 013.09 3.087v105.686a3.089 3.089 0 01-3.09 3.087"/><path stroke="#273139" stroke-width=".5" d="M219.188 113.515H78.597a3.09 3.09 0 01-3.116-3.087V4.721a3.114 3.114 0 013.116-3.087h164.677a3.088 3.088 0 013.09 3.087v105.686a3.089 3.089 0 01-3.09 3.087"/><path fill="#273139" stroke="#273139" stroke-width=".5" d="M78.577 1.609h164.698a3.088 3.088 0 013.089 3.087V15.98H75.461V4.722a3.086 3.086 0 013.116-3.113z"/><path fill="#fff" d="M81.043 10.423a1.431 1.431 0 10.002-2.862 1.431 1.431 0 00-.002 2.862zm4.712 0a1.431 1.431 0 10.002-2.862 1.431 1.431 0 00-.002 2.862zm4.707 0a1.431 1.431 0 10.002-2.862 1.431 1.431 0 00-.002 2.862z"/><rect width="154.712" height="22.08" x="82.089" y="23.462" fill="#fff" stroke="#B2E4D9" stroke-width=".5" rx="3.625"/><path fill="#DFF4F0" d="M111.381 31.767h88.532c2.003 0 2.008-3.087 0-3.087h-88.532c-1.998 0-2.003 3.087 0 3.087zm0 8.187h19.158c2.003 0 2.008-3.087 0-3.087h-19.158c-1.998 0-2.003 3.087 0 3.087zm27.145 0h35.988c2.003 0 2.008-3.087 0-3.087h-35.988c-2.003 0-2.008 3.087 0 3.087z"/><rect width="154.712" height="22.08" x="82.089" y="51.269" fill="#fff" stroke="#B2E4D9" stroke-width=".5" rx="3.625"/><path fill="#DFF4F0" d="M111.381 59.584h77.918c2.003 0 2.003-3.087 0-3.087h-77.918c-1.998 0-2.003 3.087 0 3.087zm0 8.203h19.158c2.003 0 2.008-3.088 0-3.088h-19.158c-1.998 0-2.003 3.088 0 3.088zm27.145 0h28.258c2.003 0 2.008-3.088 0-3.088h-28.258c-2.003 0-2.008 3.088 0 3.088z"/><rect width="154.712" height="22.08" x="82.089" y="79.076" fill="#fff" stroke="#B2E4D9" stroke-width=".5" rx="3.625"/><path fill="#DFF4F0" d="M111.381 87.391h83.233c2.003 0 2.008-3.087 0-3.087h-83.233c-1.998 0-2.003 3.087 0 3.087zm0 8.182h19.158c2.003 0 2.008-3.087 0-3.087h-19.158c-1.998 0-2.003 3.087 0 3.087zm27.145 0h40.834c2.003 0 2.003-3.087 0-3.087h-40.834c-2.003 0-2.008 3.087 0 3.087z"/><rect width="15.45" height="15.437" x="86.142" y="26.781" fill="#DFF4F0" rx="2.65"/><path fill="#fff" d="M88.722 42.264a5.287 5.287 0 015.29-5.285 5.287 5.287 0 015.288 5.285"/><path stroke="#B2E4D9" stroke-width=".5" d="M88.722 42.264a5.287 5.287 0 015.29-5.285 5.287 5.287 0 015.288 5.285"/><path fill="#fff" stroke="#B2E4D9" stroke-width=".5" d="M93.764 35.544a2.929 2.929 0 100-5.856 2.93 2.93 0 100 5.856z"/><rect width="15.45" height="15.437" x="86.142" y="54.588" fill="#DFF4F0" rx="2.65"/><path fill="#fff" d="M88.722 70.071a5.287 5.287 0 015.29-5.284A5.287 5.287 0 0199.3 70.07"/><path stroke="#B2E4D9" stroke-width=".5" d="M88.722 70.071a5.287 5.287 0 015.29-5.284A5.287 5.287 0 0199.3 70.07"/><path fill="#fff" stroke="#B2E4D9" stroke-width=".5" d="M93.764 63.351a2.93 2.93 0 10-2.93-2.928 2.93 2.93 0 002.93 2.928z"/><rect width="15.45" height="15.437" x="86.142" y="82.395" fill="#DFF4F0" rx="2.65"/><path fill="#fff" d="M88.722 97.878a5.287 5.287 0 015.29-5.284 5.287 5.287 0 015.288 5.284"/><path stroke="#B2E4D9" stroke-width=".5" d="M88.722 97.878a5.287 5.287 0 015.29-5.284 5.287 5.287 0 015.288 5.284"/><path fill="#fff" stroke="#B2E4D9" stroke-width=".5" d="M93.764 91.158a2.93 2.93 0 10-2.93-2.928 2.93 2.93 0 002.93 2.928z"/><path stroke="#92A2B1" stroke-width=".5" d="M10.511 168.903H.891"/><path fill="#CFD7DF" d="M320.114 55.356l-5.92 1.116-5.84-30.94 5.92-1.117zm-10.581.838h-21.717v-7.235h21.717zm-18.365-17.717h18.364v6.118h-18.364z"/><path stroke="#92A2B1" stroke-width=".5" d="M315.419 27.229l-7.112 1.338m7.426.319l-7.112 1.337m11.227 20.459l-7.112 1.338m7.426.32l-7.117 1.337"/><path fill="#CFD7DF" d="M322.32 56.904h-1.205V23.169h1.205zm-36.796 0h-1.205V23.169h1.205z"/><path fill="#92A2B1" d="M309.528 48.114h-22.747v-2.69h22.747z"/><path stroke="#fff" stroke-width=".5" d="M306.283 43.617a2.039 2.039 0 10.003-4.077 2.039 2.039 0 00-.003 4.078zm-13.611 11.002a2.038 2.038 0 10.001-4.077 2.038 2.038 0 00-.001 4.077z" clip-rule="evenodd"/><path fill="#fff" d="M322.32 23.169v17.675-17.675z"/><path stroke="#92A2B1" stroke-width=".5" d="M322.32 23.169v17.675m10.789 16.168h-62.694"/><path fill="#fff" d="M321.115 56.234v-6.58 6.58z"/><path stroke="#92A2B1" stroke-width=".5" d="M321.115 56.234v-6.58"/><path fill="#fff" d="M284.319 56.235V43.072v13.163z"/><path stroke="#92A2B1" stroke-width=".5" d="M284.319 56.235V43.072"/><path fill="#fff" d="M291.168 38.477h4.192-4.192z"/><path stroke="#92A2B1" stroke-width=".5" d="M291.168 38.477h4.192"/><path fill="#fff" d="M305.341 49.154h4.192-4.192z"/><path stroke="#92A2B1" stroke-width=".5" d="M305.341 49.154h4.192m-35.272 74.653l-3.013 9.216c-2.276 6.952-4.393 18.2-13.667 18.483h-17.325s-10.428-.36-13.281 5.341l-13.076 27.884"/><rect width="3.198" height="24.691" fill="#CFD7DF" rx="1.552" transform="rotate(18.646 -199.722 886.692) skewX(-.029)"/><path stroke="#131735" stroke-linecap="round" stroke-linejoin="round" stroke-width=".72" d="M186.101 175.762s-6.912 2.028-10.094 5.29c0 0 8.435 2.686 20.97.772 0 0 .268-2.341-1.648-5.146a8.324 8.324 0 01-9.228-.916z" clip-rule="evenodd"/><path fill="#fff" d="M221.238 168.425c1.622-.608 3.208-1.657 4.928-1.457 1.859.222 3.363 2.254 2.822 4.045-.391 1.281-1.591 2.135-2.744 2.82a36.918 36.918 0 01-17.973 5.145c.262 0 1.946-3.288 2.229-3.694a32.537 32.537 0 013.029-3.69c.798-.838 1.833-2.202 2.945-2.547 1.473-.489 3.188-.036 4.764-.622z"/><path fill="#5CA6F4" d="M216.613 101.012a7.853 7.853 0 001.473 8.866c2.668 2.624 6.777 2.943 10.521 3.087 6.397.283 13.091.515 18.87-2.254a19.738 19.738 0 006.694-5.223 5.929 5.929 0 001.396-2.572 2.521 2.521 0 00-.968-2.609c-1.262-.788-2.858.082-4.177.772-4.449 2.325-9.712 2.572-14.708 2.027-4.995-.545-9.898-1.76-14.903-2.197-1.468-.129-3.09-.134-4.213.849-1.123.983-.927 3.257.515 3.499"/><path stroke="#131735" stroke-linecap="round" stroke-linejoin="round" stroke-width=".72" d="M239.417 102.195a155.364 155.364 0 01-22.252-1.101.995.995 0 00-1.113.834 10.446 10.446 0 00.716 5.377c1.221 3.17 3.306 4.461 3.991 4.816a.95.95 0 00.443.108c1.7 0 3.327.041 4.898.052m17.581-10.302a82.69 82.69 0 01-2.276.139m-9.517 10.147c27.912-.272 32.578-3.514 32.578-3.514l-.175-.314a5.488 5.488 0 00-1.977-9.54 5.434 5.434 0 00-3.276.087v0c-3.831 1.503-8.476 2.373-13.281 2.831"/><path fill="#FF5959" d="M260.094 137.655a7.3 7.3 0 01-2.135 5.173 7.314 7.314 0 01-5.173 2.144l-38.624 1.363-15.233 23.48a4.857 4.857 0 01-9.316-1.919 4.761 4.761 0 01.484-2.1l.283-.514 14.857-27a6.02 6.02 0 015.047-3.879v-.031l41.137-3.895 1.365-.129c1.94-.001 3.8.768 5.171 2.139a7.292 7.292 0 012.137 5.168z"/><path fill="#527FA5" d="M252.786 130.357l-1.365.129c.45-.085.907-.128 1.365-.129zm-38.67 32.361a3.983 3.983 0 01-.103-.705l.103.705zm2.883-42.4l-.721-.195c.245.048.486.114.721.195z"/><path fill="#FF5959" d="M254.83 136.708l-13.503-1.179-2.605-3.833-16.748 1.58-.35-.062 1.936 27.272a4.85 4.85 0 01-2.563 5.559 4.858 4.858 0 01-5.97-1.371 4.708 4.708 0 01-.911-1.955l-.103-.705-4.98-35.448h.025c0-.18-.025-.36-.025-.541 0-3.327 2.7-6.025 6.03-6.025.346 0 .69.031 1.03.092l.17.031.721.196 35.534 9.71 2.312 6.679z"/><path fill="#527FA5" d="M216.279 120.123l-.17-.031.17.031z"/><path fill="#131735" d="M221.975 133.27s1.864 11.86 3.713 12.643l-3.157.108"/><path stroke="#fff" stroke-linecap="round" stroke-linejoin="round" stroke-width=".72" d="M208.605 126.905l5.053 35.829"/><path fill="#5CA6F4" d="M268.519 98.5c-1.298-.226-2.575.186-4.254.186-3.342 0-6.072-1.456-6.283-3.293-.139-1.158-5.021 7.111-5.361 7.857-11.175 24.766-13.724 15.144-14.517 25.239-.68 8.702 10.557 9.638 16.572 11.63 5.814 1.929 9.471-3.206 11.149-7.909 2.539-7.106-5.809-23.984 1.721-24.473 10.691 5.172 6.246-8.336.973-9.236z"/><path fill="#5CA6F4" d="M275.476 123.426c.335 2.465.588 5.259-1.03 7.158-1.03 1.24-2.693 1.806-4.264 2.238a49.47 49.47 0 01-19.569 1.307c-.201-2.758-1.252-4.682-1.452-7.446 2.369.906 5.664-.746 8.188-.674 2.523.072 7.21.556 8.626-1.543 1.117-1.673-.711-3.499-.886-5.501-.175-2.002-.633-3.993-.582-6.01.093-3.731 4.46-8.959 8.044-5.038 1.375 1.503 1.35 4.194 1.607 6.062l1.318 9.447z"/><path stroke="#fff" stroke-linecap="round" stroke-linejoin="round" stroke-width=".72" d="M220.404 126.905a13.108 13.108 0 011.674 6.072c0 .149.082.277.231.262l12.638-1.194"/><path stroke="#131735" stroke-linecap="round" stroke-linejoin="round" stroke-width=".72" d="M214.342 103.415a16.731 16.731 0 00-4.212.334 5.718 5.718 0 00-3.229 1.914c-1.097 1.405-1.545 4.755.087 5.985m5.846-4.122a5.15 5.15 0 01-2.678 3.18c-.598.268.412 1.029.587 1.081 1.215.453 5.546-.479 5.237-2.295"/><path fill="#EBEFF3" d="M262.591 78.814s-5.149 8.233-4.362 11.88c0 0 2.627 6.896 8.637 3.716 0 0 3.136-2.058 3.831-5.043l2.493-6.91-4.635-5.29-5.964 1.647z"/><path stroke="#131735" stroke-linecap="round" stroke-linejoin="round" stroke-width=".72" d="M262.02 78.592c-1.726 2.882-3.312 6.175-3.801 9.53-.257 1.77 0 3.736 1.128 5.177 1.777 2.222 5.665 2.284 7.941.859 2.024-1.26 3.203-3.566 3.94-5.753"/><path fill="#12344D" d="M259.631 73.081s.638 3.602 5.34 4.709c3.893.941 2.266 5.104 1.596 6.498a.546.546 0 00.232.72l.515.29c.261.144.59.055.742-.202.432-.74 1.364-2.022 2.25-1.245 0 0 1.849.587-.072 7.348 0 0 5.304-1.8 6.839-9.87 0 0 .654-3.246-2.06-3.087 0 0 2.209-2.835-.288-4.322-2.498-1.487-9.728-1.214-9.728-1.214s-2.719.067-4.481-.757a.694.694 0 00-.968.767l.083.365z"/><path stroke="#12344D" stroke-linecap="round" stroke-linejoin="round" stroke-width=".72" d="M274.369 78.592a5.266 5.266 0 013.971-1.43m-3.708 1.137a5.284 5.284 0 014.079 1.086"/><path fill="#EBEFF3" stroke="#131735" stroke-linecap="round" stroke-linejoin="round" stroke-width=".72" d="M262.608 83.92c.584-2.132-.007-4.152-1.321-4.512-1.314-.36-2.853 1.078-3.437 3.21-.585 2.132.006 4.153 1.32 4.512 1.314.36 2.853-1.077 3.438-3.21z"/><path stroke="#131735" stroke-linecap="round" stroke-linejoin="round" stroke-width=".72" d="M262.818 82.091l5.351 2.712"/><path fill="#fff" d="M260.975 82.874l-.649-3.35.649 3.35z"/><path stroke="#131735" stroke-linecap="round" stroke-linejoin="round" stroke-width=".5" d="M260.975 82.874l-.649-3.35"/><path fill="#fff" d="M259.321 80.038l.438 2.49-.438-2.49z"/><path stroke="#131735" stroke-linecap="round" stroke-linejoin="round" stroke-width=".5" d="M259.321 80.038l.438 2.49"/><path fill="#fff" d="M259.553 84.216l.412 2.861-.412-2.86z"/><path stroke="#131735" stroke-linecap="round" stroke-linejoin="round" stroke-width=".5" d="M259.553 84.216l.412 2.861"/><path stroke="#131735" stroke-linecap="round" stroke-linejoin="round" stroke-width=".72" d="M216.439 168.996s-5.727 4.358-7.535 8.542c0 0 13.035-.916 19.513-7.636 0 0-.242-1.415-3.028-3.35a8.337 8.337 0 01-8.95 2.444v0z" clip-rule="evenodd"/><path stroke="#131735" stroke-linecap="round" stroke-linejoin="round" stroke-width=".72" d="M228.427 169.902c.989-.273 1.417.946 1.417.946-7.725 8.064-20.6 8.064-20.6 8.064s-1.262.03-1.2-.644c.062-.674.86-.73.86-.73"/><path stroke="#92A2B1" stroke-width=".5" d="M269.672 136.573h-34.519"/><path stroke="#131735" stroke-linecap="round" stroke-linejoin="round" stroke-width=".72" d="M267.463 133.877c-5.912.17-7.451.334-13.389.515m19.435-25.801l2.21 17.773"/><path fill="#131735" d="M263.972 113.413l-.098 9.108a4.447 4.447 0 00.159 1.518c.148.507.554.898 1.066 1.029.814.144 1.545-.7 1.597-1.544a6.2 6.2 0 00-.515-2.408c-1.113-3.484.201-6.592-.113-10.008-.361-3.844-2.076.416-2.096 2.305z"/><path stroke="#131735" stroke-linecap="round" stroke-linejoin="round" stroke-width=".72" d="M265.058 112.651l.819 10.868m-.067 1.847a69.098 69.098 0 01-16.629 1.317c1.545 2.203 1.643 6.211.247 8.511m-1.761-7.353h-4.444c-.721 0-1.581.077-1.952.7s.108 1.621.839 1.94a4.264 4.264 0 002.359.082m3.811 3.005a35.104 35.104 0 01-10.367.762c-.664-.052-1.452-.216-1.689-.839a1.174 1.174 0 01.268-1.153c.288-.295.64-.521 1.03-.658a7.026 7.026 0 013.769-.376"/><path fill="#131735" d="M250.082 109.152c-.581 1.256-1.256 2.609-2.513 3.196.515-.242 1.386-4.992 1.679-5.763.515-1.415 1.416-4.709 2.688-5.599 1.818-1.27 1.705.474 1.149 1.724-.958 2.166-1.998 4.297-3.003 6.442z"/><path stroke="#131735" stroke-linecap="round" stroke-linejoin="round" stroke-width=".72" d="M268.164 98.063c-2.003.397-4.063.798-6.077.463-2.014-.334-4.012-1.574-4.635-3.514m4.017 43.897l-.376-.607c-.855 1.184-2.4 1.703-3.858 1.683a13.75 13.75 0 01-4.248-.988l-4.898-1.703m-8.152-14.887a8.652 8.652 0 00-1.89 5.11m20.023 13.229a5.05 5.05 0 01-5.15 3.89M236.806 126.4l-5.211-2.135m-55.588 56.787s-.757-.149-.881.407a.613.613 0 00.438.715s3.301 1.544 10.933 1.544a48.566 48.566 0 0011.005-.788s.315 0 .237-.622c-.077-.623-.762-.489-.762-.489"/><rect width="33.289" height="3.957" x="228.427" y="144.955" fill="#CFD7DF" rx="1.92"/><path stroke="#92A2B1" stroke-width=".5" d="M248.337 151.506s12.875-1.117 16.165 8.13c3.291 9.247 10.207 25.61 10.207 25.61"/><path fill="#fff" d="M83.85 134.721h33.757v33.73H83.85z"/><path stroke="#92A2B1" stroke-width=".5" d="M83.85 134.721v19.399"/><path fill="#CFD7DF" d="M117.607 134.721h20.517v33.73h-20.517z"/><path stroke="#92A2B1" stroke-width=".5" d="M110.866 168.45h16.094m11.051-27.426v14.639m-20.403-1.981v14.64m-28.835-33.776h19.936m-20.945 24.956v-18.92m14.219 23.243H90.21"/><path stroke="#fff" stroke-width=".5" d="M129.473 163.825h-5.887"/><path stroke="#92A2B1" stroke-width=".5" d="M112.798 148.465v10.317M97.42 141.981h9.604m27.624 26.469h3.477v-3.905"/><path stroke="#fff" stroke-width=".5" d="M121.249 141.312v17.099m-3.641-23.69v11.099"/><path stroke="#92A2B1" stroke-width=".5" d="M138.125 134.721h-5.088"/></svg>