<svg xmlns="http://www.w3.org/2000/svg" width="179" height="160" fill="none" viewBox="0 0 179 160"><path fill="url(#paint0_linear)" d="M90.599 159.654c43.454 0 78.679-35.74 78.679-79.827C169.278 35.74 134.053 0 90.599 0c-43.453 0-78.68 35.74-78.68 79.827 0 44.087 35.227 79.827 78.68 79.827z"/><path fill="url(#paint1_linear)" d="M89.604 158.721c43.448 0 78.669-35.531 78.669-79.36C168.273 35.53 133.052 0 89.603 0 46.157 0 10.936 35.531 10.936 79.36c0 43.83 35.221 79.361 78.669 79.361z"/><mask style="mask-type:alpha" id="fs-gabelfslna" width="159" height="159" x="10" y="0" maskUnits="userSpaceOnUse"><path fill="url(#paint2_linear)" d="M89.604 158.721c43.448 0 78.669-35.531 78.669-79.36C168.273 35.53 133.052 0 89.603 0 46.157 0 10.936 35.531 10.936 79.36c0 43.83 35.221 79.361 78.669 79.361z"/></mask><g mask="url(#fs-gabelfslna)"><path fill="#fff" d="M116.277 42.66a5 5 0 00-5 5v196.6h198.701V42.66H116.277zm193.117 12.533h-11.865V43.154h11.865v12.039zm-98.523 75.39v-12.039h11.865v12.039h-11.865zm11.865.592v12.039h-11.865v-12.039h11.865zm-12.352-.592h-11.865v-12.039h11.865v12.039zm0 .592v12.039h-11.865v-12.039h11.865zm-12.449 12.039H186.07v-12.039h11.865v12.039zm0 .493v12.039H186.07v-12.039h11.865zm.584 0h11.865v12.039h-11.865v-12.039zm11.865 12.532v12.039h-11.865v-12.039h11.865zm.487 0h11.865v12.039h-11.865v-12.039zm0-.493v-12.039h11.865v12.039h-11.865zm12.352-12.039h11.865v12.039h-11.865v-12.039zm0-.493v-12.039h11.865v12.039h-11.865zm0-12.631v-12.039h11.865v12.039h-11.865zm0-12.532v-12.039h11.865v12.039h-11.865zm-.487 0h-11.865v-12.039h11.865v12.039zm-12.352 0h-11.865v-12.039h11.865v12.039zm-12.449 0H186.07v-12.039h11.865v12.039zm0 .493v12.039H186.07v-12.039h11.865zm-12.352 12.039h-11.865v-12.039h11.865v12.039zm0 .592v12.039h-11.865v-12.039h11.865zm0 12.532v12.039h-11.865v-12.039h11.865zm0 12.532v12.039h-11.865v-12.039h11.865zm.487 0h11.865v12.039H186.07v-12.039zm11.865 12.631v12.039H186.07V168.87h11.865zm.584 0h11.865v12.039h-11.865V168.87zm12.352 0h11.865v12.039h-11.865V168.87zm12.352 0h11.865v12.039h-11.865V168.87zm0-.592v-12.039h11.865v12.039h-11.865zm12.449-12.039h11.865v12.039h-11.865v-12.039zm0-.493v-12.039h11.865v12.039h-11.865zm0-12.532v-12.039h11.865v12.039h-11.865zm0-12.631v-12.039h11.865v12.039h-11.865zm0-12.532v-12.039h11.865v12.039h-11.865zm0-12.532v-12.04h11.865v12.04h-11.865zm-.584 0h-11.865v-12.04h11.865v12.04zm-12.352 0h-11.865v-12.04h11.865v12.04zm-12.352 0h-11.865v-12.04h11.865v12.04zm-12.449 0H186.07v-12.04h11.865v12.04zm-12.352 0h-11.865v-12.04h11.865v12.04zm0 .493v12.039h-11.865v-12.039h11.865zm-12.351 12.039h-11.866v-12.039h11.866v12.039zm0 .493v12.039h-11.866v-12.039h11.866zm0 12.631v12.039h-11.866v-12.039h11.866zm0 12.532v12.039h-11.866v-12.039h11.866zm0 12.532v12.039h-11.866v-12.039h11.866zm0 12.631v12.039h-11.866V168.87h11.866zm.486 0h11.865v12.039h-11.865V168.87zm11.865 12.532v12.039h-11.865v-12.039h11.865zm.487 0h11.865v12.039H186.07v-12.039zm12.449 0h11.865v12.039h-11.865v-12.039zm12.352 0h11.865v12.039h-11.865v-12.039zm12.352 0h11.865v12.039h-11.865v-12.039zm12.449 0h11.865v12.039h-11.865v-12.039zm0-.493V168.87h11.865v12.039h-11.865zm12.352-12.039h11.865v12.039h-11.865V168.87zm0-.592v-12.039h11.865v12.039h-11.865zm0-12.532v-12.039h11.865v12.039h-11.865zm0-12.532v-12.039h11.865v12.039h-11.865zm0-12.631v-12.039h11.865v12.039h-11.865zm0-12.532v-12.039h11.865v12.039h-11.865zm0-12.532v-12.04h11.865v12.04h-11.865zm0-12.631V80.849h11.865v12.039h-11.865zm-.487 0h-11.865V80.849h11.865v12.039zm-12.449 0h-11.865V80.849h11.865v12.039zm-12.352 0h-11.865V80.849h11.865v12.039zm-12.352 0h-11.865V80.849h11.865v12.039zm-12.449 0H186.07V80.849h11.865v12.039zm-12.352 0h-11.865V80.849h11.865v12.039zm-12.351 0h-11.866V80.849h11.866v12.039zm0 .592v12.039h-11.866v-12.04h11.866zm-12.45 12.039h-11.865v-12.04h11.865v12.04zm0 .493v12.039h-11.865v-12.039h11.865zm0 12.532v12.039h-11.865v-12.039h11.865zm0 12.631v12.039h-11.865v-12.039h11.865zm0 12.532v12.039h-11.865v-12.039h11.865zm0 12.532v12.039h-11.865v-12.039h11.865zm0 12.631v12.039h-11.865V168.87h11.865zm0 12.532v12.039h-11.865v-12.039h11.865zm.584 0h11.866v12.039h-11.866v-12.039zm11.866 12.532v12.039h-11.866v-12.039h11.866zm.486 0h11.865v12.039h-11.865v-12.039zm12.352 0h11.865v12.039H186.07v-12.039zm12.449 0h11.865v12.039h-11.865v-12.039zm12.352 0h11.865v12.039h-11.865v-12.039zm12.352 0h11.865v12.039h-11.865v-12.039zm12.449 0h11.865v12.039h-11.865v-12.039zm12.352 0h11.865v12.039h-11.865v-12.039zm0-.493v-12.039h11.865v12.039h-11.865zm12.352-12.039h11.865v12.039h-11.865v-12.039zm0-.493V168.87h11.865v12.039h-11.865zm0-12.631v-12.039h11.865v12.039h-11.865zm0-12.532v-12.039h11.865v12.039h-11.865zm0-12.532v-12.039h11.865v12.039h-11.865zm0-12.631v-12.039h11.865v12.039h-11.865zm0-12.532v-12.039h11.865v12.039h-11.865zm0-12.532v-12.04h11.865v12.04h-11.865zm0-12.631V80.849h11.865v12.039h-11.865zm0-12.532v-12.04h11.865v12.04h-11.865zm-.487 0h-11.865v-12.04h11.865v12.04zm-12.352 0h-11.865v-12.04h11.865v12.04zm-12.449 0h-11.865v-12.04h11.865v12.04zm-12.352 0h-11.865v-12.04h11.865v12.04zm-12.352 0h-11.865v-12.04h11.865v12.04zm-12.449 0H186.07v-12.04h11.865v12.04zm-12.352 0h-11.865v-12.04h11.865v12.04zm-12.351 0h-11.866v-12.04h11.866v12.04zm-12.45 0h-11.865v-12.04h11.865v12.04zm0 .493v12.039h-11.865V80.849h11.865zM148.43 92.888h-11.865V80.849h11.865v12.039zm0 .592v12.039h-11.865v-12.04h11.865zm0 12.532v12.039h-11.865v-12.039h11.865zm0 12.532v12.039h-11.865v-12.039h11.865zm0 12.631v12.039h-11.865v-12.039h11.865zm0 12.532v12.039h-11.865v-12.039h11.865zm0 12.532v12.039h-11.865v-12.039h11.865zm0 12.631v12.039h-11.865V168.87h11.865zm0 12.532v12.039h-11.865v-12.039h11.865zm0 12.532v12.039h-11.865v-12.039h11.865zm.487 0h11.865v12.039h-11.865v-12.039zm11.865 12.631v12.039h-11.865v-12.039h11.865zm.584 0h11.866v12.039h-11.866v-12.039zm12.352 0h11.865v12.039h-11.865v-12.039zm12.352 0h11.865v12.039H186.07v-12.039zm12.449 0h11.865v12.039h-11.865v-12.039zm12.352 0h11.865v12.039h-11.865v-12.039zm12.352 0h11.865v12.039h-11.865v-12.039zm12.449 0h11.865v12.039h-11.865v-12.039zm12.352 0h11.865v12.039h-11.865v-12.039zm12.352 0h11.865v12.039h-11.865v-12.039zm0-.592v-12.039h11.865v12.039h-11.865zm12.449-12.039h11.865v12.039h-11.865v-12.039zm0-.493v-12.039h11.865v12.039h-11.865zm0-12.532V168.87h11.865v12.039h-11.865zm0-12.631v-12.039h11.865v12.039h-11.865zm0-12.532v-12.039h11.865v12.039h-11.865zm0-12.532v-12.039h11.865v12.039h-11.865zm0-12.631v-12.039h11.865v12.039h-11.865zm0-12.532v-12.039h11.865v12.039h-11.865zm0-12.532v-12.04h11.865v12.04h-11.865zm0-12.631V80.849h11.865v12.039h-11.865zm0-12.532v-12.04h11.865v12.04h-11.865zm0-12.532v-12.04h11.865v12.04h-11.865zm-.584 0h-11.865v-12.04h11.865v12.04zm-12.352 0h-11.865v-12.04h11.865v12.04zm-12.352 0h-11.865v-12.04h11.865v12.04zm-12.449 0h-11.865v-12.04h11.865v12.04zm-12.352 0h-11.865v-12.04h11.865v12.04zm-12.352 0h-11.865v-12.04h11.865v12.04zm-12.449 0H186.07v-12.04h11.865v12.04zm-12.352 0h-11.865v-12.04h11.865v12.04zm-12.351 0h-11.866v-12.04h11.866v12.04zm-12.45 0h-11.865v-12.04h11.865v12.04zm-12.352 0h-11.865v-12.04h11.865v12.04zm0 .493v12.039h-11.865v-12.04h11.865zm-12.351 12.039h-11.866v-12.04h11.866v12.04zm0 .493v12.039h-11.866V80.849h11.866zm0 12.63v12.04h-11.866v-12.04h11.866zm0 12.533v12.039h-11.866v-12.039h11.866zm0 12.532v12.039h-11.866v-12.039h11.866zm0 12.631v12.039h-11.866v-12.039h11.866zm0 12.532v12.039h-11.866v-12.039h11.866zm0 12.532v12.039h-11.866v-12.039h11.866zm0 12.631v12.039h-11.866V168.87h11.866zm0 12.532v12.039h-11.866v-12.039h11.866zm0 12.532v12.039h-11.866v-12.039h11.866zm0 12.631v12.039h-11.866v-12.039h11.866zm.486 0h11.865v12.039h-11.865v-12.039zm11.865 12.532v12.039h-11.865v-12.039h11.865zm.487 0h11.865v12.039h-11.865v-12.039zm12.449 0h11.866v12.039h-11.866v-12.039zm12.352 0h11.865v12.039h-11.865v-12.039zm12.352 0h11.865v12.039H186.07v-12.039zm12.449 0h11.865v12.039h-11.865v-12.039zm12.352 0h11.865v12.039h-11.865v-12.039zm12.352 0h11.865v12.039h-11.865v-12.039zm12.449 0h11.865v12.039h-11.865v-12.039zm12.352 0h11.865v12.039h-11.865v-12.039zm12.352 0h11.865v12.039h-11.865v-12.039zm12.449 0h11.865v12.039h-11.865v-12.039zm0-.493v-12.039h11.865v12.039h-11.865zm12.352-12.039h11.865v12.039h-11.865v-12.039zm0-.592v-12.039h11.865v12.039h-11.865zm0-12.532v-12.039h11.865v12.039h-11.865zm0-12.532V168.87h11.865v12.039h-11.865zm0-12.631v-12.039h11.865v12.039h-11.865zm0-12.532v-12.039h11.865v12.039h-11.865zm0-12.532v-12.039h11.865v12.039h-11.865zm0-12.631v-12.039h11.865v12.039h-11.865zm0-12.532v-12.039h11.865v12.039h-11.865zm0-12.532v-12.04h11.865v12.04h-11.865zm0-12.631V80.849h11.865v12.039h-11.865zm0-12.532v-12.04h11.865v12.04h-11.865zm0-12.532v-12.04h11.865v12.04h-11.865zm0-12.631V43.154h11.865v12.039h-11.865zm-.487 0h-11.865V43.154h11.865v12.039zm-12.449 0h-11.865V43.154h11.865v12.039zm-12.352 0h-11.865V43.154h11.865v12.039zm-12.352 0h-11.865V43.154h11.865v12.039zm-12.449 0h-11.865V43.154h11.865v12.039zm-12.352 0h-11.865V43.154h11.865v12.039zm-12.352 0h-11.865V43.154h11.865v12.039zm-12.449 0H186.07V43.154h11.865v12.039zm-12.352 0h-11.865V43.154h11.865v12.039zm-12.351 0h-11.866V43.154h11.866v12.039zm-12.45 0h-11.865V43.154h11.865v12.039zm-12.352 0h-11.865V43.154h11.865v12.039zm-12.351 0h-11.866V43.154h11.866v12.039zm0 .592v12.038h-11.866V55.785h11.866zm-12.45 12.038h-11.865V55.785h11.865v12.038zm0 .494v12.039h-11.865v-12.04h11.865zm0 12.532v12.039h-11.865V80.849h11.865zm0 12.63v12.04h-11.865v-12.04h11.865zm0 12.533v12.039h-11.865v-12.039h11.865zm0 12.532v12.039h-11.865v-12.039h11.865zm0 12.631v12.039h-11.865v-12.039h11.865zm0 12.532v12.039h-11.865v-12.039h11.865zm0 12.532v12.039h-11.865v-12.039h11.865zm0 12.631v12.039h-11.865V168.87h11.865zm0 12.532v12.039h-11.865v-12.039h11.865zm0 12.532v12.039h-11.865v-12.039h11.865zm0 12.631v12.039h-11.865v-12.039h11.865zm0 12.532v12.039h-11.865v-12.039h11.865zm.584 0h11.866v12.039h-11.866v-12.039zm11.866 12.532v12.039h-11.866v-12.039h11.866zm.486 0h11.865v12.039h-11.865v-12.039zm12.352 0h11.865v12.039h-11.865v-12.039zm12.449 0h11.866v12.039h-11.866v-12.039zm12.352 0h11.865v12.039h-11.865v-12.039zm12.352 0h11.865v12.039H186.07v-12.039zm12.449 0h11.865v12.039h-11.865v-12.039zm12.352 0h11.865v12.039h-11.865v-12.039zm12.352 0h11.865v12.039h-11.865v-12.039zm12.449 0h11.865v12.039h-11.865v-12.039zm12.352 0h11.865v12.039h-11.865v-12.039zm12.352 0h11.865v12.039h-11.865v-12.039zm12.449 0h11.865v12.039h-11.865v-12.039zm12.352 0h11.865v12.039h-11.865v-12.039zm0-.493v-12.039h11.865v12.039h-11.865zm12.352-12.039h11.865v12.039h-11.865v-12.039zm0-.493v-12.039h11.865v12.039h-11.865zm0-12.631v-12.039h11.865v12.039h-11.865zm0-12.532v-12.039h11.865v12.039h-11.865zm0-12.532V168.87h11.865v12.039h-11.865zm0-12.631v-12.039h11.865v12.039h-11.865zm0-12.532v-12.039h11.865v12.039h-11.865zm0-12.532v-12.039h11.865v12.039h-11.865zm0-12.631v-12.039h11.865v12.039h-11.865zm0-12.532v-12.039h11.865v12.039h-11.865zm0-12.532v-12.04h11.865v12.04h-11.865zm0-12.631V80.849h11.865v12.039h-11.865zm0-12.532v-12.04h11.865v12.04h-11.865zm0-12.532v-12.04h11.865v12.04h-11.865zm-173.9-24.67v12.039h-11.865v-7.039a5 5 0 015-5h6.865zm-11.865 188.475h11.865v12.039h-11.865v-12.039zm185.765 12.039v-12.039h11.865v12.039h-11.865z"/></g><path fill="url(#paint3_radial)" d="M10.416 111.255c5.548 0 10.045-4.563 10.045-10.192 0-5.628-4.497-10.191-10.045-10.191S.37 95.435.37 101.063c0 5.629 4.497 10.192 10.045 10.192z"/><path fill="url(#paint4_radial)" d="M4.606 100.566c-1.82-1.136-2.275-3.729-1.015-5.753 1.225-2.024 3.71-2.77 5.53-1.633 1.82 1.136 2.275 3.728 1.015 5.752-1.26 2.06-3.745 2.77-5.53 1.634z" opacity=".5"/><path fill="url(#paint5_radial)" d="M165.194 54.374c4.234 0 7.667-3.482 7.667-7.779 0-4.296-3.433-7.779-7.667-7.779-4.235 0-7.668 3.483-7.668 7.78 0 4.296 3.433 7.779 7.668 7.779z"/><path fill="url(#paint6_radial)" d="M160.759 46.216c-1.389-.867-1.736-2.846-.775-4.39.935-1.546 2.832-2.115 4.221-1.248 1.389.868 1.737 2.846.775 4.391-.962 1.572-2.859 2.114-4.221 1.247z" opacity=".5"/><g filter="url(#filter0_diii)"><path fill="url(#paint7_linear)" d="M127.499 93.31l19.128 17.367-54.358 18.327-63.638-18.327 18.324-17.33a2.655 2.655 0 011.824-.727h76.936c.66 0 1.296.246 1.784.69z"/></g><g filter="url(#filter1_iii)"><path fill="#4392F4" d="M28.45 111.073c0-.262.212-.474.474-.474H146.47c.262 0 .474.212.474.474v19.43c0 9.096-7.374 16.47-16.47 16.47H44.92c-9.096 0-16.47-7.374-16.47-16.47v-19.43z"/></g><g filter="url(#filter2_f)"><path fill="#000" fill-opacity=".37" d="M87.99 147.238c42.245 0 76.491-.182 76.491-.406 0-.224-34.246-.405-76.49-.405-42.245 0-76.491.181-76.491.405 0 .224 34.246.406 76.49.406z"/></g><g filter="url(#filter3_dii)"><path fill="#1D559B" d="M103.219 123.579h-29.05a2.777 2.777 0 100 5.553h29.05a2.776 2.776 0 100-5.553z"/></g><g filter="url(#filter4_ii)"><path fill="#F2F1F1" d="M140.603 32.896H35.712a7.08 7.08 0 00-7.08 7.08V58.66a7.08 7.08 0 007.08 7.08h104.891a7.08 7.08 0 007.08-7.08V39.976a7.08 7.08 0 00-7.08-7.08z"/></g><g filter="url(#filter5_ii)"><path fill="#F2F1F1" d="M140.602 71.13H35.711a7.08 7.08 0 00-7.08 7.08v18.684a7.08 7.08 0 007.08 7.08h104.891a7.08 7.08 0 007.08-7.08V78.21a7.08 7.08 0 00-7.08-7.08z"/></g><g filter="url(#filter6_dii)"><path fill="#787878" d="M133.813 43.943H68.194a1.322 1.322 0 100 2.644h65.619a1.322 1.322 0 100-2.644z"/></g><g filter="url(#filter7_dii)"><path fill="#787878" d="M114.067 51.73H68.194a1.322 1.322 0 100 2.644h45.873a1.322 1.322 0 000-2.644z"/></g><g filter="url(#filter8_dii)"><path fill="#787878" d="M133.813 82.677H68.194a1.322 1.322 0 100 2.644h65.619a1.322 1.322 0 100-2.644z"/></g><g filter="url(#filter9_dii)"><path fill="#787878" d="M114.067 90.463H68.194a1.322 1.322 0 100 2.645h45.873a1.322 1.322 0 000-2.645z"/></g><path fill="#B1BFCD" d="M48.305 41.029h-.002c-4.874 0-8.825 4.009-8.825 8.954v.097c0 4.945 3.95 8.955 8.825 8.955h.002c4.874 0 8.826-4.01 8.826-8.955v-.097c0-4.945-3.952-8.954-8.826-8.954zM48.305 79.84h-.002c-4.874 0-8.825 4.01-8.825 8.955v.096c0 4.946 3.95 8.955 8.825 8.955h.002c4.874 0 8.826-4.01 8.826-8.955v-.096c0-4.946-3.952-8.955-8.826-8.955z"/><g filter="url(#filter10_i)"><path fill="url(#paint8_linear)" d="M160.059 125.756c-.05-.013-.102-.022-.139-.058-.747-.74 1.474-10.652 1.685-11.393 1.075-3.767 2.856-7.434 5.72-10.123 2.027-1.903 7.443-5.628 10.253-3.438 2.368 1.847.149 6.486-.942 8.426-1.958 3.45-4.842 6.244-7.305 9.303-1.469 1.83-2.946 3.695-4.415 5.525-.095.125-.831 1.185-1.386 1.882-.363.456-.892.54-1.457.395l-2.014-.519z"/></g><g filter="url(#filter11_i)"><path fill="url(#paint9_linear)" d="M163.278 128.774c1.201.262 2.27-.755 2.023-1.961-1.371-6.692-5.945-24.276-15.65-21.079-8.802 2.932 10.106 20.197 12.857 22.653.221.198.48.324.77.387z"/></g><path fill="#77FFE4" fill-opacity=".2" d="M152.288 109.228s11.331 15.004 11.46 18.178l-11.46-18.178zM174.228 103.703s-9.31 12.05-10.322 17.399l10.322-17.399z"/><path fill="url(#paint10_linear)" d="M151.751 125.808a2.35 2.35 0 012.339-2.572h15.635a2.348 2.348 0 012.339 2.572l-1.749 18.414a2.351 2.351 0 01-2.34 2.128H155.84a2.35 2.35 0 01-2.339-2.128l-1.75-18.414z"/><g filter="url(#filter12_i)"><path fill="url(#paint11_linear)" d="M171.886 123.236h-19.954c-.649 0-1.175.526-1.175 1.175v3.221c0 .649.526 1.175 1.175 1.175h19.954c.649 0 1.175-.526 1.175-1.175v-3.221c0-.649-.526-1.175-1.175-1.175z"/></g><defs><filter id="filter12_i" width="22.774" height="5.924" x="150.757" y="122.884" color-interpolation-filters="sRGB" filterUnits="userSpaceOnUse"><feFlood flood-opacity="0" result="BackgroundImageFix"/><feBlend in="SourceGraphic" in2="BackgroundImageFix" result="shape"/><feColorMatrix in="SourceAlpha" result="hardAlpha" values="0 0 0 0 0 0 0 0 0 0 0 0 0 0 0 0 0 0 127 0"/><feOffset dx=".47" dy="-.353"/><feGaussianBlur stdDeviation=".411"/><feComposite in2="hardAlpha" k2="-1" k3="1" operator="arithmetic"/><feColorMatrix values="0 0 0 0 0.833333 0 0 0 0 0.604343 0 0 0 0 0.0555555 0 0 0 1 0"/><feBlend in2="shape" result="effect1_innerShadow"/></filter><filter id="filter0_diii" width="121.536" height="39.924" x="26.861" y="91.735" color-interpolation-filters="sRGB" filterUnits="userSpaceOnUse"><feFlood flood-opacity="0" result="BackgroundImageFix"/><feColorMatrix in="SourceAlpha" result="hardAlpha" values="0 0 0 0 0 0 0 0 0 0 0 0 0 0 0 0 0 0 127 0"/><feOffset dy=".885"/><feGaussianBlur stdDeviation=".885"/><feColorMatrix values="0 0 0 0 0 0 0 0 0 0 0 0 0 0 0 0 0 0 0.25 0"/><feBlend in2="BackgroundImageFix" result="effect1_dropShadow"/><feBlend in="SourceGraphic" in2="effect1_dropShadow" result="shape"/><feColorMatrix in="SourceAlpha" result="hardAlpha" values="0 0 0 0 0 0 0 0 0 0 0 0 0 0 0 0 0 0 127 0"/><feOffset dy="-.531"/><feGaussianBlur stdDeviation=".531"/><feComposite in2="hardAlpha" k2="-1" k3="1" operator="arithmetic"/><feColorMatrix values="0 0 0 0 0.089132 0 0 0 0 0.328429 0 0 0 0 0.629167 0 0 0 1 0"/><feBlend in2="shape" result="effect2_innerShadow"/><feColorMatrix in="SourceAlpha" result="hardAlpha" values="0 0 0 0 0 0 0 0 0 0 0 0 0 0 0 0 0 0 127 0"/><feOffset dy=".973"/><feGaussianBlur stdDeviation=".487"/><feComposite in2="hardAlpha" k2="-1" k3="1" operator="arithmetic"/><feColorMatrix values="0 0 0 0 0.641667 0 0 0 0 0.8495 0 0 0 0 1 0 0 0 1 0"/><feBlend in2="effect2_innerShadow" result="effect3_innerShadow"/><feColorMatrix in="SourceAlpha" result="hardAlpha" values="0 0 0 0 0 0 0 0 0 0 0 0 0 0 0 0 0 0 127 0"/><feOffset dx="-.885"/><feGaussianBlur stdDeviation=".442"/><feComposite in2="hardAlpha" k2="-1" k3="1" operator="arithmetic"/><feColorMatrix values="0 0 0 0 0.241667 0 0 0 0 0.6815 0 0 0 0 1 0 0 0 1 0"/><feBlend in2="effect3_innerShadow" result="effect4_innerShadow"/></filter><filter id="filter2_f" width="156.224" height="4.054" x="9.878" y="144.805" color-interpolation-filters="sRGB" filterUnits="userSpaceOnUse"><feFlood flood-opacity="0" result="BackgroundImageFix"/><feBlend in="SourceGraphic" in2="BackgroundImageFix" result="shape"/><feGaussianBlur result="effect1_foregroundBlur" stdDeviation=".811"/></filter><filter id="filter3_dii" width="38.143" height="9.093" x="69.623" y="122.694" color-interpolation-filters="sRGB" filterUnits="userSpaceOnUse"><feFlood flood-opacity="0" result="BackgroundImageFix"/><feColorMatrix in="SourceAlpha" result="hardAlpha" values="0 0 0 0 0 0 0 0 0 0 0 0 0 0 0 0 0 0 127 0"/><feOffset dy=".885"/><feGaussianBlur stdDeviation=".885"/><feColorMatrix values="0 0 0 0 0 0 0 0 0 0 0 0 0 0 0 0 0 0 0.25 0"/><feBlend in2="BackgroundImageFix" result="effect1_dropShadow"/><feBlend in="SourceGraphic" in2="effect1_dropShadow" result="shape"/><feColorMatrix in="SourceAlpha" result="hardAlpha" values="0 0 0 0 0 0 0 0 0 0 0 0 0 0 0 0 0 0 127 0"/><feOffset dy="-.531"/><feGaussianBlur stdDeviation=".531"/><feComposite in2="hardAlpha" k2="-1" k3="1" operator="arithmetic"/><feColorMatrix values="0 0 0 0 0.0102778 0 0 0 0 0.142747 0 0 0 0 0.308333 0 0 0 1 0"/><feBlend in2="shape" result="effect2_innerShadow"/><feColorMatrix in="SourceAlpha" result="hardAlpha" values="0 0 0 0 0 0 0 0 0 0 0 0 0 0 0 0 0 0 127 0"/><feOffset dy=".973"/><feGaussianBlur stdDeviation=".487"/><feComposite in2="hardAlpha" k2="-1" k3="1" operator="arithmetic"/><feColorMatrix values="0 0 0 0 0.325 0 0 0 0 0.676 0 0 0 0 1 0 0 0 1 0"/><feBlend in2="effect2_innerShadow" result="effect3_innerShadow"/></filter><filter id="filter4_ii" width="120.113" height="33.994" x="28.455" y="32.719" color-interpolation-filters="sRGB" filterUnits="userSpaceOnUse"><feFlood flood-opacity="0" result="BackgroundImageFix"/><feBlend in="SourceGraphic" in2="BackgroundImageFix" result="shape"/><feColorMatrix in="SourceAlpha" result="hardAlpha" values="0 0 0 0 0 0 0 0 0 0 0 0 0 0 0 0 0 0 127 0"/><feOffset dx=".885" dy=".973"/><feGaussianBlur stdDeviation=".531"/><feComposite in2="hardAlpha" k2="-1" k3="1" operator="arithmetic"/><feColorMatrix values="0 0 0 0 1 0 0 0 0 1 0 0 0 0 1 0 0 0 1 0"/><feBlend in2="shape" result="effect1_innerShadow"/><feColorMatrix in="SourceAlpha" result="hardAlpha" values="0 0 0 0 0 0 0 0 0 0 0 0 0 0 0 0 0 0 127 0"/><feOffset dx="-.885" dy="-.531"/><feGaussianBlur stdDeviation=".088"/><feComposite in2="hardAlpha" k2="-1" k3="1" operator="arithmetic"/><feColorMatrix values="0 0 0 0 0.833333 0 0 0 0 0.833333 0 0 0 0 0.833333 0 0 0 1 0"/><feBlend in2="effect1_innerShadow" result="effect2_innerShadow"/></filter><filter id="filter5_ii" width="120.113" height="33.994" x="28.454" y="70.953" color-interpolation-filters="sRGB" filterUnits="userSpaceOnUse"><feFlood flood-opacity="0" result="BackgroundImageFix"/><feBlend in="SourceGraphic" in2="BackgroundImageFix" result="shape"/><feColorMatrix in="SourceAlpha" result="hardAlpha" values="0 0 0 0 0 0 0 0 0 0 0 0 0 0 0 0 0 0 127 0"/><feOffset dx=".885" dy=".973"/><feGaussianBlur stdDeviation=".531"/><feComposite in2="hardAlpha" k2="-1" k3="1" operator="arithmetic"/><feColorMatrix values="0 0 0 0 1 0 0 0 0 1 0 0 0 0 1 0 0 0 1 0"/><feBlend in2="shape" result="effect1_innerShadow"/><feColorMatrix in="SourceAlpha" result="hardAlpha" values="0 0 0 0 0 0 0 0 0 0 0 0 0 0 0 0 0 0 127 0"/><feOffset dx="-.885" dy="-.531"/><feGaussianBlur stdDeviation=".088"/><feComposite in2="hardAlpha" k2="-1" k3="1" operator="arithmetic"/><feColorMatrix values="0 0 0 0 0.833333 0 0 0 0 0.833333 0 0 0 0 0.833333 0 0 0 1 0"/><feBlend in2="effect1_innerShadow" result="effect2_innerShadow"/></filter><filter id="filter6_dii" width="71.803" height="6.184" x="65.102" y="43.058" color-interpolation-filters="sRGB" filterUnits="userSpaceOnUse"><feFlood flood-opacity="0" result="BackgroundImageFix"/><feColorMatrix in="SourceAlpha" result="hardAlpha" values="0 0 0 0 0 0 0 0 0 0 0 0 0 0 0 0 0 0 127 0"/><feOffset dy=".885"/><feGaussianBlur stdDeviation=".885"/><feColorMatrix values="0 0 0 0 0 0 0 0 0 0 0 0 0 0 0 0 0 0 0.25 0"/><feBlend in2="BackgroundImageFix" result="effect1_dropShadow"/><feBlend in="SourceGraphic" in2="effect1_dropShadow" result="shape"/><feColorMatrix in="SourceAlpha" result="hardAlpha" values="0 0 0 0 0 0 0 0 0 0 0 0 0 0 0 0 0 0 127 0"/><feOffset dy=".442"/><feGaussianBlur stdDeviation=".133"/><feComposite in2="hardAlpha" k2="-1" k3="1" operator="arithmetic"/><feColorMatrix values="0 0 0 0 0.7875 0 0 0 0 0.7875 0 0 0 0 0.7875 0 0 0 1 0"/><feBlend in2="shape" result="effect2_innerShadow"/><feColorMatrix in="SourceAlpha" result="hardAlpha" values="0 0 0 0 0 0 0 0 0 0 0 0 0 0 0 0 0 0 127 0"/><feOffset dx="-.088" dy="-.354"/><feGaussianBlur stdDeviation=".088"/><feComposite in2="hardAlpha" k2="-1" k3="1" operator="arithmetic"/><feColorMatrix values="0 0 0 0 0.325 0 0 0 0 0.325 0 0 0 0 0.325 0 0 0 1 0"/><feBlend in2="effect2_innerShadow" result="effect3_innerShadow"/></filter><filter id="filter7_dii" width="52.057" height="6.184" x="65.102" y="50.845" color-interpolation-filters="sRGB" filterUnits="userSpaceOnUse"><feFlood flood-opacity="0" result="BackgroundImageFix"/><feColorMatrix in="SourceAlpha" result="hardAlpha" values="0 0 0 0 0 0 0 0 0 0 0 0 0 0 0 0 0 0 127 0"/><feOffset dy=".885"/><feGaussianBlur stdDeviation=".885"/><feColorMatrix values="0 0 0 0 0 0 0 0 0 0 0 0 0 0 0 0 0 0 0.25 0"/><feBlend in2="BackgroundImageFix" result="effect1_dropShadow"/><feBlend in="SourceGraphic" in2="effect1_dropShadow" result="shape"/><feColorMatrix in="SourceAlpha" result="hardAlpha" values="0 0 0 0 0 0 0 0 0 0 0 0 0 0 0 0 0 0 127 0"/><feOffset dy=".442"/><feGaussianBlur stdDeviation=".133"/><feComposite in2="hardAlpha" k2="-1" k3="1" operator="arithmetic"/><feColorMatrix values="0 0 0 0 0.7875 0 0 0 0 0.7875 0 0 0 0 0.7875 0 0 0 1 0"/><feBlend in2="shape" result="effect2_innerShadow"/><feColorMatrix in="SourceAlpha" result="hardAlpha" values="0 0 0 0 0 0 0 0 0 0 0 0 0 0 0 0 0 0 127 0"/><feOffset dx="-.088" dy="-.354"/><feGaussianBlur stdDeviation=".088"/><feComposite in2="hardAlpha" k2="-1" k3="1" operator="arithmetic"/><feColorMatrix values="0 0 0 0 0.325 0 0 0 0 0.325 0 0 0 0 0.325 0 0 0 1 0"/><feBlend in2="effect2_innerShadow" result="effect3_innerShadow"/></filter><filter id="filter8_dii" width="70.034" height="4.592" x="65.987" y="82.499" color-interpolation-filters="sRGB" filterUnits="userSpaceOnUse"><feFlood flood-opacity="0" result="BackgroundImageFix"/><feColorMatrix in="SourceAlpha" result="hardAlpha" values="0 0 0 0 0 0 0 0 0 0 0 0 0 0 0 0 0 0 127 0"/><feOffset dy=".885"/><feGaussianBlur stdDeviation=".442"/><feColorMatrix values="0 0 0 0 0 0 0 0 0 0 0 0 0 0 0 0 0 0 0.25 0"/><feBlend in2="BackgroundImageFix" result="effect1_dropShadow"/><feBlend in="SourceGraphic" in2="effect1_dropShadow" result="shape"/><feColorMatrix in="SourceAlpha" result="hardAlpha" values="0 0 0 0 0 0 0 0 0 0 0 0 0 0 0 0 0 0 127 0"/><feOffset dy=".442"/><feGaussianBlur stdDeviation=".133"/><feComposite in2="hardAlpha" k2="-1" k3="1" operator="arithmetic"/><feColorMatrix values="0 0 0 0 0.7875 0 0 0 0 0.7875 0 0 0 0 0.7875 0 0 0 1 0"/><feBlend in2="shape" result="effect2_innerShadow"/><feColorMatrix in="SourceAlpha" result="hardAlpha" values="0 0 0 0 0 0 0 0 0 0 0 0 0 0 0 0 0 0 127 0"/><feOffset dx="-.088" dy="-.354"/><feGaussianBlur stdDeviation=".088"/><feComposite in2="hardAlpha" k2="-1" k3="1" operator="arithmetic"/><feColorMatrix values="0 0 0 0 0.325 0 0 0 0 0.325 0 0 0 0 0.325 0 0 0 1 0"/><feBlend in2="effect2_innerShadow" result="effect3_innerShadow"/></filter><filter id="filter9_dii" width="50.287" height="4.592" x="65.987" y="90.286" color-interpolation-filters="sRGB" filterUnits="userSpaceOnUse"><feFlood flood-opacity="0" result="BackgroundImageFix"/><feColorMatrix in="SourceAlpha" result="hardAlpha" values="0 0 0 0 0 0 0 0 0 0 0 0 0 0 0 0 0 0 127 0"/><feOffset dy=".885"/><feGaussianBlur stdDeviation=".442"/><feColorMatrix values="0 0 0 0 0 0 0 0 0 0 0 0 0 0 0 0 0 0 0.25 0"/><feBlend in2="BackgroundImageFix" result="effect1_dropShadow"/><feBlend in="SourceGraphic" in2="effect1_dropShadow" result="shape"/><feColorMatrix in="SourceAlpha" result="hardAlpha" values="0 0 0 0 0 0 0 0 0 0 0 0 0 0 0 0 0 0 127 0"/><feOffset dy=".442"/><feGaussianBlur stdDeviation=".133"/><feComposite in2="hardAlpha" k2="-1" k3="1" operator="arithmetic"/><feColorMatrix values="0 0 0 0 0.7875 0 0 0 0 0.7875 0 0 0 0 0.7875 0 0 0 1 0"/><feBlend in2="shape" result="effect2_innerShadow"/><feColorMatrix in="SourceAlpha" result="hardAlpha" values="0 0 0 0 0 0 0 0 0 0 0 0 0 0 0 0 0 0 127 0"/><feOffset dx="-.088" dy="-.354"/><feGaussianBlur stdDeviation=".088"/><feComposite in2="hardAlpha" k2="-1" k3="1" operator="arithmetic"/><feColorMatrix values="0 0 0 0 0.325 0 0 0 0 0.325 0 0 0 0 0.325 0 0 0 1 0"/><feBlend in2="effect2_innerShadow" result="effect3_innerShadow"/></filter><filter id="filter10_i" width="19.989" height="26.696" x="159.767" y="99.644" color-interpolation-filters="sRGB" filterUnits="userSpaceOnUse"><feFlood flood-opacity="0" result="BackgroundImageFix"/><feBlend in="SourceGraphic" in2="BackgroundImageFix" result="shape"/><feColorMatrix in="SourceAlpha" result="hardAlpha" values="0 0 0 0 0 0 0 0 0 0 0 0 0 0 0 0 0 0 127 0"/><feOffset dx="1.127" dy="-.431"/><feGaussianBlur stdDeviation="1.469"/><feComposite in2="hardAlpha" k2="-1" k3="1" operator="arithmetic"/><feColorMatrix values="0 0 0 0 0.113056 0 0 0 0 0.616667 0 0 0 0 0.58645 0 0 0 1 0"/><feBlend in2="shape" result="effect1_innerShadow"/></filter><filter id="filter11_i" width="19.131" height="23.897" x="147.333" y="104.919" color-interpolation-filters="sRGB" filterUnits="userSpaceOnUse"><feFlood flood-opacity="0" result="BackgroundImageFix"/><feBlend in="SourceGraphic" in2="BackgroundImageFix" result="shape"/><feColorMatrix in="SourceAlpha" result="hardAlpha" values="0 0 0 0 0 0 0 0 0 0 0 0 0 0 0 0 0 0 127 0"/><feOffset dx="1.127" dy="-.431"/><feGaussianBlur stdDeviation="1.469"/><feComposite in2="hardAlpha" k2="-1" k3="1" operator="arithmetic"/><feColorMatrix values="0 0 0 0 0.0996528 0 0 0 0 0.683333 0 0 0 0 0.555806 0 0 0 1 0"/><feBlend in2="shape" result="effect1_innerShadow"/></filter><filter id="filter1_iii" width="119.268" height="37.688" x="27.677" y="110.136" color-interpolation-filters="sRGB" filterUnits="userSpaceOnUse"><feFlood flood-opacity="0" result="BackgroundImageFix"/><feBlend in="SourceGraphic" in2="BackgroundImageFix" result="shape"/><feColorMatrix in="SourceAlpha" result="hardAlpha" values="0 0 0 0 0 0 0 0 0 0 0 0 0 0 0 0 0 0 127 0"/><feOffset dy="-.464"/><feGaussianBlur stdDeviation=".464"/><feComposite in2="hardAlpha" k2="-1" k3="1" operator="arithmetic"/><feColorMatrix values="0 0 0 0 0.089132 0 0 0 0 0.328429 0 0 0 0 0.629167 0 0 0 1 0"/><feBlend in2="shape" result="effect1_innerShadow"/><feColorMatrix in="SourceAlpha" result="hardAlpha" values="0 0 0 0 0 0 0 0 0 0 0 0 0 0 0 0 0 0 127 0"/><feOffset dy=".85"/><feGaussianBlur stdDeviation=".425"/><feComposite in2="hardAlpha" k2="-1" k3="1" operator="arithmetic"/><feColorMatrix values="0 0 0 0 0.641667 0 0 0 0 0.8495 0 0 0 0 1 0 0 0 1 0"/><feBlend in2="effect1_innerShadow" result="effect2_innerShadow"/><feColorMatrix in="SourceAlpha" result="hardAlpha" values="0 0 0 0 0 0 0 0 0 0 0 0 0 0 0 0 0 0 127 0"/><feOffset dx="-.773"/><feGaussianBlur stdDeviation=".386"/><feComposite in2="hardAlpha" k2="-1" k3="1" operator="arithmetic"/><feColorMatrix values="0 0 0 0 0 0 0 0 0 0 0 0 0 0 0 0 0 0 0.25 0"/><feBlend in2="effect2_innerShadow" result="effect3_innerShadow"/></filter><linearGradient id="paint0_linear" x1="90.599" x2="90.599" y1="0" y2="159.654" gradientUnits="userSpaceOnUse"><stop stop-color="#B5EFFF"/><stop offset="1" stop-color="#E7F8FE"/></linearGradient><linearGradient id="paint11_linear" x1="173.061" x2="152.348" y1="126.903" y2="126.903" gradientUnits="userSpaceOnUse"><stop offset=".099" stop-color="#FFEEC5"/><stop offset=".607" stop-color="#FCBD27"/><stop offset=".984" stop-color="#EFB222"/></linearGradient><linearGradient id="paint2_linear" x1="89.604" x2="89.604" y1="0" y2="158.721" gradientUnits="userSpaceOnUse"><stop stop-color="#B5EFFF"/><stop offset="1" stop-color="#EDFBFF"/></linearGradient><linearGradient id="paint10_linear" x1="172.309" x2="152.991" y1="138.452" y2="138.452" gradientUnits="userSpaceOnUse"><stop offset=".099" stop-color="#FFEEC5"/><stop offset=".607" stop-color="#FACD63"/><stop offset=".839" stop-color="#EAAF23"/><stop offset=".984" stop-color="#EDB52F"/></linearGradient><linearGradient id="paint9_linear" x1="172.018" x2="158.966" y1="107.914" y2="129.578" gradientUnits="userSpaceOnUse"><stop stop-color="#B7FDEF"/><stop offset=".682" stop-color="#09B794"/><stop offset=".969" stop-color="#7EE0CC"/></linearGradient><linearGradient id="paint8_linear" x1="181.363" x2="160.085" y1="100.486" y2="119.321" gradientUnits="userSpaceOnUse"><stop stop-color="#BAFFF1" stop-opacity=".26"/><stop offset=".682" stop-color="#4DC7AE"/><stop offset=".969" stop-color="#06896F"/></linearGradient><linearGradient id="paint1_linear" x1="89.604" x2="89.604" y1="0" y2="158.721" gradientUnits="userSpaceOnUse"><stop stop-color="#B5EFFF"/><stop offset="1" stop-color="#EDFBFF"/></linearGradient><linearGradient id="paint7_linear" x1="87.629" x2="87.629" y1="92.62" y2="115.285" gradientUnits="userSpaceOnUse"><stop stop-color="#448EEB"/><stop offset="1" stop-color="#0048A2"/></linearGradient><radialGradient id="paint5_radial" cx="0" cy="0" r="1" gradientTransform="rotate(-15.388 241.595 -576.15) scale(14.6359 14.8196)" gradientUnits="userSpaceOnUse"><stop stop-color="#E6C6FF"/><stop offset=".188" stop-color="#C07DF5"/><stop offset=".318" stop-color="#BE6FFC"/><stop offset=".49" stop-color="#B56AF0"/><stop offset=".651" stop-color="#A745F4"/><stop offset=".948" stop-color="#9F3DED"/></radialGradient><radialGradient id="paint4_radial" cx="0" cy="0" r="1" gradientTransform="matrix(-2.21627 3.61408 -3.27008 -2.00532 6.837 96.903)" gradientUnits="userSpaceOnUse"><stop stop-color="#fff"/><stop offset=".694" stop-color="#fff" stop-opacity="0"/></radialGradient><radialGradient id="paint3_radial" cx="0" cy="0" r="1" gradientTransform="matrix(18.48787 -5.08831 5.15216 18.71984 5.638 96.948)" gradientUnits="userSpaceOnUse"><stop stop-color="#FFF1CF"/><stop offset=".188" stop-color="#FFE4A2"/><stop offset=".318" stop-color="#FFD364"/><stop offset=".49" stop-color="#FFD364"/><stop offset=".651" stop-color="#FFC73A"/><stop offset=".948" stop-color="#D09500"/></radialGradient><radialGradient id="paint6_radial" cx="0" cy="0" r="1" gradientTransform="rotate(121.518 69.077 67.185) scale(3.23588 2.92788)" gradientUnits="userSpaceOnUse"><stop stop-color="#fff"/><stop offset=".694" stop-color="#fff" stop-opacity="0"/></radialGradient></defs></svg>