<svg xmlns="http://www.w3.org/2000/svg" width="151" height="142" fill="none" viewBox="0 0 151 142"><mask id="fs-i27s0mclha" width="142" height="142" x="4" y="0" maskUnits="userSpaceOnUse"><path fill="url(#paint0_linear)" d="M74.73 141.246c39.004 0 70.623-31.619 70.623-70.623C145.353 31.619 113.734 0 74.73 0 35.726 0 4.107 31.619 4.107 70.623c0 39.004 31.62 70.623 70.623 70.623z"/></mask><g mask="url(#fs-i27s0mclha)"><path fill="url(#paint1_linear)" d="M73.837 140.421c38.999 0 70.614-31.434 70.614-70.21C144.451 31.433 112.836 0 73.837 0c-39 0-70.614 31.434-70.614 70.21 0 38.777 31.615 70.211 70.614 70.211z"/><path fill="#fff" d="M97.715 37.742a4.423 4.423 0 00-4.424 4.424v173.931h178.355V37.742H97.715zM271.122 48.83h-10.65V38.18h10.65v10.65zm-88.435 66.698v-10.651h10.651v10.651h-10.651zm10.651.524v10.65h-10.651v-10.65h10.651zm-11.087-.524H171.6v-10.651h10.651v10.651zm0 .524v10.65H171.6v-10.65h10.651zm-11.175 10.65h-10.651v-10.65h10.651v10.65zm0 .437v10.651h-10.651v-10.651h10.651zm.524 0h10.651v10.651H171.6v-10.651zm10.651 11.087v10.651H171.6v-10.651h10.651zm.436 0h10.651v10.651h-10.651v-10.651zm0-.436v-10.651h10.651v10.651h-10.651zm11.087-10.651h10.651v10.651h-10.651v-10.651zm0-.437v-10.65h10.651v10.65h-10.651zm0-11.174v-10.651h10.651v10.651h-10.651zm0-11.087V93.789h10.651v10.651h-10.651zm-.436 0h-10.651V93.789h10.651v10.651zm-11.087 0H171.6V93.789h10.651v10.651zm-11.175 0h-10.651V93.789h10.651v10.651zm0 .436v10.651h-10.651v-10.651h10.651zm-11.087 10.651h-10.651v-10.651h10.651v10.651zm0 .524v10.65h-10.651v-10.65h10.651zm0 11.087v10.651h-10.651v-10.651h10.651zm0 11.087v10.651h-10.651v-10.651h10.651zm.436 0h10.651v10.651h-10.651v-10.651zm10.651 11.174v10.651h-10.651V149.4h10.651zm.524 0h10.651v10.651H171.6V149.4zm11.087 0h10.651v10.651h-10.651V149.4zm11.087 0h10.651v10.651h-10.651V149.4zm0-.523v-10.651h10.651v10.651h-10.651zm11.175-10.651h10.65v10.651h-10.65v-10.651zm0-.436v-10.651h10.65v10.651h-10.65zm0-11.088v-10.65h10.65v10.65h-10.65zm0-11.174v-10.651h10.65v10.651h-10.65zm0-11.087V93.789h10.65v10.651h-10.65zm0-11.087V82.702h10.65v10.65h-10.65zm-.524 0h-10.651V82.702h10.651v10.65zm-11.087 0h-10.651V82.702h10.651v10.65zm-11.087 0H171.6V82.702h10.651v10.65zm-11.175 0h-10.651V82.702h10.651v10.65zm-11.087 0h-10.651V82.702h10.651v10.65zm0 .436v10.651h-10.651V93.789h10.651zm-11.087 10.651h-10.651V93.789h10.651v10.651zm0 .436v10.651h-10.651v-10.651h10.651zm0 11.175v10.65h-10.651v-10.65h10.651zm0 11.087v10.651h-10.651v-10.651h10.651zm0 11.087v10.651h-10.651v-10.651h10.651zm0 11.174v10.651h-10.651V149.4h10.651zm.436 0h10.651v10.651h-10.651V149.4zm10.651 11.088v10.65h-10.651v-10.65h10.651zm.436 0h10.651v10.65h-10.651v-10.65zm11.175 0h10.651v10.65H171.6v-10.65zm11.087 0h10.651v10.65h-10.651v-10.65zm11.087 0h10.651v10.65h-10.651v-10.65zm11.175 0h10.65v10.65h-10.65v-10.65zm0-.437V149.4h10.65v10.651h-10.65zm11.087-10.651h10.651v10.651h-10.651V149.4zm0-.523v-10.651h10.651v10.651h-10.651zm0-11.087v-10.651h10.651v10.651h-10.651zm0-11.088v-10.65h10.651v10.65h-10.651zm0-11.174v-10.651h10.651v10.651h-10.651zm0-11.087V93.789h10.651v10.651h-10.651zm0-11.087V82.702h10.651v10.65h-10.651zm0-11.175v-10.65h10.651v10.65h-10.651zm-.437 0h-10.65v-10.65h10.65v10.65zm-11.174 0h-10.651v-10.65h10.651v10.65zm-11.087 0h-10.651v-10.65h10.651v10.65zm-11.087 0H171.6v-10.65h10.651v10.65zm-11.175 0h-10.651v-10.65h10.651v10.65zm-11.087 0h-10.651v-10.65h10.651v10.65zm-11.087 0h-10.651v-10.65h10.651v10.65zm0 .524v10.65h-10.651v-10.65h10.651zm-11.175 10.65h-10.65v-10.65h10.65v10.65zm0 .437v10.651h-10.65V93.789h10.65zm0 11.087v10.651h-10.65v-10.651h10.65zm0 11.175v10.65h-10.65v-10.65h10.65zm0 11.087v10.651h-10.65v-10.651h10.65zm0 11.087v10.651h-10.65v-10.651h10.65zm0 11.174v10.651h-10.65V149.4h10.65zm0 11.088v10.65h-10.65v-10.65h10.65zm.524 0h10.651v10.65h-10.651v-10.65zm10.651 11.087v10.651h-10.651v-10.651h10.651zm.436 0h10.651v10.651h-10.651v-10.651zm11.087 0h10.651v10.651h-10.651v-10.651zm11.175 0h10.651v10.651H171.6v-10.651zm11.087 0h10.651v10.651h-10.651v-10.651zm11.087 0h10.651v10.651h-10.651v-10.651zm11.175 0h10.65v10.651h-10.65v-10.651zm11.087 0h10.651v10.651h-10.651v-10.651zm0-.437v-10.65h10.651v10.65h-10.651zm11.087-10.65h10.651v10.65h-10.651v-10.65zm0-.437V149.4h10.651v10.651h-10.651zm0-11.174v-10.651h10.651v10.651h-10.651zm0-11.087v-10.651h10.651v10.651h-10.651zm0-11.088v-10.65h10.651v10.65h-10.651zm0-11.174v-10.651h10.651v10.651h-10.651zm0-11.087V93.789h10.651v10.651h-10.651zm0-11.087V82.702h10.651v10.65h-10.651zm0-11.175v-10.65h10.651v10.65h-10.651zm0-11.087V60.44h10.651v10.65h-10.651zm-.436 0h-10.651V60.44h10.651v10.65zm-11.088 0h-10.65V60.44h10.65v10.65zm-11.174 0h-10.651V60.44h10.651v10.65zm-11.087 0h-10.651V60.44h10.651v10.65zm-11.087 0H171.6V60.44h10.651v10.65zm-11.175 0h-10.651V60.44h10.651v10.65zm-11.087 0h-10.651V60.44h10.651v10.65zm-11.087 0h-10.651V60.44h10.651v10.65zm-11.175 0h-10.65V60.44h10.65v10.65zm0 .436v10.651h-10.65v-10.65h10.65zm-11.087 10.65h-10.651v-10.65h10.651v10.65zm0 .524v10.65h-10.651v-10.65h10.651zm0 11.087v10.651h-10.651V93.789h10.651zm0 11.087v10.651h-10.651v-10.651h10.651zm0 11.175v10.65h-10.651v-10.65h10.651zm0 11.087v10.651h-10.651v-10.651h10.651zm0 11.087v10.651h-10.651v-10.651h10.651zm0 11.174v10.651h-10.651v-10.651h10.651zm0 11.088v10.65h-10.651v-10.65h10.651zm0 11.087v10.651h-10.651v-10.651h10.651zm.437 0h10.65v10.651h-10.65v-10.651zm10.65 11.174v10.651h-10.65v-10.651h10.65zm.524 0h10.651v10.651h-10.651v-10.651zm11.087 0h10.651v10.651h-10.651v-10.651zm11.087 0h10.651v10.651h-10.651v-10.651zm11.175 0h10.651v10.651H171.6v-10.651zm11.087 0h10.651v10.651h-10.651v-10.651zm11.087 0h10.651v10.651h-10.651v-10.651zm11.175 0h10.65v10.651h-10.65v-10.651zm11.087 0h10.651v10.651h-10.651v-10.651zm11.087 0h10.651v10.651h-10.651v-10.651zm0-.523v-10.651h10.651v10.651h-10.651zm11.174-10.651h10.651v10.651h-10.651v-10.651zm0-.437v-10.65h10.651v10.65h-10.651zm0-11.087v-10.651h10.651v10.651h-10.651zm0-11.174v-10.651h10.651v10.651h-10.651zm0-11.087v-10.651h10.651v10.651h-10.651zm0-11.088v-10.65h10.651v10.65h-10.651zm0-11.174v-10.651h10.651v10.651h-10.651zm0-11.087V93.789h10.651v10.651h-10.651zm0-11.087V82.702h10.651v10.65h-10.651zm0-11.175v-10.65h10.651v10.65h-10.651zm0-11.087V60.44h10.651v10.65h-10.651zm0-11.087v-10.65h10.651v10.65h-10.651zm-.523 0h-10.651v-10.65h10.651v10.65zm-11.087 0h-10.651v-10.65h10.651v10.65zm-11.088 0h-10.65v-10.65h10.65v10.65zm-11.174 0h-10.651v-10.65h10.651v10.65zm-11.087 0h-10.651v-10.65h10.651v10.65zm-11.087 0H171.6v-10.65h10.651v10.65zm-11.175 0h-10.651v-10.65h10.651v10.65zm-11.087 0h-10.651v-10.65h10.651v10.65zm-11.087 0h-10.651v-10.65h10.651v10.65zm-11.175 0h-10.65v-10.65h10.65v10.65zm-11.087 0h-10.651v-10.65h10.651v10.65zm0 .436v10.65h-10.651V60.44h10.651zm-11.087 10.65h-10.651V60.44h10.651v10.65zm0 .437v10.651h-10.651v-10.65h10.651zm0 11.175v10.65h-10.651v-10.65h10.651zm0 11.087v10.651h-10.651V93.789h10.651zm0 11.087v10.651h-10.651v-10.651h10.651zm0 11.175v10.65h-10.651v-10.65h10.651zm0 11.087v10.651h-10.651v-10.651h10.651zm0 11.087v10.651h-10.651v-10.651h10.651zm0 11.174v10.651h-10.651v-10.651h10.651zm0 11.088v10.65h-10.651v-10.65h10.651zm0 11.087v10.651h-10.651v-10.651h10.651zm0 11.174v10.651h-10.651v-10.651h10.651zm.436 0h10.651v10.651h-10.651v-10.651zm10.651 11.087v10.651h-10.651v-10.651h10.651zm.437 0h10.65v10.651h-10.65v-10.651zm11.174 0h10.651v10.651h-10.651v-10.651zm11.087 0h10.651v10.651h-10.651v-10.651zm11.087 0h10.651v10.651h-10.651v-10.651zm11.175 0h10.651v10.651H171.6v-10.651zm11.087 0h10.651v10.651h-10.651v-10.651zm11.087 0h10.651v10.651h-10.651v-10.651zm11.175 0h10.65v10.651h-10.65v-10.651zm11.087 0h10.651v10.651h-10.651v-10.651zm11.087 0h10.651v10.651h-10.651v-10.651zm11.174 0h10.651v10.651h-10.651v-10.651zm0-.436v-10.651h10.651v10.651h-10.651zm11.088-10.651h10.65v10.651h-10.65v-10.651zm0-.523v-10.651h10.65v10.651h-10.65zm0-11.088v-10.65h10.65v10.65h-10.65zm0-11.087v-10.651h10.65v10.651h-10.65zm0-11.174v-10.651h10.65v10.651h-10.65zm0-11.087v-10.651h10.65v10.651h-10.65zm0-11.088v-10.65h10.65v10.65h-10.65zm0-11.174v-10.651h10.65v10.651h-10.65zm0-11.087V93.789h10.65v10.651h-10.65zm0-11.087V82.702h10.65v10.65h-10.65zm0-11.175v-10.65h10.65v10.65h-10.65zm0-11.087V60.44h10.65v10.65h-10.65zm0-11.087v-10.65h10.65v10.65h-10.65zm0-11.175V38.18h10.65v10.65h-10.65zm-.437 0h-10.651V38.18h10.651v10.65zm-11.174 0h-10.651V38.18h10.651v10.65zm-11.087 0h-10.651V38.18h10.651v10.65zm-11.088 0h-10.65V38.18h10.65v10.65zm-11.174 0h-10.651V38.18h10.651v10.65zm-11.087 0h-10.651V38.18h10.651v10.65zm-11.087 0H171.6V38.18h10.651v10.65zm-11.175 0h-10.651V38.18h10.651v10.65zm-11.087 0h-10.651V38.18h10.651v10.65zm-11.087 0h-10.651V38.18h10.651v10.65zm-11.175 0h-10.65V38.18h10.65v10.65zm-11.087 0h-10.651V38.18h10.651v10.65zm-11.087 0h-10.651V38.18h10.651v10.65zm0 .524v10.65h-10.651v-10.65h10.651zm-11.175 10.65h-10.65v-10.65h10.65v10.65zm0 .437v10.65h-10.65V60.44h10.65zm0 11.087v10.651h-10.65v-10.65h10.65zm0 11.175v10.65h-10.65v-10.65h10.65zm0 11.087v10.651h-10.65V93.789h10.65zm0 11.087v10.651h-10.65v-10.651h10.65zm0 11.175v10.65h-10.65v-10.65h10.65zm0 11.087v10.651h-10.65v-10.651h10.65zm0 11.087v10.651h-10.65v-10.651h10.65zm0 11.174v10.651h-10.65v-10.651h10.65zm0 11.088v10.65h-10.65v-10.65h10.65zm0 11.087v10.651h-10.65v-10.651h10.65zm0 11.174v10.651h-10.65v-10.651h10.65zm0 11.087v10.651h-10.65v-10.651h10.65zm.524 0h10.651v10.651h-10.651v-10.651zm10.651 11.088v10.65h-10.651v-10.65h10.651zm.436 0h10.651v10.65h-10.651v-10.65zm11.088 0h10.65v10.65h-10.65v-10.65zm11.174 0h10.651v10.65h-10.651v-10.65zm11.087 0h10.651v10.65h-10.651v-10.65zm11.087 0h10.651v10.65h-10.651v-10.65zm11.175 0h10.651v10.65H171.6v-10.65zm11.087 0h10.651v10.65h-10.651v-10.65zm11.087 0h10.651v10.65h-10.651v-10.65zm11.175 0h10.65v10.65h-10.65v-10.65zm11.087 0h10.651v10.65h-10.651v-10.65zm11.087 0h10.651v10.65h-10.651v-10.65zm11.174 0h10.651v10.65h-10.651v-10.65zm11.088 0h10.65v10.65h-10.65v-10.65zm0-.437v-10.651h10.65v10.651h-10.65zm11.087-10.651h10.65v10.651h-10.65v-10.651zm0-.436v-10.651h10.65v10.651h-10.65zm0-11.174v-10.651h10.65v10.651h-10.65zm0-11.088v-10.65h10.65v10.65h-10.65zm0-11.087v-10.651h10.65v10.651h-10.65zm0-11.174v-10.651h10.65v10.651h-10.65zm0-11.087v-10.651h10.65v10.651h-10.65zm0-11.088v-10.65h10.65v10.65h-10.65zm0-11.174v-10.651h10.65v10.651h-10.65zm0-11.087V93.789h10.65v10.651h-10.65zm0-11.087V82.702h10.65v10.65h-10.65zm0-11.175v-10.65h10.65v10.65h-10.65zm0-11.087V60.44h10.65v10.65h-10.65zm0-11.087v-10.65h10.65v10.65h-10.65zM104.378 38.179v10.65h-10.65v-6.227a4.423 4.423 0 014.423-4.423h6.227zm-10.65 166.744h10.65v10.65h-10.65v-10.65zm166.744 10.65v-10.65h10.65v10.65h-10.65z"/></g><path fill="url(#paint2_radial)" d="M13.873 111.698a9.017 9.017 0 100-18.034 9.017 9.017 0 000 18.034z"/><path fill="url(#paint3_radial)" d="M8.658 102.241c-1.634-1.005-2.042-3.298-.911-5.09 1.1-1.79 3.33-2.45 4.963-1.444 1.634 1.005 2.043 3.299.912 5.089-1.131 1.822-3.362 2.451-4.964 1.445z" opacity=".5"/><path fill="url(#paint4_radial)" d="M132.818 41.872a6.882 6.882 0 100-13.764 6.882 6.882 0 000 13.764z"/><path fill="url(#paint5_radial)" d="M128.838 34.654c-1.247-.767-1.559-2.518-.696-3.884.839-1.367 2.542-1.87 3.789-1.104 1.247.768 1.559 2.518.695 3.885-.863 1.391-2.565 1.87-3.788 1.103z" opacity=".5"/><g filter="url(#filter0_f)"><ellipse cx="69.374" cy="121.94" fill="#000" fill-opacity=".37" rx="67.671" ry=".359"/></g><g filter="url(#filter1_iii)"><path fill="#4392F4" d="M99.888 103.345l-5.5 5.223a.472.472 0 01-.327.13H37.652a2.184 2.184 0 01-2.185-2.188V23.638c0-1.21.976-2.188 2.185-2.188h64.859c1.209 0 2.185.977 2.185 2.188v74.457a.477.477 0 01-.13.326l-4.678 4.924z"/></g><g filter="url(#filter2_di)"><path fill="#054599" d="M104.694 98.303l-10.698-1.219c-1.313 0-1.842 1.137-1.686 2.485l1.973 9.078 5.433-5.162 4.978-5.182z"/></g><g filter="url(#filter3_dii)"><rect width="50.652" height="2.336" x="44.48" y="36.128" fill="#F3F3F3" rx="1.168"/></g><g filter="url(#filter4_dii)"><rect width="36.439" height="2.336" x="44.48" y="50.073" fill="#F3F3F3" rx="1.168"/></g><g filter="url(#filter5_dii)"><rect width="20.644" height="2.336" x="44.48" y="64.115" fill="#F3F3F3" rx="1.168"/></g><g filter="url(#filter6_di)"><path fill="#FFC736" fill-rule="evenodd" d="M72.207 89.562c7.765 8.362 20.495 9.342 29.355 2.597l12.088 13.016a2.158 2.158 0 003.049.119c.872-.809.92-2.175.107-3.05l-12.088-13.017c7.382-8.337 7.345-21.105-.421-29.466-8.262-8.897-22.143-9.437-31.004-1.208-8.862 8.23-9.348 22.113-1.087 31.01zm3.157-2.93c-6.637-7.147-6.246-18.299.872-24.91 7.118-6.61 18.27-6.176 24.906.97 6.636 7.147 6.246 18.3-.873 24.91-7.118 6.61-18.269 6.176-24.905-.97z" clip-rule="evenodd"/></g><g filter="url(#filter7_ii)"><path fill="#F3F3F3" d="M88.264 79.183a1.002 1.002 0 01-.777-.331 1.156 1.156 0 01-.319-.8l-.151-12.712c-.004-.33.096-.6.3-.808a1 1 0 01.769-.35l.587-.007c.33-.004.6.107.809.331.208.204.314.47.318.8l.152 12.712a1.1 1.1 0 01-.33.808c-.204.23-.46.346-.77.35l-.588.007zm.423 6.955c-.639.007-1.177-.193-1.615-.6-.418-.407-.63-.93-.638-1.57-.007-.639.193-1.157.6-1.554.429-.417.962-.63 1.601-.637.66-.008 1.199.192 1.616.6.417.386.63.899.637 1.538.008.64-.192 1.168-.6 1.585-.407.417-.94.63-1.6.638z"/></g><g filter="url(#filter8_i)"><path fill="url(#paint6_linear)" d="M131.211 100.987c-.049-.012-.101-.021-.138-.056-.762-.729 1.494-10.653 1.708-11.394 1.091-3.768 2.898-7.434 5.804-10.123 2.057-1.904 7.551-5.628 10.403-3.439 2.402 1.848.151 6.487-.957 8.427-1.985 3.45-4.912 6.244-7.411 9.303-1.491 1.83-2.988 3.695-4.479 5.525-.097.125-.852 1.197-1.417 1.894-.362.448-.887.529-1.445.388l-2.068-.525z"/></g><g filter="url(#filter9_i)"><path fill="url(#paint7_linear)" d="M134.473 104.004c1.219.263 2.305-.774 2.051-1.995-1.401-6.718-6.041-24.235-15.871-21.043-8.934 2.932 10.265 20.208 13.047 22.655.223.196.482.321.773.383z"/></g><path fill="#77FFE4" fill-opacity=".2" d="M123.329 84.46s11.496 15.004 11.627 18.178l-11.627-18.179zm22.26-5.525s-9.446 12.05-10.473 17.398l10.473-17.398z"/><path fill="url(#paint8_linear)" d="M122.785 101.043a2.35 2.35 0 012.339-2.576h15.931a2.35 2.35 0 012.339 2.576l-1.775 18.414a2.35 2.35 0 01-2.339 2.124h-12.381a2.35 2.35 0 01-2.339-2.124l-1.775-18.414z"/><g filter="url(#filter10_i)"><rect width="22.63" height="5.571" x="121.775" y="98.467" fill="url(#paint9_linear)" rx="1.175"/></g><defs><filter id="filter1_iii" width="70.002" height="88.562" x="34.694" y="20.987" color-interpolation-filters="sRGB" filterUnits="userSpaceOnUse"><feFlood flood-opacity="0" result="BackgroundImageFix"/><feBlend in="SourceGraphic" in2="BackgroundImageFix" result="shape"/><feColorMatrix in="SourceAlpha" result="hardAlpha" values="0 0 0 0 0 0 0 0 0 0 0 0 0 0 0 0 0 0 127 0"/><feOffset dy="-.464"/><feGaussianBlur stdDeviation=".464"/><feComposite in2="hardAlpha" k2="-1" k3="1" operator="arithmetic"/><feColorMatrix values="0 0 0 0 0.089132 0 0 0 0 0.328429 0 0 0 0 0.629167 0 0 0 1 0"/><feBlend in2="shape" result="effect1_innerShadow"/><feColorMatrix in="SourceAlpha" result="hardAlpha" values="0 0 0 0 0 0 0 0 0 0 0 0 0 0 0 0 0 0 127 0"/><feOffset dy=".85"/><feGaussianBlur stdDeviation=".425"/><feComposite in2="hardAlpha" k2="-1" k3="1" operator="arithmetic"/><feColorMatrix values="0 0 0 0 0.641667 0 0 0 0 0.8495 0 0 0 0 1 0 0 0 1 0"/><feBlend in2="effect1_innerShadow" result="effect2_innerShadow"/><feColorMatrix in="SourceAlpha" result="hardAlpha" values="0 0 0 0 0 0 0 0 0 0 0 0 0 0 0 0 0 0 127 0"/><feOffset dx="-.773"/><feGaussianBlur stdDeviation=".386"/><feComposite in2="hardAlpha" k2="-1" k3="1" operator="arithmetic"/><feColorMatrix values="0 0 0 0 0 0 0 0 0 0 0 0 0 0 0 0 0 0 0.25 0"/><feBlend in2="effect2_innerShadow" result="effect3_innerShadow"/></filter><filter id="filter10_i" width="23.1" height="5.924" x="121.775" y="98.115" color-interpolation-filters="sRGB" filterUnits="userSpaceOnUse"><feFlood flood-opacity="0" result="BackgroundImageFix"/><feBlend in="SourceGraphic" in2="BackgroundImageFix" result="shape"/><feColorMatrix in="SourceAlpha" result="hardAlpha" values="0 0 0 0 0 0 0 0 0 0 0 0 0 0 0 0 0 0 127 0"/><feOffset dx=".47" dy="-.353"/><feGaussianBlur stdDeviation=".411"/><feComposite in2="hardAlpha" k2="-1" k3="1" operator="arithmetic"/><feColorMatrix values="0 0 0 0 0.833333 0 0 0 0 0.604343 0 0 0 0 0.0555555 0 0 0 1 0"/><feBlend in2="shape" result="effect1_innerShadow"/></filter><filter id="filter2_di" width="12.934" height="12.306" x="91.981" y="96.694" color-interpolation-filters="sRGB" filterUnits="userSpaceOnUse"><feFlood flood-opacity="0" result="BackgroundImageFix"/><feColorMatrix in="SourceAlpha" values="0 0 0 0 0 0 0 0 0 0 0 0 0 0 0 0 0 0 127 0"/><feOffset dy=".132"/><feGaussianBlur stdDeviation=".11"/><feColorMatrix values="0 0 0 0 0 0 0 0 0 0 0 0 0 0 0 0 0 0 0.25 0"/><feBlend in2="BackgroundImageFix" result="effect1_dropShadow"/><feBlend in="SourceGraphic" in2="effect1_dropShadow" result="shape"/><feColorMatrix in="SourceAlpha" result="hardAlpha" values="0 0 0 0 0 0 0 0 0 0 0 0 0 0 0 0 0 0 127 0"/><feOffset dx="-.303" dy="-.391"/><feGaussianBlur stdDeviation=".195"/><feComposite in2="hardAlpha" k2="-1" k3="1" operator="arithmetic"/><feColorMatrix values="0 0 0 0 0.0505208 0 0 0 0 0.161469 0 0 0 0 0.404167 0 0 0 1 0"/><feBlend in2="shape" result="effect2_innerShadow"/></filter><filter id="filter3_dii" width="50.968" height="2.932" x="44.322" y="36.084" color-interpolation-filters="sRGB" filterUnits="userSpaceOnUse"><feFlood flood-opacity="0" result="BackgroundImageFix"/><feColorMatrix in="SourceAlpha" values="0 0 0 0 0 0 0 0 0 0 0 0 0 0 0 0 0 0 127 0"/><feOffset dy=".395"/><feGaussianBlur stdDeviation=".079"/><feColorMatrix values="0 0 0 0 0 0 0 0 0 0 0 0 0 0 0 0 0 0 0.25 0"/><feBlend in2="BackgroundImageFix" result="effect1_dropShadow"/><feBlend in="SourceGraphic" in2="effect1_dropShadow" result="shape"/><feColorMatrix in="SourceAlpha" result="hardAlpha" values="0 0 0 0 0 0 0 0 0 0 0 0 0 0 0 0 0 0 127 0"/><feOffset dy=".474"/><feComposite in2="hardAlpha" k2="-1" k3="1" operator="arithmetic"/><feColorMatrix values="0 0 0 0 1 0 0 0 0 1 0 0 0 0 1 0 0 0 1 0"/><feBlend in2="shape" result="effect2_innerShadow"/><feColorMatrix in="SourceAlpha" result="hardAlpha" values="0 0 0 0 0 0 0 0 0 0 0 0 0 0 0 0 0 0 127 0"/><feOffset dx="-.022" dy="-.395"/><feGaussianBlur stdDeviation=".022"/><feComposite in2="hardAlpha" k2="-1" k3="1" operator="arithmetic"/><feColorMatrix values="0 0 0 0 0.833333 0 0 0 0 0.833333 0 0 0 0 0.833333 0 0 0 1 0"/><feBlend in2="effect2_innerShadow" result="effect3_innerShadow"/></filter><filter id="filter4_dii" width="36.755" height="2.932" x="44.322" y="50.029" color-interpolation-filters="sRGB" filterUnits="userSpaceOnUse"><feFlood flood-opacity="0" result="BackgroundImageFix"/><feColorMatrix in="SourceAlpha" values="0 0 0 0 0 0 0 0 0 0 0 0 0 0 0 0 0 0 127 0"/><feOffset dy=".395"/><feGaussianBlur stdDeviation=".079"/><feColorMatrix values="0 0 0 0 0 0 0 0 0 0 0 0 0 0 0 0 0 0 0.25 0"/><feBlend in2="BackgroundImageFix" result="effect1_dropShadow"/><feBlend in="SourceGraphic" in2="effect1_dropShadow" result="shape"/><feColorMatrix in="SourceAlpha" result="hardAlpha" values="0 0 0 0 0 0 0 0 0 0 0 0 0 0 0 0 0 0 127 0"/><feOffset dy=".474"/><feComposite in2="hardAlpha" k2="-1" k3="1" operator="arithmetic"/><feColorMatrix values="0 0 0 0 1 0 0 0 0 1 0 0 0 0 1 0 0 0 1 0"/><feBlend in2="shape" result="effect2_innerShadow"/><feColorMatrix in="SourceAlpha" result="hardAlpha" values="0 0 0 0 0 0 0 0 0 0 0 0 0 0 0 0 0 0 127 0"/><feOffset dx="-.022" dy="-.395"/><feGaussianBlur stdDeviation=".022"/><feComposite in2="hardAlpha" k2="-1" k3="1" operator="arithmetic"/><feColorMatrix values="0 0 0 0 0.833333 0 0 0 0 0.833333 0 0 0 0 0.833333 0 0 0 1 0"/><feBlend in2="effect2_innerShadow" result="effect3_innerShadow"/></filter><filter id="filter5_dii" width="20.96" height="2.932" x="44.322" y="64.071" color-interpolation-filters="sRGB" filterUnits="userSpaceOnUse"><feFlood flood-opacity="0" result="BackgroundImageFix"/><feColorMatrix in="SourceAlpha" values="0 0 0 0 0 0 0 0 0 0 0 0 0 0 0 0 0 0 127 0"/><feOffset dy=".395"/><feGaussianBlur stdDeviation=".079"/><feColorMatrix values="0 0 0 0 0 0 0 0 0 0 0 0 0 0 0 0 0 0 0.25 0"/><feBlend in2="BackgroundImageFix" result="effect1_dropShadow"/><feBlend in="SourceGraphic" in2="effect1_dropShadow" result="shape"/><feColorMatrix in="SourceAlpha" result="hardAlpha" values="0 0 0 0 0 0 0 0 0 0 0 0 0 0 0 0 0 0 127 0"/><feOffset dy=".474"/><feComposite in2="hardAlpha" k2="-1" k3="1" operator="arithmetic"/><feColorMatrix values="0 0 0 0 1 0 0 0 0 1 0 0 0 0 1 0 0 0 1 0"/><feBlend in2="shape" result="effect2_innerShadow"/><feColorMatrix in="SourceAlpha" result="hardAlpha" values="0 0 0 0 0 0 0 0 0 0 0 0 0 0 0 0 0 0 127 0"/><feOffset dx="-.022" dy="-.395"/><feGaussianBlur stdDeviation=".022"/><feComposite in2="hardAlpha" k2="-1" k3="1" operator="arithmetic"/><feColorMatrix values="0 0 0 0 0.833333 0 0 0 0 0.833333 0 0 0 0 0.833333 0 0 0 1 0"/><feBlend in2="effect2_innerShadow" result="effect3_innerShadow"/></filter><filter id="filter6_di" width="62.342" height="63.729" x="61.05" y="51.925" color-interpolation-filters="sRGB" filterUnits="userSpaceOnUse"><feFlood flood-opacity="0" result="BackgroundImageFix"/><feColorMatrix in="SourceAlpha" values="0 0 0 0 0 0 0 0 0 0 0 0 0 0 0 0 0 0 127 0"/><feOffset dy="5.548"/><feGaussianBlur stdDeviation="2.08"/><feColorMatrix values="0 0 0 0 0 0 0 0 0 0 0 0 0 0 0 0 0 0 0.11 0"/><feBlend in2="BackgroundImageFix" result="effect1_dropShadow"/><feBlend in="SourceGraphic" in2="effect1_dropShadow" result="shape"/><feColorMatrix in="SourceAlpha" result="hardAlpha" values="0 0 0 0 0 0 0 0 0 0 0 0 0 0 0 0 0 0 127 0"/><feOffset dy="1.387"/><feGaussianBlur stdDeviation="1.04"/><feComposite in2="hardAlpha" k2="-1" k3="1" operator="arithmetic"/><feColorMatrix values="0 0 0 0 0.841667 0 0 0 0 0.561793 0 0 0 0 0.248993 0 0 0 1 0"/><feBlend in2="shape" result="effect2_innerShadow"/></filter><filter id="filter7_ii" width="4.734" height="22.105" x="86.181" y="64.115" color-interpolation-filters="sRGB" filterUnits="userSpaceOnUse"><feFlood flood-opacity="0" result="BackgroundImageFix"/><feBlend in="SourceGraphic" in2="BackgroundImageFix" result="shape"/><feColorMatrix in="SourceAlpha" result="hardAlpha" values="0 0 0 0 0 0 0 0 0 0 0 0 0 0 0 0 0 0 127 0"/><feOffset dy=".309"/><feGaussianBlur stdDeviation=".028"/><feComposite in2="hardAlpha" k2="-1" k3="1" operator="arithmetic"/><feColorMatrix values="0 0 0 0 1 0 0 0 0 1 0 0 0 0 1 0 0 0 1 0"/><feBlend in2="shape" result="effect1_innerShadow"/><feColorMatrix in="SourceAlpha" result="hardAlpha" values="0 0 0 0 0 0 0 0 0 0 0 0 0 0 0 0 0 0 127 0"/><feOffset dx="-.018" dy="-.29"/><feGaussianBlur stdDeviation=".018"/><feComposite in2="hardAlpha" k2="-1" k3="1" operator="arithmetic"/><feColorMatrix values="0 0 0 0 0.833333 0 0 0 0 0.833333 0 0 0 0 0.833333 0 0 0 1 0"/><feBlend in2="effect1_innerShadow" result="effect2_innerShadow"/></filter><filter id="filter8_i" width="21.313" height="31.145" x="130.458" y="72.677" color-interpolation-filters="sRGB" filterUnits="userSpaceOnUse"><feFlood flood-opacity="0" result="BackgroundImageFix"/><feBlend in="SourceGraphic" in2="BackgroundImageFix" result="shape"/><feColorMatrix in="SourceAlpha" result="hardAlpha" values="0 0 0 0 0 0 0 0 0 0 0 0 0 0 0 0 0 0 127 0"/><feOffset dx="1.127" dy="-.431"/><feGaussianBlur stdDeviation="1.469"/><feComposite in2="hardAlpha" k2="-1" k3="1" operator="arithmetic"/><feColorMatrix values="0 0 0 0 0.113056 0 0 0 0 0.616667 0 0 0 0 0.58645 0 0 0 1 0"/><feBlend in2="shape" result="effect1_innerShadow"/></filter><filter id="filter9_i" width="25.076" height="24.846" x="115.608" y="79.441" color-interpolation-filters="sRGB" filterUnits="userSpaceOnUse"><feFlood flood-opacity="0" result="BackgroundImageFix"/><feBlend in="SourceGraphic" in2="BackgroundImageFix" result="shape"/><feColorMatrix in="SourceAlpha" result="hardAlpha" values="0 0 0 0 0 0 0 0 0 0 0 0 0 0 0 0 0 0 127 0"/><feOffset dx="1.127" dy="-.431"/><feGaussianBlur stdDeviation="1.469"/><feComposite in2="hardAlpha" k2="-1" k3="1" operator="arithmetic"/><feColorMatrix values="0 0 0 0 0.0996528 0 0 0 0 0.683333 0 0 0 0 0.555806 0 0 0 1 0"/><feBlend in2="shape" result="effect1_innerShadow"/></filter><filter id="filter0_f" width="138.212" height="3.586" x=".268" y="120.147" color-interpolation-filters="sRGB" filterUnits="userSpaceOnUse"><feFlood flood-opacity="0" result="BackgroundImageFix"/><feBlend in="SourceGraphic" in2="BackgroundImageFix" result="shape"/><feGaussianBlur result="effect1_foregroundBlur" stdDeviation=".717"/></filter><linearGradient id="paint0_linear" x1="74.73" x2="74.73" y1="0" y2="141.246" gradientUnits="userSpaceOnUse"><stop stop-color="#B5EFFF"/><stop offset="1" stop-color="#E7F8FE"/></linearGradient><linearGradient id="paint1_linear" x1="73.837" x2="73.837" y1="0" y2="140.421" gradientUnits="userSpaceOnUse"><stop stop-color="#B5EFFF"/><stop offset="1" stop-color="#EDFBFF"/></linearGradient><linearGradient id="paint6_linear" x1="152.828" x2="131.514" y1="75.718" y2="94.859" gradientUnits="userSpaceOnUse"><stop stop-color="#BAFFF1" stop-opacity=".26"/><stop offset=".682" stop-color="#4DC7AE"/><stop offset=".969" stop-color="#06896F"/></linearGradient><linearGradient id="paint7_linear" x1="143.346" x2="130.384" y1="83.145" y2="104.975" gradientUnits="userSpaceOnUse"><stop stop-color="#B7FDEF"/><stop offset=".682" stop-color="#09B794"/><stop offset=".969" stop-color="#7EE0CC"/></linearGradient><linearGradient id="paint8_linear" x1="143.642" x2="124.043" y1="113.683" y2="113.683" gradientUnits="userSpaceOnUse"><stop offset=".099" stop-color="#FFEEC5"/><stop offset=".607" stop-color="#FACD63"/><stop offset=".839" stop-color="#EAAF23"/><stop offset=".984" stop-color="#EDB52F"/></linearGradient><linearGradient id="paint9_linear" x1="144.405" x2="123.39" y1="102.135" y2="102.135" gradientUnits="userSpaceOnUse"><stop offset=".099" stop-color="#FFEEC5"/><stop offset=".607" stop-color="#FCBD27"/><stop offset=".984" stop-color="#EFB222"/></linearGradient><radialGradient id="paint2_radial" cx="0" cy="0" r="1" gradientTransform="rotate(-15.177 376.493 13.552) scale(17.1946)" gradientUnits="userSpaceOnUse"><stop stop-color="#FFF1CF"/><stop offset=".188" stop-color="#FFE4A2"/><stop offset=".318" stop-color="#FFD364"/><stop offset=".49" stop-color="#FFD364"/><stop offset=".651" stop-color="#FFC73A"/><stop offset=".948" stop-color="#D09500"/></radialGradient><radialGradient id="paint3_radial" cx="0" cy="0" r="1" gradientTransform="matrix(-1.98934 3.19738 -2.91186 -1.8117 10.66 99)" gradientUnits="userSpaceOnUse"><stop stop-color="#fff"/><stop offset=".694" stop-color="#fff" stop-opacity="0"/></radialGradient><radialGradient id="paint4_radial" cx="0" cy="0" r="1" gradientTransform="rotate(-15.177 185.66 -470.08) scale(13.1241)" gradientUnits="userSpaceOnUse"><stop stop-color="#E6C6FF"/><stop offset=".188" stop-color="#C07DF5"/><stop offset=".318" stop-color="#BE6FFC"/><stop offset=".49" stop-color="#B56AF0"/><stop offset=".651" stop-color="#A745F4"/><stop offset=".948" stop-color="#9F3DED"/></radialGradient><radialGradient id="paint5_radial" cx="0" cy="0" r="1" gradientTransform="rotate(121.889 56.244 52.305) scale(2.87426 2.6176)" gradientUnits="userSpaceOnUse"><stop stop-color="#fff"/><stop offset=".694" stop-color="#fff" stop-opacity="0"/></radialGradient></defs></svg>