<svg width="132" height="110" viewBox="0 0 132 110" fill="none" xmlns="http://www.w3.org/2000/svg">
<g clip-path="url(#clip0_3024_454761)">
<path opacity="0.2" d="M66 101.77C93.61 101.77 116 79.38 116 51.77C116 24.16 93.61 1.77002 66 1.77002C38.39 1.77002 16 24.16 16 51.77C16 79.38 38.39 101.77 66 101.77Z" fill="#BEC6D2"/>
<path d="M29.0804 16.27H102.91C106.04 16.27 108.59 18.81 108.59 21.95V81.59C108.59 84.72 106.05 87.27 102.91 87.27H29.0804C25.9504 87.27 23.4004 84.73 23.4004 81.59V21.95C23.4004 18.82 25.9404 16.27 29.0804 16.27Z" fill="white" stroke="#91A1B0" stroke-width="1.2" stroke-miterlimit="10"/>
<path d="M125.011 108.71H130.501" stroke="#91A1B0" stroke-width="1.2" stroke-linecap="round" stroke-linejoin="round"/>
<path d="M95.0205 108.71H119.051" stroke="#91A1B0" stroke-width="1.2" stroke-linecap="round" stroke-linejoin="round"/>
<path d="M1.5 108.71H89.32" stroke="#91A1B0" stroke-width="1.2" stroke-linecap="round" stroke-linejoin="round"/>
<path d="M28.6303 16.9399H103.44C105.92 16.9399 107.94 18.9599 107.94 21.4399V33.2999H24.0303V21.5399C24.0303 18.9999 26.0903 16.9399 28.6303 16.9399Z" fill="#91A1B0" stroke="#91A1B0" stroke-width="0.83" stroke-linecap="round" stroke-linejoin="round"/>
<path d="M43.1505 25.1201H33.3105" stroke="white" stroke-width="1.2" stroke-miterlimit="10" stroke-linecap="round"/>
<path d="M9.40039 14.6899H15.4404" stroke="#91A1B0" stroke-width="1.2" stroke-linecap="round" stroke-linejoin="round"/>
<path d="M22.6006 0.600098V6.6501" stroke="#91A1B0" stroke-width="1.2" stroke-linecap="round" stroke-linejoin="round"/>
<path d="M11.96 4.92993L16.76 8.61993" stroke="#91A1B0" stroke-width="1.2" stroke-linecap="round" stroke-linejoin="round"/>
<path d="M103.15 98.71C113.09 98.71 121.15 90.65 121.15 80.71C121.15 70.77 113.09 62.71 103.15 62.71C93.2104 62.71 85.1504 70.77 85.1504 80.71C85.1504 90.65 93.2104 98.71 103.15 98.71Z" fill="white" stroke="#91A1B0" stroke-width="1.2" stroke-miterlimit="10"/>
<path d="M97.4303 86.4301C97.2003 86.2001 97.2003 85.8201 97.4303 85.5801L108.04 74.9701C108.27 74.7401 108.65 74.7401 108.89 74.9701C109.13 75.2001 109.12 75.5801 108.89 75.8201L98.2803 86.4301C98.0503 86.6601 97.6703 86.6601 97.4303 86.4301Z" fill="#91A1B0"/>
<path d="M108.031 86.43L97.4205 75.82C97.1905 75.59 97.1905 75.21 97.4205 74.97C97.6505 74.73 98.0306 74.74 98.2706 74.97L108.881 85.58C109.111 85.81 109.111 86.19 108.881 86.43C108.651 86.67 108.271 86.66 108.031 86.43Z" fill="#91A1B0"/>
<g opacity="0.5">
<path d="M40.9102 40.3501H34.9102C34.3602 40.3501 33.9102 40.8001 33.9102 41.3501V47.3501C33.9102 47.9001 34.3602 48.3501 34.9102 48.3501H40.9102C41.4602 48.3501 41.9102 47.9001 41.9102 47.3501V41.3501C41.9102 40.8001 41.4602 40.3501 40.9102 40.3501Z" fill="#CFD7DF"/>
<path d="M72.2202 42.8702H47.3402C47.0102 42.8702 46.7402 42.6002 46.7402 42.2702C46.7402 41.9402 47.0102 41.6702 47.3402 41.6702H72.2202C72.5502 41.6702 72.8202 41.9402 72.8202 42.2702C72.8202 42.6002 72.5502 42.8702 72.2202 42.8702Z" fill="#CFD7DF"/>
<path d="M66.0002 47.0301H47.3402C47.0102 47.0301 46.7402 46.7601 46.7402 46.4301C46.7402 46.1001 47.0102 45.8301 47.3402 45.8301H66.0002C66.3302 45.8301 66.6002 46.1001 66.6002 46.4301C66.6002 46.7601 66.3302 47.0301 66.0002 47.0301Z" fill="#CFD7DF"/>
</g>
<g opacity="0.5">
<path d="M40.9102 54.3899H34.9102C34.3602 54.3899 33.9102 54.8399 33.9102 55.3899V61.3899C33.9102 61.9399 34.3602 62.3899 34.9102 62.3899H40.9102C41.4602 62.3899 41.9102 61.9399 41.9102 61.3899V55.3899C41.9102 54.8399 41.4602 54.3899 40.9102 54.3899Z" fill="#CFD7DF"/>
<path d="M72.2202 56.91H47.3402C47.0102 56.91 46.7402 56.64 46.7402 56.31C46.7402 55.98 47.0102 55.71 47.3402 55.71H72.2202C72.5502 55.71 72.8202 55.98 72.8202 56.31C72.8202 56.64 72.5502 56.91 72.2202 56.91Z" fill="#CFD7DF"/>
<path d="M66.0002 61.0699H47.3402C47.0102 61.0699 46.7402 60.7999 46.7402 60.4699C46.7402 60.1399 47.0102 59.8699 47.3402 59.8699H66.0002C66.3302 59.8699 66.6002 60.1399 66.6002 60.4699C66.6002 60.7999 66.3302 61.0699 66.0002 61.0699Z" fill="#CFD7DF"/>
</g>
<g opacity="0.5">
<path d="M40.9102 69.1299H34.9102C34.3602 69.1299 33.9102 69.5799 33.9102 70.1299V76.1299C33.9102 76.6799 34.3602 77.1299 34.9102 77.1299H40.9102C41.4602 77.1299 41.9102 76.6799 41.9102 76.1299V70.1299C41.9102 69.5799 41.4602 69.1299 40.9102 69.1299Z" fill="#CFD7DF"/>
<path d="M72.2202 71.65H47.3402C47.0102 71.65 46.7402 71.38 46.7402 71.05C46.7402 70.72 47.0102 70.45 47.3402 70.45H72.2202C72.5502 70.45 72.8202 70.72 72.8202 71.05C72.8202 71.38 72.5502 71.65 72.2202 71.65Z" fill="#CFD7DF"/>
<path d="M66.0002 75.8099H47.3402C47.0102 75.8099 46.7402 75.5399 46.7402 75.2099C46.7402 74.8799 47.0102 74.6099 47.3402 74.6099H66.0002C66.3302 74.6099 66.6002 74.8799 66.6002 75.2099C66.6002 75.5399 66.3302 75.8099 66.0002 75.8099Z" fill="#CFD7DF"/>
</g>
</g>
<defs>
<clipPath id="clip0_3024_454761">
<rect width="130.2" height="109.31" fill="white" transform="translate(0.900391)"/>
</clipPath>
</defs>
</svg>
