<svg xmlns="http://www.w3.org/2000/svg" width="145" height="143" fill="none" viewBox="0 0 145 143"><mask id="fs-i3cixdlvva" style="mask-type:alpha" width="143" height="143" x="2" y="0" maskUnits="userSpaceOnUse"><path fill="url(#paint0_linear_7107_19306)" d="M73.713 142.573c39.371 0 71.287-31.916 71.287-71.286C145 31.917 113.084 0 73.713 0 34.343 0 2.427 31.916 2.427 71.287c0 39.37 31.916 71.286 71.286 71.286z"/></mask><g mask="url(#fs-i3cixdlvva)"><path fill="url(#paint1_linear_7107_19306)" d="M72.812 141.74c39.365 0 71.277-31.729 71.277-70.87C144.089 31.73 112.177 0 72.812 0 33.446 0 1.534 31.73 1.534 70.87c0 39.141 31.912 70.87 71.278 70.87z"/><path fill="url(#paint2_linear_7107_19306)" d="M1.343 117.138h144.909v48.303H1.343z"/><path fill="#fff" d="M95.578 38.097a3.129 3.129 0 00-3.13 3.128v176.903H272.48V38.097H95.577zM271.95 49.288H261.2v-10.75h10.751v10.75zm-89.266 67.324v-10.75h10.75v10.75h-10.75zm10.75.529v10.751h-10.75v-10.751h10.75zm-11.191-.529h-10.751v-10.75h10.751v10.75zm0 .529v10.751h-10.751v-10.751h10.751zm-11.28 10.751h-10.75v-10.751h10.75v10.751zm0 .44v10.751h-10.75v-10.751h10.75zm.529 0h10.751v10.751h-10.751v-10.751zm10.751 11.192v10.751h-10.751v-10.751h10.751zm.441 0h10.75v10.751h-10.75v-10.751zm0-.441v-10.751h10.75v10.751h-10.75zm11.191-10.751h10.751v10.751h-10.751v-10.751zm0-.44v-10.751h10.751v10.751h-10.751zm0-11.28v-10.75h10.751v10.75h-10.751zm0-11.191v-10.75h10.751v10.75h-10.751zm-.441 0h-10.75v-10.75h10.75v10.75zm-11.191 0h-10.751v-10.75h10.751v10.75zm-11.28 0h-10.75v-10.75h10.75v10.75zm0 .441v10.75h-10.75v-10.75h10.75zm-11.191 10.75h-10.751v-10.75h10.751v10.75zm0 .529v10.751h-10.751v-10.751h10.751zm0 11.191v10.751h-10.751v-10.751h10.751zm0 11.192v10.751h-10.751v-10.751h10.751zm.441 0h10.75v10.751h-10.75v-10.751zm10.75 11.279v10.751h-10.75v-10.751h10.75zm.529 0h10.751v10.751h-10.751v-10.751zm11.192 0h10.75v10.751h-10.75v-10.751zm11.191 0h10.751v10.751h-10.751v-10.751zm0-.528v-10.751h10.751v10.751h-10.751zm11.279-10.751h10.751v10.751h-10.751v-10.751zm0-.441v-10.751h10.751v10.751h-10.751zm0-11.191v-10.751h10.751v10.751h-10.751zm0-11.28v-10.75h10.751v10.75h-10.751zm0-11.191v-10.75h10.751v10.75h-10.751zm0-11.191V83.479h10.751v10.75h-10.751zm-.528 0h-10.751V83.479h10.751v10.75zm-11.192 0h-10.75V83.479h10.75v10.75zm-11.191 0h-10.751V83.479h10.751v10.75zm-11.28 0h-10.75V83.479h10.75v10.75zm-11.191 0h-10.751V83.479h10.751v10.75zm0 .44v10.751h-10.751v-10.75h10.751zm-11.191 10.751h-10.751v-10.75h10.751v10.75zm0 .441v10.75h-10.751v-10.75h10.751zm0 11.279v10.751h-10.751v-10.751h10.751zm0 11.191v10.751h-10.751v-10.751h10.751zm0 11.192v10.751h-10.751v-10.751h10.751zm0 11.279v10.751h-10.751v-10.751h10.751zm.44 0h10.751v10.751h-10.751v-10.751zm10.751 11.192v10.75h-10.751v-10.75h10.751zm.441 0h10.75v10.75h-10.75v-10.75zm11.279 0h10.751v10.75h-10.751v-10.75zm11.192 0h10.75v10.75h-10.75v-10.75zm11.191 0h10.751v10.75h-10.751v-10.75zm11.279 0h10.751v10.75h-10.751v-10.75zm0-.441v-10.751h10.751v10.751h-10.751zm11.192-10.751h10.75v10.751h-10.75v-10.751zm0-.528v-10.751h10.75v10.751h-10.75zm0-11.192v-10.751h10.75v10.751h-10.75zm0-11.191v-10.751h10.75v10.751h-10.75zm0-11.28v-10.75h10.75v10.75h-10.75zm0-11.191v-10.75h10.75v10.75h-10.75zm0-11.191V83.479h10.75v10.75h-10.75zm0-11.28V72.2h10.75v10.75h-10.75zm-.441 0h-10.751V72.2h10.751v10.75zm-11.279 0h-10.751V72.2h10.751v10.75zm-11.192 0h-10.75V72.2h10.75v10.75zm-11.191 0h-10.751V72.2h10.751v10.75zm-11.28 0h-10.75V72.2h10.75v10.75zm-11.191 0h-10.751V72.2h10.751v10.75zm-11.191 0h-10.751V72.2h10.751v10.75zm0 .529v10.75h-10.751V83.48h10.751zm-11.28 10.75h-10.75V83.48h10.75v10.75zm0 .441v10.751h-10.75v-10.75h10.75zm0 11.192v10.75h-10.75v-10.75h10.75zm0 11.279v10.751h-10.75v-10.751h10.75zm0 11.191v10.751h-10.75v-10.751h10.75zm0 11.192v10.751h-10.75v-10.751h10.75zm0 11.279v10.751h-10.75v-10.751h10.75zm0 11.192v10.75h-10.75v-10.75h10.75zm.529 0h10.751v10.75h-10.751v-10.75zm10.751 11.191v10.751h-10.751v-10.751h10.751zm.44 0h10.751v10.751h-10.751v-10.751zm11.192 0h10.75v10.751h-10.75v-10.751zm11.279 0h10.751v10.751h-10.751v-10.751zm11.192 0h10.75v10.751h-10.75v-10.751zm11.191 0h10.751v10.751h-10.751v-10.751zm11.279 0h10.751v10.751h-10.751v-10.751zm11.192 0h10.75v10.751h-10.75v-10.751zm0-.441v-10.75h10.75v10.75h-10.75zm11.191-10.75h10.751v10.75h-10.751v-10.75zm0-.441v-10.751h10.751v10.751h-10.751zm0-11.279v-10.751h10.751v10.751h-10.751zm0-11.192v-10.751h10.751v10.751h-10.751zm0-11.191v-10.751h10.751v10.751h-10.751zm0-11.28v-10.75h10.751v10.75h-10.751zm0-11.191v-10.75h10.751v10.75h-10.751zm0-11.191V83.479h10.751v10.75h-10.751zm0-11.28V72.2h10.751v10.75h-10.751zm0-11.191v-10.75h10.751v10.75h-10.751zm-.441 0h-10.75v-10.75h10.75v10.75zm-11.191 0h-10.751v-10.75h10.751v10.75zm-11.279 0h-10.751v-10.75h10.751v10.75zm-11.192 0h-10.75v-10.75h10.75v10.75zm-11.191 0h-10.751v-10.75h10.751v10.75zm-11.28 0h-10.75v-10.75h10.75v10.75zm-11.191 0h-10.751v-10.75h10.751v10.75zm-11.191 0h-10.751v-10.75h10.751v10.75zm-11.28 0h-10.75v-10.75h10.75v10.75zm0 .44V82.95h-10.75V72.2h10.75zM126.111 82.95H115.36V72.2h10.751v10.75zm0 .529v10.75H115.36V83.48h10.751zm0 11.191v10.751H115.36v-10.75h10.751zm0 11.192v10.75H115.36v-10.75h10.751zm0 11.279v10.751H115.36v-10.751h10.751zm0 11.191v10.751H115.36v-10.751h10.751zm0 11.192v10.751H115.36v-10.751h10.751zm0 11.279v10.751H115.36v-10.751h10.751zm0 11.192v10.75H115.36v-10.75h10.751zm0 11.191v10.751H115.36v-10.751h10.751zm.441 0h10.75v10.751h-10.75v-10.751zm10.75 11.279v10.751h-10.75v-10.751h10.75zm.529 0h10.751v10.751h-10.751v-10.751zm11.191 0h10.751v10.751h-10.751v-10.751zm11.192 0h10.75v10.751h-10.75v-10.751zm11.279 0h10.751v10.751h-10.751v-10.751zm11.192 0h10.75v10.751h-10.75v-10.751zm11.191 0h10.751v10.751h-10.751v-10.751zm11.279 0h10.751v10.751h-10.751v-10.751zm11.192 0h10.75v10.751h-10.75v-10.751zm11.191 0h10.751v10.751h-10.751v-10.751zm0-.528v-10.751h10.751v10.751h-10.751zm11.28-10.751h10.75v10.751h-10.75v-10.751zm0-.441v-10.75h10.75v10.75h-10.75zm0-11.191v-10.751h10.75v10.751h-10.75zm0-11.279v-10.751h10.75v10.751h-10.75zm0-11.192v-10.751h10.75v10.751h-10.75zm0-11.191v-10.751h10.75v10.751h-10.75zm0-11.28v-10.75h10.75v10.75h-10.75zm0-11.191v-10.75h10.75v10.75h-10.75zm0-11.191V83.479h10.75v10.75h-10.75zm0-11.28V72.2h10.75v10.75h-10.75zm0-11.191v-10.75h10.75v10.75h-10.75zm0-11.191V49.817h10.75v10.75h-10.75zm-.529 0h-10.751V49.817h10.751v10.75zm-11.192 0h-10.75V49.817h10.75v10.75zm-11.191 0h-10.751V49.817h10.751v10.75zm-11.279 0h-10.751V49.817h10.751v10.75zm-11.192 0h-10.75V49.817h10.75v10.75zm-11.191 0h-10.751V49.817h10.751v10.75zm-11.28 0h-10.75V49.817h10.75v10.75zm-11.191 0h-10.751V49.817h10.751v10.75zm-11.191 0h-10.751V49.817h10.751v10.75zm-11.28 0h-10.75V49.817h10.75v10.75zm-11.191 0H115.36V49.817h10.751v10.75zm0 .44v10.75H115.36v-10.75h10.751zm-11.191 10.75h-10.751v-10.75h10.751v10.75zm0 .442v10.75h-10.751V72.2h10.751zm0 11.279v10.75h-10.751V83.48h10.751zm0 11.191v10.751h-10.751v-10.75h10.751zm0 11.192v10.75h-10.751v-10.75h10.751zm0 11.279v10.751h-10.751v-10.751h10.751zm0 11.191v10.751h-10.751v-10.751h10.751zm0 11.192v10.751h-10.751v-10.751h10.751zm0 11.279v10.751h-10.751v-10.751h10.751zm0 11.192v10.75h-10.751v-10.75h10.751zm0 11.191v10.751h-10.751v-10.751h10.751zm0 11.279v10.751h-10.751v-10.751h10.751zm.44 0h10.751v10.751H115.36v-10.751zm10.751 11.192v10.751H115.36v-10.751h10.751zm.441 0h10.75v10.751h-10.75v-10.751zm11.279 0h10.751v10.751h-10.751v-10.751zm11.191 0h10.751v10.751h-10.751v-10.751zm11.192 0h10.75v10.751h-10.75v-10.751zm11.279 0h10.751v10.751h-10.751v-10.751zm11.192 0h10.75v10.751h-10.75v-10.751zm11.191 0h10.751v10.751h-10.751v-10.751zm11.279 0h10.751v10.751h-10.751v-10.751zm11.192 0h10.75v10.751h-10.75v-10.751zm11.191 0h10.751v10.751h-10.751v-10.751zm11.28 0h10.75v10.751h-10.75v-10.751zm0-.441v-10.751h10.75v10.751h-10.75zm11.191-10.751h10.751v10.751h-10.751v-10.751zm0-.528v-10.751h10.751v10.751h-10.751zm0-11.192v-10.75h10.751v10.75h-10.751zm0-11.191v-10.751h10.751v10.751h-10.751zm0-11.279v-10.751h10.751v10.751h-10.751zm0-11.192v-10.751h10.751v10.751h-10.751zm0-11.191v-10.751h10.751v10.751h-10.751zm0-11.28v-10.75h10.751v10.75h-10.751zm0-11.191v-10.75h10.751v10.75h-10.751zm0-11.191V83.479h10.751v10.75h-10.751zm0-11.28V72.2h10.751v10.75h-10.751zm0-11.191v-10.75h10.751v10.75h-10.751zm0-11.191V49.817h10.751v10.75h-10.751zm0-11.28v-10.75h10.751v10.75h-10.751zm-.441 0h-10.75v-10.75h10.75v10.75zm-11.279 0h-10.751v-10.75h10.751v10.75zm-11.192 0h-10.75v-10.75h10.75v10.75zm-11.191 0h-10.751v-10.75h10.751v10.75zm-11.279 0h-10.751v-10.75h10.751v10.75zm-11.192 0h-10.75v-10.75h10.75v10.75zm-11.191 0h-10.751v-10.75h10.751v10.75zm-11.28 0h-10.75v-10.75h10.75v10.75zm-11.191 0h-10.751v-10.75h10.751v10.75zm-11.191 0h-10.751v-10.75h10.751v10.75zm-11.28 0h-10.75v-10.75h10.75v10.75zm-11.191 0H115.36v-10.75h10.751v10.75zm-11.191 0h-10.751v-10.75h10.751v10.75zm0 .529v10.75h-10.751v-10.75h10.751zm-11.28 10.75H92.89v-10.75h10.75v10.75zm0 .441v10.75H92.89v-10.75h10.75zm0 11.191V82.95H92.89V72.2h10.75zm0 11.28v10.75H92.89V83.48h10.75zm0 11.191v10.751H92.89v-10.75h10.75zm0 11.192v10.75H92.89v-10.75h10.75zm0 11.279v10.751H92.89v-10.751h10.75zm0 11.191v10.751H92.89v-10.751h10.75zm0 11.192v10.751H92.89v-10.751h10.75zm0 11.279v10.751H92.89v-10.751h10.75zm0 11.192v10.75H92.89v-10.75h10.75zm0 11.191v10.751H92.89v-10.751h10.75zm0 11.279v10.751H92.89v-10.751h10.75zm0 11.192v10.751H92.89v-10.751h10.75zm.529 0h10.751v10.751h-10.751v-10.751zm10.751 11.191v10.751h-10.751v-10.751h10.751zm.44 0h10.751v10.751H115.36v-10.751zm11.192 0h10.75v10.751h-10.75v-10.751zm11.279 0h10.751v10.751h-10.751v-10.751zm11.191 0h10.751v10.751h-10.751v-10.751zm11.192 0h10.75v10.751h-10.75v-10.751zm11.279 0h10.751v10.751h-10.751v-10.751zm11.192 0h10.75v10.751h-10.75v-10.751zm11.191 0h10.751v10.751h-10.751v-10.751zm11.279 0h10.751v10.751h-10.751v-10.751zm11.192 0h10.75v10.751h-10.75v-10.751zm11.191 0h10.751v10.751h-10.751v-10.751zm11.28 0h10.75v10.751h-10.75v-10.751zm11.191 0h10.751v10.751h-10.751v-10.751zm0-.44v-10.751h10.751v10.751h-10.751zm11.191-10.751h10.751v10.751H261.2v-10.751zm0-.441v-10.751h10.751v10.751H261.2zm0-11.279v-10.751h10.751v10.751H261.2zm0-11.192v-10.75h10.751v10.75H261.2zm0-11.191v-10.751h10.751v10.751H261.2zm0-11.279v-10.751h10.751v10.751H261.2zm0-11.192v-10.751h10.751v10.751H261.2zm0-11.191v-10.751h10.751v10.751H261.2zm0-11.28v-10.75h10.751v10.75H261.2zm0-11.191v-10.75h10.751v10.75H261.2zm0-11.191V83.479h10.751v10.75H261.2zm0-11.28V72.2h10.751v10.75H261.2zm0-11.191v-10.75h10.751v10.75H261.2zm0-11.191V49.817h10.751v10.75H261.2zm-157.56-22.03v10.75H92.89v-7.622c0-1.728 1.4-3.129 3.128-3.129h7.622zm-10.75 168.31h10.75v10.751H92.89v-10.751zm168.31 10.751v-10.751h10.751v10.751H261.2z"/></g><g filter="url(#filter0_i_7107_19306)"><path fill="url(#paint3_linear_7107_19306)" d="M122.394 103.382c-.031-.007-.06-.012-.086-.031-.728-.529 1.317-9.522 1.51-10.189.974-3.364 2.587-6.638 5.182-9.04 1.837-1.7 6.743-5.026 9.29-3.07 2.145 1.65.135 5.792-.854 7.524-1.773 3.081-4.387 5.577-6.618 8.309-1.332 1.633-2.669 3.299-4.001 4.933-.095.123-.904 1.272-1.412 1.87-.233.275-.57.313-.919.225l-2.092-.531z"/></g><g filter="url(#filter1_i_7107_19306)"><path fill="url(#paint4_linear_7107_19306)" d="M125.328 106.082c1.089.234 2.059-.691 1.831-1.782-1.25-6-5.395-21.642-14.173-18.792-7.978 2.619 9.167 18.046 11.651 20.231.2.176.431.287.691.343z"/></g><path fill="#77FFE4" fill-opacity=".2" d="M115.376 88.629s10.266 13.399 10.383 16.233l-10.383-16.233zM135.254 83.694s-8.435 10.761-9.352 15.537l9.352-15.537z"/><path fill="url(#paint5_linear_7107_19306)" d="M114.824 102.747a1.47 1.47 0 011.464-1.611h15.609a1.47 1.47 0 011.464 1.611l-1.706 17.701a1.471 1.471 0 01-1.464 1.329h-12.197a1.47 1.47 0 01-1.463-1.329l-1.707-17.701z"/><g filter="url(#filter2_i_7107_19306)"><rect width="20.209" height="4.975" x="113.988" y="101.136" fill="url(#paint6_linear_7107_19306)" rx=".735"/></g><path fill="url(#paint7_radial_7107_19306)" d="M119.646 30.934a6.904 6.904 0 100-13.808 6.904 6.904 0 000 13.808z"/><path fill="url(#paint8_radial_7107_19306)" d="M24.743 103.718a9.046 9.046 0 100-18.091 9.046 9.046 0 000 18.091z"/><path fill="url(#paint9_radial_7107_19306)" d="M19.512 94.231c-1.639-1.008-2.048-3.309-.914-5.105 1.103-1.797 3.341-2.459 4.98-1.45 1.639 1.008 2.049 3.309.914 5.105-1.135 1.828-3.372 2.459-4.98 1.45z" opacity=".5"/><g filter="url(#filter3_iii_7107_19306)"><path fill="#4392F4" d="M101.347 42.177H43.898a2.555 2.555 0 00-2.555 2.554v67.23a2.555 2.555 0 002.555 2.555h57.449a2.554 2.554 0 002.554-2.555v-67.23a2.554 2.554 0 00-2.554-2.554z"/></g><g filter="url(#filter4_iii_7107_19306)"><path fill="#4392F4" d="M94.712 33.933H50.533a2.555 2.555 0 00-2.555 2.554v1.554a2.555 2.555 0 002.555 2.554h44.179a2.555 2.555 0 002.555-2.554v-1.554a2.555 2.555 0 00-2.555-2.554z"/></g><g filter="url(#filter5_iii_7107_19306)"><path fill="#4392F4" d="M87.13 25.688H58.115a2.555 2.555 0 00-2.554 2.554v1.554a2.555 2.555 0 002.554 2.554H87.13a2.555 2.555 0 002.555-2.554v-1.554a2.555 2.555 0 00-2.555-2.555z"/></g><g filter="url(#filter6_iii_7107_19306)"><path fill="#4392F4" d="M112.721 114.518H32.524a2.554 2.554 0 00-2.555 2.554v1.554a2.554 2.554 0 002.555 2.554h80.197a2.554 2.554 0 002.555-2.554v-1.554a2.554 2.554 0 00-2.555-2.554z"/></g><g filter="url(#filter7_d_7107_19306)"><path fill="#4BBEFF" d="M60.182 49.934H50.95a1 1 0 00-1 1v9.279a1 1 0 001 1h9.232a1 1 0 001-1v-9.28a1 1 0 00-1-1z"/></g><g filter="url(#filter8_d_7107_19306)"><path fill="#4BBEFF" d="M77.78 49.934h-9.232a1 1 0 00-1 1v9.279a1 1 0 001 1h9.232a1 1 0 001-1v-9.28a1 1 0 00-1-1z"/></g><g filter="url(#filter9_d_7107_19306)"><path fill="#4BBEFF" d="M95.378 49.934h-9.232a1 1 0 00-1 1v9.279a1 1 0 001 1h9.232a1 1 0 001-1v-9.28a1 1 0 00-1-1z"/></g><g filter="url(#filter10_d_7107_19306)"><path fill="#4BBEFF" d="M60.182 67.58H50.95a1 1 0 00-1 1v9.278a1 1 0 001 1h9.232a1 1 0 001-1V68.58a1 1 0 00-1-1z"/></g><g filter="url(#filter11_d_7107_19306)"><path fill="#4BBEFF" d="M77.78 67.58h-9.232a1 1 0 00-1 1v9.278a1 1 0 001 1h9.232a1 1 0 001-1V68.58a1 1 0 00-1-1z"/></g><g filter="url(#filter12_d_7107_19306)"><path fill="#4BBEFF" d="M95.378 67.58h-9.232a1 1 0 00-1 1v9.278a1 1 0 001 1h9.232a1 1 0 001-1V68.58a1 1 0 00-1-1z"/></g><g filter="url(#filter13_d_7107_19306)"><path fill="#4BBEFF" d="M60.182 85.225H50.95a1 1 0 00-1 1v9.279a1 1 0 001 1h9.232a1 1 0 001-1v-9.28a1 1 0 00-1-1z"/></g><g filter="url(#filter14_d_7107_19306)"><path fill="#4BBEFF" d="M77.78 85.225h-9.232a1 1 0 00-1 1v9.279a1 1 0 001 1h9.232a1 1 0 001-1v-9.28a1 1 0 00-1-1z"/></g><g filter="url(#filter15_d_7107_19306)"><path fill="#4BBEFF" d="M95.378 85.225h-9.232a1 1 0 00-1 1v9.279a1 1 0 001 1h9.232a1 1 0 001-1v-9.28a1 1 0 00-1-1z"/></g><g filter="url(#filter16_d_7107_19306)"><path fill="#4BBEFF" d="M96.267 100.808H48.979a1 1 0 00-1 1v7.518a1 1 0 001 1h47.288a1 1 0 001-1v-7.518a1 1 0 00-1-1z"/></g><defs><filter id="filter0_i_7107_19306" width="17.796" height="23.77" x="122.152" y="80.184" color-interpolation-filters="sRGB" filterUnits="userSpaceOnUse"><feFlood flood-opacity="0" result="BackgroundImageFix"/><feBlend in="SourceGraphic" in2="BackgroundImageFix" result="shape"/><feColorMatrix in="SourceAlpha" result="hardAlpha" values="0 0 0 0 0 0 0 0 0 0 0 0 0 0 0 0 0 0 127 0"/><feOffset dx=".705" dy="-.27"/><feGaussianBlur stdDeviation=".919"/><feComposite in2="hardAlpha" k2="-1" k3="1" operator="arithmetic"/><feColorMatrix values="0 0 0 0 0.113056 0 0 0 0 0.616667 0 0 0 0 0.58645 0 0 0 1 0"/><feBlend in2="shape" result="effect1_innerShadow_7107_19306"/></filter><filter id="filter1_i_7107_19306" width="17.012" height="21.224" x="110.886" y="84.894" color-interpolation-filters="sRGB" filterUnits="userSpaceOnUse"><feFlood flood-opacity="0" result="BackgroundImageFix"/><feBlend in="SourceGraphic" in2="BackgroundImageFix" result="shape"/><feColorMatrix in="SourceAlpha" result="hardAlpha" values="0 0 0 0 0 0 0 0 0 0 0 0 0 0 0 0 0 0 127 0"/><feOffset dx=".705" dy="-.27"/><feGaussianBlur stdDeviation=".919"/><feComposite in2="hardAlpha" k2="-1" k3="1" operator="arithmetic"/><feColorMatrix values="0 0 0 0 0.0996528 0 0 0 0 0.683333 0 0 0 0 0.555806 0 0 0 1 0"/><feBlend in2="shape" result="effect1_innerShadow_7107_19306"/></filter><filter id="filter2_i_7107_19306" width="20.503" height="5.196" x="113.988" y="100.915" color-interpolation-filters="sRGB" filterUnits="userSpaceOnUse"><feFlood flood-opacity="0" result="BackgroundImageFix"/><feBlend in="SourceGraphic" in2="BackgroundImageFix" result="shape"/><feColorMatrix in="SourceAlpha" result="hardAlpha" values="0 0 0 0 0 0 0 0 0 0 0 0 0 0 0 0 0 0 127 0"/><feOffset dx=".294" dy="-.221"/><feGaussianBlur stdDeviation=".257"/><feComposite in2="hardAlpha" k2="-1" k3="1" operator="arithmetic"/><feColorMatrix values="0 0 0 0 0.833333 0 0 0 0 0.604343 0 0 0 0 0.0555555 0 0 0 1 0"/><feBlend in2="shape" result="effect1_innerShadow_7107_19306"/></filter><filter id="filter3_iii_7107_19306" width="63.127" height="73.306" x="40.775" y="41.835" color-interpolation-filters="sRGB" filterUnits="userSpaceOnUse"><feFlood flood-opacity="0" result="BackgroundImageFix"/><feBlend in="SourceGraphic" in2="BackgroundImageFix" result="shape"/><feColorMatrix in="SourceAlpha" result="hardAlpha" values="0 0 0 0 0 0 0 0 0 0 0 0 0 0 0 0 0 0 127 0"/><feOffset dy="-.341"/><feGaussianBlur stdDeviation=".341"/><feComposite in2="hardAlpha" k2="-1" k3="1" operator="arithmetic"/><feColorMatrix values="0 0 0 0 0.089132 0 0 0 0 0.328429 0 0 0 0 0.629167 0 0 0 1 0"/><feBlend in2="shape" result="effect1_innerShadow_7107_19306"/><feColorMatrix in="SourceAlpha" result="hardAlpha" values="0 0 0 0 0 0 0 0 0 0 0 0 0 0 0 0 0 0 127 0"/><feOffset dy=".626"/><feGaussianBlur stdDeviation=".313"/><feComposite in2="hardAlpha" k2="-1" k3="1" operator="arithmetic"/><feColorMatrix values="0 0 0 0 0.641667 0 0 0 0 0.8495 0 0 0 0 1 0 0 0 1 0"/><feBlend in2="effect1_innerShadow_7107_19306" result="effect2_innerShadow_7107_19306"/><feColorMatrix in="SourceAlpha" result="hardAlpha" values="0 0 0 0 0 0 0 0 0 0 0 0 0 0 0 0 0 0 127 0"/><feOffset dx="-.569"/><feGaussianBlur stdDeviation=".284"/><feComposite in2="hardAlpha" k2="-1" k3="1" operator="arithmetic"/><feColorMatrix values="0 0 0 0 0 0 0 0 0 0 0 0 0 0 0 0 0 0 0.25 0"/><feBlend in2="effect2_innerShadow_7107_19306" result="effect3_innerShadow_7107_19306"/></filter><filter id="filter4_iii_7107_19306" width="49.857" height="7.63" x="47.41" y="33.591" color-interpolation-filters="sRGB" filterUnits="userSpaceOnUse"><feFlood flood-opacity="0" result="BackgroundImageFix"/><feBlend in="SourceGraphic" in2="BackgroundImageFix" result="shape"/><feColorMatrix in="SourceAlpha" result="hardAlpha" values="0 0 0 0 0 0 0 0 0 0 0 0 0 0 0 0 0 0 127 0"/><feOffset dy="-.341"/><feGaussianBlur stdDeviation=".341"/><feComposite in2="hardAlpha" k2="-1" k3="1" operator="arithmetic"/><feColorMatrix values="0 0 0 0 0.089132 0 0 0 0 0.328429 0 0 0 0 0.629167 0 0 0 1 0"/><feBlend in2="shape" result="effect1_innerShadow_7107_19306"/><feColorMatrix in="SourceAlpha" result="hardAlpha" values="0 0 0 0 0 0 0 0 0 0 0 0 0 0 0 0 0 0 127 0"/><feOffset dy=".626"/><feGaussianBlur stdDeviation=".313"/><feComposite in2="hardAlpha" k2="-1" k3="1" operator="arithmetic"/><feColorMatrix values="0 0 0 0 0.641667 0 0 0 0 0.8495 0 0 0 0 1 0 0 0 1 0"/><feBlend in2="effect1_innerShadow_7107_19306" result="effect2_innerShadow_7107_19306"/><feColorMatrix in="SourceAlpha" result="hardAlpha" values="0 0 0 0 0 0 0 0 0 0 0 0 0 0 0 0 0 0 127 0"/><feOffset dx="-.569"/><feGaussianBlur stdDeviation=".284"/><feComposite in2="hardAlpha" k2="-1" k3="1" operator="arithmetic"/><feColorMatrix values="0 0 0 0 0 0 0 0 0 0 0 0 0 0 0 0 0 0 0.25 0"/><feBlend in2="effect2_innerShadow_7107_19306" result="effect3_innerShadow_7107_19306"/></filter><filter id="filter5_iii_7107_19306" width="34.691" height="7.63" x="54.993" y="25.346" color-interpolation-filters="sRGB" filterUnits="userSpaceOnUse"><feFlood flood-opacity="0" result="BackgroundImageFix"/><feBlend in="SourceGraphic" in2="BackgroundImageFix" result="shape"/><feColorMatrix in="SourceAlpha" result="hardAlpha" values="0 0 0 0 0 0 0 0 0 0 0 0 0 0 0 0 0 0 127 0"/><feOffset dy="-.341"/><feGaussianBlur stdDeviation=".341"/><feComposite in2="hardAlpha" k2="-1" k3="1" operator="arithmetic"/><feColorMatrix values="0 0 0 0 0.089132 0 0 0 0 0.328429 0 0 0 0 0.629167 0 0 0 1 0"/><feBlend in2="shape" result="effect1_innerShadow_7107_19306"/><feColorMatrix in="SourceAlpha" result="hardAlpha" values="0 0 0 0 0 0 0 0 0 0 0 0 0 0 0 0 0 0 127 0"/><feOffset dy=".626"/><feGaussianBlur stdDeviation=".313"/><feComposite in2="hardAlpha" k2="-1" k3="1" operator="arithmetic"/><feColorMatrix values="0 0 0 0 0.641667 0 0 0 0 0.8495 0 0 0 0 1 0 0 0 1 0"/><feBlend in2="effect1_innerShadow_7107_19306" result="effect2_innerShadow_7107_19306"/><feColorMatrix in="SourceAlpha" result="hardAlpha" values="0 0 0 0 0 0 0 0 0 0 0 0 0 0 0 0 0 0 127 0"/><feOffset dx="-.569"/><feGaussianBlur stdDeviation=".284"/><feComposite in2="hardAlpha" k2="-1" k3="1" operator="arithmetic"/><feColorMatrix values="0 0 0 0 0 0 0 0 0 0 0 0 0 0 0 0 0 0 0.25 0"/><feBlend in2="effect2_innerShadow_7107_19306" result="effect3_innerShadow_7107_19306"/></filter><filter id="filter6_iii_7107_19306" width="85.875" height="7.63" x="29.401" y="114.176" color-interpolation-filters="sRGB" filterUnits="userSpaceOnUse"><feFlood flood-opacity="0" result="BackgroundImageFix"/><feBlend in="SourceGraphic" in2="BackgroundImageFix" result="shape"/><feColorMatrix in="SourceAlpha" result="hardAlpha" values="0 0 0 0 0 0 0 0 0 0 0 0 0 0 0 0 0 0 127 0"/><feOffset dy="-.341"/><feGaussianBlur stdDeviation=".341"/><feComposite in2="hardAlpha" k2="-1" k3="1" operator="arithmetic"/><feColorMatrix values="0 0 0 0 0.089132 0 0 0 0 0.328429 0 0 0 0 0.629167 0 0 0 1 0"/><feBlend in2="shape" result="effect1_innerShadow_7107_19306"/><feColorMatrix in="SourceAlpha" result="hardAlpha" values="0 0 0 0 0 0 0 0 0 0 0 0 0 0 0 0 0 0 127 0"/><feOffset dy=".626"/><feGaussianBlur stdDeviation=".313"/><feComposite in2="hardAlpha" k2="-1" k3="1" operator="arithmetic"/><feColorMatrix values="0 0 0 0 0.641667 0 0 0 0 0.8495 0 0 0 0 1 0 0 0 1 0"/><feBlend in2="effect1_innerShadow_7107_19306" result="effect2_innerShadow_7107_19306"/><feColorMatrix in="SourceAlpha" result="hardAlpha" values="0 0 0 0 0 0 0 0 0 0 0 0 0 0 0 0 0 0 127 0"/><feOffset dx="-.569"/><feGaussianBlur stdDeviation=".284"/><feComposite in2="hardAlpha" k2="-1" k3="1" operator="arithmetic"/><feColorMatrix values="0 0 0 0 0 0 0 0 0 0 0 0 0 0 0 0 0 0 0.25 0"/><feBlend in2="effect2_innerShadow_7107_19306" result="effect3_innerShadow_7107_19306"/></filter><filter id="filter7_d_7107_19306" width="18.94" height="18.987" x="46.096" y="47.08" color-interpolation-filters="sRGB" filterUnits="userSpaceOnUse"><feFlood flood-opacity="0" result="BackgroundImageFix"/><feColorMatrix in="SourceAlpha" result="hardAlpha" values="0 0 0 0 0 0 0 0 0 0 0 0 0 0 0 0 0 0 127 0"/><feOffset dy="1"/><feGaussianBlur stdDeviation="1.927"/><feColorMatrix values="0 0 0 0 0.0330729 0 0 0 0 0.254189 0 0 0 0 0.529167 0 0 0 1 0"/><feBlend in2="BackgroundImageFix" result="effect1_dropShadow_7107_19306"/><feBlend in="SourceGraphic" in2="effect1_dropShadow_7107_19306" result="shape"/></filter><filter id="filter8_d_7107_19306" width="18.94" height="18.987" x="63.694" y="47.08" color-interpolation-filters="sRGB" filterUnits="userSpaceOnUse"><feFlood flood-opacity="0" result="BackgroundImageFix"/><feColorMatrix in="SourceAlpha" result="hardAlpha" values="0 0 0 0 0 0 0 0 0 0 0 0 0 0 0 0 0 0 127 0"/><feOffset dy="1"/><feGaussianBlur stdDeviation="1.927"/><feColorMatrix values="0 0 0 0 0.0330729 0 0 0 0 0.254189 0 0 0 0 0.529167 0 0 0 1 0"/><feBlend in2="BackgroundImageFix" result="effect1_dropShadow_7107_19306"/><feBlend in="SourceGraphic" in2="effect1_dropShadow_7107_19306" result="shape"/></filter><filter id="filter9_d_7107_19306" width="18.94" height="18.987" x="81.293" y="47.08" color-interpolation-filters="sRGB" filterUnits="userSpaceOnUse"><feFlood flood-opacity="0" result="BackgroundImageFix"/><feColorMatrix in="SourceAlpha" result="hardAlpha" values="0 0 0 0 0 0 0 0 0 0 0 0 0 0 0 0 0 0 127 0"/><feOffset dy="1"/><feGaussianBlur stdDeviation="1.927"/><feColorMatrix values="0 0 0 0 0.0330729 0 0 0 0 0.254189 0 0 0 0 0.529167 0 0 0 1 0"/><feBlend in2="BackgroundImageFix" result="effect1_dropShadow_7107_19306"/><feBlend in="SourceGraphic" in2="effect1_dropShadow_7107_19306" result="shape"/></filter><filter id="filter10_d_7107_19306" width="18.94" height="18.987" x="46.096" y="64.725" color-interpolation-filters="sRGB" filterUnits="userSpaceOnUse"><feFlood flood-opacity="0" result="BackgroundImageFix"/><feColorMatrix in="SourceAlpha" result="hardAlpha" values="0 0 0 0 0 0 0 0 0 0 0 0 0 0 0 0 0 0 127 0"/><feOffset dy="1"/><feGaussianBlur stdDeviation="1.927"/><feColorMatrix values="0 0 0 0 0.0330729 0 0 0 0 0.254189 0 0 0 0 0.529167 0 0 0 1 0"/><feBlend in2="BackgroundImageFix" result="effect1_dropShadow_7107_19306"/><feBlend in="SourceGraphic" in2="effect1_dropShadow_7107_19306" result="shape"/></filter><filter id="filter11_d_7107_19306" width="18.94" height="18.987" x="63.694" y="64.725" color-interpolation-filters="sRGB" filterUnits="userSpaceOnUse"><feFlood flood-opacity="0" result="BackgroundImageFix"/><feColorMatrix in="SourceAlpha" result="hardAlpha" values="0 0 0 0 0 0 0 0 0 0 0 0 0 0 0 0 0 0 127 0"/><feOffset dy="1"/><feGaussianBlur stdDeviation="1.927"/><feColorMatrix values="0 0 0 0 0.0330729 0 0 0 0 0.254189 0 0 0 0 0.529167 0 0 0 1 0"/><feBlend in2="BackgroundImageFix" result="effect1_dropShadow_7107_19306"/><feBlend in="SourceGraphic" in2="effect1_dropShadow_7107_19306" result="shape"/></filter><filter id="filter12_d_7107_19306" width="18.94" height="18.987" x="81.293" y="64.725" color-interpolation-filters="sRGB" filterUnits="userSpaceOnUse"><feFlood flood-opacity="0" result="BackgroundImageFix"/><feColorMatrix in="SourceAlpha" result="hardAlpha" values="0 0 0 0 0 0 0 0 0 0 0 0 0 0 0 0 0 0 127 0"/><feOffset dy="1"/><feGaussianBlur stdDeviation="1.927"/><feColorMatrix values="0 0 0 0 0.0330729 0 0 0 0 0.254189 0 0 0 0 0.529167 0 0 0 1 0"/><feBlend in2="BackgroundImageFix" result="effect1_dropShadow_7107_19306"/><feBlend in="SourceGraphic" in2="effect1_dropShadow_7107_19306" result="shape"/></filter><filter id="filter13_d_7107_19306" width="18.94" height="18.987" x="46.096" y="82.371" color-interpolation-filters="sRGB" filterUnits="userSpaceOnUse"><feFlood flood-opacity="0" result="BackgroundImageFix"/><feColorMatrix in="SourceAlpha" result="hardAlpha" values="0 0 0 0 0 0 0 0 0 0 0 0 0 0 0 0 0 0 127 0"/><feOffset dy="1"/><feGaussianBlur stdDeviation="1.927"/><feColorMatrix values="0 0 0 0 0.0330729 0 0 0 0 0.254189 0 0 0 0 0.529167 0 0 0 1 0"/><feBlend in2="BackgroundImageFix" result="effect1_dropShadow_7107_19306"/><feBlend in="SourceGraphic" in2="effect1_dropShadow_7107_19306" result="shape"/></filter><filter id="filter14_d_7107_19306" width="18.94" height="18.987" x="63.694" y="82.371" color-interpolation-filters="sRGB" filterUnits="userSpaceOnUse"><feFlood flood-opacity="0" result="BackgroundImageFix"/><feColorMatrix in="SourceAlpha" result="hardAlpha" values="0 0 0 0 0 0 0 0 0 0 0 0 0 0 0 0 0 0 127 0"/><feOffset dy="1"/><feGaussianBlur stdDeviation="1.927"/><feColorMatrix values="0 0 0 0 0.0330729 0 0 0 0 0.254189 0 0 0 0 0.529167 0 0 0 1 0"/><feBlend in2="BackgroundImageFix" result="effect1_dropShadow_7107_19306"/><feBlend in="SourceGraphic" in2="effect1_dropShadow_7107_19306" result="shape"/></filter><filter id="filter15_d_7107_19306" width="18.94" height="18.987" x="81.293" y="82.371" color-interpolation-filters="sRGB" filterUnits="userSpaceOnUse"><feFlood flood-opacity="0" result="BackgroundImageFix"/><feColorMatrix in="SourceAlpha" result="hardAlpha" values="0 0 0 0 0 0 0 0 0 0 0 0 0 0 0 0 0 0 127 0"/><feOffset dy="1"/><feGaussianBlur stdDeviation="1.927"/><feColorMatrix values="0 0 0 0 0.0330729 0 0 0 0 0.254189 0 0 0 0 0.529167 0 0 0 1 0"/><feBlend in2="BackgroundImageFix" result="effect1_dropShadow_7107_19306"/><feBlend in="SourceGraphic" in2="effect1_dropShadow_7107_19306" result="shape"/></filter><filter id="filter16_d_7107_19306" width="56.996" height="17.226" x="44.125" y="97.954" color-interpolation-filters="sRGB" filterUnits="userSpaceOnUse"><feFlood flood-opacity="0" result="BackgroundImageFix"/><feColorMatrix in="SourceAlpha" result="hardAlpha" values="0 0 0 0 0 0 0 0 0 0 0 0 0 0 0 0 0 0 127 0"/><feOffset dy="1"/><feGaussianBlur stdDeviation="1.927"/><feColorMatrix values="0 0 0 0 0.0330729 0 0 0 0 0.254189 0 0 0 0 0.529167 0 0 0 1 0"/><feBlend in2="BackgroundImageFix" result="effect1_dropShadow_7107_19306"/><feBlend in="SourceGraphic" in2="effect1_dropShadow_7107_19306" result="shape"/></filter><linearGradient id="paint0_linear_7107_19306" x1="73.713" x2="73.713" y1="0" y2="142.573" gradientUnits="userSpaceOnUse"><stop stop-color="#B5EFFF"/><stop offset="1" stop-color="#E7F8FE"/></linearGradient><linearGradient id="paint1_linear_7107_19306" x1="72.812" x2="72.812" y1="0" y2="141.74" gradientUnits="userSpaceOnUse"><stop stop-color="#B5EFFF"/><stop offset="1" stop-color="#EDFBFF"/></linearGradient><linearGradient id="paint2_linear_7107_19306" x1="65.084" x2="85.069" y1="117.138" y2="177.839" gradientUnits="userSpaceOnUse"><stop stop-color="#7FD3E9"/><stop offset="1" stop-color="#7FD3E9" stop-opacity="0"/></linearGradient><linearGradient id="paint3_linear_7107_19306" x1="141.719" x2="122.686" y1="80.822" y2="97.915" gradientUnits="userSpaceOnUse"><stop stop-color="#BAFFF1" stop-opacity=".26"/><stop offset=".682" stop-color="#4DC7AE"/><stop offset=".969" stop-color="#06896F"/></linearGradient><linearGradient id="paint4_linear_7107_19306" x1="133.251" x2="121.676" y1="87.454" y2="106.949" gradientUnits="userSpaceOnUse"><stop stop-color="#B7FDEF"/><stop offset=".682" stop-color="#09B794"/><stop offset=".969" stop-color="#7EE0CC"/></linearGradient><linearGradient id="paint5_linear_7107_19306" x1="133.517" x2="116.014" y1="114.724" y2="114.724" gradientUnits="userSpaceOnUse"><stop offset=".099" stop-color="#FFEEC5"/><stop offset=".607" stop-color="#FACD63"/><stop offset=".839" stop-color="#EAAF23"/><stop offset=".984" stop-color="#EDB52F"/></linearGradient><linearGradient id="paint6_linear_7107_19306" x1="134.197" x2="115.43" y1="104.411" y2="104.411" gradientUnits="userSpaceOnUse"><stop offset=".099" stop-color="#FFEEC5"/><stop offset=".607" stop-color="#FCBD27"/><stop offset=".984" stop-color="#EFB222"/></linearGradient><radialGradient id="paint7_radial_7107_19306" cx="0" cy="0" r="1" gradientTransform="rotate(-15.177 137.903 -426.088) scale(13.1658)" gradientUnits="userSpaceOnUse"><stop stop-color="#E6C6FF"/><stop offset=".188" stop-color="#C07DF5"/><stop offset=".318" stop-color="#BE6FFC"/><stop offset=".49" stop-color="#B56AF0"/><stop offset=".651" stop-color="#A745F4"/><stop offset=".948" stop-color="#9F3DED"/></radialGradient><radialGradient id="paint8_radial_7107_19306" cx="0" cy="0" r="1" gradientTransform="rotate(-15.177 351.82 -31.205) scale(17.2492)" gradientUnits="userSpaceOnUse"><stop stop-color="#FFF1CF"/><stop offset=".188" stop-color="#FFE4A2"/><stop offset=".318" stop-color="#FFD364"/><stop offset=".49" stop-color="#FFD364"/><stop offset=".651" stop-color="#FFC73A"/><stop offset=".948" stop-color="#D09500"/></radialGradient><radialGradient id="paint9_radial_7107_19306" cx="0" cy="0" r="1" gradientTransform="rotate(121.889 -14.512 51.468) scale(3.77769 3.44035)" gradientUnits="userSpaceOnUse"><stop stop-color="#fff"/><stop offset=".694" stop-color="#fff" stop-opacity="0"/></radialGradient></defs></svg>