<svg xmlns="http://www.w3.org/2000/svg" width="119" height="116" fill="none" viewBox="0 0 119 116"><mask id="fs-yab6y9wkaa" width="117" height="116" x="2" y="0" maskUnits="userSpaceOnUse"><path fill="url(#paint0_linear)" d="M60.309 115.917c31.903 0 57.766-25.863 57.766-57.766 0-31.904-25.863-57.767-57.766-57.767-31.904 0-57.767 25.863-57.767 57.767 0 31.903 25.863 57.766 57.767 57.766z"/></mask><g mask="url(#fs-yab6y9wkaa)"><path fill="url(#paint1_linear)" d="M59.578 115.242c31.9 0 57.759-25.712 57.759-57.429 0-31.717-25.86-57.429-57.76-57.429-31.899 0-57.759 25.712-57.759 57.43 0 31.716 25.86 57.428 57.76 57.428z"/><path fill="#fff" d="M80.13 31.255a4.64 4.64 0 00-4.64 4.64v141.247h145.887V31.255H80.131zm140.819 9.07h-8.712v-8.713h8.712v8.712zM148.612 94.88v-8.712h8.712v8.712h-8.712zm8.712.428v8.712h-8.712v-8.712h8.712zm-9.069-.428h-8.712v-8.712h8.712v8.712zm0 .428v8.712h-8.712v-8.712h8.712zm-9.14 8.712h-8.712v-8.712h8.712v8.712zm0 .357v8.712h-8.712v-8.712h8.712zm.428 0h8.712v8.712h-8.712v-8.712zm8.712 9.069v8.712h-8.712v-8.712h8.712zm.357 0h8.712v8.712h-8.712v-8.712zm0-.357v-8.712h8.712v8.712h-8.712zm9.069-8.712h8.712v8.712h-8.712v-8.712zm0-.357v-8.712h8.712v8.712h-8.712zm0-9.14v-8.712h8.712v8.712h-8.712zm0-9.069V77.1h8.712v8.712h-8.712zm-.357 0h-8.712V77.1h8.712v8.712zm-9.069 0h-8.712V77.1h8.712v8.712zm-9.14 0h-8.712V77.1h8.712v8.712zm0 .357v8.712h-8.712v-8.712h8.712zm-9.069 8.712h-8.712v-8.712h8.712v8.712zm0 .428v8.712h-8.712v-8.712h8.712zm0 9.069v8.712h-8.712v-8.712h8.712zm0 9.069v8.712h-8.712v-8.712h8.712zm.357 0h8.712v8.712h-8.712v-8.712zm8.712 9.14v8.712h-8.712v-8.712h8.712zm.428 0h8.712v8.712h-8.712v-8.712zm9.069 0h8.712v8.712h-8.712v-8.712zm9.069 0h8.712v8.712h-8.712v-8.712zm0-.428v-8.712h8.712v8.712h-8.712zm9.14-8.712h8.712v8.712h-8.712v-8.712zm0-.357v-8.712h8.712v8.712h-8.712zm0-9.069v-8.712h8.712v8.712h-8.712zm0-9.14v-8.712h8.712v8.712h-8.712zm0-9.069V77.1h8.712v8.712h-8.712zm0-9.069v-8.711h8.712v8.711h-8.712zm-.428 0h-8.712v-8.711h8.712v8.711zm-9.069 0h-8.712v-8.711h8.712v8.711zm-9.069 0h-8.712v-8.711h8.712v8.711zm-9.14 0h-8.712v-8.711h8.712v8.711zm-9.069 0h-8.712v-8.711h8.712v8.711zm0 .357v8.712h-8.712V77.1h8.712zm-9.069 8.712h-8.712V77.1h8.712v8.712zm0 .357v8.712h-8.712v-8.712h8.712zm0 9.14v8.712h-8.712v-8.712h8.712zm0 9.069v8.712h-8.712v-8.712h8.712zm0 9.069v8.712h-8.712v-8.712h8.712zm0 9.14v8.712h-8.712v-8.712h8.712zm.357 0h8.712v8.712h-8.712v-8.712zm8.712 9.069v8.712h-8.712v-8.712h8.712zm.357 0h8.712v8.712h-8.712v-8.712zm9.14 0h8.712v8.712h-8.712v-8.712zm9.069 0h8.712v8.712h-8.712v-8.712zm9.069 0h8.712v8.712h-8.712v-8.712zm9.14 0h8.712v8.712h-8.712v-8.712zm0-.357v-8.712h8.712v8.712h-8.712zm9.069-8.712h8.712v8.712h-8.712v-8.712zm0-.428v-8.712h8.712v8.712h-8.712zm0-9.069v-8.712h8.712v8.712h-8.712zm0-9.069v-8.712h8.712v8.712h-8.712zm0-9.14v-8.712h8.712v8.712h-8.712zm0-9.069V77.1h8.712v8.712h-8.712zm0-9.069v-8.711h8.712v8.711h-8.712zm0-9.14V58.89h8.712v8.712h-8.712zm-.357 0h-8.712V58.89h8.712v8.712zm-9.14 0h-8.712V58.89h8.712v8.712zm-9.069 0h-8.712V58.89h8.712v8.712zm-9.069 0h-8.712V58.89h8.712v8.712zm-9.14 0h-8.712V58.89h8.712v8.712zm-9.069 0h-8.712V58.89h8.712v8.712zm-9.069 0h-8.712V58.89h8.712v8.712zm0 .429v8.711h-8.712v-8.711h8.712zm-9.14 8.711h-8.712v-8.711h8.712v8.711zm0 .357v8.712h-8.712V77.1h8.712zm0 9.07v8.711h-8.712v-8.712h8.712zm0 9.14v8.711h-8.712v-8.712h8.712zm0 9.068v8.712h-8.712v-8.712h8.712zm0 9.069v8.712h-8.712v-8.712h8.712zm0 9.14v8.712h-8.712v-8.712h8.712zm0 9.069v8.712h-8.712v-8.712h8.712zm.428 0h8.712v8.712h-8.712v-8.712zm8.712 9.069v8.712h-8.712v-8.712h8.712zm.357 0h8.712v8.712h-8.712v-8.712zm9.069 0h8.712v8.712h-8.712v-8.712zm9.14 0h8.712v8.712h-8.712v-8.712zm9.069 0h8.712v8.712h-8.712v-8.712zm9.069 0h8.712v8.712h-8.712v-8.712zm9.14 0h8.712v8.712h-8.712v-8.712zm9.069 0h8.712v8.712h-8.712v-8.712zm0-.357v-8.712h8.712v8.712h-8.712zm9.069-8.712h8.712v8.712h-8.712v-8.712zm0-.357v-8.712h8.712v8.712h-8.712zm0-9.14v-8.712h8.712v8.712h-8.712zm0-9.069v-8.712h8.712v8.712h-8.712zm0-9.069v-8.712h8.712v8.712h-8.712zm0-9.14v-8.712h8.712v8.712h-8.712zm0-9.069V77.1h8.712v8.712h-8.712zm0-9.069v-8.711h8.712v8.711h-8.712zm0-9.14V58.89h8.712v8.712h-8.712zm0-9.069v-8.712h8.712v8.712h-8.712zm-.357 0h-8.712v-8.712h8.712v8.712zm-9.069 0h-8.712v-8.712h8.712v8.712zm-9.14 0h-8.712v-8.712h8.712v8.712zm-9.069 0h-8.712v-8.712h8.712v8.712zm-9.069 0h-8.712v-8.712h8.712v8.712zm-9.14 0h-8.712v-8.712h8.712v8.712zm-9.069 0h-8.712v-8.712h8.712v8.712zm-9.069 0h-8.712v-8.712h8.712v8.712zm-9.14 0h-8.712v-8.712h8.712v8.712zm0 .357v8.712h-8.712V58.89h8.712zm-9.069 8.712h-8.712V58.89h8.712v8.712zm0 .429v8.711h-8.712v-8.711h8.712zm0 9.068v8.712h-8.712V77.1h8.712zm0 9.07v8.711h-8.712v-8.712h8.712zm0 9.14v8.711h-8.712v-8.712h8.712zm0 9.068v8.712h-8.712v-8.712h8.712zm0 9.069v8.712h-8.712v-8.712h8.712zm0 9.14v8.712h-8.712v-8.712h8.712zm0 9.069v8.712h-8.712v-8.712h8.712zm0 9.069v8.712h-8.712v-8.712h8.712zm.357 0h8.712v8.712h-8.712v-8.712zm8.712 9.14v8.712h-8.712v-8.712h8.712zm.428 0h8.712v8.712h-8.712v-8.712zm9.069 0h8.712v8.712h-8.712v-8.712zm9.069 0h8.712v8.712h-8.712v-8.712zm9.14 0h8.712v8.712h-8.712v-8.712zm9.069 0h8.712v8.712h-8.712v-8.712zm9.069 0h8.712v8.712h-8.712v-8.712zm9.14 0h8.712v8.712h-8.712v-8.712zm9.069 0h8.712v8.712h-8.712v-8.712zm9.069 0h8.712v8.712h-8.712v-8.712zm0-.428v-8.712h8.712v8.712h-8.712zm9.14-8.712h8.712v8.712h-8.712v-8.712zm0-.357v-8.712h8.712v8.712h-8.712zm0-9.069v-8.712h8.712v8.712h-8.712zm0-9.14v-8.712h8.712v8.712h-8.712zm0-9.069v-8.712h8.712v8.712h-8.712zm0-9.069v-8.712h8.712v8.712h-8.712zm0-9.14v-8.712h8.712v8.712h-8.712zm0-9.069V77.1h8.712v8.712h-8.712zm0-9.069v-8.711h8.712v8.711h-8.712zm0-9.14V58.89h8.712v8.712h-8.712zm0-9.069v-8.712h8.712v8.712h-8.712zm0-9.069v-8.711h8.712v8.712h-8.712zm-.428 0h-8.712v-8.711h8.712v8.712zm-9.069 0h-8.712v-8.711h8.712v8.712zm-9.069 0h-8.712v-8.711h8.712v8.712zm-9.14 0h-8.712v-8.711h8.712v8.712zm-9.069 0h-8.712v-8.711h8.712v8.712zm-9.069 0h-8.712v-8.711h8.712v8.712zm-9.14 0h-8.712v-8.711h8.712v8.712zm-9.069 0h-8.712v-8.711h8.712v8.712zm-9.069 0h-8.712v-8.711h8.712v8.712zm-9.14 0h-8.712v-8.711h8.712v8.712zm-9.069 0h-8.712v-8.711h8.712v8.712zm0 .358v8.711h-8.712v-8.712h8.712zm-9.069 8.711h-8.712v-8.712H93.7v8.712zm0 .357v8.712h-8.712V58.89H93.7zm0 9.14v8.712h-8.712v-8.711H93.7zm0 9.07v8.711h-8.712V77.1H93.7zm0 9.068v8.712h-8.712v-8.712H93.7zm0 9.14v8.712h-8.712v-8.712H93.7zm0 9.069v8.712h-8.712v-8.712H93.7zm0 9.069v8.712h-8.712v-8.712H93.7zm0 9.14v8.712h-8.712v-8.712H93.7zm0 9.069v8.712h-8.712v-8.712H93.7zm0 9.069v8.712h-8.712v-8.712H93.7zm0 9.14v8.712h-8.712v-8.712H93.7zm.357 0h8.712v8.712h-8.712v-8.712zm8.712 9.069v8.712h-8.712v-8.712h8.712zm.357 0h8.712v8.712h-8.712v-8.712zm9.14 0h8.712v8.712h-8.712v-8.712zm9.069 0h8.712v8.712h-8.712v-8.712zm9.069 0h8.712v8.712h-8.712v-8.712zm9.14 0h8.712v8.712h-8.712v-8.712zm9.069 0h8.712v8.712h-8.712v-8.712zm9.069 0h8.712v8.712h-8.712v-8.712zm9.14 0h8.712v8.712h-8.712v-8.712zm9.069 0h8.712v8.712h-8.712v-8.712zm9.069 0h8.712v8.712h-8.712v-8.712zm9.14 0h8.712v8.712h-8.712v-8.712zm0-.357v-8.712h8.712v8.712h-8.712zm9.069-8.712h8.712v8.712h-8.712v-8.712zm0-.428v-8.712h8.712v8.712h-8.712zm0-9.069v-8.712h8.712v8.712h-8.712zm0-9.069v-8.712h8.712v8.712h-8.712zm0-9.14v-8.712h8.712v8.712h-8.712zm0-9.069v-8.712h8.712v8.712h-8.712zm0-9.069v-8.712h8.712v8.712h-8.712zm0-9.14v-8.712h8.712v8.712h-8.712zm0-9.069V77.1h8.712v8.712h-8.712zm0-9.069v-8.711h8.712v8.711h-8.712zm0-9.14V58.89h8.712v8.712h-8.712zm0-9.069v-8.712h8.712v8.712h-8.712zm0-9.069v-8.711h8.712v8.712h-8.712zm0-9.14v-8.712h8.712v8.712h-8.712zm-.357 0h-8.712v-8.712h8.712v8.712zm-9.14 0h-8.712v-8.712h8.712v8.712zm-9.069 0h-8.712v-8.712h8.712v8.712zm-9.069 0h-8.712v-8.712h8.712v8.712zm-9.14 0h-8.712v-8.712h8.712v8.712zm-9.069 0h-8.712v-8.712h8.712v8.712zm-9.069 0h-8.712v-8.712h8.712v8.712zm-9.14 0h-8.712v-8.712h8.712v8.712zm-9.069 0h-8.712v-8.712h8.712v8.712zm-9.069 0h-8.712v-8.712h8.712v8.712zm-9.14 0h-8.712v-8.712h8.712v8.712zm-9.069 0h-8.712v-8.712h8.712v8.712zm-9.069 0h-8.712v-8.712H93.7v8.712zm0 .429v8.712h-8.712v-8.712H93.7zm-9.14 8.712h-8.712v-8.712h8.712v8.712zm0 .356v8.712h-8.712v-8.712h8.712zm0 9.07v8.711h-8.712V58.89h8.712zm0 9.14v8.711h-8.712v-8.711h8.712zm0 9.068v8.712h-8.712V77.1h8.712zm0 9.07v8.711h-8.712v-8.712h8.712zm0 9.14v8.711h-8.712v-8.712h8.712zm0 9.068v8.712h-8.712v-8.712h8.712zm0 9.069v8.712h-8.712v-8.712h8.712zm0 9.14v8.712h-8.712v-8.712h8.712zm0 9.069v8.712h-8.712v-8.712h8.712zm0 9.069v8.712h-8.712v-8.712h8.712zm0 9.14v8.712h-8.712v-8.712h8.712zm0 9.069v8.712h-8.712v-8.712h8.712zm.428 0H93.7v8.712h-8.712v-8.712zm8.712 9.069v8.712h-8.712v-8.712H93.7zm.357 0h8.712v8.712h-8.712v-8.712zm9.069 0h8.712v8.712h-8.712v-8.712zm9.14 0h8.712v8.712h-8.712v-8.712zm9.069 0h8.712v8.712h-8.712v-8.712zm9.069 0h8.712v8.712h-8.712v-8.712zm9.14 0h8.712v8.712h-8.712v-8.712zm9.069 0h8.712v8.712h-8.712v-8.712zm9.069 0h8.712v8.712h-8.712v-8.712zm9.14 0h8.712v8.712h-8.712v-8.712zm9.069 0h8.712v8.712h-8.712v-8.712zm9.069 0h8.712v8.712h-8.712v-8.712zm9.14 0h8.712v8.712h-8.712v-8.712zm9.069 0h8.712v8.712h-8.712v-8.712zm0-.357v-8.712h8.712v8.712h-8.712zm9.069-8.712h8.712v8.712h-8.712v-8.712zm0-.357v-8.712h8.712v8.712h-8.712zm0-9.14v-8.712h8.712v8.712h-8.712zm0-9.069v-8.712h8.712v8.712h-8.712zm0-9.069v-8.712h8.712v8.712h-8.712zm0-9.14v-8.712h8.712v8.712h-8.712zm0-9.069v-8.712h8.712v8.712h-8.712zm0-9.069v-8.712h8.712v8.712h-8.712zm0-9.14v-8.712h8.712v8.712h-8.712zm0-9.069V77.1h8.712v8.712h-8.712zm0-9.069v-8.711h8.712v8.711h-8.712zm0-9.14V58.89h8.712v8.712h-8.712zm0-9.069v-8.712h8.712v8.712h-8.712zm0-9.069v-8.711h8.712v8.712h-8.712zM84.559 31.613v8.712h-8.712v-4.071a4.64 4.64 0 014.64-4.64h4.072zm-8.712 136.39h8.712v8.712h-8.712v-8.712zm136.39 8.712v-8.712h8.712v8.712h-8.712z"/></g><path fill="url(#paint2_radial)" d="M7.95 49.664a7.375 7.375 0 100-14.75 7.375 7.375 0 000 14.75z"/><path fill="url(#paint3_radial)" d="M3.685 41.93c-1.337-.823-1.67-2.699-.746-4.164.9-1.465 2.724-2.004 4.06-1.182 1.337.822 1.67 2.698.746 4.163-.925 1.49-2.75 2.005-4.06 1.182z" opacity=".5"/><path fill="url(#paint4_radial)" d="M110.879 88.671a5.63 5.63 0 100-11.26 5.63 5.63 0 000 11.26z"/><path fill="url(#paint5_radial)" d="M103.985 31.772c-1.02-.628-1.275-2.06-.569-3.178.686-1.118 2.079-1.53 3.099-.902s1.275 2.06.569 3.177c-.706 1.138-2.099 1.53-3.099.903z" opacity=".5"/><g filter="url(#filter0_iii)"><path fill="#4392F4" d="M91.222 23.552H21.134c-1.36 0-2.462 1.543-2.462 3.446V88.07c0 1.904 1.102 3.447 2.462 3.447h70.088c1.36 0 2.462-1.543 2.462-3.447V26.998c0-1.903-1.102-3.446-2.462-3.446z"/></g><g filter="url(#filter1_dii)"><rect width="64.31" height="53.892" x="23.433" y="32.544" fill="url(#paint6_linear)" rx="2.407"/></g><path fill="#DCE1E5" d="M55.567 71.222c-6.445 0-11.677-5.226-11.677-11.677 0-6.445 5.226-11.677 11.677-11.677h.14v-8.119h-.14c-10.903 0-19.742 8.84-19.742 19.742 0 10.902 8.84 19.741 19.742 19.741 3.174 0 6.174-.747 8.833-2.08l-3.45-7.24a11.697 11.697 0 01-5.383 1.31z"/><path fill="#BAC5CE" d="M67.223 58.921h8.075C75 48.328 66.356 39.824 55.708 39.75v8.124c6.174.07 11.195 4.94 11.515 11.048z"/><path fill="#91A2B2" d="M75.309 59.49c0-.19-.006-.38-.011-.569h-8.076c.011.206.017.412.017.623 0 4.506-2.557 8.417-6.294 10.367l3.45 7.24c6.473-3.243 10.914-9.932 10.914-17.66z"/><path stroke="#647A8E" stroke-dasharray="1 1" stroke-miterlimit="10" stroke-width=".2" d="M55.61 39.748c-10.903 0-19.742 8.84-19.742 19.742 0 10.902 8.84 19.741 19.742 19.741 10.902 0 19.741-8.839 19.741-19.741 0-10.903-8.839-19.742-19.741-19.742zm0 31.473c-6.445 0-11.677-5.227-11.677-11.677 0-6.445 5.226-11.677 11.677-11.677 6.45 0 11.677 5.227 11.677 11.677 0 6.445-5.227 11.677-11.677 11.677z"/><g filter="url(#filter2_ii)"><path fill="#EAEAEA" d="M23.433 29.795a1.105 1.105 0 100-2.21 1.105 1.105 0 000 2.21z"/></g><g filter="url(#filter3_ii)"><path fill="#EAEAEA" d="M30.94 29.795a1.105 1.105 0 100-2.21 1.105 1.105 0 000 2.21z"/></g><g filter="url(#filter4_ii)"><path fill="#EAEAEA" d="M27.186 29.795a1.105 1.105 0 100-2.21 1.105 1.105 0 000 2.21z"/></g><g filter="url(#filter5_f)"><ellipse cx="59.698" cy="98.94" fill="#000" fill-opacity=".37" rx="47.67" ry=".359"/></g><g filter="url(#filter6_i)"><path fill="url(#paint7_linear)" d="M93.589 83.084c-.035-.009-.073-.015-.099-.04-.545-.522 1.069-7.617 1.222-8.147.78-2.694 2.072-5.315 4.15-7.238 1.47-1.36 5.398-4.024 7.437-2.459 1.717 1.322.108 4.638-.684 6.025-1.42 2.467-3.512 4.465-5.299 6.652-1.066 1.308-2.137 2.642-3.203 3.95-.069.09-.609.856-1.012 1.355-.26.32-.635.378-1.034.277l-1.478-.375z"/></g><g filter="url(#filter7_i)"><path fill="url(#paint8_linear)" d="M95.92 85.241c.872.188 1.649-.553 1.467-1.426-1.002-4.804-4.32-17.328-11.348-15.046-6.387 2.096 7.34 14.448 9.328 16.198.16.14.345.23.553.274z"/></g><path fill="#77FFE4" fill-opacity=".2" d="M87.953 71.267s8.22 10.727 8.313 12.997l-8.313-12.997zm15.915-3.95s-6.753 8.615-7.488 12.44l7.488-12.44z"/><path fill="url(#paint9_linear)" d="M87.564 83.124a1.68 1.68 0 011.673-1.842h11.39a1.68 1.68 0 011.673 1.842l-1.27 13.165a1.68 1.68 0 01-1.672 1.52h-8.852a1.68 1.68 0 01-1.672-1.52l-1.27-13.165z"/><g filter="url(#filter8_i)"><rect width="16.18" height="3.983" x="86.842" y="81.282" fill="url(#paint10_linear)" rx=".84"/></g><defs><filter id="filter0_iii" width="75.785" height="69.278" x="17.899" y="23.089" color-interpolation-filters="sRGB" filterUnits="userSpaceOnUse"><feFlood flood-opacity="0" result="BackgroundImageFix"/><feBlend in="SourceGraphic" in2="BackgroundImageFix" result="shape"/><feColorMatrix in="SourceAlpha" result="hardAlpha" values="0 0 0 0 0 0 0 0 0 0 0 0 0 0 0 0 0 0 127 0"/><feOffset dy="-.464"/><feGaussianBlur stdDeviation=".464"/><feComposite in2="hardAlpha" k2="-1" k3="1" operator="arithmetic"/><feColorMatrix values="0 0 0 0 0.089132 0 0 0 0 0.328429 0 0 0 0 0.629167 0 0 0 1 0"/><feBlend in2="shape" result="effect1_innerShadow"/><feColorMatrix in="SourceAlpha" result="hardAlpha" values="0 0 0 0 0 0 0 0 0 0 0 0 0 0 0 0 0 0 127 0"/><feOffset dy=".85"/><feGaussianBlur stdDeviation=".425"/><feComposite in2="hardAlpha" k2="-1" k3="1" operator="arithmetic"/><feColorMatrix values="0 0 0 0 0.641667 0 0 0 0 0.8495 0 0 0 0 1 0 0 0 1 0"/><feBlend in2="effect1_innerShadow" result="effect2_innerShadow"/><feColorMatrix in="SourceAlpha" result="hardAlpha" values="0 0 0 0 0 0 0 0 0 0 0 0 0 0 0 0 0 0 127 0"/><feOffset dx="-.773"/><feGaussianBlur stdDeviation=".386"/><feComposite in2="hardAlpha" k2="-1" k3="1" operator="arithmetic"/><feColorMatrix values="0 0 0 0 0 0 0 0 0 0 0 0 0 0 0 0 0 0 0.25 0"/><feBlend in2="effect2_innerShadow" result="effect3_innerShadow"/></filter><filter id="filter1_dii" width="69.124" height="58.706" x="21.026" y="31.742" color-interpolation-filters="sRGB" filterUnits="userSpaceOnUse"><feFlood flood-opacity="0" result="BackgroundImageFix"/><feColorMatrix in="SourceAlpha" values="0 0 0 0 0 0 0 0 0 0 0 0 0 0 0 0 0 0 127 0"/><feOffset dy="1.605"/><feGaussianBlur stdDeviation="1.203"/><feColorMatrix values="0 0 0 0 0 0 0 0 0 0 0 0 0 0 0 0 0 0 0.25 0"/><feBlend in2="BackgroundImageFix" result="effect1_dropShadow"/><feBlend in="SourceGraphic" in2="effect1_dropShadow" result="shape"/><feColorMatrix in="SourceAlpha" result="hardAlpha" values="0 0 0 0 0 0 0 0 0 0 0 0 0 0 0 0 0 0 127 0"/><feOffset dx=".802" dy=".883"/><feGaussianBlur stdDeviation=".481"/><feComposite in2="hardAlpha" k2="-1" k3="1" operator="arithmetic"/><feColorMatrix values="0 0 0 0 1 0 0 0 0 1 0 0 0 0 1 0 0 0 1 0"/><feBlend in2="shape" result="effect2_innerShadow"/><feColorMatrix in="SourceAlpha" result="hardAlpha" values="0 0 0 0 0 0 0 0 0 0 0 0 0 0 0 0 0 0 127 0"/><feOffset dx="-.802" dy="-.481"/><feGaussianBlur stdDeviation=".08"/><feComposite in2="hardAlpha" k2="-1" k3="1" operator="arithmetic"/><feColorMatrix values="0 0 0 0 0.833333 0 0 0 0 0.833333 0 0 0 0 0.833333 0 0 0 1 0"/><feBlend in2="effect2_innerShadow" result="effect3_innerShadow"/></filter><filter id="filter2_ii" width="2.442" height="2.442" x="22.174" y="27.43" color-interpolation-filters="sRGB" filterUnits="userSpaceOnUse"><feFlood flood-opacity="0" result="BackgroundImageFix"/><feBlend in="SourceGraphic" in2="BackgroundImageFix" result="shape"/><feColorMatrix in="SourceAlpha" result="hardAlpha" values="0 0 0 0 0 0 0 0 0 0 0 0 0 0 0 0 0 0 127 0"/><feOffset dx=".155" dy=".155"/><feGaussianBlur stdDeviation=".039"/><feComposite in2="hardAlpha" k2="-1" k3="1" operator="arithmetic"/><feColorMatrix values="0 0 0 0 1 0 0 0 0 1 0 0 0 0 1 0 0 0 1 0"/><feBlend in2="shape" result="effect1_innerShadow"/><feColorMatrix in="SourceAlpha" result="hardAlpha" values="0 0 0 0 0 0 0 0 0 0 0 0 0 0 0 0 0 0 127 0"/><feOffset dx="-.155" dy="-.155"/><feGaussianBlur stdDeviation=".077"/><feComposite in2="hardAlpha" k2="-1" k3="1" operator="arithmetic"/><feColorMatrix values="0 0 0 0 0.658333 0 0 0 0 0.658333 0 0 0 0 0.658333 0 0 0 1 0"/><feBlend in2="effect1_innerShadow" result="effect2_innerShadow"/></filter><filter id="filter3_ii" width="2.442" height="2.442" x="29.68" y="27.43" color-interpolation-filters="sRGB" filterUnits="userSpaceOnUse"><feFlood flood-opacity="0" result="BackgroundImageFix"/><feBlend in="SourceGraphic" in2="BackgroundImageFix" result="shape"/><feColorMatrix in="SourceAlpha" result="hardAlpha" values="0 0 0 0 0 0 0 0 0 0 0 0 0 0 0 0 0 0 127 0"/><feOffset dx=".155" dy=".155"/><feGaussianBlur stdDeviation=".039"/><feComposite in2="hardAlpha" k2="-1" k3="1" operator="arithmetic"/><feColorMatrix values="0 0 0 0 1 0 0 0 0 1 0 0 0 0 1 0 0 0 1 0"/><feBlend in2="shape" result="effect1_innerShadow"/><feColorMatrix in="SourceAlpha" result="hardAlpha" values="0 0 0 0 0 0 0 0 0 0 0 0 0 0 0 0 0 0 127 0"/><feOffset dx="-.155" dy="-.155"/><feGaussianBlur stdDeviation=".077"/><feComposite in2="hardAlpha" k2="-1" k3="1" operator="arithmetic"/><feColorMatrix values="0 0 0 0 0.658333 0 0 0 0 0.658333 0 0 0 0 0.658333 0 0 0 1 0"/><feBlend in2="effect1_innerShadow" result="effect2_innerShadow"/></filter><filter id="filter4_ii" width="2.442" height="2.442" x="25.927" y="27.43" color-interpolation-filters="sRGB" filterUnits="userSpaceOnUse"><feFlood flood-opacity="0" result="BackgroundImageFix"/><feBlend in="SourceGraphic" in2="BackgroundImageFix" result="shape"/><feColorMatrix in="SourceAlpha" result="hardAlpha" values="0 0 0 0 0 0 0 0 0 0 0 0 0 0 0 0 0 0 127 0"/><feOffset dx=".155" dy=".155"/><feGaussianBlur stdDeviation=".039"/><feComposite in2="hardAlpha" k2="-1" k3="1" operator="arithmetic"/><feColorMatrix values="0 0 0 0 1 0 0 0 0 1 0 0 0 0 1 0 0 0 1 0"/><feBlend in2="shape" result="effect1_innerShadow"/><feColorMatrix in="SourceAlpha" result="hardAlpha" values="0 0 0 0 0 0 0 0 0 0 0 0 0 0 0 0 0 0 127 0"/><feOffset dx="-.155" dy="-.155"/><feGaussianBlur stdDeviation=".077"/><feComposite in2="hardAlpha" k2="-1" k3="1" operator="arithmetic"/><feColorMatrix values="0 0 0 0 0.658333 0 0 0 0 0.658333 0 0 0 0 0.658333 0 0 0 1 0"/><feBlend in2="effect1_innerShadow" result="effect2_innerShadow"/></filter><filter id="filter5_f" width="98.209" height="3.586" x="10.594" y="97.147" color-interpolation-filters="sRGB" filterUnits="userSpaceOnUse"><feFlood flood-opacity="0" result="BackgroundImageFix"/><feBlend in="SourceGraphic" in2="BackgroundImageFix" result="shape"/><feGaussianBlur result="effect1_foregroundBlur" stdDeviation=".717"/></filter><filter id="filter6_i" width="14.489" height="19.09" x="93.378" y="64.414" color-interpolation-filters="sRGB" filterUnits="userSpaceOnUse"><feFlood flood-opacity="0" result="BackgroundImageFix"/><feBlend in="SourceGraphic" in2="BackgroundImageFix" result="shape"/><feColorMatrix in="SourceAlpha" result="hardAlpha" values="0 0 0 0 0 0 0 0 0 0 0 0 0 0 0 0 0 0 127 0"/><feOffset dx=".806" dy="-.308"/><feGaussianBlur stdDeviation="1.05"/><feComposite in2="hardAlpha" k2="-1" k3="1" operator="arithmetic"/><feColorMatrix values="0 0 0 0 0.113056 0 0 0 0 0.616667 0 0 0 0 0.58645 0 0 0 1 0"/><feBlend in2="shape" result="effect1_innerShadow"/></filter><filter id="filter7_i" width="13.861" height="17.085" x="84.357" y="68.186" color-interpolation-filters="sRGB" filterUnits="userSpaceOnUse"><feFlood flood-opacity="0" result="BackgroundImageFix"/><feBlend in="SourceGraphic" in2="BackgroundImageFix" result="shape"/><feColorMatrix in="SourceAlpha" result="hardAlpha" values="0 0 0 0 0 0 0 0 0 0 0 0 0 0 0 0 0 0 127 0"/><feOffset dx=".806" dy="-.308"/><feGaussianBlur stdDeviation="1.05"/><feComposite in2="hardAlpha" k2="-1" k3="1" operator="arithmetic"/><feColorMatrix values="0 0 0 0 0.0996528 0 0 0 0 0.683333 0 0 0 0 0.555806 0 0 0 1 0"/><feBlend in2="shape" result="effect1_innerShadow"/></filter><filter id="filter8_i" width="16.516" height="4.235" x="86.842" y="81.03" color-interpolation-filters="sRGB" filterUnits="userSpaceOnUse"><feFlood flood-opacity="0" result="BackgroundImageFix"/><feBlend in="SourceGraphic" in2="BackgroundImageFix" result="shape"/><feColorMatrix in="SourceAlpha" result="hardAlpha" values="0 0 0 0 0 0 0 0 0 0 0 0 0 0 0 0 0 0 127 0"/><feOffset dx=".336" dy="-.252"/><feGaussianBlur stdDeviation=".294"/><feComposite in2="hardAlpha" k2="-1" k3="1" operator="arithmetic"/><feColorMatrix values="0 0 0 0 0.833333 0 0 0 0 0.604343 0 0 0 0 0.0555555 0 0 0 1 0"/><feBlend in2="shape" result="effect1_innerShadow"/></filter><linearGradient id="paint0_linear" x1="60.309" x2="60.309" y1=".384" y2="115.917" gradientUnits="userSpaceOnUse"><stop stop-color="#B5EFFF"/><stop offset="1" stop-color="#E7F8FE"/></linearGradient><linearGradient id="paint1_linear" x1="59.578" x2="59.578" y1=".384" y2="115.242" gradientUnits="userSpaceOnUse"><stop stop-color="#B5EFFF"/><stop offset="1" stop-color="#EDFBFF"/></linearGradient><linearGradient id="paint6_linear" x1="28.787" x2="45.186" y1="32.544" y2="89.435" gradientUnits="userSpaceOnUse"><stop stop-color="#F2F2F2"/><stop offset="1" stop-color="#F8F8F8"/></linearGradient><linearGradient id="paint7_linear" x1="109.045" x2="93.805" y1="65.016" y2="78.702" gradientUnits="userSpaceOnUse"><stop stop-color="#BAFFF1" stop-opacity=".26"/><stop offset=".682" stop-color="#4DC7AE"/><stop offset=".969" stop-color="#06896F"/></linearGradient><linearGradient id="paint8_linear" x1="102.264" x2="92.996" y1="70.327" y2="85.935" gradientUnits="userSpaceOnUse"><stop stop-color="#B7FDEF"/><stop offset=".682" stop-color="#09B794"/><stop offset=".969" stop-color="#7EE0CC"/></linearGradient><linearGradient id="paint9_linear" x1="102.477" x2="88.464" y1="92.162" y2="92.162" gradientUnits="userSpaceOnUse"><stop offset=".099" stop-color="#FFEEC5"/><stop offset=".607" stop-color="#FACD63"/><stop offset=".839" stop-color="#EAAF23"/><stop offset=".984" stop-color="#EDB52F"/></linearGradient><linearGradient id="paint10_linear" x1="103.022" x2="87.996" y1="83.904" y2="83.904" gradientUnits="userSpaceOnUse"><stop offset=".099" stop-color="#FFEEC5"/><stop offset=".607" stop-color="#FCBD27"/><stop offset=".984" stop-color="#EFB222"/></linearGradient><radialGradient id="paint2_radial" cx="0" cy="0" r="1" gradientTransform="rotate(-15.177 149.757 2.984) scale(14.0645)" gradientUnits="userSpaceOnUse"><stop stop-color="#FFF1CF"/><stop offset=".188" stop-color="#FFE4A2"/><stop offset=".318" stop-color="#FFD364"/><stop offset=".49" stop-color="#FFD364"/><stop offset=".651" stop-color="#FFC73A"/><stop offset=".948" stop-color="#D09500"/></radialGradient><radialGradient id="paint3_radial" cx="0" cy="0" r="1" gradientTransform="rotate(121.889 -8.25 21.118) scale(3.08021 2.80516)" gradientUnits="userSpaceOnUse"><stop stop-color="#fff"/><stop offset=".694" stop-color="#fff" stop-opacity="0"/></radialGradient><radialGradient id="paint4_radial" cx="0" cy="0" r="1" gradientTransform="rotate(-15.177 357.228 -365.7) scale(10.735)" gradientUnits="userSpaceOnUse"><stop stop-color="#E6C6FF"/><stop offset=".188" stop-color="#C07DF5"/><stop offset=".318" stop-color="#BE6FFC"/><stop offset=".49" stop-color="#B56AF0"/><stop offset=".651" stop-color="#A745F4"/><stop offset=".948" stop-color="#9F3DED"/></radialGradient><radialGradient id="paint5_radial" cx="0" cy="0" r="1" gradientTransform="rotate(121.889 44.354 44.107) scale(2.35102 2.14108)" gradientUnits="userSpaceOnUse"><stop stop-color="#fff"/><stop offset=".694" stop-color="#fff" stop-opacity="0"/></radialGradient></defs></svg>