<svg width="128" height="126" viewBox="0 0 128 126" fill="none" xmlns="http://www.w3.org/2000/svg">
<g id="Layer_1" clip-path="url(#clip0_1179_6107)">
<path id="Vector" opacity="0.2" d="M65.6099 116.9C94.1699 116.9 117.32 93.75 117.32 65.19C117.32 36.63 94.1699 13.48 65.6099 13.48C37.0499 13.48 13.8999 36.63 13.8999 65.19C13.8999 93.75 37.0499 116.9 65.6099 116.9Z" fill="#BEC6D2"/>
<path id="Vector_2" d="M16.2598 15.3901H22.5998" stroke="#91A1B0" stroke-width="1.2" stroke-linecap="round" stroke-linejoin="round"/>
<path id="Vector_3" d="M30.1201 0.600098V6.9501" stroke="#91A1B0" stroke-width="1.2" stroke-linecap="round" stroke-linejoin="round"/>
<path id="Vector_4" d="M18.96 5.14014L23.99 9.01014" stroke="#91A1B0" stroke-width="1.2" stroke-linecap="round" stroke-linejoin="round"/>
<path id="Vector_5" d="M103.57 39.82V105.88C103.57 108.2 101.69 110.08 99.3701 110.08H34.3201C32.0001 110.08 30.1201 108.2 30.1201 105.88V20.24C30.1201 17.92 32.0001 16.04 34.3201 16.04H81.3601" fill="white"/>
<path id="Vector_6" d="M103.57 39.82V105.88C103.57 108.2 101.69 110.08 99.3701 110.08H34.3201C32.0001 110.08 30.1201 108.2 30.1201 105.88V20.24C30.1201 17.92 32.0001 16.04 34.3201 16.04H81.3601" stroke="#91A1B0" stroke-width="1.2" stroke-miterlimit="10"/>
<path id="Vector_7" d="M103.57 39.82H85.8701C83.3801 39.82 81.3501 37.76 81.3501 35.21V16.04L103.57 39.82Z" fill="#91A1B0" stroke="#91A1B0" stroke-width="1.2" stroke-linecap="round" stroke-linejoin="round"/>
<path id="Vector_8" d="M40.2998 48.9702H79.7998" stroke="#CED6DE" stroke-width="1.2" stroke-linecap="round" stroke-linejoin="round"/>
<path id="Vector_9" d="M40.2998 54.7998H67.7198" stroke="#CED6DE" stroke-width="1.2" stroke-linecap="round" stroke-linejoin="round"/>
<path id="Vector_10" d="M103.57 115.36C113.95 115.36 122.37 106.94 122.37 96.5598C122.37 86.1798 113.95 77.7598 103.57 77.7598C93.19 77.7598 84.77 86.1798 84.77 96.5598C84.77 106.94 93.19 115.36 103.57 115.36Z" fill="white" stroke="#91A1B0" stroke-width="1.2" stroke-linecap="round" stroke-linejoin="round"/>
<path id="Vector_11" d="M121.79 124.89H127.18" stroke="#91A1B0" stroke-width="1.2" stroke-linecap="round" stroke-linejoin="round"/>
<path id="Vector_12" d="M92.3701 124.89H115.95" stroke="#91A1B0" stroke-width="1.2" stroke-linecap="round" stroke-linejoin="round"/>
<path id="Vector_13" d="M0.600098 124.89H86.7701" stroke="#91A1B0" stroke-width="1.2" stroke-linecap="round" stroke-linejoin="round"/>
<path id="Vector_14" d="M103.57 104.65C103.24 104.65 102.98 104.38 102.97 104.05V89.0502C102.97 88.7202 103.24 88.4602 103.57 88.4502C103.9 88.4502 104.16 88.7202 104.17 89.0502V104.05C104.17 104.38 103.9 104.64 103.57 104.65Z" fill="#91A1B0"/>
<path id="Vector_15" d="M111.07 97.1502H96.0702C95.7402 97.1502 95.4802 96.8802 95.4702 96.5502C95.4702 96.2202 95.7402 95.9602 96.0702 95.9502H111.07C111.4 95.9502 111.66 96.2202 111.67 96.5502C111.68 96.8802 111.4 97.1402 111.07 97.1502Z" fill="#91A1B0"/>
<path id="Vector_16" d="M39.9199 70.8398H81.3599" stroke="#CED6DE" stroke-width="1.2" stroke-linecap="round" stroke-linejoin="round"/>
<path id="Vector_17" d="M39.9199 76.9502H68.6899" stroke="#CED6DE" stroke-width="1.2" stroke-linecap="round" stroke-linejoin="round"/>
<path id="Vector_18" d="M39.9199 89.29H81.3599" stroke="#CED6DE" stroke-width="1.2" stroke-linecap="round" stroke-linejoin="round"/>
<path id="Vector_19" d="M39.9199 95.3999H68.6899" stroke="#CED6DE" stroke-width="1.2" stroke-linecap="round" stroke-linejoin="round"/>
<path id="Vector_20" opacity="0.2" d="M65.2899 27.4502H52.9099C52.2399 27.4502 51.6899 28.0002 51.6899 28.6702V28.8802C51.6899 29.5502 52.2399 30.1002 52.9099 30.1002H65.2899C65.9599 30.1002 66.5099 29.5502 66.5099 28.8802V28.6702C66.5099 28.0002 65.9599 27.4502 65.2899 27.4502Z" fill="#BEC6D2"/>
<path id="Vector_21" opacity="0.2" d="M73.9999 32.1499H53.4699C52.4899 32.1499 51.6899 32.9499 51.6899 33.9299V34.2399C51.6899 35.2199 52.4899 36.0199 53.4699 36.0199H73.9999C74.9799 36.0199 75.7799 35.2199 75.7799 34.2399V33.9299C75.7799 32.9499 74.9799 32.1499 73.9999 32.1499Z" fill="#BEC6D2"/>
<path id="Vector_22" opacity="0.2" d="M42.35 36.85C44.73 36.85 46.66 34.92 46.66 32.54C46.66 30.16 44.73 28.23 42.35 28.23C39.97 28.23 38.04 30.16 38.04 32.54C38.04 34.92 39.97 36.85 42.35 36.85Z" fill="#BEC6D2"/>
</g>
<defs>
<clipPath id="clip0_1179_6107">
<rect width="127.78" height="125.49" fill="white"/>
</clipPath>
</defs>
</svg>
