<svg xmlns="http://www.w3.org/2000/svg" width="207" height="169" fill="none" viewBox="0 0 207 169"><path fill="url(#paint0_radial_1187_32042)" d="M19.836 122.331c-1.954-1.203-2.443-3.947-1.09-6.089 1.316-2.143 3.985-2.932 5.94-1.73 1.954 1.203 2.443 3.947 1.09 6.09-1.354 2.18-4.023 2.932-5.94 1.729z" opacity=".5"/><mask id="fs-830zf81bya" style="mask-type:alpha" width="170" height="169" x="14" y="0" maskUnits="userSpaceOnUse"><path fill="url(#paint1_linear_1187_32042)" d="M98.891 169c46.668 0 84.5-37.832 84.5-84.5S145.559 0 98.891 0s-84.5 37.832-84.5 84.5 37.832 84.5 84.5 84.5z"/></mask><g mask="url(#fs-830zf81bya)"><path fill="url(#paint2_linear_1187_32042)" d="M97.822 168.013c46.662 0 84.489-37.611 84.489-84.007C182.311 37.611 144.484 0 97.821 0 51.16 0 13.333 37.61 13.333 84.006s37.828 84.007 84.49 84.007z"/><path fill="#fff" d="M125.89 45.158a4.792 4.792 0 00-4.792 4.792v208.609h213.401v-213.4H125.89zm207.982 13.266h-12.743V45.68h12.743v12.743zM228.06 138.227v-12.743h12.743v12.743H228.06zm12.743.627v12.743H228.06v-12.743h12.743zm-13.265-.627h-12.744v-12.743h12.744v12.743zm0 .627v12.743h-12.744v-12.743h12.744zm-13.371 12.743h-12.743v-12.743h12.743v12.743zm0 .523v12.743h-12.743V152.12h12.743zm.627 0h12.744v12.743h-12.744V152.12zm12.744 13.265v12.744h-12.744v-12.744h12.744zm.522 0h12.743v12.744H228.06v-12.744zm0-.522V152.12h12.743v12.743H228.06zm13.266-12.743h12.743v12.743h-12.743V152.12zm0-.523v-12.743h12.743v12.743h-12.743zm0-13.37v-12.743h12.743v12.743h-12.743zm0-13.265v-12.744h12.743v12.744h-12.743zm-.523 0H228.06v-12.744h12.743v12.744zm-13.265 0h-12.744v-12.744h12.744v12.744zm-13.371 0h-12.743v-12.744h12.743v12.744zm0 .522v12.743h-12.743v-12.743h12.743zm-13.265 12.743h-12.744v-12.743h12.744v12.743zm0 .627v12.743h-12.744v-12.743h12.744zm0 13.266v12.743h-12.744V152.12h12.744zm0 13.265v12.744h-12.744v-12.744h12.744zm.522 0h12.743v12.744h-12.743v-12.744zm12.743 13.371v12.743h-12.743v-12.743h12.743zm.627 0h12.744v12.743h-12.744v-12.743zm13.266 0h12.743v12.743H228.06v-12.743zm13.266 0h12.743v12.743h-12.743v-12.743zm0-.627v-12.744h12.743v12.744h-12.743zm13.37-12.744h12.743v12.744h-12.743v-12.744zm0-.522V152.12h12.743v12.743h-12.743zm0-13.266v-12.743h12.743v12.743h-12.743zm0-13.37v-12.743h12.743v12.743h-12.743zm0-13.265v-12.744h12.743v12.744h-12.743zm0-13.266V98.952h12.743v12.744h-12.743zm-.627 0h-12.743V98.952h12.743v12.744zm-13.266 0H228.06V98.952h12.743v12.744zm-13.265 0h-12.744V98.952h12.744v12.744zm-13.371 0h-12.743V98.952h12.743v12.744zm-13.265 0h-12.744V98.952h12.744v12.744zm0 .522v12.744h-12.744v-12.744h12.744zm-13.266 12.744h-12.743v-12.744h12.743v12.744zm0 .522v12.743h-12.743v-12.743h12.743zm0 13.37v12.743h-12.743v-12.743h12.743zm0 13.266v12.743h-12.743V152.12h12.743zm0 13.265v12.744h-12.743v-12.744h12.743zm0 13.371v12.743h-12.743v-12.743h12.743zm.522 0h12.744v12.743h-12.744v-12.743zm12.744 13.265v12.744h-12.744v-12.744h12.744zm.522 0h12.743v12.744h-12.743v-12.744zm13.37 0h12.744v12.744h-12.744v-12.744zm13.266 0h12.743v12.744H228.06v-12.744zm13.266 0h12.743v12.744h-12.743v-12.744zm13.37 0h12.743v12.744h-12.743v-12.744zm0-.522v-12.743h12.743v12.743h-12.743zm13.266-12.743h12.743v12.743h-12.743v-12.743zm0-.627v-12.744h12.743v12.744h-12.743zm0-13.266V152.12h12.743v12.743h-12.743zm0-13.266v-12.743h12.743v12.743h-12.743zm0-13.37v-12.743h12.743v12.743h-12.743zm0-13.265v-12.744h12.743v12.744h-12.743zm0-13.266V98.952h12.743v12.744h-12.743zm0-13.37V85.582h12.743v12.744h-12.743zm-.523 0h-12.743V85.582h12.743v12.744zm-13.37 0h-12.743V85.582h12.743v12.744zm-13.266 0H228.06V85.582h12.743v12.744zm-13.265 0h-12.744V85.582h12.744v12.744zm-13.371 0h-12.743V85.582h12.743v12.744zm-13.265 0h-12.744V85.582h12.744v12.744zm-13.266 0h-12.743V85.582h12.743v12.744zm0 .626v12.744h-12.743V98.952h12.743zm-13.37 12.744h-12.744V98.952h12.744v12.744zm0 .522v12.744h-12.744v-12.744h12.744zm0 13.266v12.743h-12.744v-12.743h12.744zm0 13.37v12.743h-12.744v-12.743h12.744zm0 13.266v12.743h-12.744V152.12h12.744zm0 13.265v12.744h-12.744v-12.744h12.744zm0 13.371v12.743h-12.744v-12.743h12.744zm0 13.265v12.744h-12.744v-12.744h12.744zm.627 0h12.743v12.744h-12.743v-12.744zm12.743 13.266v12.744h-12.743v-12.744h12.743zm.522 0h12.744v12.744h-12.744v-12.744zm13.266 0h12.743v12.744h-12.743v-12.744zm13.37 0h12.744v12.744h-12.744v-12.744zm13.266 0h12.743v12.744H228.06v-12.744zm13.266 0h12.743v12.744h-12.743v-12.744zm13.37 0h12.743v12.744h-12.743v-12.744zm13.266 0h12.743v12.744h-12.743v-12.744zm0-.522v-12.744h12.743v12.744h-12.743zm13.265-12.744h12.744v12.744h-12.744v-12.744zm0-.522v-12.743h12.744v12.743h-12.744zm0-13.37v-12.744h12.744v12.744h-12.744zm0-13.266V152.12h12.744v12.743h-12.744zm0-13.266v-12.743h12.744v12.743h-12.744zm0-13.37v-12.743h12.744v12.743h-12.744zm0-13.265v-12.744h12.744v12.744h-12.744zm0-13.266V98.952h12.744v12.744h-12.744zm0-13.37V85.582h12.744v12.744h-12.744zm0-13.266V72.316h12.744V85.06h-12.744zm-.522 0h-12.743V72.316h12.743V85.06zm-13.266 0h-12.743V72.316h12.743V85.06zm-13.37 0h-12.743V72.316h12.743V85.06zm-13.266 0H228.06V72.316h12.743V85.06zm-13.265 0h-12.744V72.316h12.744V85.06zm-13.371 0h-12.743V72.316h12.743V85.06zm-13.265 0h-12.744V72.316h12.744V85.06zm-13.266 0h-12.743V72.316h12.743V85.06zm-13.37 0h-12.744V72.316h12.744V85.06zm0 .522v12.744h-12.744V85.582h12.744zM161 98.326h-12.743V85.582H161v12.744zm0 .626v12.744h-12.743V98.952H161zm0 13.266v12.744h-12.743v-12.744H161zm0 13.266v12.743h-12.743v-12.743H161zm0 13.37v12.743h-12.743v-12.743H161zm0 13.266v12.743h-12.743V152.12H161zm0 13.265v12.744h-12.743v-12.744H161zm0 13.371v12.743h-12.743v-12.743H161zm0 13.265v12.744h-12.743v-12.744H161zm0 13.266v12.744h-12.743v-12.744H161zm.522 0h12.744v12.744h-12.744v-12.744zm12.744 13.37v12.744h-12.744v-12.744h12.744zm.627 0h12.743v12.744h-12.743v-12.744zm13.265 0h12.744v12.744h-12.744v-12.744zm13.266 0h12.743v12.744h-12.743v-12.744zm13.37 0h12.744v12.744h-12.744v-12.744zm13.266 0h12.743v12.744H228.06v-12.744zm13.266 0h12.743v12.744h-12.743v-12.744zm13.37 0h12.743v12.744h-12.743v-12.744zm13.266 0h12.743v12.744h-12.743v-12.744zm13.265 0h12.744v12.744h-12.744v-12.744zm0-.626v-12.744h12.744v12.744h-12.744zm13.37-12.744h12.744v12.744h-12.744v-12.744zm0-.522v-12.744h12.744v12.744h-12.744zm0-13.266v-12.743h12.744v12.743h-12.744zm0-13.37v-12.744h12.744v12.744h-12.744zm0-13.266V152.12h12.744v12.743h-12.744zm0-13.266v-12.743h12.744v12.743h-12.744zm0-13.37v-12.743h12.744v12.743h-12.744zm0-13.265v-12.744h12.744v12.744h-12.744zm0-13.266V98.952h12.744v12.744h-12.744zm0-13.37V85.582h12.744v12.744h-12.744zm0-13.266V72.316h12.744V85.06h-12.744zm0-13.266V59.051h12.744v12.743h-12.744zm-.626 0h-12.744V59.051h12.744v12.743zm-13.266 0h-12.743V59.051h12.743v12.743zm-13.266 0h-12.743V59.051h12.743v12.743zm-13.37 0h-12.743V59.051h12.743v12.743zm-13.266 0H228.06V59.051h12.743v12.743zm-13.265 0h-12.744V59.051h12.744v12.743zm-13.371 0h-12.743V59.051h12.743v12.743zm-13.265 0h-12.744V59.051h12.744v12.743zm-13.266 0h-12.743V59.051h12.743v12.743zm-13.37 0h-12.744V59.051h12.744v12.743zm-13.266 0h-12.743V59.051H161v12.743zm0 .522V85.06h-12.743V72.316H161zM147.734 85.06h-12.743V72.316h12.743V85.06zm0 .522v12.744h-12.743V85.582h12.743zm0 13.37v12.744h-12.743V98.952h12.743zm0 13.266v12.744h-12.743v-12.744h12.743zm0 13.266v12.743h-12.743v-12.743h12.743zm0 13.37v12.743h-12.743v-12.743h12.743zm0 13.266v12.743h-12.743V152.12h12.743zm0 13.265v12.744h-12.743v-12.744h12.743zm0 13.371v12.743h-12.743v-12.743h12.743zm0 13.265v12.744h-12.743v-12.744h12.743zm0 13.266v12.744h-12.743v-12.744h12.743zm0 13.37v12.744h-12.743v-12.744h12.743zm.523 0H161v12.744h-12.743v-12.744zM161 231.923v12.743h-12.743v-12.743H161zm.522 0h12.744v12.743h-12.744v-12.743zm13.371 0h12.743v12.743h-12.743v-12.743zm13.265 0h12.744v12.743h-12.744v-12.743zm13.266 0h12.743v12.743h-12.743v-12.743zm13.37 0h12.744v12.743h-12.744v-12.743zm13.266 0h12.743v12.743H228.06v-12.743zm13.266 0h12.743v12.743h-12.743v-12.743zm13.37 0h12.743v12.743h-12.743v-12.743zm13.266 0h12.743v12.743h-12.743v-12.743zm13.265 0h12.744v12.743h-12.744v-12.743zm13.37 0h12.744v12.743h-12.744v-12.743zm0-.522v-12.744h12.744v12.744h-12.744zm13.266-12.744h12.744v12.744h-12.744v-12.744zm0-.626v-12.744h12.744v12.744h-12.744zm0-13.266v-12.744h12.744v12.744h-12.744zm0-13.266v-12.743h12.744v12.743h-12.744zm0-13.37v-12.744h12.744v12.744h-12.744zm0-13.266V152.12h12.744v12.743h-12.744zm0-13.266v-12.743h12.744v12.743h-12.744zm0-13.37v-12.743h12.744v12.743h-12.744zm0-13.265v-12.744h12.744v12.744h-12.744zm0-13.266V98.952h12.744v12.744h-12.744zm0-13.37V85.582h12.744v12.744h-12.744zm0-13.266V72.316h12.744V85.06h-12.744zm0-13.266V59.051h12.744v12.743h-12.744zm0-13.37V45.68h12.744v12.743h-12.744zm-.522 0h-12.744V45.68h12.744v12.743zm-13.37 0h-12.744V45.68h12.744v12.743zm-13.266 0h-12.743V45.68h12.743v12.743zm-13.266 0h-12.743V45.68h12.743v12.743zm-13.37 0h-12.743V45.68h12.743v12.743zm-13.266 0H228.06V45.68h12.743v12.743zm-13.265 0h-12.744V45.68h12.744v12.743zm-13.371 0h-12.743V45.68h12.743v12.743zm-13.265 0h-12.744V45.68h12.744v12.743zm-13.266 0h-12.743V45.68h12.743v12.743zm-13.37 0h-12.744V45.68h12.744v12.743zm-13.266 0h-12.743V45.68H161v12.743zm-13.266 0h-12.743V45.68h12.743v12.743zm0 .627v12.743h-12.743V59.051h12.743zm-13.37 12.743h-12.743V59.051h12.743v12.743zm0 .522V85.06h-12.743V72.316h12.743zm0 13.266v12.744h-12.743V85.582h12.743zm0 13.37v12.744h-12.743V98.952h12.743zm0 13.266v12.744h-12.743v-12.744h12.743zm0 13.266v12.743h-12.743v-12.743h12.743zm0 13.37v12.743h-12.743v-12.743h12.743zm0 13.266v12.743h-12.743V152.12h12.743zm0 13.265v12.744h-12.743v-12.744h12.743zm0 13.371v12.743h-12.743v-12.743h12.743zm0 13.265v12.744h-12.743v-12.744h12.743zm0 13.266v12.744h-12.743v-12.744h12.743zm0 13.37v12.744h-12.743v-12.744h12.743zm0 13.266v12.743h-12.743v-12.743h12.743zm.627 0h12.743v12.743h-12.743v-12.743zm12.743 13.266v12.743h-12.743v-12.743h12.743zm.523 0H161v12.743h-12.743v-12.743zm13.265 0h12.744v12.743h-12.744v-12.743zm13.371 0h12.743v12.743h-12.743v-12.743zm13.265 0h12.744v12.743h-12.744v-12.743zm13.266 0h12.743v12.743h-12.743v-12.743zm13.37 0h12.744v12.743h-12.744v-12.743zm13.266 0h12.743v12.743H228.06v-12.743zm13.266 0h12.743v12.743h-12.743v-12.743zm13.37 0h12.743v12.743h-12.743v-12.743zm13.266 0h12.743v12.743h-12.743v-12.743zm13.265 0h12.744v12.743h-12.744v-12.743zm13.37 0h12.744v12.743h-12.744v-12.743zm13.266 0h12.744v12.743h-12.744v-12.743zm0-.523v-12.743h12.744v12.743h-12.744zm13.266-12.743h12.743v12.743h-12.743v-12.743zm0-.522v-12.744h12.743v12.744h-12.743zm0-13.37v-12.744h12.743v12.744h-12.743zm0-13.266v-12.744h12.743v12.744h-12.743zm0-13.266v-12.743h12.743v12.743h-12.743zm0-13.37v-12.744h12.743v12.744h-12.743zm0-13.266V152.12h12.743v12.743h-12.743zm0-13.266v-12.743h12.743v12.743h-12.743zm0-13.37v-12.743h12.743v12.743h-12.743zm0-13.265v-12.744h12.743v12.744h-12.743zm0-13.266V98.952h12.743v12.744h-12.743zm0-13.37V85.582h12.743v12.744h-12.743zm0-13.266V72.316h12.743V85.06h-12.743zm0-13.266V59.051h12.743v12.743h-12.743zM134.364 45.681v12.743h-12.743v-7.952a4.791 4.791 0 014.791-4.791h7.952zm-12.743 199.508h12.743v12.743h-12.743v-12.743zm199.508 12.743v-12.743h12.743v12.743h-12.743z"/></g><g filter="url(#filter0_f_1187_32042)"><ellipse cx="92.482" cy="145.9" fill="#000" fill-opacity=".37" rx="80.968" ry=".429"/></g><path fill="url(#paint3_radial_1187_32042)" d="M156.268 26.338a8.234 8.234 0 008.234-8.235 8.234 8.234 0 10-16.468 0 8.234 8.234 0 008.234 8.235z"/><path fill="url(#paint4_radial_1187_32042)" d="M151.505 17.702c-1.492-.918-1.865-3.012-.832-4.648 1.004-1.635 3.041-2.238 4.533-1.32 1.492.919 1.865 3.013.832 4.648-1.033 1.665-3.07 2.238-4.533 1.32z" opacity=".5"/><g filter="url(#filter1_i_1187_32042)"><path fill="url(#paint5_linear_1187_32042)" d="M183.168 118.885c-.053-.013-.108-.022-.149-.058-.932-.821 1.78-12.751 2.037-13.64 1.306-4.508 3.467-8.894 6.944-12.112 2.461-2.278 9.035-6.734 12.447-4.114 2.874 2.21.181 7.76-1.144 10.082-2.376 4.127-5.878 7.471-8.868 11.131-1.784 2.19-3.576 4.421-5.36 6.61-.119.155-1.076 1.513-1.756 2.344-.396.482-.967.565-1.572.411l-2.579-.654z"/></g><g filter="url(#filter2_i_1187_32042)"><path fill="url(#paint6_linear_1187_32042)" d="M187.08 122.497c1.459.314 2.759-.926 2.454-2.387-1.675-8.039-7.228-28.998-18.989-25.179-10.689 3.509 12.282 24.179 15.61 27.107.267.235.577.384.925.459z"/></g><path fill="#77FFE4" fill-opacity=".2" d="M173.745 99.111s13.755 17.953 13.912 21.751l-13.912-21.75zM200.379 92.501s-11.301 14.418-12.53 20.817l12.53-20.817z"/><path fill="url(#paint7_linear_1187_32042)" d="M173.067 118.662a2.546 2.546 0 012.534-2.79h19.647a2.545 2.545 0 012.534 2.79l-2.175 22.565a2.546 2.546 0 01-2.534 2.301h-15.296a2.545 2.545 0 01-2.534-2.301l-2.176-22.565z"/><g filter="url(#filter3_i_1187_32042)"><rect width="27.077" height="6.666" x="171.887" y="115.872" fill="url(#paint8_linear_1187_32042)" rx="1.273"/></g><g filter="url(#filter4_iii_1187_32042)"><path fill="#418DEB" d="M15.806 54.11l3.647-6.376a.415.415 0 01.24-.19l52.21-15.685a2.11 2.11 0 012.63 1.417l23.034 76.678a2.11 2.11 0 01-1.414 2.632l-60.01 18.027a2.108 2.108 0 01-2.63-1.416L12.811 60.288a.414.414 0 01.027-.306l2.967-5.871z"/></g><g filter="url(#filter5_di_1187_32042)"><path fill="#054599" d="M12.76 60.112l10.238-1.846c1.215-.365 1.388-1.564.87-2.768l-4.35-7.851-3.591 6.287-3.166 6.178z"/></g><rect width="44.487" height="4.809" x="86.013" y="101.215" fill="#2A72CD" rx="2.405" transform="rotate(163.28 86.013 101.215)"/><rect width="44.487" height="4.809" x="82.553" y="89.7" fill="#2A72CD" rx="2.405" transform="rotate(163.28 82.553 89.7)"/><rect width="44.487" height="4.809" x="79.094" y="78.185" fill="#2A72CD" rx="2.405" transform="rotate(163.28 79.094 78.185)"/><rect width="28.857" height="4.809" x="75.635" y="66.67" fill="#2A72CD" rx="2.405" transform="rotate(163.28 75.635 66.67)"/><g filter="url(#filter6_iii_1187_32042)"><path fill="#4392F4" d="M112.339 42.099l6.139-4.034a.415.415 0 01.301-.062l53.652 9.656a2.11 2.11 0 011.704 2.454l-14.182 78.798a2.109 2.109 0 01-2.452 1.706l-61.67-11.099a2.11 2.11 0 01-1.703-2.454l12.745-70.813a.415.415 0 01.163-.26l5.303-3.892z"/></g><g filter="url(#filter7_di_1187_32042)"><path fill="#054599" d="M106.907 46.07l9.963 2.99c1.249.225 1.946-.766 2.029-2.074l-.323-8.97-6.049 3.98-5.62 4.075z"/></g><rect width="44.487" height="4.809" x="153.608" y="115.887" fill="#054599" fill-opacity=".4" rx="2.405" transform="rotate(-169.797 153.608 115.887)"/><rect width="44.487" height="4.809" x="155.738" y="104.053" fill="#054599" fill-opacity=".4" rx="2.405" transform="rotate(-169.797 155.738 104.053)"/><rect width="44.487" height="4.809" x="157.867" y="92.22" fill="#054599" fill-opacity=".4" rx="2.405" transform="rotate(-169.797 157.867 92.22)"/><rect width="28.857" height="4.809" x="159.997" y="80.386" fill="#054599" fill-opacity=".4" rx="2.405" transform="rotate(-169.797 159.997 80.386)"/><path fill="url(#paint9_radial_1187_32042)" d="M10.788 135.069c5.959 0 10.789-4.83 10.789-10.788 0-5.959-4.83-10.789-10.789-10.789C4.83 113.492 0 118.322 0 124.281c0 5.958 4.83 10.788 10.788 10.788z"/><g filter="url(#filter8_dd_1187_32042)"><g filter="url(#filter9_iii_1187_32042)"><path fill="#4392F4" d="M129.714 32.722l-6.597-6.264a.515.515 0 00-.354-.14H55.249a2.613 2.613 0 00-2.615 2.617v99.156a2.613 2.613 0 002.615 2.618h77.603a2.613 2.613 0 002.615-2.618V38.982a.513.513 0 00-.142-.353l-5.611-5.907z"/></g><g filter="url(#filter10_di_1187_32042)"><path fill="#054599" d="M135.465 38.755l-12.8 1.458c-1.571 0-2.204-1.36-2.018-2.973l2.361-10.862 6.5 6.177 5.957 6.2z"/></g><g filter="url(#filter11_dii_1187_32042)"><rect width="55.096" height="5.956" fill="#F3F3F3" rx="2.978" transform="matrix(1 0 0 -1 63.225 113.609)"/></g><g filter="url(#filter12_dii_1187_32042)"><rect width="55.096" height="5.956" fill="#F3F3F3" rx="2.978" transform="matrix(1 0 0 -1 63.225 98.718)"/></g><g filter="url(#filter13_dii_1187_32042)"><rect width="55.096" height="5.956" fill="#F3F3F3" rx="2.978" transform="matrix(1 0 0 -1 63.225 83.827)"/></g><g filter="url(#filter14_dii_1187_32042)"><rect width="35.738" height="5.956" fill="#F3F3F3" rx="2.978" transform="matrix(1 0 0 -1 63.225 68.936)"/></g></g><defs><filter id="filter0_f_1187_32042" width="165.044" height="3.966" x="9.96" y="143.917" color-interpolation-filters="sRGB" filterUnits="userSpaceOnUse"><feFlood flood-opacity="0" result="BackgroundImageFix"/><feBlend in="SourceGraphic" in2="BackgroundImageFix" result="shape"/><feGaussianBlur result="effect1_foregroundBlur_1187_32042" stdDeviation=".777"/></filter><filter id="filter1_i_1187_32042" width="24.119" height="31.916" x="182.825" y="87.694" color-interpolation-filters="sRGB" filterUnits="userSpaceOnUse"><feFlood flood-opacity="0" result="BackgroundImageFix"/><feBlend in="SourceGraphic" in2="BackgroundImageFix" result="shape"/><feColorMatrix in="SourceAlpha" result="hardAlpha" values="0 0 0 0 0 0 0 0 0 0 0 0 0 0 0 0 0 0 127 0"/><feOffset dx="1.221" dy="-.467"/><feGaussianBlur stdDeviation="1.591"/><feComposite in2="hardAlpha" k2="-1" k3="1" operator="arithmetic"/><feColorMatrix values="0 0 0 0 0.113056 0 0 0 0 0.616667 0 0 0 0 0.58645 0 0 0 1 0"/><feBlend in2="shape" result="effect1_innerShadow_1187_32042"/></filter><filter id="filter2_i_1187_32042" width="23.069" height="28.542" x="167.731" y="94.004" color-interpolation-filters="sRGB" filterUnits="userSpaceOnUse"><feFlood flood-opacity="0" result="BackgroundImageFix"/><feBlend in="SourceGraphic" in2="BackgroundImageFix" result="shape"/><feColorMatrix in="SourceAlpha" result="hardAlpha" values="0 0 0 0 0 0 0 0 0 0 0 0 0 0 0 0 0 0 127 0"/><feOffset dx="1.221" dy="-.467"/><feGaussianBlur stdDeviation="1.591"/><feComposite in2="hardAlpha" k2="-1" k3="1" operator="arithmetic"/><feColorMatrix values="0 0 0 0 0.0996528 0 0 0 0 0.683333 0 0 0 0 0.555806 0 0 0 1 0"/><feBlend in2="shape" result="effect1_innerShadow_1187_32042"/></filter><filter id="filter3_i_1187_32042" width="27.586" height="7.048" x="171.887" y="115.49" color-interpolation-filters="sRGB" filterUnits="userSpaceOnUse"><feFlood flood-opacity="0" result="BackgroundImageFix"/><feBlend in="SourceGraphic" in2="BackgroundImageFix" result="shape"/><feColorMatrix in="SourceAlpha" result="hardAlpha" values="0 0 0 0 0 0 0 0 0 0 0 0 0 0 0 0 0 0 127 0"/><feOffset dx=".509" dy="-.382"/><feGaussianBlur stdDeviation=".445"/><feComposite in2="hardAlpha" k2="-1" k3="1" operator="arithmetic"/><feColorMatrix values="0 0 0 0 0.833333 0 0 0 0 0.604343 0 0 0 0 0.0555555 0 0 0 1 0"/><feBlend in2="shape" result="effect1_innerShadow_1187_32042"/></filter><filter id="filter4_iii_1187_32042" width="85.539" height="100.083" x="12.118" y="31.363" color-interpolation-filters="sRGB" filterUnits="userSpaceOnUse"><feFlood flood-opacity="0" result="BackgroundImageFix"/><feBlend in="SourceGraphic" in2="BackgroundImageFix" result="shape"/><feColorMatrix in="SourceAlpha" result="hardAlpha" values="0 0 0 0 0 0 0 0 0 0 0 0 0 0 0 0 0 0 127 0"/><feOffset dy="-.405"/><feGaussianBlur stdDeviation=".405"/><feComposite in2="hardAlpha" k2="-1" k3="1" operator="arithmetic"/><feColorMatrix values="0 0 0 0 0.089132 0 0 0 0 0.328429 0 0 0 0 0.629167 0 0 0 1 0"/><feBlend in2="shape" result="effect1_innerShadow_1187_32042"/><feColorMatrix in="SourceAlpha" result="hardAlpha" values="0 0 0 0 0 0 0 0 0 0 0 0 0 0 0 0 0 0 127 0"/><feOffset dy=".743"/><feGaussianBlur stdDeviation=".372"/><feComposite in2="hardAlpha" k2="-1" k3="1" operator="arithmetic"/><feColorMatrix values="0 0 0 0 0.641667 0 0 0 0 0.8495 0 0 0 0 1 0 0 0 1 0"/><feBlend in2="effect1_innerShadow_1187_32042" result="effect2_innerShadow_1187_32042"/><feColorMatrix in="SourceAlpha" result="hardAlpha" values="0 0 0 0 0 0 0 0 0 0 0 0 0 0 0 0 0 0 127 0"/><feOffset dx="-.676"/><feGaussianBlur stdDeviation=".338"/><feComposite in2="hardAlpha" k2="-1" k3="1" operator="arithmetic"/><feColorMatrix values="0 0 0 0 0 0 0 0 0 0 0 0 0 0 0 0 0 0 0.25 0"/><feBlend in2="effect2_innerShadow_1187_32042" result="effect3_innerShadow_1187_32042"/></filter><filter id="filter5_di_1187_32042" width="11.84" height="13.116" x="12.496" y="47.305" color-interpolation-filters="sRGB" filterUnits="userSpaceOnUse"><feFlood flood-opacity="0" result="BackgroundImageFix"/><feColorMatrix in="SourceAlpha" result="hardAlpha" values="0 0 0 0 0 0 0 0 0 0 0 0 0 0 0 0 0 0 127 0"/><feOffset dy=".116"/><feGaussianBlur stdDeviation=".096"/><feColorMatrix values="0 0 0 0 0 0 0 0 0 0 0 0 0 0 0 0 0 0 0.25 0"/><feBlend in2="BackgroundImageFix" result="effect1_dropShadow_1187_32042"/><feBlend in="SourceGraphic" in2="effect1_dropShadow_1187_32042" result="shape"/><feColorMatrix in="SourceAlpha" result="hardAlpha" values="0 0 0 0 0 0 0 0 0 0 0 0 0 0 0 0 0 0 127 0"/><feOffset dx="-.265" dy="-.342"/><feGaussianBlur stdDeviation=".171"/><feComposite in2="hardAlpha" k2="-1" k3="1" operator="arithmetic"/><feColorMatrix values="0 0 0 0 0.0505208 0 0 0 0 0.161469 0 0 0 0 0.404167 0 0 0 1 0"/><feBlend in2="shape" result="effect2_innerShadow_1187_32042"/></filter><filter id="filter6_iii_1187_32042" width="80.75" height="93.803" x="93.418" y="37.591" color-interpolation-filters="sRGB" filterUnits="userSpaceOnUse"><feFlood flood-opacity="0" result="BackgroundImageFix"/><feBlend in="SourceGraphic" in2="BackgroundImageFix" result="shape"/><feColorMatrix in="SourceAlpha" result="hardAlpha" values="0 0 0 0 0 0 0 0 0 0 0 0 0 0 0 0 0 0 127 0"/><feOffset dy="-.405"/><feGaussianBlur stdDeviation=".405"/><feComposite in2="hardAlpha" k2="-1" k3="1" operator="arithmetic"/><feColorMatrix values="0 0 0 0 0.089132 0 0 0 0 0.328429 0 0 0 0 0.629167 0 0 0 1 0"/><feBlend in2="shape" result="effect1_innerShadow_1187_32042"/><feColorMatrix in="SourceAlpha" result="hardAlpha" values="0 0 0 0 0 0 0 0 0 0 0 0 0 0 0 0 0 0 127 0"/><feOffset dy=".743"/><feGaussianBlur stdDeviation=".372"/><feComposite in2="hardAlpha" k2="-1" k3="1" operator="arithmetic"/><feColorMatrix values="0 0 0 0 0.641667 0 0 0 0 0.8495 0 0 0 0 1 0 0 0 1 0"/><feBlend in2="effect1_innerShadow_1187_32042" result="effect2_innerShadow_1187_32042"/><feColorMatrix in="SourceAlpha" result="hardAlpha" values="0 0 0 0 0 0 0 0 0 0 0 0 0 0 0 0 0 0 127 0"/><feOffset dx="-.676"/><feGaussianBlur stdDeviation=".338"/><feComposite in2="hardAlpha" k2="-1" k3="1" operator="arithmetic"/><feColorMatrix values="0 0 0 0 0 0 0 0 0 0 0 0 0 0 0 0 0 0 0.25 0"/><feBlend in2="effect2_innerShadow_1187_32042" result="effect3_innerShadow_1187_32042"/></filter><filter id="filter7_di_1187_32042" width="12.45" height="11.725" x="106.642" y="37.675" color-interpolation-filters="sRGB" filterUnits="userSpaceOnUse"><feFlood flood-opacity="0" result="BackgroundImageFix"/><feColorMatrix in="SourceAlpha" result="hardAlpha" values="0 0 0 0 0 0 0 0 0 0 0 0 0 0 0 0 0 0 127 0"/><feOffset dy=".116"/><feGaussianBlur stdDeviation=".096"/><feColorMatrix values="0 0 0 0 0 0 0 0 0 0 0 0 0 0 0 0 0 0 0.25 0"/><feBlend in2="BackgroundImageFix" result="effect1_dropShadow_1187_32042"/><feBlend in="SourceGraphic" in2="effect1_dropShadow_1187_32042" result="shape"/><feColorMatrix in="SourceAlpha" result="hardAlpha" values="0 0 0 0 0 0 0 0 0 0 0 0 0 0 0 0 0 0 127 0"/><feOffset dx="-.265" dy="-.342"/><feGaussianBlur stdDeviation=".171"/><feComposite in2="hardAlpha" k2="-1" k3="1" operator="arithmetic"/><feColorMatrix values="0 0 0 0 0.0505208 0 0 0 0 0.161469 0 0 0 0 0.404167 0 0 0 1 0"/><feBlend in2="shape" result="effect2_innerShadow_1187_32042"/></filter><filter id="filter8_dd_1187_32042" width="124.527" height="135.663" x="31.787" y="14.405" color-interpolation-filters="sRGB" filterUnits="userSpaceOnUse"><feFlood flood-opacity="0" result="BackgroundImageFix"/><feColorMatrix in="SourceAlpha" result="hardAlpha" values="0 0 0 0 0 0 0 0 0 0 0 0 0 0 0 0 0 0 127 0"/><feOffset dx="5.956" dy="2.978"/><feGaussianBlur stdDeviation="7.445"/><feComposite in2="hardAlpha" operator="out"/><feColorMatrix values="0 0 0 0 0 0 0 0 0 0 0 0 0 0 0 0 0 0 0.25 0"/><feBlend in2="BackgroundImageFix" result="effect1_dropShadow_1187_32042"/><feColorMatrix in="SourceAlpha" result="hardAlpha" values="0 0 0 0 0 0 0 0 0 0 0 0 0 0 0 0 0 0 127 0"/><feOffset dx="-5.956" dy="4.467"/><feGaussianBlur stdDeviation="7.445"/><feComposite in2="hardAlpha" operator="out"/><feColorMatrix values="0 0 0 0 0 0 0 0 0 0 0 0 0 0 0 0 0 0 0.25 0"/><feBlend in2="effect1_dropShadow_1187_32042" result="effect2_dropShadow_1187_32042"/><feBlend in="SourceGraphic" in2="effect2_dropShadow_1187_32042" result="shape"/></filter><filter id="filter9_iii_1187_32042" width="83.67" height="105.814" x="51.797" y="25.815" color-interpolation-filters="sRGB" filterUnits="userSpaceOnUse"><feFlood flood-opacity="0" result="BackgroundImageFix"/><feBlend in="SourceGraphic" in2="BackgroundImageFix" result="shape"/><feColorMatrix in="SourceAlpha" result="hardAlpha" values="0 0 0 0 0 0 0 0 0 0 0 0 0 0 0 0 0 0 127 0"/><feOffset dy="-.502"/><feGaussianBlur stdDeviation=".502"/><feComposite in2="hardAlpha" k2="-1" k3="1" operator="arithmetic"/><feColorMatrix values="0 0 0 0 0.089132 0 0 0 0 0.328429 0 0 0 0 0.629167 0 0 0 1 0"/><feBlend in2="shape" result="effect1_innerShadow_1187_32042"/><feColorMatrix in="SourceAlpha" result="hardAlpha" values="0 0 0 0 0 0 0 0 0 0 0 0 0 0 0 0 0 0 127 0"/><feOffset dy=".921"/><feGaussianBlur stdDeviation=".46"/><feComposite in2="hardAlpha" k2="-1" k3="1" operator="arithmetic"/><feColorMatrix values="0 0 0 0 0.641667 0 0 0 0 0.8495 0 0 0 0 1 0 0 0 1 0"/><feBlend in2="effect1_innerShadow_1187_32042" result="effect2_innerShadow_1187_32042"/><feColorMatrix in="SourceAlpha" result="hardAlpha" values="0 0 0 0 0 0 0 0 0 0 0 0 0 0 0 0 0 0 127 0"/><feOffset dx="-.837"/><feGaussianBlur stdDeviation=".418"/><feComposite in2="hardAlpha" k2="-1" k3="1" operator="arithmetic"/><feColorMatrix values="0 0 0 0 0 0 0 0 0 0 0 0 0 0 0 0 0 0 0.25 0"/><feBlend in2="effect2_innerShadow_1187_32042" result="effect3_innerShadow_1187_32042"/></filter><filter id="filter10_di_1187_32042" width="15.416" height="14.64" x="120.288" y="25.955" color-interpolation-filters="sRGB" filterUnits="userSpaceOnUse"><feFlood flood-opacity="0" result="BackgroundImageFix"/><feColorMatrix in="SourceAlpha" result="hardAlpha" values="0 0 0 0 0 0 0 0 0 0 0 0 0 0 0 0 0 0 127 0"/><feOffset dy=".143"/><feGaussianBlur stdDeviation=".119"/><feColorMatrix values="0 0 0 0 0 0 0 0 0 0 0 0 0 0 0 0 0 0 0.25 0"/><feBlend in2="BackgroundImageFix" result="effect1_dropShadow_1187_32042"/><feBlend in="SourceGraphic" in2="effect1_dropShadow_1187_32042" result="shape"/><feColorMatrix in="SourceAlpha" result="hardAlpha" values="0 0 0 0 0 0 0 0 0 0 0 0 0 0 0 0 0 0 127 0"/><feOffset dx="-.328" dy="-.423"/><feGaussianBlur stdDeviation=".212"/><feComposite in2="hardAlpha" k2="-1" k3="1" operator="arithmetic"/><feColorMatrix values="0 0 0 0 0.0505208 0 0 0 0 0.161469 0 0 0 0 0.404167 0 0 0 1 0"/><feBlend in2="shape" result="effect2_innerShadow_1187_32042"/></filter><filter id="filter11_dii_1187_32042" width="55.439" height="6.603" x="63.054" y="107.605" color-interpolation-filters="sRGB" filterUnits="userSpaceOnUse"><feFlood flood-opacity="0" result="BackgroundImageFix"/><feColorMatrix in="SourceAlpha" result="hardAlpha" values="0 0 0 0 0 0 0 0 0 0 0 0 0 0 0 0 0 0 127 0"/><feOffset dy=".428"/><feGaussianBlur stdDeviation=".086"/><feColorMatrix values="0 0 0 0 0 0 0 0 0 0 0 0 0 0 0 0 0 0 0.25 0"/><feBlend in2="BackgroundImageFix" result="effect1_dropShadow_1187_32042"/><feBlend in="SourceGraphic" in2="effect1_dropShadow_1187_32042" result="shape"/><feColorMatrix in="SourceAlpha" result="hardAlpha" values="0 0 0 0 0 0 0 0 0 0 0 0 0 0 0 0 0 0 127 0"/><feOffset dy=".513"/><feComposite in2="hardAlpha" k2="-1" k3="1" operator="arithmetic"/><feColorMatrix values="0 0 0 0 1 0 0 0 0 1 0 0 0 0 1 0 0 0 1 0"/><feBlend in2="shape" result="effect2_innerShadow_1187_32042"/><feColorMatrix in="SourceAlpha" result="hardAlpha" values="0 0 0 0 0 0 0 0 0 0 0 0 0 0 0 0 0 0 127 0"/><feOffset dx="-.024" dy="-.428"/><feGaussianBlur stdDeviation=".024"/><feComposite in2="hardAlpha" k2="-1" k3="1" operator="arithmetic"/><feColorMatrix values="0 0 0 0 0.833333 0 0 0 0 0.833333 0 0 0 0 0.833333 0 0 0 1 0"/><feBlend in2="effect2_innerShadow_1187_32042" result="effect3_innerShadow_1187_32042"/></filter><filter id="filter12_dii_1187_32042" width="55.439" height="6.603" x="63.054" y="92.714" color-interpolation-filters="sRGB" filterUnits="userSpaceOnUse"><feFlood flood-opacity="0" result="BackgroundImageFix"/><feColorMatrix in="SourceAlpha" result="hardAlpha" values="0 0 0 0 0 0 0 0 0 0 0 0 0 0 0 0 0 0 127 0"/><feOffset dy=".428"/><feGaussianBlur stdDeviation=".086"/><feColorMatrix values="0 0 0 0 0 0 0 0 0 0 0 0 0 0 0 0 0 0 0.25 0"/><feBlend in2="BackgroundImageFix" result="effect1_dropShadow_1187_32042"/><feBlend in="SourceGraphic" in2="effect1_dropShadow_1187_32042" result="shape"/><feColorMatrix in="SourceAlpha" result="hardAlpha" values="0 0 0 0 0 0 0 0 0 0 0 0 0 0 0 0 0 0 127 0"/><feOffset dy=".513"/><feComposite in2="hardAlpha" k2="-1" k3="1" operator="arithmetic"/><feColorMatrix values="0 0 0 0 1 0 0 0 0 1 0 0 0 0 1 0 0 0 1 0"/><feBlend in2="shape" result="effect2_innerShadow_1187_32042"/><feColorMatrix in="SourceAlpha" result="hardAlpha" values="0 0 0 0 0 0 0 0 0 0 0 0 0 0 0 0 0 0 127 0"/><feOffset dx="-.024" dy="-.428"/><feGaussianBlur stdDeviation=".024"/><feComposite in2="hardAlpha" k2="-1" k3="1" operator="arithmetic"/><feColorMatrix values="0 0 0 0 0.833333 0 0 0 0 0.833333 0 0 0 0 0.833333 0 0 0 1 0"/><feBlend in2="effect2_innerShadow_1187_32042" result="effect3_innerShadow_1187_32042"/></filter><filter id="filter13_dii_1187_32042" width="55.439" height="6.603" x="63.054" y="77.823" color-interpolation-filters="sRGB" filterUnits="userSpaceOnUse"><feFlood flood-opacity="0" result="BackgroundImageFix"/><feColorMatrix in="SourceAlpha" result="hardAlpha" values="0 0 0 0 0 0 0 0 0 0 0 0 0 0 0 0 0 0 127 0"/><feOffset dy=".428"/><feGaussianBlur stdDeviation=".086"/><feColorMatrix values="0 0 0 0 0 0 0 0 0 0 0 0 0 0 0 0 0 0 0.25 0"/><feBlend in2="BackgroundImageFix" result="effect1_dropShadow_1187_32042"/><feBlend in="SourceGraphic" in2="effect1_dropShadow_1187_32042" result="shape"/><feColorMatrix in="SourceAlpha" result="hardAlpha" values="0 0 0 0 0 0 0 0 0 0 0 0 0 0 0 0 0 0 127 0"/><feOffset dy=".513"/><feComposite in2="hardAlpha" k2="-1" k3="1" operator="arithmetic"/><feColorMatrix values="0 0 0 0 1 0 0 0 0 1 0 0 0 0 1 0 0 0 1 0"/><feBlend in2="shape" result="effect2_innerShadow_1187_32042"/><feColorMatrix in="SourceAlpha" result="hardAlpha" values="0 0 0 0 0 0 0 0 0 0 0 0 0 0 0 0 0 0 127 0"/><feOffset dx="-.024" dy="-.428"/><feGaussianBlur stdDeviation=".024"/><feComposite in2="hardAlpha" k2="-1" k3="1" operator="arithmetic"/><feColorMatrix values="0 0 0 0 0.833333 0 0 0 0 0.833333 0 0 0 0 0.833333 0 0 0 1 0"/><feBlend in2="effect2_innerShadow_1187_32042" result="effect3_innerShadow_1187_32042"/></filter><filter id="filter14_dii_1187_32042" width="36.08" height="6.603" x="63.054" y="62.932" color-interpolation-filters="sRGB" filterUnits="userSpaceOnUse"><feFlood flood-opacity="0" result="BackgroundImageFix"/><feColorMatrix in="SourceAlpha" result="hardAlpha" values="0 0 0 0 0 0 0 0 0 0 0 0 0 0 0 0 0 0 127 0"/><feOffset dy=".428"/><feGaussianBlur stdDeviation=".086"/><feColorMatrix values="0 0 0 0 0 0 0 0 0 0 0 0 0 0 0 0 0 0 0.25 0"/><feBlend in2="BackgroundImageFix" result="effect1_dropShadow_1187_32042"/><feBlend in="SourceGraphic" in2="effect1_dropShadow_1187_32042" result="shape"/><feColorMatrix in="SourceAlpha" result="hardAlpha" values="0 0 0 0 0 0 0 0 0 0 0 0 0 0 0 0 0 0 127 0"/><feOffset dy=".513"/><feComposite in2="hardAlpha" k2="-1" k3="1" operator="arithmetic"/><feColorMatrix values="0 0 0 0 1 0 0 0 0 1 0 0 0 0 1 0 0 0 1 0"/><feBlend in2="shape" result="effect2_innerShadow_1187_32042"/><feColorMatrix in="SourceAlpha" result="hardAlpha" values="0 0 0 0 0 0 0 0 0 0 0 0 0 0 0 0 0 0 127 0"/><feOffset dx="-.024" dy="-.428"/><feGaussianBlur stdDeviation=".024"/><feComposite in2="hardAlpha" k2="-1" k3="1" operator="arithmetic"/><feColorMatrix values="0 0 0 0 0.833333 0 0 0 0 0.833333 0 0 0 0 0.833333 0 0 0 1 0"/><feBlend in2="effect2_innerShadow_1187_32042" result="effect3_innerShadow_1187_32042"/></filter><linearGradient id="paint1_linear_1187_32042" x1="98.891" x2="98.891" y1="0" y2="169" gradientUnits="userSpaceOnUse"><stop stop-color="#B5EFFF"/><stop offset="1" stop-color="#E7F8FE"/></linearGradient><linearGradient id="paint2_linear_1187_32042" x1="97.822" x2="97.822" y1="0" y2="168.013" gradientUnits="userSpaceOnUse"><stop stop-color="#B5EFFF"/><stop offset="1" stop-color="#EDFBFF"/></linearGradient><linearGradient id="paint5_linear_1187_32042" x1="209.042" x2="183.54" y1="88.653" y2="111.555" gradientUnits="userSpaceOnUse"><stop stop-color="#BAFFF1" stop-opacity=".26"/><stop offset=".682" stop-color="#4DC7AE"/><stop offset=".969" stop-color="#06896F"/></linearGradient><linearGradient id="paint6_linear_1187_32042" x1="197.697" x2="182.187" y1="97.539" y2="123.658" gradientUnits="userSpaceOnUse"><stop stop-color="#B7FDEF"/><stop offset=".682" stop-color="#09B794"/><stop offset=".969" stop-color="#7EE0CC"/></linearGradient><linearGradient id="paint7_linear_1187_32042" x1="198.051" x2="174.6" y1="134.078" y2="134.078" gradientUnits="userSpaceOnUse"><stop offset=".099" stop-color="#FFEEC5"/><stop offset=".607" stop-color="#FACD63"/><stop offset=".839" stop-color="#EAAF23"/><stop offset=".984" stop-color="#EDB52F"/></linearGradient><linearGradient id="paint8_linear_1187_32042" x1="198.964" x2="173.819" y1="120.26" y2="120.26" gradientUnits="userSpaceOnUse"><stop offset=".099" stop-color="#FFEEC5"/><stop offset=".607" stop-color="#FCBD27"/><stop offset=".984" stop-color="#EFB222"/></linearGradient><radialGradient id="paint0_radial_1187_32042" cx="0" cy="0" r="1" gradientTransform="rotate(121.889 -21.788 65.403) scale(4.50567 4.10333)" gradientUnits="userSpaceOnUse"><stop stop-color="#fff"/><stop offset=".694" stop-color="#fff" stop-opacity="0"/></radialGradient><radialGradient id="paint3_radial_1187_32042" cx="0" cy="0" r="1" gradientTransform="rotate(-15.177 131.64 -564.387) scale(15.7029)" gradientUnits="userSpaceOnUse"><stop stop-color="#E6C6FF"/><stop offset=".188" stop-color="#C07DF5"/><stop offset=".318" stop-color="#BE6FFC"/><stop offset=".49" stop-color="#B56AF0"/><stop offset=".651" stop-color="#A745F4"/><stop offset=".948" stop-color="#9F3DED"/></radialGradient><radialGradient id="paint4_radial_1187_32042" cx="0" cy="0" r="1" gradientTransform="matrix(-1.81675 2.91999 -2.65925 -1.65453 153.334 14.742)" gradientUnits="userSpaceOnUse"><stop stop-color="#fff"/><stop offset=".694" stop-color="#fff" stop-opacity="0"/></radialGradient><radialGradient id="paint9_radial_1187_32042" cx="0" cy="0" r="1" gradientTransform="rotate(-15.177 452.906 38.732) scale(20.5733)" gradientUnits="userSpaceOnUse"><stop stop-color="#FFF1CF"/><stop offset=".188" stop-color="#FFE4A2"/><stop offset=".318" stop-color="#FFD364"/><stop offset=".49" stop-color="#FFD364"/><stop offset=".651" stop-color="#FFC73A"/><stop offset=".948" stop-color="#D09500"/></radialGradient></defs></svg>