<svg xmlns="http://www.w3.org/2000/svg" width="193" height="160" fill="none" viewBox="0 0 193 160"><mask id="fs-q7cr0w4y0a" style="mask-type:alpha" width="161" height="160" x="13" y="0" maskUnits="userSpaceOnUse"><path fill="url(#paint0_linear_9256_114869)" d="M93.573 159.827c44.087 0 79.827-35.74 79.827-79.827C173.4 35.913 137.66.173 93.573.173 49.486.173 13.746 35.913 13.746 80c0 44.087 35.74 79.827 79.827 79.827z"/></mask><g mask="url(#fs-q7cr0w4y0a)"><path fill="url(#paint1_linear_9256_114869)" d="M92.563 158.894c44.081 0 79.817-35.531 79.817-79.36 0-43.83-35.736-79.36-79.817-79.36-44.082 0-79.817 35.53-79.817 79.36 0 43.829 35.735 79.36 79.817 79.36z"/><path fill="#fff" d="M119.553 42.833a5 5 0 00-5 5v196.599h201.599V42.833H119.553zM315.56 55.365h-12.039V43.327h12.039v12.038zm-99.961 75.39v-12.038h12.039v12.038h-12.039zm12.039.592v12.039h-12.039v-12.039h12.039zm-12.533-.592h-12.038v-12.038h12.038v12.038zm0 .592v12.039h-12.038v-12.039h12.038zm-12.63 12.039h-12.039v-12.039h12.039v12.039zm0 .493v12.039h-12.039v-12.039h12.039zm.592 0h12.038v12.039h-12.038v-12.039zm12.038 12.533v12.038h-12.038v-12.038h12.038zm.494 0h12.039v12.038h-12.039v-12.038zm0-.494v-12.039h12.039v12.039h-12.039zm12.532-12.039h12.039v12.039h-12.039v-12.039zm0-.493v-12.039h12.039v12.039h-12.039zm0-12.631v-12.038h12.039v12.038h-12.039zm0-12.532v-12.039h12.039v12.039h-12.039zm-.493 0h-12.039v-12.039h12.039v12.039zm-12.533 0h-12.038v-12.039h12.038v12.039zm-12.63 0h-12.039v-12.039h12.039v12.039zm0 .494v12.038h-12.039v-12.038h12.039zm-12.532 12.038h-12.039v-12.038h12.039v12.038zm0 .592v12.039h-12.039v-12.039h12.039zm0 12.532v12.039h-12.039v-12.039h12.039zm0 12.533v12.038h-12.039v-12.038h12.039zm.493 0h12.039v12.038h-12.039v-12.038zm12.039 12.63v12.039h-12.039v-12.039h12.039zm.592 0h12.038v12.039h-12.038v-12.039zm12.532 0h12.039v12.039h-12.039v-12.039zm12.532 0h12.039v12.039h-12.039v-12.039zm0-.592v-12.038h12.039v12.038h-12.039zm12.631-12.038H252.8v12.038h-12.038v-12.038zm0-.494v-12.039H252.8v12.039h-12.038zm0-12.532v-12.039H252.8v12.039h-12.038zm0-12.631v-12.038H252.8v12.038h-12.038zm0-12.532v-12.039H252.8v12.039h-12.038zm0-12.532V93.652H252.8v12.039h-12.038zm-.592 0h-12.039V93.652h12.039v12.039zm-12.532 0h-12.039V93.652h12.039v12.039zm-12.533 0h-12.038V93.652h12.038v12.039zm-12.63 0h-12.039V93.652h12.039v12.039zm-12.532 0h-12.039V93.652h12.039v12.039zm0 .493v12.039h-12.039v-12.039h12.039zm-12.533 12.039h-12.038v-12.039h12.038v12.039zm0 .494v12.038h-12.038v-12.038h12.038zm0 12.63v12.039h-12.038v-12.039h12.038zm0 12.532v12.039h-12.038v-12.039h12.038zm0 12.533v12.038h-12.038v-12.038h12.038zm0 12.63v12.039h-12.038v-12.039h12.038zm.494 0h12.039v12.039h-12.039v-12.039zm12.039 12.532v12.039h-12.039v-12.039h12.039zm.493 0h12.039v12.039h-12.039v-12.039zm12.631 0h12.038v12.039h-12.038v-12.039zm12.532 0h12.039v12.039h-12.039v-12.039zm12.532 0h12.039v12.039h-12.039v-12.039zm12.631 0H252.8v12.039h-12.038v-12.039zm0-.493v-12.039H252.8v12.039h-12.038zm12.532-12.039h12.039v12.039h-12.039v-12.039zm0-.592v-12.038h12.039v12.038h-12.039zm0-12.532v-12.039h12.039v12.039h-12.039zm0-12.532v-12.039h12.039v12.039h-12.039zm0-12.631v-12.038h12.039v12.038h-12.039zm0-12.532v-12.039h12.039v12.039h-12.039zm0-12.532V93.652h12.039v12.039h-12.039zm0-12.63V81.02h12.039v12.04h-12.039zm-.494 0h-12.038V81.02H252.8v12.04zm-12.63 0h-12.039V81.02h12.039v12.04zm-12.532 0h-12.039V81.02h12.039v12.04zm-12.533 0h-12.038V81.02h12.038v12.04zm-12.63 0h-12.039V81.02h12.039v12.04zm-12.532 0h-12.039V81.02h12.039v12.04zm-12.533 0h-12.038V81.02h12.038v12.04zm0 .591v12.039h-12.038V93.652h12.038zm-12.63 12.039h-12.039V93.652h12.039v12.039zm0 .493v12.039h-12.039v-12.039h12.039zm0 12.533v12.038h-12.039v-12.038h12.039zm0 12.63v12.039h-12.039v-12.039h12.039zm0 12.532v12.039h-12.039v-12.039h12.039zm0 12.533v12.038h-12.039v-12.038h12.039zm0 12.63v12.039h-12.039v-12.039h12.039zm0 12.532v12.039h-12.039v-12.039h12.039zm.592 0h12.038v12.039h-12.038v-12.039zm12.038 12.533v12.038h-12.038v-12.038h12.038zm.494 0h12.039v12.038h-12.039v-12.038zm12.532 0h12.039v12.038h-12.039v-12.038zm12.631 0h12.038v12.038h-12.038v-12.038zm12.532 0h12.039v12.038h-12.039v-12.038zm12.532 0h12.039v12.038h-12.039v-12.038zm12.631 0H252.8v12.038h-12.038v-12.038zm12.532 0h12.039v12.038h-12.039v-12.038zm0-.494v-12.039h12.039v12.039h-12.039zm12.532-12.039h12.039v12.039h-12.039v-12.039zm0-.493v-12.039h12.039v12.039h-12.039zm0-12.631v-12.038h12.039v12.038h-12.039zm0-12.532v-12.039h12.039v12.039h-12.039zm0-12.532v-12.039h12.039v12.039h-12.039zm0-12.631v-12.038h12.039v12.038h-12.039zm0-12.532v-12.039h12.039v12.039h-12.039zm0-12.532V93.652h12.039v12.039h-12.039zm0-12.63V81.02h12.039v12.04h-12.039zm0-12.533V68.49h12.039v12.038h-12.039zm-.493 0h-12.039V68.49h12.039v12.038zm-12.533 0h-12.038V68.49H252.8v12.038zm-12.63 0h-12.039V68.49h12.039v12.038zm-12.532 0h-12.039V68.49h12.039v12.038zm-12.533 0h-12.038V68.49h12.038v12.038zm-12.63 0h-12.039V68.49h12.039v12.038zm-12.532 0h-12.039V68.49h12.039v12.038zm-12.533 0h-12.038V68.49h12.038v12.038zm-12.63 0h-12.039V68.49h12.039v12.038zm0 .494V93.06h-12.039V81.022h12.039zM152.248 93.06h-12.039V81.022h12.039V93.06zm0 .592v12.039h-12.039V93.652h12.039zm0 12.532v12.039h-12.039v-12.039h12.039zm0 12.533v12.038h-12.039v-12.038h12.039zm0 12.63v12.039h-12.039v-12.039h12.039zm0 12.532v12.039h-12.039v-12.039h12.039zm0 12.533v12.038h-12.039v-12.038h12.039zm0 12.63v12.039h-12.039v-12.039h12.039zm0 12.532v12.039h-12.039v-12.039h12.039zm0 12.533v12.038h-12.039v-12.038h12.039zm.493 0h12.039v12.038h-12.039v-12.038zm12.039 12.63v12.039h-12.039v-12.039h12.039zm.592 0h12.038v12.039h-12.038v-12.039zm12.532 0h12.039v12.039h-12.039v-12.039zm12.532 0h12.039v12.039h-12.039v-12.039zm12.631 0h12.038v12.039h-12.038v-12.039zm12.532 0h12.039v12.039h-12.039v-12.039zm12.532 0h12.039v12.039h-12.039v-12.039zm12.631 0H252.8v12.039h-12.038v-12.039zm12.532 0h12.039v12.039h-12.039v-12.039zm12.532 0h12.039v12.039h-12.039v-12.039zm0-.592v-12.038h12.039v12.038h-12.039zm12.631-12.038h12.038v12.038h-12.038v-12.038zm0-.494v-12.039h12.038v12.039h-12.038zm0-12.532v-12.039h12.038v12.039h-12.038zm0-12.631v-12.038h12.038v12.038h-12.038zm0-12.532v-12.039h12.038v12.039h-12.038zm0-12.532v-12.039h12.038v12.039h-12.038zm0-12.631v-12.038h12.038v12.038h-12.038zm0-12.532v-12.039h12.038v12.039h-12.038zm0-12.532V93.652h12.038v12.039h-12.038zm0-12.63V81.02h12.038v12.04h-12.038zm0-12.533V68.49h12.038v12.038h-12.038zm0-12.532V55.957h12.038v12.04h-12.038zm-.592 0h-12.039V55.957h12.039v12.04zm-12.532 0h-12.039V55.957h12.039v12.04zm-12.533 0h-12.038V55.957H252.8v12.04zm-12.63 0h-12.039V55.957h12.039v12.04zm-12.532 0h-12.039V55.957h12.039v12.04zm-12.533 0h-12.038V55.957h12.038v12.04zm-12.63 0h-12.039V55.957h12.039v12.04zm-12.532 0h-12.039V55.957h12.039v12.04zm-12.533 0h-12.038V55.957h12.038v12.04zm-12.63 0h-12.039V55.957h12.039v12.04zm-12.532 0h-12.039V55.957h12.039v12.04zm0 .494v12.038h-12.039V68.49h12.039zm-12.533 12.038h-12.038V68.49h12.038v12.038zm0 .494V93.06h-12.038V81.022h12.038zm0 12.63v12.039h-12.038V93.652h12.038zm0 12.532v12.039h-12.038v-12.039h12.038zm0 12.533v12.038h-12.038v-12.038h12.038zm0 12.63v12.039h-12.038v-12.039h12.038zm0 12.532v12.039h-12.038v-12.039h12.038zm0 12.533v12.038h-12.038v-12.038h12.038zm0 12.63v12.039h-12.038v-12.039h12.038zm0 12.532v12.039h-12.038v-12.039h12.038zm0 12.533v12.038h-12.038v-12.038h12.038zm0 12.63v12.039h-12.038v-12.039h12.038zm.494 0h12.039v12.039h-12.039v-12.039zm12.039 12.532v12.039h-12.039v-12.039h12.039zm.493 0h12.039v12.039h-12.039v-12.039zm12.631 0h12.038v12.039h-12.038v-12.039zm12.532 0h12.039v12.039h-12.039v-12.039zm12.532 0h12.039v12.039h-12.039v-12.039zm12.631 0h12.038v12.039h-12.038v-12.039zm12.532 0h12.039v12.039h-12.039v-12.039zm12.532 0h12.039v12.039h-12.039v-12.039zm12.631 0H252.8v12.039h-12.038v-12.039zm12.532 0h12.039v12.039h-12.039v-12.039zm12.532 0h12.039v12.039h-12.039v-12.039zm12.631 0h12.038v12.039h-12.038v-12.039zm0-.493v-12.039h12.038v12.039h-12.038zm12.532-12.039h12.038v12.039h-12.038v-12.039zm0-.592v-12.038h12.038v12.038h-12.038zm0-12.532v-12.039h12.038v12.039h-12.038zm0-12.532v-12.039h12.038v12.039h-12.038zm0-12.631v-12.038h12.038v12.038h-12.038zm0-12.532v-12.039h12.038v12.039h-12.038zm0-12.532v-12.039h12.038v12.039h-12.038zm0-12.631v-12.038h12.038v12.038h-12.038zm0-12.532v-12.039h12.038v12.039h-12.038zm0-12.532V93.652h12.038v12.039h-12.038zm0-12.63V81.02h12.038v12.04h-12.038zm0-12.533V68.49h12.038v12.038h-12.038zm0-12.532V55.957h12.038v12.04h-12.038zm0-12.63v-12.04h12.038v12.04h-12.038zm-.494 0h-12.038v-12.04h12.038v12.04zm-12.63 0h-12.039v-12.04h12.039v12.04zm-12.532 0h-12.039v-12.04h12.039v12.04zm-12.533 0h-12.038v-12.04H252.8v12.04zm-12.63 0h-12.039v-12.04h12.039v12.04zm-12.532 0h-12.039v-12.04h12.039v12.04zm-12.533 0h-12.038v-12.04h12.038v12.04zm-12.63 0h-12.039v-12.04h12.039v12.04zm-12.532 0h-12.039v-12.04h12.039v12.04zm-12.533 0h-12.038v-12.04h12.038v12.04zm-12.63 0h-12.039v-12.04h12.039v12.04zm-12.532 0h-12.039v-12.04h12.039v12.04zm-12.533 0h-12.038v-12.04h12.038v12.04zm0 .591v12.04h-12.038v-12.04h12.038zm-12.63 12.04h-12.039v-12.04h12.039v12.04zm0 .493v12.038h-12.039V68.49h12.039zm0 12.532V93.06h-12.039V81.022h12.039zm0 12.63v12.039h-12.039V93.652h12.039zm0 12.532v12.039h-12.039v-12.039h12.039zm0 12.533v12.038h-12.039v-12.038h12.039zm0 12.63v12.039h-12.039v-12.039h12.039zm0 12.532v12.039h-12.039v-12.039h12.039zm0 12.533v12.038h-12.039v-12.038h12.039zm0 12.63v12.039h-12.039v-12.039h12.039zm0 12.532v12.039h-12.039v-12.039h12.039zm0 12.533v12.038h-12.039v-12.038h12.039zm0 12.63v12.039h-12.039v-12.039h12.039zm0 12.532v12.039h-12.039v-12.039h12.039zm.592 0h12.038v12.039h-12.038v-12.039zm12.038 12.533v12.038h-12.038v-12.038h12.038zm.494 0h12.039v12.038h-12.039v-12.038zm12.532 0h12.039v12.038h-12.039v-12.038zm12.631 0h12.038v12.038h-12.038v-12.038zm12.532 0h12.039v12.038h-12.039v-12.038zm12.532 0h12.039v12.038h-12.039v-12.038zm12.631 0h12.038v12.038h-12.038v-12.038zm12.532 0h12.039v12.038h-12.039v-12.038zm12.532 0h12.039v12.038h-12.039v-12.038zm12.631 0H252.8v12.038h-12.038v-12.038zm12.532 0h12.039v12.038h-12.039v-12.038zm12.532 0h12.039v12.038h-12.039v-12.038zm12.631 0h12.038v12.038h-12.038v-12.038zm12.532 0h12.038v12.038h-12.038v-12.038zm0-.494v-12.039h12.038v12.039h-12.038zm12.532-12.039h12.039v12.039h-12.039v-12.039zm0-.493v-12.039h12.039v12.039h-12.039zm0-12.631v-12.038h12.039v12.038h-12.039zm0-12.532v-12.039h12.039v12.039h-12.039zm0-12.532v-12.039h12.039v12.039h-12.039zm0-12.631v-12.038h12.039v12.038h-12.039zm0-12.532v-12.039h12.039v12.039h-12.039zm0-12.532v-12.039h12.039v12.039h-12.039zm0-12.631v-12.038h12.039v12.038h-12.039zm0-12.532v-12.039h12.039v12.039h-12.039zm0-12.532V93.652h12.039v12.039h-12.039zm0-12.63V81.02h12.039v12.04h-12.039zm0-12.533V68.49h12.039v12.038h-12.039zm0-12.532V55.957h12.039v12.04h-12.039zm-176.436-24.67v12.04h-12.039v-7.04a5 5 0 015-5h7.039zm-12.039 188.476h12.039v12.038h-12.039v-12.038zm188.475 12.038v-12.038h12.039v12.038h-12.039z"/></g><path fill="url(#paint2_radial_9256_114869)" d="M11.01 113.582c5.63 0 10.193-4.563 10.193-10.192 0-5.629-4.563-10.192-10.192-10.192-5.629 0-10.192 4.564-10.192 10.192 0 5.629 4.563 10.192 10.192 10.192z"/><path fill="url(#paint3_radial_9256_114869)" d="M5.116 102.893c-1.846-1.136-2.308-3.729-1.03-5.753 1.243-2.024 3.765-2.77 5.611-1.633 1.847 1.136 2.308 3.728 1.03 5.752-1.278 2.06-3.8 2.77-5.61 1.634z" opacity=".5"/><path fill="url(#paint4_radial_9256_114869)" d="M167.007 46.2a7.779 7.779 0 007.779-7.78 7.78 7.78 0 10-7.779 7.779z"/><path fill="url(#paint5_radial_9256_114869)" d="M162.508 38.042c-1.409-.868-1.762-2.846-.786-4.391.949-1.545 2.873-2.115 4.282-1.247 1.41.867 1.762 2.846.786 4.39-.975 1.573-2.9 2.115-4.282 1.248z" opacity=".5"/><g filter="url(#filter0_iii_9256_114869)"><path fill="#4392F4" d="M153.807 40.173H31.129c-2.38 0-4.31 2.133-4.31 4.763v84.407c0 2.631 1.93 4.763 4.31 4.763h122.678c2.381 0 4.31-2.132 4.31-4.763V44.936c0-2.63-1.929-4.763-4.31-4.763z"/></g><path stroke="#BBDCFE" stroke-width="2.219" d="M84.857 71.35h4.08a7.765 7.765 0 017.765 7.766V97.78a7.765 7.765 0 01-7.765 7.765h-4.08M96.643 88.446h9.605"/><g filter="url(#filter2_dii_9256_114869)"><rect width="28.809" height="31.756" fill="#F2F1F1" rx="2.253" transform="matrix(-1 0 0 1 132.819 71.323)"/></g><g filter="url(#filter3_di_9256_114869)"><rect width="11.42" height="11.393" fill="#4BBEFF" rx="2" transform="matrix(-1 0 0 1 124.125 78.099)"/></g><g filter="url(#filter4_ii_9256_114869)"><rect width="18.215" height="1.481" fill="url(#paint7_linear_9256_114869)" rx=".74" transform="matrix(-1 0 0 1 126.56 92.792)"/></g><g filter="url(#filter5_ii_9256_114869)"><rect width="11.479" height="1.625" fill="url(#paint8_linear_9256_114869)" rx=".813" transform="matrix(-1 0 0 1 123.467 96.058)"/></g><g filter="url(#filter6_dii_9256_114869)"><rect width="32.55" height="30.486" fill="#F2F1F1" rx="2.292" transform="matrix(-1 0 0 1 85.37 56.173)"/></g><g filter="url(#filter7_dii_9256_114869)"><rect width="31.994" height="29.966" fill="#F2F1F1" rx="2.253" transform="matrix(-1 0 0 1 84.813 87.724)"/></g><g filter="url(#filter8_di_9256_114869)"><ellipse fill="#92A2B1" rx="6.077" ry="6.063" transform="matrix(-1 0 0 1 69.095 68.126)"/></g><g filter="url(#filter9_di_9256_114869)"><path fill="#647A8E" d="M69.682 94.698a1 1 0 00-1.731 0l-5.305 9.166a1 1 0 00.866 1.501h10.61a1 1 0 00.865-1.501l-5.305-9.166z"/></g><g filter="url(#filter10_ii_9256_114869)"><rect width="14.209" height="1.231" x="57.292" y="79.925" fill="url(#paint9_linear_9256_114869)" rx=".615"/></g><g filter="url(#filter11_d_9256_114869)"><rect width="14.169" height="1.032" x="56.972" y="112.511" fill="#3E3E3E" rx=".516"/></g><g filter="url(#filter12_ii_9256_114869)"><rect width="14.396" height="1.247" x="56.843" y="112.298" fill="url(#paint10_linear_9256_114869)" rx=".623"/></g><g filter="url(#filter13_d_9256_114869)"><rect width="23.144" height="1.019" x="57.505" y="77.079" fill="#3E3E3E" rx=".509"/></g><g filter="url(#filter14_ii_9256_114869)"><rect width="23.515" height="1.231" x="57.293" y="76.868" fill="url(#paint11_linear_9256_114869)" rx=".615"/></g><g filter="url(#filter15_d_9256_114869)"><rect width="23.449" height="1.032" x="57.056" y="109.417" fill="#3E3E3E" rx=".516"/></g><g filter="url(#filter16_ii_9256_114869)"><rect width="23.825" height="1.247" x="56.843" y="109.202" fill="url(#paint12_linear_9256_114869)" rx=".623"/></g><g filter="url(#filter17_ii_9256_114869)"><path fill="#EAEAEA" d="M34.65 50.616a1.708 1.708 0 100-3.416 1.708 1.708 0 000 3.416z"/></g><g filter="url(#filter18_ii_9256_114869)"><path fill="#EAEAEA" d="M40.285 50.614a1.708 1.708 0 100-3.416 1.708 1.708 0 000 3.416z"/></g><g filter="url(#filter19_ii_9256_114869)"><path fill="#EAEAEA" d="M45.832 50.614a1.708 1.708 0 100-3.416 1.708 1.708 0 000 3.416z"/></g><g filter="url(#filter20_i_9256_114869)"><path fill="url(#paint13_linear_9256_114869)" d="M173.029 122.242c-.05-.013-.103-.022-.139-.058-.748-.74 1.474-10.652 1.685-11.393 1.075-3.767 2.856-7.434 5.72-10.123 2.027-1.903 7.442-5.628 10.253-3.439 2.368 1.848.149 6.487-.943 8.427-1.957 3.45-4.841 6.244-7.304 9.303-1.47 1.83-2.946 3.695-4.415 5.525-.095.125-.831 1.185-1.387 1.882-.362.456-.891.54-1.456.395l-2.014-.519z"/></g><g filter="url(#filter21_i_9256_114869)"><path fill="url(#paint14_linear_9256_114869)" d="M176.247 125.26c1.201.262 2.271-.756 2.024-1.961-1.372-6.692-5.945-24.277-15.65-21.079-8.803 2.932 10.105 20.197 12.856 22.653.222.198.48.323.77.387z"/></g><path fill="#77FFE4" fill-opacity=".2" d="M165.259 105.714s11.33 15.004 11.46 18.179l-11.46-18.179zM187.198 100.189s-9.31 12.05-10.322 17.399l10.322-17.399z"/><path fill="url(#paint15_linear_9256_114869)" d="M164.722 122.294a2.35 2.35 0 012.339-2.572h15.635a2.35 2.35 0 012.339 2.572l-1.749 18.414a2.35 2.35 0 01-2.34 2.128h-12.135a2.349 2.349 0 01-2.339-2.128l-1.75-18.414z"/><g filter="url(#filter22_i_9256_114869)"><rect width="22.305" height="5.571" x="163.726" y="119.722" fill="url(#paint16_linear_9256_114869)" rx="1.175"/></g><g filter="url(#filter23_f_9256_114869)"><ellipse cx="88.137" cy="143.275" fill="#000" fill-opacity=".37" rx="83.026" ry=".44"/></g><defs><filter id="filter0_iii_9256_114869" width="132.071" height="95.247" x="26.047" y="39.709" color-interpolation-filters="sRGB" filterUnits="userSpaceOnUse"><feFlood flood-opacity="0" result="BackgroundImageFix"/><feBlend in="SourceGraphic" in2="BackgroundImageFix" result="shape"/><feColorMatrix in="SourceAlpha" result="hardAlpha" values="0 0 0 0 0 0 0 0 0 0 0 0 0 0 0 0 0 0 127 0"/><feOffset dy="-.464"/><feGaussianBlur stdDeviation=".464"/><feComposite in2="hardAlpha" k2="-1" k3="1" operator="arithmetic"/><feColorMatrix values="0 0 0 0 0.089132 0 0 0 0 0.328429 0 0 0 0 0.629167 0 0 0 1 0"/><feBlend in2="shape" result="effect1_innerShadow_9256_114869"/><feColorMatrix in="SourceAlpha" result="hardAlpha" values="0 0 0 0 0 0 0 0 0 0 0 0 0 0 0 0 0 0 127 0"/><feOffset dy=".85"/><feGaussianBlur stdDeviation=".425"/><feComposite in2="hardAlpha" k2="-1" k3="1" operator="arithmetic"/><feColorMatrix values="0 0 0 0 0.641667 0 0 0 0 0.8495 0 0 0 0 1 0 0 0 1 0"/><feBlend in2="effect1_innerShadow_9256_114869" result="effect2_innerShadow_9256_114869"/><feColorMatrix in="SourceAlpha" result="hardAlpha" values="0 0 0 0 0 0 0 0 0 0 0 0 0 0 0 0 0 0 127 0"/><feOffset dx="-.773"/><feGaussianBlur stdDeviation=".386"/><feComposite in2="hardAlpha" k2="-1" k3="1" operator="arithmetic"/><feColorMatrix values="0 0 0 0 0 0 0 0 0 0 0 0 0 0 0 0 0 0 0.25 0"/><feBlend in2="effect2_innerShadow_9256_114869" result="effect3_innerShadow_9256_114869"/></filter><filter id="filter1_dii_9256_114869" width="25.244" height="4.684" x="27.909" y="48.66" color-interpolation-filters="sRGB" filterUnits="userSpaceOnUse"><feFlood flood-opacity="0" result="BackgroundImageFix"/><feColorMatrix in="SourceAlpha" result="hardAlpha" values="0 0 0 0 0 0 0 0 0 0 0 0 0 0 0 0 0 0 127 0"/><feOffset dy=".93"/><feGaussianBlur stdDeviation=".465"/><feColorMatrix values="0 0 0 0 0 0 0 0 0 0 0 0 0 0 0 0 0 0 0.07 0"/><feBlend in2="BackgroundImageFix" result="effect1_dropShadow_9256_114869"/><feBlend in="SourceGraphic" in2="effect1_dropShadow_9256_114869" result="shape"/><feColorMatrix in="SourceAlpha" result="hardAlpha" values="0 0 0 0 0 0 0 0 0 0 0 0 0 0 0 0 0 0 127 0"/><feOffset dx=".93" dy="1.023"/><feGaussianBlur stdDeviation=".558"/><feComposite in2="hardAlpha" k2="-1" k3="1" operator="arithmetic"/><feColorMatrix values="0 0 0 0 1 0 0 0 0 1 0 0 0 0 1 0 0 0 1 0"/><feBlend in2="shape" result="effect2_innerShadow_9256_114869"/><feColorMatrix in="SourceAlpha" result="hardAlpha" values="0 0 0 0 0 0 0 0 0 0 0 0 0 0 0 0 0 0 127 0"/><feOffset dx="-1.023" dy="-.558"/><feGaussianBlur stdDeviation=".465"/><feComposite in2="hardAlpha" k2="-1" k3="1" operator="arithmetic"/><feColorMatrix values="0 0 0 0 0.833333 0 0 0 0 0.833333 0 0 0 0 0.833333 0 0 0 1 0"/><feBlend in2="effect2_innerShadow_9256_114869" result="effect3_innerShadow_9256_114869"/></filter><filter id="filter2_dii_9256_114869" width="46.355" height="49.302" x="92.687" y="67.651" color-interpolation-filters="sRGB" filterUnits="userSpaceOnUse"><feFlood flood-opacity="0" result="BackgroundImageFix"/><feColorMatrix in="SourceAlpha" result="hardAlpha" values="0 0 0 0 0 0 0 0 0 0 0 0 0 0 0 0 0 0 127 0"/><feOffset dx="-2.55" dy="5.101"/><feGaussianBlur stdDeviation="4.386"/><feColorMatrix values="0 0 0 0 0 0 0 0 0 0 0 0 0 0 0 0 0 0 0.25 0"/><feBlend in2="BackgroundImageFix" result="effect1_dropShadow_9256_114869"/><feBlend in="SourceGraphic" in2="effect1_dropShadow_9256_114869" result="shape"/><feColorMatrix in="SourceAlpha" result="hardAlpha" values="0 0 0 0 0 0 0 0 0 0 0 0 0 0 0 0 0 0 127 0"/><feOffset dx=".563" dy=".62"/><feGaussianBlur stdDeviation=".338"/><feComposite in2="hardAlpha" k2="-1" k3="1" operator="arithmetic"/><feColorMatrix values="0 0 0 0 1 0 0 0 0 1 0 0 0 0 1 0 0 0 1 0"/><feBlend in2="shape" result="effect2_innerShadow_9256_114869"/><feColorMatrix in="SourceAlpha" result="hardAlpha" values="0 0 0 0 0 0 0 0 0 0 0 0 0 0 0 0 0 0 127 0"/><feOffset dx="-.563" dy="-.338"/><feGaussianBlur stdDeviation=".056"/><feComposite in2="hardAlpha" k2="-1" k3="1" operator="arithmetic"/><feColorMatrix values="0 0 0 0 0.833333 0 0 0 0 0.833333 0 0 0 0 0.833333 0 0 0 1 0"/><feBlend in2="effect2_innerShadow_9256_114869" result="effect3_innerShadow_9256_114869"/></filter><filter id="filter3_di_9256_114869" width="12.966" height="13.093" x="111.932" y="77.635" color-interpolation-filters="sRGB" filterUnits="userSpaceOnUse"><feFlood flood-opacity="0" result="BackgroundImageFix"/><feColorMatrix in="SourceAlpha" result="hardAlpha" values="0 0 0 0 0 0 0 0 0 0 0 0 0 0 0 0 0 0 127 0"/><feOffset dy=".464"/><feGaussianBlur stdDeviation=".386"/><feColorMatrix values="0 0 0 0 0 0 0 0 0 0 0 0 0 0 0 0 0 0 0.25 0"/><feBlend in2="BackgroundImageFix" result="effect1_dropShadow_9256_114869"/><feBlend in="SourceGraphic" in2="effect1_dropShadow_9256_114869" result="shape"/><feColorMatrix in="SourceAlpha" result="hardAlpha" values="0 0 0 0 0 0 0 0 0 0 0 0 0 0 0 0 0 0 127 0"/><feOffset dx="-.155" dy="-.464"/><feGaussianBlur stdDeviation=".232"/><feComposite in2="hardAlpha" k2="-1" k3="1" operator="arithmetic"/><feColorMatrix values="0 0 0 0 0.0961458 0 0 0 0 0.412254 0 0 0 0 0.591667 0 0 0 1 0"/><feBlend in2="shape" result="effect2_innerShadow_9256_114869"/></filter><filter id="filter4_ii_9256_114869" width="18.902" height="2.226" x="108.231" y="92.678" color-interpolation-filters="sRGB" filterUnits="userSpaceOnUse"><feFlood flood-opacity="0" result="BackgroundImageFix"/><feBlend in="SourceGraphic" in2="BackgroundImageFix" result="shape"/><feColorMatrix in="SourceAlpha" result="hardAlpha" values="0 0 0 0 0 0 0 0 0 0 0 0 0 0 0 0 0 0 127 0"/><feOffset dx=".573" dy=".63"/><feGaussianBlur stdDeviation=".344"/><feComposite in2="hardAlpha" k2="-1" k3="1" operator="arithmetic"/><feColorMatrix values="0 0 0 0 1 0 0 0 0 1 0 0 0 0 1 0 0 0 1 0"/><feBlend in2="shape" result="effect1_innerShadow_9256_114869"/><feColorMatrix in="SourceAlpha" result="hardAlpha" values="0 0 0 0 0 0 0 0 0 0 0 0 0 0 0 0 0 0 127 0"/><feOffset dx="-.573" dy="-.344"/><feGaussianBlur stdDeviation=".057"/><feComposite in2="hardAlpha" k2="-1" k3="1" operator="arithmetic"/><feColorMatrix values="0 0 0 0 0.833333 0 0 0 0 0.833333 0 0 0 0 0.833333 0 0 0 1 0"/><feBlend in2="effect1_innerShadow_9256_114869" result="effect2_innerShadow_9256_114869"/></filter><filter id="filter5_ii_9256_114869" width="12.167" height="2.37" x="111.873" y="95.943" color-interpolation-filters="sRGB" filterUnits="userSpaceOnUse"><feFlood flood-opacity="0" result="BackgroundImageFix"/><feBlend in="SourceGraphic" in2="BackgroundImageFix" result="shape"/><feColorMatrix in="SourceAlpha" result="hardAlpha" values="0 0 0 0 0 0 0 0 0 0 0 0 0 0 0 0 0 0 127 0"/><feOffset dx=".573" dy=".63"/><feGaussianBlur stdDeviation=".344"/><feComposite in2="hardAlpha" k2="-1" k3="1" operator="arithmetic"/><feColorMatrix values="0 0 0 0 1 0 0 0 0 1 0 0 0 0 1 0 0 0 1 0"/><feBlend in2="shape" result="effect1_innerShadow_9256_114869"/><feColorMatrix in="SourceAlpha" result="hardAlpha" values="0 0 0 0 0 0 0 0 0 0 0 0 0 0 0 0 0 0 127 0"/><feOffset dx="-.573" dy="-.344"/><feGaussianBlur stdDeviation=".057"/><feComposite in2="hardAlpha" k2="-1" k3="1" operator="arithmetic"/><feColorMatrix values="0 0 0 0 0.833333 0 0 0 0 0.833333 0 0 0 0 0.833333 0 0 0 1 0"/><feBlend in2="effect1_innerShadow_9256_114869" result="effect2_innerShadow_9256_114869"/></filter><filter id="filter6_dii_9256_114869" width="50.4" height="48.337" x="41.3" y="52.437" color-interpolation-filters="sRGB" filterUnits="userSpaceOnUse"><feFlood flood-opacity="0" result="BackgroundImageFix"/><feColorMatrix in="SourceAlpha" result="hardAlpha" values="0 0 0 0 0 0 0 0 0 0 0 0 0 0 0 0 0 0 127 0"/><feOffset dx="-2.595" dy="5.189"/><feGaussianBlur stdDeviation="4.463"/><feColorMatrix values="0 0 0 0 0 0 0 0 0 0 0 0 0 0 0 0 0 0 0.25 0"/><feBlend in2="BackgroundImageFix" result="effect1_dropShadow_9256_114869"/><feBlend in="SourceGraphic" in2="effect1_dropShadow_9256_114869" result="shape"/><feColorMatrix in="SourceAlpha" result="hardAlpha" values="0 0 0 0 0 0 0 0 0 0 0 0 0 0 0 0 0 0 127 0"/><feOffset dx=".573" dy=".63"/><feGaussianBlur stdDeviation=".344"/><feComposite in2="hardAlpha" k2="-1" k3="1" operator="arithmetic"/><feColorMatrix values="0 0 0 0 1 0 0 0 0 1 0 0 0 0 1 0 0 0 1 0"/><feBlend in2="shape" result="effect2_innerShadow_9256_114869"/><feColorMatrix in="SourceAlpha" result="hardAlpha" values="0 0 0 0 0 0 0 0 0 0 0 0 0 0 0 0 0 0 127 0"/><feOffset dx="-.573" dy="-.344"/><feGaussianBlur stdDeviation=".057"/><feComposite in2="hardAlpha" k2="-1" k3="1" operator="arithmetic"/><feColorMatrix values="0 0 0 0 0.833333 0 0 0 0 0.833333 0 0 0 0 0.833333 0 0 0 1 0"/><feBlend in2="effect2_innerShadow_9256_114869" result="effect3_innerShadow_9256_114869"/></filter><filter id="filter7_dii_9256_114869" width="49.541" height="47.512" x="41.496" y="84.052" color-interpolation-filters="sRGB" filterUnits="userSpaceOnUse"><feFlood flood-opacity="0" result="BackgroundImageFix"/><feColorMatrix in="SourceAlpha" result="hardAlpha" values="0 0 0 0 0 0 0 0 0 0 0 0 0 0 0 0 0 0 127 0"/><feOffset dx="-2.55" dy="5.101"/><feGaussianBlur stdDeviation="4.386"/><feColorMatrix values="0 0 0 0 0 0 0 0 0 0 0 0 0 0 0 0 0 0 0.25 0"/><feBlend in2="BackgroundImageFix" result="effect1_dropShadow_9256_114869"/><feBlend in="SourceGraphic" in2="effect1_dropShadow_9256_114869" result="shape"/><feColorMatrix in="SourceAlpha" result="hardAlpha" values="0 0 0 0 0 0 0 0 0 0 0 0 0 0 0 0 0 0 127 0"/><feOffset dx=".563" dy=".62"/><feGaussianBlur stdDeviation=".338"/><feComposite in2="hardAlpha" k2="-1" k3="1" operator="arithmetic"/><feColorMatrix values="0 0 0 0 1 0 0 0 0 1 0 0 0 0 1 0 0 0 1 0"/><feBlend in2="shape" result="effect2_innerShadow_9256_114869"/><feColorMatrix in="SourceAlpha" result="hardAlpha" values="0 0 0 0 0 0 0 0 0 0 0 0 0 0 0 0 0 0 127 0"/><feOffset dx="-.563" dy="-.338"/><feGaussianBlur stdDeviation=".056"/><feComposite in2="hardAlpha" k2="-1" k3="1" operator="arithmetic"/><feColorMatrix values="0 0 0 0 0.833333 0 0 0 0 0.833333 0 0 0 0 0.833333 0 0 0 1 0"/><feBlend in2="effect2_innerShadow_9256_114869" result="effect3_innerShadow_9256_114869"/></filter><filter id="filter8_di_9256_114869" width="13.699" height="13.825" x="62.245" y="61.6" color-interpolation-filters="sRGB" filterUnits="userSpaceOnUse"><feFlood flood-opacity="0" result="BackgroundImageFix"/><feColorMatrix in="SourceAlpha" result="hardAlpha" values="0 0 0 0 0 0 0 0 0 0 0 0 0 0 0 0 0 0 127 0"/><feOffset dy=".464"/><feGaussianBlur stdDeviation=".386"/><feColorMatrix values="0 0 0 0 0 0 0 0 0 0 0 0 0 0 0 0 0 0 0.25 0"/><feBlend in2="BackgroundImageFix" result="effect1_dropShadow_9256_114869"/><feBlend in="SourceGraphic" in2="effect1_dropShadow_9256_114869" result="shape"/><feColorMatrix in="SourceAlpha" result="hardAlpha" values="0 0 0 0 0 0 0 0 0 0 0 0 0 0 0 0 0 0 127 0"/><feOffset dx="-.155" dy="-.464"/><feGaussianBlur stdDeviation=".232"/><feComposite in2="hardAlpha" k2="-1" k3="1" operator="arithmetic"/><feColorMatrix values="0 0 0 0 0.392157 0 0 0 0 0.478431 0 0 0 0 0.556863 0 0 0 1 0"/><feBlend in2="shape" result="effect2_innerShadow_9256_114869"/></filter><filter id="filter9_di_9256_114869" width="14.158" height="12.866" x="61.738" y="93.735" color-interpolation-filters="sRGB" filterUnits="userSpaceOnUse"><feFlood flood-opacity="0" result="BackgroundImageFix"/><feColorMatrix in="SourceAlpha" result="hardAlpha" values="0 0 0 0 0 0 0 0 0 0 0 0 0 0 0 0 0 0 127 0"/><feOffset dy=".464"/><feGaussianBlur stdDeviation=".386"/><feColorMatrix values="0 0 0 0 0 0 0 0 0 0 0 0 0 0 0 0 0 0 0.25 0"/><feBlend in2="BackgroundImageFix" result="effect1_dropShadow_9256_114869"/><feBlend in="SourceGraphic" in2="effect1_dropShadow_9256_114869" result="shape"/><feColorMatrix in="SourceAlpha" result="hardAlpha" values="0 0 0 0 0 0 0 0 0 0 0 0 0 0 0 0 0 0 127 0"/><feOffset dx="-.155" dy="-.464"/><feGaussianBlur stdDeviation=".232"/><feComposite in2="hardAlpha" k2="-1" k3="1" operator="arithmetic"/><feColorMatrix values="0 0 0 0 0.278431 0 0 0 0 0.345098 0 0 0 0 0.403922 0 0 0 1 0"/><feBlend in2="shape" result="effect2_innerShadow_9256_114869"/></filter><filter id="filter10_ii_9256_114869" width="14.896" height="1.976" x="57.177" y="79.81" color-interpolation-filters="sRGB" filterUnits="userSpaceOnUse"><feFlood flood-opacity="0" result="BackgroundImageFix"/><feBlend in="SourceGraphic" in2="BackgroundImageFix" result="shape"/><feColorMatrix in="SourceAlpha" result="hardAlpha" values="0 0 0 0 0 0 0 0 0 0 0 0 0 0 0 0 0 0 127 0"/><feOffset dx=".573" dy=".63"/><feGaussianBlur stdDeviation=".344"/><feComposite in2="hardAlpha" k2="-1" k3="1" operator="arithmetic"/><feColorMatrix values="0 0 0 0 1 0 0 0 0 1 0 0 0 0 1 0 0 0 1 0"/><feBlend in2="shape" result="effect1_innerShadow_9256_114869"/><feColorMatrix in="SourceAlpha" result="hardAlpha" values="0 0 0 0 0 0 0 0 0 0 0 0 0 0 0 0 0 0 127 0"/><feOffset dx="-.573" dy="-.344"/><feGaussianBlur stdDeviation=".057"/><feComposite in2="hardAlpha" k2="-1" k3="1" operator="arithmetic"/><feColorMatrix values="0 0 0 0 0.833333 0 0 0 0 0.833333 0 0 0 0 0.833333 0 0 0 1 0"/><feBlend in2="effect1_innerShadow_9256_114869" result="effect2_innerShadow_9256_114869"/></filter><filter id="filter11_d_9256_114869" width="14.633" height="1.497" x="56.74" y="112.337" color-interpolation-filters="sRGB" filterUnits="userSpaceOnUse"><feFlood flood-opacity="0" result="BackgroundImageFix"/><feColorMatrix in="SourceAlpha" result="hardAlpha" values="0 0 0 0 0 0 0 0 0 0 0 0 0 0 0 0 0 0 127 0"/><feOffset dy=".058"/><feGaussianBlur stdDeviation=".116"/><feColorMatrix values="0 0 0 0 0 0 0 0 0 0 0 0 0 0 0 0 0 0 0.48 0"/><feBlend in2="BackgroundImageFix" result="effect1_dropShadow_9256_114869"/><feBlend in="SourceGraphic" in2="effect1_dropShadow_9256_114869" result="shape"/></filter><filter id="filter12_ii_9256_114869" width="15.093" height="2.002" x="56.727" y="112.182" color-interpolation-filters="sRGB" filterUnits="userSpaceOnUse"><feFlood flood-opacity="0" result="BackgroundImageFix"/><feBlend in="SourceGraphic" in2="BackgroundImageFix" result="shape"/><feColorMatrix in="SourceAlpha" result="hardAlpha" values="0 0 0 0 0 0 0 0 0 0 0 0 0 0 0 0 0 0 127 0"/><feOffset dx=".581" dy=".639"/><feGaussianBlur stdDeviation=".348"/><feComposite in2="hardAlpha" k2="-1" k3="1" operator="arithmetic"/><feColorMatrix values="0 0 0 0 1 0 0 0 0 1 0 0 0 0 1 0 0 0 1 0"/><feBlend in2="shape" result="effect1_innerShadow_9256_114869"/><feColorMatrix in="SourceAlpha" result="hardAlpha" values="0 0 0 0 0 0 0 0 0 0 0 0 0 0 0 0 0 0 127 0"/><feOffset dx="-.581" dy="-.348"/><feGaussianBlur stdDeviation=".058"/><feComposite in2="hardAlpha" k2="-1" k3="1" operator="arithmetic"/><feColorMatrix values="0 0 0 0 0.833333 0 0 0 0 0.833333 0 0 0 0 0.833333 0 0 0 1 0"/><feBlend in2="effect1_innerShadow_9256_114869" result="effect2_innerShadow_9256_114869"/></filter><filter id="filter13_d_9256_114869" width="23.602" height="1.477" x="57.276" y="76.907" color-interpolation-filters="sRGB" filterUnits="userSpaceOnUse"><feFlood flood-opacity="0" result="BackgroundImageFix"/><feColorMatrix in="SourceAlpha" result="hardAlpha" values="0 0 0 0 0 0 0 0 0 0 0 0 0 0 0 0 0 0 127 0"/><feOffset dy=".057"/><feGaussianBlur stdDeviation=".115"/><feColorMatrix values="0 0 0 0 0 0 0 0 0 0 0 0 0 0 0 0 0 0 0.48 0"/><feBlend in2="BackgroundImageFix" result="effect1_dropShadow_9256_114869"/><feBlend in="SourceGraphic" in2="effect1_dropShadow_9256_114869" result="shape"/></filter><filter id="filter14_ii_9256_114869" width="24.203" height="1.976" x="57.178" y="76.754" color-interpolation-filters="sRGB" filterUnits="userSpaceOnUse"><feFlood flood-opacity="0" result="BackgroundImageFix"/><feBlend in="SourceGraphic" in2="BackgroundImageFix" result="shape"/><feColorMatrix in="SourceAlpha" result="hardAlpha" values="0 0 0 0 0 0 0 0 0 0 0 0 0 0 0 0 0 0 127 0"/><feOffset dx=".573" dy=".63"/><feGaussianBlur stdDeviation=".344"/><feComposite in2="hardAlpha" k2="-1" k3="1" operator="arithmetic"/><feColorMatrix values="0 0 0 0 1 0 0 0 0 1 0 0 0 0 1 0 0 0 1 0"/><feBlend in2="shape" result="effect1_innerShadow_9256_114869"/><feColorMatrix in="SourceAlpha" result="hardAlpha" values="0 0 0 0 0 0 0 0 0 0 0 0 0 0 0 0 0 0 127 0"/><feOffset dx="-.573" dy="-.344"/><feGaussianBlur stdDeviation=".057"/><feComposite in2="hardAlpha" k2="-1" k3="1" operator="arithmetic"/><feColorMatrix values="0 0 0 0 0.833333 0 0 0 0 0.833333 0 0 0 0 0.833333 0 0 0 1 0"/><feBlend in2="effect1_innerShadow_9256_114869" result="effect2_innerShadow_9256_114869"/></filter><filter id="filter15_d_9256_114869" width="23.913" height="1.497" x="56.824" y="109.243" color-interpolation-filters="sRGB" filterUnits="userSpaceOnUse"><feFlood flood-opacity="0" result="BackgroundImageFix"/><feColorMatrix in="SourceAlpha" result="hardAlpha" values="0 0 0 0 0 0 0 0 0 0 0 0 0 0 0 0 0 0 127 0"/><feOffset dy=".058"/><feGaussianBlur stdDeviation=".116"/><feColorMatrix values="0 0 0 0 0 0 0 0 0 0 0 0 0 0 0 0 0 0 0.48 0"/><feBlend in2="BackgroundImageFix" result="effect1_dropShadow_9256_114869"/><feBlend in="SourceGraphic" in2="effect1_dropShadow_9256_114869" result="shape"/></filter><filter id="filter16_ii_9256_114869" width="24.522" height="2.002" x="56.727" y="109.086" color-interpolation-filters="sRGB" filterUnits="userSpaceOnUse"><feFlood flood-opacity="0" result="BackgroundImageFix"/><feBlend in="SourceGraphic" in2="BackgroundImageFix" result="shape"/><feColorMatrix in="SourceAlpha" result="hardAlpha" values="0 0 0 0 0 0 0 0 0 0 0 0 0 0 0 0 0 0 127 0"/><feOffset dx=".581" dy=".639"/><feGaussianBlur stdDeviation=".348"/><feComposite in2="hardAlpha" k2="-1" k3="1" operator="arithmetic"/><feColorMatrix values="0 0 0 0 1 0 0 0 0 1 0 0 0 0 1 0 0 0 1 0"/><feBlend in2="shape" result="effect1_innerShadow_9256_114869"/><feColorMatrix in="SourceAlpha" result="hardAlpha" values="0 0 0 0 0 0 0 0 0 0 0 0 0 0 0 0 0 0 127 0"/><feOffset dx="-.581" dy="-.348"/><feGaussianBlur stdDeviation=".058"/><feComposite in2="hardAlpha" k2="-1" k3="1" operator="arithmetic"/><feColorMatrix values="0 0 0 0 0.833333 0 0 0 0 0.833333 0 0 0 0 0.833333 0 0 0 1 0"/><feBlend in2="effect1_innerShadow_9256_114869" result="effect2_innerShadow_9256_114869"/></filter><filter id="filter17_ii_9256_114869" width="3.699" height="3.699" x="32.753" y="47.011" color-interpolation-filters="sRGB" filterUnits="userSpaceOnUse"><feFlood flood-opacity="0" result="BackgroundImageFix"/><feBlend in="SourceGraphic" in2="BackgroundImageFix" result="shape"/><feColorMatrix in="SourceAlpha" result="hardAlpha" values="0 0 0 0 0 0 0 0 0 0 0 0 0 0 0 0 0 0 127 0"/><feOffset dx=".189" dy=".189"/><feGaussianBlur stdDeviation=".047"/><feComposite in2="hardAlpha" k2="-1" k3="1" operator="arithmetic"/><feColorMatrix values="0 0 0 0 1 0 0 0 0 1 0 0 0 0 1 0 0 0 1 0"/><feBlend in2="shape" result="effect1_innerShadow_9256_114869"/><feColorMatrix in="SourceAlpha" result="hardAlpha" values="0 0 0 0 0 0 0 0 0 0 0 0 0 0 0 0 0 0 127 0"/><feOffset dx="-.189" dy="-.189"/><feGaussianBlur stdDeviation=".095"/><feComposite in2="hardAlpha" k2="-1" k3="1" operator="arithmetic"/><feColorMatrix values="0 0 0 0 0.658333 0 0 0 0 0.658333 0 0 0 0 0.658333 0 0 0 1 0"/><feBlend in2="effect1_innerShadow_9256_114869" result="effect2_innerShadow_9256_114869"/></filter><filter id="filter18_ii_9256_114869" width="3.699" height="3.699" x="38.388" y="47.009" color-interpolation-filters="sRGB" filterUnits="userSpaceOnUse"><feFlood flood-opacity="0" result="BackgroundImageFix"/><feBlend in="SourceGraphic" in2="BackgroundImageFix" result="shape"/><feColorMatrix in="SourceAlpha" result="hardAlpha" values="0 0 0 0 0 0 0 0 0 0 0 0 0 0 0 0 0 0 127 0"/><feOffset dx=".189" dy=".189"/><feGaussianBlur stdDeviation=".047"/><feComposite in2="hardAlpha" k2="-1" k3="1" operator="arithmetic"/><feColorMatrix values="0 0 0 0 1 0 0 0 0 1 0 0 0 0 1 0 0 0 1 0"/><feBlend in2="shape" result="effect1_innerShadow_9256_114869"/><feColorMatrix in="SourceAlpha" result="hardAlpha" values="0 0 0 0 0 0 0 0 0 0 0 0 0 0 0 0 0 0 127 0"/><feOffset dx="-.189" dy="-.189"/><feGaussianBlur stdDeviation=".095"/><feComposite in2="hardAlpha" k2="-1" k3="1" operator="arithmetic"/><feColorMatrix values="0 0 0 0 0.658333 0 0 0 0 0.658333 0 0 0 0 0.658333 0 0 0 1 0"/><feBlend in2="effect1_innerShadow_9256_114869" result="effect2_innerShadow_9256_114869"/></filter><filter id="filter19_ii_9256_114869" width="3.699" height="3.699" x="43.935" y="47.009" color-interpolation-filters="sRGB" filterUnits="userSpaceOnUse"><feFlood flood-opacity="0" result="BackgroundImageFix"/><feBlend in="SourceGraphic" in2="BackgroundImageFix" result="shape"/><feColorMatrix in="SourceAlpha" result="hardAlpha" values="0 0 0 0 0 0 0 0 0 0 0 0 0 0 0 0 0 0 127 0"/><feOffset dx=".189" dy=".189"/><feGaussianBlur stdDeviation=".047"/><feComposite in2="hardAlpha" k2="-1" k3="1" operator="arithmetic"/><feColorMatrix values="0 0 0 0 1 0 0 0 0 1 0 0 0 0 1 0 0 0 1 0"/><feBlend in2="shape" result="effect1_innerShadow_9256_114869"/><feColorMatrix in="SourceAlpha" result="hardAlpha" values="0 0 0 0 0 0 0 0 0 0 0 0 0 0 0 0 0 0 127 0"/><feOffset dx="-.189" dy="-.189"/><feGaussianBlur stdDeviation=".095"/><feComposite in2="hardAlpha" k2="-1" k3="1" operator="arithmetic"/><feColorMatrix values="0 0 0 0 0.658333 0 0 0 0 0.658333 0 0 0 0 0.658333 0 0 0 1 0"/><feBlend in2="effect1_innerShadow_9256_114869" result="effect2_innerShadow_9256_114869"/></filter><filter id="filter20_i_9256_114869" width="19.99" height="26.696" x="172.737" y="96.13" color-interpolation-filters="sRGB" filterUnits="userSpaceOnUse"><feFlood flood-opacity="0" result="BackgroundImageFix"/><feBlend in="SourceGraphic" in2="BackgroundImageFix" result="shape"/><feColorMatrix in="SourceAlpha" result="hardAlpha" values="0 0 0 0 0 0 0 0 0 0 0 0 0 0 0 0 0 0 127 0"/><feOffset dx="1.127" dy="-.431"/><feGaussianBlur stdDeviation="1.469"/><feComposite in2="hardAlpha" k2="-1" k3="1" operator="arithmetic"/><feColorMatrix values="0 0 0 0 0.113056 0 0 0 0 0.616667 0 0 0 0 0.58645 0 0 0 1 0"/><feBlend in2="shape" result="effect1_innerShadow_9256_114869"/></filter><filter id="filter21_i_9256_114869" width="19.131" height="23.897" x="160.303" y="101.404" color-interpolation-filters="sRGB" filterUnits="userSpaceOnUse"><feFlood flood-opacity="0" result="BackgroundImageFix"/><feBlend in="SourceGraphic" in2="BackgroundImageFix" result="shape"/><feColorMatrix in="SourceAlpha" result="hardAlpha" values="0 0 0 0 0 0 0 0 0 0 0 0 0 0 0 0 0 0 127 0"/><feOffset dx="1.127" dy="-.431"/><feGaussianBlur stdDeviation="1.469"/><feComposite in2="hardAlpha" k2="-1" k3="1" operator="arithmetic"/><feColorMatrix values="0 0 0 0 0.0996528 0 0 0 0 0.683333 0 0 0 0 0.555806 0 0 0 1 0"/><feBlend in2="shape" result="effect1_innerShadow_9256_114869"/></filter><filter id="filter22_i_9256_114869" width="22.775" height="5.924" x="163.726" y="119.37" color-interpolation-filters="sRGB" filterUnits="userSpaceOnUse"><feFlood flood-opacity="0" result="BackgroundImageFix"/><feBlend in="SourceGraphic" in2="BackgroundImageFix" result="shape"/><feColorMatrix in="SourceAlpha" result="hardAlpha" values="0 0 0 0 0 0 0 0 0 0 0 0 0 0 0 0 0 0 127 0"/><feOffset dx=".47" dy="-.353"/><feGaussianBlur stdDeviation=".411"/><feComposite in2="hardAlpha" k2="-1" k3="1" operator="arithmetic"/><feColorMatrix values="0 0 0 0 0.833333 0 0 0 0 0.604343 0 0 0 0 0.0555555 0 0 0 1 0"/><feBlend in2="shape" result="effect1_innerShadow_9256_114869"/></filter><filter id="filter23_f_9256_114869" width="169.62" height="4.447" x="3.327" y="141.052" color-interpolation-filters="sRGB" filterUnits="userSpaceOnUse"><feFlood flood-opacity="0" result="BackgroundImageFix"/><feBlend in="SourceGraphic" in2="BackgroundImageFix" result="shape"/><feGaussianBlur result="effect1_foregroundBlur_9256_114869" stdDeviation=".892"/></filter><linearGradient id="paint0_linear_9256_114869" x1="93.573" x2="93.573" y1=".173" y2="159.827" gradientUnits="userSpaceOnUse"><stop stop-color="#B5EFFF"/><stop offset="1" stop-color="#E7F8FE"/></linearGradient><linearGradient id="paint1_linear_9256_114869" x1="92.563" x2="92.563" y1=".173" y2="158.894" gradientUnits="userSpaceOnUse"><stop stop-color="#B5EFFF"/><stop offset="1" stop-color="#EDFBFF"/></linearGradient><linearGradient id="paint6_linear_9256_114869" x1="30.786" x2="30.872" y1="49.218" y2="51.806" gradientUnits="userSpaceOnUse"><stop stop-color="#fff"/><stop offset=".271" stop-color="#fff"/><stop offset="1" stop-color="#B8B8B8"/></linearGradient><linearGradient id="paint7_linear_9256_114869" x1="1.517" x2="1.564" y1="0" y2="1.692" gradientUnits="userSpaceOnUse"><stop stop-color="#F1F1F1"/><stop offset="1" stop-color="#F8F8F8"/></linearGradient><linearGradient id="paint8_linear_9256_114869" x1=".956" x2="1.046" y1="0" y2="1.854" gradientUnits="userSpaceOnUse"><stop stop-color="#F1F1F1"/><stop offset="1" stop-color="#F8F8F8"/></linearGradient><linearGradient id="paint9_linear_9256_114869" x1="58.475" x2="58.517" y1="79.925" y2="81.331" gradientUnits="userSpaceOnUse"><stop stop-color="#F1F1F1"/><stop offset="1" stop-color="#F8F8F8"/></linearGradient><linearGradient id="paint10_linear_9256_114869" x1="58.041" x2="58.084" y1="112.298" y2="113.722" gradientUnits="userSpaceOnUse"><stop stop-color="#F1F1F1"/><stop offset="1" stop-color="#F8F8F8"/></linearGradient><linearGradient id="paint11_linear_9256_114869" x1="59.251" x2="59.276" y1="76.868" y2="78.275" gradientUnits="userSpaceOnUse"><stop stop-color="#F1F1F1"/><stop offset="1" stop-color="#F8F8F8"/></linearGradient><linearGradient id="paint12_linear_9256_114869" x1="58.826" x2="58.852" y1="109.202" y2="110.627" gradientUnits="userSpaceOnUse"><stop stop-color="#F1F1F1"/><stop offset="1" stop-color="#F8F8F8"/></linearGradient><linearGradient id="paint13_linear_9256_114869" x1="194.333" x2="173.054" y1="96.972" y2="115.807" gradientUnits="userSpaceOnUse"><stop stop-color="#BAFFF1" stop-opacity=".26"/><stop offset=".682" stop-color="#4DC7AE"/><stop offset=".969" stop-color="#06896F"/></linearGradient><linearGradient id="paint14_linear_9256_114869" x1="184.987" x2="171.936" y1="104.4" y2="126.063" gradientUnits="userSpaceOnUse"><stop stop-color="#B7FDEF"/><stop offset=".682" stop-color="#09B794"/><stop offset=".969" stop-color="#7EE0CC"/></linearGradient><linearGradient id="paint15_linear_9256_114869" x1="185.28" x2="165.962" y1="134.938" y2="134.938" gradientUnits="userSpaceOnUse"><stop offset=".099" stop-color="#FFEEC5"/><stop offset=".607" stop-color="#FACD63"/><stop offset=".839" stop-color="#EAAF23"/><stop offset=".984" stop-color="#EDB52F"/></linearGradient><linearGradient id="paint16_linear_9256_114869" x1="186.031" x2="165.318" y1="123.39" y2="123.39" gradientUnits="userSpaceOnUse"><stop offset=".099" stop-color="#FFEEC5"/><stop offset=".607" stop-color="#FCBD27"/><stop offset=".984" stop-color="#EFB222"/></linearGradient><radialGradient id="paint2_radial_9256_114869" cx="0" cy="0" r="1" gradientTransform="rotate(-15.177 375.662 26.507) scale(19.4355)" gradientUnits="userSpaceOnUse"><stop stop-color="#FFF1CF"/><stop offset=".188" stop-color="#FFE4A2"/><stop offset=".318" stop-color="#FFD364"/><stop offset=".49" stop-color="#FFD364"/><stop offset=".651" stop-color="#FFC73A"/><stop offset=".948" stop-color="#D09500"/></radialGradient><radialGradient id="paint3_radial_9256_114869" cx="0" cy="0" r="1" gradientTransform="matrix(-2.2486 3.61408 -3.29135 -2.0478 7.38 99.23)" gradientUnits="userSpaceOnUse"><stop stop-color="#fff"/><stop offset=".694" stop-color="#fff" stop-opacity="0"/></radialGradient><radialGradient id="paint4_radial_9256_114869" cx="0" cy="0" r="1" gradientTransform="rotate(-15.177 214.059 -595.255) scale(14.8345)" gradientUnits="userSpaceOnUse"><stop stop-color="#E6C6FF"/><stop offset=".188" stop-color="#C07DF5"/><stop offset=".318" stop-color="#BE6FFC"/><stop offset=".49" stop-color="#B56AF0"/><stop offset=".651" stop-color="#A745F4"/><stop offset=".948" stop-color="#9F3DED"/></radialGradient><radialGradient id="paint5_radial_9256_114869" cx="0" cy="0" r="1" gradientTransform="rotate(121.889 72.327 63.245) scale(3.24885 2.95873)" gradientUnits="userSpaceOnUse"><stop stop-color="#fff"/><stop offset=".694" stop-color="#fff" stop-opacity="0"/></radialGradient></defs></svg>