<svg width="150" height="150" viewBox="0 0 150 150" fill="none" xmlns="http://www.w3.org/2000/svg">
<path d="M134.061 134.189H139.551" stroke="#92A2B1" stroke-width="1.2" stroke-linecap="round" stroke-linejoin="round"/>
<path d="M104.07 134.189H128.1" stroke="#92A2B1" stroke-width="1.2" stroke-linecap="round" stroke-linejoin="round"/>
<path d="M10.5508 134.189H98.3608" stroke="#92A2B1" stroke-width="1.2" stroke-linecap="round" stroke-linejoin="round"/>
<path opacity="0.2" d="M75.0508 127.25C102.665 127.25 125.051 104.864 125.051 77.25C125.051 49.6358 102.665 27.25 75.0508 27.25C47.4365 27.25 25.0508 49.6358 25.0508 77.25C25.0508 104.864 47.4365 127.25 75.0508 127.25Z" fill="#BFC7D3"/>
<path d="M109.76 62.8898L81.6699 40.3098L87.6699 32.0098C88.1599 32.0098 88.9299 32.0798 89.7899 32.3598C94.0499 33.7698 95.7799 39.0698 96.4299 40.8698C98.0399 45.3398 101.59 52.0898 109.75 62.8798L109.76 62.8898Z" fill="white"/>
<path d="M87.0605 32.0898H90.8605" stroke="#A0ADB4" stroke-width="1.2" stroke-miterlimit="10"/>
<path d="M112.029 54.7498V117.7C112.029 119.91 110.239 121.7 108.029 121.7H46.0391C43.8291 121.7 42.0391 119.91 42.0391 117.7V36.0898C42.0391 33.8798 43.8291 32.0898 46.0391 32.0898H70.6991" fill="white"/>
<path d="M112.029 54.7498V117.7C112.029 119.91 110.239 121.7 108.029 121.7H46.0391C43.8291 121.7 42.0391 119.91 42.0391 117.7V36.0898C42.0391 33.8798 43.8291 32.0898 46.0391 32.0898H70.6991" stroke="#92A2B1" stroke-width="1.2" stroke-miterlimit="10"/>
<path d="M112.029 54.7498H95.1594C92.7794 54.7498 90.8594 52.7798 90.8594 50.3598V32.0898L112.029 54.7498Z" fill="#92A2B1" stroke="#92A2B1" stroke-width="1.2" stroke-linecap="round" stroke-linejoin="round"/>
<path d="M52.6094 45.8105H66.7294" stroke="#C4CCD4" stroke-width="1.2" stroke-linecap="round" stroke-linejoin="round"/>
<path d="M52.6094 53.0098H66.7294" stroke="#C4CCD4" stroke-width="1.2" stroke-linecap="round" stroke-linejoin="round"/>
<path d="M61.9102 99.2903C62.9202 98.3403 68.4102 93.3503 76.7702 93.6603C84.1702 93.9303 88.9202 98.1703 90.1002 99.2903" stroke="#C4CCD4" stroke-width="1.2" stroke-linecap="round" stroke-linejoin="round"/>
<path d="M62.3789 82.5602L69.8889 74.7402" stroke="#C4CCD4" stroke-width="1.2" stroke-linecap="round" stroke-linejoin="round"/>
<path d="M62.2188 74.8906L70.0387 82.4006" stroke="#C4CCD4" stroke-width="1.2" stroke-linecap="round" stroke-linejoin="round"/>
<path d="M82.4805 82.5602L89.9805 74.7402" stroke="#C4CCD4" stroke-width="1.2" stroke-linecap="round" stroke-linejoin="round"/>
<path d="M82.3203 74.8906L90.1403 82.4006" stroke="#C4CCD4" stroke-width="1.2" stroke-linecap="round" stroke-linejoin="round"/>
<path d="M70.7 32.0898L67 45.8898L75.1 52.0398V66.8798L85.77 46.8198L80.38 42.2898L87.06 32.0898" fill="#EFF2F4"/>
<path d="M70.7 32.0898L67 45.8898L75.1 52.0398V66.8798L85.77 46.8198L80.38 42.2898L87.06 32.0898" stroke="#A0ADB4" stroke-width="1.2" stroke-miterlimit="10" stroke-linecap="round"/>
<path d="M69.2188 19.8594L72.8487 24.6894" stroke="#92A2B1" stroke-width="1.2" stroke-linecap="round" stroke-linejoin="round"/>
<path d="M88.4201 21.9395L83.5801 25.5795" stroke="#92A2B1" stroke-width="1.2" stroke-linecap="round" stroke-linejoin="round"/>
<path d="M78.5698 16.0391L78.5098 22.0891" stroke="#92A2B1" stroke-width="1.2" stroke-linecap="round" stroke-linejoin="round"/>
</svg>
