<svg xmlns="http://www.w3.org/2000/svg" width="183" height="168" fill="none" viewBox="0 0 183 168"><g filter="url(#filter0_d_6542_93029)"><mask id="fs-k2h42qe6ra" style="mask-type:alpha" width="161" height="160" x="16" y="4" maskUnits="userSpaceOnUse"><path fill="url(#paint0_linear_6542_93029)" d="M96.754 163.654c44.087 0 79.827-35.74 79.827-79.827C176.581 39.74 140.841 4 96.754 4 52.667 4 16.927 39.74 16.927 83.827c0 44.087 35.74 79.827 79.827 79.827z"/></mask><g mask="url(#fs-k2h42qe6ra)"><path fill="url(#paint1_linear_6542_93029)" d="M95.744 162.721c44.082 0 79.817-35.531 79.817-79.36C175.561 39.53 139.826 4 95.744 4 51.663 4 15.927 39.53 15.927 83.36s35.736 79.361 79.817 79.361z"/><path fill="#fff" d="M122.734 46.66a5 5 0 00-5 5v196.6h201.599V46.66H122.734zm196.007 12.533h-12.039V47.154h12.039v12.039zm-99.961 75.39v-12.039h12.039v12.039H218.78zm12.039.592v12.039H218.78v-12.039h12.039zm-12.532-.592h-12.039v-12.039h12.039v12.039zm0 .592v12.039h-12.039v-12.039h12.039zm-12.631 12.039h-12.039v-12.039h12.039v12.039zm0 .493v12.039h-12.039v-12.039h12.039zm.592 0h12.039v12.039h-12.039v-12.039zm12.039 12.532v12.039h-12.039v-12.039h12.039zm.493 0h12.039v12.039H218.78v-12.039zm0-.493v-12.039h12.039v12.039H218.78zm12.532-12.039h12.039v12.039h-12.039v-12.039zm0-.493v-12.039h12.039v12.039h-12.039zm0-12.631v-12.039h12.039v12.039h-12.039zm0-12.532v-12.039h12.039v12.039h-12.039zm-.493 0H218.78v-12.039h12.039v12.039zm-12.532 0h-12.039v-12.039h12.039v12.039zm-12.631 0h-12.039v-12.039h12.039v12.039zm0 .493v12.039h-12.039v-12.039h12.039zm-12.532 12.039h-12.039v-12.039h12.039v12.039zm0 .592v12.039h-12.039v-12.039h12.039zm0 12.532v12.039h-12.039v-12.039h12.039zm0 12.532v12.039h-12.039v-12.039h12.039zm.493 0h12.039v12.039h-12.039v-12.039zm12.039 12.631v12.039h-12.039V172.87h12.039zm.592 0h12.039v12.039h-12.039V172.87zm12.532 0h12.039v12.039H218.78V172.87zm12.532 0h12.039v12.039h-12.039V172.87zm0-.592v-12.039h12.039v12.039h-12.039zm12.631-12.039h12.039v12.039h-12.039v-12.039zm0-.493v-12.039h12.039v12.039h-12.039zm0-12.532v-12.039h12.039v12.039h-12.039zm0-12.631v-12.039h12.039v12.039h-12.039zm0-12.532v-12.039h12.039v12.039h-12.039zm0-12.532V97.48h12.039v12.039h-12.039zm-.592 0h-12.039V97.48h12.039v12.039zm-12.532 0H218.78V97.48h12.039v12.039zm-12.532 0h-12.039V97.48h12.039v12.039zm-12.631 0h-12.039V97.48h12.039v12.039zm-12.532 0h-12.039V97.48h12.039v12.039zm0 .493v12.039h-12.039v-12.039h12.039zm-12.532 12.039h-12.039v-12.039h12.039v12.039zm0 .493v12.039h-12.039v-12.039h12.039zm0 12.631v12.039h-12.039v-12.039h12.039zm0 12.532v12.039h-12.039v-12.039h12.039zm0 12.532v12.039h-12.039v-12.039h12.039zm0 12.631v12.039h-12.039V172.87h12.039zm.493 0h12.039v12.039h-12.039V172.87zm12.039 12.532v12.039h-12.039v-12.039h12.039zm.493 0h12.039v12.039h-12.039v-12.039zm12.631 0h12.039v12.039h-12.039v-12.039zm12.532 0h12.039v12.039H218.78v-12.039zm12.532 0h12.039v12.039h-12.039v-12.039zm12.631 0h12.039v12.039h-12.039v-12.039zm0-.493V172.87h12.039v12.039h-12.039zm12.532-12.039h12.039v12.039h-12.039V172.87zm0-.592v-12.039h12.039v12.039h-12.039zm0-12.532v-12.039h12.039v12.039h-12.039zm0-12.532v-12.039h12.039v12.039h-12.039zm0-12.631v-12.039h12.039v12.039h-12.039zm0-12.532v-12.039h12.039v12.039h-12.039zm0-12.532V97.48h12.039v12.039h-12.039zm0-12.631V84.849h12.039v12.039h-12.039zm-.493 0h-12.039V84.849h12.039v12.039zm-12.631 0h-12.039V84.849h12.039v12.039zm-12.532 0H218.78V84.849h12.039v12.039zm-12.532 0h-12.039V84.849h12.039v12.039zm-12.631 0h-12.039V84.849h12.039v12.039zm-12.532 0h-12.039V84.849h12.039v12.039zm-12.532 0h-12.039V84.849h12.039v12.039zm0 .592v12.039h-12.039V97.48h12.039zm-12.631 12.039h-12.039V97.48h12.039v12.039zm0 .493v12.039h-12.039v-12.039h12.039zm0 12.532v12.039h-12.039v-12.039h12.039zm0 12.631v12.039h-12.039v-12.039h12.039zm0 12.532v12.039h-12.039v-12.039h12.039zm0 12.532v12.039h-12.039v-12.039h12.039zm0 12.631v12.039h-12.039V172.87h12.039zm0 12.532v12.039h-12.039v-12.039h12.039zm.592 0h12.039v12.039h-12.039v-12.039zm12.039 12.532v12.039h-12.039v-12.039h12.039zm.493 0h12.039v12.039h-12.039v-12.039zm12.532 0h12.039v12.039h-12.039v-12.039zm12.631 0h12.039v12.039h-12.039v-12.039zm12.532 0h12.039v12.039H218.78v-12.039zm12.532 0h12.039v12.039h-12.039v-12.039zm12.631 0h12.039v12.039h-12.039v-12.039zm12.532 0h12.039v12.039h-12.039v-12.039zm0-.493v-12.039h12.039v12.039h-12.039zm12.532-12.039h12.039v12.039h-12.039v-12.039zm0-.493V172.87h12.039v12.039h-12.039zm0-12.631v-12.039h12.039v12.039h-12.039zm0-12.532v-12.039h12.039v12.039h-12.039zm0-12.532v-12.039h12.039v12.039h-12.039zm0-12.631v-12.039h12.039v12.039h-12.039zm0-12.532v-12.039h12.039v12.039h-12.039zm0-12.532V97.48h12.039v12.039h-12.039zm0-12.631V84.849h12.039v12.039h-12.039zm0-12.532V72.317h12.039v12.039h-12.039zm-.493 0h-12.039V72.317h12.039v12.039zm-12.532 0h-12.039V72.317h12.039v12.039zm-12.631 0h-12.039V72.317h12.039v12.039zm-12.532 0H218.78V72.317h12.039v12.039zm-12.532 0h-12.039V72.317h12.039v12.039zm-12.631 0h-12.039V72.317h12.039v12.039zm-12.532 0h-12.039V72.317h12.039v12.039zm-12.532 0h-12.039V72.317h12.039v12.039zm-12.631 0h-12.039V72.317h12.039v12.039zm0 .493v12.039h-12.039V84.849h12.039zm-12.532 12.039H143.39V84.849h12.039v12.039zm0 .592v12.039H143.39V97.48h12.039zm0 12.532v12.039H143.39v-12.039h12.039zm0 12.532v12.039H143.39v-12.039h12.039zm0 12.631v12.039H143.39v-12.039h12.039zm0 12.532v12.039H143.39v-12.039h12.039zm0 12.532v12.039H143.39v-12.039h12.039zm0 12.631v12.039H143.39V172.87h12.039zm0 12.532v12.039H143.39v-12.039h12.039zm0 12.532v12.039H143.39v-12.039h12.039zm.493 0h12.039v12.039h-12.039v-12.039zm12.039 12.631v12.039h-12.039v-12.039h12.039zm.592 0h12.039v12.039h-12.039v-12.039zm12.532 0h12.039v12.039h-12.039v-12.039zm12.532 0h12.039v12.039h-12.039v-12.039zm12.631 0h12.039v12.039h-12.039v-12.039zm12.532 0h12.039v12.039H218.78v-12.039zm12.532 0h12.039v12.039h-12.039v-12.039zm12.631 0h12.039v12.039h-12.039v-12.039zm12.532 0h12.039v12.039h-12.039v-12.039zm12.532 0h12.039v12.039h-12.039v-12.039zm0-.592v-12.039h12.039v12.039h-12.039zm12.631-12.039h12.039v12.039h-12.039v-12.039zm0-.493v-12.039h12.039v12.039h-12.039zm0-12.532V172.87h12.039v12.039h-12.039zm0-12.631v-12.039h12.039v12.039h-12.039zm0-12.532v-12.039h12.039v12.039h-12.039zm0-12.532v-12.039h12.039v12.039h-12.039zm0-12.631v-12.039h12.039v12.039h-12.039zm0-12.532v-12.039h12.039v12.039h-12.039zm0-12.532V97.48h12.039v12.039h-12.039zm0-12.631V84.849h12.039v12.039h-12.039zm0-12.532V72.317h12.039v12.039h-12.039zm0-12.532V59.785h12.039v12.039h-12.039zm-.592 0h-12.039V59.785h12.039v12.039zm-12.532 0h-12.039V59.785h12.039v12.039zm-12.532 0h-12.039V59.785h12.039v12.039zm-12.631 0h-12.039V59.785h12.039v12.039zm-12.532 0H218.78V59.785h12.039v12.039zm-12.532 0h-12.039V59.785h12.039v12.039zm-12.631 0h-12.039V59.785h12.039v12.039zm-12.532 0h-12.039V59.785h12.039v12.039zm-12.532 0h-12.039V59.785h12.039v12.039zm-12.631 0h-12.039V59.785h12.039v12.039zm-12.532 0H143.39V59.785h12.039v12.039zm0 .493v12.039H143.39V72.317h12.039zm-12.532 12.039h-12.039V72.317h12.039v12.039zm0 .493v12.039h-12.039V84.849h12.039zm0 12.631v12.039h-12.039V97.48h12.039zm0 12.532v12.039h-12.039v-12.039h12.039zm0 12.532v12.039h-12.039v-12.039h12.039zm0 12.631v12.039h-12.039v-12.039h12.039zm0 12.532v12.039h-12.039v-12.039h12.039zm0 12.532v12.039h-12.039v-12.039h12.039zm0 12.631v12.039h-12.039V172.87h12.039zm0 12.532v12.039h-12.039v-12.039h12.039zm0 12.532v12.039h-12.039v-12.039h12.039zm0 12.631v12.039h-12.039v-12.039h12.039zm.493 0h12.039v12.039H143.39v-12.039zm12.039 12.532v12.039H143.39v-12.039h12.039zm.493 0h12.039v12.039h-12.039v-12.039zm12.631 0h12.039v12.039h-12.039v-12.039zm12.532 0h12.039v12.039h-12.039v-12.039zm12.532 0h12.039v12.039h-12.039v-12.039zm12.631 0h12.039v12.039h-12.039v-12.039zm12.532 0h12.039v12.039H218.78v-12.039zm12.532 0h12.039v12.039h-12.039v-12.039zm12.631 0h12.039v12.039h-12.039v-12.039zm12.532 0h12.039v12.039h-12.039v-12.039zm12.532 0h12.039v12.039h-12.039v-12.039zm12.631 0h12.039v12.039h-12.039v-12.039zm0-.493v-12.039h12.039v12.039h-12.039zm12.532-12.039h12.039v12.039H294.17v-12.039zm0-.592v-12.039h12.039v12.039H294.17zm0-12.532v-12.039h12.039v12.039H294.17zm0-12.532V172.87h12.039v12.039H294.17zm0-12.631v-12.039h12.039v12.039H294.17zm0-12.532v-12.039h12.039v12.039H294.17zm0-12.532v-12.039h12.039v12.039H294.17zm0-12.631v-12.039h12.039v12.039H294.17zm0-12.532v-12.039h12.039v12.039H294.17zm0-12.532V97.48h12.039v12.039H294.17zm0-12.631V84.849h12.039v12.039H294.17zm0-12.532V72.317h12.039v12.039H294.17zm0-12.532V59.785h12.039v12.039H294.17zm0-12.631V47.154h12.039v12.039H294.17zm-.493 0h-12.039V47.154h12.039v12.039zm-12.631 0h-12.039V47.154h12.039v12.039zm-12.532 0h-12.039V47.154h12.039v12.039zm-12.532 0h-12.039V47.154h12.039v12.039zm-12.631 0h-12.039V47.154h12.039v12.039zm-12.532 0H218.78V47.154h12.039v12.039zm-12.532 0h-12.039V47.154h12.039v12.039zm-12.631 0h-12.039V47.154h12.039v12.039zm-12.532 0h-12.039V47.154h12.039v12.039zm-12.532 0h-12.039V47.154h12.039v12.039zm-12.631 0h-12.039V47.154h12.039v12.039zm-12.532 0H143.39V47.154h12.039v12.039zm-12.532 0h-12.039V47.154h12.039v12.039zm0 .592v12.039h-12.039V59.785h12.039zm-12.631 12.039h-12.039V59.785h12.039v12.039zm0 .493v12.039h-12.039V72.317h12.039zm0 12.532v12.039h-12.039V84.849h12.039zm0 12.631v12.039h-12.039V97.48h12.039zm0 12.532v12.039h-12.039v-12.039h12.039zm0 12.532v12.039h-12.039v-12.039h12.039zm0 12.631v12.039h-12.039v-12.039h12.039zm0 12.532v12.039h-12.039v-12.039h12.039zm0 12.532v12.039h-12.039v-12.039h12.039zm0 12.631v12.039h-12.039V172.87h12.039zm0 12.532v12.039h-12.039v-12.039h12.039zm0 12.532v12.039h-12.039v-12.039h12.039zm0 12.631v12.039h-12.039v-12.039h12.039zm0 12.532v12.039h-12.039v-12.039h12.039zm.592 0h12.039v12.039h-12.039v-12.039zm12.039 12.532v12.039h-12.039v-12.039h12.039zm.493 0h12.039v12.039H143.39v-12.039zm12.532 0h12.039v12.039h-12.039v-12.039zm12.631 0h12.039v12.039h-12.039v-12.039zm12.532 0h12.039v12.039h-12.039v-12.039zm12.532 0h12.039v12.039h-12.039v-12.039zm12.631 0h12.039v12.039h-12.039v-12.039zm12.532 0h12.039v12.039H218.78v-12.039zm12.532 0h12.039v12.039h-12.039v-12.039zm12.631 0h12.039v12.039h-12.039v-12.039zm12.532 0h12.039v12.039h-12.039v-12.039zm12.532 0h12.039v12.039h-12.039v-12.039zm12.631 0h12.039v12.039h-12.039v-12.039zm12.532 0h12.039v12.039H294.17v-12.039zm0-.493v-12.039h12.039v12.039H294.17zm12.532-12.039h12.039v12.039h-12.039v-12.039zm0-.493v-12.039h12.039v12.039h-12.039zm0-12.631v-12.039h12.039v12.039h-12.039zm0-12.532v-12.039h12.039v12.039h-12.039zm0-12.532V172.87h12.039v12.039h-12.039zm0-12.631v-12.039h12.039v12.039h-12.039zm0-12.532v-12.039h12.039v12.039h-12.039zm0-12.532v-12.039h12.039v12.039h-12.039zm0-12.631v-12.039h12.039v12.039h-12.039zm0-12.532v-12.039h12.039v12.039h-12.039zm0-12.532V97.48h12.039v12.039h-12.039zm0-12.631V84.849h12.039v12.039h-12.039zm0-12.532V72.317h12.039v12.039h-12.039zm0-12.532V59.785h12.039v12.039h-12.039zm-176.436-24.67v12.039h-12.039v-7.039a5 5 0 015-5h7.039zM118.227 235.63h12.039v12.039h-12.039V235.63zm188.475 12.039V235.63h12.039v12.039h-12.039z"/></g><path fill="url(#paint2_radial_6542_93029)" d="M14.192 117.409c5.628 0 10.192-4.563 10.192-10.192 0-5.629-4.564-10.192-10.192-10.192C8.563 97.025 4 101.588 4 107.217c0 5.629 4.563 10.192 10.192 10.192z"/><path fill="url(#paint3_radial_6542_93029)" d="M8.297 106.72c-1.847-1.137-2.308-3.729-1.03-5.753 1.243-2.024 3.764-2.77 5.61-1.634 1.847 1.137 2.31 3.729 1.03 5.753-1.278 2.06-3.8 2.77-5.61 1.634z" opacity=".5"/><path fill="url(#paint4_radial_6542_93029)" d="M170.188 50.026a7.78 7.78 0 100-15.558 7.78 7.78 0 000 15.558z"/><path fill="url(#paint5_radial_6542_93029)" d="M165.689 41.868c-1.41-.867-1.762-2.846-.786-4.391.948-1.545 2.873-2.114 4.282-1.247 1.409.867 1.762 2.846.786 4.391-.976 1.572-2.9 2.114-4.282 1.247z" opacity=".5"/><g filter="url(#filter1_f_6542_93029)"><ellipse cx="91.317" cy="147.103" fill="#000" fill-opacity=".37" rx="83.026" ry=".44"/></g><g filter="url(#filter2_iii_6542_93029)"><path fill="#4392F4" d="M147.958 36.376H42.642c-2.043 0-3.7 2.294-3.7 5.122v90.776c0 2.828 1.657 5.122 3.7 5.122h105.316c2.044 0 3.7-2.294 3.7-5.122V41.498c0-2.828-1.656-5.122-3.7-5.122z"/></g><path stroke="#2066BE" stroke-width="2.219" d="M93.84 95.158V69.007"/><path stroke="#2066BE" stroke-width="2.22" d="M71.922 104.361v-2.532a7 7 0 017-7h9.823m30.179 9.532v-2.532a7 7 0 00-7-7h-13.93m-9.25 0h9.249m-9.248 0h9.248"/><g filter="url(#filter4_dii_6542_93029)"><rect width="30.086" height="30.086" x="87.797" y="101.489" fill="#F2F1F1" rx="3.268" transform="rotate(90 87.797 101.489)"/></g><g filter="url(#filter5_dii_6542_93029)"><rect width="30.086" height="30.086" x="132.523" y="101.489" fill="#F2F1F1" rx="3.268" transform="rotate(90 132.523 101.489)"/></g><g filter="url(#filter6_ii_6542_93029)"><path fill="#EAEAEA" d="M47.83 44.442a1.708 1.708 0 100-3.415 1.708 1.708 0 000 3.415z"/></g><g filter="url(#filter7_ii_6542_93029)"><path fill="#EAEAEA" d="M53.466 44.441a1.708 1.708 0 100-3.415 1.708 1.708 0 000 3.415z"/></g><g filter="url(#filter8_ii_6542_93029)"><path fill="#EAEAEA" d="M59.012 44.441a1.708 1.708 0 100-3.415 1.708 1.708 0 000 3.415z"/></g><g filter="url(#filter9_i_6542_93029)"><path fill="url(#paint7_linear_6542_93029)" d="M160.21 126.07c-.05-.013-.102-.022-.139-.058-.748-.741 1.474-10.653 1.685-11.394 1.075-3.767 2.856-7.433 5.72-10.122 2.027-1.904 7.443-5.628 10.253-3.439 2.368 1.848.149 6.487-.942 8.426-1.958 3.45-4.842 6.245-7.305 9.304-1.469 1.83-2.946 3.695-4.415 5.524-.095.125-.831 1.185-1.386 1.883-.363.455-.892.539-1.457.394l-2.014-.518z"/></g><g filter="url(#filter10_i_6542_93029)"><path fill="url(#paint8_linear_6542_93029)" d="M163.429 129.087c1.201.263 2.27-.755 2.023-1.96-1.371-6.692-5.944-24.277-15.65-21.08-8.802 2.932 10.106 20.198 12.857 22.653.222.198.48.324.77.387z"/></g><path fill="#77FFE4" fill-opacity=".2" d="M152.439 109.541s11.331 15.004 11.46 18.179l-11.46-18.179zm21.94-5.524s-9.31 12.05-10.322 17.398l10.322-17.398z"/><path fill="url(#paint9_linear_6542_93029)" d="M151.903 126.121a2.35 2.35 0 012.339-2.572h15.635a2.35 2.35 0 012.339 2.572l-1.75 18.414a2.349 2.349 0 01-2.339 2.128h-12.135a2.35 2.35 0 01-2.34-2.128l-1.749-18.414z"/><g filter="url(#filter11_i_6542_93029)"><rect width="22.305" height="5.571" x="150.908" y="123.549" fill="url(#paint10_linear_6542_93029)" rx="1.175"/></g></g><path fill="#fff" d="M98.235 82.082h-8.798a.3.3 0 00-.257.456l4.342 7.174a.3.3 0 00.512.003l4.456-7.174a.3.3 0 00-.255-.459z"/><path fill="#12344D" fill-rule="evenodd" d="M72.472 116.574l-6.102-3.669a.576.576 0 01-.214-.238.607.607 0 01.23-.802l6.099-3.403a.543.543 0 01.538 0l6.098 3.406a.608.608 0 01.017 1.037l-6.102 3.669a.556.556 0 01-.28.077h-.004a.535.535 0 01-.28-.077zm.284-6.911l-4.925 2.745 4.925 2.965 4.925-2.962-4.925-2.748z" clip-rule="evenodd" opacity=".6"/><path fill="#12344D" d="M66.37 116.529l6.102 3.672a.54.54 0 00.284.078h.006a.576.576 0 00.281-.078l6.095-3.669a.61.61 0 000-1.029l-.274-.165-1.246-.749a.553.553 0 00-.779.214.624.624 0 00-.06.451.585.585 0 00.267.364l.665.403-4.955 2.98-4.959-2.98.665-.399a.572.572 0 00.267-.364.608.608 0 00-.06-.452.582.582 0 00-.347-.276.543.543 0 00-.431.063l-1.524.913a.589.589 0 00-.264.357.617.617 0 00.053.449.659.659 0 00.214.217z" opacity=".6"/><path fill="#12344D" d="M79.139 119.225l-1.52-.914a.557.557 0 00-.78.213.597.597 0 00-.056.448.584.584 0 00.267.365l.665.402-4.959 2.983-4.958-2.979.665-.399a.595.595 0 00.267-.357.617.617 0 00-.053-.449l-.004-.01a.558.558 0 00-.779-.214l-1.523.914a.61.61 0 00-.207.812c.05.091.123.168.21.217l6.102 3.673a.538.538 0 00.284.077.547.547 0 00.284-.077l6.098-3.669a.599.599 0 00.284-.515.607.607 0 00-.287-.521z" opacity=".6"/><path fill="#12344D" fill-rule="evenodd" d="M117.198 116.574l-6.102-3.669a.58.58 0 01-.214-.238.607.607 0 01.231-.802l6.098-3.403a.543.543 0 01.538 0l6.098 3.406a.608.608 0 01.017 1.037l-6.102 3.669a.553.553 0 01-.28.077h-.004a.53.53 0 01-.28-.077zm.284-6.911l-4.925 2.745 4.925 2.965 4.925-2.962-4.925-2.748z" clip-rule="evenodd" opacity=".6"/><path fill="#12344D" d="M111.096 116.529l6.102 3.672a.54.54 0 00.284.078h.007a.577.577 0 00.28-.078l6.095-3.669a.61.61 0 000-1.029l-.274-.165-1.246-.749a.553.553 0 00-.779.214.622.622 0 00-.06.451.586.586 0 00.267.364l.665.403-4.955 2.98-4.959-2.98.665-.399a.569.569 0 00.267-.364.608.608 0 00-.06-.452.581.581 0 00-.347-.276.543.543 0 00-.431.063l-1.524.913a.59.59 0 00-.264.357.62.62 0 00.053.449.662.662 0 00.214.217z" opacity=".6"/><path fill="#12344D" d="M123.865 119.225l-1.521-.914a.557.557 0 00-.778.213.597.597 0 00-.057.448.585.585 0 00.267.365l.665.402-4.958 2.983-4.959-2.979.665-.399a.594.594 0 00.267-.357.62.62 0 00-.053-.449l-.004-.01a.557.557 0 00-.778-.214l-1.524.914a.61.61 0 00-.207.812c.05.091.123.168.21.217l6.102 3.673a.54.54 0 00.284.077.547.547 0 00.284-.077l6.098-3.669a.599.599 0 00.284-.515.607.607 0 00-.287-.521z" opacity=".6"/><g filter="url(#filter12_di_6542_93029)"><rect width="27.345" height="86.729" x="138.104" y="45.541" fill="#F2F1F1" rx="3" transform="rotate(90 138.104 45.541)"/></g><path fill="#12344D" fill-rule="evenodd" d="M67.643 59.474l-6.206-3.732a.587.587 0 01-.217-.242.618.618 0 01.234-.816l6.203-3.461a.555.555 0 01.547 0l6.203 3.465a.618.618 0 01.017 1.054l-6.206 3.732a.565.565 0 01-.286.079h-.003a.549.549 0 01-.286-.079zm.289-7.03l-5.01 2.793 5.01 3.016 5.01-3.013-5.01-2.795z" clip-rule="evenodd" opacity=".6"/><path fill="#12344D" d="M61.437 59.428l6.206 3.736a.552.552 0 00.289.078h.006a.586.586 0 00.286-.078l6.2-3.732a.62.62 0 000-1.047l-.28-.168-1.267-.762a.558.558 0 00-.439-.064.567.567 0 00-.353.281.637.637 0 00-.061.46.59.59 0 00.272.37l.676.41-5.04 3.03-5.044-3.03.676-.406a.582.582 0 00.272-.37.618.618 0 00-.061-.46.59.59 0 00-.353-.281.557.557 0 00-.439.064l-1.55.93a.597.597 0 00-.268.362.625.625 0 00.054.456.66.66 0 00.218.221z" opacity=".6"/><path fill="#12344D" d="M74.424 62.17l-1.547-.93a.567.567 0 00-.792.218.608.608 0 00-.057.456.592.592 0 00.272.37l.676.41-5.044 3.034-5.044-3.03.677-.407a.605.605 0 00.272-.363.625.625 0 00-.055-.456l-.003-.01a.567.567 0 00-.792-.218l-1.55.93a.62.62 0 00-.21.826.567.567 0 00.214.22l6.206 3.736a.552.552 0 00.289.079c.098 0 .2-.025.288-.079l6.203-3.732a.609.609 0 00.29-.523.62.62 0 00-.293-.53z" opacity=".6"/><rect width="36.614" height="3.133" x="86.088" y="54.113" fill="#345C7C" rx="1.566"/><rect width="24.031" height="3.133" x="86.088" y="60.964" fill="#92A2B1" rx="1.566"/><defs><filter id="filter0_d_6542_93029" width="182.781" height="167.654" x="0" y="0" color-interpolation-filters="sRGB" filterUnits="userSpaceOnUse"><feFlood flood-opacity="0" result="BackgroundImageFix"/><feColorMatrix in="SourceAlpha" result="hardAlpha" values="0 0 0 0 0 0 0 0 0 0 0 0 0 0 0 0 0 0 127 0"/><feOffset/><feGaussianBlur stdDeviation="2"/><feComposite in2="hardAlpha" operator="out"/><feColorMatrix values="0 0 0 0 1 0 0 0 0 1 0 0 0 0 1 0 0 0 0.25 0"/><feBlend in2="BackgroundImageFix" result="effect1_dropShadow_6542_93029"/><feBlend in="SourceGraphic" in2="effect1_dropShadow_6542_93029" result="shape"/></filter><filter id="filter1_f_6542_93029" width="169.62" height="4.447" x="6.507" y="144.879" color-interpolation-filters="sRGB" filterUnits="userSpaceOnUse"><feFlood flood-opacity="0" result="BackgroundImageFix"/><feBlend in="SourceGraphic" in2="BackgroundImageFix" result="shape"/><feGaussianBlur result="effect1_foregroundBlur_6542_93029" stdDeviation=".892"/></filter><filter id="filter2_iii_6542_93029" width="113.599" height="102.52" x="38.06" y="35.847" color-interpolation-filters="sRGB" filterUnits="userSpaceOnUse"><feFlood flood-opacity="0" result="BackgroundImageFix"/><feBlend in="SourceGraphic" in2="BackgroundImageFix" result="shape"/><feColorMatrix in="SourceAlpha" result="hardAlpha" values="0 0 0 0 0 0 0 0 0 0 0 0 0 0 0 0 0 0 127 0"/><feOffset dy="-.53"/><feGaussianBlur stdDeviation=".53"/><feComposite in2="hardAlpha" k2="-1" k3="1" operator="arithmetic"/><feColorMatrix values="0 0 0 0 0.089132 0 0 0 0 0.328429 0 0 0 0 0.629167 0 0 0 1 0"/><feBlend in2="shape" result="effect1_innerShadow_6542_93029"/><feColorMatrix in="SourceAlpha" result="hardAlpha" values="0 0 0 0 0 0 0 0 0 0 0 0 0 0 0 0 0 0 127 0"/><feOffset dy=".971"/><feGaussianBlur stdDeviation=".485"/><feComposite in2="hardAlpha" k2="-1" k3="1" operator="arithmetic"/><feColorMatrix values="0 0 0 0 0.641667 0 0 0 0 0.8495 0 0 0 0 1 0 0 0 1 0"/><feBlend in2="effect1_innerShadow_6542_93029" result="effect2_innerShadow_6542_93029"/><feColorMatrix in="SourceAlpha" result="hardAlpha" values="0 0 0 0 0 0 0 0 0 0 0 0 0 0 0 0 0 0 127 0"/><feOffset dx="-.883"/><feGaussianBlur stdDeviation=".441"/><feComposite in2="hardAlpha" k2="-1" k3="1" operator="arithmetic"/><feColorMatrix values="0 0 0 0 0 0 0 0 0 0 0 0 0 0 0 0 0 0 0.25 0"/><feBlend in2="effect2_innerShadow_6542_93029" result="effect3_innerShadow_6542_93029"/></filter><filter id="filter3_dii_6542_93029" width="25.244" height="4.661" x="30.599" y="52.804" color-interpolation-filters="sRGB" filterUnits="userSpaceOnUse"><feFlood flood-opacity="0" result="BackgroundImageFix"/><feColorMatrix in="SourceAlpha" result="hardAlpha" values="0 0 0 0 0 0 0 0 0 0 0 0 0 0 0 0 0 0 127 0"/><feOffset dy=".93"/><feGaussianBlur stdDeviation=".465"/><feColorMatrix values="0 0 0 0 0 0 0 0 0 0 0 0 0 0 0 0 0 0 0.07 0"/><feBlend in2="BackgroundImageFix" result="effect1_dropShadow_6542_93029"/><feBlend in="SourceGraphic" in2="effect1_dropShadow_6542_93029" result="shape"/><feColorMatrix in="SourceAlpha" result="hardAlpha" values="0 0 0 0 0 0 0 0 0 0 0 0 0 0 0 0 0 0 127 0"/><feOffset dx=".93" dy="1.023"/><feGaussianBlur stdDeviation=".558"/><feComposite in2="hardAlpha" k2="-1" k3="1" operator="arithmetic"/><feColorMatrix values="0 0 0 0 1 0 0 0 0 1 0 0 0 0 1 0 0 0 1 0"/><feBlend in2="shape" result="effect2_innerShadow_6542_93029"/><feColorMatrix in="SourceAlpha" result="hardAlpha" values="0 0 0 0 0 0 0 0 0 0 0 0 0 0 0 0 0 0 127 0"/><feOffset dx="-1.023" dy="-.558"/><feGaussianBlur stdDeviation=".465"/><feComposite in2="hardAlpha" k2="-1" k3="1" operator="arithmetic"/><feColorMatrix values="0 0 0 0 0.833333 0 0 0 0 0.833333 0 0 0 0 0.833333 0 0 0 1 0"/><feBlend in2="effect2_innerShadow_6542_93029" result="effect3_innerShadow_6542_93029"/></filter><filter id="filter4_dii_6542_93029" width="42.142" height="42.143" x="49.931" y="98.966" color-interpolation-filters="sRGB" filterUnits="userSpaceOnUse"><feFlood flood-opacity="0" result="BackgroundImageFix"/><feColorMatrix in="SourceAlpha" result="hardAlpha" values="0 0 0 0 0 0 0 0 0 0 0 0 0 0 0 0 0 0 127 0"/><feOffset dx="-1.752" dy="3.505"/><feGaussianBlur stdDeviation="3.014"/><feColorMatrix values="0 0 0 0 0 0 0 0 0 0 0 0 0 0 0 0 0 0 0.25 0"/><feBlend in2="BackgroundImageFix" result="effect1_dropShadow_6542_93029"/><feBlend in="SourceGraphic" in2="effect1_dropShadow_6542_93029" result="shape"/><feColorMatrix in="SourceAlpha" result="hardAlpha" values="0 0 0 0 0 0 0 0 0 0 0 0 0 0 0 0 0 0 127 0"/><feOffset dx=".387" dy=".426"/><feGaussianBlur stdDeviation=".232"/><feComposite in2="hardAlpha" k2="-1" k3="1" operator="arithmetic"/><feColorMatrix values="0 0 0 0 1 0 0 0 0 1 0 0 0 0 1 0 0 0 1 0"/><feBlend in2="shape" result="effect2_innerShadow_6542_93029"/><feColorMatrix in="SourceAlpha" result="hardAlpha" values="0 0 0 0 0 0 0 0 0 0 0 0 0 0 0 0 0 0 127 0"/><feOffset dx="-.387" dy="-.232"/><feGaussianBlur stdDeviation=".039"/><feComposite in2="hardAlpha" k2="-1" k3="1" operator="arithmetic"/><feColorMatrix values="0 0 0 0 0.833333 0 0 0 0 0.833333 0 0 0 0 0.833333 0 0 0 1 0"/><feBlend in2="effect2_innerShadow_6542_93029" result="effect3_innerShadow_6542_93029"/></filter><filter id="filter5_dii_6542_93029" width="42.142" height="42.143" x="94.657" y="98.966" color-interpolation-filters="sRGB" filterUnits="userSpaceOnUse"><feFlood flood-opacity="0" result="BackgroundImageFix"/><feColorMatrix in="SourceAlpha" result="hardAlpha" values="0 0 0 0 0 0 0 0 0 0 0 0 0 0 0 0 0 0 127 0"/><feOffset dx="-1.752" dy="3.505"/><feGaussianBlur stdDeviation="3.014"/><feColorMatrix values="0 0 0 0 0 0 0 0 0 0 0 0 0 0 0 0 0 0 0.25 0"/><feBlend in2="BackgroundImageFix" result="effect1_dropShadow_6542_93029"/><feBlend in="SourceGraphic" in2="effect1_dropShadow_6542_93029" result="shape"/><feColorMatrix in="SourceAlpha" result="hardAlpha" values="0 0 0 0 0 0 0 0 0 0 0 0 0 0 0 0 0 0 127 0"/><feOffset dx=".387" dy=".426"/><feGaussianBlur stdDeviation=".232"/><feComposite in2="hardAlpha" k2="-1" k3="1" operator="arithmetic"/><feColorMatrix values="0 0 0 0 1 0 0 0 0 1 0 0 0 0 1 0 0 0 1 0"/><feBlend in2="shape" result="effect2_innerShadow_6542_93029"/><feColorMatrix in="SourceAlpha" result="hardAlpha" values="0 0 0 0 0 0 0 0 0 0 0 0 0 0 0 0 0 0 127 0"/><feOffset dx="-.387" dy="-.232"/><feGaussianBlur stdDeviation=".039"/><feComposite in2="hardAlpha" k2="-1" k3="1" operator="arithmetic"/><feColorMatrix values="0 0 0 0 0.833333 0 0 0 0 0.833333 0 0 0 0 0.833333 0 0 0 1 0"/><feBlend in2="effect2_innerShadow_6542_93029" result="effect3_innerShadow_6542_93029"/></filter><filter id="filter6_ii_6542_93029" width="3.699" height="3.699" x="45.934" y="40.838" color-interpolation-filters="sRGB" filterUnits="userSpaceOnUse"><feFlood flood-opacity="0" result="BackgroundImageFix"/><feBlend in="SourceGraphic" in2="BackgroundImageFix" result="shape"/><feColorMatrix in="SourceAlpha" result="hardAlpha" values="0 0 0 0 0 0 0 0 0 0 0 0 0 0 0 0 0 0 127 0"/><feOffset dx=".189" dy=".189"/><feGaussianBlur stdDeviation=".047"/><feComposite in2="hardAlpha" k2="-1" k3="1" operator="arithmetic"/><feColorMatrix values="0 0 0 0 1 0 0 0 0 1 0 0 0 0 1 0 0 0 1 0"/><feBlend in2="shape" result="effect1_innerShadow_6542_93029"/><feColorMatrix in="SourceAlpha" result="hardAlpha" values="0 0 0 0 0 0 0 0 0 0 0 0 0 0 0 0 0 0 127 0"/><feOffset dx="-.189" dy="-.189"/><feGaussianBlur stdDeviation=".095"/><feComposite in2="hardAlpha" k2="-1" k3="1" operator="arithmetic"/><feColorMatrix values="0 0 0 0 0.658333 0 0 0 0 0.658333 0 0 0 0 0.658333 0 0 0 1 0"/><feBlend in2="effect1_innerShadow_6542_93029" result="effect2_innerShadow_6542_93029"/></filter><filter id="filter7_ii_6542_93029" width="3.699" height="3.699" x="51.569" y="40.837" color-interpolation-filters="sRGB" filterUnits="userSpaceOnUse"><feFlood flood-opacity="0" result="BackgroundImageFix"/><feBlend in="SourceGraphic" in2="BackgroundImageFix" result="shape"/><feColorMatrix in="SourceAlpha" result="hardAlpha" values="0 0 0 0 0 0 0 0 0 0 0 0 0 0 0 0 0 0 127 0"/><feOffset dx=".189" dy=".189"/><feGaussianBlur stdDeviation=".047"/><feComposite in2="hardAlpha" k2="-1" k3="1" operator="arithmetic"/><feColorMatrix values="0 0 0 0 1 0 0 0 0 1 0 0 0 0 1 0 0 0 1 0"/><feBlend in2="shape" result="effect1_innerShadow_6542_93029"/><feColorMatrix in="SourceAlpha" result="hardAlpha" values="0 0 0 0 0 0 0 0 0 0 0 0 0 0 0 0 0 0 127 0"/><feOffset dx="-.189" dy="-.189"/><feGaussianBlur stdDeviation=".095"/><feComposite in2="hardAlpha" k2="-1" k3="1" operator="arithmetic"/><feColorMatrix values="0 0 0 0 0.658333 0 0 0 0 0.658333 0 0 0 0 0.658333 0 0 0 1 0"/><feBlend in2="effect1_innerShadow_6542_93029" result="effect2_innerShadow_6542_93029"/></filter><filter id="filter8_ii_6542_93029" width="3.699" height="3.699" x="57.116" y="40.837" color-interpolation-filters="sRGB" filterUnits="userSpaceOnUse"><feFlood flood-opacity="0" result="BackgroundImageFix"/><feBlend in="SourceGraphic" in2="BackgroundImageFix" result="shape"/><feColorMatrix in="SourceAlpha" result="hardAlpha" values="0 0 0 0 0 0 0 0 0 0 0 0 0 0 0 0 0 0 127 0"/><feOffset dx=".189" dy=".189"/><feGaussianBlur stdDeviation=".047"/><feComposite in2="hardAlpha" k2="-1" k3="1" operator="arithmetic"/><feColorMatrix values="0 0 0 0 1 0 0 0 0 1 0 0 0 0 1 0 0 0 1 0"/><feBlend in2="shape" result="effect1_innerShadow_6542_93029"/><feColorMatrix in="SourceAlpha" result="hardAlpha" values="0 0 0 0 0 0 0 0 0 0 0 0 0 0 0 0 0 0 127 0"/><feOffset dx="-.189" dy="-.189"/><feGaussianBlur stdDeviation=".095"/><feComposite in2="hardAlpha" k2="-1" k3="1" operator="arithmetic"/><feColorMatrix values="0 0 0 0 0.658333 0 0 0 0 0.658333 0 0 0 0 0.658333 0 0 0 1 0"/><feBlend in2="effect1_innerShadow_6542_93029" result="effect2_innerShadow_6542_93029"/></filter><filter id="filter9_i_6542_93029" width="19.99" height="26.696" x="159.918" y="99.957" color-interpolation-filters="sRGB" filterUnits="userSpaceOnUse"><feFlood flood-opacity="0" result="BackgroundImageFix"/><feBlend in="SourceGraphic" in2="BackgroundImageFix" result="shape"/><feColorMatrix in="SourceAlpha" result="hardAlpha" values="0 0 0 0 0 0 0 0 0 0 0 0 0 0 0 0 0 0 127 0"/><feOffset dx="1.127" dy="-.431"/><feGaussianBlur stdDeviation="1.469"/><feComposite in2="hardAlpha" k2="-1" k3="1" operator="arithmetic"/><feColorMatrix values="0 0 0 0 0.113056 0 0 0 0 0.616667 0 0 0 0 0.58645 0 0 0 1 0"/><feBlend in2="shape" result="effect1_innerShadow_6542_93029"/></filter><filter id="filter10_i_6542_93029" width="19.131" height="23.897" x="147.484" y="105.232" color-interpolation-filters="sRGB" filterUnits="userSpaceOnUse"><feFlood flood-opacity="0" result="BackgroundImageFix"/><feBlend in="SourceGraphic" in2="BackgroundImageFix" result="shape"/><feColorMatrix in="SourceAlpha" result="hardAlpha" values="0 0 0 0 0 0 0 0 0 0 0 0 0 0 0 0 0 0 127 0"/><feOffset dx="1.127" dy="-.431"/><feGaussianBlur stdDeviation="1.469"/><feComposite in2="hardAlpha" k2="-1" k3="1" operator="arithmetic"/><feColorMatrix values="0 0 0 0 0.0996528 0 0 0 0 0.683333 0 0 0 0 0.555806 0 0 0 1 0"/><feBlend in2="shape" result="effect1_innerShadow_6542_93029"/></filter><filter id="filter11_i_6542_93029" width="22.775" height="5.924" x="150.908" y="123.196" color-interpolation-filters="sRGB" filterUnits="userSpaceOnUse"><feFlood flood-opacity="0" result="BackgroundImageFix"/><feBlend in="SourceGraphic" in2="BackgroundImageFix" result="shape"/><feColorMatrix in="SourceAlpha" result="hardAlpha" values="0 0 0 0 0 0 0 0 0 0 0 0 0 0 0 0 0 0 127 0"/><feOffset dx=".47" dy="-.353"/><feGaussianBlur stdDeviation=".411"/><feComposite in2="hardAlpha" k2="-1" k3="1" operator="arithmetic"/><feColorMatrix values="0 0 0 0 0.833333 0 0 0 0 0.604343 0 0 0 0 0.0555555 0 0 0 1 0"/><feBlend in2="shape" result="effect1_innerShadow_6542_93029"/></filter><filter id="filter12_di_6542_93029" width="104.275" height="44.891" x="40.051" y="41.869" color-interpolation-filters="sRGB" filterUnits="userSpaceOnUse"><feFlood flood-opacity="0" result="BackgroundImageFix"/><feColorMatrix in="SourceAlpha" result="hardAlpha" values="0 0 0 0 0 0 0 0 0 0 0 0 0 0 0 0 0 0 127 0"/><feOffset dx="-2.55" dy="5.101"/><feGaussianBlur stdDeviation="4.386"/><feColorMatrix values="0 0 0 0 0 0 0 0 0 0 0 0 0 0 0 0 0 0 0.25 0"/><feBlend in2="BackgroundImageFix" result="effect1_dropShadow_6542_93029"/><feBlend in="SourceGraphic" in2="effect1_dropShadow_6542_93029" result="shape"/><feColorMatrix in="SourceAlpha" result="hardAlpha" values="0 0 0 0 0 0 0 0 0 0 0 0 0 0 0 0 0 0 127 0"/><feOffset dx=".563" dy=".62"/><feGaussianBlur stdDeviation=".338"/><feComposite in2="hardAlpha" k2="-1" k3="1" operator="arithmetic"/><feColorMatrix values="0 0 0 0 1 0 0 0 0 1 0 0 0 0 1 0 0 0 1 0"/><feBlend in2="shape" result="effect2_innerShadow_6542_93029"/></filter><linearGradient id="paint0_linear_6542_93029" x1="96.754" x2="96.754" y1="4" y2="163.654" gradientUnits="userSpaceOnUse"><stop stop-color="#B5EFFF"/><stop offset="1" stop-color="#E7F8FE"/></linearGradient><linearGradient id="paint1_linear_6542_93029" x1="95.744" x2="95.744" y1="4" y2="162.721" gradientUnits="userSpaceOnUse"><stop stop-color="#B5EFFF"/><stop offset="1" stop-color="#EDFBFF"/></linearGradient><linearGradient id="paint6_linear_6542_93029" x1="33.476" x2="33.56" y1="53.362" y2="55.925" gradientUnits="userSpaceOnUse"><stop stop-color="#fff"/><stop offset=".271" stop-color="#fff"/><stop offset="1" stop-color="#B8B8B8"/></linearGradient><linearGradient id="paint7_linear_6542_93029" x1="181.514" x2="160.236" y1="100.8" y2="119.634" gradientUnits="userSpaceOnUse"><stop stop-color="#BAFFF1" stop-opacity=".26"/><stop offset=".682" stop-color="#4DC7AE"/><stop offset=".969" stop-color="#06896F"/></linearGradient><linearGradient id="paint8_linear_6542_93029" x1="172.169" x2="159.117" y1="108.227" y2="129.891" gradientUnits="userSpaceOnUse"><stop stop-color="#B7FDEF"/><stop offset=".682" stop-color="#09B794"/><stop offset=".969" stop-color="#7EE0CC"/></linearGradient><linearGradient id="paint9_linear_6542_93029" x1="172.461" x2="153.143" y1="138.765" y2="138.765" gradientUnits="userSpaceOnUse"><stop offset=".099" stop-color="#FFEEC5"/><stop offset=".607" stop-color="#FACD63"/><stop offset=".839" stop-color="#EAAF23"/><stop offset=".984" stop-color="#EDB52F"/></linearGradient><linearGradient id="paint10_linear_6542_93029" x1="173.212" x2="152.499" y1="127.216" y2="127.216" gradientUnits="userSpaceOnUse"><stop offset=".099" stop-color="#FFEEC5"/><stop offset=".607" stop-color="#FCBD27"/><stop offset=".984" stop-color="#EFB222"/></linearGradient><radialGradient id="paint2_radial_6542_93029" cx="0" cy="0" r="1" gradientTransform="rotate(-15.177 391.612 16.483) scale(19.4355)" gradientUnits="userSpaceOnUse"><stop stop-color="#FFF1CF"/><stop offset=".188" stop-color="#FFE4A2"/><stop offset=".318" stop-color="#FFD364"/><stop offset=".49" stop-color="#FFD364"/><stop offset=".651" stop-color="#FFC73A"/><stop offset=".948" stop-color="#D09500"/></radialGradient><radialGradient id="paint3_radial_6542_93029" cx="0" cy="0" r="1" gradientTransform="matrix(-2.2486 3.61408 -3.29135 -2.0478 10.561 103.056)" gradientUnits="userSpaceOnUse"><stop stop-color="#fff"/><stop offset=".694" stop-color="#fff" stop-opacity="0"/></radialGradient><radialGradient id="paint4_radial_6542_93029" cx="0" cy="0" r="1" gradientTransform="rotate(-15.177 230.01 -605.28) scale(14.8345)" gradientUnits="userSpaceOnUse"><stop stop-color="#E6C6FF"/><stop offset=".188" stop-color="#C07DF5"/><stop offset=".318" stop-color="#BE6FFC"/><stop offset=".49" stop-color="#B56AF0"/><stop offset=".651" stop-color="#A745F4"/><stop offset=".948" stop-color="#9F3DED"/></radialGradient><radialGradient id="paint5_radial_6542_93029" cx="0" cy="0" r="1" gradientTransform="rotate(121.889 72.855 66.042) scale(3.24885 2.95873)" gradientUnits="userSpaceOnUse"><stop stop-color="#fff"/><stop offset=".694" stop-color="#fff" stop-opacity="0"/></radialGradient></defs></svg>