<svg xmlns="http://www.w3.org/2000/svg" width="168" height="158" fill="none" viewBox="0 0 168 158"><mask id="fs-ikua2y6r2a" width="158" height="158" x="10" y="0" maskUnits="userSpaceOnUse"><path fill="url(#paint0_linear)" d="M88.834 157.342c43.267 0 78.342-35.075 78.342-78.342 0-43.267-35.075-78.342-78.342-78.342C45.567.658 10.492 35.733 10.492 79c0 43.267 35.075 78.342 78.342 78.342z"/></mask><g mask="url(#fs-ikua2y6r2a)"><path fill="url(#paint1_linear)" d="M88.343 156.427c43.538 0 78.833-34.87 78.833-77.885 0-43.014-35.295-77.884-78.833-77.884S9.51 35.528 9.51 78.542c0 43.015 35.295 77.885 78.833 77.885z"/><path fill="#fff" d="M116.271 42.525a6.848 6.848 0 00-6.848 6.848v191.002h197.85V42.525H116.271zm190.421 12.3h-11.815V43.008h11.815v11.815zm-98.102 73.987v-11.815h11.815v11.815H208.59zm11.815.581v11.815H208.59v-11.815h11.815zm-12.299-.581h-11.815v-11.815h11.815v11.815zm0 .581v11.815h-11.815v-11.815h11.815zm-12.396 11.815h-11.815v-11.815h11.815v11.815zm0 .484v11.815h-11.815v-11.815h11.815zm.581 0h11.815v11.815h-11.815v-11.815zm11.815 12.299v11.815h-11.815v-11.815h11.815zm.484 0h11.815v11.815H208.59v-11.815zm0-.484v-11.815h11.815v11.815H208.59zm12.299-11.815h11.815v11.815h-11.815v-11.815zm0-.484v-11.815h11.815v11.815h-11.815zm0-12.396v-11.815h11.815v11.815h-11.815zm0-12.299v-11.815h11.815v11.815h-11.815zm-.484 0H208.59v-11.815h11.815v11.815zm-12.299 0h-11.815v-11.815h11.815v11.815zm-12.396 0h-11.815v-11.815h11.815v11.815zm0 .484v11.815h-11.815v-11.815h11.815zm-12.299 11.815h-11.815v-11.815h11.815v11.815zm0 .581v11.815h-11.815v-11.815h11.815zm0 12.299v11.815h-11.815v-11.815h11.815zm0 12.299v11.815h-11.815v-11.815h11.815zm.484 0h11.815v11.815h-11.815v-11.815zm11.815 12.396v11.815h-11.815v-11.815h11.815zm.581 0h11.815v11.815h-11.815v-11.815zm12.299 0h11.815v11.815H208.59v-11.815zm12.299 0h11.815v11.815h-11.815v-11.815zm0-.581v-11.815h11.815v11.815h-11.815zm12.396-11.815H245.1v11.815h-11.815v-11.815zm0-.484v-11.815H245.1v11.815h-11.815zm0-12.299v-11.815H245.1v11.815h-11.815zm0-12.396v-11.815H245.1v11.815h-11.815zm0-12.299v-11.815H245.1v11.815h-11.815zm0-12.299V92.399H245.1v11.815h-11.815zm-.581 0h-11.815V92.399h11.815v11.815zm-12.299 0H208.59V92.399h11.815v11.815zm-12.299 0h-11.815V92.399h11.815v11.815zm-12.396 0h-11.815V92.399h11.815v11.815zm-12.299 0h-11.815V92.399h11.815v11.815zm0 .484v11.815h-11.815v-11.815h11.815zm-12.299 11.815h-11.815v-11.815h11.815v11.815zm0 .484v11.815h-11.815v-11.815h11.815zm0 12.396v11.815h-11.815v-11.815h11.815zm0 12.299v11.815h-11.815v-11.815h11.815zm0 12.299v11.815h-11.815v-11.815h11.815zm0 12.396v11.815h-11.815v-11.815h11.815zm.484 0h11.815v11.815h-11.815v-11.815zm11.815 12.299v11.815h-11.815v-11.815h11.815zm.484 0h11.815v11.815h-11.815v-11.815zm12.396 0h11.815v11.815h-11.815v-11.815zm12.299 0h11.815v11.815H208.59v-11.815zm12.299 0h11.815v11.815h-11.815v-11.815zm12.396 0H245.1v11.815h-11.815v-11.815zm0-.484v-11.815H245.1v11.815h-11.815zm12.299-11.815h11.815v11.815h-11.815v-11.815zm0-.581v-11.815h11.815v11.815h-11.815zm0-12.299v-11.815h11.815v11.815h-11.815zm0-12.299v-11.815h11.815v11.815h-11.815zm0-12.396v-11.815h11.815v11.815h-11.815zm0-12.299v-11.815h11.815v11.815h-11.815zm0-12.299V92.399h11.815v11.815h-11.815zm0-12.396V80.003h11.815v11.815h-11.815zm-.484 0h-11.815V80.003H245.1v11.815zm-12.396 0h-11.815V80.003h11.815v11.815zm-12.299 0H208.59V80.003h11.815v11.815zm-12.299 0h-11.815V80.003h11.815v11.815zm-12.396 0h-11.815V80.003h11.815v11.815zm-12.299 0h-11.815V80.003h11.815v11.815zm-12.299 0h-11.815V80.003h11.815v11.815zm0 .581v11.815h-11.815V92.399h11.815zm-12.396 11.815h-11.815V92.399h11.815v11.815zm0 .484v11.815h-11.815v-11.815h11.815zm0 12.299v11.815h-11.815v-11.815h11.815zm0 12.396v11.815h-11.815v-11.815h11.815zm0 12.299v11.815h-11.815v-11.815h11.815zm0 12.299v11.815h-11.815v-11.815h11.815zm0 12.396v11.815h-11.815v-11.815h11.815zm0 12.299v11.815h-11.815v-11.815h11.815zm.581 0h11.815v11.815h-11.815v-11.815zm11.815 12.299V202.8h-11.815v-11.815h11.815zm.484 0h11.815V202.8h-11.815v-11.815zm12.299 0h11.815V202.8h-11.815v-11.815zm12.396 0h11.815V202.8h-11.815v-11.815zm12.299 0h11.815V202.8H208.59v-11.815zm12.299 0h11.815V202.8h-11.815v-11.815zm12.396 0H245.1V202.8h-11.815v-11.815zm12.299 0h11.815V202.8h-11.815v-11.815zm0-.484v-11.815h11.815v11.815h-11.815zm12.299-11.815h11.815v11.815h-11.815v-11.815zm0-.484v-11.815h11.815v11.815h-11.815zm0-12.396v-11.815h11.815v11.815h-11.815zm0-12.299v-11.815h11.815v11.815h-11.815zm0-12.299v-11.815h11.815v11.815h-11.815zm0-12.396v-11.815h11.815v11.815h-11.815zm0-12.299v-11.815h11.815v11.815h-11.815zm0-12.299V92.399h11.815v11.815h-11.815zm0-12.396V80.003h11.815v11.815h-11.815zm0-12.299V67.704h11.815V79.52h-11.815zm-.484 0h-11.815V67.704h11.815V79.52zm-12.299 0h-11.815V67.704H245.1V79.52zm-12.396 0h-11.815V67.704h11.815V79.52zm-12.299 0H208.59V67.704h11.815V79.52zm-12.299 0h-11.815V67.704h11.815V79.52zm-12.396 0h-11.815V67.704h11.815V79.52zm-12.299 0h-11.815V67.704h11.815V79.52zm-12.299 0h-11.815V67.704h11.815V79.52zm-12.396 0h-11.815V67.704h11.815V79.52zm0 .484v11.815h-11.815V80.003h11.815zm-12.299 11.815h-11.815V80.003h11.815v11.815zm0 .581v11.815h-11.815V92.399h11.815zm0 12.299v11.815h-11.815v-11.815h11.815zm0 12.299v11.815h-11.815v-11.815h11.815zm0 12.396v11.815h-11.815v-11.815h11.815zm0 12.299v11.815h-11.815v-11.815h11.815zm0 12.299v11.815h-11.815v-11.815h11.815zm0 12.396v11.815h-11.815v-11.815h11.815zm0 12.299v11.815h-11.815v-11.815h11.815zm0 12.299V202.8h-11.815v-11.815h11.815zm.484 0h11.815V202.8h-11.815v-11.815zm11.815 12.396v11.815h-11.815v-11.815h11.815zm.581 0h11.815v11.815h-11.815v-11.815zm12.299 0h11.815v11.815h-11.815v-11.815zm12.299 0h11.815v11.815h-11.815v-11.815zm12.396 0h11.815v11.815h-11.815v-11.815zm12.299 0h11.815v11.815H208.59v-11.815zm12.299 0h11.815v11.815h-11.815v-11.815zm12.396 0H245.1v11.815h-11.815v-11.815zm12.299 0h11.815v11.815h-11.815v-11.815zm12.299 0h11.815v11.815h-11.815v-11.815zm0-.581v-11.815h11.815V202.8h-11.815zm12.396-11.815h11.815V202.8h-11.815v-11.815zm0-.484v-11.815h11.815v11.815h-11.815zm0-12.299v-11.815h11.815v11.815h-11.815zm0-12.396v-11.815h11.815v11.815h-11.815zm0-12.299v-11.815h11.815v11.815h-11.815zm0-12.299v-11.815h11.815v11.815h-11.815zm0-12.396v-11.815h11.815v11.815h-11.815zm0-12.299v-11.815h11.815v11.815h-11.815zm0-12.299V92.399h11.815v11.815h-11.815zm0-12.396V80.003h11.815v11.815h-11.815zm0-12.299V67.704h11.815V79.52h-11.815zm0-12.299V55.405h11.815V67.22h-11.815zm-.581 0h-11.815V55.405h11.815V67.22zm-12.299 0h-11.815V55.405h11.815V67.22zm-12.299 0h-11.815V55.405H245.1V67.22zm-12.396 0h-11.815V55.405h11.815V67.22zm-12.299 0H208.59V55.405h11.815V67.22zm-12.299 0h-11.815V55.405h11.815V67.22zm-12.396 0h-11.815V55.405h11.815V67.22zm-12.299 0h-11.815V55.405h11.815V67.22zm-12.299 0h-11.815V55.405h11.815V67.22zm-12.396 0h-11.815V55.405h11.815V67.22zm-12.299 0h-11.815V55.405h11.815V67.22zm0 .484V79.52h-11.815V67.704h11.815zM134.118 79.52h-11.815V67.704h11.815V79.52zm0 .484v11.815h-11.815V80.003h11.815zm0 12.396v11.815h-11.815V92.399h11.815zm0 12.299v11.815h-11.815v-11.815h11.815zm0 12.299v11.815h-11.815v-11.815h11.815zm0 12.396v11.815h-11.815v-11.815h11.815zm0 12.299v11.815h-11.815v-11.815h11.815zm0 12.299v11.815h-11.815v-11.815h11.815zm0 12.396v11.815h-11.815v-11.815h11.815zm0 12.299v11.815h-11.815v-11.815h11.815zm0 12.299V202.8h-11.815v-11.815h11.815zm0 12.396v11.815h-11.815v-11.815h11.815zm.484 0h11.815v11.815h-11.815v-11.815zm11.815 12.299v11.815h-11.815V215.68h11.815zm.484 0h11.815v11.815h-11.815V215.68zm12.396 0h11.815v11.815h-11.815V215.68zm12.299 0h11.815v11.815h-11.815V215.68zm12.299 0h11.815v11.815h-11.815V215.68zm12.396 0h11.815v11.815h-11.815V215.68zm12.299 0h11.815v11.815H208.59V215.68zm12.299 0h11.815v11.815h-11.815V215.68zm12.396 0H245.1v11.815h-11.815V215.68zm12.299 0h11.815v11.815h-11.815V215.68zm12.299 0h11.815v11.815h-11.815V215.68zm12.396 0h11.815v11.815h-11.815V215.68zm0-.484v-11.815h11.815v11.815h-11.815zm12.299-11.815h11.815v11.815h-11.815v-11.815zm0-.581v-11.815h11.815V202.8h-11.815zm0-12.299v-11.815h11.815v11.815h-11.815zm0-12.299v-11.815h11.815v11.815h-11.815zm0-12.396v-11.815h11.815v11.815h-11.815zm0-12.299v-11.815h11.815v11.815h-11.815zm0-12.299v-11.815h11.815v11.815h-11.815zm0-12.396v-11.815h11.815v11.815h-11.815zm0-12.299v-11.815h11.815v11.815h-11.815zm0-12.299V92.399h11.815v11.815h-11.815zm0-12.396V80.003h11.815v11.815h-11.815zm0-12.299V67.704h11.815V79.52h-11.815zm0-12.299V55.405h11.815V67.22h-11.815zm0-12.396V43.01h11.815v11.815h-11.815zm-.484 0h-11.815V43.01h11.815v11.815zm-12.396 0h-11.815V43.01h11.815v11.815zm-12.299 0h-11.815V43.01h11.815v11.815zm-12.299 0h-11.815V43.01H245.1v11.815zm-12.396 0h-11.815V43.01h11.815v11.815zm-12.299 0H208.59V43.01h11.815v11.815zm-12.299 0h-11.815V43.01h11.815v11.815zm-12.396 0h-11.815V43.01h11.815v11.815zm-12.299 0h-11.815V43.01h11.815v11.815zm-12.299 0h-11.815V43.01h11.815v11.815zm-12.396 0h-11.815V43.01h11.815v11.815zm-12.299 0h-11.815V43.01h11.815v11.815zm-12.299 0h-11.815V43.01h11.815v11.815zm0 .581V67.22h-11.815V55.405h11.815zM121.722 67.22h-11.814V55.405h11.814V67.22zm0 .484V79.52h-11.814V67.704h11.814zm0 12.3v11.814h-11.814V80.003h11.814zm0 12.395v11.815h-11.814V92.399h11.814zm0 12.299v11.815h-11.814v-11.815h11.814zm0 12.299v11.815h-11.814v-11.815h11.814zm0 12.396v11.815h-11.814v-11.815h11.814zm0 12.299v11.815h-11.814v-11.815h11.814zm0 12.299v11.815h-11.814v-11.815h11.814zm0 12.396v11.815h-11.814v-11.815h11.814zm0 12.299v11.815h-11.814v-11.815h11.814zm0 12.299V202.8h-11.814v-11.815h11.814zm0 12.396v11.815h-11.814v-11.815h11.814zm0 12.299v11.815h-11.814V215.68h11.814zm.581 0h11.815v11.815h-11.815V215.68zm11.815 12.299v11.815h-11.815v-11.815h11.815zm.484 0h11.815v11.815h-11.815v-11.815zm12.299 0h11.815v11.815h-11.815v-11.815zm12.396 0h11.815v11.815h-11.815v-11.815zm12.299 0h11.815v11.815h-11.815v-11.815zm12.299 0h11.815v11.815h-11.815v-11.815zm12.396 0h11.815v11.815h-11.815v-11.815zm12.299 0h11.815v11.815H208.59v-11.815zm12.299 0h11.815v11.815h-11.815v-11.815zm12.396 0H245.1v11.815h-11.815v-11.815zm12.299 0h11.815v11.815h-11.815v-11.815zm12.299 0h11.815v11.815h-11.815v-11.815zm12.396 0h11.815v11.815h-11.815v-11.815zm12.299 0h11.815v11.815h-11.815v-11.815zm0-.484V215.68h11.815v11.815h-11.815zm12.299-11.815h11.815v11.815h-11.815V215.68zm0-.484v-11.815h11.815v11.815h-11.815zm0-12.396v-11.815h11.815V202.8h-11.815zm0-12.299v-11.815h11.815v11.815h-11.815zm0-12.299v-11.815h11.815v11.815h-11.815zm0-12.396v-11.815h11.815v11.815h-11.815zm0-12.299v-11.815h11.815v11.815h-11.815zm0-12.299v-11.815h11.815v11.815h-11.815zm0-12.396v-11.815h11.815v11.815h-11.815zm0-12.299v-11.815h11.815v11.815h-11.815zm0-12.299V92.399h11.815v11.815h-11.815zm0-12.396V80.003h11.815v11.815h-11.815zm0-12.299V67.704h11.815V79.52h-11.815zm0-12.299V55.405h11.815V67.22h-11.815zM121.722 43.01v11.814h-11.814v-4.967a6.847 6.847 0 016.847-6.848h4.967zm-11.814 184.969h11.814v11.815h-11.814v-11.815zm184.969 11.815v-11.815h11.815v11.815h-11.815z"/><path fill="url(#paint2_linear)" d="M8.714 106.89h160.239v53.413H8.714z"/></g><path fill="url(#paint3_radial)" d="M10.492 96.928c5.524 0 10.002-4.478 10.002-10.002 0-5.524-4.478-10.002-10.002-10.002C4.968 76.924.49 81.402.49 86.926c0 5.524 4.478 10.002 10.002 10.002z"/><path fill="url(#paint4_radial)" d="M4.707 86.438c-1.812-1.115-2.265-3.66-1.01-5.646 1.22-1.986 3.694-2.718 5.506-1.603 1.812 1.115 2.265 3.66 1.01 5.646-1.254 2.021-3.728 2.718-5.506 1.603z" opacity=".5"/><path fill="url(#paint5_radial)" d="M157.399 49.97a7.634 7.634 0 10.001-15.27 7.634 7.634 0 00-.001 15.27z"/><g filter="url(#filter0_i)"><path fill="url(#paint6_linear)" d="M144.529 101.156c-.062-.016-.128-.028-.17-.075-.753-.853 1.562-11.034 1.783-11.799 1.131-3.905 3.004-7.705 6.016-10.492 2.132-1.974 7.827-5.834 10.783-3.565 2.49 1.915.157 6.724-.992 8.735-2.058 3.576-5.091 6.472-7.682 9.643-1.545 1.897-3.098 3.83-4.643 5.727-.094.121-.783 1.099-1.35 1.816-.448.567-1.099.681-1.8.503l-1.945-.493z"/></g><g filter="url(#filter1_i)"><path fill="url(#paint7_linear)" d="M147.895 104.279c1.264.272 2.39-.802 2.126-2.068-1.451-6.964-6.262-25.121-16.451-21.813-9.261 3.04 10.641 20.948 13.524 23.484.231.204.5.333.801.397z"/></g><path fill="#77FFE4" fill-opacity=".2" d="M136.344 84.02s11.916 15.553 12.052 18.843L136.344 84.02zM159.418 78.293s-9.792 12.49-10.856 18.035l10.856-18.035z"/><g filter="url(#filter2_d)"><path fill="#647A8E" d="M31.114 116.884V53.026c0-4.087 3.297-7.663 7.064-7.663h84.762c3.767 0 7.063 3.576 7.063 7.663v63.858"/></g><g filter="url(#filter3_ii)"><path fill="#92A2B1" d="M93.102 110.553a3.331 3.331 0 01-3.33 3.331H71.345a3.331 3.331 0 01-3.33-3.331H22.855v6.661c0 1.999 2.007 3.331 5.018 3.331h105.369c3.011 0 5.018-1.332 5.018-3.331v-6.661H93.102z"/></g><path fill="url(#paint8_linear)" d="M135.833 101.774a2.951 2.951 0 012.937-3.234h15.38c1.742 0 3.105 1.5 2.938 3.234l-1.741 18.058a2.951 2.951 0 01-2.938 2.667h-11.898a2.95 2.95 0 01-2.937-2.667l-1.741-18.058z"/><g filter="url(#filter4_i)"><rect width="23.458" height="5.775" x="134.732" y="98.54" fill="url(#paint9_linear)" rx="1.475"/></g><path stroke="#CFD7DF" stroke-linecap="round" stroke-width="2.633" d="M66.812 76.356l-4.038 1.852a.092.092 0 00.002.167l18.745 8.15c.024.01.05.01.074 0l18.743-8.15a.091.091 0 00.001-.167l-4.117-1.852"/><path stroke="#CFD7DF" stroke-linecap="round" stroke-width="2.633" d="M66.812 85.257l-4.038 1.851a.092.092 0 00.002.167l18.745 8.15c.024.01.05.01.074 0l18.743-8.149a.091.091 0 00.001-.167l-4.117-1.852M81.596 78.038a.092.092 0 01-.073 0l-18.74-8.147a.092.092 0 010-.169l18.74-8.147a.09.09 0 01.073 0l18.74 8.147a.091.091 0 010 .169l-18.74 8.147z"/><defs><linearGradient id="paint0_linear" x1="88.834" x2="88.834" y1=".658" y2="157.342" gradientUnits="userSpaceOnUse"><stop stop-color="#B5EFFF"/><stop offset="1" stop-color="#E7F8FE"/></linearGradient><linearGradient id="paint1_linear" x1="88.343" x2="88.343" y1=".658" y2="156.427" gradientUnits="userSpaceOnUse"><stop stop-color="#B5EFFF"/><stop offset="1" stop-color="#EDFBFF"/></linearGradient><linearGradient id="paint2_linear" x1="79.198" x2="101.297" y1="106.89" y2="174.014" gradientUnits="userSpaceOnUse"><stop stop-color="#7FD3E9"/><stop offset="1" stop-color="#7FD3E9" stop-opacity="0"/></linearGradient><linearGradient id="paint6_linear" x1="166.922" x2="144.828" y1="74.958" y2="94.799" gradientUnits="userSpaceOnUse"><stop stop-color="#BAFFF1" stop-opacity=".26"/><stop offset=".682" stop-color="#4DC7AE"/><stop offset=".969" stop-color="#06896F"/></linearGradient><linearGradient id="paint7_linear" x1="157.093" x2="143.656" y1="82.658" y2="105.286" gradientUnits="userSpaceOnUse"><stop stop-color="#B7FDEF"/><stop offset=".682" stop-color="#09B794"/><stop offset=".969" stop-color="#7EE0CC"/></linearGradient><linearGradient id="paint8_linear" x1="157.399" x2="137.083" y1="114.313" y2="114.313" gradientUnits="userSpaceOnUse"><stop offset=".099" stop-color="#FFEEC5"/><stop offset=".607" stop-color="#FACD63"/><stop offset=".839" stop-color="#EAAF23"/><stop offset=".984" stop-color="#EDB52F"/></linearGradient><linearGradient id="paint9_linear" x1="158.19" x2="136.406" y1="102.341" y2="102.341" gradientUnits="userSpaceOnUse"><stop offset=".099" stop-color="#FFEEC5"/><stop offset=".607" stop-color="#FCBD27"/><stop offset=".984" stop-color="#EFB222"/></linearGradient><filter id="filter0_i" width="22.337" height="32.369" x="143.735" y="71.712" color-interpolation-filters="sRGB" filterUnits="userSpaceOnUse"><feFlood flood-opacity="0" result="BackgroundImageFix"/><feBlend in="SourceGraphic" in2="BackgroundImageFix" result="shape"/><feColorMatrix in="SourceAlpha" result="hardAlpha" values="0 0 0 0 0 0 0 0 0 0 0 0 0 0 0 0 0 0 127 0"/><feOffset dx="1.415" dy="-.541"/><feGaussianBlur stdDeviation="1.844"/><feComposite in2="hardAlpha" k2="-1" k3="1" operator="arithmetic"/><feColorMatrix values="0 0 0 0 0.113056 0 0 0 0 0.616667 0 0 0 0 0.58645 0 0 0 1 0"/><feBlend in2="shape" result="effect1_innerShadow"/></filter><filter id="filter1_i" width="26.24" height="25.849" x="128.34" y="78.724" color-interpolation-filters="sRGB" filterUnits="userSpaceOnUse"><feFlood flood-opacity="0" result="BackgroundImageFix"/><feBlend in="SourceGraphic" in2="BackgroundImageFix" result="shape"/><feColorMatrix in="SourceAlpha" result="hardAlpha" values="0 0 0 0 0 0 0 0 0 0 0 0 0 0 0 0 0 0 127 0"/><feOffset dx="1.415" dy="-.541"/><feGaussianBlur stdDeviation="1.844"/><feComposite in2="hardAlpha" k2="-1" k3="1" operator="arithmetic"/><feColorMatrix values="0 0 0 0 0.0996528 0 0 0 0 0.683333 0 0 0 0 0.555806 0 0 0 1 0"/><feBlend in2="shape" result="effect1_innerShadow"/></filter><filter id="filter2_d" width="106.874" height="79.506" x="27.122" y="43.766" color-interpolation-filters="sRGB" filterUnits="userSpaceOnUse"><feFlood flood-opacity="0" result="BackgroundImageFix"/><feColorMatrix in="SourceAlpha" values="0 0 0 0 0 0 0 0 0 0 0 0 0 0 0 0 0 0 127 0"/><feOffset dy="2.396"/><feGaussianBlur stdDeviation="1.996"/><feColorMatrix values="0 0 0 0 0 0 0 0 0 0 0 0 0 0 0 0 0 0 0.25 0"/><feBlend in2="BackgroundImageFix" result="effect1_dropShadow"/><feBlend in="SourceGraphic" in2="effect1_dropShadow" result="shape"/></filter><filter id="filter3_ii" width="116.203" height="12.392" x="22.058" y="109.153" color-interpolation-filters="sRGB" filterUnits="userSpaceOnUse"><feFlood flood-opacity="0" result="BackgroundImageFix"/><feBlend in="SourceGraphic" in2="BackgroundImageFix" result="shape"/><feColorMatrix in="SourceAlpha" result="hardAlpha" values="0 0 0 0 0 0 0 0 0 0 0 0 0 0 0 0 0 0 127 0"/><feOffset dx="-.799" dy="-1.4"/><feGaussianBlur stdDeviation="1.198"/><feComposite in2="hardAlpha" k2="-1" k3="1" operator="arithmetic"/><feColorMatrix values="0 0 0 0 0.392157 0 0 0 0 0.478431 0 0 0 0 0.556863 0 0 0 1 0"/><feBlend in2="shape" result="effect1_innerShadow"/><feColorMatrix in="SourceAlpha" result="hardAlpha" values="0 0 0 0 0 0 0 0 0 0 0 0 0 0 0 0 0 0 127 0"/><feOffset dy="1"/><feGaussianBlur stdDeviation=".5"/><feComposite in2="hardAlpha" k2="-1" k3="1" operator="arithmetic"/><feColorMatrix values="0 0 0 0 0.706597 0 0 0 0 0.81502 0 0 0 0 0.916667 0 0 0 1 0"/><feBlend in2="effect1_innerShadow" result="effect2_innerShadow"/></filter><filter id="filter4_i" width="24.048" height="6.218" x="134.732" y="98.097" color-interpolation-filters="sRGB" filterUnits="userSpaceOnUse"><feFlood flood-opacity="0" result="BackgroundImageFix"/><feBlend in="SourceGraphic" in2="BackgroundImageFix" result="shape"/><feColorMatrix in="SourceAlpha" result="hardAlpha" values="0 0 0 0 0 0 0 0 0 0 0 0 0 0 0 0 0 0 127 0"/><feOffset dx=".59" dy="-.443"/><feGaussianBlur stdDeviation=".516"/><feComposite in2="hardAlpha" k2="-1" k3="1" operator="arithmetic"/><feColorMatrix values="0 0 0 0 0.833333 0 0 0 0 0.604343 0 0 0 0 0.0555555 0 0 0 1 0"/><feBlend in2="shape" result="effect1_innerShadow"/></filter><radialGradient id="paint3_radial" cx="0" cy="0" r="1" gradientTransform="rotate(-15.177 313.944 19.923) scale(19.074)" gradientUnits="userSpaceOnUse"><stop stop-color="#FFF1CF"/><stop offset=".188" stop-color="#FFE4A2"/><stop offset=".318" stop-color="#FFD364"/><stop offset=".49" stop-color="#FFD364"/><stop offset=".651" stop-color="#FFC73A"/><stop offset=".948" stop-color="#D09500"/></radialGradient><radialGradient id="paint4_radial" cx="0" cy="0" r="1" gradientTransform="rotate(121.889 -19.548 43.346) scale(4.17733 3.80431)" gradientUnits="userSpaceOnUse"><stop stop-color="#fff"/><stop offset=".694" stop-color="#fff" stop-opacity="0"/></radialGradient><radialGradient id="paint5_radial" cx="0" cy="0" r="1" gradientTransform="rotate(-15.177 224.198 -557.469) scale(14.5586)" gradientUnits="userSpaceOnUse"><stop stop-color="#E6C6FF"/><stop offset=".188" stop-color="#C07DF5"/><stop offset=".318" stop-color="#BE6FFC"/><stop offset=".49" stop-color="#B56AF0"/><stop offset=".651" stop-color="#A745F4"/><stop offset=".948" stop-color="#9F3DED"/></radialGradient></defs></svg>