<svg width="150" height="150" viewBox="0 0 150 150" fill="none" xmlns="http://www.w3.org/2000/svg">
    <path d="M134.051 134.188H139.541" stroke="#91A1B0" stroke-width="1.2" stroke-linecap="round" stroke-linejoin="round"/>
    <path d="M104.07 134.188H128.1" stroke="#91A1B0" stroke-width="1.2" stroke-linecap="round" stroke-linejoin="round"/>
    <path d="M10.5391 134.188H98.359" stroke="#91A1B0" stroke-width="1.2" stroke-linecap="round" stroke-linejoin="round"/>
    <path opacity="0.2" d="M75.0391 127.25C102.653 127.25 125.039 104.864 125.039 77.25C125.039 49.6358 102.653 27.25 75.0391 27.25C47.4248 27.25 25.0391 49.6358 25.0391 77.25C25.0391 104.864 47.4248 127.25 75.0391 127.25Z" fill="#BEC6D2"/>
    <path d="M38.1293 41.75H111.959C115.089 41.75 117.639 44.29 117.639 47.43V107.07C117.639 110.2 115.099 112.75 111.959 112.75H38.1293C34.9993 112.75 32.4492 110.21 32.4492 107.07V47.43C32.4492 44.3 34.9893 41.75 38.1293 41.75Z" fill="white" stroke="#91A1B0" stroke-width="1.2" stroke-miterlimit="10"/>
    <path d="M37.6704 42.4219H112.48C114.96 42.4219 116.98 44.4419 116.98 46.9219V58.7819H33.0703V47.0219C33.0703 44.4819 35.1304 42.4219 37.6704 42.4219Z" fill="#91A1B0" stroke="#91A1B0" stroke-width="0.83" stroke-linecap="round" stroke-linejoin="round"/>
    <path d="M52.1896 50.6016H42.3496H52.1896Z" fill="white"/>
    <path d="M52.1896 50.6016H42.3496" stroke="white" stroke-width="1.2" stroke-miterlimit="10" stroke-linecap="round"/>
    <path d="M18.4395 40.1719H24.4795" stroke="#91A1B0" stroke-width="1.2" stroke-linecap="round" stroke-linejoin="round"/>
    <path d="M31.6406 26.0781V32.1281" stroke="#91A1B0" stroke-width="1.2" stroke-linecap="round" stroke-linejoin="round"/>
    <path d="M21.0098 30.4062L25.8097 34.0962" stroke="#91A1B0" stroke-width="1.2" stroke-linecap="round" stroke-linejoin="round"/>
    <path d="M67.0995 65.875H54.4395C53.3349 65.875 52.4395 66.7704 52.4395 67.875V75.435C52.4395 76.5396 53.3349 77.435 54.4395 77.435H67.0995C68.2041 77.435 69.0995 76.5396 69.0995 75.435V67.875C69.0995 66.7704 68.2041 65.875 67.0995 65.875Z" stroke="#CED6DE" stroke-width="1.2" stroke-linecap="round" stroke-linejoin="round"/>
    <path d="M55.7793 70.2031H65.0393" stroke="#CED6DE" stroke-width="1.2" stroke-linecap="round" stroke-linejoin="round"/>
    <path d="M55.7793 73.375H60.7693" stroke="#CED6DE" stroke-width="1.2" stroke-linecap="round" stroke-linejoin="round"/>
    <path d="M72.9392 95.875H60.2793C59.1747 95.875 58.2793 96.7704 58.2793 97.875V105.435C58.2793 106.54 59.1747 107.435 60.2793 107.435H72.9392C74.0438 107.435 74.9392 106.54 74.9392 105.435V97.875C74.9392 96.7704 74.0438 95.875 72.9392 95.875Z" stroke="#CED6DE" stroke-width="1.2" stroke-linecap="round" stroke-linejoin="round"/>
    <path d="M61.6094 100.203H70.8794" stroke="#CED6DE" stroke-width="1.2" stroke-linecap="round" stroke-linejoin="round"/>
    <path d="M61.6094 103.375H66.6094" stroke="#CED6DE" stroke-width="1.2" stroke-linecap="round" stroke-linejoin="round"/>
    <path d="M69.0988 71.6562H98.7688C100.979 71.6562 102.769 73.4462 102.769 75.6562V81.9662C102.769 84.1762 100.979 85.9662 98.7688 85.9662H55.9688C53.7587 85.9662 51.9688 87.7562 51.9688 89.9662V97.7562C51.9688 99.9662 53.7587 101.756 55.9688 101.756H58.2688" stroke="#CED6DE" stroke-width="1.2" stroke-linecap="round" stroke-linejoin="round"/>
    <path d="M89.7818 71.6587L87.123 69L84.4643 71.6587L87.1231 74.3175L89.7818 71.6587Z" fill="white" stroke="#CED6DE" stroke-width="1.2" stroke-linecap="round" stroke-linejoin="round"/>
    <path d="M65.897 85.9712L63.2383 83.3125L60.5796 85.9712L63.2383 88.63L65.897 85.9712Z" fill="white" stroke="#CED6DE" stroke-width="1.2" stroke-linecap="round" stroke-linejoin="round"/>
    <path d="M92.0311 80.1875H79.3711C78.2665 80.1875 77.3711 81.0829 77.3711 82.1875V89.7475C77.3711 90.8521 78.2665 91.7475 79.3711 91.7475H92.0311C93.1357 91.7475 94.0311 90.8521 94.0311 89.7475V82.1875C94.0311 81.0829 93.1357 80.1875 92.0311 80.1875Z" fill="white" stroke="#CED6DE" stroke-width="1.2" stroke-linecap="round" stroke-linejoin="round"/>
    <path d="M80.7109 84.5156H89.981" stroke="#CED6DE" stroke-width="1.2" stroke-linecap="round" stroke-linejoin="round"/>
    <path d="M80.7109 87.6875H85.7109" stroke="#CED6DE" stroke-width="1.2" stroke-linecap="round" stroke-linejoin="round"/>
</svg>
