<svg width="150" height="150" viewBox="0 0 150 150" fill="none" xmlns="http://www.w3.org/2000/svg">
<g clip-path="url(#clip0_13457_65946)">
<path d="M75 121.66C102.614 121.66 125 99.2744 125 71.6602C125 44.0459 102.614 21.6602 75 21.6602C47.3858 21.6602 25 44.0459 25 71.6602C25 99.2744 47.3858 121.66 75 121.66Z" fill="#F6F7F8"/>
<path d="M31.3496 117.1H106.99V31.0996C106.99 28.8896 105.2 27.0996 102.99 27.0996H40.9896C38.7796 27.0996 36.9896 28.8896 36.9896 31.0996V111.25C36.9896 112.87 36.3196 114.42 35.1296 115.52C34.3396 116.25 33.5396 116.59 33.3096 116.68C32.5296 117 31.8296 117.08 31.3496 117.1Z" fill="white"/>
<path d="M107.59 117.7H31.3503L31.3203 116.5C31.9303 116.47 32.5203 116.35 33.0803 116.12C33.4103 115.98 34.0803 115.66 34.7103 115.08C35.7703 114.1 36.3803 112.7 36.3803 111.25V31.1C36.3803 28.56 38.4403 26.5 40.9803 26.5H102.98C105.52 26.5 107.58 28.56 107.58 31.1V117.7H107.59ZM34.8603 116.5H106.39V31.1C106.39 29.22 104.86 27.7 102.99 27.7H40.9903C39.1103 27.7 37.5903 29.23 37.5903 31.1V111.25C37.5903 113.03 36.8403 114.75 35.5403 115.96C35.3103 116.17 35.0903 116.35 34.8703 116.5H34.8603Z" fill="#C9D3DB"/>
<path d="M25.25 92.5293H36.99V111.229C36.99 114.469 34.36 117.099 31.12 117.099C27.88 117.099 25.25 114.469 25.25 111.229V92.5293Z" fill="white"/>
<path d="M31.1204 117.7C27.5504 117.7 24.6504 114.8 24.6504 111.23V91.9297H37.5904V111.23C37.5904 114.8 34.6904 117.7 31.1204 117.7ZM25.8504 93.1197V111.23C25.8504 114.14 28.2104 116.5 31.1204 116.5C34.0304 116.5 36.3904 114.13 36.3904 111.23V93.1197H25.8504Z" fill="#C9D3DB"/>
<path d="M114.465 117.348L119.624 109.973L130.907 117.868C132.939 119.289 133.436 122.103 132.014 124.135C130.592 126.167 127.779 126.664 125.747 125.242L114.465 117.348Z" fill="white"/>
<path d="M128.321 126.661C127.311 126.661 126.291 126.361 125.401 125.741L113.621 117.501L119.471 109.141L131.251 117.381C133.551 118.991 134.121 122.181 132.501 124.481C131.511 125.901 129.921 126.651 128.311 126.651L128.321 126.661ZM115.301 117.211L126.091 124.761C127.851 125.991 130.291 125.561 131.521 123.801C132.751 122.041 132.321 119.601 130.561 118.371L119.771 110.821L115.301 117.211Z" fill="#C9D3DB"/>
<path d="M114.579 109.248L112.051 112.861L115.664 115.39L118.192 111.776L114.579 109.248Z" fill="white"/>
<path d="M115.811 116.23L111.211 113.01L114.431 108.41L119.031 111.63L115.811 116.23ZM112.881 112.72L115.511 114.56L117.351 111.93L114.721 110.09L112.881 112.72Z" fill="#C9D3DB"/>
<path d="M92.8198 121.919C106.478 121.919 117.55 110.847 117.55 97.189C117.55 83.531 106.478 72.459 92.8198 72.459C79.1618 72.459 68.0898 83.531 68.0898 97.189C68.0898 110.847 79.1618 121.919 92.8198 121.919Z" fill="white"/>
<path d="M92.8202 122.519C78.8502 122.519 67.4902 111.159 67.4902 97.1894C67.4902 83.2194 78.8502 71.8594 92.8202 71.8594C106.79 71.8594 118.15 83.2194 118.15 97.1894C118.15 111.159 106.79 122.519 92.8202 122.519ZM92.8202 73.0594C79.5102 73.0594 68.6902 83.8894 68.6902 97.1894C68.6902 110.489 79.5202 121.319 92.8202 121.319C106.12 121.319 116.95 110.489 116.95 97.1894C116.95 83.8894 106.12 73.0594 92.8202 73.0594Z" fill="#C9D3DB"/>
<path d="M92.82 117.259C103.904 117.259 112.89 108.273 112.89 97.1891C112.89 86.1048 103.904 77.1191 92.82 77.1191C81.7356 77.1191 72.75 86.1048 72.75 97.1891C72.75 108.273 81.7356 117.259 92.82 117.259Z" fill="white"/>
<path d="M92.8204 117.869C81.4204 117.869 72.1504 108.599 72.1504 97.1993C72.1504 85.7993 81.4204 76.5293 92.8204 76.5293C104.22 76.5293 113.49 85.7993 113.49 97.1993C113.49 108.599 104.22 117.869 92.8204 117.869ZM92.8204 77.7193C82.0804 77.7193 73.3504 86.4593 73.3504 97.1893C73.3504 107.919 82.0904 116.669 92.8204 116.669C103.55 116.669 112.3 107.929 112.3 97.1893C112.3 86.4493 103.56 77.7193 92.8204 77.7193Z" fill="#C9D3DB"/>
<g opacity="0.25">
<path d="M90.9209 100.831V100.371C90.9209 98.7106 91.5309 97.3906 93.5609 95.5906C94.8109 94.4606 95.1209 93.5806 95.1209 92.5806C95.1209 91.4706 94.4609 90.4206 92.9109 90.4206C91.2509 90.4206 90.5909 91.5206 90.4009 93.0006H87.1309C87.2509 90.9606 88.5609 87.7906 92.9709 87.8106C97.1909 87.8306 98.4809 90.6206 98.4809 92.6806C98.4809 94.4206 97.9109 95.6006 95.9709 97.3906C94.7609 98.5106 94.3609 99.4006 94.3609 100.571V100.831H90.9109H90.9209ZM90.9209 106.571V102.401H94.3709V106.571H90.9209Z" fill="#8E9DAC"/>
</g>
<path d="M68.0797 64.6015C67.8897 64.6015 67.6997 64.5115 67.5897 64.3515C67.3997 64.0815 67.4697 63.7015 67.7397 63.5115C68.6597 62.8715 70.5797 61.7915 73.1697 61.8415C75.6097 61.8815 77.4097 62.9015 78.2697 63.5115C78.5397 63.7015 78.6097 64.0815 78.4197 64.3515C78.2297 64.6215 77.8597 64.6915 77.5797 64.5015C76.8297 63.9715 75.2597 63.0915 73.1497 63.0515C70.8797 62.9915 69.2197 63.9415 68.4297 64.5015C68.3197 64.5715 68.1997 64.6115 68.0897 64.6115L68.0797 64.6015Z" fill="#8E9DAC"/>
<path d="M57.3213 54.3207C57.1713 54.3207 57.0213 54.2707 56.9013 54.1507C56.6613 53.9207 56.6513 53.5407 56.8813 53.3007L63.0813 46.8407C63.3113 46.6007 63.6913 46.5907 63.9313 46.8207C64.1713 47.0507 64.1813 47.4307 63.9513 47.6707L57.7513 54.1307C57.6313 54.2507 57.4713 54.3107 57.3213 54.3107V54.3207Z" fill="#8E9DAC"/>
<path d="M63.6504 54.1916C63.5004 54.1916 63.3504 54.1416 63.2304 54.0216L56.7704 47.8216C56.5304 47.5916 56.5204 47.2116 56.7504 46.9716C56.9804 46.7316 57.3604 46.7216 57.6004 46.9516L64.0604 53.1516C64.3004 53.3816 64.3104 53.7616 64.0804 54.0016C63.9604 54.1216 63.8004 54.1816 63.6504 54.1816V54.1916Z" fill="#8E9DAC"/>
<path d="M81.4521 54.3207C81.3021 54.3207 81.1521 54.2707 81.0321 54.1507C80.7921 53.9207 80.7821 53.5407 81.0121 53.3007L87.2121 46.8407C87.4421 46.6007 87.8221 46.5907 88.0621 46.8207C88.3021 47.0507 88.3121 47.4307 88.0821 47.6707L81.8821 54.1307C81.7621 54.2507 81.6021 54.3107 81.4521 54.3107V54.3207Z" fill="#8E9DAC"/>
<path d="M87.7813 54.1916C87.6313 54.1916 87.4813 54.1416 87.3613 54.0216L80.9013 47.8216C80.6613 47.5916 80.6513 47.2116 80.8813 46.9716C81.1113 46.7316 81.4913 46.7216 81.7313 46.9516L88.1913 53.1516C88.4313 53.3816 88.4413 53.7616 88.2113 54.0016C88.0913 54.1216 87.9313 54.1816 87.7813 54.1816V54.1916Z" fill="#8E9DAC"/>
<path d="M140.001 134.341H134.471C134.141 134.341 133.871 134.071 133.871 133.741C133.871 133.411 134.141 133.141 134.471 133.141H140.001C140.331 133.141 140.601 133.411 140.601 133.741C140.601 134.071 140.331 134.341 140.001 134.341Z" fill="#C9D3DB"/>
<path d="M128.461 134.341H104.241C103.911 134.341 103.641 134.071 103.641 133.741C103.641 133.411 103.911 133.141 104.241 133.141H128.461C128.791 133.141 129.061 133.411 129.061 133.741C129.061 134.071 128.791 134.341 128.461 134.341Z" fill="#C9D3DB"/>
<path d="M98.5004 134.341H10.0004C9.67039 134.341 9.40039 134.071 9.40039 133.741C9.40039 133.411 9.67039 133.141 10.0004 133.141H98.5004C98.8304 133.141 99.1004 133.411 99.1004 133.741C99.1004 134.071 98.8304 134.341 98.5004 134.341Z" fill="#C9D3DB"/>
<path d="M26.1196 33.5809H18.9496C18.6196 33.5809 18.3496 33.3109 18.3496 32.9809C18.3496 32.6509 18.6196 32.3809 18.9496 32.3809H26.1196C26.4496 32.3809 26.7196 32.6509 26.7196 32.9809C26.7196 33.3109 26.4496 33.5809 26.1196 33.5809Z" fill="#C9D3DB"/>
<path d="M34.6098 24.0402C34.2798 24.0402 34.0098 23.7702 34.0098 23.4402V16.2602C34.0098 15.9302 34.2798 15.6602 34.6098 15.6602C34.9398 15.6602 35.2098 15.9302 35.2098 16.2602V23.4402C35.2098 23.7702 34.9398 24.0402 34.6098 24.0402Z" fill="#C9D3DB"/>
<path d="M27.6814 26.3596C27.5514 26.3596 27.4214 26.3196 27.3114 26.2396L21.6214 21.8696C21.3614 21.6696 21.3114 21.2896 21.5114 21.0296C21.7114 20.7696 22.0914 20.7196 22.3514 20.9196L28.0414 25.2896C28.3014 25.4896 28.3514 25.8696 28.1514 26.1296C28.0314 26.2796 27.8514 26.3596 27.6714 26.3596H27.6814Z" fill="#C9D3DB"/>
</g>
<defs>
<clipPath id="clip0_13457_65946">
<rect width="150" height="150" fill="white"/>
</clipPath>
</defs>
</svg>
