<svg width="132" height="120" viewBox="0 0 132 120" fill="none" xmlns="http://www.w3.org/2000/svg">
<path opacity="0.2" d="M66 106.66C93.6142 106.66 116 84.2744 116 56.6602C116 29.0459 93.6142 6.66016 66 6.66016C38.3858 6.66016 16 29.0459 16 56.6602C16 84.2744 38.3858 106.66 66 106.66Z" fill="#BFC7D3"/>
<path d="M22.3516 102.1H97.9916V16.0996C97.9916 13.8896 96.2016 12.0996 93.9916 12.0996H31.9916C29.7816 12.0996 27.9916 13.8896 27.9916 16.0996V96.2496C27.9916 97.8696 27.3216 99.4196 26.1316 100.52C25.3416 101.25 24.5416 101.59 24.3116 101.68C23.5316 102 22.8316 102.08 22.3516 102.1Z" fill="white"/>
<path d="M98.5903 102.7H22.3503L22.3203 101.5C22.9303 101.47 23.5203 101.35 24.0803 101.12C24.4103 100.98 25.0803 100.66 25.7103 100.08C26.7703 99.1 27.3803 97.7 27.3803 96.25V16.1C27.3803 13.56 29.4403 11.5 31.9803 11.5H93.9803C96.5203 11.5 98.5803 13.56 98.5803 16.1V102.7H98.5903ZM25.8603 101.5H97.3903V16.1C97.3903 14.22 95.8603 12.7 93.9903 12.7H31.9903C30.1103 12.7 28.5903 14.23 28.5903 16.1V96.25C28.5903 98.03 27.8403 99.75 26.5403 100.96C26.3103 101.17 26.0903 101.35 25.8703 101.5H25.8603Z" fill="#92A2B1"/>
<path d="M16.25 77.5293H27.99V96.2293C27.99 99.4693 25.36 102.099 22.12 102.099C18.88 102.099 16.25 99.4693 16.25 96.2293V77.5293Z" fill="white"/>
<path d="M22.1184 102.7C18.5484 102.7 15.6484 99.7997 15.6484 96.2297V76.9297H28.5884V96.2297C28.5884 99.7997 25.6884 102.7 22.1184 102.7ZM16.8484 78.1197V96.2297C16.8484 99.1397 19.2084 101.5 22.1184 101.5C25.0284 101.5 27.3884 99.1297 27.3884 96.2297V78.1197H16.8484Z" fill="#92A2B1"/>
<path d="M105.461 102.348L110.621 94.9735L121.903 102.868C123.935 104.289 124.432 107.103 123.01 109.135C121.589 111.167 118.775 111.664 116.743 110.242L105.461 102.348Z" fill="white"/>
<path d="M119.317 111.661C118.307 111.661 117.287 111.361 116.397 110.741L104.617 102.501L110.467 94.1406L122.247 102.381C124.547 103.991 125.117 107.181 123.497 109.481C122.507 110.901 120.917 111.651 119.307 111.651L119.317 111.661ZM106.297 102.211L117.087 109.761C118.847 110.991 121.287 110.561 122.517 108.801C123.747 107.041 123.317 104.601 121.557 103.371L110.767 95.8206L106.297 102.211Z" fill="#92A2B1"/>
<path d="M105.575 94.248L103.047 97.8613L106.66 100.39L109.188 96.7762L105.575 94.248Z" fill="white"/>
<path d="M106.807 101.23L102.207 98.0102L105.427 93.4102L110.027 96.6301L106.807 101.23ZM103.877 97.7202L106.507 99.5602L108.347 96.9302L105.717 95.0901L103.877 97.7202Z" fill="#92A2B1"/>
<path d="M83.8198 106.919C97.4778 106.919 108.55 95.847 108.55 82.189C108.55 68.531 97.4778 57.459 83.8198 57.459C70.1618 57.459 59.0898 68.531 59.0898 82.189C59.0898 95.847 70.1618 106.919 83.8198 106.919Z" fill="white"/>
<path d="M83.8183 107.519C69.8483 107.519 58.4883 96.1594 58.4883 82.1894C58.4883 68.2194 69.8483 56.8594 83.8183 56.8594C97.7883 56.8594 109.148 68.2194 109.148 82.1894C109.148 96.1594 97.7883 107.519 83.8183 107.519ZM83.8183 58.0594C70.5083 58.0594 59.6883 68.8894 59.6883 82.1894C59.6883 95.4894 70.5183 106.319 83.8183 106.319C97.1183 106.319 107.948 95.4894 107.948 82.1894C107.948 68.8894 97.1183 58.0594 83.8183 58.0594Z" fill="#92A2B1"/>
<path d="M83.82 102.259C94.9044 102.259 103.89 93.2735 103.89 82.1891C103.89 71.1048 94.9044 62.1191 83.82 62.1191C72.7356 62.1191 63.75 71.1048 63.75 82.1891C63.75 93.2735 72.7356 102.259 83.82 102.259Z" fill="white"/>
<path d="M83.8184 102.869C72.4184 102.869 63.1484 93.5993 63.1484 82.1993C63.1484 70.7993 72.4184 61.5293 83.8184 61.5293C95.2184 61.5293 104.488 70.7993 104.488 82.1993C104.488 93.5993 95.2184 102.869 83.8184 102.869ZM83.8184 62.7193C73.0784 62.7193 64.3484 71.4593 64.3484 82.1893C64.3484 92.9193 73.0884 101.669 83.8184 101.669C94.5484 101.669 103.298 92.9293 103.298 82.1893C103.298 71.4493 94.5584 62.7193 83.8184 62.7193Z" fill="#92A2B1"/>
<g opacity="0.25">
<path d="M81.9189 85.8306V85.3706C81.9189 83.7106 82.5289 82.3906 84.5589 80.5906C85.8089 79.4606 86.1189 78.5806 86.1189 77.5806C86.1189 76.4706 85.4589 75.4206 83.9089 75.4206C82.2489 75.4206 81.5889 76.5206 81.3989 78.0006H78.1289C78.2489 75.9606 79.5589 72.7906 83.9689 72.8106C88.1889 72.8306 89.4789 75.6206 89.4789 77.6806C89.4789 79.4206 88.9089 80.6006 86.9689 82.3906C85.7589 83.5106 85.3589 84.4006 85.3589 85.5706V85.8306H81.9089H81.9189ZM81.9189 91.5706V87.4006H85.3689V91.5706H81.9189Z" fill="#C4CCD4"/>
</g>
<path d="M59.0777 49.6015C58.8877 49.6015 58.6977 49.5115 58.5877 49.3515C58.3977 49.0815 58.4677 48.7015 58.7377 48.5115C59.6577 47.8715 61.5777 46.7915 64.1677 46.8415C66.6077 46.8815 68.4077 47.9015 69.2677 48.5115C69.5377 48.7015 69.6077 49.0815 69.4177 49.3515C69.2277 49.6215 68.8577 49.6915 68.5777 49.5015C67.8277 48.9715 66.2577 48.0915 64.1477 48.0515C61.8777 47.9915 60.2177 48.9415 59.4277 49.5015C59.3177 49.5715 59.1977 49.6115 59.0877 49.6115L59.0777 49.6015Z" fill="#C4CCD4"/>
<path d="M48.3174 39.3207C48.1674 39.3207 48.0174 39.2707 47.8974 39.1507C47.6574 38.9207 47.6474 38.5407 47.8774 38.3007L54.0774 31.8407C54.3074 31.6007 54.6874 31.5907 54.9274 31.8207C55.1674 32.0507 55.1774 32.4307 54.9474 32.6707L48.7474 39.1307C48.6274 39.2507 48.4674 39.3107 48.3174 39.3107V39.3207Z" fill="#C4CCD4"/>
<path d="M54.6485 39.1916C54.4985 39.1916 54.3485 39.1416 54.2285 39.0216L47.7685 32.8216C47.5285 32.5916 47.5185 32.2116 47.7485 31.9716C47.9785 31.7316 48.3585 31.7216 48.5985 31.9516L55.0585 38.1516C55.2985 38.3816 55.3085 38.7616 55.0785 39.0016C54.9585 39.1216 54.7985 39.1816 54.6485 39.1816V39.1916Z" fill="#C4CCD4"/>
<path d="M72.4463 39.3207C72.2963 39.3207 72.1463 39.2707 72.0263 39.1507C71.7863 38.9207 71.7763 38.5407 72.0063 38.3007L78.2063 31.8407C78.4363 31.6007 78.8163 31.5907 79.0563 31.8207C79.2963 32.0507 79.3063 32.4307 79.0763 32.6707L72.8763 39.1307C72.7563 39.2507 72.5963 39.3107 72.4463 39.3107V39.3207Z" fill="#C4CCD4"/>
<path d="M78.7774 39.1916C78.6274 39.1916 78.4774 39.1416 78.3574 39.0216L71.8974 32.8216C71.6574 32.5916 71.6474 32.2116 71.8774 31.9716C72.1074 31.7316 72.4874 31.7216 72.7274 31.9516L79.1874 38.1516C79.4274 38.3816 79.4374 38.7616 79.2074 39.0016C79.0874 39.1216 78.9274 39.1816 78.7774 39.1816V39.1916Z" fill="#C4CCD4"/>
<path d="M130.997 119.341H125.467C125.137 119.341 124.867 119.071 124.867 118.741C124.867 118.411 125.137 118.141 125.467 118.141H130.997C131.327 118.141 131.597 118.411 131.597 118.741C131.597 119.071 131.327 119.341 130.997 119.341Z" fill="#92A2B1"/>
<path d="M119.457 119.341H95.2367C94.9067 119.341 94.6367 119.071 94.6367 118.741C94.6367 118.411 94.9067 118.141 95.2367 118.141H119.457C119.787 118.141 120.057 118.411 120.057 118.741C120.057 119.071 119.787 119.341 119.457 119.341Z" fill="#92A2B1"/>
<path d="M89.4984 119.341H0.998438C0.668438 119.341 0.398438 119.071 0.398438 118.741C0.398438 118.411 0.668438 118.141 0.998438 118.141H89.4984C89.8284 118.141 90.0984 118.411 90.0984 118.741C90.0984 119.071 89.8284 119.341 89.4984 119.341Z" fill="#92A2B1"/>
<path d="M17.1177 18.5809H9.94766C9.61766 18.5809 9.34766 18.3109 9.34766 17.9809C9.34766 17.6509 9.61766 17.3809 9.94766 17.3809H17.1177C17.4477 17.3809 17.7177 17.6509 17.7177 17.9809C17.7177 18.3109 17.4477 18.5809 17.1177 18.5809Z" fill="#92A2B1"/>
<path d="M25.6078 9.04016C25.2778 9.04016 25.0078 8.77016 25.0078 8.44016V1.26016C25.0078 0.930157 25.2778 0.660156 25.6078 0.660156C25.9378 0.660156 26.2078 0.930157 26.2078 1.26016V8.44016C26.2078 8.77016 25.9378 9.04016 25.6078 9.04016Z" fill="#92A2B1"/>
<path d="M18.6794 11.3596C18.5494 11.3596 18.4194 11.3196 18.3094 11.2396L12.6194 6.86957C12.3594 6.66957 12.3094 6.28957 12.5094 6.02957C12.7094 5.76957 13.0894 5.71957 13.3494 5.91957L19.0394 10.2896C19.2994 10.4896 19.3494 10.8696 19.1494 11.1296C19.0294 11.2796 18.8494 11.3596 18.6694 11.3596H18.6794Z" fill="#92A2B1"/>
</svg>
