<svg xmlns="http://www.w3.org/2000/svg" width="116" height="99" fill="none" viewBox="0 0 116 99"><mask id="fs-0kk97ygfua" style="mask-type:alpha" width="100" height="99" x="16" y="0" maskUnits="userSpaceOnUse"><path fill="url(#paint0_linear_5989_95176)" d="M65.906 98.508c27.203 0 49.254-22.052 49.254-49.254C115.16 22.052 93.109 0 65.906 0 38.704 0 16.652 22.052 16.652 49.254c0 27.202 22.052 49.254 49.254 49.254z"/></mask><g mask="url(#fs-0kk97ygfua)"><path fill="url(#paint1_linear_5989_95176)" d="M65.9 97.932c27.199 0 49.248-21.922 49.248-48.966C115.148 21.923 93.098 0 65.9 0 38.701 0 16.652 21.923 16.652 48.966c0 27.044 22.05 48.966 49.248 48.966z"/><mask id="fs-9go5me39ub" style="mask-type:alpha" width="119" height="119" x="7" y="-14" maskUnits="userSpaceOnUse"><path fill="url(#paint2_linear_5989_95176)" d="M66.593 104.833c32.722 0 59.248-26.526 59.248-59.248 0-32.721-26.526-59.247-59.248-59.247-32.721 0-59.247 26.526-59.247 59.247 0 32.722 26.526 59.248 59.247 59.248z"/></mask><g mask="url(#fs-9go5me39ub)"><path fill="#fff" d="M82.025 26.322a3.175 3.175 0 00-3.175 3.175v121.214h124.388V26.322H82.025zm120.848 7.733h-7.428v-7.428h7.428v7.428zM141.196 80.57v-7.428h7.428v7.428h-7.428zm7.428.365v7.428h-7.428v-7.428h7.428zm-7.732-.365h-7.428v-7.428h7.428v7.428zm0 .365v7.428h-7.428v-7.428h7.428zm-7.794 7.428h-7.428v-7.428h7.428v7.428zm0 .305v7.428h-7.428v-7.428h7.428zm.366 0h7.428v7.428h-7.428v-7.428zm7.428 7.732v7.428h-7.428v-7.428h7.428zm.304 0h7.428v7.428h-7.428v-7.428zm0-.304v-7.428h7.428v7.428h-7.428zm7.733-7.428h7.428v7.428h-7.428v-7.428zm0-.305v-7.428h7.428v7.428h-7.428zm0-7.793v-7.428h7.428v7.428h-7.428zm0-7.732V65.41h7.428v7.428h-7.428zm-.305 0h-7.428V65.41h7.428v7.428zm-7.732 0h-7.428V65.41h7.428v7.428zm-7.794 0h-7.428V65.41h7.428v7.428zm0 .304v7.428h-7.428v-7.428h7.428zm-7.732 7.428h-7.428v-7.428h7.428v7.428zm0 .365v7.428h-7.428v-7.428h7.428zm0 7.733v7.428h-7.428v-7.428h7.428zm0 7.732v7.428h-7.428v-7.428h7.428zm.304 0h7.428v7.428h-7.428v-7.428zm7.428 7.794v7.428h-7.428v-7.428h7.428zm.366 0h7.428v7.428h-7.428v-7.428zm7.732 0h7.428v7.428h-7.428v-7.428zm7.733 0h7.428v7.428h-7.428v-7.428zm0-.366v-7.428h7.428v7.428h-7.428zm7.793-7.428h7.428v7.428h-7.428v-7.428zm0-.304v-7.428h7.428v7.428h-7.428zm0-7.733v-7.428h7.428v7.428h-7.428zm0-7.793v-7.428h7.428v7.428h-7.428zm0-7.732V65.41h7.428v7.428h-7.428zm0-7.733v-7.428h7.428v7.428h-7.428zm-.365 0h-7.428v-7.428h7.428v7.428zm-7.733 0h-7.428v-7.428h7.428v7.428zm-7.732 0h-7.428v-7.428h7.428v7.428zm-7.794 0h-7.428v-7.428h7.428v7.428zm-7.732 0h-7.428v-7.428h7.428v7.428zm0 .305v7.428h-7.428V65.41h7.428zm-7.732 7.428h-7.428V65.41h7.428v7.428zm0 .304v7.428h-7.428v-7.428h7.428zm0 7.793v7.428h-7.428v-7.428h7.428zm0 7.733v7.428h-7.428v-7.428h7.428zm0 7.732v7.428h-7.428v-7.428h7.428zm0 7.794v7.428h-7.428v-7.428h7.428zm.304 0h7.428v7.428h-7.428v-7.428zm7.428 7.732v7.428h-7.428v-7.428h7.428zm.304 0h7.428v7.428h-7.428v-7.428zm7.794 0h7.428v7.428h-7.428v-7.428zm7.732 0h7.428v7.428h-7.428v-7.428zm7.733 0h7.428v7.428h-7.428v-7.428zm7.793 0h7.428v7.428h-7.428v-7.428zm0-.304v-7.428h7.428v7.428h-7.428zm7.732-7.428h7.428v7.428h-7.428v-7.428zm0-.366v-7.428h7.428v7.428h-7.428zm0-7.732v-7.428h7.428v7.428h-7.428zm0-7.733v-7.428h7.428v7.428h-7.428zm0-7.793v-7.428h7.428v7.428h-7.428zm0-7.732V65.41h7.428v7.428h-7.428zm0-7.733v-7.428h7.428v7.428h-7.428zm0-7.793v-7.428h7.428v7.428h-7.428zm-.304 0h-7.428v-7.428h7.428v7.428zm-7.793 0h-7.428v-7.428h7.428v7.428zm-7.733 0h-7.428v-7.428h7.428v7.428zm-7.732 0h-7.428v-7.428h7.428v7.428zm-7.794 0h-7.428v-7.428h7.428v7.428zm-7.732 0h-7.428v-7.428h7.428v7.428zm-7.732 0h-7.428v-7.428h7.428v7.428zm0 .365v7.428h-7.428v-7.428h7.428zm-7.794 7.428h-7.428v-7.428h7.428v7.428zm0 .305v7.428h-7.428V65.41h7.428zm0 7.732v7.428h-7.428v-7.428h7.428zm0 7.793v7.428h-7.428v-7.428h7.428zm0 7.733v7.428h-7.428v-7.428h7.428zm0 7.732v7.428h-7.428v-7.428h7.428zm0 7.794v7.428h-7.428v-7.428h7.428zm0 7.732v7.428h-7.428v-7.428h7.428zm.366 0h7.428v7.428h-7.428v-7.428zm7.428 7.732v7.428h-7.428v-7.428h7.428zm.304 0h7.428v7.428h-7.428v-7.428zm7.732 0h7.428v7.428h-7.428v-7.428zm7.794 0h7.428v7.428h-7.428v-7.428zm7.732 0h7.428v7.428h-7.428v-7.428zm7.733 0h7.428v7.428h-7.428v-7.428zm7.793 0h7.428v7.428h-7.428v-7.428zm7.732 0h7.428v7.428h-7.428v-7.428zm0-.304v-7.428h7.428v7.428h-7.428zm7.733-7.428h7.428v7.428h-7.428v-7.428zm0-.304v-7.428h7.428v7.428h-7.428zm0-7.794v-7.428h7.428v7.428h-7.428zm0-7.732v-7.428h7.428v7.428h-7.428zm0-7.733v-7.428h7.428v7.428h-7.428zm0-7.793v-7.428h7.428v7.428h-7.428zm0-7.732V65.41h7.428v7.428h-7.428zm0-7.733v-7.428h7.428v7.428h-7.428zm0-7.793v-7.428h7.428v7.428h-7.428zm0-7.733v-7.428h7.428v7.428h-7.428zm-.305 0h-7.428v-7.428h7.428v7.428zm-7.732 0h-7.428v-7.428h7.428v7.428zm-7.793 0h-7.428v-7.428h7.428v7.428zm-7.733 0h-7.428v-7.428h7.428v7.428zm-7.732 0h-7.428v-7.428h7.428v7.428zm-7.794 0h-7.428v-7.428h7.428v7.428zm-7.732 0h-7.428v-7.428h7.428v7.428zm-7.732 0h-7.428v-7.428h7.428v7.428zm-7.794 0h-7.428v-7.428h7.428v7.428zm0 .305v7.428h-7.428v-7.428h7.428zm-7.732 7.428H94.68v-7.428h7.428v7.428zm0 .365v7.428H94.68v-7.428h7.428zm0 7.733v7.428H94.68V65.41h7.428zm0 7.732v7.428H94.68v-7.428h7.428zm0 7.793v7.428H94.68v-7.428h7.428zm0 7.733v7.428H94.68v-7.428h7.428zm0 7.732v7.428H94.68v-7.428h7.428zm0 7.794v7.428H94.68v-7.428h7.428zm0 7.732v7.428H94.68v-7.428h7.428zm0 7.732v7.428H94.68v-7.428h7.428zm.304 0h7.428v7.428h-7.428v-7.428zm7.428 7.794v7.428h-7.428v-7.428h7.428zm.366 0h7.428v7.428h-7.428v-7.428zm7.732 0h7.428v7.428h-7.428v-7.428zm7.732 0h7.428v7.428h-7.428v-7.428zm7.794 0h7.428v7.428h-7.428v-7.428zm7.732 0h7.428v7.428h-7.428v-7.428zm7.733 0h7.428v7.428h-7.428v-7.428zm7.793 0h7.428v7.428h-7.428v-7.428zm7.732 0h7.428v7.428h-7.428v-7.428zm7.733 0h7.428v7.428h-7.428v-7.428zm0-.366v-7.428h7.428v7.428h-7.428zm7.793-7.428h7.428v7.428h-7.428v-7.428zm0-.304v-7.428h7.428v7.428h-7.428zm0-7.732v-7.428h7.428v7.428h-7.428zm0-7.794v-7.428h7.428v7.428h-7.428zm0-7.732v-7.428h7.428v7.428h-7.428zm0-7.733v-7.428h7.428v7.428h-7.428zm0-7.793v-7.428h7.428v7.428h-7.428zm0-7.732V65.41h7.428v7.428h-7.428zm0-7.733v-7.428h7.428v7.428h-7.428zm0-7.793v-7.428h7.428v7.428h-7.428zm0-7.733v-7.428h7.428v7.428h-7.428zm0-7.732V34.42h7.428v7.428h-7.428zm-.365 0h-7.428V34.42h7.428v7.428zm-7.733 0h-7.428V34.42h7.428v7.428zm-7.732 0h-7.428V34.42h7.428v7.428zm-7.793 0h-7.428V34.42h7.428v7.428zm-7.733 0h-7.428V34.42h7.428v7.428zm-7.732 0h-7.428V34.42h7.428v7.428zm-7.794 0h-7.428V34.42h7.428v7.428zm-7.732 0h-7.428V34.42h7.428v7.428zm-7.732 0h-7.428V34.42h7.428v7.428zm-7.794 0h-7.428V34.42h7.428v7.428zm-7.732 0H94.68V34.42h7.428v7.428zm0 .304v7.428H94.68v-7.428h7.428zm-7.733 7.428h-7.428v-7.428h7.428v7.428zm0 .305v7.428h-7.428v-7.428h7.428zm0 7.793v7.428h-7.428v-7.428h7.428zm0 7.733v7.428h-7.428V65.41h7.428zm0 7.732v7.428h-7.428v-7.428h7.428zm0 7.793v7.428h-7.428v-7.428h7.428zm0 7.733v7.428h-7.428v-7.428h7.428zm0 7.732v7.428h-7.428v-7.428h7.428zm0 7.794v7.428h-7.428v-7.428h7.428zm0 7.732v7.428h-7.428v-7.428h7.428zm0 7.732v7.428h-7.428v-7.428h7.428zm0 7.794v7.428h-7.428v-7.428h7.428zm.305 0h7.428v7.428H94.68v-7.428zm7.428 7.732v7.428H94.68v-7.428h7.428zm.304 0h7.428v7.428h-7.428v-7.428zm7.794 0h7.428v7.428h-7.428v-7.428zm7.732 0h7.428v7.428h-7.428v-7.428zm7.732 0h7.428v7.428h-7.428v-7.428zm7.794 0h7.428v7.428h-7.428v-7.428zm7.732 0h7.428v7.428h-7.428v-7.428zm7.733 0h7.428v7.428h-7.428v-7.428zm7.793 0h7.428v7.428h-7.428v-7.428zm7.732 0h7.428v7.428h-7.428v-7.428zm7.733 0h7.428v7.428h-7.428v-7.428zm7.793 0h7.428v7.428h-7.428v-7.428zm0-.304v-7.428h7.428v7.428h-7.428zm7.732-7.428h7.428v7.428h-7.428v-7.428zm0-.366v-7.428h7.428v7.428h-7.428zm0-7.732v-7.428h7.428v7.428h-7.428zm0-7.732v-7.428h7.428v7.428h-7.428zm0-7.794v-7.428h7.428v7.428h-7.428zm0-7.732v-7.428h7.428v7.428h-7.428zm0-7.733v-7.428h7.428v7.428h-7.428zm0-7.793v-7.428h7.428v7.428h-7.428zm0-7.732V65.41h7.428v7.428h-7.428zm0-7.733v-7.428h7.428v7.428h-7.428zm0-7.793v-7.428h7.428v7.428h-7.428zm0-7.733v-7.428h7.428v7.428h-7.428zm0-7.732V34.42h7.428v7.428h-7.428zm0-7.793v-7.428h7.428v7.428h-7.428zm-.304 0h-7.428v-7.428h7.428v7.428zm-7.793 0h-7.428v-7.428h7.428v7.428zm-7.733 0h-7.428v-7.428h7.428v7.428zm-7.732 0h-7.428v-7.428h7.428v7.428zm-7.793 0h-7.428v-7.428h7.428v7.428zm-7.733 0h-7.428v-7.428h7.428v7.428zm-7.732 0h-7.428v-7.428h7.428v7.428zm-7.794 0h-7.428v-7.428h7.428v7.428zm-7.732 0h-7.428v-7.428h7.428v7.428zm-7.732 0h-7.428v-7.428h7.428v7.428zm-7.794 0h-7.428v-7.428h7.428v7.428zm-7.732 0H94.68v-7.428h7.428v7.428zm-7.733 0h-7.428v-7.428h7.428v7.428zm0 .365v7.428h-7.428V34.42h7.428zm-7.793 7.428h-7.428V34.42h7.428v7.428zm0 .304v7.428h-7.428v-7.428h7.428zm0 7.733v7.428h-7.428v-7.428h7.428zm0 7.793v7.428h-7.428v-7.428h7.428zm0 7.733v7.428h-7.428V65.41h7.428zm0 7.732v7.428h-7.428v-7.428h7.428zm0 7.793v7.428h-7.428v-7.428h7.428zm0 7.733v7.428h-7.428v-7.428h7.428zm0 7.732v7.428h-7.428v-7.428h7.428zm0 7.794v7.428h-7.428v-7.428h7.428zm0 7.732v7.428h-7.428v-7.428h7.428zm0 7.732v7.428h-7.428v-7.428h7.428zm0 7.794v7.428h-7.428v-7.428h7.428zm0 7.732v7.428h-7.428v-7.428h7.428zm.365 0h7.428v7.428h-7.428v-7.428zm7.428 7.733v7.428h-7.428v-7.428h7.428zm.305 0h7.428v7.428H94.68v-7.428zm7.732 0h7.428v7.428h-7.428v-7.428zm7.794 0h7.428v7.428h-7.428v-7.428zm7.732 0h7.428v7.428h-7.428v-7.428zm7.732 0h7.428v7.428h-7.428v-7.428zm7.794 0h7.428v7.428h-7.428v-7.428zm7.732 0h7.428v7.428h-7.428v-7.428zm7.733 0h7.428v7.428h-7.428v-7.428zm7.793 0h7.428v7.428h-7.428v-7.428zm7.732 0h7.428v7.428h-7.428v-7.428zm7.733 0h7.428v7.428h-7.428v-7.428zm7.793 0h7.428v7.428h-7.428v-7.428zm7.732 0h7.428v7.428h-7.428v-7.428zm0-.305v-7.428h7.428v7.428h-7.428zm7.733-7.428h7.428v7.428h-7.428v-7.428zm0-.304v-7.428h7.428v7.428h-7.428zm0-7.794v-7.428h7.428v7.428h-7.428zm0-7.732v-7.428h7.428v7.428h-7.428zm0-7.732v-7.428h7.428v7.428h-7.428zm0-7.794v-7.428h7.428v7.428h-7.428zm0-7.732v-7.428h7.428v7.428h-7.428zm0-7.733v-7.428h7.428v7.428h-7.428zm0-7.793v-7.428h7.428v7.428h-7.428zm0-7.732V65.41h7.428v7.428h-7.428zm0-7.733v-7.428h7.428v7.428h-7.428zm0-7.793v-7.428h7.428v7.428h-7.428zm0-7.733v-7.428h7.428v7.428h-7.428zm0-7.732V34.42h7.428v7.428h-7.428zM86.582 26.627v7.428h-7.428v-4.253a3.175 3.175 0 013.175-3.175h4.253zm-7.428 116.291h7.428v7.428h-7.428v-7.428zm116.291 7.428v-7.428h7.428v7.428h-7.428z"/></g><path fill="url(#paint3_linear_5989_95176)" d="M19.809 66.252h92.424v35.146H19.809z"/><path fill="url(#paint4_linear_5989_95176)" d="M83.787 66.475h92.424v35.146H83.787z"/><path stroke="#3DB3D1" stroke-dasharray="1.9 0" stroke-width=".635" d="M66.601 15.724c-4.827 2.168-10.633 12.682-3.43 21.88 9.005 11.499 4.2 18.155.04 22.396"/><g filter="url(#filter0_ii_5989_95176)"><path fill="#E2B338" d="M41.758 30.023h58.146v35.312H41.758z"/></g><g filter="url(#filter1_ii_5989_95176)"><path fill="#FFD568" d="M32.994 30.105h40.841v35.233H32.994z"/></g><path fill="#E2E9F0" d="M-2.467 64.818h92.424v4.59H-2.467z"/><path fill="#8296A8" d="M88.822 64.818h92.424v4.59H88.822z"/><g filter="url(#filter2_dii_5989_95176)"><path fill="#F3C03C" d="M84.574 40.109L74.08 29.94h25.879l9.783 10.168H84.574z"/></g><g filter="url(#filter3_dii_5989_95176)"><path fill="#FFD568" d="M67.578 40.313l6.3-10.372h-40.8L26.78 40.313h40.8z"/></g></g><g clip-path="url(#clip0_5989_95176)" filter="url(#filter4_d_5989_95176)"><path fill="url(#paint5_radial_5989_95176)" d="M103.686 21.943a4.8 4.8 0 100-9.6 4.8 4.8 0 000 9.6z"/><path fill="url(#paint6_radial_5989_95176)" d="M100.911 16.909c-.869-.535-1.087-1.756-.485-2.71.586-.953 1.773-1.304 2.643-.768.869.535 1.087 1.756.485 2.709-.602.97-1.79 1.304-2.643.769z" opacity=".5"/></g><ellipse cx="69.177" cy="14.016" fill="url(#paint7_radial_5989_95176)" rx="2.162" ry="1.363" transform="rotate(-31.958 69.177 14.016)"/><ellipse cx="65.778" cy="10.287" fill="url(#paint8_linear_5989_95176)" rx="3.384" ry="1.25" transform="rotate(39.904 65.778 10.287)"/><ellipse cx="71.931" cy="18.365" fill="url(#paint9_linear_5989_95176)" rx="3.384" ry="1.25" transform="rotate(60.571 71.931 18.365)"/><g clip-path="url(#clip1_5989_95176)" filter="url(#filter5_d_5989_95176)"><path fill="url(#paint10_radial_5989_95176)" d="M18.288 59.66a6.288 6.288 0 100-12.576 6.288 6.288 0 000 12.577z"/><path fill="url(#paint11_radial_5989_95176)" d="M14.652 53.066c-1.14-.701-1.424-2.3-.635-3.55.766-1.249 2.322-1.709 3.461-1.008 1.14.701 1.425 2.3.636 3.55-.789 1.27-2.345 1.709-3.462 1.008z" opacity=".5"/></g><g filter="url(#filter6_b_5989_95176)"><circle cx="75.269" cy="35.003" r="12.448" fill="#fff" fill-opacity=".01"/></g><g filter="url(#filter7_di_5989_95176)"><path fill="#2C5CC5" fill-rule="evenodd" d="M62.498 42.988c4.027 6.668 12.399 9.092 19.257 5.815l6.27 10.378a1.473 1.473 0 002.021.503c.695-.42.917-1.325.496-2.023l-6.27-10.379c6.092-4.546 7.841-13.084 3.813-19.751-4.285-7.094-13.487-9.384-20.553-5.115-7.065 4.268-9.32 13.479-5.034 20.572zm2.515-1.521c-3.442-5.698-1.632-13.097 4.044-16.526 5.676-3.429 13.068-1.59 16.51 4.109 3.442 5.698 1.632 13.097-4.044 16.526-5.676 3.428-13.068 1.589-16.51-4.11z" clip-rule="evenodd"/></g><path fill="url(#paint12_linear_5989_95176)" d="M81.82 48.811l2.456-1.45 1.213 2.042-2.337 1.45-1.332-2.042z"/><defs><linearGradient id="paint0_linear_5989_95176" x1="65.906" x2="65.906" y1="0" y2="98.508" gradientUnits="userSpaceOnUse"><stop stop-color="#B5EFFF"/><stop offset="1" stop-color="#E7F8FE"/></linearGradient><linearGradient id="paint1_linear_5989_95176" x1="65.9" x2="65.9" y1="0" y2="97.932" gradientUnits="userSpaceOnUse"><stop stop-color="#B5EFFF"/><stop offset="1" stop-color="#EDFBFF"/></linearGradient><linearGradient id="paint2_linear_5989_95176" x1="66.593" x2="66.593" y1="-13.662" y2="104.833" gradientUnits="userSpaceOnUse"><stop stop-color="#B5EFFF"/><stop offset="1" stop-color="#E7F8FE"/></linearGradient><linearGradient id="paint3_linear_5989_95176" x1="65.044" x2="66.021" y1="68.131" y2="90.453" gradientUnits="userSpaceOnUse"><stop stop-color="#CFD7DF"/><stop offset="1" stop-color="#E1E9F1"/></linearGradient><linearGradient id="paint4_linear_5989_95176" x1="129.999" x2="129.999" y1="66.475" y2="101.621" gradientUnits="userSpaceOnUse"><stop stop-color="#647A8E"/><stop offset="1" stop-color="#647A8E" stop-opacity="0"/></linearGradient><linearGradient id="paint8_linear_5989_95176" x1="63.746" x2="68.704" y1="10.248" y2="10.69" gradientUnits="userSpaceOnUse"><stop stop-color="#fff"/><stop offset="1" stop-color="#fff" stop-opacity="0"/></linearGradient><linearGradient id="paint9_linear_5989_95176" x1="73.795" x2="68.086" y1="18.586" y2="19.355" gradientUnits="userSpaceOnUse"><stop stop-color="#fff"/><stop offset="1" stop-color="#fff" stop-opacity="0"/></linearGradient><linearGradient id="paint12_linear_5989_95176" x1="83.147" x2="84.106" y1="48.029" y2="49.881" gradientUnits="userSpaceOnUse"><stop stop-color="#002063"/><stop offset="1" stop-color="#093EAC" stop-opacity="0"/></linearGradient><filter id="filter0_ii_5989_95176" width="58.147" height="35.947" x="41.758" y="29.896" color-interpolation-filters="sRGB" filterUnits="userSpaceOnUse"><feFlood flood-opacity="0" result="BackgroundImageFix"/><feBlend in="SourceGraphic" in2="BackgroundImageFix" result="shape"/><feColorMatrix in="SourceAlpha" result="hardAlpha" values="0 0 0 0 0 0 0 0 0 0 0 0 0 0 0 0 0 0 127 0"/><feOffset dy="-.571"/><feGaussianBlur stdDeviation=".063"/><feComposite in2="hardAlpha" k2="-1" k3="1" operator="arithmetic"/><feColorMatrix values="0 0 0 0 0.920833 0 0 0 0 0.673493 0 0 0 0 0.0345313 0 0 0 1 0"/><feBlend in2="shape" result="effect1_innerShadow_5989_95176"/><feColorMatrix in="SourceAlpha" result="hardAlpha" values="0 0 0 0 0 0 0 0 0 0 0 0 0 0 0 0 0 0 127 0"/><feOffset dy=".508"/><feGaussianBlur stdDeviation=".381"/><feComposite in2="hardAlpha" k2="-1" k3="1" operator="arithmetic"/><feColorMatrix values="0 0 0 0 1 0 0 0 0 0.937209 0 0 0 0 0.775 0 0 0 1 0"/><feBlend in2="effect1_innerShadow_5989_95176" result="effect2_innerShadow_5989_95176"/></filter><filter id="filter1_ii_5989_95176" width="40.842" height="35.867" x="32.994" y="29.979" color-interpolation-filters="sRGB" filterUnits="userSpaceOnUse"><feFlood flood-opacity="0" result="BackgroundImageFix"/><feBlend in="SourceGraphic" in2="BackgroundImageFix" result="shape"/><feColorMatrix in="SourceAlpha" result="hardAlpha" values="0 0 0 0 0 0 0 0 0 0 0 0 0 0 0 0 0 0 127 0"/><feOffset dy="-.571"/><feGaussianBlur stdDeviation=".063"/><feComposite in2="hardAlpha" k2="-1" k3="1" operator="arithmetic"/><feColorMatrix values="0 0 0 0 0.920833 0 0 0 0 0.673493 0 0 0 0 0.0345313 0 0 0 1 0"/><feBlend in2="shape" result="effect1_innerShadow_5989_95176"/><feColorMatrix in="SourceAlpha" result="hardAlpha" values="0 0 0 0 0 0 0 0 0 0 0 0 0 0 0 0 0 0 127 0"/><feOffset dy=".508"/><feGaussianBlur stdDeviation=".381"/><feComposite in2="hardAlpha" k2="-1" k3="1" operator="arithmetic"/><feColorMatrix values="0 0 0 0 1 0 0 0 0 0.937209 0 0 0 0 0.775 0 0 0 1 0"/><feBlend in2="effect1_innerShadow_5989_95176" result="effect2_innerShadow_5989_95176"/></filter><filter id="filter2_dii_5989_95176" width="40.513" height="15.019" x="71.654" y="28.973" color-interpolation-filters="sRGB" filterUnits="userSpaceOnUse"><feFlood flood-opacity="0" result="BackgroundImageFix"/><feColorMatrix in="SourceAlpha" result="hardAlpha" values="0 0 0 0 0 0 0 0 0 0 0 0 0 0 0 0 0 0 127 0"/><feOffset dy="1.457"/><feGaussianBlur stdDeviation="1.213"/><feColorMatrix values="0 0 0 0 0 0 0 0 0 0 0 0 0 0 0 0 0 0 0.09 0"/><feBlend in2="BackgroundImageFix" result="effect1_dropShadow_5989_95176"/><feBlend in="SourceGraphic" in2="effect1_dropShadow_5989_95176" result="shape"/><feColorMatrix in="SourceAlpha" result="hardAlpha" values="0 0 0 0 0 0 0 0 0 0 0 0 0 0 0 0 0 0 127 0"/><feOffset dy=".34"/><feGaussianBlur stdDeviation=".073"/><feComposite in2="hardAlpha" k2="-1" k3="1" operator="arithmetic"/><feColorMatrix values="0 0 0 0 1 0 0 0 0 0.868273 0 0 0 0 0.466667 0 0 0 1 0"/><feBlend in2="shape" result="effect2_innerShadow_5989_95176"/><feColorMatrix in="SourceAlpha" result="hardAlpha" values="0 0 0 0 0 0 0 0 0 0 0 0 0 0 0 0 0 0 127 0"/><feOffset dx="-.049" dy="-.583"/><feGaussianBlur stdDeviation=".146"/><feComposite in2="hardAlpha" k2="-1" k3="1" operator="arithmetic"/><feColorMatrix values="0 0 0 0 0.679167 0 0 0 0 0.540077 0 0 0 0 0.116024 0 0 0 1 0"/><feBlend in2="effect2_innerShadow_5989_95176" result="effect3_innerShadow_5989_95176"/></filter><filter id="filter3_dii_5989_95176" width="51.949" height="15.222" x="24.354" y="28.973" color-interpolation-filters="sRGB" filterUnits="userSpaceOnUse"><feFlood flood-opacity="0" result="BackgroundImageFix"/><feColorMatrix in="SourceAlpha" result="hardAlpha" values="0 0 0 0 0 0 0 0 0 0 0 0 0 0 0 0 0 0 127 0"/><feOffset dy="1.457"/><feGaussianBlur stdDeviation="1.213"/><feColorMatrix values="0 0 0 0 0 0 0 0 0 0 0 0 0 0 0 0 0 0 0.09 0"/><feBlend in2="BackgroundImageFix" result="effect1_dropShadow_5989_95176"/><feBlend in="SourceGraphic" in2="effect1_dropShadow_5989_95176" result="shape"/><feColorMatrix in="SourceAlpha" result="hardAlpha" values="0 0 0 0 0 0 0 0 0 0 0 0 0 0 0 0 0 0 127 0"/><feOffset dy=".34"/><feGaussianBlur stdDeviation=".073"/><feComposite in2="hardAlpha" k2="-1" k3="1" operator="arithmetic"/><feColorMatrix values="0 0 0 0 1 0 0 0 0 0.868273 0 0 0 0 0.466667 0 0 0 1 0"/><feBlend in2="shape" result="effect2_innerShadow_5989_95176"/><feColorMatrix in="SourceAlpha" result="hardAlpha" values="0 0 0 0 0 0 0 0 0 0 0 0 0 0 0 0 0 0 127 0"/><feOffset dx="-.049" dy="-.583"/><feGaussianBlur stdDeviation=".146"/><feComposite in2="hardAlpha" k2="-1" k3="1" operator="arithmetic"/><feColorMatrix values="0 0 0 0 0.679167 0 0 0 0 0.540077 0 0 0 0 0.116024 0 0 0 1 0"/><feBlend in2="effect2_innerShadow_5989_95176" result="effect3_innerShadow_5989_95176"/></filter><filter id="filter4_d_5989_95176" width="16.946" height="16.946" x="96.257" y="9.714" color-interpolation-filters="sRGB" filterUnits="userSpaceOnUse"><feFlood flood-opacity="0" result="BackgroundImageFix"/><feColorMatrix in="SourceAlpha" result="hardAlpha" values="0 0 0 0 0 0 0 0 0 0 0 0 0 0 0 0 0 0 127 0"/><feOffset dx="1.052" dy="1.052"/><feGaussianBlur stdDeviation="1.841"/><feColorMatrix values="0 0 0 0 0 0 0 0 0 0 0 0 0 0 0 0 0 0 0.25 0"/><feBlend in2="BackgroundImageFix" result="effect1_dropShadow_5989_95176"/><feBlend in="SourceGraphic" in2="effect1_dropShadow_5989_95176" result="shape"/></filter><filter id="filter5_d_5989_95176" width="35.832" height="35.832" x=".361" y="37.385" color-interpolation-filters="sRGB" filterUnits="userSpaceOnUse"><feFlood flood-opacity="0" result="BackgroundImageFix"/><feColorMatrix in="SourceAlpha" result="hardAlpha" values="0 0 0 0 0 0 0 0 0 0 0 0 0 0 0 0 0 0 127 0"/><feOffset dy="1.94"/><feGaussianBlur stdDeviation="5.819"/><feColorMatrix values="0 0 0 0 0 0 0 0 0 0 0 0 0 0 0 0 0 0 0.25 0"/><feBlend in2="BackgroundImageFix" result="effect1_dropShadow_5989_95176"/><feBlend in="SourceGraphic" in2="effect1_dropShadow_5989_95176" result="shape"/></filter><filter id="filter6_b_5989_95176" width="27" height="27" x="61.768" y="21.503" color-interpolation-filters="sRGB" filterUnits="userSpaceOnUse"><feFlood flood-opacity="0" result="BackgroundImageFix"/><feGaussianBlur in="BackgroundImageFix" stdDeviation=".526"/><feComposite in2="SourceAlpha" operator="in" result="effect1_backgroundBlur_5989_95176"/><feBlend in="SourceGraphic" in2="effect1_backgroundBlur_5989_95176" result="shape"/></filter><filter id="filter7_di_5989_95176" width="36.742" height="46.993" x="57.17" y="20.268" color-interpolation-filters="sRGB" filterUnits="userSpaceOnUse"><feFlood flood-opacity="0" result="BackgroundImageFix"/><feColorMatrix in="SourceAlpha" result="hardAlpha" values="0 0 0 0 0 0 0 0 0 0 0 0 0 0 0 0 0 0 127 0"/><feOffset dy="4.208"/><feGaussianBlur stdDeviation="1.578"/><feColorMatrix values="0 0 0 0 0 0 0 0 0 0 0 0 0 0 0 0 0 0 0.11 0"/><feBlend in2="BackgroundImageFix" result="effect1_dropShadow_5989_95176"/><feBlend in="SourceGraphic" in2="effect1_dropShadow_5989_95176" result="shape"/><feColorMatrix in="SourceAlpha" result="hardAlpha" values="0 0 0 0 0 0 0 0 0 0 0 0 0 0 0 0 0 0 127 0"/><feOffset dy="1.052"/><feGaussianBlur stdDeviation=".789"/><feComposite in2="hardAlpha" k2="-1" k3="1" operator="arithmetic"/><feColorMatrix values="0 0 0 0 0.420833 0 0 0 0 0.82625 0 0 0 0 1 0 0 0 1 0"/><feBlend in2="shape" result="effect2_innerShadow_5989_95176"/></filter><radialGradient id="paint5_radial_5989_95176" cx="0" cy="0" r="1" gradientTransform="rotate(-15.177 107.767 -372.965) scale(9.15302)" gradientUnits="userSpaceOnUse"><stop stop-color="#E6C6FF"/><stop offset=".188" stop-color="#C07DF5"/><stop offset=".318" stop-color="#BE6FFC"/><stop offset=".49" stop-color="#B56AF0"/><stop offset=".651" stop-color="#A745F4"/><stop offset=".948" stop-color="#9F3DED"/></radialGradient><radialGradient id="paint6_radial_5989_95176" cx="0" cy="0" r="1" gradientTransform="rotate(121.889 46.771 35.92) scale(2.00457 1.82557)" gradientUnits="userSpaceOnUse"><stop stop-color="#fff"/><stop offset=".694" stop-color="#fff" stop-opacity="0"/></radialGradient><radialGradient id="paint7_radial_5989_95176" cx="0" cy="0" r="1" gradientTransform="matrix(-1.1478 1.1468 -1.81885 -1.82043 70.325 14.233)" gradientUnits="userSpaceOnUse"><stop stop-color="#69849C"/><stop offset="1" stop-color="#475867"/></radialGradient><radialGradient id="paint10_radial_5989_95176" cx="0" cy="0" r="1" gradientTransform="rotate(-15.177 198.426 -31.994) scale(11.9919)" gradientUnits="userSpaceOnUse"><stop stop-color="#FFF1CF"/><stop offset=".188" stop-color="#FFE4A2"/><stop offset=".318" stop-color="#FFD364"/><stop offset=".49" stop-color="#FFD364"/><stop offset=".651" stop-color="#FFC73A"/><stop offset=".948" stop-color="#D09500"/></radialGradient><radialGradient id="paint11_radial_5989_95176" cx="0" cy="0" r="1" gradientTransform="rotate(121.889 -6.089 29.86) scale(2.6263 2.39178)" gradientUnits="userSpaceOnUse"><stop stop-color="#fff"/><stop offset=".694" stop-color="#fff" stop-opacity="0"/></radialGradient><clipPath id="clip0_5989_95176"><path fill="#fff" d="M0 0h9.583v9.583H0z" transform="translate(98.887 12.344)"/></clipPath><clipPath id="clip1_5989_95176"><path fill="#fff" d="M0 0h12.555v12.555H0z" transform="translate(12 47.084)"/></clipPath></defs></svg>