<svg xmlns="http://www.w3.org/2000/svg" width="153" height="151" fill="none" viewBox="0 0 153 151"><mask id="fs-wgo1m1bl1a" width="151" height="151" x="2" y="0" maskUnits="userSpaceOnUse"><path fill="url(#paint0_linear)" d="M77.78 150.439c41.543 0 75.219-33.677 75.219-75.22C152.999 33.677 119.323 0 77.78 0 36.237 0 2.56 33.677 2.56 75.22c0 41.542 33.677 75.219 75.22 75.219z"/></mask><g mask="url(#fs-wgo1m1bl1a)"><path fill="url(#paint1_linear)" d="M77.31 149.56c41.802 0 75.69-33.48 75.69-74.78C153 33.48 119.112 0 77.31 0 35.507 0 1.62 33.48 1.62 74.78c0 41.3 33.887 74.78 75.69 74.78z"/><path fill="#fff" d="M101.288 40.198a3.74 3.74 0 00-3.74 3.74V230.16h189.964V40.198H101.288zm185.666 11.809H275.61V40.663h11.344v11.344zm-94.191 71.039v-11.344h11.344v11.344h-11.344zm11.344.557v11.344h-11.344v-11.344h11.344zm-11.809-.557h-11.344v-11.344h11.344v11.344zm0 .557v11.344h-11.344v-11.344h11.344zm-11.902 11.344h-11.344v-11.344h11.344v11.344zm0 .465v11.344h-11.344v-11.344h11.344zm.558 0h11.344v11.344h-11.344v-11.344zm11.344 11.809v11.344h-11.344v-11.344h11.344zm.465 0h11.344v11.344h-11.344v-11.344zm0-.465v-11.344h11.344v11.344h-11.344zm11.809-11.344h11.343v11.344h-11.343v-11.344zm0-.465v-11.344h11.343v11.344h-11.343zm0-11.901v-11.344h11.343v11.344h-11.343zm0-11.809V99.893h11.343v11.344h-11.343zm-.465 0h-11.344V99.893h11.344v11.344zm-11.809 0h-11.344V99.893h11.344v11.344zm-11.902 0h-11.344V99.893h11.344v11.344zm0 .465v11.344h-11.344v-11.344h11.344zm-11.809 11.344h-11.343v-11.344h11.343v11.344zm0 .557v11.344h-11.343v-11.344h11.343zm0 11.809v11.344h-11.343v-11.344h11.343zm0 11.809v11.344h-11.343v-11.344h11.343zm.465 0h11.344v11.344h-11.344v-11.344zm11.344 11.902v11.344h-11.344v-11.344h11.344zm.558 0h11.344v11.344h-11.344v-11.344zm11.809 0h11.344v11.344h-11.344v-11.344zm11.809 0h11.343v11.344h-11.343v-11.344zm0-.558v-11.344h11.343v11.344h-11.343zm11.901-11.344h11.344v11.344h-11.344v-11.344zm0-.465v-11.344h11.344v11.344h-11.344zm0-11.809v-11.344h11.344v11.344h-11.344zm0-11.901v-11.344h11.344v11.344h-11.344zm0-11.809V99.893h11.344v11.344h-11.344zm0-11.809V88.084h11.344v11.344h-11.344zm-.558 0h-11.343V88.084h11.343v11.344zm-11.808 0h-11.344V88.084h11.344v11.344zm-11.809 0h-11.344V88.084h11.344v11.344zm-11.902 0h-11.344V88.084h11.344v11.344zm-11.809 0h-11.343V88.084h11.343v11.344zm0 .465v11.344h-11.343V99.893h11.343zm-11.808 11.344h-11.344V99.893h11.344v11.344zm0 .465v11.344h-11.344v-11.344h11.344zm0 11.901v11.344h-11.344v-11.344h11.344zm0 11.809v11.344h-11.344v-11.344h11.344zm0 11.809v11.344h-11.344v-11.344h11.344zm0 11.902v11.344h-11.344v-11.344h11.344zm.465 0h11.343v11.344h-11.343v-11.344zm11.343 11.809v11.343h-11.343v-11.343h11.343zm.465 0h11.344v11.343h-11.344v-11.343zm11.902 0h11.344v11.343h-11.344v-11.343zm11.809 0h11.344v11.343h-11.344v-11.343zm11.809 0h11.343v11.343h-11.343v-11.343zm11.901 0h11.344v11.343h-11.344v-11.343zm0-.465v-11.344h11.344v11.344h-11.344zm11.809-11.344h11.344v11.344h-11.344v-11.344zm0-.558v-11.344h11.344v11.344h-11.344zm0-11.809v-11.344h11.344v11.344h-11.344zm0-11.809v-11.344h11.344v11.344h-11.344zm0-11.901v-11.344h11.344v11.344h-11.344zm0-11.809V99.893h11.344v11.344h-11.344zm0-11.809V88.084h11.344v11.344h-11.344zm0-11.902V76.182h11.344v11.344h-11.344zm-.465 0h-11.344V76.182h11.344v11.344zm-11.902 0h-11.343V76.182h11.343v11.344zm-11.808 0h-11.344V76.182h11.344v11.344zm-11.809 0h-11.344V76.182h11.344v11.344zm-11.902 0h-11.344V76.182h11.344v11.344zm-11.809 0h-11.343V76.182h11.343v11.344zm-11.808 0h-11.344V76.182h11.344v11.344zm0 .558v11.344h-11.344V88.084h11.344zm-11.902 11.344h-11.344V88.084h11.344v11.344zm0 .465v11.344h-11.344V99.893h11.344zm0 11.809v11.344h-11.344v-11.344h11.344zm0 11.901v11.344h-11.344v-11.344h11.344zm0 11.809v11.344h-11.344v-11.344h11.344zm0 11.809v11.344h-11.344v-11.344h11.344zm0 11.902v11.344h-11.344v-11.344h11.344zm0 11.809v11.343h-11.344v-11.343h11.344zm.558 0h11.344v11.343h-11.344v-11.343zm11.344 11.808v11.344h-11.344V182.74h11.344zm.465 0h11.343v11.344h-11.343V182.74zm11.808 0h11.344v11.344h-11.344V182.74zm11.902 0h11.344v11.344h-11.344V182.74zm11.809 0h11.344v11.344h-11.344V182.74zm11.809 0h11.343v11.344h-11.343V182.74zm11.901 0h11.344v11.344h-11.344V182.74zm11.809 0h11.344v11.344h-11.344V182.74zm0-.465v-11.343h11.344v11.343h-11.344zm11.809-11.343h11.344v11.343h-11.344v-11.343zm0-.465v-11.344h11.344v11.344h-11.344zm0-11.902v-11.344h11.344v11.344h-11.344zm0-11.809v-11.344h11.344v11.344h-11.344zm0-11.809v-11.344h11.344v11.344h-11.344zm0-11.901v-11.344h11.344v11.344h-11.344zm0-11.809V99.893h11.344v11.344h-11.344zm0-11.809V88.084h11.344v11.344h-11.344zm0-11.902V76.182h11.344v11.344h-11.344zm0-11.808V64.374h11.344v11.344h-11.344zm-.465 0h-11.344V64.374h11.344v11.344zm-11.809 0h-11.344V64.374h11.344v11.344zm-11.902 0h-11.343V64.374h11.343v11.344zm-11.808 0h-11.344V64.374h11.344v11.344zm-11.809 0h-11.344V64.374h11.344v11.344zm-11.902 0h-11.344V64.374h11.344v11.344zm-11.809 0h-11.343V64.374h11.343v11.344zm-11.808 0h-11.344V64.374h11.344v11.344zm-11.902 0h-11.344V64.374h11.344v11.344zm0 .464v11.344h-11.344V76.182h11.344zm-11.809 11.344h-11.344V76.182h11.344v11.344zm0 .558v11.344h-11.344V88.084h11.344zm0 11.809v11.344h-11.344V99.893h11.344zm0 11.809v11.344h-11.344v-11.344h11.344zm0 11.901v11.344h-11.344v-11.344h11.344zm0 11.809v11.344h-11.344v-11.344h11.344zm0 11.809v11.344h-11.344v-11.344h11.344zm0 11.902v11.344h-11.344v-11.344h11.344zm0 11.809v11.343h-11.344v-11.343h11.344zm0 11.808v11.344h-11.344V182.74h11.344zm.465 0h11.344v11.344h-11.344V182.74zm11.344 11.902v11.344h-11.344v-11.344h11.344zm.558 0h11.344v11.344h-11.344v-11.344zm11.809 0h11.343v11.344h-11.343v-11.344zm11.808 0h11.344v11.344h-11.344v-11.344zm11.902 0h11.344v11.344h-11.344v-11.344zm11.809 0h11.344v11.344h-11.344v-11.344zm11.809 0h11.343v11.344h-11.343v-11.344zm11.901 0h11.344v11.344h-11.344v-11.344zm11.809 0h11.344v11.344h-11.344v-11.344zm11.809 0h11.344v11.344h-11.344v-11.344zm0-.558V182.74h11.344v11.344h-11.344zm11.902-11.344h11.343v11.344h-11.343V182.74zm0-.465v-11.343h11.343v11.343h-11.343zm0-11.808v-11.344h11.343v11.344h-11.343zm0-11.902v-11.344h11.343v11.344h-11.343zm0-11.809v-11.344h11.343v11.344h-11.343zm0-11.809v-11.344h11.343v11.344h-11.343zm0-11.901v-11.344h11.343v11.344h-11.343zm0-11.809V99.893h11.343v11.344h-11.343zm0-11.809V88.084h11.343v11.344h-11.343zm0-11.902V76.182h11.343v11.344h-11.343zm0-11.808V64.374h11.343v11.344h-11.343zm0-11.81V52.566h11.343V63.91h-11.343zm-.558 0h-11.344V52.566h11.344V63.91zm-11.809 0h-11.344V52.566h11.344V63.91zm-11.809 0h-11.344V52.566h11.344V63.91zm-11.902 0h-11.343V52.566h11.343V63.91zm-11.808 0h-11.344V52.566h11.344V63.91zm-11.809 0h-11.344V52.566h11.344V63.91zm-11.902 0h-11.344V52.566h11.344V63.91zm-11.809 0h-11.343V52.566h11.343V63.91zm-11.808 0h-11.344V52.566h11.344V63.91zm-11.902 0h-11.344V52.566h11.344V63.91zm-11.809 0h-11.344V52.566h11.344V63.91zm0 .466v11.344h-11.344V64.374h11.344zm-11.809 11.344h-11.344V64.374h11.344v11.344zm0 .464v11.344h-11.344V76.182h11.344zm0 11.902v11.344h-11.344V88.084h11.344zm0 11.809v11.344h-11.344V99.893h11.344zm0 11.809v11.344h-11.344v-11.344h11.344zm0 11.901v11.344h-11.344v-11.344h11.344zm0 11.809v11.344h-11.344v-11.344h11.344zm0 11.809v11.344h-11.344v-11.344h11.344zm0 11.902v11.344h-11.344v-11.344h11.344zm0 11.809v11.343h-11.344v-11.343h11.344zm0 11.808v11.344h-11.344V182.74h11.344zm0 11.902v11.344h-11.344v-11.344h11.344zm.465 0h11.344v11.344h-11.344v-11.344zm11.344 11.809v11.344h-11.344v-11.344h11.344zm.465 0h11.344v11.344h-11.344v-11.344zm11.902 0h11.344v11.344h-11.344v-11.344zm11.809 0h11.343v11.344h-11.343v-11.344zm11.808 0h11.344v11.344h-11.344v-11.344zm11.902 0h11.344v11.344h-11.344v-11.344zm11.809 0h11.344v11.344h-11.344v-11.344zm11.809 0h11.343v11.344h-11.343v-11.344zm11.901 0h11.344v11.344h-11.344v-11.344zm11.809 0h11.344v11.344h-11.344v-11.344zm11.809 0h11.344v11.344h-11.344v-11.344zm11.902 0h11.343v11.344h-11.343v-11.344zm0-.465v-11.344h11.343v11.344h-11.343zm11.808-11.344h11.344v11.344h-11.344v-11.344zm0-.558V182.74h11.344v11.344h-11.344zm0-11.809v-11.343h11.344v11.343h-11.344zm0-11.808v-11.344h11.344v11.344h-11.344zm0-11.902v-11.344h11.344v11.344h-11.344zm0-11.809v-11.344h11.344v11.344h-11.344zm0-11.809v-11.344h11.344v11.344h-11.344zm0-11.901v-11.344h11.344v11.344h-11.344zm0-11.809V99.893h11.344v11.344h-11.344zm0-11.809V88.084h11.344v11.344h-11.344zm0-11.902V76.182h11.344v11.344h-11.344zm0-11.808V64.374h11.344v11.344h-11.344zm0-11.81V52.566h11.344V63.91h-11.344zm0-11.901V40.663h11.344v11.344h-11.344zm-.465 0h-11.343V40.663h11.343v11.344zm-11.901 0h-11.344V40.663h11.344v11.344zm-11.809 0h-11.344V40.663h11.344v11.344zm-11.809 0h-11.344V40.663h11.344v11.344zm-11.902 0h-11.343V40.663h11.343v11.344zm-11.808 0h-11.344V40.663h11.344v11.344zm-11.809 0h-11.344V40.663h11.344v11.344zm-11.902 0h-11.344V40.663h11.344v11.344zm-11.809 0h-11.343V40.663h11.343v11.344zm-11.808 0h-11.344V40.663h11.344v11.344zm-11.902 0h-11.344V40.663h11.344v11.344zm-11.809 0h-11.344V40.663h11.344v11.344zm-11.809 0h-11.344V40.663h11.344v11.344zm0 .558v11.344h-11.344V52.565h11.344zm-11.901 11.344H98.014V52.565h11.344v11.344zm0 .465v11.344H98.014V64.374h11.344zm0 11.808v11.344H98.014V76.182h11.344zm0 11.902v11.344H98.014V88.084h11.344zm0 11.809v11.344H98.014V99.893h11.344zm0 11.809v11.344H98.014v-11.344h11.344zm0 11.901v11.344H98.014v-11.344h11.344zm0 11.809v11.344H98.014v-11.344h11.344zm0 11.809v11.344H98.014v-11.344h11.344zm0 11.902v11.344H98.014v-11.344h11.344zm0 11.809v11.343H98.014v-11.343h11.344zm0 11.808v11.344H98.014V182.74h11.344zm0 11.902v11.344H98.014v-11.344h11.344zm0 11.809v11.344H98.014v-11.344h11.344zm.557 0h11.344v11.344h-11.344v-11.344zm11.344 11.809v11.343h-11.344V218.26h11.344zm.465 0h11.344v11.343h-11.344V218.26zm11.809 0h11.344v11.343h-11.344V218.26zm11.902 0h11.344v11.343h-11.344V218.26zm11.809 0h11.343v11.343h-11.343V218.26zm11.808 0h11.344v11.343h-11.344V218.26zm11.902 0h11.344v11.343h-11.344V218.26zm11.809 0h11.344v11.343h-11.344V218.26zm11.809 0h11.343v11.343h-11.343V218.26zm11.901 0h11.344v11.343h-11.344V218.26zm11.809 0h11.344v11.343h-11.344V218.26zm11.809 0h11.344v11.343h-11.344V218.26zm11.902 0h11.343v11.343h-11.343V218.26zm11.808 0h11.344v11.343h-11.344V218.26zm0-.465v-11.344h11.344v11.344h-11.344zm11.809-11.344h11.344v11.344H275.61v-11.344zm0-.465v-11.344h11.344v11.344H275.61zm0-11.902V182.74h11.344v11.344H275.61zm0-11.809v-11.343h11.344v11.343H275.61zm0-11.808v-11.344h11.344v11.344H275.61zm0-11.902v-11.344h11.344v11.344H275.61zm0-11.809v-11.344h11.344v11.344H275.61zm0-11.809v-11.344h11.344v11.344H275.61zm0-11.901v-11.344h11.344v11.344H275.61zm0-11.809V99.893h11.344v11.344H275.61zm0-11.809V88.084h11.344v11.344H275.61zm0-11.902V76.182h11.344v11.344H275.61zm0-11.808V64.374h11.344v11.344H275.61zm0-11.81V52.566h11.344V63.91H275.61zM109.358 40.664v11.344H98.014v-7.605a3.74 3.74 0 013.739-3.739h7.605zM98.014 218.26h11.344v11.343H98.014V218.26zm177.596 11.343V218.26h11.344v11.343H275.61z"/><path fill="url(#paint2_linear)" d="M.854 101.998h153.852v51.284H.854z"/></g><path fill="url(#paint3_radial)" d="M9.603 106.966c5.304 0 9.604-4.3 9.604-9.604a9.604 9.604 0 00-19.207 0c0 5.304 4.3 9.604 9.603 9.604z"/><path fill="url(#paint4_radial)" d="M4.05 96.893c-1.74-1.07-2.175-3.513-.97-5.42 1.171-1.908 3.547-2.61 5.287-1.54 1.74 1.071 2.175 3.514.97 5.421-1.204 1.941-3.58 2.61-5.287 1.54z" opacity=".5"/><path fill="url(#paint5_radial)" d="M138.812 42.425a7.33 7.33 0 007.33-7.33 7.33 7.33 0 10-14.66 0 7.33 7.33 0 007.33 7.33z"/><g filter="url(#filter0_i)"><path fill="url(#paint6_linear)" d="M130.22 96.482c-.033-.008-.066-.014-.094-.034-.814-.584 1.467-10.612 1.681-11.356 1.086-3.75 2.885-7.399 5.777-10.075 2.047-1.895 7.515-5.601 10.353-3.422 2.391 1.838.15 6.456-.952 8.386-1.976 3.433-4.889 6.215-7.376 9.26-1.484 1.82-2.974 3.677-4.458 5.498-.107.138-1.015 1.428-1.581 2.092-.256.3-.625.342-1.007.245l-2.343-.594z"/></g><g filter="url(#filter1_i)"><path fill="url(#paint7_linear)" d="M133.492 99.492c1.213.26 2.294-.77 2.041-1.986-1.394-6.687-6.013-24.12-15.796-20.944-8.891 2.919 10.217 20.112 12.985 22.548.222.195.48.32.77.382z"/></g><path fill="#77FFE4" fill-opacity=".2" d="M122.4 80.038s11.441 14.933 11.572 18.092L122.4 80.038zm22.155-5.498s-9.401 11.993-10.423 17.316l10.423-17.316z"/><path fill="url(#paint8_linear)" d="M121.782 95.745a1.61 1.61 0 011.603-1.766h17.458c.951 0 1.695.82 1.604 1.766l-1.907 19.782a1.611 1.611 0 01-1.604 1.457h-13.643a1.61 1.61 0 01-1.604-1.457l-1.907-19.782z"/><g filter="url(#filter2_i)"><rect width="22.523" height="5.545" x="120.854" y="93.98" fill="url(#paint9_linear)" rx=".806"/></g><g filter="url(#filter3_f)"><ellipse cx="71.939" cy="128.591" fill="#000" fill-opacity=".37" rx="49.675" ry=".538"/></g><g filter="url(#filter4_d)"><path fill="url(#paint10_linear)" d="M40.384 70.249h60.541l6.666 10.263-72.737-.403 5.53-9.86z"/></g><g filter="url(#filter5_ii)"><path fill="#4392F4" d="M34.846 80.04l72.746.468v48.633H34.846V80.039z"/></g><g filter="url(#filter6_i)"><path fill="#4392F4" d="M35.036 79.834l5.354-9.57-11.579 4.464-8.364 9.807 14.59-4.7z"/></g><g filter="url(#filter7_i)"><path fill="#4392F4" d="M107.472 80.669l-6.525-10.463 11.565 6.174 7.09 10.224-12.13-5.935z"/></g><path stroke="#82BBCA" stroke-dasharray="2.08 0" stroke-linecap="round" stroke-linejoin="round" stroke-width=".686" d="M81.364 43.236C66.609 56.199 58.108 77.183 72.74 96.022"/><ellipse cx="82.839" cy="42.076" fill="url(#paint11_radial)" rx="4.165" ry="2.626" transform="rotate(-31.958 82.84 42.076)"/><ellipse cx="76.295" cy="34.894" fill="#fff" rx="6.518" ry="2.408" transform="rotate(39.904 76.295 34.894)"/><ellipse cx="88.14" cy="50.454" fill="#fff" rx="6.518" ry="2.408" transform="rotate(60.571 88.14 50.454)"/><g filter="url(#filter8_i)"><path fill="#4392F4" d="M25.404 97.317l9.489-17.211h72.406l7.944 17.255a.685.685 0 01-.623.973H26.005a.686.686 0 01-.6-1.017z"/></g><defs><filter id="filter0_i" width="20.866" height="30.879" x="129.492" y="68.446" color-interpolation-filters="sRGB" filterUnits="userSpaceOnUse"><feFlood flood-opacity="0" result="BackgroundImageFix"/><feBlend in="SourceGraphic" in2="BackgroundImageFix" result="shape"/><feColorMatrix in="SourceAlpha" result="hardAlpha" values="0 0 0 0 0 0 0 0 0 0 0 0 0 0 0 0 0 0 127 0"/><feOffset dx=".773" dy="-.295"/><feGaussianBlur stdDeviation="1.007"/><feComposite in2="hardAlpha" k2="-1" k3="1" operator="arithmetic"/><feColorMatrix values="0 0 0 0 0.113056 0 0 0 0 0.616667 0 0 0 0 0.58645 0 0 0 1 0"/><feBlend in2="shape" result="effect1_innerShadow"/></filter><filter id="filter1_i" width="24.608" height="24.595" x="114.717" y="75.178" color-interpolation-filters="sRGB" filterUnits="userSpaceOnUse"><feFlood flood-opacity="0" result="BackgroundImageFix"/><feBlend in="SourceGraphic" in2="BackgroundImageFix" result="shape"/><feColorMatrix in="SourceAlpha" result="hardAlpha" values="0 0 0 0 0 0 0 0 0 0 0 0 0 0 0 0 0 0 127 0"/><feOffset dx=".773" dy="-.295"/><feGaussianBlur stdDeviation="1.007"/><feComposite in2="hardAlpha" k2="-1" k3="1" operator="arithmetic"/><feColorMatrix values="0 0 0 0 0.0996528 0 0 0 0 0.683333 0 0 0 0 0.555806 0 0 0 1 0"/><feBlend in2="shape" result="effect1_innerShadow"/></filter><filter id="filter2_i" width="22.845" height="5.787" x="120.854" y="93.738" color-interpolation-filters="sRGB" filterUnits="userSpaceOnUse"><feFlood flood-opacity="0" result="BackgroundImageFix"/><feBlend in="SourceGraphic" in2="BackgroundImageFix" result="shape"/><feColorMatrix in="SourceAlpha" result="hardAlpha" values="0 0 0 0 0 0 0 0 0 0 0 0 0 0 0 0 0 0 127 0"/><feOffset dx=".322" dy="-.242"/><feGaussianBlur stdDeviation=".282"/><feComposite in2="hardAlpha" k2="-1" k3="1" operator="arithmetic"/><feColorMatrix values="0 0 0 0 0.833333 0 0 0 0 0.604343 0 0 0 0 0.0555555 0 0 0 1 0"/><feBlend in2="shape" result="effect1_innerShadow"/></filter><filter id="filter3_f" width="102.241" height="3.968" x="20.818" y="126.607" color-interpolation-filters="sRGB" filterUnits="userSpaceOnUse"><feFlood flood-opacity="0" result="BackgroundImageFix"/><feBlend in="SourceGraphic" in2="BackgroundImageFix" result="shape"/><feGaussianBlur result="effect1_foregroundBlur" stdDeviation=".723"/></filter><filter id="filter4_d" width="76.017" height="13.541" x="33.214" y="69.429" color-interpolation-filters="sRGB" filterUnits="userSpaceOnUse"><feFlood flood-opacity="0" result="BackgroundImageFix"/><feColorMatrix in="SourceAlpha" values="0 0 0 0 0 0 0 0 0 0 0 0 0 0 0 0 0 0 127 0"/><feOffset dy=".82"/><feGaussianBlur stdDeviation=".82"/><feColorMatrix values="0 0 0 0 0 0 0 0 0 0 0 0 0 0 0 0 0 0 0.25 0"/><feBlend in2="BackgroundImageFix" result="effect1_dropShadow"/><feBlend in="SourceGraphic" in2="effect1_dropShadow" result="shape"/></filter><filter id="filter5_ii" width="73.462" height="49.89" x="34.13" y="80.039" color-interpolation-filters="sRGB" filterUnits="userSpaceOnUse"><feFlood flood-opacity="0" result="BackgroundImageFix"/><feBlend in="SourceGraphic" in2="BackgroundImageFix" result="shape"/><feColorMatrix in="SourceAlpha" result="hardAlpha" values="0 0 0 0 0 0 0 0 0 0 0 0 0 0 0 0 0 0 127 0"/><feOffset dy=".787"/><feGaussianBlur stdDeviation=".405"/><feComposite in2="hardAlpha" k2="-1" k3="1" operator="arithmetic"/><feColorMatrix values="0 0 0 0 0.641667 0 0 0 0 0.8495 0 0 0 0 1 0 0 0 1 0"/><feBlend in2="shape" result="effect1_innerShadow"/><feColorMatrix in="SourceAlpha" result="hardAlpha" values="0 0 0 0 0 0 0 0 0 0 0 0 0 0 0 0 0 0 127 0"/><feOffset dx="-.716"/><feGaussianBlur stdDeviation=".405"/><feComposite in2="hardAlpha" k2="-1" k3="1" operator="arithmetic"/><feColorMatrix values="0 0 0 0 0 0 0 0 0 0 0 0 0 0 0 0 0 0 0.25 0"/><feBlend in2="effect1_innerShadow" result="effect2_innerShadow"/></filter><filter id="filter6_i" width="20.569" height="14.271" x="19.821" y="70.264" color-interpolation-filters="sRGB" filterUnits="userSpaceOnUse"><feFlood flood-opacity="0" result="BackgroundImageFix"/><feBlend in="SourceGraphic" in2="BackgroundImageFix" result="shape"/><feColorMatrix in="SourceAlpha" result="hardAlpha" values="0 0 0 0 0 0 0 0 0 0 0 0 0 0 0 0 0 0 127 0"/><feOffset dx="-.626"/><feGaussianBlur stdDeviation=".313"/><feComposite in2="hardAlpha" k2="-1" k3="1" operator="arithmetic"/><feColorMatrix values="0 0 0 0 0.00392157 0 0 0 0 0.282353 0 0 0 0 0.635294 0 0 0 1 0"/><feBlend in2="shape" result="effect1_innerShadow"/></filter><filter id="filter7_i" width="19.28" height="17.084" x="100.321" y="69.52" color-interpolation-filters="sRGB" filterUnits="userSpaceOnUse"><feFlood flood-opacity="0" result="BackgroundImageFix"/><feBlend in="SourceGraphic" in2="BackgroundImageFix" result="shape"/><feColorMatrix in="SourceAlpha" result="hardAlpha" values="0 0 0 0 0 0 0 0 0 0 0 0 0 0 0 0 0 0 127 0"/><feOffset dx="-.626" dy="-.686"/><feGaussianBlur stdDeviation=".343"/><feComposite in2="hardAlpha" k2="-1" k3="1" operator="arithmetic"/><feColorMatrix values="0 0 0 0 0.00392157 0 0 0 0 0.282353 0 0 0 0 0.635294 0 0 0 1 0"/><feBlend in2="shape" result="effect1_innerShadow"/></filter><filter id="filter8_i" width="89.989" height="18.228" x="25.318" y="80.106" color-interpolation-filters="sRGB" filterUnits="userSpaceOnUse"><feFlood flood-opacity="0" result="BackgroundImageFix"/><feBlend in="SourceGraphic" in2="BackgroundImageFix" result="shape"/><feColorMatrix in="SourceAlpha" result="hardAlpha" values="0 0 0 0 0 0 0 0 0 0 0 0 0 0 0 0 0 0 127 0"/><feOffset/><feGaussianBlur stdDeviation=".655"/><feComposite in2="hardAlpha" k2="-1" k3="1" operator="arithmetic"/><feColorMatrix values="0 0 0 0 0.00392157 0 0 0 0 0.282353 0 0 0 0 0.635294 0 0 0 1 0"/><feBlend in2="shape" result="effect1_innerShadow"/></filter><linearGradient id="paint0_linear" x1="77.78" x2="77.78" y1="0" y2="150.439" gradientUnits="userSpaceOnUse"><stop stop-color="#B5EFFF"/><stop offset="1" stop-color="#E7F8FE"/></linearGradient><linearGradient id="paint1_linear" x1="77.31" x2="77.31" y1="0" y2="149.56" gradientUnits="userSpaceOnUse"><stop stop-color="#B5EFFF"/><stop offset="1" stop-color="#EDFBFF"/></linearGradient><linearGradient id="paint2_linear" x1="68.528" x2="89.746" y1="101.998" y2="166.446" gradientUnits="userSpaceOnUse"><stop stop-color="#7FD3E9"/><stop offset="1" stop-color="#7FD3E9" stop-opacity="0"/></linearGradient><linearGradient id="paint6_linear" x1="151.759" x2="130.546" y1="71.338" y2="90.389" gradientUnits="userSpaceOnUse"><stop stop-color="#BAFFF1" stop-opacity=".26"/><stop offset=".682" stop-color="#4DC7AE"/><stop offset=".969" stop-color="#06896F"/></linearGradient><linearGradient id="paint7_linear" x1="142.323" x2="129.422" y1="78.732" y2="100.458" gradientUnits="userSpaceOnUse"><stop stop-color="#B7FDEF"/><stop offset=".682" stop-color="#09B794"/><stop offset=".969" stop-color="#7EE0CC"/></linearGradient><linearGradient id="paint8_linear" x1="142.617" x2="123.11" y1="109.124" y2="109.124" gradientUnits="userSpaceOnUse"><stop offset=".099" stop-color="#FFEEC5"/><stop offset=".607" stop-color="#FACD63"/><stop offset=".839" stop-color="#EAAF23"/><stop offset=".984" stop-color="#EDB52F"/></linearGradient><linearGradient id="paint9_linear" x1="143.376" x2="122.461" y1="97.63" y2="97.63" gradientUnits="userSpaceOnUse"><stop offset=".099" stop-color="#FFEEC5"/><stop offset=".607" stop-color="#FCBD27"/><stop offset=".984" stop-color="#EFB222"/></linearGradient><linearGradient id="paint10_linear" x1="71.131" x2="71.131" y1="58.012" y2="69.044" gradientUnits="userSpaceOnUse"><stop stop-color="#448EEB"/><stop offset="1" stop-color="#0048A2"/></linearGradient><radialGradient id="paint3_radial" cx="0" cy="0" r="1" gradientTransform="rotate(-15.177 353.366 27.844) scale(18.3137)" gradientUnits="userSpaceOnUse"><stop stop-color="#FFF1CF"/><stop offset=".188" stop-color="#FFE4A2"/><stop offset=".318" stop-color="#FFD364"/><stop offset=".49" stop-color="#FFD364"/><stop offset=".651" stop-color="#FFC73A"/><stop offset=".948" stop-color="#D09500"/></radialGradient><radialGradient id="paint4_radial" cx="0" cy="0" r="1" gradientTransform="rotate(121.889 -22.865 48.438) scale(4.01082 3.65266)" gradientUnits="userSpaceOnUse"><stop stop-color="#fff"/><stop offset=".694" stop-color="#fff" stop-opacity="0"/></radialGradient><radialGradient id="paint5_radial" cx="0" cy="0" r="1" gradientTransform="rotate(-15.177 188.266 -491.814) scale(13.9783)" gradientUnits="userSpaceOnUse"><stop stop-color="#E6C6FF"/><stop offset=".188" stop-color="#C07DF5"/><stop offset=".318" stop-color="#BE6FFC"/><stop offset=".49" stop-color="#B56AF0"/><stop offset=".651" stop-color="#A745F4"/><stop offset=".948" stop-color="#9F3DED"/></radialGradient><radialGradient id="paint11_radial" cx="0" cy="0" r="1" gradientTransform="rotate(135.025 33.73 38.85) scale(3.12492 4.95619)" gradientUnits="userSpaceOnUse"><stop stop-color="#69849C"/><stop offset="1" stop-color="#475867"/></radialGradient></defs></svg>