<svg xmlns="http://www.w3.org/2000/svg" width="339" height="189" fill="none" viewBox="0 0 339 189"><path fill="#EBEFF3" fill-rule="evenodd" d="M18.785 124.487c7.97-4.91 15.135.835 23.498-.748 14.064-2.666 10.614-22.786 13.158-32.906 5.929-23.566 23.36-33.939 44.892-40.557 21.985-6.75 39.096-22.99 58.222-34.885 16.84-10.445 37.589-15.573 50.946 2.71 8.904 12.187 9.384 30.976 21.334 40.926 6.944 5.767 14.997 2.749 21.052-3.018 8.578-8.136 17.807-16.882 30.612-15.782 9.511.819 18.558 8.246 19.529 17.69 1.805 17.59-20.793 27.974-21.599 44.916-1.103 23.088 33.671 8.477 45.383 15.821 4.068 2.546 6.624 7.058 7.573 11.742 2.296 11.231-1.998 23.292-10.272 31.125-10.852 10.274-23.536 6.08-37.02 8.13-29.045 4.398-58.509-10.274-87.852-11.659-44.003-2.056-93.034 8.603-137.043 6.524-12.893-.604-49.5 13.689-55.953 3.376-6.778-10.841 1.16-35.765 13.54-43.405z" clip-rule="evenodd"/><path stroke="#92A2B1" stroke-width=".5" d="M76.185 168.064H51.342m170.589 0H103.236M80.05 180.725H67.904m-18.77 0H36.988"/><path fill="#fff" fill-rule="evenodd" d="M264.992 171.642h36.436v-36.33h-36.436v36.33z" clip-rule="evenodd"/><path stroke="#92A2B1" stroke-width=".5" d="M265.268 135.312v20.917"/><path fill="#CFD7DF" fill-rule="evenodd" d="M301.428 171.642h22.083v-36.33h-22.083v36.33z" clip-rule="evenodd"/><path stroke="#92A2B1" stroke-width=".5" d="M269.408 171.367h20.427m4.416 0h17.115m11.869-28.899v15.413m-22.083-1.652v15.413m-30.64-36.055h21.531m-22.359 26.697v-20.367m15.182 25.046h-12.698"/><path stroke="#fff" stroke-width=".5" d="M314.125 166.963h-6.072"/><path stroke="#92A2B1" stroke-width=".5" d="M296.183 150.174v11.009m-16.286-17.889h10.49m29.259 28.348h3.865v-4.403"/><path stroke="#fff" stroke-width=".5" d="M305.569 142.468v18.165m-4.417-25.321v12.11"/><path stroke="#92A2B1" stroke-width=".5" d="M323.511 135.587h-5.521"/><path fill="#fff" fill-rule="evenodd" d="M14.354 117.147l-1.379 15.749-3.817 43.7H7.73v-59.449h6.625zm14.353 0v59.449h-1.429l-4.674-53.461-.521-5.988h6.624z" clip-rule="evenodd"/><path fill="#CFD7DF" fill-rule="evenodd" d="M7.729 117.147h6.625l-1.379 15.761-5.246 5.156v-20.917zm20.978-.551l-6.103 6.055-.521-6.055h6.624z" clip-rule="evenodd"/><path fill="#92A2B1" fill-rule="evenodd" d="M1.968 113.294h31.948c1.087 0 1.968.862 1.968 1.926s-.88 1.927-1.968 1.927H1.968c-1.087 0-1.968-.863-1.968-1.927s.881-1.926 1.968-1.926z" clip-rule="evenodd"/><path stroke="#92A2B1" stroke-width=".5" d="M7.453 117.147v20.917m1.38 38.532l2.208-23.669m11.594-30.276l2.76 30.276"/><path stroke="#fff" stroke-width=".5" d="M34.228 115.22H19.322"/><path fill="#EBEFF3" fill-rule="evenodd" d="M2.76 97.529c0 6.219 3.783 11.81 9.55 14.113h11.26c7.783-3.111 11.575-11.952 8.47-19.748a15.187 15.187 0 00-6.95-7.775h-14.3a15.205 15.205 0 00-8.03 13.41z" clip-rule="evenodd"/><path stroke="#92A2B1" stroke-width=".5" d="M33.124 97.33c.003-2.29-.564-4.55-1.656-6.605M2.76 97.88a14.043 14.043 0 001.656 6.606"/><path fill="#CFD7DF" fill-rule="evenodd" d="M3.865 97.197c-.068 5.53 3.273 10.551 8.452 12.701l.234.093h10.27l.06-.027c3.752-1.504 6.646-4.549 7.918-8.334a13.33 13.33 0 00.669-3.473c-4.973-4.099-8.28-4.51-10.498-3.907a6.18 6.18 0 00-1.227.472 24.503 24.503 0 01-15.13 2.595l-.725-.12h-.023z" clip-rule="evenodd"/><path stroke="#fff" stroke-width=".5" d="M22.635 110.541c3.862-1.526 6.845-4.658 8.15-8.558.386-1.149.615-2.344.683-3.552"/><path stroke="#92A2B1" stroke-width=".5" d="M30.364 111.367H4.969m22.634-26.973H7.73"/><path stroke="#fff" stroke-width=".5" d="M19.874 95.128s-8.785 4.084-15.457 2.303"/><path fill="#EBEFF3" fill-rule="evenodd" d="M19.322 105.037H9.937l1.64 1.688a3.394 3.394 0 004.28.539l3.465-2.227zm0 .099l1.657-1.751v3.854l-1.657-2.103z" clip-rule="evenodd"/><path stroke="#92A2B1" stroke-width=".5" d="M12.146 104.486c.61 0 1.104.493 1.104 1.101s-.495 1.101-1.104 1.101c-.61 0-1.105-.493-1.105-1.101s.495-1.101 1.105-1.101z" clip-rule="evenodd"/><path fill="#EBEFF3" fill-rule="evenodd" d="M18.218 99.532h7.73l-1.32 1.359a2.848 2.848 0 01-3.527.414l-2.883-1.773zm0-.146l-1.656-1.505v3.302l1.656-1.797z" clip-rule="evenodd"/><path stroke="#92A2B1" stroke-width=".5" d="M24.015 98.982c.457 0 .828.37.828.825a.827.827 0 01-.828.826.827.827 0 110-1.651z" clip-rule="evenodd"/><path fill="#CFD7DF" fill-rule="evenodd" d="M22.867 9.807l6.392 1.188-6.305 32.94-6.392-1.187 6.305-32.94zm5.288 33.578h23.187V35.68H28.155v7.706zm-.551-12.11h19.874V24.67H27.603v6.605z" clip-rule="evenodd"/><path stroke="#92A2B1" stroke-width=".5" d="M21.53 12.56l7.73 1.651m-7.73 0l7.73 1.651M17.114 37.33l7.73 1.652m-8.282.55l7.729 1.652"/><path fill="#CFD7DF" fill-rule="evenodd" d="M14.354 44.486h1.104V8.156h-1.104v36.33zm39.196 0h1.104V8.156H53.55v36.33z" clip-rule="evenodd"/><path fill="#92A2B1" fill-rule="evenodd" d="M28.155 34.578h24.291v-2.752h-24.29v2.752z" clip-rule="evenodd"/><path stroke="#fff" stroke-width=".5" d="M31.468 25.77c1.22 0 2.208.986 2.208 2.203a2.205 2.205 0 01-2.209 2.201 2.205 2.205 0 01-2.208-2.201c0-1.217.989-2.202 2.209-2.202zm14.354 11.56c1.22 0 2.208.986 2.208 2.202a2.205 2.205 0 01-2.209 2.202 2.205 2.205 0 01-2.208-2.202c0-1.216.989-2.202 2.209-2.202z" clip-rule="evenodd"/><path stroke="#92A2B1" stroke-width=".5" d="M14.078 8.156v18.716M2.76 44.211h67.352m-54.378-.826V36.23m39.196 7.706V29.624m-7.452-5.229H43.06M32.572 35.954h-4.417"/><path fill="#92A2B1" fill-rule="evenodd" d="M310.1 134.761h-11.824l-3.473-14.862h18.77l-3.473 14.862z" clip-rule="evenodd"/><path fill="#EBEFF3" fill-rule="evenodd" d="M299.081 118.544c1.48-1.24.998-3.739-.305-5.162s-3.171-2.206-4.718-3.359c-1.546-1.153-2.772-2.835-2.539-4.677.233-1.842 2.523-3.348 4.064-2.245.743.552 1.064 1.467 1.308 2.35.244.882.483 1.82 1.148 2.449.665.628 1.907.744 2.411 0l.86-10.48c.21-2.537.781-5.576 3.171-6.48 2.101-.795 4.513.722 5.488 2.757.976 2.036.887 4.363.782 6.619l-.876 18.482-10.794-.254z" clip-rule="evenodd"/><path fill="#CFD7DF" fill-rule="evenodd" d="M293.699 119.899h20.427v-2.202h-20.427v2.202z" clip-rule="evenodd"/><path stroke="#CFD7DF" stroke-width=".5" d="M294.803 123.477h9.385"/><path stroke="#fff" stroke-width=".5" d="M314.678 119.624h-10.49"/><path stroke="#92A2B1" stroke-width=".5" d="M293.147 104.486c.27 3.131 2.563 5.646 5.521 6.055m4.416-18.165l-1.104 23.67m4.969-23.67l-1.657 24.22m3.865-21.468l-1.656 21.468"/><path stroke="#92A2B1" stroke-width=".5" d="M292.043 105.75c.381.25.866.387 1.367.388.116-.357.174-.744.289-1.101m7.729 3.588c.221.381.574.671.993.815.237-.346.432-.754.663-1.101m-1.104-12.528c.182.432.505.777.907.969.26-.353.51-.765.749-1.101m0 3.853c-.25.396-.553.765-.904 1.101a32.062 32.062 0 01-.752-.83m0 5.05l.788.734c.338-.42.53-.655.868-1.101m1.105 6.892c.221.381.573.669.992.815.232-.347.432-.749.664-1.101m-1.105-13.079c.185.431.508.775.91.969.259-.353.507-.766.747-1.101m0 4.403c-.25.396-.551.766-.901 1.101-.294-.316-.461-.493-.756-.824m0 5.044l.528.734c.227-.42.35-.655.577-1.1m.552 2.427c.203.402.545.713.959.875.241-.346.456-.755.697-1.101m-.552-13.117c.165.44.474.799.868 1.007.275-.341.508-.748.788-1.1m0 4.403a6.389 6.389 0 01-.945 1.101c-.281-.335-.43-.543-.711-.873m-.552 5.039l.756.788c.354-.421.552-.68.9-1.101"/><path fill="#CFD7DF" fill-rule="evenodd" d="M307.501 1c6.708 0 12.145 5.422 12.145 12.11s-5.437 12.11-12.145 12.11c-6.708 0-12.146-5.422-12.146-12.11S300.793 1 307.501 1z" clip-rule="evenodd"/><path fill="#fff" fill-rule="evenodd" d="M307.501 3.752c5.183 0 9.385 4.19 9.385 9.359 0 5.167-4.202 9.357-9.385 9.357-5.184 0-9.385-4.19-9.385-9.357 0-5.169 4.201-9.359 9.385-9.359z" clip-rule="evenodd"/><path stroke="#92A2B1" stroke-width=".5" d="M295.355 13.11c0-6.688 5.438-12.11 12.146-12.11m8.281 20.917c-4.727 4.404-12.386 4.404-17.114 0m8.557-16.513V3.752m0 17.065v1.65m9.661-9.082h-1.657m-15.457 0h-1.656m16.01 6.331l-1.105-1.101M301.98 7.606l-1.104-1.101m0 13.211l1.104-1.101m11.041-11.009l1.105-1.101m-10.49 4.24l3.902 2.916 5.483-3.303"/><path fill="#C0DEFC" fill-rule="evenodd" d="M232.332 124.5h-98.067a2.252 2.252 0 01-2.24-2.25v-.001a2.251 2.251 0 012.24-2.249h98.067a2.251 2.251 0 012.24 2.249v.001a2.252 2.252 0 01-2.24 2.25z" clip-rule="evenodd"/><path stroke="#131735" stroke-linecap="round" stroke-linejoin="round" stroke-width=".672" d="M125.022 81c2.629 13.309 8.664 22.264 16.008 29m-17.008-4.5s3.916 5.942 8.004 10m8.003-4l-7.003 4"/><path fill="#3E66BD" fill-rule="evenodd" d="M126.023 109.204l-.187 60.613c.057 3.122-2.493 5.683-5.658 5.683-2.983 0-5.454-2.284-5.647-5.22L110.516 107l15.507 2.204z" clip-rule="evenodd"/><path fill="#3E66BD" fill-rule="evenodd" d="M99.174 140.786l3.903-35.286 16.443 4.807-7.905 35.647a5.167 5.167 0 01-1.225 2.361L93.365 167l-7.86-7.765 12.373-15.338a6.006 6.006 0 001.296-3.111z" clip-rule="evenodd"/><path fill="#fff" fill-rule="evenodd" d="M117.315 77.659l-4.493-.154c-4.318-.147-8.13 2.816-9.073 7.053l-5.915 23.087c-1.246 5.595.983 10.908 8.694 10.908l16.436.445c2.558.07 4.644-2.042 4.557-4.612l-1.644-28.146c0-6.64-3.91-8.422-8.562-8.581z" clip-rule="evenodd"/><path stroke="#131735" stroke-linecap="round" stroke-linejoin="round" stroke-width=".55" d="M120.454 119.277c-.221.295-.93.298-1.585.007-.653-.291-1.005-.766-.784-1.061.221-.294.93-.298 1.585-.007.654.291 1.005.766.784 1.061zm3.002-1.054c-.221-.295-.931-.298-1.585-.007-.654.291-1.005.766-.785 1.061.221.295.931.298 1.585.007.654-.291 1.005-.766.785-1.061z" clip-rule="evenodd"/><path stroke="#131735" stroke-linecap="round" stroke-linejoin="round" stroke-width=".55" d="M120.52 119.5s-.405.73-1.5 1m1.501-1s.195 1.269 1.5 2"/><path fill="#007657" fill-rule="evenodd" d="M118.006 78.179l-4.456-.599c-4.282-.575-8.695 1.996-10.049 6.13l-7.817 22.456c-1.788 5.459-.258 12.683 7.416 13.448l10.834 1.379s4.127.437 4.418-5.451l2.168-33.916s.088-3.097-2.514-3.447z" clip-rule="evenodd"/><path fill="#fff" fill-rule="evenodd" d="M123.021 77c0 1.656-2.127 3-4.752 3-2.624 0-4.752-1.344-4.752-3 0-1.657 2.128-3 4.752-3 2.625 0 4.752 1.343 4.752 3z" clip-rule="evenodd"/><path stroke="#131735" stroke-linecap="round" stroke-linejoin="round" stroke-width=".672" d="M111.121 71.74a7.501 7.501 0 008.64 6.155 7.498 7.498 0 10-2.482-14.79 7.499 7.499 0 00-6.158 8.636z" clip-rule="evenodd"/><path fill="#131735" fill-rule="evenodd" d="M95.664 114s3.264-16.883 15.352-22.974c0 0-5.828-1.206-13.656 12.774 0 0-.91 2.142-2.351 6.405 0 0 .187 2.693.655 3.795z" clip-rule="evenodd"/><path stroke="#131735" stroke-linecap="round" stroke-linejoin="round" stroke-width=".672" d="M109.015 79s-21.79 4.07-25.012 33m26.012-21s-11.003 2.48-15.507 23m-10.505-2l9.505 3m-8.983-1.5s-2.214 6.265 2.48 8.5m5.503-6s-.602 7.001-1.974 7c-1.246 0-1.01-4.058-1.01-4.058m10.987-8.442l8.504-2.5"/><path fill="#131735" fill-rule="evenodd" d="M101.563 119.261s5.041.914 12.86 1.76c0 0 1.973.503 3.541-2.021 0 0 .31 1.495-.538 3.071-.65 1.208-1.95 1.94-3.343 1.929-1.866-.015-5.552-.351-12.571-1.848l.051-2.891z" clip-rule="evenodd"/><path stroke="#131735" stroke-linecap="round" stroke-linejoin="round" stroke-width=".672" d="M140.529 116.207c3.63-.559 7.499.033 10.797 1.552.637.294 1.359.826 1.182 1.477-.179.655-1.087.786-1.8.761-1.562-.055-3.134-.221-4.698-.285M136.558 118s-.367 2.179 1.453 3.076c1.819.898 5.663.091 5.663.091s3.203-.51-2.774-2.089"/><path fill="#3E66BD" fill-rule="evenodd" d="M95.509 163c0 3.037-2.463 5.5-5.503 5.5a5.501 5.501 0 01-5.502-5.5c0-3.037 2.463-5.5 5.502-5.5a5.501 5.501 0 015.503 5.5z" clip-rule="evenodd"/><path stroke="#131735" stroke-linecap="round" stroke-linejoin="round" stroke-width=".672" d="M110.516 79s4.061 0 4.466 4.653c.407 4.654-2.842 6.347-2.842 6.347"/><path fill="#34479D" fill-rule="evenodd" d="M129.414 179.5l-4.892 6.5h5.084l2.92-4.04-3.112-2.46z" clip-rule="evenodd"/><path stroke="#131735" stroke-linecap="round" stroke-linejoin="round" stroke-width=".672" d="M119.651 188h17.276s1.71 0 2.699-.646a.867.867 0 00.351-1.022c-.243-.646-1.081-1.667-3.837-2.47-4.15-1.208-6.021-4.239-9.998-6.27-.474-.242-1.063.013-1.2.518-.162.601-.491 1.361-1.157 1.957-.893.799-2.176 1.036-3.35.742-.812-.204-1.896-.56-2.346-1.083 0 0-1.176-.951-.589 1.962 0 0 .603 3.652-.164 4.539 0 0-1.582 1.773 2.315 1.773z" clip-rule="evenodd"/><path stroke="#131735" stroke-linecap="round" stroke-linejoin="round" stroke-width=".672" d="M117.519 186.475h20.464s1.572.338.862-1.475"/><path fill="#34479D" fill-rule="evenodd" d="M90.35 174.5l-7.847 1.64 3.715 3.36 4.789-1.1-.658-3.9z" clip-rule="evenodd"/><path stroke="#131735" stroke-linecap="round" stroke-linejoin="round" stroke-width=".672" d="M77.451 174.774L90.426 186.2s1.284 1.131 2.47 1.292a.91.91 0 00.965-.548c.262-.654.333-1.986-1.186-4.42-2.287-3.667-1.61-7.216-3.203-11.394a.85.85 0 00-1.257-.399c-.535.351-1.304.713-2.213.727-1.22.018-2.345-.649-3.025-1.65-.47-.693-1.04-1.681-1.018-2.378 0 0-.23-1.502-1.79 1.108 0 0-2.054 3.183-3.24 3.352 0 0-2.404.307.522 2.884z" clip-rule="evenodd"/><path stroke="#131735" stroke-linecap="round" stroke-linejoin="round" stroke-width=".672" d="M77 171.5l15.032 13.54s.961 1.259 1.476-.388"/><path stroke="#fff" stroke-linecap="round" stroke-linejoin="round" stroke-width=".672" d="M115.518 129l-3.001 15.5"/><path fill="#007657" fill-rule="evenodd" d="M128.028 88.04c-.43-6.295-3.313-8.67-5.783-9.54-.233.176-.474.34-.724.488 3.142 1.906 3.647 6.031 3.647 6.031l2.187 26.061c.606 5.942-1.488 7.087-1.488 7.087l.106 2.333c4.551.01 4.466-3.263 4.466-3.263.628-2.363-2.411-29.198-2.411-29.198z" clip-rule="evenodd"/><path fill="#131735" fill-rule="evenodd" d="M114.017 73.75a2.25 2.25 0 11-4.502-.002 2.25 2.25 0 014.502.002z" clip-rule="evenodd"/><path fill="#131735" fill-rule="evenodd" d="M113.517 69.75a2.25 2.25 0 11-4.5-.001 2.25 2.25 0 014.5.001z" clip-rule="evenodd"/><path fill="#131735" fill-rule="evenodd" d="M111.516 71.75a2.25 2.25 0 11-4.502-.002 2.25 2.25 0 014.502.002z" clip-rule="evenodd"/><path fill="#131735" fill-rule="evenodd" d="M110.516 69.25a2.251 2.251 0 11-4.502-.002 2.251 2.251 0 014.502.002z" clip-rule="evenodd"/><path fill="#131735" fill-rule="evenodd" d="M111.016 66.25a2.25 2.25 0 11-4.501-.002 2.25 2.25 0 014.501.002z" clip-rule="evenodd"/><path fill="#131735" fill-rule="evenodd" d="M112.517 63.75a2.25 2.25 0 11-4.502-.002 2.25 2.25 0 014.502.002z" clip-rule="evenodd"/><path fill="#131735" fill-rule="evenodd" d="M114.518 61.25a2.25 2.25 0 11-4.5-.001 2.25 2.25 0 014.5.001z" clip-rule="evenodd"/><path fill="#131735" fill-rule="evenodd" d="M117.019 59.25a2.25 2.25 0 11-4.5-.001 2.25 2.25 0 014.5.001z" clip-rule="evenodd"/><path fill="#131735" fill-rule="evenodd" d="M120.02 58.75a2.25 2.25 0 11-4.502-.002 2.25 2.25 0 014.502.002z" clip-rule="evenodd"/><path fill="#131735" fill-rule="evenodd" d="M122.521 59.25a2.25 2.25 0 11-4.5-.001 2.25 2.25 0 014.5.001z" clip-rule="evenodd"/><path fill="#131735" fill-rule="evenodd" d="M125.023 60.75a2.252 2.252 0 01-4.502 0 2.25 2.25 0 114.502 0zm-11.506 6.5a2.25 2.25 0 11-4.502-.002 2.25 2.25 0 014.502.002z" clip-rule="evenodd"/><path fill="#131735" fill-rule="evenodd" d="M116.018 67.75a2.25 2.25 0 11-4.5 0 2.25 2.25 0 014.5 0z" clip-rule="evenodd"/><path fill="#131735" fill-rule="evenodd" d="M115.018 70.25a2.25 2.25 0 11-4.502-.002 2.25 2.25 0 014.502.002zm4.002-4a2.25 2.25 0 11-4.5-.001 2.25 2.25 0 014.5.001z" clip-rule="evenodd"/><path fill="#131735" fill-rule="evenodd" d="M117.019 65.25a2.251 2.251 0 11-4.502-.002 2.251 2.251 0 014.502.002z" clip-rule="evenodd"/><path fill="#131735" fill-rule="evenodd" d="M117.019 61.75a2.25 2.25 0 11-4.502-.002 2.25 2.25 0 014.502.002z" clip-rule="evenodd"/><path fill="#131735" fill-rule="evenodd" d="M121.521 61.25a2.25 2.25 0 11-4.502-.002 2.25 2.25 0 014.502.002z" clip-rule="evenodd"/><path fill="#131735" fill-rule="evenodd" d="M123.522 62.75a2.25 2.25 0 11-4.502-.002 2.25 2.25 0 014.502.002z" clip-rule="evenodd"/><path fill="#131735" fill-rule="evenodd" d="M124.522 64.75a2.25 2.25 0 11-4.502-.002 2.25 2.25 0 014.502.002z" clip-rule="evenodd"/><path fill="#131735" fill-rule="evenodd" d="M126.023 66.25a2.25 2.25 0 11-4.502-.002 2.25 2.25 0 014.502.002z" clip-rule="evenodd"/><path fill="#131735" fill-rule="evenodd" d="M127.524 66.25a2.25 2.25 0 11-4.5-.001 2.25 2.25 0 014.5.001z" clip-rule="evenodd"/><path fill="#131735" fill-rule="evenodd" d="M127.023 62.25a2.25 2.25 0 11-4.502-.002 2.25 2.25 0 014.502.002z" clip-rule="evenodd"/><path fill="#131735" fill-rule="evenodd" d="M129.024 64.25a2.25 2.25 0 11-4.502-.002 2.25 2.25 0 014.502.002z" clip-rule="evenodd"/><path fill="#131735" fill-rule="evenodd" d="M129.024 66.75a2.25 2.25 0 11-4.502-.002 2.25 2.25 0 014.502.002z" clip-rule="evenodd"/><path fill="#131735" fill-rule="evenodd" d="M125.608 67.5c-.2 0-.394.015-.586.035.73.882 1.177 1.864 1.255 2.894.027.365-.021.72-.108 1.071 1.618-.16 2.855-.983 2.855-1.983 0-1.114-1.529-2.017-3.416-2.017zm3.416-5.25a2.25 2.25 0 11-4.502-.002 2.25 2.25 0 014.502.002z" clip-rule="evenodd"/><path fill="#131735" fill-rule="evenodd" d="M127.023 60.75a2.25 2.25 0 11-4.5-.001 2.25 2.25 0 014.5.001z" clip-rule="evenodd"/><path fill="#131735" fill-rule="evenodd" d="M124.522 57.75a2.25 2.25 0 11-4.502-.002 2.25 2.25 0 014.502.002z" clip-rule="evenodd"/><path fill="#131735" fill-rule="evenodd" d="M121.521 56.75a2.252 2.252 0 01-4.502 0 2.25 2.25 0 114.502 0z" clip-rule="evenodd"/><path fill="#131735" fill-rule="evenodd" d="M118.519 57.75a2.25 2.25 0 11-4.502-.002 2.25 2.25 0 014.502.002z" clip-rule="evenodd"/><path fill="#131735" fill-rule="evenodd" d="M114.518 58.25a2.25 2.25 0 11-4.502-.002 2.25 2.25 0 014.502.002z" clip-rule="evenodd"/><path fill="#131735" fill-rule="evenodd" d="M112.016 60.75a2.25 2.25 0 11-4.5-.001 2.25 2.25 0 014.5.001z" clip-rule="evenodd"/><path fill="#131735" fill-rule="evenodd" d="M110.016 63.25a2.25 2.25 0 11-4.502-.002 2.25 2.25 0 014.502.002z" clip-rule="evenodd"/><path fill="#131735" fill-rule="evenodd" d="M108.515 66.25a2.25 2.25 0 11-4.502-.002 2.25 2.25 0 014.502.002z" clip-rule="evenodd"/><path fill="#131735" fill-rule="evenodd" d="M108.515 69.75a2.25 2.25 0 11-4.502-.002 2.25 2.25 0 014.502.002z" clip-rule="evenodd"/><path fill="#131735" fill-rule="evenodd" d="M110.016 72.75a2.25 2.25 0 11-4.502-.002 2.25 2.25 0 014.502.002z" clip-rule="evenodd"/><path fill="#131735" fill-rule="evenodd" d="M112.016 74.25a2.25 2.25 0 11-4.502-.002 2.25 2.25 0 014.502.002zm2.001-10.5a2.25 2.25 0 11-4.502-.002 2.25 2.25 0 014.502.002z" clip-rule="evenodd"/><path fill="#131735" fill-rule="evenodd" d="M115.518 63.75a2.25 2.25 0 11-4.502-.002 2.25 2.25 0 014.502.002z" clip-rule="evenodd"/><path fill="#131735" fill-rule="evenodd" d="M114.017 65.75a2.25 2.25 0 11-4.502-.002 2.25 2.25 0 014.502.002zm4.502-1.5a2.25 2.25 0 11-4.502-.002 2.25 2.25 0 014.502.002z" clip-rule="evenodd"/><path fill="#131735" fill-rule="evenodd" d="M121.521 64.25a2.25 2.25 0 11-4.502-.002 2.25 2.25 0 014.502.002z" clip-rule="evenodd"/><path fill="#131735" fill-rule="evenodd" d="M123.022 65.75a2.25 2.25 0 11-4.502-.002 2.25 2.25 0 014.502.002zm-.501 6.25a.5.5 0 11-1 0 .5.5 0 011 0zm2.001 0a.5.5 0 11-1 0 .5.5 0 011 0z" clip-rule="evenodd"/><path stroke="#fff" stroke-linecap="round" stroke-linejoin="round" stroke-width=".5" d="M98.01 140l2.501 2.5m-4.001.61l3 .28"/><path stroke="#131735" stroke-linecap="round" stroke-linejoin="round" stroke-width=".672" d="M219.065 110.489c-9.158.266-17.774-.664-20.399-.982-.492-.06-.946.266-1.023.743-.152.946-.202 2.633.658 4.804 1.122 2.834 3.03 3.989 3.658 4.305a.951.951 0 00.41.098c1.554.022 3.049.037 4.486.043m16.212-9.312c-.666.05-1.334.09-2.001.124m-9.004 9.188c25.55-.252 29.822-3.235 29.822-3.235l-.158-.287a5.067 5.067 0 00-1.813-8.785 4.963 4.963 0 00-2.999.082l-.002-.003c-3.507 1.382-7.762 2.181-12.159 2.602"/><path fill="#527FA5" fill-rule="evenodd" d="M180.548 170c0 2.485-2.016 4.5-4.502 4.5a4.502 4.502 0 01-4.503-4.5c0-2.485 2.016-4.5 4.503-4.5a4.501 4.501 0 014.502 4.5zm16.007-25c0 3.038-2.464 5.5-5.503 5.5a5.5 5.5 0 110-11 5.501 5.501 0 015.503 5.5zm39.018-2.25a6.752 6.752 0 01-6.753 6.75 6.752 6.752 0 01-6.754-6.75 6.752 6.752 0 016.754-6.75 6.752 6.752 0 016.753 6.75z" clip-rule="evenodd"/><path fill="#527FA5" fill-rule="evenodd" d="M172.044 168.328L186.028 143l9.026 5.94L180.07 172l-8.026-3.672z" clip-rule="evenodd"/><path fill="#527FA5" fill-rule="evenodd" d="M229.07 149.165l-37.972 1.335-.546-10.872L229.07 136v13.165zm-27.466 12.566a4.498 4.498 0 01-.778 6.316 4.504 4.504 0 01-6.319-.778 4.5 4.5 0 01.778-6.316 4.504 4.504 0 016.319.778zM200.057 132c0 3.038-2.464 5.5-5.502 5.5a5.5 5.5 0 110-11 5.501 5.501 0 015.502 5.5z" clip-rule="evenodd"/><path fill="#527FA5" fill-rule="evenodd" d="M193.604 165.5l-4.552-32.719 10.8-.781 2.206 31.481-8.454 2.019z" clip-rule="evenodd"/><path fill="#527FA5" fill-rule="evenodd" d="M230.571 141.5l-12.23-1.063-2.362-3.456-15.165 1.421-6.26-1.1.947-10.802 32.979 8.975 2.091 6.025z" clip-rule="evenodd"/><path fill="#4BC1A7" fill-rule="evenodd" d="M230.756 144.671l-10.44-3.472c-3.759-1.25-5.694-5.718-4.3-9.929l10.918-21.522c2.414-4.624 5.61-6.633 9.369-5.384l7.023 2.336c3.759 1.25 5.694 5.718 4.299 9.929l-7.5 22.658c-1.394 4.211-5.61 6.634-9.369 5.384z" clip-rule="evenodd"/><path fill="#131735" fill-rule="evenodd" d="M201.057 138.5s1.761 10.696 3.502 11.399l-2.974.101" clip-rule="evenodd"/><path stroke="#fff" stroke-linecap="round" stroke-linejoin="round" stroke-width=".672" d="M189.052 133l4.502 32.5m6.002-33s1.402 2.364 1.494 5.751c.004.141.076.261.209.248l11.303-1.132"/><path stroke="#131735" stroke-linecap="round" stroke-linejoin="round" stroke-width=".672" d="M224.568 125.5c-3.142 3.285-7.125 6.385-12.024 8.336-.32.127-.644.25-.972.368-.329.117-.662.229-.998.336a.728.728 0 00-.479.911c.584 1.832 2.56 6.671 7.322 7.508a2.77 2.77 0 002.211-.569m3.439-2.89c2.859-2.284 7.065-5.909 10.73-10.106 5.841-6.69 8.632-14.368 8.632-14.368a4.627 4.627 0 00.643-2.562c-.091-2.174-1.75-4.054-3.896-4.402a4.656 4.656 0 00-5.05 2.794l-.002-.001-.003.012c-.051.122-2.425 6.135-7.57 12.198m-16.99 13.435s-2.377.086-4.002 2m2.766 0s-3.53 1.748-4.549 4.962c-1.017 3.214 1.853 4.095 1.853 4.095s5.223 2.431 9.434-4.095"/><path fill="#131735" fill-rule="evenodd" d="M223.868 142.5s12.765-9.176 18.207-25.5c0 0-1.639 8.77-21.009 24.522l2.802.978z" clip-rule="evenodd"/><path stroke="#131735" stroke-linecap="round" stroke-linejoin="round" stroke-width=".672" d="M196.055 111.506c-1.242-.023-2.541.007-3.754.305-1.105.271-2.18.825-2.878 1.741-.975 1.279-1.365 4.326.078 5.448"/><path fill="#fff" fill-rule="evenodd" d="M245.077 103.75c0 1.795-2.575 3.25-5.752 3.25-3.177 0-5.753-1.455-5.753-3.25s2.576-3.25 5.753-3.25 5.752 1.455 5.752 3.25z" clip-rule="evenodd"/><path stroke="#131735" stroke-linecap="round" stroke-linejoin="round" stroke-width=".672" d="M195.167 115s-.517 2.048-2.441 2.909c-.55.246.375.925.536.986 1.108.417 5.06-.437 4.78-2.099"/><path fill="#fff" fill-rule="evenodd" d="M238.06 89s-4.604 7.512-3.918 10.845c0 0 2.356 6.291 7.755 3.391 0 0 2.817-1.881 3.444-4.603l2.237-6.306-4.156-4.827-5.362 1.5z" clip-rule="evenodd"/><path stroke="#131735" stroke-linecap="round" stroke-linejoin="round" stroke-width=".672" d="M237.139 89c-1.582 2.617-3.036 5.615-3.481 8.652-.236 1.605-.019 3.391 1.034 4.696 1.629 2.017 5.18 2.074 7.277.782 1.855-1.145 2.936-3.236 3.608-5.224"/><path fill="#FF9D45" fill-rule="evenodd" d="M235.121 84.032s.583 3.282 4.865 4.324c3.811.927 1.821 5.262 1.337 6.205a.212.212 0 00.088.284l.964.537c.104.058.235.02.291-.086.304-.575 1.271-2.186 2.183-1.382 0 0 1.607.516.054 6.309-.048.178.131.336.296.255 1.203-.593 4.671-2.794 5.817-8.874 0 0 .531-2.657-1.478-2.818-.159-.012-.255-.185-.171-.322.451-.738 1.312-2.574-.479-3.647-2.279-1.366-8.864-1.114-8.864-1.114s-2.359.059-3.965-.642a.704.704 0 00-.974.778l.036.193z" clip-rule="evenodd"/><path stroke="#FF9D45" stroke-linecap="round" stroke-linejoin="round" stroke-width=".672" d="M248.579 89s1.288-1.64 3.501-1.49m-3.001 1.046s1.802-.4 3.502.944"/><path fill="#fff" fill-rule="evenodd" d="M237.879 93.582c-.505 1.905-1.835 3.19-2.971 2.869-1.136-.321-1.647-2.127-1.141-4.033.505-1.905 1.835-3.19 2.971-2.869 1.135.322 1.646 2.127 1.141 4.033z" clip-rule="evenodd"/><path stroke="#131735" stroke-linecap="round" stroke-linejoin="round" stroke-width=".672" d="M237.879 93.582c-.505 1.905-1.835 3.19-2.971 2.869-1.136-.321-1.647-2.127-1.141-4.033.505-1.905 1.835-3.19 2.971-2.869 1.135.322 1.646 2.127 1.141 4.033z" clip-rule="evenodd"/><path stroke="#131735" stroke-linecap="round" stroke-linejoin="round" stroke-width=".672" d="M238.074 92l5.002 2.5"/><path fill="#fff" fill-rule="evenodd" d="M236.374 92.675l-.589-3.047.589 3.047z" clip-rule="evenodd"/><path stroke="#131735" stroke-linecap="round" stroke-linejoin="round" stroke-width=".5" d="M236.374 92.675l-.589-3.047"/><path fill="#fff" fill-rule="evenodd" d="M234.872 90.096l.399 2.264-.399-2.264z" clip-rule="evenodd"/><path stroke="#131735" stroke-linecap="round" stroke-linejoin="round" stroke-width=".5" d="M234.872 90.096l.399 2.264"/><path fill="#fff" fill-rule="evenodd" d="M235.084 93.897l.372 2.599-.372-2.599z" clip-rule="evenodd"/><path stroke="#131735" stroke-linecap="round" stroke-linejoin="round" stroke-width=".5" d="M235.084 93.897l.372 2.599"/><path stroke="#131735" stroke-linecap="round" stroke-linejoin="round" stroke-width=".672" d="M195.81 171.225s-5.139 3.968-6.758 7.775c0 0 11.696-.831 17.508-6.948 0 0-.215-1.291-2.719-3.052 0 0-2.907 3.805-8.031 2.225z" clip-rule="evenodd"/><path stroke="#131735" stroke-linecap="round" stroke-linejoin="round" stroke-width=".672" d="M206.759 172.035c.907-.242 1.301.835 1.301.835-7.114 7.13-18.902 7.13-18.902 7.13s-1.161.027-1.105-.573c.057-.598.794-.645.794-.645"/><path fill="#4D97F1" fill-rule="evenodd" d="M241.547 139.424c-.745-.257-1.149-1.089-.897-1.85l6.147-18.582a1.426 1.426 0 011.81-.916c.746.257 1.149 1.089.897 1.85l-6.146 18.582a1.427 1.427 0 01-1.811.916zM235.288 153h-26.444c-.982 0-1.784-.788-1.784-1.75s.802-1.75 1.784-1.75h26.444c.982 0 1.785.788 1.785 1.75s-.803 1.75-1.785 1.75z" clip-rule="evenodd"/><path stroke="#C0DEFC" stroke-linecap="round" stroke-linejoin="round" stroke-width="2.018" d="M248.579 130l-2.749 8.395c-2.074 6.336-4.003 16.582-12.456 16.836h-15.793s-9.493-.341-12.108 4.868L193.554 185.5"/><path stroke="#C0DEFC" stroke-linecap="round" stroke-linejoin="round" stroke-width="2.018" d="M225.068 155.538s11.729-1.005 14.718 7.342c2.988 8.348 9.293 23.12 9.293 23.12"/><path stroke="#131735" stroke-linecap="round" stroke-linejoin="round" stroke-width=".672" d="M168.181 177.5s-6.259 1.8-9.143 4.7c0 0 7.64 2.389 18.997.69 0 0 .244-2.082-1.49-4.576 0 0-4.097 2.443-8.364-.814z" clip-rule="evenodd"/><path stroke="#131735" stroke-linecap="round" stroke-linejoin="round" stroke-width=".672" d="M159.353 182.016s-.688-.135-.799.373c-.112.507.399.655.399.655s2.986 1.416 9.901 1.416c0 0 5.065.296 9.969-.719 0 0 .285.004.212-.568-.071-.558-.691-.446-.691-.446"/></svg>