<svg width="150" height="150" viewBox="0 0 150 150" fill="none" xmlns="http://www.w3.org/2000/svg">
<path d="M134.47 133.29H140" stroke="#92A2B1" stroke-width="1.2" stroke-linecap="round" stroke-linejoin="round"/>
<path d="M104.25 133.29H128.47" stroke="#92A2B1" stroke-width="1.2" stroke-linecap="round" stroke-linejoin="round"/>
<path d="M10 133.29H98.5" stroke="#92A2B1" stroke-width="1.2" stroke-linecap="round" stroke-linejoin="round"/>
<path opacity="0.2" d="M72.4203 126.39C99.9297 126.39 122.23 104.089 122.23 76.5795C122.23 49.0702 99.9297 26.7695 72.4203 26.7695C44.911 26.7695 22.6104 49.0702 22.6104 76.5795C22.6104 104.089 44.911 126.39 72.4203 126.39Z" fill="#BFC7D3"/>
<path d="M69.691 77.805C70.5967 68.495 77.0763 49.808 95.7486 49.5402C114.421 49.2725 116.487 32.9689 115.186 24.8506" stroke="#92A2B1" stroke-linecap="round" stroke-dasharray="0.4 4.4"/>
<path d="M35.0245 46.6406H58.2545C61.2945 46.6406 64.0345 48.4906 65.1745 51.3106L70.4145 64.3106C70.9845 65.7206 72.3545 66.6506 73.8745 66.6506H106.174C110.294 66.6506 113.634 69.9906 113.634 74.1106V108.151C113.634 112.271 110.294 115.611 106.174 115.611H35.0245C30.9045 115.611 27.5645 112.271 27.5645 108.151V54.1006C27.5645 49.9806 30.9045 46.6406 35.0245 46.6406Z" fill="white" stroke="#92A2B1" stroke-width="1.2"/>
<path d="M86.1636 79.9102H53.0336C48.5822 79.9102 44.9736 83.5187 44.9736 87.9702C44.9736 92.4216 48.5822 96.0302 53.0336 96.0302H86.1636C90.615 96.0302 94.2236 92.4216 94.2236 87.9702C94.2236 83.5187 90.615 79.9102 86.1636 79.9102Z" fill="#EBEFF3"/>
<path d="M111.965 20.3752C113.937 22.1098 118.225 24.7777 119.601 21.5723C120.977 18.367 115.083 19.4387 111.965 20.3752Z" stroke="#92A2B1" stroke-linecap="round" stroke-linejoin="round"/>
<path d="M111.907 20.3841C112.902 23.4599 113.864 29.6544 109.754 29.8265C105.644 29.9986 109.477 23.6033 111.907 20.3841Z" stroke="#92A2B1" stroke-linecap="round" stroke-linejoin="round"/>
</svg>
