<svg width="150" height="150" viewBox="0 0 150 150" fill="none" xmlns="http://www.w3.org/2000/svg">
<path d="M134.051 134.19H139.541" stroke="#91A1B0" stroke-width="1.2" stroke-linecap="round" stroke-linejoin="round"/>
<path d="M104.07 134.19H128.1" stroke="#91A1B0" stroke-width="1.2" stroke-linecap="round" stroke-linejoin="round"/>
<path d="M10.5391 134.19H98.359" stroke="#91A1B0" stroke-width="1.2" stroke-linecap="round" stroke-linejoin="round"/>
<path opacity="0.2" d="M75.0391 127.25C102.653 127.25 125.039 104.864 125.039 77.25C125.039 49.6358 102.653 27.25 75.0391 27.25C47.4248 27.25 25.0391 49.6358 25.0391 77.25C25.0391 104.864 47.4248 127.25 75.0391 127.25Z" fill="#BEC6D2"/>
<path d="M38.1293 41.75H111.959C115.089 41.75 117.639 44.29 117.639 47.43V107.07C117.639 110.2 115.099 112.75 111.959 112.75H38.1293C34.9993 112.75 32.4492 110.21 32.4492 107.07V47.43C32.4492 44.3 34.9893 41.75 38.1293 41.75Z" fill="white" stroke="#91A1B0" stroke-width="1.2" stroke-miterlimit="10"/>
<path d="M37.6704 42.4199H112.48C114.96 42.4199 116.98 44.4399 116.98 46.9199V58.7799H33.0703V47.0199C33.0703 44.4799 35.1304 42.4199 37.6704 42.4199Z" fill="#91A1B0" stroke="#91A1B0" stroke-width="0.83" stroke-linecap="round" stroke-linejoin="round"/>
<path d="M52.1896 50.6001H42.3496H52.1896Z" fill="white"/>
<path d="M52.1896 50.6001H42.3496" stroke="white" stroke-width="1.2" stroke-miterlimit="10" stroke-linecap="round"/>
<path d="M18.4395 40.1699H24.4795" stroke="#91A1B0" stroke-width="1.2" stroke-linecap="round" stroke-linejoin="round"/>
<path d="M31.6406 26.0801V32.1301" stroke="#91A1B0" stroke-width="1.2" stroke-linecap="round" stroke-linejoin="round"/>
<path d="M21.0098 30.4102L25.8097 34.1002" stroke="#91A1B0" stroke-width="1.2" stroke-linecap="round" stroke-linejoin="round"/>
<path d="M112.199 124.19C122.14 124.19 130.199 116.131 130.199 106.19C130.199 96.2488 122.14 88.1899 112.199 88.1899C102.258 88.1899 94.1992 96.2488 94.1992 106.19C94.1992 116.131 102.258 124.19 112.199 124.19Z" fill="white" stroke="#91A1B0" stroke-width="1.2" stroke-miterlimit="10"/>
<path d="M67.0995 65.8799H54.4395C53.3349 65.8799 52.4395 66.7753 52.4395 67.8799V75.4399C52.4395 76.5445 53.3349 77.4399 54.4395 77.4399H67.0995C68.2041 77.4399 69.0995 76.5445 69.0995 75.4399V67.8799C69.0995 66.7753 68.2041 65.8799 67.0995 65.8799Z" stroke="#CED6DE" stroke-width="1.2" stroke-linecap="round" stroke-linejoin="round"/>
<path d="M55.7793 70.2002H65.0393" stroke="#CED6DE" stroke-width="1.2" stroke-linecap="round" stroke-linejoin="round"/>
<path d="M55.7793 73.3799H60.7693" stroke="#CED6DE" stroke-width="1.2" stroke-linecap="round" stroke-linejoin="round"/>
<path d="M72.9392 95.8799H60.2793C59.1747 95.8799 58.2793 96.7753 58.2793 97.8799V105.44C58.2793 106.544 59.1747 107.44 60.2793 107.44H72.9392C74.0438 107.44 74.9392 106.544 74.9392 105.44V97.8799C74.9392 96.7753 74.0438 95.8799 72.9392 95.8799Z" stroke="#CED6DE" stroke-width="1.2" stroke-linecap="round" stroke-linejoin="round"/>
<path d="M61.6094 100.2H70.8794" stroke="#CED6DE" stroke-width="1.2" stroke-linecap="round" stroke-linejoin="round"/>
<path d="M61.6094 103.38H66.6094" stroke="#CED6DE" stroke-width="1.2" stroke-linecap="round" stroke-linejoin="round"/>
<path d="M69.0988 71.6602H98.7688C100.979 71.6602 102.769 73.4502 102.769 75.6602V81.9702C102.769 84.1802 100.979 85.9702 98.7688 85.9702H55.9688C53.7587 85.9702 51.9688 87.7602 51.9688 89.9702V97.7602C51.9688 99.9702 53.7587 101.76 55.9688 101.76H58.2688" stroke="#CED6DE" stroke-width="1.2" stroke-linecap="round" stroke-linejoin="round"/>
<path d="M89.7818 71.6563L87.123 68.9976L84.4643 71.6563L87.1231 74.315L89.7818 71.6563Z" fill="white" stroke="#CED6DE" stroke-width="1.2" stroke-linecap="round" stroke-linejoin="round"/>
<path d="M65.897 85.9693L63.2383 83.3105L60.5796 85.9693L63.2383 88.628L65.897 85.9693Z" fill="white" stroke="#CED6DE" stroke-width="1.2" stroke-linecap="round" stroke-linejoin="round"/>
<path d="M92.0311 80.1899H79.3711C78.2665 80.1899 77.3711 81.0854 77.3711 82.1899V89.7499C77.3711 90.8545 78.2665 91.7499 79.3711 91.7499H92.0311C93.1357 91.7499 94.0311 90.8545 94.0311 89.7499V82.1899C94.0311 81.0854 93.1357 80.1899 92.0311 80.1899Z" fill="white" stroke="#CED6DE" stroke-width="1.2" stroke-linecap="round" stroke-linejoin="round"/>
<path d="M80.7109 84.52H89.981" stroke="#CED6DE" stroke-width="1.2" stroke-linecap="round" stroke-linejoin="round"/>
<path d="M80.7109 87.6899H85.7109" stroke="#CED6DE" stroke-width="1.2" stroke-linecap="round" stroke-linejoin="round"/>
<path d="M106.469 111.91C106.239 111.68 106.239 111.3 106.469 111.06L117.079 100.45C117.309 100.22 117.689 100.22 117.929 100.45C118.169 100.68 118.159 101.06 117.929 101.3L107.319 111.91C107.089 112.14 106.709 112.14 106.469 111.91Z" fill="#91A1B0"/>
<path d="M117.079 111.91L106.469 101.3C106.239 101.07 106.239 100.69 106.469 100.45C106.699 100.21 107.079 100.22 107.319 100.45L117.929 111.06C118.159 111.29 118.159 111.67 117.929 111.91C117.699 112.15 117.319 112.14 117.079 111.91Z" fill="#91A1B0"/>
</svg>
