<svg width="128" height="108" viewBox="0 0 128 108" fill="none" xmlns="http://www.w3.org/2000/svg">
<g clip-path="url(#clip0_11695_33727)">
<path d="M121.899 107.26H127.289M92.479 107.26H116.059M0.708984 107.26H86.879" stroke="#91A1B0" stroke-width="1.2" stroke-linecap="round" stroke-linejoin="round"/>
<path opacity="0.2" d="M64.909 100.81C92.909 100.81 115.599 78.24 115.599 50.41C115.599 22.58 92.899 0 64.909 0C36.919 0 14.209 22.57 14.209 50.4C14.209 78.23 36.909 100.8 64.899 100.8L64.909 100.81Z" fill="#BEC6D2"/>
<path d="M90.0798 16.7998H39.7298C38.4099 16.7998 37.3398 17.8698 37.3398 19.1898V31.5998C37.3398 32.9198 38.4099 33.9898 39.7298 33.9898H90.0798C91.3998 33.9898 92.4698 32.9198 92.4698 31.5998V19.1898C92.4698 17.8698 91.3998 16.7998 90.0798 16.7998Z" fill="white" stroke="#BDC7D0" stroke-width="1.2" stroke-miterlimit="10"/>
<path d="M47.3495 29.2303C49.4648 29.2303 51.1795 27.5156 51.1795 25.4003C51.1795 23.2851 49.4648 21.5703 47.3495 21.5703C45.2343 21.5703 43.5195 23.2851 43.5195 25.4003C43.5195 27.5156 45.2343 29.2303 47.3495 29.2303Z" fill="#BDC7D0"/>
<path d="M55.3398 23.6396H86.2998" stroke="#BDC7D0" stroke-width="1.2" stroke-linecap="round" stroke-linejoin="round"/>
<path d="M55.3398 27.1504H76.4898" stroke="#BDC7D0" stroke-width="1.2" stroke-linecap="round" stroke-linejoin="round"/>
<path d="M90.0798 37.7998H39.7298C38.4099 37.7998 37.3398 38.8698 37.3398 40.1898V52.5998C37.3398 53.9198 38.4099 54.9898 39.7298 54.9898H90.0798C91.3998 54.9898 92.4698 53.9198 92.4698 52.5998V40.1898C92.4698 38.8698 91.3998 37.7998 90.0798 37.7998Z" fill="white" stroke="#BDC7D0" stroke-width="1.2" stroke-miterlimit="10"/>
<path d="M47.3495 50.2303C49.4648 50.2303 51.1795 48.5156 51.1795 46.4003C51.1795 44.2851 49.4648 42.5703 47.3495 42.5703C45.2343 42.5703 43.5195 44.2851 43.5195 46.4003C43.5195 48.5156 45.2343 50.2303 47.3495 50.2303Z" fill="#BDC7D0"/>
<path d="M55.3398 44.6504H86.2998" stroke="#BDC7D0" stroke-width="1.2" stroke-linecap="round" stroke-linejoin="round"/>
<path d="M55.3398 48.1504H76.4898" stroke="#BDC7D0" stroke-width="1.2" stroke-linecap="round" stroke-linejoin="round"/>
<path d="M37.8193 59.4502H91.9993C93.9493 59.4502 95.5393 61.0402 95.5393 62.9902V78.0402C95.5393 83.5602 91.0593 88.0402 85.5393 88.0402H44.2793C38.7593 88.0402 34.2793 83.5602 34.2793 78.0402V62.9902C34.2793 61.0402 35.8693 59.4502 37.8193 59.4502Z" fill="white" stroke="#92A2B1" stroke-width="1.2"/>
<path d="M64.9091 82.6101C69.8078 82.6101 73.7791 78.6389 73.7791 73.7401C73.7791 68.8413 69.8078 64.8701 64.9091 64.8701C60.0103 64.8701 56.0391 68.8413 56.0391 73.7401C56.0391 78.6389 60.0103 82.6101 64.9091 82.6101Z" fill="#EBEFF3"/>
<path d="M68.1092 74.75L64.9092 77.96L61.6992 74.75" stroke="#91A1B0" stroke-width="1.2" stroke-linecap="round" stroke-linejoin="round"/>
<path d="M64.9102 69.5303V77.9603" stroke="#91A1B0" stroke-width="1.2" stroke-linecap="round" stroke-linejoin="round"/>
</g>
<defs>
<clipPath id="clip0_11695_33727">
<rect width="127.78" height="107.86" fill="white" transform="translate(0.109375)"/>
</clipPath>
</defs>
</svg>
