<svg xmlns="http://www.w3.org/2000/svg" width="156" height="140" fill="none" viewBox="0 0 156 140"><mask id="fs-2npc9flhba" style="mask-type:alpha" width="138" height="138" x="4" y="2" maskUnits="userSpaceOnUse"><path fill="url(#paint0_linear_7107_19262)" d="M73.19 140c37.902 0 68.627-30.725 68.627-68.627 0-37.9-30.725-68.626-68.626-68.626S4.565 33.472 4.565 71.373C4.565 109.275 35.29 140 73.19 140z"/></mask><g mask="url(#fs-2npc9flhba)"><path fill="url(#paint1_linear_7107_19262)" d="M72.323 139.198c37.896 0 68.617-30.546 68.617-68.226S110.219 2.747 72.323 2.747 3.705 33.293 3.705 70.972c0 37.68 30.721 68.226 68.618 68.226z"/><path fill="#fff" d="M94.356 39.423a3.129 3.129 0 00-3.129 3.129v170.183H264.54V39.423H94.356zm169.675 10.773h-10.35V39.847h10.35v10.35zm-85.935 64.812v-10.349h10.349v10.349h-10.349zm10.349.509v10.35h-10.349v-10.35h10.349zm-10.774-.509h-10.349v-10.349h10.349v10.349zm0 .509v10.35h-10.349v-10.35h10.349zm-10.858 10.35h-10.35v-10.35h10.35v10.35zm0 .424v10.35h-10.35v-10.35h10.35zm.509 0h10.349v10.35h-10.349v-10.35zm10.349 10.774v10.349h-10.349v-10.349h10.349zm.425 0h10.349v10.349h-10.349v-10.349zm0-.424v-10.35h10.349v10.35h-10.349zm10.773-10.35h10.35v10.35h-10.35v-10.35zm0-.424v-10.35h10.35v10.35h-10.35zm0-10.859v-10.349h10.35v10.349h-10.35zm0-10.773v-10.35h10.35v10.35h-10.35zm-.424 0h-10.349v-10.35h10.349v10.35zm-10.774 0h-10.349v-10.35h10.349v10.35zm-10.858 0h-10.35v-10.35h10.35v10.35zm0 .424v10.349h-10.35v-10.349h10.35zm-10.774 10.349H145.69v-10.349h10.349v10.349zm0 .509v10.35H145.69v-10.35h10.349zm0 10.774v10.35H145.69v-10.35h10.349zm0 10.774v10.349H145.69v-10.349h10.349zm.424 0h10.35v10.349h-10.35v-10.349zm10.35 10.858v10.35h-10.35v-10.35h10.35zm.509 0h10.349v10.35h-10.349v-10.35zm10.774 0h10.349v10.35h-10.349v-10.35zm10.773 0h10.35v10.35h-10.35v-10.35zm0-.509v-10.349h10.35v10.349h-10.35zm10.859-10.349h10.349v10.349h-10.349v-10.349zm0-.424v-10.35h10.349v10.35h-10.349zm0-10.774v-10.35h10.349v10.35h-10.349zm0-10.859v-10.349h10.349v10.349h-10.349zm0-10.773v-10.35h10.349v10.35h-10.349zm0-10.774v-10.35h10.349v10.35h-10.349zm-.509 0h-10.35v-10.35h10.35v10.35zm-10.774 0h-10.349v-10.35h10.349v10.35zm-10.774 0h-10.349v-10.35h10.349v10.35zm-10.858 0h-10.35v-10.35h10.35v10.35zm-10.774 0H145.69v-10.35h10.349v10.35zm0 .424v10.35H145.69v-10.35h10.349zm-10.774 10.35h-10.349v-10.35h10.349v10.35zm0 .424v10.349h-10.349v-10.349h10.349zm0 10.858v10.35h-10.349v-10.35h10.349zm0 10.774v10.35h-10.349v-10.35h10.349zm0 10.774v10.349h-10.349v-10.349h10.349zm0 10.858v10.35h-10.349v-10.35h10.349zm.425 0h10.349v10.35H145.69v-10.35zm10.349 10.774v10.35H145.69v-10.35h10.349zm.424 0h10.35v10.35h-10.35v-10.35zm10.859 0h10.349v10.35h-10.349v-10.35zm10.774 0h10.349v10.35h-10.349v-10.35zm10.773 0h10.35v10.35h-10.35v-10.35zm10.859 0h10.349v10.35h-10.349v-10.35zm0-.424v-10.35h10.349v10.35h-10.349zm10.773-10.35h10.35v10.35h-10.35v-10.35zm0-.509v-10.349h10.35v10.349h-10.35zm0-10.773v-10.35h10.35v10.35h-10.35zm0-10.774v-10.35h10.35v10.35h-10.35zm0-10.859v-10.349h10.35v10.349h-10.35zm0-10.773v-10.35h10.35v10.35h-10.35zm0-10.774v-10.35h10.35v10.35h-10.35zm0-10.858v-10.35h10.35v10.35h-10.35zm-.424 0h-10.349v-10.35h10.349v10.35zm-10.858 0h-10.35v-10.35h10.35v10.35zm-10.774 0h-10.349v-10.35h10.349v10.35zm-10.774 0h-10.349v-10.35h10.349v10.35zm-10.858 0h-10.35v-10.35h10.35v10.35zm-10.774 0H145.69v-10.35h10.349v10.35zm-10.774 0h-10.349v-10.35h10.349v10.35zm0 .509V93.46h-10.349v-10.35h10.349zM134.407 93.46h-10.35v-10.35h10.35v10.35zm0 .424v10.35h-10.35v-10.35h10.35zm0 10.774v10.349h-10.35v-10.349h10.35zm0 10.858v10.35h-10.35v-10.35h10.35zm0 10.774v10.35h-10.35v-10.35h10.35zm0 10.774v10.349h-10.35v-10.349h10.35zm0 10.858v10.35h-10.35v-10.35h10.35zm0 10.774v10.35h-10.35v-10.35h10.35zm.509 0h10.349v10.35h-10.349v-10.35zm10.349 10.774v10.349h-10.349v-10.349h10.349zm.425 0h10.349v10.349H145.69v-10.349zm10.773 0h10.35v10.349h-10.35v-10.349zm10.859 0h10.349v10.349h-10.349v-10.349zm10.774 0h10.349v10.349h-10.349v-10.349zm10.773 0h10.35v10.349h-10.35v-10.349zm10.859 0h10.349v10.349h-10.349v-10.349zm10.773 0h10.35v10.349h-10.35v-10.349zm0-.424v-10.35h10.35v10.35h-10.35zm10.774-10.35h10.35v10.35h-10.35v-10.35zm0-.424v-10.35h10.35v10.35h-10.35zm0-10.859v-10.349h10.35v10.349h-10.35zm0-10.773v-10.35h10.35v10.35h-10.35zm0-10.774v-10.35h10.35v10.35h-10.35zm0-10.859v-10.349h10.35v10.349h-10.35zm0-10.773v-10.35h10.35v10.35h-10.35zm0-10.774v-10.35h10.35v10.35h-10.35zm0-10.858v-10.35h10.35v10.35h-10.35zm0-10.774v-10.35h10.35v10.35h-10.35zm-.424 0h-10.35v-10.35h10.35v10.35zm-10.774 0h-10.349v-10.35h10.349v10.35zm-10.858 0h-10.35v-10.35h10.35v10.35zm-10.774 0h-10.349v-10.35h10.349v10.35zm-10.774 0h-10.349v-10.35h10.349v10.35zm-10.858 0h-10.35v-10.35h10.35v10.35zm-10.774 0H145.69v-10.35h10.349v10.35zm-10.774 0h-10.349v-10.35h10.349v10.35zm-10.858 0h-10.35v-10.35h10.35v10.35zm0 .424v10.35h-10.35v-10.35h10.35zm-10.774 10.35h-10.349v-10.35h10.349v10.35zm0 .509V93.46h-10.349v-10.35h10.349zm0 10.773v10.35h-10.349v-10.35h10.349zm0 10.774v10.349h-10.349v-10.349h10.349zm0 10.858v10.35h-10.349v-10.35h10.349zm0 10.774v10.35h-10.349v-10.35h10.349zm0 10.774v10.349h-10.349v-10.349h10.349zm0 10.858v10.35h-10.349v-10.35h10.349zm0 10.774v10.35h-10.349v-10.35h10.349zm0 10.774v10.349h-10.349v-10.349h10.349zm.424 0h10.35v10.349h-10.35v-10.349zm10.35 10.858v10.35h-10.35v-10.35h10.35zm.509 0h10.349v10.35h-10.349v-10.35zm10.774 0h10.349v10.35H145.69v-10.35zm10.773 0h10.35v10.35h-10.35v-10.35zm10.859 0h10.349v10.35h-10.349v-10.35zm10.774 0h10.349v10.35h-10.349v-10.35zm10.773 0h10.35v10.35h-10.35v-10.35zm10.859 0h10.349v10.35h-10.349v-10.35zm10.773 0h10.35v10.35h-10.35v-10.35zm10.774 0h10.35v10.35h-10.35v-10.35zm0-.509v-10.349h10.35v10.349h-10.35zm10.859-10.349h10.349v10.349h-10.349v-10.349zm0-.424v-10.35h10.349v10.35h-10.349zm0-10.774v-10.35h10.349v10.35h-10.349zm0-10.859v-10.349h10.349v10.349h-10.349zm0-10.773v-10.35h10.349v10.35h-10.349zm0-10.774v-10.35h10.349v10.35h-10.349zm0-10.859v-10.349h10.349v10.349h-10.349zm0-10.773v-10.35h10.349v10.35h-10.349zm0-10.774v-10.35h10.349v10.35h-10.349zm0-10.858v-10.35h10.349v10.35h-10.349zm0-10.774v-10.35h10.349v10.35h-10.349zm0-10.774v-10.35h10.349v10.35h-10.349zm-.509 0h-10.35v-10.35h10.35v10.35zm-10.774 0h-10.35v-10.35h10.35v10.35zm-10.774 0h-10.349v-10.35h10.349v10.35zm-10.858 0h-10.35v-10.35h10.35v10.35zm-10.774 0h-10.349v-10.35h10.349v10.35zm-10.774 0h-10.349v-10.35h10.349v10.35zm-10.858 0h-10.35v-10.35h10.35v10.35zm-10.774 0H145.69v-10.35h10.349v10.35zm-10.774 0h-10.349v-10.35h10.349v10.35zm-10.858 0h-10.35v-10.35h10.35v10.35zm-10.774 0h-10.349v-10.35h10.349v10.35zm0 .424v10.35h-10.349v-10.35h10.349zM112.86 71.83h-10.35v-10.35h10.35v10.35zm0 .424v10.35h-10.35v-10.35h10.35zm0 10.859V93.46h-10.35v-10.35h10.35zm0 10.773v10.35h-10.35v-10.35h10.35zm0 10.774v10.349h-10.35v-10.349h10.35zm0 10.858v10.35h-10.35v-10.35h10.35zm0 10.774v10.35h-10.35v-10.35h10.35zm0 10.774v10.349h-10.35v-10.349h10.35zm0 10.858v10.35h-10.35v-10.35h10.35zm0 10.774v10.35h-10.35v-10.35h10.35zm0 10.774v10.349h-10.35v-10.349h10.35zm0 10.858v10.35h-10.35v-10.35h10.35zm.424 0h10.349v10.35h-10.349v-10.35zm10.349 10.774v10.349h-10.349v-10.349h10.349zm.424 0h10.35v10.349h-10.35v-10.349zm10.859 0h10.349v10.349h-10.349v-10.349zm10.774 0h10.349v10.349H145.69v-10.349zm10.773 0h10.35v10.349h-10.35v-10.349zm10.859 0h10.349v10.349h-10.349v-10.349zm10.774 0h10.349v10.349h-10.349v-10.349zm10.773 0h10.35v10.349h-10.35v-10.349zm10.859 0h10.349v10.349h-10.349v-10.349zm10.773 0h10.35v10.349h-10.35v-10.349zm10.774 0h10.35v10.349h-10.35v-10.349zm10.859 0h10.349v10.349h-10.349v-10.349zm0-.424v-10.35h10.349v10.35h-10.349zm10.773-10.35h10.35v10.35h-10.35v-10.35zm0-.509v-10.349h10.35v10.349h-10.35zm0-10.773v-10.35h10.35v10.35h-10.35zm0-10.774v-10.35h10.35v10.35h-10.35zm0-10.859v-10.349h10.35v10.349h-10.35zm0-10.773v-10.35h10.35v10.35h-10.35zm0-10.774v-10.35h10.35v10.35h-10.35zm0-10.859v-10.349h10.35v10.349h-10.35zm0-10.773v-10.35h10.35v10.35h-10.35zm0-10.774v-10.35h10.35v10.35h-10.35zm0-10.858v-10.35h10.35v10.35h-10.35zm0-10.774v-10.35h10.35v10.35h-10.35zm0-10.774v-10.35h10.35v10.35h-10.35zm0-10.858v-10.35h10.35v10.35h-10.35zm-.424 0h-10.349v-10.35h10.349v10.35zm-10.858 0h-10.35v-10.35h10.35v10.35zm-10.774 0h-10.35v-10.35h10.35v10.35zm-10.774 0h-10.349v-10.35h10.349v10.35zm-10.858 0h-10.35v-10.35h10.35v10.35zm-10.774 0h-10.349v-10.35h10.349v10.35zm-10.774 0h-10.349v-10.35h10.349v10.35zm-10.858 0h-10.35v-10.35h10.35v10.35zm-10.774 0H145.69v-10.35h10.349v10.35zm-10.774 0h-10.349v-10.35h10.349v10.35zm-10.858 0h-10.35v-10.35h10.35v10.35zm-10.774 0h-10.349v-10.35h10.349v10.35zm-10.773 0h-10.35v-10.35h10.35v10.35zm0 .508v10.35h-10.35v-10.35h10.35zm-10.859 10.35h-10.35v-10.35h10.35v10.35zm0 .424v10.35h-10.35v-10.35h10.35zm0 10.774v10.35h-10.35v-10.35h10.35zm0 10.859V93.46h-10.35v-10.35h10.35zm0 10.773v10.35h-10.35v-10.35h10.35zm0 10.774v10.349h-10.35v-10.349h10.35zm0 10.858v10.35h-10.35v-10.35h10.35zm0 10.774v10.35h-10.35v-10.35h10.35zm0 10.774v10.349h-10.35v-10.349h10.35zm0 10.858v10.35h-10.35v-10.35h10.35zm0 10.774v10.35h-10.35v-10.35h10.35zm0 10.774v10.349h-10.35v-10.349h10.35zm0 10.858v10.35h-10.35v-10.35h10.35zm0 10.774v10.349h-10.35v-10.349h10.35zm.509 0h10.35v10.349h-10.35v-10.349zm10.35 10.774v10.349h-10.35v-10.349h10.35zm.424 0h10.349v10.349h-10.349v-10.349zm10.773 0h10.35v10.349h-10.35v-10.349zm10.859 0h10.349v10.349h-10.349v-10.349zm10.774 0h10.349v10.349H145.69v-10.349zm10.773 0h10.35v10.349h-10.35v-10.349zm10.859 0h10.349v10.349h-10.349v-10.349zm10.774 0h10.349v10.349h-10.349v-10.349zm10.773 0h10.35v10.349h-10.35v-10.349zm10.859 0h10.349v10.349h-10.349v-10.349zm10.773 0h10.35v10.349h-10.35v-10.349zm10.774 0h10.35v10.349h-10.35v-10.349zm10.859 0h10.349v10.349h-10.349v-10.349zm10.773 0h10.35v10.349h-10.35v-10.349zm0-.425v-10.349h10.35v10.349h-10.35zm10.774-10.349h10.35v10.349h-10.35v-10.349zm0-.424v-10.35h10.35v10.35h-10.35zm0-10.859v-10.349h10.35v10.349h-10.35zm0-10.773v-10.35h10.35v10.35h-10.35zm0-10.774v-10.35h10.35v10.35h-10.35zm0-10.859v-10.349h10.35v10.349h-10.35zm0-10.773v-10.35h10.35v10.35h-10.35zm0-10.774v-10.35h10.35v10.35h-10.35zm0-10.859v-10.349h10.35v10.349h-10.35zm0-10.773v-10.35h10.35v10.35h-10.35zm0-10.774v-10.35h10.35v10.35h-10.35zm0-10.858v-10.35h10.35v10.35h-10.35zm0-10.774v-10.35h10.35v10.35h-10.35zm0-10.774v-10.35h10.35v10.35h-10.35zm-151.68-21.208v10.35h-10.35v-7.221c0-1.728 1.401-3.129 3.13-3.129H102zm-10.35 162.03h10.35v10.349h-10.35v-10.349zm162.03 10.349v-10.349h10.35v10.349h-10.35z"/></g><g filter="url(#filter0_f_7107_19262)"><ellipse cx="67.986" cy="121.239" fill="#000" fill-opacity=".37" rx="65.758" ry=".349"/></g><g filter="url(#filter1_iii_7107_19262)"><path fill="#3687EC" d="M121.01 19.233H22.688c-1.907 0-3.454 2.165-3.454 4.835v85.674c0 2.67 1.547 4.834 3.454 4.834h98.322c1.908 0 3.454-2.164 3.454-4.834V24.068c0-2.67-1.546-4.835-3.454-4.835z"/></g><g filter="url(#filter2_dii_7107_19262)"><rect width="94.796" height="70.067" x="24.73" y="34.346" fill="url(#paint2_linear_7107_19262)" rx="1.877"/></g><g filter="url(#filter3_ii_7107_19262)"><path fill="#EDEDED" d="M94.11 43.963H34.3a2.702 2.702 0 00-2.702 2.702v.007a2.702 2.702 0 002.702 2.703H94.11a2.702 2.702 0 002.703-2.703v-.007a2.702 2.702 0 00-2.703-2.702z"/></g><g filter="url(#filter4_ii_7107_19262)"><path fill="#EDEDED" d="M94.11 53.58H34.3a2.702 2.702 0 00-2.702 2.703v.006a2.702 2.702 0 002.702 2.703H94.11a2.702 2.702 0 002.703-2.703v-.006a2.702 2.702 0 00-2.703-2.703z"/></g><g filter="url(#filter5_ii_7107_19262)"><path fill="#EDEDED" d="M94.11 64.57H34.3a2.702 2.702 0 00-2.702 2.703v.007a2.702 2.702 0 002.702 2.702H94.11a2.702 2.702 0 002.703-2.703v-.006a2.702 2.702 0 00-2.703-2.703z"/></g><g filter="url(#filter6_ii_7107_19262)"><path fill="#EDEDED" d="M72.128 75.561H34.3a2.702 2.702 0 00-2.702 2.703v.007a2.702 2.702 0 002.702 2.702h37.827a2.702 2.702 0 002.702-2.702v-.007a2.702 2.702 0 00-2.702-2.703z"/></g><g filter="url(#filter7_ii_7107_19262)"><path fill="#EDEDED" d="M65.945 86.553H34.301a2.702 2.702 0 00-2.702 2.702v.007a2.702 2.702 0 002.702 2.702h31.644a2.702 2.702 0 002.703-2.702v-.007a2.703 2.703 0 00-2.703-2.702z"/></g><g filter="url(#filter8_ii_7107_19262)"><path fill="#EAEAEA" d="M25.912 27.992a1.55 1.55 0 100-3.1 1.55 1.55 0 000 3.1z"/></g><g filter="url(#filter9_ii_7107_19262)"><path fill="#EAEAEA" d="M36.444 27.992a1.55 1.55 0 100-3.1 1.55 1.55 0 000 3.1z"/></g><g filter="url(#filter10_ii_7107_19262)"><path fill="#EAEAEA" d="M31.178 27.992a1.55 1.55 0 100-3.1 1.55 1.55 0 000 3.1z"/></g><g filter="url(#filter11_ii_7107_19262)"><path fill="#92A2B1" d="M67.268 75.045c5.548 0 10.045-4.498 10.045-10.046 0-5.547-4.497-10.045-10.045-10.045S57.223 59.452 57.223 65c0 5.548 4.497 10.046 10.045 10.046z"/></g><g filter="url(#filter12_ii_7107_19262)"><path fill="#92A2B1" d="M91.912 104.413H45.15c-1.403 0-2.543-1.16-2.36-2.551a24.662 24.662 0 0149.104 2.534c0 .01.008.017.018.017z"/></g><g filter="url(#filter13_d_7107_19262)"><g filter="url(#filter14_i_7107_19262)"><path fill="#FF8946" d="M108.31 67.91a3.658 3.658 0 012.836-3.564.653.653 0 00.511-.636v-2.607a.652.652 0 00-.654-.653H83.085a.654.654 0 00-.654.653v2.572a.654.654 0 00.539.641 3.649 3.649 0 010 7.187.653.653 0 00-.539.64v2.567a.653.653 0 00.654.654h27.918a.651.651 0 00.654-.654v-2.606a.656.656 0 00-.511-.636 3.66 3.66 0 01-2.836-3.559z"/></g><g filter="url(#filter15_d_7107_19262)"><path fill="#000" d="M102.957 65.496H91.849a.695.695 0 00-.695.695v.002c0 .384.311.695.695.695h11.108a.695.695 0 00.695-.695v-.002a.695.695 0 00-.695-.695z"/></g><g filter="url(#filter16_ii_7107_19262)"><path fill="#F3F3F3" d="M102.957 65.496H91.849a.695.695 0 00-.695.695v.002c0 .384.311.695.695.695h11.108a.695.695 0 00.695-.695v-.002a.695.695 0 00-.695-.695z"/></g><g filter="url(#filter17_d_7107_19262)"><path fill="#000" d="M101.361 69.256h-7.607a.695.695 0 00-.695.695v.002c0 .383.312.695.695.695h7.607a.695.695 0 00.695-.695v-.002a.695.695 0 00-.695-.695z"/></g><g filter="url(#filter18_ii_7107_19262)"><path fill="#F3F3F3" d="M101.361 69.256h-7.607a.695.695 0 00-.695.695v.002c0 .383.312.695.695.695h7.607a.695.695 0 00.695-.695v-.002a.695.695 0 00-.695-.695z"/></g></g><g filter="url(#filter19_i_7107_19262)"><path fill="url(#paint3_linear_7107_19262)" d="M138.436 102.272c-.031-.008-.06-.013-.086-.031-.697-.52 1.269-9.166 1.455-9.808.938-3.239 2.491-6.39 4.989-8.703 1.768-1.636 6.492-4.838 8.943-2.956 2.065 1.589.13 5.577-.822 7.245-1.707 2.965-4.223 5.367-6.371 7.997-1.282 1.573-2.57 3.177-3.851 4.75-.091.117-.857 1.205-1.347 1.785-.232.275-.568.315-.917.227l-1.993-.506z"/></g><g filter="url(#filter20_i_7107_19262)"><path fill="url(#paint4_linear_7107_19262)" d="M141.258 104.87c1.049.226 1.982-.665 1.764-1.715-1.204-5.776-5.194-20.835-13.644-18.09-7.681 2.52 8.825 17.372 11.216 19.476.192.168.414.276.664.329z"/></g><path fill="#77FFE4" fill-opacity=".2" d="M131.678 88.068s9.883 12.899 9.996 15.628l-9.996-15.628zM150.815 83.318s-8.121 10.36-9.004 14.957l9.004-14.957z"/><path fill="url(#paint5_linear_7107_19262)" d="M131.152 101.722a1.471 1.471 0 011.464-1.612h14.906c.868 0 1.547.748 1.464 1.612l-1.632 16.93a1.47 1.47 0 01-1.464 1.329h-11.642a1.47 1.47 0 01-1.463-1.329l-1.633-16.93z"/><g filter="url(#filter21_i_7107_19262)"><rect width="19.455" height="4.79" x="130.342" y="100.11" fill="url(#paint6_linear_7107_19262)" rx=".735"/></g><path fill="url(#paint7_radial_7107_19262)" d="M5.495 83.805a5.495 5.495 0 100-10.99 5.495 5.495 0 000 10.99z"/><path fill="url(#paint8_radial_7107_19262)" d="M2.317 78.042c-.996-.612-1.245-2.01-.555-3.102.67-1.091 2.03-1.493 3.025-.88.996.612 1.245 2.01.555 3.102-.689 1.11-2.048 1.493-3.025.88z" opacity=".5"/><path fill="url(#paint9_radial_7107_19262)" d="M94.109 15.112a7.556 7.556 0 100-15.112 7.556 7.556 0 000 15.112z"/><path fill="url(#paint10_radial_7107_19262)" d="M89.74 7.187c-1.37-.842-1.712-2.764-.764-4.265.921-1.5 2.79-2.053 4.16-1.21 1.368.842 1.71 2.764.763 4.264-.948 1.527-2.817 2.054-4.16 1.211z" opacity=".5"/><defs><filter id="filter0_f_7107_19262" width="133.545" height="2.727" x="1.214" y="119.876" color-interpolation-filters="sRGB" filterUnits="userSpaceOnUse"><feFlood flood-opacity="0" result="BackgroundImageFix"/><feBlend in="SourceGraphic" in2="BackgroundImageFix" result="shape"/><feGaussianBlur result="effect1_foregroundBlur_7107_19262" stdDeviation=".507"/></filter><filter id="filter1_iii_7107_19262" width="105.714" height="96.165" x="18.751" y="18.943" color-interpolation-filters="sRGB" filterUnits="userSpaceOnUse"><feFlood flood-opacity="0" result="BackgroundImageFix"/><feBlend in="SourceGraphic" in2="BackgroundImageFix" result="shape"/><feColorMatrix in="SourceAlpha" result="hardAlpha" values="0 0 0 0 0 0 0 0 0 0 0 0 0 0 0 0 0 0 127 0"/><feOffset dy="-.29"/><feGaussianBlur stdDeviation=".29"/><feComposite in2="hardAlpha" k2="-1" k3="1" operator="arithmetic"/><feColorMatrix values="0 0 0 0 0.089132 0 0 0 0 0.328429 0 0 0 0 0.629167 0 0 0 1 0"/><feBlend in2="shape" result="effect1_innerShadow_7107_19262"/><feColorMatrix in="SourceAlpha" result="hardAlpha" values="0 0 0 0 0 0 0 0 0 0 0 0 0 0 0 0 0 0 127 0"/><feOffset dy=".532"/><feGaussianBlur stdDeviation=".266"/><feComposite in2="hardAlpha" k2="-1" k3="1" operator="arithmetic"/><feColorMatrix values="0 0 0 0 0.641667 0 0 0 0 0.8495 0 0 0 0 1 0 0 0 1 0"/><feBlend in2="effect1_innerShadow_7107_19262" result="effect2_innerShadow_7107_19262"/><feColorMatrix in="SourceAlpha" result="hardAlpha" values="0 0 0 0 0 0 0 0 0 0 0 0 0 0 0 0 0 0 127 0"/><feOffset dx="-.484"/><feGaussianBlur stdDeviation=".242"/><feComposite in2="hardAlpha" k2="-1" k3="1" operator="arithmetic"/><feColorMatrix values="0 0 0 0 0 0 0 0 0 0 0 0 0 0 0 0 0 0 0.25 0"/><feBlend in2="effect2_innerShadow_7107_19262" result="effect3_innerShadow_7107_19262"/></filter><filter id="filter2_dii_7107_19262" width="98.55" height="73.821" x="22.852" y="33.72" color-interpolation-filters="sRGB" filterUnits="userSpaceOnUse"><feFlood flood-opacity="0" result="BackgroundImageFix"/><feColorMatrix in="SourceAlpha" result="hardAlpha" values="0 0 0 0 0 0 0 0 0 0 0 0 0 0 0 0 0 0 127 0"/><feOffset dy="1.252"/><feGaussianBlur stdDeviation=".939"/><feColorMatrix values="0 0 0 0 0 0 0 0 0 0 0 0 0 0 0 0 0 0 0.25 0"/><feBlend in2="BackgroundImageFix" result="effect1_dropShadow_7107_19262"/><feBlend in="SourceGraphic" in2="effect1_dropShadow_7107_19262" result="shape"/><feColorMatrix in="SourceAlpha" result="hardAlpha" values="0 0 0 0 0 0 0 0 0 0 0 0 0 0 0 0 0 0 127 0"/><feOffset dx=".626" dy=".688"/><feGaussianBlur stdDeviation=".375"/><feComposite in2="hardAlpha" k2="-1" k3="1" operator="arithmetic"/><feColorMatrix values="0 0 0 0 1 0 0 0 0 1 0 0 0 0 1 0 0 0 1 0"/><feBlend in2="shape" result="effect2_innerShadow_7107_19262"/><feColorMatrix in="SourceAlpha" result="hardAlpha" values="0 0 0 0 0 0 0 0 0 0 0 0 0 0 0 0 0 0 127 0"/><feOffset dx="-.626" dy="-.375"/><feGaussianBlur stdDeviation=".063"/><feComposite in2="hardAlpha" k2="-1" k3="1" operator="arithmetic"/><feColorMatrix values="0 0 0 0 0.833333 0 0 0 0 0.833333 0 0 0 0 0.833333 0 0 0 1 0"/><feBlend in2="effect2_innerShadow_7107_19262" result="effect3_innerShadow_7107_19262"/></filter><filter id="filter3_ii_7107_19262" width="65.312" height="5.908" x="31.5" y="43.765" color-interpolation-filters="sRGB" filterUnits="userSpaceOnUse"><feFlood flood-opacity="0" result="BackgroundImageFix"/><feBlend in="SourceGraphic" in2="BackgroundImageFix" result="shape"/><feColorMatrix in="SourceAlpha" result="hardAlpha" values="0 0 0 0 0 0 0 0 0 0 0 0 0 0 0 0 0 0 127 0"/><feOffset dy=".495"/><feGaussianBlur stdDeviation=".149"/><feComposite in2="hardAlpha" k2="-1" k3="1" operator="arithmetic"/><feColorMatrix values="0 0 0 0 1 0 0 0 0 1 0 0 0 0 1 0 0 0 1 0"/><feBlend in2="shape" result="effect1_innerShadow_7107_19262"/><feColorMatrix in="SourceAlpha" result="hardAlpha" values="0 0 0 0 0 0 0 0 0 0 0 0 0 0 0 0 0 0 127 0"/><feOffset dx="-.099" dy="-.396"/><feGaussianBlur stdDeviation=".099"/><feComposite in2="hardAlpha" k2="-1" k3="1" operator="arithmetic"/><feColorMatrix values="0 0 0 0 0.833333 0 0 0 0 0.833333 0 0 0 0 0.833333 0 0 0 1 0"/><feBlend in2="effect1_innerShadow_7107_19262" result="effect2_innerShadow_7107_19262"/></filter><filter id="filter4_ii_7107_19262" width="65.312" height="5.908" x="31.5" y="53.382" color-interpolation-filters="sRGB" filterUnits="userSpaceOnUse"><feFlood flood-opacity="0" result="BackgroundImageFix"/><feBlend in="SourceGraphic" in2="BackgroundImageFix" result="shape"/><feColorMatrix in="SourceAlpha" result="hardAlpha" values="0 0 0 0 0 0 0 0 0 0 0 0 0 0 0 0 0 0 127 0"/><feOffset dy=".495"/><feGaussianBlur stdDeviation=".149"/><feComposite in2="hardAlpha" k2="-1" k3="1" operator="arithmetic"/><feColorMatrix values="0 0 0 0 1 0 0 0 0 1 0 0 0 0 1 0 0 0 1 0"/><feBlend in2="shape" result="effect1_innerShadow_7107_19262"/><feColorMatrix in="SourceAlpha" result="hardAlpha" values="0 0 0 0 0 0 0 0 0 0 0 0 0 0 0 0 0 0 127 0"/><feOffset dx="-.099" dy="-.396"/><feGaussianBlur stdDeviation=".099"/><feComposite in2="hardAlpha" k2="-1" k3="1" operator="arithmetic"/><feColorMatrix values="0 0 0 0 0.833333 0 0 0 0 0.833333 0 0 0 0 0.833333 0 0 0 1 0"/><feBlend in2="effect1_innerShadow_7107_19262" result="effect2_innerShadow_7107_19262"/></filter><filter id="filter5_ii_7107_19262" width="65.312" height="5.908" x="31.5" y="64.372" color-interpolation-filters="sRGB" filterUnits="userSpaceOnUse"><feFlood flood-opacity="0" result="BackgroundImageFix"/><feBlend in="SourceGraphic" in2="BackgroundImageFix" result="shape"/><feColorMatrix in="SourceAlpha" result="hardAlpha" values="0 0 0 0 0 0 0 0 0 0 0 0 0 0 0 0 0 0 127 0"/><feOffset dy=".495"/><feGaussianBlur stdDeviation=".149"/><feComposite in2="hardAlpha" k2="-1" k3="1" operator="arithmetic"/><feColorMatrix values="0 0 0 0 1 0 0 0 0 1 0 0 0 0 1 0 0 0 1 0"/><feBlend in2="shape" result="effect1_innerShadow_7107_19262"/><feColorMatrix in="SourceAlpha" result="hardAlpha" values="0 0 0 0 0 0 0 0 0 0 0 0 0 0 0 0 0 0 127 0"/><feOffset dx="-.099" dy="-.396"/><feGaussianBlur stdDeviation=".099"/><feComposite in2="hardAlpha" k2="-1" k3="1" operator="arithmetic"/><feColorMatrix values="0 0 0 0 0.833333 0 0 0 0 0.833333 0 0 0 0 0.833333 0 0 0 1 0"/><feBlend in2="effect1_innerShadow_7107_19262" result="effect2_innerShadow_7107_19262"/></filter><filter id="filter6_ii_7107_19262" width="43.33" height="5.908" x="31.5" y="75.363" color-interpolation-filters="sRGB" filterUnits="userSpaceOnUse"><feFlood flood-opacity="0" result="BackgroundImageFix"/><feBlend in="SourceGraphic" in2="BackgroundImageFix" result="shape"/><feColorMatrix in="SourceAlpha" result="hardAlpha" values="0 0 0 0 0 0 0 0 0 0 0 0 0 0 0 0 0 0 127 0"/><feOffset dy=".495"/><feGaussianBlur stdDeviation=".149"/><feComposite in2="hardAlpha" k2="-1" k3="1" operator="arithmetic"/><feColorMatrix values="0 0 0 0 1 0 0 0 0 1 0 0 0 0 1 0 0 0 1 0"/><feBlend in2="shape" result="effect1_innerShadow_7107_19262"/><feColorMatrix in="SourceAlpha" result="hardAlpha" values="0 0 0 0 0 0 0 0 0 0 0 0 0 0 0 0 0 0 127 0"/><feOffset dx="-.099" dy="-.396"/><feGaussianBlur stdDeviation=".099"/><feComposite in2="hardAlpha" k2="-1" k3="1" operator="arithmetic"/><feColorMatrix values="0 0 0 0 0.833333 0 0 0 0 0.833333 0 0 0 0 0.833333 0 0 0 1 0"/><feBlend in2="effect1_innerShadow_7107_19262" result="effect2_innerShadow_7107_19262"/></filter><filter id="filter7_ii_7107_19262" width="37.148" height="5.908" x="31.5" y="86.355" color-interpolation-filters="sRGB" filterUnits="userSpaceOnUse"><feFlood flood-opacity="0" result="BackgroundImageFix"/><feBlend in="SourceGraphic" in2="BackgroundImageFix" result="shape"/><feColorMatrix in="SourceAlpha" result="hardAlpha" values="0 0 0 0 0 0 0 0 0 0 0 0 0 0 0 0 0 0 127 0"/><feOffset dy=".495"/><feGaussianBlur stdDeviation=".149"/><feComposite in2="hardAlpha" k2="-1" k3="1" operator="arithmetic"/><feColorMatrix values="0 0 0 0 1 0 0 0 0 1 0 0 0 0 1 0 0 0 1 0"/><feBlend in2="shape" result="effect1_innerShadow_7107_19262"/><feColorMatrix in="SourceAlpha" result="hardAlpha" values="0 0 0 0 0 0 0 0 0 0 0 0 0 0 0 0 0 0 127 0"/><feOffset dx="-.099" dy="-.396"/><feGaussianBlur stdDeviation=".099"/><feComposite in2="hardAlpha" k2="-1" k3="1" operator="arithmetic"/><feColorMatrix values="0 0 0 0 0.833333 0 0 0 0 0.833333 0 0 0 0 0.833333 0 0 0 1 0"/><feBlend in2="effect1_innerShadow_7107_19262" result="effect2_innerShadow_7107_19262"/></filter><filter id="filter8_ii_7107_19262" width="3.246" height="3.246" x="24.265" y="24.795" color-interpolation-filters="sRGB" filterUnits="userSpaceOnUse"><feFlood flood-opacity="0" result="BackgroundImageFix"/><feBlend in="SourceGraphic" in2="BackgroundImageFix" result="shape"/><feColorMatrix in="SourceAlpha" result="hardAlpha" values="0 0 0 0 0 0 0 0 0 0 0 0 0 0 0 0 0 0 127 0"/><feOffset dx=".097" dy=".097"/><feGaussianBlur stdDeviation=".024"/><feComposite in2="hardAlpha" k2="-1" k3="1" operator="arithmetic"/><feColorMatrix values="0 0 0 0 1 0 0 0 0 1 0 0 0 0 1 0 0 0 1 0"/><feBlend in2="shape" result="effect1_innerShadow_7107_19262"/><feColorMatrix in="SourceAlpha" result="hardAlpha" values="0 0 0 0 0 0 0 0 0 0 0 0 0 0 0 0 0 0 127 0"/><feOffset dx="-.097" dy="-.097"/><feGaussianBlur stdDeviation=".048"/><feComposite in2="hardAlpha" k2="-1" k3="1" operator="arithmetic"/><feColorMatrix values="0 0 0 0 0.658333 0 0 0 0 0.658333 0 0 0 0 0.658333 0 0 0 1 0"/><feBlend in2="effect1_innerShadow_7107_19262" result="effect2_innerShadow_7107_19262"/></filter><filter id="filter9_ii_7107_19262" width="3.246" height="3.246" x="34.797" y="24.795" color-interpolation-filters="sRGB" filterUnits="userSpaceOnUse"><feFlood flood-opacity="0" result="BackgroundImageFix"/><feBlend in="SourceGraphic" in2="BackgroundImageFix" result="shape"/><feColorMatrix in="SourceAlpha" result="hardAlpha" values="0 0 0 0 0 0 0 0 0 0 0 0 0 0 0 0 0 0 127 0"/><feOffset dx=".097" dy=".097"/><feGaussianBlur stdDeviation=".024"/><feComposite in2="hardAlpha" k2="-1" k3="1" operator="arithmetic"/><feColorMatrix values="0 0 0 0 1 0 0 0 0 1 0 0 0 0 1 0 0 0 1 0"/><feBlend in2="shape" result="effect1_innerShadow_7107_19262"/><feColorMatrix in="SourceAlpha" result="hardAlpha" values="0 0 0 0 0 0 0 0 0 0 0 0 0 0 0 0 0 0 127 0"/><feOffset dx="-.097" dy="-.097"/><feGaussianBlur stdDeviation=".048"/><feComposite in2="hardAlpha" k2="-1" k3="1" operator="arithmetic"/><feColorMatrix values="0 0 0 0 0.658333 0 0 0 0 0.658333 0 0 0 0 0.658333 0 0 0 1 0"/><feBlend in2="effect1_innerShadow_7107_19262" result="effect2_innerShadow_7107_19262"/></filter><filter id="filter10_ii_7107_19262" width="3.246" height="3.246" x="29.531" y="24.795" color-interpolation-filters="sRGB" filterUnits="userSpaceOnUse"><feFlood flood-opacity="0" result="BackgroundImageFix"/><feBlend in="SourceGraphic" in2="BackgroundImageFix" result="shape"/><feColorMatrix in="SourceAlpha" result="hardAlpha" values="0 0 0 0 0 0 0 0 0 0 0 0 0 0 0 0 0 0 127 0"/><feOffset dx=".097" dy=".097"/><feGaussianBlur stdDeviation=".024"/><feComposite in2="hardAlpha" k2="-1" k3="1" operator="arithmetic"/><feColorMatrix values="0 0 0 0 1 0 0 0 0 1 0 0 0 0 1 0 0 0 1 0"/><feBlend in2="shape" result="effect1_innerShadow_7107_19262"/><feColorMatrix in="SourceAlpha" result="hardAlpha" values="0 0 0 0 0 0 0 0 0 0 0 0 0 0 0 0 0 0 127 0"/><feOffset dx="-.097" dy="-.097"/><feGaussianBlur stdDeviation=".048"/><feComposite in2="hardAlpha" k2="-1" k3="1" operator="arithmetic"/><feColorMatrix values="0 0 0 0 0.658333 0 0 0 0 0.658333 0 0 0 0 0.658333 0 0 0 1 0"/><feBlend in2="effect1_innerShadow_7107_19262" result="effect2_innerShadow_7107_19262"/></filter><filter id="filter11_ii_7107_19262" width="25.296" height="21.321" x="53.248" y="54.954" color-interpolation-filters="sRGB" filterUnits="userSpaceOnUse"><feFlood flood-opacity="0" result="BackgroundImageFix"/><feBlend in="SourceGraphic" in2="BackgroundImageFix" result="shape"/><feColorMatrix in="SourceAlpha" result="hardAlpha" values="0 0 0 0 0 0 0 0 0 0 0 0 0 0 0 0 0 0 127 0"/><feOffset dx="-3.975"/><feGaussianBlur stdDeviation="2.153"/><feComposite in2="hardAlpha" k2="-1" k3="1" operator="arithmetic"/><feColorMatrix values="0 0 0 0 0.392157 0 0 0 0 0.478431 0 0 0 0 0.556863 0 0 0 1 0"/><feBlend in2="shape" result="effect1_innerShadow_7107_19262"/><feColorMatrix in="SourceAlpha" result="hardAlpha" values="0 0 0 0 0 0 0 0 0 0 0 0 0 0 0 0 0 0 127 0"/><feOffset dx="1.23" dy="1.23"/><feGaussianBlur stdDeviation="1.23"/><feComposite in2="hardAlpha" k2="-1" k3="1" operator="arithmetic"/><feColorMatrix values="0 0 0 0 0.754687 0 0 0 0 0.816784 0 0 0 0 0.875 0 0 0 1 0"/><feBlend in2="effect1_innerShadow_7107_19262" result="effect2_innerShadow_7107_19262"/></filter><filter id="filter12_ii_7107_19262" width="54.347" height="25.243" x="38.795" y="80.4" color-interpolation-filters="sRGB" filterUnits="userSpaceOnUse"><feFlood flood-opacity="0" result="BackgroundImageFix"/><feBlend in="SourceGraphic" in2="BackgroundImageFix" result="shape"/><feColorMatrix in="SourceAlpha" result="hardAlpha" values="0 0 0 0 0 0 0 0 0 0 0 0 0 0 0 0 0 0 127 0"/><feOffset dx="-3.975"/><feGaussianBlur stdDeviation="2.153"/><feComposite in2="hardAlpha" k2="-1" k3="1" operator="arithmetic"/><feColorMatrix values="0 0 0 0 0.392157 0 0 0 0 0.478431 0 0 0 0 0.556863 0 0 0 1 0"/><feBlend in2="shape" result="effect1_innerShadow_7107_19262"/><feColorMatrix in="SourceAlpha" result="hardAlpha" values="0 0 0 0 0 0 0 0 0 0 0 0 0 0 0 0 0 0 127 0"/><feOffset dx="1.23" dy="1.23"/><feGaussianBlur stdDeviation="1.23"/><feComposite in2="hardAlpha" k2="-1" k3="1" operator="arithmetic"/><feColorMatrix values="0 0 0 0 0.754687 0 0 0 0 0.816784 0 0 0 0 0.875 0 0 0 1 0"/><feBlend in2="effect1_innerShadow_7107_19262" result="effect2_innerShadow_7107_19262"/></filter><filter id="filter13_d_7107_19262" width="33.944" height="19.631" x="80.072" y="59.978" color-interpolation-filters="sRGB" filterUnits="userSpaceOnUse"><feFlood flood-opacity="0" result="BackgroundImageFix"/><feColorMatrix in="SourceAlpha" result="hardAlpha" values="0 0 0 0 0 0 0 0 0 0 0 0 0 0 0 0 0 0 127 0"/><feOffset dy="1.887"/><feGaussianBlur stdDeviation="1.18"/><feColorMatrix values="0 0 0 0 0 0 0 0 0 0 0 0 0 0 0 0 0 0 0.2 0"/><feBlend in2="BackgroundImageFix" result="effect1_dropShadow_7107_19262"/><feBlend in="SourceGraphic" in2="effect1_dropShadow_7107_19262" result="shape"/></filter><filter id="filter14_i_7107_19262" width="29.32" height="15.196" x="82.337" y="60.167" color-interpolation-filters="sRGB" filterUnits="userSpaceOnUse"><feFlood flood-opacity="0" result="BackgroundImageFix"/><feBlend in="SourceGraphic" in2="BackgroundImageFix" result="shape"/><feColorMatrix in="SourceAlpha" result="hardAlpha" values="0 0 0 0 0 0 0 0 0 0 0 0 0 0 0 0 0 0 127 0"/><feOffset dx="-.094" dy="-.283"/><feGaussianBlur stdDeviation=".142"/><feComposite in2="hardAlpha" k2="-1" k3="1" operator="arithmetic"/><feColorMatrix values="0 0 0 0 0.278431 0 0 0 0 0.345098 0 0 0 0 0.403922 0 0 0 1 0"/><feBlend in2="shape" result="effect1_innerShadow_7107_19262"/></filter><filter id="filter15_d_7107_19262" width="13.442" height="2.335" x="90.682" y="65.496" color-interpolation-filters="sRGB" filterUnits="userSpaceOnUse"><feFlood flood-opacity="0" result="BackgroundImageFix"/><feColorMatrix in="SourceAlpha" result="hardAlpha" values="0 0 0 0 0 0 0 0 0 0 0 0 0 0 0 0 0 0 127 0"/><feOffset dy=".472"/><feGaussianBlur stdDeviation=".236"/><feColorMatrix values="0 0 0 0 0 0 0 0 0 0 0 0 0 0 0 0 0 0 0.25 0"/><feBlend in2="BackgroundImageFix" result="effect1_dropShadow_7107_19262"/><feBlend in="SourceGraphic" in2="effect1_dropShadow_7107_19262" result="shape"/></filter><filter id="filter16_ii_7107_19262" width="12.545" height="1.628" x="91.107" y="65.402" color-interpolation-filters="sRGB" filterUnits="userSpaceOnUse"><feFlood flood-opacity="0" result="BackgroundImageFix"/><feBlend in="SourceGraphic" in2="BackgroundImageFix" result="shape"/><feColorMatrix in="SourceAlpha" result="hardAlpha" values="0 0 0 0 0 0 0 0 0 0 0 0 0 0 0 0 0 0 127 0"/><feOffset dy=".236"/><feGaussianBlur stdDeviation=".071"/><feComposite in2="hardAlpha" k2="-1" k3="1" operator="arithmetic"/><feColorMatrix values="0 0 0 0 1 0 0 0 0 1 0 0 0 0 1 0 0 0 1 0"/><feBlend in2="shape" result="effect1_innerShadow_7107_19262"/><feColorMatrix in="SourceAlpha" result="hardAlpha" values="0 0 0 0 0 0 0 0 0 0 0 0 0 0 0 0 0 0 127 0"/><feOffset dx="-.047" dy="-.189"/><feGaussianBlur stdDeviation=".047"/><feComposite in2="hardAlpha" k2="-1" k3="1" operator="arithmetic"/><feColorMatrix values="0 0 0 0 0.833333 0 0 0 0 0.833333 0 0 0 0 0.833333 0 0 0 1 0"/><feBlend in2="effect1_innerShadow_7107_19262" result="effect2_innerShadow_7107_19262"/></filter><filter id="filter17_d_7107_19262" width="9.941" height="2.335" x="92.588" y="69.256" color-interpolation-filters="sRGB" filterUnits="userSpaceOnUse"><feFlood flood-opacity="0" result="BackgroundImageFix"/><feColorMatrix in="SourceAlpha" result="hardAlpha" values="0 0 0 0 0 0 0 0 0 0 0 0 0 0 0 0 0 0 127 0"/><feOffset dy=".472"/><feGaussianBlur stdDeviation=".236"/><feColorMatrix values="0 0 0 0 0 0 0 0 0 0 0 0 0 0 0 0 0 0 0.25 0"/><feBlend in2="BackgroundImageFix" result="effect1_dropShadow_7107_19262"/><feBlend in="SourceGraphic" in2="effect1_dropShadow_7107_19262" result="shape"/></filter><filter id="filter18_ii_7107_19262" width="9.044" height="1.628" x="93.012" y="69.162" color-interpolation-filters="sRGB" filterUnits="userSpaceOnUse"><feFlood flood-opacity="0" result="BackgroundImageFix"/><feBlend in="SourceGraphic" in2="BackgroundImageFix" result="shape"/><feColorMatrix in="SourceAlpha" result="hardAlpha" values="0 0 0 0 0 0 0 0 0 0 0 0 0 0 0 0 0 0 127 0"/><feOffset dy=".236"/><feGaussianBlur stdDeviation=".071"/><feComposite in2="hardAlpha" k2="-1" k3="1" operator="arithmetic"/><feColorMatrix values="0 0 0 0 1 0 0 0 0 1 0 0 0 0 1 0 0 0 1 0"/><feBlend in2="shape" result="effect1_innerShadow_7107_19262"/><feColorMatrix in="SourceAlpha" result="hardAlpha" values="0 0 0 0 0 0 0 0 0 0 0 0 0 0 0 0 0 0 127 0"/><feOffset dx="-.047" dy="-.189"/><feGaussianBlur stdDeviation=".047"/><feComposite in2="hardAlpha" k2="-1" k3="1" operator="arithmetic"/><feColorMatrix values="0 0 0 0 0.833333 0 0 0 0 0.833333 0 0 0 0 0.833333 0 0 0 1 0"/><feBlend in2="effect1_innerShadow_7107_19262" result="effect2_innerShadow_7107_19262"/></filter><filter id="filter19_i_7107_19262" width="17.158" height="22.89" x="138.201" y="79.93" color-interpolation-filters="sRGB" filterUnits="userSpaceOnUse"><feFlood flood-opacity="0" result="BackgroundImageFix"/><feBlend in="SourceGraphic" in2="BackgroundImageFix" result="shape"/><feColorMatrix in="SourceAlpha" result="hardAlpha" values="0 0 0 0 0 0 0 0 0 0 0 0 0 0 0 0 0 0 127 0"/><feOffset dx=".705" dy="-.27"/><feGaussianBlur stdDeviation=".919"/><feComposite in2="hardAlpha" k2="-1" k3="1" operator="arithmetic"/><feColorMatrix values="0 0 0 0 0.113056 0 0 0 0 0.616667 0 0 0 0 0.58645 0 0 0 1 0"/><feBlend in2="shape" result="effect1_innerShadow_7107_19262"/></filter><filter id="filter20_i_7107_19262" width="16.403" height="20.441" x="127.356" y="84.464" color-interpolation-filters="sRGB" filterUnits="userSpaceOnUse"><feFlood flood-opacity="0" result="BackgroundImageFix"/><feBlend in="SourceGraphic" in2="BackgroundImageFix" result="shape"/><feColorMatrix in="SourceAlpha" result="hardAlpha" values="0 0 0 0 0 0 0 0 0 0 0 0 0 0 0 0 0 0 127 0"/><feOffset dx=".705" dy="-.27"/><feGaussianBlur stdDeviation=".919"/><feComposite in2="hardAlpha" k2="-1" k3="1" operator="arithmetic"/><feColorMatrix values="0 0 0 0 0.0996528 0 0 0 0 0.683333 0 0 0 0 0.555806 0 0 0 1 0"/><feBlend in2="shape" result="effect1_innerShadow_7107_19262"/></filter><filter id="filter21_i_7107_19262" width="19.749" height="5.01" x="130.342" y="99.89" color-interpolation-filters="sRGB" filterUnits="userSpaceOnUse"><feFlood flood-opacity="0" result="BackgroundImageFix"/><feBlend in="SourceGraphic" in2="BackgroundImageFix" result="shape"/><feColorMatrix in="SourceAlpha" result="hardAlpha" values="0 0 0 0 0 0 0 0 0 0 0 0 0 0 0 0 0 0 127 0"/><feOffset dx=".294" dy="-.221"/><feGaussianBlur stdDeviation=".257"/><feComposite in2="hardAlpha" k2="-1" k3="1" operator="arithmetic"/><feColorMatrix values="0 0 0 0 0.833333 0 0 0 0 0.604343 0 0 0 0 0.0555555 0 0 0 1 0"/><feBlend in2="shape" result="effect1_innerShadow_7107_19262"/></filter><linearGradient id="paint0_linear_7107_19262" x1="73.191" x2="73.191" y1="2.747" y2="140" gradientUnits="userSpaceOnUse"><stop stop-color="#B5EFFF"/><stop offset="1" stop-color="#E7F8FE"/></linearGradient><linearGradient id="paint1_linear_7107_19262" x1="72.323" x2="72.323" y1="2.747" y2="139.198" gradientUnits="userSpaceOnUse"><stop stop-color="#B5EFFF"/><stop offset="1" stop-color="#EDFBFF"/></linearGradient><linearGradient id="paint2_linear_7107_19262" x1="32.622" x2="51.753" y1="34.346" y2="109.592" gradientUnits="userSpaceOnUse"><stop stop-color="#F9F9F9"/><stop offset="1" stop-color="#F8F8F8"/></linearGradient><linearGradient id="paint3_linear_7107_19262" x1="157.039" x2="138.715" y1="80.553" y2="97.008" gradientUnits="userSpaceOnUse"><stop stop-color="#BAFFF1" stop-opacity=".26"/><stop offset=".682" stop-color="#4DC7AE"/><stop offset=".969" stop-color="#06896F"/></linearGradient><linearGradient id="paint4_linear_7107_19262" x1="148.886" x2="137.743" y1="86.938" y2="105.705" gradientUnits="userSpaceOnUse"><stop stop-color="#B7FDEF"/><stop offset=".682" stop-color="#09B794"/><stop offset=".969" stop-color="#7EE0CC"/></linearGradient><linearGradient id="paint5_linear_7107_19262" x1="149.142" x2="132.292" y1="113.192" y2="113.192" gradientUnits="userSpaceOnUse"><stop offset=".099" stop-color="#FFEEC5"/><stop offset=".607" stop-color="#FACD63"/><stop offset=".839" stop-color="#EAAF23"/><stop offset=".984" stop-color="#EDB52F"/></linearGradient><linearGradient id="paint6_linear_7107_19262" x1="149.796" x2="131.73" y1="103.263" y2="103.263" gradientUnits="userSpaceOnUse"><stop offset=".099" stop-color="#FFEEC5"/><stop offset=".607" stop-color="#FCBD27"/><stop offset=".984" stop-color="#EFB222"/></linearGradient><radialGradient id="paint7_radial_7107_19262" cx="0" cy="0" r="1" gradientTransform="rotate(-15.177 287.011 27.231) scale(10.4797)" gradientUnits="userSpaceOnUse"><stop stop-color="#E6C6FF"/><stop offset=".188" stop-color="#C07DF5"/><stop offset=".318" stop-color="#BE6FFC"/><stop offset=".49" stop-color="#B56AF0"/><stop offset=".651" stop-color="#A745F4"/><stop offset=".948" stop-color="#9F3DED"/></radialGradient><radialGradient id="paint8_radial_7107_19262" cx="0" cy="0" r="1" gradientTransform="rotate(121.889 -19.362 39.016) scale(2.29512 2.09017)" gradientUnits="userSpaceOnUse"><stop stop-color="#fff"/><stop offset=".694" stop-color="#fff" stop-opacity="0"/></radialGradient><radialGradient id="paint9_radial_7107_19262" cx="0" cy="0" r="1" gradientTransform="rotate(-15.177 62.165 -337.451) scale(14.4096)" gradientUnits="userSpaceOnUse"><stop stop-color="#FFF1CF"/><stop offset=".188" stop-color="#FFE4A2"/><stop offset=".318" stop-color="#FFD364"/><stop offset=".49" stop-color="#FFD364"/><stop offset=".651" stop-color="#FFC73A"/><stop offset=".948" stop-color="#D09500"/></radialGradient><radialGradient id="paint10_radial_7107_19262" cx="0" cy="0" r="1" gradientTransform="rotate(121.889 44.467 27.63) scale(3.15579 2.87399)" gradientUnits="userSpaceOnUse"><stop stop-color="#fff"/><stop offset=".694" stop-color="#fff" stop-opacity="0"/></radialGradient></defs></svg>