<svg xmlns="http://www.w3.org/2000/svg" data-name="Layer 1" viewBox="0 0 210 210"><defs><mask id="fs-d508ijmkaa" width="26.7" height="26.7" x="12.17" y="122.42" maskUnits="userSpaceOnUse"><path fill="#fff" fill-rule="evenodd" d="M12.17 122.42h26.7v26.69h-26.7v-26.69z"/></mask><mask id="fs-7z7kcf1u5b" width="52.69" height="1.56" x="89.32" y="204.98" maskUnits="userSpaceOnUse"><path fill="#fff" fill-rule="evenodd" d="M89.32 204.98h52.69v1.55H89.32v-1.55z"/></mask></defs><path fill="#f1f3f8" fill-rule="evenodd" d="M109.44 179.22l56.33-56.33a9 9 0 0112.72 12.72l-56.33 56.33a9 9 0 01-12.72-12.72"/><g mask="url(#fs-d508ijmkaa)"><path fill="#f1f3f8" fill-rule="evenodd" d="M14.8 133.76l8.71-8.71a9 9 0 1112.72 12.72l-8.71 8.71a9 9 0 11-12.72-12.72"/></g><path fill="#f1f3f8" fill-rule="evenodd" d="M113.45 150.29l25.74-25.74a9 9 0 0012.72 12.71L126.16 163a9 9 0 10-12.71-12.72M102.44 111.07L126.56 87a9 9 0 0012.72 12.72l-24.12 24.12a9 9 0 00-12.72-12.72"/><path fill="#f1f3f8" fill-rule="evenodd" d="M93.9 144.53l70.37-70.37A9 9 0 01177 86.87l-70.37 70.38a9 9 0 01-12.73-12.72M24.75 163.61l95.8-95.8a9 9 0 1112.71 12.72l-95.79 95.79a9 9 0 01-12.72-12.71M41.69 100.54L77.23 65A9 9 0 0190 77.71l-35.6 35.55a9 9 0 01-12.71-12.72M100.49 41.74l.21-.21a9 9 0 0112.72 12.72l-.22.21a9 9 0 01-12.71 0 9 9 0 010-12.72M73.22 164.61l.21-.21a9 9 0 1112.72 12.71l-.21.22a9 9 0 01-12.72 0 9 9 0 010-12.72"/><path fill="#717790" fill-rule="evenodd" d="M194.44 196.47a4.89 4.89 0 011.84-.26 9.66 9.66 0 011.85.18.56.56 0 010 1.09 9.66 9.66 0 01-1.85.18 4.89 4.89 0 01-1.84-.26.49.49 0 010-.93M25.91 196.49c6.91-.2 13.82-.23 20.73-.23H171c6.91 0 13.81 0 20.72.2a.58.58 0 010 1.15c-6.91.18-13.81.19-20.72.2H46.64c-6.91 0-13.82 0-20.73-.23a.44.44 0 01-.43-.46.45.45 0 01.43-.43M21.83 196.28a1.22 1.22 0 01.27 0h.13a.42.42 0 01.14.06.69.69 0 01.18.95.77.77 0 01-.18.18.42.42 0 01-.14.06h-.13a1.22 1.22 0 01-.27 0 .67.67 0 01-.51-.8.65.65 0 01.51-.51M15.19 196.46a6.25 6.25 0 011.34-.18 3.87 3.87 0 011.35.12.56.56 0 01.37.7.59.59 0 01-.37.37 3.87 3.87 0 01-1.35.12 6.25 6.25 0 01-1.34-.18.48.48 0 01-.35-.6.46.46 0 01.35-.35"/><g mask="url(#fs-7z7kcf1u5b)"><path fill="#717790" fill-rule="evenodd" d="M89.72 205.31c2.16-.2 4.31-.23 6.47-.23h6.47l12.94-.08H135c2.16 0 4.32 0 6.47.2a.58.58 0 01.54.62.61.61 0 01-.54.54c-2.15.17-4.31.18-6.47.19h-19.4l-12.94-.07h-6.47c-2.16 0-4.31 0-6.47-.23a.45.45 0 010-.89"/></g><path fill="#717790" fill-rule="evenodd" d="M68.43 205.28c2.21-.12 4.42-.16 6.63-.18s4.42 0 6.63.12a.54.54 0 010 1.07c-2.21.14-4.42.15-6.63.12s-4.42-.06-6.63-.18a.47.47 0 01-.46-.5.49.49 0 01.46-.45"/><path fill="#c8d6ec" d="M188.28 160a2.72 2.72 0 112.72-2.72 2.72 2.72 0 01-2.72 2.72zm0-3.43a.72.72 0 10.72.71.72.72 0 00-.72-.73zM5.36 78.94a1 1 0 01-1-1v-8.5a1 1 0 012 0v8.5a1 1 0 01-1 1z"/><path fill="#c8d6ec" d="M9.61 74.69h-8.5a1 1 0 110-2h8.5a1 1 0 010 2zM60.68 69.62a2.72 2.72 0 112.72-2.72 2.72 2.72 0 01-2.72 2.72zm0-3.43a.72.72 0 10.72.71.72.72 0 00-.72-.71zM188.82 106.82a2.72 2.72 0 112.72-2.72 2.72 2.72 0 01-2.72 2.72zm0-3.43a.72.72 0 10.72.71.71.71 0 00-.72-.71zM93.49 61.49a1.09 1.09 0 01-.5-.13 1 1 0 01-.47-.61l-.83-3.06a1 1 0 01.7-1.23l3.06-.84a1 1 0 011.23.7l.84 3.07a1 1 0 01-.7 1.23l-3.07.83a.75.75 0 01-.26.04zm.39-3.37l.31 1.14 1.13-.26-.32-1.18z"/><g><path fill="#c8d6ec" d="M38.39 122.65a3 3 0 113-3 3 3 0 01-3 3zm0-4a1 1 0 101 1 1 1 0 00-1-1z"/></g><g><path fill="#ced6de" d="M114.37 149.08h-.08c-.63-.11-1.33-.24-2.09-.4a.5.5 0 01-.39-.59.52.52 0 01.59-.39c.75.16 1.44.29 2.06.39a.5.5 0 01-.09 1zm-4.13-.84h-.11c-.66-.16-1.35-.32-2.07-.51a.5.5 0 11.25-1c.71.19 1.39.35 2 .5a.5.5 0 01.38.6.51.51 0 01-.45.41zm-4.08-1.06a.32.32 0 01-.14 0c-.67-.19-1.35-.39-2-.61a.5.5 0 01-.33-.63.5.5 0 01.63-.32l2 .6a.5.5 0 01-.13 1zm-4-1.27a.51.51 0 01-.17 0c-.66-.23-1.32-.48-2-.74a.5.5 0 01-.29-.64.5.5 0 01.65-.29c.66.25 1.31.5 2 .72a.51.51 0 01.31.64.5.5 0 01-.52.31zm-3.93-1.53a.45.45 0 01-.2 0c-.65-.27-1.29-.56-1.94-.87a.5.5 0 11.43-.9c.63.3 1.27.58 1.9.85a.51.51 0 01.27.66.5.5 0 01-.48.26zm-3.81-1.8a.46.46 0 01-.23-.06c-.63-.32-1.25-.67-1.87-1a.51.51 0 01-.18-.69.51.51 0 01.69-.18c.6.35 1.21.69 1.82 1a.5.5 0 01-.23.94zm-3.64-2.11a.53.53 0 01-.27-.08c-.6-.39-1.19-.79-1.76-1.21a.5.5 0 01.59-.81c.56.41 1.13.8 1.71 1.18a.5.5 0 01.15.69.51.51 0 01-.44.23zM87.36 138a.48.48 0 01-.32-.11c-.56-.46-1.1-.94-1.61-1.42a.49.49 0 010-.7.5.5 0 01.71 0c.49.46 1 .92 1.56 1.37a.5.5 0 01-.32.88zm-3.06-2.89a.49.49 0 01-.37-.16c-.49-.53-1-1.08-1.38-1.64a.5.5 0 11.78-.61c.42.53.87 1.06 1.34 1.57a.51.51 0 010 .71.5.5 0 01-.37.11zm-2.58-3.31a.51.51 0 01-.42-.23c-.39-.6-.76-1.22-1.09-1.85a.5.5 0 01.21-.67.5.5 0 01.68.2 20.1 20.1 0 001 1.78.5.5 0 01-.15.69.53.53 0 01-.23.06zm-2-3.71a.51.51 0 01-.46-.31 21.11 21.11 0 01-.72-2 .51.51 0 01.33-.63.5.5 0 01.62.33 19.53 19.53 0 00.7 1.94.5.5 0 01-.19.58.41.41 0 01-.24.07zm-1.22-4a.51.51 0 01-.49-.4c-.14-.7-.25-1.41-.33-2.12a.5.5 0 111-.11c.08.68.18 1.36.32 2a.51.51 0 01-.39.59zm-.47-4.18a.5.5 0 01-.5-.48v-.66-1.49a.51.51 0 01.53-.47.5.5 0 01.47.53v2.06a.49.49 0 01-.49.51zM122 119a.51.51 0 01-.5-.5.5.5 0 01.5-.5c.71 0 1.41 0 2.09-.05a.5.5 0 110 1c-.7 0-1.4 0-2.12.05zm-2.1 0c-.69 0-1.4 0-2.12-.07a.49.49 0 01-.47-.52.49.49 0 01.52-.47l2.09.06a.5.5 0 010 1zm6.31-.14a.5.5 0 010-1c.7 0 1.4-.1 2.07-.17a.5.5 0 01.11 1c-.69.07-1.4.13-2.12.18zm-10.51 0c-.69 0-1.39-.1-2.11-.17a.49.49 0 01-.45-.54.5.5 0 01.54-.45l2.09.17a.49.49 0 01.46.53.49.49 0 01-.56.4zm-4.2-.38c-.69-.08-1.39-.16-2.1-.26a.49.49 0 01-.43-.56.49.49 0 01.56-.43l2.08.26a.5.5 0 01-.06 1zm18.89 0a.5.5 0 01-.07-1c.71-.09 1.39-.2 2.06-.32a.5.5 0 11.18 1c-.68.12-1.38.24-2.1.34zm-23.06-.55h-.07l-2.09-.34a.5.5 0 11.16-1l2.07.33a.5.5 0 01-.07 1zm27.2-.2a.5.5 0 01-.49-.39.51.51 0 01.38-.6c.69-.15 1.36-.32 2-.5a.5.5 0 01.61.35.51.51 0 01-.35.62c-.67.18-1.35.35-2.06.51zm-31.35-.5h-.09c-.69-.13-1.38-.26-2.08-.41a.49.49 0 01-.39-.58.51.51 0 01.59-.4c.7.14 1.38.28 2.06.4a.5.5 0 01.4.58.49.49 0 01-.52.35zm35.4-.61a.5.5 0 01-.47-.35.49.49 0 01.32-.63c.67-.22 1.32-.45 1.95-.7a.51.51 0 01.65.29.5.5 0 01-.29.64c-.64.25-1.31.49-2 .72a.45.45 0 01-.19-.03zM99 116.34h-.1c-.68-.14-1.37-.3-2.06-.46a.5.5 0 01-.38-.6.5.5 0 01.6-.37l2 .46a.49.49 0 01.38.59.5.5 0 01-.44.38zm-20.72-.65h-.07a.49.49 0 01-.43-.56c.09-.69.2-1.4.34-2.11a.49.49 0 01.59-.39.48.48 0 01.39.58c-.13.69-.24 1.38-.33 2a.5.5 0 01-.47.48zm16.62-.29h-.12l-2-.51a.51.51 0 01-.36-.61.5.5 0 01.61-.36l2 .51a.51.51 0 01.37.61.5.5 0 01-.48.36zm47.55-.37a.5.5 0 01-.21-1c.64-.29 1.26-.6 1.85-.92a.5.5 0 01.68.21.49.49 0 01-.21.67c-.61.33-1.24.65-1.91 1a.46.46 0 01-.18.01zm-51.63-.68h-.13l-2-.56a.5.5 0 11.27-1c.68.2 1.36.38 2 .56a.5.5 0 01-.13 1zm-4-1.15a.36.36 0 01-.14 0l-2-.6a.51.51 0 01-.33-.63.5.5 0 01.62-.33l2 .6a.5.5 0 01.34.62.49.49 0 01-.52.34zm59.38-.16a.5.5 0 01-.27-.92c.59-.37 1.17-.76 1.72-1.16a.5.5 0 11.59.81c-.57.41-1.17.81-1.78 1.19a.42.42 0 01-.29.04zM82.77 112h-.16l-2-.65a.49.49 0 01-.32-.63.5.5 0 01.63-.32l2 .65a.49.49 0 01.32.62.48.48 0 01-.47.33zm-3.67-.42H79a.51.51 0 01-.36-.61 2.68 2.68 0 00.07-.27h-.08l-2-.68a.5.5 0 01.33-.95l2 .68c.08-.27.16-.54.25-.82a.5.5 0 111 .3c-.22.68-.41 1.34-.58 2a.49.49 0 01-.53.32zm70.47-1a.52.52 0 01-.38-.17.51.51 0 01.06-.71c.52-.44 1-.91 1.53-1.39a.49.49 0 01.7 0 .5.5 0 010 .71c-.51.49-1 1-1.59 1.44a.48.48 0 01-.32.11zm-74.78-1.28a.47.47 0 01-.17 0c-.66-.24-1.32-.47-2-.72a.49.49 0 01-.3-.64.5.5 0 01.64-.3l2 .72a.51.51 0 01.31.64.52.52 0 01-.48.29zm-4-1.45a.47.47 0 01-.17 0l-2-.74a.51.51 0 01-.28-.65.49.49 0 01.64-.29l2 .74a.5.5 0 01.29.65.5.5 0 01-.44.28zm81.74-.21a.52.52 0 01-.33-.12.51.51 0 01-.05-.71 20.31 20.31 0 001.3-1.61.51.51 0 01.7-.1.5.5 0 01.1.7c-.42.57-.87 1.13-1.34 1.67a.52.52 0 01-.34.16zm-72.19-.09a.48.48 0 01-.2 0 .5.5 0 01-.26-.66c.16-.38.45-1 .89-2a.5.5 0 01.9.44c-.43.87-.72 1.53-.87 1.9a.51.51 0 01-.42.31zm-13.48-1.2a.57.57 0 01-.18 0l-2-.78a.5.5 0 01-.28-.65.51.51 0 01.65-.28c.65.27 1.3.52 2 .78a.5.5 0 01.29.64.51.51 0 01-.44.28zM63 104.78a.63.63 0 01-.19 0l-1.95-.8a.5.5 0 01.38-.93l2 .8a.49.49 0 01.27.65.5.5 0 01-.51.28zm92.09-.53a.54.54 0 01-.27-.07.5.5 0 01-.15-.69c.36-.58.71-1.19 1-1.79a.5.5 0 01.67-.22.51.51 0 01.22.68c-.33.63-.69 1.25-1.07 1.86a.48.48 0 01-.41.23zm-72.86-.51a.46.46 0 01-.23-.06.5.5 0 01-.21-.68c.31-.57.66-1.19 1-1.85a.5.5 0 01.86.5c-.38.65-.72 1.26-1 1.83a.51.51 0 01-.43.26zm-23.12-.57a.48.48 0 01-.2 0l-1.91-.86a.5.5 0 01.4-.92l1.93.82a.5.5 0 01-.19 1zm-3.83-1.74a.49.49 0 01-.3-.1c-.34-.26-.92-.71-1.67-1.34a.5.5 0 01.64-.77c.74.62 1.31 1.06 1.64 1.31a.5.5 0 01.09.7.51.51 0 01-.41.2zm101.72-.91a.72.72 0 01-.19 0 .52.52 0 01-.27-.66c.27-.64.51-1.29.71-1.93a.5.5 0 011 .3c-.22.67-.47 1.35-.74 2a.51.51 0 01-.51.29zm-72.65-.42a.47.47 0 01-.27-.08.5.5 0 01-.15-.69q.54-.85 1.17-1.77a.5.5 0 01.7-.13.51.51 0 01.13.69c-.41.6-.8 1.18-1.16 1.75a.48.48 0 01-.41.23zM52 98.73a.5.5 0 01-.33-.13c-.49-.43-1-.91-1.57-1.43a.51.51 0 010-.71.5.5 0 01.71 0c.55.51 1.06 1 1.55 1.41a.5.5 0 01-.34.88zm34.73-2.11a.53.53 0 01-.3-.09.51.51 0 01-.11-.7c.41-.56.84-1.12 1.29-1.69a.5.5 0 01.71-.08.5.5 0 01.08.7c-.45.56-.87 1.11-1.27 1.66a.51.51 0 01-.38.2zm71.52-.13h-.1a.5.5 0 01-.39-.59c.07-.36.1-.57.1-.58v-.43-1a.5.5 0 01.47-.53.48.48 0 01.53.47v1.5c0 .05 0 .28-.12.71a.49.49 0 01-.47.45zM49 95.84a.5.5 0 01-.35-.15c-.48-.48-1-1-1.48-1.52a.5.5 0 11.72-.69q.75.8 1.47 1.5a.51.51 0 010 .71.51.51 0 01-.36.15zm40.41-2.52a.5.5 0 01-.41-.82c.45-.53.92-1.07 1.41-1.6a.49.49 0 01.7 0 .5.5 0 010 .71c-.48.52-.94 1-1.39 1.56a.49.49 0 01-.36.15zm-43.31-.55a.5.5 0 01-.37-.16c-.46-.52-.93-1-1.39-1.61a.49.49 0 01.06-.7.51.51 0 01.71.06c.45.55.91 1.07 1.37 1.58a.51.51 0 010 .71.54.54 0 01-.43.12zm112.07-.47a.49.49 0 01-.49-.41 16.3 16.3 0 00-.47-2 .51.51 0 01.33-.63.5.5 0 01.62.33 19.06 19.06 0 01.51 2.11.5.5 0 01-.41.57zm-65.96-2.09a.5.5 0 01-.36-.85c.49-.5 1-1 1.52-1.48a.5.5 0 01.71 0 .48.48 0 010 .7c-.51.49-1 1-1.49 1.46a.49.49 0 01-.38.17zm-48.86-.67a.5.5 0 01-.4-.19c-.43-.55-.86-1.11-1.28-1.69a.5.5 0 01.81-.59c.41.57.83 1.12 1.26 1.67a.5.5 0 01-.09.7.49.49 0 01-.3.1zm113.54-1.25a.49.49 0 01-.45-.29 17.49 17.49 0 00-1-1.81.5.5 0 01.86-.52 16.77 16.77 0 011 1.92.5.5 0 01-.25.66.52.52 0 01-.16.04zm-61.62-1a.46.46 0 01-.37-.18.49.49 0 010-.7c.53-.46 1.08-.92 1.63-1.37a.52.52 0 01.71.08.49.49 0 01-.08.7c-.55.44-1.08.89-1.6 1.34a.46.46 0 01-.29.17zm-54.41-1.15a.49.49 0 01-.41-.22c-.39-.58-.78-1.18-1.16-1.79a.49.49 0 01.17-.68.48.48 0 01.68.16c.37.59.75 1.18 1.14 1.75a.5.5 0 01-.14.69.47.47 0 01-.28.09zm113.86-1.44a.5.5 0 01-.4-.19A19.29 19.29 0 00153 83a.5.5 0 010-.71.51.51 0 01.71 0 19.59 19.59 0 011.41 1.63.5.5 0 01-.09.7.49.49 0 01-.31.08zm-56.16 0a.51.51 0 01-.41-.2.51.51 0 01.11-.7c.56-.42 1.14-.83 1.73-1.23a.5.5 0 01.7.13.51.51 0 01-.14.7c-.58.39-1.15.79-1.7 1.2a.46.46 0 01-.29.09zm-59.91-2.15a.5.5 0 01-.44-.25c-.34-.62-.68-1.24-1-1.88a.5.5 0 01.23-.67.49.49 0 01.67.22c.31.62.64 1.24 1 1.84a.49.49 0 01-.19.68.5.5 0 01-.27.06zm63.35-.22a.52.52 0 01-.43-.24.51.51 0 01.17-.69q.89-.56 1.83-1.08a.5.5 0 01.49.88c-.62.34-1.21.69-1.8 1a.5.5 0 01-.26.13zm49.76-.66a.49.49 0 01-.32-.12c-.51-.43-1-.86-1.63-1.27a.51.51 0 01-.11-.7.49.49 0 01.7-.11c.59.42 1.16.87 1.69 1.32a.51.51 0 01.05.71.52.52 0 01-.34.17zm-46.09-1.4a.51.51 0 01-.45-.27.5.5 0 01.23-.67c.62-.32 1.26-.62 1.91-.92a.5.5 0 01.66.25.49.49 0 01-.25.66c-.63.29-1.26.59-1.87.9a.48.48 0 01-.19.05zm42.68-1.06a.48.48 0 01-.26-.07c-.58-.36-1.19-.7-1.81-1a.5.5 0 01-.22-.67.52.52 0 01.68-.22c.64.33 1.27.69 1.87 1a.51.51 0 01.17.69.52.52 0 01-.39.27zm-111.59-.42a.51.51 0 01-.46-.3c-.28-.64-.55-1.3-.8-2a.5.5 0 11.93-.36c.25.65.51 1.29.79 1.92a.5.5 0 01-.26.66.45.45 0 01-.2.08zm72.78-.25a.51.51 0 01-.46-.31.5.5 0 01.28-.65c.65-.26 1.31-.51 2-.75a.5.5 0 01.33 1c-.66.23-1.31.47-2 .73a.58.58 0 01-.15-.02zm35.1-1.25a.71.71 0 01-.2 0c-1.11-.48-1.83-.69-1.84-.7a.53.53 0 01-.38-.61.44.44 0 01.54-.37h.09a18 18 0 012 .74.49.49 0 01.27.65.51.51 0 01-.48.29zm-31.13-.14a.5.5 0 01-.14-1c.67-.21 1.35-.4 2-.57a.49.49 0 11.24 1c-.68.18-1.34.36-2 .56a.39.39 0 01-.1.01zm27.08-1h-.09c-.7-.13-1.38-.25-2.06-.35a.5.5 0 01-.42-.57.5.5 0 01.57-.42l2.09.36a.5.5 0 01-.09 1zm-23 0a.5.5 0 01-.49-.39.51.51 0 01.39-.6c.68-.14 1.38-.27 2.08-.39a.51.51 0 01.58.41.51.51 0 01-.41.58c-.69.11-1.38.24-2 .38zm18.84-.62h-.06c-.7-.08-1.39-.16-2.08-.22a.5.5 0 01.09-1c.7.07 1.4.14 2.11.23a.5.5 0 01-.06 1zm-14.69-.07a.5.5 0 01-.07-1c.7-.09 1.4-.16 2.12-.22a.51.51 0 01.54.45.5.5 0 01-.46.54c-.7.06-1.39.14-2.07.22zm10.5-.32l-2.12-.14a.52.52 0 01-.49-.51.49.49 0 01.52-.49l2.12.09a.5.5 0 010 1zm-6.31 0a.5.5 0 010-1c.7 0 1.41-.06 2.12-.07a.5.5 0 01.5.5.5.5 0 01-.5.5c-.7 0-1.39 0-2.08.06zm-90.65-.19a.5.5 0 01-.48-.35c-.21-.68-.41-1.36-.58-2.05a.51.51 0 01.37-.61.5.5 0 01.6.37c.17.67.36 1.33.56 2a.5.5 0 01-.32.63zm-1-4.08a.49.49 0 01-.49-.41c-.13-.71-.23-1.42-.31-2.12a.5.5 0 011-.11c.07.68.17 1.37.29 2a.5.5 0 01-.4.58zm-.45-4.18a.5.5 0 01-.5-.48v-1-1.18a.52.52 0 01.52-.48.51.51 0 01.48.52v2.07a.5.5 0 01-.48.52zM34 62.4h-.06a.5.5 0 01-.44-.56c.08-.7.2-1.41.33-2.11a.51.51 0 01.59-.4.51.51 0 01.4.59q-.21 1-.33 2a.5.5 0 01-.49.48zm.81-4.12h-.13a.49.49 0 01-.35-.62c.19-.67.4-1.36.64-2a.5.5 0 01.64-.31.51.51 0 01.31.64c-.24.65-.45 1.32-.63 2a.5.5 0 01-.48.29zm1.41-4a.48.48 0 01-.2 0 .51.51 0 01-.26-.66c.29-.64.6-1.29.93-1.92a.49.49 0 01.67-.22.5.5 0 01.21.68c-.32.61-.62 1.24-.89 1.86a.5.5 0 01-.46.3zm1.94-3.73a.48.48 0 01-.26-.07.49.49 0 01-.17-.68c.36-.6.74-1.2 1.15-1.8a.5.5 0 11.83.57c-.4.58-.77 1.16-1.12 1.74a.5.5 0 01-.43.28zm2.36-3.47a.49.49 0 01-.39-.8c.42-.55.86-1.11 1.33-1.66a.49.49 0 01.7-.06.49.49 0 01.06.7 46.1 46.1 0 00-1.3 1.62.49.49 0 01-.4.24zm2.71-3.21a.47.47 0 01-.33-.14.48.48 0 010-.7q.71-.76 1.47-1.53a.5.5 0 01.71 0 .51.51 0 010 .71c-.51.5-1 1-1.45 1.5a.52.52 0 01-.4.2zm3-3a.51.51 0 01-.37-.17.5.5 0 010-.7c.51-.47 1-.94 1.58-1.41a.51.51 0 01.71.05.49.49 0 010 .7c-.54.47-1.06.93-1.56 1.39a.51.51 0 01-.38.21zm3.19-2.75A.48.48 0 0149 38a.49.49 0 01.07-.7l1.68-1.3a.51.51 0 01.7.1.49.49 0 01-.1.7c-.56.43-1.11.86-1.64 1.29a.51.51 0 01-.31.1zm3.35-2.55a.51.51 0 01-.41-.2.51.51 0 01.11-.7c.57-.41 1.15-.81 1.74-1.21a.5.5 0 01.56.82c-.58.4-1.16.8-1.71 1.2a.52.52 0 01-.31.16zm3.48-2.36a.51.51 0 01-.43-.23.5.5 0 01.15-.69c.59-.38 1.18-.76 1.79-1.13a.5.5 0 01.69.16.51.51 0 01-.16.69c-.61.37-1.2.74-1.77 1.12a.56.56 0 01-.29.15zM59.83 31a.5.5 0 01-.26-.93c.6-.35 1.21-.71 1.84-1.06a.5.5 0 01.68.2.51.51 0 01-.19.68c-.62.34-1.23.69-1.82 1a.47.47 0 01-.27.18zm3.64-2a.5.5 0 01-.44-.26.49.49 0 01.21-.67c.61-.34 1.23-.66 1.86-1a.51.51 0 01.68.21.5.5 0 01-.22.67l-1.85 1a.41.41 0 01-.24.05zm3.74-1.93a.52.52 0 01-.45-.28.5.5 0 01.22-.67l1.9-.93a.5.5 0 11.43.9l-1.88.91a.46.46 0 01-.22.07zM71 25.24a.5.5 0 01-.21-.95l1.92-.88a.5.5 0 01.41.91l-1.91.87a.41.41 0 01-.21.05zm3.84-1.72a.5.5 0 01-.2-1l1.94-.83a.52.52 0 01.66.27.5.5 0 01-.27.65l-1.97.87a.45.45 0 01-.16.04zm3.88-1.63a.5.5 0 01-.46-.31.49.49 0 01.27-.65l2-.79a.51.51 0 01.65.28.5.5 0 01-.28.65l-2 .78a.41.41 0 01-.18.04zm3.92-1.54a.52.52 0 01-.47-.33.5.5 0 01.29-.64l2-.75a.52.52 0 01.65.3.5.5 0 01-.3.64l-2 .74a.58.58 0 01-.17.04zm3.94-1.47a.52.52 0 01-.47-.33.5.5 0 01.3-.64l2-.71a.5.5 0 11.33.94l-2 .71a.47.47 0 01-.16.03zm4-1.4a.5.5 0 01-.47-.34.5.5 0 01.31-.63l2-.68a.5.5 0 01.63.32.49.49 0 01-.31.63l-2 .68zm4-1.33a.5.5 0 01-.48-.35.51.51 0 01.32-.63l2-.64a.5.5 0 01.63.33.49.49 0 01-.33.62l-2 .65zm4-1.27a.51.51 0 01-.48-.35.51.51 0 01.33-.63l2-.61a.49.49 0 01.62.33.5.5 0 01-.33.62l-2 .62zm4-1.22a.5.5 0 01-.14-1l2-.58a.49.49 0 01.62.34.5.5 0 01-.34.62l-2 .58a.32.32 0 01-.13.04zm4-1.16a.5.5 0 01-.14-1l2-.56a.5.5 0 11.27 1l-2 .56a.3.3 0 01-.07 0zm4.06-1.11a.5.5 0 01-.13-1l1.8-.48a.5.5 0 01.25 1l-1.79.48z"/><path fill="#dae1e7" fill-rule="evenodd" d="M73.48 127.55H71.5v-2h-1.33v2h-1.98v1.33h1.98v2.01h1.33v-2.01h1.98v-1.33z"/></g><g><circle cx="114.81" cy="9.29" r="3.29" fill="#fff"/><path fill="#ced6de" d="M114.81 13.08a3.79 3.79 0 113.79-3.79 3.79 3.79 0 01-3.79 3.79zm0-6.58a2.79 2.79 0 102.79 2.79 2.79 2.79 0 00-2.79-2.79z"/></g><path fill="#fff" d="M139.27 143.55H85.9l-11.17.02V56.94h64.54v86.61z"/><path fill="#717790" d="M73.73 144.57V55.94h66.54v88.61zm2-86.63v84.63H138.27V57.94z"/><path fill="#fff" d="M90 142.15l.66-12.04-11.61 2.26"/><path fill="#717790" d="M90 143.15h-.06a1 1 0 01-.94-1.06l.59-10.75-10.35 2a1 1 0 01-.38-2l11.6-2.26a1 1 0 01.85.23 1 1 0 01.34.81l-.66 12a1 1 0 01-.99 1.03z"/><path fill="#fff" d="M124.32 74.82A20.44 20.44 0 01126 79l-4.51 3.28a15.11 15.11 0 010 4.9l4.51 3.25a20.12 20.12 0 01-1.65 4.13l-5.42-1a15.42 15.42 0 01-3.33 3.46l.94 5.63a18.64 18.64 0 01-4 1.72l-3.16-4.68a14 14 0 01-4.71 0l-3.16 4.68a18.93 18.93 0 01-4-1.72l1-5.63a15.2 15.2 0 01-3.33-3.46l-5.42 1A20.73 20.73 0 0188 90.43l4.51-3.29a15.89 15.89 0 010-4.9L88 79a21.06 21.06 0 011.66-4.14l5.42 1a15.25 15.25 0 013.33-3.47l-1-5.62a18.93 18.93 0 014-1.72l3.16 4.67a14.69 14.69 0 014.71 0l3.24-4.72a18.64 18.64 0 014 1.72l-.94 5.62a15.47 15.47 0 013.33 3.47zM107 91.07a6.38 6.38 0 10-6.13-6.38 6.27 6.27 0 006.13 6.38"/><path fill="#cbd5cd" d="M124.32 75.49a20.44 20.44 0 011.68 4.14l-4.51 3.29a15 15 0 010 4.89L126 91.1a20.44 20.44 0 01-1.65 4.14l-5.42-1a15.42 15.42 0 01-3.33 3.46l.94 5.63a18.64 18.64 0 01-4 1.72l-3.16-4.68a14 14 0 01-4.71 0l-3.16 4.68a18.93 18.93 0 01-4-1.72l1-5.63a15.2 15.2 0 01-3.33-3.46l-5.42 1A21.06 21.06 0 0188 91.1l4.51-3.29a15.83 15.83 0 010-4.89L88 79.63a21.06 21.06 0 011.66-4.14l5.42 1A15.2 15.2 0 0198.44 73l-1-5.63a19.47 19.47 0 014-1.72l3.16 4.68a14 14 0 014.71 0l3.16-4.68a19.15 19.15 0 014 1.72l-.9 5.63a15.42 15.42 0 013.33 3.46zM107 91.75a6.39 6.39 0 10-6.13-6.38 6.27 6.27 0 006.13 6.38"/><path fill="#717790" d="M101.49 106.07a.92.92 0 01-.29 0 19.88 19.88 0 01-4.2-1.85 1 1 0 01-.49-1l.86-5a15.75 15.75 0 01-2.69-2.78l-4.81.86a1 1 0 01-1-.51 21.54 21.54 0 01-1.74-4.33 1 1 0 01.37-1.09l4-2.93a16.64 16.64 0 010-4l-4-2.93a1 1 0 01-.37-1.08A21.62 21.62 0 0188.81 75a1 1 0 011.06-.52l4.8.87a16.17 16.17 0 012.69-2.79l-.86-5a1 1 0 01.49-1 20 20 0 014.21-1.8 1 1 0 011.12.39l2.8 4.15a15.76 15.76 0 013.76 0l2.81-4.15a1 1 0 011.12-.39 19.41 19.41 0 014.2 1.8 1 1 0 01.49 1l-.84 5a16.81 16.81 0 012.68 2.78l4.8-.87a1 1 0 011.06.52 21.33 21.33 0 011.73 4.35 1 1 0 01-.37 1.07l-4 2.93a16.64 16.64 0 010 4l4 2.93a1 1 0 01.37 1.08 21.25 21.25 0 01-1.73 4.34 1 1 0 01-1.06.51l-4.8-.86a16.43 16.43 0 01-2.68 2.78l.84 5a1 1 0 01-.49 1 19.8 19.8 0 01-4.2 1.81 1 1 0 01-1.12-.4l-2.81-4.16a14.71 14.71 0 01-3.75 0l-2.81 4.16a1 1 0 01-.83.54zm7.87-6.68a1 1 0 01.83.44l2.74 4.06a17.5 17.5 0 002.48-1.07l-.83-4.94a1 1 0 01.39-1 14.25 14.25 0 003.11-3.23 1 1 0 011-.41l4.68.84a19.48 19.48 0 001-2.63l-3.93-2.87a1 1 0 01-.4-1 14.72 14.72 0 000-4.59 1 1 0 01.4-1l3.93-2.87a20.72 20.72 0 00-1-2.64l-4.68.85a1 1 0 01-1-.41A14.5 14.5 0 00115 73.8a1 1 0 01-.39-1l.83-4.93a18.91 18.91 0 00-2.48-1.07l-2.74 4.06a1 1 0 01-1 .42 13.41 13.41 0 00-4.38 0 1 1 0 01-1-.42l-2.74-4.05a17.25 17.25 0 00-2.49 1.06l.84 4.93a1 1 0 01-.39 1 13.85 13.85 0 00-3.13 3.2 1 1 0 01-1 .41l-4.69-.85a20.15 20.15 0 00-1 2.64l3.93 2.87a1 1 0 01.4 1 15.58 15.58 0 000 4.59 1 1 0 01-.4 1l-3.93 2.87a19.48 19.48 0 001 2.63l4.69-.84a1 1 0 011 .41A13.85 13.85 0 0099 96.92a1 1 0 01.39 1l-.84 4.94a18.3 18.3 0 002.49 1.07l2.74-4.06a1 1 0 011-.42 13.41 13.41 0 004.38 0zM107 92.75a7.38 7.38 0 117.14-7.38 7.27 7.27 0 01-7.14 7.38zM107 80a5.39 5.39 0 105.14 5.38A5.26 5.26 0 00107 80zM126.49 115.92h-39a1 1 0 010-2h39a1 1 0 010 2zM120.44 125.63H93.56a1 1 0 010-2h26.88a1 1 0 010 2z"/><path fill="#cbd5cd" d="M76.4 124.05h89.7v45.29H76.4z"/><path fill="#717790" d="M167.1 170.34H75.4v-47.29h91.7zm-89.7-2h87.7v-43.29H77.4z"/><path fill="#cbd5cd" d="M54.46 124.05h90.21v45.29H54.46z"/><path fill="#717790" d="M145.16 170.34h-91.7v-47.29h91.7zm-89.7-2h87.7v-43.29h-87.7z"/><path fill="#717790" d="M109.94 147.2H95a1 1 0 110-2h15a1 1 0 010 2z"/></svg>