<svg xmlns="http://www.w3.org/2000/svg" width="157" height="141" fill="none" viewBox="0 0 157 141"><mask id="fs-bozxj7paba" style="mask-type:alpha" width="139" height="139" x="4" y="2" maskUnits="userSpaceOnUse"><path fill="url(#paint0_linear_27_74267)" d="M73.714 140.998c38.172 0 69.116-30.944 69.116-69.116S111.886 2.766 73.714 2.766 4.598 33.71 4.598 71.882s30.944 69.116 69.116 69.116z"/></mask><g mask="url(#fs-bozxj7paba)"><path fill="url(#paint1_linear_27_74267)" d="M72.84 140.191c38.167 0 69.107-30.764 69.107-68.713S111.007 2.766 72.84 2.766 3.732 33.529 3.732 71.478s30.94 68.713 69.108 68.713z"/><path fill="#fff" d="M95.008 39.703a3.129 3.129 0 00-3.129 3.129v171.421h174.55V39.703H95.008zm170.909 10.85h-10.424V40.13h10.424v10.424zm-86.549 65.275v-10.423h10.423v10.423h-10.423zm10.423.513v10.424h-10.423v-10.424h10.423zm-10.85-.513h-10.424v-10.423h10.424v10.423zm0 .513v10.424h-10.424v-10.424h10.424zm-10.937 10.424h-10.423v-10.424h10.423v10.424zm0 .427v10.423h-10.423v-10.423h10.423zm.513 0h10.424v10.423h-10.424v-10.423zm10.424 10.85v10.424h-10.424v-10.424h10.424zm.427 0h10.423v10.424h-10.423v-10.424zm0-.427v-10.423h10.423v10.423h-10.423zm10.85-10.423h10.424v10.423h-10.424v-10.423zm0-.427v-10.424h10.424v10.424h-10.424zm0-10.937v-10.423h10.424v10.423h-10.424zm0-10.85V94.554h10.424v10.424h-10.424zm-.427 0h-10.423V94.554h10.423v10.424zm-10.85 0h-10.424V94.554h10.424v10.424zm-10.937 0h-10.423V94.554h10.423v10.424zm0 .427v10.423h-10.423v-10.423h10.423zm-10.85 10.423H146.73v-10.423h10.424v10.423zm0 .513v10.424H146.73v-10.424h10.424zm0 10.851v10.423H146.73v-10.423h10.424zm0 10.85v10.424H146.73v-10.424h10.424zm.427 0h10.423v10.424h-10.423v-10.424zm10.423 10.936v10.424h-10.423v-10.424h10.423zm.513 0h10.424v10.424h-10.424v-10.424zm10.851 0h10.423v10.424h-10.423v-10.424zm10.85 0h10.424v10.424h-10.424v-10.424zm0-.512v-10.424h10.424v10.424h-10.424zm10.936-10.424h10.424v10.424h-10.424v-10.424zm0-.427v-10.423h10.424v10.423h-10.424zm0-10.85v-10.424h10.424v10.424h-10.424zm0-10.937v-10.423h10.424v10.423h-10.424zm0-10.85V94.554h10.424v10.424h-10.424zm0-10.85V83.703h10.424v10.423h-10.424zm-.512 0h-10.424V83.703h10.424v10.423zm-10.851 0h-10.423V83.703h10.423v10.423zm-10.85 0h-10.424V83.703h10.424v10.423zm-10.937 0h-10.423V83.703h10.423v10.423zm-10.85 0H146.73V83.703h10.424v10.423zm0 .426v10.424H146.73V94.554h10.424zm-10.851 10.424H135.88V94.554h10.423v10.424zm0 .427v10.423H135.88v-10.423h10.423zm0 10.936v10.424H135.88v-10.424h10.423zm0 10.851v10.423H135.88v-10.423h10.423zm0 10.85v10.424H135.88v-10.424h10.423zm0 10.936v10.424H135.88v-10.424h10.423zm.427 0h10.424v10.424H146.73v-10.424zm10.424 10.851v10.424H146.73v-10.424h10.424zm.427 0h10.423v10.424h-10.423v-10.424zm10.936 0h10.424v10.424h-10.424v-10.424zm10.851 0h10.423v10.424h-10.423v-10.424zm10.85 0h10.424v10.424h-10.424v-10.424zm10.936 0h10.424v10.424h-10.424v-10.424zm0-.427v-10.424h10.424v10.424h-10.424zm10.851-10.424h10.424v10.424h-10.424v-10.424zm0-.512v-10.424h10.424v10.424h-10.424zm0-10.851v-10.423h10.424v10.423h-10.424zm0-10.85v-10.424h10.424v10.424h-10.424zm0-10.937v-10.423h10.424v10.423h-10.424zm0-10.85V94.554h10.424v10.424h-10.424zm0-10.85V83.703h10.424v10.423h-10.424zm0-10.937V72.768h10.424V83.19h-10.424zm-.427 0h-10.424V72.768h10.424V83.19zm-10.936 0h-10.424V72.768h10.424V83.19zm-10.851 0h-10.423V72.768h10.423V83.19zm-10.85 0h-10.424V72.768h10.424V83.19zm-10.937 0h-10.423V72.768h10.423V83.19zm-10.85 0H146.73V72.768h10.424V83.19zm-10.851 0H135.88V72.768h10.423V83.19zm0 .513v10.423H135.88V83.704h10.423zm-10.936 10.423h-10.423V83.704h10.423v10.423zm0 .427v10.424h-10.423V94.554h10.423zm0 10.851v10.423h-10.423v-10.423h10.423zm0 10.936v10.424h-10.423v-10.424h10.423zm0 10.851v10.423h-10.423v-10.423h10.423zm0 10.85v10.424h-10.423v-10.424h10.423zm0 10.936v10.424h-10.423v-10.424h10.423zm0 10.851v10.424h-10.423v-10.424h10.423zm.513 0h10.423v10.424H135.88v-10.424zm10.423 10.851v10.423H135.88V170.68h10.423zm.427 0h10.424v10.423H146.73V170.68zm10.851 0h10.423v10.423h-10.423V170.68zm10.936 0h10.424v10.423h-10.424V170.68zm10.851 0h10.423v10.423h-10.423V170.68zm10.85 0h10.424v10.423h-10.424V170.68zm10.936 0h10.424v10.423h-10.424V170.68zm10.851 0h10.424v10.423h-10.424V170.68zm0-.427v-10.424h10.424v10.424h-10.424zm10.851-10.424h10.423v10.424h-10.423v-10.424zm0-.427v-10.424h10.423v10.424h-10.423zm0-10.936v-10.424h10.423v10.424h-10.423zm0-10.851v-10.423h10.423v10.423h-10.423zm0-10.85v-10.424h10.423v10.424h-10.423zm0-10.937v-10.423h10.423v10.423h-10.423zm0-10.85V94.554h10.423v10.424h-10.423zm0-10.85V83.703h10.423v10.423h-10.423zm0-10.937V72.768h10.423V83.19h-10.423zm0-10.85V61.917h10.423v10.424h-10.423zm-.427 0h-10.424V61.917h10.424v10.424zm-10.851 0h-10.424V61.917h10.424v10.424zm-10.936 0h-10.424V61.917h10.424v10.424zm-10.851 0h-10.423V61.917h10.423v10.424zm-10.85 0h-10.424V61.917h10.424v10.424zm-10.937 0h-10.423V61.917h10.423v10.424zm-10.85 0H146.73V61.917h10.424v10.424zm-10.851 0H135.88V61.917h10.423v10.424zm-10.936 0h-10.423V61.917h10.423v10.424zm0 .427V83.19h-10.423V72.768h10.423zm-10.85 10.423h-10.424V72.768h10.424V83.19zm0 .513v10.423h-10.424V83.704h10.424zm0 10.85v10.424h-10.424V94.554h10.424zm0 10.851v10.423h-10.424v-10.423h10.424zm0 10.936v10.424h-10.424v-10.424h10.424zm0 10.851v10.423h-10.424v-10.423h10.424zm0 10.85v10.424h-10.424v-10.424h10.424zm0 10.936v10.424h-10.424v-10.424h10.424zm0 10.851v10.424h-10.424v-10.424h10.424zm0 10.851v10.423h-10.424V170.68h10.424zm.427 0h10.423v10.423h-10.423V170.68zm10.423 10.936v10.423h-10.423v-10.423h10.423zm.513 0h10.423v10.423H135.88v-10.423zm10.85 0h10.424v10.423H146.73v-10.423zm10.851 0h10.423v10.423h-10.423v-10.423zm10.936 0h10.424v10.423h-10.424v-10.423zm10.851 0h10.423v10.423h-10.423v-10.423zm10.85 0h10.424v10.423h-10.424v-10.423zm10.936 0h10.424v10.423h-10.424v-10.423zm10.851 0h10.424v10.423h-10.424v-10.423zm10.851 0h10.423v10.423h-10.423v-10.423zm0-.513V170.68h10.423v10.423h-10.423zm10.936-10.423h10.423v10.423h-10.423V170.68zm0-.427v-10.424h10.423v10.424h-10.423zm0-10.851v-10.424h10.423v10.424h-10.423zm0-10.936v-10.424h10.423v10.424h-10.423zm0-10.851v-10.423h10.423v10.423h-10.423zm0-10.85v-10.424h10.423v10.424h-10.423zm0-10.937v-10.423h10.423v10.423h-10.423zm0-10.85V94.554h10.423v10.424h-10.423zm0-10.85V83.703h10.423v10.423h-10.423zm0-10.937V72.768h10.423V83.19h-10.423zm0-10.85V61.917h10.423v10.424h-10.423zm0-10.851V51.066h10.423V61.49h-10.423zm-.513 0h-10.423V51.066h10.423V61.49zm-10.85 0h-10.424V51.066h10.424V61.49zm-10.851 0h-10.424V51.066h10.424V61.49zm-10.936 0h-10.424V51.066h10.424V61.49zm-10.851 0h-10.423V51.066h10.423V61.49zm-10.85 0h-10.424V51.066h10.424V61.49zm-10.937 0h-10.423V51.066h10.423V61.49zm-10.85 0H146.73V51.066h10.424V61.49zm-10.851 0H135.88V51.066h10.423V61.49zm-10.936 0h-10.423V51.066h10.423V61.49zm-10.85 0h-10.424V51.066h10.424V61.49zm0 .427v10.424h-10.424V61.917h10.424zm-10.851 10.424h-10.424V61.917h10.424v10.424zm0 .427V83.19h-10.424V72.768h10.424zm0 10.936v10.423h-10.424V83.704h10.424zm0 10.85v10.424h-10.424V94.554h10.424zm0 10.851v10.423h-10.424v-10.423h10.424zm0 10.936v10.424h-10.424v-10.424h10.424zm0 10.851v10.423h-10.424v-10.423h10.424zm0 10.85v10.424h-10.424v-10.424h10.424zm0 10.936v10.424h-10.424v-10.424h10.424zm0 10.851v10.424h-10.424v-10.424h10.424zm0 10.851v10.423h-10.424V170.68h10.424zm0 10.936v10.423h-10.424v-10.423h10.424zm.427 0h10.424v10.423h-10.424v-10.423zm10.424 10.85v10.424h-10.424v-10.424h10.424zm.427 0h10.423v10.424h-10.423v-10.424zm10.936 0h10.423v10.424H135.88v-10.424zm10.85 0h10.424v10.424H146.73v-10.424zm10.851 0h10.423v10.424h-10.423v-10.424zm10.936 0h10.424v10.424h-10.424v-10.424zm10.851 0h10.423v10.424h-10.423v-10.424zm10.85 0h10.424v10.424h-10.424v-10.424zm10.936 0h10.424v10.424h-10.424v-10.424zm10.851 0h10.424v10.424h-10.424v-10.424zm10.851 0h10.423v10.424h-10.423v-10.424zm10.936 0h10.423v10.424h-10.423v-10.424zm0-.427v-10.423h10.423v10.423h-10.423zm10.85-10.423h10.424v10.423h-10.424v-10.423zm0-.513V170.68h10.424v10.423h-10.424zm0-10.85v-10.424h10.424v10.424h-10.424zm0-10.851v-10.424h10.424v10.424h-10.424zm0-10.936v-10.424h10.424v10.424h-10.424zm0-10.851v-10.423h10.424v10.423h-10.424zm0-10.85v-10.424h10.424v10.424h-10.424zm0-10.937v-10.423h10.424v10.423h-10.424zm0-10.85V94.554h10.424v10.424h-10.424zm0-10.85V83.703h10.424v10.423h-10.424zm0-10.937V72.768h10.424V83.19h-10.424zm0-10.85V61.917h10.424v10.424h-10.424zm0-10.851V51.066h10.424V61.49h-10.424zm0-10.936V40.13h10.424v10.424h-10.424zm-.427 0h-10.423V40.13h10.423v10.424zm-10.936 0h-10.423V40.13h10.423v10.424zm-10.85 0h-10.424V40.13h10.424v10.424zm-10.851 0h-10.424V40.13h10.424v10.424zm-10.936 0h-10.424V40.13h10.424v10.424zm-10.851 0h-10.423V40.13h10.423v10.424zm-10.85 0h-10.424V40.13h10.424v10.424zm-10.937 0h-10.423V40.13h10.423v10.424zm-10.85 0H146.73V40.13h10.424v10.424zm-10.851 0H135.88V40.13h10.423v10.424zm-10.936 0h-10.423V40.13h10.423v10.424zm-10.85 0h-10.424V40.13h10.424v10.424zm-10.851 0h-10.424V40.13h10.424v10.424zm0 .512V61.49h-10.424V51.066h10.424zM102.73 61.49H92.306V51.066h10.424V61.49zm0 .427v10.424H92.306V61.917h10.424zm0 10.85v10.424H92.306V72.768h10.424zm0 10.937v10.423H92.306V83.704h10.424zm0 10.85v10.424H92.306V94.554h10.424zm0 10.851v10.423H92.306v-10.423h10.424zm0 10.936v10.424H92.306v-10.424h10.424zm0 10.851v10.423H92.306v-10.423h10.424zm0 10.85v10.424H92.306v-10.424h10.424zm0 10.936v10.424H92.306v-10.424h10.424zm0 10.851v10.424H92.306v-10.424h10.424zm0 10.851v10.423H92.306V170.68h10.424zm0 10.936v10.423H92.306v-10.423h10.424zm0 10.85v10.424H92.306v-10.424h10.424zm.512 0h10.424v10.424h-10.424v-10.424zm10.424 10.851v10.424h-10.424v-10.424h10.424zm.427 0h10.424v10.424h-10.424v-10.424zm10.851 0h10.423v10.424h-10.423v-10.424zm10.936 0h10.423v10.424H135.88v-10.424zm10.85 0h10.424v10.424H146.73v-10.424zm10.851 0h10.423v10.424h-10.423v-10.424zm10.936 0h10.424v10.424h-10.424v-10.424zm10.851 0h10.423v10.424h-10.423v-10.424zm10.85 0h10.424v10.424h-10.424v-10.424zm10.936 0h10.424v10.424h-10.424v-10.424zm10.851 0h10.424v10.424h-10.424v-10.424zm10.851 0h10.423v10.424h-10.423v-10.424zm10.936 0h10.423v10.424h-10.423v-10.424zm10.85 0h10.424v10.424h-10.424v-10.424zm0-.427v-10.424h10.424v10.424h-10.424zm10.851-10.424h10.424v10.424h-10.424v-10.424zm0-.427v-10.423h10.424v10.423h-10.424zm0-10.936V170.68h10.424v10.423h-10.424zm0-10.85v-10.424h10.424v10.424h-10.424zm0-10.851v-10.424h10.424v10.424h-10.424zm0-10.936v-10.424h10.424v10.424h-10.424zm0-10.851v-10.423h10.424v10.423h-10.424zm0-10.85v-10.424h10.424v10.424h-10.424zm0-10.937v-10.423h10.424v10.423h-10.424zm0-10.85V94.554h10.424v10.424h-10.424zm0-10.85V83.703h10.424v10.423h-10.424zm0-10.937V72.768h10.424V83.19h-10.424zm0-10.85V61.917h10.424v10.424h-10.424zm0-10.851V51.066h10.424V61.49h-10.424zM102.73 40.13v10.424H92.306v-7.295c0-1.728 1.401-3.129 3.13-3.129h7.294zM92.306 203.317h10.424v10.424H92.306v-10.424zm163.187 10.424v-10.424h10.424v10.424h-10.424z"/></g><g filter="url(#filter0_f_27_74267)"><ellipse cx="68.472" cy="122.105" fill="#000" fill-opacity=".37" rx="66.228" ry=".351"/></g><g filter="url(#filter1_iii_27_74267)"><path fill="#3687EC" d="M121.874 19.371H22.85c-1.92 0-3.478 2.18-3.478 4.869v86.286c0 2.689 1.557 4.869 3.478 4.869h99.024c1.922 0 3.479-2.18 3.479-4.869V24.24c0-2.689-1.557-4.869-3.479-4.869z"/></g><g filter="url(#filter2_dii_27_74267)"><rect width="95.473" height="70.567" x="24.906" y="34.59" fill="url(#paint2_linear_27_74267)" rx="1.877"/></g><g filter="url(#filter3_ii_27_74267)"><path fill="#EAEAEA" d="M26.097 28.193a1.561 1.561 0 100-3.123 1.561 1.561 0 000 3.123z"/></g><g filter="url(#filter4_ii_27_74267)"><path fill="#EAEAEA" d="M36.704 28.193a1.561 1.561 0 100-3.123 1.561 1.561 0 000 3.123z"/></g><g filter="url(#filter5_ii_27_74267)"><path fill="#EAEAEA" d="M31.4 28.193a1.561 1.561 0 10.001-3.123 1.561 1.561 0 000 3.123z"/></g><g filter="url(#filter6_ii_27_74267)"><path fill="#92A2B1" d="M71.254 62.51a7.04 7.04 0 100-14.08 7.04 7.04 0 000 14.08z"/></g><g filter="url(#filter7_ii_27_74267)"><path fill="#92A2B1" d="M88.525 83.09H55.74c-.976 0-1.77-.807-1.643-1.775a17.283 17.283 0 0134.416 1.764c0 .007.006.012.012.012z"/></g><g filter="url(#filter8_i_27_74267)"><path fill="url(#paint3_linear_27_74267)" d="M139.425 103.001c-.031-.008-.061-.013-.086-.032-.703-.521 1.278-9.231 1.464-9.878.945-3.261 2.51-6.436 5.026-8.764 1.78-1.648 6.537-4.873 9.006-2.977 2.08 1.6.131 5.616-.828 7.296-1.719 2.986-4.253 5.406-6.416 8.055-1.291 1.584-2.588 3.199-3.879 4.783-.092.119-.865 1.217-1.358 1.8-.233.275-.569.315-.918.227l-2.011-.51z"/></g><g filter="url(#filter9_i_27_74267)"><path fill="url(#paint4_linear_27_74267)" d="M142.267 105.617c1.056.227 1.997-.67 1.776-1.727-1.212-5.817-5.231-20.984-13.741-18.22-7.735 2.539 8.888 17.496 11.296 19.615.193.17.418.278.669.332z"/></g><path fill="#77FFE4" fill-opacity=".2" d="M132.619 88.695s9.953 12.991 10.067 15.74l-10.067-15.74zM151.892 83.913s-8.178 10.434-9.068 15.064l9.068-15.064z"/><path fill="url(#paint5_linear_27_74267)" d="M132.088 102.436a1.471 1.471 0 011.464-1.612h15.036c.868 0 1.547.748 1.464 1.612l-1.646 17.072a1.471 1.471 0 01-1.464 1.329h-11.744a1.47 1.47 0 01-1.464-1.329l-1.646-17.072z"/><g filter="url(#filter10_i_27_74267)"><rect width="19.594" height="4.824" x="131.273" y="100.824" fill="url(#paint6_linear_27_74267)" rx=".735"/></g><path fill="url(#paint7_radial_27_74267)" d="M5.535 84.405a5.535 5.535 0 100-11.07 5.535 5.535 0 000 11.07z"/><path fill="url(#paint8_radial_27_74267)" d="M2.334 78.601c-1.003-.617-1.254-2.025-.56-3.124.675-1.1 2.045-1.504 3.047-.887 1.003.617 1.254 2.025.56 3.124-.695 1.119-2.064 1.504-3.047.887z" opacity=".5"/><path fill="url(#paint9_radial_27_74267)" d="M94.781 15.22a7.61 7.61 0 007.61-7.61 7.61 7.61 0 10-15.22 0 7.61 7.61 0 007.61 7.61z"/><path fill="url(#paint10_radial_27_74267)" d="M90.38 7.237c-1.379-.848-1.723-2.784-.769-4.295.928-1.512 2.811-2.069 4.19-1.22 1.379.848 1.723 2.784.769 4.295-.955 1.538-2.837 2.069-4.19 1.22z" opacity=".5"/><g filter="url(#filter11_d_27_74267)"><rect width="33.968" height="1.362" x="56.115" y="91.535" fill="#3E3E3E" rx=".681"/></g><g filter="url(#filter12_dii_27_74267)"><rect width="34.512" height="1.644" x="55.805" y="91.254" fill="url(#paint11_linear_27_74267)" rx=".822"/></g><g filter="url(#filter13_d_27_74267)"><rect width="41.96" height="1.362" x="51.579" y="87.453" fill="#3E3E3E" rx=".681"/></g><g filter="url(#filter14_dii_27_74267)"><rect width="42.633" height="1.644" x="51.196" y="87.172" fill="url(#paint12_linear_27_74267)" rx=".822"/></g><g filter="url(#filter15_dii_27_74267)"><rect width="11.069" height="11.069" x="83.02" y="49.813" fill="#00A886" rx="5.535"/></g><g filter="url(#filter16_d_27_74267)"><path fill="#fff" d="M88.43 58.685a.576.576 0 00.576-.572l.048-5.722a.624.624 0 10-1.249 0l.048 5.722c.003.316.26.572.577.572z"/></g><g filter="url(#filter17_d_27_74267)"><path fill="#fff" d="M84.969 55.223c0 .317.255.574.571.577l5.722.047a.624.624 0 100-1.248l-5.722.048a.577.577 0 00-.571.576z"/></g><defs><filter id="filter0_f_27_74267" width="134.484" height="2.732" x="1.23" y="120.739" color-interpolation-filters="sRGB" filterUnits="userSpaceOnUse"><feFlood flood-opacity="0" result="BackgroundImageFix"/><feBlend in="SourceGraphic" in2="BackgroundImageFix" result="shape"/><feGaussianBlur result="effect1_foregroundBlur_27_74267" stdDeviation=".507"/></filter><filter id="filter1_iii_27_74267" width="106.465" height="96.845" x="18.888" y="19.081" color-interpolation-filters="sRGB" filterUnits="userSpaceOnUse"><feFlood flood-opacity="0" result="BackgroundImageFix"/><feBlend in="SourceGraphic" in2="BackgroundImageFix" result="shape"/><feColorMatrix in="SourceAlpha" result="hardAlpha" values="0 0 0 0 0 0 0 0 0 0 0 0 0 0 0 0 0 0 127 0"/><feOffset dy="-.29"/><feGaussianBlur stdDeviation=".29"/><feComposite in2="hardAlpha" k2="-1" k3="1" operator="arithmetic"/><feColorMatrix values="0 0 0 0 0.089132 0 0 0 0 0.328429 0 0 0 0 0.629167 0 0 0 1 0"/><feBlend in2="shape" result="effect1_innerShadow_27_74267"/><feColorMatrix in="SourceAlpha" result="hardAlpha" values="0 0 0 0 0 0 0 0 0 0 0 0 0 0 0 0 0 0 127 0"/><feOffset dy=".532"/><feGaussianBlur stdDeviation=".266"/><feComposite in2="hardAlpha" k2="-1" k3="1" operator="arithmetic"/><feColorMatrix values="0 0 0 0 0.641667 0 0 0 0 0.8495 0 0 0 0 1 0 0 0 1 0"/><feBlend in2="effect1_innerShadow_27_74267" result="effect2_innerShadow_27_74267"/><feColorMatrix in="SourceAlpha" result="hardAlpha" values="0 0 0 0 0 0 0 0 0 0 0 0 0 0 0 0 0 0 127 0"/><feOffset dx="-.484"/><feGaussianBlur stdDeviation=".242"/><feComposite in2="hardAlpha" k2="-1" k3="1" operator="arithmetic"/><feColorMatrix values="0 0 0 0 0 0 0 0 0 0 0 0 0 0 0 0 0 0 0.25 0"/><feBlend in2="effect2_innerShadow_27_74267" result="effect3_innerShadow_27_74267"/></filter><filter id="filter2_dii_27_74267" width="99.227" height="74.321" x="23.029" y="33.964" color-interpolation-filters="sRGB" filterUnits="userSpaceOnUse"><feFlood flood-opacity="0" result="BackgroundImageFix"/><feColorMatrix in="SourceAlpha" result="hardAlpha" values="0 0 0 0 0 0 0 0 0 0 0 0 0 0 0 0 0 0 127 0"/><feOffset dy="1.252"/><feGaussianBlur stdDeviation=".939"/><feColorMatrix values="0 0 0 0 0 0 0 0 0 0 0 0 0 0 0 0 0 0 0.25 0"/><feBlend in2="BackgroundImageFix" result="effect1_dropShadow_27_74267"/><feBlend in="SourceGraphic" in2="effect1_dropShadow_27_74267" result="shape"/><feColorMatrix in="SourceAlpha" result="hardAlpha" values="0 0 0 0 0 0 0 0 0 0 0 0 0 0 0 0 0 0 127 0"/><feOffset dx=".626" dy=".688"/><feGaussianBlur stdDeviation=".375"/><feComposite in2="hardAlpha" k2="-1" k3="1" operator="arithmetic"/><feColorMatrix values="0 0 0 0 1 0 0 0 0 1 0 0 0 0 1 0 0 0 1 0"/><feBlend in2="shape" result="effect2_innerShadow_27_74267"/><feColorMatrix in="SourceAlpha" result="hardAlpha" values="0 0 0 0 0 0 0 0 0 0 0 0 0 0 0 0 0 0 127 0"/><feOffset dx="-.626" dy="-.375"/><feGaussianBlur stdDeviation=".063"/><feComposite in2="hardAlpha" k2="-1" k3="1" operator="arithmetic"/><feColorMatrix values="0 0 0 0 0.833333 0 0 0 0 0.833333 0 0 0 0 0.833333 0 0 0 1 0"/><feBlend in2="effect2_innerShadow_27_74267" result="effect3_innerShadow_27_74267"/></filter><filter id="filter3_ii_27_74267" width="3.268" height="3.266" x="24.439" y="24.974" color-interpolation-filters="sRGB" filterUnits="userSpaceOnUse"><feFlood flood-opacity="0" result="BackgroundImageFix"/><feBlend in="SourceGraphic" in2="BackgroundImageFix" result="shape"/><feColorMatrix in="SourceAlpha" result="hardAlpha" values="0 0 0 0 0 0 0 0 0 0 0 0 0 0 0 0 0 0 127 0"/><feOffset dx=".097" dy=".097"/><feGaussianBlur stdDeviation=".024"/><feComposite in2="hardAlpha" k2="-1" k3="1" operator="arithmetic"/><feColorMatrix values="0 0 0 0 1 0 0 0 0 1 0 0 0 0 1 0 0 0 1 0"/><feBlend in2="shape" result="effect1_innerShadow_27_74267"/><feColorMatrix in="SourceAlpha" result="hardAlpha" values="0 0 0 0 0 0 0 0 0 0 0 0 0 0 0 0 0 0 127 0"/><feOffset dx="-.097" dy="-.097"/><feGaussianBlur stdDeviation=".048"/><feComposite in2="hardAlpha" k2="-1" k3="1" operator="arithmetic"/><feColorMatrix values="0 0 0 0 0.658333 0 0 0 0 0.658333 0 0 0 0 0.658333 0 0 0 1 0"/><feBlend in2="effect1_innerShadow_27_74267" result="effect2_innerShadow_27_74267"/></filter><filter id="filter4_ii_27_74267" width="3.268" height="3.266" x="35.046" y="24.974" color-interpolation-filters="sRGB" filterUnits="userSpaceOnUse"><feFlood flood-opacity="0" result="BackgroundImageFix"/><feBlend in="SourceGraphic" in2="BackgroundImageFix" result="shape"/><feColorMatrix in="SourceAlpha" result="hardAlpha" values="0 0 0 0 0 0 0 0 0 0 0 0 0 0 0 0 0 0 127 0"/><feOffset dx=".097" dy=".097"/><feGaussianBlur stdDeviation=".024"/><feComposite in2="hardAlpha" k2="-1" k3="1" operator="arithmetic"/><feColorMatrix values="0 0 0 0 1 0 0 0 0 1 0 0 0 0 1 0 0 0 1 0"/><feBlend in2="shape" result="effect1_innerShadow_27_74267"/><feColorMatrix in="SourceAlpha" result="hardAlpha" values="0 0 0 0 0 0 0 0 0 0 0 0 0 0 0 0 0 0 127 0"/><feOffset dx="-.097" dy="-.097"/><feGaussianBlur stdDeviation=".048"/><feComposite in2="hardAlpha" k2="-1" k3="1" operator="arithmetic"/><feColorMatrix values="0 0 0 0 0.658333 0 0 0 0 0.658333 0 0 0 0 0.658333 0 0 0 1 0"/><feBlend in2="effect1_innerShadow_27_74267" result="effect2_innerShadow_27_74267"/></filter><filter id="filter5_ii_27_74267" width="3.268" height="3.266" x="29.743" y="24.974" color-interpolation-filters="sRGB" filterUnits="userSpaceOnUse"><feFlood flood-opacity="0" result="BackgroundImageFix"/><feBlend in="SourceGraphic" in2="BackgroundImageFix" result="shape"/><feColorMatrix in="SourceAlpha" result="hardAlpha" values="0 0 0 0 0 0 0 0 0 0 0 0 0 0 0 0 0 0 127 0"/><feOffset dx=".097" dy=".097"/><feGaussianBlur stdDeviation=".024"/><feComposite in2="hardAlpha" k2="-1" k3="1" operator="arithmetic"/><feColorMatrix values="0 0 0 0 1 0 0 0 0 1 0 0 0 0 1 0 0 0 1 0"/><feBlend in2="shape" result="effect1_innerShadow_27_74267"/><feColorMatrix in="SourceAlpha" result="hardAlpha" values="0 0 0 0 0 0 0 0 0 0 0 0 0 0 0 0 0 0 127 0"/><feOffset dx="-.097" dy="-.097"/><feGaussianBlur stdDeviation=".048"/><feComposite in2="hardAlpha" k2="-1" k3="1" operator="arithmetic"/><feColorMatrix values="0 0 0 0 0.658333 0 0 0 0 0.658333 0 0 0 0 0.658333 0 0 0 1 0"/><feBlend in2="effect1_innerShadow_27_74267" result="effect2_innerShadow_27_74267"/></filter><filter id="filter6_ii_27_74267" width="17.703" height="14.938" x="61.448" y="48.43" color-interpolation-filters="sRGB" filterUnits="userSpaceOnUse"><feFlood flood-opacity="0" result="BackgroundImageFix"/><feBlend in="SourceGraphic" in2="BackgroundImageFix" result="shape"/><feColorMatrix in="SourceAlpha" result="hardAlpha" values="0 0 0 0 0 0 0 0 0 0 0 0 0 0 0 0 0 0 127 0"/><feOffset dx="-2.766"/><feGaussianBlur stdDeviation="1.498"/><feComposite in2="hardAlpha" k2="-1" k3="1" operator="arithmetic"/><feColorMatrix values="0 0 0 0 0.392157 0 0 0 0 0.478431 0 0 0 0 0.556863 0 0 0 1 0"/><feBlend in2="shape" result="effect1_innerShadow_27_74267"/><feColorMatrix in="SourceAlpha" result="hardAlpha" values="0 0 0 0 0 0 0 0 0 0 0 0 0 0 0 0 0 0 127 0"/><feOffset dx=".856" dy=".856"/><feGaussianBlur stdDeviation=".856"/><feComposite in2="hardAlpha" k2="-1" k3="1" operator="arithmetic"/><feColorMatrix values="0 0 0 0 0.754687 0 0 0 0 0.816784 0 0 0 0 0.875 0 0 0 1 0"/><feBlend in2="effect1_innerShadow_27_74267" result="effect2_innerShadow_27_74267"/></filter><filter id="filter7_ii_27_74267" width="38.064" height="17.684" x="51.317" y="66.262" color-interpolation-filters="sRGB" filterUnits="userSpaceOnUse"><feFlood flood-opacity="0" result="BackgroundImageFix"/><feBlend in="SourceGraphic" in2="BackgroundImageFix" result="shape"/><feColorMatrix in="SourceAlpha" result="hardAlpha" values="0 0 0 0 0 0 0 0 0 0 0 0 0 0 0 0 0 0 127 0"/><feOffset dx="-2.766"/><feGaussianBlur stdDeviation="1.498"/><feComposite in2="hardAlpha" k2="-1" k3="1" operator="arithmetic"/><feColorMatrix values="0 0 0 0 0.392157 0 0 0 0 0.478431 0 0 0 0 0.556863 0 0 0 1 0"/><feBlend in2="shape" result="effect1_innerShadow_27_74267"/><feColorMatrix in="SourceAlpha" result="hardAlpha" values="0 0 0 0 0 0 0 0 0 0 0 0 0 0 0 0 0 0 127 0"/><feOffset dx=".856" dy=".856"/><feGaussianBlur stdDeviation=".856"/><feComposite in2="hardAlpha" k2="-1" k3="1" operator="arithmetic"/><feColorMatrix values="0 0 0 0 0.754687 0 0 0 0 0.816784 0 0 0 0 0.875 0 0 0 1 0"/><feBlend in2="effect1_innerShadow_27_74267" result="effect2_innerShadow_27_74267"/></filter><filter id="filter8_i_27_74267" width="17.276" height="23.055" x="139.189" y="80.5" color-interpolation-filters="sRGB" filterUnits="userSpaceOnUse"><feFlood flood-opacity="0" result="BackgroundImageFix"/><feBlend in="SourceGraphic" in2="BackgroundImageFix" result="shape"/><feColorMatrix in="SourceAlpha" result="hardAlpha" values="0 0 0 0 0 0 0 0 0 0 0 0 0 0 0 0 0 0 127 0"/><feOffset dx=".705" dy="-.27"/><feGaussianBlur stdDeviation=".919"/><feComposite in2="hardAlpha" k2="-1" k3="1" operator="arithmetic"/><feColorMatrix values="0 0 0 0 0.113056 0 0 0 0 0.616667 0 0 0 0 0.58645 0 0 0 1 0"/><feBlend in2="shape" result="effect1_innerShadow_27_74267"/></filter><filter id="filter9_i_27_74267" width="16.515" height="20.586" x="128.266" y="85.066" color-interpolation-filters="sRGB" filterUnits="userSpaceOnUse"><feFlood flood-opacity="0" result="BackgroundImageFix"/><feBlend in="SourceGraphic" in2="BackgroundImageFix" result="shape"/><feColorMatrix in="SourceAlpha" result="hardAlpha" values="0 0 0 0 0 0 0 0 0 0 0 0 0 0 0 0 0 0 127 0"/><feOffset dx=".705" dy="-.27"/><feGaussianBlur stdDeviation=".919"/><feComposite in2="hardAlpha" k2="-1" k3="1" operator="arithmetic"/><feColorMatrix values="0 0 0 0 0.0996528 0 0 0 0 0.683333 0 0 0 0 0.555806 0 0 0 1 0"/><feBlend in2="shape" result="effect1_innerShadow_27_74267"/></filter><filter id="filter10_i_27_74267" width="19.888" height="5.045" x="131.273" y="100.604" color-interpolation-filters="sRGB" filterUnits="userSpaceOnUse"><feFlood flood-opacity="0" result="BackgroundImageFix"/><feBlend in="SourceGraphic" in2="BackgroundImageFix" result="shape"/><feColorMatrix in="SourceAlpha" result="hardAlpha" values="0 0 0 0 0 0 0 0 0 0 0 0 0 0 0 0 0 0 127 0"/><feOffset dx=".294" dy="-.221"/><feGaussianBlur stdDeviation=".257"/><feComposite in2="hardAlpha" k2="-1" k3="1" operator="arithmetic"/><feColorMatrix values="0 0 0 0 0.833333 0 0 0 0 0.604343 0 0 0 0 0.0555555 0 0 0 1 0"/><feBlend in2="shape" result="effect1_innerShadow_27_74267"/></filter><filter id="filter11_d_27_74267" width="34.282" height="1.678" x="55.958" y="91.417" color-interpolation-filters="sRGB" filterUnits="userSpaceOnUse"><feFlood flood-opacity="0" result="BackgroundImageFix"/><feColorMatrix in="SourceAlpha" result="hardAlpha" values="0 0 0 0 0 0 0 0 0 0 0 0 0 0 0 0 0 0 127 0"/><feOffset dy=".039"/><feGaussianBlur stdDeviation=".079"/><feColorMatrix values="0 0 0 0 0 0 0 0 0 0 0 0 0 0 0 0 0 0 0.48 0"/><feBlend in2="BackgroundImageFix" result="effect1_dropShadow_27_74267"/><feBlend in="SourceGraphic" in2="effect1_dropShadow_27_74267" result="shape"/></filter><filter id="filter12_dii_27_74267" width="35.298" height="2.666" x="55.412" y="91.018" color-interpolation-filters="sRGB" filterUnits="userSpaceOnUse"><feFlood flood-opacity="0" result="BackgroundImageFix"/><feColorMatrix in="SourceAlpha" result="hardAlpha" values="0 0 0 0 0 0 0 0 0 0 0 0 0 0 0 0 0 0 127 0"/><feOffset dy=".393"/><feGaussianBlur stdDeviation=".196"/><feColorMatrix values="0 0 0 0 0 0 0 0 0 0 0 0 0 0 0 0 0 0 0.07 0"/><feBlend in2="BackgroundImageFix" result="effect1_dropShadow_27_74267"/><feBlend in="SourceGraphic" in2="effect1_dropShadow_27_74267" result="shape"/><feColorMatrix in="SourceAlpha" result="hardAlpha" values="0 0 0 0 0 0 0 0 0 0 0 0 0 0 0 0 0 0 127 0"/><feOffset dx=".393" dy=".432"/><feGaussianBlur stdDeviation=".236"/><feComposite in2="hardAlpha" k2="-1" k3="1" operator="arithmetic"/><feColorMatrix values="0 0 0 0 1 0 0 0 0 1 0 0 0 0 1 0 0 0 1 0"/><feBlend in2="shape" result="effect2_innerShadow_27_74267"/><feColorMatrix in="SourceAlpha" result="hardAlpha" values="0 0 0 0 0 0 0 0 0 0 0 0 0 0 0 0 0 0 127 0"/><feOffset dx="-.432" dy="-.236"/><feGaussianBlur stdDeviation=".196"/><feComposite in2="hardAlpha" k2="-1" k3="1" operator="arithmetic"/><feColorMatrix values="0 0 0 0 0.833333 0 0 0 0 0.833333 0 0 0 0 0.833333 0 0 0 1 0"/><feBlend in2="effect2_innerShadow_27_74267" result="effect3_innerShadow_27_74267"/></filter><filter id="filter13_d_27_74267" width="42.274" height="1.678" x="51.422" y="87.335" color-interpolation-filters="sRGB" filterUnits="userSpaceOnUse"><feFlood flood-opacity="0" result="BackgroundImageFix"/><feColorMatrix in="SourceAlpha" result="hardAlpha" values="0 0 0 0 0 0 0 0 0 0 0 0 0 0 0 0 0 0 127 0"/><feOffset dy=".039"/><feGaussianBlur stdDeviation=".079"/><feColorMatrix values="0 0 0 0 0 0 0 0 0 0 0 0 0 0 0 0 0 0 0.48 0"/><feBlend in2="BackgroundImageFix" result="effect1_dropShadow_27_74267"/><feBlend in="SourceGraphic" in2="effect1_dropShadow_27_74267" result="shape"/></filter><filter id="filter14_dii_27_74267" width="43.419" height="2.666" x="50.803" y="86.936" color-interpolation-filters="sRGB" filterUnits="userSpaceOnUse"><feFlood flood-opacity="0" result="BackgroundImageFix"/><feColorMatrix in="SourceAlpha" result="hardAlpha" values="0 0 0 0 0 0 0 0 0 0 0 0 0 0 0 0 0 0 127 0"/><feOffset dy=".393"/><feGaussianBlur stdDeviation=".196"/><feColorMatrix values="0 0 0 0 0 0 0 0 0 0 0 0 0 0 0 0 0 0 0.07 0"/><feBlend in2="BackgroundImageFix" result="effect1_dropShadow_27_74267"/><feBlend in="SourceGraphic" in2="effect1_dropShadow_27_74267" result="shape"/><feColorMatrix in="SourceAlpha" result="hardAlpha" values="0 0 0 0 0 0 0 0 0 0 0 0 0 0 0 0 0 0 127 0"/><feOffset dx=".393" dy=".432"/><feGaussianBlur stdDeviation=".236"/><feComposite in2="hardAlpha" k2="-1" k3="1" operator="arithmetic"/><feColorMatrix values="0 0 0 0 1 0 0 0 0 1 0 0 0 0 1 0 0 0 1 0"/><feBlend in2="shape" result="effect2_innerShadow_27_74267"/><feColorMatrix in="SourceAlpha" result="hardAlpha" values="0 0 0 0 0 0 0 0 0 0 0 0 0 0 0 0 0 0 127 0"/><feOffset dx="-.432" dy="-.236"/><feGaussianBlur stdDeviation=".196"/><feComposite in2="hardAlpha" k2="-1" k3="1" operator="arithmetic"/><feColorMatrix values="0 0 0 0 0.833333 0 0 0 0 0.833333 0 0 0 0 0.833333 0 0 0 1 0"/><feBlend in2="effect2_innerShadow_27_74267" result="effect3_innerShadow_27_74267"/></filter><filter id="filter15_dii_27_74267" width="12.367" height="12.757" x="82.371" y="49.423" color-interpolation-filters="sRGB" filterUnits="userSpaceOnUse"><feFlood flood-opacity="0" result="BackgroundImageFix"/><feColorMatrix in="SourceAlpha" result="hardAlpha" values="0 0 0 0 0 0 0 0 0 0 0 0 0 0 0 0 0 0 127 0"/><feOffset dy=".649"/><feGaussianBlur stdDeviation=".324"/><feColorMatrix values="0 0 0 0 0 0 0 0 0 0 0 0 0 0 0 0 0 0 0.25 0"/><feBlend in2="BackgroundImageFix" result="effect1_dropShadow_27_74267"/><feBlend in="SourceGraphic" in2="effect1_dropShadow_27_74267" result="shape"/><feColorMatrix in="SourceAlpha" result="hardAlpha" values="0 0 0 0 0 0 0 0 0 0 0 0 0 0 0 0 0 0 127 0"/><feOffset dy=".584"/><feGaussianBlur stdDeviation=".227"/><feComposite in2="hardAlpha" k2="-1" k3="1" operator="arithmetic"/><feColorMatrix values="0 0 0 0 0.00874996 0 0 0 0 0.525 0 0 0 0 0.420521 0 0 0 1 0"/><feBlend in2="shape" result="effect2_innerShadow_27_74267"/><feColorMatrix in="SourceAlpha" result="hardAlpha" values="0 0 0 0 0 0 0 0 0 0 0 0 0 0 0 0 0 0 127 0"/><feOffset dx="-.065" dy="-.584"/><feGaussianBlur stdDeviation=".195"/><feComposite in2="hardAlpha" k2="-1" k3="1" operator="arithmetic"/><feColorMatrix values="0 0 0 0 0.0667188 0 0 0 0 0.7625 0 0 0 0 0.621687 0 0 0 1 0"/><feBlend in2="effect2_innerShadow_27_74267" result="effect3_innerShadow_27_74267"/></filter><filter id="filter16_d_27_74267" width="2.865" height="8.539" x="86.997" y="51.762" color-interpolation-filters="sRGB" filterUnits="userSpaceOnUse"><feFlood flood-opacity="0" result="BackgroundImageFix"/><feColorMatrix in="SourceAlpha" result="hardAlpha" values="0 0 0 0 0 0 0 0 0 0 0 0 0 0 0 0 0 0 127 0"/><feOffset dy=".808"/><feGaussianBlur stdDeviation=".404"/><feColorMatrix values="0 0 0 0 0 0 0 0 0 0 0 0 0 0 0 0 0 0 0.25 0"/><feBlend in2="BackgroundImageFix" result="effect1_dropShadow_27_74267"/><feBlend in="SourceGraphic" in2="effect1_dropShadow_27_74267" result="shape"/></filter><filter id="filter17_d_27_74267" width="8.54" height="2.867" x="84.16" y="54.598" color-interpolation-filters="sRGB" filterUnits="userSpaceOnUse"><feFlood flood-opacity="0" result="BackgroundImageFix"/><feColorMatrix in="SourceAlpha" result="hardAlpha" values="0 0 0 0 0 0 0 0 0 0 0 0 0 0 0 0 0 0 127 0"/><feOffset dy=".808"/><feGaussianBlur stdDeviation=".404"/><feColorMatrix values="0 0 0 0 0 0 0 0 0 0 0 0 0 0 0 0 0 0 0.25 0"/><feBlend in2="BackgroundImageFix" result="effect1_dropShadow_27_74267"/><feBlend in="SourceGraphic" in2="effect1_dropShadow_27_74267" result="shape"/></filter><linearGradient id="paint0_linear_27_74267" x1="73.714" x2="73.714" y1="2.766" y2="140.998" gradientUnits="userSpaceOnUse"><stop stop-color="#B5EFFF"/><stop offset="1" stop-color="#E7F8FE"/></linearGradient><linearGradient id="paint1_linear_27_74267" x1="72.84" x2="72.84" y1="2.766" y2="140.191" gradientUnits="userSpaceOnUse"><stop stop-color="#B5EFFF"/><stop offset="1" stop-color="#EDFBFF"/></linearGradient><linearGradient id="paint2_linear_27_74267" x1="32.855" x2="52.123" y1="34.59" y2="110.374" gradientUnits="userSpaceOnUse"><stop stop-color="#F9F9F9"/><stop offset="1" stop-color="#F8F8F8"/></linearGradient><linearGradient id="paint3_linear_27_74267" x1="158.16" x2="139.706" y1="81.127" y2="97.7" gradientUnits="userSpaceOnUse"><stop stop-color="#BAFFF1" stop-opacity=".26"/><stop offset=".682" stop-color="#4DC7AE"/><stop offset=".969" stop-color="#06896F"/></linearGradient><linearGradient id="paint4_linear_27_74267" x1="149.95" x2="138.727" y1="87.557" y2="106.458" gradientUnits="userSpaceOnUse"><stop stop-color="#B7FDEF"/><stop offset=".682" stop-color="#09B794"/><stop offset=".969" stop-color="#7EE0CC"/></linearGradient><linearGradient id="paint5_linear_27_74267" x1="150.207" x2="133.237" y1="113.999" y2="113.999" gradientUnits="userSpaceOnUse"><stop offset=".099" stop-color="#FFEEC5"/><stop offset=".607" stop-color="#FACD63"/><stop offset=".839" stop-color="#EAAF23"/><stop offset=".984" stop-color="#EDB52F"/></linearGradient><linearGradient id="paint6_linear_27_74267" x1="150.867" x2="132.671" y1="104" y2="104" gradientUnits="userSpaceOnUse"><stop offset=".099" stop-color="#FFEEC5"/><stop offset=".607" stop-color="#FCBD27"/><stop offset=".984" stop-color="#EFB222"/></linearGradient><linearGradient id="paint11_linear_27_74267" x1="58.678" x2="58.709" y1="91.254" y2="93.134" gradientUnits="userSpaceOnUse"><stop stop-color="#fff"/><stop offset=".271" stop-color="#fff"/><stop offset="1" stop-color="#B8B8B8"/></linearGradient><linearGradient id="paint12_linear_27_74267" x1="54.745" x2="54.77" y1="87.172" y2="89.052" gradientUnits="userSpaceOnUse"><stop stop-color="#fff"/><stop offset=".271" stop-color="#fff"/><stop offset="1" stop-color="#B8B8B8"/></linearGradient><radialGradient id="paint7_radial_27_74267" cx="0" cy="0" r="1" gradientTransform="rotate(-15.177 289.067 27.426) scale(10.5545)" gradientUnits="userSpaceOnUse"><stop stop-color="#E6C6FF"/><stop offset=".188" stop-color="#C07DF5"/><stop offset=".318" stop-color="#BE6FFC"/><stop offset=".49" stop-color="#B56AF0"/><stop offset=".651" stop-color="#A745F4"/><stop offset=".948" stop-color="#9F3DED"/></radialGradient><radialGradient id="paint8_radial_27_74267" cx="0" cy="0" r="1" gradientTransform="rotate(121.889 -19.5 39.296) scale(2.31151 2.1051)" gradientUnits="userSpaceOnUse"><stop stop-color="#fff"/><stop offset=".694" stop-color="#fff" stop-opacity="0"/></radialGradient><radialGradient id="paint9_radial_27_74267" cx="0" cy="0" r="1" gradientTransform="rotate(-15.177 62.609 -339.862) scale(14.5125)" gradientUnits="userSpaceOnUse"><stop stop-color="#FFF1CF"/><stop offset=".188" stop-color="#FFE4A2"/><stop offset=".318" stop-color="#FFD364"/><stop offset=".49" stop-color="#FFD364"/><stop offset=".651" stop-color="#FFC73A"/><stop offset=".948" stop-color="#D09500"/></radialGradient><radialGradient id="paint10_radial_27_74267" cx="0" cy="0" r="1" gradientTransform="rotate(121.889 44.785 27.827) scale(3.17833 2.89451)" gradientUnits="userSpaceOnUse"><stop stop-color="#fff"/><stop offset=".694" stop-color="#fff" stop-opacity="0"/></radialGradient></defs></svg>