<svg xmlns="http://www.w3.org/2000/svg" xmlns:xlink="http://www.w3.org/1999/xlink" width="120" height="119" viewBox="0 0 120 119"><defs><path id="fs-o70os0o4qa" d="M.767.295h21.801v24.08H.768z"/><path id="fs-z1oc48k7ac" d="M.643.313h40.29v17.14H.644z"/><path id="fs-74kdohc4he" d="M0 .592h6.923v6.924H0z"/></defs><g fill="none" fill-rule="evenodd"><path fill="#BDD6E0" fill-rule="nonzero" d="M55.462 16.794H44.407l-3.315 3.431-2.976-3.463h-1.54a7.19 7.19 0 01-6.984-7.307 7.193 7.193 0 016.977-7.353h18.893a7.194 7.194 0 016.984 7.353 7.194 7.194 0 01-6.984 7.34"/><path fill="#E4F0F4" fill-rule="nonzero" d="M36.377 16.378h-1.538a6.97 6.97 0 01-6.979-6.922 6.963 6.963 0 016.987-6.923h18.892a6.969 6.969 0 016.992 6.923 6.961 6.961 0 01-6.984 6.922l-9.447.432-4.338 3.414-3.585-3.846z"/><path fill="#BDD6E0" fill-rule="nonzero" d="M10.996 88.555h92.515a1.298 1.298 0 010 2.593H10.997a1.296 1.296 0 010-2.593m30.695-1.723h48.8a2.967 2.967 0 002.962-2.698l4.616-49.386a2.98 2.98 0 00-2.962-3.255 2.976 2.976 0 01-2.714-1.745l-2.74-6.023a2.968 2.968 0 00-2.709-1.746H56.422a2.977 2.977 0 00-2.705 1.746l-2.74 6.023a2.973 2.973 0 01-2.707 1.745H14.33a2.972 2.972 0 00-2.96 3.255l4.614 49.386a2.984 2.984 0 002.97 2.698h12.362"/><path fill="#025188" fill-rule="nonzero" d="M90.493 87.594H41.692a.77.77 0 010-1.538h48.8a2.2 2.2 0 002.2-2.008l4.616-49.378a2.158 2.158 0 00-.57-1.699 2.196 2.196 0 00-1.631-.723 3.746 3.746 0 01-3.407-2.192l-2.724-5.985a2.222 2.222 0 00-2.014-1.292H56.424a2.233 2.233 0 00-2.016 1.292l-2.732 6.022a3.762 3.762 0 01-3.407 2.194H14.33a2.204 2.204 0 00-2.2 2.422l4.615 49.379a2.2 2.2 0 002.209 2.006h12.362a.769.769 0 110 1.54H18.96a3.728 3.728 0 01-3.723-3.393l-4.615-49.385a3.737 3.737 0 013.724-4.094h33.922a2.228 2.228 0 002.016-1.306l2.753-6.045a3.743 3.743 0 013.4-2.194h30.539a3.762 3.762 0 013.407 2.194l2.724 6.045a2.205 2.205 0 002.016 1.291 3.743 3.743 0 012.762 1.227 3.743 3.743 0 01.96 2.867L94.23 84.224a3.723 3.723 0 01-3.738 3.37"/><path fill="#F0F2F2" fill-rule="nonzero" d="M91.5 38.233L25.624 23.987a6.06 6.06 0 00-7.146 4.354L15.4 39.879"/><path fill="#025188" fill-rule="nonzero" d="M15.346 40.77a.742.742 0 01-.223 0 .85.85 0 01-.499-.428.845.845 0 01-.047-.655l3.077-11.539a6.923 6.923 0 018.16-4.978l65.87 14.246c.226.05.42.186.547.38a.855.855 0 01.114.652.853.853 0 01-1.022.662L25.439 24.84a5.206 5.206 0 00-6.154 3.74l-3.078 11.537a.867.867 0 01-.86.654"/><path fill="#FFF" fill-rule="nonzero" d="M91.846 38.233H14.33a2.791 2.791 0 00-2.962 2.916l4.616 44.207a2.875 2.875 0 002.97 2.415h12.36"/><path fill="#025188" fill-rule="nonzero" d="M31.316 88.495H18.96a3.578 3.578 0 01-3.684-3.08L10.66 41.203a3.177 3.177 0 01.84-2.462 3.844 3.844 0 012.853-1.23h77.492c.4 0 .722.322.722.723a.72.72 0 01-.722.722H14.33a2.383 2.383 0 00-1.783.77 1.735 1.735 0 00-.461 1.362L16.7 85.294a2.178 2.178 0 002.246 1.778h12.37a.724.724 0 01.688 1.1.726.726 0 01-.688.338v-.015z"/><path fill="#FFF" fill-rule="nonzero" d="M31.316 87.771h59.177a2.862 2.862 0 002.96-2.415l4.616-44.208a2.795 2.795 0 00-2.963-2.914H81.323"/><path fill="#025188" fill-rule="nonzero" d="M90.493 88.495H31.316a.724.724 0 110-1.44h59.177a2.175 2.175 0 002.246-1.776l4.614-44.207c.049-.5-.124-.997-.469-1.363a2.353 2.353 0 00-1.777-.769H81.322a.722.722 0 010-1.446h13.802a3.84 3.84 0 012.852 1.23c.62.67.922 1.572.832 2.478l-4.614 44.214a3.58 3.58 0 01-3.701 3.079"/><path fill="#FFF" fill-rule="nonzero" d="M83.2 44.463c14.326 0 25.938 11.614 25.938 25.94S97.526 96.34 83.2 96.34c-14.325 0-25.937-11.612-25.937-25.939 0-14.325 11.612-25.939 25.937-25.939"/><path fill="#BDD6E0" fill-rule="nonzero" d="M83.632 47.056c13.61 0 24.647 11.034 24.647 24.647 0 13.61-11.037 24.645-24.647 24.645-13.613 0-24.647-11.034-24.647-24.645 0-13.613 11.034-24.647 24.647-24.647"/><path fill="#025188" fill-rule="nonzero" d="M82.877 45.002A25.51 25.51 0 0064.83 88.545a25.508 25.508 0 0043.547-18.036c-.017-14.077-11.422-25.487-25.5-25.507m0 52.747a27.238 27.238 0 01-25.17-16.811 27.236 27.236 0 0135.584-35.593 27.235 27.235 0 0116.815 25.164c-.015 15.034-12.195 27.218-27.229 27.24"/><path fill="#FFF" fill-rule="nonzero" d="M82.877 49.971c11.344 0 20.539 9.195 20.539 20.539 0 11.344-9.195 20.539-20.539 20.539-11.343 0-20.538-9.195-20.538-20.54 0-11.343 9.195-20.538 20.538-20.538"/><path fill="#025188" fill-rule="nonzero" d="M82.877 50.886a19.625 19.625 0 107.5 37.753 19.621 19.621 0 0012.115-18.129c-.008-10.832-8.785-19.61-19.615-19.624m0 41.069c-11.844 0-21.446-9.602-21.446-21.445 0-11.846 9.602-21.446 21.446-21.446 11.843 0 21.447 9.6 21.447 21.446-.017 11.837-9.61 21.43-21.447 21.445"/><path fill="#FFF" fill-rule="nonzero" d="M68.062 93.609l-4.115 5.085-3.362-2.723 4.115-5.085"/><path fill="#025188" fill-rule="nonzero" d="M64.069 99.91l-4.699-3.846 4.66-5.755a.874.874 0 011.18-.078.872.872 0 01.168 1.171L61.8 95.81l2.016 1.633 3.575-4.41a.868.868 0 011.48.24.863.863 0 01-.141.853l-4.661 5.784z"/><g transform="translate(43.125 94.312)"><mask id="fs-5enw86nuyb" fill="#fff"><use xlink:href="#fs-o70os0o4qa"/></mask><path fill="#025188" fill-rule="nonzero" d="M4.475 22.467a2.19 2.19 0 001.598.495 2.194 2.194 0 001.48-.778L21.075 5.866a.373.373 0 00.089-.278.372.372 0 00-.135-.26l-4.262-3.529a.373.373 0 00-.53.053L2.704 18.158a2.198 2.198 0 00-.495 1.6 2.2 2.2 0 00.78 1.48l1.485 1.23zm1.384 1.91a3.571 3.571 0 01-2.306-.826l-1.485-1.23a3.592 3.592 0 01-.478-5.053L15.144.944A1.788 1.788 0 0117.66.706l4.262 3.53a1.8 1.8 0 01.238 2.522L8.628 23.075a3.571 3.571 0 01-2.769 1.301z" mask="url(#fs-5enw86nuyb)"/></g><path fill="#025188" fill-rule="nonzero" d="M82.877 78.334a1.876 1.876 0 11-.001 3.751 1.876 1.876 0 01.001-3.75m2.838-5.194a7.231 7.231 0 004.401-6.663v-.098a7.24 7.24 0 10-14.477.07 1.353 1.353 0 002.706 0 4.532 4.532 0 119.062 0v.052a4.529 4.529 0 01-2.753 4.116 5.277 5.277 0 00-3.131 4.83 1.354 1.354 0 002.707 0c0-.994.582-1.896 1.485-2.307m17.723-24.939a.693.693 0 01-.176 0 .861.861 0 01-.677-1.016l1.485-7.185a.866.866 0 011.57-.304c.125.191.17.426.121.65l-1.477 7.186a.869.869 0 01-.846.67m4.984 2.907a.872.872 0 01-.791-.52.87.87 0 01.154-.933l4.83-5.248a.886.886 0 011.301 1.2l-4.824 5.246a.88.88 0 01-.67.255m3.309 5.461a.873.873 0 01-.769-.538.854.854 0 01.002-.666.855.855 0 01.475-.465l6.776-2.761a.868.868 0 011.129.472.866.866 0 01-.475 1.127l-6.785 2.762a.76.76 0 01-.353.07m-84.739 6.046c-3.176 0-4.23-3.079-4.276-3.185a.866.866 0 01.545-1.094.867.867 0 011.093.548 2.747 2.747 0 005.284 0 .866.866 0 011.093-.548.866.866 0 01.546 1.094c-.047.13-1.1 3.185-4.285 3.185m16 0c-3.176 0-4.23-3.079-4.276-3.185a.866.866 0 01.545-1.094.867.867 0 011.093.548 2.747 2.747 0 005.284 0 .866.866 0 011.093-.548.866.866 0 01.546 1.094c-.047.13-1.1 3.185-4.285 3.185m-2.162 9.514a.876.876 0 01-.768-.476s-1.54-2.985-4.416-2.985c-2.876 0-4.39 2.953-4.408 2.985a.87.87 0 01-1.54-.769c.087-.163 2.018-3.94 5.963-3.94 3.947 0 5.884 3.777 5.963 3.94a.871.871 0 01-.77 1.253l-.023-.008z"/><path fill="#FFF" fill-rule="nonzero" d="M106.546 29.764a2.592 2.592 0 11.001 5.184 2.592 2.592 0 01-.001-5.184"/><path fill="#025188" fill-rule="nonzero" d="M106.546 30.625a1.731 1.731 0 10-.012 3.463 1.731 1.731 0 00.012-3.463m0 5.192a3.463 3.463 0 01-2.458-5.906 3.465 3.465 0 013.774-.754 3.46 3.46 0 012.14 3.199 3.47 3.47 0 01-3.456 3.461"/><g transform="translate(23.5 .562)"><mask id="fs-jmi26h0o7d" fill="#fff"><use xlink:href="#fs-z1oc48k7ac"/></mask><path fill="#025188" fill-rule="nonzero" d="M32.107 17.448H20.792a.869.869 0 110-1.73h11.315a6.84 6.84 0 100-13.669H9.47a6.838 6.838 0 100 13.669h3.077a.868.868 0 010 1.73H9.469a8.57 8.57 0 110-17.132h22.638a8.569 8.569 0 110 17.132" mask="url(#fs-jmi26h0o7d)"/></g><path fill="#025188" fill-rule="nonzero" d="M40.062 22.264l-4.423-4.424a.874.874 0 111.247-1.222l3.198 3.199 3.2-3.2a.865.865 0 011.223 1.223l-4.445 4.424z"/><path fill="#FFF" fill-rule="nonzero" d="M35.639 7.573a1.876 1.876 0 11-.001 3.751 1.876 1.876 0 010-3.751"/><path fill="#025188" fill-rule="nonzero" d="M35.639 8.58a.87.87 0 10.868.875.864.864 0 00-.247-.62.867.867 0 00-.621-.256m0 3.461a2.6 2.6 0 110-5.2 2.6 2.6 0 010 5.2"/><path fill="#FFF" fill-rule="nonzero" d="M44.07 7.573a1.876 1.876 0 11-.002 3.751 1.876 1.876 0 01.001-3.751"/><path fill="#025188" fill-rule="nonzero" d="M44.07 8.58a.87.87 0 10.87.875.865.865 0 00-.87-.876m0 3.461a2.602 2.602 0 01-1.835-4.443 2.6 2.6 0 111.834 4.443"/><path fill="#FFF" fill-rule="nonzero" d="M52.5 7.573a1.876 1.876 0 11-.001 3.751 1.876 1.876 0 01.001-3.751"/><path fill="#025188" fill-rule="nonzero" d="M52.5 8.58a.868.868 0 10.868.875.856.856 0 00-.868-.876m0 3.461a2.6 2.6 0 110-5.2 2.6 2.6 0 010 5.2"/><g fill-rule="nonzero"><path fill="#F0F2F2" d="M26.131 37.549l1.731-5.194"/><path fill="#025188" d="M26.116 38.41a.866.866 0 01-.77-1.138l1.731-5.187a.863.863 0 111.64.548l-1.724 5.184a.88.88 0 01-.877.593"/></g><g fill-rule="nonzero"><path fill="#F0F2F2" d="M33.823 37.517l1.047-3.406"/><path fill="#025188" d="M33.808 38.387a.953.953 0 01-.253 0 .87.87 0 01-.578-1.086l1.054-3.407a.86.86 0 011.646.508l-1.046 3.407a.863.863 0 01-.823.578"/></g><path fill="#FFF" fill-rule="nonzero" d="M3.469 75.148a2.593 2.593 0 110 5.185 2.593 2.593 0 010-5.185"/><g transform="translate(0 73.687)"><mask id="fs-6x4e96plqf" fill="#fff"><use xlink:href="#fs-74kdohc4he"/></mask><path fill="#025188" fill-rule="nonzero" d="M3.469 2.322a1.732 1.732 0 00-1.234 2.953c.493.497 1.24.645 1.886.377a1.727 1.727 0 001.071-1.598c0-.954-.77-1.726-1.723-1.732m0 5.194A3.465 3.465 0 011.01 1.608a3.464 3.464 0 015.912 2.446 3.47 3.47 0 01-3.454 3.462" mask="url(#fs-6x4e96plqf)"/></g></g></svg>