<svg xmlns="http://www.w3.org/2000/svg" xmlns:xlink="http://www.w3.org/1999/xlink" width="180" height="149" viewBox="0 0 180 149"><defs><path id="fs-064nx6ggaa" d="M.436.247h10.552V10.8H.436z"/><path id="fs-fpaypxeooc" d="M0 .957h10.551v10.552H0z"/><path id="fs-rooye5ek2e" d="M.073 0h148.853v149H.073z"/></defs><g fill="none" fill-rule="evenodd"><g transform="translate(169 103)"><mask id="fs-kbv9amy5nb" fill="#fff"><use xlink:href="#fs-064nx6ggaa"/></mask><path fill="#E6E7E8" d="M10.709 5.138a7.368 7.368 0 01-4.61-4.61.408.408 0 00-.773 0 7.372 7.372 0 01-4.61 4.61.408.408 0 000 .773 7.381 7.381 0 014.61 4.609.408.408 0 00.774 0 7.375 7.375 0 014.608-4.61.405.405 0 000-.772" mask="url(#fs-kbv9amy5nb)"/></g><g transform="translate(0 120)"><mask id="fs-u6euvf70ad" fill="#fff"><use xlink:href="#fs-fpaypxeooc"/></mask><path fill="#C5EDF9" d="M10.27 5.846a7.368 7.368 0 01-4.607-4.607.408.408 0 00-.774 0A7.371 7.371 0 01.282 5.846a.406.406 0 000 .773 7.377 7.377 0 014.607 4.609.408.408 0 00.774 0 7.375 7.375 0 014.608-4.61.405.405 0 000-.772" mask="url(#fs-u6euvf70ad)"/></g><path fill="#FFF" d="M166.118 1.628v4.734"/><path fill="#C5EDF9" d="M166.118 7.112a.75.75 0 01-.75-.75V1.628a.75.75 0 011.5 0v4.734a.75.75 0 01-.75.75"/><path fill="#FFF" d="M168.485 3.995h-4.734"/><path fill="#C5EDF9" d="M168.485 4.745h-4.734a.75.75 0 010-1.5h4.734a.75.75 0 110 1.5"/><path fill="#E6E7E8" d="M21.723 27.36a2.703 2.703 0 01-5.404 0v-.001a2.701 2.701 0 015.404.002"/><g transform="translate(20)"><mask id="fs-xao54od3zf" fill="#fff"><use xlink:href="#fs-rooye5ek2e"/></mask><path fill="#F8F8F8" d="M6.318 56.234C3.32 40.432 7 28.444 17.353 20.27 32.883 8.01 53.316-5.475 72.932 2.29c18.39-3.287 40.44-5.33 64.96 33.085 13.018 14.734 14.517 33.669 4.497 56.805-3.216 11.17-7.166 18.532-11.852 22.086-3.35 12.686-17.573 29.425-26.564 30.242-7.683 4.069-26.155 9.399-46.18-4.496-18.308.8-62.953-6.946-57.214-61.71 1.635-10.636 3.548-17.993 5.74-22.068h-.001z" mask="url(#fs-xao54od3zf)"/></g><path fill="#D0F1FF" d="M124.759 114.436a8.346 8.346 0 01-4.443-2.304L99.052 91.097a8.392 8.392 0 01-2.498-5.956 8.384 8.384 0 012.434-5.982 8.38 8.38 0 015.957-2.497 8.38 8.38 0 015.982 2.432l21.263 21.035c3.309 3.275 3.338 8.63.064 11.94a8.389 8.389 0 01-5.957 2.498 8.526 8.526 0 01-1.538-.131"/><path stroke="#939598" d="M124.759 114.436a8.346 8.346 0 01-4.443-2.304L99.052 91.097a8.392 8.392 0 01-2.498-5.956 8.384 8.384 0 012.434-5.982 8.38 8.38 0 015.957-2.497 8.38 8.38 0 015.982 2.432l21.263 21.035c3.309 3.275 3.338 8.63.064 11.94a8.389 8.389 0 01-5.957 2.498 8.526 8.526 0 01-1.538-.131z"/><path fill="#E6E6E6" d="M106.476 43.35c11.723 11.596 11.824 30.5.228 42.222-11.596 11.721-30.5 11.822-42.223.227-11.722-11.597-11.823-30.5-.227-42.223 11.597-11.721 30.5-11.823 42.222-.227"/><path stroke="#979797" d="M106.476 43.35c11.723 11.596 11.824 30.5.228 42.222-11.596 11.721-30.5 11.822-42.223.227-11.722-11.597-11.823-30.5-.227-42.223 11.597-11.721 30.5-11.823 42.222-.227"/><path fill="#FFF" d="M99.914 49.984c8.058 7.972 8.128 20.966.156 29.024-7.972 8.059-20.966 8.128-29.024.156-8.058-7.971-8.128-20.966-.157-29.024 7.972-8.058 20.967-8.128 29.025-.156"/><path stroke="#979797" d="M99.914 49.984c8.058 7.972 8.128 20.966.156 29.024-7.972 8.059-20.966 8.128-29.024.156-8.058-7.971-8.128-20.966-.157-29.024 7.972-8.058 20.967-8.128 29.025-.156"/></g></svg>