<svg xmlns="http://www.w3.org/2000/svg" width="180" height="169" fill="none" viewBox="0 0 180 169"><mask id="fs-4hanazy2qa" style="mask-type:alpha" width="169" height="169" x="4" y="0" maskUnits="userSpaceOnUse"><path fill="url(#paint0_linear_3193_5483)" d="M88.86 168.4c46.391 0 83.999-37.608 83.999-84s-37.608-84-84-84c-46.391 0-84 37.608-84 84s37.608 84 84 84z"/></mask><g mask="url(#fs-4hanazy2qa)"><path fill="url(#paint1_linear_3193_5483)" d="M87.797 167.419c46.386 0 83.989-37.388 83.989-83.51C171.786 37.79 134.183.4 87.797.4S3.807 37.79 3.807 83.91s37.604 83.509 83.99 83.509z"/><path fill="#fff" d="M115.359 45.291a4.423 4.423 0 00-4.423 4.424v207.714h212.138V45.291H115.359zm207.092 13.187h-12.668V45.81h12.668v12.668zM217.264 137.81v-12.668h12.668v12.668h-12.668zm12.668.623V151.1h-12.668v-12.668h12.668zm-13.187-.623h-12.668v-12.668h12.668v12.668zm0 .623V151.1h-12.668v-12.668h12.668zM203.454 151.1h-12.668v-12.668h12.668V151.1zm0 .52v12.668h-12.668V151.62h12.668zm.623 0h12.668v12.668h-12.668V151.62zm12.668 13.187v12.668h-12.668v-12.668h12.668zm.519 0h12.668v12.668h-12.668v-12.668zm0-.519V151.62h12.668v12.668h-12.668zm13.187-12.668h12.668v12.668h-12.668V151.62zm0-.52v-12.668h12.668V151.1h-12.668zm0-13.291v-12.668h12.668v12.668h-12.668zm0-13.187v-12.668h12.668v12.668h-12.668zm-.519 0h-12.668v-12.668h12.668v12.668zm-13.187 0h-12.668v-12.668h12.668v12.668zm-13.291 0h-12.668v-12.668h12.668v12.668zm0 .519v12.668h-12.668v-12.668h12.668zm-13.187 12.668h-12.668v-12.668h12.668v12.668zm0 .623V151.1h-12.668v-12.668h12.668zm0 13.188v12.668h-12.668V151.62h12.668zm0 13.187v12.668h-12.668v-12.668h12.668zm.519 0h12.668v12.668h-12.668v-12.668zm12.668 13.291v12.668h-12.668v-12.668h12.668zm.623 0h12.668v12.668h-12.668v-12.668zm13.187 0h12.668v12.668h-12.668v-12.668zm13.187 0h12.668v12.668h-12.668v-12.668zm0-.623v-12.668h12.668v12.668h-12.668zm13.291-12.668h12.669v12.668h-12.669v-12.668zm0-.519V151.62h12.669v12.668h-12.669zm0-13.188v-12.668h12.669V151.1h-12.669zm0-13.291v-12.668h12.669v12.668h-12.669zm0-13.187v-12.668h12.669v12.668h-12.669zm0-13.187V98.767h12.669v12.668h-12.669zm-.623 0h-12.668V98.767h12.668v12.668zm-13.187 0h-12.668V98.767h12.668v12.668zm-13.187 0h-12.668V98.767h12.668v12.668zm-13.291 0h-12.668V98.767h12.668v12.668zm-13.187 0h-12.668V98.767h12.668v12.668zm0 .519v12.668h-12.668v-12.668h12.668zm-13.188 12.668h-12.668v-12.668h12.668v12.668zm0 .519v12.668h-12.668v-12.668h12.668zm0 13.291V151.1h-12.668v-12.668h12.668zm0 13.188v12.668h-12.668V151.62h12.668zm0 13.187v12.668h-12.668v-12.668h12.668zm0 13.291v12.668h-12.668v-12.668h12.668zm.52 0h12.668v12.668h-12.668v-12.668zm12.668 13.187v12.668h-12.668v-12.668h12.668zm.519 0h12.668v12.668h-12.668v-12.668zm13.291 0h12.668v12.668h-12.668v-12.668zm13.187 0h12.668v12.668h-12.668v-12.668zm13.187 0h12.668v12.668h-12.668v-12.668zm13.291 0h12.669v12.668h-12.669v-12.668zm0-.519v-12.668h12.669v12.668h-12.669zm13.188-12.668h12.668v12.668H256.93v-12.668zm0-.623v-12.668h12.668v12.668H256.93zm0-13.187V151.62h12.668v12.668H256.93zm0-13.188v-12.668h12.668V151.1H256.93zm0-13.291v-12.668h12.668v12.668H256.93zm0-13.187v-12.668h12.668v12.668H256.93zm0-13.187V98.767h12.668v12.668H256.93zm0-13.291V85.476h12.668v12.668H256.93zm-.519 0h-12.669V85.476h12.669v12.668zm-13.292 0h-12.668V85.476h12.668v12.668zm-13.187 0h-12.668V85.476h12.668v12.668zm-13.187 0h-12.668V85.476h12.668v12.668zm-13.291 0h-12.668V85.476h12.668v12.668zm-13.187 0h-12.668V85.476h12.668v12.668zm-13.188 0h-12.668V85.476h12.668v12.668zm0 .623v12.668h-12.668V98.767h12.668zm-13.291 12.668H151.12V98.767h12.668v12.668zm0 .519v12.668H151.12v-12.668h12.668zm0 13.187v12.668H151.12v-12.668h12.668zm0 13.291V151.1H151.12v-12.668h12.668zm0 13.188v12.668H151.12V151.62h12.668zm0 13.187v12.668H151.12v-12.668h12.668zm0 13.291v12.668H151.12v-12.668h12.668zm0 13.187v12.668H151.12v-12.668h12.668zm.623 0h12.668v12.668h-12.668v-12.668zm12.668 13.187v12.668h-12.668v-12.668h12.668zm.52 0h12.668v12.668h-12.668v-12.668zm13.187 0h12.668v12.668h-12.668v-12.668zm13.291 0h12.668v12.668h-12.668v-12.668zm13.187 0h12.668v12.668h-12.668v-12.668zm13.187 0h12.668v12.668h-12.668v-12.668zm13.291 0h12.669v12.668h-12.669v-12.668zm13.188 0h12.668v12.668H256.93v-12.668zm0-.519v-12.668h12.668v12.668H256.93zm13.187-12.668h12.668v12.668h-12.668v-12.668zm0-.519v-12.668h12.668v12.668h-12.668zm0-13.291v-12.668h12.668v12.668h-12.668zm0-13.187V151.62h12.668v12.668h-12.668zm0-13.188v-12.668h12.668V151.1h-12.668zm0-13.291v-12.668h12.668v12.668h-12.668zm0-13.187v-12.668h12.668v12.668h-12.668zm0-13.187V98.767h12.668v12.668h-12.668zm0-13.291V85.476h12.668v12.668h-12.668zm0-13.187V72.289h12.668v12.668h-12.668zm-.519 0H256.93V72.289h12.668v12.668zm-13.187 0h-12.669V72.289h12.669v12.668zm-13.292 0h-12.668V72.289h12.668v12.668zm-13.187 0h-12.668V72.289h12.668v12.668zm-13.187 0h-12.668V72.289h12.668v12.668zm-13.291 0h-12.668V72.289h12.668v12.668zm-13.187 0h-12.668V72.289h12.668v12.668zm-13.188 0h-12.668V72.289h12.668v12.668zm-13.291 0H151.12V72.289h12.668v12.668zm0 .519v12.668H151.12V85.476h12.668zm-13.187 12.668h-12.668V85.476h12.668v12.668zm0 .623v12.668h-12.668V98.767h12.668zm0 13.187v12.668h-12.668v-12.668h12.668zm0 13.187v12.668h-12.668v-12.668h12.668zm0 13.291V151.1h-12.668v-12.668h12.668zm0 13.188v12.668h-12.668V151.62h12.668zm0 13.187v12.668h-12.668v-12.668h12.668zm0 13.291v12.668h-12.668v-12.668h12.668zm0 13.187v12.668h-12.668v-12.668h12.668zm0 13.187v12.668h-12.668v-12.668h12.668zm.519 0h12.668v12.668H151.12v-12.668zm12.668 13.292v12.668H151.12v-12.668h12.668zm.623 0h12.668v12.668h-12.668v-12.668zm13.188 0h12.668v12.668h-12.668v-12.668zm13.187 0h12.668v12.668h-12.668v-12.668zm13.291 0h12.668v12.668h-12.668v-12.668zm13.187 0h12.668v12.668h-12.668v-12.668zm13.187 0h12.668v12.668h-12.668v-12.668zm13.291 0h12.669v12.668h-12.669v-12.668zm13.188 0h12.668v12.668H256.93v-12.668zm13.187 0h12.668v12.668h-12.668v-12.668zm0-.624v-12.668h12.668v12.668h-12.668zm13.291-12.668h12.668v12.668h-12.668v-12.668zm0-.519v-12.668h12.668v12.668h-12.668zm0-13.187v-12.668h12.668v12.668h-12.668zm0-13.291v-12.668h12.668v12.668h-12.668zm0-13.187V151.62h12.668v12.668h-12.668zm0-13.188v-12.668h12.668V151.1h-12.668zm0-13.291v-12.668h12.668v12.668h-12.668zm0-13.187v-12.668h12.668v12.668h-12.668zm0-13.187V98.767h12.668v12.668h-12.668zm0-13.291V85.476h12.668v12.668h-12.668zm0-13.187V72.289h12.668v12.668h-12.668zm0-13.188V59.101h12.668V71.77h-12.668zm-.623 0h-12.668V59.101h12.668V71.77zm-13.187 0H256.93V59.101h12.668V71.77zm-13.187 0h-12.669V59.101h12.669V71.77zm-13.292 0h-12.668V59.101h12.668V71.77zm-13.187 0h-12.668V59.101h12.668V71.77zm-13.187 0h-12.668V59.101h12.668V71.77zm-13.291 0h-12.668V59.101h12.668V71.77zm-13.187 0h-12.668V59.101h12.668V71.77zm-13.188 0h-12.668V59.101h12.668V71.77zm-13.291 0H151.12V59.101h12.668V71.77zm-13.187 0h-12.668V59.101h12.668V71.77zm0 .52v12.668h-12.668V72.289h12.668zm-13.187 12.668h-12.668V72.289h12.668v12.668zm0 .519v12.668h-12.668V85.476h12.668zm0 13.29v12.669h-12.668V98.767h12.668zm0 13.188v12.668h-12.668v-12.668h12.668zm0 13.187v12.668h-12.668v-12.668h12.668zm0 13.291V151.1h-12.668v-12.668h12.668zm0 13.188v12.668h-12.668V151.62h12.668zm0 13.187v12.668h-12.668v-12.668h12.668zm0 13.291v12.668h-12.668v-12.668h12.668zm0 13.187v12.668h-12.668v-12.668h12.668zm0 13.187v12.668h-12.668v-12.668h12.668zm0 13.292v12.668h-12.668v-12.668h12.668zm.519 0h12.668v12.668h-12.668v-12.668zm12.668 13.187v12.668h-12.668v-12.668h12.668zm.519 0h12.668v12.668H151.12v-12.668zm13.291 0h12.668v12.668h-12.668v-12.668zm13.188 0h12.668v12.668h-12.668v-12.668zm13.187 0h12.668v12.668h-12.668v-12.668zm13.291 0h12.668v12.668h-12.668v-12.668zm13.187 0h12.668v12.668h-12.668v-12.668zm13.187 0h12.668v12.668h-12.668v-12.668zm13.291 0h12.669v12.668h-12.669v-12.668zm13.188 0h12.668v12.668H256.93v-12.668zm13.187 0h12.668v12.668h-12.668v-12.668zm13.291 0h12.668v12.668h-12.668v-12.668zm0-.519v-12.668h12.668v12.668h-12.668zm13.187-12.668h12.668v12.668h-12.668v-12.668zm0-.624v-12.668h12.668v12.668h-12.668zm0-13.187v-12.668h12.668v12.668h-12.668zm0-13.187v-12.668h12.668v12.668h-12.668zm0-13.291v-12.668h12.668v12.668h-12.668zm0-13.187V151.62h12.668v12.668h-12.668zm0-13.188v-12.668h12.668V151.1h-12.668zm0-13.291v-12.668h12.668v12.668h-12.668zm0-13.187v-12.668h12.668v12.668h-12.668zm0-13.187V98.767h12.668v12.668h-12.668zm0-13.291V85.476h12.668v12.668h-12.668zm0-13.187V72.289h12.668v12.668h-12.668zm0-13.188V59.101h12.668V71.77h-12.668zm0-13.29V45.81h12.668v12.668h-12.668zm-.519 0h-12.668V45.81h12.668v12.668zm-13.291 0h-12.668V45.81h12.668v12.668zm-13.187 0H256.93V45.81h12.668v12.668zm-13.187 0h-12.669V45.81h12.669v12.668zm-13.292 0h-12.668V45.81h12.668v12.668zm-13.187 0h-12.668V45.81h12.668v12.668zm-13.187 0h-12.668V45.81h12.668v12.668zm-13.291 0h-12.668V45.81h12.668v12.668zm-13.187 0h-12.668V45.81h12.668v12.668zm-13.188 0h-12.668V45.81h12.668v12.668zm-13.291 0H151.12V45.81h12.668v12.668zm-13.187 0h-12.668V45.81h12.668v12.668zm-13.187 0h-12.668V45.81h12.668v12.668zm0 .622V71.77h-12.668V59.101h12.668zM124.123 71.77h-12.668V59.101h12.668V71.77zm0 .52v12.668h-12.668V72.289h12.668zm0 13.187v12.668h-12.668V85.476h12.668zm0 13.29v12.669h-12.668V98.767h12.668zm0 13.188v12.668h-12.668v-12.668h12.668zm0 13.187v12.668h-12.668v-12.668h12.668zm0 13.291V151.1h-12.668v-12.668h12.668zm0 13.188v12.668h-12.668V151.62h12.668zm0 13.187v12.668h-12.668v-12.668h12.668zm0 13.291v12.668h-12.668v-12.668h12.668zm0 13.187v12.668h-12.668v-12.668h12.668zm0 13.187v12.668h-12.668v-12.668h12.668zm0 13.292v12.668h-12.668v-12.668h12.668zm0 13.187v12.668h-12.668v-12.668h12.668zm.623 0h12.668v12.668h-12.668v-12.668zm12.668 13.187v12.668h-12.668v-12.668h12.668zm.519 0h12.668v12.668h-12.668v-12.668zm13.187 0h12.668v12.668H151.12v-12.668zm13.291 0h12.668v12.668h-12.668v-12.668zm13.188 0h12.668v12.668h-12.668v-12.668zm13.187 0h12.668v12.668h-12.668v-12.668zm13.291 0h12.668v12.668h-12.668v-12.668zm13.187 0h12.668v12.668h-12.668v-12.668zm13.187 0h12.668v12.668h-12.668v-12.668zm13.291 0h12.669v12.668h-12.669v-12.668zm13.188 0h12.668v12.668H256.93v-12.668zm13.187 0h12.668v12.668h-12.668v-12.668zm13.291 0h12.668v12.668h-12.668v-12.668zm13.187 0h12.668v12.668h-12.668v-12.668zm0-.519v-12.668h12.668v12.668h-12.668zm13.188-12.668h12.668v12.668h-12.668v-12.668zm0-.519v-12.668h12.668v12.668h-12.668zm0-13.292v-12.668h12.668v12.668h-12.668zm0-13.187v-12.668h12.668v12.668h-12.668zm0-13.187v-12.668h12.668v12.668h-12.668zm0-13.291v-12.668h12.668v12.668h-12.668zm0-13.187V151.62h12.668v12.668h-12.668zm0-13.188v-12.668h12.668V151.1h-12.668zm0-13.291v-12.668h12.668v12.668h-12.668zm0-13.187v-12.668h12.668v12.668h-12.668zm0-13.187V98.767h12.668v12.668h-12.668zm0-13.291V85.476h12.668v12.668h-12.668zm0-13.187V72.289h12.668v12.668h-12.668zm0-13.188V59.101h12.668V71.77h-12.668zM124.123 45.81v12.668h-12.668v-8.244a4.423 4.423 0 014.423-4.424h8.245zm-12.668 198.328h12.668v12.668h-12.668v-12.668zm198.328 12.668v-12.668h12.668v12.668h-12.668z"/></g><path fill="url(#paint2_radial_3193_5483)" d="M16.476 133.256c5.922 0 10.724-4.802 10.724-10.725s-4.802-10.724-10.724-10.724c-5.923 0-10.725 4.801-10.725 10.724s4.801 10.725 10.724 10.725z"/><path fill="url(#paint3_radial_3193_5483)" d="M10.273 122.008c-1.943-1.196-2.429-3.924-1.083-6.054 1.308-2.13 3.96-2.915 5.904-1.719 1.943 1.196 2.429 3.924 1.083 6.054-1.345 2.167-3.998 2.914-5.904 1.719z" opacity=".5"/><path fill="url(#paint4_radial_3193_5483)" d="M157.95 50.203a8.186 8.186 0 100-16.371 8.186 8.186 0 000 16.371z"/><path fill="url(#paint5_radial_3193_5483)" d="M153.216 41.619c-1.483-.913-1.853-2.995-.827-4.62.999-1.626 3.024-2.225 4.507-1.313 1.483.913 1.854 2.995.827 4.621-1.027 1.654-3.052 2.225-4.507 1.312z" opacity=".5"/><g filter="url(#filter0_f_3193_5483)"><ellipse cx="82.489" cy="145.437" fill="#000" fill-opacity=".37" rx="80.489" ry=".427"/></g><g filter="url(#filter1_iii_3193_5483)"><path fill="#4392F4" d="M118.783 123.32l-6.569 6.237a.476.476 0 01-.326.13h-67.13a2.597 2.597 0 01-2.599-2.602v-98.57a2.597 2.597 0 012.6-2.602h77.143c1.439 0 2.6 1.162 2.6 2.602v88.596a.473.473 0 01-.131.327l-5.588 5.882z"/></g><g filter="url(#filter2_di_3193_5483)"><path fill="#054599" d="M124.499 117.323l-12.724-1.449c-1.561 0-2.19 1.352-2.005 2.955l2.346 10.798 6.462-6.14 5.921-6.164z"/></g><g filter="url(#filter3_dii_3193_5483)"><rect width="60.246" height="2.778" x="52.88" y="43.371" fill="#F3F3F3" rx="1.389"/></g><g filter="url(#filter4_dii_3193_5483)"><rect width="43.341" height="2.778" x="52.88" y="59.957" fill="#F3F3F3" rx="1.389"/></g><g filter="url(#filter5_dii_3193_5483)"><rect width="24.554" height="2.778" x="52.88" y="76.659" fill="#F3F3F3" rx="1.389"/></g><g filter="url(#filter6_di_3193_5483)"><path fill="#FFC736" fill-rule="evenodd" d="M85.858 106.927c9.237 9.946 24.378 11.112 34.916 3.088l14.377 15.482a2.568 2.568 0 003.628.142 2.567 2.567 0 00.127-3.628l-14.378-15.482c8.78-9.917 8.736-25.103-.5-35.048-9.827-10.582-26.338-11.225-36.878-1.437-10.54 9.789-11.118 26.302-1.292 36.883zm3.755-3.486c-7.894-8.5-7.429-21.765 1.038-29.627 8.466-7.863 21.729-7.347 29.623 1.153 7.893 8.5 7.429 21.765-1.038 29.628-8.467 7.862-21.73 7.346-29.623-1.154z" clip-rule="evenodd"/></g><g filter="url(#filter7_ii_3193_5483)"><path fill="#F3F3F3" d="M104.958 94.582a1.19 1.19 0 01-.924-.394 1.37 1.37 0 01-.379-.952l-.18-15.12c-.005-.392.114-.712.356-.96.242-.273.547-.412.915-.416l.699-.008c.392-.005.713.126.961.393.248.242.375.56.379.952l.18 15.12c.005.367-.126.688-.393.96a1.191 1.191 0 01-.915.416l-.699.009zm.504 8.272c-.761.009-1.401-.229-1.922-.713-.496-.485-.749-1.107-.758-1.868-.009-.76.229-1.376.714-1.848.509-.496 1.144-.75 1.904-.758.785-.01 1.425.228 1.921.713.497.46.749 1.07.758 1.83.009.761-.229 1.389-.713 1.885-.485.497-1.12.749-1.904.759z"/></g><g filter="url(#filter8_i_3193_5483)"><path fill="url(#paint6_linear_3193_5483)" d="M156.022 120.512c-.049-.012-.098-.02-.137-.052-.941-.781 1.765-12.678 2.02-13.563 1.298-4.481 3.447-8.842 6.903-12.04 2.446-2.265 8.981-6.695 12.373-4.09 2.858 2.197.18 7.715-1.137 10.022-2.362 4.103-5.843 7.427-8.815 11.066-1.774 2.176-3.555 4.394-5.328 6.571-.121.157-1.11 1.561-1.789 2.38-.367.444-.898.516-1.456.375l-2.634-.669z"/></g><g filter="url(#filter9_i_3193_5483)"><path fill="url(#paint7_linear_3193_5483)" d="M159.918 124.105c1.45.312 2.742-.921 2.439-2.373-1.666-7.991-7.186-28.826-18.877-25.03-10.626 3.488 12.21 24.036 15.518 26.947.265.233.574.381.92.456z"/></g><path fill="#77FFE4" fill-opacity=".2" d="M146.663 100.857s13.673 17.847 13.83 21.622l-13.83-21.622zM173.138 94.287s-11.235 14.332-12.456 20.694l12.456-20.694z"/><path fill="url(#paint8_linear_3193_5483)" d="M145.967 120.094a2.35 2.35 0 012.339-2.575h19.929a2.35 2.35 0 012.339 2.575l-2.197 22.792a2.351 2.351 0 01-2.34 2.125h-15.533a2.35 2.35 0 01-2.339-2.125l-2.198-22.792z"/><g filter="url(#filter10_i_3193_5483)"><rect width="26.916" height="6.627" x="144.813" y="117.519" fill="url(#paint9_linear_3193_5483)" rx="1.175"/></g><defs><filter id="filter0_f_3193_5483" width="163.848" height="3.723" x=".565" y="143.576" color-interpolation-filters="sRGB" filterUnits="userSpaceOnUse"><feFlood flood-opacity="0" result="BackgroundImageFix"/><feBlend in="SourceGraphic" in2="BackgroundImageFix" result="shape"/><feGaussianBlur result="effect1_foregroundBlur_3193_5483" stdDeviation=".717"/></filter><filter id="filter1_iii_3193_5483" width="83.115" height="105.088" x="41.386" y="25.45" color-interpolation-filters="sRGB" filterUnits="userSpaceOnUse"><feFlood flood-opacity="0" result="BackgroundImageFix"/><feBlend in="SourceGraphic" in2="BackgroundImageFix" result="shape"/><feColorMatrix in="SourceAlpha" result="hardAlpha" values="0 0 0 0 0 0 0 0 0 0 0 0 0 0 0 0 0 0 127 0"/><feOffset dy="-.464"/><feGaussianBlur stdDeviation=".464"/><feComposite in2="hardAlpha" k2="-1" k3="1" operator="arithmetic"/><feColorMatrix values="0 0 0 0 0.089132 0 0 0 0 0.328429 0 0 0 0 0.629167 0 0 0 1 0"/><feBlend in2="shape" result="effect1_innerShadow_3193_5483"/><feColorMatrix in="SourceAlpha" result="hardAlpha" values="0 0 0 0 0 0 0 0 0 0 0 0 0 0 0 0 0 0 127 0"/><feOffset dy=".85"/><feGaussianBlur stdDeviation=".425"/><feComposite in2="hardAlpha" k2="-1" k3="1" operator="arithmetic"/><feColorMatrix values="0 0 0 0 0.641667 0 0 0 0 0.8495 0 0 0 0 1 0 0 0 1 0"/><feBlend in2="effect1_innerShadow_3193_5483" result="effect2_innerShadow_3193_5483"/><feColorMatrix in="SourceAlpha" result="hardAlpha" values="0 0 0 0 0 0 0 0 0 0 0 0 0 0 0 0 0 0 127 0"/><feOffset dx="-.773"/><feGaussianBlur stdDeviation=".386"/><feComposite in2="hardAlpha" k2="-1" k3="1" operator="arithmetic"/><feColorMatrix values="0 0 0 0 0 0 0 0 0 0 0 0 0 0 0 0 0 0 0.25 0"/><feBlend in2="effect2_innerShadow_3193_5483" result="effect3_innerShadow_3193_5483"/></filter><filter id="filter2_di_3193_5483" width="15.284" height="14.497" x="109.435" y="115.483" color-interpolation-filters="sRGB" filterUnits="userSpaceOnUse"><feFlood flood-opacity="0" result="BackgroundImageFix"/><feColorMatrix in="SourceAlpha" result="hardAlpha" values="0 0 0 0 0 0 0 0 0 0 0 0 0 0 0 0 0 0 127 0"/><feOffset dy=".132"/><feGaussianBlur stdDeviation=".11"/><feColorMatrix values="0 0 0 0 0 0 0 0 0 0 0 0 0 0 0 0 0 0 0.25 0"/><feBlend in2="BackgroundImageFix" result="effect1_dropShadow_3193_5483"/><feBlend in="SourceGraphic" in2="effect1_dropShadow_3193_5483" result="shape"/><feColorMatrix in="SourceAlpha" result="hardAlpha" values="0 0 0 0 0 0 0 0 0 0 0 0 0 0 0 0 0 0 127 0"/><feOffset dx="-.303" dy="-.391"/><feGaussianBlur stdDeviation=".195"/><feComposite in2="hardAlpha" k2="-1" k3="1" operator="arithmetic"/><feColorMatrix values="0 0 0 0 0.0505208 0 0 0 0 0.161469 0 0 0 0 0.404167 0 0 0 1 0"/><feBlend in2="shape" result="effect2_innerShadow_3193_5483"/></filter><filter id="filter3_dii_3193_5483" width="60.562" height="3.375" x="52.722" y="43.327" color-interpolation-filters="sRGB" filterUnits="userSpaceOnUse"><feFlood flood-opacity="0" result="BackgroundImageFix"/><feColorMatrix in="SourceAlpha" result="hardAlpha" values="0 0 0 0 0 0 0 0 0 0 0 0 0 0 0 0 0 0 127 0"/><feOffset dy=".395"/><feGaussianBlur stdDeviation=".079"/><feColorMatrix values="0 0 0 0 0 0 0 0 0 0 0 0 0 0 0 0 0 0 0.25 0"/><feBlend in2="BackgroundImageFix" result="effect1_dropShadow_3193_5483"/><feBlend in="SourceGraphic" in2="effect1_dropShadow_3193_5483" result="shape"/><feColorMatrix in="SourceAlpha" result="hardAlpha" values="0 0 0 0 0 0 0 0 0 0 0 0 0 0 0 0 0 0 127 0"/><feOffset dy=".474"/><feComposite in2="hardAlpha" k2="-1" k3="1" operator="arithmetic"/><feColorMatrix values="0 0 0 0 1 0 0 0 0 1 0 0 0 0 1 0 0 0 1 0"/><feBlend in2="shape" result="effect2_innerShadow_3193_5483"/><feColorMatrix in="SourceAlpha" result="hardAlpha" values="0 0 0 0 0 0 0 0 0 0 0 0 0 0 0 0 0 0 127 0"/><feOffset dx="-.022" dy="-.395"/><feGaussianBlur stdDeviation=".022"/><feComposite in2="hardAlpha" k2="-1" k3="1" operator="arithmetic"/><feColorMatrix values="0 0 0 0 0.833333 0 0 0 0 0.833333 0 0 0 0 0.833333 0 0 0 1 0"/><feBlend in2="effect2_innerShadow_3193_5483" result="effect3_innerShadow_3193_5483"/></filter><filter id="filter4_dii_3193_5483" width="43.657" height="3.375" x="52.722" y="59.913" color-interpolation-filters="sRGB" filterUnits="userSpaceOnUse"><feFlood flood-opacity="0" result="BackgroundImageFix"/><feColorMatrix in="SourceAlpha" result="hardAlpha" values="0 0 0 0 0 0 0 0 0 0 0 0 0 0 0 0 0 0 127 0"/><feOffset dy=".395"/><feGaussianBlur stdDeviation=".079"/><feColorMatrix values="0 0 0 0 0 0 0 0 0 0 0 0 0 0 0 0 0 0 0.25 0"/><feBlend in2="BackgroundImageFix" result="effect1_dropShadow_3193_5483"/><feBlend in="SourceGraphic" in2="effect1_dropShadow_3193_5483" result="shape"/><feColorMatrix in="SourceAlpha" result="hardAlpha" values="0 0 0 0 0 0 0 0 0 0 0 0 0 0 0 0 0 0 127 0"/><feOffset dy=".474"/><feComposite in2="hardAlpha" k2="-1" k3="1" operator="arithmetic"/><feColorMatrix values="0 0 0 0 1 0 0 0 0 1 0 0 0 0 1 0 0 0 1 0"/><feBlend in2="shape" result="effect2_innerShadow_3193_5483"/><feColorMatrix in="SourceAlpha" result="hardAlpha" values="0 0 0 0 0 0 0 0 0 0 0 0 0 0 0 0 0 0 127 0"/><feOffset dx="-.022" dy="-.395"/><feGaussianBlur stdDeviation=".022"/><feComposite in2="hardAlpha" k2="-1" k3="1" operator="arithmetic"/><feColorMatrix values="0 0 0 0 0.833333 0 0 0 0 0.833333 0 0 0 0 0.833333 0 0 0 1 0"/><feBlend in2="effect2_innerShadow_3193_5483" result="effect3_innerShadow_3193_5483"/></filter><filter id="filter5_dii_3193_5483" width="24.87" height="3.375" x="52.722" y="76.615" color-interpolation-filters="sRGB" filterUnits="userSpaceOnUse"><feFlood flood-opacity="0" result="BackgroundImageFix"/><feColorMatrix in="SourceAlpha" result="hardAlpha" values="0 0 0 0 0 0 0 0 0 0 0 0 0 0 0 0 0 0 127 0"/><feOffset dy=".395"/><feGaussianBlur stdDeviation=".079"/><feColorMatrix values="0 0 0 0 0 0 0 0 0 0 0 0 0 0 0 0 0 0 0.25 0"/><feBlend in2="BackgroundImageFix" result="effect1_dropShadow_3193_5483"/><feBlend in="SourceGraphic" in2="effect1_dropShadow_3193_5483" result="shape"/><feColorMatrix in="SourceAlpha" result="hardAlpha" values="0 0 0 0 0 0 0 0 0 0 0 0 0 0 0 0 0 0 127 0"/><feOffset dy=".474"/><feComposite in2="hardAlpha" k2="-1" k3="1" operator="arithmetic"/><feColorMatrix values="0 0 0 0 1 0 0 0 0 1 0 0 0 0 1 0 0 0 1 0"/><feBlend in2="shape" result="effect2_innerShadow_3193_5483"/><feColorMatrix in="SourceAlpha" result="hardAlpha" values="0 0 0 0 0 0 0 0 0 0 0 0 0 0 0 0 0 0 127 0"/><feOffset dx="-.022" dy="-.395"/><feGaussianBlur stdDeviation=".022"/><feComposite in2="hardAlpha" k2="-1" k3="1" operator="arithmetic"/><feColorMatrix values="0 0 0 0 0.833333 0 0 0 0 0.833333 0 0 0 0 0.833333 0 0 0 1 0"/><feBlend in2="effect2_innerShadow_3193_5483" result="effect3_innerShadow_3193_5483"/></filter><filter id="filter6_di_3193_5483" width="69.066" height="72.926" x="74.69" y="63.103" color-interpolation-filters="sRGB" filterUnits="userSpaceOnUse"><feFlood flood-opacity="0" result="BackgroundImageFix"/><feColorMatrix in="SourceAlpha" result="hardAlpha" values="0 0 0 0 0 0 0 0 0 0 0 0 0 0 0 0 0 0 127 0"/><feOffset dy="5.548"/><feGaussianBlur stdDeviation="2.08"/><feColorMatrix values="0 0 0 0 0 0 0 0 0 0 0 0 0 0 0 0 0 0 0.11 0"/><feBlend in2="BackgroundImageFix" result="effect1_dropShadow_3193_5483"/><feBlend in="SourceGraphic" in2="effect1_dropShadow_3193_5483" result="shape"/><feColorMatrix in="SourceAlpha" result="hardAlpha" values="0 0 0 0 0 0 0 0 0 0 0 0 0 0 0 0 0 0 127 0"/><feOffset dy="1.387"/><feGaussianBlur stdDeviation="1.04"/><feComposite in2="hardAlpha" k2="-1" k3="1" operator="arithmetic"/><feColorMatrix values="0 0 0 0 0.841667 0 0 0 0 0.561793 0 0 0 0 0.248993 0 0 0 1 0"/><feBlend in2="shape" result="effect2_innerShadow_3193_5483"/></filter><filter id="filter7_ii_3193_5483" width="5.316" height="26.216" x="102.763" y="76.695" color-interpolation-filters="sRGB" filterUnits="userSpaceOnUse"><feFlood flood-opacity="0" result="BackgroundImageFix"/><feBlend in="SourceGraphic" in2="BackgroundImageFix" result="shape"/><feColorMatrix in="SourceAlpha" result="hardAlpha" values="0 0 0 0 0 0 0 0 0 0 0 0 0 0 0 0 0 0 127 0"/><feOffset dy=".309"/><feGaussianBlur stdDeviation=".028"/><feComposite in2="hardAlpha" k2="-1" k3="1" operator="arithmetic"/><feColorMatrix values="0 0 0 0 1 0 0 0 0 1 0 0 0 0 1 0 0 0 1 0"/><feBlend in2="shape" result="effect1_innerShadow_3193_5483"/><feColorMatrix in="SourceAlpha" result="hardAlpha" values="0 0 0 0 0 0 0 0 0 0 0 0 0 0 0 0 0 0 127 0"/><feOffset dx="-.018" dy="-.29"/><feGaussianBlur stdDeviation=".018"/><feComposite in2="hardAlpha" k2="-1" k3="1" operator="arithmetic"/><feColorMatrix values="0 0 0 0 0.833333 0 0 0 0 0.833333 0 0 0 0 0.833333 0 0 0 1 0"/><feBlend in2="effect1_innerShadow_3193_5483" result="effect2_innerShadow_3193_5483"/></filter><filter id="filter8_i_3193_5483" width="23.89" height="31.706" x="155.688" y="89.54" color-interpolation-filters="sRGB" filterUnits="userSpaceOnUse"><feFlood flood-opacity="0" result="BackgroundImageFix"/><feBlend in="SourceGraphic" in2="BackgroundImageFix" result="shape"/><feColorMatrix in="SourceAlpha" result="hardAlpha" values="0 0 0 0 0 0 0 0 0 0 0 0 0 0 0 0 0 0 127 0"/><feOffset dx="1.127" dy="-.431"/><feGaussianBlur stdDeviation="1.469"/><feComposite in2="hardAlpha" k2="-1" k3="1" operator="arithmetic"/><feColorMatrix values="0 0 0 0 0.113056 0 0 0 0 0.616667 0 0 0 0 0.58645 0 0 0 1 0"/><feBlend in2="shape" result="effect1_innerShadow_3193_5483"/></filter><filter id="filter9_i_3193_5483" width="22.846" height="28.34" x="140.683" y="95.813" color-interpolation-filters="sRGB" filterUnits="userSpaceOnUse"><feFlood flood-opacity="0" result="BackgroundImageFix"/><feBlend in="SourceGraphic" in2="BackgroundImageFix" result="shape"/><feColorMatrix in="SourceAlpha" result="hardAlpha" values="0 0 0 0 0 0 0 0 0 0 0 0 0 0 0 0 0 0 127 0"/><feOffset dx="1.127" dy="-.431"/><feGaussianBlur stdDeviation="1.469"/><feComposite in2="hardAlpha" k2="-1" k3="1" operator="arithmetic"/><feColorMatrix values="0 0 0 0 0.0996528 0 0 0 0 0.683333 0 0 0 0 0.555806 0 0 0 1 0"/><feBlend in2="shape" result="effect1_innerShadow_3193_5483"/></filter><filter id="filter10_i_3193_5483" width="27.386" height="6.979" x="144.813" y="117.166" color-interpolation-filters="sRGB" filterUnits="userSpaceOnUse"><feFlood flood-opacity="0" result="BackgroundImageFix"/><feBlend in="SourceGraphic" in2="BackgroundImageFix" result="shape"/><feColorMatrix in="SourceAlpha" result="hardAlpha" values="0 0 0 0 0 0 0 0 0 0 0 0 0 0 0 0 0 0 127 0"/><feOffset dx=".47" dy="-.353"/><feGaussianBlur stdDeviation=".411"/><feComposite in2="hardAlpha" k2="-1" k3="1" operator="arithmetic"/><feColorMatrix values="0 0 0 0 0.833333 0 0 0 0 0.604343 0 0 0 0 0.0555555 0 0 0 1 0"/><feBlend in2="shape" result="effect1_innerShadow_3193_5483"/></filter><linearGradient id="paint0_linear_3193_5483" x1="88.859" x2="88.859" y1=".4" y2="168.4" gradientUnits="userSpaceOnUse"><stop stop-color="#B5EFFF"/><stop offset="1" stop-color="#E7F8FE"/></linearGradient><linearGradient id="paint1_linear_3193_5483" x1="87.797" x2="87.797" y1=".4" y2="167.419" gradientUnits="userSpaceOnUse"><stop stop-color="#B5EFFF"/><stop offset="1" stop-color="#EDFBFF"/></linearGradient><linearGradient id="paint6_linear_3193_5483" x1="181.749" x2="156.398" y1="90.46" y2="113.227" gradientUnits="userSpaceOnUse"><stop stop-color="#BAFFF1" stop-opacity=".26"/><stop offset=".682" stop-color="#4DC7AE"/><stop offset=".969" stop-color="#06896F"/></linearGradient><linearGradient id="paint7_linear_3193_5483" x1="170.471" x2="155.054" y1="99.295" y2="125.26" gradientUnits="userSpaceOnUse"><stop stop-color="#B7FDEF"/><stop offset=".682" stop-color="#09B794"/><stop offset=".969" stop-color="#7EE0CC"/></linearGradient><linearGradient id="paint8_linear_3193_5483" x1="170.822" x2="147.51" y1="135.617" y2="135.617" gradientUnits="userSpaceOnUse"><stop offset=".099" stop-color="#FFEEC5"/><stop offset=".607" stop-color="#FACD63"/><stop offset=".839" stop-color="#EAAF23"/><stop offset=".984" stop-color="#EDB52F"/></linearGradient><linearGradient id="paint9_linear_3193_5483" x1="171.73" x2="146.734" y1="121.881" y2="121.881" gradientUnits="userSpaceOnUse"><stop offset=".099" stop-color="#FFEEC5"/><stop offset=".607" stop-color="#FCBD27"/><stop offset=".984" stop-color="#EFB222"/></linearGradient><radialGradient id="paint2_radial_3193_5483" cx="0" cy="0" r="1" gradientTransform="rotate(-15.177 449.298 16.413) scale(20.4515)" gradientUnits="userSpaceOnUse"><stop stop-color="#FFF1CF"/><stop offset=".188" stop-color="#FFE4A2"/><stop offset=".318" stop-color="#FFD364"/><stop offset=".49" stop-color="#FFD364"/><stop offset=".651" stop-color="#FFC73A"/><stop offset=".948" stop-color="#D09500"/></radialGradient><radialGradient id="paint3_radial_3193_5483" cx="0" cy="0" r="1" gradientTransform="rotate(121.889 -26.494 62.592) scale(4.47901 4.07905)" gradientUnits="userSpaceOnUse"><stop stop-color="#fff"/><stop offset=".694" stop-color="#fff" stop-opacity="0"/></radialGradient><radialGradient id="paint4_radial_3193_5483" cx="0" cy="0" r="1" gradientTransform="rotate(-15.177 222.317 -558.823) scale(15.61)" gradientUnits="userSpaceOnUse"><stop stop-color="#E6C6FF"/><stop offset=".188" stop-color="#C07DF5"/><stop offset=".318" stop-color="#BE6FFC"/><stop offset=".49" stop-color="#B56AF0"/><stop offset=".651" stop-color="#A745F4"/><stop offset=".948" stop-color="#9F3DED"/></radialGradient><radialGradient id="paint5_radial_3193_5483" cx="0" cy="0" r="1" gradientTransform="rotate(121.889 66.774 62.405) scale(3.41869 3.11341)" gradientUnits="userSpaceOnUse"><stop stop-color="#fff"/><stop offset=".694" stop-color="#fff" stop-opacity="0"/></radialGradient></defs></svg>