<svg xmlns="http://www.w3.org/2000/svg" width="550" height="309" fill="none" viewBox="0 0 550 309"><g clip-path="url(#clip0)"><path fill="#EBEFF3" d="M491.89 185.254c-3.746-2.997-7.793-5.829-11.921-8.759-8.34-5.92-17.549-12.739-19.033-23.589-1.611-11.779 16.964-31.921 8.482-42.389-3.649-4.496-24.45 17.579-29.321-5.058-9.044-42.074-64.688-25.657-99.906-51.418-13.795-10.093-33.72-19.954-49.912-26.016-38.845-14.537-56.02 16.65-70.856 44.816-6.047 11.495-15.586 31.06-31.209 25.732-22.72-7.74-43.063-48.024-70.511-22.54-12.154 11.24-10.49 26.901-2.398 40.404 5.95 9.943 14.357 18.658 19.385 29.088 9.996 20.771-7.104 29.921-25.597 28.474-9.576-.749-19.594-2.532-28.474 1.05-12.431 5.027-17.07 18.448-15.256 31.081 3.072 21.386-14.237 55.892 5.013 63.393 50.099 19.482 135.552-25.957 187.862-29.486 38.5-2.6 81.601 15.773 120.16 14.312 19.678-.749 39.37-1.266 59.077-1.551 16.792-.225 34.229 2.398 50.856-.337 9.644-1.589 19.422-6.414 23.866-15.122 3.537-6.953 3.154-15.323 1.034-22.831-3.694-13.083-11.719-21.641-21.341-29.254z"/><path fill="#CFD7DF" d="M483.97 66.09c9.713 0 17.586-7.874 17.586-17.587 0-9.712-7.873-17.586-17.586-17.586-9.713 0-17.587 7.874-17.587 17.586 0 9.713 7.874 17.587 17.587 17.587z"/><path fill="#fff" d="M483.97 62.426c7.689 0 13.922-6.233 13.922-13.923 0-7.689-6.233-13.922-13.922-13.922-7.689 0-13.922 6.233-13.922 13.922 0 7.69 6.233 13.923 13.922 13.923z"/><path stroke="#92A2B1" stroke-miterlimit="10" stroke-width=".5" d="M466.316 48.503a17.651 17.651 0 0110.899-16.305 17.649 17.649 0 016.755-1.341m12.476 30.13a17.645 17.645 0 01-24.96 0m12.484-23.783V34.58m0 25.223v2.63m13.922-13.93h-2.63m-22.592 0h-2.63m23.776 9.847l-1.858-1.859m-15.976-15.975l-1.858-1.859m0 19.693l1.858-1.859m15.976-15.975l1.858-1.859m-9.704 2.293v8.153l4.099 8.654"/><path fill="#fff" d="M183.538 203.875h261.273a15.735 15.735 0 0115.735 15.735v56.072H167.847v-56.094a15.736 15.736 0 0115.691-15.713z"/><path stroke="#92A2B1" stroke-miterlimit="10" stroke-width=".5" d="M162.093 276.057v-97.921h8.991"/><path fill="#fff" d="M427.659 187.24v38.08a4.508 4.508 0 01-1.304 3.204 4.497 4.497 0 01-3.192 1.33h-239.67a4.533 4.533 0 01-4.496-4.534V71.418a4.497 4.497 0 014.496-4.496h239.64a4.496 4.496 0 014.496 4.496V172.14"/><path stroke="#273139" stroke-miterlimit="10" d="M427.659 187.24v38.08a4.508 4.508 0 01-1.304 3.204 4.497 4.497 0 01-3.192 1.33h-239.67a4.533 4.533 0 01-4.496-4.534V71.418a4.497 4.497 0 014.496-4.496h239.64a4.496 4.496 0 014.496 4.496V172.14"/><path fill="#273139" stroke="#273139" stroke-miterlimit="10" d="M183.493 66.892h239.64a4.496 4.496 0 014.496 4.496V87.82H178.96V71.418a4.486 4.486 0 011.319-3.212 4.496 4.496 0 013.214-1.314z"/><path fill="#fff" d="M187.083 79.728a2.083 2.083 0 100-4.167 2.083 2.083 0 000 4.166zm6.856 0a2.083 2.083 0 100-4.167 2.083 2.083 0 000 4.166zm6.848 0a2.083 2.083 0 100-4.166 2.083 2.083 0 000 4.166z"/><path stroke="#92A2B1" stroke-miterlimit="10" stroke-width=".5" d="M122.169 275.922h77.105m294.407 11.195h-51.545"/><path fill="#fff" d="M77.637 187.345l-1.986 23.154-5.507 64.246h-2.068v-87.4h9.561zm21.168 0v87.4h-2.06L90 196.149l-.756-8.804h9.561z"/><path fill="#CFD7DF" d="M68.076 187.345h9.561l-1.986 23.154-7.575 7.575v-30.729zm30.729 0L90 196.149l-.756-8.804h9.561z"/><path fill="#92A2B1" d="M106.995 182.167H59.878a2.9 2.9 0 00-2.9 2.9v.007a2.9 2.9 0 002.9 2.9h47.117a2.9 2.9 0 002.9-2.9v-.007a2.9 2.9 0 00-2.9-2.9z"/><path stroke="#92A2B1" stroke-miterlimit="10" stroke-width=".5" d="M68.076 187.345v30.729m2.068 56.671l2.945-34.356M90 196.149l3.792 44.187"/><path stroke="#fff" stroke-miterlimit="10" stroke-width=".5" d="M106.995 184.587H84.831"/><path fill="#92A2B1" d="M92.391 179.237H76.108l-4.78-20.134h25.844l-4.781 20.134z"/><path fill="#EBEFF3" d="M77.562 157.469c2.008-1.693 1.356-5.08-.412-7.021-1.768-1.94-4.279-2.997-6.37-4.556-2.09-1.558-3.746-3.851-3.439-6.361.308-2.511 3.417-4.549 5.463-3.073 1.004.75 1.431 2.001 1.76 3.193.33 1.191.66 2.472 1.56 3.327.899.854 2.577 1.011 3.252 0l1.168-14.238c.278-3.439 1.057-7.575 4.28-8.804 2.847-1.079 6.106.982 7.417 3.747 1.312 2.765 1.207 5.927 1.064 8.991l-1.191 25.11-14.552-.315z"/><path fill="#CFD7DF" d="M98.176 156.083H70.324v3.02h27.852v-3.02z"/><path stroke="#CFD7DF" stroke-miterlimit="10" stroke-width=".5" d="M71.665 163.801h12.753"/><path stroke="#fff" stroke-miterlimit="10" stroke-width=".5" d="M98.175 159.02h-13.93"/><path stroke="#92A2B1" stroke-miterlimit="10" stroke-width=".5" d="M69.192 138.204a8.94 8.94 0 007.778 8.1m6.01-24.24l-1.416 32.131m6.181-32.386l-2.15 32.611m5.417-29.284L89.17 154.45"/><path stroke="#92A2B1" stroke-miterlimit="10" stroke-width=".5" d="M67.82 139.763a2.667 2.667 0 001.762.652c.15-.592.225-1.251.374-1.843m10.596 5.402a2.62 2.62 0 001.446 1.199c.337-.51.622-1.102.96-1.611m-1.544-17.572a2.69 2.69 0 001.34 1.327c.383-.48.75-1.049 1.102-1.499m-.209 5.68a9.154 9.154 0 01-1.177 1.671c-.382-.48-.592-.749-.974-1.251m-.263 7.036l.892.839c.382-.48.592-.749.974-1.252m1.701 8.835c.32.565.838.992 1.454 1.199.337-.509.622-1.101.96-1.611m-1.544-17.572a2.675 2.675 0 001.333 1.327c.382-.48.75-1.049 1.102-1.499m-.202 5.657a8.893 8.893 0 01-1.177 1.671 58.97 58.97 0 01-.974-1.251m-.27 7.074l.9.831c.374-.479.592-.749.974-1.251m.861 3.327a2.675 2.675 0 001.401 1.259c.36-.502.667-1.087 1.027-1.581m-.892-17.617c.247.6.706 1.088 1.29 1.372.396-.465.748-1.012 1.153-1.499m-.42 5.717a8.318 8.318 0 01-1.236 1.626c-.36-.494-.562-.794-.93-1.288m-.524 7.028l.862.869c.397-.464.622-.749 1.02-1.221m-55.81 135.979h61.587"/><path fill="#273139" d="M167.96 233.788l-.143 1.138-4.915 39.714a6.05 6.05 0 01-1.207 3.432c-2.997-1.611-8.392-2.997-10.4-.906a6.07 6.07 0 01-.682-2.915l1.356-27.425a34.932 34.932 0 00-4.353-18.748c-8.423-15.077-12.057-24.983-13.833-31.547a13.982 13.982 0 0123.371-15.196c.255.337.502.697.75 1.072 7.493 11.539 9.591 42.711 9.981 49.889.052.982.075 1.492.075 1.492z"/><path fill="#34479D" d="M167.847 234.949l.143-1.139a7.268 7.268 0 01-.143 1.139zm.113-1.161s0-.532-.075-1.499c.077.495.102.998.075 1.499z"/><path stroke="#fff" stroke-linecap="round" stroke-linejoin="round" stroke-width=".64" d="M152.494 237.841c2.038-.082 3.2-.209 5.246-.299"/><path fill="#273139" d="M117.396 273.884a.666.666 0 01-.552-.225.665.665 0 01-.145-.577l7.935-34.948c.06-.27.127-.54.21-.802.352-1.199.516-2.445.487-3.694v-.899c-6.19-27.223-5.006-39.977-3.822-47.462.263-2.061.839-4.07 1.709-5.957.023-.055.05-.108.082-.158.21-.367.42-.712.652-1.049l.068-.097a13.987 13.987 0 0124.667 3.492c.068.187.128.374.18.569 4.384 14.717-7.995 55.187-7.995 55.187a7.372 7.372 0 01-.165.75l-12.072 38.215a.66.66 0 01-.839.427l-7.066-2.375a8.416 8.416 0 00-3.334-.397z"/><path fill="#34479D" d="M123.181 179.32a20.393 20.393 0 00-1.709 5.957 13.86 13.86 0 011.709-5.957zm.734-1.207c-.232.337-.442.682-.652 1.049.181-.371.4-.722.652-1.049z"/><path stroke="#fff" stroke-linecap="round" stroke-linejoin="round" stroke-width=".64" d="M128.441 236.29c2.038-.082 3.199-.21 5.245-.3m14.207-7.253c-2.42-4.496-8.085-13.248-13.15-30.355"/><path fill="#273139" d="M150.613 283.992c-.884-1.686-.877-3.747.884-5.005a5.751 5.751 0 013.275-.832c1.909.058 3.796.422 5.59 1.079 1.319.464 1.026 4.158 1.956 4.72 3.889 2.353 2.615 2.623 13.173 3.934 1.311.165 2.367 1.499 2.877 2.683.088.192.155.393.202.599.39 1.926-1.371 2.997-3.274 3.379-1.903.382-4.069-1.746-5.995-1.828-2.997-.12-3.881-.187-5.822-2.135a10.28 10.28 0 00-4.001-2.323c-2.338-.869-5.103-.854-7.186-2.353a5.532 5.532 0 01-1.679-1.918z"/><path fill="#475867" d="M175.431 289.987c1.461 0 3.372.232 3.169 2.247a4.274 4.274 0 01-3.327 2.323c-3.503.65-7.062.954-10.625.907-3.642 0-16.35 1.334-16.35-2.308v-10.138c0-3.282 1.386-4.886 4.713-4.698.644.037 1.289.052 1.926.067 2.36.06 3.597 2.54 2.57 4.661-1.027 2.12 2.817 5.747 4.893 6.159 6.197 1.244 6.669.69 13.031.78z"/><path fill="#475867" d="M159.462 278.073a3.162 3.162 0 011.806.621c.237.289.393.636.45 1.004l.749 3.08a1.1 1.1 0 010 .862 1.085 1.085 0 01-.464.344c-2.203 1.087-4.669.27-7.096.622-1.079.158-4.496 2.892-5.538 2.713-1.041-.18-1.049-1.574-1.049-2.66a12.763 12.763 0 01.21-3.035c.202-1.049.082-1.993.996-2.555a7.562 7.562 0 015.171-1.206c1.828 0 2.473.135 4.765.21z"/><path stroke="#fff" stroke-linecap="round" stroke-linejoin="round" stroke-width=".64" d="M177.686 293.119a129.72 129.72 0 01-28.976-.75m13.832-8.587a13.93 13.93 0 01-6.789.51"/><path fill="#273139" d="M115.979 280.245c-.412-1.858.128-3.881 2.151-4.608a5.75 5.75 0 013.372.037 17.708 17.708 0 015.125 2.488c1.154.787-.082 4.279.667 5.065 3.155 3.275 1.858 3.208 11.712 7.201 1.229.495 1.903 2.061 2.091 3.327.022.212.022.426 0 .637-.113 1.956-2.091 2.51-4.032 2.42-1.94-.089-3.484-2.734-5.35-3.319-2.892-.899-3.701-1.184-5.073-3.567a10.192 10.192 0 00-3.267-3.282c-2.038-1.438-4.705-2.143-6.331-4.121a5.477 5.477 0 01-1.065-2.278z"/><path fill="#475867" d="M138.436 292.399c1.409.397 3.2 1.094 2.481 2.997a4.266 4.266 0 01-3.814 1.387 54.373 54.373 0 01-10.491-1.866c-3.514-.952-16.132-2.93-15.196-6.444.6-2.248 1.177-4.451 2.608-9.801.847-3.177 2.6-4.361 5.77-3.32.606.195 1.228.382 1.843.562 2.248.667 2.817 3.38 1.274 5.163-1.544 1.783 1.244 6.279 3.147 7.208 5.687 2.795 6.264 2.368 12.378 4.114z"/><path stroke="#F2797B" stroke-miterlimit="10" d="M132.877 290.571a3.48 3.48 0 00-.209-3.173 3.476 3.476 0 00-2.699-1.683m5.515 5.546a3.477 3.477 0 00-2.907-4.849"/><path fill="#475867" d="M126.088 276.754a3.118 3.118 0 011.581 1.064c.159.338.218.715.172 1.086l-.075 3.162c.031.299-.058.598-.247.832a1.103 1.103 0 01-.539.21c-2.406.487-4.579-.945-7.022-1.229-1.079-.128-5.05 1.641-6.047 1.199-.996-.442-.606-1.791-.322-2.848a12.84 12.84 0 01.982-2.87c.464-.974.592-1.91 1.618-2.247a11.45 11.45 0 012.81-.39c.853.095 1.692.284 2.503.562 1.798.502 2.39.779 4.586 1.469z"/><path stroke="#fff" stroke-linecap="round" stroke-linejoin="round" stroke-width=".64" d="M139.808 295.981a129.973 129.973 0 01-27.8-8.205m15.578-4.713c-2.3.144-4.6-.289-6.691-1.259m20.217-89.394l11.277-.195"/><path stroke="#273139" stroke-linecap="round" stroke-linejoin="round" stroke-width="1.23" d="M122.611 123.413l-15.166 32.385c.914 9.157 1.843 21.221 1.701 29.389"/><path fill="#273139" d="M122.446 149.699a2.08 2.08 0 001.042 1.101 1.455 1.455 0 001.558-.666 3.926 3.926 0 00.51-1.724c.389-2.907 1.303-22.15-4.586-20.172-5.575 1.889-.33 18.156 1.476 21.461z"/><path stroke="#273139" stroke-linecap="round" stroke-linejoin="round" stroke-width="1.23" d="M117.426 157.747c-.427 9.269-1.551 17.167-1.978 26.436m17.399-46.788l-15.421 20.351m-2.129 28.355c-.164 1.161.548 2.248 1.154 3.237.607.989 1.169 2.248.69 3.304-.48 1.057-2.458 1.169-2.585 0a14.528 14.528 0 011.498 4.901c.075 1.439-.644 2.997-2.008 3.492a3.292 3.292 0 01-3.282-.989 7.382 7.382 0 01-1.603-3.2 19.905 19.905 0 01-.33-9.134"/><path fill="#EBEFF3" stroke="#273139" stroke-linecap="round" stroke-linejoin="round" stroke-width="1.23" d="M155.686 99.892a3.94 3.94 0 100-7.882 3.94 3.94 0 000 7.882z"/><path stroke="#273139" stroke-linecap="round" stroke-linejoin="round" stroke-width="1.23" d="M156.975 95.029l1.678-1.649m-3.139 5.68l1.678-1.648"/><path fill="#EBEFF3" stroke="#273139" stroke-linecap="round" stroke-linejoin="round" stroke-width="1.23" d="M154.51 91.627c1.551 6.466.891 15.511-5.575 17.069-6.467 1.559-14.904-5.747-16.485-12.214a12.056 12.056 0 018.894-14.529c6.489-1.559 11.607 3.207 13.166 9.674z"/><path fill="#273139" d="M153.408 90.6a7.495 7.495 0 005.89-3.432 5.434 5.434 0 00-.749-6.526c-2.024-1.903-5.193-1.634-7.936-1.237l-5.425.75a5.278 5.278 0 00-1.858.517c-1.499.854-1.738 2.997-.982 4.57 1.769 3.642 7.321 5.643 11.06 5.358z"/><path stroke="#273139" stroke-linecap="round" stroke-linejoin="round" stroke-width="1.23" d="M126.283 75.928a10.11 10.11 0 015.597 7.734c-.06-3.492 1.821-9.524 4.721-11.45"/><path fill="#273139" d="M153.738 88.33a15.79 15.79 0 01-15.908 15.66c-2.758 0-4.938-.224-7.074-1.363a4.586 4.586 0 01-1.588-1.416v-.045a14.24 14.24 0 015.459-18.807 14.236 14.236 0 0119.073 4.435c.039.51.052 1.023.038 1.536z"/><path stroke="#fff" stroke-linecap="round" stroke-linejoin="round" stroke-width=".61" d="M150.68 88.3a13.93 13.93 0 01-9.149 11.779"/><path fill="#273139" d="M116.144 76.363c-6.669.75-11.502 7.56-12.926 13.286-2.248 8.991 3.814 15.675.99 18.245-3.47 3.155-14.163-5.589-16.208-3.267-1.596 1.814 2.323 9.974 9.291 13.488 7.996 4.009 19.483 1.619 22.547-4.376 3.147-6.189-4.263-13.068-.749-17.984 3.402-4.675 12.146-1.056 13.713-4.443 1.873-4.001-7.052-16.035-16.658-14.949z"/><path fill="#FF5959" d="M129.033 81.848a9.148 9.148 0 011.363 4.114 9.273 9.273 0 01-2.757 7.426 8.5 8.5 0 01-.787.681 6.265 6.265 0 002.181-12.22z"/><path stroke="#273139" stroke-linecap="round" stroke-linejoin="round" stroke-width=".8" d="M132.39 85.797a5.622 5.622 0 01-.944 5.358"/><path fill="#00C6FE" d="M153.79 179.837c-7.86-.06-18.875 2.69-27.485 1.536a3.743 3.743 0 01-3.195-3.077 3.742 3.742 0 01.063-1.569c5.328-21.73-4.324-35.728-2.645-46.593.929-5.994 2.922-11.344 8.542-14.237a28.081 28.081 0 0117.01-2.885c2.855.495 5.08 1.754 7.493 3.29a11.909 11.909 0 012.78 2.802c.749.982 1.588 2.196 1.236 3.5a.421.421 0 01-.135.239c-.179.135-.697-.194-.801-.329a18.474 18.474 0 00-.877-.967 6.458 6.458 0 01-.832-.862c-.652-.861-1.146-2.285-2.203-2.015-1.266.314-1.933 1.663-2.435 2.862-1.326 3.177-2.675 6.474-2.578 9.914a12.371 12.371 0 002.997 7.53c.83.994 1.802 1.86 2.885 2.57.712.457 3.073.997 3.47 1.596 1.019 1.537-1.124 6.519-1.499 8.243a24.154 24.154 0 00-.704 8.452c.607 5.193 1.289 10.491 1.461 11.322.877 4.069 2.061 8.723-2.548 8.678z"/><path fill="#92A2B1" d="M157.357 143.045c-.12 1.1-.295 2.193-.524 3.275-2.938-2.136-6.152-5.163-6.909-8.168 2.188-.644 5.852 3.634 7.433 4.893z"/><path stroke="#273139" stroke-linecap="round" stroke-linejoin="round" stroke-width="1.23" d="M152.726 118.647c8.572 9.494 16.485 17.894 25.08 27.388m-27.942-8.91l26.638 21.139m1.589-.06c9.351-8.782 12.603-11.345 23.678-22.885m-23.581 10.603a151.83 151.83 0 0018.381-13.352m-22.892 6.938a21.07 21.07 0 01-5.463 15.039m33.24-19.745c2.668.143 7.898 0 10.491-.576a9.319 9.319 0 001.828-.637h.045a1.005 1.005 0 00-.45-1.904l-6.451-.052"/><path stroke="#273139" stroke-linecap="round" stroke-linejoin="round" stroke-width="1.23" d="M204.017 132.697a5.387 5.387 0 003.612-2.128 1.005 1.005 0 00-1.019-1.566c-1.259.277-8.775 2.997-10.041 3.567"/><path fill="#231F20" d="M157.357 143.045c-.12 1.1-.295 2.193-.524 3.275-2.938-2.136-6.152-5.163-6.909-8.168 2.188-.644 5.852 3.634 7.433 4.893z"/><path stroke="#273139" stroke-linecap="round" stroke-linejoin="round" stroke-width="1.23" d="M130.554 114.931c-1.064-.39-1.027-2.069-.18-2.833.846-.764 2.075-.847 3.214-.899l11.885-.547c1.438-.067 2.997-.12 4.218.592 1.222.712 2.031 2.458 1.199 3.634m-40.823 30.153c-.329 6.219 5.62 11.989 11.825 11.509m55.584-11.172a6.838 6.838 0 01.862 5.448m-66.225 6.174a4.913 4.913 0 005.246.457"/><path fill="#F48927" d="M108.853 186.67a10.837 10.837 0 007.261-1.806c.458-.314 0-1.064-.442-.749a10.086 10.086 0 01-6.819 1.686c-.554-.06-.547.809 0 .869z"/><path fill="#447093" d="M119.142 177.956c2.607 4.668 9.127 5.522 13.9 5.882a82.57 82.57 0 0018.478-1.049 61.237 61.237 0 007.605-1.589 2.944 2.944 0 00.672-5.401 2.95 2.95 0 00-2.238-.279 55.057 55.057 0 01-6.234 1.364l-1.881.3-.921.127c-.697.105.502-.052.045 0l-.75.098c-1.388.17-2.78.309-4.173.419a74.957 74.957 0 01-8.7.233c-1.356-.053-2.69-.188-4.039-.323-.442-.037.749.12.098 0l-.383-.06a18.83 18.83 0 01-.929-.164 19.976 19.976 0 01-1.753-.405 24.99 24.99 0 01-1.724-.569c-.269-.098-.127-.203.278.119a2.094 2.094 0 00-.412-.194 7.145 7.145 0 01-.75-.413c-.232-.149-.397-.352-.569-.382.397.075.532.45.232.173-.09-.083-.195-.165-.285-.255-.09-.09-.457-.51-.464-.502.307-.15.404.644.239.3-.059-.143-.172-.27-.247-.413a2.945 2.945 0 00-1.805-1.359 2.952 2.952 0 00-3.283 4.357l-.007-.015z"/><path stroke="#273139" stroke-linecap="round" stroke-linejoin="round" stroke-width="1.23" d="M130.719 115.972a22.325 22.325 0 0121.153-.929"/><path stroke="#131735" stroke-linecap="round" stroke-linejoin="round" stroke-width=".92" d="M426.647 137.05a1.783 1.783 0 012.031-.097 50.685 50.685 0 0011.922 4.743 56.112 56.112 0 009.194 1.761 3.003 3.003 0 002.562-1.056l11.817-14.05a6.27 6.27 0 014.225-2.835 6.275 6.275 0 012.599.096 6.268 6.268 0 014.003 3.14 6.257 6.257 0 01-1.033 7.279v0l-14.762 17.579a6.254 6.254 0 01-2.293 1.896v.053c-8.617 3.926-26.503-2.84-31.868-5.036a2.75 2.75 0 01-1.679-2.465"/><path fill="#34479D" d="M498.05 279.361l-6.1-1.903-.607-3.882 4.504 1.214 2.203 4.571zm-13.735-4.848l3.994-.937v3.784l-5.455 1.049 1.461-3.896z"/><path fill="#405563" stroke="#273139" stroke-miterlimit="10" d="M463.753 167.098l.27 88.165a8.117 8.117 0 008.115 8.243 8.126 8.126 0 008.101-7.598l5.762-92.039-22.248 3.229z"/><path fill="#405563" stroke="#273139" stroke-miterlimit="10" d="M479.264 167.098l.3 88.165a8.134 8.134 0 002.338 5.819 8.13 8.13 0 005.785 2.424 8.125 8.125 0 008.1-7.598l5.762-92.039-22.285 3.229z"/><path fill="#fff" d="M491.965 181.118l-16.485.442-7.381.195a6.414 6.414 0 01-4.728-1.881v-.045a6.395 6.395 0 01-1.851-4.736l.128-2.143.164-2.75 2.099-35.765c0-6.159 2.337-9.434 5.807-11.037l.067-.038c.218.157.443.302.675.435.478.247.98.445 1.498.592.973.287 1.983.43 2.998.427 3.087 0 5.717-1.251 6.661-2.997l1.281-.045a13.046 13.046 0 0113.173 10.191l8.595 33.374c1.738 8.093-1.499 15.781-12.701 15.781z"/><path stroke="#131735" stroke-linecap="round" stroke-linejoin="round" stroke-width=".92" d="M473.947 182.101c1.074-.422 1.77-1.211 1.554-1.761-.217-.551-1.263-.655-2.338-.233-1.075.422-1.77 1.211-1.554 1.762.217.55 1.263.655 2.338.232zm-2.676-.229c.216-.551-.48-1.34-1.554-1.762-1.075-.422-2.121-.318-2.338.233-.216.55.479 1.339 1.554 1.761 1.075.423 2.121.318 2.338-.232zm.44.407a3.661 3.661 0 002.248 1.671m-2.697-1.671a3.948 3.948 0 01-1.888 2.6"/><path fill="#F4D369" d="M496.596 182.624l-15.863 2.001a5.626 5.626 0 01-5.245-3.065 11.097 11.097 0 01-1.199-4.856l-3.17-49.26a6.437 6.437 0 01.75-3.057c.973.286 1.982.43 2.997.427 3.087 0 5.717-1.251 6.661-2.997a3.6 3.6 0 00.143-.3c6.137-.644 12.378 3.065 14.319 8.947l11.442 32.618c2.63 7.935.397 18.426-10.835 19.542z"/><path fill="#fff" d="M470.407 123.773a7.922 7.922 0 01-.704-.42l-.382-.292h.052c.128.099.26.191.397.277.205.155.418.3.637.435z"/><path stroke="#131735" stroke-linecap="round" stroke-linejoin="round" stroke-width=".92" d="M474.431 122.221c6.121 0 11.083-4.961 11.083-11.082s-4.962-11.082-11.083-11.082-11.082 4.961-11.082 11.082 4.961 11.082 11.082 11.082z"/><path fill="#131735" d="M507.566 174.509s-4.818-24.81-22.637-33.719c0 0 8.595-1.769 20.135 18.732 0 0 1.341 3.148 3.469 9.412 0 0-.277 3.956-.967 5.575z"/><path stroke="#131735" stroke-linecap="round" stroke-linejoin="round" stroke-width=".92" d="M488.556 123.323s31.419 5.95 36.064 48.234m-37.668-30.805s16.238 3.589 22.877 33.277m14.792-2.472l-13.953 4.226m13.106-2.113s3.409 9.336-3.822 12.671m-7.83-8.752s.922 9.913 2.997 9.913c1.911 0 1.551-5.747 1.551-5.747m-16.215-12.266l-12.498-3.672"/><path fill="#131735" d="M500.379 181.98s-8.444 1.566-19.677 2.847c0 0-2.832.749-5.08-3.065a7.822 7.822 0 00.749 4.654 5.343 5.343 0 004.796 2.929c2.682 0 8.812-.344 18.89-2.615l.322-4.75z"/><path stroke="#fff" stroke-linecap="round" stroke-linejoin="round" stroke-width=".92" d="M473.981 194.935l6.07 66.922"/><path stroke="#131735" stroke-linecap="round" stroke-linejoin="round" stroke-width=".92" d="M489.208 272.737c2.003 0 3.626-1.295 3.626-2.892 0-1.598-1.623-2.893-3.626-2.893s-3.627 1.295-3.627 2.893c0 1.597 1.624 2.892 3.627 2.892z"/><path stroke="#131735" stroke-linecap="round" stroke-linejoin="round" stroke-width=".92" d="M492.812 269.575s3.574 7.763 5.995 10.91c.544.649.813 1.486.749 2.33-.165 1.372-1.341 2.998-5.995 2.998h-9.501s-5.051-.225-2.525-4.818c2.525-4.594 3.199-5.935 4.039-10.873m.906-146.926s-6.212 0-6.834 6.833c-.622 6.834 4.346 9.314 4.346 9.314"/><path fill="#34479D" d="M458.958 269.47l6.886 9.247h-7.163l-4.107-5.748 4.384-3.499z"/><path stroke="#131735" stroke-linecap="round" stroke-linejoin="round" stroke-width=".92" d="M472.76 281.954h-24.93s-2.465 0-3.889-.959a1.302 1.302 0 01-.509-1.499c.352-.959 1.558-2.465 5.537-3.657 5.995-1.791 8.685-6.279 14.425-9.291a1.205 1.205 0 011.476.278c.119.136.206.297.255.471a5.914 5.914 0 001.701 2.907 5.242 5.242 0 004.833 1.094c1.169-.299 2.735-.824 3.387-1.603 0 0 1.693-1.409.846 2.907 0 0-.869 5.41.24 6.744-.03-.022 2.248 2.608-3.372 2.608z"/><path stroke="#131735" stroke-linecap="round" stroke-linejoin="round" stroke-width=".92" d="M476.102 279.324h-29.62s-2.248.427-1.252-1.866"/><path fill="#F4D369" d="M470.407 123.773c-4.63 2.757-5.372 8.692-5.372 8.692l-3.237 37.69a24.78 24.78 0 00-.165 2.75c0 4.084 1.011 5.995 1.723 6.879v.045c.168.218.373.403.607.547l-.157 3.372c-6.744 0-6.624-4.721-6.624-4.721-.929-3.409 3.574-42.216 3.574-42.216.645-9.06 4.886-12.506 8.527-13.773h.053c.127.099.26.192.397.277.217.164.442.317.674.458z"/><path fill="#131735" d="M484.405 119.224a3.244 3.244 0 100-6.489 3.245 3.245 0 000 6.489z"/><path fill="#131735" d="M485.311 113.634a3.244 3.244 0 10.001-6.489 3.244 3.244 0 00-.001 6.489z"/><path fill="#131735" d="M487.649 115.98a3.245 3.245 0 100-6.49 3.245 3.245 0 000 6.49z"/><path fill="#131735" d="M489.328 112.735a3.245 3.245 0 10-.002-6.49 3.245 3.245 0 00.002 6.49z"/><path fill="#131735" d="M488.556 108.396a3.244 3.244 0 10.001-6.489 3.244 3.244 0 00-.001 6.489z"/><path fill="#131735" d="M486.638 104.335a3.244 3.244 0 100-6.489 3.245 3.245 0 100 6.489z"/><path fill="#131735" d="M483.767 101.091a3.245 3.245 0 100-6.49 3.245 3.245 0 000 6.49z"/><path fill="#131735" d="M479.594 98.348a3.245 3.245 0 100-6.49 3.245 3.245 0 000 6.49z"/><path fill="#131735" d="M475.428 97.516a3.245 3.245 0 100-6.49 3.245 3.245 0 000 6.49z"/><path fill="#131735" d="M471.636 98.348a3.245 3.245 0 100-6.49 3.245 3.245 0 000 6.49z"/><path fill="#131735" d="M468.384 100.364a3.245 3.245 0 100-6.49 3.245 3.245 0 000 6.49zm16.927 9.389a3.245 3.245 0 100-6.49 3.245 3.245 0 000 6.49z"/><path fill="#131735" d="M481.16 110.39a3.245 3.245 0 100-6.49 3.245 3.245 0 000 6.49z"/><path fill="#131735" d="M482.839 113.964a3.244 3.244 0 100-6.489 3.244 3.244 0 000 6.489zm-5.935-5.568a3.244 3.244 0 100-6.489 3.245 3.245 0 000 6.489z"/><path fill="#131735" d="M480.148 106.508a3.244 3.244 0 10.001-6.489 3.244 3.244 0 00-.001 6.489z"/><path fill="#131735" d="M479.594 101.593a3.245 3.245 0 100-6.49 3.245 3.245 0 000 6.49z"/><path fill="#131735" d="M473.66 100.761a3.244 3.244 0 100-6.488 3.244 3.244 0 000 6.488z"/><path fill="#131735" d="M470.407 103.264a3.245 3.245 0 100-6.49 3.245 3.245 0 000 6.49z"/><path fill="#131735" d="M468.662 106.224a3.244 3.244 0 100-6.489 3.244 3.244 0 000 6.489z"/><path fill="#131735" d="M467.163 108.082a3.245 3.245 0 100-6.49 3.245 3.245 0 000 6.49z"/><path fill="#131735" d="M464.593 108.396a3.244 3.244 0 100-6.489 3.245 3.245 0 000 6.489z"/><path fill="#131735" d="M465.41 102.597a3.245 3.245 0 10-.002-6.49 3.245 3.245 0 00.002 6.49z"/><path fill="#131735" d="M462.412 105.025a3.245 3.245 0 100-6.49 3.245 3.245 0 000 6.49z"/><path fill="#131735" d="M462.165 108.704a3.245 3.245 0 100-6.49 3.245 3.245 0 000 6.49z"/><path fill="#131735" d="M464.285 106.703c.271.002.541.02.809.052a8.03 8.03 0 00-1.738 4.324 5.484 5.484 0 00.15 1.604c-2.248-.24-3.964-1.499-3.964-2.998 0-1.633 2.12-2.982 4.743-2.982zm-1.873-4.106a3.245 3.245 0 100-6.49 3.245 3.245 0 000 6.49z"/><path fill="#131735" d="M465.657 100.019a3.244 3.244 0 100-6.488 3.244 3.244 0 000 6.488z"/><path fill="#131735" d="M468.662 96.108a3.244 3.244 0 100-6.488 3.244 3.244 0 000 6.487z"/><path fill="#131735" d="M473.105 94.594a3.244 3.244 0 100-6.488 3.244 3.244 0 000 6.488z"/><path fill="#131735" d="M477.915 95.763a3.245 3.245 0 100-6.49 3.245 3.245 0 000 6.49z"/><path fill="#131735" d="M483.767 96.46a3.245 3.245 0 100-6.49 3.245 3.245 0 000 6.49z"/><path fill="#131735" d="M487.012 100.019a3.245 3.245 0 100-6.49 3.245 3.245 0 000 6.49z"/><path fill="#131735" d="M489.762 103.608a3.244 3.244 0 10.001-6.489 3.244 3.244 0 00-.001 6.489z"/><path fill="#131735" d="M492.115 107.999a3.244 3.244 0 10.001-6.489 3.244 3.244 0 00-.001 6.489z"/><path fill="#131735" d="M492.572 112.997a3.244 3.244 0 10.001-6.489 3.244 3.244 0 00-.001 6.489z"/><path fill="#131735" d="M489.762 117.628a3.245 3.245 0 100-6.49 3.245 3.245 0 000 6.49z"/><path fill="#131735" d="M487.14 119.486a3.244 3.244 0 100-6.489 3.245 3.245 0 000 6.489zm-2.735-14.649a3.244 3.244 0 100-6.489 3.245 3.245 0 100 6.489z"/><path fill="#131735" d="M481.924 104.335a3.244 3.244 0 10.001-6.489 3.244 3.244 0 00-.001 6.489z"/><path fill="#131735" d="M484.405 107.325a3.244 3.244 0 100-6.489 3.244 3.244 0 000 6.489z"/><path fill="#131735" d="M477.75 105.152a3.245 3.245 0 100-6.49 3.245 3.245 0 000 6.49z"/><path fill="#131735" d="M473.66 105.152a3.244 3.244 0 100-6.489 3.244 3.244 0 000 6.489z"/><path fill="#131735" d="M471.097 107.325a3.244 3.244 0 100-6.489 3.244 3.244 0 000 6.489z"/><path stroke="#131735" stroke-linecap="round" stroke-linejoin="round" stroke-width=".92" d="M474.671 112.51a1.612 1.612 0 00-2.016 0m-2.413 0a1.612 1.612 0 00-2.015 0m22.907 159.972c.426 1.95.677 3.933.749 5.927 0 0 .367 1.424-1.499 1.424s-2.075-1.424-2.075-1.424v-5.657m9.561 12.267s-4.144-.712-5.92-2.248a2.598 2.598 0 00-3.604 0 8.22 8.22 0 01-2.518 1.453 9.546 9.546 0 01-4.143.435m-53.757-145.848s-5.889-1.813-3.312-7.882c0 0-.187-2.616-2.757-.75a5.798 5.798 0 00-1.787 1.922c-.44.77-.698 1.63-.753 2.514 0 0-4.339-.682-5.77.937-5.62 6.339-.397 10.198-.397 10.198a5.924 5.924 0 006.496.502c2.66-1.971 2.743-5.245 2.383-7.493-.225-1.416-2.847-1.873-4.226-1.971m7.838 10.303l-2.21-.854m4.922-7.898s1.806 6.28-3.177 9.374"/><path fill="#EBEFF3" d="M83.362 60.058H36.769v32.086h46.593V60.058z"/><path stroke="#EBEFF3" stroke-linecap="round" stroke-linejoin="round" stroke-width="3.39" d="M42.928 44.974H30.887v53.284h58.357V44.974H79.09"/><path stroke="#EBEFF3" stroke-linecap="round" stroke-linejoin="round" stroke-width="3.39" d="M48.645 39.901H43.88v10.146h4.765V39.901zm30.445 0h-4.765v10.146h4.765V39.901zm-30.444 5.073h24.728M30.887 57.66h58.357"/><path stroke="#92A2B1" stroke-miterlimit="10" stroke-width=".63" d="M46.105 62.733v30.452m13.96-30.452v30.452m13.953-30.452v30.452M35.96 67.813h48.204M35.96 77.96h48.204M35.96 88.105h48.204"/><path fill="#fff" d="M557 0H7v308.719h550V0z" opacity=".01"/><path stroke="#92A2B1" stroke-miterlimit="10" stroke-width=".5" d="M288.81 275.922h113.874m-219.843-29.411h17.182m77.33 0h57.877m4.96 0h11.757"/><path stroke="#F2797B" stroke-miterlimit="10" d="M169.586 289.664a3.491 3.491 0 00-1.024-3.007 3.492 3.492 0 00-3.038-.927m6.76 3.934a3.492 3.492 0 00-2.431-3.837 3.49 3.49 0 00-1.631-.097"/><path stroke="#75B6F5" stroke-linecap="round" stroke-miterlimit="10" d="M391.774 100.199H209.869c-3 0-5.432 2.432-5.432 5.433v21.288c0 3 2.432 5.432 5.432 5.432h181.905c3 0 5.432-2.432 5.432-5.432v-21.288a5.432 5.432 0 00-5.432-5.433z"/><path fill="#75B6F5" d="M247.088 112.315H345.9c2.915 0 2.923-4.495 0-4.495h-98.812c-2.915 0-2.922 4.495 0 4.495zm0 11.907h27.845c2.914 0 2.922-4.533 0-4.533h-27.845c-2.915 0-2.922 4.533 0 4.533zm39.467 0h52.362c2.915 0 2.922-4.533 0-4.533h-52.362c-2.915 0-2.923 4.533 0 4.533z" opacity=".6"/><path stroke="#75B6F5" stroke-linecap="round" stroke-miterlimit="10" d="M391.774 140.692H209.869c-3 0-5.432 2.432-5.432 5.433v21.288c0 3 2.432 5.432 5.432 5.432h181.905c3 0 5.432-2.432 5.432-5.432v-21.288a5.432 5.432 0 00-5.432-5.433z"/><path fill="#75B6F5" d="M247.088 152.809h102.095c2.914 0 2.914-4.534 0-4.534H247.088c-2.915 0-2.922 4.534 0 4.534zm0 11.906h27.845c2.914 0 2.922-4.496 0-4.496h-27.845c-2.915 0-2.922 4.496 0 4.496zm39.467 0h41.115c2.915 0 2.922-4.496 0-4.496h-41.115c-2.915 0-2.923 4.496 0 4.496z" opacity=".6"/><path stroke="#75B6F5" stroke-linecap="round" stroke-miterlimit="10" d="M391.774 181.185H209.869c-3 0-5.432 2.433-5.432 5.433v21.288c0 3 2.432 5.432 5.432 5.432h181.905c3 0 5.432-2.432 5.432-5.432v-21.288c0-3-2.432-5.433-5.432-5.433z"/><path fill="#75B6F5" d="M247.088 193.324h91.102c2.915 0 2.922-4.533 0-4.533h-91.102c-2.915 0-2.922 4.533 0 4.533zm0 11.884h27.845c2.914 0 2.922-4.533 0-4.533h-27.845c-2.915 0-2.922 4.533 0 4.533zm39.467 0h21.97c2.914 0 2.914-4.533 0-4.533h-21.97c-2.915 0-2.923 4.533 0 4.533zM228.842 105.04h-14.537a3.971 3.971 0 00-3.971 3.971v14.537a3.971 3.971 0 003.971 3.971h14.537a3.972 3.972 0 003.972-3.971v-14.537a3.972 3.972 0 00-3.972-3.971z" opacity=".6"/><path fill="#fff" d="M214.081 127.579a7.698 7.698 0 012.335-5.286 7.699 7.699 0 0110.712 0 7.695 7.695 0 012.336 5.286"/><path stroke="#75B6F5" stroke-linecap="round" stroke-miterlimit="10" d="M214.081 127.579a7.698 7.698 0 012.335-5.286 7.699 7.699 0 0110.712 0 7.695 7.695 0 012.336 5.286"/><path fill="#fff" stroke="#75B6F5" stroke-linecap="round" stroke-miterlimit="10" d="M221.424 117.8a4.263 4.263 0 100-8.528 4.263 4.263 0 000 8.528z"/><path fill="#75B6F5" d="M228.842 145.533h-14.537a3.971 3.971 0 00-3.971 3.971v14.537a3.971 3.971 0 003.971 3.971h14.537a3.972 3.972 0 003.972-3.971v-14.537a3.972 3.972 0 00-3.972-3.971z" opacity=".6"/><path fill="#fff" d="M214.081 168.072a7.694 7.694 0 0115.383 0"/><path stroke="#75B6F5" stroke-linecap="round" stroke-miterlimit="10" d="M214.081 168.072a7.694 7.694 0 0115.383 0"/><path fill="#fff" stroke="#75B6F5" stroke-linecap="round" stroke-miterlimit="10" d="M221.424 158.294a4.263 4.263 0 004.263-4.264 4.263 4.263 0 10-8.527 0 4.264 4.264 0 004.264 4.264z"/><path fill="#75B6F5" d="M228.842 186.026h-14.537a3.971 3.971 0 00-3.971 3.971v14.537a3.971 3.971 0 003.971 3.971h14.537a3.972 3.972 0 003.972-3.971v-14.537a3.972 3.972 0 00-3.972-3.971z" opacity=".6"/><path fill="#fff" d="M214.081 208.565a7.694 7.694 0 0115.383 0"/><path stroke="#75B6F5" stroke-linecap="round" stroke-miterlimit="10" d="M214.081 208.565a7.694 7.694 0 0115.383 0"/><path fill="#fff" stroke="#75B6F5" stroke-linecap="round" stroke-miterlimit="10" d="M221.424 198.787a4.263 4.263 0 100-8.526 4.263 4.263 0 000 8.526z"/><path stroke="#92A2B1" stroke-miterlimit="10" stroke-width=".48" d="M203.65 281.07v-18.104h79.428"/><path fill="#CFD7DF" d="M267.222 236.193h-21.341v26.084h21.341v-26.084z"/><path stroke="#92A2B1" stroke-miterlimit="10" stroke-width=".5" d="M266.758 243.012a6.22 6.22 0 014.542 1.744 6.24 6.24 0 011.901 4.479 6.232 6.232 0 01-3.995 5.813 6.237 6.237 0 01-2.448.41m0-10.431a4.248 4.248 0 010 8.498"/><path fill="#fff" d="M256.552 254.671a5.432 5.432 0 100-10.864 5.432 5.432 0 000 10.864z"/><path stroke="#fff" stroke-miterlimit="10" stroke-width=".5" d="M247.747 251.044v-13.083h11.592"/><path fill="#B1BDC7" d="M233.547 239.445l-3.222 21.4-1.828-.232 2.248-21.528 2.802.36z"/><path stroke="#92A2B1" stroke-miterlimit="10" stroke-width=".38" d="M230.311 240.831l3.784.487-.817 6.399"/><path stroke="#92A2B1" stroke-miterlimit="10" stroke-width=".5" d="M233.802 262.269h-11.217l-1.499-24.667h14.215l-1.499 24.667z"/><path fill="#CFD7DF" d="M224.893 260.276c-.06-1.761-.068-3.514-.098-5.245v-5.245l.06-5.246v-2.637c.038-.877-.097-1.754.45-2.638h.629c.555.884.412 1.761.45 2.638l.037 2.637.06 5.246v5.245c0 1.761-.037 3.514-.097 5.245h-1.491z"/><path fill="#9ACBFA" d="M380.369 120.978a6.092 6.092 0 100-12.184 6.092 6.092 0 000 12.184z"/><path fill="#fff" stroke="#273139" stroke-miterlimit="10" stroke-width="1.15" d="M372.584 112.495a2.545 2.545 0 000-3.604l-2.705-2.705a2.55 2.55 0 00-3.604 0l-1.499 1.499a3.812 3.812 0 00-.487 4.81 59.253 59.253 0 0016.575 16.575 3.826 3.826 0 004.818-.479l1.499-1.499a2.558 2.558 0 000-3.612l-2.705-2.705a2.558 2.558 0 00-3.612 0l-.899.907a60.496 60.496 0 01-8.303-8.288l.922-.899z"/><path stroke="#75B6F5" stroke-linecap="round" stroke-miterlimit="10" stroke-width="1.15" d="M373.655 107.745a9.637 9.637 0 0113.983 13.232"/><path stroke="#273139" stroke-linecap="round" stroke-miterlimit="10" stroke-width="1.15" d="M380.369 108.839v6.047l3.065-1.169"/><path stroke="#75B6F5" stroke-linecap="round" stroke-miterlimit="10" stroke-width="1.15" d="M388.776 114.646h1.229m-9.636-8.393v-1.236"/><path fill="#B2E4D9" d="M380.369 161.014a6.092 6.092 0 100-12.184 6.092 6.092 0 000 12.184z"/><path fill="#fff" stroke="#273139" stroke-miterlimit="10" stroke-width="1.15" d="M372.584 152.539a2.558 2.558 0 000-3.612l-2.705-2.705a2.55 2.55 0 00-3.605 0l-1.498 1.499a3.821 3.821 0 00-.487 4.818 59.372 59.372 0 0016.575 16.575 3.817 3.817 0 004.818-.487l1.499-1.499a2.552 2.552 0 000-3.604l-2.706-2.705a2.552 2.552 0 00-3.611 0l-.899.899a59.947 59.947 0 01-8.28-8.243l.899-.936z"/><path stroke="#B2E4D9" stroke-linecap="round" stroke-miterlimit="10" stroke-width="1.15" d="M373.655 147.781a9.637 9.637 0 0113.983 13.233"/><path stroke="#273139" stroke-linecap="round" stroke-miterlimit="10" stroke-width="1.15" d="M380.369 148.882v6.04l3.065-1.162"/><path stroke="#B2E4D9" stroke-linecap="round" stroke-miterlimit="10" stroke-width="1.15" d="M388.776 154.689h1.229m-9.636-8.392v-1.236"/><path fill="#FDDCB5" d="M380.369 201.507a6.092 6.092 0 100-12.184 6.092 6.092 0 000 12.184z"/><path fill="#fff" stroke="#273139" stroke-miterlimit="10" stroke-width="1.15" d="M372.584 193.032a2.558 2.558 0 000-3.612l-2.705-2.705a2.547 2.547 0 00-2.778-.552c-.309.128-.59.315-.827.552l-1.498 1.499a3.824 3.824 0 00-.487 4.818 59.359 59.359 0 0016.575 16.575 3.817 3.817 0 004.818-.487l1.499-1.499a2.548 2.548 0 000-3.604l-2.706-2.705a2.551 2.551 0 00-3.611 0l-.899.899a60.048 60.048 0 01-8.303-8.28l.922-.899z"/><path stroke="#FDDCB5" stroke-linecap="round" stroke-miterlimit="10" stroke-width="1.15" d="M373.655 188.274a9.636 9.636 0 0113.983 13.233"/><path stroke="#273139" stroke-linecap="round" stroke-miterlimit="10" stroke-width="1.15" d="M380.369 189.375v6.04l3.065-1.162"/><path stroke="#FDDCB5" stroke-linecap="round" stroke-miterlimit="10" stroke-width="1.15" d="M388.776 195.183h1.229m-9.636-8.393v-1.236"/></g><defs><clipPath id="clip0"><path fill="#fff" d="M0 0h550v308.719H0z"/></clipPath></defs></svg>