<svg xmlns="http://www.w3.org/2000/svg" width="156" height="142" fill="none" viewBox="0 0 156 142"><mask id="fs-thntkk2b4a" style="mask-type:alpha" width="142" height="142" x="9" y="0" maskUnits="userSpaceOnUse"><path fill="url(#paint0_linear_6888_26673)" d="M79.87 141.654c39.116 0 70.826-31.71 70.826-70.827S118.986 0 79.869 0C40.753 0 9.042 31.71 9.042 70.827s31.71 70.827 70.827 70.827z"/></mask><g mask="url(#fs-thntkk2b4a)"><path fill="url(#paint1_linear_6888_26673)" d="M78.973 140.826c39.112 0 70.818-31.525 70.818-70.413S118.085 0 78.973 0C39.862 0 8.155 31.525 8.155 70.413s31.707 70.413 70.818 70.413z"/><path fill="#fff" d="M103.484 37.852a5 5 0 00-5 5v173.87h178.87V37.852h-173.87zM276.829 48.97h-10.682V38.289h10.682v10.682zm-88.691 66.89V105.18h10.681v10.681h-10.681zm10.681.525v10.682h-10.681v-10.682h10.681zm-11.119-.525h-10.681V105.18H187.7v10.681zm0 .525v10.682h-10.681v-10.682H187.7zm-11.207 10.682h-10.681v-10.682h10.681v10.682zm0 .437v10.682h-10.681v-10.682h10.681zm.526 0H187.7v10.682h-10.681v-10.682zm10.681 11.12v10.681h-10.681v-10.681H187.7zm.438 0h10.681v10.681h-10.681v-10.681zm0-.438v-10.682h10.681v10.682h-10.681zm11.119-10.682h10.681v10.682h-10.681v-10.682zm0-.437v-10.682h10.681v10.682h-10.681zm0-11.207V105.18h10.681v10.681h-10.681zm0-11.119V94.06h10.681v10.682h-10.681zm-.438 0h-10.681V94.06h10.681v10.682zm-11.119 0h-10.681V94.06H187.7v10.682zm-11.207 0h-10.681V94.06h10.681v10.682zm0 .438v10.681h-10.681V105.18h10.681zm-11.119 10.681h-10.681V105.18h10.681v10.681zm0 .525v10.682h-10.681v-10.682h10.681zm0 11.119v10.682h-10.681v-10.682h10.681zm0 11.12v10.681h-10.681v-10.681h10.681zm.438 0h10.681v10.681h-10.681v-10.681zm10.681 11.206v10.682h-10.681v-10.682h10.681zm.526 0H187.7v10.682h-10.681v-10.682zm11.119 0h10.681v10.682h-10.681v-10.682zm11.119 0h10.681v10.682h-10.681v-10.682zm0-.525v-10.681h10.681v10.681h-10.681zm11.207-10.681h10.681v10.681h-10.681v-10.681zm0-.438v-10.682h10.681v10.682h-10.681zm0-11.119v-10.682h10.681v10.682h-10.681zm0-11.207V105.18h10.681v10.681h-10.681zm0-11.119V94.06h10.681v10.682h-10.681zm0-11.12v-10.68h10.681v10.68h-10.681zm-.526 0h-10.681v-10.68h10.681v10.68zm-11.119 0h-10.681v-10.68h10.681v10.68zm-11.119 0h-10.681v-10.68H187.7v10.68zm-11.207 0h-10.681v-10.68h10.681v10.68zm-11.119 0h-10.681v-10.68h10.681v10.68zm0 .438v10.682h-10.681V94.06h10.681zm-11.119 10.682h-10.682V94.06h10.682v10.682zm0 .438v10.681h-10.682V105.18h10.682zm0 11.206v10.682h-10.682v-10.682h10.682zm0 11.119v10.682h-10.682v-10.682h10.682zm0 11.12v10.681h-10.682v-10.681h10.682zm0 11.206v10.682h-10.682v-10.682h10.682zm.438 0h10.681v10.682h-10.681v-10.682zm10.681 11.12v10.681h-10.681v-10.681h10.681zm.438 0h10.681v10.681h-10.681v-10.681zm11.207 0H187.7v10.681h-10.681v-10.681zm11.119 0h10.681v10.681h-10.681v-10.681zm11.119 0h10.681v10.681h-10.681v-10.681zm11.207 0h10.681v10.681h-10.681v-10.681zm0-.438v-10.682h10.681v10.682h-10.681zm11.119-10.682h10.681v10.682h-10.681v-10.682zm0-.525v-10.681h10.681v10.681h-10.681zm0-11.119v-10.682h10.681v10.682h-10.681zm0-11.119v-10.682h10.681v10.682h-10.681zm0-11.207V105.18h10.681v10.681h-10.681zm0-11.119V94.06h10.681v10.682h-10.681zm0-11.12v-10.68h10.681v10.68h-10.681zm0-11.206V71.734h10.681v10.682h-10.681zm-.438 0h-10.681V71.734h10.681v10.682zm-11.207 0h-10.681V71.734h10.681v10.682zm-11.119 0h-10.681V71.734h10.681v10.682zm-11.119 0h-10.681V71.734H187.7v10.682zm-11.207 0h-10.681V71.734h10.681v10.682zm-11.119 0h-10.681V71.734h10.681v10.682zm-11.119 0h-10.682V71.734h10.682v10.682zm0 .525v10.682h-10.682V82.94h10.682zm-11.207 10.682h-10.681V82.94h10.681v10.682zm0 .437v10.682h-10.681V94.06h10.681zm0 11.12v10.681h-10.681V105.18h10.681zm0 11.206v10.682h-10.681v-10.682h10.681zm0 11.119v10.682h-10.681v-10.682h10.681zm0 11.12v10.681h-10.681v-10.681h10.681zm0 11.206v10.682h-10.681v-10.682h10.681zm0 11.12v10.681h-10.681v-10.681h10.681zm.525 0h10.682v10.681h-10.682v-10.681zm10.682 11.119v10.681h-10.682V172.07h10.682zm.438 0h10.681v10.681h-10.681V172.07zm11.119 0h10.681v10.681h-10.681V172.07zm11.207 0H187.7v10.681h-10.681V172.07zm11.119 0h10.681v10.681h-10.681V172.07zm11.119 0h10.681v10.681h-10.681V172.07zm11.207 0h10.681v10.681h-10.681V172.07zm11.119 0h10.681v10.681h-10.681V172.07zm0-.438v-10.681h10.681v10.681h-10.681zm11.119-10.681h10.681v10.681h-10.681v-10.681zm0-.438v-10.682h10.681v10.682h-10.681zm0-11.207v-10.681h10.681v10.681h-10.681zm0-11.119v-10.682h10.681v10.682h-10.681zm0-11.119v-10.682h10.681v10.682h-10.681zm0-11.207V105.18h10.681v10.681h-10.681zm0-11.119V94.06h10.681v10.682h-10.681zm0-11.12v-10.68h10.681v10.68h-10.681zm0-11.206V71.734h10.681v10.682h-10.681zm0-11.12v-10.68h10.681v10.68h-10.681zm-.438 0h-10.681v-10.68h10.681v10.68zm-11.119 0h-10.681v-10.68h10.681v10.68zm-11.207 0h-10.681v-10.68h10.681v10.68zm-11.119 0h-10.681v-10.68h10.681v10.68zm-11.119 0h-10.681v-10.68H187.7v10.68zm-11.207 0h-10.681v-10.68h10.681v10.68zm-11.119 0h-10.681v-10.68h10.681v10.68zm-11.119 0h-10.682v-10.68h10.682v10.68zm-11.207 0h-10.681v-10.68h10.681v10.68zm0 .438v10.682h-10.681V71.734h10.681zm-11.119 10.682h-10.681V71.734h10.681v10.682zm0 .525v10.682h-10.681V82.94h10.681zm0 11.12v10.681h-10.681V94.06h10.681zm0 11.119v10.681h-10.681V105.18h10.681zm0 11.206v10.682h-10.681v-10.682h10.681zm0 11.119v10.682h-10.681v-10.682h10.681zm0 11.12v10.681h-10.681v-10.681h10.681zm0 11.206v10.682h-10.681v-10.682h10.681zm0 11.12v10.681h-10.681v-10.681h10.681zm0 11.119v10.681h-10.681V172.07h10.681zm.438 0h10.681v10.681h-10.681V172.07zm10.681 11.206v10.682h-10.681v-10.682h10.681zm.525 0h10.682v10.682h-10.682v-10.682zm11.12 0h10.681v10.682h-10.681v-10.682zm11.119 0h10.681v10.682h-10.681v-10.682zm11.207 0H187.7v10.682h-10.681v-10.682zm11.119 0h10.681v10.682h-10.681v-10.682zm11.119 0h10.681v10.682h-10.681v-10.682zm11.207 0h10.681v10.682h-10.681v-10.682zm11.119 0h10.681v10.682h-10.681v-10.682zm11.119 0h10.681v10.682h-10.681v-10.682zm0-.525V172.07h10.681v10.681h-10.681zm11.207-10.681h10.681v10.681h-10.681V172.07zm0-.438v-10.681h10.681v10.681h-10.681zm0-11.119v-10.682h10.681v10.682h-10.681zm0-11.207v-10.681h10.681v10.681h-10.681zm0-11.119v-10.682h10.681v10.682h-10.681zm0-11.119v-10.682h10.681v10.682h-10.681zm0-11.207V105.18h10.681v10.681h-10.681zm0-11.119V94.06h10.681v10.682h-10.681zm0-11.12v-10.68h10.681v10.68h-10.681zm0-11.206V71.734h10.681v10.682h-10.681zm0-11.12v-10.68h10.681v10.68h-10.681zm0-11.119v-10.68h10.681v10.68h-10.681zm-.526 0h-10.681v-10.68h10.681v10.68zm-11.119 0h-10.681v-10.68h10.681v10.68zm-11.119 0h-10.681v-10.68h10.681v10.68zm-11.207 0h-10.681v-10.68h10.681v10.68zm-11.119 0h-10.681v-10.68h10.681v10.68zm-11.119 0h-10.681v-10.68H187.7v10.68zm-11.207 0h-10.681v-10.68h10.681v10.68zm-11.119 0h-10.681v-10.68h10.681v10.68zm-11.119 0h-10.682v-10.68h10.682v10.68zm-11.207 0h-10.681v-10.68h10.681v10.68zm-11.119 0h-10.681v-10.68h10.681v10.68zm0 .438v10.682h-10.681V60.615h10.681zM120.81 71.297h-10.682V60.615h10.682v10.682zm0 .437v10.682h-10.682V71.734h10.682zm0 11.207v10.682h-10.682V82.94h10.682zm0 11.12v10.681h-10.682V94.06h10.682zm0 11.119v10.681h-10.682V105.18h10.682zm0 11.206v10.682h-10.682v-10.682h10.682zm0 11.119v10.682h-10.682v-10.682h10.682zm0 11.12v10.681h-10.682v-10.681h10.682zm0 11.206v10.682h-10.682v-10.682h10.682zm0 11.12v10.681h-10.682v-10.681h10.682zm0 11.119v10.681h-10.682V172.07h10.682zm0 11.206v10.682h-10.682v-10.682h10.682zm.438 0h10.681v10.682h-10.681v-10.682zm10.681 11.12v10.681h-10.681v-10.681h10.681zm.438 0h10.681v10.681h-10.681v-10.681zm11.206 0h10.682v10.681h-10.682v-10.681zm11.12 0h10.681v10.681h-10.681v-10.681zm11.119 0h10.681v10.681h-10.681v-10.681zm11.207 0H187.7v10.681h-10.681v-10.681zm11.119 0h10.681v10.681h-10.681v-10.681zm11.119 0h10.681v10.681h-10.681v-10.681zm11.207 0h10.681v10.681h-10.681v-10.681zm11.119 0h10.681v10.681h-10.681v-10.681zm11.119 0h10.681v10.681h-10.681v-10.681zm11.207 0h10.681v10.681h-10.681v-10.681zm0-.438v-10.682h10.681v10.682h-10.681zm11.119-10.682h10.681v10.682h-10.681v-10.682zm0-.525V172.07h10.681v10.681h-10.681zm0-11.119v-10.681h10.681v10.681h-10.681zm0-11.119v-10.682h10.681v10.682h-10.681zm0-11.207v-10.681h10.681v10.681h-10.681zm0-11.119v-10.682h10.681v10.682h-10.681zm0-11.119v-10.682h10.681v10.682h-10.681zm0-11.207V105.18h10.681v10.681h-10.681zm0-11.119V94.06h10.681v10.682h-10.681zm0-11.12v-10.68h10.681v10.68h-10.681zm0-11.206V71.734h10.681v10.682h-10.681zm0-11.12v-10.68h10.681v10.68h-10.681zm0-11.119v-10.68h10.681v10.68h-10.681zm0-11.206V38.289h10.681v10.682h-10.681zm-.438 0h-10.681V38.289h10.681v10.682zm-11.207 0h-10.681V38.289h10.681v10.682zm-11.119 0h-10.681V38.289h10.681v10.682zm-11.119 0h-10.681V38.289h10.681v10.682zm-11.207 0h-10.681V38.289h10.681v10.682zm-11.119 0h-10.681V38.289h10.681v10.682zm-11.119 0h-10.681V38.289H187.7v10.682zm-11.207 0h-10.681V38.289h10.681v10.682zm-11.119 0h-10.681V38.289h10.681v10.682zm-11.119 0h-10.682V38.289h10.682v10.682zm-11.207 0h-10.681V38.289h10.681v10.682zm-11.119 0h-10.681V38.289h10.681v10.682zm-11.119 0h-10.682V38.289h10.682v10.682zm0 .525v10.681h-10.682v-10.68h10.682zm-11.207 10.681H98.922v-10.68h10.681v10.68zm0 .438v10.682H98.922V60.615h10.681zm0 11.12v10.68H98.922v-10.68h10.681zm0 11.206v10.682H98.922V82.94h10.681zm0 11.12v10.681H98.922V94.06h10.681zm0 11.119v10.681H98.922V105.18h10.681zm0 11.206v10.682H98.922v-10.682h10.681zm0 11.119v10.682H98.922v-10.682h10.681zm0 11.12v10.681H98.922v-10.681h10.681zm0 11.206v10.682H98.922v-10.682h10.681zm0 11.12v10.681H98.922v-10.681h10.681zm0 11.119v10.681H98.922V172.07h10.681zm0 11.206v10.682H98.922v-10.682h10.681zm0 11.12v10.681H98.922v-10.681h10.681zm.525 0h10.682v10.681h-10.682v-10.681zm10.682 11.119v10.681h-10.682v-10.681h10.682zm.438 0h10.681v10.681h-10.681v-10.681zm11.119 0h10.681v10.681h-10.681v-10.681zm11.206 0h10.682v10.681h-10.682v-10.681zm11.12 0h10.681v10.681h-10.681v-10.681zm11.119 0h10.681v10.681h-10.681v-10.681zm11.207 0H187.7v10.681h-10.681v-10.681zm11.119 0h10.681v10.681h-10.681v-10.681zm11.119 0h10.681v10.681h-10.681v-10.681zm11.207 0h10.681v10.681h-10.681v-10.681zm11.119 0h10.681v10.681h-10.681v-10.681zm11.119 0h10.681v10.681h-10.681v-10.681zm11.207 0h10.681v10.681h-10.681v-10.681zm11.119 0h10.681v10.681h-10.681v-10.681zm0-.438v-10.681h10.681v10.681h-10.681zm11.119-10.681h10.682v10.681h-10.682v-10.681zm0-.438v-10.682h10.682v10.682h-10.682zm0-11.207V172.07h10.682v10.681h-10.682zm0-11.119v-10.681h10.682v10.681h-10.682zm0-11.119v-10.682h10.682v10.682h-10.682zm0-11.207v-10.681h10.682v10.681h-10.682zm0-11.119v-10.682h10.682v10.682h-10.682zm0-11.119v-10.682h10.682v10.682h-10.682zm0-11.207V105.18h10.682v10.681h-10.682zm0-11.119V94.06h10.682v10.682h-10.682zm0-11.12v-10.68h10.682v10.68h-10.682zm0-11.206V71.734h10.682v10.682h-10.682zm0-11.12v-10.68h10.682v10.68h-10.682zm0-11.119v-10.68h10.682v10.68h-10.682zM109.603 38.29v10.682H98.922v-5.682a5 5 0 015-5h5.681zM98.922 205.515h10.681v10.681H98.922v-10.681zm167.225 10.681v-10.681h10.682v10.681h-10.682z"/></g><path fill="url(#paint2_radial_6888_26673)" d="M9.043 86.296a9.043 9.043 0 100-18.085 9.043 9.043 0 000 18.085z"/><path fill="url(#paint3_radial_6888_26673)" d="M3.813 76.812c-1.639-1.008-2.048-3.308-.914-5.104 1.103-1.796 3.34-2.458 4.978-1.45 1.638 1.009 2.048 3.309.914 5.105-1.134 1.827-3.371 2.457-4.978 1.45z" opacity=".5"/><g filter="url(#filter0_d_6888_26673)"><path fill="url(#paint4_linear_6888_26673)" d="M102.231 58.991l4.943 1.965a2 2 0 011.261 1.859v59.477h-6.204v-63.3z"/></g><g filter="url(#filter1_iii_6888_26673)"><path fill="#4392F4" fill-rule="evenodd" d="M70.16 58.991H55.216a1 1 0 00-1 1v61.301a1 1 0 001 1h46.787a1 1 0 001-1v-61.3a1 1 0 00-1-1h-16.79a3.531 3.531 0 01-3.313 2.31h-8.426a3.531 3.531 0 01-3.314-2.31z" clip-rule="evenodd"/></g><path fill="url(#paint5_radial_6888_26673)" d="M134.94 37.291a6.902 6.902 0 100-13.804 6.902 6.902 0 000 13.804z"/><path fill="url(#paint6_radial_6888_26673)" d="M130.948 30.053c-1.251-.77-1.563-2.525-.698-3.896.842-1.37 2.55-1.875 3.8-1.106 1.251.77 1.563 2.525.698 3.896-.866 1.395-2.574 1.876-3.8 1.106z" opacity=".5"/><g filter="url(#filter2_f_6888_26673)"><ellipse cx="74.498" cy="122.292" fill="#000" fill-opacity=".37" rx="67.867" ry=".36"/></g><path fill="url(#paint7_linear_6888_26673)" fill-rule="evenodd" d="M61.796 122.82c15.08 0 27.304-12.225 27.304-27.305S76.876 68.211 61.796 68.211c-15.08 0-27.304 12.225-27.304 27.304 0 15.08 12.224 27.305 27.304 27.305zm0-20.343a6.962 6.962 0 110-13.924 6.962 6.962 0 010 13.924z" clip-rule="evenodd"/><path fill="url(#paint8_linear_6888_26673)" fill-rule="evenodd" d="M61.796 121.379c14.285 0 25.864-11.58 25.864-25.864 0-14.285-11.58-25.865-25.864-25.865-14.285 0-25.864 11.58-25.864 25.865 0 14.284 11.58 25.864 25.864 25.864zm0-20.156a6.595 6.595 0 110-13.19 6.595 6.595 0 010 13.19z" clip-rule="evenodd"/><g filter="url(#filter3_i_6888_26673)"><path fill="url(#paint9_linear_6888_26673)" d="M138.384 103.445c-.049-.013-.101-.022-.136-.058-.657-.698 1.333-9.448 1.522-10.104.968-3.342 2.571-6.595 5.15-8.981 1.824-1.69 6.699-4.994 9.229-3.051 2.132 1.64.135 5.755-.848 7.476-1.762 3.06-4.359 5.54-6.576 8.255-1.323 1.623-2.652 3.278-3.974 4.901-.083.107-.704.988-1.196 1.606-.359.45-.88.537-1.438.396l-1.733-.44z"/></g><g filter="url(#filter4_i_6888_26673)"><path fill="url(#paint10_linear_6888_26673)" d="M141.271 106.12c1.082.232 2.046-.687 1.82-1.771-1.243-5.96-5.36-21.503-14.082-18.67-7.926 2.601 9.108 17.929 11.576 20.1.198.175.428.285.686.341z"/></g><path fill="#77FFE4" fill-opacity=".2" d="M131.383 88.778s10.2 13.313 10.317 16.129l-10.317-16.129zM151.134 83.877s-8.381 10.692-9.292 15.437l9.292-15.437z"/><path fill="url(#paint11_linear_6888_26673)" d="M130.928 103.783a2.35 2.35 0 012.34-2.576h13.551a2.35 2.35 0 012.339 2.576l-1.524 15.808a2.35 2.35 0 01-2.339 2.124h-10.503a2.349 2.349 0 01-2.339-2.124l-1.525-15.808z"/><g filter="url(#filter5_i_6888_26673)"><rect width="20.079" height="4.943" x="130.004" y="101.207" fill="url(#paint12_linear_6888_26673)" rx="1.175"/></g><defs><linearGradient id="paint0_linear_6888_26673" x1="79.869" x2="79.869" y1="0" y2="141.654" gradientUnits="userSpaceOnUse"><stop stop-color="#B5EFFF"/><stop offset="1" stop-color="#E7F8FE"/></linearGradient><linearGradient id="paint1_linear_6888_26673" x1="78.973" x2="78.973" y1="0" y2="140.826" gradientUnits="userSpaceOnUse"><stop stop-color="#B5EFFF"/><stop offset="1" stop-color="#EDFBFF"/></linearGradient><linearGradient id="paint4_linear_6888_26673" x1="82.13" x2="82.13" y1="58.991" y2="98.423" gradientUnits="userSpaceOnUse"><stop stop-color="#316DB9"/><stop offset="1" stop-color="#0048A2"/></linearGradient><linearGradient id="paint7_linear_6888_26673" x1="61.796" x2="61.796" y1="68.211" y2="122.82" gradientUnits="userSpaceOnUse"><stop stop-color="#F3F3F3"/><stop offset="0" stop-color="#F2F2F2"/></linearGradient><linearGradient id="paint8_linear_6888_26673" x1="61.796" x2="61.796" y1="69.65" y2="121.379" gradientUnits="userSpaceOnUse"><stop stop-color="#fff"/><stop offset="1" stop-color="#D1D1D1"/></linearGradient><linearGradient id="paint9_linear_6888_26673" x1="157.557" x2="138.646" y1="81.022" y2="98.005" gradientUnits="userSpaceOnUse"><stop stop-color="#BAFFF1" stop-opacity=".26"/><stop offset=".682" stop-color="#4DC7AE"/><stop offset=".969" stop-color="#06896F"/></linearGradient><linearGradient id="paint10_linear_6888_26673" x1="149.144" x2="137.643" y1="87.612" y2="106.981" gradientUnits="userSpaceOnUse"><stop stop-color="#B7FDEF"/><stop offset=".682" stop-color="#09B794"/><stop offset=".969" stop-color="#7EE0CC"/></linearGradient><linearGradient id="paint11_linear_6888_26673" x1="149.407" x2="132.017" y1="114.708" y2="114.708" gradientUnits="userSpaceOnUse"><stop offset=".099" stop-color="#FFEEC5"/><stop offset=".607" stop-color="#FACD63"/><stop offset=".839" stop-color="#EAAF23"/><stop offset=".984" stop-color="#EDB52F"/></linearGradient><linearGradient id="paint12_linear_6888_26673" x1="150.083" x2="131.437" y1="104.461" y2="104.461" gradientUnits="userSpaceOnUse"><stop offset=".099" stop-color="#FFEEC5"/><stop offset=".607" stop-color="#FCBD27"/><stop offset=".984" stop-color="#EFB222"/></linearGradient><filter id="filter0_d_6888_26673" width="9.483" height="66.581" x="100.591" y="58.171" color-interpolation-filters="sRGB" filterUnits="userSpaceOnUse"><feFlood flood-opacity="0" result="BackgroundImageFix"/><feColorMatrix in="SourceAlpha" result="hardAlpha" values="0 0 0 0 0 0 0 0 0 0 0 0 0 0 0 0 0 0 127 0"/><feOffset dy=".82"/><feGaussianBlur stdDeviation=".82"/><feColorMatrix values="0 0 0 0 0 0 0 0 0 0 0 0 0 0 0 0 0 0 0.25 0"/><feBlend in2="BackgroundImageFix" result="effect1_dropShadow_6888_26673"/><feBlend in="SourceGraphic" in2="effect1_dropShadow_6888_26673" result="shape"/></filter><filter id="filter1_iii_6888_26673" width="49.502" height="64.518" x="53.5" y="58.562" color-interpolation-filters="sRGB" filterUnits="userSpaceOnUse"><feFlood flood-opacity="0" result="BackgroundImageFix"/><feBlend in="SourceGraphic" in2="BackgroundImageFix" result="shape"/><feColorMatrix in="SourceAlpha" result="hardAlpha" values="0 0 0 0 0 0 0 0 0 0 0 0 0 0 0 0 0 0 127 0"/><feOffset dy="-.43"/><feGaussianBlur stdDeviation=".43"/><feComposite in2="hardAlpha" k2="-1" k3="1" operator="arithmetic"/><feColorMatrix values="0 0 0 0 0.089132 0 0 0 0 0.328429 0 0 0 0 0.629167 0 0 0 1 0"/><feBlend in2="shape" result="effect1_innerShadow_6888_26673"/><feColorMatrix in="SourceAlpha" result="hardAlpha" values="0 0 0 0 0 0 0 0 0 0 0 0 0 0 0 0 0 0 127 0"/><feOffset dy=".788"/><feGaussianBlur stdDeviation=".394"/><feComposite in2="hardAlpha" k2="-1" k3="1" operator="arithmetic"/><feColorMatrix values="0 0 0 0 0.641667 0 0 0 0 0.8495 0 0 0 0 1 0 0 0 1 0"/><feBlend in2="effect1_innerShadow_6888_26673" result="effect2_innerShadow_6888_26673"/><feColorMatrix in="SourceAlpha" result="hardAlpha" values="0 0 0 0 0 0 0 0 0 0 0 0 0 0 0 0 0 0 127 0"/><feOffset dx="-.716"/><feGaussianBlur stdDeviation=".358"/><feComposite in2="hardAlpha" k2="-1" k3="1" operator="arithmetic"/><feColorMatrix values="0 0 0 0 0 0 0 0 0 0 0 0 0 0 0 0 0 0 0.25 0"/><feBlend in2="effect2_innerShadow_6888_26673" result="effect3_innerShadow_6888_26673"/></filter><filter id="filter2_f_6888_26673" width="138.976" height="3.963" x="5.01" y="120.311" color-interpolation-filters="sRGB" filterUnits="userSpaceOnUse"><feFlood flood-opacity="0" result="BackgroundImageFix"/><feBlend in="SourceGraphic" in2="BackgroundImageFix" result="shape"/><feGaussianBlur result="effect1_foregroundBlur_6888_26673" stdDeviation=".811"/></filter><filter id="filter3_i_6888_26673" width="18.107" height="23.72" x="138.116" y="80.227" color-interpolation-filters="sRGB" filterUnits="userSpaceOnUse"><feFlood flood-opacity="0" result="BackgroundImageFix"/><feBlend in="SourceGraphic" in2="BackgroundImageFix" result="shape"/><feColorMatrix in="SourceAlpha" result="hardAlpha" values="0 0 0 0 0 0 0 0 0 0 0 0 0 0 0 0 0 0 127 0"/><feOffset dx="1.127" dy="-.431"/><feGaussianBlur stdDeviation="1.469"/><feComposite in2="hardAlpha" k2="-1" k3="1" operator="arithmetic"/><feColorMatrix values="0 0 0 0 0.113056 0 0 0 0 0.616667 0 0 0 0 0.58645 0 0 0 1 0"/><feBlend in2="shape" result="effect1_innerShadow_6888_26673"/></filter><filter id="filter4_i_6888_26673" width="17.328" height="21.25" x="126.922" y="84.906" color-interpolation-filters="sRGB" filterUnits="userSpaceOnUse"><feFlood flood-opacity="0" result="BackgroundImageFix"/><feBlend in="SourceGraphic" in2="BackgroundImageFix" result="shape"/><feColorMatrix in="SourceAlpha" result="hardAlpha" values="0 0 0 0 0 0 0 0 0 0 0 0 0 0 0 0 0 0 127 0"/><feOffset dx="1.127" dy="-.431"/><feGaussianBlur stdDeviation="1.469"/><feComposite in2="hardAlpha" k2="-1" k3="1" operator="arithmetic"/><feColorMatrix values="0 0 0 0 0.0996528 0 0 0 0 0.683333 0 0 0 0 0.555806 0 0 0 1 0"/><feBlend in2="shape" result="effect1_innerShadow_6888_26673"/></filter><filter id="filter5_i_6888_26673" width="20.549" height="5.296" x="130.004" y="100.855" color-interpolation-filters="sRGB" filterUnits="userSpaceOnUse"><feFlood flood-opacity="0" result="BackgroundImageFix"/><feBlend in="SourceGraphic" in2="BackgroundImageFix" result="shape"/><feColorMatrix in="SourceAlpha" result="hardAlpha" values="0 0 0 0 0 0 0 0 0 0 0 0 0 0 0 0 0 0 127 0"/><feOffset dx=".47" dy="-.353"/><feGaussianBlur stdDeviation=".411"/><feComposite in2="hardAlpha" k2="-1" k3="1" operator="arithmetic"/><feColorMatrix values="0 0 0 0 0.833333 0 0 0 0 0.604343 0 0 0 0 0.0555555 0 0 0 1 0"/><feBlend in2="shape" result="effect1_innerShadow_6888_26673"/></filter><radialGradient id="paint2_radial_6888_26673" cx="0" cy="0" r="1" gradientTransform="rotate(-15.177 278.601 19.007) scale(17.2443)" gradientUnits="userSpaceOnUse"><stop stop-color="#FFF1CF"/><stop offset=".188" stop-color="#FFE4A2"/><stop offset=".318" stop-color="#FFD364"/><stop offset=".49" stop-color="#FFD364"/><stop offset=".651" stop-color="#FFC73A"/><stop offset=".948" stop-color="#D09500"/></radialGradient><radialGradient id="paint3_radial_6888_26673" cx="0" cy="0" r="1" gradientTransform="rotate(121.889 -17.524 38.398) scale(3.7766 3.43936)" gradientUnits="userSpaceOnUse"><stop stop-color="#fff"/><stop offset=".694" stop-color="#fff" stop-opacity="0"/></radialGradient><radialGradient id="paint5_radial_6888_26673" cx="0" cy="0" r="1" gradientTransform="rotate(-15.177 169.42 -480.31) scale(13.162)" gradientUnits="userSpaceOnUse"><stop stop-color="#E6C6FF"/><stop offset=".188" stop-color="#C07DF5"/><stop offset=".318" stop-color="#BE6FFC"/><stop offset=".49" stop-color="#B56AF0"/><stop offset=".651" stop-color="#A745F4"/><stop offset=".948" stop-color="#9F3DED"/></radialGradient><radialGradient id="paint6_radial_6888_26673" cx="0" cy="0" r="1" gradientTransform="matrix(-1.52279 2.4475 -2.22894 -1.3868 132.481 27.572)" gradientUnits="userSpaceOnUse"><stop stop-color="#fff"/><stop offset=".694" stop-color="#fff" stop-opacity="0"/></radialGradient></defs></svg>