<svg xmlns="http://www.w3.org/2000/svg" width="199" height="202" fill="none" viewBox="0 0 199 202"><path fill="#F1F3F8" fill-rule="evenodd" d="M109.44 174.22l56.33-56.33a9 9 0 0112.499.221 9 9 0 01.221 12.499l-56.33 56.33a9.001 9.001 0 01-12.5-.22 9.001 9.001 0 01-.22-12.5M14.8 128.759l8.71-8.71a8.999 8.999 0 1112.72 12.72l-8.71 8.71a9 9 0 11-12.72-12.72" clip-rule="evenodd"/><path fill="#F1F3F8" fill-rule="evenodd" d="M113.45 145.29l25.74-25.74a9 9 0 0012.72 12.71L126.16 158a9 9 0 10-12.71-12.72m-11.01-39.21L126.56 82a9 9 0 0012.72 12.72l-24.12 24.12a9 9 0 00-12.72-12.72" clip-rule="evenodd"/><path fill="#F1F3F8" fill-rule="evenodd" d="M93.9 139.53l70.37-70.37A9 9 0 01177 81.87l-70.37 70.38a9 9 0 01-12.73-12.72m-69.15 19.08l95.8-95.8a9 9 0 1112.71 12.72l-95.79 95.79a9 9 0 01-12.435-.276 9 9 0 01-.285-12.434m16.94-63.07L77.23 60A9.008 9.008 0 1190 72.71l-35.6 35.549a8.999 8.999 0 01-12.434-.285 9 9 0 01-.276-12.434m58.8-58.8l.21-.21a9 9 0 0112.72 12.72l-.22.21a9 9 0 01-12.71 0 9 9 0 010-12.72M73.22 159.61l.21-.21a9 9 0 1112.72 12.71l-.21.22a9 9 0 01-12.72 0 9 9 0 010-12.72" clip-rule="evenodd"/><path fill="#717790" fill-rule="evenodd" d="M194.44 191.469a4.915 4.915 0 011.84-.26 9.732 9.732 0 011.85.18.56.56 0 010 1.09c-.609.12-1.229.18-1.85.18a4.875 4.875 0 01-1.84-.26.49.49 0 010-.93m-168.53.021c6.91-.2 13.82-.23 20.73-.23H171c6.91 0 13.81 0 20.72.2a.58.58 0 010 1.15c-6.91.18-13.81.19-20.72.2H46.64c-6.91 0-13.82 0-20.73-.23a.44.44 0 01-.43-.46.45.45 0 01.43-.43m-4.08-.41c.09-.01.181-.01.27 0h.13c.05.011.098.031.14.06a.69.69 0 01.18.95.788.788 0 01-.18.18.443.443 0 01-.14.06h-.13c-.089.01-.18.01-.27 0a.673.673 0 01-.51-.8.649.649 0 01.51-.51m-6.64.239a6.307 6.307 0 011.34-.18 3.89 3.89 0 011.35.12.56.56 0 01.37.7.588.588 0 01-.37.37c-.44.12-.896.16-1.35.12a6.181 6.181 0 01-1.34-.18.48.48 0 01-.35-.6.462.462 0 01.35-.35m74.53 8.851c2.16-.2 4.31-.23 6.47-.23h6.47l12.94-.08H135c2.16 0 4.32 0 6.47.2a.576.576 0 01.54.62.61.61 0 01-.54.54c-2.15.17-4.31.18-6.47.19h-19.4l-12.94-.07h-6.47c-2.16 0-4.31 0-6.47-.23a.45.45 0 010-.89m-21.29-.08c2.21-.12 4.42-.16 6.63-.18 2.21-.02 4.42 0 6.63.12a.54.54 0 010 1.07c-2.21.14-4.42.15-6.63.12s-4.42-.06-6.63-.18a.474.474 0 01-.46-.5.49.49 0 01.46-.45" clip-rule="evenodd"/><path fill="#C8D6EC" fill-rule="evenodd" d="M185.561 152.28a2.72 2.72 0 105.44 0 2.72 2.72 0 00-5.44 0zm2.053-.264a.72.72 0 01.667-.446v-.02a.72.72 0 01.72.73.72.72 0 11-1.387-.264z" clip-rule="evenodd"/><path fill="#C8D6EC" d="M5.36 73.94a1 1 0 01-1-1v-8.5a1 1 0 112 0v8.5a1 1 0 01-1 1z"/><path fill="#C8D6EC" d="M9.61 69.69h-8.5a1 1 0 010-2h8.5a1 1 0 010 2z"/><path fill="#C8D6EC" fill-rule="evenodd" d="M58.167 62.94a2.72 2.72 0 105.026-2.081 2.72 2.72 0 00-5.026 2.082zm1.847-1.303a.72.72 0 111.332.546.72.72 0 01-1.332-.546zM186.101 99.1a2.72 2.72 0 105.44 0 2.72 2.72 0 00-5.44 0zm2.053-.263a.72.72 0 01.667-.447.708.708 0 01.72.71.72.72 0 11-1.387-.263zM92.99 56.36c.154.083.326.127.5.13a.75.75 0 00.26-.04l3.07-.83a1 1 0 00.7-1.23l-.84-3.07a1 1 0 00-1.23-.7l-3.06.84a1 1 0 00-.7 1.23l.83 3.06a1 1 0 00.47.61zm1.2-2.1l-.31-1.14 1.12-.3.32 1.18-1.13.26zm-58.8 60.389a3 3 0 106 0 3 3 0 00-6 0zm2 0a1 1 0 112 0 1 1 0 01-2 0z" clip-rule="evenodd"/><path fill="#CED6DE" fill-rule="evenodd" d="M110.175 6.196a.503.503 0 00.465.194h.13l1.79-.48a.516.516 0 00-.25-1l-1.8.48a.503.503 0 00-.335.806zM106.58 7.5a.505.505 0 01-.14-1l2-.56a.518.518 0 11.27 1l-2 .56a.3.3 0 01-.07 0h-.06zm-4.57.73a.505.505 0 00.57.43h.01a.319.319 0 00.13-.04l2-.58a.5.5 0 00.34-.62.49.49 0 00-.62-.34l-2 .58a.505.505 0 00-.43.57zm-3.43 1.65a.51.51 0 01-.48-.35.51.51 0 01.33-.63l2-.61a.49.49 0 01.62.33.5.5 0 01-.33.62l-2 .62-.14.02zm-4.48.92a.5.5 0 00.48.35l.14-.02 2-.65a.49.49 0 00.33-.62.5.5 0 00-.63-.33l-2 .64a.51.51 0 00-.32.63zm-3.52 1.68a.5.5 0 01-.16-.97l2-.68a.5.5 0 01.63.32.49.49 0 01-.31.63l-2 .68-.16.02zm-4.47 1.07a.52.52 0 00.47.33c.055 0 .109-.01.16-.03l2-.71a.5.5 0 10-.33-.94l-2 .71a.5.5 0 00-.3.64zm-3.47 1.8a.52.52 0 01-.47-.33.5.5 0 01.29-.64l2-.75a.52.52 0 01.65.3.5.5 0 01-.3.64l-2 .74a.576.576 0 01-.17.04zm-4.38 1.23a.5.5 0 00.46.31.41.41 0 00.18-.04l2-.78a.5.5 0 00.28-.65.51.51 0 00-.65-.28l-2 .79a.49.49 0 00-.27.65zm-3.42 1.94a.51.51 0 11-.2-1l1.94-.83a.52.52 0 01.66.27.5.5 0 01-.27.65l-1.97.87a.448.448 0 01-.16.04zm-4.32 1.328a.5.5 0 00.48.392.41.41 0 00.21-.05l1.91-.87a.5.5 0 00-.41-.91l-1.92.88a.5.5 0 00-.27.558zm-3.31 2.222a.52.52 0 01-.45-.28.5.5 0 01.22-.67l1.9-.93a.5.5 0 11.43.9l-1.88.91a.459.459 0 01-.22.07zm-4.18 1.67a.5.5 0 00.44.26.41.41 0 00.24-.05l1.85-1a.5.5 0 00.22-.67.51.51 0 00-.68-.21c-.231.125-.461.247-.69.369-.394.209-.784.416-1.17.631a.49.49 0 00-.21.67zM59.83 26a.5.5 0 01-.26-.93l.29-.17a82.122 82.122 0 011.55-.89.5.5 0 01.68.2.51.51 0 01-.19.68l-.648.36c-.397.22-.789.439-1.172.64a.47.47 0 01-.27.18l.02-.07zm-4.01 1.98a.51.51 0 00.43.23l-.02.07a.56.56 0 00.29-.15c.57-.38 1.16-.75 1.77-1.12a.51.51 0 00.16-.69.5.5 0 00-.69-.16c-.61.37-1.2.75-1.79 1.13a.5.5 0 00-.15.69zm-3.05 2.59a.51.51 0 01-.41-.2.51.51 0 01.11-.7c.57-.41 1.15-.81 1.74-1.21a.5.5 0 01.56.82c-.58.4-1.16.8-1.71 1.2a.52.52 0 01-.31.16l.02-.07zM49 33a.48.48 0 00.42.12l-.02.07a.51.51 0 00.31-.1c.53-.43 1.08-.86 1.64-1.29a.49.49 0 00.1-.7.51.51 0 00-.7-.1l-1.68 1.3a.49.49 0 00-.07.7zm-2.77 2.87a.51.51 0 01-.37-.17.5.5 0 010-.7l.277-.256c.414-.385.828-.77 1.303-1.154a.51.51 0 01.71.05.49.49 0 010 .7c-.54.47-1.06.93-1.56 1.39a.51.51 0 01-.38.21l.02-.07zm-3.33 2.86a.47.47 0 00.33.14v.04a.52.52 0 00.4-.2c.45-.5.94-1 1.45-1.5a.51.51 0 000-.71.5.5 0 00-.71 0 77.452 77.452 0 00-1.47 1.53.48.48 0 000 .7zm-2.38 3.35a.49.49 0 01-.39-.8c.42-.55.86-1.11 1.33-1.66a.49.49 0 01.7-.06.49.49 0 01.06.7 46.1 46.1 0 00-1.3 1.62.49.49 0 01-.4.24v-.04zm-2.62 3.4a.48.48 0 00.26.07v.04a.5.5 0 00.43-.28c.35-.58.72-1.16 1.12-1.74a.503.503 0 00-.83-.57c-.41.6-.79 1.2-1.15 1.8a.49.49 0 00.17.68zm-1.68 3.8a.478.478 0 01-.2 0 .51.51 0 01-.26-.66c.29-.64.6-1.29.93-1.92a.49.49 0 01.67-.22.5.5 0 01.21.68c-.32.61-.62 1.24-.89 1.86a.5.5 0 01-.46.3v-.04zm-1.54 4h.13a.5.5 0 00.48-.29c.18-.68.39-1.35.63-2a.51.51 0 00-.31-.64.5.5 0 00-.64.31c-.24.64-.45 1.33-.64 2a.49.49 0 00.35.62zM34 57.4h-.06a.5.5 0 01-.44-.56c.08-.7.2-1.41.33-2.11a.5.5 0 01.59-.4.51.51 0 01.4.59c-.14.667-.25 1.333-.33 2a.5.5 0 01-.49.48zm-.67 3.81a.5.5 0 00.5.48l.02-.03a.5.5 0 00.48-.52v-2.07a.51.51 0 00-.48-.52.52.52 0 00-.52.48v2.18zm.95 4.66a.49.49 0 01-.49-.41c-.13-.71-.23-1.42-.31-2.12a.5.5 0 01.45-.55.49.49 0 01.55.44c.07.68.17 1.37.29 2a.5.5 0 01-.4.58l-.09.06zm.52 3.73a.5.5 0 00.48.35l.15-.01a.5.5 0 00.32-.63c-.2-.67-.39-1.33-.56-2a.5.5 0 00-.6-.37.51.51 0 00-.37.61c.17.69.37 1.37.58 2.05zm95.32.4l2.12.14v-.05a.5.5 0 000-1l-2.12-.09a.5.5 0 000 1zm-8.38.46a.501.501 0 11-.07-1c.7-.09 1.4-.16 2.12-.22a.51.51 0 01.54.45.498.498 0 01-.46.54c-.7.06-1.39.14-2.07.22l-.06.01zm14.63.07h.06v.01a.5.5 0 10.06-1c-.71-.09-1.41-.16-2.11-.23a.502.502 0 00-.09 1c.653.057 1.305.131 1.967.207l.113.013zm-18.78.62a.5.5 0 01-.49-.39.51.51 0 01.39-.6c.68-.14 1.38-.27 2.08-.39a.51.51 0 01.58.41.51.51 0 01-.41.58c-.69.11-1.38.24-2 .38l-.15.01zm22.91 0h.09v.02a.502.502 0 00.09-1l-2.09-.36a.5.5 0 10-.15.99c.68.1 1.36.22 2.06.35zm-26.99 1a.505.505 0 01-.14-1c.67-.21 1.35-.4 2-.57a.514.514 0 01.24 1c-.68.18-1.34.36-2 .56a.386.386 0 01-.1.01zm30.93.14a.67.67 0 00.2 0 .51.51 0 00.48-.29.487.487 0 00-.27-.65 17.975 17.975 0 00-2-.74h-.09a.44.44 0 00-.54.37.53.53 0 00.39.614.355.355 0 00.024.009l.051.016c.221.073.862.285 1.755.671zM36.3 73.49a.51.51 0 00.46.3.449.449 0 00.2-.08.5.5 0 00.26-.66c-.28-.63-.54-1.27-.79-1.92a.5.5 0 10-.93.36c.25.7.52 1.36.8 2zm112.05.72a.48.48 0 01-.26-.07c-.58-.36-1.19-.7-1.81-1a.5.5 0 01-.22-.67.52.52 0 01.68-.22c.328.17.654.346.974.52.304.166.604.329.896.48a.51.51 0 01.17.69.52.52 0 01-.39.27h-.04zm-43.13.79a.51.51 0 00.45.27h.04a.48.48 0 00.19-.05c.61-.31 1.24-.61 1.87-.9a.49.49 0 00.25-.66.5.5 0 00-.66-.25c-.65.3-1.29.6-1.91.92a.501.501 0 00-.23.67zm46.54 1.67a.49.49 0 01-.32-.12l-.163-.138-.003-.003c-.452-.383-.903-.764-1.464-1.129a.51.51 0 01-.11-.7.488.488 0 01.7-.11c.59.42 1.16.87 1.69 1.32a.51.51 0 01.05.71.52.52 0 01-.34.17h-.04zm-113.11.88a.5.5 0 01-.44-.25c-.34-.62-.68-1.24-1-1.88a.5.5 0 01.23-.67.49.49 0 01.67.22c.31.62.64 1.24 1 1.84a.49.49 0 01-.19.68.5.5 0 01-.27.06zm116.07 2.15a.5.5 0 01-.4-.19A19.173 19.173 0 00153 78a.498.498 0 010-.71.51.51 0 01.71 0c.5.517.97 1.061 1.41 1.63a.5.5 0 01-.09.7.49.49 0 01-.31.08zM40.45 80.92a.49.49 0 00.69.13.5.5 0 00.14-.69c-.39-.57-.77-1.16-1.14-1.75a.48.48 0 00-.68-.16.49.49 0 00-.17.68c.38.61.77 1.21 1.16 1.79zm54.82 1.37a.46.46 0 01-.37-.18.49.49 0 010-.7c.53-.46 1.08-.92 1.63-1.37a.52.52 0 01.71.08.49.49 0 01-.08.7c-.55.44-1.08.89-1.6 1.34a.46.46 0 01-.29.17v-.04zm61.17.71a.49.49 0 00.45.29.5.5 0 00.41-.7 16.889 16.889 0 00-1-1.92.503.503 0 00-.86.52c.369.583.703 1.188 1 1.81zM43.35 84.54a.5.5 0 01-.4-.19c-.43-.55-.86-1.11-1.28-1.69a.501.501 0 01.81-.59c.41.57.83 1.12 1.26 1.67a.5.5 0 01-.09.7.49.49 0 01-.3.1zm48.397.365a.5.5 0 00.463.305.49.49 0 00.38-.17c.273-.256.545-.527.821-.802.22-.219.443-.44.67-.658a.48.48 0 000-.7.5.5 0 00-.71 0c-.52.48-1.03.98-1.52 1.48a.5.5 0 00-.104.545zM158.17 87.3a.49.49 0 01-.49-.41 16.146 16.146 0 00-.47-2 .51.51 0 01.33-.63.5.5 0 01.62.33c.21.693.38 1.398.51 2.11a.5.5 0 01-.41.57l-.09.03zm-112.44.31a.5.5 0 00.363.16h-.043a.54.54 0 00.43-.12.51.51 0 000-.71c-.46-.51-.92-1.03-1.37-1.58a.51.51 0 00-.71-.06.49.49 0 00-.06.7c.338.448.681.826 1.022 1.2.123.137.246.272.368.41zm43.68.71a.5.5 0 01-.41-.82c.45-.53.92-1.07 1.41-1.6a.49.49 0 01.7 0 .5.5 0 010 .71l-.24.26-.002.001c-.393.424-.774.834-1.148 1.299a.49.49 0 01-.346.15h.036zm-40.76 2.37a.5.5 0 00.35.15.51.51 0 00.36-.15.51.51 0 000-.71c-.48-.467-.97-.967-1.47-1.5a.5.5 0 10-.72.69c.48.52 1 1.04 1.48 1.52zm109.6.8h-.1a.499.499 0 01-.317-.214c-.073-.11-.099-.246-.073-.376.07-.36.1-.57.1-.58v-1.43a.501.501 0 011-.06v1.5c0 .05 0 .28-.12.71a.49.49 0 01-.47.45h-.02zm-71.82.04a.53.53 0 00.3.09h.02a.51.51 0 00.38-.2c.4-.55.82-1.1 1.27-1.66a.5.5 0 00-.08-.7.5.5 0 00-.71.08c-.45.57-.88 1.13-1.29 1.69a.51.51 0 00.11.7zM52 93.73a.5.5 0 01-.33-.13c-.33-.29-.67-.602-1.03-.935-.175-.16-.354-.326-.54-.495a.51.51 0 010-.71.5.5 0 01.71 0l.356.332.003.002c.415.388.81.757 1.191 1.076a.5.5 0 01-.34.88l-.02-.02zm32.08 1.29a.47.47 0 00.27.08h.01a.48.48 0 00.41-.23c.36-.57.75-1.15 1.16-1.75a.51.51 0 00-.13-.69.5.5 0 00-.7.13 60.75 60.75 0 00-1.17 1.77.5.5 0 00.15.69zm72.92.5a.72.72 0 01-.19 0 .52.52 0 01-.27-.66c.27-.64.51-1.29.71-1.93a.522.522 0 011 .3c-.22.67-.47 1.35-.74 2a.51.51 0 01-.51.29zm-102.02.81a.49.49 0 00.293.1h-.003a.51.51 0 00.41-.2.5.5 0 00-.09-.7c-.33-.25-.9-.69-1.64-1.31a.5.5 0 00-.7.07.49.49 0 00.06.7c.75.63 1.33 1.08 1.67 1.34zm27.241 2.41h.003-.004.001zm.43-.26a.51.51 0 01-.43.26.459.459 0 01-.22-.06.5.5 0 01-.21-.68c.086-.16.176-.324.269-.492.236-.43.486-.883.73-1.358a.5.5 0 01.86.5c-.38.65-.72 1.26-1 1.83zm72.431.77a.538.538 0 01-.262-.07.5.5 0 01-.15-.69c.36-.58.71-1.19 1-1.79a.5.5 0 01.67-.22.51.51 0 01.22.68c-.33.63-.69 1.25-1.07 1.86a.48.48 0 01-.407.23h-.001zm-92.272.53a.63.63 0 00.19 0 .5.5 0 00.51-.28.49.49 0 00-.27-.65l-2-.8a.51.51 0 00-.65.27.5.5 0 00.27.66l1.95.8zm4.05 1.57c-.06.01-.12.01-.18 0l-2-.78a.5.5 0 01-.28-.65.51.51 0 01.65-.28c.65.27 1.3.52 2 .78a.5.5 0 01.29.64.51.51 0 01-.44.28l-.04.01zm13.28 1.2a.481.481 0 00.2 0l.04-.01a.508.508 0 00.42-.31c.15-.37.44-1.03.87-1.9a.501.501 0 00-.9-.44c-.216.491-.395.89-.541 1.214l-.001.001c-.151.336-.266.592-.348.785a.5.5 0 00.26.66zm72.39.09a.517.517 0 01-.33-.12.51.51 0 01-.05-.71c.46-.514.894-1.052 1.3-1.61a.51.51 0 01.7-.1.5.5 0 01.1.7c-.42.57-.87 1.13-1.34 1.67a.519.519 0 01-.34.16l-.04.01zm-81.91.21c.056.01.114.01.17 0l.04-.01a.498.498 0 00.44-.28.501.501 0 00-.29-.65l-2-.74a.49.49 0 00-.64.29.51.51 0 00.28.65l2 .74zm4.17 1.45a.485.485 0 01-.17 0c-.289-.105-.577-.208-.868-.312h-.001l-.006-.002-.003-.001-.004-.002c-.369-.131-.74-.264-1.118-.403a.49.49 0 01-.3-.64.5.5 0 01.64-.3l2 .72a.51.51 0 01.31.64.52.52 0 01-.48.29v.01zm74.4 1.11a.52.52 0 00.38.17v-.01a.483.483 0 00.32-.11c.478-.356.889-.758 1.3-1.158l.29-.282a.5.5 0 000-.71.49.49 0 00-.7 0c-.186.169-.367.337-.545.502-.328.305-.648.603-.985.888a.51.51 0 00-.06.71zm-70.09 1.17H79a.51.51 0 01-.36-.61 2.73 2.73 0 00.07-.27h-.08l-2-.68a.503.503 0 01.33-.95l2 .68c.08-.27.16-.54.25-.82a.522.522 0 111 .3c-.22.68-.41 1.34-.58 2a.49.49 0 01-.53.32v.03zm3.51.42h.16a.48.48 0 00.44-.707.491.491 0 00-.29-.243l-2-.65a.5.5 0 00-.63.32.49.49 0 00.32.63l2 .65zm63.59 1.04a.5.5 0 01-.27-.92c.59-.37 1.17-.76 1.72-1.16a.5.5 0 11.59.81c-.57.41-1.17.81-1.78 1.19a.418.418 0 01-.29.04l.03.04zm-59.39.162a.357.357 0 01-.13-.002l-2-.6a.51.51 0 01-.33-.63.5.5 0 01.62-.33l2 .6a.5.5 0 01.34.62.49.49 0 01-.5.342zm-8.6 2.488h.09a.5.5 0 00.47-.48c.09-.62.2-1.31.33-2a.48.48 0 00-.39-.58.492.492 0 00-.59.39c-.14.71-.25 1.42-.34 2.11a.49.49 0 00.43.56zm20.79.65h-.1a82.956 82.956 0 01-2.027-.453h-.003l-.001-.001h-.004v-.001h-.004l-.001-.001h-.004v-.001h-.004v-.001h-.005v-.001h-.004l-.001-.001h-.002a.5.5 0 01-.38-.6.5.5 0 01.6-.37l2 .46a.49.49 0 01-.06.97zm39.11-.07a.5.5 0 00.47.35l-.03-.06a.441.441 0 00.19.03c.69-.23 1.36-.47 2-.72a.5.5 0 00.29-.64.51.51 0 00-.65-.29c-.63.25-1.28.48-1.95.7a.49.49 0 00-.32.63zm-34.93.96h-.091c-.689-.13-1.379-.26-2.079-.41a.492.492 0 01-.317-.208.493.493 0 01-.073-.372.51.51 0 01.59-.4l.35.07c.578.116 1.144.23 1.71.33a.5.5 0 01.4.58.49.49 0 01-.52.35l.03.06zm30.86.11a.5.5 0 00.49.39l.09-.01c.71-.16 1.39-.33 2.06-.51a.51.51 0 00.35-.62.5.5 0 00-.61-.35c-.64.18-1.31.35-2 .5a.51.51 0 00-.38.6zm-26.71.59h-.07l-2.09-.34a.507.507 0 01.16-1l2.07.33a.501.501 0 01-.07 1v.01zm-29.8 1.5a.5.5 0 00.5.48h.01a.49.49 0 00.49-.51v-2.06a.501.501 0 10-1-.06v2.15zm.97 4.66a.51.51 0 01-.49-.4c-.14-.7-.25-1.41-.33-2.12a.501.501 0 01.702-.515.501.501 0 01.298.405c.08.68.18 1.36.32 2a.51.51 0 01-.39.59l-.11.04zm.76 3.69a.51.51 0 00.46.31l.04-.02A.41.41 0 0080 123a.5.5 0 00.19-.58 19.483 19.483 0 01-.7-1.94.5.5 0 00-.62-.33.51.51 0 00-.33.63c.206.678.447 1.346.72 2zm2.46 4.02a.509.509 0 01-.42-.23c-.39-.6-.76-1.22-1.09-1.85a.5.5 0 01.21-.67.498.498 0 01.68.2c.303.61.637 1.204 1 1.78a.5.5 0 01-.15.69.528.528 0 01-.23.06v.02zm2.21 3.15a.49.49 0 00.37.16v-.02a.5.5 0 00.37-.11.51.51 0 000-.71c-.47-.51-.92-1.04-1.34-1.57a.501.501 0 10-.78.61c.376.554.88 1.098 1.364 1.623l.016.017zm3.43 3.05a.484.484 0 01-.32-.11c-.56-.46-1.1-.94-1.61-1.42a.49.49 0 010-.7.499.499 0 01.71 0c.49.46 1 .92 1.56 1.37a.5.5 0 01-.32.88l-.02-.02zm3.15 2.39a.527.527 0 00.27.08h-.02a.5.5 0 00.29-.92c-.58-.38-1.15-.77-1.71-1.18a.501.501 0 00-.59.81c.57.42 1.16.82 1.76 1.21zm3.91 2.19a.453.453 0 01-.23-.06c-.402-.204-.8-.421-1.198-.637-.225-.122-.448-.244-.672-.363a.51.51 0 01-.18-.69.52.52 0 01.69-.18c.6.35 1.21.69 1.82 1a.5.5 0 01-.23.94v-.01zm3.805 1.801a.444.444 0 01-.195-.001c-.65-.27-1.29-.56-1.94-.87a.499.499 0 11.43-.9c.63.3 1.27.58 1.9.85a.51.51 0 01.27.66.499.499 0 01-.465.261zm3.765 1.529a.49.49 0 00.162.001.498.498 0 00.508-.311.51.51 0 00-.31-.64 35.844 35.844 0 01-1.847-.662l-.153-.058a.5.5 0 00-.65.29.5.5 0 00.29.64c.68.26 1.34.51 2 .74zm4.03 1.27a.33.33 0 00.14 0l.03.04a.506.506 0 00.531-.694.505.505 0 00-.401-.306l-2-.6a.5.5 0 00-.63.32.499.499 0 00.33.63c.65.22 1.33.42 2 .61zm4.22 1.06h-.11l-.48-.115a73.418 73.418 0 01-1.59-.395.513.513 0 01-.245-.858.512.512 0 01.495-.142 69.93 69.93 0 001.556.392h.003l.009.003.005.001.427.104a.5.5 0 01.38.6.51.51 0 01-.45.41zm4.13.84h-.08c-.63-.11-1.33-.24-2.09-.4a.5.5 0 01-.39-.59.52.52 0 01.59-.39c.75.16 1.44.29 2.06.39a.502.502 0 11-.09 1v-.01zM122 114l-.019-.001c.716-.049 1.413-.049 2.109-.049a.5.5 0 000-1c-.68.05-1.38.05-2.09.05a.5.5 0 00-.5.5.51.51 0 00.481.499l-.011.001h.03zm-4.22-.07c.72.07 1.43.07 2.12.07h.02a.5.5 0 000-1l-2.09-.06a.482.482 0 00-.52.47.489.489 0 00.47.52zm8.43-.07a.5.5 0 010-1c.553 0 1.105-.062 1.643-.123h.004l.423-.047a.491.491 0 01.55.44.5.5 0 01-.44.55c-.69.07-1.4.13-2.12.18h-.06zm-12.093-.115c.536.058 1.062.115 1.583.115l-.03-.06a.49.49 0 00.56-.4.492.492 0 00-.46-.53l-2.09-.17a.5.5 0 00-.429.815.489.489 0 00.339.175c.177.017.352.036.526.055h.001zm-2.617-.265l-.12-.014a79.765 79.765 0 01-1.98-.246.493.493 0 01-.43-.56.49.49 0 01.56-.43l2.08.26a.501.501 0 01-.06 1l-.05-.01zm18.355-.465a.501.501 0 00.535.465l.07.02c.72-.1 1.42-.22 2.1-.34a.506.506 0 00.298-.828.507.507 0 00-.478-.172c-.67.12-1.35.23-2.06.32a.501.501 0 00-.465.535zM94.9 110.4h-.12l-2-.51a.51.51 0 01-.36-.61.501.501 0 01.61-.36l2 .51a.51.51 0 01.37.61.5.5 0 01-.48.36h-.02zm46.945-.765a.511.511 0 00.605.395l.02-.03c.06.009.121.005.18-.01l.614-.319.004-.002c.445-.23.873-.452 1.292-.679a.487.487 0 00.246-.291.486.486 0 00-.036-.379.497.497 0 00-.68-.21c-.59.32-1.21.63-1.85.92a.511.511 0 00-.395.605zm-51.025-.285h-.13l-2-.56a.517.517 0 11.27-1c.437.129.875.249 1.301.366l.004.001.695.193a.504.504 0 01-.13 1h-.01zM59.11 98.17a.478.478 0 01-.2 0L57 97.31a.501.501 0 11.4-.92l1.93.82a.509.509 0 01-.19 1l-.03-.04zM98.15 79.5a.51.51 0 00.41.2v-.01a.46.46 0 00.29-.09c.55-.41 1.12-.81 1.7-1.2a.51.51 0 00.14-.7.5.5 0 00-.7-.13c-.59.4-1.17.81-1.73 1.23a.51.51 0 00-.11.7zm3.42-2.41a.52.52 0 00.43.24.498.498 0 00.26-.13c.352-.185.704-.384 1.063-.587h.001c.242-.138.486-.276.736-.413a.504.504 0 00-.49-.88c-.627.347-1.237.707-1.83 1.08a.51.51 0 00-.17.69zm7.97-3.55a.51.51 0 01-.46-.31.503.503 0 01.28-.65c.65-.26 1.31-.51 2-.75a.527.527 0 01.33 1c-.66.23-1.31.47-2 .73a.574.574 0 01-.15-.02zm16.39-3.4a.5.5 0 010-1c.381 0 .764-.018 1.149-.035h.002c.322-.015.646-.03.969-.035a.5.5 0 010 1c-.7 0-1.39 0-2.08.06l-.04.01z" clip-rule="evenodd"/><path fill="#DAE1E7" fill-rule="evenodd" d="M73.48 122.55H71.5v-2h-1.33v2h-1.98v1.33h1.98v2.01h1.33v-2.01h1.98v-1.33z" clip-rule="evenodd"/><path fill="#fff" d="M114.811 7.58a3.29 3.29 0 100-6.58 3.29 3.29 0 000 6.58z"/><path fill="#CED6DE" fill-rule="evenodd" d="M111.021 4.29a3.79 3.79 0 107.579.001 3.79 3.79 0 00-7.579-.001zm1 0a2.79 2.79 0 115.58 0 2.79 2.79 0 01-5.58 0z" clip-rule="evenodd"/><path fill="#A9E0D0" d="M74.52 96.75h89.7v73.29h-89.7z"/><path fill="#717790" fill-rule="evenodd" d="M73.52 171h91.701V95.75h-91.7V171zm89.701-2h-87.7V97.75h87.7V169z" clip-rule="evenodd"/><path fill="#A9E0D0" d="M46.58 96.75h89.7v73.29h-89.7z"/><path fill="#717790" fill-rule="evenodd" d="M45.58 171h91.7V95.75h-91.7V171zm89.7-2h-87.7V97.75h87.7V169z" clip-rule="evenodd"/><path fill="#A9E0D0" d="M136.28 96.75l22.4-20.8h27.51l-21.97 20.8h-27.94z"/><path fill="#717790" fill-rule="evenodd" d="M133.73 97.75h30.88L188.7 75h-30.42l-24.55 22.75zm30.09-2h-25L159.07 77h24.61l-19.86 18.75z" clip-rule="evenodd"/><path fill="#A9E0D0" d="M74.94 96.75l-22.4-20.8H25.02L47 96.75h27.94z"/><path fill="#717790" fill-rule="evenodd" d="M46.6 97.75h30.89L52.93 75H22.51L46.6 97.75zm25.8-2h-25L27.54 77h24.6L72.4 95.75z" clip-rule="evenodd"/><g opacity=".3"><path fill="#717790" d="M98.25 113.61c14.559 0 26.361-11.802 26.361-26.36 0-14.559-11.802-26.36-26.36-26.36-14.559 0-26.36 11.801-26.36 26.36 0 14.558 11.801 26.36 26.36 26.36z"/><path fill="#fff" d="M108.78 105.529l11.53 20.02z"/><path fill="#717790" d="M120.311 126.54a1.001 1.001 0 01-.87-.5l-11.53-20a1.003 1.003 0 111.74-1l11.52 20a1 1 0 01-.37 1.36 1.007 1.007 0 01-.49.14z"/><rect width="8.46" height="17.82" x="113.662" y="122.475" fill="#717790" rx="4.23" transform="rotate(-29.94 113.662 122.475)"/></g><path fill="#fff" d="M101.05 109.59c14.559 0 26.36-11.802 26.36-26.36s-11.801-26.36-26.36-26.36c-14.558 0-26.36 11.802-26.36 26.36s11.802 26.36 26.36 26.36z"/><path fill="#717790" fill-rule="evenodd" d="M73.86 86.824c1.82 13.638 13.472 23.812 27.231 23.776a27.283 27.283 0 0013.61-3.66c11.921-6.87 16.898-21.516 11.632-34.227-5.266-12.711-19.142-19.546-32.43-15.973C80.618 60.313 72.04 73.186 73.86 86.824zm2.653-10.14A25.37 25.37 0 01101 57.87a25.21 25.21 0 0122 12.7 25.372 25.372 0 01-34.664 34.642 25.37 25.37 0 01-11.825-28.528z" clip-rule="evenodd"/><path fill="#fff" d="M114.2 106.07l8.9 15.45z"/><path fill="#717790" d="M123.101 122.52a.998.998 0 01-.86-.5l-8.9-15.45a.999.999 0 011.73-1l8.93 15.43a1 1 0 01-.87 1.49l-.03.03z"/><rect width="8.46" height="17.82" x="116.462" y="118.454" fill="#fff" rx="4.23" transform="rotate(-29.94 116.462 118.454)"/><path fill="#717790" fill-rule="evenodd" d="M122.37 130.73a5.24 5.24 0 004.54 2.62 5.19 5.19 0 002.6-.69 5.25 5.25 0 001.93-7.15l-4.68-8.11a5.231 5.231 0 00-9.151-.09 5.23 5.23 0 00.091 5.31l4.67 8.11zm-1.75-13.51a3.293 3.293 0 011.61-.43v-.01c.26.008.518.045.77.11a3.23 3.23 0 012 1.51l4.7 8.12a3.23 3.23 0 01-1.18 4.41 3.23 3.23 0 01-4.41-1.18l-4.68-8.12a3.23 3.23 0 011.19-4.41z" clip-rule="evenodd"/><path fill="#717790" d="M101.05 96.53a1 1 0 11.19-1.98.61.61 0 01.19.06c.061.02.119.05.17.09a.603.603 0 01.15.12.903.903 0 01.22.33 1 1 0 01-.92 1.38zm.001-6.88a1 1 0 01-1-1V69.18a1 1 0 112 0v19.47a1 1 0 01-1 1z"/></svg>