<svg width="128" height="126" viewBox="0 0 128 126" fill="none" xmlns="http://www.w3.org/2000/svg">
<g id="Layer_1" clip-path="url(#clip0_1179_6990)">
<path id="Vector" opacity="0.2" d="M65.6099 116.9C94.1699 116.9 117.32 93.75 117.32 65.19C117.32 36.63 94.1699 13.48 65.6099 13.48C37.0499 13.48 13.8999 36.63 13.8999 65.19C13.8999 93.75 37.0499 116.9 65.6099 116.9Z" fill="#BEC6D2"/>
<path id="Vector_2" d="M16.2598 15.3901H22.5998" stroke="#91A1B0" stroke-width="1.2" stroke-linecap="round" stroke-linejoin="round"/>
<path id="Vector_3" d="M30.1201 0.600098V6.9501" stroke="#91A1B0" stroke-width="1.2" stroke-linecap="round" stroke-linejoin="round"/>
<path id="Vector_4" d="M18.96 5.14014L23.99 9.01014" stroke="#91A1B0" stroke-width="1.2" stroke-linecap="round" stroke-linejoin="round"/>
<path id="Vector_5" d="M121.79 124.89H127.18" stroke="#91A1B0" stroke-width="1.2" stroke-linecap="round" stroke-linejoin="round"/>
<path id="Vector_6" d="M92.3701 124.89H115.95" stroke="#91A1B0" stroke-width="1.2" stroke-linecap="round" stroke-linejoin="round"/>
<path id="Vector_7" d="M0.600098 124.89H86.7701" stroke="#91A1B0" stroke-width="1.2" stroke-linecap="round" stroke-linejoin="round"/>
<path id="Vector_8" d="M103.57 39.82V105.88C103.57 108.2 101.69 110.08 99.3701 110.08H34.3201C32.0001 110.08 30.1201 108.2 30.1201 105.88V20.24C30.1201 17.92 32.0001 16.04 34.3201 16.04H81.3601" fill="white"/>
<path id="Vector_9" d="M103.57 39.82V105.88C103.57 108.2 101.69 110.08 99.3701 110.08H34.3201C32.0001 110.08 30.1201 108.2 30.1201 105.88V20.24C30.1201 17.92 32.0001 16.04 34.3201 16.04H81.3601" stroke="#91A1B0" stroke-width="1.2" stroke-miterlimit="10"/>
<path id="Vector_10" d="M103.57 39.82H85.8701C83.3801 39.82 81.3501 37.76 81.3501 35.21V16.04L103.57 39.82Z" fill="#91A1B0" stroke="#91A1B0" stroke-width="1.2" stroke-linecap="round" stroke-linejoin="round"/>
<path id="Vector_11" d="M40.2998 29.9702H69.7998" stroke="#CED6DE" stroke-width="1.2" stroke-linecap="round" stroke-linejoin="round"/>
<path id="Vector_12" d="M40.2998 35.7998H57.7198" stroke="#CED6DE" stroke-width="1.2" stroke-linecap="round" stroke-linejoin="round"/>
<path id="Vector_13" d="M103.57 115.36C113.95 115.36 122.37 106.94 122.37 96.5598C122.37 86.1798 113.95 77.7598 103.57 77.7598C93.19 77.7598 84.77 86.1798 84.77 96.5598C84.77 106.94 93.19 115.36 103.57 115.36Z" fill="white" stroke="#91A1B0" stroke-width="1.2" stroke-linecap="round" stroke-linejoin="round"/>
<path id="Vector_14" d="M39.9199 48.8398H81.3599" stroke="#CED6DE" stroke-width="1.2" stroke-linecap="round" stroke-linejoin="round"/>
<path id="Vector_15" d="M39.9199 54.9502H68.6899" stroke="#CED6DE" stroke-width="1.2" stroke-linecap="round" stroke-linejoin="round"/>
<path id="Vector_16" d="M77.1799 85.98H39.9199V97.67H77.1799V85.98Z" fill="white" stroke="#CED6DE" stroke-width="1.04" stroke-linecap="round" stroke-linejoin="round"/>
<path id="Vector_17" d="M39.9199 66.8398H81.3599" stroke="#CED6DE" stroke-width="1.2" stroke-linecap="round" stroke-linejoin="round"/>
<path id="Vector_18" d="M39.9199 72.9502H68.6899" stroke="#CED6DE" stroke-width="1.2" stroke-linecap="round" stroke-linejoin="round"/>
<path id="Vector_19" d="M97.3901 96.3998C98.7601 97.6898 102.17 101.79 102.74 103.27C102.78 103.35 102.85 103.54 103.08 103.54C103.19 103.54 103.31 103.46 103.38 103.39C105.58 100.12 107.25 97.9598 108.81 96.4398C109.23 96.0598 109.27 95.3798 109.11 95.1098C107.48 92.4498 106.76 89.8698 106.95 87.3298C106.99 87.0298 106.61 86.5698 106.08 86.5698H100.08C99.5501 86.5698 99.2101 87.0298 99.2101 87.3298C99.3201 89.6098 98.6001 92.2298 97.0501 95.0798C96.9401 95.3798 96.9701 96.0298 97.3901 96.4098V96.3998Z" fill="white" stroke="#91A1B0" stroke-width="1.2" stroke-linecap="round" stroke-linejoin="round"/>
<g id="Vector_20">
<path d="M103.09 106.56H110.15H103.09Z" fill="white"/>
<path d="M103.09 106.56H110.15" stroke="#91A1B0" stroke-width="1.2" stroke-linecap="round" stroke-linejoin="round"/>
</g>
<path id="Vector_21" d="M103.1 97.0596V103.35" stroke="#91A1B0" stroke-width="1.2" stroke-linecap="round" stroke-linejoin="round"/>
<path id="Vector_22" d="M103.1 97.0501C104.116 97.0501 104.94 96.2263 104.94 95.2101C104.94 94.1939 104.116 93.3701 103.1 93.3701C102.084 93.3701 101.26 94.1939 101.26 95.2101C101.26 96.2263 102.084 97.0501 103.1 97.0501Z" fill="white" stroke="#91A1B0" stroke-width="1.2" stroke-linecap="round" stroke-linejoin="round"/>
</g>
<defs>
<clipPath id="clip0_1179_6990">
<rect width="127.78" height="125.49" fill="white"/>
</clipPath>
</defs>
</svg>
