<svg xmlns="http://www.w3.org/2000/svg" width="181" height="170" fill="none" viewBox="0 0 181 170"><mask id="fs-2xnbp0ivma" width="171" height="170" x="4" y="0" maskUnits="userSpaceOnUse"><path fill="url(#paint0_linear)" d="M89.687 169.6c46.833 0 84.8-37.966 84.8-84.8 0-46.834-37.967-84.8-84.8-84.8-46.834 0-84.8 37.966-84.8 84.8 0 46.834 37.966 84.8 84.8 84.8z"/></mask><g mask="url(#fs-2xnbp0ivma)"><path fill="url(#paint1_linear)" d="M88.614 168.609c46.827 0 84.789-37.744 84.789-84.304S135.441 0 88.613 0C41.787 0 3.825 37.744 3.825 84.305c0 46.56 37.962 84.304 84.79 84.304z"/><path fill="#fff" d="M116.397 45.318a4.423 4.423 0 00-4.423 4.424v209.735h214.158V45.318H116.397zm209.106 13.313h-12.789V45.843h12.789V58.63zm-106.188 80.087v-12.789h12.789v12.789h-12.789zm12.789.629v12.788h-12.789v-12.788h12.789zm-13.313-.629h-12.789v-12.789h12.789v12.789zm0 .629v12.788h-12.789v-12.788h12.789zm-13.418 12.788h-12.789v-12.788h12.789v12.788zm0 .525v12.788h-12.789V152.66h12.789zm.629 0h12.789v12.788h-12.789V152.66zm12.789 13.312v12.789h-12.789v-12.789h12.789zm.524 0h12.789v12.789h-12.789v-12.789zm0-.524V152.66h12.789v12.788h-12.789zm13.313-12.788h12.788v12.788h-12.788V152.66zm0-.525v-12.788h12.788v12.788h-12.788zm0-13.417v-12.789h12.788v12.789h-12.788zm0-13.313v-12.789h12.788v12.789h-12.788zm-.524 0h-12.789v-12.789h12.789v12.789zm-13.313 0h-12.789v-12.789h12.789v12.789zm-13.418 0h-12.789v-12.789h12.789v12.789zm0 .524v12.789h-12.789v-12.789h12.789zm-13.313 12.789h-12.788v-12.789h12.788v12.789zm0 .629v12.788h-12.788v-12.788h12.788zm0 13.313v12.788h-12.788V152.66h12.788zm0 13.312v12.789h-12.788v-12.789h12.788zm.524 0h12.789v12.789h-12.789v-12.789zm12.789 13.418v12.789h-12.789V179.39h12.789zm.629 0h12.789v12.789h-12.789V179.39zm13.313 0h12.789v12.789h-12.789V179.39zm13.313 0h12.788v12.789h-12.788V179.39zm0-.629v-12.789h12.788v12.789h-12.788zm13.417-12.789h12.789v12.789h-12.789v-12.789zm0-.524V152.66h12.789v12.788h-12.789zm0-13.313v-12.788h12.789v12.788h-12.789zm0-13.417v-12.789h12.789v12.789h-12.789zm0-13.313v-12.789h12.789v12.789h-12.789zm0-13.313V99.304h12.789v12.788h-12.789zm-.629 0h-12.788V99.304h12.788v12.788zm-13.312 0h-12.789V99.304h12.789v12.788zm-13.313 0h-12.789V99.304h12.789v12.788zm-13.418 0h-12.789V99.304h12.789v12.788zm-13.313 0h-12.788V99.304h12.788v12.788zm0 .524v12.789h-12.788v-12.789h12.788zm-13.313 12.789h-12.788v-12.789h12.788v12.789zm0 .524v12.789h-12.788v-12.789h12.788zm0 13.418v12.788h-12.788v-12.788h12.788zm0 13.313v12.788h-12.788V152.66h12.788zm0 13.312v12.789h-12.788v-12.789h12.788zm0 13.418v12.789h-12.788V179.39h12.788zm.525 0h12.788v12.789h-12.788V179.39zm12.788 13.313v12.789h-12.788v-12.789h12.788zm.524 0h12.789v12.789h-12.789v-12.789zm13.418 0h12.789v12.789h-12.789v-12.789zm13.313 0h12.789v12.789h-12.789v-12.789zm13.313 0h12.788v12.789h-12.788v-12.789zm13.417 0h12.789v12.789h-12.789v-12.789zm0-.524V179.39h12.789v12.789h-12.789zm13.313-12.789h12.789v12.789h-12.789V179.39zm0-.629v-12.789h12.789v12.789h-12.789zm0-13.313V152.66h12.789v12.788h-12.789zm0-13.313v-12.788h12.789v12.788h-12.789zm0-13.417v-12.789h12.789v12.789h-12.789zm0-13.313v-12.789h12.789v12.789h-12.789zm0-13.313V99.304h12.789v12.788h-12.789zm0-13.418V85.886h12.789v12.788h-12.789zm-.524 0h-12.789V85.886h12.789v12.788zm-13.418 0h-12.788V85.886h12.788v12.788zm-13.312 0h-12.789V85.886h12.789v12.788zm-13.313 0h-12.789V85.886h12.789v12.788zm-13.418 0h-12.789V85.886h12.789v12.788zm-13.313 0h-12.788V85.886h12.788v12.788zm-13.313 0h-12.788V85.886h12.788v12.788zm0 .63v12.788h-12.788V99.304h12.788zm-13.417 12.788h-12.789V99.304h12.789v12.788zm0 .524v12.789h-12.789v-12.789h12.789zm0 13.313v12.789h-12.789v-12.789h12.789zm0 13.418v12.788h-12.789v-12.788h12.789zm0 13.313v12.788h-12.789V152.66h12.789zm0 13.312v12.789h-12.789v-12.789h12.789zm0 13.418v12.789h-12.789V179.39h12.789zm0 13.313v12.789h-12.789v-12.789h12.789zm.629 0h12.788v12.789h-12.788v-12.789zm12.788 13.313v12.788h-12.788v-12.788h12.788zm.525 0h12.788v12.788h-12.788v-12.788zm13.312 0h12.789v12.788h-12.789v-12.788zm13.418 0h12.789v12.788h-12.789v-12.788zm13.313 0h12.789v12.788h-12.789v-12.788zm13.313 0h12.788v12.788h-12.788v-12.788zm13.417 0h12.789v12.788h-12.789v-12.788zm13.313 0h12.789v12.788h-12.789v-12.788zm0-.524v-12.789h12.789v12.789h-12.789zm13.313-12.789h12.789v12.789h-12.789v-12.789zm0-.524V179.39h12.789v12.789h-12.789zm0-13.418v-12.789h12.789v12.789h-12.789zm0-13.313V152.66h12.789v12.788h-12.789zm0-13.313v-12.788h12.789v12.788h-12.789zm0-13.417v-12.789h12.789v12.789h-12.789zm0-13.313v-12.789h12.789v12.789h-12.789zm0-13.313V99.304h12.789v12.788h-12.789zm0-13.418V85.886h12.789v12.788h-12.789zm0-13.312V72.573h12.789v12.789h-12.789zm-.524 0h-12.789V72.573h12.789v12.789zm-13.313 0h-12.789V72.573h12.789v12.789zm-13.418 0h-12.788V72.573h12.788v12.789zm-13.312 0h-12.789V72.573h12.789v12.789zm-13.313 0h-12.789V72.573h12.789v12.789zm-13.418 0h-12.789V72.573h12.789v12.789zm-13.313 0h-12.788V72.573h12.788v12.789zm-13.313 0h-12.788V72.573h12.788v12.789zm-13.417 0h-12.789V72.573h12.789v12.789zm0 .524v12.788h-12.789V85.886h12.789zm-13.313 12.788h-12.789V85.886h12.789v12.788zm0 .63v12.788h-12.789V99.304h12.789zm0 13.312v12.789h-12.789v-12.789h12.789zm0 13.313v12.789h-12.789v-12.789h12.789zm0 13.418v12.788h-12.789v-12.788h12.789zm0 13.313v12.788h-12.789V152.66h12.789zm0 13.312v12.789h-12.789v-12.789h12.789zm0 13.418v12.789h-12.789V179.39h12.789zm0 13.313v12.789h-12.789v-12.789h12.789zm0 13.313v12.788h-12.789v-12.788h12.789zm.524 0h12.789v12.788h-12.789v-12.788zm12.789 13.417v12.789h-12.789v-12.789h12.789zm.629 0h12.788v12.789h-12.788v-12.789zm13.313 0h12.788v12.789h-12.788v-12.789zm13.312 0h12.789v12.789h-12.789v-12.789zm13.418 0h12.789v12.789h-12.789v-12.789zm13.313 0h12.789v12.789h-12.789v-12.789zm13.313 0h12.788v12.789h-12.788v-12.789zm13.417 0h12.789v12.789h-12.789v-12.789zm13.313 0h12.789v12.789h-12.789v-12.789zm13.313 0h12.789v12.789h-12.789v-12.789zm0-.629v-12.788h12.789v12.788h-12.789zm13.418-12.788h12.788v12.788h-12.788v-12.788zm0-.524v-12.789h12.788v12.789h-12.788zm0-13.313V179.39h12.788v12.789h-12.788zm0-13.418v-12.789h12.788v12.789h-12.788zm0-13.313V152.66h12.788v12.788h-12.788zm0-13.313v-12.788h12.788v12.788h-12.788zm0-13.417v-12.789h12.788v12.789h-12.788zm0-13.313v-12.789h12.788v12.789h-12.788zm0-13.313V99.304h12.788v12.788h-12.788zm0-13.418V85.886h12.788v12.788h-12.788zm0-13.312V72.573h12.788v12.789h-12.788zm0-13.313V59.26h12.788v12.79h-12.788zm-.629 0h-12.789V59.26h12.789v12.79zm-13.313 0h-12.789V59.26h12.789v12.79zm-13.313 0h-12.789V59.26h12.789v12.79zm-13.418 0h-12.788V59.26h12.788v12.79zm-13.312 0h-12.789V59.26h12.789v12.79zm-13.313 0h-12.789V59.26h12.789v12.79zm-13.418 0h-12.789V59.26h12.789v12.79zm-13.313 0h-12.788V59.26h12.788v12.79zm-13.313 0h-12.788V59.26h12.788v12.79zm-13.417 0h-12.789V59.26h12.789v12.79zm-13.313 0h-12.789V59.26h12.789v12.79zm0 .524v12.789h-12.789V72.573h12.789zm-13.313 12.789h-12.789V72.573h12.789v12.789zm0 .524v12.788h-12.789V85.886h12.789zm0 13.418v12.788h-12.789V99.304h12.789zm0 13.312v12.789h-12.789v-12.789h12.789zm0 13.313v12.789h-12.789v-12.789h12.789zm0 13.418v12.788h-12.789v-12.788h12.789zm0 13.313v12.788h-12.789V152.66h12.789zm0 13.312v12.789h-12.789v-12.789h12.789zm0 13.418v12.789h-12.789V179.39h12.789zm0 13.313v12.789h-12.789v-12.789h12.789zm0 13.313v12.788h-12.789v-12.788h12.789zm0 13.417v12.789h-12.789v-12.789h12.789zm.524 0h12.789v12.789h-12.789v-12.789zm12.789 13.313v12.789h-12.789v-12.789h12.789zm.524 0h12.789v12.789h-12.789v-12.789zm13.418 0h12.788v12.789h-12.788v-12.789zm13.313 0h12.788v12.789h-12.788v-12.789zm13.312 0h12.789v12.789h-12.789v-12.789zm13.418 0h12.789v12.789h-12.789v-12.789zm13.313 0h12.789v12.789h-12.789v-12.789zm13.313 0h12.788v12.789h-12.788v-12.789zm13.417 0h12.789v12.789h-12.789v-12.789zm13.313 0h12.789v12.789h-12.789v-12.789zm13.313 0h12.789v12.789h-12.789v-12.789zm13.418 0h12.788v12.789h-12.788v-12.789zm0-.524v-12.789h12.788v12.789h-12.788zm13.313-12.789h12.788v12.789h-12.788v-12.789zm0-.629v-12.788h12.788v12.788h-12.788zm0-13.312v-12.789h12.788v12.789h-12.788zm0-13.313V179.39h12.788v12.789h-12.788zm0-13.418v-12.789h12.788v12.789h-12.788zm0-13.313V152.66h12.788v12.788h-12.788zm0-13.313v-12.788h12.788v12.788h-12.788zm0-13.417v-12.789h12.788v12.789h-12.788zm0-13.313v-12.789h12.788v12.789h-12.788zm0-13.313V99.304h12.788v12.788h-12.788zm0-13.418V85.886h12.788v12.788h-12.788zm0-13.312V72.573h12.788v12.789h-12.788zm0-13.313V59.26h12.788v12.79h-12.788zm0-13.418V45.843h12.788V58.63h-12.788zm-.525 0h-12.788V45.843h12.788V58.63zm-13.417 0h-12.789V45.843h12.789V58.63zm-13.313 0h-12.789V45.843h12.789V58.63zm-13.313 0h-12.789V45.843h12.789V58.63zm-13.418 0h-12.788V45.843h12.788V58.63zm-13.312 0h-12.789V45.843h12.789V58.63zm-13.313 0h-12.789V45.843h12.789V58.63zm-13.418 0h-12.789V45.843h12.789V58.63zm-13.313 0h-12.788V45.843h12.788V58.63zm-13.313 0h-12.788V45.843h12.788V58.63zm-13.417 0h-12.789V45.843h12.789V58.63zm-13.313 0h-12.789V45.843h12.789V58.63zm-13.313 0h-12.789V45.843h12.789V58.63zm0 .63v12.788h-12.789V59.26h12.789zm-13.418 12.788h-12.788V59.26h12.788v12.79zm0 .524v12.789h-12.788V72.573h12.788zm0 13.313v12.788h-12.788V85.886h12.788zm0 13.418v12.788h-12.788V99.304h12.788zm0 13.312v12.789h-12.788v-12.789h12.788zm0 13.313v12.789h-12.788v-12.789h12.788zm0 13.418v12.788h-12.788v-12.788h12.788zm0 13.313v12.788h-12.788V152.66h12.788zm0 13.312v12.789h-12.788v-12.789h12.788zm0 13.418v12.789h-12.788V179.39h12.788zm0 13.313v12.789h-12.788v-12.789h12.788zm0 13.313v12.788h-12.788v-12.788h12.788zm0 13.417v12.789h-12.788v-12.789h12.788zm0 13.313v12.789h-12.788v-12.789h12.788zm.629 0h12.789v12.789h-12.789v-12.789zm12.789 13.313v12.789h-12.789v-12.789h12.789zm.524 0h12.789v12.789h-12.789v-12.789zm13.313 0h12.789v12.789h-12.789v-12.789zm13.418 0h12.788v12.789h-12.788v-12.789zm13.313 0h12.788v12.789h-12.788v-12.789zm13.312 0h12.789v12.789h-12.789v-12.789zm13.418 0h12.789v12.789h-12.789v-12.789zm13.313 0h12.789v12.789h-12.789v-12.789zm13.313 0h12.788v12.789h-12.788v-12.789zm13.417 0h12.789v12.789h-12.789v-12.789zm13.313 0h12.789v12.789h-12.789v-12.789zm13.313 0h12.789v12.789h-12.789v-12.789zm13.418 0h12.788v12.789h-12.788v-12.789zm13.313 0h12.788v12.789h-12.788v-12.789zm0-.524v-12.789h12.788v12.789h-12.788zm13.312-12.789h12.789v12.789h-12.789v-12.789zm0-.524v-12.789h12.789v12.789h-12.789zm0-13.418v-12.788h12.789v12.788h-12.789zm0-13.312v-12.789h12.789v12.789h-12.789zm0-13.313V179.39h12.789v12.789h-12.789zm0-13.418v-12.789h12.789v12.789h-12.789zm0-13.313V152.66h12.789v12.788h-12.789zm0-13.313v-12.788h12.789v12.788h-12.789zm0-13.417v-12.789h12.789v12.789h-12.789zm0-13.313v-12.789h12.789v12.789h-12.789zm0-13.313V99.304h12.789v12.788h-12.789zm0-13.418V85.886h12.789v12.788h-12.789zm0-13.312V72.573h12.789v12.789h-12.789zm0-13.313V59.26h12.789v12.79h-12.789zM125.286 45.842v12.79h-12.788v-8.366a4.423 4.423 0 014.423-4.423h8.365zM112.498 246.06h12.788v12.789h-12.788V246.06zm200.216 12.789V246.06h12.789v12.789h-12.789z"/></g><path fill="url(#paint2_radial)" d="M16.613 134.12c5.98 0 10.826-4.847 10.826-10.827 0-5.979-4.847-10.826-10.826-10.826-5.98 0-10.827 4.847-10.827 10.826 0 5.98 4.847 10.827 10.827 10.827z"/><path fill="url(#paint3_radial)" d="M10.351 122.765c-1.961-1.207-2.452-3.961-1.094-6.111 1.32-2.151 4-2.943 5.96-1.736 1.962 1.207 2.453 3.961 1.095 6.111-1.358 2.188-4.037 2.943-5.96 1.736z" opacity=".5"/><path fill="url(#paint4_radial)" d="M159.436 50.277a8.264 8.264 0 10-.001-16.527 8.264 8.264 0 00.001 16.527z"/><path fill="url(#paint5_radial)" d="M154.656 41.611c-1.498-.921-1.872-3.023-.835-4.664 1.007-1.642 3.052-2.246 4.549-1.325 1.497.922 1.872 3.023.835 4.665-1.037 1.67-3.081 2.246-4.549 1.324z" opacity=".5"/><g filter="url(#filter0_f)"><ellipse cx="83.256" cy="146.418" fill="#000" fill-opacity=".37" rx="81.256" ry=".431"/></g><g filter="url(#filter1_iii)"><path fill="#4392F4" d="M119.895 124.091l-6.633 6.297a.472.472 0 01-.327.13h-67.77a2.622 2.622 0 01-2.624-2.627V28.383a2.622 2.622 0 012.624-2.627h77.879a2.622 2.622 0 012.624 2.627v89.441a.473.473 0 01-.131.327l-5.642 5.94z"/></g><g filter="url(#filter2_di)"><path fill="#054599" d="M125.665 118.036l-12.845-1.463c-1.576 0-2.212 1.365-2.025 2.984l2.369 10.9 6.524-6.199 5.977-6.222z"/></g><g filter="url(#filter3_dii)"><rect width="60.819" height="2.804" x="53.363" y="43.38" fill="#F3F3F3" rx="1.402"/></g><g filter="url(#filter4_dii)"><rect width="43.753" height="2.804" x="53.363" y="60.124" fill="#F3F3F3" rx="1.402"/></g><g filter="url(#filter5_dii)"><rect width="24.788" height="2.804" x="53.363" y="76.985" fill="#F3F3F3" rx="1.402"/></g><g filter="url(#filter6_di)"><path fill="#FFC736" fill-rule="evenodd" d="M86.657 107.541c9.324 10.04 24.609 11.217 35.248 3.118l14.515 15.629a2.59 2.59 0 003.661.143 2.592 2.592 0 00.129-3.663l-14.515-15.629c8.864-10.011 8.819-25.342-.505-35.382-9.921-10.683-26.589-11.332-37.23-1.45-10.64 9.881-11.223 26.552-1.303 37.234zm3.79-3.519c-7.968-8.58-7.5-21.972 1.048-29.91 8.547-7.937 21.936-7.415 29.905 1.165 7.969 8.581 7.5 21.972-1.047 29.91-8.548 7.937-21.937 7.416-29.905-1.165z" clip-rule="evenodd"/></g><g filter="url(#filter7_ii)"><path fill="#F3F3F3" d="M105.938 95.077a1.2 1.2 0 01-.933-.397 1.386 1.386 0 01-.383-.961l-.182-15.264c-.005-.396.115-.72.36-.97.244-.275.552-.415.923-.42l.706-.008c.396-.004.72.128.97.397.251.245.379.565.383.962l.182 15.263c.004.371-.128.695-.397.97a1.202 1.202 0 01-.924.42l-.705.008zm.508 8.351c-.768.01-1.414-.23-1.94-.719-.501-.49-.756-1.118-.765-1.885-.01-.768.231-1.39.72-1.866.514-.501 1.155-.757 1.922-.766.793-.01 1.439.23 1.94.72.501.464.756 1.08.765 1.848.009.767-.231 1.402-.72 1.903-.489.501-1.13.756-1.922.765z"/></g><g filter="url(#filter8_i)"><path fill="url(#paint6_linear)" d="M157.488 121.256c-.049-.013-.098-.021-.137-.053-.951-.784 1.781-12.798 2.039-13.693 1.31-4.523 3.48-8.925 6.969-12.154 2.47-2.286 9.067-6.758 12.491-4.13 2.885 2.22.182 7.79-1.148 10.119-2.385 4.142-5.898 7.497-8.899 11.171-1.79 2.197-3.589 4.436-5.379 6.633-.122.159-1.126 1.584-1.811 2.41-.367.443-.898.515-1.457.373-.928-.234-2.336-.592-2.668-.676z"/></g><g filter="url(#filter9_i)"><path fill="url(#paint7_linear)" d="M161.421 124.883c1.464.315 2.769-.93 2.463-2.396-1.681-8.067-7.254-29.1-19.057-25.268-10.727 3.522 12.326 24.265 15.666 27.203.268.236.579.386.928.461z"/></g><path fill="#77FFE4" fill-opacity=".2" d="M148.041 101.414s13.803 18.016 13.961 21.828l-13.961-21.828zm26.727-6.634s-11.342 14.469-12.575 20.891l12.575-20.89z"/><path fill="url(#paint8_linear)" d="M147.336 120.809a2.35 2.35 0 012.339-2.576h20.168a2.35 2.35 0 012.339 2.576l-2.222 23.054a2.351 2.351 0 01-2.34 2.125h-15.722a2.35 2.35 0 01-2.339-2.125l-2.223-23.054z"/><g filter="url(#filter10_i)"><rect width="27.173" height="6.69" x="146.174" y="118.233" fill="url(#paint9_linear)" rx="1.175"/></g><defs><filter id="filter0_f" width="165.38" height="3.73" x=".565" y="144.553" color-interpolation-filters="sRGB" filterUnits="userSpaceOnUse"><feFlood flood-opacity="0" result="BackgroundImageFix"/><feBlend in="SourceGraphic" in2="BackgroundImageFix" result="shape"/><feGaussianBlur result="effect1_foregroundBlur" stdDeviation=".717"/></filter><filter id="filter1_iii" width="83.899" height="106.076" x="41.768" y="25.292" color-interpolation-filters="sRGB" filterUnits="userSpaceOnUse"><feFlood flood-opacity="0" result="BackgroundImageFix"/><feBlend in="SourceGraphic" in2="BackgroundImageFix" result="shape"/><feColorMatrix in="SourceAlpha" result="hardAlpha" values="0 0 0 0 0 0 0 0 0 0 0 0 0 0 0 0 0 0 127 0"/><feOffset dy="-.464"/><feGaussianBlur stdDeviation=".464"/><feComposite in2="hardAlpha" k2="-1" k3="1" operator="arithmetic"/><feColorMatrix values="0 0 0 0 0.089132 0 0 0 0 0.328429 0 0 0 0 0.629167 0 0 0 1 0"/><feBlend in2="shape" result="effect1_innerShadow"/><feColorMatrix in="SourceAlpha" result="hardAlpha" values="0 0 0 0 0 0 0 0 0 0 0 0 0 0 0 0 0 0 127 0"/><feOffset dy=".85"/><feGaussianBlur stdDeviation=".425"/><feComposite in2="hardAlpha" k2="-1" k3="1" operator="arithmetic"/><feColorMatrix values="0 0 0 0 0.641667 0 0 0 0 0.8495 0 0 0 0 1 0 0 0 1 0"/><feBlend in2="effect1_innerShadow" result="effect2_innerShadow"/><feColorMatrix in="SourceAlpha" result="hardAlpha" values="0 0 0 0 0 0 0 0 0 0 0 0 0 0 0 0 0 0 127 0"/><feOffset dx="-.773"/><feGaussianBlur stdDeviation=".386"/><feComposite in2="hardAlpha" k2="-1" k3="1" operator="arithmetic"/><feColorMatrix values="0 0 0 0 0 0 0 0 0 0 0 0 0 0 0 0 0 0 0.25 0"/><feBlend in2="effect2_innerShadow" result="effect3_innerShadow"/></filter><filter id="filter2_di" width="15.425" height="14.627" x="110.461" y="116.182" color-interpolation-filters="sRGB" filterUnits="userSpaceOnUse"><feFlood flood-opacity="0" result="BackgroundImageFix"/><feColorMatrix in="SourceAlpha" values="0 0 0 0 0 0 0 0 0 0 0 0 0 0 0 0 0 0 127 0"/><feOffset dy=".132"/><feGaussianBlur stdDeviation=".11"/><feColorMatrix values="0 0 0 0 0 0 0 0 0 0 0 0 0 0 0 0 0 0 0.25 0"/><feBlend in2="BackgroundImageFix" result="effect1_dropShadow"/><feBlend in="SourceGraphic" in2="effect1_dropShadow" result="shape"/><feColorMatrix in="SourceAlpha" result="hardAlpha" values="0 0 0 0 0 0 0 0 0 0 0 0 0 0 0 0 0 0 127 0"/><feOffset dx="-.303" dy="-.391"/><feGaussianBlur stdDeviation=".195"/><feComposite in2="hardAlpha" k2="-1" k3="1" operator="arithmetic"/><feColorMatrix values="0 0 0 0 0.0505208 0 0 0 0 0.161469 0 0 0 0 0.404167 0 0 0 1 0"/><feBlend in2="shape" result="effect2_innerShadow"/></filter><filter id="filter3_dii" width="61.135" height="3.401" x="53.205" y="43.336" color-interpolation-filters="sRGB" filterUnits="userSpaceOnUse"><feFlood flood-opacity="0" result="BackgroundImageFix"/><feColorMatrix in="SourceAlpha" values="0 0 0 0 0 0 0 0 0 0 0 0 0 0 0 0 0 0 127 0"/><feOffset dy=".395"/><feGaussianBlur stdDeviation=".079"/><feColorMatrix values="0 0 0 0 0 0 0 0 0 0 0 0 0 0 0 0 0 0 0.25 0"/><feBlend in2="BackgroundImageFix" result="effect1_dropShadow"/><feBlend in="SourceGraphic" in2="effect1_dropShadow" result="shape"/><feColorMatrix in="SourceAlpha" result="hardAlpha" values="0 0 0 0 0 0 0 0 0 0 0 0 0 0 0 0 0 0 127 0"/><feOffset dy=".474"/><feComposite in2="hardAlpha" k2="-1" k3="1" operator="arithmetic"/><feColorMatrix values="0 0 0 0 1 0 0 0 0 1 0 0 0 0 1 0 0 0 1 0"/><feBlend in2="shape" result="effect2_innerShadow"/><feColorMatrix in="SourceAlpha" result="hardAlpha" values="0 0 0 0 0 0 0 0 0 0 0 0 0 0 0 0 0 0 127 0"/><feOffset dx="-.022" dy="-.395"/><feGaussianBlur stdDeviation=".022"/><feComposite in2="hardAlpha" k2="-1" k3="1" operator="arithmetic"/><feColorMatrix values="0 0 0 0 0.833333 0 0 0 0 0.833333 0 0 0 0 0.833333 0 0 0 1 0"/><feBlend in2="effect2_innerShadow" result="effect3_innerShadow"/></filter><filter id="filter4_dii" width="44.069" height="3.401" x="53.205" y="60.08" color-interpolation-filters="sRGB" filterUnits="userSpaceOnUse"><feFlood flood-opacity="0" result="BackgroundImageFix"/><feColorMatrix in="SourceAlpha" values="0 0 0 0 0 0 0 0 0 0 0 0 0 0 0 0 0 0 127 0"/><feOffset dy=".395"/><feGaussianBlur stdDeviation=".079"/><feColorMatrix values="0 0 0 0 0 0 0 0 0 0 0 0 0 0 0 0 0 0 0.25 0"/><feBlend in2="BackgroundImageFix" result="effect1_dropShadow"/><feBlend in="SourceGraphic" in2="effect1_dropShadow" result="shape"/><feColorMatrix in="SourceAlpha" result="hardAlpha" values="0 0 0 0 0 0 0 0 0 0 0 0 0 0 0 0 0 0 127 0"/><feOffset dy=".474"/><feComposite in2="hardAlpha" k2="-1" k3="1" operator="arithmetic"/><feColorMatrix values="0 0 0 0 1 0 0 0 0 1 0 0 0 0 1 0 0 0 1 0"/><feBlend in2="shape" result="effect2_innerShadow"/><feColorMatrix in="SourceAlpha" result="hardAlpha" values="0 0 0 0 0 0 0 0 0 0 0 0 0 0 0 0 0 0 127 0"/><feOffset dx="-.022" dy="-.395"/><feGaussianBlur stdDeviation=".022"/><feComposite in2="hardAlpha" k2="-1" k3="1" operator="arithmetic"/><feColorMatrix values="0 0 0 0 0.833333 0 0 0 0 0.833333 0 0 0 0 0.833333 0 0 0 1 0"/><feBlend in2="effect2_innerShadow" result="effect3_innerShadow"/></filter><filter id="filter5_dii" width="25.104" height="3.401" x="53.205" y="76.942" color-interpolation-filters="sRGB" filterUnits="userSpaceOnUse"><feFlood flood-opacity="0" result="BackgroundImageFix"/><feColorMatrix in="SourceAlpha" values="0 0 0 0 0 0 0 0 0 0 0 0 0 0 0 0 0 0 127 0"/><feOffset dy=".395"/><feGaussianBlur stdDeviation=".079"/><feColorMatrix values="0 0 0 0 0 0 0 0 0 0 0 0 0 0 0 0 0 0 0.25 0"/><feBlend in2="BackgroundImageFix" result="effect1_dropShadow"/><feBlend in="SourceGraphic" in2="effect1_dropShadow" result="shape"/><feColorMatrix in="SourceAlpha" result="hardAlpha" values="0 0 0 0 0 0 0 0 0 0 0 0 0 0 0 0 0 0 127 0"/><feOffset dy=".474"/><feComposite in2="hardAlpha" k2="-1" k3="1" operator="arithmetic"/><feColorMatrix values="0 0 0 0 1 0 0 0 0 1 0 0 0 0 1 0 0 0 1 0"/><feBlend in2="shape" result="effect2_innerShadow"/><feColorMatrix in="SourceAlpha" result="hardAlpha" values="0 0 0 0 0 0 0 0 0 0 0 0 0 0 0 0 0 0 127 0"/><feOffset dx="-.022" dy="-.395"/><feGaussianBlur stdDeviation=".022"/><feComposite in2="hardAlpha" k2="-1" k3="1" operator="arithmetic"/><feColorMatrix values="0 0 0 0 0.833333 0 0 0 0 0.833333 0 0 0 0 0.833333 0 0 0 1 0"/><feBlend in2="effect2_innerShadow" result="effect3_innerShadow"/></filter><filter id="filter6_di" width="69.645" height="73.528" x="75.421" y="63.301" color-interpolation-filters="sRGB" filterUnits="userSpaceOnUse"><feFlood flood-opacity="0" result="BackgroundImageFix"/><feColorMatrix in="SourceAlpha" values="0 0 0 0 0 0 0 0 0 0 0 0 0 0 0 0 0 0 127 0"/><feOffset dy="5.548"/><feGaussianBlur stdDeviation="2.08"/><feColorMatrix values="0 0 0 0 0 0 0 0 0 0 0 0 0 0 0 0 0 0 0.11 0"/><feBlend in2="BackgroundImageFix" result="effect1_dropShadow"/><feBlend in="SourceGraphic" in2="effect1_dropShadow" result="shape"/><feColorMatrix in="SourceAlpha" result="hardAlpha" values="0 0 0 0 0 0 0 0 0 0 0 0 0 0 0 0 0 0 127 0"/><feOffset dy="1.387"/><feGaussianBlur stdDeviation="1.04"/><feComposite in2="hardAlpha" k2="-1" k3="1" operator="arithmetic"/><feColorMatrix values="0 0 0 0 0.841667 0 0 0 0 0.561793 0 0 0 0 0.248993 0 0 0 1 0"/><feBlend in2="shape" result="effect2_innerShadow"/></filter><filter id="filter7_ii" width="5.367" height="26.464" x="103.722" y="77.021" color-interpolation-filters="sRGB" filterUnits="userSpaceOnUse"><feFlood flood-opacity="0" result="BackgroundImageFix"/><feBlend in="SourceGraphic" in2="BackgroundImageFix" result="shape"/><feColorMatrix in="SourceAlpha" result="hardAlpha" values="0 0 0 0 0 0 0 0 0 0 0 0 0 0 0 0 0 0 127 0"/><feOffset dy=".309"/><feGaussianBlur stdDeviation=".028"/><feComposite in2="hardAlpha" k2="-1" k3="1" operator="arithmetic"/><feColorMatrix values="0 0 0 0 1 0 0 0 0 1 0 0 0 0 1 0 0 0 1 0"/><feBlend in2="shape" result="effect1_innerShadow"/><feColorMatrix in="SourceAlpha" result="hardAlpha" values="0 0 0 0 0 0 0 0 0 0 0 0 0 0 0 0 0 0 127 0"/><feOffset dx="-.018" dy="-.29"/><feGaussianBlur stdDeviation=".018"/><feComposite in2="hardAlpha" k2="-1" k3="1" operator="arithmetic"/><feColorMatrix values="0 0 0 0 0.833333 0 0 0 0 0.833333 0 0 0 0 0.833333 0 0 0 1 0"/><feBlend in2="effect1_innerShadow" result="effect2_innerShadow"/></filter><filter id="filter8_i" width="24.107" height="32.005" x="157.151" y="89.993" color-interpolation-filters="sRGB" filterUnits="userSpaceOnUse"><feFlood flood-opacity="0" result="BackgroundImageFix"/><feBlend in="SourceGraphic" in2="BackgroundImageFix" result="shape"/><feColorMatrix in="SourceAlpha" result="hardAlpha" values="0 0 0 0 0 0 0 0 0 0 0 0 0 0 0 0 0 0 127 0"/><feOffset dx="1.127" dy="-.431"/><feGaussianBlur stdDeviation="1.469"/><feComposite in2="hardAlpha" k2="-1" k3="1" operator="arithmetic"/><feColorMatrix values="0 0 0 0 0.113056 0 0 0 0 0.616667 0 0 0 0 0.58645 0 0 0 1 0"/><feBlend in2="shape" result="effect1_innerShadow"/></filter><filter id="filter9_i" width="23.052" height="28.606" x="142.003" y="96.326" color-interpolation-filters="sRGB" filterUnits="userSpaceOnUse"><feFlood flood-opacity="0" result="BackgroundImageFix"/><feBlend in="SourceGraphic" in2="BackgroundImageFix" result="shape"/><feColorMatrix in="SourceAlpha" result="hardAlpha" values="0 0 0 0 0 0 0 0 0 0 0 0 0 0 0 0 0 0 127 0"/><feOffset dx="1.127" dy="-.431"/><feGaussianBlur stdDeviation="1.469"/><feComposite in2="hardAlpha" k2="-1" k3="1" operator="arithmetic"/><feColorMatrix values="0 0 0 0 0.0996528 0 0 0 0 0.683333 0 0 0 0 0.555806 0 0 0 1 0"/><feBlend in2="shape" result="effect1_innerShadow"/></filter><filter id="filter10_i" width="27.643" height="7.042" x="146.174" y="117.881" color-interpolation-filters="sRGB" filterUnits="userSpaceOnUse"><feFlood flood-opacity="0" result="BackgroundImageFix"/><feBlend in="SourceGraphic" in2="BackgroundImageFix" result="shape"/><feColorMatrix in="SourceAlpha" result="hardAlpha" values="0 0 0 0 0 0 0 0 0 0 0 0 0 0 0 0 0 0 127 0"/><feOffset dx=".47" dy="-.353"/><feGaussianBlur stdDeviation=".411"/><feComposite in2="hardAlpha" k2="-1" k3="1" operator="arithmetic"/><feColorMatrix values="0 0 0 0 0.833333 0 0 0 0 0.604343 0 0 0 0 0.0555555 0 0 0 1 0"/><feBlend in2="shape" result="effect1_innerShadow"/></filter><linearGradient id="paint0_linear" x1="89.687" x2="89.687" y1="0" y2="169.6" gradientUnits="userSpaceOnUse"><stop stop-color="#B5EFFF"/><stop offset="1" stop-color="#E7F8FE"/></linearGradient><linearGradient id="paint1_linear" x1="88.614" x2="88.614" y1="0" y2="168.609" gradientUnits="userSpaceOnUse"><stop stop-color="#B5EFFF"/><stop offset="1" stop-color="#EDFBFF"/></linearGradient><linearGradient id="paint6_linear" x1="183.461" x2="157.869" y1="90.918" y2="113.901" gradientUnits="userSpaceOnUse"><stop stop-color="#BAFFF1" stop-opacity=".26"/><stop offset=".682" stop-color="#4DC7AE"/><stop offset=".969" stop-color="#06896F"/></linearGradient><linearGradient id="paint7_linear" x1="172.075" x2="156.511" y1="99.837" y2="126.049" gradientUnits="userSpaceOnUse"><stop stop-color="#B7FDEF"/><stop offset=".682" stop-color="#09B794"/><stop offset=".969" stop-color="#7EE0CC"/></linearGradient><linearGradient id="paint8_linear" x1="172.431" x2="148.896" y1="136.504" y2="136.504" gradientUnits="userSpaceOnUse"><stop offset=".099" stop-color="#FFEEC5"/><stop offset=".607" stop-color="#FACD63"/><stop offset=".839" stop-color="#EAAF23"/><stop offset=".984" stop-color="#EDB52F"/></linearGradient><linearGradient id="paint9_linear" x1="173.347" x2="148.113" y1="122.637" y2="122.637" gradientUnits="userSpaceOnUse"><stop offset=".099" stop-color="#FFEEC5"/><stop offset=".607" stop-color="#FCBD27"/><stop offset=".984" stop-color="#EFB222"/></linearGradient><radialGradient id="paint2_radial" cx="0" cy="0" r="1" gradientTransform="rotate(-15.177 452.048 16.44) scale(20.6463)" gradientUnits="userSpaceOnUse"><stop stop-color="#FFF1CF"/><stop offset=".188" stop-color="#FFE4A2"/><stop offset=".318" stop-color="#FFD364"/><stop offset=".49" stop-color="#FFD364"/><stop offset=".651" stop-color="#FFC73A"/><stop offset=".948" stop-color="#D09500"/></radialGradient><radialGradient id="paint3_radial" cx="0" cy="0" r="1" gradientTransform="rotate(121.889 -26.643 62.98) scale(4.52167 4.1179)" gradientUnits="userSpaceOnUse"><stop stop-color="#fff"/><stop offset=".694" stop-color="#fff" stop-opacity="0"/></radialGradient><radialGradient id="paint4_radial" cx="0" cy="0" r="1" gradientTransform="rotate(-15.177 222.907 -564.275) scale(15.7586)" gradientUnits="userSpaceOnUse"><stop stop-color="#E6C6FF"/><stop offset=".188" stop-color="#C07DF5"/><stop offset=".318" stop-color="#BE6FFC"/><stop offset=".49" stop-color="#B56AF0"/><stop offset=".651" stop-color="#A745F4"/><stop offset=".948" stop-color="#9F3DED"/></radialGradient><radialGradient id="paint5_radial" cx="0" cy="0" r="1" gradientTransform="rotate(121.889 67.512 62.792) scale(3.45124 3.14306)" gradientUnits="userSpaceOnUse"><stop stop-color="#fff"/><stop offset=".694" stop-color="#fff" stop-opacity="0"/></radialGradient></defs></svg>