<svg width="129" height="126" viewBox="0 0 129 126" fill="none" xmlns="http://www.w3.org/2000/svg">
<g clip-path="url(#clip0_8166_40231)">
<path opacity="0.2" d="M66.22 116.9C94.78 116.9 117.93 93.7505 117.93 65.1905C117.93 36.6305 94.78 13.4805 66.22 13.4805C37.66 13.4805 14.51 36.6305 14.51 65.1905C14.51 93.7505 37.66 116.9 66.22 116.9Z" fill="#BEC6D2"/>
<path d="M16.87 15.3906H23.21" stroke="#91A1B0" stroke-width="1.2" stroke-linecap="round" stroke-linejoin="round"/>
<path d="M30.73 0.601562V6.95156" stroke="#91A1B0" stroke-width="1.2" stroke-linecap="round" stroke-linejoin="round"/>
<path d="M19.5699 5.14062L24.5999 9.01063" stroke="#91A1B0" stroke-width="1.2" stroke-linecap="round" stroke-linejoin="round"/>
<path d="M104.18 39.8191V105.879C104.18 108.199 102.3 110.079 99.98 110.079H34.93C32.61 110.079 30.73 108.199 30.73 105.879V20.2391C30.73 17.9191 32.61 16.0391 34.93 16.0391H81.97" fill="white"/>
<path d="M104.18 39.8191V105.879C104.18 108.199 102.3 110.079 99.98 110.079H34.93C32.61 110.079 30.73 108.199 30.73 105.879V20.2391C30.73 17.9191 32.61 16.0391 34.93 16.0391H81.97" stroke="#91A1B0" stroke-width="1.2" stroke-miterlimit="10"/>
<path d="M104.18 39.8191H86.48C83.99 39.8191 81.96 37.7591 81.96 35.2091V16.0391L104.18 39.8191Z" fill="#91A1B0" stroke="#91A1B0" stroke-width="1.2" stroke-linecap="round" stroke-linejoin="round"/>
<path d="M40.91 48.9688H80.41" stroke="#CED6DE" stroke-width="1.2" stroke-linecap="round" stroke-linejoin="round"/>
<path d="M40.91 54.8008H68.33" stroke="#CED6DE" stroke-width="1.2" stroke-linecap="round" stroke-linejoin="round"/>
<path d="M122.4 124.891H127.79" stroke="#91A1B0" stroke-width="1.2" stroke-linecap="round" stroke-linejoin="round"/>
<path d="M92.98 124.891H116.56" stroke="#91A1B0" stroke-width="1.2" stroke-linecap="round" stroke-linejoin="round"/>
<path d="M1.20996 124.891H87.38" stroke="#91A1B0" stroke-width="1.2" stroke-linecap="round" stroke-linejoin="round"/>
<path d="M40.53 70.8398H81.97" stroke="#CED6DE" stroke-width="1.2" stroke-linecap="round" stroke-linejoin="round"/>
<path d="M40.53 76.9492H69.3" stroke="#CED6DE" stroke-width="1.2" stroke-linecap="round" stroke-linejoin="round"/>
<path d="M40.53 89.2891H81.97" stroke="#CED6DE" stroke-width="1.2" stroke-linecap="round" stroke-linejoin="round"/>
<path d="M40.53 95.3984H69.3" stroke="#CED6DE" stroke-width="1.2" stroke-linecap="round" stroke-linejoin="round"/>
<path opacity="0.2" d="M65.8999 27.4492H53.5199C52.8499 27.4492 52.2999 27.9992 52.2999 28.6692V28.8792C52.2999 29.5492 52.8499 30.0992 53.5199 30.0992H65.8999C66.5699 30.0992 67.1199 29.5492 67.1199 28.8792V28.6692C67.1199 27.9992 66.5699 27.4492 65.8999 27.4492Z" fill="#BEC6D2"/>
<path opacity="0.2" d="M74.6099 32.1484H54.0799C53.0999 32.1484 52.2999 32.9484 52.2999 33.9284V34.2384C52.2999 35.2184 53.0999 36.0184 54.0799 36.0184H74.6099C75.5899 36.0184 76.3899 35.2184 76.3899 34.2384V33.9284C76.3899 32.9484 75.5899 32.1484 74.6099 32.1484Z" fill="#BEC6D2"/>
<path opacity="0.2" d="M42.96 36.8505C45.34 36.8505 47.27 34.9205 47.27 32.5405C47.27 30.1605 45.34 28.2305 42.96 28.2305C40.58 28.2305 38.65 30.1605 38.65 32.5405C38.65 34.9205 40.58 36.8505 42.96 36.8505Z" fill="#BEC6D2"/>
<g opacity="0.25">
<path d="M81.9699 93.149V92.689C81.9699 91.029 82.5799 89.709 84.6099 87.909C85.8599 86.779 86.1699 85.899 86.1699 84.899C86.1699 83.789 85.5099 82.739 83.9599 82.739C82.2999 82.739 81.6399 83.839 81.4499 85.319H78.1799C78.2999 83.279 79.6099 80.109 84.0199 80.129C88.2399 80.149 89.5299 82.939 89.5299 84.999C89.5299 86.739 88.9599 87.919 87.0199 89.709C85.8099 90.829 85.4099 91.719 85.4099 92.889V93.149H81.9599H81.9699ZM81.9699 98.889V94.719H85.4199V98.889H81.9699Z" fill="#C4CCD4"/>
</g>
<path d="M85.14 116.319C98.4666 116.319 109.27 105.515 109.27 92.1886C109.27 78.862 98.4666 68.0586 85.14 68.0586C71.8134 68.0586 61.01 78.862 61.01 92.1886C61.01 105.515 71.8134 116.319 85.14 116.319Z" fill="white"/>
<path d="M120.64 121.661C119.63 121.661 118.61 121.361 117.72 120.741L105.94 112.501L111.79 104.141L123.57 112.381C125.87 113.991 126.44 117.181 124.82 119.481C123.83 120.901 122.24 121.651 120.63 121.651H120.64V121.661ZM107.62 112.211L118.41 119.761C120.17 120.991 122.61 120.561 123.84 118.801C125.07 117.041 124.64 114.601 122.88 113.371L112.09 105.821L107.62 112.211Z" fill="#92A2B1"/>
<path d="M108.13 111.23L103.53 108.01L106.75 103.41L111.35 106.63L108.13 111.23ZM105.2 107.72L107.83 109.56L109.67 106.93L107.04 105.09L105.2 107.72Z" fill="#92A2B1"/>
<path d="M85.1399 117.519C71.1699 117.519 59.8099 106.159 59.8099 92.1894C59.8099 78.2194 71.1699 66.8594 85.1399 66.8594C99.1099 66.8594 110.47 78.2194 110.47 92.1894C110.47 106.159 99.1099 117.519 85.1399 117.519ZM85.1399 68.0594C71.8299 68.0594 61.0099 78.8894 61.0099 92.1894C61.0099 105.489 71.8399 116.319 85.1399 116.319C98.4399 116.319 109.27 105.489 109.27 92.1894C109.27 78.8894 98.4399 68.0594 85.1399 68.0594Z" fill="#92A2B1"/>
<path d="M85.14 112.871C73.74 112.871 64.47 103.601 64.47 92.2012C64.47 80.8012 73.74 71.5312 85.14 71.5312C96.54 71.5312 105.81 80.8012 105.81 92.2012C105.81 103.601 96.54 112.871 85.14 112.871ZM85.14 72.7213C74.4 72.7213 65.67 81.4613 65.67 92.1913C65.67 102.921 74.41 111.671 85.14 111.671C95.87 111.671 104.62 102.931 104.62 92.1913C104.62 81.4513 95.88 72.7213 85.14 72.7213Z" fill="#92A2B1"/>
<path d="M85.1399 72.7188C74.3999 72.7188 65.6699 81.4588 65.6699 92.1888C65.6699 102.919 74.4099 111.669 85.1399 111.669C95.8699 111.669 104.62 102.929 104.62 92.1888C104.62 81.4488 95.8799 72.7188 85.1399 72.7188Z" fill="white"/>
<path d="M107.62 112.21L118.41 119.76C120.17 120.99 122.61 120.56 123.84 118.8C125.07 117.04 124.64 114.6 122.88 113.37L112.09 105.82L107.62 112.21Z" fill="white"/>
<path d="M92.2769 88.0212C93.7783 88.0212 95.0004 86.7991 95.0004 85.2977C95.0004 83.7963 93.7783 82.5742 92.2769 82.5742C90.7754 82.5742 89.5533 83.7963 89.5533 85.2977C89.5533 86.7991 90.7754 88.0212 92.2769 88.0212Z" stroke="#CED6DE" stroke-width="1.5" stroke-linecap="round" stroke-dasharray="2 2"/>
<path d="M90.1889 93.7028C88.3006 93.9207 86.4668 93.3941 85.1595 92.0868C83.8704 90.7977 83.3438 88.982 83.5435 87.0938" stroke="#CED6DE" stroke-width="1.81567" stroke-linecap="round" stroke-linejoin="round" stroke-dasharray="5.45 5.45"/>
<path d="M86.1036 102.276C83.0896 102.258 80.2572 101.205 78.1692 99.1169C76.0811 97.0289 75.0462 94.2328 75.0099 91.2188" stroke="#CED6DE" stroke-width="1.81567" stroke-linecap="round" stroke-linejoin="round" stroke-dasharray="5.45 5.45"/>
</g>
<defs>
<clipPath id="clip0_8166_40231">
<rect width="127.78" height="125.49" fill="white" transform="translate(0.609985)"/>
</clipPath>
</defs>
</svg>
