<svg xmlns="http://www.w3.org/2000/svg" width="210" height="210" fill="none" viewBox="0 0 210 210"><path fill="#F1F3F8" fill-rule="evenodd" d="M109.441 179.22l56.33-56.33a9 9 0 0112.72 12.72l-56.33 56.33a9 9 0 01-12.72-12.72zM14.8 133.76l8.71-8.71a9.005 9.005 0 019.955-2.209 8.989 8.989 0 015.628 8.503 9.001 9.001 0 01-2.863 6.426l-8.71 8.71a8.988 8.988 0 01-6.426 2.863 9.017 9.017 0 01-3.53-.653 9.003 9.003 0 01-2.765-14.93z" clip-rule="evenodd"/><path fill="#F1F3F8" fill-rule="evenodd" d="M113.449 150.291l25.74-25.74a9 9 0 0012.72 12.71l-25.75 25.74a9.003 9.003 0 002.287-9.994 9.001 9.001 0 00-14.997-2.726m-11.01-39.211L126.559 87a9.004 9.004 0 00.221 12.5 9.002 9.002 0 0012.499.22l-24.12 24.12a9 9 0 00-12.72-12.72" clip-rule="evenodd"/><path fill="#F1F3F8" fill-rule="evenodd" d="M93.9 144.531l70.369-70.37a9.001 9.001 0 0112.73 12.71l-70.37 70.38a9.004 9.004 0 01-12.59-.13 9.001 9.001 0 01-.14-12.59zm-69.15 19.08l95.8-95.8a8.997 8.997 0 019.995-2.278 8.99 8.99 0 015.001 5.005 9.002 9.002 0 01-2.286 9.993l-95.79 95.79a8.997 8.997 0 01-15.071-6.435 9.001 9.001 0 012.35-6.275zm16.94-63.07l35.54-35.54A9.009 9.009 0 0190 77.711l-35.6 35.55a9 9 0 01-12.71-12.72zm58.8-58.801l.21-.21a8.999 8.999 0 0112.72 12.72l-.22.21a9.002 9.002 0 01-12.71 0 8.998 8.998 0 010-12.72zM73.22 164.611l.21-.21a8.996 8.996 0 0113.008-.299 9.01 9.01 0 012.636 6.566 9.003 9.003 0 01-2.924 6.443l-.21.22a9.002 9.002 0 01-12.72 0 9 9 0 010-12.72z" clip-rule="evenodd"/><path fill="#717790" fill-rule="evenodd" d="M194.441 196.471a4.915 4.915 0 011.84-.26 9.732 9.732 0 011.85.18.558.558 0 01.431.545.556.556 0 01-.431.545c-.609.12-1.229.18-1.85.18a4.875 4.875 0 01-1.84-.26.492.492 0 010-.93zm-168.531.021c6.91-.2 13.82-.23 20.73-.23h124.361c6.91 0 13.81 0 20.72.2a.582.582 0 01.504.575.58.58 0 01-.504.575c-6.91.18-13.81.19-20.72.2H46.641c-6.91 0-13.82 0-20.73-.23a.441.441 0 01-.43-.46.45.45 0 01.43-.43m-4.081-.411c.09-.01.181-.01.27 0h.13c.05.011.098.031.14.06a.688.688 0 010 1.13.443.443 0 01-.14.06h-.13c-.089.01-.18.01-.27 0a.68.68 0 01-.42-.294.68.68 0 01.088-.839.653.653 0 01.333-.177m-6.641.239a6.309 6.309 0 011.34-.18 3.89 3.89 0 011.35.12.562.562 0 01.37.7.59.59 0 01-.37.37c-.44.119-.897.16-1.35.12a6.183 6.183 0 01-1.34-.18.474.474 0 01-.366-.407.484.484 0 01.015-.193.462.462 0 01.35-.35zm74.531 8.85c2.16-.2 4.31-.23 6.47-.23h6.47l12.94-.08h19.4c2.16 0 4.32 0 6.47.2a.576.576 0 01.512.395.59.59 0 01.028.225.61.61 0 01-.54.54c-2.15.17-4.31.18-6.47.19h-19.4l-12.94-.07h-6.47c-2.16 0-4.31 0-6.47-.23a.452.452 0 01-.383-.445.451.451 0 01.383-.445m-21.291-.08c2.21-.12 4.42-.159 6.63-.179 2.21-.02 4.42 0 6.63.12a.538.538 0 010 1.069c-2.21.14-4.42.151-6.63.121s-4.42-.061-6.63-.181a.467.467 0 01-.46-.5.493.493 0 01.46-.45z" clip-rule="evenodd"/><path fill="#C8D6EC" d="M188.279 160.001a2.724 2.724 0 01-2.513-1.68 2.716 2.716 0 011.982-3.708 2.716 2.716 0 012.792 1.156 2.72 2.72 0 01-2.261 4.232zm0-3.43a.714.714 0 00-.666.446.721.721 0 00.531.981.717.717 0 00.738-.315.718.718 0 00.117-.402.724.724 0 00-.72-.73v.02zM5.36 78.94a1 1 0 01-1-1v-8.5a1 1 0 112 0v8.5a1 1 0 01-1 1z"/><path fill="#C8D6EC" d="M9.61 74.69h-8.5a1 1 0 010-2h8.5a1 1 0 110 2zm51.069-5.07a2.72 2.72 0 110-5.44 2.72 2.72 0 010 5.44zm0-3.43a.72.72 0 100 1.439.72.72 0 000-1.44zm128.141 40.629a2.724 2.724 0 01-2.513-1.679 2.72 2.72 0 112.513 1.679zm0-3.43a.714.714 0 00-.666.447.717.717 0 00.531.98.717.717 0 00.738-.314.72.72 0 00.117-.403.717.717 0 00-.212-.506.703.703 0 00-.508-.204zM93.49 61.49a1.09 1.09 0 01-.5-.13 1 1 0 01-.47-.61l-.83-3.06a1 1 0 01.7-1.23l3.06-.84a1 1 0 011.23.7l.84 3.07a1 1 0 01-.7 1.23l-3.07.83a.75.75 0 01-.26.04zm.39-3.37l.31 1.14 1.13-.26-.32-1.19-1.12.31zm-55.491 64.53a3.004 3.004 0 01-2.772-1.852 3 3 0 112.772 1.852zm0-4a1 1 0 100 2 1 1 0 000-2z"/><path fill="#CED6DE" d="M114.37 149.08h-.08c-.63-.11-1.33-.24-2.09-.4a.504.504 0 01-.39-.59.513.513 0 01.59-.39c.75.16 1.44.29 2.06.39a.5.5 0 01.455.545.503.503 0 01-.545.455v-.01zm-4.13-.84h-.11c-.66-.15-1.35-.31-2.07-.5a.508.508 0 01-.275-.786.487.487 0 01.33-.195.513.513 0 01.195.011l2 .5a.493.493 0 01.315.221.498.498 0 01.065.379.506.506 0 01-.45.37zm-4.09-1.06a.285.285 0 01-.13 0c-.67-.19-1.35-.39-2-.61a.511.511 0 01-.31-.252.538.538 0 01-.04-.398.522.522 0 01.65-.35l2 .6a.506.506 0 01-.14 1l-.03.01zm-4-1.28a.485.485 0 01-.17 0c-.66-.23-1.32-.48-2-.74a.498.498 0 11.36-.93c.66.25 1.31.5 2 .72a.514.514 0 01.31.64.49.49 0 01-.51.31h.01zm-3.93-1.52a.45.45 0 01-.2 0c-.65-.27-1.29-.56-1.94-.87a.491.491 0 01-.124-.818.49.49 0 01.364-.13c.066.003.13.02.19.048.63.3 1.27.58 1.9.85a.512.512 0 01.27.66.499.499 0 01-.47.26h.01zm-3.81-1.8a.453.453 0 01-.23-.06c-.63-.32-1.25-.67-1.87-1a.508.508 0 01-.18-.69.523.523 0 01.69-.18c.6.35 1.21.69 1.82 1a.502.502 0 01.248.559.498.498 0 01-.478.381v-.01zm-3.64-2.12a.448.448 0 01-.27-.08c-.6-.38-1.19-.78-1.76-1.2a.496.496 0 01-.192-.522.5.5 0 01.782-.288c.56.41 1.13.8 1.71 1.18a.502.502 0 01.15.69.515.515 0 01-.43.22h.01zM87.36 138a.537.537 0 01-.32-.11c-.56-.46-1.1-.94-1.61-1.42a.482.482 0 01-.147-.35.49.49 0 01.147-.35.491.491 0 01.355-.148.491.491 0 01.355.148c.49.46 1 .92 1.56 1.37a.502.502 0 01-.036.788.499.499 0 01-.284.092l-.02-.02zm-3.06-2.89a.485.485 0 01-.37-.16c-.48-.53-1-1.08-1.38-1.63a.508.508 0 01.08-.71.502.502 0 01.7.09c.42.54.87 1.06 1.34 1.57a.51.51 0 010 .71.5.5 0 01-.37.11v.02zm-2.58-3.31a.51.51 0 01-.42-.23c-.39-.6-.76-1.22-1.09-1.85a.5.5 0 01.21-.67.494.494 0 01.555.05.493.493 0 01.125.15c.303.61.637 1.204 1 1.78a.5.5 0 01-.15.69.528.528 0 01-.23.06v.02zm-2-3.71a.512.512 0 01-.46-.31 20.993 20.993 0 01-.72-2 .51.51 0 01.33-.63.501.501 0 01.62.33c.2.658.434 1.306.7 1.94a.502.502 0 01-.19.58.41.41 0 01-.24.07l-.04.02zm-1.22-4a.509.509 0 01-.49-.4c-.14-.7-.26-1.41-.34-2.12a.5.5 0 01.258-.496.514.514 0 01.383-.042.502.502 0 01.36.428c.08.68.18 1.36.32 2a.51.51 0 01-.39.59l-.1.04zm-.47-4.18a.502.502 0 01-.5-.48v-2.15a.501.501 0 111 .06v2.06a.493.493 0 01-.49.51h-.01zM122 119a.5.5 0 010-1c.71 0 1.41 0 2.09-.05a.5.5 0 010 1c-.69 0-1.4 0-2.12.05h.03zm-2.11 0l-2.11-.06a.51.51 0 01-.434-.718.49.49 0 01.474-.282l2.09.06a.493.493 0 01.456.318.505.505 0 01.034.192.493.493 0 01-.53.49h.02zm6.31-.14a.5.5 0 010-1c.7 0 1.4-.1 2.08-.17a.504.504 0 01.439.818.497.497 0 01-.339.182c-.69.07-1.4.13-2.12.18l-.06-.01zm-10.51 0c-.69 0-1.39-.1-2.11-.17a.49.49 0 01-.27-.873.518.518 0 01.36-.117l2.09.17a.496.496 0 01.345.168.5.5 0 01.125.362.51.51 0 01-.56.41l.02.05zm-4.2-.39c-.69-.08-1.39-.16-2.1-.26a.49.49 0 01-.43-.56.503.503 0 01.56-.43l2.08.26a.498.498 0 01.47.53.498.498 0 01-.53.47l-.05-.01zm18.89 0a.508.508 0 01-.364-.121.504.504 0 01.294-.879c.71-.1 1.39-.21 2.06-.33a.507.507 0 01.18 1c-.68.12-1.38.24-2.1.34l-.07-.01zm-23.06-.55h-.07l-2.09-.34a.48.48 0 01-.325-.198.489.489 0 01-.085-.372.504.504 0 01.58-.41c.667.12 1.357.23 2.07.33a.502.502 0 01.42.57.512.512 0 01-.52.37l.02.05zm27.2-.2a.493.493 0 01-.37-.107.506.506 0 01-.077-.707.499.499 0 01.337-.186c.69-.16 1.36-.33 2-.51a.517.517 0 01.26 1c-.67.18-1.35.35-2.06.51h-.09zm-31.35-.5h-.09l-2.07-.4a.51.51 0 01-.4-.59.502.502 0 01.59-.39l2.06.39a.503.503 0 01.4.59.493.493 0 01-.51.35l.02.05zm35.4-.61a.499.499 0 01-.47-.35.48.48 0 01.148-.536.474.474 0 01.172-.094c.67-.22 1.32-.45 1.95-.7a.51.51 0 01.65.29.496.496 0 01-.014.38.496.496 0 01-.276.26c-.64.25-1.31.49-2 .72a.439.439 0 01-.18-.02l.02.05zM99 116.34h-.1c-.68-.14-1.37-.3-2.06-.46a.495.495 0 01-.315-.221.496.496 0 01.535-.749l2 .46a.489.489 0 01.221.851.496.496 0 01-.28.119zm-20.72-.66h-.07a.49.49 0 01-.43-.56c.09-.69.2-1.4.34-2.11a.488.488 0 01.59-.39.493.493 0 01.32.206.48.48 0 01.07.374c-.13.69-.24 1.38-.33 2a.502.502 0 01-.47.48h-.02zm16.62-.28h-.12l-2-.51a.5.5 0 01-.35-.61.485.485 0 01.224-.306.504.504 0 01.376-.054l2 .51a.51.51 0 01.37.61.5.5 0 01-.48.36h-.02zm47.55-.37a.509.509 0 01-.605-.395.51.51 0 01.395-.605c.64-.29 1.26-.6 1.85-.92a.506.506 0 01.381-.041.503.503 0 01.099.921c-.61.33-1.25.65-1.91 1a.527.527 0 01-.19.01l-.02.03zm-51.62-.68h-.14l-2-.56a.508.508 0 01-.35-.62.5.5 0 01.62-.34l2 .56a.504.504 0 01-.13 1v-.04zm-4.06-1.15a.366.366 0 01-.14 0l-2-.6a.508.508 0 01-.33-.63.501.501 0 01.62-.33l2 .6a.497.497 0 01.33.62.488.488 0 01-.46.34h-.02zm59.38-.16a.496.496 0 01-.478-.359.502.502 0 01.208-.561c.59-.37 1.17-.76 1.72-1.16a.507.507 0 01.373-.09c.065.01.127.033.183.068a.491.491 0 01.226.31.493.493 0 01-.059.378.508.508 0 01-.133.144c-.57.42-1.17.82-1.78 1.19a.415.415 0 01-.24.04l-.02.04zM82.77 112c-.05.01-.1.01-.15 0l-2-.65a.492.492 0 01-.346-.436.494.494 0 01.026-.194.499.499 0 01.63-.32l2 .65a.498.498 0 01.343.429.478.478 0 01-.503.521zm-3.67-.42H79a.508.508 0 01-.36-.61 2.73 2.73 0 00.07-.27h-.07l-2-.68a.504.504 0 01-.31-.64.501.501 0 01.64-.31l2 .68c.08-.27.16-.54.25-.82a.512.512 0 01.63-.33.51.51 0 01.33.63c-.22.68-.41 1.34-.58 2a.496.496 0 01-.5.32v.03zm70.47-1a.515.515 0 01-.38-.17.504.504 0 01-.114-.367.507.507 0 01.174-.343c.53-.44 1-.91 1.53-1.39a.496.496 0 01.848.355.502.502 0 01-.148.355c-.507.494-1.037.974-1.59 1.44a.473.473 0 01-.32.11v.01zm-74.78-1.28a.485.485 0 01-.17 0c-.66-.24-1.32-.47-2-.72a.488.488 0 01-.332-.446.495.495 0 01.032-.194.5.5 0 01.64-.3c.66.25 1.32.48 2 .72a.491.491 0 01.3.63.504.504 0 01-.47.3v.01zm-4-1.45a.485.485 0 01-.17 0l-2-.74a.486.486 0 01-.28-.264.502.502 0 01.63-.676l2 .75a.511.511 0 01.41.59.505.505 0 01-.59.41v-.07zm81.74-.21a.539.539 0 01-.33-.12.486.486 0 01-.109-.163.485.485 0 010-.384.497.497 0 01.109-.163c.45-.52.89-1.06 1.29-1.61a.51.51 0 01.7-.1.5.5 0 01.1.7c-.42.57-.87 1.13-1.34 1.67a.515.515 0 01-.38.16l-.04.01zm-72.19-.09a.481.481 0 01-.2 0 .502.502 0 01-.26-.66c.16-.38.45-1 .89-1.94a.5.5 0 01.9.43c-.43.87-.71 1.53-.87 1.9a.502.502 0 01-.42.26l-.04.01zm-13.48-1.2c-.06.01-.12.01-.18 0l-2-.78a.492.492 0 01-.275-.267.498.498 0 01.264-.654.514.514 0 01.381-.009c.65.27 1.31.52 2 .78a.5.5 0 01.29.64.515.515 0 01-.44.28l-.04.01zM63 104.78a.605.605 0 01-.19 0l-1.95-.8a.503.503 0 11.38-.93l2 .8a.488.488 0 01.27.65.478.478 0 01-.51.28zm92.09-.53a.477.477 0 01-.26-.07.481.481 0 01-.227-.311.48.48 0 01.067-.379c.36-.59.71-1.19 1-1.8a.498.498 0 01.675-.215.501.501 0 01.215.675c-.33.64-.69 1.26-1.07 1.87a.48.48 0 01-.41.23h.01zm-72.86-.51a.453.453 0 01-.23-.06.488.488 0 01-.247-.296.501.501 0 01.037-.384c.31-.57.66-1.19 1-1.85a.502.502 0 01.656-.138.5.5 0 01.204.638c-.38.65-.72 1.26-1 1.83a.513.513 0 01-.43.26h.01zm-23.12-.57a.407.407 0 01-.19 0l-1.92-.86a.495.495 0 01-.31-.467c0-.066.014-.132.04-.193a.509.509 0 01.66-.26l1.93.82a.507.507 0 01.405.595.509.509 0 01-.595.405l-.02-.04zm-3.83-1.74a.486.486 0 01-.3-.1c-.34-.26-.91-.71-1.67-1.34a.49.49 0 01-.06-.7.49.49 0 01.7-.07c.74.62 1.31 1.06 1.64 1.31a.5.5 0 01.09.7.514.514 0 01-.41.2h.01zm101.72-.91a.67.67 0 01-.2 0 .52.52 0 01-.27-.66c.27-.64.51-1.29.71-1.93a.523.523 0 011 .3c-.22.67-.46 1.35-.74 2a.514.514 0 01-.5.29zm-72.66-.42a.499.499 0 01-.42-.77c.36-.567.75-1.156 1.17-1.77a.5.5 0 01.7-.13.51.51 0 01.13.69c-.41.6-.8 1.18-1.16 1.75a.476.476 0 01-.4.23h-.02zM52 98.73a.5.5 0 01-.34-.13c-.49-.43-1-.91-1.56-1.43a.5.5 0 01.54-.819c.06.026.114.063.16.11.55.51 1.07 1 1.55 1.41a.5.5 0 01-.33.88l-.02-.02zm34.72-2.11a.53.53 0 01-.3-.09.51.51 0 01-.11-.7c.41-.56.84-1.12 1.29-1.69a.502.502 0 11.79.62c-.45.56-.87 1.11-1.27 1.66a.51.51 0 01-.37.2h-.03zm71.52-.13h-.09a.484.484 0 01-.323-.205.493.493 0 01-.077-.375c.07-.37.1-.58.1-.59v-1.43a.5.5 0 011 0v1.5c0 .05 0 .28-.12.71a.486.486 0 01-.46.39h-.03zM49 95.84a.5.5 0 01-.35-.15c-.48-.48-1-1-1.48-1.52a.5.5 0 01.54-.819c.06.026.114.063.16.11.5.532.99 1.032 1.47 1.5a.51.51 0 010 .71.51.51 0 01-.34.17zm40.41-2.52a.5.5 0 01-.41-.82c.45-.53.92-1.07 1.41-1.6a.501.501 0 01.842.513.502.502 0 01-.102.167c-.48.52-.94 1-1.39 1.56a.49.49 0 01-.4.18h.05zm-43.31-.55a.499.499 0 01-.37-.16c-.46-.52-.92-1-1.39-1.61a.49.49 0 01.06-.7.51.51 0 01.71.06c.46.55.91 1.07 1.37 1.58a.51.51 0 010 .71.54.54 0 01-.43.12h.05zm112.07-.47a.49.49 0 01-.49-.41 16.137 16.137 0 00-.47-2 .512.512 0 01.33-.63.501.501 0 01.62.33c.21.693.38 1.398.51 2.11a.5.5 0 01-.41.57l-.09.03zm-65.96-2.09a.5.5 0 01-.36-.85c.49-.5 1-1 1.52-1.48a.498.498 0 01.71 0 .481.481 0 010 .7c-.51.49-1 1-1.49 1.46a.49.49 0 01-.38.17zm-48.86-.67a.5.5 0 01-.4-.19c-.43-.55-.86-1.11-1.28-1.69a.5.5 0 11.81-.59c.41.57.84 1.12 1.26 1.67a.5.5 0 01-.08.7.52.52 0 01-.31.1zm113.54-1.25a.49.49 0 01-.45-.29 17.382 17.382 0 00-1-1.81.502.502 0 11.86-.52c.374.618.708 1.26 1 1.92a.51.51 0 01-.25.66.52.52 0 01-.16.04zm-61.62-1a.46.46 0 01-.37-.18.488.488 0 010-.7c.53-.46 1.08-.92 1.63-1.37a.52.52 0 01.71.08.49.49 0 01-.08.7c-.55.44-1.08.89-1.6 1.34a.46.46 0 01-.29.17v-.04zm-54.41-1.15a.5.5 0 01-.41-.22c-.39-.58-.78-1.18-1.16-1.79a.502.502 0 11.86-.52c.36.59.74 1.18 1.13 1.75a.5.5 0 01-.14.69.47.47 0 01-.28.09zm113.86-1.44a.497.497 0 01-.4-.19A19.155 19.155 0 00153 83a.477.477 0 01-.112-.54.477.477 0 01.112-.16.504.504 0 01.547-.11.493.493 0 01.163.11c.5.517.97 1.061 1.41 1.63a.498.498 0 01-.09.7.49.49 0 01-.31.07zm-56.16 0a.51.51 0 01-.41-.2.51.51 0 01.11-.7c.56-.42 1.14-.83 1.73-1.23a.495.495 0 01.377-.081.507.507 0 01.323.211.51.51 0 01-.14.7c-.58.39-1.15.79-1.7 1.2a.46.46 0 01-.29.09v.01zm-59.91-2.14a.51.51 0 01-.44-.26c-.34-.62-.68-1.24-1-1.88a.503.503 0 11.9-.45c.31.63.64 1.24 1 1.84a.492.492 0 01-.19.68.42.42 0 01-.27.07zm63.35-.23a.504.504 0 01-.43-.24.509.509 0 01.17-.69c.59-.36 1.2-.72 1.83-1.07a.5.5 0 01.68.19.513.513 0 01-.19.68c-.607.34-1.207.674-1.8 1a.42.42 0 01-.26.13zm49.76-.66a.49.49 0 01-.32-.12c-.51-.44-1.06-.87-1.63-1.27a.51.51 0 01.215-.906.5.5 0 01.375.086c.59.43 1.16.88 1.69 1.33a.51.51 0 01.05.71.52.52 0 01-.34.17h-.04zm-46.09-1.4a.509.509 0 01-.45-.27.498.498 0 01.074-.552.508.508 0 01.156-.118c.62-.32 1.26-.63 1.91-.92a.5.5 0 01.571.799.49.49 0 01-.161.111c-.63.29-1.26.59-1.87.9a.48.48 0 01-.19.05h-.04zm42.68-1.06a.589.589 0 01-.26-.07c-.58-.36-1.19-.7-1.81-1a.498.498 0 01-.22-.67.522.522 0 01.68-.22c.63.33 1.26.68 1.87 1a.51.51 0 01.17.69.528.528 0 01-.39.27h-.04zm-111.59-.42a.49.49 0 01-.45-.3c-.29-.64-.56-1.3-.81-2a.498.498 0 01.476-.726.5.5 0 01.454.376c.25.65.51 1.29.79 1.92a.5.5 0 01-.26.66.45.45 0 01-.2.07zm72.78-.25a.513.513 0 01-.46-.31.504.504 0 01.28-.65c.65-.26 1.31-.51 2-.75a.526.526 0 11.33 1c-.66.23-1.31.47-2 .73a.579.579 0 01-.15-.02zm35.1-1.26a.478.478 0 01-.2 0c-1.11-.47-1.83-.68-1.84-.69a.53.53 0 01-.309-.23.53.53 0 01-.071-.38.459.459 0 01.54-.38h.1c.681.203 1.349.447 2 .73a.509.509 0 11-.19 1l-.03-.05zm-31.13-.13a.504.504 0 11-.14-1c.67-.21 1.35-.4 2-.57a.514.514 0 11.24 1c-.68.18-1.34.36-2 .56a.39.39 0 01-.1.01zm27.08-1h-.09c-.7-.13-1.38-.25-2.06-.35a.507.507 0 01-.328-.198.504.504 0 01.106-.7.499.499 0 01.372-.092l2.09.36a.498.498 0 01.434.35.494.494 0 01-.034.383.519.519 0 01-.295.246.504.504 0 01-.195.021v-.02zm-23 0a.503.503 0 01-.49-.39.509.509 0 01.39-.6c.68-.14 1.38-.27 2.08-.39a.51.51 0 01.58.41.51.51 0 01-.41.58c-.69.11-1.38.24-2 .38l-.15.01zm18.84-.62h-.06c-.7-.09-1.39-.17-2.08-.23a.496.496 0 01-.432-.354.497.497 0 01-.018-.196.491.491 0 01.54-.45c.7.07 1.4.14 2.11.23a.5.5 0 11-.06 1zm-14.69-.07a.511.511 0 01-.5-.44.503.503 0 01.43-.56c.7-.09 1.4-.16 2.11-.22a.504.504 0 01.494.262.496.496 0 01-.404.728c-.7.06-1.39.14-2.07.22l-.06.01zm10.5-.32l-2.12-.14a.52.52 0 01-.49-.51.495.495 0 01.157-.354.51.51 0 01.363-.136l2.12.09a.5.5 0 110 1l-.03.05zm-6.31 0a.491.491 0 01-.5-.47.51.51 0 01.125-.362.507.507 0 01.345-.168c.7 0 1.41 0 2.12-.06a.5.5 0 110 1c-.71 0-1.4 0-2.09.06zm-90.65-.19a.49.49 0 01-.48-.35c-.21-.67-.41-1.36-.58-2.05a.51.51 0 01.565-.62.489.489 0 01.405.38c.17.67.36 1.34.56 2a.491.491 0 01-.32.63.39.39 0 01-.15-.08v.09zm-1-4.08a.49.49 0 01-.49-.41c-.13-.71-.23-1.42-.31-2.12a.503.503 0 011-.11c.07.68.17 1.37.29 2a.5.5 0 01-.4.58l-.09.06zm-.45-4.18a.5.5 0 01-.5-.48v-2.17a.51.51 0 01.52-.48.501.501 0 01.48.52v2.06a.5.5 0 01-.48.52l-.02.03zM34 62.4h-.06a.5.5 0 01-.44-.56c.08-.7.2-1.42.33-2.11a.51.51 0 01.59-.4.499.499 0 01.39.59c-.13.67-.24 1.36-.32 2a.5.5 0 01-.49.48zm.81-4.12h-.13a.49.49 0 01-.35-.61c.19-.68.4-1.37.64-2a.526.526 0 111 .33c-.24.66-.45 1.32-.63 2a.5.5 0 01-.53.28zm1.41-4a.481.481 0 01-.2 0 .51.51 0 01-.26-.66c.29-.64.6-1.29.93-1.92a.502.502 0 01.86-.132.5.5 0 01.02.592c-.32.61-.62 1.24-.89 1.86a.5.5 0 01-.46.3v-.04zm1.94-3.73a.48.48 0 01-.26-.07.489.489 0 01-.17-.68c.36-.6.74-1.2 1.15-1.8a.5.5 0 01.903.192.51.51 0 01-.073.378c-.4.58-.77 1.16-1.12 1.74a.5.5 0 01-.43.28v-.04zm2.36-3.47a.49.49 0 01-.39-.8c.42-.55.86-1.11 1.33-1.66a.5.5 0 01.76.64 46.1 46.1 0 00-1.3 1.62.51.51 0 01-.4.24v-.04zm2.71-3.21a.488.488 0 01-.34-.84c.473-.506.963-1.016 1.47-1.53a.498.498 0 01.71 0 .502.502 0 010 .71c-.5.5-.98 1-1.44 1.5a.52.52 0 01-.4.2v-.04zm3-3a.54.54 0 01-.37-.16.51.51 0 010-.71c.51-.47 1-.94 1.58-1.41a.503.503 0 01.66.76c-.54.46-1.06.92-1.56 1.38a.51.51 0 01-.33.21l.02-.07zm3.19-2.75A.48.48 0 0149 38a.49.49 0 01.07-.7c.54-.43 1.1-.87 1.67-1.3a.499.499 0 11.6.79c-.56.43-1.11.86-1.64 1.29a.51.51 0 01-.3.11l.02-.07zm3.35-2.55a.51.51 0 01-.41-.2.51.51 0 01.11-.7c.57-.41 1.14-.81 1.74-1.21a.5.5 0 01.56.82c-.593.4-1.163.8-1.71 1.2a.52.52 0 01-.31.16l.02-.07zm3.47-2.36a.51.51 0 01-.42-.23.5.5 0 01.15-.69c.58-.38 1.18-.76 1.79-1.13a.5.5 0 01.75.538.51.51 0 01-.22.312c-.61.37-1.2.74-1.78 1.12a.5.5 0 01-.29.15l.02-.07zM59.83 31a.51.51 0 01-.44-.25.5.5 0 01.18-.68l1.83-1.06a.5.5 0 01.68.19.502.502 0 01-.19.69c-.61.34-1.22.69-1.81 1a.47.47 0 01-.27.18l.02-.07zm3.64-2a.49.49 0 01-.44-.26.51.51 0 01.2-.68l1.87-1a.5.5 0 11.46.88l-1.85 1a.43.43 0 01-.24.06zm3.74-1.93a.51.51 0 01-.45-.28.5.5 0 01.22-.67l1.9-.93a.5.5 0 11.43.9l-1.88.91a.459.459 0 01-.22.07zM71 25.24a.5.5 0 01-.21-.95l1.92-.88a.5.5 0 01.41.91l-1.91.88a.52.52 0 01-.21.04zm3.84-1.72a.5.5 0 01-.46-.3.51.51 0 01.26-.66l1.94-.83a.5.5 0 11.39.92l-1.97.83a.48.48 0 01-.16.04zm3.88-1.63a.5.5 0 01-.5-.5.49.49 0 01.31-.46l2-.79a.51.51 0 01.65.28.501.501 0 01-.28.65l-2 .78a.43.43 0 01-.18.04zm3.92-1.54a.52.52 0 01-.47-.33.5.5 0 01.29-.64l2-.75a.5.5 0 01.64.3.49.49 0 01-.29.64l-2 .74a.471.471 0 01-.17.04zm3.94-1.47a.52.52 0 01-.47-.33.5.5 0 01.3-.64l2-.71a.51.51 0 01.64.31.5.5 0 01-.31.63l-2 .71a.47.47 0 01-.16.03zm4-1.4a.506.506 0 01-.16-1l2-.68a.51.51 0 01.656.514.491.491 0 01-.346.436l-2 .68-.15.05zm4-1.33a.49.49 0 01-.48-.35.5.5 0 01.32-.63l2-.64a.52.52 0 01.67.553.522.522 0 01-.37.447l-2 .65-.14-.03zm4-1.27a.51.51 0 01-.48-.35.51.51 0 01.33-.63l2-.61a.52.52 0 01.29 1l-2 .62-.14-.03zm4-1.21a.501.501 0 01-.5-.555.478.478 0 01.185-.337.488.488 0 01.175-.088l2-.59a.489.489 0 01.62.34.51.51 0 01-.34.62l-2 .58a.35.35 0 01-.13.03h-.01zm4-1.17a.508.508 0 01-.496-.556.513.513 0 01.366-.424l2-.56a.5.5 0 11.27.96l-2 .56a.32.32 0 01-.09.02h-.05zm4.06-1.11a.498.498 0 01-.427-.754.51.51 0 01.307-.236l1.8-.48a.51.51 0 01.61.36.494.494 0 01-.053.38.504.504 0 01-.307.23l-1.79.48-.14.02z"/><path fill="#DAE1E7" fill-rule="evenodd" d="M73.48 127.551H71.5v-2h-1.33v2h-1.98v1.33h1.98v2.01h1.33v-2.01h1.98v-1.33z" clip-rule="evenodd"/><path fill="#fff" d="M114.81 12.58a3.29 3.29 0 100-6.58 3.29 3.29 0 000 6.58z"/><path fill="#CED6DE" d="M114.81 13.08a3.79 3.79 0 110-7.58 3.79 3.79 0 010 7.58zm0-6.58a2.793 2.793 0 00-2.578 1.722 2.789 2.789 0 004.897 2.618 2.787 2.787 0 00-2.319-4.34z"/><path fill="#fff" d="M105.001 108.659c14.558 0 26.36-11.801 26.36-26.36 0-14.558-11.802-26.36-26.36-26.36-14.559 0-26.36 11.802-26.36 26.36 0 14.559 11.801 26.36 26.36 26.36z"/><path fill="#fff" d="M105.001 108.659c14.558 0 26.36-11.801 26.36-26.36 0-14.558-11.802-26.36-26.36-26.36-14.559 0-26.36 11.802-26.36 26.36 0 14.559 11.801 26.36 26.36 26.36z"/><path fill="#717790" d="M105.001 109.659a27.355 27.355 0 01-25.278-16.89 27.36 27.36 0 1152.638-10.47 27.387 27.387 0 01-27.36 27.36zm0-52.72a25.36 25.36 0 1025.36 25.36 25.392 25.392 0 00-25.36-25.36z"/><path fill="#717790" d="M105 95.72a1 1 0 01-1-1V70.48a.998.998 0 011-1 .999.999 0 011 1v24.24a.998.998 0 01-1 1z"/><path fill="#717790" d="M117.121 83.6h-24.24a1 1 0 110-2h24.24a1.001 1.001 0 010 2z"/><path fill="#E1E1E1" d="M85.37 97.58h39.379l-9.17 12.34h-20.39l-9.82-12.34z"/><path fill="#A9E0D0" d="M164.22 101.75h-89.7v73.29h89.7v-73.29z"/><path fill="#717790" d="M165.22 176h-91.7v-75.25h91.7V176zm-89.7-2h87.7v-71.25h-87.7V174z"/><path fill="#A9E0D0" d="M136.28 101.75h-89.7v73.29h89.7v-73.29z"/><path fill="#717790" d="M137.28 176h-91.7v-75.25h91.7V176zm-89.7-2h87.7v-71.25h-87.7V174z"/><path fill="#A9E0D0" d="M136.279 101.749l22.4-20.8h27.51l-21.97 20.8h-27.94z"/><path fill="#717790" d="M164.61 102.75h-30.88L158.28 80h30.42l-24.09 22.75zm-25.79-2h25L183.68 82h-24.61l-20.25 18.75z"/><path fill="#A9E0D0" d="M74.94 101.749l-22.4-20.8H25.02L47 101.75h27.94z"/><path fill="#717790" d="M77.49 102.75H46.6L22.51 80h30.42l24.56 22.75zm-30.09-2h25L52.14 82h-24.6l19.86 18.75z"/><path fill="#9ED0C0" d="M45.01 98.16h24.17l2.7 2.41H47.62l-2.61-2.41z"/></svg>