<svg width="129" height="108" viewBox="0 0 129 108" fill="none" xmlns="http://www.w3.org/2000/svg">
<g clip-path="url(#clip0_14403_242833)">
<path d="M122.4 107.26H127.79M92.9802 107.26H116.56M1.21021 107.26H87.3802" stroke="#91A1B0" stroke-width="1.2" stroke-linecap="round" stroke-linejoin="round"/>
<path opacity="0.2" d="M65.4102 100.81C93.4102 100.81 116.1 78.24 116.1 50.41C116.1 22.58 93.4002 0 65.4102 0C37.4202 0 14.7102 22.57 14.7102 50.4C14.7102 78.23 37.4102 100.8 65.4002 100.8L65.4102 100.81Z" fill="#BEC6D2"/>
<path d="M52.0537 74.9478C50.7581 74.5183 50.0537 73.1154 50.4832 71.8198L66.3631 23.9157C66.7926 22.62 68.1955 21.9157 69.4911 22.3452L105.877 34.4067C107.172 34.8362 107.877 36.2391 107.447 37.5348L91.5672 85.4388C91.1377 86.7345 89.7348 87.4388 88.4392 87.0093L52.0537 74.9478Z" fill="white" stroke="#91A1B0" stroke-miterlimit="10" stroke-linecap="round" stroke-linejoin="round" stroke-dasharray="1.8 1.8"/>
<path d="M42.2994 86.4387C41.0012 86.8605 39.6025 86.1478 39.1807 84.8496L23.5854 36.8522C23.1636 35.554 23.8762 34.1553 25.1744 33.7335L61.6308 21.8881C62.929 21.4663 64.3277 22.1789 64.7495 23.4771L80.3448 71.4746C80.7666 72.7728 80.0539 74.1715 78.7558 74.5933L42.2994 86.4387Z" fill="white" stroke="#91A1B0" stroke-miterlimit="10" stroke-linecap="round" stroke-linejoin="round" stroke-dasharray="1.8 1.8"/>
<path d="M39.9101 86.89C38.0901 86.89 36.6101 85.41 36.6101 83.59V16.3C36.6101 14.48 38.0901 13 39.9101 13H91.0201C92.8401 13 94.3201 14.48 94.3201 16.3V83.59C94.3201 85.41 92.8401 86.89 91.0201 86.89H39.9101Z" fill="white" stroke="#91A1B0" stroke-miterlimit="10" stroke-linecap="round" stroke-linejoin="round" stroke-dasharray="2.4 2.4"/>
<path d="M54.0065 61.8109C60.4129 68.2173 70.8073 68.2173 77.2137 61.8109C83.6201 55.4045 83.6201 45.01 77.2137 38.6036C70.8073 32.1972 60.4129 32.1972 54.0065 38.6036C47.6001 45.01 47.6001 55.4045 54.0065 61.8109Z" fill="#EBEFF3" stroke="#91A1B0" stroke-width="1.2" stroke-linecap="round" stroke-linejoin="round"/>
<path d="M72.1933 50.2002L59.0269 50.2002" stroke="#91A1B0" stroke-width="1.2" stroke-linecap="round" stroke-linejoin="round"/>
<path d="M65.6101 56.7834L65.6101 43.6171" stroke="#91A1B0" stroke-width="1.2" stroke-linecap="round" stroke-linejoin="round"/>
<path d="M22.2102 15.04H28.2502" stroke="#91A1B0" stroke-width="1.2" stroke-linecap="round" stroke-linejoin="round"/>
<path d="M35.4102 0.949951V6.99995" stroke="#91A1B0" stroke-width="1.2" stroke-linecap="round" stroke-linejoin="round"/>
<path d="M24.77 5.28003L29.57 8.97003" stroke="#91A1B0" stroke-width="1.2" stroke-linecap="round" stroke-linejoin="round"/>
</g>
<defs>
<clipPath id="clip0_14403_242833">
<rect width="127.78" height="107.86" fill="white" transform="translate(0.610107)"/>
</clipPath>
</defs>
</svg>
