<svg width="150" height="150" viewBox="0 0 150 150" fill="none" xmlns="http://www.w3.org/2000/svg">
<path opacity="0.2" d="M75.84 118.061C101.56 118.061 122.4 97.3307 122.4 71.7707C122.4 46.2107 101.55 25.4707 75.84 25.4707C50.13 25.4707 29.27 46.2007 29.27 71.7607C29.27 97.3207 50.12 118.051 75.83 118.051L75.84 118.061Z" fill="#BEC6D2"/>
<path d="M41.22 39.5391H109.04C111.92 39.5391 114.26 41.8691 114.26 44.7591V99.5391C114.26 102.419 111.93 104.759 109.04 104.759H41.22C38.34 104.759 36 102.429 36 99.5391V44.7591C36 41.8791 38.33 39.5391 41.22 39.5391Z" fill="white" stroke="#91A1B0" stroke-width="1.1" stroke-miterlimit="10"/>
<path d="M114.25 53.1808H36V44.7308C36 41.8708 38.32 39.5508 41.18 39.5508H109.04C111.92 39.5508 114.25 41.8808 114.25 44.7608V53.1808Z" fill="#91A1B0" stroke="#91A1B0" stroke-width="0.79" stroke-linecap="round" stroke-linejoin="round"/>
<path d="M54.14 46.6602H45.1" stroke="white" stroke-width="1.1" stroke-miterlimit="10" stroke-linecap="round"/>
<path d="M24.21 42.9492H29.76" stroke="#91A1B0" stroke-width="1.1" stroke-linecap="round" stroke-linejoin="round"/>
<path d="M36.34 30.0098V35.5698" stroke="#91A1B0" stroke-width="1.1" stroke-linecap="round" stroke-linejoin="round"/>
<path d="M26.5601 33.9902L30.9701 37.3802" stroke="#91A1B0" stroke-width="1.1" stroke-linecap="round" stroke-linejoin="round"/>
<path d="M128.18 123.99H133.13M101.16 123.99H122.82M16.87 123.99H96.02" stroke="#91A1B0" stroke-width="1.1" stroke-linecap="round" stroke-linejoin="round"/>
<path d="M105.53 57.8301H44.71C43.4398 57.8301 42.41 58.8598 42.41 60.1301V76.2301C42.41 77.5003 43.4398 78.5301 44.71 78.5301H105.53C106.8 78.5301 107.83 77.5003 107.83 76.2301V60.1301C107.83 58.8598 106.8 57.8301 105.53 57.8301Z" fill="#F5F7F9"/>
<path d="M71.23 81.7207H44.71C43.4398 81.7207 42.41 82.7504 42.41 84.0207V97.8107C42.41 99.081 43.4398 100.111 44.71 100.111H71.23C72.5003 100.111 73.53 99.081 73.53 97.8107V84.0207C73.53 82.7504 72.5003 81.7207 71.23 81.7207Z" fill="#F5F7F9"/>
<path d="M105.54 81.7207H79.0201C77.7498 81.7207 76.7201 82.7504 76.7201 84.0207V97.8107C76.7201 99.081 77.7498 100.111 79.0201 100.111H105.54C106.81 100.111 107.84 99.081 107.84 97.8107V84.0207C107.84 82.7504 106.81 81.7207 105.54 81.7207Z" fill="#F5F7F9"/>
<path d="M114.25 112.4C122.57 112.4 129.32 105.65 129.32 97.3298C129.32 89.0098 122.57 82.2598 114.25 82.2598C105.93 82.2598 99.1801 89.0098 99.1801 97.3298C99.1801 105.65 105.93 112.4 114.25 112.4Z" fill="#EBEFF3" stroke="#91A1B0" stroke-width="1.1" stroke-linecap="round" stroke-linejoin="round"/>
<path d="M109.6 100.44L106.46 97.3002L109.6 94.1602" stroke="#91A1B0" stroke-width="1.1" stroke-linecap="round" stroke-linejoin="round"/>
<path d="M118.9 100.44L122.04 97.3002L118.9 94.1602" stroke="#91A1B0" stroke-width="1.1" stroke-linecap="round" stroke-linejoin="round"/>
<path d="M116.89 93.1309L112.09 101.531" stroke="#91A1B0" stroke-width="1.1" stroke-linecap="round" stroke-linejoin="round"/>
</svg>
