<svg xmlns="http://www.w3.org/2000/svg" width="146" height="142" fill="none" viewBox="0 0 146 142"><mask id="fs-1j2dsmpv6a" style="mask-type:alpha" width="142" height="142" x="4" y="0" maskUnits="userSpaceOnUse"><path fill="url(#paint0_linear_23523_165880)" d="M75.027 141.246c39.004 0 70.623-31.619 70.623-70.623C145.65 31.619 114.031 0 75.027 0 36.023 0 4.404 31.619 4.404 70.623c0 39.004 31.62 70.623 70.623 70.623z"/></mask><g mask="url(#fs-1j2dsmpv6a)"><path fill="url(#paint1_linear_23523_165880)" d="M74.134 140.421c38.999 0 70.614-31.434 70.614-70.21C144.748 31.433 113.133 0 74.134 0 35.134 0 3.52 31.434 3.52 70.21c0 38.777 31.615 70.211 70.614 70.211z"/><path fill="#fff" d="M98.011 37.742a4.424 4.424 0 00-4.423 4.424v173.931h178.355V37.742H98.011zM271.42 48.83h-10.651V38.18h10.651v10.65zm-88.435 66.698v-10.651h10.65v10.651h-10.65zm10.65.524v10.65h-10.65v-10.65h10.65zm-11.087-.524h-10.651v-10.651h10.651v10.651zm0 .524v10.65h-10.651v-10.65h10.651zm-11.174 10.65h-10.651v-10.65h10.651v10.65zm0 .437v10.651h-10.651v-10.651h10.651zm.523 0h10.651v10.651h-10.651v-10.651zm10.651 11.087v10.651h-10.651v-10.651h10.651zm.437 0h10.65v10.651h-10.65v-10.651zm0-.436v-10.651h10.65v10.651h-10.65zm11.087-10.651h10.65v10.651h-10.65v-10.651zm0-.437v-10.65h10.65v10.65h-10.65zm0-11.174v-10.651h10.65v10.651h-10.65zm0-11.087V93.79h10.65v10.65h-10.65zm-.437 0h-10.65V93.79h10.65v10.65zm-11.087 0h-10.651V93.79h10.651v10.65zm-11.174 0h-10.651V93.79h10.651v10.65zm0 .436v10.651h-10.651v-10.651h10.651zm-11.087 10.651h-10.651v-10.651h10.651v10.651zm0 .524v10.65h-10.651v-10.65h10.651zm0 11.087v10.651h-10.651v-10.651h10.651zm0 11.087v10.651h-10.651v-10.651h10.651zm.436 0h10.651v10.651h-10.651v-10.651zm10.651 11.175v10.65h-10.651V149.4h10.651zm.523 0h10.651v10.65h-10.651V149.4zm11.088 0h10.65v10.65h-10.65V149.4zm11.087 0h10.65v10.65h-10.65V149.4zm0-.524v-10.651h10.65v10.651h-10.65zm11.174-10.651h10.651v10.651h-10.651v-10.651zm0-.436v-10.651h10.651v10.651h-10.651zm0-11.088v-10.65h10.651v10.65h-10.651zm0-11.174v-10.651h10.651v10.651h-10.651zm0-11.087V93.79h10.651v10.65h-10.651zm0-11.087V82.702h10.651v10.65h-10.651zm-.524 0h-10.65V82.702h10.65v10.65zm-11.087 0h-10.65V82.702h10.65v10.65zm-11.087 0h-10.651V82.702h10.651v10.65zm-11.174 0h-10.651V82.702h10.651v10.65zm-11.087 0h-10.651V82.702h10.651v10.65zm0 .436v10.651h-10.651V93.79h10.651zm-11.088 10.651h-10.65V93.79h10.65v10.65zm0 .436v10.651h-10.65v-10.651h10.65zm0 11.175v10.65h-10.65v-10.65h10.65zm0 11.087v10.651h-10.65v-10.651h10.65zm0 11.087v10.651h-10.65v-10.651h10.65zm0 11.175v10.65h-10.65V149.4h10.65zm.437 0h10.651v10.65h-10.651V149.4zm10.651 11.087v10.65h-10.651v-10.65h10.651zm.436 0h10.651v10.65h-10.651v-10.65zm11.174 0h10.651v10.65h-10.651v-10.65zm11.088 0h10.65v10.65h-10.65v-10.65zm11.087 0h10.65v10.65h-10.65v-10.65zm11.174 0h10.651v10.65h-10.651v-10.65zm0-.437V149.4h10.651v10.65h-10.651zm11.087-10.65h10.651v10.65h-10.651V149.4zm0-.524v-10.651h10.651v10.651h-10.651zm0-11.087v-10.651h10.651v10.651h-10.651zm0-11.088v-10.65h10.651v10.65h-10.651zm0-11.174v-10.651h10.651v10.651h-10.651zm0-11.087V93.79h10.651v10.65h-10.651zm0-11.087V82.702h10.651v10.65h-10.651zm0-11.175v-10.65h10.651v10.65h-10.651zm-.436 0h-10.651v-10.65h10.651v10.65zm-11.175 0h-10.65v-10.65h10.65v10.65zm-11.087 0h-10.65v-10.65h10.65v10.65zm-11.087 0h-10.651v-10.65h10.651v10.65zm-11.174 0h-10.651v-10.65h10.651v10.65zm-11.087 0h-10.651v-10.65h10.651v10.65zm-11.088 0h-10.65v-10.65h10.65v10.65zm0 .524v10.65h-10.65v-10.65h10.65zm-11.174 10.65h-10.651v-10.65h10.651v10.65zm0 .437v10.651h-10.651V93.79h10.651zm0 11.087v10.651h-10.651v-10.651h10.651zm0 11.175v10.65h-10.651v-10.65h10.651zm0 11.087v10.651h-10.651v-10.651h10.651zm0 11.087v10.651h-10.651v-10.651h10.651zm0 11.175v10.65h-10.651V149.4h10.651zm0 11.087v10.65h-10.651v-10.65h10.651zm.524 0h10.65v10.65h-10.65v-10.65zm10.65 11.087v10.651h-10.65v-10.651h10.65zm.437 0h10.651v10.651h-10.651v-10.651zm11.087 0h10.651v10.651h-10.651v-10.651zm11.174 0h10.651v10.651h-10.651v-10.651zm11.088 0h10.65v10.651h-10.65v-10.651zm11.087 0h10.65v10.651h-10.65v-10.651zm11.174 0h10.651v10.651h-10.651v-10.651zm11.087 0h10.651v10.651h-10.651v-10.651zm0-.437v-10.65h10.651v10.65h-10.651zm11.088-10.65h10.65v10.65h-10.65v-10.65zm0-.437V149.4h10.65v10.65h-10.65zm0-11.174v-10.651h10.65v10.651h-10.65zm0-11.087v-10.651h10.65v10.651h-10.65zm0-11.088v-10.65h10.65v10.65h-10.65zm0-11.174v-10.651h10.65v10.651h-10.65zm0-11.087V93.79h10.65v10.65h-10.65zm0-11.087V82.702h10.65v10.65h-10.65zm0-11.175v-10.65h10.65v10.65h-10.65zm0-11.087v-10.65h10.65v10.65h-10.65zm-.437 0h-10.651v-10.65h10.651v10.65zm-11.087 0h-10.651v-10.65h10.651v10.65zm-11.175 0h-10.65v-10.65h10.65v10.65zm-11.087 0h-10.65v-10.65h10.65v10.65zm-11.087 0h-10.651v-10.65h10.651v10.65zm-11.174 0h-10.651v-10.65h10.651v10.65zm-11.087 0h-10.651v-10.65h10.651v10.65zm-11.088 0h-10.65v-10.65h10.65v10.65zm-11.174 0h-10.651v-10.65h10.651v10.65zm0 .437v10.65h-10.651v-10.65h10.651zm-11.087 10.65h-10.651v-10.65h10.651v10.65zm0 .524v10.65h-10.651v-10.65h10.651zm0 11.087v10.651h-10.651V93.79h10.651zm0 11.087v10.651h-10.651v-10.651h10.651zm0 11.175v10.65h-10.651v-10.65h10.651zm0 11.087v10.651h-10.651v-10.651h10.651zm0 11.087v10.651h-10.651v-10.651h10.651zm0 11.175v10.65h-10.651V149.4h10.651zm0 11.087v10.65h-10.651v-10.65h10.651zm0 11.087v10.651h-10.651v-10.651h10.651zm.436 0h10.651v10.651h-10.651v-10.651zm10.651 11.174v10.651h-10.651v-10.651h10.651zm.524 0h10.65v10.651h-10.65v-10.651zm11.087 0h10.651v10.651h-10.651v-10.651zm11.087 0h10.651v10.651h-10.651v-10.651zm11.174 0h10.651v10.651h-10.651v-10.651zm11.088 0h10.65v10.651h-10.65v-10.651zm11.087 0h10.65v10.651h-10.65v-10.651zm11.174 0h10.651v10.651h-10.651v-10.651zm11.087 0h10.651v10.651h-10.651v-10.651zm11.088 0h10.65v10.651h-10.65v-10.651zm0-.523v-10.651h10.65v10.651h-10.65zm11.174-10.651h10.651v10.651h-10.651v-10.651zm0-.437v-10.65h10.651v10.65h-10.651zm0-11.087V149.4h10.651v10.65h-10.651zm0-11.174v-10.651h10.651v10.651h-10.651zm0-11.087v-10.651h10.651v10.651h-10.651zm0-11.088v-10.65h10.651v10.65h-10.651zm0-11.174v-10.651h10.651v10.651h-10.651zm0-11.087V93.79h10.651v10.65h-10.651zm0-11.087V82.702h10.651v10.65h-10.651zm0-11.175v-10.65h10.651v10.65h-10.651zm0-11.087v-10.65h10.651v10.65h-10.651zm0-11.087v-10.65h10.651v10.65h-10.651zm-.524 0h-10.65v-10.65h10.65v10.65zm-11.087 0h-10.651v-10.65h10.651v10.65zm-11.087 0h-10.651v-10.65h10.651v10.65zm-11.175 0h-10.65v-10.65h10.65v10.65zm-11.087 0h-10.65v-10.65h10.65v10.65zm-11.087 0h-10.651v-10.65h10.651v10.65zm-11.174 0h-10.651v-10.65h10.651v10.65zm-11.087 0h-10.651v-10.65h10.651v10.65zm-11.088 0h-10.65v-10.65h10.65v10.65zm-11.174 0h-10.651v-10.65h10.651v10.65zm-11.087 0h-10.651v-10.65h10.651v10.65zm0 .436v10.651h-10.651v-10.65h10.651zM115.85 71.091h-10.651v-10.65h10.651v10.65zm0 .437v10.65h-10.651v-10.65h10.651zm0 11.174v10.65h-10.651v-10.65h10.651zm0 11.087v10.651h-10.651V93.79h10.651zm0 11.087v10.651h-10.651v-10.651h10.651zm0 11.175v10.65h-10.651v-10.65h10.651zm0 11.087v10.651h-10.651v-10.651h10.651zm0 11.087v10.651h-10.651v-10.651h10.651zm0 11.175v10.65h-10.651V149.4h10.651zm0 11.087v10.65h-10.651v-10.65h10.651zm0 11.087v10.651h-10.651v-10.651h10.651zm0 11.174v10.651h-10.651v-10.651h10.651zm.436 0h10.651v10.651h-10.651v-10.651zm10.651 11.088v10.65h-10.651v-10.65h10.651zm.436 0h10.651v10.65h-10.651v-10.65zm11.175 0h10.65v10.65h-10.65v-10.65zm11.087 0h10.651v10.65h-10.651v-10.65zm11.087 0h10.651v10.65h-10.651v-10.65zm11.174 0h10.651v10.65h-10.651v-10.65zm11.088 0h10.65v10.65h-10.65v-10.65zm11.087 0h10.65v10.65h-10.65v-10.65zm11.174 0h10.651v10.65h-10.651v-10.65zm11.087 0h10.651v10.65h-10.651v-10.65zm11.088 0h10.65v10.65h-10.65v-10.65zm11.174 0h10.651v10.65h-10.651v-10.65zm0-.437v-10.651h10.651v10.651h-10.651zm11.087-10.651h10.651v10.651h-10.651v-10.651zm0-.523v-10.651h10.651v10.651h-10.651zm0-11.088v-10.65h10.651v10.65h-10.651zm0-11.087V149.4h10.651v10.65h-10.651zm0-11.174v-10.651h10.651v10.651h-10.651zm0-11.087v-10.651h10.651v10.651h-10.651zm0-11.088v-10.65h10.651v10.65h-10.651zm0-11.174v-10.651h10.651v10.651h-10.651zm0-11.087V93.79h10.651v10.65h-10.651zm0-11.087V82.702h10.651v10.65h-10.651zm0-11.175v-10.65h10.651v10.65h-10.651zm0-11.087v-10.65h10.651v10.65h-10.651zm0-11.087v-10.65h10.651v10.65h-10.651zm0-11.175V38.18h10.651v10.65h-10.651zm-.436 0h-10.651V38.18h10.651v10.65zm-11.175 0h-10.65V38.18h10.65v10.65zm-11.087 0h-10.651V38.18h10.651v10.65zm-11.087 0h-10.651V38.18h10.651v10.65zm-11.175 0h-10.65V38.18h10.65v10.65zm-11.087 0h-10.65V38.18h10.65v10.65zm-11.087 0h-10.651V38.18h10.651v10.65zm-11.174 0h-10.651V38.18h10.651v10.65zm-11.087 0h-10.651V38.18h10.651v10.65zm-11.088 0h-10.65V38.18h10.65v10.65zm-11.174 0h-10.651V38.18h10.651v10.65zm-11.087 0h-10.651V38.18h10.651v10.65zm-11.087 0h-10.651V38.18h10.651v10.65zm0 .524v10.65h-10.651v-10.65h10.651zm-11.175 10.65h-10.65v-10.65h10.65v10.65zm0 .437v10.651h-10.65v-10.65h10.65zm0 11.088v10.65h-10.65v-10.65h10.65zm0 11.174v10.65h-10.65v-10.65h10.65zm0 11.087v10.651h-10.65V93.79h10.65zm0 11.087v10.651h-10.65v-10.651h10.65zm0 11.175v10.65h-10.65v-10.65h10.65zm0 11.087v10.651h-10.65v-10.651h10.65zm0 11.087v10.651h-10.65v-10.651h10.65zm0 11.175v10.65h-10.65V149.4h10.65zm0 11.087v10.65h-10.65v-10.65h10.65zm0 11.087v10.651h-10.65v-10.651h10.65zm0 11.174v10.651h-10.65v-10.651h10.65zm0 11.088v10.65h-10.65v-10.65h10.65zm.524 0h10.651v10.65h-10.651v-10.65zm10.651 11.087v10.65h-10.651v-10.65h10.651zm.436 0h10.651v10.65h-10.651v-10.65zm11.087 0h10.651v10.65h-10.651v-10.65zm11.175 0h10.65v10.65h-10.65v-10.65zm11.087 0h10.651v10.65h-10.651v-10.65zm11.087 0h10.651v10.65h-10.651v-10.65zm11.174 0h10.651v10.65h-10.651v-10.65zm11.088 0h10.65v10.65h-10.65v-10.65zm11.087 0h10.65v10.65h-10.65v-10.65zm11.174 0h10.651v10.65h-10.651v-10.65zm11.087 0h10.651v10.65h-10.651v-10.65zm11.088 0h10.65v10.65h-10.65v-10.65zm11.174 0h10.651v10.65h-10.651v-10.65zm11.087 0h10.651v10.65h-10.651v-10.65zm0-.437v-10.65h10.651v10.65h-10.651zm11.087-10.65h10.651v10.65h-10.651v-10.65zm0-.437v-10.651h10.651v10.651h-10.651zm0-11.174v-10.651h10.651v10.651h-10.651zm0-11.088v-10.65h10.651v10.65h-10.651zm0-11.087V149.4h10.651v10.65h-10.651zm0-11.174v-10.651h10.651v10.651h-10.651zm0-11.087v-10.651h10.651v10.651h-10.651zm0-11.088v-10.65h10.651v10.65h-10.651zm0-11.174v-10.651h10.651v10.651h-10.651zm0-11.087V93.79h10.651v10.65h-10.651zm0-11.087V82.702h10.651v10.65h-10.651zm0-11.175v-10.65h10.651v10.65h-10.651zm0-11.087v-10.65h10.651v10.65h-10.651zm0-11.087v-10.65h10.651v10.65h-10.651zM104.675 38.179v10.65h-10.65v-6.227a4.424 4.424 0 014.423-4.423h6.227zm-10.65 166.744h10.65v10.65h-10.65v-10.65zm166.743 10.65v-10.65h10.651v10.65h-10.651z"/></g><path fill="url(#paint2_radial_23523_165880)" d="M14.169 111.698a9.017 9.017 0 100-18.033 9.017 9.017 0 000 18.033z"/><path fill="url(#paint3_radial_23523_165880)" d="M8.953 102.242c-1.634-1.005-2.042-3.299-.91-5.09 1.099-1.79 3.33-2.45 4.963-1.445 1.634 1.006 2.042 3.3.911 5.09-1.131 1.822-3.362 2.451-4.964 1.445z" opacity=".5"/><path fill="url(#paint4_radial_23523_165880)" d="M133.115 41.872a6.883 6.883 0 10-.001-13.766 6.883 6.883 0 00.001 13.766z"/><path fill="url(#paint5_radial_23523_165880)" d="M129.133 34.654c-1.247-.767-1.559-2.518-.695-3.885.839-1.366 2.541-1.87 3.788-1.103 1.247.768 1.559 2.518.696 3.885-.864 1.39-2.566 1.87-3.789 1.103z" opacity=".5"/><g filter="url(#filter0_f_23523_165880)"><ellipse cx="69.671" cy="121.94" fill="#000" fill-opacity=".37" rx="67.671" ry=".359"/></g><g filter="url(#filter1_dii_23523_165880)"><path fill="#4596FF" d="M47.535 36.777a2.47 2.47 0 012.47-2.47h52.378a2.47 2.47 0 012.47 2.47v74.908a2.47 2.47 0 01-2.47 2.47H50.005a2.47 2.47 0 01-2.47-2.47V36.777z"/></g><g filter="url(#filter2_dii_23523_165880)"><path fill="url(#paint6_linear_23523_165880)" d="M74.2 38.365c0-.862.698-1.56 1.56-1.56h25.535c.861 0 1.56.698 1.56 1.56v71.88a1.56 1.56 0 01-1.56 1.56H75.759a1.56 1.56 0 01-1.56-1.56v-71.88z"/></g><g filter="url(#filter3_iii_23523_165880)"><path fill="#4392F4" d="M41.535 36.777a2.47 2.47 0 012.47-2.47h52.378a2.47 2.47 0 012.47 2.47v74.908a2.47 2.47 0 01-2.47 2.47H44.005a2.47 2.47 0 01-2.47-2.47V36.777z"/></g><g filter="url(#filter4_d_23523_165880)"><g clip-path="url(#clip0_23523_165880)"><path fill="url(#paint7_radial_23523_165880)" d="M79.434 61.94c0-4.493-3.677-8.17-8.17-8.17-4.494 0-8.17 3.677-8.17 8.17 0 3.24 1.867 5.987 4.6 7.325.865.424 1.527 1.243 1.527 2.207h4.085c0-.964.662-1.783 1.528-2.207 2.733-1.338 4.6-4.085 4.6-7.324z"/><path stroke="#fff" stroke-linecap="round" stroke-linejoin="round" stroke-miterlimit="10" stroke-width="1.475" d="M71.766 76.371H70.29M73.24 73.422h-4.424M71.027 46.403v2.95M85.773 61.15h-2.949M56.281 61.15h2.95M59.525 49.648l3.097 3.096M82.53 49.648l-3.096 3.096"/></g></g><g filter="url(#filter5_dii_23523_165880)"><rect width="32.618" height="2.896" x="54.945" y="88.606" fill="#F3F3F3" rx="1.448"/></g><g filter="url(#filter6_dii_23523_165880)"><rect width="28.62" height="2.896" x="56.943" y="95.769" fill="#F3F3F3" rx="1.448"/></g><g filter="url(#filter7_i_23523_165880)"><path fill="url(#paint8_linear_23523_165880)" d="M119.223 100.988c-.049-.013-.101-.022-.138-.057-.763-.729 1.494-10.653 1.708-11.394 1.091-3.768 2.898-7.434 5.804-10.123 2.056-1.904 7.551-5.628 10.402-3.439 2.403 1.848.152 6.487-.956 8.427-1.986 3.45-4.912 6.244-7.411 9.303-1.491 1.83-2.989 3.695-4.48 5.525-.096.125-.852 1.197-1.416 1.894-.362.448-.887.53-1.445.388l-2.068-.524z"/></g><g filter="url(#filter8_i_23523_165880)"><path fill="url(#paint9_linear_23523_165880)" d="M122.486 104.004c1.219.263 2.305-.774 2.051-1.995-1.401-6.718-6.042-24.235-15.871-21.043-8.934 2.932 10.265 20.208 13.046 22.655.224.196.483.321.774.383z"/></g><path fill="#77FFE4" fill-opacity=".2" d="M111.342 84.46s11.495 15.004 11.627 18.178L111.342 84.46zM133.601 78.935s-9.446 12.05-10.473 17.399l10.473-17.399z"/><path fill="url(#paint10_linear_23523_165880)" d="M110.797 101.043a2.35 2.35 0 012.339-2.575h15.931a2.35 2.35 0 012.339 2.575l-1.775 18.414a2.35 2.35 0 01-2.339 2.125h-12.38a2.351 2.351 0 01-2.34-2.125l-1.775-18.414z"/><g filter="url(#filter9_i_23523_165880)"><rect width="22.63" height="5.571" x="109.787" y="98.468" fill="url(#paint11_linear_23523_165880)" rx="1.175"/></g><defs><filter id="filter0_f_23523_165880" width="138.211" height="3.586" x=".565" y="120.146" color-interpolation-filters="sRGB" filterUnits="userSpaceOnUse"><feFlood flood-opacity="0" result="BackgroundImageFix"/><feBlend in="SourceGraphic" in2="BackgroundImageFix" result="shape"/><feGaussianBlur result="effect1_foregroundBlur_23523_165880" stdDeviation=".717"/></filter><filter id="filter1_dii_23523_165880" width="57.798" height="80.529" x="47.258" y="33.949" color-interpolation-filters="sRGB" filterUnits="userSpaceOnUse"><feFlood flood-opacity="0" result="BackgroundImageFix"/><feColorMatrix in="SourceAlpha" result="hardAlpha" values="0 0 0 0 0 0 0 0 0 0 0 0 0 0 0 0 0 0 127 0"/><feOffset dy=".121"/><feGaussianBlur stdDeviation=".101"/><feColorMatrix values="0 0 0 0 0 0 0 0 0 0 0 0 0 0 0 0 0 0 0.25 0"/><feBlend in2="BackgroundImageFix" result="effect1_dropShadow_23523_165880"/><feBlend in="SourceGraphic" in2="effect1_dropShadow_23523_165880" result="shape"/><feColorMatrix in="SourceAlpha" result="hardAlpha" values="0 0 0 0 0 0 0 0 0 0 0 0 0 0 0 0 0 0 127 0"/><feOffset dx="-.277" dy="-.358"/><feGaussianBlur stdDeviation=".179"/><feComposite in2="hardAlpha" k2="-1" k3="1" operator="arithmetic"/><feColorMatrix values="0 0 0 0 0.172549 0 0 0 0 0.360784 0 0 0 0 0.772549 0 0 0 1 0"/><feBlend in2="shape" result="effect2_innerShadow_23523_165880"/><feColorMatrix in="SourceAlpha" result="hardAlpha" values="0 0 0 0 0 0 0 0 0 0 0 0 0 0 0 0 0 0 127 0"/><feOffset dy=".5"/><feComposite in2="hardAlpha" k2="-1" k3="1" operator="arithmetic"/><feColorMatrix values="0 0 0 0 0.470833 0 0 0 0 0.700058 0 0 0 0 1 0 0 0 1 0"/><feBlend in2="effect2_innerShadow_23523_165880" result="effect3_innerShadow_23523_165880"/></filter><filter id="filter2_dii_23523_165880" width="28.972" height="75.597" x="74.041" y="36.761" color-interpolation-filters="sRGB" filterUnits="userSpaceOnUse"><feFlood flood-opacity="0" result="BackgroundImageFix"/><feColorMatrix in="SourceAlpha" result="hardAlpha" values="0 0 0 0 0 0 0 0 0 0 0 0 0 0 0 0 0 0 127 0"/><feOffset dy=".395"/><feGaussianBlur stdDeviation=".079"/><feColorMatrix values="0 0 0 0 0 0 0 0 0 0 0 0 0 0 0 0 0 0 0.25 0"/><feBlend in2="BackgroundImageFix" result="effect1_dropShadow_23523_165880"/><feBlend in="SourceGraphic" in2="effect1_dropShadow_23523_165880" result="shape"/><feColorMatrix in="SourceAlpha" result="hardAlpha" values="0 0 0 0 0 0 0 0 0 0 0 0 0 0 0 0 0 0 127 0"/><feOffset dy=".474"/><feComposite in2="hardAlpha" k2="-1" k3="1" operator="arithmetic"/><feColorMatrix values="0 0 0 0 1 0 0 0 0 1 0 0 0 0 1 0 0 0 1 0"/><feBlend in2="shape" result="effect2_innerShadow_23523_165880"/><feColorMatrix in="SourceAlpha" result="hardAlpha" values="0 0 0 0 0 0 0 0 0 0 0 0 0 0 0 0 0 0 127 0"/><feOffset dx="-.022" dy="-.395"/><feGaussianBlur stdDeviation=".022"/><feComposite in2="hardAlpha" k2="-1" k3="1" operator="arithmetic"/><feColorMatrix values="0 0 0 0 0.833333 0 0 0 0 0.833333 0 0 0 0 0.833333 0 0 0 1 0"/><feBlend in2="effect2_innerShadow_23523_165880" result="effect3_innerShadow_23523_165880"/></filter><filter id="filter3_iii_23523_165880" width="58.091" height="81.161" x="40.763" y="33.843" color-interpolation-filters="sRGB" filterUnits="userSpaceOnUse"><feFlood flood-opacity="0" result="BackgroundImageFix"/><feBlend in="SourceGraphic" in2="BackgroundImageFix" result="shape"/><feColorMatrix in="SourceAlpha" result="hardAlpha" values="0 0 0 0 0 0 0 0 0 0 0 0 0 0 0 0 0 0 127 0"/><feOffset dy="-.464"/><feGaussianBlur stdDeviation=".464"/><feComposite in2="hardAlpha" k2="-1" k3="1" operator="arithmetic"/><feColorMatrix values="0 0 0 0 0.089132 0 0 0 0 0.328429 0 0 0 0 0.629167 0 0 0 1 0"/><feBlend in2="shape" result="effect1_innerShadow_23523_165880"/><feColorMatrix in="SourceAlpha" result="hardAlpha" values="0 0 0 0 0 0 0 0 0 0 0 0 0 0 0 0 0 0 127 0"/><feOffset dy=".85"/><feGaussianBlur stdDeviation=".425"/><feComposite in2="hardAlpha" k2="-1" k3="1" operator="arithmetic"/><feColorMatrix values="0 0 0 0 0.641667 0 0 0 0 0.8495 0 0 0 0 1 0 0 0 1 0"/><feBlend in2="effect1_innerShadow_23523_165880" result="effect2_innerShadow_23523_165880"/><feColorMatrix in="SourceAlpha" result="hardAlpha" values="0 0 0 0 0 0 0 0 0 0 0 0 0 0 0 0 0 0 127 0"/><feOffset dx="-.773"/><feGaussianBlur stdDeviation=".386"/><feComposite in2="hardAlpha" k2="-1" k3="1" operator="arithmetic"/><feColorMatrix values="0 0 0 0 0 0 0 0 0 0 0 0 0 0 0 0 0 0 0.25 0"/><feBlend in2="effect2_innerShadow_23523_165880" result="effect3_innerShadow_23523_165880"/></filter><filter id="filter4_d_23523_165880" width="31.306" height="33.035" x="55.373" y="45.666" color-interpolation-filters="sRGB" filterUnits="userSpaceOnUse"><feFlood flood-opacity="0" result="BackgroundImageFix"/><feColorMatrix in="SourceAlpha" result="hardAlpha" values="0 0 0 0 0 0 0 0 0 0 0 0 0 0 0 0 0 0 127 0"/><feOffset dy=".424"/><feGaussianBlur stdDeviation=".085"/><feColorMatrix values="0 0 0 0 0 0 0 0 0 0 0 0 0 0 0 0 0 0 0.25 0"/><feBlend in2="BackgroundImageFix" result="effect1_dropShadow_23523_165880"/><feBlend in="SourceGraphic" in2="effect1_dropShadow_23523_165880" result="shape"/></filter><filter id="filter5_dii_23523_165880" width="32.933" height="3.492" x="54.787" y="88.563" color-interpolation-filters="sRGB" filterUnits="userSpaceOnUse"><feFlood flood-opacity="0" result="BackgroundImageFix"/><feColorMatrix in="SourceAlpha" result="hardAlpha" values="0 0 0 0 0 0 0 0 0 0 0 0 0 0 0 0 0 0 127 0"/><feOffset dy=".395"/><feGaussianBlur stdDeviation=".079"/><feColorMatrix values="0 0 0 0 0 0 0 0 0 0 0 0 0 0 0 0 0 0 0.25 0"/><feBlend in2="BackgroundImageFix" result="effect1_dropShadow_23523_165880"/><feBlend in="SourceGraphic" in2="effect1_dropShadow_23523_165880" result="shape"/><feColorMatrix in="SourceAlpha" result="hardAlpha" values="0 0 0 0 0 0 0 0 0 0 0 0 0 0 0 0 0 0 127 0"/><feOffset dy=".474"/><feComposite in2="hardAlpha" k2="-1" k3="1" operator="arithmetic"/><feColorMatrix values="0 0 0 0 1 0 0 0 0 1 0 0 0 0 1 0 0 0 1 0"/><feBlend in2="shape" result="effect2_innerShadow_23523_165880"/><feColorMatrix in="SourceAlpha" result="hardAlpha" values="0 0 0 0 0 0 0 0 0 0 0 0 0 0 0 0 0 0 127 0"/><feOffset dx="-.022" dy="-.395"/><feGaussianBlur stdDeviation=".022"/><feComposite in2="hardAlpha" k2="-1" k3="1" operator="arithmetic"/><feColorMatrix values="0 0 0 0 0.833333 0 0 0 0 0.833333 0 0 0 0 0.833333 0 0 0 1 0"/><feBlend in2="effect2_innerShadow_23523_165880" result="effect3_innerShadow_23523_165880"/></filter><filter id="filter6_dii_23523_165880" width="28.935" height="3.492" x="56.785" y="95.726" color-interpolation-filters="sRGB" filterUnits="userSpaceOnUse"><feFlood flood-opacity="0" result="BackgroundImageFix"/><feColorMatrix in="SourceAlpha" result="hardAlpha" values="0 0 0 0 0 0 0 0 0 0 0 0 0 0 0 0 0 0 127 0"/><feOffset dy=".395"/><feGaussianBlur stdDeviation=".079"/><feColorMatrix values="0 0 0 0 0 0 0 0 0 0 0 0 0 0 0 0 0 0 0.25 0"/><feBlend in2="BackgroundImageFix" result="effect1_dropShadow_23523_165880"/><feBlend in="SourceGraphic" in2="effect1_dropShadow_23523_165880" result="shape"/><feColorMatrix in="SourceAlpha" result="hardAlpha" values="0 0 0 0 0 0 0 0 0 0 0 0 0 0 0 0 0 0 127 0"/><feOffset dy=".474"/><feComposite in2="hardAlpha" k2="-1" k3="1" operator="arithmetic"/><feColorMatrix values="0 0 0 0 1 0 0 0 0 1 0 0 0 0 1 0 0 0 1 0"/><feBlend in2="shape" result="effect2_innerShadow_23523_165880"/><feColorMatrix in="SourceAlpha" result="hardAlpha" values="0 0 0 0 0 0 0 0 0 0 0 0 0 0 0 0 0 0 127 0"/><feOffset dx="-.022" dy="-.395"/><feGaussianBlur stdDeviation=".022"/><feComposite in2="hardAlpha" k2="-1" k3="1" operator="arithmetic"/><feColorMatrix values="0 0 0 0 0.833333 0 0 0 0 0.833333 0 0 0 0 0.833333 0 0 0 1 0"/><feBlend in2="effect2_innerShadow_23523_165880" result="effect3_innerShadow_23523_165880"/></filter><filter id="filter7_i_23523_165880" width="20.265" height="26.699" x="118.928" y="74.876" color-interpolation-filters="sRGB" filterUnits="userSpaceOnUse"><feFlood flood-opacity="0" result="BackgroundImageFix"/><feBlend in="SourceGraphic" in2="BackgroundImageFix" result="shape"/><feColorMatrix in="SourceAlpha" result="hardAlpha" values="0 0 0 0 0 0 0 0 0 0 0 0 0 0 0 0 0 0 127 0"/><feOffset dx="1.127" dy="-.431"/><feGaussianBlur stdDeviation="1.469"/><feComposite in2="hardAlpha" k2="-1" k3="1" operator="arithmetic"/><feColorMatrix values="0 0 0 0 0.113056 0 0 0 0 0.616667 0 0 0 0 0.58645 0 0 0 1 0"/><feBlend in2="shape" result="effect1_innerShadow_23523_165880"/></filter><filter id="filter8_i_23523_165880" width="19.387" height="23.895" x="106.314" y="80.15" color-interpolation-filters="sRGB" filterUnits="userSpaceOnUse"><feFlood flood-opacity="0" result="BackgroundImageFix"/><feBlend in="SourceGraphic" in2="BackgroundImageFix" result="shape"/><feColorMatrix in="SourceAlpha" result="hardAlpha" values="0 0 0 0 0 0 0 0 0 0 0 0 0 0 0 0 0 0 127 0"/><feOffset dx="1.127" dy="-.431"/><feGaussianBlur stdDeviation="1.469"/><feComposite in2="hardAlpha" k2="-1" k3="1" operator="arithmetic"/><feColorMatrix values="0 0 0 0 0.0996528 0 0 0 0 0.683333 0 0 0 0 0.555806 0 0 0 1 0"/><feBlend in2="shape" result="effect1_innerShadow_23523_165880"/></filter><filter id="filter9_i_23523_165880" width="23.101" height="5.924" x="109.787" y="98.115" color-interpolation-filters="sRGB" filterUnits="userSpaceOnUse"><feFlood flood-opacity="0" result="BackgroundImageFix"/><feBlend in="SourceGraphic" in2="BackgroundImageFix" result="shape"/><feColorMatrix in="SourceAlpha" result="hardAlpha" values="0 0 0 0 0 0 0 0 0 0 0 0 0 0 0 0 0 0 127 0"/><feOffset dx=".47" dy="-.353"/><feGaussianBlur stdDeviation=".411"/><feComposite in2="hardAlpha" k2="-1" k3="1" operator="arithmetic"/><feColorMatrix values="0 0 0 0 0.833333 0 0 0 0 0.604343 0 0 0 0 0.0555555 0 0 0 1 0"/><feBlend in2="shape" result="effect1_innerShadow_23523_165880"/></filter><linearGradient id="paint0_linear_23523_165880" x1="75.027" x2="75.027" y1="0" y2="141.246" gradientUnits="userSpaceOnUse"><stop stop-color="#B5EFFF"/><stop offset="1" stop-color="#E7F8FE"/></linearGradient><linearGradient id="paint1_linear_23523_165880" x1="74.134" x2="74.134" y1="0" y2="140.421" gradientUnits="userSpaceOnUse"><stop stop-color="#B5EFFF"/><stop offset="1" stop-color="#EDFBFF"/></linearGradient><linearGradient id="paint6_linear_23523_165880" x1="102.855" x2="91.301" y1="68.336" y2="68.336" gradientUnits="userSpaceOnUse"><stop stop-color="#F3F3F3"/><stop offset="1" stop-color="#F3F3F3" stop-opacity="0"/></linearGradient><linearGradient id="paint8_linear_23523_165880" x1="140.84" x2="119.526" y1="75.718" y2="94.859" gradientUnits="userSpaceOnUse"><stop stop-color="#BAFFF1" stop-opacity=".26"/><stop offset=".682" stop-color="#4DC7AE"/><stop offset=".969" stop-color="#06896F"/></linearGradient><linearGradient id="paint9_linear_23523_165880" x1="131.358" x2="118.396" y1="83.145" y2="104.975" gradientUnits="userSpaceOnUse"><stop stop-color="#B7FDEF"/><stop offset=".682" stop-color="#09B794"/><stop offset=".969" stop-color="#7EE0CC"/></linearGradient><linearGradient id="paint10_linear_23523_165880" x1="131.655" x2="112.055" y1="113.684" y2="113.684" gradientUnits="userSpaceOnUse"><stop offset=".099" stop-color="#FFEEC5"/><stop offset=".607" stop-color="#FACD63"/><stop offset=".839" stop-color="#EAAF23"/><stop offset=".984" stop-color="#EDB52F"/></linearGradient><linearGradient id="paint11_linear_23523_165880" x1="132.417" x2="111.402" y1="102.135" y2="102.135" gradientUnits="userSpaceOnUse"><stop offset=".099" stop-color="#FFEEC5"/><stop offset=".607" stop-color="#FCBD27"/><stop offset=".984" stop-color="#EFB222"/></linearGradient><radialGradient id="paint2_radial_23523_165880" cx="0" cy="0" r="1" gradientTransform="rotate(-15.177 376.642 12.44) scale(17.1946)" gradientUnits="userSpaceOnUse"><stop stop-color="#FFF1CF"/><stop offset=".188" stop-color="#FFE4A2"/><stop offset=".318" stop-color="#FFD364"/><stop offset=".49" stop-color="#FFD364"/><stop offset=".651" stop-color="#FFC73A"/><stop offset=".948" stop-color="#D09500"/></radialGradient><radialGradient id="paint3_radial_23523_165880" cx="0" cy="0" r="1" gradientTransform="rotate(121.889 -22.023 52.544) scale(3.76573 3.42946)" gradientUnits="userSpaceOnUse"><stop stop-color="#fff"/><stop offset=".694" stop-color="#fff" stop-opacity="0"/></radialGradient><radialGradient id="paint4_radial_23523_165880" cx="0" cy="0" r="1" gradientTransform="rotate(-15.177 185.807 -471.19) scale(13.1241)" gradientUnits="userSpaceOnUse"><stop stop-color="#E6C6FF"/><stop offset=".188" stop-color="#C07DF5"/><stop offset=".318" stop-color="#BE6FFC"/><stop offset=".49" stop-color="#B56AF0"/><stop offset=".651" stop-color="#A745F4"/><stop offset=".948" stop-color="#9F3DED"/></radialGradient><radialGradient id="paint5_radial_23523_165880" cx="0" cy="0" r="1" gradientTransform="rotate(121.889 56.392 52.386) scale(2.87426 2.6176)" gradientUnits="userSpaceOnUse"><stop stop-color="#fff"/><stop offset=".694" stop-color="#fff" stop-opacity="0"/></radialGradient><radialGradient id="paint7_radial_23523_165880" cx="0" cy="0" r="1" gradientTransform="rotate(80.442 0 70.035) scale(13.2509 12.2316)" gradientUnits="userSpaceOnUse"><stop stop-color="#FFE6A6"/><stop offset="1" stop-color="#FFD25F"/></radialGradient><clipPath id="clip0_23523_165880"><rect width="30.968" height="32.442" x="55.543" y="45.666" fill="#fff" rx="5.963"/></clipPath></defs></svg>