<svg xmlns="http://www.w3.org/2000/svg" xmlns:xlink="http://www.w3.org/1999/xlink" data-name="Layer 1" viewBox="0 0 281.43 259.44"><defs><linearGradient id="fs-jj5i8l1ryc" x1="46.21" x2="283.52" y1="132.74" y2="132.74" gradientUnits="userSpaceOnUse"><stop offset=".16" stop-color="#c9ced1"/><stop offset="1" stop-color="#fff" stop-opacity="0"/></linearGradient><linearGradient id="fs-trr7jjlzcb" x1="-2768.44" x2="-2768.98" y1="496.47" y2="496.47" gradientTransform="matrix(149.42 0 0 -66 413851.26 32904)" gradientUnits="userSpaceOnUse"><stop offset="0" stop-color="#ebeef0" stop-opacity="0"/><stop offset="1" stop-color="#fff"/></linearGradient><linearGradient id="fs-908reph9oa" x1="96.78" x2="187.08" y1="116.49" y2="116.49" gradientUnits="userSpaceOnUse"><stop offset=".19" stop-color="#ebeef0"/><stop offset="1" stop-color="#fff" stop-opacity="0"/></linearGradient><linearGradient id="fs-okl20lfk3d" x1="96.78" x2="153.68" y1="131.69" y2="131.69" xlink:href="#fs-908reph9oa"/><linearGradient id="fs-hhzzr9qahe" x1="-2764.96" x2="-2765.51" y1="493.07" y2="493.07" gradientTransform="matrix(126.05 0 0 -56 348717.55 27668)" xlink:href="#fs-trr7jjlzcb"/><linearGradient id="fs-j1v00cgpwf" x1="114.88" x2="190.98" y1="38.59" y2="38.59" xlink:href="#fs-908reph9oa"/><linearGradient id="fs-tn452c6c4g" x1="114.88" x2="162.78" y1="51.49" y2="51.49" xlink:href="#fs-908reph9oa"/><linearGradient id="fs-3buyurrdch" x1="-2764.96" x2="-2765.51" y1="493.07" y2="493.07" gradientTransform="matrix(126.05 0 0 -56 348717.55 27828)" xlink:href="#fs-trr7jjlzcb"/><linearGradient id="fs-0ej4ea2nyi" x1="114.88" x2="190.98" y1="198.59" y2="198.59" xlink:href="#fs-908reph9oa"/><linearGradient id="fs-saki8siqnj" x1="114.88" x2="162.78" y1="211.49" y2="211.49" xlink:href="#fs-908reph9oa"/></defs><path fill="url(#fs-jj5i8l1ryc)" d="M202.26 209.8c-24.57 8.57-43.77 7.63-62.84-11.73-8.05-8.17-13-13.59-11.61-26 1.1-9.56 5.69-20.78 14.08-25.79 15.59-9.31 42.08-9 54.49 5.6 9.15 10.73 6.81 24.46 1.1 36.18-6.93 14.19-17.09 18.94-31.71 15.44-19-4.53-37.89-22.38-29.36-44.93 2-5.27 16.64-23.77 22.17-25.15 9.11-2.29 25.34 8.2 26.1 17.81.29 3.63-1.81 7.49-1.68 11.19l-1.32 7.39q10.74 10 4.15 2.07c0 1.15-6-22.35-3.37-20l-6.29-.33q-9.36-3.76-6.74 6.48c-2.88 3.2-5.72 7.36-9.56 9.63l1.45 4.58a15 15 0 01-3.05-9.52c0-2.43 2.55-14.12 7.24-11.12 4 2.55-9 22 8.31 15.43 3.36-1.28 7-20.69 9.29-23.77 5.12-7 16.08-9.28 19.68-.68 2.55 6.09 1.82 26.36.08 32-3.76 12.16-18.37 22-30.78 21.83-21.46-.32-40.66-11.81-47.46-33.27-6.46-20.4-10.68-48.09 5.58-64.94 8.5-8.81 34.19-23 45.34-20.88 21.34 4 33.89 28.14 39.73 47 7.72 24.91 3.06 43.91-17.08 60.17-17.59 14.19-32.48 22.58-55.32 20-18.64-2.1-38.91-6.31-51.2-22.31-17.38-22.63-3.74-43.52 7.62-64.86 10.38-19.49 24.38-34.3 45.07-41.44 24.93-8.6 46.18 2.37 62.33 22.25 16.35 20.12 16.91 39.56 8.57 63.69-4.24 12.28-7.49 20-19.44 24.46a131.6 131.6 0 01-30.54 6.88c-22 2.42-45.41-2.61-48.16-30-2-20.32 18.6-45.7 34.42-55.27 31.29-18.95 6.2 23.66 4.3 34.33l-3.4 4.58q12.52 8.86 9.78-1.39c2.38-4.44.23-12.37 4.17-17.48 2.49-3.23 9.63-7.22 13.13-7.85 7.68-1.38 4-5 6.54 3.4 2.86 9.58.24 24.69-4 33-3 5.77-14.56 13.07-15 19.64l8.15-8.48q-.9-4.29-2-8.53c-1.58-6-4.93-12.77-4.91-19 0-9.43 7.41-21.55 12.4-29.4 12.89-20.29 33.1-8.74 41.8 9 4.86 9.93 7.31 26 7.22 36.7-.13 15.06-7.18 21-15.16 32.14-5.4 7.56-8.29 15.77-16.45 20.76-10 6.09-21.92 5.46-32.24.46-8.32-4-15.44-11.29-23-16.56-11.46-8-20-12.61-25.16-26.72-3.62-9.95-10.88-23.34-11.77-34-1-12.38 6.66-28.43 11.42-39.15 12.09-27.34 31.52-33.07 57.56-40.65 24.81-7.22 39.57 5.49 52.12 26.17 7.16 11.78 11.73 15.34 14.58 29.66s2.92 24.78-1.76 38.39c-17.31 50.38-80 61.42-114.55 21.55a133.71 133.71 0 01-21.25-35c-2-4.86-5.66-11.79-6.21-16.8C97 109 101.69 100.12 103.7 93c8.15-29 25.34-47.62 56.16-39.29l10.48-39.47c-30.46-6.67-62.91 2.27-87.64 22.32a73.85 73.85 0 00-23.54 34.03c-5.41 16.18-3.22 33.28-6.94 49.91-6.92 30.92 6.32 63.11 22.4 88.74 17 27.08 46.53 35.44 76.38 33.52 25-1.61 25.13-42.16 0-40.54-18.68 1.2-35-.79-45.43-18.34-11-18.51-18.84-37.87-13.69-59.51 4.35-18.27-1.29-40 12.92-53.94 13.37-13.16 37.31-20.66 55.05-16.74 24.64 5.44 35.21-32.83 10.48-39.47-25.29-6.8-44.42-6.08-66.81 9.22-22 15-30.62 33.8-37.62 58.73-3.68 13.13-8.43 24.41-6.83 38.35 1.33 11.59 6.54 22.9 11.14 33.44 10.24 23.47 26.47 45.08 46.73 60 40 29.51 91.87 23.52 129.59-6.92 16.4-13.24 23.77-29.59 30.56-49.49 4.64-13.61 7.8-25.2 5.82-39.7-1.67-12.19-2.61-29.07-8.2-40.35-4.71-9.5-12.92-17.16-18.47-26.16a97.12 97.12 0 00-17.18-21.13c-16.38-15-40.92-23-62.67-19.17C155 14.8 130.82 21.83 113.13 35 91.64 51 80.9 74.68 72.39 100.15c-14.78 44.28 5.52 98.7 42.27 124.67 18.8 13.28 35.66 27.26 58.91 30.07s49.51-6.53 63.8-26.75c12.18-17.22 27-35.56 30.58-57.16 4.07-24.37-1.82-56.32-14.78-76.8-11.09-17.52-24.7-31.58-45.48-34.49-22.23-3.11-43.72 4.06-57.17 23.15-11 15.66-22.52 37.39-22.72 57.25-.21 21.19 8 53.38 25.88 65.91 45.46 31.82 75.46-40.92 74-77.68-.73-18.81-8.41-41-26-49.45-19.84-9.54-49.24 3-63.37 18.58-12.89 14.19-20 40.36-15.25 59.27 5.25 21 23.25 35.61 44.2 27.23 34.55-13.82 52.58-86.42 21.9-111.37-36.11-29.43-87.88 20.76-101.66 54.61-17.87 43.87 1.64 94.66 48.66 103.44 21.75 4.06 42.79.28 63.8-5.89 24.17-7.1 37.9-19.5 46.94-43.86 17.75-47.83 8.93-93.13-31.43-125.09-40-31.7-96.36-23.37-129 15.86-27.25 32.76-54.13 79.06-32.19 121.93 21.4 41.83 74.21 56.42 116.83 48.92 20.4-3.59 39-17.78 54.51-31.4 19-16.64 29.74-37.83 30.6-63.6 1.49-44.72-24.18-91-64.92-107.67-23.72-9.73-37.82-1.18-58.71 9.64-21.36 11.07-37.22 20.66-47.28 44.69-16.44 39.26-4.67 103 31.21 127.82 39.32 27.2 97.66 19.58 121.18-25.44 8.86-17 8-47 3.86-65.47-4.87-21.65-25-35.31-45.68-35.8-20.09-.47-40.17 10.48-49.42 29.14-9.59 19.33-19.06 42.79-8.26 63.62 9.17 17.66 28.83 23.5 46.07 14.4 18.82-9.93 25.45-38.62 21.79-58.69-8.85-48.55-71.46-42.56-86.63-1.68-7.46 20.11-1.48 45.65 13.69 60.57 17.92 17.63 38.74 8.28 54.2-6.48 16-15.29 23.24-33.23 18.48-56.12-4-19.32-23.35-37.1-42.53-23.71-28.93 20.2-20.12 95.08 20 93.53 18.26-.7 28.93-20.23 32.91-36.48 5.63-23 7.78-44-11.55-59.87-15.18-12.5-35.51-25.5-55.49-18.92-18.51 6.11-40.31 29.48-47.72 47.7-8.09 19.89-6.36 46.18 4.41 64.61 12.69 21.72 33.31 31.55 56.48 36.65 46 10.12 78.32-38.28 75.13-81.68-4.1-55.72-55.64-71.51-101.12-58.85-41.44 11.53-65.65 69.61-40.54 107.5 11.18 16.88 30 29.8 48.94 34.7 25.19 6.51 45.07 1.49 68.06-9.5 14-6.69 4.09-31-10.51-25.9z" opacity=".4" transform="translate(-2.08 -.99)"/><path fill="#c9ced1" d="M11.3 121.9a7 7 0 01-4.6-4.6.37.37 0 00-.5-.2.22.22 0 00-.2.2 7 7 0 01-4.6 4.6.37.37 0 00-.2.5.22.22 0 00.2.2 7 7 0 014.6 4.6.37.37 0 00.5.2.22.22 0 00.2-.2 7 7 0 014.6-4.6.37.37 0 00.2-.5.22.22 0 00-.2-.2zm39-48a7 7 0 01-4.6-4.6.37.37 0 00-.5-.2.22.22 0 00-.2.2 7 7 0 01-4.6 4.6.37.37 0 00-.2.5.22.22 0 00.2.2 7 7 0 014.6 4.6.37.37 0 00.5.2.22.22 0 00.2-.2 7 7 0 014.6-4.6.37.37 0 00.2-.5.22.22 0 00-.2-.2zm-29-47a7 7 0 01-4.6-4.6.37.37 0 00-.5-.2.22.22 0 00-.2.2 7 7 0 01-4.6 4.6.37.37 0 00-.2.5.22.22 0 00.2.2 7 7 0 014.6 4.6.37.37 0 00.5.2.22.22 0 00.2-.2 7 7 0 014.6-4.6.37.37 0 00.2-.5.22.22 0 00-.2-.2z"/><path fill="#c5edf9" d="M127.3 253.9a7 7 0 01-4.6-4.6.37.37 0 00-.5-.2.22.22 0 00-.2.2 7 7 0 01-4.6 4.6.37.37 0 00-.2.5.22.22 0 00.2.2 7 7 0 014.6 4.6.37.37 0 00.5.2.22.22 0 00.2-.2 7 7 0 014.6-4.6.37.37 0 00.2-.5.22.22 0 00-.2-.2zm-85-67a7 7 0 01-4.6-4.6.37.37 0 00-.5-.2.22.22 0 00-.2.2 7 7 0 01-4.6 4.6.37.37 0 00-.2.5.22.22 0 00.2.2 7 7 0 014.6 4.6.37.37 0 00.5.2.22.22 0 00.2-.2 7 7 0 014.6-4.6.37.37 0 00.2-.5.22.22 0 00-.2-.2zM3 150.01H1a1 1 0 010-2h2v-2a.94.94 0 011-1 .94.94 0 011 1v2h2a1 1 0 010 2H5v2a.94.94 0 01-1 1 .94.94 0 01-1-1zm44-102h-2a1 1 0 010-2h2v-2a1 1 0 012 0v2h2a1 1 0 010 2h-2v2a1 1 0 01-2 0zm-30 183h-2a1 1 0 110-2h2v-2a1 1 0 012 0v2h2a1 1 0 010 2h-2v2a1 1 0 01-2 0z"/><circle cx="45.7" cy="236.7" r="2.7" fill="#c9ced1"/><circle cx="6.7" cy="66.7" r="2.7" fill="#c9ced1"/><circle cx="8.7" cy="2.7" r="2.7" fill="#c9ced1"/><path fill="url(#fs-trr7jjlzcb)" d="M67.68 104h139.4a5 5 0 015 5v56a5 5 0 01-5 5H67.68a5 5 0 01-5-5v-56a5 5 0 015-5z" transform="translate(-2.08 -.99)"/><circle cx="59.4" cy="135.4" r="28.4" fill="#fff" stroke="#c4cdd3"/><path fill="#c5edf9" d="M103.1 148.5a7.6 7.6 0 107.6 7.6 7.66 7.66 0 00-7.6-7.6zm-1.6 11.4l-3.8-3.8 1.1-1.1 2.7 2.7 5.8-5.7 1.1 1.1z"/><path fill="url(#fs-908reph9oa)" d="M101 112.29h81.9a4.23 4.23 0 014.2 4.2 4.23 4.23 0 01-4.2 4.2H101a4.23 4.23 0 01-4.2-4.2 4.23 4.23 0 014.2-4.2z" transform="translate(-2.08 -.99)"/><path fill="url(#fs-okl20lfk3d)" d="M101 127.49h48.5a4.23 4.23 0 014.2 4.2 4.23 4.23 0 01-4.2 4.2H101a4.23 4.23 0 01-4.2-4.2 4.23 4.23 0 014.2-4.2z" transform="translate(-2.08 -.99)"/><path fill="url(#fs-hhzzr9qahe)" d="M91 28h116.1a5 5 0 015 5v46a5 5 0 01-5 5H91a5 5 0 01-5-5V33a5 5 0 015-5z" transform="translate(-2.08 -.99)"/><ellipse cx="83" cy="54.4" fill="#fff" stroke="#c4cdd3" rx="24" ry="24.1"/><path fill="#c4cdd3" d="M70.6 64.3l16.2 2.1V44.2l-10.88 2.5v14.9l-5.82 2.41-.2-.1V45.1l16.9-6.5 9.4 3.2v25.3l-9.4 3z"/><path fill="#c5edf9" d="M119.8 65.6a6.45 6.45 0 106.4 6.5 6.6 6.6 0 00-6.4-6.5zm-1.3 9.7l-3.2-3.2.9-.9 2.3 2.3 4.9-4.9.9.9z"/><path fill="url(#fs-j1v00cgpwf)" d="M118.38 35.09h69.1a3.48 3.48 0 013.5 3.5 3.48 3.48 0 01-3.5 3.5h-69.1a3.48 3.48 0 01-3.5-3.5 3.48 3.48 0 013.5-3.5z" transform="translate(-2.08 -.99)"/><path fill="url(#fs-tn452c6c4g)" d="M118.38 48h40.9a3.48 3.48 0 013.5 3.5 3.54 3.54 0 01-3.5 3.5h-40.9a3.48 3.48 0 01-3.5-3.5 3.48 3.48 0 013.5-3.5z" transform="translate(-2.08 -.99)"/><path fill="url(#fs-3buyurrdch)" d="M91 188h116.1a5 5 0 015 5v46a5 5 0 01-5 5H91a5 5 0 01-5-5v-46a5 5 0 015-5z" transform="translate(-2.08 -.99)"/><ellipse cx="83" cy="216.1" fill="#fff" stroke="#c4cdd3" rx="24" ry="24.1"/><path fill="#c5edf9" d="M119.8 225.6a6.45 6.45 0 106.4 6.5 6.6 6.6 0 00-6.4-6.5zm-1.3 9.7l-3.2-3.2.9-.9 2.3 2.3 4.9-4.9.9.9z"/><path fill="url(#fs-0ej4ea2nyi)" d="M118.38 195.09h69.1a3.48 3.48 0 013.5 3.5 3.48 3.48 0 01-3.5 3.5h-69.1a3.48 3.48 0 01-3.5-3.5 3.48 3.48 0 013.5-3.5z" transform="translate(-2.08 -.99)"/><path fill="url(#fs-saki8siqnj)" d="M118.38 208h40.9a3.48 3.48 0 013.5 3.5 3.48 3.48 0 01-3.5 3.5h-40.9a3.48 3.48 0 01-3.5-3.5 3.48 3.48 0 013.5-3.5z" transform="translate(-2.08 -.99)"/><path fill="#c4cdd3" d="M64.1 120.01l13 31v-31zm-22.1 0v31l13-31zm11.92 24.69h5.9l2.6 6.3h5.4l-8.3-19.7zm29.18 78.7c-4.4 0-6.3-2.1-6.3-3.8a1.35 1.35 0 011.3-1.4h.1c1.9 0 1.4 2.7 4.9 2.7 1.8 0 2.8-1 2.8-2 0-.6-.3-1.3-1.5-1.6l-3.9-1c-3.1-.8-3.7-2.5-3.7-4.1 0-3.3 3.1-4.5 6-4.5 2.7 0 5.8 1.5 5.8 3.5a1.45 1.45 0 01-1.5 1.4H87c-1.6 0-1.3-2.2-4.5-2.2-1.6 0-2.5.7-2.5 1.8s1.3 1.4 2.3 1.6l2.9.6c3.2.7 3.9 2.5 3.9 4.3.2 2.7-1.9 4.7-6 4.7m11.9-5.3a12.25 12.25 0 00-9.7-14.3 17.85 17.85 0 00-2.3-.2 16.41 16.41 0 00-2.3.2l.1.1h-.1a7.25 7.25 0 00-9.7 10v.1l-.1-.1a12.17 12.17 0 0010.02 14.11 16.35 16.35 0 002.2.2 18 18 0 002.2-.2l-.1-.1h.1a7.23 7.23 0 009.9-2.7 7.46 7.46 0 00-.2-7.1"/></svg>