<svg width="150" height="151" viewBox="0 0 150 151" fill="none" xmlns="http://www.w3.org/2000/svg">
<path d="M134.47 133.79H140" stroke="#92A2B1" stroke-width="1.2" stroke-linecap="round" stroke-linejoin="round"/>
<path d="M104.25 133.79H128.47" stroke="#92A2B1" stroke-width="1.2" stroke-linecap="round" stroke-linejoin="round"/>
<path d="M10 133.79H98.5" stroke="#92A2B1" stroke-width="1.2" stroke-linecap="round" stroke-linejoin="round"/>
<path d="M26.2002 31.2998H32.2402" stroke="#92A2B1" stroke-width="1.2" stroke-linecap="round" stroke-linejoin="round"/>
<path d="M39.4004 17.21V23.26" stroke="#92A2B1" stroke-width="1.2" stroke-linecap="round" stroke-linejoin="round"/>
<path d="M28.7705 21.5298L33.5705 25.2198" stroke="#92A2B1" stroke-width="1.2" stroke-linecap="round" stroke-linejoin="round"/>
<path opacity="0.2" d="M72.4203 126.89C99.9297 126.89 122.23 104.589 122.23 77.08C122.23 49.5707 99.9297 27.27 72.4203 27.27C44.911 27.27 22.6104 49.5707 22.6104 77.08C22.6104 104.589 44.911 126.89 72.4203 126.89Z" fill="#BFC7D3"/>
<path d="M109.4 54.5799V117.53C109.4 119.74 107.61 121.53 105.4 121.53H43.4102C41.2002 121.53 39.4102 119.74 39.4102 117.53V35.9199C39.4102 33.7099 41.2002 31.9199 43.4102 31.9199H88.2302" fill="white"/>
<path d="M109.4 54.5799V117.53C109.4 119.74 107.61 121.53 105.4 121.53H43.4102C41.2002 121.53 39.4102 119.74 39.4102 117.53V35.9199C39.4102 33.7099 41.2002 31.9199 43.4102 31.9199H88.2302" stroke="#92A2B1" stroke-width="1.2" stroke-miterlimit="10" stroke-linecap="round"/>
<path d="M109.57 54.4998H92.7004C90.3204 54.4998 88.4004 52.5298 88.4004 50.1098V31.8398L109.57 54.4998Z" fill="#92A2B1" stroke="#92A2B1" stroke-width="0.83" stroke-linecap="round" stroke-linejoin="round"/>
<path d="M49.9795 48.1001H79.6895" stroke="#C4CCD4" stroke-width="1.2" stroke-linecap="round" stroke-linejoin="round"/>
<path d="M49.9795 55.2998H79.6895" stroke="#C4CCD4" stroke-width="1.2" stroke-linecap="round" stroke-linejoin="round"/>
<path d="M49.8701 63.1299H62.2501" stroke="#C4CCD4" stroke-width="1.2" stroke-linecap="round" stroke-linejoin="round"/>
<path d="M63.7802 82.8099C65.067 82.8099 66.1102 81.7667 66.1102 80.4799C66.1102 79.1931 65.067 78.1499 63.7802 78.1499C62.4934 78.1499 61.4502 79.1931 61.4502 80.4799C61.4502 81.7667 62.4934 82.8099 63.7802 82.8099Z" fill="#C4CCD4"/>
<path d="M85.0204 82.8099C86.3073 82.8099 87.3504 81.7667 87.3504 80.4799C87.3504 79.1931 86.3073 78.1499 85.0204 78.1499C83.7336 78.1499 82.6904 79.1931 82.6904 80.4799C82.6904 81.7667 83.7336 82.8099 85.0204 82.8099Z" fill="#C4CCD4"/>
<path d="M78.0107 94.3813C77.3307 94.0713 76.1207 93.6213 74.5607 93.5913C72.8207 93.5613 71.4807 94.0613 70.7807 94.3813" stroke="#C4CCD4" stroke-width="1.2" stroke-linecap="round" stroke-linejoin="round"/>
<path d="M114.202 122.064L118.501 117.793L125.035 124.37C126.211 125.554 126.205 127.478 125.02 128.655C123.836 129.832 121.912 129.825 120.735 128.641L114.202 122.064Z" fill="white" stroke="#91A1B0" stroke-width="1.2" stroke-miterlimit="10"/>
<path d="M115.245 116.722L113.138 118.815L115.231 120.922L117.338 118.829L115.245 116.722Z" fill="white" stroke="#91A1B0" stroke-width="1.2" stroke-miterlimit="10"/>
<path d="M102.27 122.779C111.46 122.779 118.91 115.329 118.91 106.139C118.91 96.9485 111.46 89.4985 102.27 89.4985C93.0798 89.4985 85.6299 96.9485 85.6299 106.139C85.6299 115.329 93.0798 122.779 102.27 122.779Z" fill="white" stroke="#91A1B0" stroke-width="1.2" stroke-miterlimit="10"/>
<path d="M102.271 119.648C109.732 119.648 115.781 113.6 115.781 106.138C115.781 98.6771 109.732 92.6284 102.271 92.6284C94.8094 92.6284 88.7607 98.6771 88.7607 106.138C88.7607 113.6 94.8094 119.648 102.271 119.648Z" fill="white" stroke="#91A1B0" stroke-width="1.2" stroke-miterlimit="10"/>
<path d="M100.706 99.3569H103.837L103.433 108.708H101.11L100.706 99.3569Z" fill="#CED6DE"/>
<circle cx="102.271" cy="111.254" r="1.66635" fill="#CED6DE"/>
</svg>
