<svg width="150" height="150" viewBox="0 0 150 150" fill="none" xmlns="http://www.w3.org/2000/svg">
<path d="M134.06 134.19H139.55" stroke="#91A1B0" stroke-width="1.2" stroke-linecap="round" stroke-linejoin="round"/>
<path d="M104.07 134.19H128.1" stroke="#91A1B0" stroke-width="1.2" stroke-linecap="round" stroke-linejoin="round"/>
<path d="M10.5498 134.19H98.3698" stroke="#91A1B0" stroke-width="1.2" stroke-linecap="round" stroke-linejoin="round"/>
<path opacity="0.2" d="M75.0498 127.25C102.664 127.25 125.05 104.864 125.05 77.25C125.05 49.6358 102.664 27.25 75.0498 27.25C47.4356 27.25 25.0498 49.6358 25.0498 77.25C25.0498 104.864 47.4356 127.25 75.0498 127.25Z" fill="#BEC6D2"/>
<path d="M38.1302 41.75H111.96C115.09 41.75 117.64 44.29 117.64 47.43V107.07C117.64 110.2 115.1 112.75 111.96 112.75H38.1302C35.0002 112.75 32.4502 110.21 32.4502 107.07V47.43C32.4502 44.3 34.9902 41.75 38.1302 41.75Z" fill="white" stroke="#91A1B0" stroke-width="1.2" stroke-miterlimit="10"/>
<path d="M52.2002 99.2998H97.9002" stroke="#CED6DE" stroke-width="1.2" stroke-linecap="round" stroke-linejoin="round"/>
<path d="M63.6201 105.37H86.4701" stroke="#CED6DE" stroke-width="1.2" stroke-linecap="round" stroke-linejoin="round"/>
<path d="M37.6 42.4199H112.41C114.89 42.4199 116.91 44.4399 116.91 46.9199V58.7799H33V47.0199C33 44.4799 35.06 42.4199 37.6 42.4199Z" fill="#91A1B0" stroke="#91A1B0" stroke-width="0.83" stroke-linecap="round" stroke-linejoin="round"/>
<g clip-path="url(#clip0_354_2)">
<path d="M76.3157 83.0899C75.0153 83.0899 74.0761 82.7143 72.9636 82.1652C69.9871 82.5409 67.7476 84.9538 67.7476 87.9448V89.6208C67.7476 90.5456 68.4989 91.2969 69.4236 91.2969H76.3157" stroke="#91A1B0" stroke-width="1.2" stroke-miterlimit="10" stroke-linecap="round"/>
<path d="M76.3159 83.09C78.9892 83.09 81.1563 80.9229 81.1563 78.2496C81.1563 75.5763 78.9892 73.4092 76.3159 73.4092C73.6427 73.4092 71.4756 75.5763 71.4756 78.2496C71.4756 80.9229 73.6427 83.09 76.3159 83.09Z" stroke="#91A1B0" stroke-width="1.2" stroke-miterlimit="10"/>
<path d="M63.7021 83.769C64.7954 83.769 65.6816 82.8828 65.6816 81.7895C65.6816 80.6963 64.7954 79.8101 63.7021 79.8101C62.6089 79.8101 61.7227 80.6963 61.7227 81.7895C61.7227 82.8828 62.6089 83.769 63.7021 83.769Z" fill="#91A1B0"/>
<path d="M84.9274 83.3356L85.3898 81.9629C85.621 81.2694 86.0834 80.8215 86.7624 81.2694C87.456 81.5006 87.6727 82.1797 87.456 82.8732C87.456 82.8732 86.7624 88.147 82.1822 92.265C81.7198 92.7273 81.0407 93.1752 80.5783 92.7273C79.8848 92.4961 79.6681 91.5859 80.116 91.1235L81.2574 89.7509" stroke="#91A1B0" stroke-width="2.4" stroke-miterlimit="10" stroke-linecap="round"/>
<path d="M87.0943 77.3393C86.6319 71.1696 81.4881 66.3004 75.1884 66.3004C68.5853 66.3004 63.2393 71.6465 63.2393 78.2496C63.2393 79.55 63.4704 80.807 63.8606 81.9774" stroke="#91A1B0" stroke-width="1.2" stroke-linecap="round" stroke-linejoin="round"/>
</g>
<path d="M52.1999 50.6001H42.3599H52.1999Z" fill="white"/>
<path d="M52.1999 50.6001H42.3599" stroke="white" stroke-width="1.2" stroke-miterlimit="10" stroke-linecap="round"/>
<path d="M18.4502 40.1699H24.4902" stroke="#91A1B0" stroke-width="1.2" stroke-linecap="round" stroke-linejoin="round"/>
<path d="M31.6499 26.0801V32.1301" stroke="#91A1B0" stroke-width="1.2" stroke-linecap="round" stroke-linejoin="round"/>
<path d="M21.0098 30.4102L25.8098 34.1002" stroke="#91A1B0" stroke-width="1.2" stroke-linecap="round" stroke-linejoin="round"/>
<path d="M123.332 121.246L127.631 116.975L134.164 123.551C135.341 124.736 135.335 126.659 134.15 127.836C132.965 129.013 131.042 129.007 129.865 127.822L123.332 121.246Z" fill="white" stroke="#91A1B0" stroke-width="1.2" stroke-miterlimit="10"/>
<path d="M124.375 115.903L122.268 117.997L124.361 120.104L126.468 118.011L124.375 115.903Z" fill="white" stroke="#91A1B0" stroke-width="1.2" stroke-miterlimit="10"/>
<path d="M111.4 121.96C120.59 121.96 128.04 114.51 128.04 105.32C128.04 96.1302 120.59 88.6802 111.4 88.6802C102.21 88.6802 94.7598 96.1302 94.7598 105.32C94.7598 114.51 102.21 121.96 111.4 121.96Z" fill="white" stroke="#91A1B0" stroke-width="1.2" stroke-miterlimit="10"/>
<path d="M111.51 119.02C118.971 119.02 125.02 112.971 125.02 105.51C125.02 98.0486 118.971 92 111.51 92C104.049 92 98 98.0486 98 105.51C98 112.971 104.049 119.02 111.51 119.02Z" fill="white" stroke="#91A1B0" stroke-width="1.2" stroke-miterlimit="10"/>
<path d="M106.182 111.636C105.952 111.406 105.952 111.026 106.182 110.786L116.792 100.176C117.022 99.9463 117.402 99.9463 117.642 100.176C117.882 100.406 117.872 100.786 117.642 101.026L107.032 111.636C106.802 111.866 106.422 111.866 106.182 111.636Z" fill="#CFD7DF"/>
<path d="M116.783 111.636L106.172 101.026C105.942 100.796 105.942 100.416 106.172 100.176C106.403 99.9363 106.783 99.9463 107.023 100.176L117.633 110.786C117.863 111.016 117.863 111.396 117.633 111.636C117.403 111.876 117.023 111.866 116.783 111.636Z" fill="#CFD7DF"/>
<defs>
<clipPath id="clip0_354_2">
<rect width="27.8285" height="29.23" fill="white" transform="translate(61 65)"/>
</clipPath>
</defs>
</svg>
