<svg xmlns="http://www.w3.org/2000/svg" width="109" height="102" fill="none" viewBox="0 0 109 102"><mask id="fs-4jkeik2gaa" style="mask-type:alpha" width="102" height="102" x="0" y="0" maskUnits="userSpaceOnUse"><path fill="url(#paint0_linear_27086_176086)" d="M50.688 101.376c27.994 0 50.688-22.694 50.688-50.688C101.376 22.694 78.682 0 50.688 0 22.694 0 0 22.694 0 50.688c0 27.994 22.694 50.688 50.688 50.688z"/></mask><g mask="url(#fs-4jkeik2gaa)"><path fill="url(#paint1_linear_27086_176086)" d="M50.681 100.784c27.991 0 50.682-22.562 50.682-50.392C101.363 22.562 78.673 0 50.682 0 22.69 0 0 22.561 0 50.392c0 27.83 22.69 50.392 50.681 50.392z"/><mask id="fs-4i08e6z3qb" style="mask-type:alpha" width="123" height="123" x="-10" y="-15" maskUnits="userSpaceOnUse"><path fill="url(#paint2_linear_27086_176086)" d="M51.394 107.886c33.674 0 60.973-27.298 60.973-60.972 0-33.674-27.299-60.973-60.973-60.973S-9.578 13.24-9.578 46.914s27.298 60.972 60.972 60.972z"/></mask><g mask="url(#fs-4i08e6z3qb)"><path fill="#fff" d="M67.185 27.088a3.175 3.175 0 00-3.175 3.175v124.835h128.01V27.088H67.185zm124.459 7.957H184v-7.644h7.644v7.644zm-63.473 47.871v-7.644h7.645v7.644h-7.645zm7.645.376v7.644h-7.645v-7.644h7.645zm-7.958-.376h-7.644v-7.644h7.644v7.644zm0 .376v7.644h-7.644v-7.644h7.644zm-8.02 7.644h-7.644v-7.644h7.644v7.644zm0 .313v7.645h-7.644v-7.645h7.644zm.376 0h7.644v7.645h-7.644v-7.645zm7.644 7.958v7.644h-7.644v-7.644h7.644zm.313 0h7.645v7.644h-7.645v-7.644zm0-.313v-7.645h7.645v7.645h-7.645zm7.958-7.645h7.644v7.645h-7.644v-7.645zm0-.313v-7.644h7.644v7.644h-7.644zm0-8.02v-7.644h7.644v7.644h-7.644zm0-7.957v-7.645h7.644v7.645h-7.644zm-.313 0h-7.645v-7.645h7.645v7.645zm-7.958 0h-7.644v-7.645h7.644v7.645zm-8.02 0h-7.644v-7.645h7.644v7.645zm0 .313v7.644h-7.644v-7.644h7.644zm-7.958 7.644h-7.644v-7.644h7.644v7.644zm0 .376v7.644h-7.644v-7.644h7.644zm0 7.957v7.645h-7.644v-7.645h7.644zm0 7.958v7.644h-7.644v-7.644h7.644zm.314 0h7.644v7.644h-7.644v-7.644zm7.644 8.02v7.645h-7.644v-7.645h7.644zm.376 0h7.644v7.645h-7.644v-7.645zm7.957 0h7.645v7.645h-7.645v-7.645zm7.958 0h7.644v7.645h-7.644v-7.645zm0-.376v-7.644h7.644v7.644h-7.644zm8.02-7.644h7.644v7.644h-7.644v-7.644zm0-.313v-7.645h7.644v7.645h-7.644zm0-7.958v-7.644h7.644v7.644h-7.644zm0-8.02v-7.644h7.644v7.644h-7.644zm0-7.957v-7.645h7.644v7.645h-7.644zm0-7.958v-7.644h7.644V67h-7.644zm-.376 0h-7.644v-7.644h7.644V67zm-7.957 0h-7.645v-7.644h7.645V67zm-7.958 0h-7.644v-7.644h7.644V67zm-8.02 0h-7.644v-7.644h7.644V67zm-7.958 0h-7.644v-7.644h7.644V67zm0 .313v7.645h-7.644v-7.645h7.644zm-7.957 7.645h-7.645v-7.645h7.645v7.645zm0 .313v7.644h-7.645v-7.644h7.645zm0 8.02v7.644h-7.645v-7.644h7.645zm0 7.957v7.645h-7.645v-7.645h7.645zm0 7.958v7.644h-7.645v-7.644h7.645zm0 8.02v7.645h-7.645v-7.645h7.645zm.313 0h7.644v7.645h-7.644v-7.645zm7.644 7.958v7.644h-7.644v-7.644h7.644zm.314 0h7.644v7.644h-7.644v-7.644zm8.02 0h7.644v7.644h-7.644v-7.644zm7.957 0h7.645v7.644h-7.645v-7.644zm7.958 0h7.644v7.644h-7.644v-7.644zm8.02 0h7.644v7.644h-7.644v-7.644zm0-.313v-7.645h7.644v7.645h-7.644zm7.958-7.645h7.644v7.645h-7.644v-7.645zm0-.376v-7.644h7.644v7.644h-7.644zm0-7.957v-7.645h7.644v7.645h-7.644zm0-7.958v-7.644h7.644v7.644h-7.644zm0-8.02v-7.644h7.644v7.644h-7.644zm0-7.957v-7.645h7.644v7.645h-7.644zm0-7.958v-7.644h7.644V67h-7.644zm0-8.02v-7.645h7.644v7.645h-7.644zm-.314 0h-7.644v-7.645h7.644v7.645zm-8.02 0h-7.644v-7.645h7.644v7.645zm-7.957 0h-7.645v-7.645h7.645v7.645zm-7.958 0h-7.644v-7.645h7.644v7.645zm-8.02 0h-7.644v-7.645h7.644v7.645zm-7.958 0h-7.644v-7.645h7.644v7.645zm-7.957 0h-7.645v-7.645h7.645v7.645zm0 .376V67h-7.645v-7.644h7.645zM95.903 67h-7.645v-7.644h7.645V67zm0 .313v7.645h-7.645v-7.645h7.645zm0 7.958v7.644h-7.645v-7.644h7.645zm0 8.02v7.644h-7.645v-7.644h7.645zm0 7.957v7.645h-7.645v-7.645h7.645zm0 7.958v7.644h-7.645v-7.644h7.645zm0 8.02v7.645h-7.645v-7.645h7.645zm0 7.958v7.644h-7.645v-7.644h7.645zm.375 0h7.645v7.644h-7.645v-7.644zm7.645 7.957v7.645h-7.645v-7.645h7.645zm.313 0h7.644v7.645h-7.644v-7.645zm7.958 0h7.644v7.645h-7.644v-7.645zm8.02 0h7.644v7.645h-7.644v-7.645zm7.957 0h7.645v7.645h-7.645v-7.645zm7.958 0h7.644v7.645h-7.644v-7.645zm8.02 0h7.644v7.645h-7.644v-7.645zm7.958 0h7.644v7.645h-7.644v-7.645zm0-.313v-7.644h7.644v7.644h-7.644zm7.957-7.644h7.644v7.644h-7.644v-7.644zm0-.313v-7.645h7.644v7.645h-7.644zm0-8.021v-7.644h7.644v7.644h-7.644zm0-7.957v-7.645h7.644v7.645h-7.644zm0-7.958v-7.644h7.644v7.644h-7.644zm0-8.02v-7.644h7.644v7.644h-7.644zm0-7.957v-7.645h7.644v7.645h-7.644zm0-7.958v-7.644h7.644V67h-7.644zm0-8.02v-7.645h7.644v7.645h-7.644zm0-7.958V43.38h7.644v7.644h-7.644zm-.313 0h-7.644V43.38h7.644v7.644zm-7.958 0h-7.644V43.38h7.644v7.644zm-8.02 0h-7.644V43.38h7.644v7.644zm-7.957 0h-7.645V43.38h7.645v7.644zm-7.958 0h-7.644V43.38h7.644v7.644zm-8.02 0h-7.644V43.38h7.644v7.644zm-7.958 0h-7.644V43.38h7.644v7.644zm-7.957 0h-7.645V43.38h7.645v7.644zm-8.02 0h-7.645V43.38h7.645v7.644zm0 .313v7.645h-7.645v-7.645h7.645zm-7.958 7.645h-7.644v-7.645h7.644v7.645zm0 .376V67h-7.644v-7.644h7.644zm0 7.957v7.645h-7.644v-7.645h7.644zm0 7.958v7.644h-7.644v-7.644h7.644zm0 8.02v7.644h-7.644v-7.644h7.644zm0 7.957v7.645h-7.644v-7.645h7.644zm0 7.958v7.644h-7.644v-7.644h7.644zm0 8.02v7.645h-7.644v-7.645h7.644zm0 7.958v7.644h-7.644v-7.644h7.644zm0 7.957v7.645h-7.644v-7.645h7.644zm.313 0h7.645v7.645h-7.645v-7.645zm7.645 8.021v7.644h-7.645v-7.644h7.645zm.375 0h7.645v7.644h-7.645v-7.644zm7.958 0h7.644v7.644h-7.644v-7.644zm7.958 0h7.644v7.644h-7.644v-7.644zm8.02 0h7.644v7.644h-7.644v-7.644zm7.957 0h7.645v7.644h-7.645v-7.644zm7.958 0h7.644v7.644h-7.644v-7.644zm8.02 0h7.644v7.644h-7.644v-7.644zm7.958 0h7.644v7.644h-7.644v-7.644zm7.957 0h7.644v7.644h-7.644v-7.644zm0-.376v-7.645h7.644v7.645h-7.644zm8.02-7.645h7.645v7.645h-7.645v-7.645zm0-.313v-7.644h7.645v7.644h-7.645zm0-7.957v-7.645h7.645v7.645h-7.645zm0-8.021v-7.644h7.645v7.644h-7.645zm0-7.957v-7.645h7.645v7.645h-7.645zm0-7.958v-7.644h7.645v7.644h-7.645zm0-8.02v-7.644h7.645v7.644h-7.645zm0-7.957v-7.645h7.645v7.645h-7.645zm0-7.958v-7.644h7.645V67h-7.645zm0-8.02v-7.645h7.645v7.645h-7.645zm0-7.958V43.38h7.645v7.644h-7.645zm0-7.957V35.42h7.645v7.645h-7.645zm-.376 0h-7.644V35.42h7.644v7.645zm-7.957 0h-7.644V35.42h7.644v7.645zm-7.958 0h-7.644V35.42h7.644v7.645zm-8.02 0h-7.644V35.42h7.644v7.645zm-7.957 0h-7.645V35.42h7.645v7.645zm-7.958 0h-7.644V35.42h7.644v7.645zm-8.02 0h-7.644V35.42h7.644v7.645zm-7.958 0h-7.644V35.42h7.644v7.645zm-7.957 0h-7.645V35.42h7.645v7.645zm-8.02 0h-7.645V35.42h7.645v7.645zm-7.958 0h-7.644V35.42h7.644v7.645zm0 .313v7.644h-7.644V43.38h7.644zm-7.957 7.644h-7.645V43.38h7.644v7.644zm0 .313v7.645h-7.645v-7.645h7.644zm0 8.02v7.645h-7.645v-7.644h7.644zm0 7.958v7.645h-7.645v-7.645h7.644zm0 7.958v7.644h-7.645v-7.644h7.644zm0 8.02v7.644h-7.645v-7.644h7.644zm0 7.957v7.645h-7.645v-7.645h7.644zm0 7.958v7.644h-7.645v-7.644h7.644zm0 8.02v7.645h-7.645v-7.645h7.644zm0 7.958v7.644h-7.645v-7.644h7.644zm0 7.957v7.645h-7.645v-7.645h7.644zm0 8.021v7.644h-7.645v-7.644h7.644zm.313 0h7.644v7.644h-7.644v-7.644zm7.644 7.957v7.644h-7.644v-7.644h7.644zm.313 0h7.645v7.644h-7.645v-7.644zm8.02 0h7.645v7.644h-7.645v-7.644zm7.958 0h7.644v7.644h-7.644v-7.644zm7.958 0h7.644v7.644h-7.644v-7.644zm8.02 0h7.644v7.644h-7.644v-7.644zm7.957 0h7.645v7.644h-7.645v-7.644zm7.958 0h7.644v7.644h-7.644v-7.644zm8.02 0h7.644v7.644h-7.644v-7.644zm7.958 0h7.644v7.644h-7.644v-7.644zm7.957 0h7.644v7.644h-7.644v-7.644zm8.02 0h7.645v7.644h-7.645v-7.644zm0-.313v-7.644h7.645v7.644h-7.645zm7.958-7.644h7.644v7.644h-7.644v-7.644zm0-.376v-7.645h7.644v7.645h-7.644zm0-7.958v-7.644h7.644v7.644h-7.644zm0-7.957v-7.645h7.644v7.645h-7.644zm0-8.021v-7.644h7.644v7.644h-7.644zm0-7.957v-7.645h7.644v7.645h-7.644zm0-7.958v-7.644h7.644v7.644h-7.644zm0-8.02v-7.644h7.644v7.644h-7.644zm0-7.957v-7.645h7.644v7.645h-7.644zm0-7.958v-7.644h7.644V67h-7.644zm0-8.02v-7.645h7.644v7.645h-7.644zm0-7.958V43.38h7.644v7.644h-7.644zm0-7.957V35.42h7.644v7.645h-7.644zm0-8.02V27.4h7.644v7.644h-7.644zm-.313 0h-7.645V27.4h7.645v7.644zm-8.021 0h-7.644V27.4h7.644v7.644zm-7.957 0h-7.644V27.4h7.644v7.644zm-7.958 0h-7.644V27.4h7.644v7.644zm-8.02 0h-7.644V27.4h7.644v7.644zm-7.957 0h-7.645V27.4h7.645v7.644zm-7.958 0h-7.644V27.4h7.644v7.644zm-8.02 0h-7.644V27.4h7.644v7.644zm-7.958 0h-7.644V27.4h7.644v7.644zm-7.957 0h-7.645V27.4h7.645v7.644zm-8.02 0h-7.645V27.4h7.645v7.644zm-7.958 0h-7.644V27.4h7.644v7.644zm-7.957 0h-7.645V27.4h7.644v7.644zm0 .375v7.645h-7.645V35.42h7.644zm-8.02 7.645h-7.645V35.42h7.644v7.645zm0 .313v7.644h-7.645V43.38h7.644zm0 7.958v7.644h-7.645v-7.645h7.644zm0 8.02V67h-7.645v-7.644h7.644zm0 7.957v7.645h-7.645v-7.645h7.644zm0 7.958v7.644h-7.645v-7.644h7.644zm0 8.02v7.644h-7.645v-7.644h7.644zm0 7.957v7.645h-7.645v-7.645h7.644zm0 7.958v7.644h-7.645v-7.644h7.644zm0 8.02v7.645h-7.645v-7.645h7.644zm0 7.958v7.644h-7.645v-7.644h7.644zm0 7.957v7.645h-7.645v-7.645h7.644zm0 8.021v7.644h-7.645v-7.644h7.644zm0 7.957v7.644h-7.645v-7.644h7.644zm.375 0h7.644v7.644h-7.644v-7.644zm7.644 7.958v7.644h-7.644v-7.644h7.644zm.314 0h7.644v7.644h-7.644v-7.644zm7.957 0h7.645v7.644h-7.645v-7.644zm8.02 0h7.645v7.644h-7.645v-7.644zm7.958 0h7.644v7.644h-7.644v-7.644zm7.958 0h7.644v7.644h-7.644v-7.644zm8.02 0h7.644v7.644h-7.644v-7.644zm7.957 0h7.645v7.644h-7.645v-7.644zm7.958 0h7.644v7.644h-7.644v-7.644zm8.02 0h7.644v7.644h-7.644v-7.644zm7.958 0h7.644v7.644h-7.644v-7.644zm7.957 0h7.644v7.644h-7.644v-7.644zm8.02 0h7.645v7.644h-7.645v-7.644zm7.958 0h7.644v7.644h-7.644v-7.644zm0-.314v-7.644h7.644v7.644h-7.644zM184 139.12h7.644v7.644H184v-7.644zm0-.313v-7.644h7.644v7.644H184zm0-8.02v-7.645h7.644v7.645H184zm0-7.958v-7.644h7.644v7.644H184zm0-7.957v-7.645h7.644v7.645H184zm0-8.021v-7.644h7.644v7.644H184zm0-7.957v-7.645h7.644v7.645H184zm0-7.958v-7.644h7.644v7.644H184zm0-8.02v-7.644h7.644v7.644H184zm0-7.957v-7.645h7.644v7.645H184zM184 67v-7.644h7.644V67H184zm0-8.02v-7.645h7.644v7.645H184zm0-7.958V43.38h7.644v7.644H184zm0-7.957V35.42h7.644v7.645H184zM71.967 27.4v7.644h-7.644v-4.469a3.175 3.175 0 013.175-3.175h4.47zm-7.644 119.677h7.644v7.644h-7.644v-7.644zM184 154.722v-7.644h7.644v7.644H184z"/></g><path fill="url(#paint3_linear_27086_176086)" d="M3.25 76.182h95.115v36.169H3.25z"/><path fill="url(#paint4_linear_27086_176086)" d="M69.089 76.41h95.115v36.169H69.089z"/><path fill="#E2E9F0" d="M-19.676 74.703h95.115v4.723h-95.115z"/><path fill="#8296A8" d="M74.272 74.703h95.115v4.723H74.272z"/></g><path fill="url(#paint5_radial_27086_176086)" d="M14.233 22.427a5.422 5.422 0 100-10.845 5.422 5.422 0 000 10.845z"/><g filter="url(#filter0_i_27086_176086)"><path fill="#92A2B1" d="M80.24 49.306a10.352 10.352 0 018.026-10.085 1.849 1.849 0 001.445-1.8v-7.377a1.849 1.849 0 00-1.849-1.849H8.847a1.849 1.849 0 00-1.85 1.85v7.277a1.849 1.849 0 001.525 1.815 10.327 10.327 0 010 20.34 1.849 1.849 0 00-1.524 1.814v7.263a1.85 1.85 0 001.849 1.849h79.015a1.85 1.85 0 001.85-1.85v-7.375a1.848 1.848 0 00-1.446-1.8 10.351 10.351 0 01-8.026-10.072z"/></g><g filter="url(#filter1_ii_27086_176086)"><path fill="#F3F3F3" d="M64.404 41.791H32.966c-1.087 0-1.968.88-1.968 1.967v.005c0 1.086.881 1.967 1.968 1.967h31.438c1.086 0 1.967-.88 1.967-1.967v-.005c0-1.086-.881-1.967-1.967-1.967z"/></g><g filter="url(#filter2_ii_27086_176086)"><path fill="#F3F3F3" d="M59.887 52.432H38.358c-1.086 0-1.967.88-1.967 1.967v.005c0 1.086.88 1.967 1.967 1.967h21.53c1.086 0 1.966-.881 1.966-1.967v-.005c0-1.087-.88-1.967-1.967-1.967z"/></g><g filter="url(#filter3_dii_27086_176086)"><ellipse cx="87.311" cy="28.365" fill="#FF8946" rx="19.94" ry="20.365"/></g><g filter="url(#filter4_d_27086_176086)"><circle cx="87.311" cy="28.365" r="14.083" fill="#fff"/></g><path stroke="#697480" stroke-linecap="round" stroke-linejoin="round" stroke-width="1.698" d="M87.43 19.908v10.54h6.963"/><path fill="url(#paint6_radial_27086_176086)" d="M85.607 98.94a7.104 7.104 0 100-14.207 7.104 7.104 0 000 14.208z"/><path fill="url(#paint7_radial_27086_176086)" d="M81.498 91.49c-1.287-.791-1.609-2.599-.718-4.01.867-1.41 2.624-1.93 3.911-1.138 1.288.792 1.61 2.599.718 4.01-.89 1.436-2.648 1.93-3.91 1.139z" opacity=".5"/><defs><linearGradient id="paint0_linear_27086_176086" x1="50.688" x2="50.688" y1="0" y2="101.376" gradientUnits="userSpaceOnUse"><stop stop-color="#B5EFFF"/><stop offset="1" stop-color="#E7F8FE"/></linearGradient><linearGradient id="paint1_linear_27086_176086" x1="50.681" x2="50.681" y1="0" y2="100.784" gradientUnits="userSpaceOnUse"><stop stop-color="#B5EFFF"/><stop offset="1" stop-color="#EDFBFF"/></linearGradient><linearGradient id="paint2_linear_27086_176086" x1="51.394" x2="51.394" y1="-14.059" y2="107.886" gradientUnits="userSpaceOnUse"><stop stop-color="#B5EFFF"/><stop offset="1" stop-color="#E7F8FE"/></linearGradient><linearGradient id="paint3_linear_27086_176086" x1="49.803" x2="50.807" y1="78.115" y2="101.087" gradientUnits="userSpaceOnUse"><stop stop-color="#CFD7DF"/><stop offset="1" stop-color="#E1E9F1"/></linearGradient><linearGradient id="paint4_linear_27086_176086" x1="116.647" x2="116.647" y1="76.41" y2="112.579" gradientUnits="userSpaceOnUse"><stop stop-color="#647A8E"/><stop offset="1" stop-color="#647A8E" stop-opacity="0"/></linearGradient><filter id="filter0_i_27086_176086" width="82.804" height="42.847" x="6.908" y="27.555" color-interpolation-filters="sRGB" filterUnits="userSpaceOnUse"><feFlood flood-opacity="0" result="BackgroundImageFix"/><feBlend in="SourceGraphic" in2="BackgroundImageFix" result="shape"/><feColorMatrix in="SourceAlpha" result="hardAlpha" values="0 0 0 0 0 0 0 0 0 0 0 0 0 0 0 0 0 0 127 0"/><feOffset dx="-.09" dy="-.64"/><feGaussianBlur stdDeviation=".5"/><feComposite in2="hardAlpha" k2="-1" k3="1" operator="arithmetic"/><feColorMatrix values="0 0 0 0 0.438437 0 0 0 0 0.508921 0 0 0 0 0.575 0 0 0 1 0"/><feBlend in2="shape" result="effect1_innerShadow_27086_176086"/></filter><filter id="filter1_ii_27086_176086" width="35.471" height="4.435" x="30.899" y="41.593" color-interpolation-filters="sRGB" filterUnits="userSpaceOnUse"><feFlood flood-opacity="0" result="BackgroundImageFix"/><feBlend in="SourceGraphic" in2="BackgroundImageFix" result="shape"/><feColorMatrix in="SourceAlpha" result="hardAlpha" values="0 0 0 0 0 0 0 0 0 0 0 0 0 0 0 0 0 0 127 0"/><feOffset dy=".495"/><feGaussianBlur stdDeviation=".149"/><feComposite in2="hardAlpha" k2="-1" k3="1" operator="arithmetic"/><feColorMatrix values="0 0 0 0 1 0 0 0 0 1 0 0 0 0 1 0 0 0 1 0"/><feBlend in2="shape" result="effect1_innerShadow_27086_176086"/><feColorMatrix in="SourceAlpha" result="hardAlpha" values="0 0 0 0 0 0 0 0 0 0 0 0 0 0 0 0 0 0 127 0"/><feOffset dx="-.099" dy="-.396"/><feGaussianBlur stdDeviation=".099"/><feComposite in2="hardAlpha" k2="-1" k3="1" operator="arithmetic"/><feColorMatrix values="0 0 0 0 0.833333 0 0 0 0 0.833333 0 0 0 0 0.833333 0 0 0 1 0"/><feBlend in2="effect1_innerShadow_27086_176086" result="effect2_innerShadow_27086_176086"/></filter><filter id="filter2_ii_27086_176086" width="25.563" height="4.435" x="36.292" y="52.233" color-interpolation-filters="sRGB" filterUnits="userSpaceOnUse"><feFlood flood-opacity="0" result="BackgroundImageFix"/><feBlend in="SourceGraphic" in2="BackgroundImageFix" result="shape"/><feColorMatrix in="SourceAlpha" result="hardAlpha" values="0 0 0 0 0 0 0 0 0 0 0 0 0 0 0 0 0 0 127 0"/><feOffset dy=".495"/><feGaussianBlur stdDeviation=".149"/><feComposite in2="hardAlpha" k2="-1" k3="1" operator="arithmetic"/><feColorMatrix values="0 0 0 0 1 0 0 0 0 1 0 0 0 0 1 0 0 0 1 0"/><feBlend in2="shape" result="effect1_innerShadow_27086_176086"/><feColorMatrix in="SourceAlpha" result="hardAlpha" values="0 0 0 0 0 0 0 0 0 0 0 0 0 0 0 0 0 0 127 0"/><feOffset dx="-.099" dy="-.396"/><feGaussianBlur stdDeviation=".099"/><feComposite in2="hardAlpha" k2="-1" k3="1" operator="arithmetic"/><feColorMatrix values="0 0 0 0 0.833333 0 0 0 0 0.833333 0 0 0 0 0.833333 0 0 0 1 0"/><feBlend in2="effect1_innerShadow_27086_176086" result="effect2_innerShadow_27086_176086"/></filter><filter id="filter3_dii_27086_176086" width="41.608" height="42.974" x="66.507" y="7.482" color-interpolation-filters="sRGB" filterUnits="userSpaceOnUse"><feFlood flood-opacity="0" result="BackgroundImageFix"/><feColorMatrix in="SourceAlpha" result="hardAlpha" values="0 0 0 0 0 0 0 0 0 0 0 0 0 0 0 0 0 0 127 0"/><feOffset dy=".864"/><feGaussianBlur stdDeviation=".432"/><feColorMatrix values="0 0 0 0 0 0 0 0 0 0 0 0 0 0 0 0 0 0 0.25 0"/><feBlend in2="BackgroundImageFix" result="effect1_dropShadow_27086_176086"/><feBlend in="SourceGraphic" in2="effect1_dropShadow_27086_176086" result="shape"/><feColorMatrix in="SourceAlpha" result="hardAlpha" values="0 0 0 0 0 0 0 0 0 0 0 0 0 0 0 0 0 0 127 0"/><feOffset dy=".777"/><feGaussianBlur stdDeviation=".302"/><feComposite in2="hardAlpha" k2="-1" k3="1" operator="arithmetic"/><feColorMatrix values="0 0 0 0 1 0 0 0 0 0.838871 0 0 0 0 0.691667 0 0 0 1 0"/><feBlend in2="shape" result="effect2_innerShadow_27086_176086"/><feColorMatrix in="SourceAlpha" result="hardAlpha" values="0 0 0 0 0 0 0 0 0 0 0 0 0 0 0 0 0 0 127 0"/><feOffset dx="-.086" dy="-.777"/><feGaussianBlur stdDeviation=".259"/><feComposite in2="hardAlpha" k2="-1" k3="1" operator="arithmetic"/><feColorMatrix values="0 0 0 0 0.808333 0 0 0 0 0.461597 0 0 0 0 0.144826 0 0 0 1 0"/><feBlend in2="effect2_innerShadow_27086_176086" result="effect3_innerShadow_27086_176086"/></filter><filter id="filter4_d_27086_176086" width="29.85" height="29.849" x="72.387" y="14.281" color-interpolation-filters="sRGB" filterUnits="userSpaceOnUse"><feFlood flood-opacity="0" result="BackgroundImageFix"/><feColorMatrix in="SourceAlpha" result="hardAlpha" values="0 0 0 0 0 0 0 0 0 0 0 0 0 0 0 0 0 0 127 0"/><feOffset dy=".841"/><feGaussianBlur stdDeviation=".421"/><feColorMatrix values="0 0 0 0 0 0 0 0 0 0 0 0 0 0 0 0 0 0 0.25 0"/><feBlend in2="BackgroundImageFix" result="effect1_dropShadow_27086_176086"/><feBlend in="SourceGraphic" in2="effect1_dropShadow_27086_176086" result="shape"/></filter><radialGradient id="paint5_radial_27086_176086" cx="0" cy="0" r="1" gradientTransform="rotate(-15.177 61.427 -36.331) scale(10.3404)" gradientUnits="userSpaceOnUse"><stop stop-color="#E6C6FF"/><stop offset=".188" stop-color="#C07DF5"/><stop offset=".318" stop-color="#BE6FFC"/><stop offset=".49" stop-color="#B56AF0"/><stop offset=".651" stop-color="#A745F4"/><stop offset=".948" stop-color="#9F3DED"/></radialGradient><radialGradient id="paint6_radial_27086_176086" cx="0" cy="0" r="1" gradientTransform="rotate(-15.177 375.012 -264.12) scale(13.5476)" gradientUnits="userSpaceOnUse"><stop stop-color="#FFF1CF"/><stop offset=".188" stop-color="#FFE4A2"/><stop offset=".318" stop-color="#FFD364"/><stop offset=".49" stop-color="#FFD364"/><stop offset=".651" stop-color="#FFC73A"/><stop offset=".948" stop-color="#D09500"/></radialGradient><radialGradient id="paint7_radial_27086_176086" cx="0" cy="0" r="1" gradientTransform="rotate(121.889 16.833 67.546) scale(2.96701 2.70207)" gradientUnits="userSpaceOnUse"><stop stop-color="#fff"/><stop offset=".694" stop-color="#fff" stop-opacity="0"/></radialGradient></defs></svg>