<svg xmlns="http://www.w3.org/2000/svg" width="176" height="160" fill="none" viewBox="0 0 176 160"><mask id="fs-09sicorqya" style="mask-type:alpha" width="161" height="160" x="4" y="0" maskUnits="userSpaceOnUse"><path fill="url(#paint0_linear_163_33613)" d="M84.545 159.654c44.087 0 79.827-35.74 79.827-79.827C164.372 35.74 128.632 0 84.545 0 40.458 0 4.718 35.74 4.718 79.827c0 44.087 35.74 79.827 79.827 79.827z"/></mask><g mask="url(#fs-09sicorqya)"><path fill="url(#paint1_linear_163_33613)" d="M83.535 158.721c44.081 0 79.816-35.531 79.816-79.36C163.351 35.53 127.616 0 83.535 0 39.453 0 3.718 35.53 3.718 79.36s35.735 79.361 79.817 79.361z"/><path fill="#fff" d="M110.524 42.66a5 5 0 00-5 5v196.6h201.599V42.66H110.524zm196.007 12.533h-12.038V43.154h12.038v12.039zm-99.96 75.39v-12.039h12.038v12.039h-12.038zm12.038.592v12.038h-12.038v-12.038h12.038zm-12.532-.592h-12.038v-12.039h12.038v12.039zm0 .592v12.038h-12.038v-12.038h12.038zm-12.631 12.038h-12.038v-12.038h12.038v12.038zm0 .494v12.039h-12.038v-12.039h12.038zm.593 0h12.038v12.039h-12.038v-12.039zm12.038 12.532v12.039h-12.038v-12.039h12.038zm.494 0h12.038v12.039h-12.038v-12.039zm0-.493v-12.039h12.038v12.039h-12.038zm12.532-12.039h12.038v12.039h-12.038v-12.039zm0-.494v-12.038h12.038v12.038h-12.038zm0-12.63v-12.039h12.038v12.039h-12.038zm0-12.532v-12.039h12.038v12.039h-12.038zm-.494 0h-12.038v-12.039h12.038v12.039zm-12.532 0h-12.038v-12.039h12.038v12.039zm-12.631 0h-12.038v-12.039h12.038v12.039zm0 .493v12.039h-12.038v-12.039h12.038zm-12.532 12.039h-12.038v-12.039h12.038v12.039zm0 .592v12.038h-12.038v-12.038h12.038zm0 12.532v12.039h-12.038v-12.039h12.038zm0 12.532v12.039h-12.038v-12.039h12.038zm.494 0h12.038v12.039h-12.038v-12.039zm12.038 12.631v12.038h-12.038V168.87h12.038zm.593 0h12.038v12.038h-12.038V168.87zm12.532 0h12.038v12.038h-12.038V168.87zm12.532 0h12.038v12.038h-12.038V168.87zm0-.592v-12.039h12.038v12.039h-12.038zm12.631-12.039h12.038v12.039h-12.038v-12.039zm0-.493v-12.039h12.038v12.039h-12.038zm0-12.533v-12.038h12.038v12.038h-12.038zm0-12.63v-12.039h12.038v12.039h-12.038zm0-12.532v-12.039h12.038v12.039h-12.038zm0-12.532v-12.04h12.038v12.04h-12.038zm-.593 0h-12.038v-12.04h12.038v12.04zm-12.532 0h-12.038v-12.04h12.038v12.04zm-12.532 0h-12.038v-12.04h12.038v12.04zm-12.631 0h-12.038v-12.04h12.038v12.04zm-12.532 0h-12.038v-12.04h12.038v12.04zm0 .493v12.039h-12.038v-12.039h12.038zm-12.532 12.039h-12.038v-12.039h12.038v12.039zm0 .493v12.039h-12.038v-12.039h12.038zm0 12.631v12.038h-12.038v-12.038h12.038zm0 12.532v12.039h-12.038v-12.039h12.038zm0 12.532v12.039h-12.038v-12.039h12.038zm0 12.631v12.038h-12.038V168.87h12.038zm.494 0h12.038v12.038h-12.038V168.87zm12.038 12.532v12.039h-12.038v-12.039h12.038zm.494 0h12.038v12.039h-12.038v-12.039zm12.631 0h12.038v12.039h-12.038v-12.039zm12.532 0h12.038v12.039h-12.038v-12.039zm12.532 0h12.038v12.039h-12.038v-12.039zm12.631 0h12.038v12.039h-12.038v-12.039zm0-.494V168.87h12.038v12.038h-12.038zm12.532-12.038h12.038v12.038h-12.038V168.87zm0-.592v-12.039h12.038v12.039h-12.038zm0-12.532v-12.039h12.038v12.039h-12.038zm0-12.533v-12.038h12.038v12.038h-12.038zm0-12.63v-12.039h12.038v12.039h-12.038zm0-12.532v-12.039h12.038v12.039h-12.038zm0-12.532v-12.04h12.038v12.04h-12.038zm0-12.631V80.849h12.038v12.039h-12.038zm-.494 0h-12.038V80.849h12.038v12.039zm-12.631 0h-12.038V80.849h12.038v12.039zm-12.532 0h-12.038V80.849h12.038v12.039zm-12.532 0h-12.038V80.849h12.038v12.039zm-12.631 0h-12.038V80.849h12.038v12.039zm-12.532 0h-12.038V80.849h12.038v12.039zm-12.532 0h-12.038V80.849h12.038v12.039zm0 .592v12.039h-12.038v-12.04h12.038zm-12.631 12.039h-12.038v-12.04h12.038v12.04zm0 .493v12.039h-12.038v-12.039h12.038zm0 12.532v12.039h-12.038v-12.039h12.038zm0 12.631v12.038h-12.038v-12.038h12.038zm0 12.532v12.039h-12.038v-12.039h12.038zm0 12.532v12.039h-12.038v-12.039h12.038zm0 12.631v12.038h-12.038V168.87h12.038zm0 12.532v12.039h-12.038v-12.039h12.038zm.593 0h12.038v12.039h-12.038v-12.039zm12.038 12.532v12.039h-12.038v-12.039h12.038zm.494 0h12.038v12.039h-12.038v-12.039zm12.532 0h12.038v12.039h-12.038v-12.039zm12.631 0h12.038v12.039h-12.038v-12.039zm12.532 0h12.038v12.039h-12.038v-12.039zm12.532 0h12.038v12.039h-12.038v-12.039zm12.631 0h12.038v12.039h-12.038v-12.039zm12.532 0h12.038v12.039h-12.038v-12.039zm0-.493v-12.039h12.038v12.039h-12.038zm12.532-12.039h12.038v12.039h-12.038v-12.039zm0-.494V168.87h12.038v12.038h-12.038zm0-12.63v-12.039h12.038v12.039h-12.038zm0-12.532v-12.039h12.038v12.039h-12.038zm0-12.533v-12.038h12.038v12.038h-12.038zm0-12.63v-12.039h12.038v12.039h-12.038zm0-12.532v-12.039h12.038v12.039h-12.038zm0-12.532v-12.04h12.038v12.04h-12.038zm0-12.631V80.849h12.038v12.039h-12.038zm0-12.532v-12.04h12.038v12.04h-12.038zm-.494 0h-12.038v-12.04h12.038v12.04zm-12.532 0h-12.038v-12.04h12.038v12.04zm-12.631 0h-12.038v-12.04h12.038v12.04zm-12.532 0h-12.038v-12.04h12.038v12.04zm-12.532 0h-12.038v-12.04h12.038v12.04zm-12.631 0h-12.038v-12.04h12.038v12.04zm-12.532 0h-12.038v-12.04h12.038v12.04zm-12.532 0h-12.038v-12.04h12.038v12.04zm-12.631 0h-12.038v-12.04h12.038v12.04zm0 .493v12.039h-12.038V80.849h12.038zm-12.532 12.039h-12.038V80.849h12.038v12.039zm0 .592v12.039h-12.038v-12.04h12.038zm0 12.532v12.039h-12.038v-12.039h12.038zm0 12.532v12.039h-12.038v-12.039h12.038zm0 12.631v12.038h-12.038v-12.038h12.038zm0 12.532v12.039h-12.038v-12.039h12.038zm0 12.532v12.039h-12.038v-12.039h12.038zm0 12.631v12.038h-12.038V168.87h12.038zm0 12.532v12.039h-12.038v-12.039h12.038zm0 12.532v12.039h-12.038v-12.039h12.038zm.494 0h12.038v12.039h-12.038v-12.039zm12.038 12.631v12.038h-12.038v-12.038h12.038zm.593 0h12.038v12.038h-12.038v-12.038zm12.532 0h12.038v12.038h-12.038v-12.038zm12.532 0h12.038v12.038h-12.038v-12.038zm12.631 0h12.038v12.038h-12.038v-12.038zm12.532 0h12.038v12.038h-12.038v-12.038zm12.532 0h12.038v12.038h-12.038v-12.038zm12.631 0h12.038v12.038h-12.038v-12.038zm12.532 0h12.038v12.038h-12.038v-12.038zm12.532 0h12.038v12.038h-12.038v-12.038zm0-.592v-12.039h12.038v12.039h-12.038zm12.63-12.039h12.039v12.039h-12.039v-12.039zm0-.493v-12.039h12.039v12.039h-12.039zm0-12.533V168.87h12.039v12.038h-12.039zm0-12.63v-12.039h12.039v12.039h-12.039zm0-12.532v-12.039h12.039v12.039h-12.039zm0-12.533v-12.038h12.039v12.038h-12.039zm0-12.63v-12.039h12.039v12.039h-12.039zm0-12.532v-12.039h12.039v12.039h-12.039zm0-12.532v-12.04h12.039v12.04h-12.039zm0-12.631V80.849h12.039v12.039h-12.039zm0-12.532v-12.04h12.039v12.04h-12.039zm0-12.532v-12.04h12.039v12.04h-12.039zm-.592 0h-12.038v-12.04h12.038v12.04zm-12.532 0h-12.038v-12.04h12.038v12.04zm-12.532 0h-12.038v-12.04h12.038v12.04zm-12.631 0h-12.038v-12.04h12.038v12.04zm-12.532 0h-12.038v-12.04h12.038v12.04zm-12.532 0h-12.038v-12.04h12.038v12.04zm-12.631 0h-12.038v-12.04h12.038v12.04zm-12.532 0h-12.038v-12.04h12.038v12.04zm-12.532 0h-12.038v-12.04h12.038v12.04zm-12.631 0h-12.038v-12.04h12.038v12.04zm-12.532 0h-12.038v-12.04h12.038v12.04zm0 .493v12.039h-12.038v-12.04h12.038zm-12.532 12.039h-12.038v-12.04h12.038v12.04zm0 .493v12.039h-12.038V80.849h12.038zm0 12.63v12.04h-12.038v-12.04h12.038zm0 12.533v12.039h-12.038v-12.039h12.038zm0 12.532v12.039h-12.038v-12.039h12.038zm0 12.631v12.038h-12.038v-12.038h12.038zm0 12.532v12.039h-12.038v-12.039h12.038zm0 12.532v12.039h-12.038v-12.039h12.038zm0 12.631v12.038h-12.038V168.87h12.038zm0 12.532v12.039h-12.038v-12.039h12.038zm0 12.532v12.039h-12.038v-12.039h12.038zm0 12.631v12.038h-12.038v-12.038h12.038zm.494 0h12.038v12.038h-12.038v-12.038zm12.038 12.532v12.039h-12.038v-12.039h12.038zm.494 0h12.038v12.039h-12.038v-12.039zm12.631 0h12.038v12.039h-12.038v-12.039zm12.532 0h12.038v12.039h-12.038v-12.039zm12.532 0h12.038v12.039h-12.038v-12.039zm12.631 0h12.038v12.039h-12.038v-12.039zm12.532 0h12.038v12.039h-12.038v-12.039zm12.532 0h12.038v12.039h-12.038v-12.039zm12.631 0h12.038v12.039h-12.038v-12.039zm12.532 0h12.038v12.039h-12.038v-12.039zm12.532 0h12.038v12.039h-12.038v-12.039zm12.63 0h12.039v12.039h-12.039v-12.039zm0-.494v-12.038h12.039v12.038h-12.039zm12.533-12.038h12.038v12.038h-12.038v-12.038zm0-.592v-12.039h12.038v12.039h-12.038zm0-12.532v-12.039h12.038v12.039h-12.038zm0-12.533V168.87h12.038v12.038h-12.038zm0-12.63v-12.039h12.038v12.039h-12.038zm0-12.532v-12.039h12.038v12.039h-12.038zm0-12.533v-12.038h12.038v12.038h-12.038zm0-12.63v-12.039h12.038v12.039h-12.038zm0-12.532v-12.039h12.038v12.039h-12.038zm0-12.532v-12.04h12.038v12.04h-12.038zm0-12.631V80.849h12.038v12.039h-12.038zm0-12.532v-12.04h12.038v12.04h-12.038zm0-12.532v-12.04h12.038v12.04h-12.038zm0-12.631V43.154h12.038v12.039h-12.038zm-.494 0h-12.039V43.154h12.039v12.039zm-12.631 0h-12.038V43.154h12.038v12.039zm-12.532 0h-12.038V43.154h12.038v12.039zm-12.532 0h-12.038V43.154h12.038v12.039zm-12.631 0h-12.038V43.154h12.038v12.039zm-12.532 0h-12.038V43.154h12.038v12.039zm-12.532 0h-12.038V43.154h12.038v12.039zm-12.631 0h-12.038V43.154h12.038v12.039zm-12.532 0h-12.038V43.154h12.038v12.039zm-12.532 0h-12.038V43.154h12.038v12.039zm-12.631 0h-12.038V43.154h12.038v12.039zm-12.532 0h-12.038V43.154h12.038v12.039zm-12.532 0h-12.038V43.154h12.038v12.039zm0 .592v12.038h-12.038V55.785h12.038zm-12.63 12.038h-12.039V55.785h12.039v12.038zm0 .494v12.039h-12.039v-12.04h12.039zm0 12.532v12.039h-12.039V80.849h12.039zm0 12.63v12.04h-12.039v-12.04h12.039zm0 12.533v12.039h-12.039v-12.039h12.039zm0 12.532v12.039h-12.039v-12.039h12.039zm0 12.631v12.038h-12.039v-12.038h12.039zm0 12.532v12.039h-12.039v-12.039h12.039zm0 12.532v12.039h-12.039v-12.039h12.039zm0 12.631v12.038h-12.039V168.87h12.039zm0 12.532v12.039h-12.039v-12.039h12.039zm0 12.532v12.039h-12.039v-12.039h12.039zm0 12.631v12.038h-12.039v-12.038h12.039zm0 12.532v12.039h-12.039v-12.039h12.039zm.592 0h12.038v12.039h-12.038v-12.039zm12.038 12.532v12.039h-12.038v-12.039h12.038zm.494 0h12.038v12.039h-12.038v-12.039zm12.532 0h12.038v12.039h-12.038v-12.039zm12.631 0h12.038v12.039h-12.038v-12.039zm12.532 0h12.038v12.039h-12.038v-12.039zm12.532 0h12.038v12.039h-12.038v-12.039zm12.631 0h12.038v12.039h-12.038v-12.039zm12.532 0h12.038v12.039h-12.038v-12.039zm12.532 0h12.038v12.039h-12.038v-12.039zm12.631 0h12.038v12.039h-12.038v-12.039zm12.532 0h12.038v12.039h-12.038v-12.039zm12.532 0h12.038v12.039h-12.038v-12.039zm12.63 0h12.039v12.039h-12.039v-12.039zm12.533 0h12.038v12.039h-12.038v-12.039zm0-.493v-12.039h12.038v12.039h-12.038zm12.532-12.039h12.038v12.039h-12.038v-12.039zm0-.494v-12.038h12.038v12.038h-12.038zm0-12.63v-12.039h12.038v12.039h-12.038zm0-12.532v-12.039h12.038v12.039h-12.038zm0-12.533V168.87h12.038v12.038h-12.038zm0-12.63v-12.039h12.038v12.039h-12.038zm0-12.532v-12.039h12.038v12.039h-12.038zm0-12.533v-12.038h12.038v12.038h-12.038zm0-12.63v-12.039h12.038v12.039h-12.038zm0-12.532v-12.039h12.038v12.039h-12.038zm0-12.532v-12.04h12.038v12.04h-12.038zm0-12.631V80.849h12.038v12.039h-12.038zm0-12.532v-12.04h12.038v12.04h-12.038zm0-12.532v-12.04h12.038v12.04h-12.038zm-176.436-24.67v12.039h-12.039v-7.039a5 5 0 015-5h7.039zm-12.039 188.475h12.039v12.039h-12.039v-12.039zm188.475 12.039v-12.039h12.038v12.039h-12.038z"/></g><g filter="url(#filter0_dii_163_33613)"><rect width="87.656" height="87.656" x="40.716" y="37.968" fill="url(#paint2_linear_163_33613)" rx="2.407"/></g><g filter="url(#filter1_i_163_33613)"><rect width="90.16" height="20.393" x="39.533" y="37.968" fill="url(#paint3_linear_163_33613)" rx="2.4"/></g><rect width="46.828" height="4.05" x="68.625" y="70.898" fill="#92A2B1" rx="2.025"/><rect width="6.184" height="4.05" x="56.394" y="70.898" fill="#92A2B1" rx="2.025"/><rect width="6.184" height="4.05" x="56.394" y="88.331" fill="#92A2B1" rx="2.025"/><rect width="6.184" height="4.05" x="56.394" y="105.75" fill="#92A2B1" rx="2.025"/><path fill="#92A2B1" d="M68.625 90.356c0-1.118.907-2.025 2.025-2.025h34.454a2.025 2.025 0 010 4.05H70.65a2.025 2.025 0 01-2.025-2.025z"/><rect width="46.828" height="4.05" x="68.625" y="105.75" fill="#92A2B1" rx="2.025"/><path fill="url(#paint4_radial_163_33613)" d="M34.273 30.74c5.629 0 10.192-4.563 10.192-10.191 0-5.63-4.563-10.192-10.192-10.192-5.629 0-10.192 4.563-10.192 10.192 0 5.628 4.564 10.191 10.192 10.191z"/><path fill="url(#paint5_radial_163_33613)" d="M28.378 20.051c-1.846-1.136-2.308-3.728-1.03-5.753 1.244-2.024 3.765-2.77 5.611-1.633 1.847 1.136 2.309 3.729 1.03 5.753-1.278 2.06-3.8 2.77-5.61 1.633z" opacity=".5"/><path fill="url(#paint6_radial_163_33613)" d="M167.35 86.166a7.78 7.78 0 100-15.558 7.78 7.78 0 000 15.558z"/><path fill="url(#paint7_radial_163_33613)" d="M162.85 78.008c-1.409-.867-1.762-2.846-.786-4.39.949-1.546 2.873-2.115 4.283-1.248 1.409.868 1.761 2.846.786 4.391-.976 1.572-2.901 2.114-4.283 1.247z" opacity=".5"/><g filter="url(#filter2_f_163_33613)"><ellipse cx="78.49" cy="137.832" fill="#000" fill-opacity=".37" rx="76.49" ry=".405"/></g><g filter="url(#filter3_i_163_33613)"><path fill="url(#paint8_linear_163_33613)" d="M150.487 116.588c-.049-.012-.101-.021-.137-.056-.763-.729 1.494-10.653 1.708-11.395 1.091-3.767 2.898-7.433 5.803-10.122 2.057-1.904 7.551-5.628 10.403-3.44 2.402 1.849.151 6.488-.956 8.428-1.986 3.449-4.912 6.244-7.411 9.303-1.491 1.83-2.989 3.695-4.48 5.524-.097.126-.852 1.197-1.416 1.895-.362.448-.888.529-1.446.388l-2.068-.525z"/></g><g filter="url(#filter4_i_163_33613)"><path fill="url(#paint9_linear_163_33613)" d="M153.749 119.605c1.22.263 2.306-.774 2.051-1.995-1.4-6.718-6.041-24.235-15.871-21.043-8.933 2.932 10.266 20.208 13.047 22.655.223.196.482.321.773.383z"/></g><path fill="#77FFE4" fill-opacity=".2" d="M142.605 100.06s11.496 15.004 11.628 18.178l-11.628-18.178zM164.865 94.536s-9.446 12.05-10.473 17.398l10.473-17.398z"/><path fill="url(#paint10_linear_163_33613)" d="M142.061 116.644a2.35 2.35 0 012.339-2.576h15.931a2.35 2.35 0 012.339 2.576l-1.775 18.413a2.35 2.35 0 01-2.339 2.125h-12.381a2.35 2.35 0 01-2.339-2.125l-1.775-18.413z"/><g filter="url(#filter5_i_163_33613)"><rect width="22.63" height="5.571" x="141.051" y="114.068" fill="url(#paint11_linear_163_33613)" rx="1.175"/></g><defs><linearGradient id="paint0_linear_163_33613" x1="84.545" x2="84.545" y1="0" y2="159.654" gradientUnits="userSpaceOnUse"><stop stop-color="#B5EFFF"/><stop offset="1" stop-color="#E7F8FE"/></linearGradient><linearGradient id="paint1_linear_163_33613" x1="83.535" x2="83.535" y1="0" y2="158.721" gradientUnits="userSpaceOnUse"><stop stop-color="#B5EFFF"/><stop offset="1" stop-color="#EDFBFF"/></linearGradient><linearGradient id="paint2_linear_163_33613" x1="48.014" x2="78.841" y1="37.968" y2="127.587" gradientUnits="userSpaceOnUse"><stop stop-color="#F2F2F2"/><stop offset="1" stop-color="#F8F8F8"/></linearGradient><linearGradient id="paint3_linear_163_33613" x1="129.692" x2="121.707" y1="37.968" y2="75.991" gradientUnits="userSpaceOnUse"><stop stop-color="#FFD060"/><stop offset=".984" stop-color="#EFB222"/></linearGradient><linearGradient id="paint8_linear_163_33613" x1="172.104" x2="150.79" y1="91.319" y2="110.46" gradientUnits="userSpaceOnUse"><stop stop-color="#BAFFF1" stop-opacity=".26"/><stop offset=".682" stop-color="#4DC7AE"/><stop offset=".969" stop-color="#06896F"/></linearGradient><linearGradient id="paint9_linear_163_33613" x1="162.622" x2="149.66" y1="98.747" y2="120.576" gradientUnits="userSpaceOnUse"><stop stop-color="#B7FDEF"/><stop offset=".682" stop-color="#09B794"/><stop offset=".969" stop-color="#7EE0CC"/></linearGradient><linearGradient id="paint10_linear_163_33613" x1="162.918" x2="143.319" y1="129.284" y2="129.284" gradientUnits="userSpaceOnUse"><stop offset=".099" stop-color="#FFEEC5"/><stop offset=".607" stop-color="#FACD63"/><stop offset=".839" stop-color="#EAAF23"/><stop offset=".984" stop-color="#EDB52F"/></linearGradient><linearGradient id="paint11_linear_163_33613" x1="163.681" x2="142.666" y1="117.735" y2="117.735" gradientUnits="userSpaceOnUse"><stop offset=".099" stop-color="#FFEEC5"/><stop offset=".607" stop-color="#FCBD27"/><stop offset=".984" stop-color="#EFB222"/></linearGradient><filter id="filter0_dii_163_33613" width="92.471" height="92.471" x="38.309" y="37.166" color-interpolation-filters="sRGB" filterUnits="userSpaceOnUse"><feFlood flood-opacity="0" result="BackgroundImageFix"/><feColorMatrix in="SourceAlpha" result="hardAlpha" values="0 0 0 0 0 0 0 0 0 0 0 0 0 0 0 0 0 0 127 0"/><feOffset dy="1.605"/><feGaussianBlur stdDeviation="1.203"/><feColorMatrix values="0 0 0 0 0 0 0 0 0 0 0 0 0 0 0 0 0 0 0.25 0"/><feBlend in2="BackgroundImageFix" result="effect1_dropShadow_163_33613"/><feBlend in="SourceGraphic" in2="effect1_dropShadow_163_33613" result="shape"/><feColorMatrix in="SourceAlpha" result="hardAlpha" values="0 0 0 0 0 0 0 0 0 0 0 0 0 0 0 0 0 0 127 0"/><feOffset dx=".802" dy=".883"/><feGaussianBlur stdDeviation=".481"/><feComposite in2="hardAlpha" k2="-1" k3="1" operator="arithmetic"/><feColorMatrix values="0 0 0 0 1 0 0 0 0 1 0 0 0 0 1 0 0 0 1 0"/><feBlend in2="shape" result="effect2_innerShadow_163_33613"/><feColorMatrix in="SourceAlpha" result="hardAlpha" values="0 0 0 0 0 0 0 0 0 0 0 0 0 0 0 0 0 0 127 0"/><feOffset dx="-.802" dy="-.481"/><feGaussianBlur stdDeviation=".08"/><feComposite in2="hardAlpha" k2="-1" k3="1" operator="arithmetic"/><feColorMatrix values="0 0 0 0 0.833333 0 0 0 0 0.833333 0 0 0 0 0.833333 0 0 0 1 0"/><feBlend in2="effect2_innerShadow_163_33613" result="effect3_innerShadow_163_33613"/></filter><filter id="filter1_i_163_33613" width="90.719" height="20.812" x="39.533" y="37.549" color-interpolation-filters="sRGB" filterUnits="userSpaceOnUse"><feFlood flood-opacity="0" result="BackgroundImageFix"/><feBlend in="SourceGraphic" in2="BackgroundImageFix" result="shape"/><feColorMatrix in="SourceAlpha" result="hardAlpha" values="0 0 0 0 0 0 0 0 0 0 0 0 0 0 0 0 0 0 127 0"/><feOffset dx=".559" dy="-.419"/><feGaussianBlur stdDeviation=".489"/><feComposite in2="hardAlpha" k2="-1" k3="1" operator="arithmetic"/><feColorMatrix values="0 0 0 0 0.833333 0 0 0 0 0.604343 0 0 0 0 0.0555555 0 0 0 1 0"/><feBlend in2="shape" result="effect1_innerShadow_163_33613"/></filter><filter id="filter2_f_163_33613" width="156.224" height="4.054" x=".378" y="135.805" color-interpolation-filters="sRGB" filterUnits="userSpaceOnUse"><feFlood flood-opacity="0" result="BackgroundImageFix"/><feBlend in="SourceGraphic" in2="BackgroundImageFix" result="shape"/><feGaussianBlur result="effect1_foregroundBlur_163_33613" stdDeviation=".811"/></filter><filter id="filter3_i_163_33613" width="20.265" height="26.7" x="150.193" y="90.477" color-interpolation-filters="sRGB" filterUnits="userSpaceOnUse"><feFlood flood-opacity="0" result="BackgroundImageFix"/><feBlend in="SourceGraphic" in2="BackgroundImageFix" result="shape"/><feColorMatrix in="SourceAlpha" result="hardAlpha" values="0 0 0 0 0 0 0 0 0 0 0 0 0 0 0 0 0 0 127 0"/><feOffset dx="1.127" dy="-.431"/><feGaussianBlur stdDeviation="1.469"/><feComposite in2="hardAlpha" k2="-1" k3="1" operator="arithmetic"/><feColorMatrix values="0 0 0 0 0.113056 0 0 0 0 0.616667 0 0 0 0 0.58645 0 0 0 1 0"/><feBlend in2="shape" result="effect1_innerShadow_163_33613"/></filter><filter id="filter4_i_163_33613" width="19.387" height="23.895" x="137.578" y="95.751" color-interpolation-filters="sRGB" filterUnits="userSpaceOnUse"><feFlood flood-opacity="0" result="BackgroundImageFix"/><feBlend in="SourceGraphic" in2="BackgroundImageFix" result="shape"/><feColorMatrix in="SourceAlpha" result="hardAlpha" values="0 0 0 0 0 0 0 0 0 0 0 0 0 0 0 0 0 0 127 0"/><feOffset dx="1.127" dy="-.431"/><feGaussianBlur stdDeviation="1.469"/><feComposite in2="hardAlpha" k2="-1" k3="1" operator="arithmetic"/><feColorMatrix values="0 0 0 0 0.0996528 0 0 0 0 0.683333 0 0 0 0 0.555806 0 0 0 1 0"/><feBlend in2="shape" result="effect1_innerShadow_163_33613"/></filter><filter id="filter5_i_163_33613" width="23.1" height="5.924" x="141.051" y="113.715" color-interpolation-filters="sRGB" filterUnits="userSpaceOnUse"><feFlood flood-opacity="0" result="BackgroundImageFix"/><feBlend in="SourceGraphic" in2="BackgroundImageFix" result="shape"/><feColorMatrix in="SourceAlpha" result="hardAlpha" values="0 0 0 0 0 0 0 0 0 0 0 0 0 0 0 0 0 0 127 0"/><feOffset dx=".47" dy="-.353"/><feGaussianBlur stdDeviation=".411"/><feComposite in2="hardAlpha" k2="-1" k3="1" operator="arithmetic"/><feColorMatrix values="0 0 0 0 0.833333 0 0 0 0 0.604343 0 0 0 0 0.0555555 0 0 0 1 0"/><feBlend in2="shape" result="effect1_innerShadow_163_33613"/></filter><radialGradient id="paint4_radial_163_33613" cx="0" cy="0" r="1" gradientTransform="rotate(-15.177 76.387 -102.218) scale(19.4355)" gradientUnits="userSpaceOnUse"><stop stop-color="#FFF1CF"/><stop offset=".188" stop-color="#FFE4A2"/><stop offset=".318" stop-color="#FFD364"/><stop offset=".49" stop-color="#FFD364"/><stop offset=".651" stop-color="#FFC73A"/><stop offset=".948" stop-color="#D09500"/></radialGradient><radialGradient id="paint5_radial_163_33613" cx="0" cy="0" r="1" gradientTransform="matrix(-2.2486 3.61408 -3.29135 -2.0478 30.643 16.388)" gradientUnits="userSpaceOnUse"><stop stop-color="#fff"/><stop offset=".694" stop-color="#fff" stop-opacity="0"/></radialGradient><radialGradient id="paint6_radial_163_33613" cx="0" cy="0" r="1" gradientTransform="rotate(-15.177 364.226 -576.559) scale(14.8345)" gradientUnits="userSpaceOnUse"><stop stop-color="#E6C6FF"/><stop offset=".188" stop-color="#C07DF5"/><stop offset=".318" stop-color="#BE6FFC"/><stop offset=".49" stop-color="#B56AF0"/><stop offset=".651" stop-color="#A745F4"/><stop offset=".948" stop-color="#9F3DED"/></radialGradient><radialGradient id="paint7_radial_163_33613" cx="0" cy="0" r="1" gradientTransform="rotate(121.889 61.396 83.324) scale(3.24885 2.95873)" gradientUnits="userSpaceOnUse"><stop stop-color="#fff"/><stop offset=".694" stop-color="#fff" stop-opacity="0"/></radialGradient></defs></svg>