<svg xmlns="http://www.w3.org/2000/svg" width="102" height="86" fill="none" viewBox="0 0 102 86"><mask id="fs-clkor688va" style="mask-type:alpha" width="92" height="86" x="7" y="0" maskUnits="userSpaceOnUse"><path fill="url(#paint0_linear_15_142498)" d="M52.783 86c25.145 0 45.53-19.252 45.53-43S77.928 0 52.783 0 7.253 19.252 7.253 43s20.385 43 45.53 43z"/></mask><g mask="url(#fs-clkor688va)"><path fill="url(#paint1_linear_15_142498)" d="M52.207 85.498c25.142 0 45.524-19.14 45.524-42.75C97.73 19.14 77.349 0 52.207 0S6.683 19.14 6.683 42.749c0 23.61 20.382 42.749 45.524 42.749z"/><path fill="#fff" d="M67.802 22.98a3.053 3.053 0 00-3.053 3.054v105.541h114.983V22.981H67.802zm111.592 6.751h-6.866v-6.485h6.866v6.485zm-57.013 40.61v-6.485h6.867v6.485h-6.867zm6.867.319v6.485h-6.867V70.66h6.867zm-7.148-.319h-6.866v-6.485h6.866v6.485zm0 .319v6.485h-6.866V70.66h6.866zm-7.204 6.485h-6.866V70.66h6.866v6.485zm0 .266v6.484h-6.866v-6.484h6.866zm.338 0h6.866v6.484h-6.866v-6.484zm6.866 6.75v6.485h-6.866v-6.485h6.866zm.281 0h6.867v6.485h-6.867v-6.485zm0-.266v-6.484h6.867v6.484h-6.867zm7.148-6.484h6.866v6.484h-6.866v-6.484zm0-.266V70.66h6.866v6.485h-6.866zm0-6.804v-6.485h6.866v6.485h-6.866zm0-6.75v-6.485h6.866v6.484h-6.866zm-.281 0h-6.867v-6.485h6.867v6.484zm-7.148 0h-6.866v-6.485h6.866v6.484zm-7.204 0h-6.866v-6.485h6.866v6.484zm0 .265v6.485h-6.866v-6.485h6.866zm-7.148 6.485h-6.866v-6.485h6.866v6.485zm0 .319v6.485h-6.866V70.66h6.866zm0 6.75v6.485h-6.866v-6.484h6.866zm0 6.751v6.485h-6.866v-6.485h6.866zm.282 0h6.866v6.485h-6.866v-6.485zm6.866 6.804v6.485h-6.866v-6.485h6.866zm.338 0h6.866v6.485h-6.866v-6.485zm7.147 0h6.867v6.485h-6.867v-6.485zm7.148 0h6.866v6.485h-6.866v-6.485zm0-.319v-6.485h6.866v6.485h-6.866zm7.204-6.485h6.866v6.485h-6.866v-6.485zm0-.266v-6.484h6.866v6.484h-6.866zm0-6.75V70.66h6.866v6.485h-6.866zm0-6.804v-6.485h6.866v6.485h-6.866zm0-6.75v-6.485h6.866v6.484h-6.866zm0-6.751v-6.485h6.866v6.485h-6.866zm-.338 0h-6.866v-6.485h6.866v6.485zm-7.147 0h-6.867v-6.485h6.867v6.485zm-7.148 0h-6.866v-6.485h6.866v6.485zm-7.204 0h-6.866v-6.485h6.866v6.485zm-7.148 0h-6.866v-6.485h6.866v6.485zm0 .266v6.484h-6.866v-6.484h6.866zM100.6 63.59h-6.866v-6.484h6.866v6.484zm0 .266v6.485h-6.866v-6.485h6.866zm0 6.804v6.485h-6.866V70.66h6.866zm0 6.75v6.485h-6.866v-6.484h6.866zm0 6.751v6.485h-6.866v-6.485h6.866zm0 6.804v6.485h-6.866v-6.485h6.866zm.282 0h6.866v6.485h-6.866v-6.485zm6.866 6.75v6.485h-6.866v-6.484h6.866zm.282 0h6.866v6.485h-6.866v-6.484zm7.204 0h6.866v6.485h-6.866v-6.484zm7.147 0h6.867v6.485h-6.867v-6.484zm7.148 0h6.866v6.485h-6.866v-6.484zm7.204 0h6.866v6.485h-6.866v-6.484zm0-.265v-6.485h6.866v6.485h-6.866zm7.148-6.485h6.866v6.485h-6.866v-6.485zm0-.319v-6.485h6.866v6.485h-6.866zm0-6.75V77.41h6.866v6.484h-6.866zm0-6.751V70.66h6.866v6.485h-6.866zm0-6.804v-6.485h6.866v6.485h-6.866zm0-6.75v-6.485h6.866v6.484h-6.866zm0-6.751v-6.485h6.866v6.485h-6.866zm0-6.804v-6.485h6.866v6.485h-6.866zm-.282 0h-6.866v-6.485h6.866v6.485zm-7.204 0h-6.866v-6.485h6.866v6.485zm-7.147 0h-6.867v-6.485h6.867v6.485zm-7.148 0h-6.866v-6.485h6.866v6.485zm-7.204 0h-6.866v-6.485h6.866v6.485zm-7.148 0h-6.866v-6.485h6.866v6.485zm-7.148 0h-6.866v-6.485h6.866v6.485zm0 .319v6.485h-6.866v-6.485h6.866zm-7.204 6.485H86.53v-6.485h6.866v6.485zm0 .266v6.484H86.53v-6.484h6.866zm0 6.75v6.485H86.53v-6.485h6.866zm0 6.804v6.485H86.53V70.66h6.866zm0 6.75v6.485H86.53v-6.484h6.866zm0 6.751v6.485H86.53v-6.485h6.866zm0 6.804v6.485H86.53v-6.485h6.866zm0 6.75v6.485H86.53v-6.484h6.866zm.338 0h6.866v6.485h-6.866v-6.484zm6.866 6.751v6.485h-6.866v-6.485h6.866zm.282 0h6.866v6.485h-6.866v-6.485zm7.148 0h6.866v6.485h-6.866v-6.485zm7.204 0h6.866v6.485h-6.866v-6.485zm7.147 0h6.867v6.485h-6.867v-6.485zm7.148 0h6.866v6.485h-6.866v-6.485zm7.204 0h6.866v6.485h-6.866v-6.485zm7.148 0h6.866v6.485h-6.866v-6.485zm0-.266v-6.484h6.866v6.484h-6.866zm7.147-6.484h6.867v6.484h-6.867v-6.484zm0-.266v-6.485h6.867v6.485h-6.867zm0-6.804v-6.485h6.867v6.485h-6.867zm0-6.75V77.41h6.867v6.484h-6.867zm0-6.751V70.66h6.867v6.485h-6.867zm0-6.804v-6.485h6.867v6.485h-6.867zm0-6.75v-6.485h6.867v6.484h-6.867zm0-6.751v-6.485h6.867v6.485h-6.867zm0-6.804v-6.485h6.867v6.485h-6.867zm0-6.75V36.8h6.867v6.484h-6.867zm-.281 0h-6.866V36.8h6.866v6.484zm-7.148 0h-6.866V36.8h6.866v6.484zm-7.204 0h-6.866V36.8h6.866v6.484zm-7.147 0h-6.867V36.8h6.867v6.484zm-7.148 0h-6.866V36.8h6.866v6.484zm-7.204 0h-6.866V36.8h6.866v6.484zm-7.148 0h-6.866V36.8h6.866v6.484zm-7.148 0h-6.866V36.8h6.866v6.484zm-7.204 0H86.53V36.8h6.866v6.484zm0 .265v6.485H86.53v-6.485h6.866zm-7.147 6.485h-6.867v-6.485h6.867v6.485zm0 .319v6.485h-6.867v-6.485h6.867zm0 6.75v6.485h-6.867v-6.484h6.867zm0 6.751v6.485h-6.867v-6.485h6.867zm0 6.804v6.485h-6.867V70.66h6.867zm0 6.75v6.485h-6.867v-6.484h6.867zm0 6.751v6.485h-6.867v-6.485h6.867zm0 6.804v6.485h-6.867v-6.485h6.867zm0 6.75v6.485h-6.867v-6.484h6.867zm0 6.751v6.485h-6.867v-6.485h6.867zm.281 0h6.866v6.485H86.53v-6.485zm6.866 6.804v6.485H86.53v-6.485h6.866zm.338 0h6.866v6.485h-6.866v-6.485zm7.148 0h6.866v6.485h-6.866v-6.485zm7.148 0h6.866v6.485h-6.866v-6.485zm7.204 0h6.866v6.485h-6.866v-6.485zm7.147 0h6.867v6.485h-6.867v-6.485zm7.148 0h6.866v6.485h-6.866v-6.485zm7.204 0h6.866v6.485h-6.866v-6.485zm7.148 0h6.866v6.485h-6.866v-6.485zm7.147 0h6.867v6.485h-6.867v-6.485zm0-.319v-6.485h6.867v6.485h-6.867zm7.205-6.485h6.866v6.485h-6.866v-6.485zm0-.266v-6.484h6.866v6.484h-6.866zm0-6.75v-6.485h6.866v6.485h-6.866zm0-6.804v-6.485h6.866v6.485h-6.866zm0-6.75V77.41h6.866v6.484h-6.866zm0-6.751V70.66h6.866v6.485h-6.866zm0-6.804v-6.485h6.866v6.485h-6.866zm0-6.75v-6.485h6.866v6.484h-6.866zm0-6.751v-6.485h6.866v6.485h-6.866zm0-6.804v-6.485h6.866v6.485h-6.866zm0-6.75V36.8h6.866v6.484h-6.866zm0-6.751V30.05h6.866v6.485h-6.866zm-.338 0h-6.867V30.05h6.867v6.485zm-7.148 0h-6.866V30.05h6.866v6.485zm-7.148 0h-6.866V30.05h6.866v6.485zm-7.204 0h-6.866V30.05h6.866v6.485zm-7.147 0h-6.867V30.05h6.867v6.485zm-7.148 0h-6.866V30.05h6.866v6.485zm-7.204 0h-6.866V30.05h6.866v6.485zm-7.148 0h-6.866V30.05h6.866v6.485zm-7.148 0h-6.866V30.05h6.866v6.485zm-7.204 0H86.53V30.05h6.866v6.485zm-7.147 0h-6.867V30.05h6.867v6.485zm0 .266v6.484h-6.867v-6.484h6.867zM79.1 43.285h-6.866v-6.484H79.1v6.484zm0 .266v6.485h-6.866v-6.485H79.1zm0 6.804v6.485h-6.866v-6.485H79.1zm0 6.75v6.485h-6.866v-6.484H79.1zm0 6.751v6.485h-6.866v-6.485H79.1zm0 6.804v6.485h-6.866V70.66H79.1zm0 6.75v6.485h-6.866v-6.484H79.1zm0 6.751v6.485h-6.866v-6.485H79.1zm0 6.804v6.485h-6.866v-6.485H79.1zm0 6.75v6.485h-6.866v-6.484H79.1zm0 6.751v6.485h-6.866v-6.485H79.1zm0 6.804v6.485h-6.866v-6.485H79.1zm.281 0h6.867v6.485h-6.867v-6.485zm6.867 6.751v6.484h-6.867v-6.484h6.867zm.281 0h6.866v6.484H86.53v-6.484zm7.204 0h6.866v6.484h-6.866v-6.484zm7.148 0h6.866v6.484h-6.866v-6.484zm7.148 0h6.866v6.484h-6.866v-6.484zm7.204 0h6.866v6.484h-6.866v-6.484zm7.147 0h6.867v6.484h-6.867v-6.484zm7.148 0h6.866v6.484h-6.866v-6.484zm7.204 0h6.866v6.484h-6.866v-6.484zm7.148 0h6.866v6.484h-6.866v-6.484zm7.147 0h6.867v6.484h-6.867v-6.484zm7.205 0h6.866v6.484h-6.866v-6.484zm0-.266v-6.485h6.866v6.485h-6.866zm7.147-6.485h6.867v6.485h-6.867v-6.485zm0-.319v-6.485h6.867v6.485h-6.867zm0-6.751v-6.484h6.867v6.484h-6.867zm0-6.75v-6.485h6.867v6.485h-6.867zm0-6.804v-6.485h6.867v6.485h-6.867zm0-6.75V77.41h6.867v6.484h-6.867zm0-6.751V70.66h6.867v6.485h-6.867zm0-6.804v-6.485h6.867v6.485h-6.867zm0-6.75v-6.485h6.867v6.484h-6.867zm0-6.751v-6.485h6.867v6.485h-6.867zm0-6.804v-6.485h6.867v6.485h-6.867zm0-6.75V36.8h6.867v6.484h-6.867zm0-6.751V30.05h6.867v6.485h-6.867zm0-6.804v-6.485h6.867v6.485h-6.867zm-.281 0h-6.866v-6.485h6.866v6.485zm-7.204 0h-6.867v-6.485h6.867v6.485zm-7.148 0h-6.866v-6.485h6.866v6.485zm-7.148 0h-6.866v-6.485h6.866v6.485zm-7.204 0h-6.866v-6.485h6.866v6.485zm-7.147 0h-6.867v-6.485h6.867v6.485zm-7.148 0h-6.866v-6.485h6.866v6.485zm-7.204 0h-6.866v-6.485h6.866v6.485zm-7.148 0h-6.866v-6.485h6.866v6.485zm-7.148 0h-6.866v-6.485h6.866v6.485zm-7.204 0H86.53v-6.485h6.866v6.485zm-7.147 0h-6.867v-6.485h6.867v6.485zm-7.148 0h-6.866v-6.485H79.1v6.485zm0 .319v6.485h-6.866V30.05H79.1zm-7.204 6.485h-6.866V30.05h6.866v6.485zm0 .266v6.484h-6.866v-6.484h6.866zm0 6.75v6.485h-6.866v-6.485h6.866zm0 6.804v6.485h-6.866v-6.485h6.866zm0 6.75v6.485h-6.866v-6.484h6.866zm0 6.751v6.485h-6.866v-6.485h6.866zm0 6.804v6.485h-6.866V70.66h6.866zm0 6.75v6.485h-6.866v-6.484h6.866zm0 6.751v6.485h-6.866v-6.485h6.866zm0 6.804v6.485h-6.866v-6.485h6.866zm0 6.75v6.485h-6.866v-6.484h6.866zm0 6.751v6.485h-6.866v-6.485h6.866zm0 6.804v6.485h-6.866v-6.485h6.866zm0 6.751v6.484h-6.866v-6.484h6.866zm.338 0H79.1v6.484h-6.866v-6.484zm6.866 6.75v6.485h-6.866v-6.485H79.1zm.281 0h6.867v6.485h-6.867v-6.485zm7.148 0h6.866v6.485H86.53v-6.485zm7.204 0h6.866v6.485h-6.866v-6.485zm7.148 0h6.866v6.485h-6.866v-6.485zm7.148 0h6.866v6.485h-6.866v-6.485zm7.204 0h6.866v6.485h-6.866v-6.485zm7.147 0h6.867v6.485h-6.867v-6.485zm7.148 0h6.866v6.485h-6.866v-6.485zm7.204 0h6.866v6.485h-6.866v-6.485zm7.148 0h6.866v6.485h-6.866v-6.485zm7.147 0h6.867v6.485h-6.867v-6.485zm7.205 0h6.866v6.485h-6.866v-6.485zm7.147 0h6.867v6.485h-6.867v-6.485zm0-.266v-6.484h6.867v6.484h-6.867zm7.148-6.484h6.866v6.484h-6.866v-6.484zm0-.266v-6.485h6.866v6.485h-6.866zm0-6.804v-6.485h6.866v6.485h-6.866zm0-6.751v-6.484h6.866v6.484h-6.866zm0-6.75v-6.485h6.866v6.485h-6.866zm0-6.804v-6.485h6.866v6.485h-6.866zm0-6.75V77.41h6.866v6.484h-6.866zm0-6.751V70.66h6.866v6.485h-6.866zm0-6.804v-6.485h6.866v6.485h-6.866zm0-6.75v-6.485h6.866v6.484h-6.866zm0-6.751v-6.485h6.866v6.485h-6.866zm0-6.804v-6.485h6.866v6.485h-6.866zm0-6.75V36.8h6.866v6.484h-6.866zm0-6.751V30.05h6.866v6.485h-6.866zM71.897 23.246v6.485h-6.866V26.3a3.053 3.053 0 013.053-3.053h3.813zm-6.866 101.525h6.866v6.485h-6.866v-6.485zm107.497 6.485v-6.485h6.866v6.485h-6.866z"/></g><path fill="url(#paint2_radial_15_142498)" d="M5.813 76.09c3.21 0 5.813-2.459 5.813-5.49 0-3.033-2.603-5.49-5.813-5.49C2.603 65.11 0 67.566 0 70.6c0 3.031 2.603 5.49 5.813 5.49z"/><path fill="url(#paint3_radial_15_142498)" d="M2.45 70.332c-1.052-.612-1.316-2.008-.587-3.099.71-1.09 2.147-1.492 3.2-.88 1.054.612 1.317 2.009.588 3.1-.73 1.109-2.167 1.491-3.2.879z" opacity=".5"/><path fill="url(#paint4_radial_15_142498)" d="M81.38 12.554c2.45 0 4.436-1.876 4.436-4.19 0-2.314-1.986-4.19-4.437-4.19-2.45 0-4.436 1.876-4.436 4.19 0 2.314 1.986 4.19 4.436 4.19z"/><path fill="url(#paint5_radial_15_142498)" d="M78.813 8.16c-.804-.467-1.005-1.533-.448-2.365.54-.832 1.638-1.139 2.442-.672.804.467 1.005 1.533.449 2.365-.557.847-1.654 1.14-2.443.672z" opacity=".5"/><g filter="url(#filter0_f_15_142498)"><ellipse cx="49.33" cy="77.478" fill="#000" fill-opacity=".37" rx="43.627" ry=".218"/></g><g filter="url(#filter1_ii_15_142498)"><path fill="#E4E4E4" d="M41.59 61.532c0-1.042.845-1.887 1.888-1.887h11.226c1.042 0 1.888.844 1.888 1.887V77.26H41.59V61.532z"/></g><path fill="url(#paint6_linear_15_142498)" d="M41.948 66.268h14.526v7.908H41.948z"/><g filter="url(#filter2_ii_15_142498)"><rect width="79.711" height="50.3" x="10.323" y="17.527" fill="#E4E4E4" rx="2.831"/></g><rect width="73.573" height="44.052" x="13.832" y="21.092" fill="#010101" rx="2.359"/><g filter="url(#filter3_iii_15_142498)"><path fill="#4392F4" d="M85.23 19.484H14.737c-1.368 0-2.477 1.055-2.477 2.356v41.738c0 1.3 1.11 2.355 2.477 2.355h70.495c1.368 0 2.476-1.054 2.476-2.355V21.84c0-1.301-1.108-2.356-2.476-2.356z"/></g><path fill="#231F20" d="M81.465 25.654H18.46c-1.143 0-2.07.876-2.07 1.956v.153c0 1.08.927 1.955 2.07 1.955h63.005c1.143 0 2.07-.875 2.07-1.955v-.154c0-1.08-.927-1.955-2.07-1.955z" opacity=".2"/><g filter="url(#filter4_ii_15_142498)"><path fill="url(#paint7_linear_15_142498)" d="M81.854 25.654H18.698c-1.102 0-1.995.843-1.995 1.883s.893 1.883 1.995 1.883h63.156c1.102 0 1.994-.843 1.994-1.883s-.892-1.883-1.994-1.883z"/></g><path fill="#231F20" d="M31.015 27.072h-9.987c-.346 0-.626.265-.626.59 0 .327.28.591.626.591h9.988c.345 0 .626-.264.626-.59 0-.326-.28-.59-.627-.59z" opacity=".4"/><path fill="#D7D7D7" d="M31.058 26.95h-9.98c-.345 0-.625.264-.625.59 0 .326.28.59.626.59h9.979c.346 0 .626-.264.626-.59 0-.326-.28-.59-.626-.59z"/><g filter="url(#filter6_ii_15_142498)"><path fill="#EAEAEA" d="M16.88 23.496c.44 0 .796-.337.796-.752s-.356-.752-.796-.752c-.44 0-.796.337-.796.752s.356.752.796.752z"/></g><g filter="url(#filter7_ii_15_142498)"><path fill="#EAEAEA" d="M19.507 23.496c.44 0 .796-.337.796-.752s-.356-.752-.796-.752c-.44 0-.796.337-.796.752s.356.752.796.752z"/></g><g filter="url(#filter8_ii_15_142498)"><path fill="#EAEAEA" d="M22.134 23.496c.44 0 .797-.337.797-.752s-.357-.752-.797-.752c-.44 0-.796.337-.796.752s.357.752.796.752z"/></g><rect width="66.323" height="28.756" x="16.39" y="33.59" fill="#002880" fill-opacity=".32" rx=".944"/><g filter="url(#filter9_ii_15_142498)"><rect width="66.009" height="28.756" x="16.703" y="33.094" fill="url(#paint9_linear_15_142498)" rx=".944"/></g><g filter="url(#filter10_di_15_142498)"><path fill="#4BBEFF" d="M61.635 40.87c0-.587.21-1.157.598-1.616.387-.46.928-.782 1.533-.914a.495.495 0 00.276-.162.448.448 0 00.108-.29v-1.85a.451.451 0 00-.143-.328.506.506 0 00-.348-.136H42.671a.506.506 0 00-.348.136.451.451 0 00-.144.328v1.826c0 .109.041.214.115.297.075.083.177.14.29.158.635.106 1.21.42 1.625.886.414.467.641 1.056.641 1.665 0 .61-.227 1.199-.641 1.665-.415.467-.99.78-1.625.887a.498.498 0 00-.29.158.449.449 0 00-.115.297v1.822a.45.45 0 00.144.328.506.506 0 00.348.136h20.988c.13 0 .255-.05.348-.136a.45.45 0 00.143-.328v-1.85a.448.448 0 00-.108-.29.496.496 0 00-.276-.162 2.774 2.774 0 01-1.532-.912 2.508 2.508 0 01-.6-1.615z"/></g><g filter="url(#filter11_d_15_142498)"><path fill="#000" d="M57.61 39.158h-8.35c-.289 0-.523.221-.523.494s.234.494.523.494h8.35c.289 0 .523-.22.523-.493v-.001c0-.273-.234-.494-.523-.494z"/></g><g filter="url(#filter12_ii_15_142498)"><path fill="#F3F3F3" d="M57.61 39.158h-8.35c-.289 0-.523.221-.523.494s.234.494.523.494h8.35c.289 0 .523-.22.523-.493v-.001c0-.273-.234-.494-.523-.494z"/></g><g filter="url(#filter13_d_15_142498)"><path fill="#000" d="M56.41 41.826h-5.718c-.289 0-.523.221-.523.494s.234.494.523.494h5.718c.289 0 .523-.22.523-.493v-.001c0-.273-.234-.494-.523-.494z"/></g><g filter="url(#filter14_ii_15_142498)"><path fill="#F3F3F3" d="M56.41 41.826h-5.718c-.289 0-.523.221-.523.494s.234.494.523.494h5.718c.289 0 .523-.22.523-.493v-.001c0-.273-.234-.494-.523-.494z"/></g><g filter="url(#filter15_d_15_142498)"><g filter="url(#filter16_i_15_142498)"><path fill="#92A2B1" d="M55.112 45.608c0-.531.19-1.047.541-1.462a2.51 2.51 0 011.387-.826.449.449 0 00.25-.147.405.405 0 00.097-.262v-1.673a.408.408 0 00-.13-.297.458.458 0 00-.314-.123h-18.98a.458.458 0 00-.315.123.408.408 0 00-.13.297v1.651c0 .098.038.193.104.268a.45.45 0 00.263.144c.574.095 1.094.38 1.469.801.374.422.58.955.58 1.506 0 .55-.206 1.084-.58 1.506a2.516 2.516 0 01-1.47.801.45.45 0 00-.262.143.406.406 0 00-.104.269v1.647c0 .112.047.218.13.297a.458.458 0 00.314.123h18.981c.118 0 .23-.044.314-.123a.408.408 0 00.13-.297v-1.673a.405.405 0 00-.098-.262.45.45 0 00-.249-.146 2.509 2.509 0 01-1.386-.825 2.268 2.268 0 01-.542-1.46z"/></g><g filter="url(#filter17_d_15_142498)"><path fill="#000" d="M51.473 44.059H43.92a.46.46 0 00-.472.446v.001a.46.46 0 00.472.446h7.552c.26 0 .472-.2.472-.446v-.001a.46.46 0 00-.472-.446z"/></g><g filter="url(#filter18_ii_15_142498)"><path fill="#F3F3F3" d="M51.473 44.059H43.92a.46.46 0 00-.472.446v.001a.46.46 0 00.472.446h7.552c.26 0 .472-.2.472-.446v-.001a.46.46 0 00-.472-.446z"/></g><g filter="url(#filter19_d_15_142498)"><path fill="#000" d="M50.388 46.473h-5.172a.46.46 0 00-.472.446v.001a.46.46 0 00.472.446h5.172c.26 0 .472-.2.472-.446v-.001a.46.46 0 00-.472-.446z"/></g><g filter="url(#filter20_ii_15_142498)"><path fill="#F3F3F3" d="M50.388 46.473h-5.172a.46.46 0 00-.472.446v.001a.46.46 0 00.472.446h5.172c.26 0 .472-.2.472-.446v-.001a.46.46 0 00-.472-.446z"/></g></g><g filter="url(#filter21_d_15_142498)"><rect width="16.989" height="1.042" x="39.486" y="56.807" fill="#3E3E3E" rx=".521"/></g><g filter="url(#filter22_dii_15_142498)"><rect width="17.261" height="1.259" x="39.331" y="56.59" fill="url(#paint10_linear_15_142498)" rx=".629"/></g><g filter="url(#filter23_d_15_142498)"><rect width="28.116" height="1.042" x="33.904" y="53.68" fill="#3E3E3E" rx=".521"/></g><g filter="url(#filter24_dii_15_142498)"><rect width="28.567" height="1.259" x="33.647" y="53.463" fill="url(#paint11_linear_15_142498)" rx=".629"/></g><g filter="url(#filter25_ii_15_142498)"><rect width="23.864" height="1.748" x="37.248" y="75.512" fill="#E4E4E4" rx=".874"/></g><g filter="url(#filter26_i_15_142498)"><path fill="url(#paint12_linear_15_142498)" d="M90.917 66.004c-.029-.007-.059-.011-.08-.031-.433-.399.853-5.738.975-6.137.622-2.03 1.653-4.005 3.31-5.453 1.173-1.025 4.307-3.032 5.933-1.852 1.37.995.086 3.494-.545 4.539-1.133 1.858-2.802 3.363-4.227 5.011-.85.986-1.705 1.99-2.555 2.976-.054.066-.471.625-.791 1-.218.257-.526.305-.85.227l-1.17-.28z"/></g><g filter="url(#filter27_i_15_142498)"><path fill="url(#paint13_linear_15_142498)" d="M92.764 67.626c.697.141 1.32-.457 1.165-1.148-.818-3.673-3.467-12.967-9.035-11.26-5.102 1.582 5.884 10.91 7.448 12.209a.942.942 0 00.422.199z"/></g><path fill="#77FFE4" fill-opacity=".2" d="M86.42 57.102s6.557 8.082 6.632 9.792l-6.631-9.792zM99.116 54.126s-5.387 6.49-5.973 9.372l5.973-9.372z"/><path fill="url(#paint14_linear_15_142498)" d="M86.13 66.227a1.435 1.435 0 011.427-1.58h8.86c.85 0 1.514.734 1.428 1.58l-.978 9.581a1.435 1.435 0 01-1.428 1.29h-6.904a1.435 1.435 0 01-1.427-1.29l-.978-9.58z"/><g filter="url(#filter28_i_15_142498)"><rect width="12.907" height="3.001" x="85.534" y="64.647" fill="url(#paint15_linear_15_142498)" rx=".718"/></g><defs><filter id="filter0_f_15_142498" width="89.234" height="2.418" x="4.713" y="76.27" color-interpolation-filters="sRGB" filterUnits="userSpaceOnUse"><feFlood flood-opacity="0" result="BackgroundImageFix"/><feBlend in="SourceGraphic" in2="BackgroundImageFix" result="shape"/><feGaussianBlur result="effect1_foregroundBlur_15_142498" stdDeviation=".495"/></filter><filter id="filter1_ii_15_142498" width="15.19" height="17.804" x="41.496" y="59.55" color-interpolation-filters="sRGB" filterUnits="userSpaceOnUse"><feFlood flood-opacity="0" result="BackgroundImageFix"/><feBlend in="SourceGraphic" in2="BackgroundImageFix" result="shape"/><feColorMatrix in="SourceAlpha" result="hardAlpha" values="0 0 0 0 0 0 0 0 0 0 0 0 0 0 0 0 0 0 127 0"/><feOffset dx=".472" dy=".519"/><feGaussianBlur stdDeviation=".047"/><feComposite in2="hardAlpha" k2="-1" k3="1" operator="arithmetic"/><feColorMatrix values="0 0 0 0 0.958333 0 0 0 0 0.958333 0 0 0 0 0.958333 0 0 0 1 0"/><feBlend in2="shape" result="effect1_innerShadow_15_142498"/><feColorMatrix in="SourceAlpha" result="hardAlpha" values="0 0 0 0 0 0 0 0 0 0 0 0 0 0 0 0 0 0 127 0"/><feOffset dx="-.472" dy="-.283"/><feGaussianBlur stdDeviation=".047"/><feComposite in2="hardAlpha" k2="-1" k3="1" operator="arithmetic"/><feColorMatrix values="0 0 0 0 0.833333 0 0 0 0 0.833333 0 0 0 0 0.833333 0 0 0 1 0"/><feBlend in2="effect1_innerShadow_15_142498" result="effect2_innerShadow_15_142498"/></filter><filter id="filter2_ii_15_142498" width="80.277" height="50.912" x="10.228" y="17.433" color-interpolation-filters="sRGB" filterUnits="userSpaceOnUse"><feFlood flood-opacity="0" result="BackgroundImageFix"/><feBlend in="SourceGraphic" in2="BackgroundImageFix" result="shape"/><feColorMatrix in="SourceAlpha" result="hardAlpha" values="0 0 0 0 0 0 0 0 0 0 0 0 0 0 0 0 0 0 127 0"/><feOffset dx=".472" dy=".519"/><feGaussianBlur stdDeviation=".283"/><feComposite in2="hardAlpha" k2="-1" k3="1" operator="arithmetic"/><feColorMatrix values="0 0 0 0 1 0 0 0 0 1 0 0 0 0 1 0 0 0 1 0"/><feBlend in2="shape" result="effect1_innerShadow_15_142498"/><feColorMatrix in="SourceAlpha" result="hardAlpha" values="0 0 0 0 0 0 0 0 0 0 0 0 0 0 0 0 0 0 127 0"/><feOffset dx="-.472" dy="-.283"/><feGaussianBlur stdDeviation=".047"/><feComposite in2="hardAlpha" k2="-1" k3="1" operator="arithmetic"/><feColorMatrix values="0 0 0 0 0.833333 0 0 0 0 0.833333 0 0 0 0 0.833333 0 0 0 1 0"/><feBlend in2="effect1_innerShadow_15_142498" result="effect2_innerShadow_15_142498"/></filter><filter id="filter3_iii_15_142498" width="75.92" height="47.251" x="11.788" y="19.201" color-interpolation-filters="sRGB" filterUnits="userSpaceOnUse"><feFlood flood-opacity="0" result="BackgroundImageFix"/><feBlend in="SourceGraphic" in2="BackgroundImageFix" result="shape"/><feColorMatrix in="SourceAlpha" result="hardAlpha" values="0 0 0 0 0 0 0 0 0 0 0 0 0 0 0 0 0 0 127 0"/><feOffset dy="-.283"/><feGaussianBlur stdDeviation=".283"/><feComposite in2="hardAlpha" k2="-1" k3="1" operator="arithmetic"/><feColorMatrix values="0 0 0 0 0.089132 0 0 0 0 0.328429 0 0 0 0 0.629167 0 0 0 1 0"/><feBlend in2="shape" result="effect1_innerShadow_15_142498"/><feColorMatrix in="SourceAlpha" result="hardAlpha" values="0 0 0 0 0 0 0 0 0 0 0 0 0 0 0 0 0 0 127 0"/><feOffset dy=".519"/><feGaussianBlur stdDeviation=".26"/><feComposite in2="hardAlpha" k2="-1" k3="1" operator="arithmetic"/><feColorMatrix values="0 0 0 0 0.641667 0 0 0 0 0.8495 0 0 0 0 1 0 0 0 1 0"/><feBlend in2="effect1_innerShadow_15_142498" result="effect2_innerShadow_15_142498"/><feColorMatrix in="SourceAlpha" result="hardAlpha" values="0 0 0 0 0 0 0 0 0 0 0 0 0 0 0 0 0 0 127 0"/><feOffset dx="-.472"/><feGaussianBlur stdDeviation=".236"/><feComposite in2="hardAlpha" k2="-1" k3="1" operator="arithmetic"/><feColorMatrix values="0 0 0 0 0 0 0 0 0 0 0 0 0 0 0 0 0 0 0.25 0"/><feBlend in2="effect2_innerShadow_15_142498" result="effect3_innerShadow_15_142498"/></filter><filter id="filter4_ii_15_142498" width="67.711" height="4.379" x="16.609" y="25.56" color-interpolation-filters="sRGB" filterUnits="userSpaceOnUse"><feFlood flood-opacity="0" result="BackgroundImageFix"/><feBlend in="SourceGraphic" in2="BackgroundImageFix" result="shape"/><feColorMatrix in="SourceAlpha" result="hardAlpha" values="0 0 0 0 0 0 0 0 0 0 0 0 0 0 0 0 0 0 127 0"/><feOffset dx=".472" dy=".519"/><feGaussianBlur stdDeviation=".283"/><feComposite in2="hardAlpha" k2="-1" k3="1" operator="arithmetic"/><feColorMatrix values="0 0 0 0 1 0 0 0 0 1 0 0 0 0 1 0 0 0 1 0"/><feBlend in2="shape" result="effect1_innerShadow_15_142498"/><feColorMatrix in="SourceAlpha" result="hardAlpha" values="0 0 0 0 0 0 0 0 0 0 0 0 0 0 0 0 0 0 127 0"/><feOffset dx="-.472" dy="-.283"/><feGaussianBlur stdDeviation=".047"/><feComposite in2="hardAlpha" k2="-1" k3="1" operator="arithmetic"/><feColorMatrix values="0 0 0 0 0.833333 0 0 0 0 0.833333 0 0 0 0 0.833333 0 0 0 1 0"/><feBlend in2="effect1_innerShadow_15_142498" result="effect2_innerShadow_15_142498"/></filter><filter id="filter5_dii_15_142498" width="12.025" height="2.24" x="20.131" y="26.666" color-interpolation-filters="sRGB" filterUnits="userSpaceOnUse"><feFlood flood-opacity="0" result="BackgroundImageFix"/><feColorMatrix in="SourceAlpha" result="hardAlpha" values="0 0 0 0 0 0 0 0 0 0 0 0 0 0 0 0 0 0 127 0"/><feOffset dy=".472"/><feGaussianBlur stdDeviation=".236"/><feColorMatrix values="0 0 0 0 0 0 0 0 0 0 0 0 0 0 0 0 0 0 0.07 0"/><feBlend in2="BackgroundImageFix" result="effect1_dropShadow_15_142498"/><feBlend in="SourceGraphic" in2="effect1_dropShadow_15_142498" result="shape"/><feColorMatrix in="SourceAlpha" result="hardAlpha" values="0 0 0 0 0 0 0 0 0 0 0 0 0 0 0 0 0 0 127 0"/><feOffset dx=".472" dy=".519"/><feGaussianBlur stdDeviation=".283"/><feComposite in2="hardAlpha" k2="-1" k3="1" operator="arithmetic"/><feColorMatrix values="0 0 0 0 1 0 0 0 0 1 0 0 0 0 1 0 0 0 1 0"/><feBlend in2="shape" result="effect2_innerShadow_15_142498"/><feColorMatrix in="SourceAlpha" result="hardAlpha" values="0 0 0 0 0 0 0 0 0 0 0 0 0 0 0 0 0 0 127 0"/><feOffset dx="-.519" dy="-.283"/><feGaussianBlur stdDeviation=".236"/><feComposite in2="hardAlpha" k2="-1" k3="1" operator="arithmetic"/><feColorMatrix values="0 0 0 0 0.833333 0 0 0 0 0.833333 0 0 0 0 0.833333 0 0 0 1 0"/><feBlend in2="effect2_innerShadow_15_142498" result="effect3_innerShadow_15_142498"/></filter><filter id="filter6_ii_15_142498" width="1.734" height="1.645" x="15.989" y="21.898" color-interpolation-filters="sRGB" filterUnits="userSpaceOnUse"><feFlood flood-opacity="0" result="BackgroundImageFix"/><feBlend in="SourceGraphic" in2="BackgroundImageFix" result="shape"/><feColorMatrix in="SourceAlpha" result="hardAlpha" values="0 0 0 0 0 0 0 0 0 0 0 0 0 0 0 0 0 0 127 0"/><feOffset dx=".094" dy=".094"/><feGaussianBlur stdDeviation=".024"/><feComposite in2="hardAlpha" k2="-1" k3="1" operator="arithmetic"/><feColorMatrix values="0 0 0 0 1 0 0 0 0 1 0 0 0 0 1 0 0 0 1 0"/><feBlend in2="shape" result="effect1_innerShadow_15_142498"/><feColorMatrix in="SourceAlpha" result="hardAlpha" values="0 0 0 0 0 0 0 0 0 0 0 0 0 0 0 0 0 0 127 0"/><feOffset dx="-.094" dy="-.094"/><feGaussianBlur stdDeviation=".047"/><feComposite in2="hardAlpha" k2="-1" k3="1" operator="arithmetic"/><feColorMatrix values="0 0 0 0 0.658333 0 0 0 0 0.658333 0 0 0 0 0.658333 0 0 0 1 0"/><feBlend in2="effect1_innerShadow_15_142498" result="effect2_innerShadow_15_142498"/></filter><filter id="filter7_ii_15_142498" width="1.734" height="1.645" x="18.617" y="21.898" color-interpolation-filters="sRGB" filterUnits="userSpaceOnUse"><feFlood flood-opacity="0" result="BackgroundImageFix"/><feBlend in="SourceGraphic" in2="BackgroundImageFix" result="shape"/><feColorMatrix in="SourceAlpha" result="hardAlpha" values="0 0 0 0 0 0 0 0 0 0 0 0 0 0 0 0 0 0 127 0"/><feOffset dx=".094" dy=".094"/><feGaussianBlur stdDeviation=".024"/><feComposite in2="hardAlpha" k2="-1" k3="1" operator="arithmetic"/><feColorMatrix values="0 0 0 0 1 0 0 0 0 1 0 0 0 0 1 0 0 0 1 0"/><feBlend in2="shape" result="effect1_innerShadow_15_142498"/><feColorMatrix in="SourceAlpha" result="hardAlpha" values="0 0 0 0 0 0 0 0 0 0 0 0 0 0 0 0 0 0 127 0"/><feOffset dx="-.094" dy="-.094"/><feGaussianBlur stdDeviation=".047"/><feComposite in2="hardAlpha" k2="-1" k3="1" operator="arithmetic"/><feColorMatrix values="0 0 0 0 0.658333 0 0 0 0 0.658333 0 0 0 0 0.658333 0 0 0 1 0"/><feBlend in2="effect1_innerShadow_15_142498" result="effect2_innerShadow_15_142498"/></filter><filter id="filter8_ii_15_142498" width="1.734" height="1.645" x="21.244" y="21.898" color-interpolation-filters="sRGB" filterUnits="userSpaceOnUse"><feFlood flood-opacity="0" result="BackgroundImageFix"/><feBlend in="SourceGraphic" in2="BackgroundImageFix" result="shape"/><feColorMatrix in="SourceAlpha" result="hardAlpha" values="0 0 0 0 0 0 0 0 0 0 0 0 0 0 0 0 0 0 127 0"/><feOffset dx=".094" dy=".094"/><feGaussianBlur stdDeviation=".024"/><feComposite in2="hardAlpha" k2="-1" k3="1" operator="arithmetic"/><feColorMatrix values="0 0 0 0 1 0 0 0 0 1 0 0 0 0 1 0 0 0 1 0"/><feBlend in2="shape" result="effect1_innerShadow_15_142498"/><feColorMatrix in="SourceAlpha" result="hardAlpha" values="0 0 0 0 0 0 0 0 0 0 0 0 0 0 0 0 0 0 127 0"/><feOffset dx="-.094" dy="-.094"/><feGaussianBlur stdDeviation=".047"/><feComposite in2="hardAlpha" k2="-1" k3="1" operator="arithmetic"/><feColorMatrix values="0 0 0 0 0.658333 0 0 0 0 0.658333 0 0 0 0 0.658333 0 0 0 1 0"/><feBlend in2="effect1_innerShadow_15_142498" result="effect2_innerShadow_15_142498"/></filter><filter id="filter9_ii_15_142498" width="66.575" height="29.369" x="16.609" y="32.999" color-interpolation-filters="sRGB" filterUnits="userSpaceOnUse"><feFlood flood-opacity="0" result="BackgroundImageFix"/><feBlend in="SourceGraphic" in2="BackgroundImageFix" result="shape"/><feColorMatrix in="SourceAlpha" result="hardAlpha" values="0 0 0 0 0 0 0 0 0 0 0 0 0 0 0 0 0 0 127 0"/><feOffset dx=".472" dy=".519"/><feGaussianBlur stdDeviation=".283"/><feComposite in2="hardAlpha" k2="-1" k3="1" operator="arithmetic"/><feColorMatrix values="0 0 0 0 1 0 0 0 0 1 0 0 0 0 1 0 0 0 1 0"/><feBlend in2="shape" result="effect1_innerShadow_15_142498"/><feColorMatrix in="SourceAlpha" result="hardAlpha" values="0 0 0 0 0 0 0 0 0 0 0 0 0 0 0 0 0 0 127 0"/><feOffset dx="-.472" dy="-.283"/><feGaussianBlur stdDeviation=".047"/><feComposite in2="hardAlpha" k2="-1" k3="1" operator="arithmetic"/><feColorMatrix values="0 0 0 0 0.833333 0 0 0 0 0.833333 0 0 0 0 0.833333 0 0 0 1 0"/><feBlend in2="effect1_innerShadow_15_142498" result="effect2_innerShadow_15_142498"/></filter><filter id="filter10_di_15_142498" width="22.915" height="11.626" x="41.708" y="35.291" color-interpolation-filters="sRGB" filterUnits="userSpaceOnUse"><feFlood flood-opacity="0" result="BackgroundImageFix"/><feColorMatrix in="SourceAlpha" result="hardAlpha" values="0 0 0 0 0 0 0 0 0 0 0 0 0 0 0 0 0 0 127 0"/><feOffset dy=".283"/><feGaussianBlur stdDeviation=".236"/><feColorMatrix values="0 0 0 0 0 0 0 0 0 0 0 0 0 0 0 0 0 0 0.25 0"/><feBlend in2="BackgroundImageFix" result="effect1_dropShadow_15_142498"/><feBlend in="SourceGraphic" in2="effect1_dropShadow_15_142498" result="shape"/><feColorMatrix in="SourceAlpha" result="hardAlpha" values="0 0 0 0 0 0 0 0 0 0 0 0 0 0 0 0 0 0 127 0"/><feOffset dx="-.094" dy="-.283"/><feGaussianBlur stdDeviation=".142"/><feComposite in2="hardAlpha" k2="-1" k3="1" operator="arithmetic"/><feColorMatrix values="0 0 0 0 0.0961458 0 0 0 0 0.412254 0 0 0 0 0.591667 0 0 0 1 0"/><feBlend in2="shape" result="effect2_innerShadow_15_142498"/></filter><filter id="filter11_d_15_142498" width="10.339" height="1.932" x="48.265" y="39.158" color-interpolation-filters="sRGB" filterUnits="userSpaceOnUse"><feFlood flood-opacity="0" result="BackgroundImageFix"/><feColorMatrix in="SourceAlpha" result="hardAlpha" values="0 0 0 0 0 0 0 0 0 0 0 0 0 0 0 0 0 0 127 0"/><feOffset dy=".472"/><feGaussianBlur stdDeviation=".236"/><feColorMatrix values="0 0 0 0 0 0 0 0 0 0 0 0 0 0 0 0 0 0 0.25 0"/><feBlend in2="BackgroundImageFix" result="effect1_dropShadow_15_142498"/><feBlend in="SourceGraphic" in2="effect1_dropShadow_15_142498" result="shape"/></filter><filter id="filter12_ii_15_142498" width="9.443" height="1.224" x="48.69" y="39.064" color-interpolation-filters="sRGB" filterUnits="userSpaceOnUse"><feFlood flood-opacity="0" result="BackgroundImageFix"/><feBlend in="SourceGraphic" in2="BackgroundImageFix" result="shape"/><feColorMatrix in="SourceAlpha" result="hardAlpha" values="0 0 0 0 0 0 0 0 0 0 0 0 0 0 0 0 0 0 127 0"/><feOffset dy=".236"/><feGaussianBlur stdDeviation=".071"/><feComposite in2="hardAlpha" k2="-1" k3="1" operator="arithmetic"/><feColorMatrix values="0 0 0 0 1 0 0 0 0 1 0 0 0 0 1 0 0 0 1 0"/><feBlend in2="shape" result="effect1_innerShadow_15_142498"/><feColorMatrix in="SourceAlpha" result="hardAlpha" values="0 0 0 0 0 0 0 0 0 0 0 0 0 0 0 0 0 0 127 0"/><feOffset dx="-.047" dy="-.189"/><feGaussianBlur stdDeviation=".047"/><feComposite in2="hardAlpha" k2="-1" k3="1" operator="arithmetic"/><feColorMatrix values="0 0 0 0 0.833333 0 0 0 0 0.833333 0 0 0 0 0.833333 0 0 0 1 0"/><feBlend in2="effect1_innerShadow_15_142498" result="effect2_innerShadow_15_142498"/></filter><filter id="filter13_d_15_142498" width="7.707" height="1.932" x="49.697" y="41.826" color-interpolation-filters="sRGB" filterUnits="userSpaceOnUse"><feFlood flood-opacity="0" result="BackgroundImageFix"/><feColorMatrix in="SourceAlpha" result="hardAlpha" values="0 0 0 0 0 0 0 0 0 0 0 0 0 0 0 0 0 0 127 0"/><feOffset dy=".472"/><feGaussianBlur stdDeviation=".236"/><feColorMatrix values="0 0 0 0 0 0 0 0 0 0 0 0 0 0 0 0 0 0 0.25 0"/><feBlend in2="BackgroundImageFix" result="effect1_dropShadow_15_142498"/><feBlend in="SourceGraphic" in2="effect1_dropShadow_15_142498" result="shape"/></filter><filter id="filter14_ii_15_142498" width="6.811" height="1.224" x="50.122" y="41.732" color-interpolation-filters="sRGB" filterUnits="userSpaceOnUse"><feFlood flood-opacity="0" result="BackgroundImageFix"/><feBlend in="SourceGraphic" in2="BackgroundImageFix" result="shape"/><feColorMatrix in="SourceAlpha" result="hardAlpha" values="0 0 0 0 0 0 0 0 0 0 0 0 0 0 0 0 0 0 127 0"/><feOffset dy=".236"/><feGaussianBlur stdDeviation=".071"/><feComposite in2="hardAlpha" k2="-1" k3="1" operator="arithmetic"/><feColorMatrix values="0 0 0 0 1 0 0 0 0 1 0 0 0 0 1 0 0 0 1 0"/><feBlend in2="shape" result="effect1_innerShadow_15_142498"/><feColorMatrix in="SourceAlpha" result="hardAlpha" values="0 0 0 0 0 0 0 0 0 0 0 0 0 0 0 0 0 0 127 0"/><feOffset dx="-.047" dy="-.189"/><feGaussianBlur stdDeviation=".047"/><feComposite in2="hardAlpha" k2="-1" k3="1" operator="arithmetic"/><feColorMatrix values="0 0 0 0 0.833333 0 0 0 0 0.833333 0 0 0 0 0.833333 0 0 0 1 0"/><feBlend in2="effect1_innerShadow_15_142498" result="effect2_innerShadow_15_142498"/></filter><filter id="filter15_d_15_142498" width="24.587" height="14.295" x="35.159" y="40.346" color-interpolation-filters="sRGB" filterUnits="userSpaceOnUse"><feFlood flood-opacity="0" result="BackgroundImageFix"/><feColorMatrix in="SourceAlpha" result="hardAlpha" values="0 0 0 0 0 0 0 0 0 0 0 0 0 0 0 0 0 0 127 0"/><feOffset dy="1.887"/><feGaussianBlur stdDeviation="1.18"/><feColorMatrix values="0 0 0 0 0 0 0 0 0 0 0 0 0 0 0 0 0 0 0.2 0"/><feBlend in2="BackgroundImageFix" result="effect1_dropShadow_15_142498"/><feBlend in="SourceGraphic" in2="effect1_dropShadow_15_142498" result="shape"/></filter><filter id="filter16_i_15_142498" width="19.963" height="9.859" x="37.424" y="40.535" color-interpolation-filters="sRGB" filterUnits="userSpaceOnUse"><feFlood flood-opacity="0" result="BackgroundImageFix"/><feBlend in="SourceGraphic" in2="BackgroundImageFix" result="shape"/><feColorMatrix in="SourceAlpha" result="hardAlpha" values="0 0 0 0 0 0 0 0 0 0 0 0 0 0 0 0 0 0 127 0"/><feOffset dx="-.094" dy="-.283"/><feGaussianBlur stdDeviation=".142"/><feComposite in2="hardAlpha" k2="-1" k3="1" operator="arithmetic"/><feColorMatrix values="0 0 0 0 0.278431 0 0 0 0 0.345098 0 0 0 0 0.403922 0 0 0 1 0"/><feBlend in2="shape" result="effect1_innerShadow_15_142498"/></filter><filter id="filter17_d_15_142498" width="9.441" height="1.838" x="42.977" y="44.059" color-interpolation-filters="sRGB" filterUnits="userSpaceOnUse"><feFlood flood-opacity="0" result="BackgroundImageFix"/><feColorMatrix in="SourceAlpha" result="hardAlpha" values="0 0 0 0 0 0 0 0 0 0 0 0 0 0 0 0 0 0 127 0"/><feOffset dy=".472"/><feGaussianBlur stdDeviation=".236"/><feColorMatrix values="0 0 0 0 0 0 0 0 0 0 0 0 0 0 0 0 0 0 0.25 0"/><feBlend in2="BackgroundImageFix" result="effect1_dropShadow_15_142498"/><feBlend in="SourceGraphic" in2="effect1_dropShadow_15_142498" result="shape"/></filter><filter id="filter18_ii_15_142498" width="8.544" height="1.13" x="43.401" y="43.964" color-interpolation-filters="sRGB" filterUnits="userSpaceOnUse"><feFlood flood-opacity="0" result="BackgroundImageFix"/><feBlend in="SourceGraphic" in2="BackgroundImageFix" result="shape"/><feColorMatrix in="SourceAlpha" result="hardAlpha" values="0 0 0 0 0 0 0 0 0 0 0 0 0 0 0 0 0 0 127 0"/><feOffset dy=".236"/><feGaussianBlur stdDeviation=".071"/><feComposite in2="hardAlpha" k2="-1" k3="1" operator="arithmetic"/><feColorMatrix values="0 0 0 0 1 0 0 0 0 1 0 0 0 0 1 0 0 0 1 0"/><feBlend in2="shape" result="effect1_innerShadow_15_142498"/><feColorMatrix in="SourceAlpha" result="hardAlpha" values="0 0 0 0 0 0 0 0 0 0 0 0 0 0 0 0 0 0 127 0"/><feOffset dx="-.047" dy="-.189"/><feGaussianBlur stdDeviation=".047"/><feComposite in2="hardAlpha" k2="-1" k3="1" operator="arithmetic"/><feColorMatrix values="0 0 0 0 0.833333 0 0 0 0 0.833333 0 0 0 0 0.833333 0 0 0 1 0"/><feBlend in2="effect1_innerShadow_15_142498" result="effect2_innerShadow_15_142498"/></filter><filter id="filter19_d_15_142498" width="7.06" height="1.838" x="44.272" y="46.473" color-interpolation-filters="sRGB" filterUnits="userSpaceOnUse"><feFlood flood-opacity="0" result="BackgroundImageFix"/><feColorMatrix in="SourceAlpha" result="hardAlpha" values="0 0 0 0 0 0 0 0 0 0 0 0 0 0 0 0 0 0 127 0"/><feOffset dy=".472"/><feGaussianBlur stdDeviation=".236"/><feColorMatrix values="0 0 0 0 0 0 0 0 0 0 0 0 0 0 0 0 0 0 0.25 0"/><feBlend in2="BackgroundImageFix" result="effect1_dropShadow_15_142498"/><feBlend in="SourceGraphic" in2="effect1_dropShadow_15_142498" result="shape"/></filter><filter id="filter20_ii_15_142498" width="6.164" height="1.13" x="44.697" y="46.378" color-interpolation-filters="sRGB" filterUnits="userSpaceOnUse"><feFlood flood-opacity="0" result="BackgroundImageFix"/><feBlend in="SourceGraphic" in2="BackgroundImageFix" result="shape"/><feColorMatrix in="SourceAlpha" result="hardAlpha" values="0 0 0 0 0 0 0 0 0 0 0 0 0 0 0 0 0 0 127 0"/><feOffset dy=".236"/><feGaussianBlur stdDeviation=".071"/><feComposite in2="hardAlpha" k2="-1" k3="1" operator="arithmetic"/><feColorMatrix values="0 0 0 0 1 0 0 0 0 1 0 0 0 0 1 0 0 0 1 0"/><feBlend in2="shape" result="effect1_innerShadow_15_142498"/><feColorMatrix in="SourceAlpha" result="hardAlpha" values="0 0 0 0 0 0 0 0 0 0 0 0 0 0 0 0 0 0 127 0"/><feOffset dx="-.047" dy="-.189"/><feGaussianBlur stdDeviation=".047"/><feComposite in2="hardAlpha" k2="-1" k3="1" operator="arithmetic"/><feColorMatrix values="0 0 0 0 0.833333 0 0 0 0 0.833333 0 0 0 0 0.833333 0 0 0 1 0"/><feBlend in2="effect1_innerShadow_15_142498" result="effect2_innerShadow_15_142498"/></filter><filter id="filter21_d_15_142498" width="17.366" height="1.42" x="39.297" y="56.665" color-interpolation-filters="sRGB" filterUnits="userSpaceOnUse"><feFlood flood-opacity="0" result="BackgroundImageFix"/><feColorMatrix in="SourceAlpha" result="hardAlpha" values="0 0 0 0 0 0 0 0 0 0 0 0 0 0 0 0 0 0 127 0"/><feOffset dy=".047"/><feGaussianBlur stdDeviation=".094"/><feColorMatrix values="0 0 0 0 0 0 0 0 0 0 0 0 0 0 0 0 0 0 0.48 0"/><feBlend in2="BackgroundImageFix" result="effect1_dropShadow_15_142498"/><feBlend in="SourceGraphic" in2="effect1_dropShadow_15_142498" result="shape"/></filter><filter id="filter22_dii_15_142498" width="18.205" height="2.487" x="38.859" y="56.307" color-interpolation-filters="sRGB" filterUnits="userSpaceOnUse"><feFlood flood-opacity="0" result="BackgroundImageFix"/><feColorMatrix in="SourceAlpha" result="hardAlpha" values="0 0 0 0 0 0 0 0 0 0 0 0 0 0 0 0 0 0 127 0"/><feOffset dy=".472"/><feGaussianBlur stdDeviation=".236"/><feColorMatrix values="0 0 0 0 0 0 0 0 0 0 0 0 0 0 0 0 0 0 0.07 0"/><feBlend in2="BackgroundImageFix" result="effect1_dropShadow_15_142498"/><feBlend in="SourceGraphic" in2="effect1_dropShadow_15_142498" result="shape"/><feColorMatrix in="SourceAlpha" result="hardAlpha" values="0 0 0 0 0 0 0 0 0 0 0 0 0 0 0 0 0 0 127 0"/><feOffset dx=".472" dy=".519"/><feGaussianBlur stdDeviation=".283"/><feComposite in2="hardAlpha" k2="-1" k3="1" operator="arithmetic"/><feColorMatrix values="0 0 0 0 1 0 0 0 0 1 0 0 0 0 1 0 0 0 1 0"/><feBlend in2="shape" result="effect2_innerShadow_15_142498"/><feColorMatrix in="SourceAlpha" result="hardAlpha" values="0 0 0 0 0 0 0 0 0 0 0 0 0 0 0 0 0 0 127 0"/><feOffset dx="-.519" dy="-.283"/><feGaussianBlur stdDeviation=".236"/><feComposite in2="hardAlpha" k2="-1" k3="1" operator="arithmetic"/><feColorMatrix values="0 0 0 0 0.833333 0 0 0 0 0.833333 0 0 0 0 0.833333 0 0 0 1 0"/><feBlend in2="effect2_innerShadow_15_142498" result="effect3_innerShadow_15_142498"/></filter><filter id="filter23_d_15_142498" width="28.493" height="1.42" x="33.715" y="53.538" color-interpolation-filters="sRGB" filterUnits="userSpaceOnUse"><feFlood flood-opacity="0" result="BackgroundImageFix"/><feColorMatrix in="SourceAlpha" result="hardAlpha" values="0 0 0 0 0 0 0 0 0 0 0 0 0 0 0 0 0 0 127 0"/><feOffset dy=".047"/><feGaussianBlur stdDeviation=".094"/><feColorMatrix values="0 0 0 0 0 0 0 0 0 0 0 0 0 0 0 0 0 0 0.48 0"/><feBlend in2="BackgroundImageFix" result="effect1_dropShadow_15_142498"/><feBlend in="SourceGraphic" in2="effect1_dropShadow_15_142498" result="shape"/></filter><filter id="filter24_dii_15_142498" width="29.511" height="2.487" x="33.175" y="53.18" color-interpolation-filters="sRGB" filterUnits="userSpaceOnUse"><feFlood flood-opacity="0" result="BackgroundImageFix"/><feColorMatrix in="SourceAlpha" result="hardAlpha" values="0 0 0 0 0 0 0 0 0 0 0 0 0 0 0 0 0 0 127 0"/><feOffset dy=".472"/><feGaussianBlur stdDeviation=".236"/><feColorMatrix values="0 0 0 0 0 0 0 0 0 0 0 0 0 0 0 0 0 0 0.07 0"/><feBlend in2="BackgroundImageFix" result="effect1_dropShadow_15_142498"/><feBlend in="SourceGraphic" in2="effect1_dropShadow_15_142498" result="shape"/><feColorMatrix in="SourceAlpha" result="hardAlpha" values="0 0 0 0 0 0 0 0 0 0 0 0 0 0 0 0 0 0 127 0"/><feOffset dx=".472" dy=".519"/><feGaussianBlur stdDeviation=".283"/><feComposite in2="hardAlpha" k2="-1" k3="1" operator="arithmetic"/><feColorMatrix values="0 0 0 0 1 0 0 0 0 1 0 0 0 0 1 0 0 0 1 0"/><feBlend in2="shape" result="effect2_innerShadow_15_142498"/><feColorMatrix in="SourceAlpha" result="hardAlpha" values="0 0 0 0 0 0 0 0 0 0 0 0 0 0 0 0 0 0 127 0"/><feOffset dx="-.519" dy="-.283"/><feGaussianBlur stdDeviation=".236"/><feComposite in2="hardAlpha" k2="-1" k3="1" operator="arithmetic"/><feColorMatrix values="0 0 0 0 0.833333 0 0 0 0 0.833333 0 0 0 0 0.833333 0 0 0 1 0"/><feBlend in2="effect2_innerShadow_15_142498" result="effect3_innerShadow_15_142498"/></filter><filter id="filter25_ii_15_142498" width="24.053" height="1.937" x="37.153" y="75.417" color-interpolation-filters="sRGB" filterUnits="userSpaceOnUse"><feFlood flood-opacity="0" result="BackgroundImageFix"/><feBlend in="SourceGraphic" in2="BackgroundImageFix" result="shape"/><feColorMatrix in="SourceAlpha" result="hardAlpha" values="0 0 0 0 0 0 0 0 0 0 0 0 0 0 0 0 0 0 127 0"/><feOffset dx=".472" dy=".519"/><feGaussianBlur stdDeviation=".047"/><feComposite in2="hardAlpha" k2="-1" k3="1" operator="arithmetic"/><feColorMatrix values="0 0 0 0 0.958333 0 0 0 0 0.958333 0 0 0 0 0.958333 0 0 0 1 0"/><feBlend in2="shape" result="effect1_innerShadow_15_142498"/><feColorMatrix in="SourceAlpha" result="hardAlpha" values="0 0 0 0 0 0 0 0 0 0 0 0 0 0 0 0 0 0 127 0"/><feOffset dx="-.472" dy="-.283"/><feGaussianBlur stdDeviation=".047"/><feComposite in2="hardAlpha" k2="-1" k3="1" operator="arithmetic"/><feColorMatrix values="0 0 0 0 0.833333 0 0 0 0 0.833333 0 0 0 0 0.833333 0 0 0 1 0"/><feBlend in2="effect1_innerShadow_15_142498" result="effect2_innerShadow_15_142498"/></filter><filter id="filter26_i_15_142498" width="11.604" height="14.412" x="90.748" y="51.907" color-interpolation-filters="sRGB" filterUnits="userSpaceOnUse"><feFlood flood-opacity="0" result="BackgroundImageFix"/><feBlend in="SourceGraphic" in2="BackgroundImageFix" result="shape"/><feColorMatrix in="SourceAlpha" result="hardAlpha" values="0 0 0 0 0 0 0 0 0 0 0 0 0 0 0 0 0 0 127 0"/><feOffset dx=".688" dy="-.263"/><feGaussianBlur stdDeviation=".897"/><feComposite in2="hardAlpha" k2="-1" k3="1" operator="arithmetic"/><feColorMatrix values="0 0 0 0 0.113056 0 0 0 0 0.616667 0 0 0 0 0.58645 0 0 0 1 0"/><feBlend in2="shape" result="effect1_innerShadow_15_142498"/></filter><filter id="filter27_i_15_142498" width="11.088" height="12.9" x="83.553" y="54.747" color-interpolation-filters="sRGB" filterUnits="userSpaceOnUse"><feFlood flood-opacity="0" result="BackgroundImageFix"/><feBlend in="SourceGraphic" in2="BackgroundImageFix" result="shape"/><feColorMatrix in="SourceAlpha" result="hardAlpha" values="0 0 0 0 0 0 0 0 0 0 0 0 0 0 0 0 0 0 127 0"/><feOffset dx=".688" dy="-.263"/><feGaussianBlur stdDeviation=".897"/><feComposite in2="hardAlpha" k2="-1" k3="1" operator="arithmetic"/><feColorMatrix values="0 0 0 0 0.0996528 0 0 0 0 0.683333 0 0 0 0 0.555806 0 0 0 1 0"/><feBlend in2="shape" result="effect1_innerShadow_15_142498"/></filter><filter id="filter28_i_15_142498" width="13.194" height="3.217" x="85.534" y="64.431" color-interpolation-filters="sRGB" filterUnits="userSpaceOnUse"><feFlood flood-opacity="0" result="BackgroundImageFix"/><feBlend in="SourceGraphic" in2="BackgroundImageFix" result="shape"/><feColorMatrix in="SourceAlpha" result="hardAlpha" values="0 0 0 0 0 0 0 0 0 0 0 0 0 0 0 0 0 0 127 0"/><feOffset dx=".287" dy="-.215"/><feGaussianBlur stdDeviation=".251"/><feComposite in2="hardAlpha" k2="-1" k3="1" operator="arithmetic"/><feColorMatrix values="0 0 0 0 0.833333 0 0 0 0 0.604343 0 0 0 0 0.0555555 0 0 0 1 0"/><feBlend in2="shape" result="effect1_innerShadow_15_142498"/></filter><linearGradient id="paint0_linear_15_142498" x1="52.783" x2="52.783" y1="0" y2="86" gradientUnits="userSpaceOnUse"><stop stop-color="#B5EFFF"/><stop offset="1" stop-color="#E7F8FE"/></linearGradient><linearGradient id="paint1_linear_15_142498" x1="52.207" x2="52.207" y1="0" y2="85.498" gradientUnits="userSpaceOnUse"><stop stop-color="#B5EFFF"/><stop offset="1" stop-color="#EDFBFF"/></linearGradient><linearGradient id="paint6_linear_15_142498" x1="49.211" x2="49.211" y1="66.268" y2="75.317" gradientUnits="userSpaceOnUse"><stop stop-color="#8B8B8B"/><stop offset="1" stop-color="#fff" stop-opacity="0"/></linearGradient><linearGradient id="paint7_linear_15_142498" x1="22.294" x2="22.377" y1="25.654" y2="29.958" gradientUnits="userSpaceOnUse"><stop stop-color="#F1F1F1"/><stop offset="1" stop-color="#F8F8F8"/></linearGradient><linearGradient id="paint8_linear_15_142498" x1="21.525" x2="21.561" y1="26.949" y2="28.108" gradientUnits="userSpaceOnUse"><stop stop-color="#fff"/><stop offset=".271" stop-color="#fff"/><stop offset="1" stop-color="#B8B8B8"/></linearGradient><linearGradient id="paint9_linear_15_142498" x1="22.199" x2="27.018" y1="33.094" y2="65.25" gradientUnits="userSpaceOnUse"><stop stop-color="#F1F1F1"/><stop offset="1" stop-color="#F8F8F8"/></linearGradient><linearGradient id="paint10_linear_15_142498" x1="40.768" x2="40.804" y1="56.59" y2="58.028" gradientUnits="userSpaceOnUse"><stop stop-color="#fff"/><stop offset=".271" stop-color="#fff"/><stop offset="1" stop-color="#B8B8B8"/></linearGradient><linearGradient id="paint11_linear_15_142498" x1="36.025" x2="36.047" y1="53.463" y2="54.902" gradientUnits="userSpaceOnUse"><stop stop-color="#fff"/><stop offset=".271" stop-color="#fff"/><stop offset="1" stop-color="#B8B8B8"/></linearGradient><linearGradient id="paint12_linear_15_142498" x1="103.245" x2="91.713" y1="52.392" y2="63.358" gradientUnits="userSpaceOnUse"><stop stop-color="#BAFFF1" stop-opacity=".26"/><stop offset=".682" stop-color="#4DC7AE"/><stop offset=".969" stop-color="#06896F"/></linearGradient><linearGradient id="paint13_linear_15_142498" x1="97.837" x2="91.052" y1="56.392" y2="68.492" gradientUnits="userSpaceOnUse"><stop stop-color="#B7FDEF"/><stop offset=".682" stop-color="#09B794"/><stop offset=".969" stop-color="#7EE0CC"/></linearGradient><linearGradient id="paint14_linear_15_142498" x1="98.006" x2="86.827" y1="72.843" y2="72.843" gradientUnits="userSpaceOnUse"><stop offset=".099" stop-color="#FFEEC5"/><stop offset=".607" stop-color="#FACD63"/><stop offset=".839" stop-color="#EAAF23"/><stop offset=".984" stop-color="#EDB52F"/></linearGradient><linearGradient id="paint15_linear_15_142498" x1="98.441" x2="86.455" y1="66.622" y2="66.622" gradientUnits="userSpaceOnUse"><stop offset=".099" stop-color="#FFEEC5"/><stop offset=".607" stop-color="#FCBD27"/><stop offset=".984" stop-color="#EFB222"/></linearGradient><radialGradient id="paint2_radial_15_142498" cx="0" cy="0" r="1" gradientTransform="matrix(10.69847 -2.74091 2.60794 10.17944 3.048 68.382)" gradientUnits="userSpaceOnUse"><stop stop-color="#FFF1CF"/><stop offset=".188" stop-color="#FFE4A2"/><stop offset=".318" stop-color="#FFD364"/><stop offset=".49" stop-color="#FFD364"/><stop offset=".651" stop-color="#FFC73A"/><stop offset=".948" stop-color="#D09500"/></radialGradient><radialGradient id="paint3_radial_15_142498" cx="0" cy="0" r="1" gradientTransform="matrix(-1.2825 1.94678 -1.81586 -1.19625 3.742 68.359)" gradientUnits="userSpaceOnUse"><stop stop-color="#fff"/><stop offset=".694" stop-color="#fff" stop-opacity="0"/></radialGradient><radialGradient id="paint4_radial_15_142498" cx="0" cy="0" r="1" gradientTransform="matrix(8.16578 -2.09204 1.99055 7.76964 79.269 6.672)" gradientUnits="userSpaceOnUse"><stop stop-color="#E6C6FF"/><stop offset=".188" stop-color="#C07DF5"/><stop offset=".318" stop-color="#BE6FFC"/><stop offset=".49" stop-color="#B56AF0"/><stop offset=".651" stop-color="#A745F4"/><stop offset=".948" stop-color="#9F3DED"/></radialGradient><radialGradient id="paint5_radial_15_142498" cx="0" cy="0" r="1" gradientTransform="matrix(-.97889 1.48591 -1.38599 -.91306 79.799 6.654)" gradientUnits="userSpaceOnUse"><stop stop-color="#fff"/><stop offset=".694" stop-color="#fff" stop-opacity="0"/></radialGradient></defs></svg>