<svg width="151" height="125" viewBox="0 0 151 125" fill="none" xmlns="http://www.w3.org/2000/svg">
<path d="M135.061 109.19H140.551" stroke="#91A1B0" stroke-width="1.2" stroke-linecap="round" stroke-linejoin="round"/>
<path d="M105.07 109.19H129.1" stroke="#91A1B0" stroke-width="1.2" stroke-linecap="round" stroke-linejoin="round"/>
<path d="M11.5508 109.19H99.3708" stroke="#91A1B0" stroke-width="1.2" stroke-linecap="round" stroke-linejoin="round"/>
<path opacity="0.2" d="M76.0508 102.25C103.665 102.25 126.051 79.8642 126.051 52.25C126.051 24.6358 103.665 2.25 76.0508 2.25C48.4365 2.25 26.0508 24.6358 26.0508 52.25C26.0508 79.8642 48.4365 102.25 76.0508 102.25Z" fill="#BEC6D2"/>
<path d="M39.1292 16.75H112.959C116.089 16.75 118.639 19.29 118.639 22.43V82.07C118.639 85.2 116.099 87.75 112.959 87.75H39.1292C35.9992 87.75 33.4492 85.21 33.4492 82.07V22.43C33.4492 19.3 35.9892 16.75 39.1292 16.75Z" fill="white" stroke="#91A1B0" stroke-width="1.2" stroke-miterlimit="10"/>
<path d="M53.1992 56.2998H98.8992" stroke="#CED6DE" stroke-width="1.2" stroke-linecap="round" stroke-linejoin="round"/>
<path d="M64.6211 62.3701H87.4711" stroke="#CED6DE" stroke-width="1.2" stroke-linecap="round" stroke-linejoin="round"/>
<path d="M38.6801 17.4199H113.49C115.97 17.4199 117.99 19.4399 117.99 21.9199V33.7799H34.0801V22.0199C34.0801 19.4799 36.1401 17.4199 38.6801 17.4199Z" fill="#91A1B0" stroke="#91A1B0" stroke-width="0.83" stroke-linecap="round" stroke-linejoin="round"/>
<path d="M53.1994 25.6001H43.3594H53.1994Z" fill="white"/>
<path d="M53.1994 25.6001H43.3594" stroke="white" stroke-width="1.2" stroke-miterlimit="10" stroke-linecap="round"/>
<path d="M19.4492 15.1699H25.4892" stroke="#91A1B0" stroke-width="1.2" stroke-linecap="round" stroke-linejoin="round"/>
<path d="M32.6504 1.08008V7.13008" stroke="#91A1B0" stroke-width="1.2" stroke-linecap="round" stroke-linejoin="round"/>
<path d="M22.0098 5.41016L26.8098 9.10015" stroke="#91A1B0" stroke-width="1.2" stroke-linecap="round" stroke-linejoin="round"/>
<path d="M124.332 96.2456L128.631 91.9748L135.164 98.5514C136.341 99.7361 136.335 101.659 135.15 102.836C133.965 104.013 132.042 104.007 130.865 102.822L124.332 96.2456Z" fill="white" stroke="#91A1B0" stroke-width="1.2" stroke-miterlimit="10"/>
<path d="M125.375 90.9034L123.268 92.9966L125.361 95.1036L127.468 93.0105L125.375 90.9034Z" fill="white" stroke="#91A1B0" stroke-width="1.2" stroke-miterlimit="10"/>
<path d="M112.4 96.9602C121.59 96.9602 129.04 89.5102 129.04 80.3202C129.04 71.1302 121.59 63.6802 112.4 63.6802C103.21 63.6802 95.7598 71.1302 95.7598 80.3202C95.7598 89.5102 103.21 96.9602 112.4 96.9602Z" fill="white" stroke="#91A1B0" stroke-width="1.2" stroke-miterlimit="10"/>
<path d="M112.401 93.8301C119.862 93.8301 125.911 87.7814 125.911 80.3201C125.911 72.8587 119.862 66.8101 112.401 66.8101C104.939 66.8101 98.8906 72.8587 98.8906 80.3201C98.8906 87.7814 104.939 93.8301 112.401 93.8301Z" fill="white" stroke="#91A1B0" stroke-width="1.2" stroke-miterlimit="10"/>
<path d="M110.709 82.5099L110.759 82.2099C110.959 81.1099 111.519 80.3099 113.079 79.3599C114.049 78.7599 114.349 78.2199 114.469 77.5599C114.599 76.8199 114.289 76.0499 113.259 75.8699C112.159 75.6699 111.589 76.3199 111.289 77.2799L109.129 76.8899C109.449 75.5599 110.699 73.6099 113.619 74.1499C116.409 74.6699 116.929 76.6699 116.689 78.0299C116.479 79.1799 115.969 79.8999 114.469 80.8499C113.539 81.4499 113.169 81.9899 113.029 82.7599L112.999 82.9299L110.709 82.5199V82.5099ZM110.029 86.3099L110.529 83.5499L112.819 83.9599L112.319 86.7199L110.029 86.3099Z" fill="#CED6DE"/>
</svg>
