<svg width="150" height="150" viewBox="0 0 150 150" fill="none" xmlns="http://www.w3.org/2000/svg">
<path d="M134.01 129.055H139.5M104.03 129.055H128.06M10.5 129.055H98.3199" stroke="#91A1B0" stroke-width="1.2" stroke-linecap="round" stroke-linejoin="round"/>
<path opacity="0.2" d="M75 122.115C102.614 122.115 125 99.7295 125 72.1152C125 44.501 102.614 22.1152 75 22.1152C47.3858 22.1152 25 44.501 25 72.1152C25 99.7295 47.3858 122.115 75 122.115Z" fill="#BEC6D2"/>
<path d="M38.0902 36.6152H111.92C115.05 36.6152 117.6 39.1552 117.6 42.2952V101.935C117.6 105.065 115.06 107.615 111.92 107.615H38.0902C34.9602 107.615 32.4102 105.075 32.4102 101.935V42.2952C32.4102 39.1652 34.9502 36.6152 38.0902 36.6152Z" fill="white" stroke="#91A1B0" stroke-width="1.2" stroke-miterlimit="10"/>
<path d="M37.6313 37.2852H112.441C114.921 37.2852 116.941 39.3052 116.941 41.7852V53.6452H33.0312V41.8852C33.0312 39.3452 35.0913 37.2852 37.6313 37.2852Z" fill="#91A1B0" stroke="#91A1B0" stroke-width="0.83" stroke-linecap="round" stroke-linejoin="round"/>
<path d="M52.1486 45.4653H42.3086H52.1486Z" fill="white"/>
<path d="M52.1486 45.4653H42.3086" stroke="white" stroke-width="1.2" stroke-miterlimit="10" stroke-linecap="round"/>
<path d="M18.3984 35.0352H24.4385M31.5981 20.9453V26.9953M20.9683 25.2754L25.7682 28.9654" stroke="#91A1B0" stroke-width="1.2" stroke-linecap="round" stroke-linejoin="round"/>
<path d="M65.6294 80.2659V83.6523C65.6294 84.428 66.255 85.0536 67.0307 85.0536H95.4984C96.2741 85.0536 96.8997 84.428 96.8997 83.6523V80.2742C96.8997 79.8572 96.7162 79.4651 96.3909 79.1982C95.6319 78.581 94.3056 77.1964 94.3056 75.0361C94.3056 72.8758 95.6319 71.4745 96.3909 70.8573C96.7162 70.5904 96.8997 70.1983 96.8997 69.7813V66.4115C96.8997 65.6358 96.2741 65.0103 95.4984 65.0103H67.0307C66.255 65.0103 65.6294 65.6358 65.6294 66.4115V69.7646C65.6294 70.1817 65.8129 70.5737 66.1299 70.8406C66.8889 71.4578 68.2235 72.8674 68.2151 75.0361C68.2151 77.1881 66.8806 78.5727 66.1299 79.1899C65.8046 79.4568 65.6211 79.8488 65.6211 80.2659H65.6294Z" fill="white" stroke="#C4CCD4" stroke-width="1.00092"/>
<rect x="74.75" y="71.5361" width="13.0238" height="7.0051" rx="1.66819" stroke="#C4CCD4" stroke-width="1.00092"/>
<path d="M53.1177 89.4412V92.8276C53.1177 93.6033 53.7433 94.2289 54.519 94.2289H82.9867C83.7624 94.2289 84.388 93.6033 84.388 92.8276V89.4495C84.388 89.0325 84.2045 88.6404 83.8792 88.3735C83.1201 87.7563 81.7939 86.3717 81.7939 84.2114C81.7939 82.0511 83.1201 80.6498 83.8792 80.0326C84.2045 79.7657 84.388 79.3736 84.388 78.9566V75.5868C84.388 74.8111 83.7624 74.1855 82.9867 74.1855H54.519C53.7433 74.1855 53.1177 74.8111 53.1177 75.5868V78.9399C53.1177 79.3569 53.3012 79.749 53.6182 80.0159C54.3772 80.6331 55.7118 82.0427 55.7034 84.2114C55.7034 86.3634 54.3689 87.7479 53.6182 88.3652C53.2929 88.6321 53.1094 89.0241 53.1094 89.4412H53.1177Z" fill="white" stroke="#C4CCD4" stroke-width="1.00092"/>
<rect x="62.2383" y="80.7114" width="13.0238" height="7.0051" rx="1.66819" stroke="#C4CCD4" stroke-width="1.00092"/>
</svg>
