<svg xmlns="http://www.w3.org/2000/svg" data-name="Layer 1" viewBox="0 0 210 210"><defs><mask id="fs-mumv6dqgha" width="26.7" height="26.7" x="12.17" y="122.42" maskUnits="userSpaceOnUse"><path fill="#fff" fill-rule="evenodd" d="M12.17 122.42h26.7v26.69h-26.7v-26.69z"/></mask><mask id="fs-vvyoy1ureb" width="52.69" height="1.56" x="89.32" y="204.98" maskUnits="userSpaceOnUse"><path fill="#fff" fill-rule="evenodd" d="M89.32 204.98h52.69v1.55H89.32v-1.55z"/></mask></defs><path fill="#f1f3f8" fill-rule="evenodd" d="M109.44 179.22l56.33-56.33a9 9 0 0112.72 12.72l-56.33 56.33a9 9 0 01-12.72-12.72"/><g mask="url(#fs-mumv6dqgha)"><path fill="#f1f3f8" fill-rule="evenodd" d="M14.8 133.76l8.71-8.71a9 9 0 1112.72 12.72l-8.71 8.71a9 9 0 11-12.72-12.72"/></g><path fill="#f1f3f8" fill-rule="evenodd" d="M113.45 150.29l25.74-25.74a9 9 0 0012.72 12.71L126.16 163a9 9 0 10-12.71-12.72m-11.01-39.21L126.56 87a9 9 0 0012.72 12.72l-24.12 24.12a9 9 0 00-12.72-12.72"/><path fill="#f1f3f8" fill-rule="evenodd" d="M93.9 144.53l70.37-70.37A9 9 0 01177 86.87l-70.37 70.38a9 9 0 01-12.73-12.72m-69.15 19.08l95.8-95.8a9 9 0 1112.71 12.72l-95.79 95.79a9 9 0 01-12.72-12.71m16.94-63.07L77.23 65A9 9 0 0190 77.71l-35.6 35.55a9 9 0 01-12.71-12.72m58.8-58.8l.21-.21a9 9 0 0112.72 12.72l-.22.21a9 9 0 01-12.71 0 9 9 0 010-12.72M73.22 164.61l.21-.21a9 9 0 1112.72 12.71l-.21.22a9 9 0 01-12.72 0 9 9 0 010-12.72"/><path fill="#717790" fill-rule="evenodd" d="M194.44 196.47a4.89 4.89 0 011.84-.26 9.66 9.66 0 011.85.18.56.56 0 010 1.09 9.66 9.66 0 01-1.85.18 4.89 4.89 0 01-1.84-.26.49.49 0 010-.93m-168.53.02c6.91-.2 13.82-.23 20.73-.23H171c6.91 0 13.81 0 20.72.2a.58.58 0 010 1.15c-6.91.18-13.81.19-20.72.2H46.64c-6.91 0-13.82 0-20.73-.23a.44.44 0 01-.43-.46.45.45 0 01.43-.43m-4.08-.41a1.22 1.22 0 01.27 0h.13a.42.42 0 01.14.06.69.69 0 01.18.95.77.77 0 01-.18.18.42.42 0 01-.14.06h-.13a1.22 1.22 0 01-.27 0 .67.67 0 01-.51-.8.65.65 0 01.51-.51m-6.64.24a6.25 6.25 0 011.34-.18 3.87 3.87 0 011.35.12.56.56 0 01.37.7.59.59 0 01-.37.37 3.87 3.87 0 01-1.35.12 6.25 6.25 0 01-1.34-.18.48.48 0 01-.35-.6.46.46 0 01.35-.35"/><g mask="url(#fs-vvyoy1ureb)"><path fill="#717790" fill-rule="evenodd" d="M89.72 205.31c2.16-.2 4.31-.23 6.47-.23h6.47l12.94-.08H135c2.16 0 4.32 0 6.47.2a.58.58 0 01.54.62.61.61 0 01-.54.54c-2.15.17-4.31.18-6.47.19h-19.4l-12.94-.07h-6.47c-2.16 0-4.31 0-6.47-.23a.45.45 0 010-.89"/></g><path fill="#717790" fill-rule="evenodd" d="M68.43 205.28c2.21-.12 4.42-.16 6.63-.18s4.42 0 6.63.12a.54.54 0 010 1.07c-2.21.14-4.42.15-6.63.12s-4.42-.06-6.63-.18a.47.47 0 01-.46-.5.49.49 0 01.46-.45"/><path fill="#c8d6ec" d="M188.28 160a2.72 2.72 0 112.72-2.72 2.72 2.72 0 01-2.72 2.72zm0-3.43a.72.72 0 10.72.71.72.72 0 00-.72-.73zM5.36 78.94a1 1 0 01-1-1v-8.5a1 1 0 012 0v8.5a1 1 0 01-1 1z"/><path fill="#c8d6ec" d="M9.61 74.69h-8.5a1 1 0 110-2h8.5a1 1 0 010 2zm51.07-5.07a2.72 2.72 0 112.72-2.72 2.72 2.72 0 01-2.72 2.72zm0-3.43a.72.72 0 10.72.71.72.72 0 00-.72-.71zm128.14 40.63a2.72 2.72 0 112.72-2.72 2.72 2.72 0 01-2.72 2.72zm0-3.43a.72.72 0 10.72.71.71.71 0 00-.72-.71zm-95.33-41.9a1.09 1.09 0 01-.5-.13 1 1 0 01-.47-.61l-.83-3.06a1 1 0 01.7-1.23l3.06-.84a1 1 0 011.23.7l.84 3.07a1 1 0 01-.7 1.23l-3.07.83a.75.75 0 01-.26.04zm.39-3.37l.31 1.14 1.13-.26-.32-1.19zm-55.49 64.53a3 3 0 113-3 3 3 0 01-3 3zm0-4a1 1 0 101 1 1 1 0 00-1-1z"/><path fill="#ced6de" d="M114.37 149.08h-.08c-.63-.11-1.33-.24-2.09-.4a.5.5 0 01-.39-.59.51.51 0 01.59-.39c.75.16 1.44.29 2.06.39a.5.5 0 01-.09 1zm-4.13-.84h-.11c-.66-.15-1.35-.31-2.07-.5a.5.5 0 11.25-1l2 .5a.5.5 0 01.38.6.51.51 0 01-.45.4zm-4.09-1.06a.3.3 0 01-.13 0c-.67-.19-1.35-.39-2-.61a.5.5 0 11.3-1l2 .6a.5.5 0 01-.14 1zm-4-1.28a.5.5 0 01-.17 0c-.66-.23-1.32-.48-2-.74a.5.5 0 01-.29-.64.5.5 0 01.65-.29c.66.25 1.31.5 2 .72a.51.51 0 01.31.64.49.49 0 01-.51.31zm-3.93-1.52a.45.45 0 01-.2 0c-.65-.27-1.29-.56-1.94-.87a.49.49 0 01-.24-.66.5.5 0 01.67-.24c.63.3 1.27.58 1.9.85a.51.51 0 01.27.66.5.5 0 01-.47.26zm-3.81-1.8a.46.46 0 01-.23-.06c-.63-.32-1.25-.67-1.87-1a.51.51 0 01-.18-.69.51.51 0 01.69-.18c.6.35 1.21.69 1.82 1a.5.5 0 01-.23.94zm-3.64-2.12a.45.45 0 01-.27-.08c-.6-.38-1.19-.78-1.76-1.2a.5.5 0 01-.11-.7.51.51 0 01.7-.11c.56.41 1.13.8 1.71 1.18a.5.5 0 01.15.69.52.52 0 01-.43.22zM87.36 138a.54.54 0 01-.32-.11c-.56-.46-1.1-.94-1.61-1.42a.49.49 0 010-.7.5.5 0 01.71 0c.49.46 1 .92 1.56 1.37a.5.5 0 01-.32.88zm-3.06-2.89a.49.49 0 01-.37-.16c-.48-.53-1-1.08-1.38-1.63a.51.51 0 01.08-.71.5.5 0 01.7.09c.42.54.87 1.06 1.34 1.57a.51.51 0 010 .71.5.5 0 01-.37.11zm-2.58-3.31a.51.51 0 01-.42-.23c-.39-.6-.76-1.22-1.09-1.85a.5.5 0 01.21-.67.5.5 0 01.68.2 20.1 20.1 0 001 1.78.5.5 0 01-.15.69.53.53 0 01-.23.06zm-2-3.71a.51.51 0 01-.46-.31 21.11 21.11 0 01-.72-2 .51.51 0 01.33-.63.5.5 0 01.62.33 20.49 20.49 0 00.7 1.94.5.5 0 01-.19.58.41.41 0 01-.24.07zm-1.22-4a.51.51 0 01-.49-.4c-.14-.7-.26-1.41-.34-2.12a.5.5 0 111-.11c.08.68.18 1.36.32 2a.51.51 0 01-.39.59zm-.47-4.18a.5.5 0 01-.5-.48v-2.15a.5.5 0 01.53-.47.5.5 0 01.47.53v2.06a.49.49 0 01-.49.51zM122 119a.5.5 0 010-1c.71 0 1.41 0 2.09-.05a.5.5 0 110 1c-.69 0-1.4 0-2.12.05zm-2.11 0l-2.11-.06a.51.51 0 01-.48-.53.49.49 0 01.52-.47l2.09.06a.5.5 0 01.49.51.49.49 0 01-.53.49zm6.31-.14a.5.5 0 010-1c.7 0 1.4-.1 2.08-.17a.5.5 0 01.1 1c-.69.07-1.4.13-2.12.18zm-10.51 0c-.69 0-1.39-.1-2.11-.17a.49.49 0 01-.45-.54.5.5 0 01.54-.45l2.09.17a.5.5 0 01.47.53.51.51 0 01-.56.41zm-4.2-.39c-.69-.08-1.39-.16-2.1-.26a.49.49 0 01-.43-.56.5.5 0 01.56-.43l2.08.26a.5.5 0 01-.06 1zm18.89 0a.5.5 0 01-.07-1c.71-.1 1.39-.21 2.06-.33a.5.5 0 11.18 1c-.68.12-1.38.24-2.1.34zm-23.06-.55h-.07l-2.09-.34a.49.49 0 01-.41-.57.5.5 0 01.58-.41q1 .18 2.07.33a.5.5 0 01.42.57.51.51 0 01-.52.37zm27.2-.2a.5.5 0 01-.11-1c.69-.16 1.36-.33 2-.51a.5.5 0 01.26 1c-.67.18-1.35.35-2.06.51zm-31.35-.5h-.09l-2.07-.4a.51.51 0 01-.4-.59.5.5 0 01.59-.39l2.06.39a.5.5 0 01.4.59.49.49 0 01-.51.35zm35.4-.61a.5.5 0 01-.47-.35.49.49 0 01.32-.63c.67-.22 1.32-.45 1.95-.7a.51.51 0 01.65.29.5.5 0 01-.29.64c-.64.25-1.31.49-2 .72a.45.45 0 01-.18-.02zM99 116.34h-.1c-.68-.14-1.37-.3-2.06-.46a.5.5 0 01-.38-.6.5.5 0 01.6-.37l2 .46a.49.49 0 01.38.59.5.5 0 01-.44.38zm-20.72-.66h-.07a.49.49 0 01-.43-.56c.09-.69.2-1.4.34-2.11a.49.49 0 01.59-.39.48.48 0 01.39.58c-.13.69-.24 1.38-.33 2a.5.5 0 01-.47.48zm16.62-.28h-.12l-2-.51a.5.5 0 01-.35-.61.49.49 0 01.6-.36l2 .51a.51.51 0 01.37.61.5.5 0 01-.48.36zm47.55-.37a.5.5 0 01-.21-1c.64-.29 1.26-.6 1.85-.92a.5.5 0 01.48.88c-.61.33-1.25.65-1.91 1a.54.54 0 01-.19.01zm-51.62-.68h-.14l-2-.56a.51.51 0 01-.35-.62.5.5 0 01.62-.34l2 .56a.5.5 0 01-.13 1zm-4.06-1.15a.36.36 0 01-.14 0l-2-.6a.51.51 0 01-.33-.63.5.5 0 01.62-.33l2 .6a.5.5 0 01.33.62.49.49 0 01-.46.34zm59.38-.16a.5.5 0 01-.27-.92c.59-.37 1.17-.76 1.72-1.16a.5.5 0 11.59.81c-.57.42-1.17.82-1.78 1.19a.42.42 0 01-.24.04zM82.77 112a.39.39 0 01-.15 0l-2-.65a.49.49 0 01-.32-.63.5.5 0 01.63-.32l2 .65a.49.49 0 01.32.62.48.48 0 01-.48.33zm-3.67-.42H79a.51.51 0 01-.36-.61 2.68 2.68 0 00.07-.27h-.07l-2-.68a.5.5 0 01.33-.95l2 .68c.08-.27.16-.54.25-.82a.51.51 0 01.63-.33.51.51 0 01.33.63c-.22.68-.41 1.34-.58 2a.5.5 0 01-.5.32zm70.47-1a.52.52 0 01-.38-.17.51.51 0 01.06-.71c.53-.44 1-.91 1.53-1.39a.49.49 0 01.7 0 .5.5 0 010 .71q-.76.74-1.59 1.44a.48.48 0 01-.32.11zm-74.78-1.28a.51.51 0 01-.17 0c-.66-.24-1.32-.47-2-.72a.49.49 0 01-.3-.64.5.5 0 01.64-.3c.66.25 1.32.48 2 .72a.49.49 0 01.3.63.5.5 0 01-.47.3zm-4-1.45a.51.51 0 01-.17 0l-2-.74a.5.5 0 01-.29-.65.5.5 0 01.64-.29l2 .75a.5.5 0 01-.18 1zm81.74-.21a.54.54 0 01-.33-.12.5.5 0 010-.71c.45-.52.89-1.06 1.29-1.61a.51.51 0 01.7-.1.5.5 0 01.1.7c-.42.57-.87 1.13-1.34 1.67a.52.52 0 01-.38.16zm-72.19-.09a.48.48 0 01-.2 0 .5.5 0 01-.26-.66c.16-.38.45-1 .89-1.94a.5.5 0 01.9.43c-.43.87-.71 1.53-.87 1.9a.51.51 0 01-.42.26zm-13.48-1.2a.57.57 0 01-.18 0l-2-.78a.5.5 0 01-.28-.65.51.51 0 01.65-.28c.65.27 1.31.52 2 .78a.5.5 0 01.29.64.51.51 0 01-.44.28zM63 104.78a.63.63 0 01-.19 0l-1.95-.8a.5.5 0 01.38-.93l2 .8a.49.49 0 01.27.65.48.48 0 01-.51.28zm92.09-.53a.48.48 0 01-.26-.07.49.49 0 01-.16-.69c.36-.59.71-1.19 1-1.8a.5.5 0 01.89.46c-.33.64-.69 1.26-1.07 1.87a.48.48 0 01-.41.23zm-72.86-.51a.46.46 0 01-.23-.06.5.5 0 01-.21-.68c.31-.57.66-1.19 1-1.85a.5.5 0 01.86.5c-.38.65-.72 1.26-1 1.83a.51.51 0 01-.43.26zm-23.12-.57a.41.41 0 01-.19 0l-1.92-.86a.5.5 0 01-.27-.66.51.51 0 01.66-.26l1.93.82a.5.5 0 01-.19 1zm-3.83-1.74a.49.49 0 01-.3-.1c-.34-.26-.91-.71-1.67-1.34a.49.49 0 01-.06-.7.49.49 0 01.7-.07c.74.62 1.31 1.06 1.64 1.31a.5.5 0 01.09.7.51.51 0 01-.41.2zm101.72-.91a.71.71 0 01-.2 0 .52.52 0 01-.27-.66c.27-.64.51-1.29.71-1.93a.5.5 0 01.63-.33.51.51 0 01.33.63c-.22.67-.46 1.35-.74 2a.51.51 0 01-.46.29zm-72.66-.42a.47.47 0 01-.27-.08.5.5 0 01-.15-.69q.54-.85 1.17-1.77a.5.5 0 01.7-.13.51.51 0 01.13.69c-.41.6-.8 1.18-1.16 1.75a.48.48 0 01-.4.23zM52 98.73a.5.5 0 01-.34-.13c-.49-.43-1-.91-1.56-1.43a.5.5 0 010-.71.49.49 0 01.7 0c.55.51 1.07 1 1.55 1.41a.5.5 0 01-.33.88zm34.72-2.11a.53.53 0 01-.3-.09.51.51 0 01-.11-.7c.41-.56.84-1.12 1.29-1.69a.5.5 0 01.71-.08.5.5 0 01.08.7c-.45.56-.87 1.11-1.27 1.66a.51.51 0 01-.37.2zm71.52-.13h-.09a.49.49 0 01-.4-.58c.07-.37.1-.58.1-.59v-1.43a.5.5 0 011 0v1.5c0 .05 0 .28-.12.71a.49.49 0 01-.46.39zM49 95.84a.5.5 0 01-.35-.15c-.48-.48-1-1-1.48-1.52a.5.5 0 010-.71.49.49 0 01.7 0q.75.8 1.47 1.5a.51.51 0 010 .71.51.51 0 01-.34.17zm40.41-2.52a.5.5 0 01-.41-.82c.45-.53.92-1.07 1.41-1.6a.5.5 0 01.74.68c-.48.52-.94 1-1.39 1.56a.49.49 0 01-.4.18zm-43.31-.55a.5.5 0 01-.37-.16c-.46-.52-.92-1-1.39-1.61a.49.49 0 01.06-.7.51.51 0 01.71.06c.46.55.91 1.07 1.37 1.58a.51.51 0 010 .71.54.54 0 01-.43.12zm112.07-.47a.49.49 0 01-.49-.41 16.3 16.3 0 00-.47-2 .51.51 0 01.33-.63.5.5 0 01.62.33 19.06 19.06 0 01.51 2.11.5.5 0 01-.41.57zm-65.96-2.09a.5.5 0 01-.36-.85c.49-.5 1-1 1.52-1.48a.5.5 0 01.71 0 .48.48 0 010 .7c-.51.49-1 1-1.49 1.46a.49.49 0 01-.38.17zm-48.86-.67a.5.5 0 01-.4-.19c-.43-.55-.86-1.11-1.28-1.69a.5.5 0 01.81-.59c.41.57.84 1.12 1.26 1.67a.5.5 0 01-.08.7.52.52 0 01-.31.1zm113.54-1.25a.49.49 0 01-.45-.29 17.49 17.49 0 00-1-1.81.5.5 0 01.86-.52 16.77 16.77 0 011 1.92.51.51 0 01-.25.66.52.52 0 01-.16.04zm-61.62-1a.46.46 0 01-.37-.18.49.49 0 010-.7c.53-.46 1.08-.92 1.63-1.37a.52.52 0 01.71.08.49.49 0 01-.08.7c-.55.44-1.08.89-1.6 1.34a.46.46 0 01-.29.17zm-54.41-1.15a.5.5 0 01-.41-.22c-.39-.58-.78-1.18-1.16-1.79a.5.5 0 11.86-.52c.36.59.74 1.18 1.13 1.75a.5.5 0 01-.14.69.47.47 0 01-.28.09zm113.86-1.44a.5.5 0 01-.4-.19A19.29 19.29 0 00153 83a.48.48 0 010-.7.5.5 0 01.71 0 19.59 19.59 0 011.41 1.63.5.5 0 01-.09.7.49.49 0 01-.31.07zm-56.16 0a.51.51 0 01-.41-.2.51.51 0 01.11-.7c.56-.42 1.14-.83 1.73-1.23a.5.5 0 01.7.13.51.51 0 01-.14.7c-.58.39-1.15.79-1.7 1.2a.46.46 0 01-.29.09zm-59.91-2.14a.51.51 0 01-.44-.26c-.34-.62-.68-1.24-1-1.88a.5.5 0 01.23-.67.51.51 0 01.67.22c.31.63.64 1.24 1 1.84a.49.49 0 01-.19.68.42.42 0 01-.27.07zm63.35-.23a.5.5 0 01-.43-.24.51.51 0 01.17-.69c.59-.36 1.2-.72 1.83-1.07a.5.5 0 01.68.19.51.51 0 01-.19.68q-.91.51-1.8 1a.42.42 0 01-.26.13zm49.76-.66a.49.49 0 01-.32-.12c-.51-.44-1.06-.87-1.63-1.27a.51.51 0 01-.11-.7.5.5 0 01.7-.12c.59.43 1.16.88 1.69 1.33a.51.51 0 01.05.71.52.52 0 01-.34.17zm-46.09-1.4a.51.51 0 01-.45-.27.5.5 0 01.23-.67c.62-.32 1.26-.63 1.91-.92a.5.5 0 01.66.25.49.49 0 01-.25.66c-.63.29-1.26.59-1.87.9a.48.48 0 01-.19.05zm42.68-1.06a.59.59 0 01-.26-.07c-.58-.36-1.19-.7-1.81-1a.5.5 0 01-.22-.67.52.52 0 01.68-.22c.63.33 1.26.68 1.87 1a.51.51 0 01.17.69.52.52 0 01-.39.27zm-111.59-.42a.49.49 0 01-.45-.3c-.29-.64-.56-1.3-.81-2a.5.5 0 11.93-.35c.25.65.51 1.29.79 1.92a.5.5 0 01-.26.66.45.45 0 01-.2.07zm72.78-.25a.51.51 0 01-.46-.31.5.5 0 01.28-.65c.65-.26 1.31-.51 2-.75a.5.5 0 01.33 1c-.66.23-1.31.47-2 .73a.58.58 0 01-.15-.02zm35.1-1.26a.48.48 0 01-.2 0c-1.11-.47-1.83-.68-1.84-.69a.53.53 0 01-.38-.61.46.46 0 01.54-.38h.1a17.73 17.73 0 012 .73.5.5 0 01-.19 1zm-31.13-.13a.5.5 0 01-.14-1c.67-.21 1.35-.4 2-.57a.48.48 0 01.6.36.49.49 0 01-.36.6c-.68.18-1.34.36-2 .56a.39.39 0 01-.1.05zm27.08-1h-.09c-.7-.13-1.38-.25-2.06-.35a.5.5 0 01-.42-.57.5.5 0 01.57-.42l2.09.36a.5.5 0 01-.09 1zm-23 0a.5.5 0 01-.49-.39.51.51 0 01.39-.6c.68-.14 1.38-.27 2.08-.39a.51.51 0 01.58.41.51.51 0 01-.41.58c-.69.11-1.38.24-2 .38zm18.84-.62h-.06c-.7-.09-1.39-.17-2.08-.23a.5.5 0 01.09-1c.7.07 1.4.14 2.11.23a.5.5 0 01-.06 1zm-14.69-.07a.51.51 0 01-.5-.44.5.5 0 01.43-.56c.7-.09 1.4-.16 2.11-.22a.5.5 0 01.55.45.5.5 0 01-.46.54c-.7.06-1.39.14-2.07.22zm10.5-.32l-2.12-.14a.52.52 0 01-.49-.51.5.5 0 01.52-.49l2.12.09a.5.5 0 010 1zm-6.31 0a.49.49 0 01-.5-.47.5.5 0 01.47-.53c.7 0 1.41 0 2.12-.06a.5.5 0 010 1c-.71 0-1.4 0-2.09.06zm-90.65-.19a.49.49 0 01-.48-.35c-.21-.67-.41-1.36-.58-2.05a.51.51 0 01.37-.61.49.49 0 01.6.37c.17.67.36 1.34.56 2a.49.49 0 01-.32.63.39.39 0 01-.15-.08zm-1-4.08a.49.49 0 01-.49-.41c-.13-.71-.23-1.42-.31-2.12a.5.5 0 01.45-.55.5.5 0 01.55.44c.07.68.17 1.37.29 2a.5.5 0 01-.4.58zm-.45-4.18a.5.5 0 01-.5-.48v-2.17a.5.5 0 01.52-.48.5.5 0 01.48.52v2.06a.5.5 0 01-.48.52zM34 62.4h-.06a.5.5 0 01-.44-.56c.08-.7.2-1.42.33-2.11a.51.51 0 01.59-.4.5.5 0 01.39.59c-.13.67-.24 1.36-.32 2a.5.5 0 01-.49.48zm.81-4.12h-.13a.49.49 0 01-.35-.61c.19-.68.4-1.37.64-2a.5.5 0 011 .33c-.24.66-.45 1.32-.63 2a.5.5 0 01-.53.28zm1.41-4a.48.48 0 01-.2 0 .51.51 0 01-.26-.66c.29-.64.6-1.29.93-1.92a.5.5 0 11.88.46c-.32.61-.62 1.24-.89 1.86a.5.5 0 01-.46.3zm1.94-3.73a.48.48 0 01-.26-.07.49.49 0 01-.17-.68c.36-.6.74-1.2 1.15-1.8a.5.5 0 01.69-.13.51.51 0 01.14.7c-.4.58-.77 1.16-1.12 1.74a.5.5 0 01-.43.28zm2.36-3.47a.49.49 0 01-.39-.8c.42-.55.86-1.11 1.33-1.66a.5.5 0 01.76.64 46.1 46.1 0 00-1.3 1.62.51.51 0 01-.4.24zm2.71-3.21a.51.51 0 01-.34-.14.49.49 0 010-.7q.71-.76 1.47-1.53a.5.5 0 01.71 0 .5.5 0 010 .71q-.75.75-1.44 1.5a.52.52 0 01-.4.2zm3-3a.54.54 0 01-.37-.16.51.51 0 010-.71c.51-.47 1-.94 1.58-1.41a.5.5 0 01.66.76q-.81.69-1.56 1.38a.51.51 0 01-.33.21zm3.19-2.75A.48.48 0 0149 38a.49.49 0 01.07-.7c.54-.43 1.1-.87 1.67-1.3a.5.5 0 11.6.79c-.56.43-1.11.86-1.64 1.29a.51.51 0 01-.3.11zm3.35-2.55a.51.51 0 01-.41-.2.51.51 0 01.11-.7c.57-.41 1.14-.81 1.74-1.21a.5.5 0 01.56.82q-.89.6-1.71 1.2a.52.52 0 01-.31.16zm3.47-2.36a.51.51 0 01-.42-.23.5.5 0 01.15-.69c.58-.38 1.18-.76 1.79-1.13a.5.5 0 01.69.16.51.51 0 01-.16.69c-.61.37-1.2.74-1.78 1.12a.5.5 0 01-.29.15zM59.83 31a.51.51 0 01-.44-.25.5.5 0 01.18-.68l1.83-1.06a.5.5 0 01.68.19.5.5 0 01-.19.69c-.61.34-1.22.69-1.81 1a.47.47 0 01-.27.18zm3.64-2a.49.49 0 01-.44-.26.51.51 0 01.2-.68l1.87-1a.5.5 0 11.46.88l-1.85 1a.43.43 0 01-.24.06zm3.74-1.93a.51.51 0 01-.45-.28.5.5 0 01.22-.67l1.9-.93a.5.5 0 11.43.9l-1.88.91a.46.46 0 01-.22.07zM71 25.24a.5.5 0 01-.21-.95l1.92-.88a.5.5 0 01.41.91l-1.91.88a.52.52 0 01-.21.04zm3.84-1.72a.5.5 0 01-.46-.3.51.51 0 01.26-.66l1.94-.83a.5.5 0 11.39.92l-1.97.83a.48.48 0 01-.16.04zm3.88-1.63a.5.5 0 01-.46-.31.49.49 0 01.27-.65l2-.79a.51.51 0 01.65.28.5.5 0 01-.28.65l-2 .78a.43.43 0 01-.18.04zm3.92-1.54a.52.52 0 01-.47-.33.5.5 0 01.29-.64l2-.75a.5.5 0 01.64.3.49.49 0 01-.29.64l-2 .74a.47.47 0 01-.17.04zm3.94-1.47a.52.52 0 01-.47-.33.5.5 0 01.3-.64l2-.71a.51.51 0 01.64.31.5.5 0 01-.31.63l-2 .71a.47.47 0 01-.16.03zm4-1.4a.5.5 0 01-.16-1l2-.68a.51.51 0 01.63.32.49.49 0 01-.32.63l-2 .68zm4-1.33a.49.49 0 01-.48-.35.5.5 0 01.32-.63l2-.64a.5.5 0 11.3 1l-2 .65zm4-1.27a.51.51 0 01-.48-.35.51.51 0 01.33-.63l2-.61a.5.5 0 01.29 1l-2 .62zm4-1.21a.5.5 0 01-.48-.36.49.49 0 01.34-.62l2-.59a.49.49 0 01.62.34.51.51 0 01-.34.62l-2 .58a.35.35 0 01-.13.03zm4-1.17a.51.51 0 01-.48-.36.5.5 0 01.35-.62l2-.56a.5.5 0 01.62.35.5.5 0 01-.35.61l-2 .56a.32.32 0 01-.09.02zm4.06-1.11a.5.5 0 01-.48-.37.51.51 0 01.36-.62l1.8-.48a.51.51 0 01.61.36.5.5 0 01-.36.61l-1.79.48z"/><path fill="#dae1e7" fill-rule="evenodd" d="M73.48 127.55H71.5v-2h-1.33v2h-1.98v1.33h1.98v2.01h1.33v-2.01h1.98v-1.33z"/><circle cx="114.81" cy="9.29" r="3.29" fill="#fff"/><path fill="#ced6de" d="M114.81 13.08a3.79 3.79 0 113.79-3.79 3.79 3.79 0 01-3.79 3.79zm0-6.58a2.79 2.79 0 102.79 2.79 2.79 2.79 0 00-2.79-2.79z"/><path fill="#d2583c" d="M138.78 75.77h-.1.09zm-.39.53zm-2.64-1.18h-.05l-.09.09h.1zm3.06 2.3h-.08zm1.07-1.72zm4.57 2.09v-.06h-.11zm.13-.02l-.02-.01.01.03.01-.02zm-3.91-1.94v-.09.09zm3.56 1.62s.01.01 0 0zm-2.5-1.11l-.1-.06h.11zm-.38 1.34h.15v-.06h-.16zm-7.05 7.18v-.07h-.11zm.14-.03l-.02-.01v.03l.02-.02zm-.35-.32s0 .01 0 0zM115.7 72.15l-.22-.07a.22.22 0 00.22.07zm3.2.98l-.36-.11a.5.5 0 00.36.11zm-42.35 31.7a.61.61 0 000-.11h-.07zm14.8 4.5v-.06h-.1z"/><path fill="#f0e0b4" d="M152.05 117.79a13 13 0 0116.26-8.66l5.37-17.61a2.3 2.3 0 00-1.54-2.89L50.53 51.52a2.32 2.32 0 00-2.89 1.54l-5.37 17.61a13 13 0 01-7.61 24.92l-5.37 17.61a2.31 2.31 0 001.54 2.88l121.61 37.11a2.3 2.3 0 002.89-1.53l5.38-17.61a13 13 0 01-8.66-16.26z"/><path fill="#717790" d="M153.12 154.29a3.25 3.25 0 01-1-.14L30.54 117a3.28 3.28 0 01-2-1.61 3.32 3.32 0 01-.25-2.53L34 94.34l1 .29a12 12 0 107-23l-.95-.3 5.66-18.56a3.29 3.29 0 011.62-2 3.25 3.25 0 012.52-.24l121.62 37.1a3.33 3.33 0 012.2 4.14L169 110.38l-.95-.29a12 12 0 00-15 8 12 12 0 008 15l1 .29-5.76 18.62a3.32 3.32 0 01-3.17 2.29zM35.34 96.8l-5.09 16.69a1.29 1.29 0 00.09 1 1.31 1.31 0 00.78.64l121.62 37.11a1.34 1.34 0 001-.1 1.31 1.31 0 00.64-.78l5.09-16.68a14.06 14.06 0 01-8.38-17.19 14 14 0 0116.54-9.57l5.1-16.69a1.31 1.31 0 00-.88-1.64L50.24 52.48a1.32 1.32 0 00-1.64.87L43.5 70a14 14 0 01-8.16 26.8z"/><path fill="#d2583c" d="M106.11 77.94l-.21-.07a.21.21 0 00.21.07zm3.2.98l-.35-.11a.48.48 0 00.35.11zm5.88 2.46h-.09.08zm-.38.45zm-2.32-1.22l-.09.07h.08zm2.63 2.26h-.07zm1.07-1.49zm.7.16v-.08.08zm.94.53l-.1-.06h.1z"/><rect width="38.54" height="79.61" x="82.22" y="60.92" fill="#fff" rx="3.58" transform="rotate(-73.14 101.498 100.73)"/><path fill="#717790" d="M131.61 130.83a4.66 4.66 0 01-1.33-.2L61 109.62a4.59 4.59 0 01-3.06-5.71l9.1-30a4.58 4.58 0 015.71-3.06l69.34 21a4.57 4.57 0 013.05 5.71l-9.09 30a4.62 4.62 0 01-4.39 3.26zm-60.23-58.2a2.6 2.6 0 00-2.48 1.83l-9.1 30a2.59 2.59 0 001.73 3.22l69.33 21a2.65 2.65 0 002-.2 2.57 2.57 0 001.25-1.53l9.1-30a2.59 2.59 0 00-1.72-3.22l-69.34-21a2.42 2.42 0 00-.77-.1z"/><path fill="#d2583c" d="M81.76 115.12v-.06h-.1z"/><path fill="#ddf5ff" d="M81.73 89.4l42.19 12.78"/><path fill="#5a9cae" d="M90.78 105.38a1 1 0 01-.29 0l-3.83-1.15a1 1 0 01.58-1.92l3.83 1.16a1 1 0 01.67 1.25 1 1 0 01-.96.66zm13.59 4.12a.93.93 0 01-.29 0l-9.89-3a1 1 0 01.58-1.92l9.89 3a1 1 0 01-.29 2zm7.53 2.28a1 1 0 01-.29 0l-3.83-1.16a1 1 0 01.58-1.92l3.83 1.16a1 1 0 01-.29 2z"/><path fill="#d2583c" d="M112.3 89.83h-.22a.2.2 0 00.22 0zm3.35 0h-.38a.46.46 0 00.38 0zm-31.34 42.63v-.05a.86.86 0 00-.07-.1l-.05.06zm15.47.01v-.05h-.09z"/><path fill="#717790" d="M167.6 87.22L52 86.79c-1.4 2.84-1.43 5.72-6.37 7.06l-1-.31a6.9 6.9 0 01-4.07 1.9l-.12 16.68s11.1-.42 13 8.1l2.48.8 79.43.13 37.31-24.34-.57-7.54c.15-.72-1.63-1-2.32-1.28z" opacity=".2"/><path fill="#fff" d="M156 123.16a11.94 11.94 0 0112-11.92V94.36a2.12 2.12 0 00-2.12-2.12L49.32 92a2.11 2.11 0 00-2.12 2.11v16.88a11.94 11.94 0 110 23.88v16.88a2.11 2.11 0 002.11 2.12l116.56.23a2.14 2.14 0 002.13-2.12V135.1a11.94 11.94 0 01-12-11.94z"/><path fill="#f0e0b4" d="M161.11 124.31a13 13 0 0113-12.9V93.15a2.3 2.3 0 00-2.31-2.3L44.73 90.6a2.31 2.31 0 00-2.32 2.29l-.66 16.93a1.75 1.75 0 001.55 1.78c6.48.75 11.75 5.91 11.73 12.51A12.67 12.67 0 0142.33 137v18.27a2.3 2.3 0 002.31 2.3l127.15.24a2.3 2.3 0 002.32-2.29v-18.26a13 13 0 01-13-12.95z"/><path fill="#717790" d="M171.59 159.58l-127.15-.24a3.33 3.33 0 01-3.32-3.34v-19.42h1a12 12 0 000-24.05h-1V93.12a3.33 3.33 0 013.32-3.31l127.16.25a3.29 3.29 0 013.4 3.34v19.41h-1a12 12 0 000 24.05h1v19.41a3.31 3.31 0 01-3.31 3.31zm-128.43-21v17.45a1.33 1.33 0 001.31 1.32l127.16.24a1.31 1.31 0 001.31-1.31v-17.45a14 14 0 01.05-28V93.38a1.3 1.3 0 00-.38-.93 1.34 1.34 0 00-.93-.38l-127.12-.24a1.33 1.33 0 00-1.32 1.32v17.44a14 14 0 01-.05 28z"/><path fill="#d2583c" d="M104.81 98.15h-.23a.21.21 0 00.23 0zm3.34 0h-.37a.44.44 0 00.37 0zm6.34.66h-.09.09zm-.23.54zm-2.57-.49l-.07.1h.1zm3.16 1.39h-.07zm.6-1.73zm.72-.05v-.08.09zm1.05.23h-.11.11z"/><rect width="79.61" height="38.54" x="67.8" y="103.88" fill="#fff" rx="3.58"/><path fill="#717790" d="M143.83 143.41H71.38a4.58 4.58 0 01-4.58-4.58v-31.37a4.58 4.58 0 014.58-4.58h72.45a4.58 4.58 0 014.58 4.58v31.37a4.58 4.58 0 01-4.58 4.58zm-72.45-38.53a2.58 2.58 0 00-2.58 2.58v31.37a2.58 2.58 0 002.58 2.58h72.45a2.58 2.58 0 002.58-2.58v-31.37a2.58 2.58 0 00-2.58-2.58z"/><path fill="#d2583c" d="M92.28 140.79h-.09v.05z"/><path fill="#717790" d="M131.35 118.2H83.26a1 1 0 010-2h48.09a1 1 0 010 2zm-9.83 12.8H93.08a1 1 0 010-2h28.44a1 1 0 110 2z"/></svg>