<svg xmlns="http://www.w3.org/2000/svg" width="147" height="141" fill="none" viewBox="0 0 147 141"><mask id="fs-boxudn30pa" width="142" height="141" x="4" y="0" maskUnits="userSpaceOnUse"><path fill="url(#paint0_linear)" d="M75.197 141c39.095 0 70.787-31.564 70.787-70.5S114.292 0 75.197 0C36.102 0 4.409 31.564 4.409 70.5S36.102 141 75.197 141z"/></mask><g mask="url(#fs-boxudn30pa)"><path fill="url(#paint1_linear)" d="M74.3 140.176c39.091 0 70.779-31.379 70.779-70.088C145.079 31.38 113.391 0 74.301 0S3.522 31.38 3.522 70.088c0 38.709 31.689 70.088 70.779 70.088z"/><path fill="#fff" d="M97.009 37.676a3.207 3.207 0 00-3.207 3.207v174.838h178.77V37.676H97.009zm175.038 11.068h-10.675V38.112h10.675v10.632zm-88.641 66.582v-10.633h10.675v10.633h-10.675zm10.675.522v10.633h-10.675v-10.633h10.675zm-11.113-.522h-10.675v-10.633h10.675v10.633zm0 .522v10.633h-10.675v-10.633h10.675zm-11.2 10.633h-10.676v-10.633h10.676v10.633zm0 .435v10.632h-10.676v-10.632h10.676zm.525 0h10.675v10.632h-10.675v-10.632zm10.675 11.068v10.632h-10.675v-10.632h10.675zm.438 0h10.675v10.632h-10.675v-10.632zm0-.436v-10.632h10.675v10.632h-10.675zm11.113-10.632h10.675v10.632h-10.675v-10.632zm0-.435v-10.633h10.675v10.633h-10.675zm0-11.155v-10.633h10.675v10.633h-10.675zm0-11.068V93.626h10.675v10.632h-10.675zm-.438 0h-10.675V93.626h10.675v10.632zm-11.113 0h-10.675V93.626h10.675v10.632zm-11.2 0h-10.676V93.626h10.676v10.632zm0 .435v10.633h-10.676v-10.633h10.676zm-11.113 10.633h-10.676v-10.633h10.676v10.633zm0 .522v10.633h-10.676v-10.633h10.676zm0 11.068v10.632h-10.676v-10.632h10.676zm0 11.068v10.632h-10.676v-10.632h10.676zm.437 0h10.676v10.632h-10.676v-10.632zm10.676 11.155v10.632h-10.676v-10.632h10.676zm.525 0h10.675v10.632h-10.675v-10.632zm11.113 0h10.675v10.632h-10.675v-10.632zm11.113 0h10.675v10.632h-10.675v-10.632zm0-.523v-10.632h10.675v10.632h-10.675zm11.2-10.632h10.676v10.632h-10.676v-10.632zm0-.436v-10.632h10.676v10.632h-10.676zm0-11.067v-10.633h10.676v10.633h-10.676zm0-11.155v-10.633h10.676v10.633h-10.676zm0-11.068V93.626h10.676v10.632h-10.676zm0-11.068V82.558h10.676V93.19h-10.676zm-.525 0h-10.675V82.558h10.675V93.19zm-11.113 0h-10.675V82.558h10.675V93.19zm-11.113 0h-10.675V82.558h10.675V93.19zm-11.2 0h-10.676V82.558h10.676V93.19zm-11.113 0h-10.676V82.558h10.676V93.19zm0 .436v10.632h-10.676V93.626h10.676zm-11.113 10.632h-10.676V93.626h10.676v10.632zm0 .435v10.633h-10.676v-10.633h10.676zm0 11.155v10.633h-10.676v-10.633h10.676zm0 11.068v10.632h-10.676v-10.632h10.676zm0 11.068v10.632h-10.676v-10.632h10.676zm0 11.155v10.632h-10.676v-10.632h10.676zm.437 0h10.676v10.632h-10.676v-10.632zm10.676 11.068v10.632h-10.676v-10.632h10.676zm.437 0h10.676v10.632h-10.676v-10.632zm11.201 0h10.675v10.632h-10.675v-10.632zm11.113 0h10.675v10.632h-10.675v-10.632zm11.113 0h10.675v10.632h-10.675v-10.632zm11.2 0h10.676v10.632h-10.676v-10.632zm0-.436v-10.632h10.676v10.632h-10.676zm11.113-10.632h10.676v10.632h-10.676v-10.632zm0-.523v-10.632h10.676v10.632h-10.676zm0-11.068v-10.632h10.676v10.632h-10.676zm0-11.067v-10.633h10.676v10.633h-10.676zm0-11.155v-10.633h10.676v10.633h-10.676zm0-11.068V93.626h10.676v10.632h-10.676zm0-11.068V82.558h10.676V93.19h-10.676zm0-11.155V71.403h10.676v10.632h-10.676zm-.437 0h-10.676V71.403h10.676v10.632zm-11.201 0h-10.675V71.403h10.675v10.632zm-11.113 0h-10.675V71.403h10.675v10.632zm-11.113 0h-10.675V71.403h10.675v10.632zm-11.2 0h-10.676V71.403h10.676v10.632zm-11.113 0h-10.676V71.403h10.676v10.632zm-11.113 0h-10.676V71.403h10.676v10.632zm0 .523V93.19h-10.676V82.558h10.676zM138.341 93.19h-10.675V82.558h10.675V93.19zm0 .436v10.632h-10.675V93.626h10.675zm0 11.067v10.633h-10.675v-10.633h10.675zm0 11.155v10.633h-10.675v-10.633h10.675zm0 11.068v10.632h-10.675v-10.632h10.675zm0 11.068v10.632h-10.675v-10.632h10.675zm0 11.155v10.632h-10.675v-10.632h10.675zm0 11.068v10.632h-10.675v-10.632h10.675zm.525 0h10.676v10.632h-10.676v-10.632zm10.676 11.068v10.632h-10.676v-10.632h10.676zm.437 0h10.676v10.632h-10.676v-10.632zm11.113 0h10.676v10.632h-10.676v-10.632zm11.201 0h10.675v10.632h-10.675v-10.632zm11.113 0h10.675v10.632h-10.675v-10.632zm11.113 0h10.675v10.632h-10.675v-10.632zm11.2 0h10.676v10.632h-10.676v-10.632zm11.113 0h10.676v10.632h-10.676v-10.632zm0-.436v-10.632h10.676v10.632h-10.676zm11.113-10.632h10.676v10.632h-10.676v-10.632zm0-.436v-10.632h10.676v10.632h-10.676zm0-11.155v-10.632h10.676v10.632h-10.676zm0-11.068v-10.632h10.676v10.632h-10.676zm0-11.067v-10.633h10.676v10.633h-10.676zm0-11.155v-10.633h10.676v10.633h-10.676zm0-11.068V93.626h10.676v10.632h-10.676zm0-11.068V82.558h10.676V93.19h-10.676zm0-11.155V71.403h10.676v10.632h-10.676zm0-11.068V60.335h10.676v10.632h-10.676zm-.437 0h-10.676V60.335h10.676v10.632zm-11.113 0h-10.676V60.335h10.676v10.632zm-11.201 0h-10.675V60.335h10.675v10.632zm-11.113 0h-10.675V60.335h10.675v10.632zm-11.113 0h-10.675V60.335h10.675v10.632zm-11.2 0h-10.676V60.335h10.676v10.632zm-11.113 0h-10.676V60.335h10.676v10.632zm-11.113 0h-10.676V60.335h10.676v10.632zm-11.201 0h-10.675V60.335h10.675v10.632zm0 .436v10.632h-10.675V71.403h10.675zm-11.113 10.632h-10.675V71.403h10.675v10.632zm0 .523V93.19h-10.675V82.558h10.675zm0 11.068v10.632h-10.675V93.626h10.675zm0 11.067v10.633h-10.675v-10.633h10.675zm0 11.155v10.633h-10.675v-10.633h10.675zm0 11.068v10.632h-10.675v-10.632h10.675zm0 11.068v10.632h-10.675v-10.632h10.675zm0 11.155v10.632h-10.675v-10.632h10.675zm0 11.068v10.632h-10.675v-10.632h10.675zm0 11.068v10.632h-10.675v-10.632h10.675zm.438 0h10.675v10.632h-10.675v-10.632zm10.675 11.155v10.632h-10.675V182.43h10.675zm.525 0h10.676v10.632h-10.676V182.43zm11.113 0h10.676v10.632h-10.676V182.43zm11.113 0h10.676v10.632h-10.676V182.43zm11.201 0h10.675v10.632h-10.675V182.43zm11.113 0h10.675v10.632h-10.675V182.43zm11.113 0h10.675v10.632h-10.675V182.43zm11.2 0h10.676v10.632h-10.676V182.43zm11.113 0h10.676v10.632h-10.676V182.43zm11.113 0h10.676v10.632h-10.676V182.43zm0-.523v-10.632h10.676v10.632h-10.676zm11.201-10.632h10.675v10.632h-10.675v-10.632zm0-.436v-10.632h10.675v10.632h-10.675zm0-11.068v-10.632h10.675v10.632h-10.675zm0-11.155v-10.632h10.675v10.632h-10.675zm0-11.068v-10.632h10.675v10.632h-10.675zm0-11.067v-10.633h10.675v10.633h-10.675zm0-11.155v-10.633h10.675v10.633h-10.675zm0-11.068V93.626h10.675v10.632h-10.675zm0-11.068V82.558h10.675V93.19h-10.675zm0-11.155V71.403h10.675v10.632h-10.675zm0-11.068V60.335h10.675v10.632h-10.675zm0-11.068V49.267h10.675v10.632h-10.675zm-.525 0h-10.676V49.267h10.676v10.632zm-11.113 0h-10.676V49.267h10.676v10.632zm-11.113 0h-10.676V49.267h10.676v10.632zm-11.201 0h-10.675V49.267h10.675v10.632zm-11.113 0h-10.675V49.267h10.675v10.632zm-11.113 0h-10.675V49.267h10.675v10.632zm-11.2 0h-10.676V49.267h10.676v10.632zm-11.113 0h-10.676V49.267h10.676v10.632zm-11.113 0h-10.676V49.267h10.676v10.632zm-11.201 0h-10.675V49.267h10.675v10.632zm-11.113 0h-10.675V49.267h10.675v10.632zm0 .436v10.632h-10.675V60.335h10.675zm-11.113 10.632H105.44V60.335h10.675v10.632zm0 .436v10.632H105.44V71.403h10.675zm0 11.155V93.19H105.44V82.558h10.675zm0 11.068v10.632H105.44V93.626h10.675zm0 11.067v10.633H105.44v-10.633h10.675zm0 11.155v10.633H105.44v-10.633h10.675zm0 11.068v10.632H105.44v-10.632h10.675zm0 11.068v10.632H105.44v-10.632h10.675zm0 11.155v10.632H105.44v-10.632h10.675zm0 11.068v10.632H105.44v-10.632h10.675zm0 11.068v10.632H105.44v-10.632h10.675zm0 11.155v10.632H105.44V182.43h10.675zm.438 0h10.675v10.632h-10.675V182.43zm10.675 11.068v10.632h-10.675v-10.632h10.675zm.438 0h10.675v10.632h-10.675v-10.632zm11.2 0h10.676v10.632h-10.676v-10.632zm11.113 0h10.676v10.632h-10.676v-10.632zm11.113 0h10.676v10.632h-10.676v-10.632zm11.201 0h10.675v10.632h-10.675v-10.632zm11.113 0h10.675v10.632h-10.675v-10.632zm11.113 0h10.675v10.632h-10.675v-10.632zm11.2 0h10.676v10.632h-10.676v-10.632zm11.113 0h10.676v10.632h-10.676v-10.632zm11.113 0h10.676v10.632h-10.676v-10.632zm11.201 0h10.675v10.632h-10.675v-10.632zm0-.436V182.43h10.675v10.632h-10.675zm11.113-10.632h10.675v10.632h-10.675V182.43zm0-.523v-10.632h10.675v10.632h-10.675zm0-11.068v-10.632h10.675v10.632h-10.675zm0-11.068v-10.632h10.675v10.632h-10.675zm0-11.155v-10.632h10.675v10.632h-10.675zm0-11.068v-10.632h10.675v10.632h-10.675zm0-11.067v-10.633h10.675v10.633h-10.675zm0-11.155v-10.633h10.675v10.633h-10.675zm0-11.068V93.626h10.675v10.632h-10.675zm0-11.068V82.558h10.675V93.19h-10.675zm0-11.155V71.403h10.675v10.632h-10.675zm0-11.068V60.335h10.675v10.632h-10.675zm0-11.068V49.267h10.675v10.632h-10.675zm0-11.155V38.112h10.675v10.632h-10.675zm-.438 0h-10.675V38.112h10.675v10.632zm-11.2 0h-10.676V38.112h10.676v10.632zm-11.113 0h-10.676V38.112h10.676v10.632zm-11.113 0h-10.676V38.112h10.676v10.632zm-11.201 0h-10.675V38.112h10.675v10.632zm-11.113 0h-10.675V38.112h10.675v10.632zm-11.113 0h-10.675V38.112h10.675v10.632zm-11.2 0h-10.676V38.112h10.676v10.632zm-11.113 0h-10.676V38.112h10.676v10.632zm-11.113 0h-10.676V38.112h10.676v10.632zm-11.201 0h-10.675V38.112h10.675v10.632zm-11.113 0h-10.675V38.112h10.675v10.632zm-11.113 0H105.44V38.112h10.675v10.632zm0 .523v10.632H105.44V49.267h10.675zm-11.2 10.632H94.24V49.267h10.675v10.632zm0 .436v10.632H94.24V60.335h10.675zm0 11.068v10.632H94.24V71.403h10.675zm0 11.155V93.19H94.24V82.558h10.675zm0 11.068v10.632H94.24V93.626h10.675zm0 11.067v10.633H94.24v-10.633h10.675zm0 11.155v10.633H94.24v-10.633h10.675zm0 11.068v10.632H94.24v-10.632h10.675zm0 11.068v10.632H94.24v-10.632h10.675zm0 11.155v10.632H94.24v-10.632h10.675zm0 11.068v10.632H94.24v-10.632h10.675zm0 11.068v10.632H94.24v-10.632h10.675zm0 11.155v10.632H94.24V182.43h10.675zm0 11.068v10.632H94.24v-10.632h10.675zm.525 0h10.675v10.632H105.44v-10.632zm10.675 11.068v10.632H105.44v-10.632h10.675zm.438 0h10.675v10.632h-10.675v-10.632zm11.113 0h10.675v10.632h-10.675v-10.632zm11.2 0h10.676v10.632h-10.676v-10.632zm11.113 0h10.676v10.632h-10.676v-10.632zm11.113 0h10.676v10.632h-10.676v-10.632zm11.201 0h10.675v10.632h-10.675v-10.632zm11.113 0h10.675v10.632h-10.675v-10.632zm11.113 0h10.675v10.632h-10.675v-10.632zm11.2 0h10.676v10.632h-10.676v-10.632zm11.113 0h10.676v10.632h-10.676v-10.632zm11.113 0h10.676v10.632h-10.676v-10.632zm11.201 0h10.675v10.632h-10.675v-10.632zm11.113 0h10.675v10.632h-10.675v-10.632zm0-.436v-10.632h10.675v10.632h-10.675zm11.113-10.632h10.675v10.632h-10.675v-10.632zm0-.436V182.43h10.675v10.632h-10.675zm0-11.155v-10.632h10.675v10.632h-10.675zm0-11.068v-10.632h10.675v10.632h-10.675zm0-11.068v-10.632h10.675v10.632h-10.675zm0-11.155v-10.632h10.675v10.632h-10.675zm0-11.068v-10.632h10.675v10.632h-10.675zm0-11.067v-10.633h10.675v10.633h-10.675zm0-11.155v-10.633h10.675v10.633h-10.675zm0-11.068V93.626h10.675v10.632h-10.675zm0-11.068V82.558h10.675V93.19h-10.675zm0-11.155V71.403h10.675v10.632h-10.675zm0-11.068V60.335h10.675v10.632h-10.675zm0-11.068V49.267h10.675v10.632h-10.675zM104.915 38.112v10.632H94.24V41.32a3.207 3.207 0 013.207-3.207h7.468zM94.24 204.566h10.675v10.632H94.24v-10.632zm167.132 10.632v-10.632h10.675v10.632h-10.675z"/></g><g filter="url(#filter0_f)"><ellipse cx="69.829" cy="121.727" fill="#000" fill-opacity=".37" rx="67.829" ry=".358"/></g><g filter="url(#filter1_i)"><path fill="#92A2B1" d="M113.957 66.76a14.222 14.222 0 013.113-8.873 14.317 14.317 0 017.983-5.014 2.556 2.556 0 001.435-.89c.364-.45.562-1.01.564-1.589V40.238c0-.676-.269-1.323-.749-1.8a2.562 2.562 0 00-1.808-.746H15.252c-.678 0-1.328.268-1.808.745a2.54 2.54 0 00-.748 1.8V50.26a2.54 2.54 0 00.599 1.63c.385.456.919.764 1.508.869a14.29 14.29 0 018.456 4.864 14.185 14.185 0 013.339 9.138c0 3.343-1.182 6.578-3.34 9.14a14.29 14.29 0 01-8.455 4.863 2.559 2.559 0 00-1.508.869 2.54 2.54 0 00-.6 1.63v10c0 .676.27 1.324.75 1.801a2.56 2.56 0 001.807.746h109.243a2.56 2.56 0 001.808-.746c.48-.477.749-1.125.749-1.8V83.106a2.539 2.539 0 00-.564-1.588 2.556 2.556 0 00-1.435-.89 14.322 14.322 0 01-7.977-5.006 14.222 14.222 0 01-3.119-8.862z"/></g><g filter="url(#filter2_ii)"><path fill="#F3F3F3" d="M92.063 56.41H48.597a2.714 2.714 0 00-2.72 2.71v.006a2.714 2.714 0 002.72 2.709h43.465a2.714 2.714 0 002.719-2.709v-.007a2.714 2.714 0 00-2.72-2.708z"/></g><g filter="url(#filter3_ii)"><path fill="#F3F3F3" d="M85.819 71.063H56.053a2.714 2.714 0 00-2.719 2.708v.007a2.714 2.714 0 002.72 2.708h29.765a2.714 2.714 0 002.72-2.708v-.007a2.714 2.714 0 00-2.72-2.709z"/></g><g filter="url(#filter4_i)"><path fill="url(#paint2_linear)" d="M125.48 103.593c-.029-.007-.057-.012-.081-.03-.662-.488 1.205-8.664 1.381-9.271.89-3.062 2.364-6.041 4.735-8.227 1.679-1.547 6.162-4.574 8.489-2.794 1.96 1.501.123 5.271-.781 6.848-1.62 2.803-4.008 5.074-6.047 7.56-1.217 1.487-2.439 3.003-3.655 4.49-.087.111-.816 1.143-1.281 1.69-.219.258-.535.296-.863.213l-1.897-.479z"/></g><g filter="url(#filter5_i)"><path fill="url(#paint3_linear)" d="M128.158 106.049c.995.213 1.882-.633 1.674-1.629-1.145-5.466-4.932-19.686-12.949-17.094-7.291 2.384 8.379 16.426 10.646 18.412.182.159.393.26.629.311z"/></g><path fill="#77FFE4" fill-opacity=".2" d="M119.066 90.166s9.38 12.193 9.488 14.773zm18.164-4.49s-7.708 9.793-8.546 14.14z"/><path fill="url(#paint4_linear)" d="M118.567 103.07a1.388 1.388 0 011.381-1.521h14.167c.819 0 1.459.706 1.38 1.521l-1.55 16.01a1.387 1.387 0 01-1.38 1.254h-11.067a1.388 1.388 0 01-1.381-1.254l-1.55-16.01z"/><g filter="url(#filter6_i)"><rect width="18.466" height="4.528" x="117.797" y="101.549" fill="url(#paint5_linear)" rx=".694"/></g><g filter="url(#filter7_dii)"><rect width="47.684" height="47.491" x="98.316" y="16.252" fill="#FFA06A" rx="21.073"/></g><g filter="url(#filter8_d)"><path fill="#fff" d="M122.141 45.085a1.984 1.984 0 001.983-1.961l.151-13.411a2.134 2.134 0 10-4.269 0l.151 13.41a1.984 1.984 0 001.984 1.962zm-.017 2.627c-1.285 0-2.34 1.05-2.34 2.396a2.345 2.345 0 002.34 2.331c1.319 0 2.407-1.05 2.407-2.33a2.394 2.394 0 00-2.407-2.397z"/></g><path fill="url(#paint6_radial)" d="M29.082 29.143c4.991 0 9.038-4.03 9.038-9 0-4.972-4.047-9.002-9.038-9.002-4.991 0-9.038 4.03-9.038 9.001 0 4.971 4.047 9.001 9.038 9.001z"/><path fill="url(#paint7_radial)" d="M23.854 19.703c-1.637-1.003-2.047-3.293-.913-5.08 1.102-1.788 3.338-2.447 4.975-1.443 1.638 1.003 2.047 3.293.913 5.08-1.133 1.82-3.369 2.447-4.975 1.443z" opacity=".5"/><path fill="url(#paint8_radial)" d="M105.85 127.175c3.81 0 6.898-3.076 6.898-6.87s-3.088-6.87-6.898-6.87c-3.81 0-6.898 3.076-6.898 6.87s3.088 6.87 6.898 6.87z"/><path fill="url(#paint9_radial)" d="M101.86 119.97c-1.25-.766-1.562-2.513-.697-3.878.841-1.364 2.548-1.867 3.798-1.101 1.249.766 1.562 2.514.697 3.878-.866 1.388-2.572 1.867-3.798 1.101z" opacity=".5"/><defs><filter id="filter0_f" width="137.738" height="2.796" x=".96" y="120.329" color-interpolation-filters="sRGB" filterUnits="userSpaceOnUse"><feFlood flood-opacity="0" result="BackgroundImageFix"/><feBlend in="SourceGraphic" in2="BackgroundImageFix" result="shape"/><feGaussianBlur result="effect1_foregroundBlur" stdDeviation=".52"/></filter><filter id="filter1_i" width="114.445" height="59.071" x="12.607" y="36.738" color-interpolation-filters="sRGB" filterUnits="userSpaceOnUse"><feFlood flood-opacity="0" result="BackgroundImageFix"/><feBlend in="SourceGraphic" in2="BackgroundImageFix" result="shape"/><feColorMatrix in="SourceAlpha" result="hardAlpha" values="0 0 0 0 0 0 0 0 0 0 0 0 0 0 0 0 0 0 127 0"/><feOffset dx="-.089" dy="-1.64"/><feGaussianBlur stdDeviation=".477"/><feComposite in2="hardAlpha" k2="-1" k3="1" operator="arithmetic"/><feColorMatrix values="0 0 0 0 0.438437 0 0 0 0 0.508921 0 0 0 0 0.575 0 0 0 1 0"/><feBlend in2="shape" result="effect1_innerShadow"/></filter><filter id="filter2_ii" width="49.003" height="5.919" x="45.779" y="56.213" color-interpolation-filters="sRGB" filterUnits="userSpaceOnUse"><feFlood flood-opacity="0" result="BackgroundImageFix"/><feBlend in="SourceGraphic" in2="BackgroundImageFix" result="shape"/><feColorMatrix in="SourceAlpha" result="hardAlpha" values="0 0 0 0 0 0 0 0 0 0 0 0 0 0 0 0 0 0 127 0"/><feOffset dy=".495"/><feGaussianBlur stdDeviation=".149"/><feComposite in2="hardAlpha" k2="-1" k3="1" operator="arithmetic"/><feColorMatrix values="0 0 0 0 1 0 0 0 0 1 0 0 0 0 1 0 0 0 1 0"/><feBlend in2="shape" result="effect1_innerShadow"/><feColorMatrix in="SourceAlpha" result="hardAlpha" values="0 0 0 0 0 0 0 0 0 0 0 0 0 0 0 0 0 0 127 0"/><feOffset dx="-.099" dy="-.396"/><feGaussianBlur stdDeviation=".099"/><feComposite in2="hardAlpha" k2="-1" k3="1" operator="arithmetic"/><feColorMatrix values="0 0 0 0 0.833333 0 0 0 0 0.833333 0 0 0 0 0.833333 0 0 0 1 0"/><feBlend in2="effect1_innerShadow" result="effect2_innerShadow"/></filter><filter id="filter3_ii" width="35.303" height="5.919" x="53.235" y="70.864" color-interpolation-filters="sRGB" filterUnits="userSpaceOnUse"><feFlood flood-opacity="0" result="BackgroundImageFix"/><feBlend in="SourceGraphic" in2="BackgroundImageFix" result="shape"/><feColorMatrix in="SourceAlpha" result="hardAlpha" values="0 0 0 0 0 0 0 0 0 0 0 0 0 0 0 0 0 0 127 0"/><feOffset dy=".495"/><feGaussianBlur stdDeviation=".149"/><feComposite in2="hardAlpha" k2="-1" k3="1" operator="arithmetic"/><feColorMatrix values="0 0 0 0 1 0 0 0 0 1 0 0 0 0 1 0 0 0 1 0"/><feBlend in2="shape" result="effect1_innerShadow"/><feColorMatrix in="SourceAlpha" result="hardAlpha" values="0 0 0 0 0 0 0 0 0 0 0 0 0 0 0 0 0 0 127 0"/><feOffset dx="-.099" dy="-.396"/><feGaussianBlur stdDeviation=".099"/><feComposite in2="hardAlpha" k2="-1" k3="1" operator="arithmetic"/><feColorMatrix values="0 0 0 0 0.833333 0 0 0 0 0.833333 0 0 0 0 0.833333 0 0 0 1 0"/><feBlend in2="effect1_innerShadow" result="effect2_innerShadow"/></filter><filter id="filter4_i" width="16.282" height="21.639" x="125.258" y="82.473" color-interpolation-filters="sRGB" filterUnits="userSpaceOnUse"><feFlood flood-opacity="0" result="BackgroundImageFix"/><feBlend in="SourceGraphic" in2="BackgroundImageFix" result="shape"/><feColorMatrix in="SourceAlpha" result="hardAlpha" values="0 0 0 0 0 0 0 0 0 0 0 0 0 0 0 0 0 0 127 0"/><feOffset dx=".665" dy="-.254"/><feGaussianBlur stdDeviation=".867"/><feComposite in2="hardAlpha" k2="-1" k3="1" operator="arithmetic"/><feColorMatrix values="0 0 0 0 0.113056 0 0 0 0 0.616667 0 0 0 0 0.58645 0 0 0 1 0"/><feBlend in2="shape" result="effect1_innerShadow"/></filter><filter id="filter5_i" width="15.564" height="19.323" x="114.964" y="86.759" color-interpolation-filters="sRGB" filterUnits="userSpaceOnUse"><feFlood flood-opacity="0" result="BackgroundImageFix"/><feBlend in="SourceGraphic" in2="BackgroundImageFix" result="shape"/><feColorMatrix in="SourceAlpha" result="hardAlpha" values="0 0 0 0 0 0 0 0 0 0 0 0 0 0 0 0 0 0 127 0"/><feOffset dx=".665" dy="-.254"/><feGaussianBlur stdDeviation=".867"/><feComposite in2="hardAlpha" k2="-1" k3="1" operator="arithmetic"/><feColorMatrix values="0 0 0 0 0.0996528 0 0 0 0 0.683333 0 0 0 0 0.555806 0 0 0 1 0"/><feBlend in2="shape" result="effect1_innerShadow"/></filter><filter id="filter6_i" width="18.743" height="4.736" x="117.797" y="101.341" color-interpolation-filters="sRGB" filterUnits="userSpaceOnUse"><feFlood flood-opacity="0" result="BackgroundImageFix"/><feBlend in="SourceGraphic" in2="BackgroundImageFix" result="shape"/><feColorMatrix in="SourceAlpha" result="hardAlpha" values="0 0 0 0 0 0 0 0 0 0 0 0 0 0 0 0 0 0 127 0"/><feOffset dx=".277" dy="-.208"/><feGaussianBlur stdDeviation=".243"/><feComposite in2="hardAlpha" k2="-1" k3="1" operator="arithmetic"/><feColorMatrix values="0 0 0 0 0.833333 0 0 0 0 0.604343 0 0 0 0 0.0555555 0 0 0 1 0"/><feBlend in2="shape" result="effect1_innerShadow"/></filter><filter id="filter7_dii" width="49.6" height="49.981" x="97.358" y="15.677" color-interpolation-filters="sRGB" filterUnits="userSpaceOnUse"><feFlood flood-opacity="0" result="BackgroundImageFix"/><feColorMatrix in="SourceAlpha" values="0 0 0 0 0 0 0 0 0 0 0 0 0 0 0 0 0 0 127 0"/><feOffset dy=".958"/><feGaussianBlur stdDeviation=".479"/><feColorMatrix values="0 0 0 0 0 0 0 0 0 0 0 0 0 0 0 0 0 0 0.25 0"/><feBlend in2="BackgroundImageFix" result="effect1_dropShadow"/><feBlend in="SourceGraphic" in2="effect1_dropShadow" result="shape"/><feColorMatrix in="SourceAlpha" result="hardAlpha" values="0 0 0 0 0 0 0 0 0 0 0 0 0 0 0 0 0 0 127 0"/><feOffset dy=".862"/><feGaussianBlur stdDeviation=".335"/><feComposite in2="hardAlpha" k2="-1" k3="1" operator="arithmetic"/><feColorMatrix values="0 0 0 0 1 0 0 0 0 0.838871 0 0 0 0 0.691667 0 0 0 1 0"/><feBlend in2="shape" result="effect2_innerShadow"/><feColorMatrix in="SourceAlpha" result="hardAlpha" values="0 0 0 0 0 0 0 0 0 0 0 0 0 0 0 0 0 0 127 0"/><feOffset dx="-.096" dy="-.862"/><feGaussianBlur stdDeviation=".287"/><feComposite in2="hardAlpha" k2="-1" k3="1" operator="arithmetic"/><feColorMatrix values="0 0 0 0 0.808333 0 0 0 0 0.461597 0 0 0 0 0.144826 0 0 0 1 0"/><feBlend in2="effect2_innerShadow" result="effect3_innerShadow"/></filter><filter id="filter8_d" width="6.728" height="26.867" x="118.793" y="27.554" color-interpolation-filters="sRGB" filterUnits="userSpaceOnUse"><feFlood flood-opacity="0" result="BackgroundImageFix"/><feColorMatrix in="SourceAlpha" values="0 0 0 0 0 0 0 0 0 0 0 0 0 0 0 0 0 0 127 0"/><feOffset dy=".991"/><feGaussianBlur stdDeviation=".495"/><feColorMatrix values="0 0 0 0 0 0 0 0 0 0 0 0 0 0 0 0 0 0 0.25 0"/><feBlend in2="BackgroundImageFix" result="effect1_dropShadow"/><feBlend in="SourceGraphic" in2="effect1_dropShadow" result="shape"/></filter><linearGradient id="paint0_linear" x1="75.197" x2="75.197" y1="0" y2="141" gradientUnits="userSpaceOnUse"><stop stop-color="#B5EFFF"/><stop offset="1" stop-color="#E7F8FE"/></linearGradient><linearGradient id="paint1_linear" x1="74.301" x2="74.301" y1="0" y2="140.176" gradientUnits="userSpaceOnUse"><stop stop-color="#B5EFFF"/><stop offset="1" stop-color="#EDFBFF"/></linearGradient><linearGradient id="paint2_linear" x1="143.137" x2="125.809" y1="83.061" y2="98.687" gradientUnits="userSpaceOnUse"><stop stop-color="#BAFFF1" stop-opacity=".26"/><stop offset=".682" stop-color="#4DC7AE"/><stop offset=".969" stop-color="#06896F"/></linearGradient><linearGradient id="paint3_linear" x1="135.4" x2="124.886" y1="89.098" y2="106.876" gradientUnits="userSpaceOnUse"><stop stop-color="#B7FDEF"/><stop offset=".682" stop-color="#09B794"/><stop offset=".969" stop-color="#7EE0CC"/></linearGradient><linearGradient id="paint4_linear" x1="135.643" x2="119.649" y1="113.915" y2="113.915" gradientUnits="userSpaceOnUse"><stop offset=".099" stop-color="#FFEEC5"/><stop offset=".607" stop-color="#FACD63"/><stop offset=".839" stop-color="#EAAF23"/><stop offset=".984" stop-color="#EDB52F"/></linearGradient><linearGradient id="paint5_linear" x1="136.263" x2="119.115" y1="104.53" y2="104.53" gradientUnits="userSpaceOnUse"><stop offset=".099" stop-color="#FFEEC5"/><stop offset=".607" stop-color="#FCBD27"/><stop offset=".984" stop-color="#EFB222"/></linearGradient><radialGradient id="paint6_radial" cx="0" cy="0" r="1" gradientTransform="matrix(16.63359 -4.4937 4.47791 16.57518 24.783 16.508)" gradientUnits="userSpaceOnUse"><stop stop-color="#FFF1CF"/><stop offset=".188" stop-color="#FFE4A2"/><stop offset=".318" stop-color="#FFD364"/><stop offset=".49" stop-color="#FFD364"/><stop offset=".651" stop-color="#FFC73A"/><stop offset=".948" stop-color="#D09500"/></radialGradient><radialGradient id="paint7_radial" cx="0" cy="0" r="1" gradientTransform="rotate(121.993 8.366 15.403) scale(3.76346 3.43353)" gradientUnits="userSpaceOnUse"><stop stop-color="#fff"/><stop offset=".694" stop-color="#fff" stop-opacity="0"/></radialGradient><radialGradient id="paint8_radial" cx="0" cy="0" r="1" gradientTransform="matrix(12.69583 -3.42997 3.41795 12.65133 102.569 117.531)" gradientUnits="userSpaceOnUse"><stop stop-color="#E6C6FF"/><stop offset=".188" stop-color="#C07DF5"/><stop offset=".318" stop-color="#BE6FFC"/><stop offset=".49" stop-color="#B56AF0"/><stop offset=".651" stop-color="#A745F4"/><stop offset=".948" stop-color="#9F3DED"/></radialGradient><radialGradient id="paint9_radial" cx="0" cy="0" r="1" gradientTransform="matrix(-1.5219 2.43622 -2.22266 -1.3885 103.392 117.501)" gradientUnits="userSpaceOnUse"><stop stop-color="#fff"/><stop offset=".694" stop-color="#fff" stop-opacity="0"/></radialGradient></defs></svg>