<svg xmlns="http://www.w3.org/2000/svg" width="316" height="178" fill="none" viewBox="0 0 316 178"><path fill="#EBEFF3" d="M17.727 117.869c7.542-4.664 14.321.793 22.234-.711 13.308-2.532 10.044-21.646 12.452-31.26 5.61-22.388 22.104-32.242 42.479-38.53 20.803-6.413 36.994-21.84 55.092-33.14 15.936-9.922 35.569-14.795 48.209 2.574 8.424 11.578 8.879 29.428 20.187 38.88 6.57 5.478 14.191 2.611 19.92-2.867 8.117-7.729 16.85-16.037 28.967-14.993 8.999.778 17.56 7.833 18.479 16.805 1.708 16.711-19.675 26.576-20.437 42.671-1.045 21.934 31.86 8.053 42.943 15.03 3.85 2.418 6.268 6.705 7.166 11.154 2.173 10.669-1.891 22.127-9.72 29.569-10.268 9.76-22.271 5.776-35.031 7.723-27.483 4.178-55.364-9.76-83.129-11.076-41.638-1.953-88.034 8.173-129.678 6.199-12.2-.575-46.84 13.003-52.945 3.206-6.414-10.298 1.096-33.976 12.812-41.234z"/><path stroke="#92A2B1" stroke-width=".5" d="M71.931 159.26H48.595m161.402 0H97.482"/><path fill="#fff" d="M93.398 91.512V27.54a3.133 3.133 0 013.16-3.134h167.037a3.134 3.134 0 013.134 3.134v107.259a3.136 3.136 0 01-3.134 3.16H96.558a3.16 3.16 0 01-3.16-3.16V99.324"/><path stroke="#273139" stroke-width=".5" d="M93.398 91.512V27.54a3.133 3.133 0 013.16-3.134h167.037a3.134 3.134 0 013.134 3.134v107.259a3.136 3.136 0 01-3.134 3.16H96.558a3.16 3.16 0 01-3.16-3.16V99.324"/><path fill="#273139" stroke="#273139" stroke-width=".5" d="M96.558 24.385h167.038a3.133 3.133 0 013.133 3.133v11.453H93.398V27.539a3.133 3.133 0 013.16-3.154z"/><path fill="#fff" d="M99.06 33.33a1.452 1.452 0 100-2.903 1.452 1.452 0 000 2.904zm4.779 0a1.452 1.452 0 100-2.903 1.452 1.452 0 000 2.904zm4.779 0a1.452 1.452 0 100-2.903 1.452 1.452 0 000 2.904z"/><path stroke="#92A2B1" stroke-width=".5" d="M36.039 114.646l3.06 9.343c2.309 7.061 4.456 18.476 13.857 18.758h17.57s10.561-.381 13.476 5.421l13.26 28.299"/><rect width="3.243" height="25.057" fill="#CFD7DF" rx="1.552" transform="rotate(161.343 12.421 66.11) skewX(.005)"/><path stroke="#131735" stroke-linecap="round" stroke-linejoin="round" stroke-width=".72" d="M125.457 167.38s7.009 2.053 10.237 5.364c0 0-8.555 2.726-21.268.788 0 0-.272-2.376 1.671-5.222a8.448 8.448 0 009.36-.93z" clip-rule="evenodd"/><path fill="#fff" d="M89.82 159.928c-1.65-.616-3.254-1.681-5.003-1.478-1.886.225-3.406 2.288-2.857 4.105.397 1.306 1.608 2.167 2.784 2.862a37.37 37.37 0 0018.228 5.196c-.267 0-1.974-3.337-2.262-3.75a32.99 32.99 0 00-3.07-3.744c-.81-.851-1.86-2.235-2.989-2.585-1.493-.47-3.238.01-4.83-.606z"/><path fill="#4BC1A7" d="M94.51 91.512a7.979 7.979 0 01-1.493 8.977c-2.706 2.668-6.874 2.987-10.67 3.133-6.488.287-13.283.522-19.138-2.287a20.016 20.016 0 01-6.79-5.3 6.042 6.042 0 01-1.415-2.612 2.564 2.564 0 01.982-2.653c1.28-.799 2.893.09 4.23.784 4.518 2.36 9.856 2.61 14.922 2.062 5.067-.548 10.039-1.79 15.116-2.235 1.488-.13 3.134-.135 4.272.862 1.139.997.94 3.31-.522 3.551"/><path stroke="#131735" stroke-linecap="round" stroke-linejoin="round" stroke-width=".72" d="M71.383 92.713a157.58 157.58 0 0022.569-1.102 1.008 1.008 0 011.128.846 10.641 10.641 0 01-.726 5.42c-1.243 3.217-3.353 4.533-4.048 4.889a1.042 1.042 0 01-.455.114c-1.718 0-3.368.042-4.961.047M67.053 92.499c.773.052 1.541.099 2.314.135m9.642 10.299c-28.31-.277-33.041-3.567-33.041-3.567l.172-.314a5.577 5.577 0 012.011-9.687 5.506 5.506 0 013.322.09v0c3.886 1.519 8.602 2.401 13.475 2.866"/><path fill="#527FA5" d="M116.964 164.315a4.925 4.925 0 10.002-9.85 4.925 4.925 0 00-.002 9.85zm-16.645-26.707a6.115 6.115 0 100-12.23 6.116 6.116 0 100 12.23zm-42.495-1.498a7.411 7.411 0 100-14.823 7.411 7.411 0 000 14.823z"/><path fill="#527FA5" d="M121.399 157.26l-15.581-28.336-10.06 6.643 16.699 25.797 8.942-4.104z"/><path fill="#527FA5" d="M57.824 136.11l42.495 1.499.611-12.231-43.106-4.084v14.816zm34.414 21.917a4.924 4.924 0 100-9.849 4.925 4.925 0 100 9.849zm3.844-35.015a6.116 6.116 0 10.001-12.232 6.116 6.116 0 000 12.232z"/><path fill="#527FA5" d="M97.044 154.153l5.16-36.708-12.237-.872-2.502 35.313 9.579 2.267z"/><path fill="#527FA5" d="M55.75 127.737l13.695-1.196 2.643-3.891 16.985 1.598 7.01-1.237-1.06-12.153-36.933 10.1-2.34 6.779z"/><path fill="#131735" d="M89.058 124.255s-1.896 12.012-3.766 12.826l3.197.11"/><path stroke="#fff" stroke-linecap="round" stroke-linejoin="round" stroke-width=".72" d="M102.627 117.79l-5.118 36.363"/><path fill="#4BC1A7" d="M41.863 88.963c1.321-.23 2.611.188 4.32.188 3.389 0 6.152-1.472 6.371-3.337.141-1.18 5.093 7.217 5.437 7.975 11.33 25.134 13.92 15.363 14.724 25.615.69 8.825-10.707 9.776-16.808 11.802-5.902 1.953-9.605-3.259-11.307-8.032-2.575-7.212 5.891-24.34-1.745-24.837-10.853 5.248-6.335-8.46-.992-9.374z"/><path fill="#4BC1A7" d="M34.812 114.26c-.345 2.501-.596 5.342 1.044 7.264 1.07 1.264 2.732 1.833 4.325 2.272a50.14 50.14 0 0019.847 1.326c.204-2.799 1.264-4.752 1.473-7.551-2.408.919-5.745-.757-8.304-.684-2.56.073-7.313.564-8.75-1.567-1.133-1.697.722-3.546.9-5.583.177-2.036.642-4.052.59-6.094-.094-3.791-4.524-9.092-8.159-5.118-1.394 1.525-1.368 4.256-1.63 6.152l-1.337 9.583z"/><path stroke="#fff" stroke-linecap="round" stroke-linejoin="round" stroke-width=".72" d="M90.661 117.79a13.346 13.346 0 00-1.692 6.168c0 .146-.089.276-.235.261l-12.817-1.212"/><path stroke="#131735" stroke-linecap="round" stroke-linejoin="round" stroke-width=".72" d="M96.814 93.95a16.971 16.971 0 014.272.34 5.79 5.79 0 013.275 1.943c1.113 1.425 1.567 4.825-.089 6.073m-5.902-4.183a5.221 5.221 0 002.711 3.227c.611.277-.413 1.045-.595 1.097-1.228.46-5.62-.486-5.307-2.329"/><path fill="#fff" d="M47.874 68.983s5.223 8.355 4.424 12.058c0 0-2.659 6.998-8.754 3.776 0 0-3.18-2.09-3.886-5.123L37.13 72.68l4.701-5.368 6.043 1.67z"/><path stroke="#131735" stroke-linecap="round" stroke-linejoin="round" stroke-width=".72" d="M48.46 68.774c1.75 2.925 3.358 6.267 3.854 9.672.256 1.796 0 3.796-1.15 5.253-1.801 2.256-5.744 2.319-8.048.873-2.052-1.28-3.254-3.614-3.995-5.839"/><path fill="#FF9D45" d="M50.883 63.165s-.648 3.63-5.417 4.784c-3.948.95-2.298 5.175-1.619 6.596a.559.559 0 01-.235.73l-.522.288a.56.56 0 01-.752-.204c-.439-.752-1.384-2.052-2.283-1.263 0 0-1.88.595.073 7.457 0 0-5.385-1.828-6.936-10.011 0 0-.663-3.3 2.09-3.133 0 0-2.241-2.883.292-4.392 2.533-1.51 9.866-1.233 9.866-1.233s2.758.068 4.544-.767a.705.705 0 01.982.778l-.083.37z"/><path stroke="#FF9D45" stroke-linecap="round" stroke-linejoin="round" stroke-width=".72" d="M35.934 68.774a5.338 5.338 0 00-4.027-1.452m3.777 1.138a5.333 5.333 0 00-4.132 1.108"/><path fill="#fff" stroke="#131735" stroke-linecap="round" stroke-linejoin="round" stroke-width=".72" d="M51.366 77.407c1.333-.365 1.932-2.415 1.34-4.58-.594-2.163-2.155-3.622-3.487-3.257-1.333.365-1.933 2.415-1.34 4.58.593 2.164 2.154 3.622 3.487 3.257z"/><path stroke="#131735" stroke-linecap="round" stroke-linejoin="round" stroke-width=".72" d="M47.65 72.31l-5.427 2.752"/><path fill="#fff" d="M49.52 73.103l.658-3.4-.658 3.4z"/><path stroke="#131735" stroke-linecap="round" stroke-linejoin="round" stroke-width=".5" d="M49.52 73.103l.658-3.4"/><path fill="#fff" d="M51.196 70.226l-.444 2.527.444-2.527z"/><path stroke="#131735" stroke-linecap="round" stroke-linejoin="round" stroke-width=".5" d="M51.196 70.226l-.444 2.527"/><path fill="#fff" d="M50.956 74.466l-.413 2.904.413-2.904z"/><path stroke="#131735" stroke-linecap="round" stroke-linejoin="round" stroke-width=".5" d="M50.956 74.466l-.413 2.904"/><path stroke="#131735" stroke-linecap="round" stroke-linejoin="round" stroke-width=".72" d="M94.678 160.508s5.808 4.423 7.636 8.669c0 0-13.22-.93-19.785-7.75 0 0 .24-1.436 3.07-3.4a8.451 8.451 0 009.079 2.481v0z" clip-rule="evenodd"/><path stroke="#131735" stroke-linecap="round" stroke-linejoin="round" stroke-width=".72" d="M82.529 161.427c-1.003-.277-1.442.961-1.442.961 7.835 8.188 20.893 8.188 20.893 8.188s1.279.032 1.216-.658c-.062-.689-.877-.741-.877-.741"/><path stroke="#92A2B1" stroke-width=".5" d="M40.698 127.608h35.01"/><path stroke="#131735" stroke-linecap="round" stroke-linejoin="round" stroke-width=".72" d="M36.828 99.204l-2.236 18.038c-.167 1.358-.329 2.778.178 4.047a5.521 5.521 0 003.5 2.987 16.26 16.26 0 004.7.59l17.988.522"/><path fill="#131735" d="M46.48 104.103l.099 9.238a4.359 4.359 0 01-.167 1.54 1.515 1.515 0 01-1.076 1.045c-.825.141-1.567-.716-1.62-1.567a6.294 6.294 0 01.523-2.444c1.128-3.53-.204-6.684.115-10.157.36-3.88 2.105.439 2.126 2.345z"/><path stroke="#131735" stroke-linecap="round" stroke-linejoin="round" stroke-width=".72" d="M45.378 103.324l-.852 11.03m.089 1.875a70.344 70.344 0 0016.865 1.342c-1.566 2.23-1.666 6.298-.255 8.637m1.785-7.441h4.513c.732 0 1.599.073 1.98.705.381.631-.11 1.645-.851 1.968a4.335 4.335 0 01-2.398.084m-3.834 3.029a35.587 35.587 0 0010.514.773c.674-.053 1.473-.22 1.713-.846a1.196 1.196 0 00-.271-1.17 2.61 2.61 0 00-1.045-.669 7.128 7.128 0 00-3.823-.386"/><path fill="#131735" d="M60.56 99.779c.596 1.269 1.28 2.642 2.555 3.237-.522-.245-1.405-5.06-1.703-5.849-.522-1.436-1.436-4.778-2.726-5.676-1.85-1.295-1.729.475-1.17 1.744.977 2.199 2.032 4.36 3.045 6.544z"/><path stroke="#131735" stroke-linecap="round" stroke-linejoin="round" stroke-width=".72" d="M42.228 88.52c2.032.407 4.116.809 6.163.47 2.048-.34 4.069-1.599 4.7-3.567m-4.073 44.555l.381-.616c.867 1.196 2.434 1.724 3.912 1.703a13.72 13.72 0 004.304-1.003l4.972-1.729m8.269-15.107a8.775 8.775 0 011.916 5.19M52.46 131.822a5.128 5.128 0 005.223 3.948m16.348-18.487l5.286-2.172m56.377 57.633s.768-.152.893.412a.617.617 0 01-.449.726s-3.343 1.567-11.083 1.567a49.204 49.204 0 01-11.162-.805s-.324 0-.24-.631c.084-.632.773-.491.773-.491"/><rect width="33.762" height="4.016" x="82.529" y="140.125" fill="#CFD7DF" rx="1.92" transform="rotate(180 82.529 140.125)"/><path stroke="#92A2B1" stroke-width=".5" d="M62.337 142.758s-13.058-1.133-16.395 8.251C42.604 160.393 35.59 177 35.59 177m40.31-5.718H64.202m-17.749 0H34.748"/><path fill="#fff" d="M250.841 128.517h34.237v34.232h-34.237z"/><path stroke="#92A2B1" stroke-width=".5" d="M250.841 128.517v19.687"/><path fill="#CFD7DF" d="M285.078 128.517h20.809v34.232h-20.809z"/><path stroke="#92A2B1" stroke-width=".5" d="M254.868 162.748h19.565m3.808 0h16.322m11.208-27.834v14.857m-20.693-2.01v14.857m-29.244-34.279h20.218m-21.242 25.328v-19.202m14.421 23.589h-11.94"/><path stroke="#fff" stroke-width=".5" d="M297.112 158.054h-5.97"/><path stroke="#92A2B1" stroke-width=".5" d="M280.2 142.465v10.471m-15.596-17.045h9.74m28.017 26.863h3.525v-3.969"/><path stroke="#fff" stroke-width=".5" d="M288.77 135.207v17.353m-3.692-24.043v11.264"/><path stroke="#92A2B1" stroke-width=".5" d="M305.886 128.517h-5.16"/><path fill="#fff" d="M13.345 110.803l-1.285 14.956-3.557 41.501H7.171v-56.457h6.174zm13.674 0v56.457h-1.332l-4.356-50.77-.486-5.687h6.174z"/><path fill="#CFD7DF" d="M7.171 110.803h6.174l-1.285 14.956-4.889 4.893v-19.849zm19.848 0l-5.688 5.687-.486-5.687h6.174z"/><rect width="34.185" height="3.75" y="107.466" fill="#92A2B1" rx="1.795"/><path stroke="#92A2B1" stroke-width=".5" d="M7.166 110.803v19.849m1.337 36.608l1.906-22.194m10.922-28.576l2.45 28.539"/><path stroke="#fff" stroke-width=".5" d="M32.315 109.027H17.993"/><path fill="#EBEFF3" d="M2.523 92.488a14.34 14.34 0 009.03 13.322h10.65a14.345 14.345 0 001.437-25.98H10.117a14.35 14.35 0 00-7.594 12.658z"/><path stroke="#92A2B1" stroke-width=".5" d="M31.218 92.488a14.292 14.292 0 00-1.468-6.33m-27.227 6.33a14.292 14.292 0 001.462 6.314"/><path fill="#CFD7DF" d="M3.923 92.353a12.95 12.95 0 007.918 12.089l.22.089h9.62l.058-.026a12.957 12.957 0 007.416-7.933c.354-1.07.564-2.18.627-3.306-4.659-3.9-7.756-4.292-9.835-3.718a5.717 5.717 0 00-1.149.45 22.644 22.644 0 01-14.175 2.47l-.68-.115h-.02z"/><path stroke="#fff" stroke-width=".5" d="M21.681 104.531a12.958 12.958 0 007.49-7.964c.353-1.07.564-2.181.627-3.306"/><path stroke="#92A2B1" stroke-width=".5" d="M28.941 105.81H4.801m21.356-26.032H7.59"/><path stroke="#fff" stroke-width=".5" d="M18.803 89.992s-8.446 4.178-14.86 2.355"/><path fill="#EBEFF3" d="M18.114 99.528H9.386l1.525 1.52a3.234 3.234 0 003.98.486l3.223-2.006zm0 0l1.64-1.634v3.598l-1.64-1.964z"/><path stroke="#92A2B1" stroke-width=".5" d="M11.408 100.839a.93.93 0 100-1.859.93.93 0 000 1.859z" clip-rule="evenodd"/><path fill="#EBEFF3" d="M17.21 94.337h7.28l-1.242 1.269a2.7 2.7 0 01-3.322.386l-2.716-1.655zm0 0l-1.363-1.368v3.003l1.363-1.635z"/><path stroke="#92A2B1" stroke-width=".5" d="M22.804 95.428a.773.773 0 100-1.546.773.773 0 000 1.546z" clip-rule="evenodd"/><path fill="#CFD7DF" d="M21.553 8.982l6.005 1.133-5.923 31.4-6.005-1.132zm4.802 24.903h22.026v7.342H26.355zm0-10.644H44.98v6.209H26.355z"/><path stroke="#92A2B1" stroke-width=".5" d="M20.385 11.826l7.213 1.363m-7.532.318l7.219 1.363M15.894 35.629l7.218 1.363m-7.532.318l7.213 1.363"/><path fill="#CFD7DF" d="M13.387 7.71h1.222v34.237h-1.222zm37.318 0h1.222v34.237h-1.222z"/><path fill="#92A2B1" d="M26.355 30.291h23.07v2.731h-23.07z"/><path stroke="#fff" stroke-width=".5" d="M29.65 28.464a2.068 2.068 0 10.001-4.137 2.068 2.068 0 000 4.137zm13.806 11.16a2.068 2.068 0 100-4.137 2.068 2.068 0 000 4.137z" clip-rule="evenodd"/><path fill="#fff" d="M13.387 7.71v17.94V7.71z"/><path stroke="#92A2B1" stroke-width=".5" d="M13.387 7.71v17.94M2.444 42.052H66.03"/><path fill="#fff" d="M14.609 41.269v-6.68 6.68z"/><path stroke="#92A2B1" stroke-width=".5" d="M14.609 41.269v-6.68"/><path fill="#fff" d="M51.932 41.269V27.91v13.36z"/><path stroke="#92A2B1" stroke-width=".5" d="M51.932 41.269V27.91"/><path fill="#fff" d="M44.986 23.242h-4.252 4.252z"/><path stroke="#92A2B1" stroke-width=".5" d="M44.986 23.242h-4.252"/><path fill="#fff" d="M30.612 34.078h-4.256 4.256z"/><path stroke="#92A2B1" stroke-width=".5" d="M30.612 34.078h-4.256"/><path fill="#92A2B1" d="M293.325 127.671h-11.344l-3.333-14.038h18.009l-3.332 14.038z"/><path fill="#EBEFF3" d="M282.994 112.5c1.394-1.175.94-3.54-.287-4.888-1.228-1.347-2.988-2.089-4.445-3.18-1.457-1.092-2.612-2.684-2.392-4.429.219-1.744 2.376-3.17 3.828-2.125.7.522 1.003 1.389 1.233 2.225.23.835.454 1.723 1.081 2.318.627.596 1.797.705 2.272 0l.809-9.922c.199-2.402.737-5.28 2.988-6.136 1.98-.752 4.252.684 5.171 2.611.919 1.927.836 4.13.736 6.267l-.825 17.499-10.169-.24z"/><path fill="#CFD7DF" d="M277.943 111.529h19.414v2.105h-19.414z"/><path stroke="#CFD7DF" stroke-width=".5" d="M278.878 116.908h8.89"/><path stroke="#fff" stroke-width=".5" d="M297.362 113.581h-9.709"/><path stroke="#92A2B1" stroke-width=".5" d="M277.154 99.074a6.267 6.267 0 005.427 5.645m4.184-16.899l-.987 22.398m4.309-22.571l-1.51 22.728m3.792-20.393l-1.311 20.429"/><path stroke="#92A2B1" stroke-width=".5" d="M276.199 100.16c.344.293.781.454 1.232.455.105-.418.157-.872.262-1.29m7.38 3.775c.224.391.582.687 1.008.836.24-.355.439-.773.674-1.128m-1.076-12.241c.186.41.517.737.929.919.267-.334.523-.726.768-1.045m-.146 3.959c-.226.418-.499.81-.815 1.164a30.344 30.344 0 01-.679-.877m-.188 4.909l.621.585c.267-.334.418-.522.685-.877m1.201 6.162c.225.39.583.687 1.008.835.235-.355.439-.767.674-1.128m-1.097-12.24c.19.409.522.735.935.919.266-.335.522-.726.768-1.045m-.147 3.963c-.225.42-.498.81-.814 1.165-.267-.334-.418-.522-.685-.872m-.182 4.904l.621.585c.267-.335.413-.523.679-.878m.606 2.329c.207.401.555.711.977.872.245-.344.464-.752.71-1.096m-.616-12.277c.17.417.488.757.893.955.282-.323.522-.71.809-1.044m-.292 3.984a6.433 6.433 0 01-.862 1.134c-.256-.345-.391-.56-.647-.899m-.372 4.893l.601.606c.282-.324.439-.522.716-.846"/><path fill="#CFD7DF" d="M290.712 23.763c6.277 0 11.366-5.088 11.366-11.364 0-6.275-5.089-11.363-11.366-11.363-6.276 0-11.365 5.088-11.365 11.364 0 6.275 5.089 11.363 11.365 11.363z"/><path fill="#fff" d="M290.713 21.393a8.993 8.993 0 100-17.986 8.994 8.994 0 100 17.986z"/><path stroke="#92A2B1" stroke-width=".5" d="M279.312 12.4c0-6.296 5.104-11.4 11.401-11.4m8.065 19.463c-4.456 4.45-11.674 4.45-16.129 0m8.064-15.358V3.407m0 16.289v1.697m9-8.993h-1.698m-14.598 0h-1.698m15.356 6.36l-1.201-1.2M285.553 7.24l-1.201-1.2m0 12.72l1.201-1.2m10.321-10.32l1.201-1.2m-9.976 4.193l3.708 2.554 5.213-2.893"/><path fill="#fff" stroke="#B2E4D9" stroke-width=".5" d="M190.013 131l-80.034-.02c-3.303-.003-5.979-4.39-5.979-6.101v-16.783c.004-1.71 2.684-5.096 5.987-5.096l80.034.024c3.302 0 4.979 3.387 4.979 5.097v17.783c-.004 1.71-1.684 5.096-4.987 5.096z"/><path stroke="#CFD7DF" stroke-linecap="round" stroke-linejoin="round" stroke-width="1.585" d="M112.888 113.731l13.52.008"/><path stroke="#EBEFF3" stroke-linecap="round" stroke-linejoin="round" stroke-width="1.585" d="M112.888 120.43l68.469.007"/><path stroke="#9ACBFA" stroke-linecap="round" stroke-linejoin="round" stroke-width="1.585" d="M112.473 120.43l26.328.007"/><path fill="#fff" stroke="#B2E4D9" stroke-width=".5" d="M188.815 99.01l-78.85-.036C106.67 98.97 104 96.492 104 93.437V54.53c.004-3.055 2.677-5.53 5.973-5.53l78.85.044c3.294 0 5.965 2.476 5.965 5.53V93.48c-.004 3.055-2.677 5.53-5.973 5.53z"/><path fill="#C0DEFC" d="M228.5 91c10.217 0 18.5-8.283 18.5-18.5S238.717 54 228.5 54 210 62.283 210 72.5 218.283 91 228.5 91z"/><path fill="#fff" stroke="#75B6F5" stroke-width=".53" d="M226.5 88c9.665 0 17.5-7.835 17.5-17.5S236.165 53 226.5 53 209 60.835 209 70.5 216.835 88 226.5 88z"/><path fill="#C0DEFC" d="M241.999 72l-14.243-2.133L225 55c4.557.045 8.91 1.862 12.098 5.05 3.188 3.19 4.952 7.488 4.901 11.95z"/><path stroke="#EBEFF3" stroke-linecap="round" stroke-linejoin="round" stroke-width="1.585" d="M117.05 62.76v28.608m35.342-28.608v28.608"/><path stroke="#9ACBFA" stroke-linecap="round" stroke-linejoin="round" stroke-width="1.585" d="M117.074 75.874v15.538m35.341-15.538v15.538"/><path stroke="#EBEFF3" stroke-linecap="round" stroke-linejoin="round" stroke-width="1.585" d="M125.998 71.948v19.42m35.342-19.42v19.42"/><path stroke="#9ACBFA" stroke-linecap="round" stroke-linejoin="round" stroke-width="1.585" d="M126.014 81.186v10.226m35.342-10.226v10.226"/><path stroke="#EBEFF3" stroke-linecap="round" stroke-linejoin="round" stroke-width="1.585" d="M134.947 62.76v28.608m35.341-28.608v28.608"/><path stroke="#9ACBFA" stroke-linecap="round" stroke-linejoin="round" stroke-width="1.585" d="M134.923 71.004l.055 20.408m35.287-20.408l.055 20.408"/><path stroke="#EBEFF3" stroke-linecap="round" stroke-linejoin="round" stroke-width="1.585" d="M143.895 71.948v19.42m35.342-19.42v19.42M187.5 80v11"/><path stroke="#9ACBFA" stroke-linecap="round" stroke-linejoin="round" stroke-width="1.585" d="M143.887 81.223l.016 10.189m35.326-10.189l.015 10.189M187.49 86l.02 5"/></svg>