<svg xmlns="http://www.w3.org/2000/svg" width="176" height="160" fill="none" viewBox="0 0 176 160"><mask id="fs-6kpih58ywa" width="161" height="160" x="5" y="0" maskUnits="userSpaceOnUse"><path fill="url(#paint0_linear)" d="M85.393 159.654c44.087 0 79.827-35.74 79.827-79.827C165.22 35.74 129.48 0 85.393 0 41.306 0 5.566 35.74 5.566 79.827c0 44.087 35.74 79.827 79.827 79.827z"/></mask><g mask="url(#fs-6kpih58ywa)"><path fill="url(#paint1_linear)" d="M84.383 158.721c44.082 0 79.817-35.531 79.817-79.36C164.2 35.53 128.465 0 84.383 0 40.302 0 4.566 35.53 4.566 79.36s35.736 79.361 79.817 79.361z"/><path fill="#fff" d="M111.373 42.66a5 5 0 00-5 5v196.6h201.599V42.66H111.373zM307.38 55.194h-12.039v-12.04h12.039v12.039zm-99.961 75.39v-12.039h12.039v12.039h-12.039zm12.039.592v12.039h-12.039v-12.039h12.039zm-12.532-.592h-12.039v-12.039h12.039v12.039zm0 .592v12.039h-12.039v-12.039h12.039zm-12.631 12.039h-12.039v-12.039h12.039v12.039zm0 .493v12.039h-12.039v-12.039h12.039zm.592 0h12.039v12.039h-12.039v-12.039zm12.039 12.532v12.039h-12.039V156.24h12.039zm.493 0h12.039v12.039h-12.039V156.24zm0-.493v-12.039h12.039v12.039h-12.039zm12.532-12.039h12.039v12.039h-12.039v-12.039zm0-.493v-12.039h12.039v12.039h-12.039zm0-12.631v-12.039h12.039v12.039h-12.039zm0-12.532v-12.039h12.039v12.039h-12.039zm-.493 0h-12.039v-12.039h12.039v12.039zm-12.532 0h-12.039v-12.039h12.039v12.039zm-12.631 0h-12.039v-12.039h12.039v12.039zm0 .493v12.039h-12.039v-12.039h12.039zm-12.532 12.039h-12.039v-12.039h12.039v12.039zm0 .592v12.039h-12.039v-12.039h12.039zm0 12.532v12.039h-12.039v-12.039h12.039zm0 12.532v12.039h-12.039V156.24h12.039zm.493 0h12.039v12.039h-12.039V156.24zm12.039 12.631v12.039h-12.039v-12.04h12.039zm.592 0h12.039v12.039h-12.039v-12.04zm12.532 0h12.039v12.039h-12.039v-12.04zm12.532 0h12.039v12.039h-12.039v-12.04zm0-.592V156.24h12.039v12.039h-12.039zm12.631-12.039h12.039v12.039h-12.039V156.24zm0-.493v-12.039h12.039v12.039h-12.039zm0-12.532v-12.039h12.039v12.039h-12.039zm0-12.631v-12.039h12.039v12.039h-12.039zm0-12.532v-12.039h12.039v12.039h-12.039zm0-12.532V93.48h12.039v12.04h-12.039zm-.592 0h-12.039V93.48h12.039v12.04zm-12.532 0h-12.039V93.48h12.039v12.04zm-12.532 0h-12.039V93.48h12.039v12.04zm-12.631 0h-12.039V93.48h12.039v12.04zm-12.532 0h-12.039V93.48h12.039v12.04zm0 .493v12.039h-12.039v-12.039h12.039zm-12.532 12.039h-12.039v-12.039h12.039v12.039zm0 .493v12.039h-12.039v-12.039h12.039zm0 12.631v12.039h-12.039v-12.039h12.039zm0 12.532v12.039h-12.039v-12.039h12.039zm0 12.532v12.039h-12.039V156.24h12.039zm0 12.631v12.039h-12.039v-12.04h12.039zm.493 0h12.039v12.039h-12.039v-12.04zm12.039 12.532v12.039h-12.039v-12.039h12.039zm.493 0h12.039v12.039h-12.039v-12.039zm12.631 0h12.039v12.039h-12.039v-12.039zm12.532 0h12.039v12.039h-12.039v-12.039zm12.532 0h12.039v12.039h-12.039v-12.039zm12.631 0h12.039v12.039h-12.039v-12.039zm0-.493v-12.04h12.039v12.039h-12.039zm12.532-12.039h12.039v12.039h-12.039v-12.04zm0-.592V156.24h12.039v12.039h-12.039zm0-12.532v-12.039h12.039v12.039h-12.039zm0-12.532v-12.039h12.039v12.039h-12.039zm0-12.631v-12.039h12.039v12.039h-12.039zm0-12.532v-12.039h12.039v12.039h-12.039zm0-12.532V93.48h12.039v12.04h-12.039zm0-12.631v-12.04h12.039v12.039h-12.039zm-.493 0h-12.039v-12.04h12.039v12.039zm-12.631 0h-12.039v-12.04h12.039v12.039zm-12.532 0h-12.039v-12.04h12.039v12.039zm-12.532 0h-12.039v-12.04h12.039v12.039zm-12.631 0h-12.039v-12.04h12.039v12.039zm-12.532 0h-12.039v-12.04h12.039v12.039zm-12.532 0h-12.039v-12.04h12.039v12.039zm0 .592v12.039h-12.039V93.48h12.039zM156.6 105.519h-12.039v-12.04H156.6v12.04zm0 .493v12.039h-12.039v-12.039H156.6zm0 12.532v12.039h-12.039v-12.039H156.6zm0 12.631v12.039h-12.039v-12.039H156.6zm0 12.532v12.039h-12.039v-12.039H156.6zm0 12.532v12.039h-12.039v-12.039H156.6zm0 12.631v12.039h-12.039V168.87H156.6zm0 12.532v12.039h-12.039v-12.039H156.6zm.592 0h12.039v12.039h-12.039v-12.039zm12.039 12.532v12.039h-12.039v-12.039h12.039zm.493 0h12.039v12.039h-12.039v-12.039zm12.532 0h12.039v12.039h-12.039v-12.039zm12.631 0h12.039v12.039h-12.039v-12.039zm12.532 0h12.039v12.039h-12.039v-12.039zm12.532 0h12.039v12.039h-12.039v-12.039zm12.631 0h12.039v12.039h-12.039v-12.039zm12.532 0h12.039v12.039h-12.039v-12.039zm0-.493v-12.039h12.039v12.039h-12.039zm12.532-12.039h12.039v12.039h-12.039v-12.039zm0-.493V168.87h12.039v12.039h-12.039zm0-12.631v-12.039h12.039v12.039h-12.039zm0-12.532v-12.039h12.039v12.039h-12.039zm0-12.532v-12.039h12.039v12.039h-12.039zm0-12.631v-12.039h12.039v12.039h-12.039zm0-12.532v-12.039h12.039v12.039h-12.039zm0-12.532v-12.04h12.039v12.04h-12.039zm0-12.631V80.849h12.039v12.039h-12.039zm0-12.532V68.317h12.039v12.039h-12.039zm-.493 0h-12.039V68.317h12.039v12.039zm-12.532 0h-12.039V68.317h12.039v12.039zm-12.631 0h-12.039V68.317h12.039v12.039zm-12.532 0h-12.039V68.317h12.039v12.039zm-12.532 0h-12.039V68.317h12.039v12.039zm-12.631 0h-12.039V68.317h12.039v12.039zm-12.532 0h-12.039V68.317h12.039v12.039zm-12.532 0h-12.039V68.317h12.039v12.039zm-12.631 0h-12.039V68.317H156.6v12.039zm0 .493v12.039h-12.039V80.849H156.6zm-12.532 12.039h-12.039V80.849h12.039v12.039zm0 .592v12.039h-12.039v-12.04h12.039zm0 12.532v12.039h-12.039v-12.039h12.039zm0 12.532v12.039h-12.039v-12.039h12.039zm0 12.631v12.039h-12.039v-12.039h12.039zm0 12.532v12.039h-12.039v-12.039h12.039zm0 12.532v12.039h-12.039v-12.039h12.039zm0 12.631v12.039h-12.039V168.87h12.039zm0 12.532v12.039h-12.039v-12.039h12.039zm0 12.532v12.039h-12.039v-12.039h12.039zm.493 0H156.6v12.039h-12.039v-12.039zm12.039 12.631v12.039h-12.039v-12.039H156.6zm.592 0h12.039v12.039h-12.039v-12.039zm12.532 0h12.039v12.039h-12.039v-12.039zm12.532 0h12.039v12.039h-12.039v-12.039zm12.631 0h12.039v12.039h-12.039v-12.039zm12.532 0h12.039v12.039h-12.039v-12.039zm12.532 0h12.039v12.039h-12.039v-12.039zm12.631 0h12.039v12.039h-12.039v-12.039zm12.532 0h12.039v12.039h-12.039v-12.039zm12.532 0h12.039v12.039h-12.039v-12.039zm0-.592v-12.039h12.039v12.039h-12.039zm12.631-12.039h12.039v12.039h-12.039v-12.039zm0-.493v-12.039h12.039v12.039h-12.039zm0-12.532V168.87h12.039v12.039h-12.039zm0-12.631v-12.039h12.039v12.039h-12.039zm0-12.532v-12.039h12.039v12.039h-12.039zm0-12.532v-12.039h12.039v12.039h-12.039zm0-12.631v-12.039h12.039v12.039h-12.039zm0-12.532v-12.039h12.039v12.039h-12.039zm0-12.532v-12.04h12.039v12.04h-12.039zm0-12.631V80.849h12.039v12.039h-12.039zm0-12.532V68.317h12.039v12.039h-12.039zm0-12.532v-12.04h12.039v12.04h-12.039zm-.592 0h-12.039v-12.04h12.039v12.04zm-12.532 0h-12.039v-12.04h12.039v12.04zm-12.532 0h-12.039v-12.04h12.039v12.04zm-12.631 0h-12.039v-12.04h12.039v12.04zm-12.532 0h-12.039v-12.04h12.039v12.04zm-12.532 0h-12.039v-12.04h12.039v12.04zm-12.631 0h-12.039v-12.04h12.039v12.04zm-12.532 0h-12.039v-12.04h12.039v12.04zm-12.532 0h-12.039v-12.04h12.039v12.04zm-12.631 0h-12.039v-12.04H156.6v12.04zm-12.532 0h-12.039v-12.04h12.039v12.04zm0 .493v12.039h-12.039V68.317h12.039zm-12.532 12.039h-12.039V68.317h12.039v12.039zm0 .493v12.039h-12.039V80.849h12.039zm0 12.63v12.04h-12.039v-12.04h12.039zm0 12.533v12.039h-12.039v-12.039h12.039zm0 12.532v12.039h-12.039v-12.039h12.039zm0 12.631v12.039h-12.039v-12.039h12.039zm0 12.532v12.039h-12.039v-12.039h12.039zm0 12.532v12.039h-12.039v-12.039h12.039zm0 12.631v12.039h-12.039V168.87h12.039zm0 12.532v12.039h-12.039v-12.039h12.039zm0 12.532v12.039h-12.039v-12.039h12.039zm0 12.631v12.039h-12.039v-12.039h12.039zm.493 0h12.039v12.039h-12.039v-12.039zm12.039 12.532v12.039h-12.039v-12.039h12.039zm.493 0H156.6v12.039h-12.039v-12.039zm12.631 0h12.039v12.039h-12.039v-12.039zm12.532 0h12.039v12.039h-12.039v-12.039zm12.532 0h12.039v12.039h-12.039v-12.039zm12.631 0h12.039v12.039h-12.039v-12.039zm12.532 0h12.039v12.039h-12.039v-12.039zm12.532 0h12.039v12.039h-12.039v-12.039zm12.631 0h12.039v12.039h-12.039v-12.039zm12.532 0h12.039v12.039h-12.039v-12.039zm12.532 0h12.039v12.039h-12.039v-12.039zm12.631 0h12.039v12.039h-12.039v-12.039zm0-.493v-12.039h12.039v12.039h-12.039zm12.532-12.039h12.039v12.039h-12.039v-12.039zm0-.592v-12.039h12.039v12.039h-12.039zm0-12.532v-12.039h12.039v12.039h-12.039zm0-12.532V168.87h12.039v12.039h-12.039zm0-12.631v-12.039h12.039v12.039h-12.039zm0-12.532v-12.039h12.039v12.039h-12.039zm0-12.532v-12.039h12.039v12.039h-12.039zm0-12.631v-12.039h12.039v12.039h-12.039zm0-12.532v-12.039h12.039v12.039h-12.039zm0-12.532v-12.04h12.039v12.04h-12.039zm0-12.631V80.849h12.039v12.039h-12.039zm0-12.532V68.317h12.039v12.039h-12.039zm0-12.532v-12.04h12.039v12.04h-12.039zm0-12.631V43.154h12.039v12.039h-12.039zm-.493 0h-12.039V43.154h12.039v12.039zm-12.631 0h-12.039V43.154h12.039v12.039zm-12.532 0h-12.039V43.154h12.039v12.039zm-12.532 0h-12.039V43.154h12.039v12.039zm-12.631 0h-12.039V43.154h12.039v12.039zm-12.532 0h-12.039V43.154h12.039v12.039zm-12.532 0h-12.039V43.154h12.039v12.039zm-12.631 0h-12.039V43.154h12.039v12.039zm-12.532 0h-12.039V43.154h12.039v12.039zm-12.532 0h-12.039V43.154h12.039v12.039zm-12.631 0h-12.039V43.154H156.6v12.039zm-12.532 0h-12.039V43.154h12.039v12.039zm-12.532 0h-12.039V43.154h12.039v12.039zm0 .592v12.039h-12.039v-12.04h12.039zm-12.631 12.039h-12.039v-12.04h12.039v12.04zm0 .493v12.039h-12.039V68.317h12.039zm0 12.532v12.039h-12.039V80.849h12.039zm0 12.63v12.04h-12.039v-12.04h12.039zm0 12.533v12.039h-12.039v-12.039h12.039zm0 12.532v12.039h-12.039v-12.039h12.039zm0 12.631v12.039h-12.039v-12.039h12.039zm0 12.532v12.039h-12.039v-12.039h12.039zm0 12.532v12.039h-12.039v-12.039h12.039zm0 12.631v12.039h-12.039V168.87h12.039zm0 12.532v12.039h-12.039v-12.039h12.039zm0 12.532v12.039h-12.039v-12.039h12.039zm0 12.631v12.039h-12.039v-12.039h12.039zm0 12.532v12.039h-12.039v-12.039h12.039zm.592 0h12.039v12.039h-12.039v-12.039zm12.039 12.532v12.039h-12.039v-12.039h12.039zm.493 0h12.039v12.039h-12.039v-12.039zm12.532 0H156.6v12.039h-12.039v-12.039zm12.631 0h12.039v12.039h-12.039v-12.039zm12.532 0h12.039v12.039h-12.039v-12.039zm12.532 0h12.039v12.039h-12.039v-12.039zm12.631 0h12.039v12.039h-12.039v-12.039zm12.532 0h12.039v12.039h-12.039v-12.039zm12.532 0h12.039v12.039h-12.039v-12.039zm12.631 0h12.039v12.039h-12.039v-12.039zm12.532 0h12.039v12.039h-12.039v-12.039zm12.532 0h12.039v12.039h-12.039v-12.039zm12.631 0h12.039v12.039h-12.039v-12.039zm12.532 0h12.039v12.039h-12.039v-12.039zm0-.493v-12.039h12.039v12.039h-12.039zm12.532-12.039h12.039v12.039h-12.039v-12.039zm0-.493v-12.039h12.039v12.039h-12.039zm0-12.631v-12.039h12.039v12.039h-12.039zm0-12.532v-12.039h12.039v12.039h-12.039zm0-12.532V168.87h12.039v12.039h-12.039zm0-12.631v-12.039h12.039v12.039h-12.039zm0-12.532v-12.039h12.039v12.039h-12.039zm0-12.532v-12.039h12.039v12.039h-12.039zm0-12.631v-12.039h12.039v12.039h-12.039zm0-12.532v-12.039h12.039v12.039h-12.039zm0-12.532v-12.04h12.039v12.04h-12.039zm0-12.631V80.849h12.039v12.039h-12.039zm0-12.532V68.317h12.039v12.039h-12.039zm0-12.532v-12.04h12.039v12.04h-12.039zm-176.436-24.67v12.039h-12.039v-7.039a5 5 0 015-5h7.039zM106.866 231.63h12.039v12.039h-12.039V231.63zm188.475 12.039V231.63h12.039v12.039h-12.039z"/></g><path fill="url(#paint2_radial)" d="M35.122 30.74c5.629 0 10.192-4.563 10.192-10.191 0-5.629-4.563-10.192-10.192-10.192-5.629 0-10.192 4.563-10.192 10.192 0 5.628 4.563 10.192 10.192 10.192z"/><path fill="url(#paint3_radial)" d="M29.227 20.051c-1.846-1.136-2.308-3.728-1.03-5.752 1.243-2.024 3.765-2.77 5.611-1.634 1.847 1.137 2.309 3.729 1.03 5.753-1.278 2.06-3.8 2.77-5.61 1.633z" opacity=".5"/><path fill="url(#paint4_radial)" d="M168.198 86.166a7.778 7.778 0 007.779-7.778 7.78 7.78 0 10-7.779 7.779z"/><path fill="url(#paint5_radial)" d="M163.699 78.008c-1.409-.867-1.762-2.846-.786-4.39.949-1.546 2.873-2.115 4.283-1.247 1.409.867 1.761 2.846.786 4.39-.976 1.573-2.901 2.115-4.283 1.247z" opacity=".5"/><g filter="url(#filter0_f)"><ellipse cx="79.339" cy="137.832" fill="#000" fill-opacity=".37" rx="76.49" ry=".405"/></g><g filter="url(#filter1_ii)"><path fill="#E4E4E4" d="M66.186 111.144a2.887 2.887 0 012.885-2.888h18.46a2.885 2.885 0 012.885 2.885v27.241h-24.23v-27.238z"/></g><path fill="url(#paint6_linear)" d="M66.765 119.582h23.463v13.525H66.765z"/><g filter="url(#filter2_ii)"><rect width="128.752" height="86.025" x="15.682" y="36.224" fill="#E4E4E4" rx="4.328"/></g><g filter="url(#filter3_ii)"><rect width="38.546" height="2.989" x="59.173" y="135.393" fill="#E4E4E4" rx="1.494"/></g><rect width="118.391" height="76.159" x="20.963" y="40.105" fill="#010101" rx="3.607"/><g filter="url(#filter4_iii)"><path fill="#4392F4" d="M135.919 39.903H24.572c-2.16 0-3.911 1.763-3.911 3.939v69.804c0 2.175 1.751 3.939 3.911 3.939H135.92c2.16 0 3.911-1.764 3.911-3.939V43.842c0-2.176-1.751-3.94-3.911-3.94z"/></g><g filter="url(#filter5_ii)"><path fill="#EAEAEA" d="M26.954 46.724a1.41 1.41 0 100-2.82 1.41 1.41 0 000 2.82z"/></g><g filter="url(#filter6_ii)"><path fill="#EAEAEA" d="M36.532 46.724a1.41 1.41 0 100-2.82 1.41 1.41 0 000 2.82z"/></g><g filter="url(#filter7_ii)"><path fill="#EAEAEA" d="M31.743 46.724a1.41 1.41 0 100-2.82 1.41 1.41 0 000 2.82z"/></g><path fill="#231F20" d="M129.97 50.222H30.454a3.27 3.27 0 00-3.27 3.27v.257a3.27 3.27 0 003.27 3.27h99.516a3.27 3.27 0 003.27-3.27v-.257a3.27 3.27 0 00-3.27-3.27z" opacity=".2"/><g filter="url(#filter8_ii)"><path fill="url(#paint7_linear)" d="M130.585 50.222H30.83a3.15 3.15 0 100 6.298h99.755a3.15 3.15 0 100-6.298z"/></g><path fill="#231F20" d="M50.285 52.592H34.509a.988.988 0 100 1.975h15.776a.988.988 0 100-1.975z" opacity=".4"/><path fill="#D7D7D7" d="M50.351 52.386H34.59a.988.988 0 100 1.975h15.762a.988.988 0 100-1.975z"/><rect width="102.725" height="48.092" x="29.216" y="64.203" fill="#002880" fill-opacity=".32" rx="2.164"/><g filter="url(#filter9_ii)"><rect width="102.726" height="48.092" x="29.216" y="63.374" fill="url(#paint8_linear)" rx="2.164"/></g><g filter="url(#filter10_ii)"><rect width="46.781" height="39.202" x="33.127" y="68.671" fill="url(#paint9_linear)" rx="2.164"/></g><g filter="url(#filter11_ii)"><rect width="46.781" height="39.202" x="81.34" y="68.671" fill="url(#paint10_linear)" rx="2.164"/></g><rect width="38.219" height="30.995" x="85.693" y="72.752" fill="#CFD7DF" rx="2.164"/><path fill="#92A2B1" d="M105.968 87.085V82.76a1.165 1.165 0 00-2.33 0v4.325h-4.395a1.095 1.095 0 100 2.19h4.395v4.465a1.165 1.165 0 002.33 0v-4.464h4.395a1.096 1.096 0 000-2.19h-4.395z"/><g filter="url(#filter12_dii)"><rect width="50.795" height="49.372" x="107.339" y="27.791" fill="url(#paint11_linear)" rx="5.889"/></g><g filter="url(#filter13_dii)"><rect width="30.804" height="29.941" x="6.262" y="75.63" fill="url(#paint12_linear)" rx="2.164"/></g><g filter="url(#filter14_dii)"><rect width="6.291" height="36.36" fill="#00A886" rx="3.145" transform="matrix(-1 0 0 1 147.007 33.672)"/></g><g filter="url(#filter15_dii)"><rect width="6.291" height="27.373" fill="#00A886" rx="3.145" transform="matrix(-1 0 0 1 135.71 42.66)"/></g><g filter="url(#filter16_dii)"><rect width="6.291" height="19.549" fill="#00A886" rx="3.145" transform="matrix(-1 0 0 1 124.413 50.483)"/></g><g filter="url(#filter17_dii)"><path fill="#08C7FB" fill-rule="evenodd" d="M56.871 99.076c7.485 0 13.554-6.069 13.554-13.554 0-7.486-6.069-13.554-13.554-13.554-7.486 0-13.554 6.069-13.554 13.554s6.069 13.554 13.554 13.554zm0-3.433c5.59 0 10.123-4.532 10.123-10.122S62.462 75.4 56.87 75.4c-5.59 0-10.122 4.532-10.122 10.122S51.28 95.644 56.87 95.644z" clip-rule="evenodd"/></g><g filter="url(#filter18_ii)"><path fill="#E86F25" d="M52.131 76.564a10.078 10.078 0 014.717-1.164 10.09 10.09 0 017.18 2.987l2.354-2.499a13.51 13.51 0 00-9.534-3.92 13.49 13.49 0 00-6.284 1.542l1.567 3.054z"/></g><g filter="url(#filter19_d)"><rect width="16.611" height="1.743" x="13.377" y="99.127" fill="#3E3E3E" rx=".872"/></g><g filter="url(#filter20_ii)"><rect width="16.878" height="2.106" x="13.225" y="98.764" fill="#E0E0E0" rx="1.053"/></g><g filter="url(#filter21_dii)"><path stroke="#F2C94C" stroke-linecap="round" stroke-width="1.443" d="M9.953 91.171s4.488-8.572 10.62-2.727c4.962 4.74 8.218 5.039 12.801-2.832"/></g><g filter="url(#filter22_d)"><rect width="16.611" height="1.743" x="48.228" y="101.581" fill="#3E3E3E" rx=".872"/></g><g filter="url(#filter23_ii)"><rect width="16.878" height="2.106" x="48.076" y="101.218" fill="#E0E0E0" rx="1.053"/></g><g filter="url(#filter24_i)"><path fill="url(#paint13_linear)" d="M151.336 116.588c-.049-.012-.101-.021-.138-.056-.763-.729 1.494-10.653 1.708-11.395 1.091-3.767 2.898-7.433 5.804-10.122 2.056-1.904 7.551-5.629 10.402-3.44 2.403 1.849.152 6.488-.956 8.427-1.986 3.45-4.912 6.245-7.411 9.304-1.491 1.829-2.989 3.694-4.48 5.524-.096.126-.852 1.197-1.416 1.895-.362.447-.887.529-1.445.388l-2.068-.525z"/></g><g filter="url(#filter25_i)"><path fill="url(#paint14_linear)" d="M154.598 119.605c1.219.262 2.305-.774 2.051-1.995-1.401-6.718-6.042-24.235-15.871-21.044-8.934 2.933 10.265 20.209 13.046 22.656.224.196.483.321.774.383z"/></g><path fill="#77FFE4" fill-opacity=".2" d="M143.454 100.06s11.495 15.004 11.627 18.179l-11.627-18.179zm22.259-5.525s-9.445 12.051-10.472 17.399l10.472-17.399z"/><path fill="url(#paint15_linear)" d="M142.909 116.643a2.35 2.35 0 012.34-2.575h15.93a2.35 2.35 0 012.34 2.575l-1.776 18.414a2.35 2.35 0 01-2.339 2.125h-12.38a2.35 2.35 0 01-2.339-2.125l-1.776-18.414z"/><g filter="url(#filter26_i)"><rect width="22.63" height="5.571" x="141.899" y="114.068" fill="url(#paint16_linear)" rx="1.175"/></g><defs><filter id="filter0_f" width="156.224" height="4.054" x="1.227" y="135.805" color-interpolation-filters="sRGB" filterUnits="userSpaceOnUse"><feFlood flood-opacity="0" result="BackgroundImageFix"/><feBlend in="SourceGraphic" in2="BackgroundImageFix" result="shape"/><feGaussianBlur result="effect1_foregroundBlur" stdDeviation=".811"/></filter><filter id="filter1_ii" width="24.519" height="30.415" x="66.041" y="108.112" color-interpolation-filters="sRGB" filterUnits="userSpaceOnUse"><feFlood flood-opacity="0" result="BackgroundImageFix"/><feBlend in="SourceGraphic" in2="BackgroundImageFix" result="shape"/><feColorMatrix in="SourceAlpha" result="hardAlpha" values="0 0 0 0 0 0 0 0 0 0 0 0 0 0 0 0 0 0 127 0"/><feOffset dx=".721" dy=".794"/><feGaussianBlur stdDeviation=".072"/><feComposite in2="hardAlpha" k2="-1" k3="1" operator="arithmetic"/><feColorMatrix values="0 0 0 0 0.958333 0 0 0 0 0.958333 0 0 0 0 0.958333 0 0 0 1 0"/><feBlend in2="shape" result="effect1_innerShadow"/><feColorMatrix in="SourceAlpha" result="hardAlpha" values="0 0 0 0 0 0 0 0 0 0 0 0 0 0 0 0 0 0 127 0"/><feOffset dx="-.721" dy="-.433"/><feGaussianBlur stdDeviation=".072"/><feComposite in2="hardAlpha" k2="-1" k3="1" operator="arithmetic"/><feColorMatrix values="0 0 0 0 0.833333 0 0 0 0 0.833333 0 0 0 0 0.833333 0 0 0 1 0"/><feBlend in2="effect1_innerShadow" result="effect2_innerShadow"/></filter><filter id="filter2_ii" width="129.617" height="86.963" x="15.538" y="36.08" color-interpolation-filters="sRGB" filterUnits="userSpaceOnUse"><feFlood flood-opacity="0" result="BackgroundImageFix"/><feBlend in="SourceGraphic" in2="BackgroundImageFix" result="shape"/><feColorMatrix in="SourceAlpha" result="hardAlpha" values="0 0 0 0 0 0 0 0 0 0 0 0 0 0 0 0 0 0 127 0"/><feOffset dx=".721" dy=".794"/><feGaussianBlur stdDeviation=".433"/><feComposite in2="hardAlpha" k2="-1" k3="1" operator="arithmetic"/><feColorMatrix values="0 0 0 0 1 0 0 0 0 1 0 0 0 0 1 0 0 0 1 0"/><feBlend in2="shape" result="effect1_innerShadow"/><feColorMatrix in="SourceAlpha" result="hardAlpha" values="0 0 0 0 0 0 0 0 0 0 0 0 0 0 0 0 0 0 127 0"/><feOffset dx="-.721" dy="-.433"/><feGaussianBlur stdDeviation=".072"/><feComposite in2="hardAlpha" k2="-1" k3="1" operator="arithmetic"/><feColorMatrix values="0 0 0 0 0.833333 0 0 0 0 0.833333 0 0 0 0 0.833333 0 0 0 1 0"/><feBlend in2="effect1_innerShadow" result="effect2_innerShadow"/></filter><filter id="filter3_ii" width="38.834" height="3.277" x="59.029" y="135.249" color-interpolation-filters="sRGB" filterUnits="userSpaceOnUse"><feFlood flood-opacity="0" result="BackgroundImageFix"/><feBlend in="SourceGraphic" in2="BackgroundImageFix" result="shape"/><feColorMatrix in="SourceAlpha" result="hardAlpha" values="0 0 0 0 0 0 0 0 0 0 0 0 0 0 0 0 0 0 127 0"/><feOffset dx=".721" dy=".794"/><feGaussianBlur stdDeviation=".072"/><feComposite in2="hardAlpha" k2="-1" k3="1" operator="arithmetic"/><feColorMatrix values="0 0 0 0 0.958333 0 0 0 0 0.958333 0 0 0 0 0.958333 0 0 0 1 0"/><feBlend in2="shape" result="effect1_innerShadow"/><feColorMatrix in="SourceAlpha" result="hardAlpha" values="0 0 0 0 0 0 0 0 0 0 0 0 0 0 0 0 0 0 127 0"/><feOffset dx="-.721" dy="-.433"/><feGaussianBlur stdDeviation=".072"/><feComposite in2="hardAlpha" k2="-1" k3="1" operator="arithmetic"/><feColorMatrix values="0 0 0 0 0.833333 0 0 0 0 0.833333 0 0 0 0 0.833333 0 0 0 1 0"/><feBlend in2="effect1_innerShadow" result="effect2_innerShadow"/></filter><filter id="filter4_iii" width="119.942" height="78.996" x="19.888" y="39.439" color-interpolation-filters="sRGB" filterUnits="userSpaceOnUse"><feFlood flood-opacity="0" result="BackgroundImageFix"/><feBlend in="SourceGraphic" in2="BackgroundImageFix" result="shape"/><feColorMatrix in="SourceAlpha" result="hardAlpha" values="0 0 0 0 0 0 0 0 0 0 0 0 0 0 0 0 0 0 127 0"/><feOffset dy="-.464"/><feGaussianBlur stdDeviation=".464"/><feComposite in2="hardAlpha" k2="-1" k3="1" operator="arithmetic"/><feColorMatrix values="0 0 0 0 0.089132 0 0 0 0 0.328429 0 0 0 0 0.629167 0 0 0 1 0"/><feBlend in2="shape" result="effect1_innerShadow"/><feColorMatrix in="SourceAlpha" result="hardAlpha" values="0 0 0 0 0 0 0 0 0 0 0 0 0 0 0 0 0 0 127 0"/><feOffset dy=".85"/><feGaussianBlur stdDeviation=".425"/><feComposite in2="hardAlpha" k2="-1" k3="1" operator="arithmetic"/><feColorMatrix values="0 0 0 0 0.641667 0 0 0 0 0.8495 0 0 0 0 1 0 0 0 1 0"/><feBlend in2="effect1_innerShadow" result="effect2_innerShadow"/><feColorMatrix in="SourceAlpha" result="hardAlpha" values="0 0 0 0 0 0 0 0 0 0 0 0 0 0 0 0 0 0 127 0"/><feOffset dx="-.773"/><feGaussianBlur stdDeviation=".386"/><feComposite in2="hardAlpha" k2="-1" k3="1" operator="arithmetic"/><feColorMatrix values="0 0 0 0 0 0 0 0 0 0 0 0 0 0 0 0 0 0 0.25 0"/><feBlend in2="effect2_innerShadow" result="effect3_innerShadow"/></filter><filter id="filter5_ii" width="3.052" height="3.052" x="25.389" y="43.75" color-interpolation-filters="sRGB" filterUnits="userSpaceOnUse"><feFlood flood-opacity="0" result="BackgroundImageFix"/><feBlend in="SourceGraphic" in2="BackgroundImageFix" result="shape"/><feColorMatrix in="SourceAlpha" result="hardAlpha" values="0 0 0 0 0 0 0 0 0 0 0 0 0 0 0 0 0 0 127 0"/><feOffset dx=".155" dy=".155"/><feGaussianBlur stdDeviation=".039"/><feComposite in2="hardAlpha" k2="-1" k3="1" operator="arithmetic"/><feColorMatrix values="0 0 0 0 1 0 0 0 0 1 0 0 0 0 1 0 0 0 1 0"/><feBlend in2="shape" result="effect1_innerShadow"/><feColorMatrix in="SourceAlpha" result="hardAlpha" values="0 0 0 0 0 0 0 0 0 0 0 0 0 0 0 0 0 0 127 0"/><feOffset dx="-.155" dy="-.155"/><feGaussianBlur stdDeviation=".077"/><feComposite in2="hardAlpha" k2="-1" k3="1" operator="arithmetic"/><feColorMatrix values="0 0 0 0 0.658333 0 0 0 0 0.658333 0 0 0 0 0.658333 0 0 0 1 0"/><feBlend in2="effect1_innerShadow" result="effect2_innerShadow"/></filter><filter id="filter6_ii" width="3.052" height="3.052" x="34.967" y="43.75" color-interpolation-filters="sRGB" filterUnits="userSpaceOnUse"><feFlood flood-opacity="0" result="BackgroundImageFix"/><feBlend in="SourceGraphic" in2="BackgroundImageFix" result="shape"/><feColorMatrix in="SourceAlpha" result="hardAlpha" values="0 0 0 0 0 0 0 0 0 0 0 0 0 0 0 0 0 0 127 0"/><feOffset dx=".155" dy=".155"/><feGaussianBlur stdDeviation=".039"/><feComposite in2="hardAlpha" k2="-1" k3="1" operator="arithmetic"/><feColorMatrix values="0 0 0 0 1 0 0 0 0 1 0 0 0 0 1 0 0 0 1 0"/><feBlend in2="shape" result="effect1_innerShadow"/><feColorMatrix in="SourceAlpha" result="hardAlpha" values="0 0 0 0 0 0 0 0 0 0 0 0 0 0 0 0 0 0 127 0"/><feOffset dx="-.155" dy="-.155"/><feGaussianBlur stdDeviation=".077"/><feComposite in2="hardAlpha" k2="-1" k3="1" operator="arithmetic"/><feColorMatrix values="0 0 0 0 0.658333 0 0 0 0 0.658333 0 0 0 0 0.658333 0 0 0 1 0"/><feBlend in2="effect1_innerShadow" result="effect2_innerShadow"/></filter><filter id="filter7_ii" width="3.052" height="3.052" x="30.178" y="43.75" color-interpolation-filters="sRGB" filterUnits="userSpaceOnUse"><feFlood flood-opacity="0" result="BackgroundImageFix"/><feBlend in="SourceGraphic" in2="BackgroundImageFix" result="shape"/><feColorMatrix in="SourceAlpha" result="hardAlpha" values="0 0 0 0 0 0 0 0 0 0 0 0 0 0 0 0 0 0 127 0"/><feOffset dx=".155" dy=".155"/><feGaussianBlur stdDeviation=".039"/><feComposite in2="hardAlpha" k2="-1" k3="1" operator="arithmetic"/><feColorMatrix values="0 0 0 0 1 0 0 0 0 1 0 0 0 0 1 0 0 0 1 0"/><feBlend in2="shape" result="effect1_innerShadow"/><feColorMatrix in="SourceAlpha" result="hardAlpha" values="0 0 0 0 0 0 0 0 0 0 0 0 0 0 0 0 0 0 127 0"/><feOffset dx="-.155" dy="-.155"/><feGaussianBlur stdDeviation=".077"/><feComposite in2="hardAlpha" k2="-1" k3="1" operator="arithmetic"/><feColorMatrix values="0 0 0 0 0.658333 0 0 0 0 0.658333 0 0 0 0 0.658333 0 0 0 1 0"/><feBlend in2="effect1_innerShadow" result="effect2_innerShadow"/></filter><filter id="filter8_ii" width="106.921" height="7.235" x="27.535" y="50.078" color-interpolation-filters="sRGB" filterUnits="userSpaceOnUse"><feFlood flood-opacity="0" result="BackgroundImageFix"/><feBlend in="SourceGraphic" in2="BackgroundImageFix" result="shape"/><feColorMatrix in="SourceAlpha" result="hardAlpha" values="0 0 0 0 0 0 0 0 0 0 0 0 0 0 0 0 0 0 127 0"/><feOffset dx=".721" dy=".794"/><feGaussianBlur stdDeviation=".433"/><feComposite in2="hardAlpha" k2="-1" k3="1" operator="arithmetic"/><feColorMatrix values="0 0 0 0 1 0 0 0 0 1 0 0 0 0 1 0 0 0 1 0"/><feBlend in2="shape" result="effect1_innerShadow"/><feColorMatrix in="SourceAlpha" result="hardAlpha" values="0 0 0 0 0 0 0 0 0 0 0 0 0 0 0 0 0 0 127 0"/><feOffset dx="-.721" dy="-.433"/><feGaussianBlur stdDeviation=".072"/><feComposite in2="hardAlpha" k2="-1" k3="1" operator="arithmetic"/><feColorMatrix values="0 0 0 0 0.833333 0 0 0 0 0.833333 0 0 0 0 0.833333 0 0 0 1 0"/><feBlend in2="effect1_innerShadow" result="effect2_innerShadow"/></filter><filter id="filter9_ii" width="103.591" height="49.03" x="29.072" y="63.23" color-interpolation-filters="sRGB" filterUnits="userSpaceOnUse"><feFlood flood-opacity="0" result="BackgroundImageFix"/><feBlend in="SourceGraphic" in2="BackgroundImageFix" result="shape"/><feColorMatrix in="SourceAlpha" result="hardAlpha" values="0 0 0 0 0 0 0 0 0 0 0 0 0 0 0 0 0 0 127 0"/><feOffset dx=".721" dy=".794"/><feGaussianBlur stdDeviation=".433"/><feComposite in2="hardAlpha" k2="-1" k3="1" operator="arithmetic"/><feColorMatrix values="0 0 0 0 1 0 0 0 0 1 0 0 0 0 1 0 0 0 1 0"/><feBlend in2="shape" result="effect1_innerShadow"/><feColorMatrix in="SourceAlpha" result="hardAlpha" values="0 0 0 0 0 0 0 0 0 0 0 0 0 0 0 0 0 0 127 0"/><feOffset dx="-.721" dy="-.433"/><feGaussianBlur stdDeviation=".072"/><feComposite in2="hardAlpha" k2="-1" k3="1" operator="arithmetic"/><feColorMatrix values="0 0 0 0 0.833333 0 0 0 0 0.833333 0 0 0 0 0.833333 0 0 0 1 0"/><feBlend in2="effect1_innerShadow" result="effect2_innerShadow"/></filter><filter id="filter10_ii" width="47.647" height="40.14" x="32.982" y="68.527" color-interpolation-filters="sRGB" filterUnits="userSpaceOnUse"><feFlood flood-opacity="0" result="BackgroundImageFix"/><feBlend in="SourceGraphic" in2="BackgroundImageFix" result="shape"/><feColorMatrix in="SourceAlpha" result="hardAlpha" values="0 0 0 0 0 0 0 0 0 0 0 0 0 0 0 0 0 0 127 0"/><feOffset dx=".721" dy=".794"/><feGaussianBlur stdDeviation=".433"/><feComposite in2="hardAlpha" k2="-1" k3="1" operator="arithmetic"/><feColorMatrix values="0 0 0 0 1 0 0 0 0 1 0 0 0 0 1 0 0 0 1 0"/><feBlend in2="shape" result="effect1_innerShadow"/><feColorMatrix in="SourceAlpha" result="hardAlpha" values="0 0 0 0 0 0 0 0 0 0 0 0 0 0 0 0 0 0 127 0"/><feOffset dx="-.721" dy="-.433"/><feGaussianBlur stdDeviation=".072"/><feComposite in2="hardAlpha" k2="-1" k3="1" operator="arithmetic"/><feColorMatrix values="0 0 0 0 0.833333 0 0 0 0 0.833333 0 0 0 0 0.833333 0 0 0 1 0"/><feBlend in2="effect1_innerShadow" result="effect2_innerShadow"/></filter><filter id="filter11_ii" width="47.647" height="40.14" x="81.196" y="68.527" color-interpolation-filters="sRGB" filterUnits="userSpaceOnUse"><feFlood flood-opacity="0" result="BackgroundImageFix"/><feBlend in="SourceGraphic" in2="BackgroundImageFix" result="shape"/><feColorMatrix in="SourceAlpha" result="hardAlpha" values="0 0 0 0 0 0 0 0 0 0 0 0 0 0 0 0 0 0 127 0"/><feOffset dx=".721" dy=".794"/><feGaussianBlur stdDeviation=".433"/><feComposite in2="hardAlpha" k2="-1" k3="1" operator="arithmetic"/><feColorMatrix values="0 0 0 0 1 0 0 0 0 1 0 0 0 0 1 0 0 0 1 0"/><feBlend in2="shape" result="effect1_innerShadow"/><feColorMatrix in="SourceAlpha" result="hardAlpha" values="0 0 0 0 0 0 0 0 0 0 0 0 0 0 0 0 0 0 127 0"/><feOffset dx="-.721" dy="-.433"/><feGaussianBlur stdDeviation=".072"/><feComposite in2="hardAlpha" k2="-1" k3="1" operator="arithmetic"/><feColorMatrix values="0 0 0 0 0.833333 0 0 0 0 0.833333 0 0 0 0 0.833333 0 0 0 1 0"/><feBlend in2="effect1_innerShadow" result="effect2_innerShadow"/></filter><filter id="filter12_dii" width="66.847" height="65.424" x="93.839" y="26.802" color-interpolation-filters="sRGB" filterUnits="userSpaceOnUse"><feFlood flood-opacity="0" result="BackgroundImageFix"/><feColorMatrix in="SourceAlpha" values="0 0 0 0 0 0 0 0 0 0 0 0 0 0 0 0 0 0 127 0"/><feOffset dx="-5.474" dy="7.038"/><feGaussianBlur stdDeviation="4.013"/><feColorMatrix values="0 0 0 0 0 0 0 0 0 0 0 0 0 0 0 0 0 0 0.25 0"/><feBlend in2="BackgroundImageFix" result="effect1_dropShadow"/><feBlend in="SourceGraphic" in2="effect1_dropShadow" result="shape"/><feColorMatrix in="SourceAlpha" result="hardAlpha" values="0 0 0 0 0 0 0 0 0 0 0 0 0 0 0 0 0 0 127 0"/><feOffset dx=".782" dy=".86"/><feGaussianBlur stdDeviation=".469"/><feComposite in2="hardAlpha" k2="-1" k3="1" operator="arithmetic"/><feColorMatrix values="0 0 0 0 1 0 0 0 0 1 0 0 0 0 1 0 0 0 1 0"/><feBlend in2="shape" result="effect2_innerShadow"/><feColorMatrix in="SourceAlpha" result="hardAlpha" values="0 0 0 0 0 0 0 0 0 0 0 0 0 0 0 0 0 0 127 0"/><feOffset dx="-.782" dy="-.469"/><feGaussianBlur stdDeviation=".078"/><feComposite in2="hardAlpha" k2="-1" k3="1" operator="arithmetic"/><feColorMatrix values="0 0 0 0 0.833333 0 0 0 0 0.833333 0 0 0 0 0.833333 0 0 0 1 0"/><feBlend in2="effect2_innerShadow" result="effect3_innerShadow"/></filter><filter id="filter13_dii" width="42.346" height="42.349" x=".491" y="75.485" color-interpolation-filters="sRGB" filterUnits="userSpaceOnUse"><feFlood flood-opacity="0" result="BackgroundImageFix"/><feColorMatrix in="SourceAlpha" values="0 0 0 0 0 0 0 0 0 0 0 0 0 0 0 0 0 0 127 0"/><feOffset dy="6.492"/><feGaussianBlur stdDeviation="2.886"/><feColorMatrix values="0 0 0 0 0 0 0 0 0 0 0 0 0 0 0 0 0 0 0.25 0"/><feBlend in2="BackgroundImageFix" result="effect1_dropShadow"/><feBlend in="SourceGraphic" in2="effect1_dropShadow" result="shape"/><feColorMatrix in="SourceAlpha" result="hardAlpha" values="0 0 0 0 0 0 0 0 0 0 0 0 0 0 0 0 0 0 127 0"/><feOffset dx=".721" dy=".794"/><feGaussianBlur stdDeviation=".433"/><feComposite in2="hardAlpha" k2="-1" k3="1" operator="arithmetic"/><feColorMatrix values="0 0 0 0 1 0 0 0 0 1 0 0 0 0 1 0 0 0 1 0"/><feBlend in2="shape" result="effect2_innerShadow"/><feColorMatrix in="SourceAlpha" result="hardAlpha" values="0 0 0 0 0 0 0 0 0 0 0 0 0 0 0 0 0 0 127 0"/><feOffset dx="-.721" dy="-.433"/><feGaussianBlur stdDeviation=".072"/><feComposite in2="hardAlpha" k2="-1" k3="1" operator="arithmetic"/><feColorMatrix values="0 0 0 0 0.833333 0 0 0 0 0.833333 0 0 0 0 0.833333 0 0 0 1 0"/><feBlend in2="effect2_innerShadow" result="effect3_innerShadow"/></filter><filter id="filter14_dii" width="7.855" height="38.393" x="139.934" y="33.203" color-interpolation-filters="sRGB" filterUnits="userSpaceOnUse"><feFlood flood-opacity="0" result="BackgroundImageFix"/><feColorMatrix in="SourceAlpha" values="0 0 0 0 0 0 0 0 0 0 0 0 0 0 0 0 0 0 127 0"/><feOffset dy=".782"/><feGaussianBlur stdDeviation=".391"/><feColorMatrix values="0 0 0 0 0 0 0 0 0 0 0 0 0 0 0 0 0 0 0.25 0"/><feBlend in2="BackgroundImageFix" result="effect1_dropShadow"/><feBlend in="SourceGraphic" in2="effect1_dropShadow" result="shape"/><feColorMatrix in="SourceAlpha" result="hardAlpha" values="0 0 0 0 0 0 0 0 0 0 0 0 0 0 0 0 0 0 127 0"/><feOffset dy=".704"/><feGaussianBlur stdDeviation=".274"/><feComposite in2="hardAlpha" k2="-1" k3="1" operator="arithmetic"/><feColorMatrix values="0 0 0 0 0.532292 0 0 0 0 0.9125 0 0 0 0 0.835553 0 0 0 1 0"/><feBlend in2="shape" result="effect2_innerShadow"/><feColorMatrix in="SourceAlpha" result="hardAlpha" values="0 0 0 0 0 0 0 0 0 0 0 0 0 0 0 0 0 0 127 0"/><feOffset dx="-.078" dy="-.704"/><feGaussianBlur stdDeviation=".235"/><feComposite in2="hardAlpha" k2="-1" k3="1" operator="arithmetic"/><feColorMatrix values="0 0 0 0 0.0168056 0 0 0 0 0.504167 0 0 0 0 0.405534 0 0 0 1 0"/><feBlend in2="effect2_innerShadow" result="effect3_innerShadow"/></filter><filter id="filter15_dii" width="7.855" height="29.406" x="128.637" y="42.19" color-interpolation-filters="sRGB" filterUnits="userSpaceOnUse"><feFlood flood-opacity="0" result="BackgroundImageFix"/><feColorMatrix in="SourceAlpha" values="0 0 0 0 0 0 0 0 0 0 0 0 0 0 0 0 0 0 127 0"/><feOffset dy=".782"/><feGaussianBlur stdDeviation=".391"/><feColorMatrix values="0 0 0 0 0 0 0 0 0 0 0 0 0 0 0 0 0 0 0.25 0"/><feBlend in2="BackgroundImageFix" result="effect1_dropShadow"/><feBlend in="SourceGraphic" in2="effect1_dropShadow" result="shape"/><feColorMatrix in="SourceAlpha" result="hardAlpha" values="0 0 0 0 0 0 0 0 0 0 0 0 0 0 0 0 0 0 127 0"/><feOffset dy=".704"/><feGaussianBlur stdDeviation=".274"/><feComposite in2="hardAlpha" k2="-1" k3="1" operator="arithmetic"/><feColorMatrix values="0 0 0 0 0.532292 0 0 0 0 0.9125 0 0 0 0 0.835553 0 0 0 1 0"/><feBlend in2="shape" result="effect2_innerShadow"/><feColorMatrix in="SourceAlpha" result="hardAlpha" values="0 0 0 0 0 0 0 0 0 0 0 0 0 0 0 0 0 0 127 0"/><feOffset dx="-.078" dy="-.704"/><feGaussianBlur stdDeviation=".235"/><feComposite in2="hardAlpha" k2="-1" k3="1" operator="arithmetic"/><feColorMatrix values="0 0 0 0 0.0168056 0 0 0 0 0.504167 0 0 0 0 0.405534 0 0 0 1 0"/><feBlend in2="effect2_innerShadow" result="effect3_innerShadow"/></filter><filter id="filter16_dii" width="7.855" height="21.582" x="117.34" y="50.014" color-interpolation-filters="sRGB" filterUnits="userSpaceOnUse"><feFlood flood-opacity="0" result="BackgroundImageFix"/><feColorMatrix in="SourceAlpha" values="0 0 0 0 0 0 0 0 0 0 0 0 0 0 0 0 0 0 127 0"/><feOffset dy=".782"/><feGaussianBlur stdDeviation=".391"/><feColorMatrix values="0 0 0 0 0 0 0 0 0 0 0 0 0 0 0 0 0 0 0.25 0"/><feBlend in2="BackgroundImageFix" result="effect1_dropShadow"/><feBlend in="SourceGraphic" in2="effect1_dropShadow" result="shape"/><feColorMatrix in="SourceAlpha" result="hardAlpha" values="0 0 0 0 0 0 0 0 0 0 0 0 0 0 0 0 0 0 127 0"/><feOffset dy=".704"/><feGaussianBlur stdDeviation=".274"/><feComposite in2="hardAlpha" k2="-1" k3="1" operator="arithmetic"/><feColorMatrix values="0 0 0 0 0.532292 0 0 0 0 0.9125 0 0 0 0 0.835553 0 0 0 1 0"/><feBlend in2="shape" result="effect2_innerShadow"/><feColorMatrix in="SourceAlpha" result="hardAlpha" values="0 0 0 0 0 0 0 0 0 0 0 0 0 0 0 0 0 0 127 0"/><feOffset dx="-.078" dy="-.704"/><feGaussianBlur stdDeviation=".235"/><feComposite in2="hardAlpha" k2="-1" k3="1" operator="arithmetic"/><feColorMatrix values="0 0 0 0 0.0168056 0 0 0 0 0.504167 0 0 0 0 0.405534 0 0 0 1 0"/><feBlend in2="effect2_innerShadow" result="effect3_innerShadow"/></filter><filter id="filter17_dii" width="28.55" height="28.983" x="42.596" y="71.536" color-interpolation-filters="sRGB" filterUnits="userSpaceOnUse"><feFlood flood-opacity="0" result="BackgroundImageFix"/><feColorMatrix in="SourceAlpha" values="0 0 0 0 0 0 0 0 0 0 0 0 0 0 0 0 0 0 127 0"/><feOffset dy=".721"/><feGaussianBlur stdDeviation=".361"/><feColorMatrix values="0 0 0 0 0 0 0 0 0 0 0 0 0 0 0 0 0 0 0.25 0"/><feBlend in2="BackgroundImageFix" result="effect1_dropShadow"/><feBlend in="SourceGraphic" in2="effect1_dropShadow" result="shape"/><feColorMatrix in="SourceAlpha" result="hardAlpha" values="0 0 0 0 0 0 0 0 0 0 0 0 0 0 0 0 0 0 127 0"/><feOffset dy=".649"/><feGaussianBlur stdDeviation=".252"/><feComposite in2="hardAlpha" k2="-1" k3="1" operator="arithmetic"/><feColorMatrix values="0 0 0 0 0.675 0 0 0 0 0.930453 0 0 0 0 1 0 0 0 1 0"/><feBlend in2="shape" result="effect2_innerShadow"/><feColorMatrix in="SourceAlpha" result="hardAlpha" values="0 0 0 0 0 0 0 0 0 0 0 0 0 0 0 0 0 0 127 0"/><feOffset dx="-.072" dy="-.649"/><feGaussianBlur stdDeviation=".216"/><feComposite in2="hardAlpha" k2="-1" k3="1" operator="arithmetic"/><feColorMatrix values="0 0 0 0 0.0904688 0 0 0 0 0.547235 0 0 0 0 0.804167 0 0 0 1 0"/><feBlend in2="effect2_innerShadow" result="effect3_innerShadow"/></filter><filter id="filter18_ii" width="15.89" height="7.213" x="50.492" y="71.536" color-interpolation-filters="sRGB" filterUnits="userSpaceOnUse"><feFlood flood-opacity="0" result="BackgroundImageFix"/><feBlend in="SourceGraphic" in2="BackgroundImageFix" result="shape"/><feColorMatrix in="SourceAlpha" result="hardAlpha" values="0 0 0 0 0 0 0 0 0 0 0 0 0 0 0 0 0 0 127 0"/><feOffset dy=".649"/><feGaussianBlur stdDeviation=".18"/><feComposite in2="hardAlpha" k2="-1" k3="1" operator="arithmetic"/><feColorMatrix values="0 0 0 0 0.992157 0 0 0 0 0.858824 0 0 0 0 0.709804 0 0 0 1 0"/><feBlend in2="shape" result="effect1_innerShadow"/><feColorMatrix in="SourceAlpha" result="hardAlpha" values="0 0 0 0 0 0 0 0 0 0 0 0 0 0 0 0 0 0 127 0"/><feOffset dx="-.072" dy="-.649"/><feGaussianBlur stdDeviation=".216"/><feComposite in2="hardAlpha" k2="-1" k3="1" operator="arithmetic"/><feColorMatrix values="0 0 0 0 0.770833 0 0 0 0 0.292521 0 0 0 0 0 0 0 0 1 0"/><feBlend in2="effect1_innerShadow" result="effect2_innerShadow"/></filter><filter id="filter19_d" width="17.189" height="2.32" x="13.089" y="98.911" color-interpolation-filters="sRGB" filterUnits="userSpaceOnUse"><feFlood flood-opacity="0" result="BackgroundImageFix"/><feColorMatrix in="SourceAlpha" values="0 0 0 0 0 0 0 0 0 0 0 0 0 0 0 0 0 0 127 0"/><feOffset dy=".072"/><feGaussianBlur stdDeviation=".144"/><feColorMatrix values="0 0 0 0 0 0 0 0 0 0 0 0 0 0 0 0 0 0 0.48 0"/><feBlend in2="BackgroundImageFix" result="effect1_dropShadow"/><feBlend in="SourceGraphic" in2="effect1_dropShadow" result="shape"/></filter><filter id="filter20_ii" width="16.95" height="2.466" x="13.153" y="98.62" color-interpolation-filters="sRGB" filterUnits="userSpaceOnUse"><feFlood flood-opacity="0" result="BackgroundImageFix"/><feBlend in="SourceGraphic" in2="BackgroundImageFix" result="shape"/><feColorMatrix in="SourceAlpha" result="hardAlpha" values="0 0 0 0 0 0 0 0 0 0 0 0 0 0 0 0 0 0 127 0"/><feOffset dy=".361"/><feGaussianBlur stdDeviation=".108"/><feComposite in2="hardAlpha" k2="-1" k3="1" operator="arithmetic"/><feColorMatrix values="0 0 0 0 0.95 0 0 0 0 0.95 0 0 0 0 0.95 0 0 0 1 0"/><feBlend in2="shape" result="effect1_innerShadow"/><feColorMatrix in="SourceAlpha" result="hardAlpha" values="0 0 0 0 0 0 0 0 0 0 0 0 0 0 0 0 0 0 127 0"/><feOffset dx="-.072" dy="-.289"/><feGaussianBlur stdDeviation=".072"/><feComposite in2="hardAlpha" k2="-1" k3="1" operator="arithmetic"/><feColorMatrix values="0 0 0 0 0.741176 0 0 0 0 0.741176 0 0 0 0 0.741176 0 0 0 1 0"/><feBlend in2="effect1_innerShadow" result="effect2_innerShadow"/></filter><filter id="filter21_dii" width="30.635" height="13.407" x="6.346" y="83.448" color-interpolation-filters="sRGB" filterUnits="userSpaceOnUse"><feFlood flood-opacity="0" result="BackgroundImageFix"/><feColorMatrix in="SourceAlpha" values="0 0 0 0 0 0 0 0 0 0 0 0 0 0 0 0 0 0 127 0"/><feOffset dy="1.443"/><feGaussianBlur stdDeviation="1.443"/><feColorMatrix values="0 0 0 0 0 0 0 0 0 0 0 0 0 0 0 0 0 0 0.18 0"/><feBlend in2="BackgroundImageFix" result="effect1_dropShadow"/><feBlend in="SourceGraphic" in2="effect1_dropShadow" result="shape"/><feColorMatrix in="SourceAlpha" result="hardAlpha" values="0 0 0 0 0 0 0 0 0 0 0 0 0 0 0 0 0 0 127 0"/><feOffset dy=".649"/><feGaussianBlur stdDeviation=".252"/><feComposite in2="hardAlpha" k2="-1" k3="1" operator="arithmetic"/><feColorMatrix values="0 0 0 0 1 0 0 0 0 0.899147 0 0 0 0 0.591667 0 0 0 1 0"/><feBlend in2="shape" result="effect2_innerShadow"/><feColorMatrix in="SourceAlpha" result="hardAlpha" values="0 0 0 0 0 0 0 0 0 0 0 0 0 0 0 0 0 0 127 0"/><feOffset dx="-.072" dy="-.649"/><feGaussianBlur stdDeviation=".216"/><feComposite in2="hardAlpha" k2="-1" k3="1" operator="arithmetic"/><feColorMatrix values="0 0 0 0 0.941667 0 0 0 0 0.545853 0 0 0 0 0.180486 0 0 0 1 0"/><feBlend in2="effect2_innerShadow" result="effect3_innerShadow"/></filter><filter id="filter22_d" width="17.189" height="2.32" x="47.94" y="101.364" color-interpolation-filters="sRGB" filterUnits="userSpaceOnUse"><feFlood flood-opacity="0" result="BackgroundImageFix"/><feColorMatrix in="SourceAlpha" values="0 0 0 0 0 0 0 0 0 0 0 0 0 0 0 0 0 0 127 0"/><feOffset dy=".072"/><feGaussianBlur stdDeviation=".144"/><feColorMatrix values="0 0 0 0 0 0 0 0 0 0 0 0 0 0 0 0 0 0 0.48 0"/><feBlend in2="BackgroundImageFix" result="effect1_dropShadow"/><feBlend in="SourceGraphic" in2="effect1_dropShadow" result="shape"/></filter><filter id="filter23_ii" width="16.95" height="2.466" x="48.004" y="101.073" color-interpolation-filters="sRGB" filterUnits="userSpaceOnUse"><feFlood flood-opacity="0" result="BackgroundImageFix"/><feBlend in="SourceGraphic" in2="BackgroundImageFix" result="shape"/><feColorMatrix in="SourceAlpha" result="hardAlpha" values="0 0 0 0 0 0 0 0 0 0 0 0 0 0 0 0 0 0 127 0"/><feOffset dy=".361"/><feGaussianBlur stdDeviation=".108"/><feComposite in2="hardAlpha" k2="-1" k3="1" operator="arithmetic"/><feColorMatrix values="0 0 0 0 0.95 0 0 0 0 0.95 0 0 0 0 0.95 0 0 0 1 0"/><feBlend in2="shape" result="effect1_innerShadow"/><feColorMatrix in="SourceAlpha" result="hardAlpha" values="0 0 0 0 0 0 0 0 0 0 0 0 0 0 0 0 0 0 127 0"/><feOffset dx="-.072" dy="-.289"/><feGaussianBlur stdDeviation=".072"/><feComposite in2="hardAlpha" k2="-1" k3="1" operator="arithmetic"/><feColorMatrix values="0 0 0 0 0.741176 0 0 0 0 0.741176 0 0 0 0 0.741176 0 0 0 1 0"/><feBlend in2="effect1_innerShadow" result="effect2_innerShadow"/></filter><filter id="filter24_i" width="21.313" height="31.145" x="150.583" y="88.278" color-interpolation-filters="sRGB" filterUnits="userSpaceOnUse"><feFlood flood-opacity="0" result="BackgroundImageFix"/><feBlend in="SourceGraphic" in2="BackgroundImageFix" result="shape"/><feColorMatrix in="SourceAlpha" result="hardAlpha" values="0 0 0 0 0 0 0 0 0 0 0 0 0 0 0 0 0 0 127 0"/><feOffset dx="1.127" dy="-.431"/><feGaussianBlur stdDeviation="1.469"/><feComposite in2="hardAlpha" k2="-1" k3="1" operator="arithmetic"/><feColorMatrix values="0 0 0 0 0.113056 0 0 0 0 0.616667 0 0 0 0 0.58645 0 0 0 1 0"/><feBlend in2="shape" result="effect1_innerShadow"/></filter><filter id="filter25_i" width="25.076" height="24.846" x="135.733" y="95.042" color-interpolation-filters="sRGB" filterUnits="userSpaceOnUse"><feFlood flood-opacity="0" result="BackgroundImageFix"/><feBlend in="SourceGraphic" in2="BackgroundImageFix" result="shape"/><feColorMatrix in="SourceAlpha" result="hardAlpha" values="0 0 0 0 0 0 0 0 0 0 0 0 0 0 0 0 0 0 127 0"/><feOffset dx="1.127" dy="-.431"/><feGaussianBlur stdDeviation="1.469"/><feComposite in2="hardAlpha" k2="-1" k3="1" operator="arithmetic"/><feColorMatrix values="0 0 0 0 0.0996528 0 0 0 0 0.683333 0 0 0 0 0.555806 0 0 0 1 0"/><feBlend in2="shape" result="effect1_innerShadow"/></filter><filter id="filter26_i" width="23.1" height="5.924" x="141.899" y="113.715" color-interpolation-filters="sRGB" filterUnits="userSpaceOnUse"><feFlood flood-opacity="0" result="BackgroundImageFix"/><feBlend in="SourceGraphic" in2="BackgroundImageFix" result="shape"/><feColorMatrix in="SourceAlpha" result="hardAlpha" values="0 0 0 0 0 0 0 0 0 0 0 0 0 0 0 0 0 0 127 0"/><feOffset dx=".47" dy="-.353"/><feGaussianBlur stdDeviation=".411"/><feComposite in2="hardAlpha" k2="-1" k3="1" operator="arithmetic"/><feColorMatrix values="0 0 0 0 0.833333 0 0 0 0 0.604343 0 0 0 0 0.0555555 0 0 0 1 0"/><feBlend in2="shape" result="effect1_innerShadow"/></filter><linearGradient id="paint0_linear" x1="85.393" x2="85.393" y1="0" y2="159.654" gradientUnits="userSpaceOnUse"><stop stop-color="#B5EFFF"/><stop offset="1" stop-color="#E7F8FE"/></linearGradient><linearGradient id="paint1_linear" x1="84.383" x2="84.383" y1="0" y2="158.721" gradientUnits="userSpaceOnUse"><stop stop-color="#B5EFFF"/><stop offset="1" stop-color="#EDFBFF"/></linearGradient><linearGradient id="paint6_linear" x1="78.496" x2="78.496" y1="119.582" y2="135.06" gradientUnits="userSpaceOnUse"><stop stop-color="#8B8B8B"/><stop offset="1" stop-color="#fff" stop-opacity="0"/></linearGradient><linearGradient id="paint7_linear" x1="36.51" x2="36.657" y1="50.222" y2="57.42" gradientUnits="userSpaceOnUse"><stop stop-color="#F1F1F1"/><stop offset="1" stop-color="#F8F8F8"/></linearGradient><linearGradient id="paint8_linear" x1="37.769" x2="46.4" y1="63.374" y2="116.97" gradientUnits="userSpaceOnUse"><stop stop-color="#E8E8E8"/><stop offset="1" stop-color="#F8F8F8"/></linearGradient><linearGradient id="paint9_linear" x1="37.021" x2="48.95" y1="68.671" y2="110.055" gradientUnits="userSpaceOnUse"><stop stop-color="#E8E8E8"/><stop offset="1" stop-color="#F8F8F8"/></linearGradient><linearGradient id="paint10_linear" x1="85.235" x2="97.164" y1="68.671" y2="110.055" gradientUnits="userSpaceOnUse"><stop stop-color="#E8E8E8"/><stop offset="1" stop-color="#F8F8F8"/></linearGradient><linearGradient id="paint11_linear" x1="111.568" x2="128.544" y1="27.791" y2="78.564" gradientUnits="userSpaceOnUse"><stop stop-color="#EBEFF3"/><stop offset="1" stop-color="#FEFEFF"/></linearGradient><linearGradient id="paint12_linear" x1="8.827" x2="19.122" y1="75.63" y2="106.421" gradientUnits="userSpaceOnUse"><stop stop-color="#EBEFF3"/><stop offset="1" stop-color="#fff"/></linearGradient><linearGradient id="paint13_linear" x1="172.953" x2="151.639" y1="91.319" y2="110.46" gradientUnits="userSpaceOnUse"><stop stop-color="#BAFFF1" stop-opacity=".26"/><stop offset=".682" stop-color="#4DC7AE"/><stop offset=".969" stop-color="#06896F"/></linearGradient><linearGradient id="paint14_linear" x1="163.471" x2="150.508" y1="98.746" y2="120.576" gradientUnits="userSpaceOnUse"><stop stop-color="#B7FDEF"/><stop offset=".682" stop-color="#09B794"/><stop offset=".969" stop-color="#7EE0CC"/></linearGradient><linearGradient id="paint15_linear" x1="163.767" x2="144.167" y1="129.284" y2="129.284" gradientUnits="userSpaceOnUse"><stop offset=".099" stop-color="#FFEEC5"/><stop offset=".607" stop-color="#FACD63"/><stop offset=".839" stop-color="#EAAF23"/><stop offset=".984" stop-color="#EDB52F"/></linearGradient><linearGradient id="paint16_linear" x1="164.529" x2="143.514" y1="117.735" y2="117.735" gradientUnits="userSpaceOnUse"><stop offset=".099" stop-color="#FFEEC5"/><stop offset=".607" stop-color="#FCBD27"/><stop offset=".984" stop-color="#EFB222"/></linearGradient><radialGradient id="paint2_radial" cx="0" cy="0" r="1" gradientTransform="rotate(-15.177 76.812 -105.403) scale(19.4355)" gradientUnits="userSpaceOnUse"><stop stop-color="#FFF1CF"/><stop offset=".188" stop-color="#FFE4A2"/><stop offset=".318" stop-color="#FFD364"/><stop offset=".49" stop-color="#FFD364"/><stop offset=".651" stop-color="#FFC73A"/><stop offset=".948" stop-color="#D09500"/></radialGradient><radialGradient id="paint3_radial" cx="0" cy="0" r="1" gradientTransform="matrix(-2.2486 3.61408 -3.29135 -2.0478 31.491 16.388)" gradientUnits="userSpaceOnUse"><stop stop-color="#fff"/><stop offset=".694" stop-color="#fff" stop-opacity="0"/></radialGradient><radialGradient id="paint4_radial" cx="0" cy="0" r="1" gradientTransform="rotate(-15.177 364.65 -579.741) scale(14.8345)" gradientUnits="userSpaceOnUse"><stop stop-color="#E6C6FF"/><stop offset=".188" stop-color="#C07DF5"/><stop offset=".318" stop-color="#BE6FFC"/><stop offset=".49" stop-color="#B56AF0"/><stop offset=".651" stop-color="#A745F4"/><stop offset=".948" stop-color="#9F3DED"/></radialGradient><radialGradient id="paint5_radial" cx="0" cy="0" r="1" gradientTransform="rotate(121.889 61.82 83.56) scale(3.24885 2.95873)" gradientUnits="userSpaceOnUse"><stop stop-color="#fff"/><stop offset=".694" stop-color="#fff" stop-opacity="0"/></radialGradient></defs></svg>