<svg width="50" height="42" viewBox="0 0 50 42" fill="none" xmlns="http://www.w3.org/2000/svg">
<g clip-path="url(#clip0_40611_124990)">
<mask id="mask0_40611_124990" style="mask-type:alpha" maskUnits="userSpaceOnUse" x="7" y="0" width="38" height="42">
<path d="M7.80811 0.0605469H44.9888V41.5293H7.80811V0.0605469Z" fill="white"/>
</mask>
<g mask="url(#mask0_40611_124990)">
<path fill-rule="evenodd" clip-rule="evenodd" d="M44.5071 10.9624C42.7114 4.06529 35.9541 -0.607828 28.8681 0.138758C22.5554 0.789873 17.3849 5.44145 16.0721 11.6503C15.5786 13.9693 14.3411 16.0635 12.5479 17.6146C8.68854 20.9361 6.8003 26.3267 8.35034 31.7186C10.1049 37.8292 16.0709 41.976 22.4096 41.4908C28.1107 41.0546 32.5738 37.2751 34.2739 32.3605C35.075 30.0458 36.6764 28.0789 38.6905 26.6837C43.5421 23.3222 46.1237 17.1717 44.5071 10.9624Z" fill="#DFF4F0"/>
</g>
<path fill-rule="evenodd" clip-rule="evenodd" d="M6.98096 13.8121C6.98096 16.3229 9.01683 19.0757 11.5282 19.0757C14.0396 19.0757 16.0755 16.3247 16.0755 13.8121C16.075 11.3006 14.0387 9.2652 11.5273 9.26563C9.01664 9.26617 6.98144 11.3014 6.98096 13.8121Z" fill="white"/>
<path fill-rule="evenodd" clip-rule="evenodd" d="M1.0852 31.3906H0.65625C0.65625 25.1196 5.75832 20.0164 12.0305 20.0164V20.4453C5.99488 20.4465 1.0852 25.3562 1.0852 31.3906Z" fill="#525666"/>
<path fill-rule="evenodd" clip-rule="evenodd" d="M8.92926 31.4167H0.871094C0.871578 25.2539 5.86796 20.2582 12.0309 20.2588C14.4714 20.259 16.8445 21.0592 18.7867 22.537" fill="#DFF4F0"/>
<path fill-rule="evenodd" clip-rule="evenodd" d="M8.9292 31.5596H0.65625V31.3447C0.65625 25.0744 5.75832 19.9705 12.0305 19.9705C14.5196 19.9634 16.941 20.7805 18.9167 22.2943L18.6566 22.6356C16.7549 21.1794 14.4245 20.3937 12.0293 20.4013C6.06628 20.4013 1.19955 25.1948 1.08762 31.1306H8.9292V31.5596Z" fill="#525666" stroke="#525666" stroke-width="0.5"/>
<path fill-rule="evenodd" clip-rule="evenodd" d="M11.5285 9.47729C9.13687 9.47996 7.19871 11.4181 7.19604 13.8098C7.19604 16.1439 9.08853 18.8574 11.5285 18.8574C13.5323 18.8574 15.861 16.6521 15.861 13.8098C15.857 11.4191 13.9193 9.48238 11.5285 9.47971V9.47729ZM11.5285 19.2864C10.2846 19.2864 9.08429 18.6584 8.14773 17.5185C7.26986 16.4507 6.76709 15.0985 6.76709 13.8098C6.76709 11.1801 8.89885 9.04834 11.5285 9.04834C14.1582 9.04834 16.29 11.1801 16.29 13.8098C16.29 15.0985 15.7872 16.4507 14.9094 17.5185C13.9734 18.6608 12.7724 19.2864 11.5285 19.2864Z" fill="#525666" stroke="#525666" stroke-width="0.5"/>
<path fill-rule="evenodd" clip-rule="evenodd" d="M49.1112 31.3906H48.6822C48.6822 25.3562 43.7732 20.4465 37.7388 20.4465V20.0176C44.0127 20.0176 49.1112 25.1197 49.1112 31.3906Z" fill="#525666"/>
<path fill-rule="evenodd" clip-rule="evenodd" d="M40.839 31.4166H48.8972C48.8972 25.2539 43.901 20.2583 37.7389 20.2583C35.2971 20.2544 32.922 21.0552 30.981 22.5368" fill="#DFF4F0"/>
<path fill-rule="evenodd" clip-rule="evenodd" d="M49.111 31.5595H40.8387V31.1305H48.6803C48.5653 25.1948 43.701 20.4012 37.7386 20.4012C35.3432 20.3936 33.0126 21.1792 31.1107 22.6356L30.8506 22.2943C32.8271 20.7808 35.2492 19.9643 37.7386 19.9722C44.0096 19.9722 49.1128 25.0744 49.1128 31.3465L49.111 31.5595Z" fill="#525666" stroke="#525666" stroke-width="0.5"/>
<path fill-rule="evenodd" clip-rule="evenodd" d="M42.5189 37.8994C42.5189 28.2065 34.661 20.3491 24.9681 20.3491C15.2752 20.3491 7.41797 28.2065 7.41797 37.8994H42.5189Z" fill="white"/>
<path fill-rule="evenodd" clip-rule="evenodd" d="M20.7056 20.9573L24.2891 23.9685C24.6872 24.2886 25.2599 24.268 25.634 23.9201L28.9156 20.8666L27.7588 20.7147C25.9061 20.4722 24.0291 20.483 22.1794 20.7468L20.7056 20.9573Z" fill="#DFF4F0"/>
<path fill-rule="evenodd" clip-rule="evenodd" d="M42.7862 13.8121C42.7862 16.3229 40.7503 19.0757 38.2389 19.0757C35.7275 19.0757 33.6922 16.3248 33.6922 13.8121C33.6632 11.3009 35.6755 9.24169 38.1867 9.21271C40.698 9.18373 42.7572 11.1959 42.7862 13.7072C42.7866 13.7421 42.7866 13.7772 42.7862 13.8121H42.7862Z" fill="white"/>
<path fill-rule="evenodd" clip-rule="evenodd" d="M32.1204 10.3218C32.1204 14.2719 28.918 18.1869 24.9678 18.1869C21.0178 18.1869 17.8154 14.2719 17.8154 10.3218C17.8517 6.37168 21.0833 3.19906 25.0334 3.23542C28.9321 3.27129 32.0838 6.42305 32.1197 10.3218H32.1204Z" fill="#61C1A8"/>
<path fill-rule="evenodd" clip-rule="evenodd" d="M24.9682 3.3126C21.1387 3.31726 18.0355 6.42073 18.0311 10.2503C18.0311 12.1258 18.7753 14.0467 20.0724 15.5236C21.4204 17.0579 23.158 17.9031 24.9682 17.9031C26.7784 17.9031 28.5166 17.0561 29.8646 15.5236C31.1617 14.0467 31.9059 12.1246 31.9059 10.2503C31.9009 6.42097 28.7975 3.31817 24.9682 3.31381V3.3126ZM24.9682 18.332C23.0322 18.332 21.1808 17.4348 19.75 15.8067C18.3851 14.253 17.6016 12.2275 17.6016 10.2503C17.6002 6.18181 20.8972 2.8825 24.9657 2.8811C29.0341 2.87965 32.3334 6.17667 32.3349 10.2451V10.2503C32.3349 12.2275 31.552 14.253 30.1871 15.8067C28.7562 17.4348 26.903 18.332 24.9682 18.332Z" fill="#525666" stroke="#525666" stroke-width="0.5"/>
<path fill-rule="evenodd" clip-rule="evenodd" d="M38.2393 9.47707C35.8476 9.48106 33.9106 11.4203 33.9092 13.812C33.9092 16.1461 35.7993 18.8626 38.2393 18.8626C40.2431 18.8626 42.5717 16.6574 42.5717 13.815C42.5708 11.4221 40.6321 9.48215 38.2393 9.47948V9.47707ZM38.2393 19.2861C36.9953 19.2861 35.795 18.6581 34.8585 17.5183C33.9812 16.4504 33.4778 15.0982 33.4778 13.8096C33.4483 11.1797 35.5561 9.02379 38.186 8.9942C40.8159 8.96462 42.9718 11.0725 43.0014 13.7024C43.0018 13.7381 43.0018 13.7739 43.0014 13.8096C43.0014 15.0982 42.498 16.4504 41.6207 17.5183C40.6854 18.6606 39.4832 19.2861 38.2393 19.2861Z" fill="#525666" stroke="#525666" stroke-width="0.5"/>
<path fill-rule="evenodd" clip-rule="evenodd" d="M7.6339 37.6128H42.3011C42.1411 28.0397 34.2509 20.4089 24.6778 20.5689C15.3302 20.7251 7.79017 28.2652 7.6339 37.6128ZM42.7331 38.0418H7.20313V37.8276C7.20028 28.0163 15.1516 20.0602 24.963 20.0574C34.7743 20.0545 42.7303 28.0059 42.7331 37.8172V37.8276V38.0418Z" fill="#525666" stroke="#525666" stroke-width="0.5"/>
<path fill-rule="evenodd" clip-rule="evenodd" d="M24.1275 23.7656L22.0645 31.4166L25.0399 36.0026L28.0559 31.3452L25.867 23.7656" fill="#DFF4F0"/>
<path fill-rule="evenodd" clip-rule="evenodd" d="M24.9343 24.3363C24.6516 24.3375 24.3772 24.2421 24.1562 24.0658L20.5679 21.0523L20.8438 20.7237L24.4285 23.7343C24.7441 23.9836 25.1942 23.9661 25.4897 23.6931L28.7706 20.6396L29.0629 20.9537L25.7819 24.0053C25.5513 24.2188 25.2484 24.3371 24.9343 24.3363Z" fill="#525666" stroke="#525666" stroke-width="0.5"/>
<path fill-rule="evenodd" clip-rule="evenodd" d="M25.0403 36.3971L21.8325 31.4529L23.921 23.71L24.3349 23.8219L22.2966 31.3797L25.0397 35.6082L27.8234 31.3102L25.661 23.8255L26.0737 23.7063L28.2898 31.3791L25.0403 36.3971Z" fill="#525666" stroke="#525666" stroke-width="0.5"/>
<path fill-rule="evenodd" clip-rule="evenodd" d="M13.3947 6.77158C13.8794 6.86626 14.3394 7.05938 14.7463 7.33908C14.8419 6.85476 15.0361 6.39538 15.3169 5.98929C14.8325 5.89479 14.3726 5.70185 13.9659 5.4224C13.8702 5.90659 13.6758 6.36585 13.3947 6.77158ZM14.871 7.81764C14.8317 7.81776 14.7935 7.80403 14.7633 7.77892C14.2782 7.38482 13.6903 7.13791 13.0693 7.06743C13.0068 7.06083 12.953 7.02036 12.9295 6.96215C12.9061 6.90401 12.916 6.83782 12.9555 6.78912C13.352 6.30475 13.6012 5.71686 13.6737 5.09508C13.6847 5.00119 13.7698 4.93397 13.8637 4.94504C13.8958 4.94885 13.9262 4.96162 13.9514 4.98195C14.4362 5.37654 15.0242 5.6235 15.6454 5.69344C15.7394 5.70397 15.807 5.78873 15.7964 5.88269C15.7927 5.91566 15.7795 5.94676 15.7585 5.97235C15.3622 6.45673 15.1134 7.04474 15.0416 7.66639C15.0345 7.72834 14.9941 7.78146 14.9363 7.80494C14.9156 7.81335 14.8934 7.8177 14.871 7.81764Z" fill="#22D6B4"/>
<path fill-rule="evenodd" clip-rule="evenodd" d="M45.7111 18.0351C46.1957 18.1294 46.6557 18.3224 47.0627 18.602C47.1584 18.1178 47.3528 17.6585 47.6337 17.2528C47.1491 17.158 46.6891 16.9646 46.2821 16.6847C46.1864 17.1693 45.9921 17.629 45.7111 18.0351ZM47.1872 19.0806C47.148 19.0808 47.11 19.0673 47.0795 19.0425C46.5946 18.6481 46.0067 18.4012 45.3855 18.331C45.2915 18.3204 45.2239 18.2357 45.2345 18.1417C45.2382 18.1088 45.2513 18.0776 45.2724 18.052C45.6689 17.5677 45.918 16.9798 45.9899 16.358C46.001 16.2641 46.086 16.197 46.18 16.208C46.2121 16.2118 46.2425 16.2245 46.2676 16.2449C46.7526 16.6395 47.3405 16.8866 47.9617 16.957C48.024 16.9638 48.0773 17.0042 48.1009 17.0622C48.1243 17.1204 48.1143 17.1866 48.0748 17.2353C47.6786 17.7197 47.4295 18.3076 47.3573 18.9293C47.3471 19.0156 47.2741 19.0806 47.1872 19.0806Z" fill="#22D6B4"/>
<path fill-rule="evenodd" clip-rule="evenodd" d="M5.185 33.4495C4.6377 33.4495 4.19399 33.8933 4.19399 34.4406C4.19399 34.9879 4.6377 35.4316 5.185 35.4316C5.73229 35.4316 6.17601 34.9879 6.17601 34.4406C6.17534 33.8936 5.73205 33.4503 5.185 33.4495ZM5.185 35.7891C4.44017 35.7891 3.83643 35.1853 3.83643 34.4406C3.83643 33.6958 4.44017 33.092 5.185 33.092C5.92983 33.092 6.53357 33.6958 6.53357 34.4406C6.53291 35.1851 5.92953 35.7885 5.185 35.7891Z" fill="#22D6B4"/>
<path fill-rule="evenodd" clip-rule="evenodd" d="M36.809 3.89101C36.2617 3.89101 35.818 4.33467 35.818 4.88202C35.818 5.42932 36.2617 5.87303 36.809 5.87303C37.3564 5.87303 37.8 5.42932 37.8 4.88202C37.7994 4.33497 37.3561 3.89168 36.809 3.89101ZM36.809 6.2306C36.0642 6.2306 35.4604 5.62679 35.4604 4.88202C35.4604 4.13719 36.0642 3.53345 36.809 3.53345C37.5539 3.53345 38.1576 4.13719 38.1576 4.88202C38.1566 5.62643 37.5534 6.22957 36.809 6.2306Z" fill="#22D6B4"/>
<path fill-rule="evenodd" clip-rule="evenodd" d="M14.8016 12.8731C14.7327 12.873 14.6705 12.8317 14.6437 12.7684C13.8946 11.0036 12.6368 10.4409 11.7136 10.28C11.6204 10.2637 11.5581 10.175 11.5744 10.0818C11.5744 10.0818 11.5744 10.0816 11.5744 10.0815C11.5895 9.9892 11.6766 9.92658 11.7689 9.94171C11.7702 9.94189 11.7715 9.94213 11.7729 9.94237C12.7796 10.1178 14.15 10.7289 14.9589 12.6347C14.9956 12.7222 14.9545 12.8229 14.867 12.8596C14.8463 12.8683 14.8241 12.8729 14.8016 12.8731Z" fill="#22D6B4"/>
<path fill-rule="evenodd" clip-rule="evenodd" d="M41.4681 13.115C41.3993 13.115 41.3373 13.0737 41.3107 13.0103C40.5611 11.2455 39.3039 10.6828 38.3801 10.5219C38.2869 10.5056 38.2246 10.4169 38.2409 10.3238V10.3235C38.256 10.2311 38.3431 10.1685 38.4354 10.1836C38.4367 10.1838 38.438 10.1841 38.4393 10.1843C39.4467 10.3598 40.8164 10.9708 41.6254 12.8766C41.6621 12.9641 41.6209 13.0648 41.5335 13.1016C41.5128 13.1103 41.4905 13.1149 41.4681 13.115Z" fill="#22D6B4"/>
<path fill-rule="evenodd" clip-rule="evenodd" d="M29.7282 7.4469C29.6597 7.44684 29.5978 7.40588 29.5709 7.34284C28.8213 5.57741 27.564 5.01536 26.6408 4.85442C26.5477 4.83815 26.4853 4.74945 26.5016 4.65628C26.5016 4.65622 26.5016 4.6561 26.5017 4.65598C26.5156 4.5645 26.6011 4.50164 26.6926 4.51562C26.6949 4.51598 26.6972 4.51634 26.6995 4.51683C27.7069 4.69228 29.0766 5.30334 29.8855 7.20913C29.9225 7.29601 29.8821 7.39645 29.7953 7.43359C29.7741 7.44243 29.7513 7.4469 29.7282 7.4469Z" fill="white"/>
</g>
<defs>
<clipPath id="clip0_40611_124990">
<rect width="49.875" height="42" fill="white"/>
</clipPath>
</defs>
</svg>