<svg xmlns="http://www.w3.org/2000/svg" width="50" height="42" fill="none" viewBox="0 0 50 42"><path fill="#FFF" d="M0 0h50v42H0z"/><mask id="fs-2jto29lhea" style="mask-type:alpha" width="38" height="42" x="8" y="0" maskUnits="userSpaceOnUse"><path fill="#fff" d="M8.152 0h37.18v41.469H8.152V0z"/></mask><g mask="url(#fs-2jto29lhea)"><path fill="#DFF4F0" fill-rule="evenodd" d="M44.85 10.902C43.056 4.005 36.299-.668 29.213.078A14.611 14.611 0 0016.416 11.59a10.88 10.88 0 01-3.524 5.964c-3.86 3.322-5.748 8.712-4.198 14.104 1.754 6.11 7.72 10.257 14.06 9.772 5.7-.436 10.163-4.215 11.863-9.13.802-2.315 2.403-4.282 4.417-5.677 4.852-3.361 7.433-9.512 5.817-15.721z" clip-rule="evenodd"/></g><path fill="#fff" fill-rule="evenodd" d="M7.325 13.751c0 2.511 2.036 5.264 4.547 5.264 2.511 0 4.547-2.75 4.547-5.264a4.547 4.547 0 00-9.094 0z" clip-rule="evenodd"/><path fill="#525666" fill-rule="evenodd" d="M1.429 31.33H1c0-6.27 5.102-11.374 11.374-11.374v.429C6.34 20.386 1.43 25.295 1.43 31.33z" clip-rule="evenodd"/><path fill="#DFF4F0" fill-rule="evenodd" d="M9.273 31.356H1.215c0-6.163 4.997-11.158 11.16-11.158 2.44 0 4.813.8 6.755 2.278" clip-rule="evenodd"/><path fill="#525666" fill-rule="evenodd" stroke="#525666" stroke-width=".5" d="M9.273 31.499H1v-.215c0-6.27 5.102-11.374 11.374-11.374 2.49-.007 4.91.81 6.886 2.324l-.26.341a10.844 10.844 0 00-6.627-2.234c-5.963 0-10.83 4.793-10.942 10.729h7.842v.429zM11.872 9.417a4.337 4.337 0 00-4.332 4.332c0 2.334 1.892 5.048 4.332 5.048 2.004 0 4.333-2.206 4.333-5.048a4.337 4.337 0 00-4.333-4.33v-.002zm0 9.809c-1.244 0-2.444-.628-3.38-1.768-.879-1.068-1.381-2.42-1.381-3.709a4.761 4.761 0 119.523 0c0 1.289-.503 2.641-1.381 3.709-.936 1.142-2.137 1.768-3.38 1.768z" clip-rule="evenodd"/><path fill="#525666" fill-rule="evenodd" d="M49.455 31.33h-.43c0-6.034-4.908-10.944-10.943-10.944v-.429c6.274 0 11.373 5.102 11.373 11.373z" clip-rule="evenodd"/><path fill="#DFF4F0" fill-rule="evenodd" d="M41.182 31.356h8.059c0-6.163-4.996-11.158-11.158-11.158a11.109 11.109 0 00-6.758 2.278" clip-rule="evenodd"/><path fill="#525666" fill-rule="evenodd" stroke="#525666" stroke-width=".5" d="M49.455 31.5h-8.272v-.43h7.841c-.115-5.936-4.98-10.73-10.942-10.73a10.845 10.845 0 00-6.628 2.235l-.26-.341a11.27 11.27 0 016.888-2.322c6.271 0 11.375 5.102 11.375 11.374l-.002.213z" clip-rule="evenodd"/><path fill="#fff" fill-rule="evenodd" d="M42.863 37.839c0-9.693-7.858-17.55-17.551-17.55-9.693 0-17.55 7.857-17.55 17.55h35.1z" clip-rule="evenodd"/><path fill="#DFF4F0" fill-rule="evenodd" d="M21.05 20.897l3.583 3.01c.398.321.97.3 1.345-.047l3.282-3.054-1.157-.152a20.587 20.587 0 00-5.58.032l-1.474.21z" clip-rule="evenodd"/><path fill="#fff" fill-rule="evenodd" d="M43.13 13.752c0 2.51-2.036 5.263-4.547 5.263-2.512 0-4.547-2.75-4.547-5.263a4.547 4.547 0 119.094 0z" clip-rule="evenodd"/><path fill="#61C1A8" fill-rule="evenodd" d="M32.464 10.261c0 3.95-3.202 7.865-7.152 7.865s-7.153-3.915-7.153-7.865a7.152 7.152 0 0114.305 0z" clip-rule="evenodd"/><path fill="#525666" fill-rule="evenodd" stroke="#525666" stroke-width=".5" d="M25.312 3.252a6.945 6.945 0 00-6.937 6.938c0 1.875.744 3.796 2.041 5.273 1.348 1.534 3.086 2.38 4.896 2.38s3.548-.848 4.896-2.38c1.297-1.477 2.041-3.399 2.041-5.273a6.946 6.946 0 00-6.937-6.937v-.001zm0 15.02c-1.936 0-3.788-.898-5.218-2.526-1.365-1.553-2.149-3.58-2.149-5.556a7.367 7.367 0 0114.733-.005v.005c0 1.977-.782 4.003-2.147 5.556-1.431 1.628-3.284 2.525-5.22 2.525zM38.583 9.417a4.337 4.337 0 00-4.33 4.335c0 2.334 1.89 5.05 4.33 5.05 2.004 0 4.332-2.205 4.332-5.047a4.337 4.337 0 00-4.332-4.336v-.002zm0 9.809c-1.244 0-2.444-.628-3.381-1.768-.877-1.068-1.38-2.42-1.38-3.709a4.762 4.762 0 119.523 0c0 1.289-.503 2.641-1.38 3.709-.936 1.142-2.138 1.768-3.382 1.768zM7.978 37.552h34.667c-.16-9.573-8.05-17.204-17.624-17.044-9.347.157-16.887 7.697-17.043 17.044zm35.099.43H7.547v-.215c-.003-9.811 7.948-17.767 17.76-17.77 9.811-.003 17.767 7.948 17.77 17.76v.224z" clip-rule="evenodd"/><path fill="#DFF4F0" fill-rule="evenodd" d="M24.471 23.705l-2.063 7.651 2.976 4.586 3.016-4.657-2.19-7.58" clip-rule="evenodd"/><path fill="#525666" fill-rule="evenodd" stroke="#525666" stroke-width=".5" d="M25.278 24.276a1.24 1.24 0 01-.778-.27l-3.588-3.014.276-.329 3.584 3.01a.817.817 0 001.061-.04l3.281-3.054.293.314-3.281 3.052c-.231.213-.534.331-.848.33z" clip-rule="evenodd"/><path fill="#525666" fill-rule="evenodd" stroke="#525666" stroke-width=".5" d="M25.384 36.337l-3.208-4.945 2.089-7.743.413.112-2.038 7.558 2.743 4.229 2.784-4.298-2.162-7.485.412-.12 2.216 7.674-3.25 5.018z" clip-rule="evenodd"/><path fill="#22D6B4" fill-rule="evenodd" d="M13.739 6.711c.484.095.944.288 1.351.568a3.6 3.6 0 01.57-1.35 3.605 3.605 0 01-1.35-.567c-.096.484-.29.943-.571 1.349zm1.476 1.046a.168.168 0 01-.108-.039 3.272 3.272 0 00-1.694-.711.17.17 0 01-.14-.105.172.172 0 01.026-.173 3.272 3.272 0 00.719-1.694.171.171 0 01.277-.114 3.262 3.262 0 001.694.712.171.171 0 01.113.279 3.268 3.268 0 00-.717 1.694.17.17 0 01-.17.151zM46.055 17.974c.484.095.944.288 1.351.567.096-.484.29-.943.571-1.349a3.607 3.607 0 01-1.351-.568c-.096.485-.29.944-.571 1.35zm1.476 1.046a.17.17 0 01-.108-.038 3.266 3.266 0 00-1.694-.712.171.171 0 01-.113-.279 3.268 3.268 0 00.718-1.694.171.171 0 01.277-.113 3.267 3.267 0 001.694.712.17.17 0 01.14.106.172.172 0 01-.027.173 3.271 3.271 0 00-.717 1.694.171.171 0 01-.17.151zM5.529 33.389a.991.991 0 100 1.982.991.991 0 000-1.982zm0 2.34a1.349 1.349 0 110-2.698 1.349 1.349 0 010 2.697zM37.153 3.83a.991.991 0 100 1.983.991.991 0 000-1.982zm0 2.34a1.349 1.349 0 110-2.697 1.349 1.349 0 010 2.697zM15.145 12.813a.172.172 0 01-.158-.105c-.749-1.765-2.007-2.328-2.93-2.489a.171.171 0 01-.139-.198.17.17 0 01.199-.14c1.006.176 2.377.787 3.185 2.693a.172.172 0 01-.157.239zM41.812 13.054a.17.17 0 01-.158-.104c-.75-1.765-2.006-2.328-2.93-2.489a.171.171 0 01-.14-.198.17.17 0 01.195-.14h.004c1.007.176 2.377.787 3.186 2.693a.172.172 0 01-.157.238z" clip-rule="evenodd"/><path fill="#fff" fill-rule="evenodd" d="M30.072 7.386a.171.171 0 01-.157-.104c-.75-1.765-2.007-2.327-2.93-2.488a.171.171 0 01-.14-.198.167.167 0 01.192-.141l.006.001c1.008.176 2.378.787 3.186 2.692a.171.171 0 01-.157.238z" clip-rule="evenodd"/></svg>