<svg width="150" height="151" viewBox="0 0 150 151" fill="none" xmlns="http://www.w3.org/2000/svg">
<path opacity="0.2" d="M75.84 118.7C101.56 118.7 122.4 97.9701 122.4 72.4101C122.4 46.8501 101.55 26.1101 75.84 26.1101C50.13 26.1101 29.27 46.8401 29.27 72.4001C29.27 97.9601 50.12 118.69 75.83 118.69L75.84 118.7Z" fill="#BEC6D2"/>
<path d="M128.18 124.38H133.13M101.16 124.38H122.82M16.87 124.38H96.02" stroke="#91A1B0" stroke-width="1.1" stroke-linecap="round" stroke-linejoin="round"/>
<path d="M26.27 46.5898H31.82" stroke="#91A1B0" stroke-width="1.1" stroke-linecap="round" stroke-linejoin="round"/>
<path d="M38.4 33.6499V39.2099" stroke="#91A1B0" stroke-width="1.1" stroke-linecap="round" stroke-linejoin="round"/>
<path d="M28.62 37.6299L33.03 41.0199" stroke="#91A1B0" stroke-width="1.1" stroke-linecap="round" stroke-linejoin="round"/>
<path d="M41.09 43.1799H108.91C111.79 43.1799 114.13 45.5099 114.13 48.3999V103.18C114.13 106.06 111.8 108.4 108.91 108.4H41.09C38.21 108.4 35.87 106.07 35.87 103.18V48.3999C35.87 45.5199 38.2 43.1799 41.09 43.1799Z" fill="white" stroke="#91A1B0" stroke-width="1.1" stroke-miterlimit="10"/>
<path d="M114.13 56.8099H35.87V48.3599C35.87 45.4999 38.19 43.1799 41.05 43.1799H108.91C111.79 43.1799 114.12 45.5099 114.12 48.3899V56.8099H114.13Z" fill="#91A1B0" stroke="#91A1B0" stroke-width="0.79" stroke-linecap="round" stroke-linejoin="round"/>
<path d="M54.02 50.3H44.98" stroke="white" stroke-width="1.1" stroke-miterlimit="10" stroke-linecap="round"/>
<path d="M70.17 97.56C67.06 97.56 59.72 97.53 59.72 97.53C58.99 97.53 58.39 96.93 58.39 96.2V69.03C58.39 68.29 58.99 67.7 59.72 67.7H80.36C81.1 67.7 81.69 68.3 81.69 69.03V82.94" fill="white"/>
<path d="M70.17 97.56C67.06 97.56 59.72 97.53 59.72 97.53C58.99 97.53 58.39 96.93 58.39 96.2V69.03C58.39 68.29 58.99 67.7 59.72 67.7H80.36C81.1 67.7 81.69 68.3 81.69 69.03V82.94" stroke="#CED6DE" stroke-width="1.1" stroke-linecap="round" stroke-linejoin="round"/>
<path d="M63.77 76.7H76.31" stroke="#CED6DE" stroke-width="1.1" stroke-linecap="round" stroke-linejoin="round"/>
<path d="M63.77 81.25H70.17" stroke="#CED6DE" stroke-width="1.1" stroke-linecap="round" stroke-linejoin="round"/>
<path d="M73.31 94.72V96.7C73.31 97.15 73.68 97.52 74.13 97.52H90.79C91.24 97.52 91.61 97.15 91.61 96.7V94.72C91.61 94.48 91.5 94.25 91.31 94.09C90.87 93.73 90.09 92.92 90.09 91.65C90.09 90.38 90.87 89.57 91.31 89.2C91.5 89.04 91.61 88.81 91.61 88.57V86.6C91.61 86.15 91.24 85.78 90.79 85.78H74.13C73.68 85.78 73.31 86.15 73.31 86.6V88.56C73.31 88.8 73.42 89.03 73.6 89.19C74.05 89.55 74.82 90.38 74.82 91.65C74.82 92.91 74.04 93.72 73.6 94.08C73.41 94.24 73.3 94.47 73.3 94.71L73.31 94.72Z" fill="white" stroke="#91A1B0" stroke-width="1.1" stroke-miterlimit="10"/>
<path d="M81.69 93.5801H78.23" stroke="#91A1B0" stroke-width="1.1" stroke-linecap="round" stroke-linejoin="round"/>
<path d="M78.23 89.74H86.69" stroke="#91A1B0" stroke-width="1.1" stroke-linecap="round" stroke-linejoin="round"/>
</svg>
