<svg xmlns="http://www.w3.org/2000/svg" width="146" height="142" fill="none" viewBox="0 0 146 142"><mask id="fs-oq8xoewf1a" width="142" height="142" x="4" y="0" maskUnits="userSpaceOnUse"><path fill="url(#paint0_linear)" d="M74.711 141.654c39.004 0 70.623-31.619 70.623-70.623 0-39.004-31.619-70.623-70.623-70.623C35.707.408 4.088 32.027 4.088 71.03c0 39.004 31.62 70.623 70.623 70.623z"/></mask><g mask="url(#fs-oq8xoewf1a)"><path fill="url(#paint1_linear)" d="M73.818 140.829c38.999 0 70.614-31.435 70.614-70.21 0-38.777-31.615-70.211-70.614-70.211-39 0-70.614 31.434-70.614 70.21 0 38.776 31.615 70.211 70.614 70.211z"/><path fill="#fff" d="M97.696 38.15a4.424 4.424 0 00-4.424 4.423v173.932h178.355V38.15H97.696zm173.407 11.087h-10.65v-10.65h10.65v10.65zm-88.435 66.698v-10.651h10.651v10.651h-10.651zm10.651.523v10.651h-10.651v-10.651h10.651zm-11.088-.523h-10.65v-10.651h10.65v10.651zm0 .523v10.651h-10.65v-10.651h10.65zm-11.174 10.651h-10.651v-10.651h10.651v10.651zm0 .437v10.65h-10.651v-10.65h10.651zm.524 0h10.65v10.65h-10.65v-10.65zm10.65 11.087v10.651h-10.65v-10.651h10.65zm.437 0h10.651v10.651h-10.651v-10.651zm0-.437v-10.65h10.651v10.65h-10.651zm11.087-10.65h10.651v10.65h-10.651v-10.65zm0-.437v-10.651h10.651v10.651h-10.651zm0-11.174v-10.651h10.651v10.651h-10.651zm0-11.087V94.197h10.651v10.651h-10.651zm-.436 0h-10.651V94.197h10.651v10.651zm-11.088 0h-10.65V94.197h10.65v10.651zm-11.174 0h-10.651V94.197h10.651v10.651zm0 .436v10.651h-10.651v-10.651h10.651zm-11.087 10.651h-10.651v-10.651h10.651v10.651zm0 .523v10.651h-10.651v-10.651h10.651zm0 11.088v10.65h-10.651v-10.65h10.651zm0 11.087v10.651h-10.651v-10.651h10.651zm.436 0h10.651v10.651h-10.651v-10.651zm10.651 11.174v10.651h-10.651v-10.651h10.651zm.524 0h10.65v10.651h-10.65v-10.651zm11.087 0h10.651v10.651h-10.651v-10.651zm11.087 0h10.651v10.651h-10.651v-10.651zm0-.523v-10.651h10.651v10.651h-10.651zm11.175-10.651h10.65v10.651h-10.65v-10.651zm0-.437v-10.65h10.65v10.65h-10.65zm0-11.087v-10.651h10.65v10.651h-10.65zm0-11.174v-10.651h10.65v10.651h-10.65zm0-11.087V94.197h10.65v10.651h-10.65zm0-11.088V83.11h10.65v10.65h-10.65zm-.524 0h-10.651V83.11h10.651v10.65zm-11.087 0h-10.651V83.11h10.651v10.65zm-11.088 0h-10.65V83.11h10.65v10.65zm-11.174 0h-10.651V83.11h10.651v10.65zm-11.087 0h-10.651V83.11h10.651v10.65zm0 .437v10.651h-10.651V94.197h10.651zm-11.087 10.651h-10.651V94.197h10.651v10.651zm0 .436v10.651h-10.651v-10.651h10.651zm0 11.174v10.651h-10.651v-10.651h10.651zm0 11.088v10.65h-10.651v-10.65h10.651zm0 11.087v10.651h-10.651v-10.651h10.651zm0 11.174v10.651h-10.651v-10.651h10.651zm.436 0h10.651v10.651h-10.651v-10.651zm10.651 11.087v10.651h-10.651v-10.651h10.651zm.436 0h10.651v10.651h-10.651v-10.651zm11.175 0h10.65v10.651h-10.65v-10.651zm11.087 0h10.651v10.651h-10.651v-10.651zm11.087 0h10.651v10.651h-10.651v-10.651zm11.175 0h10.65v10.651h-10.65v-10.651zm0-.436v-10.651h10.65v10.651h-10.65zm11.087-10.651h10.65v10.651h-10.65v-10.651zm0-.523v-10.651h10.65v10.651h-10.65zm0-11.088v-10.65h10.65v10.65h-10.65zm0-11.087v-10.651h10.65v10.651h-10.65zm0-11.174v-10.651h10.65v10.651h-10.65zm0-11.087V94.197h10.65v10.651h-10.65zm0-11.088V83.11h10.65v10.65h-10.65zm0-11.174v-10.65h10.65v10.65h-10.65zm-.437 0h-10.65v-10.65h10.65v10.65zm-11.174 0h-10.651v-10.65h10.651v10.65zm-11.087 0h-10.651v-10.65h10.651v10.65zm-11.088 0h-10.65v-10.65h10.65v10.65zm-11.174 0h-10.651v-10.65h10.651v10.65zm-11.087 0h-10.651v-10.65h10.651v10.65zm-11.087 0h-10.651v-10.65h10.651v10.65zm0 .524v10.65h-10.651V83.11h10.651zm-11.175 10.65h-10.65V83.11h10.65v10.65zm0 .437v10.651h-10.65V94.197h10.65zm0 11.087v10.651h-10.65v-10.651h10.65zm0 11.174v10.651h-10.65v-10.651h10.65zm0 11.088v10.65h-10.65v-10.65h10.65zm0 11.087v10.651h-10.65v-10.651h10.65zm0 11.174v10.651h-10.65v-10.651h10.65zm0 11.087v10.651h-10.65v-10.651h10.65zm.524 0h10.651v10.651h-10.651v-10.651zm10.651 11.088v10.65h-10.651v-10.65h10.651zm.436 0h10.651v10.65h-10.651v-10.65zm11.087 0h10.651v10.65h-10.651v-10.65zm11.175 0h10.65v10.65h-10.65v-10.65zm11.087 0h10.651v10.65h-10.651v-10.65zm11.087 0h10.651v10.65h-10.651v-10.65zm11.175 0h10.65v10.65h-10.65v-10.65zm11.087 0h10.65v10.65h-10.65v-10.65zm0-.437v-10.651h10.65v10.651h-10.65zm11.087-10.651h10.651v10.651h-10.651v-10.651zm0-.436v-10.651h10.651v10.651h-10.651zm0-11.174v-10.651h10.651v10.651h-10.651zm0-11.088v-10.65h10.651v10.65h-10.651zm0-11.087v-10.651h10.651v10.651h-10.651zm0-11.174v-10.651h10.651v10.651h-10.651zm0-11.087V94.197h10.651v10.651h-10.651zm0-11.088V83.11h10.651v10.65h-10.651zm0-11.174v-10.65h10.651v10.65h-10.651zm0-11.087V60.848h10.651v10.65h-10.651zm-.437 0h-10.65V60.848h10.65v10.65zm-11.087 0h-10.65V60.848h10.65v10.65zm-11.174 0h-10.651V60.848h10.651v10.65zm-11.087 0h-10.651V60.848h10.651v10.65zm-11.088 0h-10.65V60.848h10.65v10.65zm-11.174 0h-10.651V60.848h10.651v10.65zm-11.087 0h-10.651V60.848h10.651v10.65zm-11.087 0h-10.651V60.848h10.651v10.65zm-11.175 0h-10.65V60.848h10.65v10.65zm0 .436v10.65h-10.65v-10.65h10.65zm-11.087 10.65H115.97v-10.65h10.651v10.65zm0 .525v10.65H115.97V83.11h10.651zm0 11.087v10.651H115.97V94.197h10.651zm0 11.087v10.651H115.97v-10.651h10.651zm0 11.174v10.651H115.97v-10.651h10.651zm0 11.088v10.65H115.97v-10.65h10.651zm0 11.087v10.651H115.97v-10.651h10.651zm0 11.174v10.651H115.97v-10.651h10.651zm0 11.087v10.651H115.97v-10.651h10.651zm0 11.088v10.65H115.97v-10.65h10.651zm.437 0h10.65v10.65h-10.65v-10.65zm10.65 11.174v10.651h-10.65v-10.651h10.65zm.524 0h10.651v10.651h-10.651v-10.651zm11.087 0h10.651v10.651h-10.651v-10.651zm11.087 0h10.651v10.651h-10.651v-10.651zm11.175 0h10.65v10.651h-10.65v-10.651zm11.087 0h10.651v10.651h-10.651v-10.651zm11.087 0h10.651v10.651h-10.651v-10.651zm11.175 0h10.65v10.651h-10.65v-10.651zm11.087 0h10.65v10.651h-10.65v-10.651zm11.087 0h10.651v10.651h-10.651v-10.651zm0-.524v-10.65h10.651v10.65h-10.651zm11.174-10.65h10.651v10.65h-10.651v-10.65zm0-.437v-10.651h10.651v10.651h-10.651zm0-11.087v-10.651h10.651v10.651h-10.651zm0-11.174v-10.651h10.651v10.651h-10.651zm0-11.088v-10.65h10.651v10.65h-10.651zm0-11.087v-10.651h10.651v10.651h-10.651zm0-11.174v-10.651h10.651v10.651h-10.651zm0-11.087V94.197h10.651v10.651h-10.651zm0-11.088V83.11h10.651v10.65h-10.651zm0-11.174v-10.65h10.651v10.65h-10.651zm0-11.087V60.848h10.651v10.65h-10.651zm0-11.087V49.76h10.651v10.65h-10.651zm-.523 0h-10.651V49.76h10.651v10.65zm-11.088 0h-10.65V49.76h10.65v10.65zm-11.087 0h-10.65V49.76h10.65v10.65zm-11.174 0h-10.651V49.76h10.651v10.65zm-11.087 0h-10.651V49.76h10.651v10.65zm-11.088 0h-10.65V49.76h10.65v10.65zm-11.174 0h-10.651V49.76h10.651v10.65zm-11.087 0h-10.651V49.76h10.651v10.65zm-11.087 0h-10.651V49.76h10.651v10.65zm-11.175 0h-10.65V49.76h10.65v10.65zm-11.087 0H115.97V49.76h10.651v10.65zm0 .436v10.65H115.97v-10.65h10.651zm-11.087 10.65h-10.651v-10.65h10.651v10.65zm0 .437v10.65h-10.651v-10.65h10.651zm0 11.175v10.65h-10.651V83.11h10.651zm0 11.087v10.651h-10.651V94.197h10.651zm0 11.087v10.651h-10.651v-10.651h10.651zm0 11.174v10.651h-10.651v-10.651h10.651zm0 11.088v10.65h-10.651v-10.65h10.651zm0 11.087v10.651h-10.651v-10.651h10.651zm0 11.174v10.651h-10.651v-10.651h10.651zm0 11.087v10.651h-10.651v-10.651h10.651zm0 11.088v10.65h-10.651v-10.65h10.651zm0 11.174v10.651h-10.651v-10.651h10.651zm.436 0h10.651v10.651H115.97v-10.651zm10.651 11.087v10.651H115.97v-10.651h10.651zm.437 0h10.65v10.651h-10.65v-10.651zm11.174 0h10.651v10.651h-10.651v-10.651zm11.087 0h10.651v10.651h-10.651v-10.651zm11.087 0h10.651v10.651h-10.651v-10.651zm11.175 0h10.65v10.651h-10.65v-10.651zm11.087 0h10.651v10.651h-10.651v-10.651zm11.087 0h10.651v10.651h-10.651v-10.651zm11.175 0h10.65v10.651h-10.65v-10.651zm11.087 0h10.65v10.651h-10.65v-10.651zm11.087 0h10.651v10.651h-10.651v-10.651zm11.174 0h10.651v10.651h-10.651v-10.651zm0-.436v-10.651h10.651v10.651h-10.651zm11.088-10.651h10.65v10.651h-10.65v-10.651zm0-.524v-10.65h10.65v10.65h-10.65zm0-11.087v-10.651h10.65v10.651h-10.65zm0-11.087v-10.651h10.65v10.651h-10.65zm0-11.174v-10.651h10.65v10.651h-10.65zm0-11.088v-10.65h10.65v10.65h-10.65zm0-11.087v-10.651h10.65v10.651h-10.65zm0-11.174v-10.651h10.65v10.651h-10.65zm0-11.087V94.197h10.65v10.651h-10.65zm0-11.088V83.11h10.65v10.65h-10.65zm0-11.174v-10.65h10.65v10.65h-10.65zm0-11.087V60.848h10.65v10.65h-10.65zm0-11.087V49.76h10.65v10.65h-10.65zm0-11.175v-10.65h10.65v10.65h-10.65zm-.437 0h-10.651v-10.65h10.651v10.65zm-11.174 0h-10.651v-10.65h10.651v10.65zm-11.088 0h-10.65v-10.65h10.65v10.65zm-11.087 0h-10.65v-10.65h10.65v10.65zm-11.174 0h-10.651v-10.65h10.651v10.65zm-11.087 0h-10.651v-10.65h10.651v10.65zm-11.088 0h-10.65v-10.65h10.65v10.65zm-11.174 0h-10.651v-10.65h10.651v10.65zm-11.087 0h-10.651v-10.65h10.651v10.65zm-11.087 0h-10.651v-10.65h10.651v10.65zm-11.175 0h-10.65v-10.65h10.65v10.65zm-11.087 0H115.97v-10.65h10.651v10.65zm-11.087 0h-10.651v-10.65h10.651v10.65zm0 .524v10.65h-10.651v-10.65h10.651zm-11.175 10.65h-10.65v-10.65h10.65v10.65zm0 .437v10.65h-10.65v-10.65h10.65zm0 11.087v10.65h-10.65v-10.65h10.65zm0 11.175v10.65h-10.65V83.11h10.65zm0 11.087v10.651h-10.65V94.197h10.65zm0 11.087v10.651h-10.65v-10.651h10.65zm0 11.174v10.651h-10.65v-10.651h10.65zm0 11.088v10.65h-10.65v-10.65h10.65zm0 11.087v10.651h-10.65v-10.651h10.65zm0 11.174v10.651h-10.65v-10.651h10.65zm0 11.087v10.651h-10.65v-10.651h10.65zm0 11.088v10.65h-10.65v-10.65h10.65zm0 11.174v10.651h-10.65v-10.651h10.65zm0 11.087v10.651h-10.65v-10.651h10.65zm.524 0h10.651v10.651h-10.651v-10.651zm10.651 11.087v10.651h-10.651V205.33h10.651zm.436 0h10.651v10.651H115.97V205.33zm11.088 0h10.65v10.651h-10.65V205.33zm11.174 0h10.651v10.651h-10.651V205.33zm11.087 0h10.651v10.651h-10.651V205.33zm11.087 0h10.651v10.651h-10.651V205.33zm11.175 0h10.65v10.651h-10.65V205.33zm11.087 0h10.651v10.651h-10.651V205.33zm11.087 0h10.651v10.651h-10.651V205.33zm11.175 0h10.65v10.651h-10.65V205.33zm11.087 0h10.65v10.651h-10.65V205.33zm11.087 0h10.651v10.651h-10.651V205.33zm11.174 0h10.651v10.651h-10.651V205.33zm11.088 0h10.65v10.651h-10.65V205.33zm0-.436v-10.651h10.65v10.651h-10.65zm11.087-10.651h10.65v10.651h-10.65v-10.651zm0-.436v-10.651h10.65v10.651h-10.65zm0-11.175v-10.65h10.65v10.65h-10.65zm0-11.087v-10.651h10.65v10.651h-10.65zm0-11.087v-10.651h10.65v10.651h-10.65zm0-11.174v-10.651h10.65v10.651h-10.65zm0-11.088v-10.65h10.65v10.65h-10.65zm0-11.087v-10.651h10.65v10.651h-10.65zm0-11.174v-10.651h10.65v10.651h-10.65zm0-11.087V94.197h10.65v10.651h-10.65zm0-11.088V83.11h10.65v10.65h-10.65zm0-11.174v-10.65h10.65v10.65h-10.65zm0-11.087V60.848h10.65v10.65h-10.65zm0-11.087V49.76h10.65v10.65h-10.65zM104.359 38.585v10.651h-10.65V43.01a4.424 4.424 0 014.423-4.424h6.227zM93.709 205.33h10.65v10.651h-10.65V205.33zm166.744 10.651V205.33h10.65v10.651h-10.65z"/></g><path fill="url(#paint2_radial)" d="M13.854 112.106a9.017 9.017 0 100-18.033 9.017 9.017 0 000 18.033z"/><path fill="url(#paint3_radial)" d="M8.639 102.649c-1.634-1.005-2.042-3.299-.911-5.09 1.1-1.79 3.33-2.45 4.963-1.444 1.634 1.005 2.043 3.298.912 5.089-1.131 1.822-3.362 2.451-4.964 1.445z" opacity=".5"/><path fill="url(#paint4_radial)" d="M132.799 42.28a6.882 6.882 0 100-13.764 6.882 6.882 0 000 13.764z"/><path fill="url(#paint5_radial)" d="M128.819 35.062c-1.247-.767-1.559-2.518-.696-3.885.84-1.366 2.542-1.87 3.789-1.103 1.247.768 1.559 2.518.695 3.885-.863 1.39-2.565 1.87-3.788 1.103z" opacity=".5"/><g filter="url(#filter0_f)"><ellipse cx="69.355" cy="122.348" fill="#000" fill-opacity=".37" rx="67.671" ry=".359"/></g><g filter="url(#filter1_dii)"><path fill="#4596FF" d="M47.22 37.185a2.47 2.47 0 012.47-2.47h52.378a2.47 2.47 0 012.47 2.47v74.908a2.47 2.47 0 01-2.47 2.47H49.69a2.47 2.47 0 01-2.47-2.47V37.185z"/></g><g filter="url(#filter2_dii)"><path fill="url(#paint6_linear)" d="M73.882 38.773c0-.862.699-1.56 1.56-1.56h25.536c.861 0 1.56.698 1.56 1.56v71.88a1.56 1.56 0 01-1.56 1.56H75.442a1.56 1.56 0 01-1.56-1.56v-71.88z"/></g><g filter="url(#filter3_iii)"><path fill="#4392F4" d="M41.22 37.185a2.47 2.47 0 012.47-2.47h52.378a2.47 2.47 0 012.47 2.47v74.908a2.47 2.47 0 01-2.47 2.47H43.69a2.47 2.47 0 01-2.47-2.47V37.185z"/></g><g filter="url(#filter4_d)"><g clip-path="url(#clip0)"><path fill="url(#paint7_radial)" d="M79.117 62.348c0-4.493-3.677-8.17-8.17-8.17-4.494 0-8.17 3.677-8.17 8.17 0 3.24 1.867 5.987 4.6 7.325.866.424 1.527 1.243 1.527 2.207h4.086c0-.964.661-1.783 1.527-2.207 2.733-1.338 4.6-4.086 4.6-7.325z"/><path stroke="#fff" stroke-linecap="round" stroke-linejoin="round" stroke-miterlimit="10" stroke-width="1.475" d="M71.449 76.779h-1.475M72.924 73.83H68.5M70.712 46.811v2.95M85.458 61.557h-2.95M55.965 61.557h2.95M59.21 50.055l3.096 3.097M82.214 50.055l-3.097 3.097"/></g></g><g filter="url(#filter5_dii)"><rect width="32.618" height="2.896" x="54.629" y="89.014" fill="#F3F3F3" rx="1.448"/></g><g filter="url(#filter6_dii)"><rect width="28.62" height="2.896" x="56.628" y="96.177" fill="#F3F3F3" rx="1.448"/></g><g filter="url(#filter7_i)"><path fill="url(#paint8_linear)" d="M118.907 101.395c-.049-.012-.101-.021-.138-.056-.763-.729 1.494-10.653 1.708-11.395 1.091-3.767 2.898-7.433 5.804-10.122 2.057-1.904 7.551-5.628 10.402-3.44 2.403 1.849.152 6.488-.956 8.427-1.986 3.45-4.912 6.245-7.411 9.304-1.491 1.83-2.989 3.695-4.48 5.524-.096.126-.851 1.197-1.416 1.895-.362.448-.887.529-1.445.388l-2.068-.525z"/></g><g filter="url(#filter8_i)"><path fill="url(#paint9_linear)" d="M122.169 104.412c1.219.263 2.305-.774 2.051-1.995-1.401-6.718-6.042-24.235-15.871-21.043-8.934 2.932 10.265 20.208 13.046 22.655.224.196.483.321.774.383z"/></g><path fill="#77FFE4" fill-opacity=".2" d="M111.025 84.867s11.495 15.004 11.627 18.179l-11.627-18.179zM133.284 79.342s-9.445 12.05-10.472 17.399l10.472-17.399z"/><path fill="url(#paint10_linear)" d="M110.48 101.451a2.351 2.351 0 012.34-2.576h15.931a2.35 2.35 0 012.339 2.576l-1.776 18.414a2.35 2.35 0 01-2.339 2.124h-12.38a2.35 2.35 0 01-2.339-2.124l-1.776-18.414z"/><g filter="url(#filter9_i)"><rect width="22.63" height="5.571" x="109.47" y="98.875" fill="url(#paint11_linear)" rx="1.175"/></g><defs><filter id="filter0_f" width="138.212" height="3.586" x=".25" y="120.555" color-interpolation-filters="sRGB" filterUnits="userSpaceOnUse"><feFlood flood-opacity="0" result="BackgroundImageFix"/><feBlend in="SourceGraphic" in2="BackgroundImageFix" result="shape"/><feGaussianBlur result="effect1_foregroundBlur" stdDeviation=".717"/></filter><filter id="filter1_dii" width="57.797" height="80.529" x="46.942" y="34.357" color-interpolation-filters="sRGB" filterUnits="userSpaceOnUse"><feFlood flood-opacity="0" result="BackgroundImageFix"/><feColorMatrix in="SourceAlpha" values="0 0 0 0 0 0 0 0 0 0 0 0 0 0 0 0 0 0 127 0"/><feOffset dy=".121"/><feGaussianBlur stdDeviation=".101"/><feColorMatrix values="0 0 0 0 0 0 0 0 0 0 0 0 0 0 0 0 0 0 0.25 0"/><feBlend in2="BackgroundImageFix" result="effect1_dropShadow"/><feBlend in="SourceGraphic" in2="effect1_dropShadow" result="shape"/><feColorMatrix in="SourceAlpha" result="hardAlpha" values="0 0 0 0 0 0 0 0 0 0 0 0 0 0 0 0 0 0 127 0"/><feOffset dx="-.277" dy="-.358"/><feGaussianBlur stdDeviation=".179"/><feComposite in2="hardAlpha" k2="-1" k3="1" operator="arithmetic"/><feColorMatrix values="0 0 0 0 0.172549 0 0 0 0 0.360784 0 0 0 0 0.772549 0 0 0 1 0"/><feBlend in2="shape" result="effect2_innerShadow"/><feColorMatrix in="SourceAlpha" result="hardAlpha" values="0 0 0 0 0 0 0 0 0 0 0 0 0 0 0 0 0 0 127 0"/><feOffset dy=".5"/><feComposite in2="hardAlpha" k2="-1" k3="1" operator="arithmetic"/><feColorMatrix values="0 0 0 0 0.470833 0 0 0 0 0.700058 0 0 0 0 1 0 0 0 1 0"/><feBlend in2="effect2_innerShadow" result="effect3_innerShadow"/></filter><filter id="filter2_dii" width="28.971" height="75.597" x="73.724" y="37.169" color-interpolation-filters="sRGB" filterUnits="userSpaceOnUse"><feFlood flood-opacity="0" result="BackgroundImageFix"/><feColorMatrix in="SourceAlpha" values="0 0 0 0 0 0 0 0 0 0 0 0 0 0 0 0 0 0 127 0"/><feOffset dy=".395"/><feGaussianBlur stdDeviation=".079"/><feColorMatrix values="0 0 0 0 0 0 0 0 0 0 0 0 0 0 0 0 0 0 0.25 0"/><feBlend in2="BackgroundImageFix" result="effect1_dropShadow"/><feBlend in="SourceGraphic" in2="effect1_dropShadow" result="shape"/><feColorMatrix in="SourceAlpha" result="hardAlpha" values="0 0 0 0 0 0 0 0 0 0 0 0 0 0 0 0 0 0 127 0"/><feOffset dy=".474"/><feComposite in2="hardAlpha" k2="-1" k3="1" operator="arithmetic"/><feColorMatrix values="0 0 0 0 1 0 0 0 0 1 0 0 0 0 1 0 0 0 1 0"/><feBlend in2="shape" result="effect2_innerShadow"/><feColorMatrix in="SourceAlpha" result="hardAlpha" values="0 0 0 0 0 0 0 0 0 0 0 0 0 0 0 0 0 0 127 0"/><feOffset dx="-.022" dy="-.395"/><feGaussianBlur stdDeviation=".022"/><feComposite in2="hardAlpha" k2="-1" k3="1" operator="arithmetic"/><feColorMatrix values="0 0 0 0 0.833333 0 0 0 0 0.833333 0 0 0 0 0.833333 0 0 0 1 0"/><feBlend in2="effect2_innerShadow" result="effect3_innerShadow"/></filter><filter id="filter3_iii" width="58.091" height="81.162" x="40.447" y="34.251" color-interpolation-filters="sRGB" filterUnits="userSpaceOnUse"><feFlood flood-opacity="0" result="BackgroundImageFix"/><feBlend in="SourceGraphic" in2="BackgroundImageFix" result="shape"/><feColorMatrix in="SourceAlpha" result="hardAlpha" values="0 0 0 0 0 0 0 0 0 0 0 0 0 0 0 0 0 0 127 0"/><feOffset dy="-.464"/><feGaussianBlur stdDeviation=".464"/><feComposite in2="hardAlpha" k2="-1" k3="1" operator="arithmetic"/><feColorMatrix values="0 0 0 0 0.089132 0 0 0 0 0.328429 0 0 0 0 0.629167 0 0 0 1 0"/><feBlend in2="shape" result="effect1_innerShadow"/><feColorMatrix in="SourceAlpha" result="hardAlpha" values="0 0 0 0 0 0 0 0 0 0 0 0 0 0 0 0 0 0 127 0"/><feOffset dy=".85"/><feGaussianBlur stdDeviation=".425"/><feComposite in2="hardAlpha" k2="-1" k3="1" operator="arithmetic"/><feColorMatrix values="0 0 0 0 0.641667 0 0 0 0 0.8495 0 0 0 0 1 0 0 0 1 0"/><feBlend in2="effect1_innerShadow" result="effect2_innerShadow"/><feColorMatrix in="SourceAlpha" result="hardAlpha" values="0 0 0 0 0 0 0 0 0 0 0 0 0 0 0 0 0 0 127 0"/><feOffset dx="-.773"/><feGaussianBlur stdDeviation=".386"/><feComposite in2="hardAlpha" k2="-1" k3="1" operator="arithmetic"/><feColorMatrix values="0 0 0 0 0 0 0 0 0 0 0 0 0 0 0 0 0 0 0.25 0"/><feBlend in2="effect2_innerShadow" result="effect3_innerShadow"/></filter><filter id="filter4_d" width="31.306" height="33.035" x="55.059" y="46.074" color-interpolation-filters="sRGB" filterUnits="userSpaceOnUse"><feFlood flood-opacity="0" result="BackgroundImageFix"/><feColorMatrix in="SourceAlpha" values="0 0 0 0 0 0 0 0 0 0 0 0 0 0 0 0 0 0 127 0"/><feOffset dy=".424"/><feGaussianBlur stdDeviation=".085"/><feColorMatrix values="0 0 0 0 0 0 0 0 0 0 0 0 0 0 0 0 0 0 0.25 0"/><feBlend in2="BackgroundImageFix" result="effect1_dropShadow"/><feBlend in="SourceGraphic" in2="effect1_dropShadow" result="shape"/></filter><filter id="filter5_dii" width="32.934" height="3.492" x="54.471" y="88.971" color-interpolation-filters="sRGB" filterUnits="userSpaceOnUse"><feFlood flood-opacity="0" result="BackgroundImageFix"/><feColorMatrix in="SourceAlpha" values="0 0 0 0 0 0 0 0 0 0 0 0 0 0 0 0 0 0 127 0"/><feOffset dy=".395"/><feGaussianBlur stdDeviation=".079"/><feColorMatrix values="0 0 0 0 0 0 0 0 0 0 0 0 0 0 0 0 0 0 0.25 0"/><feBlend in2="BackgroundImageFix" result="effect1_dropShadow"/><feBlend in="SourceGraphic" in2="effect1_dropShadow" result="shape"/><feColorMatrix in="SourceAlpha" result="hardAlpha" values="0 0 0 0 0 0 0 0 0 0 0 0 0 0 0 0 0 0 127 0"/><feOffset dy=".474"/><feComposite in2="hardAlpha" k2="-1" k3="1" operator="arithmetic"/><feColorMatrix values="0 0 0 0 1 0 0 0 0 1 0 0 0 0 1 0 0 0 1 0"/><feBlend in2="shape" result="effect2_innerShadow"/><feColorMatrix in="SourceAlpha" result="hardAlpha" values="0 0 0 0 0 0 0 0 0 0 0 0 0 0 0 0 0 0 127 0"/><feOffset dx="-.022" dy="-.395"/><feGaussianBlur stdDeviation=".022"/><feComposite in2="hardAlpha" k2="-1" k3="1" operator="arithmetic"/><feColorMatrix values="0 0 0 0 0.833333 0 0 0 0 0.833333 0 0 0 0 0.833333 0 0 0 1 0"/><feBlend in2="effect2_innerShadow" result="effect3_innerShadow"/></filter><filter id="filter6_dii" width="28.936" height="3.492" x="56.47" y="96.133" color-interpolation-filters="sRGB" filterUnits="userSpaceOnUse"><feFlood flood-opacity="0" result="BackgroundImageFix"/><feColorMatrix in="SourceAlpha" values="0 0 0 0 0 0 0 0 0 0 0 0 0 0 0 0 0 0 127 0"/><feOffset dy=".395"/><feGaussianBlur stdDeviation=".079"/><feColorMatrix values="0 0 0 0 0 0 0 0 0 0 0 0 0 0 0 0 0 0 0.25 0"/><feBlend in2="BackgroundImageFix" result="effect1_dropShadow"/><feBlend in="SourceGraphic" in2="effect1_dropShadow" result="shape"/><feColorMatrix in="SourceAlpha" result="hardAlpha" values="0 0 0 0 0 0 0 0 0 0 0 0 0 0 0 0 0 0 127 0"/><feOffset dy=".474"/><feComposite in2="hardAlpha" k2="-1" k3="1" operator="arithmetic"/><feColorMatrix values="0 0 0 0 1 0 0 0 0 1 0 0 0 0 1 0 0 0 1 0"/><feBlend in2="shape" result="effect2_innerShadow"/><feColorMatrix in="SourceAlpha" result="hardAlpha" values="0 0 0 0 0 0 0 0 0 0 0 0 0 0 0 0 0 0 127 0"/><feOffset dx="-.022" dy="-.395"/><feGaussianBlur stdDeviation=".022"/><feComposite in2="hardAlpha" k2="-1" k3="1" operator="arithmetic"/><feColorMatrix values="0 0 0 0 0.833333 0 0 0 0 0.833333 0 0 0 0 0.833333 0 0 0 1 0"/><feBlend in2="effect2_innerShadow" result="effect3_innerShadow"/></filter><filter id="filter7_i" width="20.265" height="26.7" x="118.612" y="75.283" color-interpolation-filters="sRGB" filterUnits="userSpaceOnUse"><feFlood flood-opacity="0" result="BackgroundImageFix"/><feBlend in="SourceGraphic" in2="BackgroundImageFix" result="shape"/><feColorMatrix in="SourceAlpha" result="hardAlpha" values="0 0 0 0 0 0 0 0 0 0 0 0 0 0 0 0 0 0 127 0"/><feOffset dx="1.127" dy="-.431"/><feGaussianBlur stdDeviation="1.469"/><feComposite in2="hardAlpha" k2="-1" k3="1" operator="arithmetic"/><feColorMatrix values="0 0 0 0 0.113056 0 0 0 0 0.616667 0 0 0 0 0.58645 0 0 0 1 0"/><feBlend in2="shape" result="effect1_innerShadow"/></filter><filter id="filter8_i" width="19.387" height="23.895" x="105.997" y="80.558" color-interpolation-filters="sRGB" filterUnits="userSpaceOnUse"><feFlood flood-opacity="0" result="BackgroundImageFix"/><feBlend in="SourceGraphic" in2="BackgroundImageFix" result="shape"/><feColorMatrix in="SourceAlpha" result="hardAlpha" values="0 0 0 0 0 0 0 0 0 0 0 0 0 0 0 0 0 0 127 0"/><feOffset dx="1.127" dy="-.431"/><feGaussianBlur stdDeviation="1.469"/><feComposite in2="hardAlpha" k2="-1" k3="1" operator="arithmetic"/><feColorMatrix values="0 0 0 0 0.0996528 0 0 0 0 0.683333 0 0 0 0 0.555806 0 0 0 1 0"/><feBlend in2="shape" result="effect1_innerShadow"/></filter><filter id="filter9_i" width="23.1" height="5.924" x="109.47" y="98.522" color-interpolation-filters="sRGB" filterUnits="userSpaceOnUse"><feFlood flood-opacity="0" result="BackgroundImageFix"/><feBlend in="SourceGraphic" in2="BackgroundImageFix" result="shape"/><feColorMatrix in="SourceAlpha" result="hardAlpha" values="0 0 0 0 0 0 0 0 0 0 0 0 0 0 0 0 0 0 127 0"/><feOffset dx=".47" dy="-.353"/><feGaussianBlur stdDeviation=".411"/><feComposite in2="hardAlpha" k2="-1" k3="1" operator="arithmetic"/><feColorMatrix values="0 0 0 0 0.833333 0 0 0 0 0.604343 0 0 0 0 0.0555555 0 0 0 1 0"/><feBlend in2="shape" result="effect1_innerShadow"/></filter><linearGradient id="paint0_linear" x1="74.711" x2="74.711" y1=".408" y2="141.654" gradientUnits="userSpaceOnUse"><stop stop-color="#B5EFFF"/><stop offset="1" stop-color="#E7F8FE"/></linearGradient><linearGradient id="paint1_linear" x1="73.818" x2="73.818" y1=".408" y2="140.829" gradientUnits="userSpaceOnUse"><stop stop-color="#B5EFFF"/><stop offset="1" stop-color="#EDFBFF"/></linearGradient><linearGradient id="paint6_linear" x1="102.538" x2="90.984" y1="68.744" y2="68.744" gradientUnits="userSpaceOnUse"><stop stop-color="#F3F3F3"/><stop offset="1" stop-color="#F3F3F3" stop-opacity="0"/></linearGradient><linearGradient id="paint8_linear" x1="140.524" x2="119.21" y1="76.126" y2="95.267" gradientUnits="userSpaceOnUse"><stop stop-color="#BAFFF1" stop-opacity=".26"/><stop offset=".682" stop-color="#4DC7AE"/><stop offset=".969" stop-color="#06896F"/></linearGradient><linearGradient id="paint9_linear" x1="131.042" x2="118.079" y1="83.553" y2="105.383" gradientUnits="userSpaceOnUse"><stop stop-color="#B7FDEF"/><stop offset=".682" stop-color="#09B794"/><stop offset=".969" stop-color="#7EE0CC"/></linearGradient><linearGradient id="paint10_linear" x1="131.338" x2="111.738" y1="114.091" y2="114.091" gradientUnits="userSpaceOnUse"><stop offset=".099" stop-color="#FFEEC5"/><stop offset=".607" stop-color="#FACD63"/><stop offset=".839" stop-color="#EAAF23"/><stop offset=".984" stop-color="#EDB52F"/></linearGradient><linearGradient id="paint11_linear" x1="132.1" x2="111.085" y1="102.543" y2="102.543" gradientUnits="userSpaceOnUse"><stop offset=".099" stop-color="#FFEEC5"/><stop offset=".607" stop-color="#FCBD27"/><stop offset=".984" stop-color="#EFB222"/></linearGradient><radialGradient id="paint2_radial" cx="0" cy="0" r="1" gradientTransform="rotate(-15.177 378.014 13.827) scale(17.1946)" gradientUnits="userSpaceOnUse"><stop stop-color="#FFF1CF"/><stop offset=".188" stop-color="#FFE4A2"/><stop offset=".318" stop-color="#FFD364"/><stop offset=".49" stop-color="#FFD364"/><stop offset=".651" stop-color="#FFC73A"/><stop offset=".948" stop-color="#D09500"/></radialGradient><radialGradient id="paint3_radial" cx="0" cy="0" r="1" gradientTransform="rotate(121.889 -22.293 52.66) scale(3.76573 3.42946)" gradientUnits="userSpaceOnUse"><stop stop-color="#fff"/><stop offset=".694" stop-color="#fff" stop-opacity="0"/></radialGradient><radialGradient id="paint4_radial" cx="0" cy="0" r="1" gradientTransform="rotate(-15.177 187.181 -469.805) scale(13.1241)" gradientUnits="userSpaceOnUse"><stop stop-color="#E6C6FF"/><stop offset=".188" stop-color="#C07DF5"/><stop offset=".318" stop-color="#BE6FFC"/><stop offset=".49" stop-color="#B56AF0"/><stop offset=".651" stop-color="#A745F4"/><stop offset=".948" stop-color="#9F3DED"/></radialGradient><radialGradient id="paint5_radial" cx="0" cy="0" r="1" gradientTransform="rotate(121.889 56.121 52.503) scale(2.87426 2.6176)" gradientUnits="userSpaceOnUse"><stop stop-color="#fff"/><stop offset=".694" stop-color="#fff" stop-opacity="0"/></radialGradient><radialGradient id="paint7_radial" cx="0" cy="0" r="1" gradientTransform="rotate(80.442 -.399 70.052) scale(13.2509 12.2316)" gradientUnits="userSpaceOnUse"><stop stop-color="#FFE6A6"/><stop offset="1" stop-color="#FFD25F"/></radialGradient><clipPath id="clip0"><rect width="30.968" height="32.442" x="55.228" y="46.074" fill="#fff" rx="5.963"/></clipPath></defs></svg>