<svg width="132" height="110" viewBox="0 0 132 110" fill="none" xmlns="http://www.w3.org/2000/svg">
<g clip-path="url(#clip0_15_4048)">
<path d="M125.01 108.71H130.5" stroke="#91A1B0" stroke-width="1.2" stroke-linecap="round" stroke-linejoin="round"/>
<path d="M95.0298 108.71H119.06" stroke="#91A1B0" stroke-width="1.2" stroke-linecap="round" stroke-linejoin="round"/>
<path d="M1.5 108.71H89.32" stroke="#91A1B0" stroke-width="1.2" stroke-linecap="round" stroke-linejoin="round"/>
<path opacity="0.2" d="M66 101.77C93.61 101.77 116 79.38 116 51.77C116 24.16 93.61 1.77002 66 1.77002C38.39 1.77002 16 24.16 16 51.77C16 79.38 38.39 101.77 66 101.77Z" fill="#BEC6D2"/>
<path d="M29.0899 16.27H102.92C106.05 16.27 108.6 18.81 108.6 21.95V81.59C108.6 84.72 106.06 87.27 102.92 87.27H29.0899C25.9599 87.27 23.4099 84.73 23.4099 81.59V21.95C23.4099 18.82 25.9499 16.27 29.0899 16.27Z" fill="white" stroke="#91A1B0" stroke-width="1.2" stroke-miterlimit="10"/>
<path d="M28.6298 16.9399H103.44C105.92 16.9399 107.94 18.9599 107.94 21.4399V33.2999H24.0298V21.5399C24.0298 18.9999 26.0898 16.9399 28.6298 16.9399Z" fill="#91A1B0" stroke="#91A1B0" stroke-width="0.83" stroke-linecap="round" stroke-linejoin="round"/>
<path d="M43.1498 25.1201H33.3098" stroke="white" stroke-width="1.2" stroke-miterlimit="10" stroke-linecap="round"/>
<path d="M9.3999 14.6899H15.4399" stroke="#91A1B0" stroke-width="1.2" stroke-linecap="round" stroke-linejoin="round"/>
<path d="M22.5999 0.600098V6.6501" stroke="#91A1B0" stroke-width="1.2" stroke-linecap="round" stroke-linejoin="round"/>
<path d="M11.97 4.93018L16.77 8.62018" stroke="#91A1B0" stroke-width="1.2" stroke-linecap="round" stroke-linejoin="round"/>
<path d="M103.16 98.71C113.1 98.71 121.16 90.65 121.16 80.71C121.16 70.77 113.1 62.71 103.16 62.71C93.2199 62.71 85.1599 70.77 85.1599 80.71C85.1599 90.65 93.2199 98.71 103.16 98.71Z" fill="white" stroke="#91A1B0" stroke-width="1.2" stroke-miterlimit="10"/>
<path d="M37.0698 41.4199H76.5698" stroke="#CED6DE" stroke-width="1.2" stroke-linecap="round" stroke-linejoin="round"/>
<path d="M37.0698 47.25H64.4898" stroke="#CED6DE" stroke-width="1.2" stroke-linecap="round" stroke-linejoin="round"/>
<path d="M37.0698 58.4502H76.5698" stroke="#CED6DE" stroke-width="1.2" stroke-linecap="round" stroke-linejoin="round"/>
<path d="M37.0698 64.2798H64.4898" stroke="#CED6DE" stroke-width="1.2" stroke-linecap="round" stroke-linejoin="round"/>
<path d="M37.0698 74.29H76.5698" stroke="#CED6DE" stroke-width="1.2" stroke-linecap="round" stroke-linejoin="round"/>
<path d="M37.0698 80.1201H64.4898" stroke="#CED6DE" stroke-width="1.2" stroke-linecap="round" stroke-linejoin="round"/>
<path d="M33.9598 72.3999H13.0798C6.45982 72.3999 1.06982 67.0099 1.06982 60.3899C1.06982 53.7699 6.45982 48.3799 13.0798 48.3799H33.9598C40.5798 48.3799 45.9698 53.7699 45.9698 60.3899C45.9698 67.0099 40.5798 72.3999 33.9598 72.3999Z" fill="#F2F4F6"/>
<path d="M13.08 49.5801C7.12002 49.5801 2.27002 54.4301 2.27002 60.3901C2.27002 66.3501 7.12002 71.2001 13.08 71.2001H33.96C39.92 71.2001 44.77 66.3501 44.77 60.3901C44.77 54.4301 39.92 49.5801 33.96 49.5801H13.08Z" fill="#CED6DE"/>
<path d="M13.7698 69.1002C18.5798 69.1002 22.4798 65.2002 22.4798 60.3902C22.4798 55.5802 18.5798 51.6802 13.7698 51.6802C8.95981 51.6802 5.05981 55.5802 5.05981 60.3902C5.05981 65.2002 8.95981 69.1002 13.7698 69.1002Z" fill="#F2F4F6"/>
<path d="M112.09 78.74C112.13 78.55 112.11 78.35 112.03 78.18L109.76 74.27C109.57 73.92 109.11 73.82 108.77 74.01L106.98 75.05C106.7 74.86 106.37 74.68 106.07 74.53V72.67C106.07 72.26 105.72 71.96 105.36 71.96H101.08C100.67 71.96 100.37 72.31 100.37 72.67V74.46C99.98 74.63 99.7 74.81 99.44 74.96L97.65 73.92C97.3 73.73 96.85 73.86 96.66 74.18L94.33 78.07C94.24 78.24 94.2 78.44 94.27 78.63C94.31 78.82 94.44 78.98 94.62 79.08L96.37 80.12C96.35 80.34 96.35 80.53 96.35 80.73C96.35 80.9 96.35 81.08 96.37 81.23L94.6 82.25C94.43 82.34 94.32 82.51 94.25 82.68C94.21 82.87 94.23 83.07 94.31 83.24L96.56 87.15C96.75 87.5 97.19 87.6 97.55 87.41L99.41 86.37C99.67 86.56 99.99 86.76 100.43 86.93V88.75C100.43 89.16 100.78 89.46 101.14 89.46H105.42C105.83 89.46 106.13 89.11 106.13 88.75V86.89C106.41 86.74 106.71 86.61 106.99 86.41L108.76 87.45C109.11 87.64 109.56 87.54 109.75 87.19L112.04 83.34C112.13 83.17 112.17 82.97 112.1 82.78C112.06 82.59 111.93 82.43 111.75 82.33L110 81.29C110.02 81.07 110.02 80.88 110.02 80.68C110.02 80.51 110.02 80.33 110 80.18L111.77 79.16C111.92 79.05 112.05 78.92 112.09 78.73V78.74Z" stroke="#91A1B0" stroke-width="1.06" stroke-linecap="round" stroke-linejoin="round"/>
<path d="M103.12 84.15C105.02 84.15 106.56 82.6099 106.56 80.71C106.56 78.8102 105.02 77.27 103.12 77.27C101.22 77.27 99.6799 78.8102 99.6799 80.71C99.6799 82.6099 101.22 84.15 103.12 84.15Z" stroke="#91A1B0" stroke-width="1.06" stroke-miterlimit="10"/>
</g>
<defs>
<clipPath id="clip0_15_4048">
<rect width="130.2" height="109.31" fill="white" transform="translate(0.899902)"/>
</clipPath>
</defs>
</svg>
