<svg xmlns="http://www.w3.org/2000/svg" width="475" height="306" fill="none" viewBox="0 0 475 306"><path fill="#fff" d="M1.291 37.443H475v267.266H1.291z" opacity=".01"/><path fill="#EBEFF3" d="M31.785 202.476c5.047-14.054 20.323-23.673 35.173-22.149 10.23 1.046 20.09 6.74 30.217 4.977 10.733-1.865 18.477-11.891 21.375-22.395 2.898-10.503 2.014-21.62 1.839-32.51-.174-10.891.542-22.324 6.157-31.633 6.945-11.556 21.356-18.076 34.599-15.642 33.366 6.113 14.786 50.528 38.432 65.731 30.333 19.522 49.895-25.177 55.026-46.629 3.091-12.95 5.918-26.326 13.178-37.488 9.907-15.223 37.91-28.024 50.108-7.747 9.364 15.578-3.414 33.072-3.06 49.25.414 18.922 17.013 27.114 34.49 22.918 11.242-2.685 21.233-9.038 32.12-12.95 11.54-4.132 26.874-4.19 33.379 6.197 5.125 8.18 2.156 19.135-3.143 27.205-5.298 8.069-12.694 14.693-17.289 23.182-4.596 8.489-5.583 20.232 1.432 26.862 12.592 11.905 35.703-3.376 49.953 6.456 10.823 7.489 8.822 24.628 1.374 35.506-12.585 18.309-35.734 26.992-57.929 27.676-22.195.684-43.937-5.462-65.383-11.336-21.446-5.875-43.389-11.575-65.539-9.955-32.23 2.356-63.247 20.103-95.168 15.164-20.807-3.227-39.019-15.758-59.375-21.039a87.713 87.713 0 00-29.932-2.382c-8.023.736-17.523 5.042-25.628 3.228-15.922-3.525-21.188-27.178-16.406-40.497z"/><path fill="#CFD7DF" d="M105.197 208.17s-41.22 15.255-48.978-11.917c-1.594-5.558 2.91-5.558 3.175-9.8.265-4.241-16.94-9.264-18.529-21.446-1.587-12.182 10.765-13.866-3.71-29.121-14.554-15.358-16.67-23.305-10.327-26.469 6.345-3.163 15.122 3.958 20.123 11.375 5.002 7.418 10.062 0 16.942 2.912 6.88 2.911 4.517 14.848 11.12 17.74 6.602 2.892 26.202 3.706 34.702 34.151 0 0-5.454 33.498-4.518 32.575z"/><path fill="#fff" d="M104.171 80.87h258.152v147.836a3.873 3.873 0 01-3.872 3.873H108.069a3.872 3.872 0 01-3.872-3.873V80.87h-.026z"/><path fill="#92A2B1" d="M104.448 193.406s-44.68-39.728-21.51-54.073c23.169-14.345 12.688-12.143 11.617-25.939-1.072-13.796 9.926-18.76 9.926-18.76l-.033 98.772z"/><path fill="#fff" d="M1.488 37.446h1.455v4.394h5.53v-4.394H9.93V48.08H8.474v-4.973h-5.53v4.973H1.487V37.446zm13.732 2.708c.55 0 1.083.13 1.6.39.516.256.91.59 1.18 1 .26.39.434.846.521 1.368.077.357.116.926.116 1.708h-5.683c.024.787.21 1.419.558 1.897.347.472.885.709 1.614.709.68 0 1.223-.224 1.629-.673a2.27 2.27 0 00.492-.905h1.281c-.034.285-.147.603-.34.955a3.32 3.32 0 01-.637.855 3.037 3.037 0 01-1.47.781 4.465 4.465 0 01-1.064.116c-.965 0-1.783-.35-2.454-1.05-.67-.704-1.006-1.688-1.006-2.953 0-1.245.338-2.256 1.014-3.033.675-.777 1.558-1.165 2.65-1.165zm2.078 3.43c-.053-.564-.176-1.015-.37-1.353-.357-.627-.953-.94-1.788-.94-.598 0-1.1.216-1.505.65-.406.43-.62.978-.644 1.644h4.307zm2.982-6.138h1.303V48.08H20.28V37.446zm6.537 9.758c.608 0 1.112-.253 1.512-.76.406-.511.608-1.274.608-2.287 0-.618-.089-1.149-.267-1.593-.338-.854-.956-1.281-1.853-1.281-.903 0-1.52.451-1.854 1.353-.178.483-.267 1.096-.267 1.84 0 .598.089 1.107.267 1.527.338.8.956 1.201 1.854 1.201zm-3.374-6.84h1.267v1.028c.26-.353.545-.626.854-.819.44-.29.956-.434 1.55-.434.878 0 1.623.338 2.236 1.014.613.67.92 1.63.92 2.88 0 1.69-.442 2.896-1.325 3.62a2.993 2.993 0 01-1.955.688c-.584 0-1.073-.128-1.47-.384-.23-.145-.489-.393-.774-.746v3.96h-1.303V40.364zm9.18 3.93c0 .83.175 1.525.528 2.085.352.56.916.84 1.693.84.604 0 1.098-.258 1.484-.775.391-.521.587-1.267.587-2.237 0-.98-.2-1.703-.601-2.171-.4-.473-.895-.71-1.484-.71-.656 0-1.19.251-1.6.753-.405.502-.608 1.24-.608 2.215zm1.96-4.104c.594 0 1.091.125 1.492.376.232.145.495.398.789.76V37.41h1.252v10.67h-1.172v-1.078c-.304.477-.664.822-1.079 1.035-.415.212-.89.318-1.426.318-.864 0-1.612-.362-2.244-1.086-.632-.728-.948-1.696-.948-2.902 0-1.13.287-2.107.861-2.932.58-.83 1.405-1.245 2.476-1.245zm8.695-.036c.55 0 1.083.13 1.6.39.516.256.909.59 1.18 1 .26.39.434.846.52 1.368.078.357.116.926.116 1.708h-5.682c.024.787.21 1.419.557 1.897.348.472.886.709 1.614.709.68 0 1.224-.224 1.63-.673a2.27 2.27 0 00.491-.905h1.282c-.034.285-.148.603-.34.955a3.34 3.34 0 01-.638.855 3.036 3.036 0 01-1.469.781 4.465 4.465 0 01-1.064.116c-.965 0-1.783-.35-2.454-1.05-.67-.704-1.006-1.688-1.006-2.953 0-1.245.337-2.256 1.013-3.033.676-.777 1.559-1.165 2.65-1.165zm2.077 3.43c-.053-.564-.176-1.015-.37-1.353-.356-.627-.952-.94-1.787-.94-.599 0-1.1.216-1.506.65-.405.43-.62.978-.644 1.644h4.307zm3.72 2.064c.04.434.148.767.327.999.328.42.897.63 1.708.63.483 0 .907-.104 1.274-.312.367-.212.55-.538.55-.977 0-.333-.147-.586-.441-.76-.189-.106-.56-.23-1.115-.37l-1.035-.26c-.662-.164-1.149-.347-1.463-.55-.56-.352-.84-.84-.84-1.462 0-.734.264-1.327.79-1.78.53-.454 1.242-.681 2.135-.681 1.168 0 2.01.342 2.526 1.028.324.434.48.902.471 1.404h-1.23a1.507 1.507 0 00-.312-.804c-.3-.342-.818-.514-1.556-.514-.492 0-.866.095-1.122.283a.887.887 0 00-.377.745c0 .338.167.608.5.811.193.12.478.227.854.319l.861.21c.937.226 1.564.446 1.883.658.506.333.76.857.76 1.571 0 .69-.263 1.286-.79 1.788-.52.502-1.317.753-2.388.753-1.154 0-1.972-.26-2.454-.782-.478-.526-.734-1.175-.767-1.947h1.252zm6.61-8.202h1.252v6.175l3.344-3.294h1.665l-2.968 2.903 3.135 4.85h-1.665l-2.418-3.909-1.093 1v2.91h-1.252V37.445zM282.741 233.18H108.488a4.71 4.71 0 01-4.711-4.713V68.301a4.712 4.712 0 014.711-4.712H357.78a4.712 4.712 0 014.711 4.713V170.74"/><path stroke="#273139" stroke-width=".605" d="M282.741 233.18H108.488a4.71 4.71 0 01-4.711-4.713V68.301a4.712 4.712 0 014.711-4.712H357.78a4.712 4.712 0 014.711 4.713V170.74"/><path fill="#fff" d="M362.491 228.467a4.711 4.711 0 01-4.711 4.712h-51.186"/><path stroke="#273139" stroke-width=".605" d="M362.491 228.467a4.711 4.711 0 01-4.711 4.712h-51.186"/><path fill="#273139" stroke="#273139" stroke-width=".605" d="M108.482 63.589h249.323a4.713 4.713 0 014.712 4.713V85.37H103.771V68.301a4.712 4.712 0 014.711-4.712z"/><path fill="#fff" d="M111.438 76.939a2.162 2.162 0 100-4.325 2.162 2.162 0 000 4.325zm7.131 0a2.162 2.162 0 100-4.325 2.162 2.162 0 000 4.325zm7.132 0a2.162 2.162 0 100-4.325 2.162 2.162 0 000 4.325z"/><path fill="#fff" stroke="#B2E4D9" stroke-width=".5" d="M251.124 166.751l-65.003-.032a4.926 4.926 0 01-4.918-4.926v-34.609a4.926 4.926 0 014.925-4.919l65.002.038a4.92 4.92 0 014.918 4.92v34.609a4.925 4.925 0 01-4.924 4.919z"/><path stroke="#EBEFF3" stroke-linecap="round" stroke-linejoin="round" stroke-width="1.585" d="M191.962 134.505v25.448"/><path stroke="#9ACBFA" stroke-linecap="round" stroke-linejoin="round" stroke-width="1.585" d="M191.981 146.17v13.822"/><path stroke="#EBEFF3" stroke-linecap="round" stroke-linejoin="round" stroke-width="1.585" d="M199.339 142.678v17.275"/><path stroke="#9ACBFA" stroke-linecap="round" stroke-linejoin="round" stroke-width="1.585" d="M199.352 150.896v9.096"/><path stroke="#EBEFF3" stroke-linecap="round" stroke-linejoin="round" stroke-width="1.585" d="M206.715 134.505v25.448"/><path stroke="#9ACBFA" stroke-linecap="round" stroke-linejoin="round" stroke-width="1.585" d="M206.696 141.838l.045 18.153"/><path stroke="#EBEFF3" stroke-linecap="round" stroke-linejoin="round" stroke-width="1.585" d="M243.592 145.428v14.525"/><path stroke="#9ACBFA" stroke-linecap="round" stroke-linejoin="round" stroke-width="1.585" d="M243.573 153.097v6.894"/><path stroke="#EBEFF3" stroke-linecap="round" stroke-linejoin="round" stroke-width="1.585" d="M228.839 150.308v9.644"/><path stroke="#9ACBFA" stroke-linecap="round" stroke-linejoin="round" stroke-width="1.585" d="M228.833 155.653v4.339"/><path stroke="#EBEFF3" stroke-linecap="round" stroke-linejoin="round" stroke-width="1.585" d="M214.092 142.678v17.275"/><path stroke="#9ACBFA" stroke-linecap="round" stroke-linejoin="round" stroke-width="1.585" d="M214.086 150.928l.013 9.064"/><path stroke="#EBEFF3" stroke-linecap="round" stroke-linejoin="round" stroke-width="1.5" d="M221.469 144.446l-.007 15.559"/><path stroke="#9ACBFA" stroke-linecap="round" stroke-linejoin="round" stroke-width="1.5" d="M221.462 153.039v7.011"/><path stroke="#EBEFF3" stroke-linecap="round" stroke-linejoin="round" stroke-width="1.5" d="M236.216 145.415v14.59"/><path stroke="#9ACBFA" stroke-linecap="round" stroke-linejoin="round" stroke-width="1.5" d="M236.203 153.478v6.571"/><path fill="#EBEFF3" fill-rule="evenodd" d="M173.156 165.809h-28.591l23.582 67.023h27.403l-22.394-67.023zm-23.234 3.834l18.755-.168 2.678 7.618h-18.568l-2.865-7.45zm22.324 10.161l-18.755.168 2.872 7.45h18.561l-2.678-7.618zm-15.006 10.833l18.755-.168 2.685 7.618h-18.568l-2.872-7.45zm22.511 10.161l-18.754.168 2.865 7.45h18.568l-2.679-7.618zm-11.952 18.27l-2.859-7.45 18.761-.168 2.678 7.618h-18.58zm19.652 3.054l-18.755.174 2.853 7.443h18.58l-2.678-7.617z" clip-rule="evenodd"/><path fill="#B1BDC7" d="M169.425 165.24h3.247l-34.941 114.576h-3.118l34.812-114.576zm-25.447-.407h3.246l-35.096 114.763h-3.007l34.857-114.763z"/><path stroke="#92A2B1" stroke-linecap="round" stroke-linejoin="round" stroke-width=".5" d="M172.672 165.369l1.619 2.634-33.979 111.703-3.014.11m-9.977-42.091l-12.611 41.871h-2.362m18.935-55.222l-2.917 9.709m6.757-21.891l-2.626 8.528m6.492-21.446l-2.343 7.689m5.176-16.623l-2.278 7.372m5.705-18.554l-2.368 7.624m4.292-21.801l1.619 2.641-2.22 7.262m-2.446 4.048h21.143m-20.116-3.208h21.271m-25.66 14.454h21.143m-20.117-3.202h21.272m-25.757 14.067h21.142m-20.116-3.208h21.272m-25.564 14.26h21.143m-20.117-3.202h21.266m-26.138 15.319h21.142m-20.116-3.208h21.271m-26.331 16.475h21.143m-20.123-3.208h21.271"/><path fill="#fff" stroke="#B2E4D9" stroke-width=".5" d="M333.552 166.751l-65.003-.032a4.926 4.926 0 01-4.918-4.926v-34.609a4.926 4.926 0 014.925-4.919l65.002.038a4.92 4.92 0 014.918 4.92v34.609a4.925 4.925 0 01-4.924 4.919z"/><path stroke="#CFD7DF" stroke-linecap="round" stroke-linejoin="round" stroke-width="1.585" d="M271.608 131.412l11.146.007"/><path stroke="#EBEFF3" stroke-linecap="round" stroke-linejoin="round" stroke-width="1.585" d="M271.608 137.37l56.445.007"/><path stroke="#9ACBFA" stroke-linecap="round" stroke-linejoin="round" stroke-width="1.585" d="M271.266 137.37l21.704.007"/><path stroke="#CFD7DF" stroke-linecap="round" stroke-linejoin="round" stroke-width="1.585" d="M271.608 146.06l11.146.013"/><path stroke="#EBEFF3" stroke-linecap="round" stroke-linejoin="round" stroke-width="1.585" d="M271.608 152.019l56.445.006"/><path stroke="#9ACBFA" stroke-linecap="round" stroke-linejoin="round" stroke-width="1.585" d="M271.266 152.019l36.69.006"/><path stroke="#7B8E9F" stroke-linecap="round" stroke-linejoin="round" stroke-width=".5" d="M345.317 190.365s-2.213-9.341 8.603-14.015c6.641-2.866 14.405-.297 17.703 4.183 10.326 14.015 14.999 41.071 15.489 44.544h-3.685s-6.396-46.481-24.834-45.99c-9.345.22-10.817 5.868-13.276 11.278z" clip-rule="evenodd"/><path stroke="#7B8E9F" stroke-linecap="round" stroke-linejoin="round" stroke-width=".5" d="M345.317 190.365s3.227 12.053 14.747 5.662c9.378-5.165 15.651 1.291 17.367 4.745m-27.932-4.254s6.486-14.525 20.304-10.594"/><path fill="#B1BDC7" d="M352.442 212.011c-6.879 7.624-4.175 12.053-13.03 14.267-8.429 2.105-5.944 18.457 12.54 13.28 6.15-1.724 4.672-12.298 7.376-12.053 2.705.245 4.428 2.46 7.377-4.674 2.95-7.134 5.408 1.969 5.408 1.969h7.1s-15.348-25.442-26.771-12.789z"/><path fill="#92A2B1" d="M330.319 204.387c.645 3.667 5.653 6.643 13.275 1.937 10.642-6.527 12.295-4.674 12.54-1.937.245 2.738-3.692 8.851 5.163 10.82 8.855 1.969 14.753 2.95 15.489 9.593h7.861s-4.428-6.146-3.685-10.329c.742-4.183 2.207-6.152 0-8.605-2.208-2.453-5.163-.988-5.415-4.92-.252-3.931-1.936-4.428-7.37-3.447-5.434.981-6.641-2.214-8.855-6.882-2.214-4.667-14.198-8.566-23.356.982-5.893 6.145-6.39 8.605-5.647 12.788z"/><path stroke="#7B8E9F" stroke-width=".5" d="M390.552 225.304s14.753-6.391 17.212.245c2.459 6.637-.981 10.084 7.622 13.764 5.46 2.337 9.1 15.739 17.212 9.096 6.067-4.964 3.686-14.015-.987-18.444-2.652-2.518-12.262-7.747-12.262-12.053 0-5.164-7.132-14.757-19.671-9.593a23.593 23.593 0 00-14.263 17.218 36.43 36.43 0 015.137-.233z" clip-rule="evenodd"/><path fill="#647A8E" d="M381.949 224.432s10.694-49.806 36.903-48.327c26.209 1.478 20.284 20.29 5.905 22.872-14.379 2.582-27.293-8.857-36.883 25.823l-5.925-.368z"/><path stroke="#fff" stroke-linecap="round" stroke-linejoin="round" stroke-width=".5" d="M330.564 203.529s8.112-12.266 18.929-10.827c10.816 1.44 9.835 9.839 14.999 13.286 5.163 3.448 14.262 6.146 16.721 18.444" opacity=".79"/><path stroke="#fff" stroke-linecap="round" stroke-linejoin="round" stroke-width=".5" d="M338.676 188.771l6.641 3.687-1.723 13.899m11.062-19.309l2.704 8.857m12.295 1.717l-.246 11.072m5.376-9.536l-3.62 10.458" opacity=".79"/><path stroke="#fff" stroke-linecap="round" stroke-linejoin="round" stroke-width=".5" d="M363.362 227.906l-2.556-12.841m-24.343 20.187s6.886.245 14.998-11.065c8.113-11.311 14.263-13.777 19.917-10.329 4.905 2.982 6.886 7.378 7.376 11.801m-27.293 14.021l-.981-14.267m3.931 12.312l-2.698-14.041" opacity=".91"/><path stroke="#fff" stroke-linecap="round" stroke-linejoin="round" stroke-width=".5" d="M385.634 221.973s9.836-29.051 23.608-33.693c13.773-4.641 23.602.982 23.602.982m-10.817-12.053l-7.377 8.857m-5.408 2.214l11.307 11.065m-8.357-11.31l14.256 10.084" opacity=".65"/><path fill="#FCFCFC" stroke="#B1BDC7" stroke-width=".5" d="M392.759 279.706h-22.13a2.291 2.291 0 01-1.936-1.027c-2.698-4.067-11.759-19.309-2.73-28.34 7.344-7.347 2.93-17.011-.381-22.15a2.304 2.304 0 011.936-3.57h28.249a2.303 2.303 0 011.936 3.557c-3.376 5.12-7.867 14.79-.349 22.311 9.255 9.258 0 24.254-2.71 28.224a2.3 2.3 0 01-1.885.995z"/><path fill="#EBEFF3" d="M104.442 85.635H362.02v11.297H104.442z"/><rect width="20.007" height="2.582" x="309.563" y="90.096" fill="#fff" rx="1"/><rect width="13.553" height="2.582" x="331.745" y="90.096" fill="#fff" rx="1"/><path fill="#fff" d="M353.075 94.853a3.44 3.44 0 100-6.88 3.44 3.44 0 000 6.88z"/><path fill="#C0DEFC" d="M162.513 128.559c8.337 0 15.096-6.76 15.096-15.1 0-8.339-6.759-15.1-15.096-15.1s-15.095 6.761-15.095 15.1c0 8.34 6.758 15.1 15.095 15.1z"/><rect width="20.007" height="2.582" x="110.573" y="89.992" fill="#CFD7DF" rx="1"/><rect width="26.461" height="2.582" x="133.587" y="89.992" fill="#CFD7DF" rx="1"/><path stroke="#fff" d="M36.787 119.004s40.82 69.147 65.454 72.258m-51.637-33.569s4.518 3.874 13.553 1.292"/><path fill="#fff" stroke="#75B6F5" stroke-width=".53" d="M160.577 126.59c7.963 0 14.418-6.457 14.418-14.422 0-7.965-6.455-14.422-14.418-14.422-7.963 0-14.418 6.457-14.418 14.422 0 7.965 6.455 14.422 14.418 14.422z"/><path stroke="#273139" stroke-linecap="round" stroke-linejoin="round" stroke-width=".5" d="M131.535 149.256c-6.15-9.161-5.305-20.839-5.253-22.362 1.936 1.149 7.305 2.627 9.358 2.692-2.117 6.152-1.601 9.683-2.117 15.151"/><path fill="#fff" stroke="#273139" stroke-linecap="round" stroke-linejoin="round" stroke-width=".5" d="M147.218 133.601a1.84 1.84 0 100-3.679 1.84 1.84 0 000 3.679z"/><path fill="#273139" d="M145.811 129.914a3.484 3.484 0 002.736-1.62 2.544 2.544 0 00-.361-3.047c-.949-.885-2.433-.743-3.711-.549l-2.53.387a2.49 2.49 0 00-.865.246 1.665 1.665 0 00-.445 2.143c.832 1.672 3.433 2.589 5.176 2.44zm1.413 52.078l7.906 18.844.116.265c.217.525.246 1.108.084 1.653l-6.247 20.49a1.716 1.716 0 01-3.324-.82l4.021-21.007.194 1.937-9.681-17.998a3.872 3.872 0 016.77-3.641c.084.051.116.167.161.277zm-7.706 1.537l-.335 20.981v.271c0 .115-.013.23-.039.342l-5.621 23.951a1.713 1.713 0 01-3.363-.646l3.363-24.37-.045.607-1.62-20.923a3.873 3.873 0 017.66-.594c.007.127.007.254 0 .381z"/><path stroke="#273139" stroke-linecap="round" stroke-linejoin="round" stroke-width=".5" d="M135.117 122.148a4.728 4.728 0 012.646 3.59c-.039-1.627.813-4.448 2.162-5.365"/><path fill="#fff" stroke="#273139" stroke-linecap="round" stroke-linejoin="round" stroke-width=".5" d="M147.018 131.786a6.643 6.643 0 01-4.974 6.426 6.639 6.639 0 01-7.469-3.198.237.237 0 01-.052-.084 6.645 6.645 0 018.179-9.36 6.643 6.643 0 014.316 6.203v.013z"/><path fill="#273139" d="M145.959 128.856a7.376 7.376 0 01-7.37 7.359 7.244 7.244 0 01-4.014-1.201.225.225 0 01-.052-.083 6.641 6.641 0 0111.398-6.805c.026.242.039.486.038.73z"/><path fill="#FF5959" d="M137.266 125.408a6.62 6.62 0 01-1.484 8.754 4.433 4.433 0 003.285-1.291 4.521 4.521 0 00-1.801-7.463z"/><path fill="#273139" d="M139.183 129.313a5.345 5.345 0 01-9.12 3.789 5.345 5.345 0 119.12-3.789z"/><path stroke="#EBEFF3" stroke-linecap="round" stroke-linejoin="round" stroke-width=".5" d="M132.987 204.742a3.333 3.333 0 003.014.768"/><path fill="#273139" d="M129.721 229.752c.988 1.543 2.085 2.395 3.963 2.208 1.633.678 2.382 1.033 4.247.839 1.865-.194 3.607 1.969.845 2.666a17.816 17.816 0 01-4.931.646 2.58 2.58 0 01-1.458-.601 7.546 7.546 0 01-1.291-1.291c-1.168-.678-2.155-1.627-3.427-2.104.704-.794 1.407-1.563 2.052-2.363zm-2.207 2.737c-.135.349-.284.697-.419 1.046 1.291.523 2.439 1.291 3.691 1.84.078-.258.142-.517.207-.781-1.194-.665-2.227-1.543-3.479-2.105z"/><path stroke="#EBEFF3" stroke-linecap="round" stroke-linejoin="round" stroke-width=".5" d="M134.439 233.541a.962.962 0 01.936-.987m.019 1.361a1.111 1.111 0 01.878-1.091m.136 1.163a1.174 1.174 0 01.819-1.181m12.824-30.478a3.35 3.35 0 003.014.768"/><path fill="#273139" d="M144.565 224.503a5.556 5.556 0 005.221.465c1.33 0 2.517 1.291 5.254 1.291 2.736 0 3.194 2.963.703 2.963l-5.079.045a3.225 3.225 0 01-1.529-.361l-1.646-.846-4.105-.245 1.181-3.312z"/><path fill="#273139" d="M143.391 228.215v1.11h4.104v-.858l-4.104-.252z"/><path stroke="#EBEFF3" stroke-linecap="round" stroke-linejoin="round" stroke-width=".5" d="M150.922 226.479a.932.932 0 01.975-1.046m.168 1.452a.92.92 0 01.968-1.046m.2 1.273a.928.928 0 01.974-1.046"/><path fill="#475867" d="M131.871 184.252h15.276a1.078 1.078 0 000-2.149h-15.276a1.077 1.077 0 000 2.149z"/><path fill="#92A2B1" d="M144.83 182.632h-10.926a4.448 4.448 0 01-4.415-4.964l3.814-32.634a6.592 6.592 0 014.679-5.242 6.502 6.502 0 002.388.445 6.591 6.591 0 001.794-.245 6.566 6.566 0 014.157 5.642l2.936 32.143a4.441 4.441 0 01-4.427 4.855z"/><path stroke="#273139" stroke-linecap="round" stroke-linejoin="round" stroke-width=".5" d="M145.14 142.942c9.751-7.373 9.106-7.786 12.1-11.782 1.769 2.143 4.402 5.042 6.164 7.185-1.252.872-9.571 8.735-15.973 11.298m-17.264-21.175c.284-4.08 1.723-10.038 3.123-12.872m-5.918 11.297c1.633-9.683 2.788-12.214 4.079-14.577m1.794 1.156a8.953 8.953 0 012.814-3.744.433.433 0 00-.335-.775A5.861 5.861 0 00131.58 112m2.543 2.943c.308-.38.693-.693 1.129-.916a.31.31 0 00-.096-.594 3.925 3.925 0 00-2.24.297m38.355 11.743a9.175 9.175 0 002.394-4.093c.033-.897-.096-1.543-.542-1.123a24.463 24.463 0 00-2.401 3.06m-.342 1.071a3.416 3.416 0 01.181-1.439.31.31 0 00-.477-.362 4.283 4.283 0 00-1.382 1.937m-6.511 11.278l9.08-10.329m-9.513 6.223c1.633-1.569 3.324-2.912 4.892-4.623a20.236 20.236 0 002.04-2.582m-33.225 36.734a24.934 24.934 0 01-1.11 12.362l-.238-.297m9.157-24.111a35.048 35.048 0 00.775 13.505m-10.513-20.871a18.77 18.77 0 0112.075.31m-5.918-13.906a4.01 4.01 0 01-.646 3.834"/><path stroke="#fff" stroke-linecap="round" stroke-linejoin="round" stroke-width=".5" d="M144.526 128.85a6.506 6.506 0 01-4.227 5.539m-8.506-1.402a3.803 3.803 0 01-.878-6.662"/><path stroke="#273139" stroke-linecap="round" stroke-linejoin="round" stroke-width=".5" d="M147.818 131.322l.774-.775m-1.439 2.667l.775-.781"/><path fill="#273139" d="M133.329 146.983l1.059-12.498-2.401-.387 1.342 12.885z"/><path fill="#C0DEFC" d="M172.807 114.472l-12.107-1.853-2.343-12.911a14.597 14.597 0 0114.45 14.764z"/><path stroke="#92A2B1" stroke-width=".5" d="M102.235 279.841h232.014m8.713 0h70.669m-364.963 0h50.663"/><path stroke="#B1BDC7" stroke-width=".5" d="M368.344 227.202h26.248"/><path fill="#EBEFF3" d="M287.085 217.267l-63.293 14.809a5.028 5.028 0 01-5.957-3.874l-8.177-34.989a5.023 5.023 0 013.627-6.101l63.293-14.803a5.02 5.02 0 015.957 3.874l8.177 34.996a5.017 5.017 0 01-3.627 6.088z"/><path fill="#fff" stroke="#B2E4D9" stroke-width=".5" d="M286.194 215.181l-63.931 11.776a4.925 4.925 0 01-5.731-3.945l-6.261-34.041a4.926 4.926 0 013.95-5.732l63.938-11.769a4.911 4.911 0 015.731 3.944l6.26 34.041a4.906 4.906 0 01-3.956 5.726z"/><path stroke="#CFD7DF" stroke-linecap="round" stroke-linejoin="round" stroke-width="1.585" d="M218.861 191.682l10.959-2.014"/><path stroke="#EBEFF3" stroke-linecap="round" stroke-linejoin="round" stroke-width="1.585" d="M219.939 197.544l55.516-10.245"/><path stroke="#9ACBFA" stroke-linecap="round" stroke-linejoin="round" stroke-width="1.585" d="M219.61 197.609l21.343-3.938"/><path stroke="#CFD7DF" stroke-linecap="round" stroke-linejoin="round" stroke-width="1.585" d="M221.52 206.091l10.965-2.014"/><path stroke="#EBEFF3" stroke-linecap="round" stroke-linejoin="round" stroke-width="1.585" d="M222.605 211.954l55.509-10.252"/><path stroke="#9ACBFA" stroke-linecap="round" stroke-linejoin="round" stroke-width="1.585" d="M222.269 212.011l36.083-6.656"/><path stroke="#131735" stroke-linecap="round" stroke-width=".5" d="M294.448 187.822c-3.007 9.038-5.808 11.943-5.808 11.943"/><path fill="#527FA5" d="M287.091 273.353a3.324 3.324 0 100-6.647 3.324 3.324 0 000 6.647zm.697-19.541a4.131 4.131 0 10-.002-8.262 4.131 4.131 0 00.002 8.262zm4.563-27.508a5.003 5.003 0 10-.002-10.006 5.003 5.003 0 00.002 10.006z"/><path fill="#527FA5" d="M283.748 270.623l-.084-21.207 8.209.536-1.503 20.161-6.622.51z"/><path fill="#527FA5" d="M297.23 222.418l-5.395 27.986-8.106-1.375 3.749-28.844 9.752 2.233zm8.177 51.684a3.324 3.324 0 100-6.647 3.324 3.324 0 000 6.647zm-4.473-19.057a4.131 4.131 0 100-8.264 4.131 4.131 0 000 8.264z"/><path fill="#527FA5" d="M298.166 227.312a5.003 5.003 0 10-.002-10.006 5.003 5.003 0 00.002 10.006zm4.156 44.887l-5.628-21.091 8.003-1.453 3.905 20.374-6.28 2.17z"/><path fill="#527FA5" d="M303.161 222.153l1.897 28.638-8.293.426-3.601-28.76 9.997-.304z"/><path fill="#527FA5" d="M306.033 223.806a9.528 9.528 0 01-.82 2.582 32.739 32.739 0 00-.948 3.138 29.972 29.972 0 00-.342 3.686l-3.686-4.383c-1.413-1.007-2.123-3.538-1.645-6.314.581-3.37 2.878-2.582 4.646-3.718 2.918-1.853 3.382 1.633 2.795 5.009z"/><path stroke="#EBEFF3" stroke-linecap="round" stroke-linejoin="round" stroke-width=".5" d="M303.142 226.053a3.099 3.099 0 01-3.092-.685 3.872 3.872 0 01-1.129-3.227"/><path stroke="#fff" stroke-linecap="round" stroke-linejoin="round" stroke-width=".5" d="M304.484 249.455l-2.762 1.524m3.117 1.252l-2.698-.355"/><path fill="#131735" d="M292.687 223.896s1.548 9.91 2.02 12.525l-1.059 4.118s-1.813-11.969-.961-16.643z"/><path stroke="#fff" stroke-linecap="round" stroke-linejoin="round" stroke-width=".5" d="M292.925 224.032l1.949 14.319"/><path fill="#4BC1A7" d="M309.073 182.774l-2.382-1.685c-.045 1.498-1.503 3.105-3.569 3.822-2.33.8-4.563.155-5.053-1.44l-.994.755a9.046 9.046 0 00-3.072 4.907l-6.286 23.111c-.916 3.37.645 7.063 3.188 7.495l10.017 1.692c2.742.471 5.33-1.937 6.131-5.662l4.982-23.299c.82-3.802-.432-7.908-2.962-9.696z"/><path fill="#fff" d="M295.294 169.14l-.123 8.302v.064c-.045 2.906 2.491 5.294 5.667 5.339 3.175.046 5.776-2.272 5.808-5.164l.148-10.859"/><path stroke="#131735" stroke-linecap="round" stroke-linejoin="round" stroke-width=".535" d="M295.294 169.14l-.123 8.302v.064c-.045 2.906 2.491 5.294 5.667 5.339 3.175.046 5.776-2.272 5.808-5.164l.148-10.859"/><path fill="#FF9D45" d="M292.403 162.251c-.497-.259-1.001.374-.749.949 2.459 5.61 8.035 7.043 12.856 5.364a3.348 3.348 0 001.736-1.136 4.52 4.52 0 00.555-2.969 3.75 3.75 0 00-.794-2.279 2.703 2.703 0 00-2.407-.543c-4.143.562-7.125 2.712-11.197.614z"/><path fill="#FF9D45" d="M305.962 166.448a3.163 3.163 0 011.459-2.124 1.751 1.751 0 012.446.439s1.594 1.749.329 6.185c0 0-.601 3.04-2.459 4.615a.863.863 0 01-1.394-.432 20 20 0 01-.381-8.683z"/><path stroke="#FF9D45" stroke-linecap="round" stroke-linejoin="round" stroke-width=".5" d="M305.981 165.531s1.652-1.007.807-4.287m-.394 4.506s0-1.937 3.227-2.95"/><path fill="#fff" stroke="#131735" stroke-linecap="round" stroke-linejoin="round" stroke-width=".5" d="M297.607 174.047c.027-1.875-1.278-3.414-2.914-3.437-1.636-.024-2.983 1.478-3.01 3.353-.026 1.875 1.278 3.414 2.914 3.437 1.636.023 2.984-1.478 3.01-3.353zm6.534.092c.026-1.876-1.279-3.414-2.914-3.438-1.636-.023-2.984 1.479-3.01 3.354-.027 1.875 1.278 3.414 2.914 3.437 1.635.023 2.983-1.478 3.01-3.353z"/><path fill="#fff" d="M297.624 174.058s.49-1.033.613 0h-.613z"/><path stroke="#131735" stroke-linecap="round" stroke-linejoin="round" stroke-width=".5" d="M297.624 174.058s.49-1.033.613 0"/><path fill="#fff" d="M292.809 171.38l3.169 5.668-3.169-5.668z"/><path stroke="#131735" stroke-linecap="round" stroke-linejoin="round" stroke-width=".5" d="M292.809 171.38l3.169 5.668"/><path fill="#fff" d="M293.667 170.824l2.343 3.996-2.343-3.996z"/><path stroke="#131735" stroke-linecap="round" stroke-linejoin="round" stroke-width=".5" d="M293.667 170.824l2.343 3.996"/><path fill="#fff" d="M299.611 171.477l3.169 5.668-3.169-5.668z"/><path stroke="#131735" stroke-linecap="round" stroke-linejoin="round" stroke-width=".5" d="M299.611 171.477l3.169 5.668"/><path fill="#fff" d="M300.47 170.921l2.343 3.996-2.343-3.996z"/><path stroke="#131735" stroke-linecap="round" stroke-linejoin="round" stroke-width=".5" d="M300.47 170.921l2.343 3.996"/><path fill="#fff" d="M304.136 173.684l2.742.039-2.742-.039z"/><path stroke="#131735" stroke-linecap="round" stroke-linejoin="round" stroke-width=".5" d="M304.136 173.684l2.742.039m-22.175 42.82a4.21 4.21 0 00-3.124-.245m2.059.872s-2.626-.503-4.517.833a2.11 2.11 0 00-.743 3.008s1.762 3.486 6.777 1.659"/><path stroke="#131735" stroke-linecap="round" stroke-width=".5" d="M305.104 192.199l-3.447 14.235-16.573 9.316"/><path stroke="#131735" stroke-linecap="round" stroke-width=".5" d="M288.259 220.972l15.102-7.747c1.433-.381 4.008-2.582 5.021-5.403l2.956-13.357m-26.461 21.452s2.485 3.131 2.304 5.565"/><path stroke="#131735" stroke-linecap="round" stroke-linejoin="round" stroke-width=".5" d="M283.283 274.006s-4.563 1.711-6.55 4.073c0 0 5.808 1.395 14.198-.516a5.617 5.617 0 00-1.362-3.396 5.632 5.632 0 01-6.286-.161z" clip-rule="evenodd"/><path stroke="#131735" stroke-linecap="round" stroke-linejoin="round" stroke-width=".5" d="M276.733 278.079s-.517-.065-.575.316a.408.408 0 00.336.459s2.297.884 7.448.51a32.833 32.833 0 007.389-1.079s.213 0 .123-.432c-.091-.433-.536-.291-.536-.291"/><path stroke="#131735" stroke-linecap="round" stroke-linejoin="round" stroke-width=".5" d="M301.993 274.161s-4.563 1.659-6.564 3.996c0 0 5.809 1.446 14.147-.381a5.568 5.568 0 00-1.329-3.402 5.62 5.62 0 01-6.254-.213z" clip-rule="evenodd"/><path stroke="#131735" stroke-linecap="round" stroke-linejoin="round" stroke-width=".5" d="M295.468 278.169s-.51-.071-.568.33a.44.44 0 00.329.497s2.253.962 7.319.645a29.887 29.887 0 007.26-1.033s.207 0 .129-.451a.41.41 0 00-.529-.317"/><path fill="#131735" d="M304.994 192.283s-1.207 4.913-3.337 14.041l-4.246 2.318s3.549-2.705 7.583-16.359z"/></svg>