<svg xmlns="http://www.w3.org/2000/svg" width="16" height="16" viewBox="0 0 16 16" fill="none">
<rect width="16" height="16" transform="matrix(-1 0 0 -1 16 16)" fill="var(--color-text-inverse)" fill-opacity="0.01"/>
<path fill-rule="evenodd" clip-rule="evenodd" d="M11.4 0.96875L4.6 0.96875C3.17 0.96875 2 2.13875 2 3.56875L2 12.3687C2 13.7987 3.17 14.9687 4.6 14.9687L11.4 14.9688C12.83 14.9688 14 13.7987 14 12.3687L14 3.56875C14 2.13875 12.83 0.96875 11.4 0.96875ZM12.8 12.3687C12.8 13.1387 12.17 13.7687 11.4 13.7687L4.6 13.7687C3.83 13.7687 3.2 13.1387 3.2 12.3687L3.2 3.56875C3.2 2.79875 3.83 2.16875 4.6 2.16875L11.4 2.16875C12.17 2.16875 12.8 2.79875 12.8 3.56875L12.8 12.3687ZM10.19 10.5387H5.79998C5.46998 10.5387 5.19998 10.8087 5.19998 11.1387C5.19998 11.4687 5.46998 11.7387 5.79998 11.7387H10.19C10.52 11.7387 10.79 11.4687 10.79 11.1387C10.79 10.8087 10.52 10.5387 10.19 10.5387ZM5.79998 7.34875H10.19C10.52 7.34875 10.79 7.61875 10.79 7.94875C10.79 8.27875 10.52 8.54875 10.19 8.54875H5.79998C5.46998 8.54875 5.19998 8.27875 5.19998 7.94875C5.19998 7.61875 5.46998 7.34875 5.79998 7.34875ZM10.19 4.15875L5.79998 4.15875C5.46998 4.15875 5.19998 4.42875 5.19998 4.75875C5.19998 5.08875 5.46998 5.35875 5.79998 5.35875L10.19 5.35875C10.52 5.35875 10.79 5.08875 10.79 4.75875C10.79 4.42875 10.52 4.15875 10.19 4.15875Z" fill="var(--color-text-secondary)"/>
</svg>