<svg width="20" height="20" viewBox="0 0 20 20" fill="none" xmlns="http://www.w3.org/2000/svg">
<rect width="20" height="20" fill="white" fill-opacity="0.01"/>
<path fill-rule="evenodd" clip-rule="evenodd" d="M4.5 1.25H15.5C17.2875 1.25 18.75 2.7125 18.75 4.5V15.5C18.75 17.2875 17.2875 18.75 15.5 18.75H4.5C2.7125 18.75 1.25 17.2875 1.25 15.5V4.5C1.25 2.7125 2.7125 1.25 4.5 1.25ZM15.5 17.25C16.4625 17.25 17.25 16.4625 17.25 15.5V6.4875H2.75V15.5C2.75 16.4625 3.5375 17.25 4.5 17.25H15.5ZM2.75 4.9875H17.25V4.5C17.25 3.5375 16.4625 2.75 15.5 2.75H4.5C3.5375 2.75 2.75 3.5375 2.75 4.5V4.9875ZM6.02496 10.4502H13.8875C14.3 10.4502 14.6375 10.1127 14.6375 9.7002C14.6375 9.2877 14.3 8.9502 13.8875 8.9502H6.02496C5.61246 8.9502 5.27496 9.2877 5.27496 9.7002C5.27496 10.1127 5.61246 10.4502 6.02496 10.4502ZM6.02496 14.3876H11.7625C12.175 14.3876 12.5125 14.0501 12.5125 13.6376C12.5125 13.2251 12.175 12.8876 11.7625 12.8876H6.02496C5.61246 12.8876 5.27496 13.2251 5.27496 13.6376C5.27496 14.0501 5.61246 14.3876 6.02496 14.3876Z" fill="#264966"/>
</svg>
