<svg width="19" height="18" viewBox="0 0 19 18" fill="none" xmlns="http://www.w3.org/2000/svg">
<path d="M13.3363 1.02485C10.992 1.02485 9.60861 2.10173 9.60861 2.10173C9.60861 2.10173 8.22523 1.02485 5.88094 1.02485C4.11651 1.02485 1.94618 1 1.6811 1C1.66453 1 1.65625 1.01657 1.65625 1.02485V12.6303C1.65625 12.6469 1.66453 12.6552 1.67282 12.6552C1.9379 12.6552 4.65495 12.6386 5.88094 12.6552C6.6099 12.6635 7.67022 12.6717 9.44293 13.5912C9.54234 13.6409 9.67487 13.6492 9.78256 13.5912C11.8286 12.564 12.6073 12.6552 13.3446 12.6469H17.5444C17.561 12.6469 17.5775 12.6303 17.5775 12.6138V1.02485C17.5775 1.00828 17.5692 1 17.5527 1L13.3363 1.02485Z" stroke="#12344D" stroke-width="1.5097" stroke-miterlimit="10"/>
<path d="M9.60742 13.1116V2.10254" stroke="#12344D" stroke-width="1.5097" stroke-miterlimit="10" stroke-linecap="round"/>
<path d="M9.7731 13.5995C11.8192 12.5723 12.5978 12.6635 13.3351 12.6552H17.5763V10.9124V2.99323V1L13.3351 1.02485C10.9908 1.02485 9.60742 2.10173 9.60742 2.10173" stroke="#12344D" stroke-width="1.5097" stroke-miterlimit="10" stroke-linecap="round"/>
<path d="M2.71484 15.4302H5.46503C6.73244 15.4302 8.3312 15.8443 9.58203 16.9875C9.5986 17.0041 9.62345 17.0041 9.64002 16.9875C10.3524 16.2834 11.9015 15.455 13.5499 15.4219H16.4989" stroke="#12344D" stroke-width="1.5097" stroke-miterlimit="10" stroke-linecap="round"/>
</svg>
