<svg xmlns="http://www.w3.org/2000/svg" width="16" height="16" viewBox="0 0 16 16" fill="none">
<path d="M6.68825 12.1389H3.729V10.2944C3.729 8.25627 5.37981 6.60547 7.41795 6.60547C8.47874 6.60547 9.43461 7.05265 10.1074 7.76888" stroke="var(--color-text-secondary)" stroke-width="1.2" stroke-linecap="round" stroke-linejoin="round"/>
<path d="M7.41462 6.54066C8.65231 6.54066 9.65565 5.53732 9.65565 4.29963C9.65565 3.06194 8.65231 2.05859 7.41462 2.05859C6.17693 2.05859 5.17358 3.06194 5.17358 4.29963C5.17358 5.53732 6.17693 6.54066 7.41462 6.54066Z" stroke="var(--color-text-secondary)" stroke-width="1.2" stroke-linecap="round" stroke-linejoin="round"/>
<path d="M8.625 10.084H12.2672M12.2672 10.084L11.2926 9.10938M12.2672 10.084L11.2926 11.0587" stroke="var(--color-text-secondary)" stroke-width="1.2" stroke-linecap="round" stroke-linejoin="round"/>
<path d="M12.2708 12.9707L8.62852 12.9707M8.62852 12.9707L9.60317 13.9453M8.62852 12.9707L9.60317 11.996" stroke="var(--color-text-secondary)" stroke-width="1.2" stroke-linecap="round" stroke-linejoin="round"/>
</svg>