<svg width="24" height="24" viewBox="0 0 24 24" fill="none" xmlns="http://www.w3.org/2000/svg">
<path fill-rule="evenodd" clip-rule="evenodd" d="M19.51 14.71C20.1497 12.9737 20.1497 11.0663 19.51 9.33C18.3827 6.14615 15.3774 4.01322 12 4C8.62914 4.00295 5.62182 6.11848 4.47995 9.29C3.85304 11.0285 3.85304 12.9315 4.47995 14.67C5.6084 17.8573 8.6188 19.991 12 20C15.3671 19.9928 18.3693 17.8781 19.51 14.71ZM10.08 15.13H13.92C13.4986 16.3075 12.8458 17.3888 12 18.31C11.1541 17.3888 10.5013 16.3075 10.08 15.13ZM9.69995 13.73C9.59095 13.1598 9.53737 12.5805 9.53995 12C9.53737 11.4195 9.59095 10.8402 9.69995 10.27H14.3C14.409 10.8402 14.4625 11.4195 14.46 12C14.4625 12.5805 14.409 13.1598 14.3 13.73H9.69995ZM5.39995 12C5.4026 11.4152 5.48332 10.8334 5.63995 10.27H8.28995C8.19407 10.8418 8.14391 11.4203 8.13995 12C8.14391 12.5797 8.19407 13.1582 8.28995 13.73H5.63995C5.48332 13.1666 5.4026 12.5848 5.39995 12ZM12 5.69C12.8458 6.61124 13.4986 7.69249 13.92 8.87H10.08C10.5013 7.69249 11.1541 6.61124 12 5.69ZM15.71 10.27H18.36C18.6797 11.4012 18.6797 12.5988 18.36 13.73H15.71C15.8058 13.1582 15.856 12.5797 15.86 12C15.856 11.4203 15.8058 10.8418 15.71 10.27ZM17.8 8.87H15.4C15.0405 7.71116 14.4859 6.62218 13.76 5.65C15.4887 6.12874 16.9477 7.29154 17.8 8.87ZM10.24 5.65C9.51402 6.62218 8.95939 7.71116 8.59995 8.87H6.18995C7.04634 7.29094 8.5085 6.12843 10.24 5.65ZM6.18995 15.13H8.59995C8.95939 16.2888 9.51402 17.3778 10.24 18.35C8.5085 17.8716 7.04634 16.7091 6.18995 15.13ZM13.76 18.35C14.4859 17.3778 15.0405 16.2888 15.4 15.13H17.8C16.9477 16.7085 15.4887 17.8713 13.76 18.35Z" fill="#12344D"/>
</svg>
