<svg width="18" height="18" viewBox="0 0 18 18" fill="none" xmlns="http://www.w3.org/2000/svg">
<rect width="18" height="18" fill="white" fill-opacity="0.01"/>
<path d="M15.0863 4.47744H12.915V3.39744C12.915 2.15994 11.9137 1.15869 10.6875 1.15869H7.5825C6.35625 1.15869 5.355 2.15994 5.355 3.39744V4.47744H2.925C1.935 4.47744 1.125 5.28744 1.125 6.27744V8.83119C1.125 9.53994 1.54125 10.1474 2.1375 10.4399V15.0974C2.1375 16.0874 2.9475 16.8974 3.9375 16.8974H14.0962C15.0863 16.8974 15.8962 16.0874 15.8962 15.0974V10.4287C16.4812 10.1249 16.875 9.52869 16.875 8.83119V6.27744C16.875 5.28744 16.065 4.47744 15.075 4.47744H15.0863ZM6.71625 3.39744C6.71625 2.90244 7.11 2.50869 7.59375 2.50869H10.6988C11.1825 2.50869 11.5763 2.90244 11.5763 3.39744V4.47744H6.7275V3.39744H6.71625ZM2.48625 6.27744C2.48625 6.02994 2.68875 5.82744 2.93625 5.82744H15.0863C15.3337 5.82744 15.5363 6.02994 15.5363 6.27744V8.83119C15.5363 9.07869 15.3337 9.28119 15.0863 9.28119H9.675V8.75244C9.675 8.38119 9.37125 8.07744 9 8.07744C8.62875 8.07744 8.325 8.38119 8.325 8.75244V9.28119H2.93625C2.68875 9.28119 2.48625 9.07869 2.48625 8.83119V6.27744ZM14.1075 15.5587H3.9375C3.69 15.5587 3.4875 15.3562 3.4875 15.1087V10.6424H8.325V11.1712C8.325 11.5424 8.62875 11.8462 9 11.8462C9.37125 11.8462 9.675 11.5424 9.675 11.1712V10.6424H14.5463V15.1087C14.5463 15.3562 14.3438 15.5587 14.0962 15.5587H14.1075Z" fill="#264966"/>
</svg>
