<svg width="32" height="32" viewBox="0 0 32 32" fill="none" xmlns="http://www.w3.org/2000/svg">
<path d="M3.40039 29.6001H26.5004C28.2004 29.6001 29.5004 28.3001 29.5004 26.6001V3.6001" stroke="#363D42" stroke-width="0.875" stroke-linecap="round" stroke-linejoin="round"/>
<path d="M3.30039 2.3999H25.7004C26.2004 2.3999 26.6004 2.7999 26.6004 3.2999V25.6999C26.6004 26.1999 26.2004 26.5999 25.7004 26.5999H3.30039C2.80039 26.5999 2.40039 26.1999 2.40039 25.6999V3.2999C2.40039 2.7999 2.80039 2.3999 3.30039 2.3999Z" stroke="#363D42" stroke-width="0.875" stroke-linecap="round" stroke-linejoin="round"/>
<path d="M15.7 8H6V10.5H15.7V8Z" fill="#448EE1" fill-opacity="0.3" stroke="#448EE1" stroke-width="0.875" stroke-linecap="round" stroke-linejoin="round"/>
<path d="M15.7 13.1997H6V15.6997H15.7V13.1997Z" fill="#448EE1" fill-opacity="0.3" stroke="#448EE1" stroke-width="0.875" stroke-linecap="round" stroke-linejoin="round"/>
<path d="M22 18.3999H6V20.8999H22V18.3999Z" fill="#448EE1" fill-opacity="0.3" stroke="#448EE1" stroke-width="0.875" stroke-linecap="round" stroke-linejoin="round"/>
</svg>
