<svg xmlns="http://www.w3.org/2000/svg" width="30" height="30" fill="none" xmlns:v="https://vecta.io/nano"><style><![CDATA[.B{stroke-width:.875}.C{stroke-linejoin:round}.D{stroke-linecap:round}]]></style><path d="M2.25 2.25h17.625m2.156 0h5.344M2.25 5.531h19.031" stroke="#363d42" class="B C D"/><path d="M3.094 9.844h13.875a.84.84 0 0 1 .844.844v2.438a.84.84 0 0 1-.844.844H3.094a.84.84 0 0 1-.844-.844v-2.437a.84.84 0 0 1 .844-.844zm0 6.937h13.875a.84.84 0 0 1 .844.844v2.438a.84.84 0 0 1-.844.844H3.094a.84.84 0 0 1-.844-.844v-2.437c0-.562.375-.844.844-.844z" fill-opacity=".3" fill="#ae64ce" stroke="#ae64ce" class="B C"/><g stroke="#363d42" class="D B C"><path d="M23.625 11.625v7.406m-.75-.75l.75.75.844-.75"/><path d="M24.469 12.469l-.844-.844-.75.844m4.5 2.906h-7.406"/><path d="M20.719 14.531l-.75.844.75.75m5.906 0l.75-.75-.75-.844"/></g><path d="M3.094 23.625h23.813a.84.84 0 0 1 .844.844v2.438a.84.84 0 0 1-.844.844H3.094a.84.84 0 0 1-.844-.844v-2.437a.84.84 0 0 1 .844-.844z" fill="#ae64ce" fill-opacity=".3" stroke="#ae64ce" class="B C"/></svg>