<svg width="18" height="18" viewBox="0 0 18 18"  fill="#264966" xmlns="http://www.w3.org/2000/svg">
<rect width="18" height="18" fill="white" fill-opacity="0.01"/>
<path fill-rule="evenodd" clip-rule="evenodd" d="M16.875 7.2C16.875 7.57125 16.5712 7.875 16.2 7.875H16.2113C15.6038 7.875 15.1088 8.38125 15.1088 9.01125C15.1088 9.64125 15.6038 10.1475 16.2113 10.1475C16.5825 10.1475 16.8863 10.4513 16.8863 10.8225V12.3975C16.8863 13.635 15.885 14.6475 14.6587 14.6475H3.3525C2.12625 14.6475 1.125 13.635 1.125 12.3975V10.8225C1.125 10.4513 1.42875 10.1475 1.8 10.1475C2.4075 10.1475 2.9025 9.64125 2.9025 9.01125C2.9025 8.38125 2.4075 7.875 1.8 7.875C1.42875 7.875 1.125 7.57125 1.125 7.2V5.625C1.125 4.3875 2.12625 3.375 3.3525 3.375H14.6475C15.8738 3.375 16.875 4.3875 16.875 5.625V7.2ZM15.525 12.3863V11.3962H15.5363C14.5125 11.1037 13.7587 10.1363 13.7587 9.01125C13.7587 7.88625 14.5125 6.91875 15.5363 6.62625V5.63625C15.5363 5.14125 15.1425 4.73625 14.6587 4.73625H3.3525C2.86875 4.73625 2.475 5.14125 2.475 5.63625V6.62625C3.49875 6.91875 4.2525 7.88625 4.2525 9.01125C4.2525 10.1363 3.49875 11.1037 2.475 11.3962V12.3863C2.475 12.8812 2.86875 13.2863 3.3525 13.2863H14.6475C15.1313 13.2863 15.525 12.8812 15.525 12.3863ZM7.19999 8.32489H10.8225C11.1937 8.32489 11.4975 8.62864 11.4975 8.99989C11.4975 9.37114 11.1937 9.67489 10.8225 9.67489H7.19999C6.82874 9.67489 6.52499 9.37114 6.52499 8.99989C6.52499 8.62864 6.82874 8.32489 7.19999 8.32489Z"/>
</svg>
