<svg xmlns="http://www.w3.org/2000/svg" width="25" height="24" fill="none" viewBox="0 0 25 24"><path fill="#92A2B1" fill-rule="evenodd" d="M8.437 1.415c.218-.349.674-.507 1.12-.363l2.264.85c.449.178.944.198 1.375-.007l2.248-.843c.445-.144.9.014 1.119.363l.003.006 1.282 1.994a.51.51 0 00.02.03c.265.353.64.649 1.131.754l2.33.706a.492.492 0 00.036.01c.369.081.67.478.677.923L21.9 8.243v.03c0 .414.08.892.384 1.296a.45.45 0 00.011.014l1.496 1.852.009.011a.897.897 0 010 1.13l-.01.011-1.495 1.852-.011.014c-.253.338-.475.823-.382 1.357l.14 2.374c-.006.445-.309.842-.677.924a.486.486 0 00-.023.005l-2.335.637c-.494.104-.872.401-1.139.756a.503.503 0 00-.02.03l-1.282 1.994-.003.005c-.218.35-.674.508-1.12.363l-2.264-.849c-.449-.178-.944-.198-1.375.007l-2.248.842c-.445.145-.9-.014-1.119-.363l-.003-.005-1.282-1.994a.495.495 0 00-.02-.03c-.267-.355-.645-.652-1.139-.756l-2.335-.637a.46.46 0 00-.023-.005c-.368-.082-.67-.479-.676-.924L3.1 15.78a.5.5 0 000-.03c0-.414-.08-.892-.384-1.296a.525.525 0 00-.011-.014l-1.496-1.852-.009-.011a.897.897 0 010-1.13l.01-.011 1.495-1.852a.484.484 0 00.011-.014c.252-.336.472-.818.384-1.35l-.07-2.375c.003-.447.306-.847.676-.93a.508.508 0 00.023-.005l2.35-.641a.5.5 0 00.093-.035c.154-.078.344-.182.521-.315.166-.124.35-.296.472-.523l1.269-1.974.003-.006zM9.881.106C9.048-.17 8.084.096 7.59.883L6.31 2.874a.644.644 0 01-.218.244c-.096.073-.21.139-.326.199l-2.29.624c-.902.208-1.447 1.082-1.447 1.91v.014L2.1 8.287a.5.5 0 00.01.083c.032.161-.026.371-.19.592l-1.485 1.84a1.897 1.897 0 000 2.419l1.485 1.838c.119.163.178.39.18.677l-.142 2.406v.03c0 .827.545 1.701 1.447 1.909l2.34.638a.48.48 0 00.033.008c.204.04.387.163.542.366l1.27 1.975c.493.786 1.457 1.054 2.29.776l.008-.002.01-.004 2.278-.854a.489.489 0 00.048-.021c.131-.066.335-.085.588.017l.01.004 2.279.854a.604.604 0 00.017.006c.833.278 1.797.01 2.29-.776l1.27-1.975c.155-.203.338-.325.542-.366a.48.48 0 00.034-.008l2.34-.638c.901-.208 1.447-1.082 1.447-1.91l-.001-.03-.143-2.42a.496.496 0 00-.009-.07c-.032-.16.026-.37.19-.591l1.485-1.84a1.896 1.896 0 000-2.419L23.08 8.963c-.119-.163-.178-.39-.18-.677l.142-2.406v-.029c0-.826-.542-1.698-1.44-1.908l-2.333-.707a.5.5 0 00-.047-.012c-.204-.04-.387-.164-.542-.366L17.409.883c-.493-.787-1.457-1.054-2.29-.777a.56.56 0 00-.017.007l-2.279.854a.494.494 0 00-.048.021c-.131.066-.335.084-.588-.017l-.01-.004L9.898.113a.49.49 0 00-.017-.007zm-3.504 11.87a6.123 6.123 0 1112.246 0 6.123 6.123 0 01-12.246 0zM12.5 4.851a7.123 7.123 0 100 14.246 7.123 7.123 0 000-14.246z" clip-rule="evenodd"/></svg>