<svg xmlns="http://www.w3.org/2000/svg" width="26" height="25" fill="none" viewBox="0 0 26 25"><path fill="#2C5CC5" fill-rule="evenodd" d="M9.99 1.742c-.367-.118-.72.019-.883.28l-.005.008-1.265 1.967c-.14.26-.348.45-.524.582-.19.143-.393.253-.552.333a.7.7 0 01-.129.05l-2.35.64a.703.703 0 01-.032.008c-.263.059-.517.363-.52.733L3.799 8.7c.095.6-.155 1.131-.423 1.489a.695.695 0 01-.016.02L1.865 12.06l-.013.016a.698.698 0 000 .87l.013.015 1.495 1.852a.69.69 0 01.016.02c.339.451.425.978.425 1.416 0 .014 0 .028-.002.042l-.14 2.397c.007.366.259.666.52.724l.032.008 2.33.635c.548.117.963.448 1.25.83l.03.042 1.281 1.994.005.008c.163.261.516.398.883.28l2.236-.838c.488-.23 1.038-.201 1.525-.009l2.258.847c.368.118.72-.019.884-.28l.005-.008 1.282-1.994a.697.697 0 01.028-.041c.288-.383.703-.713 1.252-.83l2.329-.636a.667.667 0 01.032-.008c.261-.058.512-.358.52-.724l-.138-2.355c-.1-.605.151-1.141.42-1.5a.747.747 0 01.016-.02l1.496-1.852.013-.016a.698.698 0 000-.87l-.013-.015-1.496-1.851a.752.752 0 01-.015-.02c-.34-.452-.425-.98-.425-1.417l.001-.041.141-2.398c-.008-.366-.259-.666-.52-.724a.703.703 0 01-.05-.013l-2.322-.703c-.544-.12-.955-.448-1.24-.829a.7.7 0 01-.03-.041l-1.28-1.993-.005-.008c-.163-.261-.516-.398-.884-.28l-2.235.838c-.488.23-1.039.201-1.525.009l-2.26-.847zm-2.068-.466C8.47.403 9.535.114 10.444.417a.637.637 0 01.024.009l2.28.854.013.006c.212.085.355.059.424.024a.7.7 0 01.067-.03l2.28-.854a.704.704 0 01.024-.009c.909-.303 1.973-.014 2.522.859l1.264 1.967c.132.169.273.256.418.285a.8.8 0 01.066.017l2.328.705c1 .238 1.587 1.202 1.587 2.101v.041l-.142 2.4c.003.257.056.434.139.55l1.48 1.832a2.097 2.097 0 010 2.675l-1.48 1.833c-.145.195-.17.347-.153.431a.69.69 0 01.013.096l.142 2.422.001.04c0 .904-.592 1.87-1.598 2.104l-2.336.637a.626.626 0 01-.047.012c-.145.029-.286.116-.418.285l-1.265 1.967c-.548.873-1.612 1.162-2.521.859a.706.706 0 01-.024-.009l-2.28-.854-.014-.006c-.211-.085-.354-.059-.424-.024a.69.69 0 01-.067.03l-2.279.854-.012.005-.012.004c-.91.303-1.974.014-2.522-.859L6.658 21.71c-.132-.169-.274-.256-.419-.285a.63.63 0 01-.047-.012l-2.335-.637c-1.006-.233-1.599-1.2-1.599-2.103l.001-.041.142-2.4c-.003-.257-.056-.434-.14-.55L.782 13.85a2.097 2.097 0 010-2.675l1.482-1.833c.143-.195.168-.347.151-.431a.7.7 0 01-.013-.117L2.33 6.372v-.02c0-.904.592-1.87 1.598-2.104l2.266-.618c.103-.054.2-.111.279-.171a.783.783 0 00.103-.09.211.211 0 00.03-.037.7.7 0 01.036-.065l1.28-1.991zM13 6.553a5.923 5.923 0 100 11.846 5.923 5.923 0 000-11.846zm-7.323 5.923a7.323 7.323 0 1114.646 0 7.323 7.323 0 01-14.646 0zm6.369 2.297a.526.526 0 00.202.037.525.525 0 00.338-.15l3.263-3.255a.516.516 0 000-.75.533.533 0 00-.75 0l-2.85 2.888-1.344-1.328a.53.53 0 10-.75.75l1.718 1.695c.05.049.108.087.173.113z" clip-rule="evenodd"/></svg>