<svg xmlns="http://www.w3.org/2000/svg" fill="none" viewBox="0 0 129 108">
  <g clip-path="url(#a)">
    <path
      d="M65.409 100.81c28 0 50.69-22.57 50.69-50.4S93.399 0 65.409 0s-50.7 22.57-50.7 50.4c-.003 27.83 22.697 50.4 50.687 50.4l.01.01Z"
      fill="#BEC6D2"
      opacity=".2"
    />
    <path
      d="M1.2 107.26h126.59"
      stroke="#91A1B0"
      stroke-linecap="round"
      stroke-linejoin="round"
      stroke-width="1.2"
    />
    <path
      d="M65.409 30.76V24.6c0-1.82-1.48-3.3-3.3-3.3H39.606c-1.82 0-3.3 1.48-3.3 3.3v22.5a3.302 3.302 0 0 0 3.299 3.3h6.16a5.09 5.09 0 1 1 10.18 0h9.46v-9.46c2.809 0 5.089-2.28 5.089-5.09a5.093 5.093 0 0 0-5.09-5.09Zm19.64 19.64c0-2.81-2.28-5.09-5.09-5.09s-5.09 2.28-5.09 5.09h-9.46v9.46c-2.81 0-5.09 2.28-5.09 5.09s2.28 5.09 5.09 5.09v6.16c0 1.82 1.48 3.3 3.3 3.3h22.5c1.82 0 3.3-1.48 3.3-3.3V53.7c0-1.82-1.48-3.3-3.3-3.3h-6.16Z"
      fill="#fff"
      stroke="#91A1B0"
      stroke-linecap="round"
      stroke-linejoin="round"
      stroke-width="1.2"
    />
    <path
      d="M65.41 24.6v6.16c2.81 0 5.09 2.28 5.09 5.09s-2.28 5.09-5.09 5.09v9.46h9.46c0-2.81 2.28-5.09 5.09-5.09s5.09 2.28 5.09 5.09h6.16c1.82 0 3.3-1.48 3.3-3.3V24.6c0-1.82-1.48-3.3-3.3-3.3h-22.5c-1.82 0-3.3 1.48-3.3 3.3Zm-5.09 40.36c0-2.81 2.28-5.09 5.09-5.09v-9.46h-9.46a5.091 5.091 0 0 0-10.18 0h-6.161c-1.82 0-3.3 1.48-3.3 3.3v22.5a3.302 3.302 0 0 0 3.297 3.3h22.5c1.82 0 3.3-1.48 3.3-3.3v-6.16c-2.81 0-5.09-2.28-5.09-5.09Z"
      fill="#fff"
      stroke="#91A1B0"
      stroke-linecap="round"
      stroke-linejoin="round"
      stroke-width="1.2"
    />
  </g>
  <defs>
    <clipPath id="a">
      <path d="M.61 0h127.78v107.86H.61z" fill="#fff" />
    </clipPath>
  </defs>
</svg>
