<svg xmlns="http://www.w3.org/2000/svg" viewBox="0 0 20 20"><g fill="#12264f"><path d="M18.9 9.8l-.2-1-.8-3.4c0-.2-.1-.2-.2-.4-.2-.2-.3-.4-.6-.6l-3.4-1.6c-.2-.1-.4-.1-.6-.1s-.4.1-.6.2l-.4.2c-1.3-.6-2.9-.6-4.3 0l-.4-.2c-.2-.1-.4-.1-.6-.1s-.5 0-.6.1L2.8 4.4c-.3.3-.6.6-.7 1l-1 4.4c0 .1-.1.2-.1.3v.3c.1.2.2.4.3.5l.2.3c.1.2.2.3.5.4.2.1.4.2.6.2.3 0 .6-.1.8-.3l.4-.3c.1-.1.2-.3.2-.4l.2.9.4 1.6v2.1c0 .1-.1.2-.1.2-.1.2-.2.4-.2.6 0 .3 0 .7.2 1h.2c1.7 1 3.6 1.6 5.6 1.6 1.8.1 3.5-.4 5-1.3v-.2c0-.2.1-.6 0-1.1V16c0-.2-.1-.6-.2-.8V13l.6-2.4.1.1c0 .1 0 .1.1.2l.2.2.4.3c.2.2.5.3.8.3.2 0 .4-.1.6-.2s.3-.2.5-.3l.2-.3c.2-.2.2-.3.3-.5v-.3-.3zm-4.4 3.5c-.1.2-.2.2-.2.4-.2.2-.3.4-.6.5l-.1.1c.1-.2.2-.4.2-.6.1-.2.1-.4 0-.6s-.2-.4-.4-.5l-2-1.1c-.1-.2-.2-.2-.3-.3-.2-.1-.3-.2-.5-.2H9.3c-.2 0-.3 0-.5.2l-.2.2-2.2 1.3c-.2-.1-.3.1-.4.3s-.1.4 0 .6.2.6.2.8l-.2-.1c-.2-.2-.4-.3-.6-.5s-.2-.5-.3-.7l-.5-1.8c.2.2.6.5.9.6h.8c.6 0 1.1-.2 1.6-.6.2-.2.4-.3.6-.5.3 0 .5-.1.5-.3l.1-.4c.4-.5.7-1.2.9-1.9h.2v.1l.6 2.2c.1.1.1.2.2.2.1.1.2.1.3.2h3.5c.2 0 .2-.1.3-.1l-.4 2-.1.2c0 .1 0 .1-.1.2v.1zM7 14.4c-.2-.3-.3-.7-.4-1.1v-.2s0-.1.1-.1.1 0 .1-.1l1.6-.9c0 .1.1.2.2.2l.7 1.2c.1.2.2.2.3.3.1 0 .1.1.2.1V15c-.3.2-.6.2-.9.2h-.2s0-.1-.1-.1h-.2c-.2 0-.3-.1-.5-.1-.4-.1-.6-.3-.9-.6zm2.8 1.1l.8.2c-.2.1-.4.1-.6.1s-.5-.1-.7-.2zm1.3-.2c-.3 0-.6-.1-.9-.2v-1.2c.1 0 .1-.1.2-.1.2-.1.2-.2.3-.3l.7-1.2c.1-.1.1-.2.2-.2l1.6.8c.1.1.2.3.1.4-.1.4-.2.8-.4 1.1s-.5.6-.8.8c-.3 0-.6.1-1 .1zm-7.4-5.1c0 .2-.1.3-.2.4l-.5.3c-.1.1-.2.1-.3.2h-.2s-.2 0-.2-.1-.2-.1-.2-.2l-.3-.3-.2-.2v-.2c0-.1 0-.1.1-.2l1-4.5c.1-.2.2-.4.4-.4l3.4-1.7h.6C5.9 4.2 5 6.1 4.4 7.4c-.1 0-.2 0-.2.1v.2c0 .1 0 .2.1.2-.2.5-.3.8-.3.9V9c-.2.5-.3.9-.3 1.2zm5-.5c-.1.1-.2.3-.3.4H5.1l-.3-1.7L5 8h4.2zm-.9 1.1c-.6.5-1.2.6-1.7.3-.2-.1-.3-.2-.5-.3zm1.8-3.3h-.2c-.1-.1-.1-.1-.2-.1h-4C5.7 6 6.5 4.6 7.6 3.9c.2.3.4.6.8.8.6.4 1 .9 1.2 1.6zm3.8-4.1l3.4 1.7c.2 0 .3.2.4.4l1 4.5s0 .1.1.2v.1s-.1.2-.2.2l-.3.2c-.1.1-.1.2-.2.2 0 .1-.1.1-.2.1h-.2c-.1 0-.2-.1-.2-.2l-.5-.3c-.1-.1-.2-.2-.2-.4-.1-.2-.1-.4-.2-.7 0-.1 0-.2-.1-.2 0-.3-.2-.8-.3-1.2 0-.1.1-.2 0-.2 0-.1.1-.1.1-.2s0-.2-.1-.2c-.1-.1-.2-.1-.2-.1-.6-1.3-1.4-2.9-2.6-3.9zM15 8l-.2 2.1h-3.4l-.6-2.2zm-.2 7.7c0 .1.1.2.1.2v.8c-4.3 2.9-9 .4-9.7 0-.1-.4-.1-.7 0-1.1 1.4.9 3 1.4 4.8 1.4 1.7.1 3.3-.4 4.8-1.3zM12 3.7c1.3.8 2.2 2.3 2.8 3.7h-4c-.1 0-.2 0-.2.1h-.3c.1-.4.1-.9 0-1.3-.2-.9-.8-1.6-1.5-2-.3-.1-.5-.4-.7-.6.6-.3 1.2-.3 1.9-.3s1.4.1 2 .4zm-6.2 11l1.5.8h.1c.1.1.2.2.3.2.2.1.4.2.6.2.5.4 1.1.6 1.7.6s1.2-.2 1.7-.6c.2 0 .4-.1.6-.2.1-.1.2-.2.3-.2h.1l1.4-.8c.2-.1.3-.2.5-.4v1c0 .1 0 .1.1.1-.8.5-4.3 2.8-9.3-.2v-1c0 .2.2.3.4.5z"/><path d="M7.8 5.6c-.4 0-.8 0-1.1.3-.4.2-.7.5-.8.9 0 .1 0 .3.2.3h.1c.2 0 .2-.1.3-.2.1-.2.3-.5.5-.6.2-.2.5-.2.8-.2.2 0 .2 0 .3-.2 0-.1-.1-.2-.3-.3zM12.7 6.3c.2.2.5.3.6.6V7s0 .1.1.1V7h.2s.1 0 .1-.1c0 0 0-.1.1-.1v-.1c0-.4-.2-.7-.6-.9-.3-.2-.8-.3-1.2-.2-.2.1-.3.2-.3.4l.3.2c.2-.2.5-.1.7.1zM11.8 9.4c0 .1.2.2.4.1.2-.2.5-.2.7-.2s.5.2.7.3H14.2s.1-.1.1-.2v-.2c0-.1-.1-.1-.2-.1-.3-.3-.6-.5-1-.5s-.8.1-1.1.3h-.2c-.1 0-.1.1-.1.2.1.2.1.2.1.3-.1-.1-.1-.1 0 0zM8.3 9.2c-.3-.3-.7-.5-1.1-.5s-.8.1-1.1.3h-.2c-.1 0 0 .1 0 .1v.2c0 .1.1.1.2.1 0 .1.2.2.4.1.2-.2.5-.2.7-.2s.5.2.7.3H8.5c.1 0 .1-.1.1-.2v-.2c-.2.1-.3 0-.3 0z"/></g></svg>