<svg xmlns="http://www.w3.org/2000/svg" width="66" height="74" fill="none" viewBox="0 0 66 74"><g filter="url(#filter0_d_21770_40766)"><path fill="#345C7C" d="M2 9.18a6 6 0 015.978-6L58 3v14c0 27.614-22.386 50-50 50a6 6 0 01-6-6V9.18z"/><path fill="#2C5CC5" d="M2 9.18a6 6 0 015.978-6L58 3v14c0 27.614-22.386 50-50 50a6 6 0 01-6-6V9.18z"/></g><path fill="#fff" d="M24.801 19.496l11.03 19.495 6.151-9.995L36.032 19l-11.037.157a.23.23 0 00-.195.115.225.225 0 00.001.224z"/><path fill="#fff" d="M24.801 38.66L36.033 19 42 28.996l-6.152 9.995H25.003a.23.23 0 01-.195-.109.225.225 0 01-.007-.221z"/><path fill="#000" d="M30.25 29.126L35.83 39l-7.338-6.803 1.758-3.071z" opacity=".3"/><path fill="#fff" d="M18.166 19h2.856a.142.142 0 01.132.078l5.862 9.805a.163.163 0 010 .156l-6.082 9.883a.14.14 0 01-.123.07h-2.645a.15.15 0 01-.128-.072.147.147 0 01-.004-.146l5.58-9.57a.13.13 0 000-.139l-5.597-9.839a.156.156 0 01.07-.209.159.159 0 01.079-.017z"/><defs><filter id="filter0_d_21770_40766" width="66" height="74" x="0" y="0" color-interpolation-filters="sRGB" filterUnits="userSpaceOnUse"><feFlood flood-opacity="0" result="BackgroundImageFix"/><feColorMatrix in="SourceAlpha" result="hardAlpha" values="0 0 0 0 0 0 0 0 0 0 0 0 0 0 0 0 0 0 127 0"/><feOffset dx="3" dy="2"/><feGaussianBlur stdDeviation="2.5"/><feColorMatrix values="0 0 0 0 0 0 0 0 0 0 0 0 0 0 0 0 0 0 0.08 0"/><feBlend in2="BackgroundImageFix" result="effect1_dropShadow_21770_40766"/><feBlend in="SourceGraphic" in2="effect1_dropShadow_21770_40766" result="shape"/></filter></defs></svg>