<svg xmlns="http://www.w3.org/2000/svg" width="226" height="100" fill="none" viewBox="0 0 226 100"><g filter="url(#filter0_d_8232_89964)"><path fill="#F69A3C" fill-opacity=".7" d="M2 9.277a6 6 0 015.992-6L218 3c0 49.706-40.294 90-90 90H8a6 6 0 01-6-6V9.277z"/></g><path fill="url(#paint0_linear_8232_89964)" d="M51.465 21.791l.195-.073h-.049l.025-.025h-.025l-5.06-.638.122 1.669.147 1.496.318-.171.293.662 4.034-2.92z"/><path fill="#fff" d="M46.844 22.699l.147 1.35 4.498-2.282-3.911.073-.734.859z"/><path fill="#000" d="M46.844 22.699l.147 1.35 4.498-2.282-3.911.073-.734.859z" opacity=".2"/><path fill="#fff" d="M46.747 21.153l4.742.613-4.645.933-.097-1.546z"/><path fill="#fff" d="M47.529 24.515l3.936-2.773-4.547 1.374.61 1.399z"/><path fill="url(#paint1_linear_8232_89964)" d="M75.934 14.799l.196-.098h-.05l.025-.025-.049.025-5.035-.663.097 1.669.172 1.496.317-.172.27.663 4.057-2.895z"/><path fill="#fff" d="M71.29 15.682l.146 1.35 4.523-2.282-3.911.074-.758.858z"/><path fill="#000" d="M71.29 15.682l.146 1.35 4.523-2.282-3.911.074-.758.858z" opacity=".2"/><path fill="#fff" d="M71.192 14.137l4.767.613-4.67.932-.097-1.545z"/><path fill="#fff" d="M71.999 17.498l3.935-2.773-4.546 1.374.61 1.399z"/><path fill="url(#paint2_linear_8232_89964)" d="M118.787 12.59l.269-.17h-.073l.024-.025-.049.024-7.773.319.611 2.503.611 2.183.44-.319.587.908 5.353-5.422z"/><path fill="#fff" d="M112.04 15.142l.562 2.012 6.209-4.637-5.866 1.153-.905 1.472z"/><path fill="#000" d="M112.04 15.142l.562 2.012 6.209-4.637-5.866 1.153-.905 1.472z" opacity=".2"/><path fill="#fff" d="M111.502 12.86l7.31-.343-6.772 2.625-.538-2.281z"/><path fill="#fff" d="M113.556 17.694l5.206-5.177-6.502 3.214 1.296 1.963z"/><path fill="url(#paint3_linear_8232_89964)" d="M98.18 26.723l.195-.049h-.049l.025-.025h-.025l-4.742-1.84-.293 1.644-.22 1.472.342-.073.122.711 4.645-1.84z"/><path fill="#fff" d="M93.462 26.453l-.196 1.373 4.938-1.153-3.838-.858-.904.638z"/><path fill="#000" d="M93.462 26.453l-.196 1.373 4.938-1.153-3.838-.858-.904.638z" opacity=".2"/><path fill="#fff" d="M93.73 24.956l4.474 1.718-4.742-.221.269-1.497zM93.706 28.391l4.473-1.717-4.742.196.269 1.521z"/><g opacity=".5"><path fill="url(#paint4_linear_8232_89964)" d="M70.287 44.191l.196-.098h-.049.025-.05l-5.035-.662.098 1.693.17 1.472.319-.147.269.662 4.057-2.92z" opacity=".5"/><path fill="#fff" d="M65.643 45.075l.147 1.373 4.522-2.306-3.911.098-.758.834z" opacity=".5"/><path fill="#000" d="M65.643 45.075l.147 1.373 4.522-2.306-3.911.098-.758.834z" opacity=".2"/><path fill="#fff" d="M65.546 43.553l4.767.59-4.67.932-.097-1.522z" opacity=".5"/><path fill="#fff" d="M66.352 46.89l3.935-2.748-4.546 1.35.61 1.398z" opacity=".5"/></g><g opacity=".2"><path fill="url(#paint5_linear_8232_89964)" d="M124.972 21.767l.269-.172h-.074l.025-.025-.049.025-7.774.319.611 2.502.611 2.184.44-.319.587.908 5.354-5.422z" opacity=".2"/><path fill="#fff" d="M118.225 24.318l.562 2.012 6.209-4.637-5.867 1.153-.904 1.472z" opacity=".2"/><path fill="#000" d="M118.225 24.318l.562 2.012 6.209-4.637-5.867 1.153-.904 1.472z" opacity=".2"/><path fill="#fff" d="M117.687 22.036l7.309-.343-6.771 2.625-.538-2.282z" opacity=".2"/><path fill="#fff" d="M119.74 26.87l5.207-5.177-6.502 3.214 1.295 1.963z" opacity=".2"/></g><g opacity=".3"><path fill="url(#paint6_linear_8232_89964)" d="M145.677 49.025l.244-.197h-.049v-.024l-.024.024-7.774.32.611 2.502.611 2.208.416-.32.611.909 5.354-5.422z" opacity=".3"/><path fill="#fff" d="M138.93 51.552l.562 2.011 6.209-4.612-5.891 1.153-.88 1.448z" opacity=".3"/><path fill="#000" d="M138.93 51.552l.562 2.011 6.209-4.612-5.891 1.153-.88 1.448z" opacity=".2"/><path fill="#fff" d="M138.367 49.27l7.334-.319-6.771 2.6-.563-2.281z" opacity=".3"/><path fill="#fff" d="M140.446 54.103l5.206-5.177-6.502 3.239 1.296 1.938z" opacity=".3"/></g><g opacity=".5"><path fill="url(#paint7_linear_8232_89964)" d="M98.986 48.583l.196-.049-.05-.024h.025-.024l-4.742-1.865-.294 1.668-.22 1.473.342-.074.123.711 4.644-1.84z" opacity=".5"/><path fill="#fff" d="M94.269 48.314l-.196 1.35 4.938-1.13-3.838-.858-.904.638z" opacity=".5"/><path fill="#000" d="M94.269 48.314l-.196 1.35 4.938-1.13-3.838-.858-.904.638z" opacity=".2"/><path fill="#fff" d="M94.537 46.792l4.473 1.742-4.742-.22.269-1.522z" opacity=".5"/><path fill="#fff" d="M94.513 50.252l4.473-1.742-4.742.22.269 1.522z" opacity=".5"/></g><g opacity=".5"><path fill="url(#paint8_linear_8232_89964)" d="M181.489 46.694l.22-.05-.049-.024h.025-.025l-4.742-1.864-.318 1.668-.195 1.472.342-.074.122.712 4.62-1.84z" opacity=".5"/><path fill="#fff" d="M176.797 46.424l-.196 1.35 4.938-1.129-3.838-.859-.904.638z" opacity=".5"/><path fill="#000" d="M176.797 46.424l-.196 1.35 4.938-1.129-3.838-.859-.904.638z" opacity=".2"/><path fill="#fff" d="M177.065 44.927l4.473 1.718-4.742-.221.269-1.497z" opacity=".5"/><path fill="#fff" d="M177.04 48.362l4.474-1.742-4.743.221.269 1.521z" opacity=".5"/></g><g opacity=".2"><path fill="url(#paint9_linear_8232_89964)" d="M61.071 27.532l.196-.049h-.024v-.024h-.025l-4.742-1.84-.294 1.643-.195 1.472.342-.073.122.711 4.62-1.84z" opacity=".2"/><path fill="#fff" d="M56.354 27.287l-.171 1.35 4.913-1.154-3.813-.859-.929.663z" opacity=".2"/><path fill="#000" d="M56.354 27.287l-.171 1.35 4.913-1.154-3.813-.859-.929.663z" opacity=".2"/><path fill="#fff" d="M56.622 25.766l4.474 1.717-4.742-.196.268-1.521zM56.598 29.2l4.474-1.717-4.743.196.269 1.522z" opacity=".2"/></g><path fill="url(#paint10_linear_8232_89964)" d="M156.75 21.521l.294-.147h-.074l.025-.024h-.049l-7.7-.982.171 2.552.22 2.281.489-.245.44 1.006 6.184-4.44z"/><path fill="#fff" d="M149.662 22.87l.22 2.086 6.893-3.508-5.989.122-1.124 1.3z"/><path fill="#000" d="M149.662 22.87l.22 2.086 6.893-3.508-5.989.122-1.124 1.3z" opacity=".2"/><path fill="#fff" d="M149.515 20.54l7.26.908-7.114 1.423-.146-2.33z"/><path fill="#fff" d="M150.737 25.643l6.014-4.22-6.967 2.086.953 2.134z"/><path fill="url(#paint11_linear_8232_89964)" d="M207.915 18.577l.66-.294-.171-.025.048-.024-.073.024-17.527-3.214.098 5.889.293 5.225 1.1-.515.88 2.355 14.692-9.42z"/><path fill="#fff" d="M191.536 20.86l.269 4.759 16.158-7.189-13.689-.417-2.738 2.846z"/><path fill="#000" d="M191.536 20.86l.269 4.759 16.158-7.189-13.689-.417-2.738 2.846z" opacity=".2"/><path fill="#fff" d="M191.463 15.486l16.501 2.944-16.428 2.43-.073-5.374z"/><path fill="#fff" d="M193.663 27.311l14.227-8.93-16.158 3.9 1.931 5.03z"/><path fill="url(#paint12_linear_8232_89964)" d="M132.477 37.1l.293-.147h-.073.024-.049l-7.7-1.005.171 2.576.244 2.257.465-.245.44 1.005 6.185-4.44z"/><path fill="#fff" d="M125.387 38.475l.245 2.06 6.869-3.508-5.965.147-1.149 1.3z"/><path fill="#000" d="M125.387 38.475l.245 2.06 6.869-3.508-5.965.147-1.149 1.3z" opacity=".2"/><path fill="#fff" d="M125.24 36.12l7.261.907-7.114 1.448-.147-2.355z"/><path fill="#fff" d="M126.463 41.247l6.013-4.22-6.966 2.061.953 2.16z"/><path fill="url(#paint13_linear_8232_89964)" d="M178.996 33.593l.269-.148h-.049.024-.049l-7.724-1.006.171 2.577.244 2.257.489-.246.44 1.006 6.185-4.44z"/><path fill="#fff" d="M171.907 34.966l.22 2.061 6.893-3.484-5.989.123-1.124 1.3z"/><path fill="#000" d="M171.907 34.966l.22 2.061 6.893-3.484-5.989.123-1.124 1.3z" opacity=".2"/><path fill="#fff" d="M171.76 32.61l7.26.933-7.114 1.423-.146-2.355z"/><path fill="#fff" d="M172.982 37.739l5.99-4.22-6.943 2.06.953 2.16z"/><path fill="#fff" fill-rule="evenodd" d="M154.547 8a2.545 2.545 0 012.535 2.557 2.543 2.543 0 01-2.535 2.545A2.545 2.545 0 01152 10.557 2.548 2.548 0 01154.547 8zm40.683 40.85a2.543 2.543 0 01-2.535 2.545 2.546 2.546 0 01-2.548-2.545 2.549 2.549 0 012.548-2.557 2.546 2.546 0 012.535 2.557zm-9.537 0a2.543 2.543 0 01-2.535 2.545 2.545 2.545 0 01-2.547-2.545 2.548 2.548 0 012.547-2.557 2.545 2.545 0 012.535 2.557zm9.537-9.573a2.543 2.543 0 01-2.535 2.545 2.546 2.546 0 01-2.548-2.545 2.549 2.549 0 012.548-2.557 2.546 2.546 0 012.535 2.557zm-9.537 0a2.543 2.543 0 01-2.535 2.545 2.545 2.545 0 01-2.547-2.545 2.548 2.548 0 012.547-2.557 2.545 2.545 0 012.535 2.557zm-28.611 9.573a2.543 2.543 0 01-2.535 2.545A2.545 2.545 0 01152 48.85a2.548 2.548 0 012.547-2.557 2.545 2.545 0 012.535 2.557zm19.074 0a2.543 2.543 0 01-2.535 2.545 2.545 2.545 0 01-2.547-2.545 2.548 2.548 0 012.547-2.557 2.545 2.545 0 012.535 2.557zm-9.537 0a2.543 2.543 0 01-2.535 2.545 2.545 2.545 0 01-2.547-2.545 2.548 2.548 0 012.547-2.557 2.545 2.545 0 012.535 2.557zm-9.537-9.573a2.543 2.543 0 01-2.535 2.545A2.545 2.545 0 01152 39.277a2.548 2.548 0 012.547-2.557 2.545 2.545 0 012.535 2.557zm19.074 0a2.543 2.543 0 01-2.535 2.545 2.545 2.545 0 01-2.547-2.545 2.548 2.548 0 012.547-2.557 2.545 2.545 0 012.535 2.557zm-9.537 0a2.543 2.543 0 01-2.535 2.545 2.545 2.545 0 01-2.547-2.545 2.548 2.548 0 012.547-2.557 2.545 2.545 0 012.535 2.557zm28.611-9.574a2.543 2.543 0 01-2.535 2.545 2.546 2.546 0 01-2.548-2.545 2.549 2.549 0 012.548-2.556 2.546 2.546 0 012.535 2.556zm-9.537 0a2.543 2.543 0 01-2.535 2.545 2.545 2.545 0 01-2.547-2.545 2.548 2.548 0 012.547-2.556 2.545 2.545 0 012.535 2.556zm9.537-9.573a2.543 2.543 0 01-2.535 2.545 2.546 2.546 0 01-2.548-2.545 2.549 2.549 0 012.548-2.557 2.546 2.546 0 012.535 2.557zM183.158 8a2.545 2.545 0 012.535 2.557 2.543 2.543 0 01-2.535 2.545 2.545 2.545 0 01-2.547-2.545A2.548 2.548 0 01183.158 8zm9.537 0a2.546 2.546 0 012.535 2.557 2.543 2.543 0 01-2.535 2.545 2.546 2.546 0 01-2.548-2.545A2.549 2.549 0 01192.695 8zm-7.002 12.13a2.543 2.543 0 01-2.535 2.545 2.545 2.545 0 01-2.547-2.545 2.548 2.548 0 012.547-2.557 2.545 2.545 0 012.535 2.557zm-28.611 9.573a2.543 2.543 0 01-2.535 2.545A2.545 2.545 0 01152 29.703a2.548 2.548 0 012.547-2.556 2.545 2.545 0 012.535 2.556zm19.074 0a2.543 2.543 0 01-2.535 2.545 2.545 2.545 0 01-2.547-2.545 2.548 2.548 0 012.547-2.556 2.545 2.545 0 012.535 2.556zm-9.537 0a2.543 2.543 0 01-2.535 2.545 2.545 2.545 0 01-2.547-2.545 2.548 2.548 0 012.547-2.556 2.545 2.545 0 012.535 2.556zm-9.537-9.573a2.543 2.543 0 01-2.535 2.545A2.545 2.545 0 01152 20.13a2.548 2.548 0 012.547-2.557 2.545 2.545 0 012.535 2.557zm19.074 0a2.543 2.543 0 01-2.535 2.545 2.545 2.545 0 01-2.547-2.545 2.548 2.548 0 012.547-2.557 2.545 2.545 0 012.535 2.557zM164.084 8a2.545 2.545 0 012.535 2.557 2.543 2.543 0 01-2.535 2.545 2.545 2.545 0 01-2.547-2.545A2.548 2.548 0 01164.084 8zm9.537 0a2.545 2.545 0 012.535 2.557 2.543 2.543 0 01-2.535 2.545 2.545 2.545 0 01-2.547-2.545A2.548 2.548 0 01173.621 8zm-7.002 12.13a2.543 2.543 0 01-2.535 2.545 2.545 2.545 0 01-2.547-2.545 2.548 2.548 0 012.547-2.557 2.545 2.545 0 012.535 2.557z" clip-rule="evenodd" opacity=".1"/><path fill="#FDA57D" d="M15.235 57.078s-.853 2.853.505 2.378c1.359-.476 1.17-2.378 1.17-2.378h-1.675zM28.218 41.701h-1.864v1.68h1.864v-1.68z"/><path fill="#fff" d="M27.05 42.811h1.736c1.011 0 1.833.825 1.833 1.84V56h-5.37V44.617c0-.982.82-1.807 1.8-1.807z"/><path fill="#FDA57D" d="M27.112 42.272c1.204 0 2.18-.98 2.18-2.187a2.184 2.184 0 00-2.18-2.188c-1.204 0-2.18.98-2.18 2.188 0 1.208.976 2.187 2.18 2.187z"/><path fill="#4D8AF0" d="M26.26 42.811s-5.213-1.522-10.93 14.362h1.674s2.369-6.912 6.065-7.768c0 0 2.685 3.361-1.674 10.146h3.538V57.3c-.032-3.424.41-6.848 1.263-10.177.38-1.427.41-2.917.063-4.312zM28.281 42.811v.508s1.169 5.23 2.18 8.623l.505.697v-5.96h4.865l.852-6.563h-1.358l-1.548 3.868c.032 0-3.98-1.87-5.496-1.173z"/><path fill="#333" d="M25.248 55.968s-1.01 3.71 0 5.739c1.011 2.029-2.021 21.273-2.021 21.273h2.527l3.601-18.166.6-8.877-4.706.031z"/><path fill="#333" d="M30.619 55.968l.252 14.775L29.04 82.98h-1.864l-.663-27.012h4.107zM26.733 39.26c.032-.063.095-.127.158-.19.063-.032.126-.064.221-.064.442-.032.98-.032 1.264-.475.189-.38.252-.856.126-1.268 0-.127-.063-.222-.127-.317a.468.468 0 00-.442-.127l-1.832.127c-.221 0-.41.063-.6.19-.253.222-.348.665-.6.856-.19.127-.41.127-.6.222-.411.222-.506.887-.537 1.458-.032.76-.032 1.649.442 2.093.347.348.853.316 1.295.285l.853-.064c.095 0 .158-.031.253-.063.094-.159.158-.317.126-.507-.032-.412-.063-.92-.348-1.173-.063-.064-.126-.095-.19-.159-.315-.507.38-.602.538-.824z"/><path fill="#2F80EB" d="M40.822 32s3.032 1.173 2.021 5.39l-13.615 2.885v-.666L40.822 32z"/><path fill="#4D8AF0" d="M38.987 88.857H15.169v3.614h23.818v-3.614z"/><path fill="#4D8AF0" d="M45 82.396H10v7.419h35v-7.419z"/><path fill="#000" d="M38.892 88.857H15.169v.666h23.723v-.666z" opacity=".1"/><defs><linearGradient id="paint0_linear_8232_89964" x1="49.322" x2="49.078" y1="24.587" y2="20.885" gradientUnits="userSpaceOnUse"><stop stop-color="gray" stop-opacity=".25"/><stop offset=".54" stop-color="gray" stop-opacity=".12"/><stop offset="1" stop-color="gray" stop-opacity=".1"/></linearGradient><linearGradient id="paint1_linear_8232_89964" x1="73.785" x2="73.541" y1="17.573" y2="13.871" gradientUnits="userSpaceOnUse"><stop stop-color="gray" stop-opacity=".25"/><stop offset=".54" stop-color="gray" stop-opacity=".12"/><stop offset="1" stop-color="gray" stop-opacity=".1"/></linearGradient><linearGradient id="paint2_linear_8232_89964" x1="116.267" x2="114.942" y1="17.332" y2="11.823" gradientUnits="userSpaceOnUse"><stop stop-color="gray" stop-opacity=".25"/><stop offset=".54" stop-color="gray" stop-opacity=".12"/><stop offset="1" stop-color="gray" stop-opacity=".1"/></linearGradient><linearGradient id="paint3_linear_8232_89964" x1="95.408" x2="96.067" y1="28.903" y2="25.254" gradientUnits="userSpaceOnUse"><stop stop-color="gray" stop-opacity=".25"/><stop offset=".54" stop-color="gray" stop-opacity=".12"/><stop offset="1" stop-color="gray" stop-opacity=".1"/></linearGradient><linearGradient id="paint4_linear_8232_89964" x1="68.139" x2="67.895" y1="46.981" y2="43.279" gradientUnits="userSpaceOnUse"><stop stop-color="gray" stop-opacity=".25"/><stop offset=".54" stop-color="gray" stop-opacity=".12"/><stop offset="1" stop-color="gray" stop-opacity=".1"/></linearGradient><linearGradient id="paint5_linear_8232_89964" x1="122.451" x2="121.125" y1="26.506" y2="20.995" gradientUnits="userSpaceOnUse"><stop stop-color="gray" stop-opacity=".25"/><stop offset=".54" stop-color="gray" stop-opacity=".12"/><stop offset="1" stop-color="gray" stop-opacity=".1"/></linearGradient><linearGradient id="paint6_linear_8232_89964" x1="143.149" x2="141.823" y1="53.754" y2="48.243" gradientUnits="userSpaceOnUse"><stop stop-color="gray" stop-opacity=".25"/><stop offset=".54" stop-color="gray" stop-opacity=".12"/><stop offset="1" stop-color="gray" stop-opacity=".1"/></linearGradient><linearGradient id="paint7_linear_8232_89964" x1="96.214" x2="96.873" y1="50.756" y2="47.107" gradientUnits="userSpaceOnUse"><stop stop-color="gray" stop-opacity=".25"/><stop offset=".54" stop-color="gray" stop-opacity=".12"/><stop offset="1" stop-color="gray" stop-opacity=".1"/></linearGradient><linearGradient id="paint8_linear_8232_89964" x1="178.74" x2="179.399" y1="48.867" y2="45.218" gradientUnits="userSpaceOnUse"><stop stop-color="gray" stop-opacity=".25"/><stop offset=".54" stop-color="gray" stop-opacity=".12"/><stop offset="1" stop-color="gray" stop-opacity=".1"/></linearGradient><linearGradient id="paint9_linear_8232_89964" x1="58.311" x2="58.97" y1="29.711" y2="26.062" gradientUnits="userSpaceOnUse"><stop stop-color="gray" stop-opacity=".25"/><stop offset=".54" stop-color="gray" stop-opacity=".12"/><stop offset="1" stop-color="gray" stop-opacity=".1"/></linearGradient><linearGradient id="paint10_linear_8232_89964" x1="153.463" x2="153.091" y1="25.772" y2="20.115" gradientUnits="userSpaceOnUse"><stop stop-color="gray" stop-opacity=".25"/><stop offset=".54" stop-color="gray" stop-opacity=".12"/><stop offset="1" stop-color="gray" stop-opacity=".1"/></linearGradient><linearGradient id="paint11_linear_8232_89964" x1="199.835" x2="199.705" y1="28.925" y2="15.966" gradientUnits="userSpaceOnUse"><stop stop-color="gray" stop-opacity=".25"/><stop offset=".54" stop-color="gray" stop-opacity=".12"/><stop offset="1" stop-color="gray" stop-opacity=".1"/></linearGradient><linearGradient id="paint12_linear_8232_89964" x1="129.198" x2="128.826" y1="41.364" y2="35.707" gradientUnits="userSpaceOnUse"><stop stop-color="gray" stop-opacity=".25"/><stop offset=".54" stop-color="gray" stop-opacity=".12"/><stop offset="1" stop-color="gray" stop-opacity=".1"/></linearGradient><linearGradient id="paint13_linear_8232_89964" x1="175.703" x2="175.331" y1="37.857" y2="32.2" gradientUnits="userSpaceOnUse"><stop stop-color="gray" stop-opacity=".25"/><stop offset=".54" stop-color="gray" stop-opacity=".12"/><stop offset="1" stop-color="gray" stop-opacity=".1"/></linearGradient><filter id="filter0_d_8232_89964" width="226" height="100" x="0" y="0" color-interpolation-filters="sRGB" filterUnits="userSpaceOnUse"><feFlood flood-opacity="0" result="BackgroundImageFix"/><feColorMatrix in="SourceAlpha" result="hardAlpha" values="0 0 0 0 0 0 0 0 0 0 0 0 0 0 0 0 0 0 127 0"/><feOffset dx="3" dy="2"/><feGaussianBlur stdDeviation="2.5"/><feColorMatrix values="0 0 0 0 0 0 0 0 0 0 0 0 0 0 0 0 0 0 0.08 0"/><feBlend in2="BackgroundImageFix" result="effect1_dropShadow_8232_89964"/><feBlend in="SourceGraphic" in2="effect1_dropShadow_8232_89964" result="shape"/></filter></defs></svg>