<svg width="21" height="21" viewBox="0 0 21 21" fill="none" xmlns="http://www.w3.org/2000/svg">
<path d="M20.7004 14.4011C20.6459 14.2486 20.5518 14.1132 20.4279 14.0089C20.304 13.9045 20.1546 13.8349 19.995 13.8071L17.4086 13.4359L16.2578 11.097C16.1844 10.952 16.0732 10.8295 15.936 10.7423C15.7988 10.6552 15.6406 10.6067 15.4781 10.602C15.3166 10.6042 15.1588 10.6503 15.0205 10.7353C14.8842 10.8203 14.7725 10.9411 14.6985 11.0846L13.5476 13.4359L10.9613 13.8071C10.8002 13.831 10.6489 13.8993 10.5244 14.0041C10.3998 14.109 10.3069 14.2465 10.2559 14.4011C10.2086 14.5559 10.2044 14.7206 10.2436 14.8775C10.2829 15.0345 10.3641 15.1778 10.4786 15.2921L12.3101 17.1112L11.8646 19.6852C11.8418 19.8455 11.8618 20.0089 11.9227 20.1589C11.9835 20.3089 12.0831 20.4401 12.2111 20.5391C12.3443 20.6303 12.4995 20.6841 12.6606 20.695C12.8216 20.7059 12.9826 20.6734 13.1269 20.601L15.441 19.3635L17.7551 20.601C17.8777 20.6642 18.0133 20.6981 18.1511 20.7C18.3325 20.6978 18.509 20.6418 18.6585 20.5391C18.7908 20.4438 18.8934 20.3131 18.9547 20.1621C19.016 20.011 19.0335 19.8458 19.005 19.6852L18.5719 17.1112L20.4405 15.2921C20.5615 15.1818 20.6498 15.0403 20.6956 14.8831C20.7415 14.7259 20.7431 14.5592 20.7004 14.4011ZM16.9879 16.1831C16.8878 16.282 16.8122 16.4028 16.7671 16.536C16.722 16.6692 16.7086 16.8111 16.728 16.9504L16.9879 18.225L15.837 17.6186C15.7114 17.5515 15.5711 17.5163 15.4286 17.5163C15.2862 17.5163 15.1459 17.5515 15.0203 17.6186L13.857 18.225L14.0798 16.9875C14.1038 16.8491 14.0938 16.707 14.0507 16.5733C14.0076 16.4397 13.9326 16.3185 13.8323 16.2202L12.8918 15.3045L14.1911 15.1189C14.3311 15.1017 14.4645 15.0497 14.5791 14.9675C14.6937 14.8853 14.7858 14.7757 14.847 14.6486L15.4286 13.473L16.0103 14.6486C16.0732 14.7743 16.1658 14.8829 16.2801 14.9648C16.3944 15.0467 16.5269 15.0996 16.6661 15.1189L17.9655 15.3045L16.9879 16.1831ZM12.2606 11.6662H4.69952C4.46977 11.6662 4.24944 11.575 4.08698 11.4125C3.92453 11.2501 3.83327 11.0297 3.83327 10.8C3.83327 10.5702 3.92453 10.3499 4.08698 10.1875C4.24944 10.025 4.46977 9.93374 4.69952 9.93374H12.2606C12.4904 9.93374 12.7107 10.025 12.8732 10.1875C13.0356 10.3499 13.1269 10.5702 13.1269 10.8C13.1269 11.0297 13.0356 11.2501 12.8732 11.4125C12.7107 11.575 12.4904 11.6662 12.2606 11.6662ZM13.4981 7.19887H4.69952C4.46977 7.19887 4.24944 7.1076 4.08698 6.94515C3.92453 6.7827 3.83327 6.56236 3.83327 6.33262C3.83327 6.10287 3.92453 5.88254 4.08698 5.72009C4.24944 5.55763 4.46977 5.46637 4.69952 5.46637H13.4858C13.7155 5.46637 13.9358 5.55763 14.0983 5.72009C14.2607 5.88254 14.352 6.10287 14.352 6.33262C14.352 6.56236 14.2607 6.7827 14.0983 6.94515C13.9358 7.1076 13.7155 7.19887 13.4858 7.19887H13.4981ZM7.38489 14.5125C7.61463 14.5125 7.83497 14.6038 7.99742 14.7662C8.15987 14.9287 8.25114 15.149 8.25114 15.3787C8.25114 15.6085 8.15987 15.8288 7.99742 15.9913C7.83497 16.1537 7.61463 16.245 7.38489 16.245H4.69952C4.46977 16.245 4.24944 16.1537 4.08698 15.9913C3.92453 15.8288 3.83327 15.6085 3.83327 15.3787C3.83327 15.149 3.92453 14.9287 4.08698 14.7662C4.24944 14.6038 4.46977 14.5125 4.69952 14.5125H7.38489ZM9.92177 19.8337C9.92177 20.0635 9.8305 20.2838 9.66805 20.4463C9.50559 20.6087 9.28526 20.7 9.05552 20.7H2.99177C2.4371 20.7 1.90515 20.4797 1.51294 20.0874C1.12073 19.6952 0.900391 19.1633 0.900391 18.6086L0.900391 2.99137C0.900391 2.4367 1.12073 1.90475 1.51294 1.51254C1.90515 1.12033 2.4371 0.899994 2.99177 0.899994L15.1935 0.899994C15.7482 0.899994 16.2801 1.12033 16.6723 1.51254C17.0645 1.90475 17.2849 2.4367 17.2849 2.99137V8.57249C17.2849 8.80224 17.1936 9.02257 17.0312 9.18503C16.8687 9.34748 16.6484 9.43874 16.4186 9.43874C16.1889 9.43874 15.9686 9.34748 15.8061 9.18503C15.6437 9.02257 15.5524 8.80224 15.5524 8.57249V2.99137C15.5524 2.89619 15.5146 2.80491 15.4473 2.73761C15.38 2.6703 15.2887 2.63249 15.1935 2.63249H2.99177C2.89659 2.63249 2.8053 2.6703 2.738 2.73761C2.6707 2.80491 2.63289 2.89619 2.63289 2.99137V18.6086C2.63289 18.7038 2.6707 18.7951 2.738 18.8624C2.8053 18.9297 2.89659 18.9675 2.99177 18.9675H9.05552C9.28526 18.9675 9.50559 19.0588 9.66805 19.2212C9.8305 19.3837 9.92177 19.604 9.92177 19.8337Z" fill="#2C5CC5"/>
</svg>
