<svg xmlns="http://www.w3.org/2000/svg" width="581" height="26" fill="none" viewBox="0 0 581 26"><path fill="#EBEFF3" d="M0 8a8 8 0 018-8h565a8 8 0 018 8v18H0V8z"/><path fill="#B1BDC8" d="M16 15.5a2.5 2.5 0 11-5 0 2.5 2.5 0 015 0zM23 15.5a2.5 2.5 0 11-5 0 2.5 2.5 0 015 0zM30 15.5a2.5 2.5 0 11-5 0 2.5 2.5 0 015 0z"/><path fill="#fff" d="M39 11a4 4 0 014-4h108a4 4 0 014 4v15H39V11z"/><path fill="#12344D" d="M147.081 17.626l1.363-1.363a.147.147 0 00.046-.108c0-.041-.016-.08-.046-.109a.149.149 0 00-.216 0l-1.363 1.364-1.363-1.361a.152.152 0 00-.109-.047.148.148 0 00-.108.047.151.151 0 000 .216l1.363 1.361-1.361 1.364a.152.152 0 000 .216c.028.03.066.046.106.046.041 0 .08-.017.109-.046l1.363-1.363 1.363 1.363a.15.15 0 00.214 0 .151.151 0 000-.216l-1.361-1.364z"/></svg>