<svg xmlns="http://www.w3.org/2000/svg" xmlns:xlink="http://www.w3.org/1999/xlink" width="88" height="74" viewBox="0 0 88 74"><defs><path id="fs-dynrbuu2aa" d="M.124.085H3.87v9.57H.124V.085z"/></defs><g fill="none" fill-rule="evenodd"><path fill="#FFF3B6" d="M18.46 19.925l3.37 6.868c.241.491.706.83 1.243.909l7.51 1.089c1.353.196 1.896 1.873.92 2.838l-5.424 5.36a1.675 1.675 0 00-.472 1.476l1.296 7.552c.233 1.36-1.178 2.4-2.389 1.76l-6.723-3.555a1.633 1.633 0 00-1.534.003l-6.71 3.578c-1.208.645-2.624-.39-2.395-1.75l1.27-7.558a1.674 1.674 0 00-.477-1.473l-5.443-5.34c-.98-.962-.443-2.642.908-2.843l7.507-1.115a1.65 1.65 0 001.24-.913l3.346-6.88c.603-1.239 2.35-1.242 2.957-.006"/><path fill="#FFDC0D" d="M16.78 20.974h-.001a.296.296 0 00-.284.173l-3.439 6.867a3.07 3.07 0 01-2.31 1.653L3.029 30.78a.294.294 0 00-.255.212.286.286 0 00.08.318l5.596 5.33a2.979 2.979 0 01.888 2.667L8.033 46.85a.288.288 0 00.127.303.3.3 0 00.333.023l6.897-3.573a3.128 3.128 0 012.86-.004l6.91 3.547c.115.06.227.052.332-.023a.288.288 0 00.126-.304l-1.333-7.538a2.979 2.979 0 01.88-2.67l5.575-5.35a.286.286 0 00.08-.318.294.294 0 00-.256-.21l-7.72-1.087A3.07 3.07 0 0120.526 28l-3.464-6.855a.296.296 0 00-.283-.172M8.342 49.92c-.632 0-1.26-.195-1.798-.576a2.97 2.97 0 01-1.228-2.947l1.305-7.543a.308.308 0 00-.092-.274L.934 33.25a2.955 2.955 0 01-.783-3.089 3.038 3.038 0 012.477-2.056l7.716-1.114a.316.316 0 00.238-.17l3.44-6.866a3.06 3.06 0 012.752-1.686h.006a3.06 3.06 0 012.752 1.676l3.465 6.854a.316.316 0 00.238.17l7.72 1.087a3.039 3.039 0 012.485 2.047 2.956 2.956 0 01-.772 3.091l-5.575 5.35a.306.306 0 00-.09.275l1.331 7.538a2.97 2.97 0 01-1.217 2.95 3.103 3.103 0 01-3.236.235l-6.91-3.547a.315.315 0 00-.294 0L9.78 49.567a3.13 3.13 0 01-1.438.353"/><path fill="#FFE876" d="M45.622 24.16l4.704 8.836a2.2 2.2 0 001.686 1.145l10.048 1.186c1.81.214 2.585 2.381 1.312 3.668l-7.067 7.142a2.15 2.15 0 00-.584 1.935l1.961 9.79c.353 1.764-1.497 3.16-3.131 2.365l-9.073-4.422a2.227 2.227 0 00-2.045.05l-8.837 4.865c-1.591.876-3.51-.428-3.248-2.206l1.46-9.876a2.152 2.152 0 00-.68-1.902l-7.422-6.785c-1.336-1.221-.672-3.424 1.124-3.727l9.975-1.682a2.195 2.195 0 001.625-1.227l4.25-9.057c.765-1.631 3.095-1.69 3.942-.098"/><path fill="#FFDC0D" d="M42.368 53.997c.874-.3 1.84-.242 2.683.18l8.914 4.452a.778.778 0 00.848-.084.8.8 0 00.301-.806l-1.926-9.86a3.576 3.576 0 01.932-3.167l6.943-7.193a.803.803 0 00.183-.841.788.788 0 00-.665-.54l-9.871-1.195a3.511 3.511 0 01-2.692-1.874l-4.622-8.898a.786.786 0 00-.736-.436.788.788 0 00-.712.473l-4.174 9.12a3.518 3.518 0 01-2.596 2.01l-9.8 1.693a.798.798 0 00-.637.572.802.802 0 00.225.832l7.29 6.832a3.57 3.57 0 011.089 3.116l-1.435 9.944a.798.798 0 00.341.79.78.78 0 00.852.041l8.68-4.898c.189-.107.385-.195.585-.263m13.073 7.269a3.452 3.452 0 01-2.675-.186l-8.913-4.451a.804.804 0 00-.75.018l-8.681 4.898a3.458 3.458 0 01-3.706-.176 3.544 3.544 0 01-1.482-3.436l1.434-9.945a.82.82 0 00-.25-.716l-7.291-6.832a3.555 3.555 0 01-.979-3.616 3.507 3.507 0 012.775-2.488l9.799-1.694a.815.815 0 00.596-.462l4.175-9.12a3.491 3.491 0 013.1-2.059 3.485 3.485 0 013.198 1.9l4.622 8.896a.808.808 0 00.619.431l9.87 1.195a3.5 3.5 0 012.895 2.344 3.557 3.557 0 01-.798 3.662l-6.943 7.192a.825.825 0 00-.214.73l1.926 9.858a3.547 3.547 0 01-1.311 3.507 3.507 3.507 0 01-1.016.55"/><path fill="#FFF3B6" d="M72.134 15.975l.823 5.247c.059.375.297.697.637.86l4.754 2.292c.857.413.872 1.635.026 2.07l-4.696 2.41c-.336.172-.566.5-.616.877l-.693 5.265c-.124.948-1.274 1.34-1.945.665L66.7 31.903a1.14 1.14 0 00-1.018-.32l-5.183.964c-.933.174-1.659-.807-1.227-1.659l2.394-4.732c.171-.339.166-.74-.014-1.074l-2.51-4.67c-.452-.842.248-1.84 1.186-1.69l5.205.832c.372.06.75-.069 1.01-.344l3.631-3.85c.654-.693 1.813-.33 1.96.615"/><path fill="#FFDC0D" d="M78.383 26.102h.005-.005zm-12.035 4.659c.664 0 1.308.263 1.787.745l3.48 3.503.646-4.91c.11-.83.618-1.552 1.36-1.932l4.385-2.247-4.44-2.137a2.54 2.54 0 01-1.407-1.897l-.768-4.892-3.392 3.59a2.517 2.517 0 01-2.227.76l-4.86-.777 2.343 4.355c.397.736.408 1.621.03 2.367L61.05 31.7l4.84-.898c.153-.029.306-.042.459-.042zM71.758 38c-.658 0-1.297-.26-1.781-.748l-3.699-3.723-5.145.954a2.503 2.503 0 01-2.484-.981 2.54 2.54 0 01-.225-2.675l2.376-4.69-2.492-4.63a2.54 2.54 0 01.159-2.68 2.507 2.507 0 012.46-1.043l5.166.825 3.605-3.816a2.5 2.5 0 012.583-.676 2.522 2.522 0 011.745 2.031l.817 5.2 4.72 2.271A2.53 2.53 0 0181 25.883a2.53 2.53 0 01-1.38 2.298l-4.663 2.389-.687 5.219a2.523 2.523 0 01-1.695 2.074 2.53 2.53 0 01-.818.137z"/><path fill="#E6E6E6" d="M87 9l-5 6"/><path fill="#CCC" d="M81.41 16c-.348 0-.698-.124-.97-.374a1.331 1.331 0 01-.053-1.928l5.18-5.273a1.445 1.445 0 011.994-.05c.564.518.588 1.38.051 1.927l-5.178 5.273A1.43 1.43 0 0181.41 16"/><path fill="#F2F2F2" d="M13 13l-3-7"/><path fill="#E6E6E6" d="M13.701 15c-.472 0-.928-.28-1.158-.765l-3.4-7.188c-.327-.691-.074-1.539.564-1.892.639-.354 1.423-.08 1.75.61l3.4 7.188c.327.691.074 1.538-.564 1.892-.19.105-.392.155-.592.155M31 13l2-7"/><path fill="#CCC" d="M31.333 14a1.34 1.34 0 01-1.269-1.748l2.335-7.321a1.332 1.332 0 112.537.817l-2.335 7.321a1.332 1.332 0 01-1.268.931"/><path fill="#F2F2F2" d="M41 65l-3 7"/><path fill="#E6E6E6" d="M38.299 74c-.2 0-.402-.05-.592-.155-.638-.354-.891-1.201-.564-1.892l3.4-7.187c.327-.691 1.11-.966 1.75-.61.638.353.891 1.2.564 1.891l-3.4 7.187c-.23.486-.686.766-1.158.766M58 63l5 6"/><path fill="#CCC" d="M62.685 70c-.412 0-.818-.197-1.075-.568l-4.368-6.307a1.367 1.367 0 01.313-1.877 1.297 1.297 0 011.835.32l4.368 6.308c.42.606.28 1.446-.313 1.876a1.285 1.285 0 01-.76.248"/><path fill="#F2F2F2" d="M67 9l-1-7"/><g transform="translate(64)"><mask id="fs-faff1dhpqb" fill="#fff"><use xlink:href="#fs-dynrbuu2aa"/></mask><path fill="#E6E6E6" d="M2.534 9.655a1.325 1.325 0 01-1.317-1.11L.14 1.586A1.309 1.309 0 011.26.1c.728-.107 1.407.382 1.517 1.095l1.078 6.96c.11.712-.39 1.377-1.119 1.485a1.38 1.38 0 01-.201.015" mask="url(#fs-faff1dhpqb)"/></g><path fill="#DBB707" d="M51 39.5a1.5 1.5 0 11-3 0 1.5 1.5 0 013 0m-12 0a1.5 1.5 0 11-3 0 1.5 1.5 0 013 0m7.222 6.5c.43 0 .778.325.778.727 0 .09-.005.182-.015.274L47 47c0 .152-.034.307-.099.46l-.021.046C46.487 48.8 45.17 50 43.5 50c-2.003 0-3.5-1.728-3.5-3.273 0-.402.348-.727.778-.727h5.444z"/></g></svg>