<svg xmlns="http://www.w3.org/2000/svg" viewBox="0 0 210 210"><defs><mask id="fs-ackv2cccha" width="26.7" height="26.7" x="16.59" y="122.42" maskUnits="userSpaceOnUse"><path fill="#fff" fill-rule="evenodd" d="M16.59 122.42h26.69v26.69H16.59v-26.69z"/></mask><mask id="fs-bjpwk8oh0b" width="52.69" height="1.56" x="93.74" y="204.98" maskUnits="userSpaceOnUse"><path fill="#fff" fill-rule="evenodd" d="M93.73 204.98h52.7v1.55h-52.7v-1.55z"/></mask></defs><g data-name="Layer 1"><path fill="#f1f3f8" fill-rule="evenodd" d="M113.86 179.22l56.33-56.33a9 9 0 1112.72 12.72l-56.33 56.33a9 9 0 01-12.72-12.72"/><g mask="url(#fs-ackv2cccha)"><path fill="#f1f3f8" fill-rule="evenodd" d="M19.22 133.76l8.71-8.71a9 9 0 1112.72 12.72l-8.71 8.71a9 9 0 11-12.72-12.72"/></g><path fill="#f1f3f8" fill-rule="evenodd" d="M117.86 150.29l25.75-25.74a9 9 0 1012.71 12.71L130.58 163a9 9 0 10-12.72-12.72m-11-39.21L131 87a9 9 0 0012.7 12.67l-24.12 24.12a9 9 0 00-12.72-12.72"/><path fill="#f1f3f8" fill-rule="evenodd" d="M98.32 144.53l70.37-70.37a9 9 0 1112.72 12.71L111 157.25a9 9 0 01-12.71-12.72m-69.12 19.08L125 67.81a9 9 0 0112.72 12.72l-95.83 95.79a9 9 0 01-12.72-12.71m16.93-63.07L81.65 65a9 9 0 0112.72 12.71l-35.55 35.55a9 9 0 01-12.72-12.72m58.8-58.8l.22-.21a9 9 0 0112.71 12.72l-.21.21a9 9 0 01-12.72 0 9 9 0 010-12.72M77.64 164.61l.21-.21a9 9 0 1112.72 12.71l-.22.22a9 9 0 01-12.71 0 9 9 0 010-12.72"/><path fill="#717790" fill-rule="evenodd" d="M198.85 196.47a4.94 4.94 0 011.85-.26 9.74 9.74 0 011.85.18.57.57 0 01.42.66.57.57 0 01-.42.43 9.74 9.74 0 01-1.85.18 4.94 4.94 0 01-1.85-.26.5.5 0 01-.28-.65.51.51 0 01.28-.28m-168.52.02c6.91-.2 13.81-.23 20.72-.23h124.37c6.9 0 13.81 0 20.72.2a.58.58 0 01.57.59.57.57 0 01-.57.56c-6.91.18-13.82.19-20.72.2H51.05c-6.91 0-13.81 0-20.72-.23a.45.45 0 010-.89m-4.08-.41a1.22 1.22 0 01.27 0h.13a.42.42 0 01.14.06.69.69 0 01.18.95.77.77 0 01-.18.18.42.42 0 01-.14.06h-.13a1.22 1.22 0 01-.27 0 .67.67 0 01-.51-.8.65.65 0 01.51-.51m-6.64.24a6.17 6.17 0 011.34-.18 3.87 3.87 0 011.35.12.56.56 0 01.36.7.58.58 0 01-.36.37 3.87 3.87 0 01-1.35.12 6.17 6.17 0 01-1.34-.18.48.48 0 01-.36-.6.49.49 0 01.36-.35"/><g mask="url(#fs-bjpwk8oh0b)"><path fill="#717790" fill-rule="evenodd" d="M94.14 205.31c2.16-.2 4.31-.23 6.47-.23h6.47L120 205h19.4c2.16 0 4.32 0 6.47.2a.57.57 0 01.53.62.59.59 0 01-.53.54c-2.15.17-4.31.18-6.47.19H120l-12.94-.07h-6.47c-2.16 0-4.31 0-6.47-.23a.44.44 0 01-.4-.49.45.45 0 01.4-.4"/></g><path fill="#717790" fill-rule="evenodd" d="M72.85 205.28c2.21-.12 4.42-.16 6.63-.18s4.42 0 6.63.12a.54.54 0 01.49.57.53.53 0 01-.49.5c-2.21.14-4.42.15-6.63.12s-4.42-.06-6.63-.18a.48.48 0 010-.95"/><path fill="#c8d6ec" d="M192.7 160a2.72 2.72 0 112.72-2.72 2.72 2.72 0 01-2.72 2.72zm0-3.43a.72.72 0 100 1.43.72.72 0 100-1.43zM9.78 78.94a1 1 0 01-1-1v-8.5a1 1 0 012 0v8.5a1 1 0 01-1 1z"/><path fill="#c8d6ec" d="M14 74.69H5.53a1 1 0 010-2H14a1 1 0 110 2zm51.1-5.07a2.72 2.72 0 112.72-2.72 2.72 2.72 0 01-2.72 2.72zm0-3.43a.72.72 0 100 1.43.72.72 0 100-1.43zm128.14 40.63a2.72 2.72 0 112.76-2.72 2.71 2.71 0 01-2.76 2.72zm0-3.43a.72.72 0 10.72.71.71.71 0 00-.72-.71zm-95.33-41.9a1.06 1.06 0 01-.5-.13 1 1 0 01-.47-.61l-.84-3.06a1 1 0 01.71-1.23l3.06-.84a1 1 0 011.23.7l.84 3.07a1 1 0 01-.71 1.23l-3.06.83a.82.82 0 01-.26.04zm.39-3.37l.31 1.14 1.13-.26-.31-1.13zm-55.5 64.53a3 3 0 113-3 3 3 0 01-3 3zm0-4a1 1 0 101 1 1 1 0 00-1-1z"/><path fill="#ced6de" d="M118.79 149.08h-.08c-.63-.11-1.33-.24-2.09-.4a.49.49 0 01-.39-.59.51.51 0 01.59-.39c.75.16 1.44.29 2.06.39a.5.5 0 01.4.58.49.49 0 01-.49.41zm-4.13-.84h-.12c-.65-.16-1.34-.32-2.06-.51a.5.5 0 01-.36-.61.51.51 0 01.61-.36c.71.19 1.39.35 2 .5a.49.49 0 01.37.6.5.5 0 01-.44.38zm-4.09-1.06a.36.36 0 01-.14 0c-.66-.19-1.34-.39-2-.61a.5.5 0 11.31-1l2 .6a.5.5 0 01.34.62.49.49 0 01-.51.39zm-4-1.27a.45.45 0 01-.16 0c-.66-.23-1.33-.48-2-.74a.5.5 0 11.36-.93c.66.25 1.31.5 2 .72a.5.5 0 01-.17 1zm-3.93-1.53a.43.43 0 01-.19 0c-.65-.27-1.3-.56-1.94-.87a.5.5 0 11.43-.9c.63.3 1.27.58 1.9.85a.5.5 0 01.26.66.49.49 0 01-.48.26zm-3.81-1.8a.68.68 0 01-.23-.05c-.62-.33-1.25-.67-1.86-1a.5.5 0 01.5-.87c.6.35 1.21.69 1.83 1a.5.5 0 01.21.67.51.51 0 01-.47.25zm-3.63-2.12a.43.43 0 01-.27-.08c-.6-.38-1.19-.79-1.76-1.2a.5.5 0 01.59-.81q.84.62 1.71 1.17a.51.51 0 01.15.7.52.52 0 01-.44.22zM91.77 138a.45.45 0 01-.31-.11c-.56-.46-1.1-.94-1.61-1.42a.49.49 0 010-.7.5.5 0 01.71 0c.49.46 1 .92 1.55 1.37a.49.49 0 01.07.7.5.5 0 01-.41.16zm-3-2.89a.49.49 0 01-.37-.16c-.49-.53-1-1.08-1.39-1.64a.5.5 0 01.79-.61c.42.53.86 1.06 1.33 1.57a.5.5 0 010 .71.46.46 0 01-.41.11zm-2.58-3.31a.51.51 0 01-.42-.23c-.39-.6-.76-1.22-1.09-1.85a.5.5 0 01.89-.46c.31.59.66 1.19 1 1.77a.5.5 0 01-.15.69.53.53 0 01-.28.06zm-2-3.71a.5.5 0 01-.46-.31c-.27-.66-.52-1.34-.73-2a.5.5 0 01.34-.63.5.5 0 01.62.33c.2.65.43 1.3.69 1.94a.49.49 0 01-.27.65.43.43 0 01-.2 0zm-1.22-4a.5.5 0 01-.49-.4c-.14-.7-.26-1.41-.34-2.12a.5.5 0 01.45-.55.49.49 0 01.55.44 19.92 19.92 0 00.32 2 .51.51 0 01-.39.59zm-.47-4.18a.5.5 0 01-.5-.48v-2.15a.5.5 0 011 .06v2.06a.49.49 0 01-.49.51zm43.9-.87a.5.5 0 010-1c.71 0 1.41 0 2.09-.05a.52.52 0 01.52.48.5.5 0 01-.48.52c-.7 0-1.4 0-2.12.05zm-2.1 0l-2.12-.06a.5.5 0 01-.47-.53.49.49 0 01.52-.47l2.09.06a.52.52 0 01.49.51.5.5 0 01-.52.45zm6.31-.14a.5.5 0 010-1c.71 0 1.4-.1 2.08-.17a.5.5 0 11.1 1c-.68.07-1.39.13-2.11.18zm-10.52 0c-.69 0-1.39-.1-2.11-.16a.5.5 0 01.09-1l2.09.17a.49.49 0 01.46.53.51.51 0 01-.54.37zm-4.19-.39c-.69-.08-1.39-.16-2.1-.26a.49.49 0 01-.43-.56.5.5 0 01.56-.43c.7.1 1.39.18 2.08.26a.5.5 0 01-.06 1zm18.89 0a.5.5 0 01-.07-1c.71-.1 1.39-.21 2.06-.33a.5.5 0 11.18 1c-.68.13-1.38.24-2.1.34zm-23.06-.55h-.08l-2.08-.34a.49.49 0 01-.41-.57.49.49 0 01.57-.41l2.07.33a.5.5 0 01.42.57.49.49 0 01-.5.33zm27.2-.2a.5.5 0 01-.11-1c.69-.15 1.36-.32 2-.5a.5.5 0 01.61.35.51.51 0 01-.35.62c-.67.18-1.35.35-2.06.51zm-31.35-.5h-.09l-2.08-.4a.51.51 0 01-.39-.59.51.51 0 01.59-.4c.69.15 1.38.28 2.06.4a.5.5 0 01-.09 1zm35.4-.61a.5.5 0 01-.16-1c.68-.22 1.33-.45 2-.7a.51.51 0 01.65.29.5.5 0 01-.29.64c-.64.25-1.31.49-2 .72a.45.45 0 01-.18-.04zm-39.53-.22h-.11c-.67-.14-1.36-.3-2-.46a.5.5 0 01-.38-.6.5.5 0 01.6-.37l2 .46a.49.49 0 01.38.59.5.5 0 01-.5.29zm-20.73-.65h-.06a.49.49 0 01-.43-.56c.09-.69.2-1.4.34-2.11a.5.5 0 011 .19c-.13.69-.25 1.38-.33 2a.51.51 0 01-.53.39zm16.63-.29h-.12l-2-.51a.51.51 0 01-.36-.61.5.5 0 01.61-.36l2 .51a.5.5 0 01.36.61.49.49 0 01-.5.27zm47.55-.37a.5.5 0 01-.21-1c.64-.29 1.26-.6 1.85-.92a.51.51 0 01.68.21.49.49 0 01-.21.67c-.61.33-1.24.65-1.91 1a.49.49 0 01-.21-.08zm-51.63-.68h-.13l-2-.56a.5.5 0 01.27-1c.68.2 1.36.38 2 .56a.5.5 0 01-.13 1zm-4.05-1.15a.36.36 0 01-.14 0l-2-.6a.51.51 0 01-.33-.63.5.5 0 01.62-.33l2 .6a.5.5 0 01.34.62.49.49 0 01-.5.25zm59.38-.16a.5.5 0 01-.27-.92c.59-.37 1.17-.76 1.72-1.16a.51.51 0 01.7.11.5.5 0 01-.12.7c-.56.42-1.16.82-1.77 1.2a.48.48 0 01-.27-.06zM87.19 112a.44.44 0 01-.16 0l-2-.65a.49.49 0 01-.32-.63.5.5 0 01.63-.32l2 .65a.5.5 0 01-.15 1zm-3.67-.42h-.13a.5.5 0 01-.36-.61c0-.09 0-.18.07-.27h-.08L81 110a.5.5 0 01.33-.95l2 .68c.08-.27.16-.54.25-.82a.51.51 0 01.63-.33.5.5 0 01.32.63c-.21.68-.4 1.34-.57 2a.49.49 0 01-.44.34zm70.47-1a.52.52 0 01-.38-.17.51.51 0 01.06-.71c.52-.44 1-.91 1.53-1.39a.49.49 0 01.7 0 .5.5 0 010 .71c-.51.49-1.05 1-1.59 1.44a.48.48 0 01-.31.11zm-74.78-1.28a.47.47 0 01-.17 0l-2-.72a.49.49 0 01-.3-.64.5.5 0 01.64-.3l2 .72a.5.5 0 01.31.63.51.51 0 01-.48.3zm-4-1.45a.47.47 0 01-.17 0l-2-.74a.52.52 0 01-.29-.65.5.5 0 01.65-.29l2 .75a.5.5 0 01.29.64.51.51 0 01-.44.28zm81.74-.21a.52.52 0 01-.33-.12.51.51 0 010-.71c.45-.51.89-1.06 1.3-1.61a.51.51 0 01.7-.1.5.5 0 01.1.7c-.42.57-.88 1.13-1.34 1.67a.52.52 0 01-.38.16zm-72.2-.09a.43.43 0 01-.19 0 .51.51 0 01-.27-.65c.17-.39.46-1.06.9-1.95a.49.49 0 01.66-.23.48.48 0 01.23.66c-.42.87-.71 1.53-.86 1.9a.52.52 0 01-.43.26zm-13.47-1.2a.57.57 0 01-.18 0c-.65-.26-1.31-.51-2-.78a.48.48 0 01-.28-.64.49.49 0 01.64-.28l2 .77a.49.49 0 01.28.64.48.48 0 01-.42.28zm-3.91-1.56a.58.58 0 01-.19 0l-2-.8a.5.5 0 01.38-.93l1.95.8a.49.49 0 01.27.65.51.51 0 01-.37.27zm92.09-.53a.54.54 0 01-.27-.07.51.51 0 01-.16-.69c.37-.58.71-1.19 1-1.79a.5.5 0 01.67-.22.51.51 0 01.22.68c-.33.63-.69 1.25-1.07 1.86a.49.49 0 01-.35.22zm-72.86-.51a.53.53 0 01-.24-.06.51.51 0 01-.2-.68c.31-.57.66-1.19 1-1.85a.5.5 0 01.86.5c-.38.65-.72 1.26-1 1.83a.51.51 0 01-.38.25zm-23.12-.57a.48.48 0 01-.2 0l-1.94-.82a.5.5 0 11.4-.92l1.93.82a.5.5 0 01-.19 1zm-3.83-1.74a.47.47 0 01-.3-.1c-.34-.26-.92-.71-1.67-1.34a.51.51 0 01-.06-.71.49.49 0 01.7-.06c.74.62 1.3 1.06 1.64 1.31a.5.5 0 01-.31.9zm101.74-.91a.65.65 0 01-.19 0 .52.52 0 01-.27-.66c.27-.64.51-1.29.71-1.93a.51.51 0 01.63-.33.49.49 0 01.32.63c-.21.67-.46 1.35-.74 2a.5.5 0 01-.42.28zm-72.65-.42a.47.47 0 01-.27-.08.5.5 0 01-.15-.69q.54-.85 1.17-1.77a.5.5 0 01.82.56c-.4.6-.79 1.19-1.15 1.75a.49.49 0 01-.38.22zm-32.3-1.38a.5.5 0 01-.33-.13c-.49-.43-1-.91-1.57-1.43a.5.5 0 01.69-.73c.54.51 1.06 1 1.55 1.41a.5.5 0 01-.34.88zm34.72-2.11a.52.52 0 01-.29-.09.5.5 0 01-.11-.7c.41-.56.84-1.12 1.29-1.69a.5.5 0 01.7-.08.49.49 0 01.08.7c-.44.56-.86 1.11-1.26 1.66a.51.51 0 01-.41.2zm71.53-.13h-.1a.5.5 0 01-.39-.59c.07-.36.1-.57.1-.58v-1.43a.5.5 0 01.47-.53.5.5 0 01.53.47v1.5c0 .05 0 .28-.12.71a.5.5 0 01-.49.45zm-109.32-.65a.49.49 0 01-.35-.15c-.48-.48-1-1-1.48-1.52a.5.5 0 010-.71.51.51 0 01.71 0c.5.53 1 1 1.46 1.5a.5.5 0 01-.35.86zm40.41-2.52a.49.49 0 01-.32-.12.51.51 0 01-.06-.71c.45-.52.92-1.06 1.41-1.59a.5.5 0 11.73.68q-.72.78-1.38 1.56a.49.49 0 01-.38.18zm-43.31-.54a.5.5 0 01-.37-.17c-.46-.52-.93-1-1.39-1.61a.49.49 0 01.06-.7.51.51 0 01.71.06c.45.55.91 1.07 1.37 1.58a.51.51 0 010 .71.55.55 0 01-.38.13zm112.07-.48a.49.49 0 01-.49-.41 18.41 18.41 0 00-.47-2 .5.5 0 11.95-.3 17 17 0 01.5 2.11.48.48 0 01-.4.57zm-65.92-2.09a.54.54 0 01-.35-.14.5.5 0 010-.71c.49-.5 1-1 1.52-1.48a.49.49 0 01.7 0 .5.5 0 010 .71c-.51.48-1 1-1.49 1.45a.51.51 0 01-.38.17zm-48.85-.67a.5.5 0 01-.4-.19c-.43-.55-.86-1.11-1.28-1.69a.5.5 0 01.11-.7.51.51 0 01.7.11c.41.57.83 1.13 1.26 1.67a.5.5 0 01-.09.7.49.49 0 01-.3.1zm113.54-1.25a.49.49 0 01-.45-.29 17.49 17.49 0 00-1-1.81.49.49 0 01.17-.68.5.5 0 01.69.16 18.52 18.52 0 011 1.92.5.5 0 01-.25.66.52.52 0 01-.16.04zm-61.62-1a.52.52 0 01-.38-.17.51.51 0 010-.71c.53-.46 1.07-.92 1.63-1.36a.51.51 0 01.71.07.52.52 0 01-.08.71c-.55.44-1.08.88-1.6 1.33a.48.48 0 01-.28.17zm-54.41-1.15a.49.49 0 01-.41-.22c-.4-.58-.78-1.18-1.16-1.79a.5.5 0 01.16-.68.49.49 0 01.69.16c.37.59.75 1.18 1.14 1.75a.5.5 0 01-.14.69.47.47 0 01-.28.09zm113.85-1.44a.49.49 0 01-.39-.19 19.44 19.44 0 00-1.35-1.51.5.5 0 01.72-.69 19.72 19.72 0 011.42 1.63.49.49 0 01-.4.8zm-56.16 0a.51.51 0 01-.4-.2.5.5 0 01.11-.7c.56-.42 1.14-.83 1.73-1.23a.5.5 0 01.56.83c-.58.39-1.15.79-1.7 1.2a.47.47 0 01-.27.09zm-59.9-2.13a.51.51 0 01-.44-.26c-.34-.62-.68-1.24-1-1.88a.5.5 0 01.22-.67.52.52 0 01.68.22c.31.62.64 1.24 1 1.84a.49.49 0 01-.19.68.55.55 0 01-.27.06zm63.39-.23a.5.5 0 01-.27-.92c.6-.37 1.21-.73 1.84-1.08a.5.5 0 11.48.87c-.61.34-1.2.69-1.79 1a.42.42 0 01-.26.12zm49.76-.66a.52.52 0 01-.33-.12c-.5-.43-1-.86-1.62-1.27a.51.51 0 01-.11-.7.49.49 0 01.7-.11c.59.42 1.16.87 1.69 1.32a.51.51 0 010 .71.52.52 0 01-.33.16zm-46.09-1.4a.51.51 0 01-.45-.27.5.5 0 01.22-.67c.63-.32 1.27-.62 1.92-.92a.5.5 0 01.66.25.49.49 0 01-.25.66c-.64.29-1.26.59-1.88.9a.44.44 0 01-.22.04zm42.68-1.06a.48.48 0 01-.26-.07c-.58-.36-1.19-.7-1.81-1a.5.5 0 01-.22-.67.52.52 0 01.68-.22c.63.33 1.26.68 1.87 1a.5.5 0 01.16.69.49.49 0 01-.42.26zm-111.63-.43a.51.51 0 01-.46-.3c-.28-.64-.55-1.3-.8-2a.5.5 0 11.93-.36c.25.65.51 1.29.79 1.92a.51.51 0 01-.26.66.45.45 0 01-.2.08zm72.82-.25a.51.51 0 01-.46-.31.5.5 0 01.28-.65c.65-.26 1.31-.51 2-.75a.5.5 0 01.33 1c-.66.23-1.31.47-1.95.73a.58.58 0 01-.2-.02zm35.1-1.26a.45.45 0 01-.2 0c-1.11-.47-1.83-.68-1.84-.69a.55.55 0 01-.39-.61.46.46 0 01.55-.37h.09a19.12 19.12 0 012 .73.51.51 0 01.27.66.5.5 0 01-.52.28zm-31.13-.12a.51.51 0 01-.48-.36.49.49 0 01.34-.62q1-.32 2-.57a.49.49 0 01.61.36.49.49 0 01-.36.6c-.68.18-1.35.37-2 .56a.4.4 0 01-.15.03zm27.08-1h-.09c-.7-.13-1.38-.24-2.07-.35a.5.5 0 01.16-1l2.09.36a.5.5 0 01.4.58.51.51 0 01-.54.39zm-23 0a.5.5 0 01-.11-1 70.1 70.1 0 012.09-.39.51.51 0 01.58.41.51.51 0 01-.41.58c-.7.11-1.38.24-2 .38zm18.84-.62h-.06c-.7-.09-1.4-.17-2.08-.23a.5.5 0 01.09-1c.7.07 1.4.14 2.11.23a.5.5 0 01.43.56.5.5 0 01-.53.39zm-14.7-.07a.5.5 0 01-.06-1c.7-.09 1.4-.16 2.11-.22a.5.5 0 01.09 1c-.7 0-1.39.13-2.07.21zm10.51-.32l-2.16-.15a.52.52 0 01-.49-.51.48.48 0 01.52-.49l2.12.09a.5.5 0 010 1zm-6.32 0a.5.5 0 010-1c.7 0 1.41-.06 2.12-.07a.5.5 0 01.5.5.5.5 0 01-.5.5c-.7 0-1.4 0-2.08.06zm-90.65-.19a.49.49 0 01-.47-.35c-.22-.68-.41-1.36-.58-2.05a.5.5 0 01.37-.61.5.5 0 01.6.37c.17.67.35 1.33.56 2a.5.5 0 01-.33.63zm-1-4.08a.51.51 0 01-.5-.41c-.12-.71-.22-1.42-.3-2.12a.5.5 0 01.45-.55.49.49 0 01.55.44c.07.68.17 1.37.29 2a.5.5 0 01-.41.58zm-.45-4.18a.5.5 0 01-.5-.48v-2.18a.5.5 0 111 0v2.06a.5.5 0 01-.48.52zm.18-4.2h-.06a.5.5 0 01-.44-.56c.08-.7.19-1.42.33-2.11a.51.51 0 01.59-.4.5.5 0 01.39.59c-.13.67-.24 1.36-.32 2a.5.5 0 01-.53.38zm.81-4.12h-.14a.5.5 0 01-.34-.62c.18-.67.4-1.36.64-2a.51.51 0 01.57-.46.5.5 0 01.3.64c-.23.65-.44 1.32-.62 2a.5.5 0 01-.45.34zm1.41-4a.45.45 0 01-.2 0 .51.51 0 01-.26-.66c.28-.64.59-1.29.92-1.92a.5.5 0 11.89.46c-.32.61-.62 1.24-.89 1.86a.5.5 0 01-.5.2zm1.94-3.73a.49.49 0 01-.43-.75c.36-.6.74-1.2 1.15-1.8a.51.51 0 01.69-.13.5.5 0 01.13.7c-.39.58-.77 1.16-1.12 1.74a.47.47 0 01-.46.18zm2.36-3.47a.49.49 0 01-.3-.1.51.51 0 01-.1-.7c.43-.55.87-1.11 1.34-1.66a.5.5 0 01.76.64 46.1 46.1 0 00-1.3 1.62.51.51 0 01-.44.14zm2.71-3.21a.51.51 0 01-.34-.14.5.5 0 010-.7c.47-.51 1-1 1.48-1.53a.48.48 0 01.7 0 .5.5 0 010 .71c-.5.5-1 1-1.44 1.49a.5.5 0 01-.44.11zm3-3a.5.5 0 01-.34-.87c.51-.47 1-.94 1.58-1.41a.51.51 0 01.71.05.49.49 0 01-.06.7c-.53.47-1.05.93-1.55 1.39a.51.51 0 01-.4.11zm3.18-2.75a.5.5 0 01-.31-.89c.54-.44 1.09-.87 1.67-1.31a.51.51 0 01.7.1.5.5 0 01-.1.7c-.56.43-1.11.86-1.64 1.29a.54.54 0 01-.38.08zm3.35-2.55a.49.49 0 01-.4-.2.51.51 0 01.11-.7c.57-.41 1.14-.81 1.74-1.21a.5.5 0 01.56.82c-.59.4-1.16.8-1.72 1.2a.5.5 0 01-.35.06zm3.48-2.36a.51.51 0 01-.42-.23.5.5 0 01.15-.69c.58-.38 1.18-.76 1.79-1.13a.5.5 0 11.52.85c-.6.37-1.19.74-1.77 1.12a.5.5 0 01-.33.05zm3.58-2.21a.51.51 0 01-.43-.25.5.5 0 01.18-.68l1.83-1.05a.5.5 0 11.49.87c-.61.34-1.22.69-1.81 1a.48.48 0 01-.32.08zm3.61-2.1a.49.49 0 01-.44-.26.49.49 0 01.2-.67c.61-.34 1.24-.66 1.87-1A.5.5 0 1170 28l-1.85 1a.43.43 0 01-.26 0zm3.74-1.93a.51.51 0 01-.45-.28.49.49 0 01.22-.67l1.9-.93a.5.5 0 11.43.9l-1.88.91a.46.46 0 01-.22.07zm3.79-1.83A.52.52 0 0175 25a.5.5 0 01.25-.66c.63-.3 1.27-.59 1.92-.88a.49.49 0 01.66.25.5.5 0 01-.25.66l-1.91.87a.41.41 0 01-.25 0zm3.84-1.72a.5.5 0 01-.2-1l1.94-.79a.51.51 0 01.65.27.49.49 0 01-.26.65l-1.93.83a.51.51 0 01-.2.04zm3.88-1.63a.5.5 0 01-.19-1l2-.79a.5.5 0 01.37.93l-2 .78a.43.43 0 01-.18.08zm3.91-1.54a.5.5 0 01-.17-1l2-.75a.5.5 0 01.64.3.49.49 0 01-.29.64l-2 .74a.58.58 0 01-.18.07zm4-1.47a.5.5 0 01-.17-1l2-.71a.5.5 0 01.63.31.48.48 0 01-.3.63l-2 .71a.51.51 0 01-.21.06zm4-1.4a.5.5 0 01-.16-1l2-.68a.51.51 0 01.63.32.49.49 0 01-.32.63l-2 .67a.45.45 0 01-.2.06zm4-1.33a.49.49 0 01-.47-.35.5.5 0 01.32-.63l2-.64a.51.51 0 01.63.33.5.5 0 01-.33.62l-2 .65zm4-1.27a.5.5 0 01-.15-1l2-.61a.5.5 0 11.28 1l-2 .62zm4-1.22a.49.49 0 01-.48-.36.5.5 0 01.34-.62l2-.58a.49.49 0 01.62.34.51.51 0 01-.34.62l-2 .58a.36.36 0 01-.19.02zm4-1.16a.49.49 0 01-.48-.36.51.51 0 01.35-.62l2-.56a.5.5 0 01.61.35.49.49 0 01-.35.61l-2 .56a.34.34 0 01-.13.02zm4.06-1.11a.5.5 0 01-.48-.37.52.52 0 01.35-.62l1.81-.48a.5.5 0 01.25 1l-1.8.48z"/><path fill="#dae1e7" fill-rule="evenodd" d="M77.9 127.55h-1.99v-2h-1.32v2h-1.98v1.33h1.98v2.01h1.32v-2.01h1.99v-1.33z"/><circle cx="119.23" cy="9.29" r="3.29" fill="#fff"/><path fill="#ced6de" d="M119.23 13.58a4.29 4.29 0 114.29-4.29 4.29 4.29 0 01-4.29 4.29zm0-6.58a2.29 2.29 0 102.29 2.29A2.29 2.29 0 00119.23 7z"/><path fill="#fcc997" d="M171.05 100.46a10.58 10.58 0 00-2.15-6.35 9.5 9.5 0 00-6.9-3.31h-15l-16.15-1q.42-1.49.78-3.24a57.31 57.31 0 00-.24-22.66c-4.3-21.56-13.72-17.48-14.6-13.45S118 60 117 68a14.72 14.72 0 01-.81 3.67c-.66 1.61-2.46 4.6-3.31 6.12a56.93 56.93 0 01-31.48 26.36l-.07 44.35h16.24a15.09 15.09 0 0011.53 5.5h29.32c.44 0 .88 0 1.31-.05l15.45-.13c4.07 0 7.37-3.73 7.33-8.21v-.78a8.5 8.5 0 00-2.83-6.33 7.86 7.86 0 005.12-7.64v-.26a8.25 8.25 0 00-2.51-5.93 8.59 8.59 0 005.82-8.44 9 9 0 00-2.7-6.44 10.1 10.1 0 005.66-9.35"/><path fill="#fff" d="M171.05 100.46a10.58 10.58 0 00-2.15-6.35 9.5 9.5 0 00-6.9-3.31h-15l-16.15-1q.42-1.49.78-3.24a57.31 57.31 0 00-.24-22.66c-4.3-21.56-13.72-17.48-14.6-13.45S118 60 117 68a14.72 14.72 0 01-.81 3.67c-.66 1.61-2.46 4.6-3.31 6.12a56.93 56.93 0 01-31.48 26.36l-.07 44.35h16.24a15.09 15.09 0 0011.53 5.5h29.32c.44 0 .88 0 1.31-.05l15.45-.13c4.07 0 7.37-3.73 7.33-8.21v-.78a8.56 8.56 0 00-1.57-4.93 1.55 1.55 0 01.42-2.23 8.11 8.11 0 003.44-6.81v-.26a8.33 8.33 0 00-1.13-4.17 2 2 0 01.65-2.72 8.88 8.88 0 003.79-7.48 9.17 9.17 0 00-1.43-4.9 2.05 2.05 0 01.6-2.69 10.36 10.36 0 003.79-8.2"/><path fill="#717790" d="M138.46 155l-29.33-.05a16 16 0 01-12-5.43H81.31a.94.94 0 01-.93-.94l.07-44.35a.94.94 0 01.64-.89 56 56 0 0031-25.93l.64-1.12a54.46 54.46 0 002.62-4.9 12.93 12.93 0 00.72-3.18v-.26a44.29 44.29 0 00-.14-10.95 22.22 22.22 0 010-6.76 5.32 5.32 0 015.15-4c2.9 0 8.21 2.32 11.22 17.42a58.31 58.31 0 01.25 23c-.15.73-.32 1.46-.5 2.19l15 .89h14.9a10.53 10.53 0 017.64 3.64 11.6 11.6 0 012.37 7 11.31 11.31 0 01-4.14 8.93 1.15 1.15 0 00-.39 1.46 10.25 10.25 0 011.58 5.39 9.9 9.9 0 01-4.21 8.27 1.09 1.09 0 00-.36 1.47 9.42 9.42 0 011.26 4.63v.27a9.09 9.09 0 01-3.85 7.59.68.68 0 00-.3.43.58.58 0 00.12.47 9.55 9.55 0 011.75 5.48v.77c0 5-3.67 9.12-8.26 9.16l-15.45.13c-.36.11-.8.17-1.25.17zm-56.25-7.37h15.31a.93.93 0 01.71.34A14.17 14.17 0 00109.1 153l29.33.05c.39 0 .82 0 1.24-.05l15.5-.13c3.56 0 6.44-3.3 6.4-7.28v-.77a7.72 7.72 0 00-1.4-4.4 2.47 2.47 0 01-.44-1.89 2.52 2.52 0 011.09-1.65 7.23 7.23 0 003-6v-.27a7.44 7.44 0 00-1-3.7 3 3 0 01.94-4 8 8 0 003.38-6.7 8.34 8.34 0 00-1.29-4.39 3 3 0 01.81-3.93 9.46 9.46 0 003.43-7.46 9.72 9.72 0 00-2-5.79 8.65 8.65 0 00-6.22-3H147l-16.15-1a.95.95 0 01-.85-1.19c.29-1 .55-2.11.76-3.17a56.27 56.27 0 00-.24-22.29c-2.94-14.72-7.94-15.91-9.4-15.92a3.46 3.46 0 00-3.33 2.48 21.55 21.55 0 00.09 6.18 46.65 46.65 0 01.08 11.32v.26A13.81 13.81 0 01117 72a53.84 53.84 0 01-2.73 5.13l-.63 1.1a57.93 57.93 0 01-31.36 26.57z"/><path fill="#fccda1" d="M147.29 90.77h-5.17.28z" opacity=".7"/><path fill="#c9c0ff" d="M88.39 153.15l-33.74-.06a4.16 4.16 0 01-4.16-4.16l.09-51.21a4.14 4.14 0 014.16-4.15l33.74.05a4.15 4.15 0 014.15 4.17L92.55 149a4.16 4.16 0 01-4.16 4.16"/><path fill="#717790" d="M88.39 154.15l-33.73-.06a5.16 5.16 0 01-5.16-5.16l.09-51.21a5.16 5.16 0 015.16-5.15l33.74.05a5.16 5.16 0 015.15 5.17L93.55 149a5.16 5.16 0 01-5.16 5.15zM54.74 94.57a3.14 3.14 0 00-3.16 3.15l-.09 51.21a3.18 3.18 0 003.16 3.16l33.74.06a3.16 3.16 0 003.16-3.15l.08-51.21a3.08 3.08 0 00-.92-2.23 3.12 3.12 0 00-2.23-.93l-33.74-.05z"/><path fill="#00598c" d="M68.22 132.8a5.29 5.29 0 11-5.28-5.29 5.3 5.3 0 015.28 5.29"/><path fill="#fff" d="M68.22 132.8a5.29 5.29 0 11-5.28-5.29 5.3 5.3 0 015.28 5.29"/><path fill="#717790" d="M62.93 139.08a6.3 6.3 0 01-6.28-6.3 6.3 6.3 0 016.29-6.27 6.29 6.29 0 010 12.57zm0-10.57a4.29 4.29 0 100 8.57 4.3 4.3 0 004.29-4.28 4.29 4.29 0 00-4.28-4.29z"/><path fill="#fff" d="M155.78 109.78l10.61.42"/><path fill="#717790" d="M166.39 111.14l-10.61-.42a.94.94 0 01.07-1.87l10.62.42a.94.94 0 010 1.87z"/><path fill="#fff" d="M151.44 124.69l11.62.47"/><path fill="#717790" d="M163.07 126.1l-11.62-.47a.94.94 0 01-.9-1 1 1 0 011-.89l11.62.47a.93.93 0 01.9 1 .94.94 0 01-1 .89z"/><path fill="#fff" d="M150.41 138.38l9.97.27"/><path fill="#717790" d="M160.38 139.59l-10-.28a.92.92 0 01-.91-1 1 1 0 011-.91l10 .27a.94.94 0 010 1.88z"/></g></svg>