<svg xmlns="http://www.w3.org/2000/svg" width="100" height="100" fill="none" viewBox="0 0 100 100"><path fill="#F1F3F8" fill-rule="evenodd" d="M54.97 86.248L83.276 58.36a4.572 4.572 0 016.282.11 4.408 4.408 0 01.11 6.187L61.362 92.545a4.572 4.572 0 01-6.281-.11 4.408 4.408 0 01-.111-6.188zM7.412 63.743l4.377-4.312a4.566 4.566 0 014.428-1.28 4.49 4.49 0 013.263 3.215 4.413 4.413 0 01-1.3 4.362l-4.376 4.312a4.566 4.566 0 01-4.428 1.28 4.49 4.49 0 01-3.263-3.215 4.413 4.413 0 011.3-4.362z" clip-rule="evenodd"/><path fill="#F1F3F8" fill-rule="evenodd" d="M56.98 71.926l12.94-12.743a4.409 4.409 0 000 6.292 4.571 4.571 0 006.387 0L63.372 78.218a4.413 4.413 0 001.299-4.362 4.49 4.49 0 00-3.263-3.215 4.567 4.567 0 00-4.428 1.28M51.452 52.51l12.12-11.916a4.408 4.408 0 00.112 6.188 4.572 4.572 0 006.28.11l-12.12 11.94a4.408 4.408 0 00-.11-6.188 4.572 4.572 0 00-6.282-.11" clip-rule="evenodd"/><path fill="#F1F3F8" fill-rule="evenodd" d="M47.16 69.074l35.363-34.836a4.572 4.572 0 016.248.136 4.408 4.408 0 01.144 6.156L53.548 75.37a4.572 4.572 0 01-6.249-.14 4.408 4.408 0 01-.138-6.157zM12.412 78.52l48.136-47.426a4.572 4.572 0 016.28.11 4.408 4.408 0 01.112 6.187l-48.136 47.42a4.572 4.572 0 01-6.249-.135 4.408 4.408 0 01-.143-6.156zm8.508-31.223l17.864-17.594a4.572 4.572 0 016.249.136 4.408 4.408 0 01.143 6.156l-17.864 17.6a4.572 4.572 0 01-6.282-.11 4.408 4.408 0 01-.11-6.188zm29.547-29.109l.11-.104a4.572 4.572 0 016.25.141 4.408 4.408 0 01.138 6.156l-.106.104a4.571 4.571 0 01-6.392 0 4.409 4.409 0 010-6.297zM36.769 79.015l.105-.104a4.566 4.566 0 014.444-1.317 4.49 4.49 0 013.282 3.23 4.414 4.414 0 01-1.334 4.379l-.11.109a4.571 4.571 0 01-6.387 0 4.409 4.409 0 010-6.297z" clip-rule="evenodd"/><path fill="#717790" fill-rule="evenodd" d="M97.678 94.79c.3-.102.615-.146.93-.13.31 0 .62.03.925.09a.28.28 0 01.216.33.286.286 0 01-.216.215 4.84 4.84 0 01-.925.09 2.498 2.498 0 01-.93-.13.251.251 0 01-.14-.325.256.256 0 01.14-.14zm-84.683.01c3.472-.1 6.94-.115 10.412-.115h62.498c3.467 0 6.94 0 10.412.1a.292.292 0 01.286.294.286.286 0 01-.286.28c-3.473.09-6.945.096-10.412.1H23.407c-3.472 0-6.94 0-10.412-.115a.225.225 0 010-.444m-2.05-.205a.616.616 0 01.135 0h.066a.21.21 0 01.07.03.344.344 0 010 .565.214.214 0 01-.07.03h-.066a.628.628 0 01-.135 0 .337.337 0 01-.257-.4.326.326 0 01.257-.255m-3.337.119c.22-.054.446-.084.673-.09.227-.02.455 0 .674.06a.276.276 0 01.186.35.286.286 0 01-.186.186c-.22.06-.447.08-.674.06a3.12 3.12 0 01-.673-.09.241.241 0 01-.18-.3.246.246 0 01.18-.175zm37.452 4.381c1.086-.1 2.166-.115 3.252-.115h3.25l6.503-.03h9.774c1.086 0 2.171 0 3.252.1a.287.287 0 01.266.31.296.296 0 01-.266.27c-1.08.085-2.166.09-3.252.095h-9.748l-6.503-.035h-3.251c-1.086 0-2.166 0-3.252-.115a.221.221 0 01-.2-.245.226.226 0 01.2-.2m-10.723-.05a74.06 74.06 0 013.331-.09c1.111-.01 2.222 0 3.332.06a.27.27 0 01.246.285.266.266 0 01-.246.25c-1.11.07-2.22.075-3.331.06-1.111-.015-2.222-.03-3.332-.09a.24.24 0 010-.475z" clip-rule="evenodd"/><path fill="#C8D6EC" fill-rule="evenodd" d="M93.221 75.386c0 .744.612 1.347 1.367 1.347s1.367-.603 1.367-1.347c0-.743-.612-1.346-1.367-1.346s-1.367.602-1.367 1.346zm1.018-.188a.364.364 0 01.349-.163.364.364 0 01.349.163.352.352 0 010 .38.364.364 0 01-.35.165.364.364 0 01-.348-.164.352.352 0 010-.38z" clip-rule="evenodd"/><path fill="#C8D6EC" d="M2.668 36.604a.499.499 0 01-.502-.495V31.9c0-.273.225-.495.502-.495a.5.5 0 01.503.495v4.208a.499.499 0 01-.503.495z"/><path fill="#C8D6EC" d="M4.804 34.5H.533a.499.499 0 01-.503-.495c0-.274.225-.495.503-.495h4.271c.278 0 .503.221.503.495a.499.499 0 01-.503.495z"/><path fill="#C8D6EC" fill-rule="evenodd" d="M29.204 31.159c.212.503.71.831 1.263.831.755 0 1.367-.603 1.367-1.346 0-.545-.333-1.036-.844-1.244a1.382 1.382 0 00-1.49.291c-.39.386-.507.965-.296 1.468zm.915-.703a.364.364 0 01.348-.164.364.364 0 01.349.164.352.352 0 010 .38.364.364 0 01-.349.164.363.363 0 01-.348-.164.352.352 0 010-.38zM93.493 49.06c0 .743.611 1.346 1.366 1.346.363.001.712-.14.968-.393.257-.253.4-.596.4-.954 0-.743-.613-1.346-1.368-1.346-.755 0-1.366.603-1.366 1.346zm1.032-.13a.362.362 0 01.334-.222.36.36 0 01.256.101.356.356 0 01-.114.583.366.366 0 01-.396-.074.353.353 0 01-.08-.389zM46.703 27.901a.54.54 0 00.252.064.416.416 0 00.13-.02l1.538-.41a.501.501 0 00.304-.233.489.489 0 00.048-.376l-.417-1.52a.496.496 0 00-.236-.3.51.51 0 00-.382-.047l-1.543.416a.501.501 0 00-.304.233.489.489 0 00-.048.376l.422 1.515a.5.5 0 00.236.302zm.603-1.04l-.155-.564.588-.149.135.585-.568.128zM17.754 56.757c0 .82.675 1.486 1.507 1.486.833 0 1.508-.665 1.508-1.486 0-.82-.675-1.485-1.508-1.485-.832 0-1.507.665-1.507 1.485zm1.005 0c0-.273.225-.495.502-.495a.5.5 0 01.503.495.499.499 0 01-.503.495.499.499 0 01-.502-.495z" clip-rule="evenodd"/><path fill="#CED6DE" fill-rule="evenodd" d="M55.382 2.98a.25.25 0 00.241.183l.065.005.905-.237a.255.255 0 10-.126-.495l-.91.237a.257.257 0 00-.175.307zm-2.04.555a.245.245 0 00.233.178h-.017c.03.005.062.001.09-.01l1.005-.277a.246.246 0 00.153-.115.239.239 0 00.023-.187.252.252 0 00-.306-.174l-1.005.278a.252.252 0 00-.176.307zm-1.777.752a.247.247 0 01-.063-.485l1.005-.287a.25.25 0 01.193.019.243.243 0 01.12.15.252.252 0 01-.172.306l-1.005.287a.184.184 0 01-.115.01h.037zm-2.002.604a.254.254 0 01-.29-.21.25.25 0 01.214-.285l1.005-.302c.09-.025.187 0 .253.064a.254.254 0 01-.112.431l-1.005.307-.065-.005zm-2.207.61a.25.25 0 00.197.019l-.005-.01 1.005-.322a.247.247 0 00.166-.307.257.257 0 00-.317-.163l-1.005.317a.247.247 0 00-.16.312.241.241 0 00.119.155zm-1.813.677a.254.254 0 01-.292-.208.251.251 0 01.211-.287l1.005-.336c.132-.04.272.03.317.158a.239.239 0 01-.013.19.245.245 0 01-.148.122l-1.005.332a.228.228 0 01-.09.03h.015zm-2.304.488a.255.255 0 00.294.205h-.031a.26.26 0 00.111-.03l1.005-.35a.24.24 0 00.144-.125.252.252 0 00-.31-.341l-1.005.351a.251.251 0 00-.208.29zm-1.716.933a.255.255 0 01-.294-.205.252.252 0 01.208-.29l1.005-.371a.252.252 0 01.317.337.245.245 0 01-.14.128l-1.006.366a.295.295 0 01-.115.035h.025zm-2.207.68c.06.068.152.1.242.082h-.025a.218.218 0 00.115-.04l1.005-.385a.246.246 0 00.063-.425.255.255 0 00-.249-.036l-1.005.391a.255.255 0 00-.193.165.25.25 0 00.047.247zm-1.708.89a.256.256 0 01-.301-.199.253.253 0 01.2-.297l.975-.41a.258.258 0 01.327.133.24.24 0 01-.13.322l-.99.43a.259.259 0 01-.094.02h.013zm-2.16.707a.262.262 0 00.23.144.209.209 0 00.106-.025l.96-.43a.246.246 0 00.125-.327.25.25 0 00-.332-.124c-.326.143-.648.287-.964.436a.246.246 0 00-.126.326zm-1.7 1.05a.257.257 0 01-.225-.139.24.24 0 01.11-.332l.955-.46a.255.255 0 01.261.008.246.246 0 01-.045.438l-.945.45a.234.234 0 01-.11.035zm-2.1.826c.044.08.129.13.221.13a.22.22 0 00.121-.026l.93-.495a.246.246 0 00-.04-.453.25.25 0 00-.192.018l-.375.196c-.19.099-.379.197-.564.299a.24.24 0 00-.1.332zm-1.588 1.12a.257.257 0 01-.216-.124.246.246 0 01.09-.337l.92-.52a.255.255 0 01.26-.007.247.247 0 01-.014.438l-.235.13h-.002c-.226.126-.452.251-.672.365-.04.05-.1.083-.166.089l.035-.035zm-2.01.98c.047.07.126.112.211.113l-.035.035a.253.253 0 00.171-.074c.291-.188.588-.371.89-.555a.247.247 0 00.138-.22.247.247 0 00-.137-.222.254.254 0 00-.263.021c-.306.184-.608.372-.9.56a.245.245 0 00-.075.341zm-1.537 1.282a.248.248 0 01-.201-.1.25.25 0 01.055-.346c.281-.203.573-.4.874-.599a.254.254 0 01.324.08.245.245 0 01-.042.326c-.297.198-.583.396-.865.594a.253.253 0 01-.18.08l.035-.035zM24.59 16.26a.252.252 0 00.238.136l-.035.035a.284.284 0 00.146-.055c.266-.213.542-.426.824-.638a.246.246 0 00-.052-.426.254.254 0 00-.25.03c-.291.217-.567.43-.839.648a.245.245 0 00-.032.27zm-1.36 1.497a.251.251 0 01-.236-.157.245.245 0 01.065-.273l.14-.127c.208-.19.416-.38.654-.571a.259.259 0 01.357.024.24.24 0 01-.03.347c-.101.088-.198.176-.295.264-.157.142-.313.283-.484.424a.258.258 0 01-.206.104l.035-.035zm-1.678 1.416a.258.258 0 00.17.07l-.024.02a.253.253 0 00.226-.105c.22-.242.472-.49.723-.737a.246.246 0 000-.352.243.243 0 00-.351 0c-.128.14-.263.273-.396.405-.12.117-.237.234-.348.353a.245.245 0 000 .346zm-1.191 1.659a.249.249 0 01-.201-.396 24.2 24.2 0 01.673-.822.254.254 0 01.335-.01.245.245 0 01.047.327c-.231.267-.447.534-.653.802a.257.257 0 01-.226.119l.025-.02zm-1.317 1.683a.24.24 0 00.126.034l-.025.02a.247.247 0 00.24-.138c.177-.287.368-.575.564-.862a.244.244 0 00.03-.253.252.252 0 00-.443-.03c-.205.298-.396.595-.577.892a.235.235 0 00.085.337zm-.844 1.881a.227.227 0 01-.1 0 .25.25 0 01-.131-.327c.14-.316.296-.638.462-.95a.254.254 0 01.34-.107.246.246 0 01.107.334c-.16.302-.311.614-.447.921a.257.257 0 01-.256.149l.025-.02zm-.779 1.98h.045a.252.252 0 00.267-.143c.09-.337.196-.669.311-.99a.247.247 0 00-.15-.317.257.257 0 00-.322.153c-.12.317-.231.659-.322.99a.247.247 0 00.171.307zm-.337 2.04h-.03a.252.252 0 01-.17-.093.245.245 0 01-.05-.184c.04-.347.095-.703.165-1.045a.256.256 0 01.297-.198.252.252 0 01.159.106c.037.055.05.122.037.186-.066.332-.121.673-.161.99a.25.25 0 01-.247.238zm-.366 1.89a.25.25 0 00.25.239l.01-.04a.253.253 0 00.176-.08.246.246 0 00.066-.178v-1.02a.25.25 0 00-.251-.247.25.25 0 00-.251.248v1.079zm.477 2.308a.256.256 0 01-.251-.203c-.06-.352-.11-.703-.151-1.05a.245.245 0 01.055-.182.252.252 0 01.171-.09.249.249 0 01.185.051.242.242 0 01.092.167c.035.337.085.678.145.99a.244.244 0 01-.042.186.252.252 0 01-.164.101l-.04.03zm.266 1.846a.24.24 0 00.236.174l.076-.005a.25.25 0 00.149-.122.245.245 0 00.017-.19 18.244 18.244 0 01-.282-.99.251.251 0 00-.487.119c.085.341.18.678.291 1.014zm47.9.194l1.065.074.015-.03a.25.25 0 00.252-.248.25.25 0 00-.252-.247l-1.065-.045a.243.243 0 00-.186.064.236.236 0 00-.075.179c0 .136.108.247.246.252zm-4.216.232a.25.25 0 01-.267-.233.25.25 0 01.237-.262c.351-.044.703-.08 1.06-.109a.251.251 0 01.274.225.25.25 0 01-.229.27c-.257 0-.51.035-.762.068-.093.013-.186.026-.278.036l-.035.005zm7.356.035h.03v-.025a.25.25 0 00.247-.193.248.248 0 00-.216-.277 36.8 36.8 0 00-1.06-.114.251.251 0 00-.274.225.25.25 0 00.228.27c.342.03.694.07 1.046.114zm-9.437.307a.252.252 0 01-.279-.22.25.25 0 01.224-.275c.347-.07.699-.134 1.05-.193a.256.256 0 01.292.203.253.253 0 01-.206.287 14.97 14.97 0 00-1.005.188l-.076.01zm11.513 0h.045v-.01a.256.256 0 00.246-.193.248.248 0 00-.2-.287l-1.05-.179a.254.254 0 00-.292.208.251.251 0 00.21.287l.083.014c.315.05.634.1.958.16zm-13.563.495a.256.256 0 01-.241-.178.24.24 0 01.019-.19.246.246 0 01.152-.117c.335-.106.67-.2 1.005-.283a.25.25 0 01.22.013.243.243 0 01.121.18.24.24 0 01-.027.186.246.246 0 01-.153.111c-.342.09-.679.184-1.005.278a.206.206 0 01-.09 0zm15.543.06a.23.23 0 00.1 0 .252.252 0 00.242-.14.251.251 0 00-.136-.326 9.69 9.69 0 00-1.005-.361h-.045a.234.234 0 00-.178.033.228.228 0 00-.099.15.267.267 0 00.196.302l.045.015c.114.037.434.14.88.326zm-54.342.598c.041.09.131.148.231.149a.228.228 0 00.1-.04.25.25 0 00.131-.327 19.93 19.93 0 01-.397-.95.257.257 0 00-.326-.144.256.256 0 00-.146.322c.13.347.266.673.407.99zm56.332.357a.243.243 0 01-.13-.035 10.022 10.022 0 00-.91-.495.246.246 0 01-.111-.332.263.263 0 01.342-.109l.483.255c.154.082.306.163.456.24a.245.245 0 01.08.342.247.247 0 01-.215.134h.005zm-21.674.39a.257.257 0 00.226.134h-.005c.04.003.08-.006.116-.024.312-.154.623-.302.945-.446a.244.244 0 00.133-.137.24.24 0 00-.008-.19.253.253 0 00-.331-.123c-.327.148-.649.297-.965.455a.246.246 0 00-.11.332zm23.387.828h-.004a.263.263 0 00.17-.085.25.25 0 000-.351 12.7 12.7 0 00-.85-.654.25.25 0 10-.296.401c.312.203.563.416.814.629a.263.263 0 00.162.06h.004zm-56.864.44a.257.257 0 01-.221-.129 28.497 28.497 0 01-.503-.93.246.246 0 01.11-.332.263.263 0 01.343.109c.155.307.321.614.502.91a.24.24 0 01-.095.337.28.28 0 01-.136.035zm58.322 1.06a.248.248 0 01-.196-.095c-.213-.26-.44-.51-.679-.747a.245.245 0 01.02-.336.254.254 0 01.342-.006 9.8 9.8 0 01.714.807.24.24 0 01.03.262.247.247 0 01-.231.134v-.02zm-57.417.603a.247.247 0 00.346.065.245.245 0 00.07-.342 26.059 26.059 0 01-.572-.866.25.25 0 00-.347-.08.245.245 0 00-.08.337c.19.302.381.6.582.886zm27.547.679a.263.263 0 01-.19-.084.25.25 0 010-.352c.266-.228.537-.456.818-.673a.26.26 0 01.357.034.255.255 0 01-.04.352c-.276.218-.543.435-.804.658a.242.242 0 01-.14.084v-.02zm30.739.351c.04.088.129.144.226.144a.246.246 0 00.206-.347c-.15-.325-.318-.642-.502-.95a.251.251 0 00-.347-.08.24.24 0 00-.085.337c.185.289.353.588.502.896zm-56.834.763a.247.247 0 01-.196-.095c-.216-.272-.432-.55-.643-.836a.245.245 0 01.055-.347.259.259 0 01.352.055c.206.282.417.56.633.827a.24.24 0 01.03.262.247.247 0 01-.231.133zm24.377.262c.048.043.11.068.175.07a.26.26 0 00.192-.085c.132-.12.265-.25.399-.382.115-.112.231-.226.35-.336a.246.246 0 000-.351.248.248 0 00-.352 0c-.262.237-.518.485-.764.732a.246.246 0 000 .352zm33.301 1.104a.245.245 0 01-.246-.203 9.001 9.001 0 00-.236-.99.24.24 0 01.015-.191.245.245 0 01.15-.121.252.252 0 01.312.163c.106.343.19.692.251 1.045a.235.235 0 01-.039.183.242.242 0 01-.162.099l-.045.015zm-56.502.153a.253.253 0 00.186.084.257.257 0 00.229-.148.25.25 0 00-.038-.267 21.5 21.5 0 01-.689-.783.26.26 0 00-.357-.03.242.242 0 00-.03.347c.17.222.342.41.513.595l.186.202zm21.95.352a.25.25 0 01-.186-.41c.226-.258.462-.526.703-.788a.253.253 0 01.431.175c0 .066-.027.13-.074.176-.241.258-.473.515-.694.773a.248.248 0 01-.18.074zm-20.483 1.173c.046.047.11.074.176.074l-.005-.01a.25.25 0 00.234-.154.245.245 0 00-.058-.271 13.06 13.06 0 00-.388-.394c-.114-.113-.23-.228-.346-.349a.259.259 0 00-.357 0 .246.246 0 000 .352c.241.257.503.514.744.752zm55.11.396h-.035a.251.251 0 01-.159-.106.244.244 0 01-.037-.186c.036-.178.05-.282.05-.287v-.708a.245.245 0 01.063-.18.254.254 0 01.356-.021c.05.044.08.106.084.171v.743c0 .025 0 .138-.06.351a.25.25 0 01-.262.223zM43.33 45.15c.01.065.047.123.101.162a.264.264 0 00.146.044h-.015a.258.258 0 00.22-.099c.202-.272.413-.544.634-.821a.24.24 0 00-.04-.347.254.254 0 00-.352.04c-.226.282-.442.56-.648.836a.244.244 0 00-.046.185zm-17.2 1.251a.243.243 0 01-.166-.064 29.338 29.338 0 01-.518-.463l-.271-.245a.246.246 0 01-.01-.352.255.255 0 01.357-.01c.271.253.532.495.779.698.08.069.11.18.07.278a.251.251 0 01-.241.158zm16.08.629c.049.04.113.058.176.05h-.02a.247.247 0 00.19-.124c.182-.278.378-.57.579-.867a.245.245 0 00-.081-.319.254.254 0 00-.331.042c-.211.303-.407.596-.588.876a.245.245 0 00.075.342zm36.683.257a.332.332 0 01-.095 0 .256.256 0 01-.136-.327c.136-.316.257-.638.357-.955a.248.248 0 01.124-.147.255.255 0 01.34.106.24.24 0 01.014.19 10.66 10.66 0 01-.372.99.252.252 0 01-.232.143zm-51.316.406c.043.033.096.05.15.05l.02-.005a.257.257 0 00.182-.094.245.245 0 00-.05-.347 22.16 22.16 0 01-.82-.648.249.249 0 00-.351.03.25.25 0 00.03.35c.377.313.668.535.839.664zm13.573 1.163c.037.02.078.03.12.03l.02-.005a.256.256 0 00.191-.124c.141-.282.312-.584.503-.905a.246.246 0 00-.103-.316.254.254 0 00-.33.068 23.23 23.23 0 01-.366.671v.001l-.136.244a.25.25 0 00.1.336zm36.733.283a.275.275 0 01-.135-.035.25.25 0 01-.08-.342c.185-.287.356-.589.502-.886a.25.25 0 01.447.228c-.166.312-.347.619-.538.92a.247.247 0 01-.19.11l-.006.005zm-46.371.262a.294.294 0 00.095 0l.02-.005a.256.256 0 00.186-.134.246.246 0 00-.136-.321l-.98-.396a.254.254 0 00-.329.136.247.247 0 00.139.324l1.005.396zm2.06.772a.292.292 0 01-.09 0c-.203-.08-.408-.158-.617-.237h-.001l-.001-.001a94.477 94.477 0 01-.387-.148.24.24 0 01-.14-.128.235.235 0 010-.189c.023-.06.07-.11.131-.135a.25.25 0 01.19-.003l1.005.38c.062.024.112.07.138.13a.24.24 0 01.003.188.241.241 0 01-.211.138l-.02.005zm6.673.594a.22.22 0 00.096 0l.02-.005a.262.262 0 00.216-.128c.075-.184.221-.51.432-.94a.234.234 0 00-.115-.328.25.25 0 00-.332.114 20.07 20.07 0 00-.443.944l-.01.022a.25.25 0 00.136.321zm36.377.045a.264.264 0 01-.166-.06.25.25 0 01-.025-.351c.226-.253.447-.525.653-.797a.259.259 0 01.352-.05.245.245 0 01.05.347c-.21.282-.442.56-.673.827a.263.263 0 01-.17.079l-.02.005zm-41.16.104a.236.236 0 00.085 0l.02-.005a.257.257 0 00.22-.139.246.246 0 00-.145-.316l-1.005-.372a.255.255 0 00-.194.005.249.249 0 00-.132.139.256.256 0 00.145.322l1.005.366zm2.095.718a.24.24 0 01-.086 0l-1.005-.357a.246.246 0 01-.145-.317.252.252 0 01.321-.148l1.005.356c.13.045.2.184.156.312a.256.256 0 01-.246.149v.005zm37.344.47a.251.251 0 00.234.163v-.005a.243.243 0 00.16-.054c.272-.218.543-.47.8-.713a.246.246 0 000-.351.248.248 0 00-.352 0c-.094.083-.184.166-.274.248-.165.151-.326.298-.495.44a.245.245 0 00-.073.272zm-35.178.658h-.066a.25.25 0 01-.154-.114.244.244 0 01-.027-.188c0-.044 0-.089.036-.133h-.04l-1.006-.337a.248.248 0 01-.155-.317.254.254 0 01.321-.153l1.005.336c.04-.133.08-.267.126-.406a.257.257 0 01.316-.163.247.247 0 01.161.312c-.105.337-.2.663-.286.99a.246.246 0 01-.231.159v.014zm1.763.208a.226.226 0 00.08 0v.025a.254.254 0 00.29-.21.25.25 0 00-.214-.285l-1.005-.322a.252.252 0 00-.316.159.24.24 0 00.013.19c.03.058.083.102.147.121l1.005.322zm31.955.515a.25.25 0 01-.24-.178.246.246 0 01.105-.277c.296-.184.587-.377.864-.575a.259.259 0 01.352.055.245.245 0 01-.06.346c-.282.208-.584.406-.89.594a.245.245 0 01-.146.015l.015.02zm-29.844.08a.183.183 0 01-.065 0l-1.005-.298a.252.252 0 01-.166-.312.252.252 0 01.311-.163l1.005.297c.134.038.21.176.171.307a.246.246 0 01-.25.17zM39.3 54.797h.016a.259.259 0 00.189-.061.251.251 0 00.087-.177c.04-.306.1-.648.166-.99a.25.25 0 00-.084-.238.259.259 0 00-.252-.047.253.253 0 00-.167.191c-.07.352-.125.703-.17 1.045a.24.24 0 00.048.184c.04.052.101.086.167.093zm10.448.322h-.056c-.336-.07-.683-.149-1.005-.228a.251.251 0 01-.158-.11.245.245 0 01-.032-.187.251.251 0 01.301-.183l1.005.228a.246.246 0 01.158.106.24.24 0 01.033.186.25.25 0 01-.246.188zm19.547-.07c.023.137.153.23.292.208l.1-.024c.347-.114.684-.233 1.005-.357a.246.246 0 00.127-.313.252.252 0 00-.307-.147c-.337.124-.664.238-1.006.346a.251.251 0 00-.21.288zm-17.497.51h-.04l-1.045-.198a.253.253 0 01-.196-.292.256.256 0 01.296-.198c.347.075.694.139 1.035.198a.25.25 0 01.229.27.251.251 0 01-.274.225l-.005-.005zm15.475.028c.015.136.14.235.279.22l.05.005c.357-.08.699-.163 1.035-.253a.254.254 0 00.116-.43.263.263 0 00-.252-.065c-.321.09-.658.174-1.004.248a.25.25 0 00-.224.275zm-13.39.319h-.04l-1.045-.168a.247.247 0 01-.163-.099.24.24 0 01-.043-.184.242.242 0 01.1-.16.25.25 0 01.186-.043l1.04.164c.067.01.126.045.166.098.04.053.056.119.046.184a.246.246 0 01-.236.178l-.01.03zm-14.94.728a.25.25 0 00.252.237h.005a.249.249 0 00.178-.074.24.24 0 00.068-.178v-1.02a.254.254 0 00-.236-.262.254.254 0 00-.182.061.246.246 0 00-.084.171v1.065zm.503 2.322a.25.25 0 01-.246-.199c-.07-.346-.13-.698-.17-1.05a.25.25 0 01.223-.274.252.252 0 01.279.22c.036.333.09.663.16.99a.252.252 0 01-.195.293l-.05.02zm.382 1.826c.039.093.13.153.231.154l-.005-.01a.222.222 0 00.1 0 .245.245 0 00.138-.133.24.24 0 00-.002-.189 11.74 11.74 0 01-.346-.96.252.252 0 00-.312-.164.25.25 0 00-.152.12.244.244 0 00-.019.192c.106.327.231.663.367.99zm1.236 1.99a.257.257 0 01-.21-.114 11.344 11.344 0 01-.548-.915.25.25 0 01.442-.228c.119.216.246.435.371.65v.001l.131.225a.245.245 0 01-.075.342.27.27 0 01-.136.03l.025.01zm1.11 1.56c.049.051.116.08.187.079l-.025-.01a.233.233 0 00.206-.054.245.245 0 000-.352 13.707 13.707 0 01-.669-.777.254.254 0 00-.342-.033.245.245 0 00-.055.335c.194.274.447.543.69.803l.009.009zm1.694 1.51a.228.228 0 01-.155-.055 16.001 16.001 0 01-.81-.703.241.241 0 010-.346.253.253 0 01.357 0c.246.227.503.455.78.678a.242.242 0 01.034.346.253.253 0 01-.206.08zm1.588 1.178a.219.219 0 00.133.04.26.26 0 00.214-.11.25.25 0 00-.075-.346 14.517 14.517 0 01-.86-.58.255.255 0 00-.25-.025.247.247 0 00-.046.427c.286.203.583.406.884.594zm1.96 1.089a.347.347 0 01-.116-.025c-.311-.163-.628-.332-.934-.495a.246.246 0 01-.093-.339.254.254 0 01.344-.092c.302.174.608.342.92.495a.246.246 0 01.105.332.257.257 0 01-.236.124h.01zM49.33 69a.22.22 0 01-.093-.001 18.774 18.774 0 01-.975-.43.246.246 0 01-.045-.438.254.254 0 01.261-.008c.317.148.639.287.955.42a.25.25 0 01.134.137.244.244 0 01-.003.19.247.247 0 01-.234.13zm1.977.756a.226.226 0 01-.08 0 31.129 31.129 0 01-1.005-.366.246.246 0 01-.08-.433.254.254 0 01.261-.027l.077.028c.305.114.608.228.928.328a.252.252 0 01.209.29.255.255 0 01-.294.205l-.016-.025zm1.94.63a.181.181 0 00.07 0 .246.246 0 00.257-.194.245.245 0 00-.021-.188.251.251 0 00-.15-.119l-1.005-.297a.264.264 0 00-.33.17.259.259 0 00.174.325c.332.11.674.208 1.005.302zm2.126.524h-.06a77.422 77.422 0 00-.298-.071 36.43 36.43 0 01-.738-.182.25.25 0 01-.154-.114.244.244 0 01-.026-.188.257.257 0 01.306-.178c.271.072.533.135.778.193h.002l.002.001.223.054a.246.246 0 01.157.11.24.24 0 01.029.187.25.25 0 01-.221.188zm2.075.416h-.04a30.998 30.998 0 01-1.05-.198.246.246 0 01-.161-.105.24.24 0 01-.035-.187.256.256 0 01.296-.193c.377.079.724.143 1.035.193a.248.248 0 01.202.287.245.245 0 01-.247.203zm3.81-14.886a.25.25 0 01-.252-.248.25.25 0 01.251-.247c.357 0 .709 0 1.05-.025a.26.26 0 01.262.237.245.245 0 01-.067.178.252.252 0 01-.174.08c-.352 0-.704 0-1.066.025h-.005zm-2.121-.03l1.065.03.01-.005a.25.25 0 00.246-.238.26.26 0 00-.246-.252l-1.05-.03a.249.249 0 00-.18.062.242.242 0 00-.081.17.245.245 0 00.062.18c.045.05.107.08.174.083zm4.236-.04a.25.25 0 01-.251-.247.25.25 0 01.25-.248c.28 0 .551-.03.82-.06l.113-.012.113-.012c.09-.009.178.03.23.102a.246.246 0 01.025.248.252.252 0 01-.205.145c-.341.035-.698.065-1.06.09l-.035-.006zm-6.026-.049c.25.025.496.05.74.05l.01-.03c.122.002.23-.08.256-.198a.24.24 0 00-.06-.18.248.248 0 00-.171-.083l-1.05-.084a.251.251 0 00-.274.225.25.25 0 00.228.27c.108.009.214.02.32.03h.001zm-1.366-.144l-.06-.007a41.1 41.1 0 01-.995-.121.247.247 0 01-.168-.094.24.24 0 01-.048-.184.25.25 0 01.281-.213c.352.05.698.09 1.045.13a.25.25 0 01.236.261.25.25 0 01-.266.233l-.025-.005zm9.224-.23c.01.137.13.24.268.23l.035.005c.362-.05.71-.104 1.056-.168a.254.254 0 00.195-.163.248.248 0 00-.045-.247.258.258 0 00-.24-.085c-.337.06-.679.114-1.036.163a.25.25 0 00-.233.265zm-17.53-1.294h-.046l-1.005-.253a.252.252 0 01-.18-.302.248.248 0 01.115-.152.255.255 0 01.19-.026l1.006.252a.25.25 0 01.154.114.244.244 0 01.027.188.246.246 0 01-.262.178zm23.665-.262a.26.26 0 00.244.078l-.015-.014a.25.25 0 00.115-.006l.311-.159c.223-.113.439-.223.65-.335a.24.24 0 00.106-.332.258.258 0 00-.343-.104c-.296.158-.608.312-.93.455a.255.255 0 00-.19.169.25.25 0 00.052.248zm-25.7-.258h-.066l-1.005-.278a.256.256 0 11.136-.495c.22.064.44.124.655.182l.35.096a.25.25 0 01.218.28.253.253 0 01-.284.215h-.005zm-15.986-5.53a.247.247 0 01-.1 0l-.975-.406a.247.247 0 01-.13-.327.254.254 0 01.33-.128l.97.405c.14.026.23.158.204.295a.256.256 0 01-.299.2v-.039zm19.644-9.248a.258.258 0 00.2.1v-.006a.238.238 0 00.151-.044c.277-.203.563-.401.854-.594a.246.246 0 00.068-.344.254.254 0 00-.349-.067 22.39 22.39 0 00-.87.609.247.247 0 00-.054.346zm1.719-1.252a.25.25 0 00.24.178.212.212 0 00.13-.064c.19-.1.382-.207.578-.316l.322-.18a.243.243 0 00.155-.214.247.247 0 00-.129-.23.254.254 0 00-.267.014c-.316.173-.623.352-.924.535a.246.246 0 00-.105.277zm4.004-1.698a.257.257 0 01-.24-.085.249.249 0 01-.045-.248.254.254 0 01.195-.162c.326-.129.658-.253 1.005-.371a.265.265 0 01.334.166.26.26 0 01-.169.329 20.81 20.81 0 00-.98.361.294.294 0 01-.1.01zm8.231-1.678A.25.25 0 0163 34.48a.25.25 0 01.251-.247c.192 0 .384-.01.578-.018.162-.007.325-.015.488-.017a.25.25 0 01.25.248.25.25 0 01-.25.247c-.352 0-.704 0-1.046.03l-.02.005z" clip-rule="evenodd"/><path fill="#DAE1E7" fill-rule="evenodd" d="M36.9 60.668h-1v-.99h-.664v.99h-.995v.659h.995v.995h.664v-.995h1v-.659z" clip-rule="evenodd"/><path fill="#fff" d="M57.668 3.752c.913 0 1.654-.729 1.654-1.628 0-.9-.74-1.629-1.654-1.629-.913 0-1.653.73-1.653 1.629 0 .9.74 1.628 1.653 1.628z"/><path fill="#CED6DE" fill-rule="evenodd" d="M55.513 2.124c0 1.173.965 2.124 2.155 2.124.572 0 1.12-.224 1.525-.623.404-.398.631-.938.631-1.501C59.824.95 58.86 0 57.668 0c-1.19 0-2.155.95-2.155 2.124zm1.005 0c0-.626.515-1.134 1.15-1.134.636 0 1.151.508 1.151 1.134 0 .626-.515 1.133-1.15 1.133a1.142 1.142 0 01-1.151-1.133z" clip-rule="evenodd"/><rect width="86.729" height="58.059" x="5.769" y="19.297" fill="#fff" rx="6.73"/><path fill="#717790" fill-rule="evenodd" d="M9.15 77.852h79.96c2.144 0 3.882-1.71 3.885-3.822V22.639c-.003-2.113-1.74-3.824-3.885-3.827H9.15c-2.14.003-3.875 1.708-3.884 3.817v51.4c.003 2.112 1.741 3.823 3.885 3.823zM6.272 22.639c.003-1.566 1.29-2.834 2.88-2.837h79.96c1.585.003 2.87 1.265 2.879 2.827v51.4c-.003 1.565-1.291 2.832-2.88 2.832H9.15c-1.588 0-2.876-1.267-2.879-2.831V22.639z" clip-rule="evenodd"/><path fill="#A9E0D0" d="M9.15 19.099h79.96c1.868 0 3.382 1.492 3.382 3.332v6.708H5.77V22.43c0-1.84 1.514-3.332 3.382-3.332z"/><path fill="#717790" fill-rule="evenodd" d="M5.769 29.634h86.724a.499.499 0 00.502-.495V22.43c-.003-2.113-1.74-3.824-3.885-3.827H9.15c-2.143.003-3.88 1.714-3.884 3.827v6.708a.5.5 0 00.503.495zm86.22-.99H6.272V22.43c.003-1.566 1.29-2.834 2.88-2.837h79.96c1.589.003 2.876 1.271 2.879 2.837v6.213z" clip-rule="evenodd"/><path fill="#F1F3F8" d="M63.105 44.06v32.806l27.77-.064a.805.805 0 00.561-.238.78.78 0 00.227-.56l.257-33.207-27.518-.035a1.905 1.905 0 00-1.297 1.297z"/><path fill="#A9E0D0" d="M65.523 45.243h25.522l5.784 6.02v30.02H65.523v-36.04z"/><path fill="#717790" fill-rule="evenodd" d="M65.523 81.777h31.306a.499.499 0 00.503-.495v-30.02a.491.491 0 00-.136-.341l-5.789-6.02a.506.506 0 00-.362-.154H65.523a.499.499 0 00-.503.496v36.04c0 .273.225.494.503.494zm30.804-.99H66.025v-35.05H90.83l5.498 5.748v29.302z" clip-rule="evenodd"/><path fill="#fff" d="M96.83 51.262l-5.76-.153-.025-5.866 5.784 6.02z"/><path fill="#717790" fill-rule="evenodd" d="M91.07 51.515l5.76.153a.407.407 0 00.376-.237.387.387 0 00-.075-.44l-5.754-6.03a.427.427 0 00-.452-.1.401.401 0 00-.257.382v5.866c.003.22.18.398.402.406zm4.78-.683l-4.368-.12-.025-4.45 4.392 4.57z" clip-rule="evenodd"/><path fill="#fff" d="M59.176 59.352h24.538v10.649H59.176z"/><path fill="#717790" fill-rule="evenodd" d="M58.673 70.495h25.548V58.856H58.673v11.639zm24.543-.99H59.678v-9.658h23.538v9.658z" clip-rule="evenodd"/><rect width="27.266" height="35.059" x="17.256" y="34.941" fill="#F1F3F8" rx="4.48"/><path fill="#717790" d="M68.221 63.926L67 64.03a1.427 1.427 0 00-1.508-1.208c-1.005 0-1.653.718-1.653 1.851 0 1.208.729 1.852 1.659 1.852a1.412 1.412 0 001.507-1.188l1.226.104c-.218 1.275-1.378 2.182-2.688 2.104-1.564-.064-2.799-1.332-2.799-2.874s1.235-2.81 2.799-2.874c1.314-.07 2.47.849 2.678 2.129zm5.357-.411l-1.196.06a.767.767 0 00-.262-.583.792.792 0 00-.618-.19c-.537 0-.839.272-.839.668s.327.545 1.106.723c1.156.292 1.924.654 1.924 1.644 0 1.188-.95 1.708-2.085 1.708-1.312 0-2.256-.634-2.271-1.793l1.19-.059a.95.95 0 00.358.65.978.978 0 00.723.202c.502 0 .894-.184.894-.64 0-.454-.406-.583-1.165-.771-1.005-.253-1.87-.545-1.87-1.624 0-.92.659-1.713 2.01-1.713 1.231 0 2.07.644 2.1 1.718zm3.377 3.95l-2.387-5.584h1.276l1.603 3.792 1.588-3.792h1.287l-2.382 5.584h-.985z"/><path fill="#717790" fill-rule="evenodd" d="M19 70.495h22.769c1.52-.003 2.75-1.216 2.754-2.713V37.154c-.003-1.497-1.235-2.709-2.754-2.709H19c-1.519 0-2.751 1.212-2.754 2.709v30.628c.003 1.497 1.234 2.71 2.754 2.713zm-1.749-33.342c.003-.95.785-1.717 1.749-1.717h22.769c.964 0 1.746.768 1.749 1.718v30.628c0 .952-.783 1.723-1.75 1.723H19c-.966 0-1.749-.771-1.749-1.723V37.154z" clip-rule="evenodd"/><path fill="#717790" d="M54.518 63.52c-4.352 0-7.85-1.277-10.418-3.807-5.407-5.307-4.758-14.168-4.728-14.525a.496.496 0 01.284-.41.51.51 0 01.502.037c.149.1.232.27.219.447 0 .09-.623 8.773 4.442 13.758 2.709 2.663 6.578 3.822 11.487 3.44a.507.507 0 01.456.214.49.49 0 01.04.495.504.504 0 01-.415.282c-.643.044-1.266.069-1.87.069z"/><path fill="#717790" d="M36.864 48.515a.507.507 0 01-.331-.124.49.49 0 01-.046-.698l3.09-3.465a.506.506 0 01.76.005l3.015 3.435a.49.49 0 01.092.487.507.507 0 01-.856.157l-2.638-3-2.714 3.04a.506.506 0 01-.372.163z"/><path fill="#fff" d="M11.357 25.426c.732 0 1.326-.585 1.326-1.307s-.594-1.307-1.326-1.307c-.733 0-1.327.585-1.327 1.307s.594 1.307 1.327 1.307z"/><path fill="#717790" fill-rule="evenodd" d="M9.667 24.808a1.83 1.83 0 001.69 1.113c1.009-.003 1.826-.808 1.829-1.802 0-.729-.446-1.386-1.13-1.665a1.85 1.85 0 00-1.993.39 1.782 1.782 0 00-.396 1.964zm.866-.69c0-.448.369-.811.824-.811a.823.823 0 01.824.812.818.818 0 01-.824.812.818.818 0 01-.824-.812z" clip-rule="evenodd"/><path fill="#fff" d="M16.884 25.426c.733 0 1.327-.585 1.327-1.307s-.594-1.307-1.327-1.307c-.732 0-1.326.585-1.326 1.307s.594 1.307 1.326 1.307z"/><path fill="#717790" fill-rule="evenodd" d="M15.055 24.119c0 .995.82 1.802 1.83 1.802 1.008-.003 1.826-.808 1.829-1.802 0-.995-.82-1.802-1.83-1.802-1.01 0-1.829.807-1.829 1.802zm1.005 0c0-.449.37-.812.824-.812a.823.823 0 01.825.812.818.818 0 01-.825.812.818.818 0 01-.824-.812z" clip-rule="evenodd"/><path fill="#fff" d="M22.412 25.426c.733 0 1.327-.585 1.327-1.307s-.594-1.307-1.327-1.307-1.327.585-1.327 1.307.594 1.307 1.327 1.307z"/><path fill="#717790" fill-rule="evenodd" d="M20.583 24.119c0 .995.819 1.802 1.83 1.802 1.008-.003 1.825-.808 1.828-1.802 0-.995-.819-1.802-1.829-1.802s-1.83.807-1.83 1.802zm1.005 0c0-.449.369-.812.824-.812a.823.823 0 01.824.812.818.818 0 01-.824.812.818.818 0 01-.824-.812z" clip-rule="evenodd"/></svg>