<svg width="20" height="20" viewBox="0 0 20 20" fill="none" xmlns="http://www.w3.org/2000/svg">
<path fill-rule="evenodd" clip-rule="evenodd" d="M10 18.75C5.175 18.75 1.25 14.825 1.25 10C1.25 5.175 5.175 1.25 10 1.25C14.825 1.25 18.75 5.175 18.75 10C18.75 14.825 14.825 18.75 10 18.75ZM10 2.75C6 2.75 2.75 6 2.75 10C2.75 14 6 17.25 10 17.25C14 17.25 17.25 14 17.25 10C17.25 6 14 2.75 10 2.75ZM10 11.525C9.58753 11.525 9.25003 11.1875 9.25003 10.775V5.62503C9.25003 5.21253 9.58753 4.87503 10 4.87503C10.4125 4.87503 10.75 5.21253 10.75 5.62503V10.775C10.75 11.1875 10.4125 11.525 10 11.525ZM10.9375 13.4375C10.9375 13.9553 10.5178 14.375 10 14.375C9.48223 14.375 9.0625 13.9553 9.0625 13.4375C9.0625 12.9197 9.48223 12.5 10 12.5C10.5178 12.5 10.9375 12.9197 10.9375 13.4375Z" fill="var(--color-icon-semantic-warning)"/>
</svg>
