<svg width="20" height="20" viewBox="0 0 20 20" fill="none" xmlns="http://www.w3.org/2000/svg">
<path fill-rule="evenodd" clip-rule="evenodd" d="M10 1.25C5.175 1.25 1.25 5.175 1.25 10C1.25 14.825 5.175 18.75 10 18.75C14.825 18.75 18.75 14.825 18.75 10C18.75 5.175 14.825 1.25 10 1.25ZM10 17.25C6 17.25 2.75 14 2.75 10C2.75 6 6 2.75 10 2.75C14 2.75 17.25 6 17.25 10C17.25 14 14 17.25 10 17.25ZM10 7.80005C10.625 7.80005 11.1375 7.28755 11.1375 6.66255C11.1375 6.03755 10.625 5.52505 10 5.52505C9.37503 5.52505 8.86253 6.03755 8.86253 6.66255C8.86253 7.28755 9.37503 7.80005 10 7.80005ZM10 6.30005C10.2 6.30005 10.3625 6.46255 10.3625 6.66255C10.3625 6.86255 10.2 7.02505 10 7.02505C9.80003 7.02505 9.63753 6.86255 9.63753 6.66255C9.63753 6.46255 9.80003 6.30005 10 6.30005ZM10.75 12.9624H11.075C11.4875 12.9624 11.825 13.2999 11.825 13.7124C11.825 14.1249 11.4875 14.4624 11.075 14.4624H8.90002C8.48752 14.4624 8.15002 14.1249 8.15002 13.7124C8.15002 13.2999 8.48752 12.9624 8.90002 12.9624H9.23752V10.3124C8.93752 10.2124 8.70002 9.93744 8.70002 9.59995C8.70002 9.18745 9.03752 8.84995 9.45002 8.84995H10.5375C10.95 8.84995 11.2875 9.18745 11.2875 9.59995C11.2875 9.94995 11.0625 10.2249 10.75 10.3124V12.9624Z" fill="var(--color-icon-semantic-info)"/>
</svg>
