<svg width="18" height="16" viewBox="0 0 18 16" fill="none" xmlns="http://www.w3.org/2000/svg">
<path fill-rule="evenodd" clip-rule="evenodd" d="M15.9467 15.4229H2.04041C1.29497 15.4229 0.626639 15.0373 0.266771 14.3947C-0.093097 13.7521 -0.0930971 12.981 0.292476 12.3512L7.2585 0.989637C7.63122 0.372721 8.28669 0 9.00643 0C9.72616 0 10.3816 0.372721 10.7544 0.989637L17.7075 12.3383C18.0931 12.981 18.0931 13.7393 17.7332 14.3819C17.3605 15.0245 16.705 15.4101 15.9596 15.4101L15.9467 15.4229ZM8.99357 1.54229C8.90361 1.54229 8.69797 1.568 8.56944 1.78649L1.60342 13.1352C1.4749 13.3537 1.55201 13.5465 1.60342 13.6236C1.64198 13.7007 1.77051 13.8806 2.04041 13.8806H15.9467C16.2126 13.8806 16.3288 13.7061 16.3814 13.6271L16.3837 13.6236C16.4351 13.5465 16.5122 13.3537 16.3837 13.1352L9.43056 1.78649C9.30203 1.568 9.08354 1.54229 9.00643 1.54229H8.99357ZM8.9936 9.94776C8.56947 9.94776 8.22245 9.60074 8.22245 9.17661V5.24377C8.22245 4.81964 8.56947 4.47262 8.9936 4.47262C9.41773 4.47262 9.76474 4.81964 9.76474 5.24377V9.17661C9.76474 9.60074 9.41773 9.94776 8.9936 9.94776ZM8.22245 11.5415C8.22245 11.1174 8.56947 10.7703 8.9936 10.7703C9.41773 10.7703 9.76474 11.1174 9.76474 11.5415C9.76474 11.9656 9.41773 12.3126 8.9936 12.3126C8.56947 12.3126 8.22245 11.9656 8.22245 11.5415Z" fill="var(--color-icon-semantic-error)"/>
</svg>
