<svg width="20" height="20" viewBox="0 0 20 20" fill="none" xmlns="http://www.w3.org/2000/svg">
<path fill-rule="evenodd" clip-rule="evenodd" d="M1.25 10C1.25 5.175 5.175 1.25 10 1.25C14.825 1.25 18.75 5.175 18.75 10C18.75 14.825 14.825 18.75 10 18.75C5.175 18.75 1.25 14.825 1.25 10ZM2.75 10C2.75 14 6 17.25 10 17.25C14 17.25 17.25 14 17.25 10C17.25 6 14 2.75 10 2.75C6 2.75 2.75 6 2.75 10ZM8.86249 11.3124L12.8875 7.28745C13.1875 6.99995 13.6625 6.98745 13.95 7.28745C14.2375 7.58745 14.2375 8.06245 13.95 8.34995L9.38749 12.9124C9.24999 13.0624 9.04999 13.1374 8.86249 13.1374C8.67499 13.1374 8.47499 13.0499 8.33749 12.9124L6.16249 10.7374C5.87499 10.4374 5.86249 9.96245 6.16249 9.67495C6.46249 9.38745 6.93749 9.38745 7.22499 9.67495L8.86249 11.3124Z" fill="var
(--color-icon-semantic-success)"/>
</svg>
