<svg width="10" height="10" viewBox="0 0 10 10" fill="none" xmlns="http://www.w3.org/2000/svg">
<path d="M6.50728 5L9.68783 8.18055C10.1041 8.59677 10.1041 9.27161 9.68783 9.68783C9.27161 10.1041 8.59677 10.1041 8.18055 9.68783L5 6.50728L1.81945 9.68783C1.40323 10.1041 0.728392 10.1041 0.312168 9.68783C-0.104056 9.27161 -0.104056 8.59677 0.312168 8.18055L3.49272 5L0.312168 1.81945C-0.104056 1.40323 -0.104056 0.728392 0.312168 0.312168C0.728392 -0.104056 1.40323 -0.104056 1.81945 0.312168L5 3.49272L8.18055 0.312168C8.59677 -0.104056 9.27161 -0.104056 9.68783 0.312168C10.1041 0.728392 10.1041 1.40323 9.68783 1.81945L6.50728 5Z" fill="var(--color-icon-primary)"/>
</svg>
