<svg width="16" height="16" viewBox="0 0 16 16" fill="none" xmlns="http://www.w3.org/2000/svg" data-icon-name="dew-solutions"><path d="M6.31543 12.8945C6.99529 12.8946 7.6656 13.1654 8.14551 13.6553L8.19531 13.6055C8.67521 13.1456 9.30477 12.8946 9.97461 12.8945H14.375C14.705 12.8945 14.9746 13.1651 14.9746 13.4951C14.9745 13.8251 14.705 14.0947 14.375 14.0947H9.98535C9.63547 14.0947 9.29512 14.2248 9.03516 14.4746L8.55469 14.9346C8.4448 15.0544 8.3053 15.1054 8.14551 15.1055C7.98551 15.1055 7.83484 15.0448 7.71484 14.9248L7.29492 14.5049C7.03503 14.2451 6.67524 14.0948 6.31543 14.0947H1.625C1.29505 14.0947 1.02545 13.8251 1.02539 13.4951C1.02539 13.1651 1.29502 12.8946 1.625 12.8945H6.31543ZM5.99707 0.894531C6.80818 0.894531 7.52933 1.26204 8 1.83203C8.47067 1.26204 9.19183 0.894531 10.0029 0.894531H13.3975C14.2786 0.894531 14.9997 1.5904 15 2.44043V8.79883C14.9997 9.64871 14.2891 10.3347 13.4082 10.335L9.97266 10.3633L8.16016 10.876C8.10023 10.8952 8.05015 10.8945 7.99023 10.8945C7.93015 10.8945 7.87942 10.8953 7.81934 10.876L5.94727 10.3447C5.91739 10.3255 5.8378 10.3252 5.83691 10.3252H2.60254C1.72136 10.3252 1.00014 9.62943 1 8.7793V2.44043C1.00026 1.5904 1.72144 0.894531 2.60254 0.894531H5.99707ZM2.60254 2.05469C2.38238 2.05469 2.20241 2.22808 2.20215 2.44043V8.76953C2.20223 8.98203 2.39228 9.15625 2.60254 9.15625H5.83691C5.98699 9.15625 6.13704 9.17529 6.28711 9.21387L6.27734 9.22363L7.37891 9.53223V3.3877C7.37888 2.65342 6.75814 2.05469 5.99707 2.05469H2.60254ZM10.0029 2.05469C9.24187 2.05469 8.62138 2.65342 8.61133 3.3877V9.52344L10.083 9.15625H13.4082C13.6182 9.156 13.7977 8.99158 13.7979 8.7793V2.44043C13.7976 2.22808 13.6176 2.05469 13.3975 2.05469H10.0029Z" fill="var(--color-icon-primary)"/></svg>