<svg width="17" height="17" viewBox="0 0 17 17" fill="none" xmlns="http://www.w3.org/2000/svg" data-icon-name="dew-download">
<path fill-rule="evenodd" clip-rule="evenodd" d="M8.85652 10.8709C8.70652 10.8709 8.55652 10.8209 8.43652 10.7009H8.42652L5.60652 7.89093C5.37652 7.65093 5.37652 7.27093 5.60652 7.04093C5.83652 6.81093 6.21652 6.81093 6.45652 7.04093L8.25652 8.83092V1.86093C8.25652 1.53093 8.52652 1.26093 8.85652 1.26093C9.18652 1.26093 9.45652 1.53093 9.45652 1.86093V8.83092L11.2465 7.04093C11.4865 6.80093 11.8665 6.81093 12.0965 7.04093C12.3365 7.28093 12.3265 7.66093 12.0965 7.89093L9.27652 10.7009C9.16652 10.8109 9.00652 10.8709 8.85652 10.8709ZM14.4665 10.3109C14.4665 9.98094 14.7365 9.71094 15.0665 9.71094C15.3965 9.71094 15.6665 9.98094 15.6665 10.3109V12.6809C15.6665 14.1109 14.5065 15.2709 13.0765 15.2709H4.2565C2.8265 15.2709 1.6665 14.1109 1.6665 12.6809V10.3109C1.6665 9.98094 1.9365 9.71094 2.2665 9.71094C2.5965 9.71094 2.8665 9.98094 2.8665 10.3109V12.6809C2.8665 13.4509 3.4865 14.0709 4.2565 14.0709H13.0765C13.8365 14.0709 14.4665 13.4409 14.4665 12.6809V10.3109Z" fill="var(--color-icon-primary)"/>
</svg>