<svg width="16" height="17" viewBox="0 0 16 17" fill="none" xmlns="http://www.w3.org/2000/svg" data-icon-name="dew-explore"><path fill-rule="evenodd" clip-rule="evenodd" d="M10.269 1.348c.35.09.63.31.81.62l-.01-.01 2.35 4.09c.37.63.15 1.44-.48 1.81l-1.02.59c-.2.12-.43.18-.66.18a1.33 1.33 0 0 1-.77-.26l-2.16.93 3.13 5.05c.18.29.09.66-.19.83-.29.18-.66.09-.83-.19l-2.63-4.25-2.29 4.24a.595.595 0 0 1-.81.25.593.593 0 0 1-.24-.81l2.42-4.48-2.4 1.03a1.456 1.456 0 0 1-1.84-.61l-.07-.13-.66.42a.6.6 0 0 1-.32.09c-.2 0-.4-.1-.51-.28a.61.61 0 0 1 .19-.83l.74-.47c-.24-.61-.07-1.3.46-1.7l5.18-3.9c-.15-.57.06-1.18.59-1.49l1.02-.59c.3-.17.66-.22 1-.13m-6.58 8.4c.06.11.21.16.33.11h-.01l5.76-2.47-1.57-2.74-5.01 3.77c-.11.08-.14.23-.07.35zm7.64-2.33 1.02-.59c.06-.03.09-.11.05-.17l-2.36-4.09-.17-.04-1.02.59c-.06.03-.09.11-.05.17l2.36 4.09zm1.93-5.85c.62.02 1.18.36 1.49.9s.32 1.19.03 1.74c-.11.2-.32.32-.53.32-.09 0-.19-.02-.28-.07a.59.59 0 0 1-.25-.81c.1-.18.09-.4-.01-.58s-.28-.3-.49-.3a.6.6 0 0 1-.58-.62c.01-.33.29-.58.62-.58" fill="var(--color-icon-selected)"/></svg>