<svg width="16" height="17" viewBox="0 0 16 17" fill="none" xmlns="http://www.w3.org/2000/svg" data-icon-name="dew-cross">
<path d="M10.8231 10.2161L8.85405 8.25716L10.813 6.28813C11.0441 6.04703 11.0441 5.66528 10.813 5.43422C10.5719 5.20316 10.1902 5.20316 9.95912 5.43422L8.00014 7.40324L6.03111 5.44427C5.79001 5.21321 5.40826 5.21321 5.1772 5.44427C4.94614 5.68537 4.94614 6.06712 5.1772 6.29818L7.14623 8.25716L5.18725 10.2362C4.95619 10.4773 4.95619 10.8591 5.18725 11.0901C5.3078 11.2107 5.45849 11.2609 5.60918 11.2609C5.75987 11.2609 5.92061 11.2006 6.04116 11.0801L8.00014 9.11107L9.96916 11.0701C10.0897 11.1906 10.2404 11.2408 10.3911 11.2408C10.5418 11.2408 10.7025 11.1806 10.8231 11.06C11.0541 10.8189 11.0541 10.4371 10.8231 10.2061V10.2161Z" fill="var(--color-icon-primary)"/>
</svg>