<svg width="16" height="16" viewBox="0 0 16 16" fill="none" xmlns="http://www.w3.org/2000/svg" data-icon-name="dew-search">
<path fill-rule="evenodd" clip-rule="evenodd" d="M11.7143 10.9144L15.0423 14.2424C15.1508 14.3477 15.2114 14.4929 15.2099 14.6441C15.2084 14.7953 15.1449 14.9393 15.0343 15.0424C14.9325 15.1502 14.7906 15.2111 14.6423 15.2104C14.4918 15.2104 14.3476 15.1499 14.2423 15.0424L10.9143 11.7144C8.37629 13.8249 4.62742 13.5666 2.40285 11.128C0.178278 8.68939 0.264439 4.93262 2.59847 2.59859C4.9325 0.264561 8.68927 0.1784 11.1278 2.40297C13.5664 4.62754 13.8247 8.37641 11.7143 10.9144ZM5.0354 2.29528C3.14961 3.08165 1.92382 4.92724 1.9303 6.97041C1.94349 9.75027 4.19841 11.998 6.9783 12.0024C9.02148 12.0024 10.8632 10.7708 11.6436 8.88248C12.4239 6.99421 11.9891 4.82173 10.5421 3.37928C9.09504 1.93682 6.92119 1.5089 5.0354 2.29528Z" fill="var(--color-icon-primary)" />
</svg>