<svg xmlns="http://www.w3.org/2000/svg" width="24" height="24" fill="none" viewBox="0 0 24 24"><path fill="none" d="M0 0H24V24H0z"/><path fill="var(--color-icon-primary)" d="M11.5 10.8a.7.7 0 0 0 0 1.3h3.3a.7.7 0 1 0 0-1.3h-3.3ZM10.9 15c0-.4.3-.7.6-.7h3.3a.7.7 0 0 1 0 1.3h-3.3a.7.7 0 0 1-.6-.6ZM8.5 11.2c0-.3.3-.4.6-.4a.7.7 0 0 1 .7.6.7.7 0 0 1-1.2.5.7.7 0 0 1-.1-.7ZM9.1 14.3c-.3 0-.5.2-.6.4-.1.3 0 .6.1.8.2.1.5.2.8.1a.7.7 0 0 0 .2-1.1.7.7 0 0 0-.5-.2Z"/><path fill="var(--color-icon-primary)" fill-rule="evenodd" d="M7.7 4.1c-1.3 0-2.3 1-2.3 2.4v11c0 1.3 1 2.4 2.3 2.4h8.5c1.3 0 2.4-1 2.4-2.4v-11c0-1.3-1-2.4-2.3-2.4H7.7Zm-1 2.4c0-.6.5-1 1-1h.7v1.7c0 .6.4 1 1 1h5.1c.6 0 1-.4 1-1V5.5h.8c.5 0 1 .4 1 1v11c0 .6-.5 1-1 1H7.6a1 1 0 0 1-1-1v-11Zm7.4-1H9.8v1.3h4.3V5.5Z" clip-rule="evenodd"/></svg>