<svg width="17" height="17" viewBox="0 0 17 17" fill="none" xmlns="http://www.w3.org/2000/svg" data-icon-name="dew-multilingual">
<path fill-rule="evenodd" clip-rule="evenodd" d="M11.5367 4.59111L7.69675 8.43111L7.67675 8.42111L8.74675 9.49111C8.97675 9.73111 8.97675 10.1111 8.74675 10.3411C8.63675 10.4611 8.47675 10.5211 8.32675 10.5211C8.17675 10.5211 8.02675 10.4711 7.90675 10.3511L6.83675 9.28111L3.68675 12.4311C3.57675 12.5411 3.41675 12.6011 3.26675 12.6011C3.11675 12.6011 2.96675 12.5411 2.84675 12.4211C2.61675 12.1811 2.61675 11.8011 2.84675 11.5711L5.99675 8.43111L4.79675 7.23111C4.56675 6.99111 4.55675 6.61111 4.79675 6.38111C5.03675 6.15111 5.41675 6.15111 5.64675 6.38111L6.84675 7.58111L9.83675 4.59111H2.26675C1.93675 4.59111 1.66675 4.32111 1.66675 3.99111C1.66675 3.66111 1.93675 3.39111 2.26675 3.39111H6.46675V1.99111C6.46675 1.66111 6.73675 1.39111 7.06675 1.39111C7.39675 1.39111 7.66675 1.66111 7.66675 1.99111V3.39111H12.0767C12.4067 3.39111 12.6767 3.66111 12.6767 3.99111C12.6767 4.32111 12.4067 4.59111 12.0767 4.59111H11.5367ZM13.1668 8.50111L15.6168 14.5611V14.5711C15.7468 14.8811 15.5968 15.2311 15.2868 15.3511C15.2168 15.3811 15.1468 15.3911 15.0668 15.3911C14.8268 15.3911 14.5968 15.2411 14.5068 15.0111L13.7968 13.2511H11.3568L10.6168 15.0211C10.4868 15.3311 10.1268 15.4711 9.82675 15.3411C9.51676 15.2111 9.37676 14.8611 9.50676 14.5511L12.0568 8.49111C12.1568 8.26111 12.3768 8.12111 12.6168 8.12111C12.8568 8.13111 13.0768 8.27111 13.1668 8.50111ZM12.6068 10.3011L11.8668 12.0511H13.3168L12.6068 10.3011Z" fill="var(--color-icon-primary)"/>
</svg>