<svg width="16" height="17" viewBox="0 0 16 17" fill="none" xmlns="http://www.w3.org/2000/svg" data-icon-name="dew-refresh">
<path d="M8 1.43457C4.13 1.43457 1 4.57457 1 8.43457C1 10.1046 1.58 11.6646 2.62 12.9146H1.83C1.5 12.9146 1.23 13.1846 1.23 13.5146C1.23 13.8446 1.5 14.1146 1.83 14.1146H4.11C4.11 14.1146 4.13 14.1146 4.14 14.1146C4.18 14.1146 4.22 14.1046 4.26 14.0946C4.3 14.0846 4.33 14.0746 4.37 14.0546C4.4 14.0446 4.43 14.0146 4.45 13.9946C4.49 13.9646 4.52 13.9446 4.55 13.9046C4.55 13.9046 4.57 13.8946 4.57 13.8846C4.58 13.8646 4.59 13.8446 4.6 13.8346C4.62 13.7946 4.65 13.7546 4.66 13.7046C4.67 13.6746 4.68 13.6346 4.68 13.6046C4.68 13.5746 4.7 13.5546 4.7 13.5246V11.2446C4.7 10.9146 4.43 10.6446 4.1 10.6446C3.77 10.6446 3.5 10.9146 3.5 11.2446V12.1146C2.66 11.0946 2.19 9.80457 2.19 8.44457C2.19 5.24457 4.79 2.64457 7.99 2.64457C11.19 2.64457 13.79 5.24457 13.79 8.44457C13.79 11.6446 11.19 14.2446 7.99 14.2446C7.66 14.2446 7.39 14.5146 7.39 14.8446C7.39 15.1746 7.66 15.4446 7.99 15.4446C11.85 15.4446 14.99 12.3046 14.99 8.44457C14.99 4.58457 11.86 1.43457 8 1.43457Z" fill="var(--color-icon-primary)"/>
</svg>