<svg width="16" height="17" viewBox="0 0 16 17" fill="none" xmlns="http://www.w3.org/2000/svg" data-icon-name="dew-folder">
<path d="M14.7 7.04426C14.39 6.62426 13.9 6.37426 13.37 6.37426H13.16V5.72426C13.16 4.61426 12.23 3.71426 11.08 3.71426H7.2C7.08 3.71426 6.98 3.67426 6.89 3.59426L6.01 2.75426C5.7 2.46426 5.3 2.30426 4.88 2.30426H3.08C1.93 2.30426 1 3.20426 1 4.30426V12.2943C1 12.6643 1.11 13.0243 1.31 13.3443C1.31 13.3443 1.31 13.3443 1.31 13.3543C1.69 13.9443 2.35 14.3043 3.07 14.3043H11.22C12.27 14.3043 13.19 13.6543 13.51 12.6943L14.91 8.45426C15.07 7.96426 14.99 7.45426 14.69 7.03426L14.7 7.04426ZM3.08 3.51426H4.88C4.99 3.51426 5.11 3.55426 5.19 3.63426L6.07 4.47426C6.37 4.76426 6.78 4.92426 7.2 4.92426H11.08C11.57 4.92426 11.96 5.28426 11.96 5.73426V6.38426H4.57C3.86 6.38426 3.24 6.83426 3.02 7.49426L2.2 9.99426V4.33426C2.2 3.89426 2.6 3.53426 3.08 3.53426V3.51426ZM13.78 8.08426L12.39 12.3243C12.23 12.7943 11.77 13.1143 11.24 13.1143H3.08C2.86 13.1143 2.65 13.0343 2.5 12.9043L4.17 7.84426C4.22 7.67426 4.39 7.56426 4.58 7.56426H13.38C13.53 7.56426 13.66 7.62426 13.74 7.74426C13.78 7.80426 13.85 7.92426 13.79 8.08426H13.78Z" fill="var(--color-icon-primary)"/>
</svg>