<svg width="17" height="17" viewBox="0 0 16 16" fill="none" xmlns="http://www.w3.org/2000/svg" data-icon-name="dew-filter">
<path d="M7.56658 15.3043C7.17658 15.3043 6.79658 15.1843 6.48658 14.9443C6.07658 14.6343 5.83658 14.1743 5.83658 13.6743V10.6443C5.83658 10.5743 5.81658 10.5143 5.77658 10.4543L1.57658 3.76426C1.26658 3.27426 1.25658 2.68426 1.52658 2.18426C1.82658 1.64426 2.41658 1.30426 3.05658 1.30426H13.5966C14.2466 1.30426 14.8366 1.64426 15.1266 2.18426C15.4066 2.68426 15.3866 3.28426 15.0766 3.77426L10.8466 10.4543C10.8066 10.5143 10.7866 10.5843 10.7866 10.6443V13.2443C10.7866 13.9643 10.2966 14.5943 9.56658 14.8043L8.05658 15.2343C7.88658 15.2843 7.72658 15.3043 7.55658 15.3043H7.56658ZM3.06658 2.50426C2.81658 2.50426 2.65658 2.63426 2.58658 2.76426C2.53658 2.84426 2.50658 2.98426 2.59658 3.13426L6.79658 9.81426C6.95658 10.0643 7.03658 10.3543 7.03658 10.6443V13.6743C7.03658 13.8343 7.14658 13.9443 7.20658 13.9843C7.35658 14.0943 7.55658 14.1343 7.73658 14.0743L9.24658 13.6443C9.45658 13.5843 9.60658 13.4243 9.60658 13.2443V10.6443C9.60658 10.3443 9.68658 10.0643 9.85658 9.80426L14.0866 3.12426C14.1766 2.97426 14.1466 2.84426 14.0966 2.76426C14.0266 2.64426 13.8666 2.50426 13.6166 2.50426H3.06658Z" fill="var(--color-icon-primary)"/>
</svg>