<svg xmlns="http://www.w3.org/2000/svg" width="16" height="16" fill="none" viewBox="0 0 16 16" data-icon-name="dew-related-article">
<path fill-rule="evenodd" clip-rule="evenodd" d="M12.18 8.64H14.4V8.63C14.73 8.63 15 8.9 15 9.23V12.4C15 13.83 13.83 15 12.4 15H3.6C2.17 15 1 13.83 1 12.4V3.6C1 2.17 2.16 1 3.6 1H9.58C11.01 1 12.18 2.17 12.18 3.6V8.64ZM2.2 3.6V12.4C2.2 13.17 2.83 13.8 3.6 13.8H10.98V3.6C10.98 2.83 10.35 2.2 9.58 2.2H3.6C2.83 2.2 2.2 2.83 2.2 3.6ZM12.4 13.81C13.17 13.81 13.8 13.18 13.8 12.41H13.81V9.84H12.2V13.59C12.2 13.65 12.23 13.71 12.27 13.75C12.3 13.78 12.34 13.8 12.35 13.8C12.37 13.8 12.4 13.81 12.4 13.81ZM4.80001 4.20999H8.39001C8.72001 4.20999 8.99001 4.47999 8.99001 4.80999C8.99001 5.13999 8.72001 5.40999 8.39001 5.40999H4.80001C4.47001 5.40999 4.20001 5.13999 4.20001 4.80999C4.20001 4.47999 4.47001 4.20999 4.80001 4.20999ZM8.39001 7.39999H4.80001C4.47001 7.39999 4.20001 7.66999 4.20001 7.99999C4.20001 8.32999 4.47001 8.59999 4.80001 8.59999H8.39001C8.72001 8.59999 8.99001 8.32999 8.99001 7.99999C8.99001 7.66999 8.72001 7.39999 8.39001 7.39999ZM4.80001 10.59H8.39001C8.72001 10.59 8.99001 10.86 8.99001 11.19C8.99001 11.52 8.72001 11.79 8.39001 11.79H4.80001C4.47001 11.79 4.20001 11.52 4.20001 11.19C4.20001 10.86 4.47001 10.59 4.80001 10.59Z" fill="var(--color-icon-semantic-info)"/>
</svg>