<svg width="16" height="16" viewBox="0 0 16 16" fill="none" xmlns="http://www.w3.org/2000/svg" data-icon-name="dew-plus"><path fill-rule="evenodd" clip-rule="evenodd" d="M3.04823 3.0464C5.78921 0.317866 10.2308 0.317866 12.9618 3.0464H12.9518C15.6827 5.78494 15.6827 10.2226 12.9518 12.9511C11.5913 14.3204 9.79064 15 8.00001 15C6.20937 15 4.40872 14.3104 3.04823 12.9511C0.317255 10.2126 0.317255 5.77494 3.04823 3.0464ZM3.89854 12.1016C6.15935 14.3603 9.85066 14.3603 12.1115 12.1016H12.1015C14.3623 9.84276 14.3623 6.15474 12.1015 3.89595C10.9711 2.76655 9.48054 2.19686 8.00001 2.19686C6.51948 2.19686 5.02894 2.76655 3.89854 3.89595C1.63773 6.15474 1.63773 9.84276 3.89854 12.1016ZM8.61018 7.39415H10.891C11.2211 7.39415 11.4912 7.66401 11.4912 7.99383C11.4912 8.32366 11.2211 8.59351 10.891 8.59351H8.61018V10.8723C8.61018 11.2021 8.34009 11.472 8.00997 11.472C7.67985 11.472 7.40975 11.2021 7.40975 10.8723V8.59351H5.12894C4.79882 8.59351 4.52872 8.32366 4.52872 7.99383C4.52872 7.66401 4.79882 7.39415 5.12894 7.39415H7.40975V5.11538C7.40975 4.78555 7.67985 4.5157 8.00997 4.5157C8.34009 4.5157 8.61018 4.78555 8.61018 5.11538V7.39415Z" fill="var(--color-fill-neutral-bold)"/></svg>