<svg width="16" height="17" viewBox="0 0 16 17" fill="none" xmlns="http://www.w3.org/2000/svg" data-icon-name="dew-fulfilled">
<path fill-rule="evenodd" clip-rule="evenodd" d="M1 8.9126C1 12.7726 4.14 15.9126 8 15.9126H8.01C11.87 15.9126 15.01 12.7726 15.01 8.9126C15.01 8.6026 14.98 8.2926 14.93 7.9126C14.88 7.5826 14.57 7.3626 14.25 7.4026C13.92 7.4526 13.69 7.7526 13.74 8.0826C13.79 8.4026 13.81 8.6626 13.81 8.9126C13.81 12.1126 11.21 14.7126 8.01 14.7126C4.81 14.7126 2.21 12.1126 2.21 8.9126C2.21 5.7126 4.81 3.1126 8.01 3.1126C8.73 3.1126 9.46 3.2626 10.17 3.5526C10.47 3.6826 10.83 3.5326 10.95 3.2226C11.07 2.9226 10.93 2.5726 10.62 2.4426C9.76 2.0926 8.88 1.9126 8 1.9126C4.14 1.9126 1 5.0526 1 8.9126ZM6.65003 11.2626C6.76003 11.3826 6.91003 11.4426 7.07003 11.4426L7.08003 11.4526C7.23003 11.4526 7.39003 11.3826 7.50003 11.2726L13.43 5.34257C13.66 5.10257 13.66 4.72257 13.43 4.49257C13.19 4.26257 12.81 4.26257 12.58 4.49257L7.08003 9.99257L5.49003 8.40257C5.25003 8.17257 4.88003 8.17257 4.64003 8.40257C4.41003 8.64257 4.41003 9.02257 4.64003 9.25257L6.65003 11.2626Z" fill="var(--color-fill-neutral-bold)"/>
</svg>