<svg width="16" height="16" viewBox="0 0 16 16" fill="none" xmlns="http://www.w3.org/2000/svg" data-icon-name="dew-form-task">
<rect width="16" height="16" />
<path fill-rule="evenodd" clip-rule="evenodd" d="M5.025 14.125H10.975C12.2262 14.125 13.25 13.1013 13.25 11.85V4.15C13.25 2.89875 12.2262 1.875 10.975 1.875H5.025C3.77375 1.875 2.75 2.89875 2.75 4.15V11.85C2.75 13.1013 3.77375 14.125 5.025 14.125ZM3.8 4.15C3.8 3.47625 4.35125 2.925 5.025 2.925H10.975C11.6488 2.925 12.2 3.47625 12.2 4.15V11.85C12.2 12.5238 11.6488 13.075 10.975 13.075H5.025C4.35125 13.075 3.8 12.5238 3.8 11.85V4.15ZM6.08377 5.75125H9.92502C10.2138 5.75125 10.45 5.515 10.45 5.22625C10.45 4.9375 10.2138 4.70125 9.92502 4.70125H6.08377C5.79502 4.70125 5.55877 4.9375 5.55877 5.22625C5.55877 5.515 5.79502 5.75125 6.08377 5.75125ZM9.92502 8.5425H6.08377C5.79502 8.5425 5.55877 8.30625 5.55877 8.0175C5.55877 7.72875 5.79502 7.4925 6.08377 7.4925H9.92502C10.2138 7.4925 10.45 7.72875 10.45 8.0175C10.45 8.30625 10.2138 8.5425 9.92502 8.5425ZM6.08377 11.3337H9.92502C10.2138 11.3337 10.45 11.0975 10.45 10.8087C10.45 10.52 10.2138 10.2837 9.92502 10.2837H6.08377C5.79502 10.2837 5.55877 10.52 5.55877 10.8087C5.55877 11.0975 5.79502 11.3337 6.08377 11.3337Z" fill="var(--color-fill-semantic-warning)"/>
</svg>
