<svg width="17" height="17" viewBox="0 0 17 17" fill="none" xmlns="http://www.w3.org/2000/svg" data-icon-name="dew-ellipsis">
<path fill-rule="evenodd" clip-rule="evenodd" d="M2.9165 14.674C3.60686 14.674 4.1665 14.1143 4.1665 13.424C4.1665 12.7336 3.60686 12.174 2.9165 12.174C2.22615 12.174 1.6665 12.7336 1.6665 13.424C1.6665 14.1143 2.22615 14.674 2.9165 14.674ZM8.6665 14.674C9.35686 14.674 9.9165 14.1143 9.9165 13.424C9.9165 12.7336 9.35686 12.174 8.6665 12.174C7.97615 12.174 7.4165 12.7336 7.4165 13.424C7.4165 14.1143 7.97615 14.674 8.6665 14.674ZM15.6665 13.424C15.6665 14.1143 15.1069 14.674 14.4165 14.674C13.7261 14.674 13.1665 14.1143 13.1665 13.424C13.1665 12.7336 13.7261 12.174 14.4165 12.174C15.1069 12.174 15.6665 12.7336 15.6665 13.424Z" fill="var(--color-fill-neutral-bold)"/>
</svg>