<svg data-icon-name="dew-export" width="17" height="17" viewBox="0 0 17 17" fill="none" xmlns="http://www.w3.org/2000/svg">
<path d="M8.66724 1.86914C12.533 1.86919 15.6665 5.00292 15.6667 8.86865C15.6667 11.9504 13.6757 14.5654 10.9116 15.5006C10.5966 15.6072 10.2547 15.4383 10.1481 15.1233C10.0419 14.8086 10.2109 14.4676 10.5254 14.3608C12.8153 13.5861 14.4632 11.4185 14.4632 8.86865C14.463 5.66803 11.8679 3.07367 8.66724 3.07362C5.46654 3.07362 2.87144 5.668 2.87123 8.86865C2.87123 11.4184 4.51826 13.586 6.80809 14.3608C7.12302 14.4674 7.29183 14.8084 7.1854 15.1233C7.07885 15.4383 6.73787 15.6071 6.42293 15.5006C3.65874 14.5654 1.66675 11.9504 1.66675 8.86865C1.66696 5.00289 4.80143 1.86914 8.66724 1.86914Z" fill="var(--color-icon-primary)"/>
<path d="M8.09097 5.1082C8.4437 4.75548 9.01623 4.75548 9.36895 5.1082L12.7041 8.44331C12.939 8.67848 12.9391 9.05989 12.7041 9.29497C12.469 9.53005 12.0876 9.52991 11.8524 9.29497L9.33171 6.77429V12.3184C9.33171 12.6509 9.06247 12.9211 8.72996 12.9212C8.39741 12.9212 8.12821 12.651 8.12821 12.3184V6.77429L5.60753 9.29497C5.3724 9.52998 4.99098 9.52999 4.75586 9.29497C4.52075 9.05986 4.52082 8.67847 4.75586 8.44331L8.09097 5.1082Z" fill="var(--color-icon-primary)"/>
</svg>