<svg width="17" height="17" viewBox="0 0 17 17" fill="none" xmlns="http://www.w3.org/2000/svg" data-icon-name="dew-arrow-left">
<path d="M12.7795 7.12381H5.12974L7.94281 4.04758C8.14245 3.82072 8.13337 3.48497 7.90651 3.27626C7.67965 3.06755 7.3439 3.0857 7.13519 3.31256L3.52357 7.25992C3.4056 7.35974 3.33301 7.50493 3.33301 7.66827C3.33301 7.83161 3.40561 7.96773 3.5145 8.06755L7.13519 12.024C7.24408 12.142 7.38927 12.1964 7.53446 12.1964C7.6615 12.1964 7.79762 12.151 7.90651 12.0512C8.1243 11.8516 8.14245 11.5067 7.94281 11.2799L5.12974 8.20366H12.7885C13.088 8.20366 13.333 7.95865 13.333 7.6592C13.333 7.35974 13.088 7.11473 12.7885 7.11473L12.7795 7.12381Z" fill="var(--color-icon-primary)"/>
</svg>