<svg data-icon-name="dew-location-nearby" width="17" height="17" fill="none" xmlns="http://www.w3.org/2000/svg"><path fill-rule="evenodd" clip-rule="evenodd" d="M7.82 11.653c.11.14.28.22.46.22s.35-.08.46-.22c0 0 2.827-3.468 2.957-3.618 1.49-1.669 1.37-4.187-.28-5.726-1.738-1.63-4.567-1.63-6.305 0-1.66 1.559-1.77 4.087-.25 5.756.17.2 2.938 3.588 2.938 3.588h.02zM5.95 3.178c1.29-1.2 3.378-1.2 4.667 0 1.18 1.11 1.27 2.858.2 4.057-.06.07-1.55 1.89-2.529 3.088a597.25 597.25 0 00-2.508-3.068c-1.1-1.199-1.02-2.958.18-4.087l-.01.01zm9.284 9.784l-.81-2.259c-.23-.65-.859-1.08-1.569-1.08h-.36c-.329 0-.599.27-.599.6 0 .33.27.6.6.6h.36c.2 0 .38.12.44.28l.799 2.258c.05.14 0 .25-.05.32-.09.12-.23.19-.4.19H2.993c-.16 0-.31-.07-.4-.19-.05-.07-.09-.18-.05-.32l.8-2.258c.06-.16.22-.27.42-.28.33-.02.58-.3.57-.63-.01-.33-.3-.57-.63-.57-.68.04-1.26.46-1.48 1.08l-.799 2.259c-.17.48-.1.99.2 1.409.31.44.83.7 1.379.7h10.663c.55 0 1.07-.26 1.38-.7.289-.42.369-.93.199-1.41h-.01zM9.928 5.327c0 .88-.72 1.599-1.599 1.599s-1.599-.72-1.599-1.6c0-.879.72-1.598 1.6-1.598.879 0 1.598.72 1.598 1.599zm-1.199 0a.4.4 0 00-.4-.4.4.4 0 00-.4.4c0 .22.18.4.4.4a.4.4 0 00.4-.4z" fill="var(--color-icon-primary)"/></svg>