<svg width="17" height="17" viewBox="0 0 17 17" fill="none" xmlns="http://www.w3.org/2000/svg" data-icon-name="dew-asset">
<path fill-rule="evenodd" clip-rule="evenodd" d="M8.66667 1.56494C8.60667 1.56494 8.54667 1.58494 8.49667 1.61494L1.49667 5.61494C1.30667 5.72494 1.31667 6.01494 1.50667 6.11494L8.52667 9.71494C8.59667 9.75494 8.67667 9.75494 8.74667 9.71494L15.4967 6.11494C15.6867 6.01494 15.6967 5.72494 15.5067 5.61494L8.83667 1.61494C8.78667 1.58494 8.72667 1.56494 8.66667 1.56494ZM8.66667 8.52494L3.00667 5.86494L8.66667 2.99494L14.0067 5.86494L8.66667 8.52494ZM8.49667 10.8849L1.49667 7.28494C1.21667 7.11494 1.17667 6.72494 1.40667 6.49494C1.48667 6.41494 1.58667 6.35494 1.70667 6.35494C1.78667 6.35494 1.86667 6.38494 1.93667 6.42494L8.66667 9.84494L15.3967 6.42494C15.7067 6.24494 16.0967 6.36494 16.2767 6.67494C16.4567 6.98494 16.3367 7.37494 16.0267 7.55494L8.83667 10.8849C8.78667 10.9149 8.72667 10.9349 8.66667 10.9349C8.60667 10.9349 8.54667 10.9149 8.49667 10.8849ZM8.49667 14.8849L1.49667 11.2849C1.21667 11.1149 1.17667 10.7249 1.40667 10.4949C1.48667 10.4149 1.58667 10.3549 1.70667 10.3549C1.78667 10.3549 1.86667 10.3849 1.93667 10.4249L8.66667 13.8449L15.3967 10.4249C15.7067 10.2449 16.0967 10.3649 16.2767 10.6749C16.4567 10.9849 16.3367 11.3749 16.0267 11.5549L8.83667 14.8849C8.78667 14.9149 8.72667 14.9349 8.66667 14.9349C8.60667 14.9349 8.54667 14.9149 8.49667 14.8849Z" fill="var(--color-icon-primary)"/>
</svg>