<svg width="16" height="16" viewBox="0 0 16 16" fill="none" xmlns="http://www.w3.org/2000/svg" data-icon-name="dew-chat">
<path fill-rule="evenodd" clip-rule="evenodd" d="M14.39 15C14.25 15 14.12 14.95 14.01 14.87L10.89 12.32C10.64 12.12 10.33 12.01 10.01 12.01H3.59C2.16 12.01 1 10.85 1 9.42V3.6C1 2.17 2.16 1 3.59 1H12.4C13.83 1 14.99 2.16 14.99 3.6V14.41C14.99 14.64 14.85 14.85 14.64 14.95C14.56 14.99 14.47 15.01 14.38 15.01L14.39 15ZM3.59 2.2C2.82 2.2 2.19 2.83 2.19 3.6V9.41C2.19 10.18 2.82 10.81 3.59 10.81H10.01C10.61 10.81 11.19 11.02 11.65 11.39L13.79 13.14V3.6C13.79 2.83 13.17 2.2 12.4 2.2H3.59ZM11.04 5.48003H4.80001C4.47001 5.48003 4.20001 5.21003 4.20001 4.88003C4.20001 4.55003 4.47001 4.28003 4.80001 4.28003H11.04C11.37 4.28003 11.64 4.55003 11.64 4.88003C11.64 5.21003 11.37 5.48003 11.04 5.48003ZM4.80001 8.66997H9.13001C9.46001 8.66997 9.73001 8.39997 9.73001 8.06997C9.73001 7.73997 9.46001 7.46997 9.13001 7.46997H4.80001C4.47001 7.46997 4.20001 7.73997 4.20001 8.06997C4.20001 8.39997 4.47001 8.66997 4.80001 8.66997Z" fill="var(--color-icon-primary)"/>
</svg>