<svg width="17" height="17" viewBox="0 0 17 17" fill="none" xmlns="http://www.w3.org/2000/svg" data-icon-name="dew-stop-primary">
<path d="M13.6967 3.61803C13.6967 3.61803 13.6567 3.54803 13.6267 3.51803C13.5967 3.48803 13.5567 3.46803 13.5267 3.44803C12.2667 2.22803 10.5567 1.47803 8.66675 1.47803C4.80675 1.47803 1.66675 4.61803 1.66675 8.47803C1.66675 10.368 2.41675 12.078 3.63675 13.338C3.65675 13.378 3.67675 13.408 3.70675 13.438C3.73675 13.468 3.77675 13.488 3.80675 13.508C5.06675 14.728 6.77675 15.478 8.66675 15.478C12.5267 15.478 15.6667 12.338 15.6667 8.47803C15.6667 6.58803 14.9167 4.87803 13.6967 3.61803ZM8.66675 2.67803C10.0467 2.67803 11.3167 3.16803 12.3167 3.97803L4.16675 12.128C3.35675 11.128 2.86675 9.85803 2.86675 8.47803C2.86675 5.27803 5.46675 2.67803 8.66675 2.67803ZM8.66675 14.278C7.28675 14.278 6.01675 13.788 5.01675 12.978L13.1667 4.82803C13.9767 5.82803 14.4667 7.09803 14.4667 8.47803C14.4667 11.678 11.8667 14.278 8.66675 14.278Z" fill="var(--color-icon-primary)"/>
</svg>
