<svg width="17" height="17" viewBox="0 0 17 17" fill="none" xmlns="http://www.w3.org/2000/svg" data-icon-name="dew-calendar">
<path d="M13.3135 2.71395H11.6235V1.77395C11.6235 1.44395 11.3535 1.17395 11.0235 1.17395C10.6935 1.17395 10.4235 1.44395 10.4235 1.77395V2.71395H6.2635V1.77395C6.2635 1.44395 5.9935 1.17395 5.6635 1.17395C5.3335 1.17395 5.0635 1.44395 5.0635 1.77395V2.71395H3.3635C2.2435 2.71395 1.3335 3.62395 1.3335 4.74395V13.1539C1.3335 14.2739 2.2435 15.184 3.3635 15.184H13.3135C14.4335 15.184 15.3435 14.2739 15.3435 13.1539V4.73395C15.3435 3.61395 14.4335 2.70395 13.3135 2.70395V2.71395ZM3.3735 3.90395H5.0735V4.87395C5.0735 5.20395 5.3435 5.47395 5.6735 5.47395C6.0035 5.47395 6.2735 5.20395 6.2735 4.87395V3.90395H10.4335V4.87395C10.4335 5.20395 10.7035 5.47395 11.0335 5.47395C11.3635 5.47395 11.6335 5.20395 11.6335 4.87395V3.90395H13.3235C13.7835 3.90395 14.1535 4.27395 14.1535 4.73395V6.57395H2.5435V4.73395C2.5435 4.27395 2.9135 3.90395 3.3735 3.90395ZM13.3235 13.974H3.3735C2.9135 13.974 2.5435 13.604 2.5435 13.144V7.77395H14.1435V13.144C14.1435 13.604 13.7735 13.974 13.3135 13.974H13.3235Z" fill="var(--color-icon-primary)"/>
</svg>