<svg width="16" height="16" viewBox="0 0 16 16" fill="none" xmlns="http://www.w3.org/2000/svg" data-icon-name="dew-ticket">
<path d="M9.95733 8.3138H6.73963C6.40987 8.3138 6.14006 8.58326 6.14006 8.9126C6.14006 9.24194 6.40987 9.5114 6.73963 9.5114H9.95733C10.2871 9.5114 10.5569 9.24194 10.5569 8.9126C10.5569 8.58326 10.2871 8.3138 9.95733 8.3138Z" fill="var(--color-icon-primary)"/>
<path d="M14.7339 7.90461C15.0637 7.90461 15.3335 7.63515 15.3335 7.30581V5.90861C15.3335 4.8108 14.4441 3.9126 13.3549 3.9126H3.31208C2.22286 3.9126 1.3335 4.8108 1.3335 5.90861V7.30581C1.3335 7.63515 1.6033 7.90461 1.93307 7.90461C2.47268 7.90461 2.91237 8.35372 2.91237 8.9126C2.91237 9.47148 2.47268 9.92058 1.93307 9.92058C1.6033 9.92058 1.3335 10.19 1.3335 10.5194V11.9166C1.3335 13.0144 2.22286 13.9126 3.31208 13.9126H13.3549C14.4441 13.9126 15.3335 13.0144 15.3335 11.9166V10.5194C15.3335 10.19 15.0637 9.92058 14.7339 9.92058C14.1943 9.92058 13.7546 9.47148 13.7546 8.9126C13.7546 8.35372 14.1943 7.90461 14.7339 7.90461ZM14.1344 11.0284V11.9066C14.1344 12.3457 13.7846 12.705 13.3549 12.705H3.31208C2.88239 12.705 2.53264 12.3457 2.53264 11.9066V11.0284C3.44199 10.7689 4.11151 9.9106 4.11151 8.9126C4.11151 7.91459 3.44199 7.05631 2.53264 6.79683V5.91859C2.53264 5.47946 2.88239 5.12018 3.31208 5.12018H13.3549C13.7846 5.12018 14.1344 5.47946 14.1344 5.91859V6.79683C13.225 7.05631 12.5555 7.91459 12.5555 8.9126C12.5555 9.9106 13.225 10.7689 14.1344 11.0284Z" fill="var(--color-icon-primary)"/>
</svg>
