<svg width="17" height="17" viewBox="0 0 16 16" fill="none" xmlns="http://www.w3.org/2000/svg" data-icon-name="dew-group"><path d="M14.027 9.212c.13-.31.21-.65.21-1 0-1.41-1.15-2.56-2.56-2.56-.77 0-1.45.35-1.92.88a3.12 3.12 0 0 0-3.11-2.88c-1.73 0-3.13 1.4-3.13 3.13 0 .51.13.98.35 1.4-1.29.45-2.2 1.66-2.2 3.1v.67c0 .94.76 1.7 1.7 1.7h10.85c.8 0 1.45-.65 1.45-1.44v-.52c0-1.11-.67-2.06-1.64-2.47zm-2.35-2.36c.75 0 1.36.61 1.36 1.36 0 .37-.15.71-.39.95h-.01c-.38.38-.99.49-1.47.29-.03-.01-.05 0-.08-.02-.2-.3-.46-.57-.75-.79v-.44c0-.75.61-1.36 1.36-1.36zm-5.03-2c1.07 0 1.93.87 1.93 1.93 0 .53-.22 1.01-.56 1.36 0 0-.01 0-.02.01-.73.71-1.98.72-2.71 0 0 0-.01 0-.02-.01-.35-.35-.56-.83-.56-1.36 0-1.06.87-1.93 1.93-1.93zm-3.79 7.09v-.67c0-1.06.78-1.93 1.8-2.08.03.02.06.04.08.06a2.2 2.2 0 0 0 .42.26c.44.24.94.39 1.48.39s1.04-.15 1.48-.39c.03-.02.07-.04.1-.05.11-.06.21-.13.31-.21l.09-.06c1.03.15 1.8 1.02 1.8 2.08v.68c0 .27-.21.48-.48.5h-6.57c-.28 0-.5-.23-.5-.51zm11.6.26c0 .14-.11.25-.25.25h-2.66c.05-.16.08-.33.08-.5v-.68c0-.18-.02-.36-.05-.53h.04c.02 0 .04.01.05.01.59 0 1.12-.21 1.55-.54.71.12 1.24.72 1.24 1.46z" fill="var(--color-icon-primary)"/></svg>