<svg width="17" height="17" viewBox="0 0 17 17" fill="none" xmlns="http://www.w3.org/2000/svg" data-icon-name="dew-recent"><path fill-rule="evenodd" clip-rule="evenodd" d="M4.197 3.055a6.96 6.96 0 0 1 4.48-1.62c3.86 0 6.99 3.15 6.99 7.01s-3.14 7-7 7-7-3.14-7-7c0-.33.27-.6.6-.6s.6.27.6.6c0 3.2 2.6 5.8 5.8 5.8s5.8-2.6 5.8-5.8-2.6-5.8-5.8-5.8c-1.36 0-2.65.47-3.67 1.31h.87c.33 0 .6.27.6.6s-.27.6-.6.6h-2.28q-.023-.001-.04-.01-.02-.009-.04-.01a.3.3 0 0 1-.11-.02l-.12-.06-.06-.03a.1.1 0 0 1-.02-.03 1 1 0 0 1-.063-.077l-.018-.023-.06-.09-.01-.027c-.009-.025-.02-.052-.02-.073a.3.3 0 0 1-.03-.13v-2.31c0-.33.27-.6.6-.6s.6.27.6.6zm3.93 5.61c-.03-.04-.03-.13-.03-.13l.02-.01c-.01-.03-.02-.06-.02-.1l.03-2.64c0-.33.27-.59.6-.59.33.01.59.28.59.61l-.03 2.03h2.29c.33 0 .6.27.6.6s-.27.6-.6.6h-2.9a.3.3 0 0 1-.094-.02q-.018-.006-.037-.01-.022-.008-.05-.01a.3.3 0 0 1-.05-.01.4.4 0 0 1-.098-.066l-.032-.025a.2.2 0 0 1-.06-.04.4.4 0 0 1-.058-.08 1 1 0 0 0-.052-.08z" fill="var(--color-icon-primary)"/></svg>