<svg width="17" height="17" viewBox="0 0 17 17" fill="none" xmlns="http://www.w3.org/2000/svg" data-icon-name="arrow-right">
<path d="M14.6565 8.13703C14.6565 7.96734 14.5767 7.80763 14.4669 7.69783L10.4841 3.33577C10.2645 3.0962 9.8852 3.07624 9.63565 3.29584C9.39609 3.51544 9.37612 3.89475 9.59572 4.1443L12.6901 7.52814H4.26541C3.93601 7.52814 3.6665 7.79765 3.6665 8.12705C3.6665 8.45645 3.93601 8.72596 4.26541 8.72596H12.6801L9.58574 12.1098C9.36614 12.3594 9.37612 12.7287 9.62567 12.9583C9.74545 13.0681 9.8852 13.118 10.0349 13.118C10.1946 13.118 10.3543 13.0481 10.4741 12.9283L14.4469 8.58622C14.5767 8.47642 14.6665 8.31671 14.6665 8.13703H14.6565Z" fill="var(--color-icon-primary)"/>
</svg>