<svg data-icon-name="dew-import" width="16" height="17" viewBox="0 0 16 17" fill="none" xmlns="http://www.w3.org/2000/svg">
<path d="M9.48134 2.27837C9.58803 1.96353 9.92988 1.7945 10.2448 1.90105C13.0088 2.83633 14.9999 5.4515 15 8.53305C15 12.399 11.8654 15.5335 7.99951 15.5335C4.13375 15.5333 1 12.3989 1 8.53305C1.00011 5.45144 2.99109 2.83628 5.7552 1.90105C6.07014 1.79449 6.412 1.96349 6.51866 2.27837C6.62522 2.59334 6.45626 2.93519 6.14134 3.04183C3.85149 3.81659 2.20459 5.98333 2.20448 8.53305C2.20448 11.7337 4.79886 14.3288 7.99951 14.3291C11.2003 14.3291 13.7955 11.7339 13.7955 8.53305C13.7954 5.98334 12.1485 3.8166 9.85866 3.04183C9.54365 2.93525 9.37476 2.59338 9.48134 2.27837Z" fill="var(--color-icon-primary)"/>
<path d="M7.93679 4.48152C8.26926 4.48152 8.53938 4.75083 8.53952 5.08327V10.6274L11.0592 8.1077C11.2943 7.87258 11.6757 7.87263 11.9109 8.1077C12.146 8.34286 12.146 8.72422 11.9109 8.95937L8.57578 12.2945C8.2231 12.6471 7.6515 12.647 7.29878 12.2945L3.96367 8.95937C3.72852 8.72422 3.72852 8.34286 3.96367 8.1077C4.19877 7.87279 4.57924 7.8728 4.81435 8.1077L7.33504 10.6284V5.08327C7.33517 4.75097 7.6045 4.48174 7.93679 4.48152Z" fill="var(--color-icon-primary)"/>
</svg>