<svg width="16" height="16" viewBox="0 0 16 16" fill="none" xmlns="http://www.w3.org/2000/svg">
<rect width="16" height="16" />
<path d="M12.6375 3.625H3.3625C2.54 3.625 1.875 4.29 1.875 5.1125V10.8875C1.875 11.71 2.54 12.375 3.3625 12.375H12.6375C13.46 12.375 14.125 11.71 14.125 10.8875V5.1125C14.125 4.29 13.46 3.625 12.6375 3.625ZM12.2788 4.675L8.83125 8.13125C8.6125 8.35 8.315 8.4725 8 8.4725C7.685 8.4725 7.39625 8.35 7.16875 8.13125L3.72125 4.675H12.27H12.2788ZM12.6375 11.325H3.3625C3.1175 11.325 2.925 11.1325 2.925 10.8875V5.3575L6.43375 8.875C6.85375 9.295 7.41375 9.53125 8.00875 9.53125C8.60375 9.53125 9.16375 9.295 9.58375 8.875L13.0838 5.36625V10.8963C13.0838 11.1413 12.8825 11.3338 12.6463 11.3338L12.6375 11.325Z" fill="var(--color-fill-semantic-info)"/>
</svg>
