<svg width="17" height="17" viewBox="0 0 17 17" fill="none" xmlns="http://www.w3.org/2000/svg" data-icon-name="dew-delete">
<path fill-rule="evenodd" clip-rule="evenodd" d="M14.7333 3.10093H11.3633V2.84093C11.3633 1.97093 10.6533 1.26093 9.78325 1.26093H6.89325C6.02325 1.26093 5.31325 1.97093 5.31325 2.84093V3.10093H1.93325C1.60325 3.10093 1.33325 3.37093 1.33325 3.70093C1.33325 4.03093 1.60325 4.30093 1.93325 4.30093H3.28325V13.4709C3.28325 14.4609 4.08325 15.2609 5.07325 15.2609H11.5733C12.5633 15.2609 13.3633 14.4609 13.3633 13.4709V4.30093H14.7333C15.0633 4.30093 15.3333 4.03093 15.3333 3.70093C15.3333 3.37093 15.0633 3.10093 14.7333 3.10093ZM6.50325 2.84093C6.50325 2.63093 6.67325 2.46093 6.88325 2.46093H9.77325C9.98325 2.46093 10.1533 2.63093 10.1533 2.84093V3.10093H6.49325V2.84093H6.50325ZM12.1633 13.4709C12.1633 13.8009 11.8933 14.0609 11.5733 14.0609H5.07325C4.74325 14.0609 4.48325 13.8009 4.48325 13.4709V4.30093H12.1633V13.4709ZM6.83328 12.3109C7.16328 12.3109 7.43328 12.0409 7.43328 11.7109V6.5209C7.43328 6.1909 7.16328 5.9209 6.83328 5.9209C6.50328 5.9209 6.23328 6.1909 6.23328 6.5209V11.7109C6.23328 12.0409 6.50328 12.3109 6.83328 12.3109ZM10.4133 11.7409C10.4133 12.0709 10.1433 12.3409 9.81326 12.3409C9.48326 12.3409 9.21326 12.0709 9.21326 11.7409V6.55093C9.21326 6.22093 9.48326 5.95093 9.81326 5.95093C10.1433 5.95093 10.4133 6.22093 10.4133 6.55093V11.7409Z" fill="var(--color-icon-primary)"/>
</svg>