<svg width="19" height="18" viewBox="0 0 19 18" fill="none" xmlns="http://www.w3.org/2000/svg" data-icon-name="dew-settings"><path fill="var(--color-icon-primary)" d="M8.656 6.133c-1.54 0-2.79 1.228-2.79 2.726s1.25 2.736 2.79 2.736 2.791-1.228 2.791-2.736-1.25-2.726-2.79-2.726m0 4.264c-.88 0-1.59-.69-1.59-1.538s.71-1.538 1.59-1.538 1.59.69 1.59 1.538-.71 1.538-1.59 1.538"/><path fill="var(--color-icon-primary)" d="m15.298 10.077-.9-.679a.662.662 0 0 1 0-1.068l.92-.7a.914.914 0 0 0 .2-1.167l-1.31-2.197c-.22-.39-.68-.56-1.15-.41l-.97.38c-.22.09-.47.07-.7-.07a.7.7 0 0 1-.361-.52l-.14-.958a.91.91 0 0 0-.91-.819h-2.64c-.46 0-.851.34-.911.779l-.15 1.009c-.03.22-.17.409-.39.529a.79.79 0 0 1-.67.05l-.99-.39c-.41-.14-.87 0-1.12.4L1.784 6.473a.916.916 0 0 0 .24 1.178l.89.679c.17.13.27.33.27.54 0 .209-.1.409-.27.538l-.92.7a.916.916 0 0 0-.2 1.168l1.31 2.197c.22.389.68.559 1.15.409l.97-.38c.22-.09.47-.07.7.07.201.11.331.3.361.52l.15 1.008c.08.45.46.77.92.77h2.63c.46 0 .861-.34.921-.79l.15-.998a.73.73 0 0 1 .38-.53c.21-.11.45-.13.67-.05l1 .39c.41.14.87-.01 1.12-.4l1.321-2.226c.22-.39.13-.869-.24-1.179zm-1.99 2.597-.77-.3c-.55-.22-1.17-.17-1.701.13-.53.3-.88.799-.97 1.388l-.11.769h-2.17l-.11-.76c-.09-.588-.44-1.088-.991-1.397a1.98 1.98 0 0 0-1.71-.13l-.75.3-1.07-1.798.68-.519c.46-.35.74-.909.74-1.488 0-.589-.27-1.128-.74-1.488l-.68-.519 1.07-1.797.76.3c.55.219 1.17.169 1.71-.13.53-.3.89-.8.98-1.389l.11-.769h2.16l.11.76c.09.588.44 1.088.991 1.397.53.3 1.15.35 1.71.13l.75-.3 1.07 1.798-.69.52a1.858 1.858 0 0 0 .01 2.975l.69.52-1.07 1.797z"/></svg>