<svg width="16" height="16" viewBox="0 0 16 16" fill="none" xmlns="http://www.w3.org/2000/svg" data-icon-name="dew-canned-response"><path fill-rule="evenodd" clip-rule="evenodd" d="M7.615 14.82c.11.12.27.18.42.18h.01c.15 0 .3-.06.42-.18l1.552-1.55h2.651A2.333 2.333 0 0 0 15 10.94V3.33C15 2.04 13.95 1 12.668 1H3.322A2.31 2.31 0 0 0 1 3.33v7.61c0 1.29 1.05 2.33 2.332 2.33h2.732zM2.19 3.33c0-.62.51-1.13 1.13-1.13h9.347c.62 0 1.131.51 1.131 1.13v7.61c0 .62-.51 1.13-1.13 1.13H9.765a.6.6 0 0 0-.42.18l-1.31 1.3-1.312-1.3a.56.56 0 0 0-.42-.18H3.322c-.62 0-1.131-.51-1.131-1.13zm6.945 6.96c.1.05.2.08.31.08l.01.02a.587.587 0 0 0 .59-.66l-.17-1.48 1.121-.97a.59.59 0 0 0 .02-.889.6.6 0 0 0-.29-.151l-1.461-.3-.58-1.37a.59.59 0 0 0-.52-.36.57.57 0 0 0-.561.3l-.73 1.29-1.482.13c-.23.02-.43.17-.51.38s-.03.45.12.62l1 1.09-.33 1.45c-.05.22.03.46.21.6s.42.17.631.08l1.35-.62zm-.92-1.97a.7.7 0 0 0-.311-.08h-.01c-.09 0-.17.01-.25.05l-.53.24.13-.57a.6.6 0 0 0-.14-.54l-.39-.43.58-.05c.2-.02.37-.13.47-.3l.29-.51.23.54c.08.18.24.31.43.35l.57.12-.44.38c-.15.13-.22.32-.2.52l.07.58z" fill="var(--color-icon-primary)"/></svg>