<svg width="16" height="16" viewBox="0 0 16 16" fill="none" xmlns="http://www.w3.org/2000/svg" data-icon-name="dew-link">
<path d="M10.82 5.18a.71.71 0 010 1l-4.65 4.64a.7.7 0 01-1-1l4.66-4.64a.71.71 0 01.99 0zM9 12l-1.67 1.58a3.47 3.47 0 01-4.91-4.91L4.05 7a.7.7 0 00-1-1L1.42 7.68a4.91 4.91 0 000 6.9 4.9 4.9 0 006.9 0L10 12.94a.7.7 0 00-1-1zm5.58-10.58a4.9 4.9 0 00-6.9 0L6.05 3.06a.7.7 0 001 1l1.62-1.64a3.47 3.47 0 014.91 4.91L12 9a.71.71 0 000 1 .69.69 0 00.5.2.66.66 0 00.49-.2l1.64-1.63a4.91 4.91 0 00-.05-6.95z" fill="var(--color-icon-primary)"/>
</svg>