<svg width="16" height="16" viewBox="0 0 16 16" fill="none" xmlns="http://www.w3.org/2000/svg" data-icon-name="dew-person">
<path d="M11.669 7.47301C12.0568 6.82671 12.2955 6.09091 12.2955 5.28551C12.2955 2.91904 10.3665 1 7.99011 1C5.61368 1 3.68462 2.91904 3.68462 5.28551C3.68462 6.10085 3.92327 6.84659 4.321 7.4929C2.39202 8.02983 1 9.75994 1 11.8381V13.0412C1 14.125 1.87497 15 2.95878 15H12.9816C14.0953 15 15 14.0952 15 12.9815V11.8182C15 9.74006 13.598 8 11.669 7.46307V7.47301ZM7.99011 2.19318C9.71028 2.19318 11.1023 3.58523 11.1023 5.28551C11.1023 6.13068 10.7642 6.88636 10.2074 7.44318C10.1975 7.44318 10.1875 7.45312 10.1776 7.46307L10.1577 7.48295C8.95453 8.64631 6.95596 8.62642 5.82243 7.48295C5.81249 7.47301 5.79268 7.46307 5.77279 7.45313C5.21597 6.89631 4.86792 6.12074 4.86792 5.27557C4.86792 3.56534 6.25998 2.18324 7.98015 2.18324L7.99011 2.19318ZM13.8069 12.9815C13.8069 13.4389 13.439 13.8068 12.9816 13.8068H2.95878C2.53123 13.8068 2.19314 13.4588 2.19314 13.0412V11.8381C2.19314 10.1179 3.49571 8.70597 5.18605 8.51705C5.22583 8.55682 5.27556 8.5767 5.32527 8.61648C5.45454 8.72585 5.59378 8.82528 5.74293 8.91477C5.81253 8.95454 5.8821 8.99432 5.9517 9.02415C6.55824 9.35227 7.25431 9.56108 7.99011 9.56108C8.77562 9.56108 9.51134 9.33239 10.1477 8.96449C10.1676 8.96449 10.1776 8.9446 10.1975 8.93466C10.3864 8.82528 10.5654 8.69602 10.7245 8.55682C10.7543 8.53693 10.7841 8.51705 10.8139 8.49716C12.5142 8.67614 13.8168 10.0881 13.8168 11.8182V12.9815H13.8069Z" fill="var(--color-icon-primary)"/>
</svg>