<svg width="16" height="17" viewBox="0 0 16 17" fill="none" xmlns="http://www.w3.org/2000/svg" data-icon-name="dew-more-dots-filled">
<path fill-rule="evenodd" clip-rule="evenodd" d="M8.25 3.67395C8.94036 3.67395 9.5 3.11431 9.5 2.42395C9.5 1.73359 8.94036 1.17395 8.25 1.17395C7.55964 1.17395 7 1.73359 7 2.42395C7 3.11431 7.55964 3.67395 8.25 3.67395ZM8.25 9.42395C8.94036 9.42395 9.5 8.86431 9.5 8.17395C9.5 7.48359 8.94036 6.92395 8.25 6.92395C7.55964 6.92395 7 7.48359 7 8.17395C7 8.86431 7.55964 9.42395 8.25 9.42395ZM9.5 13.924C9.5 14.6143 8.94036 15.174 8.25 15.174C7.55964 15.174 7 14.6143 7 13.924C7 13.2336 7.55964 12.674 8.25 12.674C8.94036 12.674 9.5 13.2336 9.5 13.924Z" fill="var(--color-icon-primary)"/>
</svg>