<svg width="16" height="16" viewBox="0 0 16 16" fill="none" xmlns="http://www.w3.org/2000/svg" data-icon-name="dew-problems">
<path d="M15 4.27601V3.75265C15 3.42051 14.7282 3.14877 14.3961 3.14877C14.064 3.14877 13.7922 3.42051 13.7922 3.75265V4.27601C13.7922 5.16171 13.1582 5.90649 12.3228 6.08766C12.1718 5.363 11.5377 4.81951 10.7728 4.81951H10.5212V4.03446C10.5212 2.6254 9.37383 1.47803 7.95471 1.47803C6.53559 1.47803 5.38821 2.6254 5.38821 4.03446V4.81951H5.22717C4.46225 4.81951 3.82818 5.363 3.67721 6.08766C2.84184 5.90649 2.20776 5.16171 2.20776 4.27601V3.75265C2.20776 3.42051 1.93602 3.14877 1.60388 3.14877C1.27175 3.14877 1 3.42051 1 3.75265V4.27601C1 5.82598 2.15744 7.09413 3.64701 7.29542V8.31196H1.60388C1.27175 8.31196 1 8.5837 1 8.91584C1 9.24797 1.27175 9.51972 1.60388 9.51972H3.64701V10.1538C2.15744 10.3551 1 11.6232 1 13.1732V13.7066C1 14.0388 1.27175 14.3105 1.60388 14.3105C1.93602 14.3105 2.20776 14.0388 2.20776 13.7066V13.1732C2.20776 12.2271 2.91229 11.4622 3.82818 11.3414C4.34148 13.1732 6.01222 14.5219 7.99496 14.5219C9.97771 14.5219 11.6484 13.1732 12.1718 11.3414C13.0776 11.4622 13.7922 12.2271 13.7922 13.1732V13.7066C13.7922 14.0388 14.064 14.3105 14.3961 14.3105C14.7282 14.3105 15 14.0388 15 13.7066V13.1732C15 11.6333 13.8426 10.3652 12.353 10.1538V9.51972H14.2451C14.5773 9.51972 14.849 9.24797 14.849 8.91584C14.849 8.5837 14.5773 8.31196 14.2451 8.31196H12.353V7.29542C13.8426 7.09413 15 5.82598 15 4.27601ZM6.60604 4.04453C6.60604 3.29974 7.20992 2.68579 7.96477 2.68579C8.71962 2.68579 9.32351 3.28967 9.32351 4.04453V4.82957H6.6161V4.04453H6.60604ZM11.1452 10.1739C11.1452 11.6937 10.0582 12.9618 8.61898 13.2537V9.75121C8.61898 9.41907 8.34723 9.14733 8.0151 9.14733C7.68296 9.14733 7.41122 9.41907 7.41122 9.75121V13.2537C5.9619 12.982 4.85478 11.7038 4.85478 10.1739V6.40973C4.85478 6.19837 5.02588 6.03734 5.22717 6.03734H10.7628C10.9741 6.03734 11.1352 6.20844 11.1352 6.40973V10.1739H11.1452Z" fill="var(--color-icon-primary)"/>
</svg>