<svg width="16" height="16" viewBox="0 0 16 16" fill="none" xmlns="http://www.w3.org/2000/svg">
<rect width="16" height="16" />
<path d="M9.39186 7.48681H6.63383C6.35118 7.48681 6.11991 7.71778 6.11991 8.00007C6.11991 8.28236 6.35118 8.51333 6.63383 8.51333H9.39186C9.67452 8.51333 9.90578 8.28236 9.90578 8.00007C9.90578 7.71778 9.67452 7.48681 9.39186 7.48681Z" fill="var(--color-fill-semantic-success)"/>
<path d="M13.4861 7.13608C13.7687 7.13608 14 6.90512 14 6.62282V5.42522C14 4.48424 13.2377 3.71436 12.3041 3.71436H3.69593C2.76231 3.71436 2 4.48424 2 5.42522V6.62282C2 6.90512 2.23126 7.13608 2.51392 7.13608C2.97644 7.13608 3.35332 7.52103 3.35332 8.00007C3.35332 8.47911 2.97644 8.86406 2.51392 8.86406C2.23126 8.86406 2 9.09502 2 9.37731V10.5749C2 11.5159 2.76231 12.2858 3.69593 12.2858H12.3041C13.2377 12.2858 14 11.5159 14 10.5749V9.37731C14 9.09502 13.7687 8.86406 13.4861 8.86406C13.0236 8.86406 12.6467 8.47911 12.6467 8.00007C12.6467 7.52103 13.0236 7.13608 13.4861 7.13608ZM12.9722 9.81359V10.5664C12.9722 10.9428 12.6724 11.2507 12.3041 11.2507H3.69593C3.32762 11.2507 3.02783 10.9428 3.02783 10.5664V9.81359C3.80728 9.59117 4.38116 8.8555 4.38116 8.00007C4.38116 7.14464 3.80728 6.40897 3.02783 6.18655V5.43377C3.02783 5.05738 3.32762 4.74943 3.69593 4.74943H12.3041C12.6724 4.74943 12.9722 5.05738 12.9722 5.43377V6.18655C12.1927 6.40897 11.6188 7.14464 11.6188 8.00007C11.6188 8.8555 12.1927 9.59117 12.9722 9.81359Z" fill="var(--color-fill-semantic-success)"/>
</svg>
