<svg width="17" height="17" viewBox="0 0 17 17" fill="none" xmlns="http://www.w3.org/2000/svg" data-icon-name="dew-edit">
<path d="M12.4961 1.10347C12.9555 1.17358 13.4053 1.40262 13.7549 1.75191L14.665 2.66109C15.0146 3.01059 15.2443 3.46059 15.3145 3.91988V3.93062C15.3743 4.35007 15.294 4.81984 14.9844 5.18941C14.9555 5.21834 14.899 5.28379 14.8945 5.28902L6.00684 14.1835C5.90696 14.2833 5.77647 14.3537 5.63672 14.3837L2.20801 15.0722C1.96813 15.1222 1.71782 15.0418 1.54785 14.872C1.37818 14.7023 1.29799 14.4533 1.34766 14.2138L2.03809 10.7949C2.06813 10.6556 2.13782 10.5264 2.2373 10.4267L11.1357 1.53218C11.5156 1.14275 12.0363 1.04353 12.4961 1.10347ZM3.41699 11.2949L2.99805 13.4238L5.12695 12.9941L11.9863 6.14937L10.2764 4.44038L3.41699 11.2949ZM11.3154 3.40132L13.0254 5.11031L13.8047 4.33003C13.8246 4.30016 13.8451 4.27983 13.875 4.24995V4.24019H13.8848V4.12984C13.8646 4.01989 13.7941 3.85066 13.6445 3.70113L12.7354 2.79097C12.5856 2.64142 12.4255 2.57173 12.3057 2.55171H12.166L11.3154 3.40132Z" fill="var(--color-icon-primary)"/>
</svg>