<svg width="16" height="17" viewBox="0 0 16 17" fill="none" xmlns="http://www.w3.org/2000/svg" data-icon-name="dew-mail-box">
<path d="M13.3 3.6084H2.7C1.76 3.6084 1 4.3684 1 5.3084V11.9084C1 12.8484 1.76 13.6084 2.7 13.6084H13.3C14.24 13.6084 15 12.8484 15 11.9084V5.3084C15 4.3684 14.24 3.6084 13.3 3.6084ZM12.89 4.8084L8.95 8.7584C8.7 9.0084 8.36 9.1484 8 9.1484C7.64 9.1484 7.31 9.0084 7.05 8.7584L3.11 4.8084H12.88H12.89ZM13.3 12.4084H2.7C2.42 12.4084 2.2 12.1884 2.2 11.9084V5.5884L6.21 9.6084C6.69 10.0884 7.33 10.3584 8.01 10.3584C8.69 10.3584 9.33 10.0884 9.81 9.6084L13.81 5.5984V11.9184C13.81 12.1984 13.58 12.4184 13.31 12.4184L13.3 12.4084Z" fill="var(--color-fill-neutral-bold)"/>
</svg>