<svg width="17" height="17" viewBox="0 0 17 17" fill="none" xmlns="http://www.w3.org/2000/svg" data-icon-name="dew-new-tab">
<path fill-rule="evenodd" clip-rule="evenodd" d="M12.1165 1.39111H15.0665C15.3965 1.39111 15.6665 1.66111 15.6665 1.99111V4.94111C15.6665 5.27111 15.3965 5.54111 15.0665 5.54111C14.7365 5.54111 14.4665 5.27111 14.4665 4.94111V3.44111L5.7965 12.1211C5.6865 12.2411 5.5265 12.3011 5.3765 12.3011C5.2265 12.3011 5.0765 12.2511 4.9565 12.1311C4.7265 11.8911 4.7265 11.5111 4.9565 11.2811L13.6165 2.59111H12.1165C11.7865 2.59111 11.5165 2.32111 11.5165 1.99111C11.5165 1.66111 11.7865 1.39111 12.1165 1.39111ZM13.5065 8.31111C13.5065 7.98111 13.7765 7.71111 14.1065 7.71111V7.72111C14.4365 7.72111 14.7065 7.99111 14.7065 8.32111V13.2911C14.7065 14.4411 13.7665 15.3911 12.6165 15.3911H3.7665C3.2065 15.3911 2.6865 15.1711 2.2865 14.7811C1.8865 14.3811 1.6665 13.8511 1.6665 13.2911V4.44111C1.6665 3.28111 2.6065 2.34111 3.7565 2.34111H8.2265C8.5565 2.34111 8.8265 2.61111 8.8265 2.94111C8.8265 3.27111 8.5565 3.54111 8.2265 3.54111H3.7565C3.2665 3.54111 2.8665 3.95111 2.8665 4.44111V13.2811C2.8665 13.5211 2.9565 13.7511 3.1265 13.9211C3.2965 14.0911 3.5165 14.1811 3.7565 14.1811H12.6165C13.1065 14.1811 13.5065 13.7711 13.5065 13.2811V8.31111Z" fill="var(--color-icon-primary)"/>
</svg>