<svg data-icon-name="dew-company-2" width="16" height="16" viewBox="0 0 16 16" fill="none"
    xmlns="http://www.w3.org/2000/svg">
    <path
        d="M13.09 6.57248L10.7999 5.94266V3.96324C10.7999 3.41341 10.4299 2.93355 9.90991 2.78359L3.53992 1.0441C3.17992 0.944134 2.78999 1.01411 2.48999 1.25404C2.18999 1.48397 2.01001 1.84387 2.01001 2.22376V14.4002C2.01001 14.7301 2.27999 15 2.60999 15H13.39C13.72 15 13.99 14.7301 13.99 14.4002V7.74213C13.99 7.19229 13.62 6.71244 13.1 6.56248L13.09 6.57248ZM3.20996 13.8104V2.21376L9.59998 3.96324V13.8104H3.20996ZM12.7899 13.8104H10.7999V7.19229L12.7899 7.74213V13.8104Z"
        fill="var(--color-icon-primary)" />
    <path
        d="M7.39001 4.86298H5.09998C4.76998 4.86298 4.5 5.1329 4.5 5.4628C4.5 5.79271 4.76998 6.06263 5.09998 6.06263H7.39001C7.72001 6.06263 7.98999 5.79271 7.98999 5.4628C7.98999 5.1329 7.72001 4.86298 7.39001 4.86298Z"
        fill="var(--color-icon-primary)" />
    <path
        d="M7.39001 7.90208H5.09998C4.76998 7.90208 4.5 8.17201 4.5 8.50191C4.5 8.83181 4.76998 9.10173 5.09998 9.10173H7.39001C7.72001 9.10173 7.98999 8.83181 7.98999 8.50191C7.98999 8.17201 7.72001 7.90208 7.39001 7.90208Z"
        fill="var(--color-icon-primary)" />
    <path
        d="M7.39001 10.8112H5.09998C4.76998 10.8112 4.5 11.0812 4.5 11.4111C4.5 11.741 4.76998 12.0109 5.09998 12.0109H7.39001C7.72001 12.0109 7.98999 11.741 7.98999 11.4111C7.98999 11.0812 7.72001 10.8112 7.39001 10.8112Z"
        fill="var(--color-icon-primary)" />
</svg>