<svg width="16" height="17" viewBox="0 0 16 16" fill="none" xmlns="http://www.w3.org/2000/svg" data-icon-name="dew-file">
<path fill-rule="evenodd" clip-rule="evenodd" d="M4.43 15.5637H11.58C12.2 15.5837 12.81 15.3538 13.26 14.9338C13.71 14.5139 13.98 13.924 14 13.3041V6.23534C14 5.96539 13.93 5.71543 13.82 5.47547C13.71 5.24551 13.54 5.03555 13.34 4.86558L10.34 2.09605C9.95 1.75611 9.44 1.56615 8.92 1.56615H4.42C3.8 1.54615 3.19 1.77611 2.74 2.19604C2.29 2.61596 2.02 3.20586 2 3.82576V13.2941C2.03 13.924 2.29 14.5039 2.75 14.9338C3.2 15.3538 3.81 15.5837 4.43 15.5637ZM3.59 3.04589C3.82 2.84593 4.12 2.74594 4.42 2.76594H8.95C9.18 2.76594 9.39 2.84593 9.57 2.9859L12.57 5.75542C12.64 5.80542 12.7 5.8854 12.74 5.96539C12.78 6.05537 12.8 6.14536 12.8 6.23534V13.3041C12.78 13.6041 12.64 13.884 12.41 14.084C12.18 14.284 11.88 14.3839 11.58 14.3639H4.43C4.13 14.3839 3.83 14.284 3.6 14.084C3.37 13.884 3.22 13.5941 3.2 13.2941V3.82576C3.22 3.52581 3.36 3.24586 3.59 3.04589ZM5.79 5.99538H7.86C8.19 5.99538 8.46 5.72543 8.46 5.39548C8.46 5.06554 8.19 4.79559 7.86 4.79559H5.79C5.46 4.79559 5.19 5.06554 5.19 5.39548C5.19 5.72543 5.46 5.99538 5.79 5.99538ZM10.22 9.1949H5.80001C5.47001 9.1949 5.20001 8.92495 5.20001 8.59501C5.20001 8.26506 5.47001 7.99511 5.80001 7.99511H10.22C10.55 7.99511 10.82 8.26506 10.82 8.59501C10.82 8.92495 10.55 9.1949 10.22 9.1949ZM5.79 12.3843H10.21C10.54 12.3843 10.81 12.1143 10.81 11.7844C10.81 11.4545 10.54 11.1845 10.21 11.1845H5.79C5.46 11.1845 5.19 11.4545 5.19 11.7844C5.19 12.1143 5.46 12.3843 5.79 12.3843Z" fill="var(--color-icon-primary)"/>
</svg>