<svg data-icon-name="dew-globe" width="16" height="16" fill="none" xmlns="http://www.w3.org/2000/svg">
    <path fill-rule="evenodd" clip-rule="evenodd"
        d="M7.99 15c-3.844-.006-6.95-3.141-6.95-7 0-3.863 3.112-7 6.96-7s6.96 3.137 6.96 7c0 3.859-3.107 6.994-6.95 7h-.02zM9.267 2.343c.156.248.324.533.492.849.267.502.537 1.09.761 1.742l2.37.004a5.77 5.77 0 00-3.623-2.595zm4.188 3.798l-2.599-.005c.127.59.203 1.215.203 1.864a8.88 8.88 0 01-.197 1.834l2.6.005A5.828 5.828 0 0013.76 8c0-.65-.106-1.276-.303-1.86zM9.242 4.93a11.201 11.201 0 00-.542-1.175 11.922 11.922 0 00-.7-1.154c-.202.295-.45.687-.699 1.154-.187.353-.373.747-.54 1.172l2.48.004zM6.377 6.13l3.247.005c.145.59.235 1.218.235 1.866 0 .636-.087 1.252-.227 1.832l-3.266-.005A7.802 7.802 0 016.141 8c0-.65.09-1.28.236-1.871zm-.896-1.203c.224-.65.493-1.234.758-1.734.168-.316.336-.6.493-.85a5.77 5.77 0 00-3.614 2.58l2.363.004zM2.55 6.122l2.595.005A8.899 8.899 0 004.94 8c0 .634.073 1.246.195 1.825L2.53 9.82A5.83 5.83 0 012.24 8c0-.657.11-1.289.31-1.878zm6.705 4.911l-2.51-.004c.17.441.362.85.556 1.215.249.467.497.859.7 1.154.203-.295.45-.687.699-1.154.194-.364.385-.77.555-1.21zm-3.79-.006l-2.38-.004a5.77 5.77 0 003.648 2.634 13.207 13.207 0 01-.493-.849 12.137 12.137 0 01-.774-1.781zm7.441.013l-2.373-.004c-.227.664-.501 1.262-.772 1.772-.168.316-.336.6-.492.85a5.77 5.77 0 003.637-2.618z"
        fill="var(--color-icon-primary)" />
</svg>