<svg width="16" height="16" viewBox="0 0 16 16" fill="none" xmlns="http://www.w3.org/2000/svg" data-icon-name="dew-cart"><path fill-rule="evenodd" clip-rule="evenodd" d="M6.42 11.83H12.21V11.8201C12.87 11.8201 13.45 11.3801 13.63 10.74L14.94 5.96C15.06 5.52 14.97 5.05 14.69 4.68C14.41 4.31 13.98 4.1 13.52 4.1H4.98L4.63 2.2C4.5 1.51 3.89 1 3.18 1H1.6C1.27 1 1 1.27 1 1.6C1 1.93 1.27 2.2 1.6 2.2H3.18C3.31 2.2 3.43 2.29 3.45 2.42L4.97 10.63C5.1 11.3199 5.71 11.83 6.42 11.83ZM6.16 10.4001L5.21 5.3V5.29H13.52C13.64 5.29 13.71 5.36 13.74 5.4C13.78 5.44 13.82 5.53 13.79 5.64L12.48 10.42C12.45 10.54 12.34 10.62 12.22 10.62H6.43C6.3 10.62 6.18 10.5301 6.16 10.4001ZM7.13001 15C6.54001 15 6.07001 14.5201 6.07001 13.9401C6.07001 13.3601 6.55001 12.88 7.13001 12.88C7.71001 12.88 8.19001 13.3601 8.19001 13.9401C8.19001 14.5201 7.71001 15 7.13001 15ZM6.99001 13.9401C6.99001 13.8617 7.04752 13.8025 7.12501 13.8C7.2025 13.8025 7.26001 13.8617 7.26001 13.9401C7.26001 14.0901 6.99001 14.0901 6.99001 13.9401ZM11.51 15C10.92 15 10.45 14.5201 10.45 13.9401C10.45 13.3601 10.93 12.88 11.51 12.88C12.09 12.88 12.57 13.3601 12.57 13.9401C12.57 14.5201 12.09 15 11.51 15ZM11.37 13.9401C11.37 13.8617 11.4275 13.8025 11.505 13.8C11.5825 13.8025 11.64 13.8617 11.64 13.9401C11.64 14.0901 11.37 14.0901 11.37 13.9401Z" fill="var(--color-icon-primary)"/></svg>