<?xml version="1.0" encoding="UTF-8"?>
<svg width="20px" height="20px" viewBox="0 0 20 20" version="1.1" xmlns="http://www.w3.org/2000/svg" xmlns:xlink="http://www.w3.org/1999/xlink">
    <!-- Generator: Sketch 55 (78076) - https://sketchapp.com -->
    <title>Smiley</title>
    <desc>Created with Sketch.</desc>
    <g id="Freshconnect-Icons" stroke="none" stroke-width="1" fill="none" fill-rule="evenodd">
        <g transform="translate(-338.000000, -336.000000)" id="Smiley">
            <g transform="translate(338.000000, 336.000000)">
                <circle id="Oval" fill="#F5BF23" cx="10" cy="10" r="10"></circle>
                <path d="M5,10.6666667 L15,10.6666667 C15.9204746,10.6666667 16.6666667,11.4128588 16.6666667,12.3333333 L16.6666667,12.4465542 C16.6666667,13.4313392 16.2312118,14.3657241 15.4771076,14.9990712 L14.6822251,15.6666667 C13.4004506,16.7431865 11.7801701,17.3333333 10.1063001,17.3333333 L9.97983797,17.3333333 C8.28932134,17.3333333 6.6516947,16.7439554 5.34889174,15.6666667 L4.54248627,14.9998494 C3.77668132,14.3666048 3.33333333,13.4247118 3.33333333,12.4310036 L3.33333333,12.3333333 C3.33333333,11.4128588 4.07952542,10.6666667 5,10.6666667 Z" id="Rectangle" fill="#1D1D1D"></path>
                <path d="M8.5,14.6666667 L11.5,14.6666667 C11.7761424,14.6666667 12,14.8905243 12,15.1666667 L12,15.2006329 C12,15.4960684 11.8693635,15.7763839 11.6431323,15.966388 L11.4046675,16.1666667 C11.0201352,16.4896226 10.534051,16.6666667 10.03189,16.6666667 L9.99395139,16.6666667 C9.4867964,16.6666667 8.99550841,16.4898533 8.60466752,16.1666667 L8.36274588,15.9666215 C8.13300439,15.7766481 8,15.4940802 8,15.1959678 L8,15.1666667 C8,14.8905243 8.22385763,14.6666667 8.5,14.6666667 Z" id="Rectangle" fill="#FF3E3E"></path>
                <ellipse id="Oval" fill="#1D1D1D" cx="6.33333333" cy="7" rx="1.66666667" ry="2.33333333"></ellipse>
                <ellipse id="Oval-Copy" fill="#1D1D1D" cx="13.6666667" cy="7" rx="1.66666667" ry="2.33333333"></ellipse>
                <path d="M5.33333333,11.583126 L5.66666667,11.583126 C6.33291925,11.583126 6.99875776,11.5499169 7.66170386,11.4836223 L8.33333333,11.4164594 C9.44168047,11.3056247 10.5583195,11.3056247 11.6666667,11.4164594 L12.3382961,11.4836223 C13.0012422,11.5499169 13.6670807,11.583126 14.3333333,11.583126 L14.6666667,11.583126 C15.0348565,11.583126 15.3333333,11.8816029 15.3333333,12.2497927 L15.3333333,12.2497927 C15.3333333,12.6179825 15.0348565,12.9164594 14.6666667,12.9164594 L5.33333333,12.9164594 C4.9651435,12.9164594 4.66666667,12.6179825 4.66666667,12.2497927 L4.66666667,12.2497927 C4.66666667,11.8816029 4.9651435,11.583126 5.33333333,11.583126 Z" id="Rectangle" fill="#FFFFFF"></path>
            </g>
        </g>
    </g>
</svg>