<svg width="336" height="200" viewBox="0 0 336 200" fill="none" xmlns="http://www.w3.org/2000/svg">
<g clip-path="url(#clip0_2618_1976)">
<circle cx="226.169" cy="54.6109" r="44.2389" fill="#02B190"/>
<path fill-rule="evenodd" clip-rule="evenodd" d="M247.938 64.2983L245.902 62.335C244.452 60.908 241.83 59.8353 239.794 59.8353H238.868V57.2242H239.794C240.853 57.2242 242.508 57.9023 243.269 58.6411L245.275 60.6145C245.635 60.9485 246.108 61.1307 246.601 61.1205C247.095 61.1104 247.558 60.908 247.907 60.5538C248.596 59.8454 248.596 58.7321 247.907 58.0136L245.902 56.0604C244.452 54.6334 241.83 53.5607 239.794 53.5607H238.868V50.9497H239.794C240.853 50.9497 242.508 51.6277 243.269 52.3665L245.254 54.3298C245.583 54.6638 246.056 54.8561 246.55 54.8561H246.571C247.064 54.8561 247.548 54.6638 247.897 54.3399L247.907 54.3298C248.627 53.6012 248.627 52.4677 247.897 51.739L245.902 49.7757C244.452 48.3487 241.83 47.276 239.794 47.276H238.786C238.508 44.8269 237.459 42.5296 235.773 40.6776L236.379 40.0805C237.809 38.6636 238.847 36.4878 238.847 34.9191V32.9558C238.847 31.9438 238.014 31.124 236.986 31.124C235.958 31.124 235.125 31.9438 235.125 32.9558V34.9191C235.125 35.3442 234.6 36.6396 233.736 37.4998L232.883 38.3398C229.078 36.1133 224.152 36.1133 220.347 38.3398L219.494 37.4998C218.63 36.6598 218.105 35.3543 218.105 34.9292V32.9558C218.105 32.47 217.91 32.0045 217.56 31.6604C217.211 31.3163 216.738 31.124 216.244 31.124C215.75 31.124 215.277 31.3163 214.928 31.6604C214.578 32.0045 214.383 32.47 214.383 32.9558V34.9191C214.383 36.4979 215.421 38.6636 216.861 40.0805L217.468 40.6776C215.781 42.5296 214.742 44.8168 214.455 47.276H213.467C211.431 47.276 208.809 48.3487 207.369 49.7757L205.374 51.739C205.024 52.0831 204.829 52.5385 204.829 53.0243C204.829 53.5101 205.014 53.9655 205.364 54.3096L205.374 54.3197C206.104 55.018 207.256 55.018 207.996 54.3197L210.002 52.3463C210.763 51.5974 212.408 50.9294 213.478 50.9294H214.403V53.5404H213.478C211.441 53.5404 208.819 54.6132 207.379 56.0402L205.384 58.0136C205.035 58.3476 204.829 58.8232 204.829 59.309C204.829 59.7948 205.024 60.2704 205.384 60.6145C206.114 61.3027 207.266 61.3027 207.996 60.6145L210.012 58.6411C210.773 57.8922 212.418 57.2242 213.488 57.2242H214.413V59.8353H213.488C211.452 59.8353 208.829 60.908 207.39 62.335L205.395 64.2882C205.045 64.6323 204.85 65.0877 204.85 65.5836C204.85 66.0795 205.045 66.5349 205.384 66.8689L205.405 66.8891C206.135 67.5773 207.287 67.5773 208.017 66.8891L210.022 64.9156C210.783 64.1667 212.429 63.4988 213.498 63.4988H214.701C215.339 65.9176 217.169 68.8018 220.152 72.0808C222.502 74.6567 224.834 76.6562 225.368 77.114L225.458 77.1915C225.808 77.485 226.24 77.6368 226.672 77.6368C227.103 77.6368 227.535 77.4952 227.875 77.2017C228.831 76.4022 237.089 69.3787 238.642 63.5089H239.835C240.894 63.5089 242.55 64.187 243.311 64.9258L245.316 66.8992C246.046 67.5672 247.198 67.5672 247.928 66.8992L247.949 66.879C248.658 66.1604 248.658 65.027 247.938 64.2983ZM218.309 46.8206C218.69 45.2014 219.554 43.7137 220.788 42.5701L221.22 42.1552L221.734 41.801C224.603 39.8073 228.614 39.8073 231.493 41.8111L231.966 42.1248L232.439 42.5701C233.673 43.7137 234.547 45.2014 234.917 46.8308H218.309V46.8206ZM235.148 61.7772V50.9384H218.129L218.17 62.1213C218.396 63.5989 219.558 65.6432 221.522 68.0417C223.415 70.3592 225.533 72.363 226.633 73.3548C229.708 70.5819 234.624 65.4003 235.097 62.091L235.148 61.7772Z" fill="white"/>
<path d="M107.523 84.0713L132.733 83.0029L154.213 195.684L131.275 199.833L107.523 84.0713Z" fill="white"/>
<path d="M107.45 16.8528C107.45 16.8528 106.324 0.635106 96.0656 0.419508C85.7357 0.275776 87.9849 12.1432 87.9849 12.1432C87.9849 12.1432 82.0096 8.77033 83.6976 16.3546C85.3857 23.9388 99.7966 22.8129 99.7966 22.8129L107.46 16.8433L107.45 16.8528Z" fill="#27313A"/>
<path d="M106.746 13.197C106.746 13.197 98.1039 15.444 95.3608 22.8845C95.3608 22.8845 96.5549 24.4273 99.5042 24.8489C99.5042 24.8489 100.77 19.8614 107.379 16.7759C107.451 16.8478 108.362 14.4571 106.746 13.197Z" fill="#FFC12D"/>
<path d="M99.8592 25.3856L99.4324 25.3281C96.3248 24.8825 95.0299 23.2488 94.9772 23.1817L94.8141 22.9709L94.9053 22.7217C97.706 15.1327 106.257 12.833 106.621 12.7372L106.851 12.6797L107.038 12.8234C108.352 13.8487 108.223 15.4633 108.103 16.1101C107.921 17.1018 107.662 17.1977 107.532 17.236C101.269 20.1777 99.9791 24.9208 99.9695 24.9688L99.864 25.3856H99.8592ZM95.9124 22.7745C96.296 23.1386 97.3223 23.9578 99.1686 24.3076C99.6338 23.0092 101.451 19.0614 107.033 16.4071C107.187 15.9951 107.503 14.6057 106.621 13.7289C105.25 14.1505 98.3773 16.5461 95.9076 22.7745H95.9124Z" fill="#FFC12D"/>
<path d="M144.761 71.8254C137.519 73.8616 113.061 76.1086 94.0227 67.9638C94.0946 64.6628 93.8165 60.9449 93.1115 56.6617C91.4234 46.4807 90.0855 17.902 111.033 14.6777C131.98 11.4485 148.137 25.2132 143.643 44.1618C141.821 51.8802 143.082 62.2098 144.77 71.8254H144.761Z" fill="#27313A"/>
<path d="M133.947 55.8855C133.947 53.4948 135.913 51.6023 138.306 51.6023C140.699 51.6023 142.593 53.5666 142.593 55.9574C142.593 58.3481 140.627 60.2406 138.234 60.2406C135.841 60.2406 133.947 58.2762 133.947 55.8855ZM135.213 55.8855C135.213 57.572 136.551 58.9805 138.239 58.9805C139.927 58.9805 141.337 57.6438 141.337 55.9574C141.337 54.2709 139.999 52.8623 138.311 52.8623C136.623 52.7905 135.213 54.199 135.213 55.8855Z" fill="white"/>
<path d="M104.703 78.2937C104.703 78.2937 109.345 86.1606 118.553 87.1428C130.287 88.3357 131.419 83.2812 131.419 83.2812C130.858 81.7384 130.508 80.1861 130.292 78.5093C130.22 77.8768 130.148 77.2444 130.148 76.5449C130.077 74.7243 130.076 72.6833 130.22 70.3645C130.22 69.8039 130.292 69.2386 130.364 68.678V68.6061C122.212 67.0634 115.469 63.6905 110.683 57.9364L109.417 57.2322L108.578 56.8105L108.434 57.2992L108.64 58.7701C109.695 65.7219 108.362 71.6245 104.703 78.2889V78.2985V78.2937Z" fill="white"/>
<path d="M116.514 63.8245C118.409 67.6142 122.629 74.2881 130.148 76.4633C130.077 74.6427 130.076 72.6017 130.22 70.2828C130.22 69.7223 130.292 69.1569 130.364 68.5964C130.22 68.5964 130.014 68.6682 129.875 68.6682C125.453 69.0898 120.595 67.0536 116.524 63.8245H116.514Z" fill="#27313A"/>
<path d="M98.3149 45.4987C97.9648 49.8537 101.825 55.3299 107.523 55.6078H107.666C107.738 55.8857 107.873 56.0965 107.945 56.384C108.016 56.5277 108.016 56.59 108.088 56.7337C111.527 64.2461 122.001 68.8838 127.77 69.1617C129.808 69.2336 131.208 68.812 131.635 68.7401C137.75 67.5471 139.083 59.3305 138.244 53.0829C138.1 52.1726 137.965 51.3246 137.754 50.4862C137.754 50.4143 137.754 50.3424 137.682 50.3424C137.682 50.3424 139.932 41.5652 140.488 37.7803C141.543 30.3398 137.462 22.7555 121.157 20.8582C104.851 19.0376 103.94 28.9312 102.674 34.2684C102.468 35.1787 102.674 41.0765 103.513 41.9868C102.175 41.8431 98.5211 42.2647 98.3149 45.4939H98.3053L98.3149 45.4987Z" fill="white"/>
<path d="M136.474 47.7405C136.268 48.9335 135.563 49.8533 134.93 49.7048C134.297 49.5611 133.947 48.5118 134.153 47.3141C134.359 46.1211 135.064 45.2012 135.697 45.3497C136.33 45.4935 136.68 46.5427 136.474 47.7405Z" fill="#27313A"/>
<path d="M125.856 46.054C125.65 47.2469 124.945 48.1668 124.312 48.0183C123.679 47.8746 123.329 46.8253 123.535 45.6276C123.742 44.4346 124.446 43.5147 125.08 43.6632C125.784 43.807 126.135 44.8562 125.856 46.054Z" fill="#27313A"/>
<path d="M130.499 59.3975C130.293 59.3975 130.149 59.3256 129.938 59.3256C127.971 58.904 126.777 56.9349 126.705 56.8726C126.561 56.5947 126.633 56.1683 126.912 56.0341C127.19 55.8904 127.617 55.9623 127.751 56.2402C127.751 56.2402 128.734 57.8547 130.144 58.1326C131.616 58.4105 132.259 57.6439 132.321 57.5721C132.527 57.2942 132.954 57.2942 133.16 57.5002C133.438 57.7062 133.438 58.0608 133.304 58.3386C133.232 58.4105 132.321 59.5316 130.499 59.3927V59.3975Z" fill="#27313A"/>
<path d="M108.155 52.2344C107.949 52.1625 107.733 52.0284 107.666 51.7457C106.961 47.6062 102.113 45.7138 102.041 45.7138C101.763 45.57 101.552 45.2251 101.691 44.9376C101.835 44.6597 102.113 44.4489 102.468 44.5879C102.674 44.6597 108.021 46.763 108.86 51.5397C108.932 51.8895 108.716 52.1721 108.371 52.244H108.165L108.155 52.2344Z" fill="#27313A"/>
<path d="M103.015 49.7816C102.943 49.7816 102.871 49.7097 102.809 49.7097C102.53 49.5037 102.458 49.1492 102.602 48.8713C102.674 48.7994 103.796 47.0507 106.185 47.1848C106.535 47.1848 106.746 47.4627 106.746 47.8172C106.746 48.1718 106.468 48.3778 106.113 48.3778C104.425 48.2341 103.585 49.5037 103.585 49.5037C103.514 49.7816 103.235 49.8534 103.024 49.7816H103.015Z" fill="#27313A"/>
<path d="M107.523 55.6079H107.666C107.738 55.8857 107.873 56.0965 107.945 56.384C108.016 56.5277 108.017 56.59 108.088 56.7338C108.721 56.6619 109.561 56.4559 110.338 55.8953C110.76 55.6174 111.177 55.191 111.532 54.6305C111.676 54.3526 111.604 53.9981 111.326 53.792C111.047 53.586 110.692 53.7202 110.486 53.9981C110.136 54.5586 109.575 54.9802 109.076 55.191C108.726 55.3348 108.371 55.4689 108.021 55.4689C107.877 55.6126 107.671 55.6126 107.532 55.6126L107.523 55.6031V55.6079Z" fill="#722324"/>
<path d="M108.995 55.5361C108.573 55.6798 108.084 55.6798 107.729 55.6798V55.7517C107.729 57.4382 106.319 58.7749 104.631 58.7749C102.943 58.7749 101.605 57.3663 101.605 55.6798C101.605 54.1371 102.732 52.8771 104.204 52.6567C104.554 52.2351 104.626 51.8183 104.204 51.3918C102.027 51.5979 100.339 53.428 100.339 55.6751C100.339 58.0658 102.233 60.0301 104.626 60.0301C107.019 60.0301 108.985 58.1377 108.985 55.7469V55.5313L108.995 55.5361Z" fill="white"/>
<path d="M128.882 62.0662C128.043 61.8602 127.616 61.29 127.544 61.29C127.4 61.1463 127.472 60.8684 127.616 60.7295C127.76 60.5857 128.038 60.6576 128.177 60.8013C128.177 60.8732 128.81 61.5775 129.865 61.29C130.072 61.2182 130.287 61.3619 130.355 61.5679C130.426 61.7739 130.283 61.9895 130.076 62.0566C129.654 62.2003 129.237 62.1285 128.882 62.0566V62.0662Z" fill="#27313A"/>
<path d="M104.353 25.2756C107.935 21.7685 112.855 18.9514 118.764 19.3778C126.988 20.0102 134.508 23.1052 138.651 27.5944C140.618 29.7696 141.812 32.304 141.884 35.1068C142.162 43.6732 140.339 41.9149 140.339 41.9149C140.339 41.9149 140.411 41.7089 140.195 39.8787C140.052 38.7528 139.845 37.0759 139.419 34.4744C138.435 28.4424 118.898 27.3118 120.087 31.3171C120.087 31.3171 120.159 31.8058 120.087 32.5819C120.015 33.4204 119.809 34.5463 119.248 35.6769C119.104 35.6769 118.97 35.7488 118.826 35.7488C116.86 36.0267 115.244 36.5872 113.906 37.2197C113.762 37.3634 110.745 39.4667 111.1 42.5569C111.45 45.7861 112.572 49.9974 110.395 49.159C108.218 48.3206 107.59 45.7238 107.59 45.7238C106.463 44.2529 105.062 42.7725 102.948 42.073C102.108 36.3189 102.036 30.5553 104.357 25.2851V25.2756H104.353Z" fill="#27313A"/>
<path d="M103.159 28.9261C109.062 27.0337 118.409 31.5948 120.025 32.5769C119.953 33.4154 119.747 34.5413 119.186 35.672C119.042 35.672 118.908 35.7438 118.764 35.7438C116.798 36.0217 115.181 36.5823 113.843 37.2147C113.7 37.3584 110.683 39.4617 111.038 42.5519C111.388 45.7811 114.064 62.9187 110.688 65.5155C103.873 70.7808 106.607 45.5751 106.607 45.5751C105.48 44.1042 104.919 42.6956 102.813 41.9243C100.636 37.3584 101.475 33.0752 103.163 28.9357V28.9261H103.159Z" fill="#27313A"/>
<path d="M131.132 53.7154C131.204 53.7154 131.338 53.7154 131.41 53.6435L133.659 52.3787C133.803 52.3068 133.937 52.1727 133.937 51.9571C133.937 51.7415 133.865 51.6073 133.731 51.5354C131.971 50.4814 130.988 48.8668 130.499 46.4138C130.427 46.1359 130.22 45.9922 129.938 45.9922C129.659 46.0641 129.516 46.2701 129.516 46.5527C130.005 48.9435 130.925 50.6299 132.542 51.8181L130.997 52.6566C130.791 52.8003 130.647 53.0782 130.791 53.3608C130.791 53.6387 130.935 53.7106 131.141 53.7106L131.132 53.7202V53.7154Z" fill="#27313A"/>
<path d="M123.257 53.2166C120.025 52.9387 117.56 50.1216 117.776 46.8924C118.054 43.6632 120.874 41.2006 124.106 41.4162C127.338 41.6941 129.803 44.5112 129.588 47.7404C129.381 50.9696 126.562 53.4322 123.257 53.2166ZM124.097 42.3313C121.353 42.1253 118.97 44.1519 118.754 46.9691C118.548 49.7095 120.577 52.0907 123.396 52.3063C126.139 52.5123 128.523 50.4857 128.739 47.6686C128.883 44.9281 126.844 42.5469 124.097 42.3313Z" fill="#27313A"/>
<path d="M137.313 54.2713C134.081 53.9934 131.616 51.1763 131.832 47.9471C132.11 44.7179 134.93 42.2553 138.162 42.4709C141.394 42.7488 143.859 45.5659 143.643 48.7951C143.437 52.0243 140.545 54.4869 137.313 54.2713ZM138.09 43.386C135.347 43.18 132.963 45.2066 132.748 48.0237C132.541 50.7642 134.57 53.1454 137.39 53.361C140.133 53.567 142.516 51.5404 142.732 48.7232C142.938 45.9828 140.838 43.6016 138.09 43.386Z" fill="#27313A"/>
<path d="M105.906 44.7949L105.417 44.0906C105.623 43.9469 111.954 39.9511 119.401 43.3863L118.979 44.2247C112.093 40.9956 105.978 44.7134 105.906 44.7853V44.7949Z" fill="#27313A"/>
<path d="M129.444 47.6689L128.954 46.8927C129.659 46.4711 131.347 45.9106 132.685 47.1706L132.052 47.8749C130.858 46.749 129.525 47.597 129.453 47.6689H129.444Z" fill="#27313A"/>
<path d="M126.072 40.7984C127.127 41.5746 128.528 40.3768 127.832 39.2557C127.482 38.6952 126.849 38.1298 125.866 37.7849C121.507 36.3763 118.14 38.9778 118.14 38.9778C118.14 38.9778 122.782 39.1216 124.883 40.1037C125.372 40.3098 125.794 40.5924 126.077 40.808V40.7984H126.072Z" fill="#27313A"/>
<path d="M133.314 41.9145C132.048 42.4032 131.065 40.7886 132.048 39.9502C132.537 39.4615 133.314 39.1118 134.369 39.0399C138.939 38.8339 139.994 41.8427 139.994 41.8427C139.994 41.8427 136.968 41.1384 134.652 41.5648C134.091 41.7085 133.669 41.7708 133.314 41.9145Z" fill="#27313A"/>
<path d="M107.096 71.8979C107.096 71.8979 100.415 73.5125 98.5211 83.4157C98.5211 83.4157 86.5032 86.9946 83.2709 89.5961C80.0387 92.1929 76.1733 94.9334 76.4563 99.1495C77.2955 112.914 97.8162 143.381 99.9311 151.597C102.046 159.814 89.3231 189.653 89.3231 189.653C98.5307 197.237 112.515 200.6 131.276 199.834C131.276 199.834 128.043 119.794 122.14 106.806C116.236 93.8889 110.611 84.1918 107.101 71.9075V71.8979H107.096Z" fill="white"/>
<path d="M126.269 200.418C109.916 200.418 97.3991 196.93 89.0163 190.022C88.8533 189.887 88.7957 189.657 88.882 189.466C89.0067 189.169 101.514 159.685 99.466 151.717C98.6939 148.708 95.3274 142.518 91.4333 135.356C84.7865 123.129 76.514 107.912 75.9769 99.1783C75.6987 95.0148 79.1996 92.2264 82.288 89.7686L82.9738 89.2224C86.0046 86.7886 96.2434 83.6073 98.1089 83.042C99.1447 77.9682 101.447 75.1032 103.211 73.5796C105.182 71.8836 106.919 71.4476 106.99 71.4332C107.134 71.3949 107.283 71.4332 107.398 71.5243C107.494 71.5961 107.552 71.7015 107.576 71.8165C110.108 80.6608 113.671 88.0151 117.8 96.5336C119.349 99.734 120.955 103.045 122.581 106.604C128.456 119.531 131.631 196.542 131.76 199.814C131.77 200.078 131.563 200.303 131.3 200.313C129.588 200.385 127.909 200.418 126.274 200.418H126.269ZM89.9035 189.509C98.8714 196.734 112.616 200.049 130.777 199.379C130.494 192.705 127.267 119.243 121.704 107.007C120.078 103.457 118.481 100.151 116.932 96.9552C112.851 88.5325 109.321 81.2405 106.775 72.5112C105.288 73.0574 100.545 75.405 98.9961 83.5115C98.9625 83.6888 98.833 83.8277 98.6604 83.8804C98.5405 83.9139 86.6952 87.4641 83.5732 89.9746L82.8874 90.5256C79.8422 92.9499 76.6914 95.4556 76.936 99.1208C77.4539 107.644 85.6737 122.76 92.2773 134.9C96.205 142.121 99.5955 148.359 100.396 151.482C102.43 159.388 91.3662 186.045 89.9035 189.514V189.509Z" fill="#27313A"/>
<path d="M98.238 83.7693C99.9261 93.7347 106.597 102.656 115.953 106.445L98.238 83.7693Z" fill="white"/>
<path d="M115.953 106.92C115.896 106.92 115.834 106.911 115.771 106.887C106.429 103.102 99.5332 94.2768 97.7636 83.8466C97.7204 83.5879 97.8978 83.3388 98.1568 83.2957C98.4157 83.2525 98.6651 83.425 98.7083 83.6885C100.42 93.7929 107.096 102.34 116.131 106C116.375 106.101 116.495 106.379 116.395 106.623C116.318 106.81 116.141 106.92 115.949 106.92H115.953Z" fill="#27313A"/>
<path d="M231.83 117.831C232.57 117.642 247.137 113.761 245.856 111.54C245.053 110.152 242.203 109.127 238.697 109.419C235.558 109.681 228.613 110.179 227.192 110.28C227.024 110.293 226.862 110.266 226.708 110.199C225.686 109.765 221.424 108.085 217.66 108.472C217.522 108.472 217.323 108.535 217.118 108.542C217.018 108.549 216.913 108.559 216.813 108.566C215.771 108.781 214.934 109.07 214.228 109.493C212.547 110.663 211.962 112.857 212.766 114.685C213.058 115.344 213.495 115.928 214.154 116.439C214.638 116.856 215.256 117.273 216.006 117.626C216.019 117.632 216.06 117.636 216.107 117.666C216.268 117.773 216.268 118.025 216.271 118.046C216.292 118.291 219.841 120.909 231.83 117.827V117.831Z" fill="white"/>
<path d="M221.865 119.659C221.411 119.659 220.97 119.645 220.547 119.619C217.764 119.444 216.571 118.735 216.272 118.523C216.046 118.365 215.946 118.231 215.936 118.079C215.936 118.009 215.922 117.972 215.915 117.955C215.892 117.948 215.875 117.942 215.865 117.935C215.146 117.595 214.497 117.179 213.936 116.698C213.277 116.184 212.789 115.569 212.46 114.823C211.583 112.824 212.245 110.468 214.036 109.218C214.766 108.781 215.62 108.472 216.746 108.237C216.759 108.237 216.772 108.233 216.786 108.23L217.092 108.203C217.196 108.2 217.287 108.179 217.367 108.166C217.461 108.149 217.552 108.132 217.643 108.129C221.431 107.746 225.642 109.376 226.842 109.883C226.95 109.927 227.058 109.944 227.172 109.94C229.101 109.803 235.628 109.335 238.67 109.08C242.072 108.798 245.218 109.759 246.149 111.369C246.3 111.631 246.313 111.923 246.189 112.219C245.134 114.729 232.049 118.116 231.914 118.153C228.036 119.151 224.661 119.652 221.865 119.652V119.659ZM216.594 117.921C216.977 118.214 220.436 120.415 231.746 117.508C235.951 116.429 244.858 113.654 245.567 111.967C245.621 111.842 245.598 111.772 245.564 111.715C244.888 110.549 242.263 109.466 238.724 109.759C235.679 110.014 229.145 110.481 227.216 110.619C226.997 110.636 226.779 110.599 226.577 110.512C225.747 110.162 221.421 108.428 217.693 108.808C217.633 108.815 217.566 108.821 217.485 108.835C217.381 108.855 217.26 108.875 217.129 108.882L216.856 108.905C215.818 109.124 215.035 109.403 214.396 109.786C212.887 110.838 212.322 112.85 213.072 114.554C213.358 115.193 213.778 115.727 214.359 116.177C214.88 116.624 215.472 117.004 216.127 117.317C216.164 117.327 216.225 117.35 216.288 117.391C216.453 117.501 216.561 117.686 216.594 117.918V117.921Z" fill="#27313A" stroke="#27313A" stroke-width="0.221194"/>
<path d="M222.497 118.496C219.495 121.975 216.094 126.272 213.092 129.747C211.694 129.31 209.576 128.457 207.445 126.743C204.504 124.374 203.073 121.598 202.437 120.113C204.851 118.133 207.271 116.127 209.697 114.091C210.682 113.264 211.66 112.441 212.635 111.614" fill="white"/>
<path d="M227.192 110.28C231.162 110.032 233.958 109.094 235.85 108.214C236.462 107.928 239.003 106.812 240.744 107.259C241.383 107.424 241.981 107.884 242.788 108.798C242.831 108.849 242.855 108.896 242.858 108.956C242.882 109.508 240.704 109.934 237.222 110.852C236.005 111.171 235.003 111.453 234.318 111.652" fill="white"/>
<path d="M213.092 130.084C213.059 130.084 213.025 130.08 212.992 130.07C210.881 129.412 208.941 128.38 207.234 127.006C205.026 125.228 203.258 122.889 202.128 120.244C202.071 120.106 202.108 119.949 202.226 119.851C204.639 117.872 207.083 115.849 209.483 113.832C210.467 113.006 211.445 112.182 212.42 111.356C212.561 111.235 212.773 111.255 212.894 111.396C213.015 111.537 212.995 111.749 212.854 111.87C211.879 112.697 210.898 113.52 209.913 114.347C207.573 116.309 205.197 118.278 202.848 120.207C203.94 122.657 205.6 124.821 207.657 126.478C209.244 127.755 211.032 128.723 212.982 129.358L221.845 119.095C221.966 118.954 222.178 118.94 222.319 119.061C222.46 119.182 222.473 119.394 222.352 119.535L213.345 129.966C213.281 130.04 213.187 130.084 213.089 130.084H213.092Z" fill="#27313A" stroke="#27313A" stroke-width="0.221194"/>
<path d="M234.317 111.991C234.173 111.991 234.039 111.893 233.995 111.749C233.944 111.571 234.045 111.386 234.223 111.332C235.171 111.06 236.149 110.791 237.134 110.532C237.786 110.361 238.395 110.206 238.949 110.065C240.593 109.645 242.152 109.249 242.485 108.97C241.736 108.13 241.204 107.73 240.657 107.589C239.07 107.182 236.68 108.2 235.988 108.523C233.43 109.709 230.479 110.415 227.212 110.62C227.024 110.63 226.866 110.492 226.856 110.304C226.846 110.116 226.983 109.958 227.172 109.948C230.355 109.749 233.228 109.064 235.709 107.915C236.664 107.471 239.077 106.49 240.828 106.94C241.53 107.121 242.172 107.595 243.043 108.583C243.14 108.697 243.191 108.815 243.198 108.953C243.228 109.672 242.109 109.958 239.121 110.721C238.566 110.862 237.961 111.016 237.309 111.188C236.327 111.446 235.353 111.715 234.412 111.984C234.381 111.994 234.348 111.997 234.317 111.997V111.991Z" fill="#27313A" stroke="#27313A" stroke-width="0.221194"/>
<path d="M154.602 85.4931C154.602 85.4931 159.132 85.3452 163.441 94.6336C165.851 99.8994 175.787 127.835 178.852 135.443C178.852 135.443 190.757 126.595 196.236 123.083C200.767 120.16 203.029 118.036 203.029 118.036C203.029 118.036 207.119 113.94 208.726 114.891L218.588 123.08C218.588 123.08 220.12 124.616 218.514 126.37C217.707 127.237 203.328 142.967 193.359 152.283C189.453 155.932 184.334 158.005 178.99 158.103C170.241 158.261 162.248 153.136 158.773 145.105C151.795 128.984 144.3 104.429 144.3 104.429" fill="white"/>
<path d="M178.59 158.449C169.821 158.449 161.952 153.301 158.464 145.246C151.56 129.29 144.054 104.782 143.98 104.537C143.927 104.359 144.027 104.171 144.202 104.117C144.38 104.06 144.569 104.164 144.622 104.339C144.696 104.584 152.192 129.058 159.082 144.977C162.514 152.908 170.332 157.921 178.983 157.774C184.254 157.68 189.278 155.643 193.13 152.044C199.063 146.499 207.842 137.463 217.855 126.598C218.067 126.367 218.208 126.215 218.272 126.148C219.609 124.686 218.483 123.456 218.352 123.322L208.538 115.173C207.513 114.618 204.77 116.776 203.271 118.278C203.241 118.308 200.925 120.462 196.421 123.369C191.013 126.834 179.175 135.628 179.054 135.715C178.97 135.779 178.862 135.796 178.761 135.769C178.661 135.742 178.58 135.668 178.54 135.571C177.219 132.301 174.647 125.315 171.925 117.922C168.278 108.015 164.503 97.7689 163.132 94.7781C158.988 85.8493 154.639 85.8157 154.608 85.8325C154.423 85.8459 154.269 85.6914 154.265 85.5065C154.262 85.3217 154.403 85.1671 154.588 85.1638C154.783 85.157 159.388 85.1167 163.744 94.4992C165.125 97.5169 168.903 107.773 172.557 117.693C175.172 124.791 177.646 131.511 179.003 134.919C181.017 133.43 191.157 125.947 196.055 122.804C200.501 119.935 202.777 117.818 202.8 117.797C203.231 117.367 207.119 113.553 208.897 114.608C208.914 114.618 208.928 114.628 208.941 114.639L218.803 122.828C219.435 123.46 220.204 125.029 218.762 126.605C218.699 126.672 218.557 126.827 218.349 127.055C208.329 137.933 199.537 146.983 193.591 152.538C189.618 156.251 184.435 158.352 178.997 158.449C178.862 158.449 178.724 158.452 178.593 158.452L178.59 158.449Z" fill="#27313A" stroke="#27313A" stroke-width="0.221194"/>
<path d="M173.448 139.658C173.343 139.658 173.239 139.611 173.175 139.52C173.068 139.369 173.101 139.16 173.249 139.049L178.802 135.027C178.953 134.916 179.161 134.953 179.272 135.101C179.38 135.252 179.346 135.46 179.198 135.571L173.646 139.594C173.585 139.637 173.518 139.658 173.448 139.658Z" fill="#27313A" stroke="#27313A" stroke-width="0.221194"/>
<path d="M229.676 113.271C229.528 113.271 229.393 113.173 229.353 113.025C229.303 112.847 229.41 112.662 229.588 112.612L242.078 109.174C242.257 109.124 242.441 109.231 242.492 109.41C242.542 109.588 242.435 109.772 242.257 109.823L229.767 113.261C229.736 113.267 229.706 113.274 229.676 113.274V113.271Z" fill="#27313A" stroke="#27313A" stroke-width="0.221194"/>
<path d="M135.563 102.22C135.481 102.22 135.395 102.201 135.318 102.153C135.088 102.019 135.016 101.727 135.146 101.497C137.927 96.7678 138.584 88.8147 136.781 81.7096C136.719 81.4508 136.872 81.1921 137.126 81.1298C137.385 81.0675 137.644 81.2209 137.707 81.4748C139.596 88.9249 138.91 96.9787 135.966 101.985C135.875 102.139 135.716 102.22 135.553 102.22H135.563Z" fill="#27313A"/>
<path d="M97.4807 117.537C97.4807 117.537 97.3081 137.813 98.5693 147.295L93.0352 137.248L97.4759 117.537H97.4807Z" fill="#27313A"/>
<path d="M129.659 74.0732C129.659 74.0732 131.347 87.972 132.613 96.9648C133.951 106.581 145.125 134.11 146.463 152.22C147.801 170.33 152.16 195.685 152.16 195.685C152.16 195.685 167.056 194.631 176.762 184.871C176.762 184.871 163.895 157.342 161.296 146.322C158.697 135.298 166.706 121.112 164.672 115.08C162.706 108.971 156.448 106.729 155.959 101.243C155.469 95.7671 157.997 87.1288 153.92 84.532C149.839 81.9353 138.67 82.5677 137.265 81.437C137.193 81.3651 133.889 74.557 129.674 74.0684L129.664 74.0779L129.659 74.0732Z" fill="white"/>
<path d="M152.156 196.164C151.926 196.164 151.724 195.996 151.686 195.766C151.643 195.512 147.308 170.182 145.984 152.254C145.164 141.129 140.584 126.353 136.911 114.481C134.628 107.113 132.657 100.745 132.139 97.0321C130.887 88.1399 129.204 74.2698 129.185 74.1309C129.166 73.9871 129.218 73.8386 129.324 73.7332L129.333 73.7236C129.434 73.6182 129.578 73.5655 129.727 73.5847C133.304 73.9967 136.196 78.438 137.601 81.0492C137.611 81.0683 137.62 81.0827 137.63 81.0971C138.205 81.4277 140.445 81.6049 142.613 81.7774C146.631 82.0984 151.633 82.4961 154.18 84.1154C157.23 86.0558 156.894 90.866 156.573 95.5134C156.429 97.5783 156.295 99.5235 156.443 101.191C156.683 103.917 158.501 105.862 160.419 107.917C162.26 109.891 164.169 111.932 165.133 114.922C166.087 117.753 164.97 122.128 163.68 127.197C162.121 133.31 160.357 140.238 161.767 146.203C164.327 157.05 177.069 184.383 177.199 184.661C177.285 184.843 177.247 185.058 177.103 185.202C167.382 194.976 152.348 196.145 152.194 196.154C152.185 196.154 152.17 196.154 152.161 196.154L152.156 196.164ZM130.211 74.6579C130.561 77.499 131.99 89.1077 133.084 96.898C133.592 100.539 135.549 106.868 137.822 114.199C141.514 126.119 146.109 140.947 146.938 152.182C148.161 168.764 151.974 191.718 152.554 195.163C155.033 194.894 167.636 193.155 176.182 184.766C174.768 181.714 163.263 156.748 160.827 146.428C159.364 140.233 161.162 133.185 162.745 126.967C163.997 122.046 165.08 117.801 164.217 115.229C163.315 112.435 161.484 110.476 159.714 108.579C157.676 106.399 155.753 104.339 155.484 101.282C155.331 99.5427 155.475 97.4633 155.614 95.4511C155.921 91.0816 156.232 86.5637 153.662 84.9299C151.317 83.4351 146.444 83.0518 142.531 82.7404C139.318 82.4865 137.611 82.3284 136.959 81.8062C136.944 81.7966 136.93 81.7822 136.92 81.7726C136.863 81.7151 136.848 81.6864 136.752 81.5091C134.705 77.705 132.355 75.2568 130.211 74.6627V74.6579Z" fill="#27313A"/>
<path d="M135.563 101.746C138.661 96.4803 138.939 88.2636 137.251 81.5945L135.563 101.746Z" fill="white"/>
<path d="M130.077 157.821C129.065 156.949 127.391 153.461 126.921 152.096C125.823 148.905 125.852 147.113 128.513 145.038L131.942 141.531L135.846 132.289C137.198 129.947 138.69 128.61 139.361 128.907C139.994 129.185 140.018 130.958 139.51 133.066C139.26 134.033 139.016 134.996 138.766 135.964C143.087 134.158 147.47 132.505 152.602 130.531C153.537 130.172 154.592 130.617 154.98 131.542C155.369 132.472 154.947 133.54 154.026 133.947L145.581 137.713L159.752 134.421C160.702 134.201 161.656 134.752 161.939 135.682C162.231 136.645 161.694 137.665 160.735 137.976L147.259 142.298L158.064 141.345C159.052 141.258 159.93 141.958 160.064 142.94C160.184 143.831 159.647 144.684 158.788 144.957L149.149 148.023L154.28 147.333C155.048 147.233 155.815 147.664 156.04 148.407C156.28 149.211 155.848 150.036 155.091 150.309L142.435 154.913L130.086 157.816L130.077 157.821Z" fill="white"/>
<path d="M130.076 158.3C129.961 158.3 129.851 158.262 129.765 158.185C128.604 157.188 126.906 153.528 126.47 152.254C125.353 149.005 125.314 146.94 128.196 144.684L131.539 141.263L135.409 132.102C135.409 132.102 135.424 132.064 135.433 132.05C136.579 130.066 138.344 127.929 139.557 128.466C140.867 129.041 140.21 132.217 139.979 133.176L139.471 135.15C142.814 133.77 146.18 132.476 150.031 131L152.429 130.081C153.613 129.625 154.928 130.181 155.421 131.355C155.906 132.514 155.369 133.87 154.223 134.383L150.343 136.112L159.642 133.952C160.831 133.674 162.039 134.373 162.394 135.542C162.759 136.75 162.083 138.048 160.879 138.431L151.489 141.44L158.016 140.865C159.253 140.75 160.366 141.637 160.534 142.873C160.687 143.999 160.011 145.067 158.927 145.412L154.438 146.84C154.438 146.84 154.477 146.84 154.496 146.84C155.407 146.84 156.232 147.419 156.491 148.267C156.798 149.297 156.251 150.395 155.244 150.759L142.588 155.363C142.588 155.363 142.555 155.377 142.536 155.377L130.187 158.281C130.148 158.29 130.115 158.295 130.076 158.295V158.3ZM136.277 132.505L132.383 141.718C132.359 141.776 132.326 141.823 132.282 141.867L128.853 145.374C128.853 145.374 128.82 145.402 128.806 145.417C126.307 147.362 126.336 148.929 127.372 151.937C127.818 153.241 129.295 156.288 130.22 157.289L142.286 154.453L154.913 149.863C155.445 149.671 155.733 149.091 155.57 148.545C155.421 148.052 154.884 147.736 154.338 147.812L149.206 148.502C148.952 148.536 148.727 148.373 148.674 148.133C148.621 147.889 148.76 147.645 148.995 147.573L158.635 144.506C159.272 144.305 159.67 143.673 159.579 143.012C159.479 142.283 158.822 141.756 158.093 141.828L147.288 142.782C147.048 142.806 146.823 142.638 146.775 142.398C146.727 142.159 146.866 141.919 147.096 141.847L160.572 137.526C161.277 137.301 161.68 136.539 161.464 135.825C161.253 135.14 160.543 134.728 159.843 134.891L145.672 138.182C145.432 138.24 145.188 138.101 145.111 137.866C145.034 137.631 145.144 137.377 145.37 137.277L153.815 133.511C154.491 133.209 154.808 132.409 154.52 131.729C154.232 131.039 153.455 130.708 152.755 130.981L150.357 131.901C146.175 133.506 142.559 134.891 138.934 136.41C138.766 136.481 138.574 136.448 138.435 136.328C138.296 136.208 138.239 136.021 138.282 135.849L139.025 132.95C139.605 130.555 139.313 129.453 139.145 129.348C138.891 129.285 137.639 130.124 136.258 132.51L136.277 132.505Z" fill="#27313A"/>
<path d="M75.5834 98.6129L66.7066 156.815C65.6324 163.853 68.3755 170.934 73.9097 175.418C79.9474 180.31 88.2679 181.283 95.2743 177.915L134.91 158.841L127.559 144.209L92.0469 156.8L99.0869 101.904C99.8686 95.8102 95.8594 90.128 89.8457 88.8152C83.1509 87.3539 76.6144 91.848 75.5834 98.6129Z" fill="white"/>
<path d="M86.5847 180.367C81.9425 180.367 77.3291 178.81 73.6077 175.792C67.9632 171.221 65.1385 163.919 66.2319 156.742L75.1087 98.5406C75.6266 95.1342 77.4778 92.1877 80.3168 90.2329C83.1558 88.283 86.5751 87.6122 89.9465 88.3452C96.248 89.7203 100.377 95.575 99.5618 101.961L92.6225 156.086L127.401 143.754C127.626 143.672 127.88 143.773 127.99 143.989L135.342 158.621C135.4 158.736 135.409 158.87 135.366 158.989C135.323 159.109 135.237 159.21 135.122 159.267L95.4855 178.341C92.6656 179.696 89.6204 180.362 86.5895 180.362L86.5847 180.367ZM76.0582 98.6891L67.1815 156.891C66.136 163.733 68.8312 170.689 74.2119 175.049C80.077 179.802 88.2632 180.755 95.0683 177.483L134.268 158.625L127.324 144.808L92.2101 157.255C92.0518 157.313 91.8791 157.279 91.7496 157.178C91.6201 157.078 91.553 156.91 91.577 156.742L98.6171 101.846C99.3748 95.9535 95.5622 90.5539 89.7499 89.2843C86.6423 88.6088 83.4915 89.2268 80.8683 91.0234C78.2499 92.8249 76.5426 95.5414 76.063 98.6844L76.0582 98.6891Z" fill="#27313A"/>
<path d="M129.635 161.289C129.463 161.289 129.295 161.193 129.209 161.025L121.713 146.345C121.593 146.111 121.684 145.823 121.924 145.703C122.159 145.584 122.447 145.675 122.567 145.914L130.062 160.594C130.182 160.829 130.091 161.116 129.851 161.236C129.779 161.27 129.707 161.289 129.635 161.289Z" fill="#27313A"/>
</g>
<defs>
<clipPath id="clip0_2618_1976">
<rect width="336" height="200" fill="white"/>
</clipPath>
</defs>
</svg>
