<svg width="49" height="57" viewBox="0 0 49 57" fill="none" xmlns="http://www.w3.org/2000/svg">
<g clip-path="url(#clip0_938_21032)">
<path d="M39.46 13.5V53.15C39.46 54.42 38.43 55.45 37.16 55.45H2.3C1.03 55.45 0 54.42 0 53.15V4.58999C0 3.31999 1.03 2.28999 2.3 2.28999H28.25L39.46 13.5Z" fill="#C8D6F0"/>
<path d="M41.6 39.19V51.24C41.6 52.51 40.57 53.54 39.3 53.54H4.44C3.17 53.54 2.14 52.51 2.14 51.24V2.67C2.14 1.4 3.17 0.380005 4.44 0.380005H30.39L41.6 11.59V25.49" stroke="#365DBD" stroke-width="0.75" stroke-linecap="round" stroke-linejoin="round"/>
<path d="M30.39 11.59V0.380005L41.6 11.59H30.39Z" fill="#365DBD" stroke="#365DBD" stroke-width="0.75" stroke-linecap="round" stroke-linejoin="round"/>
<path d="M6.67999 18.18V17C6.67999 16.84 6.80999 16.71 6.96999 16.71H11.19C11.35 16.71 11.48 16.84 11.48 17V20.92C11.48 21.08 11.35 21.21 11.19 21.21H6.96999C6.80999 21.21 6.67999 21.08 6.67999 20.92V19.4" fill="white"/>
<path d="M7.31 17.55V16.08H12.1V20.58H7.31V18.77" stroke="#1B344B" stroke-width="0.75" stroke-linecap="round" stroke-linejoin="round"/>
<path d="M14.31 18.18V17C14.31 16.84 14.44 16.71 14.6 16.71H36.14C36.3 16.71 36.43 16.84 36.43 17V20.92C36.43 21.08 36.3 21.21 36.14 21.21H14.6C14.44 21.21 14.31 21.08 14.31 20.92V19.4" fill="white"/>
<path d="M14.94 17.55V16.08H37.07V20.58H14.94V18.77" stroke="#1B344B" stroke-width="0.75" stroke-linecap="round" stroke-linejoin="round"/>
<path d="M6.67999 29.06V27.88C6.67999 27.72 6.80999 27.59 6.96999 27.59H11.19C11.35 27.59 11.48 27.72 11.48 27.88V31.8C11.48 31.96 11.35 32.09 11.19 32.09H6.96999C6.80999 32.09 6.67999 31.96 6.67999 31.8V30.28" fill="white"/>
<path d="M7.31 28.42V26.95H12.1V31.46H7.31V29.65" stroke="#1B344B" stroke-width="0.75" stroke-linecap="round" stroke-linejoin="round"/>
<path d="M14.31 29.06V27.88C14.31 27.72 14.44 27.59 14.6 27.59H36.14C36.3 27.59 36.43 27.72 36.43 27.88V31.8C36.43 31.96 36.3 32.09 36.14 32.09H14.6C14.44 32.09 14.31 31.96 14.31 31.8V30.28" fill="white"/>
<path d="M14.94 28.42V26.95H37.07V31.46H14.94V29.65" stroke="#1B344B" stroke-width="0.75" stroke-linecap="round" stroke-linejoin="round"/>
<path d="M6.67999 39.94V38.76C6.67999 38.6 6.80999 38.47 6.96999 38.47H11.19C11.35 38.47 11.48 38.6 11.48 38.76V42.68C11.48 42.84 11.35 42.97 11.19 42.97H6.96999C6.80999 42.97 6.67999 42.84 6.67999 42.68V41.16" fill="white"/>
<path d="M7.31 39.3V37.83H12.1V42.34H7.31V40.53" stroke="#1B344B" stroke-width="0.75" stroke-linecap="round" stroke-linejoin="round"/>
<path d="M14.31 39.94V38.76C14.31 38.6 14.44 38.47 14.6 38.47H36.14C36.3 38.47 36.43 38.6 36.43 38.76V42.68C36.43 42.84 36.3 42.97 36.14 42.97H14.6C14.44 42.97 14.31 42.84 14.31 42.68V41.16" fill="white"/>
<path d="M14.94 39.3V37.83H37.07V42.34H14.94V40.53" stroke="#1B344B" stroke-width="0.75" stroke-linecap="round" stroke-linejoin="round"/>
<path d="M44.21 50.95C44.21 56.59 39.64 56.42 33.99 56.42C28.34 56.42 23.77 56.6 23.77 50.95C23.77 45.3 26.93 36.45 33.99 36.45C41.05 36.45 44.21 45.31 44.21 50.95Z" fill="white"/>
<path d="M46.25 50.59C46.25 56.23 41.68 56.06 36.03 56.06C30.38 56.06 25.81 56.24 25.81 50.59C25.81 44.94 28.97 36.09 36.03 36.09C43.09 36.09 46.25 44.95 46.25 50.59Z" fill="#C8D6F0"/>
<path d="M42.93 30.78C42.93 28.72 40.77 30.69 38.1 30.69C35.43 30.69 33.27 28.71 33.27 30.78C33.27 32.85 34.77 36.08 38.1 36.08C41.43 36.08 42.93 32.84 42.93 30.78Z" fill="#365DBD" stroke="#365DBD" stroke-width="0.75" stroke-linecap="round" stroke-linejoin="round"/>
<path d="M48.32 50.59C48.32 56.23 43.75 56.06 38.1 56.06C32.45 56.06 27.88 56.24 27.88 50.59C27.88 44.94 31.04 36.09 38.1 36.09C45.16 36.09 48.32 44.95 48.32 50.59Z" stroke="#365DBD" stroke-width="0.75" stroke-linecap="round" stroke-linejoin="round"/>
<path d="M40.59 45.76C40.19 45.4 39.59 45.14 38.79 44.97L38.72 44.95L37.83 44.76C37.72 44.73 37.61 44.7 37.52 44.67C37.22 44.58 36.99 44.46 36.85 44.32C36.66 44.14 36.57 43.92 36.57 43.67C36.57 43.47 36.62 43.3 36.74 43.14C36.86 42.97 37.03 42.84 37.26 42.74C37.34 42.71 37.42 42.68 37.52 42.65C37.69 42.61 37.89 42.59 38.1 42.59C38.33 42.59 38.53 42.62 38.72 42.68C38.78 42.69 38.85 42.71 38.91 42.73C39.14 42.82 39.32 42.95 39.46 43.12C39.6 43.29 39.69 43.5 39.73 43.74V43.8H41.1V43.7C41.06 43.23 40.91 42.83 40.65 42.49C40.39 42.15 40.04 41.89 39.61 41.7C39.34 41.59 39.04 41.51 38.72 41.48V40.46H37.52V41.47C37.18 41.51 36.86 41.59 36.58 41.72C36.13 41.91 35.79 42.18 35.53 42.53C35.28 42.88 35.16 43.29 35.16 43.76C35.16 44.37 35.35 44.86 35.74 45.22C36.14 45.58 36.71 45.85 37.48 46.02H37.52L38.42 46.23C38.53 46.25 38.63 46.28 38.72 46.31C39.1 46.41 39.36 46.53 39.51 46.67C39.7 46.85 39.79 47.07 39.79 47.35C39.79 47.57 39.73 47.76 39.62 47.93C39.51 48.1 39.34 48.23 39.1 48.33C38.99 48.37 38.86 48.4 38.72 48.42C38.56 48.46 38.37 48.47 38.16 48.47C37.92 48.47 37.7 48.45 37.52 48.41C37.41 48.39 37.3 48.36 37.21 48.32C36.96 48.22 36.77 48.08 36.64 47.91C36.5 47.73 36.42 47.54 36.38 47.32V47.26H35V47.34C35.04 47.82 35.2 48.23 35.47 48.58C35.75 48.92 36.12 49.18 36.57 49.37C36.86 49.48 37.18 49.56 37.52 49.6V50.61H38.72V49.6C39.07 49.56 39.39 49.48 39.69 49.36C40.15 49.17 40.52 48.9 40.79 48.54C41.06 48.19 41.2 47.75 41.2 47.24V47.22C41.2 46.6 40.99 46.11 40.59 45.76Z" fill="#365DBD" stroke="#365DBD" stroke-width="0.5" stroke-linecap="round" stroke-linejoin="round"/>
</g>
<defs>
<clipPath id="clip0_938_21032">
<rect width="48.69" height="56.43" fill="white"/>
</clipPath>
</defs>
</svg>
