<svg width="66" height="67" viewBox="0 0 66 67" fill="none" xmlns="http://www.w3.org/2000/svg">
<g opacity="0.7">
<path opacity="0.3" d="M34.3758 55.9131L53.8918 36.4948C55.1085 35.2843 57.0809 35.2843 58.2977 36.4948C59.5142 37.7054 59.5142 39.668 58.2977 40.8787L38.7817 60.297C37.5652 61.5074 35.5926 61.5074 34.3758 60.297C33.1592 59.0863 33.1592 57.1235 34.3758 55.9131Z" fill="#C9D7ED"/>
<mask id="mask0" mask-type="alpha" maskUnits="userSpaceOnUse" x="0" y="36" width="10" height="10">
<path fill-rule="evenodd" clip-rule="evenodd" d="M0.675049 36.3301H9.9241V45.5329H0.675049V36.3301Z" fill="white"/>
</mask>
<g mask="url(#mask0)">
<path opacity="0.3" d="M1.58763 40.241L4.60562 37.2379C5.82239 36.0275 7.7948 36.0275 9.01157 37.2379C10.2283 38.4486 10.2283 40.4114 9.01157 41.6218L5.99358 44.6249C4.7768 45.8356 2.80417 45.8356 1.58763 44.6249C0.370856 43.4143 0.370856 41.4517 1.58763 40.241Z" fill="#C9D7ED"/>
</g>
<path opacity="0.3" d="M35.7625 45.9391L44.6817 37.0645C44.0731 37.67 43.7695 38.4629 43.7706 39.2558C43.7695 40.0487 44.0731 40.8417 44.6817 41.4472C45.8989 42.6581 47.8713 42.6581 49.0874 41.4481L40.1682 50.3228C40.7768 49.7172 41.0806 48.9245 41.0795 48.1316C41.0806 47.3387 40.7756 46.5446 40.167 45.9391C38.9509 44.7291 36.9785 44.7291 35.7625 45.9391Z" fill="#C9D7ED"/>
<path opacity="0.3" d="M31.9502 32.4196L40.3069 24.1045C39.6983 24.7101 39.3947 25.503 39.3958 26.2959C39.3947 27.0888 39.6983 27.8817 40.3069 28.4873C41.5241 29.6982 43.4967 29.6982 44.7126 28.4884L36.3559 36.8033C36.9645 36.1977 37.2682 35.405 37.267 34.6121C37.2682 33.8192 36.9634 33.0252 36.3548 32.4196C35.1387 31.2096 33.1661 31.2096 31.9502 32.4196Z" fill="#C9D7ED"/>
<path opacity="0.3" d="M28.9905 43.9539L53.3721 19.694C54.5889 18.4835 56.5613 18.4835 57.7781 19.694C58.9949 20.9047 58.9949 22.8674 57.7781 24.0779L33.3962 48.3378C32.1796 49.5482 30.207 49.5482 28.9905 48.3378C27.7737 47.1271 27.7737 45.1643 28.9905 43.9539Z" fill="#C9D7ED"/>
<path opacity="0.3" d="M5.03489 50.5297L38.2221 17.5086C39.4389 16.2979 41.4115 16.2979 42.628 17.5086C43.8448 18.7191 43.8448 20.6818 42.628 21.8925L9.44084 54.9136C8.22407 56.1241 6.25166 56.1241 5.03489 54.9136C3.81812 53.7029 3.81812 51.7404 5.03489 50.5297Z" fill="#C9D7ED"/>
<path opacity="0.3" d="M10.9012 28.79L23.217 16.5358C24.4336 15.3253 26.4062 15.3253 27.6228 16.5358C28.8395 17.7465 28.8395 19.7092 27.6228 20.9197L15.3071 33.1739C14.0904 34.3844 12.1179 34.3844 10.9012 33.1739C9.68463 31.9632 9.68463 30.0005 10.9012 28.79Z" fill="#C9D7ED"/>
<path opacity="0.3" d="M31.2723 8.52114L31.3459 8.44788C32.5627 7.23743 34.5351 7.23743 35.7518 8.44788C36.9684 9.65833 36.9684 11.6211 35.7518 12.8318L35.6782 12.905C34.4617 14.1155 32.489 14.1155 31.2723 12.905C30.0557 11.6944 30.0557 9.73159 31.2723 8.52114Z" fill="#C9D7ED"/>
<path opacity="0.3" d="M21.8257 50.8756L21.8994 50.8024C23.1159 49.5919 25.0885 49.5919 26.3053 50.8024C27.5219 52.0128 27.5219 53.9756 26.3053 55.1863L26.2317 55.2595C25.0149 56.47 23.0425 56.47 21.8257 55.2595C20.6092 54.0489 20.6092 52.0861 21.8257 50.8756Z" fill="#C9D7ED"/>
<path fill-rule="evenodd" clip-rule="evenodd" d="M62.2841 48.3427C62.2841 48.6695 62.0176 48.9344 61.6894 48.9344C61.3609 48.9344 61.0947 48.6695 61.0947 48.3427C61.0947 48.0158 61.3609 47.751 61.6894 47.751C62.0176 47.751 62.2841 48.0158 62.2841 48.3427Z" stroke="#C9D7ED" stroke-width="0.840407" stroke-linecap="round" stroke-linejoin="round"/>
<path d="M5.5168 5.26953V8.19857" stroke="#C9D7ED" stroke-width="0.840407" stroke-linecap="round" stroke-linejoin="round"/>
<path d="M6.98872 6.73334H4.04468" stroke="#C9D7ED" stroke-width="0.840407" stroke-linecap="round" stroke-linejoin="round"/>
<path fill-rule="evenodd" clip-rule="evenodd" d="M18.0768 17.1942C18.0768 17.5211 17.8104 17.7859 17.4821 17.7859C17.1536 17.7859 16.8875 17.5211 16.8875 17.1942C16.8875 16.8674 17.1536 16.6025 17.4821 16.6025C17.8104 16.6025 18.0768 16.8674 18.0768 17.1942Z" stroke="#C9D7ED" stroke-width="0.840407" stroke-linecap="round" stroke-linejoin="round"/>
<path fill-rule="evenodd" clip-rule="evenodd" d="M62.472 30.0172C62.472 30.3441 62.2059 30.6089 61.8774 30.6089C61.5491 30.6089 61.2827 30.3441 61.2827 30.0172C61.2827 29.6906 61.5491 29.4258 61.8774 29.4258C62.2059 29.4258 62.472 29.6906 62.472 30.0172Z" stroke="#C9D7ED" stroke-width="0.708643" stroke-linecap="round" stroke-linejoin="round"/>
<path fill-rule="evenodd" clip-rule="evenodd" d="M29.6197 13.6377L29.9097 14.694L28.8481 14.9827L28.5579 13.9262L29.6197 13.6377Z" stroke="#C9D7ED" stroke-width="0.533197" stroke-linecap="round" stroke-linejoin="round"/>
<path fill-rule="evenodd" clip-rule="evenodd" d="M9.06592 35.3766C9.06592 34.9961 9.37611 34.6875 9.75823 34.6875C10.1409 34.6875 10.4508 34.9961 10.4508 35.3766C10.4508 35.7571 10.1409 36.0655 9.75823 36.0655C9.37611 36.0655 9.06592 35.7571 9.06592 35.3766Z" stroke="#C9D7ED" stroke-width="0.708643" stroke-linecap="round" stroke-linejoin="round"/>
<path d="M36.0839 45.348C32.2934 44.6888 20.429 41.7492 24.2534 31.1559C24.2534 31.1559 29.7736 16.8761 45.9142 20.3556C45.9142 20.3556 51.4561 22.0048 51.3291 27.0065C51.3291 27.0065 49.3748 43.5343 15.7239 29.01C15.7239 29.01 -12.0001 10.6763 35.0946 2.36035" stroke="#CFD7DF" stroke-width="0.601666" stroke-linecap="round" stroke-dasharray="0.96 0.96"/>
<path d="M21.9153 38.1005H21.2285V37.4102H20.7702V38.1005H20.0835V38.5602H20.7702V39.2512H21.2285V38.5602H21.9153V38.1005Z" fill="#DBE2E8"/>
<path d="M35.4344 3.26804C36.0639 3.26804 36.5741 2.76032 36.5741 2.13402C36.5741 1.50772 36.0639 1 35.4344 1C34.8049 1 34.2947 1.50772 34.2947 2.13402C34.2947 2.76032 34.8049 3.26804 35.4344 3.26804Z" fill="white" stroke="#CFD7DF" stroke-width="0.601666"/>
<path d="M19.2241 36.2555C19.2241 35.1819 20.0945 34.3115 21.1681 34.3115H45.7921C46.8658 34.3115 47.7361 35.1819 47.7361 36.2555V44.6795C47.7361 46.8268 45.9954 48.5675 43.8481 48.5675H23.1121C20.9648 48.5675 19.2241 46.8268 19.2241 44.6795V36.2555Z" fill="#CBDBFF" stroke="#717791" stroke-width="1.496"/>
<path d="M20.7975 36.9041C20.5637 36.9041 21.096 36.9041 21.096 36.9041C19.3861 36.9041 18 35.4535 18 33.6641V29.7761C18 27.9867 19.3861 26.5361 21.096 26.5361H45.864C47.5739 26.5361 48.96 27.9867 48.96 29.7761V33.6641C48.96 35.4535 47.5739 36.9041 45.864 36.9041H29.2653" fill="#CBDBFF"/>
<path d="M20.7975 36.9041C20.5637 36.9041 21.096 36.9041 21.096 36.9041C19.3861 36.9041 18 35.4535 18 33.6641V29.7761C18 27.9867 19.3861 26.5361 21.096 26.5361H45.864C47.5739 26.5361 48.96 27.9867 48.96 29.7761V33.6641C48.96 35.4535 47.5739 36.9041 45.864 36.9041H29.2653" stroke="#717791" stroke-width="1.496" stroke-linecap="round" stroke-linejoin="round"/>
<rect x="28.9441" y="33.6641" width="9.072" height="6.48" rx="1.944" fill="#CBDBFF" stroke="#717791" stroke-width="1.496"/>
<path d="M27 23.944C27 22.8704 27.8704 22 28.944 22H38.016C39.0896 22 39.96 22.8704 39.96 23.944V26.536H27V23.944Z" fill="#CBDBFF" stroke="#717791" stroke-width="1.496"/>
<path d="M27.6362 36.9041H28.923" stroke="#717791" stroke-width="1.496" stroke-linecap="round"/>
<path d="M23.7483 36.9043H25.0351" stroke="#717791" stroke-width="1.496" stroke-linecap="round"/>
</g>
</svg>
