<svg data-name="Layer 1" xmlns="http://www.w3.org/2000/svg" viewBox="0 0 48 48" class="app-icon"><path fill="#fff" opacity=".01" d="M0 0h48v48H0z"></path><path d="M36.8 32c-.92-1.91-3-3.41-4.61-4.72-1.19-1-2.41-2-3.6-2.95-.62-.51-1.26-1-1.84-1.56s-.8-.95-1.46-1c-.93-.13-1.89.77-2.65 1.22a9.62 9.62 0 01-2.32 1.43c-1.2.33-3.4.09-3.38-1.56 0-1.32 1.06-2.67 1.8-3.69a14.86 14.86 0 00.82-1.81.47.47 0 00-.54-.64 8.24 8.24 0 01-5.42-.35c-.5.26-4 11.92-4 11.92.68.58 2.78 2.93 3.76 3.76 3.57 3 7.73 6.09 8.45 6.57a6.29 6.29 0 002.82.94c.85 0 1.6-.18 1.88-.94 1.38 1.27 3.59-.06 3.75-1.88 1.14 1.06 4 .07 3.76-1.88A2.1 2.1 0 0036.8 32z" fill="#c6d7f4"></path><path d="M25.62 18.43c-1.71.62-1.64.85-2.93 1-.94 1.41-2.48 2.74-4.88 1.95s-.31-4.47 1.38-6.16c3.35-3.35 5.43-4.38 9.36-2.63s7.81 3.11 7.81 3.11" fill="none" stroke="#2c5cc5" stroke-linecap="round" stroke-linejoin="round" stroke-width=".75"></path><path data-name="Stroke-2" d="M9 25.27c.7.6 2.88 3 3.9 3.9 3.71 3.11 8 6.34 8.79 6.84a6.62 6.62 0 002.93 1c.89 0 1.67-.2 1.95-1 1.43 1.32 3.75-.01 3.93-1.95 1.18 1.09 4.12.06 3.91-2a2.18 2.18 0 002.92-2.93c-1.13-2.36-8.26-7.74-11.71-10.74" fill="none" stroke="#12344d" stroke-linecap="round" stroke-linejoin="round" stroke-width=".5"></path><path fill="none" stroke="#12344d" stroke-linecap="round" stroke-linejoin="round" stroke-width=".5" d="M20.73 13.55h-8.78"></path><g fill="none" stroke="#2c5cc5" stroke-linecap="round" stroke-linejoin="round"><path stroke-width=".9" d="M37.41 29.14l2.85-1.92"></path><path stroke-width=".75" d="M37.41 29.14l2.85-1.92"></path></g><g fill="none" stroke="#12344d" stroke-linecap="round" stroke-linejoin="round"><path d="M34.41 32.1c-1-.79-5.86-5.85-5.86-5.85" stroke-width=".6" fill-rule="evenodd"></path><path d="M34.41 32.1c-1-.79-5.86-5.85-5.86-5.85" stroke-width=".5"></path></g><path d="M30.5 34.06c-1.27-1-4.36-4.32-4.88-4.89M26.59 36c-1.3-1.1-3.82-3.75-4.88-4.88" fill="none" stroke="#12344d" stroke-linecap="round" stroke-linejoin="round" stroke-width=".5"></path><path d="M.9 28.5h5.86s3.47-10.6 3.9-15.62c-1.54-1.46-9.76-2-9.76-2z" fill="#2c5cc5" fill-rule="evenodd"></path><path d="M2.18 27.22H8s3.51-10.6 4-15.62c-1.6-1.47-9.82-1.95-9.82-1.95z" fill="none" stroke="#12344d" stroke-linecap="round" stroke-linejoin="round" stroke-width=".5"></path><path d="M33.76 12.24c1.31 2.11 5.12 13.1 5.82 15.63h5.86V10.29c-7.54 0-11.68 2-11.68 2" fill="#c6d7f4" fill-rule="evenodd"></path><path d="M35.42 13.55c1.31 2.11 5.12 13.09 5.82 15.62h5.86V11.6c-7.54 0-11.68 1.95-11.68 1.95z" fill="none" stroke="#2c5cc5" stroke-linecap="round" stroke-linejoin="round" stroke-width=".75"></path></svg>