<svg width="51" height="62" viewBox="0 0 51 62" fill="none" xmlns="http://www.w3.org/2000/svg">
<g clip-path="url(#clip0_939_21140)">
<path d="M44.13 40.12L45.64 52.07C45.8 53.33 44.91 54.48 43.65 54.64L9.06 59.02C7.8 59.18 6.65 58.29 6.49 57.03L0.389997 8.84999C0.229997 7.58999 1.12 6.43999 2.38 6.27999L28.13 3.01999L40.66 12.73L42.41 26.52" stroke="#365DBD" stroke-width="0.75" stroke-linecap="round" stroke-linejoin="round"/>
<path d="M29.54 14.14L28.13 3.01999L40.66 12.74L29.54 14.14Z" fill="#365DBD" stroke="#365DBD" stroke-width="0.75" stroke-linecap="round" stroke-linejoin="round"/>
<path d="M46.52 13.5V53.15C46.52 54.42 45.49 55.45 44.22 55.45H9.34999C8.07999 55.45 7.04999 54.42 7.04999 53.15V4.59001C7.04999 3.32001 8.07999 2.29001 9.34999 2.29001H35.3L46.51 13.5H46.52Z" fill="#C8D6F0"/>
<path d="M48.66 39.19V51.24C48.66 52.51 47.63 53.54 46.36 53.54H11.5C10.23 53.54 9.19998 52.51 9.19998 51.24V2.67C9.19998 1.4 10.23 0.369995 11.5 0.369995H37.45L48.66 11.58V25.48" stroke="#365DBD" stroke-width="0.75" stroke-linecap="round" stroke-linejoin="round"/>
<path d="M37.45 11.59V0.380005L48.66 11.59H37.45Z" fill="#365DBD" stroke="#365DBD" stroke-width="0.75" stroke-linecap="round" stroke-linejoin="round"/>
<path d="M40.92 17.69H13.91C13.5731 17.69 13.3 17.9631 13.3 18.3V21.26C13.3 21.5969 13.5731 21.87 13.91 21.87H40.92C41.2569 21.87 41.53 21.5969 41.53 21.26V18.3C41.53 17.9631 41.2569 17.69 40.92 17.69Z" fill="white"/>
<path d="M41.84 16.43H14.83C14.4931 16.43 14.22 16.7031 14.22 17.04V20C14.22 20.3369 14.4931 20.61 14.83 20.61H41.84C42.1769 20.61 42.45 20.3369 42.45 20V17.04C42.45 16.7031 42.1769 16.43 41.84 16.43Z" stroke="#365DBD" stroke-width="0.75" stroke-linecap="round" stroke-linejoin="round"/>
<path d="M40.92 25.42H13.91C13.5731 25.42 13.3 25.6931 13.3 26.03V26.99C13.3 27.3269 13.5731 27.6 13.91 27.6H40.92C41.2569 27.6 41.53 27.3269 41.53 26.99V26.03C41.53 25.6931 41.2569 25.42 40.92 25.42Z" fill="white"/>
<path d="M41.84 24.15H14.83C14.4931 24.15 14.22 24.4231 14.22 24.76V25.72C14.22 26.0569 14.4931 26.33 14.83 26.33H41.84C42.1769 26.33 42.45 26.0569 42.45 25.72V24.76C42.45 24.4231 42.1769 24.15 41.84 24.15Z" stroke="#365DBD" stroke-width="0.75" stroke-linecap="round" stroke-linejoin="round"/>
<path d="M40.92 31.32H13.91C13.5731 31.32 13.3 31.5931 13.3 31.93V32.89C13.3 33.2269 13.5731 33.5 13.91 33.5H40.92C41.2569 33.5 41.53 33.2269 41.53 32.89V31.93C41.53 31.5931 41.2569 31.32 40.92 31.32Z" fill="white"/>
<path d="M41.84 30.05H14.83C14.4931 30.05 14.22 30.3231 14.22 30.66V31.62C14.22 31.9569 14.4931 32.23 14.83 32.23H41.84C42.1769 32.23 42.45 31.9569 42.45 31.62V30.66C42.45 30.3231 42.1769 30.05 41.84 30.05Z" stroke="#365DBD" stroke-width="0.75" stroke-linecap="round" stroke-linejoin="round"/>
<path d="M40.92 37.21H13.91C13.5731 37.21 13.3 37.4831 13.3 37.82V38.78C13.3 39.1169 13.5731 39.39 13.91 39.39H40.92C41.2569 39.39 41.53 39.1169 41.53 38.78V37.82C41.53 37.4831 41.2569 37.21 40.92 37.21Z" fill="white"/>
<path d="M41.84 35.95H14.83C14.4931 35.95 14.22 36.2231 14.22 36.56V37.52C14.22 37.8569 14.4931 38.13 14.83 38.13H41.84C42.1769 38.13 42.45 37.8569 42.45 37.52V36.56C42.45 36.2231 42.1769 35.95 41.84 35.95Z" stroke="#365DBD" stroke-width="0.75" stroke-linecap="round" stroke-linejoin="round"/>
<path d="M40.92 43.11H13.91C13.5731 43.11 13.3 43.3831 13.3 43.72V44.68C13.3 45.0169 13.5731 45.29 13.91 45.29H40.92C41.2569 45.29 41.53 45.0169 41.53 44.68V43.72C41.53 43.3831 41.2569 43.11 40.92 43.11Z" fill="white"/>
<path d="M41.84 41.85H14.83C14.4931 41.85 14.22 42.1231 14.22 42.46V43.42C14.22 43.7569 14.4931 44.03 14.83 44.03H41.84C42.1769 44.03 42.45 43.7569 42.45 43.42V42.46C42.45 42.1231 42.1769 41.85 41.84 41.85Z" stroke="#365DBD" stroke-width="0.75" stroke-linecap="round" stroke-linejoin="round"/>
<path d="M40.05 50.69V60.95L43.46 56.79L47 60.95V50.69C45.96 51.24 41.09 51.24 40.05 50.69Z" fill="#365DBD"/>
<path d="M40.05 50.69V60.95L43.46 56.79L47 60.95V50.69C45.96 51.24 41.09 51.24 40.05 50.69" stroke="#365DBD" stroke-width="0.75" stroke-linecap="round" stroke-linejoin="round"/>
<path d="M43.53 41.1C39.74 41.1 36.66 44.22 36.66 48.08C36.66 51.94 39.73 55.06 43.53 55.06C47.33 55.06 50.39 51.94 50.39 48.08C50.39 44.22 47.32 41.1 43.53 41.1Z" fill="white"/>
<path d="M43.53 41.1C39.74 41.1 36.66 44.22 36.66 48.08C36.66 51.94 39.73 55.06 43.53 55.06C47.33 55.06 50.39 51.94 50.39 48.08C50.39 44.22 47.32 41.1 43.53 41.1" stroke="#1B344B" stroke-width="0.75" stroke-linecap="round" stroke-linejoin="round"/>
<path fill-rule="evenodd" clip-rule="evenodd" d="M45.72 51.5L43.53 50.15L41.34 51.5L41.92 48.97L39.99 47.27L42.54 47.05L43.54 44.65L44.54 47.05L47.09 47.27L45.16 48.97L45.73 51.5H45.72Z" fill="#365DBD" stroke="#365DBD" stroke-width="0.75" stroke-linecap="round" stroke-linejoin="round"/>
<path d="M17.22 14.15C19.7384 14.15 21.78 12.1084 21.78 9.59C21.78 7.07158 19.7384 5.03 17.22 5.03C14.7016 5.03 12.66 7.07158 12.66 9.59C12.66 12.1084 14.7016 14.15 17.22 14.15Z" fill="white"/>
<path d="M18.5 13.4C21.0184 13.4 23.06 11.3584 23.06 8.84C23.06 6.32158 21.0184 4.28 18.5 4.28C15.9816 4.28 13.94 6.32158 13.94 8.84C13.94 11.3584 15.9816 13.4 18.5 13.4Z" stroke="#365DBD" stroke-width="0.75" stroke-linecap="round" stroke-linejoin="round"/>
<path d="M19.12 11.05L24.39 7.08L22.8 5.03L19.58 8.94L18.37 6.38L16.36 8.35L19.12 11.05Z" fill="#365DBD" stroke="#365DBD" stroke-width="0.75" stroke-linecap="round" stroke-linejoin="round"/>
</g>
<defs>
<clipPath id="clip0_939_21140">
<rect width="50.77" height="61.33" fill="white"/>
</clipPath>
</defs>
</svg>
