<svg width="61" height="55" viewBox="0 0 61 55" fill="none" xmlns="http://www.w3.org/2000/svg">
<g clip-path="url(#clip0_938_21001)">
<path d="M44.55 5.19H9.05C8.24366 5.19 7.59 5.84367 7.59 6.65V53.43C7.59 54.2363 8.24366 54.89 9.05 54.89H44.55C45.3563 54.89 46.01 54.2363 46.01 53.43V6.65C46.01 5.84367 45.3563 5.19 44.55 5.19Z" fill="#C8D6F0"/>
<path d="M9.67999 28.28V14.08" stroke="#365DBD" stroke-width="0.75" stroke-linecap="round" stroke-linejoin="round"/>
<path d="M9.67999 8.63V4.09C9.67999 3.29 10.33 2.63 11.14 2.63H46.65C47.45 2.63 48.11 3.28 48.11 4.09V50.87C48.11 51.67 47.46 52.33 46.65 52.33H11.14C10.34 52.33 9.67999 51.68 9.67999 50.87V32.87" stroke="#365DBD" stroke-width="0.75" stroke-linecap="round" stroke-linejoin="round"/>
<path d="M15.21 15.59V14.41C15.21 14.25 15.34 14.12 15.5 14.12H19.72C19.88 14.12 20.01 14.25 20.01 14.41V18.33C20.01 18.49 19.88 18.62 19.72 18.62H15.5C15.34 18.62 15.21 18.49 15.21 18.33V16.81" fill="white"/>
<path d="M15.83 14.95V13.48H20.63V17.99H15.83V16.18" stroke="#365DBD" stroke-width="0.75" stroke-linecap="round" stroke-linejoin="round"/>
<path d="M22.84 15.59V14.41C22.84 14.25 22.97 14.12 23.13 14.12H40.67C40.83 14.12 40.96 14.25 40.96 14.41V18.33C40.96 18.49 40.83 18.62 40.67 18.62H23.13C22.97 18.62 22.84 18.49 22.84 18.33V16.81" fill="white"/>
<path d="M23.47 14.95V13.48H41.59V17.99H23.47V16.18" stroke="#365DBD" stroke-width="0.75" stroke-linecap="round" stroke-linejoin="round"/>
<path d="M14.42 33.51H42.38" stroke="white" stroke-linecap="round" stroke-linejoin="round"/>
<path d="M14.42 33.27H42.38" stroke="#1B344B" stroke-linecap="round" stroke-linejoin="round"/>
<path d="M14.42 37.23H42.38" stroke="white" stroke-linecap="round" stroke-linejoin="round"/>
<path d="M14.42 36.98H42.38" stroke="#1B344B" stroke-linecap="round" stroke-linejoin="round"/>
<path d="M14.42 40.95H42.38" stroke="white" stroke-linecap="round" stroke-linejoin="round"/>
<path d="M14.42 40.7H42.38" stroke="#1B344B" stroke-linecap="round" stroke-linejoin="round"/>
<path d="M14.42 44.66H42.38" stroke="white" stroke-linecap="round" stroke-linejoin="round"/>
<path d="M14.42 44.42H42.38" stroke="#1B344B" stroke-linecap="round" stroke-linejoin="round"/>
<path d="M55.65 4.03C58.36 6.54 60.06 10.13 60.06 14.12C60.06 21.71 53.91 27.86 46.32 27.86C38.73 27.86 32.58 21.71 32.58 14.12C32.58 6.53 38.72 0.380005 46.31 0.380005C48.21 0.380005 50.02 0.770005 51.66 1.46" fill="#C8D6F0"/>
<path d="M55.65 4.03C58.36 6.54 60.06 10.13 60.06 14.12C60.06 21.71 53.91 27.86 46.32 27.86C38.73 27.86 32.58 21.71 32.58 14.12C32.58 6.53 38.72 0.380005 46.31 0.380005C48.21 0.380005 50.02 0.770005 51.66 1.46" stroke="#1B344B" stroke-width="0.75" stroke-linecap="round" stroke-linejoin="round"/>
<path d="M46.31 23.45C51.4628 23.45 55.64 19.2728 55.64 14.12C55.64 8.96719 51.4628 4.79001 46.31 4.79001C41.1572 4.79001 36.98 8.96719 36.98 14.12C36.98 19.2728 41.1572 23.45 46.31 23.45Z" fill="#365DBD" stroke="#1B344B" stroke-width="0.75" stroke-linecap="round" stroke-linejoin="round"/>
<path d="M46.31 19.54C49.3034 19.54 51.73 17.1134 51.73 14.12C51.73 11.1266 49.3034 8.70001 46.31 8.70001C43.3166 8.70001 40.89 11.1266 40.89 14.12C40.89 17.1134 43.3166 19.54 46.31 19.54Z" fill="#C8D6F0" stroke="#1B344B" stroke-width="0.75" stroke-linecap="round" stroke-linejoin="round"/>
<path d="M46.31 12.53L40.84 23.22L38.89 20.21L20.62 32.71C19.6 33.39 18.24 33.24 17.4 32.35L12.64 27.31L4.09999 33.73C3.62999 34.12 3.06999 34.31 2.49999 34.31C1.78999 34.31 1.07999 34.01 0.579994 33.41C-0.300006 32.36 -0.160006 30.78 0.899994 29.89L11.24 21.96C12.25 21.12 13.75 21.21 14.66 22.17L19.57 27.37L36.17 16.01L34.31 13.13L46.31 12.53Z" fill="white"/>
<path d="M48.11 13.48L42.64 24.17L40.69 21.16L22.42 33.66C21.4 34.34 20.04 34.19 19.2 33.3L14.44 28.26L5.90001 34.68C5.43001 35.07 4.87001 35.26 4.30001 35.26C3.59001 35.26 2.88001 34.96 2.38001 34.36C1.50001 33.31 1.64001 31.73 2.70001 30.84L13.04 22.91C14.05 22.07 15.55 22.16 16.46 23.12L21.37 28.32L37.97 16.96L36.11 14.08L48.11 13.48Z" fill="white"/>
<path d="M8.37999 25.08L11.8 22.45C12.81 21.61 14.31 21.7 15.22 22.66L20.13 27.86L36.73 16.5L34.87 13.62L46.87 13.02L41.4 23.71L39.45 20.7L21.18 33.2C20.16 33.88 18.8 33.73 17.96 32.84L13.2 27.8L4.65999 34.22C4.18999 34.61 3.62999 34.8 3.05999 34.8C2.34999 34.8 1.63999 34.5 1.13999 33.9C0.259991 32.85 0.399991 31.27 1.45999 30.38L6.05999 26.85" stroke="#1B344B" stroke-width="0.75" stroke-linecap="round" stroke-linejoin="round"/>
</g>
<defs>
<clipPath id="clip0_938_21001">
<rect width="60.43" height="54.89" fill="white"/>
</clipPath>
</defs>
</svg>
