<svg data-name="Layer 1" xmlns="http://www.w3.org/2000/svg" viewBox="0 0 48 48" class="app-icon"><path fill="var(--color-icon-inverse)" opacity=".01" d="M0 0h48v48H0z"></path><path fill="none" stroke="var(--color-fill-neutral-bold)" stroke-linecap="round" stroke-linejoin="round" stroke-width=".783" d="M24.51 9.23V47.4"></path><rect x="3.06" y=".6" width="15.29" height="3.42" rx="1.57" fill="var(--color-icon-semantic-info)"></rect><rect x="29.88" y=".6" width="15.29" height="3.42" rx="1.57" fill="var(--color-icon-semantic-info)"></rect><rect x="5.98" y="8.92" width="12.59" height="12.59" rx="1.57" fill="var(--color-fill-semantic-info-mildest)"></rect><path d="M4.41 12.07A1.57 1.57 0 016 10.5h9.45A1.57 1.57 0 0117 12.07v9.44a1.57 1.57 0 01-1.57 1.58H6a1.57 1.57 0 01-1.57-1.58V15" fill="none" stroke="var(--color-icon-semantic-info)" stroke-linecap="round" stroke-linejoin="round" stroke-width=".75"></path><path fill="none" stroke="var(--color-icon-inverse)" stroke-linecap="round" stroke-linejoin="round" stroke-width=".75" d="M6.73 13.93h7.12M6.73 17.08h5.55"></path><rect x="3.1" y="31.15" width="12.59" height="12.59" rx="1.57" transform="rotate(-17 9.384 37.452)" fill="var(--color-fill-semantic-info-mildest)"></rect><path d="M17.84 38.16a1.56 1.56 0 01-1 2l-9 2.76a1.57 1.57 0 01-2-1L3 32.81a1.58 1.58 0 011-2l9-2.76a1.57 1.57 0 012 1.05l2 6.51M6.06 34.72l6.8-2.08M6.98 37.73l5.3-1.62" fill="none" stroke="var(--color-fill-neutral-bold)" stroke-linecap="round" stroke-linejoin="round" stroke-width=".75"></path><rect x="30.44" y="12.07" width="12.59" height="12.59" rx="1.57" fill="var(--color-fill-semantic-info-mildest)"></rect><path d="M44.6 16.32v5.19a1.57 1.57 0 01-1.6 1.58h-9.41A1.58 1.58 0 0132 21.51v-9.44a1.57 1.57 0 011.58-1.57H43a1.57 1.57 0 011.57 1.57v1.09" fill="none" stroke="var(--color-icon-semantic-info)" stroke-linecap="round" stroke-linejoin="round" stroke-width=".75"></path><path d="M44.6 33.12v8.79a1.57 1.57 0 01-1.6 1.58h-9.41A1.58 1.58 0 0132 41.91v-9.44a1.57 1.57 0 011.58-1.57H43a1.57 1.57 0 011.57 1.57v1.09" fill="none" stroke="var(--color-fill-semantic-info-mildest)" stroke-linecap="round" stroke-linejoin="round" stroke-width=".783"></path><path fill="none" stroke="var(--color-icon-inverse)" stroke-linecap="round" stroke-linejoin="round" stroke-width=".75" d="M34.04 15.22h7.12M34.04 18.37h5.55"></path></svg>
