<svg width="52" height="53" viewBox="0 0 52 53" fill="none" xmlns="http://www.w3.org/2000/svg">
<g clip-path="url(#clip0_938_21064)">
<path d="M36.96 2.94H1.46C0.653664 2.94 0 3.59367 0 4.4V51.18C0 51.9863 0.653664 52.64 1.46 52.64H36.96C37.7663 52.64 38.42 51.9863 38.42 51.18V4.4C38.42 3.59367 37.7663 2.94 36.96 2.94Z" fill="#C8D6F0"/>
<path d="M40.52 24.43V38.62" stroke="#365DBD" stroke-width="0.75" stroke-linecap="round" stroke-linejoin="round"/>
<path d="M40.52 44.08V48.62C40.52 49.42 39.87 50.08 39.06 50.08H3.55C2.75 50.08 2.09 49.43 2.09 48.62V1.83C2.09 1.03 2.74 0.369995 3.55 0.369995H39.06C39.86 0.369995 40.52 1.02 40.52 1.83V19.83" stroke="#365DBD" stroke-width="0.75" stroke-linecap="round" stroke-linejoin="round"/>
<path d="M15.08 9.43C16.72 8.52 18.6 8 20.61 8C21.76 8 22.88 8.17 23.92 8.49C28.32 9.83 31.58 13.74 31.96 18.47C31.99 18.78 32 19.09 32 19.4C32 25.69 26.9 30.79 20.61 30.79C14.32 30.79 9.22 25.69 9.22 19.4C9.22 16.57 10.25 13.98 11.95 11.99" fill="#C8D6F0"/>
<path d="M15.08 9.43C16.72 8.52 18.6 8 20.61 8C21.76 8 22.88 8.17 23.92 8.49C28.32 9.83 31.58 13.74 31.96 18.47C31.99 18.78 32 19.09 32 19.4C32 25.69 26.9 30.79 20.61 30.79C14.32 30.79 9.22 25.69 9.22 19.4C9.22 16.57 10.25 13.98 11.95 11.99" stroke="#365DBD" stroke-width="0.75" stroke-linecap="round" stroke-linejoin="round"/>
<path d="M33.43 17.53L22.08 18.46L25.39 7.55C29.79 8.89 33.05 12.8 33.43 17.53Z" fill="white"/>
<path d="M24.54 9.45999L25.39 6.64999C29.79 7.98999 33.05 11.9 33.43 16.63L22.08 17.56L24.06 11.03" stroke="#1B344B" stroke-width="0.75" stroke-linecap="round" stroke-linejoin="round"/>
<path d="M8.11 38.13V36.95C8.11 36.79 8.24 36.66 8.4 36.66H12.62C12.78 36.66 12.91 36.79 12.91 36.95V40.87C12.91 41.03 12.78 41.16 12.62 41.16H8.4C8.24 41.16 8.11 41.03 8.11 40.87V39.35" fill="white"/>
<path d="M8.74001 37.5V36.03H13.54V40.53H8.74001V38.72" stroke="#1B344B" stroke-width="0.75" stroke-linecap="round" stroke-linejoin="round"/>
<path d="M15.75 38.13V36.95C15.75 36.79 15.88 36.66 16.04 36.66H33.58C33.74 36.66 33.87 36.79 33.87 36.95V40.87C33.87 41.03 33.74 41.16 33.58 41.16H16.04C15.88 41.16 15.75 41.03 15.75 40.87V39.35" fill="white"/>
<path d="M16.38 37.5V36.03H34.5V40.53H16.38V38.72" stroke="#1B344B" stroke-width="0.75" stroke-linecap="round" stroke-linejoin="round"/>
<path d="M49.39 23.29H32.36C31.8685 23.29 31.47 23.6885 31.47 24.18V46.61C31.47 47.1015 31.8685 47.5 32.36 47.5H49.39C49.8815 47.5 50.28 47.1015 50.28 46.61V24.18C50.28 23.6885 49.8815 23.29 49.39 23.29Z" fill="#C8D6F0"/>
<path d="M50.51 22.12H33.48C32.9885 22.12 32.59 22.5185 32.59 23.01V45.44C32.59 45.9315 32.9885 46.33 33.48 46.33H50.51C51.0015 46.33 51.4 45.9315 51.4 45.44V23.01C51.4 22.5185 51.0015 22.12 50.51 22.12Z" stroke="#365DBD" stroke-width="0.75" stroke-linecap="round" stroke-linejoin="round"/>
<path d="M32.59 29.43H51.4" stroke="#365DBD" stroke-width="0.75" stroke-linecap="round" stroke-linejoin="round"/>
<path d="M37.99 34.06H35.14C35.02 34.06 34.92 34.16 34.92 34.28V37.13C34.92 37.25 35.02 37.35 35.14 37.35H37.99C38.11 37.35 38.21 37.25 38.21 37.13V34.28C38.21 34.16 38.11 34.06 37.99 34.06Z" fill="white"/>
<path d="M38.21 33.49H38.64C38.64 33.49 38.7 33.49 38.73 33.51C38.76 33.52 38.78 33.54 38.8 33.56C38.82 33.58 38.84 33.61 38.85 33.63C38.86 33.66 38.87 33.69 38.87 33.72V36.57C38.87 36.63 38.85 36.69 38.8 36.73C38.76 36.77 38.7 36.8 38.64 36.8H35.79C35.73 36.8 35.67 36.78 35.63 36.73C35.59 36.69 35.56 36.63 35.56 36.57V33.72C35.56 33.72 35.56 33.66 35.58 33.63C35.59 33.6 35.61 33.58 35.63 33.56C35.65 33.54 35.68 33.52 35.7 33.51C35.73 33.5 35.76 33.49 35.79 33.49H37.27" stroke="#1B344B" stroke-width="0.41" stroke-linecap="round" stroke-linejoin="round"/>
<path d="M43.09 34.06H40.24C40.12 34.06 40.02 34.16 40.02 34.28V37.13C40.02 37.25 40.12 37.35 40.24 37.35H43.09C43.21 37.35 43.31 37.25 43.31 37.13V34.28C43.31 34.16 43.21 34.06 43.09 34.06Z" fill="white"/>
<path d="M43.31 33.49H43.74C43.74 33.49 43.8 33.49 43.83 33.51C43.86 33.52 43.88 33.54 43.9 33.56C43.92 33.58 43.94 33.61 43.95 33.63C43.96 33.66 43.97 33.69 43.97 33.72V36.57C43.97 36.63 43.95 36.69 43.9 36.73C43.86 36.77 43.8 36.8 43.74 36.8H40.89C40.83 36.8 40.77 36.78 40.73 36.73C40.69 36.69 40.66 36.63 40.66 36.57V33.72C40.66 33.72 40.66 33.66 40.68 33.63C40.69 33.6 40.71 33.58 40.73 33.56C40.75 33.54 40.78 33.52 40.8 33.51C40.83 33.5 40.86 33.49 40.89 33.49H42.37" stroke="#1B344B" stroke-width="0.41" stroke-linecap="round" stroke-linejoin="round"/>
<path d="M48.2 34.06H45.35C45.23 34.06 45.13 34.16 45.13 34.28V37.13C45.13 37.25 45.23 37.35 45.35 37.35H48.2C48.32 37.35 48.42 37.25 48.42 37.13V34.28C48.42 34.16 48.32 34.06 48.2 34.06Z" fill="white"/>
<path d="M48.41 33.49H48.84C48.84 33.49 48.9 33.49 48.93 33.51C48.96 33.52 48.98 33.54 49 33.56C49.02 33.58 49.04 33.61 49.05 33.63C49.06 33.66 49.07 33.69 49.07 33.72V36.57C49.07 36.63 49.05 36.69 49 36.73C48.96 36.77 48.9 36.8 48.84 36.8H45.99C45.93 36.8 45.87 36.78 45.83 36.73C45.79 36.69 45.76 36.63 45.76 36.57V33.72C45.76 33.72 45.76 33.66 45.78 33.63C45.79 33.6 45.81 33.58 45.83 33.56C45.85 33.54 45.88 33.52 45.9 33.51C45.93 33.5 45.96 33.49 45.99 33.49H47.47" stroke="#1B344B" stroke-width="0.41" stroke-linecap="round" stroke-linejoin="round"/>
<path d="M37.99 39.64H35.14C35.02 39.64 34.92 39.74 34.92 39.86V42.71C34.92 42.83 35.02 42.93 35.14 42.93H37.99C38.11 42.93 38.21 42.83 38.21 42.71V39.86C38.21 39.74 38.11 39.64 37.99 39.64Z" fill="white"/>
<path d="M38.21 39.08H38.64C38.64 39.08 38.7 39.08 38.73 39.1C38.76 39.11 38.78 39.13 38.8 39.15C38.82 39.17 38.84 39.2 38.85 39.22C38.86 39.25 38.87 39.28 38.87 39.31V42.16C38.87 42.22 38.85 42.28 38.8 42.32C38.76 42.36 38.7 42.39 38.64 42.39H35.79C35.73 42.39 35.67 42.37 35.63 42.32C35.59 42.28 35.56 42.22 35.56 42.16V39.31C35.56 39.31 35.56 39.25 35.58 39.22C35.59 39.19 35.61 39.17 35.63 39.15C35.65 39.13 35.68 39.11 35.7 39.1C35.73 39.09 35.76 39.08 35.79 39.08H37.27" stroke="#1B344B" stroke-width="0.41" stroke-linecap="round" stroke-linejoin="round"/>
<path d="M43.09 39.64H40.24C40.12 39.64 40.02 39.74 40.02 39.86V42.71C40.02 42.83 40.12 42.93 40.24 42.93H43.09C43.21 42.93 43.31 42.83 43.31 42.71V39.86C43.31 39.74 43.21 39.64 43.09 39.64Z" fill="white"/>
<path d="M43.31 39.08H43.74C43.74 39.08 43.8 39.08 43.83 39.1C43.86 39.11 43.88 39.13 43.9 39.15C43.92 39.17 43.94 39.2 43.95 39.22C43.96 39.25 43.97 39.28 43.97 39.31V42.16C43.97 42.22 43.95 42.28 43.9 42.32C43.86 42.36 43.8 42.39 43.74 42.39H40.89C40.83 42.39 40.77 42.37 40.73 42.32C40.69 42.28 40.66 42.22 40.66 42.16V39.31C40.66 39.31 40.66 39.25 40.68 39.22C40.69 39.19 40.71 39.17 40.73 39.15C40.75 39.13 40.78 39.11 40.8 39.1C40.83 39.09 40.86 39.08 40.89 39.08H42.37" stroke="#1B344B" stroke-width="0.41" stroke-linecap="round" stroke-linejoin="round"/>
<path d="M48.2 39.64H45.35C45.23 39.64 45.13 39.74 45.13 39.86V42.71C45.13 42.83 45.23 42.93 45.35 42.93H48.2C48.32 42.93 48.42 42.83 48.42 42.71V39.86C48.42 39.74 48.32 39.64 48.2 39.64Z" fill="white"/>
<path d="M48.41 39.08H48.84C48.84 39.08 48.9 39.08 48.93 39.1C48.96 39.11 48.98 39.13 49 39.15C49.02 39.17 49.04 39.2 49.05 39.22C49.06 39.25 49.07 39.28 49.07 39.31V42.16C49.07 42.22 49.05 42.28 49 42.32C48.96 42.36 48.9 42.39 48.84 42.39H45.99C45.93 42.39 45.87 42.37 45.83 42.32C45.79 42.28 45.76 42.22 45.76 42.16V39.31C45.76 39.31 45.76 39.25 45.78 39.22C45.79 39.19 45.81 39.17 45.83 39.15C45.85 39.13 45.88 39.11 45.9 39.1C45.93 39.09 45.96 39.08 45.99 39.08H47.47" stroke="#1B344B" stroke-width="0.41" stroke-linecap="round" stroke-linejoin="round"/>
</g>
<defs>
<clipPath id="clip0_938_21064">
<rect width="51.77" height="52.64" fill="white"/>
</clipPath>
</defs>
</svg>
