<svg data-name="Layer 1" xmlns="http://www.w3.org/2000/svg" viewBox="0 0 48 48" class="app-icon"><path fill="var(--color-icon-inverse)" opacity=".01" d="M0 0h48v48H0z"></path><path d="M22.67 1.75l2.54 7.84a.77.77 0 00.72.52h8.24a.76.76 0 01.45 1.37L28 16.32a.76.76 0 00-.27.85L30.22 25a.76.76 0 01-1.16.85L22.39 21a.74.74 0 00-.89 0l-6.66 4.84a.76.76 0 01-1.17-.84l2.55-7.83a.75.75 0 00-.28-.85l-6.66-4.84a.76.76 0 01.44-1.37H18a.75.75 0 00.72-.52l2.55-7.84a.76.76 0 011.4 0z" fill="var(--color-fill-semantic-info-mildest)"></path><path d="M12.53 16.76l-6-4.37A.76.76 0 017 11h8.2a.75.75 0 00.72-.52l2.54-7.84a.76.76 0 011.44 0l2.55 7.84a.75.75 0 00.72.52h8.24a.76.76 0 01.44 1.37l-6.66 4.84a.76.76 0 00-.28.85l2.55 7.84a.76.76 0 01-1.17.84l-6.66-4.84a.77.77 0 00-.89 0l-6.67 4.84a.75.75 0 01-1.16-.84L12 22.57" fill="none" stroke="var(--color-icon-semantic-info)" stroke-linecap="round" stroke-linejoin="round"></path><path d="M41.68 24l1.39 4.27a.23.23 0 00.22.15h4.48a.24.24 0 01.14.42l-3.63 2.63a.24.24 0 00-.09.26L45.58 36a.23.23 0 01-.35.26l-3.63-2.63a.23.23 0 00-.27 0l-3.63 2.64a.23.23 0 01-.35-.26l1.39-4.26a.23.23 0 00-.08-.26L35 28.86a.23.23 0 01.13-.42h4.49a.23.23 0 00.21-.15L41.25 24a.23.23 0 01.43 0z" fill="var(--color-fill-semantic-info-mildest)"></path><path d="M44.27 27.83h2.63a.23.23 0 01.13.41l-3.63 2.64a.22.22 0 00-.08.25l1.39 4.27a.23.23 0 01-.35.25L40.73 33a.23.23 0 00-.27 0l-3.63 2.63a.23.23 0 01-.35-.25l1.39-4.27a.22.22 0 00-.09-.25l-3.63-2.64a.23.23 0 01.14-.41h4.48a.24.24 0 00.22-.16l1.39-4.27a.23.23 0 01.43 0l.71 2.18" fill="none" stroke="var(--color-fill-neutral-bold)" stroke-linecap="round" stroke-linejoin="round" stroke-width=".75"></path><path fill="none" stroke="var(--color-fill-neutral-bold)" stroke-linecap="round" stroke-linejoin="round" stroke-width=".9" d="M42.36 27.43h0"></path><path d="M21.08 39.24a9.43 9.43 0 010 6.62 8.24 8.24 0 01-.6-3.31 8.42 8.42 0 01.6-3.31z" fill="var(--color-icon-semantic-info)"></path><path d="M17.77 42.55a8.57 8.57 0 013.31-.6 8.63 8.63 0 013.31.6 8.45 8.45 0 01-3.31.6 8.57 8.57 0 01-3.31-.6z" fill="var(--color-icon-semantic-info)"></path><path d="M1.89 26a3.13 3.13 0 01.6 1.89 3.06 3.06 0 01-.6 1.89 3.28 3.28 0 010-3.78z" fill="var(--color-fill-neutral-bold)"></path><path d="M0 27.89a3.06 3.06 0 011.89-.6 3.06 3.06 0 011.89.6 3.13 3.13 0 01-1.89.6 3.13 3.13 0 01-1.89-.6z" fill="var(--color-fill-neutral-bold)"></path><circle cx="12.94" cy="19.46" r=".95" fill="var(--color-icon-semantic-info)"></circle></svg>
