<svg data-name="Layer 1" xmlns="http://www.w3.org/2000/svg" viewBox="0 0 48 48" class="app-icon"><path fill="#fff" opacity=".01" d="M0 0h48v48H0z"></path><rect x=".6" y="5.71" width="44.6" height="34.01" rx="1.32" fill="#c6d7f4"></rect><path fill="none" stroke="#2c5cc5" stroke-linecap="round" stroke-linejoin="round" stroke-width=".5" d="M2.96 32.57H47.4"></path><path d="M27.37 14.84v-2.91h-1.86a3.9 3.9 0 00-.26-.64L26.56 10l-2-2.05-1.36 1.29a5 5 0 00-.64-.24V7.12h-2.9V9a4.42 4.42 0 00-.63.27L17.7 7.93l-2 2.05 1.3 1.34a4.6 4.6 0 00-.25.61h-1.9v2.91h1.92q.1.3.24.6l-1.35 1.35 2 2.05 1.36-1.35a5.39 5.39 0 00.6.25v1.91h2.9v-1.9a4.6 4.6 0 00.61-.25l1.34 1.34 2-2.05-1.32-1.33a4.78 4.78 0 00.26-.62z" fill="#c6d7f4"></path><circle cx="21.11" cy="13.39" r="1.83" fill="#c6d7f4"></circle><path d="M27.1 14.93V12h-1.85a5.11 5.11 0 00-.27-.64l1.31-1.31L24.24 8l-1.31 1.33a3.58 3.58 0 00-.64-.26V7.21h-2.9v1.87a4.39 4.39 0 00-.63.26L17.43 8l-2 2.05 1.34 1.34a3.51 3.51 0 00-.24.61h-1.96v2.91h1.92a4.35 4.35 0 00.25.59l-1.36 1.36 2 2.05 1.36-1.35a5.36 5.36 0 00.6.24v1.92h2.9v-1.9a4.11 4.11 0 00.61-.25l1.34 1.34 2.05-2.05L25 15.55a4.78 4.78 0 00.26-.62z" fill="#fff"></path><path d="M28.2 13.28v-1.81a.54.54 0 00-.55-.54h-1.31a4.64 4.64 0 00-.26-.65l.92-.92a.54.54 0 000-.78l-1.27-1.27a.54.54 0 00-.78 0l-.95.92a5 5 0 00-.61-.23V6.66a.55.55 0 00-.55-.55H21a.55.55 0 00-.55.55V8a4.85 4.85 0 00-.62.27l-.94-.94a.54.54 0 00-.78 0l-1.24 1.25a.54.54 0 000 .78l.95 1a4.23 4.23 0 00-.25.62h-1.35a.55.55 0 00-.55.54v1.81a.55.55 0 00.55.55h1.37q.11.3.24.6l-1 1a.54.54 0 000 .78l1.27 1.28a.56.56 0 00.78 0l1-1a4.35 4.35 0 00.59.25v1.36a.55.55 0 00.55.55h1.81a.55.55 0 00.55-.55v-1.41a4.6 4.6 0 00.61-.25l.95 1a.56.56 0 00.78 0L27 16.17a.54.54 0 000-.78l-.93-.94a4.26 4.26 0 00.26-.62h1.32a.55.55 0 00.55-.55z" fill="none" stroke="#12344d" stroke-linecap="round" stroke-linejoin="round" stroke-width=".5"></path><circle cx="21.94" cy="12.38" r="1.83" fill="#fff" stroke="#12344d" stroke-linecap="round" stroke-linejoin="round" stroke-width=".5"></circle><path d="M35.62 17.8v-1.66h-1.06a2.39 2.39 0 00-.15-.37l.75-.75L34 13.85l-.75.75a2.28 2.28 0 00-.36-.15v-1.06h-1.68v1.07a1.94 1.94 0 00-.36.15l-.76-.76L28.92 15l.76.77a3.65 3.65 0 00-.14.35h-1.09v1.68h1.1a3.45 3.45 0 00.14.34l-.77.78 1.17 1.17.78-.77.34.14v1.09h1.66v-1.08l.35-.14.76.76 1.18-1.17-.76-.76a2.75 2.75 0 00.15-.36z" fill="none" stroke="#2c5cc5" stroke-linecap="round" stroke-linejoin="round" stroke-width=".5"></path><circle cx="32.04" cy="16.97" r="1.05" fill="none" stroke="#2c5cc5" stroke-linecap="round" stroke-linejoin="round" stroke-width=".5"></circle><path d="M47.4 24.2V4.84a1.32 1.32 0 00-1.32-1.32h-14M2.79 12.18v24a1.32 1.32 0 001.32 1.32h42a1.32 1.32 0 001.32-1.32v-8.84" fill="none" stroke="#2c5cc5" stroke-linecap="round" stroke-linejoin="round" stroke-width=".5"></path><path d="M40.08 3.52h-36a1.32 1.32 0 00-1.29 1.32v3.79" fill="none" stroke="#2c5cc5" stroke-linecap="round" stroke-linejoin="round" stroke-width=".5"></path><rect x="12.79" y="26.17" width="23.71" height="3.11" rx=".32" fill="#fff"></rect><path d="M35.87 25.4h1.21a.33.33 0 01.33.33v2.53a.33.33 0 01-.33.33H13.41a.33.33 0 01-.33-.33v-2.53a.33.33 0 01.33-.33h21" fill="none" stroke="#2c5cc5" stroke-linecap="round" stroke-linejoin="round" stroke-width=".5"></path><path fill="none" stroke="#2c5cc5" stroke-linecap="round" stroke-linejoin="round" stroke-width="3" d="M14.45 27h15.71"></path><path fill="#2c5cc5" d="M13.17 25.51h.89v2.98h-.89z"></path><path fill="none" stroke="#2c5cc5" stroke-linecap="round" stroke-linejoin="round" stroke-width=".5" d="M35.73 44.48h1.51M12.91 44.48h21.3M18.54 39.3v5.18M31.61 39.3v5.18"></path></svg>