<svg data-name="Layer 1" xmlns="http://www.w3.org/2000/svg" viewBox="0 0 48 48" class="app-icon"><path fill="#fff" opacity=".05" d="M0 0h48v48H0z"></path><path d="M39.71 28.7c-.55-1.21-2.83-.66-3.79-.28" fill="none" stroke="#2c5cc5" stroke-linecap="round" stroke-linejoin="round" stroke-width=".5"></path><path d="M39.53 30.45c-.21-.85-1.09-1-2-.92-.51-1.18-2.71-.66-3.63-.3l-.28.12a1.07 1.07 0 00-.65-.22c-2.44-.14-4.89 0-7.34-.07a29.58 29.58 0 01-3.63-.28 8.73 8.73 0 01-2.59-1.12c-.93-.45-1.86-.92-2.8-1.36A10 10 0 0011 25.24c-.2 0-3 .12-3 .15v8.28c4.58 1.95 14.4 5.89 18.05 5.52a21.7 21.7 0 006-2c2.18-.9 4.37-1.8 6.56-2.67 1.25-.5 3.14-1.23 3.1-2.86.03-1.21-1.1-1.36-2.18-1.21zM20.31 33.2a1.34 1.34 0 011.28-1.38c2-.09 5.8-.27 8.6-.47l-1.53 1.17c-.46.1-.92.19-1.39.25L26.51 34c-1.6.2-3.2.37-4.81.44a1.33 1.33 0 01-1.39-1.24z" fill="#c6d7f4"></path><path d="M41.76 29.45c-.54-1.23-2.83-.67-3.79-.29-2.91 1.15-5.82 2.55-8.95 2.95" fill="none" stroke="#2c5cc5" stroke-linecap="round" stroke-linejoin="round" stroke-width=".5"></path><path d="M20 26.37l-.65-.31m-1.45-.7a10.4 10.4 0 00-5.78-1.11c-.21 0-3.1.13-3.1.16v8.64c4.78 2 15 6.14 18.83 5.76a22.41 22.41 0 006.24-2.1c2.28-.94 4.56-1.88 6.85-2.79 1.3-.51 3.28-1.27 3.24-3 0-1.93-2.83-1.28-3.91-.85-2.91 1.15-5.82 2.56-9 3-2.68.34-5.38.73-8.08.85a1.39 1.39 0 01-.12-2.78c2.88-.13 9.46-.44 11.75-.73 1.14 0 1.78-2 .12-2.08-2.56-.14-5.11 0-7.66-.07A32.23 32.23 0 0123.5 28a9 9 0 01-2.7-1.17" fill="none" stroke="#2c5cc5" stroke-linecap="round" stroke-linejoin="round" stroke-width=".5"></path><path fill="#2c5cc5" stroke="#2c5cc5" stroke-linecap="round" stroke-linejoin="round" stroke-width=".536" d="M7.66 33.44l-3.12 2v-9.23l3.12-2v9.23z"></path><path fill="#c6d7f4" d="M27.29 9.17l1.22 3.76h3.96l-3.2 2.33 1.22 3.76-3.2-2.33-3.2 2.33 1.22-3.76-3.2-2.33h3.96l1.22-3.76z"></path><path fill="none" stroke="#12344d" stroke-linecap="round" stroke-linejoin="round" stroke-width=".5" d="M27.27 13.06l.27.82h3.96l-3.2 2.33 1.22 3.76-3.2-2.32-3.2 2.32 1.22-3.76-3.2-2.33h3.96l1.22-3.76.51 1.57"></path><path fill="none" stroke="#2c5cc5" stroke-linecap="round" stroke-linejoin="round" stroke-width=".5" d="M36.71 15.05l.19.58h2.81l-2.28 1.66.87 2.68-2.28-1.66-2.27 1.66.87-2.68-2.28-1.66h2.81l.87-2.67.37 1.11M18.01 15.52l.17.53h2.55l-2.06 1.5.79 2.42-2.07-1.5-2.06 1.5.79-2.42-2.06-1.5h2.55l.78-2.42.33 1"></path></svg>