<svg width="56" height="63" viewBox="0 0 56 63" fill="none" xmlns="http://www.w3.org/2000/svg">
<g clip-path="url(#clip0_939_21172)">
<path d="M39.46 13.5V53.15C39.46 54.42 38.43 55.45 37.16 55.45H2.3C1.03 55.45 0 54.42 0 53.15V4.59001C0 3.32001 1.03 2.29001 2.3 2.29001H28.25L39.46 13.5Z" fill="#C8D6F0"/>
<path d="M2.14 10.67V2.67C2.14 1.4 3.17 0.380005 4.44 0.380005H30.39L41.6 11.59V25.49" stroke="#365DBD" stroke-width="0.75" stroke-linecap="round" stroke-linejoin="round"/>
<path d="M41.6 39.19V51.24C41.6 52.51 40.57 53.54 39.3 53.54H4.44C3.17 53.54 2.14 52.51 2.14 51.24V15.62" stroke="#365DBD" stroke-width="0.75" stroke-linecap="round" stroke-linejoin="round"/>
<path d="M30.39 11.59V0.380005L41.6 11.59H30.39Z" fill="#365DBD" stroke="#365DBD" stroke-width="0.75" stroke-linecap="round" stroke-linejoin="round"/>
<path d="M44.79 46.34C43.87 44.43 41.79 42.93 40.18 41.62C38.99 40.62 37.77 39.62 36.58 38.67C35.96 38.16 35.32 37.67 34.74 37.11C34.16 36.55 33.94 36.16 33.28 36.11C32.35 35.98 31.39 36.88 30.63 37.33C29.93 37.91 29.15 38.4 28.31 38.76C27.11 39.09 24.91 38.85 24.93 37.2C24.93 35.88 25.99 34.53 26.73 33.51C27.04 32.93 27.32 32.32 27.55 31.7C27.58 31.62 27.59 31.53 27.58 31.45C27.57 31.36 27.53 31.28 27.47 31.22C27.41 31.16 27.34 31.1 27.26 31.08C27.18 31.05 27.09 31.05 27.01 31.07C25.22 31.57 23.31 31.45 21.59 30.72C21.09 30.98 17.59 42.64 17.59 42.64C18.27 43.22 20.37 45.57 21.35 46.4C24.92 49.4 29.08 52.49 29.8 52.97C30.65 53.5 31.62 53.83 32.62 53.91C33.47 53.91 34.22 53.73 34.5 52.97C35.88 54.24 38.09 52.91 38.25 51.09C39.39 52.15 42.25 51.16 42.01 49.21C42.41 49.4 42.86 49.47 43.29 49.39C43.73 49.31 44.13 49.1 44.43 48.79C44.74 48.47 44.94 48.07 45 47.63C45.06 47.19 44.99 46.75 44.78 46.35L44.79 46.34Z" fill="#C8D6F0"/>
<path d="M33.61 32.77C31.9 33.39 31.97 33.62 30.68 33.77C29.74 35.18 28.2 36.51 25.8 35.72C23.4 34.93 25.49 31.25 27.18 29.56C30.53 26.21 32.61 25.18 36.54 26.93C40.47 28.68 44.35 30.04 44.35 30.04" stroke="#365DBD" stroke-width="0.75" stroke-linecap="round" stroke-linejoin="round"/>
<path d="M16.99 39.61C17.69 40.21 19.87 42.61 20.89 43.51C24.6 46.62 28.89 49.85 29.68 50.35C30.56 50.91 31.57 51.25 32.61 51.35C33.5 51.35 34.28 51.15 34.56 50.35C35.99 51.67 38.31 50.35 38.49 48.4C39.67 49.49 42.61 48.46 42.4 46.4C42.81 46.6 43.27 46.67 43.72 46.6C44.17 46.53 44.59 46.31 44.91 45.99C45.23 45.67 45.45 45.25 45.52 44.8C45.59 44.35 45.52 43.88 45.32 43.48C44.19 41.12 37.06 35.74 33.61 32.74" stroke="#1B344B" stroke-width="0.5" stroke-linecap="round" stroke-linejoin="round"/>
<path d="M28.72 27.89H19.94" stroke="#1B344B" stroke-width="0.5" stroke-linecap="round" stroke-linejoin="round"/>
<path d="M45.4 43.48L48.25 41.56" stroke="#365DBD" stroke-width="0.9" stroke-linecap="round" stroke-linejoin="round"/>
<path d="M45.4 43.48L48.25 41.56" stroke="#365DBD" stroke-width="0.75" stroke-linecap="round" stroke-linejoin="round"/>
<path d="M42.4 46.44C41.4 45.65 36.54 40.59 36.54 40.59" stroke="#1B344B" stroke-width="0.6" stroke-linecap="round" stroke-linejoin="round"/>
<path d="M42.4 46.44C41.4 45.65 36.54 40.59 36.54 40.59" stroke="#1B344B" stroke-width="0.5" stroke-linecap="round" stroke-linejoin="round"/>
<path d="M38.49 48.4C37.22 47.4 34.13 44.08 33.61 43.51M34.58 50.34C33.28 49.24 30.76 46.59 29.7 45.46" stroke="#1B344B" stroke-width="0.5" stroke-linecap="round" stroke-linejoin="round"/>
<path fill-rule="evenodd" clip-rule="evenodd" d="M8.89 42.84H14.75C14.75 42.84 18.22 32.24 18.65 27.22C17.11 25.76 8.89 25.22 8.89 25.22V42.84Z" fill="#365DBD"/>
<path d="M10.17 41.56H15.99C15.99 41.56 19.5 30.96 19.99 25.94C18.39 24.47 10.17 23.99 10.17 23.99V41.56V41.56Z" stroke="#1B344B" stroke-width="0.5" stroke-linecap="round" stroke-linejoin="round"/>
<path fill-rule="evenodd" clip-rule="evenodd" d="M41.75 26.58C43.06 28.69 46.87 39.68 47.57 42.21H53.43V24.63C45.89 24.63 41.75 26.63 41.75 26.63" fill="#C8D6F0"/>
<path d="M43.41 27.89C44.72 30 48.53 40.98 49.23 43.51H55.09V25.94C47.55 25.94 43.41 27.89 43.41 27.89Z" stroke="#365DBD" stroke-width="0.75" stroke-linecap="round" stroke-linejoin="round"/>
<path d="M34.17 15.62H7.16C6.82311 15.62 6.55 15.8931 6.55 16.23V19.19C6.55 19.5269 6.82311 19.8 7.16 19.8H34.17C34.5069 19.8 34.78 19.5269 34.78 19.19V16.23C34.78 15.8931 34.5069 15.62 34.17 15.62Z" fill="white"/>
<path d="M35.09 14.35H8.08C7.74311 14.35 7.47 14.6231 7.47 14.96V17.92C7.47 18.2569 7.74311 18.53 8.08 18.53H35.09C35.4269 18.53 35.7 18.2569 35.7 17.92V14.96C35.7 14.6231 35.4269 14.35 35.09 14.35Z" stroke="#365DBD" stroke-width="0.75" stroke-linecap="round" stroke-linejoin="round"/>
</g>
<defs>
<clipPath id="clip0_939_21172">
<rect width="55.99" height="62.34" fill="white"/>
</clipPath>
</defs>
</svg>
