<svg data-name="Layer 1" xmlns="http://www.w3.org/2000/svg" viewBox="0 0 48 48" class="app-icon"><path fill="var(--color-icon-inverse)" opacity=".01" d="M0 0h48v48H0z"></path><path d="M.54 13.51H42.6v21.08A2.4 2.4 0 0140.2 37H2.94a2.4 2.4 0 01-2.4-2.4V13.51z" fill="var(--color-fill-semantic-info-mildest)"></path><path d="M3.06 11h42.06v22.22a1.26 1.26 0 01-1.26 1.26H4.32a1.26 1.26 0 01-1.26-1.26V11h0z" fill="none" stroke="var(--color-icon-semantic-info)" stroke-linecap="round" stroke-linejoin="round" stroke-width=".75"></path><rect x="2.87" y="6.54" width="44.58" height="3.43" rx=".5" fill="var(--color-fill-semantic-info-mildest)"></rect><path fill="none" stroke="var(--color-icon-semantic-info)" stroke-linecap="round" stroke-linejoin="round" stroke-width=".75" d="M1.79 7.56h44.58v3.43H1.79z"></path><path fill="none" stroke="var(--color-icon-semantic-info)" stroke-linecap="round" stroke-linejoin="round" stroke-width=".5" d="M31.22 42.58l-7.13-8.1-7.13 8.1"></path><circle cx="8.13" cy="28.41" r="1.98" fill="var(--color-icon-inverse)"></circle><circle cx="9.19" cy="29.24" r="1.98" fill="none" stroke="var(--color-icon-semantic-info)" stroke-linecap="round" stroke-linejoin="round" stroke-width=".5"></circle><circle cx="37.92" cy="19.95" r="2.5" fill="var(--color-icon-semantic-info)"></circle><path d="M14 29.92h4a5 5 0 005-5h0a5 5 0 015-5h3" fill="none" stroke="var(--color-icon-semantic-info)" stroke-linecap="round" stroke-linejoin="round" stroke-width=".75"></path><path fill="var(--color-icon-semantic-info)" stroke="var(--color-icon-semantic-info)" stroke-linecap="round" stroke-linejoin="round" stroke-width=".629" d="M33.11 19.95l-1.81 1.81v-3.62l1.81 1.81z"></path><path fill="none" stroke="var(--color-icon-semantic-info)" stroke-linecap="round" stroke-linejoin="round" stroke-width=".25" d="M15.27 22.73l-2.58 2.58M12.69 22.73l2.58 2.58M34.4 26.83l-2.58 2.58M31.82 26.83l2.58 2.58"></path><path fill="none" stroke="var(--color-icon-semantic-info)" stroke-linecap="round" stroke-linejoin="round" stroke-width=".261" d="M17.85 16.85l-2.58 2.58"></path><path fill="none" stroke="var(--color-icon-semantic-info)" stroke-linecap="round" stroke-linejoin="round" stroke-width=".25" d="M15.27 16.85l2.58 2.58"></path><path fill="none" stroke="var(--color-icon-semantic-info)" stroke-linecap="round" stroke-linejoin="round" stroke-width=".5" d="M24.09 5.42v1.8"></path></svg>
