<svg data-name="Layer 1" xmlns="http://www.w3.org/2000/svg" viewBox="0 0 48 48" class="app-icon"><path fill="#fff" opacity=".01" d="M0 0h48v48H0z"></path><path d="M42.48 9.66S30.35 5 26.46 1.44c-5.83 5-16 8.22-16 8.22v9.71a29.54 29.54 0 0015.75 26.14l.25.14a29.55 29.55 0 0016-26.27V9.66z" fill="#c6d7f4"></path><path d="M39 10.57S26.9 5.88 23 2.35c-5.83 5-16 8.22-16 8.22h0v9.72a29.56 29.56 0 0015.76 26.14l.25.13h0A29.53 29.53 0 0039 20.29v-9.72z" fill="none" stroke="#2c5cc5" stroke-linecap="round" stroke-linejoin="round"></path><path d="M36.56 20.94v-8.22h0s-10.26-4-13.55-7c-4.92 4.26-13.54 7-13.54 7h0v8.21A25 25 0 0022.8 43l.21.12h0a25 25 0 0012.9-16.58" fill="none" stroke="#12344d" stroke-linecap="round" stroke-linejoin="round" stroke-width=".5"></path><path d="M36.38 23.93c0-.26 0-.51.08-.77" fill="none" stroke="#12344d" stroke-linecap="round" stroke-linejoin="round" stroke-width=".6"></path><path d="M17.65 22.21v-1.49a.29.29 0 01.3-.3h10.13a.29.29 0 01.3.3v7.48a.3.3 0 01-.3.3H18a.3.3 0 01-.3-.3v-6z" fill="#2c5cc5" stroke="#2c5cc5" stroke-linecap="round" stroke-linejoin="round" stroke-width=".6"></path><path d="M19.84 20.06A3.06 3.06 0 0123 17.13a3.06 3.06 0 013.18 2.93" fill="none" stroke="#2c5cc5" stroke-linecap="round" stroke-linejoin="round" stroke-width=".75"></path><path fill="none" stroke="#fff" stroke-linecap="round" stroke-linejoin="round" stroke-width=".6" d="M23.01 25.08v1.55"></path><path d="M43.29 10.77c2.1-.36 3.42-.2 3.69.58.81 2.42-8.81 9.84-21.5 16.57S1.84 38.15 1 35.73c-.42-1.24 1.9-3.79 6-6.89" fill="none" stroke="#12344d" stroke-linecap="round" stroke-linejoin="round" stroke-width=".75"></path></svg>