<svg width="53" height="59" viewBox="0 0 53 59" fill="none" xmlns="http://www.w3.org/2000/svg">
<g clip-path="url(#clip0_939_21195)">
<path d="M48.51 11.86H0.0299988L2.79 3.99001C3.11 3.07001 3.98 2.45001 4.96 2.45001H43.58C44.56 2.45001 45.43 3.07001 45.75 3.99001L48.51 11.86Z" fill="#C8D6F0"/>
<path d="M10.07 9.78V14.87C10.07 17.55 7.9 19.73 5.23 19.73C2.56 19.73 0.380005 17.55 0.380005 14.87C0.380005 14.7 0.390005 14.53 0.410005 14.37V9.78H10.07Z" fill="#365DBD" stroke="#365DBD" stroke-width="0.75" stroke-linecap="round" stroke-linejoin="round"/>
<path d="M19.77 9.78V14.87C19.77 17.55 17.6 19.73 14.93 19.73C12.26 19.73 10.08 17.56 10.08 14.87C10.08 14.7 10.09 14.53 10.11 14.37V9.78H19.78H19.77Z" stroke="#365DBD" stroke-width="0.75" stroke-linecap="round" stroke-linejoin="round"/>
<path d="M29.47 9.78V14.87C29.47 17.55 27.3 19.73 24.63 19.73C21.96 19.73 19.78 17.56 19.78 14.87C19.78 14.7 19.79 14.53 19.81 14.37V9.78H29.48H29.47Z" fill="#365DBD" stroke="#365DBD" stroke-width="0.75" stroke-linecap="round" stroke-linejoin="round"/>
<path d="M39.16 9.78V14.87C39.16 17.55 36.99 19.73 34.32 19.73C31.65 19.73 29.47 17.56 29.47 14.87C29.47 14.7 29.48 14.53 29.5 14.37V9.78H39.17H39.16Z" stroke="#365DBD" stroke-width="0.75" stroke-linecap="round" stroke-linejoin="round"/>
<path d="M48.86 9.78V14.87C48.86 17.55 46.69 19.73 44.02 19.73C41.35 19.73 39.17 17.56 39.17 14.87C39.17 14.7 39.18 14.53 39.2 14.37V9.78H48.87H48.86Z" fill="#365DBD" stroke="#365DBD" stroke-width="0.75" stroke-linecap="round" stroke-linejoin="round"/>
<path d="M29.91 33.32H5.61V9.78H43.62V25.85" stroke="#365DBD" stroke-width="0.75" stroke-linecap="round" stroke-linejoin="round"/>
<path d="M0.820007 35.35H44.92V54.77C44.92 55.54 44.3 56.16 43.53 56.16H2.21001C1.44001 56.16 0.820007 55.54 0.820007 54.77V35.35Z" fill="#C8D6F0"/>
<path d="M39.16 0.380005H43.92C44.9 0.380005 45.77 1 46.09 1.92L48.85 9.79H0.380005L3.14001 1.92C3.46001 1 4.33 0.380005 5.31 0.380005H33.65" stroke="#365DBD" stroke-width="0.75" stroke-linecap="round" stroke-linejoin="round"/>
<path d="M29.91 54.13H3.96001C3.19001 54.13 2.57001 53.51 2.57001 52.74V46.44" stroke="#365DBD" stroke-width="0.75" stroke-linecap="round" stroke-linejoin="round"/>
<path d="M2.57001 41.38V33.32H29.91" stroke="#365DBD" stroke-width="0.75" stroke-linecap="round" stroke-linejoin="round"/>
<path d="M32.41 55.07H29.91V44.34" stroke="#365DBD" stroke-width="0.75" stroke-linecap="round" stroke-linejoin="round"/>
<path d="M29.91 41.57V28.58H49.77V30.67" stroke="#365DBD" stroke-width="0.75" stroke-linecap="round" stroke-linejoin="round"/>
<path d="M51.22 31.84H31.35V58.33H51.22V31.84Z" fill="white"/>
<path d="M35.1 36.53H48.95" stroke="#365DBD" stroke-width="0.75" stroke-linecap="round" stroke-linejoin="round"/>
<path d="M35.1 39.49H48.95" stroke="#365DBD" stroke-width="0.75" stroke-linecap="round" stroke-linejoin="round"/>
<path d="M35.1 42.44H48.95" stroke="#365DBD" stroke-width="0.75" stroke-linecap="round" stroke-linejoin="round"/>
<path d="M35.1 45.39H48.95" stroke="#365DBD" stroke-width="0.75" stroke-linecap="round" stroke-linejoin="round"/>
<path d="M35.1 48.35H48.95" stroke="#365DBD" stroke-width="0.75" stroke-linecap="round" stroke-linejoin="round"/>
<path d="M35.1 51.3H44.58" stroke="#365DBD" stroke-width="0.75" stroke-linecap="round" stroke-linejoin="round"/>
<path d="M38.27 34.82L36.69 33.83L35.1 34.82V30.67H38.27V34.82Z" fill="white" stroke="#1B344B" stroke-width="0.75" stroke-linecap="round" stroke-linejoin="round"/>
<path d="M52.28 30.67H32.41V57.16H52.28V30.67Z" stroke="#1B344B" stroke-width="0.75" stroke-linecap="round" stroke-linejoin="round"/>
</g>
<defs>
<clipPath id="clip0_939_21195">
<rect width="52.65" height="58.33" fill="white"/>
</clipPath>
</defs>
</svg>
