<svg width="16" height="17" viewBox="0 0 16 17" fill="none" xmlns="http://www.w3.org/2000/svg" data-icon-name="dew-reply">
<path d="M11.96 6.88457H3.03L5.45 4.46457C5.68 4.23457 5.69 3.85457 5.45 3.61457C5.21 3.37457 4.84 3.37457 4.6 3.61457L1.18 7.02457C1.07 7.13457 1 7.29457 1 7.44457C1 7.59457 1.06 7.75457 1.18 7.86457L4.6 11.2746C4.72 11.3946 4.87 11.4446 5.02 11.4446C5.17 11.4446 5.33 11.3846 5.44 11.2646C5.67 11.0346 5.67 10.6546 5.44 10.4146L3.08 8.06457H11.95C12.97 8.06457 13.8 8.82457 13.8 9.75457V12.8246C13.8 13.1546 14.07 13.4246 14.4 13.4246C14.73 13.4246 15 13.1546 15 12.8246V9.75457C15 8.16457 13.63 6.86457 11.95 6.86457L11.96 6.88457Z" fill="var(--color-icon-semantic-info)" stroke="var(--color-icon-semantic-info)" stroke-width=".2"/>
</svg>