<svg width="17" height="17" viewBox="0 0 17 17" fill="none" xmlns="http://www.w3.org/2000/svg" data-icon-name="dew-forward">
<path d="M15.153 5.88676L11.733 2.47676C11.503 2.24676 11.123 2.24676 10.883 2.47676C10.643 2.70676 10.653 3.08676 10.883 3.32676L13.303 5.74676H4.38301C2.70301 5.74676 1.33301 7.03676 1.33301 8.63676V11.7068C1.33301 12.0368 1.60301 12.3068 1.93301 12.3068C2.26301 12.3068 2.53301 12.0368 2.53301 11.7068V8.63676C2.53301 7.70676 3.36301 6.94676 4.38301 6.94676H13.253L10.893 9.29676C10.663 9.52676 10.653 9.90676 10.893 10.1468C11.013 10.2668 11.163 10.3268 11.313 10.3268C11.463 10.3268 11.623 10.2668 11.733 10.1568L15.153 6.74676C15.263 6.63676 15.333 6.47676 15.333 6.32676C15.333 6.17676 15.273 6.01676 15.153 5.90676V5.88676Z" fill="var(--color-icon-semantic-info)" stroke="var(--color-icon-semantic-info)" stroke-width=".2" />
</svg>