<svg width="17" height="17" viewBox="0 0 17 17" fill="none" xmlns="http://www.w3.org/2000/svg" data-icon-name="dew-timer-clock-overdue">
<path fill-rule="evenodd" clip-rule="evenodd" d="M8.56545 5.03232C5.8622 5.03232 3.67078 7.22373 3.67078 9.92698C3.67078 12.6302 5.8622 14.8216 8.56545 14.8216C11.2687 14.8216 13.4601 12.6302 13.4601 9.92698C13.4601 7.22373 11.2687 5.03232 8.56545 5.03232ZM2.66675 9.92698C2.66675 6.66922 5.30769 4.02828 8.56545 4.02828C11.8232 4.02828 14.4641 6.66922 14.4641 9.92698C14.4641 13.1847 11.8232 15.8257 8.56545 15.8257C5.30769 15.8257 2.66675 13.1847 2.66675 9.92698Z" fill="var(--color-icon-semantic-error)"/>
<path d="M8.31444 13.5666C10.3245 13.5666 11.9541 11.9371 11.9541 9.92698C11.9541 7.91687 10.3245 6.28736 8.31444 6.28736V13.5666Z" fill="var(--color-icon-semantic-error)"/>
<path fill-rule="evenodd" clip-rule="evenodd" d="M12.7988 3.64995C13.0424 3.42334 13.4236 3.43712 13.6502 3.68072L14.9052 5.0299C15.1318 5.2735 15.1181 5.65468 14.8745 5.88129C14.6309 6.1079 14.2497 6.09412 14.0231 5.85052L12.768 4.50135C12.5414 4.25774 12.5552 3.87656 12.7988 3.64995Z" fill="var(--color-icon-semantic-error)"/>
<path fill-rule="evenodd" clip-rule="evenodd" d="M6.86487 2.4281C6.86487 2.0954 7.13458 1.82568 7.46729 1.82568H9.38123C9.71393 1.82568 9.98365 2.0954 9.98365 2.4281C9.98365 2.76081 9.71393 3.03052 9.38123 3.03052H7.46729C7.13458 3.03052 6.86487 2.76081 6.86487 2.4281Z" fill="var(--color-icon-semantic-error)"/>
</svg>