<svg width="17" height="17" viewBox="0 0 17 17" fill="none" xmlns="http://www.w3.org/2000/svg" data-icon-name="dew-bell">
<path d="M13.733 12.1911H13.533V7.60111C13.533 5.06111 11.713 2.94111 9.31301 2.48111C9.31301 2.45111 9.33301 2.42111 9.33301 2.39111C9.33301 1.84111 8.88301 1.39111 8.33301 1.39111C7.78301 1.39111 7.33301 1.84111 7.33301 2.39111C7.33301 2.42111 7.35301 2.45111 7.35301 2.48111C4.95301 2.94111 3.13301 5.06111 3.13301 7.60111V12.2011H2.93301C2.60301 12.2011 2.33301 12.4711 2.33301 12.8011C2.33301 13.1311 2.60301 13.4011 2.93301 13.4011H5.53301C5.94301 14.5811 7.05301 15.3911 8.34301 15.3911C9.63301 15.3911 10.743 14.5811 11.153 13.3911H13.733C14.063 13.3911 14.333 13.1211 14.333 12.7911C14.333 12.4611 14.063 12.1911 13.733 12.1911ZM4.32301 7.60111C4.32301 5.38111 6.12301 3.58111 8.33301 3.58111C10.543 3.58111 12.343 5.38111 12.343 7.60111V12.1911H10.713H8.37301H4.34301V7.59111L4.32301 7.60111ZM8.34301 14.1911C7.72301 14.1911 7.17301 13.8811 6.85301 13.4011H8.65301H9.82301C9.50301 13.8811 8.94301 14.2011 8.34301 14.2011V14.1911Z" fill="var(--color-icon-semantic-warning)" />
</svg>