<svg width="17" height="17" viewBox="0 0 17 17" fill="none" xmlns="http://www.w3.org/2000/svg" data-icon-name="dew-note">
<path fill-rule="evenodd" clip-rule="evenodd" d="M5.26675 15.5649H12.0667C13.4967 15.5649 14.6667 14.3949 14.6667 12.9649V4.16494C14.6667 2.73494 13.4967 1.56494 12.0667 1.56494H5.26675C3.83675 1.56494 2.66675 2.73494 2.66675 4.16494V12.9649C2.66675 14.3949 3.83675 15.5649 5.26675 15.5649ZM3.86675 4.16494C3.86675 3.39494 4.49675 2.76494 5.26675 2.76494H12.0667C12.8367 2.76494 13.4667 3.39494 13.4667 4.16494V12.9649C13.4667 13.7349 12.8367 14.3649 12.0667 14.3649H5.26675C4.49675 14.3649 3.86675 13.7349 3.86675 12.9649V4.16494ZM6.47677 5.99494H10.8668C11.1968 5.99494 11.4668 5.72494 11.4668 5.39494C11.4668 5.06494 11.1968 4.79494 10.8668 4.79494H6.47677C6.14677 4.79494 5.87677 5.06494 5.87677 5.39494C5.87677 5.72494 6.14677 5.99494 6.47677 5.99494ZM10.8668 9.18494H6.47677C6.14677 9.18494 5.87677 8.91494 5.87677 8.58494C5.87677 8.25494 6.14677 7.98494 6.47677 7.98494H10.8668C11.1968 7.98494 11.4668 8.25494 11.4668 8.58494C11.4668 8.91494 11.1968 9.18494 10.8668 9.18494ZM6.47677 12.3749H10.8668C11.1968 12.3749 11.4668 12.1049 11.4668 11.7749C11.4668 11.4449 11.1968 11.1749 10.8668 11.1749H6.47677C6.14677 11.1749 5.87677 11.4449 5.87677 11.7749C5.87677 12.1049 6.14677 12.3749 6.47677 12.3749Z" fill="var(--color-boundary-border-mildest)"/>
</svg>