<svg width="17" height="17" viewBox="0 0 17 17" fill="none" xmlns="http://www.w3.org/2000/svg" data-icon-name="dew-plus-circle-primary">
<path fill-rule="evenodd" clip-rule="evenodd" d="M3.38051 3.9601C6.12051 1.2301 10.5605 1.2301 13.2905 3.9601H13.2805C16.0105 6.7001 16.0105 11.1401 13.2805 13.8701C11.9205 15.2401 10.1205 15.9201 8.33051 15.9201C6.54051 15.9201 4.74051 15.2301 3.38051 13.8701C0.650508 11.1301 0.650508 6.6901 3.38051 3.9601ZM4.23051 13.0201C6.49051 15.2801 10.1805 15.2801 12.4405 13.0201H12.4305C14.6905 10.7601 14.6905 7.0701 12.4305 4.8101C11.3005 3.6801 9.81051 3.1101 8.33051 3.1101C6.85051 3.1101 5.36051 3.6801 4.23051 4.8101C1.97051 7.0701 1.97051 10.7601 4.23051 13.0201ZM8.94047 8.31018H11.2205C11.5505 8.31018 11.8205 8.58018 11.8205 8.91018C11.8205 9.24018 11.5505 9.51018 11.2205 9.51018H8.94047V11.7902C8.94047 12.1202 8.67047 12.3902 8.34047 12.3902C8.01047 12.3902 7.74047 12.1202 7.74047 11.7902V9.51018H5.46047C5.13047 9.51018 4.86047 9.24018 4.86047 8.91018C4.86047 8.58018 5.13047 8.31018 5.46047 8.31018H7.74047V6.03018C7.74047 5.70018 8.01047 5.43018 8.34047 5.43018C8.67047 5.43018 8.94047 5.70018 8.94047 6.03018V8.31018Z" fill="var(--color-fill-neutral-bold)"/>
</svg>