<svg width="16" height="16" viewBox="0 0 16 16" fill="none" xmlns="http://www.w3.org/2000/svg" data-icon-name="dew-lock-orange"><path fill-rule="evenodd" clip-rule="evenodd" d="M12.2467 4.16296V5.02071C13.7866 5.16939 15 6.42742 15 7.97138V13.0264C15 14.6618 13.6349 16 11.9666 16H4.03333C2.365 16 1 14.6618 1 13.0264V7.97138C1 6.42742 2.21333 5.18082 3.75333 5.03215V4.16296C3.75333 1.86418 5.65499 0 7.99999 0C10.345 0 12.2467 1.86418 12.2467 4.16296ZM7.98832 1.3724C6.42498 1.3724 5.14166 2.619 5.14166 4.16296H5.12999V5.00928H10.835V4.16296C10.835 2.63044 9.55165 1.3724 7.98832 1.3724ZM11.9666 14.639C12.865 14.639 13.6 13.9185 13.6 13.0378V7.98281C13.6 7.10218 12.865 6.38167 11.9666 6.38167H4.03333C3.135 6.38167 2.4 7.10218 2.4 7.98281V13.0378C2.4 13.9185 3.135 14.639 4.03333 14.639H11.9666ZM6.70501 9.82413C6.70501 9.10361 7.28834 8.53177 8 8.53177C8.71167 8.53177 9.295 9.11504 9.295 9.82413C9.295 10.2702 9.05 10.6476 8.7 10.8762V11.6998C8.7 12.0772 8.385 12.386 8 12.386C7.61501 12.386 7.3 12.0772 7.3 11.6998V10.8762C6.95001 10.6476 6.70501 10.2702 6.70501 9.82413Z" fill="var(--color-icon-semantic-warning)"/></svg>
