<svg width="17" height="16" viewBox="0 0 17 16" fill="none" xmlns="http://www.w3.org/2000/svg" data-icon-name="dew-alert-info">
<path fill-rule="evenodd" clip-rule="evenodd" d="M14.0716 14H3.25163C2.67163 14 2.15163 13.7 1.87163 13.2C1.59163 12.7 1.59163 12.1 1.89163 11.61L7.31163 2.77C7.60163 2.29 8.11163 2 8.67163 2C9.23163 2 9.74163 2.29 10.0316 2.77L15.4416 11.6C15.7416 12.1 15.7416 12.69 15.4616 13.19C15.1716 13.69 14.6616 13.99 14.0816 13.99L14.0716 14ZM8.66163 3.2C8.59163 3.2 8.43163 3.22 8.33163 3.39L2.91163 12.22C2.81163 12.39 2.87163 12.54 2.91163 12.6C2.94163 12.66 3.04163 12.8 3.25163 12.8H14.0716C14.2785 12.8 14.3689 12.6642 14.4098 12.6028L14.4116 12.6C14.4516 12.54 14.5116 12.39 14.4116 12.22L9.00163 3.39C8.90163 3.22 8.73163 3.2 8.67163 3.2H8.66163ZM8.66165 9.73998C8.33165 9.73998 8.06165 9.46998 8.06165 9.13998V6.07998C8.06165 5.74998 8.33165 5.47998 8.66165 5.47998C8.99165 5.47998 9.26165 5.74998 9.26165 6.07998V9.13998C9.26165 9.46998 8.99165 9.73998 8.66165 9.73998ZM8.06165 10.98C8.06165 10.65 8.33165 10.38 8.66165 10.38C8.99165 10.38 9.26165 10.65 9.26165 10.98C9.26165 11.31 8.99165 11.58 8.66165 11.58C8.33165 11.58 8.06165 11.31 8.06165 10.98Z" fill="var(--color-icon-semantic-info)"/>
</svg>
