<svg width="16" height="16" viewBox="0 0 16 16" fill="none" xmlns="http://www.w3.org/2000/svg" data-icon-name="dew-report">
<path d="M9.62384 7.4012H6.40614C6.07637 7.4012 5.80656 7.67066 5.80656 8C5.80656 8.32934 6.07637 8.5988 6.40614 8.5988H9.62384C9.9536 8.5988 10.2234 8.32934 10.2234 8C10.2234 7.67066 9.9536 7.4012 9.62384 7.4012Z" fill="var(--color-fill-neutral-bold)"/>
<path d="M14.4004 6.99202C14.7302 6.99202 15 6.72255 15 6.39321V4.99601C15 3.8982 14.1106 3 13.0214 3H2.97859C1.88936 3 1 3.8982 1 4.99601V6.39321C1 6.72255 1.26981 6.99202 1.59957 6.99202C2.13918 6.99202 2.57887 7.44112 2.57887 8C2.57887 8.55888 2.13918 9.00798 1.59957 9.00798C1.26981 9.00798 1 9.27744 1 9.60679V11.004C1 12.1018 1.88936 13 2.97859 13H13.0214C14.1106 13 15 12.1018 15 11.004V9.60679C15 9.27744 14.7302 9.00798 14.4004 9.00798C13.8608 9.00798 13.4211 8.55888 13.4211 8C13.4211 7.44112 13.8608 6.99202 14.4004 6.99202ZM13.8009 10.1158V10.994C13.8009 11.4331 13.4511 11.7924 13.0214 11.7924H2.97859C2.54889 11.7924 2.19914 11.4331 2.19914 10.994V10.1158C3.10849 9.85629 3.77801 8.998 3.77801 8C3.77801 7.002 3.10849 6.14371 2.19914 5.88423V5.00599C2.19914 4.56687 2.54889 4.20758 2.97859 4.20758H13.0214C13.4511 4.20758 13.8009 4.56687 13.8009 5.00599V5.88423C12.8915 6.14371 12.222 7.002 12.222 8C12.222 8.998 12.8915 9.85629 13.8009 10.1158Z" fill="var(--color-fill-neutral-bold)"/>
</svg>