<svg width="17" height="17" viewBox="0 0 17 17" fill="none" xmlns="http://www.w3.org/2000/svg" data-icon-name="dew-invalid-file">
<path fill-rule="evenodd" clip-rule="evenodd" d="M13.7133 4.86494L10.6733 2.09494C10.2833 1.75494 9.78325 1.56494 9.25325 1.56494H4.75325C3.41325 1.56494 2.33325 2.57494 2.33325 3.82494V13.2949C2.33325 14.5449 3.42325 15.5649 4.76325 15.5649H11.9133C13.2533 15.5649 14.3333 14.5549 14.3333 13.3049V6.23494C14.3333 5.71494 14.1133 5.22494 13.7133 4.85494V4.86494ZM13.1333 13.3049C13.1333 13.8849 12.5833 14.3649 11.9133 14.3649H4.76325C4.08325 14.3649 3.53325 13.8849 3.53325 13.2949V3.82494C3.53325 3.24494 4.08325 2.76494 4.75325 2.76494H9.25325C9.48325 2.76494 9.71325 2.84494 9.87325 2.98494L12.9033 5.74494C13.0533 5.88494 13.1333 6.05494 13.1333 6.23494V13.3049ZM8.32327 10.0949C8.65327 10.0949 8.92327 9.8249 8.92327 9.4949V5.3749C8.92327 5.0449 8.65327 4.7749 8.32327 4.7749C7.99327 4.7749 7.72327 5.0449 7.72327 5.3749V9.4949C7.72327 9.8249 7.99327 10.0949 8.32327 10.0949ZM9.08325 11.6147C9.08325 12.029 8.74747 12.3647 8.33325 12.3647C7.91904 12.3647 7.58325 12.029 7.58325 11.6147C7.58325 11.2005 7.91904 10.8647 8.33325 10.8647C8.74747 10.8647 9.08325 11.2005 9.08325 11.6147Z" fill="var(--color-icon-semantic-error)"/>
</svg>