<svg width="16" height="17" viewBox="0 0 16 17" fill="none" xmlns="http://www.w3.org/2000/svg" data-icon-name="dew-circle-info">
<path fill-rule="evenodd" clip-rule="evenodd" d="M8 1.34766C4.14 1.34766 1 4.48766 1 8.34766C1 12.2077 4.14 15.3477 8 15.3477C11.86 15.3477 15 12.2077 15 8.34766C15 4.48766 11.86 1.34766 8 1.34766ZM8 14.1477C4.8 14.1477 2.2 11.5477 2.2 8.34766C2.2 5.14766 4.8 2.54766 8 2.54766C11.2 2.54766 13.8 5.14766 13.8 8.34766C13.8 11.5477 11.2 14.1477 8 14.1477ZM8.00003 6.5877C8.50003 6.5877 8.91003 6.1777 8.91003 5.6777C8.91003 5.1777 8.50003 4.7677 8.00003 4.7677C7.50003 4.7677 7.09003 5.1777 7.09003 5.6777C7.09003 6.1777 7.50003 6.5877 8.00003 6.5877ZM8.60002 10.7176H8.86002C9.19002 10.7176 9.46002 10.9876 9.46002 11.3176C9.46002 11.6476 9.19002 11.9176 8.86002 11.9176H7.12002C6.79002 11.9176 6.52002 11.6476 6.52002 11.3176C6.52002 10.9876 6.79002 10.7176 7.12002 10.7176H7.39002V8.59761C7.15002 8.51761 6.96002 8.29761 6.96002 8.02761C6.96002 7.69761 7.23002 7.42761 7.56002 7.42761H8.43002C8.76002 7.42761 9.03002 7.69761 9.03002 8.02761C9.03002 8.30761 8.85002 8.52761 8.60002 8.59761V10.7176Z" fill="var(--color-icon-semantic-info)" />
</svg>