<svg width="16" height="17" viewBox="0 0 16 17" fill="none" xmlns="http://www.w3.org/2000/svg" data-icon-name="dew-loader-info">
<path d="M8 12.3911C5.79 12.3911 4 10.6011 4 8.39111C4 6.18111 5.79 4.39111 8 4.39111C10.21 4.39111 12 6.18111 12 8.39111C12 8.73111 11.72 9.00111 11.39 9.00111C11.06 9.00111 10.78 8.72111 10.78 8.39111C10.78 6.86111 9.54 5.62111 8.01 5.62111C6.48 5.62111 5.24 6.86111 5.24 8.39111C5.24 9.92111 6.48 11.1611 8.01 11.1611C8.35 11.1611 8.62 11.4411 8.62 11.7711C8.62 12.1011 8.34 12.3811 8.01 12.3811L8 12.3911Z" fill="var(--color-icon-semantic-info)"/>
</svg>
