<svg width="16" height="16" viewBox="0 0 16 16" fill="none" xmlns="http://www.w3.org/2000/svg" data-icon-name="dew-plus-disabled">
<path fill-rule="evenodd" clip-rule="evenodd" d="M2.30426 2.3022C5.38786 -0.767401 10.3846 -0.767401 13.457 2.3022H13.4457C16.5181 5.38305 16.5181 10.3754 13.4457 13.445C11.9152 14.9854 9.88947 15.75 7.875 15.75C5.86053 15.75 3.83481 14.9742 2.30426 13.445C-0.768087 10.3641 -0.768087 5.37181 2.30426 2.3022ZM8.56146 7.19342H11.1274C11.4988 7.19342 11.8026 7.49701 11.8026 7.86806C11.8026 8.23911 11.4988 8.5427 11.1274 8.5427H8.56146V11.1063C8.56146 11.4774 8.2576 11.781 7.88622 11.781C7.51483 11.781 7.21097 11.4774 7.21097 11.1063V8.5427H4.64506C4.27368 8.5427 3.96982 8.23911 3.96982 7.86806C3.96982 7.49701 4.27368 7.19342 4.64506 7.19342H7.21097V4.6298C7.21097 4.25874 7.51483 3.95516 7.88622 3.95516C8.2576 3.95516 8.56146 4.25874 8.56146 4.6298V7.19342Z" fill="var(--color-text-placeholder)"/>
</svg>
