<svg width="16" height="17" viewBox="0 0 16 17" fill="none" xmlns="http://www.w3.org/2000/svg" data-icon-name="dew-circle-warning">
<path fill-rule="evenodd" clip-rule="evenodd" d="M8 15.5649C4.14 15.5649 1 12.4249 1 8.56494C1 4.70494 4.14 1.56494 8 1.56494C11.86 1.56494 15 4.70494 15 8.56494C15 12.4249 11.86 15.5649 8 15.5649ZM8 2.76494C4.8 2.76494 2.2 5.36494 2.2 8.56494C2.2 11.7649 4.8 14.3649 8 14.3649C11.2 14.3649 13.8 11.7649 13.8 8.56494C13.8 5.36494 11.2 2.76494 8 2.76494ZM8.00002 9.78497C7.67002 9.78497 7.40002 9.51497 7.40002 9.18497V5.06497C7.40002 4.73497 7.67002 4.46497 8.00002 4.46497C8.33002 4.46497 8.60002 4.73497 8.60002 5.06497V9.18497C8.60002 9.51497 8.33002 9.78497 8.00002 9.78497ZM8.75 11.3149C8.75 11.7292 8.41421 12.0649 8 12.0649C7.58579 12.0649 7.25 11.7292 7.25 11.3149C7.25 10.9007 7.58579 10.5649 8 10.5649C8.41421 10.5649 8.75 10.9007 8.75 11.3149Z" fill="var(--color-icon-semantic-warning)" />
</svg>