<svg width="336" height="200" viewBox="0 0 336 200" fill="none" xmlns="http://www.w3.org/2000/svg">
<g clip-path="url(#clip0_2618_2928)">
<ellipse cx="229.338" cy="47.0965" rx="47.0964" ry="47.0965" fill="#02B190"/>
<path d="M222.362 61.9337C223.414 61.9337 224.267 61.081 224.267 60.0292C224.267 58.9774 223.414 58.1247 222.362 58.1247V61.9337ZM211.36 58.1247C210.308 58.1247 209.456 58.9774 209.456 60.0292C209.456 61.081 210.308 61.9337 211.36 61.9337V58.1247ZM243.21 40.1213C243.21 41.1731 244.063 42.0258 245.114 42.0258C246.166 42.0258 247.019 41.1731 247.019 40.1213H243.21ZM222.363 31.5893H220.458C220.458 32.6412 221.311 33.4938 222.363 33.4938V31.5893ZM221.53 26.7344L220.183 28.081L220.183 28.081L221.53 26.7344ZM208.976 26.7344L210.322 28.0811L210.322 28.081L208.976 26.7344ZM208.143 56.806H206.238C206.238 56.8148 206.238 56.8235 206.238 56.8323L208.143 56.806ZM208.957 58.9037L207.534 60.1696L207.534 60.1696L208.957 58.9037ZM210.946 59.9571L211.194 58.0688L211.194 58.0688L210.946 59.9571ZM214.468 57.6364L212.638 57.1088L212.635 57.1195L214.468 57.6364ZM218.925 42.1765L217.095 41.6484L217.095 41.6489L218.925 42.1765ZM219.949 40.692L221.093 42.2143L221.093 42.2143L219.949 40.692ZM221.659 40.1213L221.658 42.0258H221.659V40.1213ZM247.958 40.1213V42.0258H247.959L247.958 40.1213ZM249.216 40.4138L250.057 38.7051L250.057 38.7051L249.216 40.4138ZM250.214 41.2318L251.724 40.0712L251.724 40.0708L250.214 41.2318ZM250.748 42.407L248.88 42.7806L248.881 42.7813L250.748 42.407ZM248.867 43.2068C248.596 44.2232 249.201 45.2666 250.217 45.5374C251.234 45.8082 252.277 45.2038 252.548 44.1875L248.867 43.2068ZM231.383 65.2291L232.729 63.8825L232.729 63.8824L231.383 65.2291ZM247.47 65.2291L246.124 63.8824L246.124 63.8825L247.47 65.2291ZM247.47 49.1413L246.124 50.4879L246.124 50.488L247.47 49.1413ZM231.383 49.1413L232.729 50.488L232.729 50.4879L231.383 49.1413ZM241.331 51.4972C241.331 50.4454 240.478 49.5927 239.427 49.5927C238.375 49.5927 237.522 50.4454 237.522 51.4972H241.331ZM237.522 62.8732C237.522 63.925 238.375 64.7777 239.427 64.7777C240.478 64.7777 241.331 63.925 241.331 62.8732H237.522ZM233.739 55.2807C232.687 55.2807 231.834 56.1334 231.834 57.1852C231.834 58.237 232.687 59.0897 233.739 59.0897V55.2807ZM245.115 59.0897C246.166 59.0897 247.019 58.237 247.019 57.1852C247.019 56.1334 246.166 55.2807 245.115 55.2807V59.0897ZM222.362 58.1247H211.36V61.9337H222.362V58.1247ZM247.019 40.1213V34.4333H243.21V40.1213H247.019ZM247.019 34.4333C247.019 33.1741 246.519 31.9662 245.628 31.0756L242.935 33.769C243.111 33.9451 243.21 34.184 243.21 34.4333H247.019ZM245.628 31.0756C244.738 30.1851 243.53 29.6848 242.27 29.6848V33.4938C242.52 33.4938 242.759 33.5929 242.935 33.769L245.628 31.0756ZM242.27 29.6848H222.363V33.4938H242.27V29.6848ZM224.267 31.5893V28.7454H220.458V31.5893H224.267ZM224.267 28.7454C224.267 27.486 223.767 26.2782 222.876 25.3877L220.183 28.081C220.359 28.2572 220.458 28.4962 220.458 28.7454H224.267ZM222.876 25.3877C221.986 24.4971 220.778 23.9969 219.519 23.9969V27.8059C219.768 27.8059 220.007 27.9049 220.183 28.081L222.876 25.3877ZM219.519 23.9969H210.987V27.8059H219.519V23.9969ZM210.987 23.9969C209.727 23.9969 208.519 24.4971 207.629 25.3877L210.322 28.081C210.499 27.9049 210.738 27.8059 210.987 27.8059V23.9969ZM207.629 25.3876C206.738 26.2782 206.238 27.486 206.238 28.7454H210.047C210.047 28.4962 210.146 28.2572 210.322 28.0811L207.629 25.3876ZM206.238 28.7454V56.806H210.047V28.7454H206.238ZM206.238 56.8323C206.255 58.0645 206.716 59.249 207.534 60.1696L210.38 57.6379C210.17 57.4011 210.051 57.0966 210.047 56.7797L206.238 56.8323ZM207.534 60.1696C208.353 61.09 209.476 61.6853 210.698 61.8455L211.194 58.0688C210.88 58.0277 210.591 57.8748 210.38 57.6379L207.534 60.1696ZM210.698 61.8454C211.92 62.0059 213.158 61.7212 214.187 61.043L212.091 57.8626C211.827 58.0369 211.508 58.1101 211.194 58.0688L210.698 61.8454ZM214.187 61.043C215.216 60.3651 215.966 59.3395 216.301 58.1534L212.635 57.1195C212.549 57.4244 212.356 57.6881 212.091 57.8626L214.187 61.043ZM216.298 58.1641L220.755 42.7042L217.095 41.6489L212.638 57.1088L216.298 58.1641ZM220.755 42.7047C220.812 42.5089 220.93 42.3368 221.093 42.2143L218.804 39.1696C217.981 39.7886 217.381 40.6586 217.095 41.6484L220.755 42.7047ZM221.093 42.2143C221.256 42.0919 221.454 42.0257 221.658 42.0258L221.66 38.2168C220.63 38.2162 219.628 38.5506 218.804 39.1697L221.093 42.2143ZM221.659 42.0258H247.958V38.2168H221.659V42.0258ZM247.959 42.0258C248.103 42.0258 248.245 42.0588 248.374 42.1224L250.057 38.7051C249.404 38.3836 248.686 38.2165 247.958 38.2168L247.959 42.0258ZM248.374 42.1224C248.503 42.1859 248.616 42.2783 248.704 42.3929L251.724 40.0708C251.28 39.4941 250.71 39.0268 250.057 38.7051L248.374 42.1224ZM248.704 42.3924C248.792 42.5069 248.852 42.6397 248.88 42.7806L252.616 42.0334C252.473 41.3193 252.167 40.648 251.724 40.0712L248.704 42.3924ZM248.881 42.7813C248.909 42.9222 248.904 43.0678 248.867 43.2068L252.548 44.1875C252.735 43.4839 252.759 42.7467 252.615 42.0326L248.881 42.7813ZM226.146 57.1852C226.146 60.7074 227.545 64.0853 230.036 66.5759L232.729 63.8824C230.953 62.1062 229.955 59.6972 229.955 57.1852H226.146ZM230.036 66.5758C232.526 69.0666 235.904 70.4656 239.427 70.4656V66.6566C236.915 66.6566 234.506 65.6588 232.729 63.8825L230.036 66.5758ZM239.427 70.4656C242.949 70.4656 246.327 69.0666 248.817 66.5758L246.124 63.8825C244.348 65.6588 241.939 66.6566 239.427 66.6566V70.4656ZM248.817 66.5759C251.308 64.0853 252.707 60.7074 252.707 57.1852H248.898C248.898 59.6972 247.9 62.1062 246.124 63.8824L248.817 66.5759ZM252.707 57.1852C252.707 53.663 251.308 50.2851 248.817 47.7945L246.124 50.488C247.9 52.2642 248.898 54.6732 248.898 57.1852H252.707ZM248.817 47.7946C246.327 45.3038 242.949 43.9047 239.427 43.9047V47.7138C241.939 47.7138 244.348 48.7116 246.124 50.4879L248.817 47.7946ZM239.427 43.9047C235.904 43.9047 232.526 45.3038 230.036 47.7946L232.729 50.4879C234.506 48.7116 236.915 47.7138 239.427 47.7138V43.9047ZM230.036 47.7945C227.545 50.2851 226.146 53.663 226.146 57.1852H229.955C229.955 54.6732 230.953 52.2642 232.729 50.488L230.036 47.7945ZM237.522 51.4972V62.8732H241.331V51.4972H237.522ZM233.739 59.0897H245.115V55.2807H233.739V59.0897Z" fill="white"/>
<path d="M145.823 141.922L155.826 157.527C159.593 163.403 165.801 167.263 172.733 168.037C181.628 169.031 190.3 164.8 195.01 157.174L220.474 115.941C218.811 115.804 214.046 115.197 209.628 111.468C205.103 107.644 203.732 102.895 203.343 101.285C193.977 114.713 184.61 128.141 175.242 141.574" fill="white"/>
<path d="M168.92 167.751C163.394 166.206 158.61 162.698 155.453 157.774L145.449 142.168C145.318 141.961 145.377 141.686 145.584 141.555C145.791 141.423 146.066 141.482 146.197 141.689L156.2 157.294C159.909 163.08 165.952 166.838 172.781 167.602C181.461 168.573 190.037 164.389 194.631 156.948L219.723 116.317C217.239 116.015 213.137 115.016 209.342 111.812C205.582 108.636 203.898 104.794 203.163 102.325L175.608 141.833C175.469 142.034 175.191 142.086 174.992 141.942C174.791 141.803 174.744 141.526 174.883 141.325L202.984 101.037C203.083 100.894 203.256 100.822 203.432 100.853C203.608 100.883 203.741 101.018 203.781 101.186C204.323 103.421 205.843 107.684 209.92 111.133C213.915 114.509 218.273 115.32 220.514 115.504C220.667 115.514 220.803 115.607 220.874 115.748C220.946 115.888 220.937 116.051 220.855 116.181L195.39 157.414C190.614 165.146 181.702 169.491 172.686 168.485C171.402 168.343 170.142 168.097 168.923 167.757L168.92 167.751Z" fill="#27313A"/>
<path d="M135.359 87.332C135.359 87.332 142.478 91.6595 148.748 95.1631C152.638 97.3358 155.534 100.982 156.934 105.211L160.173 113.29L176.892 144.662" fill="white"/>
<path d="M176.775 145.096C176.664 145.065 176.561 144.99 176.504 144.877L159.785 113.505C159.785 113.505 159.77 113.478 159.765 113.463L156.526 105.384C155.118 101.133 152.281 97.6523 148.531 95.5599C142.329 92.0939 130.127 85.0254 130.056 84.9824C129.847 84.8548 129.78 84.5821 129.908 84.373C130.036 84.1638 130.312 84.098 130.517 84.2244C130.588 84.2674 142.778 91.328 148.965 94.785C152.906 96.9861 155.887 100.642 157.358 105.081L160.577 113.113L177.289 144.464C177.403 144.681 177.324 144.949 177.107 145.064C177.003 145.123 176.885 145.132 176.778 145.102L176.775 145.096Z" fill="#27313A"/>
<path d="M220.655 115.294C219.368 116.846 213.246 114.446 209.178 110.916C205.395 107.637 202.197 102.35 203.463 100.857C204.714 99.382 210.269 101.683 213.959 104.571C218.332 107.997 221.959 113.714 220.656 115.289L220.655 115.294Z" fill="white"/>
<path d="M217.201 115.889C214.647 115.175 211.343 113.383 208.889 111.256C205.022 107.902 201.587 102.388 203.127 100.574C204.722 98.696 210.671 101.435 214.235 104.228C217.821 107.037 221.082 111.542 221.349 114.065C221.419 114.708 221.3 115.215 220.999 115.584C220.699 115.948 220.22 116.16 219.582 116.213C218.931 116.267 218.115 116.149 217.2 115.893L217.201 115.889ZM206.529 101.123C205.178 100.745 204.159 100.728 203.802 101.146C202.879 102.236 205.562 107.19 209.47 110.582C212.925 113.581 217.534 115.488 219.508 115.324C219.777 115.302 220.133 115.231 220.314 115.014C220.495 114.796 220.497 114.427 220.465 114.16C220.247 112.136 217.411 107.846 213.684 104.929C211.265 103.038 208.526 101.686 206.524 101.126L206.529 101.123Z" fill="#27313A"/>
<path d="M204.451 104.295L213.661 95.3626L221.919 108.699L215.928 114.695C209.537 111.139 206.902 109.225 204.451 104.295Z" fill="white" stroke="#27313A" stroke-width="1.17741" stroke-linejoin="round"/>
<path d="M248.046 106.954C248.2 107.676 247.714 108.375 246.981 108.482C242.945 109.075 238.352 109.5 233.302 109.556C230.543 109.585 227.923 109.501 225.465 109.338C221.214 109.053 217.307 106.698 215.264 102.968C214.621 101.793 214.124 100.452 213.908 98.9418C213.698 97.4555 213.803 96.1045 214.028 94.9733C218.355 90.8571 222.681 86.7448 227.009 82.6286C227.738 82.0365 228.816 82.0478 229.548 82.7198C230.214 83.3342 230.321 84.3464 229.879 85.1357L225.936 92.1761L245.064 92.8465C245.791 92.8721 246.385 93.4319 246.447 94.1547C246.512 94.8866 246.009 95.5509 245.286 95.6861L236.656 97.3102L248.788 96.7732C249.513 96.7422 250.165 97.2016 250.375 97.8961C250.652 98.813 250.058 99.7588 249.109 99.9089L237.127 101.79L251.201 100.762C252.127 100.692 252.967 101.321 253.155 102.23C253.377 103.27 252.673 104.28 251.621 104.444L237.933 106.528L246.713 105.95C247.35 105.907 247.919 106.339 248.049 106.959L248.046 106.954Z" fill="#FDFEFF"/>
<path d="M222.744 109.291C223.613 109.534 224.516 109.691 225.435 109.754C228.043 109.925 230.692 109.999 233.303 109.972C237.882 109.923 242.505 109.559 247.039 108.897C247.501 108.827 247.919 108.572 248.187 108.188C248.455 107.804 248.55 107.325 248.452 106.869C248.305 106.183 247.745 105.672 247.08 105.551L251.676 104.85C252.301 104.756 252.843 104.419 253.2 103.9C253.558 103.381 253.685 102.755 253.554 102.138C253.321 101.031 252.292 100.258 251.158 100.339L247.109 100.635L249.165 100.314C249.737 100.223 250.237 99.8917 250.547 99.407C250.853 98.9172 250.931 98.3248 250.765 97.772C250.501 96.898 249.676 96.3124 248.761 96.3552L242.509 96.6321L245.358 96.096C246.297 95.9173 246.943 95.068 246.861 94.1193C246.778 93.1877 246.009 92.4621 245.072 92.4295L226.628 91.7815L230.239 85.3364C230.785 84.364 230.612 83.1345 229.828 82.4136C228.955 81.6113 227.657 81.5644 226.743 82.3039L213.739 94.6723C213.674 94.7321 213.636 94.8079 213.616 94.8933C213.343 96.2749 213.303 97.6571 213.491 99.0032C213.696 100.445 214.168 101.845 214.895 103.173C216.533 106.162 219.41 108.364 222.747 109.296L222.744 109.291ZM247.636 107.039C247.688 107.274 247.639 107.511 247.5 107.71C247.362 107.91 247.158 108.034 246.918 108.071C242.42 108.73 237.837 109.089 233.293 109.138C230.703 109.167 228.076 109.094 225.49 108.921C221.336 108.647 217.556 106.288 215.628 102.768C214.95 101.531 214.513 100.223 214.319 98.8841C214.149 97.673 214.18 96.4311 214.412 95.1808L227.293 82.9293C227.859 82.4731 228.695 82.5079 229.258 83.0244C229.762 83.4896 229.864 84.2883 229.507 84.9284L225.564 91.9687C225.494 92.0962 225.494 92.2519 225.564 92.3752C225.636 92.5037 225.77 92.5843 225.913 92.5853L245.041 93.2557C245.556 93.2744 245.978 93.6736 246.023 94.1835C246.067 94.7065 245.711 95.1737 245.197 95.2724L236.568 96.8965C236.353 96.9359 236.205 97.137 236.231 97.3562C236.256 97.5753 236.446 97.7364 236.666 97.7244L248.798 97.1874C249.329 97.1631 249.811 97.5054 249.965 98.0113C250.061 98.3325 250.017 98.6791 249.838 98.9622C249.659 99.2453 249.366 99.4403 249.035 99.4905L237.052 101.372C236.83 101.405 236.678 101.609 236.702 101.832C236.727 102.055 236.924 102.218 237.151 102.199L251.225 101.172C251.943 101.117 252.591 101.61 252.742 102.31C252.824 102.7 252.743 103.097 252.518 103.424C252.292 103.75 251.95 103.966 251.552 104.023L237.864 106.107C237.642 106.14 237.485 106.343 237.511 106.562C237.535 106.785 237.73 106.943 237.954 106.932L246.734 106.354C247.159 106.326 247.546 106.616 247.633 107.034L247.636 107.039Z" fill="#27313A"/>
<path d="M236.058 106.03C236.102 106.043 236.149 106.047 236.192 106.046C236.422 106.033 236.599 105.835 236.584 105.606C236.386 102.202 236.064 98.5599 235.071 95.016C235.007 94.7947 234.778 94.6659 234.558 94.7254C234.336 94.7888 234.207 95.0168 234.267 95.2369C235.237 98.7054 235.553 102.294 235.752 105.651C235.761 105.835 235.889 105.983 236.058 106.03Z" fill="#27313A"/>
<path d="M219.128 100.323C219.273 100.364 219.437 100.323 219.547 100.207C222.675 96.8715 227.542 96.3198 232.249 98.7647C232.454 98.8696 232.705 98.7928 232.81 98.5884C232.915 98.3841 232.837 98.1332 232.632 98.0283C227.577 95.4036 222.327 96.0213 218.933 99.6412C218.777 99.8097 218.786 100.072 218.954 100.231C219.006 100.28 219.063 100.309 219.127 100.327L219.128 100.323Z" fill="#27313A"/>
<path d="M214.93 94.7006L213.668 95.7861L212.85 96.9959L212.993 99.9128L213.261 102.385L213.974 104.982L217.158 107.31L220.811 109.234L222.198 107.703L218.029 104.197L215.217 100.534L214.93 94.7006Z" fill="white"/>
<path d="M87.626 98.9298L90.2732 124.806L87.626 179.064L158.176 177.53L155.084 135.963L146.072 96.0294L128.32 85.5933L87.626 98.9298Z" fill="white"/>
<path d="M135.475 192.776C136.954 193.016 139.135 193.443 141.693 194.244C144.7 195.187 145.313 195.765 148.093 196.797C149.541 197.335 156.559 199.871 162.582 199.515C164.9 199.377 166.872 198.825 167.09 198.763C167.259 198.714 168.227 198.341 170.164 197.593C171.07 197.242 171.532 197.059 171.887 196.628C172.46 195.934 172.171 195.476 172.735 194.857C173.361 194.172 173.988 194.435 174.636 193.803C174.952 193.496 175.302 192.953 175.365 191.913C175.644 191.601 175.986 191.121 175.911 190.6C175.72 189.328 173.148 188.928 168.511 187.7C168.511 187.7 160.286 185.453 159.126 182.958C159.029 182.753 159.055 182.562 159.055 182.562C159.686 182.353 160.512 182.064 161.476 181.708C162.138 181.459 162.822 181.152 164.19 180.542C165.758 179.844 166.184 179.626 166.233 179.243C166.29 178.772 165.74 178.34 165.513 178.162C164.398 177.313 162.626 176.943 158.185 177.531C155.351 177.909 152.371 178.549 152.371 178.549C151.536 178.847 150.248 179.226 148.64 179.328C147.76 179.381 145.651 179.475 143.114 178.696C142.106 178.385 141.293 178.02 140.716 177.731C140.578 179.888 140.152 182.864 138.917 186.196C137.882 188.981 136.59 191.179 135.484 192.78L135.475 192.776Z" fill="white"/>
<path d="M161.383 199.996C156.035 199.996 150.283 198.087 147.943 197.215C146.757 196.775 145.97 196.419 145.215 196.077C144.221 195.627 143.279 195.205 141.564 194.666C139.552 194.039 137.478 193.55 135.408 193.216C135.257 193.194 135.129 193.092 135.071 192.949C135.013 192.807 135.026 192.647 135.115 192.522C136.51 190.507 137.647 188.327 138.5 186.036C139.495 183.363 140.09 180.556 140.272 177.7C140.281 177.553 140.365 177.415 140.494 177.344C140.623 177.268 140.783 177.264 140.916 177.335C141.662 177.713 142.448 178.029 143.243 178.274C145.815 179.061 147.92 178.932 148.609 178.888C149.83 178.812 151.047 178.559 152.215 178.136C152.233 178.131 152.251 178.123 152.273 178.118C152.304 178.114 155.302 177.469 158.123 177.095C162.871 176.463 164.616 176.926 165.78 177.811C166.051 178.016 166.766 178.563 166.673 179.301C166.588 179.964 165.984 180.236 164.372 180.952L163.914 181.156C162.831 181.637 162.231 181.904 161.636 182.126C160.952 182.38 160.263 182.624 159.579 182.86C160.601 184.729 166.437 186.673 168.636 187.273C169.422 187.482 170.15 187.665 170.817 187.834C174.37 188.737 176.155 189.19 176.36 190.538C176.435 191.041 176.249 191.561 175.809 192.095C175.733 192.967 175.445 193.652 174.961 194.128C174.57 194.511 174.17 194.635 173.85 194.733C173.553 194.827 173.317 194.902 173.073 195.165C172.864 195.392 172.82 195.578 172.753 195.836C172.678 196.13 172.589 196.499 172.238 196.917C171.798 197.447 171.247 197.66 170.332 198.016L170.19 198.069C168.076 198.884 167.401 199.146 167.223 199.195C167.001 199.257 164.976 199.822 162.622 199.965C162.218 199.987 161.809 200 161.396 200L161.383 199.996ZM136.23 192.456C138.118 192.789 139.997 193.247 141.827 193.821C143.594 194.373 144.558 194.809 145.58 195.267C146.326 195.601 147.094 195.952 148.253 196.379C150.723 197.295 157.052 199.391 162.56 199.07C164.816 198.937 166.757 198.394 166.97 198.336C167.112 198.296 168.147 197.896 169.862 197.238L170.004 197.184C170.892 196.842 171.265 196.686 171.545 196.348C171.767 196.081 171.816 195.876 171.883 195.618C171.958 195.307 172.047 194.956 172.407 194.56C172.811 194.119 173.233 193.986 173.57 193.879C173.859 193.79 174.086 193.719 174.325 193.483C174.676 193.141 174.876 192.602 174.921 191.882C174.925 191.779 174.965 191.686 175.036 191.61C175.36 191.25 175.511 190.925 175.471 190.663C175.356 189.902 173.459 189.417 170.59 188.688C169.919 188.519 169.191 188.332 168.396 188.123C167.53 187.887 159.935 185.747 158.718 183.14C158.576 182.833 158.602 182.558 158.607 182.504C158.629 182.335 158.744 182.193 158.909 182.135C159.708 181.868 160.517 181.583 161.316 181.285C161.889 181.072 162.475 180.809 163.546 180.338L164.003 180.133C164.785 179.786 165.762 179.35 165.784 179.186C165.793 179.119 165.758 178.914 165.234 178.514C164.381 177.865 162.942 177.349 158.234 177.971C155.595 178.323 152.793 178.91 152.482 178.977C151.238 179.422 149.955 179.688 148.658 179.769C147.925 179.813 145.704 179.955 142.977 179.119C142.342 178.923 141.711 178.688 141.103 178.407C140.867 181.125 140.272 183.794 139.326 186.343C138.531 188.487 137.492 190.538 136.23 192.451V192.456Z" fill="#27313A"/>
<path d="M163.337 189.529C163.337 189.529 170.323 192.385 175.24 192.082L163.337 189.529Z" fill="white"/>
<path d="M174.476 192.549C169.608 192.549 163.439 190.054 163.168 189.943C162.941 189.849 162.83 189.591 162.924 189.364C163.017 189.137 163.274 189.026 163.501 189.12C163.572 189.146 170.461 191.927 175.209 191.642C175.458 191.628 175.666 191.815 175.68 192.06C175.693 192.305 175.507 192.518 175.262 192.532C175.005 192.549 174.743 192.554 174.476 192.554V192.549Z" fill="#27313A"/>
<path d="M163.186 192.821C163.186 192.821 168.707 195.076 172.589 194.836L163.186 192.821Z" fill="white"/>
<path d="M171.993 195.303C168.129 195.303 163.239 193.323 163.021 193.234C162.795 193.141 162.684 192.883 162.777 192.656C162.87 192.429 163.128 192.318 163.355 192.411C163.408 192.433 168.826 194.622 172.562 194.395C172.819 194.386 173.019 194.569 173.033 194.813C173.046 195.058 172.859 195.271 172.615 195.285C172.411 195.298 172.202 195.303 171.989 195.303H171.993Z" fill="#27313A"/>
<path d="M162.155 196.454C162.155 196.454 165.753 198.029 169.733 197.784L162.155 196.454Z" fill="white"/>
<path d="M168.871 198.256C165.207 198.256 162.116 196.926 161.974 196.864C161.747 196.766 161.645 196.503 161.743 196.277C161.84 196.054 162.102 195.947 162.329 196.045C162.364 196.063 165.882 197.571 169.702 197.34C169.959 197.331 170.159 197.513 170.173 197.758C170.186 198.003 169.999 198.216 169.755 198.229C169.458 198.247 169.16 198.256 168.867 198.256H168.871Z" fill="#27313A"/>
<path d="M100.782 82.9956C100.782 82.9956 102.949 81.065 109.128 81.6299C115.306 82.1904 112.095 92.155 112.095 92.155C112.095 92.155 104.153 88.6985 100.782 82.9956Z" fill="#27313A"/>
<path d="M104.153 32.7726C104.153 32.7726 99.9821 31.0866 96.451 36.7095C92.92 42.3323 98.4586 50.2105 100.862 56.7987C103.349 63.3869 99.1782 73.8319 106.96 74.9573C114.741 76.1629 112.978 64.6725 112.978 64.6725C112.978 64.6725 113.622 33.818 104.153 32.7726Z" fill="#27313A"/>
<path d="M103.029 85.3221C106.156 91.3942 121.524 98.5251 128.293 95.171C130.425 94.1122 131.486 91.6611 130.984 89.3301L129.021 80.1841L127.498 73.031L126.454 68.0487L106.396 62.9863C106.396 71.5051 104.872 80.8247 103.025 85.3265L103.029 85.3221Z" fill="white"/>
<path d="M124.087 96.4433C116.443 96.4433 105.357 90.8027 102.638 85.5268L102.545 85.3444L102.625 85.1531C104.526 80.5134 105.961 70.9848 105.961 62.982V62.4126L126.84 67.684L127.942 72.9377L131.429 89.2368C131.984 91.8347 130.78 94.4371 128.497 95.5714C127.276 96.1764 125.77 96.4478 124.091 96.4478L124.087 96.4433ZM103.522 85.2955C106.818 91.252 121.848 97.8713 128.097 94.7707C130.016 93.8187 131.024 91.6212 130.554 89.4192L127.067 73.12L126.081 68.4091L106.845 63.5514C106.782 71.5364 105.41 80.5401 103.522 85.291V85.2955Z" fill="#27313A"/>
<path d="M110.571 70.9404C118.837 82.4308 126.779 84.2814 129.506 83.3961L127.498 73.2714L110.571 70.9404Z" fill="#27313A"/>
<path d="M102.23 33.1729C102.23 33.1729 99.5027 25.1389 108.328 21.6825C117.877 17.9858 124.535 22.4877 124.535 22.4877C124.535 22.4877 137.691 19.436 140.178 23.1327C142.666 26.8294 137.931 31.2467 137.931 31.2467C137.931 31.2467 144.913 32.1319 145.952 36.5492C146.996 40.9666 140.738 42.9773 140.738 42.9773C140.738 42.9773 145.233 48.2798 142.666 50.771C138.171 55.1883 134.24 51.8964 134.24 51.8964L102.23 33.1729Z" fill="#27313A"/>
<path d="M104.637 57.2789C104.637 58.0841 104.717 58.8848 104.797 59.6099C105.037 61.2959 105.441 62.7416 106.241 64.2719C107.205 66.2826 108.648 68.2889 110.651 71.0202C113.778 75.2774 118.997 76.9678 124.051 76.9678C137.451 77.128 138.735 67.9686 137.771 54.1472C137.127 45.5483 139.615 40.8063 137.531 37.4343C137.372 37.2742 137.212 37.114 137.132 36.9539C133.681 33.4174 128.866 31.4111 123.896 31.251H120.365C120.125 31.251 119.885 31.251 119.721 31.331H119.241C118.921 31.331 118.517 31.4111 118.197 31.4111C107.284 32.8569 104.557 39.365 104.158 45.8731C103.838 50.2103 104.637 54.552 104.637 57.2834V57.2789Z" fill="white"/>
<path d="M124.393 77.4127C124.278 77.4127 124.162 77.4127 124.042 77.4127C115.994 77.4127 111.975 73.5737 110.291 71.2872C108.226 68.4757 106.8 66.4828 105.836 64.4677C105.068 63.0086 104.624 61.5717 104.353 59.6767C104.273 58.9516 104.189 58.1197 104.189 57.2834C104.189 56.2914 104.082 55.0992 103.958 53.7157C103.744 51.3225 103.5 48.6133 103.709 45.842C104.251 37.0518 108.968 32.1852 118.135 30.9707H118.193C118.339 30.9707 118.504 30.9485 118.664 30.9307C118.855 30.9085 119.05 30.8862 119.232 30.8862H119.627C119.854 30.8062 120.112 30.8062 120.356 30.8062H123.887C129.048 30.9707 133.983 33.1016 137.443 36.647L137.522 36.7582C137.571 36.8561 137.713 36.9984 137.842 37.123L137.904 37.203C139.144 39.2048 138.886 41.5492 138.531 44.7877C138.26 47.2566 137.927 50.3305 138.206 54.1161C138.833 63.1109 138.491 69.9081 134.782 73.8406C132.517 76.2472 129.11 77.4171 124.389 77.4171L124.393 77.4127ZM118.224 31.8515C109.443 33.0215 105.112 37.4877 104.597 45.8998C104.397 48.6044 104.637 51.278 104.846 53.6357C104.97 55.0414 105.081 56.2558 105.081 57.2834C105.081 58.0752 105.161 58.8759 105.241 59.5655C105.494 61.3359 105.912 62.6883 106.636 64.0673C107.578 66.0246 108.981 67.9908 111.015 70.7622C112.596 72.9153 116.394 76.5274 124.056 76.5274C128.702 76.5764 132.006 75.5043 134.151 73.2311C137.638 69.5345 137.944 62.9418 137.332 54.1828C137.043 50.3171 137.385 47.1987 137.656 44.6942C137.989 41.6559 138.229 39.4495 137.18 37.7146C137.029 37.5634 136.878 37.4032 136.772 37.2253C133.476 33.8711 128.777 31.856 123.878 31.6958H120.36C120.218 31.6958 119.983 31.6958 119.916 31.7314L119.823 31.7804H119.237C119.09 31.7804 118.926 31.7982 118.766 31.816C118.588 31.8337 118.402 31.856 118.228 31.8604L118.224 31.8515Z" fill="#27313A"/>
<path d="M124.051 60.895C126.219 63.1459 129.186 63.7064 132.073 62.5009C132.632 62.2607 132.233 61.4555 131.673 61.6957C129.266 62.7411 126.618 62.2562 124.775 60.33C124.376 59.8496 123.652 60.4101 124.051 60.8906V60.895Z" fill="#27313A"/>
<path d="M129.585 66.4434C128.382 66.8438 127.178 66.8438 126.214 65.963C125.735 65.4826 126.454 64.7575 126.938 65.2379C127.662 65.8829 128.542 65.7183 129.346 65.3981C129.905 65.2379 130.149 66.2833 129.585 66.4434Z" fill="#27313A"/>
<path d="M129.585 51.0113C129.585 51.5718 129.505 52.2969 129.665 52.8574C129.905 53.6626 130.145 53.5024 130.709 53.9829C131.189 54.3832 131.513 55.0282 131.513 55.5887C131.593 57.1146 130.149 58.16 128.706 57.9998C128.146 57.9197 128.226 57.0345 128.786 57.1146C130.229 57.3548 131.113 55.7489 130.07 54.7836C129.75 54.4633 129.266 54.3832 129.026 54.0585C128.546 53.3334 128.786 51.8076 128.706 51.0068C128.626 50.3618 129.51 50.4463 129.59 51.0068L129.585 51.0113Z" fill="#27313A"/>
<path d="M125.015 46.9137C124.211 46.5934 123.007 46.5934 122.608 47.5587C122.368 48.1192 121.804 48.524 121.164 48.3639C120.605 48.2037 120.12 47.4786 120.36 46.9181C121.244 44.8274 123.572 43.7864 125.735 44.6672C126.294 44.9074 126.698 45.4724 126.538 46.113C126.299 46.6735 125.655 47.1583 125.015 46.9181V46.9137Z" fill="#27313A"/>
<path d="M134.8 49.165C134.48 48.1997 133.836 47.5591 132.792 47.479C131.269 47.3189 131.509 44.9879 133.032 45.148C134.875 45.3082 136.323 46.4336 136.963 48.1997C137.442 49.6454 135.279 50.6107 134.795 49.165H134.8Z" fill="#27313A"/>
<path d="M124.291 51.6562C124.869 51.6562 125.335 51.1535 125.335 50.5307C125.335 49.9079 124.869 49.4053 124.291 49.4053C123.714 49.4053 123.247 49.9079 123.247 50.5307C123.247 51.1535 123.714 51.6562 124.291 51.6562Z" fill="#27313A"/>
<path d="M132.797 51.9765C133.374 51.9765 133.841 51.4738 133.841 50.851C133.841 50.2283 133.374 49.7256 132.797 49.7256C132.219 49.7256 131.753 50.2283 131.753 50.851C131.753 51.4738 132.219 51.9765 132.797 51.9765Z" fill="#27313A"/>
<path d="M109.447 60.9755C107.52 61.0556 105.996 60.4951 104.793 59.5298C105.032 61.2158 105.437 62.6615 106.236 64.1918C107.52 63.5467 108.643 62.5058 109.447 60.9755Z" fill="#27313A"/>
<path d="M107.12 45.6104C112.494 47.0561 113.058 56.1354 115.785 54.5295C118.513 52.9237 113.298 38.0569 120.36 38.4573C127.422 38.7775 126.538 40.1432 129.745 40.3879C135.199 40.7082 135.199 37.9768 137.447 37.3362C137.314 37.1761 137.18 37.016 137.047 36.8558C133.596 33.3193 128.786 31.313 123.811 31.1484H120.28C120.04 31.1484 119.801 31.1484 119.641 31.2285H119.161C118.841 31.2285 118.437 31.3086 118.117 31.3086C107.284 32.7543 104.557 39.2624 104.157 45.7705C104.961 45.3702 106.001 45.2901 107.124 45.6104H107.12Z" fill="#27313A"/>
<path d="M113.702 57.6835C114.426 55.5126 114.022 53.1816 112.739 51.2554C111.135 48.7643 108.084 45.0676 105.277 45.468C101.106 46.113 100.622 49.8052 101.026 53.662C101.426 57.4388 103.993 62.4211 109.208 61.6159C111.855 61.1355 113.138 59.445 113.702 57.679V57.6835Z" fill="white"/>
<path d="M108.106 62.1504C106.645 62.1504 105.33 61.7011 104.175 60.8114C101.897 59.0543 100.831 55.9937 100.586 53.7117C100.235 50.3442 100.333 45.7801 105.214 45.0283C108.568 44.5478 111.855 49.0541 113.116 51.0115C114.502 53.0933 114.875 55.5756 114.129 57.8176C113.609 59.4457 112.352 61.4965 109.292 62.057C108.888 62.1193 108.492 62.1504 108.11 62.1504H108.106ZM105.699 45.8824C105.579 45.8824 105.459 45.8913 105.339 45.9091C102.159 46.3984 100.964 48.7783 101.466 53.6183C101.688 55.7135 102.661 58.5205 104.713 60.1041C105.97 61.0739 107.462 61.4342 109.141 61.1762C111.237 60.7936 112.636 59.5703 113.28 57.5418C113.938 55.5578 113.605 53.3558 112.37 51.4963C110.584 48.7205 107.942 45.8779 105.699 45.8779V45.8824Z" fill="#27313A"/>
<path d="M108.728 57.0389C108.888 55.433 109.048 53.7426 108.408 52.2168C107.848 50.8511 106.32 48.8404 104.557 49.4854C103.998 49.6456 103.593 48.8404 104.157 48.6002C105.841 48.0397 107.449 49.0005 108.488 50.3662C109.931 52.2968 110.011 54.7835 109.692 57.1145C109.612 57.7596 108.648 57.595 108.728 57.0345V57.0389Z" fill="#27313A"/>
<path d="M156.204 195.728C155.959 195.728 155.759 195.528 155.759 195.283C155.759 195.234 155.759 195.23 155.724 195.159C155.715 195.141 155.706 195.119 155.702 195.101C155.595 194.789 155.422 194.278 155.706 193.517C155.711 193.504 155.719 193.49 155.724 193.473C155.879 193.166 156.035 192.765 156.19 192.383C156.483 191.796 156.808 191.079 156.883 190.483C156.95 190.087 156.892 189.465 156.825 188.744L156.803 188.49C156.785 188.304 156.768 188.117 156.75 187.93C156.67 187.107 156.586 186.253 156.728 185.474C156.772 185.234 157.003 185.07 157.243 185.118C157.483 185.163 157.643 185.394 157.598 185.635C157.478 186.288 157.558 187.08 157.634 187.841C157.652 188.032 157.669 188.224 157.687 188.41L157.709 188.659C157.785 189.474 157.842 190.119 157.763 190.612C157.674 191.32 157.327 192.089 156.999 192.748C156.856 193.108 156.697 193.513 156.528 193.851C156.363 194.3 156.457 194.567 156.528 194.781C156.634 194.999 156.643 195.15 156.643 195.283C156.643 195.528 156.443 195.728 156.199 195.728H156.204Z" fill="#27313A"/>
<path d="M159.108 176.004C158.908 176.004 158.726 175.866 158.678 175.662C156.47 166.271 153.69 125.83 153.934 119.135C153.943 118.895 154.138 118.708 154.378 118.708C154.383 118.708 154.391 118.708 154.396 118.708C154.64 118.717 154.831 118.922 154.822 119.171C154.578 125.843 157.349 166.115 159.544 175.461C159.601 175.702 159.45 175.942 159.215 175.995C159.179 176.004 159.148 176.009 159.113 176.009L159.108 176.004Z" fill="#27313A"/>
<path d="M82.3318 153.465C93.2447 157.802 140.898 174.76 140.898 174.76C140.898 174.76 140.898 187.856 133.676 195.169C133.676 195.169 94.3639 189.061 70.6949 178.696C63.0776 175.32 59.9463 167.446 60.5104 159.088C61.6341 141.409 62.1937 117.223 64.1214 111.436C66.8485 103.242 71.7431 99.3849 77.7614 97.214C83.7797 95.0432 102.554 86.689 102.554 86.689" fill="white"/>
<path d="M133.676 195.614C133.654 195.614 133.632 195.614 133.609 195.609C133.214 195.547 93.9685 189.377 70.5216 179.105C63.344 175.929 59.4355 168.434 60.0662 159.061C60.3815 154.118 60.6524 148.589 60.9189 143.246C61.6251 128.989 62.2914 115.528 63.6993 111.302C66.1466 103.949 70.566 99.3401 77.6103 96.8C83.5442 94.6603 102.185 86.3684 102.372 86.2839C102.598 86.1815 102.856 86.2839 102.958 86.5107C103.056 86.7332 102.958 87.0001 102.732 87.0979C102.545 87.1825 83.8729 95.4877 77.9123 97.6363C71.0546 100.11 66.9328 104.411 64.5432 111.582C63.1752 115.693 62.4824 129.723 61.8072 143.291C61.5408 148.638 61.2698 154.172 60.9545 159.123C60.3504 168.109 64.0636 175.275 70.8813 178.296C93.2979 188.114 130.283 194.181 133.525 194.702C139.774 188.203 140.392 177.081 140.454 175.08C136.368 173.625 92.5162 158.002 82.1718 153.887C81.9453 153.798 81.8342 153.536 81.923 153.309C82.0119 153.082 82.2739 152.971 82.5005 153.06C93.2801 157.348 140.574 174.177 141.053 174.346C141.231 174.408 141.351 174.577 141.351 174.764C141.351 175.306 141.267 188.127 134 195.485C133.916 195.569 133.8 195.618 133.685 195.618L133.676 195.614Z" fill="#27313A"/>
<path d="M129.732 103.605C129.572 103.605 129.43 103.579 129.31 103.539C128.137 103.147 127.573 101.194 127.302 99.6195C126.929 97.2974 125.97 96.1497 125.961 96.1364C125.859 96.0162 125.828 95.8472 125.881 95.7004C125.934 95.5536 126.059 95.4424 126.214 95.4113C128.133 95.042 129.461 94.2146 130.163 92.9557C131.358 90.8204 130.558 87.9067 129.972 86.3631C129.883 86.1318 130.003 85.8782 130.229 85.7892C130.46 85.7003 130.714 85.8204 130.802 86.0472C131.437 87.7377 132.304 90.9361 130.936 93.3872C130.185 94.7351 128.87 95.6559 127.031 96.1364C127.396 96.7502 127.92 97.8579 128.177 99.4727C128.546 101.621 129.15 102.542 129.59 102.693C129.812 102.769 130.087 102.653 130.403 102.355C137.922 95.6693 134.547 88.0802 134.396 87.7599C134.293 87.5375 134.391 87.2706 134.613 87.1683C134.835 87.0659 135.097 87.1594 135.204 87.3818C135.244 87.4663 139.019 95.8783 131.002 103.009C130.518 103.467 130.083 103.605 129.732 103.605Z" fill="#27313A"/>
<path d="M87.6263 155.355C87.6263 155.355 87.5952 155.355 87.5818 155.355C87.3376 155.328 87.1599 155.11 87.1865 154.865L89.8337 128.668C89.8604 128.424 90.078 128.254 90.3223 128.272C90.5666 128.299 90.7442 128.517 90.7176 128.762L88.0704 154.959C88.0482 155.19 87.8528 155.359 87.6307 155.359L87.6263 155.355Z" fill="#27313A"/>
<path d="M101.906 96.0922C101.906 96.0922 123.008 106.857 125.011 103.966C127.018 101.074 126.294 95.932 126.294 95.932C126.294 95.932 115.062 97.1375 104.953 87.9782C102.625 85.8874 102.305 84.6819 101.826 83.721C101.826 83.721 100.862 82.6756 100.142 84.366C99.4984 85.9719 97.895 89.3483 97.895 89.3483C97.895 89.3483 95.5676 92.3199 101.906 96.0966V96.0922Z" fill="white"/>
<path d="M123.576 104.9C121.893 104.9 118.721 104.131 112.534 101.524C107.058 99.2152 101.759 96.5149 101.706 96.4882C101.697 96.4882 101.688 96.4793 101.679 96.4749C98.961 94.8557 97.4198 93.1563 97.0955 91.4259C96.8601 90.1714 97.3709 89.3262 97.513 89.1171C97.6863 88.7524 99.1386 85.6829 99.7294 84.1971C100.04 83.4676 100.453 83.0583 100.955 82.9694C101.617 82.8537 102.101 83.3564 102.154 83.4142C102.181 83.4454 102.208 83.4809 102.226 83.5165C102.297 83.6589 102.368 83.8101 102.439 83.9658C102.838 84.8377 103.336 85.9187 105.255 87.6447C115.102 96.5683 126.139 95.5007 126.25 95.4873C126.49 95.4607 126.703 95.6297 126.738 95.8655C126.77 96.0834 127.462 101.217 125.379 104.215C125.131 104.571 124.669 104.896 123.576 104.896V104.9ZM102.123 95.7009C112.321 100.906 123.532 105.323 124.651 103.713C126.214 101.457 126.019 97.6493 125.903 96.4037C123.696 96.506 113.671 96.4705 104.659 88.3075C102.603 86.4614 102.039 85.2336 101.63 84.3395C101.573 84.2149 101.519 84.0993 101.466 83.9836C101.391 83.9213 101.239 83.8146 101.106 83.8457C100.929 83.8769 100.729 84.1304 100.555 84.5352C99.9204 86.1278 98.3658 89.3929 98.3036 89.5353C98.2903 89.5664 98.2725 89.5931 98.2503 89.6198C98.2326 89.6421 97.7751 90.2649 97.9794 91.2924C98.1793 92.2933 99.0587 93.8726 102.128 95.7053L102.123 95.7009Z" fill="#27313A"/>
</g>
<defs>
<clipPath id="clip0_2618_2928">
<rect width="336" height="200" fill="white"/>
</clipPath>
</defs>
</svg>
