<svg width="292" height="180" viewBox="0 0 292 180" fill="none" xmlns="http://www.w3.org/2000/svg">
<rect x="0.5" y="0.5" width="291" height="179" rx="6.5" fill="white" stroke="#C0C0C0"/>
<path d="M158.366 143.977C153.482 143.936 149.535 139.965 149.535 135.072V40.6739C149.535 36.5543 153.589 33.2158 158.597 33.2158H273.289C278.296 33.2158 282.35 36.5543 282.35 40.6739V136.051C282.35 141.001 278.321 144.997 273.371 144.956L158.366 143.977Z" fill="white"/>
<path d="M273.453 145.4C273.453 145.4 273.396 145.4 273.371 145.4L158.366 144.421C153.252 144.38 149.099 140.187 149.099 135.072V40.6739C149.099 36.3158 153.367 32.7718 158.605 32.7718H273.297C278.543 32.7718 282.803 36.3158 282.803 40.6739V136.051C282.803 138.567 281.824 140.919 280.04 142.686C278.272 144.438 275.937 145.4 273.461 145.4H273.453ZM158.605 33.6516C153.852 33.6516 149.987 36.801 149.987 40.6657V135.072C149.987 139.693 153.753 143.492 158.375 143.533L273.379 144.512H273.453C275.698 144.512 277.811 143.64 279.407 142.062C281.018 140.458 281.906 138.328 281.906 136.051V40.6739C281.906 36.8092 278.042 33.6599 273.289 33.6599H158.605V33.6516Z" fill="#27313A"/>
<path d="M150.333 86.6149C151.245 85.4062 152.15 84.1892 153.063 82.9804C154.386 81.377 155.71 79.7735 157.026 78.1701L160.175 75.3579C162.264 73.2281 164.542 71.2218 165.356 71.748C165.791 72.0358 165.66 72.9486 165.578 73.5488C165.232 76.0403 163.226 77.5698 162.535 78.0549L176.021 74.3464C176.695 74.0093 177.484 74.3464 177.821 75.1358L177.937 75.5881C178.159 76.1472 177.937 76.8215 177.377 77.0518L168.053 81.7717L179.515 77.8329C180.19 77.4958 180.979 77.948 181.201 78.6223L181.316 78.9595C181.538 79.5186 181.201 80.1929 180.527 80.4231L168.612 84.8059L178.726 83.0051C179.515 82.89 180.297 83.4573 180.19 84.2385V84.3536C180.19 84.9128 179.853 85.365 179.293 85.5871L168.957 88.6213L175.478 87.6099C176.374 87.4948 177.164 88.2842 176.942 89.1804C176.827 89.6327 176.489 89.9698 176.045 90.0767L152.783 95.9232C151.977 92.8149 151.163 89.7149 150.357 86.6067L150.333 86.6149Z" fill="white"/>
<path d="M152.758 96.3754C152.561 96.3754 152.38 96.2439 152.331 96.0383L149.905 86.7218C149.872 86.5903 149.905 86.4505 149.979 86.3436L152.709 82.7091L156.689 77.8823C156.689 77.8823 156.722 77.8494 156.738 77.8329L159.887 75.0207C163.777 71.0573 164.961 70.9504 165.611 71.3698C166.285 71.8056 166.129 72.8828 166.03 73.5982C165.824 75.0783 165.093 76.2377 164.303 77.1011L175.864 73.9189C176.267 73.7297 176.711 73.7133 177.131 73.8613C177.616 74.0422 178.002 74.4205 178.233 74.9467C178.241 74.9714 178.249 74.9878 178.257 75.0125L178.364 75.4319C178.668 76.2377 178.307 77.134 177.542 77.4383L173.99 79.239L179.343 77.4054C179.737 77.2162 180.19 77.208 180.609 77.3807C181.078 77.578 181.456 77.981 181.62 78.4661L181.736 78.8032C181.875 79.1486 181.859 79.568 181.686 79.938C181.497 80.3491 181.119 80.678 180.667 80.8261L173.488 83.4656L178.652 82.5446C179.236 82.4624 179.828 82.6515 180.214 83.038C180.543 83.3669 180.691 83.7945 180.642 84.2468V84.329C180.642 85.069 180.198 85.6858 179.466 85.9818L175.519 87.1412C176.086 87.1001 176.629 87.3221 176.999 87.7415C177.377 88.1691 177.509 88.7282 177.377 89.2791C177.221 89.8958 176.769 90.3481 176.152 90.5043L152.89 96.3508C152.89 96.3508 152.816 96.3672 152.783 96.3672L152.758 96.3754ZM150.818 86.7136L153.079 95.3887L175.914 89.6492C176.202 89.5752 176.415 89.3614 176.489 89.0736C176.58 88.72 176.415 88.4651 176.308 88.3417C176.111 88.1197 175.815 88.0128 175.511 88.0457L169.007 89.0571C168.776 89.09 168.554 88.942 168.505 88.7118C168.456 88.4815 168.587 88.2513 168.817 88.1855L179.154 85.1513C179.343 85.069 179.729 84.847 179.729 84.3454V84.2303C179.729 84.2303 179.729 84.1892 179.729 84.1645C179.762 83.9343 179.655 83.7698 179.557 83.6712C179.367 83.482 179.063 83.3834 178.767 83.4245L168.669 85.2171C168.439 85.2582 168.225 85.1184 168.16 84.8964C168.102 84.6743 168.217 84.4441 168.439 84.3619L180.354 79.9791C180.593 79.8969 180.773 79.7489 180.856 79.5515C180.93 79.4035 180.938 79.2391 180.88 79.0993L180.757 78.7375C180.675 78.499 180.486 78.2934 180.247 78.1948C180.116 78.1372 179.91 78.0961 179.688 78.203C179.672 78.2112 179.655 78.2194 179.631 78.2276L168.168 82.1664C167.946 82.2404 167.707 82.1335 167.617 81.9197C167.527 81.7059 167.617 81.451 167.823 81.3523L177.147 76.6324C177.525 76.4762 177.624 76.0486 177.501 75.7361C177.501 75.7197 177.484 75.695 177.484 75.6786L177.377 75.2674C177.246 74.9878 177.049 74.7823 176.802 74.7C176.605 74.626 176.391 74.6425 176.202 74.7329C176.177 74.7494 176.152 74.7576 176.119 74.7658L162.634 78.4743C162.428 78.5319 162.206 78.4332 162.116 78.2359C162.025 78.0385 162.083 77.8083 162.264 77.6849C163.201 77.0353 164.829 75.621 165.125 73.4831C165.265 72.4634 165.191 72.1756 165.101 72.1181C165.076 72.1016 164.369 71.7069 160.48 75.6621L157.338 78.4661L153.391 83.2518L150.801 86.7054L150.818 86.7136Z" fill="#27313A"/>
<path d="M69.6831 97.8556C69.2143 97.8556 68.8279 97.4691 68.8279 97.0004C68.8279 96.5317 69.2061 96.1452 69.6831 96.1452C70.16 96.1452 70.5382 96.5317 70.5382 97.0004C70.5382 97.4691 70.1518 97.8556 69.6831 97.8556Z" fill="#F3F3F5"/>
<path d="M93.0605 87.4208L119.9 111.209L106.891 127.482L88.6942 110.535" fill="white"/>
<path d="M106.891 127.926C106.776 127.926 106.669 127.885 106.587 127.803L88.3899 110.864C88.209 110.7 88.2008 110.412 88.3653 110.231C88.5297 110.05 88.8175 110.042 88.9984 110.206L106.842 126.825L119.291 111.259L92.7645 87.7497C92.5836 87.5852 92.5671 87.3057 92.7234 87.1248C92.8878 86.9439 93.1674 86.9274 93.3483 87.0837L120.188 110.872C120.369 111.029 120.385 111.3 120.237 111.481L107.228 127.746C107.154 127.844 107.039 127.902 106.916 127.91C106.908 127.91 106.891 127.91 106.883 127.91L106.891 127.926Z" fill="#27313A"/>
<path d="M113.437 109.984L149.987 84.7648L159.731 95.8574L128.887 125.797C125.73 128.683 121.684 130.41 117.417 130.681C112.154 131.018 106.982 129.127 103.183 125.46L91.2021 113.907" fill="white"/>
<path d="M116.216 131.174C111.266 131.174 106.455 129.25 102.87 125.789L90.8897 114.235C90.7088 114.063 90.7087 113.783 90.8814 113.602C91.0541 113.43 91.3337 113.421 91.5146 113.594L103.495 125.147C107.196 128.716 112.253 130.574 117.392 130.245C121.544 129.982 125.524 128.28 128.591 125.476L159.123 95.841L149.921 85.3651L113.7 110.354C113.494 110.494 113.223 110.445 113.083 110.239C112.943 110.034 112.993 109.762 113.198 109.622L149.749 84.403C149.938 84.2714 150.185 84.3043 150.333 84.477L160.077 95.5696C160.233 95.7505 160.225 96.0219 160.052 96.1863L129.208 126.126C125.985 129.086 121.808 130.862 117.458 131.142C117.047 131.166 116.644 131.183 116.232 131.183L116.216 131.174Z" fill="#27313A"/>
<path d="M92.2136 163.433L93.9157 134.159C97.8873 127.696 100.913 124.572 100.913 118.791C100.913 115.502 99.8444 109.655 97.6489 104.722L98.1834 99.1055C98.7178 91.2198 92.5507 84.4112 85.4297 84.8717L51.5516 85.2664C46.0341 85.6036 42.7696 97.5184 42.2927 103.529L46.6097 162.66" fill="white"/>
<path d="M92.2136 163.877H92.189C91.9423 163.86 91.7531 163.655 91.7696 163.408L93.4717 134.143C93.4717 134.069 93.4964 133.995 93.5375 133.937C94.3598 132.597 95.1574 131.372 95.8646 130.295C98.6357 126.052 100.469 123.256 100.469 118.791C100.469 115.494 99.3593 109.664 97.246 104.903C97.2131 104.829 97.2049 104.755 97.2131 104.681L97.7476 99.0643C98.0107 95.1914 96.6129 91.4006 93.9075 88.6871C91.5476 86.3189 88.5462 85.1184 85.4709 85.3157L51.5681 85.7104C48.7559 85.8831 46.692 89.4683 45.4586 92.4449C43.7976 96.4412 42.9671 100.906 42.7615 103.538L47.0456 162.191C47.062 162.438 46.8811 162.652 46.6344 162.668C46.3878 162.676 46.174 162.504 46.1575 162.257L41.8734 103.57C41.8734 103.57 41.8734 103.529 41.8734 103.505C42.375 97.1731 45.7217 85.1924 51.5435 84.8306L85.438 84.4359C88.76 84.2221 91.9998 85.5131 94.5407 88.0704C97.4269 90.9648 98.9235 95.0105 98.6439 99.1466L98.1176 104.656C100.354 109.729 101.374 115.535 101.374 118.799C101.374 123.527 99.3839 126.57 96.6211 130.788C95.9057 131.89 95.1574 133.025 94.368 134.307L92.6741 163.466C92.6577 163.704 92.4603 163.885 92.2301 163.885L92.2136 163.877Z" fill="#27313A"/>
<path d="M67.5369 84.3537C67.9316 84.3537 67.9316 83.7287 67.5369 83.7287C67.1422 83.6712 67.1422 84.3537 67.5369 84.3537Z" fill="#17C2A4"/>
<path d="M61.6987 31.0368C61.6987 31.0368 62.0359 17.0251 53.1881 16.063C44.3979 15.1009 45.3599 25.4781 45.3599 25.4781C45.3599 25.4781 40.4838 22.1314 41.3307 28.7673C42.1284 35.4031 54.66 35.5758 54.66 35.5758L61.6905 31.0368H61.6987Z" fill="#27313A"/>
<path d="M61.4109 27.8628C61.4109 27.8628 53.813 29.1126 50.9186 35.2962C50.9186 35.2962 51.8231 36.7105 54.3228 37.3355C54.3228 37.3355 55.7947 33.1418 61.7563 31.0368C61.6987 31.0368 62.6608 29.1044 61.4191 27.8628H61.4109Z" fill="#FFBE2D"/>
<path d="M84.8378 80.4396C79.0489 81.6895 59.8815 82.0842 45.8698 73.8613C46.2069 71.0245 46.322 67.8504 46.1493 64.1008C45.6971 55.3106 47.1114 30.6339 63.6229 29.2689C80.1261 27.9039 91.5312 40.7233 86.4248 56.6674C84.328 63.1881 84.3855 72.0934 84.8378 80.4314V80.4396Z" fill="#27313A"/>
<path d="M55.7947 83.8438C55.7947 83.8438 58.9111 90.9319 66.287 92.412C75.7022 94.2869 77.0096 89.9699 77.0096 89.9699C76.6725 88.6049 76.4998 87.2481 76.4998 85.7762V84.0741C76.5573 82.4871 76.7794 80.7274 77.0672 78.7457C77.1247 78.2934 77.2398 77.7836 77.2974 77.2738V77.2162C70.8343 75.2839 65.6127 71.9372 62.2085 66.6663L61.2464 65.9838L60.6215 65.5316L60.4488 65.9263L60.5064 67.2337C60.9011 73.4173 59.3141 78.4086 55.7947 83.8521V83.8438Z" fill="white"/>
<path d="M70.604 93.333C69.3706 93.333 67.9151 93.1932 66.2048 92.8561C58.6891 91.3513 55.5233 84.329 55.3917 84.033C55.3342 83.8932 55.3424 83.7369 55.4246 83.6136C59.0509 77.9974 60.4405 73.113 60.0623 67.2666L60.0047 65.9509C60.0047 65.8852 60.013 65.8194 60.0376 65.7536L60.2103 65.3589C60.2679 65.2355 60.3748 65.1369 60.4981 65.104C60.6297 65.0711 60.7695 65.0958 60.8764 65.1698L62.4634 66.2963C62.5127 66.3292 62.5538 66.3703 62.5785 66.4196C65.7278 71.2958 70.7191 74.7905 77.4207 76.7886C77.6098 76.8462 77.7414 77.0189 77.7414 77.2162V77.2738C77.7414 77.2738 77.7414 77.3067 77.7414 77.3231C77.7085 77.6109 77.6592 77.8987 77.6098 78.1783C77.5687 78.3921 77.5358 78.6059 77.5112 78.8032C77.1987 80.9658 77.0013 82.6022 76.9438 84.0987V85.7844C76.9438 87.1987 77.1082 88.5391 77.4454 89.8712C77.4618 89.9452 77.4618 90.0274 77.4454 90.1096C77.396 90.2659 76.3846 93.333 70.6122 93.333H70.604ZM56.3045 83.8849C56.8883 85.0526 60.0294 90.7099 66.3774 91.9844C71.0398 92.9136 73.5806 92.264 74.8881 91.5569C76.0146 90.9484 76.4257 90.2165 76.5491 89.9534C76.2202 88.5884 76.0557 87.2234 76.0557 85.7844V84.0823C76.1133 82.5364 76.3189 80.8754 76.6313 78.6881C76.656 78.4825 76.6971 78.2605 76.7382 78.0303C76.7629 77.8658 76.7958 77.7014 76.8204 77.5369C70.127 75.473 65.1029 71.9207 61.8878 66.9788L60.9175 66.2963L60.9586 67.2173C61.3451 73.187 59.9554 78.1865 56.3127 83.8849H56.3045Z" fill="#27313A"/>
<path d="M70.2092 73.9189C71.0068 75.9581 72.9886 79.6502 76.9026 81.1797C76.9602 80.2176 77.0753 79.1404 77.2398 77.9481C77.2973 77.6685 77.3549 77.3807 77.4124 77.0436H77.1329C74.7482 77.1011 72.2567 75.7937 70.2092 73.9271V73.9189Z" fill="#27313A"/>
<path d="M59.9967 64.6188H60.1118L60.2845 65.3013C60.2845 65.4165 60.342 65.474 60.3996 65.5809C62.554 72.2743 70.8344 76.986 75.4885 77.6603C77.1331 77.8905 78.3254 77.6027 78.7201 77.6027C83.8264 77.0353 85.5861 70.0624 85.4135 64.6106C85.4135 63.813 85.2983 63.0812 85.2408 62.3411V62.1684C85.2408 62.1684 87.7898 54.7926 88.5299 51.561C90.0018 45.2623 87.28 38.4044 74.1235 35.6745C60.967 32.9527 56.7651 41.2331 55.2932 45.7145C55.063 46.4546 54.6683 51.0429 55.2932 51.8406" fill="white"/>
<path d="M76.7712 78.1947C76.3683 78.1947 75.916 78.1701 75.4144 78.1043C70.5054 77.3889 62.2003 72.5785 59.9719 65.7536L59.9555 65.7207C59.9061 65.6385 59.8404 65.5316 59.8321 65.3589L59.7335 64.9806C59.6183 64.8984 59.5443 64.7668 59.5443 64.6188C59.5443 64.3721 59.7417 64.1748 59.9884 64.1748H60.1035C60.3091 64.1748 60.49 64.3146 60.5393 64.5119L60.712 65.1944C60.712 65.1944 60.7202 65.2355 60.7202 65.2602C60.7531 65.3178 60.7695 65.3507 60.786 65.3836C60.7942 65.4 60.8024 65.4247 60.8107 65.4493C62.8253 71.7069 70.7438 76.5255 75.5378 77.2244C76.7136 77.3889 77.651 77.2738 78.2102 77.208C78.4075 77.1833 78.5638 77.1669 78.6789 77.1669C83.2426 76.6406 85.1338 70.309 84.9529 64.6353C84.9529 64.109 84.9036 63.5992 84.8542 63.114C84.8296 62.8674 84.8049 62.6289 84.7885 62.3904V62.1849C84.7885 62.1355 84.7885 62.0862 84.8131 62.0369C84.8378 61.9629 87.3622 54.6528 88.0858 51.4787C88.8176 48.3705 88.4147 45.5912 86.9017 43.2148C84.7473 39.8352 80.4139 37.4506 74.0248 36.1349C62.3319 33.7174 57.612 40.0983 55.7043 45.879C55.4411 46.7424 55.1945 51.0347 55.6303 51.5939C55.7783 51.7912 55.7454 52.0708 55.5563 52.2188C55.3589 52.375 55.0793 52.3339 54.9313 52.1448C54.1337 51.1252 54.6517 46.2819 54.8573 45.6159C56.8719 39.4816 61.8632 32.7142 74.2057 35.2715C80.8415 36.6447 85.364 39.1609 87.6582 42.7461C89.2863 45.2952 89.7386 48.387 88.9574 51.6925C88.2503 54.7761 85.9561 61.4613 85.6765 62.2753V62.374C85.693 62.5713 85.7176 62.8098 85.7423 63.04C85.7916 63.5499 85.8492 64.0761 85.8492 64.6435C85.9479 67.7024 85.4298 70.8106 84.4431 73.1377C83.1932 76.0897 81.228 77.8 78.7611 78.0714C78.6542 78.0796 78.5226 78.0878 78.3253 78.1125C77.9553 78.1536 77.429 78.2194 76.7712 78.2194V78.1947Z" fill="#27313A"/>
<path d="M84.1635 58.9451C84.1635 59.6852 83.7112 60.3594 83.2589 60.417C82.8067 60.4746 82.412 59.9072 82.4613 59.1671C82.4613 58.4271 82.856 57.7528 83.3658 57.6952C83.8181 57.6377 84.2128 58.1475 84.1635 58.9451Z" fill="#27313A"/>
<path d="M57.2172 35.6909C60.6214 32.9116 65.1604 30.9299 70.2668 31.8344C76.4915 32.9445 83.5385 35.0166 87.0003 40.5095C87.6417 41.5291 89.1136 43.9302 89.2698 47.2029C89.3931 49.8177 88.6777 53.1891 88.1104 53.1726C87.9952 53.1726 87.913 53.0411 87.913 53.0411C87.9952 52.2928 88.0446 51.2485 87.913 50.0151C87.8143 49.1023 87.5759 46.8246 86.4165 45.0074C84.3525 41.7676 80.1424 41.2002 78.4485 40.97C74.9209 40.493 72.0347 41.4387 70.497 42.0965C70.497 42.0965 70.497 42.5487 70.3819 43.1737C70.2668 43.8562 69.9872 44.8182 69.3623 45.7228H68.9676C67.2079 45.8379 65.736 46.175 64.5437 46.6273C64.371 46.7424 59.2153 52.1283 61.6493 50.9936C70.8917 46.7424 69.7076 60.861 67.8904 59.9565C66.0731 59.052 55.8111 57.9748 55.8111 57.9748C55.8111 57.9748 49.3479 53.4358 54.6763 53.3782C53.8293 52.0132 53.2044 50.9936 54.5036 49.8588C54.3885 44.9827 54.7832 39.9914 57.2254 35.6744L57.2172 35.6909Z" fill="#27313A"/>
<path d="M66.0074 38.8074C67.2737 38.166 70.9658 36.5132 75.7844 37.2286C80.5783 37.9357 83.6207 40.5671 84.6568 41.5456C84.3197 41.9485 83.7523 42.557 82.8971 43.0421C79.6985 44.8758 76.6971 42.705 74.3618 43.8891C73.4655 44.3413 72.3966 45.435 71.6236 51.117C70.1106 62.2425 72.7995 68.7961 69.5268 70.86C63.2281 74.8316 67.5944 53.444 67.5944 53.444C66.287 52.8191 60.161 52.4819 59.4867 49.9822C58.0148 45.8379 61.9865 41.6442 66.0074 38.8074Z" fill="#27313A"/>
<path d="M68.4496 54.9159L68.1124 54.291C68.3427 54.1759 74.0658 51.2239 80.1342 54.8008L79.7395 55.4833C74.0082 52.1941 68.5071 54.9159 68.4496 54.9159Z" fill="#27313A"/>
<path d="M80.5125 53.1645C79.6162 53.8552 78.3664 52.7369 79.0407 51.7666C79.3531 51.2897 79.8958 50.7963 80.7674 50.5414C84.5088 49.3655 86.0547 51.6432 86.0547 51.6432C86.0547 51.6432 83.3659 51.7172 81.5568 52.5477C81.1457 52.7533 80.7921 52.9424 80.5125 53.1645Z" fill="#27313A"/>
<path d="M85.216 62.3C85.216 62.3 86.0137 65.1945 87.1484 67.9162C87.946 69.791 84.0813 69.9555 84.0813 69.9555" fill="white"/>
<path d="M67.0846 62.8591C67.3642 61.8395 67.1997 58.8299 66.0074 56.3384C64.9878 54.2992 62.7759 52.9917 60.5639 53.2713C57.3323 53.7811 56.987 56.6756 57.3323 59.6851C57.6695 62.9167 61.2464 66.2634 63.631 65.8687C65.6127 65.5891 66.6982 64.2817 67.0929 62.8591H67.0846Z" fill="white"/>
<path d="M63.22 66.3456C62.2908 66.3456 61.23 65.9263 60.1775 65.1287C58.3767 63.7555 57.0857 61.6422 56.8802 59.7345C56.7075 58.1968 56.173 53.518 60.49 52.8355C62.8499 52.5313 65.2757 53.888 66.4022 56.1411C67.6274 58.7066 67.833 61.8149 67.5123 62.9825C66.9943 64.8244 65.6046 66.0414 63.6887 66.3128C63.5407 66.3374 63.3844 66.3539 63.22 66.3539V66.3456ZM61.1643 53.6825C60.9834 53.6825 60.8025 53.6907 60.6216 53.7154C58.2369 54.0936 57.3571 55.9191 57.7765 59.6358C57.9491 61.3133 59.1085 63.1881 60.7284 64.4215C61.7399 65.1945 62.7759 65.5645 63.5571 65.4329C65.6868 65.1287 66.4187 63.6157 66.6653 62.744C66.912 61.856 66.764 58.9451 65.6128 56.5358C64.7494 54.8008 62.9733 53.6907 61.1725 53.6907L61.1643 53.6825Z" fill="#27313A"/>
<path d="M60.5802 59.7345C60.5391 59.6769 60.5062 59.6111 60.498 59.5371C60.4734 59.4056 60.498 59.2658 60.572 59.1507C60.646 59.0355 60.7612 58.9533 60.8927 58.9286C61.5012 58.8217 62.1261 58.8711 62.7017 59.0766C63.2856 59.2822 63.7954 59.6358 64.1983 60.1045C64.2887 60.2032 64.3381 60.343 64.3299 60.4745C64.3299 60.6143 64.2641 60.7377 64.1572 60.8281C64.0585 60.9186 63.9187 60.9679 63.7872 60.9597C63.6474 60.9597 63.524 60.8939 63.4336 60.787C63.154 60.4581 62.7922 60.2114 62.3893 60.0634C61.9864 59.9154 61.5505 59.866 61.123 59.9318C61.0243 59.9565 60.9174 59.9483 60.8269 59.9072C60.7283 59.8743 60.646 59.8085 60.5885 59.7262L60.5802 59.7345Z" fill="#27313A"/>
<path d="M63.5653 63.1963C63.2281 63.2539 62.7676 63.2539 62.4881 63.2539V63.3114C62.3729 64.7833 61.0737 65.8112 59.5936 65.6961C58.1217 65.5809 57.0939 64.2817 57.209 62.8016C57.3241 61.4942 58.4013 60.4746 59.6512 60.417C59.9883 60.0799 60.0459 59.7345 59.7663 59.3398C57.8915 59.3974 56.3045 60.8117 56.14 62.6865C55.9674 64.7258 57.4475 66.543 59.4867 66.7733C61.526 66.9459 63.3432 65.4658 63.5735 63.4266V63.1963H63.5653Z" fill="white"/>
<path d="M104.186 147.324L95.4534 140.968C95.4534 140.968 92.8467 140.063 89.7796 139.093L92.674 138.246C92.674 138.246 101.3 140.516 102.772 140.91C104.079 141.247 104.926 139.496 103.569 138.871C101.867 138.131 92.6247 133.543 91.7695 133.543C90.865 133.543 79.9698 136.38 79.9698 136.38C78.0374 136.947 70.3244 143.977 62.1015 146.987C61.5342 147.217 60.9668 147.382 60.3418 147.497C60.0047 147.612 59.6593 147.67 59.2646 147.727V160.546C61.5342 160.267 64.7657 159.864 67.7753 159.469C73.3915 158.787 78.613 156.46 82.8642 152.718L84.961 150.901L89.6151 149.939C89.6151 149.939 97.0486 151.411 98.5205 151.526C98.9152 151.584 99.3181 151.296 99.4826 150.959L101.3 151.526C101.982 151.756 102.714 151.353 102.887 150.679V150.564C103.059 149.997 102.829 149.372 102.319 149.092L101.694 148.755L102.714 149.38C103.339 149.717 104.128 149.495 104.474 148.87C104.869 148.418 104.704 147.735 104.194 147.341L104.186 147.324Z" fill="white"/>
<path d="M59.2564 160.982C59.1495 160.982 59.0426 160.941 58.9604 160.867C58.8617 160.785 58.8124 160.662 58.8124 160.53V147.711C58.8124 147.489 58.9768 147.3 59.1988 147.267C59.61 147.209 59.906 147.151 60.202 147.061C60.2185 147.061 60.2431 147.053 60.2596 147.045C60.8352 146.938 61.3615 146.79 61.9288 146.559C67.2572 144.611 72.4129 140.927 75.8254 138.493C77.7989 137.087 79.0981 136.158 79.8382 135.936C80.9729 135.64 90.8239 133.082 91.7613 133.082C92.3533 133.082 95.0751 134.332 100.584 136.972C101.999 137.646 103.224 138.238 103.734 138.452C104.646 138.871 104.827 139.693 104.605 140.327C104.367 141.001 103.602 141.585 102.648 141.338C101.283 140.968 93.7183 138.978 92.674 138.707L91.2926 139.11C93.7019 139.883 95.5685 140.532 95.5931 140.54C95.6343 140.557 95.6754 140.573 95.7083 140.598L104.441 146.954H104.449C104.836 147.258 105.074 147.686 105.115 148.122C105.148 148.484 105.049 148.821 104.827 149.1C104.605 149.487 104.244 149.766 103.808 149.89C103.66 149.931 103.503 149.955 103.355 149.955C103.38 150.169 103.372 150.391 103.314 150.605V150.654C103.314 150.654 103.314 150.728 103.298 150.761C103.191 151.205 102.895 151.584 102.484 151.806C102.073 152.036 101.579 152.077 101.135 151.929L99.6388 151.46C99.351 151.781 98.9069 152.011 98.4382 151.945C97.0486 151.839 90.4785 150.548 89.5987 150.367L85.1501 151.288L83.1355 153.031C78.8268 156.822 73.523 159.19 67.8082 159.889C65.366 160.209 62.7758 160.53 60.6625 160.793L59.2975 160.966C59.2975 160.966 59.2646 160.966 59.24 160.966L59.2564 160.982ZM59.7004 148.097V160.028L60.5638 159.922C62.6689 159.658 65.2591 159.338 67.7013 159.017C73.2435 158.343 78.3745 156.049 82.5517 152.373L84.6568 150.556C84.7143 150.506 84.7801 150.474 84.8541 150.457L89.5082 149.495C89.5658 149.487 89.6234 149.487 89.6891 149.495C89.7631 149.511 97.1144 150.967 98.5451 151.074C98.7672 151.107 98.9892 150.926 99.0796 150.753C99.1783 150.556 99.4003 150.457 99.6141 150.531L101.431 151.098C101.653 151.172 101.884 151.148 102.081 151.041C102.254 150.942 102.385 150.794 102.443 150.613V150.564C102.443 150.523 102.443 150.474 102.459 150.432C102.541 150.145 102.476 149.84 102.303 149.635L101.464 149.125C101.259 149.002 101.193 148.73 101.308 148.525C101.431 148.319 101.694 148.245 101.908 148.36L102.533 148.697C102.657 148.763 102.763 148.845 102.862 148.936L102.953 148.993C103.133 149.092 103.364 149.117 103.586 149.051C103.808 148.985 103.98 148.845 104.087 148.648C104.104 148.623 104.12 148.59 104.145 148.566C104.227 148.467 104.268 148.352 104.252 148.22C104.235 148.023 104.112 147.826 103.931 147.678L95.256 141.371C94.8449 141.231 92.4191 140.392 89.6562 139.521C89.4671 139.463 89.3438 139.29 89.3438 139.093C89.3438 138.896 89.4753 138.723 89.6645 138.674L92.5589 137.827C92.6411 137.802 92.7234 137.802 92.7974 137.827C92.8796 137.851 101.44 140.096 102.895 140.491C103.331 140.606 103.676 140.351 103.783 140.039C103.832 139.891 103.906 139.512 103.388 139.282C102.879 139.06 101.703 138.501 100.214 137.794C97.4844 136.486 92.3945 134.061 91.7613 133.995C91.1446 133.995 84.2703 135.73 80.0849 136.815C79.501 136.988 78.1114 137.983 76.3517 139.233C72.8981 141.7 67.6848 145.425 62.2577 147.406C61.6657 147.645 61.0737 147.818 60.4569 147.933C60.2103 148.015 59.9636 148.064 59.7169 148.105L59.7004 148.097Z" fill="#27313A"/>
<path d="M49.5042 115.502C48.3695 118.651 47.2512 122.458 46.4536 126.841C45.5902 131.619 45.327 135.894 45.327 139.463C44.8337 134.571 44.3403 129.678 43.8469 124.794C45.73 121.702 47.6212 118.602 49.5042 115.51V115.502Z" fill="#27313A"/>
<path d="M88.6368 59.0027C89.1466 56.396 87.2224 53.8963 84.4431 53.444C81.6638 52.9918 78.9996 54.809 78.5473 57.4156C78.0375 60.0223 79.9617 62.522 82.741 62.9743C85.5203 63.4265 88.1845 61.6093 88.6368 59.0027ZM87.8391 58.8875C87.4444 61.0995 85.2325 62.6289 82.8479 62.2342C80.4633 61.8395 78.8762 59.7345 79.2709 57.5225C79.6656 55.3106 81.8776 53.7811 84.2622 54.1758C86.6468 54.5705 88.2338 56.6756 87.8391 58.8875Z" fill="#27313A"/>
<path d="M52.5301 84.9622C52.5301 84.9622 42.3996 83.3258 38.0415 88.5967C34.7606 92.5683 19.573 121.167 12.2711 135.064C9.79602 139.767 9.85358 145.4 12.4109 150.054C14.9435 154.659 19.5894 157.71 24.8191 158.195L68.6222 162.29V141.642L35.8378 139.258L48.9943 115.494" fill="white"/>
<path d="M68.6141 162.742C68.6141 162.742 68.5894 162.742 68.5729 162.742L24.7699 158.647C19.3839 158.145 14.6147 155.013 12.0163 150.276C9.37674 145.474 9.3274 139.71 11.8765 134.867C20.1322 119.161 34.4646 92.2312 37.6962 88.3171C39.5546 86.064 42.7368 84.699 46.8811 84.3619C49.9729 84.1152 52.4891 84.5099 52.596 84.5263C52.8427 84.5675 53.0071 84.7977 52.966 85.0362C52.9249 85.2829 52.6946 85.4391 52.4562 85.4062C52.3575 85.3897 42.523 83.8767 38.3787 88.8845C35.0731 92.8808 19.2935 122.656 12.6576 135.278C10.2484 139.858 10.2977 145.31 12.7892 149.849C15.2478 154.33 19.754 157.29 24.8439 157.759L68.1618 161.813V142.07L35.7885 139.718C35.6405 139.71 35.5007 139.619 35.4267 139.488C35.3527 139.356 35.3527 139.192 35.4267 139.06L48.5832 115.296C48.7066 115.082 48.9697 115 49.1917 115.124C49.4055 115.239 49.4877 115.51 49.3644 115.732L36.545 138.888L68.6387 141.223C68.869 141.239 69.0499 141.437 69.0499 141.667V162.314C69.0499 162.438 69.0005 162.561 68.9019 162.643C68.8196 162.717 68.7127 162.758 68.6058 162.758L68.6141 162.742Z" fill="#27313A"/>
<path d="M51.6586 85.1513C51.6586 85.1513 52.6782 75.621 58.7467 74.4287C58.7467 74.4287 63.0555 81.5743 76.73 81.4592C76.73 81.4592 80.1343 82.1993 80.529 88.9996C80.529 88.9996 79.2791 96.4906 67.4794 94.4431C55.7371 92.4614 51.6504 85.143 51.6504 85.143L51.6586 85.1513Z" fill="white"/>
<path d="M71.3112 95.2571C70.1025 95.2571 68.8032 95.1338 67.4136 94.8953C55.5974 92.8972 51.4448 85.6775 51.2721 85.3733C51.231 85.2911 51.2064 85.2006 51.2146 85.1102C51.2228 85.0115 51.4859 82.6351 52.5138 80.0778C53.9035 76.616 56.025 74.5191 58.6645 74.0011C58.8454 73.9682 59.0345 74.0504 59.1332 74.2067C59.1743 74.2725 63.5242 81.1221 76.7301 81.0234C76.7629 81.0234 76.7958 81.0234 76.8287 81.0316C76.985 81.0645 80.5701 81.9197 80.9813 88.9831C80.9813 89.016 80.9813 89.0489 80.9813 89.0818C80.9648 89.1887 80.529 91.6226 78.0046 93.4152C76.286 94.6404 74.0412 95.2489 71.3194 95.2489L71.3112 95.2571ZM52.1191 85.0526C52.3905 85.4884 53.4348 87.0425 55.4905 88.7446C57.7189 90.5948 61.6165 93.0123 67.5616 94.0155C78.3911 95.8903 79.9534 89.6409 80.085 88.9831C79.7232 83.0873 77.0261 82.0266 76.6725 81.9115C76.582 81.9115 76.4916 81.9115 76.4094 81.9115C64.2396 81.9115 59.5032 76.2706 58.5494 74.9303C53.5088 76.1884 52.2753 83.8932 52.1191 85.0526Z" fill="#27313A"/>
<path d="M59.9966 76.6406C57.1021 79.8722 55.7454 83.9014 54.8326 88.0457C54.7175 88.5555 55.5151 88.8433 55.6302 88.3253C56.5923 84.2961 57.8997 80.2669 60.7366 77.1505C61.0738 76.6982 60.3419 76.246 59.9966 76.6406Z" fill="#27313A"/>
<path d="M64.5356 79.4775C62.4387 83.2189 61.5836 87.3632 61.2464 91.6144C61.1889 92.1818 62.044 92.2393 62.0934 91.672C62.373 87.5852 63.1706 83.5643 65.2098 79.9873C65.4894 79.4775 64.8151 78.9677 64.5273 79.4775H64.5356Z" fill="#27313A"/>
<path d="M69.1814 81.1221C68.6716 85.3157 67.9891 89.46 67.8164 93.6619C67.8164 94.2293 68.6634 94.2869 68.6634 93.7195C68.836 89.5258 69.5103 85.324 70.0284 81.1796C70.1435 80.6123 69.2883 80.5547 69.1814 81.1221Z" fill="#27313A"/>
<path d="M74.74 81.8622C75.7596 85.4391 76.105 89.1229 75.7596 92.8643C75.7021 93.4317 76.5573 93.4892 76.6066 92.9219C76.9437 89.1229 76.6066 85.3815 75.587 81.6895C75.4143 81.1797 74.5673 81.3523 74.74 81.8622Z" fill="#27313A"/>
<path d="M101.686 149.183C101.612 149.183 101.538 149.166 101.472 149.125L95.5356 145.811L88.834 143.583C88.6037 143.509 88.4722 143.254 88.5544 143.024C88.6284 142.793 88.8833 142.662 89.1136 142.744L95.8563 144.981C95.8563 144.981 95.9056 144.997 95.9303 145.014L101.908 148.352C102.122 148.475 102.196 148.747 102.081 148.96C101.999 149.109 101.851 149.191 101.694 149.191L101.686 149.183Z" fill="#27313A"/>
<path d="M99.6718 151.468C99.6143 151.468 99.5567 151.46 99.4991 151.436L93.2169 148.837L86.3015 147.415C86.063 147.365 85.9068 147.127 85.9561 146.888C86.0055 146.65 86.2439 146.494 86.4824 146.543L93.4389 147.974C93.4389 147.974 93.4965 147.99 93.5211 147.998L99.8445 150.613C100.075 150.704 100.182 150.967 100.083 151.197C100.009 151.37 99.8445 151.468 99.6718 151.468Z" fill="#27313A"/>
<path d="M80.8661 72.3401C80.5701 72.3401 80.2576 72.3072 79.9287 72.225C78.3088 71.822 77.5441 70.5393 77.3467 70.161C77.2316 69.939 77.322 69.6759 77.5358 69.5608C77.7579 69.4456 78.021 69.5361 78.1361 69.7499C78.2923 70.0459 78.8926 71.0491 80.1425 71.3616C81.1539 71.6165 81.9926 71.2629 82.3051 71.1067C82.5271 70.9915 82.7902 71.082 82.9054 71.2958C83.0205 71.5178 82.93 71.7809 82.708 71.896C82.4038 72.0523 81.7295 72.3401 80.8579 72.3401H80.8661Z" fill="#27313A"/>
<path d="M85.1255 62.5878C85.1255 62.5878 85.9232 65.4823 87.0579 68.204C87.8555 70.0788 84.9117 70.1446 84.9117 70.1446" fill="white"/>
<path d="M84.9117 70.5886C84.6732 70.5886 84.4759 70.3995 84.4677 70.1528C84.4677 69.9062 84.6568 69.7006 84.9035 69.7006C85.2653 69.6924 86.3589 69.5608 86.6714 69.0839C86.7125 69.0181 86.8358 68.829 86.6467 68.3849C85.512 65.6632 84.7061 62.7441 84.6979 62.7112C84.6321 62.4727 84.7719 62.226 85.0104 62.1602C85.2488 62.0945 85.4955 62.2342 85.5613 62.4727C85.5613 62.4974 86.3589 65.3754 87.469 68.0313C87.7732 68.755 87.6088 69.2648 87.4197 69.5608C86.8029 70.5146 85.1173 70.5804 84.9281 70.5886H84.9199H84.9117Z" fill="#27313A"/>
<path d="M191.685 62.522H177.887C171.398 62.522 166.137 67.7829 166.137 74.2725V88.0704C166.137 94.56 171.398 99.8208 177.887 99.8208H191.685C198.175 99.8208 203.436 94.56 203.436 88.0704V74.2725C203.436 67.7829 198.175 62.522 191.685 62.522Z" fill="#E98D3C"/>
<path d="M254.713 62.522H240.915C234.426 62.522 229.165 67.7829 229.165 74.2725V88.0704C229.165 94.56 234.426 99.8208 240.915 99.8208H254.713C261.203 99.8208 266.464 94.56 266.464 88.0704V74.2725C266.464 67.7829 261.203 62.522 254.713 62.522Z" fill="#2E81ED"/>
<path d="M181.127 132.901H169.04C167.288 132.901 165.866 131.479 165.866 129.727V117.64C165.866 115.888 167.288 114.466 169.04 114.466H181.127C182.879 114.466 184.301 115.888 184.301 117.64V129.727C184.301 131.479 182.879 132.901 181.127 132.901ZM169.04 115.362C167.782 115.362 166.762 116.382 166.762 117.64V129.727C166.762 130.985 167.782 132.005 169.04 132.005H181.127C182.385 132.005 183.405 130.985 183.405 129.727V117.64C183.405 116.382 182.385 115.362 181.127 115.362H169.04Z" fill="#27313A"/>
<path d="M282.359 50.4427H149.543C149.297 50.4427 149.099 50.2453 149.099 49.9986C149.099 49.7519 149.297 49.5546 149.543 49.5546H282.359C282.605 49.5546 282.803 49.7519 282.803 49.9986C282.803 50.2453 282.605 50.4427 282.359 50.4427Z" fill="#27313A"/>
<path d="M203.436 68.9934H204.76C206.042 68.9934 207.087 70.0377 207.087 71.3205V72.5374C207.087 73.8202 206.042 74.8645 204.76 74.8645H203.436V68.9852V68.9934Z" fill="#27313A"/>
<path d="M228.795 94.5664H227.471C226.188 94.5664 225.144 93.5221 225.144 92.2394V91.0224C225.144 89.7396 226.188 88.6953 227.471 88.6953H228.795V94.5746V94.5664Z" fill="#27313A"/>
<path d="M207.095 71.9372C211.881 71.9372 215.762 75.8184 215.762 80.6041V82.964C215.762 87.7497 219.643 91.6309 224.429 91.6309H225.136" fill="white"/>
<path d="M225.136 92.0749H224.429C219.405 92.0749 215.318 87.9882 215.318 82.964V80.6041C215.318 76.0733 211.626 72.3812 207.095 72.3812C206.848 72.3812 206.651 72.1839 206.651 71.9372C206.651 71.6905 206.848 71.4932 207.095 71.4932C212.119 71.4932 216.206 75.5799 216.206 80.6041V82.964C216.206 87.4948 219.898 91.1869 224.429 91.1869H225.136C225.383 91.1869 225.58 91.3842 225.58 91.6309C225.58 91.8776 225.383 92.0749 225.136 92.0749Z" fill="#27313A"/>
<path d="M162.428 43.3957C163.536 43.3957 164.435 42.4974 164.435 41.3893C164.435 40.2812 163.536 39.383 162.428 39.383C161.32 39.383 160.422 40.2812 160.422 41.3893C160.422 42.4974 161.32 43.3957 162.428 43.3957Z" fill="#27313A"/>
<path d="M171.408 43.3957C172.516 43.3957 173.414 42.4974 173.414 41.3893C173.414 40.2812 172.516 39.383 171.408 39.383C170.3 39.383 169.401 40.2812 169.401 41.3893C169.401 42.4974 170.3 43.3957 171.408 43.3957Z" fill="#27313A"/>
<path d="M181.621 43.3957C182.729 43.3957 183.627 42.4974 183.627 41.3893C183.627 40.2812 182.729 39.383 181.621 39.383C180.512 39.383 179.614 40.2812 179.614 41.3893C179.614 42.4974 180.512 43.3957 181.621 43.3957Z" fill="#27313A"/>
<path d="M62.9239 57.317C62.9568 57.2512 62.9979 57.1936 63.0555 57.1525C63.1542 57.0621 63.294 57.0127 63.4255 57.0292C63.5653 57.0374 63.6886 57.1032 63.7791 57.2018C64.1738 57.6788 64.4287 58.2461 64.5356 58.8546C64.6425 59.4631 64.5849 60.0881 64.3711 60.6637C64.33 60.7952 64.2314 60.9021 64.108 60.9597C63.9847 61.0172 63.8449 61.0337 63.7133 60.9844C63.5818 60.9432 63.4749 60.8446 63.4173 60.7212C63.3597 60.5979 63.3515 60.4581 63.3926 60.3265C63.5406 59.9236 63.5818 59.4878 63.516 59.0602C63.4502 58.6326 63.2775 58.2297 63.0062 57.8926C62.9404 57.8186 62.891 57.7199 62.8746 57.6212C62.8581 57.5225 62.8746 57.4156 62.9157 57.3252L62.9239 57.317Z" fill="#27313A"/>
<path d="M240.554 120.608H191.842C191.595 120.608 191.397 120.411 191.397 120.164C191.397 119.917 191.595 119.72 191.842 119.72H240.554C240.8 119.72 240.998 119.917 240.998 120.164C240.998 120.411 240.8 120.608 240.554 120.608Z" fill="#27313A"/>
<path d="M225.785 127.672H191.842C191.595 127.672 191.397 127.474 191.397 127.228C191.397 126.981 191.595 126.784 191.842 126.784H225.785C226.032 126.784 226.229 126.981 226.229 127.228C226.229 127.474 226.032 127.672 225.785 127.672Z" fill="#27313A"/>
</svg>
