<svg width="173" height="160" viewBox="0 0 173 160" fill="none" xmlns="http://www.w3.org/2000/svg">
<circle cx="134.909" cy="37.9087" r="37.9087" fill="#02B190"/>
<path d="M134.311 24C128.576 24 123.763 27.9669 122.483 33.3076C119.3 34.2409 117 37.1857 117 40.6451C117 44.4548 119.902 47.7775 123.702 48.2524C124.466 48.3479 125.162 47.8062 125.258 47.0425C125.353 46.2788 124.811 45.5823 124.048 45.4869C121.654 45.1876 119.787 43.06 119.787 40.6451C119.787 38.2251 121.557 36.2045 123.887 35.8443C124.486 35.7516 124.956 35.2819 125.05 34.6827C125.751 30.2119 129.633 26.7871 134.311 26.7871C138.246 26.7871 141.631 29.2115 143.02 32.6784C143.23 33.2016 143.734 33.547 144.298 33.5534C147.575 33.5911 150.213 36.2522 150.213 39.5458C150.213 42.3047 148.331 44.643 145.769 45.3212C145.025 45.5182 144.581 46.281 144.778 47.025C144.975 47.769 145.738 48.2125 146.482 48.0155C150.237 47.0215 153 43.5998 153 39.5458C153 35.0358 149.616 31.3276 145.244 30.8241C143.261 26.7723 139.103 24 134.311 24Z" fill="white"/>
<path fill-rule="evenodd" clip-rule="evenodd" d="M132.605 47.3759C133.15 47.7094 133.744 47.954 134.365 48.1009V50.1445C134.365 50.5141 134.512 50.8685 134.773 51.1299C135.035 51.3912 135.389 51.538 135.759 51.538C136.128 51.538 136.483 51.3912 136.744 51.1299C137.005 50.8685 137.152 50.5141 137.152 50.1445V48.0945C137.627 47.9795 138.087 47.8068 138.522 47.5796C138.661 47.5069 138.797 47.4289 138.929 47.3459L140.404 48.8204C140.649 49.0696 140.983 49.2116 141.333 49.2153C141.599 49.2077 141.856 49.1244 142.076 48.9751C142.296 48.8259 142.469 48.6168 142.574 48.3728C142.679 48.1286 142.712 47.8597 142.669 47.5974C142.626 47.3351 142.509 47.0906 142.332 46.8927L140.852 45.4126C141.115 44.9863 141.325 44.5278 141.476 44.0474C141.518 43.9132 141.555 43.7777 141.588 43.6413H143.655C144.025 43.6413 144.379 43.4945 144.641 43.2331C144.902 42.9718 145.049 42.6173 145.049 42.2477C145.049 41.8781 144.902 41.5237 144.641 41.2623C144.379 41.001 144.025 40.8542 143.655 40.8542H141.584C141.438 40.2501 141.201 39.6742 140.881 39.1462L142.332 37.6955C142.594 37.4336 142.741 37.0786 142.741 36.7084C142.741 36.338 142.594 35.983 142.332 35.7213C142.07 35.4595 141.715 35.3124 141.345 35.3124C140.974 35.3124 140.619 35.4595 140.358 35.7213L138.923 37.1563C138.374 36.8124 137.776 36.5603 137.152 36.4073V34.3508C137.152 33.9812 137.005 33.6268 136.744 33.3654C136.483 33.1041 136.128 32.9573 135.759 32.9573C135.389 32.9573 135.035 33.1041 134.773 33.3654C134.512 33.6268 134.365 33.9812 134.365 34.3508V36.3821C133.87 36.494 133.39 36.6698 132.939 36.906C132.81 36.9734 132.683 37.0454 132.56 37.1219L131.113 35.6748C130.998 35.5065 130.847 35.3656 130.671 35.262C130.496 35.1584 130.299 35.0946 130.096 35.0753C129.893 35.0558 129.688 35.0812 129.496 35.1496C129.304 35.218 129.129 35.3278 128.984 35.4712C128.839 35.6146 128.727 35.788 128.656 35.9794C128.586 36.1706 128.558 36.3752 128.575 36.5785C128.592 36.7818 128.653 36.9789 128.755 37.1557C128.856 37.3327 128.995 37.4852 129.162 37.6026L130.623 39.0632C130.352 39.4946 130.137 39.9601 129.984 40.4487C129.943 40.5827 129.906 40.7179 129.874 40.8542H127.862C127.492 40.8542 127.138 41.001 126.876 41.2623C126.615 41.5237 126.468 41.8781 126.468 42.2477C126.468 42.6173 126.615 42.9718 126.876 43.2331C127.138 43.4945 127.492 43.6413 127.862 43.6413H129.885C130.037 44.2673 130.286 44.8635 130.624 45.408L129.186 46.8463C128.929 47.1107 128.785 47.4647 128.785 47.8334C128.785 48.2019 128.929 48.556 129.186 48.8205C129.314 48.9484 129.466 49.0492 129.634 49.1171C129.801 49.185 129.981 49.2183 130.161 49.2153C130.512 49.2252 130.852 49.1006 131.114 48.8669L132.605 47.3759ZM133.147 44.3527C133.014 44.1689 132.9 43.9711 132.808 43.7624C132.626 43.3511 132.531 42.9066 132.53 42.4568C132.495 42.0398 132.543 41.62 132.67 41.2215C132.798 40.8229 133.003 40.4535 133.273 40.1342C133.543 39.8067 133.874 39.5354 134.249 39.3363C134.612 39.1431 135.009 39.0211 135.418 38.9768C135.528 39.0047 135.642 39.0192 135.758 39.0192C136.556 39.0197 137.326 39.3135 137.921 39.8445C138.516 40.3756 138.895 41.1069 138.987 41.8993C138.999 41.9719 139.009 42.0448 139.016 42.1179C139.012 42.1609 139.01 42.2042 139.01 42.2477C139.01 42.3317 139.018 42.415 139.033 42.4965C139.029 42.7443 138.997 42.9916 138.937 43.2333C138.828 43.6698 138.63 44.0788 138.355 44.4347C138.08 44.7906 137.734 45.0856 137.339 45.3011C137.038 45.4656 136.713 45.5811 136.376 45.6437C136.349 45.63 136.32 45.6172 136.292 45.6054C136.123 45.5354 135.942 45.4993 135.759 45.4993C135.576 45.4993 135.394 45.5354 135.225 45.6054C135.201 45.6154 135.177 45.6261 135.154 45.6374C135.013 45.6096 134.873 45.5723 134.736 45.5258C134.366 45.4001 134.022 45.2088 133.72 44.9615C133.649 44.8155 133.553 44.6829 133.436 44.5702C133.349 44.4849 133.251 44.4121 133.147 44.3527Z" fill="white"/>
<path d="M95.4917 106.69C95.4297 106.569 95.3084 106.507 95.2464 106.383C94.2034 108.344 93.1011 110.982 92.7346 113.683C92.7346 113.683 96.7772 108.04 99.9628 104.297C97.7583 105.768 96.2867 106.383 95.4917 106.69Z" fill="#27313A"/>
<path d="M143.112 89.0346C143.732 88.8768 155.95 85.6214 154.876 83.7583C154.202 82.5943 151.812 81.7346 148.871 81.9798C146.238 82.1997 140.414 82.6168 139.221 82.7014C139.081 82.7126 138.945 82.6901 138.816 82.6337C137.959 82.2701 134.384 80.8609 131.227 81.185C131.111 81.185 130.945 81.2386 130.773 81.2442C130.688 81.2498 130.601 81.2583 130.516 81.2639C129.642 81.4443 128.94 81.6867 128.348 82.0418C126.939 83.0227 126.448 84.8632 127.122 86.3965C127.367 86.9489 127.734 87.4394 128.286 87.8678C128.692 88.2173 129.211 88.5668 129.84 88.8627C129.851 88.8684 129.885 88.8712 129.924 88.8965C130.059 88.9867 130.059 89.1981 130.062 89.215C130.079 89.4208 133.056 91.6164 143.112 89.0318V89.0346Z" fill="white"/>
<path d="M134.753 90.568C134.373 90.568 134.003 90.5567 133.648 90.5342C131.314 90.3876 130.313 89.7929 130.062 89.6153C129.873 89.4828 129.789 89.3701 129.78 89.2433C129.78 89.1841 129.769 89.1531 129.763 89.139C129.744 89.1333 129.73 89.1277 129.721 89.1221C129.118 88.8374 128.574 88.4879 128.103 88.0848C127.551 87.6536 127.142 87.1378 126.865 86.5121C126.13 84.8351 126.685 82.8593 128.188 81.8108C128.799 81.4443 129.515 81.185 130.46 80.9877C130.471 80.9877 130.482 80.9849 130.494 80.9821L130.75 80.9596C130.838 80.9567 130.914 80.9398 130.981 80.9286C131.06 80.9145 131.136 80.9004 131.213 80.8975C134.39 80.5762 137.922 81.9432 138.928 82.3688C139.019 82.4055 139.109 82.4196 139.205 82.4167C140.823 82.3012 146.298 81.9094 148.849 81.6952C151.702 81.4584 154.34 82.2645 155.121 83.6146C155.248 83.8345 155.259 84.0797 155.155 84.3277C154.27 86.4332 143.295 89.2743 143.182 89.3053C139.929 90.1424 137.099 90.5623 134.753 90.5623V90.568ZM130.333 89.1108C130.654 89.356 133.555 91.2021 143.041 88.7641C146.568 87.8594 154.039 85.5312 154.634 84.1163C154.679 84.012 154.659 83.9529 154.631 83.9049C154.064 82.9269 151.862 82.0193 148.894 82.2645C146.34 82.4788 140.859 82.8705 139.241 82.9861C139.058 83.0002 138.875 82.9692 138.706 82.8959C138.009 82.6028 134.381 81.1484 131.255 81.4669C131.204 81.4725 131.148 81.4782 131.08 81.4894C130.993 81.5064 130.891 81.5233 130.781 81.5289L130.553 81.5486C129.682 81.7318 129.025 81.9658 128.489 82.2871C127.223 83.1693 126.75 84.8576 127.379 86.2866C127.618 86.8221 127.971 87.2703 128.458 87.648C128.895 88.0228 129.391 88.3413 129.941 88.6034C129.972 88.6119 130.023 88.6316 130.076 88.6655C130.215 88.7585 130.305 88.9135 130.333 89.108V89.1108Z" fill="#27313A"/>
<path d="M134.951 90.2804C132.434 93.1976 129.913 96.1148 127.396 99.0292C126.223 98.6628 124.447 97.9469 122.66 96.5094C120.193 94.5223 118.992 92.1942 118.459 90.9484C120.483 89.2883 122.513 87.6056 124.548 85.8976C125.374 85.2042 126.195 84.5137 127.012 83.8203" fill="white"/>
<path d="M127.396 99.311C127.368 99.311 127.339 99.3082 127.311 99.2997C125.541 98.7473 123.914 97.882 122.482 96.7292C120.63 95.2382 119.147 93.2765 118.2 91.0583C118.152 90.9427 118.183 90.8103 118.282 90.7285C120.306 89.0684 122.355 87.3716 124.368 85.6805C125.194 84.9872 126.014 84.2966 126.832 83.6032C126.95 83.5018 127.128 83.5187 127.229 83.6371C127.331 83.7554 127.314 83.933 127.196 84.0345C126.378 84.7278 125.555 85.4184 124.729 86.1117C122.767 87.7578 120.774 89.4094 118.803 91.0273C119.719 93.082 121.112 94.8972 122.837 96.2867C124.168 97.3577 125.668 98.1695 127.303 98.7022L134.737 90.0944C134.838 89.976 135.016 89.9647 135.134 90.0662C135.253 90.1676 135.264 90.3452 135.162 90.4636L127.607 99.2123C127.554 99.2744 127.475 99.311 127.393 99.311H127.396Z" fill="#27313A"/>
<path d="M139.222 82.7015C142.551 82.4929 144.897 81.7065 146.484 80.9681C146.997 80.7285 149.128 79.7927 150.588 80.1676C151.124 80.3057 151.626 80.6919 152.302 81.4585C152.339 81.5008 152.359 81.5402 152.362 81.591C152.381 82.0532 150.555 82.4112 147.634 83.1806C146.613 83.4484 145.773 83.6852 145.198 83.8515" fill="white"/>
<path d="M145.198 84.1361C145.077 84.1361 144.964 84.0544 144.928 83.9332C144.885 83.7838 144.97 83.6288 145.119 83.5837C145.914 83.3554 146.735 83.1299 147.561 82.9129C148.107 82.7691 148.618 82.6395 149.083 82.5211C150.461 82.1688 151.769 81.8362 152.049 81.6023C151.42 80.8976 150.974 80.5622 150.515 80.4438C149.184 80.1028 147.18 80.9568 146.599 81.2274C144.454 82.2223 141.979 82.8142 139.239 82.9862C139.081 82.9946 138.948 82.8791 138.94 82.7212C138.931 82.5634 139.047 82.4309 139.205 82.4225C141.874 82.2562 144.285 81.6812 146.365 80.7172C147.166 80.3452 149.19 79.5222 150.659 79.8999C151.248 80.0521 151.786 80.4495 152.517 81.2781C152.598 81.374 152.641 81.4726 152.646 81.5882C152.672 82.1913 151.733 82.4309 149.227 83.0707C148.762 83.1891 148.254 83.3188 147.707 83.4625C146.884 83.6795 146.066 83.905 145.277 84.1305C145.252 84.1389 145.224 84.1418 145.198 84.1418V84.1361Z" fill="#27313A"/>
<path d="M78.3376 61.9117C78.3376 61.9117 82.1378 61.7877 85.7519 69.5782C87.7732 73.9948 96.1064 97.4254 98.6774 103.807C98.6774 103.807 108.663 96.3854 113.258 93.44C117.058 90.9878 118.955 89.2065 118.955 89.2065C118.955 89.2065 122.386 85.7707 123.734 86.5684L132.005 93.4372C132.005 93.4372 133.29 94.7252 131.943 96.1965C131.266 96.9237 119.206 110.117 110.845 117.93C107.569 120.991 103.275 122.73 98.793 122.812C91.4549 122.945 84.7511 118.646 81.8361 111.91C75.9837 98.3893 69.6971 77.7942 69.6971 77.7942" fill="white"/>
<path d="M98.4575 123.102C91.1025 123.102 84.503 118.784 81.5768 112.028C75.7863 98.6459 69.4913 78.0903 69.4293 77.8845C69.3842 77.7351 69.4687 77.5773 69.6153 77.5322C69.7647 77.4843 69.9226 77.5717 69.9677 77.7182C70.0297 77.924 76.3163 98.4515 82.0955 111.803C84.9738 118.455 91.531 122.66 98.7874 122.536C103.208 122.457 107.422 120.749 110.653 117.73C115.629 113.08 122.992 105.501 131.39 96.3883C131.568 96.1938 131.686 96.067 131.74 96.0106C132.862 94.7845 131.917 93.7529 131.807 93.6402L123.576 86.8052C122.716 86.3402 120.415 88.1497 119.158 89.4096C119.133 89.4349 117.19 91.2416 113.413 93.6797C108.877 96.5856 98.9481 103.962 98.8466 104.035C98.7761 104.089 98.6859 104.103 98.6013 104.08C98.5167 104.058 98.4491 103.996 98.4152 103.914C97.3073 101.171 95.1507 95.3116 92.8673 89.1108C89.8085 80.8017 86.6427 72.208 85.4925 69.6995C82.0165 62.2106 78.3686 62.1824 78.3433 62.1965C78.1882 62.2078 78.0585 62.0781 78.0557 61.9231C78.0529 61.7681 78.1713 61.6384 78.3263 61.6356C78.4898 61.63 82.352 61.5962 86.0056 69.4655C87.1642 71.9966 90.3329 80.5988 93.3972 88.9191C95.5905 94.8719 97.6654 100.509 98.8043 103.367C100.493 102.118 108.998 95.8415 113.106 93.2061C116.835 90.7991 118.744 89.0234 118.764 89.0065C119.124 88.6457 122.386 85.4467 123.877 86.3317C123.891 86.3402 123.903 86.3486 123.914 86.3571L132.185 93.2259C132.715 93.7558 133.361 95.072 132.151 96.3939C132.098 96.4503 131.979 96.5799 131.805 96.7716C123.401 105.895 116.026 113.486 111.039 118.145C107.707 121.259 103.36 123.021 98.7986 123.102C98.6859 123.102 98.5703 123.105 98.4604 123.105L98.4575 123.102Z" fill="#27313A"/>
<path d="M53.8312 0.0193836C43.9051 0.633826 37.9653 15.9075 42.4984 20.1382C43.4174 20.9978 44.4576 21.4262 45.5627 21.5502C49.9126 22.0407 54.9983 18.0552 54.9983 18.0552L59.6554 9.59116C59.6554 9.59116 60.5124 7.50544 60.5124 5.29852C60.5124 2.59835 59.2861 -0.282201 53.834 0.0222019L53.8312 0.0193836Z" fill="#27313A"/>
<path d="M45.5628 21.5503C49.9127 22.0407 54.9983 18.0553 54.9983 18.0553L59.6555 9.59123C59.6555 9.59123 60.5125 7.5055 60.5125 5.29858C57.3269 6.58666 48.9344 11.0033 45.5628 21.5531V21.5503Z" fill="#FDA002"/>
<path d="M52.7289 11.8571C46.3577 19.2191 47.522 22.6521 44.2744 25.9667C38.515 31.9167 39.9865 38.8475 44.5817 40.75C48.2578 42.2833 47.2767 42.7737 47.0315 48.112C46.6029 57.805 57.9357 54.7976 62.9594 51.4238C67.983 48.05 73.0687 57.8022 77.6018 58.8451C82.1349 59.8879 84.2802 55.102 82.4422 51.1786C80.6661 47.1904 89.4871 49.2761 89.7944 41.9169C89.9776 37.5622 86.0563 34.9241 84.097 31.5503C82.1377 28.2385 83.1159 25.4763 83.24 20.9385C83.3612 15.5409 76.8688 9.52899 72.6402 7.26006C66.7595 3.64105 57.6905 6.15519 52.7289 11.8599V11.8571Z" fill="#27313A"/>
<path d="M86.9754 82.6451C84.5849 76.0807 83.1161 73.3214 79.8093 65.7141C76.3164 57.6164 73.6214 57.6164 69.4547 55.9619L56.6504 53.8762C46.0816 59.13 38.3234 63.572 35.9695 65.6521C35.9103 65.7028 34.5233 66.9317 32.6711 68.6313C30.788 70.3619 29.8464 71.2272 29.6519 71.4527C27.4671 73.9894 29.4827 78.2651 32.3272 89.1447C32.8431 91.1177 33.982 95.4159 35.0223 100.737C35.5748 103.559 36.1245 106.259 36.4938 108.773C38.2699 121.101 35.758 128.892 34.3485 138.83H84.2776C84.2776 138.83 85.4419 114.357 85.6871 106.442C85.8704 98.4684 89.4252 89.3279 86.9726 82.6423L86.9754 82.6451Z" fill="white"/>
<path d="M84.2803 139.115H34.3512C34.2695 139.115 34.1934 139.078 34.1398 139.019C34.0862 138.96 34.0609 138.875 34.0721 138.793C34.3907 136.55 34.7685 134.396 35.1321 132.316C36.3951 125.12 37.5847 118.322 36.2147 108.818C35.8989 106.662 35.4507 104.384 34.9771 101.975L34.7459 100.796C33.7479 95.6836 32.6457 91.4755 32.1157 89.4546L32.0537 89.2207C31.4335 86.8559 30.8584 84.8125 30.3509 83.0086C28.4819 76.3907 27.6305 73.3692 29.4375 71.2722C29.6433 71.0355 30.5285 70.2181 32.4709 68.4339C34.3484 66.709 35.7664 65.4547 35.7805 65.4435C38.188 63.3183 46.1351 58.7889 56.5235 53.6281C56.577 53.6028 56.6362 53.5915 56.6954 53.6028L69.4998 55.6885C69.5195 55.6913 69.5392 55.6969 69.559 55.7054C70.0777 55.9111 70.5739 56.0915 71.0559 56.2663C74.4868 57.5149 76.9647 58.4168 80.0686 65.6069C81.0524 67.8702 81.8784 69.7136 82.6058 71.3399C84.3198 75.1674 85.5602 77.9352 87.2404 82.552C88.8303 86.8869 87.9226 92.307 87.0459 97.5467C86.5497 100.517 86.0366 103.587 85.969 106.456C85.7265 114.283 84.5707 138.604 84.5594 138.85C84.551 138.999 84.4269 139.117 84.2775 139.117L84.2803 139.115ZM34.6754 139.115H84.0125C84.1394 136.423 85.1796 113.812 85.408 106.436C85.4756 103.53 85.9915 100.441 86.4905 97.4508C87.3954 92.0449 88.2468 86.9377 86.7104 82.7409C85.0358 78.1438 83.8011 75.3845 82.0899 71.5653C81.3597 69.939 80.5337 68.0929 79.5499 65.8268C76.5447 58.8565 74.1597 57.9912 70.8614 56.7905C70.385 56.6186 69.8944 56.4382 69.3786 56.2353L56.6954 54.1693C46.3888 59.2934 38.5235 63.7721 36.1555 65.8634C36.1414 65.8747 34.729 67.1233 32.8627 68.8398C31.0472 70.5084 30.0493 71.4244 29.866 71.6386C28.2563 73.5073 29.0823 76.4386 30.895 82.8564C31.4053 84.6603 31.9804 86.7066 32.6006 89.077L32.6626 89.3109C33.1926 91.3374 34.2977 95.5568 35.3013 100.687L35.5324 101.865C36.0089 104.283 36.4571 106.566 36.7728 108.736C38.157 118.331 36.9561 125.171 35.6875 132.415C35.3407 134.391 34.9827 136.431 34.6754 138.554L34.6754 139.115Z" fill="#27313A"/>
<path d="M60.0812 39.8905L60.3265 39.2169L60.4477 38.8477L62.9595 40.9954L72.6403 49.2143L71.414 54.1214L70.0044 60.1953C70.0044 60.1953 61.1835 65.1644 54.9955 54.1834L60.0812 39.8905Z" fill="white"/>
<path d="M70.0044 60.1332C69.5928 63.3661 69.4632 67.3318 69.9932 71.4327C70.0242 71.6808 69.7817 71.8724 69.5506 71.7766C61.798 68.6226 54.9955 54.1804 54.9955 54.1804L70.0044 60.1304V60.1332Z" fill="white"/>
<path d="M60.3264 39.2761L62.9595 40.9926L72.6403 49.2115L71.6592 53.1377C65.0428 52.1569 60.7549 42.6499 60.0812 39.9498L60.3264 39.2761Z" fill="#27313A"/>
<path d="M79.5017 35.2286C79.4397 35.5358 79.4397 35.8431 79.5017 36.1475C79.747 37.7428 81.2157 38.9068 82.8705 38.6616C84.4633 38.4164 85.6276 36.9451 85.3824 35.2878C85.3203 34.8594 85.1371 34.4902 84.9539 34.1238C84.4041 33.2641 83.4231 32.7117 82.38 32.7117C82.1968 32.8357 82.1348 33.3853 82.442 33.5713C83.237 33.5713 83.9728 33.9997 84.3421 34.6762C84.4633 34.8594 84.5253 35.1666 84.5874 35.4118C84.7086 36.5759 83.9136 37.6808 82.7493 37.8668C81.585 37.9908 80.4828 37.1932 80.2995 36.0263C80.2375 35.8431 80.2375 35.5979 80.2995 35.4118L79.5045 35.2286H79.5017Z" fill="#FDA002"/>
<path d="M64.493 8.23819C70.8021 7.37854 76.1331 9.65028 79.7471 16.8883C79.7471 16.8883 82.9327 24.3715 83.178 32.6524C83.178 33.3881 83.178 34.1237 83.178 34.8593C82.9947 39.338 81.2187 44.2451 77.6638 47.3737C72.7614 51.7283 64.431 47.6189 59.0409 39.2168C58.4291 38.174 57.8145 37.1311 57.2028 36.0882C55.672 33.3289 54.3245 30.5667 53.4647 28.2978C48.8695 16.5811 58.9168 9.03584 64.493 8.23819Z" fill="white"/>
<path d="M76.1416 36.263C75.9415 36.263 75.809 36.2461 75.7892 36.2433C75.6342 36.2207 75.5271 36.0798 75.5496 35.9248C75.5722 35.7698 75.7131 35.6627 75.8682 35.6852C75.933 35.6937 77.43 35.8797 78.0727 34.7044C78.0473 34.166 76.4884 30.8373 74.9661 27.8722C74.8956 27.7341 74.9491 27.565 75.0873 27.4917C75.2254 27.4184 75.3946 27.4748 75.4679 27.6129C77.7457 32.0521 78.7972 34.5127 78.5942 34.9214C77.9797 36.1024 76.7534 36.2602 76.1444 36.2602L76.1416 36.263Z" fill="#27313A"/>
<path d="M61.1214 36.0261C61.1214 36.0261 60.5096 37.9878 59.0381 39.2167C58.4263 38.1739 57.8118 37.131 57.2 36.0881L61.1214 36.0261Z" fill="white"/>
<path d="M58.3052 25.7807L61.1243 35.9641C58.9789 37.6214 56.4671 37.9258 54.5078 37.069C54.2006 36.945 53.8961 36.7618 53.5888 36.5786C52.1172 35.5357 51.139 33.6332 51.3223 30.9978C51.8128 24.9239 58.3052 25.7835 58.3052 25.7835V25.7807Z" fill="white"/>
<path d="M55.7313 35.6569C55.7313 35.6569 54.9335 36.4545 54.567 37.1282C54.2598 37.0042 53.9553 36.8209 53.648 36.6377C53.8933 36.0853 54.567 35.3497 55.7313 35.6569Z" fill="white"/>
<path d="M57.8765 37.4975C57.8765 37.6807 57.9385 37.8668 57.8765 38.112C57.6932 39.338 56.591 40.1357 55.4267 39.9525C54.2004 39.7693 53.4054 38.6644 53.5886 37.4975C53.5886 37.2523 53.7098 37.0071 53.8339 36.7619C54.2624 36.0883 54.9361 35.657 55.7339 35.657C56.1004 35.4738 55.9792 34.9214 55.796 34.7974C54.7557 34.7974 53.7747 35.3498 53.2221 36.2095C52.9769 36.5787 52.8556 36.9451 52.7936 37.3735C52.5484 38.9688 53.6506 40.5021 55.3054 40.7473C56.8982 40.9925 58.429 39.8877 58.6743 38.2332C58.7363 37.9259 58.7363 37.6187 58.6743 37.3143L57.8765 37.4975Z" fill="#FDA002"/>
<path d="M71.3518 29.0954C71.7803 29.2786 72.0875 29.955 72.0875 30.6286C72.0875 31.3023 71.7211 31.6715 71.2897 31.4883C70.8612 31.3051 70.554 30.6286 70.554 29.955C70.554 29.2814 70.9204 28.9121 71.3489 29.0954H71.3518Z" fill="#27313A"/>
<path d="M79.7471 27.8073C80.1756 27.8693 80.4829 28.4218 80.5421 29.0954C80.6041 29.769 80.2968 30.2595 79.9303 30.2003C79.5018 30.1383 79.1945 29.5858 79.1325 28.9122C79.0705 28.2386 79.3778 27.7481 79.7443 27.8073H79.7471Z" fill="#27313A"/>
<path d="M80.4802 23.0834C80.3589 23.757 79.5611 24.0642 79.0114 23.6978C77.8471 23.0242 76.7448 22.717 76.0091 22.655C75.4593 22.593 75.09 22.0405 75.152 21.4909L75.2141 21.2457C75.2761 20.7553 75.6426 20.386 76.1331 20.386C77.8499 20.324 79.4427 21.4289 80.2377 22.0434C80.545 22.2886 80.6662 22.717 80.483 23.0862L80.4802 23.0834Z" fill="#27313A"/>
<path d="M66.3311 23.4499C66.5143 24.0643 67.3121 24.3095 67.8619 23.9403C68.9641 23.2047 70.0664 22.8354 70.8022 22.7142C71.3547 22.5902 71.7212 22.0406 71.5972 21.4882L71.5352 21.243C71.4731 20.7525 71.0446 20.4453 70.5541 20.4453C68.8401 20.5073 67.3065 21.6714 66.5707 22.3478C66.2634 22.6551 66.2042 23.0835 66.3255 23.4527L66.3311 23.4499Z" fill="#27313A"/>
<path d="M74.3907 41.6887C73.9143 41.6887 73.3448 41.5619 72.7331 41.1701C71.5491 40.3809 71.098 38.6221 71.0811 38.5488C71.0444 38.3966 71.1346 38.2444 71.2869 38.2078C71.4391 38.1683 71.5913 38.2614 71.628 38.4136C71.6308 38.4305 72.0452 40.037 73.0432 40.7022C74.3823 41.5619 75.4394 40.8572 75.4817 40.829C75.6086 40.7417 75.7862 40.7727 75.8736 40.8995C75.961 41.0263 75.9299 41.2011 75.8031 41.2913C75.7664 41.3167 75.2139 41.6943 74.3907 41.6943V41.6887Z" fill="#27313A"/>
<path d="M81.7684 16.7023C78.8281 12.0404 74.7235 4.98557 63.5119 6.27364C52.3003 7.56171 48.3198 19.2784 52.3003 28.1117C53.5267 26.7616 56.1597 25.964 57.6905 28.481C58.0569 29.0954 60.1403 33.9405 60.7548 34.5549C62.5929 36.5166 60.4475 28.2977 60.2643 24.3123C65.5332 23.6979 67.2472 17.8719 67.3712 15.541C69.6998 15.1718 71.3546 16.0314 73.3139 17.2575C78.0923 20.2621 84.6467 21.429 81.7684 16.7051V16.7023Z" fill="#27313A"/>
<path d="M80.9114 34.9834C78.0923 34.3098 76.3783 31.5476 77.0521 28.7263C77.7258 25.9049 80.4829 24.1884 83.302 24.862C86.1211 25.5357 87.8351 28.2978 87.1613 31.1192C86.4876 33.8786 83.6685 35.6571 80.9114 34.9834ZM83.0567 25.5977C80.6661 25.0452 78.2784 26.5165 77.7258 28.9095C77.1733 31.3024 78.6448 33.6954 81.0326 34.245C83.4232 34.7974 85.811 33.3261 86.3635 30.9332C86.9753 28.5402 85.4445 26.1473 83.0539 25.5977H83.0567Z" fill="#27313A"/>
<path d="M82.1038 35.1977C81.7006 35.1977 81.2947 35.1498 80.8944 35.0512C78.0161 34.3606 76.2992 31.5759 76.9843 28.7094C77.3141 27.3255 78.1514 26.1587 79.3354 25.423C80.5222 24.6874 81.9374 24.4619 83.3188 24.7945C86.1971 25.4822 87.9167 28.2697 87.2317 31.1362C86.899 32.4947 86.0561 33.6532 84.858 34.4001C84.0095 34.9271 83.0623 35.1977 82.1066 35.1977H82.1038ZM82.0671 24.786C81.1312 24.786 80.2178 25.0425 79.4087 25.5442C78.2557 26.2601 77.441 27.396 77.1196 28.7433C76.4543 31.5336 78.126 34.2451 80.9282 34.9159C82.2391 35.2372 83.6063 35.0117 84.7791 34.2817C85.9462 33.5545 86.7694 32.4271 87.0907 31.1052C87.7561 28.3148 86.0843 25.6034 83.2821 24.9326C82.8762 24.8368 82.4674 24.7888 82.0643 24.7888L82.0671 24.786ZM82.0502 34.4339C81.7063 34.4339 81.3595 34.3944 81.0184 34.3155C78.6053 33.7575 77.097 31.325 77.658 28.8955C77.9287 27.7201 78.6419 26.7252 79.6652 26.091C80.6858 25.4568 81.8951 25.2567 83.0735 25.5301C84.2576 25.8035 85.2978 26.5533 85.9265 27.5877C86.5467 28.608 86.7271 29.803 86.4339 30.953C86.1633 32.1255 85.45 33.1205 84.4267 33.7546C83.7022 34.2028 82.8847 34.4339 82.053 34.4339H82.0502ZM82.0389 25.5527C81.2327 25.5527 80.4405 25.7753 79.7385 26.2094C78.7462 26.8238 78.0555 27.7878 77.7934 28.9265C77.2493 31.2828 78.7096 33.6391 81.0494 34.1774C82.1883 34.4395 83.3611 34.2479 84.3506 33.6334C85.3429 33.019 86.0336 32.0551 86.2958 30.9164C86.5805 29.803 86.4057 28.6474 85.8052 27.6581C85.1963 26.6547 84.1871 25.9304 83.0397 25.6626C82.707 25.5865 82.3716 25.547 82.0389 25.547V25.5527Z" fill="#27313A"/>
<path d="M68.6568 36.5786C65.8377 35.905 64.1236 33.1428 64.7974 30.3215C65.4712 27.5001 68.2283 25.7836 71.0474 26.4572C73.8636 27.1309 75.5805 29.8931 74.9067 32.7144C74.2329 35.4738 71.4759 37.2523 68.6568 36.5786ZM70.8613 27.1929C68.4707 26.6405 66.0829 28.1117 65.5304 30.5047C64.9778 32.8976 66.4494 35.2906 68.84 35.8402C71.2306 36.3926 73.6184 34.9213 74.1709 32.5284C74.7235 30.1354 73.2519 27.7425 70.8641 27.1929H70.8613Z" fill="#27313A"/>
<path d="M69.8464 36.7901C69.4489 36.7901 69.0429 36.745 68.6398 36.6464C65.7615 35.9558 64.0419 33.1711 64.7269 30.3046C65.0567 28.9207 65.894 27.7538 67.078 27.0182C68.2649 26.2826 69.6801 26.0599 71.0614 26.3897C73.9397 27.0802 75.6566 29.8649 74.9743 32.7314C74.3823 35.1553 72.2144 36.7901 69.8464 36.7901ZM68.6736 36.5111C71.3997 37.1622 74.1652 35.4541 74.839 32.6976C75.5043 29.9072 73.8326 27.1958 71.0304 26.525C69.6885 26.2036 68.31 26.4207 67.1541 27.1366C66.0011 27.8525 65.1864 28.9884 64.865 30.3356C64.1997 33.126 65.8715 35.8374 68.6736 36.5083V36.5111ZM69.8577 36.0291C69.5137 36.0291 69.1698 35.9896 68.8259 35.9107C66.4127 35.3526 64.9045 32.9202 65.4655 30.4907C65.7361 29.3181 66.4494 28.3204 67.4727 27.6862C68.4932 27.052 69.7054 26.8547 70.881 27.1253C73.2941 27.6834 74.8024 30.1158 74.2414 32.5454C73.9707 33.7179 73.2575 34.7157 72.2342 35.3498C71.5097 35.798 70.6921 36.0291 69.8605 36.0291H69.8577ZM69.8464 27.1479C69.0401 27.1479 68.2451 27.3705 67.546 27.8046C66.5537 28.419 65.863 29.383 65.6008 30.5217C65.0567 32.878 66.517 35.2343 68.8569 35.7726C69.9958 36.0376 71.1685 35.8431 72.158 35.2286C73.1504 34.6142 73.841 33.6502 74.1032 32.5116C74.6473 30.1552 73.187 27.7989 70.8472 27.2606C70.5145 27.1845 70.179 27.145 69.8464 27.145V27.1479Z" fill="#27313A"/>
<path d="M60.143 29.4024C60.2642 29.5265 60.3882 29.5856 60.4502 29.6477C62.8408 29.8309 64.7381 31.243 64.7381 31.243C64.8001 31.243 64.8593 31.305 64.9213 31.305C65.0426 31.305 65.2286 31.243 65.2878 31.1218C65.4711 30.9977 65.409 30.6933 65.2258 30.5693C65.1046 30.5073 63.1425 28.974 60.5095 28.7908C60.2022 28.7288 59.9569 29.098 60.143 29.4053V29.4024Z" fill="#27313A"/>
<path d="M64.9213 31.3727C64.8734 31.3727 64.834 31.353 64.7973 31.3361C64.7748 31.3248 64.7494 31.3136 64.7381 31.3136H64.7155L64.6958 31.2995C64.6761 31.2854 62.7845 29.8986 60.4446 29.7183H60.4192L60.3995 29.6985C60.377 29.676 60.3431 29.6534 60.3065 29.6252C60.2473 29.583 60.1712 29.5294 60.095 29.4533L60.1176 29.4308H60.1007L60.0866 29.4392C60.0866 29.4392 60.0838 29.4336 60.0809 29.4308L60.0753 29.4223C59.9823 29.2532 59.9907 29.0531 60.1007 28.8981C60.2022 28.7543 60.3657 28.6867 60.5264 28.7205C61.6004 28.7938 63.2891 29.1545 65.1694 30.4454C65.2173 30.4793 65.2484 30.499 65.2596 30.5046C65.3921 30.592 65.4711 30.7442 65.4711 30.8964C65.4711 31.012 65.426 31.1078 65.3442 31.167C65.2653 31.3023 65.0708 31.3727 64.9213 31.3727ZM64.7635 31.1726C64.8001 31.1783 64.8311 31.1952 64.8621 31.2093C64.8847 31.2205 64.9072 31.2318 64.9213 31.2318C65.0341 31.2318 65.1835 31.1726 65.2258 31.0881L65.2343 31.0712L65.2512 31.0599C65.316 31.0148 65.3301 30.9443 65.3301 30.8936C65.3301 30.7893 65.2737 30.6794 65.1892 30.623C65.1835 30.623 65.1469 30.5948 65.0905 30.5582C63.2327 29.287 61.5723 28.9319 60.5066 28.8558C60.3882 28.8332 60.2839 28.8783 60.2134 28.977C60.1514 29.0644 60.1148 29.2109 60.1993 29.3575C60.2642 29.4223 60.329 29.4674 60.3854 29.5069C60.4192 29.5322 60.4531 29.5548 60.4784 29.5773C62.7309 29.7577 64.569 31.0345 64.7635 31.1726Z" fill="#27313A"/>
<path d="M59.9567 70.4379C55.2996 64.2427 50.7073 75.469 50.7073 75.469C44.6434 68.5382 44.7026 58.2928 44.7026 58.2928C49.3598 52.2808 55.7309 51.6692 55.7309 51.6692C59.7735 60.1333 59.9567 70.4407 59.9567 70.4407V70.4379Z" fill="white"/>
<path d="M50.7074 75.7508C50.6256 75.7508 50.5495 75.7169 50.496 75.6549C44.4293 68.7241 44.4208 58.397 44.4236 58.2927C44.4236 58.2307 44.4434 58.1715 44.4828 58.1208C49.1597 52.0835 55.6408 51.3929 55.7057 51.3873C55.8241 51.3788 55.9368 51.438 55.9876 51.5451C60.0104 59.9669 60.2416 70.3279 60.2416 70.4322C60.2416 70.5534 60.1655 70.6633 60.0527 70.7028C59.9371 70.7422 59.8103 70.7028 59.737 70.6069C58.77 69.3217 57.7467 68.7382 56.6924 68.8735C53.5885 69.2738 50.9978 75.5112 50.9724 75.5732C50.9357 75.6634 50.854 75.7282 50.7581 75.7451C50.7441 75.7451 50.7271 75.748 50.713 75.748L50.7074 75.7508ZM44.9875 58.3885C45.0015 59.4145 45.2947 68.5353 50.6285 74.9418C51.291 73.4706 53.6562 68.696 56.6162 68.3155C57.6819 68.1802 58.6967 68.617 59.6411 69.6204C59.5002 67.0415 58.8039 58.8761 55.5647 51.9735C54.4765 52.137 49.0526 53.1968 44.9875 58.3885Z" fill="#27313A"/>
<path d="M32.9417 92.9495C33.6774 95.5877 33.9227 96.9378 34.7177 99.8211C40.9676 90.4974 41.6414 88.6569 43.1101 81.54" fill="#27313A"/>
<path d="M70.6808 58.4138C69.6772 63.8113 69.9479 69.9839 70.0437 71.5792C70.055 71.754 70.2523 71.847 70.3961 71.7455C72.5104 70.1982 75.2788 66.8187 75.2788 66.8187C75.2788 66.8187 80.4236 61.4212 76.6263 58.4758C73.4407 56.0209 71.7239 53.6899 71.7239 53.6899L71.1742 55.7757L70.6836 58.4138H70.6808Z" fill="white"/>
<path d="M70.2608 72.0697C70.1875 72.0697 70.1142 72.0528 70.0466 72.0217C69.8802 71.9428 69.7703 71.7794 69.759 71.5961C69.6575 69.8515 69.401 63.7465 70.4018 58.3631L70.8923 55.7249L71.4477 53.6195C71.4758 53.5152 71.5604 53.4334 71.6675 53.4137C71.7747 53.394 71.8818 53.4363 71.9466 53.5236C71.9636 53.5462 73.6804 55.8546 76.7927 58.2532C77.7061 58.9606 78.2079 59.8625 78.2896 60.9308C78.5039 63.8029 75.6002 66.8835 75.479 67.0132C75.3803 67.1372 72.6796 70.4208 70.5596 71.971C70.4722 72.0358 70.3679 72.0668 70.2608 72.0668V72.0697ZM71.848 54.31L71.442 55.8489L70.9571 58.4674C69.9874 63.676 70.2129 69.5865 70.3172 71.4524C72.3667 69.9163 75.0307 66.675 75.0561 66.6411C75.0984 66.596 77.926 63.5943 77.7286 60.973C77.661 60.0683 77.2296 59.3045 76.4487 58.6985C74.061 56.8608 72.5076 55.1077 71.848 54.31Z" fill="#27313A"/>
<path d="M70.1849 72.0558C70.1426 72.0558 70.1031 72.0473 70.0608 72.0276C67.8929 70.9763 65.8576 69.66 64.0139 68.1126C62.0264 66.444 60.2673 64.5133 58.7872 62.3769C58.6999 62.2501 58.7309 62.0725 58.8577 61.9851C58.9846 61.8977 59.1622 61.9287 59.2496 62.0556C60.7014 64.1526 62.4267 66.0438 64.3747 67.6814C66.1817 69.1978 68.1777 70.4915 70.3033 71.5202C70.4442 71.5879 70.5006 71.757 70.4329 71.8979C70.385 71.9994 70.2835 72.0558 70.1792 72.0558H70.1849Z" fill="#27313A"/>
<path d="M35.9692 65.6519C34.929 66.5848 9.70934 89.2797 5.29462 94.8604C4.16135 96.2951 3.32125 97.7776 3.32125 97.7776C2.03011 100.066 1.09417 102.721 0.572632 105.957C-0.366128 111.8 1.19283 116.149 1.84123 117.367C1.87506 117.429 2.17106 117.989 2.58829 118.725C3.10982 119.65 3.68774 120.642 4.33049 121.718C8.18984 128.181 14.8204 137.404 26.0347 146.499C26.7564 147.037 27.4809 147.576 28.2026 148.114C29.6347 146.758 31.0725 145.383 32.5159 143.985C34.1989 142.356 35.8508 140.735 37.4747 139.12C36.4259 137.584 35.3801 136.031 34.337 134.461C29.0314 126.479 24.1262 118.556 19.5818 110.737L44.2095 84.9138C44.9255 84.1979 45.6388 83.482 46.3548 82.7661" fill="white"/>
<path d="M28.2027 148.396C28.1435 148.396 28.0843 148.376 28.0336 148.34L25.8657 146.725C16.9432 139.489 9.6192 131.127 4.08812 121.862C3.41718 120.741 2.84772 119.76 2.3431 118.863C1.93715 118.142 1.64114 117.589 1.59604 117.505C0.753126 115.926 -0.600042 111.476 0.293613 105.912C0.798232 102.769 1.7088 100.064 3.07606 97.6397C3.10989 97.5777 3.93871 96.1205 5.07481 94.6859C9.55154 89.0234 35.5211 65.6774 35.7804 65.4435C35.896 65.3392 36.0736 65.3505 36.1779 65.466C36.2822 65.5816 36.2738 65.7592 36.1554 65.8634C35.8932 66.0974 9.96313 89.4124 5.51459 95.0382C4.40668 96.439 3.57223 97.9047 3.56377 97.9188C2.23033 100.284 1.34232 102.927 0.848976 106.002C-0.0221262 111.42 1.2803 115.718 2.08938 117.234C2.1373 117.324 2.42767 117.871 2.83362 118.587C3.33542 119.481 3.90488 120.456 4.57301 121.575C10.0731 130.783 17.352 139.098 26.2124 146.282L28.1801 147.748C29.5615 146.443 30.9513 145.11 32.3214 143.785C33.9198 142.24 35.5295 140.659 37.1111 139.089C36.1018 137.607 35.0898 136.104 34.1031 134.622C28.9695 126.896 24.0022 118.911 19.3395 110.884C19.2774 110.777 19.2915 110.639 19.3789 110.549L44.0066 84.7252L46.1547 82.5746C46.2647 82.4647 46.4423 82.4647 46.5522 82.5746C46.6622 82.6845 46.6622 82.8621 46.5522 82.9748L44.4069 85.1226L19.9286 110.788C24.5548 118.745 29.4798 126.659 34.5682 134.315C35.5972 135.862 36.6515 137.429 37.7031 138.971C37.7792 139.084 37.7651 139.233 37.6692 139.329C36.0313 140.958 34.3624 142.596 32.7076 144.196C31.2812 145.578 29.8293 146.967 28.3916 148.326C28.338 148.376 28.2675 148.402 28.1971 148.402L28.2027 148.396Z" fill="#27313A"/>
<path d="M94.1444 107.341C94.057 107.341 93.9696 107.302 93.916 107.226C93.8258 107.099 93.854 106.924 93.978 106.831L98.6352 103.457C98.7621 103.364 98.9368 103.395 99.0299 103.519C99.1201 103.646 99.0919 103.821 98.9679 103.914L94.3107 107.288C94.26 107.324 94.2036 107.341 94.1444 107.341Z" fill="#27313A"/>
<path d="M141.305 85.2097C141.181 85.2097 141.068 85.1279 141.034 85.0039C140.992 84.8545 141.082 84.6995 141.232 84.6572L151.707 81.7739C151.857 81.7316 152.012 81.8218 152.054 81.9712C152.096 82.1205 152.006 82.2756 151.857 82.3178L141.381 85.2012C141.356 85.2068 141.33 85.2125 141.305 85.2125V85.2097Z" fill="#27313A"/>
<path d="M29.116 147.255C29.6685 147.824 34.1875 152.229 38.4472 156.268C38.4472 156.268 39.8229 157.864 42.3404 158.878C43.1692 159.211 43.8993 159.386 44.4068 159.482C44.6295 159.518 44.965 159.549 45.3427 159.465C46.1518 159.293 46.2279 158.828 46.8171 158.642C47.4486 158.441 47.739 158.861 50.0844 159.583C50.5496 159.727 50.8202 159.727 50.964 159.715C51.0063 159.713 51.0373 159.707 51.057 159.704C51.2938 159.67 51.8464 159.589 52.1255 159.234C52.4835 158.777 52.227 158.092 52.21 158.047C52.4102 158.16 53.053 158.484 53.7352 158.255C53.8564 158.216 54.0171 158.16 54.1496 158.022C54.4992 157.658 54.4456 156.917 54.0312 156.158C54.206 156.125 55.2293 155.913 55.359 155.324C55.4633 154.856 54.9474 154.386 54.6006 154.078C51.8097 151.601 50.0703 150.426 50.0703 150.426C47.4965 148.681 47.0595 148.19 47.13 148.066C47.2766 147.807 49.5009 149.276 51.4461 148.447C51.5419 148.405 52.585 147.951 52.5512 147.424C52.5286 147.102 52.117 146.888 51.9056 146.778C48.7115 145.118 47.5811 144.329 45.9375 143.98C45.1454 143.81 44.8268 143.754 44.8268 143.754C43.9275 143.585 43.6682 143.571 42.8957 143.343C40.0992 142.511 38.061 141.068 36.7473 139.938C34.2975 142.39 31.5658 144.805 29.1132 147.258L29.116 147.255Z" fill="white"/>
<path d="M50.8514 160C50.6089 160 50.3242 159.949 50.0028 159.851C49.0443 159.558 48.4326 159.315 47.9871 159.138C47.3388 158.881 47.1752 158.822 46.9046 158.909C46.7016 158.974 46.5776 159.078 46.4197 159.214C46.1998 159.4 45.9292 159.631 45.4048 159.741C45.0778 159.814 44.7339 159.82 44.3646 159.76C43.626 159.62 42.9128 159.411 42.239 159.14C39.7695 158.145 38.3853 156.623 38.2472 156.466C34.0608 152.497 29.4826 148.038 28.9159 147.452C28.8088 147.342 28.8088 147.164 28.9188 147.057C30.1479 145.828 31.4644 144.591 32.7415 143.393C34.0129 142.198 35.3294 140.961 36.5529 139.738C36.6572 139.633 36.8235 139.628 36.9363 139.723C38.7659 141.296 40.8013 142.424 42.9804 143.072C43.5386 143.238 43.8205 143.286 44.2913 143.371C44.4605 143.399 44.6493 143.433 44.8861 143.478C44.8974 143.478 45.216 143.537 46.0025 143.706C47.2739 143.977 48.238 144.498 49.9887 145.439C50.5694 145.752 51.2432 146.116 52.0438 146.53C52.2947 146.66 52.8106 146.928 52.8416 147.407C52.8867 148.089 51.8775 148.574 51.5674 148.709C50.2565 149.267 48.8413 148.861 47.9618 148.56C48.3649 148.884 49.0556 149.394 50.2396 150.197C50.2565 150.208 52.0241 151.412 54.7981 153.87C55.1674 154.199 55.7876 154.749 55.6466 155.386C55.5254 155.933 54.9109 156.212 54.4485 156.35C54.7699 157.111 54.7445 157.819 54.3639 158.216C54.1835 158.405 53.9665 158.478 53.8368 158.52C53.3857 158.673 52.9516 158.622 52.6048 158.515C52.6217 158.794 52.5766 159.126 52.3567 159.405C52.0072 159.851 51.3757 159.944 51.1051 159.98C51.0684 159.986 51.0374 159.989 50.9979 159.994C50.9528 159.997 50.9049 160 50.857 160H50.8514ZM47.1189 158.309C47.4233 158.309 47.7278 158.427 48.1958 158.613C48.6327 158.785 49.2332 159.025 50.1719 159.312C50.4877 159.411 50.747 159.45 50.9444 159.434C50.9726 159.434 50.9951 159.428 51.012 159.425C51.2263 159.394 51.6999 159.326 51.9113 159.056C52.1735 158.723 51.9564 158.151 51.9536 158.145C51.9113 158.036 51.9423 157.909 52.0326 157.83C52.1228 157.751 52.2524 157.74 52.3539 157.796C52.6133 157.943 53.1264 158.16 53.6507 157.985C53.7466 157.954 53.865 157.912 53.9524 157.824C54.2061 157.559 54.1384 156.931 53.7917 156.291C53.7494 156.212 53.7466 156.116 53.7832 156.037C53.8227 155.955 53.896 155.896 53.9834 155.879C54.488 155.781 55.0264 155.552 55.0913 155.262C55.1618 154.946 54.6797 154.518 54.4203 154.287C51.6773 151.854 49.9351 150.671 49.9182 150.657C46.6142 148.416 46.7355 148.199 46.8905 147.925C47.0512 147.641 47.3726 147.751 47.9026 147.937C48.7257 148.227 50.1043 148.712 51.3419 148.185C51.869 147.959 52.2863 147.624 52.275 147.438C52.2637 147.274 51.9141 147.094 51.7817 147.023C50.9754 146.604 50.3016 146.243 49.7181 145.927C48.0125 145.008 47.0738 144.504 45.8841 144.247C45.1088 144.081 44.7875 144.025 44.7846 144.025C44.5507 143.979 44.3618 143.946 44.1955 143.917C43.7049 143.83 43.4117 143.779 42.8226 143.605C40.6434 142.956 38.6108 141.851 36.7699 140.313C35.5944 141.482 34.3427 142.658 33.1305 143.796C31.9267 144.926 30.6863 146.093 29.5192 147.252C30.5792 148.309 34.7797 152.393 38.6475 156.06C38.6813 156.096 40.0345 157.638 42.4532 158.613C43.0932 158.87 43.7698 159.07 44.4661 159.2C44.7593 159.248 45.0299 159.242 45.2893 159.185C45.6783 159.104 45.8559 158.952 46.0617 158.78C46.2337 158.633 46.4282 158.467 46.7411 158.368C46.8764 158.326 47.0033 158.306 47.1273 158.306L47.1189 158.309Z" fill="#27313A"/>
<path d="M47.1865 158.833C47.147 158.833 47.1104 158.825 47.0709 158.808C46.7693 158.672 46.4733 158.54 46.1829 158.419C44.841 157.83 43.6429 156.998 42.6167 155.953L41.6921 155.003C41.5821 154.89 41.5849 154.712 41.6977 154.605C41.8105 154.498 41.9881 154.498 42.0952 154.611L43.017 155.558C43.9924 156.553 45.1314 157.342 46.4028 157.9C46.6903 158.021 46.992 158.157 47.2964 158.292C47.4374 158.357 47.5022 158.523 47.4374 158.664C47.3895 158.768 47.288 158.83 47.1808 158.83L47.1865 158.833Z" fill="#27313A"/>
<path d="M52.2581 158.354C52.2299 158.354 52.1989 158.348 52.1679 158.34C49.2022 157.353 46.6283 155.552 44.9904 154.213C44.8692 154.115 44.8523 153.937 44.951 153.816C45.0496 153.695 45.2273 153.678 45.3485 153.776C46.9497 155.084 49.4644 156.846 52.3483 157.804C52.4949 157.852 52.5766 158.013 52.5259 158.159C52.4864 158.278 52.3765 158.351 52.2581 158.351V158.354Z" fill="#27313A"/>
<path d="M54.0368 156.44C53.9945 156.44 53.9494 156.429 53.9072 156.409C52.678 155.772 51.463 155.068 50.2987 154.315C49.1767 153.588 48.0744 152.799 47.0229 151.967C46.9017 151.871 46.8791 151.694 46.9778 151.573C47.0737 151.451 47.2513 151.429 47.3725 151.527C48.4099 152.348 49.4981 153.128 50.606 153.844C51.7562 154.588 52.9543 155.285 54.1665 155.91C54.3046 155.981 54.3582 156.153 54.2877 156.291C54.237 156.387 54.1383 156.443 54.0368 156.443V156.44Z" fill="#27313A"/>
</svg>
