<svg width="25px" height="25px" viewBox="0 0 25 25" fill="none" xmlns="http://www.w3.org/2000/svg">
<rect width="25" height="25" fill="#5A9E15"/>
<path d="M 16.671875 18.496094 C 14.730469 18.496094 13.070312 16.953125 13.070312 14.894531 C 13.070312 12.835938 14.5 11.121094 16.730469 11.121094 C 18.957031 11.121094 20.332031 12.949219 20.332031 14.835938 C 20.332031 16.894531 18.902344 18.496094 16.671875 18.496094 Z M 16.84375 9.636719 C 15.015625 9.636719 14.042969 10.261719 13.355469 10.949219 L 13.1875 11.121094 L 13.1875 5.0625 L 11.640625 5.0625 L 11.640625 14.949219 C 11.640625 17.980469 13.984375 19.925781 16.671875 19.925781 C 19.644531 19.925781 21.875 17.636719 21.875 14.722656 C 21.929688 11.980469 19.53125 9.636719 16.84375 9.636719 Z M 16.84375 9.636719 " fill="white"/>
<path d="M 10.898438 11.636719 C 10.898438 11.636719 10.210938 11.519531 9.640625 11.40625 C 9.011719 11.292969 8.726562 11.238281 7.867188 10.890625 C 7.070312 10.550781 6.269531 9.75 5.582031 8.835938 C 4.839844 7.917969 3.125 6.492188 3.125 6.492188 C 3.125 6.492188 3.640625 6.550781 4.210938 6.664062 C 4.667969 6.777344 5.808594 7.121094 6.957031 7.75 C 7.238281 7.863281 7.355469 7.980469 7.640625 8.148438 C 8.039062 8.378906 8.441406 8.777344 8.839844 9.179688 C 9.296875 9.636719 9.699219 10.035156 10.042969 10.4375 C 9.640625 9.75 8.667969 7.234375 6.785156 5.175781 C 6.613281 4.949219 8.097656 5.921875 8.5 6.320312 C 9.640625 7.578125 9.8125 8.265625 10.210938 9.40625 Z M 10.898438 11.636719 " fill="white"/>
</svg>