<svg width="229" height="241" viewBox="0 0 229 241" fill="none" xmlns="http://www.w3.org/2000/svg">
<path d="M49.9629 101.11L80.2983 99.8247L106.144 235.41L78.5441 240.403L49.9629 101.11Z" fill="white"/>
<path d="M174.489 138.682C175.708 137.395 177.776 135.548 180.809 134.182C182.806 133.283 184.639 132.853 186.05 132.634L203.824 125.512C204.655 125.177 205.611 125.491 206.083 126.256C206.59 127.073 206.385 128.146 205.609 128.715L195.323 136.283C196.047 137.455 197.002 139.244 197.7 141.564C198.429 143.99 199.127 146.309 198.472 148.875C197.383 153.153 193.257 155.261 192.168 155.815C187.279 158.311 182.447 156.969 181.227 156.59C179.111 157.336 177 158.086 174.887 158.827L167.826 143.876C170.046 142.142 172.267 140.408 174.483 138.67L174.489 138.682Z" fill="white"/>
<path d="M174.563 159.311C174.482 159.255 174.415 159.18 174.369 159.085L167.308 144.134C167.189 143.89 167.262 143.603 167.472 143.433L174.096 138.254C175.955 136.303 178.135 134.758 180.569 133.657C182.259 132.896 184.049 132.365 185.896 132.077L203.612 124.978C204.71 124.541 205.957 124.953 206.575 125.953C207.235 127.024 206.962 128.436 205.952 129.179L196.087 136.436C197.006 138.004 197.732 139.668 198.254 141.402C198.98 143.812 199.721 146.302 199.028 149.023C198.501 151.094 196.928 154.038 192.425 156.332C187.801 158.69 183.192 157.776 181.236 157.201L175.072 159.378C174.893 159.443 174.697 159.412 174.55 159.309L174.563 159.311ZM168.549 144.057L175.19 158.118L181.038 156.052C181.156 156.014 181.279 156.009 181.402 156.045C183.096 156.571 187.506 157.55 191.91 155.306C195.216 153.618 197.24 151.41 197.92 148.736C198.537 146.327 197.867 144.098 197.158 141.734C196.614 139.93 195.836 138.2 194.842 136.588C194.684 136.33 194.749 135.996 194.99 135.82L205.276 128.252C205.807 127.863 205.947 127.117 205.603 126.561C205.272 126.036 204.621 125.821 204.048 126.047L186.274 133.17C186.235 133.185 186.192 133.197 186.143 133.205C184.381 133.474 182.665 133.979 181.055 134.705C178.747 135.747 176.682 137.217 174.915 139.077C174.899 139.101 174.873 139.118 174.855 139.134L168.557 144.056L168.549 144.057Z" fill="#27313B"/>
<path d="M112.314 109.305L123.7 155.786L167.111 142.479L175.409 160.055L129.043 181.905C121.799 185.319 113.28 184.626 106.68 180.078C101.684 176.64 98.2872 171.33 97.2607 165.353L88.4667 114.242C87.288 107.393 92.0702 100.951 98.9686 100.094C105.105 99.3307 110.841 103.291 112.312 109.297L112.314 109.305Z" fill="white"/>
<path d="M106.253 180.489C101.215 176.98 97.7351 171.507 96.691 165.454L87.9017 114.346C87.3037 110.874 88.133 107.412 90.2282 104.585C92.3234 101.759 95.4077 99.9663 98.9018 99.5336C105.327 98.7398 111.34 102.879 112.878 109.171L124.121 155.06L166.948 141.936C167.223 141.854 167.515 141.98 167.641 142.243L175.939 159.82C176.074 160.11 175.949 160.452 175.663 160.59L129.297 182.44C121.893 185.931 113.104 185.212 106.362 180.565C106.329 180.542 106.296 180.519 106.263 180.496L106.253 180.489ZM107.106 102.677C104.824 101.087 101.98 100.315 99.0373 100.682C95.8593 101.075 93.0566 102.706 91.1474 105.275C89.2381 107.844 88.487 111.002 89.0321 114.157L97.8214 165.265C98.8108 171.012 102.122 176.213 106.904 179.544C106.937 179.568 106.966 179.587 106.999 179.61C113.405 184.023 121.756 184.705 128.79 181.391L174.632 159.788L166.795 143.185L123.858 156.345C123.706 156.393 123.544 156.372 123.402 156.294C123.259 156.216 123.161 156.084 123.129 155.928L111.743 109.448C111.048 106.61 109.347 104.245 107.098 102.678L107.106 102.677Z" fill="#27313B"/>
<path d="M49.8765 20.2279C49.8765 20.2279 48.5204 0.713617 36.1774 0.454195C23.7478 0.281247 26.4542 14.561 26.4542 14.561C26.4542 14.561 19.2642 10.5025 21.2954 19.6284C23.3266 28.7543 40.6668 27.3995 40.6668 27.3995L49.888 20.2164L49.8765 20.2279Z" fill="#27313B"/>
<path d="M49.0282 15.8291C49.0282 15.8291 38.6298 18.5329 35.3291 27.4858C35.3291 27.4858 36.766 29.3421 40.3148 29.8494C40.3148 29.8494 41.8382 23.8481 49.7899 20.1355C49.8764 20.222 50.9729 17.3453 49.0282 15.8291Z" fill="#FFC12D"/>
<path d="M40.7417 30.4952L40.2281 30.426C36.4888 29.8898 34.9308 27.924 34.8673 27.8433L34.6711 27.5896L34.7808 27.2898C38.1508 18.1582 48.4395 15.391 48.878 15.2757L49.155 15.2065L49.3801 15.3795C50.9612 16.6132 50.8054 18.556 50.6611 19.3342C50.4418 20.5276 50.1303 20.6429 49.9745 20.689C42.4382 24.2287 40.8859 29.936 40.8744 29.9936L40.7475 30.4952H40.7417ZM35.9926 27.3533C36.4542 27.7914 37.6891 28.7772 39.9107 29.198C40.4704 27.6357 42.6575 22.8854 49.3743 19.6917C49.559 19.1959 49.9398 17.524 48.878 16.4691C47.2277 16.9764 38.9586 19.8588 35.9868 27.3533H35.9926Z" fill="#FFC12D"/>
<path d="M94.7713 86.3742C86.0578 88.8243 56.6284 91.5281 33.7196 81.7277C33.8062 77.7556 33.4715 73.282 32.6232 68.1282C30.592 55.8777 28.9821 21.4898 54.1875 17.61C79.393 13.7245 98.8337 30.2871 93.4268 53.0875C91.234 62.3748 92.7516 74.804 94.7828 86.3742H94.7713Z" fill="#27313B"/>
<path d="M81.7578 67.1944C81.7578 64.3177 84.1238 62.0405 87.0032 62.0405C89.8827 62.0405 92.162 64.4041 92.162 67.2809C92.162 70.1576 89.7961 72.4347 86.9167 72.4347C84.0372 72.4347 81.7578 70.0711 81.7578 67.1944ZM83.2812 67.1944C83.2812 69.2236 84.8912 70.9185 86.9224 70.9185C88.9536 70.9185 90.6501 69.3101 90.6501 67.2809C90.6501 65.2516 89.0401 63.5567 87.0089 63.5567C84.9777 63.4702 83.2812 65.1651 83.2812 67.1944Z" fill="white"/>
<path d="M46.5693 94.1576C46.5693 94.1576 52.1552 103.624 63.2345 104.805C77.3548 106.241 78.7166 100.159 78.7166 100.159C78.0415 98.3026 77.6203 96.4347 77.3606 94.417C77.274 93.656 77.1875 92.8951 77.1875 92.0534C77.101 89.8627 77.1009 87.4069 77.274 84.6166C77.274 83.9421 77.3606 83.2619 77.4472 82.5874V82.5009C67.6373 80.6446 59.524 76.5861 53.7651 69.6624L52.2417 68.8149L51.2319 68.3076L51.0588 68.8956L51.3069 70.6655C52.5764 79.0304 50.9722 86.1328 46.5693 94.1518V94.1634V94.1576Z" fill="white"/>
<path d="M60.7822 76.748C63.0616 81.3081 68.1396 89.3387 77.1877 91.9559C77.1012 89.7653 77.1011 87.3094 77.2742 84.5192C77.2742 83.8447 77.3608 83.1644 77.4474 82.4899C77.2743 82.4899 77.0261 82.5764 76.8588 82.5764C71.5384 83.0837 65.6929 80.6336 60.7938 76.748H60.7822Z" fill="#27313B"/>
<path d="M38.8839 54.6962C38.4627 59.9365 43.1079 66.5258 49.9632 66.8602H50.1363C50.2229 67.1946 50.3844 67.4482 50.471 67.7941C50.5575 67.9671 50.5576 68.042 50.6441 68.215C54.7816 77.2544 67.3842 82.8348 74.3261 83.1692C76.7786 83.2557 78.4636 82.7484 78.9772 82.6619C86.3345 81.2264 87.9387 71.3396 86.9289 63.8221C86.7558 62.7267 86.5942 61.7063 86.3403 60.6975C86.3403 60.611 86.3403 60.5245 86.2537 60.5245C86.2537 60.5245 88.9601 49.9632 89.6294 45.4089C90.8989 36.4559 85.9883 27.33 66.3687 25.0471C46.7491 22.8564 45.6526 34.761 44.1292 41.1832C43.8811 42.2785 44.1292 49.3751 45.1391 50.4705C43.5291 50.2975 39.132 50.8049 38.8839 54.6904H38.8723L38.8839 54.6962Z" fill="white"/>
<path d="M84.7994 57.3947C84.5513 58.8302 83.7031 59.937 82.9414 59.7583C82.1797 59.5854 81.7584 58.3228 82.0065 56.8816C82.2547 55.4461 83.1029 54.3393 83.8646 54.518C84.6263 54.6909 85.0476 55.9535 84.7994 57.3947Z" fill="#27313B"/>
<path d="M72.0233 55.3649C71.7752 56.8004 70.9269 57.9072 70.1652 57.7285C69.4035 57.5556 68.9823 56.2931 69.2304 54.8518C69.4785 53.4164 70.3268 52.3095 71.0885 52.4882C71.9368 52.6612 72.358 53.9237 72.0233 55.3649Z" fill="#27313B"/>
<path d="M77.6095 71.421C77.3613 71.421 77.1882 71.3345 76.9343 71.3345C74.5684 70.8272 73.1315 68.4578 73.045 68.3829C72.8719 68.0485 72.9585 67.5354 73.2932 67.374C73.6278 67.2011 74.1414 67.2875 74.303 67.6219C74.303 67.6219 75.4859 69.5647 77.1824 69.8991C78.954 70.2334 79.7272 69.311 79.8022 69.2246C80.0503 68.8902 80.5639 68.8902 80.812 69.1381C81.1467 69.386 81.1467 69.8126 80.9852 70.1469C80.8986 70.2334 79.8022 71.5824 77.6095 71.4152V71.421Z" fill="#27313B"/>
<path d="M50.7251 62.8016C50.477 62.7151 50.2173 62.5537 50.1365 62.2135C49.2883 57.2326 43.4543 54.9555 43.3678 54.9555C43.0331 54.7825 42.7791 54.3674 42.9465 54.0216C43.1196 53.6872 43.4543 53.4335 43.8813 53.6007C44.1294 53.6872 50.5635 56.218 51.5734 61.9656C51.6599 62.3865 51.4002 62.7266 50.9848 62.8131H50.7366L50.7251 62.8016Z" fill="#27313B"/>
<path d="M44.5393 59.8502C44.4527 59.8502 44.3662 59.7637 44.2912 59.7637C43.9565 59.5159 43.8699 59.0892 44.043 58.7549C44.1296 58.6684 45.4799 56.5642 48.3536 56.7256C48.7748 56.7256 49.0287 57.06 49.0287 57.4866C49.0287 57.9132 48.6941 58.1611 48.2671 58.1611C46.2359 57.9881 45.226 59.5159 45.226 59.5159C45.1395 59.8502 44.8047 59.9367 44.5508 59.8502H44.5393Z" fill="#27313B"/>
<path d="M49.9629 66.8608H50.136C50.2226 67.1952 50.3841 67.4488 50.4707 67.7947C50.5573 67.9677 50.5573 68.0426 50.6438 68.2155C51.4055 68.1291 52.4153 67.8812 53.3502 67.2067C53.858 66.8723 54.36 66.3592 54.787 65.6847C54.9601 65.3504 54.8736 64.9238 54.5389 64.6759C54.2042 64.428 53.7772 64.5894 53.5291 64.9238C53.1078 65.5983 52.4326 66.1056 51.8325 66.3592C51.4113 66.5322 50.9843 66.6936 50.563 66.6936C50.3899 66.8666 50.1418 66.8666 49.9744 66.8666L49.9629 66.855V66.8608Z" fill="#722324"/>
<path d="M51.7353 66.7738C51.2275 66.9467 50.6389 66.9467 50.2119 66.9467V67.0332C50.2119 69.0625 48.5153 70.6709 46.4841 70.6709C44.4529 70.6709 42.843 68.976 42.843 66.9467C42.843 65.0904 44.199 63.5742 45.9705 63.3091C46.3918 62.8017 46.4783 62.3002 45.9705 61.7871C43.3508 62.035 41.3196 64.2372 41.3196 66.941C41.3196 69.8177 43.5989 72.1813 46.4784 72.1813C49.3578 72.1813 51.7238 69.9041 51.7238 67.0274V66.768L51.7353 66.7738Z" fill="white"/>
<path d="M75.6653 74.6314C74.6554 74.3835 74.1419 73.6975 74.0553 73.6975C73.8822 73.5245 73.9688 73.1902 74.1419 73.023C74.315 72.85 74.6497 72.9365 74.817 73.1095C74.817 73.1959 75.5787 74.0434 76.8482 73.6975C77.0963 73.611 77.356 73.784 77.4368 74.0318C77.5233 74.2797 77.3503 74.5392 77.1021 74.6199C76.5943 74.7928 76.0923 74.7063 75.6653 74.6199V74.6314Z" fill="#27313B"/>
<path d="M46.1494 30.3625C50.46 26.1426 56.3805 22.7528 63.4897 23.2659C73.3861 24.0268 82.4342 27.751 87.4199 33.1527C89.7858 35.77 91.2226 38.8196 91.3092 42.1921C91.6438 52.4998 89.4511 50.3841 89.4511 50.3841C89.4511 50.3841 89.5376 50.1362 89.2779 47.934C89.1048 46.5793 88.8567 44.5615 88.3431 41.4312C87.1602 34.1731 63.6512 32.8126 65.0823 37.6321C65.0823 37.6321 65.1689 38.2201 65.0823 39.154C64.9958 40.1629 64.7476 41.5176 64.0725 42.8782C63.8994 42.8782 63.7379 42.9646 63.5647 42.9646C61.1989 43.299 59.2542 43.9735 57.6442 44.7345C57.4711 44.9074 53.8414 47.4382 54.2684 51.1566C54.6897 55.0422 56.04 60.1096 53.4202 59.1007C50.8004 58.0918 50.0445 54.9672 50.0445 54.9672C48.6884 53.1974 47.0034 51.416 44.4586 50.5744C43.4488 43.6507 43.3623 36.7154 46.1552 30.374V30.3625H46.1494Z" fill="#27313B"/>
<path d="M44.7128 34.7554C51.8162 32.4783 63.0629 37.9665 65.0075 39.1483C64.921 40.1572 64.6729 41.5119 63.9977 42.8725C63.8246 42.8725 63.663 42.9589 63.4899 42.9589C61.124 43.2933 59.1794 43.9678 57.5694 44.7288C57.3963 44.9017 53.7666 47.4325 54.1936 51.1509C54.6149 55.0365 57.8348 75.6577 53.7724 78.7823C45.5725 85.1179 48.8617 54.7886 48.8617 54.7886C47.5056 53.0187 46.8305 51.3239 44.2973 50.3957C41.6775 44.9017 42.6873 39.7479 44.7185 34.767V34.7554H44.7128Z" fill="#27313B"/>
<path d="M78.3712 64.5831C78.4577 64.5831 78.6193 64.5831 78.7059 64.4966L81.4122 62.9747C81.5853 62.8882 81.7469 62.7268 81.7469 62.4674C81.7469 62.208 81.6604 62.0465 81.4988 61.9601C79.381 60.6918 78.1981 58.749 77.6095 55.7974C77.5229 55.463 77.2748 55.29 76.9343 55.29C76.5996 55.3765 76.4265 55.6244 76.4265 55.9645C77.0151 58.8412 78.1231 60.8705 80.0677 62.3002L78.2096 63.3091C77.9614 63.482 77.7884 63.8164 77.9615 64.1565C77.9615 64.4909 78.1346 64.5774 78.3827 64.5774L78.3712 64.5889V64.5831Z" fill="#27313B"/>
<path d="M68.8964 63.9839C65.0071 63.6495 62.0411 60.2598 62.3007 56.3742C62.6354 52.4886 66.0284 49.5254 69.9177 49.7849C73.807 50.1192 76.7731 53.509 76.5134 57.3946C76.2653 61.2801 72.8723 64.2433 68.8964 63.9839ZM69.9063 50.886C66.6055 50.6381 63.7376 53.0766 63.4779 56.4664C63.2298 59.764 65.6707 62.6291 69.0637 62.8886C72.3644 63.1365 75.2324 60.6979 75.492 57.3081C75.6652 54.0106 73.2127 51.1454 69.9063 50.886Z" fill="#27313B"/>
<path d="M85.8097 65.252C81.9204 64.9176 78.9544 61.5278 79.2141 57.6422C79.5488 53.7567 82.9418 50.7935 86.8311 51.0529C90.7204 51.3873 93.6864 54.7771 93.4268 58.6626C93.1786 62.5482 89.699 65.5114 85.8097 65.252ZM86.7445 52.154C83.4438 51.9061 80.5759 54.3447 80.3162 57.7345C80.0681 61.032 82.509 63.8972 85.902 64.1566C89.2027 64.4045 92.0707 61.966 92.3304 58.5762C92.5785 55.2786 90.051 52.4135 86.7445 52.154Z" fill="#27313B"/>
<path d="M48.0193 53.8488L47.4307 53.0014C47.6788 52.8285 55.2958 48.0205 64.2574 52.154L63.7496 53.1628C55.4632 49.2773 48.1058 53.7508 48.0193 53.8373V53.8488Z" fill="#27313B"/>
<path d="M76.3395 57.3081L75.751 56.3742C76.5992 55.8669 78.6304 55.1924 80.2404 56.7085L79.4787 57.556C78.0418 56.2012 76.4376 57.2216 76.3511 57.3081H76.3395Z" fill="#27313B"/>
<path d="M72.2834 49.0409C73.5529 49.9749 75.2378 48.5336 74.4011 47.1846C73.9799 46.5101 73.2182 45.8299 72.0352 45.4148C66.7899 43.7199 62.739 46.8503 62.739 46.8503C62.739 46.8503 68.3248 47.0232 70.8523 48.205C71.4409 48.4529 71.9487 48.793 72.2892 49.0525V49.0409H72.2834Z" fill="#27313B"/>
<path d="M80.9964 50.3842C79.473 50.9722 78.2901 49.0295 79.473 48.0206C80.0616 47.4326 80.9964 47.0117 82.2659 46.9253C87.7652 46.6774 89.0347 50.2977 89.0347 50.2977C89.0347 50.2977 85.3935 49.4503 82.6064 49.9634C81.9313 50.1363 81.4234 50.2113 80.9964 50.3842Z" fill="#27313B"/>
<path d="M49.4499 86.4619C49.4499 86.4619 41.4116 88.4047 39.1323 100.321C39.1323 100.321 24.6715 104.627 20.7822 107.758C16.8929 110.882 12.2419 114.18 12.5823 119.253C13.5922 135.816 38.2841 172.475 40.8289 182.362C43.3736 192.249 28.0646 228.153 28.0646 228.153C39.1439 237.278 55.9706 241.325 78.5447 240.403C78.5447 240.403 74.6554 144.094 67.5519 128.465C60.4484 112.923 53.6797 101.255 49.4557 86.4734V86.4619H49.4499Z" fill="white"/>
<path fill-rule="evenodd" clip-rule="evenodd" d="M27.5344 227.927C27.4305 228.158 27.4998 228.434 27.696 228.596C27.8384 228.713 27.9813 228.829 28.1248 228.945L28.796 228.005C28.7858 227.997 28.7756 227.989 28.7653 227.98C30.5326 223.789 43.8352 191.732 41.3893 182.223C40.4256 178.464 36.3459 170.958 31.6199 162.27C23.6739 147.662 13.7833 129.473 13.1601 119.218C12.866 114.81 16.6521 111.796 20.3141 108.881L20.3213 108.875L21.1465 108.212C24.9031 105.192 39.1561 100.92 39.3004 100.879C39.5081 100.816 39.6639 100.649 39.7043 100.435C41.5682 90.6812 47.2752 87.8564 49.0641 87.1992C52.1282 97.7029 56.3752 106.477 61.2859 116.612C63.1498 120.457 65.0714 124.435 67.0276 128.707C73.6999 143.383 77.5799 231.259 77.9419 239.775L77.9492 239.778L78.0432 241C78.2204 240.993 78.3974 240.986 78.5742 240.979C78.8916 240.967 79.1398 240.696 79.1282 240.379C78.9724 236.442 75.1524 143.776 68.0835 128.222C66.205 124.109 64.3478 120.272 62.5527 116.564C62.4785 116.411 62.4044 116.257 62.3304 116.105C57.362 105.854 53.0745 97.0053 50.0277 86.3632C49.9989 86.2249 49.9296 86.0981 49.8142 86.0116C49.6757 85.9021 49.4968 85.8559 49.3237 85.9021C49.2372 85.9193 47.1482 86.444 44.7766 88.4847C42.653 90.318 39.8832 93.7654 38.6368 99.8705C36.3921 100.551 24.0722 104.379 20.4252 107.307L19.6 107.964C15.8838 110.922 11.6714 114.277 12.006 119.287C12.6523 129.795 22.6041 148.102 30.6015 162.813L30.6043 162.818L30.6245 162.855C35.3015 171.458 39.3421 178.89 40.2698 182.505C42.7061 191.984 28.0211 226.774 27.5451 227.902L27.5344 227.927Z" fill="#27313B"/>
<path d="M38.792 100.747C40.8232 112.738 48.8499 123.472 60.1081 128.032L38.792 100.747Z" fill="white"/>
<path d="M60.1071 128.603C60.0378 128.603 59.9628 128.591 59.8878 128.562C48.6469 124.008 40.349 113.389 38.2197 100.839C38.1678 100.528 38.3812 100.228 38.6928 100.176C39.0045 100.124 39.3045 100.332 39.3565 100.649C41.4165 112.807 49.449 123.092 60.3206 127.496C60.6149 127.617 60.7592 127.951 60.638 128.245C60.5457 128.47 60.3322 128.603 60.1014 128.603H60.1071Z" fill="#27313B"/>
<path d="M83.7032 122.948C83.6051 122.948 83.5013 122.925 83.4089 122.867C83.132 122.706 83.0454 122.354 83.2012 122.077C86.5481 116.387 87.3387 106.817 85.169 98.268C85.0939 97.9566 85.2786 97.6453 85.5844 97.5704C85.896 97.4954 86.2077 97.6799 86.2827 97.9855C88.5563 106.95 87.7311 116.641 84.188 122.665C84.0784 122.85 83.8879 122.948 83.6917 122.948H83.7032Z" fill="#27313B"/>
<path d="M37.8793 141.378C37.8793 141.378 37.6715 165.776 39.1891 177.184L32.53 165.095L37.8735 141.378H37.8793Z" fill="#27313B"/>
<path d="M76.5996 89.078C76.5996 89.078 78.6308 105.802 80.1542 116.623C81.7642 128.193 95.2093 161.318 96.8193 183.11C98.4293 204.901 103.675 235.409 103.675 235.409C103.675 235.409 121.598 234.141 133.277 222.398C133.277 222.398 117.795 189.273 114.667 176.013C111.54 162.748 121.177 145.678 118.73 138.42C116.364 131.07 108.833 128.372 108.245 121.771C107.656 115.182 110.697 104.787 105.792 101.663C100.882 98.5383 87.4423 99.2993 85.7516 97.9387C85.665 97.8523 81.6892 89.6603 76.6169 89.0723L76.6054 89.0838L76.5996 89.078Z" fill="white"/>
<path fill-rule="evenodd" clip-rule="evenodd" d="M103.103 235.507C103.15 235.784 103.392 235.986 103.669 235.986L103.675 235.974H103.715C103.732 235.973 103.907 235.96 104.22 235.927L104.089 234.616L104.116 234.59C103.32 229.851 98.8412 202.732 97.3907 183.064C96.3926 169.549 90.8671 151.712 86.4244 137.371L86.421 137.359C83.6858 128.539 81.3314 120.924 80.7198 116.542C79.4167 107.258 77.7173 93.4665 77.2757 89.8822L77.264 89.7873C79.8432 90.5025 82.6704 93.4483 85.1341 98.0252C85.1388 98.0338 85.1433 98.0421 85.1476 98.0502C85.251 98.2414 85.2697 98.2759 85.3361 98.3423L85.3363 98.3425C85.3478 98.354 85.365 98.3712 85.3823 98.3827C86.1671 99.011 88.2213 99.2013 92.0876 99.5068L92.1354 99.5106C96.8359 99.8847 102.669 100.349 105.481 102.141C108.574 104.107 108.199 109.544 107.829 114.801L107.829 114.806C107.662 117.226 107.489 119.726 107.674 121.817C107.997 125.495 110.311 127.974 112.763 130.597L112.779 130.614C114.903 132.892 117.099 135.246 118.182 138.599C119.218 141.687 117.923 146.776 116.422 152.677L116.41 152.723L116.401 152.759C114.499 160.233 112.345 168.698 114.102 176.14C117.033 188.558 130.877 218.599 132.579 222.271C132.57 222.28 132.562 222.288 132.553 222.297L132.561 222.295L133.1 223.372C133.297 223.183 133.493 222.991 133.687 222.796C133.86 222.623 133.906 222.363 133.802 222.144L133.801 222.142C133.587 221.682 118.308 188.896 115.233 175.869C113.536 168.692 115.66 160.356 117.535 153L117.547 152.954C119.094 146.874 120.429 141.629 119.284 138.23C118.127 134.641 115.839 132.189 113.628 129.819L113.611 129.802L113.605 129.795C111.299 127.324 109.116 124.985 108.828 121.708C108.649 119.701 108.81 117.361 108.984 114.876L108.985 114.86C109.371 109.273 109.77 103.494 106.104 101.161C103.044 99.2154 97.0372 98.7356 92.2048 98.3496L92.1857 98.3481L92.1602 98.346C89.5599 98.1391 86.8804 97.9259 86.1902 97.5294L86.1899 97.529C86.1784 97.5119 86.1669 97.4947 86.1555 97.4718C84.4647 94.3299 80.9852 88.9858 76.6804 88.49C76.5015 88.467 76.3284 88.5304 76.2072 88.6572L76.1957 88.6687C76.0687 88.7956 76.0053 88.9743 76.0284 89.1472C76.0307 89.1645 76.0545 89.3584 76.0969 89.7039C76.4646 92.701 78.2325 107.11 79.5829 116.704C80.2061 121.171 82.5778 128.833 85.3246 137.7L85.3647 137.829C89.7781 152.093 95.2585 169.805 96.2423 183.15C97.8207 204.53 102.958 234.658 103.101 235.492L103.103 235.507Z" fill="#27313B"/>
<path d="M83.7031 122.376C87.4309 116.041 87.7656 106.154 85.7343 98.1289L83.7031 122.376Z" fill="white"/>
<path d="M77.1015 189.85C75.8839 188.8 73.87 184.603 73.3045 182.96C71.983 179.121 72.0177 176.965 75.2203 174.469L79.3462 170.249L84.0434 159.128C85.6707 156.309 87.4653 154.701 88.2731 155.058C89.0348 155.392 89.0637 157.526 88.452 160.062C88.1519 161.227 87.8577 162.385 87.5576 163.55C92.7568 161.376 98.031 159.388 104.205 157.012C105.331 156.58 106.6 157.116 107.068 158.229C107.535 159.347 107.027 160.633 105.919 161.123L95.7574 165.654L112.809 161.694C113.952 161.428 115.1 162.091 115.441 163.21C115.793 164.368 115.146 165.596 113.992 165.971L97.7771 171.171L110.778 170.024C111.967 169.92 113.023 170.762 113.184 171.944C113.329 173.016 112.682 174.042 111.649 174.371L100.051 178.06L106.225 177.23C107.148 177.109 108.072 177.628 108.343 178.521C108.631 179.49 108.112 180.481 107.2 180.81L91.972 186.35L77.1131 189.844L77.1015 189.85Z" fill="white"/>
<path d="M77.102 190.426C76.9635 190.426 76.8307 190.38 76.7269 190.288C75.3304 189.088 73.2877 184.684 72.7626 183.151C71.418 179.242 71.3719 176.757 74.8399 174.042L78.8619 169.926L83.5187 158.903C83.5187 158.903 83.536 158.857 83.5475 158.84C84.9267 156.453 87.0503 153.882 88.5102 154.528C90.0855 155.219 89.295 159.042 89.018 160.195L88.4063 162.57C92.4283 160.909 96.4792 159.353 101.113 157.577L103.998 156.47C105.423 155.923 107.005 156.592 107.599 158.004C108.182 159.399 107.535 161.031 106.156 161.647L101.488 163.729L112.677 161.129C114.108 160.794 115.562 161.636 115.989 163.043C116.428 164.495 115.614 166.058 114.166 166.519L102.867 170.139L110.721 169.447C112.21 169.309 113.548 170.376 113.75 171.863C113.935 173.218 113.121 174.503 111.817 174.918L106.416 176.636C106.416 176.636 106.462 176.636 106.485 176.636C107.582 176.636 108.574 177.334 108.886 178.354C109.255 179.594 108.597 180.914 107.385 181.352L92.1571 186.892C92.1571 186.892 92.1167 186.909 92.0936 186.909L77.2347 190.403C77.1885 190.414 77.1481 190.42 77.102 190.42V190.426ZM84.5631 159.388L79.8775 170.474C79.8487 170.543 79.8083 170.6 79.7564 170.652L75.6305 174.872C75.6305 174.872 75.5901 174.907 75.5728 174.924C72.5664 177.265 72.601 179.15 73.8474 182.77C74.3841 184.338 76.1613 188.005 77.275 189.21L91.7936 185.797L106.987 180.274C107.628 180.043 107.974 179.346 107.778 178.689C107.599 178.095 106.953 177.714 106.295 177.807L100.12 178.637C99.8146 178.677 99.5434 178.481 99.4799 178.193C99.4164 177.899 99.5837 177.605 99.8665 177.518L111.465 173.829C112.233 173.587 112.712 172.826 112.602 172.03C112.481 171.154 111.69 170.52 110.813 170.606L97.8122 171.753C97.5237 171.782 97.2524 171.58 97.1947 171.292C97.137 171.004 97.3044 170.716 97.5814 170.629L113.796 165.429C114.645 165.158 115.129 164.242 114.87 163.383C114.616 162.558 113.762 162.062 112.919 162.258L95.8676 166.219C95.579 166.288 95.2847 166.121 95.1924 165.839C95.1001 165.556 95.2328 165.25 95.504 165.129L105.666 160.598C106.479 160.235 106.86 159.272 106.514 158.454C106.168 157.623 105.233 157.226 104.391 157.554L101.505 158.661C96.4735 160.592 92.1225 162.258 87.76 164.086C87.558 164.172 87.3272 164.132 87.1599 163.988C86.9925 163.844 86.9233 163.619 86.9752 163.411L87.8697 159.924C88.5679 157.041 88.2159 155.715 88.0139 155.588C87.7081 155.514 86.202 156.522 84.5401 159.393L84.5631 159.388Z" fill="#27313B"/>
<path d="M11.5317 118.606L0.850567 188.639C-0.44202 197.108 2.8587 205.628 9.51783 211.024C16.7829 216.91 26.7946 218.08 35.2253 214.028L82.9182 191.077L74.0721 173.471L31.3417 188.622L39.8128 122.567C40.7534 115.234 35.9293 108.397 28.6931 106.817C20.6375 105.059 12.7724 110.466 11.5317 118.606Z" fill="white"/>
<path d="M24.7689 216.979C19.1831 216.979 13.632 215.106 9.15407 211.474C2.36222 205.974 -1.0366 197.188 0.279072 188.552L10.9602 118.52C11.5834 114.421 13.8108 110.875 17.227 108.523C20.6431 106.177 24.7574 105.37 28.814 106.252C36.3965 107.906 41.3649 114.951 40.3839 122.636L32.034 187.762L73.8814 172.923C74.1527 172.825 74.4585 172.947 74.5913 173.206L83.4374 190.812C83.5066 190.95 83.5182 191.112 83.4663 191.256C83.4143 191.4 83.3105 191.521 83.172 191.59L35.479 214.541C32.0859 216.172 28.4217 216.973 24.7747 216.973L24.7689 216.979ZM12.1028 118.698L1.42161 188.731C0.163651 196.963 3.40668 205.334 9.88115 210.58C16.9384 216.299 26.7886 217.446 34.9769 213.509L82.1448 190.818L73.7892 174.192L31.5378 189.169C31.3473 189.238 31.1396 189.198 30.9837 189.077C30.8279 188.956 30.7472 188.754 30.776 188.552L39.2471 122.498C40.1588 115.407 35.5713 108.91 28.5775 107.382C24.8382 106.569 21.047 107.313 17.8906 109.475C14.7399 111.642 12.6856 114.911 12.1085 118.693L12.1028 118.698Z" fill="#27313B"/>
<path d="M76.5708 194.023C76.363 194.023 76.161 193.908 76.0572 193.706L67.0379 176.042C66.8937 175.76 67.0033 175.414 67.2919 175.27C67.5746 175.126 67.9208 175.235 68.0651 175.523L77.0843 193.187C77.2286 193.47 77.119 193.816 76.8305 193.96C76.7439 194 76.6573 194.023 76.5708 194.023Z" fill="#27313B"/>
<path d="M178.213 153.507C177.966 153.336 177.893 152.997 178.049 152.733C178.849 151.422 180.3 149.551 182.669 148.089C184.295 147.086 186.089 146.439 188.012 146.162C188.327 146.115 188.623 146.335 188.663 146.651C188.711 146.966 188.491 147.262 188.175 147.302C186.41 147.554 184.764 148.15 183.272 149.071C181.092 150.412 179.76 152.133 179.031 153.332C178.864 153.602 178.507 153.691 178.236 153.524C178.227 153.517 178.217 153.51 178.208 153.504L178.213 153.507Z" fill="#27313B"/>
<path d="M192.117 154.838C192.036 154.782 191.974 154.711 191.928 154.615C190.795 152.294 189.843 149.854 189.093 147.357C188.38 144.999 188.162 144.151 187.854 142.251C187.806 141.936 188.018 141.641 188.328 141.59C188.643 141.543 188.938 141.755 188.989 142.065C189.285 143.901 189.499 144.725 190.197 147.024C190.93 149.466 191.862 151.843 192.968 154.111C193.107 154.397 192.991 154.745 192.705 154.883C192.511 154.979 192.291 154.952 192.125 154.837L192.117 154.838Z" fill="#27313B"/>
<path d="M188.389 144.057C188.332 144.017 188.277 143.965 188.236 143.902C188.061 143.639 188.137 143.277 188.4 143.102C189.681 142.252 191.08 141.576 192.546 141.087C193.638 140.73 194.765 140.475 195.899 140.331C196.215 140.291 196.504 140.513 196.544 140.829C196.584 141.145 196.362 141.433 196.046 141.473C194.981 141.609 193.93 141.846 192.908 142.182C191.536 142.638 190.233 143.276 189.036 144.066C188.832 144.197 188.578 144.189 188.389 144.057Z" fill="#27313B"/>
<path d="M189.88 147.954C189.823 147.915 189.768 147.862 189.728 147.799C189.552 147.536 189.625 147.18 189.891 147C191.172 146.15 192.564 145.475 194.038 144.984C195.13 144.628 196.257 144.373 197.386 144.225C197.702 144.185 197.991 144.407 198.031 144.723C198.071 145.039 197.849 145.327 197.533 145.367C196.472 145.507 195.416 145.741 194.395 146.076C193.022 146.532 191.715 147.167 190.523 147.96C190.319 148.091 190.065 148.083 189.875 147.951L189.88 147.954Z" fill="#27313B"/>
<path d="M191.396 152.046C191.33 152 191.273 151.939 191.231 151.868C191.071 151.594 191.156 151.239 191.43 151.079C192.515 150.429 193.714 149.93 194.983 149.591C195.889 149.351 196.843 149.193 197.891 149.123C198.21 149.099 198.485 149.34 198.509 149.659C198.533 149.977 198.292 150.252 197.973 150.276C196.999 150.342 196.118 150.487 195.287 150.71C194.121 151.021 193.022 151.478 192.023 152.075C191.82 152.194 191.577 152.179 191.397 152.054L191.396 152.046Z" fill="#27313B"/>
<path d="M177.059 138.414C176.855 138.272 176.759 138.015 176.84 137.769C176.934 137.462 177.26 137.296 177.564 137.396L185.654 139.946C186.115 140.092 186.611 140.065 187.057 139.87C187.617 139.621 188.024 139.138 188.175 138.548C188.326 137.957 188.197 137.334 187.825 136.85L186.278 134.831C186.083 134.575 186.13 134.215 186.385 134.02C186.64 133.825 187.001 133.873 187.196 134.128L188.743 136.147C189.332 136.916 189.534 137.899 189.291 138.833C189.048 139.767 188.407 140.536 187.519 140.923C186.82 141.23 186.037 141.274 185.304 141.044L177.214 138.494C177.157 138.475 177.103 138.451 177.055 138.418L177.059 138.414Z" fill="#27313B"/>
<path d="M139.333 134.205C136.768 87.5329 180.029 119.207 194.319 89.5752" stroke="#27313B" stroke-width="1.16907" stroke-linecap="round" stroke-dasharray="1.95 1.95"/>
<rect x="145" y="33" width="83.2" height="47.595" fill="#FEF1E1" stroke="#FAC386" stroke-linejoin="round"/>
<path d="M227.89 80.2848L186.605 56.7998L145.315 80.2848" stroke="#FDDCB5" stroke-width="0.5"/>
<path d="M145 33L186.605 56.8L228.205 33" stroke="#FAC386" stroke-width="1.5" stroke-linejoin="round"/>
</svg>
