<svg width="25px" height="25px" viewBox="0 0 25 25" fill="none" xmlns="http://www.w3.org/2000/svg">
<rect width="25" height="25" fill="#005CB9"/>
<path d="M 11.824219 2.621094 C 13.84375 2.5 15.890625 3.046875 17.574219 4.15625 C 19.097656 5.152344 20.324219 6.597656 21.03125 8.265625 C 21.144531 8.5625 21.105469 8.917969 20.914062 9.171875 C 20.710938 9.472656 20.332031 9.632812 19.972656 9.582031 C 19.636719 9.539062 19.332031 9.3125 19.203125 9.003906 C 18.871094 8.234375 18.40625 7.523438 17.835938 6.90625 C 16.824219 5.816406 15.476562 5.035156 14.011719 4.714844 C 12.890625 4.484375 11.710938 4.492188 10.59375 4.746094 C 9.21875 5.066406 7.945312 5.796875 6.980469 6.820312 C 6.460938 7.375 6.003906 7.996094 5.679688 8.6875 C 5.582031 8.878906 5.527344 9.09375 5.378906 9.253906 C 5.105469 9.574219 4.617188 9.675781 4.234375 9.503906 C 3.871094 9.347656 3.621094 8.960938 3.644531 8.566406 C 3.648438 8.332031 3.777344 8.117188 3.875 7.90625 C 4.644531 6.296875 5.898438 4.917969 7.433594 3.992188 C 8.757812 3.1875 10.28125 2.707031 11.824219 2.621094 Z M 11.824219 2.621094 " fill="#F69F1A"/>
<path d="M 3.921875 11.152344 C 4.023438 11.015625 4.1875 10.917969 4.363281 10.921875 C 4.855469 10.921875 5.34375 10.914062 5.835938 10.925781 C 6.101562 10.929688 6.324219 11.144531 6.351562 11.402344 C 6.839844 13.386719 7.328125 15.375 7.816406 17.363281 C 7.96875 18.011719 8.152344 18.65625 8.261719 19.316406 C 8.367188 19.902344 8.386719 20.5 8.484375 21.089844 C 8.570312 20.441406 8.683594 19.792969 8.832031 19.15625 C 8.949219 18.621094 9.105469 18.097656 9.246094 17.566406 C 9.804688 15.5 10.367188 13.4375 10.925781 11.371094 C 10.988281 11.121094 11.226562 10.925781 11.484375 10.925781 C 12.027344 10.914062 12.570312 10.921875 13.113281 10.921875 C 13.226562 10.921875 13.335938 10.910156 13.445312 10.933594 C 13.644531 10.984375 13.816406 11.121094 13.902344 11.308594 C 13.941406 11.394531 13.960938 11.492188 13.988281 11.578125 C 14.363281 12.9375 14.738281 14.296875 15.109375 15.652344 C 15.234375 16.09375 15.347656 16.535156 15.480469 16.972656 C 15.765625 17.917969 16 18.878906 16.191406 19.84375 C 16.277344 20.261719 16.316406 20.683594 16.40625 21.101562 C 16.589844 19.722656 16.839844 18.355469 17.140625 17.003906 C 17.277344 16.382812 17.445312 15.769531 17.578125 15.152344 C 17.863281 13.890625 18.144531 12.625 18.433594 11.359375 C 18.476562 11.175781 18.621094 11.019531 18.800781 10.953125 C 18.90625 10.910156 19.019531 10.921875 19.128906 10.921875 C 19.5625 10.925781 19.996094 10.914062 20.425781 10.925781 C 20.613281 10.925781 20.785156 11.070312 20.8125 11.253906 C 20.835938 11.382812 20.78125 11.507812 20.75 11.628906 C 19.832031 14.988281 18.910156 18.347656 17.992188 21.710938 C 17.921875 21.941406 17.691406 22.113281 17.449219 22.121094 C 16.695312 22.144531 15.945312 22.121094 15.191406 22.132812 C 14.972656 22.121094 14.777344 21.960938 14.726562 21.753906 C 14.164062 19.714844 13.613281 17.667969 13.058594 15.628906 C 12.929688 15.152344 12.789062 14.679688 12.6875 14.195312 C 12.554688 13.566406 12.457031 12.929688 12.40625 12.289062 C 12.316406 13.039062 12.195312 13.785156 12.019531 14.519531 C 11.386719 16.875 10.746094 19.230469 10.105469 21.585938 C 10.070312 21.707031 10.050781 21.84375 9.949219 21.933594 C 9.789062 22.097656 9.542969 22.136719 9.324219 22.136719 C 8.621094 22.113281 7.917969 22.152344 7.214844 22.121094 C 7.0625 22.113281 6.917969 22.03125 6.832031 21.90625 C 6.769531 21.816406 6.757812 21.703125 6.730469 21.601562 C 5.8125 18.308594 4.90625 15.019531 3.996094 11.730469 C 3.933594 11.542969 3.929688 11.347656 3.921875 11.152344 Z M 3.921875 11.152344 " fill="white"/>
</svg>
