<svg width="132" height="109" viewBox="0 0 132 109" fill="none" xmlns="http://www.w3.org/2000/svg">
  <g id="Group 3044592">
    <path id="Vector" d="M125.01 107.471H130.5M95.0298 107.471H119.06M1.5 107.471H89.3199" stroke="#C9D3DB" stroke-width="1.2" stroke-linecap="round" stroke-linejoin="round" />
    <path id="Vector_2" opacity="0.2" d="M66 100.531C93.6142 100.531 116 78.1455 116 50.5312C116 22.917 93.6142 0.53125 66 0.53125C38.3858 0.53125 16 22.917 16 50.5312C16 78.1455 38.3858 100.531 66 100.531Z" fill="#BEC6D2" />
    <g id="Group 3044579">
      <rect id="Rectangle 1869" x="20.2715" y="42.0762" width="92.8164" height="28.9451" rx="6" fill="white" stroke="#C9D3DB" stroke-width="1.2" stroke-miterlimit="10" />
      <g id="Group 3044577">
        <circle id="Ellipse 95" cx="37.1152" cy="56.5488" r="6.45117" fill="#ABB8C4" fill-opacity="0.2" />
        <g id="Group 3044576">
          <rect id="Rectangle 1870" x="50.5664" y="52.6523" width="52.1289" height="1.89551" rx="0.947754" fill="#ABB8C4" fill-opacity="0.2" />
          <rect id="Rectangle 1871" x="50.5664" y="58.5469" width="36.5615" height="1.89551" rx="0.947754" fill="#ABB8C4" fill-opacity="0.2" />
        </g>
      </g>
    </g>
    <g id="Group 3044580">
      <rect id="Rectangle 1870_2" x="23.9844" y="8.23438" width="85.3926" height="26.6299" rx="6" fill="white" stroke="#C9D3DB" stroke-width="1.2" stroke-miterlimit="10" />
      <g id="Group 3044578">
        <circle id="Ellipse 95_2" cx="39.4801" cy="21.5485" r="5.93518" fill="#ABB8C4" fill-opacity="0.2" />
        <g id="Group 3044576_2">
          <rect id="Rectangle 1870_3" x="51.8555" y="17.9648" width="47.9594" height="1.7439" rx="0.871949" fill="#ABB8C4" fill-opacity="0.2" />
          <rect id="Rectangle 1871_2" x="51.8555" y="23.3887" width="33.6372" height="1.7439" rx="0.871949" fill="#ABB8C4" fill-opacity="0.2" />
        </g>
      </g>
    </g>
    <g id="Group 3044581">
      <path id="Rectangle 1868" d="M13.6914 68.4473C13.6914 67.3427 14.5868 66.4473 15.6914 66.4473H117.668C118.773 66.4473 119.668 67.3427 119.668 68.4473V81.5927C119.668 89.7262 113.074 96.3198 104.941 96.3198H28.4186C20.285 96.3198 13.6914 89.7262 13.6914 81.5927V68.4473Z" fill="white" stroke="#C9D3DB" stroke-width="1.2" stroke-miterlimit="10" />
      <path id="Vector 69" d="M57.0508 74.6367H76.3096" stroke="#C9D3DB" stroke-width="1.2" stroke-miterlimit="10" stroke-linecap="round" />
    </g>
  </g>
</svg>