<svg xmlns="http://www.w3.org/2000/svg" width="314" height="158" fill="none" viewBox="0 0 314 158"><mask id="fs-gxlxfgsl1a" style="mask-type:alpha" width="314" height="158" x="0" y="0" maskUnits="userSpaceOnUse"><path fill="#2C5CC5" d="M6.624.56h307.252v59.925a97.095 97.095 0 01-97.095 97.096H6.682a5.92 5.92 0 01-5.922-5.922V6.483A5.922 5.922 0 016.682.56h-.058z"/></mask><g clip-path="url(#clip0_10474:90407)" mask="url(#fs-gxlxfgsl1a)"><path fill="#2C5CC5" d="M6.622.56h307.252v59.925a97.096 97.096 0 01-97.096 97.095H6.68a5.924 5.924 0 01-5.922-5.922V6.483A5.922 5.922 0 016.68.56h-.058z"/><g opacity=".59"><path fill="#3871D6" d="M121.027-73.527L-92.766 193.617l40.423 32.351L161.45-41.177l-40.423-32.35zM175.881-28.352L-37.913 238.793l19.315 15.457L195.195-12.894l-19.314-15.458z" opacity=".59"/><path fill="#7BCAFF" d="M64.619 47.301c-1.05-4.19-1.224-8.83 1.65-12.248 3.983-4.744 11.314-4.179 17.432-3.197l15.953 2.55c5.449.878 10.956 1.755 16.45 1.34 18.17-1.374 32.75-16.335 50.678-19.625 11.336-2.055 22.903.762 34.366 1.905 15.607 1.558 32.046-.3 46.176-7.284 14.88-7.33 26.481-18.47 37.309-30.788 6.661-7.584 13.853-15.191 22.615-20.317 8.346-4.848 17.662-7.157 26.366-11.07 2.597 7.734-3.913 15.168-8.6 21.84-6.453 9.235-12.052 22.372-8.866 33.478 4.144 14.522 6.118 30.072 7.123 45.182.796 11.764.577 23.642 2.701 35.244 2.886 15.873 10.101 32.046 5.46 47.503-3.278 10.909-12.213 19.475-22.464 24.473-10.251 4.999-21.737 6.788-33.096 7.688-12.918 1.016-27.025.589-37.241-7.399-8.138-6.373-10.539-16.162-18.539-22.522a58.021 58.021 0 00-27.429-11.891c-14.833-2.228-29.113 2.471-43.866.578-11.059-1.42-21.934-6.119-29.449-14.373-7.515-8.253-11.186-19.624-16.969-29.471a83.513 83.513 0 00-18.47-21.033c-2.656-2.309-4.075-3.21-7.62-3.717-5.206-.727-8.75 2.055-10.77-3.798-.323-.97-.646-1.951-.9-3.048z" opacity=".4"/></g><path fill="#191919" d="M109.709 148.137H30.033a4.375 4.375 0 000 8.75h79.676a4.375 4.375 0 000-8.75z"/><path fill="#B6BDFF" d="M69.444 136.003a36.343 36.343 0 011.35-4.294 5.596 5.596 0 002.47.254.907.907 0 01.532 0c.404.185.312.762.288 1.154 0 1.778 1.432 3.325 2.806 4.237 1.558 1.027 3.463 1.224 5.218 1.801.29.085.565.222.808.404a.922.922 0 01.346.796h-6.823c-2.55 0-5.125.127-7.676 0 .069-.646-.093-1.281 0-1.962.167-.812.395-1.611.68-2.39zM54.402 140.356c0 .381-4.802.115-5.183 0-.38-.116-.52-.162-.496-.705.019-.526.096-1.049.23-1.558.38-1.492.847-2.961 1.397-4.398a.763.763 0 01.231-.335.655.655 0 01.335 0h3.625c-.147.877-.201 1.767-.162 2.655l.023 4.341z"/><path fill="#273139" d="M54.656 140.656h-5.945v-.15c0-.081-.531-1.974 1.581-7.088v-.127h4.353l.011 7.365zm-5.599-.439h5.16v-6.487h-3.613c-1.662 4.028-1.604 5.956-1.547 6.487zM83.516 140.655h-14.88v-.15s-.474-1.581 1.385-7.249v-.151h4.144v.197a6.118 6.118 0 004.19 4.617c1.155.37 2.02.589 2.725.774 1.674.427 2.378.611 2.413 1.743l.023.219zm-14.546-.439h14.084c-.092-.577-.543-.704-2.055-1.096a56.086 56.086 0 01-2.759-.774 6.594 6.594 0 01-4.479-4.802h-3.463c-1.408 4.456-1.385 6.188-1.328 6.672z"/><path fill="#273139" d="M49.046 137.631s4.317-2.528 5.495-2.713l-4.087-1.408s-1.085 3.024-1.408 4.121zM69.017 136.973s4.098-1.627 5.622-2.055l-4.537-1.512s-.958 3.186-1.085 3.567z"/><path fill="#BBC2FF" d="M91.504 41.748c-.7-.599-1.321-1.285-1.847-2.043a8.578 8.578 0 01-1.5-2.736 8.843 8.843 0 01.254-5.772c.46.393.85.862 1.154 1.386a14.13 14.13 0 011.94 9.165z"/><path fill="#fff" d="M67.84 47.162c-.111.378-.192.764-.243 1.154a5.647 5.647 0 00-2.447 0c-.289 0-2.309.427-2.309.75a10.09 10.09 0 00.22-3.716c-.174-.681-.555-1.316-.716-1.998a4.524 4.524 0 01.865-3.624 10.135 10.135 0 012.875-2.505 4.538 4.538 0 012.078-.843c.33-.033.662.053.935.242.358.417.653.884.877 1.386.366.469.6 1.026.681 1.616.26 1.741.26 3.511 0 5.252a2.69 2.69 0 01-.358 1.293 3.036 3.036 0 01-2.158.739c-.15.011-.243.115-.3.254zM79.833 55.474a.403.403 0 01.185-.207.357.357 0 01.22 0l2.031.646c.231-2.193.474-4.387.704-6.58a3.73 3.73 0 000-1.34 4.294 4.294 0 00-.6-.992 3.74 3.74 0 01-.508-2.482 1.224 1.224 0 01.889 1.074l.092-1.293c-.004-.287.068-.57.208-.82a1.074 1.074 0 011.305-.242c.417.232.776.556 1.05.946.45.524.805 1.122 1.05 1.767.132.42.213.853.243 1.292.34 2.11.548 4.238.623 6.373 0 .762-.161 1.477-.127 2.309v3.036a7.596 7.596 0 01-.738 3.636 3.117 3.117 0 01-3.706 1.385 22.497 22.497 0 01-3.382-1.57c-.797-.438-2.251-.785-2.078-1.94a8.459 8.459 0 011.085-2.308l1.454-2.69zM51.343 68.333a2.77 2.77 0 003.313 2.793 2.563 2.563 0 001.593-.97 4.12 4.12 0 00.543-1.616l.577-3.07a1.547 1.547 0 00-.07-1.074c-.198-.258-.48-.441-.796-.52a15.072 15.072 0 00-2.228-.588c-.19-.04-.387-.04-.577 0a1.57 1.57 0 00-.473.254 5.553 5.553 0 00-1.882 4.79zM57.6 134.977h-7.792s2.747-45.021 6.776-55.41l15.907 1.212s3.464 15.607 5.103 54.14H68.89l-5.195-36.41-6.095 36.468z"/><path fill="#273139" d="M77.813 135.138h-9.108v-.185L63.684 99.94l-5.888 35.198h-8.22v-.231c0-.45 2.794-45.23 6.789-55.515l.069-.15 16.23 1.328v.161c0 .15 3.464 16.07 5.103 54.176l.046.231zm-8.67-.439h8.278c-1.524-35.89-4.687-51.948-5.056-53.714l-15.63-1.281c-3.787 10.112-6.465 51.497-6.685 54.995h7.365l6.072-36.225h.427l5.23 36.225z"/><path fill="#273139" d="M63.557 99.294a51.835 51.835 0 00-1.501-7.538l.416-.139a51.956 51.956 0 011.523 7.573l-.438.104z"/><path fill="#273139" d="M66.604 92.576a18.204 18.204 0 01-2.02-.15 7.72 7.72 0 01-2.205-.496h-.15a.463.463 0 00-.173 0 12.628 12.628 0 01-3.844.138 4.697 4.697 0 01-.832-.15 1.83 1.83 0 01-.404-.15h-.103a3.116 3.116 0 01-.89-.358l.208-.392c.24.146.501.255.774.323a.668.668 0 01.196.07l.335.126c.25.062.505.104.762.127 1.238.148 2.492.106 3.717-.127a.738.738 0 01.566 0 7.285 7.285 0 002.1.462 7.723 7.723 0 004.237-.3l.196.392a5.6 5.6 0 01-2.47.485z"/><path fill="#191919" d="M59.69 91.756s3.024 5.184 2.227 17.409l1.778-10.655-1.478-6.846-2.528.092z"/><path fill="#273139" d="M73.38 86.838a6.292 6.292 0 01-2.412-3.463l.427-.139a5.772 5.772 0 002.309 3.302l-.324.3zM84.89 45.533a.23.23 0 01-.185-.254c0-.184.092-.357.139-.53.107-.272.15-.564.127-.855a.207.207 0 01.161-.265.23.23 0 01.266.173c.043.363 0 .73-.127 1.073a2.63 2.63 0 00-.127.474.208.208 0 01-.254.184zM85.802 46.457a.116.116 0 01-.081 0 .22.22 0 01-.116-.288c.162-.363.241-.758.231-1.155a.219.219 0 01.208-.23.243.243 0 01.23.218c.011.468-.08.933-.265 1.363a.22.22 0 01-.207.092zM82.823 47.013c-.38-1.478-1.154-4.918-1.385-6.303l.427-.081c.266 1.385 1.004 4.802 1.385 6.28l-.427.104zM84.716 43.468a18.012 18.012 0 01-.311-2.194c0-.288 0-.692-.139-1.477h.439c.08.796.115 1.154.139 1.489.053.725.153 1.446.3 2.159l-.428.023z"/><path fill="#fff" d="M77.72 37.5a47.332 47.332 0 008.347-4.676c.525-.357 1.03-.742 1.512-1.154.254-.22.566-.67.9-.797a8.97 8.97 0 00-.461 4.214c.18 1.376.652 2.699 1.385 3.878.381.6.889 1.155 1.247 1.732.202.396.425.782.67 1.154a30.994 30.994 0 00-11.452.843"/><path fill="#191919" d="M88.052 34.21a3.3 3.3 0 01.67.243c.274.134.533.296.774.485.474.374.834.874 1.038 1.443a2.955 2.955 0 01-.796 2.932s-.08.07-.104.15c-.023.08-.277-.37-.312-.427a3.945 3.945 0 01-.3-.462 6.07 6.07 0 01-.508-.981 7.874 7.874 0 01-.588-2.113 8.233 8.233 0 010-1.304c.043.009.085.02.126.034z"/><path fill="#BBC2FF" d="M77.86 39.797c.206.772.53 1.507.958 2.181.173.266.854 1.155 1.085.508a2.782 2.782 0 000-1.535 8.793 8.793 0 00-.589-1.443c-.208-.416-.82-2.078-1.42-1.94-.6.14-.15 1.802-.035 2.229z"/><path fill="#273139" d="M79.926 42.833l-.116-.416a28.654 28.654 0 016.269-.947 43.869 43.869 0 012.828-.069h2.124a10.39 10.39 0 01-2.967-4.513 8.9 8.9 0 01-.08-5.345l-.105.08c-.508.44-1.062.878-1.639 1.293a48.078 48.078 0 01-8.392 4.71l-.185-.404a47.075 47.075 0 008.312-4.617 18.255 18.255 0 001.616-1.27l.104-.08c.24-.194.467-.403.68-.624l.197.104.196.092a8.196 8.196 0 00-.277 6.026c.324.97.808 1.88 1.432 2.69a7.643 7.643 0 001.731 1.778.277.277 0 01.127.323.324.324 0 01-.3.242c-.503.03-1.008.03-1.512 0h-1.027c-.774 0-1.663 0-2.806.07a28.618 28.618 0 00-6.21.877z"/><path fill="#273139" d="M79.672 42.926a.75.75 0 01-.52-.254 2.122 2.122 0 01-.311-.37 8.797 8.797 0 01-1.432-3.462 1.732 1.732 0 01.162-1.444.474.474 0 01.404-.184c.3 0 .52.323.67.53v.07c.55.807.97 1.695 1.246 2.632.198.52.303 1.071.312 1.628a.958.958 0 01-.208.704.473.473 0 01-.323.15zm-1.743-5.31c-.208.242-.104.785 0 1.073.218 1.18.682 2.301 1.362 3.29.074.105.16.202.254.289.127.127.22.162.265.115.047-.046 0-.115 0-.392v-.058a4.365 4.365 0 00-.277-1.385 9.075 9.075 0 00-1.154-2.54v-.069c-.07-.08-.254-.346-.346-.346l-.104.023zM91.504 41.736a.22.22 0 01-.184-.243 14.43 14.43 0 00-.312-5.553 10.644 10.644 0 00-2.655-4.929.225.225 0 01.323-.311 11.197 11.197 0 012.759 5.137c.484 1.884.594 3.845.323 5.771a.231.231 0 01-.254.128zM54.033 71.416a3.279 3.279 0 01-1.916-.728c-1.282-1.062-1.351-3.047-.197-6.049a.22.22 0 01.277-.127.219.219 0 01.127.289c-1.05 2.759-1.027 4.618.081 5.553a2.552 2.552 0 001.87.6 2.85 2.85 0 001.916-1.154.21.21 0 01.223-.094.208.208 0 01.078.036.22.22 0 010 .311 3.3 3.3 0 01-2.194 1.34l-.265.023zM62.852 49.31a.22.22 0 01-.184-.243v-.347c0-.38.092-.773.184-1.327a.209.209 0 01.243-.185.207.207 0 01.184.254c-.08.543-.138.935-.184 1.316v.346a.23.23 0 01-.243.185zM67.62 48.559a.22.22 0 01-.196-.231c.024-.388.075-.774.15-1.155a.219.219 0 01.356-.056.22.22 0 01.06.126c-.08.38-.13.766-.15 1.154a.22.22 0 01-.22.162z"/><path fill="#273139" d="M67.562 47.242a3.379 3.379 0 01-.97-.115.22.22 0 01-.15-.266.22.22 0 01.278-.15 6.024 6.024 0 002.943-.254c.439-.196.705-.715.843-1.616a17.73 17.73 0 000-4.756 4.306 4.306 0 00-.392-1.512 1.606 1.606 0 00-.97-.912.22.22 0 01-.185-.254.23.23 0 01.254-.185 2.113 2.113 0 011.409 1.155 5 5 0 01.438 1.662c.178 1.63.136 3.276-.127 4.895a2.309 2.309 0 01-1.154 1.95 6.569 6.569 0 01-2.217.358z"/><path fill="#191919" d="M71.198 35.906a4.387 4.387 0 00-.82-2.851.716.716 0 00-.403-.335.762.762 0 00-.416.08 59.536 59.536 0 00-3.832 1.71 7.456 7.456 0 01-1.547.542c-.981.23-2.02.323-3.025.496-.715.115-1.327.15-1.581.716a2.032 2.032 0 01-.866 1.154c-.612.427-.312 1.305 0 2.032a75.79 75.79 0 013.094 8.173 10.826 10.826 0 003.082-.658 1.444 1.444 0 00.612-1.247l.404-3.994 1.477 1.235a.878.878 0 00.324-1.05c-.185-.797-.624-2.032-.104-2.782a1.558 1.558 0 011.339-.485 2.553 2.553 0 001.928-.739c.246-.636.36-1.316.334-1.997z"/><path fill="#273139" d="M82.927 56.686a.127.127 0 01-.092 0 49.624 49.624 0 00-2.69-1.155.231.231 0 01-.115-.288.22.22 0 01.288-.116c.9.381 1.813.785 2.701 1.155a.23.23 0 01.104.288.208.208 0 01-.196.116z"/><path fill="#273139" d="M83.897 64.42a5.08 5.08 0 01-2.194-.68l-.346-.162a70.649 70.649 0 01-3.463-1.755.22.22 0 01.046-.402.207.207 0 01.162.021 81.619 81.619 0 003.463 1.744l.358.161a3.57 3.57 0 002.678.531c2.644-.796 2.551-4.352 2.493-6.926v-.797c0-2.366-.15-4.744-.404-7.088 0-.369 0-.75-.069-1.154a12.202 12.202 0 00-.138-1.616 5.206 5.206 0 00-1.155-1.997l-.311-.393a1.235 1.235 0 00-.44-.415 1.326 1.326 0 00-.6 0h-.265c-.392 0-.496 0-.543.427-.028.463-.004.927.07 1.385.048.337.08.676.092 1.016V49.32c0 1.247-.208 2.748-.38 4.19a56.213 56.213 0 00-.255 2.31.209.209 0 01-.242.196.22.22 0 01-.196-.231c0-.716.15-1.49.254-2.309.173-1.443.357-2.932.38-4.156v-1.004-1.986a8.97 8.97 0 00-.092-.958 6.427 6.427 0 010-1.489c.07-.716.52-.773.912-.82h.242c.272-.08.56-.08.832 0 .263.116.484.31.635.555l.311.38a5.449 5.449 0 011.259 2.206c.09.55.14 1.105.15 1.662 0 .37 0 .739.069 1.154a69.95 69.95 0 01.404 7.123v.796c0 2.586.161 6.5-2.805 7.388a2.85 2.85 0 01-.912.093z"/><path fill="#273139" d="M82.996 48.12a.196.196 0 01-.184-.103l-.22-.324a5.057 5.057 0 01-.935-2.02v-.369a5.601 5.601 0 00-.08-.635.393.393 0 01.45-.45.715.715 0 01.38.196c.16.152.275.343.335.554a.22.22 0 01-.127.277.218.218 0 01-.288-.127 1.028 1.028 0 00-.208-.38h-.092c0 .196 0 .392.069.577v.357c.17.65.477 1.257.9 1.778l.22.335a.207.207 0 01-.07.3.22.22 0 01-.15.035zM61.248 51.133a.196.196 0 01-.116 0 .217.217 0 01-.108-.219.22.22 0 01.027-.081c.09-.152.16-.315.208-.485.081-.262.206-.508.37-.727.198-.214.443-.38.715-.485 1.425-.661 2.978-1 4.549-.993a4.41 4.41 0 012.874 1.005.223.223 0 11-.265.357 3.994 3.994 0 00-2.61-.923h-.057c-1.476 0-2.934.323-4.271.946a1.583 1.583 0 00-.578.381 1.652 1.652 0 00-.288.59 2.392 2.392 0 01-.242.565.22.22 0 01-.208.069z"/><path fill="#FC6471" d="M79.453 54.295l-5.692-3.174c-.842-.462-1.72-1.155-2.585-1.49a8.29 8.29 0 00-2.771-.369 14.107 14.107 0 00-6.303 1.224c-.993.438-1.858 1.062-2.805 1.593a9.315 9.315 0 00-2.898 2.309 11.102 11.102 0 00-1.443 2.678 120.325 120.325 0 00-2.863 7.33c.993 1.593 3.175 1.813 4.872 1.64.577 0-.242 2.631-.323 3.024a124.256 124.256 0 00-.797 4.132c-.473 2.76-2.043 7.25-2.309 10.044 3.464 2.25 9.316 3.024 13.357 2.17 1.073-.22 2.112-.566 3.186-.785a15.398 15.398 0 014.179-.289c-.37-7.33-.808-16.38-.658-23.722.6.323 1.154.623 1.812.912a7.79 7.79 0 012.055.946.404.404 0 00.566-.22c.18-.452.384-.895.611-1.327.394-.76.715-1.557.959-2.378.214-.735.384-1.483.508-2.24.069-.472.323-1.154 0-1.546a1.744 1.744 0 00-.566-.427l-.093-.035z"/><path fill="#273139" d="M56.365 70.146a.22.22 0 01-.174-.254l.116-.52c.785-3.82 1.604-7.757 2.1-11.647a.207.207 0 01.243-.185.206.206 0 01.146.081.208.208 0 01.039.162c-.496 3.901-1.316 7.85-2.101 11.682l-.104.52a.219.219 0 01-.265.161z"/><path fill="#191919" d="M59.458 37.143l-1.073-.289c-.127 0-.3-.115-.254-.23.046-.116.185-.105.288-.07.397.073.767.248 1.074.508a4.899 4.899 0 01-.727-.739c-.081-.104-.139-.277 0-.335.37 0 .6.531.727 1.155"/><path fill="#3871D6" d="M104.018 140.438H35.724a4.375 4.375 0 100 8.75h68.294a4.375 4.375 0 000-8.75z"/><path fill="#191919" d="M107.1 149.522H32.654a1.628 1.628 0 01-1.605-1.628v-6.165a1.628 1.628 0 011.628-1.616h74.446a1.623 1.623 0 011.143.474 1.612 1.612 0 01.473 1.142v6.165c0 .215-.042.427-.125.625a1.614 1.614 0 01-.887.882 1.643 1.643 0 01-.627.121zm-74.446-8.774a.958.958 0 00-.97.958v6.165a.972.972 0 00.599.896.982.982 0 00.37.073H107.1a.967.967 0 00.958-.969v-6.165a.96.96 0 00-.958-.958H32.654z"/><path fill="#fff" d="M94.806 35.203a.335.335 0 01-.323-.265.346.346 0 01.254-.393l4.375-.947a.346.346 0 01.392.255.335.335 0 01-.254.392l-4.375.947-.07.011zM93.386 31.509a.311.311 0 01-.277-.162.324.324 0 01.115-.45l2.217-1.316a.335.335 0 01.494.236.326.326 0 01-.16.33l-2.216 1.315a.323.323 0 01-.173.047zM97.472 39.301l-2.505-.311a.334.334 0 01-.193-.613.333.333 0 01.274-.045l2.505.312a.323.323 0 01.289.369.334.334 0 01-.37.288z"/><path fill="#E6F6FF" d="M247.855 140.968h.219c.067.021.14.021.208 0a.543.543 0 00.288-.289.457.457 0 000-.208v-.15a.648.648 0 00-.15-.242l-.104-.081a.512.512 0 00-.277-.081h-.242a.48.48 0 00-.22 0 .46.46 0 00-.173.116.415.415 0 00-.115.173.477.477 0 000 .219v.139a.427.427 0 00.138.242l.104.092c.09.046.189.07.289.07h.035zM240.293 114.197a.573.573 0 00.577-.577.573.573 0 00-.577-.577.578.578 0 000 1.154zM176.213 109.787a.578.578 0 100-1.155.578.578 0 000 1.155zM201.794 67.387a.579.579 0 00.409-.986.579.579 0 00-.986.409.578.578 0 00.577.577zM278.157 56.213l-.242.242a.332.332 0 00-.104.173.478.478 0 000 .22.456.456 0 000 .207.332.332 0 00.104.173l.115.093c.085.047.18.07.277.07h.15a.66.66 0 00.243-.15l.242-.243a.578.578 0 00.162-.381.478.478 0 000-.22.468.468 0 00-.116-.173l-.115-.092a.554.554 0 00-.277-.07h-.139a.498.498 0 00-.254.14l-.046.01zM293.418 27.179a.553.553 0 00.339-.911.553.553 0 00-.339-.186.553.553 0 00-.339.91c.087.102.207.168.339.187zM187.18 36.68a.576.576 0 100-1.153.576.576 0 000 1.153zM124.797 54.953a.577.577 0 100-1.153.577.577 0 000 1.153zM126.99 95.162a.576.576 0 100-1.153.576.576 0 000 1.153zM99.7 55.197a.58.58 0 00.578-.577.578.578 0 10-.578.577zM163.296 74.81h-.243a.471.471 0 00-.219 0 .555.555 0 00-.173.115.639.639 0 00-.116.185.407.407 0 000 .208v.15a.514.514 0 00.139.242l.115.081c.086.046.18.073.277.08h.243a.424.424 0 00.207 0 .586.586 0 00.185-.103.428.428 0 00.104-.185.43.43 0 000-.208v-.15a.647.647 0 00-.138-.242l-.116-.08a.46.46 0 00-.277-.082l.012-.011zM157.685 31.082a.577.577 0 100-1.153.577.577 0 000 1.153zM233.956 54.342h-.15a.58.58 0 00-.578.577.578.578 0 00.578.577h.15a.576.576 0 100-1.154h-.15a.58.58 0 00-.578.577.578.578 0 00.578.577h.15a.576.576 0 100-1.154zM291.467 101.256h.243c.068.019.14.019.208 0a.622.622 0 00.184-.116.565.565 0 00.116-.173.477.477 0 000-.219v-.139a.495.495 0 00-.139-.254l-.115-.08a.562.562 0 00-.277-.07h-.243a.322.322 0 00-.208 0 .608.608 0 00-.184.104.648.648 0 00-.116.185.43.43 0 000 .208v.15a.51.51 0 00.139.242l.115.081a.466.466 0 00.277.081zM268.322 16.214a.555.555 0 000-1.097.558.558 0 00-.475.548.554.554 0 00.475.549zM245.407 27.906a.577.577 0 100-1.153.577.577 0 000 1.153zM305.943 8.501l.243.242c.048.052.107.091.173.116a.472.472 0 00.219 0 .577.577 0 00.381-.162l.092-.115a.56.56 0 00.07-.277v-.15a.666.666 0 00-.173-.162l-.243-.242a.577.577 0 00-.381-.162.472.472 0 00-.219 0 .458.458 0 00-.173.115l-.093.116a.558.558 0 00-.069.277v.15a.514.514 0 00.139.242l.034.012z" opacity=".73"/><g fill="#7BCAFF" opacity=".27"><path d="M265.043 106.29a.988.988 0 00.886-.987.991.991 0 00-.886-.987.996.996 0 00-.632 1.651.993.993 0 00.632.323zM212.484 97.378h.312c.262-.007.512-.11.704-.288.166-.2.267-.446.288-.705a1.002 1.002 0 00-.992-.992h-.312a.978.978 0 00-.693.3.572.572 0 00-.207.311.71.71 0 00-.081.381c.001.264.105.516.288.704.187.18.434.283.693.29zM222.262 50.903v.3c.001.263.105.515.288.704a.822.822 0 00.312.208.831.831 0 00.381.08c.263 0 .516-.104.704-.288.179-.192.282-.442.289-.704v-.3a1.05 1.05 0 00-.289-.705.866.866 0 00-.323-.207.716.716 0 00-.381-.081.967.967 0 00-.693.288.984.984 0 00-.288.705zM278.815 25.692v.311a.967.967 0 00.289.693c.082.097.19.17.311.208a.775.775 0 00.381.092.981.981 0 00.704-.3 1.01 1.01 0 00.289-.693v-.311a1.01 1.01 0 00-.289-.693.654.654 0 00-.323-.208.715.715 0 00-.381-.08.982.982 0 00-.981.98zM166.69 58.648h.311c.26-.004.507-.108.693-.289a.661.661 0 00.208-.323.719.719 0 00.08-.38.981.981 0 00-.981-.982h-.311a.974.974 0 00-.693.288.624.624 0 00-.208.312.767.767 0 00-.092.381 1.003 1.003 0 00.993.993zM132.635 79.243a.993.993 0 000-1.985.995.995 0 00-.886.987.996.996 0 00.886.987v.011zM128.953 60.738v-.312a1.074 1.074 0 00-.289-.704 1.256 1.256 0 00-.704-.288.976.976 0 00-.698.291.99.99 0 00-.283.701v.312a.967.967 0 00.288.693.703.703 0 00.312.208c.118.059.249.087.381.08.263-.001.516-.105.704-.288.179-.187.282-.434.289-.693zM108.601 61.72a.995.995 0 00.886-.987.995.995 0 00-.886-.987.99.99 0 00-.886.987.99.99 0 00.886.987zM101.224 46.355a.99.99 0 00.886-.987.99.99 0 00-.886-.987.995.995 0 00-.886.987.995.995 0 00.886.987zM170.73 110.896a.994.994 0 00.632-1.65.994.994 0 00-.632-.324.99.99 0 00-.886.987.99.99 0 00.886.987zM191.59 29.454a.993.993 0 100-1.986.993.993 0 000 1.986zM265.667 15.001a.995.995 0 00.886-.987.996.996 0 00-.886-.987.99.99 0 00-.886.987.99.99 0 00.886.987zM244.449 146.244a.996.996 0 00.632-1.651.993.993 0 00-.632-.323.993.993 0 000 1.974zM242.302 87.843a.995.995 0 00.886-.987.996.996 0 00-.886-.987.995.995 0 00-.886.987.996.996 0 00.886.987z" opacity=".27"/></g></g><defs><clipPath id="clip0_10474:90407"><path fill="#fff" d="M0 0h360.169v182.393H0z" transform="translate(-17.435 -10.477)"/></clipPath></defs></svg>