<svg width="146" height="133" viewBox="0 0 146 133" fill="none" xmlns="http://www.w3.org/2000/svg">
<g clip-path="url(#clip0_3706_43567)">
<path opacity="0.2" d="M72.9996 118.397C103.724 118.397 128.64 93.4939 128.64 62.7851C128.64 32.0763 103.724 7.17334 72.9996 7.17334C42.2751 7.17334 17.3594 32.0763 17.3594 62.7851C17.3594 93.4939 42.2751 118.397 72.9996 118.397Z" fill="#BFC7D3"/>
<path d="M24.4258 113.325H108.598V17.6726C108.598 15.2145 106.606 13.2236 104.147 13.2236H35.1532C32.6939 13.2236 30.702 15.2145 30.702 17.6726V106.818C30.702 108.62 29.9564 110.344 28.6322 111.567C27.7531 112.379 26.8628 112.757 26.6069 112.858C25.7389 113.214 24.9599 113.302 24.4258 113.325Z" fill="white"/>
<path d="M109.266 113.992H24.426L24.3926 112.658C25.0714 112.624 25.7279 112.491 26.3511 112.235C26.7183 112.079 27.4639 111.723 28.165 111.078C29.3446 109.988 30.0234 108.431 30.0234 106.819V17.6729C30.0234 14.8478 32.3157 12.5566 35.1423 12.5566H104.136C106.963 12.5566 109.255 14.8478 109.255 17.6729V113.992H109.266ZM28.3319 112.658H107.931V17.6729C107.931 15.5819 106.228 13.8913 104.147 13.8913H35.1534C33.0613 13.8913 31.3699 15.593 31.3699 17.6729V106.819C31.3699 108.798 30.5353 110.711 29.0886 112.057C28.8327 112.291 28.5879 112.491 28.343 112.658H28.3319Z" fill="#92A2B1"/>
<path d="M17.6377 85.998H30.702V106.797C30.702 110.4 27.7753 113.326 24.1699 113.326C20.5644 113.326 17.6377 110.4 17.6377 106.797V85.998Z" fill="white"/>
<path d="M24.1705 113.992C20.1978 113.992 16.9707 110.767 16.9707 106.796V85.3301H31.3704V106.796C31.3704 110.767 28.1433 113.992 24.1705 113.992ZM18.3061 86.6536V106.796C18.3061 110.033 20.9323 112.658 24.1705 112.658C27.4088 112.658 30.035 110.022 30.035 106.796V86.6536H18.3061Z" fill="#92A2B1"/>
<path d="M116.91 113.603L122.652 105.406L135.205 114.181C137.464 115.761 138.02 118.897 136.44 121.155C134.86 123.413 131.733 123.969 129.463 122.39L116.91 113.614V113.603Z" fill="white"/>
<path d="M132.335 123.958C131.211 123.958 130.076 123.624 129.085 122.935L115.977 113.77L122.486 104.472L135.595 113.636C138.155 115.427 138.789 118.975 136.986 121.533C135.885 123.113 134.115 123.947 132.324 123.947H132.335V123.958ZM117.846 113.447L129.853 121.845C131.812 123.213 134.527 122.735 135.896 120.777C137.265 118.82 136.786 116.106 134.827 114.738L122.82 106.34L117.846 113.447Z" fill="#92A2B1"/>
<path d="M117.046 104.594L114.23 108.609L118.248 111.423L121.063 107.408L117.046 104.594Z" fill="white"/>
<path d="M118.413 112.357L113.294 108.776L116.877 103.66L121.996 107.241L118.413 112.357ZM115.152 108.453L118.079 110.5L120.127 107.575L117.2 105.528L115.152 108.453Z" fill="#92A2B1"/>
<path d="M92.8302 118.686C108.031 118.686 120.35 106.373 120.35 91.1804C120.35 75.9872 108.031 63.6748 92.8302 63.6748C77.6293 63.6748 65.3105 75.9872 65.3105 91.1804C65.3105 106.373 77.6293 118.686 92.8302 118.686Z" fill="white"/>
<path d="M92.8299 119.354C77.284 119.354 64.6426 106.719 64.6426 91.1807C64.6426 75.6428 77.284 63.0078 92.8299 63.0078C108.376 63.0078 121.017 75.6428 121.017 91.1807C121.017 106.719 108.376 119.354 92.8299 119.354ZM92.8299 64.3425C78.0185 64.3425 65.9779 76.388 65.9779 91.1807C65.9779 105.973 78.0296 118.019 92.8299 118.019C107.63 118.019 119.682 105.973 119.682 91.1807C119.682 76.388 107.63 64.3425 92.8299 64.3425Z" fill="#92A2B1"/>
<path d="M92.8301 113.503C105.16 113.503 115.164 103.504 115.164 91.1805C115.164 78.8569 105.16 68.8579 92.8301 68.8579C80.5002 68.8579 70.4961 78.8569 70.4961 91.1805C70.4961 103.504 80.5002 113.503 92.8301 113.503Z" fill="white"/>
<path d="M92.8298 114.181C105.533 114.181 115.831 103.889 115.831 91.1915C115.831 78.4946 105.533 68.2017 92.8298 68.2017C80.1263 68.2017 69.8281 78.4946 69.8281 91.1915C69.8281 103.889 80.1263 114.181 92.8298 114.181Z" fill="#92A2B1"/>
<path d="M90.7165 95.229V94.7173C90.7165 92.871 91.3954 91.4029 93.6544 89.4008C95.0454 88.144 95.3903 87.1653 95.3903 86.053C95.3903 84.8184 94.6559 83.6506 92.931 83.6506C91.0838 83.6506 90.3493 84.874 90.1379 86.5202H86.499C86.6326 84.2512 88.0903 80.7254 92.9978 80.7477C97.6938 80.7699 99.1294 83.873 99.1294 86.1642C99.1294 88.0995 98.4951 89.412 96.3362 91.4029C94.9897 92.6486 94.5446 93.6385 94.5446 94.9398V95.229H90.7054H90.7165ZM90.7165 101.613V96.9752H94.5557V101.613H90.7165Z" fill="#C4CCD4"/>
<path d="M65.2994 54.933C65.088 54.933 64.8765 54.8329 64.7541 54.6549C64.5427 54.3546 64.6206 53.9319 64.9211 53.7206C65.9448 53.0088 68.0814 51.8076 70.9636 51.8632C73.6788 51.9077 75.6819 53.0422 76.6389 53.7206C76.9393 53.9319 77.0172 54.3546 76.8058 54.6549C76.5944 54.9552 76.1826 55.0331 75.8711 54.8217C75.0364 54.2323 73.2893 53.2535 70.9413 53.209C68.4153 53.1423 66.568 54.1989 65.6889 54.8217C65.5665 54.8996 65.4329 54.9441 65.3105 54.9441H65.2994V54.933Z" fill="#C4CCD4"/>
<path d="M53.3252 43.499C53.1583 43.499 52.9914 43.4434 52.8579 43.31C52.5908 43.0541 52.5796 42.6315 52.8356 42.3646L59.735 35.1795C59.9909 34.9126 60.4138 34.9015 60.6809 35.1573C60.9479 35.4131 60.9591 35.8357 60.7031 36.1027L53.8037 43.2877C53.6702 43.4212 53.4921 43.4879 53.3252 43.4879V43.499Z" fill="#C4CCD4"/>
<path d="M60.3694 43.3544C60.2025 43.3544 60.0356 43.2988 59.902 43.1653L52.7133 36.2695C52.4462 36.0136 52.4351 35.591 52.6911 35.3241C52.947 35.0571 53.3699 35.046 53.6369 35.3018L60.8257 42.1977C61.0927 42.4535 61.1039 42.8761 60.8479 43.1431C60.7144 43.2765 60.5363 43.3433 60.3694 43.3433V43.3544Z" fill="#C4CCD4"/>
<path d="M80.1768 43.499C80.0099 43.499 79.8429 43.4434 79.7094 43.31C79.4423 43.0541 79.4312 42.6315 79.6872 42.3646L86.5865 35.1795C86.8425 34.9126 87.2654 34.9015 87.5324 35.1573C87.7995 35.4131 87.8106 35.8357 87.5547 36.1027L80.6553 43.2877C80.5218 43.4212 80.3437 43.4879 80.1768 43.4879V43.499Z" fill="#C4CCD4"/>
<path d="M87.221 43.3544C87.0541 43.3544 86.8871 43.2988 86.7536 43.1653L79.5649 36.2695C79.2978 36.0136 79.2867 35.591 79.5426 35.3241C79.7986 35.0571 80.2214 35.046 80.4885 35.3018L87.6772 42.1977C87.9443 42.4535 87.9554 42.8761 87.6995 43.1431C87.5659 43.2765 87.3879 43.3433 87.221 43.3433V43.3544Z" fill="#C4CCD4"/>
<path d="M145.332 132.5H139.178C138.811 132.5 138.511 132.2 138.511 131.833C138.511 131.466 138.811 131.166 139.178 131.166H145.332C145.699 131.166 146 131.466 146 131.833C146 132.2 145.699 132.5 145.332 132.5Z" fill="#92A2B1"/>
<path d="M132.491 132.5H105.539C105.172 132.5 104.871 132.2 104.871 131.833C104.871 131.466 105.172 131.166 105.539 131.166H132.491C132.858 131.166 133.159 131.466 133.159 131.833C133.159 132.2 132.858 132.5 132.491 132.5Z" fill="#92A2B1"/>
<path d="M99.1509 132.5H0.667683C0.300457 132.5 0 132.2 0 131.833C0 131.466 0.300457 131.166 0.667683 131.166H99.1509C99.5182 131.166 99.8186 131.466 99.8186 131.833C99.8186 132.2 99.5182 132.5 99.1509 132.5Z" fill="#92A2B1"/>
<path d="M18.6055 20.4314H10.6267C10.2594 20.4314 9.95898 20.1311 9.95898 19.764C9.95898 19.397 10.2594 19.0967 10.6267 19.0967H18.6055C18.9727 19.0967 19.2732 19.397 19.2732 19.764C19.2732 20.1311 18.9727 20.4314 18.6055 20.4314Z" fill="#92A2B1"/>
<path d="M28.0544 9.82053C27.6872 9.82053 27.3867 9.52022 27.3867 9.15318V1.16734C27.3867 0.800303 27.6872 0.5 28.0544 0.5C28.4216 0.5 28.7221 0.800303 28.7221 1.16734V9.15318C28.7221 9.52022 28.4216 9.82053 28.0544 9.82053Z" fill="#92A2B1"/>
<path d="M20.3424 12.4009C20.1977 12.4009 20.0531 12.3564 19.9306 12.2674L13.5988 7.40695C13.3095 7.1845 13.2538 6.76186 13.4764 6.47267C13.6989 6.18349 14.1218 6.12788 14.4111 6.35033L20.743 11.2108C21.0323 11.4332 21.088 11.8559 20.8654 12.1451C20.7319 12.3119 20.5316 12.4009 20.3313 12.4009H20.3424Z" fill="#92A2B1"/>
</g>
<defs>
<clipPath id="clip0_3706_43567">
<rect width="146" height="132" fill="white" transform="translate(0 0.5)"/>
</clipPath>
</defs>
</svg>
