<svg id="Layer_1" data-name="Layer 1" xmlns="http://www.w3.org/2000/svg" viewBox="0 0 50 50"><defs><style>.cls-1{opacity:0.01;}.cls-2{fill:#fff;}.cls-3{fill:#eae8fc;}.cls-4{fill:#8380ff;}.cls-5{fill:#525666;}.cls-6{fill:#cce1ff;}.cls-7{fill:#727890;}</style></defs><title>Pending Approvals</title><g class="cls-1"><rect class="cls-2" x="0.14" y="0.03" width="49.72" height="49.93"/></g><path class="cls-3" d="M44.57,14.69a15.61,15.61,0,0,0-30.38.73,11.7,11.7,0,0,1-3.77,6.38A14.53,14.53,0,1,0,33.63,37.55a12.44,12.44,0,0,1,4.72-6.06A15.63,15.63,0,0,0,44.57,14.69Z"/><path class="cls-4" d="M45.41,10.14a.41.41,0,0,1-.24-.08A7.07,7.07,0,0,0,41.46,8.5a.4.4,0,0,1-.31-.23.37.37,0,0,1,.06-.38,7.2,7.2,0,0,0,1.57-3.71.36.36,0,0,1,.23-.3.37.37,0,0,1,.38.05A7.07,7.07,0,0,0,47.1,5.49a.39.39,0,0,1,.31.23.38.38,0,0,1-.06.38,7.16,7.16,0,0,0-1.57,3.71.38.38,0,0,1-.23.3ZM42.17,7.85a7.91,7.91,0,0,1,3,1.24,8,8,0,0,1,1.25-2.95,7.94,7.94,0,0,1-3-1.24A7.81,7.81,0,0,1,42.17,7.85Z"/><path class="cls-2" d="M34.22,22.85l-.17-10.51L27.22,6.15l-5-4.78h-20V43.54H25.09a12.78,12.78,0,0,1,9.13-20.69Z"/><path class="cls-5" d="M25.09,43.91H14.45a.37.37,0,0,1-.38-.37.38.38,0,0,1,.38-.38h9.89A13,13,0,0,1,22,35.6,13.21,13.21,0,0,1,33.84,22.5l-.16-10L27,6.43,22.1,1.75H10.6a.38.38,0,0,1,0-.75H22.25a.42.42,0,0,1,.26.1l5,4.78,6.83,6.18a.4.4,0,0,1,.12.27l.17,10.51a.37.37,0,0,1-.35.38,12.42,12.42,0,0,0-8.87,20.09.37.37,0,0,1,.05.39A.38.38,0,0,1,25.09,43.91Z"/><path class="cls-5" d="M11.25,43.91h-9a.37.37,0,0,1-.38-.37V1.37A.38.38,0,0,1,2.24,1H7.47a.38.38,0,1,1,0,.75H2.61V43.16h8.64a.38.38,0,0,1,.38.38A.37.37,0,0,1,11.25,43.91Z"/><path class="cls-6" d="M33.51,43.45l.26-22.22A13.93,13.93,0,0,0,20.62,34.9a17.21,17.21,0,0,0,2.43,8.19"/><circle class="cls-2" cx="35.12" cy="35.6" r="12.8"/><path class="cls-4" d="M34.7,22.8A12.6,12.6,0,0,0,22.32,35.6,12.59,12.59,0,0,0,34.7,48.4c6.83,0,12.21-5.73,12.21-12.8S41.53,22.8,34.7,22.8Z"/><path class="cls-5" d="M35.12,48.78A13,13,0,0,1,30.65,48a.38.38,0,0,1-.23-.48.38.38,0,0,1,.48-.23A12.42,12.42,0,0,0,45,28.12a.37.37,0,0,1,.07-.53.38.38,0,0,1,.53.07A13.18,13.18,0,0,1,35.12,48.78Z"/><path class="cls-5" d="M28.57,47a.35.35,0,0,1-.19-.06A13.17,13.17,0,1,1,43.51,25.44.38.38,0,1,1,43,26,12.43,12.43,0,1,0,28.76,46.28a.38.38,0,0,1-.19.7Z"/><path class="cls-2" d="M35.12,37.32a.39.39,0,0,1-.18,0,.39.39,0,0,1-.19-.33V26.42a.38.38,0,1,1,.75,0v9.85l5-3.11a.38.38,0,0,1,.4.64l-5.57,3.47A.46.46,0,0,1,35.12,37.32Z"/><path class="cls-7" d="M24.05,17.2H6a.38.38,0,1,1,0-.75h18a.38.38,0,1,1,0,.75Z"/><path class="cls-7" d="M24.05,23.22H6a.38.38,0,0,1-.38-.38A.37.37,0,0,1,6,22.47h18a.37.37,0,0,1,.38.37A.38.38,0,0,1,24.05,23.22Z"/><path class="cls-7" d="M17.24,29.23H6a.38.38,0,1,1,0-.75h11.2a.38.38,0,0,1,0,.75Z"/><path class="cls-6" d="M21.93,1.73l-1.22,10.9a1,1,0,0,0,1.12,1.12l12-1,.17-.82Z"/><polygon class="cls-2" points="22.32 1.63 22.39 12.16 33.95 12.26 22.32 1.63"/><path class="cls-5" d="M34,12.64h0l-11.56-.1a.37.37,0,0,1-.37-.37L21.94,1.63a.39.39,0,0,1,.22-.35.38.38,0,0,1,.41.07L34.21,12a.38.38,0,0,1-.25.65Zm-11.2-.85L33,11.88,22.7,2.48Z"/><circle class="cls-4" cx="7.58" cy="46.98" r="0.84"/><circle class="cls-4" cx="40.56" cy="18.04" r="1.38"/></svg>
