<svg id="Layer_1" data-name="Layer 1" xmlns="http://www.w3.org/2000/svg" viewBox="0 0 50 50"><defs><style>.cls-1{fill:#ffeeeb;}.cls-2{fill:#ffa08d;}.cls-3{fill:#fff;}.cls-4{fill:#525666;}</style></defs><title>Request new change</title><path class="cls-1" d="M42.41,14.83a15.25,15.25,0,0,0-29.67.72,11.36,11.36,0,0,1-3.68,6.22A14.19,14.19,0,1,0,31.73,37.16a12.17,12.17,0,0,1,4.61-5.93A15.22,15.22,0,0,0,42.41,14.83Z"/><circle class="cls-2" cx="14.88" cy="43.8" r="1.45"/><path class="cls-2" d="M45.33,10a.35.35,0,0,1-.24-.08A7.15,7.15,0,0,0,41.38,8.4a.36.36,0,0,1-.31-.23.38.38,0,0,1,.06-.38A7.13,7.13,0,0,0,42.7,4.08a.37.37,0,0,1,.61-.24A7.14,7.14,0,0,0,47,5.39a.39.39,0,0,1,.31.24.36.36,0,0,1-.06.37A7.2,7.2,0,0,0,45.7,9.71a.39.39,0,0,1-.23.31ZM42.09,7.75a7.77,7.77,0,0,1,3,1.25A8,8,0,0,1,46.3,6,7.94,7.94,0,0,1,43.35,4.8,7.81,7.81,0,0,1,42.09,7.75Z"/><polygon class="cls-3" points="13.53 9.3 11.45 14.47 25.01 18.91 40.12 14.59 39.97 8.26 25.01 12.56 13.53 9.3"/><polygon class="cls-3" points="9.54 8.26 9.54 13.85 25.01 18.91 38.83 14.84 39.19 8.47 25.01 12.56 9.54 8.26"/><path class="cls-3" d="M26.44,22.45l-15.3-5.12S12.45,39.25,24.76,43C35.9,39.76,40.43,18.5,40.43,18.5Z"/><path class="cls-2" d="M24.84,22.45,9.54,17.33S12.45,39.25,24.76,43C36.12,38.07,39.19,18.4,39.19,18.4Z"/><path class="cls-4" d="M25,19.21a2,2,0,0,1-.59-.09l-15-4.92a.36.36,0,0,1-.26-.35V8.26A.36.36,0,0,1,9.32,8a.37.37,0,0,1,.32-.06l7.26,2a.37.37,0,0,1-.2.72L9.92,8.75v4.82l14.75,4.84a1.21,1.21,0,0,0,.68,0l14.25-4.2V8.76l-14.07,4a1.9,1.9,0,0,1-1,0l-3.8-1.06a.37.37,0,1,1,.2-.72l3.8,1.05a1.09,1.09,0,0,0,.62,0L39.87,7.9A.39.39,0,0,1,40.2,8a.38.38,0,0,1,.15.3V14.5a.38.38,0,0,1-.27.36L25.57,19.14A2,2,0,0,1,25,19.21Z"/><path class="cls-4" d="M24.84,43.3a1.58,1.58,0,0,1-.52-.09c-5-1.7-9.21-6.73-12.17-14.52a59.18,59.18,0,0,1-3-11.31A.38.38,0,0,1,9.66,17l15,5a.82.82,0,0,0,.49,0l14.77-4.16a.38.38,0,0,1,.35.08.36.36,0,0,1,.12.33,51.77,51.77,0,0,1-2,8.21.37.37,0,0,1-.71-.23,53.81,53.81,0,0,0,1.83-7.51l-14.2,4a1.59,1.59,0,0,1-.94,0L10,17.88c.59,3.49,4.06,21,14.55,24.62a.92.92,0,0,0,.57,0C29.47,41,33.07,37.16,35.85,31a.37.37,0,1,1,.68.31c-2.86,6.35-6.62,10.35-11.16,11.89A1.6,1.6,0,0,1,24.84,43.3Z"/></svg>
