<svg xmlns="http://www.w3.org/2000/svg" fill="none" viewBox="0 0 42 42"><path stroke="#363D42" stroke-linecap="round" stroke-linejoin="round" stroke-width=".875" d="M21.151.6C9.901.6.751 9.75.751 21c0 11.25 9.15 20.4 20.4 20.4 11.25 0 20.4-9.15 20.4-20.4 0-5.4-2.1-10.5-6-14.4-3.9-3.9-9-6-14.4-6z"/><path fill="#448EE1" fill-opacity=".3" stroke="#448EE1" stroke-linecap="round" stroke-linejoin="round" stroke-width=".875" d="M21.151 34.2c-6.3 0-11.7-4.5-13.05-10.65h25.95c-1.2 6.3-6.6 10.65-12.9 10.65z"/><path stroke="#363D42" stroke-linecap="round" stroke-linejoin="round" stroke-width=".875" d="M7.951 16.65c0-3 1.95-5.25 4.35-5.25 2.4 0 4.35 2.4 4.35 5.25M25.501 16.65c0-3 1.95-5.25 4.35-5.25 2.4 0 4.35 2.4 4.35 5.25"/></svg>