<svg width="55" height="58" viewBox="0 0 55 58" fill="none" xmlns="http://www.w3.org/2000/svg">
<path d="M50.7307 14.99C48.3497 5.97816 40.0941 -0.220943 30.7758 0.0060328C21.4576 0.233008 13.5135 6.82671 11.5742 15.9438C10.8797 19.121 9.17496 21.9878 6.71511 24.1153C0.750173 29.2572 -1.36069 37.5814 1.43327 44.9443C4.22724 52.3072 11.329 57.1356 19.2035 57.0259C27.0779 56.9162 34.0424 51.8919 36.6302 44.454C37.7834 41.2739 39.9128 38.5399 42.7138 36.6433C49.6771 31.8322 52.8821 23.1757 50.7307 14.99Z" fill="#FFECF0"/>
<path d="M25.6876 25.2882C19.6427 25.2882 14.7449 19.166 14.7449 13.1211C14.7449 7.0705 19.6499 2.16553 25.7004 2.16553C31.751 2.16553 36.656 7.0705 36.656 13.1211C36.6173 19.166 31.7196 25.2882 25.6876 25.2882Z" fill="white"/>
<path d="M1.12134 48.3979C2.13956 35.3543 12.7213 28.7166 25.6102 28.7166C38.4991 28.7166 49.4547 34.9934 50.2538 48.3979C50.3595 48.9795 50.1837 49.5769 49.7799 50.0086C49.3761 50.4404 48.7918 50.6556 48.2044 50.589H3.09334C2.09954 50.2515 1.35265 49.4216 1.12134 48.3979Z" fill="white"/>
<path fill-rule="evenodd" clip-rule="evenodd" d="M14.2809 13.1212C14.2809 19.0887 19.1658 25.7523 25.6876 25.7523C32.2093 25.7523 37.0813 19.0887 37.0813 13.1212C36.8746 6.97417 31.8316 2.0979 25.6811 2.0979C19.5306 2.0979 14.4876 6.97417 14.2809 13.1212ZM15.2089 13.1212C15.216 7.33902 19.9054 2.65541 25.6875 2.65541C31.4647 2.66251 36.1462 7.34404 36.1533 13.1212C36.1533 18.6505 31.6809 24.8243 25.6875 24.8243C19.6942 24.8243 15.2089 18.6505 15.2089 13.1212Z" fill="#525666"/>
<path fill-rule="evenodd" clip-rule="evenodd" d="M3.11912 51.053H48.2302C48.9232 51.0777 49.5968 50.8221 50.0991 50.3441C50.5606 49.7959 50.7834 49.0857 50.7178 48.3721C49.9831 35.9859 40.3551 28.2525 25.6102 28.2525C20.6324 28.1738 15.7127 29.3296 11.2907 31.6165C11.2037 31.6668 11.1182 31.7159 11.0336 31.7644C10.5538 32.0399 10.1024 32.299 9.57645 32.6605C8.95778 33.0859 8.352 33.537 7.78489 34.0139C3.5552 37.6245 0.984929 42.8069 0.670227 48.3592C0.740461 49.0174 1.04189 49.6294 1.52089 50.0863C1.91976 50.5906 2.4873 50.9339 3.11912 51.053ZM2.15245 49.5063C1.84838 49.2317 1.63299 48.8727 1.53378 48.4752V48.4365C1.83324 43.1303 4.28683 38.1766 8.32623 34.7228C8.87479 34.2636 9.44698 33.8334 10.0405 33.4339C10.5689 33.073 11.1231 32.7379 11.6902 32.4285C15.9873 30.2035 20.7721 29.087 25.6102 29.1805C40.0587 29.1805 49.1067 36.3725 49.8284 48.4623C49.8739 48.922 49.7451 49.382 49.4676 49.7512C49.1158 50.0652 48.6473 50.2151 48.1787 50.1637H3.06756C2.70329 50.0417 2.38434 49.8126 2.15245 49.5063Z" fill="#525666"/>
<path d="M25.9969 50.1251C25.9969 50.1251 23.3031 46.7998 24.3213 39.9042C25.0058 35.5043 27.7632 31.7015 31.7324 29.6833L33.5627 30.0056L43.0747 39.9687L27.7369 50.1251H25.9969Z" fill="#CCE1FF"/>
<path d="M39.904 56.9046C47.6701 56.9046 53.9658 50.6089 53.9658 42.8428C53.9658 35.0767 47.6701 28.781 39.904 28.781C32.1379 28.781 25.8422 35.0767 25.8422 42.8428C25.8422 50.6089 32.1379 56.9046 39.904 56.9046Z" fill="white"/>
<path opacity="0.8" d="M39.0276 28.781C31.7453 28.781 25.8422 35.0837 25.8422 42.8428C25.8422 50.6019 31.7453 56.9046 39.0276 56.9046C46.5597 56.582 52.5 50.3818 52.5 42.8428C52.5 35.3038 46.5597 29.1036 39.0276 28.781Z" fill="#D72D30"/>
<path d="M39.904 57.3558C37.9276 57.3639 35.9708 56.9646 34.1555 56.1829C33.9215 56.0824 33.8122 55.812 33.9107 55.5771C33.9561 55.4623 34.0466 55.3711 34.1611 55.3248C34.2755 55.2786 34.404 55.2812 34.5164 55.3322C39.666 57.5638 45.6576 56.4024 49.6004 52.4083C53.5431 48.4142 54.6269 42.4081 52.3289 37.2878C52.2277 37.0527 52.3301 36.7797 52.5609 36.6691C52.7923 36.569 53.0613 36.672 53.1667 36.9011C54.0127 38.7588 54.4521 40.7758 54.4555 42.8171C54.459 46.6763 52.9266 50.3782 50.1965 53.1058C47.4664 55.8335 43.7632 57.3626 39.904 57.3558Z" fill="#525666"/>
<path d="M30.9591 54.1464C30.852 54.1437 30.7484 54.1076 30.6627 54.0433C26.4477 50.6024 24.5092 45.0945 25.6399 39.7723C26.7706 34.45 30.7809 30.2059 36.0307 28.7758C41.2804 27.3457 46.8892 28.9694 50.5631 32.9828C50.7366 33.1626 50.7366 33.4475 50.5631 33.6273C50.4778 33.718 50.3589 33.7694 50.2344 33.7694C50.11 33.7694 49.991 33.718 49.9058 33.6273C46.4623 29.8947 41.2259 28.3919 36.3271 29.7305C31.4283 31.0691 27.6837 35.0259 26.6169 39.9909C25.5501 44.956 27.339 50.1017 31.2555 53.3344C31.3421 53.4192 31.3909 53.5354 31.3909 53.6566C31.3909 53.7779 31.3421 53.894 31.2555 53.9788C31.1834 54.0724 31.0765 54.1328 30.9591 54.1464Z" fill="#525666"/>
<path d="M47.6115 43.2294H32.6089C32.4271 43.2601 32.2444 43.1802 32.1435 43.0259C32.0426 42.8716 32.0426 42.6722 32.1435 42.5179C32.2444 42.3636 32.4271 42.2837 32.6089 42.3143H47.6115C47.8349 42.352 47.9985 42.5454 47.9985 42.7719C47.9985 42.9984 47.8349 43.1918 47.6115 43.2294Z" fill="#FDFDFE"/>
<path fill-rule="evenodd" clip-rule="evenodd" d="M50.3956 9.43492C50.4813 9.49926 50.5849 9.53531 50.692 9.53803C50.7785 9.5298 50.8599 9.4936 50.924 9.43492C51.081 9.37314 51.1904 9.22895 51.2076 9.06114C51.4025 7.38669 52.0735 5.80324 53.1409 4.49847C53.2545 4.37192 53.2847 4.19104 53.2182 4.03447C53.1565 3.87751 53.0123 3.76812 52.8445 3.75092C51.1665 3.56349 49.578 2.89677 48.2689 1.83047C48.1253 1.74759 47.9485 1.74759 47.8049 1.83047C47.6514 1.89674 47.5438 2.03857 47.5213 2.20425C47.3078 3.88555 46.6142 5.46968 45.5236 6.76692C45.4199 6.89859 45.3952 7.07597 45.4591 7.23092C45.5209 7.38789 45.6651 7.49728 45.8329 7.51447C47.5069 7.70217 49.0912 8.369 50.3956 9.43492ZM50.3569 8.24914C49.2605 7.49053 48.0184 6.96821 46.7093 6.71536C47.4693 5.623 47.9958 4.38569 48.256 3.0807C49.3491 3.8367 50.5865 4.35886 51.8907 4.61447C51.1324 5.70627 50.61 6.94416 50.3569 8.24914Z" fill="#D72D30"/>
<path d="M1.03111 35.8442C1.60058 35.8442 2.06222 35.3826 2.06222 34.8131C2.06222 34.2436 1.60058 33.782 1.03111 33.782C0.461644 33.782 0 34.2436 0 34.8131C0 35.3826 0.461644 35.8442 1.03111 35.8442Z" fill="#D72D30"/>
<path d="M44.7244 20.9576C45.6641 20.9576 46.4258 20.1959 46.4258 19.2563C46.4258 18.3166 45.6641 17.5549 44.7244 17.5549C43.7848 17.5549 43.0231 18.3166 43.0231 19.2563C43.0231 20.1959 43.7848 20.9576 44.7244 20.9576Z" fill="#D72D30"/>
</svg>
