<svg id="Layer_1" data-name="Layer 1" xmlns="http://www.w3.org/2000/svg" viewBox="0 0 50 50"><defs><style>.cls-1{fill:#e3f9ff;}.cls-2{fill:#fff;}.cls-3{fill:#525666;}.cls-4{fill:#cce1ff;}.cls-5{fill:#00bdff;}</style></defs><title>Employee onboarding</title><path class="cls-1" d="M44.49,14.92a15.62,15.62,0,0,0-30.38.74A11.68,11.68,0,0,1,10.34,22,14.53,14.53,0,1,0,33.55,37.78a12.44,12.44,0,0,1,4.72-6.06A15.6,15.6,0,0,0,44.49,14.92Z"/><g id="Mask"><path class="cls-2" d="M25.06,22.91c-4.69,0-8.49-4.75-8.49-9.44a8.49,8.49,0,0,1,17,0C33.54,18.16,29.74,22.91,25.06,22.91Z"/></g><g id="Mask-Copy"><path class="cls-2" d="M6,40.84C6.79,30.72,15,25.57,25,25.57s18.5,4.87,19.12,15.27a1.45,1.45,0,0,1-1.59,1.7h-35A2.34,2.34,0,0,1,6,40.84Z"/></g><g id="Mask-2" data-name="Mask"><path class="cls-3" d="M25.06,23.27c-5.06,0-8.85-5.17-8.85-9.8a8.85,8.85,0,0,1,17.69,0C33.9,18.1,30.12,23.27,25.06,23.27Zm0-17.92a8.13,8.13,0,0,0-8.13,8.12c0,4.29,3.48,9.08,8.13,9.08s8.12-4.79,8.12-9.08A8.13,8.13,0,0,0,25.06,5.35Z"/></g><g id="Mask-Copy-2" data-name="Mask-Copy"><path class="cls-3" d="M42.55,42.9h-35a2.07,2.07,0,0,1-1.24-.75,2.17,2.17,0,0,1-.66-1.34h0a15.81,15.81,0,0,1,5.52-11.13c.44-.37.91-.72,1.39-1.05s.88-.55,1.33-.81A23.38,23.38,0,0,1,25,25.21c11.44,0,18.91,6,19.48,15.61A2.08,2.08,0,0,1,44,42.35,2,2,0,0,1,42.55,42.9Zm-36.23-2a1.6,1.6,0,0,0,.48.8,1.48,1.48,0,0,0,.71.51h35a1.29,1.29,0,0,0,1-.32,1.43,1.43,0,0,0,.28-1C43.23,31.51,36.21,25.93,25,25.93A22.54,22.54,0,0,0,14.2,28.45c-.44.24-.87.5-1.28.78a15.93,15.93,0,0,0-1.33,1A15.12,15.12,0,0,0,6.32,40.87Z"/></g><path class="cls-4" d="M25.3,42.18S23.21,39.6,24,34.25a10.75,10.75,0,0,1,5.75-7.93l1.42.25,7.38,7.73-11.9,7.88Z"/><circle class="cls-2" cx="36.09" cy="36.53" r="10.91"/><path class="cls-5" d="M35.41,25.62c-5.65,0-10.23,4.89-10.23,10.91s4.58,10.91,10.23,10.91a10.92,10.92,0,0,0,0-21.82Z"/><path class="cls-3" d="M36.09,47.79a11.16,11.16,0,0,1-4.46-.91.36.36,0,0,1-.19-.47.35.35,0,0,1,.47-.19,10.55,10.55,0,0,0,13.82-14,.37.37,0,0,1,.18-.48.36.36,0,0,1,.47.18,11.12,11.12,0,0,1,1,4.59A11.27,11.27,0,0,1,36.09,47.79Z"/><path class="cls-3" d="M29.15,45.3a.4.4,0,0,1-.23-.08A11.27,11.27,0,1,1,44.36,28.88a.36.36,0,0,1,0,.5.35.35,0,0,1-.51,0A10.55,10.55,0,1,0,29.38,44.67a.35.35,0,0,1,0,.5A.34.34,0,0,1,29.15,45.3Z"/><path class="cls-2" d="M36.25,42.65a.36.36,0,0,1-.36-.36V30.66a.36.36,0,1,1,.72,0V42.29A.36.36,0,0,1,36.25,42.65Z"/><path class="cls-2" d="M42.07,36.83H30.43a.36.36,0,1,1,0-.71H42.07a.36.36,0,0,1,0,.71Z"/><path class="cls-5" d="M44.46,10.69a.4.4,0,0,1-.23-.08,6.79,6.79,0,0,0-3.54-1.49.35.35,0,0,1-.29-.22.36.36,0,0,1,.05-.36A6.84,6.84,0,0,0,42,5a.37.37,0,0,1,.22-.29.36.36,0,0,1,.36,0,6.82,6.82,0,0,0,3.55,1.49.35.35,0,0,1,.29.22.34.34,0,0,1-.06.36,6.84,6.84,0,0,0-1.5,3.54.35.35,0,0,1-.22.29A.31.31,0,0,1,44.46,10.69ZM41.37,8.5A7.46,7.46,0,0,1,44.2,9.69a7.42,7.42,0,0,1,1.19-2.82,7.49,7.49,0,0,1-2.82-1.19A7.51,7.51,0,0,1,41.37,8.5Z"/><circle class="cls-5" cx="5.93" cy="30.3" r="0.8"/><circle class="cls-5" cx="39.83" cy="18.23" r="1.32"/></svg>
