<svg id="Layer_1" data-name="Layer 1" xmlns="http://www.w3.org/2000/svg" viewBox="0 0 50 50"><defs><style>.cls-1{opacity:0.01;}.cls-2{fill:#fff;}.cls-3{fill:#dff4f0;}.cls-4{fill:#4bc2a7;}.cls-5{fill:#525666;}.cls-6{opacity:0.2;}.cls-7{fill:#244663;}.cls-8{fill:#61c1a8;}</style></defs><title>Report an incident</title><g class="cls-1"><rect class="cls-2" x="0.06" y="-0.16" width="49.72" height="49.93"/></g><path class="cls-3" d="M44.56,13.58a17,17,0,0,0-33,.8,12.6,12.6,0,0,1-4.1,6.92A15.8,15.8,0,1,0,32.67,38.44a13.57,13.57,0,0,1,5.14-6.6A17,17,0,0,0,44.56,13.58Z"/><circle class="cls-4" cx="14.88" cy="43.7" r="1.45"/><path class="cls-2" d="M24,9.67,7.2,9.69a4.59,4.59,0,0,1-4.58,4.59l0,18.08a4.58,4.58,0,0,1,4.59,4.58h7.64l24.45,0a4.58,4.58,0,0,1,4.58-4.59V14.24A4.58,4.58,0,0,1,39.3,9.66H26.47"/><path class="cls-5" d="M7.39,37.64A.38.38,0,0,1,7,37.26a4.2,4.2,0,0,0-4.2-4.2h0A.36.36,0,0,1,2.54,33a.36.36,0,0,1-.12-.27V14.61a.39.39,0,0,1,.11-.27.36.36,0,0,1,.26-.11A4.22,4.22,0,0,0,7,10a.39.39,0,0,1,.11-.27.36.36,0,0,1,.26-.11l16.82,0h0a.38.38,0,0,1,.38.38.37.37,0,0,1-.38.37l-16.46,0a4.85,4.85,0,0,1-1.43,3.13A4.94,4.94,0,0,1,3.16,15V32.32a4.93,4.93,0,0,1,3.14,1.44,4.89,4.89,0,0,1,1.44,3.13l31.37,0a5,5,0,0,1,4.57-4.58l0-17.35a5,5,0,0,1-4.57-4.57H26.64a.38.38,0,1,1,0-.75H39.46a.37.37,0,0,1,.37.37A4.22,4.22,0,0,0,44,14.19h0a.37.37,0,0,1,.37.38l0,18.07a.39.39,0,0,1-.11.27.36.36,0,0,1-.26.11,4.2,4.2,0,0,0-4.21,4.21.39.39,0,0,1-.11.27.38.38,0,0,1-.26.11l-32.1,0Z"/><rect class="cls-3" x="9.4" y="14.48" width="28.06" height="18.29" rx="1.37"/><path class="cls-5" d="M10.78,33.16A1.75,1.75,0,0,1,9,31.41L9,15.86a1.74,1.74,0,0,1,1.75-1.74l25.31,0h0a1.75,1.75,0,0,1,1.75,1.75V31.38a1.72,1.72,0,0,1-1.74,1.75ZM36.07,14.84h0l-25.31,0a1,1,0,0,0-1,1l0,15.55a1,1,0,0,0,1,1l25.31,0a1,1,0,0,0,1-1h0V15.84A1,1,0,0,0,36.07,14.84Z"/><line class="cls-2" x1="15.84" y1="20.9" x2="31.01" y2="20.89"/><path class="cls-5" d="M15.84,21.27a.37.37,0,0,1-.38-.37.38.38,0,0,1,.38-.38H31a.38.38,0,0,1,0,.75Z"/><line class="cls-2" x1="19.43" y1="26.36" x2="27.43" y2="26.35"/><path class="cls-5" d="M19.42,26.73a.37.37,0,0,1-.37-.37.38.38,0,0,1,.37-.38h8a.38.38,0,0,1,0,.75Z"/><path class="cls-4" d="M45.33,10a.36.36,0,0,1-.24-.09A7.23,7.23,0,0,0,41.38,8.3a.36.36,0,0,1-.31-.23.38.38,0,0,1,.06-.38A7.13,7.13,0,0,0,42.7,4a.37.37,0,0,1,.61-.25A7.23,7.23,0,0,0,47,5.3a.36.36,0,0,1,.31.23.38.38,0,0,1-.06.38,7.13,7.13,0,0,0-1.57,3.7.38.38,0,0,1-.23.31A.35.35,0,0,1,45.33,10ZM42.09,7.66a7.75,7.75,0,0,1,3,1.24,8,8,0,0,1,1.25-3A7.77,7.77,0,0,1,43.35,4.7,7.86,7.86,0,0,1,42.09,7.66Z"/><g class="cls-6"><path class="cls-7" d="M44.51,27.19a11.9,11.9,0,0,0-7.89-3c-7.66-.08-13,6.24-13,13.27"/></g><circle class="cls-2" cx="36.56" cy="37.02" r="11.43"/><ellipse class="cls-8" cx="36.12" cy="37.02" rx="10.99" ry="11.43"/><path class="cls-5" d="M36.56,48.82a11.74,11.74,0,0,1-4.68-1,.37.37,0,0,1-.19-.49.38.38,0,0,1,.49-.2A11.06,11.06,0,0,0,46.66,32.52a.37.37,0,1,1,.68-.3,11.62,11.62,0,0,1,1,4.8A11.81,11.81,0,0,1,36.56,48.82Z"/><path class="cls-5" d="M29.29,46.21a.36.36,0,0,1-.24-.09A11.8,11.8,0,1,1,45.22,29a.38.38,0,0,1,0,.53.37.37,0,0,1-.53,0,11.05,11.05,0,1,0-15.14,16,.38.38,0,0,1,0,.53A.43.43,0,0,1,29.29,46.21Z"/><path class="cls-2" d="M36.72,43.43a.38.38,0,0,1-.37-.37V30.87a.38.38,0,1,1,.75,0V43.06A.38.38,0,0,1,36.72,43.43Z"/><path class="cls-2" d="M42.82,37.34H30.63a.38.38,0,0,1-.38-.38.37.37,0,0,1,.38-.37H42.82a.37.37,0,0,1,.38.37A.38.38,0,0,1,42.82,37.34Z"/><circle class="cls-4" cx="10.22" cy="5.2" r="0.84"/></svg>