<svg xmlns="http://www.w3.org/2000/svg" viewBox="0 0 49.72 49.93"><g data-name="Layer 2"><g data-name="Layer 1"><path fill="#fff" d="M0 0h49.72v49.93H0z" opacity=".01"/><path fill="#fff3e1" d="M44.53 14.53a15.8 15.8 0 00-30.75.74A11.76 11.76 0 0110 21.72a14.71 14.71 0 1023.49 16 12.56 12.56 0 014.78-6.14 15.78 15.78 0 006.26-17.05z"/><circle cx="8.03" cy="36.77" r="1.29" fill="#ffb401"/><path fill="#525666" d="M17 42.35a4 4 0 01-2.85-1.17 4 4 0 01-1.19-2.86A7.36 7.36 0 0120.27 31h1.19a.38.38 0 110 .75h-1.19a6.6 6.6 0 00-6.59 6.58 3.28 3.28 0 001 2.33 3.24 3.24 0 002.32 1l26.22-.11a.38.38 0 010 .75L17 42.35z"/><path fill="#fff" d="M38.59 35.42H16.73a.9.9 0 01-.9-.8L13.35 14.7h35a.71.71 0 01.69.93l-4.87 15.68a5.84 5.84 0 01-5.58 4.11z"/><path fill="#ffcc73" d="M37.56 35.42h-21a.88.88 0 01-.86-.8L13.35 14.7h33.57a.71.71 0 01.66.93l-4.67 15.68a5.63 5.63 0 01-5.35 4.11z"/><path fill="#525666" d="M30.14 35.49H16.65a1.28 1.28 0 01-1.27-1.13L12.9 14.44a.38.38 0 01.09-.29.39.39 0 01.28-.13H30a.38.38 0 110 .75H13.7l2.42 19.5a.53.53 0 00.53.47h13.49a.37.37 0 01.37.38.36.36 0 01-.37.37zM38.51 35.49h-6a.37.37 0 01-.37-.37.38.38 0 01.37-.38h6a5.43 5.43 0 005.22-3.84l4.87-15.68a.31.31 0 00-.05-.31.32.32 0 00-.27-.14H33.51a.38.38 0 010-.75h14.77a1.09 1.09 0 011 1.42l-4.83 15.68a6.18 6.18 0 01-5.94 4.37z"/><path fill="#525666" d="M15.14 29.41a.39.39 0 01-.38-.33l-2-15.92a3.89 3.89 0 00-3.9-3.92H4.65a.38.38 0 010-.75h4.21a4.63 4.63 0 014.63 4.62l2 15.87a.37.37 0 01-.33.42z"/><circle cx="37.52" cy="42.43" r="3.6" fill="#fff"/><path fill="#525666" d="M37.52 46.4a4 4 0 114-4 4 4 0 01-4 4zm0-7.2a3.23 3.23 0 103.22 3.23 3.23 3.23 0 00-3.22-3.23z"/><circle cx="22.33" cy="42.43" r="3.6" fill="#fff"/><path fill="#525666" d="M22.33 46.4a4 4 0 114-4 4 4 0 01-4 4zm0-7.2a3.23 3.23 0 103.23 3.23 3.23 3.23 0 00-3.23-3.23z"/><path fill="#fff" d="M40.85 22.56H19.23a.38.38 0 110-.75h21.62a.38.38 0 010 .75zM36.23 27.54H23.84a.38.38 0 010-.75h12.39a.38.38 0 010 .75z"/><circle cx="37.51" cy="42.42" r="2.06" fill="#ffe9bd"/><circle cx="22.41" cy="42.47" r="2.06" fill="#ffe9bd"/><path fill="#ffb401" d="M43.05 12a.38.38 0 01-.33-.2 6.64 6.64 0 00-2.64-2.64.36.36 0 010-.65 6.64 6.64 0 002.64-2.64.39.39 0 01.66 0A6.6 6.6 0 0046 8.5a.36.36 0 01.19.33.36.36 0 01-.19.32 6.66 6.66 0 00-2.65 2.64.38.38 0 01-.3.21zM41 8.83a7.13 7.13 0 012.07 2.06 7.38 7.38 0 012.07-2.06 7.55 7.55 0 01-2.07-2.07A7.29 7.29 0 0141 8.83z"/><circle cx="23.16" cy="6.36" r=".84" fill="#ffb401"/></g></g></svg>