<svg xmlns="http://www.w3.org/2000/svg" viewBox="0 0 50 50"><path fill="#dff4f0" d="M44.57 14.92a15.62 15.62 0 00-30.38.74A11.6 11.6 0 0110.43 22a14.53 14.53 0 1023.21 15.78 12.44 12.44 0 014.72-6.06 15.59 15.59 0 006.21-16.8z"/><path fill="#fff" d="M36.36 17.59A11.38 11.38 0 0022.5 6.49a11.36 11.36 0 00-6.22 18.4 16.41 16.41 0 013.8 10.61v.61h9.63v-.37a17.81 17.81 0 014.17-11.06 11.33 11.33 0 002.48-7.09z"/><path fill="#22d6b4" d="M9.22 28.15a.35.35 0 01-.22-.09 7.27 7.27 0 00-3.73-1.56.36.36 0 01-.3-.23.38.38 0 01.03-.38 7.21 7.21 0 001.57-3.7.36.36 0 01.23-.31.38.38 0 01.38.06 7.2 7.2 0 003.71 1.56.35.35 0 01.3.23.38.38 0 01-.05.38 7.05 7.05 0 00-1.57 3.7.4.4 0 01-.23.31.4.4 0 01-.12.03zM6 25.86a7.82 7.82 0 013 1.24 8 8 0 011.25-3 7.82 7.82 0 01-3-1.24 7.84 7.84 0 01-1.25 3z"/><circle cx="15.03" cy="38.09" r=".84" fill="#22d6b4"/><circle cx="40.81" cy="16.93" r="1.38" fill="#22d6b4"/><path fill="#525666" d="M31.62 28.52a.33.33 0 01-.17 0 .36.36 0 01-.16-.5 20.38 20.38 0 012.3-3.54A10.85 10.85 0 0036 17.59 11 11 0 0031.91 9a11.09 11.09 0 00-9.33-2.19 10.6 10.6 0 00-3.91 1.71.38.38 0 01-.53-.09.37.37 0 01.1-.52 11.25 11.25 0 014.18-1.83 11.83 11.83 0 0110 2.34 11.73 11.73 0 011.79 16.45A20.49 20.49 0 0032 28.32a.36.36 0 01-.38.2zM29.71 36.49h-9.63a.38.38 0 01-.37-.38v-.61A16.09 16.09 0 0016 25.14a11.78 11.78 0 01-2.45-10.27 11.69 11.69 0 011.78-4 .37.37 0 01.52-.09.38.38 0 01.1.52 12.89 12.89 0 00-.71 1.16 10.8 10.8 0 00-1 2.59 11 11 0 002.29 9.62 16.83 16.83 0 013.93 10.83v.24h8.87a16.37 16.37 0 01.67-4.47.38.38 0 11.72.21 15.61 15.61 0 00-.61 4.26v.37a.38.38 0 01-.4.38zM30.13 38.47H19.85a.38.38 0 01-.38-.38.37.37 0 01.38-.37h10.28a.37.37 0 01.38.37.38.38 0 01-.38.38z"/><path fill="#fff" d="M29.12 39.59a4.13 4.13 0 01-8.26 0z"/><path fill="#22d6b4" d="M28.12 39.59a3.91 3.91 0 01-3.63 4.13 3.91 3.91 0 01-3.63-4.13z"/><path fill="#525666" d="M25 44.09a4.51 4.51 0 01-4.5-4.5v-.38h6.69a.38.38 0 110 .75h-5.93a3.75 3.75 0 007.48-.37.38.38 0 01.38-.38.37.37 0 01.37.38 4.51 4.51 0 01-4.49 4.5zM23.7 33.47a.38.38 0 01-.38-.38v-8.93h-2.26a2.53 2.53 0 010-5.05h.49a2.53 2.53 0 012.52 2.53v1.77h1.84a.38.38 0 01.38.38.37.37 0 01-.38.37h-1.84v8.93a.38.38 0 01-.37.38zm-2.64-13.61a1.78 1.78 0 000 3.55h2.26v-1.77a1.78 1.78 0 00-1.77-1.78z"/><path fill="#525666" d="M26.29 33.47a.38.38 0 01-.38-.38v-8.93h-1.84a.37.37 0 01-.38-.37.38.38 0 01.38-.38h1.84v-1.77a2.53 2.53 0 012.53-2.53h.48a2.53 2.53 0 010 5.05h-2.26v8.93a.38.38 0 01-.37.38zm.37-10.06h2.26a1.78 1.78 0 000-3.55h-.48a1.78 1.78 0 00-1.78 1.78z"/><path fill="#22d6b4" d="M33.45 14.43a.36.36 0 01-.34-.23 8.4 8.4 0 00-6.42-5.44.38.38 0 01-.3-.44.36.36 0 01.43-.3 9.11 9.11 0 017 5.89.37.37 0 01-.2.49z"/></svg>