<svg xmlns="http://www.w3.org/2000/svg" width="486" height="215" fill="none" viewBox="0 0 486 215"><path fill="#95C11F" d="M178 199.7l1.8-22.4 1.8 22.4c.1 1-.7 1.9-1.6 1.9-1 .1-1.9-.7-1.9-1.6-.1-.1-.1-.2-.1-.3zM181.6 75l-1.8 22.4L178 75c-.1-1 .7-1.9 1.6-1.9 1-.1 1.9.7 1.9 1.6.1.1.1.2.1.3zM117.4 135.6l22.4 1.8-22.4 1.8c-1 .1-1.9-.7-1.9-1.6-.1-1 .7-1.9 1.6-1.9.1-.2.2-.2.3-.1zM242.1 139.101l-22.4-1.8 22.4-1.8c1-.1 1.9.7 1.9 1.6.1 1-.7 1.9-1.7 1.9 0 .2-.1.1-.2.1zM134.4 180.201l17.1-14.6-14.5 17.1c-.6.8-1.8.8-2.5.2-.8-.6-.8-1.8-.2-2.5 0-.1.1-.2.1-.2zM225.1 94.5L208 109.102l14.6-17.1c.6-.8 1.8-.8 2.5-.2.8.6.8 1.8.2 2.5-.1.1-.1.2-.2.2zM137 92l14.6 17.101-17.1-14.6c-.8-.6-.8-1.8-.2-2.5.6-.8 1.8-.8 2.5-.2 0 .1.1.1.2.2zM222.6 182.701l-14.6-17.1 17.1 14.6c.8.6.8 1.8.2 2.5-.6.8-1.8.8-2.5.2-.1-.1-.2-.1-.2-.2zM154.6 194.4l10.1-20.1-6.8 21.4c-.3.9-1.3 1.5-2.3 1.2-.9-.3-1.5-1.3-1.2-2.3.1 0 .1-.1.2-.2zM205 80.3l-10.1 20.101 6.8-21.4c.3-.9 1.3-1.5 2.3-1.2.9.3 1.5 1.3 1.2 2.3-.2 0-.2.1-.2.2zM122.7 112.2l20.1 10.1-21.4-6.8c-.9-.3-1.5-1.3-1.2-2.3.3-.9 1.3-1.5 2.3-1.2l.2.2zM236.8 162.5l-20.1-10.1 21.4 6.8c.9.3 1.5 1.3 1.2 2.3-.3.9-1.3 1.5-2.3 1.2 0-.1-.1-.1-.2-.2zM121.6 159.9l21.4-7-20 10.3c-.9.5-2 .1-2.4-.8-.5-.9-.1-2 .8-2.4 0-.1.1-.1.2-.1zM237.9 114.8l-21.4 7 20-10.4c.9-.5 2-.1 2.4.8.5.9.1 2-.8 2.4 0 .2-.1.2-.2.2zM157.2 79.2l7 21.4-10.4-20c-.5-.9-.1-2 .8-2.4.9-.5 2-.1 2.4.8.2 0 .2.1.2.2zM202.3 195.501l-7-21.4 10.3 20c.5.9.1 2-.8 2.4-.9.5-2 .1-2.4-.8 0 0-.1-.1-.1-.2zM165.5 198l6.3-21.6-2.8 22.3c-.1 1-1 1.7-2 1.6-1-.1-1.7-1-1.6-2 0-.1 0-.2.1-.3zM194.1 76.7l-6.3 21.6 2.8-22.3c.1-1 1-1.7 2-1.6 1 .1 1.7 1 1.6 2-.1.1-.1.2-.1.3zM119.1 123l21.6 6.3-22.3-2.8c-1-.1-1.7-1-1.6-2 .1-1 1-1.7 2-1.6.1.1.2.1.3.1zM240.5 151.7l-21.6-6.3 22.3 2.8c1 .1 1.7 1 1.6 2-.1 1-1 1.7-2 1.6-.2-.1-.3-.1-.3-.1zM126.7 170.1l19.7-10.8-17.7 13.8c-.8.6-1.9.5-2.5-.3-.6-.8-.5-1.9.3-2.5.1-.1.2-.1.2-.2zM232.8 104.601l-19.7 10.8 17.7-13.8c.8-.6 1.9-.5 2.5.3.6.8.5 1.9-.3 2.5 0 .1-.1.1-.2.2zM147 84.3l10.8 19.701-13.8-17.7c-.6-.8-.5-1.9.3-2.5.8-.6 1.9-.5 2.5.3l.2.2zM212.6 190.4l-10.9-19.7 13.8 17.7c.6.8.5 1.9-.3 2.5-.8.6-1.9.5-2.5-.3 0-.1-.1-.1-.1-.2zM143.6 188.1l14-17.6-11 19.6c-.5.9-1.6 1.2-2.4.7-.9-.5-1.2-1.6-.7-2.4 0-.1.1-.2.1-.3zM215.9 86.5l-14 17.6 11-19.6c.5-.9 1.6-1.2 2.4-.7.9.5 1.2 1.6.7 2.4 0 .2 0 .3-.1.3zM129 101.2l17.6 14-19.6-11c-.9-.5-1.2-1.6-.7-2.4.5-.9 1.6-1.2 2.4-.7.1 0 .2 0 .3.1zM230.6 173.5l-17.6-14 19.6 11c.9.5 1.2 1.6.7 2.4-.5.9-1.6 1.2-2.4.7-.2 0-.3 0-.3-.1zM118.3 147.701l22.3-2.6-21.6 6.1c-1 .3-2-.3-2.2-1.2-.3-1 .3-2 1.2-2.2.1-.1.2-.1.3-.1zM241.3 127l-22.3 2.6 21.6-6.1c1-.3 2 .3 2.2 1.2.3 1-.3 2-1.2 2.2-.2.1-.3.1-.3.1zM169.4 75.9l2.6 22.3-6.1-21.6c-.3-1 .3-2 1.2-2.2 1-.3 2 .3 2.2 1.2.1.1.1.2.1.3zM190.1 198.8l-2.6-22.3 6.1 21.6c.3 1-.3 2-1.2 2.2-1 .3-2-.3-2.2-1.2 0-.1-.1-.2-.1-.3zM178.7 174.3l1.1-13.3 1.1 13.3c0 .6-.4 1.1-1 1.1s-1.1-.4-1.1-1c-.1 0-.1 0-.1-.1zM180.8 100.4l-1.1 13.3-1.1-13.3c0-.6.4-1.1 1-1.1s1.1.4 1.1 1c.1 0 .1 0 .1.1zM142.8 136.3l13.3 1.1-13.3 1.1c-.6 0-1.1-.4-1.1-1s.4-1.1 1-1.1c0-.1.1-.1.1-.1zM216.7 138.4l-13.3-1.1 13.3-1.1c.6 0 1.1.4 1.1 1s-.4 1.1-1 1.1c0 .1 0 .1-.1.1zM152.9 162.701l10.2-8.6-8.6 10.2c-.4.4-1.1.5-1.5.1-.4-.4-.5-1.1-.1-1.5-.1-.1-.1-.1 0-.2zM206.6 112.001l-10.2 8.6 8.6-10.2c.4-.4 1.1-.5 1.5-.1.4.4.5 1.1.1 1.5.1.1.1.1 0 .2zM154.4 110.501l8.6 10.2-10.2-8.6c-.4-.4-.5-1.1-.1-1.5.4-.4 1.1-.5 1.5-.1.1-.1.2-.1.2 0zM205.1 164.2l-8.6-10.2 10.2 8.6c.4.4.5 1.1.1 1.5-.4.4-1.1.5-1.5.1-.1.1-.1.1-.2 0zM164.8 171.2l6-11.9-4 12.7c-.2.6-.8.9-1.3.7-.6-.2-.9-.8-.7-1.3v-.2zM194.7 103.5l-6 11.9 4-12.7c.2-.6.8-.9 1.3-.7.6.2.9.8.7 1.3v.2zM145.9 122.401l11.9 6-12.7-4c-.6-.2-.9-.8-.7-1.3.2-.6.8-.9 1.3-.7h.2zM213.6 152.3l-11.9-6 12.7 4c.6.2.9.8.7 1.3-.2.6-.8.9-1.3.7h-.2zM145.3 150.7l12.7-4.2-11.8 6.1c-.5.3-1.2.1-1.4-.5-.3-.5-.1-1.2.5-1.4-.1 0-.1 0 0 0zM214.2 124.001l-12.7 4.2 11.8-6.1c.5-.3 1.2-.1 1.4.5.3.5.1 1.2-.5 1.4.1 0 .1 0 0 0zM166.4 102.901l4.2 12.7-6.1-11.8c-.3-.5-.1-1.2.5-1.4.5-.3 1.2-.1 1.4.5 0-.1 0-.1 0 0zM193.1 171.801l-4.2-12.7 6.1 11.8c.3.5.1 1.2-.5 1.4-.5.3-1.2.1-1.4-.5 0 .1.1.1 0 0zM171.3 173.3l3.7-12.8-1.6 13.2c-.1.6-.6 1-1.2.9-.6-.1-1-.6-.9-1.2v-.1zM188.2 101.4l-3.7 12.8 1.6-13.2c.1-.6.6-1 1.2-.9.6.1 1 .6.9 1.2.1 0 .1 0 0 .1zM143.8 128.9l12.8 3.7-13.2-1.6c-.6-.1-1-.6-.9-1.2.1-.6.6-1 1.2-.9 0-.1 0 0 .1 0zM215.8 145.801l-12.8-3.7 13.2 1.6c.6.1 1 .6.9 1.2-.1.6-.6 1-1.2.9 0 .1-.1 0-.1 0zM148.3 156.8l11.7-6.4-10.5 8.2c-.5.4-1.1.3-1.5-.2-.4-.5-.3-1.1.2-1.5l.1-.1zM211.2 117.9l-11.7 6.4 10.5-8.2c.5-.4 1.1-.3 1.5.2.4.5.3 1.1-.2 1.5 0 0 0 .1-.1.1zM160.3 105.9l6.4 11.7-8.2-10.5c-.4-.5-.3-1.1.2-1.5.5-.4 1.1-.3 1.5.2.1 0 .1.1.1.1zM199.2 168.801l-6.4-11.7 8.2 10.5c.4.5.3 1.1-.2 1.5-.5.4-1.1.3-1.5-.2l-.1-.1zM158.3 167.5l8.3-10.5-6.5 11.6c-.3.5-.9.7-1.5.4-.5-.3-.7-.9-.4-1.5.1.1.1 0 .1 0zM201.2 107.201l-8.3 10.5 6.5-11.6c.3-.5.9-.7 1.5-.4.5.3.7.9.4 1.5 0-.1-.1 0-.1 0zM149.6 115.9l10.5 8.3-11.6-6.5c-.5-.3-.7-.9-.4-1.5.3-.5.9-.7 1.5-.4v.1zM209.9 158.8l-10.5-8.3L211 157c.5.3.7.9.4 1.5-.3.5-.9.7-1.5.4.1 0 0-.1 0-.1zM143.3 143.5l13.2-1.5-12.8 3.6c-.6.2-1.2-.2-1.3-.7-.2-.6.2-1.2.7-1.3.1-.1.2-.1.2-.1zM216.2 131.2l-13.2 1.5 12.8-3.6c.6-.2 1.2.2 1.3.7.2.6-.2 1.2-.7 1.3-.1.1-.1.1-.2.1zM173.6 100.9l1.5 13.2-3.6-12.8c-.2-.6.2-1.2.7-1.3.6-.2 1.2.2 1.3.7.1.1.1.1.1.2zM185.9 173.801l-1.5-13.2 3.6 12.8c.2.6-.2 1.2-.7 1.3-.6.2-1.2-.2-1.3-.7-.1-.1-.1-.1-.1-.2zM179.2 157.4l.6-7.2.6 7.2c0 .3-.2.6-.5.6-.4.1-.7-.2-.7-.6 0 .1 0 .1 0 0zM180.3 117.3l-.6 7.2-.6-7.2c0-.3.2-.6.5-.6.4-.1.7.1.7.6 0-.1 0-.1 0 0zM159.7 136.8l7.2.6-7.2.6c-.3 0-.6-.2-.6-.5-.1-.4.2-.7.6-.7-.1 0-.1 0 0 0zM199.9 137.9l-7.2-.6 7.2-.6c.3 0 .6.2.6.5 0 .4-.2.7-.6.7zM165.2 151.1l5.5-4.7-4.7 5.5c-.2.2-.6.3-.8.1-.3-.2-.3-.5 0-.9-.1.1-.1.1 0 0zM194.4 123.6l-5.5 4.7 4.7-5.5c.2-.2.6-.3.8-.1.2.2.3.5 0 .9 0-.1 0-.1 0 0zM166 122.7l4.7 5.5-5.5-4.7c-.2-.2-.3-.6-.1-.8.2-.2.6-.2.9 0-.1 0 0 0 0 0zM193.6 152l-4.7-5.5 5.5 4.7c.2.2.3.6.1.8-.3.2-.6.2-.9 0zM171.6 155.7l3.3-6.5-2.2 6.9c-.1.3-.4.5-.7.4-.3 0-.5-.4-.4-.8 0 .1 0 .1 0 0zM187.9 119l-3.3 6.5 2.2-6.9c.1-.3.4-.5.7-.4.3 0 .5.4.4.8 0-.1 0-.1 0 0zM161.4 129.2l6.5 3.3-6.9-2.2c-.3-.1-.5-.4-.4-.7.1-.3.4-.5.8-.4-.1 0 0 0 0 0zM198.2 145.5l-6.5-3.3 6.9 2.2c.3.1.5.4.4.7-.1.3-.5.5-.8.4zM161 144.6l6.9-2.3-6.4 3.3c-.3.1-.6 0-.8-.2-.2-.3 0-.6.3-.8zM198.5 130.1l-6.9 2.3 6.4-3.3c.3-.1.6 0 .8.2.2.3.1.6-.3.8.1 0 0 0 0 0zM172.5 118.6l2.3 6.9-3.3-6.4c-.1-.3 0-.6.2-.8.3-.2.6-.1.8.3zM187 156.1l-2.3-6.9 3.3 6.4c.1.3 0 .6-.2.8-.2.2-.6.1-.8-.3zM175.2 156.9l2-7-.9 7.2c0 .3-.3.5-.6.5-.4 0-.6-.3-.5-.7-.1.1-.1 0 0 0zM184.4 117.801l-2 7 .9-7.2c0-.3.3-.5.6-.5s.5.3.5.7c0-.1 0 0 0 0zM160.2 132.7l7 2-7.2-.9c-.3 0-.5-.3-.5-.6s.3-.5.7-.5c-.1 0 0 0 0 0zM199.3 142l-7-2 7.2.9c.3 0 .5.3.5.6s-.3.5-.7.5c.1 0 .1 0 0 0zM162.7 147.9l6.4-3.5-5.7 4.5c-.3.2-.6.2-.8-.1-.3-.3-.3-.6.1-.9-.1.1-.1 0 0 0zM196.9 126.801l-6.4 3.5 5.7-4.5c.3-.2.6-.2.8.1.2.3.2.6-.1.9 0-.1 0 0 0 0zM169.2 120.3l3.5 6.4-4.5-5.7c-.2-.3-.2-.6.1-.8.3-.3.6-.3.9.1 0-.1 0-.1 0 0zM190.3 154.4l-3.5-6.4 4.5 5.7c.2.3.2.6-.1.8-.2.3-.6.3-.9-.1.1.1.1.1 0 0zM168.1 153.7l4.5-5.7-3.5 6.3c-.2.3-.5.4-.8.2-.3-.1-.4-.4-.2-.8 0 .1 0 0 0 0zM191.4 121.001l-4.5 5.7 3.5-6.3c.2-.3.5-.4.8-.2.3.1.4.4.2.8.1-.1 0 0 0 0zM163.4 125.701l5.7 4.5-6.3-3.5c-.3-.2-.4-.5-.2-.8.1-.3.4-.4.8-.2-.1 0 0 0 0 0zM196.1 149l-5.7-4.5 6.3 3.5c.3.2.4.5.2.8-.1.3-.4.4-.8.2.1 0 .1 0 0 0zM159.9 140.7l7.2-.8-7 2c-.3.1-.6-.1-.7-.4 0-.4.2-.7.5-.8zM199.6 134l-7.2.8 7-2c.3-.1.6.1.7.4.1.4-.1.7-.5.8zM176.4 117.5l.8 7.2-2-7c-.1-.3.1-.6.4-.7.4 0 .7.1.8.5zM183.1 157.2l-.8-7.2 2 7c.1.3-.1.6-.4.7-.4 0-.7-.1-.8-.5z"/><path fill="#C664D7" d="M73.5 95.8l1.2-15.4 1.2 15.4c.1.7-.5 1.3-1.1 1.3-.7.1-1.3-.5-1.3-1.1v-.2zM75.9 10l-1.2 15.4L73.5 10c-.1-.7.5-1.3 1.1-1.3.7-.1 1.3.5 1.3 1.1v.2zM31.9 51.7l15.4 1.2-15.4 1.2c-.7.1-1.3-.5-1.3-1.1-.1-.7.5-1.3 1.1-1.3h.2zM117.6 54.1l-15.4-1.2 15.4-1.2c.7-.1 1.3.5 1.3 1.1.1.7-.5 1.3-1.1 1.3h-.2zM43.5 82.3l11.8-10-10 11.8c-.4.5-1.2.6-1.7.1-.5-.4-.6-1.2-.1-1.7-.1-.1 0-.1 0-.2zM105.9 23.5l-11.8 10 10-11.8c.4-.5 1.2-.6 1.7-.1.5.4.6 1.2.1 1.7.1.1 0 .1 0 .2zM45.3 21.7l10 11.8-11.8-10c-.5-.4-.6-1.2-.1-1.7.4-.5 1.2-.6 1.7-.1.1-.1.1 0 .2 0zM104.1 84.1l-10-11.8 11.8 10c.5.4.6 1.2.1 1.7-.4.5-1.2.6-1.7.1-.1.1-.1 0-.2 0zM57.4 92.1l7-13.8L59.7 93c-.2.7-.9 1-1.6.8-.7-.2-1-.9-.8-1.6 0 0 .1 0 .1-.1zM92 13.7l-7 13.8 4.7-14.7c.2-.7.9-1 1.6-.8.7.2 1 .9.8 1.6l-.1.1zM35.5 35.6l13.8 7-14.7-4.7c-.7-.2-1-.9-.8-1.6.2-.7.9-1 1.6-.8 0 0 0 .1.1.1zM113.9 70.2l-13.8-7 14.7 4.7c.7.2 1 .9.8 1.6-.2.7-.9 1-1.6.8 0 0 0-.1-.1-.1zM34.7 68.4l14.7-4.8-13.7 7.1c-.6.3-1.4.1-1.7-.5-.3-.6-.1-1.4.5-1.7.1-.1.2-.1.2-.1zM114.7 37.4L100 42.2l13.7-7.1c.6-.3 1.4-.1 1.7.5.3.6.1 1.4-.5 1.7-.1.1-.2.1-.2.1zM59.2 12.9L64 27.6l-7.1-13.7c-.3-.6-.1-1.4.5-1.7.6-.3 1.4-.1 1.7.5.1.1.1.2.1.2zM90.2 92.9l-4.8-14.7 7.1 13.7c.3.6.1 1.4-.5 1.7-.6.3-1.4.1-1.7-.5-.1-.1-.1-.2-.1-.2zM64.9 94.6l4.3-14.8-1.9 15.3c-.1.7-.7 1.2-1.4 1.1-.7-.1-1.2-.7-1.1-1.4 0 0 .1-.1.1-.2zM84.5 11.2L80.2 26l1.9-15.3c.1-.7.7-1.2 1.4-1.1.7.1 1.2.7 1.1 1.4 0 0 0 .1-.1.2zM33 43.1l14.9 4.3-15.3-1.9c-.7-.1-1.2-.7-1.1-1.4.1-.7.7-1.2 1.4-1.1l.1.1zM116.4 62.7l-14.8-4.3 15.3 1.9c.7.1 1.2.7 1.1 1.4-.1.7-.7 1.2-1.4 1.1 0 0-.1 0-.2-.1zM38.2 75.4l13.5-7.5-12.2 9.5c-.5.4-1.3.3-1.7-.2-.4-.5-.3-1.3.2-1.7.1 0 .2 0 .2-.1zM111.2 30.3l-13.5 7.5 12.2-9.5c.5-.4 1.3-.3 1.7.2.4.5.3 1.3-.2 1.7-.1.1-.2.1-.2.1zM52.2 16.4l7.5 13.5-9.5-12.2c-.4-.5-.3-1.3.2-1.7.5-.4 1.3-.3 1.7.2 0 .1 0 .2.1.2zM97.3 89.4l-7.5-13.5 9.5 12.2c.4.5.3 1.3-.2 1.7-.5.4-1.3.3-1.7-.2-.1-.1-.1-.2-.1-.2zM49.8 87.8l9.6-12.1-7.5 13.5c-.3.6-1.1.8-1.7.5-.6-.3-.8-1.1-.5-1.7.1-.1.1-.1.1-.2zM99.6 18L90 30.1l7.5-13.5c.3-.6 1.1-.8 1.7-.5.6.3.8 1.1.5 1.7-.1.1-.1.1-.1.2zM39.8 28l12.1 9.6-13.5-7.5c-.6-.3-.8-1.1-.5-1.7.3-.6 1.1-.8 1.7-.5.1.1.1.1.2.1zM109.6 77.8l-12.1-9.6 13.5 7.5c.6.3.8 1.1.5 1.7-.3.6-1.1.8-1.7.5-.1-.1-.1-.1-.2-.1zM32.4 60l15.4-1.8-14.9 4.2c-.7.2-1.3-.2-1.5-.9-.2-.7.2-1.3.9-1.5h.1zM117 45.8l-15.4 1.8 14.9-4.2c.7-.2 1.3.2 1.5.9.2.7-.2 1.3-.9 1.5h-.1zM67.6 10.6L69.4 26l-4.2-14.9c-.2-.7.2-1.3.9-1.5.7-.2 1.3.2 1.5.9v.1zM81.8 95.2L80 79.8l4.2 14.9c.2.7-.2 1.3-.9 1.5-.7.2-1.3-.2-1.5-.9v-.1zM74 78.3l.7-9.1.7 9.1c0 .4-.3.8-.7.8-.4 0-.8-.3-.8-.7.1 0 .1-.1.1-.1zM75.4 27.5l-.7 9.1-.7-9.1c0-.4.3-.8.7-.8.4 0 .8.3.8.7-.1 0-.1.1-.1.1zM49.3 52.2l9.1.7-9.1.7c-.4 0-.8-.3-.8-.7 0-.4.3-.8.7-.8 0 .1.1.1.1.1zM100.1 53.6l-9.1-.7 9.1-.7c.4 0 .8.3.8.7 0 .4-.3.8-.7.8 0-.1-.1-.1-.1-.1zM56.2 70.3l7-5.9-5.9 7c-.3.3-.7.3-1 .1-.4-.3-.4-.8-.1-1.2 0 .1 0 .1 0 0zM93.2 35.5l-7 5.9 5.9-7c.3-.3.7-.3 1-.1.4.3.4.8.1 1.2 0-.1 0-.1 0 0zM57.3 34.4l5.9 7-7-5.9c-.3-.3-.3-.7-.1-1 .3-.4.8-.4 1.2-.1-.1 0-.1 0 0 0zM92.2 71.4l-5.9-7 7 5.9c.3.3.3.7.1 1-.4.4-.9.4-1.2.1zM64.4 76.2l4.1-8.2-2.7 8.7c-.1.4-.5.6-.9.5-.4-.1-.6-.5-.5-.9v-.1zM85 29.6l-4.1 8.2 2.8-8.7c.1-.4.5-.6.9-.5.4.1.6.5.5.9l-.1.1zM51.5 42.6l8.2 4.1-8.7-2.8c-.4-.1-.6-.5-.5-.9.1-.4.5-.6.9-.5 0 .1 0 .1.1.1zM98 63.2l-8.2-4.1 8.7 2.8c.4.1.6.5.5.9-.1.4-.5.6-.9.5l-.1-.1zM51 62.1l8.7-2.9-8.1 4.2c-.4.2-.8 0-1-.3-.2-.4 0-.8.3-1h.1zM98.4 43.7l-8.7 2.9 8.1-4.2c.4-.2.8 0 1 .3.2.4 0 .8-.3 1h-.1zM65.5 29.2l2.9 8.7-4.2-8.1c-.2-.4 0-.8.3-1 .4-.2.8 0 1 .3v.1zM83.9 76.6L81 67.9l4.2 8.1c.2.4 0 .8-.3 1-.4.2-.8 0-1-.3v-.1zM68.9 77.6l2.6-8.8-1.1 9.1c0 .4-.4.7-.8.6-.4 0-.7-.4-.6-.8-.1 0-.1 0-.1-.1zM80.5 28.2L77.9 37l1.1-9.1c0-.4.4-.7.8-.6.4 0 .7.4.6.8.2 0 .1 0 .1.1zM50 47.1l8.8 2.6-9.1-1.1c-.4 0-.7-.4-.6-.8 0-.4.4-.7.8-.6 0-.1 0-.1.1-.1zM99.4 58.7l-8.8-2.6 9.1 1.1c.4 0 .7.4.6.8 0 .4-.4.7-.8.6 0 .1 0 .1-.1.1zM53.1 66.3l8-4.4-7.2 5.6c-.3.2-.8.2-1-.1-.3-.4-.2-.8.2-1.1-.1 0 0 0 0 0zM96.3 39.5l-8 4.4 7.2-5.6c.3-.2.8-.2 1 .1.3.4.2.8-.2 1.1.1 0 .1 0 0 0zM61.3 31.3l4.4 8-5.6-7.2c-.2-.3-.2-.8.1-1 .4-.3.8-.2 1.1.2 0-.1 0 0 0 0zM88.1 74.5l-4.4-8 5.6 7.2c.2.3.2.8-.1 1-.4.3-.8.2-1.1-.2 0 .1 0 0 0 0zM60 73.6l5.7-7.2-4.5 8c-.2.4-.6.5-1 .3s-.5-.6-.2-1.1c-.1.1-.1 0 0 0zM89.4 32.2l-5.7 7.2 4.5-8c.2-.4.6-.5 1-.3s.5.6.2 1.1c.1-.1.1 0 0 0zM54 38.2l7.2 5.7-8-4.5c-.4-.2-.5-.6-.3-1s.6-.5 1.1-.2c-.1-.1 0-.1 0 0zM95.4 67.6l-7.2-5.7 8 4.5c.4.2.5.6.3 1s-.6.5-1.1.2c.1.1 0 .1 0 0zM49.6 57.1l9.1-1.1-8.8 2.5c-.4.1-.8-.1-.9-.5-.1-.4.1-.8.5-.9h.1zM99.8 48.7l-9.1 1 8.8-2.5c.4-.1.8.1.9.5.1.4-.1.8-.5.9l-.1.1zM70.5 27.8l1.1 9.1-2.5-8.8c-.1-.4.1-.8.5-.9.4-.1.8.1.9.5v.1zM78.9 78l-1.1-9.1 2.5 8.8c.1.4-.1.8-.5.9-.4.1-.8-.1-.9-.5V78zM74.3 66.7l.4-5 .4 5c0 .2-.1.4-.4.4-.2.1-.4-.1-.4-.4 0 .1 0 0 0 0zM75.1 39.1l-.4 5-.4-5c0-.2.1-.4.4-.4.2-.1.4.1.4.4 0-.1 0 0 0 0zM60.9 52.5l5 .4-5 .4c-.2 0-.4-.1-.4-.4-.1-.2.1-.4.4-.4zM88.5 53.3l-5-.4 5-.4c.2 0 .4.1.4.4.1.2-.1.4-.4.4.1 0 0 0 0 0zM64.7 62.4l3.8-3.2-3.3 3.7c-.1.2-.4.2-.6 0-.1-.1-.1-.3.1-.5-.1 0-.1 0 0 0zM84.8 43.4L81 46.6l3.2-3.8c.1-.2.4-.2.6 0 .1.2.1.4 0 .6zM65.2 42.9l3.2 3.8-3.8-3.2c-.2-.1-.2-.4 0-.6.2-.2.4-.2.6 0 0-.1 0-.1 0 0zM84.2 62.9L81 59.1l3.8 3.2c.2.1.2.4 0 .6-.1.2-.4.2-.6 0 0 .1 0 .1 0 0zM69.1 65.5l2.2-4.4-1.5 4.7c-.1.2-.3.3-.5.3-.2-.1-.3-.3-.2-.6 0 .1 0 .1 0 0zM80.3 40.3L78 44.7l1.5-4.8c.1-.2.3-.3.5-.3.3.2.4.4.3.7 0-.1 0-.1 0 0zM62.1 47.3l4.5 2.2-4.8-1.5c-.2-.1-.3-.3-.3-.5.1-.2.3-.3.6-.2-.1 0-.1 0 0 0zM87.3 58.5l-4.5-2.2 4.8 1.5c.2.1.3.3.3.5-.1.2-.3.3-.6.2.1 0 .1 0 0 0zM61.8 57.9l4.7-1.6-4.4 2.3c-.2.1-.4 0-.5-.2-.1-.1 0-.4.2-.5zM87.6 47.9l-4.7 1.6 4.4-2.3c.2-.1.4 0 .5.2.1.1 0 .4-.2.5zM69.7 40l1.6 4.7-2.3-4.4c-.1-.2 0-.4.2-.5.1-.1.4 0 .5.2zM79.7 65.8l-1.6-4.7 2.3 4.4c.1.2 0 .4-.2.5-.1.1-.4 0-.5-.2zM71.5 66.3l1.4-4.8-.6 4.9c0 .2-.2.4-.4.3-.3.1-.4-.1-.4-.4 0 .1 0 .1 0 0zM77.9 39.5l-1.4 4.8.6-4.9c0-.2.2-.4.4-.3.3-.1.4.1.4.4 0-.1 0-.1 0 0zM61.3 49.7l4.8 1.4-4.9-.6c-.2 0-.4-.2-.3-.4-.1-.3.1-.4.4-.4-.1 0-.1 0 0 0zM88.2 56.1l-4.8-1.4 4.9.6c.2 0 .4.2.3.4 0 .3-.2.4-.4.4zM63 60.2l4.4-2.4-3.9 3.1c-.2.1-.4.1-.6-.1-.2-.2-.2-.5.1-.6-.1 0-.1 0 0 0zM86.5 45.6L82.1 48l3.9-3.1c.2-.1.4-.1.6.1.1.2.1.5-.1.6zM67.4 41.1l2.4 4.4-3.1-3.9c-.1-.2-.1-.4.1-.6.2-.1.5-.1.6.1zM82 64.7l-2.4-4.4 3.1 3.9c.1.2.1.4-.1.6-.2.1-.5.1-.6-.1zM66.7 64.2l3.1-3.9-2.4 4.3c-.1.2-.4.3-.5.2-.3-.2-.3-.4-.2-.6zM82.7 41.6l-3.1 3.9 2.4-4.4c.1-.2.4-.3.5-.2.3.3.4.5.2.7zM63.4 44.9l3.9 3.1-4.4-2.4c-.2-.1-.3-.4-.2-.5.3-.3.5-.4.7-.2zM86 60.9l-3.9-3.1 4.4 2.4c.2.1.3.4.2.5-.3.3-.5.4-.7.2zM61.1 55.2l5-.6-4.9 1.4c-.2.1-.4-.1-.5-.3 0-.2.1-.4.4-.5-.1 0 0 0 0 0zM88.3 50.6l-5 .6 4.8-1.4c.2-.1.4.1.5.3.1.2 0 .4-.3.5.1 0 0 0 0 0zM72.4 39.3l.6 4.9-1.4-4.8c-.1-.2.1-.4.3-.5.2 0 .4.1.5.4 0-.1 0 0 0 0zM77 66.5l-.6-5 1.4 4.8c.1.2-.1.4-.3.5-.2.1-.4 0-.5-.3 0 .1 0 0 0 0z"/><path fill="#E94E1B" d="M376.907 175.907l2.4-29.4 2.4 29.4c.1 1.3-.9 2.4-2.2 2.5-1.3.1-2.4-.9-2.5-2.2-.2 0-.2-.1-.1-.3zM381.607 12.507l-2.4 29.4-2.4-29.4c-.1-1.3.9-2.4 2.2-2.5 1.3-.1 2.4.9 2.5 2.2.1.1.1.2.1.3zM297.507 91.907l29.4 2.4-29.4 2.4c-1.3.1-2.4-.9-2.5-2.2-.1-1.3.9-2.4 2.2-2.5 0-.1.2-.1.3-.1zM460.907 96.607l-29.4-2.4 29.4-2.4c1.3-.1 2.4.9 2.5 2.2.1 1.3-.9 2.4-2.2 2.5 0 .1-.2.1-.3.1zM319.807 150.307l22.4-19.1-19.1 22.5c-.8 1-2.3 1.1-3.3.3s-1.1-2.3-.3-3.3c.1-.2.2-.3.3-.4zM438.607 38.107l-22.4 19.1 19.1-22.4c.8-1 2.3-1.1 3.3-.3s1.1 2.3.3 3.3l-.3.3zM323.107 34.807l19.1 22.4-22.4-19.1c-1-.8-1.1-2.3-.3-3.3s2.3-1.1 3.3-.3l.3.3zM435.307 153.707l-19.1-22.4 22.4 19.1c1 .8 1.1 2.3.3 3.3s-2.3 1.1-3.3.3l-.3-.3zM346.207 169.007l13.3-26.3-8.9 28.1c-.4 1.2-1.7 1.9-3 1.5-1.2-.4-1.9-1.7-1.5-3 0-.1 0-.2.1-.3zM412.207 19.407l-13.3 26.3 8.9-28.1c.4-1.2 1.7-1.9 3-1.5 1.2.4 1.9 1.7 1.5 3 0 .1 0 .2-.1.3zM304.407 61.207l26.3 13.3-28.1-8.9c-1.2-.4-1.9-1.7-1.5-3 .4-1.2 1.7-1.9 3-1.5.1 0 .2 0 .3.1zM454.007 127.207l-26.3-13.3 28.1 8.9c1.2.4 1.9 1.7 1.5 3-.4 1.2-1.7 1.9-3 1.5-.1 0-.2 0-.3-.1zM303.007 123.707l28-9.2-26.2 13.6c-1.2.6-2.6.1-3.2-1-.6-1.2-.1-2.6 1-3.2.1-.1.3-.1.4-.2zM455.407 64.707l-28 9.2 26.2-13.6c1.2-.6 2.6-.1 3.2 1 .6 1.2.1 2.6-1 3.2-.1.1-.3.2-.4.2zM349.707 18.007l9.2 28-13.6-26.2c-.6-1.2-.1-2.6 1-3.2 1.2-.6 2.6-.1 3.2 1 .1.2.1.3.2.4zM408.707 170.407l-9.2-28 13.6 26.2c.6 1.2.1 2.6-1 3.2-1.2.6-2.6.1-3.2-1-.1-.1-.1-.2-.2-.4zM360.407 173.807l8.2-28.3-3.6 29.3c-.2 1.3-1.3 2.2-2.6 2.1-1.3-.1-2.2-1.3-2.1-2.6.1-.3.1-.4.1-.5zM398.007 14.707l-8.2 28.3 3.6-29.3c.2-1.3 1.3-2.2 2.6-2.1 1.3.1 2.2 1.3 2.1 2.6-.1.2-.1.3-.1.5zM299.607 75.507l28.3 8.2-29.2-3.6c-1.3-.2-2.2-1.3-2.1-2.6.2-1.3 1.3-2.2 2.6-2.1.2 0 .3 0 .4.1zM458.807 113.007l-28.3-8.2 29.3 3.6c1.3.2 2.2 1.3 2.1 2.6-.2 1.3-1.3 2.2-2.6 2.1-.3-.1-.4-.1-.5-.1zM309.707 137.207l25.8-14.2-23.2 18.1c-1 .8-2.5.6-3.3-.4-.8-1-.6-2.5.4-3.3.1 0 .2-.1.3-.2zM448.707 51.207l-25.8 14.2 23.2-18.1c1-.8 2.5-.6 3.3.4.8 1 .6 2.5-.4 3.3-.1.1-.2.2-.3.2zM336.207 24.707l14.2 25.8-18.1-23.2c-.8-1-.6-2.5.4-3.3 1-.8 2.5-.6 3.3.4.1.1.1.2.2.3zM422.207 163.707l-14.2-25.8 18.1 23.2c.8 1 .6 2.5-.4 3.3-1 .8-2.5.6-3.3-.4-.1 0-.1-.2-.2-.3zM331.807 160.807l18.3-23.1-14.4 25.7c-.6 1.1-2.1 1.5-3.2.9s-1.5-2.1-.9-3.2c.1-.1.1-.2.2-.3zM426.607 27.607l-18.3 23.1 14.4-25.7c.6-1.1 2.1-1.5 3.2-.9s1.5 2.1.9 3.2c0 .1-.1.2-.2.3zM312.607 46.807l23.1 18.3-25.7-14.4c-1.1-.6-1.5-2.1-.9-3.2s2.1-1.5 3.2-.9c.1.1.2.1.3.2zM445.807 141.607l-23.1-18.3 25.7 14.4c1.1.6 1.5 2.1.9 3.2s-2.1 1.5-3.2.9c-.1 0-.2-.1-.3-.2zM298.607 107.807l29.3-3.4-28.4 8c-1.3.4-2.6-.4-2.9-1.6-.4-1.3.4-2.6 1.6-2.9.1-.1.3-.1.4-.1zM459.807 80.607l-29.3 3.5 28.4-8c1.3-.4 2.6.4 2.9 1.6.4 1.3-.4 2.6-1.6 2.9h-.4zM365.607 13.607l3.4 29.3-8-28.4c-.4-1.3.4-2.6 1.6-2.9 1.3-.4 2.6.4 2.9 1.6.1.2.1.3.1.4zM392.807 174.807l-3.4-29.3 8 28.4c.4 1.3-.4 2.6-1.6 2.9-1.3.4-2.6-.4-2.9-1.6-.1-.1-.1-.2-.1-.4zM377.807 142.707l1.4-17.4 1.4 17.4c.1.8-.5 1.4-1.3 1.5-.8.1-1.4-.5-1.5-1.3v-.2zM380.607 45.807l-1.4 17.4-1.4-17.4c-.1-.8.5-1.4 1.3-1.5.8-.1 1.4.5 1.5 1.3v.2zM330.807 92.807l17.4 1.4-17.4 1.4c-.8.1-1.4-.5-1.5-1.3-.1-.8.5-1.4 1.3-1.5h.2zM427.707 95.607l-17.4-1.4 17.4-1.4c.8-.1 1.4.5 1.5 1.3.1.8-.5 1.4-1.3 1.5h-.2zM344.007 127.507l13.3-11.3-11.3 13.3c-.5.6-1.4.7-2 .2-.6-.5-.7-1.4-.2-2 0-.1.1-.2.2-.2zM414.407 60.907l-13.3 11.4 11.3-13.3c.5-.6 1.4-.7 2-.2.6.5.7 1.4.2 2 0 0-.1.1-.2.1zM345.907 59.007l11.3 13.3-13.3-11.3c-.6-.5-.7-1.4-.2-2 .5-.6 1.4-.7 2-.2.1.1.2.1.2.2zM412.507 129.507l-11.4-13.3 13.3 11.3c.6.5.7 1.4.2 2-.5.6-1.4.7-2 .2 0-.1-.1-.2-.1-.2zM359.607 138.607l7.9-15.6-5.3 16.7c-.2.7-1 1.1-1.8.9-.7-.2-1.1-1-.9-1.8.1-.1.1-.2.1-.2zM398.807 49.907l-7.9 15.6 5.3-16.7c.2-.7 1-1.1 1.8-.9.7.2 1.1 1 .9 1.8-.1 0-.1.1-.1.2zM334.907 74.607l15.6 7.9-16.7-5.3c-.7-.2-1.1-1-.9-1.8.2-.7 1-1.1 1.8-.9 0 .1.1.1.2.1zM423.507 113.807l-15.6-7.9 16.7 5.3c.7.2 1.1 1 .9 1.8-.2.7-1 1.1-1.8.9 0 0-.1-.1-.2-.1zM334.007 111.707l16.6-5.5-15.5 8c-.7.4-1.5.1-1.9-.6-.4-.7-.1-1.5.6-1.9.1.1.1.1.2 0zM424.407 76.707l-16.6 5.5 15.5-8c.7-.4 1.5-.1 1.9.6.4.7.1 1.5-.6 1.9h-.2zM361.707 49.007l5.5 16.6-8.1-15.5c-.4-.7-.1-1.5.6-1.9.7-.4 1.5-.1 1.9.6 0 .1.1.2.1.2zM396.707 139.407l-5.5-16.6 8 15.5c.4.7.1 1.5-.6 1.9-.7.4-1.5.1-1.9-.6.1 0 0-.1 0-.2zM368.107 141.406l4.9-16.8-2.1 17.4c-.1.8-.8 1.3-1.6 1.2-.8-.1-1.3-.8-1.2-1.6-.1-.1 0-.1 0-.2zM390.307 47.007l-4.9 16.8 2.1-17.4c.1-.8.8-1.3 1.6-1.2.8.1 1.3.8 1.2 1.6.1.1 0 .2 0 .2zM332.007 83.106l16.8 4.9-17.4-2.1c-.8-.1-1.3-.8-1.2-1.6.1-.8.8-1.3 1.6-1.2h.2zM426.407 105.307l-16.8-4.9 17.4 2.1c.8.1 1.3.8 1.2 1.6-.1.8-.8 1.3-1.6 1.2-.1.1-.2.1-.2 0zM338.007 119.707l15.3-8.4-13.8 10.8c-.6.5-1.5.4-2-.2-.5-.6-.4-1.5.2-2 .2-.1.2-.1.3-.2zM420.407 68.707l-15.3 8.5 13.8-10.8c.6-.5 1.5-.4 2 .2.5.6.4 1.5-.2 2-.1 0-.2.1-.3.1zM353.707 53.007l8.4 15.3-10.8-13.8c-.5-.6-.4-1.5.2-2 .6-.5 1.5-.4 2 .2.1.2.2.2.2.3zM404.707 135.406l-8.4-15.3 10.8 13.8c.5.6.4 1.5-.2 2-.6.5-1.5.4-2-.2-.1-.1-.2-.2-.2-.3zM351.107 133.707l10.9-13.7-8.5 15.3c-.4.7-1.2.9-1.9.5s-.9-1.2-.5-1.9c-.1-.1 0-.1 0-.2zM407.307 54.707l-10.9 13.7 8.5-15.3c.4-.7 1.2-.9 1.9-.5s.9 1.2.5 1.9c.1.1.1.2 0 .2zM339.707 66.107l13.7 10.9-15.3-8.5c-.7-.4-.9-1.2-.5-1.9s1.2-.9 1.9-.5c.1-.1.2 0 .2 0zM418.707 122.307l-13.7-10.9 15.3 8.5c.7.4.9 1.2.5 1.9s-1.2.9-1.9.5c-.1.1-.2.1-.2 0zM331.407 102.307l17.4-2-16.8 4.8c-.7.2-1.5-.2-1.7-1-.2-.7.2-1.5 1-1.7 0-.1 0-.1.1-.1zM427.007 86.206l-17.4 2 16.8-4.8c.7-.2 1.5.2 1.7 1 .2.7-.2 1.5-1 1.7 0 0 0 .1-.1.1zM371.207 46.407l2 17.4-4.8-16.8c-.2-.7.2-1.5 1-1.7.7-.2 1.5.2 1.7 1 0 0 0 .1.1.1zM387.307 142.006l-2-17.4 4.8 16.8c.2.7-.2 1.5-1 1.7-.7.2-1.5-.2-1.7-1-.1.1-.1 0-.1-.1zM378.407 120.606l.8-9.5.8 9.5c0 .4-.3.8-.7.8-.4 0-.8-.3-.8-.7l-.1-.1zM380.007 67.906l-.8 9.5-.8-9.5c0-.4.3-.8.7-.8.4 0 .8.3.8.7.1 0 .1 0 .1.1zM352.907 93.507l9.5.8-9.5.8c-.4 0-.8-.3-.8-.7 0-.4.3-.8.7-.8 0-.1 0-.1.1-.1zM405.507 95.007l-9.5-.8 9.5-.8c.4 0 .8.3.8.7 0 .4-.3.8-.7.8 0 .1 0 .1-.1.1zM360.007 112.306l7.2-6.2-6.2 7.2c-.3.3-.8.4-1.1.1-.2-.2-.2-.7.1-1.1 0 .1 0 0 0 0zM398.407 76.107l-7.2 6.2 6.2-7.2c.3-.3.8-.4 1.1-.1.2.2.2.7-.1 1.1zM361.107 75.107l6.2 7.2-7.2-6.2c-.3-.3-.4-.8-.1-1.1.2-.3.7-.3 1.1.1 0-.1 0-.1 0 0zM397.307 113.406l-6.2-7.3 7.2 6.2c.3.3.4.8.1 1.1-.2.3-.7.3-1.1 0zM368.607 118.307l4.3-8.5-2.9 9.1c-.1.4-.6.6-1 .5-.4-.1-.6-.6-.5-1l.1-.1zM389.807 70.107l-4.3 8.5 2.9-9.1c.1-.4.6-.6 1-.5.4.1.6.6.5 1 0 0 0 .1-.1.1zM355.107 83.607l8.5 4.3-9.1-2.9c-.4-.1-.6-.6-.5-1 .1-.4.6-.6 1-.5l.1.1zM403.307 104.906l-8.5-4.3 9.1 2.9c.4.1.6.6.5 1-.1.4-.6.6-1 .5 0-.1-.1-.1-.1-.1zM354.607 103.707l9-3-8.4 4.4c-.4.2-.8 0-1-.3-.2-.4 0-.8.3-1 .1 0 .1 0 .1-.1zM403.807 84.707l-9 3 8.4-4.4c.4-.2.8 0 1 .3.2.4 0 .8-.3 1l-.1.1zM369.707 69.707l3 9-4.4-8.4c-.2-.4 0-.8.3-1 .4-.2.8 0 1 .3.1 0 .1 0 .1.1zM388.707 118.807l-3-9 4.4 8.4c.2.4 0 .8-.3 1-.4.2-.8 0-1-.3-.1 0-.1-.1-.1-.1zM373.207 119.907l2.6-9.1-1.2 9.4c-.1.4-.4.7-.8.7-.4-.1-.7-.4-.7-.8 0-.2 0-.2.1-.2zM385.207 68.606l-2.6 9.1 1.2-9.4c.1-.4.4-.7.8-.7.4.1.7.4.7.8 0 .1 0 .1-.1.2zM353.607 88.206l9.1 2.6-9.4-1.2c-.4-.1-.7-.4-.7-.8.1-.4.4-.7.8-.7.1.1.1.1.2.1zM404.807 100.307l-9.1-2.6 9.4 1.2c.4.1.7.4.7.8-.1.4-.4.7-.8.7-.1-.1-.1-.1-.2-.1zM356.807 108.107l8.3-4.6-7.5 5.8c-.3.3-.8.2-1.1-.1-.3-.3-.2-.8.1-1.1h.2zM401.607 80.406l-8.3 4.6 7.5-5.8c.3-.3.8-.2 1.1.1.3.3.2.8-.1 1.1-.1-.1-.2-.1-.2 0zM365.307 71.807l4.6 8.3-5.8-7.5c-.3-.3-.2-.8.1-1.1.3-.3.8-.2 1.1.1v.2zM393.107 116.607l-4.6-8.3 5.8 7.5c.3.3.2.8-.1 1.1-.3.3-.8.2-1.1-.1v-.2zM363.907 115.707l5.9-7.5-4.6 8.3c-.2.4-.7.5-1 .3-.4-.2-.5-.7-.3-1v-.1zM394.507 72.806l-5.9 7.5 4.6-8.3c.2-.4.7-.5 1-.3.4.2.5.7.3 1v.1zM357.707 78.907l7.5 5.9-8.3-4.6c-.4-.2-.5-.7-.3-1 .2-.4.7-.5 1-.3h.1zM400.707 109.506l-7.5-5.9 8.3 4.6c.4.2.5.7.3 1-.2.4-.7.5-1 .3h-.1zM353.207 98.607l9.4-1.1-9.1 2.6c-.4.1-.8-.1-.9-.5-.1-.4.1-.8.5-.9 0-.1.1-.1.1-.1zM405.207 89.807l-9.4 1.1 9.1-2.6c.4-.1.8.1.9.5.1.4-.1.8-.5.9 0 .1-.1.1-.1.1zM374.807 68.207l1.1 9.4-2.6-9.1c-.1-.4.1-.8.5-.9.4-.1.8.1.9.5l.1.1zM383.607 120.207l-1.1-9.4 2.6 9.1c.1.4-.1.8-.5.9-.4.1-.8-.1-.9-.5-.1 0-.1-.1-.1-.1z"/><path fill="#FFDE00" d="M104.4 118.9c-3.9-3.3-4.1-9.6-4.1-9.6s-.1 6.3-4.1 9.6c-3.9 3.3-9.4 3.9-9.4 3.9s6.9 1.4 9.5 4c2.6 2.6 4 9.5 4 9.5s1.4-6.9 4-9.5c2.6-2.6 9.5-4 9.5-4s-5.5-.7-9.4-3.9zM203.2 7.3C201 5.5 201 2 201 2s-.1 3.5-2.2 5.3c-2.2 1.8-5.2 2.2-5.2 2.2s3.8.8 5.3 2.2c1.4 1.4 2.2 5.2 2.2 5.2s.8-3.8 2.2-5.2c1.4-1.4 5.3-2.2 5.3-2.2s-3.2-.4-5.4-2.2z"/><path fill="#259DAB" d="M11.8 90.5C9.2 88.3 9.1 84 9.1 84s-.1 4.3-2.7 6.5S0 93.1 0 93.1s4.7.9 6.4 2.7c1.7 1.7 2.7 6.4 2.7 6.4s.9-4.7 2.7-6.4c1.7-1.7 6.4-2.7 6.4-2.7s-3.8-.4-6.4-2.6zM256.1 10.5c-1.5-1.3-1.6-3.7-1.6-3.7s-.1 2.4-1.6 3.7c-1.5 1.3-3.6 1.5-3.6 1.5s2.7.5 3.7 1.5 1.5 3.7 1.5 3.7.5-2.7 1.5-3.7 3.7-1.5 3.7-1.5-2.1-.2-3.6-1.5zM91.7 180.8c-1.5-1.3-1.6-3.7-1.6-3.7s-.1 2.4-1.6 3.7c-1.5 1.3-3.6 1.5-3.6 1.5s2.7.5 3.7 1.5 1.5 3.7 1.5 3.7.5-2.7 1.5-3.7 3.7-1.5 3.7-1.5-2.1-.3-3.6-1.5z"/><path fill="#95C11F" d="M144.3 59.9c-1.6-1.3-1.7-3.9-1.7-3.9s-.1 2.6-1.7 3.9c-1.6 1.3-3.9 1.6-3.9 1.6s2.9.6 3.9 1.6c1.1 1.1 1.6 3.9 1.6 3.9s.6-2.8 1.6-3.9c1.1-1.1 3.9-1.6 3.9-1.6s-2.1-.3-3.7-1.6z"/><path fill="#E73A3A" d="M142.7 20.7c-1.9-1.6-2-4.7-2-4.7s-.1 3.1-2 4.7-4.7 1.9-4.7 1.9 3.4.7 4.7 2c1.3 1.3 2 4.7 2 4.7s.7-3.4 2-4.7c1.3-1.3 4.7-2 4.7-2s-2.8-.3-4.7-1.9zM231.5 36.4c-1.3-1-1.3-3.1-1.3-3.1s0 2-1.3 3.1c-1.3 1-3 1.3-3 1.3s2.2.4 3 1.3c.8.8 1.3 3 1.3 3s.4-2.2 1.3-3c.8-.8 3-1.3 3-1.3s-1.8-.3-3-1.3zM30.6 136.1c-1.3-1-1.3-3.1-1.3-3.1s0 2-1.3 3.1c-1.3 1-3 1.3-3 1.3s2.2.4 3 1.3c.8.8 1.3 3 1.3 3s.4-2.2 1.3-3c.8-.8 3-1.3 3-1.3s-1.8-.3-3-1.3z"/><path fill="#FFDE00" d="M415.7 152.8c-3.9-3.3-4.1-9.6-4.1-9.6s-.1 6.3-4.1 9.6c-3.9 3.3-9.4 3.9-9.4 3.9s6.9 1.4 9.5 4c2.6 2.6 4 9.5 4 9.5s1.4-6.9 4-9.5c2.6-2.6 9.5-4 9.5-4s-5.5-.6-9.4-3.9z"/><path fill="#95C11F" d="M296.6 47.7c-2.2-1.8-2.2-5.3-2.2-5.3s-.1 3.5-2.2 5.3c-2.2 1.8-5.2 2.2-5.2 2.2s3.8.8 5.3 2.2c1.4 1.4 2.2 5.2 2.2 5.2s.8-3.8 2.2-5.2c1.4-1.4 5.3-2.2 5.3-2.2s-3.3-.4-5.4-2.2z"/><path fill="#259DAB" d="M310.8 6.5c-2.6-2.2-2.7-6.5-2.7-6.5s-.1 4.3-2.7 6.5-6.4 2.6-6.4 2.6 4.7.9 6.4 2.7c1.7 1.7 2.7 6.4 2.7 6.4s.9-4.7 2.7-6.4c1.7-1.7 6.4-2.7 6.4-2.7s-3.8-.4-6.4-2.6zM348.9 147.1c-1.5-1.3-1.6-3.7-1.6-3.7s-.1 2.4-1.6 3.7c-1.5 1.3-3.6 1.5-3.6 1.5s2.7.5 3.7 1.5 1.5 3.7 1.5 3.7.5-2.7 1.5-3.7 3.7-1.5 3.7-1.5-2.1-.2-3.6-1.5z"/><path fill="#FFDE00" d="M366 208.2c-1.5-1.3-1.6-3.7-1.6-3.7s-.1 2.4-1.6 3.7c-1.5 1.3-3.6 1.5-3.6 1.5s2.7.5 3.7 1.5 1.5 3.7 1.5 3.7.5-2.7 1.5-3.7 3.7-1.5 3.7-1.5-2.1-.2-3.6-1.5z"/><path fill="#95C11F" d="M262.3 88.9c-1.6-1.3-1.7-3.9-1.7-3.9s-.1 2.6-1.7 3.9c-1.6 1.3-3.9 1.6-3.9 1.6s2.9.6 3.9 1.6c1.1 1.1 1.6 3.9 1.6 3.9s.6-2.8 1.6-3.9c1.1-1.1 3.9-1.6 3.9-1.6s-2.1-.2-3.7-1.6z"/><path fill="#E73A3A" d="M480.7 39.7c-1.9-1.6-2-4.7-2-4.7s-.1 3.1-2 4.7-4.7 1.9-4.7 1.9 3.4.7 4.7 2c1.3 1.3 2 4.7 2 4.7s.7-3.4 2-4.7c1.3-1.3 4.7-2 4.7-2s-2.8-.3-4.7-1.9zM443.6 11.1c-1.3-1-1.3-3.1-1.3-3.1s0 2-1.3 3.1c-1.3 1-3 1.3-3 1.3s2.2.4 3 1.3c.8.8 1.3 3 1.3 3s.4-2.2 1.3-3c.8-.8 3-1.3 3-1.3s-1.7-.3-3-1.3zM304.9 163.5c-1.3-1-1.3-3.1-1.3-3.1s0 2-1.3 3.1c-1.3 1-3 1.3-3 1.3s2.2.4 3 1.3c.8.8 1.3 3 1.3 3s.4-2.2 1.3-3c.8-.8 3-1.3 3-1.3s-1.8-.2-3-1.3z"/><path fill="#fff" d="M333.4 103.001c.1-.1.1-.1 0 0 .1-.1.1 0 .1 0h-.1zm-145.7-1.7c.2.6.4 1.2.7 1.7 0 .1.1.1.1.2-.4-.1-.7-.1-1.1-.1h-1.2l1.5-1.8zm133.5 1.8l.1-.1.1.1h-.2zm-211.9 1.2c-1.4 1.1-2.4 1.6-3 1.8-.8.3-1.2.3-1.5.2-.2 0-.3-.1-.5-.3-.3-.3-.5-.7-.7-1.3-.3-.8-.4-1.8-.4-2.9 0-1.2.2-2.6.6-4.2.2-.9.6-1.9 1-3 .4-1.2.9-2.4 1.5-3.7.5-1.3 1.2-2.5 1.9-3.8.2-.5.5-.9.8-1.3.1.8.3 1.6.7 2.3.7 1.1 1.6 2.1 2.8 2.8 1.1.6 2.2 1 3.5 1.2 1.2.2 2.4.1 3.4-.3-.2.3-.3.6-.5.9-1 1.7-2.1 3.3-3.2 4.8-1.1 1.4-2.2 2.8-3.3 4-1.1 1-2.2 2-3.1 2.8z"/></svg>