<svg xmlns="http://www.w3.org/2000/svg" width="108" height="122" viewBox="0 0 108 122"><g fill="none" fill-rule="evenodd"><path fill="#FD5" fill-rule="nonzero" d="M104.505 23.3c-28.3-7.6-50.1-23-50.5-23.3-.4.3-22.2 15.7-50.5 23.3-2.2.6-3.6 2.5-3.5 4.5 1 15.7 7.9 78 54 94 46.1-16 53-78.3 54-94 .1-2-1.3-3.9-3.5-4.5zm-7 3.4l.9.2c.6.2 1.1.4 1.6.7.5.4.7 1.1.3 1.6-.2.3-.6.5-1 .5-.2 0-.5-.1-.7-.2-.3-.2-.6-.3-.9-.4l-.9-.2c-.6-.2-1-.8-.8-1.4.3-.6.9-.9 1.5-.8zm-6.6-2c.7.2 1.4.5 2.2.7.6.2 1 .9.8 1.5-.2.5-.6.8-1.1.8-.1 0-.2 0-.4-.1-.7-.2-1.5-.5-2.2-.7-.6-.2-.9-.9-.7-1.5.1-.6.8-.9 1.4-.7zm-38.5-17.3l.9-.6c.1-.1.1-.1.2-.1.3-.2.7-.2 1 0 .1.1.2.1.3.2l.8.6c.5.4.7 1.1.3 1.6-.2.3-.6.5-1 .5-.2 0-.5-.1-.7-.2l-.2-.2-.3.2c-.5.4-1.3.2-1.6-.3-.4-.6-.2-1.3.3-1.7zm-37.5 18c.7-.2 1.5-.5 2.2-.7.6-.2 1.3.1 1.5.7.2.6-.1 1.3-.7 1.5-.7.2-1.5.5-2.2.7-.1 0-.2.1-.4.1-.5 0-1-.3-1.1-.8-.2-.6.1-1.3.7-1.5zm-6.9 2.3c.5-.3 1-.6 1.6-.7l.9-.2c.6-.2 1.3.2 1.5.8.2.6-.2 1.3-.8 1.5l-.9.2c-.3.1-.6.2-.9.4-.2.1-.4.2-.7.2-.4 0-.8-.2-1-.5-.4-.6-.3-1.3.3-1.7zm-2.1 7.5c-.1-.9-.1-1.6-.2-2.3 0-.6.4-1.2 1.1-1.3.6 0 1.2.4 1.3 1.1 0 .7.1 1.5.2 2.3.1.6-.4 1.2-1.1 1.3h-.1c-.6 0-1.1-.5-1.2-1.1zm.8 7c-.1-.8-.2-1.6-.3-2.3-.1-.6.4-1.2 1-1.3.6-.1 1.2.4 1.3 1 .1.7.2 1.5.3 2.3.1.6-.4 1.2-1 1.3h-.2c-.5 0-1-.4-1.1-1zm1.2 7c-.1-.8-.3-1.6-.4-2.3-.1-.6.3-1.3 1-1.4.6-.1 1.2.3 1.4 1 .1.7.3 1.5.4 2.3.1.6-.3 1.3-.9 1.4h-.2c-.7-.1-1.2-.5-1.3-1zm1.4 6.9c-.2-.8-.4-1.5-.5-2.3-.1-.6.3-1.3.9-1.4.6-.1 1.3.3 1.4.9.2.7.3 1.5.5 2.2.1.6-.2 1.3-.9 1.4h-.3c-.5.1-1-.3-1.1-.8zm1.8 6.8c-.2-.8-.4-1.5-.6-2.3-.2-.6.2-1.3.8-1.4.6-.2 1.3.2 1.4.8.2.7.4 1.5.6 2.2.2.6-.2 1.3-.8 1.5h-.3c-.5.1-1-.2-1.1-.8zm3.2 7.6c-.5 0-.9-.3-1.1-.8-.3-.7-.5-1.5-.8-2.2-.2-.6.1-1.3.8-1.5.6-.2 1.3.1 1.5.8.2.7.5 1.4.7 2.2.2.6-.1 1.3-.7 1.5h-.4zm2.6 6.5c-.5 0-.9-.3-1.1-.7-.3-.7-.6-1.4-.9-2.2-.2-.6.1-1.3.7-1.5.6-.2 1.3.1 1.5.7l.9 2.1c.3.6 0 1.3-.6 1.5-.2.1-.4.1-.5.1zm2.9 6.4c-.4 0-.8-.2-1.1-.6-.4-.7-.7-1.4-1-2.1-.3-.6 0-1.3.6-1.6.6-.3 1.3 0 1.6.6.3.7.7 1.4 1 2.1.3.6.1 1.3-.5 1.6-.2-.1-.4 0-.6 0zm4.1 5.9c-.2.1-.4.2-.6.2-.4 0-.8-.2-1-.6-.4-.7-.8-1.3-1.2-2-.3-.6-.1-1.3.4-1.6.6-.3 1.3-.1 1.6.4.4.7.8 1.3 1.2 2 .3.5.1 1.2-.4 1.6zm-1.6-63.9c-.1.1-.3.1-.4.1-.5 0-.9-.3-1.1-.8-.2-.6.1-1.3.7-1.5.7-.3 1.4-.5 2.1-.8.6-.2 1.3.1 1.5.7.2.6-.1 1.3-.7 1.5-.6.2-1.3.5-2.1.8zm5.6 69.6c-.2.2-.5.2-.7.2-.4 0-.7-.2-.9-.5-.5-.6-.9-1.3-1.4-1.9-.4-.5-.2-1.3.3-1.6.5-.4 1.3-.3 1.6.3.4.6.9 1.2 1.3 1.8.4.6.3 1.3-.2 1.7zm.5-72.2c-.5 0-.9-.3-1.1-.7-.3-.6 0-1.3.6-1.5l2.1-.9c.6-.3 1.3 0 1.6.6.3.6 0 1.3-.6 1.6l-2.1.9h-.5zm4.1 77.5c-.2.2-.5.3-.8.3-.3 0-.6-.1-.9-.4-.5-.6-1.1-1.2-1.6-1.7-.4-.5-.4-1.2.1-1.7.5-.4 1.2-.4 1.7.1.5.6 1 1.1 1.5 1.7.5.5.5 1.2 0 1.7zm5.2 4.7c-.2.3-.6.4-.9.4-.3 0-.5-.1-.8-.3-.6-.5-1.2-1-1.8-1.6-.5-.4-.5-1.2-.1-1.7s1.2-.5 1.7-.1c.6.5 1.1 1 1.7 1.5.5.5.6 1.3.2 1.8zm-.3-86.2c-.7.3-1.4.7-2.1 1-.2.1-.3.1-.5.1-.4 0-.9-.2-1.1-.7-.3-.6 0-1.3.6-1.6.7-.3 1.4-.7 2.1-1 .6-.3 1.3-.1 1.6.5.3.6 0 1.4-.6 1.7zm6 90.2c-.2.4-.6.5-1 .5-.2 0-.4-.1-.6-.2-.7-.4-1.3-.9-2-1.3-.5-.4-.7-1.1-.3-1.6.4-.5 1.1-.6 1.6-.3.6.4 1.2.9 1.9 1.3.6.3.7 1.1.4 1.6zm.2-93.5c-.7.4-1.3.7-2.1 1.1-.2.1-.4.1-.6.1-.4 0-.8-.2-1-.6-.3-.6-.1-1.3.5-1.6.7-.4 1.4-.7 2-1.1.6-.3 1.3-.1 1.6.5.4.6.2 1.3-.4 1.6zm5.9 96.8c-.2.4-.6.7-1.1.7-.2 0-.3 0-.5-.1-.7-.3-1.4-.7-2.1-1.1-.6-.3-.8-1-.5-1.6.3-.6 1-.8 1.6-.5.7.4 1.3.7 2 1 .7.3.9 1 .6 1.6zm.2-100.4c-.6.4-1.3.8-2 1.2-.2.1-.4.2-.6.2-.4 0-.8-.2-1-.6-.3-.6-.1-1.3.4-1.6.7-.4 1.4-.8 2-1.2.5-.3 1.3-.2 1.6.4.4.6.2 1.3-.4 1.6zm5.8 102.9l-1.1.4c-.1 0-.3.1-.4.1-.1 0-.3 0-.4-.1l-1.1-.4c-.6-.2-.9-.9-.7-1.5.2-.6.9-.9 1.5-.7l.7.3.7-.2c.6-.2 1.3.1 1.5.7.2.5-.1 1.1-.7 1.4zm2.4-104.5c.3-.6 1.1-.7 1.6-.4.6.4 1.3.8 2 1.2.6.3.7 1.1.4 1.6-.2.4-.6.6-1 .6-.2 0-.4-.1-.6-.2-.7-.4-1.4-.8-2-1.2-.6-.3-.8-1-.4-1.6zm4.2 101.5c-.7.4-1.4.7-2.1 1.1-.2.1-.3.1-.5.1-.4 0-.9-.2-1.1-.7-.3-.6 0-1.3.6-1.6.7-.3 1.4-.7 2-1 .6-.3 1.3-.1 1.6.5.3.6 0 1.3-.5 1.6zm1.8-97.9c.3-.6 1-.8 1.6-.5l2 1.1c.6.3.8 1 .5 1.6-.2.4-.6.6-1 .6-.2 0-.4 0-.6-.1-.7-.4-1.4-.8-2.1-1.1-.5-.3-.7-1-.4-1.6zm4.2 94.2c-.6.5-1.3.9-2 1.3-.2.1-.4.2-.6.2-.4 0-.8-.2-1-.5-.4-.5-.2-1.3.4-1.6.6-.4 1.3-.8 1.9-1.3.5-.4 1.3-.3 1.6.3.4.5.3 1.2-.3 1.6zm5.6-4.5c-.6.5-1.2 1.1-1.8 1.6-.2.2-.5.3-.8.3-.3 0-.7-.1-.9-.4-.4-.5-.4-1.2.1-1.7.6-.5 1.1-1 1.7-1.5.5-.4 1.2-.4 1.7.1.5.4.5 1.2 0 1.6zm.6-84.3c-.2.4-.6.7-1.1.7-.2 0-.3 0-.5-.1-.7-.3-1.4-.7-2.1-1-.6-.3-.8-1-.5-1.6.3-.6 1-.8 1.6-.5.7.3 1.4.7 2.1 1 .5.2.8.9.5 1.5zm4.4 79.2c-.5.6-1 1.2-1.6 1.8-.2.2-.5.4-.9.4-.3 0-.6-.1-.8-.3-.5-.4-.5-1.2-.1-1.7.5-.6 1-1.1 1.5-1.7.4-.5 1.2-.5 1.7-.1.6.4.6 1.1.2 1.6zm.4-75.8l-2.1-.9c-.6-.3-.9-1-.6-1.6.3-.6 1-.9 1.6-.6l2.1.9c.6.3.9.9.6 1.5-.2.4-.6.7-1.1.7-.2.1-.3.1-.5 0zm4 70.2c-.5.6-.9 1.3-1.4 1.9-.2.3-.6.5-.9.5-.2 0-.5-.1-.7-.2-.5-.4-.6-1.1-.2-1.7.5-.6.9-1.2 1.3-1.8.4-.5 1.1-.6 1.6-.3.6.3.7 1.1.3 1.6zm-.3-69.9c.2-.6.9-.9 1.5-.7.7.3 1.4.6 2.1.8.6.2.9.9.7 1.5-.2.5-.6.8-1.1.8-.1 0-.3 0-.4-.1-.7-.3-1.5-.6-2.2-.8-.5-.2-.8-.9-.6-1.5zm4.1 63.9c-.4.7-.8 1.4-1.2 2-.2.4-.6.6-1 .6-.2 0-.4-.1-.6-.2-.6-.3-.7-1.1-.4-1.6.4-.6.8-1.3 1.2-2 .3-.6 1.1-.8 1.6-.4.6.3.8 1 .4 1.6zm3.4-6.3c-.3.7-.7 1.4-1 2.1-.2.4-.6.6-1.1.6-.2 0-.4 0-.5-.1-.6-.3-.8-1-.5-1.6.3-.7.7-1.4 1-2.1.3-.6 1-.8 1.6-.6.5.4.7 1.1.5 1.7zm1.9-4.3c-.2.5-.6.7-1.1.7-.2 0-.3 0-.5-.1-.6-.3-.9-.9-.6-1.5l.9-2.1c.2-.6.9-.9 1.5-.7.6.2.9.9.7 1.5-.3.8-.6 1.5-.9 2.2zm2.6-6.6c-.2.5-.6.8-1.1.8-.1 0-.3 0-.4-.1-.6-.2-.9-.9-.7-1.5.3-.7.5-1.4.7-2.2.2-.6.9-1 1.5-.8.6.2 1 .9.8 1.5-.3.8-.6 1.6-.8 2.3zm2.1-6.7c-.1.5-.6.9-1.1.9h-.3c-.6-.2-1-.8-.8-1.5.2-.7.4-1.5.6-2.2.2-.6.8-1 1.4-.8.6.2 1 .8.8 1.4-.2.7-.4 1.4-.6 2.2zm1.8-6.9c-.1.5-.6.9-1.1.9h-.3c-.6-.1-1-.8-.9-1.4.2-.8.3-1.5.5-2.2.1-.6.8-1.1 1.4-.9.6.1 1 .8.9 1.4-.1.7-.3 1.4-.5 2.2zm1.4-6.9c-.1.6-.6 1-1.2 1h-.2c-.6-.1-1.1-.7-.9-1.4.1-.8.3-1.5.4-2.3.1-.6.7-1.1 1.4-1 .6.1 1.1.7 1 1.4-.2.7-.3 1.5-.5 2.3zm1.2-7c-.1.6-.6 1-1.2 1h-.2c-.6-.1-1.1-.7-1-1.3.1-.8.2-1.6.3-2.3.1-.6.7-1.1 1.3-1 .6.1 1.1.7 1 1.3 0 .7-.1 1.5-.2 2.3zm.8-7c-.1.6-.6 1.1-1.2 1.1h-.1c-.6-.1-1.1-.6-1.1-1.3.1-.8.1-1.6.2-2.3 0-.6.6-1.1 1.3-1.1.6 0 1.1.6 1.1 1.3-.1.7-.2 1.4-.2 2.3z"/><path fill="#FFF" d="M54.026 70.362c1.87-.338 3.537-1.424 3.614-3.882.083-2.63-1.865-3.49-3.911-4.034v-3.52c.59.299.993.68 1.229 1.15.357.708.703 1.439 1.622.974 1.024-.519.814-1.509.246-2.104-.855-.896-1.948-1.558-3.144-2.476l-.51-1.067-1.021 1.624c-2.327.68-3.133 1.48-3.28 3.28-.22 2.67 1.582 3.515 3.614 4.144v4.028c-1.088-.31-1.472-1.113-1.736-1.998-.234-.785-.825-1.172-1.452-.794-.4.24-.726 1.034-.675 1.538.128 1.264.995 2.098 2.1 2.625.57.271 1.191.431 1.5.54l.847 2.096.957-2.124m-2.728-19.536l-.51 1.162.128.102c.39-.506.685-1.205 1.197-1.46.435-.218 1.29-.124 1.65.193.47.414.636 1.183 1.135 1.743-.09-.649-.182-1.297-.313-2.226.844.48 1.556.77 2.135 1.23 4.686 3.737 8.258 8.314 9.858 14.214.396 1.46.444 3.14.18 4.632-.448 2.549-1.94 4.266-4.666 4.733-5.755.987-11.517 1.005-17.265.144-4.348-.651-6.554-4.135-5.612-8.591 1.15-5.44 4.34-9.628 8.2-13.359 1.093-1.057 2.367-1.924 3.558-2.878l.325.36zm-2.828-8.244l1.31 2.44.187-.066c-.266-.936-.47-1.895-.815-2.799-.304-.798-.103-1.233.655-1.503 2.854-1.013 5.642-.817 8.556.368l-1.175 3.086.155.09 1.038-1.18c1.864.968 2.108 2.079.807 3.623a218.247 218.247 0 01-2.817 3.256c-.635.725-.642.718-1.776.187l.513-1.54c-.888 2.498-3.252 1.07-4.772 1.826-.147.073-.58-.283-.788-.522-1.055-1.214-2.072-2.46-3.117-3.683-.59-.691-.527-1.418.034-2.004.551-.576 1.255-1.001 2.005-1.58zm5.219 26.797c1.161-.313 1.822-.887 1.753-2.084-.064-1.112-.784-1.465-1.753-1.613v3.697zm-1.184-9.777c-1.066.286-1.705.833-1.452 1.788.15.57.74 1.021 1.131 1.526l.32-.247v-3.067z"/></g></svg>