<svg xmlns="http://www.w3.org/2000/svg" xmlns:xlink="http://www.w3.org/1999/xlink" width="108" height="122" viewBox="0 0 108 122"><defs><path id="fs-842xd6yzfa" d="M28.995.016V29.75H0V.016h28.995z"/></defs><g fill="none" fill-rule="evenodd"><path fill="#FF936E" fill-rule="nonzero" d="M104.505 23.3c-28.3-7.6-50.1-23-50.5-23.3-.4.3-22.2 15.7-50.5 23.3-2.2.6-3.6 2.5-3.5 4.5 1 15.7 7.9 78 54 94 46.1-16 53-78.3 54-94 .1-2-1.3-3.9-3.5-4.5zm-7 3.4l.9.2c.6.2 1.1.4 1.6.7.5.4.7 1.1.3 1.6-.2.3-.6.5-1 .5-.2 0-.5-.1-.7-.2-.3-.2-.6-.3-.9-.4l-.9-.2c-.6-.2-1-.8-.8-1.4.3-.6.9-.9 1.5-.8zm-6.6-2c.7.2 1.4.5 2.2.7.6.2 1 .9.8 1.5-.2.5-.6.8-1.1.8-.1 0-.2 0-.4-.1-.7-.2-1.5-.5-2.2-.7-.6-.2-.9-.9-.7-1.5.1-.6.8-.9 1.4-.7zm-38.5-17.3l.9-.6c.1-.1.1-.1.2-.1.3-.2.7-.2 1 0 .1.1.2.1.3.2l.8.6c.5.4.7 1.1.3 1.6-.2.3-.6.5-1 .5-.2 0-.5-.1-.7-.2l-.2-.2-.3.2c-.5.4-1.3.2-1.6-.3-.4-.6-.2-1.3.3-1.7zm-37.5 18c.7-.2 1.5-.5 2.2-.7.6-.2 1.3.1 1.5.7.2.6-.1 1.3-.7 1.5-.7.2-1.5.5-2.2.7-.1 0-.2.1-.4.1-.5 0-1-.3-1.1-.8-.2-.6.1-1.3.7-1.5zm-6.9 2.3c.5-.3 1-.6 1.6-.7l.9-.2c.6-.2 1.3.2 1.5.8.2.6-.2 1.3-.8 1.5l-.9.2c-.3.1-.6.2-.9.4-.2.1-.4.2-.7.2-.4 0-.8-.2-1-.5-.4-.6-.3-1.3.3-1.7zm-2.1 7.5c-.1-.9-.1-1.6-.2-2.3 0-.6.4-1.2 1.1-1.3.6 0 1.2.4 1.3 1.1 0 .7.1 1.5.2 2.3.1.6-.4 1.2-1.1 1.3h-.1c-.6 0-1.1-.5-1.2-1.1zm.8 7c-.1-.8-.2-1.6-.3-2.3-.1-.6.4-1.2 1-1.3.6-.1 1.2.4 1.3 1 .1.7.2 1.5.3 2.3.1.6-.4 1.2-1 1.3h-.2c-.5 0-1-.4-1.1-1zm1.2 7c-.1-.8-.3-1.6-.4-2.3-.1-.6.3-1.3 1-1.4.6-.1 1.2.3 1.4 1 .1.7.3 1.5.4 2.3.1.6-.3 1.3-.9 1.4h-.2c-.7-.1-1.2-.5-1.3-1zm1.4 6.9c-.2-.8-.4-1.5-.5-2.3-.1-.6.3-1.3.9-1.4.6-.1 1.3.3 1.4.9.2.7.3 1.5.5 2.2.1.6-.2 1.3-.9 1.4h-.3c-.5.1-1-.3-1.1-.8zm1.8 6.8c-.2-.8-.4-1.5-.6-2.3-.2-.6.2-1.3.8-1.4.6-.2 1.3.2 1.4.8.2.7.4 1.5.6 2.2.2.6-.2 1.3-.8 1.5h-.3c-.5.1-1-.2-1.1-.8zm3.2 7.6c-.5 0-.9-.3-1.1-.8-.3-.7-.5-1.5-.8-2.2-.2-.6.1-1.3.8-1.5.6-.2 1.3.1 1.5.8.2.7.5 1.4.7 2.2.2.6-.1 1.3-.7 1.5h-.4zm2.6 6.5c-.5 0-.9-.3-1.1-.7-.3-.7-.6-1.4-.9-2.2-.2-.6.1-1.3.7-1.5.6-.2 1.3.1 1.5.7l.9 2.1c.3.6 0 1.3-.6 1.5-.2.1-.4.1-.5.1zm2.9 6.4c-.4 0-.8-.2-1.1-.6-.4-.7-.7-1.4-1-2.1-.3-.6 0-1.3.6-1.6.6-.3 1.3 0 1.6.6.3.7.7 1.4 1 2.1.3.6.1 1.3-.5 1.6-.2-.1-.4 0-.6 0zm4.1 5.9c-.2.1-.4.2-.6.2-.4 0-.8-.2-1-.6-.4-.7-.8-1.3-1.2-2-.3-.6-.1-1.3.4-1.6.6-.3 1.3-.1 1.6.4.4.7.8 1.3 1.2 2 .3.5.1 1.2-.4 1.6zm-1.6-63.9c-.1.1-.3.1-.4.1-.5 0-.9-.3-1.1-.8-.2-.6.1-1.3.7-1.5.7-.3 1.4-.5 2.1-.8.6-.2 1.3.1 1.5.7.2.6-.1 1.3-.7 1.5-.6.2-1.3.5-2.1.8zm5.6 69.6c-.2.2-.5.2-.7.2-.4 0-.7-.2-.9-.5-.5-.6-.9-1.3-1.4-1.9-.4-.5-.2-1.3.3-1.6.5-.4 1.3-.3 1.6.3.4.6.9 1.2 1.3 1.8.4.6.3 1.3-.2 1.7zm.5-72.2c-.5 0-.9-.3-1.1-.7-.3-.6 0-1.3.6-1.5l2.1-.9c.6-.3 1.3 0 1.6.6.3.6 0 1.3-.6 1.6l-2.1.9h-.5zm4.1 77.5c-.2.2-.5.3-.8.3-.3 0-.6-.1-.9-.4-.5-.6-1.1-1.2-1.6-1.7-.4-.5-.4-1.2.1-1.7.5-.4 1.2-.4 1.7.1.5.6 1 1.1 1.5 1.7.5.5.5 1.2 0 1.7zm5.2 4.7c-.2.3-.6.4-.9.4-.3 0-.5-.1-.8-.3-.6-.5-1.2-1-1.8-1.6-.5-.4-.5-1.2-.1-1.7s1.2-.5 1.7-.1c.6.5 1.1 1 1.7 1.5.5.5.6 1.3.2 1.8zm-.3-86.2c-.7.3-1.4.7-2.1 1-.2.1-.3.1-.5.1-.4 0-.9-.2-1.1-.7-.3-.6 0-1.3.6-1.6.7-.3 1.4-.7 2.1-1 .6-.3 1.3-.1 1.6.5.3.6 0 1.4-.6 1.7zm6 90.2c-.2.4-.6.5-1 .5-.2 0-.4-.1-.6-.2-.7-.4-1.3-.9-2-1.3-.5-.4-.7-1.1-.3-1.6.4-.5 1.1-.6 1.6-.3.6.4 1.2.9 1.9 1.3.6.3.7 1.1.4 1.6zm.2-93.5c-.7.4-1.3.7-2.1 1.1-.2.1-.4.1-.6.1-.4 0-.8-.2-1-.6-.3-.6-.1-1.3.5-1.6.7-.4 1.4-.7 2-1.1.6-.3 1.3-.1 1.6.5.4.6.2 1.3-.4 1.6zm5.9 96.8c-.2.4-.6.7-1.1.7-.2 0-.3 0-.5-.1-.7-.3-1.4-.7-2.1-1.1-.6-.3-.8-1-.5-1.6.3-.6 1-.8 1.6-.5.7.4 1.3.7 2 1 .7.3.9 1 .6 1.6zm.2-100.4c-.6.4-1.3.8-2 1.2-.2.1-.4.2-.6.2-.4 0-.8-.2-1-.6-.3-.6-.1-1.3.4-1.6.7-.4 1.4-.8 2-1.2.5-.3 1.3-.2 1.6.4.4.6.2 1.3-.4 1.6zm5.8 102.9l-1.1.4c-.1 0-.3.1-.4.1-.1 0-.3 0-.4-.1l-1.1-.4c-.6-.2-.9-.9-.7-1.5.2-.6.9-.9 1.5-.7l.7.3.7-.2c.6-.2 1.3.1 1.5.7.2.5-.1 1.1-.7 1.4zm2.4-104.5c.3-.6 1.1-.7 1.6-.4.6.4 1.3.8 2 1.2.6.3.7 1.1.4 1.6-.2.4-.6.6-1 .6-.2 0-.4-.1-.6-.2-.7-.4-1.4-.8-2-1.2-.6-.3-.8-1-.4-1.6zm4.2 101.5c-.7.4-1.4.7-2.1 1.1-.2.1-.3.1-.5.1-.4 0-.9-.2-1.1-.7-.3-.6 0-1.3.6-1.6.7-.3 1.4-.7 2-1 .6-.3 1.3-.1 1.6.5.3.6 0 1.3-.5 1.6zm1.8-97.9c.3-.6 1-.8 1.6-.5l2 1.1c.6.3.8 1 .5 1.6-.2.4-.6.6-1 .6-.2 0-.4 0-.6-.1-.7-.4-1.4-.8-2.1-1.1-.5-.3-.7-1-.4-1.6zm4.2 94.2c-.6.5-1.3.9-2 1.3-.2.1-.4.2-.6.2-.4 0-.8-.2-1-.5-.4-.5-.2-1.3.4-1.6.6-.4 1.3-.8 1.9-1.3.5-.4 1.3-.3 1.6.3.4.5.3 1.2-.3 1.6zm5.6-4.5c-.6.5-1.2 1.1-1.8 1.6-.2.2-.5.3-.8.3-.3 0-.7-.1-.9-.4-.4-.5-.4-1.2.1-1.7.6-.5 1.1-1 1.7-1.5.5-.4 1.2-.4 1.7.1.5.4.5 1.2 0 1.6zm.6-84.3c-.2.4-.6.7-1.1.7-.2 0-.3 0-.5-.1-.7-.3-1.4-.7-2.1-1-.6-.3-.8-1-.5-1.6.3-.6 1-.8 1.6-.5.7.3 1.4.7 2.1 1 .5.2.8.9.5 1.5zm4.4 79.2c-.5.6-1 1.2-1.6 1.8-.2.2-.5.4-.9.4-.3 0-.6-.1-.8-.3-.5-.4-.5-1.2-.1-1.7.5-.6 1-1.1 1.5-1.7.4-.5 1.2-.5 1.7-.1.6.4.6 1.1.2 1.6zm.4-75.8l-2.1-.9c-.6-.3-.9-1-.6-1.6.3-.6 1-.9 1.6-.6l2.1.9c.6.3.9.9.6 1.5-.2.4-.6.7-1.1.7-.2.1-.3.1-.5 0zm4 70.2c-.5.6-.9 1.3-1.4 1.9-.2.3-.6.5-.9.5-.2 0-.5-.1-.7-.2-.5-.4-.6-1.1-.2-1.7.5-.6.9-1.2 1.3-1.8.4-.5 1.1-.6 1.6-.3.6.3.7 1.1.3 1.6zm-.3-69.9c.2-.6.9-.9 1.5-.7.7.3 1.4.6 2.1.8.6.2.9.9.7 1.5-.2.5-.6.8-1.1.8-.1 0-.3 0-.4-.1-.7-.3-1.5-.6-2.2-.8-.5-.2-.8-.9-.6-1.5zm4.1 63.9c-.4.7-.8 1.4-1.2 2-.2.4-.6.6-1 .6-.2 0-.4-.1-.6-.2-.6-.3-.7-1.1-.4-1.6.4-.6.8-1.3 1.2-2 .3-.6 1.1-.8 1.6-.4.6.3.8 1 .4 1.6zm3.4-6.3c-.3.7-.7 1.4-1 2.1-.2.4-.6.6-1.1.6-.2 0-.4 0-.5-.1-.6-.3-.8-1-.5-1.6.3-.7.7-1.4 1-2.1.3-.6 1-.8 1.6-.6.5.4.7 1.1.5 1.7zm1.9-4.3c-.2.5-.6.7-1.1.7-.2 0-.3 0-.5-.1-.6-.3-.9-.9-.6-1.5l.9-2.1c.2-.6.9-.9 1.5-.7.6.2.9.9.7 1.5-.3.8-.6 1.5-.9 2.2zm2.6-6.6c-.2.5-.6.8-1.1.8-.1 0-.3 0-.4-.1-.6-.2-.9-.9-.7-1.5.3-.7.5-1.4.7-2.2.2-.6.9-1 1.5-.8.6.2 1 .9.8 1.5-.3.8-.6 1.6-.8 2.3zm2.1-6.7c-.1.5-.6.9-1.1.9h-.3c-.6-.2-1-.8-.8-1.5.2-.7.4-1.5.6-2.2.2-.6.8-1 1.4-.8.6.2 1 .8.8 1.4-.2.7-.4 1.4-.6 2.2zm1.8-6.9c-.1.5-.6.9-1.1.9h-.3c-.6-.1-1-.8-.9-1.4.2-.8.3-1.5.5-2.2.1-.6.8-1.1 1.4-.9.6.1 1 .8.9 1.4-.1.7-.3 1.4-.5 2.2zm1.4-6.9c-.1.6-.6 1-1.2 1h-.2c-.6-.1-1.1-.7-.9-1.4.1-.8.3-1.5.4-2.3.1-.6.7-1.1 1.4-1 .6.1 1.1.7 1 1.4-.2.7-.3 1.5-.5 2.3zm1.2-7c-.1.6-.6 1-1.2 1h-.2c-.6-.1-1.1-.7-1-1.3.1-.8.2-1.6.3-2.3.1-.6.7-1.1 1.3-1 .6.1 1.1.7 1 1.3 0 .7-.1 1.5-.2 2.3zm.8-7c-.1.6-.6 1.1-1.2 1.1h-.1c-.6-.1-1.1-.6-1.1-1.3.1-.8.1-1.6.2-2.3 0-.6.6-1.1 1.3-1.1.6 0 1.1.6 1.1 1.3-.1.7-.2 1.4-.2 2.3z"/><g transform="translate(38 43.21)"><mask id="fs-u2oah0sznb" fill="#fff"><use xlink:href="#fs-842xd6yzfa"/></mask><path fill="#FFF" d="M9.85 4.768c0 1.759.009 3.458-.01 5.157a1.858 1.858 0 01-.198.818c-2.617 4.96-5.25 9.91-7.87 14.868-.2.38-.37.787-.477 1.202-.235.909.127 1.458 1.034 1.629.242.045.492.06.738.06 7.476.003 14.951.003 22.427-.003.296 0 .6-.04.886-.116.6-.16.85-.524.852-1.154 0-.66-.304-1.215-.6-1.773-2.618-4.928-5.239-9.855-7.85-14.786a1.341 1.341 0 01-.149-.596c-.012-1.634-.007-3.27-.006-4.904 0-.126.012-.253.02-.405.475 0 .917.007 1.358-.001.65-.013 1.103-.467 1.119-1.12.009-.41.01-.818.002-1.227-.013-.682-.455-1.147-1.131-1.149-3.842-.007-7.684-.007-11.526-.002-.65.001-1.103.467-1.12 1.121-.01.395-.005.791-.001 1.186.008.729.454 1.185 1.17 1.194.428.005.855 0 1.332 0M8.6 6.028c-.132-.008-.246-.014-.36-.024-1.024-.095-1.909-.832-2.046-1.867a8.26 8.26 0 01.01-2.277C6.365.777 7.314.03 8.392.025c3.894-.01 7.789-.013 11.683 0 1.268.003 2.27 1.054 2.28 2.331.005.435.005.87.001 1.305a2.358 2.358 0 01-2.152 2.347c-.102.009-.204.013-.35.021 0 .762.055 1.515-.013 2.256-.112 1.235.256 2.274.878 3.335 2.615 4.462 5.159 8.967 7.726 13.458.393.687.646 1.42.516 2.225-.201 1.247-1.188 2.206-2.553 2.35-1.07.113-2.157.09-3.237.092-6.707.007-13.415.005-20.122 0a5.19 5.19 0 01-1.085-.104C.399 29.3-.333 27.966.144 26.31a6.55 6.55 0 01.514-1.234c2.583-4.888 5.178-9.769 7.76-14.658.121-.231.188-.518.193-.781.022-1.094.01-2.188.01-3.283-.001-.102-.013-.205-.02-.326" mask="url(#fs-u2oah0sznb)"/></g><path fill="#FFF" d="M49.027 40.383c-.005-.816.615-1.468 1.415-1.484.799-.017 1.473.66 1.47 1.476-.002.799-.654 1.461-1.443 1.464-.791.004-1.437-.648-1.442-1.456m6.108-2.139c.001.727-.537 1.268-1.257 1.261-.664-.005-1.206-.554-1.218-1.232A1.272 1.272 0 0153.89 37a1.245 1.245 0 011.245 1.244m8.792 32.146H40.476c.117-.291.19-.54.31-.764 1.746-3.237 3.5-6.47 5.246-9.707.115-.213.217-.249.457-.193a41.2 41.2 0 002.749.563c1.042.169 1.964-.136 2.712-.9.477-.486.93-.996 1.393-1.496.708-.766 1.491-1.434 2.41-1.93.124-.066.253-.125.373-.183.502.593 7.763 14.175 7.801 14.61M52.435 51.214a2.603 2.603 0 01-2.59-2.646 2.606 2.606 0 012.61-2.587c1.453.008 2.595 1.177 2.584 2.646a2.595 2.595 0 01-2.604 2.587m-1.005 1.414a1.843 1.843 0 011.829 1.866c-.003 1.069-.841 1.917-1.885 1.905-.996-.012-1.84-.873-1.842-1.88a1.875 1.875 0 011.898-1.891"/></g></svg>