<svg xmlns="http://www.w3.org/2000/svg" xmlns:xlink="http://www.w3.org/1999/xlink" width="108" height="122" viewBox="0 0 108 122"><defs><path id="fs-tgyk9i4goa" d="M23.938 23.98h23.938V0H0v23.98h23.938z"/></defs><g fill="none" fill-rule="evenodd"><path fill="#FD5" fill-rule="nonzero" d="M104.505 23.3c-28.3-7.6-50.1-23-50.5-23.3-.4.3-22.2 15.7-50.5 23.3-2.2.6-3.6 2.5-3.5 4.5 1 15.7 7.9 78 54 94 46.1-16 53-78.3 54-94 .1-2-1.3-3.9-3.5-4.5zm-7 3.4l.9.2c.6.2 1.1.4 1.6.7.5.4.7 1.1.3 1.6-.2.3-.6.5-1 .5-.2 0-.5-.1-.7-.2-.3-.2-.6-.3-.9-.4l-.9-.2c-.6-.2-1-.8-.8-1.4.3-.6.9-.9 1.5-.8zm-6.6-2c.7.2 1.4.5 2.2.7.6.2 1 .9.8 1.5-.2.5-.6.8-1.1.8-.1 0-.2 0-.4-.1-.7-.2-1.5-.5-2.2-.7-.6-.2-.9-.9-.7-1.5.1-.6.8-.9 1.4-.7zm-38.5-17.3l.9-.6c.1-.1.1-.1.2-.1.3-.2.7-.2 1 0 .1.1.2.1.3.2l.8.6c.5.4.7 1.1.3 1.6-.2.3-.6.5-1 .5-.2 0-.5-.1-.7-.2l-.2-.2-.3.2c-.5.4-1.3.2-1.6-.3-.4-.6-.2-1.3.3-1.7zm-37.5 18c.7-.2 1.5-.5 2.2-.7.6-.2 1.3.1 1.5.7.2.6-.1 1.3-.7 1.5-.7.2-1.5.5-2.2.7-.1 0-.2.1-.4.1-.5 0-1-.3-1.1-.8-.2-.6.1-1.3.7-1.5zm-6.9 2.3c.5-.3 1-.6 1.6-.7l.9-.2c.6-.2 1.3.2 1.5.8.2.6-.2 1.3-.8 1.5l-.9.2c-.3.1-.6.2-.9.4-.2.1-.4.2-.7.2-.4 0-.8-.2-1-.5-.4-.6-.3-1.3.3-1.7zm-2.1 7.5c-.1-.9-.1-1.6-.2-2.3 0-.6.4-1.2 1.1-1.3.6 0 1.2.4 1.3 1.1 0 .7.1 1.5.2 2.3.1.6-.4 1.2-1.1 1.3h-.1c-.6 0-1.1-.5-1.2-1.1zm.8 7c-.1-.8-.2-1.6-.3-2.3-.1-.6.4-1.2 1-1.3.6-.1 1.2.4 1.3 1 .1.7.2 1.5.3 2.3.1.6-.4 1.2-1 1.3h-.2c-.5 0-1-.4-1.1-1zm1.2 7c-.1-.8-.3-1.6-.4-2.3-.1-.6.3-1.3 1-1.4.6-.1 1.2.3 1.4 1 .1.7.3 1.5.4 2.3.1.6-.3 1.3-.9 1.4h-.2c-.7-.1-1.2-.5-1.3-1zm1.4 6.9c-.2-.8-.4-1.5-.5-2.3-.1-.6.3-1.3.9-1.4.6-.1 1.3.3 1.4.9.2.7.3 1.5.5 2.2.1.6-.2 1.3-.9 1.4h-.3c-.5.1-1-.3-1.1-.8zm1.8 6.8c-.2-.8-.4-1.5-.6-2.3-.2-.6.2-1.3.8-1.4.6-.2 1.3.2 1.4.8.2.7.4 1.5.6 2.2.2.6-.2 1.3-.8 1.5h-.3c-.5.1-1-.2-1.1-.8zm3.2 7.6c-.5 0-.9-.3-1.1-.8-.3-.7-.5-1.5-.8-2.2-.2-.6.1-1.3.8-1.5.6-.2 1.3.1 1.5.8.2.7.5 1.4.7 2.2.2.6-.1 1.3-.7 1.5h-.4zm2.6 6.5c-.5 0-.9-.3-1.1-.7-.3-.7-.6-1.4-.9-2.2-.2-.6.1-1.3.7-1.5.6-.2 1.3.1 1.5.7l.9 2.1c.3.6 0 1.3-.6 1.5-.2.1-.4.1-.5.1zm2.9 6.4c-.4 0-.8-.2-1.1-.6-.4-.7-.7-1.4-1-2.1-.3-.6 0-1.3.6-1.6.6-.3 1.3 0 1.6.6.3.7.7 1.4 1 2.1.3.6.1 1.3-.5 1.6-.2-.1-.4 0-.6 0zm4.1 5.9c-.2.1-.4.2-.6.2-.4 0-.8-.2-1-.6-.4-.7-.8-1.3-1.2-2-.3-.6-.1-1.3.4-1.6.6-.3 1.3-.1 1.6.4.4.7.8 1.3 1.2 2 .3.5.1 1.2-.4 1.6zm-1.6-63.9c-.1.1-.3.1-.4.1-.5 0-.9-.3-1.1-.8-.2-.6.1-1.3.7-1.5.7-.3 1.4-.5 2.1-.8.6-.2 1.3.1 1.5.7.2.6-.1 1.3-.7 1.5-.6.2-1.3.5-2.1.8zm5.6 69.6c-.2.2-.5.2-.7.2-.4 0-.7-.2-.9-.5-.5-.6-.9-1.3-1.4-1.9-.4-.5-.2-1.3.3-1.6.5-.4 1.3-.3 1.6.3.4.6.9 1.2 1.3 1.8.4.6.3 1.3-.2 1.7zm.5-72.2c-.5 0-.9-.3-1.1-.7-.3-.6 0-1.3.6-1.5l2.1-.9c.6-.3 1.3 0 1.6.6.3.6 0 1.3-.6 1.6l-2.1.9h-.5zm4.1 77.5c-.2.2-.5.3-.8.3-.3 0-.6-.1-.9-.4-.5-.6-1.1-1.2-1.6-1.7-.4-.5-.4-1.2.1-1.7.5-.4 1.2-.4 1.7.1.5.6 1 1.1 1.5 1.7.5.5.5 1.2 0 1.7zm5.2 4.7c-.2.3-.6.4-.9.4-.3 0-.5-.1-.8-.3-.6-.5-1.2-1-1.8-1.6-.5-.4-.5-1.2-.1-1.7s1.2-.5 1.7-.1c.6.5 1.1 1 1.7 1.5.5.5.6 1.3.2 1.8zm-.3-86.2c-.7.3-1.4.7-2.1 1-.2.1-.3.1-.5.1-.4 0-.9-.2-1.1-.7-.3-.6 0-1.3.6-1.6.7-.3 1.4-.7 2.1-1 .6-.3 1.3-.1 1.6.5.3.6 0 1.4-.6 1.7zm6 90.2c-.2.4-.6.5-1 .5-.2 0-.4-.1-.6-.2-.7-.4-1.3-.9-2-1.3-.5-.4-.7-1.1-.3-1.6.4-.5 1.1-.6 1.6-.3.6.4 1.2.9 1.9 1.3.6.3.7 1.1.4 1.6zm.2-93.5c-.7.4-1.3.7-2.1 1.1-.2.1-.4.1-.6.1-.4 0-.8-.2-1-.6-.3-.6-.1-1.3.5-1.6.7-.4 1.4-.7 2-1.1.6-.3 1.3-.1 1.6.5.4.6.2 1.3-.4 1.6zm5.9 96.8c-.2.4-.6.7-1.1.7-.2 0-.3 0-.5-.1-.7-.3-1.4-.7-2.1-1.1-.6-.3-.8-1-.5-1.6.3-.6 1-.8 1.6-.5.7.4 1.3.7 2 1 .7.3.9 1 .6 1.6zm.2-100.4c-.6.4-1.3.8-2 1.2-.2.1-.4.2-.6.2-.4 0-.8-.2-1-.6-.3-.6-.1-1.3.4-1.6.7-.4 1.4-.8 2-1.2.5-.3 1.3-.2 1.6.4.4.6.2 1.3-.4 1.6zm5.8 102.9l-1.1.4c-.1 0-.3.1-.4.1-.1 0-.3 0-.4-.1l-1.1-.4c-.6-.2-.9-.9-.7-1.5.2-.6.9-.9 1.5-.7l.7.3.7-.2c.6-.2 1.3.1 1.5.7.2.5-.1 1.1-.7 1.4zm2.4-104.5c.3-.6 1.1-.7 1.6-.4.6.4 1.3.8 2 1.2.6.3.7 1.1.4 1.6-.2.4-.6.6-1 .6-.2 0-.4-.1-.6-.2-.7-.4-1.4-.8-2-1.2-.6-.3-.8-1-.4-1.6zm4.2 101.5c-.7.4-1.4.7-2.1 1.1-.2.1-.3.1-.5.1-.4 0-.9-.2-1.1-.7-.3-.6 0-1.3.6-1.6.7-.3 1.4-.7 2-1 .6-.3 1.3-.1 1.6.5.3.6 0 1.3-.5 1.6zm1.8-97.9c.3-.6 1-.8 1.6-.5l2 1.1c.6.3.8 1 .5 1.6-.2.4-.6.6-1 .6-.2 0-.4 0-.6-.1-.7-.4-1.4-.8-2.1-1.1-.5-.3-.7-1-.4-1.6zm4.2 94.2c-.6.5-1.3.9-2 1.3-.2.1-.4.2-.6.2-.4 0-.8-.2-1-.5-.4-.5-.2-1.3.4-1.6.6-.4 1.3-.8 1.9-1.3.5-.4 1.3-.3 1.6.3.4.5.3 1.2-.3 1.6zm5.6-4.5c-.6.5-1.2 1.1-1.8 1.6-.2.2-.5.3-.8.3-.3 0-.7-.1-.9-.4-.4-.5-.4-1.2.1-1.7.6-.5 1.1-1 1.7-1.5.5-.4 1.2-.4 1.7.1.5.4.5 1.2 0 1.6zm.6-84.3c-.2.4-.6.7-1.1.7-.2 0-.3 0-.5-.1-.7-.3-1.4-.7-2.1-1-.6-.3-.8-1-.5-1.6.3-.6 1-.8 1.6-.5.7.3 1.4.7 2.1 1 .5.2.8.9.5 1.5zm4.4 79.2c-.5.6-1 1.2-1.6 1.8-.2.2-.5.4-.9.4-.3 0-.6-.1-.8-.3-.5-.4-.5-1.2-.1-1.7.5-.6 1-1.1 1.5-1.7.4-.5 1.2-.5 1.7-.1.6.4.6 1.1.2 1.6zm.4-75.8l-2.1-.9c-.6-.3-.9-1-.6-1.6.3-.6 1-.9 1.6-.6l2.1.9c.6.3.9.9.6 1.5-.2.4-.6.7-1.1.7-.2.1-.3.1-.5 0zm4 70.2c-.5.6-.9 1.3-1.4 1.9-.2.3-.6.5-.9.5-.2 0-.5-.1-.7-.2-.5-.4-.6-1.1-.2-1.7.5-.6.9-1.2 1.3-1.8.4-.5 1.1-.6 1.6-.3.6.3.7 1.1.3 1.6zm-.3-69.9c.2-.6.9-.9 1.5-.7.7.3 1.4.6 2.1.8.6.2.9.9.7 1.5-.2.5-.6.8-1.1.8-.1 0-.3 0-.4-.1-.7-.3-1.5-.6-2.2-.8-.5-.2-.8-.9-.6-1.5zm4.1 63.9c-.4.7-.8 1.4-1.2 2-.2.4-.6.6-1 .6-.2 0-.4-.1-.6-.2-.6-.3-.7-1.1-.4-1.6.4-.6.8-1.3 1.2-2 .3-.6 1.1-.8 1.6-.4.6.3.8 1 .4 1.6zm3.4-6.3c-.3.7-.7 1.4-1 2.1-.2.4-.6.6-1.1.6-.2 0-.4 0-.5-.1-.6-.3-.8-1-.5-1.6.3-.7.7-1.4 1-2.1.3-.6 1-.8 1.6-.6.5.4.7 1.1.5 1.7zm1.9-4.3c-.2.5-.6.7-1.1.7-.2 0-.3 0-.5-.1-.6-.3-.9-.9-.6-1.5l.9-2.1c.2-.6.9-.9 1.5-.7.6.2.9.9.7 1.5-.3.8-.6 1.5-.9 2.2zm2.6-6.6c-.2.5-.6.8-1.1.8-.1 0-.3 0-.4-.1-.6-.2-.9-.9-.7-1.5.3-.7.5-1.4.7-2.2.2-.6.9-1 1.5-.8.6.2 1 .9.8 1.5-.3.8-.6 1.6-.8 2.3zm2.1-6.7c-.1.5-.6.9-1.1.9h-.3c-.6-.2-1-.8-.8-1.5.2-.7.4-1.5.6-2.2.2-.6.8-1 1.4-.8.6.2 1 .8.8 1.4-.2.7-.4 1.4-.6 2.2zm1.8-6.9c-.1.5-.6.9-1.1.9h-.3c-.6-.1-1-.8-.9-1.4.2-.8.3-1.5.5-2.2.1-.6.8-1.1 1.4-.9.6.1 1 .8.9 1.4-.1.7-.3 1.4-.5 2.2zm1.4-6.9c-.1.6-.6 1-1.2 1h-.2c-.6-.1-1.1-.7-.9-1.4.1-.8.3-1.5.4-2.3.1-.6.7-1.1 1.4-1 .6.1 1.1.7 1 1.4-.2.7-.3 1.5-.5 2.3zm1.2-7c-.1.6-.6 1-1.2 1h-.2c-.6-.1-1.1-.7-1-1.3.1-.8.2-1.6.3-2.3.1-.6.7-1.1 1.3-1 .6.1 1.1.7 1 1.3 0 .7-.1 1.5-.2 2.3zm.8-7c-.1.6-.6 1.1-1.2 1.1h-.1c-.6-.1-1.1-.6-1.1-1.3.1-.8.1-1.6.2-2.3 0-.6.6-1.1 1.3-1.1.6 0 1.1.6 1.1 1.3-.1.7-.2 1.4-.2 2.3z"/><g transform="translate(31 46)"><mask id="fs-ddkqupb1xb" fill="#fff"><use xlink:href="#fs-tgyk9i4goa"/></mask><path fill="#FFF" d="M42.912 15.408l-3.271-4.203c4.028.26 4.036 1.054 4.036 1.717.002.711-.28 1.583-.765 2.486zm-1.415 2.06l-4.972-6.35c.406 0 .784.005 1.143.01l4.388 5.634a13.03 13.03 0 01-.559.706zm-6.087 3.555c-3.771 0-6.105-3.116-6.105-6.002 0-2.219 2.552-3.437 5.395-3.79l5.752 7.345c-1.494 1.404-3.315 2.447-5.042 2.447zm-22.945 0c-1.725 0-3.546-1.043-5.04-2.447l5.75-7.346c2.843.354 5.395 1.572 5.395 3.791 0 2.886-2.335 6.002-6.105 6.002zM5.818 16.76l4.388-5.634c.359-.006.738-.01 1.142-.01l-4.971 6.349c-.197-.23-.384-.466-.56-.705zm-.857-1.353c-.481-.903-.765-1.774-.765-2.486 0-.661.011-1.458 4.037-1.717l-3.272 4.203zm42.37-6.144a2.372 2.372 0 00-.501-.432s-1.101-.699-2.679-1.824C34.658.34 34.065 0 31.973 0c-1.434 0-1.91.145-5.444 1.743-1.231.558-1.767 1.977-1.19 3.171.575 1.194 2.041 1.71 3.272 1.152a2.385 2.385 0 001.419-2.034c0 .002.012-.228.178-.621.384-.845 1.13-1.154 1.95-1.154 1.905 0 2.478.758 4.414 2.573a158.97 158.97 0 013.535 3.434c-1.126-.083-2.342-.104-3.614-.104-3.263 0-6.166.835-8.038 2.376-1.129-.936-2.713-1.524-4.517-1.524-1.803 0-3.387.588-4.515 1.524-1.873-1.54-4.775-2.376-8.037-2.376-1.275 0-2.489.022-3.614.104a158.97 158.97 0 013.535-3.434c1.934-1.815 2.505-2.573 4.408-2.573.819 0 1.567.31 1.952 1.154.165.393.178.623.178.621.048.85.566 1.65 1.417 2.034 1.233.558 2.698.042 3.274-1.152.576-1.194.041-2.613-1.191-3.171C17.813.145 17.336 0 15.902 0c-2.09 0-2.683.34-12.176 7.008a69.104 69.104 0 01-2.68 1.824c-.18.115-.358.265-.502.432a2.194 2.194 0 00.618 3.384c-.005.093-.019.177-.019.274 0 4.37 5.667 11.058 11.322 11.058 5.656 0 9.159-4.59 9.159-8.959 0-.748-.143-1.437-.395-2.072.545-.549 1.646-.932 2.708-.967v.002c.004 0-.002-.002 0-.002 1.064.018 2.164.417 2.71.968a5.583 5.583 0 00-.394 2.071c0 4.37 3.503 8.96 9.157 8.96 5.655 0 11.324-6.689 11.324-11.059 0-.096-.016-.181-.019-.274a2.196 2.196 0 00.616-3.384z" mask="url(#fs-ddkqupb1xb)"/></g></g></svg>