<svg xmlns="http://www.w3.org/2000/svg" xmlns:xlink="http://www.w3.org/1999/xlink" width="108" height="122" viewBox="0 0 108 122"><defs><path id="fs-qwi7gt1c9a" d="M36 13.52V.051H0v26.934h36z"/></defs><g fill="none" fill-rule="evenodd"><path fill="#10C0AE" fill-rule="nonzero" d="M104.505 23.3c-28.3-7.6-50.1-23-50.5-23.3-.4.3-22.2 15.7-50.5 23.3-2.2.6-3.6 2.5-3.5 4.5 1 15.7 7.9 78 54 94 46.1-16 53-78.3 54-94 .1-2-1.3-3.9-3.5-4.5zm-7 3.4l.9.2c.6.2 1.1.4 1.6.7.5.4.7 1.1.3 1.6-.2.3-.6.5-1 .5-.2 0-.5-.1-.7-.2-.3-.2-.6-.3-.9-.4l-.9-.2c-.6-.2-1-.8-.8-1.4.3-.6.9-.9 1.5-.8zm-6.6-2c.7.2 1.4.5 2.2.7.6.2 1 .9.8 1.5-.2.5-.6.8-1.1.8-.1 0-.2 0-.4-.1-.7-.2-1.5-.5-2.2-.7-.6-.2-.9-.9-.7-1.5.1-.6.8-.9 1.4-.7zm-38.5-17.3l.9-.6c.1-.1.1-.1.2-.1.3-.2.7-.2 1 0 .1.1.2.1.3.2l.8.6c.5.4.7 1.1.3 1.6-.2.3-.6.5-1 .5-.2 0-.5-.1-.7-.2l-.2-.2-.3.2c-.5.4-1.3.2-1.6-.3-.4-.6-.2-1.3.3-1.7zm-37.5 18c.7-.2 1.5-.5 2.2-.7.6-.2 1.3.1 1.5.7.2.6-.1 1.3-.7 1.5-.7.2-1.5.5-2.2.7-.1 0-.2.1-.4.1-.5 0-1-.3-1.1-.8-.2-.6.1-1.3.7-1.5zm-6.9 2.3c.5-.3 1-.6 1.6-.7l.9-.2c.6-.2 1.3.2 1.5.8.2.6-.2 1.3-.8 1.5l-.9.2c-.3.1-.6.2-.9.4-.2.1-.4.2-.7.2-.4 0-.8-.2-1-.5-.4-.6-.3-1.3.3-1.7zm-2.1 7.5c-.1-.9-.1-1.6-.2-2.3 0-.6.4-1.2 1.1-1.3.6 0 1.2.4 1.3 1.1 0 .7.1 1.5.2 2.3.1.6-.4 1.2-1.1 1.3h-.1c-.6 0-1.1-.5-1.2-1.1zm.8 7c-.1-.8-.2-1.6-.3-2.3-.1-.6.4-1.2 1-1.3.6-.1 1.2.4 1.3 1 .1.7.2 1.5.3 2.3.1.6-.4 1.2-1 1.3h-.2c-.5 0-1-.4-1.1-1zm1.2 7c-.1-.8-.3-1.6-.4-2.3-.1-.6.3-1.3 1-1.4.6-.1 1.2.3 1.4 1 .1.7.3 1.5.4 2.3.1.6-.3 1.3-.9 1.4h-.2c-.7-.1-1.2-.5-1.3-1zm1.4 6.9c-.2-.8-.4-1.5-.5-2.3-.1-.6.3-1.3.9-1.4.6-.1 1.3.3 1.4.9.2.7.3 1.5.5 2.2.1.6-.2 1.3-.9 1.4h-.3c-.5.1-1-.3-1.1-.8zm1.8 6.8c-.2-.8-.4-1.5-.6-2.3-.2-.6.2-1.3.8-1.4.6-.2 1.3.2 1.4.8.2.7.4 1.5.6 2.2.2.6-.2 1.3-.8 1.5h-.3c-.5.1-1-.2-1.1-.8zm3.2 7.6c-.5 0-.9-.3-1.1-.8-.3-.7-.5-1.5-.8-2.2-.2-.6.1-1.3.8-1.5.6-.2 1.3.1 1.5.8.2.7.5 1.4.7 2.2.2.6-.1 1.3-.7 1.5h-.4zm2.6 6.5c-.5 0-.9-.3-1.1-.7-.3-.7-.6-1.4-.9-2.2-.2-.6.1-1.3.7-1.5.6-.2 1.3.1 1.5.7l.9 2.1c.3.6 0 1.3-.6 1.5-.2.1-.4.1-.5.1zm2.9 6.4c-.4 0-.8-.2-1.1-.6-.4-.7-.7-1.4-1-2.1-.3-.6 0-1.3.6-1.6.6-.3 1.3 0 1.6.6.3.7.7 1.4 1 2.1.3.6.1 1.3-.5 1.6-.2-.1-.4 0-.6 0zm4.1 5.9c-.2.1-.4.2-.6.2-.4 0-.8-.2-1-.6-.4-.7-.8-1.3-1.2-2-.3-.6-.1-1.3.4-1.6.6-.3 1.3-.1 1.6.4.4.7.8 1.3 1.2 2 .3.5.1 1.2-.4 1.6zm-1.6-63.9c-.1.1-.3.1-.4.1-.5 0-.9-.3-1.1-.8-.2-.6.1-1.3.7-1.5.7-.3 1.4-.5 2.1-.8.6-.2 1.3.1 1.5.7.2.6-.1 1.3-.7 1.5-.6.2-1.3.5-2.1.8zm5.6 69.6c-.2.2-.5.2-.7.2-.4 0-.7-.2-.9-.5-.5-.6-.9-1.3-1.4-1.9-.4-.5-.2-1.3.3-1.6.5-.4 1.3-.3 1.6.3.4.6.9 1.2 1.3 1.8.4.6.3 1.3-.2 1.7zm.5-72.2c-.5 0-.9-.3-1.1-.7-.3-.6 0-1.3.6-1.5l2.1-.9c.6-.3 1.3 0 1.6.6.3.6 0 1.3-.6 1.6l-2.1.9h-.5zm4.1 77.5c-.2.2-.5.3-.8.3-.3 0-.6-.1-.9-.4-.5-.6-1.1-1.2-1.6-1.7-.4-.5-.4-1.2.1-1.7.5-.4 1.2-.4 1.7.1.5.6 1 1.1 1.5 1.7.5.5.5 1.2 0 1.7zm5.2 4.7c-.2.3-.6.4-.9.4-.3 0-.5-.1-.8-.3-.6-.5-1.2-1-1.8-1.6-.5-.4-.5-1.2-.1-1.7s1.2-.5 1.7-.1c.6.5 1.1 1 1.7 1.5.5.5.6 1.3.2 1.8zm-.3-86.2c-.7.3-1.4.7-2.1 1-.2.1-.3.1-.5.1-.4 0-.9-.2-1.1-.7-.3-.6 0-1.3.6-1.6.7-.3 1.4-.7 2.1-1 .6-.3 1.3-.1 1.6.5.3.6 0 1.4-.6 1.7zm6 90.2c-.2.4-.6.5-1 .5-.2 0-.4-.1-.6-.2-.7-.4-1.3-.9-2-1.3-.5-.4-.7-1.1-.3-1.6.4-.5 1.1-.6 1.6-.3.6.4 1.2.9 1.9 1.3.6.3.7 1.1.4 1.6zm.2-93.5c-.7.4-1.3.7-2.1 1.1-.2.1-.4.1-.6.1-.4 0-.8-.2-1-.6-.3-.6-.1-1.3.5-1.6.7-.4 1.4-.7 2-1.1.6-.3 1.3-.1 1.6.5.4.6.2 1.3-.4 1.6zm5.9 96.8c-.2.4-.6.7-1.1.7-.2 0-.3 0-.5-.1-.7-.3-1.4-.7-2.1-1.1-.6-.3-.8-1-.5-1.6.3-.6 1-.8 1.6-.5.7.4 1.3.7 2 1 .7.3.9 1 .6 1.6zm.2-100.4c-.6.4-1.3.8-2 1.2-.2.1-.4.2-.6.2-.4 0-.8-.2-1-.6-.3-.6-.1-1.3.4-1.6.7-.4 1.4-.8 2-1.2.5-.3 1.3-.2 1.6.4.4.6.2 1.3-.4 1.6zm5.8 102.9l-1.1.4c-.1 0-.3.1-.4.1-.1 0-.3 0-.4-.1l-1.1-.4c-.6-.2-.9-.9-.7-1.5.2-.6.9-.9 1.5-.7l.7.3.7-.2c.6-.2 1.3.1 1.5.7.2.5-.1 1.1-.7 1.4zm2.4-104.5c.3-.6 1.1-.7 1.6-.4.6.4 1.3.8 2 1.2.6.3.7 1.1.4 1.6-.2.4-.6.6-1 .6-.2 0-.4-.1-.6-.2-.7-.4-1.4-.8-2-1.2-.6-.3-.8-1-.4-1.6zm4.2 101.5c-.7.4-1.4.7-2.1 1.1-.2.1-.3.1-.5.1-.4 0-.9-.2-1.1-.7-.3-.6 0-1.3.6-1.6.7-.3 1.4-.7 2-1 .6-.3 1.3-.1 1.6.5.3.6 0 1.3-.5 1.6zm1.8-97.9c.3-.6 1-.8 1.6-.5l2 1.1c.6.3.8 1 .5 1.6-.2.4-.6.6-1 .6-.2 0-.4 0-.6-.1-.7-.4-1.4-.8-2.1-1.1-.5-.3-.7-1-.4-1.6zm4.2 94.2c-.6.5-1.3.9-2 1.3-.2.1-.4.2-.6.2-.4 0-.8-.2-1-.5-.4-.5-.2-1.3.4-1.6.6-.4 1.3-.8 1.9-1.3.5-.4 1.3-.3 1.6.3.4.5.3 1.2-.3 1.6zm5.6-4.5c-.6.5-1.2 1.1-1.8 1.6-.2.2-.5.3-.8.3-.3 0-.7-.1-.9-.4-.4-.5-.4-1.2.1-1.7.6-.5 1.1-1 1.7-1.5.5-.4 1.2-.4 1.7.1.5.4.5 1.2 0 1.6zm.6-84.3c-.2.4-.6.7-1.1.7-.2 0-.3 0-.5-.1-.7-.3-1.4-.7-2.1-1-.6-.3-.8-1-.5-1.6.3-.6 1-.8 1.6-.5.7.3 1.4.7 2.1 1 .5.2.8.9.5 1.5zm4.4 79.2c-.5.6-1 1.2-1.6 1.8-.2.2-.5.4-.9.4-.3 0-.6-.1-.8-.3-.5-.4-.5-1.2-.1-1.7.5-.6 1-1.1 1.5-1.7.4-.5 1.2-.5 1.7-.1.6.4.6 1.1.2 1.6zm.4-75.8l-2.1-.9c-.6-.3-.9-1-.6-1.6.3-.6 1-.9 1.6-.6l2.1.9c.6.3.9.9.6 1.5-.2.4-.6.7-1.1.7-.2.1-.3.1-.5 0zm4 70.2c-.5.6-.9 1.3-1.4 1.9-.2.3-.6.5-.9.5-.2 0-.5-.1-.7-.2-.5-.4-.6-1.1-.2-1.7.5-.6.9-1.2 1.3-1.8.4-.5 1.1-.6 1.6-.3.6.3.7 1.1.3 1.6zm-.3-69.9c.2-.6.9-.9 1.5-.7.7.3 1.4.6 2.1.8.6.2.9.9.7 1.5-.2.5-.6.8-1.1.8-.1 0-.3 0-.4-.1-.7-.3-1.5-.6-2.2-.8-.5-.2-.8-.9-.6-1.5zm4.1 63.9c-.4.7-.8 1.4-1.2 2-.2.4-.6.6-1 .6-.2 0-.4-.1-.6-.2-.6-.3-.7-1.1-.4-1.6.4-.6.8-1.3 1.2-2 .3-.6 1.1-.8 1.6-.4.6.3.8 1 .4 1.6zm3.4-6.3c-.3.7-.7 1.4-1 2.1-.2.4-.6.6-1.1.6-.2 0-.4 0-.5-.1-.6-.3-.8-1-.5-1.6.3-.7.7-1.4 1-2.1.3-.6 1-.8 1.6-.6.5.4.7 1.1.5 1.7zm1.9-4.3c-.2.5-.6.7-1.1.7-.2 0-.3 0-.5-.1-.6-.3-.9-.9-.6-1.5l.9-2.1c.2-.6.9-.9 1.5-.7.6.2.9.9.7 1.5-.3.8-.6 1.5-.9 2.2zm2.6-6.6c-.2.5-.6.8-1.1.8-.1 0-.3 0-.4-.1-.6-.2-.9-.9-.7-1.5.3-.7.5-1.4.7-2.2.2-.6.9-1 1.5-.8.6.2 1 .9.8 1.5-.3.8-.6 1.6-.8 2.3zm2.1-6.7c-.1.5-.6.9-1.1.9h-.3c-.6-.2-1-.8-.8-1.5.2-.7.4-1.5.6-2.2.2-.6.8-1 1.4-.8.6.2 1 .8.8 1.4-.2.7-.4 1.4-.6 2.2zm1.8-6.9c-.1.5-.6.9-1.1.9h-.3c-.6-.1-1-.8-.9-1.4.2-.8.3-1.5.5-2.2.1-.6.8-1.1 1.4-.9.6.1 1 .8.9 1.4-.1.7-.3 1.4-.5 2.2zm1.4-6.9c-.1.6-.6 1-1.2 1h-.2c-.6-.1-1.1-.7-.9-1.4.1-.8.3-1.5.4-2.3.1-.6.7-1.1 1.4-1 .6.1 1.1.7 1 1.4-.2.7-.3 1.5-.5 2.3zm1.2-7c-.1.6-.6 1-1.2 1h-.2c-.6-.1-1.1-.7-1-1.3.1-.8.2-1.6.3-2.3.1-.6.7-1.1 1.3-1 .6.1 1.1.7 1 1.3 0 .7-.1 1.5-.2 2.3zm.8-7c-.1.6-.6 1.1-1.2 1.1h-.1c-.6-.1-1.1-.6-1.1-1.3.1-.8.1-1.6.2-2.3 0-.6.6-1.1 1.3-1.1.6 0 1.1.6 1.1 1.3-.1.7-.2 1.4-.2 2.3z"/><g transform="translate(34 39.005)"><mask id="fs-5ruya73cyb" fill="#fff"><use xlink:href="#fs-qwi7gt1c9a"/></mask><path fill="#FFF" d="M36 13.297a.24.24 0 01-.06.161c-.123.144-.268.14-.429-.017-.5-.49-1.002-.978-1.498-1.473-.795-.793-1.586-1.591-2.379-2.387a2.58 2.58 0 00-.065-.063.245.245 0 00-.344.008c-.493.508-.97 1.004-1.454 1.493-1.324 1.335-2.653 2.665-3.979 3.998a6657.523 6657.523 0 00-4.22 4.244c-1.15 1.158-2.295 2.32-3.448 3.474-.46.461-.935.421-1.396-.048-.999-1.02-2.014-2.024-3.022-3.034l-.717-.714a.242.242 0 00-.342-.003 6885.4 6885.4 0 00-4.934 4.95c-.676.68-1.349 1.362-2.022 2.044-1.37 1.385-3.36 1.41-4.72.059a3.249 3.249 0 01-.921-1.792.33.33 0 00-.028-.08.248.248 0 01-.022-.102v-.669c0-.02.002-.04.007-.06.15-.598.313-1.194.748-1.66a85.795 85.795 0 011.599-1.652c1.003-1.016 2.01-2.027 3.017-3.04l2.961-2.976 3.022-3.035c.257-.258.505-.526.77-.774.517-.483.92-.475 1.416.024 1.21 1.217 2.414 2.438 3.622 3.656.026.026.053.052.08.076a.245.245 0 00.34-.007l9.013-9.066a.247.247 0 00-.001-.35c-.502-.494-1.03-1.011-1.551-1.532-.735-.733-1.47-1.465-2.19-2.212a.932.932 0 01-.165-.27.248.248 0 01.132-.33.844.844 0 01.307-.077c3.709-.01 7.418-.01 11.127-.005.798 0 1.363.376 1.671 1.126a.27.27 0 00.03.05.266.266 0 01.045.144v11.92z" mask="url(#fs-5ruya73cyb)"/></g><path fill="#FFF" d="M62.266 71.94V55.904c0-.674.21-1.256.704-1.735.585-.568 1.142-1.165 1.728-1.733.133-.129.333-.189.502-.28.059.19.17.381.17.573.01 3.785.008 7.57.008 11.355v7.483c0 .373-.001.373-.381.373h-2.731m-1.574-.013H57.35v-.33c0-3.583.003-7.166-.002-10.749-.001-.638.186-1.198.629-1.652a132.11 132.11 0 012.18-2.175c.092-.09.244-.12.369-.177.055.136.123.268.16.41.025.099.006.21.006.316v14.357m-4.919.013h-.376c-.89 0-1.78-.005-2.671.004-.208.002-.283-.056-.282-.276.007-2.03.02-4.06-.003-6.09-.008-.78.415-1.279.925-1.766.603-.576 1.182-1.177 1.774-1.765a1.32 1.32 0 01.242-.2c.196-.115.325-.057.379.165.022.092.031.19.031.285.002 3.127.002 6.254 0 9.381 0 .075-.01.15-.019.263m-4.926-.001h-1.365c-.566 0-1.131-.005-1.696.005-.195.003-.268-.056-.267-.262.005-2.986.003-5.971.003-8.957 0-.019-.004-.04.002-.057.047-.15.097-.299.146-.448.15.06.337.083.445.188a102.73 102.73 0 012.235 2.245c.377.392.517.896.52 1.43.005 1.888.001 3.776 0 5.664 0 .047-.01.093-.023.192m-4.902-.026c-.089.01-.162.025-.236.025-.938.002-1.877-.005-2.815.006-.23.003-.292-.077-.291-.3.008-1.8.005-3.6.006-5.398 0-.768.379-1.342.91-1.853.609-.584 1.195-1.19 1.793-1.786.06-.06.124-.12.195-.167.248-.159.389-.094.438.201.014.085.016.173.016.26v8.745c0 .085-.01.169-.016.267m-4.912.009c-.11.009-.184.021-.259.021-1.071 0-2.143-.004-3.214.003-.196.002-.259-.052-.27-.258-.04-.787.32-1.373.859-1.898.734-.715 1.442-1.456 2.176-2.17.146-.143.36-.215.542-.32.056.203.156.405.158.608.015 1.24.008 2.48.008 3.721v.293"/></g></svg>