<svg xmlns="http://www.w3.org/2000/svg" width="108" height="122" viewBox="0 0 108 122"><g fill="none"><path fill="#A6A49C" d="M104.505 23.2c-28.3-7.5-50.2-22.9-50.6-23.2-.4.3-22.2 15.8-50.4 23.4-2.2.6-3.6 2.5-3.5 4.5 1 15.7 8.1 78 54.3 93.8 46.1-16.1 52.8-78.5 53.7-94.2.1-1.9-1.3-3.8-3.5-4.3zm-7 3.4l.9.2c.6.2 1.1.4 1.6.7.5.4.7 1.1.3 1.6-.2.3-.6.5-1 .5-.2 0-.5-.1-.7-.2-.3-.2-.6-.3-.9-.4l-.9-.2c-.6-.2-1-.8-.8-1.4.3-.6.9-.9 1.5-.8zm-6.6-2c.7.2 1.4.5 2.2.7.6.2 1 .9.8 1.5-.2.5-.6.8-1.1.8-.1 0-.2 0-.4-.1-.7-.2-1.5-.5-2.2-.7-.6-.2-.9-.9-.7-1.5.1-.6.8-.9 1.4-.7zm-38.5-17.2l.9-.6c.1-.1.1-.1.2-.1.3-.2.7-.2 1 0 .1.1.2.1.3.2l.8.6c.5.4.7 1.1.3 1.6-.2.3-.6.5-1 .5-.2 0-.5-.1-.7-.2l-.2-.2-.3.2c-.5.4-1.3.2-1.6-.3-.4-.6-.2-1.3.3-1.7zm-37.5 18.1c.7-.2 1.5-.5 2.2-.7.6-.2 1.3.1 1.5.7.2.6-.1 1.3-.7 1.5-.7.2-1.5.5-2.2.7-.1 0-.2.1-.4.1-.5 0-1-.3-1.1-.8-.2-.6.1-1.3.7-1.5zm-6.9 2.3c.5-.3 1-.6 1.6-.7l.9-.2c.6-.2 1.3.2 1.5.8.2.6-.2 1.3-.8 1.5l-.9.2c-.3.1-.6.2-.9.4-.2.1-.4.2-.7.2-.4 0-.8-.2-1-.5-.4-.6-.3-1.3.3-1.7zm-2 7.5c-.1-.9-.1-1.6-.2-2.3 0-.6.4-1.2 1.1-1.3.6 0 1.2.4 1.3 1.1 0 .7.1 1.5.2 2.3.1.6-.4 1.2-1.1 1.3h-.1c-.6 0-1.1-.5-1.2-1.1zm.8 7c-.1-.8-.2-1.6-.3-2.3-.1-.6.4-1.2 1-1.3.6-.1 1.2.4 1.3 1 .1.7.2 1.5.3 2.3.1.6-.4 1.2-1 1.3h-.2c-.5 0-1-.4-1.1-1zm1.2 7c-.1-.8-.3-1.6-.4-2.3-.1-.6.3-1.3 1-1.4.6-.1 1.2.3 1.4 1 .1.7.3 1.5.4 2.3.1.6-.3 1.3-.9 1.4h-.2c-.7-.1-1.2-.5-1.3-1zm1.4 6.9c-.2-.8-.4-1.5-.5-2.3-.1-.6.3-1.3.9-1.4.6-.1 1.3.3 1.4.9.2.7.3 1.5.5 2.2.1.6-.2 1.3-.9 1.4h-.3c-.5.1-1-.3-1.1-.8zm1.8 6.8c-.2-.8-.4-1.5-.6-2.3-.2-.6.2-1.3.8-1.4.6-.2 1.3.2 1.4.8.2.7.4 1.5.6 2.2.2.6-.2 1.3-.8 1.5h-.3c-.5.1-1-.2-1.1-.8zm3.3 7.6c-.5 0-.9-.3-1.1-.8-.3-.7-.5-1.5-.8-2.2-.2-.6.1-1.3.8-1.5.6-.2 1.3.1 1.5.8.2.7.5 1.4.7 2.2.2.6-.1 1.3-.7 1.5h-.4zm2.6 6.5c-.5 0-.9-.3-1.1-.7-.3-.7-.6-1.4-.9-2.2-.2-.6.1-1.3.7-1.5.6-.2 1.3.1 1.5.7l.9 2.1c.3.6 0 1.3-.6 1.5-.2.1-.4.1-.5.1zm2.9 6.4c-.4 0-.8-.2-1.1-.6-.4-.7-.7-1.4-1-2.1-.3-.6 0-1.3.6-1.6.6-.3 1.3 0 1.6.6.3.7.7 1.4 1 2.1.3.6.1 1.3-.5 1.6-.2-.1-.4 0-.6 0zm4.1 5.9c-.2.1-.4.2-.6.2-.4 0-.8-.2-1-.6-.4-.7-.8-1.3-1.2-2-.3-.6-.1-1.3.4-1.6.6-.3 1.3-.1 1.6.4.4.7.8 1.3 1.2 2 .3.5.1 1.2-.4 1.6zm-1.8-63.9c-.1.1-.3.1-.4.1-.5 0-.9-.3-1.1-.8-.2-.6.1-1.3.7-1.5.7-.3 1.4-.5 2.1-.8.6-.2 1.3.1 1.5.7.2.6-.1 1.3-.7 1.5-.6.2-1.3.5-2.1.8zm5.8 69.6c-.2.2-.5.2-.7.2-.4 0-.7-.2-.9-.5-.5-.6-.9-1.3-1.4-1.9-.4-.5-.2-1.3.3-1.6.5-.4 1.3-.3 1.6.3.4.6.9 1.2 1.3 1.8.4.6.3 1.3-.2 1.7zm.3-72.2c-.5 0-.9-.3-1.1-.7-.3-.6 0-1.3.6-1.5l2.1-.9c.6-.3 1.3 0 1.6.6.3.6 0 1.3-.6 1.6l-2.1.9h-.5zm4.3 77.5c-.2.2-.5.3-.8.3-.3 0-.6-.1-.9-.4-.5-.6-1.1-1.2-1.6-1.7-.4-.5-.4-1.2.1-1.7.5-.4 1.2-.4 1.7.1.5.6 1 1.1 1.5 1.7.5.5.5 1.2 0 1.7zm5.3 4.6c-.2.3-.6.4-.9.4-.3 0-.5-.1-.8-.3-.6-.5-1.2-1-1.8-1.6-.5-.4-.5-1.2-.1-1.7s1.2-.5 1.7-.1c.6.5 1.1 1 1.7 1.5.5.5.6 1.3.2 1.8zm-.6-86.2c-.7.3-1.4.7-2.1 1-.2.1-.3.1-.5.1-.4 0-.9-.2-1.1-.7-.3-.6 0-1.3.6-1.6.7-.3 1.4-.7 2.1-1 .6-.3 1.3-.1 1.6.5.3.6 0 1.4-.6 1.7zm6.3 90.2c-.2.4-.6.5-1 .5-.2 0-.4-.1-.6-.2-.7-.4-1.3-.9-2-1.3-.5-.4-.7-1.1-.3-1.6.4-.5 1.1-.6 1.6-.3.6.4 1.2.9 1.9 1.3.6.3.7 1.1.4 1.6zm-.1-93.5c-.7.4-1.3.7-2.1 1.1-.2.1-.4.1-.6.1-.4 0-.8-.2-1-.6-.3-.6-.1-1.3.5-1.6.7-.4 1.4-.7 2-1.1.6-.3 1.3-.1 1.6.5.4.6.2 1.3-.4 1.6zm6.2 96.8c-.2.4-.6.7-1.1.7-.2 0-.3 0-.5-.1-.7-.3-1.4-.7-2.1-1.1-.6-.3-.8-1-.5-1.6.3-.6 1-.8 1.6-.5.7.4 1.3.7 2 1 .7.3.9 1 .6 1.6zm-.1-100.4c-.6.4-1.3.8-2 1.2-.2.1-.4.2-.6.2-.4 0-.8-.2-1-.6-.3-.6-.1-1.3.4-1.6.7-.4 1.4-.8 2-1.2.5-.3 1.3-.2 1.6.4.4.6.2 1.3-.4 1.6zm6.1 102.9l-1.1.4c-.1 0-.3.1-.4.1-.1 0-.3 0-.4-.1l-1.1-.4c-.6-.2-.9-.9-.7-1.5.2-.6.9-.9 1.5-.7l.7.3.7-.2c.6-.2 1.3.1 1.5.7.2.5-.1 1.1-.7 1.4zm2.1-104.5c.3-.6 1.1-.7 1.6-.4.6.4 1.3.8 2 1.2.6.3.7 1.1.4 1.6-.2.4-.6.6-1 .6-.2 0-.4-.1-.6-.2-.7-.4-1.4-.8-2-1.2-.6-.3-.8-1-.4-1.6zm4.5 101.5c-.7.4-1.4.7-2.1 1.1-.2.1-.3.1-.5.1-.4 0-.9-.2-1.1-.7-.3-.6 0-1.3.6-1.6.7-.3 1.4-.7 2-1 .6-.3 1.3-.1 1.6.5.3.6 0 1.3-.5 1.6zm1.5-97.9c.3-.6 1-.8 1.6-.5l2 1.1c.6.3.8 1 .5 1.6-.2.4-.6.6-1 .6-.2 0-.4 0-.6-.1-.7-.4-1.4-.8-2.1-1.1-.5-.3-.7-1-.4-1.6zm4.5 94.2c-.6.5-1.3.9-2 1.3-.2.1-.4.2-.6.2-.4 0-.8-.2-1-.5-.4-.5-.2-1.3.4-1.6.6-.4 1.3-.8 1.9-1.3.5-.4 1.3-.3 1.6.3.4.5.3 1.2-.3 1.6zm5.6-4.6c-.6.5-1.2 1.1-1.8 1.6-.2.2-.5.3-.8.3-.3 0-.7-.1-.9-.4-.4-.5-.4-1.2.1-1.7.6-.5 1.1-1 1.7-1.5.5-.4 1.2-.4 1.7.1.4.4.5 1.2 0 1.6zm.3-84.3c-.2.4-.6.7-1.1.7-.2 0-.3 0-.5-.1-.7-.3-1.4-.7-2.1-1-.6-.3-.8-1-.5-1.6.3-.6 1-.8 1.6-.5.7.3 1.4.7 2.1 1 .5.2.8.9.5 1.5zm4.6 79.2c-.5.6-1 1.2-1.6 1.8-.2.2-.5.4-.9.4-.3 0-.6-.1-.8-.3-.5-.4-.5-1.2-.1-1.7.5-.6 1-1.1 1.5-1.7.4-.5 1.2-.5 1.7-.1.6.4.6 1.1.2 1.6zm.2-75.8l-2.1-.9c-.6-.3-.9-1-.6-1.6.3-.6 1-.9 1.6-.6l2.1.9c.6.3.9.9.6 1.5-.2.4-.6.7-1.1.7-.2.1-.3.1-.5 0zm4.2 70.2c-.5.6-.9 1.3-1.4 1.9-.2.3-.6.5-.9.5-.2 0-.5-.1-.7-.2-.5-.4-.6-1.1-.2-1.7.5-.6.9-1.2 1.3-1.8.4-.5 1.1-.6 1.6-.3.6.3.7 1.1.3 1.6zm-.5-69.9c.2-.6.9-.9 1.5-.7.7.3 1.4.6 2.1.8.6.2.9.9.7 1.5-.2.5-.6.8-1.1.8-.1 0-.3 0-.4-.1-.7-.3-1.5-.6-2.2-.8-.5-.2-.8-.9-.6-1.5zm4.3 63.9c-.4.7-.8 1.4-1.2 2-.2.4-.6.6-1 .6-.2 0-.4-.1-.6-.2-.6-.3-.7-1.1-.4-1.6.4-.6.8-1.3 1.2-2 .3-.6 1.1-.8 1.6-.4.6.3.8 1 .4 1.6zm3.4-6.3c-.3.7-.7 1.4-1 2.1-.2.4-.6.6-1.1.6-.2 0-.4 0-.5-.1-.6-.3-.8-1-.5-1.6.3-.7.7-1.4 1-2.1.3-.6 1-.8 1.6-.6.5.4.7 1.1.5 1.7zm1.9-4.3c-.2.5-.6.7-1.1.7-.2 0-.3 0-.5-.1-.6-.3-.9-.9-.6-1.5l.9-2.1c.2-.6.9-.9 1.5-.7.6.2.9.9.7 1.5-.3.8-.6 1.5-.9 2.2zm2.6-6.6c-.2.5-.6.8-1.1.8-.1 0-.3 0-.4-.1-.6-.2-.9-.9-.7-1.5.3-.7.5-1.4.7-2.2.2-.6.9-1 1.5-.8.6.2 1 .9.8 1.5-.3.8-.6 1.6-.8 2.3zm2-6.7c-.1.5-.6.9-1.1.9h-.3c-.6-.2-1-.8-.8-1.5.2-.7.4-1.5.6-2.2.2-.6.8-1 1.4-.8.6.2 1 .8.8 1.4-.2.7-.4 1.4-.6 2.2zm1.8-6.9c-.1.5-.6.9-1.1.9h-.3c-.6-.1-1-.8-.9-1.4.2-.8.3-1.5.5-2.2.1-.6.8-1.1 1.4-.9.6.1 1 .8.9 1.4-.1.7-.3 1.4-.5 2.2zm1.4-6.9c-.1.6-.6 1-1.2 1h-.2c-.6-.1-1.1-.7-.9-1.4.1-.8.3-1.5.4-2.3.1-.6.7-1.1 1.4-1 .6.1 1.1.7 1 1.4-.2.7-.3 1.5-.5 2.3zm1.2-7c-.1.6-.6 1-1.2 1h-.2c-.6-.1-1.1-.7-1-1.3.1-.8.2-1.6.3-2.3.1-.6.7-1.1 1.3-1 .6.1 1.1.7 1 1.3 0 .7-.1 1.5-.2 2.3zm.8-7c-.1.6-.6 1.1-1.2 1.1h-.1c-.6-.1-1.1-.6-1.1-1.3.1-.8.1-1.6.2-2.3 0-.6.6-1.1 1.3-1.1.6 0 1.1.6 1.1 1.3-.1.7-.2 1.4-.2 2.3z"/><path fill="#FFF" d="M54.3 39c-10.9 0-19.7 8.8-19.7 19.7 0 10.9 8.8 19.7 19.7 19.7 10.9 0 19.7-8.8 19.7-19.7C74 47.8 65.2 39 54.3 39zm-9.8 19.1c0-2.4 1.3-4.3 2.9-4.3 1.6 0 2.9 1.9 2.9 4.3 0 .7-.1 1.3-.3 1.8h-5.2c-.2-.6-.3-1.2-.3-1.8zM54.3 71c-4.1 0-7.4-3.3-7.4-7.4h14.8c0 4.1-3.3 7.4-7.4 7.4zm9.6-11.1h-5.2c-.2-.6-.3-1.2-.3-1.8 0-2.4 1.3-4.3 2.9-4.3 1.6 0 2.9 1.9 2.9 4.3 0 .6-.1 1.2-.3 1.8z"/></g></svg>