<svg width="13" height="16" viewBox="0 0 13 16" fill="none" xmlns="http://www.w3.org/2000/svg">
<path fill-rule="evenodd" clip-rule="evenodd" d="M12.99 4.42C12.9995 4.47962 12.9995 4.54038 12.99 4.6C12.99 4.62 13 4.65 13 4.65V13.3C13 14.7912 11.7912 16 10.3 16H2.7C1.20883 16 0 14.7912 0 13.3V2.7C0 1.20883 1.20883 0 2.7 0H8.4C8.467 0.011807 8.53135 0.0355144 8.59 0.07H8.66C8.73479 0.103823 8.80262 0.151302 8.86 0.21L12.86 4.15C12.9182 4.20966 12.9625 4.28134 12.99 4.36V4.42ZM10.61 4L9.06 2.39V4H10.61ZM2.7 14.6H10.3C10.9989 14.6005 11.5731 14.0484 11.6 13.35V5.35H8.4C8.0134 5.35 7.7 5.0366 7.7 4.65V1.4H2.7C1.98203 1.4 1.4 1.98203 1.4 2.7V13.3C1.4 13.6448 1.53696 13.9754 1.78076 14.2192C2.02456 14.463 2.35522 14.6 2.7 14.6ZM3.5 7.34H9.55H9.6C9.9866 7.34 10.3 7.6534 10.3 8.04C10.3 8.4266 9.9866 8.74 9.6 8.74H3.5C3.1134 8.74 2.8 8.4266 2.8 8.04C2.8 7.6534 3.1134 7.34 3.5 7.34ZM9.55 11H3.5C3.1134 11 2.8 11.3134 2.8 11.7C2.8 12.0866 3.1134 12.4 3.5 12.4H9.6C9.85009 12.4 10.0812 12.2666 10.2062 12.05C10.3313 11.8334 10.3313 11.5666 10.2062 11.35C10.0812 11.1334 9.85009 11 9.6 11H9.55ZM5.61 5.09H3.5C3.1134 5.09 2.8 4.7766 2.8 4.39C2.8 4.0034 3.1134 3.69 3.5 3.69H5.61C5.9966 3.69 6.31 4.0034 6.31 4.39C6.31 4.7766 5.9966 5.09 5.61 5.09Z" fill="#12344D"/>
</svg>
