<svg xmlns="http://www.w3.org/2000/svg" width="49" height="57" fill="none" viewBox="0 0 49 57"><g clip-path="url(#clip0_938_21032)"><path fill="#C8D6F0" d="M39.46 13.5v39.65a2.3 2.3 0 01-2.3 2.3H2.3a2.3 2.3 0 01-2.3-2.3V4.59a2.3 2.3 0 012.3-2.3h25.95L39.46 13.5z"/><path stroke="#365DBD" stroke-linecap="round" stroke-linejoin="round" stroke-width=".75" d="M41.6 39.19v12.05a2.3 2.3 0 01-2.3 2.3H4.44a2.3 2.3 0 01-2.3-2.3V2.67C2.14 1.4 3.17.38 4.44.38h25.95L41.6 11.59v13.9"/><path fill="#365DBD" stroke="#365DBD" stroke-linecap="round" stroke-linejoin="round" stroke-width=".75" d="M30.39 11.59V.38L41.6 11.59H30.39z"/><path fill="#fff" d="M6.68 18.18V17c0-.16.13-.29.29-.29h4.22c.16 0 .29.13.29.29v3.92c0 .16-.13.29-.29.29H6.97a.29.29 0 01-.29-.29V19.4"/><path stroke="#1B344B" stroke-linecap="round" stroke-linejoin="round" stroke-width=".75" d="M7.31 17.55v-1.47h4.79v4.5H7.31v-1.81"/><path fill="#fff" d="M14.31 18.18V17c0-.16.13-.29.29-.29h21.54c.16 0 .29.13.29.29v3.92c0 .16-.13.29-.29.29H14.6a.29.29 0 01-.29-.29V19.4"/><path stroke="#1B344B" stroke-linecap="round" stroke-linejoin="round" stroke-width=".75" d="M14.94 17.55v-1.47h22.13v4.5H14.94v-1.81"/><path fill="#fff" d="M6.68 29.06v-1.18c0-.16.13-.29.29-.29h4.22c.16 0 .29.13.29.29v3.92c0 .16-.13.29-.29.29H6.97a.29.29 0 01-.29-.29v-1.52"/><path stroke="#1B344B" stroke-linecap="round" stroke-linejoin="round" stroke-width=".75" d="M7.31 28.42v-1.47h4.79v4.51H7.31v-1.81"/><path fill="#fff" d="M14.31 29.06v-1.18c0-.16.13-.29.29-.29h21.54c.16 0 .29.13.29.29v3.92c0 .16-.13.29-.29.29H14.6a.29.29 0 01-.29-.29v-1.52"/><path stroke="#1B344B" stroke-linecap="round" stroke-linejoin="round" stroke-width=".75" d="M14.94 28.42v-1.47h22.13v4.51H14.94v-1.81"/><path fill="#fff" d="M6.68 39.94v-1.18c0-.16.13-.29.29-.29h4.22c.16 0 .29.13.29.29v3.92c0 .16-.13.29-.29.29H6.97a.29.29 0 01-.29-.29v-1.52"/><path stroke="#1B344B" stroke-linecap="round" stroke-linejoin="round" stroke-width=".75" d="M7.31 39.3v-1.47h4.79v4.51H7.31v-1.81"/><path fill="#fff" d="M14.31 39.94v-1.18c0-.16.13-.29.29-.29h21.54c.16 0 .29.13.29.29v3.92c0 .16-.13.29-.29.29H14.6a.29.29 0 01-.29-.29v-1.52"/><path stroke="#1B344B" stroke-linecap="round" stroke-linejoin="round" stroke-width=".75" d="M14.94 39.3v-1.47h22.13v4.51H14.94v-1.81"/><path fill="#fff" d="M44.21 50.95c0 5.64-4.57 5.47-10.22 5.47s-10.22.18-10.22-5.47c0-5.65 3.16-14.5 10.22-14.5 7.06 0 10.22 8.86 10.22 14.5z"/><path fill="#C8D6F0" d="M46.25 50.59c0 5.64-4.57 5.47-10.22 5.47s-10.22.18-10.22-5.47c0-5.65 3.16-14.5 10.22-14.5 7.06 0 10.22 8.86 10.22 14.5z"/><path fill="#365DBD" stroke="#365DBD" stroke-linecap="round" stroke-linejoin="round" stroke-width=".75" d="M42.93 30.78c0-2.06-2.16-.09-4.83-.09s-4.83-1.98-4.83.09 1.5 5.3 4.83 5.3 4.83-3.24 4.83-5.3z"/><path stroke="#365DBD" stroke-linecap="round" stroke-linejoin="round" stroke-width=".75" d="M48.32 50.59c0 5.64-4.57 5.47-10.22 5.47s-10.22.18-10.22-5.47c0-5.65 3.16-14.5 10.22-14.5 7.06 0 10.22 8.86 10.22 14.5z"/><path fill="#365DBD" stroke="#365DBD" stroke-linecap="round" stroke-linejoin="round" stroke-width=".5" d="M40.59 45.76c-.4-.36-1-.62-1.8-.79l-.07-.02-.89-.19c-.11-.03-.22-.06-.31-.09-.3-.09-.53-.21-.67-.35a.864.864 0 01-.28-.65c0-.2.05-.37.17-.53.12-.17.29-.3.52-.4.08-.03.16-.06.26-.09.17-.04.37-.06.58-.06.23 0 .43.03.62.09.06.01.13.03.19.05.23.09.41.22.55.39.14.17.23.38.27.62v.06h1.37v-.1c-.04-.47-.19-.87-.45-1.21-.26-.34-.61-.6-1.04-.79a3.14 3.14 0 00-.89-.22v-1.02h-1.2v1.01c-.34.04-.66.12-.94.25-.45.19-.79.46-1.05.81-.25.35-.37.76-.37 1.23 0 .61.19 1.1.58 1.46.4.36.97.63 1.74.8h.04l.9.21c.11.02.21.05.3.08.38.1.64.22.79.36.19.18.28.4.28.68 0 .22-.06.41-.17.58-.11.17-.28.3-.52.4-.11.04-.24.07-.38.09-.16.04-.35.05-.56.05-.24 0-.46-.02-.64-.06-.11-.02-.22-.05-.31-.09-.25-.1-.44-.24-.57-.41-.14-.18-.22-.37-.26-.59v-.06H35v.08c.04.48.2.89.47 1.24.28.34.65.6 1.1.79.29.11.61.19.95.23v1.01h1.2V49.6c.35-.04.67-.12.97-.24.46-.19.83-.46 1.1-.82.27-.35.41-.79.41-1.3v-.02c0-.62-.21-1.11-.61-1.46z"/></g><defs><clipPath id="clip0_938_21032"><path fill="#fff" d="M0 0h48.69v56.43H0z"/></clipPath></defs></svg>