<svg xmlns="http://www.w3.org/2000/svg" width="66" height="67" fill="none"><g opacity=".7"><path fill="#C9D7ED" d="M34.376 55.913l19.516-19.418a3.127 3.127 0 014.406 0 3.09 3.09 0 010 4.384L38.782 60.297a3.127 3.127 0 01-4.406 0 3.09 3.09 0 010-4.384z" opacity=".3"/><mask id="fs-w6qyuosbna" style="mask-type:alpha" width="10" height="10" x="0" y="36" maskUnits="userSpaceOnUse"><path fill="#fff" fill-rule="evenodd" d="M.675 36.33h9.25v9.203H.674V36.33z" clip-rule="evenodd"/></mask><g mask="url(#fs-w6qyuosbna)"><path fill="#C9D7ED" d="M1.588 40.241l3.018-3.003a3.127 3.127 0 014.406 0 3.089 3.089 0 010 4.384l-3.018 3.003a3.126 3.126 0 01-4.406 0 3.089 3.089 0 010-4.384z" opacity=".3"/></g><path fill="#C9D7ED" d="M35.763 45.94l8.919-8.875a3.075 3.075 0 00-.911 2.19 3.075 3.075 0 00.91 2.192 3.127 3.127 0 004.406.001l-8.919 8.875a3.075 3.075 0 00.912-2.191 3.079 3.079 0 00-.913-2.193 3.126 3.126 0 00-4.404 0zM31.95 32.42l8.357-8.316a3.075 3.075 0 00-.911 2.192 3.075 3.075 0 00.91 2.191 3.127 3.127 0 004.407.001l-8.357 8.315a3.074 3.074 0 00.911-2.19 3.078 3.078 0 00-.912-2.193 3.126 3.126 0 00-4.405 0z" opacity=".3"/><path fill="#C9D7ED" d="M28.99 43.954l24.382-24.26a3.127 3.127 0 014.406 0 3.089 3.089 0 010 4.384l-24.382 24.26a3.127 3.127 0 01-4.405 0 3.089 3.089 0 010-4.384zM5.035 50.53l33.187-33.021a3.126 3.126 0 014.406 0 3.089 3.089 0 010 4.383L9.441 54.914a3.127 3.127 0 01-4.406 0 3.089 3.089 0 010-4.384zm5.866-21.74l12.316-12.254a3.127 3.127 0 014.406 0 3.089 3.089 0 010 4.384L15.307 33.174a3.127 3.127 0 01-4.406 0 3.09 3.09 0 010-4.384zM31.272 8.521l.074-.073a3.127 3.127 0 014.406 0 3.09 3.09 0 010 4.384l-.074.073a3.127 3.127 0 01-4.406 0 3.089 3.089 0 010-4.384zm-9.446 42.355l.073-.074a3.127 3.127 0 014.406 0 3.09 3.09 0 010 4.384l-.073.074a3.127 3.127 0 01-4.406 0 3.09 3.09 0 010-4.384z" opacity=".3"/><path stroke="#C9D7ED" stroke-linecap="round" stroke-linejoin="round" stroke-width=".84" d="M62.284 48.343a.593.593 0 01-.595.591.593.593 0 01-.594-.591.593.593 0 011.19 0z" clip-rule="evenodd"/><path stroke="#C9D7ED" stroke-linecap="round" stroke-linejoin="round" stroke-width=".84" d="M5.517 5.27v2.929m1.472-1.466H4.045"/><path stroke="#C9D7ED" stroke-linecap="round" stroke-linejoin="round" stroke-width=".84" d="M18.077 17.194a.593.593 0 01-.595.592.593.593 0 01-.595-.592c0-.327.267-.591.595-.591.328 0 .595.264.595.591z" clip-rule="evenodd"/><path stroke="#C9D7ED" stroke-linecap="round" stroke-linejoin="round" stroke-width=".709" d="M62.472 30.017a.593.593 0 01-.595.592.593.593 0 01-.594-.592c0-.326.266-.591.594-.591.329 0 .595.265.595.591z" clip-rule="evenodd"/><path stroke="#C9D7ED" stroke-linecap="round" stroke-linejoin="round" stroke-width=".533" d="M29.62 13.638l.29 1.056-1.062.289-.29-1.057 1.062-.288z" clip-rule="evenodd"/><path stroke="#C9D7ED" stroke-linecap="round" stroke-linejoin="round" stroke-width=".709" d="M9.066 35.377c0-.38.31-.69.692-.69a.69.69 0 01.693.69.69.69 0 01-.693.688.69.69 0 01-.692-.688z" clip-rule="evenodd"/><path stroke="#CFD7DF" stroke-dasharray="0.96 0.96" stroke-linecap="round" stroke-width=".602" d="M36.084 45.348c-3.79-.66-15.655-3.599-11.83-14.192 0 0 5.52-14.28 21.66-10.8 0 0 5.542 1.649 5.415 6.65 0 0-1.954 16.528-35.605 2.004 0 0-27.724-18.334 19.37-26.65"/><path fill="#DBE2E8" d="M21.915 38.1h-.686v-.69h-.459v.69h-.686v.46h.686v.691h.459v-.69h.686v-.46z"/><path fill="#fff" stroke="#CFD7DF" stroke-width=".602" d="M35.434 3.268c.63 0 1.14-.508 1.14-1.134 0-.626-.51-1.134-1.14-1.134-.63 0-1.14.508-1.14 1.134 0 .626.51 1.134 1.14 1.134z"/><path fill="#CBDBFF" stroke="#717791" stroke-width="1.496" d="M19.224 36.255c0-1.073.87-1.944 1.944-1.944h24.624c1.074 0 1.944.87 1.944 1.944v8.424a3.888 3.888 0 01-3.888 3.889H23.112a3.888 3.888 0 01-3.888-3.889v-8.424z"/><path fill="#CBDBFF" d="M20.797 36.904h.299c-1.71 0-3.096-1.45-3.096-3.24v-3.888c0-1.79 1.386-3.24 3.096-3.24h24.768c1.71 0 3.096 1.45 3.096 3.24v3.888c0 1.79-1.386 3.24-3.096 3.24H29.265"/><path stroke="#717791" stroke-linecap="round" stroke-linejoin="round" stroke-width="1.496" d="M20.797 36.904h.299c-1.71 0-3.096-1.45-3.096-3.24v-3.888c0-1.79 1.386-3.24 3.096-3.24h24.768c1.71 0 3.096 1.45 3.096 3.24v3.888c0 1.79-1.386 3.24-3.096 3.24H29.265"/><path fill="#CBDBFF" stroke="#717791" stroke-width="1.496" d="M36.072 33.664h-5.184c-1.074 0-1.944.87-1.944 1.944V38.2c0 1.074.87 1.944 1.944 1.944h5.184c1.074 0 1.944-.87 1.944-1.944v-2.592c0-1.073-.87-1.944-1.944-1.944zM27 23.944C27 22.87 27.87 22 28.944 22h9.072c1.074 0 1.944.87 1.944 1.944v2.592H27v-2.592z"/><path stroke="#717791" stroke-linecap="round" stroke-width="1.496" d="M27.636 36.904h1.287m-5.175 0h1.287"/></g></svg>