<svg xmlns="http://www.w3.org/2000/svg" width="51" height="62" fill="none" viewBox="0 0 51 62"><g clip-path="url(#clip0_939_21140)"><path stroke="#365DBD" stroke-linecap="round" stroke-linejoin="round" stroke-width=".75" d="M44.13 40.12l1.51 11.95c.16 1.26-.73 2.41-1.99 2.57L9.06 59.02c-1.26.16-2.41-.73-2.57-1.99L.39 8.85c-.16-1.26.73-2.41 1.99-2.57l25.75-3.26 12.53 9.71 1.75 13.79"/><path fill="#365DBD" stroke="#365DBD" stroke-linecap="round" stroke-linejoin="round" stroke-width=".75" d="M29.54 14.14L28.13 3.02l12.53 9.72-11.12 1.4z"/><path fill="#C8D6F0" d="M46.52 13.5v39.65a2.3 2.3 0 01-2.3 2.3H9.35a2.3 2.3 0 01-2.3-2.3V4.59a2.3 2.3 0 012.3-2.3H35.3L46.51 13.5h.01z"/><path stroke="#365DBD" stroke-linecap="round" stroke-linejoin="round" stroke-width=".75" d="M48.66 39.19v12.05a2.3 2.3 0 01-2.3 2.3H11.5a2.3 2.3 0 01-2.3-2.3V2.67a2.3 2.3 0 012.3-2.3h25.95l11.21 11.21v13.9"/><path fill="#365DBD" stroke="#365DBD" stroke-linecap="round" stroke-linejoin="round" stroke-width=".75" d="M37.45 11.59V.38l11.21 11.21H37.45z"/><path fill="#fff" d="M40.92 17.69H13.91a.61.61 0 00-.61.61v2.96c0 .337.273.61.61.61h27.01a.61.61 0 00.61-.61V18.3a.61.61 0 00-.61-.61z"/><path stroke="#365DBD" stroke-linecap="round" stroke-linejoin="round" stroke-width=".75" d="M41.84 16.43H14.83a.61.61 0 00-.61.61V20c0 .337.273.61.61.61h27.01a.61.61 0 00.61-.61v-2.96a.61.61 0 00-.61-.61z"/><path fill="#fff" d="M40.92 25.42H13.91a.61.61 0 00-.61.61v.96c0 .337.273.61.61.61h27.01a.61.61 0 00.61-.61v-.96a.61.61 0 00-.61-.61z"/><path stroke="#365DBD" stroke-linecap="round" stroke-linejoin="round" stroke-width=".75" d="M41.84 24.15H14.83a.61.61 0 00-.61.61v.96c0 .337.273.61.61.61h27.01a.61.61 0 00.61-.61v-.96a.61.61 0 00-.61-.61z"/><path fill="#fff" d="M40.92 31.32H13.91a.61.61 0 00-.61.61v.96c0 .337.273.61.61.61h27.01a.61.61 0 00.61-.61v-.96a.61.61 0 00-.61-.61z"/><path stroke="#365DBD" stroke-linecap="round" stroke-linejoin="round" stroke-width=".75" d="M41.84 30.05H14.83a.61.61 0 00-.61.61v.96c0 .337.273.61.61.61h27.01a.61.61 0 00.61-.61v-.96a.61.61 0 00-.61-.61z"/><path fill="#fff" d="M40.92 37.21H13.91a.61.61 0 00-.61.61v.96c0 .337.273.61.61.61h27.01a.61.61 0 00.61-.61v-.96a.61.61 0 00-.61-.61z"/><path stroke="#365DBD" stroke-linecap="round" stroke-linejoin="round" stroke-width=".75" d="M41.84 35.95H14.83a.61.61 0 00-.61.61v.96c0 .337.273.61.61.61h27.01a.61.61 0 00.61-.61v-.96a.61.61 0 00-.61-.61z"/><path fill="#fff" d="M40.92 43.11H13.91a.61.61 0 00-.61.61v.96c0 .337.273.61.61.61h27.01a.61.61 0 00.61-.61v-.96a.61.61 0 00-.61-.61z"/><path stroke="#365DBD" stroke-linecap="round" stroke-linejoin="round" stroke-width=".75" d="M41.84 41.85H14.83a.61.61 0 00-.61.61v.96c0 .337.273.61.61.61h27.01a.61.61 0 00.61-.61v-.96a.61.61 0 00-.61-.61z"/><path fill="#365DBD" d="M40.05 50.69v10.26l3.41-4.16L47 60.95V50.69c-1.04.55-5.91.55-6.95 0z"/><path stroke="#365DBD" stroke-linecap="round" stroke-linejoin="round" stroke-width=".75" d="M40.05 50.69v10.26l3.41-4.16L47 60.95V50.69c-1.04.55-5.91.55-6.95 0"/><path fill="#fff" d="M43.53 41.1c-3.79 0-6.87 3.12-6.87 6.98 0 3.86 3.07 6.98 6.87 6.98 3.8 0 6.86-3.12 6.86-6.98 0-3.86-3.07-6.98-6.86-6.98z"/><path stroke="#1B344B" stroke-linecap="round" stroke-linejoin="round" stroke-width=".75" d="M43.53 41.1c-3.79 0-6.87 3.12-6.87 6.98 0 3.86 3.07 6.98 6.87 6.98 3.8 0 6.86-3.12 6.86-6.98 0-3.86-3.07-6.98-6.86-6.98"/><path fill="#365DBD" fill-rule="evenodd" stroke="#365DBD" stroke-linecap="round" stroke-linejoin="round" stroke-width=".75" d="M45.72 51.5l-2.19-1.35-2.19 1.35.58-2.53-1.93-1.7 2.55-.22 1-2.4 1 2.4 2.55.22-1.93 1.7.57 2.53h-.01z" clip-rule="evenodd"/><path fill="#fff" d="M17.22 14.15a4.56 4.56 0 100-9.12 4.56 4.56 0 000 9.12z"/><path stroke="#365DBD" stroke-linecap="round" stroke-linejoin="round" stroke-width=".75" d="M18.5 13.4a4.56 4.56 0 100-9.12 4.56 4.56 0 000 9.12z"/><path fill="#365DBD" stroke="#365DBD" stroke-linecap="round" stroke-linejoin="round" stroke-width=".75" d="M19.12 11.05l5.27-3.97-1.59-2.05-3.22 3.91-1.21-2.56-2.01 1.97 2.76 2.7z"/></g><defs><clipPath id="clip0_939_21140"><path fill="#fff" d="M0 0h50.77v61.33H0z"/></clipPath></defs></svg>