<svg xmlns="http://www.w3.org/2000/svg" width="61" height="55" fill="none" viewBox="0 0 61 55"><g clip-path="url(#clip0_938_21001)"><path fill="#C8D6F0" d="M44.55 5.19H9.05a1.46 1.46 0 00-1.46 1.46v46.78c0 .806.654 1.46 1.46 1.46h35.5a1.46 1.46 0 001.46-1.46V6.65a1.46 1.46 0 00-1.46-1.46z"/><path stroke="#365DBD" stroke-linecap="round" stroke-linejoin="round" stroke-width=".75" d="M9.68 28.28v-14.2M9.68 8.63V4.09c0-.8.65-1.46 1.46-1.46h35.51c.8 0 1.46.65 1.46 1.46v46.78c0 .8-.65 1.46-1.46 1.46H11.14c-.8 0-1.46-.65-1.46-1.46v-18"/><path fill="#fff" d="M15.21 15.59v-1.18c0-.16.13-.29.29-.29h4.22c.16 0 .29.13.29.29v3.92c0 .16-.13.29-.29.29H15.5a.29.29 0 01-.29-.29v-1.52"/><path stroke="#365DBD" stroke-linecap="round" stroke-linejoin="round" stroke-width=".75" d="M15.83 14.95v-1.47h4.8v4.51h-4.8v-1.81"/><path fill="#fff" d="M22.84 15.59v-1.18c0-.16.13-.29.29-.29h17.54c.16 0 .29.13.29.29v3.92c0 .16-.13.29-.29.29H23.13a.29.29 0 01-.29-.29v-1.52"/><path stroke="#365DBD" stroke-linecap="round" stroke-linejoin="round" stroke-width=".75" d="M23.47 14.95v-1.47h18.12v4.51H23.47v-1.81"/><path stroke="#fff" stroke-linecap="round" stroke-linejoin="round" d="M14.42 33.51h27.96"/><path stroke="#1B344B" stroke-linecap="round" stroke-linejoin="round" d="M14.42 33.27h27.96"/><path stroke="#fff" stroke-linecap="round" stroke-linejoin="round" d="M14.42 37.23h27.96"/><path stroke="#1B344B" stroke-linecap="round" stroke-linejoin="round" d="M14.42 36.98h27.96"/><path stroke="#fff" stroke-linecap="round" stroke-linejoin="round" d="M14.42 40.95h27.96"/><path stroke="#1B344B" stroke-linecap="round" stroke-linejoin="round" d="M14.42 40.7h27.96"/><path stroke="#fff" stroke-linecap="round" stroke-linejoin="round" d="M14.42 44.66h27.96"/><path stroke="#1B344B" stroke-linecap="round" stroke-linejoin="round" d="M14.42 44.42h27.96"/><path fill="#C8D6F0" d="M55.65 4.03c2.71 2.51 4.41 6.1 4.41 10.09 0 7.59-6.15 13.74-13.74 13.74s-13.74-6.15-13.74-13.74S38.72.38 46.31.38c1.9 0 3.71.39 5.35 1.08"/><path stroke="#1B344B" stroke-linecap="round" stroke-linejoin="round" stroke-width=".75" d="M55.65 4.03c2.71 2.51 4.41 6.1 4.41 10.09 0 7.59-6.15 13.74-13.74 13.74s-13.74-6.15-13.74-13.74S38.72.38 46.31.38c1.9 0 3.71.39 5.35 1.08"/><path fill="#365DBD" stroke="#1B344B" stroke-linecap="round" stroke-linejoin="round" stroke-width=".75" d="M46.31 23.45a9.33 9.33 0 100-18.66 9.33 9.33 0 000 18.66z"/><path fill="#C8D6F0" stroke="#1B344B" stroke-linecap="round" stroke-linejoin="round" stroke-width=".75" d="M46.31 19.54a5.42 5.42 0 100-10.84 5.42 5.42 0 000 10.84z"/><path fill="#fff" d="M46.31 12.53l-5.47 10.69-1.95-3.01-18.27 12.5a2.51 2.51 0 01-3.22-.36l-4.76-5.04-8.54 6.42c-.47.39-1.03.58-1.6.58-.71 0-1.42-.3-1.92-.9-.88-1.05-.74-2.63.32-3.52l10.34-7.93c1.01-.84 2.51-.75 3.42.21l4.91 5.2 16.6-11.36-1.86-2.88 12-.6z"/><path fill="#fff" d="M48.11 13.48l-5.47 10.69-1.95-3.01-18.27 12.5a2.51 2.51 0 01-3.22-.36l-4.76-5.04-8.54 6.42c-.47.39-1.03.58-1.6.58-.71 0-1.42-.3-1.92-.9-.88-1.05-.74-2.63.32-3.52l10.34-7.93c1.01-.84 2.51-.75 3.42.21l4.91 5.2 16.6-11.36-1.86-2.88 12-.6z"/><path stroke="#1B344B" stroke-linecap="round" stroke-linejoin="round" stroke-width=".75" d="M8.38 25.08l3.42-2.63c1.01-.84 2.51-.75 3.42.21l4.91 5.2 16.6-11.36-1.86-2.88 12-.6-5.47 10.69-1.95-3.01-18.27 12.5a2.51 2.51 0 01-3.22-.36L13.2 27.8l-8.54 6.42c-.47.39-1.03.58-1.6.58-.71 0-1.42-.3-1.92-.9-.88-1.05-.74-2.63.32-3.52l4.6-3.53"/></g><defs><clipPath id="clip0_938_21001"><path fill="#fff" d="M0 0h60.43v54.89H0z"/></clipPath></defs></svg>