<svg xmlns="http://www.w3.org/2000/svg" width="52" height="53" fill="none" viewBox="0 0 52 53"><g clip-path="url(#clip0_938_21064)"><path fill="#C8D6F0" d="M36.96 2.94H1.46A1.46 1.46 0 000 4.4v46.78c0 .806.654 1.46 1.46 1.46h35.5a1.46 1.46 0 001.46-1.46V4.4a1.46 1.46 0 00-1.46-1.46z"/><path stroke="#365DBD" stroke-linecap="round" stroke-linejoin="round" stroke-width=".75" d="M40.52 24.43v14.19M40.52 44.08v4.54c0 .8-.65 1.46-1.46 1.46H3.55c-.8 0-1.46-.65-1.46-1.46V1.83c0-.8.65-1.46 1.46-1.46h35.51c.8 0 1.46.65 1.46 1.46v18"/><path fill="#C8D6F0" d="M15.08 9.43C16.72 8.52 18.6 8 20.61 8c1.15 0 2.27.17 3.31.49 4.4 1.34 7.66 5.25 8.04 9.98.03.31.04.62.04.93 0 6.29-5.1 11.39-11.39 11.39-6.29 0-11.39-5.1-11.39-11.39 0-2.83 1.03-5.42 2.73-7.41"/><path stroke="#365DBD" stroke-linecap="round" stroke-linejoin="round" stroke-width=".75" d="M15.08 9.43C16.72 8.52 18.6 8 20.61 8c1.15 0 2.27.17 3.31.49 4.4 1.34 7.66 5.25 8.04 9.98.03.31.04.62.04.93 0 6.29-5.1 11.39-11.39 11.39-6.29 0-11.39-5.1-11.39-11.39 0-2.83 1.03-5.42 2.73-7.41"/><path fill="#fff" d="M33.43 17.53l-11.35.93 3.31-10.91c4.4 1.34 7.66 5.25 8.04 9.98z"/><path stroke="#1B344B" stroke-linecap="round" stroke-linejoin="round" stroke-width=".75" d="M24.54 9.46l.85-2.81c4.4 1.34 7.66 5.25 8.04 9.98l-11.35.93 1.98-6.53"/><path fill="#fff" d="M8.11 38.13v-1.18c0-.16.13-.29.29-.29h4.22c.16 0 .29.13.29.29v3.92c0 .16-.13.29-.29.29H8.4a.29.29 0 01-.29-.29v-1.52"/><path stroke="#1B344B" stroke-linecap="round" stroke-linejoin="round" stroke-width=".75" d="M8.74 37.5v-1.47h4.8v4.5h-4.8v-1.81"/><path fill="#fff" d="M15.75 38.13v-1.18c0-.16.13-.29.29-.29h17.54c.16 0 .29.13.29.29v3.92c0 .16-.13.29-.29.29H16.04a.29.29 0 01-.29-.29v-1.52"/><path stroke="#1B344B" stroke-linecap="round" stroke-linejoin="round" stroke-width=".75" d="M16.38 37.5v-1.47H34.5v4.5H16.38v-1.81"/><path fill="#C8D6F0" d="M49.39 23.29H32.36a.89.89 0 00-.89.89v22.43c0 .492.399.89.89.89h17.03a.89.89 0 00.89-.89V24.18a.89.89 0 00-.89-.89z"/><path stroke="#365DBD" stroke-linecap="round" stroke-linejoin="round" stroke-width=".75" d="M50.51 22.12H33.48a.89.89 0 00-.89.89v22.43c0 .492.398.89.89.89h17.03a.89.89 0 00.89-.89V23.01a.89.89 0 00-.89-.89zM32.59 29.43H51.4"/><path fill="#fff" d="M37.99 34.06h-2.85c-.12 0-.22.1-.22.22v2.85c0 .12.1.22.22.22h2.85c.12 0 .22-.1.22-.22v-2.85c0-.12-.1-.22-.22-.22z"/><path stroke="#1B344B" stroke-linecap="round" stroke-linejoin="round" stroke-width=".41" d="M38.21 33.49h.43s.06 0 .09.02c.03.01.05.03.07.05.02.02.04.05.05.07.01.03.02.06.02.09v2.85c0 .06-.02.12-.07.16-.04.04-.1.07-.16.07h-2.85c-.06 0-.12-.02-.16-.07a.236.236 0 01-.07-.16v-2.85s0-.06.02-.09a.18.18 0 01.05-.07c.02-.02.05-.04.07-.05.03-.01.06-.02.09-.02h1.48"/><path fill="#fff" d="M43.09 34.06h-2.85c-.12 0-.22.1-.22.22v2.85c0 .12.1.22.22.22h2.85c.12 0 .22-.1.22-.22v-2.85c0-.12-.1-.22-.22-.22z"/><path stroke="#1B344B" stroke-linecap="round" stroke-linejoin="round" stroke-width=".41" d="M43.31 33.49h.43s.06 0 .09.02c.03.01.05.03.07.05.02.02.04.05.05.07.01.03.02.06.02.09v2.85c0 .06-.02.12-.07.16-.04.04-.1.07-.16.07h-2.85c-.06 0-.12-.02-.16-.07a.236.236 0 01-.07-.16v-2.85s0-.06.02-.09a.18.18 0 01.05-.07c.02-.02.05-.04.07-.05.03-.01.06-.02.09-.02h1.48"/><path fill="#fff" d="M48.2 34.06h-2.85c-.12 0-.22.1-.22.22v2.85c0 .12.1.22.22.22h2.85c.12 0 .22-.1.22-.22v-2.85c0-.12-.1-.22-.22-.22z"/><path stroke="#1B344B" stroke-linecap="round" stroke-linejoin="round" stroke-width=".41" d="M48.41 33.49h.43s.06 0 .09.02c.03.01.05.03.07.05.02.02.04.05.05.07.01.03.02.06.02.09v2.85c0 .06-.02.12-.07.16-.04.04-.1.07-.16.07h-2.85c-.06 0-.12-.02-.16-.07a.236.236 0 01-.07-.16v-2.85s0-.06.02-.09a.18.18 0 01.05-.07c.02-.02.05-.04.07-.05.03-.01.06-.02.09-.02h1.48"/><path fill="#fff" d="M37.99 39.64h-2.85c-.12 0-.22.1-.22.22v2.85c0 .12.1.22.22.22h2.85c.12 0 .22-.1.22-.22v-2.85c0-.12-.1-.22-.22-.22z"/><path stroke="#1B344B" stroke-linecap="round" stroke-linejoin="round" stroke-width=".41" d="M38.21 39.08h.43s.06 0 .09.02c.03.01.05.03.07.05.02.02.04.05.05.07.01.03.02.06.02.09v2.85c0 .06-.02.12-.07.16-.04.04-.1.07-.16.07h-2.85c-.06 0-.12-.02-.16-.07a.236.236 0 01-.07-.16v-2.85s0-.06.02-.09c.01-.03.03-.05.05-.07.02-.02.05-.04.07-.05.03-.01.06-.02.09-.02h1.48"/><path fill="#fff" d="M43.09 39.64h-2.85c-.12 0-.22.1-.22.22v2.85c0 .12.1.22.22.22h2.85c.12 0 .22-.1.22-.22v-2.85c0-.12-.1-.22-.22-.22z"/><path stroke="#1B344B" stroke-linecap="round" stroke-linejoin="round" stroke-width=".41" d="M43.31 39.08h.43s.06 0 .09.02c.03.01.05.03.07.05.02.02.04.05.05.07.01.03.02.06.02.09v2.85c0 .06-.02.12-.07.16-.04.04-.1.07-.16.07h-2.85c-.06 0-.12-.02-.16-.07a.236.236 0 01-.07-.16v-2.85s0-.06.02-.09c.01-.03.03-.05.05-.07.02-.02.05-.04.07-.05.03-.01.06-.02.09-.02h1.48"/><path fill="#fff" d="M48.2 39.64h-2.85c-.12 0-.22.1-.22.22v2.85c0 .12.1.22.22.22h2.85c.12 0 .22-.1.22-.22v-2.85c0-.12-.1-.22-.22-.22z"/><path stroke="#1B344B" stroke-linecap="round" stroke-linejoin="round" stroke-width=".41" d="M48.41 39.08h.43s.06 0 .09.02c.03.01.05.03.07.05.02.02.04.05.05.07.01.03.02.06.02.09v2.85c0 .06-.02.12-.07.16-.04.04-.1.07-.16.07h-2.85c-.06 0-.12-.02-.16-.07a.236.236 0 01-.07-.16v-2.85s0-.06.02-.09c.01-.03.03-.05.05-.07.02-.02.05-.04.07-.05.03-.01.06-.02.09-.02h1.48"/></g><defs><clipPath id="clip0_938_21064"><path fill="#fff" d="M0 0h51.77v52.64H0z"/></clipPath></defs></svg>