<svg xmlns="http://www.w3.org/2000/svg" width="56" height="63" fill="none" viewBox="0 0 56 63"><g clip-path="url(#clip0_939_21172)"><path fill="#C8D6F0" d="M39.46 13.5v39.65a2.3 2.3 0 01-2.3 2.3H2.3a2.3 2.3 0 01-2.3-2.3V4.59a2.3 2.3 0 012.3-2.3h25.95L39.46 13.5z"/><path stroke="#365DBD" stroke-linecap="round" stroke-linejoin="round" stroke-width=".75" d="M2.14 10.67v-8C2.14 1.4 3.17.38 4.44.38h25.95L41.6 11.59v13.9M41.6 39.19v12.05a2.3 2.3 0 01-2.3 2.3H4.44a2.3 2.3 0 01-2.3-2.3V15.62"/><path fill="#365DBD" stroke="#365DBD" stroke-linecap="round" stroke-linejoin="round" stroke-width=".75" d="M30.39 11.59V.38L41.6 11.59H30.39z"/><path fill="#C8D6F0" d="M44.79 46.34c-.92-1.91-3-3.41-4.61-4.72-1.19-1-2.41-2-3.6-2.95-.62-.51-1.26-1-1.84-1.56-.58-.56-.8-.95-1.46-1-.93-.13-1.89.77-2.65 1.22-.7.58-1.48 1.07-2.32 1.43-1.2.33-3.4.09-3.38-1.56 0-1.32 1.06-2.67 1.8-3.69.31-.58.59-1.19.82-1.81a.54.54 0 00.03-.25.384.384 0 00-.11-.23.487.487 0 00-.21-.14.427.427 0 00-.25-.01c-1.79.5-3.7.38-5.42-.35-.5.26-4 11.92-4 11.92.68.58 2.78 2.93 3.76 3.76 3.57 3 7.73 6.09 8.45 6.57.85.53 1.82.86 2.82.94.85 0 1.6-.18 1.88-.94 1.38 1.27 3.59-.06 3.75-1.88 1.14 1.06 4 .07 3.76-1.88a2.102 2.102 0 002.42-.42c.31-.32.51-.72.57-1.16.06-.44-.01-.88-.22-1.28l.01-.01z"/><path stroke="#365DBD" stroke-linecap="round" stroke-linejoin="round" stroke-width=".75" d="M33.61 32.77c-1.71.62-1.64.85-2.93 1-.94 1.41-2.48 2.74-4.88 1.95-2.4-.79-.31-4.47 1.38-6.16 3.35-3.35 5.43-4.38 9.36-2.63 3.93 1.75 7.81 3.11 7.81 3.11"/><path stroke="#1B344B" stroke-linecap="round" stroke-linejoin="round" stroke-width=".5" d="M16.99 39.61c.7.6 2.88 3 3.9 3.9 3.71 3.11 8 6.34 8.79 6.84.88.56 1.89.9 2.93 1 .89 0 1.67-.2 1.95-1 1.43 1.32 3.75 0 3.93-1.95 1.18 1.09 4.12.06 3.91-2 .41.2.87.27 1.32.2.45-.07.87-.29 1.19-.61.32-.32.54-.74.61-1.19.07-.45 0-.92-.2-1.32-1.13-2.36-8.26-7.74-11.71-10.74M28.72 27.89h-8.78"/><path stroke="#365DBD" stroke-linecap="round" stroke-linejoin="round" stroke-width=".9" d="M45.4 43.48l2.85-1.92"/><path stroke="#365DBD" stroke-linecap="round" stroke-linejoin="round" stroke-width=".75" d="M45.4 43.48l2.85-1.92"/><path stroke="#1B344B" stroke-linecap="round" stroke-linejoin="round" stroke-width=".6" d="M42.4 46.44c-1-.79-5.86-5.85-5.86-5.85"/><path stroke="#1B344B" stroke-linecap="round" stroke-linejoin="round" stroke-width=".5" d="M42.4 46.44c-1-.79-5.86-5.85-5.86-5.85M38.49 48.4c-1.27-1-4.36-4.32-4.88-4.89m.97 6.83c-1.3-1.1-3.82-3.75-4.88-4.88"/><path fill="#365DBD" fill-rule="evenodd" d="M8.89 42.84h5.86s3.47-10.6 3.9-15.62c-1.54-1.46-9.76-2-9.76-2v17.62z" clip-rule="evenodd"/><path stroke="#1B344B" stroke-linecap="round" stroke-linejoin="round" stroke-width=".5" d="M10.17 41.56h5.82s3.51-10.6 4-15.62c-1.6-1.47-9.82-1.95-9.82-1.95v17.57z"/><path fill="#C8D6F0" fill-rule="evenodd" d="M41.75 26.58c1.31 2.11 5.12 13.1 5.82 15.63h5.86V24.63c-7.54 0-11.68 2-11.68 2" clip-rule="evenodd"/><path stroke="#365DBD" stroke-linecap="round" stroke-linejoin="round" stroke-width=".75" d="M43.41 27.89c1.31 2.11 5.12 13.09 5.82 15.62h5.86V25.94c-7.54 0-11.68 1.95-11.68 1.95z"/><path fill="#fff" d="M34.17 15.62H7.16a.61.61 0 00-.61.61v2.96c0 .337.273.61.61.61h27.01a.61.61 0 00.61-.61v-2.96a.61.61 0 00-.61-.61z"/><path stroke="#365DBD" stroke-linecap="round" stroke-linejoin="round" stroke-width=".75" d="M35.09 14.35H8.08a.61.61 0 00-.61.61v2.96c0 .337.273.61.61.61h27.01a.61.61 0 00.61-.61v-2.96a.61.61 0 00-.61-.61z"/></g><defs><clipPath id="clip0_939_21172"><path fill="#fff" d="M0 0h55.99v62.34H0z"/></clipPath></defs></svg>