<svg xmlns="http://www.w3.org/2000/svg" width="66" height="67" fill="none" viewBox="0 0 66 67"><path fill="#C9D7ED" d="M34.376 55.913l19.516-19.418a3.127 3.127 0 014.406 0 3.09 3.09 0 010 4.384L38.782 60.297a3.127 3.127 0 01-4.406 0 3.09 3.09 0 010-4.384z" opacity=".3"/><mask id="fs-c1jpm2idba" width="10" height="10" x="0" y="36" maskUnits="userSpaceOnUse"><path fill="#fff" fill-rule="evenodd" d="M.675 36.33h9.25v9.203H.674V36.33z" clip-rule="evenodd"/></mask><g mask="url(#fs-c1jpm2idba)"><path fill="#C9D7ED" d="M1.588 40.241l3.018-3.003a3.127 3.127 0 014.406 0 3.089 3.089 0 010 4.384l-3.018 3.003a3.126 3.126 0 01-4.406 0 3.089 3.089 0 010-4.384z" opacity=".3"/></g><path fill="#C9D7ED" d="M35.763 45.94l8.919-8.875a3.075 3.075 0 00-.911 2.19 3.075 3.075 0 00.91 2.192 3.127 3.127 0 004.406.001l-8.919 8.875a3.075 3.075 0 00.912-2.191 3.079 3.079 0 00-.913-2.193 3.126 3.126 0 00-4.404 0zM31.95 32.42l8.357-8.316a3.075 3.075 0 00-.911 2.192 3.075 3.075 0 00.91 2.191 3.127 3.127 0 004.407.001l-8.357 8.315a3.074 3.074 0 00.911-2.19 3.078 3.078 0 00-.912-2.193 3.126 3.126 0 00-4.405 0z" opacity=".3"/><path fill="#C9D7ED" d="M28.99 43.954l24.382-24.26a3.127 3.127 0 014.406 0 3.089 3.089 0 010 4.384l-24.382 24.26a3.127 3.127 0 01-4.405 0 3.089 3.089 0 010-4.384zM5.035 50.53l33.187-33.021a3.126 3.126 0 014.406 0 3.089 3.089 0 010 4.383L9.441 54.914a3.127 3.127 0 01-4.406 0 3.089 3.089 0 010-4.384zM10.901 28.79l12.316-12.254a3.127 3.127 0 014.406 0 3.089 3.089 0 010 4.384L15.307 33.174a3.127 3.127 0 01-4.406 0 3.09 3.09 0 010-4.384zM31.272 8.521l.074-.073a3.127 3.127 0 014.406 0 3.09 3.09 0 010 4.384l-.074.073a3.127 3.127 0 01-4.406 0 3.089 3.089 0 010-4.384zM21.826 50.876l.073-.074a3.127 3.127 0 014.406 0 3.09 3.09 0 010 4.384l-.073.074a3.127 3.127 0 01-4.406 0 3.09 3.09 0 010-4.384z" opacity=".3"/><path stroke="#C9D7ED" stroke-linecap="round" stroke-linejoin="round" stroke-width=".84" d="M62.284 48.343a.593.593 0 01-.595.591.593.593 0 01-.594-.591.593.593 0 011.19 0z" clip-rule="evenodd"/><path stroke="#C9D7ED" stroke-linecap="round" stroke-linejoin="round" stroke-width=".84" d="M5.517 5.27v2.929M6.989 6.733H4.045"/><path stroke="#C9D7ED" stroke-linecap="round" stroke-linejoin="round" stroke-width=".84" d="M18.077 17.194a.593.593 0 01-.595.592.593.593 0 01-.595-.592c0-.327.267-.591.595-.591.328 0 .595.264.595.591z" clip-rule="evenodd"/><path stroke="#C9D7ED" stroke-linecap="round" stroke-linejoin="round" stroke-width=".709" d="M62.472 30.017a.593.593 0 01-.595.592.593.593 0 01-.594-.592c0-.326.266-.591.594-.591.329 0 .595.265.595.591z" clip-rule="evenodd"/><path stroke="#C9D7ED" stroke-linecap="round" stroke-linejoin="round" stroke-width=".533" d="M29.62 13.638l.29 1.056-1.062.289-.29-1.057 1.062-.288z" clip-rule="evenodd"/><path stroke="#C9D7ED" stroke-linecap="round" stroke-linejoin="round" stroke-width=".709" d="M9.066 35.377c0-.38.31-.69.692-.69a.69.69 0 01.693.69.69.69 0 01-.693.688.69.69 0 01-.692-.688z" clip-rule="evenodd"/><path stroke="#CFD7DF" stroke-dasharray="0.96 0.96" stroke-linecap="round" stroke-width=".602" d="M36.084 45.348c-3.79-.66-15.655-3.599-11.83-14.192 0 0 5.52-14.28 21.66-10.8 0 0 5.542 1.649 5.415 6.65 0 0-1.954 16.528-35.605 2.004 0 0-27.724-18.334 19.37-26.65"/><path fill="#DBE2E8" d="M21.915 38.1h-.686v-.69h-.459v.69h-.686v.46h.686v.691h.459v-.69h.686v-.46z"/><path fill="#fff" stroke="#CFD7DF" stroke-width=".602" d="M35.434 3.268c.63 0 1.14-.508 1.14-1.134 0-.626-.51-1.134-1.14-1.134-.63 0-1.14.508-1.14 1.134 0 .626.51 1.134 1.14 1.134z"/><rect width="38" height="24" x="14" y="19" fill="#EBEFF3" stroke="#CFD7DF" stroke-width="1.296" rx="2"/><path fill="#EBEFF3" stroke="#CFD7DF" stroke-width="1.5" d="M29.465 29.4a2.7 2.7 0 10.07-5.4 2.7 2.7 0 00-.07 5.4zM37.6 31.1a1.8 1.8 0 100-3.6 1.8 1.8 0 000 3.6zM40.717 35.047c-.155-.895-.973-1.55-1.93-1.547H36.42c-.957-.003-1.776.652-1.93 1.547l-.474 2.637a.6.6 0 00.14.546c.135.151.338.232.547.219h5.846a.635.635 0 00.492-.22.576.576 0 00.148-.501l-.473-2.681z"/><path fill="#EBEFF3" d="M33.181 33.112c-.4-.848-1.244-1.415-2.197-1.412h-2.958c-1.197-.004-2.22.89-2.413 2.11l-.591 3.596c-.06.263.005.539.174.745.17.205.423.316.684.297h6.07"/><path stroke="#CFD7DF" stroke-linecap="round" stroke-width="1.5" d="M33.181 33.112c-.4-.848-1.244-1.415-2.197-1.412h-2.958c-1.197-.004-2.22.89-2.413 2.11l-.591 3.596c-.06.263.005.539.174.745.17.205.423.316.684.297h6.07"/><path stroke="#CFD7DF" stroke-linecap="round" stroke-linejoin="round" stroke-width="1.5" d="M33 43.732V48M22 48h16M41 48h1M45 48h1"/></svg>