<svg xmlns="http://www.w3.org/2000/svg" width="53" height="59" fill="none" viewBox="0 0 53 59"><g clip-path="url(#clip0_939_21195)"><path fill="#C8D6F0" d="M48.51 11.86H.03l2.76-7.87c.32-.92 1.19-1.54 2.17-1.54h38.62c.98 0 1.85.62 2.17 1.54l2.76 7.87z"/><path fill="#365DBD" stroke="#365DBD" stroke-linecap="round" stroke-linejoin="round" stroke-width=".75" d="M10.07 9.78v5.09c0 2.68-2.17 4.86-4.84 4.86S.38 17.55.38 14.87c0-.17.01-.34.03-.5V9.78h9.66z"/><path stroke="#365DBD" stroke-linecap="round" stroke-linejoin="round" stroke-width=".75" d="M19.77 9.78v5.09c0 2.68-2.17 4.86-4.84 4.86s-4.85-2.17-4.85-4.86c0-.17.01-.34.03-.5V9.78h9.67-.01z"/><path fill="#365DBD" stroke="#365DBD" stroke-linecap="round" stroke-linejoin="round" stroke-width=".75" d="M29.47 9.78v5.09c0 2.68-2.17 4.86-4.84 4.86s-4.85-2.17-4.85-4.86c0-.17.01-.34.03-.5V9.78h9.67-.01z"/><path stroke="#365DBD" stroke-linecap="round" stroke-linejoin="round" stroke-width=".75" d="M39.16 9.78v5.09c0 2.68-2.17 4.86-4.84 4.86s-4.85-2.17-4.85-4.86c0-.17.01-.34.03-.5V9.78h9.67-.01z"/><path fill="#365DBD" stroke="#365DBD" stroke-linecap="round" stroke-linejoin="round" stroke-width=".75" d="M48.86 9.78v5.09c0 2.68-2.17 4.86-4.84 4.86s-4.85-2.17-4.85-4.86c0-.17.01-.34.03-.5V9.78h9.67-.01z"/><path stroke="#365DBD" stroke-linecap="round" stroke-linejoin="round" stroke-width=".75" d="M29.91 33.32H5.61V9.78h38.01v16.07"/><path fill="#C8D6F0" d="M.82 35.35h44.1v19.42c0 .77-.62 1.39-1.39 1.39H2.21c-.77 0-1.39-.62-1.39-1.39V35.35z"/><path stroke="#365DBD" stroke-linecap="round" stroke-linejoin="round" stroke-width=".75" d="M39.16.38h4.76c.98 0 1.85.62 2.17 1.54l2.76 7.87H.38l2.76-7.87C3.46 1 4.33.38 5.31.38h28.34M29.91 54.13H3.96c-.77 0-1.39-.62-1.39-1.39v-6.3M2.57 41.38v-8.06h27.34"/><path stroke="#365DBD" stroke-linecap="round" stroke-linejoin="round" stroke-width=".75" d="M32.41 55.07h-2.5V44.34M29.91 41.57V28.58h19.86v2.09"/><path fill="#fff" d="M51.22 31.84H31.35v26.49h19.87V31.84z"/><path stroke="#365DBD" stroke-linecap="round" stroke-linejoin="round" stroke-width=".75" d="M35.1 36.53h13.85M35.1 39.49h13.85M35.1 42.44h13.85M35.1 45.39h13.85M35.1 48.35h13.85M35.1 51.3h9.48"/><path fill="#fff" stroke="#1B344B" stroke-linecap="round" stroke-linejoin="round" stroke-width=".75" d="M38.27 34.82l-1.58-.99-1.59.99v-4.15h3.17v4.15z"/><path stroke="#1B344B" stroke-linecap="round" stroke-linejoin="round" stroke-width=".75" d="M52.28 30.67H32.41v26.49h19.87V30.67z"/></g><defs><clipPath id="clip0_939_21195"><path fill="#fff" d="M0 0h52.65v58.33H0z"/></clipPath></defs></svg>