<svg width="24" height="24" viewBox="0 0 24 24" fill="none" xmlns="http://www.w3.org/2000/svg">
<circle cx="12.0008" cy="8.20446" r="1.81725" stroke="#3B4854" stroke-width="1.5" stroke-linecap="round" stroke-linejoin="round"/>
<path d="M12.0003 11.8145C9.92907 11.8145 8.25 13.4935 8.25 15.5648H15.7506C15.7506 13.4935 14.0715 11.8145 12.0003 11.8145Z" stroke="#3B4854" stroke-width="1.5" stroke-linecap="round" stroke-linejoin="round"/>
<path d="M20.394 3.5703L17.5393 6.42501M20.394 3.5703L18.7778 3.5703M20.394 3.5703L20.394 5.26632" stroke="#3B4854" stroke-width="1.5" stroke-linecap="round" stroke-linejoin="round"/>
<path d="M20.4165 20.3901L17.5618 17.5354M20.4165 20.3901L20.4165 18.7739M20.4165 20.3901L18.7205 20.3901" stroke="#3B4854" stroke-width="1.5" stroke-linecap="round" stroke-linejoin="round"/>
<path d="M3.60597 3.5703L6.46068 6.42501M3.60597 3.5703L5.22216 3.5703M3.60597 3.5703L3.60597 5.26632" stroke="#3B4854" stroke-width="1.5" stroke-linecap="round" stroke-linejoin="round"/>
<path d="M3.58348 20.3901L6.43819 17.5354M3.58348 20.3901L3.58348 18.7739M3.58348 20.3901L5.2795 20.3901" stroke="#3B4854" stroke-width="1.5" stroke-linecap="round" stroke-linejoin="round"/>
</svg>
