<svg width="24" height="24" viewBox="0 0 24 24" fill="none" xmlns="http://www.w3.org/2000/svg">
<path d="M16.5299 6.05283H19.0608C20.1653 6.05283 21.0608 6.94826 21.0608 8.05283V8.10705M16.5299 6.05283V2.93848M16.5299 6.05283H7.46832M7.46832 6.05283H4.9375C3.83293 6.05283 2.9375 6.94826 2.9375 8.05283V10.8823M7.46832 6.05283V2.93848M8.19449 21.0617H4.9375C3.83293 21.0617 2.9375 20.1663 2.9375 19.0617V10.8823M2.9375 10.8823H10.1346" stroke="#3B4854" stroke-width="1.5" stroke-linecap="round" stroke-linejoin="round"/>
<circle cx="16.3723" cy="11.824" r="2.27271" stroke="#3B4854" stroke-width="1.5" stroke-linecap="round" stroke-linejoin="round"/>
<path d="M16.3719 16.3716C13.7815 16.3716 11.6816 18.4715 11.6816 21.0618H21.0621C21.0621 18.4715 18.9622 16.3716 16.3719 16.3716Z" stroke="#3B4854" stroke-width="1.5" stroke-linecap="round" stroke-linejoin="round"/>
</svg>
