<svg xmlns="http://www.w3.org/2000/svg" viewBox="0 0 18.57 18.57"><path fill="#12344d" d="M17.74 13.85c-.31-.32-.73-.5-1.17-.51H16c-.48 0-.91.28-1.1.72l-.11.25a3.753 3.753 0 01-2.18-2.45l.36-.16c.44-.19.73-.62.73-1.1V10c0-.44-.16-.86-.47-1.17-.3-.32-.73-.5-1.17-.51h-1.32c-.53 0-1 .35-1.15.86-.15.54-.23 1.09-.23 1.65 0 .43.04.85.12 1.27a6.88 6.88 0 004.99 5.41c.88.23 1.8.27 2.7.14.59-.09 1.02-.59 1.02-1.19V15c.01-.44-.16-.86-.46-1.17zM17 15.01v1.46c-.31.05-.63.07-.94.06-.43 0-.86-.07-1.28-.17-.07-.02-.14-.04-.2-.06h-.01a5.67 5.67 0 01-3.91-4.41v-.07c-.07-.33-.1-.66-.1-.98 0-.15.01-.3.02-.45.03-.29.08-.57.16-.85h1.31c.12 0 .24.05.32.14.09.09.13.21.13.33v.61l-.69.3s-.03.01-.05.02c-.29.15-.45.47-.41.8v.03c.34 1.82 1.66 3.3 3.43 3.83.06.02.12.03.17.03h.01c.27.02.53-.1.68-.32.04-.05.07-.1.09-.16l.06-.14v-.02l.2-.44h.55c.12 0 .24.05.33.14.07.08.12.18.12.29v.03z"/><path fill="#12344d" d="M9.4 14.89H4.69c-.55 0-1-.45-1-1V7.65h11.2v3.25c0 .39.31.7.7.7s.7-.31.7-.7V5.54c-.01-1.32-1.08-2.4-2.4-2.4h-.6v-.15a.7.7 0 10-1.4 0v.15H6.66v-.15c-.07-.32-.35-.56-.69-.56s-.61.23-.68.56v.15h-.6c-1.32 0-2.39 1.08-2.4 2.4v8.35a2.42 2.42 0 002.4 2.4H9.4c.38 0 .7-.31.7-.7s-.32-.7-.7-.7zM3.69 5.54c0-.55.45-1 1-1h.6v.21c0 .39.31.7.7.7s.7-.31.7-.7v-.21h5.26v.21c0 .39.31.7.7.7s.7-.31.7-.7v-.21h.57c.55 0 1 .45 1 1v.75H3.69v-.75z"/></svg>