<svg xmlns="http://www.w3.org/2000/svg" width="24" height="24" fill="none" viewBox="0 0 24 24"><rect width="24" height="24" fill="#EBEFF3" rx="4"/><path fill="#12344D" fill-rule="evenodd" d="M10.47 4.8c.845 0 1.53.686 1.53 1.53v4.14A1.53 1.53 0 0110.47 12H6.33a1.53 1.53 0 01-1.53-1.53V6.33c0-.844.685-1.53 1.53-1.53h4.14zm0 5.94c.15 0 .27-.12.27-.27V6.33a.27.27 0 00-.27-.27H6.33a.27.27 0 00-.27.27v4.14c0 .15.12.27.27.27h4.14zm7.2 1.26h-4.14A1.53 1.53 0 0012 13.53v4.14c0 .846.685 1.53 1.53 1.53h4.14a1.53 1.53 0 001.53-1.53v-4.14A1.53 1.53 0 0017.67 12zm-4.14 5.94h4.14c.15 0 .27-.12.27-.27v-4.14a.27.27 0 00-.27-.27h-4.14a.27.27 0 00-.27.27v4.14a.27.27 0 00.27.27zM17.67 4.8h-2.34a1.53 1.53 0 00-1.53 1.53v2.34c0 .846.685 1.53 1.53 1.53h2.34a1.53 1.53 0 001.53-1.53V6.33a1.53 1.53 0 00-1.53-1.53zm0 4.14c.15 0 .27-.12.27-.27V6.33a.27.27 0 00-.27-.27h-2.34a.27.27 0 00-.27.27v2.34c0 .15.12.27.27.27h2.34zm-9 4.86H6.33a1.53 1.53 0 00-1.53 1.53v2.34c0 .846.685 1.53 1.53 1.53h2.34a1.53 1.53 0 001.53-1.53v-2.34a1.53 1.53 0 00-1.53-1.53zm0 4.14c.15 0 .27-.12.27-.27v-2.34a.27.27 0 00-.27-.27H6.33a.27.27 0 00-.27.27v2.34c0 .15.12.27.27.27h2.34z" clip-rule="evenodd"/></svg>