<?xml version="1.0" encoding="UTF-8"?>
<svg id="Layer_1" data-name="Layer 1" xmlns="http://www.w3.org/2000/svg" viewBox="0 0 21 20">
  <defs>
    <style>
      .cls-1 {
        fill: var(--color-fill-surface);
      }
    </style>
  </defs>
  <path class="cls-1" d="M12.65,9.63c.26,0,.49.1.66.26h3.58c1.17,0,2.11.95,2.11,2.11,0,1.17-.95,2.11-2.11,2.11h-2.83c-.39,0-.71.32-.71.71,0,.34.24.63.57.7h.14s3.58.01,3.58.01c.17-.16.41-.26.66-.26.53,0,.96.43.96.96,0,.53-.43.96-.96.96-.26,0-.49-.1-.66-.26h-3.8c-1.07-.12-1.9-1.02-1.9-2.11,0-1.17.95-2.11,2.11-2.11h2.83c.39,0,.71-.32.71-.71,0-.39-.32-.71-.71-.71h-3.58c-.17.16-.41.26-.66.26-.53,0-.96-.43-.96-.96,0-.53.43-.96.96-.96ZM15.35,2.1c1.1.11,1.95,1.04,1.95,2.16v1.16c0,.39-.31.7-.7.7-.65,0-1.18.53-1.18,1.18,0,.39-.31.7-.7.7-.39,0-.7-.31-.7-.7,0-1.18.8-2.18,1.88-2.48v-.56c0-.4-.31-.73-.7-.77h-.08s-11.01,0-11.01,0c-.43,0-.78.35-.78.78v.56c1.08.31,1.88,1.3,1.88,2.48v.26c-.12,1.06-.88,1.93-1.88,2.22v.56c0,.43.35.78.78.78h5.65c.32.08.56.36.56.7,0,.34-.24.62-.56.69h-.14s-5.51.01-5.51.01c-1.2,0-2.18-.98-2.18-2.18v-1.3c.08-.32.36-.56.7-.56.61,0,1.11-.46,1.17-1.06v-.12c0-.61-.46-1.11-1.05-1.17h-.12c-.39,0-.7-.32-.7-.71v-1.16c0-1.2.97-2.18,2.18-2.18h11.24ZM11.56,6.62c.32.07.56.35.56.69,0,.34-.24.62-.56.69h-.14s-3.6.01-3.6.01c-.39,0-.7-.31-.7-.7,0-.39.31-.7.7-.7h3.74Z"/>
</svg>