<svg xmlns="http://www.w3.org/2000/svg" width="16" height="16" fill="none" viewBox="0 0 16 16"><path stroke="#2C5CC5" stroke-width="1.2" d="M8 15.4c4.08 0 7.4-3.32 7.4-7.4S12.08.6 8 .6.6 3.92.6 8s3.32 7.4 7.4 7.4z"/><path stroke="#2C5CC5" stroke-width="1.2" d="M6.896 6.422l-.144.273-.306.042-2.036.278h0a.075.075 0 00-.02.005l1.46 1.336.245.224-.06.326-.341 1.87-.004.017v.003c.007.005.02.011.04.012h.001a.077.077 0 00.034-.008h0l1.821-.898.266-.132.265.132 1.821.898s0 0 0 0a.079.079 0 00.074-.004h.001l-.345-1.89-.06-.326.245-.224 1.46-1.336a.075.075 0 00-.02-.005h0l-2.035-.278-.306-.042-.144-.273-.91-1.732a.03.03 0 00-.01-.007.074.074 0 00-.036-.009.074.074 0 00-.037.01.03.03 0 00-.01.006l-.91 1.732z"/></svg>