<svg xmlns="http://www.w3.org/2000/svg" width="16" height="16" fill="none" stroke="#f73f3e" stroke-linejoin="round" stroke-width="1.2" viewBox="0 0 16 16"><path d="M6.385 2.074c0-.593.48-1.074 1.073-1.074h1.083c.593 0 1.074.481 1.074 1.074v.314c0 .282.187.529.447.637s.564.064.764-.135l.222-.222a1.074 1.074 0 011.518 0l.766.766a1.074 1.074 0 010 1.518l-.222.222c-.2.2-.244.503-.135.764s.355.447.637.447h.314c.593 0 1.074.481 1.074 1.074v1.083c0 .593-.481 1.074-1.074 1.074h-.314c-.282 0-.529.187-.637.447s-.064.564.135.764l.222.222a1.074 1.074 0 010 1.518l-.766.766a1.074 1.074 0 01-1.518 0l-.222-.222c-.2-.2-.503-.243-.763-.135s-.447.355-.447.637v.314c0 .593-.481 1.074-1.074 1.074H7.458a1.074 1.074 0 01-1.074-1.074v-.314c0-.282-.187-.529-.447-.637s-.564-.064-.764.135l-.222.222a1.074 1.074 0 01-1.518 0l-.766-.766a1.074 1.074 0 010-1.518l.222-.222c.2-.2.244-.503.135-.764s-.355-.447-.637-.447h-.314A1.075 1.075 0 011 8.542V7.458c0-.593.481-1.074 1.074-1.074h.314c.282 0 .529-.187.637-.447s.064-.564-.135-.764l-.222-.222a1.074 1.074 0 010-1.518l.766-.766a1.074 1.074 0 011.518 0l.222.222c.2.2.503.244.764.135s.447-.355.447-.637v-.314z"/><path d="M10.102 8.002a2.1 2.1 0 01-4.2 0 2.1 2.1 0 014.2 0z"/></svg>