<svg width="16" height="16" viewBox="0 0 16 16" fill="none" xmlns="http://www.w3.org/2000/svg"><g clip-path="url(#clip0_674_4186)"><path d="M0 9.2a8 8 0 0 0 2.3 4.5l2.8-2.8A8 8 0 0 1 9 4L0 9.2Z" fill="#9B65C3"/><path d="M5 11a8 8 0 0 1-5-1.8 8 8 0 0 0 2.3 4.5l2.8-2.8Z" fill="#9B65C3"/><path d="m5 11-2.7 2.7a8 8 0 0 0 4.5 2.2L12 7a8 8 0 0 1-7 4Z" fill="#BE63C5"/><path d="M6.1 15a8 8 0 0 1-1-4l-2.8 2.6A8 8 0 0 0 6.8 16l-.7-1Z" fill="#BF63C6"/><path d="M15.2.4 9.1 4a8 8 0 0 1-8 0 8 8 0 0 0-1 5.2 8 8 0 0 0 5 1.7L15.4.6l-.2-.2Z" fill="#3278B1"/><path d="M1 9.9a8 8 0 0 0 4 1A8 8 0 0 1 9 4L0 9.2l1 .7Z" fill="#3278B2"/><path d="M1 4a8 8 0 0 0-1 5.2L9 4a8 8 0 0 1-8 0Z" fill="#45A4EC"/><path d="m15.4.6-.2-.2A2 2 0 0 0 14 0H8a8 8 0 0 0-7 4 8 8 0 0 0 8 0 8 8 0 0 0-4 7 8 8 0 0 0 7-4L15.6.7l-.2-.2Z" fill="#19BB7D"/><path d="M9 4 15.3.4 15 .3 1 4a8 8 0 0 0 8 0Z" fill="#08C7FB"/><path d="M14 0H8a8 8 0 0 0-7 4L15 .3a2 2 0 0 0-1-.3Z" fill="#59F2F6"/><path d="M12 7 15.6.7l-.2-.2L5.1 10.9a8 8 0 0 0 1.7 5 8 8 0 0 0 5.2-1 8 8 0 0 1 0-8Z" fill="#DA3757"/><path d="M5 11a8 8 0 0 0 1.8 5L12 7a8 8 0 0 1-7 4Z" fill="#D33C4E"/><path d="m12 7-5.2 9a8 8 0 0 0 5.2-1 8 8 0 0 1 0-8Z" fill="#EE5A24"/><path d="M15.7 1a2 2 0 0 0-.5-.6L9.1 4a8 8 0 0 0-4 7A8 8 0 0 0 12 7a8 8 0 0 0 0 8 8 8 0 0 0 4-7V2c0-.4-.1-.7-.3-1Z" fill="#8BDF55"/><path d="M15.2.4 9.1 4a8 8 0 0 0-4 7L15.4.5l-.2-.2Z" fill="#25C16F"/><path d="M5 11a8 8 0 0 0 7-4L15.6.7l-.2-.2L5.1 10.9Z" fill="#8BDF55"/><path d="M15.6.8 12 6.9a8 8 0 0 0 0 8L15.7 1l-.1-.2Z" fill="#FB0"/><path d="M12 15a8 8 0 0 0 4-7V2c0-.4-.1-.7-.3-1L12 15Z" fill="#FFA800"/></g><defs><clipPath id="clip0_674_4186"><path fill="#fff" d="M0 0h16v16H0z"/></clipPath></defs></svg>