<svg width="16" height="16" fill="none" xmlns="http://www.w3.org/2000/svg"><path d="M15.68 8.182c0-.568-.05-1.113-.146-1.637H8v3.099h4.305a3.689 3.689 0 0 1-1.607 2.407v2.014h2.596c1.513-1.396 2.386-3.447 2.386-5.883Z" fill="#4285F4"/><path d="M8 16c2.16 0 3.97-.713 5.294-1.934l-2.596-2.015c-.713.48-1.622.77-2.698.77-2.08 0-3.847-1.403-4.48-3.294H.858v2.066A7.992 7.992 0 0 0 8 16Z" fill="#34A853"/><path d="M3.52 9.52c-.16-.48-.255-.99-.255-1.52s.095-1.04.255-1.52V4.415H.858A7.901 7.901 0 0 0 0 8a7.9 7.9 0 0 0 .858 3.585l2.073-1.614.589-.451Z" fill="#FBBC05"/><path d="M8 3.185c1.178 0 2.225.408 3.062 1.193l2.29-2.29C11.965.792 10.16 0 8 0 4.873 0 2.175 1.796.858 4.415L3.52 6.48C4.153 4.59 5.92 3.185 8 3.185Z" fill="#EA4335"/></svg>