<svg xmlns="http://www.w3.org/2000/svg" width="54" height="28" fill="none" viewBox="0 0 54 28"><path fill="#B7CA9D" fill-rule="evenodd" d="M17 14.384L26.492 21 36 14.375 26.51 13 17 14.384z" clip-rule="evenodd"/><path fill="#4C622C" fill-rule="evenodd" d="M20 14.55l1.496.45L25 9.505 21.496 4 20 4.591v9.96z" clip-rule="evenodd"/><path fill="#759C3F" fill-rule="evenodd" d="M22 4l5 1.219v8.828L22 15V4z" clip-rule="evenodd"/><path fill="#4C622C" fill-rule="evenodd" d="M24.28 0L22 1.036v13.337l2.28.627L31 7.895 24.28 0z" clip-rule="evenodd"/><path fill="#759C3F" fill-rule="evenodd" d="M24 0v15l8-1.654V2.756L24 0z" clip-rule="evenodd"/><path fill="#4C622C" fill-rule="evenodd" d="M18.006 15.748L27 20v-2.984L18 14l.006 1.748z" clip-rule="evenodd"/><path fill="#759C3F" fill-rule="evenodd" d="M27 17.018L36 14v1.745L27 20v-2.982z" clip-rule="evenodd"/><path fill="#B7CA9D" fill-rule="evenodd" d="M24 11.418L26.06 16 33 11h-2.34l-6.66.418z" clip-rule="evenodd"/><path fill="#4C622C" fill-rule="evenodd" d="M27 11.217L25 11v4.379L27 16v-4.783z" clip-rule="evenodd"/><path fill="#759C3F" fill-rule="evenodd" d="M27 16l6-1.907V11l-6 .61V16z" clip-rule="evenodd"/><mask id="fs-eoijo8qlra" width="54" height="5" x="0" y="23" maskUnits="userSpaceOnUse"><path fill="#fff" fill-rule="evenodd" d="M0 23.01h53.88v4.79H0v-4.79z" clip-rule="evenodd"/></mask><g mask="url(#fs-eoijo8qlra)"><path fill="#779D3F" fill-rule="evenodd" d="M52.006 23.131v1.713h.02a.986.986 0 01.382-.423.877.877 0 01.442-.14c.201 0 .382.023.502.094a.82.82 0 01.322.282c.08.116.12.258.167.422.046.165.04.352.04.564v2.041h-.784v-1.879c0-.282-.04-.47-.1-.61-.06-.142-.201-.212-.382-.212-.22 0-.362.065-.462.212-.1.145-.14.399-.14.728v1.736h-.784v-4.575h.783l-.006.047zm-2.572 1.853c-.12 0-.22.024-.322.095a.533.533 0 00-.2.257c-.056.095-.081.212-.121.352a2.44 2.44 0 00-.04.375c0 .117.02.236.04.376.02.117.056.235.1.329.044.094.12.194.2.235a.473.473 0 00.302.093.5.5 0 00.422-.194.86.86 0 00.18-.492h.744c-.055.446-.2.774-.442 1.009-.241.235-.543.351-.924.351-.2 0-.396-.04-.583-.116a1.235 1.235 0 01-.442-.352 1.464 1.464 0 01-.282-.54c-.066-.218-.1-.45-.1-.68 0-.24.034-.478.1-.704.06-.212.166-.4.281-.564.115-.165.281-.283.462-.376.181-.095.382-.141.623-.141.163 0 .325.024.483.07a.933.933 0 01.421.235c.12.094.222.235.302.4.08.164.12.328.14.563h-.767c-.055-.399-.26-.586-.582-.586l.005.005zm-1.728-.587v.611h-.563v1.643c0 .164.02.257.055.304.036.047.14.066.262.066h.12c.04 0 .08 0 .12-.024v.704c-.055.023-.14.023-.22.023h-.242c-.12 0-.241 0-.342-.023a.617.617 0 01-.282-.117c-.08-.046-.14-.14-.2-.234a1.035 1.035 0 01-.08-.4v-1.942h-.463v-.61h.462v-.985h.784v.985l.589-.001zm-3.055 1.762a.338.338 0 01-.166.046c-.055.023-.12.023-.181.023-.06 0-.12.023-.181.023-.056.024-.12.024-.181.047a.316.316 0 00-.14.094c-.04.047-.08.065-.1.141a.534.534 0 00-.04.21c0 .066.02.142.04.212a.6.6 0 00.1.14c.054.03.11.053.167.073.066.024.12.023.18.023.168 0 .282-.023.362-.095.081-.07.14-.14.181-.21.04-.095.056-.164.08-.258 0-.094.02-.164.02-.212v-.328a.776.776 0 00-.14.071zm-1.547-1.292a.876.876 0 01.301-.328c.12-.095.262-.142.422-.195.161-.053.302-.046.462-.046l.443.023a.94.94 0 01.401.14.99.99 0 01.302.282c.08.119.12.283.12.493v1.713a3 3 0 00.02.423c.02.14.04.234.081.305h-.777c-.02-.048-.02-.095-.04-.165 0-.047-.02-.116-.02-.163a.882.882 0 01-.443.304 1.442 1.442 0 01-.522.094c-.14 0-.261-.023-.382-.047a.661.661 0 01-.301-.194.722.722 0 01-.201-.305 1.426 1.426 0 01-.08-.446c0-.194.02-.351.08-.47a.73.73 0 01.22-.28c.081-.066.202-.117.302-.165.1-.048.221-.065.342-.094l.342-.046.301-.047a.461.461 0 00.2-.117c.057-.047.081-.118.081-.212 0-.08-.013-.16-.04-.235a.487.487 0 00-.1-.14 1.25 1.25 0 00-.166-.072c-.055 0-.12-.023-.2-.023a.527.527 0 00-.363.117c-.08.07-.14.211-.166.376h-.784c.04-.164.081-.352.167-.493l-.002.013zm-2.11 2.84l-.502-2.23h-.025l-.483 2.23h-.794l-.904-3.31h.824l.522 2.254h.02l.463-2.253h.763l.483 2.23h.02l.523-2.23h.803l-.884 3.31h-.829zm-3.818-2.064a.904.904 0 00-.321-.564.482.482 0 00-.322-.094c-.14 0-.24.023-.322.094-.08.07-.166.141-.2.234a.895.895 0 00-.121.33c-.024.13-.038.264-.04.398.004.127.017.252.04.375.023.125.064.244.12.352.06.118.121.195.221.236.08.064.181.093.302.093.12 0 .241-.023.322-.093.08-.072.166-.141.2-.236a.952.952 0 00.1-.352c.025-.13.038-.264.04-.399.02-.116 0-.257-.02-.375h.001zm.04 1.642c-.1.195-.2.305-.361.376a1.23 1.23 0 01-.503.117c-.22 0-.401-.046-.562-.141a1.16 1.16 0 01-.402-.399c-.1-.164-.18-.352-.242-.564a2.452 2.452 0 01-.08-.657c0-.211.02-.446.08-.634.056-.212.14-.4.242-.54.108-.15.237-.276.382-.375a1.07 1.07 0 01.542-.14c.167 0 .322.046.483.116.167.094.261.211.362.375h.02v-1.665h.783v4.576h-.743v-.445zm-3.337.422v-.47h-.02a.974.974 0 01-.381.423.911.911 0 01-.483.117c-.201 0-.382-.023-.502-.095a.987.987 0 01-.322-.281c-.08-.119-.12-.259-.167-.423-.046-.164-.04-.352-.04-.564v-2.041h.784v1.877c0 .282.04.47.1.611.06.141.2.211.382.211.22 0 .362-.065.462-.21.1-.148.14-.4.14-.729v-1.738h.784v3.31l-.736.002zm-4.54-1.268c.019.119.06.232.12.329.055.094.12.194.2.235a.531.531 0 00.323.093c.14 0 .241-.022.322-.093.08-.071.166-.14.22-.235.055-.094.081-.212.12-.329a2.23 2.23 0 00.04-.375c0-.14-.02-.258-.04-.4a.911.911 0 00-.12-.328c-.055-.093-.12-.194-.22-.234a.52.52 0 00-.322-.094c-.14 0-.242.023-.322.094-.08.07-.166.14-.201.234-.055.095-.08.212-.12.329-.04.118-.04.258-.04.399 0 .117.02.235.04.376zm-.704-1.103c.06-.207.164-.393.302-.54.12-.14.282-.257.462-.352.18-.093.382-.116.603-.116.205 0 .408.04.603.116.18.095.341.212.462.352.12.14.22.329.301.54.08.212.1.447.1.728 0 .259-.04.492-.1.728a1.318 1.318 0 01-.3.54c-.136.14-.283.258-.463.352a1.767 1.767 0 01-.603.116c-.205 0-.409-.04-.603-.116a1.078 1.078 0 01-.462-.352 2.084 2.084 0 01-.302-.54 2.605 2.605 0 01-.1-.728c0-.281.02-.516.1-.728zm-1.42 2.37h.777V23.13h-.777v4.576zm-1.474-3.355a.94.94 0 00-.2-.259 1.057 1.057 0 00-.262-.164.714.714 0 00-.301-.071.87.87 0 00-.502.141 1.01 1.01 0 00-.322.352c-.08.14-.14.305-.181.493a2.765 2.765 0 000 1.15c.04.194.1.352.18.492.082.14.202.258.323.352a.873.873 0 00.502.14c.26 0 .462-.093.623-.281a1.41 1.41 0 00.261-.751h.825c-.02.265-.075.526-.161.773a2.21 2.21 0 01-.362.587 1.524 1.524 0 01-.523.377c-.2.094-.422.116-.663.116a1.79 1.79 0 01-.804-.188 1.655 1.655 0 01-.602-.493c-.167-.21-.282-.469-.382-.752a3.337 3.337 0 01-.14-.938c0-.352.04-.657.14-.938.1-.282.22-.54.382-.775.166-.212.361-.4.602-.516a1.79 1.79 0 01.804-.188c.205 0 .408.04.602.116.201.065.362.195.523.305.158.137.289.314.382.517.104.215.166.456.181.703h-.824a1.456 1.456 0 00-.1-.304v.004zm-6.63.047v.47h.019a.985.985 0 01.865-.564c.2 0 .381.024.502.094a.82.82 0 01.321.282c.08.116.12.257.167.423.046.164.04.352.04.563v2.042h-.784v-1.877c0-.283-.04-.47-.1-.611-.08-.14-.2-.212-.382-.212-.22 0-.361.066-.462.212-.1.146-.14.4-.14.728v1.736h-.784V24.38h.744l-.007.018zm-3.357 2.041c.02.119.06.232.12.329.056.094.12.194.201.235.08.064.201.093.322.093.14 0 .241-.022.322-.093.08-.071.166-.14.22-.235.055-.094.081-.212.121-.329a2.23 2.23 0 00.04-.375c0-.14-.02-.258-.04-.4a.9.9 0 00-.12-.328c-.056-.093-.12-.194-.221-.234a.518.518 0 00-.322-.094c-.14 0-.241.023-.322.094-.08.07-.166.14-.2.234-.056.095-.081.212-.121.329-.04.118-.04.258-.04.399 0 .117.02.235.04.376zm-.703-1.103c.06-.207.163-.393.301-.54.12-.14.281-.257.462-.352.181-.093.382-.116.603-.116.205 0 .408.04.603.116.18.095.341.212.462.352.12.14.22.329.301.54.068.235.102.48.1.728 0 .259-.04.492-.1.728a1.295 1.295 0 01-.3.54 1.53 1.53 0 01-.463.352 1.76 1.76 0 01-.602.117 1.659 1.659 0 01-.603-.117 1.078 1.078 0 01-.462-.352 2.084 2.084 0 01-.302-.54 2.605 2.605 0 01-.1-.728c-.021-.248.014-.5.1-.728zm-1.567-.257h-1.366v-.68h2.386v.68l-1.466 1.948h1.567v.68h-2.591v-.68l1.47-1.948zm-2.793 1.08a.338.338 0 01-.167.046.472.472 0 01-.18.023c-.061 0-.121.023-.182.023-.055.024-.12.024-.18.047a.317.317 0 00-.14.094c-.041.047-.081.065-.1.141a.534.534 0 00-.04.21c0 .066.02.142.04.212.02.047.055.095.1.14a1.2 1.2 0 00.166.073c.066.024.12.023.18.023.167 0 .282-.023.362-.095.08-.07.14-.14.181-.21.04-.095.056-.164.08-.258 0-.094.02-.164.02-.212v-.328a.78.78 0 00-.14.071zm-1.547-1.292a.881.881 0 01.3-.328c.121-.095.262-.14.423-.195.16-.053.301-.046.462-.046l.442.023c.14.023.281.065.402.14.12.077.22.165.301.282.08.119.12.283.12.493v1.713a3 3 0 00.02.423c.02.14.04.234.081.305h-.784c-.02-.048-.02-.095-.04-.165 0-.047-.02-.116-.02-.163-.12.14-.26.257-.442.304-.182.047-.342.094-.523.094-.14 0-.26-.023-.382-.047a.658.658 0 01-.301-.194.718.718 0 01-.2-.305 1.429 1.429 0 01-.081-.446c0-.194.02-.351.08-.47.06-.116.12-.21.22-.28.081-.066.202-.117.302-.165.1-.048.221-.065.342-.094l.342-.046.301-.047a.458.458 0 00.201-.117c.056-.047.08-.118.08-.212a.65.65 0 00-.04-.235.5.5 0 00-.1-.14 1.216 1.216 0 00-.166-.072c-.055 0-.12-.023-.2-.023a.525.525 0 00-.362.117c-.08.07-.14.211-.167.376h-.783c.04-.164.08-.352.166-.493l.006.013zm-4.301-.477v.447c.1-.164.22-.305.362-.4a.859.859 0 01.502-.14c.166 0 .33.04.482.117.14.064.26.235.342.423.088-.154.205-.283.342-.376a.93.93 0 01.502-.164c.143.001.284.023.422.064a.66.66 0 01.322.212c.1.093.166.211.22.376.055.165.08.329.08.54v2.206h-.763v-1.877c0-.117 0-.212-.02-.305-.02-.094-.02-.195-.055-.259-.036-.063-.08-.14-.14-.164-.056-.046-.14-.064-.261-.064a.447.447 0 00-.261.064.687.687 0 00-.161.188c-.04.066-.056.164-.08.259-.026.093-.02.21-.02.305v1.824h-.791V25.53a.925.925 0 00-.04-.258.51.51 0 00-.14-.194c-.06-.054-.167-.065-.282-.065-.04 0-.08 0-.14.023-.06.024-.12.047-.181.117-.056.046-.1.14-.14.234a1.075 1.075 0 00-.056.4v1.925h-.784v-3.31h.744l-.005-.012zM2.41 25.917l-.503-1.665h-.02l-.502 1.665H2.41zm-.04-2.787l1.466 4.576h-.884l-.301-1.009H1.185l-.301 1.01H0l1.487-4.577h.884z" clip-rule="evenodd"/></g></svg>