<svg xmlns="http://www.w3.org/2000/svg" xmlns:xlink="http://www.w3.org/1999/xlink" fill="#fff" fill-rule="evenodd" stroke="#000" stroke-linecap="round" stroke-linejoin="round" viewBox="0 0 74.375 85"><use x="2.188" y="2.5" xlink:href="#fs-eukecj2v3a"/><symbol id="fs-eukecj2v3a" overflow="visible"><g stroke="none"><path fill="#3c4929" d="M9.966 35.493l-2.288.176L0 35.376l2.123-10.04 7.843 10.156z"/><path fill="#b7ca9d" d="M9.966 44.83l-2.288-.176L0 44.947l2.123 10.04L9.966 44.83z"/><path fill="#4b612c" d="M2.123 45.14L0 44.946v9.434l2.123.605V45.14z"/><path fill="#759c3e" d="M9.966 54.02l-7.843.966V45.15l7.843-.322v9.2z"/><path fill="#b7ca9d" d="M24.343 45.6l-6.307-.46-11.028.527 5.905 17.96 11.43-18.03z"/><path fill="#4b612c" d="M2.123 35.17L0 35.376v-9.434l2.123-.605v9.834z"/><path fill="#759c3e" d="M9.966 26.303l-7.843-.966v9.824l7.843.332v-9.2z"/><path fill="#3c4929" d="M24.343 34.722l-6.307.45-11.028-.517 5.905-17.932 11.43 18z"/><path fill="#4b612c" d="M7.008 18.624l5.905-1.902v17.366l-5.905.566v-16.03z"/><path fill="#759c3e" d="M24.344 19.073l-11.43-2.35v17.366l11.43.634v-15.65z"/><path fill="#4b612c" d="M7.008 61.56l5.905 2.068V46.234l-5.905-.566V61.56z"/><path fill="#759c3e" d="M24.344 61.395l-11.43 2.234V46.234l11.43-.634v15.795z"/><path fill="#4b612c" d="M20.2 72.995L34.99 80l34.66-40L34.99 0 20.2 7.005v66z"/><path fill="#759c3e" d="M70 63.434L35 80V0l35 16.566v46.868z"/></g></symbol></svg>