<svg xmlns="http://www.w3.org/2000/svg" viewBox="0 0 72 18.56"><path fill="#2b2a29" d="M3.6 17.12h.91l-1.79-5h-1l-1.72 5h.9l.44-1.33h1.82zm-1.34-4.14v.28a.73.73 0 00.07.24l.06.24.44 1.31H1.6l.4-1.31c0-.07 0-.15.07-.24a1.05 1.05 0 00.06-.24 1.67 1.67 0 01.06-.2v-.08zM5 18.45h.88v-1.5a1.87 1.87 0 00.07-.22v-.06a.43.43 0 00.11.12 1 1 0 00.21.15.81.81 0 00.29.12 1.32 1.32 0 00.39.06 1.6 1.6 0 001.17-.56 1.7 1.7 0 00.34-.6 2.06 2.06 0 00.12-.78 2.36 2.36 0 00-.11-.79 1.67 1.67 0 00-.32-.6 1.47 1.47 0 00-.5-.39 1.71 1.71 0 00-.65-.1 1.61 1.61 0 00-.44.06 1.66 1.66 0 00-.33.15 1 1 0 00-.22.18.86.86 0 00-.13.14.23.23 0 000 .14v-.14l.17-.18v-.28H5v5.08zm.92-3.19a1.75 1.75 0 01.08-.51 1 1 0 01.2-.36.72.72 0 01.29-.2.83.83 0 01.34-.07.9.9 0 01.48.14 1 1 0 01.32.39 1.67 1.67 0 010 1.08.94.94 0 01-.2.35.89.89 0 01-.29.22.71.71 0 01-.35.07.77.77 0 01-.39-.09.84.84 0 01-.28-.25 1 1 0 01-.17-.36 1.32 1.32 0 01-.06-.39zm3.35 3.19h1v-1.5a1.81 1.81 0 010-.22v-.06a.46.46 0 00.12.12 1 1 0 00.2.15.81.81 0 00.29.12 1.34 1.34 0 00.4.06 1.59 1.59 0 001.16-.56 1.72 1.72 0 00.35-.6 2.54 2.54 0 00.12-.78 2.36 2.36 0 00-.11-.79 2 2 0 00-.32-.6 1.51 1.51 0 00-.51-.39 1.66 1.66 0 00-.66-.14 1.74 1.74 0 00-.45.06 2 2 0 00-.33.15 1.24 1.24 0 00-.22.18.53.53 0 00-.12.14.18.18 0 000 .14.33.33 0 010-.14v-.46h-.9v5.08zm1-3.19a1.75 1.75 0 01.08-.51 1 1 0 01.2-.36.72.72 0 01.29-.2.83.83 0 01.34-.07.82.82 0 01.79.53 1.67 1.67 0 010 1.08 1.1 1.1 0 01-.2.35.89.89 0 01-.29.22.71.71 0 01-.35.07.75.75 0 01-.39-.09.84.84 0 01-.28-.25 1 1 0 01-.17-.36 1.32 1.32 0 01-.06-.39zm3.47.61a2.25 2.25 0 00.07.52.84.84 0 00.17.34.67.67 0 00.25.19.71.71 0 00.28.09H15v-.75h-.11a.34.34 0 01-.2 0 .24.24 0 01-.12-.14.42.42 0 010-.31v-3.86h-.9zm2.07-3h.89v-.76h-.89zm0 4.14h.89v-3.55h-.89zm1.49-1.75a2.22 2.22 0 00.16.72 1.75 1.75 0 00.4.6 1.67 1.67 0 00.62.39 2.35 2.35 0 001.34.09 2 2 0 00.39-.13 1.49 1.49 0 00.3-.18 1.24 1.24 0 00.18-.14.17.17 0 00.06-.06l-.34-.64h-.05l-.15.11-.23.14-.29.11a1.34 1.34 0 01-.35 0 1.17 1.17 0 01-1-.71 1.32 1.32 0 01-.08-.44 1.11 1.11 0 01.08-.44 1 1 0 01.22-.35.88.88 0 01.34-.24 1.22 1.22 0 01.46-.09 1.1 1.1 0 01.31 0 1.48 1.48 0 01.27.1l.19.11.13.1.39-.62h-.06l-.16-.13a1.85 1.85 0 00-.66-.29 2.24 2.24 0 00-1.32.09 1.65 1.65 0 00-.6.41 1.75 1.75 0 00-.4.6 2.26 2.26 0 00-.15.73zm3.86.79a1.24 1.24 0 00.1.5 1.07 1.07 0 00.27.36 1.29 1.29 0 00.39.23 1.49 1.49 0 00.47.07 1.2 1.2 0 00.42-.07 1.14 1.14 0 00.31-.16 1.29 1.29 0 00.21-.19l.12-.17v-.07h-.05v.59h.88v-2.35a1.68 1.68 0 00-.17-.79 1.23 1.23 0 00-.51-.5 1.63 1.63 0 00-.81-.18 1.88 1.88 0 00-.47.05 1.9 1.9 0 00-.39.11l-.29.14a.76.76 0 00-.19.12h-.06l.33.67.09-.06.21-.12.32-.13a1.67 1.67 0 01.39-.05 1 1 0 01.35.06.57.57 0 01.25.21.89.89 0 01.09.39v.05H23l-.45.06a1.91 1.91 0 00-.47.12 1.75 1.75 0 00-.43.22 1.43 1.43 0 00-.3.35 1.13 1.13 0 00-.12.51zm.88-.11a.44.44 0 01.08-.25.62.62 0 01.22-.17 1.4 1.4 0 01.29-.09 1.64 1.64 0 01.32 0h.45v.08a1 1 0 01-.06.34 1.3 1.3 0 01-.16.31 1.32 1.32 0 01-.26.22.64.64 0 01-.33.08.66.66 0 01-.31-.06.52.52 0 01-.18-.18.46.46 0 010-.26zm3.29-.23a1.55 1.55 0 00.07.52 1.2 1.2 0 00.2.39 1 1 0 00.29.24 1.87 1.87 0 00.32.15 1.91 1.91 0 00.33.06h.56v-.81h-.38a.85.85 0 01-.24-.09.63.63 0 01-.19-.21.76.76 0 01-.08-.36v-1.44h.89v-.74h-.89v-1h-.88v1h-.45v.74h.45v1.55zm2.51-2.85h.89v-.77h-.89zm0 4.14h.89v-3.54h-.89zm1.65-1.73a2.08 2.08 0 00.16.77 1.77 1.77 0 00.42.59 2 2 0 00.64.4 2.35 2.35 0 001.57 0 2 2 0 00.63-.4 1.64 1.64 0 00.42-.59 1.9 1.9 0 00.16-.77 1.82 1.82 0 00-.16-.76 1.67 1.67 0 00-.42-.6 2 2 0 00-.64-.39 2.18 2.18 0 00-1.55 0 2.07 2.07 0 00-.63.39 1.81 1.81 0 00-.42.6 1.86 1.86 0 00-.17.73zm.92 0a1.44 1.44 0 01.08-.46 1.69 1.69 0 01.23-.36 1.15 1.15 0 01.35-.22 1.08 1.08 0 01.83 0 1.11 1.11 0 01.34.22 1.16 1.16 0 01.23.36 1.22 1.22 0 010 .92 1.16 1.16 0 01-.23.36 1 1 0 01-.34.22 1.08 1.08 0 01-.83 0 1.15 1.15 0 01-.35-.22 1.38 1.38 0 01-.23-.36 1.35 1.35 0 01-.07-.49zM34.19 17h.89v-1.94a1.55 1.55 0 01.05-.23 1 1 0 01.21-.4.9.9 0 01.33-.25 1.13 1.13 0 01.44-.1.58.58 0 01.36.1.44.44 0 01.17.25 1.33 1.33 0 010 .4v2.14l.89.15v-2.33a1.79 1.79 0 00-.15-.79.86.86 0 00-.38-.44 1.32 1.32 0 00-.67-.15 1.61 1.61 0 00-.49.07 1.55 1.55 0 00-.36.19 1 1 0 00-.26.25.91.91 0 00-.16.24v-.74h-.89V17zm4.08-.39l.06.05a1.09 1.09 0 00.17.13 1.64 1.64 0 00.29.16 2 2 0 00.39.13 2.14 2.14 0 00.5.06 2 2 0 00.55-.09 1.42 1.42 0 00.44-.23 1 1 0 00.37-.77 1 1 0 00-.1-.43 1 1 0 00-.25-.31 1.59 1.59 0 00-.35-.22 2.3 2.3 0 00-.39-.17l-.34-.14a1.28 1.28 0 01-.25-.15.26.26 0 01-.1-.19.26.26 0 01.07-.19.34.34 0 01.17-.11.78.78 0 01.22 0 1.5 1.5 0 01.37 0 1.36 1.36 0 01.28.11.87.87 0 01.18.11h.06l.33-.66-.14-.1a1.34 1.34 0 00-.24-.12 1.46 1.46 0 00-.34-.1 2.2 2.2 0 00-.44-.05 2 2 0 00-.55.08 1.23 1.23 0 00-.43.21.86.86 0 00-.3.33 1 1 0 000 .88 1.05 1.05 0 00.25.3 1.63 1.63 0 00.35.23l.37.17.34.14a1.4 1.4 0 01.26.16.29.29 0 01.09.2.28.28 0 01-.06.18.42.42 0 01-.18.11.85.85 0 01-.23 0 1.86 1.86 0 01-.33 0 2.15 2.15 0 01-.27-.1l-.21-.12-.13-.1h-.05zm5.22.36h.91l.22-2.77v-.78a.24.24 0 000 .08c0 .06 0 .12.07.2s.06.16.08.25l.1.24.78 1.89h.81l.79-1.9q0-.1.09-.24l.08-.24.07-.2v-.08.79l.21 2.78h.91l-.4-5h-1l-1 2.5-.09.25-.07.24-.07.18v.08-.08a.94.94 0 00.02-.2 2.34 2.34 0 00-.09-.24 1.84 1.84 0 00-.09-.25l-1-2.52h-1l-.39 5zm5.92-.95a1.24 1.24 0 00.1.5 1.07 1.07 0 00.27.36 1.29 1.29 0 00.39.23 1.48 1.48 0 00.46.08 1.55 1.55 0 00.43-.07 1.17 1.17 0 00.31-.17 1 1 0 00.21-.19 1 1 0 00.11-.17v-.06.59h.88v-2.36a1.52 1.52 0 00-.18-.78 1.12 1.12 0 00-.5-.51 1.82 1.82 0 00-.79-.18 2.42 2.42 0 00-.47 0 2.22 2.22 0 00-.39.12 1.6 1.6 0 00-.3.13l-.18.12a.18.18 0 00-.07 0l.34.66.08-.06.22-.12a1.66 1.66 0 01.31-.12 1.19 1.19 0 01.36.04 1.13 1.13 0 01.36.06.54.54 0 01.24.21.68.68 0 01.09.39v.06h-.48a3.44 3.44 0 00-.45 0 3.59 3.59 0 00-.47.12 1.72 1.72 0 00-.42.23 1 1 0 00-.42.85zm.89-.11a.33.33 0 01.08-.25.51.51 0 01.21-.17 1.4 1.4 0 01.29-.09l.32-.05h.46v.09a.75.75 0 01-.07.33.92.92 0 01-.16.31.78.78 0 01-.26.22.7.7 0 01-.63 0 .52.52 0 01-.19-.17.37.37 0 01-.05-.23zm3.28 1.06h.88v-1.91a1.55 1.55 0 01.06-.23 1.16 1.16 0 01.2-.4.94.94 0 01.34-.25 1 1 0 01.44-.1.62.62 0 01.35.1.45.45 0 01.18.25 1.75 1.75 0 010 .4v2.14l.88.15v-2.33a1.94 1.94 0 00-.14-.79.94.94 0 00-.37-.44 1.61 1.61 0 00-1.16-.08 1.85 1.85 0 00-.37.19 1.52 1.52 0 00-.26.25 2 2 0 00-.16.24v-.74h-.87v3.55zm3.92-.95a1.24 1.24 0 00.1.5 1.22 1.22 0 00.27.36 1.29 1.29 0 00.39.23 1.48 1.48 0 00.46.08 1.55 1.55 0 00.43-.07 1.17 1.17 0 00.31-.17 1 1 0 00.21-.19 1 1 0 00.11-.17v-.06.59h.87v-2.36a1.62 1.62 0 00-.17-.78 1.25 1.25 0 00-.51-.51 1.63 1.63 0 00-.81-.18 2.42 2.42 0 00-.47 0 2.64 2.64 0 00-.4.12l-.29.15-.19.12h-.06l.34.66.08-.06.22-.12a1.66 1.66 0 01.31-.12 1.19 1.19 0 01.37-.06 1 1 0 01.35.06.52.52 0 01.25.21.68.68 0 01.09.39v.06h-.48a3.44 3.44 0 00-.45 0 3.59 3.59 0 00-.47.12 1.72 1.72 0 00-.42.23 1 1 0 00-.31.35 1.22 1.22 0 00-.11.5zm.89-.11a.33.33 0 01.08-.25.52.52 0 01.21-.18 1 1 0 01.29-.1h.78v.08a1 1 0 01-.06.34 1.11 1.11 0 01-.17.3 1.09 1.09 0 01-.25.23.8.8 0 01-.33.08.64.64 0 01-.31-.07.42.42 0 01-.24-.39zM62 17.56l-.26.68a2.66 2.66 0 00.39.16 3.39 3.39 0 00.43.11 2.28 2.28 0 00.45 0 2.51 2.51 0 00.55-.06 2.47 2.47 0 00.52-.18 1.91 1.91 0 00.42-.33 1.44 1.44 0 00.28-.48 1.81 1.81 0 00.11-.65v-3.39H64v.29a.13.13 0 010 .07v.09-.05l-.11-.12a1.37 1.37 0 00-.2-.13 1.21 1.21 0 00-.3-.11 1.67 1.67 0 00-1.08.09 1.38 1.38 0 00-.5.39 1.84 1.84 0 00-.3.57 2.37 2.37 0 00-.1.7 2.42 2.42 0 00.1.7 1.76 1.76 0 00.31.57 1.42 1.42 0 00.51.4 1.57 1.57 0 00.68.15 1.34 1.34 0 00.59-.13 1 1 0 00.4-.34.09.09 0 010 .07v.3a.87.87 0 01-.07.39.73.73 0 01-.22.27 1 1 0 01-.32.15 1.72 1.72 0 01-.39 0 1.75 1.75 0 01-.4 0l-.31-.08-.18-.1H62zm1.15-1.35a.76.76 0 01-.49-.14.87.87 0 01-.31-.4 1.55 1.55 0 01-.11-.56 1.39 1.39 0 01.1-.53.76.76 0 01.29-.35.84.84 0 01.46-.13 1 1 0 01.35 0 .71.71 0 01.28.16.83.83 0 01.2.32 2 2 0 010 1 .78.78 0 01-.19.33.64.64 0 01-.27.18 1.06 1.06 0 01-.31.05zm2.51-1.04a2 2 0 00.13.73 1.9 1.9 0 00.4.61 1.77 1.77 0 00.61.39 2.24 2.24 0 00.81.15 2.92 2.92 0 00.5 0 2.63 2.63 0 00.7-.28l.19-.21.06-.06-.35-.64-.15.1-.22.12a1.4 1.4 0 01-.29.09 1.26 1.26 0 01-.33.05 1 1 0 01-.39-.07 1.11 1.11 0 01-.34-.18 1 1 0 01-.24-.29 1.06 1.06 0 01-.12-.42h2.5v-.35a2.18 2.18 0 00-.1-.67 1.66 1.66 0 00-.31-.55 1.49 1.49 0 00-.5-.36 1.85 1.85 0 00-.69-.14 2 2 0 00-.74.14 1.67 1.67 0 00-1 1 1.94 1.94 0 00-.14.79zm1-.42a1 1 0 01.16-.39.89.89 0 01.29-.26.93.93 0 01.4-.09.77.77 0 01.36.09.75.75 0 01.25.25 1 1 0 01.11.41zm3.2 2.22h.89v-1.41a1.61 1.61 0 010-.31 1.27 1.27 0 01.06-.28 1.29 1.29 0 01.19-.41 1 1 0 01.37-.24 1.1 1.1 0 01.4-.08H72v-.8h-.17a1 1 0 00-.51.13 1.16 1.16 0 00-.4.33 1.63 1.63 0 00-.25.47v-.9h-.88V17z"/><path fill="#ffce26" d="M62.83.33c3.85 2.67 2.24 8.83-1.84 9.5a4.93 4.93 0 001.84-9.5z"/><path fill="#0879b8" d="M58.75.28c4.55-.66 6.44 5 4.44 7.54 3.29-3.26.66-9.19-4.44-7.54z"/><path fill="#069b4f" d="M56.08 3C58.32-.34 63 1.7 63.46 5.08 64 .95 58.52-1.36 56.08 3z"/><path fill="#cb2034" d="M56 5.56c.55-3.46 5-3.81 6.68-1.38A3.44 3.44 0 0056 5.56z"/><path fill="#010101" d="M.15 9.83h1.17l.28-3.58v-1a.25.25 0 000 .12c0 .08 0 .16.08.24s.07.21.11.31l.21.29 1 2.48h1l1-2.48c0-.11.08-.19.12-.31a1.66 1.66 0 01.13-.34 1.13 1.13 0 00.08-.24.15.15 0 010-.12v1l.27 3.58h1.18l-.51-6.4H5.05L3.8 6.56c0 .12-.08.19-.12.31s-.08.2-.12.32a1.55 1.55 0 01-.08.23v.12a.28.28 0 000-.12c0-.08 0-.12-.08-.23s-.07-.2-.11-.32-.16-.18-.2-.31L1.83 3.43H.66zm7.5-1.34a1.2 1.2 0 00.12.59 1.35 1.35 0 00.35.47 1.63 1.63 0 001.06.39 2.51 2.51 0 00.55-.07 1.31 1.31 0 00.39-.2 1.61 1.61 0 00.28-.24 1.79 1.79 0 00.16-.19.11.11 0 000-.08v.71h1.06V7a1.87 1.87 0 00-.23-1 1.46 1.46 0 00-.67-.63 2.85 2.85 0 00-1.61-.2l-.51.12a1.58 1.58 0 00-.35.16c-.09.11-.17.11-.25.11v.07l.44.82.11-.08.28-.16.39-.15a1.85 1.85 0 01.47-.08.94.94 0 01.47.08.62.62 0 01.32.23 1 1 0 01.12.47v.08h-.67a3.81 3.81 0 00-.59.08 2.46 2.46 0 00-.59.16 4 4 0 00-.55.27 1.45 1.45 0 00-.39.43 6 6 0 00-.16.71zm1.18 0A.45.45 0 019 8.14a.6.6 0 01.27-.2 2.06 2.06 0 01.35-.12 1.75 1.75 0 01.4 0h.59v.12a3 3 0 01-.08.43.79.79 0 01-.24.4c-.12.11-.19.23-.35.27a.82.82 0 01-.43.12 1.1 1.1 0 01-.4-.08.33.33 0 01-.23-.23zm4 1.38H14V7.43a.84.84 0 01.08-.31 1.58 1.58 0 01.23-.47 2.17 2.17 0 01.44-.36.93.93 0 01.55-.11.88.88 0 01.47.11.62.62 0 01.23.32.84.84 0 010 .47v2.71h1.14V6.84a2.24 2.24 0 00-.2-1 1.31 1.31 0 00-.55-.59 1.81 1.81 0 00-.86-.19 1.53 1.53 0 00-.63.11 1.4 1.4 0 00-.47.24c-.12.12-.23.2-.35.31a3.45 3.45 0 00-.2.32v-.89h-1.1zM18 8.49a1.48 1.48 0 00.12.59 1.26 1.26 0 00.36.47 1.47 1.47 0 00.47.28 1.63 1.63 0 00.59.11 2.42 2.42 0 00.54-.07 1.36 1.36 0 00.4-.2 1.55 1.55 0 00.27-.24 1.79 1.79 0 00.16-.19.12.12 0 000-.08v.71H22V7a1.88 1.88 0 00-.24-1 1.44 1.44 0 00-.66-.63 2.88 2.88 0 00-1.61-.2l-.49.14a1.46 1.46 0 00-.36.16c-.12 0-.19.12-.23.12h-.08l.43.82a.5.5 0 01.12-.08 2.4 2.4 0 01.27-.16c.13-.05.26-.11.4-.15a1.85 1.85 0 01.45-.04 1 1 0 01.47.08.59.59 0 01.31.23.81.81 0 01.12.47v.08h-.63a3.57 3.57 0 00-1.73.51 1.45 1.45 0 00-.39.43 1.63 1.63 0 00-.16.71zm1.14 0a.45.45 0 01.12-.31.63.63 0 01.28-.2 2.06 2.06 0 01.35-.12 1.72 1.72 0 01.39 0h.59v.12a2 2 0 01-.08.43 1.13 1.13 0 01-.23.4c-.12.11-.2.23-.36.27a.82.82 0 01-.43.12 1 1 0 01-.39-.08.37.37 0 01-.24-.23.87.87 0 000-.36zm4.52 2l-.36.91a2.11 2.11 0 00.47.19 2.71 2.71 0 00.55.12 3 3 0 00.59 0 2.13 2.13 0 00.71-.08 1.84 1.84 0 00.67-.23 2.27 2.27 0 00.55-.43 1.54 1.54 0 00.35-.59 2.92 2.92 0 00.12-.83V5.23h-1.09v.47-.07L26 5.47c-.08 0-.16-.12-.23-.16l-.4-.16a2.09 2.09 0 00-.51-.07 2 2 0 00-1.49.66 2.6 2.6 0 00-.39.71A3.47 3.47 0 0023 8.26a2.62 2.62 0 00.39.74 1.57 1.57 0 00.61.56 2 2 0 00.86.2 1.67 1.67 0 00.79-.16 1.43 1.43 0 00.51-.47v.55a1.13 1.13 0 01-.12.51 1.91 1.91 0 01-.27.35 1.16 1.16 0 01-.4.2 2.15 2.15 0 01-.51 0 1.91 1.91 0 01-.47 0l-.39-.18a1.31 1.31 0 01-.27-.12h-.09zm1.53-1.64a1.07 1.07 0 01-.63-.2 1.11 1.11 0 01-.39-.47 2.16 2.16 0 01-.17-.79 1.84 1.84 0 01.12-.66.77.77 0 01.35-.44.93.93 0 01.59-.15.79.79 0 01.43.07 1.33 1.33 0 01.35.2.8.8 0 01.24.39 2.68 2.68 0 010 1.26 1 1 0 01-.59.67h-.36zm3.07-1.29a2.33 2.33 0 00.16.94 2.44 2.44 0 00.47.75 2.16 2.16 0 00.78.51 2.75 2.75 0 001 .19 1.68 1.68 0 00.63-.07c.2 0 .35-.12.51-.16a2.38 2.38 0 00.39-.2l.24-.15.08-.08-.43-.83h-.08a.82.82 0 01-.2.12l-.27.16-.36.11a1.24 1.24 0 01-.43 0 1.5 1.5 0 01-.47-.08.9.9 0 01-.43-.23 1.71 1.71 0 01-.32-.39 2.46 2.46 0 01-.15-.51h3.14v-.37a3.13 3.13 0 00-.12-.86 2.6 2.6 0 00-.4-.71 2.08 2.08 0 00-.63-.47 2 2 0 00-.86-.15 2.37 2.37 0 00-.95.19 3 3 0 00-.74.47 3 3 0 00-.47.75 4.22 4.22 0 00-.1 1.07zm1.18-.59a1.84 1.84 0 01.19-.51 2.11 2.11 0 01.37-.32 1.1 1.1 0 01.51-.12 1 1 0 01.47.12 1.14 1.14 0 01.31.31.92.92 0 01.12.51zm4.31 2.87h3.85v-.8h-2.94v-2h2.27v-.83h-2.27v-2h2.78v-.74h-3.69zm5 0h.86V7.12a1.48 1.48 0 01.39-.56 1.23 1.23 0 01.51-.39 1.12 1.12 0 01.62-.12 1 1 0 01.44.08.51.51 0 01.27.23.6.6 0 01.12.36V9.9h.86V6.96a1.72 1.72 0 00-.39-1.29 1.52 1.52 0 00-1.18-.44 1.93 1.93 0 00-.67.12 2.12 2.12 0 00-.51.28l-.35.35a1.75 1.75 0 00-.2.35v-.9h-.82zm5.81.82l-.28.71c.16.08.32.11.48.19a2 2 0 00.54.12 2.59 2.59 0 00.55 0 1.67 1.67 0 00.67-.08 2 2 0 00.63-.23 2.2 2.2 0 00.51-.4 1.41 1.41 0 00.35-.59 2.06 2.06 0 00.12-.78V5.31h-.83v.59a.2.2 0 000-.08s-.08-.12-.16-.15a1.26 1.26 0 00-.27-.2 1.16 1.16 0 00-.4-.16 2.33 2.33 0 00-.59-.08 1.79 1.79 0 00-.82.16 1.93 1.93 0 00-.63.47 2.14 2.14 0 00-.43.7 3.42 3.42 0 00-.12.9 3.67 3.67 0 00.12.94 2.68 2.68 0 00.39.75 1.54 1.54 0 00.63.47 2 2 0 00.86.2 1.85 1.85 0 00.83-.2 1.32 1.32 0 00.51-.51v.63a1.36 1.36 0 01-.12.59 1.66 1.66 0 01-.31.39 1.21 1.21 0 01-.47.23 1.17 1.17 0 01-.55.08 1.56 1.56 0 01-.48 0l-.39-.11-.27-.12c-.05-.15-.08-.15-.08-.15zM46 9a1.48 1.48 0 01-.71-.19 1.47 1.47 0 01-.47-.55 2.24 2.24 0 010-1.65 1.13 1.13 0 01.43-.51 1.25 1.25 0 01.67-.2 1.1 1.1 0 01.51.08.81.81 0 01.39.23 1.29 1.29 0 01.28.48 2.37 2.37 0 010 1.49 1.34 1.34 0 01-.28.47.81.81 0 01-.39.23.68.68 0 01-.44.12zm3.42-4.63h.86v-.9h-.86zm0 5.46h.86V5.27h-.86zm2.23 0h.87V7.12a1.35 1.35 0 01.39-.56 1.23 1.23 0 01.51-.39 1.13 1.13 0 01.63-.12.92.92 0 01.43.08.47.47 0 01.27.23.6.6 0 01.12.36V9.9h.87V6.96a1.77 1.77 0 00-.4-1.29 1.51 1.51 0 00-1.17-.44 1.89 1.89 0 00-.67.12 2 2 0 00-.51.28l-.36.35a1.7 1.7 0 00-.19.35v-.9h-.83zm5.15-2.27a3.3 3.3 0 00.15.94 2.44 2.44 0 00.47.75 2.38 2.38 0 00.75.51 2.71 2.71 0 001 .19 1.32 1.32 0 00.59-.07l.47-.16a2.43 2.43 0 00.35-.2l.24-.15.08-.08-.35-.63h-.08l-.2.12-.27.18a1.18 1.18 0 01-.36.12 1.77 1.77 0 01-1-.08 1.47 1.47 0 01-.47-.27 1.45 1.45 0 01-.35-.47 3.11 3.11 0 01-.2-.7h3.3V7.2a2.92 2.92 0 00-.12-.83 2.38 2.38 0 00-.35-.67 1.71 1.71 0 00-.63-.47 1.82 1.82 0 00-.82-.15 2.35 2.35 0 00-.91.15 2.21 2.21 0 00-.7.47 2.29 2.29 0 00-.48.75 11 11 0 00-.12 1.11zm.94-.55a1.6 1.6 0 01.26-.64 1.26 1.26 0 01.47-.39 1.52 1.52 0 01.53-.12 1.3 1.3 0 01.55.12 1.24 1.24 0 01.4.39 1.12 1.12 0 01.15.67z"/></svg>