<svg xmlns="http://www.w3.org/2000/svg" width="32" height="32" fill="none"><path fill="#fff" d="M0 0h32v32H0z"/><g clip-path="url(#a)"><path fill="#fff" d="M5.621 14.942l2.513.002c.33-9.032 11.79-8.59 13.422-2.14l5.033-.002-.007 2.136 4.857.01-2.97 3.81 3.413 3.998H5.53c-3.2.917-5.506-1.6-5.41-4.072.095-2.414 2.444-4.742 5.501-3.742z"/><path fill="#262161" d="M4.533 16.896c-1.31 0-2.016 1.037-2.016 2.012 0 1.089.886 1.942 2.016 1.942 1.147 0 1.979-.837 1.979-1.988 0-1.29-.995-1.966-1.979-1.966zm-.35 5.473c-1.662 0-3.428-1.238-3.428-3.53 0-1.974 1.516-3.461 3.528-3.461 1.238 0 2.044.703 2.279.974v-.753h1.625v6.56H6.562v-.73c-.557.55-1.534.94-2.38.94z"/><path stroke="#743182" stroke-width=".25" d="M4.533 16.896c-1.31 0-2.016 1.037-2.016 2.012 0 1.089.886 1.942 2.016 1.942 1.147 0 1.979-.837 1.979-1.988 0-1.29-.995-1.966-1.979-1.966zm-.35 5.473c-1.662 0-3.428-1.238-3.428-3.53 0-1.974 1.516-3.461 3.528-3.461 1.238 0 2.044.703 2.279.974v-.753h1.625v6.56H6.562v-.73c-.557.55-1.534.94-2.38.94z"/><path fill="#262161" d="M11.69 22.369c-1.338 0-2.055-.654-2.363-1.043-.524-.702-.524-1.742-.524-2.3V15.6h1.761v3.344c0 .52 0 1.906 1.401 1.906 1.177 0 1.353-1.187 1.353-1.895V15.6h1.76v6.559h-1.623v-.593c-.256.318-.722.803-1.764.803z"/><path stroke="#743182" stroke-width=".25" d="M11.69 22.369c-1.338 0-2.055-.654-2.363-1.043-.524-.702-.524-1.742-.524-2.3V15.6h1.761v3.344c0 .52 0 1.906 1.401 1.906 1.177 0 1.353-1.187 1.353-1.895V15.6h1.76v6.559h-1.623v-.593c-.256.318-.722.803-1.764.803z"/><path fill="#262161" d="M18.825 22.157H17.64l-.012-.031-2.43-6.526h1.652l1.419 4.224 1.334-4.224h1.674l-2.452 6.557z"/><path stroke="#743182" stroke-width=".25" d="M18.825 22.157H17.64l-.012-.031-2.43-6.526h1.652l1.419 4.224 1.334-4.224h1.674l-2.452 6.557z"/><path fill="#262161" d="M23.447 14.865h-1.735v-1.419h1.735v1.419zm0 7.292h-1.735v-6.566h1.735v6.566z"/><path stroke="#743182" stroke-width=".25" d="M23.447 14.865h-1.735v-1.419h1.735v1.419zm0 7.292h-1.735v-6.566h1.735v6.566z"/><path fill="#262161" d="M30.552 22.157h-2.224l-2.295-2.968v2.968h-1.755v-8.722h1.755v5.131l2.157-2.975h2.032l-2.53 3.218 2.86 3.348z"/><path stroke="#743182" stroke-width=".25" d="M30.552 22.157h-2.224l-2.295-2.968v2.968h-1.755v-8.722h1.755v5.131l2.157-2.975h2.032l-2.53 3.218 2.86 3.348z"/><path fill="#804096" d="M21.113 13.983c-.422-2.97-3.005-5.264-6.12-5.264-3.409 0-6.181 2.747-6.181 6.122h1.777c0-2.394 1.976-4.34 4.404-4.34.638 0 1.243.135 1.791.376-1.894.267-3.358 1.942-3.358 3.963h1.776c0-1.225.948-2.22 2.112-2.22.985 0 1.815.712 2.048 1.672.023.18.036.363.036.549h1.806c0-.295-.032-.581-.09-.858z"/><path stroke="#743182" stroke-width=".25" d="M21.113 13.983c-.422-2.97-3.005-5.264-6.12-5.264-3.409 0-6.181 2.747-6.181 6.122h1.777c0-2.394 1.976-4.34 4.404-4.34.638 0 1.243.135 1.791.376-1.894.267-3.358 1.942-3.358 3.963h1.776c0-1.225.948-2.22 2.112-2.22.985 0 1.815.712 2.048 1.672.023.18.036.363.036.549h1.806c0-.295-.032-.581-.09-.858z"/></g><defs><clipPath id="a"><path fill="#fff" d="M0 8h32v15H0z"/></clipPath></defs></svg>