<svg xmlns="http://www.w3.org/2000/svg" width="40" height="40" fill="none" viewBox="0 0 40 40"><path fill="#006EBA" fill-rule="evenodd" d="M37.56 22.845a1.058 1.058 0 11.002 2.116 1.058 1.058 0 01-.002-2.116zm.472-5.418a1.059 1.059 0 110 2.118 1.059 1.059 0 010-2.118zm-1.176-5.65a1.059 1.059 0 110 2.118 1.059 1.059 0 010-2.118zM34.03 7.066a1.059 1.059 0 110 2.118 1.059 1.059 0 010-2.118zm-4.005-3.768a1.059 1.059 0 110 2.118 1.059 1.059 0 010-2.118zM25.079.944a1.059 1.059 0 110 2.118 1.059 1.059 0 010-2.118zM19.428 0a1.059 1.059 0 110 2.118 1.059 1.059 0 010-2.118zm-5.417.944a1.059 1.059 0 110 2.118 1.059 1.059 0 010-2.118zm21.432 27.081a1.059 1.059 0 110 2.118 1.059 1.059 0 010-2.118zm-3.299 4.474a1.059 1.059 0 110 2.118 1.059 1.059 0 010-2.118zm-4.708 3.061a1.058 1.058 0 11.002 2.116 1.058 1.058 0 01-.002-2.115z" clip-rule="evenodd"/><mask id="fs-fmtr7l9hfa" width="3" height="3" x="21" y="37" maskUnits="userSpaceOnUse"><path fill="#fff" fill-rule="evenodd" d="M21.196 37.208h2.117v2.118h-2.117v-2.118z" clip-rule="evenodd"/></mask><g mask="url(#fs-fmtr7l9hfa)"><path fill="#006EBA" fill-rule="evenodd" d="M22.255 37.208a1.059 1.059 0 110 2.118 1.059 1.059 0 010-2.118z" clip-rule="evenodd"/></g><path fill="#006EBA" fill-rule="evenodd" d="M16.603 36.974a1.058 1.058 0 11.002 2.116 1.058 1.058 0 01-.002-2.116zm-5.181-1.649a1.059 1.059 0 110 2.118 1.059 1.059 0 010-2.118zm-4.474-3.061a1.059 1.059 0 110 2.118 1.059 1.059 0 010-2.117zM3.415 27.79a1.058 1.058 0 11.002 2.117 1.058 1.058 0 01-.002-2.116zm-2.119-5.182a1.058 1.058 0 11.001 2.116 1.058 1.058 0 01-.001-2.116zm-.237-5.651a1.059 1.059 0 110 2.118 1.059 1.059 0 010-2.118zm1.178-5.417a1.059 1.059 0 110 2.117 1.059 1.059 0 010-2.117zm2.826-4.474a1.059 1.059 0 110 2.118 1.059 1.059 0 010-2.118zm4.002-3.768a1.059 1.059 0 110 2.118 1.059 1.059 0 010-2.118z" clip-rule="evenodd"/><path fill="#0078C2" fill-rule="evenodd" d="M33.896 25.483a.941.941 0 111.79.581.941.941 0 01-1.79-.581zm1.2-4.58a.942.942 0 111.792.584.942.942 0 01-1.792-.584zm-.157-5.03a.942.942 0 111.792.584.942.942 0 01-1.792-.584zm-1.859-4.826a.942.942 0 111.793.584.942.942 0 01-1.792-.584zm-3.203-3.845a.942.942 0 111.791.583.942.942 0 01-1.791-.583zm-3.893-2.524a.942.942 0 111.792.584.942.942 0 01-1.792-.584zm-4.737-1.703a.942.942 0 111.792.583.942.942 0 01-1.792-.583zm-5.032.157a.942.942 0 111.791.584.942.942 0 01-1.791-.584zM31.297 29.84a.942.942 0 111.793.582.942.942 0 01-1.793-.582zm-3.416 3.51a.942.942 0 111.792.583.942.942 0 01-1.791-.583zm-4.63 2.128a.942.942 0 111.792.584.942.942 0 01-1.792-.584zm-4.873.661a.942.942 0 111.79.58.942.942 0 01-1.79-.58zm-4.846-1.009a.94.94 0 111.79.581.94.94 0 01-1.79-.58zm-4.199-2.093a.942.942 0 111.792.584.942.942 0 01-1.792-.584zm-3.78-3.223a.942.942 0 111.792.583.942.942 0 01-1.792-.583zM3.192 25.15a.94.94 0 111.79.58.94.94 0 01-1.79-.58zm-1.161-4.715a.942.942 0 111.792.584.942.942 0 01-1.792-.584zm.579-5.154a.942.942 0 111.79.583.942.942 0 01-1.79-.583zm1.665-4.504a.942.942 0 111.792.584.942.942 0 01-1.792-.584zm3.221-3.781a.942.942 0 111.792.584.942.942 0 01-1.792-.584zm4.006-2.703a.942.942 0 111.792.584.942.942 0 01-1.792-.584z" clip-rule="evenodd"/><path fill="#0084CC" fill-rule="evenodd" d="M33.201 27.568a.715.715 0 01-.898.459.715.715 0 01.44-1.358.714.714 0 01.458.899zm1.744-3.973a.713.713 0 11-1.355-.438.713.713 0 011.355.438zm.58-4.58a.713.713 0 11-1.356-.44.713.713 0 011.356.44zm-.991-4.636a.714.714 0 11-1.357-.443.714.714 0 011.357.443zm-2.353-3.942a.713.713 0 11-1.356-.441.713.713 0 011.356.44zM29.02 7.593a.713.713 0 11-1.356-.442.713.713 0 011.356.442zM24.972 5.37a.714.714 0 11-1.357-.442.714.714 0 011.357.443zm-4.577-.58a.714.714 0 01-1.357-.441.714.714 0 011.357.44zm9.827 26.352a.714.714 0 11-1.358-.443.714.714 0 011.358.443zm-3.597 2.691a.714.714 0 11-1.358-.443.714.714 0 011.358.443zm-4.498 1.262a.716.716 0 01-.899.46.715.715 0 01.441-1.358c.375.122.58.524.458.898zm-4.507-.102a.715.715 0 01-.9.459.714.714 0 01.442-1.358.715.715 0 01.457.9zm-4.247-1.606a.713.713 0 11-1.355-.438.713.713 0 011.355.438zm-3.502-2.499a.715.715 0 01-.899.458.714.714 0 11.899-.458zm-2.962-3.46a.713.713 0 11-1.356-.441.713.713 0 011.356.44zM5.44 22.863a.715.715 0 01-.898.459.715.715 0 01.441-1.358c.374.123.58.525.458.9zm-.374-4.437a.713.713 0 11-1.356-.441.713.713 0 011.356.441zm1.262-4.585a.713.713 0 11-1.356-.44.713.713 0 011.356.44zm2.155-3.839a.714.714 0 01-1.356-.441.714.714 0 011.356.44zm3.46-2.962a.713.713 0 11-1.356-.44.713.713 0 011.356.44zm4.015-1.876a.713.713 0 11-1.357-.44.713.713 0 011.357.44z" clip-rule="evenodd"/><path fill="#0085CD" fill-rule="evenodd" d="M30.904 28.41a.59.59 0 01-.79.27.59.59 0 11.517-1.06.592.592 0 01.273.79zm2.086-3.197a.59.59 0 11-1.062-.523.59.59 0 011.062.523zm1.017-4.243a.59.59 0 01-.79.27.588.588 0 11.517-1.06.592.592 0 01.273.79zm-.255-4.339a.59.59 0 01-.79.271.589.589 0 11.517-1.059.59.59 0 01.273.788zm-1.623-3.687a.59.59 0 01-1.062-.518.59.59 0 01.789-.27.588.588 0 01.273.788zm-2.464-3.047a.589.589 0 01-.79.27.588.588 0 11.517-1.058.59.59 0 01.273.788zm-3.518-2.504a.588.588 0 01-.79.27.59.59 0 01-.273-.789.59.59 0 01.79-.269.588.588 0 01.273.788zm-3.929-1.126a.59.59 0 01-1.062-.518.59.59 0 01.79-.27.59.59 0 01.272.788zm5.433 25.031a.59.59 0 11-1.062-.523.59.59 0 011.063.523zm-3.579 1.942a.588.588 0 01-.79.27.588.588 0 11.517-1.058.588.588 0 01.273.788zm-4.229.571a.59.59 0 11-1.062-.52.59.59 0 011.062.52zm-3.921-.597a.588.588 0 01-.79.269.59.59 0 11.517-1.059.59.59 0 01.273.79zm-3.725-2.08a.59.59 0 01-.79.27.59.59 0 11.517-1.058.59.59 0 01.273.788zm-2.673-2.619a.588.588 0 01-.79.269.588.588 0 11.517-1.058.59.59 0 01.273.789zm-2.257-3.472a.589.589 0 01-.79.269.59.59 0 11.517-1.059.59.59 0 01.273.79zm-.784-4.332a.588.588 0 01-.79.27.588.588 0 11.517-1.058.59.59 0 01.273.788zm.171-4.13a.59.59 0 01-.79.271.589.589 0 11.517-1.059.59.59 0 01.273.788zm1.656-3.932a.59.59 0 01-.79.27.59.59 0 11.516-1.059.59.59 0 01.273.789zm2.615-3.202a.588.588 0 01-.79.27.59.59 0 01-.273-.79.59.59 0 01.79-.268.588.588 0 01.273.788zm3.47-2.257a.59.59 0 01-.79.27.59.59 0 11.517-1.058.59.59 0 01.273.788zm3.694-1.094a.59.59 0 01-1.062-.518.59.59 0 01.79-.27.588.588 0 01.272.788z" clip-rule="evenodd"/><path fill="#006EBA" fill-rule="evenodd" d="M30.81 25.944a.534.534 0 01-.67.353.534.534 0 11.313-1.02.534.534 0 01.356.667zm1.409-3.149a.536.536 0 01-1.025-.314.535.535 0 011.025.314zm.307-3.935a.535.535 0 11-1.022-.314.535.535 0 011.022.315zm-.84-3.839a.535.535 0 11-1.026-.315.535.535 0 011.026.315zm-1.973-3.063a.534.534 0 01-.668.353.534.534 0 11.311-1.02.534.534 0 01.357.667zm-2.632-2.372a.534.534 0 01-.668.353.534.534 0 11.312-1.02.534.534 0 01.356.667zm-3.497-1.741a.534.534 0 01-.669.354.534.534 0 11.312-1.021.535.535 0 01.357.667zm-3.666-.448a.535.535 0 01-1.025-.313.535.535 0 011.024.313zm8.393 21.587a.534.534 0 11-1.022-.313.534.534 0 011.022.313zm-2.923 2.242a.536.536 0 01-1.025-.314.534.534 0 01.668-.353.534.534 0 01.357.667zm-3.695 1.109a.534.534 0 01-.668.353.534.534 0 11.311-1.02.534.534 0 01.357.667zm-3.588.019a.536.536 0 01-1.025-.314.533.533 0 01.668-.352.533.533 0 01.357.666zm-3.621-1.329a.534.534 0 01-.668.354.534.534 0 11.312-1.02.533.533 0 01.356.666zm-2.757-1.961a.534.534 0 01-.669.353.534.534 0 11.312-1.02.534.534 0 01.357.667zm-2.509-2.782a.536.536 0 01-1.024-.314.535.535 0 011.025.314zm-1.312-3.758a.534.534 0 01-.668.353.534.534 0 11.311-1.02.534.534 0 01.357.667zm-.43-3.713a.535.535 0 11-1.023-.315.535.535 0 011.023.315zm.92-3.747a.536.536 0 01-1.025-.314.534.534 0 01.668-.353.534.534 0 01.357.667zm1.884-3.229a.534.534 0 01-.669.353.534.534 0 11.312-1.02.534.534 0 01.356.667zm2.78-2.508a.535.535 0 11-1.026-.315.535.535 0 011.026.315zm3.145-1.5a.534.534 0 01-.669.353.534.534 0 11.312-1.02.534.534 0 01.357.667z" clip-rule="evenodd"/><path fill="#0090D6" fill-rule="evenodd" d="M30.81 25.944a.534.534 0 01-.67.353.534.534 0 11.313-1.02.534.534 0 01.356.667zm1.409-3.149a.536.536 0 01-1.025-.314.535.535 0 011.025.314zm.307-3.935a.535.535 0 11-1.022-.314.535.535 0 011.022.315zm-.84-3.839a.535.535 0 11-1.026-.315.535.535 0 011.026.315zm-1.973-3.063a.534.534 0 01-.668.353.534.534 0 11.311-1.02.534.534 0 01.357.667zm-2.632-2.372a.534.534 0 01-.668.353.534.534 0 11.312-1.02.534.534 0 01.356.667zm-3.497-1.741a.534.534 0 01-.669.354.534.534 0 11.312-1.021.535.535 0 01.357.667zm-3.666-.448a.535.535 0 01-1.025-.313.535.535 0 011.024.313zm8.393 21.587a.534.534 0 11-1.022-.313.534.534 0 011.022.313zm-2.923 2.242a.536.536 0 01-1.025-.314.534.534 0 01.668-.353.534.534 0 01.357.667zm-3.695 1.109a.534.534 0 01-.668.353.534.534 0 11.311-1.02.534.534 0 01.357.667zm-3.588.019a.536.536 0 01-1.025-.314.533.533 0 01.668-.352.533.533 0 01.357.666zm-3.621-1.329a.534.534 0 01-.668.354.534.534 0 11.312-1.02.533.533 0 01.356.666zm-2.757-1.961a.534.534 0 01-.669.353.534.534 0 11.312-1.02.534.534 0 01.357.667zm-2.509-2.782a.536.536 0 01-1.024-.314.535.535 0 011.025.314zm-1.312-3.758a.534.534 0 01-.668.353.534.534 0 11.311-1.02.534.534 0 01.357.667zm-.43-3.713a.535.535 0 11-1.023-.315.535.535 0 011.023.315zm.92-3.747a.536.536 0 01-1.025-.314.534.534 0 01.668-.353.534.534 0 01.357.667zm1.884-3.229a.534.534 0 01-.669.353.534.534 0 11.312-1.02.534.534 0 01.356.667zm2.78-2.508a.535.535 0 11-1.026-.315.535.535 0 011.026.315zm3.145-1.5a.534.534 0 01-.669.353.534.534 0 11.312-1.02.534.534 0 01.357.667z" clip-rule="evenodd"/><path fill="#006EBA" fill-rule="evenodd" d="M28.659 26.832a.48.48 0 01-.864-.42.478.478 0 01.642-.22.478.478 0 01.222.64zm1.696-2.597a.48.48 0 01-.863-.42.479.479 0 01.862.42zm.827-3.451a.48.48 0 01-.863-.422.478.478 0 01.641-.218.478.478 0 01.222.64zm-.207-3.526a.479.479 0 01-.64.219.478.478 0 11.418-.859.479.479 0 01.222.64zm-1.322-3a.48.48 0 01-.863-.421.479.479 0 01.64-.22.478.478 0 01.223.64zM27.65 11.78a.48.48 0 01-.864-.421.478.478 0 01.641-.219.48.48 0 01.223.64zm-2.86-2.037a.48.48 0 01-.863-.421.479.479 0 01.64-.22.479.479 0 01.223.64zm-3.195-.917a.48.48 0 01-.863-.42.479.479 0 01.641-.22.478.478 0 01.222.64zm4.42 20.357a.48.48 0 01-.863-.42.48.48 0 01.864.42zm-2.913 1.579a.48.48 0 01-.863-.42.48.48 0 01.863.42zm-3.437.464a.48.48 0 11-.861-.422.48.48 0 01.861.422zm-3.19-.484a.48.48 0 01-.864-.42.48.48 0 01.864.42zm-3.03-1.692a.48.48 0 01-.863-.42.478.478 0 01.641-.22.479.479 0 01.222.64zm-2.171-2.131a.48.48 0 01-.864-.421.477.477 0 01.641-.22.48.48 0 01.223.64zm-1.837-2.822a.48.48 0 01-.863-.421.479.479 0 11.863.42zM8.8 20.574a.48.48 0 01-.864-.421.48.48 0 01.864.42zm.139-3.358a.478.478 0 01-.642.218.479.479 0 11.42-.858.478.478 0 01.222.64zm1.345-3.198a.48.48 0 01-.863-.421.478.478 0 01.641-.22.479.479 0 01.222.64zm2.128-2.604a.479.479 0 01-.641.219.478.478 0 11.418-.86.48.48 0 01.223.64zm2.823-1.834a.478.478 0 01-.642.219.479.479 0 11.419-.859.478.478 0 01.223.64zm3.001-.89a.478.478 0 01-.64.218.479.479 0 11.42-.859.478.478 0 01.22.64z" clip-rule="evenodd"/><path fill="#00A1E5" fill-rule="evenodd" d="M28.659 26.832a.48.48 0 01-.864-.42.478.478 0 01.642-.22.478.478 0 01.222.64zm1.696-2.597a.48.48 0 01-.863-.42.479.479 0 01.862.42zm.827-3.451a.48.48 0 01-.863-.422.478.478 0 01.641-.218.478.478 0 01.222.64zm-.207-3.526a.479.479 0 01-.64.219.478.478 0 11.418-.859.479.479 0 01.222.64zm-1.322-3a.48.48 0 01-.863-.421.479.479 0 01.64-.22.478.478 0 01.223.64zM27.65 11.78a.48.48 0 01-.864-.421.478.478 0 01.641-.219.48.48 0 01.223.64zm-2.86-2.037a.48.48 0 01-.863-.421.479.479 0 01.64-.22.479.479 0 01.223.64zm-3.195-.917a.48.48 0 01-.863-.42.479.479 0 01.641-.22.478.478 0 01.222.64zm4.42 20.357a.48.48 0 01-.863-.42.48.48 0 01.864.42zm-2.913 1.579a.48.48 0 01-.863-.42.48.48 0 01.863.42zm-3.437.464a.48.48 0 11-.861-.422.48.48 0 01.861.422zm-3.19-.484a.48.48 0 01-.864-.42.48.48 0 01.864.42zm-3.03-1.692a.48.48 0 01-.863-.42.478.478 0 01.641-.22.479.479 0 01.222.64zm-2.171-2.131a.48.48 0 01-.864-.421.477.477 0 01.641-.22.48.48 0 01.223.64zm-1.837-2.822a.48.48 0 01-.863-.421.479.479 0 11.863.42zM8.8 20.574a.48.48 0 01-.864-.421.48.48 0 01.864.42zm.139-3.358a.478.478 0 01-.642.218.479.479 0 11.42-.858.478.478 0 01.222.64zm1.345-3.198a.48.48 0 01-.863-.421.478.478 0 01.641-.22.479.479 0 01.222.64zm2.128-2.604a.479.479 0 01-.641.219.478.478 0 11.418-.86.48.48 0 01.223.64zm2.823-1.834a.478.478 0 01-.642.219.479.479 0 11.419-.859.478.478 0 01.223.64zm3.001-.89a.478.478 0 01-.64.218.479.479 0 11.42-.859.478.478 0 01.22.64z" clip-rule="evenodd"/><path fill="#09AEF3" fill-rule="evenodd" d="M26.65 27.355a.434.434 0 11-.71-.497.434.434 0 01.71.497zm1.878-2.079a.434.434 0 11-.71-.498.434.434 0 01.71.498zm1.224-2.957a.434.434 0 11-.71-.498.434.434 0 01.71.497zm.313-3.174a.433.433 0 11-.71-.495.433.433 0 01.71.495zm-.753-2.86a.433.433 0 11-.71-.495.433.433 0 01.71.495zm-1.436-2.488a.433.433 0 11-.71-.496.433.433 0 01.71.496zm-2.262-2.221a.432.432 0 11-.709-.496.432.432 0 01.71.496zm-2.717-1.266a.433.433 0 11-.71-.495.433.433 0 01.71.494zm1.065 18.765a.434.434 0 11-.71-.497.434.434 0 01.71.497zm-2.818.997a.434.434 0 11-.71-.498.434.434 0 01.71.498zm-3.13-.073a.434.434 0 11-.71-.499.434.434 0 01.71.499zm-2.774-.881a.433.433 0 11-.71-.499.433.433 0 01.71.499zm-2.46-1.936a.434.434 0 11-.711-.498.434.434 0 01.71.498zm-1.638-2.206a.434.434 0 11-.71-.498.434.434 0 01.71.498zm-1.236-2.772a.434.434 0 11-.71-.499.434.434 0 01.71.499zm-.072-3.231a.433.433 0 11-.709-.496.433.433 0 01.71.496zm.6-2.974a.433.433 0 11-.709-.496.433.433 0 01.709.496zm1.649-2.659a.433.433 0 11-.709-.496.433.433 0 01.71.495zm2.263-2.022a.433.433 0 11-.71-.495.433.433 0 01.71.495zm2.774-1.238a.433.433 0 11-.71-.495.433.433 0 01.71.495zm2.802-.368a.432.432 0 11-.71-.495.432.432 0 01.71.495z" clip-rule="evenodd"/><path fill="#27BFFF" fill-rule="evenodd" d="M25.047 27.598a.42.42 0 11-.613-.573.42.42 0 01.613.573zm1.976-1.651a.418.418 0 11-.611-.57.418.418 0 01.611.57zm1.493-2.538a.417.417 0 11-.613-.57.418.418 0 01.613.57zm.691-2.847a.418.418 0 11-.612-.57.418.418 0 01.612.57zm-.32-2.699a.417.417 0 01-.59.02.417.417 0 11.569-.612.419.419 0 01.02.592zm-.99-2.452a.42.42 0 01-.613-.57.417.417 0 01.592-.02c.17.156.179.42.021.59zM26.12 13.1a.42.42 0 01-.591.022.42.42 0 01-.02-.592.417.417 0 01.59-.02c.17.157.18.421.022.59zm-2.31-1.5a.418.418 0 11-.611-.57.418.418 0 01.611.57zm-1.43 17.22a.418.418 0 11-.612-.57.418.418 0 01.611.57zm-2.692.546a.417.417 0 11-.021-.59c.169.157.178.42.02.59zm-2.84-.466a.418.418 0 11-.612-.57.418.418 0 01.612.57zm-2.414-1.156a.418.418 0 11-.612-.57.418.418 0 01.612.57zm-1.993-2.08a.42.42 0 11-.613-.573.42.42 0 01.613.573zm-1.207-2.217a.42.42 0 11-.61-.57.42.42 0 01.61.57zm-.771-2.681a.42.42 0 01-.613-.57.419.419 0 11.613.57zm.347-2.951a.418.418 0 11-.612-.57.418.418 0 01.612.57zm.926-2.631a.419.419 0 11-.611-.57.419.419 0 01.61.57zm1.844-2.211a.418.418 0 11-.613-.57.418.418 0 01.612.57zm2.317-1.548a.418.418 0 11-.612-.57.418.418 0 01.612.57zm2.684-.771a.418.418 0 11-.612-.57.418.418 0 01.612.57zm2.6.022a.418.418 0 11-.612-.57.418.418 0 01.612.57z" clip-rule="evenodd"/><path fill="#64CFFD" fill-rule="evenodd" d="M23.466 27.46a.419.419 0 11-.526-.65.419.419 0 01.526.65zm1.965-1.22a.418.418 0 11-.527-.652.418.418 0 01.527.652zm1.647-2.072a.416.416 0 01-.589-.062.417.417 0 11.65-.526.418.418 0 01-.061.588zm.97-2.449a.417.417 0 01-.588-.063.417.417 0 11.65-.525.418.418 0 01-.062.588zm.054-2.443a.418.418 0 11-.527-.65.418.418 0 01.527.65zm-.574-2.303a.418.418 0 11-.527-.65.418.418 0 01.527.65zm-1.291-2.281a.417.417 0 01-.588-.062.417.417 0 11.65-.526.418.418 0 01-.062.588zm-1.87-1.622a.418.418 0 11-.527-.65.418.418 0 01.527.65zm-3.43 15.146a.419.419 0 11-.526-.652.419.419 0 01.526.652zm-2.463.148a.419.419 0 11-.525-.651.419.419 0 01.525.651zm-2.47-.768a.419.419 0 11-.526-.652.419.419 0 01.526.652zm-2.001-1.334a.418.418 0 11-.527-.652.418.418 0 01.527.651zm-1.514-2.098a.416.416 0 01-.589-.063.417.417 0 11.65-.526.418.418 0 01-.061.589zm-.799-2.124a.418.418 0 11-.525-.65.418.418 0 01.526.65zm-.35-2.485a.418.418 0 11-.527-.652.418.418 0 01.526.652zm.68-2.581a.418.418 0 11-.527-.65.418.418 0 01.527.65zm1.15-2.226a.418.418 0 11-.526-.648.418.418 0 01.526.648zm1.92-1.738a.417.417 0 01-.589-.062.417.417 0 11.65-.526.418.418 0 01-.062.588zm2.256-1.088a.418.418 0 11-.526-.652.418.418 0 01.526.652zm2.485-.352a.418.418 0 11-.526-.652.418.418 0 01.526.652zm2.311.346a.418.418 0 11-.527-.65.418.418 0 01.527.65z" clip-rule="evenodd"/><path fill="#81D9FF" fill-rule="evenodd" d="M22.12 27.231a.418.418 0 11-.433-.715.418.418 0 01.433.715zm1.926-.852a.417.417 0 01-.574-.144.418.418 0 11.574.143zm1.745-1.659a.418.418 0 11-.432-.715.418.418 0 01.432.715zm1.186-2.084a.418.418 0 11-.43-.717.418.418 0 11.43.717zm.358-2.196a.418.418 0 11-.43-.717.418.418 0 01.43.716zm-.227-2.15a.42.42 0 11-.43-.72.42.42 0 01.43.72zm-.873-2.217a.419.419 0 11-.43-.719.419.419 0 01.43.719zm-1.481-1.703a.42.42 0 11-.43-.719.42.42 0 01.43.72zm-5.009 13.22a.419.419 0 11-.43-.718.419.419 0 01.43.719zm-2.24-.176a.418.418 0 11-.43-.717.418.418 0 01.43.717zm-2.128-1.008a.418.418 0 11-.432-.715.418.418 0 01.432.715zm-1.637-1.454a.418.418 0 11-.43-.717.418.418 0 01.43.717zm-1.099-2.083a.418.418 0 11-.432-.715.418.418 0 01.432.715zm-.449-2.015a.418.418 0 11-.431-.717.418.418 0 01.43.717zm-.002-2.285a.42.42 0 11-.43-.72.42.42 0 01.43.72zm.94-2.24a.418.418 0 11-.43-.717.418.418 0 01.43.717zm1.32-1.859a.42.42 0 11-.43-.72.42.42 0 01.43.72zm1.95-1.325a.418.418 0 11-.431-.717.418.418 0 01.43.717zm2.17-.696a.42.42 0 11-.43-.72.42.42 0 01.43.72zm2.285-.001a.418.418 0 11-.43-.717.418.418 0 01.43.717zm2.04.602a.418.418 0 11-.431-.716.418.418 0 01.43.717zm-2.166 13.48a.42.42 0 01-.314-.776.418.418 0 11.314.776zm1.755-.466a.418.418 0 11-.313-.776.418.418 0 01.313.776zm1.71-1.178a.42.42 0 01-.314-.776.42.42 0 01.314.776zm1.29-1.614a.42.42 0 01-.545-.23.417.417 0 11.545.23zm.601-1.82a.418.418 0 11-.313-.775.418.418 0 11.313.775zm.097-1.861a.42.42 0 11-.313-.778.42.42 0 01.313.778zm-.445-2.007a.42.42 0 11-.313-.777.42.42 0 01.313.777zm-1.031-1.646a.42.42 0 01-.314-.777.419.419 0 01.314.777zm-6.049 10.577a.419.419 0 11-.312-.774.419.419 0 01.313.774zm-1.881-.452a.417.417 0 11-.314-.775.418.418 0 11.314.775zm-1.678-1.146a.418.418 0 11-.314-.775.418.418 0 01.314.775zm-1.196-1.457a.419.419 0 11-.313-.778.419.419 0 01.313.777zm-.654-1.924a.418.418 0 11-.314-.775.418.418 0 01.314.775zm-.111-1.776a.42.42 0 01-.313-.776.42.42 0 01.313.776zm.307-1.945a.418.418 0 11-.315-.775.418.418 0 01.315.775zm1.102-1.78a.42.42 0 01-.314-.777.419.419 0 01.314.777zm1.374-1.406a.418.418 0 11-.314-.774.418.418 0 01.315.774zm1.838-.863a.418.418 0 11-.315-.774.418.418 0 01.315.774zm1.942-.3a.42.42 0 01-.313-.777.419.419 0 01.314.777zm1.945.307a.42.42 0 01-.544-.232.42.42 0 01.231-.545.419.419 0 11.313.777zm1.655.79a.42.42 0 01-.545-.232.42.42 0 01.232-.545.419.419 0 01.313.776z" clip-rule="evenodd"/></svg>