<svg xmlns="http://www.w3.org/2000/svg" width="512" height="512" fill="none"><path fill="#fff" d="M0 0h512v512H0z"/><path fill="#8B8B8E" fill-rule="evenodd" d="M194.205 106.536c-1.336.624-2.56 1.858-2.994 3.017-.209.557-.305 10.609-.305 31.791 0 27.954.045 31.065.464 31.902 1.093 2.183 2.638 3.179 4.987 3.212 1.87.027 3.098-.596 4.414-2.24l.891-1.113.083-31.026c.046-17.063.007-31.451-.086-31.972-.353-1.985-3.093-4.107-5.303-4.107-.552 0-1.52.241-2.151.536zm122.048-.087c-1.192.521-2.476 1.697-3.037 2.781-.59 1.14-.606 62.591-.017 64.015.53 1.279 2.226 2.718 3.669 3.11 2.391.65 5.264-.728 6.295-3.018.512-1.14.536-2.529.536-32.027 0-29.297-.026-30.893-.527-32.005-1.211-2.691-4.34-3.983-6.919-2.856zm-152.268 20.968c-1.299.555-2.354 1.501-2.917 2.614-.543 1.076-.567 1.752-.567 16.201 0 14.557.02 15.119.58 16.225.319.631 1.116 1.505 1.772 1.943 1 .668 1.499.797 3.098.797 2.18 0 3.416-.647 4.616-2.414l.691-1.018V130.7l-.691-1.018c-1.088-1.603-2.417-2.368-4.284-2.467-.892-.048-1.927.043-2.298.202zm60.624.171c-1.349.744-2.182 1.61-2.756 2.865-.492 1.077-.53 2.181-.536 15.716-.007 15.682-.001 15.748 1.513 17.387 2.543 2.751 7.114 2.142 8.873-1.183l.651-1.23v-29.822l-.651-1.23c-.915-1.728-2.574-2.766-4.61-2.884-1.111-.064-1.895.056-2.484.381zm60.776.089c-1.387.636-2.51 2.024-2.948 3.644-.432 1.595-.432 28.227 0 29.822 1.379 5.099 8.133 5.667 10.327.869.493-1.078.53-2.176.53-15.78s-.037-14.702-.53-15.779c-1.314-2.876-4.525-4.084-7.379-2.776zm61.315-.244c-1.269.513-2.349 1.475-2.917 2.598-.543 1.076-.567 1.752-.567 16.201 0 14.557.02 15.119.58 16.225.318.631 1.115 1.505 1.771 1.943 1.001.668 1.499.797 3.099.797 2.382 0 3.917-.895 4.842-2.823.596-1.243.608-1.574.608-16.321v-15.052l-.828-1.318c-1.337-2.128-4.347-3.156-6.588-2.25zm-212.934 15.321c-1.28.39-2.496 1.427-3.174 2.706-.596 1.127-.645 1.637-.731 7.704-.059 4.228.023 6.959.237 7.817 1.333 5.353 8.351 5.902 10.455.819.359-.868.442-2.387.437-7.958-.005-6.075-.068-7.022-.536-8.044-1.193-2.609-3.967-3.872-6.688-3.044zm121.248.244c-1.396.672-2.266 1.59-2.855 3.012-.649 1.568-.649 14.221 0 15.79.592 1.431 1.466 2.347 2.855 2.994 3.184 1.483 6.723-.293 7.6-3.813.214-.858.296-3.589.237-7.817-.087-6.105-.132-6.572-.744-7.728-1.317-2.489-4.625-3.627-7.093-2.438zm121.905.019c-1.335.624-2.559 1.858-2.993 3.017-.186.495-.305 3.611-.305 7.943 0 8.166.156 8.855 2.352 10.391 1.013.709 1.46.829 3.094.829 2.386 0 3.92-.894 4.845-2.823.57-1.188.609-1.725.609-8.397 0-4.332-.12-7.448-.306-7.943-.696-1.86-3.147-3.553-5.144-3.553-.553 0-1.521.241-2.152.536zM173.382 195.45c-8.145 1.015-14.745 5.512-18.063 12.308-1.759 3.602-2.341 6.264-2.341 10.713 0 4.369.58 7.093 2.233 10.496 2.754 5.67 8.305 10.08 14.899 11.839 3.08.821 10.267.743 13.84-.15l2.654-.664v-5.942c0-5.545-.034-5.928-.502-5.736-3.828 1.572-4.463 1.7-8.534 1.719-3.934.019-4.055 0-5.938-.9-2.445-1.17-4.327-3.069-5.485-5.537-.859-1.831-.911-2.13-.911-5.276 0-3.177.045-3.427.93-5.242 3.273-6.712 11.052-8.418 20.081-4.404.28.124.359-1.139.359-5.79 0-3.272-.105-6.015-.233-6.095-.128-.08-1.516-.403-3.084-.718-3.456-.694-7.356-.938-9.905-.621zm68.025.012c-6.069.845-10.556 3.953-12.386 8.577-.57 1.439-.671 2.212-.676 5.173-.007 3.337.031 3.557.91 5.356 1.81 3.7 4.764 5.835 11.054 7.989 3.492 1.196 4.245 1.566 5.336 2.622 1.227 1.187 1.266 1.277 1.118 2.607-.184 1.644-1.227 2.753-3.14 3.337-2.044.626-9.007.456-12.26-.298-1.491-.345-2.814-.628-2.94-.628-.125 0-.228 2.266-.228 5.035 0 4.983.007 5.037.645 5.192 4.382 1.062 14.492 1.281 17.856.385 7.926-2.11 12.356-7.769 11.819-15.1-.297-4.056-2.185-7.225-5.731-9.619-1.609-1.086-3.129-1.762-6.367-2.833-3.505-1.16-4.448-1.594-5.358-2.467-.919-.883-1.104-1.253-1.104-2.209 0-1.279.59-2.1 2.088-2.907 1.851-.997 8.437-.8 12.756.382l.645.177v-9.574l-1.389-.301c-4.244-.919-9.708-1.306-12.648-.896zm48.458 0c-9.475 1.131-16.752 7.163-19.55 16.205-.584 1.885-.672 2.763-.672 6.659 0 5.255.343 6.891 2.277 10.868 2.653 5.455 7.479 9.398 13.841 11.309 4.368 1.312 11.261 1.235 16.222-.182l1.076-.307v-5.953c0-5.562-.033-5.938-.502-5.73-3.245 1.443-4.528 1.704-8.39 1.71-4.666.008-6.266-.5-8.725-2.769-1.856-1.712-2.875-3.375-3.462-5.651-1.807-7.001 2.154-13.426 9.175-14.882 3.004-.623 8.253.151 11.121 1.641l.795.412-.078-6.005-.077-6.006-1.979-.513c-1.954-.507-6.976-1.141-8.45-1.067-.417.021-1.597.139-2.622.261zm46.324-.12c-6.941.969-11.186 3.047-15.278 7.477-2.416 2.615-4.308 6.164-5.258 9.861-.832 3.236-.828 8.373.008 11.581 1.724 6.61 5.938 11.829 11.923 14.766 3.362 1.651 5.321 2.153 9.235 2.369 11.394.628 20.556-5.608 23.899-16.266.966-3.083 1.117-8.718.322-12.076-2.059-8.694-8.315-15.034-16.792-17.019-2.367-.554-6.506-.91-8.059-.693zm-134.383 22.984v22.294h11.186v-44.588h-11.186v22.294zm141.209-10.636c4.53 2.105 7.033 6.383 6.738 11.52-.25 4.368-2.733 8.003-6.772 9.917-1.733.821-2.177.907-4.641.9-2.145-.006-3.078-.149-4.384-.668-2.318-.921-4.812-3.316-6.009-5.769-.886-1.818-.937-2.095-.937-5.113 0-2.967.062-3.323.886-5.073 1.512-3.209 3.558-5.084 6.689-6.127 2.406-.801 6.219-.615 8.43.413z" clip-rule="evenodd"/><path fill="#74B055" fill-rule="evenodd" d="M72.872 356.652v47.924h7.169l.073-42.79.072-42.79 14.463 36.058a63796.348 63796.348 0 0017.173 42.79l2.71 6.732h7.911l1.256-3.257c.69-1.792 7.962-20.867 16.16-42.39l14.905-39.133.072 42.39.073 42.39h7.169v-95.848l-5.328.079-5.329.079-16.372 43.65c-9.005 24.008-16.419 43.603-16.476 43.545-.058-.058-7.899-19.7-17.426-43.65l-17.32-43.545-5.478-.079-5.477-.079v47.924zm295.728.006v47.918h7.171V386.48c0-9.952.071-18.095.158-18.095.087 0 8.422 8.143 18.523 18.095l18.365 18.096h4.854c2.67 0 4.854-.048 4.854-.106 0-.059-8.843-8.817-19.651-19.462-10.808-10.646-19.617-19.449-19.576-19.561.041-.113 7.625-6.676 16.854-14.583 9.229-7.908 17.034-14.627 17.346-14.932.558-.547.498-.554-4.325-.554h-4.891l-16.184 13.907-16.183 13.906-.074-27.225-.073-27.225H368.6v47.917zm62.817-42.995v4.922h8.605v-9.844h-8.605v4.922zM202.75 333.766c-9.466 1.691-16.953 7.312-21.234 15.944-4.647 9.369-5.552 23.809-2.167 34.599 1.026 3.268 2.963 7.293 4.67 9.699 1.444 2.037 5.15 5.716 7.122 7.069 2.257 1.549 6.58 3.476 9.581 4.271 3.447.912 10.88 1.258 14.751.687 10.409-1.537 18.241-7.801 22.006-17.601.291-.756.614-1.733.719-2.171l.189-.796h-7.664l-.357 1.23c-.496 1.707-2.119 4.586-3.484 6.177-2.989 3.487-6.707 5.721-11.299 6.793-2.369.552-3.286.619-6.684.487-2.813-.109-4.554-.331-6.09-.779-8.972-2.611-15.031-9.552-17.234-19.738-.553-2.56-1.118-7.687-.874-7.934.073-.073 12.457-.134 27.52-.134h27.387l-.203-3.691c-.752-13.69-5.452-24.012-13.469-29.579-2.199-1.527-5.896-3.167-8.929-3.961-3.56-.931-10.651-1.216-14.257-.572zm75.067-.004c-6.159 1.424-10.556 5.232-13.607 11.782-1.333 2.864-1.29 2.951-1.734-3.507-.169-2.468-.381-4.976-.469-5.573l-.16-1.086h-5.687v69.198h7.171l.006-20.774c.003-12.198.123-21.611.291-22.801 1.472-10.452 7.095-18.314 14.487-20.258 2.756-.724 7.505-.468 10.785.583.5.16.533-.052.533-3.444v-3.614l-1.505-.351c-2.293-.535-8.085-.624-10.111-.155zm40.988-.008c-6.46 1.066-11.778 3.719-15.362 7.664-2.67 2.938-4.467 6.698-4.966 10.391l-.206 1.52h7.397l.348-1.697c1.123-5.489 5.711-9.946 12.015-11.671 3.214-.88 9.894-.889 13.035-.019 4.08 1.132 7.062 3.036 9.156 5.848 2.209 2.968 2.816 5.143 3.046 10.925l.176 4.398-.688.161c-.379.088-5.787 1.013-12.018 2.055-14.855 2.484-18.509 3.399-23.377 5.849-7.233 3.642-10.541 8.56-10.958 16.294-.205 3.799.383 7.044 1.837 10.129 1.456 3.091 4.762 6.364 8.117 8.037 4.255 2.122 6.149 2.495 12.764 2.514 5.119.015 5.999-.055 8.175-.649 6.367-1.738 12.315-6.044 15.506-11.226l.7-1.137.335 3.619a5202 5202 0 01.526 5.718l.192 2.099h5.705l-.08-26.854-.081-26.854-.674-2.027c-1.243-3.742-2.551-5.897-5.189-8.549-2.001-2.012-2.959-2.722-5.18-3.844-4.164-2.102-7.435-2.839-13.194-2.97-3.069-.07-5.55.027-7.057.276zm113.186 36.223v34.599h7.171v-69.198h-7.171v34.599zm-217.135-29.959c9.182 2.576 14.933 9.866 16.785 21.273.232 1.433.423 2.964.424 3.402l.001.796h-47.394l.193-1.665c.313-2.694 1.523-7.466 2.485-9.799 2.587-6.275 7.716-11.458 13.31-13.452 4.347-1.55 9.879-1.766 14.196-.555zm128.44 33.168c.125 9.254-.44 12.398-2.965 16.509-1.56 2.539-4.854 5.743-7.524 7.317-1.106.652-3.219 1.601-4.693 2.109-2.309.794-3.188.94-6.306 1.05-8.322.295-14.095-2.436-16.791-7.943-.904-1.846-1.052-2.452-1.174-4.813-.077-1.487.003-3.375.179-4.2 1.216-5.725 5.944-9.449 14.956-11.781 2.923-.757 23.374-4.483 23.95-4.364.177.037.318 2.377.368 6.116z" clip-rule="evenodd"/></svg>