<svg xmlns="http://www.w3.org/2000/svg" width="28" height="5" fill="none"><g fill="#FC0000" clip-path="url(#a)"><path d="M4.51 2.42v-.05L4.08 2h-.05c-.12.13-.3.23-.5.23-.31 0-.56-.24-.56-.57 0-.33.25-.57.56-.57.2 0 .39.1.5.23h.05l.43-.37V.9C4.28.63 3.94.45 3.54.45c-.73 0-1.28.52-1.28 1.21v.08c.3.2.56.37.79.52.33.21.59.4.81.57.27-.07.49-.21.65-.4m-1.99-.01c.17.21.41.36.7.42-.19-.11-.38-.22-.55-.33-.05-.03-.09-.06-.15-.09zm4.45.3l-.11-.46-.04-.02s-.04.02-.09.02c-.08 0-.13-.08-.17-.16a.548.548 0 00-.18-.19c.26-.11.43-.33.43-.64 0-.48-.32-.78-.94-.78H4.81v2.34h.7v-.82h.07c.16 0 .36.34.45.49.19.31.34.37.62.37.13 0 .23-.05.3-.1l.03-.05h-.01zM6.1 1.31c0 .16-.11.23-.24.23h-.32v-.47h.32c.13 0 .24.08.24.24zm3.59.35C9.69.96 9.14.45 8.4.45S7.11.97 7.11 1.66s.55 1.21 1.29 1.21c.73 0 1.29-.52 1.29-1.21zm-.72 0c0 .33-.25.57-.57.57-.32 0-.57-.23-.57-.57 0-.34.25-.57.57-.57.32 0 .57.24.57.57zM13.2.49h-.67l-.42 1.29-.44-1.29h-.42l-.44 1.29L10.4.49h-.67l-.04.05.86 2.29h.43l.48-1.28.49 1.28h.42l.86-2.29-.03-.05zm2.6 1.17c0-.7-.47-1.17-1.22-1.17H13.5v2.34h1.08c.76 0 1.22-.47 1.22-1.17zm-.71 0c0 .38-.23.59-.53.59h-.34V1.07h.34c.31 0 .53.21.53.59zm4.44-.59h.7V.49h-2.11v.58h.7v1.76h.71V1.07zm2.94.2c0-.48-.32-.78-.94-.78h-1.05v2.34h.7v-.82h.16l.44.82h.7l.03-.05-.47-.86c.25-.12.42-.33.42-.64m-.71.04c0 .16-.11.23-.24.23h-.32v-.47h.32c.13 0 .24.09.24.24zm1.15 1.51h.7V.49h-.7v2.34zm2.48-1.29l.79-1-.02-.05h-.76l-.64.83V.49h-.7v2.34h.7v-.72l.12-.15.6.87h.73l.04-.06-.86-1.23zM26.43.49v2.34h1.77v-.58h-1.07v-.32h.8v-.54h-.8v-.32h1.06V.49h-1.76zm-9.44 2.37c.51 0 .96-.25.96-.74 0-.53-.45-.66-.85-.78-.16-.05-.31-.1-.31-.22 0-.08.09-.13.23-.13.23 0 .43.15.53.23h.05l.33-.39V.78c-.17-.2-.53-.35-.92-.35-.55 0-.93.3-.93.72 0 .46.42.66.77.76.23.07.39.08.39.2 0 .09-.11.15-.28.15-.22 0-.48-.14-.61-.27h-.05l-.32.41v.05c.21.23.58.4 1.02.4M4.88 5c-.17-.39-.51-.89-1.85-1.6-.62-.34-1.67-.87-2.62-1.88.08.36.53 1.16 2.42 2.15.53.29 1.41.56 2.05 1.33z"/><path d="M4.8 4.33c-.16-.46-.45-1.05-1.84-1.93C2.29 1.96 1.3 1.4 0-.01c.09.38.5 1.37 2.58 2.66.68.47 1.56.75 2.22 1.68z"/></g><defs><clipPath id="a"><path fill="#fff" d="M0 0h28v5H0z"/></clipPath></defs></svg>