<svg xmlns="http://www.w3.org/2000/svg" xmlns:xlink="http://www.w3.org/1999/xlink" viewBox="0 0 113 36" fill="#fff" fill-rule="evenodd" stroke="#000" stroke-linecap="round" stroke-linejoin="round"><use xlink:href="#A" x=".5" y=".5"/><symbol id="A" overflow="visible"><g stroke="none" fill="#5c2d90" fill-rule="nonzero"><path d="M30.388 18.374l.858 10.954-15.194 2.726L14.74 21.1l2.171-.303c.353.151.606.202 1.01.303.656.151 1.413.353 2.524-.252.252-.151.808-.606 1.01-.909zM6.915 31.397c-.252-.404-.707-.858-1.413-1.413-1.01-.808-.656-2.221-.05-3.079.757-1.464 4.745-3.382 4.543-5.754-.101-.858-.202-1.969-1.01-2.776a2.1 2.1 0 0 0 0 .606c.029.201-.353-.404-.505-1.01-.151-.202-.303-.303-.454-.606-.101.353-.101.707-.101.707s-.252-.656-.303-1.161c-.151.252-.202.707-.202.707s-.353-1.01-.252-1.565c-.151-.454-.656-1.413-.505-3.533.858.606 2.776.454 3.533-.656.252-.353.404-1.363-.101-3.332-.353-1.262-1.211-3.13-1.565-3.836l-.05.05a32.84 32.84 0 0 1 .707 2.372c.404 1.767.555 2.372.353 3.18-.151.707-.555 1.161-1.615 1.666-1.01.505-2.423-.757-2.473-.808-1.01-.808-1.767-2.12-1.868-2.726-.101-.707.404-1.111.656-1.666-.353.101-.757.303-.757.303s.454-.505 1.06-.909c.252-.151.404-.252.656-.454h-.656s.606-.353 1.262-.555h-.909l2.423-1.06c.757-.303 1.464-.202 1.868.353.555.757 1.111 1.161 2.272 1.464.707-.303.959-.505 1.868-.757.808-.909 1.464-1.01 1.464-1.01s-.454.404-.505.858c.454-.353.959-.656.959-.656s-.202.252-.353.606l.05.05c.555-.303 1.161-.555 1.161-.555s-.202.202-.404.505l1.514.05c1.868.05 2.272-1.969 2.978-2.272.909-.303 1.312-.505 2.827 1.01 1.312 1.312 2.322 3.584 1.817 4.089-.404.404-1.262-.151-2.221-1.312-.505-.606-.858-1.363-1.06-2.272-.101-.757-.656-1.211-.656-1.211s.353.757.353 1.413c0 .353.05 1.666.606 2.423-.05.101-.101.555-.151.606-.656-.808-2.12-1.363-2.322-1.565.808.656 2.625 2.12 3.332 3.533.656 1.363.252 2.574.606 2.877.101.101 1.413 1.716 1.666 2.574.454 1.464.05 2.978-.555 3.887l-1.615.252c-.252-.05-.404-.101-.606-.202.101-.202.353-.707.353-.808l-.101-.151c-.505.707-1.363 1.413-2.07 1.817-.909.505-1.969.454-2.675.202-1.969-.606-3.836-1.918-4.24-2.272 0 0 0 .252.05.353.505.555 1.615 1.565 2.726 2.272l-2.322.252 1.111 8.581c-.505.05-.555.101-1.111.202-.454-1.666-1.363-2.726-2.372-3.382-.858-.555-2.07-.707-3.231-.454l-.05.101c.808-.101 1.767.05 2.726.656s1.716 2.171 2.019 3.079c.353 1.211.606 2.473-.353 3.836-.707.959-2.726 1.514-4.341.353.454.707 1.01 1.262 1.817 1.363 1.161.151 2.272-.05 3.079-.808.656-.656 1.01-2.07.909-3.584l1.06-.151.353 2.675 17.213-2.07-1.514-13.73-.858.151L28.672 0 0 3.332l3.533 28.571zM20.547 16.38c.757.555 1.413.9 2.07.858.404-.05.808-.707 1.06-1.312.202-.404.202-.858-.1-1-.15-.05-.757-.05-1.2 0-.858.1-1.716.404-1.918.555-.303.202-.15.707.1.9m.2-5.916v.05l.05.1c.202.404.404.808.808 1 .1 0 .202-.05.303-.05a2.09 2.09 0 0 1 .707.101v-.303c-.05-.505.1-1.413-.9-1.918-.404-.202-.9-.1-1.1.1h.1c.252.1.1.202.05.303-.05.202-.1.252 0 .606"/><path d="M16.215 10.575c.252-.202-1.16-.505-2.272.202-.808.555-.808 1.716-.05 2.372.1.05.15.1.202.15.202-.1.505-.202.757-.303.505-.15.9-.252 1.262-.303.15-.202.353-.505.303-1.06-.05-.757-.656-.606-.202-1.06M27.321 24.76l-2.877-1.918-2.423 4.038-2.827-.858-2.473 3.786.1 1.2 13.528-2.473-.808-8.43zm67.989-3.458c-2.31 0-3.553-1.332-3.553-3.909s1.155-3.909 3.553-3.909c2.31 0 3.464 1.332 3.464 3.909s-1.155 3.909-3.464 3.909m0-9.594c-3.731 0-5.685 1.865-5.685 5.685.178 3.82 2.132 5.685 5.685 5.685 3.731 0 5.596-1.865 5.596-5.685.089-3.82-1.777-5.685-5.596-5.685m13.314 1.777c1.155 0 2.221.178 3.198.622v-1.865c-.977-.355-2.043-.533-3.287-.533-4.086 0-6.129 1.865-6.129 5.596 0 3.909 2.043 5.863 6.041 5.863 1.421 0 2.487-.178 3.464-.622v-5.952h-3.464l-.711 1.865h2.043v2.665c-.444.089-.888.178-1.332.178-2.576 0-3.909-1.332-3.909-4.086 0-2.487 1.421-3.731 4.086-3.731m-26.001 7.687h-2.488v-7.64h2.487c2.3 0 3.553 1.155 3.553 3.553-.1 2.754-1.244 4.086-3.553 4.086m.266-9.416h-4.886v11.283h4.886c3.553 0 5.33-1.954 5.33-5.952 0-3.553-1.777-5.33-5.33-5.33m-42.283 9.43h-2.487v-7.64h2.487c2.398 0 3.553 1.155 3.553 3.553 0 2.754-1.244 4.086-3.553 4.086m.267-9.416h-4.886v11.282h4.886c3.553 0 5.33-1.954 5.33-5.952 0-3.553-1.777-5.33-5.33-5.33m32.068 8.169l1.42 3.1h2.22l-4.883-11.282h-2.3L64.59 23.038h2.132l3.82-9.15 1.777 4.264h-2.3l-.7 1.777zm-18.388 0l1.42 3.1h2.3l-4.965-11.282h-2.22L46.29 23.038h2.132l3.73-9.15 1.865 4.264h-2.398l-.7 1.777zm2.487-6.396h3.287v9.496h2.132v-9.505h3.197v-1.777h-8.617z"/></g></symbol></svg>