<svg xmlns="http://www.w3.org/2000/svg" width="39" height="39" fill="none" viewBox="0 0 39 39"><path fill="#1496FF" fill-rule="evenodd" d="M13.004 3.434c-.571 2.714-1.143 6.571-1.428 10.429-.572 6.857-.286 11.571-.286 11.571L1.433 34.72s-.714-5.143-1.143-11c-.286-3.572-.286-6.857-.286-8.714v-.286c0-.143.143-1.429 1.429-2.572C2.862 10.72 13.147 2.72 13.004 3.434z" clip-rule="evenodd"/><path fill="#1284EA" fill-rule="evenodd" d="M13.004 3.434c-.571 2.714-1.143 6.572-1.428 10.429 0 0-11-1.286-11.572 1.285 0-.143.143-1.714 1.429-3 1.429-1.143 11.714-9.428 11.571-8.714z" clip-rule="evenodd"/><path fill="#B4DC00" fill-rule="evenodd" d="M.005 14.577v.572c.143-.429.285-.857.714-1.286.714-1 2.143-1.286 2.571-1.286 2.715-.428 6.715-.857 10.715-1 7-.285 11.714.286 11.714.286l9.857-9.286s-5.143-1-11.143-1.714A279.642 279.642 0 0015.29.006c-.142 0-1.571-.143-2.714 1-1.428 1.571-8.571 8.286-11.428 10.857C-.138 13.15.005 14.435.005 14.577z" clip-rule="evenodd"/><path fill="#6F2DA8" fill-rule="evenodd" d="M35.147 26.434c-2.714.286-6.571.857-10.571 1-7 .286-11.715-.286-11.715-.286l-9.857 9.286s5.286 1 11.143 1.715c3.572.428 6.857.57 8.714.714.143 0 .43-.143.572-.143.143 0 1.571-.286 2.714-1.429 1.429-1.428 9.857-11 9-10.857z" clip-rule="evenodd"/><path fill="#591F91" fill-rule="evenodd" d="M35.147 26.434c-2.715.286-6.572.857-10.572 1 0 0 .715 10.857-1.857 11.286.143 0 2-.143 3.286-1.286 1.286-1.428 10-11.143 9.143-11z" clip-rule="evenodd"/><path fill="#73BE28" fill-rule="evenodd" d="M23.29 38.72h-.571c.571-.143.857-.285 1.428-.57 1-.715 1.429-2.002 1.572-2.572.428-2.573 1.143-6.429 1.428-10.43.572-6.857.286-11.572.286-11.572l9.572-9.285s.714 5.143 1.142 11.001c.286 3.856.286 7.143.429 8.999 0 .143.143 1.428-1.143 2.715-1.428 1.285-8.428 8-11.286 10.57-1.428 1.288-2.714 1.143-2.857 1.143z" clip-rule="evenodd"/></svg>