<svg xmlns="http://www.w3.org/2000/svg" fill="none" viewBox="0 0 42 42"><path fill="#1F9999" d="M20.946 41.892C9.384 41.892 0 32.508 0 20.946 0 9.384 9.384 0 20.946 0h15.71a5.238 5.238 0 0 1 5.236 5.236v15.71c0 4.64-1.51 8.928-4.067 12.4-3.814 5.182-9.956 8.546-16.88 8.546z"/><path fill="#fff" d="M20.873 31.746c6.005 0 10.873-4.868 10.873-10.873C31.746 14.868 26.878 10 20.873 10 14.868 10 10 14.868 10 20.873c0 6.005 4.868 10.873 10.873 10.873z"/><path stroke="#1F9999" stroke-linecap="round" stroke-linejoin="round" stroke-width="2" d="M6.778 21.285h9.306l3.378 4.354 3.144-8.755 3.523 4.4H36.15"/></svg>