<svg xmlns="http://www.w3.org/2000/svg" width="60" height="60" fill="none" viewBox="0 0 60 60"><path fill="#fff" d="M0 0h60v60H0z"/><path fill="#EA4335" d="M7.705 28.342h.322l.918-.919.045-.39a4.128 4.128 0 00-6.716 2.015.498.498 0 01.322-.02l1.837-.303s.093-.154.142-.145a2.291 2.291 0 013.136-.238h-.006z"/><path fill="#4285F4" d="M10.254 29.048a4.134 4.134 0 00-1.247-2.011l-1.289 1.289c.545.444.855 1.115.841 1.818v.229a1.147 1.147 0 010 2.294H6.265l-.23.233v1.376l.23.229h2.294a2.984 2.984 0 001.695-5.457z"/><path fill="#34A853" d="M3.967 34.49H6.26v-1.837H3.967c-.164 0-.325-.035-.474-.103l-.322.1-.925.919-.08.322a2.962 2.962 0 001.8.6z"/><path fill="#FBBC05" d="M3.966 28.532a2.984 2.984 0 00-1.8 5.35l1.33-1.331a1.148 1.148 0 111.518-1.518l1.33-1.33a2.977 2.977 0 00-2.378-1.171z"/><path fill="#000" d="M17.676 33.208a2.934 2.934 0 01-2.127-.874 2.833 2.833 0 01-.893-2.1 2.84 2.84 0 01.893-2.102 2.934 2.934 0 012.127-.89 2.849 2.849 0 012.04.822l-.574.584a2.067 2.067 0 00-1.466-.58 2.044 2.044 0 00-1.515.644 2.107 2.107 0 00-.622 1.53c-.005.568.22 1.112.622 1.512.83.827 2.167.843 3.016.035.254-.276.408-.629.442-1.002h-1.934v-.824h2.736c.027.166.038.334.033.503a2.58 2.58 0 01-.706 1.901 2.744 2.744 0 01-2.072.84zm6.361-.548a1.973 1.973 0 01-2.73 0 1.837 1.837 0 01-.557-1.37 1.84 1.84 0 01.557-1.369 1.976 1.976 0 012.73 0c.37.358.572.855.558 1.37a1.837 1.837 0 01-.56 1.369h.002zm-2.127-.538a1.044 1.044 0 001.476.048l.048-.048c.215-.223.331-.522.322-.832a1.15 1.15 0 00-.322-.834 1.06 1.06 0 00-1.531 0 1.151 1.151 0 00-.322.834c-.008.31.109.61.325.832h.004zm6.323.538a1.973 1.973 0 01-2.73 0 1.836 1.836 0 01-.558-1.37 1.84 1.84 0 01.558-1.369 1.973 1.973 0 012.73 0c.369.358.571.855.557 1.37a1.834 1.834 0 01-.557 1.369zm-2.127-.538a1.044 1.044 0 001.476.048l.048-.048c.215-.223.331-.522.323-.832a1.15 1.15 0 00-.323-.834 1.06 1.06 0 00-1.53 0 1.15 1.15 0 00-.322.834c-.009.31.109.61.325.832h.003zm4.885 2.806a1.69 1.69 0 01-1.073-.341 1.979 1.979 0 01-.625-.793l.734-.306c.08.187.205.352.364.48.17.137.384.209.603.203a.968.968 0 00.75-.29c.195-.234.29-.535.269-.838v-.277h-.03a1.23 1.23 0 01-1.008.435 1.75 1.75 0 01-1.289-.56 1.855 1.855 0 01-.551-1.351c-.01-.51.19-1 .551-1.36.332-.36.8-.565 1.289-.564.205 0 .408.045.593.132.16.07.303.174.42.306h.028v-.306h.8v3.432a2.001 2.001 0 01-.513 1.499 1.805 1.805 0 01-1.312.5zm.059-2.474a.938.938 0 00.728-.323c.198-.227.304-.522.293-.825a1.217 1.217 0 00-.293-.84.936.936 0 00-.728-.323.997.997 0 00-.755.322c-.213.225-.329.525-.322.835-.006.307.11.604.323.825a1 1 0 00.754.329zm3.187-4.995v5.633h-.841v-5.633h.84zm2.307 5.749c-.51.013-1-.187-1.356-.551a1.866 1.866 0 01-.545-1.367c-.02-.511.17-1.01.525-1.38a1.73 1.73 0 011.289-.538 1.626 1.626 0 011.137.448c.122.117.23.248.322.39.075.12.138.246.19.377l.087.22-2.577 1.06c.16.366.528.597.928.58a1.1 1.1 0 00.944-.531l.645.435a2.117 2.117 0 01-.62.587c-.289.182-.626.276-.969.27zm-1.076-1.976l1.714-.712a.59.59 0 00-.267-.293.874.874 0 00-.442-.113.995.995 0 00-.692.306 1.02 1.02 0 00-.313.812zM42.6 33.208a2.655 2.655 0 01-2.7-2.717 2.656 2.656 0 012.592-2.716l.107-.001a2.406 2.406 0 011.911.85l-.464.452a1.753 1.753 0 00-1.444-.661 1.971 1.971 0 00-1.434.573 2.014 2.014 0 00-.583 1.502c-.024.56.188 1.104.583 1.502.38.378.898.585 1.434.573a2.049 2.049 0 001.612-.754l.464.464c-.243.29-.548.523-.893.68a2.716 2.716 0 01-1.186.253zM45.925 33.092h-.667v-5.205h.667v5.205zM47.015 29.96a1.866 1.866 0 012.63 0c.344.364.53.85.515 1.353.015.501-.17.988-.516 1.353a1.866 1.866 0 01-2.63 0 1.886 1.886 0 01-.515-1.353c-.015-.502.17-.99.516-1.354zm.496 2.288a1.125 1.125 0 001.633 0c.236-.253.36-.59.346-.935a1.285 1.285 0 00-.346-.934 1.125 1.125 0 00-1.633 0 1.29 1.29 0 00-.346.934c-.013.345.113.68.349.931l-.003.004zM53.856 33.092h-.645v-.493h-.019c-.114.187-.277.34-.47.445-.2.116-.43.177-.661.177a1.254 1.254 0 01-1.012-.406 1.613 1.613 0 01-.345-1.09v-2.19h.667v2.068c0 .664.293.996.88.996a.819.819 0 00.677-.322c.173-.22.265-.491.261-.77v-1.973h.667v3.558zM56.121 33.208a1.566 1.566 0 01-1.192-.545 1.933 1.933 0 01-.5-1.35 1.934 1.934 0 01.5-1.35 1.568 1.568 0 011.192-.546c.254-.003.505.056.728.174.198.1.365.25.484.435h.029l-.03-.493v-1.646H58v5.205h-.644v-.493h-.03c-.119.186-.286.336-.483.435a1.51 1.51 0 01-.722.174zm.11-.61c.305.005.598-.122.802-.347.227-.258.343-.595.323-.938.02-.343-.096-.68-.323-.938a1.088 1.088 0 00-1.61 0 1.29 1.29 0 00-.323.934c-.02.342.095.678.322.934.206.23.5.36.81.356z"/></svg>