<svg xmlns="http://www.w3.org/2000/svg" width="194" height="30" fill="none" viewBox="0 0 194 30"><g fill-rule="evenodd" clip-path="url(#clip0)" clip-rule="evenodd"><path fill="#031C5B" d="M129.071 9.534c2.143 0 3.972.7 5.486 2.099 1.515 1.4 2.272 3.09 2.272 5.075 0 1.984-.757 3.676-2.272 5.075-1.514 1.4-3.343 2.1-5.486 2.1s-3.972-.7-5.486-2.1c-1.514-1.4-2.271-3.091-2.271-5.075s.757-3.676 2.271-5.075c1.514-1.4 3.343-2.1 5.486-2.1zm46.826 0c2.143 0 3.971.7 5.486 2.099 1.514 1.4 2.271 3.09 2.271 5.075 0 1.984-.757 3.676-2.271 5.075-1.515 1.4-3.343 2.1-5.486 2.1s-3.972-.7-5.486-2.1c-1.515-1.4-2.272-3.091-2.272-5.075s.757-3.676 2.272-5.075c1.514-1.4 3.343-2.1 5.486-2.1zM104.656 4.99l4.809 11.745L114.3 4.99h4.596l1.727 18.6h-4.702l-.851-10.177-4.064 9.965h-3.055l-4.065-9.965-.85 10.177h-4.703l1.727-18.6h4.596zm42.268 4.544c3.241 0 4.862 2.116 4.862 6.35v7.706h-4.57v-7.44c0-.797-.172-1.488-.517-2.073-.346-.584-.899-.876-1.661-.876-.761 0-1.319.274-1.674.823-.354.55-.531 1.258-.531 2.126v7.44h-4.569V9.826h4.569v1.807c.939-1.4 2.302-2.1 4.091-2.1zm11.101.292V23.59h-4.569V9.826h4.569zm34.885-.293c.319 0 .63.027.93.08v4.464c-.478-.123-1.053-.185-1.726-.185-.886 0-1.586.256-2.099.77-.514.514-.77 1.196-.77 2.046v6.882h-4.57V9.826h4.41v2.95c.142-.798.469-1.458.983-1.98.513-.523 1.009-.864 1.488-1.023.478-.16.93-.24 1.354-.24zm-26.953-3.122v3.402h2.108v3.44h-2.108v10.27h-4.551v-10.27h-1.941v-3.44h1.941V6.41h4.551zm-36.886 6.87c-.974 0-1.775.322-2.404.969s-.943 1.466-.943 2.458c0 .992.314 1.807.943 2.445.629.637 1.43.956 2.404.956s1.776-.319 2.404-.956c.629-.638.944-1.453.944-2.445 0-.992-.315-1.811-.944-2.458-.628-.646-1.43-.97-2.404-.97zm46.826 0c-.975 0-1.776.322-2.405.969-.629.647-.943 1.466-.943 2.458 0 .992.315 1.807.943 2.445.629.637 1.43.956 2.405.956.974 0 1.775-.319 2.404-.956.629-.638.943-1.453.943-2.445 0-.992-.315-1.811-.943-2.458-.629-.646-1.43-.97-2.404-.97zm-20.13-9.195c.832 0 1.497.217 1.993.65.495.435.743.998.743 1.689 0 .673-.257 1.226-.77 1.66-.514.434-1.169.652-1.966.651-.815 0-1.475-.217-1.979-.65a2.094 2.094 0 01-.757-1.661c0-.691.248-1.254.743-1.688.496-.434 1.16-.651 1.993-.651z"/><path fill="#0076FF" d="M70.449 9.534c.85 0 1.652.194 2.404.584a5.08 5.08 0 011.82 1.541V9.826h4.57v12.223c0 2.622-.731 4.557-2.192 5.806-1.461 1.25-3.325 1.874-5.593 1.874-2.762 0-4.976-.62-6.641-1.86l1.727-3.296c1.381.993 2.771 1.488 4.17 1.488 1.311 0 2.294-.31 2.95-.93.655-.62 1-1.762 1.036-3.427-.939 1.452-2.338 2.178-4.198 2.178-1.966 0-3.569-.69-4.808-2.072-1.24-1.382-1.86-3.091-1.86-5.129 0-2.002.611-3.693 1.833-5.075 1.222-1.382 2.816-2.072 4.782-2.072zm-15.606 0c2.143 0 3.971.7 5.486 2.099 1.514 1.4 2.271 3.09 2.271 5.075 0 1.984-.757 3.676-2.271 5.075-1.515 1.4-3.343 2.1-5.486 2.1s-3.972-.7-5.486-2.1c-1.515-1.4-2.272-3.091-2.272-5.075s.757-3.676 2.272-5.075c1.514-1.4 3.343-2.1 5.486-2.1zm40.355.027c.874 0 1.715.133 2.527.38l-.326 3.826a4.818 4.818 0 00-1.936-.394c-1.042 0-1.893.309-2.554.927-.662.617-.993 1.42-.993 2.408s.331 1.795.993 2.422c.661.627 1.512.94 2.553.94.497 0 .968-.07 1.417-.204l-.332 3.885c-.44.068-.89.104-1.35.104-2.31 0-4.198-.68-5.662-2.038-1.465-1.359-2.197-3.062-2.197-5.109s.733-3.75 2.197-5.109c1.464-1.358 3.352-2.038 5.663-2.038zM40.53 4.99v13.897h5.784v4.703H35.828V4.99h4.702zm45.087 4.836V23.59h-4.57V9.826h4.57zm-14.078 3.268c-.957 0-1.714.345-2.272 1.037-.558.69-.837 1.54-.837 2.55 0 1.028.288 1.892.863 2.591.576.7 1.342 1.05 2.298 1.05.921 0 1.679-.319 2.272-.957.593-.637.89-1.488.89-2.55 0-1.099-.297-1.994-.89-2.684-.593-.692-1.368-1.037-2.324-1.037zm-16.696.186c-.975 0-1.776.324-2.405.97-.628.647-.943 1.466-.943 2.458 0 .992.315 1.807.943 2.445.63.637 1.43.956 2.405.956.974 0 1.775-.319 2.404-.956.629-.638.943-1.453.943-2.445 0-.992-.314-1.811-.943-2.458-.629-.646-1.43-.97-2.404-.97zm28.515-9.194c.833 0 1.497.217 1.993.65.496.435.744.998.744 1.689 0 .673-.257 1.226-.77 1.66-.514.434-1.17.652-1.967.651-.815 0-1.474-.217-1.979-.65a2.092 2.092 0 01-.757-1.661c0-.691.248-1.254.744-1.688.496-.434 1.16-.651 1.992-.651z"/><path fill="#031C5B" d="M20.45 11.152l2.356 7.04h.527v.009h7.019c-.144 1.23-.362 2.317-.657 3.257-.577 1.832-1.476 3.263-2.696 4.294-1.222 1.026-2.783 1.725-4.682 2.09-1.903.367-4.16.55-6.777.55-2.791 0-5.163-.174-7.115-.524-1.955-.349-3.56-1.026-4.814-2.04-1.256-1.01-2.172-2.432-2.749-4.263-.3-.961-.52-2.085-.664-3.364h7.026v-.01h.527l2.357-7.039 4.318 12.897h1.705l4.318-12.897zM15.592.184c2.65 0 4.919.15 6.8.443 1.885.298 3.429.945 4.632 1.938 1.205.992 2.093 2.415 2.67 4.263.575 1.853.862 4.344.862 7.488 0 .309-.005.608-.011.904h-5.668l-3.58-10.692H19.6l-4.323 12.909-4.322-12.91H9.26L5.68 15.222H.01a44.748 44.748 0 01-.01-.906c0-3.037.305-5.477.916-7.33.608-1.849 1.552-3.28 2.825-4.29C5.014 1.684 6.636 1.016 8.608.683c1.97-.332 4.299-.498 6.985-.498z"/></g><defs><clipPath id="clip0"><path fill="#fff" d="M0 0h194v30H0z"/></clipPath></defs></svg>