<svg xmlns="http://www.w3.org/2000/svg" width="512" height="512" fill="none" viewBox="0 0 512 512"><path fill="#fff" d="M0 0h512v512H0z"/><path fill="#032E41" d="M352.505 107.566c-29.298-16.748-58.596-33.662-87.728-50.742-6.787-3.98-12.58-3.648-19.201.332-28.967 16.914-58.099 33.662-87.232 50.576-2.813 1.658-5.131 3.483-6.952 6.302-1.655 2.653-1.489 4.145 1.325 5.638 13.573 7.793 27.146 15.753 40.553 23.712l54.623 32.336c1.656.995 2.649 1.99 2.649 4.146v42.617c0 2.155-.828 2.819-2.814 1.658-3.145-1.824-6.456-3.648-9.601-5.472-27.973-15.919-56.113-31.839-84.086-47.924-1.159-.663-2.152-1.989-3.476-1.16-1.159.663-.662 2.155-.662 3.316 0 17.246.165 34.492 0 51.737 0 6.633 2.483 11.442 8.276 14.759 29.96 17.245 60.085 34.657 90.045 51.903 4.801 2.819 9.435 2.985 14.236.166 4.469-2.488 8.938-5.141 13.242-7.628 25.821-14.925 51.478-29.849 77.3-44.607 5.793-3.317 8.11-7.96 8.11-14.427-.165-17.08 0-34.325 0-51.405s-.165-33.994 0-51.074c.166-6.799-2.648-11.442-8.607-14.759zm-106.101 56.215c-9.932-6.467-20.36-12.271-30.457-18.241-3.145-1.824-3.145-2.156 0-4.145 12.249-7.131 24.663-14.261 36.912-21.558 1.986-1.16 3.476-.995 5.462.166 12.415 7.297 24.829 14.427 37.244 21.557.662.498 1.655.664 1.986 1.659-.166 1.16-1.159 1.16-1.821 1.658-11.256 6.467-22.842 12.437-33.601 19.401-5.959 3.98-10.263 3.151-15.725-.497zm56.775 27.527c.496 7.628-2.152 11.607-8.608 14.924-10.428 5.306-20.194 11.608-30.291 17.411-.993.498-1.986 1.99-3.145 1.327-1.324-.663-.662-2.322-.662-3.648V200.76v-21.226c0-1.99.497-3.482 2.483-4.477 12.58-6.965 24.994-14.095 37.574-21.226 3.145-1.824 2.649.83 2.649 2.488-.166 11.442-.828 23.381 0 34.989zm43.864 40.295c-27.643 15.919-55.286 32.004-82.928 47.757-10.428 5.97-6.621 5.97-17.049 0-27.477-15.753-54.789-31.838-82.432-47.591-3.641-2.156-5.131-4.477-4.965-8.789.331-11.276.165-22.718.165-33.994 0-3.648.331-3.814 3.311-2.156 29.132 16.583 58.099 33.165 87.231 49.748 3.642 2.155 7.118 1.99 10.759-.166 15.063-8.789 30.126-17.577 45.354-26.2 4.635-2.654 6.621-6.136 6.456-11.442-.166-17.08-.166-33.994 0-51.074 0-5.141-1.821-8.623-6.29-11.11-14.732-8.292-29.464-16.914-44.03-25.537-4.8-2.819-8.938-2.819-13.738 0-14.07 8.457-28.471 16.582-42.706 24.873-2.152 1.161-3.807 1.493-5.959.166-10.924-6.467-21.684-12.934-32.774-19.235-2.152-1.327-2.152-2.156 0-3.317a12783.999 12783.999 0 0064.224-37.145c6.455-3.814 13.076-7.296 19.532-11.276 3.145-1.99 5.959-1.99 9.104 0 20.028 11.774 40.057 23.382 60.251 34.989 8.938 5.141 17.877 10.447 26.98 15.422 3.145 1.658 4.138 3.814 4.138 7.296-.165 16.914 0 33.828 0 50.743 0 16.914-.165 33.828 0 50.742-.331 3.648-1.655 5.638-4.634 7.296z"/><path fill="#032E41" fill-rule="evenodd" d="M403.31 333.718c0 8.227-6.669 14.896-14.896 14.896-8.228 0-14.897-6.669-14.897-14.896s6.669-14.897 14.897-14.897c8.227 0 14.896 6.67 14.896 14.897zM58.035 408.446c6.388.426 6.388.426 7.382 6.957.568 2.839.994 5.678 1.42 8.517.284 1.562 0 2.698-1.562 3.124-9.938 2.697-19.875 4.401-29.67.284-7.95-3.408-11.216-10.08-11.216-18.456v-59.341c0-2.215 0-3.315-.543-3.952-.536-.629-1.6-.806-3.716-1.159-4.117-.567-4.117-.567-4.117-4.826 0-1.278.016-2.556.032-3.833.031-2.556.063-5.111-.032-7.666-.142-2.414.852-3.124 3.123-3.124 9.654.142 19.166.142 28.82 0 2.555 0 3.406.852 3.406 3.407v72.828c0 4.969 1.704 6.956 6.673 7.24zm174.62-53.66c3.691 0 3.833 0 3.833 3.691 0 1.03-.016 2.075-.031 3.13v.004c-.032 2.144-.064 4.332.031 6.52.284 2.839-.994 3.691-3.691 3.549-1.581-.093-3.161-.064-4.86-.034h-.002c-.895.017-1.825.034-2.804.034 6.388 12.067 1.277 24.985-10.932 29.67-5.82 2.272-12.067 3.265-18.313 3.407-3.213.095-6.362.064-9.533.032h-.002c-1.592-.016-3.19-.032-4.804-.032-1.135 0-2.413 0-2.697 1.42-.142 1.562.852 2.13 2.13 2.555 3.3 1 6.67 1.507 10.062 2.017 1.423.214 2.849.429 4.276.681 1.978.368 3.957.706 5.93 1.044 4.116.703 8.211 1.403 12.241 2.363 14.055 3.265 18.456 13.203 15.475 26.547-.994 4.827-4.259 8.234-8.518 10.648-5.395 2.981-11.357 4.259-17.462 4.826-14.764 1.562-29.528.284-44.151-1.703-2.697-.426-3.975-1.278-3.833-4.259.284-3.833.142-7.666 0-11.499-.142-2.272.568-2.982 2.839-2.84 11.925.852 23.992 1.42 36.059 1.136 1.988 0 3.975-.284 5.821-.71 1.42-.426 2.555-1.277 2.697-2.839 0-1.704-1.135-2.555-2.555-2.839-4.117-.852-8.376-1.704-12.635-2.414a478.451 478.451 0 00-4.685-.82c-3.123-.536-6.246-1.073-9.369-1.735-6.531-1.42-12.351-3.975-14.623-11.073-1.561-4.969-.71-9.654 2.981-13.487 1.278-1.419 1.704-2.129-.141-3.407-8.092-5.537-9.796-13.629-8.802-22.714 1.135-9.37 6.388-15.19 15.332-18.03 6.672-2.129 13.487-2.697 20.443-2.839 9.843-.095 19.686-.063 29.528-.032 4.922.016 9.843.032 14.765.032zm-37.763 34.213c3.691-.851 5.679-2.981 6.105-6.672a27.387 27.387 0 000-4.827c-.426-5.252-1.136-5.962-6.389-5.962h-1.703v.142c-.616 0-1.231-.032-1.846-.063-1.23-.063-2.461-.127-3.691.063-2.413.284-4.827.852-6.246 3.123-3.55 5.962 0 13.629 6.814 14.48 2.271.284 4.685.284 6.956-.284zm243.177 1.823c0-9.598 7.781-17.379 17.379-17.379 9.598 0 17.379 7.781 17.379 17.379 0 9.599-7.781 17.38-17.379 17.38-9.598 0-17.379-7.781-17.379-17.38zm17.379-40.551c-22.396 0-40.552 18.155-40.552 40.551s18.156 40.552 40.552 40.552S496 413.218 496 390.822s-18.156-40.551-40.552-40.551zm-347.587 23.172c-9.599 0-17.38 7.781-17.38 17.379 0 9.599 7.781 17.38 17.38 17.38 9.598 0 17.379-7.781 17.379-17.38 0-9.598-7.781-17.379-17.379-17.379zm-40.552 17.379c0-22.396 18.156-40.551 40.552-40.551s40.551 18.155 40.551 40.551-18.155 40.552-40.551 40.552c-22.397 0-40.552-18.156-40.552-40.552zm279.725 38.895c8.227 0 14.897-6.67 14.897-14.897s-6.67-14.897-14.897-14.897-14.896 6.67-14.896 14.897 6.669 14.897 14.896 14.897zm32.276-51.308h-8.276v-23.172h33.931v72H379.31v-48.828zm-129.929-23.173h64.551v18.207h-.003l-38.892 36.41h20.687v-9.931h18.207v9.931h.001v18.207h-69.517v-18.207h.001l38.893-36.41h-33.928v-18.207z" clip-rule="evenodd"/></svg>