<svg xmlns="http://www.w3.org/2000/svg" width="120" height="60" viewBox="-1.4 -1.4 120 60"><path d="M4.926 39.897a2.89 2.89 0 013.029-1.367c2.76.3 5.547.284 8.304-.05.906-.12 1.823-.126 2.73-.02l4.244.35c.437.03.872.092 1.3.183a.92.92 0 01.769.721.9.9 0 01-.512 1.014 2.672 2.672 0 01-1.23.353L19 40.865a33.95 33.95 0 00-3.945.112c-1.815.18-3.644.192-5.46.034-1.007-.088-2.027-.032-3.04-.05a1.771 1.771 0 01-1.63-.66zm20.336-18.014l.15 3.452c.025.744.001 1.5-.07 2.23a16.52 16.52 0 000 4.658c.095.67.074 1.35-.06 2.013a1.73 1.73 0 01-1.908 1.606 18.414 18.414 0 01-3.304-.482 3.39 3.39 0 01-1.894-1.473 21.11 21.11 0 01-1.23-1.984 16.133 16.133 0 00-2.353-3.304c-.54-.65-1.027-1.34-1.462-2.062a4.25 4.25 0 00-.321-.517.69.69 0 00-1.214.23c-.087.26-.13.53-.127.803l-.1 4.67a2.28 2.28 0 01-.175.787 2.16 2.16 0 00-.047 1.947.78.78 0 01-.562 1.124 4.64 4.64 0 01-3.564-.1 1.605 1.605 0 01-1-1.513l-.12-3.354a2.186 2.186 0 01.713-1.854c.224-.207.415-.447.567-.712.345-.5.323-1.15-.053-1.616a6.35 6.35 0 01-1.235-4.692l.075-3.346.008-.813a1.01 1.01 0 011.295-1.14 7.01 7.01 0 002.48-.463 1.5 1.5 0 012.059.916c.128.276.226.565.34.848a1.7 1.7 0 001.026 1.062 2.43 2.43 0 011.209 1.041l3.188 4.594a7.97 7.97 0 001.124 1.309c.455.413.832.284.906-.342.142-.97.187-1.953.135-2.933a32.83 32.83 0 01.051-4.562 1.523 1.523 0 011.915-1.746l1.124.064a2.17 2.17 0 012.262 1.801 5.89 5.89 0 01.202 1.301l.01 2.543zm24.284 5.493c-.074-1.08.024-2.164.29-3.212a4.24 4.24 0 013.744-2.98 6.11 6.11 0 014.565.949c.14.098.284.186.434.265a.93.93 0 001.354-.209 3.79 3.79 0 014.062-.368c.86.62 1.176 1.754.763 2.73a7.39 7.39 0 00-.342 4.57l.32 3.132.267 3.432a4.852 4.852 0 01-1.076 3.196 7.962 7.962 0 01-2.44 2.088c-.5.372-1.16.452-1.735.212a5.17 5.17 0 00-3.855-.055 5.753 5.753 0 01-3.212.188 4.42 4.42 0 01-3.212-2.56 1.36 1.36 0 01.072-1.695 1.445 1.445 0 011.698-.24l.467.198.455.226c1.42.525 2.902.85 4.337 1.317a2.41 2.41 0 002.978-2.064 6.76 6.76 0 00.058-1.907.69.69 0 00-1.005-.657 7.004 7.004 0 00-1.47.66c-.85.515-1.853.7-2.833.55a3.854 3.854 0 01-3.074-2.53 6.35 6.35 0 00-1.246-2.181 1.94 1.94 0 01-.347-1.124c-.053-.642-.014-1.3-.014-1.934zm10.164 1.026a14.07 14.07 0 00-.41-1.862 2.74 2.74 0 00-2.589-1.927 2.86 2.86 0 00-2.409 2.157 1.01 1.01 0 00-.077.292c-.012.84.024 1.678.106 2.514.08.946.767 1.728 1.695 1.927 1 .29 2.08-.008 2.792-.768a3.72 3.72 0 00.895-2.334zm-30.17 3.542v-.813c-.068-.794.238-1.575.828-2.1s1.397-.765 2.18-.62a3.62 3.62 0 01.503.071 2.37 2.37 0 002.021-.426 5.05 5.05 0 012.835-.975c.47-.03.937-.1 1.39-.238a1.68 1.68 0 001.232-2.04c-.013-.294-.147-.57-.37-.76s-.515-.283-.807-.252a6.61 6.61 0 00-4.681 1.606 1.06 1.06 0 01-.699.337 13.845 13.845 0 01-2.9-.29 1.3 1.3 0 01-.426-2.454 7.25 7.25 0 015.485-1.664 9.72 9.72 0 003.235-.055 5.083 5.083 0 015.56 3.966c.05.47.004.944-.137 1.394a4.12 4.12 0 00.16 2.963 2.65 2.65 0 01.072 1.478 5.87 5.87 0 00.018 2.409 1.417 1.417 0 01-1.524 1.928c-.54.01-1.084-.01-1.624.024a1.933 1.933 0 01-1.67-.54.893.893 0 00-1.285-.08 1.8 1.8 0 01-.598.374l-4.883.85a4.67 4.67 0 01-2.064-.419 2.66 2.66 0 01-1.852-2.743l.006-.92zm6.897 1.296a1.7 1.7 0 00.503-.043l3.62-1.54a.82.82 0 00.093-1.385 2.347 2.347 0 00-2.59-.91c-.364.07-.735.1-1.105.084a8.38 8.38 0 00-1.307.13 1.71 1.71 0 00-1.238 2.048 1.534 1.534 0 001.418 1.568c.2.034.405.035.607.048zm58.37-4.88a10.54 10.54 0 01-1.102 4.208 5.246 5.246 0 01-1.91 1.927c-.504.36-1.15.463-1.74.275a1.69 1.69 0 00-1.858.455 1.93 1.93 0 01-1.948.482 13.823 13.823 0 00-2.723-.247 2.92 2.92 0 01-1.858-.68l-2.136-1.545a1.696 1.696 0 01-.758-1.362 9.01 9.01 0 00-.689-3.052 4.054 4.054 0 01.667-3.746c.13-.197.33-.34.557-.403a2.95 2.95 0 001.892-1.587 2.264 2.264 0 012.75-1.343c.198.05.404.06.606.024a15.525 15.525 0 014.422.026 5.443 5.443 0 014.926 3.184c.54 1.05.85 2.204.903 3.384zm-5.577.55a5.08 5.08 0 00-.642-3.033 2.57 2.57 0 00-4.207-.57 5.516 5.516 0 00-.435 6.145 3.11 3.11 0 003.201 1.014 2.86 2.86 0 002.021-2.541l.063-1.017zm15.497-7.914l3.42.398a6.55 6.55 0 011.937.845 2.27 2.27 0 01.787.899.962.962 0 01-.7 1.53 4.437 4.437 0 01-4.003-.292 4.57 4.57 0 00-1.426-.508 2.04 2.04 0 00-1.731.39.978.978 0 00-.013 1.698 1.17 1.17 0 00.437.252c1.18.422 2.41.685 3.657.782a3.43 3.43 0 012.112.588 18.05 18.05 0 001.606.858 2.437 2.437 0 011.462 2.366c-.08 2.29-.964 3.757-3.222 4.144a6.31 6.31 0 00-2.419.7 1.87 1.87 0 01-.785.173l-2.226.19a12.16 12.16 0 01-4.925-1.38 3.062 3.062 0 01-.458-.4 1.26 1.26 0 01.623-2.295 9.767 9.767 0 012.817-.207c.488.132.927.4 1.267.774a3.3 3.3 0 002.731.829 3.39 3.39 0 001.246-.398c.4-.2.658-.627.63-1.082s-.33-.847-.76-.994c-.182-.088-.385-.127-.572-.206a16.97 16.97 0 01-1.846-.82 4.32 4.32 0 00-2.718-.612 3.374 3.374 0 01-3.775-2.25 3.855 3.855 0 011.295-4.366 6.267 6.267 0 014.123-1.473c.48.012.962-.035 1.43-.14zm-30.663 6.118c-.033.432-.025.867.026 1.298l.39 5.254a1.95 1.95 0 01-2.249 2.144 3.135 3.135 0 01-2.823-4.642 4.66 4.66 0 00.249-2.971l-.63-4.306a3.053 3.053 0 01.092-1.105 1.556 1.556 0 011.58-1.317 11.46 11.46 0 011.927.037 1.734 1.734 0 011.71 1.887v1.22c.045.014-.17 1.674-.27 2.502zm-2.25-11.348h.304a1.767 1.767 0 011.57 2.869c-.194.37-.577.6-.994.6a12.66 12.66 0 01-2.017-.087c-.398-.01-.773-.188-1.032-.5s-.378-.7-.327-1.095a1.824 1.824 0 011.585-1.815c.302-.027.607 0 .91 0v.027z"/></svg>