<svg xmlns="http://www.w3.org/2000/svg" width="967" height="179" fill="none" viewBox="0 0 967 179"><path fill="#1B1A19" d="M37.348 52.176L26.4 29.156c-2.681-5.365-5.362-11.623-6.256-14.528l-.224.223c.447 4.023.447 9.164.447 13.634l.224 23.69h-8.044V3.454h9.16L33.55 27.367c2.234 4.47 4.469 10.281 4.916 12.516l.223-.223c-.223-2.459-.67-9.387-.67-13.857l-.224-22.35h7.597v48.723h-8.044zm29.941-30.62c-4.469 0-6.703 3.353-6.703 9.164h13.183c0-5.811-2.681-9.164-6.48-9.164zm-6.927 14.975v.67c0 4.917 1.788 10.058 8.715 10.058 3.351 0 6.256-1.118 8.937-3.576l3.128 4.693c-3.798 3.13-8.044 4.694-12.736 4.694-10.054 0-16.534-7.376-16.534-18.774 0-6.258 1.34-10.505 4.469-13.857 2.904-3.353 6.48-4.694 10.948-4.694 3.575 0 6.703.894 9.831 3.576 3.128 2.906 4.692 7.152 4.692 15.422v1.564h-21.45v.224zm62.563 15.868h-7.373l-4.469-16.539c-1.117-4.246-2.235-9.834-2.235-9.834h-.223s-.67 3.576-2.234 10.058l-4.246 16.092h-7.373L84.94 16.863l7.596-1.118 3.799 17.21c.67 3.129 1.34 6.258 1.787 9.387h.224s.67-4.694 2.011-9.61l4.692-16.54h8.044l4.022 16.092c1.564 5.811 2.234 10.058 2.234 10.058h.223s.894-5.364 1.788-9.61l3.575-16.54h8.044L122.925 52.4zm44.464-42.241h-4.469v15.421h4.246c4.245 0 6.479-.67 8.043-2.011 1.341-1.341 2.235-3.353 2.235-6.035-.224-4.917-2.905-7.375-10.055-7.375zm11.395 42.241l-4.245-7.599c-3.351-6.034-5.586-9.387-8.267-12.069-.894-.894-1.564-1.34-3.128-1.564v21.009H155.1v-48.5h14.97c10.949 0 15.864 6.258 15.864 13.857 0 6.929-4.468 13.41-12.065 13.41 1.787.894 4.915 5.588 7.597 9.834l7.15 11.622h-9.832zm27.036-30.62c-4.468 0-6.703 3.353-6.703 9.164H212.3c0-5.81-2.458-9.163-6.48-9.163zm-6.703 14.975v.67c0 4.918 1.788 10.058 8.714 10.058 3.352 0 6.256-1.117 8.938-3.576l3.128 4.694c-3.799 3.129-8.044 4.693-12.736 4.693-10.055 0-16.534-7.375-16.534-18.774 0-6.258 1.34-10.504 4.468-13.857 2.905-3.352 6.48-4.693 10.949-4.693 3.575 0 6.703.894 9.831 3.576 3.128 2.905 4.692 7.152 4.692 15.421v1.565l-21.45.223zm35.75 16.54c-7.82 0-7.82-7.153-7.82-10.058v-30.62c0-4.917-.224-7.375-.67-10.504L234.42.324c.671 2.235.671 5.14.671 9.834V40.33c0 4.694.223 5.588.67 6.482.447.67 1.564.894 2.458.67l1.34 4.694c-1.564.67-2.904 1.117-4.692 1.117zm9.608-.895V17.31l7.82-1.34V52.4h-7.82zm3.798-40.9c-2.904 0-4.915-2.235-4.915-5.14 0-2.906 2.234-5.141 5.139-5.141 2.681 0 5.139 2.235 5.139 5.14 0 2.682-2.458 5.14-5.363 5.14zm26.143 41.794c-9.832 0-15.194-6.928-15.194-18.327 0-12.963 7.82-19.22 15.64-19.22 3.799 0 6.704.893 9.832 3.799l-3.799 5.14c-2.011-2.011-4.022-2.682-6.033-2.682-2.457 0-4.468 1.341-5.585 3.576-1.118 2.235-1.565 5.588-1.565 10.058 0 4.917.671 8.046 2.458 9.834 1.118 1.34 2.905 2.011 4.692 2.011 2.458 0 4.916-1.117 7.151-3.576l3.574 4.694c-2.904 3.352-6.256 4.693-11.171 4.693zm32.622-15.421c-.447-.224-.894-.224-1.341-.224h-.894v3.13h.67c.894 0 1.341 0 1.788-.448a1.71 1.71 0 00.447-1.117c.223-.67-.224-1.118-.67-1.341zm1.117 9.387c-.447-.67-.671-1.118-1.117-1.788-1.118-2.012-1.565-2.682-1.788-2.682h-.447v4.693h-2.234V36.307h4.245c2.011 0 3.352 1.341 3.352 3.353 0 1.788-1.118 3.129-2.458 3.129l.447.447c.67.894 2.681 4.47 2.681 4.47h-2.681v-.447zm-2.011-13.634c-4.246 0-7.597 3.576-7.597 8.046 0 4.47 3.351 8.046 7.597 8.046 4.245 0 7.82-3.576 7.82-8.046 0-4.47-3.575-8.046-7.82-8.046zm0 18.104a10.015 10.015 0 01-10.055-10.058 10.015 10.015 0 0110.055-10.057c5.586 0 10.054 4.47 10.054 10.057 0 5.364-4.468 9.834-10.054 10.058 0 0 .223 0 0 0z"/><path fill="#7B59A8" d="M153.76 131.072v47.382h-25.695v-47.382l-39.996-61.24h28.824l25.025 39.337 24.801-39.337h27.93l-40.889 61.24zm120.879 47.158l-51.837-69.732h-.447v69.955l-22.121-.223V69.609h22.568l49.379 65.038h.447l-.67-65.038h25.025V178.23h-22.344zm89.598-84.26v84.483h-25.695V93.97h-30.164V72.067h85.8V93.97h-29.941zm294.938 0v84.483h-25.696V93.97h-30.164V72.067h85.8V93.97h-29.94zm41.559 84.483V72.067h25.919v106.386h-25.919zm116.412-4.693c-6.927 3.129-14.971 4.693-23.908 4.693-8.267 0-15.864-1.341-22.791-4.023-6.926-2.682-12.959-6.481-18.098-11.398-5.139-4.917-9.161-10.952-12.066-17.88-2.904-6.929-4.469-14.528-4.469-22.797 0-8.493 1.565-16.316 4.469-23.244 2.905-6.929 7.15-12.74 12.289-17.657 5.139-4.917 11.396-8.493 18.322-11.175 6.927-2.682 14.524-4.023 22.791-4.023 7.597 0 14.97 1.341 22.12 4.023 7.374 2.682 13.183 6.482 17.652 11.622l-17.428 17.433c-2.458-3.352-5.586-5.81-9.385-7.375-4.022-1.565-7.82-2.459-12.065-2.459-4.469 0-8.715.894-12.513 2.459-3.798 1.564-6.927 4.023-9.608 6.928-2.681 2.906-4.915 6.258-6.256 10.281-1.341 4.023-2.234 8.27-2.234 12.963 0 4.917.67 9.164 2.234 13.187s3.575 7.375 6.256 10.281c2.681 2.905 5.81 5.14 9.608 6.705 3.798 1.564 7.82 2.458 12.289 2.458 5.139 0 9.608-.894 13.406-2.905 3.799-2.012 6.927-4.694 9.161-7.823l17.875 16.763c-4.915 5.587-10.725 9.834-17.651 12.963zm-344.094 4.693v-44.476h-41.56v44.476h-25.695V72.067h25.695v40.23h41.56v-40.23h25.695v106.386h-25.695zm35.526 0V72.067h82.672v21.68h-57.87v20.115h50.943v20.562H533.38v22.126h58.317v21.903h-83.119zm411.796-55.875c-5.362-6.481-13.63-10.281-24.355-11.845-4.915-.671-8.937-1.118-11.842-1.565-4.692-.894-7.82-2.235-9.831-4.246-1.788-1.788-2.681-3.8-2.681-5.811 0-4.023 1.34-6.929 4.022-8.94 2.681-2.012 6.256-3.13 10.278-3.13 8.937.224 17.428 2.683 24.801 7.6l2.682 1.788 12.735-18.55-2.681-1.789c-10.278-7.375-22.79-11.175-36.867-11.622-11.842 0-21.227 3.353-27.706 9.387-6.927 6.258-10.502 14.528-10.502 24.809 0 8.493 2.681 15.868 8.267 21.679 5.363 5.811 12.96 9.611 23.014 11.175 5.14.671 9.832 1.341 13.854 2.012 10.054 1.788 11.395 6.705 11.171 10.951 0 5.141-2.234 11.175-17.875 11.399-11.171 0-20.332-3.353-28.376-9.834l-2.458-2.012-14.97 16.986 2.458 2.235c12.065 10.058 26.589 15.198 43.123 15.198 26.589-.223 40.219-11.845 40.889-33.972.67-8.269-2.011-15.645-7.15-21.903zm-840.125.671c-5.14-6.481-13.407-10.728-24.132-12.292-4.915-.671-8.937-1.341-11.842-1.788-4.692-.894-7.82-2.459-9.608-4.47-1.787-1.788-2.68-3.8-2.457-5.811.223-4.023 1.564-6.929 4.245-8.94 2.681-2.012 6.256-2.906 10.502-2.906 8.937.447 17.204 3.13 24.578 8.046l2.68 1.788 12.96-18.327-2.681-2.011c-10.278-7.6-22.567-11.622-36.644-12.293-11.842-.223-21.226 2.906-27.93 8.94C12.995 79.443 9.197 87.713 8.973 97.77c-.223 8.493 2.458 15.869 7.82 21.903 5.14 5.811 12.96 9.834 22.791 11.622 5.14.894 9.831 1.565 13.853 2.235 10.055 1.788 11.172 6.929 10.949 11.175-.224 5.141-2.458 11.175-17.875 11.175-11.172-.223-20.333-3.576-28.154-10.281l-2.457-2.011L.48 160.35l2.458 2.235c11.843 10.281 26.142 15.869 42.9 16.092 26.59.224 40.442-10.951 41.56-33.301.447-8.27-2.011-15.645-7.15-22.127zm862.468-55.652h-4.245v-2.235h11.172v2.235h-4.246v12.74h-2.458v-12.74h-.223zm10.725-2.235h2.235l4.468 7.376 4.469-7.376h2.235v14.751h-2.458V70.95l-3.352 4.693h-2.011l-3.351-4.693v9.163h-2.458v-14.75h.223z"/></svg>