<svg xmlns="http://www.w3.org/2000/svg" viewBox="0 0 176.9 62.83"><path fill="#ffce26" d="M161.2.83c9.8 6.8 5.7 22.5-4.7 24.2 13.3 0 17.7-18.2 4.7-24.2z" class="b"/><path fill="#0879b8" d="M150.8.73c11.6-1.7 16.4 12.6 11.3 19.2 8.4-8.4 1.7-23.4-11.3-19.2z" class="c"/><path fill="#069b4f" d="M144 7.63c5.7-8.5 17.6-3.3 18.8 5.3 1.4-10.51-12.6-16.4-18.8-5.3z" class="d"/><path fill="#cb2034" d="M143.7 14.03c1.4-8.8 12.8-9.7 17-3.5-3.4-8.8-16.8-7.7-17 3.5z" class="e"/><path fill="#010101" d="M1.5 25.03h3l.7-9.1v-2.6a.77.77 0 00.1.3c.1.2.1.4.2.6a17144472425107.56 17144472425107.56 0 00.6 1.6l2.6 6.3h2.6l2.6-6.3c.1-.3.2-.5.3-.8a6.89 6.89 0 01.3-.8 2.07 2.07 0 00.2-.6.44.44 0 01.1-.3v2.6l.7 9.1h2.9l-1.3-16.3H14l-3.2 8c-.1.3-.2.5-.3.8s-.2.5-.3.8a4.17 4.17 0 01-.2.6c0 .2-.1.2-.1.3a.77.77 0 00-.1-.3c0-.2-.1-.3-.2-.6s-.2-.5-.3-.8-.2-.5-.3-.8l-3.2-8h-3zm19.1-3.4a3.34 3.34 0 00.3 1.5 3.45 3.45 0 00.9 1.2 3.75 3.75 0 001.2.7 4 4 0 001.5.3 5.9 5.9 0 001.4-.2 3.13 3.13 0 001-.5 4.35 4.35 0 00.7-.6c.2-.2.3-.4.4-.5a.31.31 0 00.1-.2v1.8h2.7v-7.3a4.87 4.87 0 00-.6-2.5 3.78 3.78 0 00-1.7-1.6 7.14 7.14 0 00-4.1-.5c-.5.1-.9.2-1.3.3a3.92 3.92 0 00-.9.4c-.3.1-.5.3-.6.3a.31.31 0 01-.2.1l1.1 2.1a1.24 1.24 0 01.3-.2 4.35 4.35 0 01.7-.4 10.37 10.37 0 011-.4 5 5 0 011.2-.2 2.54 2.54 0 011.2.2 1.56 1.56 0 01.8.6 2.13 2.13 0 01.3 1.2v.2h-1.6a8.87 8.87 0 00-1.5.2 6.58 6.58 0 00-1.5.4 9.14 9.14 0 00-1.4.7 3.57 3.57 0 00-1 1.1 14.91 14.91 0 00-.4 1.8zm3-.1a1.14 1.14 0 01.3-.8 1.79 1.79 0 01.7-.5 3.18 3.18 0 01.9-.3 3.4 3.4 0 011-.1H28v.3a5.16 5.16 0 01-.2 1.1 2.07 2.07 0 01-.6 1c-.3.3-.5.6-.9.7a2 2 0 01-1.1.3 3 3 0 01-1-.2.9.9 0 01-.6-.6zm10.2 3.5h2.9v-6.1a2.35 2.35 0 01.2-.8 3.37 3.37 0 01.6-1.2 5.31 5.31 0 011.1-.9 2.38 2.38 0 011.4-.3 2.13 2.13 0 011.2.3 1.56 1.56 0 01.6.8 2.36 2.36 0 01.1 1.2v6.9h2.9v-7.51a5.83 5.83 0 00-.5-2.5 3.39 3.39 0 00-1.4-1.5 4.77 4.77 0 00-2.2-.5 4.15 4.15 0 00-1.6.3 3.37 3.37 0 00-1.2.6c-.3.3-.6.5-.9.8a9.22 9.22 0 00-.5.8v-2.3h-2.8zm13.1-3.4a3.34 3.34 0 00.3 1.5 3.45 3.45 0 00.9 1.2 3.75 3.75 0 001.2.7 4 4 0 001.5.3 5.9 5.9 0 001.4-.2 3.13 3.13 0 001-.5 4.35 4.35 0 00.7-.6c.2-.2.3-.4.4-.5a.31.31 0 00.1-.2v1.8h2.69v-7.3a4.87 4.87 0 00-.6-2.5 3.78 3.78 0 00-1.7-1.6 7.14 7.14 0 00-4.1-.5c-.5.1-.9.2-1.3.3a3.92 3.92 0 00-.9.4c-.3.1-.5.3-.6.3a.31.31 0 01-.2.1l1.1 2.1a1.24 1.24 0 01.3-.2 4.35 4.35 0 01.7-.4 10.37 10.37 0 011-.4 5 5 0 011.2-.2 2.54 2.54 0 011.2.2 1.56 1.56 0 01.8.6 2.13 2.13 0 01.3 1.2v.2h-1.6a8.87 8.87 0 00-1.5.2 8.33 8.33 0 00-1.5.4 9.14 9.14 0 00-1.4.7 3.57 3.57 0 00-1 1.1 4.21 4.21 0 00-.39 1.8zm2.9-.1a1.14 1.14 0 01.3-.8 1.79 1.79 0 01.7-.5 3.18 3.18 0 01.9-.3 3.4 3.4 0 011-.1h1.5v.3a5.16 5.16 0 01-.2 1.1 2.66 2.66 0 01-.6 1c-.3.3-.5.6-.9.7a2 2 0 01-1.1.3 3 3 0 01-1-.2.9.9 0 01-.6-.6 2.64 2.64 0 000-.9zm11.5 5l-.9 2.3a6.12 6.12 0 001.2.5 7 7 0 001.4.3 7.57 7.57 0 001.5.1 5.54 5.54 0 001.8-.2 4.92 4.92 0 001.7-.6 4.86 4.86 0 001.4-1.1 3.77 3.77 0 00.9-1.5 6.65 6.65 0 00.3-2.1v-10.9h-2.7v1.2h-.1l-.1-.2-.4-.4c-.2-.1-.4-.3-.6-.4a10.37 10.37 0 00-1-.4 5.07 5.07 0 00-1.3-.2 5.1 5.1 0 00-3.8 1.7 6.37 6.37 0 00-1 1.8 9 9 0 000 4.6 6.92 6.92 0 001 1.9 4 4 0 001.6 1.3 5.09 5.09 0 002.2.5 4.21 4.21 0 002-.4 3.66 3.66 0 001.3-1.2v1.4a2.77 2.77 0 01-.3 1.3 5.5 5.5 0 01-.7.9 3.13 3.13 0 01-1 .5 5.28 5.28 0 01-1.3.1 4.48 4.48 0 01-1.2-.1c-.4-.1-.7-.2-1-.3a4.88 4.88 0 01-.7-.3c-.2 0-.2-.1-.2-.1zm3.9-4.2a2.77 2.77 0 01-1.6-.5 2.94 2.94 0 01-1-1.2 5.23 5.23 0 01-.3-1.8 4.67 4.67 0 01.3-1.7 2 2 0 01.9-1.1 2.41 2.41 0 011.5-.4 2 2 0 011.1.2 4.05 4.05 0 01.9.5 2.07 2.07 0 01.6 1 6.5 6.5 0 010 3.2 2.44 2.44 0 01-1.5 1.7c-.3 0-.6.1-.9.1zm7.9-3.1a6.37 6.37 0 00.4 2.4 6.15 6.15 0 001.2 1.9 5.33 5.33 0 002 1.3 7.08 7.08 0 002.6.5 4.14 4.14 0 001.6-.2c.5-.1.9-.3 1.3-.4a9.29 9.29 0 001-.5 5.92 5.92 0 00.6-.4l.2-.2-1.1-2.1-.2.1a2.19 2.19 0 01-.5.3 4.35 4.35 0 01-.7.4l-.9.3a3.75 3.75 0 01-1.1.1 4.3 4.3 0 01-1.2-.2 2.38 2.38 0 01-1.1-.6 3.92 3.92 0 01-.8-1 6.47 6.47 0 01-.4-1.3h8v-1.1a7.8 7.8 0 00-.3-2.2 6.37 6.37 0 00-1-1.8 4.81 4.81 0 00-1.6-1.2 5.09 5.09 0 00-2.2-.4 6 6 0 00-2.4.5 5.1 5.1 0 00-3.1 3.1 11.76 11.76 0 00-.31 2.7zm3-1.5a5 5 0 01.5-1.3 6.47 6.47 0 01.9-.8 2.77 2.77 0 011.3-.3 2.66 2.66 0 011.2.3 3 3 0 01.8.8 2.5 2.5 0 01.3 1.3zm11 7.3h9.8v-2h-7.5v-5.2h5.8v-2h-5.8v-5h7.1v-2h-9.41zm12.7 0h2.2v-6.2c0-.3.1-.5.1-.7a3.61 3.61 0 01.8-1.5 3.25 3.25 0 011.3-1 2.88 2.88 0 011.6-.3 2.68 2.68 0 011.1.2 1.34 1.34 0 01.7.6 1.61 1.61 0 01.3.9c0 .3.1.7.1 1.2v6.9h2.2v-7.4a4.5 4.5 0 00-1-3.3 3.92 3.92 0 00-3-1.1 4.67 4.67 0 00-1.7.3 5.39 5.39 0 00-1.3.7l-.9.9a4.05 4.05 0 00-.5.9v-2.3h-2.1zm14.8 2.1l-.7 1.8c.4.2.8.3 1.2.5a5.77 5.77 0 001.4.3 6.6 6.6 0 001.4.1 4.68 4.68 0 001.7-.2 4.42 4.42 0 001.6-.6 6.42 6.42 0 001.3-1 3.77 3.77 0 00.9-1.5 6 6 0 00.3-2v-11h-2.1v1.5a.31.31 0 00-.1-.2c-.1-.1-.2-.3-.4-.4a4.23 4.23 0 00-.7-.5 3 3 0 00-1-.4 6.05 6.05 0 00-1.5-.2 4.64 4.64 0 00-2.1.4 4.81 4.81 0 00-1.6 1.2 5.24 5.24 0 00-1 1.8 8.52 8.52 0 00-.3 2.3 9.28 9.28 0 00.3 2.4 6.92 6.92 0 001 1.9 3.77 3.77 0 001.6 1.2 5.09 5.09 0 002.2.5 4.65 4.65 0 002.1-.5 3.25 3.25 0 001.3-1.3v1.6a3.34 3.34 0 01-.3 1.5 3.92 3.92 0 01-.8 1 3.37 3.37 0 01-1.2.6 3.4 3.4 0 01-1.4.2 4.48 4.48 0 01-1.2-.1c-.4-.1-.7-.2-1-.3a4.88 4.88 0 01-.7-.3c-.1-.3-.2-.3-.2-.3zm3.8-4.2a3.45 3.45 0 01-1.8-.5 3.33 3.33 0 01-1.2-1.4 5.71 5.71 0 010-4.2 2.85 2.85 0 011.1-1.3 3.1 3.1 0 011.7-.5 2.74 2.74 0 011.3.2 2.07 2.07 0 011 .6 3.46 3.46 0 01.7 1.2 6.17 6.17 0 010 3.8 3.46 3.46 0 01-.7 1.2 2.07 2.07 0 01-1 .6 2 2 0 01-1.1.3zm8.7-11.8h2.2v-2.3h-2.21v2.3zm0 13.9h2.2V13.42h-2.21v11.6zm5.7 0h2.2v-6.2c0-.3.1-.5.1-.7a3.61 3.61 0 01.8-1.5 3.25 3.25 0 011.3-1 2.88 2.88 0 011.6-.3 2.68 2.68 0 011.1.2 1.34 1.34 0 01.7.6 1.61 1.61 0 01.3.9c0 .3.1.7.1 1.2v6.9h2.2v-7.4a4.5 4.5 0 00-1-3.3 3.92 3.92 0 00-3-1.1 4.67 4.67 0 00-1.7.3 5.39 5.39 0 00-1.3.7l-.9.9a4.05 4.05 0 00-.5.9v-2.3h-2.1zm13-5.8a8.6 8.6 0 00.4 2.4 6.15 6.15 0 001.2 1.9 5.86 5.86 0 001.9 1.3 7 7 0 002.5.5 3.42 3.42 0 001.5-.2 8.34 8.34 0 001.2-.4 7.26 7.26 0 00.9-.5 5.92 5.92 0 00.6-.4l.2-.2-.9-1.6-.2.1c-.2.1-.3.2-.5.3a4.35 4.35 0 01-.7.4 3.18 3.18 0 01-.9.3 3.75 3.75 0 01-1.1.1 4 4 0 01-1.5-.3 3.46 3.46 0 01-1.2-.7 3.78 3.78 0 01-.9-1.2 7.09 7.09 0 01-.4-1.7h8.4v-1a6.65 6.65 0 00-.3-2.1 5.56 5.56 0 00-.9-1.7 4 4 0 00-1.6-1.2 4.81 4.81 0 00-2.2-.4 5.87 5.87 0 00-2.3.4 5.67 5.67 0 00-1.8 1.2 6.15 6.15 0 00-1.2 1.9c-.1.99-.2 1.9-.2 2.8zm2.4-1.4a3.82 3.82 0 01.6-1.6 2.94 2.94 0 011.2-1 4 4 0 011.5-.3 3.53 3.53 0 011.4.3 3.18 3.18 0 011 1 2.86 2.86 0 01.4 1.7z" class="f"/><g class="g" clip-path="url(#a)"><path fill="#2b2a29" d="M0 44.48a12.63 12.63 0 00.58 3.83 11.92 11.92 0 001.64 3.29 11.47 11.47 0 002.54 2.57 11.2 11.2 0 003.26 1.68 12.49 12.49 0 007.65 0 11.51 11.51 0 005.79-4.25 11.65 11.65 0 001.64-3.29 12.33 12.33 0 00.59-3.83 11.6 11.6 0 00-.59-3.72 11.27 11.27 0 00-4.17-5.71 11.74 11.74 0 00-3.26-1.64 12.9 12.9 0 00-7.65 0 11.61 11.61 0 00-3.26 1.64 11.37 11.37 0 00-2.54 2.5 11.59 11.59 0 00-1.64 3.21A11.88 11.88 0 000 44.48zm4.29 0a8.38 8.38 0 01.59-3.13 7.66 7.66 0 011.62-2.49 7.3 7.3 0 012.4-1.65 7.71 7.71 0 012.94-.59 7.85 7.85 0 013 .59 7.51 7.51 0 012.4 1.65 7.63 7.63 0 011.61 2.49 8.59 8.59 0 01.59 3.13 9.26 9.26 0 01-.59 3.26 8 8 0 01-1.61 2.59 7.53 7.53 0 01-2.4 1.71 7.16 7.16 0 01-3 .61 7 7 0 01-2.94-.61 7.31 7.31 0 01-2.4-1.71 8 8 0 01-1.62-2.59 9 9 0 01-.59-3.26zm23 18h4.1v-8.25h.06l.18.24a5.33 5.33 0 00.54.55 5.8 5.8 0 002.25 1.23 6.24 6.24 0 001.67.17 7.45 7.45 0 003-.61 7 7 0 002.38-1.73 8 8 0 001.62-2.66 10.86 10.86 0 00.57-3.54 11.58 11.58 0 00-.57-3.46 8 8 0 00-1.47-2.72 6.49 6.49 0 00-2.3-1.76 7.31 7.31 0 00-3-.63 7.73 7.73 0 00-2 .28 6.66 6.66 0 00-1.49.67 5.95 5.95 0 00-1.58 1.47c-.12.19-.18.28-.18.29H31V39.7h-3.75v22.85zm4-14.55a7.34 7.34 0 01.35-2.34 4.42 4.42 0 01.92-1.61 3.7 3.7 0 011.32-.93 4.07 4.07 0 011.55-.3 3.8 3.8 0 012.14.64A4.15 4.15 0 0139 45.18a6.7 6.7 0 01.53 2.72 7.12 7.12 0 01-.33 2.17 4.7 4.7 0 01-.89 1.59 3.81 3.81 0 01-2.92 1.33 3.78 3.78 0 01-1.78-.43 4 4 0 01-1.28-1.14 5.17 5.17 0 01-.78-1.62 6.81 6.81 0 01-.26-1.87zm15.69 8.12h4.11l1-12.78v-3.58h.06s.05.14.12.37.18.55.31.93.26.76.4 1.16.29.78.43 1.12l3.68 8.85h3.65l3.71-8.85c.14-.34.28-.71.43-1.11s.27-.79.39-1.16.22-.67.29-.9l.12-.37h.06v3.54l1 12.78h4.13l-1.78-22.84h-4.5l-4.5 11.3c-.13.34-.26.71-.39 1.09s-.25.75-.37 1.09-.19.62-.26.84l-.11.33h-.06l-.11-.33c-.07-.22-.17-.5-.28-.84s-.24-.7-.38-1.09-.26-.75-.39-1.09l-4.49-11.3h-4.46l-1.87 22.86zm27-4.74a5.22 5.22 0 00.46 2.19 4.55 4.55 0 001.23 1.6 5.26 5.26 0 001.78 1 6.45 6.45 0 002.12.34 6.16 6.16 0 002-.3 5.32 5.32 0 001.43-.72 5 5 0 00.94-.86 4.26 4.26 0 00.52-.71 1.54 1.54 0 00.15-.3h.06v2.51h3.78V45.8a7.29 7.29 0 00-.82-3.54 5.27 5.27 0 00-2.33-2.22 8.32 8.32 0 00-3.7-.78 12.19 12.19 0 00-2.17.21 12.37 12.37 0 00-1.79.51 11.9 11.9 0 00-1.35.6 9.24 9.24 0 00-.85.5l-.29.21 1.55 2.93s.13-.09.37-.25.58-.33 1-.54a10 10 0 011.45-.54 6.23 6.23 0 011.7-.25 4.33 4.33 0 011.62.28 2.28 2.28 0 011.12.91 3.25 3.25 0 01.42 1.71v.23h-2.2a20.6 20.6 0 00-2.07.24 13.65 13.65 0 00-2.16.54 8.21 8.21 0 00-1.94 1 4.65 4.65 0 00-1.39 1.54 4.56 4.56 0 00-.54 2.22zm4.13-.19a1.9 1.9 0 01.37-1.15 2.68 2.68 0 011-.74 5.77 5.77 0 011.33-.44 13.67 13.67 0 011.45-.2c.5 0 1-.05 1.38 0h.71v.38a4.51 4.51 0 01-.27 1.52 5.1 5.1 0 01-.77 1.39 4 4 0 01-1.18 1 3 3 0 01-1.49.4 3 3 0 01-1.39-.31 2 2 0 01-1.1-1.82zm14.5 4.93h4.1v-7.54a8.47 8.47 0 01.06-1.13 4.57 4.57 0 01.23-1 5 5 0 01.93-1.75 4.3 4.3 0 011.5-1.17 4.64 4.64 0 012-.43 2.68 2.68 0 011.61.42 2.17 2.17 0 01.79 1.17 5.82 5.82 0 01.21 1.76v9.72h4.05V45.51a8.12 8.12 0 00-.67-3.55 4.28 4.28 0 00-1.94-2 6.67 6.67 0 00-3.1-.66 7.19 7.19 0 00-2.22.34 6.35 6.35 0 00-2.88 2 5.53 5.53 0 00-.74 1.12h-.07v-3.03h-3.94v16.42zm18.4-4.74a5.22 5.22 0 00.45 2.19 4.69 4.69 0 001.24 1.6 5.26 5.26 0 001.78 1 6.44 6.44 0 002.11.34 6.07 6.07 0 002-.3 5.17 5.17 0 001.43-.72 5.07 5.07 0 00.95-.86 5.84 5.84 0 00.52-.71c.1-.2.16-.3.14-.3h.07v2.51h3.78V45.8a7.18 7.18 0 00-.81-3.54 5.35 5.35 0 00-2.34-2.22 8.25 8.25 0 00-3.69-.78 11.06 11.06 0 00-4 .72 11.15 11.15 0 00-1.35.6 9.24 9.24 0 00-.85.5l-.3.21 1.55 2.93.38-.25a11.3 11.3 0 011-.54 9.9 9.9 0 011.44-.54 6.35 6.35 0 011.7-.25 4.39 4.39 0 011.63.28 2.21 2.21 0 011.11.91 3.07 3.07 0 01.42 1.71v.23h-2.2c-.66 0-1.33.12-2.06.24a14 14 0 00-2.17.54 8.14 8.14 0 00-1.93 1 4.8 4.8 0 00-1.4 1.54 4.55 4.55 0 00-.53 2.22zm4.13-.19a1.84 1.84 0 01.37-1.15 2.68 2.68 0 011-.74 5.85 5.85 0 011.32-.44 14.23 14.23 0 011.46-.2c.49 0 .95-.05 1.38 0h.71v.38a4.53 4.53 0 01-.28 1.52 4.85 4.85 0 01-.77 1.39 3.8 3.8 0 01-1.18 1 3 3 0 01-1.49.4 2.93 2.93 0 01-1.38-.31 2 2 0 01-.83-.78 2.1 2.1 0 01-.27-1zm16.17 7.15l-1.22 3.15a11.78 11.78 0 001.76.74 12.83 12.83 0 002 .49 11.85 11.85 0 004.63-.08 9.47 9.47 0 002.36-.84 7.12 7.12 0 001.95-1.49 6.53 6.53 0 001.33-2.19 8.44 8.44 0 00.49-3v-15.4h-3.84v1.26a1.57 1.57 0 000 .32 1 1 0 010 .13h-.1a1.54 1.54 0 00-.16-.22 3.58 3.58 0 00-.52-.52 5.63 5.63 0 00-.92-.62 6.22 6.22 0 00-1.39-.52 7.89 7.89 0 00-1.88-.22 7.4 7.4 0 00-3.14.65 6.51 6.51 0 00-2.29 1.75 7.84 7.84 0 00-1.39 2.6 10.59 10.59 0 00-.48 3.18 10.16 10.16 0 00.5 3.2 7.88 7.88 0 001.44 2.64 6.76 6.76 0 002.32 1.8 7.43 7.43 0 003.14.66 6.15 6.15 0 002.75-.56 4.77 4.77 0 001.83-1.66h.07v1.87a4.34 4.34 0 01-.37 1.86 3.13 3.13 0 01-1 1.23 4.29 4.29 0 01-1.48.69 7.32 7.32 0 01-1.79.21 9.82 9.82 0 01-1.76-.17 10.07 10.07 0 01-1.44-.36 10.5 10.5 0 01-1-.37l-.36-.16zm5.49-6a3.9 3.9 0 01-2.25-.65 4.06 4.06 0 01-1.4-1.77 6.47 6.47 0 01-.48-2.57 5.92 5.92 0 01.45-2.41 3.51 3.51 0 011.31-1.59 3.84 3.84 0 012.11-.57 5.07 5.07 0 011.58.21 3.14 3.14 0 011.29.76 3.41 3.41 0 01.87 1.44 8.44 8.44 0 010 4.64 3.89 3.89 0 01-.85 1.49 3 3 0 01-1.22.78 3.79 3.79 0 01-1.42.24zm11.17-4.44a9.09 9.09 0 00.61 3.31 8.24 8.24 0 004.55 4.6 9.77 9.77 0 003.68.68 10 10 0 002.27-.24 11.27 11.27 0 001.83-.58 10.16 10.16 0 001.37-.7 7 7 0 00.85-.58l.3-.25-1.58-2.93-.24.19c-.16.12-.38.27-.67.45a9.53 9.53 0 01-1 .53 7.74 7.74 0 01-1.31.45 6.57 6.57 0 01-1.51.19 5.8 5.8 0 01-1.77-.28 5 5 0 01-1.52-.82 4.48 4.48 0 01-1.11-1.36 5 5 0 01-.54-1.89h11.37v-1.58a9.46 9.46 0 00-.47-3 7.22 7.22 0 00-1.39-2.47 6.41 6.41 0 00-2.29-1.66 7.88 7.88 0 00-3.14-.61 9 9 0 00-3.38.64 7.49 7.49 0 00-2.64 1.77 7.94 7.94 0 00-1.72 2.71 9.49 9.49 0 00-.62 3.48zm4.32-2a4.54 4.54 0 01.73-1.83 3.51 3.51 0 011.34-1.17 4.18 4.18 0 011.87-.41 3.42 3.42 0 011.64.39 2.89 2.89 0 011.15 1.15 4 4 0 01.47 1.87zm14.72 10.24h4.08v-6.51a12.38 12.38 0 01.08-1.39 7.25 7.25 0 01.28-1.28 5.27 5.27 0 011.12-2 4.37 4.37 0 011.6-1.11 4.42 4.42 0 011.76-.35 6.34 6.34 0 01.69 0h.28v-4h-.22a3.8 3.8 0 00-.52 0 5.12 5.12 0 00-2.31.57 5.77 5.77 0 00-1.79 1.51 6.66 6.66 0 00-1.13 2.14h-.06v-3.99h-3.94v16.42z" class="h"/></g></svg>