<svg xmlns="http://www.w3.org/2000/svg" width="418" height="86" viewBox="0 0 418 86"><g fill="#282828" fill-rule="evenodd"><path d="M39.289 39.097l.71-.199a137.041 137.041 0 0015.547-5.705 57.448 57.448 0 0014.308-8.154 31.108 31.108 0 0010.029-14.19 12.8 12.8 0 00.908-2.877c-6.955 9.51-34.53 10.501-34.53 10.501l6.51-5.97A90.807 90.807 0 000 29.637a49.674 49.674 0 0127.988 12.52c3.734-1.158 7.55-1.985 11.3-3.027v-.033zm43.237-.943a151.757 151.757 0 00-51.878 6.616 50.03 50.03 0 018.723 12.453c13.895-7.74 33.16-17.63 43.155-19.036v-.033zM41.123 61.176a49.657 49.657 0 013.139 13.23l24.237-24.923-27.376 11.693zm12.721 12.222v-.265a.563.563 0 00-.099-.298.297.297 0 00-.248-.132h.215a.447.447 0 00.198-.397.48.48 0 00-.297-.496 1.353 1.353 0 00-.512 0h-.678v1.869h.364V73h.264a.726.726 0 01.347 0c.113.091.17.236.149.38v.281h.363l-.066-.264zm-1.074-1.456h.232a.842.842 0 01.38 0c.072.054.11.142.099.232a.248.248 0 01-.165.264.94.94 0 01-.298 0h-.248v-.628.132z"/><path d="M54.29 71.397a1.651 1.651 0 00-2.412 0 1.655 1.655 0 00-.495 1.207c-.008.453.172.89.495 1.207a1.651 1.651 0 002.412 0 1.655 1.655 0 000-2.414m-1.206 2.613a1.354 1.354 0 01-.991-.414 1.423 1.423 0 010-1.984 1.387 1.387 0 011.983 0 1.423 1.423 0 010 1.984c-.26.269-.618.418-.992.414m176.667-23.683a11.1 11.1 0 01-9.615-5.557 11.124 11.124 0 010-11.114 11.1 11.1 0 019.615-5.557c6.132 0 11.103 4.976 11.103 11.114 0 6.138-4.97 11.114-11.103 11.114zm0-34.35a23.132 23.132 0 00-21.428 15.14A23.17 23.17 0 00214.8 56.56a23.112 23.112 0 0026.054 3.03v2.81c-.01 6.135-4.975 11.105-11.103 11.114a6.05 6.05 0 00-6.047 6.054 6.05 6.05 0 006.047 6.053c12.755-.045 23.086-10.387 23.13-23.154V39.312c-.044-12.768-10.375-23.11-23.13-23.154v-.182zm-114.297 34.35c-6.132.009-11.11-4.96-11.12-11.098-.008-6.138 4.955-11.121 11.087-11.13 6.132-.01 11.11 4.96 11.119 11.097.01 6.138-4.954 11.121-11.086 11.13zm0-34.35c-12.755.044-23.086 10.385-23.13 23.153v33.077a6.054 6.054 0 003.023 5.242 6.042 6.042 0 006.047 0 6.054 6.054 0 003.023-5.242V59.538a22.963 22.963 0 0011.086 2.829c12.816 0 23.205-10.4 23.205-23.229 0-12.829-10.389-23.228-23.205-23.228l-.05.066zm65.063 0c-12.755.044-23.086 10.385-23.13 23.153v17.167a6.05 6.05 0 006.046 6.053 6.05 6.05 0 006.047-6.053V39.213c0-6.13 4.963-11.098 11.086-11.098s11.086 4.969 11.086 11.098V56.38a6.055 6.055 0 002.925 5.504 6.042 6.042 0 006.228 0 6.055 6.055 0 002.925-5.504V39.213c-.045-12.768-10.376-23.11-23.13-23.154l-.083-.083zm147.737 34.151c-6.132.01-11.11-4.96-11.12-11.097-.008-6.138 4.955-11.121 11.087-11.13 6.132-.01 11.11 4.959 11.119 11.097.01 6.138-4.954 11.12-11.086 11.13zm0-34.35c-12.775 0-23.13 10.366-23.13 23.154 0 12.787 10.355 23.153 23.13 23.153 12.775 0 23.13-10.366 23.13-23.153-.044-12.768-10.375-23.11-23.13-23.154zm-49.251 34.549c-6.132 0-11.103-4.976-11.103-11.114 0-6.138 4.97-11.114 11.103-11.114 6.131 0 11.102 4.976 11.102 11.114-.009 6.134-4.974 11.104-11.102 11.114zM296.136.099a6.05 6.05 0 00-6.047 6.053v12.669a23.113 23.113 0 00-27.708 4.272 23.172 23.172 0 00-3.242 27.875c5.309 8.963 15.945 13.272 25.987 10.529 10.042-2.744 17.016-11.864 17.04-22.284V6.136A6.05 6.05 0 00296.12.083l.017.016zm-148.58 15.877a6.05 6.05 0 00-6.047 6.053v34.334a6.05 6.05 0 006.047 6.053 6.05 6.05 0 006.047-6.053V22.046a6.05 6.05 0 00-6.047-6.053v-.017zm-6.047-9.824a6.05 6.05 0 006.047 6.053 6.05 6.05 0 006.047-6.053A6.05 6.05 0 00147.556.1a6.05 6.05 0 00-6.047 6.053zm244.538 56.082c1.607 0 3.147-.64 4.282-1.779a6.056 6.056 0 001.765-4.29V30.43a2.53 2.53 0 012.528-2.53c6.125.009 11.086 4.982 11.086 11.113v17.084a6.05 6.05 0 006.047 6.054 6.05 6.05 0 006.047-6.054V39.014c-.045-12.767-10.376-23.109-23.13-23.154a22.747 22.747 0 00-8.575 1.654 22.763 22.763 0 00-8.575-1.654c-12.752.055-23.076 10.39-23.13 23.154v17.084a6.05 6.05 0 006.046 6.054 6.05 6.05 0 006.047-6.054V39.014c0-6.131 4.961-11.104 11.086-11.114a2.53 2.53 0 012.528 2.53v25.668a6.056 6.056 0 001.765 4.291 6.044 6.044 0 004.282 1.78l-.099.065z"/></g></svg>