<svg xmlns="http://www.w3.org/2000/svg" width="25" height="25" fill="none"><g clip-path="url(#a)"><path fill="#DA4E31" d="M12.5.065C5.597.065 0 5.639 0 12.515c0 6.877 5.597 12.452 12.5 12.452S25 19.392 25 12.516C25 5.639 19.403.065 12.5.065Zm0 23.303c-1.964 0-3.556-1.306-3.556-2.918h7.113c0 1.611-1.593 2.918-3.557 2.918Zm5.874-3.885H6.625v-2.122h11.75v2.122Zm-.042-3.214H6.66c-.04-.045-.079-.089-.116-.134-1.203-1.455-1.486-2.214-1.761-2.988-.005-.026 1.458.298 2.495.53 0 0 .534.123 1.315.265-.75-.875-1.195-1.987-1.195-3.124 0-2.496 1.922-4.677 1.229-6.44.675.055 1.397 1.419 1.445 3.551.718-.987 1.018-2.79 1.018-3.896 0-1.145.757-2.475 1.515-2.52-.676 1.108.175 2.058.93 4.416.284.885.247 2.376.466 3.32.073-1.962.412-4.826 1.662-5.815-.552 1.245.081 2.803.514 3.552.699 1.209 1.123 2.125 1.123 3.856 0 1.161-.43 2.254-1.157 3.109.826-.154 1.396-.293 1.396-.293l2.68-.521s-.389 1.595-1.886 3.132Z"/></g><defs><clipPath id="a"><path fill="#fff" d="M0 0h25v25H0z"/></clipPath></defs></svg>