<svg xmlns="http://www.w3.org/2000/svg" width="174" height="174" viewBox="0 0 174 174"><g fill="none"><path fill="#80B541" d="M11.694 94.178c1.848.924 4.62 1.848 7.546 1.848 3.08 0 4.774-1.232 4.774-3.234 0-1.848-1.386-2.926-5.082-4.158-4.928-1.694-8.316-4.466-8.316-8.932 0-5.082 4.312-9.086 11.396-9.086 3.388 0 5.852.77 7.7 1.54l-1.54 5.544c-1.232-.616-3.388-1.54-6.314-1.54s-4.312 1.386-4.312 2.926c0 1.848 1.694 2.772 5.544 4.158 5.236 2.002 7.854 4.774 7.854 8.932 0 5.082-3.85 9.24-12.166 9.24-3.388 0-6.776-.924-8.47-1.848l1.386-5.39zm28.49-20.328c0 1.848-1.386 3.388-3.696 3.388-2.156 0-3.542-1.54-3.542-3.388 0-2.002 1.386-3.388 3.542-3.388 2.156 0 3.696 1.386 3.696 3.388zm-6.93 27.72V79.856h6.776v21.714h-6.776zm17.864-28.49v6.16h4.928v4.928h-4.928v7.854c0 2.618.616 3.85 2.618 3.85.77 0 1.54-.154 2.002-.154v5.082c-.924.308-2.464.616-4.466.616-2.156 0-4.004-.77-5.082-1.848-1.232-1.232-1.848-3.388-1.848-6.468v-8.778h-2.926v-4.928h2.926V74.62l6.776-1.54zM63.13 92.484c.154 2.772 2.926 4.158 6.16 4.158 2.31 0 4.158-.308 6.006-.924l.924 4.62c-2.156.924-4.928 1.386-7.854 1.386-7.392 0-11.55-4.312-11.55-11.088 0-5.544 3.388-11.55 10.934-11.55 7.084 0 9.702 5.544 9.702 10.934 0 1.232-.154 2.156-.154 2.618l-14.168-.154zm8.008-4.62c0-1.694-.77-4.466-3.85-4.466-2.926 0-4.004 2.618-4.158 4.466h8.008z"/><path fill="#000" d="M78.684 101.57v-4.158l3.696-3.388c6.314-5.698 9.394-8.932 9.548-12.32 0-2.31-1.386-4.158-4.774-4.158-2.464 0-4.62 1.232-6.16 2.464l-1.848-4.928c2.156-1.694 5.544-2.926 9.548-2.926 6.622 0 10.164 3.85 10.164 9.086 0 4.928-3.542 8.778-7.7 12.474l-2.618 2.156v.154h10.934v5.544h-20.79zm33.88 0v-6.93H99.782v-4.466l10.934-17.71h8.316v16.94h3.388v5.236h-3.542v6.93h-6.314zm0-12.012v-6.314c0-1.694.154-3.542.154-5.39h-.154c-.924 1.848-1.694 3.542-2.618 5.39l-3.85 6.314v.154h6.468v-.154z"/><path fill="#000" d="M128.426 79.856l2.156 3.542 1.848 3.234h.154c.616-1.232 1.078-2.31 1.694-3.388l1.848-3.542h7.392l-7.238 10.472 7.238 11.396h-7.7l-2.156-3.85c-.616-1.078-1.232-2.156-1.694-3.234h-.154c-.462 1.232-1.078 2.156-1.694 3.234l-2.002 3.85h-7.392l7.392-11.088-7.238-10.626h7.546z"/><path fill="#000" d="M163.692 72.618v4.312l-12.012 24.64h-7.238l12.012-23.254v-.154H143.21v-5.544z"/></g></svg>