<svg xmlns="http://www.w3.org/2000/svg" width="512" height="512" fill="none" viewBox="0 0 512 512"><path fill="#fff" d="M0 0h512v512H0z"/><path fill="#31292B" d="M21 277.394c-7.589 0-12.774-2.347-12.774-2.347v-6.676s8.05 2.587 12.695 2.587c4.184 0 8.284-.778 8.284-5.88 0-3.921-2.861-4.798-6.43-5.812l-3.328-.937C15.115 257.078 8 255.279 8 246.489c0-9.882 7.887-12.23 16.016-12.23 7.272 0 11.452 2.423 11.452 2.423v6.431s-5.42-2.589-11.756-2.589c-5.117 0-8.358 1.019-8.358 5.495 0 3.837 2.935 4.79 6.495 5.722l4.022 1.103c4.723 1.243 10.756 4.083 10.756 11.911.002 9.971-7.037 12.639-15.626 12.639zm43.144 0c7.66 0 19.11-2.359 19.11-21.574 0-18.978-11.758-21.563-19.11-21.563-7.899 0-19.114 3.128-19.114 21.563 0 18.98 11.137 21.574 19.114 21.574zm0-37.345c4.252 0 11.37 1.101 11.37 15.769 0 14.125-7.585 15.689-11.37 15.689-3.18 0-11.38-1.097-11.38-15.689.001-14.423 7.12-15.769 11.38-15.769zm29.152 36.546h7.736v-55.23h-7.736v55.23zm52.593-.004v-28.063c0-10.904-6.188-14.281-15.17-14.281-8.439 0-15.401 2.908-15.401 2.908v6.36s7.823-2.905 14.32-2.905c5.337 0 8.511 1.25 8.511 6.661v3.612h-9.05c-6.576 0-17.26 2.194-17.26 13.721 0 10.507 6.885 12.786 13.158 12.786 8.663 0 13.393-6.202 13.393-6.202l.771 5.405h6.728v-.002zm-7.74-10.735s-5.57 5.413-11.219 5.413c-4.102 0-7.358-1.561-7.358-6.899 0-6.755 4.174-8.628 11.219-8.704l7.358-.087v10.277zm35.746-24.552c3.945 0 6.419 1.183 6.419 1.183v-7.139s-1.618-1.093-5.559-1.093c-7.049 0-9.604 6.504-9.604 6.504l-1.006-5.736h-6.115v41.572h7.735v-30.267s3.558-5.024 8.13-5.024zm78.347-6.281h-8.684l-4.941 23.858c-1.321 6.203-2.569 14.118-2.569 14.118s-1.691-8.708-3.326-14.118l-7.03-23.858h-11.149l-7.045 23.858c-1.618 5.489-3.248 14.118-3.248 14.118s-1.321-8.629-2.478-14.118l-4.96-23.858h-8.813l10.83 41.572h10.688l6.331-22.187c1.632-5.732 4.262-15.53 4.262-15.53s2.472 9.718 4.184 15.608l6.344 22.109H241.4l10.842-41.572zm9.665 41.568h7.743v-41.838h-7.743v41.838zm56.249.004v-28.378c0-10.593-5.744-13.96-13.312-13.96-8.754 0-15.564 6.656-15.564 6.656l-1.55-5.888h-5.956v41.572h7.739V246.25s6.654-5.261 13.544-5.261c5.273 0 7.358 1.97 7.358 7.14v28.468h7.741v-.002zm46.213.012v-55.232h-7.74v17.105s-3.485-4.233-10.843-4.233c-5.499 0-18.581 2.675-18.581 21.585 0 18.653 10.618 21.558 17.032 21.558 8.907 0 13.236-6.043 13.236-6.043l.852 5.262h6.044v-.002zm-7.74-10.196s-5.277 4.775-10.843 4.775c-4.799 0-10.83-1.65-10.83-15.356 0-13.036 5.957-15.31 11.602-15.31 5.738 0 10.073 4.159 10.073 4.159v21.732h-.002zm31.553 10.983c8.589 0 15.636-2.666 15.636-12.639 0-7.828-6.049-10.668-10.775-11.911l-4.013-1.103c-3.559-.932-6.5-1.887-6.5-5.722 0-4.476 3.252-5.495 8.357-5.495 6.339 0 11.764 2.589 11.764 2.589v-6.431s-4.184-2.423-11.452-2.423c-8.127 0-16.022 2.348-16.022 12.23 0 8.79 7.113 10.589 11.449 11.84l3.334.937c3.555 1.014 6.422 1.893 6.422 5.812 0 5.102-4.1 5.88-8.29 5.88-4.629 0-12.683-2.587-12.683-2.587v6.676s5.172 2.347 12.773 2.347z"/><path fill="#FF8E05" d="M439.879 209.71c-5.572 1.553-11.226 2.803-16.752 4.544-11.247-10.26-25.615-17.064-41.479-18.797 12.387-8.922 39.45-25.605 78.244-25.673l-9.647 8.969s40.875-1.474 51.186-15.753c-.074 1.338-.918 3.093-1.339 4.31-2.937 8.765-8.26 15.837-14.881 21.291-6.448 5.325-13.785 9.101-21.209 12.248-7.584 3.213-15.21 6.319-23.055 8.566-.363.101-.706.204-1.068.295zM504 208.306s-37.724-2.925-76.903 9.865a75.094 75.094 0 0112.926 18.702c20.614-11.624 49.181-26.474 63.977-28.567zm-61.392 34.531a74.858 74.858 0 014.665 19.779l35.903-37.437-40.568 17.658zm19.377 19.684c1.682 0 3.211-1.064 3.211-3.12 0-2.097-1.529-3.124-3.211-3.124-1.673 0-3.202 1.013-3.202 3.124.002 2.071 1.529 3.12 3.202 3.12zm0-5.544c1.293 0 2.435.726 2.435 2.424 0 1.678-1.142 2.423-2.435 2.423-1.282 0-2.433-.745-2.433-2.423 0-1.731 1.151-2.424 2.433-2.424zm1.293 3.956l-.254-.706c-.105-.288-.24-.55-.411-.714.315-.132.568-.375.568-.82 0-.833-.661-.957-1.276-.957h-.965v3.199h.666V259.7l.414-.008c.154.119.263.426.344.718l.146.525h.768v-.002zm-1.369-2.678c.486 0 .601.072.601.438 0 .365-.208.531-.904.531v-.969h.303z"/><path fill="#31292B" d="M268.174 294.402h-6.175v41.424h6.175v-41.424zM301.427 321.051c0 4.814-1.224 8.57-3.649 11.264-2.435 2.694-5.824 4.053-10.171 4.053-2.717 0-5.113-.63-7.2-1.869-2.082-1.251-3.688-3.028-4.805-5.353-1.124-2.32-1.684-5.014-1.684-8.095 0-4.775 1.208-8.502 3.623-11.18 2.42-2.678 5.822-4.019 10.224-4.019 4.207 0 7.529 1.372 9.978 4.114 2.456 2.735 3.684 6.434 3.684 11.085zm-21.149 0c0 6.804 2.476 10.2 7.434 10.2 4.898 0 7.35-3.396 7.35-10.2 0-6.72-2.462-10.091-7.402-10.091-2.589 0-4.476.873-5.633 2.618-1.161 1.737-1.749 4.233-1.749 7.473zM331.713 306.383v3.432l-4.96.945c.451.609.831 1.367 1.124 2.283.3.905.446 1.862.446 2.873 0 3.04-1.035 5.421-3.095 7.166-2.071 1.737-4.913 2.602-8.542 2.602-.93 0-1.77-.072-2.523-.208-1.332.833-1.992 1.813-1.992 2.925 0 .681.302 1.181.93 1.523.622.335 1.766.506 3.433.506h5.065c3.201 0 5.64.685 7.311 2.074 1.659 1.379 2.492 3.38 2.492 5.99 0 3.336-1.358 5.911-4.077 7.72-2.715 1.809-6.633 2.71-11.766 2.71-3.958 0-6.98-.699-9.067-2.124-2.084-1.41-3.126-3.443-3.126-6.075 0-1.809.572-3.335 1.69-4.559 1.136-1.235 2.717-2.093 4.748-2.564-.825-.361-1.5-.933-2.036-1.733-.533-.778-.796-1.61-.796-2.483 0-1.095.3-2.033.916-2.797.609-.753 1.525-1.512 2.731-2.257-1.502-.657-2.725-1.729-3.661-3.213-.943-1.478-1.41-3.217-1.41-5.201 0-3.196.996-5.672 2.976-7.426 1.992-1.751 4.822-2.64 8.502-2.64.821 0 1.686.057 2.589.183.904.107 1.581.236 2.04.354h10.058v-.006zm-22.827 34.027c0 1.352.595 2.387 1.797 3.116 1.206.726 2.881 1.097 5.061 1.097 3.355 0 5.863-.498 7.51-1.474 1.646-.977 2.472-2.268 2.472-3.886 0-1.276-.451-2.185-1.355-2.727-.903-.539-2.576-.817-5.03-.817h-4.678c-1.768 0-3.175.426-4.219 1.268-1.037.84-1.558 1.984-1.558 3.423zm2.651-24.496c0 1.846.471 3.268 1.4 4.258.946.992 2.284 1.486 4.042 1.486 3.573 0 5.357-1.933 5.357-5.8 0-1.91-.443-3.385-1.327-4.429-.89-1.041-2.232-1.558-4.03-1.558-1.787 0-3.145.517-4.065 1.542-.92 1.029-1.377 2.535-1.377 4.501zM361.632 306.383v3.432l-4.96.945c.453.609.834 1.367 1.13 2.283.3.905.446 1.862.446 2.873 0 3.04-1.033 5.421-3.103 7.166-2.067 1.737-4.913 2.602-8.541 2.602-.929 0-1.771-.072-2.522-.208-1.329.833-1.998 1.813-1.998 2.925 0 .681.311 1.181.936 1.523.62.335 1.762.506 3.429.506h5.074c3.202 0 5.641.685 7.298 2.074 1.665 1.379 2.498 3.38 2.498 5.99 0 3.336-1.356 5.911-4.075 7.72-2.712 1.809-6.637 2.71-11.766 2.71-3.962 0-6.986-.699-9.068-2.124-2.077-1.41-3.125-3.443-3.125-6.075 0-1.809.572-3.335 1.696-4.559 1.132-1.235 2.713-2.093 4.742-2.564-.825-.361-1.502-.933-2.035-1.733-.533-.778-.799-1.61-.799-2.483 0-1.095.298-2.033.92-2.797.609-.753 1.523-1.512 2.731-2.257-1.508-.657-2.727-1.729-3.667-3.213-.937-1.478-1.408-3.217-1.408-5.201 0-3.196.994-5.672 2.984-7.426 1.986-1.751 4.824-2.64 8.496-2.64.823 0 1.688.057 2.583.183.912.107 1.585.236 2.042.354h10.062v-.006zm-22.827 34.027c0 1.352.601 2.387 1.797 3.116 1.204.726 2.892 1.097 5.063 1.097 3.359 0 5.866-.498 7.518-1.474 1.645-.977 2.466-2.268 2.466-3.886 0-1.276-.449-2.185-1.354-2.727-.9-.539-2.577-.817-5.032-.817h-4.676c-1.766 0-3.178.426-4.216 1.268-1.043.84-1.566 1.984-1.566 3.423zm2.655-24.496c0 1.846.472 3.268 1.408 4.258.936.992 2.278 1.486 4.03 1.486 3.573 0 5.357-1.933 5.357-5.8 0-1.91-.44-3.385-1.321-4.429-.885-1.041-2.229-1.558-4.036-1.558-1.787 0-3.135.517-4.055 1.542-.926 1.029-1.383 2.535-1.383 4.501zM373.195 294.402h-6.177v41.424h6.177v-41.424zM377.611 306.383h6.724l5.909 16.693c.891 2.379 1.492 4.615 1.787 6.708h.214c.148-.976.44-2.164.862-3.551.42-1.399 2.643-8.008 6.667-19.85h6.676l-12.417 33.358c-2.264 6.127-6.03 9.179-11.307 9.179-1.362 0-2.696-.144-3.999-.448v-4.946c.934.212 1.994.315 3.186.315 2.982 0 5.075-1.743 6.281-5.242l1.083-2.766-11.666-29.45zM411.476 296.837c0 .434-.072.813-.208 1.167a2.859 2.859 0 01-.566.897 2.915 2.915 0 01-.868.589 2.932 2.932 0 01-1.11.202c-.405 0-.78-.064-1.119-.198a2.536 2.536 0 01-1.433-1.478 3.334 3.334 0 01-.207-1.177c0-.426.074-.817.209-1.167a2.66 2.66 0 01.568-.897c.249-.258.536-.451.877-.593.338-.136.71-.202 1.105-.202.402 0 .776.064 1.11.202.342.14.634.335.875.593.244.247.432.543.565.897.128.348.202.739.202 1.165zm-.391 0c0-.41-.062-.768-.193-1.079a2.367 2.367 0 00-.5-.794 2.162 2.162 0 00-.75-.486 2.462 2.462 0 00-.924-.175c-.329 0-.623.06-.916.175a2.222 2.222 0 00-.753.486c-.21.22-.381.482-.5.794a2.813 2.813 0 00-.189 1.079c0 .407.059.761.189 1.072.119.315.288.578.5.793.214.216.467.38.753.494.291.115.587.164.916.164.33 0 .634-.049.924-.164.286-.114.54-.278.756-.494.216-.215.385-.478.5-.793.125-.313.187-.665.187-1.072zm-1.663 1.519l-.829-1.25h-.231v1.204h-.689v-3.157h1.068c.362 0 .648.087.854.251.2.155.298.394.298.713 0 .419-.195.714-.586.866l.831 1.251-.716.122zm-.212-2.192c0-.296-.175-.438-.518-.438h-.33v.897h.323c.35 0 .525-.152.525-.459z"/></svg>
