<svg xmlns="http://www.w3.org/2000/svg" xmlns:xlink="http://www.w3.org/1999/xlink" width="148" height="60" viewBox="0 0 148 60"><defs><path id="fs-jcoogz8vsa" d="M.608.33h30.776v12.927H.608z"/><path id="fs-gu0gnh2avc" d="M.804.2h19.668v7.326H.804z"/></defs><g fill="none" fill-rule="evenodd"><g transform="translate(106 11.95)"><mask id="fs-vdy0isbuwb" fill="#fff"><use xlink:href="#fs-jcoogz8vsa"/></mask><path fill="#F99E21" d="M.608 8.428a.74.74 0 01.23-.2 39.304 39.304 0 013.49-2.145 34.897 34.897 0 014.464-2.03c1.343-.515 2.718-.916 4.12-1.26l1.633-.343 1.515-.256c.288-.058.603-.029.888-.086.372-.086.743-.028 1.117-.115h.057l2.432-.086c.027 0 .058 0 .115.028l-.8.742-.832.743c-.256.256-.542.458-.8.773.114 0 .2.028.286 0 .143-.028.256-.028.402-.028a9.792 9.792 0 001.572-.144l.887-.085 1.344-.2 1.373-.23 2.549-.602a17.89 17.89 0 001.746-.6c.74-.315 1.459-.658 2.088-1.173.256-.2.514-.4.716-.658.058-.057.087-.143.172-.143.029.086 0 .171-.027.256-.43 1.288-.946 2.518-1.748 3.635a12.982 12.982 0 01-1.973 2.202c-1.374 1.203-2.89 2.089-4.521 2.86l-2.917 1.26-3.776 1.344-2.576.686-2.318.63h-.027c-.315.086-.288.086-.545-.115a18.102 18.102 0 00-2.975-2.118c-1.116-.657-2.288-1.172-3.52-1.602a15.503 15.503 0 00-2.318-.602l-1.458-.23c.058-.028 0-.058-.057-.115l-.008.007z" mask="url(#fs-vdy0isbuwb)"/></g><path fill="#686969" d="M100.054 35.785v-2.518c0-.2-.057-.315-.2-.429-.915-.658-1.889-1.03-3.033-.858-.973.144-1.632.658-2.004 1.575-.23.572-.314 1.144-.342 1.746-.03.601-.03 1.229.057 1.83.086.487.2.945.401 1.374.255.458.602.857 1.088 1.03a3.007 3.007 0 002.003.086c.685-.2 1.258-.544 1.83-.945.144-.128.2-.23.2-.4v-2.491zm.23 4.106c-.144.028-.17.128-.23.171a4.23 4.23 0 01-2.374 1.204 4.695 4.695 0 01-2.432-.2 3.79 3.79 0 01-2.003-1.659 5.458 5.458 0 01-.63-1.774c-.172-.858-.172-1.715-.128-2.575a6.202 6.202 0 01.63-2.347c.513-1 1.344-1.69 2.404-2.089a5.714 5.714 0 012.288-.286 3.701 3.701 0 011.859.686l.288.2h.027c.057-.086.029-.172.029-.257v-3.52c0-.514 0-.428.457-.428h1.431c.145 0 .145.028.145.143v13.504c0 .515.057.429-.43.429h-1.001c-.144 0-.17-.028-.17-.172l-.172-1.03h.013zm-31.36.057l.17-.972.489-2.49.458-2.176.717-3.49c0-.058.028-.128.057-.172a.205.205 0 01.144-.143h1.945c.144 0 .172.057.144.171l-.2.801L71.56 36.4l-.945 3.548-.286 1.059c-.028.057-.059.086-.128.128h-2.506c-.173 0-.173 0-.23-.2l-1.519-5.293-.971-3.52-.086-.384c0-.028-.028-.028-.059-.028-.03 0-.028 0-.056.028l-.086.23-.4 1.517-2.048 7.125c-.058.171-.058.343-.2.486-.173 0-.343.029-.487.029H59.53c-.256 0-.23 0-.286-.23l-.515-1.946-.973-3.748-1.203-4.48c0-.058-.028-.086-.028-.144 0-.028.028-.057.058-.085.03-.029.085-.029.142-.029h1.86c.2 0 .2.029.257.23l.544 2.576.83 4.147.255 1.488.17 1c.088 0 .088-.057.13-.143l.485-2.232.344-1.229 1.545-5.15.172-.543c.028-.086.085-.144.171-.144h2.576c.2 0 .2 0 .256.23l.485 1.632.573 1.888 1.144 3.976.344 1.575c-.029.128-.029.171.057.2l.003-.015z"/><g transform="translate(117.52 23.47)"><mask id="fs-9lqgk051zd" fill="#fff"><use xlink:href="#fs-gu0gnh2avc"/></mask><path fill="#F99E21" d="M20.473.2c-.086.085-.143.115-.23.115-1.059.171-2.061.514-3.062.857L14.434 2.29l-1.574.716-4.263 2.118-3.29 1.745-.887.487c-.115.057-.2.115-.343.171-.057-.143-.143-.257-.2-.37-.056-.116-.143-.231-.199-.344a20.662 20.662 0 00-1.774-2.688L.931 2.98a.644.644 0 01-.115-.144c-.03-.057 0-.085.028-.115.058-.028.115-.057.172-.057l3.09-.858 3.033-.658 1.488-.23L10.4.662l.887-.086c.343-.058.686-.028 1.03-.115h.058l1.316-.086 1.63-.115h4.95c.086-.058.143-.058.2-.058L20.473.2z" mask="url(#fs-9lqgk051zd)"/></g><path fill="#686969" d="M17.083 32.567c-.2-.057-.343-.13-.486-.173-.658-.229-1.316-.4-2.032-.457-.256-.03-.486-.057-.742-.03-.4.03-.773.059-1.173.202-.399.142-.773.514-.773 1.058-.009.192.01.386.058.573.128.384.384.601.717.742.304.132.62.237.944.314l1.316.385c.515.142.973.384 1.402.686a2.532 2.532 0 011.03 2.003c.028.515 0 1.059-.171 1.545-.2.6-.573 1.03-1.117 1.343-.486.288-1 .429-1.545.516-.572.085-1.172.085-1.745.057-.83-.057-1.66-.2-2.46-.486-.315-.13-.257-.087-.257-.384v-1.284c0-.13.058-.143.144-.13l1.401.385c.658.144 1.344.288 2.032.231.343-.029.658-.057.973-.171.514-.2.8-.572.829-1.144 0-.201.028-.401-.028-.602a1.13 1.13 0 00-.487-.603c-.314-.229-.686-.313-1.058-.4l-1.545-.428a3.845 3.845 0 01-1.402-.716 2.395 2.395 0 01-.887-1.63 7.384 7.384 0 010-1.116c.086-.717.4-1.318 1.001-1.748.429-.315.915-.485 1.431-.63.802-.198 1.631-.17 2.46-.126.686.057 1.374.2 2.004.485.085.03.171.087.171.2v1.516l-.005.017zm94.874-.001l-.515-.173a7.537 7.537 0 00-1.917-.429c-.487-.057-.973-.027-1.46.03-.2.027-.4.085-.572.171-.343.144-.572.383-.658.743-.057.229-.085.486-.028.715.086.46.4.718.801.888.383.17.774.256 1.173.383.543.145 1.116.288 1.63.516.63.285 1.173.686 1.517 1.288.16.303.268.632.315.971a3.617 3.617 0 01-.143 1.66 2.506 2.506 0 01-1.431 1.603c-.429.198-.887.287-1.345.384-.571.084-1.115.084-1.689.058a9.669 9.669 0 01-2.517-.515c-.029 0-.058-.028-.086-.058-.058-.028-.128-.057-.128-.144V39.14c0-.087.057-.128.143-.087l1.374.385c.686.172 1.401.287 2.117.255.286-.027.601-.057.887-.17.499-.146.847-.597.859-1.118v-.28c0-.486-.23-.801-.63-1.03-.287-.173-.63-.256-.945-.343l-1.715-.516a4.052 4.052 0 01-1.172-.6 2.48 2.48 0 01-.916-1.431 3.625 3.625 0 01.029-1.745c.229-.858.8-1.431 1.602-1.775.572-.23 1.203-.342 1.802-.384h1.145a6.2 6.2 0 012.26.515c.086.027.172.085.172.2l.028 1.574.013-.025zm-31.273 3.261v-5.162c0-.087.028-.128.143-.128h1.26c.143 0 .198.028.23.172l.23.857.086.315c.028.058.086.058.128.027a.525.525 0 00.172-.142c.572-.458 1.172-.83 1.858-1.09a5.172 5.172 0 012.176-.372c.49.024.97.12 1.431.288.658.255 1.116.717 1.402 1.344.2.429.287.915.315 1.374.057.716.028 1.43.028 2.145v5.494c0 .057-.028.126-.128.126h-1.776c-.143 0-.171-.027-.171-.17v-6.913l-.028-.6c0-.258-.086-.459-.2-.688-.143-.23-.315-.429-.572-.513a3.221 3.221 0 00-.744-.173c-.857-.058-1.63.145-2.404.488-.425.2-.835.428-1.23.684a.462.462 0 00-.23.402v7.354c0 .142-.028.172-.172.172h-1.715c-.128 0-.143-.03-.143-.145v-.325l.057-4.835-.003.014zM27.41 35.8c0-.314-.028-.628-.058-.971a5.166 5.166 0 00-.384-1.545c-.4-.888-1.088-1.402-2.089-1.46a4.187 4.187 0 00-.858 0c-.573.028-1.059.257-1.488.659-.429.402-.658.914-.801 1.458-.172.602-.2 1.228-.23 1.831 0 .256.057.514.057.772.02.493.126.977.315 1.432.2.515.486.972.945 1.316.336.246.73.403 1.144.457a3.27 3.27 0 001.659-.17c.717-.287 1.144-.83 1.43-1.545.257-.687.344-1.46.344-2.234h.014zm-2.86-5.464c.62-.028 1.24.06 1.83.257 1.289.401 2.146 1.259 2.604 2.518.2.544.315 1.087.384 1.659.048.522.067 1.047.058 1.572-.028.83-.171 1.66-.486 2.433-.459 1.087-1.26 1.86-2.375 2.232a5.015 5.015 0 01-1.716.286h-.717c-.686-.027-1.373-.142-2.031-.429a3.837 3.837 0 01-1.746-1.487c-.384-.629-.572-1.288-.717-2.002a8.018 8.018 0 01-.115-1.86c.028-.888.143-1.747.486-2.56a3.983 3.983 0 012.346-2.318 6.236 6.236 0 012.202-.314l-.008.013zm19.053 6.782v-1.173c0-.087-.028-.145-.128-.145-.887.03-1.802-.057-2.688.087-.253.03-.503.087-.743.172-.602.23-1.001.63-1.173 1.26-.086.428-.128.857-.028 1.287.143.6.515.973 1.116 1.116.487.127.945.085 1.431-.03.23-.054.45-.141.658-.256.487-.23.945-.544 1.374-.916a.406.406 0 00.143-.314l.028-1.087.01-.001zm.028 2.717c-.085.027-.128.086-.171.143-.717.685-1.545 1.145-2.56 1.288a4.436 4.436 0 01-2.117-.13c-.4-.126-.743-.285-1.059-.57-.429-.385-.686-.858-.83-1.403a3.812 3.812 0 01-.113-1c0-.686.128-1.345.458-1.917.256-.429.63-.773 1.088-1.032.544-.315 1.116-.486 1.715-.6.43-.087.887-.087 1.316-.087h2.09c.127 0 .143-.027.143-.142v-.904c0-.2-.058-.402-.128-.602-.128-.385-.384-.63-.717-.742a2.29 2.29 0 00-.63-.173 7.085 7.085 0 00-1.545 0c-.717.087-1.431.232-2.117.46l-.743.229c-.057-.085-.028-.17-.028-.256v-1.171c0-.173 0-.2.2-.256.515-.2 1.059-.315 1.63-.43a10.117 10.117 0 012.776-.199 4.58 4.58 0 011.487.315c.85.344 1.48 1.08 1.69 1.974.128.429.143.886.143 1.344v7.008c0 .13-.028.144-.143.144h-1.431c-.144 0-.172-.028-.2-.171l-.086-.718c-.057-.127-.086-.255-.143-.4l.025-.002z"/><path fill="#F99E21" d="M132.643 28.105c0 .085-.086.143-.143.2l-2.947 3.033-5.064 5.235-.857.915c-.028.028-.058.058-.086.028-.028-.029-.028-.057-.058-.085-.144-1.575-.515-3.062-1.058-4.55 0-.028-.028-.057-.028-.085-.086-.256-.086-.256.142-.343l3.434-1.488 3.261-1.401 2.746-1.203c.173-.058.315-.144.486-.2.06-.058.117-.086.173-.058l-.001.002z"/><path fill="#686969" d="M75.563 35.8v-5.206c0-.087.028-.13.143-.13h1.716c.129 0 .143.029.143.144v10.387c0 .085-.028.127-.143.127h-1.716c-.126 0-.143-.027-.143-.144V35.8zm-24.978-3.892l.315-.457c.316-.46.744-.8 1.288-1.002.23-.086.46-.143.686-.143.429 0 .887-.027 1.316.143a.558.558 0 00.2.058c.085.03.143.087.143.171v1.66c-.128.027-.23-.029-.315-.058a4.922 4.922 0 00-1.115-.199 2.117 2.117 0 00-1.432.429c-.23.17-.457.342-.658.57-.144.174-.23.345-.23.573v7.296c0 .086-.028.128-.144.128h-1.772c-.057 0-.129-.027-.129-.128V30.664c0-.143.028-.171.172-.171h1.26c.127 0 .142.028.17.143l.232 1.29.013-.018zm-16.567 2.174v6.895c0 .058-.028.13-.128.13h-1.8c-.06 0-.129-.03-.129-.13v-13.59c0-.458-.058-.4.4-.4h1.46c.086 0 .127.028.127.143v.287l.057 6.666.013-.001z"/><path fill="#F99E21" d="M132.643 28.105c0-.029 0-.058.027-.058.057.058-.027.028-.027.058"/></g></svg>