<svg xmlns="http://www.w3.org/2000/svg" width="40" height="33" fill="none" viewBox="0 0 40 33"><path fill="#F99D1C" fill-rule="evenodd" d="M19.044 15.35c-.61.17-1.22.33-1.83.49-1.22.32-2.44.64-3.659 1.037A23.96 23.96 0 000 10.686c7.468-5.47 16.42-8.433 25.613-8.481l-3.16 2.968S35.842 4.664 39.168 0a9.5 9.5 0 01-.415 1.442 15.587 15.587 0 01-4.907 7.039 28.551 28.551 0 01-6.902 4.07 62.618 62.618 0 01-7.568 2.8c-.058-.06-.156-.037-.239-.017-.035.008-.068.016-.093.016zM40 14.926a73.247 73.247 0 00-25.114 3.223 24.589 24.589 0 014.24 6.19c6.737-3.816 16.05-8.734 20.874-9.413zM21.455 32.821a24.082 24.082 0 00-1.497-6.53l13.223-5.768-11.726 12.298zm4.824-.085c.54-.044.948-.52.92-1.072a1.01 1.01 0 00-1.027-.966 1.012 1.012 0 00-.974 1.02 1.01 1.01 0 00.315.757.97.97 0 00.766.26zm.578-1.584a.756.756 0 00-.578-.197c-.416 0-.832.17-.832.763a.786.786 0 00.253.566.755.755 0 00.579.197c.415 0 .831-.17.831-.763a.786.786 0 00-.253-.566zm-.163 1.075l-.083-.255c0-.084-.083-.17-.166-.254a.442.442 0 01.065-.055c.057-.042.101-.075.101-.2 0-.254-.25-.339-.416-.339h-.332v1.103h.25v-.424h.166c.083 0 .083.17.083.254l.083.17h.25zm-.27-.827c-.021-.021-.063-.021-.145-.021h-.167v.339c.25 0 .333-.085.333-.17s0-.127-.021-.148z" clip-rule="evenodd"/></svg>