<svg xmlns="http://www.w3.org/2000/svg" width="32" height="10" fill="none"><path fill="#000" d="M9.52 3.77v3.56h1.34l-.02-3.54-.03-3.53-.64-.03L9.52.2v3.57Zm13.09 0v3.56h1.33l.03-1.19.03-1.18.82 1.14c.45.63.86 1.2.9 1.25.06.1.95-.16 1.15-.34.04-.05-.34-.61-.87-1.24l-.94-1.17.34-.37c.19-.21.56-.61.84-.89l.48-.53-.51-.22-.52-.22-.86 1-.86.99-.05-2.06-.05-2.06-.64-.03-.65-.03v3.57l.03.02ZM1.13 2.48c-.42.13-.77.49-.89.94-.16.6.05.99.94 1.7.62.49.77.68.79.94.06.64-.73.82-1.36.33l-.27-.21-.2.33c-.11.19-.18.38-.14.43.13.23.94.48 1.51.48 1.14 0 1.82-.55 1.82-1.46 0-.47-.03-.56-.44-.95-.24-.23-.66-.6-.93-.81-.54-.43-.61-.71-.24-.95.25-.16.7-.13.97.08.07.05.14.08.16.06.14-.2.37-.57.37-.62 0-.04-.22-.14-.48-.24-.52-.18-1.14-.2-1.62-.06l.01.01Zm4.89.06c-.2.08-.46.26-.59.37l-.24.22v-.65H3.95V9.8h1.24V6.78l.24.21c.37.35.65.44 1.23.44 1.28-.01 2.14-.88 2.31-2.32.08-.67-.16-1.56-.55-2.02-.55-.65-1.61-.89-2.4-.55Zm1.02.82c.82.58.65 2.8-.24 3.23-.27.12-.37.12-.72 0-.74-.26-1.09-1.37-.78-2.48.22-.76 1.14-1.17 1.74-.74v-.01Zm12.18-.84c-.2.09-.46.27-.59.38l-.24.22v-.66l-.64.03-.65.03-.03 2.39-.02 2.4h1.34V5.76c0-2.09.16-2.47 1.08-2.47.86 0 .98.31.98 2.43v1.59h1.36l-.04-1.89c-.04-2.06-.11-2.33-.72-2.78-.38-.28-1.34-.34-1.84-.12h.01ZM11.61 4.4c.02 1.63.06 1.99.22 2.28.28.51.73.74 1.43.74s1.06-.12 1.4-.43l.23-.22v.27c0 .28.01.28.67.28h.67V2.47h-1.34v1.65c0 2.17-.09 2.37-1.07 2.37-.77 0-.82-.13-.87-2.23l-.03-1.79h-1.35l.04 1.93Zm16.48-1.39v.44l1.47.7 1.46.71-1.46.73-1.47.74v.88l1.96-.98 1.96-.98v-.77l-1.91-.96c-1.05-.52-1.93-.95-1.96-.95-.03 0-.05.2-.05.43v.01Z"/></svg>