<svg xmlns="http://www.w3.org/2000/svg" xmlns:xlink="http://www.w3.org/1999/xlink" width="148" height="60" viewBox="0 0 148 60"><defs><path id="fs-571m861xla" d="M0 .85h61.216V21.6H0z"/><path id="fs-xqdicev2wc" d="M0 26.684h89.994V0H0z"/></defs><g fill="none" fill-rule="evenodd" transform="translate(29 17)"><g transform="translate(0 5.084)"><mask id="fs-i5vsdiqyhb" fill="#fff"><use xlink:href="#fs-571m861xla"/></mask><path fill="#000" d="M57.65 14.8V7.08l-.078-1.584a3.59 3.59 0 00-.348-.966c-.424-.774-1.159-1.12-2.202-1.12a3.617 3.617 0 00-1.739.424 2.62 2.62 0 00-1.082 1.236c-.117.31-.232.618-.27 1.005-.038.348-.076.85-.076 1.468v7.305H48.26V1.236h3.595v1.816c.696-.774 1.39-1.314 2.126-1.661.733-.348 1.584-.503 2.52-.503 1.081 0 1.98.233 2.704.657a3.69 3.69 0 011.584 1.893c.078.195.155.388.194.619l.155.735c.05.32.076.642.078.966V14.8h-3.567zm-15.419 0v-1.817c-.696.775-1.392 1.314-2.127 1.662-.734.347-1.583.502-2.519.502-1.082 0-1.98-.193-2.705-.619a3.54 3.54 0 01-1.585-1.893 3.796 3.796 0 01-.193-.619l-.117-.733a6.95 6.95 0 01-.078-.966V1.275h3.594v7.767l.077 1.583c.078.348.195.696.349.966.423.774 1.159 1.16 2.2 1.16 1.354 0 2.282-.58 2.79-1.711.118-.309.233-.618.27-.965.055-.501.081-1.005.08-1.508V1.225h3.592v13.613h-3.628V14.8zm-16.82-7.072c0 1.081-.157 2.048-.503 2.935a7.54 7.54 0 01-1.353 2.358c-.58.658-1.275 1.197-2.089 1.546-.81.388-1.66.54-2.589.54a5.345 5.345 0 01-1.16-.115 5.585 5.585 0 01-1.042-.348 4.864 4.864 0 01-.967-.657c-.354-.316-.688-.65-1.003-1.005V21.6h-3.506V1.236h3.477v1.98c.618-.812 1.314-1.391 2.048-1.739.735-.387 1.624-.54 2.59-.54.89 0 1.71.155 2.434.502a6.14 6.14 0 011.894 1.392c.54.58.928 1.314 1.236 2.125.349.851.502 1.778.502 2.79l.03-.018zm-3.788.163c0-1.468-.31-2.666-.89-3.516-.618-.85-1.44-1.275-2.473-1.275-1.081 0-1.98.463-2.59 1.352-.657.89-.964 2.126-.964 3.71 0 1.508.307 2.706.926 3.593.618.888 1.507 1.315 2.589 1.315.657 0 1.197-.156 1.624-.502a4.202 4.202 0 001.043-1.275 4.863 4.863 0 00.54-1.7 6.966 6.966 0 00.195-1.711v.01zm-11.999 3.16c0 .58-.118 1.16-.388 1.662-.26.49-.614.923-1.044 1.275a5.344 5.344 0 01-1.622.812 6.89 6.89 0 01-2.049.309c-.89 0-1.71-.117-2.395-.348C1.44 14.53.735 14.104 0 13.564l1.159-1.894c.58.464 1.082.812 1.508 1.045a3.03 3.03 0 001.392.307c.58 0 1.043-.154 1.39-.462.348-.309.541-.697.541-1.197 0-.232-.039-.425-.077-.619a2.314 2.314 0 00-.349-.58 3.82 3.82 0 00-.695-.656l-1.16-.85-1.043-.776a6.609 6.609 0 01-.928-.888 5.012 5.012 0 01-.695-1.044 3.474 3.474 0 01-.27-1.314 3.4 3.4 0 01.347-1.545c.23-.465.56-.874.967-1.197.386-.309.888-.58 1.468-.774C4.135.925 4.752.85 5.41.85c.696 0 1.391.076 2.048.27a6.984 6.984 0 011.817.812L8.23 3.642c-.734-.503-1.468-.774-2.279-.774-.502 0-.89.117-1.197.387-.308.27-.464.578-.464.965 0 .348.155.696.426.966.269.309.773.696 1.44 1.237l1.71 1.314c.462.387.81.734 1.08 1.081.271.347.464.657.54 1.005.078.462.156.85.156 1.236l-.017-.008z" mask="url(#fs-i5vsdiqyhb)"/></g><mask id="fs-22k89izbod" fill="#fff"><use xlink:href="#fs-xqdicev2wc"/></mask><path fill="#000" d="M26.928 20.658h3.594V.755h-3.594v19.903zm36.788-.774h3.594v-7.188l5.4 7.459 3.334-1.152-5.449-6.762 4.59-4.946-2.705-1.16-4.792 5.565h-.387V0h-3.594l.01 19.884z" mask="url(#fs-22k89izbod)"/><path fill="#989898" d="M79.135 8.91V6.475l10.858 5.447v2.203l-10.858 5.409V17.14l8.424-4.134z" mask="url(#fs-22k89izbod)"/></g></svg>