<svg xmlns="http://www.w3.org/2000/svg" width="40" height="40" fill="none" viewBox="0 0 40 40"><path fill="#009" fill-rule="evenodd" d="M0 40h40V0H0v40z" clip-rule="evenodd"/><path fill="#FEFEFE" fill-rule="evenodd" d="M15.478 10.036l-1.235 1.5c-1.059-.83-1.73-1.059-2.7-1.059-.76 0-1.3.242-1.465.636v.511c.103.218.354.353.725.46.247.07.687.176 1.323.317 1.967.437 2.982.918 3.34 1.89l.001 1.914c-.43 1.24-1.763 2.02-3.712 2.02-1.71 0-2.928-.441-4.357-1.712l1.323-1.482c.653.529 1.182.882 1.623 1.058.442.195.917.283 1.464.283.748 0 1.32-.223 1.506-.64v-.615c-.134-.286-.459-.455-.836-.563-.245-.053-.688-.158-1.322-.3-1.925-.422-2.825-.883-3.157-1.76V10.57c.428-1.126 1.7-1.944 3.598-1.944 1.551 0 2.628.37 3.88 1.411zm16.586-1.112v9.019h-2.1v-.954c-.476.777-1.358 1.236-2.645 1.236-2.134 0-3.194-1.112-3.194-2.86v-6.44h2.294v5.805c0 .936.51 1.5 1.5 1.5 1.145 0 1.851-.652 1.851-1.87V8.924h2.294zm-11.152 15.66v6.302h-2.294v-5.613c0-1.076-.441-1.73-1.429-1.73-1.005 0-1.587.743-1.587 1.801v5.542h-2.294v-5.613c0-1.147-.475-1.73-1.428-1.73-1.006 0-1.588.743-1.588 1.801v5.542H8v-9.02h2.134v1.008c.53-.865 1.393-1.306 2.575-1.306 1.146 0 2.01.476 2.504 1.322.618-.881 1.518-1.322 2.7-1.322 1.904 0 2.999 1.163 2.999 3.016zm11.484 3.684c-.666 1.783-2.288 2.9-4.348 2.9-2.071 0-3.698-1.117-4.363-2.9v-3.801c.665-1.785 2.292-2.899 4.363-2.899 2.06 0 3.682 1.114 4.348 2.899v3.8zm-6.487-.554c.359.952 1.124 1.513 2.14 1.513 1.002 0 1.764-.561 2.122-1.513v-2.675c-.356-.95-1.118-1.531-2.123-1.531-1.015 0-1.782.58-2.139 1.53v2.676z" clip-rule="evenodd"/></svg>