<svg width="1635" height="181" viewBox="0 0 1635 181" fill="none" xmlns="http://www.w3.org/2000/svg">
<path fill-rule="evenodd" clip-rule="evenodd" d="M1346.6 63.9828C1346.6 61.5173 1344.8 60 1342.4 60H1337V71H1340.2V67.5862H1341L1343.4 71H1347L1344.4 67.0173C1345.6 66.8276 1346.6 65.6897 1346.6 63.9828ZM1341.98 65.6897H1340V63H1341.98C1342.86 63 1343.52 63.6207 1343.52 64.2414C1343.52 65.2759 1342.86 65.6897 1341.98 65.6897Z" fill="#4B4E52"/>
<path d="M33.448 45.7476L0 64.8867L51.9638 94.9909V155L85.4118 135.861C86.8054 135.063 88 132.87 88 131.076V74.0575L38.8235 45.7476C37.2308 44.7508 34.8416 44.7508 33.448 45.7476Z" fill="#5CE500"/>
<path d="M36.1498 145.791V104.022L0 124.906L36.1498 145.791ZM74.896 0.602442C73.4979 -0.200814 71.1012 -0.200814 69.5035 0.602442L31.9556 22.2903L104.055 64.0597V148L141.404 126.312C142.802 125.509 144 123.3 144 121.493V40.7653L74.896 0.602442Z" fill="#5CE500"/>
<path d="M354.034 67.8C341.185 67.8 330.947 72.6 324.523 81.8C317.697 91.4 316.694 102.8 316.694 108.8C316.694 133.6 331.349 149.6 354.234 149.6C381.938 149.6 391.775 127.4 391.775 108.2C391.775 97.2 388.563 87.2 382.54 80C375.715 71.8 365.677 67.8 354.034 67.8ZM354.034 134.8C341.386 134.8 333.356 124.6 333.356 108.4C333.356 92 341.185 81.8 354.034 81.8C366.681 81.8 374.711 92 374.711 108.2C374.711 124.6 366.681 134.8 354.034 134.8ZM224.347 41H185V147.6H202.465V105.6H224.749C248.839 105.6 262.089 94 262.089 72.6C261.687 63.6 258.074 41 224.347 41ZM222.139 90.2H202.265V57H224.548C237.396 57 243.82 62.4 243.82 73.4C243.82 85.4 237.597 90.2 222.139 90.2ZM302.239 68.2C295.615 69 290.596 72.4 286.581 78.6V69H271.324V147.2H287.584V113.6C287.584 98 288.789 84.8 305.251 84.8C307.057 84.8 308.463 85 310.269 85.6L312.277 86.2L315.288 70.4L314.084 69.8C310.671 68.6 306.455 68 302.239 68.2ZM738.474 104.6C734.66 103.2 726.429 101 720.206 99.6C717.195 98.8 714.585 98.2 712.778 97.6C706.755 95.8 703.744 93.4 703.744 89.8C703.744 82.4 714.183 81.4 718.801 81.4C724.221 81.4 733.255 82.8 734.66 91.8L734.861 93H750.52V91.6C749.315 75.8 738.474 68.2 717.998 68.2C702.74 68.2 687.283 75.4 687.283 91C687.283 99.4 692.904 106.6 702.941 109.8C706.755 111.2 713.38 113 719.804 114.8C723.418 115.6 727.031 116.8 729.641 117.4C734.459 118.8 736.868 121.6 736.868 125.2C736.868 132.4 728.236 135 720.005 135C712.577 135 703.543 133 701.335 123.4L701.134 122.2H685.476L685.676 124C687.082 140.2 699.528 148.8 720.005 148.8C743.092 148.8 753.732 136.2 753.732 123.6C753.531 114.8 748.311 108.2 738.474 104.6ZM455.614 75.8C450.595 70.4 443.368 67.8 434.535 67.8C410.846 67.8 400.006 88.8 400.006 108.2C400.006 128 410.846 148.4 434.535 148.4C442.565 148.4 449.592 145.4 454.61 140.4C454.61 144 454.61 147.2 454.41 148.4C453.607 161.2 447.183 167.2 434.937 167.2C428.111 167.2 420.282 164.8 418.676 158L418.475 156.6H402.616L402.816 158.6C404.623 172.4 416.668 181 434.736 181C450.395 181 461.436 175 467.258 164C469.868 158.6 471.072 150.8 471.072 140.6V69.6H455.815C455.614 69.4 455.614 75.8 455.614 75.8ZM435.74 133.6C430.119 133.6 416.869 131 416.869 107.2C416.869 91.6 424.297 82 436.141 82C445.376 82 455.012 88.6 455.012 107.2C455.413 123.8 448.186 133.6 435.74 133.6ZM663.192 104.6C659.378 103.2 651.147 101 644.924 99.6C641.912 98.8 639.303 98.2 637.496 97.6C631.473 95.8 628.462 93.4 628.462 89.8C628.462 82.4 638.901 81.4 643.518 81.4C648.939 81.4 657.973 82.8 659.378 91.8L659.579 93H675.237V91.6C674.033 75.8 663.192 68.2 642.715 68.2C627.458 68.2 612 75.4 612 91C612 99.4 617.621 106.6 627.659 109.8C631.473 111.2 638.098 113 644.522 114.8C648.136 115.6 651.749 116.8 654.359 117.4C659.177 118.8 661.586 121.6 661.586 125.2C661.586 132.4 652.954 135 644.723 135C637.295 135 628.261 133 626.053 123.4L625.852 122.2H610.194L610.394 124C611.8 140.2 624.246 148.8 644.723 148.8C667.81 148.8 678.449 136.2 678.449 123.6C678.65 114.8 673.431 108.2 663.192 104.6ZM603.368 104.6C602.565 82.8 588.312 68 567.634 68C555.589 68 545.752 72.8 539.127 81.4C533.707 88.6 530.696 98.4 530.696 108.6C530.696 132.8 545.752 149 568.236 149C585.702 149 597.747 140.4 601.963 124.2L602.565 122.4H586.304L586.103 123.2C582.891 132.8 574.66 134.8 568.437 134.8C556.191 134.8 548.362 126.8 547.358 113.6H602.967L603.167 112.2C603.368 110.4 603.368 107.8 603.368 106V104.6ZM547.96 99.8C549.366 89 556.593 82.2 567.433 82.2C575.463 82.2 585.1 87 586.304 99.8H547.96ZM516.442 68.2C509.817 69 504.799 72.4 500.784 78.6V69H485.526V147.2H501.787V113.6C501.787 98 502.992 84.8 519.454 84.8C521.26 84.8 522.666 85 524.472 85.6L526.48 86.2L529.491 70.4L528.287 69.8C524.874 68.6 520.658 68 516.442 68.2ZM771.599 64.8C771.599 62.2 769.792 60.6 767.383 60.6H761.962V72.2H765.174V68.6H765.977L768.386 72.2H772L769.39 68C770.595 67.8 771.599 66.6 771.599 64.8ZM766.981 66H765.174V63.4H766.981C767.784 63.4 768.386 64 768.386 64.6C768.587 65.6 767.985 66 766.981 66Z" fill="#4B4E52"/>
<path d="M766.997 55C760.999 55 756 60.0182 756 66.5C756 73.4 760.999 78 766.997 78C772.996 78 777.994 72.9818 777.994 66.5C778.194 59.8091 772.996 55 766.997 55ZM766.997 76.3273C761.998 76.3273 757.999 72.3546 757.999 66.7091C757.999 61.0636 761.799 57.0909 766.997 57.0909C771.996 57.0909 775.995 61.0636 775.995 66.7091C775.995 72.3546 771.796 76.3273 766.997 76.3273Z" fill="#4B4E52"/>
<path d="M1450.35 60.1228C1443.05 54.1228 1436.25 50.4228 1428.45 49.1228C1405.05 45.0228 1387.45 56.4228 1381.95 79.5228C1378.55 93.4228 1379.55 107.123 1385.95 120.123C1398.45 145.623 1429.85 143.823 1443.75 132.723C1445.45 131.323 1446.25 130.023 1446.25 127.723C1446.15 119.823 1446.05 111.823 1446.25 103.923C1446.35 101.323 1445.55 100.523 1442.85 100.623C1436.35 100.823 1429.85 100.523 1423.35 100.723C1420.75 100.823 1419.85 100.023 1419.95 97.4227C1420.05 95.0227 1420.05 93.4228 1423.35 93.5228C1432.55 93.7228 1441.65 93.7228 1450.85 93.5228C1453.45 93.5228 1454.25 94.1228 1454.25 96.8228C1454.15 108.223 1454.15 119.623 1454.25 131.123C1454.25 133.623 1453.15 135.023 1451.55 136.623C1434.85 153.123 1401.65 152.223 1385.45 134.823C1366.45 114.423 1366.15 75.4227 1384.75 54.8227C1399.95 38.1227 1428.85 35.0228 1447.35 47.9228C1451.75 51.0228 1449.15 55.1228 1450.35 60.1228Z" fill="#4C4F53"/>
<path d="M1555.55 91.7227C1555.55 108.623 1555.45 125.423 1555.65 142.323C1555.65 145.623 1554.65 146.523 1551.45 146.423C1548.55 146.323 1547.05 146.123 1547.15 142.523C1547.35 108.323 1547.35 74.0227 1547.15 39.8227C1547.15 36.1227 1548.75 36.1227 1551.55 36.0227C1554.85 35.8227 1555.75 36.9227 1555.65 40.1227C1555.45 57.3227 1555.55 74.5227 1555.55 91.7227Z" fill="#4C4F53"/>
<path fill-rule="evenodd" clip-rule="evenodd" d="M1625.25 137.023C1626.45 146.323 1626.45 146.323 1634.15 146.323V36.2227C1629.92 36.2227 1627.82 36.2227 1626.78 37.2726C1625.75 38.3058 1625.75 40.3557 1625.75 44.4227V80.7227C1625.24 80.2454 1624.81 79.8473 1624.45 79.503C1623.9 78.9817 1623.47 78.5841 1623.05 78.2227C1606.95 62.5227 1582.35 66.7227 1573.05 87.2227C1566.45 101.823 1566.75 116.923 1573.65 131.323C1582.05 148.723 1604.05 153.823 1619.35 142.323C1620.7 141.311 1621.96 140.118 1623.28 138.865C1623.92 138.26 1624.57 137.641 1625.25 137.023ZM1625.75 117.723V107.723C1625.61 106.072 1625.76 104.248 1625.91 102.343C1626.18 98.8238 1626.48 95.0259 1625.05 91.5227C1621.65 83.3227 1614.75 78.1227 1605.75 76.9227C1596.65 75.7227 1588.95 78.7227 1583.55 86.3227C1574.95 98.2227 1575.05 118.923 1583.55 130.823C1589.35 139.023 1599.85 142.423 1609.65 139.323C1619.95 136.123 1625.75 128.223 1625.75 117.723Z" fill="#4C4F53"/>
<path fill-rule="evenodd" clip-rule="evenodd" d="M1471.85 85.9227C1467.95 93.0227 1466.55 100.723 1466.85 108.823C1466.55 117.023 1468.15 124.823 1472.25 132.223C1484.05 153.523 1515.55 154.423 1527.85 133.323C1536.75 117.923 1536.75 101.623 1528.85 85.8227C1523.15 74.3227 1513.05 68.8227 1500.05 68.9227C1487.35 69.0227 1477.85 74.7227 1471.85 85.9227ZM1519.85 130.123C1524.65 122.723 1525.75 114.523 1525.35 103.023C1525.35 99.9227 1523.85 94.1227 1520.95 88.8227C1512.95 74.1227 1493.75 72.0227 1482.75 84.4227C1472.65 96.0227 1472.55 121.023 1482.65 132.623C1493.05 144.523 1511.25 143.323 1519.85 130.123Z" fill="#4C4F53"/>
<path d="M1341.5 54C1335.23 54 1330 59.0182 1330 65.5C1330 72.4 1335.23 77 1341.5 77C1347.77 77 1352.99 71.9818 1352.99 65.5C1353.2 58.8091 1347.77 54 1341.5 54ZM1341.5 75.3273C1336.27 75.3273 1332.09 71.3546 1332.09 65.7091C1332.09 60.0636 1336.06 56.0909 1341.5 56.0909C1346.72 56.0909 1350.9 60.0636 1350.9 65.7091C1350.9 71.3546 1346.51 75.3273 1341.5 75.3273Z" fill="#4B4E52"/>
<path d="M850.441 59.6C842.841 87.2 835.141 114.6 827.641 142.1C826.641 145.8 824.941 146.7 821.441 146.6C819.041 146.5 818.141 145.7 817.441 143.4C808.341 110.1 799.141 76.9 790.041 43.6C789.941 43.3 790.041 42.9 790.141 42.6C798.341 41.3 798.341 41.3 800.241 48.6C807.641 75.7 814.941 102.7 822.741 131.2C825.041 123 827.041 116 828.941 108.9C834.641 88.1 840.341 67.2 846.041 46.3C846.841 43.5 847.641 42 851.141 42C854.641 42 855.141 43.9 855.841 46.3C863.241 73.2 870.541 100.1 877.941 127C878.241 127.9 878.541 128.8 879.241 130.9C883.341 115.8 887.141 101.8 890.941 87.8C894.341 75.1 897.841 62.3 901.241 49.6C903.341 42 903.341 42 911.941 42.5C908.841 53.8 905.841 65 902.841 76.2C896.841 98.2 890.841 120.1 884.841 142.1C884.041 145.1 883.241 146.7 879.341 146.8C875.341 146.8 874.741 144.8 873.941 141.9C866.841 116.1 859.741 90.4 852.441 64.6C852.241 62.9 852.341 60.9 850.441 59.6Z" fill="#4C4F53"/>
<path d="M1245.94 80.4C1245.34 90.5 1246.94 102.9 1245.24 115.3C1241.84 139.9 1221.74 151.3 1198.54 148C1177.94 145.1 1165.74 130.8 1165.34 109.2C1164.94 88 1165.34 66.9 1165.14 45.7C1165.14 41.5 1167.44 42.4 1169.84 42.2C1172.94 41.9 1174.14 42.7 1174.14 46.1C1174.04 66.6 1173.84 87.1 1174.24 107.6C1174.54 120.1 1178.64 131.2 1190.74 137.2C1212.64 148.1 1236.34 133.7 1236.94 108.9C1237.44 88.2 1237.24 67.6 1237.14 46.9C1237.14 43.4 1237.74 42.1 1241.64 42C1245.74 41.9 1246.14 43.5 1246.04 46.9C1245.84 57.3 1245.94 67.7 1245.94 80.4Z" fill="#4C4F53"/>
<path d="M930.141 81C935.141 75.4 940.741 71.2 948.241 69.6C965.941 65.8 980.141 76.6 980.341 94.4C980.541 110.4 980.241 126.5 980.441 142.5C980.441 146 979.241 146.5 976.141 146.5C973.141 146.5 971.841 146 971.841 142.5C972.041 127.1 972.041 111.7 971.841 96.4C971.741 85.8 966.341 79.1 957.241 77.2C943.041 74.2 929.241 85.3 929.241 99.7C929.241 113.8 929.141 127.8 929.341 141.9C929.341 145 929.141 146.7 925.241 146.6C921.741 146.5 920.841 145.7 920.841 142.2C920.941 108.3 920.941 74.4 920.841 40.5C920.841 37.1 921.541 36.1 925.141 36C928.941 36 929.441 37.4 929.341 40.6C929.141 52.3 929.241 64.1 929.341 75.8C929.441 77.5 928.841 79.2 930.141 81Z" fill="#4C4F53"/>
<path d="M1104.44 132.1C1112.74 139.1 1122.14 141.8 1132.74 140.5C1138.34 139.8 1143.04 137.7 1145.44 132.3C1148.04 126.4 1146.04 120.5 1140.14 116.9C1134.74 113.6 1128.44 112.3 1122.64 109.8C1119.64 108.5 1116.44 107.3 1113.54 105.7C1106.54 101.9 1103.54 95.9 1103.84 88.1C1104.14 80.8 1107.64 75.3 1114.14 72.3C1126.14 66.6 1138.04 68 1149.44 74.3C1153.84 76.7 1150.54 80.9 1151.94 84.2C1149.54 84.5 1148.54 82.9 1147.24 82C1140.44 77.5 1133.04 75.9 1124.94 76.9C1118.14 77.8 1113.54 81.8 1112.64 87.3C1111.74 93 1114.04 96.8 1120.84 99.8C1127.54 102.7 1134.44 105 1141.14 107.8C1155.44 113.8 1159.54 130.1 1149.64 140.6C1144.84 145.7 1138.54 147.7 1131.74 148.3C1124.74 149 1117.84 147.9 1111.24 145.3C1103.64 142.4 1103.04 141.2 1104.44 132.1Z" fill="#4C4F53"/>
<path d="M1072.04 112.2C1072.04 102.1 1071.94 92.0001 1072.14 81.9001C1072.14 79.1001 1071.34 78.1001 1068.44 78.3001C1065.84 78.5001 1063.14 78.3001 1060.44 78.4001C1057.84 78.4001 1055.74 78.8001 1055.74 74.8001C1055.74 71.0001 1057.44 71.0001 1060.24 71.0001C1064.04 71.0001 1068.94 72.6001 1071.24 70.3001C1073.54 68.0001 1071.74 63.1001 1071.94 59.3001C1072.04 58.1001 1072.04 57.0001 1071.94 55.8001C1071.44 52.6001 1072.64 51.5001 1076.04 51.6001C1078.94 51.7001 1080.74 52.0001 1080.44 55.6001C1080.14 59.4001 1080.64 63.2001 1080.34 67.0001C1080.04 70.4001 1081.44 71.2001 1084.64 71.0001C1088.24 70.8001 1091.94 71.1001 1095.64 70.9001C1098.34 70.8001 1098.64 72.2001 1098.44 74.2001C1098.34 76.0001 1099.14 78.4001 1095.74 78.3001C1092.04 78.2001 1088.44 78.5001 1084.74 78.2001C1081.14 77.9001 1080.34 79.4001 1080.34 82.7001C1080.44 102.4 1080.34 122 1080.44 141.7C1080.44 145.1 1079.94 146.6 1075.94 146.6C1071.94 146.6 1071.94 144.8 1071.94 141.8C1072.14 132 1072.04 122.1 1072.04 112.2Z" fill="#4C4F53"/>
<path fill-rule="evenodd" clip-rule="evenodd" d="M1271.31 147.186C1271.33 143.966 1271.34 140.737 1271.34 137.5C1272.87 137.645 1273.6 138.532 1274.31 139.389C1274.58 139.71 1274.84 140.027 1275.14 140.3C1288.64 153.1 1311.24 151.1 1321.14 135.3C1331.54 118.7 1331.64 100.9 1322.24 84C1312.44 66.3 1289.04 63.8 1274.44 78C1274.23 78.207 1274.06 78.481 1273.88 78.7595C1273.38 79.5574 1272.85 80.393 1271.44 79.8C1271.44 79.3 1271.42 78.8 1271.4 78.3C1271.35 77.3 1271.31 76.3 1271.44 75.3C1271.94 71.7 1270.44 70.9 1267.04 70.9C1263.74 70.9 1262.94 71.8 1262.94 75C1263.04 107.1 1263.04 139.1 1262.94 171.2C1262.84 174.3 1263.54 175.4 1266.94 175.4C1270.34 175.4 1271.54 174.7 1271.44 171.1C1271.23 163.18 1271.27 155.208 1271.31 147.186ZM1271.34 99.9V110.1C1271.52 111.698 1271.37 113.534 1271.22 115.478C1270.94 118.886 1270.64 122.625 1272.04 126C1275.54 134 1282.14 139.2 1291.04 140.4C1300.04 141.6 1307.74 138.7 1313.34 131.2C1322.14 119.5 1322.04 98.1 1313.34 86.3C1307.44 78.2 1296.84 74.9 1287.14 78C1277.14 81.3 1271.34 89.3 1271.34 99.9Z" fill="#4C4F53"/>
<path fill-rule="evenodd" clip-rule="evenodd" d="M1002.74 143.7C1015.44 150.1 1027.74 148.7 1039.74 140C1039.77 140.263 1039.79 140.492 1039.81 140.694C1039.88 141.339 1039.92 141.72 1039.84 142.1C1039.44 145.2 1040.04 146.7 1043.94 146.7C1047.84 146.7 1048.04 145.1 1048.04 142C1047.99 133.75 1047.99 125.474 1047.99 117.199C1047.99 108.924 1047.99 100.65 1047.94 92.4C1047.94 81.5 1042.04 73.4 1031.94 70.4C1022.84 67.7 1013.84 68.9 1005.04 72.1C998.341 74.6 997.841 75.7 999.641 83C1010.44 77.7 1014.94 76.6 1023.34 77C1031.74 77.4 1037.74 82.5 1039.34 90.7C1040.14 94.6149 1040.05 98.4857 1039.96 102.546C1039.92 104.605 1039.87 106.713 1039.94 108.9C1039.13 108.389 1038.47 107.933 1037.87 107.523C1037.07 106.97 1036.39 106.502 1035.64 106.1C1024.04 99.8 1012.24 99.6 1001.04 106.5C986.341 115.5 987.341 135.9 1002.74 143.7ZM1033.54 136.2C1037.64 133.7 1040.74 130.3 1039.84 124.8C1040.84 119.1 1037.84 115.4 1033.34 112.6C1024.84 107.5 1016.04 107.4 1007.24 111.7C1002.24 114.1 999.341 118.3 999.141 123.9C998.941 129.7 1001.54 134.2 1006.64 136.9C1015.64 141.8 1024.74 141.5 1033.54 136.2Z" fill="#4C4F53"/>
</svg>