<svg xmlns="http://www.w3.org/2000/svg" viewBox="0 0 2886.76 756.06"><defs><clipPath id="fs-p2ohu7i1ra" transform="translate(-56.62 -1121.97)"><path fill="none" d="M56.62 1121.97h2886.76v756.06H56.62z"/></clipPath></defs><g clip-path="url(#fs-p2ohu7i1ra)"><path fill="#d40000" d="M0 .03h2886.76v756H0z"/></g><g clip-path="url(#fs-p2ohu7i1ra)"><path fill="#fff" d="M123.72 115.13h417.55v55L204.48 580.79h345.38v60.14H115.13v-55l336.78-410.68H123.72zm707.94 70.45l-97.94 261.18H929.6zm-41.28-70.45h80.8l202.76 525.8h-73.88l-48.12-134H711.38l-48.11 134h-75.61zm433 274.93v192.45h115.12c39.52 0 67-8.59 85.92-24.06s27.49-39.52 27.49-72.17-8.59-56.7-27.49-72.17-48.11-24-85.92-24zm0-216.51v158.09h106.53c34.37 0 61.86-6.88 79-18.91 17.19-13.74 25.78-32.64 25.78-60.14 0-25.77-8.59-46.39-25.78-60.14s-43-18.9-79-18.9zm-72.17-58.42h183.86c55 0 96.22 12 127.15 34.36 29.21 22.34 44.68 55 44.68 96.23 0 32.65-6.88 58.42-22.34 77.32s-37.8 30.93-67 36.09q54.12 10.31 82.47 46.39c18.91 24.06 29.22 53.27 29.22 89.36 0 46.39-15.47 82.47-48.12 108.25s-77.32 37.8-137.46 37.8h-192.4zm565.38 274.9v192.45h115.13c37.8 0 67-8.59 85.91-24.06s27.5-39.52 27.5-72.17-8.59-56.7-27.5-72.17-48.11-24-85.91-24zm0-216.51v158.09h106.54c34.36 0 61.86-6.88 79-18.91 17.18-13.74 25.77-32.64 25.77-60.14 0-25.77-8.59-46.39-25.77-60.14s-43-18.9-79-18.9zm-72.21-58.39h183.9c55 0 96.23 12 127.16 34.36 29.21 22.34 44.67 55 44.67 96.23 0 32.65-6.87 58.42-22.33 77.32s-37.81 30.93-67 36.09q54.13 10.31 82.48 46.39c18.9 24.06 29.21 53.27 29.21 89.36 0 46.39-15.46 82.47-48.11 108.25s-77.33 37.8-137.47 37.8h-192.51zm699.36 0h79l125.44 189 127.15-189h75.61l-165 245.72 185.57 280.08h-79l-145.97-219.9-146.06 219.9h-77.32l185.57-278.36zm-207.92 0h72.17v525.8h-72.17z"/></g></svg>