<svg xmlns="http://www.w3.org/2000/svg" xmlns:xlink="http://www.w3.org/1999/xlink" width="150" height="148" fill="none" viewBox="0 0 150 148"><linearGradient id="fs-d6vazw1sfc" x1="76.255" x2="76.255" y1="0" y2="147.49" gradientUnits="userSpaceOnUse"><stop offset="0" stop-color="#b5efff"/><stop offset="1" stop-color="#e7f8fe"/></linearGradient><linearGradient id="fs-xhsibz3h3f" x1="75.323" x2="75.323" y1="0" y2="146.628" gradientUnits="userSpaceOnUse"><stop offset="0" stop-color="#b5efff"/><stop offset="1" stop-color="#edfbff"/></linearGradient><linearGradient id="fs-tp0z04noxg" x1="121.797" x2="97.438" y1="29.527" y2="48.719" gradientUnits="userSpaceOnUse"><stop offset=".231"/><stop offset="1" stop-color="#cfd7df" stop-opacity="0"/></linearGradient><linearGradient id="fs-ctkj7bq7fa"><stop offset="0"/><stop offset=".844" stop-color="#fdfdfd" stop-opacity="0"/></linearGradient><linearGradient id="fs-r9o8aphaxl" x1="116.66" x2="110.991" y1="86.929" y2="111.883" gradientUnits="userSpaceOnUse" xlink:href="#fs-ctkj7bq7fa"/><linearGradient id="fs-mhoujqex9m" x1="125.165" x2="130.834" y1="86.929" y2="111.883" gradientUnits="userSpaceOnUse" xlink:href="#fs-ctkj7bq7fa"/><radialGradient id="fs-zeczivtgyh" cx="0" cy="0" r="1" gradientTransform="rotate(-15.177 363.358 -26.838) scale(17.9547)" gradientUnits="userSpaceOnUse"><stop offset="0" stop-color="#fff1cf"/><stop offset=".188" stop-color="#ffe4a2"/><stop offset=".318" stop-color="#ffd364"/><stop offset=".49" stop-color="#ffd364"/><stop offset=".651" stop-color="#ffc73a"/><stop offset=".948" stop-color="#d09500"/></radialGradient><linearGradient id="fs-bshb35243b"><stop offset="0" stop-color="#fff"/><stop offset=".694" stop-color="#fff" stop-opacity="0"/></linearGradient><radialGradient id="fs-jszyc73eqi" cx="0" cy="0" r="1" gradientTransform="matrix(-2.07728 3.33872 -3.04057 -1.89178 20.825 94.15)" gradientUnits="userSpaceOnUse" xlink:href="#fs-bshb35243b"/><radialGradient id="fs-bw1a3lbm6j" cx="0" cy="0" r="1" gradientTransform="rotate(-15.177 145.355 -417.953) scale(13.7042)" gradientUnits="userSpaceOnUse"><stop offset="0" stop-color="#e6c6ff"/><stop offset=".188" stop-color="#c07df5"/><stop offset=".318" stop-color="#be6ffc"/><stop offset=".49" stop-color="#b56af0"/><stop offset=".651" stop-color="#a745f4"/><stop offset=".948" stop-color="#9f3ded"/></radialGradient><radialGradient id="fs-ddvqop1syk" cx="0" cy="0" r="1" gradientTransform="matrix(-1.58552 2.54833 -2.32077 -1.44393 115.351 23.445)" gradientUnits="userSpaceOnUse" xlink:href="#fs-bshb35243b"/><clipPath id="fs-ro6ob712id"><path d="M0 0h150v148H0z"/></clipPath><mask id="fs-v22dka5mee" width="148" height="148" x="2" y="0" maskUnits="userSpaceOnUse"><path fill="url(#fs-d6vazw1sfc)" d="M76.255 147.49c40.728 0 73.745-33.017 73.745-73.745S116.983 0 76.255 0 2.51 33.017 2.51 73.745s33.017 73.745 73.745 73.745z"/></mask><g clip-path="url(#fs-ro6ob712id)" mask="url(#fs-v22dka5mee)"><path fill="url(#fs-xhsibz3h3f)" d="M75.323 146.628c40.723 0 73.735-32.824 73.735-73.314S116.046 0 75.323 0 1.587 32.824 1.587 73.314s33.013 73.314 73.736 73.314z"/><path fill="#fff" d="M98.766 39.41a3.129 3.129 0 00-3.13 3.129v183.11h186.24V39.41zm182.563 11.577h-11.122V39.866h11.122zm-92.345 69.646v-11.121h11.122v11.121zm11.122.547v11.122h-11.122V121.18zm-11.578-.547h-11.121v-11.121h11.121zm0 .547v11.122h-11.121V121.18zm-11.668 11.122h-11.121V121.18h11.121zm0 .456v11.121h-11.121v-11.121zm.547 0h11.121v11.121h-11.121zm11.121 11.577v11.121h-11.121v-11.121zm.456 0h11.122v11.121h-11.122zm0-.456v-11.121h11.122v11.121zm11.577-11.121h11.122v11.121h-11.122zm0-.456V121.18h11.122v11.122zm0-11.669v-11.121h11.122v11.121zm0-11.577V97.935h11.122v11.121zm-.455 0h-11.122V97.935h11.122zm-11.578 0h-11.121V97.935h11.121zm-11.668 0h-11.121V97.935h11.121zm0 .456v11.121h-11.121v-11.121zm-11.577 11.121h-11.122v-11.121h11.122zm0 .547v11.122h-11.122V121.18zm0 11.578v11.121h-11.122v-11.121zm0 11.577v11.121h-11.122v-11.121zm.456 0h11.121v11.121h-11.121zm11.121 11.668v11.122h-11.121v-11.122zm.547 0h11.121v11.122h-11.121zm11.577 0h11.122v11.122h-11.122zm11.577 0h11.122v11.122h-11.122zm0-.547v-11.121h11.122v11.121zm11.669-11.121h11.121v11.121H212.23zm0-.456v-11.121h11.121v11.121zm0-11.577V121.18h11.121v11.122zm0-11.669v-11.121h11.121v11.121zm0-11.577V97.935h11.121v11.121zm0-11.577V86.357h11.121V97.48H212.23zm-.547 0h-11.122V86.357h11.122V97.48zm-11.577 0h-11.122V86.357h11.122V97.48zm-11.578 0h-11.121V86.357h11.121V97.48zm-11.668 0h-11.121V86.357h11.121V97.48zm-11.577 0h-11.122V86.357h11.122V97.48zm0 .456v11.121h-11.122V97.935zm-11.578 11.121h-11.121V97.935h11.121zm0 .456v11.121h-11.121v-11.121zm0 11.668v11.122h-11.121V121.18zm0 11.578v11.121h-11.121v-11.121zm0 11.577v11.121h-11.121v-11.121zm0 11.668v11.122h-11.121v-11.122zm.456 0h11.122v11.122h-11.122zm11.122 11.577v11.122h-11.122V167.58zm.456 0h11.121v11.122h-11.121zm11.668 0h11.121v11.122h-11.121zm11.577 0h11.122v11.122h-11.122zm11.577 0h11.122v11.122h-11.122zm11.669 0h11.121v11.122H212.23zm0-.455v-11.122h11.121v11.122zm11.577-11.122h11.122v11.122h-11.122zm0-.547v-11.121h11.122v11.121zm0-11.577v-11.121h11.122v11.121zm0-11.577V121.18h11.122v11.122zm0-11.669v-11.121h11.122v11.121zm0-11.577V97.935h11.122v11.121zm0-11.577V86.357h11.122V97.48h-11.122zm0-11.669V74.69h11.122v11.12zm-.456 0H212.23V74.69h11.121zm-11.668 0h-11.122V74.69h11.122zm-11.577 0h-11.122V74.69h11.122zm-11.578 0h-11.121V74.69h11.121zm-11.668 0h-11.121V74.69h11.121zm-11.577 0h-11.122V74.69h11.122zm-11.578 0h-11.121V74.69h11.121zm0 .547V97.48h-11.121V86.357zM142.037 97.48h-11.121V86.357h11.121zm0 .456v11.121h-11.121V97.935h11.121zm0 11.577v11.121h-11.121v-11.121zm0 11.668v11.122h-11.121V121.18h11.121zm0 11.578v11.121h-11.121v-11.121zm0 11.577v11.121h-11.121v-11.121zm0 11.668v11.122h-11.121v-11.122zm0 11.577v11.122h-11.121V167.58h11.121zm.547 0h11.121v11.122h-11.121V167.58zm11.121 11.578v11.121h-11.121v-11.121zm.456 0h11.122v11.121h-11.122zm11.578 0h11.121v11.121h-11.121zm11.668 0h11.121v11.121h-11.121zm11.577 0h11.122v11.121h-11.122zm11.577 0h11.122v11.121h-11.122zm11.669 0h11.121v11.121H212.23zm11.577 0h11.122v11.121h-11.122zm0-.456V167.58h11.122v11.122h-11.122zm11.577-11.122h11.122v11.122h-11.122V167.58zm0-.455v-11.122h11.122v11.122zm0-11.669v-11.121h11.122v11.121zm0-11.577v-11.121h11.122v11.121zm0-11.577V121.18h11.122v11.122h-11.122zm0-11.669v-11.121h11.122v11.121zm0-11.577V97.935h11.122v11.121h-11.122zm0-11.577V86.357h11.122V97.48zm0-11.669V74.69h11.122v11.12h-11.122zm0-11.577V63.112h11.122v11.121h-11.122zm-.455 0h-11.122V63.112h11.122v11.121zm-11.578 0H212.23V63.112h11.121v11.121zm-11.668 0h-11.122V63.112h11.122v11.121zm-11.577 0h-11.122V63.112h11.122v11.121zm-11.578 0h-11.121V63.112h11.121v11.121zm-11.668 0h-11.121V63.112h11.121v11.121zm-11.577 0h-11.122V63.112h11.122v11.121zm-11.578 0h-11.121V63.112h11.121v11.121zm-11.668 0h-11.121V63.112h11.121v11.121zm0 .456v11.12h-11.121V74.69zM130.46 85.81h-11.122V74.69h11.122zm0 .547V97.48h-11.122V86.357zm0 11.578v11.121h-11.122V97.935zm0 11.577v11.121h-11.122v-11.121zm0 11.668v11.122h-11.122V121.18zm0 11.578v11.121h-11.122v-11.121zm0 11.577v11.121h-11.122v-11.121zm0 11.668v11.122h-11.122v-11.122zm0 11.577v11.122h-11.122V167.58zm0 11.578v11.121h-11.122v-11.121zm.456 0h11.121v11.121h-11.121zm11.121 11.668v11.122h-11.121v-11.122zm.547 0h11.121v11.122h-11.121zm11.577 0h11.122v11.122h-11.122zm11.578 0h11.121v11.122h-11.121zm11.668 0h11.121v11.122h-11.121zm11.577 0h11.122v11.122h-11.122zm11.577 0h11.122v11.122h-11.122zm11.669 0h11.121v11.122H212.23zm11.577 0h11.122v11.122h-11.122zm11.577 0h11.122v11.122h-11.122zm0-.547v-11.121h11.122v11.121zm11.669-11.121h11.121v11.121h-11.121zm0-.456V167.58h11.121v11.122zm0-11.577v-11.122h11.121v11.122zm0-11.669v-11.121h11.121v11.121zm0-11.577v-11.121h11.121v11.121zm0-11.577V121.18h11.121v11.122zm0-11.669v-11.121h11.121v11.121zm0-11.577V97.935h11.121v11.121zm0-11.577V86.357h11.121V97.48h-11.121zm0-11.669V74.69h11.121v11.12zm0-11.577V63.112h11.121v11.121zm0-11.577V51.534h11.121v11.122h-11.121zm-.547 0h-11.122V51.534h11.122v11.122zm-11.577 0h-11.122V51.534h11.122v11.122zm-11.578 0H212.23V51.534h11.121v11.122zm-11.668 0h-11.122V51.534h11.122v11.122zm-11.577 0h-11.122V51.534h11.122v11.122zm-11.578 0h-11.121V51.534h11.121v11.122zm-11.668 0h-11.121V51.534h11.121v11.122zm-11.577 0h-11.122V51.534h11.122v11.122zm-11.578 0h-11.121V51.534h11.121v11.122zm-11.668 0h-11.121V51.534h11.121v11.122zm-11.577 0h-11.122V51.534h11.122v11.122zm0 .456v11.121h-11.122V63.112h11.122zm-11.577 11.121h-11.122V63.112h11.122zm0 .456V85.81h-11.122V74.69h11.122zm0 11.668V97.48h-11.122V86.357zm0 11.578v11.121h-11.122V97.935zm0 11.577v11.121h-11.122v-11.121zm0 11.668v11.122h-11.122V121.18zm0 11.578v11.121h-11.122v-11.121zm0 11.577v11.121h-11.122v-11.121zm0 11.668v11.122h-11.122v-11.122zm0 11.577v11.122h-11.122V167.58zm0 11.578v11.121h-11.122v-11.121zm0 11.668v11.122h-11.122v-11.122zm.455 0h11.122v11.122h-11.122zm11.122 11.577v11.122h-11.122v-11.122zm.456 0h11.121v11.122h-11.121zm11.668 0h11.121v11.122h-11.121zm11.577 0h11.122v11.122h-11.122zm11.578 0h11.121v11.122h-11.121zm11.668 0h11.121v11.122h-11.121zm11.577 0h11.122v11.122h-11.122zm11.577 0h11.122v11.122h-11.122zm11.669 0h11.121v11.122H212.23zm11.577 0h11.122v11.122h-11.122zm11.577 0h11.122v11.122h-11.122zm11.669 0h11.121v11.122h-11.121zm0-.455v-11.122h11.121v11.122zm11.577-11.122h11.122v11.122H258.63zm0-.547v-11.121h11.122v11.121zm0-11.577V167.58h11.122v11.122zm0-11.577v-11.122h11.122v11.122zm0-11.669v-11.121h11.122v11.121zm0-11.577v-11.121h11.122v11.121zm0-11.577V121.18h11.122v11.122zm0-11.669v-11.121h11.122v11.121zm0-11.577V97.935h11.122v11.121zm0-11.577V86.357h11.122V97.48H258.63zm0-11.669V74.69h11.122v11.12zm0-11.577V63.112h11.122v11.121zm0-11.577V51.534h11.122v11.122H258.63zm0-11.669V39.866h11.122v11.121H258.63zm-.456 0h-11.121V39.866h11.121v11.121zm-11.668 0h-11.122V39.866h11.122v11.121zm-11.577 0h-11.122V39.866h11.122v11.121zm-11.578 0H212.23V39.866h11.121v11.121zm-11.668 0h-11.122V39.866h11.122v11.121zm-11.577 0h-11.122V39.866h11.122v11.121zm-11.578 0h-11.121V39.866h11.121v11.121zm-11.668 0h-11.121V39.866h11.121v11.121zm-11.577 0h-11.122V39.866h11.122v11.121zm-11.578 0h-11.121V39.866h11.121v11.121zm-11.668 0h-11.121V39.866h11.121v11.121zm-11.577 0h-11.122V39.866h11.122v11.121zm-11.577 0h-11.122V39.866h11.122v11.121zm0 .547v11.122h-11.122V51.534h11.122zm-11.669 11.122H96.093V51.534h11.121v11.122zm0 .456v11.121H96.093V63.112h11.121zm0 11.577V85.81H96.093V74.69h11.121zm0 11.668V97.48H96.093V86.357zm0 11.578v11.121H96.093V97.935zm0 11.577v11.121H96.093v-11.121zm0 11.668v11.122H96.093V121.18zm0 11.578v11.121H96.093v-11.121zm0 11.577v11.121H96.093v-11.121zm0 11.668v11.122H96.093v-11.122zm0 11.577v11.122H96.093V167.58zm0 11.578v11.121H96.093v-11.121zm0 11.668v11.122H96.093v-11.122zm0 11.577v11.122H96.093v-11.122zm.547 0h11.122v11.122h-11.122zm11.122 11.578v11.121h-11.122v-11.121zm.455 0h11.122v11.121h-11.122zm11.578 0h11.121v11.121h-11.121zm11.668 0h11.121v11.121h-11.121zm11.577 0h11.122v11.121h-11.122zm11.578 0h11.121v11.121h-11.121zm11.668 0h11.121v11.121h-11.121zm11.577 0h11.122v11.121h-11.122zm11.577 0h11.122v11.121h-11.122zm11.669 0h11.121v11.121H212.23zm11.577 0h11.122v11.121h-11.122zm11.577 0h11.122v11.121h-11.122zm11.669 0h11.121v11.121h-11.121zm11.577 0h11.122v11.121H258.63zm0-.456v-11.122h11.122v11.122zm11.577-11.122h11.122v11.122h-11.122zm0-.455v-11.122h11.122v11.122zm0-11.669v-11.121h11.122v11.121zm0-11.577V167.58h11.122v11.122zm0-11.577v-11.122h11.122v11.122zm0-11.669v-11.121h11.122v11.121zm0-11.577v-11.121h11.122v11.121zm0-11.577V121.18h11.122v11.122zm0-11.669v-11.121h11.122v11.121zm0-11.577V97.935h11.122v11.121zm0-11.577V86.357h11.122V97.48h-11.122zm0-11.669V74.69h11.122v11.12zm0-11.577V63.112h11.122v11.121zm0-11.577V51.534h11.122v11.122h-11.122zm-162.993-22.79v11.121H96.093v-7.992c0-1.728 1.4-3.129 3.128-3.129zM96.093 213.981h11.121v11.121H96.093zm174.114 11.121v-11.121h11.122v11.121z"/><path fill="#f5f5f5" d="M119.582 49.944v71.115a2.953 2.953 0 01-2.952 2.952H45.766a2.955 2.955 0 01-2.953-2.952V22.145a2.952 2.952 0 012.953-2.953h43.065c.78 0 1.528.308 2.081.857l27.814 27.814c.549.553.857 1.301.856 2.081z"/><path fill="#3687ec" d="M98.914 38.385H56.1a2.953 2.953 0 100 5.905h42.814a2.953 2.953 0 000-5.905zm0 13.286H56.1a2.953 2.953 0 100 5.906h42.814a2.953 2.953 0 000-5.906zm0 13.288H56.1a2.953 2.953 0 100 5.905h42.814a2.953 2.953 0 000-5.906zm0 13.286H56.1a2.953 2.953 0 000 5.905h42.814a2.953 2.953 0 000-5.905zM81.198 91.532H56.1a2.953 2.953 0 000 5.906h25.098a2.953 2.953 0 100-5.906z"/><path fill="#cfd7df" d="M90.056 45.766V19.192l29.526 29.527H93.009a2.953 2.953 0 01-2.953-2.953z"/><path fill="url(#fs-tp0z04noxg)" fill-opacity=".5" d="M90.056 45.766V19.192l29.526 29.527H93.009a2.953 2.953 0 01-2.953-2.953z"/><path fill="url(#fs-zeczivtgyh)" d="M24.178 107.41a9.415 9.415 0 100-18.83 9.415 9.415 0 00-9.415 9.415c0 5.2 4.216 9.415 9.415 9.415z"/><path fill="url(#fs-jszyc73eqi)" d="M18.733 97.535c-1.706-1.05-2.132-3.444-.951-5.314 1.148-1.87 3.477-2.56 5.183-1.51s2.133 3.445.952 5.315c-1.181 1.903-3.51 2.559-5.184 1.51z" opacity=".5"/><path fill="url(#fs-bw1a3lbm6j)" d="M117.911 33.565a7.186 7.186 0 007.186-7.186 7.187 7.187 0 10-7.186 7.186z"/><path fill="url(#fs-ddvqop1syk)" d="M113.754 26.029c-1.302-.802-1.627-2.63-.726-4.057.877-1.427 2.654-1.953 3.956-1.152 1.302.802 1.628 2.63.727 4.057-.902 1.452-2.68 1.953-3.957 1.152z" opacity=".5"/><path fill="#00a886" d="M118.297 111.487a.877.877 0 01-1.578.302l-3.829-5.578a.878.878 0 00-1.161-.264l-5.864 3.377a.878.878 0 01-1.293-.955l5.031-22.144a.877.877 0 011.05-.66l12.014 2.729a.878.878 0 01.661 1.05z"/><path fill="url(#fs-r9o8aphaxl)" fill-opacity=".6" d="M118.297 111.487a.877.877 0 01-1.578.302l-3.829-5.578a.878.878 0 00-1.161-.264l-5.864 3.377a.878.878 0 01-1.293-.955l5.031-22.144a.877.877 0 011.05-.66l12.014 2.729a.878.878 0 01.661 1.05z"/><path fill="#00a886" d="M123.528 111.487a.877.877 0 001.578.302l3.829-5.578a.878.878 0 011.161-.264l5.863 3.377c.663.381 1.463-.209 1.293-.955l-5.03-22.144a.878.878 0 00-1.05-.66l-12.014 2.729a.878.878 0 00-.661 1.05z"/><path fill="url(#fs-mhoujqex9m)" fill-opacity=".6" d="M123.528 111.487a.877.877 0 001.578.302l3.829-5.578a.878.878 0 011.161-.264l5.863 3.377c.663.381 1.463-.209 1.293-.955l-5.03-22.144a.878.878 0 00-1.05-.66l-12.014 2.729a.878.878 0 00-.661 1.05z"/><path fill="#ffd364" d="M123.643 56.19a6.068 6.068 0 004.278 1.564 6.067 6.067 0 016.229 5.216 6.111 6.111 0 002.28 3.95 6.05 6.05 0 011.416 8.003 6.098 6.098 0 00-.79 4.47 6.092 6.092 0 01-4.068 7.05 5.95 5.95 0 00-3.488 2.98 6.079 6.079 0 01-7.645 2.787c-1.456-.6-3.09-.6-4.546 0a6.08 6.08 0 01-7.645-2.786 5.96 5.96 0 00-3.487-2.981 6.098 6.098 0 01-4.069-7.05 6.093 6.093 0 00-.79-4.47 6.052 6.052 0 011.416-8.003 6.111 6.111 0 002.28-3.95 6.064 6.064 0 016.23-5.216 6.064 6.064 0 004.277-1.565 6.05 6.05 0 018.122 0z"/><g fill-opacity=".96"><path fill="#fbb13d" d="M119.582 85.331c6.36 0 11.516-5.155 11.516-11.515s-5.156-11.515-11.516-11.515-11.515 5.155-11.515 11.515 5.155 11.515 11.515 11.515z"/><path fill="#fff" d="M119.582 80.214a6.398 6.398 0 100-12.796 6.398 6.398 0 000 12.796z"/></g></g></svg>