<svg xmlns="http://www.w3.org/2000/svg" width="157" height="150" fill="none" viewBox="0 0 157 150"><path fill="#F2F4F9" fill-rule="evenodd" d="M81.44 129.472l41.778-41.779a6.669 6.669 0 119.431 9.432l-41.778 41.779a6.67 6.67 0 01-9.432-9.432z" clip-rule="evenodd"/><mask id="fs-rr5cm6xzfa" style="mask-type:alpha" width="21" height="21" x="9" y="87" maskUnits="userSpaceOnUse"><path fill="#fff" d="M9.295 87.34h19.8v19.8h-19.8v-19.8z"/></mask><g mask="url(#fs-rr5cm6xzfa)"><path fill="#F2F4F9" fill-rule="evenodd" d="M11.249 95.755l6.46-6.462a6.67 6.67 0 019.433 9.432l-6.461 6.462a6.67 6.67 0 01-9.432-9.432z" clip-rule="evenodd"/></g><path fill="#F2F4F9" fill-rule="evenodd" d="M84.408 108.013L103.5 88.919a6.633 6.633 0 00-1.95 4.715 6.633 6.633 0 001.95 4.715 6.67 6.67 0 009.432.002l-19.094 19.094a6.633 6.633 0 001.951-4.715 6.669 6.669 0 00-11.382-4.717zm-8.161-29.086l17.889-17.89a6.633 6.633 0 00-1.95 4.715 6.67 6.67 0 0011.381 4.717l-17.889 17.89a6.631 6.631 0 001.95-4.715 6.668 6.668 0 00-11.382-4.717z" clip-rule="evenodd"/><path fill="#F2F4F9" fill-rule="evenodd" d="M69.91 103.743l52.195-52.195a6.67 6.67 0 019.432 9.432l-52.195 52.195a6.67 6.67 0 01-9.431-9.432zM18.628 117.89l71.045-71.045a6.669 6.669 0 019.432 0 6.668 6.668 0 010 9.432L28.06 127.322a6.67 6.67 0 01-9.432-9.432zm12.559-46.772l26.365-26.365a6.67 6.67 0 019.431 9.432L40.62 80.55a6.67 6.67 0 01-9.432-9.432zM74.796 27.51l.157-.158a6.67 6.67 0 019.432 9.432l-.157.157a6.67 6.67 0 01-9.432-9.432zm-20.223 91.123l.158-.157a6.67 6.67 0 019.432 9.432l-.158.157a6.67 6.67 0 01-9.432-9.432z" clip-rule="evenodd"/><path fill="#717791" fill-rule="evenodd" d="M144.475 142.261c.456-.177.912-.194 1.369-.188.456.005.912.037 1.368.134a.41.41 0 010 .802 6.895 6.895 0 01-1.368.134c-.457.006-.913-.011-1.369-.188a.37.37 0 01-.213-.481.37.37 0 01.213-.213zm-124.99.018c5.124-.15 10.248-.175 15.373-.171l15.372-.012 30.744-.025 30.745-.025 15.372-.012c5.124.005 10.248.016 15.372.144a.43.43 0 010 .86c-5.124.129-10.248.14-15.372.144l-15.372-.012-30.745-.025-30.745-.025-15.371-.012c-5.124.004-10.249-.02-15.373-.17a.33.33 0 010-.659zm-3.025-.159c.067-.015.133 0 .2.002.034-.002.067.016.1.024a.3.3 0 01.1.043.506.506 0 010 .839.305.305 0 01-.1.043c-.033.008-.067.025-.1.024-.067.001-.133.016-.2.001a.5.5 0 010-.976zm-4.924.133a4.8 4.8 0 01.996-.133c.332-.021.664-.007.997.094a.412.412 0 010 .789 2.772 2.772 0 01-.997.094 4.8 4.8 0 01-.996-.133.368.368 0 010-.711z" clip-rule="evenodd"/><mask id="fs-qdw4om7a2b" style="mask-type:alpha" width="40" height="2" x="66" y="148" maskUnits="userSpaceOnUse"><path fill="#fff" d="M66.513 148.572h39.078v1.156H66.513v-1.156z"/></mask><g mask="url(#fs-qdw4om7a2b)"><path fill="#717791" fill-rule="evenodd" d="M66.812 148.821c1.6-.152 3.199-.171 4.798-.174l4.798-.025 9.596-.05 9.595.002 4.798.001c1.599.007 3.199.016 4.798.145a.431.431 0 010 .86c-1.599.129-3.199.138-4.798.145l-4.798.001-9.596.002-9.595-.049-4.798-.025c-1.6-.004-3.199-.023-4.798-.175a.33.33 0 010-.658z" clip-rule="evenodd"/></g><path fill="#717791" fill-rule="evenodd" d="M51.02 148.795c1.639-.087 3.278-.118 4.917-.133 1.64-.016 3.279-.01 4.918.094a.395.395 0 010 .788c-1.639.104-3.278.11-4.918.094a112.102 112.102 0 01-4.917-.133.355.355 0 010-.71z" clip-rule="evenodd"/><path stroke="#C9D7ED" stroke-linecap="round" stroke-linejoin="round" stroke-width="1.369" d="M141.183 113.186a1.273 1.273 0 11-2.546 0 1.273 1.273 0 012.546 0z" clip-rule="evenodd"/><path stroke="#C9D7ED" stroke-linecap="round" stroke-linejoin="round" stroke-width=".868" d="M155.397 49.282l.621 2.273-2.273.621-.622-2.273 2.274-.62z" clip-rule="evenodd"/><path stroke="#C9D7ED" stroke-linecap="round" stroke-linejoin="round" stroke-width="1.369" d="M4.247 48.053v6.302m3.151-3.151H1.096"/><path stroke="#C9D7ED" stroke-linecap="round" stroke-linejoin="round" stroke-width="1.369" d="M46.548 46.17a1.273 1.273 0 11-2.547 0 1.273 1.273 0 012.547 0z" clip-rule="evenodd"/><path stroke="#C9D7ED" stroke-linecap="round" stroke-linejoin="round" stroke-width="1.154" d="M141.586 73.757a1.273 1.273 0 11-2.546 0 1.273 1.273 0 012.546 0z" clip-rule="evenodd"/><path stroke="#C9D7ED" stroke-linecap="round" stroke-linejoin="round" stroke-width=".868" d="M71.258 38.518l.62 2.273-2.272.62-.621-2.272 2.273-.62z" clip-rule="evenodd"/><path stroke="#C9D7ED" stroke-linecap="round" stroke-linejoin="round" stroke-width="1.154" d="M27.258 85.29a1.483 1.483 0 112.966 0 1.483 1.483 0 01-2.966 0z" clip-rule="evenodd"/><path stroke="#CFD7DF" stroke-dasharray="1.56 1.56" stroke-linecap="round" stroke-width=".98" d="M85.096 106.743C76.982 105.324 51.583 99 59.77 76.208c0 0 11.818-30.722 46.37-23.236 0 0 11.864 3.548 11.592 14.309 0 0-4.184 35.559-76.22 4.31 0 0-56.675-41.299 42.192-67.321"/><path fill="#DBE2E8" fill-rule="evenodd" d="M54.765 91.149h-1.47v-1.485h-.98v1.485h-1.471v.989h1.47v1.486h.981v-1.486h1.47v-.99z" clip-rule="evenodd"/><path fill="#fff" stroke="#CFD7DF" stroke-width=".98" d="M85.418 5.88a2.44 2.44 0 100-4.88 2.44 2.44 0 000 4.88z"/><path fill="#fff" d="M114.545 80.03c0-7.643-6.212-13.757-13.978-13.757-7.765 0-13.977 6.114-13.977 13.756 0 1.092.222 1.965.444 2.839.887 0 1.996 0 2.884.218 0 0-.444-6.332 1.11-6.332 1.552 0 6.433.218 6.433-4.149 0 1.965 6.434 6.332 12.869 6.332 0 1.529.443 2.839 1.109 4.15l2.662-.22c.222-.873.222-1.964.444-2.838z"/><path fill="#fff" fill-rule="evenodd" stroke="#717791" stroke-linecap="round" stroke-linejoin="round" stroke-width="1.6" d="M114.545 77.081c0-8.079-6.656-14.63-14.865-14.63-8.21 0-14.865 6.551-14.865 14.63 0 1.092.222 2.184.444 3.057-.222.874-.444 1.747-.444 2.402 0 2.402 1.11 4.585 2.219 4.585.221 0 .443 0 .665-.218 1.775 6.77 6.434 11.573 11.981 11.573s10.206-4.804 11.981-11.573c.222.219.444.219.665.219 1.332 0 2.219-1.966 2.219-4.586 0-.873-.222-1.747-.444-2.402.222-.873.444-1.965.444-3.057z" clip-rule="evenodd"/><path fill="#CBDBFF" stroke="#717791" stroke-linecap="round" stroke-linejoin="round" stroke-width="1.6" d="M114.545 77.081c0-8.079-6.656-14.63-14.865-14.63-8.21 0-14.865 6.551-14.865 14.63 0 1.092.222 2.184.444 3.057 1.109 0 1.996 0 3.106.219 0 0-.444-6.77 1.11-6.77 1.552 0 6.877.219 6.877-4.585 0 1.965 6.878 6.77 13.756 6.77.222 1.528.443 3.056 1.109 4.585l3.106-.219c0-.873 0-1.965.222-3.057z"/><path fill="#fff" fill-rule="evenodd" stroke="#717791" stroke-linecap="round" stroke-linejoin="round" stroke-width="1.6" d="M76 122.8v-3.731c0-12.726 10.358-19.31 23.36-19.31 13.002 0 23.36 6.584 23.36 19.31v3.731H76z" clip-rule="evenodd"/><path fill="#fff" d="M78.181 76.537c0-9.553-7.765-17.196-17.472-17.196-9.706 0-17.472 7.643-17.472 17.196 0 1.364.278 2.456.555 3.548 1.11 0 2.496 0 3.605.273 0 0-.554-7.916 1.387-7.916s8.043.273 8.043-5.185c0 2.456 8.042 7.915 16.085 7.915 0 1.91.555 3.548 1.387 5.186l3.328-.273c.277-1.092.277-2.457.554-3.548z"/><path fill="#fff" fill-rule="evenodd" stroke="#717791" stroke-linecap="round" stroke-linejoin="round" stroke-width="2" d="M78.181 72.852c0-10.099-8.32-18.287-18.581-18.287s-18.581 8.188-18.581 18.287c0 1.365.277 2.73.554 3.821-.277 1.092-.554 2.184-.554 3.002 0 3.003 1.386 5.732 2.773 5.732.277 0 .555 0 .832-.273C46.843 93.596 52.667 99.6 59.6 99.6c6.933 0 12.757-6.004 14.976-14.466.277.273.555.273.832.273 1.664 0 2.773-2.456 2.773-5.731 0-1.092-.277-2.184-.554-3.003.277-1.092.554-2.456.554-3.821z" clip-rule="evenodd"/><path fill="#CBDBFF" stroke="#717791" stroke-linecap="round" stroke-linejoin="round" stroke-width="2" d="M78.181 72.852c0-10.099-8.32-18.287-18.581-18.287s-18.581 8.188-18.581 18.287c0 1.365.277 2.73.554 3.821 1.387 0 2.496 0 3.883.273 0 0-.555-8.461 1.387-8.461 1.941 0 8.597.273 8.597-5.732 0 2.457 8.597 8.461 17.195 8.461.277 1.91.554 3.822 1.386 5.732l3.883-.273c0-1.092 0-2.456.277-3.821z"/><path fill="#fff" fill-rule="evenodd" stroke="#717791" stroke-linecap="round" stroke-linejoin="round" stroke-width="2" d="M30 130v-4.663c0-15.908 12.947-24.137 29.2-24.137s29.2 8.229 29.2 24.137V130H30z" clip-rule="evenodd"/></svg>