<svg xmlns="http://www.w3.org/2000/svg" width="336" height="166" fill="none" viewBox="0 0 336 166"><path fill="#EBEFF3" fill-rule="evenodd" d="M49.652 110.982c7.31-6.147 17.082-9.768 22.102-17.891 6.086-9.838 3.27-23.352 9.501-33.085 5.05-7.863 14.807-11.288 24.058-12.584 9.251-1.295 18.807-1 27.688-3.916 15.196-4.956 25.882-18.195 38.224-28.354 12.342-10.158 30.444-17.465 43.9-8.822 11.286 7.247 14.891 23.172 26.643 29.674 10.181 5.607 22.668 2.185 34.184.63 11.516-1.556 25.953.685 30.088 11.548 4.195 11.039-5.326 23.638-1.64 34.851 3.75 11.433 18.567 14.754 26.003 24.222 8.586 10.944 4.736 28.009-5.186 37.757-9.921 9.748-24.137 13.659-37.884 15.76-26.313 4.001-53.106 2.77-79.694 1.5L88.026 156.59c-11.676-.555-44.855 3.161-50.696-6.217-7.12-11.434 3.676-32.129 12.322-39.391z" clip-rule="evenodd"/><path fill="#fff" fill-rule="evenodd" d="M79.536 161H326.65v-58.5H79.536V161z" clip-rule="evenodd"/><path stroke="#92A2B1" stroke-width=".5" d="M263.12 164.75h12.506m-218.6.5h17.508"/><path stroke="#EBEFF3" stroke-width=".5" d="M139.063 119v10H89.541m-8.004-18.539V106.5h57.526v8.5m-53.524 14h-4.002v-16.5m0 39V133h29.013m28.513 6v17H81.537v-2.396M112.551 133h26.512v4.5m61.028-18.5v10h-49.522m-8.004-18.539V106.5h57.526v8.5m-53.524 14h-4.002v-16.5m0 39.5v-19h16.507m19.509 23h-36.016v-2.5m57.526-14.5v17h-19.509m-19.509-23h39.018v4.5m61.028-18.5v10h-49.523m-8.003-18.539V106.5h57.526v8.5m-53.524 14h-4.002v-16.5m0 39V133h29.013m28.513 6v17h-57.526v-2.396M234.607 133h26.512v4.5m61.028-18.5v10h-49.523m-8.003-18.539V106.5h57.526v8.5m-53.525 14h-4.001v-16.5m0 39.5v-19h16.507m19.509 23h-36.016v-2.5m57.526-14.5v17h-19.509m-19.509-23h39.018v4.5"/><path stroke="#EBEFF3" stroke-width=".5" d="M88.29 140.5a3.25 3.25 0 11.002 6.501 3.25 3.25 0 01-.002-6.501zm0-26a3.25 3.25 0 11.002 6.501 3.25 3.25 0 01-.002-6.501zm61.529 26a3.25 3.25 0 110 6.502 3.25 3.25 0 010-6.502zm0-26a3.25 3.25 0 110 6.502 3.25 3.25 0 010-6.502zm61.528 26a3.25 3.25 0 110 6.502 3.25 3.25 0 010-6.502zm0-26a3.25 3.25 0 110 6.502 3.25 3.25 0 010-6.502zm61.027 26a3.25 3.25 0 110 6.5 3.25 3.25 0 110-6.5zm0-26a3.25 3.25 0 110 6.5 3.25 3.25 0 110-6.5z" clip-rule="evenodd"/><path stroke="#92A2B1" stroke-width=".5" d="M77.035 161H326.65v-59.5H77.035V161z" clip-rule="evenodd"/><path fill="#CFD7DF" fill-rule="evenodd" d="M279.835 63l6.295 1.166-6.21 32.334-6.295-1.166L279.835 63zm4.795 33h23.01v-7.5h-23.01V96zm.5-12h19.009v-6.5H285.13V84z" clip-rule="evenodd"/><path stroke="#92A2B1" stroke-width=".5" d="M278.627 66l7.503 1.5m-8.003 0l7.503 1.5m-11.505 21.5l7.503 1.5m-8.003 0l7.503 1.5"/><path fill="#CFD7DF" fill-rule="evenodd" d="M271.124 97h1.5V61.5h-1.5V97zm38.517 0h1.501V61.5h-1.501V97z" clip-rule="evenodd"/><path fill="#92A2B1" fill-rule="evenodd" d="M284.63 88h24.011v-3H284.63v3z" clip-rule="evenodd"/><path stroke="#fff" stroke-width=".5" d="M288.381 78.5a2.25 2.25 0 110 4.5 2.251 2.251 0 010-4.5zM302.388 90a2.25 2.25 0 11.001 4.5 2.25 2.25 0 01-.001-4.5z" clip-rule="evenodd"/><path stroke="#92A2B1" stroke-width=".5" d="M271.374 61.5V80m-22.26-20.75h65.529m0 2h-65.529m-3.002-36h65.53m0 2.5h-65.53m14.007 69.5h65.529m0 2h-65.529m12.755-2.75v-7"/><path fill="#CFD7DF" fill-rule="evenodd" d="M287.631 59h1.501V28h-1.501v31z" clip-rule="evenodd"/><path stroke="#92A2B1" stroke-width=".5" d="M287.881 28.5v14m1.501 16v-7m20.509 10v10m1.501 25v-14m-7.253-4.75h-4.502m-10.505 11h-4.502"/><path fill="#CFD7DF" fill-rule="evenodd" d="M12.756 1.5c6.492 0 11.755 5.26 11.755 11.75S19.248 25 12.756 25C6.264 25 1 19.74 1 13.25S6.264 1.5 12.756 1.5z" clip-rule="evenodd"/><path fill="#fff" fill-rule="evenodd" d="M12.756 4c5.111 0 9.254 4.141 9.254 9.25s-4.143 9.25-9.254 9.25-9.254-4.141-9.254-9.25S7.645 4 12.756 4z" clip-rule="evenodd"/><path stroke="#92A2B1" stroke-width=".5" d="M1 13C1 6.373 6.373 1 13 1h.006m8.004 20.5a11.482 11.482 0 01-16.505.003l-.003-.003m8.254-16v-2m0 17v2m9.754-9.25h-2m-15.007 0H3.502m16.007 6.25l-1-1M7.503 7.5l-1-1m0 13l1-1m11.005-11l1-1M13.006 8v5.336L15.507 19M2.501 160.75h56.026"/><path fill="#B1BDC7" fill-rule="evenodd" d="M283.629 58.5h-3.016l-2.987-9.295-2-6.762 1.882-.943.764 2.188 5.357 14.812z" clip-rule="evenodd"/><path fill="#92A2B1" fill-rule="evenodd" d="M278.127 43.772l-.611 5.728-1.89-7.02 1.778-.98.723 2.272z" clip-rule="evenodd"/><path fill="#B1BDC7" fill-rule="evenodd" d="M275.896 58.5h-19.279l2.731-23h19.279l-2.731 23z" clip-rule="evenodd"/><path fill="#CFD7DF" fill-rule="evenodd" d="M272.896 58.5h-19.28l2.73-23h19.28l-2.73 23z" clip-rule="evenodd"/><path fill="#fff" fill-rule="evenodd" d="M271.513 55.5h-14.896l2.112-18h14.896l-2.112 18z" clip-rule="evenodd"/><path stroke="#92A2B1" stroke-width=".5" d="M259.337 55.866a3.55 3.55 0 01.591-3.485 5.204 5.204 0 013.14-1.757 5.543 5.543 0 014.543 1.025A4.075 4.075 0 01268.948 56"/><path stroke="#92A2B1" stroke-width=".5" d="M261.122 46.253a3.47 3.47 0 011.577-2.595 3.559 3.559 0 011.847-.655c1.622-.076 2.998 1.204 3.073 2.859a3.028 3.028 0 01-1.083 2.467c-1.692 1.402-5.538.558-5.414-2.076z" clip-rule="evenodd"/><path stroke="#fff" stroke-width=".5" d="M255.617 57.25h8.503m11.506-21.75l-2.501 23"/><path stroke="#92A2B1" stroke-width=".5" d="M273.625 37.5l-2.001 18"/><path fill="#CFD7DF" fill-rule="evenodd" d="M281.214 163.5h-5.696c-3.54-.008-6.403-2.875-6.395-6.405a6.337 6.337 0 01.234-1.699L273.366 141h10.025l4.004 14.396c.949 3.401-1.047 6.924-4.457 7.87a6.394 6.394 0 01-1.724.234z" clip-rule="evenodd"/><path fill="#B1BDC7" fill-rule="evenodd" d="M271.459 138h13.336c.738 0 1.335.56 1.335 1.25s-.597 1.25-1.335 1.25h-13.336c-.738 0-1.336-.56-1.336-1.25s.598-1.25 1.336-1.25zm3.166-11.176c-.03 5.681-7.58 2.175-10.24 1.347a1.626 1.626 0 01-.708-.358c-.457-.464-.191-1.281.27-1.735.463-.455 1.095-.722 1.506-1.217.412-.494.543-1.371 0-1.71-1.887.984-3.232 2.467-4.904 1.01-.868-.753-1.541-1.983-2.253-2.901l-3.971-5.102a15.332 15.332 0 01-3.208-8.576 1.007 1.007 0 011.074-1.079 15.164 15.164 0 018.534 3.223l2.957 2.326c2.178 1.71 1.953 2.114 1.35 4.924.547.343 1.27.056 1.777-.343.507-.398.954-.918 1.571-1.095 1.13-.323 3.554 3.371 4.182 4.329a12.657 12.657 0 012.063 6.957z" clip-rule="evenodd"/><path stroke="#92A2B1" stroke-width=".5" d="M258.618 114l19.509 19.5"/><path fill="#CFD7DF" fill-rule="evenodd" d="M281.128 122.119c.009 1.311 1.098 2.373 2.445 2.381 2.871.017 5.589-1.259 7.363-3.458a20.868 20.868 0 001.476-1.833c.538-.849.452-1.892.919-2.559.273-.38.766-.545 1.221-.409.219.068.411.202.629.256a.92.92 0 001.06-.603c.188-.641-.035-1.051.213-1.733.249-.682.862-1.29 1.167-1.942a10.547 10.547 0 001.014-3.952.743.743 0 00-.801-.765 11.476 11.476 0 00-6.355 2.321 18.296 18.296 0 01-2.368 1.809c-.594.306-2.587.562-2.729 1.145-.142.584.173 1.122.426 1.64.254.519.457 1.167.132 1.645-2.236-.988-2.952-.943-4.331 1.171a9.215 9.215 0 00-1.481 4.886z" clip-rule="evenodd"/><path stroke="#92A2B1" stroke-width=".5" d="M293.134 112.5L278.627 127m-.25 11v-21.5"/><path fill="#B1BDC7" fill-rule="evenodd" d="M271.366 165h14.022c.41 0 .742-.336.742-.75a.746.746 0 00-.742-.75h-14.022a.747.747 0 00-.743.75c0 .414.333.75.743.75z" clip-rule="evenodd"/><path stroke="#92A2B1" stroke-width=".5" d="M273.625 160.5h6.751c2.623.003 4.751-2.177 4.754-4.87 0-.344-.034-.687-.105-1.024l-.956-4.606m-9.444-6.5l-2.501 10.5m9.009-32s-.175-2.975 1.496-5m-22.01-7.5l3.001 2.5m9.004 7.5s2.319 3.992 1.964 7M28.513 120s.456-.309 1-1.5"/><path fill="#EBEFF3" fill-rule="evenodd" d="M14.006 107l-1.35 15.497L8.91 165.5H7.503V107h6.503zm14.007 0v58.5H26.61l-4.587-52.607L21.51 107h6.503z" clip-rule="evenodd"/><path fill="#CFD7DF" fill-rule="evenodd" d="M7.503 107h6.503l-1.35 15.446-5.153 5.054V107zm20.51 0l-5.989 6-.514-6h6.503z" clip-rule="evenodd"/><path stroke="#92A2B1" stroke-width=".5" d="M23.51 74.5c-2.533 1.836-4.456 4.46-5.502 7.5"/><path fill="#CFD7DF" fill-rule="evenodd" d="M24.859 71.528a.251.251 0 01.122.35l-2.444 4.48a.288.288 0 01-.374.114.25.25 0 01-.123-.349l2.444-4.481a.288.288 0 01.375-.114z" clip-rule="evenodd"/><path fill="#CFD7DF" fill-rule="evenodd" d="M25.984 75.348a.252.252 0 01-.35.121l-4.483-2.442a.29.29 0 01-.113-.375.251.251 0 01.349-.121l4.483 2.442a.29.29 0 01.114.375z" clip-rule="evenodd"/><path fill="#CFD7DF" fill-rule="evenodd" d="M26.499 73.172c.046.132-.031.273-.173.316l-4.963 1.5c-.142.043-.294-.03-.34-.16-.046-.131.031-.273.172-.316l4.964-1.5c.142-.042.293.03.34.16z" clip-rule="evenodd"/><path fill="#CFD7DF" fill-rule="evenodd" d="M22.683 71.513c.13-.046.272.031.315.173l1.5 4.961c.043.142-.028.294-.16.34-.13.046-.272-.032-.315-.173l-1.5-4.96c-.043-.143.029-.295.16-.34z" clip-rule="evenodd"/><path fill="#92A2B1" fill-rule="evenodd" d="M23.511 73a1 1 0 110 2 1 1 0 010-2z" clip-rule="evenodd"/><path stroke="#92A2B1" stroke-width=".5" d="M11.005 70a15.17 15.17 0 016.503 12"/><path fill="#CFD7DF" fill-rule="evenodd" d="M11.853 71.972a.29.29 0 01-.375-.114l-2.443-4.481a.252.252 0 01.121-.349.29.29 0 01.375.114l2.444 4.48a.25.25 0 01-.122.35z" clip-rule="evenodd"/><path fill="#CFD7DF" fill-rule="evenodd" d="M12.978 68.153a.289.289 0 01-.114.374L8.38 70.97a.252.252 0 01-.35-.122.289.289 0 01.114-.375l4.483-2.443a.252.252 0 01.35.123z" clip-rule="evenodd"/><path fill="#CFD7DF" fill-rule="evenodd" d="M13.493 70.328c-.046.13-.198.202-.34.16l-4.963-1.5c-.142-.043-.219-.184-.173-.315.046-.132.199-.203.34-.16l4.963 1.5c.142.043.219.184.173.315z" clip-rule="evenodd"/><path fill="#CFD7DF" fill-rule="evenodd" d="M9.677 71.987c-.131-.046-.203-.198-.16-.34l1.5-4.96c.043-.142.184-.22.316-.174.13.046.203.199.16.34l-1.501 4.96c-.043.143-.184.22-.315.174z" clip-rule="evenodd"/><path fill="#92A2B1" fill-rule="evenodd" d="M10.505 68.5a1 1 0 110 2 1 1 0 010-2z" clip-rule="evenodd"/><path fill="#CFD7DF" fill-rule="evenodd" d="M21.168 103H14.34c-.738-.001-1.335-.615-1.334-1.371 0-.063.004-.126.013-.189l2.077-17.245A1.353 1.353 0 0116.433 83h2.652c.677 0 1.248.516 1.332 1.205L22.5 101.45c.095.753-.425 1.442-1.159 1.539a1.427 1.427 0 01-.172.011z" clip-rule="evenodd"/><path stroke="#fff" stroke-width=".5" d="M20.385 101.5h-5.244a.641.641 0 01-.63-.728l1.464-16.204a.64.64 0 01.63-.568h2.264c.32 0 .59.243.629.569l1.507 16.203a.651.651 0 01-.62.728z" clip-rule="evenodd"/><path fill="#B1BDC7" fill-rule="evenodd" d="M14.698 81h6.12c.383 0 .692.335.692.75 0 .414-.31.75-.691.75h-6.121c-.382 0-.692-.336-.692-.75 0-.415.31-.75.692-.75z" clip-rule="evenodd"/><path fill="#92A2B1" fill-rule="evenodd" d="M1.946 103.5H33.57c1.075 0 1.946.894 1.946 1.997v.006c0 1.103-.87 1.997-1.946 1.997H1.946C.871 107.5 0 106.606 0 105.503v-.006c0-1.103.871-1.997 1.946-1.997z" clip-rule="evenodd"/><path stroke="#92A2B1" stroke-width=".5" d="M7.754 107v20.5m1.25 38l2.001-23M22.51 113l2.501 29.5"/><path stroke="#fff" stroke-width=".5" d="M33.515 105.25H18.508"/><path stroke="#92A2B1" stroke-width=".5" d="M16.007 165.75h12.506"/></svg>