<svg width="336" height="200" viewBox="0 0 336 200" fill="none" xmlns="http://www.w3.org/2000/svg">
<g clip-path="url(#clip0_2618_1203)">
<circle cx="228.611" cy="47.7992" r="47.3859" fill="#02B190"/>
<path fill-rule="evenodd" clip-rule="evenodd" d="M244.776 42.916C245.32 42.7391 245.905 42.8607 246.346 43.2698C246.777 43.6679 246.993 44.2649 246.921 44.8731C245.689 55.7976 241.922 70.194 231.073 76.8725L231.094 76.8946L230.509 77.2042C229.944 77.5028 229.308 77.6576 228.671 77.6465H228.61C228.086 77.6465 227.563 77.547 227.08 77.3369L227.029 77.3922L226.721 77.1711L226.208 76.9057L226.229 76.8836C215.277 70.1276 211.541 55.5654 210.34 44.4971C210.278 43.889 210.504 43.2919 210.945 42.8939C211.397 42.5069 211.982 42.3852 212.526 42.5732L228.004 47.9249C228.333 48.0465 229.031 48.0465 229.369 47.9359L244.776 42.916ZM239.2 61.7684C241.048 57.6662 242.392 52.7679 243.224 47.2172L230.342 51.4078C229.357 51.7285 227.971 51.7174 226.976 51.3747L214.043 46.8965C215.408 56.3393 218.97 68.3806 228.125 73.8649L228.31 73.9645C228.454 74.0419 228.864 74.0308 228.977 73.9755L229.018 73.9534C229.028 73.9534 229.049 73.9423 229.069 73.9313L229.295 73.7986C233.401 71.2997 236.737 67.2528 239.2 61.7684Z" fill="white"/>
<path fill-rule="evenodd" clip-rule="evenodd" d="M244.311 28.7089C245.101 28.4546 245.963 28.6205 246.63 29.1512C247.287 29.7041 247.657 30.5223 247.636 31.4069V37.997C247.636 38.8041 247.123 39.5229 246.405 39.744L230.465 44.5317C229.941 44.6755 229.387 44.7418 228.853 44.7418C228.319 44.7418 227.775 44.6755 227.242 44.5317H227.231L211.312 39.744C210.583 39.5339 210.08 38.8152 210.08 37.997V31.4069C210.06 30.5334 210.439 29.693 211.086 29.1512L211.096 29.1402C211.763 28.6205 212.626 28.4657 213.406 28.72L228.124 33.1539C228.617 33.2645 229.11 33.2645 229.592 33.1539L244.311 28.7089ZM244.272 36.6128V32.4996L230.487 36.646C229.553 36.9335 228.178 36.9335 227.233 36.646L213.449 32.4996V36.6128L228.126 41.0357C228.619 41.1463 229.112 41.1463 229.594 41.0357L244.272 36.6128Z" fill="white"/>
<path d="M179.545 133.776C179.468 133.624 179.316 133.547 179.239 133.392C177.935 135.844 176.557 139.142 176.099 142.517C176.099 142.517 181.152 135.463 185.134 130.785C182.378 132.624 180.539 133.392 179.545 133.776Z" fill="#27313A"/>
<path d="M239.07 111.707C239.846 111.509 255.118 107.44 253.776 105.111C252.933 103.656 249.945 102.582 246.27 102.888C242.978 103.163 235.698 103.684 234.208 103.79C234.031 103.804 233.862 103.776 233.7 103.705C232.629 103.251 228.161 101.489 224.214 101.895C224.069 101.895 223.861 101.961 223.646 101.969C223.541 101.976 223.432 101.986 223.326 101.993C222.233 102.219 221.356 102.522 220.616 102.966C218.854 104.192 218.241 106.492 219.083 108.409C219.39 109.099 219.848 109.712 220.538 110.248C221.046 110.685 221.694 111.122 222.48 111.492C222.494 111.499 222.536 111.502 222.586 111.534C222.755 111.647 222.755 111.911 222.758 111.932C222.78 112.189 226.501 114.934 239.07 111.703V111.707Z" fill="white"/>
<path d="M228.622 113.623C228.147 113.623 227.685 113.609 227.241 113.581C224.323 113.398 223.072 112.654 222.759 112.432C222.523 112.267 222.417 112.126 222.406 111.967C222.406 111.893 222.392 111.855 222.385 111.837C222.36 111.83 222.343 111.823 222.332 111.816C221.578 111.46 220.898 111.023 220.31 110.519C219.619 109.98 219.108 109.336 218.763 108.553C217.843 106.457 218.537 103.987 220.415 102.677C221.18 102.219 222.075 101.895 223.255 101.648C223.27 101.648 223.284 101.644 223.298 101.641L223.618 101.613C223.728 101.609 223.823 101.588 223.907 101.574C224.006 101.556 224.101 101.539 224.196 101.535C228.168 101.134 232.583 102.842 233.841 103.374C233.954 103.42 234.067 103.438 234.187 103.434C236.209 103.29 243.053 102.8 246.242 102.532C249.808 102.236 253.106 103.244 254.082 104.932C254.241 105.206 254.255 105.513 254.125 105.823C253.018 108.455 239.3 112.006 239.159 112.045C235.092 113.091 231.554 113.616 228.622 113.616V113.623ZM223.097 111.802C223.499 112.108 227.125 114.416 238.983 111.368C243.391 110.238 252.729 107.327 253.473 105.559C253.529 105.428 253.504 105.354 253.469 105.295C252.761 104.072 250.009 102.937 246.298 103.244C243.105 103.512 236.255 104.001 234.232 104.146C234.003 104.164 233.774 104.125 233.563 104.033C232.692 103.667 228.157 101.849 224.249 102.247C224.186 102.254 224.115 102.261 224.031 102.275C223.921 102.296 223.795 102.317 223.657 102.324L223.372 102.349C222.283 102.578 221.462 102.871 220.792 103.272C219.21 104.375 218.618 106.485 219.404 108.272C219.703 108.941 220.144 109.501 220.754 109.973C221.3 110.442 221.92 110.84 222.607 111.168C222.646 111.178 222.709 111.203 222.776 111.245C222.949 111.361 223.062 111.555 223.097 111.798V111.802Z" fill="#27313A"/>
<path d="M228.869 113.264C225.722 116.91 222.572 120.557 219.425 124.2C217.959 123.742 215.739 122.847 213.505 121.05C210.422 118.566 208.921 115.656 208.255 114.099C210.785 112.024 213.322 109.92 215.866 107.785C216.899 106.919 217.924 106.055 218.946 105.189" fill="white"/>
<path d="M219.425 124.552C219.39 124.552 219.355 124.549 219.32 124.538C217.107 123.848 215.073 122.766 213.283 121.325C210.968 119.461 209.114 117.009 207.93 114.236C207.87 114.092 207.909 113.926 208.033 113.824C210.563 111.749 213.125 109.628 215.641 107.514C216.673 106.647 217.699 105.784 218.72 104.918C218.869 104.791 219.091 104.812 219.217 104.96C219.344 105.108 219.323 105.33 219.175 105.457C218.153 106.323 217.124 107.186 216.092 108.053C213.639 110.111 211.148 112.175 208.685 114.198C209.83 116.766 211.571 119.035 213.727 120.772C215.39 122.111 217.265 123.125 219.309 123.791L228.601 113.031C228.728 112.883 228.95 112.869 229.098 112.996C229.246 113.123 229.26 113.345 229.134 113.493L219.69 124.429C219.623 124.506 219.524 124.552 219.422 124.552H219.425Z" fill="#27313A"/>
<path d="M234.208 103.79C238.37 103.529 241.301 102.546 243.285 101.623C243.927 101.324 246.591 100.154 248.416 100.623C249.086 100.795 249.713 101.278 250.559 102.236C250.604 102.289 250.629 102.339 250.633 102.402C250.657 102.98 248.374 103.427 244.723 104.389C243.447 104.724 242.397 105.02 241.678 105.228" fill="white"/>
<path d="M241.678 105.583C241.527 105.583 241.386 105.481 241.34 105.33C241.287 105.143 241.393 104.949 241.58 104.893C242.573 104.608 243.599 104.326 244.631 104.054C245.315 103.875 245.953 103.713 246.534 103.565C248.257 103.124 249.893 102.709 250.241 102.416C249.456 101.535 248.899 101.116 248.324 100.968C246.661 100.542 244.156 101.609 243.43 101.948C240.748 103.191 237.654 103.931 234.229 104.146C234.032 104.157 233.866 104.012 233.855 103.815C233.845 103.617 233.989 103.452 234.187 103.441C237.524 103.233 240.537 102.515 243.137 101.31C244.138 100.845 246.668 99.816 248.504 100.288C249.241 100.478 249.914 100.975 250.826 102.011C250.929 102.131 250.981 102.254 250.988 102.398C251.02 103.152 249.847 103.452 246.714 104.252C246.133 104.4 245.498 104.562 244.815 104.741C243.786 105.013 242.764 105.295 241.777 105.576C241.745 105.587 241.71 105.59 241.678 105.59V105.583Z" fill="#27313A"/>
<path d="M158.103 77.8031C158.103 77.8031 162.853 77.6481 167.37 87.3862C169.897 92.907 180.314 122.195 183.527 130.172C183.527 130.172 196.009 120.895 201.753 117.213C206.503 114.148 208.875 111.922 208.875 111.922C208.875 111.922 213.163 107.627 214.848 108.624L225.187 117.21C225.187 117.21 226.794 118.82 225.109 120.659C224.263 121.568 209.188 138.06 198.736 147.826C194.642 151.653 189.275 153.826 183.672 153.928C174.499 154.094 166.119 148.721 162.476 140.301C155.16 123.4 147.302 97.6562 147.302 97.6562" fill="white"/>
<path d="M183.253 154.291C174.059 154.291 165.809 148.894 162.152 140.449C154.914 123.721 147.045 98.0262 146.967 97.769C146.911 97.5823 147.017 97.385 147.2 97.3286C147.387 97.2687 147.584 97.3779 147.64 97.5611C147.718 97.8183 155.576 123.478 162.8 140.167C166.398 148.482 174.594 153.738 183.665 153.583C189.19 153.485 194.459 151.35 198.497 147.576C204.717 141.763 213.921 132.289 224.419 120.899C224.641 120.656 224.789 120.497 224.855 120.427C226.258 118.894 225.077 117.604 224.94 117.464L214.65 108.92C213.576 108.339 210.7 110.6 209.128 112.175C209.097 112.207 206.669 114.465 201.947 117.513C196.277 121.145 183.866 130.365 183.739 130.457C183.651 130.524 183.538 130.542 183.432 130.513C183.327 130.485 183.242 130.408 183.2 130.306C181.815 126.878 179.119 119.553 176.265 111.802C172.441 101.415 168.484 90.6733 167.046 87.5377C162.701 78.1766 158.141 78.1414 158.11 78.159C157.916 78.1731 157.754 78.011 157.75 77.8172C157.747 77.6235 157.895 77.4614 158.089 77.4579C158.293 77.4508 163.121 77.4085 167.688 87.2453C169.136 90.4091 173.097 101.162 176.927 111.562C179.669 119.003 182.262 126.05 183.686 129.622C185.797 128.061 196.428 120.215 201.563 116.921C206.225 113.912 208.61 111.693 208.635 111.671C209.086 111.22 213.163 107.222 215.027 108.328C215.045 108.339 215.059 108.349 215.073 108.36L225.412 116.946C226.075 117.608 226.882 119.253 225.37 120.906C225.303 120.976 225.155 121.138 224.937 121.378C214.432 132.782 205.213 142.27 198.98 148.094C194.814 151.987 189.381 154.189 183.679 154.291C183.538 154.291 183.394 154.295 183.256 154.295L183.253 154.291Z" fill="#27313A"/>
<path d="M127.47 0.43756C115.062 1.20561 107.637 20.2977 113.304 25.586C114.452 26.6606 115.753 27.1961 117.134 27.3511C122.571 27.9642 128.928 22.9824 128.928 22.9824L134.75 12.4023C134.75 12.4023 135.821 9.79513 135.821 7.03648C135.821 3.66127 134.288 0.060579 127.473 0.441083L127.47 0.43756Z" fill="#27313A"/>
<path d="M117.134 27.3512C122.571 27.9642 128.929 22.9824 128.929 22.9824L134.75 12.4023C134.75 12.4023 135.821 9.79515 135.821 7.0365C131.839 8.64659 121.349 14.1674 117.134 27.3547V27.3512Z" fill="#FDA002"/>
<path d="M126.092 15.235C118.128 24.4376 119.583 28.7288 115.524 32.8721C108.324 40.3095 110.164 48.973 115.908 51.3511C120.503 53.2677 119.277 53.8808 118.97 60.5537C118.434 72.6699 132.6 68.9107 138.88 64.6934C145.159 60.4762 151.517 72.6664 157.183 73.97C162.849 75.2735 165.531 69.2912 163.233 64.3869C161.013 59.4016 172.04 62.0088 172.424 52.8097C172.653 47.3664 167.751 44.0687 165.302 39.8515C162.853 35.7117 164.076 32.259 164.231 26.5867C164.382 19.8398 156.267 12.3249 150.981 9.48871C143.63 4.96494 132.294 8.10762 126.092 15.2385V15.235Z" fill="#27313A"/>
<path d="M168.9 103.72C165.912 95.5142 164.076 92.065 159.942 82.5559C155.576 72.4338 152.207 72.4338 146.999 70.3657L130.994 67.7585C117.783 74.3258 108.085 79.8783 105.143 82.4784C105.069 82.5418 103.335 84.0779 101.02 86.2024C98.6657 88.3656 97.4887 89.4472 97.2455 89.7291C94.5145 92.9 97.0341 98.2446 100.59 111.844C101.235 114.31 102.658 119.683 103.959 126.335C104.649 129.862 105.336 133.237 105.798 136.38C108.018 151.79 104.878 161.528 103.116 173.951H165.528C165.528 173.951 166.983 143.359 167.29 133.466C167.519 123.499 171.962 112.073 168.896 103.716L168.9 103.72Z" fill="white"/>
<path d="M165.531 174.307H103.12C103.018 174.307 102.922 174.261 102.855 174.187C102.788 174.113 102.757 174.007 102.771 173.905C103.169 171.1 103.641 168.409 104.096 165.809C105.675 156.814 107.162 148.316 105.449 136.436C105.054 133.741 104.494 130.894 103.902 127.882L103.613 126.409C102.366 120.018 100.988 114.758 100.325 112.232L100.248 111.939C99.4725 108.983 98.7536 106.429 98.1193 104.174C95.783 95.9017 94.7188 92.1249 96.9776 89.5037C97.2349 89.2077 98.3413 88.186 100.769 85.9558C103.116 83.7996 104.889 82.2318 104.906 82.2177C107.916 79.5612 117.85 73.8995 130.835 67.4485C130.902 67.4168 130.976 67.4027 131.05 67.4168L147.055 70.024C147.08 70.0275 147.105 70.0346 147.129 70.0451C147.778 70.3023 148.398 70.5278 149.001 70.7462C153.289 72.307 156.387 73.4344 160.266 82.4221C161.496 85.2512 162.529 87.5553 163.438 89.5882C165.58 94.3727 167.131 97.8324 169.231 103.603C171.219 109.022 170.084 115.797 168.988 122.347C168.368 126.06 167.726 129.897 167.642 133.484C167.339 143.267 165.894 173.669 165.88 173.975C165.869 174.162 165.714 174.31 165.528 174.31L165.531 174.307ZM103.525 174.307H165.196C165.355 170.942 166.655 142.679 166.941 133.459C167.025 129.826 167.67 125.965 168.294 122.227C169.425 115.469 170.489 109.085 168.569 103.839C166.475 98.0932 164.932 94.644 162.793 89.8701C161.88 87.8372 160.848 85.5295 159.618 82.6969C155.862 73.984 152.88 72.9024 148.757 71.4016C148.162 71.1866 147.549 70.9612 146.904 70.7075L131.05 68.125C118.167 74.5301 108.335 80.1285 105.375 82.7427C105.357 82.7568 103.592 84.3175 101.259 86.4631C98.9897 88.5489 97.7423 89.6939 97.5132 89.9617C95.5011 92.2975 96.5336 95.9616 98.7995 103.984C99.4373 106.239 100.156 108.797 100.931 111.76L101.009 112.052C101.671 114.585 103.053 119.859 104.307 126.272L104.596 127.744C105.192 130.767 105.752 133.621 106.147 136.334C107.877 148.327 106.376 156.877 104.79 165.932C104.357 168.402 103.909 170.953 103.525 173.605L103.525 174.307Z" fill="#27313A"/>
<path d="M135.282 50.2765L135.589 49.4344L135.74 48.9729L138.88 51.6576L150.981 61.9312L149.448 68.065L147.686 75.6575C147.686 75.6575 136.66 81.8688 128.925 68.1425L135.282 50.2765Z" fill="white"/>
<path d="M147.686 75.58C147.172 79.6211 147.01 84.5782 147.672 89.7044C147.711 90.0145 147.408 90.254 147.119 90.1343C137.428 86.1918 128.925 68.139 128.925 68.139L147.686 75.5765V75.58Z" fill="white"/>
<path d="M135.589 49.5085L138.88 51.6542L150.981 61.9278L149.755 66.8356C141.484 65.6095 136.124 53.7258 135.282 50.3506L135.589 49.5085Z" fill="#27313A"/>
<path d="M159.558 44.4492C159.48 44.8332 159.48 45.2172 159.558 45.5977C159.864 47.5919 161.7 49.0469 163.769 48.7404C165.76 48.4339 167.215 46.5948 166.909 44.5232C166.831 43.9876 166.602 43.5261 166.373 43.0681C165.686 41.9935 164.46 41.303 163.156 41.303C162.927 41.458 162.849 42.145 163.233 42.3775C164.227 42.3775 165.147 42.9131 165.608 43.7586C165.76 43.9876 165.837 44.3717 165.915 44.6782C166.066 46.1333 165.073 47.5143 163.617 47.7469C162.162 47.9019 160.784 46.9048 160.555 45.4462C160.478 45.2172 160.478 44.9107 160.555 44.6782L159.561 44.4492H159.558Z" fill="#FDA002"/>
<path d="M140.797 10.7111C148.683 9.63656 155.347 12.4762 159.865 21.5238C159.865 21.5238 163.847 30.8778 164.153 41.2289C164.153 42.1485 164.153 43.068 164.153 43.9876C163.924 49.5859 161.704 55.7198 157.26 59.6305C151.132 65.0738 140.719 59.937 133.982 49.4344C133.217 48.1308 132.449 46.8273 131.684 45.5237C129.771 42.0745 128.086 38.6218 127.012 35.7856C121.268 21.1397 133.827 11.7082 140.797 10.7111Z" fill="white"/>
<path d="M155.358 45.7422C155.108 45.7422 154.942 45.7211 154.917 45.7176C154.723 45.6894 154.59 45.5132 154.618 45.3195C154.646 45.1257 154.822 44.9918 155.016 45.02C155.097 45.0305 156.968 45.2631 157.772 43.7939C157.74 43.121 155.791 38.9601 153.888 35.2537C153.8 35.0811 153.867 34.8697 154.04 34.7781C154.212 34.6865 154.424 34.757 154.516 34.9296C157.363 40.4786 158.677 43.5543 158.424 44.0652C157.655 45.5414 156.122 45.7387 155.361 45.7387L155.358 45.7422Z" fill="#27313A"/>
<path d="M136.582 45.4463C136.582 45.4463 135.818 47.8984 133.978 49.4345C133.214 48.131 132.445 46.8274 131.681 45.5238L136.582 45.4463Z" fill="white"/>
<path d="M133.062 32.6395L136.586 45.3687C133.904 47.4404 130.765 47.8209 128.315 46.7498C127.931 46.5948 127.551 46.3658 127.167 46.1368C125.327 44.8332 124.104 42.4551 124.333 39.1609C124.947 31.5684 133.062 32.643 133.062 32.643V32.6395Z" fill="white"/>
<path d="M129.845 44.9847C129.845 44.9847 128.848 45.9817 128.389 46.8238C128.005 46.6688 127.625 46.4398 127.241 46.2108C127.547 45.5202 128.389 44.6007 129.845 44.9847Z" fill="white"/>
<path d="M132.526 47.2854C132.526 47.5144 132.604 47.7469 132.526 48.0534C132.297 49.586 130.919 50.5831 129.464 50.3541C127.931 50.1251 126.937 48.744 127.166 47.2854C127.166 46.9788 127.318 46.6723 127.473 46.3658C128.009 45.5238 128.851 44.9847 129.848 44.9847C130.306 44.7557 130.155 44.0652 129.926 43.9102C128.625 43.9102 127.399 44.6007 126.708 45.6753C126.402 46.1368 126.25 46.5948 126.173 47.1303C125.866 49.1245 127.244 51.0411 129.313 51.3476C131.304 51.6541 133.217 50.273 133.524 48.2049C133.601 47.8209 133.601 47.4369 133.524 47.0564L132.526 47.2854Z" fill="#FDA002"/>
<path d="M149.37 36.7827C149.906 37.0117 150.29 37.8573 150.29 38.6993C150.29 39.5414 149.832 40.0029 149.293 39.7739C148.757 39.5449 148.373 38.6993 148.373 37.8573C148.373 37.0152 148.831 36.5537 149.367 36.7827H149.37Z" fill="#27313A"/>
<path d="M159.865 35.1727C160.4 35.2502 160.784 35.9407 160.858 36.7828C160.936 37.6248 160.552 38.2378 160.094 38.1639C159.558 38.0863 159.174 37.3958 159.096 36.5538C159.019 35.7117 159.403 35.0987 159.861 35.1727H159.865Z" fill="#27313A"/>
<path d="M160.781 29.2678C160.629 30.1098 159.632 30.4938 158.945 30.0358C157.489 29.1938 156.112 28.8097 155.192 28.7322C154.505 28.6547 154.043 27.9642 154.121 27.2772L154.198 26.9706C154.276 26.3576 154.734 25.8961 155.347 25.8961C157.493 25.8186 159.484 27.1996 160.478 27.9677C160.862 28.2742 161.013 28.8097 160.784 29.2713L160.781 29.2678Z" fill="#27313A"/>
<path d="M143.095 29.7258C143.324 30.4939 144.321 30.8004 145.008 30.3388C146.386 29.4193 147.764 28.9578 148.683 28.8063C149.374 28.6512 149.832 27.9642 149.677 27.2737L149.6 26.9672C149.522 26.3541 148.986 25.9701 148.373 25.9701C146.231 26.0476 144.314 27.5027 143.394 28.3482C143.01 28.7323 142.936 29.2678 143.088 29.7293L143.095 29.7258Z" fill="#27313A"/>
<path d="M153.169 52.5243C152.574 52.5243 151.862 52.3658 151.097 51.8761C149.617 50.8896 149.053 48.6911 149.032 48.5995C148.986 48.4093 149.099 48.219 149.289 48.1732C149.48 48.1239 149.67 48.2401 149.716 48.4304C149.719 48.4515 150.237 50.4597 151.485 51.2912C153.158 52.3658 154.48 51.485 154.533 51.4498C154.691 51.3405 154.913 51.3793 155.023 51.5378C155.132 51.6964 155.093 51.9148 154.935 52.0276C154.889 52.0593 154.198 52.5314 153.169 52.5314V52.5243Z" fill="#27313A"/>
<path d="M162.391 21.2913C158.716 15.4639 153.585 6.64541 139.571 8.2555C125.556 9.8656 120.58 24.5115 125.556 35.5531C127.089 33.8655 130.38 32.8684 132.294 36.0146C132.752 36.7827 135.356 42.839 136.124 43.6071C138.422 46.0592 135.74 35.7856 135.511 30.8039C142.097 30.0358 144.24 22.7534 144.395 19.8397C147.305 19.3782 149.374 20.4528 151.823 21.9853C157.796 25.741 165.989 27.1996 162.391 21.2948V21.2913Z" fill="#27313A"/>
<path d="M161.32 44.1427C157.796 43.3007 155.653 39.848 156.496 36.3213C157.338 32.7946 160.784 30.649 164.308 31.491C167.832 32.333 169.975 35.7857 169.132 39.3125C168.29 42.7616 164.766 44.9848 161.32 44.1427ZM164.002 32.4105C161.013 31.72 158.029 33.5591 157.338 36.5503C156.647 39.5415 158.487 42.5326 161.471 43.2197C164.46 43.9102 167.444 42.0711 168.135 39.0799C168.9 36.0887 166.986 33.0976 163.998 32.4105H164.002Z" fill="#27313A"/>
<path d="M162.81 44.4105C162.306 44.4105 161.799 44.3506 161.299 44.2273C157.701 43.3641 155.555 39.8832 156.411 36.3001C156.823 34.5702 157.87 33.1116 159.35 32.1921C160.833 31.2725 162.602 30.9907 164.329 31.4064C167.927 32.2661 170.077 35.7505 169.22 39.3336C168.804 41.0318 167.751 42.4798 166.253 43.4134C165.193 44.0723 164.008 44.4105 162.814 44.4105H162.81ZM162.765 31.3959C161.595 31.3959 160.453 31.7165 159.442 32.3436C158 33.2385 156.982 34.6583 156.58 36.3424C155.749 39.8304 157.838 43.2197 161.341 44.0582C162.98 44.4598 164.689 44.178 166.155 43.2655C167.613 42.3565 168.642 40.9472 169.044 39.2948C169.876 35.8069 167.786 32.4176 164.283 31.5791C163.776 31.4593 163.265 31.3994 162.761 31.3994L162.765 31.3959ZM162.743 43.4557C162.314 43.4557 161.88 43.4064 161.454 43.3077C158.437 42.6101 156.552 39.5696 157.253 36.5327C157.592 35.0635 158.483 33.8198 159.762 33.0271C161.038 32.2344 162.55 31.9842 164.023 32.326C165.503 32.6677 166.803 33.6049 167.589 34.8979C168.364 36.1733 168.59 37.6671 168.223 39.1046C167.885 40.5702 166.993 41.8139 165.714 42.6066C164.808 43.1668 163.786 43.4557 162.747 43.4557H162.743ZM162.729 32.3542C161.722 32.3542 160.731 32.6325 159.854 33.1751C158.613 33.9431 157.75 35.148 157.422 36.5714C156.742 39.5168 158.568 42.4622 161.492 43.1351C162.916 43.4628 164.382 43.2232 165.619 42.4551C166.859 41.6871 167.723 40.4821 168.05 39.0588C168.406 37.6671 168.188 36.2226 167.437 34.986C166.676 33.7317 165.415 32.8263 163.98 32.4916C163.564 32.3964 163.145 32.3471 162.729 32.3471V32.3542Z" fill="#27313A"/>
<path d="M146.002 46.1368C142.478 45.2947 140.335 41.842 141.177 38.3153C142.02 34.7886 145.466 32.643 148.99 33.485C152.51 34.327 154.656 37.7798 153.814 41.3065C152.972 44.7557 149.526 46.9788 146.002 46.1368ZM148.757 34.4046C145.769 33.714 142.784 35.5531 142.094 38.5443C141.403 41.5355 143.242 44.5267 146.231 45.2137C149.219 45.9042 152.204 44.0651 152.894 41.0739C153.585 38.0828 151.746 35.0916 148.761 34.4046H148.757Z" fill="#27313A"/>
<path d="M147.489 46.401C146.992 46.401 146.484 46.3446 145.98 46.2213C142.383 45.3582 140.233 41.8773 141.089 38.2942C141.502 36.5643 142.548 35.1057 144.028 34.1862C145.512 33.2666 147.281 32.9883 149.007 33.4005C152.605 34.2637 154.751 37.7446 153.899 41.3276C153.159 44.3576 150.449 46.401 147.489 46.401ZM146.023 46.0522C149.43 46.8661 152.887 44.731 153.729 41.2854C154.561 37.7974 152.471 34.4081 148.969 33.5696C147.291 33.168 145.568 33.4392 144.123 34.3341C142.682 35.229 141.664 36.6489 141.262 38.3329C140.43 41.8209 142.52 45.2102 146.023 46.0487V46.0522ZM147.503 45.4498C147.073 45.4498 146.643 45.4004 146.213 45.3018C143.197 44.6042 141.311 41.5637 142.013 38.5267C142.351 37.0611 143.242 35.8139 144.522 35.0211C145.797 34.2284 147.312 33.9818 148.782 34.32C151.798 35.0176 153.684 38.0581 152.982 41.0951C152.644 42.5608 151.753 43.808 150.473 44.6007C149.568 45.1609 148.546 45.4498 147.506 45.4498H147.503ZM147.489 34.3482C146.481 34.3482 145.487 34.6265 144.613 35.1691C143.373 35.9372 142.509 37.1421 142.182 38.5655C141.502 41.5108 143.327 44.4562 146.252 45.1292C147.675 45.4603 149.141 45.2172 150.378 44.4492C151.619 43.6811 152.482 42.4762 152.81 41.0528C153.49 38.1075 151.664 35.1621 148.74 34.4891C148.324 34.394 147.904 34.3447 147.489 34.3447V34.3482Z" fill="#27313A"/>
<path d="M135.359 37.1667C135.511 37.3217 135.666 37.3957 135.743 37.4732C138.732 37.7022 141.103 39.4673 141.103 39.4673C141.181 39.4673 141.255 39.5448 141.332 39.5448C141.484 39.5448 141.716 39.4673 141.79 39.3158C142.019 39.1608 141.942 38.7803 141.713 38.6253C141.561 38.5478 139.109 36.6312 135.817 36.4022C135.433 36.3246 135.127 36.7862 135.359 37.1702V37.1667Z" fill="#27313A"/>
<path d="M141.332 39.6295C141.272 39.6295 141.223 39.6048 141.177 39.5837C141.149 39.5696 141.117 39.5555 141.103 39.5555H141.075L141.05 39.5379C141.026 39.5203 138.661 37.7869 135.736 37.5614H135.705L135.68 37.5367C135.652 37.5085 135.61 37.4804 135.564 37.4451C135.49 37.3923 135.395 37.3253 135.299 37.2302L135.328 37.202H135.307L135.289 37.2126C135.289 37.2126 135.285 37.2056 135.282 37.202L135.275 37.1915C135.159 36.9801 135.169 36.7299 135.307 36.5361C135.433 36.3565 135.638 36.2719 135.839 36.3142C137.181 36.4058 139.292 36.8568 141.642 38.4704C141.702 38.5127 141.741 38.5373 141.755 38.5444C141.921 38.6536 142.02 38.8438 142.02 39.0341C142.02 39.1785 141.963 39.2983 141.861 39.3723C141.762 39.5414 141.519 39.6295 141.332 39.6295ZM141.135 39.3794C141.181 39.3864 141.22 39.4075 141.258 39.4252C141.287 39.4393 141.315 39.4533 141.332 39.4533C141.473 39.4533 141.66 39.3794 141.713 39.2737L141.724 39.2525L141.745 39.2384C141.826 39.1821 141.843 39.094 141.843 39.0306C141.843 38.9002 141.773 38.7628 141.667 38.6923C141.66 38.6923 141.614 38.6571 141.544 38.6113C139.222 37.0223 137.146 36.5784 135.814 36.4833C135.666 36.4551 135.536 36.5115 135.448 36.6348C135.37 36.744 135.324 36.9272 135.43 37.1104C135.511 37.1915 135.592 37.2478 135.662 37.2972C135.705 37.3289 135.747 37.3571 135.779 37.3852C138.594 37.6107 140.892 39.2067 141.135 39.3794Z" fill="#27313A"/>
<path d="M135.127 88.4607C129.305 80.7168 123.565 94.7496 123.565 94.7496C115.985 86.0861 116.059 73.2794 116.059 73.2794C121.88 65.7644 129.844 64.9999 129.844 64.9999C134.898 75.58 135.127 88.4643 135.127 88.4643V88.4607Z" fill="white"/>
<path d="M123.565 95.102C123.463 95.102 123.368 95.0597 123.301 94.9822C115.717 86.3187 115.707 73.4098 115.71 73.2794C115.71 73.2019 115.735 73.1279 115.784 73.0645C121.63 65.5178 129.732 64.6546 129.813 64.6476C129.961 64.637 130.102 64.711 130.165 64.8449C135.194 75.3722 135.483 88.3234 135.483 88.4537C135.483 88.6052 135.388 88.7426 135.247 88.792C135.102 88.8413 134.944 88.792 134.852 88.6722C133.643 87.0656 132.364 86.3363 131.046 86.5054C127.166 87.0057 123.928 94.8025 123.896 94.88C123.85 94.9928 123.748 95.0738 123.628 95.0949C123.611 95.0949 123.59 95.0985 123.572 95.0985L123.565 95.102ZM116.415 73.3992C116.433 74.6816 116.799 86.0826 123.466 94.0908C124.294 92.2517 127.251 86.2835 130.951 85.8078C132.283 85.6387 133.552 86.1848 134.732 87.4391C134.556 84.2153 133.686 74.0087 129.637 65.3804C128.276 65.5848 121.496 66.9095 116.415 73.3992Z" fill="#27313A"/>
<path d="M101.358 116.6C102.277 119.898 102.584 121.586 103.578 125.19C111.39 113.535 112.232 111.235 114.068 102.339" fill="#27313A"/>
<path d="M148.532 73.4307C147.277 80.1776 147.616 87.8934 147.735 89.8875C147.749 90.1059 147.996 90.2222 148.176 90.0954C150.819 88.1611 154.279 83.9369 154.279 83.9369C154.279 83.9369 160.71 77.19 155.964 73.5082C151.982 70.4395 149.836 67.5259 149.836 67.5259L149.148 70.133L148.535 73.4307H148.532Z" fill="white"/>
<path d="M148.007 90.5006C147.915 90.5006 147.823 90.4795 147.739 90.4407C147.531 90.342 147.394 90.1377 147.379 89.9087C147.253 87.7278 146.932 80.0966 148.183 73.3674L148.796 70.0697L149.49 67.4378C149.526 67.3075 149.631 67.2053 149.765 67.1807C149.899 67.156 150.033 67.2088 150.114 67.3181C150.135 67.3462 152.281 70.2317 156.172 73.23C157.313 74.1143 157.941 75.2417 158.043 76.577C158.311 80.1671 154.681 84.0179 154.529 84.18C154.406 84.335 151.03 88.4395 148.38 90.3773C148.271 90.4583 148.141 90.4971 148.007 90.4971V90.5006ZM149.991 68.301L149.483 70.2247L148.877 73.4977C147.665 80.0086 147.947 87.3967 148.077 89.729C150.639 87.8089 153.969 83.7572 154.001 83.7149C154.054 83.6586 157.588 79.9064 157.341 76.6298C157.257 75.4989 156.718 74.5441 155.742 73.7866C152.757 71.4895 150.815 69.2981 149.991 68.301Z" fill="#27313A"/>
<path d="M147.912 90.483C147.859 90.483 147.81 90.4725 147.757 90.4478C145.047 89.1337 142.503 87.4883 140.198 85.5541C137.714 83.4684 135.515 81.055 133.665 78.3844C133.555 78.2259 133.594 78.0039 133.753 77.8947C133.911 77.7855 134.133 77.8243 134.243 77.9828C136.057 80.604 138.214 82.9681 140.649 85.0151C142.908 86.9105 145.403 88.5277 148.06 89.8136C148.236 89.8982 148.306 90.1096 148.222 90.2857C148.162 90.4126 148.035 90.483 147.905 90.483H147.912Z" fill="#27313A"/>
<path d="M105.142 82.4783C103.842 83.6444 72.3173 112.013 66.7989 118.989C65.3823 120.782 64.3322 122.635 64.3322 122.635C62.7183 125.496 61.5483 128.815 60.8964 132.86C59.723 140.163 61.6717 145.6 62.4822 147.122C62.5245 147.199 62.8945 147.9 63.416 148.82C64.0679 149.975 64.7903 151.216 65.5937 152.561C70.4179 160.64 78.7061 172.168 92.7241 183.537C93.6262 184.21 94.5318 184.883 95.4339 185.556C97.2241 183.861 99.0212 182.142 100.825 180.395C102.929 178.358 104.994 176.332 107.024 174.313C105.713 172.393 104.406 170.452 103.102 168.49C96.4699 158.512 90.3384 148.608 84.6579 138.835L115.442 106.556C116.338 105.661 117.229 104.766 118.124 103.871" fill="white"/>
<path d="M95.434 185.908C95.36 185.908 95.286 185.884 95.2226 185.838L92.5127 183.819C81.3597 174.775 72.2047 164.322 65.2908 152.741C64.4521 151.339 63.7403 150.113 63.1095 148.992C62.6021 148.091 62.2321 147.4 62.1757 147.294C61.1221 145.321 59.4306 139.758 60.5477 132.803C61.1785 128.875 62.3167 125.493 64.0257 122.463C64.068 122.385 65.1041 120.564 66.5242 118.771C72.1201 111.693 104.582 82.51 104.906 82.2176C105.051 82.0873 105.273 82.1014 105.403 82.2458C105.533 82.3903 105.523 82.6122 105.375 82.7426C105.047 83.035 72.6346 112.179 67.0739 119.211C65.689 120.962 64.6459 122.794 64.6354 122.812C62.9686 125.768 61.8586 129.072 61.2419 132.916C60.153 139.688 61.781 145.061 62.7924 146.956C62.8523 147.069 63.2153 147.752 63.7227 148.647C64.3499 149.764 65.0618 150.983 65.8969 152.382C72.772 163.892 81.8706 174.285 92.9462 183.266L95.4058 185.098C97.1325 183.467 98.8698 181.8 100.582 180.144C102.58 178.214 104.593 176.237 106.569 174.275C105.308 172.422 104.043 170.544 102.81 168.691C96.3925 159.034 90.1835 149.052 84.355 139.018C84.2775 138.884 84.2951 138.712 84.4043 138.599L115.189 106.32L117.874 103.632C118.012 103.494 118.234 103.494 118.371 103.632C118.508 103.769 118.508 103.991 118.371 104.132L115.689 106.816L85.0915 138.899C90.8741 148.844 97.0304 158.738 103.391 168.307C104.677 170.241 105.995 172.2 107.31 174.127C107.405 174.268 107.387 174.454 107.267 174.574C105.22 176.611 103.134 178.658 101.065 180.659C99.2821 182.385 97.4673 184.122 95.6701 185.82C95.6032 185.884 95.5151 185.915 95.427 185.915L95.434 185.908Z" fill="#27313A"/>
<path d="M177.861 134.59C177.752 134.59 177.643 134.54 177.576 134.445C177.463 134.287 177.498 134.068 177.653 133.952L183.475 129.735C183.633 129.619 183.852 129.657 183.968 129.812C184.081 129.971 184.046 130.189 183.891 130.306L178.069 134.523C178.006 134.569 177.935 134.59 177.861 134.59Z" fill="#27313A"/>
<path d="M236.812 106.926C236.657 106.926 236.516 106.824 236.473 106.669C236.421 106.482 236.533 106.288 236.72 106.235L249.815 102.631C250.002 102.578 250.195 102.691 250.248 102.878C250.301 103.064 250.188 103.258 250.002 103.311L236.907 106.915C236.875 106.922 236.843 106.929 236.812 106.929V106.926Z" fill="#27313A"/>
<path d="M96.5757 184.482C97.2663 185.193 102.915 190.7 108.24 195.749C108.24 195.749 109.959 197.743 113.106 199.011C114.142 199.427 115.055 199.645 115.689 199.765C115.968 199.811 116.387 199.85 116.859 199.744C117.87 199.529 117.966 198.948 118.702 198.715C119.491 198.465 119.854 198.99 122.786 199.892C123.368 200.072 123.706 200.072 123.886 200.057C123.939 200.054 123.977 200.047 124.002 200.043C124.298 200.001 124.989 199.899 125.338 199.455C125.785 198.884 125.464 198.028 125.443 197.972C125.693 198.113 126.497 198.518 127.35 198.232C127.501 198.183 127.702 198.113 127.868 197.94C128.305 197.486 128.238 196.559 127.72 195.611C127.938 195.569 129.217 195.305 129.379 194.568C129.51 193.984 128.865 193.395 128.431 193.011C124.943 189.914 122.769 188.445 122.769 188.445C119.551 186.264 119.005 185.651 119.093 185.496C119.276 185.172 122.057 187.008 124.488 185.972C124.608 185.919 125.912 185.352 125.87 184.693C125.841 184.291 125.327 184.023 125.063 183.886C121.07 181.811 119.657 180.824 117.603 180.388C116.612 180.176 116.214 180.106 116.214 180.106C115.09 179.894 114.766 179.877 113.8 179.591C110.305 178.552 107.757 176.748 106.115 175.335C103.053 178.4 99.6379 181.42 96.5721 184.485L96.5757 184.482Z" fill="white"/>
<path d="M123.745 200.413C123.442 200.413 123.086 200.35 122.684 200.227C121.486 199.86 120.721 199.557 120.165 199.335C119.354 199.015 119.15 198.941 118.811 199.05C118.558 199.131 118.403 199.261 118.205 199.43C117.93 199.663 117.592 199.952 116.937 200.089C116.528 200.181 116.098 200.188 115.636 200.114C114.713 199.938 113.822 199.677 112.979 199.339C109.892 198.095 108.162 196.193 107.99 195.995C102.757 191.035 97.0339 185.461 96.3256 184.728C96.1917 184.591 96.1917 184.369 96.3291 184.235C97.8655 182.699 99.5112 181.152 101.107 179.655C102.697 178.161 104.342 176.614 105.872 175.085C106.002 174.955 106.21 174.948 106.351 175.068C108.638 177.034 111.182 178.443 113.906 179.253C114.604 179.461 114.956 179.521 115.545 179.627C115.756 179.662 115.992 179.704 116.288 179.761C116.302 179.761 116.701 179.835 117.684 180.046C119.273 180.384 120.478 181.036 122.667 182.213C123.392 182.604 124.235 183.058 125.235 183.576C125.549 183.738 126.194 184.073 126.233 184.672C126.289 185.524 125.028 186.13 124.64 186.3C123.001 186.997 121.232 186.49 120.133 186.113C120.637 186.518 121.5 187.156 122.98 188.16C123.001 188.174 125.211 189.678 128.678 192.75C129.14 193.163 129.915 193.85 129.739 194.646C129.587 195.329 128.819 195.678 128.241 195.851C128.643 196.802 128.611 197.686 128.136 198.183C127.91 198.419 127.639 198.511 127.477 198.564C126.913 198.754 126.37 198.691 125.937 198.557C125.958 198.905 125.901 199.321 125.627 199.67C125.19 200.227 124.4 200.343 124.062 200.389C124.016 200.396 123.977 200.399 123.928 200.406C123.872 200.41 123.812 200.413 123.752 200.413H123.745ZM119.079 198.299C119.46 198.299 119.84 198.447 120.425 198.68C120.972 198.895 121.722 199.194 122.896 199.554C123.29 199.677 123.614 199.726 123.861 199.705C123.896 199.705 123.925 199.698 123.946 199.695C124.214 199.656 124.806 199.571 125.07 199.233C125.398 198.817 125.126 198.102 125.123 198.095C125.07 197.958 125.109 197.799 125.221 197.701C125.334 197.602 125.496 197.588 125.623 197.658C125.947 197.841 126.589 198.113 127.244 197.894C127.364 197.856 127.512 197.803 127.621 197.694C127.938 197.362 127.854 196.577 127.42 195.777C127.367 195.678 127.364 195.558 127.41 195.46C127.459 195.358 127.551 195.284 127.66 195.263C128.291 195.139 128.964 194.854 129.045 194.491C129.133 194.096 128.53 193.561 128.206 193.272C124.777 190.231 122.6 188.752 122.578 188.734C118.448 185.933 118.6 185.662 118.794 185.32C118.995 184.964 119.396 185.102 120.059 185.334C121.088 185.697 122.811 186.303 124.358 185.644C125.017 185.362 125.538 184.943 125.524 184.711C125.51 184.506 125.073 184.281 124.908 184.193C123.9 183.668 123.058 183.217 122.328 182.822C120.196 181.674 119.023 181.043 117.536 180.722C116.567 180.514 116.165 180.444 116.161 180.444C115.869 180.388 115.633 180.345 115.425 180.31C114.812 180.201 114.445 180.138 113.709 179.919C110.985 179.109 108.444 177.728 106.143 175.804C104.674 177.266 103.109 178.735 101.594 180.159C100.089 181.571 98.5386 183.03 97.0797 184.478C98.4047 185.799 103.655 190.904 108.49 195.488C108.532 195.534 110.224 197.461 113.247 198.68C114.047 199.001 114.893 199.251 115.763 199.413C116.13 199.473 116.468 199.466 116.792 199.395C117.279 199.293 117.501 199.103 117.758 198.888C117.973 198.705 118.216 198.497 118.607 198.373C118.776 198.321 118.935 198.296 119.09 198.296L119.079 198.299Z" fill="#27313A"/>
<path d="M119.164 198.955C119.114 198.955 119.069 198.944 119.019 198.923C118.642 198.754 118.272 198.588 117.909 198.437C116.232 197.701 114.734 196.661 113.452 195.354L112.296 194.167C112.158 194.026 112.162 193.804 112.303 193.67C112.444 193.536 112.666 193.536 112.8 193.677L113.952 194.861C115.171 196.104 116.595 197.091 118.184 197.789C118.544 197.94 118.921 198.109 119.301 198.278C119.477 198.359 119.558 198.567 119.477 198.743C119.417 198.874 119.291 198.951 119.157 198.951L119.164 198.955Z" fill="#27313A"/>
<path d="M125.503 198.356C125.468 198.356 125.429 198.349 125.39 198.338C121.683 197.105 118.466 194.854 116.419 193.18C116.267 193.057 116.246 192.835 116.369 192.683C116.493 192.532 116.715 192.511 116.866 192.634C118.868 194.269 122.011 196.471 125.616 197.669C125.799 197.729 125.901 197.93 125.838 198.113C125.789 198.261 125.651 198.352 125.503 198.352V198.356Z" fill="#27313A"/>
<path d="M127.727 195.964C127.674 195.964 127.617 195.949 127.565 195.925C126.028 195.129 124.509 194.248 123.054 193.307C121.651 192.398 120.274 191.412 118.959 190.372C118.808 190.252 118.78 190.031 118.903 189.879C119.023 189.728 119.245 189.699 119.396 189.823C120.693 190.848 122.053 191.824 123.438 192.719C124.876 193.649 126.373 194.519 127.889 195.301C128.061 195.389 128.128 195.604 128.04 195.777C127.977 195.897 127.854 195.967 127.727 195.967V195.964Z" fill="#27313A"/>
</g>
<defs>
<clipPath id="clip0_2618_1203">
<rect width="336" height="200" fill="white"/>
</clipPath>
</defs>
</svg>
