<svg xmlns="http://www.w3.org/2000/svg" width="22" height="22" fill="none"><path fill="#4A5868" d="M7.55 21.5H4.385A3.885 3.885 0 0 1 .5 17.615V4.385A3.885 3.885 0 0 1 4.385.5h13.23A3.885 3.885 0 0 1 21.5 4.385v3.27a.9.9 0 1 1-1.8 0v-3.27A2.085 2.085 0 0 0 17.615 2.3H4.385A2.085 2.085 0 0 0 2.3 4.385v13.23A2.085 2.085 0 0 0 4.385 19.7H7.55a.9.9 0 0 1 0 1.8Z"/><path fill="#4A5868" d="M19.565 18.5a.9.9 0 0 1-.9-.9 2.19 2.19 0 0 0-1.8-2.1 3.87 3.87 0 0 1-4.62 0 2.19 2.19 0 0 0-1.8 2.13.9.9 0 1 1-1.8 0 3.975 3.975 0 0 1 3.855-4.05.901.901 0 0 1 .66.27 2.055 2.055 0 0 0 2.79 0 .902.902 0 0 1 .66-.27 3.975 3.975 0 0 1 3.855 3.975.9.9 0 0 1-.9.945Z"/><path fill="#4A5868" d="M14.555 16.22a3.78 3.78 0 1 1 0-7.56 3.78 3.78 0 0 1 0 7.56Zm0-5.76a1.98 1.98 0 1 0 .002 3.96 1.98 1.98 0 0 0-.002-3.96Z"/><path fill="#BF63C6" d="M8 13.64H5.765a1.68 1.68 0 0 1-1.68-1.665v-.78a3.27 3.27 0 0 1 3.18-3.285.915.915 0 0 1 .735.255 1.35 1.35 0 0 0 1.86 0A.9.9 0 0 1 11 9.5a3.195 3.195 0 0 1-4.035.3 1.5 1.5 0 0 0-1.125 1.5v.645H8a.9.9 0 0 1 .9.9.9.9 0 0 1-.9.795Z"/><path fill="#BF63C6" d="M8.855 10.355a3.135 3.135 0 1 1 0-6.27 3.135 3.135 0 0 1 0 6.27Zm0-4.5A1.335 1.335 0 1 0 10.19 7.19 1.335 1.335 0 0 0 8.855 5.9v-.045Z"/></svg>