<svg width="20" height="22" viewBox="0 0 20 22" fill="none" xmlns="http://www.w3.org/2000/svg">
<g clip-path="url(#clip0_4680_1393)">
<path d="M10.97 13.4046C10.07 13.4046 9.42004 13.1446 8.65004 12.7646C6.59004 13.0246 5.04004 14.6946 5.04004 16.7646V17.9246C5.04004 18.5646 5.56004 19.0846 6.20004 19.0846H10.97" stroke="#3B4854" stroke-width="1.8" stroke-miterlimit="10" stroke-linecap="round"/>
<path d="M10.9701 13.4046C12.8203 13.4046 14.3201 11.9047 14.3201 10.0546C14.3201 8.20444 12.8203 6.70459 10.9701 6.70459C9.11996 6.70459 7.62012 8.20444 7.62012 10.0546C7.62012 11.9047 9.11996 13.4046 10.9701 13.4046Z" stroke="#3B4854" stroke-width="1.8" stroke-miterlimit="10"/>
<path d="M2.24012 14.3748C3.27289 14.3748 4.11012 13.5375 4.11012 12.5048C4.11012 11.472 3.27289 10.6348 2.24012 10.6348C1.20734 10.6348 0.370117 11.472 0.370117 12.5048C0.370117 13.5375 1.20734 14.3748 2.24012 14.3748Z" fill="#3B4854"/>
<path d="M16.93 13.575L17.25 12.625C17.41 12.145 17.73 11.835 18.2 12.145C18.68 12.305 18.83 12.775 18.68 13.255C18.68 13.255 18.2 16.905 15.03 19.755C14.71 20.075 14.24 20.385 13.92 20.075C13.44 19.915 13.29 19.285 13.6 18.965L14.39 18.015" stroke="#3278B2" stroke-width="1.8" stroke-miterlimit="10" stroke-linecap="round"/>
<path d="M18.4299 9.42467C18.1099 5.15467 14.5499 1.78467 10.1899 1.78467C5.61992 1.78467 1.91992 5.48467 1.91992 10.0547C1.91992 10.9547 2.07992 11.8247 2.34992 12.6347" stroke="#3B4854" stroke-width="1.8" stroke-linecap="round" stroke-linejoin="round"/>
</g>
<defs>
<clipPath id="clip0_4680_1393">
<rect width="19.26" height="20.23" fill="white" transform="translate(0.370117 0.884766)"/>
</clipPath>
</defs>
</svg>
