<svg xmlns="http://www.w3.org/2000/svg" width="282" height="233" viewBox="0 0 282 233"><defs><path id="fs-p3pc5towca" d="M19.67.512c2.76-.472 4.847 2.49 3.467 4.948-5.184 9.223-7.709 14.475-5.252 23.935 2.458 9.459-8.213 4.242-6.833 8.012 3.77 9.56-2.39 14.509-2.39 14.509H.481s2.053-11.446 0-28.85"/></defs><g fill="none" fill-rule="evenodd"><path fill="#2D2B65" d="M235.343 60.806c31.813 0 32.115 28.31 25.854 49.081a27591.521 27591.521 0 01-15.115 49.991 8.665 8.665 0 01-8.315 6.16h-28.614l2.322-27.098a119.422 119.422 0 016.565-30.062l17.303-48.072z"/><path fill="#2D2B65" d="M229.89 166.039l20.3 65.778h-5.42l-26.157-65.778zM159.903 166.039l-20.3 65.778h5.42l26.157-65.778z"/><path fill="#453D68" d="M149.837 166.039H237.8a8.665 8.665 0 008.315-6.161l2.088-6.902H144.62v7.845a5.222 5.222 0 005.217 5.218"/><path fill="#2D2B65" d="M181.92 129.076l-45.144 6.598a12.68 12.68 0 00-5.992 2.625 12.532 12.532 0 00-4.107 6.06l-20.501 77.36h10.503l16.09-44.571c3.738-10.537 9.258-10.436 11.581-21.478h25.955l23.16-11.176 17.977-15.452H181.92v.034z"/><path fill="#1A4EC4" d="M148.087 144.763c.875-2.861 3.332-4.983 6.295-5.487 9.796-1.616 32.687-2.727 41.574-4.175 9.83-1.582 13.23-9.728 13.23-9.728l22.32 3.703c-3.737 24.34-8.887 26.594-27.504 26.594h-33.697c3.13 8.618 2.76 13.398 4.679 22.184 2.694 12.321 8.753 43.157 8.753 43.157H173l-22.96-66.115c-1.75-5.454-2.49-8.416-1.952-10.133"/><path fill="#E8A98E" d="M212.822 28.59c.606 3.904 1.784 8.82 1.784 8.82s2.02 8.82 1.75 8.82h-9.324l-9.29-2.357 1.749-14.643 13.33-.64z"/><path fill="#A4443D" d="M175.287 73.295c1.212-13.97-2.222-23.666 7.675-29.018l10.336 20.501V81.24H174.85c.101-2.895.236-5.622.437-7.945"/><path fill="#E8A587" d="M193.297 81.24l-.707 26.695-17.303 5.285s-.807-17.505-.404-31.98h18.414zM130.447 108.81l-16.495-3.434h-2.727l-5.353 7.575 1.516.875 4.241-4.208 7.91 2.12 3.839 2.829 7.07.774z"/><path fill="#E8A587" d="M121.83 110.662l-2.29 1.077h-7.103l-.472 1.817 11.413 1.01 2.188-2.457zM174.715 100.024l2.053-5.588 13.87 7.44-3.703 9.392c-.64 1.582-2.053 2.726-3.737 2.962-19.155 2.962-39.958-1.414-52.718.976v-6.43l44.235-8.752z"/><path fill="#EE795F" d="M214.606 37.41l25.046 10.233 4.646 9.864-12.759 71.502h-48.577l-1.615-55.849 1.615-28.883 15.553-6.868s2.088 5.32 8.921 5.05c6.127-.236 7.17-5.05 7.17-5.05"/><path fill="#A4443D" d="M244.23 58.416l-8.685 47.398a13.357 13.357 0 01-12.321 10.907l-40.565 2.492-.37-12.39s16.496-4.847 16.967-4.847c.47 0 25.416-5.89 25.416-5.89l6.867-24.508 12.691-13.162z"/><path fill="#72566F" d="M54.674 124.026h226.753v-8.483H54.674z"/><path fill="#A4443D" d="M208.076 31.047s-6.901 5.857-9.46 5.992l.37-3.467 4.007-.539 5.083-1.986z"/><path fill="#FCBE9F" d="M190.47 9.132c-.842 11.042-.64 25.349 4.948 25.45 5.554.101 15.317-4.578 15.317-4.578l.505-5.757.572-9.863-4.51-6.43-16.832 1.178z"/><path fill="#2C4067" d="M188.618 4.655c-4.309 3.164-2.66 7.17.74 8.55 4.276 1.75 13.13.37 13.13.37a15.01 15.01 0 001.515 8.955c.37.707.606 1.481.706 2.29l.134.976 1.852-.27s-.066-.808-.066-3.03c0-2.221 3.13-2.087 3.23.034.102 2.088-1.245 6.262-1.245 6.262s1.852 1.615 3.468 1.447c1.615-.168 3.366-7.137 4.04-12.69.706-5.556-.943-12.053-3.67-12.928 0 0-2.053-4.174-8.988-3.972-6.935.202-14.846 4.006-14.846 4.006"/><path fill="#FCBE9F" d="M169.194 103.02l-16.495-3.433h-2.727l-5.353 7.574 1.515.875 4.242-4.208 7.911 2.12 3.837 2.828 7.07.741z"/><path fill="#FCBE9F" d="M160.576 104.872l-2.289 1.077h-7.103l-.471 1.817 11.412 1.01 2.188-2.49z"/><path fill="#1F161E" d="M173.1 221.045h10.435v10.806h-9.763v-1.616c-4.308 0-5.117 1.616-9.997 1.616h-11.346v-2.02c.035-6.16 14.746-2.862 20.67-8.786M105.974 221.617h10.435v10.807h-9.762v-1.617c-4.309 0-5.117 1.617-9.998 1.617H85.304v-2.021c0-6.16 14.711-2.861 20.67-8.786"/><path fill="#3F2B37" d="M62.718 231.817h9.224V123.453h-9.224zM264.934 231.817h9.224V123.453h-9.224z"/><path fill="#FCBE9F" d="M213.462 94.234l2.053-5.588 13.87 7.44-3.703 9.391c-.64 1.583-2.053 2.727-3.737 2.963-19.155 2.963-39.959-1.414-52.717.976v-6.43l44.234-8.752z"/><path fill="#EE795F" d="M228.745 52.457c1.818-4.915 7.71-6.968 12.153-4.174 3.433 2.12 4.814 6.396 3.332 10.133l-14.845 37.67-13.87-7.44 13.23-36.189z"/><path stroke="#A4443D" stroke-width="1.278" d="M223.022 92.652a1903.648 1903.648 0 00-7.506-4.006s4.645-12.725 8.45-23.094"/><path fill="#93B8C2" d="M86.819 115.644h82.375v-3.063H86.819z"/><path fill="#DCEFF5" d="M65.712 71.006h55.107c1.482 0 2.761 1.01 3.097 2.458l9.73 42.214H72.982l-9.627-41.71c-.337-1.515.807-2.962 2.356-2.962"/><path fill="#66BF65" d="M55.615 164.356c-7.003 1.177-17.405 5.79-19.189 22.554 2.054 17.404 0 28.85 0 28.85h8.18s6.161-4.949 2.39-14.51c-1.38-3.77 9.292 1.448 6.834-8.011-2.457-9.46.068-14.712 5.252-23.935 1.38-2.457-.707-5.42-3.467-4.948"/><path fill="#BEDB39" d="M37.436 189.266s-4.241-5.756 0-13.835c1.885-3.4 1.38-7.238-3.938-9.123-1.314-.471-2.559-1.077-3.603-1.953-6.025-4.949-4.645-10.3-14.105-19.39-7.035-6.8-18.043-6.025-15.384 0 2.693 6.026 13.97 26.527 13.196 33.429-.774 6.9-4.107 19.86 6.396 21.51 10.503 1.65 14.846 14.206 14.745 15.89h3.703l-1.01-26.528z"/><path fill="#56A856" d="M38.547 215.827l1.548-.1c-1.65-23.195 8.585-38.781 10.84-41.912a.782.782 0 00-.134-1.044.799.799 0 00-1.111.135c-2.054 2.862-10.1 15.182-11.177 33.663-5.015-20.063-19.626-46.085-22.285-50.697a.734.734 0 00-1.044-.27.733.733 0 00-.269 1.044c2.895 5.15 22.083 39.522 23.632 59.181"/><path fill="#DAA793" d="M30.804 232.49h17.943a.51.51 0 00.505-.437l2.29-16.664a.514.514 0 00-.506-.572H28.28c-.303 0-.539.27-.505.606l2.524 16.664c.034.202.27.404.505.404"/><g><path fill="#5A202D" d="M195.452 27.816c.707.235 1.481.168 2.154-.068.337-.135.673-.303.976-.538a2.83 2.83 0 00.741-.809l-.943.438c-.302.134-.605.27-.942.37-.303.101-.64.203-.942.304-.37.134-.708.201-1.044.303M199.93 20.712a1.91 1.91 0 00-.64-.808c-.304-.201-.674-.336-1.078-.302-.37.033-.74.168-1.043.37a2.28 2.28 0 00-.674.808c.337-.135.606-.27.91-.37.268-.101.572-.169.84-.203.27 0 .54.034.809.135.27.101.539.236.875.37M193.5 20.712a1.913 1.913 0 00-.64-.808c-.304-.201-.673-.336-1.078-.302-.37.033-.74.168-1.043.37a2.294 2.294 0 00-.674.808c.337-.135.607-.27.91-.37.269-.101.572-.169.841-.203.27 0 .539.034.808.135.27.101.572.236.875.37"/><path fill="#148FCC" d="M96.85 101.91a7.14 7.14 0 01-7.136-7.138 7.14 7.14 0 017.137-7.136h5.352c.977 0 1.785.807 1.785 1.784v5.352a7.14 7.14 0 01-7.137 7.137"/><path fill="#FFF" d="M96.952 98.307c.1.068.201.034.269-.033l2.255-3.131.539-.741c.135-.168 0-.404-.202-.404H96.413l.842-2.524c.033-.068 0-.169-.068-.236-.101-.068-.202-.034-.27.034l-2.254 3.13-.54.74c-.133.17 0 .404.203.404H97.726l-.842 2.526c-.034.067 0 .168.068.235"/><path fill="#5A202D" d="M195.048 20.746a9.14 9.14 0 00-.37 1.28c-.1.436-.169.874-.203 1.312-.033.438-.067.876-.067 1.313 0 .437 0 .875.067 1.346.169-.437.27-.841.371-1.279.1-.437.168-.875.202-1.313.034-.437.067-.875.067-1.312.034-.438 0-.876-.067-1.347"/><path fill="#3F2B37" d="M14.95 232.864h255.264v-.892H14.949z"/><path fill="#DCEFF5" d="M56.993 63.23h75.205a.915.915 0 00.908-1.078L123.48 7.617a.937.937 0 00-.909-.774H47.365a.916.916 0 00-.909 1.078l9.628 54.534a.905.905 0 00.91.774"/><path fill="#14C6A4" d="M71.193 18.185c-3.332-3.05-8.11-3.257-10.67-.46-2.561 2.798-1.937 7.538 1.395 10.59 3.332 3.05 8.11 3.256 10.67.459 2.562-2.797 1.937-7.538-1.395-10.59M76.612 41.95c-3.332-3.05-8.109-3.256-10.67-.46-2.561 2.798-1.937 7.538 1.395 10.59 3.332 3.05 8.11 3.256 10.67.459 2.562-2.797 1.937-7.538-1.395-10.59"/><path fill="#FCFFF5" d="M64.61 26.3h-.134a.654.654 0 01-.472-.303l-1.548-2.49c-.203-.304-.102-.741.201-.943.303-.202.74-.101.943.202l1.144 1.851 5.252-4.073c.303-.235.707-.168.943.135.235.302.168.707-.135.942l-5.824 4.545c-.067.101-.236.134-.37.134M70.232 50.067h-.135a.652.652 0 01-.471-.303l-1.548-2.491c-.203-.303-.102-.74.201-.942.303-.203.74-.102.942.201l1.145 1.852 5.252-4.073c.303-.236.707-.168.943.134.235.303.168.707-.135.943l-5.79 4.545c-.101.1-.27.134-.404.134"/><path fill="#AFCBD3" d="M93.047 21.385H77.562a.905.905 0 01-.91-.908c0-.506.404-.91.91-.91h15.485c.505 0 .909.404.909.91a.905.905 0 01-.91.908M109.138 27.277H79.211a.905.905 0 01-.91-.91c0-.504.405-.908.91-.908h29.927c.505 0 .909.404.909.909a.905.905 0 01-.909.909M98.332 45.152H82.847a.905.905 0 01-.91-.909c0-.505.404-.909.91-.909h15.485c.505 0 .909.404.909.91a.905.905 0 01-.91.908M114.087 51.043H84.159a.905.905 0 01-.909-.909c0-.505.405-.908.91-.908h29.927c.505 0 .908.403.908.908a.905.905 0 01-.908.91"/></g></g></svg>