<svg xmlns="http://www.w3.org/2000/svg" width="314" height="214" fill="none" viewBox="0 0 314 214"><path fill="#CFD7DF" d="M298.015 212.919a63.823 63.823 0 005.912-27.822c0-12.803-3.16-24.788-8.006-31.236h-21.857c-4.833 6.448-8.006 18.433-8.006 31.236a63.835 63.835 0 005.925 27.822h26.032z"/><path fill="#fff" d="M274.037 153.861c-4.832 6.448-8.005 18.433-8.005 31.236a63.821 63.821 0 005.925 27.822h13.47s-5.399-2.69-5.399-25.712 5.399-33.346 5.399-33.346h-11.39z"/><path fill="#CFD7DF" stroke="#92A2B1" stroke-width=".5" d="M307.021 54.456c-3.147-.488-9.717 1.569-9.717 1.569l-1.593 18.249-1.817-14.162a129.906 129.906 0 01-6.624 14.597c-3.12 5.38-3.344 16.218-3.344 16.218l3.239 17.405-4.082-9.27s1.212 14.768.817 19.924c-.395 5.155 6.425 21.993 6.425 21.993s3.174-3.613 6.123-7.252a34.42 34.42 0 004.543-7.358l-8.322-11.906 8.638 6.316s-.751-9.441-.751-11.089c0-1.648 6.478-17.695 6.478-17.695l-5.727-9.665 7.229 5.92s2.752-10.31 4.121-15.242c1.369-4.945.961-16.68.961-16.68a30.895 30.895 0 00-6.597-1.872v0z"/><path fill="#647A8E" d="M261.989 66.125c-1.804 6.303-.816 10.311-.816 10.311l8.071-2.228-8.071 5.84a71.39 71.39 0 00-.224 10.206c.316 4.76 1.949 25.857 1.949 25.857l8.216-9.81-6.873 13.252s1.382 7.779 2.712 10.996c1.33 3.217 9.336 16.113 9.336 16.113a42.686 42.686 0 015.636-9.309c3.146-3.613 1.369-15.77 1.369-15.77l-6.202-13.647 4.898 5.986s-.882-6.737 0-9.427c.883-2.69.883-21.202.883-21.202l-5.228-6.54 5.228 3.415a83.628 83.628 0 01-3.411-11.55c-1.158-5.67-11.811-18.619-11.811-18.619s-3.831 9.85-5.635 16.152l-.027-.026z"/><path stroke="#92A2B1" stroke-width=".5" d="M311.353 57.99s-22.45 25.658-22.002 47.349c.448 21.69.711 54.073.711 54.073M271.97 61.629s1.764 37.869 3.121 57.343c.75 13.502.605 27.031-.461 40.506"/><path stroke="#92A2B1" stroke-width=".5" d="M294.776 213.459a63.816 63.816 0 005.912-27.821c0-12.803-3.16-24.789-8.006-31.236h-21.858c-4.832 6.447-8.005 18.433-8.005 31.236a63.828 63.828 0 005.925 27.821h26.032z"/><path stroke="#B1BDC7" stroke-width=".5" d="M270.798 154.402c-4.832 6.447-8.006 18.433-8.006 31.236a63.829 63.829 0 005.926 27.821h13.47s-5.399-2.689-5.399-25.711 5.399-33.346 5.399-33.346h-11.39v0z"/><path stroke="#273139" stroke-linecap="round" stroke-width=".82" d="M247.308 213.459h60.912"/><path fill="#fff" d="M258.539 207.42a6.034 6.034 0 01-6.03 6.039H17.355c-1.686 0-3.306-.619-4.49-1.74-1.199-1.108-1.857-2.611-1.857-4.193V6.25c0-3.27 2.844-5.92 6.347-5.92H252.18c3.515 0 6.359 2.65 6.359 5.92v201.17z"/><path stroke="#273139" stroke-width=".49" d="M150.923 213.459H17.354c-1.685 0-3.304-.619-4.49-1.74-1.198-1.108-1.856-2.611-1.856-4.193V6.25c0-3.27 2.844-5.92 6.347-5.92H252.18c3.515 0 6.359 2.65 6.359 5.92v128.743"/><path stroke="#273139" stroke-width=".82" d="M258.539 207.539c0 3.27-2.844 5.92-6.359 5.92h-69.063"/><path stroke="#273139" stroke-width=".82" d="M258.539 193.312v14.227c0 3.27-2.844 5.92-6.359 5.92h-69.063"/><path fill="#273139" stroke="#273139" stroke-width=".5" d="M17.355.33h234.864c3.516 0 6.36 2.65 6.36 5.92v21.453H10.995V6.25c0-3.27 2.844-5.92 6.36-5.92z"/><path fill="#EBEFF3" d="M257.907 28.032H11.903v14.201h246.004v-14.2z"/><path fill="#fff" d="M212.902 33.636h-24.57c-.67 0-1.212.543-1.212 1.213v.818c0 .67.542 1.213 1.212 1.213h24.57c.669 0 1.211-.543 1.211-1.213v-.818c0-.67-.542-1.213-1.211-1.213zm21.225 0h-15.866c-.669 0-1.212.543-1.212 1.213v.818c0 .67.543 1.213 1.212 1.213h15.866c.669 0 1.212-.543 1.212-1.213v-.818c0-.67-.543-1.213-1.212-1.213zm11.706 5.986c2.568 0 4.648-1.938 4.648-4.325 0-2.386-2.08-4.324-4.648-4.324-2.568 0-4.648 1.938-4.648 4.325 0 2.386 2.08 4.324 4.648 4.324z"/><path fill="#CFD7DF" d="M45.954 33.504h-24.57c-.67 0-1.212.543-1.212 1.213v.818c0 .67.543 1.213 1.212 1.213h24.57c.669 0 1.211-.543 1.211-1.213v-.818c0-.67-.542-1.213-1.211-1.213zm39.778 0H52.445c-.669 0-1.211.543-1.211 1.213v.818c0 .67.542 1.213 1.211 1.213h33.287c.67 0 1.212-.543 1.212-1.213v-.818c0-.67-.543-1.213-1.212-1.213z"/><path fill="#fff" stroke="#EBEFF3" stroke-width=".49" d="M208.333 173.059l-162.116-.039c-3.094 0-5.596-2.334-5.596-5.222v-36.642c0-2.875 2.515-5.208 5.596-5.208l162.116.039c3.094 0 5.596 2.334 5.596 5.208v36.643c0 2.874-2.515 5.208-5.596 5.208v.013z"/><path stroke="#CFD7DF" stroke-linecap="round" stroke-linejoin="round" stroke-width="1.56" d="M110.25 135.639h12.667"/><path stroke="#EBEFF3" stroke-linecap="round" stroke-linejoin="round" stroke-width="1.56" d="M110.25 141.942h91.828"/><path stroke="#9ACBFA" stroke-linecap="round" stroke-linejoin="round" stroke-width="1.56" d="M109.855 141.942h24.675"/><path stroke="#CFD7DF" stroke-linecap="round" stroke-linejoin="round" stroke-width="1.56" d="M110.25 151.145h12.667"/><path stroke="#EBEFF3" stroke-linecap="round" stroke-linejoin="round" stroke-width="1.56" d="M110.25 157.461h91.828"/><path stroke="#9ACBFA" stroke-linecap="round" stroke-linejoin="round" stroke-width="1.56" d="M109.855 157.461h67.495"/><path fill="#EBEFF3" stroke="#EBEFF3" stroke-width=".49" d="M208.517 112.775l-162.287-.039c-3.094 0-5.596-2.334-5.596-5.222V70.846c0-2.875 2.515-5.209 5.596-5.209l162.287.04c3.094 0 5.596 2.334 5.596 5.208v36.669c0 2.874-2.515 5.208-5.609 5.208l.013.013z" opacity=".48"/><path stroke="#CFD7DF" stroke-linecap="round" stroke-linejoin="round" stroke-width="1.56" d="M110.289 75.329h12.68"/><path stroke="#EBEFF3" stroke-linecap="round" stroke-linejoin="round" stroke-width="1.56" d="M110.289 81.644h91.96"/><path stroke="#9ACBFA" stroke-linecap="round" stroke-linejoin="round" stroke-width="1.56" d="M109.907 81.644h24.689"/><path stroke="#CFD7DF" stroke-linecap="round" stroke-linejoin="round" stroke-width="1.56" d="M110.289 90.848h12.68"/><path stroke="#EBEFF3" stroke-linecap="round" stroke-linejoin="round" stroke-width="1.56" d="M110.289 97.164h91.96"/><path stroke="#9ACBFA" stroke-linecap="round" stroke-linejoin="round" stroke-width="1.56" d="M109.907 97.164h67.601"/><path fill="#DAE3E8" d="M76.357 125.948h-30.85c-4.691 0-8.494 3.807-8.494 8.504v30.103c0 4.697 3.803 8.504 8.493 8.504h30.851c4.69 0 8.493-3.807 8.493-8.504v-30.103c0-4.697-3.802-8.504-8.493-8.504z"/><path stroke="#576C7D" stroke-linecap="round" stroke-width=".49" d="M84.863 157.659v7.318a8.086 8.086 0 01-2.357 5.722 8.004 8.004 0 01-5.701 2.36h-31.72a8.058 8.058 0 01-5.702-2.36 8.086 8.086 0 01-2.357-5.722v-30.934c0-2.149.843-4.206 2.357-5.722a8.004 8.004 0 015.702-2.36h31.72c2.133 0 4.187.844 5.701 2.36a8.086 8.086 0 012.357 5.722v5.538"/><path fill="#92A2B1" d="M69.47 138.355H48.22a3.874 3.874 0 00-3.872 3.877v18.987a3.873 3.873 0 003.872 3.876h21.25a3.873 3.873 0 003.87-3.876v-18.987a3.874 3.874 0 00-3.87-3.877z"/><path fill="#fff" d="M73.658 133.898H52.406a3.874 3.874 0 00-3.871 3.877v18.987a3.873 3.873 0 003.87 3.876h21.253a3.873 3.873 0 003.87-3.876v-18.987a3.874 3.874 0 00-3.87-3.877z"/><path stroke="#535F68" stroke-width=".72" d="M73.658 133.898H52.406a3.874 3.874 0 00-3.871 3.877v18.987a3.873 3.873 0 003.87 3.876h21.253a3.873 3.873 0 003.87-3.876v-18.987a3.874 3.874 0 00-3.87-3.877z"/><path fill="#DAE3E8" d="M76.397 65.637h-30.89c-4.691 0-8.494 3.808-8.494 8.505v30.128c0 4.697 3.803 8.505 8.493 8.505h30.89c4.691 0 8.493-3.808 8.493-8.505V74.142c0-4.697-3.802-8.505-8.492-8.505z"/><path stroke="#576C7D" stroke-linecap="round" stroke-width=".49" d="M84.89 97.361v7.318c0 2.15-.843 4.207-2.358 5.723a8.071 8.071 0 01-5.701 2.373H45.098a7.994 7.994 0 01-5.701-2.373 8.086 8.086 0 01-2.358-5.723v-30.96c0-2.148.843-4.205 2.358-5.722a8.07 8.07 0 015.7-2.373h31.734c2.146 0 4.187.844 5.701 2.373a8.087 8.087 0 012.357 5.723v5.538"/><path fill="#92A2B1" d="M69.47 78.058H48.233a3.887 3.887 0 00-3.885 3.89v18.987a3.887 3.887 0 003.885 3.889H69.47a3.887 3.887 0 003.884-3.889V81.948c0-2.149-1.74-3.89-3.885-3.89z"/><path fill="#fff" d="M73.67 73.601H52.433a3.887 3.887 0 00-3.884 3.89v18.987a3.887 3.887 0 003.884 3.89h21.239a3.887 3.887 0 003.884-3.89V77.491a3.887 3.887 0 00-3.884-3.89z"/><path stroke="#535F68" stroke-width=".72" d="M73.67 73.601H52.433a3.887 3.887 0 00-3.884 3.89v18.987a3.887 3.887 0 003.884 3.89h21.239a3.887 3.887 0 003.884-3.89V77.491a3.887 3.887 0 00-3.884-3.89z"/><path fill="#fff" d="M55.145 52.188c-7.98 0-14.445-6.434-14.445-14.359 0-7.938 6.465-14.359 14.444-14.359h10.1a4.344 4.344 0 014.358 4.338V37.83a14.3 14.3 0 01-4.24 10.153 14.516 14.516 0 01-10.217 4.206z"/><path fill="#2AC4F3" d="M55.145 29.18h6.11a2.525 2.525 0 012.514 2.518v6.118c0 4.773-3.871 8.636-8.624 8.636-4.767 0-8.625-3.876-8.625-8.636 0-4.773 3.871-8.637 8.624-8.637z"/><path fill="#fff" d="M55.026 42.101c.105.08.263.053.33-.053l2.725-3.784.632-.883a.319.319 0 00-.264-.501h-4.094l1-3.06c.027-.092 0-.21-.092-.263-.105-.08-.263-.053-.33.053l-2.725 3.784-.632.883a.319.319 0 00.264.501h4.095l-1.001 3.06c-.026.092 0 .21.092.263z"/><path fill="#DAE3E8" d="M240.908 89.912v-1.398a.618.618 0 00-.618-.62h-.303a.62.62 0 01-.593-.448 5.974 5.974 0 00-.526-1.266.62.62 0 01.105-.738l.211-.211a.638.638 0 000-.884l-.988-.988a.635.635 0 00-.882 0l-.211.21a.619.619 0 01-.737.106 5.958 5.958 0 00-1.264-.527.62.62 0 01-.448-.594v-.303a.618.618 0 00-.619-.62h-1.396a.618.618 0 00-.618.62v.303a.622.622 0 01-.448.594 5.936 5.936 0 00-1.264.527.62.62 0 01-.738-.105l-.21-.211a.635.635 0 00-.882 0l-.988.988a.638.638 0 000 .884l.211.21a.622.622 0 01.105.74 5.977 5.977 0 00-.527 1.265.62.62 0 01-.592.448h-.303a.619.619 0 00-.619.62v1.424c0 .33.263.607.606.62h.355a.665.665 0 01.58.461c.131.435.289.844.513 1.24a.622.622 0 01-.105.738l-.224.224a.634.634 0 00-.013.87l.895.976c.224.25.606.264.856.053l.356-.303a.594.594 0 01.697-.066 6.34 6.34 0 001.304.54c.263.08.448.317.448.594v.303c0 .343.276.62.619.62h1.395a.618.618 0 00.619-.62v-.303c0-.277.185-.514.448-.594a5.941 5.941 0 001.264-.527.619.619 0 01.737.105l.211.211a.635.635 0 00.882 0l.988-.989a.638.638 0 000-.883l-.211-.21a.622.622 0 01-.105-.74 5.91 5.91 0 00.526-1.265.62.62 0 01.593-.448h.303a.619.619 0 00.619-.62l-.014-.013zm-4.042.553a1.808 1.808 0 01-.158.37 3.767 3.767 0 01-1.764 1.767c-.119.052-.25.105-.369.158-.395.145-.816.21-1.251.21a3.95 3.95 0 01-1.251-.21 1.826 1.826 0 01-.368-.159 3.766 3.766 0 01-1.765-1.766c-.053-.119-.105-.25-.158-.37a3.959 3.959 0 01-.211-1.252c0-.435.079-.857.211-1.253.04-.132.092-.25.158-.369a3.764 3.764 0 011.765-1.767c.118-.052.25-.105.368-.158a3.954 3.954 0 011.251-.211c.435 0 .856.08 1.251.211.132.04.25.092.369.158a3.763 3.763 0 011.764 1.767c.053.119.105.25.158.37.145.395.211.817.211 1.252 0 .435-.079.857-.211 1.253zm4.042 59.744v-1.398a.618.618 0 00-.618-.62h-.303a.62.62 0 01-.593-.448 5.99 5.99 0 00-.526-1.266.62.62 0 01.105-.738l.211-.211a.638.638 0 000-.884l-.988-.988a.634.634 0 00-.882 0l-.211.21a.618.618 0 01-.737.106 5.926 5.926 0 00-1.264-.527.622.622 0 01-.448-.594v-.303a.618.618 0 00-.619-.62h-1.396a.618.618 0 00-.618.62v.303a.623.623 0 01-.448.594 5.904 5.904 0 00-1.264.527.62.62 0 01-.738-.106l-.21-.21a.634.634 0 00-.882 0l-.988.988a.638.638 0 000 .884l.211.211a.621.621 0 01.105.738 5.994 5.994 0 00-.527 1.266.62.62 0 01-.592.448h-.303a.619.619 0 00-.619.62v1.424c0 .33.263.607.606.62h.355a.665.665 0 01.58.461c.131.435.289.844.513 1.24a.621.621 0 01-.105.738l-.224.224a.634.634 0 00-.013.87l.895.976a.617.617 0 00.856.053l.356-.303a.593.593 0 01.697-.066c.409.224.843.409 1.304.54a.622.622 0 01.448.594v.303c0 .343.276.62.619.62h1.395a.618.618 0 00.619-.62v-.303c0-.277.185-.515.448-.594a5.904 5.904 0 001.264-.527.62.62 0 01.737.105l.211.211a.634.634 0 00.882 0l.988-.989a.637.637 0 000-.883l-.211-.211a.621.621 0 01-.105-.738c.224-.396.395-.818.526-1.266a.62.62 0 01.593-.448h.303a.619.619 0 00.619-.62l-.014-.013zm-4.042.553a1.808 1.808 0 01-.158.37 3.77 3.77 0 01-1.764 1.767c-.119.052-.25.105-.369.158a3.613 3.613 0 01-1.251.211c-.434 0-.856-.079-1.251-.211a1.908 1.908 0 01-.368-.158 3.773 3.773 0 01-1.765-1.767c-.053-.119-.105-.251-.158-.37a3.953 3.953 0 01-.211-1.252c0-.435.079-.857.211-1.253.04-.132.092-.25.158-.369a3.764 3.764 0 011.765-1.767c.118-.053.25-.105.368-.158a3.951 3.951 0 011.251-.211c.435 0 .856.079 1.251.211.132.04.25.092.369.158a3.762 3.762 0 011.764 1.767c.053.119.105.251.158.369.145.396.211.818.211 1.253 0 .435-.079.857-.211 1.252z"/><path stroke="#273139" stroke-linecap="round" stroke-width=".49" d="M.33 213.459h42.806"/><path fill="#0078D7" fill-rule="evenodd" d="M54.162 78h16.832c.559 0 1.006.517 1.006 1.103V91.14c0 .563-.447 1.103-1.006 1.103H65.25c-.625 2.25.202 2.565 3.845 2.565V96H56.711v-1.192c3.666 0 4.023-.316 3.397-2.566h-5.946c-.559 0-1.162-.517-1.162-1.102V79.08c0-.563.603-1.08 1.162-1.08zm.313 1.463v11.272H70.57V79.463H54.475zm5.298 3.555l2.95-1.71 2.951 1.732v.045l-2.95 1.733-2.951-1.8zm2.615 2.272v3.442L59.46 87v-3.442l2.928 1.732zm.604 0l2.95-1.733V87l-2.95 1.733V85.29z" clip-rule="evenodd"/><path fill="#F90" fill-rule="evenodd" d="M69.465 150.822c-1.75 1.287-4.294 1.971-6.481 1.971-3.065 0-5.827-1.129-7.913-3.004-.165-.149-.016-.35.18-.233 2.257 1.303 5.04 2.092 7.92 2.092 1.941 0 4.075-.402 6.039-1.229.293-.132.543.191.255.403z" clip-rule="evenodd"/><path fill="#F90" fill-rule="evenodd" d="M70.194 149.995c-.223-.286-1.479-.137-2.048-.069-.17.022-.197-.127-.043-.238 1-.699 2.645-.498 2.836-.265.192.238-.053 1.876-.99 2.66-.143.122-.281.058-.218-.101.213-.524.687-1.706.463-1.987z" clip-rule="evenodd"/><path fill="#252F3E" d="M59.509 146.726c0 .196.021.355.059.472.042.116.095.244.17.381a.231.231 0 01.037.122c0 .053-.032.106-.101.159l-.335.223a.261.261 0 01-.139.047c-.053 0-.106-.026-.16-.074a1.599 1.599 0 01-.19-.249 4.257 4.257 0 01-.166-.312c-.415.487-.936.731-1.564.731-.447 0-.804-.127-1.065-.382-.26-.254-.394-.593-.394-1.017 0-.45.16-.816.485-1.091.324-.276.755-.414 1.303-.414.181 0 .368.016.565.043.197.026.399.069.612.116v-.386c0-.403-.086-.684-.25-.848-.17-.164-.458-.244-.868-.244a2.42 2.42 0 00-.575.069 4.327 4.327 0 00-.574.18 1.63 1.63 0 01-.187.069.313.313 0 01-.085.016c-.074 0-.112-.053-.112-.164v-.26c0-.085.011-.148.038-.185a.399.399 0 01.149-.112 3.12 3.12 0 01.67-.238c.261-.069.538-.101.83-.101.634 0 1.097.143 1.395.429.292.287.441.721.441 1.304v1.716h.01zm-2.16.806c.175 0 .356-.032.548-.096a1.18 1.18 0 00.505-.339.836.836 0 00.181-.339c.032-.127.053-.281.053-.461v-.222a4.438 4.438 0 00-.49-.09 3.88 3.88 0 00-.5-.032c-.356 0-.617.069-.793.212-.175.143-.26.344-.26.609 0 .249.064.435.197.562.127.132.314.196.558.196zm4.273.572c-.096 0-.16-.016-.203-.053-.042-.032-.08-.106-.111-.207l-1.251-4.095a.928.928 0 01-.048-.212c0-.085.043-.133.128-.133h.521c.102 0 .17.016.208.053.042.032.074.106.106.207l.894 3.507.83-3.507c.027-.106.059-.175.102-.207a.373.373 0 01.212-.053h.426c.101 0 .17.016.213.053.043.032.08.106.101.207l.84 3.55.921-3.55a.457.457 0 01.107-.207.354.354 0 01.208-.053h.494c.086 0 .133.043.133.133 0 .026-.005.053-.01.085a.768.768 0 01-.037.132l-1.283 4.096c-.032.106-.07.174-.112.206a.34.34 0 01-.202.053h-.458c-.1 0-.17-.016-.212-.053-.043-.037-.08-.106-.102-.212l-.824-3.417-.82 3.412c-.026.106-.058.175-.101.212-.043.037-.117.053-.213.053h-.458zm6.838.143a3.57 3.57 0 01-.82-.095c-.266-.064-.474-.133-.612-.212-.085-.048-.144-.101-.165-.149a.367.367 0 01-.032-.148v-.27c0-.112.043-.164.123-.164a.31.31 0 01.095.015c.032.011.08.032.133.053.181.08.378.143.586.186.213.042.42.063.633.063.335 0 .596-.058.777-.174a.572.572 0 00.277-.504.516.516 0 00-.144-.371c-.096-.1-.277-.19-.538-.275l-.771-.239c-.388-.121-.676-.302-.852-.54a1.259 1.259 0 01-.122-1.356c.096-.17.224-.318.383-.435.16-.122.34-.212.554-.275.212-.064.436-.09.67-.09.117 0 .24.005.357.021.122.016.234.037.346.058.106.027.207.053.303.085.096.032.17.064.223.095a.465.465 0 01.16.133c.032.042.048.1.048.175v.249c0 .111-.043.169-.122.169a.559.559 0 01-.203-.063 2.44 2.44 0 00-1.021-.207c-.304 0-.543.048-.708.148-.165.101-.25.255-.25.472a.5.5 0 00.16.376c.106.101.303.201.585.291l.755.239c.384.122.66.291.825.508a1.2 1.2 0 01.245.742c0 .228-.048.435-.138.615a1.43 1.43 0 01-.389.466 1.728 1.728 0 01-.59.297 2.55 2.55 0 01-.761.111z"/></svg>