<svg id="e0oUf8LEPGA1" xmlns="http://www.w3.org/2000/svg" xmlns:xlink="http://www.w3.org/1999/xlink" viewBox="0 0 43 24" shape-rendering="geometricPrecision" text-rendering="geometricPrecision">
<style><![CDATA[
#e0oUf8LEPGA2 {animation: e0oUf8LEPGA2_c_o 1500ms linear infinite normal forwards}@keyframes e0oUf8LEPGA2_c_o { 0% {opacity: 1} 33.333333% {opacity: 0.1} 66.666667% {opacity: 0.5} 100% {opacity: 1}} #e0oUf8LEPGA3 {animation: e0oUf8LEPGA3_c_o 1500ms linear infinite normal forwards}@keyframes e0oUf8LEPGA3_c_o { 0% {opacity: 0.5} 33.333333% {opacity: 1} 66.666667% {opacity: 0.1} 100% {opacity: 0.5}} #e0oUf8LEPGA4 {animation: e0oUf8LEPGA4_c_o 1500ms linear infinite normal forwards}@keyframes e0oUf8LEPGA4_c_o { 0% {opacity: 0.1} 33.333333% {opacity: 0.5} 66.666667% {opacity: 1} 100% {opacity: 0.1}}
]]></style>
<path id="e0oUf8LEPGA2" d="M14.2,12c0-.8-.3-1.6-.9-2.1-.6-.6-1.4-.9-2.2-.9s-1.6.3-2.1.9c-.6.5-1,1.3-1,2.1s.3,1.6.9,2.1c.6.6,1.4.9,2.2.9s1.6-.3,2.2-.9c.6-.5.9-1.3.9-2.1Z" fill="#264966"/><path id="e0oUf8LEPGA3" d="M24.4,12c0-.8-.3-1.6-.9-2.1-.6-.6-1.4-.9-2.2-.9s-1.6.3-2.2.9-.9,1.3-.9,2.1.3,1.6.9,2.1s1.4.9,2.2.9s1.6-.3,2.2-.9c.6-.5.9-1.3.9-2.1Z" opacity="0.5" fill="#264966"/><path id="e0oUf8LEPGA4" d="M34.6,12c0-.8-.3-1.6-.9-2.1-.6-.6-1.4-.9-2.2-.9s-1.6.3-2.2.9-.9,1.3-.9,2.1.3,1.6.9,2.1s1.4.9,2.2.9s1.6-.3,2.2-.9c.5-.5.9-1.3.9-2.1Z" opacity="0.1" fill="#264966"/></svg>
