<svg xmlns="http://www.w3.org/2000/svg" width="48" height="48" fill="none" viewBox="0 0 48 48"><path fill="#25C16F" fill-rule="evenodd" d="M24 48C10.752 48 0 37.248 0 24S10.752 0 24 0h18c3.312 0 6 2.688 6 6v18c0 13.248-10.752 24-24 24z" clip-rule="evenodd"/><path fill="#fff" fill-rule="evenodd" d="M24 10.656a10.98 10.98 0 00-11.04 11.04v7.344a3.698 3.698 0 003.696 3.696h3.072v-8.592h-4.272v-2.448a8.583 8.583 0 018.592-8.592 8.583 8.583 0 018.592 8.592v2.448h-4.272v8.592h2.88v.192a3.319 3.319 0 01-3.312 3.312h-3.312a.533.533 0 00-.528.528c0 .288.24.528.528.528h3.216a4.404 4.404 0 004.416-4.416v-.24c1.584-.432 2.736-1.872 2.736-3.552v-7.392c.048-6.144-4.896-11.04-10.992-11.04z" clip-rule="evenodd"/></svg>