<svg xmlns="http://www.w3.org/2000/svg" width="20" height="14" fill="none" viewBox="0 0 20 14"><path fill="#fff" d="M0 0h20v14H0z"/><mask id="fs-x03k976wra" style="mask-type:alpha" width="20" height="14" x="0" y="0" maskUnits="userSpaceOnUse"><path fill="#fff" d="M0 0h20v14H0z"/></mask><g mask="url(#fs-x03k976wra)"><path fill="#0a17a7" d="M0 0h20v14H0z"/><path fill="#fff" fill-rule="evenodd" d="M12.38 7V4.67l.95.46.96-.46.95.46.95-.46V7c0 1.4-1.9 2.33-1.9 2.33s-1.9-.93-1.9-2.33z" clip-rule="evenodd"/><mask id="fs-wiky9nc4hb" style="mask-type:alpha" width="5" height="6" x="12" y="4" maskUnits="userSpaceOnUse"><path fill="#fff" fill-rule="evenodd" d="M12.38 7V4.67l.95.46.96-.46.95.46.95-.46V7c0 1.4-1.9 2.33-1.9 2.33s-1.9-.93-1.9-2.33z" clip-rule="evenodd"/></mask><g mask="url(#fs-wiky9nc4hb)"><path fill="#9accff" d="M12.38 8.4h3.81v.93h-3.81z"/><path fill="url(#paint0_linear_10_100)" fill-rule="evenodd" d="M14.29 6.53c.26 0 .47-.2.47-.46-.27 0-.48.2-.48.47 0 .25.21.46.48.46zm-.96.94c.27 0 .48-.21.48-.47a.47.47 0 100 .94zM15.71 7c0 .26-.2.47-.47.47 0-.26.22-.47.48-.47s.47.21.47.47z" clip-rule="evenodd"/></g><path fill="#ff2e3b" stroke="#fff" stroke-width=".67" d="M0-.33h-.92l.7.59L3 2.96v.6L-.2 5.79l-.13.1v1.24l.5-.31L3.9 4.53h.76l3.2 2.25-2.29-3.2v-.6L8.62.83V-.6l-.5.32L4.67 2H3.9L.67-.27.58-.33H0z"/><path fill="#fff" fill-rule="evenodd" d="M0 2.33V4.2h3.33v2.13c0 .37.3.67.67.67h.57c.37 0 .67-.3.67-.67V4.2h3.14c.37 0 .67-.3.67-.67V3c0-.37-.3-.67-.67-.67H5.24V0h-1.9v2.33H0z" clip-rule="evenodd"/><path fill="#ff2e3b" fill-rule="evenodd" d="M0 2.8h3.81V0h.95v2.8h3.81v.93h-3.8v2.8H3.8v-2.8H0V2.8z" clip-rule="evenodd"/></g><defs><linearGradient id="paint0_linear_10_100" x1="12.86" x2="12.86" y1="5.6" y2="7.47" gradientUnits="userSpaceOnUse"><stop stop-color="#ffa51b"/><stop offset="1" stop-color="#ff9a00"/></linearGradient></defs></svg>