<svg xmlns="http://www.w3.org/2000/svg" width="20" height="14" fill="none" viewBox="0 0 20 14"><mask id="fs-v2a7oebzpa" style="mask-type:alpha" width="20" height="14" x="0" y="0" maskUnits="userSpaceOnUse"><path fill="#fff" d="M0 0h20v14H0z"/></mask><g mask="url(#fs-v2a7oebzpa)"><path fill="#ee343c" d="M0 0h20v14H0z"/><path fill="#262626" fill-rule="evenodd" d="M8.95 3.17l.54.27c.2.1.32.3.32.52 0 .31-.26.57-.58.57h-.22c-.1 0-.2-.02-.3-.07l-2.11.4.46.23c.29.14.31.53.05.7l.41.08c.38.07.5.56.18.8l-.35.25.91-.22c.34-.08.6.3.4.58-.16.25.01.59.32.59h.84c.3 0 .48-.34.31-.6l.92.22-.35-.26.4-.07.46-.23c.4-.19.48-.7.17-1.01l-1.37.67c-.09.05-.19.07-.29.07h-.22l.53-.25c.46-.23.5-.87.07-1.16l-.58.57-.58-.57z" clip-rule="evenodd"/></g></svg>