<svg xmlns="http://www.w3.org/2000/svg" width="20" height="14" fill="none" viewBox="0 0 20 14"><path fill="#fff" d="M0 0h20v14H0z"/><mask id="fs-ppt385wowa" style="mask-type:alpha" width="20" height="14" x="0" y="0" maskUnits="userSpaceOnUse"><path fill="#fff" d="M0 0h20v14H0z"/></mask><g mask="url(#fs-ppt385wowa)"><path fill="#d6182d" d="M7.62 0h4.76v14H7.62z"/><path fill="#1425a2" d="M0 4.67h20v4.67H0z"/><path fill="#fff" fill-rule="evenodd" d="M8.1 8.17l-.34.1.1-.34-.1-.33.34.1.33-.1-.1.33.1.33-.33-.1zm3.8 0l-.33.1.1-.34-.1-.33.33.1.34-.1-.1.33.1.33-.34-.1zm-5.71-.94l-.34.1.1-.33-.1-.33.34.1.34-.1-.1.33.1.33-.34-.1zm7.61 0l-.33.1.1-.33-.1-.33.34.1.34-.1-.1.33.1.33-.34-.1zM10 6.3l-.34.1.1-.33-.1-.33.34.1.34-.1-.1.33.1.33-.34-.1z" clip-rule="evenodd"/></g></svg>