<svg xmlns="http://www.w3.org/2000/svg" width="20" height="14" fill="none" viewBox="0 0 20 14"><path fill="#fff" d="M0 0h20v14H0z"/><mask id="fs-725bd3ft0a" style="mask-type:alpha" width="20" height="14" x="0" y="0" maskUnits="userSpaceOnUse"><path fill="#fff" d="M0 0h20v14H0z"/></mask><g mask="url(#fs-725bd3ft0a)"><g filter="url(#filter0_d_10_115)"><path fill="#4189dd" d="M0 0h20v14H0z"/></g><path fill="#d21034" stroke="#fff" stroke-width=".67" d="M4.1 1.71l-.29-.56-.3.56-.44.83-.84.43-.58.3.58.29.84.43.44.83.3.56.3-.56.44-.83.85-.43.57-.3-.57-.29-.85-.43-.44-.83z"/><path fill="#f9d616" d="M0 10.27h20v.93H0zM0 8.4h20v.93H0z"/></g><defs><filter id="filter0_d_10_115" width="22" height="16" x="-1" y="0" color-interpolation-filters="sRGB" filterUnits="userSpaceOnUse"><feFlood flood-opacity="0" result="BackgroundImageFix"/><feColorMatrix in="SourceAlpha" result="hardAlpha" values="0 0 0 0 0 0 0 0 0 0 0 0 0 0 0 0 0 0 127 0"/><feOffset dy="1"/><feGaussianBlur stdDeviation=".5"/><feColorMatrix values="0 0 0 0 0 0 0 0 0 0 0 0 0 0 0 0 0 0 0.16 0"/><feBlend in2="BackgroundImageFix" result="effect1_dropShadow_10_115"/><feBlend in="SourceGraphic" in2="effect1_dropShadow_10_115" result="shape"/></filter></defs></svg>