<svg xmlns="http://www.w3.org/2000/svg" width="20" height="14" fill="none" viewBox="0 0 20 14"><path fill="#fff" d="M0 0h20v14H0z"/><mask id="fs-q14khsp0ha" style="mask-type:alpha" width="20" height="14" x="0" y="0" maskUnits="userSpaceOnUse"><path fill="#fff" d="M0 0h20v14H0z"/></mask><g mask="url(#fs-q14khsp0ha)"><path fill="#24aad5" fill-rule="evenodd" d="M0 4.67h20V0H0v4.67z" clip-rule="evenodd"/><path fill="#21bf75" fill-rule="evenodd" d="M0 14h20V9.33H0V14z" clip-rule="evenodd"/><path fill="#ed1845" fill-rule="evenodd" d="M0 9.33h20V4.67H0v4.66z" clip-rule="evenodd"/><g filter="url(#filter0_d_10_83)"><path fill="#fff" fill-rule="evenodd" d="M10 8.4c.3 0 .57-.09.8-.24h-.09c-.65 0-1.19-.52-1.19-1.16-.22-.15-.5-.24-.79-.24-.79 0-1.43.63-1.43 1.4 0 .77.64 1.4 1.43 1.4zM11.43 7c0 .26-.21.47-.48.47 0-.26.2-.47.47-.47.27 0 .48.21.48.47z" clip-rule="evenodd"/></g></g><defs><filter id="filter0_d_10_83" width="2.86" height="3.8" x="8.57" y="5.6" color-interpolation-filters="sRGB" filterUnits="userSpaceOnUse"><feFlood flood-opacity="0" result="BackgroundImageFix"/><feColorMatrix in="SourceAlpha" result="hardAlpha" values="0 0 0 0 0 0 0 0 0 0 0 0 0 0 0 0 0 0 127 0"/><feOffset dy="1"/><feColorMatrix values="0 0 0 0 0 0 0 0 0 0 0 0 0 0 0 0 0 0 0.06 0"/><feBlend in2="BackgroundImageFix" result="effect1_dropShadow_10_83"/><feBlend in="SourceGraphic" in2="effect1_dropShadow_10_83" result="shape"/></filter></defs></svg>