<svg xmlns="http://www.w3.org/2000/svg" width="20" height="14" fill="none" viewBox="0 0 20 14"><path fill="#fff" d="M0 0h20v14H0z"/><mask id="fs-5ufx9zt4aa" style="mask-type:alpha" width="20" height="14" x="0" y="0" maskUnits="userSpaceOnUse"><path fill="#fff" d="M0 0h20v14H0z"/></mask><g mask="url(#fs-5ufx9zt4aa)"><path fill="#0b36b2" d="M0 0h20v14H0z"/><g filter="url(#filter0_d_10_171)"><path fill="#ffd045" fill-rule="evenodd" d="M16.2 14V0H6.18l10 14z" clip-rule="evenodd"/></g><path fill="#fff" fill-rule="evenodd" d="M12.38 13.07l-.67.19.2-.66-.2-.66.67.2.67-.2-.2.66.2.66-.67-.2zm-1.9-2.8l-.68.19.2-.66-.2-.66.68.2.67-.2-.2.66.2.66-.67-.2zm-1.91-2.8l-.67.19.2-.66-.2-.66.67.2.67-.2-.2.66.2.66-.67-.2zm-1.9-2.8l-.68.19.2-.66-.2-.66.68.2.67-.2-.2.66.2.66-.67-.2zm-1.91-2.8l-.67.19.2-.66-.2-.66.67.2.68-.2-.2.66.2.66-.68-.2z" clip-rule="evenodd"/></g><defs><filter id="filter0_d_10_171" width="10" height="14" x="6.19" y="0" color-interpolation-filters="sRGB" filterUnits="userSpaceOnUse"><feFlood flood-opacity="0" result="BackgroundImageFix"/><feColorMatrix in="SourceAlpha" result="hardAlpha" values="0 0 0 0 0 0 0 0 0 0 0 0 0 0 0 0 0 0 127 0"/><feOffset/><feColorMatrix values="0 0 0 0 0 0 0 0 0 0 0 0 0 0 0 0 0 0 0.06 0"/><feBlend in2="BackgroundImageFix" result="effect1_dropShadow_10_171"/><feBlend in="SourceGraphic" in2="effect1_dropShadow_10_171" result="shape"/></filter></defs></svg>