<svg xmlns="http://www.w3.org/2000/svg" width="20" height="14" fill="none" viewBox="0 0 20 14"><path fill="#fff" d="M0 0h20v14H0z"/><mask id="fs-n43nsey83a" style="mask-type:alpha" width="20" height="14" x="0" y="0" maskUnits="userSpaceOnUse"><path fill="#fff" d="M0 0h20v14H0z"/></mask><g mask="url(#fs-n43nsey83a)"><path fill="url(#paint0_linear_10_132)" d="M0 0h20v14H0z"/><path fill="#08379d" d="M9.52 0H20v14H9.52z"/><path fill="#08379d" fill-rule="evenodd" d="M0 14h6.67V0H0v14z" clip-rule="evenodd"/><path fill="#ffcc50" fill-rule="evenodd" d="M6.67 14h6.66V0H6.67v14z" clip-rule="evenodd"/><path fill="#262626" fill-rule="evenodd" d="M9.74 4.6c.13-.2.42-.19.55 0l.41.63c.11.16 0 .37-.2.37l.18 1.77c.01.17.16.3.33.3h.04c.08 0 .17-.03.23-.1l.28-.26c.06-.06.1-.15.1-.24v-.66l.39-.13c.24-.07.47.13.43.38l-.32 1.68-.81.77h-.01v.27c0 .18-.15.33-.34.33h-.28V9.2L8.17 8l-.34-1.67.38.12c.23.08.3.37.13.54v.66c0 .1.04.18.1.24l.28.27c.06.06.15.1.23.1h.04c.17 0 .32-.14.33-.3l.19-1.78c-.2 0-.3-.21-.2-.37l.44-.63z" clip-rule="evenodd"/></g><defs><linearGradient id="paint0_linear_10_132" x1="0" x2="0" y1="0" y2="14" gradientUnits="userSpaceOnUse"><stop stop-color="#1132c7"/><stop offset="1" stop-color="#0522a5"/></linearGradient></defs></svg>