<svg xmlns="http://www.w3.org/2000/svg" width="20" height="14" fill="none" viewBox="0 0 20 14"><path fill="#fff" d="M0 0h20v14H0z"/><mask id="fs-je8520ziua" style="mask-type:alpha" width="20" height="14" x="0" y="0" maskUnits="userSpaceOnUse"><path fill="#fff" d="M0 0h20v14H0z"/></mask><g mask="url(#fs-je8520ziua)"><path fill="#e4233b" d="M0 0h20v14H0z"/><path fill="#34cd4e" fill-rule="evenodd" d="M0 0l8.57 7L0 14V0zm20 0l-8.57 7L20 14V0z" clip-rule="evenodd"/><path fill="#fff" fill-rule="evenodd" d="M12.12 4.48l-8.8-5.82L-1.98.2l8.8 5.81-8.8 5.81 1.06 1.55 8.8-5.82 8.8 5.82 1.06-1.55-8.8-5.81L17.74.2l-1.06-1.55-8.8 5.82z" clip-rule="evenodd"/><path fill="#df2239" fill-rule="evenodd" d="M10 6.07l-.67.19.2-.66-.2-.66.67.2.67-.2-.2.66.2.66-.67-.2zM8.57 8.4l-.67.2.2-.67-.2-.66.67.2.67-.2-.2.66.2.66-.67-.19zm2.19.2l.67-.2.67.2-.2-.67.2-.66-.67.2-.67-.2.2.66-.2.66z" clip-rule="evenodd"/></g></svg>