<svg xmlns="http://www.w3.org/2000/svg" width="20" height="14" fill="none" viewBox="0 0 20 14"><path fill="#fff" d="M0 0h20v14H0V0z"/><path fill="#012A87" d="M20 14H0L20 0v14z"/><path fill="#F9D90F" d="M0 0v5.83L8.33 0H0z"/><path fill="#000" d="M5.5 9.05c-.56 0-1.11-.18-1.58-.5-.47-.34-.84-.8-1.05-1.35a3.13 3.13 0 01.61-3.26 2.72 2.72 0 013.1-.65c.53.23.98.61 1.29 1.1a3.1 3.1 0 01-.36 3.78c-.53.56-1.25.88-2.01.88zm0-5.6c-.5 0-.97.15-1.38.44-.4.28-.73.7-.91 1.17a2.73 2.73 0 00.53 2.84c.35.36.8.61 1.28.71.48.1.98.05 1.43-.15.45-.2.84-.53 1.11-.96a2.7 2.7 0 00-.3-3.29 2.43 2.43 0 00-1.76-.76z"/><path fill="#000" d="M5.5 2.44l.5.91H5l.5-.9zm0 7.23L5 8.76h1l-.5.9zm3.44-3.62l-.87.53V5.53l.87.52zm-6.88 0l.87-.52v1.05l-.87-.53z"/><path fill="#DC171D" d="M5.5 4.27l1.47 2.68H4.03L5.5 4.27z"/><path fill="#DC171D" d="M6.97 5.16L5.5 7.84 4.03 5.16h2.94z"/></svg>