<svg xmlns="http://www.w3.org/2000/svg" width="20" height="14" fill="none" viewBox="0 0 20 14"><path fill="#fff" d="M0 0h20v14H0z"/><mask id="fs-by6l137ata" style="mask-type:alpha" width="20" height="14" x="0" y="0" maskUnits="userSpaceOnUse"><path fill="#fff" d="M0 0h20v14H0z"/></mask><g fill-rule="evenodd" clip-rule="evenodd" mask="url(#fs-by6l137ata)"><path fill="#e54252" d="M0 9.33h20V0H0v9.33z"/><path fill="#5cbe6b" d="M0 14h20V9.33H0V14z"/><path fill="#fff" d="M0 0h2.86v2.1l-.48.7.48.7v1.4l-.48.7.48.7v1.4l-.48.7.48.7v1.4l-.48.7.48.7V14H0V0z"/><path fill="#e54252" d="M-.48 1.4l-.95 1.4.95 1.4-.95 1.4.95 1.4-.95 1.4.95 1.4.96-1.4L-.48 7l.96-1.4-.96-1.4.96-1.4-.96-1.4zm0 8.4l-.95 1.4.95 1.4.96-1.4-.96-1.4zm.96-8.4L1.43 0l.95 1.4-.95 1.4-.95-1.4zm.95 4.2L.48 4.2l.95-1.4.95 1.4-.95 1.4zm0 2.8L.48 7l.95-1.4.95 1.4-.95 1.4zm0 2.8l.95-1.4-.95-1.4-.95 1.4.95 1.4zm0 0l.95 1.4-.95 1.4-.95-1.4.95-1.4z"/></g></svg>