<svg xmlns="http://www.w3.org/2000/svg" width="20" height="14" fill="none" viewBox="0 0 20 14"><path fill="#fff" d="M0 0h20v14H0z"/><mask id="fs-d3qukv8f0a" style="mask-type:alpha" width="20" height="14" x="0" y="0" maskUnits="userSpaceOnUse"><path fill="#fff" d="M0 0h20v14H0z"/></mask><g clip-rule="evenodd" mask="url(#fs-d3qukv8f0a)"><path fill="#094995" fill-rule="evenodd" d="M0 12.13h20V1.87H0v10.26z"/><path fill="#d5182f" fill-rule="evenodd" d="M0 1.87h20V0H0v1.87zM0 14h20v-1.87H0V14z"/><path fill="#fff" fill-rule="evenodd" d="M10 11.2C10 8.88 8.08 7 5.71 7c0 2.32 1.92 4.2 4.29 4.2z"/><path stroke="#118014" stroke-dasharray="0.67 2" stroke-linecap="round" stroke-width="1.33" d="M10 9.8C10 8.25 8.72 7 7.14 7c0 1.55 1.28 2.8 2.86 2.8z"/></g></svg>