<svg xmlns="http://www.w3.org/2000/svg" width="20" height="14" fill="none" viewBox="0 0 20 14"><path fill="#fff" d="M0 0h20v14H0z"/><mask id="fs-5r2g5bbcka" style="mask-type:alpha" width="20" height="14" x="0" y="0" maskUnits="userSpaceOnUse"><path fill="#fff" d="M0 0h20v14H0z"/></mask><g fill="#ff3131" mask="url(#fs-5r2g5bbcka)"><path d="M14.29 0H20v14h-5.71z"/><path fill-rule="evenodd" d="M0 14h5.71V0H0v14zm11.69-7.72l.27-1.32-.95.46-.48-1.4-.48 1.4-.95-.46L8.84 6c.06.3-.3.5-.52.28l-.26.25-.95-.46.47.93-.23.23.75 1.64h1.42l.24 1.4h.48l.24-1.4h1.42l1.2-1.17-.24-.7.47-.93-.95.46-.26-.25z" clip-rule="evenodd"/></g></svg>