<svg xmlns="http://www.w3.org/2000/svg" width="20" height="14" fill="none" viewBox="0 0 20 14"><path fill="#fff" d="M0 0h20v14H0z"/><mask id="fs-l1cur4fb6a" style="mask-type:alpha" width="20" height="14" x="0" y="0" maskUnits="userSpaceOnUse"><path fill="#fff" d="M0 0h20v14H0z"/></mask><g fill-rule="evenodd" clip-rule="evenodd" mask="url(#fs-l1cur4fb6a)"><path fill="#083d96" d="M0 3.73h20V0H0v3.73z"/><path fill="#37ae39" d="M0 10.27h20V6.53H0v3.74z"/><path fill="#ffd13f" d="M0 14h20v-3.73H0V14z"/><path fill="#e42346" d="M7.62 14h4.76V0H7.62v14z"/><path fill="#ffd03b" d="M3.33 2.41L2.5 3l.31-.96-.83-.6 1.04-.02.32-.95.33.95 1.03.01-.83.6.31.97-.84-.59z"/></g></svg>