<svg xmlns="http://www.w3.org/2000/svg" width="20" height="14" fill="none" viewBox="0 0 20 14"><path fill="#fff" d="M0 0h20v14H0z"/><mask id="fs-8smzh6gtwa" style="mask-type:alpha" width="20" height="14" x="0" y="0" maskUnits="userSpaceOnUse"><path fill="#fff" d="M0 0h20v14H0z"/></mask><g mask="url(#fs-8smzh6gtwa)"><path fill="red" d="M0 0h20v14H0z"/><path fill="#fff" fill-rule="evenodd" d="M8.57 8.4H6.05V5.93c0-.18.15-.33.34-.33h2.52V3.13c0-.18.15-.33.33-.33h2.2c.18 0 .33.15.33.33V5.6h2.52c.19 0 .34.15.34.33v2.14c0 .18-.15.33-.34.33h-2.52v2.47c0 .18-.15.33-.33.33H8.9V8.4z" clip-rule="evenodd"/></g></svg>