<svg xmlns="http://www.w3.org/2000/svg" width="20" height="14" fill="none" viewBox="0 0 20 14"><path fill="#fff" d="M0 0h20v14H0z"/><mask id="fs-jnls7efnaa" style="mask-type:alpha" width="20" height="14" x="0" y="0" maskUnits="userSpaceOnUse"><path fill="#fff" d="M0 0h20v14H0z"/></mask><g mask="url(#fs-jnls7efnaa)"><path fill="url(#paint0_linear_10_318)" d="M9.52 0H20v14H9.52z"/><path fill="#059170" fill-rule="evenodd" d="M0 14h6.67V0H0v14z" clip-rule="evenodd"/><path fill="#e21a30" fill-rule="evenodd" d="M6.67 14h6.66V0H6.67v14z" clip-rule="evenodd"/><path fill="#ffdc44" fill-rule="evenodd" d="M13.33 14H20V0h-6.67v14z" clip-rule="evenodd"/><path fill="#ffdc42" fill-rule="evenodd" d="M10 7.91l-1.4.98.52-1.6-1.38-1.01 1.71-.02.55-1.6.55 1.6 1.71.02-1.38 1 .52 1.6-1.4-.97z" clip-rule="evenodd"/></g><defs><linearGradient id="paint0_linear_10_318" x1="9.52" x2="9.52" y1="0" y2="14" gradientUnits="userSpaceOnUse"><stop stop-color="#ffdc44"/><stop offset="1" stop-color="#fdd216"/></linearGradient></defs></svg>