<svg xmlns="http://www.w3.org/2000/svg" width="20" height="14" fill="none" viewBox="0 0 20 14"><path fill="#fff" d="M0 0h20v14H0z"/><mask id="fs-0gko9wumma" style="mask-type:alpha" width="20" height="14" x="0" y="0" maskUnits="userSpaceOnUse"><path fill="#fff" d="M0 0h20v14H0z"/></mask><g mask="url(#fs-0gko9wumma)"><path fill="#f1361d" d="M0 0h20v14H0z"/><path fill="#ffdc42" fill-rule="evenodd" d="M7.2 2.17l.69.12.52.46.11-.68.48-.5-.7-.12-.5-.47-.12.68-.48.51zm1.85 2.37l.6-.36.7.02-.37-.59.02-.68-.6.35-.7-.01.36.58-.01.7zm-.82 3.84l-.58.38-.01-.69-.39-.57.7-.01.6-.38v.69l.39.57-.7.01zm.51-1.78l.7-.07.63.3-.08-.68.31-.62-.7.08-.62-.3.07.68-.3.61zm-3.98-.84L3.08 6.93 3.7 5 2.04 3.8l2.07-.02.65-1.91.66 1.91 2.06.02L5.82 5l.62 1.93-1.68-1.17z" clip-rule="evenodd"/></g></svg>