<svg xmlns="http://www.w3.org/2000/svg" width="20" height="14" fill="none" viewBox="0 0 20 14"><path fill="#fff" d="M0 0h20v14H0z"/><mask id="fs-tz8cyofgea" style="mask-type:alpha" width="20" height="14" x="0" y="0" maskUnits="userSpaceOnUse"><path fill="#fff" d="M0 0h20v14H0z"/></mask><g fill-rule="evenodd" clip-rule="evenodd" mask="url(#fs-tz8cyofgea)"><path fill="#0b389f" d="M0 2.8h20V0H0v2.8zm0 5.6h20V5.6H0v2.8zM0 14h20v-2.8H0V14z"/><path fill="#e12a43" d="M0 0l9.52 7L0 14V0z"/><path fill="#fff" d="M3.33 7.72l-1.12.79.43-1.29-1.12-.8H2.9l.43-1.29.43 1.3h1.38l-1.11.8.42 1.28-1.12-.8z"/></g></svg>