<svg xmlns="http://www.w3.org/2000/svg" width="20" height="14" fill="none" viewBox="0 0 20 14"><path fill="#002B7F" d="M20 0H0v14h20V0z"/><path fill="#F9E814" d="M0 8.67h20v1.66H0V8.67z"/><path fill="#fff" d="M4.44 3.3L4 4.71l.7.22-.26-1.63z"/><path fill="#fff" d="M4.44 3.3l.46 1.41-.7.22.24-1.63z"/><path fill="#fff" d="M5.85 4.32H4.37v.74l1.48-.74z"/><path fill="#fff" d="M5.85 4.32l-1.2.87-.43-.6 1.63-.27z"/><path fill="#fff" d="M3 4.32l1.19.87.44-.6L3 4.32z"/><path fill="#fff" d="M3 4.32h1.52v.74L3 4.32z"/><path fill="#fff" d="M5.32 6l-.46-1.43-.71.23L5.32 6z"/><path fill="#fff" d="M5.32 6l-1.2-.87.43-.6L5.32 6z"/><path fill="#fff" d="M3.57 6l1.2-.87-.43-.6L3.57 6z"/><path fill="#fff" d="M3.57 6L4 4.57l.71.23L3.57 6zM2.22 1.44L1.88 2.5l.53.17-.19-1.23z"/><path fill="#fff" d="M2.22 1.44l.35 1.06-.57.17.22-1.23z"/><path fill="#fff" d="M3.28 2.21H2.17v.56l1.11-.56z"/><path fill="#fff" d="M3.28 2.21l-.9.66-.33-.45 1.23-.21z"/><path fill="#fff" d="M1.17 2.21l.89.66.33-.45-1.22-.21z"/><path fill="#fff" d="M1.17 2.21h1.11v.56l-1.11-.56z"/><path fill="#fff" d="M2.88 3.45L2.53 2.4 2 2.57l.88.88z"/><path fill="#fff" d="M2.88 3.45L2 2.8l.32-.45.56 1.1z"/><path fill="#fff" d="M1.57 3.45l.9-.65-.33-.45-.57 1.1z"/><path fill="#fff" d="M1.57 3.45l.34-1.05.53.17-.87.88z"/></svg>