<svg xmlns="http://www.w3.org/2000/svg" width="20" height="14" fill="none" viewBox="0 0 20 14"><path fill="#fff" d="M0 0h20v14H0z"/><mask id="fs-tr1o9mynna" style="mask-type:alpha" width="20" height="14" x="0" y="0" maskUnits="userSpaceOnUse"><path fill="#fff" d="M0 0h20v14H0z"/></mask><g mask="url(#fs-tr1o9mynna)"><path fill="#e7832c" fill-rule="evenodd" d="M14.29 2.33c.25-.12.51.18.35.41l-.3.46-1.3.86.05.04c.26.26.26.68 0 .94l-.16.15-.07.13-1.07.34h-.45l-1.23-.6-.67-.66v-.32c0-.19.15-.34.34-.34.08 0 .17-.03.23-.1l.66-.64c.13-.12.3-.2.47-.2h.2c.29 0 .54-.18.63-.45l.14-.4c.1-.3.43-.5.76-.43l1.66.33c.1.01.2.01.29-.01l1.7-.42c.04 0 .08-.02.13-.05l.88-.43.96-.47z" clip-rule="evenodd"/><path fill="#445128" fill-rule="evenodd" d="M10 11.2c.26 0 .48-.2.48-.47-.26 0-.48.2-.48.46s.22.47.48.47z" clip-rule="evenodd"/><path stroke="#445128" stroke-linecap="round" stroke-width="1.33" d="M11.43 10.27s1.43-.47 1.9-1.4m-4.76 1.4s-1.43-.47-1.9-1.4" opacity=".75"/></g></svg>