<svg xmlns="http://www.w3.org/2000/svg" width="20" height="14" fill="none" viewBox="0 0 20 14"><path fill="#fff" d="M0 0h20v14H0z"/><mask id="fs-ghzcfw5yga" style="mask-type:alpha" width="20" height="14" x="0" y="0" maskUnits="userSpaceOnUse"><path fill="#fff" d="M0 0h20v14H0z"/></mask><g fill-rule="evenodd" clip-rule="evenodd" mask="url(#fs-ghzcfw5yga)"><path fill="#108753" d="M0 5.6h20V0H0v5.6zM0 14h20V8.4H0V14z"/><path fill="#fff" d="M11.43 14H8.57V8.4H0V5.6h8.57V0h2.86v5.6H20v2.8h-8.57V14z"/><path fill="#262626" d="M10.48 14h-.96V7.47H0v-.94h9.52V0h.96v6.53H20v.94h-9.52V14z"/><path fill="#fcd449" d="M9.52 14h-.95V6.53H0V5.6h8.57V0h.95v5.6H20v.93H9.52V14z"/><path fill="#0e673f" d="M10 7.93c.53 0 .48-.41.48-.93s.05-.93-.48-.93-.48.41-.48.93-.05.93.48.93z"/></g><defs><linearGradient id="paint0_linear_10_401" x1="6.67" x2="6.67" y1="3.73" y2="10.27" gradientUnits="userSpaceOnUse"><stop stop-color="#e02c42"/><stop offset="1" stop-color="#d22036"/></linearGradient></defs></svg>