<svg xmlns="http://www.w3.org/2000/svg" width="20" height="14" fill="none" viewBox="0 0 20 14"><path fill="#fff" d="M0 0h20v14H0z"/><mask id="fs-4rkwqu090a" style="mask-type:alpha" width="20" height="14" x="0" y="0" maskUnits="userSpaceOnUse"><path fill="#fff" d="M0 0h20v14H0z"/></mask><g mask="url(#fs-4rkwqu090a)"><path fill="#083d7a" fill-rule="evenodd" d="M0 5.6h8.57V0H0v5.6zM11.43 14H20V8.4h-8.57V14z" clip-rule="evenodd"/><path fill="#df1e35" fill-rule="evenodd" d="M0 14h8.57V8.4H0V14zm11.43-8.4H20V0h-8.57v5.6z" clip-rule="evenodd"/><mask id="fs-nb60sy8wob" fill="#fff"><path fill-rule="evenodd" d="M8.99 6.01c.56.55 1.46.55 2.02 0s.56-1.43 0-1.98" clip-rule="evenodd"/></mask><path fill="#0f6d1a" d="M8.51 5.54c-.82.8-.82 2.11 0 2.92l.96-.94-.96-.94zm0 2.92c.82.8 2.16.8 2.98 0l-.96-.94-.96.94zm2.98 0c.82-.8.82-2.11 0-2.92l-.96.94c.3.29.3.75 0 1.04l.96.94z" mask="url(#fs-nb60sy8wob)"/><path fill="#042f60" fill-rule="evenodd" d="M10 7.47c.26 0 .48-.21.48-.47-.26 0-.48.21-.48.47s.22.47.48.47z" clip-rule="evenodd"/></g></svg>