<svg xmlns="http://www.w3.org/2000/svg" width="20" height="14" fill="none" viewBox="0 0 20 14"><path fill="#fff" d="M0 0h20v14H0z"/><mask id="fs-tfo2m4hpja" style="mask-type:alpha" width="20" height="14" x="0" y="0" maskUnits="userSpaceOnUse"><path fill="#fff" d="M0 0h20v14H0z"/></mask><g fill-rule="evenodd" clip-rule="evenodd" mask="url(#fs-tfo2m4hpja)"><path fill="#048345" d="M0 14h10.48V0H0v14z"/><path fill="#e81b42" d="M12.38 7.73l-1.12.78.41-1.29-1.1-.8h1.37l.44-1.29.44 1.28 1.37.01-1.1.8.41 1.29-1.12-.78z"/><path fill="#e81b42" d="M12.63 10.07c0-2.32 1.84-4.2 4.11-4.2 1.09 0 2.07.43 2.8 1.13C8.88 3.56 7.21 5.1 7.21 7s1.67 3.44 3.73 3.44c.6 0 1.18-.14 1.69-.37z"/></g></svg>