<svg xmlns="http://www.w3.org/2000/svg" width="20" height="14" fill="none" viewBox="0 0 20 14"><path fill="#fff" d="M0 0h20v14H0z"/><mask id="fs-4hp63usija" style="mask-type:alpha" width="20" height="14" x="0" y="0" maskUnits="userSpaceOnUse"><path fill="#fff" d="M0 0h20v14H0z"/></mask><g mask="url(#fs-4hp63usija)"><path fill="#0748ae" fill-rule="evenodd" d="M0 10.27h20V6.53H0v3.74z" clip-rule="evenodd"/><path fill="#de2035" fill-rule="evenodd" d="M0 14h20v-3.73H0V14z" clip-rule="evenodd"/><path fill="#ffd935" fill-rule="evenodd" d="M0 6.53h20V0H0v6.53z" clip-rule="evenodd"/><path fill="#ffd935" fill-rule="evenodd" d="M8.86 5.6c-.47.34-.76.88-.76 1.5 0 1.02.85 1.86 1.9 1.86 1.05 0 1.9-.84 1.9-1.87 0-.6-.3-1.15-.76-1.49l-.66 1.96h-.96L8.86 5.6z" clip-rule="evenodd"/><path fill="#5fc0dc" fill-rule="evenodd" d="M10 5.13l.48 2.34h-.96L10 5.13z" clip-rule="evenodd"/><path stroke="#3f2821" stroke-linecap="round" stroke-linejoin="round" stroke-width=".67" d="M12.38 4.2l-1.43-.47-.95.94-.95-.94-1.43.47" opacity=".66"/></g></svg>