<svg xmlns="http://www.w3.org/2000/svg" width="20" height="14" fill="none" viewBox="0 0 20 14"><path fill="#fff" d="M0 0h20v14H0z"/><mask id="fs-in121r5f5a" style="mask-type:alpha" width="20" height="14" x="0" y="0" maskUnits="userSpaceOnUse"><path fill="#fff" d="M0 0h20v14H0z"/></mask><g mask="url(#fs-in121r5f5a)"><path fill="#e41d33" fill-rule="evenodd" d="M0 4.67h20V0H0v4.67z" clip-rule="evenodd"/><path fill="#262626" fill-rule="evenodd" d="M0 14h20V9.33H0V14z" clip-rule="evenodd"/><path fill="#f4b32e" fill-opacity=".25" stroke="#c6a846" stroke-width=".67" d="M8.75 6.68l.23.45h-.03l-.08.06-.4.26v-.9c0-.19.15-.34.34-.34h.08l.38.75zm.77.45H9.1l.25-.43h0v-.01l.02-.03c.07-.06.11-.07.12-.08 0 0 0 0 0 0 .01 0 .06.01.14.08.08.06.17.15.25.26l.01.03h0l.23.45h-.74v.79-.79h-.34zm1.53 0h-.03l.23-.45.38-.75h.08c.19 0 .34.15.34.34v.9c0 .26-.3.42-.52.28l-.4-.26-.08-.06z"/></g></svg>