<svg xmlns="http://www.w3.org/2000/svg" width="20" height="14" fill="none" viewBox="0 0 20 14"><path fill="#fff" d="M0 0h20v14H0z"/><mask id="fs-6yhav87nwa" style="mask-type:alpha" width="20" height="14" x="0" y="0" maskUnits="userSpaceOnUse"><path fill="#fff" d="M0 0h20v14H0z"/></mask><g mask="url(#fs-6yhav87nwa)"><path fill="#29c53f" fill-rule="evenodd" d="M20 0v7H0V0h20z" clip-rule="evenodd"/><path fill="#579ded" fill-rule="evenodd" d="M20 7v7.47H0V7h20z" clip-rule="evenodd"/><path fill="#f42d56" fill-rule="evenodd" d="M0 14l20-7L0 0v14z" clip-rule="evenodd"/><path stroke="#ffc63c" stroke-width="1.33" d="M8.86 7c0 1.42-1.18 2.6-2.67 2.6C6.19 8.18 7.37 7 8.86 7z"/><path fill="#ffc63c" fill-rule="evenodd" d="M5.71 6.53c.27 0 .48-.2.48-.46-.26 0-.47.2-.47.47 0 .25.21.46.47.46zm.96.47c.26 0 .47-.2.47-.47-.27 0-.48.2-.48.46s.21.47.48.47z" clip-rule="evenodd"/><path fill="#ffc63c" fill-rule="evenodd" d="M6.19 6.07c.26 0 .48-.21.48-.47-.26 0-.48.21-.48.47s.22.47.48.47zm-.48 1.4c.27 0 .48-.21.48-.47a.47.47 0 100 .94zm.96.46c.26 0 .47-.2.47-.46-.27 0-.48.2-.48.47 0 .25.21.46.48.46z" clip-rule="evenodd"/><path fill="#ffc63c" fill-rule="evenodd" d="M5.71 8.4c.27 0 .48-.2.48-.47-.26 0-.47.2-.47.46s.21.47.47.47zm.96.47c.26 0 .47-.21.47-.47-.27 0-.48.21-.48.47s.21.47.48.47z" clip-rule="evenodd"/></g></svg>