<svg xmlns="http://www.w3.org/2000/svg" width="20" height="14" fill="none" viewBox="0 0 20 14"><path fill="#fff" d="M0 0h20v14H0z"/><mask id="fs-h3tsl1ddsa" style="mask-type:alpha" width="20" height="14" x="0" y="0" maskUnits="userSpaceOnUse"><path fill="#fff" d="M0 0h20v14H0z"/></mask><g mask="url(#fs-h3tsl1ddsa)"><path fill="#dd172c" fill-rule="evenodd" d="M0 3.73h20V0H0v3.73zM0 14h20v-3.73H0V14z" clip-rule="evenodd"/><path fill="#ffd133" fill-rule="evenodd" d="M0 10.27h20V3.73H0v6.54z" clip-rule="evenodd"/><path fill="#ffedb1" fill-rule="evenodd" d="M5.24 6.53h.95V7h-.95v-.47z" clip-rule="evenodd"/><path stroke="#a41517" stroke-width=".67" d="M4.77 6.4h.93c.2 0 .35.17.33.36l-.1 1.13-.09-1.13z"/><path fill="#a41517" fill-rule="evenodd" d="M4.29 7h1.9v.47h-.48l-.47.93-.48-.93H4.3V7z" clip-rule="evenodd"/><rect width=".95" height="3.27" x="2.86" y="5.6" fill="#a41517" rx=".48"/><rect width=".95" height="3.27" x="6.67" y="5.6" fill="#a41517" rx=".48"/><path fill="#a41517" d="M4.29 5.41c0-.4.33-.74.74-.74h.41c.42 0 .75.33.75.74 0 .1-.08.19-.19.19H4.47z"/></g></svg>