<svg xmlns="http://www.w3.org/2000/svg" width="20" height="14" fill="none" viewBox="0 0 20 14"><path fill="#fff" d="M0 0h20v14H0z"/><mask id="fs-pbsfecxwva" style="mask-type:alpha" width="20" height="14" x="0" y="0" maskUnits="userSpaceOnUse"><path fill="#fff" d="M0 0h20v14H0z"/></mask><g mask="url(#fs-pbsfecxwva)"><path fill="#20aa46" fill-rule="evenodd" d="M0 4.67h20V0H0v4.67z" clip-rule="evenodd"/><path fill="#e92f3b" fill-rule="evenodd" d="M0 14h20V9.33H0V14z" clip-rule="evenodd"/><path fill="#fadf50" fill-rule="evenodd" d="M0 9.33h20V4.67H0v4.66z" clip-rule="evenodd"/><path stroke="#ffdb3d" stroke-width=".67" d="M10.2 7.64L10 7.5l-.2.14-.58.4.21-.66.08-.23-.2-.14-.56-.4.7-.01h.24l.08-.23.23-.67.23.67.08.23h.94l-.56.41-.2.14.08.23.2.67-.58-.41z"/></g></svg>