<svg xmlns="http://www.w3.org/2000/svg" width="20" height="14" fill="none" viewBox="0 0 20 14"><path fill="#fff" d="M0 0h20v14H0z"/><mask id="fs-ql6w1i95qa" style="mask-type:alpha" width="20" height="14" x="0" y="0" maskUnits="userSpaceOnUse"><path fill="#fff" d="M0 0h20v14H0z"/></mask><g mask="url(#fs-ql6w1i95qa)"><path fill="#95cef5" d="M0 0h20v14H0z"/><path fill="#fff" fill-rule="evenodd" d="M8.88 4.78L10 4.03l1.12.75-.38-1.28 1.07-.81-1.35-.04L10 1.4l-.46 1.25-1.35.04 1.07.81-.38 1.28zm0 7.46L10 11.5l1.12.74-.38-1.27 1.07-.81-1.35-.05L10 8.87l-.46 1.24-1.35.05 1.07.81-.38 1.27zm4.93-4.47l-1.12.74.38-1.27L12 6.42l1.35-.04.46-1.25.46 1.25 1.35.04-1.07.82.38 1.27-1.12-.74zm-8.74.74l1.12-.74 1.12.74-.38-1.27L8 6.42l-1.35-.04-.46-1.25-.46 1.25-1.35.04 1.07.82-.38 1.27z" clip-rule="evenodd"/></g></svg>