<svg xmlns="http://www.w3.org/2000/svg" width="20" height="14" fill="none" viewBox="0 0 20 14"><path fill="#fff" d="M0 0h20v14H0z"/><mask id="fs-j5wcht6sma" style="mask-type:alpha" width="20" height="14" x="0" y="0" maskUnits="userSpaceOnUse"><path fill="#fff" d="M0 0h20v14H0z"/></mask><g mask="url(#fs-j5wcht6sma)"><path fill="#0a17a7" d="M0 0h20v14H0z"/><path fill="#fff" fill-rule="evenodd" d="M-.92-1.34L7.62 4.3V-.93h4.76V4.3l8.54-5.64L21.98.2l-6.75 4.46H20v4.66h-4.77l6.75 4.46-1.06 1.55-8.54-5.64v5.23H7.62V9.7l-8.54 5.64-1.06-1.55 6.75-4.46H0V4.67h4.77L-1.98.2l1.06-1.55z" clip-rule="evenodd"/><path stroke="#db1f35" stroke-linecap="round" stroke-width=".67" d="M13.33 4.43l9.05-5.83M14.3 9.59l8.1 5.36M5.72 4.42l-8.46-5.59M6.64 9.52l-9.38 6.1"/><path fill="#e6273e" fill-rule="evenodd" d="M0 8.4h8.57V14h2.86V8.4H20V5.6h-8.57V0H8.57v5.6H0v2.8z" clip-rule="evenodd"/></g></svg>