<svg xmlns="http://www.w3.org/2000/svg" width="20" height="14" fill="none" viewBox="0 0 20 14"><path fill="#fff" d="M0 0h20v14H0z"/><mask id="fs-zuxcniu4za" style="mask-type:alpha" width="20" height="14" x="0" y="0" maskUnits="userSpaceOnUse"><path fill="#fff" d="M0 0h20v14H0z"/></mask><g mask="url(#fs-zuxcniu4za)"><path fill="#e42235" d="M0 0h20v14H0z"/><path fill="#079b77" d="M1.9 1.87h16.19v10.27H1.9z"/><mask id="fs-j94lnms4db" style="mask-type:alpha" width="18" height="12" x="1" y="1" maskUnits="userSpaceOnUse"><path fill="#fff" d="M1.9 1.87h16.19v10.27H1.9z"/></mask><g fill-rule="evenodd" clip-rule="evenodd" mask="url(#fs-j94lnms4db)"><path fill="#ffd938" d="M3.14 7.1c.27.42.65.7 1.02.77.2.04-.17-.86-.01-.95.13-.09.78.66.84.5.13-.36.05-.86-.24-1.32-.41-.65-.43-.22-1.56-.69.12.67-.47 1.03-.05 1.68z"/><path fill="#ffd93b" d="M10 7l8.1-5.13H1.9L10 7zm0 0l-8.1 5.13h16.2L10 7z"/><path fill="#ffd938" d="M10 7.72l-1.12.79.42-1.29-1.11-.8h1.38L10 5.13l.43 1.29h1.38l-1.11.8.42 1.29L10 7.72z"/></g></g><defs><linearGradient id="paint0_linear_10_658" x1="7.62" x2="7.62" y1="4.67" y2="9.33" gradientUnits="userSpaceOnUse"><stop stop-color="#e21c30"/><stop offset="1" stop-color="#ce1225"/></linearGradient></defs></svg>