<svg xmlns="http://www.w3.org/2000/svg" width="20" height="14" fill="none" viewBox="0 0 20 14"><path fill="#fff" d="M0 0h20v14H0z"/><mask id="fs-u3yehyki2a" style="mask-type:alpha" width="20" height="14" x="0" y="0" maskUnits="userSpaceOnUse"><path fill="#fff" d="M0 0h20v14H0z"/></mask><g fill-rule="evenodd" clip-rule="evenodd" mask="url(#fs-u3yehyki2a)"><path fill="#ff2b37" d="M11.43 14.93H8.57V8.4H-.95V5.6h9.52V-.93h2.86V5.6h9.52v2.8h-9.52v6.53z"/><path fill="#fd0d1b" d="M15.43 3.08l-1.14.19v-.94l1.14.19-.2-1.12h.96L16 2.52l1.14-.19v.94L16 3.08l.2 1.12h-.96l.19-1.12zM4 3.08l-1.14.19v-.94L4 2.52 3.81 1.4h.95l-.19 1.12 1.14-.19v.94l-1.14-.19.2 1.12H3.8L4 3.08zm0 8.4l-1.14.19v-.94l1.14.19-.19-1.12h.95l-.19 1.12 1.14-.19v.94l-1.14-.19.2 1.12H3.8l.2-1.12zm11.43 0l-1.14.19v-.94l1.14.19-.2-1.12h.96L16 10.92l1.14-.19v.94L16 11.48l.2 1.12h-.96l.19-1.12z"/></g></svg>