<svg xmlns="http://www.w3.org/2000/svg" width="20" height="14" fill="none" viewBox="0 0 20 14"><path fill="#fff" d="M0 0h20v14H0z"/><mask id="fs-q2vj8we9ba" style="mask-type:alpha" width="20" height="14" x="0" y="0" maskUnits="userSpaceOnUse"><path fill="#fff" d="M0 0h20v14H0z"/></mask><g mask="url(#fs-q2vj8we9ba)"><path fill="#e8112d" d="M7.62 0h4.76v14H7.62z"/><path fill="#e8112d" d="M0 4.67h20v4.67H0z"/><path fill="#f9dd16" d="M9.52 1.87h.95v10.27h-.95z"/><path fill="#f9dd16" fill-rule="evenodd" d="M10 11.2l.95.93h-1.9l.95-.93z" clip-rule="evenodd"/><path fill="#f9dd16" d="M4.76 6.53h10.48v.93H4.76z"/><path fill="#f9dd16" fill-rule="evenodd" d="M10 2.8l.95-.93h-1.9l.95.93zM5.71 7l-.95-.93v1.86L5.71 7zm8.58 0l.95-.93v1.86L14.29 7z" clip-rule="evenodd"/></g></svg>