<svg xmlns="http://www.w3.org/2000/svg" width="20" height="14" fill="none" viewBox="0 0 20 14"><path fill="#fff" d="M0 0h20v14H0z"/><mask id="fs-30liecuvda" style="mask-type:alpha" width="20" height="14" x="0" y="0" maskUnits="userSpaceOnUse"><path fill="#fff" d="M0 0h20v14H0z"/></mask><g fill-rule="evenodd" clip-rule="evenodd" mask="url(#fs-30liecuvda)"><path fill="#e34f4f" d="M0 14h20V9.33H0V14zm6.67-4.67h5.71V5.6H6.67v3.73z"/><path fill="#181a1a" d="M7.62 9.33h.95V8.4h-.95v.93zm2.86 0h.95V8.4h-.95v.93zM6.67 5.6h.95v-.93h-.95v.93zm2.85 0h.96v-.93h-.96v.93zm-.95 0h.95v-.93h-.95v.93zm2.86 0h.95v-.93h-.95v.93z"/><path fill="#e34f4f" d="M6.67 4.67h.95v-.94h-.95v.94zm2.85 0h.96v-.94h-.96v.94zm-.95 0h.95v-.94h-.95v.94zm2.86 0h.95v-.94h-.95v.94z"/></g></svg>