<svg xmlns="http://www.w3.org/2000/svg" width="20" height="14" fill="none" viewBox="0 0 20 14"><path fill="#fff" d="M0 0h20v14H0z"/><mask id="fs-jrkck5vqea" style="mask-type:alpha" width="20" height="14" x="0" y="0" maskUnits="userSpaceOnUse"><path fill="#fff" d="M0 0h20v14H0z"/></mask><g fill-rule="evenodd" clip-rule="evenodd" mask="url(#fs-jrkck5vqea)"><path fill="#f0371d" d="M0 14h20V0H0v14z"/><path fill="#fff" d="M9.99 5.7c.69-.56.73-.69.9-1.19.05-.16 0-.3-.04-.46-.75-.24-1.62.36-1.95 1.34-.32.98.02 1.97.77 2.21.14.04.12.01.08-.07-.07-.15-.22-.46.22-.82zM8.56 6.73c-.33-.81-.44-.9-.87-1.2-.15-.1-.29-.1-.46-.11-.46.62-.15 1.62.7 2.23.86.6 1.92.59 2.38-.04.09-.11.05-.1-.04-.1-.17.03-.51.07-.73-.45zm4.3.45c-.54 0-.67 0-1.43-.47-.49-.3-.74-.06-.86.05-.07.07-.1.09-.1-.05 0-.77.86-1.4 1.91-1.4 1.05 0 1.9.63 1.9 1.4-.53 0-.78.16-.98.3-.14.09-.26.17-.44.17zm0-.88c0 .13-.1.23-.24.23 0-.13.1-.23.24-.23.13 0 .24.1.24.23zm-1.97 2.06c-.21.86-.17.98 0 1.48.05.17.16.25.3.36.19.15.42.33.59.83.75-.24 1.1-1.23.77-2.21-.33-.98-1.2-1.58-1.95-1.34-.13.04-.1.06-.02.1.15.08.45.24.31.78zm.84 1.2c.12-.03.26.03.3.16zm-2.6-1.18c-.9.06-1.01.14-1.44.44-.15.1-.2.24-.26.4-.08.22-.19.5-.62.8.47.63 1.53.65 2.38.04.85-.6 1.17-1.6.7-2.23-.08-.11-.08-.08-.1.01-.03.16-.1.5-.67.54zM8.2 9.53c.1-.08.25-.05.33.05.08.1.05.25-.05.33zM7.16 6.24c.08-.1.23-.13.33-.05.11.08.13.22.06.33zm2.87-2c.13.04.2.17.15.3z"/></g></svg>