<svg xmlns="http://www.w3.org/2000/svg" width="20" height="14" fill="none" viewBox="0 0 20 14"><path fill="#fff" d="M0 0h20v14H0z"/><mask id="fs-ddlthfuowa" style="mask-type:alpha" width="20" height="14" x="0" y="0" maskUnits="userSpaceOnUse"><path fill="#fff" d="M0 0h20v14H0z"/></mask><g fill-rule="evenodd" clip-rule="evenodd" mask="url(#fs-ddlthfuowa)"><path fill="#0884e6" d="M0 4.67h20V0H0v4.67zM0 14h20V9.33H0V14z"/><path fill="#0e88e9" d="M10 7.47l-.67.19.2-.66-.2-.66.67.2.67-.2-.2.66.2.66-.67-.2zm3.8-.94l-.66.2.2-.66-.2-.66.67.19.67-.2-.2.67.2.66-.67-.2zm0 1.87l-.66.2.2-.67-.2-.66.67.2.67-.2-.2.66.2.66-.67-.19zm-7.61 0l-.67.2.2-.67-.2-.66.67.2.67-.2-.2.66.2.66-.67-.19zm0-1.87l-.67.2.2-.66-.2-.66.67.19.67-.2-.2.67.2.66-.67-.2z"/></g></svg>