<svg xmlns="http://www.w3.org/2000/svg" width="20" height="14" fill="none" viewBox="0 0 20 14"><path fill="#fff" d="M0 0h20v14H0z"/><mask id="fs-h9v5wc5nca" style="mask-type:alpha" width="20" height="14" x="0" y="0" maskUnits="userSpaceOnUse"><path fill="#fff" d="M0 0h20v14H0z"/></mask><g fill-rule="evenodd" clip-rule="evenodd" mask="url(#fs-h9v5wc5nca)"><path fill="#ff202d" d="M0 4.67h20V0H0v4.67z"/><path fill="#1895db" d="M7.62 3.73l.48-.46.47.46v.94h-.95v-.94zm1.9 0l.48-.46.48.46v.94h-.96v-.94zm2.38-.46l-.47.46v.94h.95v-.94l-.48-.46z" opacity=".5"/><path fill="#191f94" d="M9.05 3.27l-.48.46v.94h.95v-.94l-.47-.46zm1.9 0l-.47.46v.94h.95v-.94l-.48-.46z" opacity=".5"/><path fill="#2027ac" d="M0 14h20V9.33H0V14z"/><path fill="url(#paint0_linear_10_738)" d="M8.57 4.67H8.1l-.48.93h.95v.93h-.95v.94h.95v.93h-.95v.93h.95V8.4h.95v.93h.96V8.4h.95v.93h.95V8.4h-.95v-.93h.95v-.94h-.95V5.6h.95l-.48-.93h-.47v.93h-.95v-.93h-.96v.93h-.95v-.93zm.95 1.86V5.6h.96v.93h-.96zm0 .94v.93h.96v-.93h.95v-.94h-.95v.94h-.96zm0 0h-.95v-.94h.95v.94zm.96 1.86h.95v.94h-.95v-.94zm-.96 0h-.95v.94h.95v-.94z"/></g><defs><linearGradient id="paint0_linear_10_738" x1="7.62" x2="7.62" y1="4.67" y2="10.27" gradientUnits="userSpaceOnUse"><stop stop-color="#ff212e"/><stop offset="1" stop-color="#fd0d1b"/></linearGradient></defs></svg>