<svg xmlns="http://www.w3.org/2000/svg" width="20" height="14" fill="none" viewBox="0 0 20 14"><path fill="#fff" d="M0 0h20v14H0z"/><mask id="fs-vlu7qmdcfa" style="mask-type:alpha" width="20" height="14" x="0" y="0" maskUnits="userSpaceOnUse"><path fill="#fff" d="M0 0h20v14H0z"/></mask><g mask="url(#fs-vlu7qmdcfa)"><path fill="#112ebc" fill-rule="evenodd" d="M0 6.53h20V0H0v6.53z" clip-rule="evenodd"/><path fill="#e3264a" fill-rule="evenodd" d="M0 14h20V6.53H0V14z" clip-rule="evenodd"/><rect width="6.67" height="5.6" x="6.67" y="4.67" fill="url(#paint0_linear_10_726)" rx=".67"/><mask id="fs-0o7nd4w8gb" style="mask-type:alpha" width="8" height="7" x="6" y="4" maskUnits="userSpaceOnUse"><rect width="6.67" height="5.6" x="6.67" y="4.67" fill="#fff" rx=".67"/></mask><g mask="url(#fs-0o7nd4w8gb)"><path fill="#aabcae" stroke="#366c14" stroke-width=".67" d="M7 9.93v-.39l1.16-.57c.32-.16.67-.24 1.03-.24h1.62c.36 0 .7.08 1.03.24l1.16.57v.4H7z"/><path fill="#d4b872" fill-rule="evenodd" d="M10 8.4c.79 0 1.43-.63 1.43-1.4 0-.77-.64-1.4-1.43-1.4-.79 0-1.43.63-1.43 1.4 0 .77.64 1.4 1.43 1.4z" clip-rule="evenodd"/><path fill="#c28321" stroke="#0d3488" stroke-width=".67" d="M8.5 8.1l.88.7H8.3v-.3c0-.28.32-.43.54-.26zm3.21.9H10.2l.89-.7v.3c0 .18-.15.33-.34.33z"/><path fill="#216c30" fill-rule="evenodd" d="M9.15 6.17h1.22c.3 0 .45.36.24.57l-.62.6-.62-.6z" clip-rule="evenodd"/></g></g><defs><linearGradient id="paint0_linear_10_726" x1="6.67" x2="6.67" y1="4.67" y2="10.27" gradientUnits="userSpaceOnUse"><stop stop-color="#fff"/><stop offset="1" stop-color="#f0f0f0"/></linearGradient></defs></svg>