<svg xmlns="http://www.w3.org/2000/svg" width="20" height="14" fill="none" viewBox="0 0 20 14"><path fill="#fff" d="M0 0h20v14H0z"/><mask id="fs-8fnlb6hzoa" style="mask-type:alpha" width="20" height="14" x="0" y="0" maskUnits="userSpaceOnUse"><path fill="#fff" d="M0 0h20v14H0z"/></mask><g fill-rule="evenodd" clip-rule="evenodd" mask="url(#fs-8fnlb6hzoa)"><path fill="#df1e35" d="M0 4.67h20V0H0v4.67z"/><path fill="#262626" d="M0 14h20V9.33H0V14z"/><path fill="#0f7a40" d="M13.33 6.13c0-.24.26-.4.48-.3l.29.15c.11.05.19.17.19.3v1.79c0 .18-.15.33-.34.33h-.28V6.13zm-5.71 0c0-.24.26-.4.48-.3l.28.15c.12.05.2.17.2.3v1.79c0 .18-.16.33-.34.33h-.29V6.13zm3.81.14c0-.12.07-.24.19-.3l.28-.13c.22-.11.48.05.48.3v1.93c0 .18-.15.33-.33.33h-.29V6.6z"/><path fill="#0f7a40" d="M9.52 7.2c0-.12.08-.24.19-.3l.29-.13c.22-.11.48.05.48.3v.44h1.42v.89H9.86V7.2zm-3.81 0c0-.12.08-.24.2-.3l.28-.13c.22-.11.48.05.48.3v.44H8.1v.89H6.05V7.2z"/></g></svg>