<svg xmlns="http://www.w3.org/2000/svg" width="20" height="14" fill="none" viewBox="0 0 20 14"><path fill="#fff" d="M0 0h20v14H0z"/><mask id="fs-3ddgf3meta" style="mask-type:alpha" width="20" height="14" x="0" y="0" maskUnits="userSpaceOnUse"><path fill="#fff" d="M0 0h20v14H0z"/></mask><g mask="url(#fs-3ddgf3meta)"><path fill="#e3243b" d="M-4.5-1.8l1.08-1.54 28.87 19.81-1.1 1.53z"/><path fill="#e3243b" d="M25.45-1.8l-1.1-1.54L-4.5 16.47-3.4 18z"/><path fill="#faef32" fill-rule="evenodd" d="M11.24 1.87H9.71l.06-.04-.7-.4.9.1-.12-.6.63.5.62-.5-.13.6.92-.1-.7.4.05.04z" clip-rule="evenodd"/><path fill="#e3243b" fill-rule="evenodd" d="M9.05 3.62V3.2c0-.74.6-1.33 1.33-1.33h.2c.73 0 1.32.6 1.32 1.33v.42c0 1.25-1.42 1.75-1.42 1.75s-1.43-.5-1.43-1.75z" clip-rule="evenodd"/><mask id="fs-xcdcfy7brb" style="mask-type:alpha" width="3" height="5" x="9" y="1" maskUnits="userSpaceOnUse"><path fill="#fff" fill-rule="evenodd" d="M9.05 3.62V3.2c0-.74.6-1.33 1.33-1.33h.2c.73 0 1.32.6 1.32 1.33v.42c0 1.25-1.42 1.75-1.42 1.75s-1.43-.5-1.43-1.75z" clip-rule="evenodd"/></mask><g fill="#faef32" mask="url(#fs-xcdcfy7brb)"><rect width=".48" height=".47" x="10.24" y="4.67" rx=".23"/><rect width="1.9" height=".47" x="9.52" y="3.73" rx=".23"/><rect width="1.9" height=".47" x="9.52" y="2.8" rx=".23"/></g></g></svg>