<svg xmlns="http://www.w3.org/2000/svg" width="20" height="14" fill="none" viewBox="0 0 20 14"><path fill="#fff" d="M0 0h20v14H0z"/><mask id="fs-d64w916l9a" style="mask-type:alpha" width="20" height="14" x="0" y="0" maskUnits="userSpaceOnUse"><path fill="#fff" d="M0 0h20v14H0z"/></mask><g mask="url(#fs-d64w916l9a)"><path fill="#1dbe4f" d="M0 0h20v14H0z"/><path fill="#262626" fill-rule="evenodd" d="M0 0l8.57 7L0 14V0zm20 0l-8.57 7L20 14V0z" clip-rule="evenodd"/><path fill="#ffd646" fill-rule="evenodd" d="M10 5.87L-.92-1.34-1.98.2 8.3 7l-10.28 6.8 1.06 1.54L10 8.13l10.92 7.21 1.06-1.55L11.7 7 21.98.2l-1.06-1.54L10 5.87z" clip-rule="evenodd"/></g></svg>