<svg xmlns="http://www.w3.org/2000/svg" width="20" height="14" fill="none" viewBox="0 0 20 14"><path fill="#fff" d="M0 0h20v14H0z"/><mask id="fs-4bfwe3uqja" style="mask-type:alpha" width="20" height="14" x="0" y="0" maskUnits="userSpaceOnUse"><path fill="#fff" d="M0 0h20v14H0z"/></mask><g mask="url(#fs-4bfwe3uqja)"><path fill="#f22a46" d="M0 0h20v14H0z"/><path fill="#fff04d" fill-rule="evenodd" d="M8.83 12L10 10.3l1.17 1.7.3-2.03 1.8 1.04-.64-1.95 2.09.17-1.44-1.5L15.24 7l-1.96-.73 1.44-1.5-2.09.17.64-1.95-1.8 1.04-.3-2.03L10 3.7 8.83 2l-.3 2.03-1.8-1.04.64 1.95-2.09-.17 1.44 1.5L4.76 7l1.96.73-1.44 1.5 2.09-.17L6.73 11l1.8-1.04.3 2.03zm4.5-5z" clip-rule="evenodd"/></g></svg>