<svg xmlns="http://www.w3.org/2000/svg" width="20" height="14" fill="none" viewBox="0 0 20 14"><path fill="#fff" d="M0 0h20v14H0z"/><mask id="fs-uf6716uwwa" style="mask-type:alpha" width="20" height="14" x="0" y="0" maskUnits="userSpaceOnUse"><path fill="#fff" d="M0 0h20v14H0z"/></mask><g fill-rule="evenodd" clip-rule="evenodd" mask="url(#fs-uf6716uwwa)"><path fill="#0f3eb6" d="M0 3.73h20V0H0v3.73zM0 14h20v-3.73H0V14z"/><path fill="#ed1a3c" d="M0 10.27h20V3.73H0v6.54z"/><path fill="#fff" d="M8.57 6.1h.95v-.49.5h.95V7h-1.9v-.9zm3.81-.5V7h.96v-.92zM8.1 7.47h-.96L6.2 9.33h1.9V7.47zm.47 0v1.86h2.86V7.47H8.57zm3.33 0h.96l.95 1.86h-1.9V7.47zM7.62 5.6V7h.96v-.92z"/></g></svg>