<svg xmlns="http://www.w3.org/2000/svg" width="20" height="14" fill="none" viewBox="0 0 20 14"><path fill="#fff" d="M0 0h20v14H0z"/><mask id="fs-aj57by2m6a" style="mask-type:alpha" width="20" height="14" x="0" y="0" maskUnits="userSpaceOnUse"><path fill="#fff" d="M0 0h20v14H0z"/></mask><g fill-rule="evenodd" clip-rule="evenodd" mask="url(#fs-aj57by2m6a)"><path fill="#1ec160" d="M0 9.33L20 0H0v9.33z"/><path fill="#df2a40" d="M0 14h20V4.67L0 14z"/><path fill="#ffd956" d="M.56 17.73L23.98 3.4l-4.54-7.12L-3.98 10.6l4.54 7.12z"/><path fill="#262626" d="M-.45 16.15L22.97 1.81l-2.52-3.96-23.42 14.34 2.52 3.96z"/><path fill="#fff" d="M14.5 5.46l-.67 1.05-.44-1.17-1.22-.3 1-.77-.1-1.24 1.06.7 1.17-.47-.34 1.2.81.95-1.26.05zM6.89 9.98l-.68 1.05-.44-1.16-1.22-.3 1-.77-.1-1.24 1.06.69 1.18-.46-.35 1.2.81.95-1.26.04z"/></g></svg>