<svg xmlns="http://www.w3.org/2000/svg" width="20" height="14" fill="none" viewBox="0 0 20 14"><path fill="#fff" d="M0 0h20v14H0z"/><mask id="fs-b1j893pmka" style="mask-type:alpha" width="20" height="14" x="0" y="0" maskUnits="userSpaceOnUse"><path fill="#fff" d="M0 0h20v14H0z"/></mask><g fill-rule="evenodd" clip-rule="evenodd" mask="url(#fs-b1j893pmka)"><path fill="#1461b6" d="M0 2.8h20V0H0v2.8zM0 14h20v-2.8H0V14z"/><path fill="#fff" d="M0 11.2h20V2.8H0v8.4z"/><path fill="#f53846" d="M0 10.27h20V3.73H0v6.54z"/><path fill="#fff" d="M9.52 7l-.56 1.57-1.7.04 1.35 1-.49 1.6 1.4-.94 1.4.95-.49-1.6 1.36-1.01-1.7-.04L9.52 7z"/></g></svg>