<svg xmlns="http://www.w3.org/2000/svg" width="20" height="14" fill="none" viewBox="0 0 20 14"><path fill="#fff" d="M0 0h20v14H0z"/><mask id="fs-mh3fn1yzsa" style="mask-type:alpha" width="20" height="14" x="0" y="0" maskUnits="userSpaceOnUse"><path fill="#fff" d="M0 0h20v14H0z"/></mask><g mask="url(#fs-mh3fn1yzsa)"><g mask="url(#fs-fe7ktzrvyb)"><path fill="#0e4b9c" fill-rule="evenodd" d="M6.67 7.47c.95.87 2.38 1.4 3.33 0 .95-1.4 2.86-1.4 3.33 0 .48 1.4 0 2.8 0 2.8H6.67s-.96-3.68 0-2.8z" clip-rule="evenodd"/></g><path fill="#262626" fill-rule="evenodd" d="M14.94 2.59c-.16.1-.22.3-.12.45L15.9 4.9c.09.16.3.22.46.12l.24-.13c.16-.1.21-.3.12-.45l-1.09-1.86-.24.14zm-1.24.7c-.16.1-.21.3-.12.45l1.09 1.85c.1.16.3.22.46.12l.24-.13c.16-.1.22-.3.12-.45L14.4 3.27l-.24.14zM3.27 9.57L3.63 9c.16-.1.37-.04.46.12l1.1 1.85c.09.16.03.36-.13.45l-.24.14-1.1-1.86zm1.36-1.15c-.16.1-.22.3-.12.45l1.09 1.86c.09.15.3.2.46.12l.24-.14c.16-.1.21-.3.12-.45L5.33 8.4l-.24.13zm10.04-.01c.1-.16.3-.22.46-.12l.24.13c.16.1.22.3.12.45l-1.09 1.86c-.09.15-.3.2-.46.12l-.24-.14 1.09-1.85zm1.7.58l-1.1 1.85a.33.33 0 00.13.45l.24.14c.16.09.37.03.46-.12l1.1-1.86-.83-.45zM4.36 2.57c.1-.15.3-.2.46-.12l.24.14c.16.1.22.3.12.45L4.1 4.9a.33.33 0 01-.46.12l-.24-.13 1.09-1.86zm1.7.58L4.5 5.13c-.09.15-.03.36.13.45l.24.13c.16.1.37.04.46-.12l1.1-1.85-.24-.14z" clip-rule="evenodd" opacity=".75"/></g></svg>