<svg xmlns="http://www.w3.org/2000/svg" width="20" height="14" fill="none" viewBox="0 0 20 14"><path fill="#fff" d="M0 0h20v14H0z"/><mask id="fs-pu8z8ebtua" style="mask-type:alpha" width="20" height="14" x="0" y="0" maskUnits="userSpaceOnUse"><path fill="#fff" d="M0 0h20v14H0z"/></mask><g mask="url(#fs-pu8z8ebtua)"><path fill="#07319c" d="M0 0h20v14H0z"/><path fill="#fad051" fill-rule="evenodd" d="M14.76 4.67c.8 0 1.43-.42 1.43-.94 0-.51-.64-.93-1.43-.93-.79 0-1.43.42-1.43.93 0 .52.64.94 1.43.94z" clip-rule="evenodd"/><path fill="url(#paint0_linear_10_1145)" fill-rule="evenodd" d="M12.38 7V3.73h4.76V7c0 2.33-2.38 3.27-2.38 3.27S12.38 9.33 12.38 7z" clip-rule="evenodd"/><mask id="fs-n8w2q88eub" style="mask-type:alpha" width="6" height="8" x="12" y="3" maskUnits="userSpaceOnUse"><path fill="#fff" fill-rule="evenodd" d="M12.38 7V3.73h4.76V7c0 2.33-2.38 3.27-2.38 3.27S12.38 9.33 12.38 7z" clip-rule="evenodd"/></mask><g fill-rule="evenodd" clip-rule="evenodd" mask="url(#fs-n8w2q88eub)"><path fill="#cf142c" d="M12.38 3.73h4.76v.94H12.4v-.94z"/><path fill="#125fba" d="M17.14 5.6h-4.76v.93h4.76V5.6zm-4.76 1.87h4.76v.93H12.4v-.93zm0 1.86h4.76v.94H12.4v-.94z"/></g><path fill="#db1e36" stroke="#fff" stroke-width=".67" d="M0-.33h-.92l.7.59L3 2.96v.6L-.2 5.79l-.13.1v1.24l.5-.31L3.9 4.53h.76l3.2 2.25-2.29-3.2v-.6L8.62.83V-.6l-.5.32L4.67 2H3.9L.67-.27.58-.33H0z"/><path fill="#fff" fill-rule="evenodd" d="M0 2.33V4.2h3.33v2.13c0 .37.3.67.67.67h.57c.37 0 .67-.3.67-.67V4.2h3.14c.37 0 .67-.3.67-.67V3c0-.37-.3-.67-.67-.67H5.24V0h-1.9v2.33H0z" clip-rule="evenodd"/><path fill="#db1e36" fill-rule="evenodd" d="M0 2.8h3.81V0h.95v2.8h3.81v.93h-3.8v2.8H3.8v-2.8H0V2.8z" clip-rule="evenodd"/></g><defs><linearGradient id="paint0_linear_10_1145" x1="12.38" x2="12.38" y1="3.73" y2="10.27" gradientUnits="userSpaceOnUse"><stop stop-color="#fff"/><stop offset="1" stop-color="#f0f0f0"/></linearGradient></defs></svg>