<svg xmlns="http://www.w3.org/2000/svg" width="20" height="14" fill="none" viewBox="0 0 20 14"><path fill="#fff" d="M0 0h20v14H0z"/><mask id="fs-xr6vpe9fsa" style="mask-type:alpha" width="20" height="14" x="0" y="0" maskUnits="userSpaceOnUse"><path fill="#fff" d="M0 0h20v14H0z"/></mask><g mask="url(#fs-xr6vpe9fsa)"><path fill="#30c6e0" d="M0 0h20v14H0z"/><path fill="#ffcd4b" fill-rule="evenodd" d="M10 9.8C10 8.25 8.72 7 7.14 7c0 1.55 1.28 2.8 2.86 2.8z" clip-rule="evenodd"/><path fill="#ffcd4b" fill-rule="evenodd" d="M8.83 12L10 10.3l1.17 1.7.3-2.03 1.8 1.04-.64-1.95 2.09.17-1.44-1.5L15.24 7l-1.96-.73 1.44-1.5-2.09.17.64-1.95-1.8 1.04-.3-2.03L10 3.7 8.83 2l-.3 2.03-1.8-1.04.64 1.95-2.09-.17 1.44 1.5L4.76 7l1.96.73-1.44 1.5 2.09-.17L6.73 11l1.8-1.04.3 2.03zm4.5-5zM.95 1.27c0-.19.15-.34.34-.34h.28c.19 0 .33.15.33.34v.26c0 .19-.14.34-.33.34H1.3v-.26zm0 1.86c0-.18.15-.33.34-.33h.28c.19 0 .33.15.33.33v.27c0 .18-.14.33-.33.33H1.3v-.27zm.34 1.54v.27c0 .18.15.33.34.33h.28c.19 0 .33-.15.33-.33V5H1.3zm-.34 2.2c0-.19.15-.34.34-.34h.28c.19 0 .33.15.33.34v.26c0 .19-.14.34-.33.34H1.3v-.26zM1.3 8.4V9c0 .18.15.33.34.33h.28c.19 0 .33-.15.33-.33v-.27H1.3zm-.34 2.2c0-.18.15-.33.34-.33h.28c.19 0 .33.15.33.33v.27c0 .18-.14.33-.33.33H1.3v-.27zm.34 1.53v.26c0 .19.15.34.34.34h.28c.19 0 .33-.15.33-.34v-.26H1.3zm.61-.6c0-.18.15-.33.34-.33h.28c.19 0 .34.15.34.33v.27c0 .18-.15.33-.34.33h-.28v-.27zm.34-2.2v.26c0 .19.15.34.34.34h.28c.19 0 .34-.15.34-.34v-.26h-.28zM1.9 7.8c0-.18.15-.33.34-.33h.28c.19 0 .34.15.34.33v.27c0 .18-.15.33-.34.33h-.28v-.6zm.34-2.2v.27c0 .18.15.33.34.33h.28c.19 0 .34-.15.34-.33V5.6h-.28zM1.9 4.07c0-.19.15-.34.34-.34h.28c.19 0 .34.15.34.34v.26c0 .19-.15.34-.34.34h-.28v-.26zm.34-2.2v.27c0 .18.15.33.34.33h.28c.19 0 .34-.15.34-.33v.06h-.28z" clip-rule="evenodd"/></g></svg>