<svg xmlns="http://www.w3.org/2000/svg" width="20" height="14" fill="none" viewBox="0 0 20 14"><path fill="#fff" d="M0 0h20v14H0z"/><mask id="fs-1dc7gonqna" style="mask-type:alpha" width="20" height="14" x="0" y="0" maskUnits="userSpaceOnUse"><path fill="#fff" d="M0 0h20v14H0z"/></mask><g fill-rule="evenodd" clip-rule="evenodd" mask="url(#fs-1dc7gonqna)"><path fill="#f03340" d="M0 3.73h20V0H0v3.73zM0 14h20v-3.73H0V14z"/><path fill="#1fc065" d="M9.24 8.67l-.05-.06-.29.07c-.31.08-.5-.33-.24-.52l.24-.18c-.21 0-.27-.28-.09-.37l.4-.2c.19-.09.12-.36-.08-.36l1.06-.78 1.06.78c-.2 0-.27.27-.08.36l.4.2c.18.1.12.37-.09.37l.24.18c.26.19.07.6-.24.52l-.29-.07-.05.06c.24.25.07.66-.27.66H9.5z"/></g></svg>