<svg xmlns="http://www.w3.org/2000/svg" width="20" height="14" fill="none" viewBox="0 0 20 14"><path fill="#fff" d="M0 0h20v14H0z"/><mask id="fs-vu2j1hxkda" style="mask-type:alpha" width="20" height="14" x="0" y="0" maskUnits="userSpaceOnUse"><path fill="#fff" d="M0 0h20v14H0z"/></mask><g mask="url(#fs-vu2j1hxkda)"><path fill="#ffbf19" d="M0 0h20v14H0z"/><path fill="#a52531" fill-rule="evenodd" d="M7.62.93h10.1c.73 0 1.33.6 1.33 1.34v9.46c0 .74-.6 1.34-1.34 1.34H7.61V.93z" clip-rule="evenodd"/><path fill="#03664f" d="M.95 2.27c0-.74.6-1.34 1.34-1.34H3.8v12.14H2.29c-.74 0-1.34-.6-1.34-1.34V2.27z"/><rect width="2.86" height="12.13" x="3.81" y=".93" fill="#ff6816" rx=".67"/><path fill="#ffbf18" fill-rule="evenodd" d="M9.52 2.33c0 .26-.2.47-.47.47v-.46h.48c.26 0 .47.2.47.46zm7.62 0c0 .26.22.47.48.47s.48-.2.48-.47v-.46h-.48c-.26 0-.48.2-.48.46zm.48 8.87c-.26 0-.48.2-.48.47 0 .25.22.46.48.46h.48v-.46zm-8.1.47c-.27 0-.48.2-.48.47v.46h.48c.26 0 .47-.2.47-.46zm1.91-2.86c-.05 0-.09 0-.13-.02-.27-.1-1.37-.5-1.37-.91 0-.2.1-.41.2-.58.14-.23.2-.52.11-.78.28-.39.8-.07.8.41V8.3c0 .25.15.48.38.6l.38.18c.12.06.26.04.36-.06l-.56-.27V5.6c.24 0 .31-.32.1-.42l-.1-.05v-.46h.68c.18 0 .34-.07.47-.2l.09-.08a.66.66 0 01.46-.19h.28c.25 0 .47.14.59.36l.16.32c.08.16.1.35.04.52l-.09.25c-.14.43.18.88.63.88h1.3c.1 0 .2-.03.26-.1l-.35-.16h-.15l.28-.27v.46c0 .26.22.47.48.47h.54c.25 0 .48.14.6.37l.23.46c.04.07.06.15.07.23.02.26.07.9-.01 1.28-.06.29-.22.56-.33.73v-.1c0 .2-.16.37-.36.37l.15-.3-.02-.05c-.1-.2-.4-.13-.4.1l-.03.09-.33.66.1-.2v-.13c0-.37-.3-.67-.67-.67h-.57c-.37 0-.67.3-.67.67v.1c0 .1-.02.21-.07.3l-.29.57.1-.2V8.8z" clip-rule="evenodd"/></g></svg>