<svg xmlns="http://www.w3.org/2000/svg" width="20" height="14" fill="none" viewBox="0 0 20 14"><path fill="#fff" d="M0 0h20v14H0z"/><mask id="fs-g2jubhujsa" style="mask-type:alpha" width="20" height="14" x="0" y="0" maskUnits="userSpaceOnUse"><path fill="#fff" d="M0 0h20v14H0z"/></mask><g mask="url(#fs-g2jubhujsa)"><path fill="#0c33b8" fill-rule="evenodd" d="M0 4.67h20V0H0v4.67z" clip-rule="evenodd"/><path fill="#1db158" fill-rule="evenodd" d="M0 14h20V9.33H0V14z" clip-rule="evenodd"/><path fill="#262626" fill-rule="evenodd" d="M9.52 7l.8 1.17c.08.13.06.31-.08.4-.22.13-.63.3-1.2.3s-.97-.17-1.2-.3c-.14-.09-.16-.27-.07-.4L9.53 7z" clip-rule="evenodd"/><path stroke="#262626" stroke-width=".67" d="M10.62 6.07c0 .32-.27.6-.62.6 0-.33.27-.6.62-.6s.62.27.62.6z"/></g></svg>