<svg xmlns="http://www.w3.org/2000/svg" width="20" height="14" fill="none" viewBox="0 0 20 14"><path fill="#fff" d="M0 0h20v14H0z"/><mask id="fs-lf522ou0ea" style="mask-type:alpha" width="20" height="14" x="0" y="0" maskUnits="userSpaceOnUse"><path fill="#fff" d="M0 0h20v14H0z"/></mask><g mask="url(#fs-lf522ou0ea)"><path fill="#e33b44" d="M0 0h20v14H0z"/><path stroke="#0a6135" stroke-width="1.33" d="M10.38 8.1L10 7.81l-.38.27-.9.63.33-1.01.14-.46-.39-.28-.85-.62h1.07l.48-.01.15-.45.35-1.03.35 1.03.15.45h.48l1.07.01-.85.62-.4.28.15.46.33 1-.9-.62z"/></g></svg>