<svg xmlns="http://www.w3.org/2000/svg" width="20" height="14" fill="none" viewBox="0 0 20 14"><path fill="#fff" d="M0 0h20v14H0z"/><mask id="fs-pdpz2h3rba" style="mask-type:alpha" width="20" height="14" x="0" y="0" maskUnits="userSpaceOnUse"><path fill="#fff" d="M0 0h20v14H0z"/></mask><g mask="url(#fs-pdpz2h3rba)"><path fill="#e6be53" d="M0 0h20v14H0z"/><path fill="#e01826" fill-rule="evenodd" d="M.95 12.07h16.1V1.93H1.95v10.14z" clip-rule="evenodd"/><path fill="#e6be53" fill-rule="evenodd" d="M9.59 2.47h.42l-.2-.07-.2.07zm.88 2.2l-.7-.69-.03.03.6.59c.2.2.26.52.12.78l-.22.44c0 .2-.2.31-.36.23l-.24-.12-.22-.2-.4-.79-.11-.46-.45.6v1.48c0 .1.02.21.07.3l.35.7.13.17.8.78c.05.05.1.1.17.13l.82.4.09.02c.22 0 .29.3.09.4l-.1.05-.2.2-.04.04.16.32c.11.22.34.36.6.36h.38c.1 0 .2-.02.3-.06l.63-.31.19-.38-.43.63c-.2.3-.12.73.19.93l.5.33c.22.14.5.14.72 0l.5-.33c.31-.2.4-.62.19-.93l-.43-.63.2.37c.06.12.15.22.27.28l.63.3c.1.05.2.07.3.07h.39c.25 0 .47-.14.59-.36l.16-.32-.04-.03-.21-.21-.11-.06c-.2-.1-.13-.4.1-.4l.82-.4.8-.78c.05-.05.1-.1.13-.17l.35-.7c.05-.09.07-.2.07-.3V4.9l-.45-.6-.11.46-.4.79-.22.21c.14.12.1.35-.07.43l-.24.12c0-.04-.01-.08-.03-.11l-.23-.44.6-.6-.03-.02-.7.68h-.01z" clip-rule="evenodd"/><path fill="#215f90" fill-rule="evenodd" d="M9.05 7.93c0 .18.3.24.38.08.16-.29.37-.54.57-.54.2 0 .4.25.57.54.09.16.38.1.38-.08 0-.77-.42-1.4-.95-1.4s-.95.63-.95 1.4z" clip-rule="evenodd"/></g></svg>