<svg xmlns="http://www.w3.org/2000/svg" width="20" height="14" fill="none" viewBox="0 0 20 14"><path fill="#fff" d="M0 0h20v14H0V0z"/><path fill="#DD7500" d="M0 13.55V0h20v3L0 13.55z"/><path fill="#003893" d="M0 13.33V0h20v.22L0 13.33zm0 .45V14h20V5.71L0 13.78z"/><path fill="#fff" d="M3.84.77l.14 3 .47-1.64-.21 1.71L5 2.42 4.47 4l1-1.11-.81 1.39 1.21-.72-1.07 1 1.3-.28-1.23.62 2.24.18-2.24.18 1.23.63-1.3-.25 1.07 1L4.66 6l.84 1.31-1-1.11.5 1.6-.76-1.42.21 1.73L4 6.47l-.14 3-.13-3-.49 1.64.21-1.73-.78 1.42.55-1.6-1 1.11L3 6l-1.2.72 1.07-1-1.3.28 1.23-.63-2.22-.26 2.24-.18-1.23-.62 1.3.28-1.07-1L3 4.28l-.81-1.37L3.22 4l-.55-1.6.78 1.42-.21-1.71.47 1.64.13-2.98z"/></svg>