<svg xmlns="http://www.w3.org/2000/svg" width="20" height="14" fill="none" viewBox="0 0 20 14"><path fill="#fff" d="M0 0h20v14H0z"/><mask id="fs-p444rbe3ja" style="mask-type:alpha" width="20" height="14" x="0" y="0" maskUnits="userSpaceOnUse"><path fill="#fff" d="M0 0h20v14H0z"/></mask><g mask="url(#fs-p444rbe3ja)"><path fill="#e81b26" d="M0 0h20v14H0z"/><path fill="#ffe94f" fill-rule="evenodd" d="M10 9.33zM7.3 5.1c.14-.2.3-.38.48-.54L1.4-2.47-.5-.4l7.8 5.49zm.48 4.34l-7.8 5.5 1.91 2.07 6.38-7.03zM6.7 7.46L0 5.6v2.8l6.7-.94zm3.95 2.74L8.57 14h2.86l-.78-3.8zm0-6.4l.78-3.8H8.57l.78 3.8zm2.65 2.74l6.7.94V5.6l-6.7.94zm-1.08 2.9l6.38 7.03 1.91-2.08-7.8-5.49c-.15.2-.31.38-.5.54zm0-4.88c.18.16.34.34.49.54l7.8-5.5-1.91-2.07-6.38 7.03z" clip-rule="evenodd"/></g></svg>