<svg xmlns="http://www.w3.org/2000/svg" width="20" height="14" fill="none" viewBox="0 0 20 14"><path fill="#fff" d="M0 0h20v14H0z"/><mask id="fs-w3foe0tgfa" style="mask-type:alpha" width="20" height="14" x="0" y="0" maskUnits="userSpaceOnUse"><path fill="#fff" d="M0 0h20v14H0z"/></mask><g fill-rule="evenodd" clip-rule="evenodd" mask="url(#fs-w3foe0tgfa)"><path fill="#146bbc" d="M6.67 14h6.66V0H6.67v14z"/><path fill="#e43642" d="M0 14h6.67V0H0v14zm13.33 0H20V0h-6.67v14z"/><path fill="url(#paint0_linear_10_1286)" d="M3.33 7l.48.47h-.48c.27 0 .48.2.48.46s-.21.47-.48.47c0-.25.21-.46.47-.46h-.47V7zm.48 1.4H1.9v2.8h.96v-.93l.47.93.48-.93v.93h.95V8.4h-.95zm-.48.93l.48-.93v1.4zm-.47.47c0-.26.21-.47.47-.47l-.47-.93v1.4zm.47.47h-.47V9.8c0 .26.21.47.47.47zm0 0h.48V9.8c0 .26-.21.47-.48.47z"/></g><defs><linearGradient id="paint0_linear_10_1286" x1="1.9" x2="1.9" y1="7" y2="11.2" gradientUnits="userSpaceOnUse"><stop stop-color="#f8d246"/><stop offset="1" stop-color="#f9ce2f"/></linearGradient></defs></svg>