<svg xmlns="http://www.w3.org/2000/svg" width="20" height="14" fill="none" viewBox="0 0 20 14"><path fill="#fff" d="M0 0h20v14H0z"/><mask id="fs-zoy5s8z2aa" style="mask-type:alpha" width="20" height="14" x="0" y="0" maskUnits="userSpaceOnUse"><path fill="#fff" d="M0 0h20v14H0z"/></mask><g fill-rule="evenodd" clip-rule="evenodd" mask="url(#fs-zoy5s8z2aa)"><path fill="#079d7b" d="M0 14h20V0H0v14z"/><path fill="#fff" d="M11.35 6.07c0 .2-.02.4-.05.59l.23-.06c1.27-.34 2.4-.23 2.53.24.11.43-.63 1-1.71 1.35-.2-.56-1.17-.72-2.35-.72-1.18 0-2.16.16-2.35.72-1.07-.35-1.8-.92-1.68-1.34.13-.47 1.26-.58 2.53-.24l.2.05c0-1.28.6-2.33 1.35-2.33.74 0 1.35 1.05 1.35 2.34zM7.62 8.4h.83l.56.04-.41.09h2.29c-.11.33-.27.65-.45.93h-3.8c-.18-.28-.34-.6-.45-.93h1.43zM10 11.2c.96 0 1.85-.35 2.54-.93H7.46c.7.58 1.58.93 2.54.93z"/><path fill="#fcd117" d="M10 2.8c.26 0 .48-.2.48-.47-.26 0-.48.2-.48.46s.22.47.48.47zM6.19 5.13c.26 0 .48-.2.48-.46-.26 0-.48.2-.48.47 0 .25.22.46.48.46zm8.1-.46c0 .25-.22.46-.48.46 0-.26.22-.47.48-.47s.48.2.48.47zm-1.9-.94c.25 0 .47-.2.47-.46-.26 0-.48.2-.48.47 0 .25.22.46.48.46zm-4.3-.46c0 .25-.2.46-.47.46 0-.26.22-.47.48-.47s.48.2.48.47z"/></g></svg>