<svg xmlns="http://www.w3.org/2000/svg" width="20" height="14" fill="none" viewBox="0 0 20 14"><path fill="#fff" d="M0 0h20v14H0z"/><mask id="fs-ycd073nhea" style="mask-type:alpha" width="20" height="14" x="0" y="0" maskUnits="userSpaceOnUse"><path fill="#fff" d="M0 0h20v14H0z"/></mask><g mask="url(#fs-ycd073nhea)"><path fill="#07319c" d="M0 0h20v14H0z"/><path fill="#08b9d6" fill-rule="evenodd" d="M12.38 7V5.07c0-.74.6-1.34 1.33-1.34h2.1c.74 0 1.33.6 1.33 1.34V7c0 2.33-2.38 3.27-2.38 3.27S12.38 9.33 12.38 7z" clip-rule="evenodd"/><mask id="fs-e41nk6myyb" style="mask-type:alpha" width="6" height="8" x="12" y="3" maskUnits="userSpaceOnUse"><path fill="#fff" fill-rule="evenodd" d="M12.38 7V5.07c0-.74.6-1.34 1.33-1.34h2.1c.74 0 1.33.6 1.33 1.34V7c0 2.33-2.38 3.27-2.38 3.27S12.38 9.33 12.38 7z" clip-rule="evenodd"/></mask><g fill-rule="evenodd" clip-rule="evenodd" mask="url(#fs-e41nk6myyb)"><path fill="#a63d09" d="M12.38 8.4h4.76v1.87H12.4V8.4z"/><path fill="#262626" d="M15.24 4.67h-.95v.93h-.96v.93h.96V8.4h.95V6.53h.95V5.6h-.95v-.93z"/></g><path fill="#db1e36" stroke="#fff" stroke-width=".67" d="M0-.33h-.92l.7.59L3 2.96v.6L-.2 5.79l-.13.1v1.24l.5-.31L3.9 4.53h.76l3.2 2.25-2.29-3.2v-.6L8.62.83V-.6l-.5.32L4.67 2H3.9L.67-.27.58-.33H0z"/><path fill="#fff" fill-rule="evenodd" d="M0 2.33V4.2h3.33v2.13c0 .37.3.67.67.67h.57c.37 0 .67-.3.67-.67V4.2h3.14c.37 0 .67-.3.67-.67V3c0-.37-.3-.67-.67-.67H5.24V0h-1.9v2.33H0z" clip-rule="evenodd"/><path fill="#db1e36" fill-rule="evenodd" d="M0 2.8h3.81V0h.95v2.8h3.81v.93h-3.8v2.8H3.8v-2.8H0V2.8z" clip-rule="evenodd"/></g></svg>