<svg xmlns="http://www.w3.org/2000/svg" width="20" height="14" fill="none" viewBox="0 0 20 14"><path fill="#fff" d="M0 0h20v14H0z"/><mask id="fs-br9tolxypa" style="mask-type:alpha" width="20" height="14" x="0" y="0" maskUnits="userSpaceOnUse"><path fill="#fff" d="M0 0h20v14H0z"/></mask><g mask="url(#fs-br9tolxypa)"><path fill="#de233c" fill-rule="evenodd" d="M10.48 14H20V0h-9.52v14z" clip-rule="evenodd"/><mask id="fs-zu465m9kub" width="5" height="5" x=".9" y=".87" fill="#000" maskUnits="userSpaceOnUse"><path fill="#fff" d="M.9.87h5v5h-5z"/><path fill-rule="evenodd" d="M3.81 1.87h-.95v.93H1.9v.93h.96v.94h.95v-.94h.95V2.8h-.95v-.93z" clip-rule="evenodd"/></mask><path fill="#cccccd" fill-rule="evenodd" d="M3.81 1.87h-.95v.93H1.9v.93h.96v.94h.95v-.94h.95V2.8h-.95v-.93z" clip-rule="evenodd"/><path fill="#7b716a" fill-opacity=".66" d="M2.86 1.87V1.2h-.67v.67h.67zm.95 0h.67V1.2H3.8v.67zm-.95.93v.67h.66V2.8h-.66zm-.96 0v-.67h-.66v.67h.66zm0 .93h-.66v.67h.66v-.67zm.96 0h.66v-.66h-.66v.66zm0 .94h-.67v.66h.67v-.66zm.95 0v.66h.67v-.66H3.8zm0-.94v-.66h-.67v.66h.67zm.95 0v.67h.67v-.67h-.67zm0-.93h.67v-.67h-.67v.67zm-.95 0h-.67v.67h.67V2.8zm-.95-.27h.95V1.2h-.95v1.33zm.66.27v-.93H2.2v.93h1.33zm-1.62.67h.96V2.13H1.9v1.34zm.67.26V2.8H1.24v.93h1.33zm.29-.66H1.9V4.4h.96V3.07zm.66 1.6v-.94H2.2v.94h1.33zM3.81 4h-.95v1.33h.95V4zm-.67-.27v.94h1.34v-.94H3.14zm1.62-.66h-.95V4.4h.95V3.07zM4.1 2.8v.93h1.33V2.8H4.1zm-.29.67h.95V2.13h-.95v1.34zm-.67-1.6v.93h1.34v-.93H3.14z" mask="url(#fs-zu465m9kub)"/><path fill="#7b716a" fill-rule="evenodd" d="M3.33 3.73c.27 0 .48-.2.48-.46-.26 0-.47.2-.47.47 0 .25.21.46.47.46z" clip-rule="evenodd"/></g></svg>