<svg xmlns="http://www.w3.org/2000/svg" width="20" height="14" fill="none" viewBox="0 0 20 14"><path fill="#fff" d="M0 0h20v14H0z"/><mask id="fs-o2t8pnznva" style="mask-type:alpha" width="20" height="14" x="0" y="0" maskUnits="userSpaceOnUse"><path fill="#fff" d="M0 0h20v14H0z"/></mask><g mask="url(#fs-o2t8pnznva)"><path fill="#e3283e" d="M13.33 0H20v14h-6.67z"/><path fill="#128a60" fill-rule="evenodd" d="M0 14h6.67V0H0v14z" clip-rule="evenodd"/><path fill="#8c9157" d="M8.76 6.53h1.33zm-.04 2.2l-.65 1.16zm1.95-1.19l-.7-1.13zm1.9-1h1.33zm-5.14 0c0 .94.52 1.75 1.29 2.19l.65-1.16H7.42zm3.95 2.13h-1.34c0 .42-.22.8-.57 1.01l.7 1.13z"/><path fill="#c59262" fill-rule="evenodd" d="M10 7.47c.53 0 .95-.63.95-1.4 0-.78-.42-1.4-.95-1.4s-.95.62-.95 1.4c0 .77.42 1.4.95 1.4z" clip-rule="evenodd"/></g></svg>