<svg xmlns="http://www.w3.org/2000/svg" width="20" height="14" fill="none" viewBox="0 0 20 14"><path fill="#fff" d="M0 0h20v14H0z"/><mask id="fs-lvoxoavsna" style="mask-type:alpha" width="20" height="14" x="0" y="0" maskUnits="userSpaceOnUse"><path fill="#fff" d="M0 0h20v14H0z"/></mask><g mask="url(#fs-lvoxoavsna)"><path fill="#e1244a" fill-rule="evenodd" d="M20 0H9.52v.93H20V0zm0 1.87H9.52v.93H20v-.93zM9.52 3.73H20v.94H9.52v-.94zM20 5.6H9.52v.93H20V5.6zM0 7.47h20v.93H0v-.93zm20 1.86H0v.94h20v-.94zM0 11.2h20v.93H0v-.93zm20 1.87H0V14h20v-.93z" clip-rule="evenodd"/><path fill="#0c3f8e" d="M0 0h11.43v7.47H0z"/><path fill="#ffd34f" fill-rule="evenodd" d="M4.76 6.53c.68 0 1.3-.23 1.79-.61-.26.1-.54.15-.84.15.3 0 .58.05.84.15 0 1.55 1.28 2.8 2.86 2.8zM6.8 5.42l.83-.92.83.92-.22-1.21 1.25-.06-1.1-.59.73-1-1.15.48-.34-1.17-.34 1.17-1.15-.47.73 1-1.1.58 1.25.06-.22 1.2z" clip-rule="evenodd"/></g></svg>