<svg xmlns="http://www.w3.org/2000/svg" width="20" height="14" fill="none" viewBox="0 0 20 14"><path fill="#fff" d="M0 0h20v14H0z"/><mask id="fs-c7o96dg1ra" style="mask-type:alpha" width="20" height="14" x="0" y="0" maskUnits="userSpaceOnUse"><path fill="#fff" d="M0 0h20v14H0z"/></mask><g fill-rule="evenodd" clip-rule="evenodd" mask="url(#fs-c7o96dg1ra)"><path fill="#ffe547" d="M0 14h20v-3.73H0V14z"/><path fill="#118c81" d="M0 3.73h20V0H0v3.73z"/><path fill="#fff" d="M0 10.27h20V3.73H0v6.54z"/><path fill="#262626" d="M0 9.33h20V4.67H0v4.66z"/><path fill="#ef2147" d="M0 0l9.52 7L0 14V0z"/><path fill="#fde444" d="M3.33 7.9l-1.4.99.54-1.61-1.4-1H2.8l.53-1.61.54 1.6H5.6l-1.4 1 .53 1.62-1.4-1z"/></g></svg>