<svg xmlns="http://www.w3.org/2000/svg" width="20" height="14" fill="none" viewBox="0 0 20 14"><path fill="#fff" d="M0 0h20v14H0z"/><mask id="fs-ixnd6vijda" style="mask-type:alpha" width="20" height="14" x="0" y="0" maskUnits="userSpaceOnUse"><path fill="#fff" d="M0 0h20v14H0z"/></mask><g fill-rule="evenodd" clip-rule="evenodd" mask="url(#fs-ixnd6vijda)"><path fill="#0c4799" d="M0 9.33L20 0H0v9.33z"/><path fill="#ffd243" d="M3.33 4.2L2.6 5l.06-1.07-1.09.05.81-.71-.8-.72 1.08.06-.06-1.07.73.8.73-.8-.05 1.07 1.08-.06-.8.72.8.71-1.08-.05.05 1.06-.73-.79z"/><path fill="#1bac55" d="M0 14h20V4.67L0 14z"/><path fill="#fff" d="M2.2 15.87L21.55 4.02 17.8-1.87-1.55 9.98l3.75 5.89z"/><path fill="#e52347" d="M-.45 16.15L22.97 1.81l-2.52-3.96-23.42 14.34 2.52 3.96z"/></g></svg>