<svg xmlns="http://www.w3.org/2000/svg" width="20" height="14" fill="none" viewBox="0 0 20 14"><path fill="#009543" d="M0 0h20v14H0V0z"/><path fill="#ED4135" d="M0 0h20v9.33H0V0z"/><path fill="#0035AD" d="M0 0h20v4.67H0V0z"/><path fill="#FAE600" d="M7.45 11.47a4.47 4.47 0 100-8.94 4.47 4.47 0 000 8.94z"/><path fill="#000" d="M7.45 11.55a4.55 4.55 0 110-9.1 4.55 4.55 0 010 9.1zm0-8.94a4.39 4.39 0 10.02 8.78 4.39 4.39 0 00-.02-8.78zm-.76 5.06h1.52-1.52zm0-1.12h1.52-1.52zm.76-4v7.64-7.64z"/><path fill="#000" d="M7.54 10.18h-.18V7.76h-.67v-.18h.67v-.94h-.67v-.19h.67V2.54h.18v3.91h.67v.19h-.67v.94h.67v.18h-.67v2.42z"/><path fill="#000" d="M5.65 11.1c1.14.44 2.4.46 3.54.05 0 0-.65-.7-1-1a1.71 1.71 0 00-1.6 0c-.27.21-1 1-1 .92l.06.03zm1.8-1.31c.28 0 .5-.33.5-.73 0-.4-.22-.73-.5-.73s-.5.33-.5.73c0 .4.22.73.5.73zm0-2.3c.34 0 .61-.17.61-.38s-.27-.38-.61-.38c-.34 0-.61.17-.61.38s.27.38.61.38zm0-1.55a.61.61 0 100-1.22.61.61 0 000 1.22zm.73-2.87s.05.09-.06.29A2 2 0 017 4.41c-.11.09-.16.09-.16.09v-.45c.08-.44.75-.44 1.27-.89.09-.07.08-.09.08-.09h-.01z"/><path fill="#000" d="M6.41 5.12c.07.22.11.45.13.68 0 .55.55.56.91.56v-.3a.67.67 0 01-.7-.44 3 3 0 00-.34-.5zm0 4.4c.17-.25.31-.51.42-.79a.71.71 0 01.64-.46v-.42c-.57 0-.85.21-.88.53-.04.38-.1.76-.2 1.14h.02z"/><path fill="#000" d="M8.5 5.12c-.07.22-.12.45-.14.68 0 .55-.55.56-.91.56v-.3a.67.67 0 00.7-.44c.1-.18.22-.34.35-.5zm0 4.4c-.17-.24-.3-.51-.41-.79a.72.72 0 00-.65-.46v-.42c.58 0 .86.21.88.53.04.38.1.76.19 1.14H8.5z"/></svg>