<svg xmlns="http://www.w3.org/2000/svg" width="20" height="14" fill="none" viewBox="0 0 20 14"><path fill="#fff" d="M0 0h20v14H0z"/><path fill="#fff" fill-rule="evenodd" d="M0 1.73C0 .78.78 0 1.73 0c.12 0 .22.03.32.1l7.53 4.92c1.11.72.6 2.45-.73 2.45H5.71l4.89 4.18c.94.81.37 2.35-.87 2.35H2V1.73z" clip-rule="evenodd"/><mask id="fs-ya7a57723a" style="mask-type:alpha" width="12" height="14" x="0" y="0" maskUnits="userSpaceOnUse"><path fill="#fff" fill-rule="evenodd" d="M0 1.73C0 .78.78 0 1.73 0c.12 0 .22.03.32.1l7.53 4.92c1.11.72.6 2.45-.73 2.45H5.71l4.89 4.18c.94.81.37 2.35-.87 2.35H2V1.73z" clip-rule="evenodd"/></mask><g mask="url(#fs-ya7a57723a)"><path fill="#ee1b44" stroke="#0543a8" stroke-linejoin="round" stroke-width="1.33" d="M9.73 13.33H.67V.67H1.7l7.5 4.9H5.71l4.88 4.2z"/><path fill="#fff" fill-rule="evenodd" d="M4.9 5.46c.27-.07.52-.17.74-.3.23.13.48.23.75.3l.38-.33-.61-.53.81.04-.04-.8.55.6.55-.6-.05.8.82-.04-.6.53.36.33zM3.07 12l.73-.79.73.8-.06-1.07 1.09.05-.8-.71.8-.72-1.09.06.06-1.07-.73.8-.73-.8.06 1.07-1.09-.06.8.72-.8.71 1.09-.05L3.07 12z" clip-rule="evenodd"/></g></svg>