<svg xmlns="http://www.w3.org/2000/svg" width="20" height="14" fill="none" viewBox="0 0 20 14"><path fill="#012169" d="M20 0H0v10h20V0z"/><path fill="#FEDD00" d="M10 0h10v14H0V5h10V0z"/><path fill="#012169" d="M10 0H0v5h10V0z"/><path fill="#fff" d="M10 0v.56L7.77 1.67l-1.66.83 1.66.83L10 4.44V5H8.87L5.83 3.48l-.33-.17-.5-.25-.5.25-.34.17L1.12 5H0v-.56L3.88 2.5 0 .56V0h1.12l3.04 1.52.34.17.12.06.3.15.08.04.08-.04.3-.15.12-.06.33-.17L8.87 0H10z"/><path fill="#C8102E" d="M10 0v.37L5.74 2.5 10 4.63V5h-.75L5.92 3.33l-.42-.21-.5-.25-.5.25-.42.21L.74 5H0v-.37l2.59-1.3.66-.33 1-.5-1-.5-.66-.33L0 .38V0h.74l3.34 1.67.42.21.5.25.5-.25.42-.21L9.25 0H10z"/><path fill="#fff" d="M10 1.67v1.66H5.83V5H4.16V3.33H0V1.67h4.16V0h1.67v1.67H10z"/><path fill="#C8102E" d="M10 2v1H5.5v2h-1V3H0V2h4.5V0h1v2H10z"/><path fill="#012169" d="M5 3.35a.85.85 0 100-1.7.85.85 0 000 1.7z"/><path fill="#FEDD00" d="M5 1.65l.5 1.54-1.31-.95H5.8l-1.3.95.5-1.54zm-2.92.4l.29.9-.77-.56h.95L1.78 3l.3-.95zm5.83 0l.3.9-.77-.56h1L7.62 3l.29-.95zM5 3.71l.29.91-.77-.56h1l-.77.56.25-.91zM5 .38l.29.91-.77-.56h1l-.77.56L5 .38z"/></svg>