<svg xmlns="http://www.w3.org/2000/svg" width="20" height="14" fill="none" viewBox="0 0 20 14"><path fill="#fff" d="M0 0h20v14H0z"/><mask id="fs-n29o6g2a0a" style="mask-type:alpha" width="20" height="14" x="0" y="0" maskUnits="userSpaceOnUse"><path fill="#fff" d="M0 0h20v14H0z"/></mask><g mask="url(#fs-n29o6g2a0a)"><path fill="#0a17a7" d="M0 0h20v14H0z"/><path fill="#ff2e3b" stroke="#fff" stroke-width=".67" d="M0-.33h-.92l.7.59L3 2.96v.6L-.2 5.79l-.13.1v1.24l.5-.31L3.9 4.53h.76l3.2 2.25-2.29-3.2v-.6L8.62.83V-.6l-.5.32L4.67 2H3.9L.67-.27.58-.33H0z"/><path fill="#fff" fill-rule="evenodd" d="M0 2.33V4.2h3.33v2.13c0 .37.3.67.67.67h.57c.37 0 .67-.3.67-.67V4.2h3.14c.37 0 .67-.3.67-.67V3c0-.37-.3-.67-.67-.67H5.24V0h-1.9v2.33H0z" clip-rule="evenodd"/><path fill="#ff2e3b" fill-rule="evenodd" d="M0 2.8h3.81V0h.95v2.8h3.81v.93h-3.8v2.8H3.8v-2.8H0V2.8z" clip-rule="evenodd"/><path fill="#ca1931" fill-rule="evenodd" d="M14.29 12.13l-.68.2.2-.66-.2-.66.68.19.67-.2-.2.67.2.66-.67-.2zm0-8.86l-.68.19.2-.66-.2-.66.68.2.67-.2-.2.66.2.66-.67-.2zm2.85 2.8l-.67.19.2-.66-.2-.66.67.2.68-.2-.2.66.2.66-.68-.2zM11.43 7l-.67.2.2-.67-.2-.66.67.2.67-.2-.2.66.2.66-.67-.19z" clip-rule="evenodd"/></g></svg>