<svg xmlns="http://www.w3.org/2000/svg" width="20" height="14" fill="none" viewBox="0 0 20 14"><path fill="#fff" d="M0 0h20v14H0z"/><mask id="fs-l0vcdf5t2a" style="mask-type:alpha" width="20" height="14" x="0" y="0" maskUnits="userSpaceOnUse"><path fill="#fff" d="M0 0h20v14H0z"/></mask><g fill-rule="evenodd" clip-rule="evenodd" mask="url(#fs-l0vcdf5t2a)"><path fill="#138e16" d="M0 14h20V9.33H0V14z"/><path fill="#ed2b35" d="M0 14h6.67V9.33H20V4.67H6.67V0H0v14z"/><path fill="#fff" d="M3.33 3.3l-.82 1.18.43-1.37-1.46.1 1.36-.52-1-1.05 1.27.71.22-1.42.22 1.42 1.27-.71-1 1.05 1.37.53-1.46-.1.43 1.36-.83-1.18z"/></g></svg>