<svg xmlns="http://www.w3.org/2000/svg" width="20" height="14" fill="none" viewBox="0 0 20 14"><path fill="#fff" d="M0 0h20v14H0z"/><mask id="fs-p3k8xlxu6a" style="mask-type:alpha" width="20" height="14" x="0" y="0" maskUnits="userSpaceOnUse"><path fill="#fff" d="M0 0h20v14H0z"/></mask><g fill-rule="evenodd" clip-rule="evenodd" mask="url(#fs-p3k8xlxu6a)"><path fill="#e52448" d="M20 6.53H9.52V0H20v6.53z"/><path fill="#1367ae" d="M9.52 14H0V6.53h9.52V14zM4.76 4.03l-1.12.75.38-1.28-1.07-.81 1.35-.04.46-1.25.46 1.25 1.35.04-1.07.81.38 1.28-1.12-.75z"/><path fill="#e52448" d="M14.76 11.03l-1.12.75.38-1.28-1.07-.81 1.35-.04.46-1.25.46 1.25 1.35.04-1.07.81.38 1.28-1.12-.75z"/></g></svg>