<svg xmlns="http://www.w3.org/2000/svg" width="20" height="14" fill="none" viewBox="0 0 20 14"><path fill="#fff" d="M0 0h20v14H0z"/><mask id="fs-wrvwgyj79a" style="mask-type:alpha" width="20" height="14" x="0" y="0" maskUnits="userSpaceOnUse"><path fill="#fff" d="M0 0h20v14H0z"/></mask><g mask="url(#fs-wrvwgyj79a)"><path fill="#262626" d="M0 0h20v14H0z"/><path fill="#e8283f" fill-rule="evenodd" d="M0 0h20v14L0 0z" clip-rule="evenodd"/><path fill="#fff" fill-rule="evenodd" d="M4.76 11.67l-.67.19.2-.66-.2-.66.67.2.68-.2-.2.66.2.66-.68-.2zm0-5.6l-.67.19.2-.66-.2-.66.67.2.68-.2-.2.66.2.66-.68-.2zM2.38 8.4l-.67.2.2-.67-.2-.66.67.2.67-.2-.2.66.2.66-.67-.19zm4.29-.47l-.68.2.2-.66-.2-.66.68.19.67-.2-.2.67.2.66-.67-.2z" clip-rule="evenodd"/><path fill="#ffd84e" fill-rule="evenodd" d="M13.47 6.49v-.86c0-.12-.1-.2-.24-.15l-.54.18-.54-.18c-.13-.04-.14-.13-.03-.2l1.27-.74-.18-.54c-.04-.12.02-.2.16-.15l.54.18c.13.04.29-.01.36-.13l.76-1.24c.07-.11.15-.11.2.02l.18.54-.18.54c-.04.12.03.22.16.22h.88c.12 0 .28.1.35.2l.77 1.25c.06.11 0 .23-.11.25l-1.22.24L15 7.13c-.03.12-.14.17-.26.1l-1.27-.74z" clip-rule="evenodd"/></g></svg>