<svg xmlns="http://www.w3.org/2000/svg" width="20" height="14" fill="none" viewBox="0 0 20 14"><path fill="#fff" d="M0 0h20v14H0z"/><mask id="fs-035sgni5ua" style="mask-type:alpha" width="20" height="14" x="0" y="0" maskUnits="userSpaceOnUse"><path fill="#fff" d="M0 0h20v14H0z"/></mask><g fill-rule="evenodd" clip-rule="evenodd" mask="url(#fs-035sgni5ua)"><path fill="#dd1c34" d="M0 14h20V6.53H8.89l.63.47L0 14z"/><path fill="#0d4bc3" d="M20 6.53H8.89L0 0h20v6.53z"/><path fill="#fdd64d" d="M1.43 2.8c.26 0 .47-.2.47-.47-.26 0-.48.2-.48.46s.22.47.48.47zm5.71 4.67c.27 0 .48-.21.48-.47a.47.47 0 100 .94zm-5.24 4.2c0 .25-.2.46-.47.46 0-.26.22-.47.48-.47s.47.2.47.47zm1.34-3.74l-.82 1.23.31-1.44-1.47.3 1.26-.8-1.26-.8 1.47.3c.04-.05.08-.1.13-.13l-.3-1.44.8 1.23.81-1.23-.3 1.44c.05.04.1.08.13.13l1.46-.3-1.25.8 1.25.8L4 7.72l.3 1.44-.81-1.23z"/></g></svg>