<svg xmlns="http://www.w3.org/2000/svg" width="20" height="14" fill="none" viewBox="0 0 20 14"><path fill="#fff" d="M0 0h20v14H0z"/><mask id="fs-4u4jco4cga" style="mask-type:alpha" width="20" height="14" x="0" y="0" maskUnits="userSpaceOnUse"><path fill="#fff" d="M0 0h20v14H0z"/></mask><g fill-rule="evenodd" clip-rule="evenodd" mask="url(#fs-4u4jco4cga)"><path fill="#0a632f" d="M20 0H5.71v14H20V0z"/><path fill="#fff" d="M16.9 7.53c-.08.87-.47 1.71-1.14 2.37-.29.16-.55.36-.8.6-1.45 1.43-1.53 3.68-.16 5.02 1.37 1.34 3.67 1.27 5.12-.16.25-.24.45-.5.62-.77zm-1.83-1.86L14.84 7l-.64-1.2-1.36.2.97-.96-.62-1.2 1.23.6.99-.94-.2 1.33 1.21.62-1.35.22z"/></g></svg>