<svg xmlns="http://www.w3.org/2000/svg" width="20" height="14" fill="none" viewBox="0 0 20 14"><path fill="#fff" d="M0 0h20v14H0z"/><mask id="fs-jh0oz7bp6a" style="mask-type:alpha" width="20" height="14" x="0" y="0" maskUnits="userSpaceOnUse"><path fill="#fff" d="M0 0h20v14H0z"/></mask><g mask="url(#fs-jh0oz7bp6a)"><path fill="#fa2222" fill-rule="evenodd" d="M0 0h20v2.8H0V0zm0 5.6h20v2.8H0V5.6zm0 5.6V14h20v-2.8H0z" clip-rule="evenodd"/><path fill="#1d63f9" fill-rule="evenodd" d="M0 0l9.52 7L0 14V0z" clip-rule="evenodd"/><g filter="url(#filter0_d_10_1534)"><path fill="url(#paint0_linear_10_1534)" fill-rule="evenodd" d="M3.33 7.9l-1.4.99.54-1.61-1.4-1H2.8l.53-1.61.54 1.6H5.6l-1.4 1 .53 1.62-1.4-1z" clip-rule="evenodd"/></g></g><defs><linearGradient id="paint0_linear_10_1534" x1=".95" x2=".95" y1="4.67" y2="9.33" gradientUnits="userSpaceOnUse"><stop stop-color="#fff"/><stop offset="1" stop-color="#f0f0f0"/></linearGradient><filter id="filter0_d_10_1534" width="4.53" height="5.22" x="1.07" y="4.67" color-interpolation-filters="sRGB" filterUnits="userSpaceOnUse"><feFlood flood-opacity="0" result="BackgroundImageFix"/><feColorMatrix in="SourceAlpha" result="hardAlpha" values="0 0 0 0 0 0 0 0 0 0 0 0 0 0 0 0 0 0 127 0"/><feOffset dy="1"/><feColorMatrix values="0 0 0 0 0 0 0 0 0 0 0 0 0 0 0 0 0 0 0.06 0"/><feBlend in2="BackgroundImageFix" result="effect1_dropShadow_10_1534"/><feBlend in="SourceGraphic" in2="effect1_dropShadow_10_1534" result="shape"/></filter></defs></svg>