<svg xmlns="http://www.w3.org/2000/svg" width="20" height="14" fill="none" viewBox="0 0 20 14"><path fill="#fff" d="M0 0h20v14H0z"/><mask id="fs-wnzpaetdia" style="mask-type:alpha" width="20" height="14" x="0" y="0" maskUnits="userSpaceOnUse"><path fill="#fff" d="M0 0h20v14H0z"/></mask><g mask="url(#fs-wnzpaetdia)"><path fill="#ff2936" d="M0 0h20v14H0z"/><path fill="#128415" fill-rule="evenodd" d="M0 14h7.62V0H0v14z" clip-rule="evenodd"/><path stroke="#faf94f" stroke-width="1.33" d="M7.62 9.53c1.4 0 2.57-1.12 2.57-2.53z"/><path fill="#fff" fill-rule="evenodd" d="M6.67 5.93c0-.18.15-.33.33-.33h1.24c.18 0 .33.15.33.33v1.52-1.52z" clip-rule="evenodd"/><path fill="#1d50b5" fill-rule="evenodd" d="M7.62 7.47c.26 0 .48-.68.48-.94-.26 0-.48.2-.48.46s.22.94.48.94z" clip-rule="evenodd"/></g></svg>