<svg xmlns="http://www.w3.org/2000/svg" width="20" height="14" fill="none" viewBox="0 0 20 14"><path fill="#fff" d="M0 0h20v14H0z"/><mask id="fs-3aik3jxx8a" style="mask-type:alpha" width="20" height="14" x="0" y="0" maskUnits="userSpaceOnUse"><path fill="#fff" d="M0 0h20v14H0z"/></mask><g mask="url(#fs-3aik3jxx8a)"><path fill="#e33f39" fill-rule="evenodd" d="M0 4.67h20V0H0v4.67z" clip-rule="evenodd"/><path fill="#124bba" fill-rule="evenodd" d="M0 14h20V9.33H0V14z" clip-rule="evenodd"/><path stroke="#398153" stroke-width=".67" d="M10 8.73c.97 0 1.76-.77 1.76-1.73s-.8-1.73-1.76-1.73c-.97 0-1.76.77-1.76 1.73s.8 1.73 1.76 1.73z"/><path fill="#e5cf58" fill-rule="evenodd" d="M10 7.47c.26 0 .48-.21.48-.47-.26 0-.48.21-.48.47s.22.47.48.47z" clip-rule="evenodd"/></g></svg>