<svg xmlns="http://www.w3.org/2000/svg" width="20" height="14" fill="none" viewBox="0 0 20 14"><path fill="#fff" d="M0 0h20v14H0z"/><mask id="fs-faqyg6qhya" style="mask-type:alpha" width="20" height="14" x="0" y="0" maskUnits="userSpaceOnUse"><path fill="#fff" d="M0 0h20v14H0z"/></mask><g mask="url(#fs-faqyg6qhya)"><path fill="#17508f" fill-rule="evenodd" d="M0 9.33h20V4.67H0v4.66z" clip-rule="evenodd"/><path fill="#e1444d" fill-rule="evenodd" d="M0 4.67h20V0H0v4.67z" clip-rule="evenodd"/><path fill="#fff" fill-rule="evenodd" d="M4.29 7c0-.41.2-1.3.34-1.84H7.1c.3 0 .57.2.64.5.14.54.35 1.42.35 1.84 0 .5-.34 1.8-.45 2.2-.21.24-.78.84-1.35.84-.57 0-1.14-.6-1.35-.84-.11-.4-.44-1.7-.44-2.21z" clip-rule="evenodd"/><mask id="fs-iwtwgdrqxb" style="mask-type:alpha" width="5" height="7" x="4" y="4" maskUnits="userSpaceOnUse"><path fill="#fff" fill-rule="evenodd" d="M4.29 7c0-.41.2-1.3.34-1.84H7.1c.3 0 .57.2.64.5.14.54.35 1.42.35 1.84 0 .5-.34 1.8-.45 2.2-.21.24-.78.84-1.35.84-.57 0-1.14-.6-1.35-.84-.11-.4-.44-1.7-.44-2.21z" clip-rule="evenodd"/></mask><g stroke="#e1444d" stroke-linecap="square" stroke-width="1.33" mask="url(#fs-iwtwgdrqxb)"><path d="M8.1 5.13L4.29 9.8m0-4.67l3.8 4.67"/></g></g></svg>