<svg xmlns="http://www.w3.org/2000/svg" width="20" height="14" fill="none" viewBox="0 0 20 14"><path fill="#fff" d="M0 0h20v14H0z"/><mask id="fs-diu9xr4zaa" style="mask-type:alpha" width="20" height="14" x="0" y="0" maskUnits="userSpaceOnUse"><path fill="#fff" d="M0 0h20v14H0z"/></mask><g mask="url(#fs-diu9xr4zaa)"><g filter="url(#filter0_d_10_1663)"><path fill="#2d754d" fill-rule="evenodd" d="M0 14h20v-3.73H0V14z" clip-rule="evenodd"/></g><path fill="#25b1eb" fill-rule="evenodd" d="M0 6.53h20V0H0v6.53z" clip-rule="evenodd"/><path fill="#fecb2f" fill-rule="evenodd" d="M0 10.27h20V6.53H0v3.74zM15.24 4.2l-.73.8.05-1.07-1.08.05.8-.71-.8-.72 1.08.06-.05-1.07.73.8.73-.8-.06 1.07L17 2.55l-.8.72.8.71-1.09-.05.06 1.06-.73-.79z" clip-rule="evenodd"/></g><defs><filter id="filter0_d_10_1663" width="20" height="3.73" x="0" y="10.27" color-interpolation-filters="sRGB" filterUnits="userSpaceOnUse"><feFlood flood-opacity="0" result="BackgroundImageFix"/><feColorMatrix in="SourceAlpha" result="hardAlpha" values="0 0 0 0 0 0 0 0 0 0 0 0 0 0 0 0 0 0 127 0"/><feOffset/><feColorMatrix values="0 0 0 0 0 0 0 0 0 0 0 0 0 0 0 0 0 0 0.06 0"/><feBlend in2="BackgroundImageFix" result="effect1_dropShadow_10_1663"/><feBlend in="SourceGraphic" in2="effect1_dropShadow_10_1663" result="shape"/></filter></defs></svg>