<svg xmlns="http://www.w3.org/2000/svg" width="20" height="14" fill="none" viewBox="0 0 20 14"><path fill="#fff" d="M0 0h20v14H0z"/><mask id="fs-ea9qfcu6ja" style="mask-type:alpha" width="20" height="14" x="0" y="0" maskUnits="userSpaceOnUse"><path fill="#fff" d="M0 0h20v14H0z"/></mask><g mask="url(#fs-ea9qfcu6ja)"><path fill="#128c4b" d="M0 0h20v14H0z"/><path fill="#fff" fill-rule="evenodd" d="M4.76 8.4h7.62v-.34c0-.49.51-.8.95-.6v.94h1.29c.34 0 .62.28.62.62 0 .69-.56 1.25-1.25 1.25h-.94V10h-6.4l-.76-.74zm0-2.66c0-.09.04-.18.1-.24L5 5.37l-.14-.14v-.46c0-.19.15-.34.34-.34h.43c.1 0 .18.08.18.18 0 .2.26.26.35.09l.07-.15h1.06c.12 0 .23.1.23.24 0 .13-.1.23-.23.23H6.9c-.13 0-.23.1-.23.23s.1.24.23.24h.39c.18 0 .33.15.33.33v1.2c0 .18-.15.33-.33.33H7v-.36c0-.13.1-.24.24-.24.13 0 .23-.1.23-.23s-.1-.24-.23-.24h-.39v.83c0 .13-.1.23-.24.23v-.46c0-.13-.1-.24-.23-.24-.14 0-.24.1-.24.24v.46c0 .13-.1.23-.24.23v-.56zm7.62 0c0-.09.04-.18.1-.24l.13-.13-.13-.14v-.46c0-.19.15-.34.33-.34h.44c.1 0 .18.08.18.18 0 .2.26.26.35.09l.07-.15H15c.13 0 .24.1.24.24 0 .13-.1.23-.24.23h-.48c-.13 0-.23.1-.23.23s.1.24.23.24h.38c.19 0 .34.15.34.33v1.2c0 .18-.15.33-.34.33h-.28v-.36c0-.13.1-.24.24-.24.13 0 .23-.1.23-.23s-.1-.24-.23-.24h-.39v.83c0 .13-.1.23-.24.23v-.46c0-.13-.1-.24-.23-.24-.14 0-.24.1-.24.24v.46c0 .13-.1.23-.24.23v-.56zm-.95-1.31c0 .13-.08.31-.17.4l-.14.13c-.1.1-.1.25 0 .34l.14.13c.1.1.17.27.17.4v.47c0 .13-.1.23-.24.23h-.47v-.46c0-.13-.05-.15-.11-.02l-.26.5H9.4c0-.13.1-.23.24-.23h.47c.14 0 .24-.11.24-.24s-.1-.23-.24-.23h-.47v-1.4c0-.13.1-.24.24-.24h.47c.14 0 .24.1.24.24v.46c0 .13-.1.24-.23.24-.14 0-.24.1-.24.23s.1.23.24.23h.47c.13 0 .24-.1.24-.23v-.94c0-.12.11-.23.24-.23s.24.1.24.24v.46c0 .13.1.24.23.24.14 0 .24-.1.24-.24v-.46c0-.13.11-.24.24-.24s.24.1.24.24v.46z" clip-rule="evenodd"/></g></svg>