<svg xmlns="http://www.w3.org/2000/svg" width="20" height="14" fill="none" viewBox="0 0 20 14"><path fill="#fff" d="M0 0h20v14H0z"/><mask id="fs-gs7lvrvnga" style="mask-type:alpha" width="20" height="14" x="0" y="0" maskUnits="userSpaceOnUse"><path fill="#fff" d="M0 0h20v14H0z"/></mask><g mask="url(#fs-gs7lvrvnga)"><path fill="url(#paint0_linear_10_1687)" d="M0 0h20v14H0z"/><g filter="url(#filter0_d_10_1687)"><path fill="url(#paint1_linear_10_1687)" fill-rule="evenodd" d="M0 0h20L0 14V0z" clip-rule="evenodd"/></g><path fill="#2c7442" fill-rule="evenodd" d="M20 0L0 14h20V0z" clip-rule="evenodd"/><path fill="#ffd646" d="M-1.98 13.8L17.88.65 27.4 14.5 7.54 27.62z"/><path fill="#fff" fill-rule="evenodd" d="M1.44 3.04l.14-.76L1 1.74l.78-.11.35-.7.35.7.79.1-.57.55.13.76-.7-.36-.7.36zm4.77 0l.13-.76-.57-.54.78-.11.35-.7.35.7.79.1-.57.55.13.76-.7-.36-.7.36zm.13 2.04l-.13.76.7-.36.7.36-.14-.76.57-.54-.79-.11-.35-.7-.35.7-.78.1.57.55zm-4.2.4l-.7.36.14-.76L1 4.54l.78-.11.35-.7.35.7.79.1-.57.55.13.76-.7-.36zm1.68-1.04l.7-.36.7.36-.13-.76.57-.54-.79-.11-.35-.7-.35.7-.78.1.57.55-.14.76z" clip-rule="evenodd"/></g><defs><linearGradient id="paint0_linear_10_1687" x1="0" x2="0" y1="0" y2="14" gradientUnits="userSpaceOnUse"><stop stop-color="#1dbe4f"/><stop offset="1" stop-color="#159b3f"/></linearGradient><linearGradient id="paint1_linear_10_1687" x1="0" x2="0" y1="0" y2="14" gradientUnits="userSpaceOnUse"><stop stop-color="#0660d4"/><stop offset="1" stop-color="#0051bb"/></linearGradient><filter id="filter0_d_10_1687" width="20" height="14" x="0" y="0" color-interpolation-filters="sRGB" filterUnits="userSpaceOnUse"><feFlood flood-opacity="0" result="BackgroundImageFix"/><feColorMatrix in="SourceAlpha" result="hardAlpha" values="0 0 0 0 0 0 0 0 0 0 0 0 0 0 0 0 0 0 127 0"/><feOffset/><feColorMatrix values="0 0 0 0 0 0 0 0 0 0 0 0 0 0 0 0 0 0 0.06 0"/><feBlend in2="BackgroundImageFix" result="effect1_dropShadow_10_1687"/><feBlend in="SourceGraphic" in2="effect1_dropShadow_10_1687" result="shape"/></filter></defs></svg>