<svg xmlns="http://www.w3.org/2000/svg" width="20" height="14" fill="none" viewBox="0 0 20 14"><path fill="#fff" d="M0 0h20v14H0z"/><mask id="fs-i3sz161d8a" style="mask-type:alpha" width="20" height="14" x="0" y="0" maskUnits="userSpaceOnUse"><path fill="#fff" d="M0 0h20v14H0z"/></mask><g fill-rule="evenodd" clip-rule="evenodd" mask="url(#fs-i3sz161d8a)"><path fill="#e12237" d="M0 7.47h20V0H0v7.47z"/><path fill="#fff" d="M4.76 6.53c.68 0 1.3-.23 1.79-.61-.26.1-.54.15-.84.15.3 0 .58.05.84.15 0 1.55 1.28 2.8 2.86 2.8zm.95-3.26c0 .25-.2.46-.47.46 0-.26.22-.47.48-.47s.47.2.47.47zM6.2 5.6c.26 0 .48-.2.48-.47-.26 0-.48.2-.48.46s.22.47.48.47zm2.38-.47c0 .26-.21.47-.47.47 0-.25.21-.46.48-.46.26 0 .47.2.47.46zm.48-1.4c.26 0 .47-.2.47-.46-.27 0-.48.2-.48.47 0 .25.21.46.48.46zM7.62 1.87c0 .25-.21.46-.48.46 0-.26.21-.47.47-.47.27 0 .48.2.48.47z"/></g></svg>