<svg xmlns="http://www.w3.org/2000/svg" width="20" height="14" fill="none" viewBox="0 0 20 14"><path fill="#fff" d="M0 0h20v14H0z"/><mask id="fs-vcg3eeuq3a" style="mask-type:alpha" width="20" height="14" x="0" y="0" maskUnits="userSpaceOnUse"><path fill="#fff" d="M0 0h20v14H0z"/></mask><g mask="url(#fs-vcg3eeuq3a)"><path fill="#0c47b7" fill-rule="evenodd" d="M0 9.33h20V4.67H6.6v-.94s-.67-.46-1.36-.46c-.7 0-1.43.46-1.43.46v.94H0v4.66zM6.19 5.6c0 .52-.43.93-.95.93 0-.52.42-.93.95-.93.52 0 .95.41.95.93z" clip-rule="evenodd"/><g filter="url(#filter0_d_10_1735)"><path fill="#e53b35" fill-rule="evenodd" d="M0 14h20V9.33H0V14z" clip-rule="evenodd"/></g></g><defs><filter id="filter0_d_10_1735" width="20" height="4.67" x="0" y="9.33" color-interpolation-filters="sRGB" filterUnits="userSpaceOnUse"><feFlood flood-opacity="0" result="BackgroundImageFix"/><feColorMatrix in="SourceAlpha" result="hardAlpha" values="0 0 0 0 0 0 0 0 0 0 0 0 0 0 0 0 0 0 127 0"/><feOffset/><feColorMatrix values="0 0 0 0 0 0 0 0 0 0 0 0 0 0 0 0 0 0 0.06 0"/><feBlend in2="BackgroundImageFix" result="effect1_dropShadow_10_1735"/><feBlend in="SourceGraphic" in2="effect1_dropShadow_10_1735" result="shape"/></filter></defs></svg>