<svg xmlns="http://www.w3.org/2000/svg" width="20" height="14" fill="none" viewBox="0 0 20 14"><path fill="#fff" d="M0 0h20v14H0z"/><mask id="fs-o4405g2uqa" style="mask-type:alpha" width="20" height="14" x="0" y="0" maskUnits="userSpaceOnUse"><path fill="#fff" d="M0 0h20v14H0z"/></mask><g mask="url(#fs-o4405g2uqa)"><path fill="#0c47b7" fill-rule="evenodd" d="M0 9.33h20V4.67H0v4.66z" clip-rule="evenodd"/><path fill="#e53b35" fill-rule="evenodd" d="M0 14h20V9.33H0V14z" clip-rule="evenodd"/><path fill="#f73744" stroke="#fff" stroke-width="1.33" d="M8.96 2.13H5.33L3.17 8.2l1.55 1.3c.99.84 2.44.84 3.43 0l1.54-1.3-.17-4.14z"/><mask id="fs-x9lhptgmib" style="mask-type:alpha" width="10" height="12" x="2" y="1" maskUnits="userSpaceOnUse"><path fill="#fff" stroke="#fff" stroke-width="1.33" d="M8.96 2.13H5.33L3.17 8.2l1.55 1.3c.99.84 2.44.84 3.43 0l1.54-1.3-.17-4.14z"/></mask><g fill-rule="evenodd" clip-rule="evenodd" mask="url(#fs-x9lhptgmib)"><path fill="#fff" d="M6.67 7.8h-.76v-.26c0-.19.15-.34.33-.34H7c.19 0 .34-.15.34-.33V6.6h-.28V5c0-.18.15-.33.34-.33h.28c.19 0 .34-.15.34-.34v-.26c0-.19.15-.34.33-.34h.29c.18 0 .33.15.33.34v.26c0 .19.15.34.33.34h.29c.18 0 .33.15.33.33v.27c0 .18-.15.33-.33.33H9.3v.27c0 .18.15.33.33.33h.76c.19 0 .34.15.34.34v.26c0 .19-.15.34-.34.34h-.76V9c0 .18-.15.33-.33.33H7V7.8z"/><path fill="#1251a1" d="M8 9.4c-.38 0-.7.21-.86.53-1.15.18-2 .7-2 1.33 0 .78 1.28 1.4 2.86 1.4 1.58 0 2.86-.62 2.86-1.4 0-.62-.84-1.15-2-1.33z"/></g></g></svg>