<svg xmlns="http://www.w3.org/2000/svg" width="20" height="14" fill="none" viewBox="0 0 20 14"><path fill="#fff" d="M0 0h20v14H0z"/><mask id="fs-np3pv1kdra" style="mask-type:alpha" width="20" height="14" x="0" y="0" maskUnits="userSpaceOnUse"><path fill="#fff" d="M0 0h20v14H0z"/></mask><g fill-rule="evenodd" clip-rule="evenodd" mask="url(#fs-np3pv1kdra)"><path fill="#2acb41" d="M0 14h20V9.33H0V14zm0-9.33h20V0H0v4.67z"/><path fill="#fdd043" d="M0 9.33h20V4.67H0v4.66z"/><path fill="#e71e43" d="M0 0l7.62 7L0 14V0z"/><path fill="#262626" d="M10.48 7.77l-1.12.74.37-1.27-1.07-.82 1.36-.04.46-1.25.46 1.25 1.35.04-1.07.82.38 1.27-1.12-.74zm4.76 0l-1.12.74.38-1.27-1.07-.82 1.35-.04.46-1.25.46 1.25 1.35.04-1.07.82.38 1.27-1.12-.74z"/></g></svg>