<svg xmlns="http://www.w3.org/2000/svg" width="20" height="14" fill="none" viewBox="0 0 20 14"><path fill="#fff" d="M0 0h20v14H0z"/><mask id="fs-u7uj4bc5ha" style="mask-type:alpha" width="20" height="14" x="0" y="0" maskUnits="userSpaceOnUse"><path fill="#fff" d="M0 0h20v14H0z"/></mask><g fill-rule="evenodd" clip-rule="evenodd" mask="url(#fs-u7uj4bc5ha)"><path fill="#1b57c4" d="M0 4.67h20V0H0v4.67zM0 14h20V9.33H0V14z"/><path fill="url(#paint0_linear_10_460)" d="M8.86 5.5c-.47.35-.76.89-.76 1.5 0 1.03.85 1.87 1.9 1.87 1.05 0 1.9-.84 1.9-1.87 0-.61-.3-1.15-.76-1.5l-.66 1.97h-.96L8.86 5.5z"/><path fill="#f9c92e" d="M10 5.13l.48 2.34h-.96L10 5.13z"/></g><defs><linearGradient id="paint0_linear_10_460" x1="8.1" x2="8.1" y1="5.51" y2="8.87" gradientUnits="userSpaceOnUse"><stop stop-color="#3c7839"/><stop offset="1" stop-color="#31642e"/></linearGradient></defs></svg>