<svg xmlns="http://www.w3.org/2000/svg" width="20" height="14" fill="none" viewBox="0 0 20 14"><path fill="#fff" d="M0 0h20v14H0z"/><mask id="fs-0wh7c5l7za" style="mask-type:alpha" width="20" height="14" x="0" y="0" maskUnits="userSpaceOnUse"><path fill="#fff" d="M0 0h20v14H0z"/></mask><g fill-rule="evenodd" clip-rule="evenodd" mask="url(#fs-0wh7c5l7za)"><path fill="#262626" d="M0 14h20V9.33H0V14z"/><path fill="#e32139" d="M0 4.67h20V0H0v4.67z"/><path fill="#128a49" d="M6.67 7.77l-1.12.74.37-1.27-1.06-.82 1.35-.04.46-1.25.46 1.25 1.35.04-1.07.82.38 1.27-1.12-.74zm6.66 0l-1.12.74.38-1.27-1.07-.82 1.35-.04.46-1.25.46 1.25 1.35.04-1.06.82.37 1.27-1.12-.74z"/></g></svg>