<svg xmlns="http://www.w3.org/2000/svg" width="20" height="14" fill="none" viewBox="0 0 20 14"><path fill="#fff" d="M0 0h20v14H0z"/><mask id="fs-gjyb4pf9pa" style="mask-type:alpha" width="20" height="14" x="0" y="0" maskUnits="userSpaceOnUse"><path fill="#fff" d="M0 0h20v14H0z"/></mask><g mask="url(#fs-gjyb4pf9pa)"><path fill="#486bca" fill-rule="evenodd" d="M0 2.8h20V0H0v2.8zM0 14h20v-2.8H0V14z" clip-rule="evenodd"/><path fill="#ffdf20" fill-rule="evenodd" d="M0 11.2h20V2.8H0v8.4z" clip-rule="evenodd"/><path fill="#cf1615" fill-rule="evenodd" d="M0 10.27h20V3.73H0v6.54z" clip-rule="evenodd"/><path fill="#fff" fill-rule="evenodd" d="M10 9.33c2.37 0 4.29-2.33 4.29-2.33S12.37 4.67 10 4.67 5.71 7 5.71 7 7.63 9.33 10 9.33z" clip-rule="evenodd"/><mask id="fs-4ui1vflebb" style="mask-type:alpha" width="10" height="6" x="5" y="4" maskUnits="userSpaceOnUse"><path fill="#fff" fill-rule="evenodd" d="M10 9.33c2.37 0 4.29-2.33 4.29-2.33S12.37 4.67 10 4.67 5.71 7 5.71 7 7.63 9.33 10 9.33z" clip-rule="evenodd"/></mask><g fill-rule="evenodd" clip-rule="evenodd" mask="url(#fs-4ui1vflebb)"><path fill="#262626" d="M10.48 4.67H5.7v4.66h3.81l.96-4.66z"/><path fill="#1a1a1a" d="M10.95 7.47c.27 0 .48-.21.48-.47-.26 0-.47.21-.47.47s.2.47.47.47z"/><path fill="#f6f6f6" d="M9.05 7.47c.26 0 .47-.21.47-.47-.27 0-.48.21-.48.47s.21.47.48.47z"/></g></g></svg>