<svg xmlns="http://www.w3.org/2000/svg" width="20" height="14" fill="none" viewBox="0 0 20 14"><path fill="#fff" d="M0 0h20v14H0z"/><mask id="fs-uf7cj96rla" style="mask-type:alpha" width="20" height="14" x="0" y="0" maskUnits="userSpaceOnUse"><path fill="#fff" d="M0 0h20v14H0z"/></mask><g mask="url(#fs-uf7cj96rla)"><path fill="#ffd44d" d="M0 0h20v14H0z"/><path fill="#159a74" fill-rule="evenodd" d="M8.57 0H20v2.8H8.57V0zm0 5.6H20v2.8H8.57V5.6zM20 11.2H0V14h20v-2.8z" clip-rule="evenodd"/><path fill="#ed1f45" d="M0 0h8.57v8.4H0z"/><path fill="#fff" fill-rule="evenodd" d="M4.29 5.3L2.6 6.46l.62-1.93-1.66-1.2 2.06-.02.66-1.92.65 1.92L7 3.33l-1.65 1.2.62 1.94-1.68-1.18z" clip-rule="evenodd"/></g></svg>