<svg xmlns="http://www.w3.org/2000/svg" width="20" height="14" fill="none" viewBox="0 0 20 14"><path fill="#fff" d="M0 0h20v14H0z"/><mask id="fs-fd1zuxpr4a" style="mask-type:alpha" width="20" height="14" x="0" y="0" maskUnits="userSpaceOnUse"><path fill="#fff" d="M0 0h20v14H0z"/></mask><g fill-rule="evenodd" clip-rule="evenodd" mask="url(#fs-fd1zuxpr4a)"><path fill="#d9101c" d="M0 4.67h20V0H0v4.67z"/><path fill="#0f7811" d="M0 14h20V9.33H0V14z"/><path fill="#fad14e" d="M9.52 6.07c0 .25-.2.46-.47.46 0-.26.21-.47.48-.47.26 0 .47.2.47.47zm.96.93h.55-1.99.55c0-.26.22-.47.48-.47s.48.21.48.47zm.95-.93c0 .25-.21.46-.48.46 0-.26.2-.47.47-.47.27 0 .48.2.48.47zm1.43 1.4c.26 0 .47-.21.47-.47-.27 0-.48.21-.48.47s.21.47.48.47zM7.62 7c0 .26-.21.47-.48.47 0-.26.21-.47.47-.47.27 0 .48.21.48.47z"/></g></svg>