<svg xmlns="http://www.w3.org/2000/svg" width="20" height="14" fill="none" viewBox="0 0 20 14"><path fill="#fff" d="M0 0h20v14H0z"/><mask id="fs-nutfuzio4a" style="mask-type:alpha" width="20" height="14" x="0" y="0" maskUnits="userSpaceOnUse"><path fill="#fff" d="M0 0h20v14H0z"/></mask><g mask="url(#fs-nutfuzio4a)"><path fill="#e92434" d="M0 0h20v14H0z"/><path fill="#fff" fill-rule="evenodd" d="M14.29 7c0 2.32-1.92 4.2-4.29 4.2C10 8.88 11.92 7 14.29 7zM8.57 7c.46 0 .9.1 1.3.26zm2.24 1.86l.87-1.04 1.29.47-.74-1.14.86-1.05-1.33.34L11 5.3l-.09 1.35-1.32.36 1.28.5-.06 1.34z" clip-rule="evenodd"/></g></svg>