<svg xmlns="http://www.w3.org/2000/svg" width="20" height="14" fill="none" viewBox="0 0 20 14"><path fill="#fff" d="M0 0h20v14H0z"/><mask id="fs-2tvs35vi5a" style="mask-type:alpha" width="20" height="14" x="0" y="0" maskUnits="userSpaceOnUse"><path fill="#fff" d="M0 0h20v14H0z"/></mask><g fill-rule="evenodd" clip-rule="evenodd" mask="url(#fs-2tvs35vi5a)"><path fill="#e20f1b" d="M20 0h-8.57v7.47H0V14h20V0z"/><path fill="url(#paint0_linear_10_1870)" d="M5.1.93V2.8H3.2V4c0 .19.15.34.33.34H5.1V6.2c0 .18.15.33.34.33h1.23c.19 0 .34-.15.34-.33V4.67h1.57c.18 0 .33-.15.33-.34v-1.2H6.67V1.27H5.1z"/></g><defs><linearGradient id="paint0_linear_10_1870" x1="2.86" x2="2.86" y1=".93" y2="6.53" gradientUnits="userSpaceOnUse"><stop stop-color="#df101b"/><stop offset="1" stop-color="#c00711"/></linearGradient></defs></svg>