<svg xmlns="http://www.w3.org/2000/svg" width="20" height="14" fill="none" viewBox="0 0 20 14"><path fill="#fff" d="M0 0h20v14H0z"/><mask id="fs-1fvlla1faa" style="mask-type:alpha" width="20" height="14" x="0" y="0" maskUnits="userSpaceOnUse"><path fill="#fff" d="M0 0h20v14H0z"/></mask><g mask="url(#fs-1fvlla1faa)"><path fill="#e92434" d="M0 0h20v14H0z"/><path fill="#fff" fill-rule="evenodd" d="M13.59 7.54l-.88 1.04.06-1.35-1.28-.5 1.33-.35.08-1.35.76 1.13 1.33-.34-.85 1.05.73 1.14-1.28-.47z" clip-rule="evenodd"/><path fill="#fff" fill-rule="evenodd" d="M12.43 9.58c0-2.32 1.92-4.2 4.29-4.2 1.37 0 2.6.63 3.38 1.62C8.28 3.73 6.68 5.2 6.68 7s1.6 3.27 3.57 3.27c.82 0 1.59-.26 2.19-.7z" clip-rule="evenodd"/></g></svg>