<svg xmlns="http://www.w3.org/2000/svg" width="20" height="14" fill="none" viewBox="0 0 20 14"><g clip-path="url(#clip0_29_5474)"><path fill="#012169" d="M20 0H0v10h20V0z"/><path fill="#000" d="M0 0l10 5L0 0zm10 0L0 5l10-5z"/><path fill="#fff" d="M9.78 5.45L5 3.06.22 5.45l-.44-.9 4.1-2.05L-.22.45l.44-.9L5 1.94 9.78-.45l.44.9-4.1 2.05 4.1 2.05-.44.9z"/><path fill="#000" d="M0 0l10 5L0 0zm10 0L0 5l10-5z"/><path fill="#C8102E" d="M9.85 5.3L5 2.87.15 5.3l-.3-.6 4.4-2.2L-.15.3l.3-.6L5 2.13 9.85-.3l.3.6-4.4 2.2 4.4 2.2-.3.6z"/><path fill="#000" d="M0 2.5h10.83H0zM5 0v5.83V0z"/><path fill="#fff" d="M5.83 5.83H4.17v-2.5H0V1.67h4.17V0h1.66v1.67h5v1.66h-5v2.5z"/><path fill="#000" d="M0 2.5h10.83H0zM5 0v5.83V0z"/><path fill="#C8102E" d="M5.5 5.83h-1V3H0V2h4.5V0h1v2h5.33v1H5.5v2.83z"/><path fill="#009CDE" d="M0 5.28h10V0h10v14H0V5.28z"/><path fill="#FEDD00" d="M10.76 8.18l.49 1.51L10 8.76h1.59l-1.28.93.45-1.51zm2.86-.45l-.49 1.51-.49-1.51 1.29.94h-1.59l1.28-.94zm0-2.03l-.49 1.51-.49-1.51 1.29.93h-1.59l1.28-.93zm2.1 1.52l-.49 1.51-.49-1.51 1.26.93h-1.56l1.28-.93zm0-4.42l-.49 1.51-.49-1.51 1.26.93h-1.56l1.28-.93zm.89 2.87l.49 1.51-1.29-.94h1.59l-1.28.94.49-1.51zm.88-3.48L17 3.7l-.49-1.51 1.28.94H16.2l1.29-.94zm.89 2.33L18.87 6l-1.28-.9h1.58l-1.28.9.49-1.48zm0-3.9l.49 1.51-1.28-.93h1.58l-1.28.93.49-1.51z"/></g><defs><clipPath id="clip0_29_5474"><path fill="#fff" d="M0 0h20v14H0z"/></clipPath></defs></svg>