<svg xmlns="http://www.w3.org/2000/svg" width="20" height="14" fill="none" viewBox="0 0 20 14"><path fill="#fff" d="M0 0h20v14H0z"/><mask id="fs-v5dgomnlea" style="mask-type:alpha" width="20" height="14" x="0" y="0" maskUnits="userSpaceOnUse"><path fill="#fff" d="M0 0h20v14H0z"/></mask><g fill-rule="evenodd" clip-rule="evenodd" mask="url(#fs-v5dgomnlea)"><path fill="#262626" d="M0 1.87h20V0H0v1.87zm0 7.46h20V7.47H0v1.86z"/><path fill="#ed1623" d="M0 7.47h20v-2.8H0v2.8z"/><path fill="#fee044" d="M0 4.67h20v-2.8H0v2.8z"/><path fill="#ed1623" d="M0 14h20v-1.87H0V14z"/><path fill="#fee044" d="M0 12.13h20v-2.8H0v2.8z"/><path fill="#262626" d="M9.29 5.37l.21-.21c.15-.16.66-.13.79.04.06.09.03.14-.02.24l-.36.7v.18c0 .13.07.24.19.3l.71.35.1.06.73.73c.1.1.13.26.06.38l-.19.37-.17.17v.23c0 .06.02.12.07.17.14.14.04.4-.17.4h-.29c.04-.05.07-.1.07-.17v-.04h-.01l-.15.14.14-.13c.06-.06.15-.1.23-.1.3 0 .45-.36.24-.57l-.6-.59.47-.47z"/></g></svg>