<svg xmlns="http://www.w3.org/2000/svg" width="20" height="14" fill="none" viewBox="0 0 20 14"><path fill="#fff" d="M0 0h20v14H0z"/><mask id="fs-md0tmggy3a" style="mask-type:alpha" width="20" height="14" x="0" y="0" maskUnits="userSpaceOnUse"><path fill="#fff" d="M0 0h20v14H0z"/></mask><g fill-rule="evenodd" clip-rule="evenodd" mask="url(#fs-md0tmggy3a)"><path fill="#0e4dc5" d="M20 1.87H9.52v1.86H20V1.87zM9.52 5.6v1.87H20V5.6H9.52zm0 3.73H0v1.87h20V9.33H9.52zM0 14v-.93h20V14H0z"/><path fill="#fed443" d="M4.76 6.52l-.63.93-.16-1.1-.99.56.35-1.06-1.14.09.78-.81-1.07-.4 1.07-.4-.78-.82 1.14.1-.35-1.07.99.56.16-1.1.63.93L5.4 2l.16 1.1.98-.56L6.2 3.6l1.14-.09-.79.81 1.07.4-1.07.4.79.82-1.14-.1.34 1.07-.98-.56-.16 1.1-.64-.93zm0-.01c1 0 1.82-.8 1.82-1.78-1 0-1.82.8-1.82 1.79 0 .98.82 1.78 1.82 1.78zM6.2 4.67c0 .77-.64 1.4-1.43 1.4-.79 0-1.43-.63-1.43-1.4 0-.78.64-1.4 1.43-1.4.8 0 1.43.62 1.43 1.4z"/></g></svg>