<svg xmlns="http://www.w3.org/2000/svg" width="20" height="14" fill="none" viewBox="0 0 20 14"><path fill="#fff" d="M0 0h20v14H0z"/><mask id="fs-s0jvau1eqa" style="mask-type:alpha" width="20" height="14" x="0" y="0" maskUnits="userSpaceOnUse"><path fill="#fff" d="M0 0h20v14H0z"/></mask><g fill-rule="evenodd" clip-rule="evenodd" mask="url(#fs-s0jvau1eqa)"><path fill="#04aac8" d="M0 4.67h20V0H0v4.67z"/><path fill="#23c840" d="M0 14h20V9.33H0V14z"/><path fill="#fff" d="M3.33 3.73c.3 0 .57-.08.8-.23h-.08c-.66 0-1.2-.52-1.2-1.17-.23-.15-.5-.24-.8-.24-.79 0-1.43.63-1.43 1.4 0 .78.64 1.4 1.43 1.4zm2.38-.46c0 .25-.2.46-.47.46 0-.26.22-.47.48-.47s.47.2.47.47zm1.43-1.4c.27 0 .48-.21.48-.47a.47.47 0 100 .94zm2.38-.47c0 .26-.2.47-.47.47 0-.26.21-.47.48-.47.26 0 .47.21.47.47zm-.47 2.33c.26 0 .47-.2.47-.46-.27 0-.48.2-.48.47 0 .25.21.46.48.46zm-1.43-.46c0 .25-.21.46-.48.46 0-.26.21-.47.47-.47.27 0 .48.2.48.47z"/></g></svg>