<svg xmlns="http://www.w3.org/2000/svg" width="20" height="14" fill="none" viewBox="0 0 20 14"><path fill="#fff" d="M0 0h20v14H0z"/><mask id="fs-hgdxbd9aca" style="mask-type:alpha" width="20" height="14" x="0" y="0" maskUnits="userSpaceOnUse"><path fill="#fff" d="M0 0h20v14H0z"/></mask><g mask="url(#fs-hgdxbd9aca)"><path fill="#08c47a" d="M9.52 0H20v14H9.52z"/><path fill="#0c87e1" fill-rule="evenodd" d="M0 14h6.67V0H0v14z" clip-rule="evenodd"/><path fill="#fecb2f" fill-rule="evenodd" d="M5.71 14h8.58V0H5.7v14z" clip-rule="evenodd"/><path fill="#08c47a" fill-rule="evenodd" d="M6.67 5.6L8.1 2.8l1.42 2.8L8.1 8.4 6.67 5.6zm3.8 0l1.43-2.8 1.43 2.8-1.43 2.8-1.42-2.8zm-.47.93l-1.43 2.8 1.43 2.8 1.43-2.8L10 6.53z" clip-rule="evenodd"/></g></svg>