<svg xmlns="http://www.w3.org/2000/svg" width="20" height="14" fill="none" viewBox="0 0 20 14"><path fill="#fff" d="M0 0h20v14H0z"/><mask id="fs-m7hpkpdnla" style="mask-type:alpha" width="20" height="14" x="0" y="0" maskUnits="userSpaceOnUse"><path fill="#fff" d="M0 0h20v14H0z"/></mask><g fill-rule="evenodd" clip-rule="evenodd" mask="url(#fs-m7hpkpdnla)"><path fill="#063191" d="M0 9.33h20V4.67H0v4.66z"/><path fill="#e2213b" d="M0 14h20V9.33H0V14z"/><path fill="#fff" d="M10 6.53c.26 0 .48-.2.48-.46-.26 0-.48.2-.48.47 0 .25.22.46.48.46zM8.1 7c.26 0 .47-.2.47-.47-.27 0-.48.2-.48.46s.21.47.48.47zm4.28-.47c0 .26-.21.47-.48.47 0-.25.21-.46.47-.46.27 0 .48.2.48.46zM7.14 8.4c.27 0 .48-.2.48-.47-.26 0-.47.2-.47.46s.21.47.47.47zm6.2-.47c0 .26-.22.47-.48.47 0-.25.21-.46.48-.46.26 0 .47.2.47.46z"/><path fill="#ffd044" d="M0 4.67h20V0H0v4.67z"/></g></svg>