<svg xmlns="http://www.w3.org/2000/svg" width="20" height="14" fill="none" viewBox="0 0 20 14"><path fill="#fff" d="M0 0h20v14H0z"/><mask id="fs-hon4y4dmsa" style="mask-type:alpha" width="20" height="14" x="0" y="0" maskUnits="userSpaceOnUse"><path fill="#fff" d="M0 0h20v14H0z"/></mask><g mask="url(#fs-hon4y4dmsa)"><g filter="url(#filter0_d_10_2061)"><path fill="#009543" fill-rule="evenodd" d="M0 14h20V8.4H0V14z" clip-rule="evenodd"/></g><g filter="url(#filter1_d_10_2061)"><path fill="#d21034" fill-rule="evenodd" d="M0 5.6h20V0H0v5.6z" clip-rule="evenodd"/></g><path fill="#262626" fill-rule="evenodd" d="M0 8.4h20V5.6H0v2.8z" clip-rule="evenodd"/><path fill="#262626" fill-rule="evenodd" d="M0 0l9.52 7L0 14V0z" clip-rule="evenodd"/><path stroke="#fdce12" stroke-width="1.33" d="M-.29 11.78V2.22L6.47 7-.3 11.78z"/><path fill="#fdce12" fill-rule="evenodd" d="M6.67 7.47H20v-.94H6.67v.94z" clip-rule="evenodd"/></g><defs><filter id="filter0_d_10_2061" width="20" height="5.6" x="0" y="8.4" color-interpolation-filters="sRGB" filterUnits="userSpaceOnUse"><feFlood flood-opacity="0" result="BackgroundImageFix"/><feColorMatrix in="SourceAlpha" result="hardAlpha" values="0 0 0 0 0 0 0 0 0 0 0 0 0 0 0 0 0 0 127 0"/><feOffset/><feColorMatrix values="0 0 0 0 0 0 0 0 0 0 0 0 0 0 0 0 0 0 0.06 0"/><feBlend in2="BackgroundImageFix" result="effect1_dropShadow_10_2061"/><feBlend in="SourceGraphic" in2="effect1_dropShadow_10_2061" result="shape"/></filter><filter id="filter1_d_10_2061" width="20" height="5.6" x="0" y="0" color-interpolation-filters="sRGB" filterUnits="userSpaceOnUse"><feFlood flood-opacity="0" result="BackgroundImageFix"/><feColorMatrix in="SourceAlpha" result="hardAlpha" values="0 0 0 0 0 0 0 0 0 0 0 0 0 0 0 0 0 0 127 0"/><feOffset/><feColorMatrix values="0 0 0 0 0 0 0 0 0 0 0 0 0 0 0 0 0 0 0.06 0"/><feBlend in2="BackgroundImageFix" result="effect1_dropShadow_10_2061"/><feBlend in="SourceGraphic" in2="effect1_dropShadow_10_2061" result="shape"/></filter></defs></svg>