<svg xmlns="http://www.w3.org/2000/svg" width="20" height="14" fill="none" viewBox="0 0 20 14"><path fill="#fff" d="M0 0h20v14H0z"/><mask id="fs-1si715820a" style="mask-type:alpha" width="20" height="14" x="0" y="0" maskUnits="userSpaceOnUse"><path fill="#fff" d="M0 0h20v14H0z"/></mask><g mask="url(#fs-1si715820a)"><path fill="#e31f37" d="M0 0h20v14H0z"/><path fill="#083b9a" fill-rule="evenodd" d="M-.95 7.47h11.43v-8.4H-.95v8.4z" clip-rule="evenodd"/><path fill="#fff" fill-rule="evenodd" d="M4.76 1.87l-.67.19.2-.66-.2-.66.67.2.68-.2-.2.66.2.66-.68-.2zm0 4.66l-.67.2.2-.66-.2-.66.67.19.68-.2-.2.67.2.66-.68-.2zM2.18 4.4l.68-.19.67.2-.2-.67.2-.66-.67.2-.68-.2.2.66-.2.66zm4.96-.66l-.67.2.2-.66-.2-.66.67.19.68-.2-.2.67.2.66-.68-.2zM6.2 4.9c0 .13-.1.23-.24.23 0-.13.11-.23.24-.23s.24.1.24.23z" clip-rule="evenodd"/></g></svg>