<svg xmlns="http://www.w3.org/2000/svg" width="20" height="14" fill="none" viewBox="0 0 20 14"><path fill="#fff" d="M0 0h20v14H0z"/><mask id="fs-jqm2wih9ma" style="mask-type:alpha" width="20" height="14" x="0" y="0" maskUnits="userSpaceOnUse"><path fill="#fff" d="M0 0h20v14H0z"/></mask><g mask="url(#fs-jqm2wih9ma)"><path fill="#369d0c" fill-rule="evenodd" d="M0 1.87h20V0H0v1.87zM0 14h20v-1.87H0V14zm0-8.4h20V3.73H0V5.6zm0 4.67h20V8.4H0v1.87z" clip-rule="evenodd"/><path fill="#262626" fill-rule="evenodd" d="M0 8.4h20V5.6H0v2.8z" clip-rule="evenodd"/><path fill="#ffd40e" fill-rule="evenodd" d="M0 3.73h20V1.87H0v1.86zm0 8.4h20v-1.86H0v1.86z" clip-rule="evenodd"/><path fill="#fff" stroke="#262626" stroke-width="1.33" d="M8.4 7l-8.62 6.33h-.07V.67h.07L8.4 7z"/><path fill="url(#paint0_linear_10_2123)" fill-rule="evenodd" d="M2.86 7.91l-1.4.98.51-1.6L.6 6.27l1.72-.02.55-1.6.54 1.6 1.72.02-1.38 1 .52 1.6-1.4-.97z" clip-rule="evenodd"/></g><defs><linearGradient id="paint0_linear_10_2123" x1=".48" x2=".48" y1="4.67" y2="9.33" gradientUnits="userSpaceOnUse"><stop stop-color="#f12f1f"/><stop offset="1" stop-color="#de2010"/></linearGradient></defs></svg>