<?xml version="1.0" encoding="UTF-8"?>
<svg width="52px" height="70px" viewBox="0 0 52 70" version="1.1" xmlns="http://www.w3.org/2000/svg" xmlns:xlink="http://www.w3.org/1999/xlink">
    <!-- Generator: sketchtool 52.3 (67297) - http://www.bohemiancoding.com/sketch -->
    <title>21F32FA6-5942-4FD8-BE93-297A63841AFB</title>
    <desc>Created with sketchtool.</desc>
    <g id="Desktop-Experience-v4" stroke="none" stroke-width="1" fill="none" fill-rule="evenodd">
        <g id="Product-Update-Notification" transform="translate(-36.000000, -24.000000)">
            <g id="Notification-Three-lines" transform="translate(20.000000, 20.000000)">
                <g id="Bitmap">
                    <g id="Baloons" transform="translate(16.000000, 4.000000)">
                        <g id="Baloon-Red" transform="translate(14.000000, 0.000000)">
                            <rect id="Rectangle-7" fill="#EFD994" x="15" y="36" width="1" height="20"></rect>
                            <path d="M15.5,32 L18.2744042,35.1707477 C18.4562453,35.378566 18.4351865,35.6944473 18.2273682,35.8762883 C18.1362224,35.9560409 18.0192275,36 17.8981159,36 L13.1018841,36 C12.8257417,36 12.6018841,35.7761424 12.6018841,35.5 C12.6018841,35.3788884 12.6458432,35.2618934 12.7255958,35.1707477 L15.5,32 Z" id="Triangle" fill="#D90024"></path>
                            <path d="M15.4106575,33.9885254 C21.5900879,34.3723145 29.8771973,26.2553711 30.3037109,16.3552246 C30.7231345,6.6196528 23.5879822,0 15.3037109,0 C7.01943969,0 0.5,6.90405273 0.5,14.9187012 C0.5,22.9333496 7.20239258,34.3337402 15.4106575,33.9885254 Z" id="Oval" fill="#DA5B71"></path>
                            <circle id="Oval-2" fill-opacity="0.15" fill="#FFFFFF" cx="22.5" cy="9.5" r="4.5"></circle>
                        </g>
                        <g id="Baloon-Green" transform="translate(0.000000, 8.000000)">
                            <rect id="Rectangle-7" fill="#EFD994" x="15" y="36" width="1" height="20"></rect>
                            <path d="M15.5,32 L18.2744042,35.1707477 C18.4562453,35.378566 18.4351865,35.6944473 18.2273682,35.8762883 C18.1362224,35.9560409 18.0192275,36 17.8981159,36 L13.1018841,36 C12.8257417,36 12.6018841,35.7761424 12.6018841,35.5 C12.6018841,35.3788884 12.6458432,35.2618934 12.7255958,35.1707477 L15.5,32 Z" id="Triangle" fill="#00948E"></path>
                            <path d="M15.4106575,33.9885254 C21.5900879,34.3723145 29.8771973,26.2553711 30.3037109,16.3552246 C30.7231345,6.6196528 23.5879822,0 15.3037109,0 C7.01943969,0 0.5,6.90405273 0.5,14.9187012 C0.5,22.9333496 7.20239258,34.3337402 15.4106575,33.9885254 Z" id="Oval" fill="#00BDB5"></path>
                            <circle id="Oval-2" fill-opacity="0.15" fill="#FFFFFF" cx="22.5" cy="9.5" r="4.5"></circle>
                        </g>
                        <g id="Baloon-Yellow" transform="translate(21.000000, 18.000000)">
                            <rect id="Rectangle-7" fill="#EFD994" x="15" y="36" width="1" height="16"></rect>
                            <path d="M15.5,32 L18.2744042,35.1707477 C18.4562453,35.378566 18.4351865,35.6944473 18.2273682,35.8762883 C18.1362224,35.9560409 18.0192275,36 17.8981159,36 L13.1018841,36 C12.8257417,36 12.6018841,35.7761424 12.6018841,35.5 C12.6018841,35.3788884 12.6458432,35.2618934 12.7255958,35.1707477 L15.5,32 Z" id="Triangle" fill="#FFB900"></path>
                            <path d="M15.4106575,33.9885254 C21.5900879,34.3723145 29.8771973,26.2553711 30.3037109,16.3552246 C30.7231345,6.6196528 23.5879822,0 15.3037109,0 C7.01943969,0 0.5,6.90405273 0.5,14.9187012 C0.5,22.9333496 7.20239258,34.3337402 15.4106575,33.9885254 Z" id="Oval" fill="#FFD363"></path>
                            <circle id="Oval-2" fill-opacity="0.15" fill="#FFFFFF" cx="22.5" cy="9.5" r="4.5"></circle>
                        </g>
                    </g>
                </g>
            </g>
        </g>
    </g>
</svg>