<?xml version="1.0" encoding="UTF-8"?>
<svg width="122px" height="70px" viewBox="0 0 122 70" version="1.1" xmlns="http://www.w3.org/2000/svg" xmlns:xlink="http://www.w3.org/1999/xlink">
    <!-- Generator: Sketch 48.1 (47250) - http://www.bohemiancoding.com/sketch -->
    <title></title>
    <g id="Artboard" stroke="none" stroke-width="1" fill-rule="evenodd" transform="translate(-3.000000, -29.000000)">
        <path d="M35.6965752,77.7856356 L44.3952484,86.351724 L32.1242924,98.4356466 C31.7245042,98.8293413 31.0829999,98.8268476 30.6857702,98.4356725 L3.9421626,72.0996896 C3.67006009,71.8317344 3.66554285,71.3929184 3.93759933,71.1250086 L11.6510688,63.5291075 C11.9199046,63.2643692 12.3655054,63.2624675 12.6391525,63.5319437 L31.4050182,82.0117809 L35.6965752,77.7856356 Z M49.2209665,64.4673824 L84.3448626,29.878843 C84.6131011,29.6146929 85.0602698,29.6087076 85.3323263,29.8766174 L93.0457957,37.4725185 C93.3146315,37.7372568 93.3144776,38.1781191 93.0382584,38.4501282 L57.9196396,73.0334708 L49.2209665,64.4673824 Z M35.004289,71.1250086 L42.7177584,63.5291075 C42.9865942,63.2643692 43.4321951,63.2624675 43.7058422,63.5319437 L62.4717079,82.0117809 L115.411552,29.878843 C115.679791,29.6146929 116.126959,29.6087076 116.399016,29.8766174 L124.112485,37.4725185 C124.381321,37.7372568 124.381167,38.1781191 124.104948,38.4501282 L63.1909821,98.4356466 C62.7911939,98.8293413 62.1496896,98.8268476 61.7524599,98.4356725 L35.0088523,72.0996896 C34.7367498,71.8317344 34.7322325,71.3929184 35.004289,71.1250086 Z" id="Combined-Shape" fill="#000000" fill-rule="nonzero"></path>
    </g>
</svg>
