<!-- Generated by IcoMoon.io -->
<svg version="1.1" xmlns="http://www.w3.org/2000/svg" width="32" height="32" viewBox="0 0 32 32">
<title>download</title>
<path d="M17.217 18.543l4.007-4.014c0.475-0.476 1.246-0.476 1.721 0s0.475 1.248 0 1.724l-6.085 6.095c-0.475 0.476-1.246 0.476-1.721 0l-6.085-6.095c-0.475-0.476-0.475-1.248 0-1.724s1.246-0.476 1.721 0l4.007 4.014v-14.126c0-0.672 0.545-1.217 1.217-1.217s1.217 0.545 1.217 1.217v14.126zM4.034 26.362h23.932v-8.94c0-0.673 0.545-1.219 1.217-1.219s1.217 0.546 1.217 1.219v10.159c0 0.673-0.545 1.219-1.217 1.219h-26.366c-0.672 0-1.217-0.546-1.217-1.219v-10.159c0-0.673 0.545-1.219 1.217-1.219s1.217 0.546 1.217 1.219v8.94z"></path>
</svg>
