<?xml version="1.0" encoding="utf-8"?>
<!-- Generator: Adobe Illustrator 16.0.4, SVG Export Plug-In . SVG Version: 6.00 Build 0)  -->
<!DOCTYPE svg PUBLIC "-//W3C//DTD SVG 1.1//EN" "http://www.w3.org/Graphics/SVG/1.1/DTD/svg11.dtd">
<svg version="1.1" id="Layer_1" xmlns="http://www.w3.org/2000/svg" xmlns:xlink="http://www.w3.org/1999/xlink" x="0px" y="0px"
	 width="32px" height="32px" viewBox="0 0 32 32" enable-background="new 0 0 32 32" xml:space="preserve">
<title>Team huddle logo</title>
<g id="Layer_1_1_">
	<g>
		<path d="M16,1.722c-7.886,0-14.278,6.394-14.278,14.279c0,7.885,6.393,14.277,14.278,14.277h10.709
			c1.972,0,3.569-1.597,3.569-3.568V16.001C30.278,8.115,23.886,1.722,16,1.722z M28.69,25.519c0,1.753-1.42,3.173-3.172,3.173H16
			c-7.009,0-12.69-5.682-12.69-12.69S8.991,3.31,16,3.31s12.69,5.683,12.69,12.691V25.519L28.69,25.519z"/>
		<path d="M21.011,15.913c-0.076,0.021-0.106-0.004-0.143-0.062c-0.441-0.701-0.884-1.401-1.329-2.101
			c-0.037-0.058-0.037-0.093,0.007-0.147c0.74-0.929,0.983-1.979,0.743-3.139c-0.396-1.908-2.316-3.166-4.228-2.775
			c-2.084,0.426-3.364,2.576-2.753,4.622c0.151,0.505,0.397,0.958,0.743,1.365c-0.01,0.019-0.015,0.031-0.022,0.042
			c-0.464,0.719-0.929,1.437-1.392,2.156c-0.034,0.054-0.065,0.048-0.116,0.034c-0.429-0.115-0.863-0.154-1.306-0.108
			c-0.853,0.089-1.589,0.435-2.188,1.044c-1.15,1.172-1.392,2.896-0.624,4.34c0.698,1.312,2.169,2.083,3.634,1.867
			c1.355-0.199,2.304-0.953,2.86-2.202c0.033-0.074,0.067-0.104,0.152-0.104c1.145,0.004,2.29,0.004,3.434,0
			c0.089,0,0.126,0.029,0.159,0.11c0.814,1.988,3.194,2.82,5.067,1.775c1.37-0.765,2.094-2.328,1.799-3.89
			C25.116,16.654,23.056,15.356,21.011,15.913z M11.576,21.063c-0.824,0.003-1.587-0.665-1.593-1.634
			c-0.004-0.897,0.72-1.628,1.59-1.627c0.875,0.001,1.583,0.729,1.583,1.63C13.157,20.334,12.452,21.061,11.576,21.063z
			 M16.771,9.642c0.876,0.001,1.584,0.729,1.584,1.629c0,0.905-0.709,1.635-1.591,1.631c-0.838-0.003-1.581-0.685-1.583-1.633
			C15.179,10.364,15.897,9.642,16.771,9.642z M19.19,17.101c-0.384,0.467-0.636,0.998-0.759,1.59
			c-0.002,0.01-0.008,0.019-0.013,0.031c-1.098,0-2.194,0-3.301,0c-0.014-0.054-0.029-0.111-0.043-0.168
			c-0.131-0.537-0.37-1.02-0.722-1.445c-0.046-0.055-0.049-0.094-0.008-0.155c0.456-0.7,0.909-1.401,1.36-2.104
			c0.034-0.052,0.062-0.069,0.128-0.052c0.625,0.17,1.252,0.168,1.878-0.002c0.063-0.017,0.094-0.006,0.129,0.049
			c0.448,0.713,0.898,1.424,1.35,2.135C19.218,17.022,19.23,17.052,19.19,17.101z M21.961,21.063
			c-0.831-0.003-1.581-0.681-1.583-1.633c-0.002-0.901,0.719-1.629,1.589-1.628c0.876,0.001,1.585,0.729,1.585,1.629
			C23.552,20.337,22.84,21.066,21.961,21.063z"/>
	</g>
</g>
</svg>
