<?xml version="1.0" encoding="UTF-8"?>
<svg width="20px" height="20px" viewBox="0 0 20 20" version="1.1" xmlns="http://www.w3.org/2000/svg" xmlns:xlink="http://www.w3.org/1999/xlink">
    <!-- Generator: sketchtool 54.1 (76490) - https://sketchapp.com -->
    <title>49B8FE1D-585E-42AF-8F55-084CC797725F@0.5x</title>
    <desc>Created with sketchtool.</desc>
    <g id="Freshconnect-Icons" stroke="none" stroke-width="1" fill="none" fill-rule="evenodd">
        <g transform="translate(-434.000000, -242.000000)" fill="#000000" id="Icon_User_Group">
            <g transform="translate(432.000000, 240.000000)">
                <path d="M8.60567208,9.75027154 C7.08402601,9.18430617 6,7.71874701 6,6 C6,3.790861 7.790861,2 10,2 C11.718747,2 13.1843062,3.08402601 13.7502715,4.60567208 C10.9666309,4.73238361 8.73238361,6.96663087 8.60567208,9.75027154 L8.60567208,9.75027154 Z M8.77559422,11.3710774 C9.02740652,12.3332266 9.53797069,13.1906927 10.2284593,13.8646485 L8.24851298,14.713197 C6.87653732,15.3011865 5.80359053,16.3609152 5.1860985,17.6551569 L2.94410568,17.3348722 C2.4023819,17.2574831 2,16.7935329 2,16.2463092 C2,14.3982407 3.10135695,12.7279899 4.8,12 L7.4294806,10.8730797 C7.53762741,10.8267311 7.66069526,10.8303476 7.76593376,10.8829669 L8.48445825,11.2422291 C8.57964006,11.28982 8.67679874,11.3327962 8.77559422,11.3710774 L8.77559422,11.3710774 Z M14,14 C11.790861,14 10,12.209139 10,10 C10,7.790861 11.790861,6 14,6 C16.209139,6 18,7.790861 18,10 C18,12.209139 16.209139,14 14,14 Z M11.4294806,14.8730797 C11.5376274,14.8267311 11.6606953,14.8303476 11.7659338,14.8829669 L12.4844582,15.2422291 C12.9550191,15.4775095 13.473897,15.6 14,15.6 C14.526103,15.6 15.0449809,15.4775095 15.5155418,15.2422291 L16.2340662,14.8829669 C16.3393047,14.8303476 16.4623726,14.8267311 16.5705194,14.8730797 L19.2,16 C20.8986431,16.7279899 22,18.3982407 22,20.2463092 C22,20.7935329 21.5976181,21.2574831 21.0558943,21.3348722 L18.7758788,21.6605887 C17.1939545,21.8865779 15.5979848,22 14,22 C12.4020152,22 10.8060455,21.8865779 9.22412122,21.6605887 L6.94410568,21.3348722 C6.4023819,21.2574831 6,20.7935329 6,20.2463092 C6,18.3982407 7.10135695,16.7279899 8.8,16 L11.4294806,14.8730797 Z" id="Shape"></path>
            </g>
        </g>
    </g>
</svg>