<!-- Generated by IcoMoon.io -->
<svg version="1.1" xmlns="http://www.w3.org/2000/svg" width="32" height="32" viewBox="0 0 32 32">
<title>attachment</title>
<path d="M16.179 25.547l8.914-12.731c1.683-2.404 1.074-5.735-1.361-7.44s-5.774-1.138-7.457 1.265l-11.136 15.904c-1.002 1.431-0.639 3.414 0.81 4.429s3.437 0.678 4.439-0.753l9.644-13.774c0.314-0.448 0.2-1.069-0.254-1.387s-1.076-0.212-1.39 0.236l-7.423 10.601c-0.368 0.525-1.097 0.649-1.629 0.276s-0.665-1.1-0.297-1.625l7.423-10.601c1.049-1.498 3.129-1.851 4.647-0.789s1.897 3.138 0.848 4.636l-9.644 13.774c-1.737 2.481-5.183 3.066-7.696 1.306s-3.142-5.198-1.405-7.679l11.136-15.904c2.418-3.454 7.215-4.268 10.714-1.818s4.374 7.236 1.956 10.69l-8.914 12.731c-0.368 0.525-1.097 0.649-1.628 0.276s-0.665-1.1-0.297-1.625z"></path>
</svg>
