<!-- Generated by IcoMoon.io -->
<svg version="1.1" xmlns="http://www.w3.org/2000/svg" width="32" height="32" viewBox="0 0 32 32">
<path d="M6.313 12.929l9.442-9.246c0.478-0.468 0.488-1.236 0.022-1.716s-1.231-0.49-1.709-0.022l-11.569 11.328c-0.226 0.22-0.366 0.529-0.366 0.87s0.14 0.649 0.366 0.87l11.569 11.328c0.478 0.468 1.243 0.458 1.709-0.022s0.456-1.248-0.022-1.716l-9.442-9.246h15.769c2.67 0 4.834 2.174 4.834 4.855v9.508c0 0.67 0.541 1.214 1.209 1.214s1.209-0.543 1.209-1.214v-9.508c0-4.022-3.247-7.283-7.252-7.283h-15.769z"></path>
</svg>
