<?xml version="1.0" encoding="UTF-8"?>
<svg width="20px" height="20px" viewBox="0 0 20 20" version="1.1" xmlns="http://www.w3.org/2000/svg" xmlns:xlink="http://www.w3.org/1999/xlink">
    <!-- Generator: sketchtool 52.2 (67145) - http://www.bohemiancoding.com/sketch -->
    <title>901E444D-048D-4F08-9AA2-DC4615183644@0.5x</title>
    <desc>Created with sketchtool.</desc>
    <g id="Freshconnect-Icons" stroke="none" stroke-width="1" fill-rule="evenodd">
        <g transform="translate(-338.000000, -98.000000)" fill="#000000" fill-rule="nonzero" id="Icon_Search">
            <g transform="translate(336.000000, 96.000000)">
                <path d="M16.2691535,14.8599474 L22,20.5907939 L20.5907939,22 L14.8599474,16.2691535 C13.5100604,17.3184858 11.813839,17.9433471 9.97167353,17.9433471 C5.56903981,17.9433471 2,14.3743073 2,9.97167353 C2,5.56903981 5.56903981,2 9.97167353,2 C14.3743073,2 17.9433471,5.56903981 17.9433471,9.97167353 C17.9433471,11.813839 17.3184858,13.5100604 16.2691535,14.8599474 Z M9.97167353,15.9504287 C13.2736488,15.9504287 15.9504287,13.2736488 15.9504287,9.97167353 C15.9504287,6.66969824 13.2736488,3.99291838 9.97167353,3.99291838 C6.66969824,3.99291838 3.99291838,6.66969824 3.99291838,9.97167353 C3.99291838,13.2736488 6.66969824,15.9504287 9.97167353,15.9504287 Z" id="Shape"></path>
            </g>
        </g>
    </g>
</svg>