<?xml version="1.0" encoding="utf-8"?>
<!-- Generator: Adobe Illustrator 17.0.0, SVG Export Plug-In . SVG Version: 6.00 Build 0)  -->
<!DOCTYPE svg PUBLIC "-//W3C//DTD SVG 1.1//EN" "http://www.w3.org/Graphics/SVG/1.1/DTD/svg11.dtd">
<svg version="1.1" id="Layer_1" xmlns="http://www.w3.org/2000/svg" xmlns:xlink="http://www.w3.org/1999/xlink" x="0px" y="0px"
	 width="512px" height="512px" viewBox="0 0 512 512" enable-background="new 0 0 512 512" xml:space="preserve">
<g>
	<g>
		<path d="M364.1,375.708H149.014c-5.55,0-10.052,4.508-10.052,10.062c0,5.558,4.502,10.06,10.052,10.06H364.1
			c5.55,0,10.05-4.502,10.05-10.06C374.15,380.216,369.65,375.708,364.1,375.708z M364.1,305.285H149.014
			c-5.55,0-10.052,4.504-10.052,10.06c0,5.56,4.502,10.064,10.052,10.064H364.1c5.55,0,10.05-4.504,10.05-10.064
			C374.15,309.789,369.65,305.285,364.1,305.285z M149.014,234.858c-5.55,0-10.052,4.504-10.052,10.06
			c0,5.56,4.502,10.064,10.052,10.064H364.1c5.55,0,10.05-4.504,10.05-10.064c0-5.556-4.5-10.06-10.05-10.06H149.014z
			 M149.014,184.554h97.062c5.55,0,10.05-4.502,10.05-10.06c0-5.56-4.5-10.06-10.05-10.06h-97.062c-5.55,0-10.052,4.5-10.052,10.06
			C138.963,180.052,143.464,184.554,149.014,184.554z M452.927,82.316l-70.04-69.108c-5.037-4.971-11.709-7.707-18.786-7.707
			c0,0-0.006,0-0.01,0H86.851c-14.75,0-26.753,12.014-26.753,26.782v447.421c0,14.776,12.004,26.794,26.753,26.794h347.276
			c14.76,0,26.776-12.018,26.776-26.794V101.385C460.902,94.28,457.994,87.333,452.927,82.316z M433.421,91.326H374.23
			l-0.062-58.464L433.421,91.326z M440.801,479.703c0,3.682-2.992,6.674-6.674,6.674H86.851c-3.666,0-6.652-2.992-6.652-6.674
			V32.283c0-3.676,2.986-6.66,6.652-6.66h267.21l0.076,75.775c0.006,5.55,4.506,10.048,10.05,10.048h76.615V479.703z"/>
	</g>
</g>
</svg>
