<?xml version="1.0" encoding="UTF-8"?>
<svg width="20px" height="20px" viewBox="0 0 20 20" version="1.1" xmlns="http://www.w3.org/2000/svg" xmlns:xlink="http://www.w3.org/1999/xlink">
    <!-- Generator: sketchtool 53 (72520) - https://sketchapp.com -->
    <title>EE67DF7D-2797-4DD4-9E2C-C941E47EAA43@0.5x</title>
    <desc>Created with sketchtool.</desc>
    <g id="Freshconnect-Icons" stroke="none" stroke-width="1" fill-rule="evenodd">
        <g transform="translate(-242.000000, -290.000000)" fill="#000000" id="Icon_Contextual_Messaging">
            <g transform="translate(240.000000, 288.000000)">
                <path d="M22,2.5 L22,16 L16,12 L8.5,12 C8.22385763,12 8,11.7761424 8,11.5 L8,2.5 C8,2.22385763 8.22385763,2 8.5,2 L21.5,2 C21.7761424,2 22,2.22385763 22,2.5 Z M12,8 C12.5522847,8 13,7.55228475 13,7 C13,6.44771525 12.5522847,6 12,6 C11.4477153,6 11,6.44771525 11,7 C11,7.55228475 11.4477153,8 12,8 Z M15,8 C15.5522847,8 16,7.55228475 16,7 C16,6.44771525 15.5522847,6 15,6 C14.4477153,6 14,6.44771525 14,7 C14,7.55228475 14.4477153,8 15,8 Z M18,8 C18.5522847,8 19,7.55228475 19,7 C19,6.44771525 18.5522847,6 18,6 C17.4477153,6 17,6.44771525 17,7 C17,7.55228475 17.4477153,8 18,8 Z M2,9 C2,8.44771525 2.44771525,8 3,8 L6,8 L6,10 L4,10 L4,18.0439876 L6,16 L14,16 L14,14 L16,14 L16,17.0439876 C16,17.5962723 15.5522847,18.0439876 15,18.0439876 L6,18.0439876 L2,22.0406747 L2,9 Z" id="Shape"></path>
            </g>
        </g>
    </g>
</svg>