<?xml version="1.0" encoding="utf-8"?>
<!-- Generator: Adobe Illustrator 19.2.1, SVG Export Plug-In . SVG Version: 6.00 Build 0)  -->
<svg version="1.1" id="Layer_1" xmlns="http://www.w3.org/2000/svg" xmlns:xlink="http://www.w3.org/1999/xlink" x="0px" y="0px"
	 width="512px" height="512px" viewBox="0 0 512 512" style="enable-background:new 0 0 512 512;" xml:space="preserve">
<g id="_x34_nb0PN.tif">
	<g>
		<path d="M211,433.4c-31.8,0-63.5,0-95.3,0c-34.8,0-61.8-23.1-67.4-57.6c-0.4-2.7-0.4-5.5-0.4-8.3c0-64.7-0.1-129.5,0-194.2
			c0.1-31.5,22.6-58.7,53.5-64.9c4.3-0.9,8.8-1.4,13.2-1.4c52.9,0,105.8,0,158.8,0c9.5,0,12.1,2.5,12.2,11.9
			c0.1,3.8,0.2,7.6-0.4,11.5c-0.8,4.7-3.6,6.9-8.1,7.2c-1.7,0.1-3.4,0.1-5.1,0.1c-51.7,0-103.4,0.1-155.1,0
			c-16,0-27.7,6.7-35.1,20.8c-1.9,3.7-3.1,7.7-3.2,11.9c-0.1,11.5-0.1,23-0.1,34.5c0,53.5,0,107.1,0,160.6c0,18.1,10.5,32,27.3,36.3
			c3.3,0.9,6.7,0.8,10.1,0.8c63.2,0,126.4-0.3,189.6,0.2c20.6,0.2,38.4-16.3,38-37.9c-0.4-22.8-0.1-45.7-0.1-68.6
			c0-9.3,2.4-11.7,11.7-11.7c2.9,0,5.8,0,8.7,0c7.2,0.1,10.1,2.9,10.2,10c0.1,8.6,0,17.2,0,25.8c0,15.3,0,30.7,0,46
			c-0.1,37.1-29.5,66.8-66.6,66.9C275.4,433.5,243.2,433.4,211,433.4z"/>
		<path d="M462.7,152.3c0,18.9-0.1,37.7,0.1,56.6c0.1,7.6-2.6,13.3-9.6,16.2c-7,2.9-12.8,0.4-17.9-4.7
			c-11.6-11.6-23.3-23.1-34.7-34.9c-3.2-3.3-5-3.4-8.3-0.1c-47.6,47.8-95.3,95.5-143.1,143.2c-7.4,7.4-10.2,7.4-17.5,0.1
			c-6.6-6.6-13.2-13.2-19.8-19.8c-7.5-7.6-7.6-10.5-0.1-17.9c47.5-47.5,95-95,142.5-142.5c4.6-4.6,4.6-4.6,0.1-9.2
			c-11.6-11.6-23.3-23.1-34.8-34.9c-8.2-8.4-6.9-19.6,2.5-25c2.6-1.5,5.4-2,8.4-2c38.8,0,77.6,0,116.4,0c9.8,0,15.9,6.4,16,16.3
			C462.7,113.4,462.7,132.9,462.7,152.3z"/>
	</g>
</g>
</svg>
