<?xml version="1.0" encoding="UTF-8"?>
<svg width="16px" height="16px" viewBox="0 0 16 16" version="1.1" xmlns="http://www.w3.org/2000/svg" xmlns:xlink="http://www.w3.org/1999/xlink">
    <!-- Generator: Sketch 57.1 (83088) - https://sketch.com -->
    <title>InviteIcon</title>
    <desc>Created with Sketch.</desc>
    <g id="Inherited-Groups-*" stroke="none" stroke-width="1" fill-rule="evenodd">
        <g id="TM---Intro---Inherited-Groups---Screen-1" transform="translate(-178.000000, -762.000000)" fill="#000000" fill-rule="nonzero">
            <g id="HomePage">
                <g id="(Col-1)-All-Discussions-List" transform="translate(64.000000, 0.000000)">
                    <g id="Title-Bar-+-MSG-8-+-MSG-7-+-MSG-6-+-MSG-5-+-MSG-4-+-MSG-3-+-MSG-2-+-MSG-1-Mask">
                        <g id="Chat-Lists" transform="translate(0.000000, 297.000000)">
                            <g id="Invite" transform="translate(0.000000, 443.000000)">
                                <g id="Group" transform="translate(114.000000, 21.000000)">
                                    <path d="M13.6955212,3.07484769 L10.6905137,3.07484769 L8.03044389,1 L5.37340648,3.07484769 L5.35237905,3.07484769 L2.23441397,3.07484769 L2.23441397,5.48843375 L0,7.24553113 L0,17 L16,17 L16,7.23846823 L13.6874214,5.42350321 L13.6955212,3.07484769 Z M1.06665337,7.40380434 L2.23441397,6.49196771 L2.23441397,8.04408043 L1.06665337,7.40380434 Z M3.03241895,5.87653216 L3.03241895,5.68250302 L3.03241895,3.87745013 L5.35237905,3.87745013 L5.64345137,3.87745013 L10.4207481,3.87745013 L10.555611,3.87745013 L12.9113217,3.87745013 L12.9202993,5.72343574 L12.8877805,5.72343574 L12.8877805,8.52949439 L8.00606484,11.2014382 L3.03241895,8.47616145 L3.03241895,5.87653216 Z M13.6857855,6.414958 L14.9533766,7.40364382 L13.6857855,8.09785479 L13.6857855,6.414958 Z M8.03072319,2.00333331 L9.40448878,3.07484769 L6.65847382,3.07484769 L8.03072319,2.00333331 Z M0.798004988,16.1973976 L0.798004988,8.14524847 L7.9999202,12.1040449 L15.201995,8.14946213 L15.201995,16.1973976 L0.798004988,16.1973976 Z" id="InviteIcon"></path>
                                </g>
                            </g>
                        </g>
                    </g>
                </g>
            </g>
        </g>
    </g>
</svg>