<?xml version="1.0" encoding="UTF-8"?>
<svg width="20px" height="20px" viewBox="0 0 20 20" version="1.1" xmlns="http://www.w3.org/2000/svg" xmlns:xlink="http://www.w3.org/1999/xlink">
    <!-- Generator: sketchtool 54.1 (76490) - https://sketchapp.com -->
    <title>DF56F58B-2C77-4CAA-9F4E-C1913090C7CD@0.5x</title>
    <desc>Created with sketchtool.</desc>
    <g id="Freshconnect-Icons" stroke="none" stroke-width="1" fill-rule="evenodd">
        <g transform="translate(-194.000000, -50.000000)" fill="#000000" id="Icon_Discuss">
            <g transform="translate(192.000000, 48.000000)">
                <path d="M12,22 C6.48,22 2,17.52 2,12 C2,6.48 6.48,2 12,2 L19.5,2 C20.88,2 22,3.12 22,4.5 L22,12 C22,17.52 17.52,22 12,22 Z M9.53916666,13.5677778 L11.6545833,9.90375 C11.7654167,9.93041666 11.8809722,9.94458334 12,9.94458334 C12.1188889,9.94458334 12.2344444,9.93041666 12.3452778,9.90375 L14.4606944,13.5677778 C14.3019444,13.7347222 14.1820833,13.93875 14.1152778,14.1656944 L9.88472222,14.1656944 C9.81791666,13.93875 9.69791666,13.7347222 9.53916666,13.5677778 Z M15.5276389,13.11 C15.4086111,13.11 15.2930556,13.1243056 15.1822222,13.1508333 L13.0668056,9.48680556 C13.3180556,9.22277778 13.4722222,8.86555556 13.4722222,8.47222222 C13.4722222,7.65916666 12.8130556,7 12,7 C11.1868056,7 10.5276389,7.65916666 10.5276389,8.47222222 C10.5276389,8.86555556 10.6818056,9.22277778 10.9330556,9.48680556 L8.81763888,13.1508333 C8.70680556,13.1243056 8.59125,13.11 8.47222222,13.11 C7.65916666,13.11 7,13.7691667 7,14.5823611 C7,15.3955556 7.65916666,16.0547222 8.47222222,16.0547222 C9.14069444,16.0547222 9.705,15.6093056 9.88472222,14.9990278 L14.1152778,14.9990278 C14.295,15.6093056 14.8591667,16.0547222 15.5276389,16.0547222 C16.3408333,16.0547222 17,15.3955556 17,14.5823611 C17,13.7691667 16.3408333,13.11 15.5276389,13.11 Z" id="Shape"></path>
            </g>
        </g>
    </g>
</svg>