<?xml version="1.0" encoding="utf-8"?>
<!-- Generator: Adobe Illustrator 16.0.4, SVG Export Plug-In . SVG Version: 6.00 Build 0)  -->
<!DOCTYPE svg PUBLIC "-//W3C//DTD SVG 1.1//EN" "http://www.w3.org/Graphics/SVG/1.1/DTD/svg11.dtd">
<svg version="1.1" id="Layer_1" xmlns="http://www.w3.org/2000/svg" xmlns:xlink="http://www.w3.org/1999/xlink" x="0px" y="0px"
	 width="32px" height="32px" viewBox="0 0 32 32" enable-background="new 0 0 32 32" xml:space="preserve">
<title>group</title>
<g>
	<path fill="#fff" d="M20.772,23.306c0,0.769,0,3.534,0,3.534H2.997v-4.712c0-1.179,1.383-1.691,2.152-1.999
		c2.561-1.075,3.381-1.946,3.381-3.893c0-1.127-0.82-0.769-1.127-2.869c-0.154-0.871-0.82,0-0.973-1.998
		c0-0.769,0.358-0.973,0.358-0.973S6.634,9.218,6.531,8.296C6.429,7.169,7.095,4.3,10.629,4.3s4.201,2.869,4.098,3.996
		c-0.103,0.922-0.256,2.101-0.256,2.101s0.359,0.205,0.359,0.973c-0.154,1.998-0.82,1.127-0.974,1.998
		c-0.307,2.101-1.127,1.742-1.127,2.869c0,1.946,0.82,2.817,3.381,3.893C18.621,21.205,20.772,22.229,20.772,23.306z M22.873,26.84
		v-3.842c0-1.844-0.563-2.254-4.713-4.354c0.769-0.562,1.024-1.179,1.024-2.151c0-0.871-0.563-0.563-0.819-2.151
		c-0.103-0.666-0.615,0-0.718-1.485c0-0.615,0.308-0.769,0.308-0.769s-0.154-0.871-0.205-1.537c-0.103-0.871,0.41-3.022,3.022-3.022
		c2.664,0,3.176,2.152,3.073,3.022c-0.051,0.666-0.204,1.537-0.204,1.537s0.307,0.154,0.307,0.769
		c-0.103,1.485-0.614,0.819-0.717,1.485c-0.256,1.588-0.819,1.28-0.819,2.151c0,1.435,0.563,2.101,2.51,2.92
		c1.896,0.769,2.92,1.281,3.33,2.049c0.308,0.513,0.358,5.379,0.358,5.379H22.873L22.873,26.84z"/>
</g>
</svg>
