<?xml version="1.0" encoding="UTF-8"?>
<svg width="20px" height="20px" viewBox="0 0 20 20" version="1.1" xmlns="http://www.w3.org/2000/svg" xmlns:xlink="http://www.w3.org/1999/xlink">
    <!-- Generator: sketchtool 53.2 (72643) - https://sketchapp.com -->
    <title>056D744F-6FDD-453F-8449-B69F243DE594@0.5x</title>
    <desc>Created with sketchtool.</desc>
    <g id="Freshconnect-Icons" stroke="none" stroke-width="1" fill-rule="evenodd">
        <g transform="translate(-386.000000, -194.000000)" fill="#000000" id="Icon_Loading">
            <g transform="translate(384.000000, 192.000000)">
                <path d="M11.9999998,2.00198052 L12.0039612,2.0019813 C17.5249412,2.00307474 22,6.47901991 22,12 C22,12.5522847 21.5522847,13 21,13 C20.4477153,13 20,12.5522847 20,12 C20,7.581722 16.418278,4 12,4 C7.581722,4 4,7.581722 4,12 C4,16.7016548 7.19986486,20.7999662 11.76114,21.940285 L12,22 C6.4771525,22 2,17.5228475 2,12 C2,6.4782462 6.47626588,2.00198032 11.9980197,2.00198032 L11.9999998,2.00198052 Z" id="Rectangle"></path>
            </g>
        </g>
    </g>
</svg>