<!-- Generated by IcoMoon.io -->
<svg version="1.1" xmlns="http://www.w3.org/2000/svg" width="32" height="32" viewBox="0 0 32 32">
<title>Icon_No_Signal05x</title>
<path fill="#fff" d="M5.756 8.087c-1.389 0.493-2.676 1.080-3.84 1.746l-1.917-2.582c1.020-0.605 2.119-1.153 3.284-1.636l-3.284-3.284 2.331-2.331 29.669 29.669-2.331 2.331-12.759-12.759c-0.298-0.027-0.601-0.041-0.91-0.041-2.263 0-4.267 0.745-5.705 1.917l-1.909-2.571c1.499-1.184 3.377-2.023 5.46-2.369l-2.788-2.788c-1.873 0.463-3.553 1.179-4.96 2.075l-1.909-2.572c1.277-0.836 2.723-1.538 4.297-2.076l-2.729-2.729zM13.108 6.525l-2.864-2.864c1.844-0.301 3.772-0.461 5.756-0.461 6.143 0 11.748 1.531 16 4.051l-1.917 2.582c-3.679-2.104-8.597-3.433-14.083-3.433-0.984 0-1.949 0.043-2.892 0.125v0zM19.708 13.126l-3.525-3.525c4.471 0.033 8.543 1.273 11.628 3.291l-1.91 2.572c-1.709-1.089-3.821-1.912-6.194-2.338v0zM12.18 23.655c0.879-0.763 2.264-1.255 3.82-1.255s2.941 0.492 3.82 1.255l-3.82 5.145-3.82-5.145z"></path>
</svg>
