<?xml version="1.0" encoding="UTF-8"?>
<svg width="16px" height="20px" viewBox="0 0 16 20" version="1.1" xmlns="http://www.w3.org/2000/svg" xmlns:xlink="http://www.w3.org/1999/xlink">
    <!-- Generator: sketchtool 53 (72520) - https://sketchapp.com -->
    <title>31540521-B51C-48B5-82F3-C4065CBEB5E0@0.5x</title>
    <desc>Created with sketchtool.</desc>
    <g id="Freshconnect-Icons" stroke="none" stroke-width="1" fill-rule="evenodd">
        <g transform="translate(-244.000000, -194.000000)" fill="#000000" id="Icon_Notification_Bell">
            <g transform="translate(240.000000, 192.000000)">
                <path d="M11,2.5 C11,2.22385763 11.2238576,2 11.5,2 L12.5,2 C12.7761424,2 13,2.22385763 13,2.5 L13,3.02462784 C14.3851637,3.16268697 15.6589606,3.87487681 16.5020752,5.00134277 C17.4744761,6.30054517 18,7.87971262 18,9.50251586 L18,16 L20,17 L20,19 L4,19 L4,17 L6,16 L6,9.504126 C6,7.88039677 6.52653764,6.30044976 7.50061035,5.00134277 C8.34399192,3.87653671 9.61629801,3.16492097 11,3.02528503 L11,2.5 Z M10,20 L14,20 C14,21.1045695 13.1045695,22 12,22 C10.8954305,22 10,21.1045695 10,20 Z" id="Shape"></path>
            </g>
        </g>
    </g>
</svg>