<?xml version="1.0" encoding="UTF-8"?>
<svg width="59px" height="59px" viewBox="0 0 59 59" version="1.1" xmlns="http://www.w3.org/2000/svg" xmlns:xlink="http://www.w3.org/1999/xlink">
    <!-- Generator: Sketch 52.6 (67491) - http://www.bohemiancoding.com/sketch -->
    <title>huddle-svg-green</title>
    <desc>Created with Sketch.</desc>
    <g id="Page-1" stroke="none" stroke-width="1" fill="none" fill-rule="evenodd">
        <g id="huddle-svg-green" fill-rule="nonzero">
            <path d="M58.244849,50.9432842 C58.244849,54.9481679 54.9992911,58.1924225 50.9951664,58.1924225 L29.2446675,58.1924225 C13.2279271,58.1924225 0.244848952,45.2089941 0.244848952,29.1932086 C0.244848952,13.1766974 13.2279271,0.192422453 29.2446675,0.192422453 C45.2610451,0.192422453 58.244849,13.1766974 58.244849,29.1932086 L58.244849,50.9432842 Z" id="Shape" fill="#00B3B3"></path>
            <path d="M38.6498317,29.4467303 C38.4971852,29.4884093 38.4366347,29.4390944 38.3636989,29.3229658 C37.4810594,27.9179691 36.5958792,26.5146692 35.7058297,25.1143387 C35.6322587,24.9987404 35.6312001,24.928427 35.7188501,24.8183434 C37.1993727,22.9571045 37.6861053,20.8525789 37.2051948,18.5301133 C36.413381,14.7055059 32.5726603,12.1856747 28.7496179,12.9681375 C24.5824328,13.8209137 22.021529,18.1308218 23.24323,22.2298957 C23.5451355,23.2424945 24.0377962,24.1495701 24.7281986,24.9652275 C24.7090384,25.0030886 24.6991936,25.0283294 24.6845853,25.0507066 C23.7560036,26.4899587 22.8255164,27.9281502 21.9006397,29.3699475 C21.8320441,29.4774858 21.768953,29.4665623 21.6688119,29.4396247 C20.8114723,29.208322 19.9417473,29.1291 19.0567789,29.2214726 C17.3499331,29.3996425 15.8785143,30.0916416 14.679996,31.3139082 C12.3793957,33.6607661 11.8966856,37.1166254 13.4332068,40.0096589 C14.8293609,42.6379827 17.7715634,44.1824399 20.7014863,43.7509082 C23.4117551,43.3517228 25.3109439,41.8409907 26.4227649,39.3374918 C26.4883965,39.1894411 26.5575215,39.1292027 26.7274227,39.129839 C29.0171197,39.1364143 31.3069226,39.1364143 33.5967255,39.129839 C33.7747777,39.1292027 33.8475018,39.1884866 33.913451,39.3495819 C35.5437619,43.33433 40.3030077,45.0022334 44.0503621,42.9073586 C46.7906944,41.3752037 48.2364957,38.2432318 47.6479281,35.1140172 C46.8613013,30.9313732 42.7387881,28.3323201 38.6498317,29.4467303 Z" id="Shape" fill="#FFFFFF"></path>
            <path d="M19.7781975,39.7666903 C18.1298909,39.7730535 16.6027911,38.4343402 16.5926287,36.4929248 C16.5833133,34.695318 18.032502,33.2300828 19.7729046,33.2325221 C21.5242106,33.2349613 22.9400542,34.6943635 22.9400542,36.4978033 C22.9403718,38.3041065 21.5309855,39.760221 19.7781975,39.7666903 Z" id="Shape" fill="#00B3B3"></path>
            <path d="M30.1677904,16.8809813 C31.9199432,16.882254 33.3353634,18.3405957 33.3353634,20.1441415 C33.3353634,21.9588229 31.9175085,23.4189675 30.1532879,23.4127103 C28.4786228,23.4067713 26.9919605,22.0408023 26.9885731,20.1394751 C26.9853973,18.3283995 28.4224125,16.8799208 30.1677904,16.8809813 Z" id="Shape" fill="#00B3B3"></path>
            <path d="M35.0106637,31.8261466 C34.2429853,32.7620687 33.738151,33.8256793 33.4924559,35.0124179 C33.4884333,35.0310834 33.47753,35.048158 33.4663091,35.0744592 C31.2727306,35.0744592 29.0794698,35.0744592 26.8654608,35.0744592 C26.8376203,34.9661786 26.8066041,34.8521711 26.7788694,34.7376333 C26.5179308,33.6623569 26.0390316,32.6955732 25.3363497,31.8424788 C25.2445713,31.7306984 25.2385374,31.6548702 25.3196242,31.5305755 C26.2311629,30.1286543 27.1369852,28.722597 28.0404787,27.315267 C28.1081216,27.2103801 28.1634851,27.1750643 28.2965479,27.2112285 C29.5475715,27.5513421 30.8018766,27.5479484 32.0527943,27.2087893 C32.1797174,27.174428 32.240903,27.1948963 32.310769,27.3060404 C33.2072758,28.7335205 34.1083346,30.1584553 35.0103461,31.5825417 C35.064651,31.6686571 35.0904802,31.7285774 35.0106637,31.8261466 Z" id="Shape" fill="#00B3B3"></path>
            <path d="M40.5497615,39.7666903 C38.8881168,39.7617058 37.3876931,38.4025241 37.3833529,36.4941974 C37.3792245,34.6881063 38.8208973,33.2308252 40.5617234,33.2325221 C42.3126059,33.234431 43.7304608,34.6946817 43.7306725,36.4960004 C43.7307784,38.3104697 42.3083716,39.771993 40.5497615,39.7666903 Z" id="Shape" fill="#00B3B3"></path>
        </g>
    </g>
</svg>