<?xml version="1.0" encoding="UTF-8"?>
<svg width="16px" height="16px" viewBox="0 0 16 16" version="1.1" xmlns="http://www.w3.org/2000/svg" xmlns:xlink="http://www.w3.org/1999/xlink">
    <g id="Zoom-Integration-(MP)" stroke="none" stroke-width="1" fill="none" fill-rule="evenodd">
        <g id="Web-App-(TM)---Zoom-Workflow-#2---Screen-2-1" transform="translate(-532.000000, -518.000000)">
            <g id="HomePage">
                <g id="(Col-2)-Discussion-&amp;-Detail-Section" transform="translate(464.000000, 0.000000)">
                    <g id="Direct-Messages">
                        <g id="Updates-Copy" transform="translate(48.000000, 506.000000)">
                            <g id="Zoom-Logo" transform="translate(20.000000, 12.000000)">
                                <rect id="Rectangle" fill="#4A8CFF" x="0" y="0" width="16" height="16" rx="4"></rect>
                                <path d="M10.6214689,6.9220256 L12.9717514,5.20451148 C13.1769492,5.03727984 13.3333333,5.0761499 13.3333333,5.38530244 L13.3333333,10.6228166 C13.3333333,10.9699352 13.1380791,10.9301612 12.9717514,10.8036075 L10.6214689,9.0860934 L10.6214689,6.9220256 Z M2.66666667,5.3979578 L2.66666667,9.30304255 C2.67114903,10.185849 3.3901856,10.8980068 4.27299435,10.8940198 L9.9679096,10.8940198 C10.1283141,10.8945042 10.2588915,10.7651396 10.259887,10.6047375 L10.259887,6.69965272 C10.2554046,5.81684627 9.53636807,5.1046885 8.65355932,5.10867547 L2.95864407,5.10867547 C2.79823959,5.10819103 2.66766219,5.23755563 2.66666667,5.3979578 L2.66666667,5.3979578 Z" id="Shape" fill="#FFFFFF"></path>
                            </g>
                        </g>
                    </g>
                </g>
            </g>
        </g>
    </g>
</svg>