<svg xmlns="http://www.w3.org/2000/svg" width="56" height="56" fill="none" viewBox="0 0 56 56"><path fill="#EBEEF2" d="M28 56c15.464 0 28-12.536 28-28S43.464 0 28 0 0 12.536 0 28s12.536 28 28 28z"/><path fill="#fff" d="M21.631 12.242a.905.905 0 100-1.81.905.905 0 000 1.81z"/><path fill="#B2BCC6" d="M21.631 12.43a1.09 1.09 0 01-.776-.323 1.102 1.102 0 01-.325-.777c0-.294.114-.566.325-.777a1.125 1.125 0 011.553 0c.43.43.43 1.124 0 1.554a1.11 1.11 0 01-.777.324zm0-1.816a.714.714 0 00-.505.21.714.714 0 000 1.011.724.724 0 001.018 0 .724.724 0 000-1.018.713.713 0 00-.505-.211l-.008.008z"/><path fill="#fff" d="M10.931 33.19a.822.822 0 100-1.644.822.822 0 000 1.644z"/><path fill="#B2BCC6" d="M10.931 33.379c-.256 0-.52-.098-.716-.294a1.01 1.01 0 010-1.426 1.01 1.01 0 011.425 0 1.01 1.01 0 010 1.425 1.003 1.003 0 01-.716.295h.007zm0-1.644a.611.611 0 00-.445.188.633.633 0 000 .898.633.633 0 00.898 0 .633.633 0 000-.898.642.642 0 00-.445-.188h-.008z"/><path fill="#fff" d="M47.556 21.72a2.307 2.307 0 01-3.258 0 2.308 2.308 0 010 3.258 2.307 2.307 0 013.258 0 2.308 2.308 0 010-3.257z"/><path fill="#B2BCC6" d="M47.556 25.167a.193.193 0 01-.136-.053 2.116 2.116 0 00-2.986 0 .182.182 0 01-.264 0 .182.182 0 01-.052-.136c0-.053.015-.098.052-.136a2.116 2.116 0 000-2.986.182.182 0 01-.052-.135c0-.053.015-.098.052-.136a.182.182 0 01.264 0 2.116 2.116 0 002.986 0 .182.182 0 01.264 0 .182.182 0 01.053.136.182.182 0 01-.053.135 2.116 2.116 0 000 2.986.182.182 0 01.053.136.182.182 0 01-.189.189h.008zm-1.629-1.049c.325 0 .649.06.958.19a2.531 2.531 0 010-1.909 2.531 2.531 0 01-1.908 0 2.53 2.53 0 010 1.908c.302-.128.634-.188.958-.188h-.008z"/><path fill="#fff" d="M26.02 46.574c.52.52.52 1.358 0 1.878.52-.52 1.357-.52 1.878 0a1.324 1.324 0 010-1.878c-.52.52-1.358.52-1.878 0z"/><path fill="#B2BCC6" d="M27.898 48.64a.194.194 0 01-.136-.053 1.133 1.133 0 00-1.606 0 .182.182 0 01-.264 0 .182.182 0 01-.053-.135c0-.053.015-.098.053-.136a1.133 1.133 0 000-1.606.182.182 0 01-.053-.136c0-.053.015-.098.053-.136a.182.182 0 01.264 0 1.133 1.133 0 001.606 0 .182.182 0 01.264 0 .182.182 0 01.053.136.182.182 0 01-.053.136 1.133 1.133 0 000 1.606.182.182 0 01.053.136.182.182 0 01-.189.189h.008zm-.935-.761c.143 0 .286.022.422.06a1.577 1.577 0 010-.837 1.605 1.605 0 01-.845 0c.076.271.076.566 0 .837.136-.038.28-.06.423-.06z"/><path fill="#687A8B" d="M42.157 13.916H13.11v29.047h29.047V13.916z"/><path fill="#535665" d="M42.164 43.151H13.118a.187.187 0 01-.189-.188V13.916c0-.106.083-.189.189-.189h29.046c.106 0 .189.083.189.19v29.046a.187.187 0 01-.189.188zm-28.858-.377h28.67v-28.67h-28.67v28.67z"/><path fill="#B2BCC6" d="M38.032 29.661h-8.777v8.777h8.777v-8.777z"/><path fill="#535665" d="M38.032 38.635h-8.784a.187.187 0 01-.189-.189v-8.785c0-.105.083-.188.188-.188h8.785c.106 0 .189.083.189.188v8.785a.187.187 0 01-.189.189zm-8.596-.377h8.408V29.85h-8.408v8.407z"/><path fill="#B2BCC6" d="M26.02 29.661h-8.777v8.777h8.777v-8.777z"/><path fill="#535665" d="M26.02 38.635h-8.785a.187.187 0 01-.188-.189v-8.785c0-.105.083-.188.188-.188h8.785c.106 0 .189.083.189.188v8.785a.187.187 0 01-.189.189zm-8.596-.377h8.407V29.85h-8.407v8.407z"/><path fill="#B2BCC6" d="M38.032 27.218h-8.777v-8.785l8.777 8.785z"/><path fill="#535665" d="M38.032 27.406h-8.785a.187.187 0 01-.188-.188v-8.785a.19.19 0 01.113-.174.185.185 0 01.203.038l8.785 8.785a.185.185 0 01.038.204.19.19 0 01-.173.113l.007.007zm-8.596-.377h8.136l-8.136-8.136v8.136z"/><path fill="#B2BCC6" d="M26.02 18.433h-8.777v8.777h8.777v-8.777z"/><path fill="#535665" d="M26.02 27.406h-8.785a.187.187 0 01-.189-.188v-8.785c0-.106.083-.189.189-.189h8.785c.105 0 .188.083.188.189v8.785a.187.187 0 01-.188.188zm-8.596-.377h8.407v-8.408h-8.407v8.408z"/><path fill="#B2BCC6" d="M44.434 16.494c0-.437-.06-.867-.173-1.274l1.35-1.071-1.01-1.75-1.6.626a4.932 4.932 0 00-2.216-1.282l-.257-1.696h-2.02l-.257 1.696a4.932 4.932 0 00-2.217 1.282l-1.599-.625-1.01 1.749 1.35 1.07a4.769 4.769 0 000 2.55l-1.35 1.07 1.01 1.75 1.599-.626a4.85 4.85 0 002.217 1.274l.256 1.697h2.021l.257-1.697A4.957 4.957 0 0043 19.963l1.6.626 1.01-1.75-1.35-1.07a4.77 4.77 0 00.173-1.275zm-4.916 2.45c-1.35 0-2.444-1.1-2.444-2.45a2.443 2.443 0 012.444-2.443 2.45 2.45 0 012.45 2.443c0 1.35-1.1 2.45-2.45 2.45z"/><path fill="#535665" d="M40.528 23.13h-2.02a.194.194 0 01-.19-.159l-.233-1.576a5.068 5.068 0 01-2.089-1.206l-1.485.58a.186.186 0 01-.234-.082l-1.01-1.75a.187.187 0 01.045-.241l1.252-.996a4.94 4.94 0 01-.144-1.206c0-.415.045-.814.143-1.207l-1.251-.995a.187.187 0 01-.045-.241l1.01-1.75c.045-.083.143-.113.234-.083l1.478.581a5.079 5.079 0 012.096-1.214l.234-1.576a.188.188 0 01.188-.158h2.021c.09 0 .174.067.189.158l.233 1.576c.777.226 1.501.64 2.097 1.214l1.478-.58c.09-.03.188 0 .233.082l1.01 1.75a.187.187 0 01-.044.241l-1.252.995c.098.393.143.8.143 1.207 0 .407-.045.822-.143 1.206l1.252.996c.075.06.09.158.045.241l-1.01 1.75a.192.192 0 01-.234.082l-1.486-.58a5.117 5.117 0 01-2.089 1.206l-.233 1.576a.188.188 0 01-.189.159zm-1.862-.377h1.696l.227-1.539a.177.177 0 01.135-.15 4.667 4.667 0 002.127-1.23.203.203 0 01.203-.045l1.448.573.845-1.47-1.222-.973a.18.18 0 01-.06-.196c.105-.392.166-.807.166-1.23 0-.421-.053-.829-.166-1.228a.168.168 0 01.068-.196l1.221-.973-.844-1.463-1.448.573a.188.188 0 01-.204-.045 4.744 4.744 0 00-2.134-1.237.185.185 0 01-.135-.15l-.227-1.539h-1.696l-.227 1.539a.177.177 0 01-.135.15c-.8.211-1.539.634-2.134 1.237a.203.203 0 01-.204.045l-1.448-.573-.844 1.463 1.221.973c.06.045.083.128.068.196-.105.4-.166.814-.166 1.229 0 .415.053.837.166 1.229.023.075 0 .15-.06.196l-1.222.973.845 1.47 1.448-.573c.068-.03.15-.007.203.045a4.706 4.706 0 002.127 1.23.185.185 0 01.135.15l.227 1.539zm.844-3.62a2.64 2.64 0 01-2.631-2.64 2.634 2.634 0 012.631-2.63 2.645 2.645 0 012.64 2.63 2.647 2.647 0 01-2.64 2.64zm0-4.894a2.256 2.256 0 00-2.255 2.255 2.262 2.262 0 002.255 2.262 2.264 2.264 0 002.262-2.262 2.253 2.253 0 00-2.262-2.255z"/></svg>