<svg xmlns="http://www.w3.org/2000/svg" width="70" height="70" fill="none" viewBox="0 0 70 70"><path fill="#E4E0F6" d="M34.997 69.994c19.328 0 34.997-15.669 34.997-34.997S54.325 0 34.997 0 0 15.669 0 34.997s15.669 34.997 34.997 34.997z"/><path fill="#535665" d="M53.141 56.593H16.86a.134.134 0 01-.133-.133c0-.07.063-.133.133-.133h36.28c.076 0 .133.064.133.133 0 .07-.063.133-.133.133z"/><path fill="#E4E0F6" d="M42.122 20.108a4.617 4.617 0 100-9.234 4.617 4.617 0 000 9.234z"/><path fill="#535665" d="M42.122 20.266a4.779 4.779 0 01-4.775-4.775 4.779 4.779 0 014.775-4.775 4.779 4.779 0 014.775 4.775 4.779 4.779 0 01-4.775 4.775zm0-9.233a4.465 4.465 0 00-4.459 4.458 4.465 4.465 0 004.459 4.459 4.465 4.465 0 004.458-4.459 4.465 4.465 0 00-4.458-4.458z"/><path fill="#7865D4" d="M33.25 17.08h17.745c.652 0 1.184.532 1.184 1.184V56.46H32.071V18.264c0-.652.532-1.184 1.185-1.184h-.007z"/><path fill="#535665" d="M52.172 56.618H32.065a.157.157 0 01-.159-.158V18.265c0-.742.602-1.343 1.343-1.343h17.745c.741 0 1.343.601 1.343 1.343V56.46c0 .088-.07.158-.158.158h-.007zm-19.95-.317h19.792V18.265a1.03 1.03 0 00-1.026-1.027H33.243a1.03 1.03 0 00-1.026 1.027V56.3h.006z"/><path fill="#fff" d="M36.606 13.826h11.026c.779 0 1.412.633 1.412 1.412v1.843h-13.85V15.24c0-.78.633-1.413 1.412-1.413z"/><path fill="#535665" d="M49.044 17.22h-13.85a.14.14 0 01-.14-.139v-1.843c0-.855.697-1.551 1.551-1.551h11.026c.855 0 1.552.696 1.552 1.551v1.843a.14.14 0 01-.14.14zm-13.711-.278h13.571v-1.704c0-.703-.57-1.273-1.273-1.273H36.605c-.702 0-1.272.57-1.272 1.273v1.704z"/><path fill="#E4E0F6" d="M41.026 28.404h-4.104v2.572h4.104v-2.572z"/><path fill="#535665" d="M41.026 31.134h-4.104a.157.157 0 01-.158-.158v-2.572c0-.088.07-.158.158-.158h4.104c.089 0 .158.07.158.158v2.572c0 .088-.07.158-.158.158zm-3.946-.317h3.788v-2.254H37.08v2.254z"/><path fill="#E4E0F6" d="M47.321 28.404h-4.104v2.572h4.104v-2.572z"/><path fill="#535665" d="M47.321 31.134h-4.104a.157.157 0 01-.158-.158v-2.572c0-.088.07-.158.158-.158h4.104c.089 0 .158.07.158.158v2.572c0 .088-.07.158-.158.158zm-3.945-.317h3.787v-2.254h-3.787v2.254z"/><path fill="#E4E0F6" d="M41.026 34.313h-4.104v2.572h4.104v-2.572z"/><path fill="#535665" d="M41.026 37.043h-4.104a.157.157 0 01-.158-.158v-2.571c0-.09.07-.159.158-.159h4.104c.089 0 .158.07.158.159v2.57c0 .09-.07.16-.158.16zm-3.946-.316h3.788v-2.255H37.08v2.255z"/><path fill="#E4E0F6" d="M47.321 34.313h-4.104v2.572h4.104v-2.572z"/><path fill="#535665" d="M47.321 37.043h-4.104a.157.157 0 01-.158-.158v-2.571c0-.09.07-.159.158-.159h4.104c.089 0 .158.07.158.159v2.57c0 .09-.07.16-.158.16zm-3.945-.316h3.787v-2.255h-3.787v2.255z"/><path fill="#E4E0F6" d="M41.026 40.228h-4.104V42.8h4.104v-2.572z"/><path fill="#535665" d="M41.026 42.951h-4.104a.157.157 0 01-.158-.158v-2.571c0-.089.07-.159.158-.159h4.104c.089 0 .158.07.158.159v2.571c0 .089-.07.158-.158.158zm-3.946-.316h3.788V40.38H37.08v2.255z"/><path fill="#E4E0F6" d="M47.321 40.228h-4.104V42.8h4.104v-2.572z"/><path fill="#535665" d="M47.321 42.951h-4.104a.157.157 0 01-.158-.158v-2.571c0-.089.07-.159.158-.159h4.104c.089 0 .158.07.158.159v2.571c0 .089-.07.158-.158.158zm-3.945-.316h3.787V40.38h-3.787v2.255z"/><path fill="#E4E0F6" d="M41.026 46.137h-4.104v2.571h4.104v-2.571z"/><path fill="#535665" d="M41.026 48.866h-4.104a.157.157 0 01-.158-.158v-2.571c0-.089.07-.159.158-.159h4.104c.089 0 .158.07.158.159v2.571c0 .089-.07.158-.158.158zm-3.946-.316h3.788v-2.255H37.08v2.255z"/><path fill="#E4E0F6" d="M47.321 46.137h-4.104v2.571h4.104v-2.571z"/><path fill="#535665" d="M47.321 48.866h-4.104a.157.157 0 01-.158-.158v-2.571c0-.089.07-.159.158-.159h4.104c.089 0 .158.07.158.159v2.571c0 .089-.07.158-.158.158zm-3.945-.316h3.787v-2.255h-3.787v2.255z"/><path fill="#AEA3E5" d="M30.386 56.46H17.827V31.564l12.559-5.415v30.31z"/><path fill="#535665" d="M30.386 56.618H17.827a.157.157 0 01-.158-.158V31.565a.16.16 0 01.095-.146l12.559-5.415a.162.162 0 01.151.013c.045.032.07.076.07.133v30.304c0 .088-.07.158-.158.158v.006zm-12.4-.316h12.241V26.39l-12.241 5.276v24.636z"/><path fill="#E4E0F6" d="M27.574 34.56h-6.935v1.33h6.935v-1.33z"/><path fill="#535665" d="M27.574 36.049h-6.935a.157.157 0 01-.159-.158v-1.33c0-.089.07-.159.159-.159h6.935c.088 0 .158.07.158.159v1.33c0 .088-.07.158-.158.158zm-6.777-.317h6.618V34.72h-6.618v1.013z"/><path fill="#E4E0F6" d="M27.574 38.582h-6.935v1.33h6.935v-1.33z"/><path fill="#535665" d="M27.574 40.07h-6.935a.157.157 0 01-.159-.158v-1.33c0-.089.07-.158.159-.158h6.935c.088 0 .158.07.158.158v1.33c0 .089-.07.158-.158.158zm-6.777-.316h6.618V38.74h-6.618v1.014z"/><path fill="#E4E0F6" d="M27.574 42.605h-6.935v1.33h6.935v-1.33z"/><path fill="#535665" d="M27.574 44.099h-6.935a.157.157 0 01-.159-.159v-1.33c0-.088.07-.158.159-.158h6.935c.088 0 .158.07.158.159v1.33c0 .088-.07.158-.158.158zm-6.777-.317h6.618V42.77h-6.618v1.013z"/><path fill="#E4E0F6" d="M27.574 46.632h-6.935v1.33h6.935v-1.33z"/><path fill="#535665" d="M27.574 48.12h-6.935a.157.157 0 01-.159-.158v-1.33c0-.089.07-.158.159-.158h6.935c.088 0 .158.07.158.158v1.33c0 .089-.07.158-.158.158zm-6.777-.316h6.618V46.79h-6.618v1.014z"/><path fill="#E4E0F6" d="M27.574 50.653h-6.935v1.33h6.935v-1.33z"/><path fill="#535665" d="M27.574 52.142h-6.935a.157.157 0 01-.159-.159v-1.33c0-.088.07-.158.159-.158h6.935c.088 0 .158.07.158.158v1.33c0 .09-.07.159-.158.159zm-6.777-.317h6.618v-1.013h-6.618v1.013z"/><path fill="#fff" d="M10.791 32.92h12.135c.63 0 1.14-.51 1.14-1.14v-4.186c0-.63-.51-1.14-1.14-1.14H10.79c-.63 0-1.14.51-1.14 1.14v4.186c0 .63.51 1.14 1.14 1.14z"/><path fill="#535665" d="M22.926 33.053H10.792c-.703 0-1.273-.57-1.273-1.273V27.6c0-.703.57-1.273 1.273-1.273H22.92c.702 0 1.272.57 1.272 1.273v4.18c0 .703-.57 1.273-1.272 1.273h.006zm-12.128-6.466c-.557 0-1.013.456-1.013 1.013v4.18c0 .557.456 1.013 1.013 1.013h12.128c.557 0 1.013-.456 1.013-1.013V27.6c0-.557-.456-1.013-1.013-1.013H10.792h.006z"/><path fill="#535665" d="M16.34 28.765h-4.788a.134.134 0 01-.133-.133.13.13 0 01.133-.133h4.788c.07 0 .133.057.133.133a.13.13 0 01-.133.133zm0 1.058h-4.788a.134.134 0 01-.133-.133.13.13 0 01.133-.133h4.788c.07 0 .133.057.133.133a.13.13 0 01-.133.133zm0 1.051h-1.837a.134.134 0 01-.133-.133.13.13 0 01.133-.133h1.837c.07 0 .133.057.133.133a.13.13 0 01-.133.133z"/><path fill="#EC7170" d="M19.215 31.545h1.97a.874.874 0 00.874-.874v-1.97a.874.874 0 00-.874-.874h-1.97a.874.874 0 00-.874.874v1.97c0 .483.391.874.874.874z"/><path fill="#535665" d="M21.178 31.678h-1.963c-.557 0-1.007-.45-1.007-1.007v-1.963c0-.557.45-1.007 1.007-1.007h1.963c.558 0 1.007.45 1.007 1.007v1.963c0 .558-.45 1.007-1.007 1.007zm-1.963-3.717a.749.749 0 00-.747.747v1.963c0 .412.335.748.747.748h1.963a.749.749 0 00.748-.748v-1.963a.749.749 0 00-.748-.747h-1.963z"/><path fill="#fff" d="M58.063 19.227H45.928c-.63 0-1.14.51-1.14 1.14v4.187c0 .63.51 1.14 1.14 1.14h12.135c.63 0 1.14-.51 1.14-1.14v-4.186c0-.63-.51-1.14-1.14-1.14z"/><path fill="#535665" d="M58.056 25.82H45.928c-.703 0-1.273-.57-1.273-1.273v-4.18c0-.702.57-1.272 1.273-1.272h12.128c.703 0 1.273.57 1.273 1.273v4.18c0 .703-.57 1.273-1.273 1.273zm-12.128-6.466c-.557 0-1.013.456-1.013 1.014v4.18c0 .557.456 1.013 1.013 1.013h12.128c.558 0 1.014-.456 1.014-1.014v-4.18c0-.557-.456-1.013-1.014-1.013H45.928z"/><path fill="#535665" d="M57.302 21.533h-4.788a.134.134 0 01-.133-.133.13.13 0 01.133-.133h4.788c.07 0 .133.057.133.133a.13.13 0 01-.133.133zm0 1.057h-4.788a.134.134 0 01-.133-.133.13.13 0 01.133-.133h4.788c.07 0 .133.057.133.133a.13.13 0 01-.133.133zm-2.957 1.052h-1.837a.134.134 0 01-.133-.133.13.13 0 01.133-.133h1.837c.07 0 .133.057.133.133a.13.13 0 01-.133.133z"/><path fill="#F2AA3C" d="M49.64 20.602h-1.97a.874.874 0 00-.874.873v1.97c0 .483.391.874.874.874h1.97a.874.874 0 00.873-.874v-1.97a.874.874 0 00-.873-.873z"/><path fill="#535665" d="M49.633 24.446H47.67c-.557 0-1.007-.45-1.007-1.007v-1.963c0-.558.45-1.007 1.007-1.007h1.963c.557 0 1.007.45 1.007 1.007v1.963c0 .557-.45 1.007-1.007 1.007zm-1.963-3.718a.749.749 0 00-.747.748v1.963c0 .412.335.747.747.747h1.963a.749.749 0 00.747-.747v-1.963a.749.749 0 00-.747-.748H47.67z"/></svg>