<svg xmlns="http://www.w3.org/2000/svg" width="70" height="70" fill="none" viewBox="0 0 70 70"><g clip-path="url(#clip0_6011_119228)"><path fill="#E4E0F6" d="M35.003 0v70C15.668 70 0 54.325 0 34.997 0 15.668 15.668 0 35.003 0z"/><path fill="#DFF4EC" d="M70 34.997C70 54.325 54.332 70 35.003 70V0C54.332 0 70 15.668 70 34.997z"/><path fill="#535665" d="M59.038 56.605h-48.1a.134.134 0 01-.133-.133c0-.07.063-.133.133-.133h48.1c.076 0 .133.064.133.133 0 .07-.064.133-.133.133z"/><path fill="#DFF4EC" d="M46.67 23.762a4.155 4.155 0 100-8.31 4.155 4.155 0 000 8.31z"/><path fill="#535665" d="M46.669 23.907a4.311 4.311 0 01-4.307-4.306 4.311 4.311 0 014.307-4.307 4.311 4.311 0 014.306 4.307 4.311 4.311 0 01-4.306 4.306zm0-8.309a4.007 4.007 0 00-4.003 4.003 4.011 4.011 0 004.003 4.003A4.011 4.011 0 0050.67 19.6a4.011 4.011 0 00-4.002-4.003z"/><path fill="#79BEA8" d="M37.505 21.039h18.322c.652 0 1.184.532 1.184 1.184V56.46H36.327V22.223c0-.652.532-1.184 1.184-1.184h-.006z"/><path fill="#535665" d="M57.01 56.605H36.328a.154.154 0 01-.152-.151V22.222c0-.735.595-1.33 1.33-1.33h18.322c.734 0 1.33.595 1.33 1.33V56.46c0 .082-.07.152-.153.152l.007-.007zm-20.538-.297H56.86V22.223c0-.57-.462-1.032-1.032-1.032H37.505c-.57 0-1.033.462-1.033 1.032v34.085z"/><path fill="#fff" d="M40.55 18.106h12.23c.779 0 1.412.633 1.412 1.412v1.514h-15.06v-1.514c0-.779.633-1.412 1.412-1.412h.007z"/><path fill="#535665" d="M54.199 21.178h-15.06a.14.14 0 01-.14-.14v-1.513c0-.855.697-1.552 1.552-1.552H52.78c.855 0 1.551.697 1.551 1.552v1.513a.14.14 0 01-.139.14h.007zm-14.921-.279h14.775v-1.374c0-.703-.57-1.273-1.273-1.273H40.55c-.702 0-1.272.57-1.272 1.273v1.374z"/><path fill="#DFF4EC" d="M44.65 26.472h-3.262v3.262h3.261v-3.262z"/><path fill="#535665" d="M44.649 29.886h-3.262a.154.154 0 01-.152-.152v-3.262c0-.082.07-.152.152-.152h3.262c.082 0 .152.07.152.152v3.262c0 .082-.07.152-.152.152zm-3.116-.298h2.964v-2.964h-2.964v2.964z"/><path fill="#DFF4EC" d="M44.65 33.565h-3.262v3.262h3.261v-3.262z"/><path fill="#535665" d="M44.649 36.98h-3.262a.154.154 0 01-.152-.153v-3.261c0-.083.07-.152.152-.152h3.262c.082 0 .152.07.152.152v3.261c0 .083-.07.152-.152.152zm-3.116-.298h2.964v-2.964h-2.964v2.963z"/><path fill="#DFF4EC" d="M44.65 40.665h-3.262v3.261h3.261v-3.261z"/><path fill="#535665" d="M44.649 44.072h-3.262a.154.154 0 01-.152-.152v-3.262c0-.082.07-.152.152-.152h3.262c.082 0 .152.07.152.152v3.262c0 .082-.07.152-.152.152zm-3.116-.298h2.964V40.81h-2.964v2.964z"/><path fill="#DFF4EC" d="M44.65 47.758h-3.262v3.261h3.261v-3.261z"/><path fill="#535665" d="M44.649 51.165h-3.262a.154.154 0 01-.152-.152v-3.261c0-.083.07-.152.152-.152h3.262c.082 0 .152.07.152.152v3.261c0 .083-.07.152-.152.152zm-3.116-.297h2.964v-2.964h-2.964v2.963z"/><path fill="#fff" d="M58.993 26.472h-10.19c-.63 0-1.14.51-1.14 1.14v3.312c0 .63.51 1.14 1.14 1.14h10.19c.63 0 1.14-.51 1.14-1.14v-3.312c0-.63-.51-1.14-1.14-1.14z"/><path fill="#535665" d="M58.993 32.197H48.809c-.703 0-1.273-.57-1.273-1.273v-3.312c0-.703.57-1.273 1.273-1.273h10.184c.703 0 1.273.57 1.273 1.273v3.313c0 .703-.57 1.272-1.273 1.272zm-10.184-5.592c-.557 0-1.013.456-1.013 1.014v3.312c0 .557.456 1.013 1.013 1.013h10.184c.557 0 1.013-.456 1.013-1.013v-3.312c0-.558-.456-1.014-1.013-1.014H48.809z"/><path fill="#535665" d="M58.492 28.486H54.35a.134.134 0 01-.133-.133.13.13 0 01.133-.133h4.142c.07 0 .133.057.133.133a.13.13 0 01-.133.133zM58.492 29.398H54.35a.134.134 0 01-.133-.133.13.13 0 01.133-.133h4.142c.07 0 .133.057.133.133a.13.13 0 01-.133.133zM55.934 30.316H54.35a.134.134 0 01-.133-.133.13.13 0 01.133-.133h1.584c.07 0 .133.057.133.133a.13.13 0 01-.133.133z"/><path fill="#F2AA3C" d="M51.735 27.663h-1.463a.874.874 0 00-.874.874V30c0 .482.392.873.874.873h1.463A.874.874 0 0052.61 30v-1.463a.874.874 0 00-.874-.874z"/><path fill="#535665" d="M51.741 31.007h-1.463c-.557 0-1.006-.45-1.006-1.007v-1.463c0-.558.45-1.007 1.006-1.007h1.463c.558 0 1.007.45 1.007 1.007V30c0 .557-.45 1.007-1.007 1.007zm-1.463-3.211a.749.749 0 00-.747.747v1.463c0 .412.336.747.747.747h1.463a.749.749 0 00.748-.747v-1.463a.749.749 0 00-.748-.747h-1.463z"/><path fill="#fff" d="M58.993 35.946h-10.19c-.63 0-1.14.51-1.14 1.14V40.4c0 .63.51 1.14 1.14 1.14h10.19c.63 0 1.14-.51 1.14-1.14v-3.313c0-.63-.51-1.14-1.14-1.14z"/><path fill="#535665" d="M58.993 41.672H48.809c-.703 0-1.273-.57-1.273-1.273v-3.313c0-.703.57-1.273 1.273-1.273h10.184c.703 0 1.273.57 1.273 1.273V40.4c0 .703-.57 1.273-1.273 1.273zM48.809 36.08c-.557 0-1.013.456-1.013 1.013v3.312c0 .557.456 1.013 1.013 1.013h10.184c.557 0 1.013-.456 1.013-1.013v-3.312c0-.558-.456-1.014-1.013-1.014H48.809z"/><path fill="#535665" d="M58.492 37.967H54.35a.134.134 0 01-.133-.133.13.13 0 01.133-.133h4.142c.07 0 .133.057.133.133a.13.13 0 01-.133.133zM58.492 38.879H54.35a.134.134 0 01-.133-.133.13.13 0 01.133-.133h4.142c.07 0 .133.057.133.133a.13.13 0 01-.133.133zM55.934 39.79H54.35a.134.134 0 01-.133-.133.13.13 0 01.133-.133h1.584c.07 0 .133.057.133.133a.13.13 0 01-.133.133z"/><path fill="#EC7170" d="M51.735 37.137h-1.463a.874.874 0 00-.874.874v1.463c0 .482.392.874.874.874h1.463a.874.874 0 00.874-.874V38.01a.874.874 0 00-.874-.874z"/><path fill="#535665" d="M51.741 40.48h-1.463c-.557 0-1.006-.449-1.006-1.006V38.01c0-.557.45-1.007 1.006-1.007h1.463c.558 0 1.007.45 1.007 1.007v1.463c0 .557-.45 1.007-1.007 1.007zm-1.463-3.21a.749.749 0 00-.747.747v1.463c0 .412.336.748.747.748h1.463a.749.749 0 00.748-.748v-1.463a.749.749 0 00-.748-.747h-1.463z"/><path fill="#fff" d="M58.993 45.427h-10.19c-.63 0-1.14.51-1.14 1.14v3.312c0 .63.51 1.14 1.14 1.14h10.19c.63 0 1.14-.51 1.14-1.14v-3.312c0-.63-.51-1.14-1.14-1.14z"/><path fill="#535665" d="M58.993 51.146H48.809c-.703 0-1.273-.57-1.273-1.273v-3.312c0-.703.57-1.273 1.273-1.273h10.184c.703 0 1.273.57 1.273 1.273v3.312c0 .703-.57 1.273-1.273 1.273zm-10.184-5.592c-.557 0-1.013.456-1.013 1.013v3.313c0 .557.456 1.013 1.013 1.013h10.184c.557 0 1.013-.456 1.013-1.013v-3.313c0-.557-.456-1.013-1.013-1.013H48.809z"/><path fill="#535665" d="M58.492 47.441H54.35a.134.134 0 01-.133-.133.13.13 0 01.133-.133h4.142c.07 0 .133.057.133.133a.13.13 0 01-.133.133zM58.492 48.353H54.35a.134.134 0 01-.133-.133.13.13 0 01.133-.133h4.142c.07 0 .133.057.133.133a.13.13 0 01-.133.133zM55.934 49.265H54.35a.134.134 0 01-.133-.133.13.13 0 01.133-.133h1.584c.07 0 .133.057.133.133a.13.13 0 01-.133.133z"/><path fill="#A3C9F5" d="M51.735 46.611h-1.463a.874.874 0 00-.874.874v1.463c0 .483.392.874.874.874h1.463a.874.874 0 00.874-.874v-1.463a.874.874 0 00-.874-.874z"/><path fill="#535665" d="M51.741 49.962h-1.463c-.557 0-1.006-.45-1.006-1.007v-1.463c0-.557.45-1.007 1.006-1.007h1.463c.558 0 1.007.45 1.007 1.007v1.463c0 .557-.45 1.007-1.007 1.007zm-1.463-3.211a.749.749 0 00-.747.747v1.463c0 .412.336.747.747.747h1.463a.749.749 0 00.748-.747v-1.463a.749.749 0 00-.748-.747h-1.463zM51.007 36.08a.134.134 0 01-.133-.133V32.21c0-.07.057-.133.133-.133a.13.13 0 01.133.133v3.737c0 .07-.057.133-.133.133zM51.007 45.408a.134.134 0 01-.133-.133V41.54c0-.07.057-.133.133-.133a.13.13 0 01.133.133v3.736c0 .07-.057.133-.133.133z"/><path fill="#7865D4" d="M33.876 56.454h-16.32V24.117l16.32-7.036v39.373z"/><path fill="#535665" d="M33.876 56.612h-16.32a.157.157 0 01-.159-.159V24.117a.16.16 0 01.096-.146l16.32-7.036c.05-.02.108-.02.152.013.044.031.07.075.07.133v39.373c0 .088-.07.158-.159.158zm-16.162-.317h16.004V17.321l-16.004 6.897v32.077z"/><path fill="#E4E0F6" d="M30.229 28.005h-9.012v1.729h9.012v-1.73z"/><path fill="#535665" d="M30.222 29.892H21.21a.157.157 0 01-.158-.158v-1.729c0-.089.07-.158.158-.158h9.012c.089 0 .158.07.158.158v1.729c0 .089-.07.158-.158.158zm-8.854-.316h8.696v-1.413h-8.696v1.413z"/><path fill="#E4E0F6" d="M30.229 33.23h-9.012v1.728h9.012V33.23z"/><path fill="#535665" d="M30.222 35.117H21.21a.157.157 0 01-.158-.158v-1.73c0-.088.07-.158.158-.158h9.012c.089 0 .158.07.158.159v1.729c0 .088-.07.158-.158.158zm-8.854-.317h8.696v-1.412h-8.696V34.8z"/><path fill="#E4E0F6" d="M30.229 38.46h-9.012v1.73h9.012v-1.73z"/><path fill="#535665" d="M30.222 40.348H21.21a.157.157 0 01-.158-.158v-1.729c0-.089.07-.158.158-.158h9.012c.089 0 .158.07.158.158v1.729c0 .089-.07.158-.158.158zm-8.854-.316h8.696v-1.413h-8.696v1.413z"/><path fill="#E4E0F6" d="M30.229 43.685h-9.012v1.73h9.012v-1.73z"/><path fill="#535665" d="M30.222 45.573H21.21a.157.157 0 01-.158-.158v-1.73c0-.088.07-.158.158-.158h9.012c.089 0 .158.07.158.159v1.729c0 .088-.07.158-.158.158zm-8.854-.317h8.696v-1.412h-8.696v1.412z"/><path fill="#E4E0F6" d="M30.229 48.91h-9.012v1.73h9.012v-1.73z"/><path fill="#535665" d="M30.222 50.798H21.21a.157.157 0 01-.158-.158v-1.73c0-.088.07-.158.158-.158h9.012c.089 0 .158.07.158.159v1.729c0 .088-.07.158-.158.158zm-8.854-.317h8.696V49.07h-8.696v1.412z"/><path fill="#AEA3E5" d="M15.117 56.453H25.72V35.447L15.117 30.88v25.573z"/><path fill="#535665" d="M25.719 56.612H15.117a.157.157 0 01-.158-.159V30.88c0-.05.025-.101.07-.133.044-.031.1-.031.151-.012L25.782 35.3a.16.16 0 01.095.145v21.008c0 .088-.07.158-.158.158zm-10.444-.317H25.56v-20.74L15.275 31.12v25.18-.006z"/><path fill="#E4E0F6" d="M17.492 39.1h5.851v-1.12h-5.851v1.12z"/><path fill="#535665" d="M23.344 39.259h-5.852a.157.157 0 01-.158-.158V37.98c0-.089.07-.159.158-.159h5.852c.088 0 .158.07.158.159v1.12c0 .09-.07.159-.158.159zm-5.694-.317h5.536v-.804H17.65v.804z"/><path fill="#E4E0F6" d="M17.492 42.495h5.851v-1.12h-5.851v1.12z"/><path fill="#535665" d="M23.344 42.653h-5.852a.157.157 0 01-.158-.158v-1.12c0-.09.07-.16.158-.16h5.852c.088 0 .158.07.158.16v1.12c0 .089-.07.158-.158.158zm-5.694-.316h5.536v-.805H17.65v.805z"/><path fill="#E4E0F6" d="M17.492 45.89h5.851v-1.121h-5.851v1.12z"/><path fill="#535665" d="M23.344 46.048h-5.852a.157.157 0 01-.158-.158v-1.121c0-.089.07-.159.158-.159h5.852c.088 0 .158.07.158.159v1.12c0 .09-.07.159-.158.159zm-5.694-.317h5.536v-.804H17.65v.804z"/><path fill="#E4E0F6" d="M17.492 49.284h5.851v-1.12h-5.851v1.12z"/><path fill="#535665" d="M23.344 49.443h-5.852a.157.157 0 01-.158-.159v-1.12c0-.09.07-.16.158-.16h5.852c.088 0 .158.07.158.16v1.12c0 .089-.07.159-.158.159zm-5.694-.317h5.536v-.804H17.65v.804z"/><path fill="#E4E0F6" d="M17.492 52.679h5.851v-1.121h-5.851v1.12z"/><path fill="#535665" d="M23.344 52.837h-5.852a.157.157 0 01-.158-.158v-1.121c0-.089.07-.159.158-.159h5.852c.088 0 .158.07.158.159v1.12c0 .09-.07.159-.158.159zm-5.694-.317h5.536v-.804H17.65v.804z"/><path fill="#fff" d="M13.37 26.745h12.133c.63 0 1.14-.51 1.14-1.14v-4.186c0-.63-.51-1.14-1.14-1.14H13.37c-.63 0-1.14.51-1.14 1.14v4.186c0 .63.51 1.14 1.14 1.14z"/><path fill="#535665" d="M25.503 26.871H13.376c-.704 0-1.274-.57-1.274-1.273v-4.18c0-.703.57-1.273 1.274-1.273h12.127c.703 0 1.273.57 1.273 1.274v4.18c0 .702-.57 1.272-1.273 1.272zm-12.127-6.466c-.558 0-1.014.456-1.014 1.014v4.18c0 .557.456 1.013 1.014 1.013h12.127c.558 0 1.014-.456 1.014-1.014v-4.18c0-.557-.456-1.013-1.014-1.013H13.376z"/><path fill="#535665" d="M18.917 22.584h-4.788a.134.134 0 01-.133-.133.13.13 0 01.133-.133h4.788c.07 0 .133.057.133.133a.13.13 0 01-.133.133zM18.917 23.642h-4.788a.134.134 0 01-.133-.133.13.13 0 01.133-.134h4.788c.07 0 .133.058.133.134a.13.13 0 01-.133.133zM18.917 24.693H17.08a.134.134 0 01-.133-.133.13.13 0 01.133-.133h1.837c.07 0 .133.057.133.133a.13.13 0 01-.133.133z"/><path fill="#F2AA3C" d="M21.792 25.37h1.97a.874.874 0 00.874-.873v-1.97a.874.874 0 00-.874-.874h-1.97a.874.874 0 00-.874.874v1.97c0 .482.392.874.874.874z"/><path fill="#535665" d="M23.762 25.497H21.8c-.557 0-1.007-.45-1.007-1.007v-1.963c0-.557.45-1.007 1.007-1.007h1.963c.558 0 1.007.45 1.007 1.007v1.963c0 .558-.45 1.007-1.007 1.007zM21.8 21.78a.749.749 0 00-.747.747v1.963c0 .412.335.748.747.748h1.963a.749.749 0 00.747-.748v-1.963a.749.749 0 00-.747-.747H21.8z"/><path fill="#fff" d="M7.416 43.23H19.55c.63 0 1.14-.51 1.14-1.14v-4.186c0-.63-.51-1.14-1.14-1.14H7.416c-.63 0-1.14.51-1.14 1.14v4.186c0 .63.51 1.14 1.14 1.14z"/><path fill="#535665" d="M19.55 43.363H7.422c-.703 0-1.273-.57-1.273-1.273v-4.18c0-.703.57-1.273 1.273-1.273H19.55c.703 0 1.273.57 1.273 1.273v4.18c0 .703-.57 1.273-1.273 1.273zM7.422 36.897c-.557 0-1.013.456-1.013 1.013v4.18c0 .557.456 1.013 1.013 1.013H19.55c.558 0 1.014-.456 1.014-1.013v-4.18c0-.557-.456-1.013-1.014-1.013H7.422z"/><path fill="#535665" d="M12.964 39.076H8.176a.134.134 0 01-.133-.133.13.13 0 01.133-.133h4.788c.07 0 .133.057.133.133a.13.13 0 01-.133.133zM12.964 40.133H8.176A.134.134 0 018.043 40a.13.13 0 01.133-.133h4.788c.07 0 .133.057.133.133a.13.13 0 01-.133.133zM12.964 41.184h-1.837a.134.134 0 01-.133-.133.13.13 0 01.133-.133h1.837c.07 0 .133.057.133.133a.13.13 0 01-.133.133z"/><path fill="#A3C9F5" d="M15.839 41.856h1.97a.874.874 0 00.874-.874v-1.97a.874.874 0 00-.874-.874h-1.97a.874.874 0 00-.874.874v1.97c0 .483.391.874.874.874z"/><path fill="#535665" d="M17.81 41.989h-1.964c-.557 0-1.007-.45-1.007-1.007v-1.963c0-.558.45-1.007 1.007-1.007h1.963c.557 0 1.007.45 1.007 1.007v1.963c0 .557-.45 1.007-1.007 1.007zm-1.964-3.718a.749.749 0 00-.748.748v1.963c0 .412.336.747.748.747h1.963a.749.749 0 00.747-.747v-1.963a.749.749 0 00-.747-.748h-1.963z"/></g><defs><clipPath id="clip0_6011_119228"><path fill="#fff" d="M0 0h70v70H0z"/></clipPath></defs></svg>