<svg width="150" height="150" viewBox="0 0 150 150" fill="none" xmlns="http://www.w3.org/2000/svg">
	<g clip-path="url(#clip0_11739_18693)">
		<mask id="mask0_11739_18693" style="mask-type:luminance" maskUnits="userSpaceOnUse" x="0" y="0" width="150" height="150">
			<path d="M150 0H0V150H150V0Z" fill="white"/>
		</mask>
		<g mask="url(#mask0_11739_18693)">
			<path opacity="0.2" d="M75 121.66C102.61 121.66 125 99.27 125 71.66C125 44.05 102.61 21.66 75 21.66C47.39 21.66 25 44.05 25 71.66C25 99.27 47.39 121.66 75 121.66Z" fill="#BFC7D3"/>
			<path d="M31.3501 117.1H106.99V31.1C106.99 28.89 105.2 27.1 102.99 27.1H40.9901C38.7801 27.1 36.9901 28.89 36.9901 31.1V111.25C36.9901 112.87 36.3201 114.42 35.1301 115.52C34.3401 116.25 33.5401 116.59 33.3101 116.68C32.5301 117 31.8301 117.08 31.3501 117.1Z" fill="white"/>
			<path d="M107.59 117.7H31.3498L31.3198 116.5C31.9298 116.47 32.5198 116.35 33.0798 116.12C33.4098 115.98 34.0798 115.66 34.7098 115.08C35.7698 114.1 36.3798 112.7 36.3798 111.25V31.1C36.3798 28.56 38.4398 26.5 40.9798 26.5H102.98C105.52 26.5 107.58 28.56 107.58 31.1V117.7H107.59ZM34.8598 116.5H106.39V31.1C106.39 29.22 104.86 27.7 102.99 27.7H40.9898C39.1098 27.7 37.5898 29.23 37.5898 31.1V111.25C37.5898 113.03 36.8398 114.75 35.5398 115.96C35.3098 116.17 35.0898 116.35 34.8698 116.5H34.8598Z" fill="#92A2B1"/>
			<path d="M25.25 92.53H36.99V111.23C36.99 114.47 34.36 117.1 31.12 117.1C27.88 117.1 25.25 114.47 25.25 111.23V92.53Z" fill="white"/>
			<path d="M31.1199 117.7C27.5499 117.7 24.6499 114.8 24.6499 111.23V91.93H37.5899V111.23C37.5899 114.8 34.6899 117.7 31.1199 117.7ZM25.8499 93.12V111.23C25.8499 114.14 28.2099 116.5 31.1199 116.5C34.0299 116.5 36.3899 114.13 36.3899 111.23V93.12H25.8499Z" fill="#92A2B1"/>
			<path d="M114.46 117.35L119.62 109.98L130.9 117.87C132.93 119.29 133.43 122.1 132.01 124.14C130.59 126.17 127.78 126.67 125.74 125.25L114.46 117.35Z" fill="white"/>
			<path d="M128.32 126.66C127.31 126.66 126.29 126.36 125.4 125.74L113.62 117.5L119.47 109.14L131.25 117.38C133.55 118.99 134.12 122.18 132.5 124.48C131.51 125.9 129.92 126.65 128.31 126.65H128.32V126.66ZM115.3 117.21L126.09 124.76C127.85 125.99 130.29 125.56 131.52 123.8C132.75 122.04 132.32 119.6 130.56 118.37L119.77 110.82L115.3 117.21Z" fill="#92A2B1"/>
			<path d="M114.58 109.25L112.05 112.86L115.66 115.39L118.19 111.78L114.58 109.25Z" fill="white"/>
			<path d="M115.81 116.23L111.21 113.01L114.43 108.41L119.03 111.63L115.81 116.23ZM112.88 112.72L115.51 114.56L117.35 111.93L114.72 110.09L112.88 112.72Z" fill="#92A2B1"/>
			<path d="M92.8198 121.92C106.48 121.92 117.55 110.85 117.55 97.19C117.55 83.53 106.48 72.46 92.8198 72.46C79.1598 72.46 68.0898 83.53 68.0898 97.19C68.0898 110.85 79.1598 121.92 92.8198 121.92Z" fill="white"/>
			<path d="M92.8197 122.52C78.8497 122.52 67.4897 111.16 67.4897 97.19C67.4897 83.22 78.8497 71.86 92.8197 71.86C106.79 71.86 118.15 83.22 118.15 97.19C118.15 111.16 106.79 122.52 92.8197 122.52ZM92.8197 73.06C79.5097 73.06 68.6898 83.89 68.6898 97.19C68.6898 110.49 79.5197 121.32 92.8197 121.32C106.12 121.32 116.95 110.49 116.95 97.19C116.95 83.89 106.12 73.06 92.8197 73.06Z" fill="#92A2B1"/>
			<path d="M92.82 117.26C103.9 117.26 112.89 108.27 112.89 97.19C112.89 86.11 103.9 77.12 92.82 77.12C81.74 77.12 72.75 86.11 72.75 97.19C72.75 108.27 81.74 117.26 92.82 117.26Z" fill="white"/>
			<path d="M92.8199 117.87C81.4199 117.87 72.1499 108.6 72.1499 97.2C72.1499 85.8 81.4199 76.53 92.8199 76.53C104.22 76.53 113.49 85.8 113.49 97.2C113.49 108.6 104.22 117.87 92.8199 117.87ZM92.8199 77.72C82.0799 77.72 73.3499 86.46 73.3499 97.19C73.3499 107.92 82.0899 116.67 92.8199 116.67C103.55 116.67 112.3 107.93 112.3 97.19C112.3 86.45 103.56 77.72 92.8199 77.72Z" fill="#92A2B1"/>
			<g opacity="0.25">
				<path d="M90.9199 100.83V100.37C90.9199 98.71 91.5299 97.39 93.5599 95.59C94.8099 94.46 95.1199 93.58 95.1199 92.58C95.1199 91.47 94.4599 90.42 92.9099 90.42C91.2499 90.42 90.5899 91.52 90.3999 93H87.1299C87.2499 90.96 88.5599 87.79 92.9699 87.81C97.1899 87.83 98.4799 90.62 98.4799 92.68C98.4799 94.42 97.9099 95.6 95.9699 97.39C94.7599 98.51 94.3599 99.4 94.3599 100.57V100.83H90.9099H90.9199ZM90.9199 106.57V102.4H94.3699V106.57H90.9199Z" fill="#C4CCD4"/>
			</g>
			<path d="M68.0797 64.6C67.8897 64.6 67.6997 64.51 67.5897 64.35C67.3997 64.08 67.4697 63.7 67.7397 63.51C68.6597 62.87 70.5797 61.79 73.1697 61.84C75.6097 61.88 77.4097 62.9 78.2697 63.51C78.5397 63.7 78.6097 64.08 78.4197 64.35C78.2297 64.62 77.8597 64.69 77.5797 64.5C76.8297 63.97 75.2597 63.09 73.1497 63.05C70.8797 62.99 69.2197 63.94 68.4297 64.5C68.3197 64.57 68.1997 64.61 68.0897 64.61H68.0797V64.6Z" fill="#C4CCD4"/>
			<path d="M57.3198 54.32C57.1698 54.32 57.0198 54.27 56.8998 54.15C56.6598 53.92 56.6498 53.54 56.8798 53.3L63.0798 46.84C63.3098 46.6 63.6898 46.59 63.9298 46.82C64.1698 47.05 64.1798 47.43 63.9498 47.67L57.7498 54.13C57.6298 54.25 57.4698 54.31 57.3198 54.31V54.32Z" fill="#C4CCD4"/>
			<path d="M63.6499 54.19C63.4999 54.19 63.3499 54.14 63.2299 54.02L56.7699 47.82C56.5299 47.59 56.5199 47.21 56.7499 46.97C56.9799 46.73 57.3599 46.72 57.5999 46.95L64.0599 53.15C64.2999 53.38 64.3099 53.76 64.0799 54C63.9599 54.12 63.7999 54.18 63.6499 54.18V54.19Z" fill="#C4CCD4"/>
			<path d="M81.4497 54.32C81.2997 54.32 81.1497 54.27 81.0297 54.15C80.7897 53.92 80.7797 53.54 81.0097 53.3L87.2097 46.84C87.4397 46.6 87.8197 46.59 88.0597 46.82C88.2997 47.05 88.3097 47.43 88.0797 47.67L81.8797 54.13C81.7597 54.25 81.5997 54.31 81.4497 54.31V54.32Z" fill="#C4CCD4"/>
			<path d="M87.7798 54.19C87.6298 54.19 87.4798 54.14 87.3598 54.02L80.8998 47.82C80.6598 47.59 80.6498 47.21 80.8798 46.97C81.1098 46.73 81.4898 46.72 81.7298 46.95L88.1898 53.15C88.4298 53.38 88.4398 53.76 88.2098 54C88.0898 54.12 87.9298 54.18 87.7798 54.18V54.19Z" fill="#C4CCD4"/>
			<path d="M140 134.34H134.47C134.14 134.34 133.87 134.07 133.87 133.74C133.87 133.41 134.14 133.14 134.47 133.14H140C140.33 133.14 140.6 133.41 140.6 133.74C140.6 134.07 140.33 134.34 140 134.34Z" fill="#92A2B1"/>
			<path d="M128.46 134.34H104.24C103.91 134.34 103.64 134.07 103.64 133.74C103.64 133.41 103.91 133.14 104.24 133.14H128.46C128.79 133.14 129.06 133.41 129.06 133.74C129.06 134.07 128.79 134.34 128.46 134.34Z" fill="#92A2B1"/>
			<path d="M98.4999 134.34H9.9999C9.6699 134.34 9.3999 134.07 9.3999 133.74C9.3999 133.41 9.6699 133.14 9.9999 133.14H98.4999C98.8299 133.14 99.0999 133.41 99.0999 133.74C99.0999 134.07 98.8299 134.34 98.4999 134.34Z" fill="#92A2B1"/>
			<path d="M26.1201 33.58H18.9501C18.6201 33.58 18.3501 33.31 18.3501 32.98C18.3501 32.65 18.6201 32.38 18.9501 32.38H26.1201C26.4501 32.38 26.7201 32.65 26.7201 32.98C26.7201 33.31 26.4501 33.58 26.1201 33.58Z" fill="#92A2B1"/>
			<path d="M34.6098 24.04C34.2798 24.04 34.0098 23.77 34.0098 23.44V16.26C34.0098 15.93 34.2798 15.66 34.6098 15.66C34.9398 15.66 35.2098 15.93 35.2098 16.26V23.44C35.2098 23.77 34.9398 24.04 34.6098 24.04Z" fill="#92A2B1"/>
			<path d="M27.6799 26.36C27.5499 26.36 27.4199 26.32 27.3099 26.24L21.6199 21.87C21.3599 21.67 21.3099 21.29 21.5099 21.03C21.7099 20.77 22.0899 20.72 22.3499 20.92L28.0399 25.29C28.2999 25.49 28.3499 25.87 28.1499 26.13C28.0299 26.28 27.8499 26.36 27.6699 26.36H27.6799Z" fill="#92A2B1"/>
		</g>
		<rect width="150" height="150" fill="white"/>
		<path d="M134.47 133.29H140M104.25 133.29H128.47M10 133.29H98.5" stroke="#92A2B1" stroke-width="1.2" stroke-linecap="round" stroke-linejoin="round"/>
		<path opacity="0.2" d="M72.4203 126.39C99.9297 126.39 122.23 104.089 122.23 76.58C122.23 49.0707 99.9297 26.77 72.4203 26.77C44.911 26.77 22.6104 49.0707 22.6104 76.58C22.6104 104.089 44.911 126.39 72.4203 126.39Z" fill="#BFC7D3"/>
		<path d="M21.262 89.0717L18.5969 96.9597C17.9864 98.7665 18.9506 100.718 20.7567 101.331L87.0371 123.819C88.8432 124.432 90.792 123.469 91.4025 121.662L94.061 113.794C94.3892 112.822 94.2704 111.764 93.7231 110.885C92.4417 108.848 90.4435 104.575 92.1437 99.5434C93.8438 94.5114 98.0344 92.2951 100.287 91.457C101.255 91.0923 101.991 90.3241 102.319 89.3527L104.971 81.5036C105.581 79.6968 104.617 77.7455 102.811 77.1327L36.5305 54.6441C34.7245 54.0314 32.7756 54.9943 32.1652 56.8011L29.5263 64.6114C29.1981 65.5828 29.3168 66.6409 29.8448 67.513C31.1262 69.5503 33.1241 73.8879 31.3979 78.9327C29.7044 83.9453 25.5075 86.1161 23.274 86.9608C22.3065 87.3255 21.5708 88.0937 21.2425 89.0651L21.262 89.0717Z" fill="white" stroke="#91A1B0" stroke-width="1.2"/>
		<rect width="44.8339" height="25.2197" rx="2" transform="matrix(0.946976 0.321303 -0.320092 0.947387 44.5815 70.0782)" fill="white" stroke="#91A1B0" stroke-width="1.2"/>
		<path d="M51.978 40.5243L46.0944 46.4154C44.7467 47.7649 44.7467 49.9414 46.0945 51.2909L95.5544 100.814C96.9021 102.164 99.0758 102.164 100.424 100.814L106.293 94.9375C107.017 94.212 107.38 93.2108 107.278 92.1805C107.032 89.7863 107.133 85.0705 110.886 81.3124C114.64 77.5543 119.379 77.4237 121.77 77.6704C122.799 77.7719 123.799 77.4092 124.523 76.6837L130.378 70.8216C131.725 69.4721 131.725 67.2956 130.378 65.9462L80.9178 16.4229C79.5701 15.0735 77.3964 15.0735 76.0486 16.4229L70.223 22.256C69.4984 22.9815 69.1361 23.9827 69.2231 24.9984C69.4694 27.3926 69.339 32.1665 65.5567 35.9246C61.8179 39.6682 57.0936 39.7553 54.717 39.5231C53.6881 39.4216 52.6881 39.7843 51.9636 40.5098L51.978 40.5243Z" fill="white" stroke="#91A1B0" stroke-width="1.2"/>
		<rect width="44.8339" height="25.2197" rx="2" transform="matrix(0.706654 0.707559 -0.706654 0.707559 81.2988 33.8267)" fill="white" stroke="#91A1B0" stroke-width="1.2"/>
	</g>
	<defs>
		<clipPath id="clip0_11739_18693">
			<rect width="150" height="150" fill="white"/>
		</clipPath>
	</defs>
</svg>
