<svg width="150" height="150" viewBox="0 0 150 150" fill="none" xmlns="http://www.w3.org/2000/svg">
	<g clip-path="url(#clip0_11739_19113)">
		<rect width="150" height="150" fill="white"/>
		<path d="M134.47 133.29H140M104.25 133.29H128.47M10 133.29H98.5" stroke="#92A2B1" stroke-width="1.2" stroke-linecap="round" stroke-linejoin="round"/>
		<path opacity="0.2" d="M72.4203 126.39C99.9297 126.39 122.23 104.089 122.23 76.58C122.23 49.0707 99.9297 26.77 72.4203 26.77C44.911 26.77 22.6104 49.0707 22.6104 76.58C22.6104 104.089 44.911 126.39 72.4203 126.39Z" fill="#BFC7D3"/>
		<path d="M16.4904 92.248V103.408C16.4904 105.964 18.5519 108.025 21.1081 108.025H114.92C117.476 108.025 119.537 105.964 119.537 103.408V92.2755C119.537 90.9012 118.933 89.6093 117.861 88.7297C115.359 86.6957 110.989 82.133 110.989 75.0139C110.989 67.8949 115.359 63.2772 117.861 61.2432C118.933 60.3636 119.537 59.0717 119.537 57.6974V46.5928C119.537 44.0366 117.476 41.9751 114.92 41.9751H21.1081C18.5519 41.9751 16.4904 44.0366 16.4904 46.5928V57.6424C16.4904 59.0168 17.0951 60.3086 18.1396 61.1882C20.6408 63.2222 25.0387 67.8674 25.0112 75.0139C25.0112 82.1055 20.6134 86.6682 18.1396 88.7022C17.0676 89.5818 16.4629 90.8737 16.4629 92.248H16.4904Z" fill="white" stroke="#91A1B0" stroke-width="1.2"/>
		<rect x="37.9531" y="58.0991" width="60.0919" height="33.8025" rx="2" fill="white" stroke="#91A1B0" stroke-width="1.2"/>
		<path d="M51.9414 66.5986L58.0576 72.7148" stroke="#91A1B0" stroke-width="1.2" stroke-linecap="round"/>
		<path d="M51.9414 72.7148L58.0576 66.5987" stroke="#91A1B0" stroke-width="1.2" stroke-linecap="round"/>
		<path d="M77.9414 66.5986L84.0576 72.7148" stroke="#91A1B0" stroke-width="1.2" stroke-linecap="round"/>
		<path d="M77.9414 72.7148L84.0576 66.5987" stroke="#91A1B0" stroke-width="1.2" stroke-linecap="round"/>
		<path d="M61.2031 83.4025C63.3017 80.9705 68.9582 77.5657 74.7949 83.4025" stroke="#91A1B0" stroke-width="1.2" stroke-linecap="round"/>
		<path d="M122.426 118.037L128.034 112.429L136.613 121.009C138.159 122.554 138.159 125.072 136.613 126.617C135.068 128.162 132.551 128.162 131.006 126.617L122.426 118.037Z" fill="white" stroke="#91A1B0" stroke-width="1.2"/>
		<path d="M123.855 111.112L121.107 113.859L123.855 116.607L126.603 113.859L123.855 111.112Z" fill="white" stroke="#91A1B0" stroke-width="1.2"/>
		<path d="M122.143 112.825C130.653 104.315 130.653 90.5173 122.143 82.0072C113.633 73.4972 99.8358 73.4972 91.3258 82.0072C82.8157 90.5173 82.8157 104.315 91.3258 112.825C99.8358 121.335 113.633 121.335 122.143 112.825Z" fill="white" stroke="#91A1B0" stroke-width="1.2"/>
		<path d="M119.41 110.092C126.411 103.091 126.411 91.7407 119.41 84.7398C112.41 77.739 101.059 77.739 94.058 84.7398C87.0572 91.7407 87.0572 103.091 94.058 110.092C101.059 117.093 112.41 117.093 119.41 110.092Z" fill="white" stroke="#91A1B0" stroke-width="1.2"/>
		<path d="M106.289 100.772C105.508 100.772 104.857 100.133 104.953 99.3574C105.001 98.9736 105.069 98.6377 105.158 98.3496C105.348 97.7497 105.617 97.2676 105.965 96.9031C106.313 96.5331 106.736 96.1939 107.235 95.8855C107.577 95.6725 107.883 95.4398 108.152 95.1875C108.426 94.9296 108.642 94.6437 108.799 94.3297C108.956 94.0102 109.035 93.6541 109.035 93.2617C109.035 92.8188 108.931 92.4347 108.723 92.1095C108.516 91.7844 108.236 91.5321 107.883 91.3527C107.535 91.1732 107.145 91.0835 106.714 91.0835C106.315 91.0835 105.937 91.1704 105.578 91.3442C105.225 91.5124 104.931 91.7703 104.695 92.1179C104.265 92.7584 103.704 93.4215 102.932 93.4215H102.871C102.018 93.4215 101.3 92.7032 101.549 91.8875C101.677 91.4682 101.856 91.088 102.088 90.7471C102.582 90.0295 103.232 89.4913 104.039 89.1325C104.852 88.7736 105.749 88.5942 106.73 88.5942C107.801 88.5942 108.743 88.7821 109.556 89.1577C110.375 89.5333 111.011 90.0688 111.465 90.764C111.925 91.4536 112.155 92.2721 112.155 93.2196C112.155 93.8588 112.051 94.4306 111.844 94.9352C111.642 95.4398 111.353 95.8883 110.977 96.2808C110.602 96.6733 110.156 97.0237 109.64 97.332C109.186 97.6124 108.813 97.9039 108.522 98.2066C108.236 98.5094 108.023 98.8654 107.883 99.2747C107.864 99.3304 107.847 99.388 107.83 99.4474C107.636 100.162 107.076 100.772 106.335 100.772H106.289ZM106.335 106.238C105.831 106.238 105.396 106.059 105.032 105.7C104.667 105.341 104.485 104.904 104.485 104.388C104.485 103.883 104.667 103.452 105.032 103.093C105.396 102.734 105.831 102.555 106.335 102.555C106.834 102.555 107.266 102.734 107.63 103.093C108 103.452 108.185 103.883 108.185 104.388C108.185 104.73 108.098 105.041 107.925 105.321C107.756 105.602 107.532 105.826 107.252 105.994C106.977 106.157 106.672 106.238 106.335 106.238Z" fill="#91A1B0" fill-opacity="0.4"/>
	</g>
	<defs>
		<clipPath id="clip0_11739_19113">
			<rect width="150" height="150" fill="white"/>
		</clipPath>
	</defs>
</svg>
