<svg width="150" height="150" viewBox="0 0 150 150" fill="none" xmlns="http://www.w3.org/2000/svg">
	<g clip-path="url(#clip0_11739_19547)">
		<rect width="150" height="150" fill="white"/>
		<path d="M134.47 133.29H140M104.25 133.29H128.47M10 133.29H98.5" stroke="#92A2B1" stroke-width="1.2" stroke-linecap="round" stroke-linejoin="round"/>
		<path opacity="0.2" d="M72.4203 126.39C99.9297 126.39 122.23 104.089 122.23 76.58C122.23 49.0707 99.9297 26.77 72.4203 26.77C44.911 26.77 22.6104 49.0707 22.6104 76.58C22.6104 104.089 44.911 126.39 72.4203 126.39Z" fill="#BFC7D3"/>
		<path d="M16.4904 92.248V103.408C16.4904 105.964 18.5519 108.025 21.1081 108.025H114.92C117.476 108.025 119.537 105.964 119.537 103.408V92.2755C119.537 90.9012 118.933 89.6093 117.861 88.7297C115.359 86.6957 110.989 82.133 110.989 75.0139C110.989 67.8949 115.359 63.2772 117.861 61.2432C118.933 60.3636 119.537 59.0717 119.537 57.6974V46.5928C119.537 44.0366 117.476 41.9751 114.92 41.9751H21.1081C18.5519 41.9751 16.4904 44.0366 16.4904 46.5928V57.6424C16.4904 59.0168 17.0951 60.3086 18.1396 61.1882C20.6408 63.2222 25.0387 67.8674 25.0112 75.0139C25.0112 82.1055 20.6134 86.6682 18.1396 88.7022C17.0676 89.5818 16.4629 90.8737 16.4629 92.248H16.4904Z" fill="white" stroke="#91A1B0" stroke-width="1.2"/>
		<rect x="37.9531" y="58.0991" width="60.0919" height="33.8025" rx="2" fill="white" stroke="#91A1B0" stroke-width="1.2"/>
		<path d="M108.414 120.115C120.436 120.115 130.181 110.369 130.181 98.3474C130.181 86.3256 120.436 76.5801 108.414 76.5801C96.3921 76.5801 86.6465 86.3256 86.6465 98.3474C86.6465 110.369 96.3921 120.115 108.414 120.115Z" fill="white" stroke="#92A2B1" stroke-width="1.2" stroke-miterlimit="10"/>
		<path d="M99.0176 100.319L105.415 105.833L117.798 90.8618" stroke="#92A2B1" stroke-width="1.2" stroke-linecap="round" stroke-linejoin="round"/>
		<path d="M46.5469 71.7434C46.5469 64.3432 57.9209 64.3432 57.9209 71.7434" stroke="#91A1B0" stroke-width="1.2" stroke-linecap="round"/>
		<path d="M78.0781 71.7434C78.0781 64.3432 89.4521 64.3432 89.4521 71.7434" stroke="#91A1B0" stroke-width="1.2" stroke-linecap="round"/>
		<path d="M61.2031 81.7435C63.3017 84.1755 68.9582 87.5803 74.7949 81.7435" stroke="#91A1B0" stroke-width="1.2" stroke-linecap="round"/>
	</g>
	<defs>
		<clipPath id="clip0_11739_19547">
			<rect width="150" height="150" fill="white"/>
		</clipPath>
	</defs>
</svg>
