<svg width="150" height="150" viewBox="0 0 150 150" fill="none" xmlns="http://www.w3.org/2000/svg">
	<g clip-path="url(#clip0_11826_41142)">
		<mask id="mask0_11826_41142" style="mask-type:luminance" maskUnits="userSpaceOnUse" x="0" y="0" width="150" height="150">
			<path d="M150 0H0V150H150V0Z" fill="white"/>
		</mask>
		<g mask="url(#mask0_11826_41142)">
			<path opacity="0.2" d="M75 121.66C102.61 121.66 125 99.27 125 71.66C125 44.05 102.61 21.66 75 21.66C47.39 21.66 25 44.05 25 71.66C25 99.27 47.39 121.66 75 121.66Z" fill="#BFC7D3"/>
			<path d="M31.3506 117.1H106.991V31.1C106.991 28.89 105.201 27.1 102.991 27.1H40.9906C38.7806 27.1 36.9906 28.89 36.9906 31.1V111.25C36.9906 112.87 36.3206 114.42 35.1306 115.52C34.3406 116.25 33.5406 116.59 33.3106 116.68C32.5306 117 31.8306 117.08 31.3506 117.1Z" fill="white"/>
			<path d="M107.59 117.7H31.3503L31.3203 116.5C31.9303 116.47 32.5203 116.35 33.0803 116.12C33.4103 115.98 34.0803 115.66 34.7103 115.08C35.7703 114.1 36.3803 112.7 36.3803 111.25V31.1C36.3803 28.56 38.4403 26.5 40.9803 26.5H102.98C105.52 26.5 107.58 28.56 107.58 31.1V117.7H107.59ZM34.8603 116.5H106.39V31.1C106.39 29.22 104.86 27.7 102.99 27.7H40.9903C39.1103 27.7 37.5903 29.23 37.5903 31.1V111.25C37.5903 113.03 36.8403 114.75 35.5403 115.96C35.3103 116.17 35.0903 116.35 34.8703 116.5H34.8603Z" fill="#92A2B1"/>
			<path d="M25.25 92.53H36.99V111.23C36.99 114.47 34.36 117.1 31.12 117.1C27.88 117.1 25.25 114.47 25.25 111.23V92.53Z" fill="white"/>
			<path d="M31.1204 117.7C27.5504 117.7 24.6504 114.8 24.6504 111.23V91.93H37.5904V111.23C37.5904 114.8 34.6904 117.7 31.1204 117.7ZM25.8504 93.12V111.23C25.8504 114.14 28.2104 116.5 31.1204 116.5C34.0304 116.5 36.3904 114.13 36.3904 111.23V93.12H25.8504Z" fill="#92A2B1"/>
			<path d="M114.46 117.35L119.62 109.98L130.9 117.87C132.93 119.29 133.43 122.1 132.01 124.14C130.59 126.17 127.78 126.67 125.74 125.25L114.46 117.35Z" fill="white"/>
			<path d="M128.32 126.66C127.31 126.66 126.29 126.36 125.4 125.74L113.62 117.5L119.47 109.14L131.25 117.38C133.55 118.99 134.12 122.18 132.5 124.48C131.51 125.9 129.92 126.65 128.31 126.65H128.32V126.66ZM115.3 117.21L126.09 124.76C127.85 125.99 130.29 125.56 131.52 123.8C132.75 122.04 132.32 119.6 130.56 118.37L119.77 110.82L115.3 117.21Z" fill="#92A2B1"/>
			<path d="M114.581 109.25L112.051 112.86L115.661 115.39L118.191 111.78L114.581 109.25Z" fill="white"/>
			<path d="M115.81 116.23L111.21 113.01L114.43 108.41L119.03 111.63L115.81 116.23ZM112.88 112.72L115.51 114.56L117.35 111.93L114.72 110.09L112.88 112.72Z" fill="#92A2B1"/>
			<path d="M92.8208 121.92C106.481 121.92 117.551 110.85 117.551 97.19C117.551 83.53 106.481 72.46 92.8208 72.46C79.1608 72.46 68.0908 83.53 68.0908 97.19C68.0908 110.85 79.1608 121.92 92.8208 121.92Z" fill="white"/>
			<path d="M92.8202 122.52C78.8502 122.52 67.4902 111.16 67.4902 97.19C67.4902 83.22 78.8502 71.86 92.8202 71.86C106.79 71.86 118.15 83.22 118.15 97.19C118.15 111.16 106.79 122.52 92.8202 122.52ZM92.8202 73.06C79.5102 73.06 68.6902 83.89 68.6902 97.19C68.6902 110.49 79.5202 121.32 92.8202 121.32C106.12 121.32 116.95 110.49 116.95 97.19C116.95 83.89 106.12 73.06 92.8202 73.06Z" fill="#92A2B1"/>
			<path d="M92.82 117.26C103.9 117.26 112.89 108.27 112.89 97.19C112.89 86.11 103.9 77.12 92.82 77.12C81.74 77.12 72.75 86.11 72.75 97.19C72.75 108.27 81.74 117.26 92.82 117.26Z" fill="white"/>
			<path d="M92.8204 117.87C81.4204 117.87 72.1504 108.6 72.1504 97.2C72.1504 85.8 81.4204 76.53 92.8204 76.53C104.22 76.53 113.49 85.8 113.49 97.2C113.49 108.6 104.22 117.87 92.8204 117.87ZM92.8204 77.72C82.0804 77.72 73.3504 86.46 73.3504 97.19C73.3504 107.92 82.0904 116.67 92.8204 116.67C103.55 116.67 112.3 107.93 112.3 97.19C112.3 86.45 103.56 77.72 92.8204 77.72Z" fill="#92A2B1"/>
			<g opacity="0.25">
				<path d="M90.9209 100.83V100.37C90.9209 98.71 91.5309 97.39 93.5609 95.59C94.8109 94.46 95.1209 93.58 95.1209 92.58C95.1209 91.47 94.4609 90.42 92.9109 90.42C91.2509 90.42 90.5909 91.52 90.4009 93H87.1309C87.2509 90.96 88.5609 87.79 92.9709 87.81C97.1909 87.83 98.4809 90.62 98.4809 92.68C98.4809 94.42 97.9109 95.6 95.9709 97.39C94.7609 98.51 94.3609 99.4 94.3609 100.57V100.83H90.9109H90.9209ZM90.9209 106.57V102.4H94.3709V106.57H90.9209Z" fill="#C4CCD4"/>
			</g>
			<path d="M68.0807 64.6C67.8907 64.6 67.7007 64.51 67.5907 64.35C67.4007 64.08 67.4707 63.7 67.7407 63.51C68.6607 62.87 70.5807 61.79 73.1707 61.84C75.6107 61.88 77.4107 62.9 78.2707 63.51C78.5407 63.7 78.6107 64.08 78.4207 64.35C78.2307 64.62 77.8607 64.69 77.5807 64.5C76.8307 63.97 75.2607 63.09 73.1507 63.05C70.8807 62.99 69.2207 63.94 68.4307 64.5C68.3207 64.57 68.2007 64.61 68.0907 64.61H68.0807V64.6Z" fill="#C4CCD4"/>
			<path d="M57.3203 54.32C57.1703 54.32 57.0203 54.27 56.9003 54.15C56.6603 53.92 56.6503 53.54 56.8803 53.3L63.0803 46.84C63.3103 46.6 63.6903 46.59 63.9303 46.82C64.1703 47.05 64.1803 47.43 63.9503 47.67L57.7503 54.13C57.6303 54.25 57.4703 54.31 57.3203 54.31V54.32Z" fill="#C4CCD4"/>
			<path d="M63.6504 54.19C63.5004 54.19 63.3504 54.14 63.2304 54.02L56.7704 47.82C56.5304 47.59 56.5204 47.21 56.7504 46.97C56.9804 46.73 57.3604 46.72 57.6004 46.95L64.0604 53.15C64.3004 53.38 64.3104 53.76 64.0804 54C63.9604 54.12 63.8004 54.18 63.6504 54.18V54.19Z" fill="#C4CCD4"/>
			<path d="M81.4502 54.32C81.3002 54.32 81.1502 54.27 81.0302 54.15C80.7902 53.92 80.7802 53.54 81.0102 53.3L87.2102 46.84C87.4402 46.6 87.8202 46.59 88.0602 46.82C88.3002 47.05 88.3102 47.43 88.0802 47.67L81.8802 54.13C81.7602 54.25 81.6002 54.31 81.4502 54.31V54.32Z" fill="#C4CCD4"/>
			<path d="M87.7803 54.19C87.6303 54.19 87.4803 54.14 87.3603 54.02L80.9003 47.82C80.6603 47.59 80.6503 47.21 80.8803 46.97C81.1103 46.73 81.4903 46.72 81.7303 46.95L88.1903 53.15C88.4303 53.38 88.4403 53.76 88.2103 54C88.0903 54.12 87.9303 54.18 87.7803 54.18V54.19Z" fill="#C4CCD4"/>
			<path d="M140 134.34H134.47C134.14 134.34 133.87 134.07 133.87 133.74C133.87 133.41 134.14 133.14 134.47 133.14H140C140.33 133.14 140.6 133.41 140.6 133.74C140.6 134.07 140.33 134.34 140 134.34Z" fill="#92A2B1"/>
			<path d="M128.461 134.34H104.241C103.911 134.34 103.641 134.07 103.641 133.74C103.641 133.41 103.911 133.14 104.241 133.14H128.461C128.791 133.14 129.061 133.41 129.061 133.74C129.061 134.07 128.791 134.34 128.461 134.34Z" fill="#92A2B1"/>
			<path d="M98.5004 134.34H10.0004C9.67039 134.34 9.40039 134.07 9.40039 133.74C9.40039 133.41 9.67039 133.14 10.0004 133.14H98.5004C98.8304 133.14 99.1004 133.41 99.1004 133.74C99.1004 134.07 98.8304 134.34 98.5004 134.34Z" fill="#92A2B1"/>
			<path d="M26.1206 33.58H18.9506C18.6206 33.58 18.3506 33.31 18.3506 32.98C18.3506 32.65 18.6206 32.38 18.9506 32.38H26.1206C26.4506 32.38 26.7206 32.65 26.7206 32.98C26.7206 33.31 26.4506 33.58 26.1206 33.58Z" fill="#92A2B1"/>
			<path d="M34.6107 24.04C34.2807 24.04 34.0107 23.77 34.0107 23.44V16.26C34.0107 15.93 34.2807 15.66 34.6107 15.66C34.9407 15.66 35.2107 15.93 35.2107 16.26V23.44C35.2107 23.77 34.9407 24.04 34.6107 24.04Z" fill="#92A2B1"/>
			<path d="M27.6804 26.36C27.5504 26.36 27.4204 26.32 27.3104 26.24L21.6204 21.87C21.3604 21.67 21.3104 21.29 21.5104 21.03C21.7104 20.77 22.0904 20.72 22.3504 20.92L28.0404 25.29C28.3004 25.49 28.3504 25.87 28.1504 26.13C28.0304 26.28 27.8504 26.36 27.6704 26.36H27.6804Z" fill="#92A2B1"/>
		</g>
	</g>
	<defs>
		<clipPath id="clip0_11826_41142">
			<rect width="150" height="150" fill="white"/>
		</clipPath>
	</defs>
</svg>
