<svg xmlns="http://www.w3.org/2000/svg" width="56" height="56" fill="none" viewBox="0 0 56 56"><path fill="#FBE3E2" d="M28 56c15.464 0 28-12.536 28-28S43.464 0 28 0 0 12.536 0 28s12.536 28 28 28z"/><path fill="#fff" d="M39.186 44.6a.535.535 0 100-1.07.535.535 0 000 1.07z"/><path fill="#EC7170" d="M39.186 44.789a.713.713 0 01-.513-.212.733.733 0 010-1.025.726.726 0 011.026 1.026.713.713 0 01-.513.21zm0-1.071c-.09 0-.181.03-.249.098a.346.346 0 10.49.49.342.342 0 00.106-.249.348.348 0 00-.354-.347l.007.008z"/><path fill="#fff" d="M47.639 23.954a.445.445 0 100-.89.445.445 0 000 .89z"/><path fill="#EC7170" d="M47.639 24.06a.554.554 0 01-.385-.159.536.536 0 01-.158-.384c0-.143.06-.287.158-.385a.56.56 0 01.77 0 .536.536 0 01.158.385.55.55 0 01-.159.384.536.536 0 01-.384.159zm0-.89a.363.363 0 00-.241.098.33.33 0 00-.098.241c0 .09.037.174.098.241a.35.35 0 00.482 0 .348.348 0 000-.483.349.349 0 00-.241-.097z"/><path fill="#fff" d="M15.04 43.53c-.58 0-1.047-.468-1.047-1.049 0 .581-.468 1.049-1.049 1.049.581 0 1.049.467 1.049 1.048 0-.58.467-1.048 1.048-1.048z"/><path fill="#EC7170" d="M13.993 44.705a.132.132 0 01-.129-.128.919.919 0 00-.92-.92.132.132 0 01-.128-.128c0-.068.06-.128.128-.128.506 0 .92-.415.92-.92 0-.068.06-.129.129-.129.067 0 .128.06.128.129 0 .505.415.92.92.92.068 0 .128.06.128.128s-.06.128-.128.128a.924.924 0 00-.92.92c0 .068-.06.128-.128.128zm-.52-1.176c.225.113.406.294.52.52.113-.226.294-.407.52-.52a1.158 1.158 0 01-.52-.52 1.196 1.196 0 01-.52.52z"/><path fill="#fff" d="M22.974 19.014a2.012 2.012 0 01-2.843 0 2.011 2.011 0 010 2.843 2.012 2.012 0 012.843 0 2.011 2.011 0 010-2.843z"/><path fill="#EC7170" d="M22.974 22.143a.305.305 0 01-.204-.083 1.734 1.734 0 00-2.443 0 .287.287 0 01-.49-.203c0-.076.03-.144.083-.204a1.734 1.734 0 000-2.443.291.291 0 01-.083-.204c0-.075.03-.143.083-.203a.287.287 0 01.407 0 1.734 1.734 0 002.443 0 .287.287 0 01.49.203c0 .076-.03.143-.083.204a1.734 1.734 0 000 2.443.291.291 0 01.083.204c0 .075-.03.143-.083.203a.291.291 0 01-.203.083zm-1.426-1.161c.219 0 .43.03.634.09a2.215 2.215 0 01-.09-.633c0-.219.03-.43.09-.634a2.436 2.436 0 01-1.275 0c.06.204.09.415.09.634 0 .219-.03.43-.09.633.204-.06.415-.09.634-.09h.007zm23.422.273v.874c0 .619-.506 1.116-1.116 1.116h-.25c-.467 0-.889.294-1.04.74-.105.293-.218.58-.362.866-.21.423-.113.928.219 1.26l.166.166a1.12 1.12 0 010 1.583l-.619.619c-.437.43-1.146.43-1.576 0l-.165-.166a1.102 1.102 0 00-1.267-.211 8.066 8.066 0 01-.867.361c-.453.151-.74.573-.74 1.041v.241a.636.636 0 01-.03.204l.151-4.147a4.36 4.36 0 002.685-4.02c0-1.81-1.003-3.242-2.489-3.936v3.409h-3.755v-3.409a4.36 4.36 0 00-2.488 3.936c0 1.742 1.116 3.363 2.684 4.02l.15 4.147a.935.935 0 01-.022-.204v-.241c0-.468-.294-.89-.739-1.04a7.526 7.526 0 01-.882-.37 1.107 1.107 0 00-1.26.219l-.165.166c-.43.43-1.146.43-1.576 0l-.619-.619a1.12 1.12 0 010-1.583l.166-.166c.332-.332.423-.837.22-1.26a6.206 6.206 0 01-.363-.867 1.09 1.09 0 00-1.048-.739h-.241a1.118 1.118 0 01-1.116-1.116v-.875c0-.618.505-1.116 1.116-1.116h.241c.475 0 .897-.294 1.048-.73.098-.303.219-.59.362-.876.211-.414.113-.927-.211-1.259l-.174-.173a1.12 1.12 0 010-1.584l.619-.618c.43-.43 1.146-.43 1.576 0l.173.173c.332.332.845.43 1.267.219.272-.143.566-.264.867-.362.453-.15.74-.58.74-1.048v-.242c0-.618.49-1.115 1.108-1.115h.874c.619 0 1.117.505 1.117 1.116v.24c0 .468.294.898.739 1.049.294.098.58.211.852.354.422.211.935.121 1.266-.21l.174-.174c.43-.43 1.139-.43 1.576 0l.618.618a1.12 1.12 0 010 1.584l-.173.173a1.092 1.092 0 00-.211 1.26c.143.278.256.572.361.874a1.1 1.1 0 001.041.732h.249c.618 0 1.116.505 1.116 1.116h.023z"/><path fill="#535665" d="M37.33 30.13h-.022a.195.195 0 01-.166-.196l.151-4.147a.18.18 0 01.113-.166 4.154 4.154 0 002.572-3.846c0-1.53-.8-2.895-2.112-3.627v3.1a.187.187 0 01-.188.188h-3.755a.187.187 0 01-.189-.189v-3.099a4.201 4.201 0 00-2.111 3.627c0 1.69 1.01 3.197 2.571 3.846a.18.18 0 01.113.166l.15 4.147a.196.196 0 01-.157.196.185.185 0 01-.212-.143.976.976 0 01-.03-.249v-.241a.905.905 0 00-.61-.86 8.613 8.613 0 01-.905-.377.901.901 0 00-1.041.189l-.166.165a1.306 1.306 0 01-1.84 0l-.618-.618a1.307 1.307 0 010-1.855l.166-.166a.92.92 0 00.18-1.048 6.663 6.663 0 01-.369-.882.907.907 0 00-.867-.61h-.241a1.305 1.305 0 01-1.305-1.305v-.875c0-.724.588-1.305 1.305-1.305h.241a.9.9 0 00.867-.603c.098-.294.219-.588.37-.897.173-.332.098-.762-.181-1.04l-.174-.174a1.307 1.307 0 010-1.855l.619-.619c.49-.49 1.357-.49 1.84 0l.173.174a.905.905 0 001.048.188 5.87 5.87 0 01.89-.37.907.907 0 00.61-.866v-.242c0-.724.581-1.304 1.298-1.304h.874c.724 0 1.305.588 1.305 1.304v.242c0 .4.249.746.61.867.34.113.627.234.883.362a.899.899 0 001.048-.181l.174-.174a1.306 1.306 0 011.84 0l.618.619a1.31 1.31 0 010 1.855l-.174.173a.899.899 0 00-.173 1.04c.128.257.249.544.37.898.12.362.467.603.86.603h.248c.724 0 1.304.588 1.304 1.305v.875c0 .724-.588 1.304-1.304 1.304h-.249a.904.904 0 00-.86.61c-.09.25-.21.574-.369.89a.891.891 0 00.188 1.041l.166.166a1.31 1.31 0 010 1.855l-.618.619a1.315 1.315 0 01-1.847 0l-.166-.166a.896.896 0 00-1.048-.174 12.56 12.56 0 01-.883.37.894.894 0 00-.61.86v.24a.976.976 0 01-.03.25.192.192 0 01-.182.143l.008-.008zm2.12-2.337c.332 0 .663.128.92.384l.166.166a.942.942 0 001.312 0l.618-.618a.938.938 0 000-1.32l-.166-.166a1.28 1.28 0 01-.256-1.478c.15-.294.264-.603.354-.844a1.285 1.285 0 011.214-.868h.25a.927.927 0 00.927-.927v-.875a.927.927 0 00-.928-.927h-.249c-.55 0-1.04-.347-1.221-.86a7.52 7.52 0 00-.355-.852 1.267 1.267 0 01.25-1.478l.172-.173a.937.937 0 000-1.32l-.618-.618a.935.935 0 00-1.312 0l-.173.173a1.288 1.288 0 01-1.486.249 5.398 5.398 0 00-.83-.34 1.28 1.28 0 01-.867-1.229v-.24a.927.927 0 00-.927-.928h-.875a.925.925 0 00-.92.927v.242c0 .558-.347 1.055-.867 1.229a6.06 6.06 0 00-.837.346 1.278 1.278 0 01-1.485-.256l-.174-.173a.957.957 0 00-1.312 0l-.618.618a.93.93 0 00-.28.664c0 .248.099.482.28.656l.173.173c.392.407.49.995.25 1.478a5.557 5.557 0 00-.348.845 1.28 1.28 0 01-1.229.86h-.241a.927.927 0 00-.928.927v.875c0 .512.415.927.928.927h.241a1.29 1.29 0 011.23.867c.09.272.21.558.354.837a1.3 1.3 0 01-.257 1.478l-.166.166a.926.926 0 00-.279.656c0 .241.098.483.28.664l.618.618a.943.943 0 001.312 0l.166-.166a1.29 1.29 0 011.478-.256c.256.128.55.248.86.362.173.06.331.158.467.279l-.098-2.647a4.534 4.534 0 01-2.692-4.147 4.507 4.507 0 012.594-4.11.192.192 0 01.18.007.205.205 0 01.091.159v3.22h3.378v-3.22c0-.068.03-.128.09-.159a.192.192 0 01.182-.015 4.493 4.493 0 012.594 4.11 4.558 4.558 0 01-2.692 4.147l-.098 2.647c.128-.12.286-.219.467-.279.257-.09.513-.196.845-.354.18-.09.37-.136.565-.136l-.022.023z"/><path fill="#fff" d="M40.166 21.775a4.368 4.368 0 01-2.684 4.02l-.151 4.147c-.09.52-.543.904-1.093.904h-.875c-.543 0-.995-.384-1.086-.904l-.15-4.148a4.344 4.344 0 01-2.685-4.019c0-1.825 1.025-3.242 2.488-3.936v3.408h3.755V17.84a4.334 4.334 0 012.489 3.936h-.008z"/><path fill="#535665" d="M36.237 31.035h-.874a1.274 1.274 0 01-1.267-1.063l-.15-4.057a4.534 4.534 0 01-2.693-4.148 4.507 4.507 0 012.594-4.11.192.192 0 01.181.008c.053.038.09.098.09.159v3.22h3.379v-3.22c0-.068.03-.129.09-.159a.192.192 0 01.181-.015 4.493 4.493 0 012.594 4.11 4.558 4.558 0 01-2.692 4.147l-.143 4.035a1.283 1.283 0 01-1.282 1.085l-.008.008zM33.742 18.14a4.201 4.201 0 00-2.112 3.627c0 1.69 1.01 3.198 2.572 3.846a.18.18 0 01.113.166l.15 4.147c.068.408.453.724.898.724h.874a.91.91 0 00.905-.754l.151-4.125a.18.18 0 01.113-.165 4.154 4.154 0 002.572-3.846c0-1.53-.8-2.896-2.112-3.627v3.099a.187.187 0 01-.188.189h-3.755a.187.187 0 01-.189-.189v-3.1l.008.008z"/><path fill="#F4AAA9" d="M45.301 33.313c-1.018.852-14.666 9.38-14.666 9.38s-1.478 1.305-4.525 0c-3.038-1.304-6.22-2.36-6.22-2.36h-3.41V29.248s1.154-1.13 4.713-1.13c3.56 0 4.26 2.51 4.26 2.51h6.87s1.614-.113 1.614 2.104c0 .671-.227 1.101-.528 1.373 0 0 .06 2.224 1.53 1.402 1.47-.822 8.755-5.693 8.755-5.693s1.342-.656 2.24.618c.897 1.274.392 2.029-.626 2.88H45.3z"/><path fill="#535665" d="M28.644 43.47c-.694 0-1.56-.15-2.61-.603a89.59 89.59 0 00-6.175-2.345h-3.378a.187.187 0 01-.189-.189V29.248c0-.053.023-.098.053-.135.053-.046 1.252-1.184 4.841-1.184 3.167 0 4.178 1.968 4.396 2.51h6.734s.641-.037 1.162.446c.422.4.64 1.018.64 1.847 0 .61-.173 1.093-.52 1.448.023.347.144 1.056.513 1.26.18.105.43.075.731-.099 1.448-.807 8.665-5.64 8.74-5.686.038-.022 1.523-.723 2.496.672.95 1.35.452 2.201-.664 3.137-1.018.852-14.13 9.048-14.689 9.395-.022.023-.716.611-2.088.611h.007zM16.67 40.145h3.22s.037 0 .06.007c.03.008 3.22 1.07 6.236 2.368 2.88 1.236 4.268.083 4.32.03.159-.105 13.672-8.543 14.675-9.38 1.018-.853 1.395-1.501.595-2.632-.791-1.131-1.953-.58-1.998-.558-.279.188-7.284 4.871-8.747 5.693-.43.241-.8.271-1.109.098-.648-.37-.7-1.53-.7-1.659 0-.053.022-.105.06-.143.309-.287.46-.702.46-1.237 0-.716-.174-1.244-.52-1.568-.393-.37-.89-.347-.898-.347h-6.877a.186.186 0 01-.181-.136c-.03-.098-.717-2.375-4.08-2.375-3 0-4.253.822-4.524 1.033v10.806h.008z"/><path fill="#EC7170" d="M16.481 26.654h-7.08v15.24h7.08v-15.24z"/><path fill="#535665" d="M16.481 42.083h-7.08a.187.187 0 01-.19-.189v-15.24c0-.105.084-.188.19-.188h7.08c.106 0 .188.083.188.188v15.24a.187.187 0 01-.188.189zm-6.892-.377h6.704V26.843H9.588v14.863z"/><path fill="#F4AAA9" d="M33.93 32.732c0 1.908-1.847 1.848-1.847 1.848H25.71s-1.048-.045-.943 1.176c.09.98.92.92.92.92"/><path fill="#535665" d="M25.643 36.857c-.362 0-.98-.219-1.056-1.093-.037-.445.06-.8.294-1.049.34-.354.822-.331.845-.331h6.364s.74.015 1.222-.453c.286-.279.437-.686.437-1.206 0-.106.083-.189.189-.189.105 0 .188.083.188.189 0 .625-.188 1.123-.55 1.478-.596.58-1.448.55-1.486.558h-6.364s-.347-.008-.566.218c-.15.166-.218.415-.188.747.068.761.648.754.716.746.098 0 .196.076.204.174 0 .105-.068.196-.174.203h-.06l-.015.008z"/></svg>