<svg xmlns="http://www.w3.org/2000/svg" width="56" height="56" fill="none" viewBox="0 0 56 56"><path fill="#FCEED8" d="M28 56c15.464 0 28-12.536 28-28S43.464 0 28 0 0 12.536 0 28s12.536 28 28 28z"/><path fill="#fff" d="M8.382 34.888a.905.905 0 100-1.81.905.905 0 000 1.81z"/><path fill="#F2AA3C" d="M8.382 35.076a1.09 1.09 0 01-.776-.324 1.097 1.097 0 010-1.554c.43-.43 1.123-.43 1.553 0 .43.43.43 1.124 0 1.554a1.11 1.11 0 01-.777.324zm-.505-1.606a.724.724 0 000 1.018.724.724 0 001.018 0 .724.724 0 000-1.018.724.724 0 00-1.018 0z"/><path fill="#fff" d="M34.413 18.915a.822.822 0 100-1.643.822.822 0 000 1.643z"/><path fill="#F2AA3C" d="M34.413 19.104c-.257 0-.52-.098-.717-.294a1.01 1.01 0 010-1.425 1.01 1.01 0 011.425 0 1.01 1.01 0 010 1.425 1.004 1.004 0 01-.716.294h.008zm0-1.644a.61.61 0 00-.445.189.633.633 0 000 .897.633.633 0 00.897 0 .633.633 0 000-.897.642.642 0 00-.445-.189h-.007z"/><path fill="#fff" d="M18.359 17.166a2.3 2.3 0 01-2.3-2.3 2.3 2.3 0 01-2.3 2.3 2.3 2.3 0 012.3 2.3 2.3 2.3 0 012.3-2.3z"/><path fill="#F2AA3C" d="M16.051 19.655a.187.187 0 01-.188-.189c0-1.169-.95-2.111-2.112-2.111a.187.187 0 01-.188-.189c0-.105.083-.188.188-.188 1.17 0 2.112-.95 2.112-2.112 0-.105.083-.188.188-.188.106 0 .189.083.189.188 0 1.17.95 2.112 2.111 2.112.106 0 .189.083.189.188a.187.187 0 01-.189.189c-1.161 0-2.111.95-2.111 2.111a.187.187 0 01-.189.189zm-1.35-2.489c.611.249 1.101.74 1.35 1.35.257-.61.74-1.101 1.35-1.35a2.47 2.47 0 01-1.35-1.35 2.492 2.492 0 01-1.35 1.35z"/><path fill="#fff" d="M48.325 30.528c-.52.52-1.357.52-1.877 0 .52.52.52 1.358 0 1.878.52-.52 1.357-.52 1.877 0a1.324 1.324 0 010-1.878z"/><path fill="#F2AA3C" d="M48.325 32.587a.194.194 0 01-.136-.052 1.133 1.133 0 00-1.606 0 .182.182 0 01-.264 0 .182.182 0 01-.052-.136c0-.053.015-.098.052-.136a1.133 1.133 0 000-1.606.182.182 0 01-.052-.136c0-.052.015-.098.052-.135a.182.182 0 01.264 0 1.133 1.133 0 001.607 0 .182.182 0 01.263 0 .182.182 0 01.053.135.182.182 0 01-.053.136 1.104 1.104 0 00-.331.807c0 .31.12.588.331.807a.182.182 0 01.053.136.182.182 0 01-.053.135.182.182 0 01-.135.053l.007-.008zm-1.357-1.545c.075.271.075.565 0 .844.271-.075.565-.075.837 0a1.587 1.587 0 01-.06-.422c0-.143.022-.287.06-.422a1.577 1.577 0 01-.837 0zm-7.179 7.124c0 7.812-6.334 7.563-14.139 7.563-7.804 0-14.138.242-14.138-7.563s4.38-20.073 14.138-20.073 14.14 12.26 14.14 20.073z"/><path fill="#535665" d="M27.023 45.926h-2.059c-3.83 0-7.14 0-9.607-.95-2.752-1.071-4.034-3.235-4.034-6.802 0-8.174 4.555-20.262 14.327-20.262 9.773 0 14.328 12.088 14.328 20.262 0 3.567-1.282 5.73-4.035 6.801-2.315.898-5.376.95-8.92.95zm-1.373-.377h.687c3.8 0 7.073 0 9.463-.928 2.594-1.01 3.8-3.061 3.8-6.455 0-4.29-1.297-9.23-3.385-12.872-1.833-3.197-5.15-7.012-10.565-7.012-5.414 0-8.732 3.815-10.564 7.012-2.089 3.642-3.386 8.582-3.386 12.872 0 3.394 1.207 5.445 3.8 6.455 2.391.935 5.671.935 9.464.928h.686z"/><path fill="#fff" d="M32.339 10.75c0-2.858-2.994-.121-6.689-.121s-6.688-2.737-6.688.12c0 2.858 2.073 7.345 6.688 7.345s6.689-4.487 6.689-7.345z"/><path fill="#535665" d="M25.65 18.283c-4.69 0-6.877-4.495-6.877-7.534 0-.64.151-1.063.46-1.297.543-.4 1.463-.113 2.624.25 1.064.331 2.39.738 3.793.738s2.73-.407 3.793-.739c1.162-.362 2.081-.648 2.624-.249.31.227.46.649.46 1.297 0 3.04-2.186 7.534-6.877 7.534zm-5.723-8.65c-.196 0-.354.038-.475.121-.204.15-.302.475-.302.988 0 2.888 2.066 7.156 6.5 7.156s6.5-4.268 6.5-7.156c0-.513-.098-.837-.301-.988-.392-.286-1.23-.03-2.293.302-1.085.34-2.443.754-3.906.754s-2.812-.423-3.906-.754c-.739-.226-1.372-.423-1.817-.423z"/><path fill="#F2AA3C" d="M44.283 40.965v3.265c0 .882-4.494 1.576-10.021 1.576-5.527 0-10.044-.694-10.044-1.576v-3.265h20.065z"/><path fill="#535665" d="M34.262 45.995c-3.537 0-10.233-.37-10.233-1.765v-3.265c0-.106.083-.189.189-.189h20.065c.106 0 .189.083.189.189v3.265c0 1.297-6.108 1.765-10.21 1.765zm-9.856-4.842v3.077c0 .58 3.748 1.388 9.856 1.388s9.833-.807 9.833-1.388v-3.077H24.406z"/><path fill="#fff" d="M34.254 42.556c5.54 0 10.03-.712 10.03-1.59 0-.88-4.49-1.592-10.03-1.592-5.539 0-10.029.712-10.029 1.591s4.49 1.591 10.03 1.591z"/><path fill="#535665" d="M34.254 42.745c-4.11 0-10.217-.475-10.217-1.78 0-1.304 6.108-1.78 10.217-1.78 4.11 0 10.218.476 10.218 1.78 0 1.305-6.108 1.78-10.218 1.78zm0-3.182c-6.552 0-9.84.897-9.84 1.402 0 .505 3.287 1.403 9.84 1.403s9.84-.898 9.84-1.403-3.287-1.402-9.84-1.402z"/><path fill="#F2AA3C" d="M44.283 36.682v3.265c0 .882-4.494 1.576-10.021 1.576-5.527 0-10.044-.694-10.044-1.576v-3.265h20.065z"/><path fill="#535665" d="M34.262 41.711c-3.537 0-10.233-.37-10.233-1.764v-3.265c0-.106.083-.189.189-.189h20.065c.106 0 .189.083.189.189v3.265c0 1.297-6.108 1.764-10.21 1.764zm-9.856-4.84v3.076c0 .58 3.748 1.387 9.856 1.387s9.833-.807 9.833-1.387V36.87H24.406z"/><path fill="#fff" d="M34.254 38.272c5.54 0 10.03-.712 10.03-1.591s-4.49-1.591-10.03-1.591c-5.539 0-10.029.712-10.029 1.59 0 .88 4.49 1.592 10.03 1.592z"/><path fill="#535665" d="M34.254 38.46c-4.11 0-10.217-.474-10.217-1.779s6.108-1.78 10.217-1.78c4.11 0 10.218.475 10.218 1.78 0 1.305-6.108 1.78-10.218 1.78zm0-3.182c-6.553 0-9.84.898-9.84 1.403s3.287 1.403 9.84 1.403 9.84-.898 9.84-1.403-3.287-1.403-9.84-1.403z"/><path fill="#F2AA3C" d="M44.283 32.392v3.265c0 .882-4.494 1.576-10.021 1.576-5.527 0-10.044-.694-10.044-1.576v-3.265h20.065z"/><path fill="#535665" d="M34.262 37.421c-3.537 0-10.233-.37-10.233-1.764v-3.265c0-.106.083-.189.189-.189h20.065c.106 0 .189.083.189.189v3.265c0 1.297-6.108 1.764-10.21 1.764zm-9.856-4.84v3.076c0 .58 3.748 1.387 9.856 1.387s9.833-.807 9.833-1.387V32.58H24.406z"/><path fill="#fff" d="M34.254 33.982c5.54 0 10.03-.712 10.03-1.591s-4.49-1.591-10.03-1.591c-5.539 0-10.029.712-10.029 1.59 0 .88 4.49 1.592 10.03 1.592z"/><path fill="#535665" d="M34.254 34.17c-4.11 0-10.217-.474-10.217-1.78 0-1.304 6.108-1.779 10.217-1.779 4.11 0 10.218.475 10.218 1.78 0 1.305-6.108 1.78-10.218 1.78zm0-3.182c-6.553 0-9.84.898-9.84 1.403s3.287 1.403 9.84 1.403 9.84-.898 9.84-1.403-3.287-1.403-9.84-1.403z"/><path fill="#F2AA3C" d="M44.283 28.11v3.265c0 .882-4.494 1.575-10.021 1.575-5.527 0-10.044-.693-10.044-1.576V28.11h20.065z"/><path fill="#535665" d="M34.262 33.139c-3.537 0-10.233-.37-10.233-1.765V28.11c0-.105.083-.188.189-.188h20.065c.106 0 .189.083.189.188v3.265c0 1.298-6.108 1.765-10.21 1.765zm-9.856-4.841v3.077c0 .58 3.748 1.387 9.856 1.387s9.833-.807 9.833-1.387v-3.077H24.406z"/><path fill="#fff" d="M34.254 29.7c5.54 0 10.03-.712 10.03-1.59 0-.88-4.49-1.591-10.03-1.591-5.539 0-10.029.712-10.029 1.59 0 .88 4.49 1.592 10.03 1.592z"/><path fill="#535665" d="M34.254 29.89c-4.11 0-10.217-.476-10.217-1.78 0-1.305 6.108-1.78 10.217-1.78 4.11 0 10.218.475 10.218 1.78 0 1.304-6.108 1.78-10.218 1.78zm0-3.183c-6.553 0-9.84.897-9.84 1.403 0 .505 3.287 1.402 9.84 1.402s9.84-.897 9.84-1.402c0-.506-3.287-1.403-9.84-1.403z"/></svg>