<svg xmlns="http://www.w3.org/2000/svg" width="56" height="56" fill="none" viewBox="0 0 56 56"><path fill="#DFF4EC" d="M28 56c15.464 0 28-12.536 28-28S43.464 0 28 0 0 12.536 0 28s12.536 28 28 28z"/><path fill="#fff" d="M42.014 14.521v31.633H12.258V6.069h21.303l8.453 8.453z"/><path fill="#535665" d="M42.014 46.343H12.258a.187.187 0 01-.188-.189V6.069c0-.105.083-.188.188-.188h21.303a.21.21 0 01.135.053l8.453 8.453s.053.083.053.136v31.633a.187.187 0 01-.188.188zm-29.567-.377h29.378v-31.37l-8.34-8.34H12.447v39.71z"/><path fill="#79BEA8" d="M21.858 16.46a2.579 2.579 0 100-5.157 2.579 2.579 0 000 5.157z"/><path fill="#535665" d="M21.858 16.65a2.77 2.77 0 01-2.768-2.768 2.764 2.764 0 012.768-2.768 2.764 2.764 0 012.767 2.768 2.764 2.764 0 01-2.767 2.767zm0-5.151a2.391 2.391 0 10.001 4.782 2.391 2.391 0 00-.002-4.782z"/><path fill="#fff" d="M15.53 23.978a6.33 6.33 0 016.328-6.327 6.33 6.33 0 016.326 6.327H15.531z"/><path fill="#535665" d="M28.373 24.166h-13.03v-.188a6.522 6.522 0 016.515-6.515 6.517 6.517 0 016.515 6.515v.188zm-12.646-.377h12.269c-.098-3.295-2.813-5.95-6.131-5.95s-6.032 2.655-6.13 5.95h-.008z"/><path fill="#79BEA8" d="M33.56 14.521V6.068l8.454 8.453H33.56z"/><path fill="#535665" d="M42.014 14.71H33.56a.187.187 0 01-.189-.188V6.069a.19.19 0 01.113-.174.185.185 0 01.204.038l8.453 8.453a.186.186 0 01.038.204.19.19 0 01-.174.113l.008.007zm-8.265-.377h7.812L33.75 6.521v7.812zm2.805 13.407H15.531a.187.187 0 01-.189-.19c0-.105.083-.188.189-.188h21.023c.106 0 .189.083.189.189a.187.187 0 01-.189.188zm0 3.581H15.531a.187.187 0 01-.189-.188c0-.106.083-.189.189-.189h21.023c.106 0 .189.083.189.189a.187.187 0 01-.189.188zm0 3.582H15.531a.187.187 0 01-.189-.188c0-.106.083-.189.189-.189h21.023c.106 0 .189.083.189.189a.187.187 0 01-.189.188zm0 3.582H15.531a.187.187 0 01-.189-.188c0-.106.083-.189.189-.189h21.023c.106 0 .189.083.189.189a.187.187 0 01-.189.188zm-10.3 3.583H15.538a.187.187 0 01-.188-.19c0-.105.083-.188.188-.188h10.716c.105 0 .188.083.188.189a.187.187 0 01-.188.189z"/><path fill="#fff" d="M43.5 42.332a8.684 8.684 0 01-12.285 0 8.693 8.693 0 010-12.29c3.394-3.394 8.89-3.387 12.284 0a8.684 8.684 0 010 12.283v.007z" opacity=".24"/><path fill="#fff" d="M46.568 42.79l-2.602 2.603 4.18 4.18 2.602-2.602-4.18-4.18z"/><path fill="#535665" d="M48.137 49.843l-4.45-4.45 2.866-2.865 4.45 4.45-2.866 2.865zm-3.914-4.45l3.914 3.914 2.337-2.337-3.913-3.914-2.338 2.338z"/><path fill="#79BEA8" d="M49.006 44.025l-3.813 3.812 4.42 4.42 3.813-3.812-4.42-4.42z"/><path fill="#535665" d="M49.615 52.444a.193.193 0 01-.136-.053l-4.419-4.419a.182.182 0 010-.264l3.808-3.807a.196.196 0 01.264 0l4.419 4.418a.182.182 0 010 .264l-3.808 3.808s-.083.053-.136.053h.008zm-4.155-4.607l4.155 4.155 3.544-3.544-4.155-4.155-3.544 3.544z"/><path fill="#fff" d="M28.976 27.808c-4.63 4.63-4.638 12.133 0 16.763 4.637 4.63 12.133 4.623 16.763 0 4.622-4.622 4.63-12.133 0-16.762-4.63-4.63-12.133-4.623-16.763 0zm14.523 14.524a8.684 8.684 0 01-12.284 0 8.693 8.693 0 010-12.291c3.394-3.394 8.89-3.386 12.284 0a8.684 8.684 0 010 12.283v.008z"/><path fill="#535665" d="M37.354 48.228A11.962 11.962 0 0128.84 44.7a11.962 11.962 0 01-3.529-8.513c0-3.22 1.252-6.244 3.53-8.513a11.967 11.967 0 018.513-3.53c3.212 0 6.236 1.252 8.513 3.53 4.698 4.69 4.698 12.329 0 17.026a11.962 11.962 0 01-8.513 3.53zm0-23.707a11.558 11.558 0 00-8.25 3.415 11.596 11.596 0 00-3.416 8.25c0 3.114 1.214 6.048 3.416 8.25a11.58 11.58 0 008.242 3.415c3.114 0 6.048-1.214 8.25-3.416 4.547-4.547 4.547-11.944 0-16.491a11.584 11.584 0 00-8.25-3.416l.008-.007zm0 20.533a8.855 8.855 0 01-6.274-2.594c-3.461-3.461-3.461-9.094 0-12.555a8.818 8.818 0 016.274-2.594c2.367 0 4.6.927 6.273 2.601 3.462 3.461 3.462 9.087 0 12.548a8.84 8.84 0 01-6.281 2.594h.008zm0-17.374a8.41 8.41 0 00-6.003 2.489c-3.318 3.317-3.318 8.709 0 12.02 3.31 3.31 8.702 3.31 12.02 0 3.31-3.311 3.31-8.703 0-12.013a8.441 8.441 0 00-6.01-2.488l-.007-.008z"/><path fill="#fff" d="M26.367 49.953a.905.905 0 100-1.81.905.905 0 000 1.81z"/><path fill="#79BEA8" d="M26.367 50.142a1.09 1.09 0 01-.777-.325 1.102 1.102 0 01-.324-.776c0-.294.113-.566.324-.777a1.125 1.125 0 011.553 0c.204.204.325.483.325.777a1.11 1.11 0 01-1.1 1.1zm0-1.818a.745.745 0 00-.513.212.714.714 0 000 1.01.724.724 0 001.018 0 .713.713 0 00-.505-1.221z"/><path fill="#fff" d="M9.257 12.484a.822.822 0 100-1.644.822.822 0 000 1.644z"/><path fill="#79BEA8" d="M9.257 12.672c-.256 0-.52-.098-.716-.294a1.01 1.01 0 010-1.425 1.01 1.01 0 011.425 0 1.01 1.01 0 010 1.425 1.004 1.004 0 01-.717.294h.008zm0-1.643a.61.61 0 00-.445.188.633.633 0 000 .897.633.633 0 00.897 0 .629.629 0 00.189-.444.642.642 0 00-.633-.633l-.008-.008z"/><path fill="#fff" d="M10.81 32.203a2.307 2.307 0 01-3.257 0 2.308 2.308 0 010 3.258 2.307 2.307 0 013.257 0 2.307 2.307 0 010-3.258z"/><path fill="#79BEA8" d="M10.81 35.642a.193.193 0 01-.135-.053 2.116 2.116 0 00-2.986 0 .182.182 0 01-.264 0 .182.182 0 01-.053-.135c0-.053.015-.098.053-.136a2.116 2.116 0 000-2.986.182.182 0 01-.053-.136c0-.053.015-.098.053-.136a.182.182 0 01.264 0 2.116 2.116 0 002.986 0 .182.182 0 01.264 0 .182.182 0 01.053.136.182.182 0 01-.053.136 2.116 2.116 0 000 2.986.182.182 0 01.053.136.182.182 0 01-.053.136.182.182 0 01-.136.052h.007zm-1.628-1.048c.324 0 .648.06.957.189a2.53 2.53 0 010-1.908 2.532 2.532 0 01-1.907 0 2.53 2.53 0 010 1.908c.301-.129.633-.189.957-.189h-.007z"/><path fill="#fff" d="M43.07 14.4c.52.52.52 1.358 0 1.878.52-.52 1.357-.52 1.877 0a1.324 1.324 0 010-1.878c-.52.52-1.357.52-1.878 0z"/><path fill="#79BEA8" d="M44.947 16.466a.193.193 0 01-.136-.052 1.133 1.133 0 00-1.606 0 .182.182 0 01-.264 0 .182.182 0 01-.053-.136c0-.053.016-.098.053-.136a1.133 1.133 0 000-1.606.182.182 0 01-.053-.136c0-.053.016-.098.053-.135a.182.182 0 01.264 0 1.133 1.133 0 001.606 0 .182.182 0 01.264 0 .182.182 0 01.053.135.182.182 0 01-.053.136 1.133 1.133 0 000 1.606.182.182 0 01.053.136.182.182 0 01-.188.188h.007zm-.935-.761c.143 0 .286.022.422.06a1.605 1.605 0 010-.844 1.605 1.605 0 01-.844 0c.075.271.075.565 0 .844a1.57 1.57 0 01.422-.06z"/></svg>