<svg xmlns="http://www.w3.org/2000/svg" width="56" height="56" fill="none" viewBox="0 0 56 56"><path fill="#E4E0F6" d="M28 56c15.464 0 28-12.536 28-28S43.464 0 28 0 0 12.536 0 28s12.536 28 28 28z"/><path fill="#fff" d="M43.024 14.62H9.219a.8.8 0 00-.799.799v23.624a.8.8 0 00.8.8h33.804a.8.8 0 00.8-.8V15.42a.8.8 0 00-.8-.8z"/><path fill="#535665" d="M43.024 40.031H9.219a.991.991 0 01-.988-.988V15.42c0-.543.445-.988.988-.988h33.805c.543 0 .988.445.988.988v23.624a.991.991 0 01-.988.988zM9.219 14.808c-.34 0-.61.271-.61.61v23.625c0 .34.27.611.61.611h33.805c.34 0 .61-.271.61-.61V15.418c0-.34-.27-.611-.61-.611H9.219z"/><path fill="#7865D4" d="M8.42 35.65h35.403v3.371c0 .453-.37.822-.822.822H9.181a.756.756 0 01-.753-.754V35.65H8.42z"/><path fill="#535665" d="M43.001 40.032H9.181a.943.943 0 01-.942-.943V35.65c0-.105.083-.188.189-.188H43.83c.105 0 .188.083.188.188v3.371a1.01 1.01 0 01-1.01 1.01H43zM8.61 35.839v3.25c0 .31.256.566.565.566h33.82a.632.632 0 00.633-.634V35.84H8.601h.008z"/><path fill="#fff" d="M17.084 42.821H35.99c.294 0 .528.234.528.528v1.976h-19.96v-1.976c0-.294.233-.528.527-.528z"/><path fill="#535665" d="M36.517 45.505h-19.96a.187.187 0 01-.19-.188v-1.976a.72.72 0 01.717-.716H35.99a.72.72 0 01.716.716v1.976a.187.187 0 01-.188.188zm-19.772-.377h19.583v-1.787a.338.338 0 00-.34-.339H17.085c-.188 0-.34.15-.34.34v1.787z"/><path fill="#fff" d="M30.001 42.821h-6.937l1.176-2.978h4.593L30 42.82z"/><path fill="#535665" d="M30.001 43.01h-6.937c-.06 0-.12-.03-.158-.083a.181.181 0 01-.023-.173l1.176-2.971a.186.186 0 01.174-.12h4.592c.075 0 .143.044.173.12l1.177 2.97a.18.18 0 01-.023.174.187.187 0 01-.158.083H30zm-6.658-.377h6.387l-1.026-2.594H24.37l-1.026 2.594z"/><path fill="#7865D4" d="M45.935 18.345a5.65 5.65 0 00-.211-1.561l1.644-1.312-1.23-2.134-1.945.769a6.044 6.044 0 00-2.707-1.568l-.31-2.074h-2.473l-.309 2.074a5.975 5.975 0 00-2.707 1.568l-1.945-.77-1.23 2.135 1.644 1.312a5.949 5.949 0 00-.21 1.56c0 .536.067 1.064.21 1.562l-1.644 1.312 1.23 2.134 1.953-.77a5.976 5.976 0 002.7 1.562l.308 2.073h2.474l.309-2.073a5.937 5.937 0 002.7-1.561l1.952.769 1.23-2.134-1.644-1.312a5.905 5.905 0 00.21-1.561zm-6.003 2.986a2.987 2.987 0 010-5.972 2.988 2.988 0 012.986 2.986 2.988 2.988 0 01-2.986 2.986z"/><path fill="#535665" d="M41.177 26.405h-2.474a.194.194 0 01-.188-.158l-.294-1.953a6.208 6.208 0 01-2.58-1.486l-1.84.724a.186.186 0 01-.233-.082l-1.229-2.134a.187.187 0 01.045-.242l1.546-1.237a6.114 6.114 0 01-.18-1.485c0-.505.06-1.003.18-1.486l-1.546-1.236a.187.187 0 01-.045-.242l1.23-2.133c.044-.084.142-.114.233-.084l1.832.724a6.092 6.092 0 012.587-1.493l.294-1.953a.188.188 0 01.188-.158h2.474c.09 0 .173.068.188.158l.294 1.953a6.265 6.265 0 012.587 1.493l1.832-.723a.186.186 0 01.234.082l1.229 2.135a.187.187 0 01-.045.24l-1.546 1.237a6.165 6.165 0 010 2.971l1.546 1.237c.075.06.09.159.045.241l-1.23 2.134c-.044.083-.142.114-.233.083l-1.84-.724a6.128 6.128 0 01-2.579 1.486l-.294 1.953a.188.188 0 01-.188.158zm-2.308-.377h2.15l.286-1.907a.177.177 0 01.136-.151 5.844 5.844 0 002.616-1.508.203.203 0 01.204-.046l1.802.71 1.07-1.856-1.515-1.206c-.06-.046-.083-.128-.06-.196.136-.483.203-.988.203-1.508s-.068-1.018-.203-1.509a.168.168 0 01.068-.196l1.515-1.206-1.07-1.848-1.795.71a.175.175 0 01-.204-.046 5.814 5.814 0 00-2.624-1.516.185.185 0 01-.136-.15l-.286-1.908h-2.15l-.286 1.907a.177.177 0 01-.136.151 5.814 5.814 0 00-2.624 1.516.203.203 0 01-.203.045l-1.795-.709-1.07 1.848 1.515 1.206c.06.046.083.128.068.196a5.64 5.64 0 00-.204 1.509c0 .512.068 1.025.204 1.508.022.075 0 .15-.06.196l-1.516 1.206 1.07 1.855 1.803-.709c.068-.03.15-.007.203.046a5.774 5.774 0 002.617 1.508.185.185 0 01.136.15l.286 1.908h-.015zm1.071-4.501a3.18 3.18 0 01-3.175-3.175 3.18 3.18 0 013.175-3.175 3.18 3.18 0 013.175 3.175 3.18 3.18 0 01-3.175 3.175zm0-5.973a2.797 2.797 0 10-.002 5.597 2.797 2.797 0 00.002-5.597z"/><path fill="#7865D4" d="M31.065 19.37H12.899a.187.187 0 01-.188-.19c0-.105.083-.188.188-.188h18.166c.105 0 .188.083.188.189a.187.187 0 01-.188.188zm0 3.272H12.899a.187.187 0 01-.188-.189c0-.105.083-.188.188-.188h18.166c.105 0 .188.083.188.188a.187.187 0 01-.188.189zm0 3.272H12.899a.187.187 0 01-.188-.188c0-.106.083-.189.188-.189h18.166c.105 0 .188.083.188.189a.187.187 0 01-.188.188zm9.478 3.266H12.9a.187.187 0 01-.188-.189c0-.105.083-.188.188-.188h27.644c.106 0 .189.083.189.188a.187.187 0 01-.189.189zm0 3.272H12.9a.187.187 0 01-.188-.188c0-.106.083-.189.188-.189h27.644c.106 0 .189.083.189.189a.187.187 0 01-.189.188z"/><path fill="#fff" d="M14.845 12.884a.535.535 0 100-1.07.535.535 0 000 1.07z"/><path fill="#7865D4" d="M14.845 13.073a.712.712 0 01-.513-.211.733.733 0 010-1.026.726.726 0 011.025 1.026.713.713 0 01-.512.21zm0-1.071c-.09 0-.181.03-.25.098a.346.346 0 10.49.49.342.342 0 00.106-.249.347.347 0 00-.354-.347l.008.008z"/><path fill="#fff" d="M46.998 31.395a.822.822 0 100-1.644.822.822 0 000 1.644z"/><path fill="#7865D4" d="M46.998 31.584c-.256 0-.52-.098-.716-.294a1.01 1.01 0 010-1.426 1.01 1.01 0 011.425 0 1.01 1.01 0 010 1.426 1.004 1.004 0 01-.717.294h.008zm0-1.644a.611.611 0 00-.445.188.633.633 0 000 .898.633.633 0 00.897 0 .633.633 0 000-.898.642.642 0 00-.445-.188h-.007z"/><path fill="#fff" d="M11.082 42.51c-.86 0-1.554-.694-1.554-1.554a1.55 1.55 0 01-1.553 1.553c.86 0 1.553.694 1.553 1.554 0-.86.694-1.554 1.554-1.554z"/><path fill="#7865D4" d="M9.528 44.251a.187.187 0 01-.188-.188c0-.754-.61-1.365-1.365-1.365a.187.187 0 01-.188-.188c0-.106.082-.189.188-.189.754 0 1.365-.61 1.365-1.365 0-.106.083-.188.188-.188.106 0 .189.082.189.188 0 .754.61 1.365 1.365 1.365.105 0 .188.083.188.189a.187.187 0 01-.188.188c-.754 0-1.365.61-1.365 1.365a.187.187 0 01-.189.188zM8.76 42.51c.332.165.596.437.77.769.165-.332.437-.596.768-.77a1.763 1.763 0 01-.769-.769 1.764 1.764 0 01-.769.77z"/><path fill="#fff" d="M30.386 10.477c-.52.52-1.357.52-1.878 0 .52.52.52 1.357 0 1.877.52-.52 1.358-.52 1.878 0a1.324 1.324 0 010-1.877z"/><path fill="#7865D4" d="M30.378 12.536a.194.194 0 01-.136-.053 1.133 1.133 0 00-1.606 0 .182.182 0 01-.264 0 .182.182 0 01-.052-.136c0-.053.015-.098.052-.136a1.133 1.133 0 000-1.606.182.182 0 01-.052-.135c0-.053.015-.098.052-.136a.182.182 0 01.264 0 1.133 1.133 0 001.607 0 .182.182 0 01.263 0 .182.182 0 01.053.136.182.182 0 01-.053.135 1.133 1.133 0 000 1.606.182.182 0 01.053.136.182.182 0 01-.189.188h.008zm-.935-.762c.143 0 .287.023.422.06a1.605 1.605 0 010-.844 1.605 1.605 0 01-.844 0c.075.271.075.566 0 .845.136-.038.279-.06.422-.06z"/></svg>