<svg xmlns="http://www.w3.org/2000/svg" width="56" height="56" fill="none" viewBox="0 0 56 56"><path fill="#EDF4FD" d="M28 56c15.464 0 28-12.536 28-28S43.464 0 28 0 0 12.536 0 28s12.536 28 28 28z"/><path fill="#75AEF5" d="M35.273 9.367l-24.49 5.228 6.97 32.654 24.491-5.228-6.97-32.654z"/><path fill="#535665" d="M17.755 47.42s-.075-.008-.105-.03a.197.197 0 01-.083-.122l-6.975-32.65a.24.24 0 01.022-.144c.023-.045.068-.068.12-.083L35.22 9.165a.195.195 0 01.227.144l6.975 32.65a.19.19 0 01-.143.227l-24.485 5.226h-.038v.007zm-6.749-32.697l6.892 32.282 24.116-5.15L35.12 9.572l-24.115 5.15z"/><path fill="#fff" d="M45.025 10.437L20.11 7.915l-3.363 33.22 24.916 2.522 3.362-33.22z"/><path fill="#535665" d="M41.66 43.86h-.023l-24.915-2.526a.168.168 0 01-.128-.068.18.18 0 01-.038-.136L19.92 7.914a.18.18 0 01.204-.166l24.914 2.526a.17.17 0 01.129.068.18.18 0 01.037.136L41.84 43.694c-.007.098-.09.166-.188.166h.007zm-24.704-2.88l24.537 2.488 3.326-32.847L20.28 8.133 16.956 40.98z"/><path fill="#A3C9F5" d="M41.96 10.417H16.919v33.39h25.043v-33.39z"/><path fill="#535665" d="M41.96 43.996H16.919a.187.187 0 01-.188-.189v-33.39c0-.105.083-.188.188-.188h25.043c.105 0 .188.083.188.188v33.39a.187.187 0 01-.188.189zm-24.853-.378h24.665V10.605H17.107v33.013z"/><path fill="#535665" d="M37.76 16.253H20.305a.187.187 0 01-.188-.189c0-.105.082-.188.188-.188h17.457c.105 0 .188.083.188.188a.187.187 0 01-.188.189zm0 3.717H20.305a.187.187 0 01-.188-.188c0-.105.082-.188.188-.188h17.457c.105 0 .188.083.188.188a.187.187 0 01-.188.189zm0 3.725H20.305a.187.187 0 01-.188-.188c0-.106.082-.189.188-.189h17.457c.105 0 .188.083.188.189a.187.187 0 01-.188.188zm0 3.725H20.305a.187.187 0 01-.188-.189c0-.105.082-.188.188-.188h17.457c.105 0 .188.083.188.189a.187.187 0 01-.188.188zm0 3.719H20.305a.187.187 0 01-.188-.189c0-.105.082-.188.188-.188h17.457c.105 0 .188.083.188.188a.187.187 0 01-.188.189zm-5.504 3.723H20.304a.187.187 0 01-.188-.188c0-.106.082-.189.188-.189h11.952c.105 0 .188.083.188.189a.187.187 0 01-.188.188z"/><path fill="#A3C9F5" d="M36.713 40.12v7.737l2.571-3.137 2.67 3.137V40.12c-.785.415-4.457.415-5.241 0z"/><path fill="#535665" d="M36.713 48.045s-.046 0-.06-.008a.195.195 0 01-.129-.18v-7.738c0-.067.038-.128.09-.158a.187.187 0 01.189 0c.732.385 4.336.385 5.067 0 .06-.03.129-.03.189 0s.09.098.09.158v7.737a.19.19 0 01-.12.174c-.076.03-.159 0-.211-.053l-2.526-2.964-2.429 2.964a.186.186 0 01-.143.068h-.007zm2.57-3.514c.054 0 .106.022.144.068l2.338 2.744v-6.952c-1.071.302-3.793.302-4.864 0v6.937l2.24-2.73c.037-.045.09-.052.143-.067z"/><path fill="#75AEF5" d="M39.337 32.89c-2.858 0-5.18 2.352-5.18 5.263 0 2.91 2.314 5.263 5.18 5.263 2.865 0 5.173-2.352 5.173-5.263 0-2.91-2.315-5.263-5.173-5.263z"/><path fill="#535665" d="M39.337 43.597c-2.964 0-5.37-2.443-5.37-5.452s2.406-5.452 5.37-5.452c2.963 0 5.361 2.444 5.361 5.452 0 3.009-2.405 5.452-5.361 5.452zm0-10.52c-2.753 0-4.992 2.278-4.992 5.076 0 2.797 2.24 5.075 4.992 5.075s4.984-2.278 4.984-5.075c0-2.798-2.24-5.075-4.984-5.075z"/><path fill="#fff" fill-rule="evenodd" d="M40.988 40.74l-1.651-1.018-1.652 1.018.438-1.908-1.456-1.282 1.923-.166.754-1.81.754 1.81 1.923.166-1.455 1.282.43 1.908h-.008z" clip-rule="evenodd"/><path fill="#fff" d="M14.528 12.282a.535.535 0 100-1.071.535.535 0 000 1.07z"/><path fill="#75AEF5" d="M14.528 12.47a.718.718 0 01-.724-.724.726.726 0 011.237-.513.733.733 0 010 1.026.718.718 0 01-.513.211zm0-1.07a.347.347 0 00-.249.595.36.36 0 00.49 0 .346.346 0 000-.49.347.347 0 00-.249-.098l.008-.008z"/><path fill="#fff" d="M47.247 38.537a.822.822 0 100-1.643.822.822 0 000 1.643z"/><path fill="#75AEF5" d="M47.254 38.726c-.256 0-.52-.098-.716-.294a1.01 1.01 0 010-1.425 1.01 1.01 0 011.425 0 1.01 1.01 0 010 1.425 1.004 1.004 0 01-.716.294h.007zm0-1.644a.611.611 0 00-.444.189.633.633 0 000 .897.633.633 0 00.897 0 .633.633 0 000-.897.642.642 0 00-.445-.189h-.008z"/><path fill="#fff" d="M12.394 36.63a1.55 1.55 0 01-1.553-1.553 1.55 1.55 0 01-1.554 1.553c.86 0 1.554.694 1.554 1.554 0-.86.693-1.553 1.553-1.553z"/><path fill="#75AEF5" d="M10.84 38.373a.187.187 0 01-.188-.19c0-.753-.61-1.364-1.365-1.364a.187.187 0 01-.188-.188c0-.106.083-.189.188-.189.754 0 1.365-.61 1.365-1.365 0-.105.083-.188.189-.188.105 0 .188.083.188.188 0 .754.61 1.365 1.365 1.365.105 0 .188.083.188.189a.187.187 0 01-.188.188c-.754 0-1.365.61-1.365 1.365a.187.187 0 01-.188.189zm-.769-1.742c.332.166.596.437.77.769.166-.332.437-.596.769-.77a1.763 1.763 0 01-.77-.769 1.764 1.764 0 01-.769.77z"/><path fill="#fff" d="M47.367 15.132c-.52.52-1.357.52-1.877 0 .52.52.52 1.357 0 1.877.52-.52 1.357-.52 1.877 0a1.325 1.325 0 010-1.877z"/><path fill="#75AEF5" d="M47.367 17.191a.193.193 0 01-.135-.053 1.133 1.133 0 00-1.606 0 .182.182 0 01-.264 0 .182.182 0 01-.053-.136.18.18 0 01.053-.135 1.133 1.133 0 000-1.606.182.182 0 01-.053-.136c0-.053.015-.098.053-.136a.182.182 0 01.264 0 1.133 1.133 0 001.606 0 .182.182 0 01.264 0 .182.182 0 01.052.136.182.182 0 01-.052.136 1.133 1.133 0 000 1.606.182.182 0 01.052.136.182.182 0 01-.052.135.182.182 0 01-.136.053h.008zm-.934-.762c.143 0 .286.023.422.06a1.605 1.605 0 010-.844 1.605 1.605 0 01-.845 0c.076.272.076.566 0 .845.136-.038.28-.06.422-.06z"/></svg>