<svg width="150" height="150" viewBox="0 0 150 150" fill="none" xmlns="http://www.w3.org/2000/svg">
	<path d="M134.47 133.29H140" stroke="#92A2B1" stroke-width="1.2" stroke-linecap="round" stroke-linejoin="round"/>
	<path d="M104.25 133.29H128.47" stroke="#92A2B1" stroke-width="1.2" stroke-linecap="round" stroke-linejoin="round"/>
	<path d="M10 133.29H98.5" stroke="#92A2B1" stroke-width="1.2" stroke-linecap="round" stroke-linejoin="round"/>
	<path opacity="0.2" d="M72.4203 126.39C99.9297 126.39 122.23 104.089 122.23 76.58C122.23 49.0707 99.9297 26.77 72.4203 26.77C44.911 26.77 22.6104 49.0707 22.6104 76.58C22.6104 104.089 44.911 126.39 72.4203 126.39Z" fill="#BFC7D3"/>
	<path d="M69.691 77.8055C70.5967 68.4955 77.0763 49.8085 95.7486 49.5407C114.421 49.273 116.487 32.9694 115.186 24.8511" stroke="#92A2B1" stroke-linecap="round" stroke-dasharray="0.4 4.4"/>
	<path d="M35.0245 46.6411H58.2545C61.2945 46.6411 64.0345 48.4911 65.1745 51.3111L70.4145 64.3111C70.9845 65.7211 72.3545 66.6511 73.8745 66.6511H106.174C110.294 66.6511 113.634 69.9911 113.634 74.1111V108.151C113.634 112.271 110.294 115.611 106.174 115.611H35.0245C30.9045 115.611 27.5645 112.271 27.5645 108.151V54.1011C27.5645 49.9811 30.9045 46.6411 35.0245 46.6411Z" fill="white" stroke="#92A2B1" stroke-width="1.2"/>
	<path d="M86.1636 79.9106H53.0336C48.5822 79.9106 44.9736 83.5192 44.9736 87.9706C44.9736 92.4221 48.5822 96.0306 53.0336 96.0306H86.1636C90.615 96.0306 94.2236 92.4221 94.2236 87.9706C94.2236 83.5192 90.615 79.9106 86.1636 79.9106Z" fill="#EBEFF3"/>
	<path d="M111.965 20.3757C113.937 22.1103 118.225 24.7782 119.601 21.5728C120.977 18.3674 115.083 19.4392 111.965 20.3757Z" stroke="#92A2B1" stroke-linecap="round" stroke-linejoin="round"/>
	<path d="M111.907 20.3841C112.902 23.4599 113.864 29.6544 109.754 29.8265C105.644 29.9986 109.477 23.6033 111.907 20.3841Z" stroke="#92A2B1" stroke-linecap="round" stroke-linejoin="round"/>
</svg>
