<svg xmlns="http://www.w3.org/2000/svg" width="70" height="70" fill="none" viewBox="0 0 70 70"><path fill="#DFF4EC" d="M35 70c19.33 0 35-15.67 35-35S54.33 0 35 0 0 15.67 0 35s15.67 35 35 35z"/><path fill="#535665" d="M49.587 56.598H20.42a.134.134 0 01-.133-.133c0-.07.063-.133.133-.133h29.173c.076 0 .133.063.133.133s-.063.133-.133.133h-.006z"/><path fill="#DFF4EC" d="M35 18.665a4.801 4.801 0 100-9.602 4.801 4.801 0 000 9.602z"/><path fill="#535665" d="M35 18.817a4.96 4.96 0 01-4.953-4.953A4.96 4.96 0 0135 8.911a4.96 4.96 0 014.953 4.953A4.96 4.96 0 0135 18.817zm0-9.602a4.663 4.663 0 00-4.656 4.655A4.663 4.663 0 0035 18.526a4.663 4.663 0 004.655-4.656A4.663 4.663 0 0035 9.215z"/><path fill="#79BEA8" d="M24.227 15.517h21.547c.652 0 1.184.532 1.184 1.184v39.763h-23.91V16.7c0-.652.533-1.184 1.185-1.184h-.006z"/><path fill="#535665" d="M46.958 56.61h-23.91a.154.154 0 01-.152-.152V16.7c0-.735.596-1.33 1.33-1.33h21.548c.734 0 1.33.595 1.33 1.33v39.763c0 .083-.07.152-.152.152l.006-.006zm-23.764-.298h23.612v-39.61c0-.57-.462-1.033-1.032-1.033H24.226c-.57 0-1.032.462-1.032 1.032v39.611z"/><path fill="#fff" d="M27.71 12.129h14.58c.78 0 1.413.633 1.413 1.412v1.97H26.298v-1.97c0-.779.633-1.412 1.412-1.412z"/><path fill="#535665" d="M43.71 15.656H26.303a.14.14 0 01-.14-.14v-1.97c0-.854.698-1.55 1.553-1.55h14.58c.855 0 1.552.696 1.552 1.55v1.97a.14.14 0 01-.14.14zm-17.266-.279H43.57v-1.83c0-.703-.57-1.273-1.273-1.273h-14.58c-.703 0-1.273.57-1.273 1.273v1.83z"/><path fill="#DFF4EC" d="M32.663 21.8h-3.768v3.77h3.768V21.8z"/><path fill="#535665" d="M32.67 25.721H28.9a.154.154 0 01-.151-.152V21.8c0-.082.07-.152.152-.152h3.768c.083 0 .153.07.153.152v3.769c0 .082-.07.152-.153.152zm-3.623-.298h3.47v-3.47h-3.47v3.47z"/><path fill="#DFF4EC" d="M32.663 30.004h-3.768v3.768h3.768v-3.768z"/><path fill="#535665" d="M32.67 33.924H28.9a.154.154 0 01-.151-.152v-3.768c0-.083.07-.152.152-.152h3.768c.083 0 .153.07.153.152v3.768c0 .083-.07.152-.153.152zm-3.623-.298h3.47v-3.47h-3.47v3.47z"/><path fill="#DFF4EC" d="M32.663 38.205h-3.768v3.769h3.768v-3.769z"/><path fill="#535665" d="M32.67 42.125H28.9a.154.154 0 01-.151-.152v-3.768c0-.083.07-.152.152-.152h3.768c.083 0 .153.07.153.152v3.768c0 .083-.07.152-.153.152zm-3.623-.297h3.47v-3.471h-3.47v3.47z"/><path fill="#DFF4EC" d="M32.663 46.407h-3.768v3.769h3.768v-3.769z"/><path fill="#535665" d="M32.67 50.327H28.9a.154.154 0 01-.151-.152v-3.768c0-.082.07-.152.152-.152h3.768c.083 0 .153.07.153.152v3.768c0 .083-.07.152-.153.152zm-3.623-.297h3.47v-3.471h-3.47v3.47z"/><path fill="#fff" d="M49.428 21.8H37.293c-.63 0-1.14.51-1.14 1.14v4.186c0 .63.51 1.14 1.14 1.14h12.135c.63 0 1.14-.51 1.14-1.14V22.94c0-.63-.51-1.14-1.14-1.14z"/><path fill="#535665" d="M49.428 28.4H37.3c-.703 0-1.273-.57-1.273-1.274v-4.18c0-.703.57-1.273 1.273-1.273h12.13c.702 0 1.272.57 1.272 1.273v4.18c0 .703-.57 1.273-1.273 1.273zM37.3 21.932c-.557 0-1.013.456-1.013 1.013v4.18c0 .557.456 1.014 1.013 1.014h12.13c.556 0 1.013-.457 1.013-1.014v-4.18c0-.557-.456-1.014-1.014-1.014H37.3z"/><path fill="#535665" d="M48.668 24.112H43.88a.134.134 0 01-.133-.133.13.13 0 01.133-.133h4.788c.07 0 .133.057.133.133a.13.13 0 01-.133.133zm0 1.058H43.88a.134.134 0 01-.133-.134.13.13 0 01.133-.133h4.788c.07 0 .133.057.133.133a.13.13 0 01-.133.133zm-2.951 1.051H43.88a.134.134 0 01-.133-.133.13.13 0 01.133-.133h1.837c.07 0 .133.057.133.133a.13.13 0 01-.133.133z"/><path fill="#F2AA3C" d="M41.005 23.18h-1.97a.874.874 0 00-.874.874v1.97c0 .482.391.874.874.874h1.97a.874.874 0 00.874-.875v-1.97a.874.874 0 00-.874-.873z"/><path fill="#535665" d="M41.004 27.024h-1.963c-.557 0-1.007-.45-1.007-1.007v-1.963c0-.557.45-1.007 1.007-1.007h1.963c.558 0 1.007.45 1.007 1.007v1.963c0 .558-.45 1.007-1.007 1.007zm-1.963-3.717a.749.749 0 00-.747.747v1.963c0 .412.335.748.747.748h1.963a.749.749 0 00.748-.748v-1.963a.749.749 0 00-.748-.747h-1.963z"/><path fill="#fff" d="M49.428 32.756H37.293c-.63 0-1.14.51-1.14 1.14v4.187c0 .63.51 1.14 1.14 1.14h12.135c.63 0 1.14-.51 1.14-1.14v-4.187c0-.63-.51-1.14-1.14-1.14z"/><path fill="#535665" d="M49.428 39.35H37.3c-.703 0-1.273-.57-1.273-1.274v-4.18c0-.703.57-1.273 1.273-1.273h12.13c.702 0 1.272.57 1.272 1.273v4.18c0 .703-.57 1.273-1.273 1.273zM37.3 32.882c-.557 0-1.013.456-1.013 1.013v4.18c0 .558.456 1.014 1.013 1.014h12.13c.556 0 1.013-.456 1.013-1.014v-4.18c0-.557-.456-1.013-1.014-1.013H37.3z"/><path fill="#535665" d="M48.668 35.062H43.88a.134.134 0 01-.133-.133.13.13 0 01.133-.133h4.788c.07 0 .133.057.133.133a.13.13 0 01-.133.133zm0 1.058H43.88a.134.134 0 01-.133-.133.13.13 0 01.133-.134h4.788c.07 0 .133.057.133.133a.13.13 0 01-.133.134zm-2.951 1.051H43.88a.134.134 0 01-.133-.133.13.13 0 01.133-.133h1.837c.07 0 .133.057.133.133a.13.13 0 01-.133.133z"/><path fill="#EC7170" d="M41.005 34.13h-1.97a.874.874 0 00-.874.874v1.97c0 .482.391.874.874.874h1.97a.874.874 0 00.874-.874v-1.97a.874.874 0 00-.874-.874z"/><path fill="#535665" d="M41.004 37.975h-1.963c-.557 0-1.007-.45-1.007-1.007v-1.964c0-.557.45-1.007 1.007-1.007h1.963c.558 0 1.007.45 1.007 1.007v1.964c0 .557-.45 1.007-1.007 1.007zm-1.963-3.718a.749.749 0 00-.747.747v1.964c0 .411.335.747.747.747h1.963a.749.749 0 00.748-.747v-1.964a.749.749 0 00-.748-.747h-1.963z"/><path fill="#fff" d="M49.428 43.708H37.293c-.63 0-1.14.51-1.14 1.14v4.187c0 .63.51 1.14 1.14 1.14h12.135c.63 0 1.14-.51 1.14-1.14v-4.187c0-.63-.51-1.14-1.14-1.14z"/><path fill="#535665" d="M49.428 50.307H37.3c-.703 0-1.273-.57-1.273-1.273v-4.18c0-.703.57-1.273 1.273-1.273h12.13c.702 0 1.272.57 1.272 1.273v4.18c0 .703-.57 1.273-1.273 1.273zM37.3 43.841c-.557 0-1.013.456-1.013 1.013v4.18c0 .558.456 1.014 1.013 1.014h12.13c.556 0 1.013-.456 1.013-1.014v-4.18c0-.557-.456-1.013-1.014-1.013H37.3z"/><path fill="#535665" d="M48.668 46.02H43.88a.134.134 0 01-.133-.133.13.13 0 01.133-.133h4.788c.07 0 .133.057.133.133a.13.13 0 01-.133.133zm0 1.052H43.88a.134.134 0 01-.133-.133.13.13 0 01.133-.133h4.788c.07 0 .133.057.133.133a.13.13 0 01-.133.133zm-2.951 1.058H43.88a.134.134 0 01-.133-.134.13.13 0 01.133-.133h1.837c.07 0 .133.057.133.133a.13.13 0 01-.133.133z"/><path fill="#A3C9F5" d="M41.005 45.082h-1.97a.874.874 0 00-.874.874v1.97c0 .483.391.874.874.874h1.97a.874.874 0 00.874-.874v-1.97a.874.874 0 00-.874-.874z"/><path fill="#535665" d="M41.004 48.933h-1.963c-.557 0-1.007-.45-1.007-1.007v-1.964c0-.557.45-1.007 1.007-1.007h1.963c.558 0 1.007.45 1.007 1.007v1.964c0 .557-.45 1.007-1.007 1.007zm-1.963-3.718a.749.749 0 00-.747.747v1.964c0 .411.335.747.747.747h1.963a.749.749 0 00.748-.747v-1.964a.749.749 0 00-.748-.747h-1.963zm.981-12.325a.134.134 0 01-.133-.134v-4.32c0-.069.057-.132.133-.132a.13.13 0 01.133.133v4.32a.133.133 0 01-.133.132zm0 10.78a.134.134 0 01-.133-.133v-4.32c0-.07.057-.133.133-.133a.13.13 0 01.133.133v4.32c0 .07-.057.133-.133.133z"/></svg>