<svg width="151" height="110" viewBox="0 0 151 110" fill="none" xmlns="http://www.w3.org/2000/svg">
<path d="M64.062 53.4004L89.1572 85.8744L80.9565 96.4312L68.5794 85.9475C66.7286 84.3828 65.6084 82.1241 65.4805 79.7011L64.0681 53.4065L64.062 53.4004Z" fill="white"/>
<path d="M80.9567 96.7532C80.8776 96.7532 80.8045 96.7288 80.7436 96.674L68.3665 86.1903C66.4549 84.5708 65.2859 82.2087 65.152 79.7125L63.7396 53.4179C63.7335 53.2718 63.8187 53.144 63.9527 53.0892C64.0866 53.0405 64.2388 53.0831 64.3301 53.1988L89.4253 85.6728C89.5166 85.7885 89.5166 85.9589 89.4253 86.0746L81.2246 96.6314C81.1698 96.7045 81.0907 96.7471 80.9993 96.7593C80.9872 96.7593 80.975 96.7593 80.9628 96.7593L80.9567 96.7532ZM64.4519 54.4347L65.8095 79.676C65.9313 81.9956 67.0211 84.1873 68.7927 85.685L80.908 95.9495L88.7434 85.8676L64.4519 54.4347Z" fill="#27313A"/>
<path d="M63.2768 108.303L64.6101 88.7785C67.8794 83.8654 70.3877 81.5154 70.3877 77.1198C70.2233 73.4182 69.3162 69.7836 67.7211 66.4412L68.1473 62.21C68.2386 60.7914 68.0316 59.3729 67.5385 58.0396C67.0453 56.7063 66.2782 55.4948 65.292 54.472C64.2996 53.4552 63.1063 52.6516 61.7913 52.128C60.4702 51.5984 59.0577 51.3548 57.6392 51.4036L28.1241 53.09C25.9385 53.2117 23.8746 54.1249 22.3161 55.6591C20.7575 57.1994 19.82 59.2511 19.6678 61.4368L14.7607 108.309" fill="white"/>
<path d="M15.0833 108.34L14.4258 108.273L19.3328 61.4003C19.485 59.1477 20.4591 57.023 22.0724 55.4279C23.6919 53.8328 25.8288 52.883 28.0936 52.7613L57.6087 51.0688C59.0942 51.014 60.537 51.2697 61.9008 51.8176C63.2706 52.3656 64.4882 53.1814 65.5171 54.2407C66.546 55.3 67.3253 56.5359 67.8367 57.924C68.3481 59.3121 68.5612 60.7611 68.4698 62.2283L68.0498 66.3804C69.6509 69.7593 70.5459 73.3696 70.7103 77.1077C70.7103 80.6936 69.0786 82.9888 66.82 86.1668C66.2172 87.0131 65.5962 87.8897 64.9266 88.8943L63.5994 108.334L62.9418 108.291L64.2812 88.6751L64.3299 88.6021C65.024 87.561 65.6937 86.6173 66.2842 85.7832C68.5551 82.5931 70.0527 80.4866 70.0527 77.1199C69.8884 73.4548 69.0056 69.9054 67.4166 66.5813L67.374 66.4961L67.8123 62.1735C67.8976 60.8037 67.7027 59.446 67.2218 58.1493C66.7408 56.8525 66.0103 55.6897 65.0483 54.6973C64.0864 53.7049 62.9418 52.9439 61.6573 52.4264C60.3727 51.909 59.0272 51.6776 57.6391 51.7263L28.1301 53.4127C26.0236 53.5284 24.0328 54.4051 22.5351 55.8906C21.0314 57.37 20.1303 59.3486 19.9842 61.4551L15.0772 108.34H15.0833Z" fill="#27313A"/>
<path d="M14.7548 108.632C14.7548 108.632 14.7305 108.632 14.7183 108.632C14.5356 108.613 14.4078 108.449 14.4261 108.272L19.3331 61.4C19.4853 59.1474 20.4594 57.0226 22.0727 55.4275C23.6921 53.8324 25.8291 52.8827 28.0938 52.7609L57.6089 51.0684C59.0944 51.0136 60.5373 51.2693 61.901 51.8173C63.2709 52.3652 64.4885 53.181 65.5174 54.2403C66.5463 55.2997 67.3255 56.5356 67.8369 57.9236C68.3483 59.3117 68.5614 60.7607 68.4701 62.2279L68.05 66.38C69.6512 69.7589 70.5461 73.3692 70.7105 77.1073C70.7105 80.6932 69.0789 82.9884 66.8202 86.1664C66.2175 87.0127 65.5965 87.8894 64.9268 88.8939L63.5996 108.333C63.5874 108.516 63.4292 108.65 63.2465 108.638C63.0639 108.625 62.9299 108.467 62.9421 108.285L64.2754 88.76C64.2754 88.7052 64.2998 88.6504 64.3302 88.6017C65.0242 87.5606 65.6939 86.617 66.2845 85.7829C68.5553 82.5927 70.053 80.4862 70.053 77.1195C69.8886 73.4544 69.0059 69.9051 67.4169 66.581C67.3925 66.5262 67.3803 66.4653 67.3864 66.4044L67.8126 62.1732C67.8978 60.8033 67.703 59.4457 67.222 58.1489C66.7411 56.8521 66.0105 55.6893 65.0486 54.6969C64.0867 53.7046 62.9421 52.9436 61.6575 52.4261C60.3729 51.9086 59.0275 51.6772 57.6394 51.7259L28.1304 53.4124C26.0239 53.528 24.0331 54.4047 22.5354 55.8902C21.0316 57.3696 20.1306 59.3483 19.9845 61.4548L15.0775 108.339C15.0592 108.51 14.9192 108.632 14.7487 108.632H14.7548Z" fill="#27313A"/>
<path d="M73.785 96.6326L67.1368 91.7925C67.1368 91.7925 65.1582 91.1229 62.8143 90.3679L64.9938 89.7165L72.6587 91.7621C72.8535 91.823 73.0666 91.8047 73.2554 91.7134C73.4441 91.6221 73.5902 91.4699 73.6633 91.2751C73.7363 91.0802 73.7424 90.8732 73.6754 90.6784C73.6024 90.4836 73.4623 90.3253 73.2797 90.234C71.9708 89.6617 64.9877 86.1732 64.3241 86.1915C63.6605 86.2097 55.3685 88.3345 55.3685 88.3345C53.8891 88.7789 48.1054 94.1182 41.8103 96.3647C41.3781 96.523 40.9397 96.657 40.4953 96.7665C40.2396 96.8396 39.9717 96.9005 39.6978 96.9553V106.666C41.4146 106.441 43.8559 106.136 46.1633 105.868C50.4128 105.351 54.4005 103.567 57.6272 100.754L59.2162 99.3723L62.7229 98.6478C62.7229 98.6478 68.3605 99.768 69.4868 99.8715C69.639 99.8776 69.7851 99.841 69.913 99.768C70.0408 99.6949 70.1504 99.5853 70.2235 99.4514L71.5933 99.8958C71.8368 99.975 72.1047 99.9506 72.33 99.8289C72.5613 99.7071 72.7318 99.5062 72.8048 99.2566V99.1957C72.8718 98.9887 72.8657 98.7634 72.7866 98.5625C72.7074 98.3616 72.5674 98.1912 72.3787 98.0816L71.9221 97.8076L72.6953 98.2642C72.9083 98.4042 73.1762 98.459 73.4258 98.4042C73.6815 98.3555 73.9007 98.2033 74.0407 97.9842C74.1807 97.7711 74.2355 97.5093 74.1808 97.2536C74.132 97.004 73.9798 96.7787 73.7607 96.6387H73.7789L73.785 96.6326Z" fill="white"/>
<path d="M39.6915 106.988C39.6124 106.988 39.5333 106.958 39.4724 106.909C39.3993 106.848 39.3628 106.757 39.3628 106.659V96.9488C39.3628 96.7905 39.4724 96.6565 39.6307 96.6261C39.9107 96.5713 40.1725 96.5104 40.4039 96.4434C40.8544 96.34 41.2805 96.206 41.6945 96.0538C45.7918 94.5927 49.7065 91.786 52.2939 89.9231C53.7551 88.8759 54.717 88.1819 55.2771 88.0175C56.1416 87.7983 63.636 85.8806 64.3179 85.8623H64.3301C64.8171 85.8623 66.9236 86.8303 71.1548 88.8637C72.1655 89.3508 73.0421 89.7709 73.4135 89.9292C73.6875 90.0753 73.8884 90.2944 73.9858 90.5623C74.0832 90.8363 74.0832 91.1285 73.9736 91.3964C73.864 91.6643 73.6631 91.8835 73.4014 92.0052C73.1396 92.1331 72.8473 92.1513 72.5673 92.0722L64.9998 90.057L63.9222 90.3797C65.7851 90.9885 67.228 91.4755 67.2463 91.4816C67.2767 91.4938 67.3072 91.506 67.3315 91.5303L73.9797 96.3704C73.9797 96.3704 74.0223 96.4069 74.0406 96.4313C74.278 96.62 74.4485 96.894 74.5094 97.1923C74.5764 97.5332 74.5094 97.8802 74.3207 98.1725C74.1319 98.4647 73.8336 98.6595 73.4927 98.7326C73.3892 98.7569 73.2796 98.763 73.17 98.7569C73.1883 98.9213 73.1761 99.0918 73.1335 99.2501V99.2683C73.1335 99.3049 73.1335 99.3353 73.1152 99.3657C73.0117 99.6945 72.7865 99.9685 72.476 100.127C72.1716 100.285 71.8124 100.315 71.4836 100.218L70.339 99.8467C70.2599 99.9319 70.1686 100.005 70.0651 100.06C69.8824 100.163 69.6693 100.212 69.4563 100.206C68.3665 100.102 63.3743 99.1161 62.7106 98.9883L59.3561 99.6823L57.8341 101.01C54.5526 103.877 50.5284 105.673 46.1997 106.203C43.6427 106.507 41.2866 106.793 39.7403 107C39.7281 107 39.7098 107 39.6976 107L39.6915 106.988ZM40.0203 97.2166V106.282C41.5667 106.081 43.7584 105.807 46.1206 105.533C50.3153 105.022 54.2178 103.28 57.4018 100.498L58.9908 99.1161C59.0334 99.0796 59.0821 99.0553 59.143 99.0431L62.6498 98.3186C62.6924 98.3125 62.735 98.3125 62.7776 98.3186C62.8324 98.3308 68.4152 99.4327 69.511 99.5423C69.5841 99.5423 69.6693 99.524 69.7424 99.4814C69.8215 99.4388 69.8824 99.3718 69.925 99.2988C69.9981 99.1588 70.1625 99.0918 70.3147 99.1405L71.6845 99.5849C71.8428 99.6336 72.0194 99.6154 72.1716 99.5423C72.3116 99.4692 72.4151 99.3536 72.4699 99.2075C72.4699 99.1648 72.4699 99.1344 72.482 99.104C72.5247 98.97 72.5186 98.8178 72.4699 98.6839C72.4212 98.5499 72.3238 98.4404 72.202 98.3673L71.7454 98.0933C71.5871 98.002 71.5384 97.8011 71.6297 97.6428C71.721 97.4845 71.9219 97.4358 72.0802 97.5271L72.8534 97.9837C73.0117 98.0872 73.1822 98.1238 73.3526 98.0872C73.5231 98.0507 73.6692 97.9533 73.7605 97.8133C73.858 97.6672 73.8884 97.4967 73.8519 97.3262C73.8153 97.1618 73.7179 97.0096 73.5718 96.9183C73.5475 96.9001 73.5231 96.8757 73.4988 96.8514L66.9662 92.0965C66.6496 91.9869 64.811 91.366 62.6985 90.6902C62.5584 90.6476 62.4671 90.5197 62.4671 90.3736C62.4671 90.2275 62.5645 90.1057 62.7046 90.0631L64.8841 89.4117C64.945 89.3934 65.0059 89.3934 65.0667 89.4117L72.7317 91.4573C72.8595 91.4938 72.9874 91.4877 73.0969 91.4329C73.2126 91.3781 73.2978 91.2868 73.3466 91.1711C73.3953 91.0555 73.3953 90.9276 73.3466 90.8119C73.3039 90.6963 73.2187 90.5989 73.1091 90.5441C72.7438 90.3858 71.9098 89.984 70.8504 89.4786C68.7379 88.468 64.811 86.5807 64.3057 86.5442C63.8552 86.5563 58.6255 87.8592 55.4293 88.675C54.9909 88.809 53.956 89.5456 52.6531 90.4832C50.0352 92.3644 46.078 95.2015 41.8954 96.6931C41.4571 96.8574 41.0005 96.9975 40.5439 97.101C40.3795 97.1497 40.1969 97.1923 40.002 97.241L40.0203 97.2166Z" fill="#27313A"/>
<path d="M31.6431 53.4421C26.0725 53.1133 22.4257 54.611 19.9296 58.4526C12.6726 69.606 8.36222 76.0047 3.23604 84.4793C0.532928 88.9541 0.0458803 94.5247 2.24368 99.2674C2.59679 100.028 3.02296 100.795 3.53436 101.556C3.717 101.824 3.89965 102.086 4.09447 102.33C7.08372 106.25 11.869 108.375 16.7942 108.333C21.1716 108.296 25.555 108.253 29.9506 108.186C35.1742 108.107 40.3613 108.022 46.7112 107.949L47.113 93.1123L20.2827 91.3893C24.9523 83.6574 25.3785 82.6346 31.6736 72.2057" fill="white"/>
<path d="M16.3923 108.679C9.72579 108.679 3.7351 104.484 1.45815 98.2137C-0.185633 93.6781 0.301415 88.7102 2.79754 84.5763C8.34988 75.3894 11.814 69.7883 18.9006 58.8966C21.8594 54.3488 25.1835 52.4798 30.0235 52.6746C30.2062 52.6807 30.3462 52.8329 30.3401 53.0155C30.334 53.1982 30.1818 53.3504 29.9992 53.3321C25.427 53.1495 22.2673 54.9211 19.4546 59.2558C12.3741 70.1414 8.90999 75.7364 3.36373 84.9173C0.971106 88.8745 0.502322 93.6416 2.07914 97.9885C4.27085 104.034 10.0789 108.064 16.5018 108.022C22.803 107.979 27.9901 107.9 33.4755 107.815C37.4753 107.754 41.6031 107.687 46.3944 107.638L46.778 93.4345L20.2643 91.7299C20.1486 91.7238 20.0451 91.6568 19.9964 91.5533C19.9477 91.4498 19.9477 91.3281 20.0086 91.2306C22.176 87.6387 23.4423 85.4774 24.7817 83.1882C26.3037 80.5825 28.0266 77.6359 31.3994 72.0531C31.4907 71.8948 31.6977 71.8461 31.8499 71.9435C32.0082 72.0348 32.0569 72.2418 31.9595 72.394C28.5928 77.9768 26.8699 80.9235 25.3479 83.5231C24.0633 85.7148 22.8517 87.7909 20.8487 91.1089L47.1372 92.8014C47.3137 92.8136 47.4476 92.9597 47.4476 93.1362L47.0458 107.973C47.0458 108.15 46.8997 108.29 46.7232 108.296C41.7979 108.35 37.5728 108.411 33.4876 108.478C28.0023 108.564 22.8152 108.643 16.5079 108.685C16.4714 108.685 16.4349 108.685 16.3923 108.685V108.679Z" fill="#27313A"/>
<path d="M41.5485 108.326C41.3658 108.326 41.2197 108.18 41.2197 107.997V92.9477C41.2197 92.765 41.3658 92.6189 41.5485 92.6189C41.7311 92.6189 41.8772 92.765 41.8772 92.9477V107.997C41.8772 108.18 41.7311 108.326 41.5485 108.326Z" fill="#27313A"/>
<path d="M44.6411 105.868C44.629 106.008 44.5803 106.142 44.495 106.246C44.4098 106.355 44.2941 106.435 44.1602 106.483C44.0262 106.526 43.8862 106.532 43.7523 106.496C43.6183 106.459 43.4966 106.38 43.4113 106.276C43.32 106.173 43.2652 106.039 43.247 105.905C43.2287 105.765 43.2591 105.625 43.32 105.503C43.387 105.381 43.4844 105.278 43.6062 105.211C43.7279 105.144 43.8679 105.113 44.0019 105.126C44.0932 105.132 44.1845 105.156 44.2637 105.199C44.3428 105.241 44.4159 105.296 44.4768 105.369C44.5376 105.436 44.5803 105.515 44.6107 105.607C44.635 105.692 44.6472 105.783 44.6411 105.875V105.868Z" fill="#27313A"/>
<path d="M43.9469 106.848C43.8556 106.848 43.7582 106.836 43.673 106.811C43.472 106.756 43.2955 106.641 43.1676 106.489C43.0337 106.336 42.9546 106.148 42.9302 105.941C42.9059 105.74 42.9424 105.533 43.0337 105.35C43.1311 105.168 43.2772 105.015 43.4538 104.918C43.6303 104.82 43.8312 104.778 44.0382 104.796C44.1722 104.808 44.3 104.845 44.4218 104.906C44.5436 104.967 44.6471 105.052 44.7384 105.155C44.8236 105.253 44.8906 105.374 44.9332 105.502C44.9758 105.636 44.988 105.764 44.9819 105.898C44.9697 106.105 44.8906 106.3 44.7688 106.458C44.6471 106.616 44.4766 106.738 44.2818 106.805C44.1783 106.842 44.0687 106.86 43.9591 106.86L43.9469 106.848ZM43.9469 105.448C43.886 105.448 43.8191 105.466 43.7704 105.496C43.7034 105.533 43.6547 105.588 43.6182 105.655C43.5877 105.722 43.5695 105.795 43.5816 105.862C43.5877 105.935 43.6182 106.002 43.6669 106.056C43.7156 106.111 43.7765 106.154 43.8495 106.172C43.9226 106.19 43.9956 106.19 44.0626 106.172C44.1357 106.148 44.1965 106.105 44.2391 106.05C44.2879 105.989 44.3122 105.922 44.3183 105.849C44.3183 105.795 44.3183 105.746 44.3 105.703C44.2879 105.661 44.2635 105.618 44.2331 105.588C44.2026 105.551 44.16 105.521 44.1235 105.496C44.0809 105.472 44.0382 105.46 43.9895 105.46C43.9774 105.46 43.9652 105.46 43.9591 105.46L43.9469 105.448Z" fill="#27313A"/>
<path d="M20.0692 91.7547H20.0571L12.9462 91.4442C12.7635 91.4381 12.6235 91.2798 12.6296 91.1033C12.6357 90.9206 12.7879 90.7806 12.9705 90.7867L20.0814 91.0972C20.2641 91.1033 20.4041 91.2616 20.398 91.4381C20.3919 91.6147 20.2458 91.7547 20.0692 91.7547Z" fill="#27313A"/>
<path d="M40.885 11.0335C40.885 11.0335 40.1605 0.446285 33.4636 0.324522C26.7728 0.208848 28.1852 7.9712 28.1852 7.9712C28.1852 7.9712 24.2888 5.77948 25.3725 10.6987C26.4501 15.6118 35.8623 14.9056 35.8623 14.9056L40.885 11.0396V11.0335Z" fill="#27313A"/>
<path d="M34.6385 15.2702C33.7071 15.2702 32.3616 15.2154 30.9613 14.9658C27.5642 14.3691 25.5186 12.9141 25.0498 10.765C24.6723 9.0542 24.8306 7.97051 25.5307 7.45302C26.2065 6.9538 27.1745 7.19123 27.7833 7.42867C27.6677 6.22322 27.6007 3.50183 29.141 1.69366C30.1212 0.536919 31.5823 -0.0292757 33.4696 0.00116492C36.3493 0.0498699 38.608 1.99198 39.99 5.60832C41.0128 8.2871 41.2015 10.905 41.2137 11.0146L41.2259 11.1911L35.984 15.2276H35.8866C35.844 15.2397 35.3691 15.2702 34.6385 15.2702ZM26.5231 7.81831C26.2978 7.81831 26.0848 7.86701 25.9204 7.98878C25.4638 8.32971 25.3846 9.24293 25.6951 10.631C26.6449 14.9536 34.7603 14.637 35.7405 14.5822L40.5379 10.8867C40.404 9.53516 39.3142 0.76218 33.4574 0.658682C31.771 0.622153 30.4925 1.12138 29.6402 2.11983C27.8625 4.21414 28.5017 7.87919 28.5078 7.91572L28.6296 8.60368L28.0208 8.26274C27.7407 8.10445 27.0771 7.81831 26.517 7.81831H26.5231Z" fill="#27313A"/>
<path d="M40.4466 8.64612C40.4466 8.64612 34.8334 10.1255 33.0435 15.0021C33.7619 15.751 34.7299 16.2136 35.7648 16.2928C35.7648 16.2928 36.5746 13.0478 40.9032 11.0448C40.8788 11.0327 41.4816 9.46193 40.4405 8.64612H40.4466Z" fill="#FFB92D"/>
<path d="M65.1945 46.8737C60.5006 48.1888 44.5498 49.6864 32.1422 44.3776C32.1788 41.8997 31.9779 39.4279 31.5517 36.9866C30.4437 30.3749 29.5913 11.6905 43.2469 9.60226C56.9086 7.51403 67.4228 16.4879 64.5005 28.8407C63.3011 33.8999 64.1169 40.6212 65.1884 46.8798L65.1945 46.8737Z" fill="#27313A"/>
<path d="M52.9088 48.4568C46.498 48.4568 38.7844 47.5801 32.0144 44.676L31.8135 44.5908V44.3716C31.8501 41.9242 31.6552 39.4585 31.2291 37.0415C30.9795 35.55 28.9521 22.2596 34.5897 14.4668C36.684 11.5749 39.5819 9.82765 43.2044 9.27363C50.4857 8.15951 57.2983 10.1686 61.42 14.6373C64.9023 18.4119 66.1078 23.4772 64.8232 28.9078C63.6117 34.0279 64.4944 40.8344 65.5172 46.813L65.566 47.1052L65.2798 47.1844C63.2038 47.7627 58.5646 48.4507 52.9088 48.4507V48.4568ZM32.4771 44.1586C44.769 49.3335 60.111 47.8419 64.8171 46.6303C63.8065 40.6579 62.9602 33.9123 64.184 28.7556C65.4198 23.5442 64.2631 18.692 60.939 15.0817C56.9635 10.7713 50.3701 8.84138 43.3079 9.91897C39.8681 10.4426 37.1102 12.1046 35.1255 14.8504C33.0799 17.6813 31.844 21.6082 31.4543 26.5274C31.0647 31.4587 31.6857 35.7326 31.8866 36.9198C32.3067 39.3002 32.5076 41.7355 32.4832 44.1525L32.4771 44.1586Z" fill="#27313A"/>
<path d="M58.1749 36.4624C58.1749 35.9023 58.3393 35.3543 58.6498 34.8916C58.9603 34.429 59.4047 34.0637 59.9222 33.8506C60.4397 33.6375 61.0059 33.5827 61.5538 33.6923C62.1017 33.8019 62.607 34.0758 63.0028 34.4716C63.3985 34.8673 63.6664 35.3726 63.7699 35.9205C63.8794 36.4685 63.8186 37.0408 63.5994 37.5522C63.3863 38.0696 63.021 38.508 62.5522 38.8185C62.0835 39.129 61.5355 39.2873 60.9754 39.2873C60.604 39.2873 60.2388 39.2142 59.8978 39.0742C59.5569 38.9342 59.2464 38.7211 58.9846 38.4593C58.7228 38.1975 58.5158 37.887 58.3758 37.54C58.2358 37.199 58.1627 36.8277 58.1688 36.4624H58.1749ZM58.9907 36.4624C58.9907 36.8581 59.1064 37.2417 59.3255 37.5765C59.5447 37.9053 59.8552 38.161 60.2205 38.3193C60.5858 38.4715 60.9876 38.5141 61.3772 38.441C61.7669 38.368 62.12 38.1792 62.4 37.8992C62.6801 37.6191 62.8749 37.266 62.9541 36.8764C63.0332 36.4867 62.9967 36.0849 62.8445 35.7196C62.6923 35.3543 62.4366 35.0378 62.1139 34.8186C61.7912 34.5994 61.4016 34.4777 61.0059 34.4777C60.4762 34.4777 59.9709 34.6847 59.5934 35.0621C59.216 35.4335 59.0029 35.9388 58.9968 36.4685L58.9907 36.4624Z" fill="white"/>
<path d="M39.1128 51.0986C39.1128 51.0986 42.1264 56.237 48.1962 56.858C55.8368 57.6372 56.5674 54.3314 56.5674 54.3314C56.2082 53.3208 55.9646 52.2736 55.8307 51.2082C55.7759 50.7881 55.7394 50.3619 55.715 49.9297C55.6602 48.5781 55.6785 47.2266 55.7698 45.8811C55.7698 45.528 55.8246 45.1566 55.849 44.7731C50.5341 43.7381 46.1324 41.5829 43.0274 37.8265L42.2177 37.3882L41.6759 37.0898L41.5967 37.4003L41.7307 38.3744C42.3638 42.904 41.4872 46.7578 39.1128 51.1047V51.0986Z" fill="white"/>
<path d="M50.388 57.3024C49.7183 57.3024 48.9755 57.2658 48.1597 57.1806C41.9986 56.5535 38.9545 51.476 38.8267 51.263L38.7354 51.1047L38.8267 50.9403C41.2436 46.502 42.0168 42.7579 41.408 38.4109L41.2619 37.376L41.4689 36.5967L43.2466 37.5647L43.2893 37.6134C46.1872 41.1202 50.321 43.3545 55.9221 44.4504L56.2082 44.5051L56.1899 44.7974C56.1778 44.9374 56.1656 45.0713 56.1534 45.2053C56.129 45.4427 56.1108 45.668 56.1108 45.8811C56.0195 47.2448 56.0012 48.5903 56.056 49.9175C56.0864 50.3863 56.123 50.8003 56.1717 51.1716C56.2995 52.2127 56.543 53.2416 56.8901 54.2279L56.9205 54.3192L56.9022 54.4105C56.8718 54.5445 56.1838 57.3145 50.4062 57.3145L50.388 57.3024ZM39.4903 51.0803C40.0504 51.9266 42.9848 55.9934 48.2206 56.5231C54.7531 57.1928 56.0256 54.8002 56.2143 54.3314C55.8673 53.3329 55.6298 52.2979 55.502 51.2447C55.4533 50.8611 55.4107 50.435 55.3802 49.9418C55.3193 48.5842 55.3437 47.2083 55.435 45.8506C55.435 45.6254 55.4594 45.3757 55.4837 45.1322L55.4959 45.0287C49.907 43.8902 45.7549 41.6133 42.8144 38.0761L41.956 37.6134L42.0534 38.3196C42.6744 42.7639 41.9073 46.5873 39.4964 51.0864L39.4903 51.0803Z" fill="#27313A"/>
<path d="M46.8574 41.6689C48.075 44.1285 50.833 48.4633 55.7339 49.9244C55.6791 48.5729 55.6973 47.2213 55.7887 45.8758C55.7887 45.5227 55.8435 45.1513 55.8678 44.7678H55.5512C52.6898 45.1148 49.5179 43.7328 46.8574 41.6689Z" fill="#27313A"/>
<path d="M56.0807 50.3748L55.6363 50.2408C50.6258 48.7431 47.8009 44.3171 46.5589 41.8149L45.9258 40.5303L47.0582 41.407C49.9744 43.6657 52.9758 44.7433 55.5084 44.4388H56.2208L56.1964 44.792C56.1842 44.932 56.1721 45.0659 56.1599 45.1999C56.1355 45.4373 56.1173 45.6626 56.1173 45.8756C56.0259 47.2394 56.0077 48.5849 56.0625 49.9121L56.0807 50.3748ZM47.8253 42.7768C49.189 45.1085 51.6121 48.177 55.3867 49.4737C55.3502 48.2744 55.3745 47.0628 55.4597 45.8574C55.4597 45.6321 55.4841 45.3825 55.5084 45.139V45.1085C53.1706 45.3642 50.4858 44.5423 47.8314 42.7768H47.8253Z" fill="#27313A"/>
<path d="M34.9181 29.7166C34.8876 31.3786 35.4965 32.9859 36.6167 34.2157C37.7369 35.4455 39.2832 36.1943 40.9392 36.3161H41.0427C41.0975 36.4866 41.1706 36.6509 41.2314 36.8153C41.268 36.8884 41.2984 36.9614 41.3228 37.0345C43.5388 41.9415 50.4062 44.9551 54.1382 45.1378C54.9905 45.1743 55.8429 45.083 56.6709 44.8638C60.6586 44.0906 61.5231 38.7452 60.9873 34.6297C60.9143 34.0635 60.8047 33.4973 60.6707 32.9433V32.8337C60.6707 32.8337 62.1258 27.1291 62.485 24.6573C63.1912 19.8234 60.5125 14.8372 49.907 13.6378C39.3015 12.4385 38.6805 18.9223 37.8647 22.4047C37.7186 22.9831 37.8647 26.8552 38.4187 27.4335C37.4629 27.3239 35.1007 27.5979 34.9242 29.7105L34.9181 29.7166Z" fill="white"/>
<path d="M54.4853 45.4727C54.3636 45.4727 54.2418 45.4727 54.1201 45.4666C50.2115 45.2779 43.2954 42.2156 41.0185 37.1746C40.988 37.0833 40.9576 37.0224 40.9332 36.9615L40.8663 36.7972C40.8419 36.7424 40.8236 36.6937 40.8054 36.6389C39.0885 36.4806 37.5239 35.7013 36.3732 34.4411C35.1921 33.1443 34.559 31.47 34.5894 29.7167V29.6923C34.6564 28.9435 34.9669 28.3347 35.5209 27.8841C36.2332 27.2997 37.189 27.117 37.8892 27.0927C37.463 25.7533 37.4082 22.8675 37.5422 22.3257C37.5969 22.0943 37.6517 21.8447 37.7065 21.5829C38.4736 18.0579 39.7582 12.1646 49.9375 13.3153C55.4046 13.9363 59.2158 15.5922 61.2614 18.2467C62.6312 20.0244 63.167 22.2587 62.8078 24.7061C62.4607 27.0866 61.1335 32.3163 60.9935 32.8764V32.9008C61.1275 33.4487 61.237 34.021 61.3101 34.5872C61.6145 36.9067 61.4379 39.2872 60.8352 41.1015C60.0742 43.4028 58.6496 44.8152 56.7318 45.1866C56.0074 45.3753 55.2524 45.4727 54.4914 45.4727H54.4853ZM41.0367 35.9874H41.2802L41.3533 36.2188C41.3898 36.3345 41.4324 36.438 41.4751 36.5475L41.536 36.6997C41.5664 36.7606 41.6029 36.8398 41.6334 36.9311C43.7094 41.5276 50.3272 44.6265 54.1566 44.8091C54.9724 44.8396 55.7943 44.7543 56.5918 44.5473C60.1899 43.8533 61.2188 38.9402 60.6648 34.6724C60.5917 34.1123 60.4882 33.5583 60.3543 33.0225L60.3421 32.9434L60.3543 32.7546C60.3664 32.6999 61.8093 27.0379 62.1624 24.6148C62.4973 22.3135 62.0224 20.3105 60.7439 18.6485C58.814 16.1402 55.155 14.5694 49.8706 13.9728C40.2818 12.8891 39.1251 18.2101 38.358 21.7291C38.3032 21.9908 38.2423 22.2465 38.1875 22.484C38.0231 23.1476 38.2606 26.7944 38.6563 27.2145L39.2834 27.872L38.3823 27.7685C37.8709 27.7137 36.7081 27.7685 35.941 28.3895C35.5331 28.7243 35.3017 29.1748 35.253 29.7349C35.2287 31.3178 35.801 32.8277 36.8664 33.9966C37.9318 35.1655 39.3929 35.8778 40.9698 35.9935H41.0489L41.0367 35.9874Z" fill="#27313A"/>
<path d="M59.8127 31.1896C59.6788 31.9811 59.2343 32.5594 58.8203 32.4864C58.4124 32.4133 58.1811 31.7132 58.3272 30.9217C58.4733 30.1303 58.9056 29.5519 59.3257 29.625C59.7457 29.698 59.9527 30.3982 59.8066 31.1896H59.8127Z" fill="#27313A"/>
<path d="M52.8966 30.1066C52.7505 30.8981 52.3061 31.4765 51.8982 31.4034C51.4903 31.3303 51.2711 30.6302 51.405 29.8388C51.5451 29.0473 51.9956 28.4689 52.4035 28.542C52.8114 28.615 53.0488 29.2847 52.8966 30.1066Z" fill="#27313A"/>
<path d="M41.3352 34.0947C41.2561 34.0764 41.1891 34.0399 41.1343 33.9851C41.0795 33.9303 41.043 33.8573 41.0308 33.7781C40.5803 31.0506 37.3962 29.8452 37.3962 29.8391C37.3414 29.8269 37.2927 29.8026 37.2501 29.766C37.2075 29.7295 37.171 29.6869 37.1466 29.6382C37.1223 29.5895 37.104 29.5347 37.104 29.4799C37.104 29.4251 37.104 29.3703 37.1284 29.3155C37.1466 29.2668 37.1771 29.2181 37.2136 29.1755C37.2501 29.139 37.2988 29.1085 37.3475 29.0842C37.3962 29.0659 37.4571 29.0537 37.5119 29.0598C37.5667 29.0598 37.6215 29.0781 37.6702 29.1024C37.8163 29.1572 41.3048 30.5027 41.8284 33.6442C41.8466 33.7477 41.8223 33.8512 41.7614 33.9303C41.7005 34.0155 41.6153 34.0703 41.5118 34.0886C41.457 34.1008 41.3961 34.1008 41.3413 34.0886L41.3352 34.0947Z" fill="#27313A"/>
<path d="M38.0234 32.524C37.9686 32.5179 37.9199 32.4936 37.8773 32.4631C37.7921 32.4084 37.7312 32.3231 37.7129 32.2196C37.6946 32.1222 37.7129 32.0187 37.7677 31.9335C38.0295 31.5621 38.3826 31.2638 38.7966 31.069C39.2106 30.8741 39.6672 30.795 40.1177 30.8315C40.2212 30.8376 40.3125 30.8863 40.3795 30.9594C40.4465 31.0324 40.483 31.1359 40.4769 31.2333C40.4769 31.3368 40.4282 31.4282 40.3491 31.4951C40.2699 31.5621 40.1725 31.5986 40.0751 31.5925C39.7585 31.5682 39.4358 31.623 39.1497 31.7569C38.8575 31.8909 38.6079 32.0918 38.413 32.3475C38.3704 32.4084 38.3156 32.4631 38.2426 32.4936C38.1756 32.524 38.0965 32.5362 38.0234 32.524Z" fill="#27313A"/>
<path d="M40.9395 36.3165H41.0369C41.0917 36.487 41.1647 36.6514 41.2256 36.8158C41.2621 36.8888 41.2926 36.9619 41.3169 37.0349C41.8344 36.968 42.3336 36.7853 42.772 36.4992C43.0886 36.2861 43.3503 36.006 43.5512 35.6834C43.5817 35.6408 43.6 35.5921 43.606 35.5433C43.6121 35.4946 43.6121 35.4399 43.606 35.3911C43.5939 35.3424 43.5756 35.2937 43.5452 35.2572C43.5147 35.2146 43.4782 35.1841 43.4356 35.1537C43.393 35.1233 43.3443 35.105 43.2955 35.0989C43.2468 35.0867 43.1921 35.0928 43.1433 35.0989C43.0946 35.1111 43.0459 35.1294 43.0033 35.1598C42.9607 35.1902 42.9242 35.2268 42.8998 35.2694C42.6867 35.6164 42.3641 35.8904 41.9927 36.0487C41.7735 36.1461 41.5483 36.213 41.3108 36.2496C41.1891 36.28 41.0673 36.2983 40.9395 36.3105V36.3165Z" fill="#722324"/>
<path d="M41.0979 37.3945L41.0127 37.1449C40.9884 37.084 40.964 37.0231 40.9336 36.9622L40.8666 36.7917C40.8179 36.67 40.7692 36.5482 40.7266 36.4204L40.9275 36.3595L40.9092 35.9942C41.0249 35.982 41.1345 35.9638 41.244 35.9394C41.4754 35.9029 41.6763 35.842 41.865 35.7568C42.1816 35.6167 42.4434 35.3915 42.626 35.1053C42.6748 35.0201 42.7417 34.9531 42.8209 34.8983C42.8939 34.8435 42.9792 34.807 43.0766 34.7827C43.174 34.7644 43.2714 34.7583 43.3627 34.7827C43.454 34.8009 43.5393 34.8375 43.6245 34.8862C43.6976 34.9288 43.7645 34.9957 43.8193 35.0688C43.8741 35.148 43.9167 35.2393 43.935 35.3306C43.9533 35.4097 43.9593 35.5072 43.9411 35.6046C43.9228 35.702 43.8863 35.7933 43.8315 35.8724C43.6123 36.2255 43.3201 36.536 42.9609 36.7796C42.4799 37.0961 41.9259 37.2971 41.3658 37.3701L41.104 37.4006L41.0979 37.3945ZM41.4815 36.5604L41.5241 36.67C41.9016 36.5908 42.2669 36.4386 42.5956 36.2255C42.8635 36.0429 43.1009 35.7933 43.2775 35.5132L43.2897 35.4706L43.2653 35.4341L43.1496 35.1053L43.2227 35.428L43.1862 35.4524C42.9365 35.8603 42.5713 36.1708 42.1268 36.3595C41.9198 36.4508 41.7067 36.5178 41.4876 36.5604H41.4815Z" fill="#27313A"/>
<path d="M41.883 36.2435C41.6151 36.3166 41.3411 36.3592 41.0672 36.3592C41.0672 36.7428 40.9576 37.1141 40.7506 37.4368C40.5436 37.7595 40.2514 38.0152 39.9043 38.1735C39.5573 38.3318 39.1677 38.3866 38.7902 38.3318C38.4127 38.277 38.0535 38.1187 37.7674 37.8691C37.4813 37.6195 37.2682 37.2907 37.1586 36.9254C37.049 36.5601 37.049 36.1705 37.1586 35.7991C37.2621 35.4338 37.4752 35.1051 37.7613 34.8494C38.0475 34.5998 38.4006 34.4354 38.778 34.3745C38.8389 34.3197 38.8815 34.2588 38.912 34.1858C38.9424 34.1127 38.9607 34.0396 38.9607 33.9605C38.9607 33.8814 38.9424 33.8083 38.912 33.7352C38.8815 33.6622 38.8328 33.6013 38.778 33.5465C38.2362 33.6074 37.7248 33.8205 37.3047 34.1614C36.8846 34.5023 36.5681 34.965 36.4037 35.4764C36.2393 35.9939 36.221 36.548 36.3671 37.0715C36.5072 37.5951 36.7994 38.07 37.2012 38.4292C37.603 38.7945 38.1023 39.0319 38.638 39.1171C39.1738 39.2024 39.7217 39.1293 40.2209 38.9101C40.7201 38.691 41.1402 38.3318 41.4385 37.8813C41.7368 37.4246 41.8951 36.895 41.9012 36.3531C41.9012 36.3105 41.9012 36.2679 41.8951 36.2253L41.883 36.2435Z" fill="white"/>
<path d="M38.8939 16.537C40.0872 15.2524 41.5422 14.2418 43.1617 13.5843C44.7811 12.9207 46.5284 12.6224 48.2757 12.7076C53.6271 13.1459 58.5402 15.1246 61.219 18.0956C62.4914 19.4106 63.2463 21.1457 63.3376 22.9722C63.502 28.555 62.327 27.4408 62.327 27.4408C62.327 27.0025 62.2905 26.5581 62.2174 26.1258C62.1383 25.4074 61.98 24.3115 61.7243 22.6191C61.1094 18.5948 48.3487 17.8521 49.1158 20.4578C49.1463 20.7317 49.1463 21.0057 49.1158 21.2736C49.0549 21.9676 48.8662 22.6495 48.5557 23.2705H48.2574C47.1433 23.4409 46.0535 23.7697 45.0368 24.2507C44.9211 24.3298 42.9547 25.6936 43.2225 27.7392C43.4843 29.7848 44.1297 32.5792 42.7477 32.0374C42.3032 31.806 41.9136 31.4894 41.597 31.0998C41.2865 30.7102 41.0552 30.2596 40.9273 29.7787C40.1541 28.6889 39.0705 27.8548 37.8224 27.3921C37.4571 23.7575 37.378 19.989 38.8939 16.5492V16.537Z" fill="#27313A"/>
<path d="M43.0583 32.433C42.9365 32.433 42.7904 32.4086 42.626 32.3416C42.1146 32.0798 41.6824 31.7267 41.3415 31.3066C41.0127 30.8927 40.7692 30.43 40.6292 29.9186C39.8925 28.9018 38.888 28.1347 37.7129 27.6964L37.5181 27.6233L37.4999 27.4163C37.1407 23.8122 37.025 19.9827 38.5957 16.409L38.6201 16.3603L38.6566 16.3177C39.8742 15.0088 41.3902 13.9555 43.04 13.2797C44.696 12.6039 46.5103 12.2874 48.2941 12.3787C53.8525 12.8292 58.7717 14.887 61.4626 17.8702C62.7837 19.2339 63.5691 21.0421 63.6665 22.9537C63.7822 26.911 63.2343 27.6172 62.8142 27.806C62.5037 27.946 62.2236 27.7938 62.1019 27.6781L61.9984 27.5807V27.4407C61.9984 27.0206 61.9618 26.5944 61.8949 26.1744C61.8157 25.4681 61.6635 24.3905 61.4017 22.6615C61.2495 21.6509 60.1111 20.7377 58.1994 20.0923C54.851 18.9599 50.498 19.0452 49.5665 19.9401C49.4325 20.068 49.396 20.1958 49.4386 20.3602L49.4508 20.4211C49.4812 20.7133 49.4812 21.0116 49.4508 21.3039C49.3899 22.0344 49.189 22.7468 48.8542 23.4164L48.7629 23.5991H48.2819C47.2165 23.7635 46.1754 24.08 45.2013 24.5367C44.9273 24.7315 43.3201 25.9491 43.5454 27.6964C43.5819 28.0008 43.6306 28.3235 43.6793 28.6461C43.9715 30.6004 44.1055 31.8181 43.5271 32.2747C43.4236 32.3538 43.2714 32.433 43.0583 32.433ZM38.133 27.1545C39.3689 27.6538 40.4282 28.4939 41.2014 29.5837L41.238 29.6324L41.2562 29.6933C41.3719 30.1316 41.5728 30.5395 41.865 30.8927C42.1451 31.2458 42.5043 31.538 42.9061 31.745C42.9974 31.7815 43.0948 31.7876 43.1253 31.7633C43.4479 31.5076 43.1862 29.7785 43.034 28.7496C42.9852 28.4209 42.9365 28.0982 42.9 27.7877C42.62 25.596 44.629 24.147 44.8543 23.9887L44.903 23.9644C45.9562 23.4712 47.0704 23.1303 48.2149 22.9537H48.3549C48.5985 22.4119 48.7446 21.8396 48.7994 21.2552C48.8237 21.0116 48.8237 20.7681 48.7994 20.5246C48.6959 20.141 48.8055 19.7697 49.1099 19.4774C50.4127 18.2233 55.3136 18.4303 58.4125 19.4774C60.5981 20.2141 61.8584 21.2856 62.0593 22.5763C62.321 24.3114 62.4732 25.3951 62.5524 26.0952C62.6072 26.4118 62.6376 26.7466 62.6559 27.0876C62.8142 26.7954 63.1003 25.87 63.0151 22.9903C62.9299 21.2491 62.2115 19.5931 60.9938 18.3329C58.4003 15.4593 53.6455 13.4867 48.2636 13.0484C46.5833 12.9692 44.8665 13.2615 43.3018 13.9007C41.7554 14.5339 40.3308 15.5141 39.1863 16.7317C37.7251 20.0862 37.8104 23.7209 38.1452 27.1606L38.133 27.1545Z" fill="#27313A"/>
<path d="M38.0962 18.8979C41.9561 17.6742 48.0868 20.633 49.1035 21.2662C49.0426 21.9603 48.8539 22.6421 48.5373 23.2631H48.239C47.1249 23.4336 46.0351 23.7623 45.0123 24.2433C44.8966 24.3224 42.9363 25.6862 43.1981 27.7318C43.4598 29.7774 45.1523 41.0282 42.9545 42.7268C38.5041 46.1605 40.3123 29.7409 40.3123 29.7409C39.5756 28.8337 39.2286 27.8596 37.8527 27.3726C36.4464 24.4199 37.0247 21.6071 38.0962 18.8979Z" fill="#27313A"/>
<path d="M41.8527 43.5369C41.6335 43.5369 41.4204 43.4821 41.2256 43.3725C38.7904 42.0027 39.7828 31.5981 39.9715 29.8447C39.8193 29.6499 39.6914 29.4611 39.5575 29.2724C39.0887 28.6027 38.6869 28.0183 37.7371 27.6834L37.6093 27.6347L37.5484 27.5129C35.9899 24.2375 36.8544 21.1265 37.7859 18.7765L37.8406 18.6304L37.9868 18.5817C42.0049 17.3093 48.2817 20.3716 49.268 20.9865L49.4385 21.0961L49.4202 21.297C49.3593 22.0397 49.1584 22.752 48.8236 23.4156L48.7323 23.5983H48.2574C47.1859 23.7627 46.1509 24.0792 45.1768 24.5359C44.9028 24.7307 43.2956 25.9605 43.5208 27.6956L43.5878 28.2192C44.7872 37.1383 44.6471 41.8322 43.1495 42.995C42.6807 43.3542 42.2423 43.5369 41.8466 43.5369H41.8527ZM38.0903 27.1172C39.1435 27.5312 39.6305 28.2253 40.0993 28.901C40.2454 29.1141 40.3976 29.3333 40.5681 29.5403L40.6533 29.6499L40.6412 29.7838C40.1419 34.3377 39.941 41.8992 41.5483 42.8002C41.664 42.8611 42.0049 43.0559 42.7537 42.4775C43.6183 41.8078 44.3549 38.8064 42.9425 28.3105L42.8694 27.7808C42.5894 25.6074 44.5923 24.1401 44.8237 23.9818L44.8724 23.9514C45.9256 23.4583 47.0398 23.1173 48.1904 22.9408H48.3304C48.5435 22.4598 48.6896 21.9606 48.7505 21.4431C47.1554 20.5238 41.7431 18.2042 38.3399 19.1661C37.4449 21.4674 36.7509 24.1888 38.0903 27.1111V27.1172Z" fill="#27313A"/>
<path d="M56.3122 35.0746C56.373 35.0746 56.4339 35.0624 56.4826 35.032L57.962 34.2162C58.0107 34.1857 58.0534 34.1492 58.0838 34.1005C58.1142 34.0518 58.1264 33.997 58.1264 33.9361C58.1264 33.8813 58.1142 33.8265 58.0838 33.7717C58.0595 33.723 58.0168 33.6804 57.9681 33.65C57.3959 33.2847 56.9149 32.7916 56.5496 32.2193C56.1843 31.647 55.953 31.0016 55.8617 30.3259C55.8617 30.2772 55.8495 30.2345 55.8251 30.1919C55.8069 30.1493 55.7764 30.1128 55.7399 30.0823C55.7034 30.0519 55.6607 30.0336 55.6181 30.0215C55.5694 30.0093 55.5268 30.0093 55.4781 30.0215C55.4294 30.0336 55.3868 30.0458 55.3502 30.0763C55.3137 30.1006 55.2772 30.1371 55.2589 30.1798C55.2346 30.2224 55.2224 30.265 55.2163 30.3137C55.2163 30.3624 55.2163 30.405 55.2346 30.4537C55.4233 31.8114 56.1234 33.0473 57.1949 33.9057L56.1782 34.478C56.1417 34.4962 56.1052 34.5267 56.0808 34.5571C56.0565 34.5876 56.0321 34.6302 56.0199 34.6667C56.0078 34.7032 56.0017 34.7519 56.0078 34.7945C56.0078 34.8372 56.026 34.8798 56.0443 34.9163C56.0686 34.965 56.1113 35.0076 56.1539 35.0381C56.2026 35.0685 56.2513 35.0868 56.3061 35.0929L56.3122 35.0746Z" fill="#27313A"/>
<path d="M53.0243 26.6362C53.1704 26.7397 53.347 26.7945 53.5296 26.7884C53.7123 26.7823 53.8827 26.7093 54.0167 26.5875C54.1506 26.4657 54.2419 26.3075 54.2724 26.1248C54.3028 25.9483 54.2724 25.7656 54.1811 25.6073C53.8827 25.1507 53.4261 24.8098 52.9026 24.6515C52.0624 24.3897 51.1675 24.3227 50.2969 24.4628C49.4263 24.6028 48.5983 24.9376 47.8799 25.449C49.3715 25.4673 50.857 25.7169 52.2755 26.1857C52.5434 26.3075 52.793 26.4536 53.0304 26.6301L53.0243 26.6362Z" fill="#27313A"/>
<path d="M57.7363 27.3849C57.5658 27.4458 57.3832 27.4519 57.2127 27.3971C57.0423 27.3423 56.8962 27.2266 56.7987 27.0744C56.7013 26.9222 56.6587 26.7396 56.677 26.563C56.6952 26.3865 56.7744 26.216 56.9022 26.0882C57.3162 25.7229 57.8459 25.5159 58.3999 25.5159C61.3587 25.3819 62.0345 27.3301 62.0345 27.3301C60.896 27.0684 59.721 27.0014 58.5582 27.1292C58.2782 27.1901 58.0042 27.2753 57.7424 27.3849H57.7363Z" fill="#27313A"/>
<path d="M37.0549 53.8936C37.0549 53.8936 37.1645 46.6305 41.6758 45.3398C41.6758 45.3398 45.4078 50.4234 55.7271 49.4006C55.7271 49.4006 58.3511 49.7111 59.1121 54.8069C59.1121 54.8069 58.7042 60.5175 49.6573 59.8113C40.6104 59.1051 37.0488 53.8997 37.0488 53.8997L37.0549 53.8936Z" fill="white"/>
<path d="M51.1733 60.1946C50.6802 60.1946 50.1688 60.1763 49.6392 60.1337C40.5435 59.4214 36.9333 54.2952 36.7872 54.076C36.7506 54.0212 36.7263 53.9542 36.7324 53.8873C36.7324 53.8081 36.7689 51.9999 37.3655 50.003C38.1753 47.2999 39.6364 45.577 41.5968 45.0169C41.7307 44.9803 41.8707 45.0291 41.9499 45.1386C41.9864 45.1873 45.7184 50.0578 55.7029 49.0655C55.7272 49.0655 55.7516 49.0655 55.776 49.0655C55.8916 49.0776 58.6617 49.4673 59.4471 54.7457C59.4471 54.77 59.4471 54.7944 59.4471 54.8187C59.4471 54.8979 59.2888 56.7487 57.5232 58.2707C56.0438 59.5431 53.913 60.1885 51.1733 60.1885V60.1946ZM37.3899 53.7899C37.8952 54.4535 41.5481 58.8369 49.6879 59.4762C53.2616 59.7562 55.9647 59.0317 57.5111 57.3758C58.5704 56.2434 58.7591 55.0197 58.7835 54.8066C58.1016 50.3379 55.989 49.7778 55.7212 49.7291C46.3698 50.6484 42.3639 46.6546 41.5663 45.717C37.8221 46.9894 37.4325 52.9071 37.3899 53.7899Z" fill="#27313A"/>
<path d="M42.7536 46.8915C40.8115 49.5094 40.0261 52.6508 39.6304 55.8167C39.5756 56.2246 40.1966 56.3889 40.2453 55.981C40.6836 52.8639 41.402 49.7772 43.3076 47.2081C43.5511 46.8732 42.991 46.5627 42.7536 46.8915Z" fill="#27313A"/>
<path d="M46.358 48.7051C45.1282 51.664 44.5742 54.8602 44.7325 58.0626C44.7447 58.1417 44.7873 58.2087 44.8421 58.2574C44.8969 58.3061 44.976 58.3365 45.0552 58.3365C45.1343 58.3365 45.2074 58.3061 45.2682 58.2574C45.3291 58.2087 45.3656 58.1356 45.3778 58.0626C45.2074 54.9759 45.737 51.8892 46.912 49.0339C47.0825 48.6625 46.5224 48.3459 46.358 48.7173V48.7051Z" fill="#27313A"/>
<path d="M49.9927 49.6251C49.8831 52.8031 49.6761 55.9811 49.8405 59.159C49.8405 59.5791 50.5041 59.567 50.4736 59.159C50.3214 55.9689 50.4736 52.8031 50.638 49.6129C50.638 49.1928 50.0109 49.205 49.9927 49.6129V49.6251Z" fill="#27313A"/>
<path d="M54.1873 49.8077C55.1919 52.4317 55.7093 55.2261 55.7033 58.0388C55.7154 58.118 55.758 58.1849 55.8128 58.2336C55.8737 58.2823 55.9468 58.3128 56.0259 58.3128C56.1051 58.3128 56.1781 58.2884 56.239 58.2336C56.2999 58.1849 56.3364 58.1119 56.3486 58.0388C56.3486 55.1713 55.8311 52.3282 54.8022 49.6494C54.6561 49.2597 54.0412 49.4424 54.1812 49.8199V49.8077H54.1873Z" fill="#27313A"/>
<path d="M28.6967 77.418C28.6967 77.418 23.948 88.0052 27.2356 91.6581L20.4717 91.4206L28.7028 77.418H28.6967Z" fill="#27313A"/>
<path d="M27.9964 92.0108L19.9053 91.7307L28.4164 77.2471L29.0009 77.5515C28.9522 77.655 24.3739 87.9865 27.485 91.4385L28.0024 92.0169L27.9964 92.0108ZM21.0316 91.1097L26.5596 91.3045C24.9827 88.7354 25.9934 84.1266 27.0344 80.8939L21.0316 91.1097Z" fill="#27313A"/>
<path d="M69.7848 99.133C69.7422 99.133 69.6996 99.1269 69.657 99.1086L64.6769 97.0143L60.19 96.1376C60.0134 96.1011 59.8978 95.9306 59.9282 95.7541C59.9647 95.5775 60.1352 95.4557 60.3117 95.4923L64.8352 96.375C64.8352 96.375 64.8778 96.3872 64.9022 96.3933L69.9188 98.4998C70.0892 98.5729 70.1623 98.7616 70.0953 98.9321C70.0405 99.0599 69.9188 99.133 69.7909 99.133H69.7848Z" fill="#27313A"/>
<path d="M71.9156 98.1354C71.8608 98.1354 71.806 98.1233 71.7573 98.0928L67.0694 95.4627L61.7606 93.7763C61.5901 93.7216 61.4927 93.5389 61.5475 93.3623C61.6023 93.1858 61.791 93.0945 61.9615 93.1493L67.3008 94.8479C67.3008 94.8479 67.3434 94.8661 67.3616 94.8722L72.0738 97.5144C72.2321 97.6058 72.2869 97.8067 72.2017 97.965C72.1408 98.0746 72.0312 98.1354 71.9156 98.1354Z" fill="#27313A"/>
<path d="M127.926 108.758H49.7794C49.4993 108.734 49.2375 108.6 49.0488 108.381C48.8601 108.162 48.7505 107.876 48.7505 107.577C48.7505 107.279 48.854 106.993 49.0488 106.774C49.2375 106.555 49.4993 106.421 49.7794 106.396H127.926C128.206 106.421 128.468 106.555 128.657 106.774C128.846 106.993 128.955 107.279 128.955 107.577C128.955 107.876 128.852 108.162 128.657 108.381C128.468 108.6 128.206 108.734 127.926 108.758Z" fill="white"/>
<path d="M76.165 106.507C76.165 106.817 76.1102 107.122 75.9884 107.408C75.8667 107.694 75.7023 107.956 75.4831 108.175C75.2639 108.394 75.0082 108.571 74.7221 108.693C74.436 108.814 74.1316 108.875 73.8271 108.875H126.806C127.427 108.875 128.023 108.626 128.462 108.187C128.9 107.749 129.15 107.152 129.15 106.531L76.165 106.507Z" fill="#C1C9D6"/>
<path d="M126.806 109.197H73.8271V108.54C74.095 108.54 74.3507 108.485 74.5942 108.382C74.8378 108.278 75.063 108.132 75.2457 107.937C75.4344 107.749 75.5805 107.523 75.6779 107.28C75.7814 107.03 75.8301 106.768 75.8301 106.507V106.178H76.1589L129.478 106.196V106.525C129.478 107.237 129.198 107.913 128.693 108.418C128.188 108.924 127.518 109.204 126.8 109.204L126.806 109.197ZM75.5744 108.54H126.806C127.342 108.54 127.847 108.333 128.23 107.949C128.535 107.645 128.724 107.268 128.797 106.854L76.4755 106.835C76.445 107.073 76.3902 107.304 76.2989 107.529C76.165 107.858 75.9702 108.15 75.7205 108.4C75.6718 108.449 75.6231 108.491 75.5744 108.54Z" fill="#27313A"/>
<path d="M126.849 109.391H50.0474C49.5847 109.361 49.1768 109.154 48.8785 108.807C48.5863 108.472 48.4219 108.034 48.4219 107.577C48.4219 107.121 48.5863 106.682 48.8785 106.347C49.1768 106.006 49.5847 105.799 50.023 105.769H129.053C129.138 105.769 129.217 105.787 129.29 105.818C129.369 105.854 129.436 105.903 129.491 105.964C129.546 106.019 129.588 106.092 129.619 106.165C129.649 106.238 129.661 106.317 129.661 106.402C129.661 106.792 129.594 107.175 129.454 107.541C129.314 107.906 129.107 108.235 128.846 108.515C128.584 108.795 128.273 109.014 127.926 109.166C127.579 109.318 127.22 109.391 126.849 109.391ZM50.0535 106.42C49.81 106.439 49.5603 106.567 49.3777 106.78C49.189 106.999 49.0855 107.279 49.0855 107.577C49.0855 107.875 49.189 108.162 49.3777 108.375C49.5603 108.588 49.81 108.716 50.0778 108.734H126.849C127.129 108.734 127.403 108.673 127.665 108.563C127.926 108.448 128.164 108.277 128.371 108.064C128.578 107.845 128.736 107.589 128.846 107.303C128.955 107.023 129.01 106.731 129.01 106.426H50.0474L50.0535 106.42Z" fill="#27313A"/>
<path d="M130.264 106.391H76.5611C76.4089 106.41 76.2506 106.391 76.1106 106.336C75.9645 106.282 75.8366 106.196 75.7332 106.081C75.6297 105.965 75.5566 105.825 75.5201 105.679C75.4835 105.527 75.4835 105.375 75.5201 105.222L84.3539 70.8306C84.4696 70.4896 84.6888 70.1974 84.9871 69.9904C85.2793 69.7834 85.6324 69.6738 85.9916 69.6738H139.683C140.401 69.6738 140.882 70.1913 140.718 70.8306L131.896 105.198C131.78 105.539 131.561 105.837 131.275 106.05C130.989 106.263 130.636 106.379 130.27 106.385L130.264 106.391Z" fill="white"/>
<path d="M76.4453 106.732C76.2931 106.732 76.1409 106.708 76.0008 106.653C75.806 106.58 75.6355 106.464 75.4955 106.306C75.3555 106.148 75.2581 105.959 75.2094 105.764C75.1607 105.569 75.1607 105.356 75.2094 105.149L84.0432 70.7513C84.1893 70.319 84.4511 69.972 84.8042 69.7224C85.1573 69.4728 85.5531 69.3388 85.9975 69.3449H139.688C140.163 69.3449 140.589 69.5337 140.839 69.8624C141.07 70.1607 141.137 70.5321 141.04 70.9157L132.218 105.283C132.078 105.715 131.823 106.062 131.47 106.318C131.122 106.574 130.708 106.708 130.276 106.714H76.5914C76.5427 106.714 76.5001 106.72 76.4514 106.72L76.4453 106.732ZM85.9792 70.0085C85.687 70.0085 85.413 70.0998 85.1756 70.2642C84.9382 70.4347 84.7616 70.666 84.6642 70.9461L75.8425 105.307C75.8182 105.399 75.8182 105.502 75.8425 105.6C75.8669 105.697 75.9156 105.788 75.9826 105.868C76.0495 105.941 76.1348 106.001 76.2261 106.032C76.3174 106.068 76.4209 106.081 76.5183 106.068H130.258C130.55 106.062 130.83 105.971 131.068 105.794C131.305 105.618 131.482 105.381 131.573 105.1L140.389 70.7513C140.437 70.5686 140.407 70.3982 140.303 70.2703C140.175 70.1059 139.944 70.0085 139.67 70.0085H85.9731H85.9792Z" fill="#27313A"/>
<path d="M109.218 93.4661C108.566 93.4661 107.933 93.3382 107.324 93.0765C106.685 92.8025 106.1 92.3824 105.638 91.8649C105.175 91.3474 104.822 90.7204 104.615 90.0568C104.408 89.381 104.353 88.6869 104.451 87.9868C104.651 86.5135 105.382 85.1619 106.49 84.1756C107.604 83.1894 109.035 82.6292 110.52 82.6049C111.208 82.5805 111.915 82.7206 112.554 82.9945C113.193 83.2685 113.778 83.6886 114.24 84.2061C114.703 84.7236 115.056 85.3506 115.263 86.0142C115.464 86.6778 115.525 87.3962 115.427 88.0842C115.227 89.5575 114.496 90.9091 113.388 91.8954C112.274 92.8816 110.843 93.4357 109.358 93.4661C109.309 93.4661 109.26 93.4661 109.211 93.4661H109.218ZM110.66 83.2624C110.624 83.2624 110.581 83.2624 110.545 83.2624C109.211 83.2868 107.933 83.786 106.935 84.6688C105.936 85.5515 105.291 86.7631 105.108 88.0781C105.023 88.6808 105.072 89.2836 105.248 89.868C105.425 90.4403 105.729 90.9821 106.131 91.4266C106.533 91.871 107.038 92.2363 107.586 92.4676C108.146 92.7051 108.743 92.8208 109.345 92.8025C110.679 92.7781 111.957 92.2789 112.956 91.3961C113.948 90.5134 114.599 89.3018 114.782 87.9868L115.111 88.0294L114.782 87.9868C114.861 87.3902 114.813 86.7753 114.636 86.203C114.459 85.6307 114.155 85.0888 113.753 84.6444C113.351 84.2 112.852 83.8408 112.298 83.6033C111.781 83.3842 111.214 83.2685 110.654 83.2685L110.66 83.2624Z" fill="#27313A"/>
<path d="M55.8066 38.8C55.6788 38.8 55.5448 38.7878 55.4109 38.7696C54.1446 38.5747 53.554 37.5702 53.4505 37.3693C53.3653 37.211 53.4262 37.0101 53.5906 36.9249C53.7488 36.8396 53.9498 36.9005 54.035 37.0649C54.0837 37.1562 54.5403 37.972 55.5144 38.1242C56.4641 38.2703 57.1338 37.6615 57.213 37.5885C57.3469 37.4606 57.5539 37.4667 57.6818 37.6006C57.8096 37.7346 57.8035 37.9416 57.6696 38.0694C57.5296 38.2034 56.8355 38.8061 55.8188 38.8061L55.8066 38.8Z" fill="#27313A"/>
<path d="M150.5 70.2156C150.5 75.4879 146.214 79.7801 140.978 79.7679C135.663 79.7557 131.968 75.6888 131.468 71.3967C131.14 68.5536 131.901 66.027 133.77 63.884C135.657 61.7227 138.092 60.6147 140.96 60.6208C146.165 60.6329 150.53 64.852 150.5 70.2095V70.2156Z" fill="#2E81ED"/>
<path d="M142.287 73.7962C141.447 73.7962 140.601 73.7962 139.76 73.7962C139.456 73.7962 139.346 73.6988 139.346 73.3944C139.359 72.0793 139.286 70.7643 139.383 69.4554C139.444 68.6091 139.779 67.8542 140.302 67.1845C140.655 66.734 141.027 66.2956 141.435 65.8938C141.569 65.766 141.636 65.6198 141.63 65.4311C141.63 65.2059 141.648 64.9806 141.642 64.7553C141.636 64.4753 141.727 64.2439 141.989 64.1344C142.263 64.0248 142.531 64.0796 142.756 64.2866C142.975 64.4875 143.06 64.7614 143.127 65.0354C143.298 65.7416 143.164 66.4174 142.872 67.0688C142.774 67.288 142.683 67.5072 142.573 67.7203C142.5 67.8603 142.555 67.909 142.683 67.9273C142.75 67.9394 142.811 67.9273 142.878 67.9273C143.633 67.9273 144.387 67.9273 145.142 67.9273C145.55 67.9273 145.836 68.1221 145.934 68.4752C146.043 68.8709 145.885 69.3214 145.55 69.498C145.398 69.5771 145.404 69.6137 145.538 69.705C145.812 69.8998 146.001 70.1433 145.94 70.5086C145.897 70.7826 145.757 70.9774 145.489 71.0626C145.441 71.0809 145.362 71.0748 145.349 71.1418C145.337 71.2148 145.422 71.2209 145.465 71.2575C145.83 71.5253 145.879 72.2498 145.343 72.469C145.24 72.5116 145.197 72.536 145.301 72.6395C145.532 72.8647 145.538 73.1509 145.428 73.4248C145.325 73.6927 145.081 73.7718 144.808 73.7718C143.967 73.7718 143.121 73.7718 142.281 73.7718V73.784L142.287 73.7962Z" fill="#F8F8F9"/>
<path d="M138.33 74.5449C137.636 74.5449 136.936 74.5449 136.242 74.551C136.035 74.551 135.937 74.4353 135.919 74.2465C135.907 74.1491 135.919 74.0456 135.919 73.9421C135.919 72.481 135.919 71.0259 135.919 69.5648C135.919 69.2056 136.01 69.1203 136.37 69.1143C136.997 69.1143 137.618 69.1143 138.245 69.1143C138.494 69.1143 138.622 69.2238 138.622 69.4613C138.622 70.9894 138.622 72.5236 138.616 74.0517C138.616 74.0578 138.616 74.0639 138.61 74.07C138.573 74.0822 138.573 74.0943 138.61 74.1126C138.622 74.277 138.616 74.4353 138.427 74.5083C138.427 74.4596 138.403 74.4109 138.354 74.4292C138.293 74.4474 138.354 74.5022 138.342 74.5388L138.33 74.5449Z" fill="#F8F8F9"/>
</svg>