<svg xmlns="http://www.w3.org/2000/svg" width="1440" height="768" fill="none" viewBox="0 0 1440 768"><g stroke="#5F7B8F" stroke-opacity=".3" clip-path="url(#clip0_6963_80176)"><path stroke-width=".25" d="M397.9 852.45C397.9 669.395 249.505 521 66.45 521-116.605 521-265 669.395-265 852.45c0 183.05 148.395 331.45 331.45 331.45 183.055 0 331.45-148.4 331.45-331.45z"/><path stroke-width=".25" d="M303.62 852.45c0-130.986-106.184-237.17-237.17-237.17-130.985 0-237.17 106.184-237.17 237.17 0 130.985 106.185 237.17 237.17 237.17 130.986 0 237.17-106.185 237.17-237.17z"/><path fill="#AEBDC8" stroke-width=".5" d="M357.82 684.56a5.76 5.76 0 10-11.52 0 5.76 5.76 0 0011.52 0z"/><path fill="#fff" stroke-width=".93" d="M145.86 624.86a9.57 9.57 0 00-9.57-9.57c-5.285 0-9.57 4.285-9.57 9.57a9.57 9.57 0 009.57 9.57 9.57 9.57 0 009.57-9.57z"/><path stroke-width=".25" d="M216.82 852.45c0-83.047-67.323-150.37-150.37-150.37-83.047 0-150.37 67.323-150.37 150.37 0 83.047 67.323 150.37 150.37 150.37 83.047 0 150.37-67.323 150.37-150.37zM1109.18-60.14c-64.39 171.357 22.32 362.467 193.68 426.858 171.36 64.39 362.47-22.323 426.86-193.679 64.39-171.356-22.32-362.466-193.68-426.857-171.36-64.39-362.47 22.322-426.86 193.679z"/><path stroke-width=".25" d="M1197.44-26.976c-46.08 122.615 15.97 259.364 138.58 305.439 122.62 46.075 259.37-15.973 305.44-138.587 46.08-122.615-15.97-259.364-138.59-305.439-122.61-46.075-259.36 15.973-305.43 138.587z"/><path fill="#AEBDC8" stroke-width=".5" d="M1087.64 111.119c-1.11 2.978.39 6.299 3.37 7.418a5.76 5.76 0 104.05-10.783 5.762 5.762 0 00-7.42 3.365z"/><path fill="#fff" stroke-width=".93" d="M1265.06 241.562c-1.86 4.947.64 10.465 5.59 12.325 4.95 1.859 10.47-.645 12.33-5.593 1.85-4.947-.65-10.465-5.6-12.324-4.94-1.859-10.46.644-12.32 5.592z"/><path stroke-width=".25" d="M1278.69 3.557c-29.21 77.74 10.13 164.441 87.87 193.653 77.74 29.212 164.44-10.127 193.65-87.867 29.21-77.74-10.13-164.44-87.87-193.653-77.74-29.212-164.44 10.127-193.65 87.867zM702.589 831.268c-64.39 171.352 22.323 362.462 193.679 426.852 171.352 64.4 362.462-22.32 426.852-193.67 64.4-171.36-22.32-362.47-193.67-426.861-171.36-64.39-362.47 22.323-426.861 193.679z"/><path stroke-width=".25" d="M790.843 864.431C744.768 987.046 806.816 1123.8 929.43 1169.87c122.61 46.08 259.36-15.97 305.44-138.59 46.07-122.611-15.97-259.361-138.59-305.436-122.612-46.074-259.362 15.973-305.437 138.587z"/><path stroke-width=".25" d="M872.097 894.964c-29.212 77.739 10.127 164.446 87.867 193.656 77.736 29.21 164.446-10.13 193.656-87.87 29.21-77.739-10.13-164.441-87.87-193.653-77.739-29.212-164.441 10.127-193.653 87.867z"/></g><defs><clipPath id="clip0_6963_80176"><path fill="#fff" d="M0 0h1440v768H0z"/></clipPath></defs></svg>