<svg xmlns="http://www.w3.org/2000/svg" width="368" height="237" fill="none" viewBox="0 0 368 237"><path fill="#fff" d="M1 29h367v207H1z" opacity=".01"/><path fill="#EBEFF3" d="M24.625 156.82c3.91-10.885 15.745-18.335 27.25-17.155 7.925.81 15.565 5.22 23.41 3.855 8.315-1.445 14.315-9.21 16.56-17.345 2.245-8.135 1.56-16.745 1.425-25.18-.135-8.435.42-17.29 4.77-24.5 5.38-8.95 16.545-14 26.805-12.115 25.85 4.735 11.455 39.135 29.775 50.91 23.5 15.12 38.655-19.5 42.63-36.115 2.395-10.03 4.585-20.39 10.21-29.035 7.675-11.79 29.37-21.705 38.82-6 7.255 12.065-2.645 25.615-2.37 38.145.32 14.655 13.18 21 26.72 17.75 8.71-2.08 16.45-7 24.885-10.03 8.94-3.2 20.82-3.245 25.86 4.8 3.97 6.335 1.67 14.82-2.435 21.07s-9.835 11.38-13.395 17.955c-3.56 6.575-4.325 15.67 1.11 20.805 9.755 9.22 27.66-2.615 38.7 5 8.385 5.8 6.835 19.075 1.065 27.5-9.75 14.18-27.685 20.905-44.88 21.435-17.195.53-34.04-4.23-50.655-8.78-16.615-4.55-33.615-8.965-50.775-7.71-24.97 1.825-49 15.57-73.73 11.745-16.12-2.5-30.23-12.205-46-16.295a67.978 67.978 0 00-23.19-1.845c-6.215.57-13.575 3.905-19.855 2.5-12.335-2.73-16.415-21.05-12.71-31.365z"/><path fill="#CFD7DF" d="M81.5 161.23S49.565 173.045 43.555 152c-1.235-4.305 2.255-4.305 2.46-7.59.205-3.285-13.125-7.175-14.355-16.61-1.23-9.435 8.34-10.74-2.875-22.555-11.275-11.895-12.915-18.05-8-20.5 4.915-2.45 11.715 3.065 15.59 8.81 3.875 5.745 7.795 0 13.125 2.255s3.5 11.5 8.615 13.74S78.415 112.42 85 136c0 0-4.225 25.945-3.5 25.23z"/><path fill="#fff" d="M80.705 62.635h200v114.5a3 3 0 01-3 3H83.725a3 3 0 01-3-3v-114.5h-.02z"/><path fill="#92A2B1" d="M80.92 149.795s-34.615-30.77-16.665-41.88c17.95-11.11 9.83-9.405 9-20.09-.83-10.685 7.69-14.53 7.69-14.53l-.025 76.5z"/><path fill="#fff" d="M219.05 180.6h-135a3.652 3.652 0 01-3.65-3.65V52.9a3.65 3.65 0 013.65-3.65h193.135a3.65 3.65 0 013.65 3.65v79.34"/><path stroke="#273139" stroke-width=".605" d="M219.05 180.6h-135a3.652 3.652 0 01-3.65-3.65V52.9a3.65 3.65 0 013.65-3.65h193.135a3.65 3.65 0 013.65 3.65v79.34"/><path fill="#fff" d="M280.835 176.95a3.65 3.65 0 01-3.65 3.65H237.53"/><path stroke="#273139" stroke-width=".605" d="M280.835 176.95a3.65 3.65 0 01-3.65 3.65H237.53"/><path fill="#273139" stroke="#273139" stroke-width=".605" d="M84.045 49.25h193.16a3.65 3.65 0 013.65 3.65v13.22H80.395V52.9a3.65 3.65 0 013.65-3.65z"/><path fill="#fff" d="M86.335 59.59a1.675 1.675 0 100-3.35 1.675 1.675 0 000 3.35zM91.86 59.59a1.675 1.675 0 100-3.35 1.675 1.675 0 000 3.35zM97.385 59.59a1.675 1.675 0 100-3.35 1.675 1.675 0 000 3.35z"/><path fill="#fff" stroke="#B2E4D9" stroke-width=".5" d="M194.555 129.15l-50.36-.025a3.815 3.815 0 01-3.81-3.815V98.505a3.815 3.815 0 013.815-3.81l50.36.03a3.81 3.81 0 013.81 3.81v26.805a3.815 3.815 0 01-3.815 3.81z"/><path stroke="#EBEFF3" stroke-linecap="round" stroke-linejoin="round" stroke-width="1.585" d="M148.72 104.175v19.71"/><path stroke="#9ACBFA" stroke-linecap="round" stroke-linejoin="round" stroke-width="1.585" d="M148.735 113.21v10.705"/><path stroke="#EBEFF3" stroke-linecap="round" stroke-linejoin="round" stroke-width="1.585" d="M154.435 110.505v13.38"/><path stroke="#9ACBFA" stroke-linecap="round" stroke-linejoin="round" stroke-width="1.585" d="M154.445 116.87v7.045"/><path stroke="#EBEFF3" stroke-linecap="round" stroke-linejoin="round" stroke-width="1.585" d="M160.15 104.175v19.71"/><path stroke="#9ACBFA" stroke-linecap="round" stroke-linejoin="round" stroke-width="1.585" d="M160.135 109.855l.035 14.06"/><path stroke="#EBEFF3" stroke-linecap="round" stroke-linejoin="round" stroke-width="1.585" d="M188.72 112.635v11.25"/><path stroke="#9ACBFA" stroke-linecap="round" stroke-linejoin="round" stroke-width="1.585" d="M188.705 118.575v5.34"/><path stroke="#EBEFF3" stroke-linecap="round" stroke-linejoin="round" stroke-width="1.585" d="M177.29 116.415v7.47"/><path stroke="#9ACBFA" stroke-linecap="round" stroke-linejoin="round" stroke-width="1.585" d="M177.285 120.555v3.36"/><path stroke="#EBEFF3" stroke-linecap="round" stroke-linejoin="round" stroke-width="1.585" d="M165.865 110.505v13.38"/><path stroke="#9ACBFA" stroke-linecap="round" stroke-linejoin="round" stroke-width="1.585" d="M165.86 116.895l.01 7.02"/><path stroke="#EBEFF3" stroke-linecap="round" stroke-linejoin="round" stroke-width="1.5" d="M171.58 111.875l-.005 12.05"/><path stroke="#9ACBFA" stroke-linecap="round" stroke-linejoin="round" stroke-width="1.5" d="M171.575 118.53v5.43"/><path stroke="#EBEFF3" stroke-linecap="round" stroke-linejoin="round" stroke-width="1.5" d="M183.005 112.625v11.3"/><path stroke="#9ACBFA" stroke-linecap="round" stroke-linejoin="round" stroke-width="1.5" d="M182.995 118.87v5.09"/><path fill="#EBEFF3" fill-rule="evenodd" d="M134.15 128.42H112l18.27 51.91h21.23l-17.35-51.91zm-18 2.97l14.53-.13 2.075 5.9H118.37l-2.22-5.77zm17.295 7.87l-14.53.13 2.225 5.77h14.38l-2.075-5.9zm-11.625 8.39l14.53-.13 2.08 5.9h-14.385l-2.225-5.77zm17.44 7.87l-14.53.13 2.22 5.77h14.385l-2.075-5.9zM130 169.67l-2.215-5.77 14.535-.13 2.075 5.9H130zm15.225 2.365l-14.53.135 2.21 5.765H147.3l-2.075-5.9z" clip-rule="evenodd"/><path fill="#B1BDC7" d="M131.26 127.98h2.515l-27.07 88.74h-2.415l26.97-88.74zM111.545 127.665h2.515L86.87 216.55h-2.33l27.005-88.885z"/><path stroke="#92A2B1" stroke-linecap="round" stroke-linejoin="round" stroke-width=".5" d="M133.775 128.08l1.255 2.04-26.325 86.515-2.335.085M98.64 184.12l-9.77 32.43h-1.83M101.71 173.78l-2.26 7.52M104.685 164.345l-2.035 6.605M107.68 154.34l-1.815 5.955M109.875 147.42l-1.765 5.71M112.53 138.76l-1.835 5.905M114.02 127.78l1.255 2.045-1.72 5.625M111.66 138.585h16.38M112.455 136.1h16.48M109.055 147.295h16.38M109.85 144.815h16.48M106.375 155.71h16.38M107.17 153.225h16.48M103.845 164.27h16.38M104.64 161.79h16.475M100.865 173.655h16.38M101.66 171.17h16.48M97.74 183.93h16.38M98.53 181.445h16.48"/><path fill="#fff" stroke="#B2E4D9" stroke-width=".5" d="M258.415 129.15l-50.36-.025a3.815 3.815 0 01-3.81-3.815V98.505a3.815 3.815 0 013.815-3.81l50.36.03a3.81 3.81 0 013.81 3.81v26.805a3.815 3.815 0 01-3.815 3.81z"/><path stroke="#CFD7DF" stroke-linecap="round" stroke-linejoin="round" stroke-width="1.585" d="M210.425 101.78l8.635.005"/><path stroke="#EBEFF3" stroke-linecap="round" stroke-linejoin="round" stroke-width="1.585" d="M210.425 106.395l43.73.005"/><path stroke="#9ACBFA" stroke-linecap="round" stroke-linejoin="round" stroke-width="1.585" d="M210.16 106.395l16.815.005"/><path stroke="#CFD7DF" stroke-linecap="round" stroke-linejoin="round" stroke-width="1.585" d="M210.425 113.125l8.635.01"/><path stroke="#EBEFF3" stroke-linecap="round" stroke-linejoin="round" stroke-width="1.585" d="M210.425 117.74l43.73.005"/><path stroke="#9ACBFA" stroke-linecap="round" stroke-linejoin="round" stroke-width="1.585" d="M210.16 117.74l28.425.005"/><path stroke="#7B8E9F" stroke-linecap="round" stroke-linejoin="round" stroke-width=".5" d="M267.53 147.44s-1.715-7.235 6.665-10.855c5.145-2.22 11.16-.23 13.715 3.24 8 10.855 11.62 31.81 12 34.5h-2.855s-4.955-36-19.24-35.62c-7.24.17-8.38 4.545-10.285 8.735z" clip-rule="evenodd"/><path stroke="#7B8E9F" stroke-linecap="round" stroke-linejoin="round" stroke-width=".5" d="M267.53 147.44s2.5 9.335 11.425 4.385c7.265-4 12.125 1 13.455 3.675M270.77 152.205s5.025-11.25 15.73-8.205"/><path fill="#B1BDC7" d="M273.05 164.205c-5.33 5.905-3.235 9.335-10.095 11.05-6.53 1.63-4.605 14.295 9.715 10.285 4.765-1.335 3.62-9.525 5.715-9.335 2.095.19 3.43 1.905 5.715-3.62 2.285-5.525 4.19 1.525 4.19 1.525h5.5s-11.89-19.705-20.74-9.905z"/><path fill="#92A2B1" d="M255.91 158.3c.5 2.84 4.38 5.145 10.285 1.5 8.245-5.055 9.525-3.62 9.715-1.5.19 2.12-2.86 6.855 4 8.38 6.86 1.525 11.43 2.285 12 7.43H298s-3.43-4.76-2.855-8c.575-3.24 1.71-4.765 0-6.665-1.71-1.9-4-.765-4.195-3.81-.195-3.045-1.5-3.43-5.71-2.67-4.21.76-5.145-1.715-6.86-5.33-1.715-3.615-11-6.635-18.095.76-4.565 4.76-4.95 6.665-4.375 9.905z"/><path stroke="#7B8E9F" stroke-width=".5" d="M302.575 174.5s11.43-4.95 13.335.19c1.905 5.14-.76 7.81 5.905 10.66 4.23 1.81 7.05 12.19 13.335 7.045 4.7-3.845 2.855-10.855-.765-14.285-2.055-1.95-9.5-6-9.5-9.335 0-4-5.525-11.43-15.24-7.43a18.277 18.277 0 00-11.05 13.335 28.153 28.153 0 013.98-.18z" clip-rule="evenodd"/><path fill="#647A8E" d="M295.91 173.825s8.285-38.575 28.59-37.43c20.305 1.145 15.715 15.715 4.575 17.715s-21.145-6.86-28.575 20l-4.59-.285z"/><path stroke="#fff" stroke-linecap="round" stroke-linejoin="round" stroke-width=".5" d="M256.1 157.635s6.285-9.5 14.665-8.385c8.38 1.115 7.62 7.62 11.62 10.29 4 2.67 11.05 4.76 12.955 14.285" opacity=".79"/><path stroke="#fff" stroke-linecap="round" stroke-linejoin="round" stroke-width=".5" d="M262.385 146.205l5.145 2.855-1.335 10.765M274.765 144.87l2.095 6.86M286.385 153.06l-.19 8.575M290.36 154.25l-2.805 8.1" opacity=".79"/><path stroke="#fff" stroke-linecap="round" stroke-linejoin="round" stroke-width=".5" d="M281.51 176.515l-1.98-9.945M260.67 182.205s5.335.19 11.62-8.57c6.285-8.76 11.05-10.67 15.43-8 3.8 2.31 5.335 5.715 5.715 9.14M272.29 185.635l-.76-11.05M274.575 184.12l-2.09-10.875" opacity=".91"/><path stroke="#fff" stroke-linecap="round" stroke-linejoin="round" stroke-width=".5" d="M298.765 171.92s7.62-22.5 18.29-26.095c10.67-3.595 18.285.76 18.285.76M326.96 137.25l-5.715 6.86M317.055 145.825l8.76 8.57M319.34 145.635l11.045 7.81" opacity=".65"/><path fill="#FCFCFC" stroke="#B1BDC7" stroke-width=".5" d="M304.285 216.635H287.14a1.774 1.774 0 01-1.5-.795c-2.09-3.15-9.11-14.955-2.115-21.95 5.69-5.69 2.27-13.175-.295-17.155a1.784 1.784 0 011.5-2.765h21.885a1.786 1.786 0 011.5 2.755c-2.615 3.965-6.095 11.455-.27 17.28 7.17 7.17 0 18.785-2.1 21.86a1.778 1.778 0 01-1.46.77z"/><path fill="#EBEFF3" d="M80.915 66.325H280.47v8.75H80.915z"/><rect width="15.5" height="2" x="239.83" y="69.78" fill="#fff" rx="1"/><rect width="10.5" height="2" x="257.015" y="69.78" fill="#fff" rx="1"/><path fill="#fff" d="M273.54 73.465a2.665 2.665 0 100-5.33 2.665 2.665 0 000 5.33z"/><path fill="#C0DEFC" d="M125.905 99.57c6.459 0 11.695-5.236 11.695-11.695 0-6.459-5.236-11.695-11.695-11.695-6.459 0-11.695 5.236-11.695 11.695 0 6.46 5.236 11.695 11.695 11.695z"/><rect width="15.5" height="2" x="85.665" y="69.7" fill="#CFD7DF" rx="1"/><rect width="20.5" height="2" x="103.495" y="69.7" fill="#CFD7DF" rx="1"/><path stroke="#fff" d="M28.5 92.17s31.625 53.555 50.71 55.965M39.205 122.135s3.5 3 10.5 1"/><path fill="#fff" stroke="#75B6F5" stroke-width=".53" d="M124.405 98.045c6.169 0 11.17-5 11.17-11.17 0-6.169-5.001-11.17-11.17-11.17s-11.17 5.001-11.17 11.17c0 6.17 5.001 11.17 11.17 11.17z"/><path stroke="#273139" stroke-linecap="round" stroke-linejoin="round" stroke-width=".5" d="M101.905 115.6c-4.765-7.095-4.11-16.14-4.07-17.32 1.5.89 5.66 2.035 7.25 2.085-1.64 4.765-1.24 7.5-1.64 11.735"/><path fill="#fff" stroke="#273139" stroke-linecap="round" stroke-linejoin="round" stroke-width=".5" d="M114.055 103.475a1.425 1.425 0 100-2.85 1.425 1.425 0 000 2.85z"/><path fill="#273139" d="M112.965 100.62a2.702 2.702 0 002.12-1.255 1.97 1.97 0 00-.28-2.36c-.735-.685-1.885-.575-2.875-.425l-1.96.3c-.233.022-.46.086-.67.19a1.29 1.29 0 00-.345 1.66c.645 1.295 2.66 2.005 4.01 1.89zM114.06 140.955l6.125 14.595.09.205c.168.407.191.859.065 1.28l-4.84 15.87a1.331 1.331 0 01-2.575-.635L116.04 156l.15 1.5-7.5-13.94a3 3 0 015.245-2.82c.065.04.09.13.125.215zM108.09 142.145l-.26 16.25v.21c0 .089-.01.178-.03.265l-4.355 18.55a1.326 1.326 0 01-2.605-.5l2.605-18.875-.035.47-1.255-16.205a3.001 3.001 0 015.935-.46c.005.098.005.197 0 .295z"/><path stroke="#273139" stroke-linecap="round" stroke-linejoin="round" stroke-width=".5" d="M104.68 94.605a3.661 3.661 0 012.05 2.78c-.03-1.26.63-3.445 1.675-4.155"/><path fill="#fff" stroke="#273139" stroke-linecap="round" stroke-linejoin="round" stroke-width=".5" d="M113.9 102.07a5.146 5.146 0 01-9.64 2.5.176.176 0 01-.04-.065 5.146 5.146 0 119.68-2.445v.01z"/><path fill="#273139" d="M113.08 99.8a5.715 5.715 0 01-5.71 5.7 5.618 5.618 0 01-3.11-.93.176.176 0 01-.04-.065 5.146 5.146 0 018.83-5.27c.021.188.031.376.03.565z"/><path fill="#FF5959" d="M106.345 97.13a5.125 5.125 0 01-1.15 6.78 3.436 3.436 0 002.545-1 3.5 3.5 0 00-1.395-5.78z"/><path fill="#273139" d="M107.83 100.155a4.139 4.139 0 01-7.066 2.934 4.14 4.14 0 117.066-2.934z"/><path stroke="#EBEFF3" stroke-linecap="round" stroke-linejoin="round" stroke-width=".5" d="M103.03 158.575a2.585 2.585 0 002.335.595"/><path fill="#273139" d="M100.5 177.945c.765 1.195 1.615 1.855 3.07 1.71 1.265.525 1.845.8 3.29.65 1.445-.15 2.795 1.525.655 2.065a13.85 13.85 0 01-3.82.5 1.998 1.998 0 01-1.13-.465 5.914 5.914 0 01-1-1c-.905-.525-1.67-1.26-2.655-1.63.545-.615 1.09-1.21 1.59-1.83zM98.79 180.065c-.105.27-.22.54-.325.81 1 .405 1.89 1 2.86 1.425.06-.2.11-.4.16-.605-.925-.515-1.725-1.195-2.695-1.63z"/><path stroke="#EBEFF3" stroke-linecap="round" stroke-linejoin="round" stroke-width=".5" d="M104.155 180.88a.745.745 0 01.725-.765M104.895 181.17a.86.86 0 01.68-.845M105.68 181.225a.91.91 0 01.635-.915M116.25 156.705a2.6 2.6 0 002.335.595"/><path fill="#273139" d="M112 173.88a4.307 4.307 0 004.045.36c1.03 0 1.95 1 4.07 1s2.475 2.295.545 2.295l-3.935.035a2.504 2.504 0 01-1.185-.28l-1.275-.655-3.18-.19.915-2.565z"/><path fill="#273139" d="M111.09 176.755v.86h3.18v-.665l-3.18-.195z"/><path stroke="#EBEFF3" stroke-linecap="round" stroke-linejoin="round" stroke-width=".5" d="M116.925 175.41a.72.72 0 01.755-.81M117.81 175.725a.715.715 0 01.75-.81M118.715 175.9a.72.72 0 01.755-.81"/><path fill="#475867" d="M102.165 142.705H114a.834.834 0 000-1.665h-11.835a.835.835 0 000 1.665z"/><path fill="#92A2B1" d="M112.205 141.45h-8.465a3.443 3.443 0 01-3.42-3.845l2.955-25.275a5.106 5.106 0 013.625-4.06c.59.23 1.217.347 1.85.345a5.1 5.1 0 001.39-.19 5.085 5.085 0 013.22 4.37l2.275 24.895a3.438 3.438 0 01-3.43 3.76z"/><path stroke="#273139" stroke-linecap="round" stroke-linejoin="round" stroke-width=".5" d="M112.445 110.71c7.555-5.71 7.055-6.03 9.375-9.125 1.37 1.66 3.41 3.905 4.775 5.565-.97.675-7.415 6.765-12.375 8.75M100.845 99.5c.22-3.16 1.335-7.775 2.42-9.97M98.68 98.28c1.265-7.5 2.16-9.46 3.16-11.29M103.23 87.885a6.932 6.932 0 012.18-2.9.334.334 0 00-.26-.6 4.539 4.539 0 00-3.21 2.36M103.91 89.025c.239-.295.537-.537.875-.71a.24.24 0 00-.075-.46 3.045 3.045 0 00-1.735.23M132.69 97.18a7.113 7.113 0 001.855-3.17c.025-.695-.075-1.195-.42-.87a18.904 18.904 0 00-1.86 2.37M132 96.34a2.64 2.64 0 01.14-1.115.24.24 0 00-.37-.28 3.32 3.32 0 00-1.07 1.5M125.655 105.18l7.035-8M125.32 102c1.265-1.215 2.575-2.255 3.79-3.58a15.74 15.74 0 001.58-2M104.95 124.87a19.314 19.314 0 01-.86 9.575l-.185-.23M111 115.54a27.136 27.136 0 00.6 10.46M103.455 109.835a14.552 14.552 0 019.355.24M108.225 99.305a3.103 3.103 0 01-.5 2.97"/><path stroke="#fff" stroke-linecap="round" stroke-linejoin="round" stroke-width=".5" d="M111.97 99.795a5.04 5.04 0 01-3.275 4.29M102.105 103a2.946 2.946 0 01-.68-5.16"/><path stroke="#273139" stroke-linecap="round" stroke-linejoin="round" stroke-width=".5" d="M114.52 101.71l.6-.6M114.005 103.175l.6-.605"/><path fill="#273139" d="M103.295 113.84l.82-9.68-1.86-.3 1.04 9.98z"/><path fill="#C0DEFC" d="M133.88 88.66l-9.38-1.435-1.815-10A11.308 11.308 0 01133.88 88.66z"/><path stroke="#92A2B1" stroke-width=".5" d="M79.205 216.74h179.75M265.705 216.74h54.75M37.705 216.74h39.25"/><path stroke="#B1BDC7" stroke-width=".5" d="M285.37 175.97h20.335"/><path fill="#EBEFF3" d="M222.415 168.275l-49.035 11.47a3.894 3.894 0 01-4.615-3l-6.335-27.1a3.89 3.89 0 012.81-4.725l49.035-11.465a3.888 3.888 0 014.615 3l6.335 27.105a3.884 3.884 0 01-2.81 4.715z"/><path fill="#fff" stroke="#B2E4D9" stroke-width=".5" d="M221.725 166.66l-49.53 9.12a3.815 3.815 0 01-4.44-3.055l-4.85-26.365a3.815 3.815 0 013.06-4.44l49.535-9.115a3.807 3.807 0 014.44 3.055l4.85 26.365a3.796 3.796 0 01-3.065 4.435z"/><path stroke="#CFD7DF" stroke-linecap="round" stroke-linejoin="round" stroke-width="1.585" d="M169.56 148.46l8.49-1.56"/><path stroke="#EBEFF3" stroke-linecap="round" stroke-linejoin="round" stroke-width="1.585" d="M170.395 153l43.01-7.935"/><path stroke="#9ACBFA" stroke-linecap="round" stroke-linejoin="round" stroke-width="1.585" d="M170.14 153.05l16.535-3.05"/><path stroke="#CFD7DF" stroke-linecap="round" stroke-linejoin="round" stroke-width="1.585" d="M171.62 159.62l8.495-1.56"/><path stroke="#EBEFF3" stroke-linecap="round" stroke-linejoin="round" stroke-width="1.585" d="M172.46 164.16l43.005-7.94"/><path stroke="#9ACBFA" stroke-linecap="round" stroke-linejoin="round" stroke-width="1.585" d="M172.2 164.205l27.955-5.155"/><path stroke="#131735" stroke-linecap="round" stroke-width=".5" d="M228.12 145.47c-2.33 7-4.5 9.25-4.5 9.25"/><path fill="#527FA5" d="M222.42 211.715a2.575 2.575 0 100-5.15 2.575 2.575 0 000 5.15zM222.96 196.58a3.2 3.2 0 100-6.4 3.2 3.2 0 000 6.4zM226.495 175.275a3.875 3.875 0 100-7.75 3.875 3.875 0 000 7.75z"/><path fill="#527FA5" d="M219.83 209.6l-.065-16.425 6.36.415-1.165 15.615-5.13.395z"/><path fill="#527FA5" d="M230.275 172.265l-4.18 21.675-6.28-1.065 2.905-22.34 7.555 1.73zM236.61 212.295a2.575 2.575 0 100-5.15 2.575 2.575 0 000 5.15zM233.145 197.535a3.2 3.2 0 100-6.4 3.2 3.2 0 000 6.4z"/><path fill="#527FA5" d="M231 176.055a3.875 3.875 0 100-7.75 3.875 3.875 0 000 7.75zM234.22 210.82l-4.36-16.335 6.2-1.125 3.025 15.78-4.865 1.68z"/><path fill="#527FA5" d="M234.87 172.06l1.47 22.18-6.425.33-2.79-22.275 7.745-.235z"/><path fill="#527FA5" d="M237.095 173.34a7.439 7.439 0 01-.635 2 25.077 25.077 0 00-.735 2.43 23.323 23.323 0 00-.265 2.855l-2.855-3.395c-1.095-.78-1.645-2.74-1.275-4.89.45-2.61 2.23-2 3.6-2.88 2.26-1.435 2.62 1.265 2.165 3.88z"/><path stroke="#EBEFF3" stroke-linecap="round" stroke-linejoin="round" stroke-width=".5" d="M234.855 175.08a2.401 2.401 0 01-2.395-.53 3 3 0 01-.875-2.5"/><path stroke="#fff" stroke-linecap="round" stroke-linejoin="round" stroke-width=".5" d="M235.895 193.205l-2.14 1.18M236.17 195.355l-2.09-.275"/><path fill="#131735" d="M226.755 173.41s1.2 7.675 1.565 9.7l-.82 3.19s-1.405-9.27-.745-12.89z"/><path stroke="#fff" stroke-linecap="round" stroke-linejoin="round" stroke-width=".5" d="M226.94 173.515l1.51 11.09"/><path fill="#4BC1A7" d="M239.45 141.56l-1.845-1.305c-.035 1.16-1.165 2.405-2.765 2.96-1.805.62-3.535.12-3.915-1.115l-.77.585a6.996 6.996 0 00-2.38 3.8l-4.87 17.9c-.71 2.61.5 5.47 2.47 5.805l7.76 1.31c2.125.365 4.13-1.5 4.75-4.385l3.86-18.045c.635-2.945-.335-6.125-2.295-7.51z"/><path fill="#fff" d="M228.775 131l-.095 6.43v.05c-.035 2.25 1.93 4.1 4.39 4.135 2.46.035 4.475-1.76 4.5-4l.115-8.41"/><path stroke="#131735" stroke-linecap="round" stroke-linejoin="round" stroke-width=".535" d="M228.775 131l-.095 6.43v.05c-.035 2.25 1.93 4.1 4.39 4.135 2.46.035 4.475-1.76 4.5-4l.115-8.41"/><path fill="#FF9D45" d="M226.535 125.665c-.385-.2-.775.29-.58.735 1.905 4.345 6.225 5.455 9.96 4.155a2.6 2.6 0 001.345-.88 3.499 3.499 0 00.43-2.3 2.903 2.903 0 00-.615-1.765 2.096 2.096 0 00-1.865-.42c-3.21.435-5.52 2.1-8.675.475z"/><path fill="#FF9D45" d="M237.04 128.915a2.45 2.45 0 011.13-1.645 1.353 1.353 0 011.895.34s1.235 1.355.255 4.79c0 0-.465 2.355-1.905 3.575a.67.67 0 01-1.08-.335 15.49 15.49 0 01-.295-6.725z"/><path stroke="#FF9D45" stroke-linecap="round" stroke-linejoin="round" stroke-width=".5" d="M237.055 128.205s1.28-.78.625-3.32M237.375 128.375s0-1.5 2.5-2.285"/><path fill="#fff" stroke="#131735" stroke-linecap="round" stroke-linejoin="round" stroke-width=".5" d="M230.567 134.8c.021-1.452-.99-2.644-2.257-2.662-1.268-.018-2.312 1.145-2.332 2.597-.021 1.453.99 2.645 2.257 2.663 1.268.018 2.312-1.145 2.332-2.598zM235.629 134.872c.02-1.453-.99-2.645-2.258-2.663-1.267-.017-2.311 1.145-2.332 2.598-.02 1.452.991 2.644 2.258 2.662 1.267.018 2.311-1.145 2.332-2.597z"/><path fill="#fff" d="M230.58 134.81s.38-.8.475 0h-.475z"/><path stroke="#131735" stroke-linecap="round" stroke-linejoin="round" stroke-width=".5" d="M230.58 134.81s.38-.8.475 0"/><path fill="#fff" d="M226.85 132.735l2.455 4.39-2.455-4.39z"/><path stroke="#131735" stroke-linecap="round" stroke-linejoin="round" stroke-width=".5" d="M226.85 132.735l2.455 4.39"/><path fill="#fff" d="M227.515 132.305l1.815 3.095-1.815-3.095z"/><path stroke="#131735" stroke-linecap="round" stroke-linejoin="round" stroke-width=".5" d="M227.515 132.305l1.815 3.095"/><path fill="#fff" d="M232.12 132.81l2.455 4.39-2.455-4.39z"/><path stroke="#131735" stroke-linecap="round" stroke-linejoin="round" stroke-width=".5" d="M232.12 132.81l2.455 4.39"/><path fill="#fff" d="M232.785 132.38l1.815 3.095-1.815-3.095z"/><path stroke="#131735" stroke-linecap="round" stroke-linejoin="round" stroke-width=".5" d="M232.785 132.38l1.815 3.095"/><path fill="#fff" d="M235.625 134.52l2.125.03-2.125-.03z"/><path stroke="#131735" stroke-linecap="round" stroke-linejoin="round" stroke-width=".5" d="M235.625 134.52l2.125.03M220.57 167.715a3.255 3.255 0 00-2.42-.19M219.745 168.2s-2.035-.39-3.5.645a1.634 1.634 0 00-.575 2.33s1.365 2.7 5.25 1.285"/><path stroke="#131735" stroke-linecap="round" stroke-width=".5" d="M236.375 148.86l-2.67 11.025-12.84 7.215"/><path stroke="#131735" stroke-linecap="round" stroke-width=".5" d="M223.325 171.145l11.7-6c1.11-.295 3.105-2 3.89-4.185l2.29-10.345M220.705 167.23s1.925 2.425 1.785 4.31"/><path stroke="#131735" stroke-linecap="round" stroke-linejoin="round" stroke-width=".5" d="M219.47 212.22s-3.535 1.325-5.075 3.155c0 0 4.5 1.08 11-.4a4.35 4.35 0 00-1.055-2.63 4.365 4.365 0 01-4.87-.125z" clip-rule="evenodd"/><path stroke="#131735" stroke-linecap="round" stroke-linejoin="round" stroke-width=".5" d="M214.395 215.375s-.4-.05-.445.245a.315.315 0 00.26.355s1.78.685 5.77.395c1.934-.06 3.855-.34 5.725-.835 0 0 .165 0 .095-.335s-.415-.225-.415-.225"/><path stroke="#131735" stroke-linecap="round" stroke-linejoin="round" stroke-width=".5" d="M233.965 212.34s-3.535 1.285-5.085 3.095c0 0 4.5 1.12 10.96-.295a4.31 4.31 0 00-1.03-2.635 4.355 4.355 0 01-4.845-.165z" clip-rule="evenodd"/><path stroke="#131735" stroke-linecap="round" stroke-linejoin="round" stroke-width=".5" d="M228.91 215.445s-.395-.055-.44.255a.34.34 0 00.255.385s1.745.745 5.67.5a23.193 23.193 0 005.625-.8s.16 0 .1-.35a.32.32 0 00-.41-.245"/><path fill="#131735" d="M236.29 148.925s-.935 3.805-2.585 10.875l-3.29 1.795s2.75-2.095 5.875-12.67z"/></svg>