<svg xmlns="http://www.w3.org/2000/svg" width="150" height="150" fill="none" viewBox="0 0 150 150"><g clip-path="url(#clip0_14665_85138)"><path stroke="#91A1B0" stroke-linecap="round" stroke-linejoin="round" stroke-width="1.2" d="M134.01 129.055h5.49m-35.47 0h24.03m-117.56 0h87.82"/><path fill="#BEC6D2" d="M75 122.115c27.614 0 50-22.385 50-50 0-27.614-22.386-50-50-50s-50 22.386-50 50c0 27.615 22.386 50 50 50z" opacity=".2"/><path fill="#fff" stroke="#91A1B0" stroke-miterlimit="10" stroke-width="1.2" d="M38.09 36.615h73.83c3.13 0 5.68 2.54 5.68 5.68v59.64c0 3.13-2.54 5.68-5.68 5.68H38.09c-3.13 0-5.68-2.54-5.68-5.68v-59.64c0-3.13 2.54-5.68 5.68-5.68z"/><path fill="#91A1B0" stroke="#91A1B0" stroke-linecap="round" stroke-linejoin="round" stroke-width=".83" d="M37.63 37.285h74.81c2.48 0 4.5 2.02 4.5 4.5v11.86H33.03v-11.76a4.6 4.6 0 014.6-4.6z"/><path fill="#fff" d="M52.15 45.465h-9.84 9.84z"/><path stroke="#fff" stroke-linecap="round" stroke-miterlimit="10" stroke-width="1.2" d="M52.15 45.465h-9.84"/><path stroke="#91A1B0" stroke-linecap="round" stroke-linejoin="round" stroke-width="1.2" d="M18.4 35.035h6.04m7.16-14.09v6.05m-10.63-1.72l4.8 3.69"/><path fill="#fff" stroke="#C4CCD4" stroke-width="1.001" d="M65.63 80.266v3.386c0 .776.625 1.402 1.4 1.402h28.468c.776 0 1.402-.626 1.402-1.402v-3.378c0-.417-.184-.809-.51-1.076-.758-.617-2.084-2.002-2.084-4.162s1.326-3.561 2.085-4.179c.325-.267.509-.659.509-1.076v-3.37c0-.775-.626-1.4-1.402-1.4H67.031c-.776 0-1.402.625-1.402 1.4v3.354c0 .417.184.809.5 1.076.76.617 2.094 2.026 2.086 4.195 0 2.152-1.334 3.537-2.085 4.154a1.385 1.385 0 00-.509 1.076h.008z"/><rect width="13.024" height="7.005" x="74.749" y="71.536" stroke="#C4CCD4" stroke-width="1.001" rx="1.668"/><path fill="#fff" stroke="#C4CCD4" stroke-width="1.001" d="M53.119 89.441v3.387c0 .775.625 1.4 1.401 1.4h28.468c.775 0 1.401-.625 1.401-1.4v-3.379c0-.416-.184-.809-.509-1.075-.759-.618-2.085-2.002-2.085-4.163 0-2.16 1.326-3.561 2.085-4.178.325-.267.509-.66.509-1.076v-3.37c0-.776-.626-1.401-1.401-1.401H54.52c-.776 0-1.401.625-1.401 1.4v3.354c0 .417.183.809.5 1.076.76.617 2.094 2.027 2.085 4.195 0 2.152-1.334 3.537-2.085 4.154a1.385 1.385 0 00-.509 1.076h.009z"/><rect width="13.024" height="7.005" x="62.238" y="80.711" stroke="#C4CCD4" stroke-width="1.001" rx="1.668"/></g><defs><clipPath id="clip0_14665_85138"><path fill="#fff" d="M0 0h150v150H0z"/></clipPath></defs></svg>