<svg width="13" height="16" viewBox="0 0 13 16" fill="none" xmlns="http://www.w3.org/2000/svg">
<g clip-path="url(#clip0_1178_5556)">
<path d="M5.93894 0.682617L4.27 3.34021C4.2065 3.43999 4.23371 3.58511 4.33349 3.6486L10.2564 7.3765C10.2564 7.3765 10.3381 7.41278 10.3743 7.41278C10.4469 7.41278 10.5195 7.36743 10.5557 7.30393L12.2247 4.64634" stroke="#12344D" stroke-width="0.635376" stroke-linecap="round" stroke-linejoin="round"/>
<path d="M0.562988 15.4282H10.6039" stroke="#12344D" stroke-width="0.635376" stroke-linecap="round" stroke-linejoin="round"/>
<path d="M8.80773 6.98399L4.97097 4.57129L1.68751 7.02934C1.62402 7.07469 1.58774 7.15632 1.59681 7.23796C1.98683 9.46018 2.09567 10.73 1.40633 12.6983C1.37005 12.798 1.40633 12.916 1.5061 12.9704L2.84851 13.7867C2.84851 13.7867 2.93015 13.823 2.96643 13.823C3.02992 13.823 3.09341 13.7958 3.12969 13.7414C4.57188 12.0543 6.0322 11.6098 7.87348 11.0475C7.95512 11.0203 8.00954 10.9568 8.02768 10.8751L8.80773 6.98399Z" stroke="#12344D" stroke-width="0.635376" stroke-linecap="round" stroke-linejoin="round"/>
<path d="M4.17291 10.0679L2.25 13.2515" stroke="#12344D" stroke-width="0.635376" stroke-linecap="round" stroke-linejoin="round"/>
<path d="M4.81686 10.2494C5.50314 10.2494 6.05949 9.69308 6.05949 9.00679C6.05949 8.3205 5.50314 7.76416 4.81686 7.76416C4.13057 7.76416 3.57422 8.3205 3.57422 9.00679C3.57422 9.69308 4.13057 10.2494 4.81686 10.2494Z" stroke="#12344D" stroke-width="0.635376" stroke-linecap="round" stroke-linejoin="round"/>
</g>
<defs>
<clipPath id="clip0_1178_5556">
<rect width="12.7075" height="16" fill="white"/>
</clipPath>
</defs>
</svg>
