<svg width="20" height="20" viewBox="0 0 20 20" fill="none" xmlns="http://www.w3.org/2000/svg">
<path d="M5.66016 18.137C6.06091 18.1372 6.38574 18.4618 6.38574 18.8626C6.38571 19.2633 6.06089 19.588 5.66016 19.5882H0.725586C0.324762 19.5881 3.1089e-05 19.2634 0 18.8626C0 18.4617 0.324743 18.1371 0.725586 18.137H5.66016ZM11.6074 4.27566C11.8681 4.17641 12.1683 4.23598 12.373 4.43582C13.4865 5.52275 15.0371 7.10484 15.8809 7.94168C15.9639 8.00708 16.0342 8.09048 16.083 8.18875C16.2055 8.4358 16.1766 8.73191 16.0098 8.95144C15.4392 9.7022 15.117 10.7809 14.9453 11.7386C14.8615 12.2061 14.8171 12.6235 14.7939 12.9221C14.7825 13.0705 14.7767 13.1889 14.7734 13.2688C14.7718 13.3086 14.771 13.3392 14.7705 13.3587C14.7703 13.3684 14.7696 13.376 14.7695 13.3802C14.7695 13.3819 14.7695 13.3833 14.7695 13.3841C14.7646 13.7785 14.4453 14.0969 14.0508 14.1009H14.0381C14.0278 14.101 14.0115 14.1013 13.9902 14.1018C13.9466 14.1029 13.8802 14.106 13.7939 14.1096C13.6214 14.1169 13.3682 14.1301 13.0518 14.1555C12.4175 14.2066 11.532 14.3048 10.5352 14.4934C8.52119 14.8747 6.13745 15.6092 4.40625 16.9915C4.39688 16.999 4.3856 17.0041 4.37598 17.011C4.35858 17.0236 4.34047 17.0344 4.32227 17.0452C4.3002 17.0583 4.27788 17.0698 4.25488 17.0803C4.23605 17.089 4.21761 17.0978 4.19824 17.1048C4.17438 17.1133 4.1504 17.1203 4.12598 17.1262C4.10746 17.1308 4.08907 17.1349 4.07031 17.138C4.04237 17.1425 4.01451 17.1445 3.98633 17.1458C3.96902 17.1466 3.95189 17.1482 3.93457 17.1477C3.91162 17.1471 3.88901 17.1446 3.86621 17.1419C3.84199 17.139 3.81783 17.1365 3.79395 17.1311C3.77805 17.1276 3.76273 17.1221 3.74707 17.1175C3.72004 17.1095 3.69312 17.1013 3.66699 17.0901C3.64202 17.0794 3.61857 17.0657 3.59473 17.052C3.57982 17.0435 3.5642 17.0363 3.5498 17.0266C3.51204 17.0013 3.47575 16.9728 3.44238 16.9397L3.43945 16.9368C3.42296 16.9203 3.41007 16.9007 3.39551 16.8831C3.38142 16.866 3.36582 16.8504 3.35352 16.8323C3.33966 16.812 3.32894 16.7901 3.31738 16.7688C3.30614 16.7481 3.29425 16.7279 3.28516 16.7063C3.27764 16.6885 3.27263 16.6699 3.2666 16.6516C3.25867 16.6277 3.2505 16.6039 3.24512 16.5794C3.24077 16.5594 3.23897 16.5391 3.23633 16.5188C3.23292 16.4931 3.22918 16.4676 3.22852 16.4417C3.22811 16.4241 3.2296 16.4066 3.23047 16.3889C3.23177 16.3611 3.23378 16.3335 3.23828 16.3059C3.241 16.2895 3.24517 16.2734 3.24902 16.2571C3.25579 16.2283 3.26407 16.2001 3.27441 16.1721C3.27975 16.1578 3.28474 16.1433 3.29102 16.1292C3.30337 16.1014 3.31792 16.0746 3.33398 16.0481C3.34324 16.0329 3.35281 16.0179 3.36328 16.0032C3.36992 15.9939 3.37568 15.9839 3.38281 15.9749C4.77221 14.2108 5.50088 11.8206 5.87402 9.81179C6.05876 8.81719 6.15236 7.93659 6.2002 7.30593C6.22407 6.99106 6.2359 6.73901 6.24219 6.56765C6.24532 6.48218 6.24719 6.41652 6.24805 6.37332C6.24847 6.35188 6.2489 6.33563 6.24902 6.32547V6.31277L6.26172 6.17898C6.32035 5.87334 6.57153 5.63235 6.89062 5.595H6.8916C6.89268 5.59487 6.89586 5.59433 6.89844 5.59402C6.90361 5.59341 6.91148 5.59238 6.92188 5.59109C6.94374 5.58837 6.9773 5.58415 7.02051 5.57839C7.107 5.56687 7.2339 5.54898 7.3916 5.52468C7.70795 5.47594 8.14691 5.40181 8.63574 5.29714C9.63684 5.08279 10.7619 4.76037 11.499 4.32839L11.6074 4.27566ZM11.7295 5.84011C10.8499 6.25082 9.79169 6.53361 8.93945 6.71609C8.44983 6.82092 8.00852 6.89656 7.67773 6.94851C7.67028 7.08506 7.66064 7.24151 7.64746 7.41531C7.59661 8.08577 7.49707 9.01959 7.30078 10.0764C7.14924 10.8923 6.93739 11.7943 6.64062 12.7122C7.81073 11.5427 9.04409 10.3078 9.85547 9.49343C9.87368 8.9833 10.293 8.57551 10.8076 8.57547C11.3337 8.57547 11.7605 9.00162 11.7607 9.52761C11.7607 10.0117 11.3992 10.4101 10.9316 10.471C10.1253 11.2804 8.87563 12.5297 7.68945 13.7151C8.58513 13.4265 9.46661 13.2179 10.2656 13.0667C11.3238 12.8664 12.2612 12.7625 12.9346 12.7083C13.0902 12.6958 13.2322 12.6858 13.3584 12.678C13.3865 12.3571 13.4342 11.9427 13.5166 11.4827C13.6703 10.625 13.9546 9.5423 14.4971 8.61062C13.7139 7.82621 12.6438 6.74297 11.7295 5.84011ZM15.4316 0.624293C15.7151 0.341011 16.1745 0.3411 16.458 0.624293L19.7881 3.95535C20.0713 4.23885 20.0715 4.69833 19.7881 4.98172L17.79 6.97976C17.5067 7.26305 17.0472 7.26288 16.7637 6.97976L13.4326 3.64968C13.1494 3.36624 13.1494 2.90675 13.4326 2.62332L15.4316 0.624293ZM14.9727 3.13699L17.2754 5.43972L18.248 4.46707L15.9453 2.16433L14.9727 3.13699Z" fill="#3B4854"/>
</svg>
