<svg width="22" height="22" viewBox="0 0 22 22" fill="none" xmlns="http://www.w3.org/2000/svg">
<g clip-path="url(#clip0_7480_6780)">
<path d="M13.2796 12.5C12.3396 11.57 10.6196 9.80996 9.35965 8.57996C7.49965 9.66996 3.96965 10.08 3.96965 10.08C3.96965 10.08 3.93965 17.03 0.639648 21.22C4.75965 17.93 11.7596 17.86 11.7596 17.86C11.7596 17.86 11.7996 14.46 13.2896 12.5H13.2796Z" stroke="#3B4854" stroke-width="1.27" stroke-linecap="round" stroke-linejoin="round"/>
<path d="M0.639648 21.22C0.639648 21.22 5.97965 15.89 7.97965 13.88" stroke="#3B4854" stroke-width="1.27" stroke-linecap="round" stroke-linejoin="round"/>
<path d="M16.2695 0.670044V9.78004" stroke="#3B4854" stroke-width="1.27" stroke-linecap="round" stroke-linejoin="round"/>
<path d="M14.7598 2.15001L16.2698 0.640015L17.7898 2.15001" stroke="#3B4854" stroke-width="1.27" stroke-linecap="round" stroke-linejoin="round"/>
<path d="M17.7898 8.88L16.2698 10.39L14.7598 8.88" stroke="#3B4854" stroke-width="1.27" stroke-linecap="round" stroke-linejoin="round"/>
<path d="M21.1198 5.66003H12.0098" stroke="#3B4854" stroke-width="1.27" stroke-linecap="round" stroke-linejoin="round"/>
<path d="M19.6299 4.15002L21.1499 5.66002L19.6299 7.18002" stroke="#3B4854" stroke-width="1.27" stroke-linecap="round" stroke-linejoin="round"/>
<path d="M12.9096 7.18002L11.3896 5.66002L12.9096 4.15002" stroke="#3B4854" stroke-width="1.27" stroke-linecap="round" stroke-linejoin="round"/>
<path d="M8.18965 14.6699C8.76955 14.6699 9.23965 14.1998 9.23965 13.6199C9.23965 13.04 8.76955 12.5699 8.18965 12.5699C7.60975 12.5699 7.13965 13.04 7.13965 13.6199C7.13965 14.1998 7.60975 14.6699 8.18965 14.6699Z" fill="#3B4854"/>
</g>
<defs>
<clipPath id="clip0_7480_6780">
<rect width="21.78" height="21.86" fill="white"/>
</clipPath>
</defs>
</svg>
