<svg width="150" height="150" viewBox="0 0 150 150" fill="none" xmlns="http://www.w3.org/2000/svg">
<path d="M134.061 134.189H139.551" stroke="#91A1B0" stroke-width="1.2" stroke-linecap="round" stroke-linejoin="round"/>
<path d="M104.07 134.189H128.1" stroke="#91A1B0" stroke-width="1.2" stroke-linecap="round" stroke-linejoin="round"/>
<path d="M10.5498 134.189H98.3698" stroke="#91A1B0" stroke-width="1.2" stroke-linecap="round" stroke-linejoin="round"/>
<path opacity="0.2" d="M75.0498 127.25C102.664 127.25 125.05 104.864 125.05 77.25C125.05 49.6358 102.664 27.25 75.0498 27.25C47.4356 27.25 25.0498 49.6358 25.0498 77.25C25.0498 104.864 47.4356 127.25 75.0498 127.25Z" fill="#BEC6D2"/>
<path d="M38.1302 41.75H111.96C115.09 41.75 117.64 44.29 117.64 47.43V107.07C117.64 110.2 115.1 112.75 111.96 112.75H38.1302C35.0002 112.75 32.4502 110.21 32.4502 107.07V47.43C32.4502 44.3 34.9902 41.75 38.1302 41.75Z" fill="white" stroke="#91A1B0" stroke-width="1.2" stroke-miterlimit="10"/>
<path d="M37.6801 42.4199H112.49C114.97 42.4199 116.99 44.4399 116.99 46.9199V58.7799H33.0801V47.0199C33.0801 44.4799 35.1401 42.4199 37.6801 42.4199Z" fill="#91A1B0" stroke="#91A1B0" stroke-width="0.83" stroke-linecap="round" stroke-linejoin="round"/>
<path d="M52.2004 50.5996H42.3604H52.2004Z" fill="white"/>
<path d="M52.2004 50.5996H42.3604" stroke="white" stroke-width="1.2" stroke-miterlimit="10" stroke-linecap="round"/>
<path d="M18.4502 40.1699H24.4902" stroke="#91A1B0" stroke-width="1.2" stroke-linecap="round" stroke-linejoin="round"/>
<path d="M31.6504 26.0801V32.1301" stroke="#91A1B0" stroke-width="1.2" stroke-linecap="round" stroke-linejoin="round"/>
<path d="M21.0098 30.4102L25.8098 34.1002" stroke="#91A1B0" stroke-width="1.2" stroke-linecap="round" stroke-linejoin="round"/>
<rect x="67.9814" y="93.7949" width="23.0169" height="14.0374" rx="7.01871" transform="rotate(-90 67.9814 93.7949)" fill="white" stroke="#B3BEC8" stroke-width="1.2"/>
<rect x="62.7285" y="80.1572" width="24.5435" height="18.8321" rx="3" fill="white" stroke="#B3BEC8" stroke-width="1.2"/>
<circle cx="75.0003" cy="88.4212" r="1.38409" fill="#B3BEC8" stroke="#B3BEC8"/>
<path d="M75 89.4814V92.6088" stroke="#B3BEC8" stroke-width="1.2" stroke-linecap="round"/>
</svg>
