<svg width="72" height="28" viewBox="0 0 72 28" fill="none" xmlns="http://www.w3.org/2000/svg">
<g clip-path="url(#clip0)">
<path d="M0 13.6133H6.21165V16.4811H3.04632V18.9563H5.84275V21.7527H3.04632V27.06H0V13.6133Z" fill="#007CC4"/>
<path d="M6.46191 15.8385H9.42494C10.6268 15.8385 11.5669 16.1479 12.269 16.7667C12.9592 17.3855 13.3161 18.2184 13.3161 19.2894C13.3161 19.8368 13.1733 20.3842 12.9235 20.8721C12.6736 21.3719 12.269 21.7646 11.7692 22.0144L13.804 27.0718H11.1147L9.05605 21.9549H9.00845V27.0718H6.46191V15.8385ZM9.00845 18.0042V20.6698C10.1389 20.646 10.6982 20.2533 10.6982 19.4917C10.6982 18.9681 10.5673 18.5992 10.3055 18.3731C10.0437 18.1351 9.61533 18.0161 9.00845 18.0042Z" fill="#007CC4"/>
<path d="M14.0059 15.8385H19.1584V18.2303H16.5524V20.3009H18.8133V22.6332H16.5524V24.68H19.1822V27.0718H14.0059V15.8385Z" fill="#007CC4"/>
<path d="M24.6562 15.8385H27.2028V20.0034H29.4637V15.8385H32.0103V27.0718H29.4637V22.4071H27.2028V27.0718H24.6562V15.8385Z" fill="#007CC4"/>
<path d="M32.5576 13.6133H35.6872C37.5079 13.6133 38.8169 13.9703 39.6142 14.6724C40.3995 15.3506 40.8398 16.3502 40.816 17.3855C40.816 18.5636 40.2329 19.5155 39.0787 20.2414C40.3757 20.7531 41.0302 21.7408 41.0302 23.1925C41.0302 24.3587 40.6256 25.2869 39.8046 26.0009C38.9835 26.7149 37.9125 27.0718 36.5797 27.0718H32.5695L32.5576 13.6133ZM35.6039 16.1955V19.099C37.0438 19.0633 37.7578 18.5874 37.7578 17.6711C37.7578 17.1237 37.5912 16.7429 37.2461 16.5287C36.901 16.3264 36.3536 16.2074 35.6039 16.1955ZM35.6039 21.5385V24.4777C36.3893 24.4658 36.9843 24.3468 37.377 24.1207C37.7697 23.8946 37.972 23.5138 37.972 22.9902C37.972 22.0264 37.2699 21.5385 35.8657 21.5385H35.6039Z" fill="black"/>
<path d="M45.3614 27.3455C44.0048 27.3455 42.9695 26.8219 42.2555 25.7867C41.5416 24.7514 41.1846 23.2401 41.1846 21.2767C41.1846 19.4679 41.5416 18.0519 42.2555 17.0404C42.9695 16.0289 43.9691 15.5172 45.2424 15.5172C46.6108 15.5172 47.6461 16.0289 48.372 17.0404C49.086 18.0519 49.4549 19.5036 49.4549 21.3838C49.4549 23.2639 49.0979 24.7276 48.3839 25.7748C47.6699 26.8219 46.6703 27.3455 45.3614 27.3455ZM45.2662 18.0756C44.3499 18.0756 43.8858 19.1585 43.8858 21.3124C43.8858 22.7046 44.0048 23.6328 44.2309 24.0969C44.4689 24.561 44.8021 24.799 45.2424 24.799C45.7184 24.799 46.0872 24.561 46.3371 24.0969C46.5989 23.6328 46.7179 22.7165 46.7179 21.36C46.7298 19.1704 46.2419 18.0756 45.2662 18.0756Z" fill="black"/>
<path d="M53.7745 27.3455C52.4179 27.3455 51.3826 26.8219 50.6686 25.7867C49.9546 24.7514 49.5977 23.2401 49.5977 21.2767C49.5977 19.4679 49.9546 18.0519 50.6686 17.0404C51.3826 16.0289 52.3822 15.5172 53.6674 15.5172C55.0358 15.5172 56.0711 16.0289 56.797 17.0404C57.511 18.0519 57.8799 19.5036 57.8799 21.3838C57.8799 23.2639 57.5229 24.7276 56.8089 25.7748C56.0949 26.8219 55.0834 27.3455 53.7745 27.3455ZM53.6793 18.0756C52.763 18.0756 52.2989 19.1585 52.2989 21.3124C52.2989 22.7046 52.4179 23.6328 52.644 24.0969C52.8701 24.561 53.2152 24.799 53.6555 24.799C54.1315 24.799 54.5004 24.561 54.7503 24.0969C55.0001 23.6328 55.131 22.7165 55.131 21.36C55.1429 19.1704 54.6551 18.0756 53.6793 18.0756Z" fill="black"/>
<path d="M58.0703 15.8385H60.6168V21.122H60.6644L63.0682 15.8385H65.7456L63.1396 21.5742L65.6385 27.0718H62.8302L60.6525 22.4071H60.6049V27.0718H58.0703V15.8385Z" fill="black"/>
<path d="M65.8417 26.8577V24.2398C66.6508 24.7038 67.3291 24.9418 67.8765 24.9418C68.1502 24.9537 68.4239 24.8585 68.6381 24.68C68.8285 24.4896 68.9237 24.2398 68.9118 23.978C68.9118 23.7519 68.8285 23.5258 68.6857 23.3473C68.4596 23.0736 68.1978 22.8356 67.9122 22.6333C67.0316 21.955 66.389 21.3362 65.9964 20.7531C65.6037 20.182 65.4014 19.5037 65.4014 18.8135C65.4014 17.8496 65.7108 17.0523 66.3176 16.4455C66.9245 15.8386 67.7218 15.5292 68.6857 15.5292C69.4235 15.5292 70.1493 15.6958 70.8276 15.9933V18.5041C70.066 18.0876 69.4592 17.8853 68.9832 17.8853C68.7095 17.8734 68.4477 17.9567 68.2335 18.1114C68.055 18.2661 67.9479 18.5041 67.9598 18.7421C67.9598 19.2181 68.3882 19.7536 69.2331 20.3367C69.8161 20.7531 70.3278 21.241 70.7681 21.8003C71.2798 22.4191 71.5535 23.1926 71.5416 23.9899C71.5654 24.9061 71.1965 25.7748 70.5301 26.3936C69.8518 27.0243 68.9951 27.3456 67.9479 27.3456C67.222 27.3575 66.4961 27.179 65.8417 26.8577Z" fill="black"/>
<path d="M24.8708 24.1445L22.3004 20.4794C19.742 16.8143 25.2278 14.4344 25.2278 14.4344L24.8232 14.0298C24.8232 14.0298 15.8984 15.8742 19.6349 21.2172L22.1814 25.0489C23.1334 26.4888 21.7054 27.3099 20.8249 27.3099H19.2184V28H20.4679C22.586 28 27.1555 27.536 24.8708 24.1445Z" fill="#007CC4"/>
<path d="M54.8812 10.5669C54.8812 10.5669 53.6912 11.269 51.5136 14.4581C51.1685 14.9579 50.9424 14.9103 50.9424 14.9103C50.9424 14.9103 51.0495 15.6719 52.1681 15.4458C52.1681 15.4458 53.7626 11.6736 55.4167 10.9239L54.8812 10.5669Z" fill="#798D0C"/>
<path d="M53.3223 12.5066C53.3223 12.5066 54.06 2.20145 62.4136 2.47514C69.3274 2.68933 71.5526 0 71.5526 0C71.5526 0 71.624 14.6366 53.3223 12.5066Z" fill="#93C01F"/>
<path d="M54.334 11.5071C54.334 11.5071 57.7849 6.28311 61.8665 5.87852C66.0195 5.46203 68.5541 3.41528 68.5541 3.41528C68.5541 3.41528 66.0314 6.49731 61.6166 6.94949C57.8087 7.33029 54.334 11.5071 54.334 11.5071Z" fill="#798D0C"/>
</g>
<defs>
<clipPath id="clip0">
<rect width="71.5529" height="28" fill="white"/>
</clipPath>
</defs>
</svg>
