<svg width="124" height="24" viewBox="0 0 124 24" fill="none" xmlns="http://www.w3.org/2000/svg">
<path fill-rule="evenodd" clip-rule="evenodd" d="M123.284 18.1905C123.284 17.938 123.069 17.846 122.849 17.846H122.437V19.0208H122.648V18.5295H122.799L123.073 19.0206H123.33L123.014 18.5062C123.179 18.4695 123.284 18.3594 123.284 18.1898L123.284 18.1905ZM122.648 18.3599V18.0251H122.84C122.95 18.0251 123.074 18.0571 123.074 18.1855C123.074 18.3276 122.936 18.3596 122.817 18.3596H122.648L122.648 18.3599ZM122.844 17.3964C122.267 17.3964 121.8 17.8599 121.8 18.438C121.8 19.0161 122.267 19.4705 122.844 19.4705C123.421 19.4705 123.889 19.0164 123.889 18.438C123.889 17.8596 123.421 17.3964 122.844 17.3964ZM122.844 19.3187C122.359 19.3187 121.965 18.9196 121.965 18.438C121.965 17.9516 122.359 17.5571 122.844 17.5571C123.33 17.5571 123.724 17.9516 123.724 18.438C123.724 18.9196 123.33 19.3189 122.844 19.3189V19.3187ZM55.6689 17.5724C54.1417 17.5724 53.3716 16.2053 53.3716 14.8829C53.3716 13.5611 54.2072 12.2519 55.5956 12.2519C56.2461 12.2519 57.0681 12.5789 57.391 13.0385L59.008 11.4244C58.2254 10.598 56.9777 10.1048 55.5956 10.1048C52.7838 10.1048 50.7427 12.1267 50.7427 14.9124C50.7427 17.7429 52.761 19.7201 55.651 19.7201C57.0258 19.7201 58.2966 19.3168 59.05 18.5053L57.4772 16.8142C57.1139 17.2575 56.3523 17.5726 55.6689 17.5726V17.5724ZM46.6258 19.4634H49.1347V10.3608H46.6258V19.4634ZM42.0639 15.3514C42.0639 16.4211 41.368 17.5726 40.0709 17.5726C39.071 17.5726 38.5374 16.858 38.5374 15.3881V10.3608H36.0278V16.0102C36.0278 17.8902 36.9641 19.7199 39.4676 19.7199C40.6482 19.7199 41.6372 18.7886 42.1355 18.1011H42.1731V19.4634H44.5721V10.3608H42.0632V15.3514H42.0639ZM31.5023 11.5166H31.4466C31.092 11.1236 30.1322 10.1048 28.573 10.1048C26.015 10.1048 24.0439 12.1109 24.0439 14.8756C24.0439 17.6827 25.8628 19.7199 28.4528 19.7199C29.6286 19.7199 30.7331 19.0954 31.3736 18.3693H31.4107V23.9458H33.9196V10.3608H31.5023V11.5166ZM29.0664 17.5724C27.515 17.5724 26.6334 16.2156 26.6334 14.8759C26.6334 13.5942 27.4429 12.2152 29.0664 12.2152C30.5596 12.2152 31.4837 13.6152 31.4837 14.9121C31.4837 16.2196 30.5795 17.5724 29.0666 17.5724H29.0664ZM86.2121 10.1046C83.3573 10.1046 81.2855 12.1109 81.2855 14.8756C81.2855 17.7364 83.4033 19.7444 86.2119 19.7444C89.0202 19.7444 91.1383 17.7171 91.1383 14.8756C91.1383 12.1109 89.0665 10.1046 86.2119 10.1046H86.2121ZM86.2121 17.5724C84.5759 17.5724 83.8307 16.1747 83.8307 14.8759C83.8307 13.5942 84.5759 12.2152 86.2121 12.2152C87.8481 12.2152 88.593 13.594 88.593 14.8756C88.593 16.1745 87.8481 17.5721 86.2116 17.5721L86.2121 17.5724ZM117.577 13.8608C116.286 13.5519 115.831 13.3855 115.831 12.862C115.831 12.1396 116.745 11.9811 117.158 11.9811C117.937 11.9811 118.816 12.4469 119.147 12.8893L120.626 11.4672C119.942 10.606 118.597 10.1048 117.176 10.1048C115.361 10.1048 113.454 11.0194 113.454 13.0634C113.454 14.8187 114.827 15.3481 116.171 15.6705C117.587 16.0011 118.092 16.2422 118.092 16.814C118.092 17.6564 117.138 17.794 116.81 17.794C115.989 17.794 115.038 17.3234 114.525 16.7131L113.002 18.2601C113.833 19.1848 115.257 19.7408 116.718 19.7408C119.171 19.7408 120.626 18.5695 120.626 16.6366C120.626 14.7872 118.845 14.1653 117.577 13.8611L117.577 13.8608ZM112.834 10.3606H109.599L106.36 14.1378H106.304V5.34435H103.795V19.4632H106.304V14.9738H106.36L109.72 19.4632H113.022L109.116 14.4886L112.834 10.3606ZM75.632 10.1041C74.4845 10.1041 73.6393 10.6067 72.841 11.3559H72.794V5.34412H70.2859V19.4632H72.6846V18.1766H72.7222C73.2877 19.106 74.4117 19.7196 75.5772 19.7196C78.1669 19.7196 80.1302 17.682 80.1302 14.8754C80.1302 12.1107 78.1904 10.1044 75.6322 10.1044L75.632 10.1041ZM75.1388 17.5724C73.6254 17.5724 72.721 16.2194 72.721 14.9119C72.721 13.6149 73.6454 12.2149 75.1388 12.2149C76.762 12.2149 77.5695 13.5938 77.5695 14.8754C77.5695 16.2154 76.6899 17.5719 75.1388 17.5719V17.5724ZM69.3418 10.3606H66.106L62.867 14.1378H62.8111V5.34435H60.3024V19.4632H62.8111V14.9738H62.867L66.2277 19.4632H69.5289L65.6234 14.4886L69.3418 10.3606ZM97.2361 10.1041C94.3813 10.1041 92.3095 12.1107 92.3095 14.8754C92.3095 17.7361 94.4274 19.7441 97.2359 19.7441C100.044 19.7441 102.162 17.7168 102.162 14.8754C102.162 12.1107 100.09 10.1044 97.2357 10.1044L97.2361 10.1041ZM97.2361 17.5724C95.5999 17.5724 94.8548 16.1742 94.8548 14.8754C94.8548 13.594 95.5999 12.2149 97.2361 12.2149C98.8719 12.2149 99.617 13.5938 99.617 14.8754C99.617 16.1742 98.8719 17.5719 97.2357 17.5719L97.2361 17.5724Z" fill="black"/>
<path d="M10.6551 21.2296C16.4917 21.2296 21.2233 16.4891 21.2233 10.6413C21.2233 4.79362 16.4917 0.0531006 10.6551 0.0531006C4.81845 0.0531006 0.0869141 4.79362 0.0869141 10.6413C0.0869141 16.4891 4.81845 21.2296 10.6551 21.2296Z" fill="#2CA01C"/>
<path fill-rule="evenodd" clip-rule="evenodd" d="M3.02148 10.6409C3.02148 12.915 4.86152 14.7586 7.13134 14.7586H7.71846V13.2291H7.13134C5.70674 13.2291 4.548 12.0682 4.548 10.6409C4.548 9.21385 5.70674 8.05268 7.13134 8.05268H8.54207V16.0527C8.54207 16.8974 9.22548 17.5821 10.0686 17.5821V6.52326H7.13134C4.86152 6.52326 3.02148 8.36703 3.02148 10.6409ZM14.1791 6.52397H13.592V8.05338H14.1791C15.6033 8.05338 16.7625 9.21456 16.7625 10.6416C16.7625 12.0687 15.6033 13.2299 14.1791 13.2299H12.7677V5.22985C12.7677 4.38515 12.0843 3.70044 11.2412 3.70044V14.7593H14.1791C16.4487 14.7593 18.289 12.9157 18.289 10.6416C18.289 8.3675 16.4487 6.52397 14.1791 6.52397Z" fill="white"/>
<path fill-rule="evenodd" clip-rule="evenodd" d="M34.3906 2.46424C34.7762 2.46424 35.0888 2.15082 35.0888 1.76471C35.0888 1.37835 34.7765 1.06494 34.3906 1.06494C34.005 1.06494 33.6922 1.37835 33.6922 1.76471C33.6922 2.15059 34.005 2.46424 34.3906 2.46424ZM30.2235 2.93553C29.54 2.93553 28.991 3.35059 28.789 3.81365H28.7695V3.07082H27.6721V7.70235H28.8275V5.15506C28.8275 4.53765 29.1742 3.90094 29.9055 3.90094C30.6476 3.90094 30.7728 4.58565 30.7728 5.13577V7.70235H31.9282V4.80777C31.9282 3.86188 31.4275 2.93577 30.2232 2.93577L30.2235 2.93553ZM25.332 7.70212H26.4875V3.07059H25.332V7.70212ZM46.347 2.46447C46.7328 2.46447 47.0454 2.15082 47.0454 1.76471C47.0454 1.37835 46.7331 1.06494 46.3472 1.06494C45.9621 1.06494 45.6493 1.37835 45.6493 1.76471C45.6493 2.15059 45.9616 2.46424 46.3475 2.46424L46.347 2.46447ZM44.4736 3.068V4.09388H45.7695V7.70188H46.9254V4.09412H48.2211V3.06824H44.4736V3.068ZM42.5084 7.70188H43.6638V3.07059H42.5084V7.70212V7.70188ZM32.517 4.09412H33.8126V7.70212H34.9681V4.09412H36.2638V3.06824H32.5168V4.09412H32.517ZM40.1695 5.61812C40.1695 6.23553 39.8227 6.87224 39.0911 6.87224C38.3495 6.87224 38.2245 6.18753 38.2245 5.63694V3.07082H37.0686V5.96541C37.0686 6.91129 37.5693 7.83741 38.7736 7.83741C39.457 7.83741 40.0061 7.42259 40.208 6.95929H40.2275V7.70235H41.3255V3.07059H40.17V5.61812H40.1695Z" fill="black"/>
</svg>
