<svg xmlns="http://www.w3.org/2000/svg" width="512" height="512" viewBox="0 0 512 512"><path fill-rule="evenodd" d="M73.864 377.626c31.896 0 57.844-25.954 57.844-57.85 0-9.486-2.334-18.42-6.402-26.326l46.37-48.852c7.228 3.25 15.203 5.098 23.62 5.098 8.411 0 16.393-1.849 23.608-5.092l46.37 48.846c-4.074 7.905-6.402 16.84-6.402 26.326 0 31.896 25.954 57.85 57.857 57.85 31.89 0 57.838-25.954 57.838-57.85 0-9.486-2.334-18.42-6.396-26.326l46.37-48.852c7.222 3.25 15.204 5.098 23.62 5.098 31.89 0 57.839-25.955 57.839-57.851C496 159.948 470.052 134 438.162 134c-31.903 0-57.864 25.948-57.864 57.845 0 9.485 2.335 18.42 6.409 26.325l-46.37 48.852c-7.222-3.243-15.204-5.091-23.608-5.091-8.417 0-16.399 1.848-23.633 5.097l-46.364-48.851c4.068-7.906 6.403-16.847 6.403-26.332 0-31.897-25.949-57.845-57.845-57.845-31.903 0-57.857 25.948-57.857 57.845 0 9.485 2.334 18.42 6.402 26.325l-46.364 48.852c-7.22-3.243-15.203-5.091-23.614-5.091C41.955 261.93 16 287.879 16 319.776c0 31.896 25.961 57.85 57.864 57.85zm364.31-205.25c10.733 0 19.463 8.736 19.463 19.469 0 10.738-8.73 19.475-19.462 19.475-10.746 0-19.489-8.737-19.489-19.475 0-10.733 8.743-19.47 19.489-19.47zm-121.432 127.93c10.732 0 19.463 8.73 19.463 19.47 0 10.738-8.73 19.475-19.463 19.475-10.745 0-19.488-8.737-19.488-19.475 0-10.74 8.743-19.47 19.488-19.47zm-121.44-127.93c10.74 0 19.47 8.736 19.47 19.469 0 10.738-8.73 19.475-19.47 19.475-10.744 0-19.481-8.737-19.481-19.475 0-10.733 8.737-19.47 19.482-19.47zM73.865 300.305c10.738 0 19.469 8.73 19.469 19.47 0 10.738-8.73 19.475-19.47 19.475-10.744 0-19.481-8.737-19.481-19.475 0-10.74 8.743-19.47 19.482-19.47z"/></svg>