<svg xmlns="http://www.w3.org/2000/svg" width="512" height="512" viewBox="0 0 512 512"><path d="M64.495 161.417L238.79 266.231c2.482 1.5 5.25 2.2 8.018 2.2h.095c2.864 0 5.632-.8 8.018-2.2l174.294-104.814c7.732-4.7 10.404-15.102 5.918-23.103-1.527-2.7-3.723-5-6.395-6.5L254.538 34.5a15.589 15.589 0 00-15.367 0L64.972 131.713c-3.818 2.1-6.586 5.7-7.827 10.001-1.24 4.301-.859 8.902 1.241 12.902 1.337 2.8 3.532 5.2 6.11 6.801zm41.712-14.202l140.695-78.41 140.695 78.51-140.695 84.611-140.695-84.71z"/><path d="M64.495 264.93L238.79 369.845c2.482 1.5 5.25 2.2 8.113 2.2h.191c2.768 0 5.536-.8 8.018-2.2l174.103-104.813c7.732-4.701 10.404-15.002 5.918-23.203-1.432-2.6-3.532-4.801-5.918-6.201l-7.827-4.7-35.603-21.404c-3.723-2.3-8.114-2.9-12.313-1.8-4.2 1.1-7.732 3.9-9.927 7.901-2.196 3.9-2.768 8.601-1.718 12.902 1.05 4.4 3.913 8.2 7.636 10.401l18.994 11.502-141.554 85.11-141.65-85.11 18.996-11.402c3.818-2.2 6.586-6 7.636-10.401 1.145-4.4.477-9.001-1.718-12.902-2.196-3.9-5.728-6.7-9.927-7.9-4.2-1.101-8.686-.5-12.314 1.8L64.4 235.726c-3.723 2.2-6.396 5.9-7.54 10.201-1.146 4.3-.574 8.901 1.526 12.802 1.527 2.5 3.627 4.7 6.11 6.2z"/><path d="M429.214 341.94l-43.43-26.103c-7.732-4.7-17.659-2-22.24 6.101-2.196 3.9-2.768 8.401-1.623 12.802 1.05 4.4 3.913 8.2 7.636 10.401l18.995 11.502-141.65 85.21-141.65-85.11 18.996-11.402c3.722-2.2 6.395-5.8 7.636-10.201 1.145-4.3.572-8.901-1.528-12.802l-.095-.3c-4.582-8.1-14.509-10.801-22.24-6.1L64.495 342.04c-7.731 4.7-10.404 15.002-5.918 23.203 1.432 2.6 3.532 4.8 6.014 6.2l174.293 104.914c2.482 1.5 5.25 2.2 8.114 2.2 2.768 0 5.631-.7 8.113-2.2L429.31 371.545c5.06-3 8.114-8.701 8.114-14.702 0-6.201-3.15-11.802-8.209-14.902z"/></svg>