<svg xmlns="http://www.w3.org/2000/svg" width="512" height="512" viewBox="0 0 512 512"><path fill-rule="evenodd" d="M81.395 166.365c4.395-3.393 10.089-4.459 15.383-2.811l150.629 46.91c3.196 1.067 9.988 1.067 13.285.098l149.93-44.003c5.293-1.551 10.987-.485 15.282 3.101 4.195 3.49 6.293 8.723 5.593 14.054-11.986 95.76-48.644 221.955-154.224 280.497l.2.193-5.694 2.714c-5.494 2.617-11.687 3.974-17.88 3.877h-.599c-5.094 0-10.188-.872-14.883-2.714l-.5.485-2.996-1.939-4.994-2.326.2-.194C123.546 405.087 87.188 277.44 75.501 180.42c-.6-5.331 1.598-10.565 5.893-14.054zm30.166 35.086c13.285 82.773 47.946 188.322 137.044 236.396l1.399.679.4.194c1.398.678 5.393.581 6.492.097l.4-.194c.1 0 .3-.097.499-.194l2.197-1.163c39.955-21.905 72.418-57.379 96.39-105.453 17.98-35.959 31.065-78.896 39.156-127.551l-125.357 36.734c-9.59 2.81-23.074 2.714-32.763-.291zM406.13 42.026c7.691-2.23 16.082-.776 22.574 3.877l.352.271c6.173 4.84 9.633 11.89 9.437 19.501v57.767c0 7.075-4.994 13.375-11.986 15.313l-155.124 41.968c-5.094 1.26-10.488 1.842-15.682 1.842-5.194 0-10.488-.582-15.682-1.842h-.1L84.994 138.755c-7.092-1.841-11.986-8.141-11.986-15.313V65.675c-.2-7.657 3.496-15.023 9.789-19.772l.1-.097c6.492-4.556 14.883-5.913 22.474-3.683l143.237 38.866c4.795.97 9.59.97 14.284 0zm-.4 33.245l-134.147 36.346c-9.09 2.52-22.475 2.52-31.664 0L105.77 75.27v36.055l142.838 38.77c4.795.969 9.59.969 14.284 0l142.837-38.77V75.271z"/></svg>