<svg xmlns="http://www.w3.org/2000/svg" viewBox="0 0 512 512"><path d="M358.7 289H200.2c-9.3 0-16.8 8.2-16.8 18.4 0 10.1 7.5 18.4 16.8 18.4h158.5c9.3 0 16.8-8.2 16.8-18.4 0-10.1-7.5-18.4-16.8-18.4z"/><path d="M97.2 124.6v-5.5h-5.5c-17.2 0-31.2 14-31.2 31.2v282.9c0 17.2 14 31.2 31.2 31.2h282.9c17.2 0 31.2-14 31.2-31.2v-5.5H97.2V124.6zm103 46.9h90.6c9.3 0 16.8-8.2 16.8-18.4 0-10.1-7.5-18.4-16.8-18.4h-90.6c-9.3 0-16.8 8.2-16.8 18.4s7.5 18.4 16.8 18.4z"/><path d="M358.7 211.9H200.2c-9.3 0-16.8 8.2-16.8 18.4s7.5 18.4 16.8 18.4h158.5c9.3 0 16.8-8.2 16.8-18.4s-7.5-18.4-16.8-18.4z"/><path d="M410.3 57.6H153.1c-17.2 0-31.2 14-31.2 31.2v282.9c0 8.3 3.3 16.2 9.1 22.1 5.9 5.9 13.7 9.1 22.1 9.1h257.2c17.2 0 31.2-14 31.2-31.2V88.9c0-17.3-14-31.3-31.2-31.3zm-5.5 44.1v257.1c0 4.1-3.3 7.4-7.4 7.4H166c-4.1 0-7.4-3.3-7.4-7.3V101.7c0-4.1 3.3-7.4 7.4-7.4h231.4c2 0 3.8.8 5.2 2.2 1.4 1.4 2.2 3.2 2.2 5.2z"/></svg>