<svg xmlns="http://www.w3.org/2000/svg" viewBox="0 0 512 512"><path fill-rule="evenodd" d="M256 471l-31-2a214 214 0 01-56-16 216 216 0 01-103-96 214 214 0 01-21-58c-4-23-5-47-2-70a214 214 0 0118-64A216 216 0 01171 58a214 214 0 0142-13 216 216 0 0140-4c14 0 28 1 41 3a214 214 0 0142 12 216 216 0 01113 104 214 214 0 0120 63 217 217 0 01-1 70 214 214 0 01-19 59 216 216 0 01-102 99 214 214 0 01-57 17l-30 3a328 328 0 01-4 0zm0-29c9 0 18 0 27-2a185 185 0 0049-14 187 187 0 0089-83 185 185 0 0018-49c4-21 4-42 2-63a185 185 0 00-16-54 187 187 0 00-296-57c-16 15-30 33-40 53a185 185 0 00-17 55 188 188 0 001 61 185 185 0 0017 51 187 187 0 0086 84 185 185 0 0048 16 192 192 0 0032 2zm53-133a62 62 0 018 24 63 63 0 010 19 62 62 0 01-5 17c-6 13-16 23-29 29a62 62 0 01-17 5l-8 1h-2l-9-1a62 62 0 01-17-4c-12-6-23-16-29-29a62 62 0 01-6-16 63 63 0 01-1-20 62 62 0 016-18 62 62 0 0113-18 62 62 0 0119-13 62 62 0 0123-5 62 62 0 0124 4 62 62 0 019 5l63-62 1-1a14 14 0 014-3 14 14 0 016 0l5 1a14 14 0 013 2 14 14 0 015 11 14 14 0 01-2 8l-1 2-63 62zm-53 66c5 0 9-1 14-3a34 34 0 0015-14 33 33 0 004-8 34 34 0 000-12 33 33 0 00-3-10 34 34 0 00-6-10 34 34 0 00-11-7 33 33 0 00-13-2 34 34 0 00-13 2 34 34 0 00-17 17 33 33 0 00-3 9v11a33 33 0 003 9 34 34 0 0015 15c5 2 9 3 14 3h1zm127-162h-1a14 14 0 01-3 0 14 14 0 01-8-6l-1-3-1-1a192 192 0 00-2-3l-8-13a130 130 0 00-24-23 129 129 0 00-36-20c-19-7-40-9-60-6a128 128 0 00-28 7c-15 5-29 14-41 25a130 130 0 00-21 23l-7 12-1 1-1 2a14 14 0 01-4 3 14 14 0 01-8 2 14 14 0 01-11-6 14 14 0 01-2-5 14 14 0 011-8l1-2a238 238 0 0111-18 159 159 0 0125-28 158 158 0 01124-37 157 157 0 0137 10 158 158 0 0144 26 159 159 0 0127 30l10 16v1l1 2a14 14 0 011 7 14 14 0 01-7 10l-4 2h-3z"/></svg>