<svg xmlns="http://www.w3.org/2000/svg" width="512" height="512" viewBox="0 0 512 512"><path fill-rule="evenodd" d="M226.235 268.812c8.597 0 15.554 7.034 15.554 15.662v170.864c0 8.657-6.957 15.662-15.554 15.662H56.555C47.956 471 41 463.995 41 455.338V284.474c0-8.628 6.957-15.662 15.554-15.662zm229.21 0c8.598 0 15.555 7.034 15.555 15.662v170.864c0 8.657-6.957 15.662-15.554 15.662H285.765c-8.569 0-15.554-7.005-15.554-15.662V284.474c0-8.628 6.985-15.662 15.554-15.662zm-244.764 31.353H72.108v139.51h138.573v-139.51zm229.21 0H301.32v139.51h138.573v-139.51zM226.236 41c8.597 0 15.554 7.034 15.554 15.662v170.864c0 8.657-6.957 15.662-15.554 15.662H56.555c-8.598 0-15.555-7.005-15.555-15.662V56.662C41 48.034 47.957 41 56.554 41zm229.21 0C464.044 41 471 48.034 471 56.662v170.864c0 8.657-6.957 15.662-15.554 15.662H285.765c-8.569 0-15.554-7.005-15.554-15.662V56.662c0-8.628 6.985-15.662 15.554-15.662zM210.682 72.353H72.108v139.51h138.573V72.353zm229.21 0H301.32v139.51h138.573V72.353z"/></svg>