<svg xmlns="http://www.w3.org/2000/svg" viewBox="0 0 512 512"><path fill-rule="evenodd" d="M343 325v4c-5 29-49 75-86 106l-1 2-2-2c-11-9-32-28-51-50-20-22-32-42-34-56l-1-108h175v104zM170 185c4-16 13-30 26-41l4-4 6-4c29-19 70-19 100 1l4 2 5 5c13 11 22 25 26 41l1 3H170v-3zm296 186c7-6 7-15 0-20l-20-19a97 97 0 00-59-23h-12v-29h12c11 0 28 7 36 14l20 19a17 17 0 0023-1c6-6 6-15 0-20l-20-19a98 98 0 00-59-22h-12v-29h12c11 0 28 6 36 14l20 18c6 5 17 5 23 0 3-3 5-7 5-11 0-3-2-7-5-10l-20-18a97 97 0 00-59-23h-12l-1-2c-2-23-12-43-29-60l-2-2 8-7c14-13 24-33 24-47V56c0-8-7-15-16-15s-16 7-16 15v18c0 5-6 18-15 26l-10 9-1-1c-37-20-85-20-123 0l-1 1-10-9c-9-8-15-21-15-26V56c0-4-1-8-4-11-6-5-17-5-23 0-3 3-5 7-5 11v18c0 14 10 34 24 47l8 7-2 2c-16 16-26 37-29 60v2h-12c-20 0-46 10-59 23l-20 18a14 14 0 000 21c6 5 16 5 22 0l20-19c8-7 25-14 37-14h11v30h-11c-20 0-45 9-59 22l-20 19c-3 2-5 6-5 10s2 8 5 11c6 5 16 5 22 0l20-19c8-7 25-14 37-14h12v29h-12c-20 0-45 10-59 23l-20 18a14 14 0 000 21c6 6 16 6 22 0l20-18c8-8 25-14 37-14h14v2c7 22 25 49 54 79 11 11 28 28 52 47l1 1c6 4 15 4 20 0 10-8 92-73 107-127l1-2h13c12 0 29 7 37 14l20 18c6 6 16 6 22 0z"/></svg>