<svg xmlns="http://www.w3.org/2000/svg" width="512" height="512" viewBox="0 0 512 512"><path fill-rule="evenodd" d="M303.417 46c7.927 0 15.784 2.478 22.032 6.966l63.672 56.332c6.575 5.85 10.725 13.754 11.634 22.171l.21 158.146h41.36c10.305 0 18.675 8.037 18.675 17.884v135.64c0 9.845-8.37 17.861-18.675 17.861H64.605C54.347 461 46 452.984 46 443.138v-135.64c0-9.846 8.347-17.883 18.605-17.883h42.013V81.434c0-18.354 14.362-33.536 33.34-35.278zM113.962 320.337H78.011V430.3h350.885V320.337H395.02l-69.99 44.7c-5.643 3.617-12.241 5.537-19.072 5.537h-103.54c-6.878 0-13.5-1.943-19.188-5.627l-68.685-44.23-.583-.38zM289.847 76.7H143.618c-2.005 0-3.8 1.139-4.686 3.305l-.28 219.255 62.46 40.234.606.357h104.94l62.203-39.72V166.21l-41.967.022c-19.164 0-34.995-13.776-36.813-31.95l-.234-57.583zm29.372 179.438c8.854 0 16.05 6.893 16.05 15.375 0 7.654-5.957 14.234-13.737 15.241l-133.728.157c-8.877 0-16.073-6.916-16.073-15.398 0-7.654 5.957-14.211 13.69-15.241l2.383-.134zm0-62.426c8.854 0 16.05 6.915 16.05 15.375 0 7.654-5.957 14.212-13.737 15.264l-133.728.134c-8.877 0-16.073-6.915-16.073-15.398 0-7.654 5.957-14.211 13.69-15.24l2.383-.135zm2.71-102.298l.046 39.363c0 1.943 1.189 3.662 3.427 4.51l1.492.246 44.648-.045-49.614-44.074z"/></svg>