<svg xmlns="http://www.w3.org/2000/svg" width="512" height="512" viewBox="0 0 512 512"><path fill-rule="evenodd" d="M256 41c118.744 0 215 96.256 215 215s-96.256 215-215 215S41 374.744 41 256 137.256 41 256 41zm0 31.99a181.94 181.94 0 00-129.376 53.634 183.105 183.105 0 00-53.633 129.47C73.085 357.15 155.04 439.01 256.094 439.01s183.103-82.048 183.009-183.103C439.009 154.85 357.055 72.99 256 72.99zm33.214 39.99c1.882 0 3.858.283 5.74.847 9.315 3.011 14.49 12.89 11.573 22.206L283.57 211.87h41.965c3.67 0 7.15 1.129 10.068 3.199 7.998 5.551 9.973 16.654 4.422 24.652l-.094.188-110.652 152.523a17.763 17.763 0 01-14.49 7.528c-2.07 0-4.14-.283-6.116-1.035-4.423-1.694-7.998-4.893-9.974-9.221-1.976-4.235-2.164-8.94-.659-13.361l25.123-75.18H181.95c-3.764 0-7.245-1.129-10.162-3.199-3.952-2.729-6.493-6.775-7.34-11.48-.846-4.704.189-9.408 2.917-13.266l108.018-152.994c3.105-4.14 7.904-6.774 13.079-7.245zm-15.619 50.528l-80.542 114.039h62.57l-23.616 70.851 82.142-113.004H251.86l21.735-71.886z"/></svg>