<svg xmlns="http://www.w3.org/2000/svg" width="512" height="512" viewBox="0 0 512 512"><path d="M396 46H116c-38.66 0-70 31.34-70 70v280c0 38.66 31.34 70 70 70h280c38.66 0 70-31.34 70-70V116c0-38.66-31.34-70-70-70zm37.336 350a36.882 36.882 0 01-10.798 26.538A36.882 36.882 0 01396 433.336H116a36.882 36.882 0 01-26.538-10.798A36.882 36.882 0 0178.664 396V116a36.882 36.882 0 0110.798-26.538A36.882 36.882 0 01116 78.664h280a36.882 36.882 0 0126.538 10.798A36.882 36.882 0 01433.336 116v280zm-60.67-161.233V356.8c0 9.02-7.312 16.333-16.333 16.333-9.02 0-16.333-7.312-16.333-16.333V234.767c0-9.021 7.313-16.334 16.333-16.334 9.021 0 16.334 7.313 16.334 16.334zM272.334 155.2v201.6c0 9.02-7.312 16.333-16.333 16.333-9.02 0-16.333-7.312-16.333-16.333V155.2c0-9.02 7.312-16.333 16.333-16.333 9.02 0 16.333 7.312 16.333 16.333zm-100.8 116.667V356.8c0 9.02-7.312 16.333-16.333 16.333-9.02 0-16.333-7.312-16.333-16.333v-84.933c0-9.021 7.312-16.334 16.333-16.334 9.02 0 16.333 7.313 16.333 16.334z"/></svg>