<svg xmlns="http://www.w3.org/2000/svg" viewBox="0 0 512 512"><path d="M256 164a92 92 0 100 184 92 92 0 000-184zm0 154a62 62 0 110-124 62 62 0 010 124zm203-10l-31-26a179 179 0 000-52l32-26a15 15 0 003-20l-41-71a15 15 0 00-19-7l-39 15a172 172 0 00-46-27l-6-41a15 15 0 00-15-12h-82a15 15 0 00-15 12l-7 41a165 165 0 00-45 27l-39-16a15 15 0 00-19 7l-41 72a15 15 0 004 20l31 26a164 164 0 000 52l-31 26a15 15 0 00-4 20l41 71a15 15 0 0019 7l40-15a165 165 0 0045 27l7 41a15 15 0 0015 12h82a15 15 0 0015-12l7-41a177 177 0 0044-27l38 15a15 15 0 0019-7l41-71a15 15 0 00-3-20zm-57 65l-35-13a15 15 0 00-16 3 145 145 0 01-50 29 15 15 0 00-10 12l-6 37h-58l-6-37a15 15 0 00-10-12 145 145 0 01-50-28 15 15 0 00-16-4l-35 14-28-50 28-23a15 15 0 005-15 144 144 0 010-59 15 15 0 00-5-14l-28-25 28-49 35 13a15 15 0 0016-3 145 145 0 0150-29 15 15 0 0010-12l6-37h58l6 37a15 15 0 0010 12 151 151 0 0150 29 15 15 0 0016 3l35-14 28 50-28 25a15 15 0 00-6 15 134 134 0 013 28 151 151 0 01-2 29 14 14 0 005 15l28 24-28 49z"/></svg>