<svg xmlns="http://www.w3.org/2000/svg" width="512" height="512" viewBox="0 0 512 512"><path fill-rule="evenodd" d="M386.68 386.68c-16.965 16.964-36.701 30.319-58.705 39.64-22.844 9.575-47.031 14.445-71.975 14.445-24.356 0-47.955-4.619-70.211-13.857l72.814-113.882c29.395-1.345 53.078-25.028 54.423-54.423l113.882-72.814c9.238 22.256 13.857 45.855 13.857 70.21 0 24.945-4.87 49.132-14.528 71.891-9.323 22.004-22.593 41.74-39.558 58.79m-261.359 0a186.189 186.189 0 01-26.455-33.342l107.668-68.867a57.667 57.667 0 0021.08 21.08l-68.866 107.668c-12.095-7.558-23.265-16.377-33.427-26.54M71.234 256c0-24.943 4.871-49.13 14.53-71.89 9.322-22.003 22.592-41.74 39.64-58.705 17.049-16.965 36.702-30.318 58.705-39.64 22.76-9.659 46.947-14.53 71.89-14.53 24.356 0 47.956 4.62 70.212 13.857l-72.815 113.884c-29.394 1.344-53.077 25.027-54.422 54.421L85.091 326.211C75.853 303.955 71.234 280.355 71.234 256m215 0c0 16.697-13.537 30.234-30.234 30.234-16.698 0-30.235-13.537-30.235-30.234 0-16.698 13.537-30.235 30.235-30.235 16.697 0 30.234 13.537 30.234 30.235m100.445-130.68a186.12 186.12 0 0126.455 33.342L305.467 227.53a57.666 57.666 0 00-21.08-21.081L353.253 98.78c12.094 7.559 23.263 16.377 33.425 26.539M256 41C137.247 41 41 137.246 41 256s96.247 215 215 215c118.755 0 215-96.246 215-215S374.755 41 256 41m0 99.101c8.316 0 15.118-6.803 15.118-15.117s-6.802-15.117-15.117-15.117c-39.053 0-75.754 15.201-103.301 42.832-5.879 5.879-5.879 15.453 0 21.416 2.94 2.94 6.803 4.451 10.667 4.451 3.862 0 7.725-1.512 10.665-4.451C195.95 152.195 225.009 140.1 256 140.1m81.968 197.867c-21.92 21.836-50.977 33.93-81.968 33.93-8.315 0-15.118 6.803-15.118 15.117 0 8.316 6.803 15.117 15.118 15.117 39.052 0 75.754-15.2 103.3-42.832 5.88-5.878 5.88-15.453 0-21.416-5.878-5.962-15.453-5.794-21.332.084"/></svg>