<svg xmlns="http://www.w3.org/2000/svg" width="18" height="18" fill="none" viewBox="0 0 18 18"><path fill="#12344D" stroke="#12344D" stroke-width=".25" d="M16.004 14.986a.622.622 0 01-.623.622h-2.515a5.262 5.262 0 00-3.049.96l-.462.32a.604.604 0 01-.711 0l-.462-.32a5.28 5.28 0 00-3.05-.96H2.618a.622.622 0 010-1.244h2.516a6.55 6.55 0 013.76 1.182l.106.08.098-.071a6.515 6.515 0 013.769-1.218h2.516a.622.622 0 01.622.65zm.995-13.36v10.791a.622.622 0 01-.622.622h-4.009a5.396 5.396 0 00-3.022.89h-.133a.533.533 0 01-.427 0h-.133a5.396 5.396 0 00-3.022-.89H1.62a.622.622 0 01-.62-.622V1.627c0-.344.278-.623.622-.623H5.63a6.667 6.667 0 013.368.889 6.667 6.667 0 013.37-.889h4.008c.344 0 .622.279.622.622zM5.631 11.795a6.64 6.64 0 012.746.596V3.004a5.431 5.431 0 00-2.746-.756H2.244v9.547H5.63zm10.124-9.547h-3.387a5.431 5.431 0 00-2.746.756v9.387a6.64 6.64 0 012.746-.596h3.387V2.248z"/></svg>