<svg xmlns="http://www.w3.org/2000/svg" viewBox="0 0 512 512"><path d="M123.6 286.6c2.9 1.7 6.1 2.5 9.3 2.5 1.6 0 3.2-.2 4.8-.6 4.7-1.2 8.6-4.2 11.1-8.3l57-68.1 59.1 42.1c1.7 2 3.7 3.7 6 4.9.5.8 1.3 2.1 2.9 3 8.6 4.9 19.7 2.2 25-6.1l95.6-87.3.4-.7c2.5-4.3 3.1-9.3 1.9-14.2-1.3-4.8-4.4-8.8-8.7-11.3-4.3-2.5-9.3-3.1-14.2-1.8-4.5 1.2-8.4 4-10.9 8l-80.8 73.8-62.5-44.5c-4.6-6-12.7-8.9-20.9-7.3-1.5.2-2.9.6-4.2 1.1-.2 0-.4.1-.7.2l-1.3.4-.6.7c-1.1.7-2.2 1.5-3.2 2.4-1 .9-1.8 1.8-2.6 2.9-.2.2-.3.4-.5.6l-68.2 81.4-.3.3-.2.4c-2.5 4.3-3.2 9.3-1.9 14.2 1.2 4.8 4.3 8.8 8.6 11.3z"/><path d="M474.9 53.3c-3.5-3.6-8.2-5.5-13.3-5.5H48.5c-10.4 0-18.8 8.4-18.8 18.8s8.4 18.8 18.8 18.8h10.8V347c0 18.4 15 33.4 33.4 33.4h106l-33.4 61.5c-2.6 4-3.4 8.7-2.2 13.2 1.3 4.9 4.9 9.2 9.9 11.6 9.5 4.8 21.8 1.9 27.5-6.5l.1-.2 41-75.5c.8-1.3 1.5-2.7 1.9-4.2h23.2c.4 1.5 1.1 2.9 1.9 4.2l40.8 75.3.2.3c3.7 5.6 10.5 8.8 17.5 8.8 3.4 0 6.8-.7 9.9-2.3 5-2.5 8.6-6.7 9.9-11.6 1.2-4.5.4-9.2-2.2-13.1l-33.4-61.5h106c8.9 0 17.3-3.5 23.6-9.8 6.3-6.3 9.8-14.7 9.8-23.7V85.4h10.8c5 0 9.7-1.9 13.3-5.5 3.6-3.5 5.5-8.2 5.5-13.3.1-5-1.9-9.7-5.4-13.3zm-61.5 278.9c0 5.9-4.8 10.8-10.8 10.8H107.5c-5.9 0-10.8-4.8-10.8-10.8V85.4h316.7v246.8z"/></svg>