<svg xmlns="http://www.w3.org/2000/svg" width="512" height="512" viewBox="0 0 512 512"><path fill-rule="evenodd" d="M418.83 116c28.813 0 52.17 24.291 52.17 54.256V207.7l-13.907 7.968c-14.698 8.421-23.718 23.578-23.718 40.081 0 16.503 9.02 31.66 23.718 40.081L471 303.8v37.445c0 29.965-23.357 54.256-52.17 54.256H93.17C64.356 395.5 41 371.209 41 341.244V303.8l13.907-7.968c14.698-8.421 23.718-23.578 23.718-40.081 0-16.503-9.02-31.66-23.718-40.081L41 207.7v-37.445C41 140.29 64.357 116 93.17 116h325.66zm0 27.95H93.17c-13.97 0-25.295 11.778-25.295 26.306v20.932c22.492 12.887 37.625 36.974 37.625 64.562s-15.133 51.675-37.625 64.562v20.932c0 14.528 11.325 26.306 25.294 26.306h325.662c13.97 0 25.294-11.778 25.294-26.306v-20.932c-22.492-12.887-37.625-36.974-37.625-64.562s15.133-51.675 37.625-64.562v-20.932c0-14.528-11.325-26.306-25.294-26.306zm-94.062 38.997c28.813 0 52.17 24.29 52.17 54.255v36.829c0 29.964-23.357 54.256-52.17 54.256H187.232c-28.813 0-52.17-24.292-52.17-54.256v-36.829c0-29.964 23.357-54.255 52.17-54.255h137.536zm0 27.95H187.232c-13.97 0-25.294 11.777-25.294 26.305v36.829c0 14.528 11.324 26.306 25.294 26.306h137.536c13.97 0 25.295-11.778 25.295-26.306v-36.829c0-14.528-11.325-26.305-25.295-26.305z"/></svg>