<svg width="337" height="196" viewBox="0 0 337 196" fill="none" xmlns="http://www.w3.org/2000/svg">
<g clip-path="url(#clip0_6545_185109)">
<path d="M309.598 178.735H22.6921C19.7702 171.973 19.5952 164.24 23.4912 156.538C30.7601 142.168 46.692 132.603 62.6122 132.017C70.2175 131.736 78.0619 133.309 85.3153 131.002C91.7775 128.942 96.9293 124.033 101.28 118.822C116.726 100.336 126.699 79.2579 150.301 69.6135C161.271 65.1352 176.975 64.0536 185.425 74.0138C191.035 80.6337 191.626 90.3503 196.844 97.286C204.356 107.271 217.109 109.965 228.924 110.257C235.45 110.423 241.982 109.875 248.468 109.189C255.06 108.493 262.568 106.43 269.118 107.104C287.235 108.973 278.113 137.193 290.689 145.82C294.331 148.318 298.761 149.302 302.875 150.891C314.627 155.426 317.263 169.059 309.596 178.731L309.598 178.735Z" fill="#EBF0F2"/>
<path d="M148.506 92.3688C147.851 97.9209 142.606 99.0706 139.264 97.9209C136.645 97.0205 132.763 92.9164 131.2 91.1781C134.233 87.1325 132.951 83.2447 131.4 80.7464C130.974 80.0585 130.527 79.4758 130.144 79.0237C128.284 76.8216 129.289 73.725 129.258 71.1896C129.234 69.1161 131.408 66.8185 132.446 64.2773C134.468 66.0059 139.248 69.5624 144.355 69.6092C144.628 69.6111 144.9 69.6033 145.174 69.5858C145.714 69.5488 146.235 69.4611 146.735 69.3247V81.9546C146.735 81.9546 149.161 86.8168 148.506 92.3688V92.3688Z" fill="white"/>
<path d="M141.735 98.4214C140.883 98.4214 140.03 98.2869 139.235 98.0141C136.598 97.1079 132.689 92.9784 131.13 91.244L131.075 91.1836L131.124 91.1193C134.11 87.136 132.877 83.3087 131.32 80.7986C130.957 80.2121 130.537 79.6352 130.072 79.0876C128.672 77.4292 128.861 75.309 129.044 73.2589C129.108 72.5339 129.17 71.8499 129.162 71.1912C129.147 69.8855 129.979 68.5058 130.858 67.0442C131.4 66.142 131.962 65.2085 132.358 64.2419L132.409 64.1172L132.512 64.2049C134.361 65.7853 139.215 69.4666 144.359 69.5133C144.628 69.5153 144.9 69.5075 145.17 69.4899C145.699 69.4529 146.218 69.3672 146.712 69.2327L146.834 69.1996V81.9348C147.005 82.2914 149.233 87.0503 148.605 92.3821L148.508 92.3704L148.605 92.3821C148.345 94.5862 147.332 96.303 145.674 97.3476C144.552 98.053 143.148 98.4214 141.737 98.4214H141.735ZM131.328 91.1739C132.911 92.9297 136.735 96.9481 139.299 97.8309C141.36 98.5402 143.821 98.2849 145.57 97.1839C147.176 96.1705 148.16 94.5043 148.413 92.3607C149.056 86.9022 146.675 82.0497 146.651 82.001L146.642 81.9796V69.4529C146.171 69.5718 145.683 69.6497 145.184 69.6848C144.908 69.7024 144.63 69.7121 144.357 69.7082C139.241 69.6614 134.423 66.0776 132.487 64.4387C132.09 65.3761 131.548 66.2745 131.025 67.1456C130.16 68.5818 129.343 69.9382 129.357 71.1893C129.365 71.8577 129.302 72.5456 129.238 73.2764C129.059 75.2875 128.873 77.3669 130.22 78.961C130.69 79.5164 131.116 80.101 131.484 80.6954C133.066 83.2443 134.318 87.1243 131.326 91.1719L131.328 91.1739Z" fill="#22313B"/>
<path d="M182.201 101.268L181.721 102.131L170.07 123.04L168.369 126.093L165.811 124.203L164.281 151.008L164.139 153.507C164.139 153.507 112.881 158.603 111.08 152.955C109.28 147.308 111.014 127.97 111.014 127.97L91.8689 128.964L88.9858 129.367C88.9858 129.367 92.0847 107.633 93.016 99.7888C93.8947 92.3913 97.6993 86.4339 103.131 85.6252C102.89 88.2404 105.093 90.2457 107.035 89.2733C108.975 88.2989 109.685 87.9754 109.906 89.5968C110.128 91.2181 109.943 102.098 110.591 107.434C111.897 118.203 118.215 120.38 120.354 120.925C122.494 121.471 130.136 121.245 133.698 114.929C137.258 108.615 135.646 105.46 133.438 102.028C131.231 98.5942 130.554 91.9684 130.554 91.9684C130.79 91.7053 131.004 91.4422 131.2 91.1792C132.763 92.9175 136.645 97.0216 139.264 97.9219C142.606 99.0717 147.851 97.9219 148.506 92.3699C149.161 86.8178 146.735 81.9556 146.735 81.9556V81.868C152.044 81.1411 161.845 85.2237 161.845 85.2237C161.845 85.1263 161.843 85.0269 161.839 84.9275C165.581 87.5954 176.258 95.3651 182.201 101.268V101.268Z" fill="#FFA61F"/>
<path d="M127.249 155.716C117.025 155.716 111.568 154.802 110.989 152.984C109.274 147.605 110.771 129.665 110.909 128.073L91.8747 129.061L88.9994 129.464C88.9683 129.468 88.9391 129.458 88.9177 129.437C88.8963 129.416 88.8866 129.384 88.8905 129.355C88.9216 129.137 91.9991 107.531 92.9206 99.7787C93.8557 91.9056 97.8586 86.3127 103.117 85.5312C103.147 85.5273 103.178 85.5351 103.199 85.5565C103.22 85.578 103.232 85.6072 103.228 85.6364C103.104 86.9908 103.668 88.3082 104.663 88.9922C105.392 89.4931 106.242 89.5652 106.992 89.189C108.298 88.5323 109.004 88.201 109.469 88.4485C109.751 88.5966 109.916 88.9494 110.003 89.5866C110.087 90.1946 110.112 92.0791 110.147 94.4663C110.204 98.5198 110.281 104.074 110.69 107.426C111.201 111.641 113.139 118.988 120.381 120.835C122.595 121.398 130.152 121.03 133.616 114.886C137.075 108.751 135.691 105.711 133.36 102.086C131.167 98.6718 130.469 92.0498 130.461 91.9836C130.459 91.9563 130.467 91.929 130.484 91.9095C130.708 91.6601 130.924 91.3951 131.124 91.1261C131.141 91.1027 131.169 91.0891 131.198 91.0872C131.227 91.0833 131.254 91.0969 131.274 91.1183C132.823 92.841 136.704 96.9432 139.297 97.8338C141.358 98.5431 143.819 98.2878 145.569 97.1868C147.174 96.1734 148.158 94.5072 148.411 92.3636C149.054 86.9051 146.673 82.0527 146.65 82.0039C146.644 81.9903 146.64 81.9747 146.64 81.9611V81.8734C146.64 81.8247 146.675 81.7837 146.723 81.7759C151.658 81.0997 160.542 84.5958 161.747 85.083C161.747 85.0343 161.745 84.9856 161.743 84.9368C161.743 84.8998 161.761 84.8647 161.794 84.8472C161.827 84.8297 161.866 84.8316 161.897 84.853C165.15 87.1721 176.229 95.201 182.271 101.203C182.302 101.234 182.308 101.281 182.287 101.32L181.807 102.183L168.454 126.145C168.441 126.169 168.418 126.186 168.39 126.192C168.363 126.198 168.334 126.192 168.313 126.175L165.898 124.392L164.236 153.516C164.234 153.565 164.197 153.604 164.148 153.608C164.02 153.619 151.181 154.888 138.288 155.449C134.139 155.63 130.457 155.72 127.247 155.72L127.249 155.716ZM111.016 127.872C111.043 127.872 111.069 127.882 111.086 127.901C111.106 127.921 111.115 127.95 111.113 127.977C111.096 128.17 109.401 147.36 111.176 152.924C112.898 158.327 161.712 153.645 164.049 153.417L165.717 124.197C165.719 124.162 165.741 124.129 165.774 124.115C165.807 124.099 165.844 124.103 165.873 124.125L168.342 125.949L182.085 101.285C176.136 95.3939 165.371 87.5677 161.946 85.12C161.946 85.1551 161.946 85.1902 161.946 85.2233C161.946 85.2564 161.93 85.2857 161.903 85.3052C161.876 85.3227 161.841 85.3266 161.812 85.3149C161.714 85.274 152.089 81.3004 146.846 81.9533C147.075 82.4346 149.227 87.1312 148.607 92.3831C148.347 94.5871 147.334 96.304 145.676 97.3485C143.879 98.4808 141.352 98.7419 139.237 98.015C136.643 97.1244 132.819 93.1139 131.211 91.3327C131.037 91.5626 130.852 91.7868 130.661 92.0011C130.725 92.5741 131.449 98.7439 133.525 101.975C135.819 105.539 137.295 108.759 133.787 114.977C131.849 118.415 128.768 119.929 126.526 120.593C124.028 121.334 121.567 121.334 120.336 121.02C117.181 120.215 111.706 117.38 110.501 107.447C110.093 104.085 110.015 98.5256 109.959 94.4683C109.926 92.0869 109.898 90.2083 109.817 89.6119C109.739 89.0487 109.603 88.735 109.385 88.6181C109.004 88.4173 108.298 88.7525 107.085 89.3605C106.271 89.7678 105.349 89.6918 104.56 89.1501C103.537 88.4485 102.944 87.1195 103.032 85.7397C97.9208 86.5777 94.0365 92.0771 93.1189 99.8001C92.2363 107.242 89.3648 127.445 89.1063 129.252L91.8611 128.866L111.014 127.872H111.02H111.016Z" fill="#22313B"/>
<path d="M111.014 127.969H111.467C111.467 127.969 114.377 148.111 121.343 154.016C130.185 161.511 105.925 153.133 105.925 153.133L111.014 127.969Z" fill="#22313B"/>
<path d="M129.015 63.6118C129.015 63.6118 134.176 74.1215 146.735 73.7317C159.294 73.342 144.587 62.5964 144.587 62.5964L130.898 62.0547L129.015 63.6118Z" fill="#DAE3E8"/>
<path d="M167.235 178.627H107.896L108.343 176.439V176.435L109.346 171.516C115.069 170.55 118.248 170.936 125.678 168.901C135.201 166.294 147.637 163.22 156.432 160.894C161.43 159.57 165.25 158.487 166.693 157.867L167.235 178.627Z" fill="#FFA61F"/>
<path d="M167.235 178.724H107.896C107.867 178.724 107.839 178.711 107.82 178.689C107.8 178.668 107.795 178.637 107.8 178.607L108.246 176.427C108.246 176.427 108.246 176.419 108.246 176.415L109.249 171.496C109.257 171.457 109.288 171.426 109.329 171.42C111.364 171.077 113.096 170.902 114.772 170.732C117.906 170.417 120.867 170.117 125.653 168.807C131.378 167.24 138.08 165.523 144.561 163.863C148.85 162.764 152.9 161.727 156.407 160.799C162.12 159.287 165.377 158.326 166.654 157.777C166.683 157.765 166.718 157.767 166.745 157.785C166.773 157.802 166.79 157.831 166.79 157.865L167.333 178.625C167.333 178.65 167.323 178.675 167.305 178.695C167.288 178.714 167.263 178.724 167.235 178.724V178.724ZM108.014 178.529H167.134L166.598 158.011C165.227 158.572 161.992 159.521 156.455 160.987C152.946 161.914 148.897 162.953 144.608 164.05C138.126 165.71 131.425 167.427 125.704 168.994C120.902 170.309 117.935 170.608 114.791 170.925C113.137 171.093 111.428 171.264 109.428 171.6L108.44 176.446C108.44 176.446 108.44 176.454 108.44 176.458L108.016 178.529H108.014Z" fill="#22313B"/>
<path d="M156.666 37.1101C156.228 29.6482 152.155 24.0553 150.579 22.1533C150.878 20.8534 150.839 19.6335 150.796 19.0684C152.066 19.7173 154.84 21.44 155.738 24.4021C156.889 28.2003 156.677 36.7203 156.666 37.1101Z" fill="#22313B"/>
<path d="M156.638 37.1119C156.205 29.7241 152.241 24.2013 150.557 22.1707L150.549 22.161V22.1493C150.847 20.8689 150.816 19.6724 150.769 19.0722L150.765 19.0273L150.806 19.0488C151.992 19.6548 154.848 21.3893 155.761 24.3981C156.938 28.282 156.693 37.0262 156.691 37.1139H156.64L156.638 37.1119ZM150.604 22.1473C152.252 24.139 156.057 29.4416 156.65 36.5526C156.683 34.5551 156.714 27.7169 155.713 24.4118C154.817 21.4555 152.027 19.7367 150.823 19.115C150.866 19.7289 150.891 20.9001 150.604 22.1493V22.1473Z" fill="#22313B"/>
<path d="M156.597 54.5467C156.391 56.0901 155.911 58.0311 155.147 60.0013C153.574 64.0528 150.8 68.2271 146.735 69.3262C146.235 69.4626 145.714 69.5503 145.174 69.5873C144.9 69.6049 144.628 69.6126 144.356 69.6107C139.248 69.5639 134.468 66.0074 132.446 64.2789C132.679 63.7098 132.854 63.1291 132.936 62.5367C132.977 62.2385 132.985 61.9228 132.963 61.5954C132.757 58.3644 129.802 53.9075 129.363 51.606C128.879 49.0687 130.033 45.5999 133.607 40.5994C137.178 35.6008 138.667 35.4897 141.346 33.2876C144.027 31.0874 147.264 27.2445 149.274 24.8943C149.531 24.5942 149.746 24.2707 149.925 23.9335C150.234 23.3606 150.441 22.7487 150.577 22.1543C152.153 24.0563 156.226 29.6493 156.664 37.1111V37.1247C156.693 37.6217 156.706 38.1284 156.701 38.6409C156.597 48.7374 157.278 49.4409 156.597 54.5467Z" fill="white"/>
<path d="M144.435 69.7077C144.408 69.7077 144.383 69.7077 144.355 69.7077C139.147 69.6589 134.248 65.9465 132.384 64.3524L132.329 64.3057L132.356 64.2394C132.607 63.6294 132.765 63.0682 132.841 62.5206C132.879 62.2361 132.889 61.9262 132.868 61.5988C132.747 59.7124 131.672 57.3856 130.725 55.3335C130.07 53.9168 129.452 52.578 129.269 51.6211C128.75 48.9026 130.144 45.2779 133.529 40.5404C136.151 36.8709 137.693 35.7991 139.326 34.663C139.937 34.2381 140.568 33.7997 141.286 33.2111C143.815 31.1357 146.854 27.5792 148.864 25.2251L149.2 24.8314C149.443 24.5469 149.659 24.2293 149.84 23.8882C150.118 23.3738 150.334 22.7833 150.481 22.1324L150.526 21.9414L150.652 22.0934C152.344 24.1338 156.327 29.6819 156.761 37.1067C156.792 37.6368 156.803 38.1493 156.798 38.6443C156.753 42.9589 156.854 45.5936 156.928 47.517C157.029 50.1693 157.085 51.6309 156.695 54.5618C156.469 56.2553 155.952 58.2002 155.238 60.0398C152.561 66.9346 148.778 68.8775 146.76 69.4231C146.255 69.5615 145.722 69.6511 145.18 69.6882C144.931 69.7038 144.68 69.7116 144.433 69.7116L144.435 69.7077ZM132.563 64.2492C134.45 65.853 139.262 69.466 144.357 69.5128C144.626 69.5147 144.898 69.5069 145.168 69.4894C145.697 69.4524 146.216 69.3666 146.71 69.2322C148.693 68.6962 152.412 66.7806 155.058 59.9658C155.765 58.1417 156.279 56.2124 156.502 54.5326C156.891 51.6172 156.835 50.1635 156.733 47.5209C156.66 45.5956 156.559 42.9589 156.603 38.6384C156.609 38.1474 156.597 37.6407 156.566 37.1282C156.144 29.9236 152.367 24.5021 150.625 22.3643C150.475 22.9567 150.269 23.4985 150.011 23.9779C149.824 24.3306 149.601 24.6599 149.348 24.9561L149.012 25.3498C146.996 27.7098 143.951 31.2741 141.408 33.3612C140.685 33.9556 140.051 34.396 139.437 34.8228C137.747 35.9979 136.287 37.0112 133.686 40.6535C130.333 45.3461 128.95 48.9221 129.458 51.5841C129.637 52.5176 130.249 53.8447 130.898 55.2517C131.853 57.3193 132.936 59.6618 133.058 61.5852C133.08 61.9262 133.072 62.2478 133.031 62.5459C132.955 63.0896 132.802 63.647 132.561 64.2472L132.563 64.2492Z" fill="#22313B"/>
<path d="M161.845 85.2229C161.845 85.2229 152.044 81.1402 146.735 81.8671V69.3249C150.8 68.2258 153.574 64.0515 155.147 60V68.0913C155.147 68.0913 161.635 77.4863 161.839 84.9267C161.843 85.0261 161.845 85.1255 161.845 85.2229V85.2229Z" fill="#22313B"/>
<path d="M161.872 85.2619L161.837 85.2463C161.74 85.2053 151.982 81.1753 146.741 81.8924L146.712 81.8963V69.3053L146.731 69.2995C148.726 68.7597 152.47 66.8324 155.126 59.9902L155.174 60V68.0835C155.272 68.2238 156.854 70.5487 158.44 73.7076C159.945 76.7009 161.759 81.0779 161.866 84.9267C161.87 85.0261 161.872 85.1254 161.872 85.2229V85.2619ZM148.106 81.756C153.341 81.756 161.22 84.9384 161.821 85.1839C161.821 85.0982 161.819 85.0124 161.815 84.9267C161.71 81.0876 159.898 76.7185 158.396 73.731C156.768 70.4921 155.143 68.1283 155.128 68.1049L155.124 68.0991V60.1364C154.259 62.3288 153.145 64.2814 151.899 65.7859C150.367 67.6352 148.638 68.8318 146.764 69.3443V81.8379C147.186 81.7814 147.635 81.756 148.108 81.756H148.106Z" fill="#22313B"/>
<path d="M150.577 22.1542C150.441 22.7486 150.234 23.3605 149.925 23.9334C149.746 24.2706 149.531 24.594 149.274 24.8942C147.264 27.2444 144.027 31.0873 141.346 33.2875C138.667 35.4896 137.178 35.6007 133.607 40.5993C130.033 45.5998 128.879 49.0686 129.363 51.6059C129.802 53.9074 132.757 58.3643 132.963 61.5953C132.984 61.9227 132.977 62.2384 132.936 62.5366C132.854 63.129 132.679 63.7097 132.446 64.2788C131.408 66.82 129.234 69.1176 129.258 71.191C129.289 73.7264 128.284 76.823 130.144 79.0251C130.527 79.4772 130.974 80.0599 131.4 80.7478C132.951 83.2461 134.233 87.1339 131.2 91.1796C131.003 91.4426 130.79 91.7057 130.554 91.9688C130.554 91.9688 131.231 98.5946 133.437 102.028C135.646 105.46 137.258 108.615 133.698 114.929C130.136 121.245 122.494 121.471 120.354 120.926C118.215 120.38 111.897 118.203 110.59 107.434C109.943 102.099 110.128 91.2185 109.906 89.5972C109.685 87.9758 108.975 88.2993 107.035 89.2737C105.093 90.2461 102.89 88.2408 103.131 85.6256C103.374 83.0084 104.381 71.3255 106.337 65.1596C108.294 58.9937 112.14 49.0433 112.978 40.3557C113.818 31.6661 117.033 17.5824 131.153 13.9382C145.273 10.294 150.763 18.738 150.763 18.738C150.763 18.738 150.779 18.8588 150.794 19.0693C150.837 19.6344 150.876 20.8544 150.577 22.1542V22.1542Z" fill="#22313B"/>
<path d="M122.333 121.146C121.431 121.146 120.739 121.05 120.348 120.951C118.361 120.444 116.609 119.462 115.143 118.031C112.667 115.619 111.127 112.053 110.567 107.436C110.159 104.078 110.081 98.5204 110.025 94.465C109.992 92.0817 109.964 90.1992 109.883 89.6009C109.801 89.0065 109.657 88.683 109.414 88.5544C109.002 88.3362 108.283 88.6772 107.048 89.2969C106.257 89.6925 105.363 89.6184 104.595 89.0923C103.563 88.3849 102.977 87.0227 103.108 85.6235L103.145 85.2181C104.008 75.8134 105.073 69.0628 106.313 65.1517C106.689 63.9668 107.14 62.6319 107.616 61.2171C109.583 55.3728 112.278 47.3711 112.954 40.3536C113.53 34.4021 114.912 29.3177 117.064 25.2428C120.186 19.3322 124.924 15.5185 131.149 13.9127C134.373 13.0806 137.411 12.8156 140.18 13.1254C142.396 13.3729 144.443 13.9868 146.268 14.9495C149.375 16.5884 150.775 18.7028 150.788 18.7242L150.792 18.7359C150.792 18.7359 150.808 18.8606 150.823 19.0692C150.868 19.6713 150.901 20.8757 150.606 22.1618C150.454 22.8244 150.234 23.4246 149.952 23.9469C149.768 24.2957 149.546 24.6212 149.297 24.9116L148.961 25.3052C146.947 27.6632 143.904 31.2256 141.367 33.3068C140.646 33.8993 140.014 34.3397 139.4 34.7665C137.705 35.9455 136.241 36.9627 133.632 40.6147C130.267 45.323 128.88 48.9184 129.392 51.6019C129.571 52.5431 130.187 53.8761 130.838 55.287C131.791 57.3488 132.87 59.6854 132.992 61.5952C133.014 61.9304 133.006 62.248 132.965 62.5423C132.889 63.0996 132.728 63.6706 132.473 64.2903C132.075 65.2666 131.511 66.204 130.965 67.1102C130.094 68.5562 129.273 69.9203 129.287 71.1928C129.295 71.8574 129.234 72.5453 129.168 73.2722C128.987 75.297 128.801 77.3919 130.167 79.0094C130.636 79.5628 131.06 80.1435 131.425 80.736C133.004 83.2791 134.252 87.1591 131.223 91.197C131.023 91.4659 130.807 91.729 130.583 91.9784C130.617 92.2902 131.326 98.6919 133.461 102.015C134.536 103.685 135.52 105.353 135.759 107.395C136.017 109.621 135.372 112.018 133.723 114.943C131.797 118.359 128.733 119.865 126.503 120.526C124.913 120.998 123.46 121.146 122.335 121.146H122.333ZM109.115 88.4355C109.237 88.4355 109.342 88.4589 109.438 88.5096C109.696 88.646 109.85 88.9812 109.933 89.5951C110.015 90.1972 110.042 92.0817 110.075 94.467C110.132 98.5224 110.209 104.078 110.618 107.434C111.131 111.667 113.081 119.045 120.361 120.904C121.234 121.126 123.637 121.325 126.487 120.479C128.709 119.82 131.76 118.322 133.677 114.919C135.319 112.006 135.965 109.617 135.706 107.403C135.469 105.372 134.487 103.708 133.416 102.044C131.231 98.6451 130.535 92.0388 130.529 91.9726V91.9609L130.535 91.9531C130.76 91.7017 130.976 91.4367 131.178 91.1658C134.188 87.1513 132.947 83.2927 131.377 80.7632C131.011 80.1728 130.589 79.594 130.123 79.0444C128.742 77.4094 128.929 75.3047 129.112 73.2683C129.176 72.5414 129.238 71.8554 129.23 71.1928C129.217 69.9067 130.041 68.5347 130.916 67.0829C131.46 66.1787 132.024 65.2433 132.421 64.2708C132.673 63.655 132.833 63.0879 132.909 62.5345C132.947 62.2461 132.957 61.9304 132.936 61.5991C132.815 59.699 131.736 57.3663 130.786 55.3084C130.132 53.8956 129.516 52.5607 129.335 51.6116C128.82 48.9126 130.21 45.3074 133.583 40.5855C136.198 36.9257 137.666 35.9065 139.363 34.7256C139.975 34.3007 140.607 33.8603 141.327 33.2698C143.86 31.1905 146.902 27.6301 148.914 25.274L149.251 24.8804C149.498 24.592 149.715 24.2704 149.898 23.9235C150.178 23.4052 150.396 22.8088 150.547 22.1502C150.843 20.8698 150.81 19.6733 150.765 19.073C150.752 18.8918 150.738 18.7749 150.734 18.7496C150.658 18.6346 149.258 16.5903 146.233 14.9962C144.416 14.0374 142.372 13.4255 140.164 13.18C137.403 12.8721 134.371 13.1371 131.155 13.9673C124.946 15.5692 120.22 19.3732 117.103 25.2721C114.955 29.3411 113.573 34.4196 112.999 40.3633C112.323 47.3867 109.626 55.3922 107.659 61.2385C107.182 62.6533 106.733 63.9902 106.356 65.1731C105.118 69.0804 104.05 75.827 103.189 85.2279L103.152 85.6313C103.026 87.0129 103.601 88.3556 104.618 89.0533C105.371 89.5678 106.245 89.6418 107.019 89.254C108.026 88.7474 108.668 88.4375 109.109 88.4375L109.115 88.4355Z" fill="#22313B"/>
<path d="M157.159 163.075C151.309 167.67 108.343 176.44 108.343 176.44V176.436L109.346 171.517C115.07 170.551 118.248 170.937 125.679 168.902C135.201 166.295 147.637 163.221 156.432 160.895C158.005 161.327 158.508 162.015 157.159 163.075V163.075Z" fill="#22313B"/>
<path d="M183.082 162.292C181.991 161.965 182.512 160.373 181.457 159.346C181.099 158.999 180.241 158.389 180.241 158.389C180.65 161.488 179.699 163.245 179.25 163.255C178.801 163.265 178.029 163.029 177.683 160.876C177.337 158.72 176.859 160.457 176.859 160.457C176.19 164.608 175.76 164.165 175.162 164.097C174.563 164.027 173.569 163.581 173.894 161.069C174.219 158.557 171.322 157.648 171.322 157.648C171.322 157.648 169.771 159.498 167.469 161.673C165.163 163.846 160.801 162.117 160.801 162.117C160.801 162.117 160.569 162.179 160.132 162.296C155.944 163.407 132.981 169.394 117.614 171.251C109.968 172.177 102.157 174.016 96.1866 164.062C91.1456 155.659 91.3555 137.705 91.8688 128.963L111.014 127.969C111.014 127.969 109.28 147.306 111.08 152.954C112.881 158.601 164.139 153.505 164.139 153.505L164.28 151.007C166.129 150.352 168.06 149.738 169.491 149.45C173.299 148.692 176.052 149.3 179.137 151.377C182.221 153.453 182.913 155.682 183.902 158.368C184.987 161.316 184.174 162.618 183.082 162.292V162.292Z" fill="white"/>
<path d="M109.624 172.106C104.729 172.106 100.003 170.612 96.103 164.113C93.8906 160.425 92.4597 154.55 91.8473 146.648C91.2952 139.523 91.5635 132.505 91.7715 128.957C91.7735 128.908 91.8143 128.867 91.8629 128.865L111.008 127.871C111.036 127.869 111.065 127.881 111.084 127.901C111.104 127.92 111.113 127.949 111.111 127.977C111.094 128.169 109.399 147.359 111.174 152.923C112.896 158.327 161.71 153.644 164.047 153.416L164.185 151.001C164.187 150.962 164.212 150.927 164.249 150.915C166.458 150.134 168.215 149.608 169.473 149.355C173.221 148.608 176.036 149.171 179.194 151.297C182.147 153.285 182.934 155.439 183.848 157.931L183.995 158.334C184.653 160.12 184.69 161.505 184.1 162.135C183.836 162.419 183.465 162.507 183.056 162.386C182.427 162.197 182.289 161.62 182.141 161.008C182.014 160.48 181.869 159.88 181.392 159.416C181.144 159.174 180.638 158.796 180.368 158.599C180.619 160.819 180.17 162.489 179.629 163.121C179.499 163.273 179.372 163.351 179.254 163.353C178.414 163.366 177.854 162.542 177.59 160.891C177.432 159.913 177.267 159.893 177.265 159.893C177.191 159.893 177.04 160.184 176.956 160.484C176.497 163.333 176.159 163.925 175.861 164.14C175.667 164.28 175.475 164.247 175.29 164.216C175.245 164.208 175.2 164.2 175.154 164.196C174.747 164.148 174.419 163.968 174.18 163.662C173.771 163.14 173.645 162.263 173.801 161.059C174.084 158.857 171.763 157.914 171.357 157.765C171.089 158.079 169.607 159.792 167.539 161.747C166.574 162.655 165.095 163.023 163.262 162.809C162.014 162.663 160.985 162.292 160.799 162.222L160.161 162.394C155.748 163.565 132.953 169.499 117.63 171.35C117.082 171.417 116.533 171.489 115.983 171.559C113.868 171.832 111.732 172.108 109.626 172.108L109.624 172.106ZM91.962 129.056C91.754 132.626 91.4974 139.578 92.0437 146.632C92.6541 154.503 94.0753 160.351 96.2721 164.011C98.7431 168.133 101.766 170.575 105.514 171.475C108.86 172.28 112.468 171.814 115.958 171.362C116.508 171.29 117.056 171.22 117.605 171.153C132.914 169.302 155.697 163.372 160.108 162.201L160.777 162.022C160.797 162.016 160.818 162.018 160.837 162.025C160.88 162.043 165.169 163.705 167.403 161.601C169.673 159.455 171.232 157.604 171.248 157.584C171.273 157.555 171.314 157.543 171.351 157.553C171.38 157.563 174.322 158.516 173.991 161.078C173.841 162.23 173.956 163.056 174.331 163.538C174.537 163.803 174.821 163.957 175.173 163.998C175.222 164.003 175.27 164.011 175.319 164.019C175.486 164.046 175.616 164.07 175.747 163.976C176.097 163.725 176.412 162.633 176.765 160.437C176.816 160.252 176.997 159.677 177.275 159.695C177.5 159.706 177.652 160.055 177.78 160.856C178.027 162.396 178.523 163.175 179.25 163.154C179.271 163.154 179.353 163.14 179.481 162.988C179.862 162.544 180.492 161.01 180.146 158.397C180.14 158.358 180.16 158.321 180.193 158.301C180.226 158.282 180.269 158.284 180.3 158.305C180.335 158.331 181.167 158.923 181.526 159.272C182.046 159.777 182.197 160.404 182.329 160.959C182.475 161.564 182.59 162.039 183.111 162.197C183.449 162.296 183.743 162.23 183.959 161.998C184.487 161.431 184.433 160.086 183.813 158.399L183.665 157.993C182.765 155.532 181.987 153.408 179.085 151.455C175.976 149.362 173.202 148.809 169.512 149.542C168.276 149.791 166.547 150.306 164.376 151.073L164.238 153.507C164.236 153.556 164.199 153.595 164.15 153.599C164.022 153.613 151.183 154.879 138.29 155.442C120.935 156.199 111.751 155.37 110.989 152.981C109.274 147.603 110.771 129.662 110.909 128.07L91.962 129.054V129.056Z" fill="#22313B"/>
<path d="M250 65.6241C244.945 67.1169 241.107 67.7463 241.107 67.7463C241.107 67.7463 242.803 71.7803 240.413 75.8922C240.413 75.8922 242.775 78.3651 237.791 80.3958C232.806 82.4264 230.078 80.4737 230.078 80.4737C230.078 80.4737 217.152 108.012 210.818 116.822C204.486 125.631 199.574 131.072 190.915 131.266C187.073 131.354 182.263 129.565 178.103 127.55C174.697 125.898 171.725 124.095 170.072 123.041L181.723 102.132L182.854 102.892L190.158 107.801C190.158 107.801 219.936 72.0628 223.27 69.6308C226.606 67.2006 231.433 63.7552 240.402 63.3304C249.372 62.9056 254.382 62.5977 254.382 62.5977C254.382 62.5977 255.054 64.1313 250 65.6241V65.6241Z" fill="white"/>
<path d="M190.638 131.366C187.402 131.366 183.171 130.113 178.06 127.636C174.559 125.936 171.52 124.077 170.019 123.12L169.942 123.072L181.688 101.992L190.139 107.67C191.988 105.453 219.946 71.934 223.212 69.5506C226.431 67.2063 231.295 63.6634 240.396 63.2327C249.263 62.8118 254.325 62.5039 254.374 62.5L254.442 62.4961L254.469 62.5585C254.475 62.5701 254.586 62.8352 254.397 63.2405C254.105 63.868 253.112 64.8073 250.025 65.7174C245.509 67.0504 241.922 67.7032 241.237 67.8221C241.486 68.508 242.645 72.1776 240.53 75.8802C240.697 76.081 241.222 76.7962 241.024 77.7238C240.798 78.7839 239.721 79.7135 237.826 80.4852C235.228 81.5434 233.249 81.5083 232.046 81.292C230.998 81.1029 230.351 80.758 230.117 80.6157C229.25 82.4534 216.969 108.431 210.896 116.878C207.657 121.382 204.871 124.888 201.8 127.349C198.498 129.994 195.04 131.27 190.916 131.362C190.825 131.364 190.732 131.366 190.638 131.366V131.366ZM170.202 123.007C171.724 123.976 174.712 125.796 178.146 127.462C183.377 129.996 187.672 131.241 190.913 131.169C199.852 130.968 204.768 125.071 210.74 116.765C216.997 108.062 229.863 80.7073 229.991 80.4326L230.039 80.3273L230.135 80.3955C230.162 80.415 232.884 82.2897 237.754 80.3059C239.585 79.5595 240.623 78.6787 240.835 77.6848C241.043 76.7104 240.349 75.966 240.343 75.9582L240.293 75.9056L240.33 75.8413C242.666 71.8209 241.035 67.8221 241.018 67.7831L240.969 67.6701L241.092 67.6506C241.131 67.6447 244.982 67.0055 249.972 65.5303C252.989 64.6397 253.95 63.7472 254.224 63.1567C254.323 62.9404 254.321 62.7806 254.31 62.6988C253.631 62.7397 248.672 63.0359 240.407 63.4276C231.365 63.8563 226.528 67.3778 223.328 69.7104C220.043 72.1074 190.532 107.507 190.234 107.865L190.178 107.934L181.758 102.274L170.202 123.009V123.007Z" fill="#22313B"/>
<g opacity="0.41">
<path opacity="0.41" d="M237.466 50.3301H301.658V104.529C301.658 105.272 301.058 105.874 300.317 105.874H238.808C238.067 105.874 237.466 105.272 237.466 104.529V50.3301Z" fill="#CFD7DF"/>
<path opacity="0.41" d="M300.316 105.919H238.807C238.041 105.919 237.419 105.295 237.419 104.527V50.2832H301.703V104.529C301.703 105.297 301.081 105.921 300.315 105.921L300.316 105.919ZM237.513 50.3767V104.529C237.513 105.244 238.094 105.827 238.807 105.827H300.316C301.03 105.827 301.611 105.244 301.611 104.529V50.3767H237.511H237.513Z" fill="#22313B"/>
</g>
<path d="M240.81 43.7949H298.315C300.159 43.7949 301.658 45.2974 301.658 47.1468V50.3311H237.466V47.1468C237.466 45.2974 238.965 43.7949 240.81 43.7949Z" fill="#262F3A"/>
<path d="M292.526 57.5762H265.218C264.862 57.5762 264.574 57.865 264.574 58.2212C264.574 58.5775 264.862 58.8663 265.218 58.8663H292.526C292.882 58.8663 293.17 58.5775 293.17 58.2212C293.17 57.865 292.882 57.5762 292.526 57.5762Z" fill="#ECAD58"/>
<path d="M286.496 64.0762H265.218C264.862 64.0762 264.574 64.365 264.574 64.7212C264.574 65.0775 264.862 65.3663 265.218 65.3663H286.496C286.851 65.3663 287.139 65.0775 287.139 64.7212C287.139 64.365 286.851 64.0762 286.496 64.0762Z" fill="#EDF1F4"/>
<path d="M280.642 60.8242H265.218C264.862 60.8242 264.574 61.113 264.574 61.4693C264.574 61.8255 264.862 62.1143 265.218 62.1143H280.642C280.998 62.1143 281.286 61.8255 281.286 61.4693C281.286 61.113 280.998 60.8242 280.642 60.8242Z" fill="#EDF1F4"/>
<path d="M259.524 71.1445H247.453C246.625 71.1445 245.954 71.8172 245.954 72.647V83.5562C245.954 84.386 246.625 85.0587 247.453 85.0587H259.524C260.352 85.0587 261.023 84.386 261.023 83.5562V72.647C261.023 71.8172 260.352 71.1445 259.524 71.1445Z" fill="#EDF1F4"/>
<path d="M259.524 85.1307H247.453C246.586 85.1307 245.882 84.4233 245.882 83.5561V72.6469C245.882 71.7777 246.588 71.0723 247.453 71.0723H259.524C260.391 71.0723 261.094 71.7797 261.094 72.6469V83.5561C261.094 84.4252 260.389 85.1307 259.524 85.1307ZM247.453 71.2165C246.667 71.2165 246.028 71.8576 246.028 72.6449V83.5541C246.028 84.3414 246.667 84.9826 247.453 84.9826H259.524C260.309 84.9826 260.949 84.3414 260.949 83.5541V72.6449C260.949 71.8576 260.309 71.2165 259.524 71.2165H247.453Z" fill="#92A2B1"/>
<path d="M249.106 83.9591C249.106 82.4176 249.926 80.9911 251.258 80.2214C252.59 79.4497 254.23 79.4497 255.562 80.2214C256.894 80.9911 257.714 82.4176 257.714 83.9591" fill="white"/>
<path d="M257.762 83.9595H257.665C257.665 82.4394 256.851 81.0227 255.538 80.2646C254.226 79.5046 252.595 79.5046 251.283 80.2646C249.97 81.0246 249.156 82.4394 249.156 83.9595H249.059C249.059 82.4044 249.893 80.9564 251.234 80.1789C252.577 79.4013 254.245 79.4013 255.587 80.1789C256.928 80.9545 257.762 82.4024 257.762 83.9595Z" fill="#92A2B1"/>
<path d="M253.217 78.4698C254.536 78.4698 255.603 77.3999 255.603 76.0786C255.603 74.7574 254.536 73.6875 253.217 73.6875C251.899 73.6875 250.834 74.7574 250.834 76.0786C250.834 77.3999 251.901 78.4698 253.217 78.4698Z" fill="white"/>
<path d="M253.217 78.5184C251.876 78.5184 250.785 77.4232 250.785 76.0785C250.785 74.7339 251.876 73.6387 253.217 73.6387C254.558 73.6387 255.651 74.7339 255.651 76.0785C255.651 77.4232 254.558 78.5184 253.217 78.5184ZM253.217 73.7361C251.93 73.7361 250.882 74.7865 250.882 76.0785C250.882 77.3706 251.93 78.421 253.217 78.421C254.504 78.421 255.554 77.3706 255.554 76.0785C255.554 74.7865 254.506 73.7361 253.217 73.7361Z" fill="#92A2B1"/>
<path d="M292.526 74.2051H265.218C264.862 74.2051 264.574 74.4939 264.574 74.8501C264.574 75.2064 264.862 75.4952 265.218 75.4952H292.526C292.882 75.4952 293.17 75.2064 293.17 74.8501C293.17 74.4939 292.882 74.2051 292.526 74.2051Z" fill="#ECAD58"/>
<path d="M286.496 80.707H265.218C264.862 80.707 264.574 80.9958 264.574 81.3521C264.574 81.7083 264.862 81.9971 265.218 81.9971H286.496C286.851 81.9971 287.139 81.7083 287.139 81.3521C287.139 80.9958 286.851 80.707 286.496 80.707Z" fill="#EDF1F4"/>
<path d="M280.642 77.4551H265.218C264.862 77.4551 264.574 77.7439 264.574 78.1001C264.574 78.4564 264.862 78.7452 265.218 78.7452H280.642C280.998 78.7452 281.286 78.4564 281.286 78.1001C281.286 77.7439 280.998 77.4551 280.642 77.4551Z" fill="#EDF1F4"/>
<path d="M259.524 87.7754H247.453C246.625 87.7754 245.954 88.4481 245.954 89.2779V100.187C245.954 101.017 246.625 101.69 247.453 101.69H259.524C260.352 101.69 261.023 101.017 261.023 100.187V89.2779C261.023 88.4481 260.352 87.7754 259.524 87.7754Z" fill="#EDF1F4"/>
<path d="M259.524 101.763H247.453C246.586 101.763 245.882 101.056 245.882 100.189V89.2797C245.882 88.4105 246.588 87.7051 247.453 87.7051H259.524C260.391 87.7051 261.094 88.4125 261.094 89.2797V100.189C261.094 101.058 260.389 101.763 259.524 101.763ZM247.453 87.8493C246.667 87.8493 246.028 88.4904 246.028 89.2777V100.187C246.028 100.974 246.667 101.615 247.453 101.615H259.524C260.309 101.615 260.949 100.974 260.949 100.187V89.2777C260.949 88.4904 260.309 87.8493 259.524 87.8493H247.453Z" fill="#92A2B1"/>
<path d="M249.106 100.59C249.106 99.0485 249.926 97.622 251.258 96.8522C252.59 96.0805 254.23 96.0805 255.562 96.8522C256.894 97.622 257.714 99.0485 257.714 100.59" fill="white"/>
<path d="M257.762 100.59H257.665C257.665 99.0703 256.851 97.6535 255.538 96.8955C254.226 96.1355 252.595 96.1355 251.283 96.8955C249.97 97.6555 249.156 99.0703 249.156 100.59H249.059C249.059 99.0352 249.893 97.5873 251.234 96.8097C252.577 96.0322 254.245 96.0322 255.587 96.8097C256.928 97.5853 257.762 99.0333 257.762 100.59Z" fill="#92A2B1"/>
<path d="M253.217 95.1026C254.536 95.1026 255.603 94.0327 255.603 92.7114C255.603 91.3902 254.536 90.3203 253.217 90.3203C251.899 90.3203 250.834 91.3902 250.834 92.7114C250.834 94.0327 251.901 95.1026 253.217 95.1026Z" fill="white"/>
<path d="M253.217 95.1512C251.876 95.1512 250.785 94.056 250.785 92.7113C250.785 91.3667 251.876 90.2715 253.217 90.2715C254.558 90.2715 255.651 91.3667 255.651 92.7113C255.651 94.056 254.558 95.1512 253.217 95.1512ZM253.217 90.3689C251.93 90.3689 250.882 91.4193 250.882 92.7113C250.882 94.0034 251.93 95.0538 253.217 95.0538C254.504 95.0538 255.554 94.0034 255.554 92.7113C255.554 91.4193 254.506 90.3689 253.217 90.3689Z" fill="#92A2B1"/>
<path d="M292.526 90.8379H265.218C264.862 90.8379 264.574 91.1267 264.574 91.4829C264.574 91.8392 264.862 92.128 265.218 92.128H292.526C292.882 92.128 293.17 91.8392 293.17 91.4829C293.17 91.1267 292.882 90.8379 292.526 90.8379Z" fill="#ECAD58"/>
<path d="M286.496 97.3379H265.218C264.862 97.3379 264.574 97.6267 264.574 97.9829C264.574 98.3392 264.862 98.628 265.218 98.628H286.496C286.851 98.628 287.139 98.3392 287.139 97.9829C287.139 97.6267 286.851 97.3379 286.496 97.3379Z" fill="#EDF1F4"/>
<path d="M280.642 94.0859H265.218C264.862 94.0859 264.574 94.3747 264.574 94.731C264.574 95.0872 264.862 95.376 265.218 95.376H280.642C280.998 95.376 281.286 95.0872 281.286 94.731C281.286 94.3747 280.998 94.0859 280.642 94.0859Z" fill="#EDF1F4"/>
<path d="M260.457 53.6289H246.809C245.873 53.6289 245.114 54.3897 245.114 55.3282V67.662C245.114 68.6005 245.873 69.3613 246.809 69.3613H260.457C261.393 69.3613 262.152 68.6005 262.152 67.662V55.3282C262.152 54.3897 261.393 53.6289 260.457 53.6289Z" fill="white"/>
<path d="M260.457 69.5013H246.807C245.796 69.5013 244.974 68.677 244.974 67.6636V55.3279C244.974 54.3146 245.796 53.4902 246.807 53.4902H260.457C261.468 53.4902 262.29 54.3146 262.29 55.3279V67.6636C262.29 68.677 261.468 69.5013 260.457 69.5013ZM246.807 53.7689C245.95 53.7689 245.252 54.4685 245.252 55.3279V67.6636C245.252 68.523 245.95 69.2226 246.807 69.2226H260.457C261.314 69.2226 262.012 68.523 262.012 67.6636V55.3279C262.012 54.4685 261.314 53.7689 260.457 53.7689H246.807Z" fill="#87A1B3"/>
<path d="M248.679 68.1185C248.679 66.3743 249.607 64.7627 251.111 63.8936C252.618 63.0225 254.473 63.0225 255.977 63.8936C257.484 64.7647 258.409 66.3763 258.409 68.1185" fill="#FFE8EE"/>
<path d="M258.551 68.1182H258.271C258.271 66.4286 257.365 64.8559 255.909 64.0141C254.451 63.1703 252.639 63.1703 251.181 64.0141C249.723 64.8579 248.817 66.4305 248.817 68.1182H248.537C248.537 66.3292 249.496 64.665 251.039 63.7705C252.583 62.876 254.502 62.876 256.045 63.7705C257.589 64.663 258.547 66.3292 258.547 68.1182H258.551Z" fill="#FFC9D4"/>
<path d="M253.328 61.9117C254.817 61.9117 256.024 60.7016 256.024 59.2068C256.024 57.7121 254.817 56.5039 253.328 56.5039C251.838 56.5039 250.631 57.7141 250.631 59.2068C250.631 60.6996 251.838 61.9117 253.328 61.9117Z" fill="#FFE8EE"/>
<path d="M253.328 62.0517C251.765 62.0517 250.491 60.7753 250.491 59.2065C250.491 57.6378 251.763 56.3633 253.328 56.3633C254.893 56.3633 256.164 57.6397 256.164 59.2065C256.164 60.7733 254.891 62.0517 253.328 62.0517ZM253.328 56.6439C251.918 56.6439 250.771 57.7937 250.771 59.2065C250.771 60.6194 251.918 61.7711 253.328 61.7711C254.737 61.7711 255.884 60.6213 255.884 59.2065C255.884 57.7917 254.737 56.6439 253.328 56.6439Z" fill="#FFC9D4"/>
<path d="M261.192 58.0691C262.784 58.0691 264.075 56.7752 264.075 55.1791C264.075 53.583 262.784 52.2891 261.192 52.2891C259.599 52.2891 258.309 53.583 258.309 55.1791C258.309 56.7752 259.599 58.0691 261.192 58.0691Z" fill="white"/>
<path d="M261.192 58.3491C259.448 58.3491 258.029 56.9265 258.029 55.1785C258.029 53.4304 259.448 52.0078 261.192 52.0078C262.935 52.0078 264.355 53.4304 264.355 55.1785C264.355 56.9265 262.935 58.3491 261.192 58.3491ZM261.192 52.5691C259.755 52.5691 258.588 53.7403 258.588 55.1785C258.588 56.6166 259.757 57.7879 261.192 57.7879C262.626 57.7879 263.795 56.6166 263.795 55.1785C263.795 53.7403 262.626 52.5691 261.192 52.5691V52.5691Z" fill="#00CBFF"/>
<path d="M262.652 54.2773L260.834 56.5048L259.769 55.5577" fill="white"/>
<path d="M260.867 56.9078L259.584 55.7678L259.953 55.3488L260.803 56.1029L262.434 54.0996L262.867 54.4543L260.867 56.9078Z" fill="#00CBFF"/>
<path d="M70.4799 74.7745C81.1763 74.7745 89.845 66.0811 89.845 55.357C89.845 44.6329 81.1763 35.9375 70.4799 35.9375C59.7835 35.9375 51.1147 44.631 51.1147 55.357C51.1147 66.083 59.7854 74.7745 70.4799 74.7745Z" fill="#CFD7DF"/>
<path d="M70.4818 70.7223C78.9444 70.7223 85.8071 63.8432 85.8071 55.3563C85.8071 46.8694 78.9464 39.9902 70.4818 39.9902C62.0172 39.9902 55.1565 46.8694 55.1565 55.3563C55.1565 63.8432 62.0172 70.7223 70.4818 70.7223Z" fill="white"/>
<path d="M51.2741 55.3563H50.8328C50.8328 44.492 59.6473 35.6543 70.4798 35.6543V36.0967C59.8903 36.0967 51.2741 44.7356 51.2741 55.3563V55.3563Z" fill="#92A2B1"/>
<path d="M70.476 75.0547C65.2269 75.0547 60.2948 73.0046 56.5835 69.2805L56.8965 68.9688C60.5242 72.6071 65.3455 74.6124 70.476 74.6124C75.6065 74.6124 80.4298 72.6071 84.0555 68.9688L84.3685 69.2805C80.6592 73.0027 75.725 75.0547 70.476 75.0547V75.0547Z" fill="#92A2B1"/>
<path d="M70.7033 39.9805H70.262V42.8802H70.7033V39.9805Z" fill="#92A2B1"/>
<path d="M70.7033 67.8223H70.262V70.722H70.7033V67.8223Z" fill="#92A2B1"/>
<path d="M85.8071 55.1348H82.9143V55.5771H85.8071V55.1348Z" fill="#92A2B1"/>
<path d="M58.0415 55.1348H55.1487V55.5771H58.0415V55.1348Z" fill="#92A2B1"/>
<path d="M79.4306 64.0193L79.1184 64.332L81.166 66.3859L81.4781 66.0733L79.4306 64.0193Z" fill="#92A2B1"/>
<path d="M59.7987 44.3337L59.4866 44.6465L61.5331 46.6987L61.8452 46.3859L59.7987 44.3337Z" fill="#92A2B1"/>
<path d="M61.5328 64.0199L59.4856 66.0742L59.7978 66.3869L61.845 64.3326L61.5328 64.0199Z" fill="#92A2B1"/>
<path d="M81.1642 44.3333L79.1169 46.3848L79.4289 46.6976L81.4762 44.6462L81.1642 44.3333Z" fill="#92A2B1"/>
<path d="M70.6198 56.277L64.1868 51.826L64.4376 51.4616L70.645 55.7567L79.4149 50.8789L79.6287 51.2667L70.6198 56.277Z" fill="#92A2B1"/>
<path d="M317.903 178.724H14.0972C14.0428 178.724 14 178.681 14 178.627C14 178.572 14.0428 178.529 14.0972 178.529H317.903C317.957 178.529 318 178.572 318 178.627C318 178.681 317.957 178.724 317.903 178.724Z" fill="#22313B"/>
<path d="M205.486 45.2745C205.651 45.1965 205.735 45.1576 205.9 45.0757V43.6512C205.912 42.6826 204.889 42.0746 203.614 42.2344H203.594C196.254 43.1172 189.354 43.8032 181.937 43.809C180.685 43.7525 179.672 44.1286 179.665 44.8165C179.665 44.8224 179.665 44.8263 179.665 44.8321V45.8435C179.826 45.9039 179.906 45.9332 180.067 45.9897C181.83 46.6289 182.482 47.7163 181.504 48.6575C181.169 48.9791 180.67 49.2539 180.067 49.4721C179.906 49.5325 179.826 49.5637 179.665 49.63V50.6414C179.665 51.3274 180.668 51.7074 181.918 51.6548H181.937C189.354 51.6606 196.255 52.3466 203.594 53.2255C204.87 53.3911 205.898 52.7928 205.902 51.8262V50.4017C205.737 50.3159 205.655 50.2731 205.488 50.1893C203.68 49.3123 203.015 47.765 204.016 46.4262C204.358 45.9682 204.87 45.5707 205.488 45.2706L205.486 45.2745Z" fill="white"/>
<path d="M204.01 53.3038C203.872 53.3038 203.73 53.294 203.584 53.2765C195.755 52.3372 189.077 51.7116 181.933 51.7038H181.915C181.002 51.7448 180.236 51.5518 179.864 51.1952C179.699 51.0374 179.615 50.8503 179.615 50.6437V49.6011L179.645 49.5894C179.806 49.5251 179.886 49.4939 180.049 49.4316C180.671 49.2055 181.149 48.9366 181.47 48.6267C181.824 48.2876 181.968 47.9135 181.892 47.5471C181.77 46.9664 181.099 46.4149 180.051 46.0368C179.89 45.9803 179.81 45.9511 179.649 45.8907L179.619 45.879V44.8188C179.621 44.6123 179.707 44.4291 179.874 44.2712C180.251 43.9146 181.023 43.7236 181.939 43.7665C189.089 43.7607 195.765 43.1332 203.588 42.1938L203.613 42.2367L203.608 42.19C204.372 42.0945 205.064 42.266 205.501 42.6577C205.797 42.9227 205.95 43.2657 205.946 43.6515V45.1053L205.921 45.117C205.756 45.1969 205.672 45.2378 205.507 45.3158C204.891 45.6139 204.387 46.0095 204.053 46.4578C203.646 47.0015 203.506 47.5978 203.65 48.1844C203.839 48.9639 204.5 49.6635 205.509 50.1526C205.676 50.2364 205.758 50.2793 205.923 50.367L205.948 50.3806V51.8344C205.948 52.2183 205.789 52.5593 205.491 52.8205C205.132 53.1362 204.607 53.3057 204.014 53.3057L204.01 53.3038ZM181.933 51.6122C189.083 51.62 195.763 52.2456 203.596 53.1849C204.337 53.2823 205.003 53.1225 205.427 52.7484C205.703 52.5048 205.851 52.1871 205.851 51.8305V50.4332C205.701 50.3553 205.62 50.3124 205.462 50.2325C204.428 49.7317 203.751 49.0106 203.555 48.2038C203.405 47.59 203.551 46.9664 203.975 46.4012C204.319 45.9413 204.834 45.5379 205.462 45.232C205.618 45.1579 205.701 45.119 205.849 45.0468V43.6515C205.853 43.293 205.709 42.9714 205.435 42.7259C205.017 42.3517 204.352 42.188 203.613 42.2815H203.594C195.767 43.2228 189.087 43.8503 181.931 43.8561C181.037 43.8152 180.29 43.9965 179.93 44.3355C179.783 44.4759 179.707 44.6376 179.705 44.8169V45.8127C179.847 45.8653 179.927 45.8946 180.076 45.9472C181.155 46.3369 181.847 46.9138 181.978 47.5257C182.063 47.9252 181.908 48.3286 181.53 48.691C181.2 49.0087 180.712 49.2874 180.078 49.5154C179.928 49.5719 179.849 49.6031 179.707 49.6596V50.6398C179.707 50.821 179.781 50.9828 179.927 51.1231C180.28 51.4641 181.023 51.6454 181.911 51.6064H181.933V51.6122Z" fill="#C2CCD3"/>
<path d="M209.053 44.9718C209.217 44.8802 209.298 44.8334 209.462 44.7399V43.1341C209.473 42.0428 208.462 41.4017 207.197 41.6452L207.177 41.6491C199.852 42.9314 192.875 43.4771 185.481 43.7655C184.214 43.8162 183.187 44.3482 183.179 44.9952V45.9618C183.343 46.0066 183.424 46.028 183.588 46.0728C185.376 46.5678 186.035 47.7449 185.044 48.6628C184.706 48.9765 184.2 49.2299 183.588 49.3974C183.424 49.4462 183.343 49.4696 183.179 49.5183V50.4693C183.179 51.1143 184.196 51.6483 185.462 51.7028C185.468 51.7028 185.475 51.7028 185.481 51.7028C192.877 51.9913 199.852 52.5369 207.177 53.8192C208.443 54.0686 209.46 53.4392 209.464 52.3518V50.746C209.3 50.6447 209.219 50.5959 209.055 50.4985C207.265 49.4773 206.606 47.7858 207.597 46.2872C207.936 45.7747 208.443 45.3206 209.055 44.9718H209.053Z" fill="white"/>
<path d="M207.715 53.9195C207.538 53.9195 207.354 53.9019 207.167 53.8649C200.724 52.7366 194.035 52.0837 185.477 51.7505H185.457C184.153 51.692 183.13 51.1308 183.13 50.4701V49.4841L183.163 49.4743C183.327 49.4256 183.408 49.4022 183.572 49.3535C184.184 49.184 184.68 48.9345 185.008 48.6286C185.376 48.2875 185.522 47.9017 185.428 47.5158C185.284 46.9214 184.59 46.3992 183.572 46.1166C183.408 46.0718 183.327 46.0503 183.163 46.0055L183.13 45.9958V44.9941C183.138 44.3315 184.169 43.7703 185.477 43.7177C194.035 43.3825 200.724 42.7296 207.167 41.6013L207.185 41.5974C207.892 41.461 208.547 41.5935 208.985 41.9599C209.331 42.2502 209.512 42.6556 209.508 43.1311V44.7642L209.485 44.7778C209.321 44.8713 209.24 44.9181 209.076 45.0097C208.466 45.3585 207.966 45.8067 207.634 46.3095C207.22 46.9351 207.086 47.6171 207.245 48.2856C207.445 49.1255 208.094 49.8972 209.076 50.4565C209.242 50.5539 209.323 50.6046 209.486 50.7059L209.508 50.7196V52.3507C209.508 52.8243 209.321 53.2257 208.975 53.5122C208.65 53.7792 208.209 53.9195 207.715 53.9195V53.9195ZM185.481 51.6569C194.043 51.9921 200.736 52.645 207.185 53.7733C207.865 53.9078 208.497 53.7869 208.917 53.4401C209.243 53.1711 209.416 52.795 209.416 52.3507V50.7703C209.267 50.6787 209.185 50.628 209.03 50.5364C208.026 49.9635 207.36 49.1723 207.155 48.307C206.99 47.6133 207.13 46.9058 207.558 46.2589C207.898 45.7444 208.407 45.2845 209.032 44.9298C209.187 44.8421 209.269 44.7973 209.416 44.7115V43.133C209.42 42.6848 209.251 42.3048 208.927 42.032C208.511 41.6832 207.883 41.5584 207.206 41.689L207.185 41.6929C200.736 42.8212 194.043 43.476 185.481 43.8093C184.223 43.8599 183.23 44.3802 183.222 44.9941V45.9237C183.364 45.9626 183.445 45.9841 183.597 46.025C184.649 46.3154 185.366 46.863 185.518 47.4905C185.621 47.9114 185.465 48.3265 185.071 48.6929C184.73 49.0086 184.221 49.2658 183.595 49.4392C183.443 49.4841 183.362 49.5075 183.22 49.5503V50.4662C183.22 51.0782 184.204 51.5985 185.459 51.655L185.477 51.7018V51.655L185.481 51.6569Z" fill="#8AA3B4"/>
<path d="M212.924 44.5174C213.086 44.4082 213.165 44.3537 213.327 44.2426V42.3698C213.336 41.0973 212.343 40.384 211.093 40.7192L211.073 40.7251C204.234 42.4458 196.477 43.9756 189.416 43.6618C188.137 43.6346 187.097 44.2289 187.089 44.8993C187.089 44.9052 187.089 44.9091 187.089 44.9149V45.899C187.254 45.9419 187.336 45.9653 187.503 46.0082C189.311 46.509 189.976 47.7309 188.975 48.6897C188.633 49.0171 188.121 49.286 187.503 49.4575C187.338 49.5062 187.254 49.5296 187.089 49.5783V50.5624C187.089 51.2309 188.119 51.8272 189.397 51.8058C189.403 51.8058 189.41 51.8058 189.416 51.8058C196.477 51.492 204.234 53.0218 211.073 54.7425C212.322 55.0855 213.323 54.3859 213.327 53.1173V51.2445C213.165 51.1237 213.086 51.0652 212.924 50.9483C211.324 49.8745 210.482 47.8361 211.487 46.0608C211.822 45.4684 212.322 44.9324 212.924 44.5174V44.5174Z" fill="white"/>
<path d="M211.691 54.8755C211.489 54.8755 211.279 54.8462 211.061 54.7858C199.257 51.8159 193.055 51.6873 189.418 51.851H189.396C188.558 51.8627 187.771 51.6152 187.345 51.1942C187.149 50.9994 187.044 50.7811 187.044 50.5628V49.5436L187.077 49.5339C187.242 49.4852 187.324 49.4618 187.489 49.4131C188.1 49.2435 188.601 48.9824 188.941 48.655C189.319 48.2925 189.464 47.8852 189.361 47.4779C189.208 46.866 188.508 46.3321 187.489 46.0495C187.324 46.0047 187.242 45.9832 187.077 45.9404L187.042 45.9306V44.8939C187.044 44.6737 187.153 44.4554 187.353 44.2605C187.787 43.8415 188.576 43.5882 189.416 43.6096C197.007 43.9448 205.406 42.0954 211.061 40.6748L211.081 40.6689C211.72 40.4974 212.309 40.5871 212.743 40.9242C213.153 41.2438 213.377 41.7544 213.373 42.3644V44.2605L213.353 44.2742C213.192 44.3872 213.112 44.4418 212.951 44.5509C212.352 44.964 211.86 45.4921 211.528 46.0787C210.739 47.474 210.974 49.5787 212.951 50.9058C213.114 51.0227 213.194 51.0832 213.355 51.202L213.375 51.2157V53.1118C213.375 53.7179 213.145 54.2246 212.735 54.5383C212.445 54.7585 212.088 54.8716 211.693 54.8716L211.691 54.8755ZM191.28 51.7185C198.366 51.7185 205.884 53.3886 211.085 54.6981C211.699 54.8677 212.263 54.7858 212.677 54.4701C213.066 54.1739 213.279 53.6926 213.279 53.1177V51.2683C213.132 51.1572 213.05 51.0987 212.897 50.9877C212.08 50.4401 211.471 49.6567 211.184 48.7836C210.873 47.8404 210.964 46.8914 211.446 46.0397C211.784 45.4415 212.286 44.9017 212.897 44.4807C213.05 44.3774 213.132 44.3209 213.279 44.2196V42.3722C213.283 41.7914 213.073 41.3062 212.687 41.0041C212.276 40.6865 211.714 40.6007 211.104 40.7664L211.087 40.7722C199.265 43.7441 193.057 43.8747 189.414 43.711C188.601 43.6973 187.833 43.9331 187.417 44.3365C187.234 44.5139 187.137 44.7087 187.135 44.9036V45.8683C187.279 45.9053 187.361 45.9287 187.514 45.9696C188.566 46.26 189.289 46.8193 189.453 47.4643C189.563 47.9067 189.41 48.3432 189.006 48.731C188.654 49.0681 188.138 49.3371 187.514 49.5105C187.361 49.5553 187.279 49.5787 187.135 49.6216V50.5706C187.135 50.7636 187.231 50.9604 187.409 51.1358C187.82 51.5392 188.58 51.7789 189.396 51.7672H189.416C190.032 51.7399 190.656 51.7263 191.282 51.7263L191.28 51.7185Z" fill="#22313B"/>
<path d="M196.055 45.7631C198.874 45.539 201.689 45.3402 204.512 45.1784C206.065 45.0732 207.313 45.9541 207.313 47.1837V48.2867C207.313 49.5184 206.063 50.3972 204.512 50.292C201.689 50.1303 198.874 49.9315 196.055 49.7074C194.49 49.5944 193.222 48.9006 193.222 48.0957V47.3747C193.222 46.5699 194.49 45.8761 196.055 45.7631V45.7631Z" fill="#8AA3B4"/>
<path d="M48.1889 119.382C48.1889 119.382 48.9432 117.987 50.8193 118.462C52.6953 118.938 56.7391 120.263 59.6085 126.472C62.4916 132.711 59.9526 136.968 57.1143 137.819C54.8552 138.497 49.4701 137.952 47.3607 130.999C45.2358 123.991 48.1889 119.382 48.1889 119.382Z" fill="#8AA3B4"/>
<path d="M56.6145 135.987C56.5173 135.987 56.426 135.93 56.3851 135.835L49.7674 120.373C49.713 120.247 49.7713 120.098 49.8996 120.044C50.026 119.989 50.1737 120.048 50.2282 120.176L56.8459 135.638C56.9003 135.765 56.842 135.913 56.7137 135.967C56.6806 135.981 56.6476 135.987 56.6145 135.987Z" fill="#7B8E9F"/>
<path d="M51.8263 124.754C51.801 124.754 51.7757 124.75 51.7524 124.742C51.6202 124.701 51.5463 124.561 51.5872 124.429L52.6078 121.155C52.6486 121.022 52.7906 120.95 52.9208 120.989C53.053 121.03 53.1269 121.17 53.0861 121.303L52.0654 124.577C52.0324 124.684 51.9332 124.752 51.8263 124.752V124.754Z" fill="#7B8E9F"/>
<path d="M53.0978 128.294C53.0726 128.294 53.0453 128.29 53.0201 128.282L47.808 126.577C47.6758 126.534 47.6038 126.392 47.6485 126.261C47.6913 126.129 47.8332 126.059 47.9635 126.1L53.1756 127.805C53.3078 127.848 53.3797 127.99 53.335 128.12C53.3 128.226 53.2028 128.294 53.0978 128.294Z" fill="#7B8E9F"/>
<path d="M54.9932 131.966C54.9679 131.966 54.9427 131.962 54.9174 131.954C54.7852 131.913 54.7113 131.771 54.7541 131.639L56.5893 125.786C56.6301 125.654 56.7721 125.582 56.9023 125.623C57.0345 125.664 57.1084 125.806 57.0656 125.938L55.2304 131.791C55.1973 131.898 55.0982 131.966 54.9913 131.966H54.9932Z" fill="#7B8E9F"/>
<path d="M55.7009 134.046C55.6775 134.046 55.6522 134.042 55.6289 134.035L49.7908 132.263C49.6586 132.222 49.5828 132.084 49.6236 131.949C49.6644 131.817 49.8044 131.743 49.9366 131.782L55.7747 133.553C55.9069 133.594 55.9827 133.733 55.9419 133.867C55.9089 133.976 55.8097 134.046 55.7028 134.046H55.7009Z" fill="#7B8E9F"/>
<path d="M57.2436 137.715L56.9993 137.771L61.7065 158.112L61.9508 158.056L57.2436 137.715Z" fill="#647A8E"/>
<path d="M63.2804 143.328L62.8096 158.1L63.0614 158.108L63.5322 143.336L63.2804 143.328Z" fill="#647A8E"/>
<path d="M59.2333 178.534C59.0563 178.534 58.9047 178.409 58.8697 178.234C58.7881 177.833 58.7064 177.451 58.6306 177.084C57.8957 173.621 57.4525 171.53 59.6104 166.881C61.4884 162.835 59.5404 159.785 58.615 158.661C58.5237 158.55 58.5042 158.398 58.5645 158.267C58.6267 158.134 58.755 158.053 58.8989 158.053L65.7635 158.01C65.9112 158.018 66.0376 158.09 66.1017 158.22C66.164 158.351 66.1465 158.501 66.057 158.614C65.1452 159.75 63.2361 162.823 65.1647 166.845C67.381 171.468 66.9649 173.565 66.2728 177.038C66.199 177.404 66.1231 177.788 66.0473 178.189C66.0143 178.365 65.8607 178.491 65.6838 178.493L59.2371 178.534H59.2352H59.2333ZM65.7654 158.261L58.9008 158.304C58.8289 158.304 58.7997 158.359 58.7919 158.374C58.7842 158.39 58.7628 158.446 58.8075 158.501C59.7621 159.66 61.7761 162.81 59.8379 166.986C57.7149 171.561 58.1504 173.619 58.8755 177.032C58.9533 177.398 59.035 177.78 59.1166 178.183C59.1283 178.24 59.1788 178.281 59.2352 178.281L65.6818 178.24C65.7401 178.24 65.7887 178.197 65.8004 178.141C65.8762 177.737 65.954 177.353 66.0259 176.987C66.7064 173.567 67.1185 171.501 64.9372 166.953C62.9465 162.802 64.9197 159.627 65.8607 158.456C65.9054 158.401 65.8821 158.345 65.8762 158.329C65.8685 158.314 65.8373 158.261 65.7674 158.261H65.7654Z" fill="#7690A3"/>
<path d="M62.8961 158.846H60.0266V159.097H62.8961V158.846Z" fill="#7690A3"/>
<path d="M64.9469 177.311H59.5637V177.562H64.9469V177.311Z" fill="#7690A3"/>
<path d="M56.1169 137.994C56.1169 137.994 55.4987 131.306 59.3305 125.855C59.3305 125.855 60.1956 127.775 60.5047 129.046C60.5047 129.046 59.3305 136.695 58.3429 137.221C58.3429 137.221 57.6022 137.747 56.1188 137.994H56.1169Z" fill="#576C7D"/>
<path d="M66.5741 123.212C66.5741 123.212 68.0225 122.571 69.2162 124.095C70.4098 125.621 72.803 129.148 71.2847 135.821C69.7605 142.524 65.153 144.337 62.3885 143.271C60.1858 142.423 56.2588 138.689 58.8327 131.896C61.4262 125.048 66.5741 123.212 66.5741 123.212Z" fill="#647A8E"/>
<path d="M63.4113 141.878C63.3918 141.878 63.3704 141.876 63.3491 141.87C63.2149 141.837 63.1333 141.699 63.1683 141.566L67.2761 125.253C67.3092 125.119 67.4453 125.039 67.5794 125.072C67.7136 125.105 67.7952 125.243 67.7602 125.376L63.6523 141.689C63.6232 141.802 63.5221 141.878 63.4093 141.878H63.4113Z" fill="#B1BDC7"/>
<path d="M66.4711 130.008C66.3875 130.008 66.3058 129.965 66.2572 129.889C66.1853 129.771 66.2222 129.617 66.3389 129.545L69.2531 127.746C69.3717 127.674 69.5253 127.711 69.5972 127.828C69.6691 127.945 69.6322 128.101 69.5155 128.173L66.6013 129.971C66.5605 129.997 66.5158 130.008 66.4711 130.008V130.008Z" fill="#B1BDC7"/>
<path d="M65.3942 133.791C65.3145 133.791 65.2367 133.752 65.1881 133.682L62.0795 129.155C62.0018 129.04 62.029 128.884 62.1437 128.806C62.2584 128.728 62.4139 128.755 62.4917 128.87L65.6003 133.397C65.6781 133.512 65.6508 133.668 65.5361 133.746C65.4934 133.775 65.4428 133.791 65.3942 133.791V133.791Z" fill="#B1BDC7"/>
<path d="M64.6612 137.166C64.5835 137.166 64.5057 137.129 64.4571 137.059C64.3774 136.946 64.4046 136.79 64.5174 136.71L69.5215 133.177C69.6342 133.097 69.7917 133.124 69.8695 133.237C69.9492 133.35 69.922 133.506 69.8092 133.586L64.8051 137.119C64.7604 137.15 64.7118 137.166 64.6612 137.166Z" fill="#B1BDC7"/>
<path d="M63.9672 139.809C63.8894 139.809 63.8136 139.772 63.763 139.704L60.1976 134.744C60.1159 134.631 60.1412 134.476 60.2539 134.394C60.3667 134.312 60.5222 134.337 60.6039 134.45L64.1693 139.41C64.251 139.523 64.2257 139.679 64.113 139.761C64.0683 139.792 64.0177 139.807 63.9672 139.807V139.809Z" fill="#B1BDC7"/>
<path d="M72.702 89.2109H57.3222C56.5631 89.2109 55.9478 89.8278 55.9478 90.5887V105.701C55.9478 106.462 56.5631 107.079 57.3222 107.079H72.702C73.4611 107.079 74.0764 106.462 74.0764 105.701V90.5887C74.0764 89.8278 73.4611 89.2109 72.702 89.2109Z" fill="#DAE3E8"/>
<path d="M59.9039 105.942C59.068 105.942 58.2845 105.615 57.6935 105.022C57.1103 104.438 56.7759 103.627 56.7778 102.799V91.0652C56.7778 90.237 57.1103 89.4263 57.6935 88.8417C58.2767 88.2571 59.0816 87.9219 59.9039 87.9219H71.9282C72.7505 87.9219 73.5573 88.2571 74.1386 88.8417C74.7218 89.4263 75.0562 90.237 75.0543 91.0652V93.166C75.0543 93.2069 75.0212 93.242 74.9785 93.242C74.9357 93.242 74.9026 93.2089 74.9026 93.166V91.0652C74.9026 90.2779 74.5858 89.5062 74.0317 88.9489C73.4776 88.3915 72.7116 88.0739 71.9282 88.0739H59.9039C59.1205 88.0739 58.3545 88.3935 57.8004 88.9489C57.2464 89.5062 56.9275 90.2779 56.9295 91.0652V102.799C56.9295 103.586 57.2464 104.358 57.8004 104.915C58.3623 105.48 59.1088 105.79 59.9039 105.79H71.9301C72.7253 105.79 73.4718 105.48 74.0336 104.915C74.5877 104.358 74.9065 103.586 74.9046 102.799V100.024C74.9046 99.9828 74.9376 99.9477 74.9804 99.9477C75.0232 99.9477 75.0562 99.9809 75.0562 100.024V102.799C75.0562 103.627 74.7238 104.438 74.1406 105.022C73.5593 105.607 72.7525 105.942 71.9301 105.942H59.9039Z" fill="#576C7D"/>
<path d="M65.6157 101.625C68.285 101.625 70.4507 99.4558 70.4507 96.7782C70.4507 94.1006 68.2869 91.9316 65.6157 91.9316C62.9445 91.9316 60.7808 94.1006 60.7808 96.7782C60.7808 99.4558 62.9445 101.625 65.6157 101.625Z" fill="white"/>
<path d="M65.6158 101.706C62.9058 101.706 60.7012 99.4966 60.7012 96.78C60.7012 94.0634 62.9058 91.8535 65.6158 91.8535C68.3259 91.8535 70.5305 94.0634 70.5305 96.78C70.5305 99.4966 68.3259 101.706 65.6158 101.706V101.706ZM65.6158 92.0153C62.9952 92.0153 60.8625 94.1531 60.8625 96.78C60.8625 99.4069 62.9952 101.545 65.6158 101.545C68.2365 101.545 70.3692 99.4069 70.3692 96.78C70.3692 94.1531 68.2365 92.0153 65.6158 92.0153Z" fill="#D72D30"/>
<path d="M69.7333 97.1752L65.6663 96.5945L64.8789 92.5508C66.1814 92.5625 67.5754 92.886 68.4852 93.7532C69.395 94.6204 69.7469 95.9611 69.7333 97.1752Z" fill="#FFD0D6"/>
<path d="M182.854 102.893L178.103 127.551C174.697 125.898 171.724 124.095 170.072 123.041L181.723 102.133L182.854 102.893V102.893Z" fill="#DAE3E8"/>
<path d="M124.023 174.342V174.952C124.023 176.932 125.623 178.536 127.598 178.536H159.335L159.504 177.937H158.002C155.834 177.937 154.115 176.337 153.797 174.34H124.023V174.342Z" fill="white"/>
<path d="M159.389 178.609H127.597C125.585 178.609 123.948 176.969 123.948 174.952V174.27H153.856L153.866 174.33C154.193 176.38 155.931 177.867 157.999 177.867H159.597L159.387 178.609H159.389ZM124.092 174.414V174.952C124.092 176.889 125.663 178.463 127.595 178.463H159.278L159.407 178.011H157.999C155.88 178.011 154.095 176.501 153.734 174.414H124.092V174.414Z" fill="#22313B"/>
<path d="M153.796 174.342C154.113 176.339 155.834 177.939 158.001 177.939H159.504L160.521 174.342H153.796Z" fill="#22313B"/>
<path d="M159.535 177.98H158.001C155.876 177.98 154.091 176.452 153.757 174.348L153.749 174.301H160.575L159.535 177.98ZM153.845 174.383C154.193 176.423 155.932 177.9 158.001 177.9H159.473L160.466 174.383H153.843H153.845Z" fill="#22313B"/>
<path d="M154.222 172.84C154.539 174.838 156.26 176.438 158.427 176.438H224.906C226.908 176.438 228.636 175.039 229.064 173.076L238.72 128.504C239.298 125.844 237.276 123.332 234.562 123.332H168.088C166.083 123.332 164.353 124.731 163.929 126.692L154.269 171.264C154.152 171.804 154.143 172.332 154.224 172.839L154.222 172.84Z" fill="white"/>
<path d="M224.905 176.512H158.427C156.286 176.512 154.488 174.972 154.152 172.852C154.066 172.322 154.082 171.784 154.198 171.25L163.859 126.68C164.286 124.7 166.065 123.262 168.089 123.262H234.563C235.879 123.262 237.108 123.85 237.934 124.877C238.761 125.904 239.074 127.231 238.794 128.521L229.137 173.094C228.706 175.074 226.927 176.512 224.907 176.512H224.905ZM168.087 123.408C166.131 123.408 164.413 124.797 163.999 126.711L154.338 171.281C154.228 171.796 154.212 172.318 154.294 172.829C154.62 174.879 156.358 176.366 158.427 176.366H224.905C226.857 176.366 228.576 174.976 228.994 173.062L238.65 128.49C238.92 127.245 238.617 125.961 237.82 124.967C237.021 123.975 235.835 123.404 234.561 123.404H168.087V123.408Z" fill="#22313B"/>
<path d="M160.127 178.538H226.603C228.605 178.538 230.337 177.138 230.761 175.178L240.418 130.606C240.993 127.948 238.973 125.434 236.259 125.434H169.783C167.78 125.434 166.048 126.833 165.624 128.793L155.968 173.366C155.393 176.024 157.413 178.538 160.127 178.538Z" fill="#8AA3B4"/>
<path d="M226.602 178.611H160.126C158.81 178.611 157.583 178.023 156.757 176.996C155.931 175.969 155.618 174.642 155.898 173.352L165.554 128.779C165.984 126.8 167.762 125.361 169.782 125.361H236.259C237.575 125.361 238.802 125.95 239.628 126.977C240.454 128.004 240.767 129.331 240.487 130.621L230.831 175.193C230.401 177.173 228.622 178.611 226.602 178.611V178.611ZM169.782 125.507C167.828 125.507 166.108 126.897 165.694 128.811L156.038 173.383C155.767 174.628 156.071 175.912 156.87 176.904C157.669 177.896 158.855 178.465 160.126 178.465H226.602C228.556 178.465 230.277 177.076 230.691 175.162L240.347 130.59C240.617 129.345 240.314 128.06 239.515 127.068C238.716 126.077 237.53 125.507 236.259 125.507H169.782Z" fill="#22313B"/>
<path d="M203.955 143.523C203.955 147.832 203.955 152.138 203.955 156.447C203.955 156.888 204.292 157.353 204.708 157.482C206.856 158.113 208.987 158.677 211.166 159.191C211.166 161.662 211.166 164.131 211.166 166.602C213.872 164.642 216.522 162.613 219.146 160.547C230.881 161.763 242.262 160.682 253.563 157.289C253.979 157.157 254.315 156.71 254.315 156.295V144.121C254.315 143.708 253.979 143.476 253.563 143.601C237.304 148.192 220.848 147.956 204.708 142.977C204.292 142.841 203.955 143.085 203.955 143.523V143.523ZM240.895 151.679C232.833 152.674 224.952 152.6 216.907 151.458C215.946 151.306 215.945 149.517 216.907 149.671C224.948 150.829 232.829 150.921 240.895 149.94C241.861 149.808 241.863 151.544 240.895 151.679ZM244.554 149.932C244.554 149.295 245.077 148.683 245.722 148.555C247.591 148.184 248.522 147.972 250.371 147.491C251.008 147.325 251.525 147.693 251.525 148.327C251.525 150.157 251.525 151.071 251.525 152.9C251.525 153.532 251.008 154.191 250.371 154.362C248.522 154.859 247.591 155.079 245.722 155.465C245.077 155.598 244.554 155.182 244.554 154.545V149.932V149.932ZM211.916 152.908C221.479 154.847 230.928 155.219 240.613 154.035C241.955 153.85 241.96 155.584 240.613 155.773C230.932 156.977 221.483 156.625 211.916 154.707C210.592 154.419 210.589 152.618 211.916 152.908V152.908Z" fill="white"/>
<path d="M211.032 166.866V159.299C208.878 158.788 206.796 158.235 204.669 157.611C204.193 157.463 203.821 156.952 203.821 156.448V143.523C203.821 143.268 203.918 143.056 204.095 142.927C204.272 142.798 204.506 142.769 204.749 142.849C220.918 147.836 237.33 148.044 253.528 143.471C253.773 143.397 254.016 143.43 254.191 143.56C254.358 143.685 254.449 143.884 254.449 144.118V156.292C254.449 156.771 254.078 157.262 253.604 157.414C242.229 160.828 230.971 161.898 219.187 160.684C216.279 162.974 213.68 164.944 211.244 166.71L211.034 166.862L211.032 166.866ZM204.088 143.525V156.449C204.088 156.831 204.389 157.247 204.747 157.358C206.901 157.989 209.01 158.548 211.195 159.065L211.298 159.088V166.343C213.682 164.611 216.225 162.68 219.065 160.444L219.108 160.411L219.162 160.417C230.93 161.637 242.172 160.571 253.526 157.163C253.882 157.05 254.185 156.652 254.185 156.296V144.122C254.185 143.973 254.131 143.851 254.033 143.777C253.925 143.695 253.771 143.679 253.604 143.728C237.353 148.317 220.89 148.107 204.671 143.104C204.509 143.052 204.362 143.065 204.255 143.143C204.148 143.221 204.09 143.356 204.09 143.523L204.088 143.525ZM229.452 156.611C223.595 156.611 217.782 156.023 211.887 154.84C211.376 154.729 210.985 154.392 210.841 153.938C210.731 153.591 210.791 153.234 210.997 153.006C211.207 152.774 211.543 152.694 211.94 152.78C221.524 154.723 230.899 155.091 240.594 153.904C241.301 153.807 241.683 154.201 241.743 154.635C241.817 155.173 241.422 155.795 240.629 155.906C236.865 156.374 233.15 156.609 229.452 156.609V156.611ZM211.638 153.012C211.45 153.012 211.298 153.07 211.195 153.185C211.051 153.343 211.014 153.6 211.096 153.856C211.211 154.218 211.528 154.489 211.944 154.579C221.528 156.5 230.901 156.849 240.596 155.643C241.245 155.551 241.537 155.076 241.48 154.672C241.44 154.378 241.195 154.091 240.629 154.167C230.903 155.358 221.503 154.988 211.887 153.039H211.885C211.798 153.02 211.714 153.01 211.638 153.01V153.012ZM245.481 155.625C245.225 155.625 244.989 155.545 244.801 155.389C244.556 155.189 244.422 154.89 244.422 154.546V149.933C244.422 149.229 244.982 148.567 245.697 148.424C247.577 148.052 248.487 147.844 250.338 147.362C250.693 147.269 251.041 147.327 251.292 147.52C251.529 147.703 251.66 147.99 251.66 148.325V152.899C251.66 153.591 251.098 154.304 250.406 154.489C248.547 154.988 247.633 155.204 245.75 155.594C245.658 155.613 245.569 155.621 245.483 155.621L245.481 155.625ZM250.668 147.587C250.583 147.587 250.493 147.598 250.402 147.622C248.545 148.105 247.631 148.313 245.746 148.688C245.161 148.803 244.684 149.362 244.684 149.933V154.546C244.684 154.807 244.785 155.033 244.966 155.183C245.157 155.339 245.415 155.393 245.693 155.335C247.569 154.947 248.481 154.731 250.334 154.234C250.917 154.078 251.389 153.48 251.389 152.901V148.327C251.389 148.076 251.296 147.865 251.125 147.733C250.999 147.635 250.843 147.587 250.668 147.587V147.587ZM229.711 152.509C225.453 152.509 221.203 152.203 216.888 151.591C216.551 151.539 216.279 151.303 216.143 150.946C215.987 150.539 216.036 150.061 216.262 149.781C216.423 149.582 216.658 149.496 216.926 149.539C224.979 150.699 232.814 150.788 240.878 149.808C241.325 149.746 241.671 150.04 241.741 150.539C241.817 151.085 241.521 151.726 240.913 151.811H240.911C237.143 152.277 233.424 152.509 229.711 152.509V152.509ZM216.794 149.794C216.66 149.794 216.551 149.845 216.47 149.948C216.304 150.155 216.271 150.533 216.392 150.851C216.452 151.007 216.602 151.276 216.928 151.328C224.981 152.47 232.814 152.542 240.878 151.548C241.323 151.486 241.535 150.995 241.478 150.576C241.461 150.443 241.366 150.013 240.915 150.073C232.825 151.055 224.967 150.968 216.889 149.804C216.856 149.798 216.825 149.796 216.794 149.796V149.794Z" fill="#647A8E"/>
<path d="M244.554 149.932V154.545C244.554 155.182 245.077 155.598 245.723 155.465C247.591 155.079 248.522 154.859 250.371 154.362C251.009 154.191 251.526 153.532 251.526 152.9C251.526 151.071 251.526 150.157 251.526 148.327C251.526 147.695 251.009 147.325 250.371 147.491C248.522 147.972 247.591 148.184 245.723 148.555C245.077 148.683 244.554 149.295 244.554 149.932V149.932Z" fill="white"/>
<path d="M245.481 155.625C245.225 155.625 244.99 155.545 244.801 155.389C244.556 155.188 244.422 154.89 244.422 154.545V149.932C244.422 149.229 244.982 148.566 245.697 148.424C247.577 148.052 248.487 147.843 250.338 147.362C250.694 147.269 251.042 147.327 251.292 147.52C251.529 147.703 251.66 147.99 251.66 148.325V152.899C251.66 153.59 251.098 154.304 250.406 154.489C248.547 154.988 247.634 155.204 245.75 155.594C245.658 155.613 245.569 155.621 245.483 155.621L245.481 155.625ZM250.668 147.586C250.583 147.586 250.493 147.598 250.402 147.621C248.545 148.105 247.632 148.313 245.746 148.687C245.161 148.802 244.684 149.361 244.684 149.932V154.545C244.684 154.806 244.785 155.032 244.966 155.182C245.157 155.338 245.415 155.393 245.693 155.334C247.569 154.947 248.481 154.73 250.334 154.233C250.917 154.078 251.39 153.479 251.39 152.9V148.327C251.39 148.075 251.296 147.865 251.125 147.732C250.999 147.635 250.843 147.586 250.668 147.586V147.586Z" fill="#647A8E"/>
<path d="M240.895 149.942C232.829 150.921 224.95 150.831 216.907 149.673C215.945 149.519 215.947 151.31 216.907 151.46C224.95 152.602 232.831 152.676 240.895 151.681C241.863 151.546 241.861 149.81 240.895 149.942Z" fill="white"/>
<path d="M229.711 152.51C225.453 152.51 221.203 152.204 216.889 151.592C216.553 151.54 216.281 151.304 216.145 150.947C215.989 150.54 216.038 150.062 216.263 149.782C216.423 149.583 216.66 149.497 216.928 149.54C224.979 150.7 232.814 150.787 240.878 149.809C241.327 149.749 241.673 150.041 241.741 150.54C241.817 151.085 241.521 151.727 240.913 151.812C237.143 152.278 233.424 152.51 229.711 152.51V152.51ZM216.794 149.795C216.66 149.795 216.551 149.846 216.47 149.949C216.304 150.156 216.271 150.534 216.392 150.852C216.452 151.008 216.602 151.276 216.928 151.329C224.981 152.473 232.815 152.543 240.88 151.549C241.323 151.487 241.537 150.998 241.478 150.577C241.461 150.444 241.364 150.014 240.915 150.074H240.913C232.825 151.056 224.967 150.969 216.891 149.805C216.858 149.799 216.827 149.797 216.796 149.797L216.794 149.795Z" fill="#647A8E"/>
<path d="M211.915 154.707C221.481 156.627 230.93 156.978 240.611 155.773C241.959 155.584 241.953 153.85 240.611 154.035C230.926 155.22 221.48 154.848 211.915 152.909C210.587 152.618 210.591 154.419 211.915 154.707V154.707Z" fill="white"/>
<path d="M229.452 156.61C223.595 156.61 217.782 156.022 211.887 154.839H211.885C211.376 154.728 210.985 154.39 210.841 153.936C210.731 153.59 210.791 153.233 210.997 153.005C211.209 152.773 211.543 152.693 211.942 152.781C221.526 154.724 230.899 155.09 240.594 153.905C241.301 153.808 241.682 154.201 241.743 154.636C241.817 155.174 241.422 155.796 240.629 155.907C236.865 156.374 233.15 156.61 229.452 156.61ZM211.942 154.578C221.528 156.499 230.901 156.848 240.594 155.642C241.243 155.55 241.535 155.073 241.478 154.671C241.438 154.377 241.193 154.088 240.627 154.166C230.901 155.357 221.501 154.987 211.885 153.038C211.578 152.97 211.339 153.02 211.191 153.182C211.047 153.34 211.01 153.597 211.092 153.853C211.207 154.215 211.524 154.484 211.938 154.576L211.942 154.578Z" fill="#647A8E"/>
<path d="M211.915 154.707C221.481 156.627 230.93 156.978 240.611 155.773C241.959 155.584 241.953 153.85 240.611 154.035C230.926 155.22 221.48 154.848 211.915 152.909C210.587 152.618 210.591 154.419 211.915 154.707V154.707Z" fill="#EBEFF3"/>
<path d="M216.907 151.459C224.95 152.6 232.831 152.675 240.895 151.679C241.863 151.544 241.861 149.808 240.895 149.94C232.829 150.919 224.95 150.829 216.907 149.671C215.945 149.518 215.947 151.308 216.907 151.459Z" fill="#ECAD58"/>
<path d="M244.554 149.934V154.547C244.554 155.184 245.077 155.599 245.723 155.467C247.591 155.081 248.522 154.861 250.371 154.364C251.009 154.192 251.526 153.534 251.526 152.902C251.526 151.072 251.526 150.159 251.526 148.329C251.526 147.697 251.009 147.327 250.371 147.493C248.522 147.974 247.591 148.186 245.723 148.557C245.077 148.685 244.554 149.297 244.554 149.934V149.934Z" fill="#F5F7F9"/>
<path d="M245.349 155.626L245.219 155.595C245.015 155.546 244.836 155.443 244.698 155.293L244.609 155.195L244.805 155.014L244.894 155.111C244.995 155.221 245.13 155.299 245.281 155.334L245.411 155.365L245.351 155.624L245.349 155.626ZM245.674 155.614L245.619 155.353L245.75 155.326C245.93 155.289 246.104 155.252 246.269 155.217L246.399 155.189L246.453 155.451L246.323 155.478C246.158 155.513 245.985 155.548 245.802 155.587L245.672 155.614H245.674ZM246.716 155.396L246.66 155.135L246.79 155.108C246.969 155.069 247.14 155.032 247.309 154.995L247.439 154.965L247.497 155.225L247.367 155.254C247.2 155.291 247.027 155.33 246.848 155.369L246.718 155.396H246.716ZM247.756 155.164L247.696 154.905L247.826 154.874C247.999 154.833 248.17 154.792 248.341 154.751L248.471 154.72L248.534 154.979L248.403 155.01C248.23 155.053 248.057 155.094 247.884 155.133L247.754 155.164H247.756ZM248.792 154.915L248.728 154.655L248.856 154.622C249.022 154.579 249.193 154.537 249.372 154.49L249.5 154.457L249.566 154.714L249.438 154.747C249.259 154.794 249.088 154.837 248.922 154.88L248.794 154.913L248.792 154.915ZM244.461 154.883L244.439 154.753C244.428 154.687 244.422 154.618 244.422 154.548V154.065H244.688V154.548C244.688 154.603 244.692 154.657 244.702 154.708L244.723 154.839L244.461 154.883V154.883ZM249.825 154.65L249.756 154.392L250.338 154.238C250.355 154.235 250.375 154.229 250.392 154.223L250.519 154.182L250.6 154.435L250.474 154.476C250.452 154.484 250.429 154.49 250.408 154.496L249.826 154.652L249.825 154.65ZM250.876 154.283L250.713 154.073L250.818 153.991C250.946 153.89 251.059 153.769 251.152 153.632L251.226 153.521L251.446 153.671L251.372 153.782C251.263 153.942 251.133 154.083 250.981 154.201L250.876 154.283V154.283ZM244.688 153.798H244.422V152.999H244.688V153.798ZM251.578 153.391L251.321 153.323L251.355 153.194C251.38 153.096 251.393 152.999 251.393 152.905V152.566H251.66V152.905C251.66 153.022 251.644 153.143 251.613 153.262L251.58 153.391H251.578ZM244.688 152.734H244.422V151.935H244.688V152.734ZM251.66 152.299H251.393V151.5H251.66V152.299ZM244.688 151.668H244.422V150.869H244.688V151.668ZM251.66 151.233H251.393V150.434H251.66V151.233ZM244.688 150.602H244.422V149.936C244.422 149.748 244.461 149.563 244.539 149.382L244.591 149.259L244.836 149.365L244.783 149.487C244.719 149.635 244.688 149.785 244.688 149.936V150.602V150.602ZM251.66 150.167H251.393V149.368H251.66V150.167ZM244.96 149.181L244.768 148.998L244.859 148.901C244.995 148.758 245.151 148.644 245.322 148.558L245.441 148.499L245.559 148.739L245.441 148.797C245.297 148.87 245.166 148.965 245.052 149.086L244.96 149.183V149.181ZM251.66 149.101H251.393V148.302H251.66V149.101ZM245.785 148.682L245.732 148.421L245.862 148.396C246.045 148.359 246.218 148.326 246.383 148.291L246.514 148.264L246.566 148.525L246.436 148.552C246.269 148.585 246.096 148.62 245.915 148.657L245.785 148.682ZM246.829 148.472L246.774 148.211L246.904 148.184C247.083 148.147 247.254 148.11 247.424 148.073L247.554 148.045L247.61 148.306L247.48 148.334C247.311 148.371 247.138 148.408 246.959 148.445L246.829 148.472ZM247.871 148.248L247.812 147.989L247.943 147.96C248.114 147.921 248.285 147.882 248.46 147.839L248.59 147.807L248.65 148.067L248.52 148.098C248.345 148.139 248.174 148.18 248.001 148.219L247.871 148.248ZM251.378 148.094L251.321 147.973C251.257 147.837 251.15 147.73 251.016 147.665L250.896 147.607L251.012 147.367L251.133 147.426C251.323 147.517 251.471 147.667 251.563 147.86L251.619 147.981L251.378 148.096V148.094ZM248.909 148.004L248.845 147.745L248.973 147.714C249.138 147.673 249.309 147.63 249.488 147.585L249.616 147.552L249.681 147.811L249.552 147.845C249.373 147.889 249.202 147.932 249.035 147.973L248.907 148.004H248.909ZM249.941 147.745L249.875 147.488L250.34 147.367C250.408 147.35 250.474 147.338 250.54 147.33L250.672 147.316L250.699 147.581L250.567 147.595C250.515 147.601 250.46 147.611 250.406 147.624L249.941 147.745V147.745Z" fill="#CFD7DF"/>
<path d="M102.756 158.768C125.788 165.46 158.921 159.735 158.921 159.735L160.894 150.632C76.6217 162.06 83.6846 139.444 83.6846 139.444C85.5821 137.39 91.3541 135.964 91.3541 135.964L90.6697 131.924C87.6214 132.559 85.619 133.777 84.3845 134.827C83.1753 135.854 75.4611 150.839 102.758 158.77L102.756 158.768Z" fill="#08C7FB"/>
<path d="M130.268 162.064C117.021 162.064 108.145 160.386 102.742 158.815C96.2235 156.921 91.1805 154.466 87.7531 151.515C85.0002 149.146 83.2914 146.47 82.6712 143.559C81.6914 138.963 83.7385 135.307 84.3509 134.789C85.4882 133.823 87.5042 132.534 90.6576 131.876C90.6712 131.874 90.6848 131.876 90.6945 131.883C90.7062 131.891 90.712 131.903 90.7139 131.915L91.3983 135.954C91.4021 135.98 91.3866 136.003 91.3613 136.009C91.303 136.023 85.599 137.451 83.7249 139.466C83.6705 139.657 82.9453 142.454 85.5057 145.492C88.624 149.192 95.0804 151.697 104.694 152.934C117.922 154.635 136.828 153.844 160.886 150.582C160.902 150.58 160.917 150.586 160.929 150.598C160.94 150.609 160.944 150.625 160.94 150.64L158.967 159.743C158.963 159.763 158.948 159.776 158.928 159.78C158.845 159.794 150.514 161.218 139.478 161.807C136.198 161.982 133.13 162.06 130.268 162.06V162.064ZM90.6284 131.983C87.5237 132.64 85.5349 133.912 84.4131 134.865C83.8902 135.309 81.7964 138.985 82.7665 143.541C84.5259 151.798 94.6157 156.354 102.769 158.724C109.333 160.632 121.026 162.697 139.47 161.715C150.155 161.146 158.302 159.792 158.878 159.694L160.828 150.691C136.791 153.947 117.896 154.735 104.673 153.033C95.0357 151.792 88.5599 149.276 85.4279 145.556C82.7548 142.382 83.6258 139.46 83.6355 139.431C83.6374 139.423 83.6413 139.417 83.6452 139.414C85.4435 137.467 90.7567 136.068 91.2933 135.931L90.6265 131.985L90.6284 131.983Z" fill="#22313B"/>
<path d="M83.6826 139.445C85.58 137.391 91.6262 135.971 91.6262 135.971L91.7409 131.562C88.6925 132.198 85.617 133.78 84.3825 134.829C83.842 136.051 83.3832 137.701 83.6826 139.445V139.445Z" fill="#22313B"/>
<path d="M83.6822 139.493C83.6822 139.493 83.6725 139.493 83.6686 139.491C83.6511 139.486 83.6375 139.472 83.6356 139.452C83.3245 137.632 83.8455 135.921 84.3393 134.807C84.3432 134.801 84.3471 134.795 84.353 134.789C85.6847 133.657 88.8088 132.123 91.7327 131.511C91.7463 131.507 91.7619 131.511 91.7736 131.521C91.7852 131.531 91.7911 131.544 91.7911 131.56L91.6764 135.968C91.6764 135.99 91.6608 136.009 91.6394 136.015C91.5792 136.029 85.5855 137.457 83.7192 139.476C83.7095 139.486 83.6978 139.491 83.6842 139.491L83.6822 139.493ZM84.421 134.857C83.9428 135.941 83.4412 137.586 83.7134 139.341C85.5894 137.422 91.0756 136.054 91.5772 135.931L91.69 131.62C88.8049 132.234 85.7391 133.741 84.421 134.857Z" fill="#22313B"/>
</g>
<rect x="0.5" y="0.5" width="335.693" height="195" rx="3.5" stroke="#CFD7DF"/>
<defs>
<clipPath id="clip0_6545_185109">
<rect width="304" height="165.735" fill="white" transform="translate(14 13)"/>
</clipPath>
</defs>
</svg>
