<svg xmlns="http://www.w3.org/2000/svg" xmlns:xlink="http://www.w3.org/1999/xlink" id="Layer_1" x="0" y="0" version="1.1" viewBox="0 0 100 100" xml:space="preserve"><path fill="#148FCC" d="M49 97.1C23 97.1 1.9 76 1.9 50 1.9 23.9 23 2.8 49 2.8h35.3c6.5 0 11.8 5.3 11.8 11.8V50c.1 26-21 47.1-47.1 47.1z"/><defs><path id="SVGID_1_" d="M48.4 73.3c.6.4 1.4.3 1.8-.3l14.9-20.7 3.4-4.8c.8-1.1 0-2.7-1.4-2.7H44.7l5.5-16.7c.2-.5 0-1.1-.5-1.5-.6-.4-1.4-.3-1.8.3L33 47.6l-3.4 4.8c-.8 1.1 0 2.7 1.4 2.7h22.4l-5.5 16.7c-.2.5 0 1.1.5 1.5z"/></defs><clipPath id="SVGID_2_"><use overflow="visible" xlink:href="#SVGID_1_"/></clipPath><defs><style>@-webkit-keyframes dash1{0%{stroke-dasharray:1,150;stroke-dashoffset:80}50%{stroke-dasharray:60,150;stroke-dashoffset:-8}}</style></defs><defs><style>@-webkit-keyframes dash2{0%{stroke-dasharray:1,120;stroke-dashoffset:30}}</style></defs><defs><style>@-webkit-keyframes dash3{0%{stroke-dasharray:1,150;stroke-dashoffset:20}50%{stroke-dasharray:90,150;stroke-dashoffset:-8}}</style></defs><path style="-webkit-animation:dash1 1.5s ease infinite;animation:dash1 1.5s ease infinite;animation-delay:.4s" fill="none" stroke="#fff" stroke-dasharray="1,150" stroke-linecap="round" stroke-miterlimit="10" stroke-width="10.35" d="M15.1 50h60.5" clip-path="url(#SVGID_2_)"/><path style="-webkit-animation:dash2 1.5s ease-in infinite;animation:dash2 1.5s ease-in infinite" fill="none" stroke="#fff" stroke-dasharray="1,150" stroke-linecap="round" stroke-miterlimit="10" stroke-width="9" d="M55.7 18.8l-28 45" clip-path="url(#SVGID_2_)"/><path style="-webkit-animation:dash3 1.5s ease-in-out infinite;animation:dash3 1.5s ease-in-out infinite;animation-delay:.6s" fill="none" stroke="#fff" stroke-dasharray="1,150" stroke-linecap="round" stroke-miterlimit="10" stroke-width="9" d="M70.4 35.6l-25 42" clip-path="url(#SVGID_2_)"/></svg>