<svg xmlns="http://www.w3.org/2000/svg" width="415" height="94" fill="none" viewBox="0 0 415 94"><circle cx="34" cy="88" r="75" fill="#5993F7"/><path fill="#EA255F" d="M197.993 71.372c5.314-2.477 3.985-8.383 1.347-11.111-.359-.378-.503-.306-.844-.036-.592.466-1.239.861-1.903 1.31 1.059 1.418 1.957 2.854 2.388 4.613.43 1.777.305 3.357-.934 4.757-.126.144-.143.323 0 .503l-.054-.036zm-.808.288c-1.992.358-3.877.215-5.6-.898-.539-.341-.88 0-1.221.215-.502.287-.915.718-1.364 1.077 1.669 1.992 5.995 1.4 8.185-.395zm.808-.27h-.197.054c.036 0 .071-.018.125-.036l.018.018v.018z"/><path fill="#DADF00" d="M133.057 34.445c.054 1.293 1.4 2.208 2.549 1.706.502-.216.951-.52 1.4-.844 1.203-.862.359-1.67-.144-2.423-.556-.862-.951-.054-1.346.251-.592.467-1.346.52-1.992.844-.198.107-.611.036-.467.449v.017z"/><path fill="#EA255F" d="M132.195 24.303c.198.647.449 1.239 1.167 1.454.036-.7 1.041-1.418-.144-2.064-.807-.449-1.13-.305-1.041.628l.018-.018z"/><path fill="#9FD665" d="M129 43.636c.072.251.144.592.503.449.323-.126.861 0 .915-.377.072-.377-.305-.61-.736-.575-.341.018-.628.072-.682.485v.018z"/><path fill="#F6615A" d="M143.396 23.478c.036.287.18.574.593.502.341-.054.628-.251.646-.592.036-.377-.287-.413-.557-.377-.269.036-.7-.144-.664.467h-.018zm.611 21.145c.035.288.179.575.592.503.341-.054.628-.251.646-.592.036-.377-.287-.413-.556-.377-.27.036-.7-.144-.664.466h-.018z"/><path fill="#EA950C" d="M166.388 74.986c-.764-.573-1.603-1.01-2.326-1.657a9.986 9.986 0 01-1.896-2.285c-.983-1.658-1.419-3.67-1.017-5.553.055-.252.266-.361.498-.43.355-.109.716-.204 1.078-.3-.082.137-.246.191-.396.246-.184.061-.368.136-.552.211-.082.034-.184.082-.232.164-.055.089-.014.212-.007.307.02.26.055.519.089.778.068.511.163 1.023.259 1.528.116.607.232 1.214.423 1.8a7.671 7.671 0 004.379 4.707c-.068-.027-.266.43-.293.47l-.007.014zm-1.549-10.975c-.163.014-.347.014-.484.116-.157.11-.191.307-.32.443-.266.28-.635.464-1.024.485.219.088.471.136.71.13.204-.008.409-.055.6-.15.266-.13.498-.335.764-.458.068-.034.143-.061.198-.109.095-.082.164-.28.061-.382-.109-.11-.375-.089-.511-.075h.006z"/><path fill="#EA950C" d="M167.554 73.65c.028.109-.082.204-.17.272-.15.103-.294.205-.464.28a.784.784 0 01-.525.055c-.028-.007-.069-.014-.082.013v.034l.041.6c0 .041.013.09.048.096h.054c.437-.136.832-.375 1.201-.641.191-.137.218-.212.095-.396a1.032 1.032 0 01-.164-.58.757.757 0 01.28-.58c.191-.143.437-.163.675-.184.328-.027 1.146-.15 1.337.198.13.239-.177.41-.354.532a2.562 2.562 0 01-.655.328 1.084 1.084 0 00-.771-.11.571.571 0 00-.286.144.27.27 0 00-.055.3"/><path fill="#38BEE3" d="M168.755 72.954c-.328.402-.314.545.034.648.211.061.259-.069.321-.205-.219-.068-.294-.246-.355-.443z"/><path fill="#EA255F" d="M168.755 72.954c.061.19.136.375.355.443.013-.211.32-.43-.041-.628-.246-.136-.341-.095-.314.191v-.006z"/><path fill="#FAAF2A" d="M169.225 72.21c.151.089.648.382.621.6 0 .055-.054.096-.095.13a4.239 4.239 0 01-.86.518c-.109.055-.348-.088-.47-.095-.198-.014-.485.034-.628.184-.143.15-.089.273-.027.443 0 .02.013.035.007.055 0 .02-.021.034-.041.048a3.313 3.313 0 01-.887.511.763.763 0 01-.3.062c-.239 0-.573-.28-.778-.403a10.153 10.153 0 01-.798-.539 9.876 9.876 0 01-1.439-1.337c-.873-.989-1.562-2.162-1.951-3.424-.368-1.18-.457-2.455-.184-3.663.041-.184.279-.17.429-.225.246-.082.485-.19.73-.286a.322.322 0 01.116-.028c.075 0 .137.075.191.123.198.184.485.191.737.096.184-.069.382-.205.512-.355.129-.15.177-.348.334-.464.157-.123.6-.102.791-.11.048 0 .102 0 .136.035.021.02.028.055.028.089.027.32-.068.696-.109 1.016-.191 1.535-.055 3.035.811 4.373.607.927 1.46 1.684 2.401 2.257.205.123.471.246.717.382l.006.007z"/><path fill="#EA950C" d="M164.069 66.282a.26.26 0 01.15.116c.129.225.122.587.163.833.055.327.13.654.232.975a6.96 6.96 0 00.846 1.753c.321.477.696.92 1.126 1.303.211.19 1.105.662.989.989-.15.396-1.194.607-1.59.552-.75-.095-1.534-.92-1.985-1.425a5.897 5.897 0 01-1.248-2.176c-.211-.682-.382-1.412-.348-2.128.021-.512.491-.621.907-.723.178-.041.539-.15.764-.069h-.006z"/><g clip-path="url(#clip0_1003_3111)"><path fill="#110239" d="M70.128 65.216L82.596 98.74s-3.575 5.325-4.936 4.09c-1.34-1.257-21.447-29.989-23.468-31.629-2.043-1.64 15.936-5.985 15.936-5.985z"/><path fill="#FD425F" d="M33.766 65.514c.617 2.47 1.51 5.261 2.745 7.54 1.319 2.45 4.149 3.663 6.85 3.024 7.98-1.916 27.511-6.474 32.17-6.666 5.894-.234 27.107 2.833 27.107 2.833L81.362 26.559s-11.553 18.253-21.32 23.343c-6.34 3.323-16 6.39-22 8.136a6.224 6.224 0 00-4.276 7.476z"/><path fill="#110239" d="M49.085 75.27c2.34-.533 4.787-1.087 7.213-1.62-8.83-4.877-9.596-16.016-7.213-19.445a149.039 149.039 0 01-6.894 2.492c-.617 5.729 3.213 15.867 6.894 18.572zM33.17 65.344c.51 3.216 1.872 6.368 3.915 8.86.617.767 1.277 1.427 2.128 1.96l.319.191c.553.298 2.808 1.023 3.277.192.276-.49-1.405-1.683-1.767-2.087a17.538 17.538 0 01-3.255-5.282c-1.042-2.641-1.915-6.156-1.276-9.052.127-.597.595-1.427.574-2.024 0-.17-.106-.362-.276-.383-.234-.043-.617 0-.873 0-.894-.064-1.596.575-2 1.342-.957 1.917-1.106 4.174-.766 6.304v-.021z"/><path fill="#FFA733" d="M111.511 44.684c5.127 15.1 2.085 29.094-6.809 31.267-8.894 2.172-20.234-8.307-25.362-23.408-5.127-15.1-2.085-29.094 6.809-31.266 8.894-2.173 20.234 8.306 25.362 23.407z"/><path fill="#110239" d="M111.085 46.133c4.362 12.843 1.766 24.749-5.787 26.602-7.553 1.853-17.213-7.072-21.575-19.915-4.361-12.843-1.766-24.749 5.788-26.602 7.553-1.853 17.212 7.071 21.574 19.915z"/><path fill="#E6FBFC" d="M95.234 52.437c-1.191-4.664-5.468-7.902-9.553-7.263-1.404.213-2.575.895-3.49 1.832.34 1.895.83 3.834 1.511 5.814a41.606 41.606 0 004.447 9.223c.617.063 1.234.085 1.851 0 4.085-.66 6.425-4.963 5.234-9.627v.02z"/><path fill="#2CCDF2" d="M59.713 23.79h.68a.7.7 0 01.263.032c.217.077.31.465.604.217.139-.124.092-.31.232-.403.123-.078.541-.031.696-.046.046 0 .108 0 .154.015a.159.159 0 01.078.093 7.1 7.1 0 01.959 2.386c.185.899.139 1.766-.248 2.603a.39.39 0 01-.108.155c-.077.062-.201.062-.31.047a2.462 2.462 0 01-.464-.093.63.63 0 00-.37-.372c-.28-.093-.418.17-.65.263-.279.124-.635 0-.898-.124-.03 0-.046-.03-.061-.046-.047-.062.03-.295.046-.372.031-.202.062-.403.077-.604 0-1.349-.2-2.495-.68-3.75z"/></g><path fill="#2CCDF2" d="M126.586 48.965c.036-.395.108-.772.215-.88.126-.125.341-.09.521-.036l2.1.593c.126.036.233.072.323.161.18.18 0 .395.072.593.108.269.323.502.556.682.288.215 1.006.574 1.365.395.305-.162.107-.234.215-.503.197-.43 2.459 1.22 2.657 1.544.072.107.107.233.143.34.593 1.85.395 3.627.126 5.512a19.256 19.256 0 01-.88 3.5c-.933 2.71-2.208 5.367-4.074 7.557a.247.247 0 00-.054.072c-.036.036-.072.09-.126.108-.072.036-.143 0-.197 0-.18-.036-.341-.072-.521-.108-.287-.072-1.167-.18-1.364-.413-.09-.108-.054-.413-.09-.574a1.821 1.821 0 00-.323-.682c-.251-.36-.646-.629-1.095-.665-.449-.035-.897.198-1.059.61-.7-.304-1.4-.592-2.082-.897-.539-.233-1.149-.251-.988-.951.144-.646.862-1.436 1.167-2.029a30.121 30.121 0 001.867-4.433c.574-1.831 1.023-3.698 1.239-5.619.107-.951.089-1.92.197-2.872.018-.197.036-.61.072-1.005h.018z"/><path fill="#1695DB" d="M125.599 62.033c-.27.43-.539.933-.359 1.4.143.34.484.538.807.718.431.233.862.467 1.311.682.431.233.897.43 1.4.287.467-.144.844-.592 1.131-.951 1.131-1.329 1.956-2.89 2.477-4.542.502-1.615.844-3.59.377-5.241-.18-.664-.862-1.06-1.508-1.31-.664-.27-1.58-.683-2.28-.593-.107 0-.879 3.985-1.059 4.506-.61 1.74-1.328 3.446-2.297 5.044z" opacity=".46"/><path fill="#38BEE3" d="M187 45.902c.754.934 1.436 1.885 2.405 2.28.988.395 1.67-.682 2.226-1.257 1.562-1.615 2.908-3.428 4.326-5.17.377-.448.395-.861-.036-1.31-1.813-1.938-1.813-1.938-3.554.072-1.561 1.795-2.944 3.77-5.026 5.044-.126.072-.215.233-.323.359l-.018-.018zm218-39c.754.934 1.436 1.885 2.405 2.28.988.395 1.67-.682 2.226-1.257 1.562-1.615 2.908-3.428 4.326-5.17.377-.448.395-.861-.036-1.31-1.813-1.939-1.813-1.939-3.554.072-1.562 1.795-2.944 3.77-5.026 5.044-.126.072-.215.233-.323.359L405 6.902z"/><path fill="#9FD665" d="M126.54 10.975c.054-.144.108-.288.161-.413.108-.27.198-.36.503-.108 1.346 1.113 3.393 1.149 4.775.18.592-.413.808-1.042 1.131-1.634 0 1.13-.359 2.172-.772 3.16-1.023 2.405-2.944 2.871-5.224 2.135-.466-.143-1.149-.43-1.113-1.023 0-.18.036-.377.072-.556.952-.054 1.095-1.293.467-1.741z"/><path fill="#7A43A2" d="M116.238 22.825c-.18-1.167-.521-2.37-1.221-3.339-.772-1.023-1.759-.161-2.567.144-1.023.377 0 .808.126 1.203.305.933.7 1.83.879 2.782.162.808.431 1.041 1.167.61.629-.359 1.795-.09 1.616-1.418v.018z"/><path fill="#9FD665" d="M166.232 47.15c.88-.844 1.185-1.957 1.364-3.034.216-1.31.79-1.274 1.634-.862-.09.395.126.844.646.844.252 0 .431-.108.539-.287.287.18.52.413.574.79-.215 1.74-.808 3.195-1.831 4.47-.143.16-.269.215-.467.143-.215-.09-.412-.18-.628-.27.234-.394.036-1.058-.556-1.058a.63.63 0 00-.646.52 6.442 6.442 0 01-.611-.305c-.377-.197-.287-.7 0-.951h-.018zm20.501-45.119c-.825 1.418-2.818 1.239-5.026.646-1.023-.269-2.064-.538-3.033-.646-1.706-.215-2.136.718-2.424 1.831-.395 1.526.216 3.375.826 5.224.467 1.418.072 1.597-1.669.61-1.526-.862-2.998-1.885-4.56-2.71-1.472-.79-2.962-.772-3.464.035-.431.7-.7 1.472-.575 2.478.108.79 0 1.49-.107 2.172-.09.556-.682.969-1.526.754-1.257-.324-.987.502-1.167 1.005-.036.072.054.305.126.34.305.18.592.252.861.234 1.185-.072 1.616-.808 1.939-1.615.341-.88.251-1.957.251-2.998 0-1.76 1.436-1.993 3.788-.682 1.274.718 2.477 1.543 3.716 2.297 1.902 1.15 2.656 1.041 3.069-.197.341-1.077.054-2.352-.395-3.698-.233-.7-.359-1.382-.61-2.1-.467-1.293.018-1.418 1.4-1.436 1.149 0 2.495.43 3.788.772 3.015.825 5.008-.108 4.792-2.316z"/><path fill="#FAAF2A" d="M197.908 18.921c.093-.277.139-.606.024-.883a.7.7 0 00-.277-.329c-.039-.025-.4-.176-.385-.201-.054.1-.131.227-.239.201-.077-.016-.123-.1-.153-.176-.031-.085-.054-.169-.093-.236-.061-.118-.623-.446-.569-.219.1.438.138.892.108 1.347a4.196 4.196 0 01-.108.69c-.023.1-.039.244-.092.337-.039.075-.131.075-.124.193 0 .084.085.286.154.337.085.067.208.025.293.1.03.026.054.076.061.119a.583.583 0 01.016.227c0 .025-.008.05 0 .084 0 .017.007.034.015.05.031.076.123.413.2.438.585-.513.916-1.288 1.169-2.062v-.017z"/><path fill="#F9B12E" d="M150.001 29.317c.143.341.337.654.7.682.169.014.311-.17.298-.37-.039-.454-.415-.497-.713-.61-.181-.072-.298.07-.285.298z"/><path fill="#DADF00" d="M155.704 27.675a6.007 6.007 0 01-2.793-.907 6.924 6.924 0 01-1.179-.943c-.194-.2-.328-.494-.546-.671-.462-.377-.632.012-.96.389-.389.436 0 .47.085.966.049.247.024.542-.17.707-.134.118-.328.153-.522.165-.292 0-.571-.071-.729-.307-.328.354-.838.978-.887 1.461-.024.26.097.495.243.72.753 1.166 2.49 2.25 3.863 2.591 1.725.436 3.632-.094 5.041-1.107.255-.177 2.733-2.534 2.539-2.687-.292-.224-.219-.683.012-.954.474-.577.935-.742 1.263-1.45.049-.094.061-.247-.048-.259-.838.46-1.337 1.285-2.272 1.72a5.927 5.927 0 01-2.94.554v.012z"/><path fill="#C1C10E" d="M157.631 29.871a1.56 1.56 0 01-.353.299 5.547 5.547 0 01-1.398.609c-1.124.31-2.339.286-3.463-.025-.797-.224-1.568-.584-2.208-1.094-.104-.087-.209-.186-.209-.31 0-.138.105-.25.209-.337.523-.46 1.019-1.293 1.856-.92.222.1.405.25.601.386 1.189.82 2.639.783 3.985.385.418-.124 1.411-.72 1.346.087a1.495 1.495 0 01-.366.895v.025z"/><defs><clipPath id="clip0_1003_3111"><path fill="#fff" d="M0 0h81v82H0z" transform="translate(33 21)"/></clipPath></defs></svg>