<svg xmlns="http://www.w3.org/2000/svg" viewBox="0 0 650.19 220"><defs><clipPath id="fs-jidza7h1ya"><path fill="none" d="M-5.92-1.17h660.84v225.16H-5.92z"/></clipPath></defs><g data-name="Layer 2"><path fill="#130b2e" d="M-5.92-3.63h660.84v233.59H-5.92z"/><g clip-path="url(#fs-jidza7h1ya)"><path d="M8.86 197.73a221.83 221.83 0 0133.21-.73c30.2 1.57 60.07 9.33 90.28 7.92 37.91-1.76 65.14-18.26 94.88-39.41 28.82-20.5 61.43-38.69 97.65-39.75 39.48-1.16 76.43 18.13 110.37 38.33 17.64 10.5 35.39 21.54 55.29 26.62 25.83 6.6 52.7 3 79 5.53 27.35 2.66 47.28 15.76 72.42 24.61-8.64-3-25.56 1.09-34.84 1.49L566.88 224c-22.78 1-43.91.51-66.67 3.16-16.32 1.91-34.41 1.28-49.79 7.26-14.91 5.8-29 8.89-45 11.78l-228.68 41.44C113 299.19 47.91 310.77-16.18 301.43c-23-3.34-48-11.22-59.17-31.58-6.41-11.74-5.85-18.22.49-29.72 10.1-18.35 21.89-28.22 42.25-34.27a220.94 220.94 0 0141.47-8.13z" style="mix-blend-mode:lighten" fill="#48cbff" opacity=".09"/><path d="M325 131.13a189.74 189.74 0 0169.75 18.42c24.2 11.55 46.46 26.86 70.94 37.82a112.5 112.5 0 0037.21 9.54c12 1 24.13.19 36.16-.44 7-.36 13.87-.68 20.83-.39a179.1 179.1 0 0120.4 2.06c1.78.29 3.55.59 5.32.92a106.11 106.11 0 00-16.1-2.86c-26.26-2.56-53.13 1.07-79-5.53-19.9-5.08-37.65-16.12-55.29-26.62-33.94-20.2-70.89-39.49-110.37-38.33a127.74 127.74 0 00-37.3 7 168.07 168.07 0 0137.45-1.59z" style="mix-blend-mode:lighten" fill="#48cbff" opacity=".07"/><path d="M111.62 175.7c-4.55 3.64-9.56 6.82-13.22 11.43-9.9 12.47-7.79 29.71-15 43.43-8.09 15.47-23 22.31-40.35 22.91-15.19.53-29.95-4.51-44.46-9-11.21-3.47-23-7-31.36-15.19-7-6.92-10.82-16.57-12.34-26.31s-.91-19.66-.21-29.49c.51-7.24 1.07-14.6 3.34-21.55 2.06-6.3 5.37-9.1 9.61-13.75a71.66 71.66 0 0134.19-20.93c12-3.33 24.61-3.91 37-2.85 11.87 1 22.91 6.37 34.64 8.69A93.44 93.44 0 0086 125a54 54 0 0012.61-1.24c.59-.1 8.23-1.51 8.1-1.79 2.11 4.48 3.82 8.09 6.23 12.61 1.93 3.63 3.94 7.23 5.83 10.88 1 2.33 3 4.17 4.14 6.41 1.19 1.94 1.54 4.19 2.74 6.13a.53.53 0 01.11.31.55.55 0 01-.14.26c-4.34 5.41-7.37 11.62-12.72 16.1-.45.33-.9.7-1.28 1.03z" style="mix-blend-mode:lighten" fill="#66b6ff" opacity=".25"/><path d="M139.89 52.19a72.72 72.72 0 0040.84-37.89c7.77-17.3 4.89-40.41-10.45-51.62-10.15-7.42-23.48-8.51-36.05-9q-32.34-1.34-64.74 0C51-45.57 32.1-44 15.06-36.78c-32.73 14-52.54 45.2-39.68 80.53 13.27-17.23 39-19.18 60-13.25S75.06 48.46 96 54.37a70.33 70.33 0 0043.89-2.18z" style="mix-blend-mode:lighten" fill="#48cbff" opacity=".09"/><path d="M176.16 4.16a128.32 128.32 0 01-15.31 23.5 88 88 0 01-19.95 17.93 70.22 70.22 0 01-24.66 9.91 71.09 71.09 0 01-8.33 1.08 71.56 71.56 0 0032-4.39 72.72 72.72 0 0040.82-37.89 48.85 48.85 0 003.42-28.23 172.48 172.48 0 01-7.99 18.09z" style="mix-blend-mode:lighten" fill="#48cbff" opacity=".07"/><path fill="#ef5050" d="M111.53 130c0 .06-5.61 3.43-5.92 3.61q-7.92 5-15.63 10.23-10.71 7.3-21 15.2-5.65 4.38-11.13 9c-1.85 1.55-3.67 3.13-5.48 4.73-.91.8-1.8 1.6-2.69 2.41a12.34 12.34 0 00-2.44 2.28c-1 1.62 1 1.38 1.9 1.27 4.46-.54 8.87-2.11 13.1-3.53 6.57-2.19 13-4.65 19.47-7.21q10.72-4.3 21.29-8.99c6.21-2.77 12.39-5.63 18.43-8.75z"/><path fill="#e4965e" d="M112.93 133.69S88 148.34 69.35 166c1.42 2.54 34.42-10.61 50.18-18.74z"/><path fill="#e2b05b" d="M113.81 135.73s-18.2 10.68-31.75 23.51c1 1.85 25.07-7.73 36.56-13.65z"/><path fill="#e0d84e" d="M114.46 136.82s-12.85 7.93-22.46 17.47c.73 1.38 17.71-5.74 25.81-10.14z"/><circle cx="100.1" cy="129.99" r=".42" fill="#e4f8f8"/><path fill="#318fdb" d="M114.03 161.46l.37.75.83.12-.6.59.14.82-.74-.39-.75.39.15-.82-.6-.59.83-.12.37-.75zM68.02 199.93h1.52v1.52h-1.52z"/><circle cx="48.11" cy="165.86" r=".42" fill="#318fdb"/><circle cx="99.84" cy="167.2" r=".28" fill="#e4f8f8"/><circle cx="68.21" cy="143.66" r=".56" fill="#e4f8f8"/><circle cx="16.79" cy="174.76" r=".7" fill="#e4f8f8"/><circle cx="89.11" cy="153.48" r=".56" fill="#e4f8f8"/><circle cx="36.35" cy="180.57" r=".42" fill="#318fdb"/><circle cx="22.13" cy="149.98" r=".56" fill="#318fdb"/><circle cx="80.53" cy="180.99" r=".42" fill="#e4f8f8"/><circle cx="89.11" cy="164.12" r=".38" fill="#e4f8f8"/><circle cx="97.41" cy="142.75" r=".3" fill="#e4f8f8"/><circle cx="43.99" cy="143.2" r=".45" fill="#e4f8f8"/><path fill="#318fdb" d="M82.715 143.303l-.855-.855.855-.856.856.856z"/><circle cx="54.02" cy="123.19" r="1.2" fill="#318fdb"/><rect width="2.91" height="2.91" x="49.91" y="153.77" fill="#e4f8f8" rx=".97"/><rect width="1.99" height="1.99" x="109.04" y="175.29" fill="#e4f8f8" rx=".66"/><rect width="3.36" height="3.36" x="12.73" y="121.99" fill="#e4f8f8" rx="1.11"/><path fill="#3d85e0" d="M101.27 89.43l17 14.34a118.94 118.94 0 00-10.72 15.52l-1.81 3.14 19.19 37 3.61.35a120 120 0 0018.86.17l1.92 22.18a1.32 1.32 0 001.43 1.21 1.2 1.2 0 00.52-.15l16.17-8.39a21.25 21.25 0 0010.78-13.49l2.07-8c28.06-9.59 60.41-31.76 83-81.18a8.87 8.87 0 00-4.2-11.81 9 9 0 00-2.26-.72c-53.39-10-90.16 3.74-114.14 21.1l-7.74-2.9a21.22 21.22 0 00-17.21 1l-16.18 8.39a1.33 1.33 0 00-.71 1.74 1.29 1.29 0 00.42.5z"/><path fill="#2b4bcf" d="M178.25 161.33l2.07-8c28.06-9.59 60.41-31.76 83-81.18A8.81 8.81 0 00263 64l-147.79 76.65 9.75 18.8 3.61.35a120 120 0 0018.86.17l1.92 22.18a1.32 1.32 0 001.43 1.21 1.2 1.2 0 00.52-.15l16.17-8.39a21.25 21.25 0 0010.78-13.49z" opacity=".88"/><path fill="none" stroke="#0e0e31" stroke-linecap="round" stroke-miterlimit="10" stroke-width="2" d="M148.36 159.49s15.7.95 30.8-5.59M125.59 108.88a75 75 0 0120.31-19.07"/><path fill="none" stroke="#f2f1d4" stroke-linecap="round" stroke-miterlimit="10" stroke-width=".75" d="M118.07 139.51l138.04-71.62"/><circle cx="247.88" cy="75.22" r="1.05" fill="#f2f1d4"/><circle cx="241.13" cy="78.73" r="1.05" fill="#f2f1d4"/><circle cx="227.61" cy="85.74" r="1.05" fill="#f2f1d4"/><circle cx="214.09" cy="92.75" r="1.05" fill="#f2f1d4"/><circle cx="220.85" cy="89.25" r="1.05" fill="#f2f1d4"/><circle cx="233.92" cy="82.47" r="1.05" fill="#f2f1d4"/><circle cx="164.62" cy="118.42" r="1.05" fill="#f2f1d4"/><circle cx="157.86" cy="121.93" r="1.05" fill="#f2f1d4"/><circle cx="144.35" cy="128.94" r="1.05" fill="#f2f1d4"/><circle cx="130.83" cy="135.96" r="1.05" fill="#f2f1d4"/><circle cx="137.59" cy="132.45" r="1.05" fill="#f2f1d4"/><circle cx="150.65" cy="125.67" r="1.05" fill="#f2f1d4"/><path fill="#ec5d25" d="M121.92 87.31a21.35 21.35 0 0117.28-1l7.8 2.94c24.08-17.43 61-31.18 114.61-21.18a9.46 9.46 0 011.39.36 5 5 0 01.68.25.82.82 0 01.29.23c.06.1 0 .25.14.31a8.85 8.85 0 00-4.71-9.07 8.7 8.7 0 00-2.27-.72c-53.62-10-90.53 3.75-114.61 21.18l-7.78-2.91a21.38 21.38 0 00-17.28 1l-16.26 8.39a1.35 1.35 0 00-.72 1.75 1.29 1.29 0 00.43.55l6.48 5.46zM151.75 168.86c-1.24.09-2.48.15-3.72.2l1.16 13.43a1.33 1.33 0 001.44 1.22 1.56 1.56 0 00.52-.15l1.79-.93z"/><circle cx="189.25" cy="102.58" r="25.9" fill="#0e0e31"/><circle cx="189.25" cy="102.58" r="20.84" fill="#fdfeff"/><path d="M207.73 93a20.84 20.84 0 00-37.4 18.36 17.91 17.91 0 11.85 1.64 20.84 20.84 0 0036.55-20z" style="mix-blend-mode:soft-light" fill="#0e0e31"/><path fill="#148fcc" d="M187.77 115.87a13.29 13.29 0 01-13.28-13.29 13.29 13.29 0 0113.28-13.28h10a3.32 3.32 0 013.32 3.32v10a13.3 13.3 0 01-13.32 13.25z"/><path fill="#fff" d="M187.57 109.16a.41.41 0 00.54-.08l4.49-5.82 1.05-1.35a.49.49 0 00-.43-.77h-6.75l1.64-4.71A.35.35 0 00188 96a.41.41 0 00-.54.08l-4.46 5.85-1 1.36a.48.48 0 00.42.77h6.76l-1.65 4.7a.34.34 0 00.04.4z"/><circle cx="227.27" cy="160.5" r="3.78" fill="#ec5d25"/><path fill="#ea126c" d="M229.36 160.5a3.78 3.78 0 00-2.94-3.68 3.41 3.41 0 01.85-.1 3.79 3.79 0 010 7.57 4 4 0 01-.85-.1 3.8 3.8 0 002.94-3.69z"/><circle cx="52.57" cy="52.18" r="6.56" fill="#ec5d25"/><path fill="#ea126c" d="M48.15 52.18a6.55 6.55 0 015.49-6.47 6.35 6.35 0 00-1.07-.09 6.56 6.56 0 000 13.12 6.35 6.35 0 001.07-.09 6.55 6.55 0 01-5.49-6.47z"/><path fill="none" stroke="#f2f1d4" stroke-linecap="round" stroke-miterlimit="10" stroke-width="1.12" d="M58.6 50c5.28-2.24 9.15-3.5 9.4-3 .32.69-5.72 4.19-13.49 7.81s-14.33 6-14.65 5.31c-.22-.48 2.65-2.32 7-4.63"/><ellipse cx="50.98" cy="53.67" fill="#ea126c" opacity=".5" rx="1.64" ry="2"/><ellipse cx="55.29" cy="49.19" fill="#ec5d25" rx="1.1" ry="1.34" style="mix-blend-mode:multiply" opacity=".5"/><ellipse cx="56.29" cy="56.28" fill="#ec5d25" rx=".6" ry=".62" style="mix-blend-mode:multiply" opacity=".5"/><ellipse cx="51.95" cy="50.62" fill="#ec5d25" rx=".66" ry=".7" style="mix-blend-mode:multiply" opacity=".2"/><path fill="none" stroke="#f2f1d4" stroke-miterlimit="10" stroke-width=".5" d="M223.79 159c-2.88-1.22-4.77-1.82-4.9-1.53s3.11 2.28 7.35 4.26 7.81 3.27 8 2.9-1.21-1.15-3.61-2.4"/><path d="M222.82 192.69A165.44 165.44 0 01244 182.35c17.86-7.06 36.49-3.72 54.72 1.5 37.66 10.79 73.33 33 113.57 32.41 19.94-.27 39.27-6.42 58.9-9.93a224.52 224.52 0 0174.42-.76c29.13 4.6 57.5 15 87 15.33-35.05 15.39-75.22 8.62-113.46 6.89-55-2.48-110 6.14-165.1 5.32-41.57-.62-83-6.62-124.58-5.25-14.15.47-28.58 1.1-42.58 2.06-7.9.54-15.65 2.13-23.63 2.35-6.78.19-14.07-1.33-20.74-.73 18.93-1.69 35.81-11.07 51.59-21 9.58-6.06 18.95-12.3 28.71-17.85zM-8.78 4.62A31.88 31.88 0 002.87 8.89c5.16.49 10.37.17 15.52.71 8.18.85 16 3.83 23.9 6 20 5.58 40.83 1.06 58.67-9.06 7.48-4.25 14.6-9.62 19.06-17 1.56-2.57 2.51-6.43 0-8.13-1.36-.95-3.19-.72-4.83-.43-12.42 2.32-24.49 6.29-36.79 9.27A237.69 237.69 0 013.32-3.83C0-4.1-3.54-4.44-6.75-3.37-14-1-12.59 2.14-8.78 4.62z" style="mix-blend-mode:lighten" fill="#48cbff" opacity=".29"/></g></g></svg>