<svg width="151" height="106" viewBox="0 0 151 106" fill="none" xmlns="http://www.w3.org/2000/svg">
<g clip-path="url(#clip0_40367_125352)">
<path d="M85.8899 0.499922L88.5599 0.419922V0.579922L85.8899 0.499922Z" fill="#27313A"/>
<path d="M90.78 0.36957L93.45 0.30957V0.68957L90.78 0.62957V0.36957Z" fill="#27313A"/>
<path d="M95.6699 0.259727L98.3399 0.219727V0.779727L95.6699 0.739727V0.259727Z" fill="#27313A"/>
<path d="M100.57 0.180391L103.23 0.150391V0.850391L100.57 0.810391V0.180391Z" fill="#27313A"/>
<path d="M105.46 0.120078L108.13 0.0800781V0.920078L105.46 0.880078V0.120078Z" fill="#27313A"/>
<path d="M110.35 0.0695703L113.02 0.0595703V0.93957L110.35 0.92957V0.0695703Z" fill="#27313A"/>
<path d="M115.24 0.0502734L117.91 0.0302734V0.970273L115.24 0.950273V0.0502734Z" fill="#27313A"/>
<path d="M120.13 0.0197656L122.8 0.00976562V0.989766L120.13 0.979766V0.0197656Z" fill="#27313A"/>
<path d="M125.02 0L127.69 0.01V0.99L125.02 1V0Z" fill="#27313A"/>
<path d="M129.92 0.0195312L132.58 0.0295312V0.959531L129.92 0.979531V0.0195312Z" fill="#27313A"/>
<path d="M134.81 0.0400391L137.48 0.0600391V0.940039L134.81 0.950039V0.0400391Z" fill="#27313A"/>
<path d="M139.73 0.110352C140.65 0.190352 141.56 0.370352 142.44 0.670352L142.18 1.46035C141.36 1.20035 140.52 1.03035 139.66 0.970352L139.73 0.110352Z" fill="#27313A"/>
<path d="M144.53 1.62988C145.32 2.08988 146.06 2.64988 146.72 3.28988L146.25 3.79988C145.61 3.21988 144.9 2.71988 144.15 2.29988L144.53 1.62988Z" fill="#27313A"/>
<path d="M148.21 5.01953C148.73 5.76953 149.17 6.57953 149.5 7.42953L148.98 7.63953C148.64 6.83953 148.21 6.08953 147.69 5.38953L148.2 5.01953H148.21Z" fill="#27313A"/>
<path d="M150.12 9.62012C150.28 10.5101 150.3 11.4401 150.27 12.3201H149.9C149.9 11.4301 149.83 10.5601 149.64 9.71012L150.12 9.62012Z" fill="#27313A"/>
<path d="M150.21 14.54L150.15 17.21H150.01L149.95 14.54H150.21Z" fill="#27313A"/>
<path d="M0.259902 88.0498L0.369902 90.7098H0.149902L0.259902 88.0498Z" fill="#27313A"/>
<path d="M0.44 92.9404L0.52 95.6104H0L0.08 92.9404H0.44Z" fill="#27313A"/>
<path d="M0.670068 97.7695C0.830068 98.6095 1.13007 99.4195 1.56007 100.16L0.930068 100.5C0.500068 99.6795 0.210068 98.7795 0.0700684 97.8695L0.670068 97.7695Z" fill="#27313A"/>
<path d="M2.85003 101.84C3.46003 102.43 4.15003 102.93 4.90003 103.31L4.51003 104.08C3.68003 103.65 2.92003 103.08 2.28003 102.4L2.85003 101.84Z" fill="#27313A"/>
<path d="M6.87995 103.99C7.28995 104.07 7.70995 104.11 8.12995 104.13H9.44995V105.05H8.09995C7.62995 105.02 7.15995 104.96 6.69995 104.87L6.86995 103.99H6.87995Z" fill="#27313A"/>
<path d="M11.6799 104.11L14.3499 104.09V105.08L11.6799 105.06V104.11Z" fill="#27313A"/>
<path d="M16.5701 104.09L19.2401 104.11V105.06L16.5701 105.07V104.09Z" fill="#27313A"/>
<path d="M21.46 104.13L24.13 104.14V105.02L21.46 105.04V104.13Z" fill="#27313A"/>
<path d="M26.3501 104.16L29.0201 104.21V104.96L26.3501 105.01V104.16Z" fill="#27313A"/>
<path d="M31.25 104.25L33.92 104.31V104.86L31.25 104.92V104.25Z" fill="#27313A"/>
<path d="M36.1399 104.36L38.8099 104.45V104.72L36.1399 104.81V104.36Z" fill="#27313A"/>
<path d="M41.03 104.52L42.42 104.58L41.03 104.65V104.52Z" fill="#27313A"/>
<path d="M99.32 78.6203H107.84C108.78 78.6203 109.7 78.4303 110.56 78.0703C111.39 77.7203 112.14 77.2103 112.78 76.5703C113.42 75.9303 113.92 75.1803 114.28 74.3503C114.64 73.4903 114.83 72.5703 114.83 71.6303V45.5603C114.83 44.6203 114.65 43.7003 114.28 42.8403C114.03 42.2403 113.69 41.6803 113.28 41.1803C113.12 40.9903 112.96 40.8003 112.78 40.6203C112.14 39.9803 111.39 39.4803 110.56 39.1203C109.7 38.7603 108.78 38.5703 107.84 38.5703H41.76C40.82 38.5703 39.9 38.7603 39.04 39.1203C38.21 39.4703 37.46 39.9703 36.82 40.6203C36.18 41.2603 35.68 42.0103 35.32 42.8403C34.96 43.7003 34.77 44.6203 34.77 45.5603V71.6303C34.77 72.5703 34.95 73.4903 35.32 74.3503C35.67 75.1803 36.17 75.9303 36.82 76.5703C37 76.7503 37.18 76.9103 37.38 77.0703C37.88 77.4803 38.44 77.8103 39.04 78.0703C39.9 78.4303 40.82 78.6203 41.76 78.6203H99.32Z" fill="white" stroke="#27313A" stroke-miterlimit="10"/>
<path d="M104 44.7601C103.95 44.6901 103.9 44.6301 103.84 44.5701C103.55 44.2801 103.16 44.1201 102.74 44.1201C102.32 44.1201 101.94 44.2801 101.64 44.5701C101.35 44.8601 101.19 45.2501 101.19 45.6701C101.19 46.0901 101.35 46.4701 101.64 46.7701C101.7 46.8301 101.76 46.8801 101.83 46.9301C102.09 47.1201 102.41 47.2201 102.73 47.2201C103.14 47.2201 103.53 47.0601 103.83 46.7701C104.12 46.4801 104.28 46.0901 104.28 45.6701C104.28 45.3401 104.18 45.0301 103.99 44.7701L104 44.7601Z" fill="white" stroke="#27313A" stroke-miterlimit="10"/>
<path d="M109.67 44.7601C109.62 44.6901 109.57 44.6301 109.51 44.5701C109.22 44.2801 108.83 44.1201 108.41 44.1201C107.99 44.1201 107.61 44.2801 107.31 44.5701C107.02 44.8601 106.86 45.2501 106.86 45.6701C106.86 46.0901 107.02 46.4701 107.31 46.7701C107.37 46.8301 107.43 46.8801 107.5 46.9301C107.76 47.1201 108.08 47.2201 108.4 47.2201C108.81 47.2201 109.2 47.0601 109.5 46.7701C109.79 46.4801 109.95 46.0901 109.95 45.6701C109.95 45.3401 109.85 45.0301 109.66 44.7701L109.67 44.7601Z" fill="white" stroke="#27313A" stroke-miterlimit="10"/>
<path d="M48.7 61.9202V93.0702C48.7 93.2202 48.7 93.3802 48.72 93.5302C48.76 94.0802 48.88 94.6102 49.06 95.1102C49.38 95.9902 49.91 96.7702 50.59 97.4002C50.72 97.5202 50.85 97.6302 50.99 97.7402C51.99 98.5102 53.2399 98.9702 54.5999 98.9702H95C96.55 98.9702 97.96 98.3702 99.01 97.3902C99.68 96.7602 100.21 95.9802 100.54 95.1002C100.72 94.6002 100.84 94.0702 100.88 93.5202C100.89 93.3702 100.9 93.2202 100.9 93.0602V61.9102H48.7099L48.7 61.9202Z" fill="white" stroke="#27313A" stroke-miterlimit="10"/>
<path d="M100.9 39.9602V23.8102C100.9 23.6602 100.9 23.5002 100.88 23.3502C100.84 22.8002 100.72 22.2702 100.54 21.7702C100.22 20.8902 99.69 20.1102 99.01 19.4802C98.88 19.3602 98.75 19.2502 98.61 19.1402C97.61 18.3702 96.36 17.9102 95 17.9102H54.5999C53.0499 17.9102 51.64 18.5102 50.59 19.4902C49.92 20.1202 49.39 20.9002 49.06 21.7802C48.88 22.2802 48.76 22.8102 48.72 23.3602C48.71 23.5102 48.7 23.6602 48.7 23.8202V39.9702H100.89L100.9 39.9602Z" fill="white" stroke="#27313A" stroke-miterlimit="10"/>
<path d="M90.4101 73.0301H59.1901C58.4401 73.0301 57.8401 72.4201 57.8401 71.6801C57.8401 70.9401 58.4501 70.3301 59.1901 70.3301H90.4101C91.1601 70.3301 91.7601 70.9401 91.7601 71.6801C91.7601 72.4201 91.1501 73.0301 90.4101 73.0301Z" fill="#E57B33"/>
<path d="M90.4101 81.7898H59.1901C58.4401 81.7898 57.8401 81.1798 57.8401 80.4398C57.8401 79.6998 58.4501 79.0898 59.1901 79.0898H90.4101C91.1601 79.0898 91.7601 79.6998 91.7601 80.4398C91.7601 81.1798 91.1501 81.7898 90.4101 81.7898Z" fill="#E57B33"/>
<path d="M90.4101 90.5603H59.1901C58.4401 90.5603 57.8401 89.9504 57.8401 89.2104C57.8401 88.4704 58.4501 87.8604 59.1901 87.8604H90.4101C91.1601 87.8604 91.7601 88.4704 91.7601 89.2104C91.7601 89.9504 91.1501 90.5603 90.4101 90.5603Z" fill="#E57B33"/>
<path d="M50.64 29.7897C57.2177 29.7897 62.55 24.4574 62.55 17.8797C62.55 11.302 57.2177 5.96973 50.64 5.96973C44.0623 5.96973 38.73 11.302 38.73 17.8797C38.73 24.4574 44.0623 29.7897 50.64 29.7897Z" fill="#1CA98A"/>
<path d="M48.2199 23.6701C48.2199 23.6701 48.2999 23.7001 48.3499 23.7001H48.5399C48.5399 23.7001 48.6299 23.6901 48.6699 23.6701C48.7799 23.6301 48.8599 23.5201 48.8599 23.4001C48.8599 23.2401 48.7299 23.1101 48.5699 23.1101C46.1899 23.1101 44.2499 21.1701 44.2499 18.7901C44.2499 16.4101 46.1899 14.4701 48.5699 14.4701H50.9699L49.6199 15.8101C49.5099 15.9201 49.5099 16.1001 49.6199 16.2201C49.6799 16.2801 49.7499 16.3001 49.8199 16.3001C49.8899 16.3001 49.9699 16.2701 50.0199 16.2201L51.8599 14.3901C51.9699 14.2801 51.9699 14.1001 51.8599 13.9801L50.0299 12.1401C49.9199 12.0301 49.7399 12.0301 49.6199 12.1401C49.5099 12.2501 49.5099 12.4301 49.6199 12.5501L50.9499 13.8901H48.5499C45.8599 13.8901 43.6699 16.0901 43.6699 18.7801C43.6699 21.4701 45.6699 23.4801 48.2099 23.6601L48.2199 23.6701Z" fill="white"/>
<path d="M51.51 23.4101C51.51 23.5701 51.64 23.7001 51.8 23.7001H51.99C52.15 23.7001 52.28 23.5701 52.28 23.4101C52.28 23.2501 52.15 23.1201 51.99 23.1201H51.8C51.64 23.1201 51.51 23.2501 51.51 23.4101Z" fill="white"/>
<path d="M50.26 23.1201H50.07C49.91 23.1201 49.78 23.2501 49.78 23.4101C49.78 23.5701 49.91 23.7001 50.07 23.7001H50.26C50.42 23.7001 50.55 23.5701 50.55 23.4101C50.55 23.2501 50.42 23.1201 50.26 23.1201Z" fill="white"/>
<path d="M57.2701 19.6096C57.1201 19.5696 56.9601 19.6696 56.9201 19.8196C56.9101 19.8796 56.8901 19.9396 56.8701 19.9896C56.8301 20.1396 56.9201 20.2996 57.0701 20.3496C57.1001 20.3496 57.1201 20.3596 57.1501 20.3596C57.2801 20.3596 57.3901 20.2796 57.4301 20.1496C57.4501 20.0796 57.4701 20.0196 57.4801 19.9496C57.5201 19.7996 57.4201 19.6396 57.2701 19.5996V19.6096Z" fill="white"/>
<path d="M53.5001 23.6401C53.5001 23.6401 53.5301 23.6401 53.5501 23.6401C53.6201 23.6301 53.6801 23.6201 53.7501 23.6001C53.9101 23.5701 54.0101 23.4101 53.9701 23.2601C53.9401 23.1001 53.7901 23.0001 53.6301 23.0401C53.5701 23.0501 53.5101 23.0601 53.4501 23.0701C53.2901 23.1001 53.1901 23.2401 53.2101 23.4001C53.2301 23.5401 53.3601 23.6401 53.4901 23.6401H53.5001Z" fill="white"/>
<path d="M56.21 21.8297C56.26 21.8697 56.32 21.8897 56.38 21.8897C56.47 21.8897 56.55 21.8497 56.61 21.7797C56.65 21.7297 56.69 21.6697 56.73 21.6197C56.82 21.4897 56.79 21.3097 56.66 21.2197C56.53 21.1297 56.35 21.1597 56.26 21.2897C56.23 21.3397 56.19 21.3897 56.15 21.4397C56.05 21.5697 56.08 21.7497 56.2 21.8397L56.21 21.8297Z" fill="white"/>
<path d="M57 18.21C57 18.27 57.01 18.33 57.02 18.39C57.03 18.54 57.16 18.65 57.31 18.65C57.31 18.65 57.33 18.65 57.34 18.65C57.5 18.63 57.61 18.49 57.6 18.34C57.6 18.27 57.59 18.2 57.58 18.14C57.56 17.98 57.41 17.87 57.26 17.89C57.1 17.91 56.99 18.06 57.01 18.21H57Z" fill="white"/>
<path d="M56.5701 16.8499C56.6201 16.9499 56.7201 17.0099 56.8301 17.0099C56.8701 17.0099 56.9201 16.9999 56.9601 16.9799C57.1001 16.9099 57.1601 16.7299 57.0901 16.5899C57.0601 16.5299 57.0301 16.4699 56.9901 16.4099C56.9101 16.2699 56.7401 16.2199 56.6001 16.2999C56.4601 16.3799 56.4101 16.5499 56.4901 16.6899C56.5201 16.7399 56.5501 16.7999 56.5801 16.8499H56.5701Z" fill="white"/>
<path d="M55.1101 23.0399C55.1601 23.0399 55.2101 23.0299 55.2601 22.9999C55.3201 22.9599 55.3801 22.9299 55.4301 22.8899C55.5601 22.7999 55.6001 22.6199 55.5101 22.4899C55.4201 22.3599 55.2401 22.3199 55.1101 22.4099C55.0601 22.4399 55.0101 22.4799 54.9601 22.5099C54.8201 22.5899 54.7801 22.7699 54.8601 22.9099C54.9101 22.9999 55.0101 23.0499 55.1101 23.0499V23.0399Z" fill="white"/>
<path d="M55.45 15.4603C55.45 15.4603 55.54 15.5403 55.59 15.5803C55.64 15.6303 55.71 15.6503 55.78 15.6503C55.86 15.6503 55.94 15.6203 56 15.5503C56.11 15.4303 56.09 15.2503 55.97 15.1403C55.92 15.0903 55.87 15.0503 55.81 15.0103C55.69 14.9103 55.51 14.9303 55.41 15.0503C55.31 15.1703 55.33 15.3503 55.45 15.4503V15.4603Z" fill="white"/>
<path d="M54.0401 14.6899C54.1001 14.7099 54.1501 14.7299 54.2101 14.7499C54.2401 14.7599 54.2801 14.7699 54.3101 14.7699C54.4301 14.7699 54.5401 14.6999 54.5801 14.5799C54.6301 14.4299 54.5601 14.2699 54.4101 14.2099C54.3501 14.1899 54.2801 14.1599 54.2201 14.1399C54.0701 14.0899 53.9101 14.1799 53.8601 14.3299C53.8101 14.4799 53.9001 14.6399 54.0501 14.6899H54.0401Z" fill="white"/>
</g>
<defs>
<clipPath id="clip0_40367_125352">
<rect width="150.28" height="105.08" fill="white"/>
</clipPath>
</defs>
</svg>
