<svg width="14" height="15" viewBox="0 0 14 15" fill="none" xmlns="http://www.w3.org/2000/svg">
<mask id="mask0" mask-type="alpha" maskUnits="userSpaceOnUse" x="0" y="0" width="14" height="15">
<path fill-rule="evenodd" clip-rule="evenodd" d="M3.53398 1.28408C3.53398 0.952711 3.80261 0.684082 4.13398 0.684082C4.46536 0.684082 4.73398 0.952711 4.73398 1.28408V3.28408C4.73398 3.61545 4.46536 3.88408 4.13398 3.88408C3.80261 3.88408 3.53398 3.61545 3.53398 3.28408V1.28408ZM11.134 1.86654V3.07797H11.9873C12.0988 3.07797 12.1892 3.16837 12.1892 3.27988V6.13321H1.54541V3.27988C1.54541 3.16837 1.63581 3.07797 1.74732 3.07797H2.73398V1.86654H1.74732C0.966755 1.86654 0.333984 2.49932 0.333984 3.27988V13.5199C0.333984 14.3004 0.966755 14.9332 1.74732 14.9332H11.9873C12.7679 14.9332 13.4007 14.3004 13.4007 13.5199V3.27988C13.4007 2.49932 12.7679 1.86654 11.9873 1.86654H11.134ZM5.53398 3.07797H8.33398V1.86654H5.53398V3.07797ZM8.33455 7.33321H5.26788V9.86654H8.33455V7.33321ZM9.53455 9.86654V7.33321H12.1892V9.86654H9.53455ZM8.33455 13.7218V11.0665H5.26788V13.7218H8.33455ZM11.9873 13.7218H9.53455V11.0665H12.1892V13.5199C12.1892 13.6314 12.0988 13.7218 11.9873 13.7218ZM4.06788 7.33321H1.54541V9.86654H4.06788V7.33321ZM4.06788 11.0665V13.7218H1.74732C1.63581 13.7218 1.54541 13.6314 1.54541 13.5199V11.0665H4.06788ZM9.73398 0.684082C9.40261 0.684082 9.13398 0.952711 9.13398 1.28408V3.28408C9.13398 3.61545 9.40261 3.88408 9.73398 3.88408C10.0654 3.88408 10.334 3.61545 10.334 3.28408V1.28408C10.334 0.952711 10.0654 0.684082 9.73398 0.684082Z" fill="white"/>
</mask>
<g mask="url(#mask0)">
<rect x="-0.999023" width="16" height="16" fill="#12344D"/>
</g>
</svg>
