<svg width="15" height="14" viewBox="0 0 15 14" fill="none" xmlns="http://www.w3.org/2000/svg">
<path fill-rule="evenodd" clip-rule="evenodd" d="M7.14945 0C3.36116 0 0.266113 3.14751 0.266113 7C0.266113 10.8525 3.36116 14 7.14945 14C10.9377 14 14.0328 10.8525 14.0328 7C14.0328 3.14751 10.9377 0 7.14945 0ZM7.14945 12.8629C10.3453 12.8629 12.9601 10.2038 12.9601 6.95378C12.9601 3.70378 10.3453 1.04468 7.14945 1.04468C3.95361 1.04468 1.33884 3.70378 1.33884 6.95378C1.33884 10.2038 3.95361 12.8629 7.14945 12.8629ZM7.42264 7.06972V4.83322C7.42264 4.53678 7.18633 4.29647 6.89483 4.29647C6.60332 4.29647 6.36701 4.53678 6.36701 4.83322V7.60648C6.36701 7.90292 6.60332 8.14324 6.89483 8.14324H9.44592C9.73742 8.14324 9.97373 7.90292 9.97373 7.60648C9.97373 7.31003 9.73742 7.06972 9.44592 7.06972H7.42264Z" fill="#475867"/>
</svg>
