<svg xmlns="http://www.w3.org/2000/svg" width="54" height="54" fill="none" viewBox="0 0 54 54"><path fill="#346DD1" stroke="#3A3C3F" stroke-miterlimit="10" stroke-width=".6" d="M35.6 52.925H19.3v-35.9c0-1.1.9-2 2-2h12.3c1.1 0 2 .9 2 2v35.9z"/><path fill="#fff" stroke="#3A3C3F" stroke-miterlimit="10" stroke-width=".6" d="M49.9 52.925H35.6v-28.7h14.3c1.1 0 2 .9 2 2v24.7c.1 1.1-.8 2-2 2zm-30.6 0H5c-1.1 0-2-.9-2-2v-13.1c0-1.1.9-2 2-2h14.3v17.1z"/><path stroke="#3A3C3F" stroke-miterlimit="10" stroke-width=".6" d="M19.3 28.325v16.2"/><path fill="#fff" stroke="#3A3C3F" stroke-miterlimit="10" stroke-width=".6" d="M11.4 23.125l1.2 2.5c0 .1.1.2.3.2l2.7.4c.3 0 .4.4.2.6l-2 1.9c-.1.1-.1.2-.1.3l.5 2.7c0 .3-.2.5-.5.4l-2.4-1.3c-.1-.1-.2-.1-.3 0l-2.4 1.3c-.2.1-.5-.1-.5-.4l.5-2.7c0-.1 0-.2-.1-.3l-2-1.9c-.2-.2-.1-.5.2-.6l2.7-.4c.1 0 .2-.1.3-.2l1.2-2.5c0-.2.4-.2.5 0zm16.4-21.9l1.2 2.5c0 .1.1.2.3.2l2.7.4c.3 0 .4.4.2.6l-2 1.9c-.1.1-.1.2-.1.3l.5 2.7c0 .3-.2.5-.5.4l-2.4-1.3c-.1-.1-.2-.1-.3 0l-2.4 1.3c-.2.1-.5-.1-.5-.4l.5-2.7c0-.1 0-.2-.1-.3l-2-1.9c-.2-.2-.1-.5.2-.6l2.7-.4c.1 0 .2-.1.3-.2l1.2-2.5c0-.3.3-.3.5 0zm16.3 8.1l1.2 2.5c0 .1.1.2.3.2l2.7.4c.3 0 .4.4.2.6l-2 1.9c-.1.1-.1.2-.1.3l.5 2.7c0 .3-.2.5-.5.4l-2.4-1.3c-.1-.1-.2-.1-.3 0l-2.4 1.3c-.2.1-.5-.1-.5-.4l.5-2.7c0-.1 0-.2-.1-.3l-2-1.9c-.2-.2-.1-.5.2-.6l2.7-.4c.1 0 .2-.1.3-.2l1.2-2.5c0-.3.4-.3.5 0z"/><path fill="#062A50" d="M19 36.125h-1.6v16.5H19v-16.5zm18.6-11.6H36v28.1h1.6v-28.1z" opacity=".3"/></svg>