<svg xmlns="http://www.w3.org/2000/svg" width="16" height="18" fill="none" viewBox="0 0 18 18"><path fill="#12344d" fill-rule="evenodd" d="M9.49 2.56a7.19 7.19 0 00-2.12-.13.69.69 0 01-.77-.63.71.71 0 01.64-.8 8.11 8.11 0 012.55.2.68.68 0 01.53.8.69.69 0 01-.68.56h-.15zm3.11 1.72c.206.195.396.406.57.63a.73.73 0 00.55.27.66.66 0 00.44-.18.7.7 0 00.11-1 7 7 0 00-.69-.76 7.25 7.25 0 00-1.06-.86.7.7 0 00-.78 1.16 5.26 5.26 0 01.86.74zm3.12 2.61a.7.7 0 00-1.179-.316.7.7 0 00-.171.686c.177.651.251 1.326.22 2a.72.72 0 00.68.73.7.7 0 00.7-.68 7.99 7.99 0 00-.25-2.42zM14.67 12a.7.7 0 00-1 .26 6.32 6.32 0 01-1.15 1.49 6.72 6.72 0 01-9.16 0 6.58 6.58 0 01-.88-8.4 5.79 5.79 0 01.9-1v1.72a.7.7 0 101.4 0V2.78a.89.89 0 000-.14.75.75 0 00-.07-.12.2.2 0 000-.08l-.11-.09-.1-.07h-.13a.58.58 0 00-.14 0H.92a.7.7 0 00-.606 1.05.7.7 0 00.606.35h1.3a6.56 6.56 0 00-.86 1 8 8 0 0012.17 10.2 7.572 7.572 0 001.4-1.8.69.69 0 00-.26-1.08zM8 5a.7.7 0 01.7.7v2.6h2.6a.7.7 0 110 1.4H8a.7.7 0 01-.7-.7V5.7A.7.7 0 018 5z"/></svg>