<svg xmlns="http://www.w3.org/2000/svg" width="50" height="51" fill="none" viewBox="0 0 50 51"><g stroke="var(--color-text-primary)" stroke-miterlimit="10" stroke-width=".6"><path fill="var(--color-icon-semantic-info)" d="M38.82 6.97H7a1.99 1.99 0 00-2 1.99v35.8c0 1.1.9 2 1.99 2h31.83c1.1 0 1.99-.9 1.99-2V8.97c0-1.1-.89-2-1.99-2z"/><g fill="var(--color-icon-inverse)"><path d="M37.43 9.95H8.58a1 1 0 00-1 1v31.83a1 1 0 001 1h28.85a1 1 0 001-1V10.95a1 1 0 00-1-1z"/><path d="M28.74 4.1c-1.03 0-1.78-.92-2.37-1.76-.56-.8-1.61-1.34-3.36-1.34-1.71 0-2.74.5-3.3 1.23-.67.87-1.47 1.87-2.56 1.87h-.05c-1.1 0-2 .89-2 1.99v5.32c0 1.1.9 1.99 2 1.99h11.5c1.1 0 2-.9 2-2V5.97c0-1.03-.84-1.86-1.87-1.86z"/></g><path stroke-linecap="round" d="M18 17.05h16.26M18 22.47h16.26M18 27.9h16.26M18 33.32h9.29"/></g><path fill="var(--color-icon-inverse)" d="M14.9 16.27l-2 2.22-1.1-1.1"/><path stroke="var(--color-text-primary)" stroke-linecap="round" stroke-miterlimit="10" stroke-width=".6" d="M14.9 16.27l-2 2.22-1.1-1.1"/><path fill="var(--color-icon-inverse)" d="M14.9 21.7l-2 2.21-1.1-1.1"/><path stroke="var(--color-text-primary)" stroke-linecap="round" stroke-miterlimit="10" stroke-width=".6" d="M14.9 21.7l-2 2.21-1.1-1.1"/><path fill="var(--color-icon-inverse)" d="M14.9 27.12l-2 2.21-1.1-1.1"/><path stroke="var(--color-text-primary)" stroke-linecap="round" stroke-miterlimit="10" stroke-width=".6" d="M14.9 27.12l-2 2.21-1.1-1.1"/><path fill="var(--color-icon-inverse)" d="M14.9 32.54l-2 2.22-1.1-1.11"/><path stroke="var(--color-text-primary)" stroke-linecap="round" stroke-miterlimit="10" stroke-width=".6" d="M14.9 32.54l-2 2.22-1.1-1.11"/><path fill="var(--color-fill-neutral-bold)" d="M38.82 31.18c-.95-.34-1.5-.34-2.52-.34-6.43 0-10.41 4.48-10.41 11.3 0 .78 0 .86.08 1.63h12.85V31.18z" opacity=".3"/><g fill="var(--color-icon-inverse)" stroke="var(--color-text-primary)" stroke-miterlimit="10" stroke-width=".6"><path d="M36.4 49.74a8.6 8.6 0 100-17.2 8.6 8.6 0 000 17.2z"/><path d="M36.4 47.26a6.12 6.12 0 100-12.24 6.12 6.12 0 000 12.24z"/></g><path fill="var(--color-icon-inverse)" d="M38.65 39.52l-3 3.1L34 41.06"/><path stroke="var(--color-text-primary)" stroke-linecap="round" stroke-miterlimit="10" stroke-width=".6" d="M38.65 39.52l-3 3.1L34 41.06"/></svg>
