<svg xmlns="http://www.w3.org/2000/svg" width="42" height="51" fill="none" xmlns:v="https://vecta.io/nano"><style><![CDATA[.B{fill:#fff}.C{stroke:#3a3c3f}.D{stroke-width:.6}.E{stroke-miterlimit:10}.F{stroke-linecap:round}]]></style><g clip-path="url(#A)"><g class="C D E"><path d="M35 7H3a2 2 0 0 0-2 2v36a2 2 0 0 0 2 2h32a2 2 0 0 0 2-2V9a2 2 0 0 0-2-2Z" fill="#346dd1"/><g class="B"><path d="M33.6 10h-29a1 1 0 0 0-1 1v32a1 1 0 0 0 1 1h29a1 1 0 0 0 1-1V11a1 1 0 0 0-1-1Z"/><path d="M24.867 4.115c-1.032 0-1.79-.921-2.384-1.766C21.922 1.549 20.86 1 19.103 1c-1.717 0-2.753.499-3.32 1.237-.672.876-1.469 1.878-2.573 1.878h-.05a2 2 0 0 0-2 2v5.346a2 2 0 0 0 2 2h11.576a2 2 0 0 0 2-2V5.984a1.87 1.87 0 0 0-1.869-1.869Z"/></g><path d="M14.061 17.134h16.355m-16.355 5.451h16.355m-16.355 5.453h16.355M14.061 33.49h9.346" class="F"/></g><path d="M10.946 16.355 8.943 18.58l-1.112-1.112" class="B"/><path d="M10.946 16.355 8.943 18.58l-1.112-1.112" class="C D E F"/><path d="m10.946 21.807-2.003 2.225-1.112-1.113" class="B"/><path d="m10.946 21.807-2.003 2.225-1.112-1.113" class="C D E F"/><path d="m10.946 27.259-2.003 2.225-1.112-1.113" class="B"/><path d="m10.946 27.259-2.003 2.225-1.112-1.113" class="C D E F"/><path d="m10.946 32.71-2.003 2.226-1.112-1.113" class="B"/><path d="m10.946 32.71-2.003 2.226-1.112-1.113" class="C D E F"/><path opacity=".3" d="M35 31.344C34.049 31 33.494 31 32.463 31 26 31 22 35.5 22 42.364c0 .775 0 .861.08 1.636H35V31.344Z" fill="#062a50"/><g class="B C D E"><path d="M32.567 50a8.645 8.645 0 1 0 0-17.29 8.645 8.645 0 0 0 0 17.29Z"/><path d="M32.567 47.508a6.153 6.153 0 1 0 0-12.305 6.153 6.153 0 0 0 0 12.305Z"/></g><path d="m34.825 39.72-3.004 3.115-1.668-1.558" class="B"/><path d="m34.825 39.72-3.004 3.115-1.668-1.558" class="C D E F"/></g><defs><clipPath id="A"><path d="M0 0h42v51H0z" class="B"/></clipPath></defs></svg>