<svg width="42" height="51" viewBox="0 0 42 51" fill="none" xmlns="http://www.w3.org/2000/svg">
<rect x="1" y="7" width="36" height="40" rx="2" fill="#346DD1" stroke="#3A3C3F" stroke-width="0.6" stroke-miterlimit="10"/>
<rect x="3.6001" y="10" width="31" height="34" rx="1" fill="white" stroke="#3A3C3F" stroke-width="0.6" stroke-miterlimit="10"/>
<path d="M24.8671 4.11526C23.8348 4.11526 23.0769 3.19361 22.4834 2.34894C21.9218 1.54952 20.8599 1 19.1038 1C17.3857 1 16.3501 1.49872 15.7835 2.23711C15.1111 3.11345 14.3143 4.11526 13.2098 4.11526H13.1599C12.0553 4.11526 11.1599 5.01069 11.1599 6.11526V11.4611C11.1599 12.5656 12.0553 13.4611 13.1599 13.4611H24.7362C25.8408 13.4611 26.7362 12.5656 26.7362 11.4611V5.98442C26.7362 4.95212 25.8994 4.11526 24.8671 4.11526V4.11526Z" fill="white" stroke="#3A3C3F" stroke-width="0.6" stroke-miterlimit="10"/>
<path d="M14.061 17.1338H30.4162" stroke="#3A3C3F" stroke-width="0.6" stroke-miterlimit="10" stroke-linecap="round"/>
<path d="M14.061 22.5854H30.4162" stroke="#3A3C3F" stroke-width="0.6" stroke-miterlimit="10" stroke-linecap="round"/>
<path d="M14.061 28.0376H30.4162" stroke="#3A3C3F" stroke-width="0.6" stroke-miterlimit="10" stroke-linecap="round"/>
<path d="M14.061 33.4893H23.4068" stroke="#3A3C3F" stroke-width="0.6" stroke-miterlimit="10" stroke-linecap="round"/>
<path d="M10.9458 16.355L8.94316 18.5802L7.83057 17.4676" fill="white"/>
<path d="M10.9458 16.355L8.94316 18.5802L7.83057 17.4676" stroke="#3A3C3F" stroke-width="0.6" stroke-miterlimit="10" stroke-linecap="round"/>
<path d="M10.9458 21.8066L8.94316 24.0318L7.83057 22.9192" fill="white"/>
<path d="M10.9458 21.8066L8.94316 24.0318L7.83057 22.9192" stroke="#3A3C3F" stroke-width="0.6" stroke-miterlimit="10" stroke-linecap="round"/>
<path d="M10.9458 27.2588L8.94316 29.484L7.83057 28.3714" fill="white"/>
<path d="M10.9458 27.2588L8.94316 29.484L7.83057 28.3714" stroke="#3A3C3F" stroke-width="0.6" stroke-miterlimit="10" stroke-linecap="round"/>
<path d="M10.9458 32.7104L8.94316 34.9356L7.83057 33.823" fill="white"/>
<path d="M10.9458 32.7104L8.94316 34.9356L7.83057 33.823" stroke="#3A3C3F" stroke-width="0.6" stroke-miterlimit="10" stroke-linecap="round"/>
<path opacity="0.3" d="M35 31.3444C34.0488 31 33.4939 31 32.4634 31C26 31 22 35.5 22 42.3643C22 43.1391 22 43.2252 22.0792 44H35V31.3444Z" fill="#062A50"/>
<path d="M32.567 50.0002C37.3414 50.0002 41.2118 46.1297 41.2118 41.3553C41.2118 36.5809 37.3414 32.7104 32.567 32.7104C27.7925 32.7104 23.9221 36.5809 23.9221 41.3553C23.9221 46.1297 27.7925 50.0002 32.567 50.0002Z" fill="white" stroke="#3A3C3F" stroke-width="0.6" stroke-miterlimit="10"/>
<path d="M32.567 47.5079C35.965 47.5079 38.7196 44.7533 38.7196 41.3553C38.7196 37.9572 35.965 35.2026 32.567 35.2026C29.169 35.2026 26.4143 37.9572 26.4143 41.3553C26.4143 44.7533 29.169 47.5079 32.567 47.5079Z" fill="white" stroke="#3A3C3F" stroke-width="0.6" stroke-miterlimit="10"/>
<path d="M34.8255 39.7197L31.8215 42.835L30.1526 41.2774" fill="white"/>
<path d="M34.8255 39.7197L31.8215 42.835L30.1526 41.2774" stroke="#3A3C3F" stroke-width="0.6" stroke-miterlimit="10" stroke-linecap="round"/>
</svg>