<svg xmlns="http://www.w3.org/2000/svg" width="54" height="54" fill="none" viewBox="0 0 54 54"><path fill="#346DD1" stroke="#3A3C3F" stroke-miterlimit="10" stroke-width=".6" d="M26.4 48.8c12.924 0 23.4-10.476 23.4-23.4C49.8 12.477 39.324 2 26.4 2 13.477 2 3 12.477 3 25.4c0 12.924 10.477 23.4 23.4 23.4z"/><path fill="#fff" stroke="#3A3C3F" stroke-miterlimit="10" stroke-width=".6" d="M26.4 42.1c9.223 0 16.7-7.477 16.7-16.7 0-9.223-7.477-16.7-16.7-16.7-9.223 0-16.7 7.477-16.7 16.7 0 9.223 7.477 16.7 16.7 16.7z"/><path fill="#fff" d="M26.4 13.6v12.9h8.1"/><path stroke="#3A3C3F" stroke-miterlimit="10" stroke-width=".6" d="M26.4 13.6v12.9h8.1"/><path fill="#062A50" d="M49 30.7c-2.4-2.2-5.5-3.6-9-3.6-7.3 0-13.2 5.9-13.2 13.2 0 3.1 1.1 6 2.9 8.3 9.5-1.7 17.1-8.8 19.3-17.9z" opacity=".3"/><path fill="#fff" stroke="#3A3C3F" stroke-miterlimit="10" stroke-width=".6" d="M40.3 52c6.407 0 11.6-5.194 11.6-11.6 0-6.407-5.193-11.6-11.6-11.6-6.406 0-11.6 5.193-11.6 11.6S33.894 52 40.3 52z"/><path fill="#fff" stroke="#3A3C3F" stroke-linecap="round" stroke-linejoin="round" stroke-miterlimit="10" stroke-width=".6" d="M42.7 36.5h-5.2c-1.6 0-2.1 1.5-2.1 2.6 0 1.2.8 2.1.8 2.1v-1.3c0-.5.3-.8 1.3-.8h5.2v1.6l2.6-2.9-2.6-2.9v1.6zM39 45.3h5.2c1.6 0 2.1-1.5 2.1-2.6 0-1.2-.8-2.1-.8-2.1v1.3c0 .5-.3.8-1.3.8H39v-1.6L36.4 44l2.6 2.9v-1.6z"/></svg>