<svg xmlns="http://www.w3.org/2000/svg" fill="none" viewBox="0 0 54 54"><g stroke="var(--color-text-primary)" stroke-miterlimit="10" stroke-width=".6"><path fill="var(--color-icon-semantic-info)" d="M25.368 47.736c12.353 0 22.368-10.014 22.368-22.368S37.721 3 25.368 3 3 13.014 3 25.368s10.014 22.368 22.368 22.368z"/><path fill="var(--color-icon-inverse)" d="M25.368 41.4c8.854 0 16.032-7.178 16.032-16.032S34.222 9.336 25.368 9.336 9.336 16.514 9.336 25.368 16.514 41.4 25.368 41.4z"/></g><path fill="var(--color-icon-inverse)" d="M25.368 14.136v12.192h7.776"/><path stroke="var(--color-text-primary)" stroke-miterlimit="10" stroke-width=".6" d="M25.368 14.136v12.192h7.776"/><path fill="var(--color-fill-neutral-bold)" d="M45.144 33.336c.672-.192 2.112-3.072 2.112-3.072l-22.08.192a1.72 1.72 0 00-1.728 1.728v15.552s2.592.576 4.32-.48" opacity=".3"/><g fill="var(--color-icon-inverse)" stroke="var(--color-text-primary)" stroke-miterlimit="10" stroke-width=".6"><path d="M26.424 52.408h22.848A1.72 1.72 0 0051 50.68V36.952H24.792V50.68c0 .96.768 1.728 1.632 1.728z"/><path d="M24.792 37.048H51v-3.552a1.72 1.72 0 00-1.728-1.728H26.424a1.72 1.72 0 00-1.728 1.728v3.552h.096z"/></g><path fill="var(--color-icon-inverse)" d="M27.96 44.76h19.872z"/><path stroke="var(--color-text-primary)" stroke-miterlimit="10" stroke-width=".6" d="M27.96 44.76h19.872"/><path fill="var(--color-icon-inverse)" d="M37.848 39.864v9.696z"/><path stroke="var(--color-text-primary)" stroke-miterlimit="10" stroke-width=".6" d="M37.848 39.864v9.696"/><path fill="var(--color-icon-inverse)" d="M31.896 39.864v9.696z"/><path stroke="var(--color-text-primary)" stroke-miterlimit="10" stroke-width=".6" d="M31.896 39.864v9.696"/><path fill="var(--color-icon-inverse)" d="M43.896 39.864v9.696z"/><g stroke="var(--color-text-primary)" stroke-miterlimit="10" stroke-width=".6"><path d="M43.896 39.864v9.696"/><path fill="var(--color-icon-inverse)" fill-rule="evenodd" d="M31.608 34.584c-.384 0-.576-.288-.576-.576v-2.304c0-.384.288-.576.576-.576.384 0 .576.288.576.576v2.304a.62.62 0 01-.576.576zm13.536 0c-.384 0-.576-.288-.576-.576v-2.304c0-.384.288-.576.576-.576.384 0 .576.288.576.576v2.304a.62.62 0 01-.576.576z"/></g></svg>
