<svg xmlns="http://www.w3.org/2000/svg" width="54" height="54" fill="none" viewBox="0 0 54 54"><path stroke="#3A3C3F" stroke-linecap="round" stroke-miterlimit="10" stroke-width=".6" d="M5.8 4v45.9H52"/><path fill="#346DD1" stroke="#3A3C3F" stroke-linecap="round" stroke-miterlimit="10" stroke-width=".6" d="M36.5 14.7v35.2h7.8V14.7c0-.5-.4-.8-.8-.8h-6.1c-.5 0-.9.4-.9.8z"/><path fill="#fff" stroke="#3A3C3F" stroke-linecap="round" stroke-miterlimit="10" stroke-width=".6" d="M23.5 28.3v21.6h7.8V28.3c0-.5-.4-.8-.8-.8h-6.1c-.5 0-.9.4-.9.8zM11.8 40.5v9.4h7.8v-9.4c0-.5-.4-.8-.8-.8h-6.1c-.6 0-.9.3-.9.8z"/><path stroke="#3A3C3F" stroke-linecap="round" stroke-miterlimit="10" stroke-width=".6" d="M4.2 12.7H2m2.2 11.5H2m2.2 11.4H2m2.2 11.5H2"/></svg>