<svg xmlns="http://www.w3.org/2000/svg" width="54" height="54" fill="none" viewBox="0 0 54 54"><path fill="var(--color-icon-semantic-info)" stroke="var(--color-text-primary)" stroke-miterlimit="10" stroke-width=".6" d="M31.5 6.3v8.5c0 .2.2.5.4.5 6.3 1.7 10.7 7.8 9.9 14.8-.8 6.4-6 11.4-12.4 11.9-7.5.6-13.9-4.9-14.7-12.1 0-.3-.3-.5-.5-.5H5.8c-.3 0-.6.3-.6.6.6 13 11.8 23.2 25.2 22.2 11.5-.9 20.8-10.3 21.5-21.8.8-12.4-8.1-22.9-19.8-24.6-.3-.1-.6.2-.6.5z"/><path fill="var(--color-icon-inverse)" stroke="var(--color-text-primary)" stroke-miterlimit="10" stroke-width=".6" d="M30 14.6l-.8-12.1c0-.3-.3-.5-.6-.5C15 2.3 3.9 12.4 2 25.5c0 .3.2.6.5.6l12.3 1.6c.3 0 .5-.1.6-.4 1.6-6.5 7.2-11.4 14.1-12.1.3 0 .5-.3.5-.6z"/><path fill="var(--color-fill-neutral-bold)" d="M33.8 6.1l-.6 9.7-1.7-.5V5.7l2.3.4zM14.7 29.5H5.2l.3 2.2 9.6.1-.4-2.3z" opacity=".3"/></svg>
