<svg xmlns="http://www.w3.org/2000/svg" width="54" height="54" fill="none" viewBox="0 0 54 54"><path stroke="#3A3C3F" stroke-miterlimit="10" stroke-width=".6" d="M15.7 27.1h-4.6C6.1 27.1 2 23 2 18s4.1-9.1 9.1-9.1h4.6v18.2zm22.6 0h4.6c5 0 9.1-4.1 9.1-9.1s-4.1-9.1-9.1-9.1h-4.6v18.2z"/><path fill="#fff" stroke="#3A3C3F" stroke-miterlimit="10" stroke-width=".6" d="M29 30.4h-4.8v18.3H29V30.4z"/><path fill="#062A50" d="M24.2 41s2.1.8 4.8 0v-4.9h-4.8V41z" opacity=".3"/><path fill="#346DD1" stroke="#3A3C3F" stroke-miterlimit="10" stroke-width=".6" d="M26.6 38.6c-9.1 0-16.5-7.4-16.5-16.5v-19h33v19c0 9.1-7.4 16.5-16.5 16.5z"/><path fill="#fff" stroke="#3A3C3F" stroke-miterlimit="10" stroke-width=".6" d="M40.2 52.4H11.8c0-2.5 2-4.4 4.4-4.4h19.5c2.5 0 4.5 2 4.5 4.4zM27.7 10.5l2.1 4.2c.1.2.2.3.4.3l4.6.7c.5.1.7.6.3 1L31.8 20c-.1.1-.2.3-.2.5l.8 4.6c.1.5-.4.8-.8.6l-4.1-2.2c-.2-.1-.4-.1-.5 0l-4.1 2.2c-.4.2-.9-.1-.8-.6l.8-4.6c0-.2 0-.4-.2-.5l-3.3-3.3c-.3-.3-.2-.9.3-1l4.6-.7c.2 0 .3-.1.4-.3l2.1-4.2c.1-.4.7-.4.9 0z"/><path fill="#062A50" d="M43.1 4.4h-33v2.3h33V4.4z" opacity=".3"/><path fill="#fff" stroke="#3A3C3F" stroke-miterlimit="10" stroke-width=".6" d="M46.4 5.1H7.8c-.3 0-.5-.2-.5-.5V1.5c0-.3.2-.5.5-.5h38.6c.3 0 .5.2.5.5v3.1c0 .3-.2.5-.5.5z"/></svg>