<svg xmlns="http://www.w3.org/2000/svg" width="512" height="512" viewBox="0 0 512 512"><path fill="var(--color-icon-semantic-warning)" fill-rule="evenodd" d="M286.039 274.445V91.395c0-6.628-5.373-12-12-12h-29.855c-6.627 0-12 5.372-12 12v196.054l115.923 121.717c4.18 4.39 11.123 4.57 15.526.404l22.22-21.026c.096-.091.19-.184.283-.278 4.26-4.333 4.2-11.297-.133-15.556l-99.964-98.265zM256 4c138.25 0 250 112.955 250 252.697 0 139.74-111.75 252.696-250 252.696S6 396.438 6 256.697C6 116.955 117.75 4 256 4z"/></svg>
