<svg xmlns="http://www.w3.org/2000/svg" width="54" height="54" fill="none" viewBox="0 0 54 54"><path fill="var(--color-icon-semantic-info)" stroke="var(--color-text-primary)" stroke-miterlimit="10" stroke-width=".6" d="M45.815 43.97l-16.13-2.83c-.902-.203-1.603-1.113-1.402-2.023l4.207-24.062c.2-.91 1.102-1.617 2.004-1.415l16.13 2.83c.901.203 1.602 1.113 1.402 2.023l-4.208 24.062c-.1 1.011-1.002 1.618-2.003 1.415zm-37.569.607l16.13-2.83c.9-.203 1.602-1.113 1.402-2.023L21.57 15.662c-.2-.91-1.102-1.618-2.003-1.416l-16.13 2.831c-.902.202-1.603 1.112-1.403 2.022l4.208 24.063c.2 1.01 1.102 1.617 2.004 1.415z"/><path fill="var(--color-icon-inverse)" d="M41.913 23.02c-1.677-.298-2.795.495-3.116 2.06l1.371.316c.199-.86.754-1.27 1.528-1.132.75.134 1.134.637.993 1.447-.14.798-.796 1.165-1.535 1.034l-.856-.153-.218 1.244.88.157c.868.154 1.402.697 1.242 1.612-.158.903-.754 1.342-1.634 1.185-.88-.156-1.254-.78-1.165-1.707l-1.41-.166c-.199 1.622.587 2.802 2.37 3.12 1.653.293 2.953-.504 3.242-2.158.189-1.08-.284-1.902-.998-2.247.684-.18 1.315-.673 1.489-1.67.264-1.514-.541-2.65-2.183-2.942z"/><path fill="var(--color-fill-neutral-bold)" d="M39.102 14.145c.2.303.4.809.4 1.213v21.636c0 1.214-1 2.225-2.203 2.225H18.965c-1.202 0-2.204-1.011-2.204-2.225V15.561c0-.506.1-.91.401-1.214" opacity=".3"/><path fill="var(--color-icon-inverse)" stroke="var(--color-text-primary)" stroke-miterlimit="10" stroke-width=".6" d="M36.598 37.904h-16.33c-1.002 0-1.703-.809-1.703-1.719V11.72c0-1.011.801-1.719 1.703-1.719h16.33c1.002 0 1.703.809 1.703 1.719v24.466c0 .91-.802 1.72-1.703 1.72z"/><path fill="var(--color-icon-inverse)" d="M15.785 32.075l-1.533-8.777-1.02.182-2.068 2.146.861.984 1.165-1.223 1.21 6.933 1.384-.246z"/><path fill="var(--color-icon-semantic-info)" d="M28.398 18.571c-1.68 0-2.657 1.025-2.68 2.728l1.417.083c.012-.976.417-1.548 1.298-1.548.763 0 1.18.512 1.18 1.31 0 1.036-.37 1.549-1.31 2.55l-2.562 2.739V27.6h5.372v-1.262h-3.418l1.656-1.775c.917-.989 1.68-2.001 1.68-3.479 0-1.584-.954-2.513-2.633-2.513z"/></svg>
