<svg xmlns="http://www.w3.org/2000/svg" width="54" height="54" fill="none" viewBox="0 0 54 54"><path fill="#346DD1" stroke="#3A3C3F" stroke-miterlimit="10" stroke-width=".6" d="M44.5 26c0-2.5 1.9-4.7 4.3-5.1.5-.1.8-.5.8-1V14c0-.6-.5-1-1-1H4c-.6 0-1 .5-1 1v5.9c0 .5.3.9.8 1 2.4.4 4.3 2.5 4.3 5.1 0 2.6-1.9 4.7-4.3 5.1-.5.1-.8.5-.8 1V38c0 .6.5 1 1 1h44.6c.6 0 1-.5 1-1v-5.9c0-.5-.3-.9-.8-1-2.5-.4-4.3-2.5-4.3-5.1z"/><path fill="#fff" stroke="#3A3C3F" stroke-miterlimit="10" stroke-width=".6" d="M39.2 32.4h-26c-.6 0-1-.5-1-1V20.3c0-.6.5-1 1-1h26c.6 0 1 .5 1 1v11.1c0 .5-.5 1-1 1z"/><path stroke="#3A3C3F" stroke-miterlimit="10" stroke-width=".6" d="M18.8 23.6h15.5m-12.8 4.1h10.3"/><path fill="#062A50" d="M45 24.5c-1.2-.4-1.9-.4-3.2-.4-7.3 0-13.2 5.9-13.2 13.2 0 .9 0 1 .1 1.9l13-.3L45 24.5z" opacity=".3"/><path fill="#fff" stroke="#3A3C3F" stroke-miterlimit="10" stroke-width=".6" d="M41.7 48.3c6.13 0 11.1-4.97 11.1-11.1s-4.97-11.1-11.1-11.1-11.1 4.97-11.1 11.1 4.97 11.1 11.1 11.1z"/><path fill="#fff" stroke="#3A3C3F" stroke-miterlimit="10" stroke-width=".6" d="M41.7 45.1a7.9 7.9 0 100-15.8 7.9 7.9 0 000 15.8z"/><path fill="#fff" d="M41.7 31.6v6.1h3.9"/><path stroke="#3A3C3F" stroke-miterlimit="10" stroke-width=".6" d="M41.7 31.6v6.1h3.9"/></svg>