<svg xmlns="http://www.w3.org/2000/svg" width="283" height="157" fill="none" viewBox="0 0 283 157"><g clip-path="url(#clip0_455_30503)"><path fill="#F9F9F9" d="M280.821 139.447c-5.509 8.839-36.786-3.426-47.805-2.903-37.597 1.779-79.491-7.357-117.096-5.579-25.062 1.195-50.246 13.782-75.054 10.025-12.971-1.979-22.185 2.589-31.547-6.599-6.878-6.79-10.722-17.277-8.84-26.875 5.117-26.003 33.823-1.708 44.23-17.687 1.614-2.484 1.064-5.753.15-8.577-4.01-12.387-23.694-27.25-16.145-41.467 4.097-7.732 14.67-11.158 22.926-10.025 10.861 1.473 23.013 24.146 32.62 18.864 11.087-6.155 18.209-38.181 28.879-45.015 12.683-8.15 29.751-1.255 41.406 8.325 11.655 9.571 21.714 22.063 36.045 26.726 8.377 2.755 17.4 2.485 26.125 3.696 8.726 1.22-2.841 19.936 17.382 18.114 5.893 9.153 4.071 29.595 9.807 38.87 4.733 7.662 18.428-2.842 25.323 2.946 8.133 6.852 18.315 26.378 11.594 37.161z"/><path stroke="#92A2B1" stroke-width=".436" d="M67.287 37.318v13.05c0 6.345 5.143 11.488 11.49 11.488h9.902c6.346 0 11.489 5.144 11.489 11.49v22.167c0 6.346 5.143 11.489 11.489 11.489h19.579c6.346 0 11.489-5.143 11.489-11.489v-52.32c0-6.346 5.143-11.489 11.489-11.489h39.924"/><path fill="#4BC1A7" fill-rule="evenodd" d="M240.949 25.332l.697-.384v-3.234a4.073 4.073 0 00-1.133-2.85 3.831 3.831 0 00-2.781-1.186h-36.629a3.95 3.95 0 00-2.798 1.16 4.12 4.12 0 00-1.151 2.876v3.234l.698.384a6.551 6.551 0 013.286 5.692c0 2.371-1.255 4.542-3.286 5.666l-.698.445v3.234c0 1.063.427 2.11 1.16 2.85a3.945 3.945 0 002.789 1.16h36.629c2.162 0 3.914-1.779 3.914-4.002v-3.233l-.697-.445c-2.023-1.125-3.287-3.295-3.287-5.666a6.54 6.54 0 013.287-5.693" clip-rule="evenodd"/><path fill="#fff" stroke="#92A2B1" stroke-width=".436" d="M216.236 37.693c-.506 0-1.02-.175-1.43-.523l-4.236-3.557a2.225 2.225 0 01-.27-3.138 2.234 2.234 0 013.138-.27l2.807 2.353 9.161-7.697a2.226 2.226 0 013.138.27 2.225 2.225 0 01-.27 3.139l-10.591 8.9a2.227 2.227 0 01-1.43.523h-.017z"/><path fill="#fff" d="M50.455 19.343a1.46 1.46 0 001.464-1.455c0-.802-.654-1.465-1.464-1.465-.811 0-1.456.654-1.456 1.465 0 .81.654 1.455 1.456 1.455zm4.82 0c.802 0 1.456-.654 1.456-1.455 0-.802-.654-1.465-1.456-1.465-.802 0-1.465.654-1.465 1.465 0 .81.654 1.455 1.465 1.455zm4.812 0a1.46 1.46 0 001.464-1.455c0-.802-.654-1.465-1.464-1.465-.81 0-1.456.654-1.456 1.465 0 .81.654 1.455 1.456 1.455z"/><path fill="#fff" d="M212.165 117.201h-15.508v21.357h15.508v-21.357z" opacity=".72"/><path stroke="#92A2B1" stroke-width=".436" d="M199.333 141.661h-3.617v5.257h3.617v-5.257zm11.498 0h-3.617v5.257h3.617v-5.257z"/><path fill="#fff" stroke="#B1BDC7" stroke-width=".436" d="M215.434 112.084h-24.321v30.554h24.321v-30.554z"/><path fill="#fff" stroke="#B1BDC7" stroke-width=".436" d="M211.729 115.78h-16.928v23.17h16.928v-23.17z"/><path fill="#fff" stroke="#B1BDC7" stroke-width=".436" d="M209.498 119.38h-12.475v1.256h12.475v-1.256zm0 3.836h-12.475v1.255h12.475v-1.255zm0 3.835h-12.475v1.256h12.475v-1.256zm0 3.836h-12.475v1.255h12.475v-1.255z"/><path stroke="#B1BDC7" stroke-width=".436" d="M29.69 37.318h8.744l3.295-19.352H26.395l3.295 19.352z"/><path fill="#B1BDC7" d="M33.386 18.872v8.282h.436v-8.282h-.436zm1.003 0v8.282h.436v-8.282h-.436zm7.244-2.057l-2.982-2.702-.296.331 2.99 2.694.288-.323zm-5.893-5.23V9.842h-.436v1.743h.436zm-.218-3.705h-1.395v.436h1.395V7.88zm-3.007.218v1.744h.435V8.098h-.435zm.07 3.321l-2.99 2.694.296.331 2.99-2.702-.297-.323zm-5.832 5.344h-1.709v.436h1.709v-.436zm-3.635.218v.941h.436v-.941h-.436zm.218 2.11h1.237v-.436h-1.237v.435zm2.257-.184l1.683 9.572.427-.079-1.683-9.562-.427.07zm3.365 19.1v.034h.436v-.034h-.436zm.218.287h1.482v-.436h-1.482v.436zm2.746-.218v50.28h.436v-50.28h-.436zm.218 100.343h-1.482v.435h1.482v-.435zm-3.182.217v4.411h.436v-4.411h-.436zm.218 9.04h4.943v-.436h-4.943v.436zm10.103-.218v-4.411h-.436v4.411h.436zm-.218-9.039H37.58v.435h1.482v-.435zm-2.746.217V88.348h-.435v50.288h.435zm-.218-100.35h1.482v-.436h-1.482v.435zm3.182-.218v-.027h-.436v.027h.436zm0-.027l1.682-9.562-.427-.07-1.69 9.563.435.07zM42.435 19.1h1.238v-.436h-1.238v.436zm2.693-.218v-.95h-.436v.95h.436zm-.218-2.118h-1.708v.436h1.708v-.436zM29.934 35.391l-1.455-8.28-.436.078 1.464 8.28.427-.078zm-3.129-16.3h3.4v-.436h-3.4v.435zm6.581-.219v8.282h.436v-8.282h-.436zm.218 16.345H31.66v.436h1.944v-.436zm4.908 0h-1.953v.436h1.953v-.436zm-3.679.218v-8.281h-.435v8.28h.435zm-.218-16.345h3.418v-.435h-3.418v.435zm6.617-.261l-1.465 8.281.427.079 1.474-8.282-.436-.078z"/><path fill="#CFD7DF" d="M180.679 147.493a26.162 26.162 0 002.397-11.297c0-5.196-1.281-10.06-3.234-12.675h-8.821c-1.953 2.615-3.226 7.479-3.226 12.675a25.91 25.91 0 002.389 11.297h10.495z"/><path fill="#fff" d="M175.257 123.521s2.179 4.184 2.179 13.529c0 9.345-2.179 10.443-2.179 10.443h5.439a26.04 26.04 0 002.389-11.297c0-5.196-1.273-10.06-3.226-12.675h-4.602z"/><path fill="#CFD7DF" stroke="#92A2B1" stroke-width=".436" d="M163.881 83.928s-.165 4.76.392 6.764c.55 2.006 1.665 6.19 1.665 6.19l2.912-2.406-2.31 3.922s2.615 6.512 2.615 7.183c0 .672-.305 4.507-.305 4.507l3.487-2.563-3.356 4.829a14.008 14.008 0 001.83 2.99 115.188 115.188 0 002.476 2.938s2.746-6.834 2.589-8.926c-.157-2.092.331-8.081.331-8.081l-1.647 3.757 1.307-7.06s-.087-4.403-1.351-6.582a52.403 52.403 0 01-2.667-5.928l-.733 5.754-.645-7.41s-2.658-.837-3.922-.636c-.916.148-1.814.4-2.668.758z"/><path fill="#CFD7DF" stroke="#92A2B1" stroke-width=".436" d="M182.448 81.348s-4.306 5.256-4.768 7.558a35.373 35.373 0 01-1.377 4.69l2.109-1.387-2.109 2.65s0 7.514.357 8.613c.358 1.089 0 3.827 0 3.827l1.97-2.432-2.501 5.544s-.715 4.934.557 6.398a17.503 17.503 0 012.276 3.783s3.225-5.23 3.765-6.538c.532-1.307 1.09-4.463 1.09-4.463l-2.772-5.378 3.312 3.975s.663-8.56.794-10.496a29.825 29.825 0 00-.096-4.14l-3.26-2.371 3.26.906s.392-1.621-.331-4.184c-.733-2.554-2.276-6.555-2.276-6.555z"/><path stroke="#92A2B1" stroke-width=".436" d="M173.391 125.77s.105-13.145.288-21.949c.174-8.805-8.883-19.222-8.883-19.222m14.819 41.197a123.236 123.236 0 01-.183-16.44c.55-7.907 1.256-23.275 1.256-23.275"/><path stroke="#92A2B1" stroke-width=".436" d="M181.986 147.711a26.163 26.163 0 002.398-11.297c0-5.196-1.282-10.06-3.234-12.675h-8.822c-1.953 2.615-3.225 7.479-3.225 12.675a25.91 25.91 0 002.388 11.297h10.495z"/><path stroke="#B1BDC7" stroke-width=".436" d="M176.564 123.739s2.18 4.184 2.18 13.529c0 9.345-2.18 10.443-2.18 10.443h5.44a26.038 26.038 0 002.388-11.297c0-5.196-1.272-10.06-3.225-12.675h-4.603z"/><path stroke="#7B8E9F" stroke-width=".436" d="M23.798 147.676H176.52m7.419-.436h85.863"/><path stroke="#273139" stroke-linecap="round" stroke-linejoin="round" stroke-width=".436" d="M251.2 66.834c1.613-9.92-3.522-19.265-4.149-20.512-1.151 1.692-5.047 4.96-6.721 5.789 4.088 4.289 5.003 7.41 7.514 11.742"/><path fill="#fff" stroke="#273139" stroke-linecap="round" stroke-linejoin="round" stroke-width=".436" d="M238.717 53.279a1.69 1.69 0 001.683-1.683c0-.924-.759-1.673-1.683-1.673s-1.674.75-1.674 1.673c0 .924.75 1.683 1.674 1.683z"/><path fill="#273139" d="M240.007 49.923a3.195 3.195 0 01-2.502-1.482 2.33 2.33 0 01.332-2.781c.871-.802 2.214-.671 3.382-.497l2.31.358c.27.026.54.104.784.226.637.366.733 1.308.401 1.944-.749 1.526-3.12 2.362-4.707 2.232zm5.022 50.445l-8.822 16.397.183-1.743 3.652 19.177a1.555 1.555 0 01-1.159 1.805 1.557 1.557 0 01-1.865-1.055l-5.684-18.663a2.186 2.186 0 01.07-1.508l.104-.244 7.209-17.164a3.496 3.496 0 016.015-.758 3.5 3.5 0 01.436 3.469c-.044.087-.087.191-.139.287zm7.688-1.403l-1.473 19.064-.044-.558 3.051 22.194a1.546 1.546 0 01-1.264 1.656 1.57 1.57 0 01-1.787-1.081l-5.117-21.819a1.648 1.648 0 01-.043-.305v-.252l-.306-19.108a3.493 3.493 0 013.444-3.557 3.497 3.497 0 013.556 3.443c0 .105 0 .218-.017.323z"/><path stroke="#273139" stroke-linecap="round" stroke-linejoin="round" stroke-width=".436" d="M249.744 42.853a4.267 4.267 0 00-2.406 3.27c.035-1.491-.74-4.063-1.97-4.891"/><path fill="#fff" stroke="#273139" stroke-linecap="round" stroke-linejoin="round" stroke-width=".436" d="M238.892 51.623a6.049 6.049 0 004.532 5.84 6.056 6.056 0 006.8-2.894l.052-.079a6.076 6.076 0 00-.767-6.86 6.052 6.052 0 00-6.695-1.69 6.065 6.065 0 00-3.931 5.674h.009v.009z"/><path fill="#273139" d="M239.868 48.955a6.717 6.717 0 006.721 6.712c1.29 0 2.554-.383 3.635-1.098l.052-.079a6.067 6.067 0 00-2.249-8.037 6.052 6.052 0 00-8.142 1.84c0 .226-.017.444-.017.662z"/><path fill="#FF5959" d="M247.783 45.808a6.057 6.057 0 00.872 7.532c.157.157.331.305.505.436a4.087 4.087 0 01-1.351-7.976h-.026v.008z"/><path fill="#273139" d="M246.04 49.374a4.867 4.867 0 002.998 4.498 4.874 4.874 0 005.309-1.046 4.877 4.877 0 001.063-5.31 4.878 4.878 0 00-4.498-3.006 4.868 4.868 0 00-4.872 4.864z"/><path stroke="#EBEFF3" stroke-linecap="round" stroke-linejoin="round" stroke-width=".436" d="M251.688 118.073a3.055 3.055 0 01-2.754.697"/><path fill="#273139" d="M254.635 140.868c-.898 1.404-1.892 2.179-3.609 2.014-1.482.619-2.18.941-3.871.758-1.691-.174-3.277 1.805-.767 2.432 1.465.401 2.973.602 4.498.584.48-.035.933-.226 1.308-.549.444-.34.845-.741 1.194-1.185 1.064-.611 1.961-1.482 3.121-1.918-.619-.724-1.264-1.421-1.874-2.136zm2.039 2.484c.123.314.253.628.384.95-1.168.48-2.223 1.151-3.365 1.674a23.116 23.116 0 01-.192-.706c1.081-.61 2.032-1.403 3.173-1.918z"/><path stroke="#EBEFF3" stroke-linecap="round" stroke-linejoin="round" stroke-width=".436" d="M250.363 144.311a.844.844 0 00-.244-.636.866.866 0 00-.628-.27m.001 1.238c0-.48-.332-.89-.802-.994m-.122 1.055a1.072 1.072 0 00-.741-1.073m-11.681-27.755a3.055 3.055 0 01-2.755.697"/><path fill="#273139" d="M241.132 136.074a5.06 5.06 0 01-4.76.436c-1.203 0-2.292 1.159-4.794 1.159s-2.912 2.694-.636 2.694l4.62.043c.488 0 .959-.113 1.394-.331l1.5-.776 3.748-.227-1.072-2.998z"/><path fill="#273139" d="M242.213 139.456v1.002h-3.749v-.776l3.749-.226z"/><path stroke="#EBEFF3" stroke-linecap="round" stroke-linejoin="round" stroke-width=".436" d="M235.344 137.878a.813.813 0 00-.218-.68.803.803 0 00-.654-.27m-.165 1.325a.844.844 0 00-.872-.95m-.21 1.15a.844.844 0 00-.871-.95"/><path fill="#475867" d="M252.699 97.448h-13.921c-1.264 0-1.264 1.962 0 1.962h13.921c1.256 0 1.256-1.962 0-1.962z"/><path fill="#92A2B1" d="M240.897 97.936h9.954c1.16 0 2.258-.496 3.025-1.36a4.036 4.036 0 00.994-3.164l-3.487-29.725a6.006 6.006 0 00-4.262-4.794 5.868 5.868 0 01-2.18.41 6.101 6.101 0 01-1.639-.227 5.993 5.993 0 00-3.783 5.143l-2.676 29.28a4.026 4.026 0 001.037 3.121 4.046 4.046 0 003.017 1.316z"/><path stroke="#273139" stroke-linecap="round" stroke-linejoin="round" stroke-width=".436" d="M240.635 61.787c-8.857-6.747-8.281-7.096-11.027-10.74-1.604 1.953-4.01 4.594-5.614 6.538 1.142.793 8.717 7.959 14.558 10.295m4.899-20.154c-.907-3.617-3.147-8.717-4.856-11.053m7.113 9.179c-3.016-8.447-4.454-10.504-5.988-12.413M237 31.102c1.63.035 1.613.776 2.554 2.075m-1.813 3.051a3.17 3.17 0 00-1.159-.645.28.28 0 01-.201-.27c0-.13.079-.244.201-.279a3.596 3.596 0 012.057-.087m-21.837 10.905c-.967-.741-2.179-3.112-2.179-3.722-.026-.82.087-1.404.497-1.02.75.697 1.308 1.63 2.179 2.79m.332.984a3.347 3.347 0 00-.166-1.307.277.277 0 01.096-.323.302.302 0 01.34-.009 4.064 4.064 0 011.264 1.744m5.91 10.295l-8.273-9.415m8.674 5.684c-1.491-1.421-3.051-2.65-4.463-4.21a17.837 17.837 0 01-1.848-2.354m30.266 33.447a22.65 22.65 0 001.011 11.254l.218-.253m-8.334-21.976c.567 4.115.323 8.29-.715 12.309m9.58-19.02a17.19 17.19 0 00-11.009.287m5.396-12.666a3.642 3.642 0 00.584 3.487"/><path stroke="#fff" stroke-linecap="round" stroke-linejoin="round" stroke-width=".436" d="M241.176 48.955a5.918 5.918 0 003.852 5.038m7.75-1.281a3.497 3.497 0 002.197-2.798 3.485 3.485 0 00-1.395-3.269"/><path stroke="#273139" stroke-linecap="round" stroke-linejoin="round" stroke-width=".436" d="M238.177 51.204l-.706-.706m1.316 2.423l-.715-.706M70.844 107.334c5.064-4.019 8.29-8.255 14.418-11.594m-5.204 13.424c1.377-.593 2.37-2.101 3.417-3.242 2.842-3.147 3.434-3.426 6.276-6.564m-7.113-2.232c1.168 3.06 3.818 4.271 7.122 3.487"/><path fill="#273139" d="M63.303 86.648a6.89 6.89 0 00-4.76 2.885c-2.082 2.825-2.039 6.407-1.115 9.641.235.829.82 2.223.044 2.929-1.709 1.569-7-2.728-8.003-1.577-.784.897 1.169 4.916 4.612 6.625 3.949 1.961 9.606.758 11.105-2.206 1.543-3.051-2.127-6.433-.392-8.848 1.674-2.319 5.989-.549 6.756-2.223 1.002-2.179-2.424-5.256-3.95-6.215a6.63 6.63 0 00-4.297-1.011z"/><path fill="#FF5959" d="M72.099 90.187c-.68.236-1.29.636-1.787 1.168A4.524 4.524 0 0069.1 95.06c.009.174.044.34.087.506a3.08 3.08 0 01-1.229-2.101 3.084 3.084 0 011.15-2.807 3.06 3.06 0 012.99-.47z"/><path fill="#92A2B1" d="M83.727 119.346c-.052.54-.139 1.072-.252 1.612-1.456-1.046-3.051-2.536-3.426-4.018 1.107-.323 2.911 1.787 3.678 2.406z"/><path stroke="#273139" stroke-linecap="round" stroke-linejoin="round" stroke-width=".436" d="M87.537 124.872c5.666-2.85 6.869-3.295 13.721-7.209m-2.075-2.022s-5.318 3.007-10.495 4.332a1.746 1.746 0 00-1.151 2.075m13.625-4.672c1.638.575 3.33.976 5.047 1.194.314.017.636 0 .95-.052h.026a.485.485 0 00.41-.462.496.496 0 00-.358-.506l-3.051-.924"/><path stroke="#273139" stroke-linecap="round" stroke-linejoin="round" stroke-width=".436" d="M102.687 116.739a2.627 2.627 0 002.005-.505.51.51 0 00.157-.523.496.496 0 00-.418-.349c-.637-.043-4.577.209-5.23.297"/><path fill="#231F20" d="M83.727 119.346c-.052.54-.139 1.072-.252 1.612-1.456-1.046-3.051-2.536-3.426-4.018 1.107-.323 2.911 1.787 3.678 2.406z"/><path fill="#fff" stroke="#273139" stroke-linecap="round" stroke-linejoin="round" stroke-width=".436" d="M82.246 93.988c.776 3.19-.044 7.793-3.234 8.569-3.182.784-6.843-2.947-7.62-6.129a5.873 5.873 0 01.69-4.489 5.912 5.912 0 013.67-2.693c3.181-.776 5.71 1.56 6.494 4.742z"/><path fill="#273139" d="M81.696 93.49a3.71 3.71 0 002.903-1.699 2.699 2.699 0 00-.375-3.225c-.993-.933-2.563-.794-3.922-.593l-2.668.4a2.447 2.447 0 00-.924.262c-.732.436-.845 1.491-.47 2.25.88 1.778 3.617 2.754 5.456 2.606z"/><path stroke="#273139" stroke-linecap="round" stroke-linejoin="round" stroke-width=".436" d="M68.69 86.308a4.967 4.967 0 012.781 3.8c-.035-1.717.872-4.698 2.31-5.665"/><path fill="#273139" d="M81.862 92.288a11.915 11.915 0 00-3.19-.227c-1.796.148-3.635.977-4.533 2.537a5.598 5.598 0 00-.523 3.73c.14.82.793 1.945-.532 1.927a4.274 4.274 0 01-3.025-1.246c-.924-.95-1.133-2.319-1.124-3.592a7.006 7.006 0 015.03-6.694 7.037 7.037 0 017.862 2.894c.018.218.035.436.035.67z"/><path fill="#5CA6F4" d="M66.834 119.232c.375 3.356 1.037 6.704 1.055 10.095 0 .662-.837 7.305-.436 7.366 4.358 2.894 16.048.435 16.963.052 1.247-.514.07-3.87-.14-4.725a23.405 23.405 0 01-.47-9.109c.349-2.371 1.203-4.69 1.369-7.087a9.655 9.655 0 00-.55-4.097 10.56 10.56 0 00-1.804-3.025 14.127 14.127 0 01-1.595-1.926c-1.046-1.883-1.953-.131-4.795-.166-2.519-.026-4.437-2.824-7.148.209a3.986 3.986 0 00-1.63 1.744c-2.345 4.759-.82 10.669-.82 10.669z"/><path stroke="#273139" stroke-linecap="round" stroke-linejoin="round" stroke-width=".436" d="M85.776 95.487c5.989-2.048 5.466-2.005 13.05-4.184m.2 2.345a31.746 31.746 0 00-8.734 5.152m9.118-7.62c1.403-.976 5.317-.749 6.633-.758.314 0 .637.044.951.096h.017a.493.493 0 01.009.96l-3.086.775"/><path stroke="#273139" stroke-linecap="round" stroke-linejoin="round" stroke-width=".436" d="M102.399 92.061a2.63 2.63 0 011.979.602.51.51 0 01.148.54.497.497 0 01-.444.331c-.637.018-4.088-.052-4.76-.165m-27.685 11.916c.898.933 6.747 2.38 9.51-.026m-10.303-.445c-.035-.924.985-1.604 1.909-1.595.924.009 1.77.497 2.615.907.837.418 1.77.775 2.667.54.654-.166 1.203-.654 1.866-.811.662-.156 1.56.279 1.438.951"/><path stroke="#fff" stroke-linecap="round" stroke-linejoin="round" stroke-width=".436" d="M63.888 94.703c-.977.374-1.491 1.481-1.526 2.528-.026 1.037.323 2.048.575 3.051.262.993.436 2.1.07 3.077-.375.976-1.456 1.743-2.45 1.438"/><path stroke="#273139" stroke-linecap="round" stroke-linejoin="round" stroke-width=".436" d="M68.63 93.29a2.212 2.212 0 011.159-2.44"/><path stroke="#fff" stroke-linecap="round" stroke-linejoin="round" stroke-width=".436" d="M64.166 87.346a3.45 3.45 0 00-3.277 2.658m18.297 1.29c.628.62 1.525.88 2.388.698a2.646 2.646 0 001.892-1.63"/><path fill="#F48927" d="M98.582 114.386a5.4 5.4 0 002.876 3.87c.244.122.462-.244.218-.375a4.969 4.969 0 01-2.694-3.6c-.052-.27-.462-.157-.435.113h.035v-.008z"/><path stroke="#273139" stroke-linecap="round" stroke-linejoin="round" stroke-width=".436" d="M75.97 96.952c0-.654.531-1.195 1.185-1.195.653 0 1.194.54 1.194 1.195m1.072-.009a1.19 1.19 0 112.38 0m-9.231 11.873c5.256 3.486 10.539 6.468 15.69 10.678m-14.348-1.055c5.1 2.275 7.575 4.158 12.683 6.433m-1.011-8.237c-1.865 1.02-2.37 3.364-.758 7.845"/><path fill="#273139" d="M72.587 108.615c-.654.802-1.351 1.569-1.944 2.38-.601.811-1.08 1.682-1.09 2.615 0 .941.332 1.848.95 2.563.314.366.672.688 1.073.959.4.296.828.558 1.273.802l-.253.531a7.144 7.144 0 01-2.711-1.743 4 4 0 01-.872-1.456 4.346 4.346 0 01-.261-1.673 3.763 3.763 0 01.462-1.639c.252-.471.575-.907.941-1.308a23.184 23.184 0 012.258-2.179l.174.148zm.933 9.719s7.627 5.588 9.955 6.896l.218-2.319-10.173-4.577z"/><path fill="#0A2E81" d="M84.451 131.733l8.5-5.884s4.69-1.526 5.997 1.639c1.307 3.155 5.552 19.177 5.552 19.177h-4.245l-5.126-10.024-6.206 5.448s-6.538 4.14-9.153-.218c-2.615-4.359 4.681-10.138 4.681-10.138z"/><path fill="#0A2E81" d="M67.566 134.243s-2.075 7.95 5.013 10.243c7.078 2.284 11 2.833 11 2.833l-17.102.54-.332 4.036H98.73s4.245-1.203 3.051-5.23c-1.203-4.036-18.742-13.511-18.742-13.511l-15.473 1.089z"/><path fill="#0C1535" d="M84.163 131.898s6.285 4.559 7.793 6.974c0 0-5.866-4.594-9.153-5.596l1.36-1.378z"/><path stroke="#131735" stroke-linecap="round" stroke-width=".436" d="M104.701 146.839s1.796 6.817 5.544 5.972m-8.159-3.775s.375 7.148 8.159 3.775m-9.083-4.734l.287 6.015m-35.923-2.327s-6.99.924-6.616 4.75m4.768-7.636s-7.13-.514-4.76 7.628m5.824-8.421l-6.006-.462"/><path fill="#647A8E" d="M102.739 114.316c-5.212 0-9.431-4.228-9.431-9.432a9.427 9.427 0 019.431-9.432h6.556c1.56 0 2.85 1.273 2.85 2.85v6.556a9.402 9.402 0 01-2.754 6.66 9.416 9.416 0 01-6.652 2.789v.009z"/><path fill="#FDDCB5" fill-rule="evenodd" d="M79.726 25.715l.375-.209V23.78c0-.566-.218-1.124-.601-1.525a2.045 2.045 0 00-1.482-.637h-19.57c-.567 0-1.098.218-1.49.62a2.2 2.2 0 00-.62 1.534v1.726l.375.209a3.5 3.5 0 011.752 3.042 3.451 3.451 0 01-1.752 3.025l-.375.235v1.726a2.2 2.2 0 00.62 1.526 2.12 2.12 0 001.49.619h19.57c1.15 0 2.092-.95 2.092-2.136v-1.726l-.375-.236a3.451 3.451 0 01-1.752-3.024 3.5 3.5 0 011.752-3.043" clip-rule="evenodd"/><path fill="#fff" stroke="#92A2B1" stroke-width=".436" d="M66.52 32.323c-.27 0-.54-.096-.767-.279l-2.267-1.9a1.188 1.188 0 01-.148-1.674 1.196 1.196 0 011.674-.148l1.5 1.255 4.89-4.114a1.188 1.188 0 111.525 1.822l-5.658 4.75a1.204 1.204 0 01-.767.28l.018.008z"/><path fill="#EBEFF3" fill-rule="evenodd" d="M108.101 103.533h.374c.184 0 .358.069.471.192.131.13.201.296.201.479v1.351a.68.68 0 01-.68.68h-.375a.67.67 0 00-.628.436c-.035.096-.087.2-.13.305a.684.684 0 00.139.758l.262.262a.685.685 0 010 .959l-.951.95a.685.685 0 01-.959 0l-.261-.262a.7.7 0 00-.758-.139c-.096.044-.201.087-.306.131a.66.66 0 00-.435.627v.375a.68.68 0 01-.672.68h-1.359a.68.68 0 01-.672-.68v-.375a.668.668 0 00-.436-.627c-.095-.035-.2-.087-.305-.131a.683.683 0 00-.758.139l-.261.262a.685.685 0 01-.96 0l-.95-.95a.684.684 0 010-.959l.262-.262a.698.698 0 00.14-.758 9.01 9.01 0 01-.131-.305.67.67 0 00-.628-.436h-.375a.68.68 0 01-.68-.68v-1.351c0-.366.305-.671.68-.671h.375a.682.682 0 00.628-.436c.035-.096.087-.201.13-.305a.684.684 0 00-.139-.759l-.262-.261a.684.684 0 010-.959l.95-.95a.684.684 0 01.96 0l.261.261a.692.692 0 00.758.14l.305-.131a.678.678 0 00.436-.628v-.374a.68.68 0 01.672-.68h1.359a.68.68 0 01.672.68v.374a.67.67 0 00.435.628c.105.035.201.087.306.131a.685.685 0 00.758-.14l.261-.261a.684.684 0 01.959 0l.951.95a.685.685 0 010 .959l-.262.261a.692.692 0 00-.139.759c.043.096.087.2.13.305a.673.673 0 00.628.436h.009zm-2.659 1.482v-.506c-.018-.087-.026-.183-.044-.27l-.026-.087c-.026-.088-.043-.166-.078-.244l-.026-.07a4.752 4.752 0 00-.14-.288l-.035-.061a1.763 1.763 0 00-.139-.209l-.053-.079a1.232 1.232 0 00-.174-.191c-.017-.018-.026-.026-.035-.044a1.694 1.694 0 00-.235-.2l-.061-.053-.201-.139-.087-.052c-.087-.044-.165-.088-.253-.131h-.026a1.742 1.742 0 00-.305-.105l-.087-.026s-.026 0-.044-.017a.713.713 0 00-.191-.035h-.096a2.547 2.547 0 00-1.011.061 2.705 2.705 0 000 5.239c.104.026.217.043.331.061h.331c.096 0 .201 0 .305-.026h.044c.096-.018.192-.027.296-.053h.044c.226-.061.444-.148.645-.261l.139-.087.044-.027c.192-.13.383-.27.558-.427.043-.052.087-.096.13-.157.184-.296.314-.627.401-.967.018-.061.027-.122.044-.175v-.043c0-.018 0-.026.017-.079.027-.087.027-.174.027-.252h-.009z" clip-rule="evenodd"/><path fill="#4BC1A7" d="M142.716 61.77a2.763 2.763 0 100-5.527 2.763 2.763 0 000 5.526z"/><path fill="#FDDCB5" d="M99.968 80.267a2.162 2.162 0 10-.001-4.324 2.162 2.162 0 000 4.324z"/></g><defs><clipPath id="clip0_455_30503"><path fill="#fff" d="M0 0h283v156.733H0z"/></clipPath></defs></svg>