<svg xmlns="http://www.w3.org/2000/svg" width="281" height="155" fill="none" viewBox="0 0 281 155"><path fill="#fff" d="M0 0h281v155H0z" opacity=".01"/><path fill="#EBEFF3" d="M32.323 91.27c5.528-3.343 10.497.57 16.297-.509 9.755-1.816 7.362-15.519 9.127-22.411 4.111-16.05 16.201-23.116 31.135-27.623 15.249-4.598 27.117-15.657 40.382-23.76 11.68-7.113 26.071-10.606 35.335 1.846 6.175 8.3 6.508 21.098 14.797 27.874 4.816 3.928 10.401 1.872 14.601-2.055 5.949-5.541 12.35-11.498 21.232-10.75 6.596.559 12.871 5.617 13.545 12.049 1.252 11.98-14.422 19.053-14.981 30.592-.765 15.724 23.353 5.773 31.477 10.775 2.822 1.733 4.594 4.807 5.253 7.997 1.592 7.649-1.386 15.863-7.125 21.198-7.527 6.998-16.324 4.141-25.677 5.538-20.144 2.995-40.58-6.998-60.931-7.941-30.52-1.389-64.527 5.859-95.05 4.444-8.943-.412-34.333 9.322-38.808 2.299-4.701-7.384.804-24.359 9.39-29.563z"/><path stroke="#EBEFF3" stroke-width=".5" d="M220.359 106.04c1.345 0 2.435-1.066 2.435-2.381 0-1.315-1.09-2.381-2.435-2.381s-2.435 1.066-2.435 2.381c0 1.315 1.09 2.381 2.435 2.381z" clip-rule="evenodd"/><path fill="#fff" d="M77.685 97.444h145.932v43.527H77.685z"/><path stroke="#EBEFF3" stroke-width=".5" d="M176.245 109.563v7.859h39.309m6.352-14.714v-3.04h-45.661v6.526m42.659 11.228h3.002v-12.763m0 30.816v-14.942h-13.254m-15.478 17.754h28.732v-1.846m-45.661-11.247v13.093h15.673m15.478-17.754h-31.151v3.43m-48.666-14.4v7.859h39.31m6.347-14.714v-3.04h-45.657v6.526m42.656 11.228h3.001v-12.763m0 30.356v-14.482h-23.085m-22.572 4.661v13.093h45.657v-1.846m-24.543-15.908h-21.114v3.43m-48.531-14.4v7.859h39.313m6.347-14.714v-3.04h-45.66v6.526m42.659 11.228h3.001v-12.763m0 30.816v-14.942h-13.254m-15.477 17.754h28.731v-1.846m-45.66-11.247v13.093h15.677m15.478-17.754H79.048v3.43"/><path stroke="#EBEFF3" stroke-width=".5" d="M216.236 131.439c1.398 0 2.531-1.108 2.531-2.474 0-1.367-1.133-2.475-2.531-2.475-1.397 0-2.53 1.108-2.53 2.475 0 1.366 1.133 2.474 2.53 2.474zm-48.888 0c1.398 0 2.531-1.108 2.531-2.474 0-1.367-1.133-2.475-2.531-2.475-1.397 0-2.53 1.108-2.53 2.475 0 1.366 1.133 2.474 2.53 2.474zm-48.888 0c1.398 0 2.531-1.108 2.531-2.474 0-1.367-1.133-2.475-2.531-2.475-1.397 0-2.53 1.108-2.53 2.475 0 1.366 1.133 2.474 2.53 2.474z" clip-rule="evenodd"/><path stroke="#92A2B1" stroke-width=".5" d="M75.384 95.74h150.538v46.436H75.384z"/><path fill="#fff" d="M193.856 79.185v19.401c-.005 1.258-1.046 2.276-2.332 2.28H85.889c-1.286-.004-2.327-1.022-2.332-2.28V25.953c.005-1.257 1.046-2.276 2.332-2.28h105.635c1.286.004 2.327 1.023 2.332 2.28v24.392"/><path stroke="#374550" stroke-linecap="round" stroke-linejoin="round" stroke-width=".5" d="M193.856 79.185v19.401c-.005 1.258-1.046 2.276-2.332 2.28H85.889c-1.286-.004-2.327-1.022-2.332-2.28V25.953c.005-1.257 1.046-2.276 2.332-2.28h105.635c1.286.004 2.327 1.023 2.332 2.28v24.392"/><path fill="#374550" d="M85.563 23.684h106.283c1.11 0 2.01.88 2.01 1.966v7.113H83.557V25.65c0-1.084.898-1.964 2.006-1.966z"/><path fill="#fff" d="M88.205 30.15c1.089 0 1.972-.863 1.972-1.928s-.883-1.928-1.972-1.928-1.972.863-1.972 1.928.883 1.928 1.972 1.928zm6.501 0c1.088 0 1.971-.863 1.971-1.928s-.883-1.928-1.972-1.928c-1.088 0-1.971.863-1.971 1.928s.883 1.928 1.972 1.928zm6.496 0c1.089 0 1.972-.863 1.972-1.928s-.883-1.928-1.972-1.928-1.971.863-1.971 1.928.882 1.928 1.971 1.928z"/><path fill="#475867" d="M44.106 124.648s-.647-.539-.685-2.333c-.042-2.051 1.585-1.673 1.757-3.77.165-2.003-1.971-1.475-2.155-3.224-.2-1.871 1.715-1.714 1.554-3.77-.126-1.677-1.026-1.677-1.669-2.302s-1-1.232-.356-3.269c.643-2.036-.245-4.313-.586-6.226-.34-1.913 1.149-2.782 2.182-2.112 1.034.67.946 4.149 2.485 5.242 1.54 1.093 2.83 1.258 2.787 3.1-.042 1.842-1.244 3.141-.383 4.354.862 1.213 2.653.33 3.212 2.011.56 1.681-2.278 3.059-.685 4.65 1.98 1.98 3.77 2.68 2.68 6.701l-10.138.948z" opacity=".42"/><path fill="#647A8E" d="M49.033 110.334a25.325 25.325 0 00-2.163 13.527h4.64s.039-10.483.766-12.796c.02 0-2.025.849-3.243-.731z" opacity=".42"/><path fill="#647A8E" d="M51.238 128.01s-2.576-11.502.31-21.086c2.887-9.585 1.149.603 2.788.603 1.638 0-.93-5.242.206-7.863 1.137-2.62.207 2.524 2.68 3.744 2.473 1.221-.103-2.823.616-6.555.72-3.733 2.374-5.553 2.788-1.618.413 3.935.723 8.072 2.27 5.552 1.546-2.52 2.787-8.985 5.36-7.772 2.572 1.213 3.33 3.897-3.404 9.386-1.857 1.498 2.377 1.082 4.54.404 2.887-.909 3.714 4.138.207 4.74-3.507.603-6.39-1.209-6.803 1.786-.413 2.995 4.954-.303 6.397 1.614 0 0 1.654 3.714-8.04 2.321-3.51-.505-2.89 2.52-.516 2.419 2.373-.101 5.26-1.917 5.88-.3.62 1.618-.206 4.639-5.673 4.538-5.467-.101-3.829 8.881-3.829 8.881l-5.777-.794z"/><path fill="#92A2B1" d="M41.154 123.891l4.977 18.215h12.106l4.146-18.173-21.229-.042z"/><path stroke="#B1BDC7" stroke-width=".895" d="M42.047 126.965l19.532.03"/><path stroke="#B1BDC7" stroke-width=".5" d="M44.956 128.979l13.71.023"/><path stroke="#7B8E9F" stroke-linecap="round" stroke-linejoin="round" stroke-width=".5" d="M48.915 123.824c.157-10.607-5.502-23.52-5.502-23.52m9.747 23.52s3.144-16.758 8.33-20.446" opacity=".42"/><path stroke="#92A2B1" stroke-width=".5" d="M13.77 142.185h149.788"/><rect width="19.142" height="4.493" x="115.807" y="40.996" fill="#fff" stroke="#C0DEFC" stroke-linecap="round" stroke-width=".5" rx="2.246"/><rect width="19.142" height="4.493" x="137.629" y="40.996" fill="#fff" stroke="#C0DEFC" stroke-linecap="round" stroke-width=".5" rx="2.246"/><rect width="19.142" height="4.493" x="162.896" y="40.996" fill="#4DB6AC" rx="2.246"/><rect width="65.847" height="34.819" x="90.732" y="50.169" fill="#fff" stroke="#C0DEFC" stroke-linecap="round" stroke-width=".5" rx="3.475"/><path stroke="#C0DEFC" stroke-linecap="round" stroke-width=".5" d="M90.923 60.465h65.848"/><rect width="48.237" height="2.995" x="94.943" y="53.539" fill="#E5F2FD" rx="1.498"/><path fill="#E5F2FD" d="M96.06 68.147h54.329c1.489 0 1.489-2.246 0-2.246H96.061c-1.49 0-1.493 2.246 0 2.246zm0 5.849h14.227c1.489 0 1.493-2.247 0-2.247H96.061c-1.49 0-1.493 2.247 0 2.247zm20.716 0h26.752c1.489 0 1.493-2.247 0-2.247h-26.752c-1.489 0-1.489 2.247 0 2.247z"/><path fill="#fff" d="M169.898 43.262l-.934.88a.191.191 0 01-.205.036.183.183 0 01-.113-.171v-.6h-1.355a1.447 1.447 0 01-1.563 1.144 1.431 1.431 0 01-1.313-1.413c0-.731.568-1.343 1.313-1.413a1.447 1.447 0 011.563 1.143h1.347v-.602a.185.185 0 01.115-.168.19.19 0 01.203.037l.934.86a.19.19 0 01.061.132.188.188 0 01-.053.135z"/><rect width="21.439" height="34.819" x="160.024" y="49.795" fill="#fff" stroke="#C0DEFC" stroke-linecap="round" stroke-width=".5" rx="2.575"/><path fill="#5CA6F4" d="M164.205 55.792h12.312c1.489 0 1.493-2.246 0-2.246h-12.312c-1.489 0-1.493 2.246 0 2.246zm0 5.242h12.312c1.489 0 1.493-2.246 0-2.246h-12.312c-1.489 0-1.493 2.246 0 2.246zm0 5.616h12.312c1.489 0 1.493-2.246 0-2.246h-12.312c-1.489 0-1.493 2.246 0 2.246z"/><rect width="20.673" height="4.493" x="90.54" y="41.004" fill="#fff" stroke="#C0DEFC" stroke-linecap="round" stroke-width=".52" rx="2.246"/><path fill="#fff" stroke="#C0DEFC" stroke-linecap="round" stroke-width=".5" d="M170.361 81.057c3.489 0 6.317-2.766 6.317-6.178s-2.828-6.177-6.317-6.177c-3.489 0-6.317 2.765-6.317 6.177 0 3.412 2.828 6.178 6.317 6.178z"/><path fill="#4DB6AC" d="M169.549 77.163a.581.581 0 01-.405-.165l-1.895-1.853a.552.552 0 01.014-.78.583.583 0 01.797-.014l1.489 1.457 3.113-3.048a.587.587 0 01.811 0 .55.55 0 010 .794l-3.518 3.444a.584.584 0 01-.406.165z"/><rect width="25.868" height="2.774" x="162.061" y="98.092" fill="#92A2B1" rx="1.387"/><path stroke="#fff" stroke-width=".5" d="M186.513 99.249h-10.838"/><path stroke="#92A2B1" stroke-width=".5" d="M166.789 89.731l8.549 8.368h2.553l-9.827-9.618a.933.933 0 00-.616-.258v0a.906.906 0 00-.852.536.872.872 0 00.193.972v0z" clip-rule="evenodd"/><path fill="#fff" d="M170.618 94.91h9.98c1.218 0 2.205.965 2.205 2.156v1.213h-16.845v-1.213c0-1.191.988-2.157 2.206-2.157"/><path stroke="#92A2B1" stroke-width=".5" d="M170.618 94.91h9.98c1.218 0 2.205.965 2.205 2.156v1.213h-16.845v-1.213c0-1.191.988-2.157 2.206-2.157"/><path fill="#EBEFF3" d="M161.062 100.72h28.173c1.207 0 2.186.957 2.186 2.138v39.42H158.88V102.85c.004-1.176.979-2.128 2.182-2.13z"/><path stroke="#fff" stroke-width=".5" d="M161.939 111.944v21.341m26.607-29.203v21.341"/><path stroke="#131735" stroke-linecap="round" stroke-linejoin="round" stroke-width=".675" d="M200.532 62.344c-2.021 9.997-6.661 16.721-12.304 21.78m12.813-3.247s-3.005 4.493-6.125 7.552m-5.98-3.288l5.421 3.063"/><path fill="#3E66BD" d="M199.648 83.404l.153 45.396a4.134 4.134 0 001.224 3.003c.804.8 1.902 1.25 3.049 1.25 2.253.001 4.119-1.71 4.264-3.909l3.036-47.395-11.726 1.655z"/><path fill="#3E66BD" d="M220.06 107.268l-2.97-26.391-12.534 3.594 6.025 26.676c.149.658.471 1.268.935 1.767l12.974 13.984 5.991-5.811-9.433-11.49a4.495 4.495 0 01-.988-2.329z"/><path fill="#fff" d="M206.263 60.18l3.446-.112c3.301-.113 6.217 2.09 6.94 5.242l4.525 17.184c.954 4.164-.765 8.117-6.649 8.117l-12.573.334a3.439 3.439 0 01-2.501-.98 3.286 3.286 0 01-.986-2.454l1.259-20.966c-.011-4.92 2.986-6.26 6.539-6.365z"/><path stroke="#131735" stroke-linecap="round" stroke-linejoin="round" stroke-width=".55" d="M205.027 91.134c.565-.218.93-.624.816-.91-.115-.284-.665-.339-1.23-.122-.565.217-.93.624-.816.909.114.285.665.34 1.23.123zm-1.411-.126c.115-.285-.251-.692-.815-.909-.565-.217-1.116-.162-1.231.123-.114.285.251.692.816.909.565.217 1.116.162 1.23-.123z" clip-rule="evenodd"/><path stroke="#131735" stroke-linecap="round" stroke-linejoin="round" stroke-width=".55" d="M203.859 91.222c.265.43.695.74 1.195.857m-1.444-.857a2.022 2.022 0 01-.991 1.336"/><path fill="#007657" d="M205.459 60.405l3.446-.45c3.3-.43 6.699 1.498 7.744 4.587l6.022 16.796c1.379 4.084.2 9.487-5.715 10.06l-8.35 1.03s-3.181.329-3.403-4.078l-1.673-25.369s-.065-2.314 1.937-2.576"/><path fill="#fff" d="M205.517 61.63c2.049 0 3.709-1.02 3.709-2.277 0-1.257-1.66-2.276-3.709-2.276-2.049 0-3.71 1.019-3.71 2.276s1.661 2.276 3.71 2.276z"/><path stroke="#131735" stroke-linecap="round" stroke-linejoin="round" stroke-width=".675" d="M205.283 60.289c3.222 0 5.835-2.555 5.835-5.706 0-3.151-2.613-5.706-5.835-5.706s-5.834 2.555-5.834 5.706c0 3.151 2.612 5.706 5.834 5.706z" clip-rule="evenodd"/><path fill="#131735" d="M222.729 87.22s-2.535-12.775-11.922-17.384c0 0 4.525-.913 10.605 9.663 0 0 .704 1.622 1.822 4.868 0-.02-.142 2.017-.505 2.852z"/><path stroke="#131735" stroke-linecap="round" stroke-linejoin="round" stroke-width=".675" d="M212.718 60.862s16.546 3.062 18.988 24.833m-19.834-15.859s8.552 1.846 12.051 17.136m7.783-1.276l-7.346 2.175m6.914-1.086s1.796 4.811-2.01 6.526m-4.135-4.504s.486 5.106 1.593 5.106c1.011 0 .82-2.961.82-2.961m-8.557-6.32l-6.581-1.89"/><path fill="#131735" d="M218.307 91.158s-3.828.711-9.724 1.374c0 0-1.489.393-2.68-1.58-.118.822.024 1.66.406 2.4a2.815 2.815 0 002.527 1.498c1.412 0 4.211-.274 9.506-1.442l-.035-2.25z"/><path stroke="#131735" stroke-linecap="round" stroke-linejoin="round" stroke-width=".675" d="M188.377 88.852c-2.769-.413-5.6.008-8.12 1.205-.482.229-1.022.64-.892 1.146.131.505.82.61 1.356.591 1.175-.044 2.358-.172 3.533-.22m7.201-1.304s.287 1.558-1.148 2.199c-1.436.64-4.464.063-4.464.063s-2.523-.374 2.186-1.498"/><path fill="#3E66BD" d="M227.285 127.924c2.338 0 4.234-1.854 4.234-4.141s-1.896-4.141-4.234-4.141c-2.339 0-4.234 1.854-4.234 4.141s1.895 4.141 4.234 4.141z"/><path stroke="#131735" stroke-linecap="round" stroke-linejoin="round" stroke-width=".675" d="M211.627 60.794s-3.274 0-3.599 3.516c-.325 3.516 2.297 4.8 2.297 4.8"/><path fill="#34479D" d="M197.133 136.119l3.625 4.762h-3.771l-2.163-2.961 2.309-1.801z"/><path stroke="#131735" stroke-linecap="round" stroke-linejoin="round" stroke-width=".675" d="M204.399 142.547h-13.124s-1.301 0-2.052-.494a.661.661 0 01-.264-.778c.184-.495.819-1.273 2.913-1.872 3.155-.921 4.575-3.235 7.596-4.785a.653.653 0 01.553-.016.63.63 0 01.358.413c.142.57.448 1.09.881 1.497a2.801 2.801 0 002.545.566c.617-.158 1.44-.427 1.781-.828 0 0 .895-.726.447 1.498 0 0-.459 2.785.127 3.463-.004-.015 1.202 1.336-1.761 1.336z" clip-rule="evenodd"/><path stroke="#131735" stroke-linecap="round" stroke-linejoin="round" stroke-width=".675" d="M206.156 141.196h-15.593s-1.198.217-.658-.962"/><path fill="#34479D" d="M226.978 132.446l5.946 1.198-2.814 2.453-3.629-.802.497-2.849z"/><path stroke="#131735" stroke-linecap="round" stroke-linejoin="round" stroke-width=".675" d="M236.783 132.521l-9.801 8.536s-.972.847-1.868.966a.688.688 0 01-.728-.408c-.199-.49-.252-1.497.896-3.306 1.727-2.736 1.218-5.387 2.42-8.51a.631.631 0 01.401-.372.65.65 0 01.548.073 3.174 3.174 0 001.673.543 2.756 2.756 0 002.297-1.232c.356-.517.766-1.254.766-1.775 0 0 .172-1.123 1.351.828 0 0 1.555 2.377 2.447 2.504-.02 0 1.803.229-.402 2.153z" clip-rule="evenodd"/><path stroke="#131735" stroke-linecap="round" stroke-linejoin="round" stroke-width=".675" d="M237.166 130.368l-11.646 10.143s-.766.943-1.149-.292"/><path stroke="#fff" stroke-linecap="round" stroke-linejoin="round" stroke-width=".675" d="M207.653 98.433l2.328 11.464"/><path fill="#007657" d="M198.082 67.83c.333-4.688 2.588-6.455 4.514-7.114.183.13.382.25.566.374-2.454 1.42-2.848 4.493-2.848 4.493l-1.708 19.412c-.474 4.422 1.149 5.276 1.149 5.276l-.084 1.737c-3.553 0-3.488-2.43-3.488-2.43-.475-1.767 1.899-21.749 1.899-21.749z"/><path fill="#131735" d="M210.532 58.75c.943 0 1.707-.747 1.707-1.67 0-.922-.764-1.67-1.707-1.67-.943 0-1.708.748-1.708 1.67 0 .923.765 1.67 1.708 1.67z"/><path fill="#131735" d="M211.01 55.871c.943 0 1.708-.748 1.708-1.67 0-.922-.765-1.67-1.708-1.67s-1.707.748-1.707 1.67c0 .922.764 1.67 1.707 1.67z"/><path fill="#131735" d="M212.239 57.077c.943 0 1.708-.748 1.708-1.67 0-.922-.765-1.67-1.708-1.67s-1.707.748-1.707 1.67c0 .922.764 1.67 1.707 1.67z"/><path fill="#131735" d="M213.127 55.407c.943 0 1.708-.748 1.708-1.67 0-.922-.765-1.67-1.708-1.67s-1.707.748-1.707 1.67c0 .922.764 1.67 1.707 1.67z"/><path fill="#131735" d="M212.718 53.172c.943 0 1.707-.748 1.707-1.67 0-.922-.764-1.67-1.707-1.67-.943 0-1.708.748-1.708 1.67 0 .922.765 1.67 1.708 1.67z"/><path fill="#131735" d="M211.711 51.079c.943 0 1.707-.748 1.707-1.67 0-.922-.764-1.67-1.707-1.67-.943 0-1.708.748-1.708 1.67 0 .922.765 1.67 1.708 1.67z"/><path fill="#131735" d="M210.195 49.409c.943 0 1.707-.748 1.707-1.67 0-.922-.764-1.67-1.707-1.67-.943 0-1.707.748-1.707 1.67 0 .922.764 1.67 1.707 1.67z"/><path fill="#131735" d="M207.997 47.998c.943 0 1.708-.748 1.708-1.67 0-.922-.765-1.67-1.708-1.67s-1.707.748-1.707 1.67c0 .922.764 1.67 1.707 1.67z"/><path fill="#131735" d="M205.808 47.57c.943 0 1.707-.747 1.707-1.669s-.764-1.67-1.707-1.67c-.943 0-1.708.748-1.708 1.67 0 .922.765 1.67 1.708 1.67z"/><path fill="#131735" d="M203.805 47.998c.943 0 1.708-.748 1.708-1.67 0-.922-.765-1.67-1.708-1.67s-1.707.748-1.707 1.67c0 .922.764 1.67 1.707 1.67z"/><path fill="#131735" d="M202.098 49.038c.943 0 1.708-.747 1.708-1.67 0-.922-.765-1.67-1.708-1.67s-1.707.748-1.707 1.67c0 .923.764 1.67 1.707 1.67zm8.912 4.834c.943 0 1.708-.748 1.708-1.67 0-.922-.765-1.67-1.708-1.67s-1.707.748-1.707 1.67c0 .922.764 1.67 1.707 1.67z"/><path fill="#131735" d="M208.824 54.197c.943 0 1.708-.747 1.708-1.67 0-.922-.765-1.67-1.708-1.67s-1.707.748-1.707 1.67c0 .923.764 1.67 1.707 1.67z"/><path fill="#131735" d="M209.709 56.036c.943 0 1.707-.748 1.707-1.67 0-.922-.764-1.67-1.707-1.67-.943 0-1.708.748-1.708 1.67 0 .922.765 1.67 1.708 1.67zm-3.128-2.864c.943 0 1.707-.748 1.707-1.67 0-.922-.764-1.67-1.707-1.67-.943 0-1.707.748-1.707 1.67 0 .922.764 1.67 1.707 1.67z"/><path fill="#131735" d="M208.292 52.198c.943 0 1.708-.747 1.708-1.67 0-.922-.765-1.67-1.708-1.67s-1.707.748-1.707 1.67c0 .923.764 1.67 1.707 1.67z"/><path fill="#131735" d="M207.997 49.667c.943 0 1.708-.747 1.708-1.67 0-.922-.765-1.67-1.708-1.67s-1.707.748-1.707 1.67c0 .923.764 1.67 1.707 1.67z"/><path fill="#131735" d="M204.873 49.24c.943 0 1.708-.747 1.708-1.67 0-.922-.765-1.67-1.708-1.67s-1.707.748-1.707 1.67c0 .923.764 1.67 1.707 1.67z"/><path fill="#131735" d="M203.162 50.529c.943 0 1.708-.748 1.708-1.67 0-.922-.765-1.67-1.708-1.67s-1.707.748-1.707 1.67c0 .922.764 1.67 1.707 1.67z"/><path fill="#131735" d="M202.24 52.052c.943 0 1.707-.747 1.707-1.67 0-.922-.764-1.67-1.707-1.67-.943 0-1.708.748-1.708 1.67 0 .923.765 1.67 1.708 1.67z"/><path fill="#131735" d="M201.455 53.01c.943 0 1.707-.747 1.707-1.669s-.764-1.67-1.707-1.67c-.943 0-1.708.748-1.708 1.67 0 .922.765 1.67 1.708 1.67z"/><path fill="#131735" d="M200.1 53.172c.943 0 1.707-.748 1.707-1.67 0-.922-.764-1.67-1.707-1.67-.943 0-1.708.748-1.708 1.67 0 .922.765 1.67 1.708 1.67z"/><path fill="#131735" d="M200.532 50.188c.943 0 1.708-.748 1.708-1.67 0-.922-.765-1.67-1.708-1.67s-1.707.748-1.707 1.67c0 .922.764 1.67 1.707 1.67z"/><path fill="#131735" d="M198.951 51.435c.943 0 1.708-.748 1.708-1.67 0-.922-.765-1.67-1.708-1.67s-1.707.748-1.707 1.67c0 .922.764 1.67 1.707 1.67z"/><path fill="#131735" d="M198.825 53.333c.943 0 1.707-.748 1.707-1.67 0-.922-.764-1.67-1.707-1.67-.943 0-1.708.748-1.708 1.67 0 .922.765 1.67 1.708 1.67z"/><path fill="#131735" d="M199.939 52.3c.142.002.284.012.425.03a4.082 4.082 0 00-.915 2.227 2.69 2.69 0 00.08.824c-1.183-.124-2.086-.75-2.086-1.528 0-.857 1.114-1.554 2.496-1.554zm-.988-2.112c.943 0 1.708-.748 1.708-1.67 0-.922-.765-1.67-1.708-1.67s-1.707.748-1.707 1.67c0 .922.764 1.67 1.707 1.67z"/><path fill="#131735" d="M200.662 48.859c.943 0 1.708-.748 1.708-1.67 0-.922-.765-1.67-1.708-1.67s-1.707.748-1.707 1.67c0 .922.764 1.67 1.707 1.67z"/><path fill="#131735" d="M202.24 46.844c.943 0 1.707-.747 1.707-1.67 0-.922-.764-1.67-1.707-1.67-.943 0-1.708.748-1.708 1.67 0 .923.765 1.67 1.708 1.67z"/><path fill="#131735" d="M204.582 46.066c.943 0 1.708-.748 1.708-1.67 0-.922-.765-1.67-1.708-1.67s-1.707.748-1.707 1.67c0 .922.764 1.67 1.707 1.67z"/><path fill="#131735" d="M207.113 46.665c.943 0 1.708-.748 1.708-1.67 0-.922-.765-1.67-1.708-1.67s-1.707.748-1.707 1.67c0 .922.764 1.67 1.707 1.67z"/><path fill="#131735" d="M210.195 47.024c.943 0 1.707-.747 1.707-1.67 0-.922-.764-1.67-1.707-1.67-.943 0-1.707.748-1.707 1.67 0 .923.764 1.67 1.707 1.67z"/><path fill="#131735" d="M211.906 48.859c.943 0 1.708-.748 1.708-1.67 0-.922-.765-1.67-1.708-1.67s-1.707.748-1.707 1.67c0 .922.764 1.67 1.707 1.67z"/><path fill="#131735" d="M213.353 50.708c.943 0 1.708-.747 1.708-1.67 0-.922-.765-1.67-1.708-1.67s-1.707.748-1.707 1.67c0 .923.764 1.67 1.707 1.67z"/><path fill="#131735" d="M214.59 52.966c.943 0 1.707-.748 1.707-1.67 0-.922-.764-1.67-1.707-1.67-.943 0-1.708.748-1.708 1.67 0 .922.765 1.67 1.708 1.67z"/><path fill="#131735" d="M214.835 55.542c.943 0 1.707-.748 1.707-1.67 0-.922-.764-1.67-1.707-1.67-.943 0-1.708.748-1.708 1.67 0 .922.765 1.67 1.708 1.67z"/><path fill="#131735" d="M213.353 57.926c.943 0 1.708-.747 1.708-1.67 0-.922-.765-1.67-1.708-1.67s-1.707.748-1.707 1.67c0 .923.764 1.67 1.707 1.67z"/><path fill="#131735" d="M211.971 58.885c.943 0 1.708-.748 1.708-1.67 0-.922-.765-1.67-1.708-1.67s-1.707.748-1.707 1.67c0 .922.764 1.67 1.707 1.67zm-1.439-7.545c.943 0 1.707-.747 1.707-1.669s-.764-1.67-1.707-1.67c-.943 0-1.708.748-1.708 1.67 0 .922.765 1.67 1.708 1.67z"/><path fill="#131735" d="M209.226 51.079c.943 0 1.708-.748 1.708-1.67 0-.922-.765-1.67-1.708-1.67s-1.707.748-1.707 1.67c0 .922.764 1.67 1.707 1.67z"/><path fill="#131735" d="M210.532 52.621c.943 0 1.707-.747 1.707-1.67 0-.922-.764-1.67-1.707-1.67-.943 0-1.708.748-1.708 1.67 0 .923.765 1.67 1.708 1.67zm-3.503-1.119c.943 0 1.707-.748 1.707-1.67 0-.922-.764-1.67-1.707-1.67-.943 0-1.708.748-1.708 1.67 0 .922.765 1.67 1.708 1.67z"/><path fill="#131735" d="M204.873 51.502c.943 0 1.708-.748 1.708-1.67 0-.922-.765-1.67-1.708-1.67s-1.707.748-1.707 1.67c0 .922.764 1.67 1.707 1.67z"/><path fill="#131735" d="M203.522 52.621c.943 0 1.708-.747 1.708-1.67 0-.922-.765-1.67-1.708-1.67s-1.707.748-1.707 1.67c0 .923.764 1.67 1.707 1.67zm-.873 3.426a.45.45 0 00.456-.445.45.45 0 00-.456-.446.45.45 0 00-.455.446.45.45 0 00.455.445zm-1.65 0a.45.45 0 00.456-.445.45.45 0 00-.456-.446.45.45 0 00-.455.446.45.45 0 00.455.445z"/><path stroke="#fff" stroke-linecap="round" stroke-linejoin="round" stroke-width=".5" d="M221.171 106.497l-2.098 1.816m2.944.472l-2.404.209"/><path fill="#647A8E" d="M76.554 50.555c1.27-8.394-4.658-16.207-13.241-17.45-8.584-1.242-16.573 4.556-17.843 12.95-1.27 8.395 4.658 16.207 13.241 17.45 8.584 1.243 16.573-4.555 17.843-12.95z" opacity=".25"/><path fill="#fff" d="M74.269 48.317c1.27-8.395-4.658-16.207-13.242-17.45-8.584-1.242-16.572 4.556-17.843 12.95-1.27 8.395 4.658 16.207 13.242 17.45 8.583 1.242 16.572-4.555 17.843-12.95z"/><path fill="#B1BDC7" d="M58.727 58.458c6.996 0 12.668-5.546 12.668-12.389 0-6.842-5.672-12.388-12.668-12.388-6.996 0-12.668 5.546-12.668 12.388 0 6.843 5.672 12.39 12.668 12.39z" opacity=".5"/><path stroke="#7B8E9F" stroke-dasharray="56.98" stroke-width=".5" d="M75.183 48.316c1.271-8.395-4.657-16.207-13.241-17.45-8.584-1.242-16.572 4.555-17.843 12.95-1.27 8.394 4.658 16.207 13.242 17.45 8.583 1.242 16.572-4.556 17.842-12.95z" clip-rule="evenodd"/><path stroke="#92A2B1" stroke-dasharray="56.98" stroke-width=".5" d="M59.642 58.458c6.996 0 12.668-5.546 12.668-12.389 0-6.842-5.672-12.388-12.668-12.388-6.997 0-12.668 5.546-12.668 12.388 0 6.843 5.671 12.39 12.668 12.39z" clip-rule="evenodd" opacity=".5"/><path stroke="#fff" stroke-width=".715" d="M57.452 45.186l7.262 5.882"/><path stroke="#7B8E9F" stroke-dasharray="56.98" stroke-width=".5" d="M49.715 48.342l11.603-2.568"/><path stroke="#fff" stroke-width="1.07" d="M58.872 47.822l.659-7.567"/></svg>