<svg width="271" height="150" viewBox="0 0 271 150" fill="none" xmlns="http://www.w3.org/2000/svg">
<path fill-rule="evenodd" clip-rule="evenodd" d="M221.571 49.8369C224.344 46.1082 225.941 41.7335 225.941 37.0549C225.941 23.4177 212.378 12.3621 195.647 12.3621C178.917 12.3621 165.354 23.4177 165.354 37.0549V37.1172C165.358 38.5038 164.44 39.7111 163.099 40.0678C157.978 41.4308 153.203 43.3909 148.906 45.8434C147.342 46.7365 145.365 46.0223 144.666 44.3637C136.253 24.3967 114.599 10.1836 89.2087 10.1836C56.5088 10.1836 30 33.7567 30 62.8361C30 91.9159 56.5088 115.489 89.2087 115.489C104.872 115.489 119.115 110.08 129.704 101.247C131.022 100.148 132.999 100.352 134.023 101.729C143.327 114.232 160.502 122.622 180.154 122.622C209.708 122.622 233.665 103.649 233.665 80.2458C233.665 70.2107 229.259 60.991 221.897 53.7319C220.84 52.6898 220.685 51.0277 221.571 49.8369Z" fill="#F9F9F9"/>
<path fill-rule="evenodd" clip-rule="evenodd" d="M43.2224 20.0467C45.2932 20.0467 46.9721 18.3686 46.9721 16.2983C46.9721 14.2289 45.2932 12.5508 43.2224 12.5508C41.1516 12.5508 39.4728 14.2289 39.4728 16.2983C39.4728 18.3686 41.1516 20.0467 43.2224 20.0467Z" fill="#F9F9F9"/>
<path fill-rule="evenodd" clip-rule="evenodd" d="M182.3 77.6465H90.4433C89.3281 77.6465 88.4156 76.7338 88.4156 75.6183V11.0283C88.4156 9.91274 89.3281 9 90.4433 9H182.3C183.415 9 184.328 9.91274 184.328 11.0283V75.6183C184.328 76.7338 183.415 77.6465 182.3 77.6465Z" fill="white"/>
<path fill-rule="evenodd" clip-rule="evenodd" d="M171.186 53.5807H100.768C99.6134 53.5807 98.6779 52.6562 98.6779 51.5153V43.416C98.6779 42.2751 99.6134 41.3506 100.768 41.3506H171.186C172.341 41.3506 173.276 42.2751 173.276 43.416V51.5153C173.276 52.6562 172.341 53.5807 171.186 53.5807Z" fill="#B2E4D9"/>
<path fill-rule="evenodd" clip-rule="evenodd" d="M168.029 50.4245H97.6102C96.4558 50.4245 95.5203 49.4999 95.5203 48.3591V40.2597C95.5203 39.1189 96.4558 38.1943 97.6102 38.1943H169.542C169.86 38.1943 170.119 38.4492 170.119 38.7642V48.3591C170.119 49.4999 169.183 50.4245 168.029 50.4245Z" fill="white"/>
<path fill-rule="evenodd" clip-rule="evenodd" d="M168.029 50.4245H97.6102C96.4558 50.4245 95.5203 49.4999 95.5203 48.3591V40.2597C95.5203 39.1189 96.4558 38.1943 97.6102 38.1943H169.542C169.86 38.1943 170.119 38.4492 170.119 38.7642V48.3591C170.119 49.4999 169.183 50.4245 168.029 50.4245Z" stroke="#1AB394" stroke-width="0.39452"/>
<path fill-rule="evenodd" clip-rule="evenodd" d="M106.177 44.1116C106.177 45.1788 105.792 46.1566 105.152 46.9121C104.355 47.854 103.165 48.4519 101.835 48.4519C100.507 48.4519 99.3168 47.8552 98.5202 46.9133C97.8793 46.1574 97.4937 45.1796 97.4937 44.1116C97.4937 41.715 99.4382 39.7725 101.835 39.7725C104.233 39.7725 106.177 41.715 106.177 44.1116Z" fill="white"/>
<path fill-rule="evenodd" clip-rule="evenodd" d="M106.177 44.1116C106.177 45.1788 105.792 46.1566 105.152 46.9121C104.355 47.854 103.165 48.4519 101.835 48.4519C100.507 48.4519 99.3168 47.8552 98.5202 46.9133C97.8793 46.1574 97.4937 45.1796 97.4937 44.1116C97.4937 41.715 99.4382 39.7725 101.835 39.7725C104.233 39.7725 106.177 41.715 106.177 44.1116Z" stroke="#4BC1A7" stroke-width="0.39452"/>
<path fill-rule="evenodd" clip-rule="evenodd" d="M104.993 46.9969C104.235 47.8872 103.101 48.4521 101.835 48.4521C100.57 48.4521 99.4361 47.8883 98.6779 46.998C99.1888 45.7673 100.41 44.9014 101.835 44.9014C103.259 44.9014 104.481 45.7662 104.993 46.9969Z" fill="white"/>
<path fill-rule="evenodd" clip-rule="evenodd" d="M104.993 46.9969C104.235 47.8872 103.101 48.4521 101.835 48.4521C100.57 48.4521 99.4361 47.8883 98.6779 46.998C99.1888 45.7673 100.41 44.9014 101.835 44.9014C103.259 44.9014 104.481 45.7662 104.993 46.9969Z" stroke="#4BC1A7" stroke-width="0.39452"/>
<path fill-rule="evenodd" clip-rule="evenodd" d="M103.414 42.5341C103.414 43.4054 102.707 44.1122 101.835 44.1122C100.963 44.1122 100.257 43.4054 100.257 42.5341C100.257 41.6629 100.963 40.9561 101.835 40.9561C102.707 40.9561 103.414 41.6629 103.414 42.5341Z" fill="white"/>
<path fill-rule="evenodd" clip-rule="evenodd" d="M103.414 42.5341C103.414 43.4054 102.707 44.1122 101.835 44.1122C100.963 44.1122 100.257 43.4054 100.257 42.5341C100.257 41.6629 100.963 40.9561 101.835 40.9561C102.707 40.9561 103.414 41.6629 103.414 42.5341Z" stroke="#4BC1A7" stroke-width="0.39452"/>
<path fill-rule="evenodd" clip-rule="evenodd" d="M111.757 42.5341H146.841H151.908C153.032 42.5341 153.034 40.9561 151.908 40.9561H116.824H111.757C110.633 40.9561 110.632 42.5341 111.757 42.5341Z" fill="#81D4C0"/>
<path fill-rule="evenodd" clip-rule="evenodd" d="M111.744 47.2685H122.319C123.425 47.2685 123.427 45.6904 122.319 45.6904H111.744C110.637 45.6904 110.636 47.2685 111.744 47.2685Z" fill="#81D4C0"/>
<path fill-rule="evenodd" clip-rule="evenodd" d="M126.753 47.2685H155.463C156.583 47.2685 156.585 45.6904 155.463 45.6904H126.753C125.633 45.6904 125.631 47.2685 126.753 47.2685Z" fill="#81D4C0"/>
<path fill-rule="evenodd" clip-rule="evenodd" d="M173.554 68.9669H103.136C101.982 68.9669 101.046 68.0424 101.046 66.9016V58.8022C101.046 57.6617 101.982 56.7368 103.136 56.7368H173.554C174.708 56.7368 175.644 57.6617 175.644 58.8022V66.9016C175.644 68.0424 174.708 68.9669 173.554 68.9669Z" fill="white"/>
<path fill-rule="evenodd" clip-rule="evenodd" d="M173.554 68.9669H103.136C101.982 68.9669 101.046 68.0424 101.046 66.9016V58.8022C101.046 57.6617 101.982 56.7368 103.136 56.7368H173.554C174.708 56.7368 175.644 57.6617 175.644 58.8022V66.9016C175.644 68.0424 174.708 68.9669 173.554 68.9669Z" stroke="#EBEFF3" stroke-width="0.39452"/>
<path fill-rule="evenodd" clip-rule="evenodd" d="M112.098 62.6541C112.098 63.7213 111.712 64.699 111.072 65.455C110.276 66.3969 109.086 66.9944 107.756 66.9944C106.427 66.9944 105.237 66.3977 104.441 65.4562C103.8 64.7002 103.414 63.7225 103.414 62.6541C103.414 60.2579 105.359 58.3149 107.756 58.3149C110.153 58.3149 112.098 60.2579 112.098 62.6541Z" fill="white"/>
<path fill-rule="evenodd" clip-rule="evenodd" d="M112.098 62.6541C112.098 63.7213 111.712 64.699 111.072 65.455C110.276 66.3969 109.086 66.9944 107.756 66.9944C106.427 66.9944 105.237 66.3977 104.441 65.4562C103.8 64.7002 103.414 63.7225 103.414 62.6541C103.414 60.2579 105.359 58.3149 107.756 58.3149C110.153 58.3149 112.098 60.2579 112.098 62.6541Z" stroke="#EBEFF3" stroke-width="0.39452"/>
<path fill-rule="evenodd" clip-rule="evenodd" d="M110.914 65.5397C110.155 66.4301 109.022 66.9945 107.755 66.9945C106.49 66.9945 105.357 66.4308 104.598 65.5409C105.109 64.3102 106.33 63.4438 107.755 63.4438C109.18 63.4438 110.402 64.309 110.914 65.5397Z" fill="white"/>
<path fill-rule="evenodd" clip-rule="evenodd" d="M110.914 65.5397C110.155 66.4301 109.022 66.9945 107.755 66.9945C106.49 66.9945 105.357 66.4308 104.598 65.5409C105.109 64.3102 106.33 63.4438 107.755 63.4438C109.18 63.4438 110.402 64.309 110.914 65.5397Z" stroke="#EBEFF3" stroke-width="0.39452"/>
<path fill-rule="evenodd" clip-rule="evenodd" d="M109.335 61.0764C109.335 61.948 108.628 62.6547 107.756 62.6547C106.884 62.6547 106.177 61.948 106.177 61.0764C106.177 60.2053 106.884 59.4985 107.756 59.4985C108.628 59.4985 109.335 60.2053 109.335 61.0764Z" fill="white"/>
<path fill-rule="evenodd" clip-rule="evenodd" d="M109.335 61.0764C109.335 61.948 108.628 62.6547 107.756 62.6547C106.884 62.6547 106.177 61.948 106.177 61.0764C106.177 60.2053 106.884 59.4985 107.756 59.4985C108.628 59.4985 109.335 60.2053 109.335 61.0764Z" stroke="#EBEFF3" stroke-width="0.39452"/>
<path fill-rule="evenodd" clip-rule="evenodd" d="M117.283 61.0766H152.367H157.434C158.558 61.0766 158.559 59.4985 157.434 59.4985H122.35H117.283C116.159 59.4985 116.157 61.0766 117.283 61.0766Z" fill="#EBEFF3"/>
<path fill-rule="evenodd" clip-rule="evenodd" d="M117.665 65.811H128.239C129.346 65.811 129.347 64.2329 128.239 64.2329H117.665C116.558 64.2329 116.556 65.811 117.665 65.811Z" fill="#EBEFF3"/>
<path fill-rule="evenodd" clip-rule="evenodd" d="M132.279 65.811H160.989C162.109 65.811 162.111 64.2329 160.989 64.2329H132.279C131.158 64.2329 131.157 65.811 132.279 65.811Z" fill="#EBEFF3"/>
<path fill-rule="evenodd" clip-rule="evenodd" d="M173.554 36.2218H103.136C101.982 36.2218 101.046 35.2973 101.046 34.1565V26.0571C101.046 24.9162 101.982 23.9917 103.136 23.9917H173.554C174.708 23.9917 175.644 24.9162 175.644 26.0571V34.1565C175.644 35.2973 174.708 36.2218 173.554 36.2218Z" fill="white"/>
<path fill-rule="evenodd" clip-rule="evenodd" d="M173.554 36.2218H103.136C101.982 36.2218 101.046 35.2973 101.046 34.1565V26.0571C101.046 24.9162 101.982 23.9917 103.136 23.9917H173.554C174.708 23.9917 175.644 24.9162 175.644 26.0571V34.1565C175.644 35.2973 174.708 36.2218 173.554 36.2218Z" stroke="#EBEFF3" stroke-width="0.39452"/>
<path fill-rule="evenodd" clip-rule="evenodd" d="M112.098 30.3035C112.098 31.3707 111.712 32.3485 111.072 33.1044C110.276 34.0459 109.086 34.6438 107.756 34.6438C106.427 34.6438 105.237 34.0471 104.441 33.1052C103.8 32.3493 103.414 31.3719 103.414 30.3035C103.414 27.9073 105.359 25.9644 107.756 25.9644C110.153 25.9644 112.098 27.9073 112.098 30.3035Z" fill="white"/>
<path fill-rule="evenodd" clip-rule="evenodd" d="M112.098 30.3035C112.098 31.3707 111.712 32.3485 111.072 33.1044C110.276 34.0459 109.086 34.6438 107.756 34.6438C106.427 34.6438 105.237 34.0471 104.441 33.1052C103.8 32.3493 103.414 31.3719 103.414 30.3035C103.414 27.9073 105.359 25.9644 107.756 25.9644C110.153 25.9644 112.098 27.9073 112.098 30.3035Z" stroke="#EBEFF3" stroke-width="0.39452"/>
<path fill-rule="evenodd" clip-rule="evenodd" d="M110.914 32.7946C110.155 33.6846 109.022 34.2494 107.755 34.2494C106.49 34.2494 105.357 33.6857 104.598 32.7954C105.109 31.5647 106.33 30.6987 107.755 30.6987C109.18 30.6987 110.402 31.5639 110.914 32.7946Z" fill="white"/>
<path fill-rule="evenodd" clip-rule="evenodd" d="M110.914 32.7946C110.155 33.6846 109.022 34.2494 107.755 34.2494C106.49 34.2494 105.357 33.6857 104.598 32.7954C105.109 31.5647 106.33 30.6987 107.755 30.6987C109.18 30.6987 110.402 31.5639 110.914 32.7946Z" stroke="#EBEFF3" stroke-width="0.39452"/>
<path fill-rule="evenodd" clip-rule="evenodd" d="M109.335 28.3315C109.335 29.2028 108.628 29.9096 107.756 29.9096C106.884 29.9096 106.177 29.2028 106.177 28.3315C106.177 27.4602 106.884 26.7534 107.756 26.7534C108.628 26.7534 109.335 27.4602 109.335 28.3315Z" fill="white"/>
<path fill-rule="evenodd" clip-rule="evenodd" d="M109.335 28.3315C109.335 29.2028 108.628 29.9096 107.756 29.9096C106.884 29.9096 106.177 29.2028 106.177 28.3315C106.177 27.4602 106.884 26.7534 107.756 26.7534C108.628 26.7534 109.335 27.4602 109.335 28.3315Z" stroke="#EBEFF3" stroke-width="0.39452"/>
<path fill-rule="evenodd" clip-rule="evenodd" d="M117.283 28.726H152.367H157.434C158.558 28.726 158.559 27.1479 157.434 27.1479H122.35H117.283C116.159 27.1479 116.157 28.726 117.283 28.726Z" fill="#EBEFF3"/>
<path fill-rule="evenodd" clip-rule="evenodd" d="M117.665 33.0659H128.239C129.346 33.0659 129.347 31.4878 128.239 31.4878H117.665C116.558 31.4878 116.556 33.0659 117.665 33.0659Z" fill="#EBEFF3"/>
<path fill-rule="evenodd" clip-rule="evenodd" d="M132.279 33.0659H160.989C162.109 33.0659 162.111 31.4878 160.989 31.4878H132.279C131.158 31.4878 131.157 33.0659 132.279 33.0659Z" fill="#EBEFF3"/>
<path d="M133.806 77.4492H104.598" stroke="#374550" stroke-width="0.577183" stroke-linecap="round" stroke-linejoin="round"/>
<path d="M88.4156 57.5895V10.7413C88.4156 9.77965 89.1977 9 90.1619 9H182.581C183.546 9 184.328 9.77965 184.328 10.7413V75.6739" stroke="#374550" stroke-width="0.577183" stroke-linecap="round" stroke-linejoin="round"/>
<path fill-rule="evenodd" clip-rule="evenodd" d="M184.328 16.8904H88.4156V10.7074C88.4156 9.76447 89.1977 9 90.1619 9H182.581C183.546 9 184.328 9.76447 184.328 10.7074V16.8904Z" fill="#374550"/>
<path fill-rule="evenodd" clip-rule="evenodd" d="M94.3361 13.1425C94.3361 14.1228 93.541 14.9179 92.5598 14.9179C91.5789 14.9179 90.7838 14.1228 90.7838 13.1425C90.7838 12.1622 91.5789 11.3672 92.5598 11.3672C93.541 11.3672 94.3361 12.1622 94.3361 13.1425Z" fill="white"/>
<path fill-rule="evenodd" clip-rule="evenodd" d="M99.8619 13.1425C99.8619 14.1228 99.0668 14.9179 98.0855 14.9179C97.1047 14.9179 96.3096 14.1228 96.3096 13.1425C96.3096 12.1622 97.1047 11.3672 98.0855 11.3672C99.0668 11.3672 99.8619 12.1622 99.8619 13.1425Z" fill="white"/>
<path fill-rule="evenodd" clip-rule="evenodd" d="M105.388 13.1425C105.388 14.1228 104.593 14.9179 103.612 14.9179C102.631 14.9179 101.835 14.1228 101.835 13.1425C101.835 12.1622 102.631 11.3672 103.612 11.3672C104.593 11.3672 105.388 12.1622 105.388 13.1425Z" fill="white"/>
<path d="M185.512 60.6821C184.986 61.6027 184.459 62.5232 183.933 63.4438" stroke="#273139" stroke-width="0.39452" stroke-linecap="round" stroke-linejoin="round"/>
<path d="M183.538 62.6546C181.127 60.8112 178.668 59.4134 176.434 56.7368" stroke="#273139" stroke-width="0.39452" stroke-linecap="round" stroke-linejoin="round"/>
<path fill-rule="evenodd" clip-rule="evenodd" d="M174.94 85.537H92.2778C91.2389 85.537 90.3891 84.6493 90.3891 83.5644C90.3891 82.4791 91.2389 81.5918 92.2778 81.5918H174.94C175.979 81.5918 176.828 82.4791 176.828 83.5644C176.828 84.6493 175.979 85.537 174.94 85.537Z" fill="#C0DEFC"/>
<path d="M84.074 48.8467C86.277 60.0721 91.3367 67.6256 97.4938 73.3069" stroke="#131735" stroke-width="0.56732" stroke-linecap="round" stroke-linejoin="round"/>
<path d="M83.6793 69.3618C83.6793 69.3618 86.9623 74.5192 90.3892 78.0413" stroke="#131735" stroke-width="0.56732" stroke-linecap="round" stroke-linejoin="round"/>
<path d="M97.099 74.4902L91.1785 78.0409" stroke="#131735" stroke-width="0.56732" stroke-linecap="round" stroke-linejoin="round"/>
<path fill-rule="evenodd" clip-rule="evenodd" d="M85.258 72.3987L85.101 123.367C85.1492 125.992 83.0075 128.145 80.3487 128.145C77.8432 128.145 75.768 126.225 75.6059 123.756L72.2329 70.5454L85.258 72.3987Z" fill="#3E66BD"/>
<path fill-rule="evenodd" clip-rule="evenodd" d="M62.7339 99.409L65.9946 69.7563L79.7322 73.7957L73.1283 103.753C72.9653 104.492 72.6123 105.175 72.1049 105.736L57.8812 121.439L51.3138 114.913L61.6512 102.024C62.2529 101.273 62.6287 100.366 62.7339 99.409Z" fill="#3E66BD"/>
<path fill-rule="evenodd" clip-rule="evenodd" d="M77.8502 46.2174L74.0686 46.0894C70.4344 45.9658 67.2266 48.4439 66.4328 51.9892L61.4541 71.3028C60.406 75.9836 62.2814 80.4285 68.7718 80.4285L82.605 80.8014C84.7576 80.8589 86.5136 79.0922 86.4399 76.9424L85.0564 53.3956C85.0564 47.8411 81.7659 46.3504 77.8502 46.2174Z" fill="white"/>
<path fill-rule="evenodd" clip-rule="evenodd" d="M78.7768 46.6575L74.985 46.1526C71.3408 45.6671 67.5863 47.8359 66.4342 51.3234L59.7822 70.2632C58.261 74.8674 59.563 80.9614 66.0925 81.607L75.3113 82.7692C75.3113 82.7692 78.823 83.1382 79.0714 78.1716L80.9161 49.5654C80.9161 49.5654 80.9912 46.9526 78.7768 46.6575Z" fill="#007657"/>
<path fill-rule="evenodd" clip-rule="evenodd" d="M82.8899 45.4929C82.8899 46.9093 81.0344 48.0575 78.7453 48.0575C76.4567 48.0575 74.6012 46.9093 74.6012 45.4929C74.6012 44.0765 76.4567 42.9287 78.7453 42.9287C81.0344 42.9287 82.8899 44.0765 82.8899 45.4929Z" fill="#FEF1E1"/>
<path fill-rule="evenodd" clip-rule="evenodd" d="M85.258 39.9702C85.258 43.3473 82.5189 46.0851 79.1404 46.0851C75.7614 46.0851 73.0223 43.3473 73.0223 39.9702C73.0223 36.5928 75.7614 33.855 79.1404 33.855C82.5189 33.855 85.258 36.5928 85.258 39.9702Z" fill="white"/>
<path fill-rule="evenodd" clip-rule="evenodd" d="M72.7183 41.0469C73.3135 44.5919 76.6711 46.9834 80.2177 46.389C83.7644 45.7941 86.1571 42.4381 85.5619 38.8931C84.9671 35.3482 81.6095 32.9566 78.0629 33.5511C74.5162 34.1464 72.1235 37.502 72.7183 41.0469Z" stroke="#131735" stroke-width="0.56732" stroke-linecap="round" stroke-linejoin="round"/>
<path fill-rule="evenodd" clip-rule="evenodd" d="M59.7729 76.8574C59.7729 76.8574 62.5902 62.3778 73.0224 57.1538C73.0224 57.1538 67.9926 56.1193 61.2367 68.1089C61.2367 68.1089 60.451 69.9468 59.2079 73.6026C59.2079 73.6026 59.3687 75.9114 59.7729 76.8574Z" fill="#131735"/>
<path d="M70.6541 46.874C70.6541 46.874 52.4284 50.3287 49.735 74.885" stroke="#131735" stroke-width="0.56732" stroke-linecap="round" stroke-linejoin="round"/>
<path d="M71.8382 57.1313C71.8382 57.1313 62.3154 59.2154 58.4184 76.4628" stroke="#131735" stroke-width="0.56732" stroke-linecap="round" stroke-linejoin="round"/>
<path d="M49.735 74.8848L58.0237 77.2519" stroke="#131735" stroke-width="0.56732" stroke-linecap="round" stroke-linejoin="round"/>
<path d="M50.2158 76.0684C50.2158 76.0684 48.1765 81.5932 52.4979 83.5642" stroke="#131735" stroke-width="0.56732" stroke-linecap="round" stroke-linejoin="round"/>
<path d="M57.2343 78.4355C57.2343 78.4355 56.6805 84.3538 55.418 84.3534C54.2704 84.3534 54.4878 80.9225 54.4878 80.9225" stroke="#131735" stroke-width="0.56732" stroke-linecap="round" stroke-linejoin="round"/>
<path d="M63.9442 73.7016L71.0488 71.729" stroke="#131735" stroke-width="0.56732" stroke-linecap="round" stroke-linejoin="round"/>
<path fill-rule="evenodd" clip-rule="evenodd" d="M64.3817 81.0293C64.3817 81.0293 68.5999 81.8226 75.144 82.5572C75.144 82.5572 76.7947 82.9936 78.1072 80.8027C78.1072 80.8027 78.3665 82.1002 77.6571 83.4681C77.1127 84.5176 76.0246 85.1525 74.8589 85.1423C73.2974 85.1295 70.2129 84.8375 64.3389 83.5385L64.3817 81.0293Z" fill="#131735"/>
<path d="M97.4937 78.6196C100.477 78.1228 103.657 78.6481 106.368 79.9972C106.892 80.2578 107.484 80.7305 107.339 81.3082C107.193 81.8891 106.446 82.0058 105.86 81.9837C104.576 81.9352 103.284 81.7869 101.999 81.7308" stroke="#131735" stroke-width="0.56732" stroke-linecap="round" stroke-linejoin="round"/>
<path d="M93.9683 80.0137C93.9683 80.0137 93.6427 81.7326 95.258 82.4407C96.873 83.1491 100.285 82.5126 100.285 82.5126C100.285 82.5126 103.128 82.1096 97.823 80.864" stroke="#131735" stroke-width="0.56732" stroke-linecap="round" stroke-linejoin="round"/>
<path fill-rule="evenodd" clip-rule="evenodd" d="M59.6025 117.888C59.6025 120.502 57.4817 122.622 54.8661 122.622C52.2502 122.622 50.1297 120.502 50.1297 117.888C50.1297 115.273 52.2502 113.153 54.8661 113.153C57.4817 113.153 59.6025 115.273 59.6025 117.888Z" fill="#3E66BD"/>
<path d="M71.8383 46.874C71.8383 46.874 75.3984 46.874 75.7545 50.8799C76.1105 54.8862 73.2623 56.3425 73.2623 56.3425" stroke="#131735" stroke-width="0.56732" stroke-linecap="round" stroke-linejoin="round"/>
<path fill-rule="evenodd" clip-rule="evenodd" d="M87.7803 131.696L83.6793 137.219H87.9411L90.3892 133.786L87.7803 131.696Z" fill="#34479D"/>
<path fill-rule="evenodd" clip-rule="evenodd" d="M79.9715 139.192H94.4922C94.4922 139.192 95.9296 139.192 96.7607 138.633C97.046 138.441 97.1732 138.074 97.0551 137.75C96.8514 137.191 96.1472 136.31 93.8308 135.616C90.3421 134.572 88.7699 131.952 85.4274 130.198C85.0284 129.988 84.5338 130.209 84.4188 130.645C84.2825 131.164 84.0059 131.822 83.4463 132.336C82.6953 133.027 81.6173 133.231 80.6301 132.977C79.9477 132.801 79.037 132.493 78.6585 132.041C78.6585 132.041 77.6705 131.219 78.1635 133.737C78.1635 133.737 78.6704 136.893 78.0256 137.659C78.0256 137.659 76.6964 139.192 79.9715 139.192Z" stroke="#131735" stroke-width="0.56732" stroke-linecap="round" stroke-linejoin="round"/>
<path d="M77.7588 137.594H95.0322C95.0322 137.594 96.3589 137.861 95.7594 136.43" stroke="#131735" stroke-width="0.56732" stroke-linecap="round" stroke-linejoin="round"/>
<path fill-rule="evenodd" clip-rule="evenodd" d="M55.1058 127.75L48.5509 129.045L51.6544 131.696L55.6555 130.828L55.1058 127.75Z" fill="#34479D"/>
<path fill-rule="evenodd" clip-rule="evenodd" d="M44.2336 127.627L55.0401 137.302C55.0401 137.302 56.1098 138.259 57.0979 138.396C57.4371 138.443 57.7751 138.253 57.9011 137.932C58.1195 137.379 58.1787 136.251 56.9135 134.189C55.0085 131.085 55.572 128.079 54.2455 124.541C54.0872 124.119 53.5726 123.954 53.1986 124.203C52.7536 124.5 52.113 124.807 51.3556 124.819C50.3399 124.835 49.4024 124.269 48.8361 123.421C48.4448 122.836 47.9705 121.998 47.9883 121.408C47.9883 121.408 47.7964 120.136 46.4971 122.346C46.4971 122.346 44.786 125.042 43.7996 125.185C43.7996 125.185 41.7962 125.445 44.2336 127.627Z" stroke="#131735" stroke-width="0.56732" stroke-linecap="round" stroke-linejoin="round"/>
<path d="M43.8145 125.384L56.7535 136.83C56.7535 136.83 57.5808 137.895 58.0237 136.502" stroke="#131735" stroke-width="0.56732" stroke-linecap="round" stroke-linejoin="round"/>
<path d="M76.1799 89.4824L73.8117 102.502" stroke="white" stroke-width="0.56732" stroke-linecap="round" stroke-linejoin="round"/>
<path fill-rule="evenodd" clip-rule="evenodd" d="M87.016 54.8486C86.6396 49.5865 84.1118 47.6013 81.946 46.874C81.7417 47.0211 81.5306 47.1576 81.311 47.2819C84.066 48.8753 84.5096 52.3241 84.5096 52.3241L86.4264 74.112C86.9573 79.0791 85.1213 80.0365 85.1213 80.0365L85.2146 81.9863C89.2052 81.995 89.13 79.2589 89.13 79.2589C89.681 77.2831 87.016 54.8486 87.016 54.8486Z" fill="#007657"/>
<path fill-rule="evenodd" clip-rule="evenodd" d="M74.9958 42.9287C74.9958 44.0181 74.1122 44.9013 73.0225 44.9013C71.9325 44.9013 71.0488 44.0181 71.0488 42.9287C71.0488 41.8392 71.9325 40.9561 73.0225 40.9561C74.1122 40.9561 74.9958 41.8392 74.9958 42.9287Z" fill="#131735"/>
<path fill-rule="evenodd" clip-rule="evenodd" d="M74.6011 39.3777C74.6011 40.4672 73.7175 41.3505 72.6274 41.3505C71.5378 41.3505 70.6541 40.4672 70.6541 39.3777C70.6541 38.2885 71.5378 37.4053 72.6274 37.4053C73.7175 37.4053 74.6011 38.2885 74.6011 39.3777Z" fill="#131735"/>
<path fill-rule="evenodd" clip-rule="evenodd" d="M73.417 40.956C73.417 42.0455 72.5334 42.9286 71.4433 42.9286C70.3536 42.9286 69.47 42.0455 69.47 40.956C69.47 39.8665 70.3536 38.9834 71.4433 38.9834C72.5334 38.9834 73.417 39.8665 73.417 40.956Z" fill="#131735"/>
<path fill-rule="evenodd" clip-rule="evenodd" d="M72.2329 38.9838C72.2329 40.0733 71.3493 40.9564 70.2592 40.9564C69.1696 40.9564 68.2859 40.0733 68.2859 38.9838C68.2859 37.8944 69.1696 37.0112 70.2592 37.0112C71.3493 37.0112 72.2329 37.8944 72.2329 38.9838Z" fill="#131735"/>
<path fill-rule="evenodd" clip-rule="evenodd" d="M72.6277 36.6169C72.6277 37.706 71.744 38.5892 70.654 38.5892C69.5643 38.5892 68.6807 37.706 68.6807 36.6169C68.6807 35.5273 69.5643 34.644 70.654 34.644C71.744 34.644 72.6277 35.5273 72.6277 36.6169Z" fill="#131735"/>
<path fill-rule="evenodd" clip-rule="evenodd" d="M73.8117 34.2495C73.8117 35.3389 72.928 36.2221 71.8384 36.2221C70.7483 36.2221 69.8647 35.3389 69.8647 34.2495C69.8647 33.16 70.7483 32.2769 71.8384 32.2769C72.928 32.2769 73.8117 33.16 73.8117 34.2495Z" fill="#131735"/>
<path fill-rule="evenodd" clip-rule="evenodd" d="M75.3905 32.2768C75.3905 33.3663 74.5069 34.2494 73.4168 34.2494C72.3272 34.2494 71.4435 33.3663 71.4435 32.2768C71.4435 31.1873 72.3272 30.3042 73.4168 30.3042C74.5069 30.3042 75.3905 31.1873 75.3905 32.2768Z" fill="#131735"/>
<path fill-rule="evenodd" clip-rule="evenodd" d="M77.7587 30.6987C77.7587 31.7881 76.8751 32.6713 75.785 32.6713C74.6954 32.6713 73.8117 31.7881 73.8117 30.6987C73.8117 29.6092 74.6954 28.7261 75.785 28.7261C76.8751 28.7261 77.7587 29.6092 77.7587 30.6987Z" fill="#131735"/>
<path fill-rule="evenodd" clip-rule="evenodd" d="M80.5216 30.3041C80.5216 31.3936 79.638 32.2767 78.5483 32.2767C77.4583 32.2767 76.5746 31.3936 76.5746 30.3041C76.5746 29.2147 77.4583 28.3315 78.5483 28.3315C79.638 28.3315 80.5216 29.2147 80.5216 30.3041Z" fill="#131735"/>
<path fill-rule="evenodd" clip-rule="evenodd" d="M82.4951 30.6987C82.4951 31.7881 81.6115 32.6713 80.5214 32.6713C79.4317 32.6713 78.5481 31.7881 78.5481 30.6987C78.5481 29.6092 79.4317 28.7261 80.5214 28.7261C81.6115 28.7261 82.4951 29.6092 82.4951 30.6987Z" fill="#131735"/>
<path fill-rule="evenodd" clip-rule="evenodd" d="M84.4687 31.8825C84.4687 32.9716 83.585 33.8549 82.4954 33.8549C81.4053 33.8549 80.5217 32.9716 80.5217 31.8825C80.5217 30.7929 81.4053 29.9097 82.4954 29.9097C83.585 29.9097 84.4687 30.7929 84.4687 31.8825Z" fill="#131735"/>
<path fill-rule="evenodd" clip-rule="evenodd" d="M74.6011 37.4057C74.6011 38.4952 73.7175 39.3783 72.6274 39.3783C71.5378 39.3783 70.6541 38.4952 70.6541 37.4057C70.6541 36.3162 71.5378 35.4331 72.6274 35.4331C73.7175 35.4331 74.6011 36.3162 74.6011 37.4057Z" fill="#131735"/>
<path fill-rule="evenodd" clip-rule="evenodd" d="M76.9693 37.8004C76.9693 38.8896 76.0857 39.7728 74.9956 39.7728C73.9059 39.7728 73.0223 38.8896 73.0223 37.8004C73.0223 36.7109 73.9059 35.8276 74.9956 35.8276C76.0857 35.8276 76.9693 36.7109 76.9693 37.8004Z" fill="#131735"/>
<path fill-rule="evenodd" clip-rule="evenodd" d="M76.1799 39.7722C76.1799 40.8618 75.2962 41.745 74.2062 41.745C73.1165 41.745 72.2329 40.8618 72.2329 39.7722C72.2329 38.683 73.1165 37.7998 74.2062 37.7998C75.2962 37.7998 76.1799 38.683 76.1799 39.7722Z" fill="#131735"/>
<path fill-rule="evenodd" clip-rule="evenodd" d="M79.3375 36.6169C79.3375 37.706 78.4539 38.5892 77.3638 38.5892C76.2741 38.5892 75.3905 37.706 75.3905 36.6169C75.3905 35.5273 76.2741 34.644 77.3638 34.644C78.4539 34.644 79.3375 35.5273 79.3375 36.6169Z" fill="#131735"/>
<path fill-rule="evenodd" clip-rule="evenodd" d="M77.7587 35.4331C77.7587 36.5225 76.8751 37.4057 75.785 37.4057C74.6954 37.4057 73.8117 36.5225 73.8117 35.4331C73.8117 34.3436 74.6954 33.4604 75.785 33.4604C76.8751 33.4604 77.7587 34.3436 77.7587 35.4331Z" fill="#131735"/>
<path fill-rule="evenodd" clip-rule="evenodd" d="M77.7587 32.6713C77.7587 33.7608 76.8751 34.6439 75.785 34.6439C74.6954 34.6439 73.8117 33.7608 73.8117 32.6713C73.8117 31.5819 74.6954 30.6987 75.785 30.6987C76.8751 30.6987 77.7587 31.5819 77.7587 32.6713Z" fill="#131735"/>
<path fill-rule="evenodd" clip-rule="evenodd" d="M81.311 32.2768C81.311 33.3663 80.4274 34.2494 79.3378 34.2494C78.2477 34.2494 77.364 33.3663 77.364 32.2768C77.364 31.1873 78.2477 30.3042 79.3378 30.3042C80.4274 30.3042 81.311 31.1873 81.311 32.2768Z" fill="#131735"/>
<path fill-rule="evenodd" clip-rule="evenodd" d="M83.2845 33.4602C83.2845 34.5498 82.4009 35.433 81.3108 35.433C80.2212 35.433 79.3375 34.5498 79.3375 33.4602C79.3375 32.371 80.2212 31.4878 81.3108 31.4878C82.4009 31.4878 83.2845 32.371 83.2845 33.4602Z" fill="#131735"/>
<path fill-rule="evenodd" clip-rule="evenodd" d="M84.4687 35.4331C84.4687 36.5225 83.585 37.4057 82.495 37.4057C81.4053 37.4057 80.5217 36.5225 80.5217 35.4331C80.5217 34.3436 81.4053 33.4604 82.495 33.4604C83.585 33.4604 84.4687 34.3436 84.4687 35.4331Z" fill="#131735"/>
<path fill-rule="evenodd" clip-rule="evenodd" d="M85.258 36.2223C85.258 37.3115 84.3743 38.1947 83.2843 38.1947C82.1946 38.1947 81.311 37.3115 81.311 36.2223C81.311 35.1327 82.1946 34.2495 83.2843 34.2495C84.3743 34.2495 85.258 35.1327 85.258 36.2223Z" fill="#131735"/>
<path fill-rule="evenodd" clip-rule="evenodd" d="M86.4421 36.6169C86.4421 37.706 85.5585 38.5892 84.4684 38.5892C83.3788 38.5892 82.4951 37.706 82.4951 36.6169C82.4951 35.5273 83.3788 34.644 84.4684 34.644C85.5585 34.644 86.4421 35.5273 86.4421 36.6169Z" fill="#131735"/>
<path fill-rule="evenodd" clip-rule="evenodd" d="M86.0474 33.0659C86.0474 34.1553 85.1638 35.0385 84.0737 35.0385C82.984 35.0385 82.1004 34.1553 82.1004 33.0659C82.1004 31.9764 82.984 31.0933 84.0737 31.0933C85.1638 31.0933 86.0474 31.9764 86.0474 33.0659Z" fill="#131735"/>
<path fill-rule="evenodd" clip-rule="evenodd" d="M88.021 34.644C88.021 35.7334 87.1373 36.6166 86.0473 36.6166C84.9576 36.6166 84.074 35.7334 84.074 34.644C84.074 33.5545 84.9576 32.6714 86.0473 32.6714C87.1373 32.6714 88.021 33.5545 88.021 34.644Z" fill="#131735"/>
<path fill-rule="evenodd" clip-rule="evenodd" d="M88.021 36.6169C88.021 37.706 87.1373 38.5892 86.0477 38.5892C84.9576 38.5892 84.074 37.706 84.074 36.6169C84.074 35.5273 84.9576 34.644 86.0477 34.644C87.1373 34.644 88.021 35.5273 88.021 36.6169Z" fill="#131735"/>
<path fill-rule="evenodd" clip-rule="evenodd" d="M84.9308 37.4053C84.7723 37.4053 84.6195 37.419 84.4686 37.4364C85.0442 38.2198 85.3966 39.0913 85.4581 40.0061C85.4801 40.3285 85.4422 40.6453 85.3734 40.956C86.6503 40.8149 87.6262 40.0836 87.6262 39.1956C87.6262 38.2069 86.4193 37.4053 84.9308 37.4053Z" fill="#131735"/>
<path fill-rule="evenodd" clip-rule="evenodd" d="M88.021 33.0659C88.021 34.1553 87.1373 35.0385 86.0473 35.0385C84.9576 35.0385 84.074 34.1553 84.074 33.0659C84.074 31.9764 84.9576 31.0933 86.0473 31.0933C87.1373 31.0933 88.021 31.9764 88.021 33.0659Z" fill="#131735"/>
<path fill-rule="evenodd" clip-rule="evenodd" d="M86.0474 31.4879C86.0474 32.5771 85.1638 33.4603 84.0741 33.4603C82.984 33.4603 82.1004 32.5771 82.1004 31.4879C82.1004 30.3984 82.984 29.5151 84.0741 29.5151C85.1638 29.5151 86.0474 30.3984 86.0474 31.4879Z" fill="#131735"/>
<path fill-rule="evenodd" clip-rule="evenodd" d="M84.4687 29.5153C84.4687 30.6044 83.585 31.4877 82.495 31.4877C81.4053 31.4877 80.5217 30.6044 80.5217 29.5153C80.5217 28.4257 81.4053 27.5425 82.495 27.5425C83.585 27.5425 84.4687 28.4257 84.4687 29.5153Z" fill="#131735"/>
<path fill-rule="evenodd" clip-rule="evenodd" d="M81.7058 28.3313C81.7058 29.4209 80.8221 30.3041 79.7321 30.3041C78.6424 30.3041 77.7588 29.4209 77.7588 28.3313C77.7588 27.2421 78.6424 26.3589 79.7321 26.3589C80.8221 26.3589 81.7058 27.2421 81.7058 28.3313Z" fill="#131735"/>
<path fill-rule="evenodd" clip-rule="evenodd" d="M78.9428 29.1206C78.9428 30.21 78.0592 31.0932 76.9691 31.0932C75.8794 31.0932 74.9958 30.21 74.9958 29.1206C74.9958 28.0311 75.8794 27.1479 76.9691 27.1479C78.0592 27.1479 78.9428 28.0311 78.9428 29.1206Z" fill="#131735"/>
<path fill-rule="evenodd" clip-rule="evenodd" d="M75.3905 29.5151C75.3905 30.6045 74.5069 31.4877 73.4168 31.4877C72.3272 31.4877 71.4435 30.6045 71.4435 29.5151C71.4435 28.4256 72.3272 27.5425 73.4168 27.5425C74.5069 27.5425 75.3905 28.4256 75.3905 29.5151Z" fill="#131735"/>
<path fill-rule="evenodd" clip-rule="evenodd" d="M73.8117 31.4879C73.8117 32.5771 72.928 33.4603 71.838 33.4603C70.7483 33.4603 69.8647 32.5771 69.8647 31.4879C69.8647 30.3984 70.7483 29.5151 71.838 29.5151C72.928 29.5151 73.8117 30.3984 73.8117 31.4879Z" fill="#131735"/>
<path fill-rule="evenodd" clip-rule="evenodd" d="M71.8382 33.8547C71.8382 34.9443 70.9546 35.8275 69.8645 35.8275C68.7749 35.8275 67.8912 34.9443 67.8912 33.8547C67.8912 32.7656 68.7749 31.8823 69.8645 31.8823C70.9546 31.8823 71.8382 32.7656 71.8382 33.8547Z" fill="#131735"/>
<path fill-rule="evenodd" clip-rule="evenodd" d="M70.6541 36.2221C70.6541 37.3116 69.7705 38.1947 68.6804 38.1947C67.5907 38.1947 66.7071 37.3116 66.7071 36.2221C66.7071 35.1327 67.5907 34.2495 68.6804 34.2495C69.7705 34.2495 70.6541 35.1327 70.6541 36.2221Z" fill="#131735"/>
<path fill-rule="evenodd" clip-rule="evenodd" d="M70.2594 39.3779C70.2594 40.4673 69.3757 41.3505 68.2857 41.3505C67.196 41.3505 66.3124 40.4673 66.3124 39.3779C66.3124 38.2884 67.196 37.4053 68.2857 37.4053C69.3757 37.4053 70.2594 38.2884 70.2594 39.3779Z" fill="#131735"/>
<path fill-rule="evenodd" clip-rule="evenodd" d="M71.8382 41.7451C71.8382 42.8345 70.9546 43.7177 69.8645 43.7177C68.7749 43.7177 67.8912 42.8345 67.8912 41.7451C67.8912 40.6556 68.7749 39.7725 69.8645 39.7725C70.9546 39.7725 71.8382 40.6556 71.8382 41.7451Z" fill="#131735"/>
<path fill-rule="evenodd" clip-rule="evenodd" d="M73.417 42.9289C73.417 44.018 72.5334 44.9013 71.4433 44.9013C70.3536 44.9013 69.47 44.018 69.47 42.9289C69.47 41.8393 70.3536 40.9561 71.4433 40.9561C72.5334 40.9561 73.417 41.8393 73.417 42.9289Z" fill="#131735"/>
<path fill-rule="evenodd" clip-rule="evenodd" d="M74.9958 34.644C74.9958 35.7334 74.1122 36.6166 73.0225 36.6166C71.9325 36.6166 71.0488 35.7334 71.0488 34.644C71.0488 33.5545 71.9325 32.6714 73.0225 32.6714C74.1122 32.6714 74.9958 33.5545 74.9958 34.644Z" fill="#131735"/>
<path fill-rule="evenodd" clip-rule="evenodd" d="M76.5746 34.2495C76.5746 35.3389 75.691 36.2221 74.6009 36.2221C73.5112 36.2221 72.6276 35.3389 72.6276 34.2495C72.6276 33.16 73.5112 32.2769 74.6009 32.2769C75.691 32.2769 76.5746 33.16 76.5746 34.2495Z" fill="#131735"/>
<path fill-rule="evenodd" clip-rule="evenodd" d="M74.9958 35.8276C74.9958 36.917 74.1122 37.8002 73.0225 37.8002C71.9325 37.8002 71.0488 36.917 71.0488 35.8276C71.0488 34.7381 71.9325 33.855 73.0225 33.855C74.1122 33.855 74.9958 34.7381 74.9958 35.8276Z" fill="#131735"/>
<path fill-rule="evenodd" clip-rule="evenodd" d="M78.9428 34.644C78.9428 35.7334 78.0592 36.6166 76.9691 36.6166C75.8794 36.6166 74.9958 35.7334 74.9958 34.644C74.9958 33.5545 75.8794 32.6714 76.9691 32.6714C78.0592 32.6714 78.9428 33.5545 78.9428 34.644Z" fill="#131735"/>
<path fill-rule="evenodd" clip-rule="evenodd" d="M81.311 34.644C81.311 35.7334 80.4274 36.6166 79.3378 36.6166C78.2477 36.6166 77.364 35.7334 77.364 34.644C77.364 33.5545 78.2477 32.6714 79.3378 32.6714C80.4274 32.6714 81.311 33.5545 81.311 34.644Z" fill="#131735"/>
<path fill-rule="evenodd" clip-rule="evenodd" d="M82.8898 35.8276C82.8898 36.917 82.0062 37.8002 80.9165 37.8002C79.8264 37.8002 78.9428 36.917 78.9428 35.8276C78.9428 34.7381 79.8264 33.855 80.9165 33.855C82.0062 33.855 82.8898 34.7381 82.8898 35.8276Z" fill="#131735"/>
<path fill-rule="evenodd" clip-rule="evenodd" d="M82.4951 41.1533C82.4951 41.4799 82.2299 41.7451 81.9028 41.7451C81.5757 41.7451 81.311 41.4799 81.311 41.1533C81.311 40.8262 81.5757 40.5615 81.9028 40.5615C82.2299 40.5615 82.4951 40.8262 82.4951 41.1533Z" fill="#131735"/>
<path fill-rule="evenodd" clip-rule="evenodd" d="M84.0739 41.1533C84.0739 41.4799 83.8087 41.7451 83.4816 41.7451C83.1546 41.7451 82.8898 41.4799 82.8898 41.1533C82.8898 40.8262 83.1546 40.5615 83.4816 40.5615C83.8087 40.5615 84.0739 40.8262 84.0739 41.1533Z" fill="#131735"/>
<path fill-rule="evenodd" clip-rule="evenodd" d="M121.065 130.118C121.065 130.118 115.737 131.656 113.282 134.135C113.282 134.135 119.786 136.177 129.454 134.725C129.454 134.725 129.662 132.945 128.186 130.813C128.186 130.813 124.698 132.901 121.065 130.118Z" stroke="#131735" stroke-width="0.56732" stroke-linecap="round" stroke-linejoin="round"/>
<path d="M161.83 73.7714C154.1 74.002 146.827 73.1952 144.611 72.9187C144.196 72.8669 143.813 73.1497 143.748 73.5639C143.62 74.3846 143.577 75.8489 144.303 77.733C145.25 80.1924 146.861 81.195 147.391 81.4692C147.498 81.5246 147.616 81.5525 147.737 81.5545C149.049 81.5741 150.31 81.5861 151.524 81.592" stroke="#131735" stroke-width="0.56732" stroke-linecap="round" stroke-linejoin="round"/>
<path d="M164.987 73.4518C164.462 73.4932 163.935 73.5276 163.409 73.556" stroke="#131735" stroke-width="0.56732" stroke-linecap="round" stroke-linejoin="round"/>
<path d="M155.909 81.1975C177.35 80.9911 180.934 78.5429 180.934 78.5429L180.801 78.307C181.881 77.4394 182.517 76.0573 182.318 74.5415C182.105 72.9177 180.884 71.541 179.28 71.0983C178.382 70.8504 177.526 70.9094 176.763 71.1652L176.762 71.1632C173.819 72.2978 170.248 72.9527 166.559 73.299" stroke="#131735" stroke-width="0.56732" stroke-linecap="round" stroke-linejoin="round"/>
<path fill-rule="evenodd" clip-rule="evenodd" d="M131.043 124.003C131.043 126.073 129.364 127.751 127.293 127.751C125.222 127.751 123.544 126.073 123.544 124.003C123.544 121.933 125.222 120.255 127.293 120.255C129.364 120.255 131.043 121.933 131.043 124.003Z" fill="#527FA5"/>
<path fill-rule="evenodd" clip-rule="evenodd" d="M144.463 103.093C144.463 105.599 142.431 107.63 139.924 107.63C137.417 107.63 135.385 105.599 135.385 103.093C135.385 100.587 137.417 98.5562 139.924 98.5562C142.431 98.5562 144.463 100.587 144.463 103.093Z" fill="#527FA5"/>
<path fill-rule="evenodd" clip-rule="evenodd" d="M177.618 100.923C177.618 103.973 175.144 106.446 172.092 106.446C169.04 106.446 166.566 103.973 166.566 100.923C166.566 97.8726 169.04 95.3999 172.092 95.3999C175.144 95.3999 177.618 97.8726 177.618 100.923Z" fill="#527FA5"/>
<path fill-rule="evenodd" clip-rule="evenodd" d="M123.939 122.286L135.692 100.923L143.279 105.934L130.685 125.384L123.939 122.286Z" fill="#527FA5"/>
<path fill-rule="evenodd" clip-rule="evenodd" d="M172.092 106.504L139.796 107.63L139.332 98.4599L172.092 95.3999V106.504Z" fill="#527FA5"/>
<path fill-rule="evenodd" clip-rule="evenodd" d="M148.8 116.962C150.074 118.593 149.784 120.949 148.152 122.223C146.52 123.496 144.163 123.206 142.889 121.575C141.615 119.943 141.905 117.588 143.537 116.314C145.169 115.041 147.526 115.331 148.8 116.962Z" fill="#527FA5"/>
<path fill-rule="evenodd" clip-rule="evenodd" d="M147.621 92.0469C147.621 94.5528 145.588 96.5837 143.081 96.5837C140.574 96.5837 138.543 94.5528 138.543 92.0469C138.543 89.5411 140.574 87.5098 143.081 87.5098C145.588 87.5098 147.621 89.5411 147.621 92.0469Z" fill="#527FA5"/>
<path fill-rule="evenodd" clip-rule="evenodd" d="M142.411 119.86L138.543 92.1169L147.72 91.4546L149.594 118.148L142.411 119.86Z" fill="#527FA5"/>
<path fill-rule="evenodd" clip-rule="evenodd" d="M173.671 100.134L163.351 99.2402L161.358 96.3307L148.562 97.5272L143.279 96.601L144.078 87.5098L171.907 95.0642L173.671 100.134Z" fill="#527FA5"/>
<path fill-rule="evenodd" clip-rule="evenodd" d="M148.41 97.3726C148.41 97.3726 149.799 106.546 151.173 107.149L148.827 107.236" fill="#131735"/>
<path d="M138.148 92.6382L142.095 120.255" stroke="white" stroke-width="0.56732" stroke-linecap="round" stroke-linejoin="round"/>
<path fill-rule="evenodd" clip-rule="evenodd" d="M184.237 70.4478L183.644 70.2508C182.87 70.5421 181.939 70.712 180.936 70.712C178.363 70.712 176.264 69.5927 176.1 68.1782C173.836 68.3379 171.876 70.0329 170.307 73.0311L161.031 91.264C159.846 94.8319 161.49 98.6174 164.684 99.6765L173.556 102.617C176.749 103.676 180.332 101.624 181.517 98.0556L187.89 78.8599C189.075 75.2923 187.431 71.5065 184.237 70.4478Z" fill="#4BC1A7"/>
<path d="M147.226 92.6382C147.226 92.6382 148.417 94.5036 148.495 97.1763C148.499 97.2874 148.56 97.382 148.672 97.3716L158.278 96.4778" stroke="white" stroke-width="0.56732" stroke-linecap="round" stroke-linejoin="round"/>
<path d="M168.54 85.9316C165.89 88.7457 162.53 91.4016 158.399 93.0724C158.128 93.1819 157.855 93.2866 157.578 93.3873C157.301 93.488 157.021 93.5843 156.737 93.6762C156.414 93.7801 156.229 94.1266 156.333 94.4563C156.825 96.0256 158.491 100.171 162.508 100.888C163.169 101.006 163.85 100.829 164.373 100.401" stroke="#131735" stroke-width="0.56732" stroke-linecap="round" stroke-linejoin="round"/>
<path d="M167.356 98.1619C169.78 96.2451 173.348 93.2036 176.457 89.6818C181.412 84.0674 183.779 77.6253 183.779 77.6253C184.149 77.0029 184.358 76.2709 184.324 75.4747C184.247 73.6506 182.839 72.0733 181.02 71.7809C179.144 71.4799 177.419 72.5175 176.736 74.1262L176.735 74.1254C176.735 74.1254 176.732 74.1337 176.731 74.1352C176.689 74.2373 174.675 79.283 170.311 84.3704" stroke="#131735" stroke-width="0.56732" stroke-linecap="round" stroke-linejoin="round"/>
<path d="M155.909 95.7944C155.909 95.7944 153.8 95.8621 152.357 97.3725" stroke="#131735" stroke-width="0.56732" stroke-linecap="round" stroke-linejoin="round"/>
<path d="M154.472 96.978C154.472 96.978 151.444 98.5021 150.571 101.305C149.697 104.108 152.16 104.876 152.16 104.876C152.16 104.876 156.639 106.997 160.251 101.305" stroke="#131735" stroke-width="0.56732" stroke-linecap="round" stroke-linejoin="round"/>
<path fill-rule="evenodd" clip-rule="evenodd" d="M167.751 100.923C167.751 100.923 178.542 93.1152 183.144 79.2246C183.144 79.2246 181.757 86.6877 165.382 100.091L167.751 100.923Z" fill="#131735"/>
<path d="M142.49 74.4958C141.444 74.4753 140.351 74.5009 139.33 74.7516C138.4 74.9802 137.495 75.4468 136.908 76.2172C136.088 77.2939 135.759 79.8583 136.974 80.8026" stroke="#131735" stroke-width="0.56732" stroke-linecap="round" stroke-linejoin="round"/>
<path d="M141.582 77.6465C141.582 77.6465 141.137 79.2624 139.48 79.9424C139.008 80.1359 139.803 80.6725 139.942 80.72C140.897 81.0489 144.298 80.3756 144.056 79.064" stroke="#131735" stroke-width="0.56732" stroke-linecap="round" stroke-linejoin="round"/>
<path fill-rule="evenodd" clip-rule="evenodd" d="M179.419 55.6249C179.419 55.6249 175.517 61.9121 176.098 64.7014C176.098 64.7014 178.095 69.9664 182.67 67.5386C182.67 67.5386 185.058 65.9648 185.589 63.6867L187.485 58.4095L183.963 54.3701L179.419 55.6249Z" fill="white"/>
<path d="M178.971 55.5532C177.671 57.7562 176.476 60.2787 176.11 62.8347C175.916 64.1858 176.095 65.6894 176.96 66.7874C178.299 68.4848 181.218 68.5336 182.941 67.4451C184.466 66.4819 185.354 64.722 185.907 63.049" stroke="#131735" stroke-width="0.56732" stroke-linecap="round" stroke-linejoin="round"/>
<path fill-rule="evenodd" clip-rule="evenodd" d="M177.282 51.3419C177.282 51.3419 177.771 54.1205 181.355 55.0022C184.326 55.7328 183.086 58.9638 182.574 60.0501C182.478 60.2551 182.556 60.4989 182.752 60.6093L183.144 60.8303C183.344 60.9426 183.594 60.8762 183.709 60.676C184.041 60.1005 184.752 59.1053 185.427 59.7068C185.427 59.7068 186.839 60.1652 185.371 65.4166C185.371 65.4166 189.421 64.0177 190.59 57.7516C190.59 57.7516 191.088 55.2264 189.028 55.3659C189.028 55.3659 190.716 53.1633 188.809 52.007C186.9 50.8507 181.387 51.0642 181.387 51.0642C181.387 51.0642 179.315 51.1165 177.971 50.4754C177.583 50.29 177.154 50.6425 177.233 51.0713L177.282 51.3419Z" fill="#FF9D45"/>
<path d="M188.669 55.5537C188.669 55.5537 189.831 54.2593 191.827 54.3778" stroke="#FF9D45" stroke-width="0.56732" stroke-linecap="round" stroke-linejoin="round"/>
<path d="M188.669 55.2028C188.669 55.2028 190.294 54.8866 191.827 55.9477" stroke="#FF9D45" stroke-width="0.56732" stroke-linecap="round" stroke-linejoin="round"/>
<path fill-rule="evenodd" clip-rule="evenodd" d="M179.42 59.3985C178.977 61.0097 177.811 62.0957 176.816 61.8239C175.82 61.5521 175.372 60.026 175.816 58.4151C176.258 56.8039 177.425 55.7179 178.42 55.9893C179.416 56.2615 179.863 57.7872 179.42 59.3985Z" fill="white"/>
<path fill-rule="evenodd" clip-rule="evenodd" d="M179.42 59.3985C178.977 61.0097 177.811 62.0957 176.816 61.8239C175.82 61.5521 175.372 60.026 175.816 58.4151C176.258 56.8039 177.425 55.7179 178.42 55.9893C179.416 56.2615 179.863 57.7872 179.42 59.3985Z" stroke="#131735" stroke-width="0.56732" stroke-linecap="round" stroke-linejoin="round"/>
<path fill-rule="evenodd" clip-rule="evenodd" d="M178.316 58.6988L177.82 56.1289L178.316 58.6988Z" fill="white"/>
<path d="M178.316 58.6988L177.82 56.1289" stroke="#131735" stroke-width="0.39452" stroke-linecap="round" stroke-linejoin="round"/>
<path fill-rule="evenodd" clip-rule="evenodd" d="M177.05 56.5234L177.386 58.4329L177.05 56.5234Z" fill="white"/>
<path d="M177.05 56.5234L177.386 58.4329" stroke="#131735" stroke-width="0.39452" stroke-linecap="round" stroke-linejoin="round"/>
<path fill-rule="evenodd" clip-rule="evenodd" d="M177.229 59.7295L177.542 61.9211L177.229 59.7295Z" fill="white"/>
<path d="M177.229 59.7295L177.542 61.9211" stroke="#131735" stroke-width="0.39452" stroke-linecap="round" stroke-linejoin="round"/>
<path fill-rule="evenodd" clip-rule="evenodd" d="M144.332 124.86C144.332 124.86 139.93 128.147 138.543 131.302C138.543 131.302 148.562 130.613 153.541 125.545C153.541 125.545 153.357 124.476 151.212 123.017C151.212 123.017 148.722 126.17 144.332 124.86Z" stroke="#131735" stroke-width="0.56732" stroke-linecap="round" stroke-linejoin="round"/>
<path d="M153.252 125.415C154.004 125.2 154.331 126.156 154.331 126.156C148.436 132.485 138.67 132.485 138.67 132.485C138.67 132.485 137.708 132.509 137.755 131.977C137.802 131.445 138.412 131.404 138.412 131.404" stroke="#131735" stroke-width="0.56732" stroke-linecap="round" stroke-linejoin="round"/>
<path d="M113.182 134.076C113.182 134.076 112.6 133.969 112.506 134.37C112.411 134.77 112.844 134.887 112.844 134.887C112.844 134.887 115.373 136.004 121.228 136.004C121.228 136.004 125.517 136.237 129.669 135.437C129.669 135.437 129.911 135.44 129.849 134.988C129.789 134.548 129.264 134.636 129.264 134.636" stroke="#131735" stroke-width="0.56732" stroke-linecap="round" stroke-linejoin="round"/>
<path fill-rule="evenodd" clip-rule="evenodd" d="M182.417 98.0971C181.764 97.8803 181.41 97.1779 181.63 96.5362L187.019 80.8507C187.24 80.209 187.954 79.8614 188.607 80.0782C189.26 80.295 189.614 80.997 189.393 81.6391L184.005 97.3242C183.784 97.9659 183.07 98.3139 182.417 98.0971Z" fill="#4D97F1"/>
<path fill-rule="evenodd" clip-rule="evenodd" d="M177.276 109.603H154.672C153.833 109.603 153.146 108.893 153.146 108.025C153.146 107.157 153.833 106.447 154.672 106.447H177.276C178.115 106.447 178.802 107.157 178.802 108.025C178.802 108.893 178.115 109.603 177.276 109.603Z" fill="#4D97F1"/>
<path d="M188.275 89.2192C187.506 91.5665 186.737 93.9133 185.968 96.2606C184.227 101.576 182.609 110.171 175.514 110.383H162.26C162.26 110.383 154.294 110.098 152.099 114.467L142.095 135.773" stroke="#C0DEFC" stroke-width="1.70157" stroke-linecap="round" stroke-linejoin="round"/>
<path d="M168.54 110.161C168.54 110.161 178.373 109.303 180.879 116.429C183.384 123.556 188.669 136.167 188.669 136.167" stroke="#C0DEFC" stroke-width="1.70157" stroke-linecap="round" stroke-linejoin="round"/>
<path d="M231.426 136.483L216.035 136.483" stroke="#7B8E9F" stroke-width="0.526027" stroke-linecap="round"/>
<path d="M241.163 136.483L233.562 136.483" stroke="#7B8E9F" stroke-width="0.526027" stroke-linecap="round"/>
<path d="M210.349 136.483L107.032 136.483" stroke="#7B8E9F" stroke-width="0.526027" stroke-linecap="round"/>
<path d="M104.797 139.574H62.6549" stroke="#92A2B1" stroke-width="0.451782"/>
</svg>
