<svg xmlns="http://www.w3.org/2000/svg" width="271" height="150" fill="none" viewBox="0 0 271 150"><g clip-path="url(#clip0_455_30274)"><path fill="#F9F9F9" d="M1.083 99.832C4.314 90.84 14.1 84.682 23.605 85.659c6.554.67 12.868 4.314 19.348 3.182 6.876-1.19 11.835-7.612 13.687-14.331 1.86-6.728 1.29-13.844 1.182-20.812-.116-6.975.347-14.29 3.942-20.249 4.447-7.397 13.67-11.57 22.15-10.017 21.365 3.918 9.472 32.35 24.613 42.077 19.423 12.497 31.944-16.117 35.234-29.845 1.975-8.29 3.785-16.852 8.438-24.001 6.34-9.745 24.275-17.935 32.085-4.96 5.992 9.977-2.19 21.176-1.959 31.532.265 12.108 10.893 17.356 22.084 14.67 7.199-1.72 13.596-5.786 20.563-8.29 7.389-2.645 17.208-2.686 21.374 3.967 3.281 5.232 1.38 12.25-2.009 17.415-3.397 5.165-8.133 9.405-11.075 14.835-2.942 5.439-3.57 12.951.918 17.2 8.066 7.62 22.86-2.166 31.985 4.132 6.934 4.794 5.653 15.761.884 22.729-8.058 11.72-22.885 17.274-37.093 17.712-14.216.438-28.134-3.496-41.87-7.257-13.728-3.761-27.779-7.405-41.961-6.372-20.638 1.512-40.499 12.868-60.938 9.711-13.323-2.066-24.985-10.091-38.019-13.472a56.3 56.3 0 00-19.166-1.521c-5.141.472-11.224 3.224-16.415 2.067-10.19-2.257-13.562-17.398-10.504-25.928z"/><path fill="#fff" d="M47.433 21.993h165.299v94.634a2.477 2.477 0 01-2.48 2.48H49.929a2.482 2.482 0 01-2.48-2.48V21.993h-.016z"/><path stroke="#273139" stroke-width=".504" d="M161.778 119.487H50.201c-.801 0-1.57-.314-2.132-.876a3.022 3.022 0 01-.884-2.141V13.943a3.018 3.018 0 013.016-3.017h159.622a3.017 3.017 0 013.016 3.017v65.574"/><path fill="#fff" d="M212.839 116.478a3.018 3.018 0 01-3.016 3.017h-32.771"/><path stroke="#273139" stroke-width=".504" d="M212.839 116.478a3.018 3.018 0 01-3.016 3.017h-32.771"/><path fill="#273139" stroke="#273139" stroke-width=".504" d="M50.193 10.926H209.84a3.018 3.018 0 013.017 3.017v10.926H47.176V13.943a3.023 3.023 0 013.017-3.017z"/><path fill="#fff" d="M52.086 19.48c.769 0 1.388-.62 1.388-1.388 0-.769-.62-1.38-1.388-1.38-.769 0-1.38.62-1.38 1.38 0 .76.62 1.389 1.38 1.389zm4.57 0c.769 0 1.38-.62 1.38-1.388 0-.769-.611-1.38-1.38-1.38-.768 0-1.388.62-1.388 1.38 0 .76.62 1.389 1.388 1.389zm4.563 0c.768 0 1.388-.62 1.388-1.388 0-.769-.62-1.38-1.388-1.38-.769 0-1.38.62-1.38 1.38 0 .76.62 1.389 1.38 1.389z"/><path fill="#fff" stroke="#B2E4D9" stroke-width=".413" d="M141.529 76.963l-41.622-.016a3.155 3.155 0 01-3.149-3.157V51.64a3.155 3.155 0 013.157-3.15l41.623.025a3.154 3.154 0 013.149 3.15v22.15a3.15 3.15 0 01-3.158 3.148z"/><path stroke="#EBEFF3" stroke-linecap="round" stroke-linejoin="round" stroke-width="1.314" d="M103.651 56.326v16.29"/><path stroke="#9ACBFA" stroke-linecap="round" stroke-linejoin="round" stroke-width="1.314" d="M103.667 63.789v8.852"/><path stroke="#EBEFF3" stroke-linecap="round" stroke-linejoin="round" stroke-width="1.314" d="M108.37 61.557v11.059"/><path stroke="#9ACBFA" stroke-linecap="round" stroke-linejoin="round" stroke-width="1.314" d="M108.378 66.822v5.819"/><path stroke="#EBEFF3" stroke-linecap="round" stroke-linejoin="round" stroke-width="1.314" d="M113.098 56.326v16.29"/><path stroke="#9ACBFA" stroke-linecap="round" stroke-linejoin="round" stroke-width="1.314" d="M113.081 61.02l.033 11.62"/><path stroke="#EBEFF3" stroke-linecap="round" stroke-linejoin="round" stroke-width="1.314" d="M136.711 63.318v9.298"/><path stroke="#9ACBFA" stroke-linecap="round" stroke-linejoin="round" stroke-width="1.314" d="M136.694 68.227v4.414"/><path stroke="#EBEFF3" stroke-linecap="round" stroke-linejoin="round" stroke-width="1.314" d="M127.264 66.442v6.174"/><path stroke="#9ACBFA" stroke-linecap="round" stroke-linejoin="round" stroke-width="1.314" d="M127.256 69.864v2.777"/><path stroke="#EBEFF3" stroke-linecap="round" stroke-linejoin="round" stroke-width="1.314" d="M117.817 61.557v11.059"/><path stroke="#9ACBFA" stroke-linecap="round" stroke-linejoin="round" stroke-width="1.314" d="M117.817 66.839v5.802"/><path stroke="#EBEFF3" stroke-linecap="round" stroke-linejoin="round" stroke-width="1.24" d="M122.545 62.69v9.96"/><path stroke="#9ACBFA" stroke-linecap="round" stroke-linejoin="round" stroke-width="1.24" d="M122.536 68.186v4.488"/><path stroke="#EBEFF3" stroke-linecap="round" stroke-linejoin="round" stroke-width="1.24" d="M131.983 63.31v9.34"/><path stroke="#9ACBFA" stroke-linecap="round" stroke-linejoin="round" stroke-width="1.24" d="M131.983 68.475v4.207"/><path fill="#EBEFF3" fill-rule="evenodd" d="M91.609 76.36H73.302l15.1 42.903h17.547L91.609 76.36zm-14.877 2.455l12.009-.108 1.71 4.877H78.568l-1.835-4.77zm14.29 6.504l-12.009.108 1.843 4.768h11.885l-1.719-4.876zm-9.604 6.934l12.01-.107 1.718 4.876H83.253l-1.835-4.769zm14.414 6.505l-12.009.108 1.835 4.768h11.885l-1.71-4.876zm-7.653 11.695l-1.835-4.769 12.017-.107 1.711 4.876H88.179zm12.579 1.959l-12.009.107 1.827 4.769h11.901l-1.719-4.876z" clip-rule="evenodd"/><path fill="#B1BDC7" d="M89.22 75.996h2.075L68.92 149.34h-1.99l22.29-73.344zm-16.298-.256h2.083l-22.473 73.467h-1.926L72.922 75.74z"/><path stroke="#92A2B1" stroke-linecap="round" stroke-linejoin="round" stroke-width=".413" d="M91.303 76.087l1.033 1.686-21.753 71.501-1.934.074m-6.389-26.944l-8.075 26.804h-1.512m12.124-35.358l-1.868 6.215m4.323-14.009l-1.678 5.463m4.157-13.736l-1.504 4.926m3.323-10.646l-1.463 4.72m3.653-11.877l-1.52 4.885m2.752-13.96l1.033 1.694-1.422 4.645m-1.562 2.596h13.538m-12.885-2.05h13.62m-16.43 9.248h13.538m-12.877-2.049h13.62m-16.496 9h13.538m-12.877-2.05h13.62m-16.372 9.125h13.538m-12.877-2.05h13.612m-16.736 9.811h13.538m-12.877-2.058h13.62m-16.86 10.554h13.538m-12.884-2.058h13.62"/><path fill="#fff" stroke="#B2E4D9" stroke-width=".413" d="M194.318 76.963l-41.623-.016a3.15 3.15 0 01-3.149-3.157V51.64a3.149 3.149 0 013.149-3.15l41.623.025a3.154 3.154 0 013.149 3.15v22.15a3.149 3.149 0 01-3.149 3.148z"/><path stroke="#CFD7DF" stroke-linecap="round" stroke-linejoin="round" stroke-width="1.314" d="M154.646 54.35h7.141"/><path stroke="#EBEFF3" stroke-linecap="round" stroke-linejoin="round" stroke-width="1.314" d="M154.646 58.16h36.142"/><path stroke="#9ACBFA" stroke-linecap="round" stroke-linejoin="round" stroke-width="1.314" d="M154.431 58.16h13.893"/><path stroke="#CFD7DF" stroke-linecap="round" stroke-linejoin="round" stroke-width="1.314" d="M154.646 63.723h7.141"/><path stroke="#EBEFF3" stroke-linecap="round" stroke-linejoin="round" stroke-width="1.314" d="M154.646 67.541h36.142"/><path stroke="#9ACBFA" stroke-linecap="round" stroke-linejoin="round" stroke-width="1.314" d="M154.431 67.541h23.489"/><path fill="#EBEFF3" d="M212.534 25.043H47.606v7.232h164.928v-7.232z"/><path fill="#fff" d="M179.78 27.894h11.157a.83.83 0 01.827.827.83.83 0 01-.827.826H179.78a.83.83 0 01-.827-.826.83.83 0 01.827-.827zm14.207 0h7.025a.83.83 0 01.827.827.83.83 0 01-.827.826h-7.025a.829.829 0 01-.826-.826c0-.455.372-.827.826-.827zm12.827 3.05a2.2 2.2 0 002.199-2.207 2.193 2.193 0 00-2.199-2.198 2.205 2.205 0 00-2.207 2.198c0 1.215.992 2.207 2.207 2.207z"/><path fill="#C0DEFC" d="M84.79 52.524c5.34 0 9.67-4.331 9.67-9.67 0-5.34-4.33-9.662-9.67-9.662a9.658 9.658 0 00-9.662 9.662c0 5.339 4.331 9.67 9.662 9.67z"/><path fill="#CFD7DF" d="M52.358 27.836h11.158a.83.83 0 01.827.827.829.829 0 01-.827.826H52.36a.829.829 0 01-.827-.826.83.83 0 01.827-.827zm14.745 0h15.29a.83.83 0 01.827.827.829.829 0 01-.826.826h-15.29a.829.829 0 01-.827-.826c0-.455.372-.827.826-.827z"/><path fill="#fff" stroke="#75B6F5" stroke-width=".438" d="M83.559 51.26c5.091 0 9.232-4.133 9.232-9.233 0-5.1-4.14-9.232-9.232-9.232-5.091 0-9.232 4.133-9.232 9.232a9.23 9.23 0 009.232 9.232z"/><path stroke="#273139" stroke-linecap="round" stroke-linejoin="round" stroke-width=".413" d="M64.954 65.764c-3.934-5.86-3.396-13.34-3.363-14.314 1.24.735 4.678 1.685 5.992 1.727-1.356 3.934-1.025 6.199-1.356 9.695"/><path fill="#fff" stroke="#273139" stroke-linecap="round" stroke-linejoin="round" stroke-width=".413" d="M74.996 55.747c.653 0 1.182-.529 1.182-1.182 0-.653-.529-1.173-1.182-1.173-.653 0-1.173.529-1.173 1.173 0 .645.529 1.182 1.173 1.182z"/><path fill="#273139" d="M74.096 53.383a2.225 2.225 0 001.752-1.033 1.612 1.612 0 00-.232-1.95c-.603-.57-1.553-.48-2.372-.356l-1.62.248c-.19.025-.38.075-.553.157-.422.323-.546.91-.29 1.372.537 1.075 2.199 1.662 3.314 1.562zm.909 33.341l5.058 12.067.074.165c.14.34.165.711.058 1.058l-4 13.117a1.096 1.096 0 01-1.306.719 1.093 1.093 0 01-.827-1.24l2.579-13.447.124 1.24-6.199-11.522a2.471 2.471 0 011.14-3.082 2.464 2.464 0 013.191.752c.058.033.075.107.108.173zm-4.935.984l-.214 13.43v.174a.905.905 0 01-.025.215l-3.604 15.331a1.093 1.093 0 01-1.28.876 1.1 1.1 0 01-.869-1.289l2.15-15.596-.026.389-1.041-13.398a2.477 2.477 0 012.29-2.347 2.469 2.469 0 012.62 1.967c.008.083.008.165 0 .248z"/><path stroke="#273139" stroke-linecap="round" stroke-linejoin="round" stroke-width=".413" d="M67.252 48.416a3.05 3.05 0 011.694 2.298c-.025-1.042.521-2.852 1.38-3.438"/><path fill="#fff" stroke="#273139" stroke-linecap="round" stroke-linejoin="round" stroke-width=".413" d="M74.872 54.582a4.251 4.251 0 01-7.967 2.066c-.017 0-.025-.033-.033-.05a4.259 4.259 0 01.545-4.81 4.259 4.259 0 014.695-1.182 4.257 4.257 0 012.76 3.967v.009z"/><path fill="#273139" d="M74.195 52.706a4.721 4.721 0 01-4.72 4.71c-.917 0-1.81-.264-2.57-.768-.017 0-.025-.033-.033-.05a4.256 4.256 0 011.545-5.694 4.257 4.257 0 015.753 1.339c.016.157.025.314.025.463z"/><path fill="#FF5959" d="M68.624 50.499a4.23 4.23 0 01-.595 5.29 2.153 2.153 0 01-.355.314 2.784 2.784 0 002.107-.827 2.894 2.894 0 00-1.157-4.777z"/><path fill="#273139" d="M69.856 53.003c0 1.38-.835 2.637-2.108 3.166a3.427 3.427 0 01-4.48-4.472 3.422 3.422 0 013.166-2.116 3.429 3.429 0 013.422 3.422z"/><path stroke="#EBEFF3" stroke-linecap="round" stroke-linejoin="round" stroke-width=".413" d="M65.888 101.287a2.158 2.158 0 001.926.496"/><path fill="#273139" d="M63.797 117.296c.628.984 1.33 1.529 2.538 1.414 1.041.429 1.52.661 2.719.537 1.19-.124 2.306 1.256.537 1.703a11 11 0 01-3.157.413 1.642 1.642 0 01-.934-.38 5.218 5.218 0 01-.827-.827c-.744-.438-1.38-1.041-2.19-1.347.447-.513.901-1 1.314-1.513zm-1.413 1.753l-.273.669c.827.331 1.562.827 2.364 1.174.05-.166.091-.331.132-.496-.76-.43-1.421-.992-2.223-1.347z"/><path stroke="#EBEFF3" stroke-linecap="round" stroke-linejoin="round" stroke-width=".413" d="M66.814 119.726c0-.165.058-.322.174-.446a.625.625 0 01.43-.19m.007.876c0-.339.24-.628.563-.702m.091.743a.75.75 0 01.52-.752m8.216-19.513c.52.471 1.248.653 1.925.495"/><path fill="#273139" d="M73.302 113.933a3.531 3.531 0 003.339.297c.851 0 1.612.827 3.364.827 1.752 0 2.05 1.901.454 1.901l-3.256.024a2.011 2.011 0 01-.975-.231l-1.058-.537-2.629-.157.76-2.124z"/><path fill="#273139" d="M72.55 116.313v.711h2.628v-.554l-2.628-.157z"/><path stroke="#EBEFF3" stroke-linecap="round" stroke-linejoin="round" stroke-width=".413" d="M77.368 115.197a.638.638 0 01.157-.479.633.633 0 01.471-.19m.108.934a.593.593 0 01.149-.48.608.608 0 01.47-.19m.125.81a.638.638 0 01.157-.479.633.633 0 01.47-.19"/><path fill="#475867" d="M65.17 88.17h9.785a.692.692 0 00.636-.685.692.692 0 00-.636-.686H65.17a.686.686 0 00-.636.686c0 .363.281.66.636.686z"/><path fill="#92A2B1" d="M73.467 87.13h-6.992a2.85 2.85 0 01-2.124-.951 2.834 2.834 0 01-.703-2.224l2.439-20.893a4.246 4.246 0 013-3.356 4.222 4.222 0 002.678.132 4.188 4.188 0 012.661 3.612l1.876 20.572a2.842 2.842 0 01-.727 2.181 2.805 2.805 0 01-2.108.926z"/><path stroke="#273139" stroke-linecap="round" stroke-linejoin="round" stroke-width=".413" d="M73.665 61.723c6.249-4.72 5.836-4.984 7.753-7.538 1.132 1.372 2.818 3.223 3.942 4.596-.801.562-6.124 5.595-10.223 7.231M64.078 52.458c.182-2.612 1.108-6.422 2-8.24m-3.785 7.24c1.041-6.2 1.785-7.819 2.612-9.331m1.149.735a5.8 5.8 0 011.802-2.397.272.272 0 00.09-.33.273.273 0 00-.305-.166 3.746 3.746 0 00-2.654 1.95m1.629 1.885a2.34 2.34 0 01.719-.586.191.191 0 00.124-.215.202.202 0 00-.182-.166c-.488-.074-.984 0-1.43.19m24.555 7.521a5.855 5.855 0 001.53-2.62c.024-.578-.059-.991-.348-.719a15.414 15.414 0 00-1.537 1.96m-.215.685a2.202 2.202 0 01.116-.925.193.193 0 00-.066-.232.187.187 0 00-.24 0 2.77 2.77 0 00-.884 1.24m-4.174 7.223l5.818-6.611m-6.091 3.975c1.041-1 2.124-1.86 3.132-2.959.48-.512.918-1.066 1.306-1.653M67.475 73.434c.438 2.653.19 5.373-.71 7.91l-.158-.19m5.868-15.431a22.42 22.42 0 00.496 8.645m-6.736-13.364a12.04 12.04 0 017.736.198M70.178 52.3c.297.836.14 1.761-.413 2.456"/><path stroke="#fff" stroke-linecap="round" stroke-linejoin="round" stroke-width=".413" d="M73.277 52.706a4.178 4.178 0 01-2.71 3.545m-5.439-.901a2.42 2.42 0 01-1.57-1.958 2.455 2.455 0 011.008-2.306"/><path stroke="#273139" stroke-linecap="round" stroke-linejoin="round" stroke-width=".413" d="M75.385 54.284l.496-.495m-.926 1.711l.496-.505"/><path fill="#273139" d="M66.103 64.31l.678-8-1.537-.249.86 8.249z"/><path fill="#C0DEFC" d="M91.386 43.507l-7.753-1.19-1.504-8.265a9.324 9.324 0 016.587 2.81 9.346 9.346 0 012.67 6.645z"/><path stroke="#92A2B1" stroke-width=".413" d="M46.193 149.365h148.563m5.578 0h45.251m-233.692 0h32.44"/><path fill="#264966" d="M112.685 121.388h4.735v2.372a2.367 2.367 0 01-2.372 2.372 2.367 2.367 0 01-2.372-2.372v-2.372h.009z"/><path fill="#fff" stroke="#576C7D" stroke-linecap="round" stroke-linejoin="round" stroke-width=".413" d="M114.809 125.958a2.845 2.845 0 002.612-2.835v-15.058a2.968 2.968 0 012.958-2.968h18.969a2.965 2.965 0 012.967 2.968v14.149a3.748 3.748 0 01-3.753 3.744h-23.753z"/><path fill="#264966" d="M120.503 105.031a2.839 2.839 0 012.604 2.835v8.902a2.97 2.97 0 002.967 2.967 2.964 2.964 0 002.959-2.967v-11.737h-8.53zm5.687-16.827a2.606 2.606 0 012.611 2.612v2.603h-5.215v-2.603c0-.695.273-1.356.761-1.852a2.629 2.629 0 011.843-.76z"/><path fill="#fff" d="M152.927 108.015l.033 7.546a3.953 3.953 0 01-1.141 2.785 3.906 3.906 0 01-2.768 1.149h-18.828l-4.265.041c1.521 0 2.843-.983 2.843-2.892V91.163c0-1.53-1.421-2.96-2.372-2.96l.951.05h20.522c1.347 0 2.628.554 3.554 1.53a4.974 4.974 0 011.372 3.62l.058 10.686"/><path stroke="#576C7D" stroke-linecap="round" stroke-linejoin="round" stroke-width=".413" d="M152.927 108.015l.033 7.546a3.953 3.953 0 01-1.141 2.785 3.906 3.906 0 01-2.768 1.149h-18.828l-4.265.041c1.521 0 2.843-.983 2.843-2.892V91.163c0-1.53-1.421-2.96-2.372-2.96l.951.05h20.522c1.347 0 2.628.554 3.554 1.53a4.974 4.974 0 011.372 3.62l.058 10.686"/><path stroke="#7B8E9F" stroke-linecap="round" stroke-linejoin="round" stroke-width=".413" d="M132.835 93.659h4.264m-4.264 1.901h4.264"/><path stroke="#576C7D" stroke-linecap="round" stroke-linejoin="round" stroke-width=".413" d="M133.306 106.932h16.116m-16.116 2.852h16.116"/><path stroke="#7B8E9F" stroke-linecap="round" stroke-linejoin="round" stroke-width=".413" d="M145.158 112.147h4.264m-4.264 1.893h4.264"/><path stroke="#576C7D" stroke-linecap="round" stroke-linejoin="round" stroke-width=".413" d="M121.925 122.578h16.125"/><path stroke="#576C7D" stroke-linecap="round" stroke-linejoin="round" stroke-width=".471" d="M145.637 104.568a5.692 5.692 0 005.686-5.694 5.686 5.686 0 00-5.686-5.686 5.693 5.693 0 00-5.695 5.686 5.695 5.695 0 005.695 5.694zm4.265-1.901l6.637 6.637"/><path stroke="#576C7D" stroke-linecap="round" stroke-linejoin="round" stroke-width="1.901" d="M153.456 106.221l3.083 3.083"/><path fill="#EBEFF3" d="M145.629 103.139a4.267 4.267 0 004.273-4.265 4.273 4.273 0 00-4.273-4.273 4.266 4.266 0 00-4.265 4.273 4.265 4.265 0 004.265 4.265z"/><path stroke="#576C7D" stroke-linecap="round" stroke-width=".413" d="M110.503 97.469h16.943"/><path fill="#527FA5" d="M165.423 145.348a2.13 2.13 0 002.124-2.133c0-1.173-.95-2.124-2.124-2.124a2.13 2.13 0 00-2.132 2.124c0 1.174.95 2.133 2.132 2.133zm.438-12.513a2.647 2.647 0 002.645-2.645 2.647 2.647 0 00-2.645-2.645 2.647 2.647 0 00-2.645 2.645 2.642 2.642 0 002.645 2.645zm2.934-17.605a3.203 3.203 0 003.199-3.207 3.196 3.196 0 00-3.199-3.198 3.203 3.203 0 100 6.405z"/><path fill="#527FA5" d="M163.274 143.596l-.049-13.58 5.256.347-.967 12.91-4.24.323z"/><path fill="#527FA5" d="M171.911 112.742l-3.454 17.911-5.191-.877 2.405-18.464 6.24 1.43zm5.24 33.085a2.13 2.13 0 002.124-2.132c0-1.174-.95-2.124-2.124-2.124a2.13 2.13 0 00-2.132 2.124c0 1.173.959 2.132 2.132 2.132zm-2.868-12.207a2.642 2.642 0 002.645-2.645 2.642 2.642 0 00-2.645-2.645 2.647 2.647 0 00-2.645 2.645 2.647 2.647 0 002.645 2.645z"/><path fill="#527FA5" d="M172.514 115.867a3.198 3.198 0 003.199-3.207 3.191 3.191 0 00-3.199-3.199 3.203 3.203 0 100 6.406zm2.645 28.737l-3.603-13.497 5.132-.934 2.496 13.042-4.025 1.389z"/><path fill="#527FA5" d="M175.705 112.569l1.215 18.332-5.306.272-2.306-18.406 6.397-.198z"/><path fill="#527FA5" d="M177.556 113.627a6.431 6.431 0 01-.529 1.653c-.239.661-.446 1.33-.611 2.008-.124.785-.199 1.57-.215 2.364l-2.364-2.81c-.901-.645-1.355-2.265-1.05-4.042.372-2.157 1.843-1.653 2.976-2.38 1.876-1.182 2.165 1.05 1.793 3.207z"/><path stroke="#EBEFF3" stroke-linecap="round" stroke-linejoin="round" stroke-width=".413" d="M175.697 115.065a1.971 1.971 0 01-1.976-.438 2.47 2.47 0 01-.727-2.066"/><path stroke="#fff" stroke-linecap="round" stroke-linejoin="round" stroke-width=".413" d="M176.556 130.049l-1.769.976m2 .793l-1.727-.223"/><path fill="#131735" d="M169.002 113.685s.992 6.347 1.289 8.017l-.661 2.636s-1.173-7.661-.628-10.653z"/><path stroke="#131735" stroke-linecap="round" stroke-linejoin="round" stroke-width=".413" d="M168.919 95.898s-.305 0-1.529-.611l-.909 2.727"/><path stroke="#fff" stroke-linecap="round" stroke-linejoin="round" stroke-width=".413" d="M169.151 113.767l1.248 9.166"/><path fill="#4BC1A7" d="M179.482 87.36l-1.521-1.074c-.033.959-.967 1.984-2.289 2.447-1.488.512-2.918.099-3.232-.926l-.636.487a5.771 5.771 0 00-1.967 3.141l-4.025 14.794c-.587 2.158.413 4.521 2.041 4.794l6.414 1.099c1.752.306 3.413-1.239 3.926-3.62l3.19-14.918c.521-2.446-.281-5.075-1.901-6.223z"/><path stroke="#131735" stroke-linecap="round" stroke-linejoin="round" stroke-width=".413" d="M165.299 99.89a2.743 2.743 0 00-1.95-.537m1.198.81s-1.603-.644-2.967-.025a1.345 1.345 0 00-.826 1.81s.686 2.422 4.082 1.877"/><path fill="#fff" d="M170.671 78.633l-.057 5.314v.042c-.025 1.86 1.603 3.388 3.628 3.421 2.033.025 3.703-1.454 3.719-3.306l.091-6.959"/><path stroke="#131735" stroke-linecap="round" stroke-linejoin="round" stroke-width=".446" d="M170.671 78.633l-.057 5.314v.042c-.025 1.86 1.603 3.388 3.628 3.421 2.033.025 3.703-1.454 3.719-3.306l.091-6.959"/><path fill="#FF9D45" d="M168.82 74.22c-.314-.166-.636.239-.471.61 1.57 3.588 5.141 4.505 8.224 3.43a2.147 2.147 0 001.115-.727 2.9 2.9 0 00.364-1.892c0-.53-.182-1.041-.504-1.455a1.744 1.744 0 00-1.546-.347c-2.653.347-4.562 1.728-7.182.38z"/><path fill="#FF9D45" d="M177.506 76.914c.1-.57.438-1.066.934-1.364.24-.174.546-.24.835-.19.298.058.554.223.727.471 0 0 1.025 1.124.215 3.959 0 0-.38 1.95-1.57 2.959a.58.58 0 01-.529.1.53.53 0 01-.364-.381 12.634 12.634 0 01-.248-5.554z"/><path stroke="#FF9D45" stroke-linecap="round" stroke-linejoin="round" stroke-width=".413" d="M177.523 76.319s1.05-.645.529-2.744m-.273 2.892s0-1.24 2.067-1.884"/><path fill="#fff" stroke="#131735" stroke-linecap="round" stroke-linejoin="round" stroke-width=".413" d="M172.151 81.774c.016-1.199-.818-2.182-1.868-2.199-1.05-.016-1.909.95-1.926 2.15-.016 1.198.818 2.181 1.868 2.198 1.041.016 1.909-.943 1.926-2.15zm4.182.066c.016-1.199-.818-2.182-1.86-2.199-1.049-.016-1.917.942-1.934 2.15-.016 1.198.819 2.181 1.868 2.198 1.05.016 1.909-.95 1.926-2.15z"/><path fill="#fff" d="M172.167 81.782s.315-.661.414 0h-.414z"/><path stroke="#131735" stroke-linecap="round" stroke-linejoin="round" stroke-width=".413" d="M172.167 81.782s.315-.661.414 0m-3.497-1.711l2.034 3.628m-1.488-3.992l1.496 2.562m2.314-2.14l2.033 3.628m-1.487-3.984l1.496 2.563m.851-.794l1.76.025m-14.529 64.26s-2.918 1.091-4.191 2.603c0 0 3.72.893 9.092-.33a3.582 3.582 0 00-.876-2.174 3.623 3.623 0 01-4.025-.099z"/><path stroke="#131735" stroke-linecap="round" stroke-linejoin="round" stroke-width=".413" d="M159.373 148.431s-.33-.042-.372.198a.267.267 0 00.215.297s1.471.571 4.769.323a21.436 21.436 0 004.736-.686s.132 0 .074-.273c-.057-.281-.338-.19-.338-.19m7.091-2.182s-2.926 1.066-4.207 2.562c0 0 3.719.926 9.058-.248a3.568 3.568 0 00-.851-2.174 3.598 3.598 0 01-4-.14z"/><path stroke="#131735" stroke-linecap="round" stroke-linejoin="round" stroke-width=".413" d="M171.366 148.488s-.323-.049-.364.207a.266.266 0 00.215.314s1.438.62 4.686.413a18.784 18.784 0 004.645-.661s.132 0 .083-.289a.293.293 0 00-.124-.174.25.25 0 00-.215-.025"/><path stroke="#131735" stroke-linecap="round" stroke-width=".413" d="M176.126 95.452l-2.612 6.844-7.14-2.273"/><path stroke="#131735" stroke-linecap="round" stroke-width=".413" d="M165.159 104.593l8.579 3.091a3.382 3.382 0 002.719-.082 3.37 3.37 0 001.785-2.058l2.149-7.96m-14.331 2.744s-.042 2.579-1.124 3.72"/><path stroke="#131735" stroke-linecap="round" stroke-linejoin="round" stroke-width=".413" d="M167.076 95.278c-.537-.24-1.884-1.338-2.438-1.529-.909-.305-1.075-.206-1.521 0-.62.298-1.372 1.158-.917 1.835m3.141.191a1.935 1.935 0 01-1.48.628c-.273 0 0 .413.074.454.414.347 2.215.736 2.348.083m-3.943.702l3.968-7.314m-1.827 3.355l-.603-.611 1.52-2.744.918-.298m-2.438 3.348l-1.827 3.355"/><path fill="#647A8E" d="M160.439 100.915l-3.049-7.62 3.967 1.223 1.826 4.877"/><path fill="#131735" d="M175.895 95.584s-1.959 5.414-2.248 6.596l-1.314-.389"/><path fill="#CFD7DF" d="M226.915 148.274h-4.662a5.24 5.24 0 01-4.174-2.067 5.277 5.277 0 01-.884-4.578l3.281-11.811h8.199l3.281 11.811a5.245 5.245 0 01-.868 4.578 5.26 5.26 0 01-4.173 2.067z"/><path fill="#B1BDC7" d="M219.071 127.355h11.017a1.1 1.1 0 110 2.198h-11.017a1.098 1.098 0 110-2.198zm2.496-9.488c0 4.653-6.24 1.785-8.43 1.099a1.272 1.272 0 01-.587-.289c-.372-.381-.157-1.05.232-1.422.38-.372.9-.595 1.239-.992.339-.405.447-1.132 0-1.405-1.554.827-2.661 2.025-4.041.827-.711-.62-1.265-1.628-1.852-2.372l-3.273-4.182a12.517 12.517 0 01-2.636-7.026.817.817 0 01.24-.644.82.82 0 01.644-.24 12.57 12.57 0 017.025 2.637l2.43 1.909c1.794 1.405 1.604 1.735 1.116 4.033.446.281 1.041.041 1.463-.281.372-.38.81-.678 1.289-.893.934-.264 2.926 2.753 3.447 3.538a10.289 10.289 0 011.694 5.703z"/><path stroke="#92A2B1" stroke-width=".413" d="M208.36 107.362l16.149 16.15"/><path fill="#CFD7DF" d="M226.89 114.131a2.014 2.014 0 001.992 1.992c2.347 0 4.562-1.058 6-2.893.43-.496.835-1.008 1.198-1.537.447-.711.372-1.579.752-2.141a.909.909 0 011-.339c.174.058.331.166.513.215a.745.745 0 00.859-.504c.158-.537-.024-.884.174-1.446.207-.571.703-1.083.95-1.628a8.862 8.862 0 00.827-3.306.62.62 0 00-.182-.472.645.645 0 00-.471-.173 9.305 9.305 0 00-5.174 1.942 14.867 14.867 0 01-1.934 1.513c-.487.256-2.107.471-2.223.958-.041.488.083.967.347 1.372.207.438.372.976.107 1.381-1.818-.827-2.405-.794-3.529.975a7.853 7.853 0 00-1.206 4.091z"/><path stroke="#92A2B1" stroke-width=".413" d="M236.626 106.387l-11.902 11.893m-.14 9.232v-17.828"/><path fill="#B1BDC7" d="M218.939 149.695h11.703c.339 0 .62-.281.62-.62a.624.624 0 00-.62-.62h-11.703a.624.624 0 00-.62.62c0 .339.281.62.62.62z"/><path stroke="#92A2B1" stroke-width=".413" d="M220.716 145.893h5.628a3.95 3.95 0 003.083-1.471 3.962 3.962 0 00.785-3.331l-.793-3.719m-7.744-5.446l-2.232 8.711m7.447-26.506s-.141-2.463 1.198-4.132m-17.951-6.133l2.438 1.901m7.306 6.397s1.992 3.248 1.686 5.694"/><path fill="#fff" d="M110.139 105.717a8.53 8.53 0 100-17.059 8.529 8.529 0 00-8.529 8.53 8.528 8.528 0 008.529 8.529z"/><path fill="#647A8E" d="M110.139 105.816c-4.761 0-8.629-3.868-8.629-8.628s3.868-8.629 8.629-8.629c4.761 0 8.629 3.868 8.629 8.629 0 4.76-3.868 8.628-8.629 8.628zm0-17.05c-4.645 0-8.422 3.777-8.422 8.422 0 4.645 3.777 8.422 8.422 8.422 4.645 0 8.422-3.777 8.422-8.422 0-4.645-3.777-8.422-8.422-8.422z"/><path fill="#FDDCB5" d="M110.139 105.899c-4.802 0-8.703-3.909-8.703-8.703s3.909-8.703 8.703-8.703 8.703 3.91 8.703 8.703c0 4.794-3.909 8.703-8.703 8.703zm0-17.05c-4.604 0-8.348 3.743-8.348 8.347 0 4.604 3.744 8.348 8.348 8.348 4.604 0 8.348-3.744 8.348-8.348 0-4.603-3.744-8.348-8.348-8.348z"/><path fill="#FEF1E1" d="M103.692 102.882a.374.374 0 01-.107-.297c.025-.355.248-1.041 1.587-1.595a67.684 67.684 0 003.058-1.34.335.335 0 01.281-.024c.099.033.173.1.215.19l1.041 2.232c.058.115.182.19.314.198a.418.418 0 00.339-.174l1.306-2.24a.383.383 0 01.504-.132l3.538 1.951c.438.19.735.62.752 1.099 0 .124-.033.24-.133.331-.595.537-3.173 2.678-6.099 2.628a9.059 9.059 0 01-6.587-2.835l-.009.008z"/><path fill="#FDDCB5" d="M110.37 105.899h-.09a9.305 9.305 0 01-6.72-2.885.587.587 0 01-.157-.438c.041-.496.364-1.198 1.694-1.744 1.381-.57 2.53-1.082 3.042-1.338a.541.541 0 01.413-.042c.149.05.265.157.323.29l1.041 2.231c.025.058.091.091.165.099a.23.23 0 00.182-.091l1.298-2.231a.557.557 0 01.743-.199l3.538 1.951c.488.215.818.694.843 1.248a.596.596 0 01-.19.471c-.496.455-3.116 2.678-6.133 2.678h.008zm-1.975-6.116s-.058 0-.082.025c-.538.264-1.687.777-3.075 1.355-1.165.479-1.446 1.05-1.471 1.438 0 .058.016.124.058.157 1.694 1.785 4.091 2.785 6.545 2.777 2.885 0 5.406-2.149 5.893-2.587.05-.041.075-.115.075-.19a1.07 1.07 0 00-.645-.942l-3.546-1.959a.198.198 0 00-.264.066l-1.306 2.232a.579.579 0 01-.504.264.54.54 0 01-.463-.297l-1.041-2.232a.175.175 0 00-.116-.099h-.05l-.008-.008z"/><path fill="#FEF1E1" d="M107.767 99.733l.223 2.587 2.075.025-1.513-2.868a.578.578 0 00-.438-.041.613.613 0 00-.347.297z"/><path fill="#FDDCB5" d="M110.362 102.535l-2.537-.033-.24-2.802.025-.05a.806.806 0 01.446-.38.744.744 0 01.579.058l.049.025 1.678 3.182zm-2.207-.388l1.612.024-1.347-2.545a.389.389 0 00-.256-.008.46.46 0 00-.215.165l.206 2.372v-.008z"/><path fill="#FEF1E1" d="M112.42 99.808l-.297 2.57-2.067-.025 1.596-2.818a.509.509 0 01.438-.025.56.56 0 01.33.298z"/><path fill="#FDDCB5" d="M112.288 102.56l-2.529-.033 1.768-3.124.05-.025a.742.742 0 01.579-.041c.19.066.347.206.438.396l.016.041-.314 2.786h-.008zm-1.918-.389l1.604.025.273-2.355a.388.388 0 00-.199-.166.343.343 0 00-.256 0l-1.413 2.505-.009-.009z"/><path fill="#FEF1E1" d="M112.974 93.501l-.025 1.678c-.298 0-.579-.132-.785-.347a1.097 1.097 0 01-.314-.793l-4.48-.058a1.45 1.45 0 01-1.049-.463 1.448 1.448 0 01-.422-1.058v-1.116h.19l4.852.067a2.06 2.06 0 012.041 2.09h-.008z"/><path fill="#FDDCB5" d="M110.089 99.237a3.013 3.013 0 01-2.091-.9 2.963 2.963 0 01-.843-2.125.18.18 0 01.182-.132.19.19 0 01.182.132 2.606 2.606 0 001.273 2.281 2.63 2.63 0 002.612.034 2.62 2.62 0 001.33-2.249c0-.099.083-.19.19-.181.042 0 .091.016.133.05a.187.187 0 01.049.131 2.997 2.997 0 01-3.008 2.951l-.009.008zm2.877-5.545c-.099 0-.182-.091-.182-.19 0-1.033-.81-1.877-1.843-1.893a.179.179 0 01-.132-.182c0-.09.057-.157.132-.182a2.248 2.248 0 012.207 2.273.212.212 0 01-.191.174h.009z"/><path fill="#FDDCB5" d="M107.337 96.41a.195.195 0 01-.132-.057.188.188 0 01-.05-.132l.025-2.24c0-.05.025-.091.058-.132a.156.156 0 01.132-.05c.041 0 .091.016.132.05.033.033.05.082.05.132l-.025 2.24c0 .099-.082.19-.19.19zm5.596.059c-.05 0-.1-.025-.133-.058a.188.188 0 01-.049-.132l.041-2.794c0-.05.025-.09.05-.132.033-.033.082-.058.132-.05.049 0 .091.017.132.05a.196.196 0 01.058.132l-.041 2.794c0 .05-.025.09-.058.132a.196.196 0 01-.132.058z"/><path fill="#FDDCB5" d="M112.949 95.37a1.307 1.307 0 01-1.281-1.323c-.025-.083 0-.157.066-.198a.186.186 0 01.223 0c.067.041.091.124.075.198 0 .513.405.942.917.95.075-.024.149 0 .199.075a.203.203 0 010 .215.197.197 0 01-.199.074v.025-.016z"/><path fill="#FDDCB5" d="M111.842 94.229l-4.472-.058a.198.198 0 01-.19-.19c0-.05.025-.091.058-.132a.156.156 0 01.132-.05l4.472.058c.099 0 .19.082.19.19 0 .041-.025.09-.058.132a.188.188 0 01-.132.05z"/><path fill="#FDDCB5" d="M107.37 94.171a1.696 1.696 0 01-1.653-1.703c0-.05.025-.09.058-.132.033-.033.083-.058.132-.05.042 0 .091.017.133.05a.188.188 0 01.049.133c0 .719.571 1.314 1.29 1.33a.22.22 0 01.132.05.188.188 0 01.049.132c0 .1-.082.19-.19.19zm3.579-2.571l-5.017-.066c-.049 0-.091-.024-.132-.057-.033-.034-.058-.083-.05-.133 0-.05.017-.09.05-.132.033-.033.083-.058.132-.05l5.017.067c.041 0 .091.024.132.058.033.032.05.082.05.132 0 .041-.025.09-.058.132a.188.188 0 01-.132.05h.008z"/><path fill="#FDDCB5" d="M105.899 92.659a.192.192 0 01-.19-.19l.025-1.116c0-.05.016-.091.049-.133a.159.159 0 01.133-.05c.099 0 .19.083.19.19l-.025 1.117c0 .041-.025.09-.058.132a.195.195 0 01-.132.058l.008-.008z"/></g><defs><clipPath id="clip0_455_30274"><path fill="#fff" d="M0 0h271v149.695H0z"/></clipPath></defs></svg>