<svg width="266" height="147" viewBox="0 0 266 147" fill="none" xmlns="http://www.w3.org/2000/svg">
<path d="M238.189 51.4693C236.261 61.9977 243.863 71.6038 250.566 79.9563C257.27 88.3087 263.825 99.1845 259.749 109.07C256.08 117.938 245.464 121.547 235.925 122.585C226.387 123.623 216.206 123.264 207.977 128.174C204.492 130.247 201.589 133.153 198.18 135.361C186.022 143.282 169.98 141.138 156.082 136.958C142.184 132.778 128.246 126.821 113.785 128.011C93.4507 129.68 75.4562 145.342 55.0941 143.662C41.4875 142.54 29.4459 133.445 22.0357 121.982C14.6255 110.519 11.2438 96.9047 9.3074 83.4098C8.10963 75.0255 7.41493 66.4215 9.35132 58.1888C11.2877 49.9561 16.2265 42.0748 23.8244 38.3617C29.2742 35.6987 36.2492 34.9122 39.5191 29.8057C41.6711 26.4439 41.5154 22.1639 42.3778 18.2712C43.9563 11.2241 48.9782 5.44609 55.7367 2.90122C62.4951 0.356341 70.0808 1.38693 75.9153 5.64267C80.898 9.27591 84.168 14.9414 89.3343 18.3071C97.1637 23.4016 107.664 22.0761 116.208 18.3071C124.752 14.5381 132.179 8.60116 140.563 4.46087C148.947 0.320586 159.104 -1.90327 167.521 2.15317C176.736 6.57294 182.018 17.6403 191.895 20.3273C197.828 21.9523 204.121 20.1277 209.894 18.0037C219.66 14.4103 234.121 9.67916 240.96 21.1698C246.989 31.3109 239.994 41.6117 238.189 51.4693Z" fill="#EBEFF3"/>
<rect x="195.745" y="137.662" width="18.1662" height="6.05672" transform="rotate(-0.62 195.745 137.662)" fill="#CFD7DF"/>
<rect x="195.551" y="129.062" width="15.3642" height="5.12272" transform="rotate(-0.572939 195.551 129.062)" fill="#CFD7DF"/>
<rect x="195.713" y="134.696" width="19.0286" height="2.25181" transform="rotate(-0.62 195.713 134.696)" fill="#92A2B1"/>
<path fill-rule="evenodd" clip-rule="evenodd" d="M198.403 133.15C199.347 133.15 200.112 132.385 200.112 131.441C200.112 130.497 199.347 129.732 198.403 129.732C197.459 129.732 196.694 130.497 196.694 131.441C196.694 132.385 197.459 133.15 198.403 133.15Z" stroke="white" stroke-width="0.399256"/>
<path fill-rule="evenodd" clip-rule="evenodd" d="M209.886 142.233C210.83 142.233 211.595 141.468 211.595 140.524C211.595 139.58 210.83 138.815 209.886 138.815C208.942 138.815 208.177 139.58 208.177 140.524C208.177 141.468 208.942 142.233 209.886 142.233Z" stroke="white" stroke-width="0.399256"/>
<path d="M211.016 128.706L207.51 128.746L211.016 128.706Z" fill="white"/>
<path d="M211.016 128.706L207.51 128.746" stroke="#92A2B1" stroke-width="0.399256"/>
<path d="M199.257 137.773L195.752 137.809L199.257 137.773Z" fill="white"/>
<path d="M199.257 137.773L195.752 137.809" stroke="#92A2B1" stroke-width="0.399256"/>
<rect x="196.347" y="114.369" width="11.3708" height="13.8981" fill="#CFD7DF"/>
<path d="M207.482 118.002C208.694 117.96 209.833 118.583 210.451 119.626C211.07 120.669 211.07 121.967 210.451 123.01C209.833 124.053 208.694 124.676 207.482 124.634" stroke="#92A2B1" stroke-width="0.399256"/>
<path d="M207.482 119.052C208.732 119.052 209.746 120.066 209.746 121.316C209.746 122.566 208.732 123.58 207.482 123.58" stroke="#92A2B1" stroke-width="0.399256"/>
<path d="M202.032 124.211C203.631 124.211 204.927 122.915 204.927 121.316C204.927 119.717 203.631 118.421 202.032 118.421C200.434 118.421 199.138 119.717 199.138 121.316C199.138 122.915 200.434 124.211 202.032 124.211Z" fill="white"/>
<path d="M197.345 122.282V115.307H203.518" stroke="white" stroke-width="0.399256"/>
<path d="M50.8721 74.9521V107.092C50.8829 108.62 52.1189 109.856 53.6469 109.867H200.517C202.053 109.867 203.301 108.628 203.312 107.092V12.7679C203.312 11.2244 202.061 9.97314 200.517 9.97314H53.6469C52.1112 9.98411 50.872 11.2322 50.8721 12.7679V58.5826" fill="white"/>
<path d="M50.8721 74.9521V107.092C50.8829 108.62 52.1189 109.856 53.6469 109.867H200.517C202.053 109.867 203.301 108.628 203.312 107.092V12.7679C203.312 11.2244 202.061 9.97314 200.517 9.97314H53.6469C52.1112 9.98411 50.872 11.2322 50.8721 12.7679V58.5826" stroke="#273139" stroke-width="0.459145"/>
<g clip-path="url(#clip0_1497_51183)">
<path d="M116.667 54.4627V40.5452H135.424V54.4627H116.667Z" fill="#B2E4D9" stroke="black" stroke-width="0.11"/>
<path d="M107.395 67.7898C107.328 67.7898 107.274 67.7355 107.274 67.669V57.3523C107.274 57.2853 107.329 57.2314 107.395 57.2314H144.696C144.763 57.2314 144.817 57.2858 144.817 57.3523V67.1212C144.817 67.1882 144.763 67.2421 144.696 67.2421C144.63 67.2421 144.575 67.1877 144.575 67.1212V57.4732H107.517V67.669C107.517 67.736 107.462 67.7898 107.396 67.7898H107.395Z" fill="black"/>
<path d="M125.932 57.3787C125.865 57.3787 125.811 57.3243 125.811 57.2579V54.5178C125.811 54.4508 125.865 54.397 125.932 54.397C125.998 54.397 126.053 54.4514 126.053 54.5178V57.2579C126.053 57.3249 125.998 57.3787 125.932 57.3787Z" fill="black"/>
<path d="M116.961 60.3369H98.095V74.3644H116.961V60.3369Z" fill="white"/>
<path d="M116.961 74.486H98.095C98.028 74.486 97.9742 74.4317 97.9742 74.3652V60.3377C97.9742 60.2706 98.0285 60.2168 98.095 60.2168H116.961C117.028 60.2168 117.082 60.2712 117.082 60.3377V74.3652C117.082 74.4322 117.028 74.486 116.961 74.486ZM98.2159 74.2443H116.84V60.4585H98.2159V74.2443Z" fill="black"/>
<path d="M135.185 74.3094V60.3919H153.941V74.3094H135.185Z" fill="#B2E4D9" stroke="black" stroke-width="0.11"/>
<path d="M85.8477 87.9734C85.7807 87.9734 85.7268 87.919 85.7268 87.8526V77.5359C85.7268 77.4689 85.7812 77.415 85.8477 77.415H114.731C114.798 77.415 114.852 77.4694 114.852 77.5359V87.3048C114.852 87.3718 114.798 87.4257 114.731 87.4257C114.665 87.4257 114.61 87.3713 114.61 87.3048V77.6568H85.9686V87.8526C85.9686 87.9196 85.9142 87.9734 85.8477 87.9734Z" fill="black"/>
<path d="M109.098 77.5618C109.031 77.5618 108.977 77.5074 108.977 77.441V74.701C108.977 74.6339 109.031 74.5801 109.098 74.5801C109.164 74.5801 109.219 74.6345 109.219 74.701V77.441C109.219 77.508 109.164 77.5618 109.098 77.5618Z" fill="black"/>
<path d="M76.6025 94.4925V80.575H95.3588V94.4925H76.6025Z" fill="#B2E4D9" stroke="black" stroke-width="0.11"/>
<path d="M124.031 80.52H105.165V94.5475H124.031V80.52Z" fill="white"/>
<path d="M124.031 94.6692H105.165C105.098 94.6692 105.044 94.6148 105.044 94.5483V80.5208C105.044 80.4537 105.099 80.3999 105.165 80.3999H124.031C124.098 80.3999 124.152 80.4543 124.152 80.5208V94.5483C124.152 94.6153 124.098 94.6692 124.031 94.6692ZM105.286 94.4274H123.91V80.6417H105.286V94.4274Z" fill="black"/>
<path d="M165.233 87.9734C165.166 87.9734 165.112 87.919 165.112 87.8526V77.6568H138.154V87.3048C138.154 87.3718 138.1 87.4257 138.033 87.4257C137.967 87.4257 137.912 87.3713 137.912 87.3048V77.5359C137.912 77.4689 137.967 77.415 138.033 77.415H165.233C165.3 77.415 165.354 77.4694 165.354 77.5359V87.8526C165.354 87.9196 165.3 87.9734 165.233 87.9734Z" fill="black"/>
<path d="M143.666 77.5618C143.599 77.5618 143.546 77.5074 143.546 77.441V74.701C143.546 74.6339 143.6 74.5801 143.666 74.5801C143.733 74.5801 143.787 74.6345 143.787 74.701V77.441C143.787 77.508 143.733 77.5618 143.666 77.5618Z" fill="black"/>
<path d="M156.004 94.5483H174.871V80.5208H156.004V94.5483Z" fill="white"/>
<path d="M174.87 94.6692H156.004C155.937 94.6692 155.883 94.6148 155.883 94.5483V80.5208C155.883 80.4537 155.937 80.3999 156.004 80.3999H174.87C174.937 80.3999 174.991 80.4543 174.991 80.5208V94.5483C174.991 94.6153 174.937 94.6692 174.87 94.6692ZM156.125 94.4274H174.749V80.6417H156.125V94.4274Z" fill="black"/>
<path d="M128.733 94.5483H147.599V80.5208H128.733V94.5483Z" fill="#B2E4D9"/>
<path d="M129.733 93.5483H148.599V79.5208H129.733V93.5483Z" fill="#1AB394"/>
<path d="M75.6915 49.8818C75.6689 49.8818 75.6459 49.8752 75.6255 49.862C75.5695 49.8252 75.5541 49.7505 75.5904 49.6944L79.3023 44.0166C79.3248 43.9826 79.3628 43.9617 79.4034 43.9617C79.4446 43.9617 79.4825 43.9826 79.5045 44.0172L81.7204 47.4401L85.2636 41.2074C85.2966 41.1491 85.3708 41.1288 85.4285 41.1618C85.4867 41.1947 85.507 41.2689 85.4741 41.3266L81.8324 47.7324C81.8116 47.7692 81.7731 47.7923 81.7308 47.7934C81.689 47.7962 81.6489 47.7736 81.6259 47.7385L79.4029 44.3045L75.7931 49.8268C75.77 49.8626 75.731 49.8818 75.6915 49.8818Z" fill="black"/>
<path d="M85.8576 43.0386C85.8026 43.0386 85.7532 43.0012 85.74 42.9452L85.3521 41.2964L83.7252 41.8227C83.6615 41.843 83.5934 41.8084 83.573 41.7447C83.5522 41.681 83.5873 41.6128 83.6511 41.5925L85.4026 41.0255C85.4351 41.015 85.4697 41.0183 85.4993 41.0354C85.529 41.0519 85.5499 41.0804 85.5576 41.1128L85.9757 42.8891C85.9911 42.954 85.9504 43.0194 85.8856 43.0347C85.8763 43.0369 85.8669 43.038 85.8576 43.038V43.0386Z" fill="black"/>
<path d="M86.2251 51.2027H74.658C74.591 51.2027 74.5371 51.1483 74.5371 51.0818V40.9778C74.5371 40.9108 74.5915 40.8569 74.658 40.8569C74.7245 40.8569 74.7789 40.9113 74.7789 40.9778V50.9604H86.2251C86.2922 50.9604 86.346 51.0148 86.346 51.0813C86.346 51.1478 86.2916 51.2022 86.2251 51.2022V51.2027Z" fill="black"/>
<path fill-rule="evenodd" clip-rule="evenodd" d="M172.82 60.0816H173.195C173.378 60.0816 173.553 60.1513 173.666 60.2733C173.797 60.4041 173.866 60.5697 173.866 60.7528V62.1039C173.866 62.4788 173.561 62.7839 173.186 62.7839H172.812C172.533 62.7839 172.28 62.9582 172.184 63.2197C172.149 63.3156 172.097 63.4202 172.053 63.5248C171.94 63.7776 171.992 64.074 172.193 64.2832L172.454 64.5447C172.716 64.8062 172.716 65.2421 172.454 65.5036L171.504 66.4538C171.243 66.7153 170.807 66.7153 170.545 66.4538L170.284 66.1922C170.083 66.0005 169.778 65.9394 169.525 66.0528C169.429 66.0964 169.325 66.1399 169.22 66.1835C168.959 66.2707 168.784 66.5322 168.784 66.8112V67.186C168.784 67.5608 168.479 67.8659 168.113 67.8659H166.753C166.387 67.8659 166.082 67.5608 166.082 67.186V66.8112C166.082 66.5322 165.908 66.2794 165.646 66.1835C165.55 66.1487 165.446 66.0964 165.341 66.0528C165.088 65.9394 164.783 65.9917 164.583 66.1922L164.321 66.4538C164.06 66.7153 163.624 66.7153 163.362 66.4538L162.412 65.5036C162.151 65.2421 162.151 64.8062 162.412 64.5447L162.674 64.2832C162.865 64.0827 162.926 63.7776 162.813 63.5248C162.77 63.4289 162.726 63.3243 162.682 63.2197C162.587 62.9582 162.334 62.7839 162.055 62.7839H161.68C161.305 62.7839 161 62.4788 161 62.1039V60.7528C161 60.3867 161.305 60.0816 161.68 60.0816H162.055C162.334 60.0816 162.587 59.8985 162.682 59.6457C162.717 59.5498 162.77 59.4452 162.813 59.3406C162.926 59.0878 162.874 58.7827 162.674 58.5822L162.412 58.3207C162.151 58.0592 162.151 57.6234 162.412 57.3618L163.362 56.4117C163.624 56.1502 164.06 56.1502 164.321 56.4117L164.583 56.6732C164.774 56.865 165.08 56.926 165.341 56.8127L165.646 56.6819C165.908 56.586 166.082 56.3245 166.082 56.0543V55.6794C166.082 55.3046 166.387 54.9995 166.753 54.9995H168.113C168.479 54.9995 168.784 55.3046 168.784 55.6794V56.0543C168.784 56.3332 168.959 56.586 169.22 56.6819C169.325 56.7168 169.421 56.7691 169.525 56.8127C169.778 56.926 170.074 56.8737 170.284 56.6732L170.545 56.4117C170.807 56.1502 171.243 56.1502 171.504 56.4117L172.454 57.3618C172.716 57.6234 172.716 58.0592 172.454 58.3207L172.193 58.5822C172.001 58.774 171.94 59.0791 172.053 59.3406C172.097 59.4365 172.14 59.5411 172.184 59.6457C172.271 59.8985 172.533 60.0816 172.812 60.0816H172.82ZM170.162 61.5635V61.4153C170.162 61.3194 170.162 61.2235 170.162 61.1189V61.0579C170.144 60.9707 170.136 60.8748 170.118 60.7877L170.092 60.7005C170.066 60.6133 170.048 60.5349 170.013 60.4564L169.987 60.3867C169.944 60.2908 169.9 60.1949 169.848 60.099L169.813 60.038C169.769 59.9595 169.726 59.8985 169.673 59.8288L169.621 59.7503C169.569 59.6806 169.508 59.6108 169.447 59.5585C169.429 59.5411 169.421 59.5324 169.412 59.515C169.334 59.4365 169.264 59.3755 169.177 59.3145L169.116 59.2622L168.915 59.1227L168.828 59.0704C168.741 59.0268 168.662 58.9832 168.575 58.9396H168.549C168.453 58.896 168.349 58.8612 168.244 58.835L168.157 58.8089C168.157 58.8089 168.131 58.8089 168.113 58.7914C168.052 58.774 167.982 58.7566 167.921 58.7566H167.825C167.712 58.7391 167.608 58.7304 167.494 58.7304C167.268 58.7304 167.032 58.7566 166.814 58.8176C165.611 59.1227 164.783 60.2036 164.783 61.4327C164.783 62.6618 165.611 63.7515 166.814 64.0566C166.919 64.0827 167.032 64.1001 167.146 64.1176H167.477C167.573 64.1176 167.677 64.1176 167.782 64.0914H167.825C167.921 64.074 168.017 64.0653 168.122 64.0391H168.165C168.392 63.9781 168.61 63.8909 168.811 63.7776L168.95 63.6904L168.994 63.6643C169.185 63.5335 169.377 63.3941 169.551 63.2372C169.595 63.1848 169.639 63.1413 169.682 63.0802C169.865 62.7839 169.996 62.4526 170.083 62.1126C170.101 62.0516 170.109 61.9906 170.127 61.9383C170.127 61.9122 170.127 61.9122 170.127 61.8947C170.127 61.8773 170.127 61.8686 170.144 61.8163C170.17 61.7291 170.17 61.6419 170.17 61.5635H170.162Z" fill="#EBEFF3"/>
</g>
<path d="M53.8725 10.0669H200.743C202.286 10.0669 203.538 11.3182 203.538 12.8617V22.895H51.0977V12.8417C51.1086 11.3138 52.3445 10.0778 53.8725 10.0669Z" fill="#273139" stroke="#273139" stroke-width="0.459145"/>
<path d="M56.0723 17.9281C56.7757 17.9281 57.346 17.3579 57.346 16.6545C57.346 15.9511 56.7757 15.3809 56.0723 15.3809C55.3689 15.3809 54.7987 15.9511 54.7987 16.6545C54.7987 17.3579 55.3689 17.9281 56.0723 17.9281Z" fill="white"/>
<path d="M60.2724 17.9281C60.9758 17.9281 61.546 17.3579 61.546 16.6545C61.546 15.9511 60.9758 15.3809 60.2724 15.3809C59.569 15.3809 58.9987 15.9511 58.9987 16.6545C58.9987 17.3579 59.569 17.9281 60.2724 17.9281Z" fill="white"/>
<path d="M64.4727 17.9281C65.1761 17.9281 65.7463 17.3579 65.7463 16.6545C65.7463 15.9511 65.1761 15.3809 64.4727 15.3809C63.7693 15.3809 63.1991 15.9511 63.1991 16.6545C63.1991 17.3579 63.7693 17.9281 64.4727 17.9281Z" fill="white"/>
<path d="M255.748 100.007L256.73 111.438L259.449 143.167H260.471V100.007H255.748Z" fill="white"/>
<path d="M245.296 100.007V143.167H246.314L249.644 104.355L250.015 100.007H245.296Z" fill="white"/>
<path d="M260.471 100.007H255.748L256.73 111.438L260.471 115.179V100.007Z" fill="#CFD7DF"/>
<path d="M245.296 100.007L249.644 104.355L250.015 100.007H245.296Z" fill="#CFD7DF"/>
<path d="M248.885 75.8486C250.819 77.1823 252.288 79.088 253.085 81.2985" stroke="#92A2B1" stroke-width="0.399256"/>
<rect x="249.767" y="77.4268" width="0.399256" height="4.27204" rx="0.199628" transform="rotate(153.06 249.767 77.4268)" fill="#CFD7DF"/>
<rect x="250.427" y="74.479" width="0.399256" height="4.27204" rx="0.199628" transform="rotate(63.06 250.427 74.479)" fill="#CFD7DF"/>
<rect x="250.709" y="76.0913" width="0.399256" height="4.27204" rx="0.199628" transform="rotate(108.06 250.709 76.0913)" fill="#CFD7DF"/>
<rect x="248.155" y="77.7041" width="0.399256" height="4.27204" rx="0.199628" transform="rotate(-161.94 248.155 77.7041)" fill="#CFD7DF"/>
<path d="M248.626 76.2795C248.989 76.2795 249.284 75.9845 249.284 75.6207C249.284 75.2569 248.989 74.9619 248.626 74.9619C248.262 74.9619 247.967 75.2569 247.967 75.6207C247.967 75.9845 248.262 76.2795 248.626 76.2795Z" fill="#92A2B1"/>
<path d="M257.988 72.3311C255.036 74.3759 253.23 77.7008 253.121 81.2904" stroke="#92A2B1" stroke-width="0.399256"/>
<rect x="259.026" y="70.1084" width="0.399256" height="4.27204" rx="0.199628" transform="rotate(26.94 259.026 70.1084)" fill="#CFD7DF"/>
<rect x="260.231" y="72.9019" width="0.399256" height="4.27204" rx="0.199628" transform="rotate(116.94 260.231 72.9019)" fill="#CFD7DF"/>
<rect x="260.207" y="71.2559" width="0.399256" height="4.27204" rx="0.199628" transform="rotate(71.94 260.207 71.2559)" fill="#CFD7DF"/>
<rect x="257.38" y="70.1284" width="0.399256" height="4.27204" rx="0.199628" transform="rotate(-18.06 257.38 70.1284)" fill="#CFD7DF"/>
<path d="M258.232 72.7663C258.595 72.7663 258.89 72.4713 258.89 72.1075C258.89 71.7437 258.595 71.4487 258.232 71.4487C257.868 71.4487 257.573 71.7437 257.573 72.1075C257.573 72.4713 257.868 72.7663 258.232 72.7663Z" fill="#92A2B1"/>
<path d="M250.546 96.7176H255.712C256.004 96.7175 256.281 96.5924 256.474 96.3741C256.668 96.1557 256.758 95.8651 256.722 95.5757L255.125 82.7995C255.059 82.2916 254.627 81.9109 254.115 81.9092H252.119C251.606 81.9091 251.173 82.2907 251.109 82.7995L249.512 95.5757C249.474 95.8695 249.567 96.1651 249.766 96.3846C249.965 96.6042 250.25 96.7258 250.546 96.7176Z" fill="white"/>
<path fill-rule="evenodd" clip-rule="evenodd" d="M251.141 95.8114H255.133C255.271 95.8112 255.402 95.7522 255.494 95.6492C255.585 95.5463 255.628 95.4092 255.613 95.2724L254.475 83.2548C254.448 83.0128 254.243 82.8301 254 82.8316H252.279C252.036 82.8319 251.832 83.0137 251.804 83.2548L250.662 95.2724C250.644 95.4095 250.687 95.5473 250.779 95.6506C250.871 95.7538 251.003 95.8125 251.141 95.8114Z" stroke="#92A2B1" stroke-width="0.399256"/>
<rect x="255.86" y="81.7134" width="5.46183" height="1.00613" rx="0.503063" transform="rotate(-180 255.86 81.7134)" fill="#B1BDC7"/>
<rect x="265.949" y="100.319" width="26.1313" height="2.86666" rx="1.43333" transform="rotate(180 265.949 100.319)" fill="#92A2B1"/>
<path d="M260.471 100.007V115.183" stroke="#92A2B1" stroke-width="0.399256"/>
<path d="M259.449 143.167L257.996 126.203" stroke="#92A2B1" stroke-width="0.399256"/>
<path d="M249.644 104.355L247.771 126.175" stroke="#92A2B1" stroke-width="0.399256"/>
<path d="M241.247 98.6459H252.195" stroke="white" stroke-width="0.399256"/>
<path d="M232.895 143.706H195.656" stroke="#92A2B1" stroke-width="0.399256"/>
<path d="M50.0155 143.706H12.7729" stroke="#92A2B1" stroke-width="0.399256"/>
<rect x="251.171" y="55.9692" width="4.6713" height="24.4305" transform="rotate(169.32 251.171 55.9692)" fill="#CFD7DF"/>
<rect x="242.968" y="56.6162" width="16.8366" height="5.61354" transform="rotate(-180 242.968 56.6162)" fill="#CFD7DF"/>
<rect x="228.726" y="42.8657" width="14.2375" height="4.74716" fill="#CFD7DF"/>
<path d="M247.532 34.1377L242.018 35.1798" stroke="#92A2B1" stroke-width="0.399256"/>
<path d="M247.775 35.4233L242.261 36.4654" stroke="#92A2B1" stroke-width="0.399256"/>
<path d="M250.965 52.3359L245.447 53.378" stroke="#92A2B1" stroke-width="0.399256"/>
<path d="M251.209 53.6216L245.691 54.6636" stroke="#92A2B1" stroke-width="0.399256"/>
<rect x="252.882" y="57.1631" width="0.93426" height="26.1752" transform="rotate(-180 252.882 57.1631)" fill="#CFD7DF"/>
<rect x="224.351" y="57.1631" width="0.93426" height="26.1752" transform="rotate(-180 224.351 57.1631)" fill="#CFD7DF"/>
<rect x="242.964" y="50.3477" width="17.6352" height="2.08811" transform="rotate(-180 242.964 50.3477)" fill="#92A2B1"/>
<path fill-rule="evenodd" clip-rule="evenodd" d="M240.449 46.8584C241.322 46.8584 242.03 46.1505 242.03 45.2773C242.03 44.4042 241.322 43.6963 240.449 43.6963C239.576 43.6963 238.868 44.4042 238.868 45.2773C238.868 46.1505 239.576 46.8584 240.449 46.8584Z" stroke="white" stroke-width="0.399256"/>
<path fill-rule="evenodd" clip-rule="evenodd" d="M229.896 55.3906C230.77 55.3906 231.477 54.6828 231.477 53.8096C231.477 52.9364 230.77 52.2285 229.896 52.2285C229.023 52.2285 228.315 52.9364 228.315 53.8096C228.315 54.6828 229.023 55.3906 229.896 55.3906Z" stroke="white" stroke-width="0.399256"/>
<path d="M252.882 30.9917V44.7062V30.9917Z" fill="white"/>
<path d="M252.882 30.9917V44.7062" stroke="#92A2B1" stroke-width="0.399256"/>
<path d="M261.246 57.247H212.641" stroke="#92A2B1" stroke-width="0.399256"/>
<path d="M251.947 56.648V51.5415V56.648Z" fill="white"/>
<path d="M251.947 56.648V51.5415" stroke="#92A2B1" stroke-width="0.399256"/>
<path d="M223.42 56.648V46.4351V56.648Z" fill="white"/>
<path d="M223.42 56.648V46.4351" stroke="#92A2B1" stroke-width="0.399256"/>
<path d="M228.726 42.8656H231.98H228.726Z" fill="white"/>
<path d="M228.726 42.8656H231.98" stroke="#92A2B1" stroke-width="0.399256"/>
<path d="M239.718 51.1503H242.968H239.718Z" fill="white"/>
<path d="M239.718 51.1503H242.968" stroke="#92A2B1" stroke-width="0.399256"/>
<rect x="57.0982" y="117.547" width="26.1713" height="26.1713" fill="white"/>
<path d="M57.0984 117.547V132.595" stroke="#92A2B1" stroke-width="0.399256"/>
<rect x="83.2696" y="117.547" width="15.9064" height="26.1713" fill="#CFD7DF"/>
<path d="M60.1725 143.718H75.1287" stroke="#92A2B1" stroke-width="0.399256"/>
<path d="M78.0433 143.718H90.5161" stroke="#92A2B1" stroke-width="0.399256"/>
<path d="M99.084 122.434V133.792" stroke="#92A2B1" stroke-width="0.399256"/>
<path d="M83.2695 132.255V143.614" stroke="#92A2B1" stroke-width="0.399256"/>
<path d="M60.9111 117.407H76.3663" stroke="#92A2B1" stroke-width="0.399256"/>
<path d="M60.1328 136.775V122.094" stroke="#92A2B1" stroke-width="0.399256"/>
<path d="M71.1522 140.125H62.0292" stroke="#92A2B1" stroke-width="0.399256"/>
<path d="M92.4643 140.125H87.9008" stroke="white" stroke-width="0.399256"/>
<path d="M79.5365 128.207V136.216" stroke="#92A2B1" stroke-width="0.399256"/>
<path d="M67.6147 123.18H75.0608" stroke="#92A2B1" stroke-width="0.399256"/>
<path d="M96.477 143.718H99.1719V140.684" stroke="#92A2B1" stroke-width="0.399256"/>
<path d="M86.0883 122.657V135.925" stroke="white" stroke-width="0.399256"/>
<path d="M83.2695 117.547V126.155" stroke="white" stroke-width="0.399256"/>
<path d="M99.1761 117.547H95.2275" stroke="#92A2B1" stroke-width="0.399256"/>
<rect x="91.9455" y="124.003" width="19.7153" height="19.7153" fill="white"/>
<path d="M91.9453 124.003V135.338" stroke="#92A2B1" stroke-width="0.399256"/>
<rect x="111.661" y="124.003" width="11.9817" height="19.7153" fill="#CFD7DF"/>
<path d="M94.265 143.718H105.532" stroke="#92A2B1" stroke-width="0.399256"/>
<path d="M107.724 143.718H117.122" stroke="#92A2B1" stroke-width="0.399256"/>
<path d="M123.574 127.684V136.244" stroke="#92A2B1" stroke-width="0.399256"/>
<path d="M111.661 135.083V143.643" stroke="#92A2B1" stroke-width="0.399256"/>
<path d="M94.82 123.899H106.462" stroke="#92A2B1" stroke-width="0.399256"/>
<path d="M94.2333 138.488V127.429" stroke="#92A2B1" stroke-width="0.399256"/>
<path d="M102.534 141.011H95.6626" stroke="#92A2B1" stroke-width="0.399256"/>
<path d="M118.588 141.011H115.154" stroke="white" stroke-width="0.399256"/>
<path d="M108.85 132.036V138.065" stroke="#92A2B1" stroke-width="0.399256"/>
<path d="M99.8705 128.247H105.48" stroke="#92A2B1" stroke-width="0.399256"/>
<path d="M121.61 143.718H123.642V141.435" stroke="#92A2B1" stroke-width="0.399256"/>
<path d="M113.789 127.852V137.849" stroke="white" stroke-width="0.399256"/>
<path d="M111.661 124.003V130.487" stroke="white" stroke-width="0.399256"/>
<path d="M123.642 124.003H120.672" stroke="#92A2B1" stroke-width="0.399256"/>
<path d="M57.8969 60.2854C57.5536 60.0251 57.0855 60.0029 56.7191 60.2295C54.5439 61.4351 52.2243 62.3595 49.816 62.9804C48.065 63.4727 46.2751 63.8146 44.466 64.0025C43.9004 64.0565 43.3446 63.8279 42.9807 63.3916L36.1255 55.2428C35.3907 54.0596 34.0441 53.4007 32.659 53.5464C31.2738 53.6921 30.0939 54.6168 29.6214 55.927C29.1488 57.2372 29.4668 58.7022 30.4401 59.6985V59.6985L38.9882 69.8835C39.3382 70.3512 39.7955 70.7277 40.3217 70.9815V71.0134C45.3204 73.2932 55.697 69.3685 58.8072 68.0908C59.3842 67.8467 59.7652 67.2878 59.7814 66.6615" stroke="#131735" stroke-width="0.610862" stroke-linecap="round" stroke-linejoin="round"/>
<path d="M16.466 142.86L20.0074 141.758L20.3588 139.506L17.7436 140.209L16.466 142.86Z" fill="#34479D"/>
<path d="M24.4392 140.049L22.1196 139.506V141.702L25.2817 142.309L24.4392 140.049Z" fill="#34479D"/>
<path d="M36.3649 77.7248L36.2092 128.878C36.2317 130.14 35.7457 131.359 34.8605 132.26C33.9752 133.161 32.7651 133.669 31.502 133.669C29.0237 133.668 26.9687 131.749 26.7987 129.277L23.4569 75.8643L36.3649 77.7248Z" fill="#3E66BD"/>
<path d="M27.3697 77.7248L27.214 128.878C27.2355 130.141 26.7486 131.36 25.8627 132.261C24.9768 133.161 23.7663 133.669 22.5028 133.669C20.0245 133.67 17.9696 131.75 17.8036 129.277L14.4618 75.8643L27.3697 77.7248Z" fill="#3E66BD"/>
<path d="M29.0904 51.5576L25.3014 51.4298C21.6645 51.3119 18.4562 53.7931 17.6557 57.3428L12.669 76.7067C11.6189 81.398 13.4994 85.8537 19.9993 85.8537L33.8535 86.229C34.8854 86.2572 35.8831 85.8577 36.6104 85.1251C37.3377 84.3925 37.73 83.3919 37.6944 82.3602L36.3049 58.7522C36.3049 53.1865 33.0111 51.6893 29.0904 51.5576Z" fill="white"/>
<path fill-rule="evenodd" clip-rule="evenodd" d="M31.8048 86.2899C31.9306 85.9698 31.5285 85.5122 30.9067 85.2679C30.2848 85.0235 29.6787 85.085 29.5529 85.4052C29.4271 85.7253 29.8293 86.1829 30.4511 86.4273C31.073 86.6716 31.6791 86.6101 31.8048 86.2899Z" stroke="#131735" stroke-width="0.463137" stroke-linecap="round" stroke-linejoin="round"/>
<path fill-rule="evenodd" clip-rule="evenodd" d="M33.3588 86.4309C33.9806 86.1866 34.3828 85.7289 34.257 85.4088C34.1312 85.0886 33.5251 85.0271 32.9033 85.2715C32.2814 85.5158 31.8793 85.9734 32.0051 86.2936C32.1309 86.6137 32.737 86.6752 33.3588 86.4309Z" stroke="#131735" stroke-width="0.463137" stroke-linecap="round" stroke-linejoin="round"/>
<path d="M31.7496 86.5327C31.4571 87.0179 30.9827 87.3658 30.432 87.4989" stroke="#131735" stroke-width="0.463137" stroke-linecap="round" stroke-linejoin="round"/>
<path d="M32.013 86.5327C32.1445 87.1682 32.5411 87.7172 33.103 88.0419" stroke="#131735" stroke-width="0.463137" stroke-linecap="round" stroke-linejoin="round"/>
<path d="M29.9727 51.8089L26.1878 51.3059C22.5506 50.8188 18.8016 52.9868 17.6517 56.4723L11.0161 75.397C9.49489 79.9964 10.7965 86.0851 17.3123 86.7319L26.4992 87.8937C26.4992 87.8937 30.0007 88.2611 30.2482 83.2983L32.0928 54.7155C32.0928 54.7155 32.1647 52.1044 29.9568 51.8089" fill="#007657"/>
<path d="M29.9129 53.1865C32.1709 53.1865 34.0013 52.0389 34.0013 50.6233C34.0013 49.2077 32.1709 48.0601 29.9129 48.0601C27.655 48.0601 25.8246 49.2077 25.8246 50.6233C25.8246 52.0389 27.655 53.1865 29.9129 53.1865Z" fill="#EBEFF3"/>
<path fill-rule="evenodd" clip-rule="evenodd" d="M30.1684 51.6853C33.7207 51.6853 36.6004 48.8056 36.6004 45.2533C36.6004 41.701 33.7207 38.8213 30.1684 38.8213C26.6161 38.8213 23.7364 41.701 23.7364 45.2533C23.7364 48.8056 26.6161 51.6853 30.1684 51.6853Z" stroke="#131735" stroke-width="0.566944" stroke-linecap="round" stroke-linejoin="round"/>
<path d="M10.9282 82.0209C10.9282 82.0209 13.723 67.6277 24.0637 62.4374C24.0637 62.4374 19.077 61.4073 12.3815 73.3251C12.3815 73.3251 11.583 75.1537 10.3852 78.787C10.3852 78.787 10.529 81.0827 10.9282 82.0209Z" fill="#131735"/>
<path d="M21.9757 52.3242C21.9757 52.3242 3.74171 55.7778 1.05072 80.3081" stroke="#131735" stroke-width="0.566944" stroke-linecap="round" stroke-linejoin="round"/>
<path d="M22.906 62.4375C22.906 62.4375 13.4876 64.5176 9.63077 81.7415" stroke="#131735" stroke-width="0.566944" stroke-linecap="round" stroke-linejoin="round"/>
<path d="M1.05072 80.3081L9.14764 82.7595" stroke="#131735" stroke-width="0.566944" stroke-linecap="round" stroke-linejoin="round"/>
<path d="M1.52981 81.5337C1.52981 81.5337 -0.46647 86.9556 3.74568 88.888" stroke="#131735" stroke-width="0.566944" stroke-linecap="round" stroke-linejoin="round"/>
<path d="M8.30106 83.8096C8.30106 83.8096 7.76606 89.5629 6.54434 89.5629C5.43041 89.5629 5.64202 86.2251 5.64202 86.2251" stroke="#131735" stroke-width="0.566944" stroke-linecap="round" stroke-linejoin="round"/>
<path d="M15.0727 79.1066L22.3232 76.9785" stroke="#131735" stroke-width="0.566944" stroke-linecap="round" stroke-linejoin="round"/>
<path d="M15.1165 86.3608C15.1165 86.3608 20.0154 87.2631 26.5312 88.0097C26.5312 88.0097 28.1762 88.4529 29.4817 86.229C29.611 87.1545 29.455 88.0974 29.0346 88.932C28.5026 89.9847 27.4192 90.644 26.2398 90.6328C24.6867 90.6328 21.1293 90.4292 15.2802 89.1156L15.1165 86.3608Z" fill="#131735"/>
<path d="M30.4319 93.875L26.9104 132.703" stroke="white" stroke-width="0.399256" stroke-linecap="round" stroke-linejoin="round"/>
<path fill-rule="evenodd" clip-rule="evenodd" d="M21.6003 139.015C22.7623 139.015 23.7044 138.264 23.7044 137.338C23.7044 136.412 22.7623 135.661 21.6003 135.661C20.4382 135.661 19.4962 136.412 19.4962 137.338C19.4962 138.264 20.4382 139.015 21.6003 139.015Z" stroke="#131735" stroke-width="0.479108" stroke-linecap="round" stroke-linejoin="round"/>
<path d="M19.5043 137.182C19.5043 137.182 17.4322 141.686 16.0308 143.514C15.7277 143.895 15.5845 144.379 15.6315 144.864C15.7274 145.662 16.4301 146.609 19.133 146.609H24.5829C24.5829 146.609 27.5094 146.477 26.0442 143.814C24.5789 141.151 24.1876 140.368 23.7005 137.502" stroke="#131735" stroke-width="0.566944" stroke-linecap="round" stroke-linejoin="round"/>
<path d="M23.1814 52.2681C23.1814 52.2681 26.7747 52.2681 27.142 56.2327C27.5094 60.1973 24.6227 61.6386 24.6227 61.6386" stroke="#131735" stroke-width="0.566944" stroke-linecap="round" stroke-linejoin="round"/>
<path d="M39.1516 137.123L35.1551 142.489H39.3074L41.6949 139.151L39.1516 137.123Z" fill="#34479D"/>
<path fill-rule="evenodd" clip-rule="evenodd" d="M31.1427 144.365H45.6037C45.6037 144.365 47.0371 144.365 47.8635 143.81C48.149 143.617 48.2701 143.257 48.159 142.932C47.9554 142.377 47.2527 141.498 44.945 140.808C41.4714 139.769 39.9064 137.162 36.5606 135.418C36.3703 135.32 36.146 135.313 35.9505 135.4C35.755 135.487 35.6094 135.658 35.5545 135.865C35.3983 136.505 35.0632 137.088 34.5883 137.546C33.822 138.212 32.7733 138.452 31.7935 138.184C31.1147 138.009 30.1964 137.701 29.8291 137.25C29.8291 137.25 28.847 136.452 29.338 138.939C29.338 138.939 29.8411 142.077 29.1983 142.84C29.2023 142.84 27.8808 144.365 31.1427 144.365Z" stroke="#131735" stroke-width="0.566944" stroke-linecap="round" stroke-linejoin="round"/>
<path d="M29.2023 142.84H46.3903C46.3903 142.84 47.7079 143.087 47.113 141.758" stroke="#131735" stroke-width="0.566944" stroke-linecap="round" stroke-linejoin="round"/>
<path d="M38.1057 60.1775C37.7343 54.8953 35.255 52.903 33.1269 52.1724C32.9262 52.3159 32.7183 52.4491 32.5041 52.5716C35.2071 54.1686 35.6422 57.6302 35.6422 57.6302L37.5267 79.4975C38.0458 84.4802 36.2451 85.4424 36.2451 85.4424L36.337 87.3988C40.2537 87.3988 40.1778 84.6599 40.1778 84.6599C40.7208 82.6915 38.1057 60.1775 38.1057 60.1775Z" fill="#007657"/>
<path d="M24.3832 49.9487C25.424 49.9487 26.2677 49.105 26.2677 48.0642C26.2677 47.0234 25.424 46.1797 24.3832 46.1797C23.3425 46.1797 22.4987 47.0234 22.4987 48.0642C22.4987 49.105 23.3425 49.9487 24.3832 49.9487Z" fill="#131735"/>
<path d="M23.8563 46.7026C24.897 46.7026 25.7408 45.8589 25.7408 44.8181C25.7408 43.7773 24.897 42.9336 23.8563 42.9336C22.8155 42.9336 21.9718 43.7773 21.9718 44.8181C21.9718 45.8589 22.8155 46.7026 23.8563 46.7026Z" fill="#131735"/>
<path d="M22.5028 48.0639C23.5436 48.0639 24.3873 47.2202 24.3873 46.1794C24.3873 45.1386 23.5436 44.2949 22.5028 44.2949C21.462 44.2949 20.6183 45.1386 20.6183 46.1794C20.6183 47.2202 21.462 48.0639 22.5028 48.0639Z" fill="#131735"/>
<path d="M21.5245 46.1791C22.5653 46.1791 23.409 45.3354 23.409 44.2946C23.409 43.2539 22.5653 42.4102 21.5245 42.4102C20.4838 42.4102 19.64 43.2539 19.64 44.2946C19.64 45.3354 20.4838 46.1791 21.5245 46.1791Z" fill="#131735"/>
<path d="M21.9758 43.664C23.0166 43.664 23.8603 42.8203 23.8603 41.7795C23.8603 40.7387 23.0166 39.895 21.9758 39.895C20.935 39.895 20.0913 40.7387 20.0913 41.7795C20.0913 42.8203 20.935 43.664 21.9758 43.664Z" fill="#131735"/>
<path d="M23.0857 41.3046C24.1265 41.3046 24.9702 40.4609 24.9702 39.4201C24.9702 38.3794 24.1265 37.5356 23.0857 37.5356C22.0449 37.5356 21.2012 38.3794 21.2012 39.4201C21.2012 40.4609 22.0449 41.3046 23.0857 41.3046Z" fill="#131735"/>
<path d="M24.7545 39.4238C25.7953 39.4238 26.639 38.5801 26.639 37.5393C26.639 36.4985 25.7953 35.6548 24.7545 35.6548C23.7138 35.6548 22.8701 36.4985 22.8701 37.5393C22.8701 38.5801 23.7138 39.4238 24.7545 39.4238Z" fill="#131735"/>
<path d="M27.1742 37.8349C28.2149 37.8349 29.0587 36.9912 29.0587 35.9504C29.0587 34.9096 28.2149 34.0659 27.1742 34.0659C26.1334 34.0659 25.2897 34.9096 25.2897 35.9504C25.2897 36.9912 26.1334 37.8349 27.1742 37.8349Z" fill="#131735"/>
<path d="M29.5895 37.352C30.6303 37.352 31.474 36.5083 31.474 35.4675C31.474 34.4267 30.6303 33.583 29.5895 33.583C28.5487 33.583 27.705 34.4267 27.705 35.4675C27.705 36.5083 28.5487 37.352 29.5895 37.352Z" fill="#131735"/>
<path d="M31.7935 37.8349C32.8343 37.8349 33.678 36.9912 33.678 35.9504C33.678 34.9096 32.8343 34.0659 31.7935 34.0659C30.7527 34.0659 29.909 34.9096 29.909 35.9504C29.909 36.9912 30.7527 37.8349 31.7935 37.8349Z" fill="#131735"/>
<path d="M33.6779 39.0048C34.7187 39.0048 35.5624 38.1611 35.5624 37.1203C35.5624 36.0796 34.7187 35.2358 33.6779 35.2358C32.6371 35.2358 31.7934 36.0796 31.7934 37.1203C31.7934 38.1611 32.6371 39.0048 33.6779 39.0048Z" fill="#131735"/>
<path d="M23.8563 44.4506C24.897 44.4506 25.7408 43.6069 25.7408 42.5661C25.7408 41.5254 24.897 40.6816 23.8563 40.6816C22.8155 40.6816 21.9718 41.5254 21.9718 42.5661C21.9718 43.6069 22.8155 44.4506 23.8563 44.4506Z" fill="#131735"/>
<path d="M26.2677 44.8217C27.3084 44.8217 28.1522 43.978 28.1522 42.9372C28.1522 41.8964 27.3084 41.0527 26.2677 41.0527C25.2269 41.0527 24.3832 41.8964 24.3832 42.9372C24.3832 43.978 25.2269 44.8217 26.2677 44.8217Z" fill="#131735"/>
<path d="M25.2937 46.894C26.3344 46.894 27.1782 46.0503 27.1782 45.0095C27.1782 43.9687 26.3344 43.125 25.2937 43.125C24.2529 43.125 23.4092 43.9687 23.4092 45.0095C23.4092 46.0503 24.2529 46.894 25.2937 46.894Z" fill="#131735"/>
<path d="M28.735 43.664C29.7758 43.664 30.6195 42.8203 30.6195 41.7795C30.6195 40.7387 29.7758 39.895 28.735 39.895C27.6942 39.895 26.8505 40.7387 26.8505 41.7795C26.8505 42.8203 27.6942 43.664 28.735 43.664Z" fill="#131735"/>
<path d="M26.8546 42.5659C27.8953 42.5659 28.739 41.7221 28.739 40.6814C28.739 39.6406 27.8953 38.7969 26.8546 38.7969C25.8138 38.7969 24.9701 39.6406 24.9701 40.6814C24.9701 41.7221 25.8138 42.5659 26.8546 42.5659Z" fill="#131735"/>
<path d="M27.1742 39.7153C28.2149 39.7153 29.0587 38.8716 29.0587 37.8308C29.0587 36.79 28.2149 35.9463 27.1742 35.9463C26.1334 35.9463 25.2897 36.79 25.2897 37.8308C25.2897 38.8716 26.1334 39.7153 27.1742 39.7153Z" fill="#131735"/>
<path d="M30.6197 39.2324C31.6605 39.2324 32.5042 38.3886 32.5042 37.3479C32.5042 36.3071 31.6605 35.4634 30.6197 35.4634C29.5789 35.4634 28.7352 36.3071 28.7352 37.3479C28.7352 38.3886 29.5789 39.2324 30.6197 39.2324Z" fill="#131735"/>
<path d="M32.5041 40.6855C33.5449 40.6855 34.3886 39.8418 34.3886 38.801C34.3886 37.7602 33.5449 36.9165 32.5041 36.9165C31.4634 36.9165 30.6197 37.7602 30.6197 38.801C30.6197 39.8418 31.4634 40.6855 32.5041 40.6855Z" fill="#131735"/>
<path d="M33.5222 42.4023C34.563 42.4023 35.4067 41.5586 35.4067 40.5178C35.4067 39.477 34.563 38.6333 33.5222 38.6333C32.4815 38.6333 31.6378 39.477 31.6378 40.5178C31.6378 41.5586 32.4815 42.4023 33.5222 42.4023Z" fill="#131735"/>
<path d="M34.3886 43.4804C35.4294 43.4804 36.2731 42.6367 36.2731 41.5959C36.2731 40.5551 35.4294 39.7114 34.3886 39.7114C33.3478 39.7114 32.5041 40.5551 32.5041 41.5959C32.5041 42.6367 33.3478 43.4804 34.3886 43.4804Z" fill="#131735"/>
<path d="M35.8819 43.664C36.9227 43.664 37.7664 42.8203 37.7664 41.7795C37.7664 40.7387 36.9227 39.895 35.8819 39.895C34.8412 39.895 33.9974 40.7387 33.9974 41.7795C33.9974 42.8203 34.8412 43.664 35.8819 43.664Z" fill="#131735"/>
<path d="M35.4027 40.2983C36.4435 40.2983 37.2872 39.4546 37.2872 38.4138C37.2872 37.373 36.4435 36.5293 35.4027 36.5293C34.3619 36.5293 33.5182 37.373 33.5182 38.4138C33.5182 39.4546 34.3619 40.2983 35.4027 40.2983Z" fill="#131735"/>
<path d="M37.1436 41.7075C38.1844 41.7075 39.0281 40.8637 39.0281 39.823C39.0281 38.7822 38.1844 37.9385 37.1436 37.9385C36.1028 37.9385 35.2591 38.7822 35.2591 39.823C35.2591 40.8637 36.1028 41.7075 37.1436 41.7075Z" fill="#131735"/>
<path d="M37.2871 43.8437C38.3279 43.8437 39.1716 43 39.1716 41.9592C39.1716 40.9184 38.3279 40.0747 37.2871 40.0747C36.2463 40.0747 35.4026 40.9184 35.4026 41.9592C35.4026 43 36.2463 43.8437 37.2871 43.8437Z" fill="#131735"/>
<path d="M36.0574 42.686C35.8999 42.6886 35.7427 42.6993 35.5863 42.718C36.1631 43.4373 36.5145 44.311 36.5964 45.2293C36.6147 45.5405 36.5864 45.8527 36.5126 46.1556C37.8142 46.0198 38.8083 45.3052 38.8083 44.4348C38.8083 43.4606 37.5786 42.686 36.0574 42.686Z" fill="#131735"/>
<path d="M37.1436 40.2983C38.1844 40.2983 39.0281 39.4546 39.0281 38.4138C39.0281 37.373 38.1844 36.5293 37.1436 36.5293C36.1028 36.5293 35.2591 37.373 35.2591 38.4138C35.2591 39.4546 36.1028 40.2983 37.1436 40.2983Z" fill="#131735"/>
<path d="M35.2589 38.8012C36.2997 38.8012 37.1434 37.9575 37.1434 36.9167C37.1434 35.8759 36.2997 35.0322 35.2589 35.0322C34.2181 35.0322 33.3744 35.8759 33.3744 36.9167C33.3744 37.9575 34.2181 38.8012 35.2589 38.8012Z" fill="#131735"/>
<path d="M33.5222 36.5331C34.563 36.5331 35.4067 35.6894 35.4067 34.6487C35.4067 33.6079 34.563 32.7642 33.5222 32.7642C32.4815 32.7642 31.6378 33.6079 31.6378 34.6487C31.6378 35.6894 32.4815 36.5331 33.5222 36.5331Z" fill="#131735"/>
<path d="M30.943 35.6552C31.9838 35.6552 32.8275 34.8115 32.8275 33.7707C32.8275 32.7299 31.9838 31.8862 30.943 31.8862C29.9022 31.8862 29.0585 32.7299 29.0585 33.7707C29.0585 34.8115 29.9022 35.6552 30.943 35.6552Z" fill="#131735"/>
<path d="M28.1521 36.3339C29.1928 36.3339 30.0366 35.4902 30.0366 34.4494C30.0366 33.4087 29.1928 32.5649 28.1521 32.5649C27.1113 32.5649 26.2676 33.4087 26.2676 34.4494C26.2676 35.4902 27.1113 36.3339 28.1521 36.3339Z" fill="#131735"/>
<path d="M24.7545 36.7368C25.7953 36.7368 26.639 35.893 26.639 34.8523C26.639 33.8115 25.7953 32.9678 24.7545 32.9678C23.7138 32.9678 22.8701 33.8115 22.8701 34.8523C22.8701 35.893 23.7138 36.7368 24.7545 36.7368Z" fill="#131735"/>
<path d="M22.8701 38.8012C23.9109 38.8012 24.7546 37.9575 24.7546 36.9167C24.7546 35.8759 23.9109 35.0322 22.8701 35.0322C21.8293 35.0322 20.9856 35.8759 20.9856 36.9167C20.9856 37.9575 21.8293 38.8012 22.8701 38.8012Z" fill="#131735"/>
<path d="M21.2731 40.8891C22.3138 40.8891 23.1576 40.0454 23.1576 39.0046C23.1576 37.9638 22.3138 37.1201 21.2731 37.1201C20.2323 37.1201 19.3886 37.9638 19.3886 39.0046C19.3886 40.0454 20.2323 40.8891 21.2731 40.8891Z" fill="#131735"/>
<path d="M19.9117 43.4326C20.9525 43.4326 21.7962 42.5888 21.7962 41.5481C21.7962 40.5073 20.9525 39.6636 19.9117 39.6636C18.8709 39.6636 18.0272 40.5073 18.0272 41.5481C18.0272 42.5888 18.8709 43.4326 19.9117 43.4326Z" fill="#131735"/>
<path d="M19.6441 46.3349C20.6848 46.3349 21.5286 45.4912 21.5286 44.4504C21.5286 43.4096 20.6848 42.5659 19.6441 42.5659C18.6033 42.5659 17.7596 43.4096 17.7596 44.4504C17.7596 45.4912 18.6033 46.3349 19.6441 46.3349Z" fill="#131735"/>
<path d="M21.2731 49.018C22.3138 49.018 23.1576 48.1743 23.1576 47.1335C23.1576 46.0927 22.3138 45.249 21.2731 45.249C20.2323 45.249 19.3886 46.0927 19.3886 47.1335C19.3886 48.1743 20.2323 49.018 21.2731 49.018Z" fill="#131735"/>
<path d="M22.7984 50.1C23.8391 50.1 24.6829 49.2563 24.6829 48.2155C24.6829 47.1748 23.8391 46.3311 22.7984 46.3311C21.7576 46.3311 20.9139 47.1748 20.9139 48.2155C20.9139 49.2563 21.7576 50.1 22.7984 50.1Z" fill="#131735"/>
<path d="M24.3832 41.6C25.424 41.6 26.2677 40.7563 26.2677 39.7155C26.2677 38.6748 25.424 37.8311 24.3832 37.8311C23.3425 37.8311 22.4987 38.6748 22.4987 39.7155C22.4987 40.7563 23.3425 41.6 24.3832 41.6Z" fill="#131735"/>
<path d="M25.8246 41.3046C26.8654 41.3046 27.7091 40.4609 27.7091 39.4201C27.7091 38.3794 26.8654 37.5356 25.8246 37.5356C24.7838 37.5356 23.9401 38.3794 23.9401 39.4201C23.9401 40.4609 24.7838 41.3046 25.8246 41.3046Z" fill="#131735"/>
<path d="M24.3832 43.0414C25.424 43.0414 26.2677 42.1977 26.2677 41.157C26.2677 40.1162 25.424 39.2725 24.3832 39.2725C23.3425 39.2725 22.4987 40.1162 22.4987 41.157C22.4987 42.1977 23.3425 43.0414 24.3832 43.0414Z" fill="#131735"/>
<path d="M28.2482 41.7797C29.2889 41.7797 30.1327 40.936 30.1327 39.8952C30.1327 38.8545 29.2889 38.0107 28.2482 38.0107C27.2074 38.0107 26.3637 38.8545 26.3637 39.8952C26.3637 40.936 27.2074 41.7797 28.2482 41.7797Z" fill="#131735"/>
<path d="M30.6197 41.7797C31.6605 41.7797 32.5042 40.936 32.5042 39.8952C32.5042 38.8545 31.6605 38.0107 30.6197 38.0107C29.5789 38.0107 28.7352 38.8545 28.7352 39.8952C28.7352 40.936 29.5789 41.7797 30.6197 41.7797Z" fill="#131735"/>
<path d="M32.1089 43.0414C33.1496 43.0414 33.9933 42.1977 33.9933 41.157C33.9933 40.1162 33.1496 39.2725 32.1089 39.2725C31.0681 39.2725 30.2244 40.1162 30.2244 41.157C30.2244 42.1977 31.0681 43.0414 32.1089 43.0414Z" fill="#131735"/>
<path d="M30.0328 46.0476C30.375 45.7747 30.8604 45.7747 31.2026 46.0476" stroke="#131735" stroke-width="0.566944" stroke-linecap="round" stroke-linejoin="round"/>
<path d="M32.6038 46.0479C32.9442 45.7742 33.4292 45.7742 33.7696 46.0479" stroke="#131735" stroke-width="0.566944" stroke-linecap="round" stroke-linejoin="round"/>
<path d="M20.4786 138.871C20.2252 140.001 20.0729 141.152 20.0234 142.309C20.0234 142.309 19.8078 143.131 20.9138 143.131C22.0197 143.131 22.1115 142.309 22.1115 142.309V139.015" stroke="#131735" stroke-width="0.566944" stroke-linecap="round" stroke-linejoin="round"/>
<path d="M16.5697 146.142C16.5697 146.142 18.9652 145.742 20.0073 144.828C20.5902 144.267 21.5125 144.267 22.0954 144.828C22.5271 145.196 23.0223 145.481 23.5567 145.671C24.3264 145.932 25.1449 146.018 25.9522 145.922" stroke="#131735" stroke-width="0.566944" stroke-linecap="round" stroke-linejoin="round"/>
<path d="M57.1542 61.3072C57.1542 61.3072 60.5678 60.2571 59.0746 56.7357C59.0746 56.7357 59.1824 55.2185 60.6716 56.2965C61.5357 56.8779 62.0802 57.8282 62.1449 58.8677C62.1449 58.8677 64.6642 58.4685 65.4946 59.4107C68.7526 63.0918 65.7262 65.3317 65.7262 65.3317C64.6413 66.1739 63.1588 66.2885 61.9572 65.6231C60.4081 64.4773 60.3602 62.5848 60.5718 61.2593C60.6996 60.4328 62.2207 60.1693 63.0232 60.1134" stroke="#131735" stroke-width="0.650788" stroke-linecap="round" stroke-linejoin="round"/>
<path d="M58.4797 66.1143L59.7613 65.6152" stroke="#131735" stroke-width="0.610862" stroke-linecap="round" stroke-linejoin="round"/>
<path d="M56.9028 61.0518C56.9028 61.0518 55.8568 64.693 58.7514 66.4896" stroke="#131735" stroke-width="0.610862" stroke-linecap="round" stroke-linejoin="round"/>
<defs>
<clipPath id="clip0_1497_51183">
<rect width="105.179" height="56.049" fill="white" transform="translate(74.5371 38.6201)"/>
</clipPath>
</defs>
</svg>
