<svg width="271" height="150" viewBox="0 0 271 150" fill="none" xmlns="http://www.w3.org/2000/svg">
<path d="M13.1282 98.5836C16.0607 90.4199 24.937 84.8324 33.5657 85.7136C39.5095 86.3249 45.2395 89.6324 51.1232 88.6086C57.3595 87.5249 61.8595 81.6974 63.5432 75.5961C65.227 69.4949 64.7132 63.0411 64.612 56.7149C64.5107 50.3886 64.927 43.7474 68.1895 38.3399C72.2245 31.6386 80.602 27.8586 88.2933 29.2686C107.681 32.8199 96.8882 58.6161 110.625 67.4474C128.25 78.7911 139.62 52.8224 142.597 40.3649C144.405 32.8349 146.036 25.0836 150.277 18.5849C156.03 9.74238 172.301 2.30613 179.388 14.0849C184.83 23.1411 177.423 33.3074 177.611 42.7049C177.851 53.6961 187.5 58.4549 197.651 56.0174C204.183 54.4536 209.992 50.7674 216.315 48.4949C223.02 46.0949 231.93 46.0611 235.71 52.0949C238.71 56.8461 236.962 63.2099 233.883 67.8974C230.805 72.5849 226.507 76.4324 223.837 81.3599C221.167 86.2874 220.593 93.1161 224.67 96.9674C231.99 103.882 245.418 95.0061 253.698 100.717C259.987 105.067 258.825 115.024 254.493 121.342C247.173 131.974 233.733 137.036 220.833 137.434C207.933 137.831 195.277 134.239 182.823 130.834C170.37 127.429 157.612 124.084 144.742 125.04C126.015 126.412 107.992 136.721 89.4445 133.849C77.3545 131.974 66.772 124.695 54.9445 121.631C49.2857 120.165 44.212 105.709 38.392 106.256C33.7307 106.684 26.4895 117.791 21.7795 116.756C12.5095 114.679 10.3495 106.335 13.1282 98.5836Z" fill="#EBEFF3"/>
<rect x="82" y="29" width="124.463" height="81.555" rx="2.265" fill="white" stroke="#273139" stroke-width="0.375"/>
<path d="M118.635 87.1548H124.37V90.0248C124.37 91.6098 123.085 92.8948 121.5 92.8948C119.915 92.8948 118.63 91.6098 118.63 90.0248V87.1548H118.635Z" fill="#264966"/>
<path d="M121.215 92.6799C122.999 92.5316 124.371 91.04 124.37 89.2499V71.0249C124.37 69.045 125.975 67.4399 127.955 67.4399H150.9C152.881 67.4399 154.487 69.0442 154.49 71.0249V88.1449C154.49 90.6496 152.46 92.6799 149.955 92.6799H121.215Z" fill="white" stroke="#576C7D" stroke-width="0.5" stroke-linecap="round" stroke-linejoin="round"/>
<path d="M128.1 67.3652C129.884 67.5135 131.256 69.0052 131.255 70.7952V81.5652C131.255 83.5452 132.86 85.1502 134.84 85.1502C136.82 85.1502 138.425 83.5452 138.425 81.5652V67.3652H128.1Z" fill="#264966"/>
<path d="M134.985 47C136.727 47 138.14 48.4125 138.14 50.155V53.31H131.83V50.155C131.83 49.3182 132.162 48.5158 132.754 47.9241C133.346 47.3324 134.148 47 134.985 47V47Z" fill="#264966"/>
<path d="M167.33 70.965L167.365 80.1C167.374 81.3601 166.88 82.5717 165.992 83.4655C165.103 84.3593 163.895 84.8614 162.635 84.86H139.86L134.695 84.91C136.54 84.91 138.14 83.715 138.14 81.41V50.575C138.14 48.725 136.42 47 135.27 47L136.42 47.055H161.25C162.875 47.0646 164.427 47.733 165.55 48.9072C166.673 50.0815 167.272 51.6612 167.21 53.285L167.28 66.215" fill="white"/>
<path d="M167.33 70.965L167.365 80.1C167.374 81.3601 166.88 82.5717 165.992 83.4655C165.103 84.3593 163.895 84.8614 162.635 84.86H139.86L134.695 84.91C136.54 84.91 138.14 83.715 138.14 81.41V50.575C138.14 48.725 136.42 47 135.27 47L136.42 47.055H161.25C162.875 47.0646 164.427 47.733 165.55 48.9072C166.673 50.0815 167.272 51.6612 167.21 53.285L167.28 66.215" stroke="#576C7D" stroke-width="0.5" stroke-linecap="round" stroke-linejoin="round"/>
<path d="M143.015 53.6001H148.18" stroke="#7B8E9F" stroke-width="0.5" stroke-linecap="round" stroke-linejoin="round"/>
<path d="M143.015 55.895H148.18" stroke="#7B8E9F" stroke-width="0.5" stroke-linecap="round" stroke-linejoin="round"/>
<path d="M143.59 69.6602H163.09" stroke="#576C7D" stroke-width="0.5" stroke-linecap="round" stroke-linejoin="round"/>
<path d="M143.59 73.105H163.09" stroke="#576C7D" stroke-width="0.5" stroke-linecap="round" stroke-linejoin="round"/>
<path d="M157.93 75.9702H163.09" stroke="#7B8E9F" stroke-width="0.5" stroke-linecap="round" stroke-linejoin="round"/>
<path d="M157.93 78.2651H163.09" stroke="#7B8E9F" stroke-width="0.5" stroke-linecap="round" stroke-linejoin="round"/>
<path d="M129.82 88.5898H149.325" stroke="#576C7D" stroke-width="0.5" stroke-linecap="round" stroke-linejoin="round"/>
<path fill-rule="evenodd" clip-rule="evenodd" d="M158.505 66.7949C162.307 66.7949 165.39 63.7124 165.39 59.9099C165.39 56.1074 162.307 53.0249 158.505 53.0249C154.703 53.0249 151.62 56.1074 151.62 59.9099C151.62 63.7124 154.703 66.7949 158.505 66.7949Z" stroke="#576C7D" stroke-width="0.575" stroke-linecap="round" stroke-linejoin="round"/>
<path d="M163.665 64.5L171.695 72.53" stroke="#576C7D" stroke-width="0.575" stroke-linecap="round" stroke-linejoin="round"/>
<path d="M167.97 68.7998L171.695 72.5298" stroke="#576C7D" stroke-width="2.295" stroke-linecap="round" stroke-linejoin="round"/>
<path d="M158.505 65.0751C161.358 65.0751 163.67 62.7627 163.67 59.9101C163.67 57.0576 161.358 54.7451 158.505 54.7451C155.652 54.7451 153.34 57.0576 153.34 59.9101C153.34 62.7627 155.652 65.0751 158.505 65.0751Z" fill="#EBEFF3"/>
<path d="M116 58.2148H136.5" stroke="#576C7D" stroke-width="0.5" stroke-linecap="round"/>
<path d="M160 90.25H180.5" stroke="#576C7D" stroke-width="0.5" stroke-linecap="round"/>
<path d="M84.007 29.2837H203.936C205.178 29.2837 206.186 30.2911 206.186 31.5337V39.7424H81.742V31.5487C81.742 30.3061 82.7493 29.2987 83.992 29.2987L84.007 29.2837Z" fill="#273139" stroke="#273139" stroke-width="0.375"/>
<path d="M85.8032 35.7076C86.379 35.7076 86.8457 35.2408 86.8457 34.6651C86.8457 34.0893 86.379 33.6226 85.8032 33.6226C85.2275 33.6226 84.7607 34.0893 84.7607 34.6651C84.7607 35.2408 85.2275 35.7076 85.8032 35.7076Z" fill="white"/>
<path d="M89.2345 35.7076C89.8103 35.7076 90.277 35.2408 90.277 34.6651C90.277 34.0893 89.8103 33.6226 89.2345 33.6226C88.6588 33.6226 88.192 34.0893 88.192 34.6651C88.192 35.2408 88.6588 35.7076 89.2345 35.7076Z" fill="white"/>
<path d="M92.6657 35.7076C93.2415 35.7076 93.7082 35.2408 93.7082 34.6651C93.7082 34.0893 93.2415 33.6226 92.6657 33.6226C92.09 33.6226 91.6232 34.0893 91.6232 34.6651C91.6232 35.2408 92.09 35.7076 92.6657 35.7076Z" fill="white"/>
<rect x="223.278" y="91.9424" width="10.4213" height="4.62375" fill="white" stroke="#B1BDC7" stroke-width="0.375"/>
<rect x="223.278" y="91.9424" width="10.4213" height="1.65375" fill="#CFD7DF"/>
<path d="M252.086 83.3472V88.9197C252.086 90.5765 250.743 91.9197 249.086 91.9197H207.693C206.036 91.9197 204.693 90.5765 204.693 88.9197V83.3472H252.086Z" fill="white" stroke="#B1BDC7" stroke-width="0.375"/>
<path fill-rule="evenodd" clip-rule="evenodd" d="M228.386 89.7825C229.568 89.7825 230.527 88.8238 230.527 87.6413C230.527 86.4587 229.568 85.5 228.386 85.5C227.203 85.5 226.245 86.4587 226.245 87.6413C226.245 88.8238 227.203 89.7825 228.386 89.7825Z" stroke="#B1BDC7" stroke-width="0.375"/>
<path d="M252.086 61.8335V83.3397H204.682V61.8335C204.682 60.1766 206.025 58.8335 207.682 58.8335H249.075C250.731 58.8335 252.075 60.1766 252.075 61.8335H252.086Z" fill="white" stroke="#B1BDC7" stroke-width="0.375"/>
<path d="M221.081 96.5698H235.897" stroke="#B1BDC7" stroke-width="0.375"/>
<rect x="208.867" y="99.791" width="39.0338" height="36.96" fill="white" stroke="#B1BDC7" stroke-width="0.375"/>
<path d="M213.532 117.502H235.173" stroke="#92A2B1" stroke-width="0.375"/>
<path d="M222.187 126.896H243.828" stroke="#92A2B1" stroke-width="0.375"/>
<path d="M223.068 108.33H244.71" stroke="#92A2B1" stroke-width="0.375"/>
<path d="M251.778 139.263H204.993L208.867 136.751H247.901L251.778 139.263Z" fill="#CFD7DF" stroke="#92A2B1" stroke-width="0.375"/>
<rect x="204.993" y="96.686" width="46.785" height="6.5625" fill="#CFD7DF" stroke="#92A2B1" stroke-width="0.375"/>
<rect x="121.034" y="114.877" width="24.5813" height="24.5813" fill="white"/>
<path d="M145.616 114.877V129.011" stroke="#92A2B1" stroke-width="0.375"/>
<rect x="106.095" y="114.877" width="14.94" height="24.5813" fill="#CFD7DF"/>
<path d="M137.032 139.458H149.812" stroke="#92A2B1" stroke-width="0.375"/>
<path d="M15.6032 139.458H55.9157" stroke="#92A2B1" stroke-width="0.375"/>
<path d="M125.943 139.458H114.225" stroke="#92A2B1" stroke-width="0.375"/>
<path d="M106.181 119.471V130.14" stroke="#92A2B1" stroke-width="0.375"/>
<path d="M121.034 128.692V139.361" stroke="#92A2B1" stroke-width="0.375"/>
<path d="M142.034 114.746H127.518" stroke="#92A2B1" stroke-width="0.375"/>
<path d="M142.766 132.937V119.148" stroke="#92A2B1" stroke-width="0.375"/>
<path d="M132.416 136.083H140.985" stroke="#92A2B1" stroke-width="0.375"/>
<path d="M112.395 136.083H116.681" stroke="white" stroke-width="0.375"/>
<path d="M124.541 124.89V132.412" stroke="#92A2B1" stroke-width="0.375"/>
<path d="M135.738 120.168H128.741" stroke="#92A2B1" stroke-width="0.375"/>
<path d="M108.63 139.458H106.095V136.608" stroke="#92A2B1" stroke-width="0.375"/>
<path d="M118.383 119.677V132.138" stroke="white" stroke-width="0.375"/>
<path d="M121.034 114.877V122.962" stroke="white" stroke-width="0.375"/>
<path d="M106.095 114.877H109.8" stroke="#92A2B1" stroke-width="0.375"/>
<path d="M103.278 139.458H99.967" stroke="#92A2B1" stroke-width="0.375"/>
<rect x="54.157" y="124.519" width="14.94" height="14.94" fill="white"/>
<path d="M69.097 124.519V133.11" stroke="#92A2B1" stroke-width="0.375"/>
<rect x="45.0782" y="124.519" width="9.07875" height="14.94" fill="#CFD7DF"/>
<path d="M67.342 139.458H58.8032" stroke="#92A2B1" stroke-width="0.375"/>
<path d="M57.142 139.458H50.0208" stroke="#92A2B1" stroke-width="0.375"/>
<path d="M45.1307 127.309V133.792" stroke="#92A2B1" stroke-width="0.375"/>
<path d="M54.157 132.915V139.399" stroke="#92A2B1" stroke-width="0.375"/>
<path d="M66.922 124.44H58.0983" stroke="#92A2B1" stroke-width="0.375"/>
<path d="M67.3645 135.495V127.114" stroke="#92A2B1" stroke-width="0.375"/>
<path d="M61.0758 137.407H66.2845" stroke="#92A2B1" stroke-width="0.375"/>
<path d="M48.907 137.407H51.5133" stroke="white" stroke-width="0.375"/>
<path d="M56.287 130.605V135.176" stroke="#92A2B1" stroke-width="0.375"/>
<path d="M63.0933 127.736H58.8408" stroke="#92A2B1" stroke-width="0.375"/>
<path d="M46.6194 139.459H45.0782V137.726" stroke="#92A2B1" stroke-width="0.375"/>
<path d="M52.5483 127.436V135.011" stroke="white" stroke-width="0.375"/>
<path d="M54.157 124.519V129.435" stroke="white" stroke-width="0.375"/>
<path d="M45.0782 124.519H47.3319" stroke="#92A2B1" stroke-width="0.375"/>
<path d="M172.736 138.874H176.962C179.591 138.874 181.722 136.744 181.725 134.115C181.724 133.684 181.665 133.255 181.548 132.84L178.571 122.123H171.127L168.15 132.84C167.449 135.375 168.935 137.998 171.468 138.701C171.881 138.815 172.307 138.873 172.736 138.874Z" fill="white"/>
<path d="M179.846 121.886H169.848C169.296 121.884 168.849 121.437 168.847 120.885C168.849 120.333 169.297 119.887 169.848 119.887H179.846C180.111 119.886 180.366 119.991 180.554 120.178C180.741 120.365 180.847 120.62 180.847 120.885C180.847 121.15 180.741 121.405 180.554 121.593C180.366 121.78 180.111 121.886 179.846 121.886Z" fill="#B1BDC7"/>
<path d="M177.585 111.281C177.607 115.5 183.243 112.893 185.235 112.278C185.43 112.235 185.612 112.143 185.763 112.012C186.105 111.667 185.906 111.06 185.557 110.722C185.208 110.385 184.743 110.186 184.432 109.822C184.121 109.458 184.023 108.798 184.432 108.547C185.842 109.297 186.847 110.381 188.092 109.297C188.741 108.738 189.247 107.823 189.78 107.141L192.746 103.335C194.178 101.505 195.014 99.2798 195.142 96.9597C195.156 96.7613 195.091 96.5653 194.961 96.4148C194.831 96.2643 194.647 96.1716 194.448 96.1572H194.34C192.019 96.2851 189.794 97.1215 187.965 98.5535C187.215 99.1235 186.478 99.6997 185.756 100.282C184.125 101.553 184.297 101.853 184.743 103.942C184.338 104.197 183.798 103.983 183.42 103.687C183.041 103.391 182.707 103.005 182.246 102.873C181.402 102.633 179.591 105.378 179.122 106.091C178.11 107.632 177.576 109.437 177.585 111.281Z" fill="#B1BDC7"/>
<path d="M189.573 101.745L174.918 116.4" stroke="#92A2B1" stroke-width="0.375"/>
<path d="M172.751 107.88C172.749 108.876 171.943 109.683 170.947 109.687C168.823 109.699 166.813 108.73 165.498 107.062C165.113 106.617 164.75 106.153 164.411 105.671C164.013 105.026 164.073 104.235 163.732 103.729C163.528 103.441 163.163 103.315 162.825 103.417C162.667 103.47 162.525 103.571 162.36 103.612C162.02 103.681 161.683 103.484 161.576 103.155C161.441 102.671 161.606 102.356 161.422 101.839C161.238 101.321 160.785 100.864 160.556 100.365C160.117 99.4218 159.862 98.4036 159.806 97.3649C159.8 97.2167 159.853 97.0722 159.953 96.9631C160.054 96.8541 160.194 96.7895 160.342 96.7837H160.402C162.112 96.8756 163.752 97.4909 165.101 98.5462C165.648 99.0502 166.235 99.5092 166.856 99.9187C167.295 100.151 168.768 100.346 168.873 100.789C168.978 101.231 168.746 101.64 168.558 102.034C168.371 102.427 168.221 102.919 168.461 103.282C170.111 102.532 170.643 102.566 171.66 104.171C172.361 105.282 172.739 106.566 172.751 107.88Z" fill="#CFD7DF"/>
<path d="M163.92 100.856L174.716 111.652" stroke="#92A2B1" stroke-width="0.375"/>
<path d="M174.851 120.03V103.853" stroke="#92A2B1" stroke-width="0.375"/>
<path d="M179.97 139.039H169.35C169.039 139.039 168.787 139.29 168.787 139.601C168.787 139.912 169.039 140.164 169.35 140.164H179.97C180.28 140.164 180.532 139.912 180.532 139.601C180.532 139.29 180.28 139.039 179.97 139.039V139.039Z" fill="#B1BDC7"/>
<path d="M178.357 136.71H173.25C171.265 136.71 169.657 135.101 169.657 133.117C169.657 132.865 169.683 132.614 169.736 132.367L170.46 128.97" stroke="#92A2B1" stroke-width="0.375"/>
<path d="M177.491 124.035L179.512 131.932" stroke="#92A2B1" stroke-width="0.375"/>
<path d="M172.751 107.88C172.751 107.88 172.878 105.63 171.667 104.13" stroke="#92A2B1" stroke-width="0.375"/>
<path d="M187.961 98.5723L185.752 100.301" stroke="#92A2B1" stroke-width="0.375"/>
<path d="M179.118 106.11C179.118 106.11 177.303 109.057 177.585 111.281" stroke="#92A2B1" stroke-width="0.375"/>
<path d="M111.584 139.458H62.6582" stroke="#92A2B1" stroke-width="0.375"/>
<path d="M40.2182 62.606L40.1432 73.391H38.9844L39.5957 64.616L40.2182 62.606Z" fill="#273139"/>
<path d="M39.7795 64.436C37.432 68.8048 36.2282 72.1423 33.952 76.811" stroke="#273139" stroke-width="0.375" stroke-linecap="round" stroke-linejoin="round"/>
<path d="M47.6544 61.3351C39.0294 58.7813 42.8207 71.8351 42.4682 77.5313C42.4227 78.3679 41.7754 79.0471 40.9419 79.1326C38.5611 79.4275 36.1472 78.9838 34.0269 77.8613" stroke="#273139" stroke-width="0.375" stroke-linecap="round" stroke-linejoin="round"/>
<path d="M40.8408 96.4798L38.7895 114.709L38.932 114.191L32.0433 134.52C31.8337 135.262 32.2208 136.042 32.9385 136.324C33.6562 136.606 34.4707 136.297 34.822 135.611L43.582 115.995C43.6227 115.905 43.6529 115.81 43.672 115.714L43.7208 115.477L47.4708 97.5373C47.6304 95.8273 46.4804 94.2701 44.7991 93.9196C43.1178 93.5692 41.4414 94.5372 40.9045 96.1686C40.8725 96.2699 40.8512 96.3742 40.8408 96.4798Z" fill="#273139"/>
<path d="M44.7707 98.4373L52.3382 115.129L52.1957 114.615L56.6957 135.615C56.891 136.367 57.6279 136.845 58.3942 136.717C59.1605 136.59 59.7024 135.898 59.6432 135.124L57.1157 113.794C57.1052 113.695 57.0826 113.598 57.0482 113.505L56.9695 113.276L50.9995 95.9586C50.3849 94.2202 48.4831 93.3032 46.7402 93.9048C44.9973 94.5063 44.066 96.4012 44.6545 98.1486C44.6882 98.2461 44.7295 98.3436 44.7707 98.4373Z" fill="#273139"/>
<path d="M51.9595 115.335C52.8516 115.695 53.8636 115.594 54.667 115.065" stroke="white" stroke-width="0.375" stroke-linecap="round" stroke-linejoin="round"/>
<path d="M56.527 137.981C58.1049 138.352 59.7639 137.91 60.9482 136.804C62.0395 136.41 63.397 137.096 65.6395 136.279C67.882 135.461 69.1457 137.756 67.102 138.499L62.947 140.051C62.5113 140.213 62.0433 140.268 61.582 140.212L59.977 140.01L56.527 141.03V137.981Z" fill="#273139"/>
<path d="M56.6432 141.382L56.9732 142.29L60.3445 141.067L60.0857 140.358L56.6432 141.382Z" fill="#273139"/>
<path d="M62.3095 137.711C62.1033 137.315 62.2558 136.827 62.6507 136.62C62.6981 136.598 62.747 136.579 62.797 136.563" stroke="#EBEFF3" stroke-width="0.375" stroke-linecap="round" stroke-linejoin="round"/>
<path d="M63.367 137.704C63.1608 137.308 63.3134 136.82 63.7082 136.612L63.8545 136.556" stroke="#EBEFF3" stroke-width="0.375" stroke-linecap="round" stroke-linejoin="round"/>
<path d="M64.402 137.539C64.3035 137.348 64.2849 137.125 64.3503 136.921C64.4157 136.716 64.5598 136.546 64.7507 136.447C64.7946 136.423 64.8412 136.404 64.8895 136.391" stroke="#EBEFF3" stroke-width="0.375" stroke-linecap="round" stroke-linejoin="round"/>
<path d="M39.4045 98.3436C41.5372 99.867 44.1879 100.481 46.7731 100.05C49.3584 99.6184 51.6664 98.1779 53.1895 96.0449C53.5268 95.5725 53.8206 95.0704 54.067 94.5449C54.5882 93.4649 52.972 92.5124 52.447 93.5999C50.197 98.2949 44.6132 99.7199 40.3495 96.7124C39.3595 96.0261 38.422 97.6536 39.4045 98.3436Z" fill="#273139"/>
<path d="M45.1233 98.6025L44.5945 98.625C42.6177 98.6586 40.7126 97.8855 39.3183 96.4837C37.9498 95.1103 37.18 93.2514 37.177 91.3125C37.1763 91.0293 37.1926 90.7463 37.2258 90.465L40.5708 61.7325C40.7616 60.0769 41.8816 58.6758 43.4545 58.125C44.7594 59.5897 46.7165 60.2952 48.6558 60C50.2045 62.58 50.6545 66.165 51.472 69.0413C49.1164 68.3694 47.1531 66.7356 46.0645 64.5413C45.6408 63.6638 45.1758 62.565 44.2083 62.4675C43.494 62.4612 42.8568 62.9153 42.6295 63.5925C42.4256 64.2617 42.3985 64.9722 42.5508 65.655C43.2602 70.0479 45.6228 74.003 49.1545 76.71C50.4108 77.67 51.8058 78.4575 52.9495 79.5525C54.9033 81.4275 54.577 82.98 54.6895 85.35C54.7983 87.57 54.9708 89.5312 54.2058 91.6875C52.8723 95.6294 49.2779 98.366 45.1233 98.6025Z" fill="#3E66BD"/>
<path d="M43.4733 69.96C45.9895 74.0325 48.8883 77.2575 52.9008 79.8675" stroke="#273139" stroke-width="0.375" stroke-linecap="round" stroke-linejoin="round"/>
<path d="M43.4207 61.5376C46.8791 66.1427 51.4262 69.8176 56.6545 72.2326C57.4202 72.5736 57.8206 73.4239 57.5957 74.2313C57.0106 76.5626 55.7223 78.6574 53.9057 80.2313" stroke="#273139" stroke-width="0.375" stroke-linecap="round" stroke-linejoin="round"/>
<path d="M41.8345 57.9185C43.0832 59.5149 44.8293 60.6486 46.7957 61.1397C48.2061 61.4669 49.6685 61.5026 51.0932 61.2447" stroke="#273139" stroke-width="0.375" stroke-linecap="round" stroke-linejoin="round"/>
<path d="M51.1457 81.0746C51.6632 81.3596 52.012 81.4946 52.5407 81.2284C53.0695 80.9621 52.9157 80.5046 53.0245 79.9234C52.744 79.7773 52.4712 79.6171 52.207 79.4434C50.4445 78.3521 48.2207 76.0684 46.8595 74.4784C46.357 73.8971 44.3957 70.7621 43.4845 69.9784C42.6557 69.2659 46.1095 76.1509 46.5857 76.8596C47.7576 78.5999 49.3189 80.0431 51.1457 81.0746Z" fill="#273139"/>
<path d="M55.1808 79.0835C57.6558 80.1222 60.2208 81.0897 62.6808 82.1285" stroke="#273139" stroke-width="0.375" stroke-linecap="round" stroke-linejoin="round"/>
<path d="M56.9508 75.8737L62.467 78.2887C64.342 76.6949 68.5645 72.5962 70.4583 71.0024" stroke="#273139" stroke-width="0.375" stroke-linecap="round" stroke-linejoin="round"/>
<path d="M62.6958 82.1135C65.5383 79.3422 67.6795 76.6085 70.5295 73.8335" stroke="#273139" stroke-width="0.375" stroke-linecap="round" stroke-linejoin="round"/>
<path d="M70.1545 73.4587C71.767 73.53 74.9245 73.4363 76.492 73.0575C76.8713 72.9746 77.2399 72.8488 77.5907 72.6825H77.6207C77.9192 72.5234 78.0331 72.1531 77.8757 71.8538C77.7704 71.6554 77.5641 71.5313 77.3395 71.5312H73.4395" stroke="#273139" stroke-width="0.375" stroke-linecap="round" stroke-linejoin="round"/>
<path d="M71.6995 72.1874C72.5708 72.0663 73.355 71.595 73.8707 70.8824C74.0027 70.6796 74.0009 70.4176 73.8661 70.2167C73.7314 70.0158 73.4896 69.9147 73.252 69.9599C72.4723 70.0837 71.7072 70.2859 70.9682 70.5636" stroke="#273139" stroke-width="0.375" stroke-linecap="round" stroke-linejoin="round"/>
<path d="M36.7795 80.9023C36.172 83.9248 33.1608 91.4023 32.0208 93.5811" stroke="#273139" stroke-width="0.375" stroke-linecap="round" stroke-linejoin="round"/>
<path d="M34.6907 79.0835C33.7381 83.15 32.4551 87.132 30.8545 90.9897" stroke="#273139" stroke-width="0.375" stroke-linecap="round" stroke-linejoin="round"/>
<path d="M31.9045 93.9599C30.3032 94.1624 27.1495 94.3349 25.5557 94.0724C25.1708 94.0123 24.7936 93.9104 24.4307 93.7687H24.4007C24.0926 93.6377 23.9471 93.2833 24.0745 92.9737C24.1608 92.763 24.3576 92.6182 24.5845 92.5987L28.4732 92.2837" stroke="#273139" stroke-width="0.375" stroke-linecap="round" stroke-linejoin="round"/>
<path d="M30.2769 92.7934C29.4056 92.7385 28.5937 92.3325 28.0269 91.6684C27.8675 91.4779 27.8411 91.209 27.9604 90.9911C28.0798 90.7731 28.3205 90.6505 28.5669 90.6822C29.3543 90.7398 30.1335 90.8793 30.8919 91.0984" stroke="#273139" stroke-width="0.375" stroke-linecap="round" stroke-linejoin="round"/>
<path d="M40.1583 50.9586C42.3225 50.9586 44.077 49.2041 44.077 47.0398C44.077 44.8756 42.3225 43.1211 40.1583 43.1211C37.994 43.1211 36.2395 44.8756 36.2395 47.0398C36.2395 49.2041 37.994 50.9586 40.1583 50.9586Z" fill="#273139"/>
<path d="M46.5745 47.0849C45.6829 47.2861 44.8523 47.6976 44.152 48.2849C42.8157 49.3879 42.0415 51.0297 42.0407 52.7624C42.0402 52.9792 42.0528 53.1959 42.0782 53.4112C40.6756 52.0647 40.4723 49.8934 41.6006 48.31C42.7289 46.7266 44.8477 46.2099 46.5782 47.0962L46.5745 47.0849Z" fill="#FF5959"/>
<path d="M46.1095 42.6751C44.862 43.264 43.994 44.4406 43.7995 45.8063C43.8295 44.3851 43.087 41.9213 41.9245 41.1226" stroke="#273139" stroke-width="0.375" stroke-linecap="round" stroke-linejoin="round"/>
<path fill-rule="evenodd" clip-rule="evenodd" d="M53.6545 52.7622C53.6586 55.9703 51.0613 58.5743 47.8532 58.5784C44.6452 58.5826 42.0411 55.9853 42.037 52.7772C42.0329 49.5691 44.6302 46.9651 47.8382 46.9609V46.9609C49.3791 46.958 50.858 47.5677 51.9489 48.6559C53.0399 49.744 53.6535 51.2213 53.6545 52.7622Z" stroke="#273139" stroke-width="0.375" stroke-linecap="round" stroke-linejoin="round"/>
<path d="M50.0657 50.2385C52.147 49.9535 54.3445 48.5322 54.3407 46.3647C54.3296 45.1008 53.5453 43.9728 52.3645 43.5222C51.1256 43.0603 49.7304 43.464 48.9295 44.516C48.547 44.9973 47.8489 45.0825 47.3619 44.7072C45.8619 43.616 43.8332 44.396 43.6832 46.6722C43.4769 49.8522 47.6245 50.5835 50.0657 50.2385Z" fill="#273139"/>
<path d="M45.4382 51.4234C45.4377 53.2098 44.3685 54.8225 42.7232 55.5184C41.4119 53.0752 42.0102 50.0458 44.152 48.2847C44.9796 49.1192 45.4422 50.2481 45.4382 51.4234Z" fill="#273139"/>
<path d="M47.902 48.96C49.8582 49.4893 51.9475 48.9149 53.3582 47.46" stroke="white" stroke-width="0.375" stroke-linecap="round" stroke-linejoin="round"/>
<path d="M44.2345 50.2085C44.8305 51.6789 44.1267 53.3546 42.6595 53.9585L42.4757 54.026" stroke="white" stroke-width="0.375" stroke-linecap="round" stroke-linejoin="round"/>
<path fill-rule="evenodd" clip-rule="evenodd" d="M53.5345 54.1084C54.4726 54.1084 55.2332 53.3479 55.2332 52.4097C55.2332 51.4715 54.4726 50.7109 53.5345 50.7109C52.5963 50.7109 51.8357 51.4715 51.8357 52.4097C51.8357 53.3479 52.5963 54.1084 53.5345 54.1084Z" stroke="#273139" stroke-width="0.375" stroke-linecap="round" stroke-linejoin="round"/>
<path fill-rule="evenodd" clip-rule="evenodd" d="M49.0795 54.1084C50.0177 54.1084 50.7782 53.3479 50.7782 52.4097C50.7782 51.4715 50.0177 50.7109 49.0795 50.7109C48.1413 50.7109 47.3807 51.4715 47.3807 52.4097C47.3807 53.3479 48.1413 54.1084 49.0795 54.1084Z" stroke="#273139" stroke-width="0.375" stroke-linecap="round" stroke-linejoin="round"/>
<path d="M50.7783 52.4097H51.8358" stroke="#273139" stroke-width="0.375" stroke-linecap="round" stroke-linejoin="round"/>
<path d="M49.8744 51.0523L49.7694 50.9473L47.8944 52.8223" stroke="#273139" stroke-width="0.375" stroke-linecap="round" stroke-linejoin="round"/>
<path d="M54.4307 51.4048L52.4432 53.1898" stroke="#273139" stroke-width="0.375" stroke-linecap="round" stroke-linejoin="round"/>
<path d="M49.2857 53.0137L48.502 53.7974" stroke="#273139" stroke-width="0.375" stroke-linecap="round" stroke-linejoin="round"/>
<path d="M54.9782 51.8662L54.1945 52.65" stroke="#273139" stroke-width="0.375" stroke-linecap="round" stroke-linejoin="round"/>
<path d="M41.5757 51.4388C41.444 50.2747 41.901 49.1215 42.7945 48.3638" stroke="#273139" stroke-width="0.375" stroke-linecap="round" stroke-linejoin="round"/>
<path d="M50.7295 86.5122C51.2139 89.3412 49.3134 92.0274 46.4845 92.5122C46.1277 92.5716 45.766 92.5955 45.4045 92.5835" stroke="white" stroke-width="0.375" stroke-linecap="round" stroke-linejoin="round"/>
<path d="M38.3657 114.66C38.9442 115.432 39.8653 115.871 40.8295 115.833" stroke="white" stroke-width="0.375" stroke-linecap="round" stroke-linejoin="round"/>
<path d="M30.652 136.458C31.8166 137.588 33.4692 138.059 35.0545 137.715C36.1795 137.932 37.0045 139.215 39.352 139.665C41.6995 140.115 41.602 142.728 39.4682 142.32L35.1032 141.525C34.647 141.439 34.2176 141.247 33.8507 140.962L32.5795 139.968L29.0957 139.083L30.652 136.458Z" fill="#273139"/>
<path d="M29.0358 139.44L28.8558 140.389L32.377 141.064L32.5195 140.329L29.0358 139.44Z" fill="#273139"/>
<path d="M35.7858 139.189C35.8041 138.744 36.1774 138.398 36.622 138.413C36.679 138.415 36.7356 138.424 36.7908 138.439" stroke="#EBEFF3" stroke-width="0.375" stroke-linecap="round" stroke-linejoin="round"/>
<path d="M36.6932 139.71C36.702 139.495 36.7959 139.293 36.9541 139.147C37.1124 139.001 37.3221 138.925 37.537 138.934C37.5928 138.937 37.6481 138.946 37.702 138.96" stroke="#EBEFF3" stroke-width="0.375" stroke-linecap="round" stroke-linejoin="round"/>
<path d="M37.6645 140.111C37.6828 139.667 38.0562 139.32 38.5008 139.335C38.5578 139.338 38.6144 139.346 38.6695 139.361" stroke="#EBEFF3" stroke-width="0.375" stroke-linecap="round" stroke-linejoin="round"/>
<path d="M37.1094 79.9535L38.0582 79.1772" stroke="#273139" stroke-width="0.375" stroke-linecap="round" stroke-linejoin="round"/>
</svg>
