<svg xmlns="http://www.w3.org/2000/svg" width="11" height="11" fill="none" viewBox="0 0 11 11"><g clip-path="url(#clip0_871_183301)"><path fill="#2063E3" d="M10.686 5.418a5.337 5.337 0 10-10.673.001 5.337 5.337 0 0010.673-.001z"/><path fill="#fff" d="M8.268 3.83v.115a1.445 1.445 0 01-2.009 1.33L3.91 7.645a.361.361 0 01-.253.104h-.076a.361.361 0 01-.253-.104l-.195-.195a.361.361 0 01-.105-.253v-.065c0-.095.038-.186.105-.253l2.35-2.37a1.405 1.405 0 01-.106-.564A1.445 1.445 0 016.823 2.5h.115c.05 0 .096.02.13.054l.062.061a.18.18 0 010 .257l-.564.564a.18.18 0 000 .253l.513.513a.184.184 0 00.253 0l.575-.564a.18.18 0 01.256 0l.062.061c.03.037.046.083.043.13z"/></g><defs><clipPath id="clip0_871_183301"><path fill="#fff" d="M0 0h10.674v10.672H0z" transform="translate(.012 .082)"/></clipPath></defs></svg>