<svg xmlns="http://www.w3.org/2000/svg" width="12" height="12" fill="none" viewBox="0 0 12 12"><g clip-path="url(#clip0_871_183307)"><path fill="#E47D00" d="M12 6A6 6 0 100 6a6 6 0 0012 0z"/><path fill="#fff" fill-rule="evenodd" d="M5.813 3c.31 0 .562.216.562.482v3.536c0 .266-.252.482-.563.482-.31 0-.562-.216-.562-.482V3.482c0-.266.252-.482.563-.482z" clip-rule="evenodd"/><path fill="#fff" d="M6.375 8.813a.563.563 0 11-1.125 0 .563.563 0 011.125 0z"/></g><defs><clipPath id="clip0_871_183307"><path fill="#fff" d="M0 0h12v12H0z"/></clipPath></defs></svg>