<svg xmlns="http://www.w3.org/2000/svg" width="12" height="12" fill="none" viewBox="0 0 12 12"><g clip-path="url(#clip0_871_183285)"><path fill="#1F9C68" d="M12 6A6 6 0 100 6a6 6 0 0012 0z"/><path fill="#fff" fill-rule="evenodd" d="M9.642 3.862l-.562-.55A.386.386 0 008.8 3.2a.386.386 0 00-.281.113L4.852 6.767 3.638 5.575a.387.387 0 00-.28-.113.387.387 0 00-.281.113l-.562.55a.37.37 0 00-.116.274c0 .108.039.2.116.275L4.01 8.137l.561.55c.077.075.17.112.281.112.11 0 .204-.037.28-.113l.562-.55 3.948-3.725a.37.37 0 00.115-.274.37.37 0 00-.115-.275z" clip-rule="evenodd"/></g><defs><clipPath id="clip0_871_183285"><path fill="#fff" d="M0 0h12v12H0z"/></clipPath></defs></svg>