<svg width="24" height="24" viewBox="0 0 24 24" fill="none" xmlns="http://www.w3.org/2000/svg"><g clip-path="url(#clip0_2024_52908)"><mask id="mask0_2024_52908" style="mask-type:luminance" maskUnits="userSpaceOnUse" x="0" y="0" width="24" height="24"><path d="M24 0H0v24h24V0Z" fill="#fff"/></mask><g mask="url(#mask0_2024_52908)"><path d="M11.9899 23a11.525 11.525 0 0 1-2.5728-.2931c-3.9593-.9036-7.2253-4.1696-8.1289-8.1289-.769-3.3522-.0069-6.7873 2.0934-9.4256C5.4854 2.514 8.6238 1 11.9934 1h7.377c2.0072 0 3.6385 1.6313 3.6385 3.6385v7.3667c0 3.3661-1.514 6.5045-4.1489 8.6048-1.9659 1.5658-4.3766 2.39-6.8701 2.39Zm0-19.9997c-2.7556 0-5.325 1.2381-7.0425 3.4005-1.7175 2.159-2.3418 4.9767-1.7106 7.7323.738 3.2281 3.4005 5.8906 6.6252 6.6252 2.7659.6346 5.5871.0104 7.746-1.7106 2.159-1.721 3.3971-4.2869 3.3971-7.0425V4.6385c0-.9036-.7346-1.6382-1.6382-1.6382h-7.377Z" fill="#475867"/><path d="M17.0079 8.8773c1.0347 0 1.8762-.838 1.8762-1.8761s-.8415-1.8762-1.8762-1.8762c-1.0346 0-1.8761.838-1.8761 1.8762 0 1.038.8415 1.8761 1.8761 1.8761ZM15.325 13.0312c-1.2071 0-2.3245-.438-3.128-1.245-.9312-.9312-1.3623-2.2349-1.214-3.673.0551-.5484.5483-.9485 1.0967-.8933.5484.0587.9484.5484.8932 1.0967-.0862.8278.1414 1.5555.6381 2.0521.5069.507 1.2415.7346 2.0658.638.5484-.062 1.045.3311 1.1071.8795.0621.5483-.3311 1.045-.8795 1.107a4.748 4.748 0 0 1-.5828.0345l.0034.0035ZM13.4556 17.9213h-.0069c-2.0452-.0138-3.9075-.7622-5.2525-2.1072-1.345-1.345-2.0762-3.1522-2.1072-5.2181-.007-.5518.4345-1.007.9863-1.014h.0138c.545 0 .9933.4381 1.0002.9864.0241 1.5348.5483 2.8626 1.5209 3.8351.9691.9691 2.3382 1.5106 3.8523 1.521.5518.0034.9967.4552.9932 1.007-.0034.5518-.4518.9933-1.0001.9933v-.0035Z" fill="#25C16F"/></g></g><defs><clipPath id="clip0_2024_52908"><path fill="#fff" d="M0 0h24v24H0z"/></clipPath></defs></svg>