<svg xmlns="http://www.w3.org/2000/svg" width="24" height="24" fill="none" xmlns:v="https://vecta.io/nano"><path d="M14.193 4.5H6.882c-.456 0-.825.369-.825.825v13.35c0 .456.369.825.825.825h10.237c.456 0 .825-.369.825-.825V8.25m-3.75-3.75l3.75 3.75m-3.75-3.75v2.925c0 .456.369.825.825.825h2.925" stroke="var(--color-fill-semantic-success)" stroke-width="1.05" stroke-linejoin="round"/><rect x="4.229" y="11.123" width="15.541" height="5.607" rx=".75" fill="var(--color-fill-semantic-success)"/><g fill="var(--color-icon-inverse)"><path d="M16.472 12.412l-1.079 3.041h-.927l-1.079-3.041h.788l.754 2.296.758-2.296h.784zm-4.419 3.072a1.57 1.57 0 0 1-.598-.108.99.99 0 0 1-.425-.32c-.104-.142-.159-.312-.165-.511h.788a.39.39 0 0 0 .117.26.38.38 0 0 0 .26.087c.107 0 .196-.025.26-.074s.095-.123.095-.212c0-.075-.026-.137-.078-.186a.58.58 0 0 0-.186-.121c-.072-.032-.176-.068-.312-.108a3.43 3.43 0 0 1-.481-.182c-.124-.061-.231-.15-.321-.269s-.134-.273-.134-.463a.79.79 0 0 1 .307-.663c.205-.162.472-.243.801-.243.335 0 .605.081.81.243s.315.381.329.667h-.801a.31.31 0 0 0-.108-.23.39.39 0 0 0-.256-.087c-.09 0-.162.024-.217.074s-.082.114-.082.204c0 .098.046.175.139.23s.237.114.433.178.355.13.476.191.231.149.32.264.134.264.134.446a.87.87 0 0 1-.134.472.91.91 0 0 1-.381.338 1.31 1.31 0 0 1-.593.126z"/><path d="M7.527 13.929c0-.3.065-.567.195-.801a1.38 1.38 0 0 1 .541-.55c.234-.133.498-.199.793-.199.361 0 .67.095.927.286s.429.45.515.78h-.814c-.061-.127-.147-.224-.26-.29s-.235-.1-.377-.1c-.228 0-.413.079-.554.238s-.212.371-.212.637.071.478.212.637.326.238.554.238c.142 0 .267-.033.377-.1s.199-.163.26-.29h.814c-.087.329-.259.589-.515.78s-.566.282-.927.282c-.295 0-.559-.065-.793-.195s-.412-.316-.541-.55-.195-.501-.195-.801z"/></g></svg>
