<svg xmlns="http://www.w3.org/2000/svg" width="24" height="24" fill="none" xmlns:v="https://vecta.io/nano"><path d="M14.193 4.5H6.882c-.456 0-.825.369-.825.825v13.35c0 .456.369.825.825.825h10.237c.456 0 .825-.369.825-.825V8.25m-3.75-3.75l3.75 3.75m-3.75-3.75v2.925c0 .456.369.825.825.825h2.925" stroke="var(--color-icon-selected)" stroke-width="1.05" stroke-linejoin="round"/><rect x="4.229" y="11.123" width="15.541" height="5.607" rx=".75" fill="var(--color-icon-selected)"/><path d="M13.841 13.921a1.73 1.73 0 0 1 .208-.854 1.47 1.47 0 0 1 .577-.586 1.68 1.68 0 0 1 .845-.212c.385 0 .714.102.988.305s.457.48.55.831h-.868c-.065-.135-.157-.239-.277-.309a.76.76 0 0 0-.402-.106c-.243 0-.44.085-.591.254s-.226.396-.226.679.075.509.226.679.348.254.591.254a.76.76 0 0 0 .402-.106c.12-.071.213-.174.277-.309h.868a1.46 1.46 0 0 1-.55.831c-.274.203-.603.3-.988.3a1.71 1.71 0 0 1-.845-.208 1.51 1.51 0 0 1-.577-.586 1.73 1.73 0 0 1-.208-.854zm-1.962 1.658c-.305 0-.585-.071-.84-.212s-.454-.339-.605-.591-.222-.542-.222-.859.074-.602.222-.854a1.59 1.59 0 0 1 .605-.591c.253-.141.536-.212.84-.212a1.68 1.68 0 0 1 .836.212 1.54 1.54 0 0 1 .6.591 1.66 1.66 0 0 1 .222.854c0 .317-.074.603-.222.859a1.58 1.58 0 0 1-.6.591 1.68 1.68 0 0 1-.836.212zm0-.72c.259 0 .465-.086.619-.259a.99.99 0 0 0 .236-.683c0-.283-.079-.514-.236-.683s-.36-.259-.619-.259a.82.82 0 0 0-.628.254c-.157.169-.231.399-.231.688s.077.516.231.688.366.254.628.254zm-3.674-2.554c.342 0 .64.068.896.203a1.43 1.43 0 0 1 .591.573c.142.243.212.525.212.845s-.071.599-.212.845-.337.437-.596.573a1.88 1.88 0 0 1-.891.203H6.99v-3.242h1.214zm-.051 2.558c.299 0 .531-.082.697-.245s.249-.394.249-.693-.083-.531-.249-.697-.399-.249-.697-.249H7.78v1.884h.374z" fill="var(--color-icon-inverse)"/></svg>
