<svg width="24" height="24" viewBox="0 0 24 24" fill="none" xmlns="http://www.w3.org/2000/svg">
<g id="Component 4">
<path id="Vector 66" d="M4.91016 17.6167V6.38262C4.91016 5.92698 5.27952 5.55762 5.73516 5.55762H18.2654C18.721 5.55762 19.0904 5.92698 19.0904 6.38262V17.6167C19.0904 18.0724 18.721 18.4417 18.2654 18.4417H5.73516C5.27952 18.4417 4.91016 18.0724 4.91016 17.6167Z" stroke="var(--color-icon-semantic-highlight)" stroke-width="1.05" stroke-linejoin="round"/>
<path id="Vector 67" d="M10.243 13.1601L6.97471 16.3417C6.73358 16.5765 6.89977 16.9854 7.23629 16.9854H17.31C17.5171 16.9854 17.685 16.8175 17.685 16.6104V13.7009C17.685 13.4985 17.6032 13.3047 17.4582 13.1635L16.3928 12.1265C16.1017 11.843 15.6377 11.843 15.3465 12.1265L13.3101 14.1088C13.0189 14.3923 12.555 14.3923 12.2638 14.1088L11.2893 13.1601C10.9981 12.8767 10.5341 12.8767 10.243 13.1601Z" fill="var(--color-icon-semantic-highlight)" stroke="var(--color-icon-semantic-highlight)" stroke-width="0.75" stroke-linejoin="round"/>
<circle id="Ellipse 1105" cx="8.93274" cy="9.81262" r="1.5509" fill="var(--color-icon-semantic-highlight)" stroke="var(--color-icon-semantic-highlight)" stroke-width="0.75"/>
</g>
</svg>
