<svg width="24" height="24" viewBox="0 0 24 24" fill="none" xmlns="http://www.w3.org/2000/svg">
<path d="M14.1933 4.5H6.88164C6.42601 4.5 6.05664 4.86937 6.05664 5.325V18.675C6.05664 19.1306 6.42601 19.5 6.88164 19.5H17.1183C17.574 19.5 17.9433 19.1306 17.9433 18.675V8.25M14.1933 4.5L17.9433 8.25M14.1933 4.5V7.425C14.1933 7.88063 14.5627 8.25 15.0183 8.25H17.9433" stroke="var(--color-fill-semantic-error)" stroke-width="1.05" stroke-linejoin="round"/>
<rect x="4.22949" y="11.123" width="15.5405" height="5.60678" rx="0.75" fill="var(--color-fill-semantic-error)"/>
<path d="M16.2398 12.2803V12.923H14.898V13.6174H15.902V14.2414H14.898V15.5739H14.0957V12.2803H16.2398Z" fill="var(--color-icon-inverse)"/>
<path d="M11.9214 12.2803C12.2686 12.2803 12.572 12.3491 12.8316 12.4867C13.0912 12.6243 13.2914 12.8183 13.4322 13.0685C13.576 13.3156 13.648 13.6018 13.648 13.9271C13.648 14.2492 13.576 14.5354 13.4322 14.7857C13.2914 15.0359 13.0897 15.2298 12.8269 15.3674C12.5673 15.5051 12.2655 15.5739 11.9214 15.5739H10.6875V12.2803H11.9214ZM11.8698 14.8795C12.1732 14.8795 12.4094 14.7966 12.5783 14.6308C12.7472 14.4651 12.8316 14.2305 12.8316 13.9271C12.8316 13.6237 12.7472 13.3875 12.5783 13.2186C12.4094 13.0497 12.1732 12.9653 11.8698 12.9653H11.4898V14.8795H11.8698Z" fill="var(--color-icon-inverse)"/>
<path d="M10.2698 13.3406C10.2698 13.5314 10.2261 13.7066 10.1385 13.8661C10.0509 14.0225 9.9164 14.1491 9.73499 14.2461C9.55357 14.3431 9.32837 14.3916 9.05938 14.3916H8.56205V15.5739H7.75977V12.2803H9.05938C9.32211 12.2803 9.54419 12.3256 9.7256 12.4163C9.90702 12.507 10.0431 12.6322 10.1338 12.7917C10.2245 12.9512 10.2698 13.1342 10.2698 13.3406ZM8.99838 13.7535C9.15165 13.7535 9.26581 13.7175 9.34088 13.6456C9.41595 13.5736 9.45348 13.472 9.45348 13.3406C9.45348 13.2092 9.41595 13.1076 9.34088 13.0356C9.26581 12.9637 9.15165 12.9277 8.99838 12.9277H8.56205V13.7535H8.99838Z" fill="var(--color-icon-inverse)"/>
</svg>
