<svg width="24" height="24" viewBox="0 0 24 24" fill="none" xmlns="http://www.w3.org/2000/svg">
<path d="M8.59375 12.2746C8.59375 12.123 8.71671 12 8.86838 12H15.1306C15.2823 12 15.4053 12.123 15.4053 12.2746V12.2746V16.806C15.4053 16.9717 15.271 17.106 15.1053 17.106H8.89375C8.72806 17.106 8.59375 16.9717 8.59375 16.806V12.2746V12.2746Z" stroke="var(--color-fill-semantic-warning)" stroke-width="1.05" stroke-linejoin="round"/>
<path d="M14.1933 4.5H6.88164C6.42601 4.5 6.05664 4.86937 6.05664 5.325V18.675C6.05664 19.1306 6.42601 19.5 6.88164 19.5H17.1183C17.574 19.5 17.9433 19.1306 17.9433 18.675V8.25M14.1933 4.5L17.9433 8.25M14.1933 4.5V7.425C14.1933 7.88063 14.5627 8.25 15.0183 8.25H17.9433" stroke="var(--color-fill-semantic-warning)" stroke-width="1.05" stroke-linejoin="round"/>
</svg>
