<svg width="24" height="24" viewBox="0 0 24 24" fill="none" xmlns="http://www.w3.org/2000/svg">
<path d="M14.1933 4.5H6.88164C6.42601 4.5 6.05664 4.86937 6.05664 5.325V18.675C6.05664 19.1306 6.42601 19.5 6.88164 19.5H17.1183C17.574 19.5 17.9433 19.1306 17.9433 18.675V8.25M14.1933 4.5L17.9433 8.25M14.1933 4.5V7.425C14.1933 7.88063 14.5627 8.25 15.0183 8.25H17.9433" stroke="var(--color-fill-semantic-success)" stroke-width="1.05" stroke-linejoin="round"/>
<path d="M11.9999 16.8779H15.3621V14.439M11.9999 16.8779H8.6377V14.439M11.9999 16.8779V12M11.9999 12H8.6377V14.439M11.9999 12H15.3621V14.439M8.6377 14.439H15.3621" stroke="var(--color-fill-semantic-success)" stroke-width="1.05" stroke-linejoin="round"/>
</svg>
