<svg xmlns="http://www.w3.org/2000/svg" width="369" height="208" fill="none" viewBox="0 0 369 208"><path fill="#fff" stroke="#000" stroke-width=".5" d="M1 1h367v206H1z" opacity=".01"/><path fill="#EBEFF3" d="M314.105 74c-2.415 13.185 7.105 25.215 15.5 35.675 8.395 10.46 16.605 24.08 11.5 36.46-4.595 11.105-17.89 15.625-29.835 16.925-11.945 1.3-24.695.85-35 7-4.365 2.595-8 6.235-12.27 9-15.225 9.92-35.315 7.235-52.72 2s-34.86-12.695-52.97-11.205c-25.465 2.09-48 21.705-73.5 19.6-17.04-1.405-32.12-12.795-41.4-27.15C34.13 147.95 29.895 130.9 27.47 114c-1.5-10.5-2.37-21.275.055-31.585 2.425-10.31 8.61-20.18 18.125-24.83 6.825-3.335 15.56-4.32 19.655-10.715 2.695-4.21 2.5-9.57 3.58-14.445a26.835 26.835 0 0142-15.815c6.24 4.55 10.335 11.645 16.805 15.86 9.805 6.38 22.955 4.72 33.655 0 10.7-4.72 20-12.155 30.5-17.34 10.5-5.185 23.22-7.97 33.76-2.89 11.54 5.535 18.155 19.395 30.525 22.76 7.43 2.035 15.31-.25 22.54-2.91 12.23-4.5 30.34-10.425 38.905 3.965 7.55 12.7-1.21 25.6-3.47 37.945z"/><path fill="#CFD7DF" d="M260.951 181.941l22.749-.246.082 7.584-22.749.247zm-.243-10.77l19.24-.192.064 6.414-19.24.193z"/><path fill="#92A2B1" d="M260.911 178.227l23.829-.258.03 2.82-23.828.258z"/><path stroke="#fff" stroke-width=".5" d="M264.28 176.29a2.14 2.14 0 100-4.28 2.14 2.14 0 000 4.28zm14.38 11.375a2.14 2.14 0 100-4.28 2.14 2.14 0 000 4.28z" clip-rule="evenodd"/><path fill="#fff" d="M280.075 170.725l-4.39.05 4.39-.05z"/><path stroke="#92A2B1" stroke-width=".5" d="M280.075 170.725l-4.39.05"/><path fill="#fff" d="M265.35 182.08l-4.39.045 4.39-.045z"/><path stroke="#92A2B1" stroke-width=".5" d="M265.35 182.08l-4.39.045"/><path fill="#CFD7DF" d="M261.705 152.77h14.24v17.405h-14.24z"/><path stroke="#92A2B1" stroke-width=".5" d="M275.65 157.32a4.153 4.153 0 013.718 6.271 4.153 4.153 0 01-3.718 2.034m0-6.99a2.835 2.835 0 110 5.67"/><path fill="#fff" d="M268.825 165.095a3.625 3.625 0 100-7.25 3.625 3.625 0 000 7.25z"/><path stroke="#fff" stroke-width=".5" d="M262.955 162.68v-8.735h7.73"/><path fill="#fff" d="M260.62 109.5v40.25a3.5 3.5 0 01-3.5 3.475H73.215a3.5 3.5 0 01-3.5-3.475V31.625a3.5 3.5 0 013.5-3.5h183.93a3.5 3.5 0 013.5 3.5V89"/><path stroke="#273139" stroke-width=".575" d="M260.62 109.5v40.25a3.5 3.5 0 01-3.5 3.475H73.215a3.5 3.5 0 01-3.5-3.475V31.625a3.5 3.5 0 013.5-3.5h183.93a3.5 3.5 0 013.5 3.5V89"/><path fill="#273139" stroke="#273139" stroke-width=".575" d="M260.62 44.21H69.74V31.625a3.5 3.5 0 013.5-3.5h183.905a3.5 3.5 0 013.5 3.5V44.21h-.025z"/><path fill="#fff" d="M254.39 37.995a1.595 1.595 0 100-3.19 1.595 1.595 0 000 3.19zm-5.26 0a1.595 1.595 0 100-3.19 1.595 1.595 0 000 3.19zm-5.265 0a1.595 1.595 0 100-3.19 1.595 1.595 0 000 3.19zm92.23 96.79l1.23 14.315 3.405 39.735h1.28v-54.05h-5.915zm-13.09 0v54.05h1.275l4.17-48.605.465-5.445h-5.91z"/><path fill="#CFD7DF" d="M342.01 134.785h-5.915l1.23 14.315 4.685 4.685v-19zm-19.005 0l5.445 5.445.465-5.445h-5.91z"/><path stroke="#92A2B1" stroke-width=".5" d="M327.5 104.53a14.095 14.095 0 015.26 6.825"/><rect width=".5" height="5.35" x="328.605" y="106.506" fill="#CFD7DF" rx=".25" transform="rotate(153.06 328.605 106.506)"/><rect width=".5" height="5.35" x="329.431" y="102.815" fill="#CFD7DF" rx=".25" transform="rotate(63.06 329.431 102.815)"/><rect width=".5" height="5.35" x="329.784" y="104.834" fill="#CFD7DF" rx=".25" transform="rotate(108.06 329.784 104.834)"/><rect width=".5" height="5.35" x="326.585" y="106.854" fill="#CFD7DF" rx=".25" transform="rotate(-161.94 326.585 106.854)"/><path fill="#92A2B1" d="M327.175 105.07a.825.825 0 100-1.65.825.825 0 000 1.65z"/><path stroke="#92A2B1" stroke-width=".5" d="M338.9 100.125a14.17 14.17 0 00-6.095 11.22"/><rect width=".5" height="5.35" x="340.2" y="97.342" fill="#CFD7DF" rx=".25" transform="rotate(26.94 340.2 97.342)"/><rect width=".5" height="5.35" x="341.708" y="100.84" fill="#CFD7DF" rx=".25" transform="rotate(116.94 341.708 100.84)"/><rect width=".5" height="5.35" x="341.678" y="98.779" fill="#CFD7DF" rx=".25" transform="rotate(71.94 341.678 98.779)"/><rect width=".5" height="5.35" x="338.139" y="97.367" fill="#CFD7DF" rx=".25" transform="rotate(-18.06 338.139 97.367)"/><path fill="#92A2B1" d="M339.205 100.67a.825.825 0 100-1.65.825.825 0 000 1.65z"/><path fill="#fff" d="M329.58 130.665h6.47a1.277 1.277 0 001.265-1.43l-2-16a1.28 1.28 0 00-1.265-1.115h-2.5c-.642 0-1.184.478-1.265 1.115l-2 16a1.27 1.27 0 001.295 1.43z"/><path stroke="#92A2B1" stroke-width=".5" d="M330.325 129.53h5a.603.603 0 00.6-.675l-1.425-15.05a.595.595 0 00-.595-.53h-2.155a.6.6 0 00-.595.53l-1.43 15.05a.6.6 0 00.6.675z" clip-rule="evenodd"/><rect width="6.84" height="1.26" x="336.235" y="111.875" fill="#B1BDC7" rx=".63" transform="rotate(-180 336.235 111.875)"/><rect width="32.725" height="3.59" x="348.87" y="135.175" fill="#92A2B1" rx="1.795" transform="rotate(180 348.87 135.175)"/><path stroke="#92A2B1" stroke-width=".5" d="M342.01 134.785v19.005m-1.28 35.045l-1.82-21.245m-10.46-27.36l-2.345 27.325"/><path stroke="#fff" stroke-width=".5" d="M317.935 133.08h13.71"/><path stroke="#92A2B1" stroke-width=".5" d="M307.475 189.51H260.84m-182.39 0H31.81"/><path fill="#CFD7DF" d="M330.363 79.635l-5.749 1.084-5.67-30.065 5.749-1.084zm-10.273.81h-21.085v-7.03h21.085zm-17.835-17.22h17.83v5.945h-17.83z"/><path stroke="#92A2B1" stroke-width=".5" d="M325.805 52.295L318.9 53.6m7.21.305l-6.905 1.305m10.9 19.875l-6.91 1.305m7.215.305L323.5 78"/><path fill="#CFD7DF" d="M332.505 81.13h-1.17V48.35h1.17zm-35.73 0h-1.17V48.35h1.17z"/><path fill="#92A2B1" d="M320.085 72.595H298V69.98h22.085z"/><path stroke="#fff" stroke-width=".5" d="M316.935 68.225a1.98 1.98 0 100-3.96 1.98 1.98 0 000 3.96zM303.72 78.91a1.98 1.98 0 100-3.96 1.98 1.98 0 000 3.96z" clip-rule="evenodd"/><path fill="#fff" d="M332.505 48.355V65.53 48.355z"/><path stroke="#92A2B1" stroke-width=".5" d="M332.505 48.355V65.53m10.475 15.705h-60.87"/><path fill="#fff" d="M331.335 80.485V74.09v6.395z"/><path stroke="#92A2B1" stroke-width=".5" d="M331.335 80.485V74.09"/><path fill="#fff" d="M295.61 80.485v-12.79 12.79z"/><path stroke="#92A2B1" stroke-width=".5" d="M295.61 80.485v-12.79"/><path fill="#fff" d="M302.255 63.225h4.075-4.075z"/><path stroke="#92A2B1" stroke-width=".5" d="M302.255 63.225h4.075"/><path fill="#fff" d="M316.02 73.6h4.07-4.07z"/><path stroke="#92A2B1" stroke-width=".5" d="M316.02 73.6h4.07"/><path fill="#fff" d="M87.32 156.75h32.775v32.775H87.32z"/><path stroke="#92A2B1" stroke-width=".5" d="M87.32 156.75v18.845"/><path fill="#CFD7DF" d="M120.095 156.75h19.92v32.775h-19.92z"/><path stroke="#92A2B1" stroke-width=".5" d="M91.17 189.525h18.73m3.65 0h15.62m10.73-26.655v14.225m-19.805-1.925v14.225m-28-32.82h19.355M91.12 180.83v-18.385m13.8 22.58H93.495"/><path stroke="#fff" stroke-width=".5" d="M131.61 185.025h-5.715"/><path stroke="#92A2B1" stroke-width=".5" d="M115.42 170.1v10.03m-14.93-16.325h9.325m26.82 25.72h3.375v-3.8"/><path stroke="#fff" stroke-width=".5" d="M123.625 163.15v16.615m-3.53-23.015v10.78"/><path stroke="#92A2B1" stroke-width=".5" d="M140.015 156.75h-4.945"/><path fill="#fff" d="M130.96 164.835h24.69v24.69h-24.69z"/><path stroke="#92A2B1" stroke-width=".5" d="M130.96 164.835v14.195"/><path fill="#CFD7DF" d="M155.65 164.835h15.005v24.69H155.65z"/><path stroke="#92A2B1" stroke-width=".5" d="M133.865 189.525h14.11m2.745 0h11.77m8.08-20.08v10.72m-14.92-1.455v10.72m-21.09-24.725h14.58m-15.315 18.27v-13.85m10.395 17.01h-8.605"/><path stroke="#fff" stroke-width=".5" d="M164.325 186.135h-4.3"/><path stroke="#92A2B1" stroke-width=".5" d="M152.13 174.895v7.55m-11.245-12.295h7.025m20.2 19.375h2.545v-2.86"/><path stroke="#fff" stroke-width=".5" d="M158.315 169.655v12.52m-2.665-17.34v8.12"/><path stroke="#92A2B1" stroke-width=".5" d="M170.655 164.835h-3.72"/><path stroke="#131735" stroke-linecap="round" stroke-linejoin="round" stroke-width=".765" d="M252.105 91.04a1.305 1.305 0 011.5-.07 36.694 36.694 0 008.64 3.445 40.228 40.228 0 006.68 1.28 2.165 2.165 0 001.865-.765l8.585-10.205a4.55 4.55 0 117.12 5.58v0L275.79 103.06a4.556 4.556 0 01-1.67 1.375v.04c-6.26 2.855-19.26-2.06-23.155-3.66a2 2 0 01-1.22-1.79"/><path fill="#34479D" d="M303.99 194.45l-4.435-1.38-.44-2.82 3.275.88 1.6 3.32zm-9.985-3.52l2.905-.68V193l-3.965.76 1.06-2.83z"/><path fill="#345C7C" d="M279.07 112.88l.195 64.06a5.892 5.892 0 005.895 6 5.895 5.895 0 005.885-5.5l4.19-66.875-16.165 2.315z"/><path fill="#345C7C" d="M290.335 112.88l.195 64.06a5.9 5.9 0 0011.785.5l4.185-66.89-16.165 2.33z"/><path fill="#fff" d="M288.18 80.11l4.74-.16a9.5 9.5 0 019.58 7.405l6.24 24.25c1.315 5.875-1.035 11.455-9.175 11.455l-17.35.47a4.685 4.685 0 01-4.81-4.845l1.735-29.565c0-6.97 4.13-8.845 9.04-9.01z"/><path stroke="#131735" stroke-linecap="round" stroke-linejoin="round" stroke-width=".58" d="M286.476 123.781c.779-.306 1.283-.879 1.125-1.28-.158-.401-.917-.478-1.695-.172-.779.306-1.283.879-1.125 1.28.157.401.916.478 1.695.172zm-1.947-.172c.158-.401-.346-.974-1.125-1.28-.778-.306-1.537-.229-1.695.172-.157.401.346.974 1.125 1.28.779.306 1.538.229 1.695-.172z" clip-rule="evenodd"/><path stroke="#131735" stroke-linecap="round" stroke-linejoin="round" stroke-width=".58" d="M284.85 123.91a2.655 2.655 0 001.65 1.21m-2-1.21a2.868 2.868 0 01-1.365 1.89"/><path fill="#FF5959" d="M287.075 80.425l4.74-.63c4.555-.61 9.245 2.105 10.685 6.47l8.315 23.7c1.9 5.76.275 13.385-7.885 14.195l-11.525 1.455s-4.39.46-4.7-5.755L284.4 84.065s-.095-3.27 2.675-3.64z"/><path fill="#EBEFF3" d="M287.15 82.15c2.827 0 5.12-1.437 5.12-3.21s-2.293-3.21-5.12-3.21c-2.828 0-5.12 1.437-5.12 3.21s2.292 3.21 5.12 3.21z"/><path stroke="#131735" stroke-linecap="round" stroke-linejoin="round" stroke-width=".71" d="M286.83 80.27a8.055 8.055 0 100-16.11 8.055 8.055 0 100 16.11z" clip-rule="evenodd"/><path fill="#131735" d="M310.9 118.26s-3.5-18.025-16.445-24.525c0 0 6.24-1.29 14.63 13.635 0 0 1 2.29 2.5 6.84.02 0-.18 2.875-.685 4.05z"/><path stroke="#131735" stroke-linecap="round" stroke-linejoin="round" stroke-width=".71" d="M297.09 81.07s22.83 4.325 26.205 35.045m-27.37-22.38s11.795 2.605 16.625 24.175m10.745-1.795l-10.14 3.07m9.54-1.535s2.5 6.79-2.775 9.21m-5.705-6.36s.67 7.205 2.2 7.205c1.39 0 1.13-4.18 1.13-4.18m-11.81-8.915l-9.08-2.665"/><path fill="#131735" d="M305.68 123.695s-6.135 1.13-14.295 2.065c0 0-2.06.555-3.695-2.23a5.71 5.71 0 00.56 3.385 3.88 3.88 0 003.5 2.13c1.945 0 6.4-.255 13.72-1.9l.21-3.45z"/><path stroke="#fff" stroke-linecap="round" stroke-linejoin="round" stroke-width=".5" d="M286.5 133.105l4.41 48.625"/><path stroke="#131735" stroke-linecap="round" stroke-linejoin="round" stroke-width=".6" d="M297.56 189.635c1.455 0 2.635-.94 2.635-2.1 0-1.16-1.18-2.1-2.635-2.1-1.455 0-2.635.94-2.635 2.1 0 1.16 1.18 2.1 2.635 2.1z" clip-rule="evenodd"/><path stroke="#131735" stroke-linecap="round" stroke-linejoin="round" stroke-width=".71" d="M300.185 187.34s2.595 5.64 4.345 7.93c.39.472.579 1.08.525 1.69-.12 1-1 2.185-4.385 2.185h-6.845s-3.665-.165-1.83-3.5 2.325-4.315 2.935-7.905M295.58 81s-4.5 0-4.965 4.965c-.465 4.965 3.16 6.77 3.16 6.77"/><path fill="#34479D" d="M275.58 187.265l5.005 6.72h-5.2l-2.99-4.18 3.185-2.54z"/><path stroke="#131735" stroke-linecap="round" stroke-linejoin="round" stroke-width=".71" d="M285.61 196.335H267.5s-1.795 0-2.83-.695a.946.946 0 01-.37-1.1c.255-.695 1.135-1.795 4-2.66 4.35-1.3 6.31-4.565 10.5-6.75a.886.886 0 011.26.56 4.358 4.358 0 001.21 2.105 3.805 3.805 0 003.5.8c.85-.22 2-.605 2.46-1.17 0 0 1.23-1 .615 2.115 0 0-.63 3.93.175 4.885.02 0 1.675 1.91-2.41 1.91z" clip-rule="evenodd"/><path stroke="#131735" stroke-linecap="round" stroke-linejoin="round" stroke-width=".71" d="M288.04 194.425H266.5s-1.65.31-.905-1.355"/><path fill="#C82124" d="M276.89 90.905c.465-6.615 3.57-9.11 6.235-10.025.251.18.512.347.78.5-3.385 2-3.935 6.335-3.935 6.335l-2.355 27.385c-.65 6.24 1.605 7.445 1.605 7.445l-.115 2.45c-4.905 0-4.81-3.43-4.81-3.43-.68-2.465 2.595-30.66 2.595-30.66z"/><path fill="#131735" d="M294.07 78.095a2.36 2.36 0 100-4.72 2.36 2.36 0 000 4.72z"/><path fill="#131735" d="M294.73 74.03a2.36 2.36 0 100-4.72 2.36 2.36 0 000 4.72z"/><path fill="#131735" d="M296.43 75.735a2.36 2.36 0 100-4.72 2.36 2.36 0 000 4.72z"/><path fill="#131735" d="M297.65 73.375a2.36 2.36 0 100-4.72 2.36 2.36 0 000 4.72z"/><path fill="#131735" d="M297.09 70.225a2.36 2.36 0 100-4.72 2.36 2.36 0 000 4.72z"/><path fill="#131735" d="M295.695 67.27a2.36 2.36 0 100-4.72 2.36 2.36 0 000 4.72z"/><path fill="#131735" d="M293.61 64.915a2.36 2.36 0 100-4.72 2.36 2.36 0 000 4.72z"/><path fill="#131735" d="M290.575 62.925a2.36 2.36 0 100-4.72 2.36 2.36 0 000 4.72z"/><path fill="#131735" d="M287.55 62.32a2.36 2.36 0 100-4.72 2.36 2.36 0 000 4.72z"/><path fill="#131735" d="M284.795 62.925a2.36 2.36 0 100-4.72 2.36 2.36 0 000 4.72z"/><path fill="#131735" d="M282.435 64.39a2.36 2.36 0 100-4.72 2.36 2.36 0 000 4.72zm12.295 6.82a2.36 2.36 0 100-4.72 2.36 2.36 0 000 4.72z"/><path fill="#131735" d="M291.715 71.675a2.36 2.36 0 100-4.72 2.36 2.36 0 000 4.72z"/><path fill="#131735" d="M292.935 74.27a2.36 2.36 0 100-4.72 2.36 2.36 0 000 4.72zm-4.31-4.045a2.36 2.36 0 100-4.72 2.36 2.36 0 000 4.72z"/><path fill="#131735" d="M290.98 68.85a2.36 2.36 0 100-4.72 2.36 2.36 0 000 4.72z"/><path fill="#131735" d="M290.575 65.28a2.36 2.36 0 100-4.72 2.36 2.36 0 000 4.72z"/><path fill="#131735" d="M286.265 64.675a2.36 2.36 0 100-4.72 2.36 2.36 0 000 4.72z"/><path fill="#131735" d="M283.905 66.495a2.36 2.36 0 100-4.72 2.36 2.36 0 000 4.72z"/><path fill="#131735" d="M282.63 68.645a2.36 2.36 0 100-4.72 2.36 2.36 0 000 4.72z"/><path fill="#131735" d="M281.545 69.995a2.36 2.36 0 100-4.72 2.36 2.36 0 000 4.72z"/><path fill="#131735" d="M279.675 70.225a2.36 2.36 0 100-4.72 2.36 2.36 0 000 4.72z"/><path fill="#131735" d="M280.27 66.01a2.36 2.36 0 100-4.72 2.36 2.36 0 000 4.72z"/><path fill="#131735" d="M278.095 67.775a2.36 2.36 0 100-4.72 2.36 2.36 0 000 4.72z"/><path fill="#131735" d="M277.915 70.45a2.36 2.36 0 100-4.72 2.36 2.36 0 000 4.72z"/><path fill="#131735" d="M279.45 69c.199.003.397.016.595.04a5.786 5.786 0 00-1.265 3.145c-.023.39.012.78.105 1.16-1.63-.17-2.88-1.065-2.88-2.155C276 69.97 277.55 69 279.45 69zm-1.355-2.99a2.36 2.36 0 100-4.72 2.36 2.36 0 000 4.72z"/><path fill="#131735" d="M280.45 64.135a2.36 2.36 0 100-4.72 2.36 2.36 0 000 4.72z"/><path fill="#131735" d="M282.63 61.295a2.36 2.36 0 100-4.72 2.36 2.36 0 000 4.72z"/><path fill="#131735" d="M285.86 60.195a2.36 2.36 0 100-4.72 2.36 2.36 0 000 4.72z"/><path fill="#131735" d="M289.355 61.045a2.36 2.36 0 100-4.72 2.36 2.36 0 000 4.72z"/><path fill="#131735" d="M293.61 61.55a2.36 2.36 0 100-4.72 2.36 2.36 0 000 4.72z"/><path fill="#131735" d="M295.97 64.135a2.36 2.36 0 100-4.72 2.36 2.36 0 000 4.72z"/><path fill="#131735" d="M297.965 66.75a2.36 2.36 0 100-4.72 2.36 2.36 0 000 4.72z"/><path fill="#131735" d="M299.675 69.935a2.36 2.36 0 100-4.72 2.36 2.36 0 000 4.72z"/><path fill="#131735" d="M300.01 73.57a2.36 2.36 0 100-4.72 2.36 2.36 0 000 4.72z"/><path fill="#131735" d="M297.965 76.93a2.36 2.36 0 100-4.72 2.36 2.36 0 000 4.72z"/><path fill="#131735" d="M296.06 78.285a2.36 2.36 0 100-4.72 2.36 2.36 0 000 4.72zm-1.99-10.645a2.36 2.36 0 100-4.72 2.36 2.36 0 000 4.72z"/><path fill="#131735" d="M292.27 67.27a2.36 2.36 0 100-4.72 2.36 2.36 0 000 4.72z"/><path fill="#131735" d="M294.07 69.445a2.36 2.36 0 100-4.72 2.36 2.36 0 000 4.72z"/><path fill="#131735" d="M289.235 67.865a2.36 2.36 0 100-4.72 2.36 2.36 0 000 4.72z"/><path fill="#131735" d="M286.265 67.865a2.36 2.36 0 100-4.72 2.36 2.36 0 000 4.72z"/><path fill="#131735" d="M284.4 69.445a2.36 2.36 0 100-4.72 2.36 2.36 0 000 4.72z"/><path stroke="#131735" stroke-linecap="round" stroke-linejoin="round" stroke-width=".71" d="M287 73.21a1.165 1.165 0 00-1.46 0m-1.76 0a1.175 1.175 0 00-1.465 0m16.65 116.245c.317 1.415.508 2.856.57 4.305 0 0 .27 1.03-1.115 1.03s-1.5-1.03-1.5-1.03v-4.125m6.94 8.925s-3-.5-4.305-1.645a1.885 1.885 0 00-2.615 0 5.954 5.954 0 01-1.83 1.055 6.847 6.847 0 01-3 .315"/><path stroke="#131735" stroke-linecap="round" stroke-linejoin="round" stroke-width=".815" d="M253.035 92.32s-4.28-1.315-2.405-5.725c0 0-.135-1.9-2-.55a4.21 4.21 0 00-1.85 3.22s-3.15-.5-4.19.68c-4.08 4.61-.29 7.415-.29 7.415a4.3 4.3 0 004.72.365c1.935-1.435 2-3.805 1.735-5.465-.165-1.035-2.07-1.365-3.07-1.435"/><path stroke="#131735" stroke-linecap="round" stroke-linejoin="round" stroke-width=".765" d="M251.375 98.34l-1.61-.625m3.58-5.715s1.315 4.56-2.31 6.81"/><rect width="8.925" height="8.925" x="138.505" y="52.745" fill="#fff" stroke="#7B8E9F" stroke-width=".545" rx="1.545"/><rect width="8.925" height="8.925" x="138.505" y="66.31" fill="#fff" stroke="#7B8E9F" stroke-width=".545" rx="1.545"/><rect width="8.925" height="8.925" x="138.415" y="79.87" fill="#fff" stroke="#7B8E9F" stroke-width=".545" rx="1.545"/><rect width="8.925" height="8.925" x="138.415" y="93.435" fill="#fff" stroke="#7B8E9F" stroke-width=".545" rx="1.545"/><rect width="8.925" height="8.925" x="138.415" y="107" fill="#fff" stroke="#7B8E9F" stroke-width=".545" rx="1.545"/><rect width="8.925" height="8.925" x="138.415" y="120.56" fill="#fff" stroke="#7B8E9F" stroke-width=".545" rx="1.545"/><rect width="8.925" height="8.925" x="138.415" y="134.125" fill="#fff" stroke="#7B8E9F" stroke-width=".545" rx="1.545"/><rect width="5.83" height="5.83" x="140.05" y="54.295" fill="#7B8E9F" rx="1.01"/><rect width="5.83" height="5.83" x="140.05" y="135.675" fill="#7B8E9F" rx="1.01"/><path fill="#7B8E9F" d="M158.531 55.432h.684a1.848 1.848 0 00-.174-.768 1.455 1.455 0 00-.426-.54 1.717 1.717 0 00-.623-.31 2.904 2.904 0 00-1.505 0 1.92 1.92 0 00-.631.288 1.421 1.421 0 00-.608 1.2c0 .25.048.457.145.624a1.3 1.3 0 00.395.403c.167.101.354.185.562.25.208.061.418.117.631.168.218.045.431.091.638.137a2.6 2.6 0 01.555.182c.167.071.299.165.395.281a.667.667 0 01.152.456.89.89 0 01-.121.487.922.922 0 01-.319.304 1.516 1.516 0 01-.449.152 2.63 2.63 0 01-.486.045c-.203 0-.4-.025-.593-.076a1.511 1.511 0 01-.509-.235 1.278 1.278 0 01-.35-.403 1.28 1.28 0 01-.129-.593h-.684c0 .33.058.616.175.859.121.238.284.436.486.593.208.152.446.266.715.342a3.217 3.217 0 001.611.022c.253-.055.481-.146.684-.273a1.62 1.62 0 00.494-.502c.132-.207.197-.456.197-.745 0-.268-.05-.491-.152-.668a1.268 1.268 0 00-.395-.441 1.953 1.953 0 00-.555-.274 6.543 6.543 0 00-.638-.182 17.97 17.97 0 00-.631-.137 3.678 3.678 0 01-.562-.167 1.172 1.172 0 01-.395-.251.585.585 0 01-.145-.41c0-.178.033-.325.099-.441a.83.83 0 01.274-.289 1.24 1.24 0 01.395-.152c.147-.03.296-.046.448-.046.375 0 .682.09.92.266.243.173.385.454.425.844zm4.936 3.838v-3.93h-.646v2.22c0 .177-.025.342-.076.494a1.051 1.051 0 01-.213.388.958.958 0 01-.364.258c-.142.06-.312.091-.51.091-.248 0-.443-.07-.585-.213-.142-.141-.213-.334-.213-.577v-2.66h-.646v2.584c0 .213.021.408.061.585.046.172.122.322.228.448.107.127.246.226.418.297.172.066.388.099.646.099.289 0 .54-.056.753-.168.212-.116.387-.296.524-.54h.015v.624h.608zm.97-3.93v3.93h.646v-2.22c0-.176.023-.339.069-.486a1.15 1.15 0 01.22-.395.973.973 0 01.357-.258c.147-.061.32-.091.517-.091.248 0 .444.07.585.212.142.142.213.335.213.578v2.66h.646v-2.584c0-.213-.023-.405-.068-.578a1.065 1.065 0 00-.221-.456 1.055 1.055 0 00-.418-.296 1.703 1.703 0 00-.646-.106c-.582 0-1.008.238-1.276.714h-.016v-.623h-.608zm4.695 2c0-.193.02-.38.06-.563.041-.182.107-.344.198-.486.091-.142.213-.256.365-.342a1.11 1.11 0 01.555-.13c.223 0 .413.044.57.13.157.08.283.19.38.327.101.136.174.296.22.478a2.201 2.201 0 010 1.095 1.412 1.412 0 01-.205.479 1.127 1.127 0 01-.373.334 1.11 1.11 0 01-.554.13 1.18 1.18 0 01-.548-.122 1.132 1.132 0 01-.38-.327 1.58 1.58 0 01-.22-.464 2.14 2.14 0 01-.068-.54zm3.04 1.93v-5.426h-.646v2.021h-.016a.963.963 0 00-.266-.289 1.251 1.251 0 00-.326-.19 1.544 1.544 0 00-.35-.106 1.92 1.92 0 00-.327-.03 1.77 1.77 0 00-.79.167 1.605 1.605 0 00-.563.44 1.906 1.906 0 00-.334.647 2.862 2.862 0 00-.106.79c0 .279.038.542.114.79.076.249.187.467.334.654.152.188.339.337.562.448.228.112.494.168.798.168.274 0 .525-.048.753-.145a.948.948 0 00.501-.471h.016v.532h.646zm4.474-.015c-.111.066-.266.099-.463.099a.58.58 0 01-.403-.137c-.096-.096-.144-.251-.144-.464a1.58 1.58 0 01-.624.464 2.066 2.066 0 01-.76.137c-.177 0-.347-.02-.509-.061a1.17 1.17 0 01-.41-.19.94.94 0 01-.281-.335 1.199 1.199 0 01-.099-.509c0-.223.038-.405.114-.547a.981.981 0 01.296-.342c.127-.091.269-.16.426-.205a5.38 5.38 0 01.494-.114 5.04 5.04 0 01.501-.076c.162-.02.304-.046.426-.076a.768.768 0 00.289-.145c.071-.065.106-.16.106-.28a.628.628 0 00-.083-.343.518.518 0 00-.206-.197.793.793 0 00-.281-.092 2.047 2.047 0 00-.304-.022c-.273 0-.501.053-.684.16-.182.1-.281.296-.296.584h-.646c.01-.243.061-.448.152-.615.091-.167.213-.302.365-.403a1.49 1.49 0 01.516-.228 2.78 2.78 0 01.631-.068c.177 0 .352.012.525.038.177.025.336.078.478.16a.88.88 0 01.342.326c.086.142.13.327.13.555v2.021c0 .152.007.264.022.335.021.07.081.106.183.106a.638.638 0 00.197-.038v.502zm-1.048-2.014a.852.852 0 01-.32.137 7.747 7.747 0 01-.418.068 6.849 6.849 0 00-.433.06 1.5 1.5 0 00-.395.107.733.733 0 00-.289.22.607.607 0 00-.106.38c0 .107.02.198.061.274.045.071.101.13.167.175a.744.744 0 00.243.099c.091.02.187.03.289.03.213 0 .395-.028.547-.083a1.27 1.27 0 00.372-.22.903.903 0 00.213-.29.751.751 0 00.069-.296v-.661zm3.192 2.553a3.704 3.704 0 01-.228.487 1.155 1.155 0 01-.243.319.725.725 0 01-.296.182 1.038 1.038 0 01-.373.061c-.076 0-.152-.005-.228-.015a1.067 1.067 0 01-.22-.053v-.593a.93.93 0 00.19.06.76.76 0 00.19.031.552.552 0 00.532-.365l.266-.66-1.558-3.907h.73l1.147 3.215h.015l1.102-3.215h.684l-1.71 4.453zm-23.382 7.62v5.426h.684v-4.514h.015l1.695 4.514h.615l1.695-4.514h.015v4.514h.684v-5.426h-.988l-1.717 4.56-1.71-4.56h-.988zm6.97 3.465c0-.238.03-.448.091-.63.066-.188.154-.345.266-.472a1.122 1.122 0 01.866-.387 1.14 1.14 0 01.867.387c.111.127.197.284.258.471.066.183.099.393.099.631s-.033.451-.099.639a1.337 1.337 0 01-.258.463 1.156 1.156 0 01-.395.281 1.19 1.19 0 01-.95 0 1.168 1.168 0 01-.388-.28 1.42 1.42 0 01-.266-.464 2.06 2.06 0 01-.091-.639zm-.684 0c0 .289.04.557.121.806.081.248.203.466.365.653.162.183.362.327.601.434.238.1.511.152.82.152.314 0 .588-.051.821-.152.238-.107.438-.251.601-.434.162-.187.283-.405.364-.653.081-.249.122-.517.122-.806 0-.289-.041-.557-.122-.805a1.79 1.79 0 00-.364-.654 1.707 1.707 0 00-.601-.44 1.962 1.962 0 00-.821-.16 1.99 1.99 0 00-.82.16 1.69 1.69 0 00-.601.44c-.162.182-.284.4-.365.654a2.583 2.583 0 00-.121.805zm4.577-1.968v3.929h.646v-2.22c0-.177.022-.339.068-.486a1.17 1.17 0 01.22-.395.976.976 0 01.358-.258 1.34 1.34 0 01.516-.091c.249 0 .444.07.586.212.141.142.212.335.212.578v2.66h.646v-2.584a2.24 2.24 0 00-.068-.578 1.074 1.074 0 00-.22-.456 1.068 1.068 0 00-.418-.296 1.708 1.708 0 00-.646-.106c-.583 0-1.009.238-1.277.714h-.015v-.623h-.608zm4.694 1.999c0-.193.02-.38.061-.563a1.48 1.48 0 01.197-.486c.091-.142.213-.256.365-.342a1.11 1.11 0 01.555-.13c.223 0 .413.044.57.13.157.08.284.19.38.327.101.136.175.296.22.478a2.2 2.2 0 010 1.095c-.04.177-.109.337-.205.479a1.13 1.13 0 01-.372.334 1.11 1.11 0 01-.555.13c-.208 0-.39-.041-.547-.122a1.123 1.123 0 01-.38-.327 1.56 1.56 0 01-.221-.464 2.186 2.186 0 01-.068-.54zm3.04 1.93v-5.426h-.646v2.021h-.015a.975.975 0 00-.266-.289 1.27 1.27 0 00-.327-.19 1.534 1.534 0 00-.35-.106 1.902 1.902 0 00-.327-.03 1.77 1.77 0 00-.79.167 1.6 1.6 0 00-.562.44 1.907 1.907 0 00-.335.647 2.861 2.861 0 00-.106.79c0 .279.038.542.114.79.076.249.187.467.334.654.152.187.34.337.563.448.228.112.494.168.798.168.273 0 .524-.049.752-.145a.954.954 0 00.502-.471h.015v.532h.646zm4.475-.015c-.112.066-.266.099-.464.099a.58.58 0 01-.403-.137c-.096-.097-.144-.251-.144-.464a1.578 1.578 0 01-.623.464 2.073 2.073 0 01-.76.137c-.178 0-.348-.02-.51-.061a1.173 1.173 0 01-.41-.19.95.95 0 01-.281-.335 1.2 1.2 0 01-.099-.509c0-.223.038-.405.114-.547a.98.98 0 01.296-.342c.127-.091.269-.16.426-.205a5.38 5.38 0 01.494-.114c.177-.036.344-.061.502-.076.162-.02.304-.046.425-.076a.77.77 0 00.289-.145c.071-.066.106-.16.106-.28a.628.628 0 00-.083-.343.515.515 0 00-.205-.197.805.805 0 00-.282-.092 2.037 2.037 0 00-.304-.022c-.273 0-.501.053-.684.16-.182.1-.281.296-.296.584h-.646c.01-.243.061-.448.152-.615.091-.167.213-.302.365-.403.152-.106.324-.182.517-.228.197-.046.407-.068.63-.068a3.6 3.6 0 01.525.038c.177.025.337.078.479.16a.894.894 0 01.342.326c.086.142.129.327.129.555v2.021c0 .152.007.264.023.335.02.07.081.106.182.106a.642.642 0 00.198-.038v.502zm-1.049-2.014a.847.847 0 01-.319.137 8.308 8.308 0 01-.418.068 6.806 6.806 0 00-.434.06 1.522 1.522 0 00-.395.107.738.738 0 00-.289.22.607.607 0 00-.106.38c0 .107.02.198.061.274.045.071.101.13.167.175a.746.746 0 00.243.099c.091.02.188.03.289.03.213 0 .395-.028.547-.083a1.29 1.29 0 00.373-.22.915.915 0 00.212-.29.751.751 0 00.069-.296v-.661zm3.193 2.553a3.717 3.717 0 01-.228.487 1.14 1.14 0 01-.244.319.728.728 0 01-.296.182c-.106.04-.231.061-.372.061-.076 0-.152-.005-.228-.015a1.09 1.09 0 01-.221-.053v-.593a.936.936 0 00.19.06.734.734 0 00.19.031.523.523 0 00.327-.099c.091-.06.16-.15.205-.266l.266-.66-1.558-3.907h.73l1.147 3.215h.016l1.102-3.215h.684l-1.71 4.453zm-24 8.768v4.818h.722v-4.818h1.809v-.608h-4.34v.608h1.809zm5.581 4.818v-3.93h-.646v2.22c0 .177-.025.342-.076.494a1.065 1.065 0 01-.212.388.962.962 0 01-.365.258 1.29 1.29 0 01-.509.091c-.249 0-.444-.07-.586-.213-.141-.141-.212-.334-.212-.577v-2.66h-.646v2.584c0 .213.02.408.06.585.046.172.122.322.228.448.107.127.246.226.418.297.173.066.388.099.646.099.289 0 .54-.056.753-.168.213-.116.387-.296.524-.54h.015v.624h.608zm3.699-2.34h-2.257a1.29 1.29 0 01.327-.784 1.105 1.105 0 01.798-.327c.162 0 .309.031.44.092a.988.988 0 01.35.235 1 1 0 01.236.35c.06.137.096.281.106.433zm.623 1.094h-.638c-.056.258-.172.45-.35.577-.172.127-.395.19-.669.19-.212 0-.397-.035-.554-.106a1.109 1.109 0 01-.388-.281 1.146 1.146 0 01-.22-.41 1.583 1.583 0 01-.061-.495h2.941a3.055 3.055 0 00-.068-.752 2.08 2.08 0 00-.289-.73 1.642 1.642 0 00-.555-.547c-.228-.147-.517-.22-.866-.22-.269 0-.517.05-.745.152a1.79 1.79 0 00-.585.425 1.996 1.996 0 00-.38.646 2.346 2.346 0 00-.137.821c.01.299.053.575.129.828.081.254.2.472.357.654.157.182.35.324.578.426.233.1.507.152.821.152.446 0 .815-.112 1.109-.335.294-.223.484-.555.57-.995zm1.126.007h-.646c.01.243.061.451.152.623.091.168.213.304.365.41.152.102.326.176.524.221a2.912 2.912 0 001.216.008 1.54 1.54 0 00.54-.198 1.068 1.068 0 00.539-.973.902.902 0 00-.403-.782 1.409 1.409 0 00-.41-.206 4.598 4.598 0 00-.471-.129 14.56 14.56 0 00-.456-.099 3.362 3.362 0 01-.411-.121 1.125 1.125 0 01-.304-.183.382.382 0 01-.114-.28c0-.102.026-.183.076-.244a.498.498 0 01.198-.152.91.91 0 01.266-.084c.101-.015.2-.022.296-.022.107 0 .211.012.312.038.106.02.203.055.289.106a.636.636 0 01.311.517h.646a1.399 1.399 0 00-.152-.593.972.972 0 00-.349-.38 1.303 1.303 0 00-.494-.198 2.924 2.924 0 00-.616-.06c-.172 0-.347.022-.524.068a1.5 1.5 0 00-.471.198c-.137.086-.251.2-.342.342a.964.964 0 00-.13.509c0 .253.064.45.19.593.127.141.284.253.472.334.192.076.4.137.623.182.223.04.428.09.615.145.193.05.353.119.479.205a.43.43 0 01.19.38.49.49 0 01-.091.304.585.585 0 01-.236.175 1.11 1.11 0 01-.304.083 2.35 2.35 0 01-.319.023c-.131 0-.261-.013-.387-.038a1.202 1.202 0 01-.335-.121.74.74 0 01-.235-.236.747.747 0 01-.099-.365zm3.876-.691c0-.193.02-.38.061-.563a1.48 1.48 0 01.197-.486c.091-.142.213-.256.365-.342a1.11 1.11 0 01.555-.13c.223 0 .413.044.57.13.157.08.284.19.38.327.101.136.175.296.22.478a2.2 2.2 0 010 1.095c-.04.177-.109.337-.205.479a1.13 1.13 0 01-.372.334 1.11 1.11 0 01-.555.13c-.208 0-.39-.041-.547-.122a1.123 1.123 0 01-.38-.327 1.558 1.558 0 01-.221-.464 2.186 2.186 0 01-.068-.54zm3.04 1.93v-5.426h-.646v2.021h-.015a.976.976 0 00-.266-.289 1.27 1.27 0 00-.327-.19 1.539 1.539 0 00-.35-.106 1.902 1.902 0 00-.327-.03c-.298 0-.562.055-.79.167a1.6 1.6 0 00-.562.44 1.907 1.907 0 00-.335.647 2.862 2.862 0 00-.106.79c0 .279.038.542.114.79.076.249.187.467.334.654.152.188.34.337.563.448.228.112.494.168.798.168.273 0 .524-.049.752-.145a.954.954 0 00.502-.471h.015v.532h.646zm4.475-.015c-.112.066-.266.099-.464.099a.58.58 0 01-.403-.137c-.096-.097-.144-.251-.144-.464a1.578 1.578 0 01-.623.464 2.073 2.073 0 01-.76.137c-.178 0-.348-.02-.51-.061a1.171 1.171 0 01-.41-.19.95.95 0 01-.281-.335 1.2 1.2 0 01-.099-.509c0-.223.038-.405.114-.547a.98.98 0 01.296-.342c.127-.091.269-.16.426-.205a5.38 5.38 0 01.494-.114c.177-.036.344-.061.502-.076.162-.02.304-.046.425-.076a.77.77 0 00.289-.145c.071-.066.106-.16.106-.28a.628.628 0 00-.083-.343.516.516 0 00-.205-.197.805.805 0 00-.282-.092 2.037 2.037 0 00-.304-.022c-.273 0-.501.053-.684.16-.182.1-.281.296-.296.584h-.646c.01-.243.061-.448.152-.615.091-.167.213-.302.365-.403.152-.106.324-.182.517-.228.197-.046.407-.068.63-.068.178 0 .352.012.525.038.177.025.337.078.479.16a.894.894 0 01.342.326c.086.142.129.327.129.555v2.021c0 .152.007.264.023.335.02.07.081.106.182.106a.642.642 0 00.198-.038v.502zm-1.049-2.014a.847.847 0 01-.319.137 8.308 8.308 0 01-.418.068 6.878 6.878 0 00-.434.06 1.522 1.522 0 00-.395.107.739.739 0 00-.289.22.607.607 0 00-.106.38c0 .107.02.198.061.274.045.071.101.13.167.175a.746.746 0 00.243.099c.091.02.188.03.289.03.213 0 .395-.028.547-.083a1.29 1.29 0 00.373-.22.915.915 0 00.212-.29.751.751 0 00.069-.296v-.661zm3.193 2.553a3.71 3.71 0 01-.228.487 1.14 1.14 0 01-.244.319.728.728 0 01-.296.182c-.106.04-.231.061-.372.061-.076 0-.152-.005-.228-.015a1.083 1.083 0 01-.221-.053v-.593a.936.936 0 00.19.06.74.74 0 00.19.031.522.522 0 00.327-.099c.091-.06.16-.15.205-.266l.266-.66-1.558-3.907h.73l1.147 3.215h.016l1.102-3.215h.684l-1.71 4.453z"/><g fill="#7B8E9F" clip-path="url(#clip0)"><path d="M160.295 99.94l1.451-5.426h-.722l-1.102 4.514h-.015l-1.201-4.514h-.783l-1.216 4.514h-.015l-1.064-4.514h-.737l1.391 5.426h.752l1.254-4.56h.015l1.239 4.56h.753zm4.474-2.34h-2.257a1.29 1.29 0 01.327-.784 1.109 1.109 0 01.798-.326c.162 0 .309.03.441.09a.984.984 0 01.349.236c.102.097.18.213.236.35.061.137.096.281.106.433zm.624 1.094h-.639c-.055.258-.172.45-.349.577-.173.127-.396.19-.669.19-.213 0-.398-.035-.555-.106a1.118 1.118 0 01-.388-.281 1.162 1.162 0 01-.22-.41 1.583 1.583 0 01-.061-.495h2.941a2.961 2.961 0 00-.068-.752 2.08 2.08 0 00-.289-.73 1.633 1.633 0 00-.555-.547c-.228-.147-.516-.22-.866-.22-.268 0-.517.05-.745.152a1.79 1.79 0 00-.585.425 1.996 1.996 0 00-.38.646 2.37 2.37 0 00-.137.821c.01.299.053.575.129.828.082.254.201.472.358.654.157.182.349.324.577.426.233.1.507.152.821.152.446 0 .816-.112 1.11-.335.294-.223.484-.555.57-.995zm1.201-.684c0-.193.021-.38.061-.563.041-.182.107-.344.198-.486.091-.142.213-.256.365-.342.152-.086.336-.13.554-.13.223 0 .413.044.57.13.157.08.284.19.38.327.102.136.175.296.221.478a2.247 2.247 0 010 1.095 1.414 1.414 0 01-.205.479 1.137 1.137 0 01-.373.334 1.11 1.11 0 01-.555.13c-.207 0-.39-.041-.547-.122a1.123 1.123 0 01-.38-.327 1.556 1.556 0 01-.22-.464 2.14 2.14 0 01-.069-.54zm3.04 1.93v-5.426h-.646v2.021h-.015a.963.963 0 00-.266-.289 1.238 1.238 0 00-.327-.19 1.53 1.53 0 00-.349-.106 1.92 1.92 0 00-.327-.03 1.77 1.77 0 00-.79.167 1.604 1.604 0 00-.563.44 1.905 1.905 0 00-.334.647 2.862 2.862 0 00-.107.79c0 .279.038.542.114.79.076.249.188.466.335.654.152.188.339.337.562.448.228.112.494.168.798.168.274 0 .525-.049.753-.145a.948.948 0 00.501-.471h.015v.532h.646zm.994-3.93v3.93h.646v-2.22c0-.177.023-.339.069-.486a1.15 1.15 0 01.22-.395.964.964 0 01.357-.258c.147-.061.319-.091.517-.091.248 0 .443.07.585.212.142.142.213.335.213.578v2.66h.646v-2.584c0-.213-.023-.405-.068-.578a1.065 1.065 0 00-.221-.456 1.06 1.06 0 00-.418-.296 1.703 1.703 0 00-.646-.106c-.582 0-1.008.238-1.277.714h-.015v-.623h-.608zm6.952 1.59h-2.258a1.35 1.35 0 01.099-.426c.056-.137.132-.256.228-.358a1.109 1.109 0 01.798-.326c.162 0 .309.03.441.09a.997.997 0 01.35.236.99.99 0 01.235.35c.061.137.097.281.107.433zm.623 1.094h-.639c-.055.258-.172.45-.349.577-.172.127-.395.19-.669.19-.213 0-.398-.035-.555-.106a1.105 1.105 0 01-.387-.281 1.149 1.149 0 01-.221-.41 1.613 1.613 0 01-.061-.495h2.942a3.01 3.01 0 00-.069-.752 2.062 2.062 0 00-.289-.73 1.63 1.63 0 00-.554-.547c-.228-.147-.517-.22-.867-.22-.268 0-.517.05-.745.152a1.8 1.8 0 00-.585.425 1.996 1.996 0 00-.38.646 2.37 2.37 0 00-.137.821c.011.299.054.575.13.828.081.254.2.472.357.654.157.182.349.324.577.426.234.1.507.152.821.152.446 0 .816-.112 1.11-.335.294-.223.484-.555.57-.995zm1.125.007h-.646c.011.243.061.451.152.623.092.168.213.304.365.41.152.102.327.176.525.221.197.046.405.069.623.069.197 0 .395-.021.593-.061.202-.036.382-.101.539-.198a1.076 1.076 0 00.54-.973.902.902 0 00-.403-.782 1.409 1.409 0 00-.41-.206 4.547 4.547 0 00-.472-.129 14.56 14.56 0 00-.456-.099 3.344 3.344 0 01-.41-.121 1.095 1.095 0 01-.304-.183.382.382 0 01-.114-.28c0-.102.025-.183.076-.244a.498.498 0 01.198-.152.9.9 0 01.266-.084c.101-.015.2-.022.296-.022.106 0 .21.012.312.038.106.02.202.055.288.106a.626.626 0 01.312.517h.646a1.413 1.413 0 00-.152-.593.975.975 0 00-.35-.38 1.29 1.29 0 00-.494-.198 2.907 2.907 0 00-.615-.06 2.11 2.11 0 00-.525.068 1.5 1.5 0 00-.471.198c-.137.086-.251.2-.342.342a.964.964 0 00-.129.509c0 .253.063.45.19.593.127.142.284.253.471.334.193.076.401.137.623.182.223.04.429.09.616.145.193.05.352.119.479.205a.43.43 0 01.19.38.498.498 0 01-.091.304.592.592 0 01-.236.175 1.11 1.11 0 01-.304.083 2.36 2.36 0 01-.319.023c-.132 0-.261-.013-.388-.038a1.196 1.196 0 01-.334-.121.753.753 0 01-.236-.236.758.758 0 01-.099-.365zm3.876-.691c0-.193.021-.38.061-.563.041-.182.107-.344.198-.486.091-.142.213-.256.365-.342a1.11 1.11 0 01.554-.13c.223 0 .413.044.57.13.158.08.284.19.38.327.102.136.175.296.221.478a2.247 2.247 0 010 1.095 1.414 1.414 0 01-.205.479 1.137 1.137 0 01-.373.334 1.11 1.11 0 01-.555.13c-.207 0-.39-.041-.547-.122a1.133 1.133 0 01-.38-.327 1.58 1.58 0 01-.22-.464 2.14 2.14 0 01-.069-.54zm3.04 1.93v-5.426h-.646v2.021h-.015a.963.963 0 00-.266-.289 1.238 1.238 0 00-.327-.19 1.53 1.53 0 00-.349-.106 1.92 1.92 0 00-.327-.03 1.77 1.77 0 00-.79.167 1.604 1.604 0 00-.563.44 1.905 1.905 0 00-.334.647 2.862 2.862 0 00-.107.79c0 .279.038.542.114.79.076.249.188.466.335.654.152.188.339.337.562.448.228.112.494.168.798.168.274 0 .525-.049.753-.145a.948.948 0 00.501-.471h.015v.532h.646zm4.475-.015c-.111.066-.266.099-.463.099a.578.578 0 01-.403-.137c-.097-.097-.145-.251-.145-.464a1.571 1.571 0 01-.623.464 2.066 2.066 0 01-.76.137c-.177 0-.347-.021-.509-.061a1.171 1.171 0 01-.41-.19.953.953 0 01-.282-.335 1.2 1.2 0 01-.098-.509c0-.223.038-.405.114-.547a.97.97 0 01.296-.342c.127-.091.268-.16.426-.205.162-.046.326-.084.494-.114.177-.036.344-.061.501-.076.162-.02.304-.046.426-.076a.777.777 0 00.289-.145.368.368 0 00.106-.28.619.619 0 00-.084-.343.51.51 0 00-.205-.197.8.8 0 00-.281-.092 2.047 2.047 0 00-.304-.022c-.274 0-.502.053-.684.16-.182.1-.281.296-.296.584h-.646c.01-.243.06-.448.152-.615.091-.167.212-.302.364-.403.152-.106.325-.182.517-.228a2.78 2.78 0 01.631-.068 3.6 3.6 0 01.524.038c.178.025.337.078.479.16a.88.88 0 01.342.326c.086.142.129.327.129.555v2.021c0 .152.008.264.023.335.02.07.081.106.183.106a.641.641 0 00.197-.038v.502zm-1.049-2.014a.84.84 0 01-.319.137 8.125 8.125 0 01-.418.068 6.849 6.849 0 00-.433.06 1.51 1.51 0 00-.395.107.732.732 0 00-.289.22.609.609 0 00-.106.38c0 .107.02.198.06.274a.62.62 0 00.168.175c.07.046.152.079.243.099.091.02.187.03.289.03.212 0 .395-.028.547-.083a1.27 1.27 0 00.372-.22.935.935 0 00.213-.29.749.749 0 00.068-.296v-.661zm3.193 2.553a3.71 3.71 0 01-.228.487 1.15 1.15 0 01-.243.319.722.722 0 01-.296.182 1.038 1.038 0 01-.373.061c-.076 0-.152-.005-.228-.015a1.086 1.086 0 01-.22-.053v-.593a.942.942 0 00.19.061c.076.02.139.03.19.03.132 0 .24-.033.327-.099a.546.546 0 00.205-.266l.266-.66-1.558-3.907h.729l1.148 3.215h.015l1.102-3.215h.684l-1.71 4.453z"/></g><path fill="#7B8E9F" d="M156.624 109.237v4.818h.722v-4.818h1.809v-.608h-4.34v.608h1.809zm3.026-.608v5.426h.646v-2.219c0-.178.023-.34.069-.487.05-.152.124-.283.22-.395a.971.971 0 01.357-.258c.147-.061.319-.091.517-.091.248 0 .443.071.585.212.142.142.213.335.213.578v2.66h.646v-2.584c0-.213-.023-.405-.068-.578a1.069 1.069 0 00-.221-.456 1.06 1.06 0 00-.418-.296 1.701 1.701 0 00-.646-.106 1.82 1.82 0 00-.365.038c-.121.025-.24.065-.357.121a1.122 1.122 0 00-.304.205.835.835 0 00-.213.304h-.015v-2.074h-.646zm7.476 5.426v-3.929h-.646v2.219c0 .177-.025.342-.076.494a1.058 1.058 0 01-.213.388.965.965 0 01-.364.258 1.288 1.288 0 01-.51.091c-.248 0-.443-.071-.585-.213-.142-.141-.213-.334-.213-.577v-2.66h-.646v2.584c0 .213.021.408.061.585.046.172.122.322.228.448.107.127.246.226.418.297.172.066.388.099.646.099.289 0 .54-.056.753-.168.212-.116.387-.296.524-.539h.015v.623h.608zm.948-3.929v3.929h.646v-1.748c0-.253.025-.476.076-.669.05-.197.131-.365.243-.501.111-.137.258-.241.441-.312.182-.071.402-.106.661-.106v-.684c-.35-.011-.639.06-.867.212-.228.152-.42.388-.577.707h-.015v-.828h-.608zm2.948 2.69h-.646c.011.243.061.451.152.623.092.168.213.304.365.411.152.101.327.175.525.22.197.046.405.069.623.069.197 0 .395-.021.593-.061.202-.036.382-.102.539-.198a1.075 1.075 0 00.54-.973.903.903 0 00-.403-.782 1.408 1.408 0 00-.41-.206 4.867 4.867 0 00-.472-.129 18.568 18.568 0 00-.456-.099 3.365 3.365 0 01-.41-.121 1.1 1.1 0 01-.304-.183.38.38 0 01-.114-.281c0-.101.025-.182.076-.243a.493.493 0 01.198-.152.91.91 0 01.266-.084c.101-.015.2-.022.296-.022.106 0 .21.012.312.038.106.02.202.055.288.106a.632.632 0 01.312.517h.646a1.414 1.414 0 00-.152-.593.974.974 0 00-.35-.38 1.303 1.303 0 00-.494-.198 2.943 2.943 0 00-.615-.06 2.09 2.09 0 00-.525.068 1.495 1.495 0 00-.471.198c-.137.086-.251.2-.342.342a.96.96 0 00-.129.509c0 .253.063.451.19.593.127.141.284.253.471.334.193.076.4.137.623.182.223.041.429.089.616.145.193.05.352.119.479.205.126.086.19.213.19.38a.497.497 0 01-.091.304.597.597 0 01-.236.175c-.091.04-.193.068-.304.083a2.239 2.239 0 01-.319.023c-.132 0-.261-.012-.388-.038a1.207 1.207 0 01-.334-.121.76.76 0 01-.236-.236.746.746 0 01-.099-.365zm3.876-.691c0-.193.021-.38.061-.563.041-.182.107-.344.198-.486.091-.142.213-.256.365-.342a1.11 1.11 0 01.554-.129c.223 0 .413.043.57.129.157.081.284.19.38.327.102.136.175.296.221.478a2.256 2.256 0 010 1.095 1.418 1.418 0 01-.205.479 1.144 1.144 0 01-.373.334 1.111 1.111 0 01-.555.129c-.207 0-.39-.04-.547-.121a1.13 1.13 0 01-.38-.327 1.564 1.564 0 01-.22-.464 2.136 2.136 0 01-.069-.539zm3.04 1.93v-5.426h-.646v2.021h-.015a.97.97 0 00-.266-.289 1.252 1.252 0 00-.327-.19 1.55 1.55 0 00-.349-.106 1.948 1.948 0 00-.327-.03 1.77 1.77 0 00-.79.167 1.594 1.594 0 00-.563.441 1.895 1.895 0 00-.334.646 2.856 2.856 0 00-.107.79c0 .279.038.542.114.79.076.249.188.467.335.654.152.187.339.337.562.448.228.112.494.168.798.168.274 0 .525-.049.753-.145a.946.946 0 00.501-.471h.015v.532h.646zm4.475-.015c-.111.066-.266.099-.464.099a.578.578 0 01-.402-.137c-.097-.096-.145-.251-.145-.464a1.568 1.568 0 01-.623.464 2.07 2.07 0 01-.76.137c-.177 0-.347-.021-.509-.061a1.196 1.196 0 01-.411-.19.96.96 0 01-.281-.335 1.194 1.194 0 01-.099-.509c0-.223.038-.405.114-.547a.97.97 0 01.297-.342c.127-.091.268-.16.425-.205.163-.046.327-.084.494-.114.178-.036.345-.061.502-.076.162-.02.304-.046.426-.076a.77.77 0 00.288-.145c.071-.065.107-.159.107-.281a.618.618 0 00-.084-.342.505.505 0 00-.205-.197.809.809 0 00-.281-.092 2.073 2.073 0 00-.304-.022c-.274 0-.502.053-.684.159-.183.102-.281.297-.297.585h-.646c.011-.243.061-.448.152-.615.092-.167.213-.302.365-.403.152-.106.325-.182.517-.228a2.78 2.78 0 01.631-.068c.177 0 .352.012.524.038.178.025.337.078.479.159a.88.88 0 01.342.327c.086.142.129.327.129.555v2.021c0 .152.008.264.023.335.02.071.081.106.182.106a.622.622 0 00.198-.038v.502zm-1.049-2.014a.847.847 0 01-.319.137 8.137 8.137 0 01-.418.068 6.253 6.253 0 00-.433.061 1.51 1.51 0 00-.395.106.73.73 0 00-.289.221.603.603 0 00-.107.38.58.58 0 00.061.273.635.635 0 00.167.175.728.728 0 00.244.099c.091.02.187.03.288.03.213 0 .396-.028.548-.083a1.25 1.25 0 00.372-.221.926.926 0 00.213-.289.764.764 0 00.068-.296v-.661zm3.193 2.553a3.71 3.71 0 01-.228.487 1.15 1.15 0 01-.243.319.722.722 0 01-.296.182 1.038 1.038 0 01-.373.061c-.076 0-.152-.005-.228-.015a1.086 1.086 0 01-.22-.053v-.593a.922.922 0 00.19.061c.076.02.139.03.19.03.131 0 .24-.033.327-.099a.546.546 0 00.205-.266l.266-.661-1.558-3.906h.729l1.148 3.215h.015l1.102-3.215h.684l-1.71 4.453zm-29.164 7.065v5.426h.722v-2.485h2.492v-.608h-2.492v-1.725h2.842v-.608h-3.564zm4.234 1.497v3.929h.646v-1.748c0-.253.026-.476.076-.669.051-.197.132-.365.244-.501.111-.137.258-.241.44-.312a1.83 1.83 0 01.662-.106v-.684c-.35-.011-.639.06-.867.212-.228.152-.42.388-.577.707h-.016v-.828h-.608zm3.238-.707v-.79h-.646v.79h.646zm-.646.707v3.929h.646v-3.929h-.646zm2.118 1.999c0-.193.02-.38.061-.563.04-.182.106-.344.197-.486.092-.142.213-.256.365-.342.152-.086.337-.129.555-.129.223 0 .413.043.57.129.157.081.284.19.38.327.101.136.175.296.22.478a2.21 2.21 0 010 1.095 1.38 1.38 0 01-.205.479 1.13 1.13 0 01-.372.334 1.111 1.111 0 01-.555.129c-.208 0-.39-.04-.547-.121a1.12 1.12 0 01-.38-.327 1.591 1.591 0 01-.221-.464 2.182 2.182 0 01-.068-.539zm3.04 1.93v-5.426h-.646v2.021h-.015a.983.983 0 00-.266-.289 1.252 1.252 0 00-.327-.19 1.542 1.542 0 00-.35-.106 1.927 1.927 0 00-.326-.03c-.299 0-.563.055-.791.167a1.59 1.59 0 00-.562.441 1.897 1.897 0 00-.335.646 2.894 2.894 0 00.008 1.58c.076.249.188.467.334.654.152.187.34.337.563.448.228.112.494.168.798.168.273 0 .524-.049.752-.145a.952.952 0 00.502-.471h.015v.532h.646zm4.475-.015c-.112.066-.266.099-.464.099a.582.582 0 01-.403-.137c-.096-.096-.144-.251-.144-.464a1.568 1.568 0 01-.623.464 2.074 2.074 0 01-.76.137c-.178 0-.347-.021-.509-.061a1.196 1.196 0 01-.411-.19.96.96 0 01-.281-.335 1.194 1.194 0 01-.099-.509c0-.223.038-.405.114-.547a.97.97 0 01.297-.342c.126-.091.268-.16.425-.205.162-.046.327-.084.494-.114.178-.036.345-.061.502-.076.162-.02.304-.046.425-.076a.774.774 0 00.289-.145c.071-.065.107-.159.107-.281a.618.618 0 00-.084-.342.51.51 0 00-.205-.197.809.809 0 00-.281-.092 2.083 2.083 0 00-.304-.022c-.274 0-.502.053-.684.159-.183.102-.282.297-.297.585h-.646c.01-.243.061-.448.152-.615.091-.167.213-.302.365-.403.152-.106.324-.182.517-.228.197-.046.408-.068.631-.068.177 0 .352.012.524.038.177.025.337.078.479.159a.88.88 0 01.342.327c.086.142.129.327.129.555v2.021c0 .152.008.264.023.335.02.071.081.106.182.106a.622.622 0 00.198-.038v.502zm-1.049-2.014a.847.847 0 01-.319.137 8.137 8.137 0 01-.418.068 6.253 6.253 0 00-.433.061 1.53 1.53 0 00-.396.106.733.733 0 00-.288.221.603.603 0 00-.107.38c0 .106.02.197.061.273a.62.62 0 00.167.175.731.731 0 00.243.099c.092.02.188.03.289.03.213 0 .395-.028.547-.083.152-.061.277-.135.373-.221a.926.926 0 00.213-.289.764.764 0 00.068-.296v-.661zm3.193 2.553a3.71 3.71 0 01-.228.487 1.15 1.15 0 01-.243.319.726.726 0 01-.297.182c-.106.041-.23.061-.372.061-.076 0-.152-.005-.228-.015a1.096 1.096 0 01-.221-.053v-.593a.942.942 0 00.19.061c.076.02.14.03.19.03a.522.522 0 00.327-.099.54.54 0 00.205-.266l.266-.661-1.558-3.906h.73l1.148 3.215h.015l1.102-3.215h.684l-1.71 4.453zm-15.465 9.753h.684a1.85 1.85 0 00-.174-.768 1.46 1.46 0 00-.426-.539 1.716 1.716 0 00-.623-.312 2.895 2.895 0 00-1.505 0 1.943 1.943 0 00-.631.289 1.422 1.422 0 00-.608 1.201c0 .248.048.456.145.623.101.162.233.296.395.403.167.101.354.185.562.251.208.06.418.116.631.167.218.045.431.091.638.137a2.6 2.6 0 01.555.182c.167.071.299.165.395.281a.668.668 0 01.152.456.89.89 0 01-.121.487.929.929 0 01-.319.304 1.533 1.533 0 01-.449.152c-.162.03-.324.045-.486.045-.203 0-.4-.025-.593-.076a1.506 1.506 0 01-.509-.235 1.287 1.287 0 01-.35-.403 1.28 1.28 0 01-.129-.593h-.684c0 .329.058.616.175.859.121.238.284.436.486.593.208.152.446.266.715.342a3.217 3.217 0 001.611.022c.253-.055.481-.147.684-.273a1.62 1.62 0 00.494-.502 1.36 1.36 0 00.197-.745c0-.268-.05-.491-.152-.668a1.257 1.257 0 00-.395-.441 1.944 1.944 0 00-.555-.274 6.325 6.325 0 00-.638-.182 15.954 15.954 0 00-.631-.137 3.713 3.713 0 01-.562-.167 1.181 1.181 0 01-.395-.251.584.584 0 01-.145-.41c0-.178.033-.325.099-.441a.827.827 0 01.274-.289c.116-.071.248-.122.395-.152.147-.03.296-.046.448-.046.375 0 .682.089.92.266.243.173.385.454.425.844zm5.164 3.823c-.111.066-.266.099-.463.099a.579.579 0 01-.403-.137c-.097-.096-.145-.251-.145-.464a1.568 1.568 0 01-.623.464 2.07 2.07 0 01-.76.137c-.177 0-.347-.021-.509-.061a1.182 1.182 0 01-.41-.19.952.952 0 01-.282-.335 1.194 1.194 0 01-.098-.509c0-.223.038-.405.114-.547a.968.968 0 01.296-.342c.127-.091.268-.16.426-.205.162-.046.326-.084.494-.114.177-.036.344-.061.501-.076.162-.02.304-.046.426-.076a.782.782 0 00.289-.145c.07-.065.106-.159.106-.281a.618.618 0 00-.084-.342.505.505 0 00-.205-.197.809.809 0 00-.281-.092 2.073 2.073 0 00-.304-.022c-.274 0-.502.053-.684.159-.182.102-.281.297-.296.585h-.646c.01-.243.06-.448.152-.615.091-.167.212-.302.364-.403.152-.106.325-.182.517-.228a2.78 2.78 0 01.631-.068c.177 0 .352.012.524.038.178.025.337.078.479.159a.88.88 0 01.342.327c.086.142.129.327.129.555v2.021c0 .152.008.264.023.335.02.071.081.106.183.106a.621.621 0 00.197-.038v.502zm-1.049-2.014a.847.847 0 01-.319.137 8.137 8.137 0 01-.418.068 6.253 6.253 0 00-.433.061 1.51 1.51 0 00-.395.106.73.73 0 00-.289.221c-.071.091-.106.217-.106.38 0 .106.02.197.06.273a.624.624 0 00.168.175c.07.046.152.079.243.099.091.02.187.03.289.03.212 0 .395-.028.547-.083a1.25 1.25 0 00.372-.221.926.926 0 00.213-.289.746.746 0 00.068-.296v-.661zm2.547-1.9v-1.178h-.646v1.178h-.669v.57h.669v2.5c0 .183.018.33.053.441a.551.551 0 00.16.258.694.694 0 00.289.13c.121.02.266.03.433.03h.494v-.57h-.296c-.102 0-.185-.003-.251-.008a.338.338 0 01-.145-.053.214.214 0 01-.076-.106.895.895 0 01-.015-.183v-2.439h.783v-.57h-.783zm4.753 3.929v-3.929h-.646v2.219c0 .177-.025.342-.076.494a1.07 1.07 0 01-.212.388.968.968 0 01-.365.258 1.286 1.286 0 01-.509.091c-.249 0-.444-.071-.586-.213-.141-.141-.212-.334-.212-.577v-2.66h-.646v2.584c0 .213.02.408.06.585.046.172.122.322.228.448.107.127.246.226.418.297.173.066.388.099.646.099.289 0 .54-.056.753-.168.213-.116.387-.296.524-.539h.015v.623h.608zm.948-3.929v3.929h.646v-1.748c0-.253.025-.476.076-.669.051-.197.132-.365.243-.501.112-.137.258-.241.441-.312.182-.071.403-.106.661-.106v-.684c-.35-.011-.638.06-.866.212-.228.152-.421.388-.578.707h-.015v-.828h-.608zm2.891 1.999c0-.193.02-.38.061-.563.04-.182.106-.344.198-.486.091-.142.212-.256.364-.342.152-.086.337-.129.555-.129.223 0 .413.043.57.129.157.081.284.19.38.327.101.136.175.296.221.478a2.256 2.256 0 010 1.095 1.4 1.4 0 01-.206.479 1.13 1.13 0 01-.372.334 1.111 1.111 0 01-.555.129c-.208 0-.39-.04-.547-.121a1.12 1.12 0 01-.38-.327 1.564 1.564 0 01-.22-.464 2.136 2.136 0 01-.069-.539zm3.04 1.93v-5.426h-.646v2.021h-.015a.983.983 0 00-.266-.289 1.252 1.252 0 00-.327-.19 1.55 1.55 0 00-.349-.106 1.948 1.948 0 00-.327-.03c-.299 0-.563.055-.791.167a1.59 1.59 0 00-.562.441 1.895 1.895 0 00-.334.646 2.856 2.856 0 00-.107.79c0 .279.038.542.114.79.076.249.188.467.335.654.152.187.339.337.562.448.228.112.494.168.798.168.274 0 .524-.049.752-.145a.948.948 0 00.502-.471h.015v.532h.646zm4.475-.015c-.112.066-.266.099-.464.099a.582.582 0 01-.403-.137c-.096-.096-.144-.251-.144-.464a1.568 1.568 0 01-.623.464 2.074 2.074 0 01-.76.137c-.178 0-.347-.021-.509-.061a1.196 1.196 0 01-.411-.19.96.96 0 01-.281-.335 1.194 1.194 0 01-.099-.509c0-.223.038-.405.114-.547a.97.97 0 01.297-.342c.126-.091.268-.16.425-.205.162-.046.327-.084.494-.114.178-.036.345-.061.502-.076.162-.02.304-.046.425-.076a.774.774 0 00.289-.145c.071-.065.107-.159.107-.281a.618.618 0 00-.084-.342.51.51 0 00-.205-.197.809.809 0 00-.281-.092 2.083 2.083 0 00-.304-.022c-.274 0-.502.053-.684.159-.183.102-.282.297-.297.585h-.646c.01-.243.061-.448.152-.615.091-.167.213-.302.365-.403.152-.106.324-.182.517-.228.197-.046.408-.068.631-.068.177 0 .352.012.524.038.177.025.337.078.479.159a.88.88 0 01.342.327c.086.142.129.327.129.555v2.021c0 .152.008.264.023.335.02.071.081.106.182.106a.622.622 0 00.198-.038v.502zm-1.049-2.014a.847.847 0 01-.319.137 8.137 8.137 0 01-.418.068 6.253 6.253 0 00-.433.061 1.53 1.53 0 00-.396.106.733.733 0 00-.288.221.603.603 0 00-.107.38c0 .106.02.197.061.273a.62.62 0 00.167.175.731.731 0 00.243.099c.092.02.188.03.289.03.213 0 .395-.028.547-.083.152-.061.277-.135.373-.221a.926.926 0 00.213-.289.764.764 0 00.068-.296v-.661zm3.193 2.553a3.71 3.71 0 01-.228.487 1.15 1.15 0 01-.243.319.72.72 0 01-.297.182c-.106.041-.23.061-.372.061-.076 0-.152-.005-.228-.015a1.096 1.096 0 01-.221-.053v-.593c.056.025.12.046.19.061.076.02.14.03.19.03a.522.522 0 00.327-.099.54.54 0 00.205-.266l.266-.661-1.558-3.906h.73l1.148 3.215h.015l1.102-3.215h.684l-1.71 4.453z"/><defs><clipPath id="clip0"><path fill="#fff" d="M0 0h41v10H0z" transform="translate(154.8 92.94)"/></clipPath></defs></svg>