<svg width="106" height="104" viewBox="0 0 106 104" fill="none" xmlns="http://www.w3.org/2000/svg">
<mask id="mask0_1543_155697" style="mask-type:alpha" maskUnits="userSpaceOnUse" x="1" y="0" width="105" height="104">
<path d="M53.5833 103.638C82.2023 103.638 105.402 80.4381 105.402 51.8192C105.402 23.2002 82.2023 0 53.5833 0C24.9644 0 1.76416 23.2002 1.76416 51.8192C1.76416 80.4381 24.9644 103.638 53.5833 103.638Z" fill="url(#paint0_linear_1543_155697)"/>
</mask>
<g mask="url(#mask0_1543_155697)">
<path d="M53.259 103.033C82.0572 103.033 105.403 79.9682 105.403 51.5164C105.403 23.0647 82.0572 0 53.259 0C24.4608 0 1.11523 23.0647 1.11523 51.5164C1.11523 79.9682 24.4608 103.033 53.259 103.033Z" fill="url(#paint1_linear_1543_155697)"/>
<path d="M70.9418 27.6929C68.8767 27.6929 67.2026 29.3669 67.2026 31.432V158.56H198.069V27.6929H70.9418ZM197.685 35.828H189.87V28.0132H197.685V35.828ZM132.796 84.7669V76.9521H140.611V84.7669H132.796ZM140.611 85.1513V92.9661H132.796V85.1513H140.611ZM132.476 84.7669H124.661V76.9521H132.476V84.7669ZM132.476 85.1513V92.9661H124.661V85.1513H132.476ZM124.277 92.9661H116.462V85.1513H124.277V92.9661ZM124.277 93.2864V101.101H116.462V93.2864H124.277ZM124.661 93.2864H132.476V101.101H124.661V93.2864ZM132.476 101.422V109.236H124.661V101.422H132.476ZM132.796 101.422H140.611V109.236H132.796V101.422ZM132.796 101.101V93.2864H140.611V101.101H132.796ZM140.931 93.2864H148.746V101.101H140.931V93.2864ZM140.931 92.9661V85.1513H148.746V92.9661H140.931ZM140.931 84.7669V76.9521H148.746V84.7669H140.931ZM140.931 76.6318V68.8169H148.746V76.6318H140.931ZM140.611 76.6318H132.796V68.8169H140.611V76.6318ZM132.476 76.6318H124.661V68.8169H132.476V76.6318ZM124.277 76.6318H116.462V68.8169H124.277V76.6318ZM124.277 76.9521V84.7669H116.462V76.9521H124.277ZM116.142 84.7669H108.327V76.9521H116.142V84.7669ZM116.142 85.1513V92.9661H108.327V85.1513H116.142ZM116.142 93.2864V101.101H108.327V93.2864H116.142ZM116.142 101.422V109.236H108.327V101.422H116.142ZM116.462 101.422H124.277V109.236H116.462V101.422ZM124.277 109.621V117.436H116.462V109.621H124.277ZM124.661 109.621H132.476V117.436H124.661V109.621ZM132.796 109.621H140.611V117.436H132.796V109.621ZM140.931 109.621H148.746V117.436H140.931V109.621ZM140.931 109.236V101.422H148.746V109.236H140.931ZM149.131 101.422H156.945V109.236H149.131V101.422ZM149.131 101.101V93.2864H156.945V101.101H149.131ZM149.131 92.9661V85.1513H156.945V92.9661H149.131ZM149.131 84.7669V76.9521H156.945V84.7669H149.131ZM149.131 76.6318V68.8169H156.945V76.6318H149.131ZM149.131 68.4967V60.6818H156.945V68.4967H149.131ZM148.746 68.4967H140.931V60.6818H148.746V68.4967ZM140.611 68.4967H132.796V60.6818H140.611V68.4967ZM132.476 68.4967H124.661V60.6818H132.476V68.4967ZM124.277 68.4967H116.462V60.6818H124.277V68.4967ZM116.142 68.4967H108.327V60.6818H116.142V68.4967ZM116.142 68.8169V76.6318H108.327V68.8169H116.142ZM108.006 76.6318H100.192V68.8169H108.006V76.6318ZM108.006 76.9521V84.7669H100.192V76.9521H108.006ZM108.006 85.1513V92.9661H100.192V85.1513H108.006ZM108.006 93.2864V101.101H100.192V93.2864H108.006ZM108.006 101.422V109.236H100.192V101.422H108.006ZM108.006 109.621V117.436H100.192V109.621H108.006ZM108.327 109.621H116.142V117.436H108.327V109.621ZM116.142 117.756V125.571H108.327V117.756H116.142ZM116.462 117.756H124.277V125.571H116.462V117.756ZM124.661 117.756H132.476V125.571H124.661V117.756ZM132.796 117.756H140.611V125.571H132.796V117.756ZM140.931 117.756H148.746V125.571H140.931V117.756ZM149.131 117.756H156.945V125.571H149.131V117.756ZM149.131 117.436V109.621H156.945V117.436H149.131ZM157.266 109.621H165.081V117.436H157.266V109.621ZM157.266 109.236V101.422H165.081V109.236H157.266ZM157.266 101.101V93.2864H165.081V101.101H157.266ZM157.266 92.9661V85.1513H165.081V92.9661H157.266ZM157.266 84.7669V76.9521H165.081V84.7669H157.266ZM157.266 76.6318V68.8169H165.081V76.6318H157.266ZM157.266 68.4967V60.6818H165.081V68.4967H157.266ZM157.266 60.2975V52.4826H165.081V60.2975H157.266ZM156.945 60.2975H149.131V52.4826H156.945V60.2975ZM148.746 60.2975H140.931V52.4826H148.746V60.2975ZM140.611 60.2975H132.796V52.4826H140.611V60.2975ZM132.476 60.2975H124.661V52.4826H132.476V60.2975ZM124.277 60.2975H116.462V52.4826H124.277V60.2975ZM116.142 60.2975H108.327V52.4826H116.142V60.2975ZM108.006 60.2975H100.192V52.4826H108.006V60.2975ZM108.006 60.6818V68.4967H100.192V60.6818H108.006ZM99.8072 68.4967H91.9924V60.6818H99.8072V68.4967ZM99.8072 68.8169V76.6318H91.9924V68.8169H99.8072ZM99.8072 76.9521V84.7669H91.9924V76.9521H99.8072ZM99.8072 85.1513V92.9661H91.9924V85.1513H99.8072ZM99.8072 93.2864V101.101H91.9924V93.2864H99.8072ZM99.8072 101.422V109.236H91.9924V101.422H99.8072ZM99.8072 109.621V117.436H91.9924V109.621H99.8072ZM99.8072 117.756V125.571H91.9924V117.756H99.8072ZM100.192 117.756H108.006V125.571H100.192V117.756ZM108.006 125.891V133.706H100.192V125.891H108.006ZM108.327 125.891H116.142V133.706H108.327V125.891ZM116.462 125.891H124.277V133.706H116.462V125.891ZM124.661 125.891H132.476V133.706H124.661V125.891ZM132.796 125.891H140.611V133.706H132.796V125.891ZM140.931 125.891H148.746V133.706H140.931V125.891ZM149.131 125.891H156.945V133.706H149.131V125.891ZM157.266 125.891H165.081V133.706H157.266V125.891ZM157.266 125.571V117.756H165.081V125.571H157.266ZM165.401 117.756H173.216V125.571H165.401V117.756ZM165.401 117.436V109.621H173.216V117.436H165.401ZM165.401 109.236V101.422H173.216V109.236H165.401ZM165.401 101.101V93.2864H173.216V101.101H165.401ZM165.401 92.9661V85.1513H173.216V92.9661H165.401ZM165.401 84.7669V76.9521H173.216V84.7669H165.401ZM165.401 76.6318V68.8169H173.216V76.6318H165.401ZM165.401 68.4967V60.6818H173.216V68.4967H165.401ZM165.401 60.2975V52.4826H173.216V60.2975H165.401ZM165.401 52.1623V44.3475H173.216V52.1623H165.401ZM165.081 52.1623H157.266V44.3475H165.081V52.1623ZM156.945 52.1623H149.131V44.3475H156.945V52.1623ZM148.746 52.1623H140.931V44.3475H148.746V52.1623ZM140.611 52.1623H132.796V44.3475H140.611V52.1623ZM132.476 52.1623H124.661V44.3475H132.476V52.1623ZM124.277 52.1623H116.462V44.3475H124.277V52.1623ZM116.142 52.1623H108.327V44.3475H116.142V52.1623ZM108.006 52.1623H100.192V44.3475H108.006V52.1623ZM99.8072 52.1623H91.9924V44.3475H99.8072V52.1623ZM99.8072 52.4826V60.2975H91.9924V52.4826H99.8072ZM91.6721 60.2975H83.8572V52.4826H91.6721V60.2975ZM91.6721 60.6818V68.4967H83.8572V60.6818H91.6721ZM91.6721 68.8169V76.6318H83.8572V68.8169H91.6721ZM91.6721 76.9521V84.7669H83.8572V76.9521H91.6721ZM91.6721 85.1513V92.9661H83.8572V85.1513H91.6721ZM91.6721 93.2864V101.101H83.8572V93.2864H91.6721ZM91.6721 101.422V109.236H83.8572V101.422H91.6721ZM91.6721 109.621V117.436H83.8572V109.621H91.6721ZM91.6721 117.756V125.571H83.8572V117.756H91.6721ZM91.6721 125.891V133.706H83.8572V125.891H91.6721ZM91.9924 125.891H99.8072V133.706H91.9924V125.891ZM99.8072 134.09V141.905H91.9924V134.09H99.8072ZM100.192 134.09H108.006V141.905H100.192V134.09ZM108.327 134.09H116.142V141.905H108.327V134.09ZM116.462 134.09H124.277V141.905H116.462V134.09ZM124.661 134.09H132.476V141.905H124.661V134.09ZM132.796 134.09H140.611V141.905H132.796V134.09ZM140.931 134.09H148.746V141.905H140.931V134.09ZM149.131 134.09H156.945V141.905H149.131V134.09ZM157.266 134.09H165.081V141.905H157.266V134.09ZM165.401 134.09H173.216V141.905H165.401V134.09ZM165.401 133.706V125.891H173.216V133.706H165.401ZM173.6 125.891H181.415V133.706H173.6V125.891ZM173.6 125.571V117.756H181.415V125.571H173.6ZM173.6 117.436V109.621H181.415V117.436H173.6ZM173.6 109.236V101.422H181.415V109.236H173.6ZM173.6 101.101V93.2864H181.415V101.101H173.6ZM173.6 92.9661V85.1513H181.415V92.9661H173.6ZM173.6 84.7669V76.9521H181.415V84.7669H173.6ZM173.6 76.6318V68.8169H181.415V76.6318H173.6ZM173.6 68.4967V60.6818H181.415V68.4967H173.6ZM173.6 60.2975V52.4826H181.415V60.2975H173.6ZM173.6 52.1623V44.3475H181.415V52.1623H173.6ZM173.6 44.0272V36.2123H181.415V44.0272H173.6ZM173.216 44.0272H165.401V36.2123H173.216V44.0272ZM165.081 44.0272H157.266V36.2123H165.081V44.0272ZM156.945 44.0272H149.131V36.2123H156.945V44.0272ZM148.746 44.0272H140.931V36.2123H148.746V44.0272ZM140.611 44.0272H132.796V36.2123H140.611V44.0272ZM132.476 44.0272H124.661V36.2123H132.476V44.0272ZM124.277 44.0272H116.462V36.2123H124.277V44.0272ZM116.142 44.0272H108.327V36.2123H116.142V44.0272ZM108.006 44.0272H100.192V36.2123H108.006V44.0272ZM99.8072 44.0272H91.9924V36.2123H99.8072V44.0272ZM91.6721 44.0272H83.8572V36.2123H91.6721V44.0272ZM91.6721 44.3475V52.1623H83.8572V44.3475H91.6721ZM83.537 52.1623H75.7221V44.3475H83.537V52.1623ZM83.537 52.4826V60.2975H75.7221V52.4826H83.537ZM83.537 60.6818V68.4967H75.7221V60.6818H83.537ZM83.537 68.8169V76.6318H75.7221V68.8169H83.537ZM83.537 76.9521V84.7669H75.7221V76.9521H83.537ZM83.537 85.1513V92.9661H75.7221V85.1513H83.537ZM83.537 93.2864V101.101H75.7221V93.2864H83.537ZM83.537 101.422V109.236H75.7221V101.422H83.537ZM83.537 109.621V117.436H75.7221V109.621H83.537ZM83.537 117.756V125.571H75.7221V117.756H83.537ZM83.537 125.891V133.706H75.7221V125.891H83.537ZM83.537 134.09V141.905H75.7221V134.09H83.537ZM83.8572 134.09H91.6721V141.905H83.8572V134.09ZM91.6721 142.225V150.04H83.8572V142.225H91.6721ZM91.9924 142.225H99.8072V150.04H91.9924V142.225ZM100.192 142.225H108.006V150.04H100.192V142.225ZM108.327 142.225H116.142V150.04H108.327V142.225ZM116.462 142.225H124.277V150.04H116.462V142.225ZM124.661 142.225H132.476V150.04H124.661V142.225ZM132.796 142.225H140.611V150.04H132.796V142.225ZM140.931 142.225H148.746V150.04H140.931V142.225ZM149.131 142.225H156.945V150.04H149.131V142.225ZM157.266 142.225H165.081V150.04H157.266V142.225ZM165.401 142.225H173.216V150.04H165.401V142.225ZM173.6 142.225H181.415V150.04H173.6V142.225ZM173.6 141.905V134.09H181.415V141.905H173.6ZM181.735 134.09H189.55V141.905H181.735V134.09ZM181.735 133.706V125.891H189.55V133.706H181.735ZM181.735 125.571V117.756H189.55V125.571H181.735ZM181.735 117.436V109.621H189.55V117.436H181.735ZM181.735 109.236V101.422H189.55V109.236H181.735ZM181.735 101.101V93.2864H189.55V101.101H181.735ZM181.735 92.9661V85.1513H189.55V92.9661H181.735ZM181.735 84.7669V76.9521H189.55V84.7669H181.735ZM181.735 76.6318V68.8169H189.55V76.6318H181.735ZM181.735 68.4967V60.6818H189.55V68.4967H181.735ZM181.735 60.2975V52.4826H189.55V60.2975H181.735ZM181.735 52.1623V44.3475H189.55V52.1623H181.735ZM181.735 44.0272V36.2123H189.55V44.0272H181.735ZM181.735 35.828V28.0132H189.55V35.828H181.735ZM181.415 35.828H173.6V28.0132H181.415V35.828ZM173.216 35.828H165.401V28.0132H173.216V35.828ZM165.081 35.828H157.266V28.0132H165.081V35.828ZM156.945 35.828H149.131V28.0132H156.945V35.828ZM148.746 35.828H140.931V28.0132H148.746V35.828ZM140.611 35.828H132.796V28.0132H140.611V35.828ZM132.476 35.828H124.661V28.0132H132.476V35.828ZM124.277 35.828H116.462V28.0132H124.277V35.828ZM116.142 35.828H108.327V28.0132H116.142V35.828ZM108.006 35.828H100.192V28.0132H108.006V35.828ZM99.8072 35.828H91.9924V28.0132H99.8072V35.828ZM91.6721 35.828H83.8572V28.0132H91.6721V35.828ZM83.537 35.828H75.7221V28.0132H83.537V35.828ZM83.537 36.2123V44.0272H75.7221V36.2123H83.537ZM75.3378 44.0272H67.5229V36.2123H75.3378V44.0272ZM75.3378 44.3475V52.1623H67.5229V44.3475H75.3378ZM75.3378 52.4826V60.2975H67.5229V52.4826H75.3378ZM75.3378 60.6818V68.4967H67.5229V60.6818H75.3378ZM75.3378 68.8169V76.6318H67.5229V68.8169H75.3378ZM75.3378 76.9521V84.7669H67.5229V76.9521H75.3378ZM75.3378 85.1513V92.9661H67.5229V85.1513H75.3378ZM75.3378 93.2864V101.101H67.5229V93.2864H75.3378ZM75.3378 101.422V109.236H67.5229V101.422H75.3378ZM75.3378 109.621V117.436H67.5229V109.621H75.3378ZM75.3378 117.756V125.571H67.5229V117.756H75.3378ZM75.3378 125.891V133.706H67.5229V125.891H75.3378ZM75.3378 134.09V141.905H67.5229V134.09H75.3378ZM75.3378 142.225V150.04H67.5229V142.225H75.3378ZM75.7221 142.225H83.537V150.04H75.7221V142.225ZM83.537 150.36V158.175H75.7221V150.36H83.537ZM83.8572 150.36H91.6721V158.175H83.8572V150.36ZM91.9924 150.36H99.8072V158.175H91.9924V150.36ZM100.192 150.36H108.006V158.175H100.192V150.36ZM108.327 150.36H116.142V158.175H108.327V150.36ZM116.462 150.36H124.277V158.175H116.462V150.36ZM124.661 150.36H132.476V158.175H124.661V150.36ZM132.796 150.36H140.611V158.175H132.796V150.36ZM140.931 150.36H148.746V158.175H140.931V150.36ZM149.131 150.36H156.945V158.175H149.131V150.36ZM157.266 150.36H165.081V158.175H157.266V150.36ZM165.401 150.36H173.216V158.175H165.401V150.36ZM173.6 150.36H181.415V158.175H173.6V150.36ZM181.735 150.36H189.55V158.175H181.735V150.36ZM181.735 150.04V142.225H189.55V150.04H181.735ZM189.87 142.225H197.685V150.04H189.87V142.225ZM189.87 141.905V134.09H197.685V141.905H189.87ZM189.87 133.706V125.891H197.685V133.706H189.87ZM189.87 125.571V117.756H197.685V125.571H189.87ZM189.87 117.436V109.621H197.685V117.436H189.87ZM189.87 109.236V101.422H197.685V109.236H189.87ZM189.87 101.101V93.2864H197.685V101.101H189.87ZM189.87 92.9661V85.1513H197.685V92.9661H189.87ZM189.87 84.7669V76.9521H197.685V84.7669H189.87ZM189.87 76.6318V68.8169H197.685V76.6318H189.87ZM189.87 68.4967V60.6818H197.685V68.4967H189.87ZM189.87 60.2975V52.4826H197.685V60.2975H189.87ZM189.87 52.1623V44.3475H197.685V52.1623H189.87ZM189.87 44.0272V36.2123H197.685V44.0272H189.87ZM75.3378 28.0132V35.828H67.5229V31.7523C67.5229 29.6872 69.197 28.0132 71.262 28.0132H75.3378ZM67.5229 150.36H75.3378V158.175H67.5229V150.36ZM189.87 158.175V150.36H197.685V158.175H189.87Z" fill="white"/>
<rect x="0.588379" y="70.2671" width="105.99" height="35.3299" fill="url(#paint2_linear_1543_155697)"/>
</g>
<path d="M6.6159 73.6893C10.2698 73.6893 13.2318 70.7273 13.2318 67.0734C13.2318 63.4196 10.2698 60.4575 6.6159 60.4575C2.96204 60.4575 0 63.4196 0 67.0734C0 70.7273 2.96204 73.6893 6.6159 73.6893Z" fill="url(#paint3_radial_1543_155697)"/>
<path opacity="0.5" d="M2.78976 66.7503C1.59106 66.0127 1.29138 64.3299 2.12125 63.0159C2.92807 61.702 4.56476 61.2179 5.76345 61.9555C6.96215 62.6932 7.26183 64.376 6.43196 65.69C5.60209 67.027 3.96541 67.488 2.78976 66.7503Z" fill="url(#paint4_radial_1543_155697)"/>
<path d="M95.6293 29.2268C98.4182 29.2268 100.679 26.966 100.679 24.1771C100.679 21.3883 98.4182 19.1274 95.6293 19.1274C92.8404 19.1274 90.5796 21.3883 90.5796 24.1771C90.5796 26.966 92.8404 29.2268 95.6293 29.2268Z" fill="url(#paint5_radial_1543_155697)"/>
<g filter="url(#filter0_i_1543_155697)">
<path d="M89.7271 66.4715C89.6936 66.463 89.6577 66.4569 89.6327 66.433C89.1096 65.9332 90.657 59.1288 90.8038 58.6204C91.5518 56.0374 92.7907 53.5236 94.7831 51.6799C96.1932 50.3747 99.9603 47.8211 101.915 49.3221C103.563 50.589 102.019 53.7697 101.26 55.0998C99.8982 57.4649 97.8919 59.381 96.1784 61.4784C95.1562 62.733 94.1292 64.0117 93.107 65.2663C93.0407 65.3523 92.5229 66.0871 92.1359 66.5654C91.8877 66.8722 91.5277 66.9281 91.145 66.8312C90.6276 66.7002 89.9199 66.5205 89.7271 66.4715Z" fill="url(#paint6_linear_1543_155697)"/>
</g>
<g filter="url(#filter1_i_1543_155697)">
<path d="M91.9641 68.5402C92.8001 68.7201 93.5449 68.0095 93.3704 67.1723C92.4102 62.5659 89.2282 50.5556 82.4887 52.7439C76.3634 54.7547 89.527 66.5995 91.434 68.2773C91.587 68.4119 91.7647 68.4973 91.9641 68.5402Z" fill="url(#paint7_linear_1543_155697)"/>
</g>
<path d="M84.3232 55.1392C84.3232 55.1392 92.205 65.4266 92.2953 67.603L84.3232 55.1392Z" fill="#77FFE4" fill-opacity="0.2"/>
<path d="M99.5852 51.3513C99.5852 51.3513 93.1088 59.6134 92.4047 63.2805L99.5852 51.3513Z" fill="#77FFE4" fill-opacity="0.2"/>
<path d="M83.9496 66.5096C83.8583 65.563 84.6024 64.7437 85.5534 64.7437H96.4762C97.4272 64.7437 98.1714 65.563 98.0801 66.5096L96.8629 79.1349C96.7832 79.9611 96.089 80.5916 95.259 80.5916H86.7707C85.9407 80.5916 85.2464 79.9611 85.1668 79.1349L83.9496 66.5096Z" fill="url(#paint8_linear_1543_155697)"/>
<g filter="url(#filter2_i_1543_155697)">
<rect x="83.2573" y="64.7437" width="15.516" height="3.81986" rx="0.805661" fill="url(#paint9_linear_1543_155697)"/>
</g>
<g filter="url(#filter3_f_1543_155697)">
<ellipse cx="49.5588" cy="88.5877" rx="34.2214" ry="0.370937" fill="black" fill-opacity="0.37"/>
</g>
<g filter="url(#filter4_d_1543_155697)">
<path d="M27.8206 48.3955H69.528L74.1204 55.4655L24.0107 55.1881L27.8206 48.3955Z" fill="url(#paint10_linear_1543_155697)"/>
</g>
<g filter="url(#filter5_ii_1543_155697)">
<path d="M24.0054 55.1401L74.1208 55.4633V88.9671H24.0054V55.1401Z" fill="#4392F4"/>
</g>
<g filter="url(#filter6_i_1543_155697)">
<path d="M24.1369 54.999L27.825 48.4058L19.8485 51.481L14.0864 58.2374L24.1369 54.999Z" fill="#4392F4"/>
</g>
<g filter="url(#filter7_i_1543_155697)">
<path d="M74.0385 55.5735L69.5436 48.3657L77.5107 52.6187L82.3945 59.6626L74.0385 55.5735Z" fill="#4392F4"/>
</g>
<path d="M56.0527 29.7856C45.8878 38.7163 40.0319 53.1724 50.1117 66.1502" stroke="#82BBCA" stroke-width="0.68564" stroke-linecap="round" stroke-linejoin="round" stroke-dasharray="2.08 0"/>
<ellipse cx="57.0679" cy="28.9869" rx="2.869" ry="1.80893" transform="rotate(-31.9579 57.0679 28.9869)" fill="url(#paint11_radial_1543_155697)"/>
<ellipse cx="52.5598" cy="24.0389" rx="4.49008" ry="1.65914" transform="rotate(39.9043 52.5598 24.0389)" fill="white"/>
<ellipse cx="60.7201" cy="34.7581" rx="4.49008" ry="1.65914" transform="rotate(60.5713 60.7201 34.7581)" fill="white"/>
<g filter="url(#filter8_i_1543_155697)">
<path d="M17.6757 66.7259L24.0381 55.1851H73.9195L79.2528 66.7702C79.4619 67.2245 79.1301 67.7426 78.63 67.7426H18.2761C17.7543 67.7426 17.4238 67.1829 17.6757 66.7259Z" fill="#4392F4"/>
</g>
<defs>
<filter id="filter0_i_1543_155697" x="89.5254" y="48.5684" width="13.8942" height="18.3061" filterUnits="userSpaceOnUse" color-interpolation-filters="sRGB">
<feFlood flood-opacity="0" result="BackgroundImageFix"/>
<feBlend mode="normal" in="SourceGraphic" in2="BackgroundImageFix" result="shape"/>
<feColorMatrix in="SourceAlpha" type="matrix" values="0 0 0 0 0 0 0 0 0 0 0 0 0 0 0 0 0 0 127 0" result="hardAlpha"/>
<feOffset dx="0.772629" dy="-0.295356"/>
<feGaussianBlur stdDeviation="1.00708"/>
<feComposite in2="hardAlpha" operator="arithmetic" k2="-1" k3="1"/>
<feColorMatrix type="matrix" values="0 0 0 0 0.113056 0 0 0 0 0.616667 0 0 0 0 0.58645 0 0 0 1 0"/>
<feBlend mode="normal" in2="shape" result="effect1_innerShadow_1543_155697"/>
</filter>
<filter id="filter1_i_1543_155697" x="80.876" y="52.1846" width="13.2926" height="16.3837" filterUnits="userSpaceOnUse" color-interpolation-filters="sRGB">
<feFlood flood-opacity="0" result="BackgroundImageFix"/>
<feBlend mode="normal" in="SourceGraphic" in2="BackgroundImageFix" result="shape"/>
<feColorMatrix in="SourceAlpha" type="matrix" values="0 0 0 0 0 0 0 0 0 0 0 0 0 0 0 0 0 0 127 0" result="hardAlpha"/>
<feOffset dx="0.772629" dy="-0.295356"/>
<feGaussianBlur stdDeviation="1.00708"/>
<feComposite in2="hardAlpha" operator="arithmetic" k2="-1" k3="1"/>
<feColorMatrix type="matrix" values="0 0 0 0 0.0996528 0 0 0 0 0.683333 0 0 0 0 0.555806 0 0 0 1 0"/>
<feBlend mode="normal" in2="shape" result="effect1_innerShadow_1543_155697"/>
</filter>
<filter id="filter2_i_1543_155697" x="83.2573" y="64.502" width="15.8384" height="4.06152" filterUnits="userSpaceOnUse" color-interpolation-filters="sRGB">
<feFlood flood-opacity="0" result="BackgroundImageFix"/>
<feBlend mode="normal" in="SourceGraphic" in2="BackgroundImageFix" result="shape"/>
<feColorMatrix in="SourceAlpha" type="matrix" values="0 0 0 0 0 0 0 0 0 0 0 0 0 0 0 0 0 0 127 0" result="hardAlpha"/>
<feOffset dx="0.322265" dy="-0.241698"/>
<feGaussianBlur stdDeviation="0.281982"/>
<feComposite in2="hardAlpha" operator="arithmetic" k2="-1" k3="1"/>
<feColorMatrix type="matrix" values="0 0 0 0 0.833333 0 0 0 0 0.604343 0 0 0 0 0.0555555 0 0 0 1 0"/>
<feBlend mode="normal" in2="shape" result="effect1_innerShadow_1543_155697"/>
</filter>
<filter id="filter3_f_1543_155697" x="13.892" y="86.7714" width="71.3337" height="3.63256" filterUnits="userSpaceOnUse" color-interpolation-filters="sRGB">
<feFlood flood-opacity="0" result="BackgroundImageFix"/>
<feBlend mode="normal" in="SourceGraphic" in2="BackgroundImageFix" result="shape"/>
<feGaussianBlur stdDeviation="0.722715" result="effect1_foregroundBlur_1543_155697"/>
</filter>
<filter id="filter4_d_1543_155697" x="22.3713" y="47.5758" width="53.3887" height="10.3487" filterUnits="userSpaceOnUse" color-interpolation-filters="sRGB">
<feFlood flood-opacity="0" result="BackgroundImageFix"/>
<feColorMatrix in="SourceAlpha" type="matrix" values="0 0 0 0 0 0 0 0 0 0 0 0 0 0 0 0 0 0 127 0" result="hardAlpha"/>
<feOffset dy="0.819708"/>
<feGaussianBlur stdDeviation="0.819708"/>
<feColorMatrix type="matrix" values="0 0 0 0 0 0 0 0 0 0 0 0 0 0 0 0 0 0 0.25 0"/>
<feBlend mode="normal" in2="BackgroundImageFix" result="effect1_dropShadow_1543_155697"/>
<feBlend mode="normal" in="SourceGraphic" in2="effect1_dropShadow_1543_155697" result="shape"/>
</filter>
<filter id="filter5_ii_1543_155697" x="23.2897" y="55.1401" width="50.8309" height="34.6144" filterUnits="userSpaceOnUse" color-interpolation-filters="sRGB">
<feFlood flood-opacity="0" result="BackgroundImageFix"/>
<feBlend mode="normal" in="SourceGraphic" in2="BackgroundImageFix" result="shape"/>
<feColorMatrix in="SourceAlpha" type="matrix" values="0 0 0 0 0 0 0 0 0 0 0 0 0 0 0 0 0 0 127 0" result="hardAlpha"/>
<feOffset dy="0.787273"/>
<feGaussianBlur stdDeviation="0.405186"/>
<feComposite in2="hardAlpha" operator="arithmetic" k2="-1" k3="1"/>
<feColorMatrix type="matrix" values="0 0 0 0 0.641667 0 0 0 0 0.8495 0 0 0 0 1 0 0 0 1 0"/>
<feBlend mode="normal" in2="shape" result="effect1_innerShadow_1543_155697"/>
<feColorMatrix in="SourceAlpha" type="matrix" values="0 0 0 0 0 0 0 0 0 0 0 0 0 0 0 0 0 0 127 0" result="hardAlpha"/>
<feOffset dx="-0.715703"/>
<feGaussianBlur stdDeviation="0.405186"/>
<feComposite in2="hardAlpha" operator="arithmetic" k2="-1" k3="1"/>
<feColorMatrix type="matrix" values="0 0 0 0 0 0 0 0 0 0 0 0 0 0 0 0 0 0 0.25 0"/>
<feBlend mode="normal" in2="effect1_innerShadow_1543_155697" result="effect2_innerShadow_1543_155697"/>
</filter>
<filter id="filter6_i_1543_155697" x="13.4603" y="48.4058" width="14.3644" height="9.83154" filterUnits="userSpaceOnUse" color-interpolation-filters="sRGB">
<feFlood flood-opacity="0" result="BackgroundImageFix"/>
<feBlend mode="normal" in="SourceGraphic" in2="BackgroundImageFix" result="shape"/>
<feColorMatrix in="SourceAlpha" type="matrix" values="0 0 0 0 0 0 0 0 0 0 0 0 0 0 0 0 0 0 127 0" result="hardAlpha"/>
<feOffset dx="-0.626168"/>
<feGaussianBlur stdDeviation="0.313084"/>
<feComposite in2="hardAlpha" operator="arithmetic" k2="-1" k3="1"/>
<feColorMatrix type="matrix" values="0 0 0 0 0.00392157 0 0 0 0 0.282353 0 0 0 0 0.635294 0 0 0 1 0"/>
<feBlend mode="normal" in2="shape" result="effect1_innerShadow_1543_155697"/>
</filter>
<filter id="filter7_i_1543_155697" x="68.9173" y="47.6801" width="13.4772" height="11.9825" filterUnits="userSpaceOnUse" color-interpolation-filters="sRGB">
<feFlood flood-opacity="0" result="BackgroundImageFix"/>
<feBlend mode="normal" in="SourceGraphic" in2="BackgroundImageFix" result="shape"/>
<feColorMatrix in="SourceAlpha" type="matrix" values="0 0 0 0 0 0 0 0 0 0 0 0 0 0 0 0 0 0 127 0" result="hardAlpha"/>
<feOffset dx="-0.626168" dy="-0.68564"/>
<feGaussianBlur stdDeviation="0.34282"/>
<feComposite in2="hardAlpha" operator="arithmetic" k2="-1" k3="1"/>
<feColorMatrix type="matrix" values="0 0 0 0 0.00392157 0 0 0 0 0.282353 0 0 0 0 0.635294 0 0 0 1 0"/>
<feBlend mode="normal" in2="shape" result="effect1_innerShadow_1543_155697"/>
</filter>
<filter id="filter8_i_1543_155697" x="17.5894" y="55.1851" width="61.7271" height="12.5576" filterUnits="userSpaceOnUse" color-interpolation-filters="sRGB">
<feFlood flood-opacity="0" result="BackgroundImageFix"/>
<feBlend mode="normal" in="SourceGraphic" in2="BackgroundImageFix" result="shape"/>
<feColorMatrix in="SourceAlpha" type="matrix" values="0 0 0 0 0 0 0 0 0 0 0 0 0 0 0 0 0 0 127 0" result="hardAlpha"/>
<feOffset/>
<feGaussianBlur stdDeviation="0.654786"/>
<feComposite in2="hardAlpha" operator="arithmetic" k2="-1" k3="1"/>
<feColorMatrix type="matrix" values="0 0 0 0 0.00392157 0 0 0 0 0.282353 0 0 0 0 0.635294 0 0 0 1 0"/>
<feBlend mode="normal" in2="shape" result="effect1_innerShadow_1543_155697"/>
</filter>
<linearGradient id="paint0_linear_1543_155697" x1="53.5833" y1="0" x2="53.5833" y2="103.638" gradientUnits="userSpaceOnUse">
<stop stop-color="#B5EFFF"/>
<stop offset="1" stop-color="#E7F8FE"/>
</linearGradient>
<linearGradient id="paint1_linear_1543_155697" x1="53.259" y1="0" x2="53.259" y2="103.033" gradientUnits="userSpaceOnUse">
<stop stop-color="#B5EFFF"/>
<stop offset="1" stop-color="#EDFBFF"/>
</linearGradient>
<linearGradient id="paint2_linear_1543_155697" x1="47.2101" y1="70.2671" x2="61.8272" y2="114.666" gradientUnits="userSpaceOnUse">
<stop stop-color="#7FD3E9"/>
<stop offset="1" stop-color="#7FD3E9" stop-opacity="0"/>
</linearGradient>
<radialGradient id="paint3_radial_1543_155697" cx="0" cy="0" r="1" gradientUnits="userSpaceOnUse" gradientTransform="translate(3.46895 64.4019) rotate(-15.1772) scale(12.6164)">
<stop stop-color="#FFF1CF"/>
<stop offset="0.1875" stop-color="#FFE4A2"/>
<stop offset="0.317708" stop-color="#FFD364"/>
<stop offset="0.489583" stop-color="#FFD364"/>
<stop offset="0.651042" stop-color="#FFC73A"/>
<stop offset="0.947917" stop-color="#D09500"/>
</radialGradient>
<radialGradient id="paint4_radial_1543_155697" cx="0" cy="0" r="1" gradientUnits="userSpaceOnUse" gradientTransform="translate(4.25951 64.3722) rotate(121.889) scale(2.76308 2.51634)">
<stop stop-color="white"/>
<stop offset="0.6944" stop-color="white" stop-opacity="0"/>
</radialGradient>
<radialGradient id="paint5_radial_1543_155697" cx="0" cy="0" r="1" gradientUnits="userSpaceOnUse" gradientTransform="translate(93.2273 22.138) rotate(-15.1772) scale(9.62972)">
<stop stop-color="#E6C6FF"/>
<stop offset="0.1875" stop-color="#C07DF5"/>
<stop offset="0.317708" stop-color="#BE6FFC"/>
<stop offset="0.489583" stop-color="#B56AF0"/>
<stop offset="0.651042" stop-color="#A745F4"/>
<stop offset="0.947917" stop-color="#9F3DED"/>
</radialGradient>
<linearGradient id="paint6_linear_1543_155697" x1="104.549" y1="49.1457" x2="89.9349" y2="62.2696" gradientUnits="userSpaceOnUse">
<stop stop-color="#BAFFF1" stop-opacity="0.26"/>
<stop offset="0.682292" stop-color="#4DC7AE"/>
<stop offset="0.96875" stop-color="#06896F"/>
</linearGradient>
<linearGradient id="paint7_linear_1543_155697" x1="98.0477" y1="54.2386" x2="89.1603" y2="69.2059" gradientUnits="userSpaceOnUse">
<stop stop-color="#B7FDEF"/>
<stop offset="0.682292" stop-color="#09B794"/>
<stop offset="0.96875" stop-color="#7EE0CC"/>
</linearGradient>
<linearGradient id="paint8_linear_1543_155697" x1="98.2503" y1="75.1766" x2="84.812" y2="75.1766" gradientUnits="userSpaceOnUse">
<stop offset="0.0989583" stop-color="#FFEEC5"/>
<stop offset="0.606776" stop-color="#FACD63"/>
<stop offset="0.838542" stop-color="#EAAF23"/>
<stop offset="0.984375" stop-color="#EDB52F"/>
</linearGradient>
<linearGradient id="paint9_linear_1543_155697" x1="98.7733" y1="67.2583" x2="84.3646" y2="67.2583" gradientUnits="userSpaceOnUse">
<stop offset="0.0989583" stop-color="#FFEEC5"/>
<stop offset="0.606776" stop-color="#FCBD27"/>
<stop offset="0.984375" stop-color="#EFB222"/>
</linearGradient>
<linearGradient id="paint10_linear_1543_155697" x1="49.0023" y1="39.9655" x2="49.0023" y2="47.5656" gradientUnits="userSpaceOnUse">
<stop stop-color="#448EEB"/>
<stop offset="1" stop-color="#0048A2"/>
</linearGradient>
<radialGradient id="paint11_radial_1543_155697" cx="0" cy="0" r="1" gradientUnits="userSpaceOnUse" gradientTransform="translate(58.5908 29.2743) rotate(135.025) scale(2.15278 3.41435)">
<stop stop-color="#69849C"/>
<stop offset="1" stop-color="#475867"/>
</radialGradient>
</defs>
</svg>
