<svg width="336" height="200" viewBox="0 0 336 200" fill="none" xmlns="http://www.w3.org/2000/svg">
<g clip-path="url(#clip0_2618_974)">
<ellipse cx="229.194" cy="47.3859" rx="47.3859" ry="47.3859" fill="#02B190"/>
<path d="M218.337 45.0761C217.523 45.0761 216.863 45.7361 216.863 46.5503C216.863 47.3645 217.523 48.0245 218.337 48.0245V45.0761ZM232.339 48.0245C233.153 48.0245 233.813 47.3645 233.813 46.5503C233.813 45.7361 233.153 45.0761 232.339 45.0761V48.0245ZM218.337 52.8079C217.523 52.8079 216.863 53.4679 216.863 54.2821C216.863 55.0963 217.523 55.7563 218.337 55.7563V52.8079ZM232.339 55.7563C233.153 55.7563 233.813 55.0963 233.813 54.2821C233.813 53.4679 233.153 52.8079 232.339 52.8079V55.7563ZM218.337 60.5139C217.523 60.5139 216.863 61.1739 216.863 61.9881C216.863 62.8023 217.523 63.4623 218.337 63.4623V60.5139ZM232.339 63.4623C233.153 63.4623 233.813 62.8023 233.813 61.9881C233.813 61.1739 233.153 60.5139 232.339 60.5139V63.4623ZM241.605 39.4881C241.605 40.3023 242.265 40.9623 243.079 40.9623C243.894 40.9623 244.554 40.3023 244.554 39.4881H241.605ZM243.079 26.0605H244.554V24.5864H243.079V26.0605ZM221.714 26.1121L220.671 25.0697L220.67 25.0708L221.714 26.1121ZM210.219 37.6325L211.262 38.6749L211.263 38.6737L210.219 37.6325ZM210.168 69.0751H208.694V70.5493H210.168V69.0751ZM232.178 70.5493C232.992 70.5493 233.652 69.8893 233.652 69.0751C233.652 68.2609 232.992 67.6009 232.178 67.6009V70.5493ZM211.07 36.2356C210.256 36.2356 209.596 36.8956 209.596 37.7098C209.596 38.524 210.256 39.184 211.07 39.184V36.2356ZM223.265 26.808C223.265 25.9938 222.605 25.3338 221.791 25.3338C220.977 25.3338 220.317 25.9938 220.317 26.808H223.265ZM247.032 51.9358C247.145 52.742 247.89 53.3037 248.697 53.1903C249.503 53.0769 250.065 52.3314 249.951 51.5252L247.032 51.9358ZM238.311 53.3026L239.775 53.1236L239.774 53.1177L238.311 53.3026ZM248.491 61.9622L249.965 61.9372L249.965 61.9354L248.491 61.9622ZM239.705 62.4914C239.485 61.7075 238.671 61.2506 237.887 61.4708C237.103 61.691 236.646 62.5049 236.866 63.2887L239.705 62.4914ZM244.837 45.777C244.837 44.9628 244.177 44.3028 243.363 44.3028C242.549 44.3028 241.889 44.9628 241.889 45.777H244.837ZM241.889 48.2769C241.889 49.0911 242.549 49.7511 243.363 49.7511C244.177 49.7511 244.837 49.0911 244.837 48.2769H241.889ZM244.837 66.3436C244.837 65.5294 244.177 64.8694 243.363 64.8694C242.549 64.8694 241.889 65.5294 241.889 66.3436H244.837ZM241.889 68.8435C241.889 69.6577 242.549 70.3177 243.363 70.3177C244.177 70.3177 244.837 69.6577 244.837 68.8435H241.889ZM218.337 48.0245H232.339V45.0761H218.337V48.0245ZM218.337 55.7563H232.339V52.8079H218.337V55.7563ZM218.337 63.4623H232.339V60.5139H218.337V63.4623ZM244.554 39.4881V26.0605H241.605V39.4881H244.554ZM243.079 24.5864H221.843V27.5347H243.079V24.5864ZM221.843 24.5864C221.375 24.5864 220.955 24.786 220.671 25.0697L222.756 27.1545C222.613 27.2976 222.466 27.3816 222.349 27.4317C222.226 27.4844 222.054 27.5347 221.843 27.5347V24.5864ZM220.67 25.0708L209.176 36.5912L211.263 38.6737L222.757 27.1533L220.67 25.0708ZM209.177 36.5901C208.893 36.8737 208.694 37.2932 208.694 37.7613H211.642C211.642 37.9727 211.592 38.1449 211.539 38.268C211.489 38.3847 211.405 38.5318 211.262 38.6749L209.177 36.5901ZM208.694 37.7613V69.0751H211.642V37.7613H208.694ZM210.168 70.5493H232.178V67.6009H210.168V70.5493ZM211.07 39.184H221.688V36.2356H211.07V39.184ZM221.688 39.184C222.193 39.184 222.575 38.9462 222.801 38.72C223.028 38.4938 223.265 38.1119 223.265 37.6067H220.317C220.317 37.153 220.529 36.8227 220.717 36.6352C220.904 36.4476 221.234 36.2356 221.688 36.2356V39.184ZM223.265 37.6067V26.808H220.317V37.6067H223.265ZM249.951 51.5252C249.597 49.0026 247.085 46.777 243.363 46.777V49.7254C245.929 49.7254 246.922 51.1595 247.032 51.9358L249.951 51.5252ZM243.363 46.777C238.741 46.777 236.46 50.4141 236.849 53.4875L239.774 53.1177C239.595 51.7067 240.614 49.7254 243.363 49.7254V46.777ZM236.848 53.4816C237.068 55.2784 238.148 56.4135 239.368 57.1599C240.513 57.8606 241.95 58.3172 243.103 58.7163C244.359 59.1509 245.348 59.536 246.044 60.0689C246.648 60.5314 247.001 61.0778 247.018 61.989L249.965 61.9354C249.93 60.0117 249.059 58.6638 247.837 57.7281C246.707 56.8628 245.269 56.3459 244.067 55.93C242.762 55.4786 241.71 55.1363 240.907 54.6449C240.179 54.1994 239.851 53.7495 239.775 53.1236L236.848 53.4816ZM247.017 61.9872C247.033 62.8814 246.599 63.5159 245.866 63.9942C245.085 64.5034 244.077 64.7405 243.363 64.7405V67.6889C244.581 67.6889 246.163 67.3204 247.477 66.4636C248.838 65.5759 250.002 64.0843 249.965 61.9372L247.017 61.9872ZM243.363 64.7405C241.431 64.7405 240.106 63.9199 239.705 62.4914L236.866 63.2887C237.754 66.4478 240.656 67.6889 243.363 67.6889V64.7405ZM241.889 45.777V48.2769H244.837V45.777H241.889ZM241.889 66.3436V68.8435H244.837V66.3436H241.889Z" fill="white"/>
<path d="M179.364 133.363C179.287 133.211 179.135 133.134 179.058 132.979C177.754 135.431 176.376 138.728 175.918 142.104C175.918 142.104 180.971 135.05 184.953 130.371C182.198 132.21 180.358 132.978 179.364 133.363Z" fill="#27313A"/>
<path d="M238.89 111.293C239.665 111.096 254.938 107.027 253.595 104.698C252.753 103.243 249.764 102.168 246.089 102.475C242.798 102.75 235.517 103.271 234.027 103.377C233.851 103.391 233.682 103.363 233.519 103.292C232.448 102.838 227.98 101.076 224.033 101.481C223.889 101.481 223.681 101.548 223.466 101.555C223.36 101.562 223.251 101.573 223.145 101.58C222.053 101.805 221.175 102.108 220.435 102.552C218.673 103.778 218.06 106.079 218.902 107.996C219.209 108.686 219.667 109.299 220.358 109.835C220.865 110.272 221.514 110.708 222.299 111.078C222.313 111.085 222.356 111.089 222.405 111.121C222.574 111.233 222.574 111.498 222.578 111.519C222.599 111.776 226.32 114.52 238.89 111.29V111.293Z" fill="white"/>
<path d="M228.441 113.21C227.966 113.21 227.504 113.196 227.06 113.168C224.142 112.984 222.891 112.241 222.578 112.019C222.342 111.853 222.236 111.713 222.225 111.554C222.225 111.48 222.211 111.441 222.204 111.424C222.18 111.417 222.162 111.409 222.151 111.402C221.397 111.047 220.717 110.61 220.129 110.106C219.438 109.567 218.927 108.922 218.582 108.14C217.662 106.044 218.356 103.574 220.234 102.263C220.999 101.805 221.894 101.481 223.075 101.235C223.089 101.235 223.103 101.231 223.117 101.228L223.438 101.199C223.547 101.196 223.642 101.175 223.726 101.161C223.825 101.143 223.92 101.125 224.015 101.122C227.987 100.72 232.402 102.429 233.66 102.961C233.773 103.007 233.886 103.024 234.006 103.021C236.028 102.876 242.872 102.387 246.061 102.119C249.627 101.823 252.925 102.831 253.901 104.518C254.06 104.793 254.074 105.099 253.944 105.41C252.837 108.041 239.119 111.593 238.978 111.631C234.911 112.678 231.373 113.203 228.441 113.203V113.21ZM222.916 111.388C223.318 111.695 226.944 114.003 238.802 110.955C243.21 109.824 252.548 106.914 253.292 105.145C253.348 105.015 253.324 104.941 253.288 104.881C252.58 103.659 249.828 102.524 246.117 102.831C242.925 103.098 236.074 103.588 234.051 103.732C233.822 103.75 233.593 103.711 233.382 103.62C232.512 103.253 227.976 101.435 224.068 101.833C224.005 101.841 223.934 101.848 223.85 101.862C223.741 101.883 223.614 101.904 223.476 101.911L223.191 101.936C222.102 102.165 221.281 102.457 220.611 102.859C219.029 103.961 218.437 106.072 219.223 107.858C219.523 108.528 219.963 109.088 220.573 109.56C221.119 110.028 221.739 110.427 222.426 110.754C222.465 110.765 222.528 110.789 222.595 110.832C222.768 110.948 222.881 111.142 222.916 111.385V111.388Z" fill="#27313A"/>
<path d="M228.688 112.851C225.542 116.497 222.391 120.144 219.244 123.786C217.778 123.328 215.558 122.434 213.324 120.637C210.241 118.153 208.74 115.243 208.074 113.686C210.604 111.61 213.141 109.507 215.685 107.372C216.718 106.505 217.743 105.642 218.765 104.775" fill="white"/>
<path d="M219.244 124.139C219.209 124.139 219.174 124.135 219.139 124.125C216.926 123.434 214.893 122.353 213.102 120.912C210.787 119.048 208.934 116.596 207.75 113.823C207.69 113.679 207.728 113.513 207.852 113.411C210.382 111.336 212.944 109.215 215.46 107.101C216.492 106.234 217.518 105.371 218.54 104.504C218.688 104.377 218.91 104.398 219.037 104.546C219.163 104.694 219.142 104.916 218.994 105.043C217.972 105.91 216.943 106.773 215.911 107.64C213.458 109.697 210.967 111.762 208.504 113.784C209.649 116.353 211.39 118.622 213.546 120.358C215.21 121.697 217.084 122.712 219.128 123.378L228.421 112.618C228.548 112.47 228.77 112.456 228.918 112.583C229.066 112.71 229.08 112.932 228.953 113.08L219.509 124.016C219.442 124.093 219.343 124.139 219.241 124.139H219.244Z" fill="#27313A"/>
<path d="M234.027 103.377C238.189 103.116 241.121 102.133 243.105 101.21C243.746 100.911 246.41 99.7409 248.235 100.21C248.905 100.382 249.532 100.865 250.378 101.823C250.424 101.876 250.448 101.925 250.452 101.989C250.477 102.567 248.193 103.014 244.542 103.976C243.267 104.311 242.217 104.606 241.498 104.814" fill="white"/>
<path d="M241.498 105.17C241.346 105.17 241.205 105.068 241.159 104.916C241.106 104.73 241.212 104.536 241.399 104.48C242.393 104.194 243.418 103.912 244.451 103.641C245.134 103.461 245.772 103.299 246.354 103.151C248.077 102.711 249.712 102.295 250.061 102.003C249.275 101.122 248.718 100.703 248.144 100.555C246.48 100.128 243.975 101.196 243.249 101.534C240.567 102.778 237.473 103.518 234.048 103.733C233.851 103.743 233.685 103.599 233.675 103.401C233.664 103.204 233.809 103.039 234.006 103.028C237.343 102.82 240.356 102.101 242.957 100.896C243.957 100.431 246.487 99.4026 248.323 99.8748C249.06 100.065 249.733 100.562 250.646 101.598C250.748 101.717 250.801 101.841 250.808 101.985C250.839 102.739 249.666 103.039 246.533 103.838C245.952 103.986 245.318 104.148 244.634 104.328C243.605 104.599 242.583 104.881 241.596 105.163C241.565 105.174 241.529 105.177 241.498 105.177V105.17Z" fill="#27313A"/>
<path d="M157.922 77.3896C157.922 77.3896 162.672 77.2345 167.19 86.9726C169.716 92.4934 180.133 121.782 183.347 129.758C183.347 129.758 195.828 120.482 201.572 116.8C206.322 113.735 208.694 111.508 208.694 111.508C208.694 111.508 212.982 107.213 214.667 108.21L225.006 116.796C225.006 116.796 226.613 118.406 224.928 120.246C224.083 121.154 209.007 137.647 198.556 147.413C194.461 151.239 189.094 153.413 183.491 153.515C174.318 153.68 165.939 148.308 162.295 139.887C154.979 122.987 147.121 97.2427 147.121 97.2427" fill="white"/>
<path d="M183.072 153.878C173.878 153.878 165.629 148.48 161.971 140.035C154.733 123.307 146.864 97.6127 146.786 97.3555C146.73 97.1688 146.836 96.9715 147.019 96.9151C147.206 96.8553 147.403 96.9645 147.459 97.1477C147.537 97.4049 155.395 123.064 162.619 139.754C166.217 148.068 174.414 153.325 183.484 153.17C189.01 153.071 194.278 150.936 198.316 147.163C204.536 141.35 213.74 131.876 224.238 120.485C224.46 120.242 224.608 120.084 224.675 120.013C226.077 118.481 224.897 117.191 224.759 117.05L214.469 108.506C213.395 107.925 210.519 110.187 208.948 111.762C208.916 111.794 206.488 114.052 201.766 117.099C196.096 120.732 183.685 129.952 183.558 130.044C183.47 130.111 183.357 130.128 183.251 130.1C183.146 130.072 183.061 129.994 183.019 129.892C181.634 126.464 178.938 119.139 176.084 111.388C172.261 101.002 168.303 90.2599 166.865 87.1242C162.521 77.7631 157.961 77.7279 157.929 77.7455C157.735 77.7596 157.573 77.5975 157.569 77.4038C157.566 77.21 157.714 77.0479 157.908 77.0444C158.112 77.0374 162.94 76.9951 167.507 86.8318C168.955 89.9956 172.916 100.748 176.746 111.149C179.488 118.59 182.082 125.636 183.505 129.209C185.616 127.648 196.248 119.802 201.382 116.508C206.044 113.499 208.43 111.279 208.454 111.258C208.905 110.807 212.982 106.808 214.847 107.915C214.864 107.925 214.878 107.936 214.892 107.946L225.231 116.532C225.894 117.195 226.701 118.84 225.189 120.492C225.122 120.563 224.974 120.725 224.756 120.964C214.251 132.369 205.033 141.857 198.799 147.681C194.634 151.574 189.2 153.776 183.498 153.878C183.357 153.878 183.213 153.881 183.075 153.881L183.072 153.878Z" fill="#27313A"/>
<path d="M127.289 0.0242295C114.881 0.792283 107.456 19.8844 113.123 25.1727C114.271 26.2473 115.572 26.7828 116.953 26.9378C122.39 27.5508 128.748 22.5691 128.748 22.5691L134.569 11.989C134.569 11.989 135.64 9.3818 135.64 6.62315C135.64 3.24794 134.107 -0.352751 127.292 0.0277524L127.289 0.0242295Z" fill="#27313A"/>
<path d="M116.953 26.9377C122.39 27.5507 128.748 22.569 128.748 22.569L134.569 11.9888C134.569 11.9888 135.64 9.3817 135.64 6.62305C131.658 8.23314 121.168 13.754 116.953 26.9412V26.9377Z" fill="#FDA002"/>
<path d="M125.911 14.8216C117.947 24.0241 119.402 28.3153 115.343 32.4586C108.144 39.896 109.983 48.5595 115.727 50.9377C120.322 52.8543 119.096 53.4673 118.789 60.1402C118.254 72.2565 132.42 68.4972 138.699 64.28C144.979 60.0627 151.336 72.2529 157.002 73.5565C162.668 74.8601 165.35 68.8777 163.053 63.9735C160.833 58.9882 171.859 61.5953 172.243 52.3963C172.472 46.953 167.57 43.6553 165.121 39.438C162.672 35.2983 163.895 31.8456 164.05 26.1733C164.201 19.4264 156.086 11.9114 150.8 9.07526C143.449 4.55149 132.113 7.69417 125.911 14.8251V14.8216Z" fill="#27313A"/>
<path d="M168.719 103.306C165.731 95.1008 163.895 91.6516 159.761 82.1426C155.395 72.0205 152.026 72.0205 146.818 69.9524L130.813 67.3452C117.602 73.9124 107.904 79.465 104.962 82.0651C104.888 82.1285 103.154 83.6646 100.839 85.7891C98.4846 87.9523 97.3076 89.0339 97.0645 89.3158C94.3335 92.4866 96.8531 97.8313 100.409 111.431C101.054 113.897 102.477 119.27 103.777 125.922C104.468 129.448 105.155 132.824 105.617 135.966C107.837 151.377 104.697 161.115 102.935 173.537H165.347C165.347 173.537 166.802 142.946 167.109 133.053C167.338 123.085 171.781 111.66 168.715 103.303L168.719 103.306Z" fill="white"/>
<path d="M165.35 173.893H102.939C102.837 173.893 102.741 173.847 102.674 173.773C102.608 173.699 102.576 173.594 102.59 173.492C102.988 170.687 103.46 167.995 103.915 165.395C105.494 156.401 106.981 147.903 105.268 136.023C104.873 133.327 104.313 130.481 103.721 127.468L103.432 125.996C102.185 119.605 100.807 114.344 100.144 111.818L100.067 111.526C99.2915 108.57 98.5727 106.016 97.9384 103.761C95.602 95.4884 94.5378 91.7116 96.7966 89.0903C97.0539 88.7944 98.1604 87.7727 100.588 85.5425C102.935 83.3863 104.708 81.8185 104.725 81.8044C107.735 79.1479 117.669 73.4862 130.654 67.0352C130.721 67.0035 130.795 66.9894 130.869 67.0035L146.874 69.6107C146.899 69.6142 146.924 69.6212 146.948 69.6318C147.597 69.889 148.217 70.1145 148.82 70.3329C153.108 71.8937 156.206 73.0211 160.085 82.0087C161.315 84.8378 162.348 87.142 163.257 89.1749C165.399 93.9594 166.95 97.4191 169.05 103.19C171.038 108.609 169.903 115.384 168.807 121.933C168.187 125.647 167.545 129.484 167.461 133.07C167.158 142.854 165.713 173.256 165.699 173.562C165.688 173.749 165.533 173.897 165.347 173.897L165.35 173.893ZM103.344 173.893H165.015C165.174 170.529 166.474 142.266 166.76 133.046C166.844 129.413 167.489 125.552 168.113 121.814C169.244 115.056 170.308 108.672 168.388 103.426C166.295 97.6798 164.751 94.2306 162.612 89.4567C161.699 87.4239 160.667 85.1162 159.437 82.2835C155.681 73.5707 152.699 72.4891 148.576 70.9882C147.981 70.7733 147.368 70.5478 146.723 70.2942L130.869 67.7117C117.986 74.1168 108.154 79.7151 105.194 82.3293C105.176 82.3434 103.411 83.9042 101.078 86.0498C98.8088 88.1355 97.5613 89.2806 97.3323 89.5483C95.3201 91.8842 96.3526 95.5483 98.6185 103.571C99.2563 105.825 99.9752 108.383 100.75 111.346L100.828 111.639C101.49 114.172 102.872 119.446 104.126 125.858L104.415 127.331C105.011 130.354 105.571 133.208 105.966 135.92C107.696 147.913 106.195 156.464 104.609 165.519C104.176 167.988 103.728 170.539 103.344 173.192L103.344 173.893Z" fill="#27313A"/>
<path d="M135.101 49.8632L135.408 49.0211L135.559 48.5596L138.699 51.2442L150.8 61.5178L149.267 67.6517L147.505 75.2442C147.505 75.2442 136.479 81.4555 128.744 67.7292L135.101 49.8632Z" fill="white"/>
<path d="M147.505 75.1665C146.991 79.2076 146.829 84.1648 147.491 89.291C147.53 89.601 147.227 89.8406 146.938 89.7208C137.247 85.7784 128.744 67.7256 128.744 67.7256L147.505 75.163V75.1665Z" fill="white"/>
<path d="M135.408 49.0952L138.699 51.2408L150.8 61.5144L149.574 66.4222C141.303 65.1962 135.944 53.3125 135.101 49.9373L135.408 49.0952Z" fill="#27313A"/>
<path d="M159.377 44.0358C159.299 44.4199 159.299 44.8039 159.377 45.1844C159.684 47.1785 161.52 48.6336 163.588 48.3271C165.579 48.0206 167.034 46.1815 166.728 44.1098C166.65 43.5743 166.421 43.1128 166.192 42.6548C165.505 41.5802 164.279 40.8896 162.975 40.8896C162.746 41.0447 162.668 41.7317 163.052 41.9642C164.046 41.9642 164.966 42.4997 165.427 43.3453C165.579 43.5743 165.657 43.9583 165.734 44.2649C165.886 45.7199 164.892 47.101 163.436 47.3335C161.981 47.4886 160.603 46.4915 160.374 45.0329C160.297 44.8039 160.297 44.4974 160.374 44.2649L159.381 44.0358H159.377Z" fill="#FDA002"/>
<path d="M140.616 10.2979C148.503 9.22335 155.166 12.063 159.684 21.1106C159.684 21.1106 163.666 30.4646 163.972 40.8157C163.972 41.7353 163.972 42.6548 163.972 43.5744C163.743 49.1727 161.523 55.3065 157.08 59.2173C150.952 64.6606 140.539 59.5238 133.801 49.0212C133.036 47.7176 132.268 46.414 131.503 45.1105C129.59 41.6613 127.905 38.2086 126.831 35.3724C121.087 20.7265 133.646 11.295 140.616 10.2979Z" fill="white"/>
<path d="M155.177 45.3289C154.927 45.3289 154.761 45.3078 154.736 45.3042C154.543 45.2761 154.409 45.0999 154.437 44.9061C154.465 44.7123 154.641 44.5785 154.835 44.6067C154.916 44.6172 156.787 44.8498 157.591 43.3806C157.559 42.7077 155.61 38.5468 153.707 34.8404C153.619 34.6678 153.686 34.4564 153.859 34.3648C154.032 34.2732 154.243 34.3436 154.335 34.5163C157.182 40.0653 158.496 43.141 158.243 43.6519C157.474 45.1281 155.942 45.3254 155.18 45.3254L155.177 45.3289Z" fill="#27313A"/>
<path d="M136.401 45.033C136.401 45.033 135.637 47.4851 133.797 49.0212C133.033 47.7176 132.264 46.414 131.5 45.1105L136.401 45.033Z" fill="white"/>
<path d="M132.881 32.226L136.405 44.9553C133.723 47.0269 130.584 47.4074 128.135 46.3364C127.75 46.1813 127.37 45.9523 126.986 45.7233C125.146 44.4198 123.923 42.0416 124.153 38.7474C124.766 31.155 132.881 32.2295 132.881 32.2295V32.226Z" fill="white"/>
<path d="M129.664 44.5712C129.664 44.5712 128.667 45.5683 128.209 46.4103C127.824 46.2553 127.444 46.0263 127.06 45.7973C127.366 45.1068 128.209 44.1872 129.664 44.5712Z" fill="white"/>
<path d="M132.345 46.872C132.345 47.101 132.423 47.3336 132.345 47.6401C132.116 49.1727 130.739 50.1697 129.283 49.9407C127.75 49.7117 126.757 48.3306 126.986 46.872C126.986 46.5655 127.137 46.259 127.292 45.9525C127.828 45.1104 128.67 44.5714 129.667 44.5714C130.125 44.3424 129.974 43.6518 129.745 43.4968C128.444 43.4968 127.218 44.1874 126.527 45.2619C126.221 45.7235 126.069 46.1815 125.992 46.717C125.685 48.7111 127.063 50.6277 129.132 50.9343C131.123 51.2408 133.036 49.8597 133.343 47.7916C133.42 47.4076 133.42 47.0235 133.343 46.643L132.345 46.872Z" fill="#FDA002"/>
<path d="M149.189 36.3692C149.725 36.5983 150.109 37.4438 150.109 38.2859C150.109 39.1279 149.651 39.5894 149.112 39.3604C148.576 39.1314 148.192 38.2859 148.192 37.4438C148.192 36.6018 148.65 36.1402 149.186 36.3692H149.189Z" fill="#27313A"/>
<path d="M159.683 34.7592C160.219 34.8367 160.603 35.5273 160.677 36.3693C160.755 37.2114 160.371 37.8244 159.913 37.7504C159.377 37.6729 158.993 36.9823 158.915 36.1403C158.838 35.2983 159.222 34.6852 159.68 34.7592H159.683Z" fill="#27313A"/>
<path d="M160.6 28.8543C160.448 29.6963 159.451 30.0804 158.764 29.6224C157.309 28.7803 155.931 28.3963 155.011 28.3188C154.324 28.2413 153.862 27.5507 153.94 26.8637L154.017 26.5572C154.095 25.9442 154.553 25.4826 155.166 25.4826C157.312 25.4051 159.303 26.7862 160.297 27.5543C160.681 27.8608 160.833 28.3963 160.604 28.8578L160.6 28.8543Z" fill="#27313A"/>
<path d="M142.914 29.3124C143.143 30.0804 144.14 30.3869 144.827 29.9254C146.205 29.0058 147.583 28.5443 148.503 28.3928C149.193 28.2378 149.651 27.5508 149.496 26.8602L149.419 26.5537C149.341 25.9407 148.806 25.5566 148.192 25.5566C146.05 25.6342 144.133 27.0892 143.213 27.9348C142.829 28.3188 142.755 28.8543 142.907 29.3159L142.914 29.3124Z" fill="#27313A"/>
<path d="M152.988 52.111C152.393 52.111 151.681 51.9525 150.916 51.4627C149.436 50.4762 148.872 48.2778 148.851 48.1862C148.805 47.9959 148.918 47.8057 149.108 47.7599C149.299 47.7106 149.489 47.8268 149.535 48.0171C149.538 48.0382 150.056 50.0464 151.304 50.8779C152.977 51.9525 154.299 51.0717 154.352 51.0364C154.51 50.9272 154.732 50.966 154.842 51.1245C154.951 51.2831 154.912 51.5015 154.754 51.6142C154.708 51.6459 154.017 52.118 152.988 52.118V52.111Z" fill="#27313A"/>
<path d="M162.21 20.8778C158.535 15.0505 153.404 6.23196 139.389 7.84205C125.375 9.45214 120.399 24.098 125.375 35.1397C126.908 33.452 130.199 32.455 132.113 35.6012C132.571 36.3692 135.175 42.4256 135.943 43.1936C138.241 45.6458 135.559 35.3722 135.33 30.3904C141.916 29.6224 144.059 22.3399 144.214 19.4263C147.124 18.9647 149.193 20.0393 151.642 21.5719C157.615 25.3276 165.808 26.7862 162.21 20.8813V20.8778Z" fill="#27313A"/>
<path d="M161.139 43.7293C157.615 42.8872 155.473 39.4345 156.315 35.9078C157.157 32.3811 160.603 30.2355 164.127 31.0775C167.651 31.9196 169.794 35.3723 168.951 38.899C168.109 42.3482 164.585 44.5713 161.139 43.7293ZM163.821 31.9971C160.832 31.3065 157.848 33.1456 157.157 36.1368C156.466 39.128 158.306 42.1192 161.291 42.8062C164.279 43.4968 167.264 41.6576 167.954 38.6665C168.719 35.6753 166.805 32.6841 163.817 31.9971H163.821Z" fill="#27313A"/>
<path d="M162.63 43.9972C162.126 43.9972 161.618 43.9373 161.118 43.814C157.52 42.9508 155.374 39.4699 156.23 35.8868C156.642 34.1569 157.689 32.6983 159.169 31.7788C160.653 30.8592 162.422 30.5774 164.148 30.9931C167.746 31.8528 169.896 35.3372 169.039 38.9203C168.624 40.6184 167.57 42.0665 166.072 43.0001C165.012 43.6589 163.828 43.9972 162.633 43.9972H162.63ZM162.584 30.9825C161.414 30.9825 160.272 31.3031 159.261 31.9303C157.819 32.8252 156.801 34.245 156.399 35.9291C155.568 39.417 157.657 42.8063 161.16 43.6448C162.799 44.0465 164.508 43.7646 165.974 42.8521C167.433 41.9431 168.462 40.5339 168.863 38.8815C169.695 35.3936 167.605 32.0043 164.103 31.1657C163.595 31.0459 163.084 30.9861 162.58 30.9861L162.584 30.9825ZM162.563 43.0424C162.133 43.0424 161.699 42.9931 161.273 42.8944C158.256 42.1968 156.371 39.1563 157.072 36.1193C157.411 34.6502 158.302 33.4065 159.581 32.6138C160.857 31.821 162.369 31.5709 163.842 31.9127C165.322 32.2544 166.622 33.1916 167.408 34.4846C168.183 35.76 168.409 37.2538 168.042 38.6912C167.704 40.1569 166.812 41.4006 165.533 42.1933C164.628 42.7535 163.606 43.0424 162.566 43.0424H162.563ZM162.548 31.9408C161.541 31.9408 160.55 32.2192 159.673 32.7617C158.433 33.5298 157.569 34.7347 157.242 36.1581C156.561 39.1035 158.387 42.0488 161.312 42.7218C162.735 43.0494 164.201 42.8098 165.438 42.0418C166.678 41.2737 167.542 40.0688 167.87 38.6454C168.225 37.2538 168.007 35.8093 167.256 34.5727C166.495 33.3184 165.234 32.4129 163.799 32.0782C163.384 31.9831 162.964 31.9338 162.548 31.9338V31.9408Z" fill="#27313A"/>
<path d="M145.821 45.7234C142.297 44.8814 140.154 41.4287 140.996 37.902C141.839 34.3753 145.285 32.2296 148.809 33.0717C152.329 33.9137 154.475 37.3664 153.633 40.8931C152.791 44.3423 149.345 46.5655 145.821 45.7234ZM148.576 33.9912C145.588 33.3007 142.603 35.1398 141.913 38.131C141.222 41.1221 143.061 44.1133 146.05 44.8003C149.038 45.4909 152.023 43.6518 152.713 40.6606C153.404 37.6694 151.565 34.6782 148.58 33.9912H148.576Z" fill="#27313A"/>
<path d="M147.308 45.9877C146.811 45.9877 146.303 45.9313 145.8 45.808C142.202 44.9448 140.052 41.4639 140.908 37.8808C141.321 36.151 142.367 34.6924 143.847 33.7728C145.331 32.8533 147.1 32.5749 148.827 32.9872C152.424 33.8503 154.57 37.3312 153.718 40.9143C152.978 43.9442 150.268 45.9877 147.308 45.9877ZM145.842 45.6389C149.249 46.4528 152.706 44.3177 153.549 40.872C154.38 37.3841 152.291 33.9948 148.788 33.1563C147.11 32.7546 145.387 33.0259 143.942 33.9208C142.501 34.8157 141.483 36.2355 141.081 37.9196C140.249 41.4076 142.339 44.7969 145.842 45.6354V45.6389ZM147.322 45.0364C146.892 45.0364 146.462 44.9871 146.032 44.8885C143.016 44.1909 141.13 41.1504 141.832 38.1134C142.17 36.6477 143.062 35.4005 144.341 34.6078C145.616 33.8151 147.132 33.5685 148.601 33.9067C151.617 34.6043 153.503 37.6448 152.802 40.6818C152.463 42.1474 151.572 43.3946 150.293 44.1873C149.387 44.7475 148.365 45.0364 147.325 45.0364H147.322ZM147.308 33.9349C146.3 33.9349 145.306 34.2132 144.432 34.7558C143.192 35.5238 142.329 36.7288 142.001 38.1521C141.321 41.0975 143.146 44.0429 146.071 44.7158C147.495 45.047 148.96 44.8039 150.197 44.0358C151.438 43.2678 152.301 42.0629 152.629 40.6395C153.309 37.6941 151.484 34.7487 148.559 34.0758C148.143 33.9807 147.724 33.9314 147.308 33.9314V33.9349Z" fill="#27313A"/>
<path d="M135.178 36.7534C135.33 36.9084 135.485 36.9824 135.562 37.0599C138.551 37.2889 140.922 39.054 140.922 39.054C141 39.054 141.074 39.1315 141.151 39.1315C141.303 39.1315 141.535 39.054 141.609 38.9025C141.838 38.7475 141.761 38.367 141.532 38.212C141.38 38.1344 138.928 36.2178 135.636 35.9888C135.252 35.9113 134.946 36.3729 135.178 36.7569V36.7534Z" fill="#27313A"/>
<path d="M141.151 39.2162C141.091 39.2162 141.042 39.1915 140.996 39.1704C140.968 39.1563 140.936 39.1422 140.922 39.1422H140.894L140.869 39.1246C140.845 39.107 138.48 37.3735 135.555 37.1481H135.524L135.499 37.1234C135.471 37.0952 135.429 37.067 135.383 37.0318C135.309 36.979 135.214 36.912 135.119 36.8169L135.147 36.7887H135.126L135.108 36.7993C135.108 36.7993 135.104 36.7922 135.101 36.7887L135.094 36.7781C134.978 36.5667 134.988 36.3166 135.126 36.1228C135.252 35.9431 135.457 35.8586 135.658 35.9009C137 35.9925 139.111 36.4434 141.462 38.057C141.521 38.0993 141.56 38.124 141.574 38.131C141.74 38.2403 141.839 38.4305 141.839 38.6208C141.839 38.7652 141.782 38.885 141.68 38.959C141.581 39.1281 141.338 39.2162 141.151 39.2162ZM140.954 38.966C141 38.9731 141.039 38.9942 141.077 39.0118C141.106 39.0259 141.134 39.04 141.151 39.04C141.292 39.04 141.479 38.966 141.532 38.8603L141.543 38.8392L141.564 38.8251C141.645 38.7687 141.662 38.6806 141.662 38.6172C141.662 38.4869 141.592 38.3495 141.486 38.279C141.479 38.279 141.433 38.2438 141.363 38.198C139.041 36.609 136.965 36.1651 135.633 36.07C135.485 36.0418 135.355 36.0982 135.267 36.2215C135.189 36.3307 135.143 36.5139 135.249 36.6971C135.33 36.7781 135.411 36.8345 135.481 36.8838C135.524 36.9155 135.566 36.9437 135.598 36.9719C138.413 37.1974 140.711 38.7934 140.954 38.966Z" fill="#27313A"/>
<path d="M134.946 88.0473C129.124 80.3033 123.384 94.3362 123.384 94.3362C115.804 85.6727 115.878 72.8659 115.878 72.8659C121.699 65.351 129.663 64.5864 129.663 64.5864C134.717 75.1665 134.946 88.0508 134.946 88.0508V88.0473Z" fill="white"/>
<path d="M123.384 94.6885C123.282 94.6885 123.187 94.6462 123.12 94.5687C115.536 85.9052 115.526 72.9963 115.529 72.8659C115.529 72.7884 115.554 72.7144 115.603 72.651C121.45 65.1044 129.551 64.2412 129.632 64.2342C129.78 64.2236 129.921 64.2976 129.984 64.4314C135.013 74.9587 135.302 87.9099 135.302 88.0403C135.302 88.1918 135.207 88.3292 135.066 88.3785C134.921 88.4278 134.763 88.3785 134.671 88.2587C133.462 86.6521 132.183 85.9228 130.865 86.092C126.986 86.5923 123.747 94.3891 123.715 94.4666C123.67 94.5793 123.567 94.6603 123.448 94.6815C123.43 94.6815 123.409 94.685 123.391 94.685L123.384 94.6885ZM116.234 72.9857C116.252 74.2682 116.618 85.6692 123.285 93.6774C124.114 91.8383 127.07 85.87 130.77 85.3944C132.102 85.2253 133.371 85.7714 134.551 87.0256C134.375 83.8019 133.505 73.5952 129.456 64.967C128.096 65.1713 121.316 66.496 116.234 72.9857Z" fill="#27313A"/>
<path d="M101.177 116.187C102.096 119.485 102.403 121.172 103.397 124.777C111.209 113.122 112.051 110.821 113.887 101.925" fill="#27313A"/>
<path d="M148.351 73.0174C147.097 79.7643 147.435 87.4801 147.555 89.4742C147.569 89.6926 147.815 89.8089 147.995 89.682C150.638 87.7478 154.098 83.5235 154.098 83.5235C154.098 83.5235 160.53 76.7766 155.783 73.0949C151.801 70.0262 149.655 67.1125 149.655 67.1125L148.968 69.7197L148.355 73.0174H148.351Z" fill="white"/>
<path d="M147.826 90.0871C147.734 90.0871 147.643 90.066 147.558 90.0273C147.35 89.9286 147.213 89.7243 147.199 89.4952C147.072 87.3144 146.751 79.6832 148.002 72.9539L148.615 69.6562L149.309 67.0244C149.345 66.894 149.45 66.7919 149.584 66.7672C149.718 66.7425 149.852 66.7954 149.933 66.9046C149.954 66.9328 152.1 69.8183 155.991 72.8165C157.132 73.7008 157.76 74.8282 157.862 76.1635C158.13 79.7537 154.5 83.6045 154.349 83.7666C154.225 83.9216 150.849 88.0261 148.199 89.9638C148.09 90.0449 147.96 90.0836 147.826 90.0836V90.0871ZM149.81 67.8876L149.302 69.8112L148.696 73.0843C147.484 79.5951 147.766 86.9832 147.896 89.3156C150.458 87.3954 153.788 83.3438 153.82 83.3015C153.873 83.2451 157.407 79.4929 157.161 76.2164C157.076 75.0854 156.537 74.1307 155.561 73.3732C152.576 71.0761 150.634 68.8846 149.81 67.8876Z" fill="#27313A"/>
<path d="M147.731 90.0697C147.678 90.0697 147.629 90.0591 147.576 90.0345C144.866 88.7203 142.322 87.075 140.017 85.1408C137.533 83.0551 135.334 80.6417 133.484 77.9711C133.375 77.8126 133.413 77.5906 133.572 77.4814C133.731 77.3722 133.953 77.4109 134.062 77.5695C135.877 80.1907 138.033 82.5548 140.468 84.6017C142.727 86.4972 145.222 88.1144 147.879 89.4003C148.055 89.4849 148.126 89.6963 148.041 89.8724C147.981 89.9993 147.854 90.0697 147.724 90.0697H147.731Z" fill="#27313A"/>
<path d="M104.961 82.0649C103.661 83.2311 72.1365 111.6 66.6181 118.576C65.2015 120.369 64.1514 122.222 64.1514 122.222C62.5375 125.083 61.3676 128.402 60.7156 132.446C59.5422 139.75 61.4909 145.186 62.3014 146.708C62.3437 146.786 62.7137 147.487 63.2352 148.406C63.8871 149.562 64.6095 150.802 65.413 152.148C70.2371 160.227 78.5253 171.755 92.5433 183.124C93.4454 183.797 94.351 184.47 95.2531 185.143C97.0433 183.448 98.8404 181.729 100.645 179.981C102.748 177.945 104.813 175.919 106.843 173.9C105.532 171.98 104.225 170.039 102.921 168.076C96.2892 158.099 90.1576 148.195 84.4771 138.422L115.262 106.142C116.157 105.247 117.048 104.353 117.943 103.458" fill="white"/>
<path d="M95.2531 185.495C95.1791 185.495 95.1051 185.471 95.0417 185.425L92.3318 183.406C81.1788 174.362 72.0238 163.909 65.1099 152.328C64.2712 150.926 63.5594 149.7 62.9286 148.579C62.4212 147.677 62.0512 146.987 61.9948 146.881C60.9412 144.908 59.2497 139.345 60.3668 132.39C60.9975 128.462 62.1358 125.08 63.8448 122.05C63.8871 121.972 64.9231 120.151 66.3433 118.357C71.9392 111.279 104.401 82.0968 104.725 81.8044C104.87 81.6741 105.092 81.6881 105.222 81.8326C105.353 81.977 105.342 82.199 105.194 82.3294C104.866 82.6218 72.4537 111.766 66.893 118.798C65.5081 120.549 64.465 122.381 64.4545 122.399C62.7877 125.354 61.6777 128.659 61.061 132.503C59.9721 139.275 61.6001 144.647 62.6115 146.543C62.6714 146.656 63.0343 147.339 63.5418 148.234C64.169 149.351 64.8809 150.57 65.716 151.969C72.5911 163.479 81.6897 173.872 92.7653 182.853L95.2249 184.685C96.9516 183.054 98.6889 181.387 100.402 179.731C102.4 177.801 104.412 175.824 106.389 173.862C105.127 172.008 103.862 170.131 102.629 168.277C96.2116 158.62 90.0026 148.639 84.1741 138.605C84.0965 138.471 84.1142 138.299 84.2234 138.186L115.008 105.907L117.693 103.218C117.831 103.081 118.053 103.081 118.19 103.218C118.327 103.356 118.327 103.578 118.19 103.719L115.508 106.403L84.9106 138.485C90.6932 148.431 96.8494 158.324 103.21 167.893C104.496 169.828 105.814 171.786 107.129 173.714C107.224 173.855 107.206 174.041 107.086 174.161C105.039 176.197 102.953 178.244 100.884 180.246C99.1012 181.972 97.2864 183.709 95.4892 185.407C95.4223 185.471 95.3342 185.502 95.2461 185.502L95.2531 185.495Z" fill="#27313A"/>
<path d="M177.68 134.176C177.571 134.176 177.462 134.127 177.395 134.032C177.282 133.873 177.317 133.655 177.472 133.539L183.294 129.322C183.452 129.205 183.671 129.244 183.787 129.399C183.9 129.558 183.865 129.776 183.709 129.892L177.888 134.11C177.825 134.155 177.754 134.176 177.68 134.176Z" fill="#27313A"/>
<path d="M236.631 106.512C236.476 106.512 236.335 106.41 236.293 106.255C236.24 106.068 236.353 105.875 236.539 105.822L249.634 102.218C249.821 102.165 250.015 102.278 250.067 102.464C250.12 102.651 250.008 102.845 249.821 102.898L236.726 106.502C236.694 106.509 236.663 106.516 236.631 106.516V106.512Z" fill="#27313A"/>
<path d="M96.3946 184.068C97.0853 184.78 102.734 190.287 108.059 195.335C108.059 195.335 109.778 197.33 112.925 198.598C113.961 199.014 114.874 199.232 115.508 199.352C115.787 199.398 116.206 199.436 116.678 199.331C117.689 199.116 117.785 198.534 118.521 198.302C119.31 198.052 119.673 198.577 122.605 199.479C123.187 199.658 123.525 199.658 123.705 199.644C123.758 199.641 123.796 199.634 123.821 199.63C124.117 199.588 124.808 199.486 125.157 199.042C125.604 198.471 125.283 197.615 125.262 197.559C125.512 197.699 126.316 198.105 127.169 197.819C127.32 197.77 127.521 197.699 127.687 197.527C128.124 197.072 128.057 196.146 127.539 195.198C127.757 195.156 129.036 194.892 129.198 194.155C129.329 193.57 128.684 192.982 128.25 192.598C124.762 189.501 122.588 188.032 122.588 188.032C119.37 185.851 118.824 185.238 118.912 185.083C119.095 184.759 121.876 186.594 124.307 185.559C124.427 185.506 125.731 184.939 125.689 184.28C125.66 183.878 125.146 183.61 124.882 183.473C120.889 181.398 119.476 180.411 117.422 179.974C116.431 179.763 116.033 179.692 116.033 179.692C114.909 179.481 114.585 179.464 113.619 179.178C110.124 178.139 107.576 176.335 105.934 174.922C102.872 177.987 99.4569 181.007 96.3911 184.072L96.3946 184.068Z" fill="white"/>
<path d="M123.564 200C123.261 200 122.905 199.937 122.503 199.813C121.305 199.447 120.54 199.144 119.984 198.922C119.173 198.601 118.969 198.527 118.631 198.637C118.377 198.718 118.222 198.848 118.024 199.017C117.75 199.25 117.411 199.539 116.756 199.676C116.347 199.768 115.917 199.775 115.456 199.701C114.532 199.524 113.641 199.264 112.799 198.926C109.712 197.682 107.981 195.779 107.809 195.582C102.576 190.621 96.853 185.048 96.1447 184.315C96.0108 184.177 96.0108 183.956 96.1482 183.822C97.6846 182.286 99.3303 180.739 100.927 179.242C102.516 177.748 104.161 176.201 105.691 174.672C105.821 174.542 106.029 174.535 106.17 174.654C108.457 176.62 111.001 178.03 113.725 178.84C114.423 179.048 114.775 179.108 115.364 179.213C115.575 179.249 115.811 179.291 116.107 179.347C116.122 179.347 116.52 179.421 117.503 179.633C119.092 179.971 120.297 180.623 122.486 181.799C123.212 182.19 124.054 182.645 125.055 183.163C125.368 183.325 126.013 183.66 126.052 184.259C126.108 185.111 124.847 185.717 124.459 185.886C122.82 186.584 121.051 186.076 119.952 185.699C120.456 186.105 121.319 186.742 122.799 187.746C122.82 187.761 125.03 189.265 128.497 192.337C128.959 192.749 129.734 193.436 129.558 194.233C129.407 194.916 128.638 195.265 128.06 195.438C128.462 196.389 128.43 197.273 127.955 197.77C127.729 198.006 127.458 198.098 127.296 198.15C126.732 198.341 126.189 198.277 125.756 198.143C125.777 198.492 125.721 198.908 125.446 199.257C125.009 199.813 124.219 199.93 123.881 199.975C123.835 199.982 123.797 199.986 123.747 199.993C123.691 199.997 123.631 200 123.571 200H123.564ZM118.898 197.886C119.279 197.886 119.659 198.034 120.244 198.267C120.791 198.482 121.541 198.781 122.715 199.14C123.109 199.264 123.434 199.313 123.68 199.292C123.715 199.292 123.744 199.285 123.765 199.281C124.033 199.243 124.625 199.158 124.889 198.82C125.217 198.404 124.945 197.689 124.942 197.682C124.889 197.544 124.928 197.386 125.04 197.287C125.153 197.189 125.315 197.174 125.442 197.245C125.766 197.428 126.408 197.699 127.063 197.481C127.183 197.442 127.331 197.389 127.44 197.28C127.757 196.949 127.673 196.163 127.239 195.364C127.186 195.265 127.183 195.145 127.229 195.046C127.278 194.944 127.37 194.87 127.479 194.849C128.11 194.726 128.783 194.44 128.864 194.078C128.952 193.683 128.349 193.147 128.025 192.859C124.596 189.818 122.419 188.338 122.398 188.321C118.268 185.52 118.419 185.249 118.613 184.907C118.814 184.551 119.215 184.688 119.878 184.921C120.907 185.284 122.63 185.89 124.177 185.231C124.836 184.949 125.358 184.53 125.343 184.297C125.329 184.093 124.892 183.867 124.727 183.779C123.719 183.254 122.877 182.803 122.147 182.409C120.015 181.26 118.842 180.63 117.355 180.309C116.386 180.101 115.984 180.031 115.981 180.031C115.688 179.974 115.452 179.932 115.244 179.897C114.631 179.788 114.264 179.724 113.528 179.506C110.804 178.695 108.263 177.314 105.962 175.391C104.493 176.853 102.928 178.322 101.413 179.745C99.9082 181.158 98.3577 182.617 96.8988 184.065C98.2238 185.386 103.474 190.491 108.309 195.075C108.351 195.12 110.043 197.048 113.066 198.267C113.866 198.587 114.712 198.837 115.582 199C115.949 199.059 116.287 199.052 116.611 198.982C117.098 198.88 117.32 198.689 117.577 198.475C117.792 198.291 118.035 198.083 118.426 197.96C118.595 197.907 118.754 197.883 118.909 197.883L118.898 197.886Z" fill="#27313A"/>
<path d="M118.983 198.542C118.934 198.542 118.888 198.531 118.838 198.51C118.461 198.341 118.091 198.175 117.728 198.024C116.051 197.287 114.553 196.248 113.271 194.941L112.115 193.754C111.977 193.613 111.981 193.391 112.122 193.257C112.263 193.123 112.485 193.123 112.619 193.264L113.771 194.448C114.99 195.691 116.414 196.678 118.003 197.375C118.363 197.527 118.74 197.696 119.12 197.865C119.296 197.946 119.378 198.154 119.296 198.33C119.237 198.461 119.11 198.538 118.976 198.538L118.983 198.542Z" fill="#27313A"/>
<path d="M125.322 197.942C125.287 197.942 125.248 197.935 125.21 197.925C121.503 196.692 118.285 194.44 116.238 192.767C116.086 192.644 116.065 192.422 116.188 192.27C116.312 192.119 116.534 192.097 116.685 192.221C118.687 193.855 121.83 196.057 125.435 197.255C125.618 197.315 125.721 197.516 125.657 197.699C125.608 197.847 125.47 197.939 125.322 197.939V197.942Z" fill="#27313A"/>
<path d="M127.546 195.55C127.493 195.55 127.437 195.536 127.384 195.511C125.847 194.715 124.329 193.834 122.873 192.894C121.471 191.985 120.093 190.998 118.778 189.959C118.627 189.839 118.599 189.617 118.722 189.466C118.842 189.314 119.064 189.286 119.215 189.409C120.512 190.435 121.872 191.41 123.257 192.305C124.695 193.236 126.193 194.106 127.708 194.888C127.881 194.976 127.948 195.191 127.859 195.364C127.796 195.483 127.673 195.554 127.546 195.554V195.55Z" fill="#27313A"/>
</g>
<defs>
<clipPath id="clip0_2618_974">
<rect width="336" height="200" fill="white"/>
</clipPath>
</defs>
</svg>
