<svg width="24" height="24" viewBox="0 0 24 24" fill="none" xmlns="http://www.w3.org/2000/svg">
<g id="Icons">
<g id="Group">
<path id="Vector" d="M9.04359 14.0581C9.54383 14.0581 9.95403 14.4677 9.95403 14.9672V19.7926C9.95403 20.2921 9.54383 20.7017 9.04359 20.7017H4.21129C3.71105 20.7017 3.30086 20.2921 3.30086 19.7926V14.9672C3.30086 14.4677 3.71105 14.0581 4.21129 14.0581H9.04359ZM9.04359 12.2598H4.21129C2.71058 12.2598 1.5 13.4686 1.5 14.9672V19.7926C1.5 21.2912 2.71058 22.5 4.21129 22.5H9.04359C10.5443 22.5 11.7549 21.2912 11.7549 19.7926V14.9672C11.7549 13.4686 10.5443 12.2598 9.04359 12.2598Z" fill="#4A5866"/>
<path id="Vector_2" d="M7.62292 3.29829C8.2132 3.29829 8.68342 3.77783 8.68342 4.35728V7.60419C8.68342 8.19362 8.20319 8.66318 7.62292 8.66318H4.36136C3.77108 8.66318 3.30086 8.18363 3.30086 7.60419V4.35728C3.30086 3.76784 3.78109 3.29829 4.36136 3.29829H7.61291H7.62292ZM7.61291 1.5H4.36136C2.78061 1.5 1.5 2.77878 1.5 4.35728V7.60419C1.5 9.18268 2.78061 10.4615 4.36136 10.4615H7.61291C9.19366 10.4615 10.4743 9.18268 10.4743 7.60419V4.35728C10.4743 2.77878 9.19366 1.5 7.61291 1.5V1.5Z" fill="#4A5866"/>
<path id="Vector_3" d="M19.7887 3.29829C20.2889 3.29829 20.6991 3.7079 20.6991 4.20742V9.03283C20.6991 9.53235 20.2889 9.94196 19.7887 9.94196H14.9564C14.4562 9.94196 14.046 9.53235 14.046 9.03283V4.20742C14.046 3.7079 14.4562 3.29829 14.9564 3.29829H19.7887ZM19.7887 1.5H14.9564C13.4557 1.5 12.2451 2.70885 12.2451 4.20742V9.03283C12.2451 10.5314 13.4557 11.7402 14.9564 11.7402H19.7887C21.2894 11.7402 22.5 10.5314 22.5 9.03283V4.20742C22.5 2.70885 21.2894 1.5 19.7887 1.5V1.5Z" fill="#4A5866"/>
<path id="Vector_4" d="M17.6877 20.9215H13.6658C13.1656 20.9215 12.7654 20.5219 12.7654 20.0224C12.7654 19.5229 13.1656 19.1232 13.6658 19.1232H17.6877C18.188 19.1232 18.5882 19.5229 18.5882 20.0224C18.5882 20.5219 18.188 20.9215 17.6877 20.9215Z" fill="#DC6337"/>
<path id="Vector_5" d="M21.5995 20.9215H20.6291C20.1288 20.9215 19.7286 20.5219 19.7286 20.0224C19.7286 19.5229 20.1288 19.1232 20.6291 19.1232H21.5995C22.0998 19.1232 22.5 19.5229 22.5 20.0224C22.5 20.5219 22.0998 20.9215 21.5995 20.9215Z" fill="#DC6337"/>
<path id="Vector_6" d="M18.1175 22.1303C17.6175 22.1303 17.2175 21.7307 17.2175 21.2312V18.7935C17.2175 18.294 17.6175 17.8943 18.1175 17.8943C18.6175 17.8943 19.0175 18.294 19.0175 18.7935V21.2312C19.0175 21.7307 18.6175 22.1303 18.1175 22.1303Z" fill="#DC6337"/>
<path id="Vector_7" d="M21.5996 16.0562H17.5777C17.0774 16.0562 16.6772 15.6565 16.6772 15.157C16.6772 14.6575 17.0774 14.2579 17.5777 14.2579H21.5996C22.0998 14.2579 22.5 14.6575 22.5 15.157C22.5 15.6565 22.0998 16.0562 21.5996 16.0562Z" fill="#DC6337"/>
<path id="Vector_8" d="M14.6363 16.0562H13.6658C13.1656 16.0562 12.7654 15.6565 12.7654 15.157C12.7654 14.6575 13.1656 14.2579 13.6658 14.2579H14.6363C15.1365 14.2579 15.5367 14.6575 15.5367 15.157C15.5367 15.6565 15.1365 16.0562 14.6363 16.0562Z" fill="#DC6337"/>
<path id="Vector_9" d="M17.147 17.275C16.647 17.275 16.247 16.8753 16.247 16.3758V13.9381C16.247 13.4386 16.647 13.039 17.147 13.039C17.647 13.039 18.047 13.4386 18.047 13.9381V16.3758C18.047 16.8753 17.647 17.275 17.147 17.275Z" fill="#DC6337"/>
</g>
</g>
</svg>
