<svg width="24" height="24" viewBox="0 0 24 24" fill="none" xmlns="http://www.w3.org/2000/svg">
<g id="Icons" clip-path="url(#clip0_2576_95464)">
<g id="Layer 8">
<path id="Vector" d="M16.5 11.385C15.5277 11.3854 14.5903 11.0226 13.8716 10.3678C13.1529 9.71289 12.7048 8.81317 12.615 7.84502C12.5661 7.33733 12.6191 6.82499 12.7711 6.33812C12.9231 5.85125 13.1709 5.39969 13.5 5.01002C13.8242 4.61382 14.2252 4.28732 14.6789 4.05016C15.1326 3.81299 15.6296 3.67008 16.14 3.63002C17.1656 3.54247 18.1841 3.86388 18.9737 4.52419C19.7633 5.1845 20.2598 6.13016 20.355 7.15502C20.4004 7.66324 20.3452 8.17542 20.1925 8.66231C20.0399 9.1492 19.7929 9.60125 19.4656 9.99266C19.1382 10.3841 18.737 10.7072 18.2848 10.9435C17.8326 11.1798 17.3382 11.3248 16.83 11.37L16.5 11.385ZM16.5 5.38502H16.305C16.0322 5.41124 15.7673 5.49097 15.5254 5.61967C15.2834 5.74836 15.0692 5.92348 14.895 6.13502C14.7203 6.3412 14.588 6.57982 14.5056 6.83721C14.4232 7.0946 14.3925 7.36571 14.415 7.63502C14.4159 7.92548 14.477 8.2126 14.5945 8.47824C14.712 8.74387 14.8834 8.98224 15.0977 9.17827C15.3121 9.37431 15.5647 9.52375 15.8398 9.61714C16.1148 9.71054 16.4062 9.74586 16.6956 9.72088C16.985 9.69589 17.2661 9.61115 17.521 9.47199C17.776 9.33284 17.9993 9.14231 18.1769 8.91244C18.3545 8.68258 18.4824 8.41837 18.5527 8.13653C18.6229 7.85469 18.6339 7.56134 18.585 7.27502C18.5261 6.76321 18.2812 6.2909 17.8967 5.94795C17.5123 5.60499 17.0152 5.41532 16.5 5.41502V5.38502Z" fill="#FFA800"/>
<path id="Vector_2" d="M16.5 13.5C16.2613 13.5 16.0324 13.4052 15.8636 13.2364C15.6948 13.0677 15.6 12.8387 15.6 12.6V10.5C15.6 10.3818 15.6233 10.2648 15.6685 10.1556C15.7137 10.0464 15.78 9.94721 15.8636 9.86364C15.9472 9.78007 16.0464 9.71377 16.1556 9.66854C16.2648 9.62332 16.3818 9.60004 16.5 9.60004C16.6182 9.60004 16.7352 9.62332 16.8444 9.66854C16.9536 9.71377 17.0528 9.78007 17.1364 9.86364C17.2199 9.94721 17.2862 10.0464 17.3315 10.1556C17.3767 10.2648 17.4 10.3818 17.4 10.5V12.6C17.4 12.8387 17.3052 13.0677 17.1364 13.2364C16.9676 13.4052 16.7387 13.5 16.5 13.5Z" fill="#FFA800"/>
<path id="Vector_3" d="M16.5 5.415C16.2613 5.415 16.0324 5.32018 15.8636 5.1514C15.6948 4.98261 15.6 4.75369 15.6 4.515V2.4C15.6 2.16131 15.6948 1.93239 15.8636 1.7636C16.0324 1.59482 16.2613 1.5 16.5 1.5C16.7387 1.5 16.9676 1.59482 17.1364 1.7636C17.3052 1.93239 17.4 2.16131 17.4 2.4V4.5C17.402 4.61945 17.3802 4.73809 17.3358 4.84902C17.2915 4.95995 17.2255 5.06095 17.1417 5.14612C17.058 5.23128 16.9581 5.29892 16.8479 5.34509C16.7377 5.39125 16.6194 5.41502 16.5 5.415Z" fill="#FFA800"/>
<path id="Vector_4" d="M13.5 8.40004H11.4C11.1613 8.40004 10.9324 8.30522 10.7636 8.13643C10.5948 7.96765 10.5 7.73873 10.5 7.50004C10.5 7.26134 10.5948 7.03242 10.7636 6.86364C10.9324 6.69486 11.1613 6.60004 11.4 6.60004H13.5C13.7387 6.60004 13.9676 6.69486 14.1364 6.86364C14.3052 7.03242 14.4 7.26134 14.4 7.50004C14.4 7.73873 14.3052 7.96765 14.1364 8.13643C13.9676 8.30522 13.7387 8.40004 13.5 8.40004Z" fill="#FFA800"/>
<path id="Vector_5" d="M21.6 8.40004H19.5C19.2613 8.40004 19.0324 8.30522 18.8636 8.13643C18.6948 7.96765 18.6 7.73873 18.6 7.50004C18.6 7.26134 18.6948 7.03242 18.8636 6.86364C19.0324 6.69486 19.2613 6.60004 19.5 6.60004H21.6C21.8387 6.60004 22.0676 6.69486 22.2364 6.86364C22.4052 7.03242 22.5 7.26134 22.5 7.50004C22.5 7.73873 22.4052 7.96765 22.2364 8.13643C22.0676 8.30522 21.8387 8.40004 21.6 8.40004Z" fill="#FFA800"/>
<path id="Vector_6" d="M14.385 6.28498C14.2638 6.28334 14.1442 6.25725 14.0334 6.20828C13.9226 6.1593 13.8228 6.08845 13.74 5.99998L12.24 4.49998C12.1322 4.42422 12.0424 4.32572 11.9768 4.21145C11.9113 4.09717 11.8716 3.9699 11.8607 3.83862C11.8497 3.70734 11.8677 3.57525 11.9134 3.45168C11.959 3.32811 12.0313 3.21608 12.125 3.12348C12.2187 3.03089 12.3316 2.96 12.4557 2.91581C12.5798 2.87163 12.7121 2.85522 12.8432 2.86777C12.9744 2.88031 13.1011 2.92148 13.2146 2.98839C13.3281 3.0553 13.4255 3.1463 13.5 3.25498L15 4.75498C15.083 4.83602 15.1489 4.93283 15.194 5.03974C15.239 5.14664 15.2622 5.26147 15.2622 5.37748C15.2622 5.49348 15.239 5.60831 15.194 5.71521C15.1489 5.82212 15.083 5.91894 15 5.99998C14.9212 6.08556 14.8264 6.15479 14.7209 6.20369C14.6153 6.25259 14.5012 6.28021 14.385 6.28498Z" fill="#FFA800"/>
<path id="Vector_7" d="M20.1 12C19.8741 11.9976 19.6584 11.9059 19.5 11.745L18 10.245C17.8876 10.0721 17.8381 9.86584 17.8597 9.66076C17.8812 9.45568 17.9725 9.26422 18.1183 9.1184C18.2642 8.97259 18.4556 8.88127 18.6607 8.85973C18.8658 8.83818 19.072 8.88771 19.245 9.00003L20.745 10.5C20.8594 10.6279 20.935 10.7858 20.9627 10.9552C20.9904 11.1245 20.9691 11.2983 20.9013 11.4559C20.8335 11.6136 20.722 11.7486 20.5801 11.845C20.4381 11.9414 20.2715 11.9952 20.1 12Z" fill="#FFA800"/>
<path id="Vector_8" d="M18.615 6.28503C18.4434 6.28017 18.2769 6.22636 18.1349 6.12996C17.9929 6.03355 17.8815 5.89857 17.8137 5.74091C17.7459 5.58326 17.7246 5.40951 17.7523 5.24015C17.78 5.07079 17.8555 4.91288 17.97 4.78503L19.47 3.28503C19.6391 3.11595 19.8684 3.02097 20.1075 3.02097C20.3466 3.02097 20.5759 3.11595 20.745 3.28503C20.9141 3.4541 21.009 3.68342 21.009 3.92253C21.009 4.16164 20.9141 4.39095 20.745 4.56003L19.245 6.06003C19.16 6.13725 19.0606 6.19688 18.9525 6.2355C18.8443 6.27412 18.7296 6.29095 18.615 6.28503Z" fill="#FFA800"/>
<path id="Vector_9" d="M12.885 12C12.7683 12.002 12.6523 11.9804 12.5441 11.9366C12.4359 11.8928 12.3376 11.8276 12.255 11.745C12.0892 11.5743 11.9964 11.3456 11.9964 11.1075C11.9964 10.8695 12.0892 10.6408 12.255 10.47L13.755 8.97002C13.928 8.81695 14.1525 8.73497 14.3834 8.74053C14.6143 8.7461 14.8346 8.83879 15 9.00002C15.0858 9.08258 15.154 9.1816 15.2006 9.29113C15.2472 9.40067 15.2712 9.51848 15.2712 9.63752C15.2712 9.75655 15.2472 9.87436 15.2006 9.9839C15.154 10.0934 15.0858 10.1925 15 10.275L13.5 11.775C13.3313 11.9259 13.1113 12.0064 12.885 12Z" fill="#FFA800"/>
<path id="Vector_10" d="M15.6 18.6H3.9C3.26348 18.6 2.65303 18.3472 2.20294 17.8971C1.75286 17.447 1.5 16.8366 1.5 16.2V9.00004C1.5 8.36352 1.75286 7.75307 2.20294 7.30298C2.65303 6.85289 3.26348 6.60004 3.9 6.60004H6.63C6.86869 6.60004 7.09761 6.69486 7.2664 6.86364C7.43518 7.03242 7.53 7.26134 7.53 7.50004C7.53 7.73873 7.43518 7.96765 7.2664 8.13643C7.09761 8.30522 6.86869 8.40004 6.63 8.40004H3.9C3.74087 8.40004 3.58826 8.46325 3.47574 8.57577C3.36321 8.68829 3.3 8.84091 3.3 9.00004V16.2C3.3 16.3592 3.36321 16.5118 3.47574 16.6243C3.58826 16.7368 3.74087 16.8 3.9 16.8H15.6C15.8387 16.8 16.0676 16.8949 16.2364 17.0636C16.4052 17.2324 16.5 17.4613 16.5 17.7C16.5 17.9387 16.4052 18.1677 16.2364 18.3364C16.0676 18.5052 15.8387 18.6 15.6 18.6Z" fill="#4A5868"/>
<path id="Vector_11" d="M9.45002 22.5C9.21132 22.5 8.9824 22.4052 8.81362 22.2364C8.64484 22.0676 8.55002 21.8387 8.55002 21.6V17.7C8.55002 17.4613 8.64484 17.2324 8.81362 17.0636C8.9824 16.8948 9.21132 16.8 9.45002 16.8C9.68871 16.8 9.91763 16.8948 10.0864 17.0636C10.2552 17.2324 10.35 17.4613 10.35 17.7V21.6C10.35 21.8387 10.2552 22.0676 10.0864 22.2364C9.91763 22.4052 9.68871 22.5 9.45002 22.5Z" fill="#4A5868"/>
<path id="Vector_12" d="M13.05 22.5H5.84998C5.61129 22.5 5.38237 22.4052 5.21359 22.2364C5.0448 22.0676 4.94998 21.8387 4.94998 21.6C4.94998 21.3613 5.0448 21.1324 5.21359 20.9636C5.38237 20.7948 5.61129 20.7 5.84998 20.7H13.05C13.1682 20.7 13.2852 20.7233 13.3944 20.7685C13.5036 20.8137 13.6028 20.88 13.6864 20.9636C13.7699 21.0472 13.8362 21.1464 13.8815 21.2556C13.9267 21.3648 13.95 21.4818 13.95 21.6C13.95 21.7182 13.9267 21.8352 13.8815 21.9444C13.8362 22.0536 13.7699 22.1528 13.6864 22.2364C13.6028 22.32 13.5036 22.3862 13.3944 22.4315C13.2852 22.4767 13.1682 22.5 13.05 22.5Z" fill="#4A5868"/>
</g>
</g>
<defs>
<clipPath id="clip0_2576_95464">
<rect width="24" height="24" fill="white"/>
</clipPath>
</defs>
</svg>
