<svg width="24" height="24" viewBox="0 0 24 24" fill="none" xmlns="http://www.w3.org/2000/svg">
<g id="Icons" clip-path="url(#clip0_2576_95455)">
<g id="Layer 8">
<path id="Vector" d="M10.65 21.84C10.4113 21.84 10.1824 21.7452 10.0136 21.5764C9.84482 21.4076 9.75 21.1787 9.75 20.94V7.30503C9.75 7.06633 9.84482 6.83742 10.0136 6.66863C10.1824 6.49985 10.4113 6.40503 10.65 6.40503C10.8887 6.40503 11.1176 6.49985 11.2864 6.66863C11.4552 6.83742 11.55 7.06633 11.55 7.30503V21C11.5348 21.2282 11.4332 21.442 11.2661 21.598C11.0989 21.754 10.8787 21.8405 10.65 21.84Z" fill="#4A5868"/>
<path id="Vector_2" d="M10.65 21.84C10.5455 21.8542 10.4395 21.8542 10.335 21.84L3.52499 19.215C3.36242 19.145 3.22507 19.0271 3.13127 18.877C3.03746 18.7269 2.99166 18.5518 2.99999 18.375V11.565C2.99999 11.3263 3.09481 11.0974 3.26359 10.9286C3.43237 10.7598 3.66129 10.665 3.89999 10.665C4.13868 10.665 4.3676 10.7598 4.53638 10.9286C4.70517 11.0974 4.79999 11.3263 4.79999 11.565V17.76L11.025 20.085C11.2316 20.1523 11.4069 20.2921 11.5185 20.4787C11.6301 20.6652 11.6704 20.8858 11.632 21.0997C11.5936 21.3136 11.4791 21.5064 11.3096 21.6425C11.1402 21.7786 10.9272 21.8487 10.71 21.84H10.65Z" fill="#4A5868"/>
<path id="Vector_3" d="M10.65 21.84C10.4672 21.8381 10.2893 21.7805 10.14 21.675C10.0293 21.5982 9.93694 21.4978 9.86952 21.3811C9.8021 21.2644 9.76129 21.1343 9.75 21V7.305C9.75284 7.11852 9.81355 6.93754 9.92372 6.78706C10.0339 6.63658 10.1881 6.52404 10.365 6.465C10.5431 6.40595 10.735 6.40306 10.9147 6.45672C11.0945 6.51038 11.2534 6.618 11.37 6.765L13.695 9.87L17.565 10.35C17.7838 10.3789 17.9847 10.486 18.1308 10.6513C18.2769 10.8167 18.3583 11.0293 18.36 11.25V18.375C18.3638 18.5589 18.3092 18.7392 18.2041 18.8901C18.099 19.0411 17.9488 19.1548 17.775 19.215L10.965 21.78C10.8633 21.8144 10.7573 21.8346 10.65 21.84ZM11.55 10.005V19.635L16.5 17.76V12L13.095 11.61C12.9739 11.5934 12.8572 11.553 12.7517 11.4912C12.6461 11.4295 12.5538 11.3475 12.48 11.25L11.55 10.005Z" fill="#4A5868"/>
<path id="Vector_4" d="M10.65 21.84C10.5455 21.8542 10.4395 21.8542 10.335 21.84L3.52499 19.215C3.36242 19.145 3.22507 19.0271 3.13127 18.8771C3.03746 18.727 2.99166 18.5518 2.99999 18.375V11.25C2.99847 11.0285 3.07875 10.8141 3.22544 10.6481C3.37213 10.482 3.57492 10.3759 3.79499 10.35L7.66499 9.87004L9.92999 6.78004C10.04 6.62489 10.1979 6.51008 10.3794 6.45318C10.5609 6.39629 10.7561 6.40046 10.935 6.46504C11.1143 6.5249 11.2702 6.63971 11.3806 6.79318C11.491 6.94665 11.5503 7.13099 11.55 7.32004V21C11.5477 21.1447 11.5112 21.2867 11.4434 21.4144C11.3756 21.5422 11.2785 21.6521 11.16 21.735C11.004 21.8195 10.8266 21.8561 10.65 21.84ZM4.73999 17.76L9.74999 19.635V10.005L8.81999 11.25C8.74618 11.3475 8.65387 11.4295 8.54834 11.4913C8.44281 11.5531 8.32613 11.5934 8.20499 11.61L4.73999 12V17.76Z" fill="#4A5868"/>
<path id="Vector_5" d="M18.84 11.835L13.17 11.61C13.0347 11.6089 12.9016 11.5757 12.7817 11.5131C12.6617 11.4505 12.5583 11.3604 12.48 11.25L9.93 7.84505C9.78822 7.71036 9.69505 7.5325 9.66503 7.33926C9.63501 7.14602 9.66985 6.94828 9.76409 6.77692C9.85833 6.60557 10.0067 6.47026 10.186 6.39213C10.3652 6.31399 10.5653 6.29744 10.755 6.34505L17.565 7.20005C17.7134 7.21419 17.8559 7.26561 17.9791 7.34952C18.1024 7.43344 18.2024 7.54713 18.27 7.68005L19.65 10.5C19.7277 10.6346 19.7686 10.7872 19.7686 10.9425C19.7686 11.0979 19.7277 11.2505 19.65 11.385C19.5673 11.5254 19.4486 11.6411 19.3062 11.7202C19.1638 11.7993 19.0029 11.8389 18.84 11.835ZM13.665 9.84005L17.355 9.97505L16.875 9.00005L12.645 8.47505L13.665 9.84005Z" fill="#4A5868"/>
<path id="Vector_6" d="M2.37 11.835C2.21591 11.8341 2.06465 11.7936 1.9307 11.7174C1.79676 11.6412 1.68461 11.532 1.605 11.4C1.52745 11.2627 1.48669 11.1077 1.48669 10.95C1.48669 10.7923 1.52745 10.6373 1.605 10.5L3 7.74002C3.06808 7.61189 3.16662 7.50246 3.28694 7.42138C3.40727 7.34029 3.54568 7.29003 3.69 7.27502L10.5 6.42002C10.6735 6.40227 10.8484 6.43365 11.0049 6.51056C11.1614 6.58748 11.2931 6.70684 11.385 6.85502C11.48 7.00265 11.5305 7.17449 11.5305 7.35002C11.5305 7.52556 11.48 7.69739 11.385 7.84502L8.82 11.25C8.74167 11.3603 8.63829 11.4505 8.51833 11.5131C8.39838 11.5757 8.26529 11.6089 8.13 11.61L2.4 11.835H2.37ZM4.41 9.00002L3.9 9.97502L7.635 9.84002L8.655 8.47502L4.41 9.00002Z" fill="#4A5868"/>
<path id="Vector_7" d="M20.25 14.175C20.0113 14.175 19.7824 14.0802 19.6136 13.9114C19.4448 13.7426 19.35 13.5137 19.35 13.275C19.35 13.0363 19.4448 12.8074 19.6136 12.6386C19.7824 12.4698 20.0113 12.375 20.25 12.375C20.3624 12.3841 20.4742 12.3505 20.5631 12.2811C20.652 12.2116 20.7115 12.1113 20.73 12V6.31502L18.39 4.03502C18.3415 4.01786 18.2885 4.01786 18.24 4.03502H15.75V5.14502C15.75 5.38372 15.6552 5.61264 15.4864 5.78142C15.3176 5.9502 15.0887 6.04502 14.85 6.04502C14.6113 6.04502 14.3824 5.9502 14.2136 5.78142C14.0448 5.61264 13.95 5.38372 13.95 5.14502V3.64502C13.9386 3.43835 13.9778 3.23201 14.064 3.04384C14.1502 2.85568 14.281 2.69134 14.445 2.56502C14.8158 2.31871 15.2642 2.21728 15.705 2.28002H18.195C18.7486 2.25992 19.2878 2.45941 19.695 2.83502L21.99 5.04002C22.1744 5.21958 22.3211 5.43412 22.4215 5.67108C22.522 5.90804 22.5741 6.16265 22.575 6.42002V12C22.5653 12.2955 22.4975 12.5863 22.3753 12.8556C22.2532 13.1248 22.0792 13.3674 21.8633 13.5694C21.6474 13.7714 21.3937 13.9289 21.1169 14.0328C20.8401 14.1367 20.5455 14.185 20.25 14.175Z" fill="#FFA800"/>
</g>
</g>
<defs>
<clipPath id="clip0_2576_95455">
<rect width="24" height="24" fill="white"/>
</clipPath>
</defs>
</svg>
