<?xml version="1.0" encoding="UTF-8"?>
<svg width="512px" height="512px" viewBox="0 0 512 512" version="1.1" xmlns="http://www.w3.org/2000/svg" xmlns:xlink="http://www.w3.org/1999/xlink">
    <!-- Generator: Sketch 59.1 (86144) - https://sketch.com -->
    <title>assets</title>
    <desc>Created with Sketch.</desc>
    <g id="Page-3" stroke="none" stroke-width="1" fill="none" fill-rule="evenodd">
        <g id="Left-Nav-Bar/Standard-Icons/Assets" transform="translate(56.000000, 32.000000)" fill="#000000" fill-rule="nonzero">
            <path d="M8.49515287,129.417029 L182.788963,234.23082 L182.788963,234.23082 C185.270694,235.731017 188.038777,236.431109 190.806861,236.431109 C190.806861,236.431109 190.806861,236.431109 190.902312,236.431109 C193.765846,236.431109 196.53393,235.631004 198.920209,234.23082 L373.214019,129.417029 C380.945563,124.71641 383.618195,114.315041 379.131991,106.313989 C377.604773,103.613633 375.409396,101.313331 372.736764,99.8131333 L198.538404,2.50032899 C193.765846,-0.200026319 187.943326,-0.200026319 183.170768,2.50032899 L8.97240865,99.7131201 C5.15436242,101.813396 2.3862789,105.41387 1.14541387,109.714436 C-0.0954511559,114.015002 0.286353468,118.615607 2.3862789,122.616134 C3.72259508,125.416502 5.91797166,127.816818 8.49515287,129.417029 Z M50.207308,115.21516 L190.902312,36.8048427 L331.597315,115.315173 L190.902312,199.926306 L50.207308,115.21516 Z" id="Shape"></path>
            <path d="M8.49515287,232.930649 L182.788963,337.844453 C185.270694,339.344651 188.038777,340.044743 190.902312,340.044743 C190.997763,340.044743 190.997763,340.044743 191.093214,340.044743 C193.861298,340.044743 196.629381,339.244637 199.111111,337.844453 L373.214019,233.030662 C380.945563,228.330043 383.618195,218.028688 379.131991,209.827609 C377.700224,207.227267 375.600298,205.026977 373.214019,203.626793 L365.387025,198.926174 L365.387025,198.926174 L329.783743,177.523358 C326.061148,175.223056 321.670395,174.622977 317.470544,175.723121 C313.270694,176.823266 309.739001,179.623635 307.543624,183.624161 C305.348248,187.524674 304.775541,192.225293 305.825503,196.525859 C306.875466,200.926438 309.739001,204.726938 313.461596,206.927227 L332.456376,218.428741 L190.902312,303.539939 L49.2527964,218.428741 L68.2475764,207.02724 C72.0656227,204.826951 74.8337062,201.026451 75.8836689,196.625872 C77.0290828,192.225293 76.3609247,187.624687 74.1655481,183.724174 C71.9701715,179.823661 68.4384787,177.023293 64.2386279,175.823135 C60.038777,174.72299 55.5525727,175.323069 51.9254288,177.623371 L8.39970172,203.726806 C4.67710664,205.927096 2.00447427,209.627583 0.859060403,213.928148 C-0.286353468,218.228714 0.286353468,222.82932 2.3862789,226.729833 C3.91349739,229.230162 6.01342282,231.430451 8.49515287,232.930649 Z" id="Shape"></path>
            <path d="M373.214019,309.940782 L329.783743,283.837347 C322.0522,279.136729 312.12528,281.837084 307.543624,289.93815 C305.348248,293.838663 304.775541,298.339255 305.920955,302.739834 C306.970917,307.140413 309.834452,310.940913 313.557047,313.141203 L332.551827,324.642716 L190.902312,409.853928 L49.2527964,324.742729 L68.2475764,313.341229 C71.9701715,311.14094 74.6428039,307.540466 75.8836689,303.139887 C77.0290828,298.839321 76.4563758,294.238716 74.3564504,290.338202 L74.2609993,290.038163 C69.6793438,281.937097 59.7524236,279.236742 52.0208799,283.93736 L8.49515287,310.040795 C0.763609247,314.741413 -1.90902312,325.042769 2.57718121,333.243848 C4.00894855,335.84419 6.10887397,338.04448 8.59060403,339.444664 L182.884415,444.358468 C185.366145,445.858666 188.134228,446.558758 190.997763,446.558758 C193.765846,446.558758 196.629381,445.858666 199.111111,444.358468 L373.309471,339.544677 C378.368382,336.544282 381.422819,330.843532 381.422819,324.842742 C381.422819,318.641927 378.272931,313.04119 373.214019,309.940782 Z" id="Shape"></path>
        </g>
    </g>
</svg>