<svg width="24" height="24" viewBox="0 0 24 24" fill="none" xmlns="http://www.w3.org/2000/svg">
<g id="Icons">
<g id="Frame" clip-path="url(#clip0_2770_105554)">
<path id="Vector (Stroke)" fill-rule="evenodd" clip-rule="evenodd" d="M3.82501 3.41501C3.65932 3.41501 3.52501 3.54932 3.52501 3.71501V20.285C3.52501 20.4507 3.65932 20.585 3.82501 20.585H8.08501C8.25069 20.585 8.38501 20.4507 8.38501 20.285V3.71501C8.38501 3.54932 8.25069 3.41501 8.08501 3.41501H3.82501ZM1.72501 3.71501C1.72501 2.55521 2.66521 1.61501 3.82501 1.61501H8.08501C9.2448 1.61501 10.185 2.55521 10.185 3.71501V20.285C10.185 21.4448 9.24481 22.385 8.08501 22.385H3.82501C2.66521 22.385 1.72501 21.4448 1.72501 20.285V3.71501Z" fill="#4A5868"/>
<path id="Vector (Stroke)_2" fill-rule="evenodd" clip-rule="evenodd" d="M14.695 3.41501C14.5293 3.41501 14.395 3.54932 14.395 3.71501V9.19501C14.395 9.36069 14.5293 9.49501 14.695 9.49501H20.175C20.3407 9.49501 20.475 9.36069 20.475 9.19501V3.71501C20.475 3.54932 20.3407 3.41501 20.175 3.41501H14.695ZM12.595 3.71501C12.595 2.55521 13.5352 1.61501 14.695 1.61501H20.175C21.3348 1.61501 22.275 2.55521 22.275 3.71501V9.19501C22.275 10.3548 21.3348 11.295 20.175 11.295H14.695C13.5352 11.295 12.595 10.3548 12.595 9.19501V3.71501Z" fill="#4A5868"/>
<path id="Vector (Stroke)_3" fill-rule="evenodd" clip-rule="evenodd" d="M17.435 14.505C15.7561 14.505 14.395 15.8661 14.395 17.545C14.395 19.2239 15.7561 20.585 17.435 20.585C19.1139 20.585 20.475 19.2239 20.475 17.545C20.475 15.8661 19.1139 14.505 17.435 14.505ZM12.595 17.545C12.595 14.8719 14.7619 12.705 17.435 12.705C20.1081 12.705 22.275 14.8719 22.275 17.545C22.275 20.2181 20.1081 22.385 17.435 22.385C14.7619 22.385 12.595 20.2181 12.595 17.545Z" fill="#9B65C3"/>
</g>
</g>
<defs>
<clipPath id="clip0_2770_105554">
<rect width="20.55" height="20.77" fill="white" transform="translate(1.72501 1.61501)"/>
</clipPath>
</defs>
</svg>
