<svg width="24" height="24" viewBox="0 0 24 24" fill="none" xmlns="http://www.w3.org/2000/svg">
<g id="Icons" clip-path="url(#clip0_2576_95446)">
<g id="Layer 8">
<path id="Vector" d="M12 22.4999C9.23313 22.4999 6.57959 21.4008 4.62311 19.4443C2.66664 17.4878 1.5675 14.8343 1.5675 12.0674C1.5675 9.30055 2.66664 6.647 4.62311 4.69053C6.57959 2.73405 9.23313 1.63492 12 1.63492C12.2387 1.63492 12.4676 1.72974 12.6364 1.89852C12.8052 2.0673 12.9 2.29622 12.9 2.53492C12.9 2.77361 12.8052 3.00253 12.6364 3.17131C12.4676 3.3401 12.2387 3.43492 12 3.43492C10.2988 3.43493 8.63586 3.93978 7.22178 4.88555C5.80769 5.83131 4.70607 7.17544 4.05643 8.74772C3.40679 10.32 3.23834 12.0497 3.57242 13.7178C3.90649 15.3859 4.72807 16.9173 5.93311 18.1181C7.13814 19.3189 8.67243 20.1352 10.3417 20.4634C12.0109 20.7917 13.74 20.6172 15.31 19.962C16.88 19.3069 18.2203 18.2006 19.1611 16.7832C20.1019 15.3658 20.6009 13.7011 20.595 11.9999C20.595 11.8817 20.6183 11.7647 20.6635 11.6555C20.7087 11.5463 20.775 11.4471 20.8586 11.3635C20.9422 11.2799 21.0414 11.2137 21.1506 11.1684C21.2598 11.1232 21.3768 11.0999 21.495 11.0999C21.6132 11.0999 21.7302 11.1232 21.8394 11.1684C21.9486 11.2137 22.0478 11.2799 22.1314 11.3635C22.215 11.4471 22.2813 11.5463 22.3265 11.6555C22.3717 11.7647 22.395 11.8817 22.395 11.9999C22.4069 13.3733 22.1469 14.7354 21.63 16.0078C21.1131 17.2803 20.3495 18.4378 19.3833 19.4138C18.417 20.3898 17.2672 21.165 16 21.6947C14.7329 22.2243 13.3734 22.498 12 22.4999Z" fill="#4A5868"/>
<path id="Vector_2" d="M13.38 3.52499H13.245C12.8327 3.46465 12.4166 3.43457 12 3.43499C11.7613 3.43499 11.5324 3.34017 11.3636 3.17139C11.1948 3.00261 11.1 2.77369 11.1 2.53499C11.1 2.2963 11.1948 2.06738 11.3636 1.8986C11.5324 1.72982 11.7613 1.63499 12 1.63499C12.5019 1.63157 13.0034 1.66667 13.5 1.73999C13.6173 1.75654 13.7301 1.79608 13.8321 1.85634C13.9341 1.91661 14.0232 1.99641 14.0942 2.09117C14.1653 2.18593 14.217 2.29379 14.2463 2.40856C14.2756 2.52333 14.2819 2.64276 14.265 2.75999C14.2358 2.97335 14.1298 3.16874 13.9669 3.30957C13.804 3.45039 13.5953 3.52698 13.38 3.52499Z" fill="#4A5868"/>
<path id="Vector_3" d="M19.5 7.12495C19.3622 7.12621 19.2261 7.09414 19.1033 7.03145C18.9806 6.96877 18.8748 6.87734 18.795 6.76495C18.3559 6.20757 17.8524 5.70407 17.295 5.26495C17.1064 5.11951 16.9831 4.90523 16.9521 4.66904C16.9212 4.43286 16.9852 4.19406 17.13 4.00495C17.2008 3.90987 17.2899 3.82996 17.3921 3.76998C17.4943 3.71 17.6076 3.67117 17.7251 3.65578C17.8426 3.64039 17.962 3.64876 18.0762 3.6804C18.1905 3.71203 18.2972 3.76629 18.39 3.83995C19.0947 4.37979 19.7252 5.01023 20.265 5.71495C20.3395 5.80687 20.3947 5.91279 20.4276 6.02644C20.4604 6.14009 20.4701 6.25916 20.4561 6.37663C20.4421 6.4941 20.4047 6.60757 20.3462 6.71033C20.2876 6.8131 20.209 6.90308 20.115 6.97495C19.9329 7.09304 19.7161 7.14592 19.5 7.12495Z" fill="#4A5868"/>
<path id="Vector_4" d="M21.495 12.93C21.2563 12.93 21.0274 12.8351 20.8586 12.6664C20.6898 12.4976 20.595 12.2687 20.595 12.03C20.5954 11.6133 20.5654 11.1972 20.505 10.785C20.4672 10.5483 20.525 10.3062 20.6657 10.1121C20.8063 9.91803 21.0183 9.78775 21.255 9.74996C21.4917 9.71216 21.7338 9.76995 21.9279 9.9106C22.122 10.0513 22.2522 10.2633 22.29 10.5C22.3623 10.9967 22.3974 11.498 22.395 12C22.399 12.1206 22.3787 12.2409 22.3353 12.3536C22.2919 12.4663 22.2262 12.5691 22.1423 12.6558C22.0583 12.7426 21.9577 12.8116 21.8465 12.8587C21.7353 12.9058 21.6158 12.93 21.495 12.93Z" fill="#4A5868"/>
<path id="Vector_5" d="M17.835 12.93H12C11.8792 12.93 11.7597 12.9058 11.6485 12.8587C11.5373 12.8116 11.4367 12.7426 11.3527 12.6558C11.2688 12.5691 11.2031 12.4663 11.1597 12.3536C11.1163 12.2409 11.096 12.1206 11.1 12V6.19495C11.1 5.95626 11.1948 5.72734 11.3636 5.55856C11.5324 5.38977 11.7613 5.29495 12 5.29495C12.2387 5.29495 12.4676 5.38977 12.6364 5.55856C12.8052 5.72734 12.9 5.95626 12.9 6.19495V11.13H17.835C18.0737 11.13 18.3026 11.2248 18.4714 11.3936C18.6402 11.5623 18.735 11.7913 18.735 12.03C18.735 12.2686 18.6402 12.4976 18.4714 12.6663C18.3026 12.8351 18.0737 12.93 17.835 12.93Z" fill="#D33C4E"/>
</g>
</g>
<defs>
<clipPath id="clip0_2576_95446">
<rect width="24" height="24" fill="white"/>
</clipPath>
</defs>
</svg>
