<svg width="24" height="24" viewBox="0 0 24 24" fill="none" xmlns="http://www.w3.org/2000/svg">
<g id="Icons" clip-path="url(#clip0_2576_95447)">
<g id="Layer 8">
<path id="Vector" d="M19.23 13.08C18.9913 13.08 18.7624 12.9852 18.5936 12.8164C18.4248 12.6477 18.33 12.4187 18.33 12.18C18.33 11.9413 18.4248 11.7124 18.5936 11.5436C18.7624 11.3749 18.9913 11.28 19.23 11.28H20.25C20.3052 11.2863 20.3611 11.2815 20.4145 11.266C20.4678 11.2505 20.5175 11.2245 20.5608 11.1896C20.604 11.1548 20.6399 11.1116 20.6664 11.0628C20.6929 11.0139 20.7094 10.9603 20.715 10.905V5.43004L18.435 3.24004L15 3.19504C14.895 3.19087 14.7925 3.22765 14.7142 3.29762C14.6358 3.36759 14.5877 3.46527 14.58 3.57004V5.88004C14.58 6.11874 14.4852 6.34766 14.3164 6.51644C14.1476 6.68522 13.9187 6.78004 13.68 6.78004C13.5618 6.78004 13.4448 6.75676 13.3356 6.71153C13.2264 6.6663 13.1272 6.60001 13.0436 6.51644C12.96 6.43287 12.8937 6.33365 12.8485 6.22446C12.8033 6.11526 12.78 5.99823 12.78 5.88004V3.57004C12.782 3.28117 12.841 2.99554 12.9538 2.7296C13.0667 2.46366 13.231 2.22266 13.4373 2.0205C13.6437 1.81833 13.888 1.65899 14.1562 1.55165C14.4244 1.4443 14.7111 1.39108 15 1.39504H18.285C18.7869 1.39881 19.2689 1.59163 19.635 1.93504L21.855 4.06504C22.0396 4.24128 22.1866 4.45308 22.2872 4.68768C22.3877 4.92228 22.4397 5.17481 22.44 5.43004V10.86C22.4322 11.437 22.1984 11.988 21.789 12.3946C21.3796 12.8012 20.827 13.0312 20.25 13.035H19.275L19.23 13.08Z" fill="#D33C4E"/>
<path id="Vector_2" d="M18.735 7.08006H16.29C16.0513 7.08006 15.8224 6.98524 15.6536 6.81646C15.4848 6.64767 15.39 6.41875 15.39 6.18006C15.39 5.94136 15.4848 5.71245 15.6536 5.54366C15.8224 5.37488 16.0513 5.28006 16.29 5.28006H18.735C18.9737 5.28006 19.2026 5.37488 19.3714 5.54366C19.5402 5.71245 19.635 5.94136 19.635 6.18006C19.635 6.41875 19.5402 6.64767 19.3714 6.81646C19.2026 6.98524 18.9737 7.08006 18.735 7.08006Z" fill="#D33C4E"/>
<path id="Vector_3" d="M16.095 21.0001H3.165C2.72432 20.9812 2.30725 20.7957 1.99816 20.481C1.68906 20.1663 1.511 19.746 1.5 19.3051V10.2151C1.49958 9.7663 1.67257 9.33472 1.98284 9.01048C2.2931 8.68624 2.71665 8.49441 3.165 8.47507H16.095C16.3228 8.47506 16.5483 8.52017 16.7586 8.6078C16.9689 8.69542 17.1597 8.82383 17.3201 8.9856C17.4805 9.14737 17.6072 9.33931 17.693 9.55033C17.7788 9.76135 17.822 9.98728 17.82 10.2151V19.3051C17.8121 19.7573 17.6269 20.1884 17.3043 20.5055C16.9816 20.8225 16.5473 21.0001 16.095 21.0001ZM16.095 10.1701H3.225V19.1701H9.93H16.095V10.1701Z" fill="#4A5868"/>
<path id="Vector_4" d="M16.935 14.4151H2.865C2.74681 14.4151 2.62977 14.3918 2.52058 14.3466C2.41139 14.3013 2.31217 14.2351 2.2286 14.1515C2.14503 14.0679 2.07873 13.9687 2.0335 13.8595C1.98828 13.7503 1.965 13.6333 1.965 13.5151C1.965 13.3969 1.98828 13.2799 2.0335 13.1707C2.07873 13.0615 2.14503 12.9623 2.2286 12.8787C2.31217 12.7951 2.41139 12.7288 2.52058 12.6836C2.62977 12.6384 2.74681 12.6151 2.865 12.6151H16.935C17.1737 12.6151 17.4026 12.7099 17.5714 12.8787C17.7402 13.0475 17.835 13.2764 17.835 13.5151C17.835 13.7538 17.7402 13.9827 17.5714 14.1515C17.4026 14.3203 17.1737 14.4151 16.935 14.4151Z" fill="#4A5868"/>
<path id="Vector_5" d="M13.185 15.6601C12.9463 15.6601 12.7174 15.5653 12.5486 15.3965C12.3798 15.2277 12.285 14.9988 12.285 14.7601V12.3901C12.285 12.2719 12.3083 12.1549 12.3535 12.0457C12.3987 11.9365 12.465 11.8373 12.5486 11.7537C12.6322 11.6701 12.7314 11.6038 12.8406 11.5586C12.9498 11.5134 13.0668 11.4901 13.185 11.4901C13.3032 11.4901 13.4202 11.5134 13.5294 11.5586C13.6386 11.6038 13.7378 11.6701 13.8214 11.7537C13.905 11.8373 13.9713 11.9365 14.0165 12.0457C14.0617 12.1549 14.085 12.2719 14.085 12.3901V14.7601C14.085 14.9988 13.9902 15.2277 13.8214 15.3965C13.6526 15.5653 13.4237 15.6601 13.185 15.6601Z" fill="#4A5868"/>
<path id="Vector_6" d="M6.76499 15.6601C6.5263 15.6601 6.29738 15.5653 6.12859 15.3965C5.95981 15.2277 5.86499 14.9988 5.86499 14.7601V12.3901C5.86499 12.1514 5.95981 11.9225 6.12859 11.7537C6.29738 11.5849 6.5263 11.4901 6.76499 11.4901C7.00369 11.4901 7.2326 11.5849 7.40139 11.7537C7.57017 11.9225 7.66499 12.1514 7.66499 12.3901V14.7601C7.66499 14.9988 7.57017 15.2277 7.40139 15.3965C7.2326 15.5653 7.00369 15.6601 6.76499 15.6601Z" fill="#4A5868"/>
<path id="Vector_7" d="M12.135 10.275H7.995C7.75631 10.275 7.52739 10.1802 7.35861 10.0114C7.18982 9.84265 7.095 9.61374 7.095 9.37504V8.07004C7.095 7.64835 7.26252 7.24392 7.5607 6.94574C7.85888 6.64756 8.26331 6.48004 8.685 6.48004H11.46C11.8659 6.50305 12.2476 6.68068 12.5266 6.9764C12.8055 7.27213 12.9607 7.66349 12.96 8.07004V9.37504C12.9608 9.60129 12.8763 9.81954 12.7234 9.98632C12.5706 10.1531 12.3605 10.2562 12.135 10.275ZM8.895 8.47504H11.25V8.28004H8.895V8.47504Z" fill="#4A5868"/>
</g>
</g>
<defs>
<clipPath id="clip0_2576_95447">
<rect width="24" height="24" fill="white"/>
</clipPath>
</defs>
</svg>
