<svg width="24" height="24" viewBox="0 0 24 24" fill="none" xmlns="http://www.w3.org/2000/svg">
<g id="Icons">
<g id="Layer 8">
<path id="Vector" d="M19.17 13.935H11.895C11.4136 13.935 10.952 13.7438 10.6116 13.4034C10.2712 13.063 10.08 12.6014 10.08 12.12V11.205C10.0718 10.2405 10.4431 9.31153 11.1138 8.6184C11.7845 7.92527 12.7008 7.52358 13.665 7.5C13.7869 7.49194 13.9092 7.51058 14.0232 7.55462C14.1371 7.59866 14.2402 7.66704 14.325 7.755C14.6502 8.05977 15.0793 8.22936 15.525 8.22936C15.9707 8.22936 16.3997 8.05977 16.725 7.755C16.8092 7.6662 16.9121 7.59726 17.0263 7.55315C17.1404 7.50905 17.263 7.49089 17.385 7.5C18.3544 7.5158 19.2784 7.91406 19.9555 8.60804C20.6326 9.30201 21.008 10.2355 21 11.205V12.12C21 12.3596 20.9526 12.5969 20.8604 12.8181C20.7683 13.0392 20.6332 13.24 20.4631 13.4087C20.293 13.5775 20.0911 13.7108 19.8692 13.8012C19.6472 13.8915 19.4096 13.937 19.17 13.935ZM13.41 9.345C12.9866 9.43991 12.6078 9.67545 12.3354 10.0132C12.063 10.351 11.9131 10.7711 11.91 11.205V13.62H19.2V11.205C19.1969 10.7711 19.047 10.351 18.7746 10.0132C18.5022 9.67545 18.1234 9.43991 17.7 9.345C17.0805 9.80758 16.3281 10.0575 15.555 10.0575C14.7819 10.0575 14.0295 9.80758 13.41 9.345Z" fill="#4A5868"/>
<path id="Vector_2" d="M15.525 10.065C14.8272 10.065 14.145 9.85789 13.565 9.46989C12.985 9.08189 12.5332 8.53047 12.2669 7.88549C12.0005 7.2405 11.9316 6.53098 12.0688 5.84679C12.2061 5.1626 12.5433 4.53453 13.0378 4.04216C13.5323 3.54978 14.1617 3.21524 14.8465 3.08093C15.5313 2.94661 16.2405 3.01857 16.8844 3.28767C17.5282 3.55677 18.0777 4.01091 18.4632 4.59256C18.8487 5.17421 19.0529 5.85721 19.05 6.55502C19.05 7.01722 18.9587 7.47488 18.7814 7.90171C18.604 8.32854 18.3441 8.71615 18.0166 9.04228C17.6891 9.36841 17.3004 9.62664 16.8728 9.80215C16.4452 9.97766 15.9872 10.067 15.525 10.065ZM15.525 4.83002C15.1838 4.83002 14.8503 4.93119 14.5666 5.12073C14.2829 5.31028 14.0618 5.57968 13.9313 5.89489C13.8007 6.21009 13.7666 6.55693 13.8331 6.89155C13.8997 7.22616 14.064 7.53353 14.3052 7.77478C14.5465 8.01602 14.8538 8.18031 15.1884 8.24687C15.5231 8.31343 15.8699 8.27927 16.1851 8.14871C16.5003 8.01815 16.7697 7.79705 16.9593 7.51337C17.1488 7.2297 17.25 6.89619 17.25 6.55502C17.25 6.09752 17.0682 5.65876 16.7447 5.33526C16.4212 5.01176 15.9825 4.83002 15.525 4.83002Z" fill="#4A5868"/>
<path id="Vector_3" d="M6.525 13.935H4.5C4.07694 13.931 3.67254 13.7602 3.37478 13.4596C3.07702 13.1591 2.90999 12.7531 2.91 12.33V11.61C2.91 10.8143 3.22607 10.0513 3.78868 9.48867C4.35129 8.92606 5.11435 8.60999 5.91 8.60999C6.03204 8.60088 6.15458 8.61904 6.26873 8.66315C6.38288 8.70725 6.48579 8.7762 6.57 8.86499C6.78629 9.0653 7.07021 9.17658 7.365 9.17658C7.65979 9.17658 7.94372 9.0653 8.16 8.86499C8.24061 8.76934 8.34028 8.69155 8.45264 8.63657C8.56499 8.58159 8.68758 8.55064 8.81257 8.54569C8.93756 8.54074 9.06221 8.56189 9.17856 8.60781C9.29492 8.65373 9.40042 8.72339 9.48835 8.81236C9.57627 8.90134 9.64469 9.00766 9.68922 9.12455C9.73376 9.24144 9.75344 9.36633 9.74701 9.49125C9.74058 9.61617 9.70818 9.73838 9.65187 9.85008C9.59557 9.96178 9.5166 10.0605 9.42 10.14C8.9257 10.6088 8.28658 10.8953 7.60775 10.9526C6.92893 11.0098 6.25083 10.8344 5.685 10.455C5.41936 10.5245 5.18413 10.6798 5.01593 10.8968C4.84773 11.1139 4.75599 11.3804 4.755 11.655V13.635H6.525C7.02 13.635 7.425 12.525 7.425 13.035C7.425 13.2737 7.33018 13.5026 7.1614 13.6714C6.99262 13.8402 6.7637 13.935 6.525 13.935Z" fill="#4A5868"/>
<path id="Vector_4" d="M7.31999 10.95C6.72349 10.9498 6.14059 10.7718 5.64574 10.4387C5.1509 10.1056 4.76659 9.6326 4.5419 9.08004C4.31721 8.52747 4.26234 7.92047 4.3843 7.33658C4.50627 6.75268 4.79953 6.2184 5.22662 5.80198C5.65372 5.38557 6.19525 5.10592 6.78205 4.99878C7.36884 4.89163 7.97426 4.96185 8.52096 5.20045C9.06766 5.43906 9.53081 5.83522 9.85126 6.33834C10.1717 6.84145 10.3349 7.42867 10.32 8.02498C10.3004 8.80756 9.97573 9.55149 9.41522 10.098C8.85472 10.6445 8.10281 10.9502 7.31999 10.95ZM7.31999 6.89998C7.09748 6.89998 6.87997 6.96596 6.69497 7.08958C6.50996 7.2132 6.36577 7.3889 6.28062 7.59446C6.19547 7.80003 6.17319 8.02623 6.2166 8.24446C6.26001 8.46269 6.36716 8.66314 6.52449 8.82048C6.68183 8.97781 6.88228 9.08496 7.10051 9.12837C7.31874 9.17177 7.54494 9.1495 7.75051 9.06435C7.95607 8.9792 8.13177 8.83501 8.25539 8.65C8.37901 8.46499 8.44499 8.24749 8.44499 8.02498C8.44499 7.72661 8.32646 7.44047 8.11548 7.22949C7.9045 7.01851 7.61836 6.89998 7.31999 6.89998Z" fill="#4A5868"/>
<path id="Vector_5" d="M19.38 22.5H4.49998C3.66317 22.4961 2.86199 22.1609 2.27167 21.5677C1.68136 20.9746 1.34997 20.1719 1.34998 19.335V13.335C1.34998 13.0367 1.4685 12.7505 1.67948 12.5395C1.89046 12.3286 2.17661 12.21 2.47498 12.21H21.405C21.5533 12.208 21.7005 12.2357 21.8379 12.2916C21.9753 12.3474 22.1001 12.4302 22.205 12.535C22.3098 12.6399 22.3926 12.7647 22.4485 12.9021C22.5043 13.0395 22.532 13.1867 22.53 13.335V19.335C22.53 20.1719 22.1986 20.9746 21.6083 21.5677C21.018 22.1609 20.2168 22.4961 19.38 22.5ZM3.14998 13.95V19.335C3.14995 19.6945 3.2917 20.0394 3.54446 20.295C3.79721 20.5505 4.14056 20.6961 4.49998 20.7H19.365C19.5435 20.7 19.7203 20.6646 19.8851 20.5959C20.0499 20.5271 20.1994 20.4263 20.3249 20.2993C20.4505 20.1724 20.5496 20.0218 20.6166 19.8563C20.6835 19.6907 20.717 19.5136 20.715 19.335V13.95H3.14998Z" fill="#45A4EC"/>
</g>
</g>
</svg>
