<svg width="24" height="24" viewBox="0 0 24 24" fill="none" xmlns="http://www.w3.org/2000/svg">
<g id="Icons" clip-path="url(#clip0_2576_95449)">
<g id="Layer 8">
<path id="Vector" d="M12 16.2899C11.1729 16.287 10.3653 16.039 9.67906 15.5773C8.99281 15.1157 8.45875 14.4611 8.14429 13.6961C7.82984 12.9311 7.7491 12.0901 7.91227 11.2793C8.07544 10.4685 8.4752 9.72421 9.06108 9.14042C9.64695 8.55664 10.3927 8.15954 11.2041 7.99928C12.0155 7.83901 12.8562 7.92276 13.62 8.23995C14.3838 8.55714 15.0366 9.09354 15.4957 9.78143C15.9549 10.4693 16.2 11.2779 16.2 12.1049C16.2 12.6558 16.0913 13.2012 15.88 13.7099C15.6688 14.2187 15.3592 14.6807 14.969 15.0695C14.5788 15.4583 14.1156 15.7662 13.6062 15.9757C13.0967 16.1851 12.5509 16.2919 12 16.2899ZM12 9.71993C11.529 9.72289 11.0693 9.86528 10.6791 10.1291C10.2889 10.393 9.98551 10.7665 9.80729 11.2026C9.62907 11.6386 9.58398 12.1177 9.67769 12.5793C9.7714 13.041 9.99973 13.4646 10.3339 13.7966C10.668 14.1287 11.093 14.3543 11.5552 14.4451C12.0174 14.536 12.4962 14.4879 12.9312 14.3069C13.3661 14.126 13.7377 13.8203 13.9991 13.4284C14.2605 13.0365 14.4 12.576 14.4 12.1049C14.4 11.7905 14.3378 11.4791 14.217 11.1887C14.0963 10.8984 13.9192 10.6348 13.6962 10.4132C13.4731 10.1915 13.2084 10.0161 12.9173 9.89715C12.6262 9.77818 12.3145 9.71795 12 9.71993Z" fill="#D33C4E"/>
<path id="Vector_2" d="M12.885 22.4999C12.7785 22.5018 12.6728 22.4814 12.5746 22.4401C12.4765 22.3988 12.388 22.3374 12.315 22.2599L10.575 20.5949C10.4238 20.4407 10.3391 20.2334 10.3391 20.0174C10.3391 19.8015 10.4238 19.5942 10.575 19.4399L12.315 17.7149C12.4704 17.5874 12.6677 17.5222 12.8686 17.532C13.0694 17.5419 13.2594 17.6261 13.4016 17.7683C13.5438 17.9105 13.628 18.1005 13.6379 18.3013C13.6477 18.5022 13.5825 18.6995 13.455 18.8549L12.3 20.0099L13.455 21.1799C13.6052 21.3316 13.6895 21.5365 13.6895 21.7499C13.6895 21.9634 13.6052 22.1683 13.455 22.3199C13.3769 22.3867 13.2862 22.437 13.1883 22.4679C13.0904 22.4988 12.9872 22.5097 12.885 22.4999Z" fill="#4A5868"/>
<path id="Vector_3" d="M11.58 6.65996C11.4189 6.65482 11.2629 6.6026 11.1311 6.50976C10.9993 6.41692 10.8977 6.28752 10.8386 6.13754C10.7796 5.98757 10.7658 5.82358 10.7989 5.66584C10.832 5.5081 10.9106 5.36352 11.025 5.24996L12.225 4.13996L11.115 2.99996C10.9678 2.84282 10.8891 2.63364 10.8961 2.41844C10.9031 2.20324 10.9954 1.99965 11.1525 1.85246C11.3097 1.70526 11.5188 1.62652 11.734 1.63355C11.9492 1.64058 12.1528 1.73282 12.3 1.88996L13.965 3.68996C14.1152 3.84163 14.1995 4.04648 14.1995 4.25996C14.1995 4.47343 14.1152 4.67828 13.965 4.82996L12.135 6.43496C11.9864 6.57943 11.7873 6.66017 11.58 6.65996Z" fill="#4A5868"/>
<path id="Vector_4" d="M7.33498 19.335C7.16758 19.3383 7.00389 19.2855 6.86998 19.185C5.349 18.0966 4.21264 16.5537 3.62449 14.7783C3.03635 13.0029 3.02678 11.0867 3.59715 9.30556C4.16752 7.5244 5.28842 5.97018 6.79844 4.86669C8.30847 3.7632 10.1297 3.16737 12 3.16498C12.2148 3.16498 12.4208 3.25032 12.5727 3.40222C12.7246 3.55413 12.81 3.76015 12.81 3.97498C12.81 4.1898 12.7246 4.39583 12.5727 4.54773C12.4208 4.69964 12.2148 4.78498 12 4.78498C10.4724 4.78543 8.98443 5.2707 7.7503 6.17089C6.51617 7.07108 5.59959 8.33975 5.13258 9.79416C4.66556 11.2486 4.67221 12.8137 5.15157 14.2641C5.63092 15.7145 6.55824 16.9753 7.79998 17.865C7.97545 17.9915 8.09421 18.1819 8.13069 18.3951C8.16716 18.6083 8.11842 18.8273 7.99498 19.005C7.91983 19.1092 7.82053 19.1937 7.70558 19.2512C7.59064 19.3087 7.46347 19.3374 7.33498 19.335Z" fill="#4A5868"/>
<path id="Vector_5" d="M12 20.8349C11.7852 20.8349 11.5792 20.7496 11.4272 20.5977C11.2753 20.4458 11.19 20.2397 11.19 20.0249C11.19 19.8101 11.2753 19.6041 11.4272 19.4522C11.5792 19.3003 11.7852 19.2149 12 19.2149C13.4579 19.2138 14.8812 18.7712 16.0825 17.9452C17.2838 17.1192 18.2067 15.9487 18.7296 14.5878C19.2525 13.2269 19.3509 11.7396 19.0118 10.3217C18.6727 8.90383 17.912 7.62193 16.83 6.64491C16.6798 6.49324 16.5955 6.28839 16.5955 6.07491C16.5955 5.86143 16.6798 5.65659 16.83 5.50491C16.9041 5.42871 16.9927 5.36813 17.0906 5.32677C17.1885 5.28541 17.2937 5.2641 17.4 5.2641C17.5063 5.2641 17.6115 5.28541 17.7094 5.32677C17.8073 5.36813 17.8959 5.42871 17.97 5.50491C19.2758 6.70903 20.1883 8.27878 20.5885 10.0093C20.9887 11.7399 20.858 13.5509 20.2134 15.206C19.5689 16.8612 18.4404 18.2836 16.9752 19.2877C15.51 20.2918 13.7762 20.831 12 20.8349Z" fill="#4A5868"/>
</g>
</g>
<defs>
<clipPath id="clip0_2576_95449">
<rect width="24" height="24" fill="white"/>
</clipPath>
</defs>
</svg>
