<?xml version="1.0" encoding="UTF-8"?>
<svg width="512px" height="512px" viewBox="0 0 512 512" version="1.1" xmlns="http://www.w3.org/2000/svg" xmlns:xlink="http://www.w3.org/1999/xlink">
    <!-- Generator: Sketch 59.1 (86144) - https://sketch.com -->
    <title>changes</title>
    <desc>Created with Sketch.</desc>
    <g id="Page-3" stroke="none" stroke-width="1" fill="none" fill-rule="evenodd">
        <path d="M81.3954748,166.364721 C85.790477,162.9724 91.4840026,161.906242 96.7779826,163.553941 L96.7779826,163.553941 L247.406696,210.464894 C250.603061,211.531052 257.395337,211.531052 260.691589,210.561818 L260.691589,210.561818 L410.621097,166.558568 C415.915077,165.007793 421.608602,166.073951 425.903718,169.660119 C430.098947,173.149363 432.196562,178.38323 431.497357,183.71402 C419.510988,279.474396 382.852673,405.668737 277.272733,464.210505 L277.272733,464.210505 L277.472506,464.404352 L271.778981,467.118208 C266.285228,469.735142 260.09227,471.09207 253.899312,470.995147 L253.899312,470.995147 L253.299994,470.995147 C248.205787,470.995147 243.11158,470.122836 238.416918,468.28129 L238.416918,468.28129 L237.917486,468.765907 L234.920894,466.827438 L229.926573,464.501275 L230.126346,464.307428 C123.547542,405.087196 87.1888868,277.439003 75.5021763,180.418623 C74.9028579,175.087832 77.100359,169.853966 81.3954748,166.364721 Z M111.561172,201.451013 C124.846065,284.223645 159.506651,389.77329 248.605333,437.847324 L248.605333,437.847324 L250.003742,438.525789 L250.403288,438.719635 C251.801698,439.3981 255.797154,439.301176 256.895905,438.816559 L256.895905,438.816559 L257.295451,438.622712 C257.395337,438.622712 257.59511,438.525789 257.794883,438.428865 L257.794883,438.428865 L259.992384,437.265784 C299.94695,415.361082 332.410034,379.887097 356.382774,331.813062 C374.362328,295.85446 387.447449,252.917368 395.538248,204.261793 L395.538248,204.261793 L270.180798,240.995783 C260.591702,243.806563 247.107036,243.70964 237.418054,240.705013 L237.418054,240.705013 Z M406.128898,42.0258073 C413.820152,39.7965678 422.21061,41.2504197 428.703227,45.9027456 L428.703227,45.9027456 L429.055495,46.1743595 C435.227838,51.01476 438.688169,58.0648446 438.492096,65.6751308 L438.492096,65.6751308 L438.492096,123.441511 C438.492096,130.516924 433.497775,136.816948 426.505726,138.755417 L426.505726,138.755417 L271.382125,180.723274 C266.287917,181.983279 260.894051,182.56482 255.699958,182.56482 C250.505864,182.56482 245.211884,181.983279 240.01779,180.723274 L240.01779,180.723274 L239.917904,180.723274 L84.9940753,138.755417 C77.9021399,136.913872 73.0077056,130.613847 73.0077056,123.441511 L73.0077056,123.441511 L73.0077056,65.6751308 C72.8079328,58.0181777 76.5037301,50.651995 82.7965742,45.9027456 L82.7965742,45.9027456 L82.8964606,45.8058222 C89.3890776,41.2504197 97.7795364,39.8934913 105.370904,42.1227308 L105.370904,42.1227308 L248.608022,80.989037 C253.40257,81.9582716 258.197118,81.9582716 262.891779,80.989037 L262.891779,80.989037 Z M405.729352,75.2705531 L271.581897,111.616849 C262.492234,114.136859 249.107454,114.136859 239.917904,111.616849 L239.917904,111.616849 L105.77045,75.2705531 L105.77045,111.326079 L248.608022,150.095462 C253.40257,151.064696 258.197118,151.064696 262.891779,150.095462 L262.891779,150.095462 L405.729352,111.326079 L405.729352,75.2705531 Z" id="Combined-Shape" fill="#000000" fill-rule="nonzero"></path>
    </g>
</svg>