<svg width="24" height="24" viewBox="0 0 24 24" fill="none" xmlns="http://www.w3.org/2000/svg">
<g id="Icons" clip-path="url(#clip0_2576_95427)">
<g id="Layer 8">
<path id="Vector" d="M11.385 6.10499H21.585C21.8237 6.10499 22.0527 6.01017 22.2214 5.84139C22.3902 5.67261 22.485 5.44369 22.485 5.20499C22.485 4.9663 22.3902 4.73738 22.2214 4.5686C22.0527 4.39981 21.8237 4.30499 21.585 4.30499H11.385C11.1464 4.30499 10.9174 4.39981 10.7487 4.5686C10.5799 4.73738 10.485 4.9663 10.485 5.20499C10.485 5.44369 10.5799 5.67261 10.7487 5.84139C10.9174 6.01017 11.1464 6.10499 11.385 6.10499Z" fill="#D33C4E"/>
<path id="Vector_2" d="M19.08 17.535H11.385C11.1464 17.535 10.9174 17.6298 10.7486 17.7986C10.5799 17.9674 10.485 18.1963 10.485 18.435C10.485 18.6737 10.5799 18.9026 10.7486 19.0714C10.9174 19.2402 11.1464 19.335 11.385 19.335H21.585C21.7032 19.335 21.8203 19.3117 21.9295 19.2665C22.0387 19.2213 22.1379 19.155 22.2214 19.0714C22.305 18.9878 22.3713 18.8886 22.4165 18.7794C22.4618 18.6702 22.485 18.5532 22.485 18.435C22.485 18.3168 22.4618 18.1998 22.4165 18.0906C22.3713 17.9814 22.305 17.8822 22.2214 17.7986C22.1379 17.715 22.0387 17.6487 21.9295 17.6035C21.8203 17.5583 21.7032 17.535 21.585 17.535H19.08Z" fill="#4A5868"/>
<path id="Vector_3" d="M21.585 10.92H11.385C11.1464 10.92 10.9174 11.0148 10.7487 11.1836C10.5799 11.3523 10.485 11.5813 10.485 11.82C10.485 12.0586 10.5799 12.2876 10.7487 12.4563C10.9174 12.6251 11.1464 12.72 11.385 12.72H21.585C21.8237 12.72 22.0527 12.6251 22.2214 12.4563C22.3902 12.2876 22.485 12.0586 22.485 11.82C22.485 11.5813 22.3902 11.3523 22.2214 11.1836C22.0527 11.0148 21.8237 10.92 21.585 10.92Z" fill="#4A5868"/>
<path id="Vector_4" d="M6.00002 3.08996L3.58502 5.45996L3.00002 4.85996C2.83433 4.69599 2.61063 4.60402 2.37752 4.60402C2.14441 4.60402 1.92072 4.69599 1.75502 4.85996C1.59106 5.02566 1.49908 5.24935 1.49908 5.48246C1.49908 5.71557 1.59106 5.93927 1.75502 6.10496L2.97002 7.30496C3.14113 7.46515 3.36567 7.55603 3.60002 7.55996C3.82947 7.55376 4.04851 7.46294 4.21502 7.30496L7.21502 4.30496C7.31722 4.13564 7.35975 3.93698 7.33584 3.74066C7.31194 3.54435 7.22297 3.3617 7.08313 3.22186C6.94328 3.08202 6.76063 2.99304 6.56432 2.96914C6.368 2.94523 6.16934 2.98777 6.00002 3.08996Z" fill="#D33C4E"/>
<path id="Vector_5" d="M6.00002 9.70497L3.58502 12.075L3.00002 11.49C2.83433 11.326 2.61063 11.234 2.37752 11.234C2.14441 11.234 1.92072 11.326 1.75502 11.49C1.59106 11.6557 1.49908 11.8794 1.49908 12.1125C1.49908 12.3456 1.59106 12.5693 1.75502 12.735L2.97002 13.935C3.05255 14.0176 3.15086 14.0827 3.25909 14.1265C3.36733 14.1703 3.48327 14.1919 3.60002 14.19C3.83072 14.1899 4.05194 14.0982 4.21502 13.935L7.21502 10.935C7.29759 10.8552 7.36325 10.7597 7.40809 10.654C7.45294 10.5484 7.47605 10.4348 7.47605 10.32C7.47605 10.2052 7.45294 10.0916 7.40809 9.98592C7.36325 9.88026 7.29759 9.78471 7.21502 9.70497C7.05076 9.54991 6.83342 9.46353 6.60752 9.46353C6.38163 9.46353 6.16429 9.54991 6.00002 9.70497Z" fill="#4A5868"/>
<path id="Vector_6" d="M6.00002 16.35L3.58502 18.705L3.00002 18.12C2.83433 17.956 2.61063 17.8641 2.37752 17.8641C2.14441 17.8641 1.92072 17.956 1.75502 18.12C1.59106 18.2857 1.49908 18.5094 1.49908 18.7425C1.49908 18.9756 1.59106 19.1993 1.75502 19.365L2.97002 20.565C3.05255 20.6476 3.15086 20.7128 3.25909 20.7566C3.36733 20.8004 3.48327 20.8219 3.60002 20.82C3.83072 20.8199 4.05194 20.7282 4.21502 20.565L7.21502 17.565C7.31722 17.3957 7.35975 17.197 7.33584 17.0007C7.31194 16.8044 7.22297 16.6217 7.08313 16.4819C6.94328 16.3421 6.76063 16.2531 6.56432 16.2292C6.368 16.2053 6.16934 16.2478 6.00002 16.35Z" fill="#4A5868"/>
</g>
</g>
<defs>
<clipPath id="clip0_2576_95427">
<rect width="24" height="24" fill="white"/>
</clipPath>
</defs>
</svg>
