<svg width="16" height="16" viewBox="0 0 16 16" fill="none" xmlns="http://www.w3.org/2000/svg">
<path fill-rule="evenodd" clip-rule="evenodd" d="M5.76423 1.03947C5.83653 1.01259 5.91068 0.996829 5.99503 1.00054H12.3908C12.6726 1.00054 12.9006 1.22949 12.9006 1.51034V6.19964L13.0072 6.22467C13.6746 6.38595 14.2623 6.81512 14.6191 7.40186C15.3616 8.62447 14.9704 10.2243 13.746 10.9677L13.6635 11.0178L14.3401 14.3834C14.3753 14.5772 14.3021 14.7746 14.1547 14.8942C13.9962 15.0091 13.7886 15.0304 13.6125 14.9479L12.3908 14.3325L11.1617 14.947C10.9856 15.0323 10.778 15.0137 10.6241 14.8979C10.4702 14.7746 10.397 14.5772 10.4331 14.3853L11.1107 11.0178L11.0273 10.9677C10.4387 10.6109 10.0095 10.0232 9.84918 9.35488C9.68696 8.68101 9.7982 7.98489 10.1588 7.39352C10.5212 6.80214 11.0913 6.38688 11.7661 6.22467L11.8726 6.19964V2.02108H6.50484V4.99557C6.50484 5.27643 6.27589 5.5063 5.99503 5.5063H3.02054V13.9042H9.10949C9.39035 13.9042 9.61837 14.1332 9.61837 14.4131C9.61837 14.6949 9.39035 14.9229 9.10949 14.9229H2.50981C2.22895 14.9229 2 14.6949 2 14.4131V4.99742C2.00093 4.93069 2.01576 4.86395 2.04635 4.79536C2.07045 4.73418 2.1066 4.67856 2.15387 4.63036L5.64188 1.14328C5.68544 1.09786 5.73364 1.05986 5.76423 1.03947ZM12.718 11.3181H12.1099L11.6622 13.5585L12.185 13.3045C12.3287 13.2313 12.503 13.2331 12.6438 13.3045L13.1657 13.5585L12.718 11.3181ZM7.28689 11.779C7.56774 11.779 7.79669 12.0079 7.79669 12.2897C7.79669 12.5706 7.56774 12.7986 7.28689 12.7986H4.96958C4.68872 12.7986 4.45977 12.5706 4.45977 12.2897C4.45977 12.0079 4.68872 11.779 4.96958 11.779H7.28689ZM8.21381 9.46167C8.49466 9.46167 8.72361 9.69062 8.72361 9.9724C8.72361 10.2533 8.49466 10.4813 8.21381 10.4813H4.96958C4.68872 10.4813 4.45977 10.2533 4.45977 9.9724C4.45977 9.69062 4.68872 9.46167 4.96958 9.46167H8.21381ZM12.4205 7.1655H12.3889C11.5269 7.17569 10.8243 7.88664 10.8243 8.75053C10.8243 9.61906 11.5315 10.3291 12.3991 10.3356H12.4084C13.2779 10.3356 13.9888 9.63018 13.9953 8.7598C13.9999 7.88571 13.2936 7.17013 12.4205 7.1655ZM7.28689 7.14483C7.56774 7.14483 7.79669 7.37377 7.79669 7.65463C7.79669 7.93549 7.56774 8.16444 7.28689 8.16444H4.96958C4.68872 8.16444 4.45977 7.93549 4.45977 7.65463C4.45977 7.37377 4.68872 7.14483 4.96958 7.14483H7.28689ZM5.48523 2.7413L3.74076 4.48576H5.48523V2.7413Z" fill="#3B4854"/>
</svg>
