<svg width="24" height="24" viewBox="0 0 24 24" fill="none" xmlns="http://www.w3.org/2000/svg">
<g id="Icons">
<g id="Group 37">
<g id="Group">
<path id="Vector" d="M17.685 14.13H14.595C14.1 14.13 13.695 13.725 13.695 13.23C13.695 12.735 14.1 12.33 14.595 12.33H17.685C17.79 12.33 17.88 12.33 17.985 12.315C19.5 12.18 20.7 10.86 20.7 9.31501C20.7 7.65001 19.35 6.30001 17.685 6.30001C17.205 6.30001 16.755 6.40501 16.335 6.61501C16.11 6.73501 15.855 6.75001 15.615 6.66001C15.375 6.57001 15.195 6.40501 15.09 6.16501C14.385 4.56001 12.81 3.51001 11.055 3.51001C8.70001 3.51001 6.73501 5.41501 6.66001 7.77001C6.66001 8.04001 6.52501 8.28001 6.31501 8.44501C6.10501 8.61001 5.83501 8.67001 5.56501 8.61001C5.41501 8.58001 5.28001 8.56501 5.14501 8.56501C4.11001 8.56501 3.28501 9.40501 3.28501 10.44C3.28501 11.475 4.12501 12.3 5.14501 12.3H9.12001C9.61501 12.3 10.02 12.705 10.02 13.2C10.02 13.695 9.61501 14.1 9.12001 14.1H5.17501C3.15001 14.1 1.51501 12.45 1.51501 10.44C1.51501 8.43001 3.06001 6.87001 4.99501 6.76501C5.52001 3.85501 8.04001 1.69501 11.085 1.69501C13.26 1.69501 15.255 2.83501 16.365 4.65001C16.785 4.53001 17.235 4.47001 17.7 4.47001C20.355 4.47001 22.515 6.63001 22.515 9.28501C22.515 11.79 20.64 13.845 18.15 14.07C17.985 14.07 17.85 14.085 17.7 14.085L17.685 14.13Z" fill="#4A5866"/>
<g id="Group_2">
<path id="Vector_2" d="M9.86998 16.7401H7.49998C7.00498 16.7401 6.59998 16.3351 6.59998 15.8401C6.59998 15.3451 7.00498 14.9401 7.49998 14.9401H9.86998C10.365 14.9401 10.77 15.3451 10.77 15.8401C10.77 16.3351 10.365 16.7401 9.86998 16.7401Z" fill="#9269BC"/>
<path id="Vector_3" d="M16.5 16.7401H14.22C13.725 16.7401 13.32 16.3351 13.32 15.8401C13.32 15.3451 13.725 14.9401 14.22 14.9401H16.5C16.995 14.9401 17.4 15.3451 17.4 15.8401C17.4 16.3351 16.995 16.7401 16.5 16.7401Z" fill="#9269BC"/>
<path id="Vector_4" d="M12.015 18.7801C11.52 18.7801 11.115 18.3751 11.115 17.8801V12.4651C11.115 11.9701 11.52 11.5651 12.015 11.5651C12.51 11.5651 12.915 11.9701 12.915 12.4651V17.8801C12.915 18.3751 12.51 18.7801 12.015 18.7801Z" fill="#9269BC"/>
<path id="Vector_5" d="M7.49998 18.78C7.00498 18.78 6.59998 18.375 6.59998 17.88V15.825C6.59998 15.33 7.00498 14.925 7.49998 14.925C7.99498 14.925 8.39998 15.33 8.39998 15.825V17.88C8.39998 18.375 7.99498 18.78 7.49998 18.78Z" fill="#9269BC"/>
<path id="Vector_6" d="M16.5 18.78C16.005 18.78 15.6 18.375 15.6 17.88V15.825C15.6 15.33 16.005 14.925 16.5 14.925C16.995 14.925 17.4 15.33 17.4 15.825V17.88C17.4 18.375 16.995 18.78 16.5 18.78Z" fill="#9269BC"/>
<path id="Vector_7" d="M12.015 11.025C10.455 11.025 9.19501 9.76504 9.19501 8.20504C9.19501 6.64504 10.455 5.38504 12.015 5.38504C13.575 5.38504 14.835 6.64504 14.835 8.20504C14.835 9.76504 13.575 11.025 12.015 11.025ZM12.015 7.18504C11.46 7.18504 10.995 7.63504 10.995 8.20504C10.995 8.77504 11.445 9.22504 12.015 9.22504C12.585 9.22504 13.035 8.77504 13.035 8.20504C13.035 7.63504 12.585 7.18504 12.015 7.18504Z" fill="#9269BC"/>
<path id="Vector_8" d="M16.5 22.2751C15.18 22.2751 14.115 21.2101 14.115 19.8901C14.115 18.5701 15.18 17.5051 16.5 17.5051C17.82 17.5051 18.885 18.5701 18.885 19.8901C18.885 21.2101 17.82 22.2751 16.5 22.2751ZM16.5 19.3051C16.185 19.3051 15.915 19.5601 15.915 19.8901C15.915 20.2201 16.17 20.4751 16.5 20.4751C16.83 20.4751 17.085 20.2201 17.085 19.8901C17.085 19.5601 16.83 19.3051 16.5 19.3051Z" fill="#9269BC"/>
<path id="Vector_9" d="M7.49999 22.2751C6.17999 22.2751 5.11499 21.2101 5.11499 19.8901C5.11499 18.5701 6.17999 17.5051 7.49999 17.5051C8.81999 17.5051 9.88499 18.5701 9.88499 19.8901C9.88499 21.2101 8.81999 22.2751 7.49999 22.2751ZM7.49999 19.3051C7.18499 19.3051 6.91499 19.5601 6.91499 19.8901C6.91499 20.2201 7.16999 20.4751 7.49999 20.4751C7.82999 20.4751 8.08499 20.2201 8.08499 19.8901C8.08499 19.5601 7.82999 19.3051 7.49999 19.3051Z" fill="#9269BC"/>
</g>
</g>
</g>
</g>
</svg>
