<svg width="24" height="24" viewBox="0 0 24 24" fill="none" xmlns="http://www.w3.org/2000/svg">
<g id="Icons" clip-path="url(#clip0_2576_95412)">
<g id="Layer 8">
<path id="Vector" d="M20.115 22.5H3.88499C3.64629 22.5 3.41737 22.4052 3.24859 22.2364C3.07981 22.0676 2.98499 21.8387 2.98499 21.6C2.98499 21.3613 3.07981 21.1324 3.24859 20.9636C3.41737 20.7948 3.64629 20.7 3.88499 20.7H20.115C20.2332 20.7 20.3502 20.7233 20.4594 20.7685C20.5686 20.8138 20.6678 20.8801 20.7514 20.9636C20.835 21.0472 20.9012 21.1464 20.9465 21.2556C20.9917 21.3648 21.015 21.4818 21.015 21.6C21.015 21.7182 20.9917 21.8352 20.9465 21.9444C20.9012 22.0536 20.835 22.1529 20.7514 22.2364C20.6678 22.32 20.5686 22.3863 20.4594 22.4315C20.3502 22.4767 20.2332 22.5 20.115 22.5Z" fill="#4A5868"/>
<path id="Vector_2" d="M20.115 18H3.88499C3.7668 18 3.64976 17.9767 3.54057 17.9315C3.43138 17.8863 3.33216 17.82 3.24859 17.7364C3.16502 17.6529 3.09872 17.5536 3.05349 17.4444C3.00826 17.3352 2.98499 17.2182 2.98499 17.1C2.98499 16.9818 3.00826 16.8648 3.05349 16.7556C3.09872 16.6464 3.16502 16.5472 3.24859 16.4636C3.33216 16.3801 3.43138 16.3138 3.54057 16.2685C3.64976 16.2233 3.7668 16.2 3.88499 16.2H20.115C20.2332 16.2 20.3502 16.2233 20.4594 16.2685C20.5686 16.3138 20.6678 16.3801 20.7514 16.4636C20.835 16.5472 20.9012 16.6464 20.9465 16.7556C20.9917 16.8648 21.015 16.9818 21.015 17.1C21.015 17.2182 20.9917 17.3352 20.9465 17.4444C20.9012 17.5536 20.835 17.6529 20.7514 17.7364C20.6678 17.82 20.5686 17.8863 20.4594 17.9315C20.3502 17.9767 20.2332 18 20.115 18Z" fill="#4A5868"/>
<path id="Vector_3" d="M20.115 13.5H15.855C15.6163 13.5 15.3874 13.4052 15.2186 13.2364C15.0498 13.0676 14.955 12.8387 14.955 12.6C14.955 12.3613 15.0498 12.1324 15.2186 11.9636C15.3874 11.7948 15.6163 11.7 15.855 11.7H20.115C20.3537 11.7 20.5826 11.7948 20.7514 11.9636C20.9202 12.1324 21.015 12.3613 21.015 12.6C21.015 12.8387 20.9202 13.0676 20.7514 13.2364C20.5826 13.4052 20.3537 13.5 20.115 13.5Z" fill="#4A5868"/>
<path id="Vector_4" d="M9.35996 13.5H4.85996C4.42235 13.5 4.00267 13.3262 3.69323 13.0167C3.3838 12.7073 3.20996 12.2876 3.20996 11.85V7.59001C3.22946 7.15366 3.41965 6.74245 3.73953 6.44502C4.0594 6.14759 4.48334 5.98777 4.91996 6.00001H9.41996C9.8384 6.01469 10.2359 6.18647 10.5334 6.48114C10.8308 6.77581 11.0064 7.17173 11.025 7.59001V11.85C11.021 12.289 10.8438 12.7087 10.532 13.0177C10.2202 13.3267 9.79896 13.5 9.35996 13.5ZM5.06996 11.7H9.22496V7.72501H5.06996V11.7Z" fill="#45A4EC"/>
<path id="Vector_5" d="M12.345 13.5C12.1216 13.4968 11.9075 13.4106 11.7441 13.2582C11.5808 13.1058 11.48 12.8981 11.4613 12.6755C11.4426 12.4529 11.5073 12.2313 11.6429 12.0538C11.7785 11.8762 11.9753 11.7555 12.195 11.715V4.77002H8.03999V5.56502C8.03999 5.80372 7.94517 6.03263 7.77639 6.20142C7.6076 6.3702 7.37869 6.46502 7.13999 6.46502C6.9013 6.46502 6.67238 6.3702 6.50359 6.20142C6.33481 6.03263 6.23999 5.80372 6.23999 5.56502V4.50002C6.27073 4.08361 6.46105 3.69515 6.77127 3.41567C7.08149 3.13619 7.48764 2.98729 7.90499 3.00002H12.405C12.8208 2.98748 13.2252 3.13686 13.533 3.41669C13.8408 3.69651 14.028 4.08491 14.055 4.50002V12C14.0416 12.2109 13.9868 12.4172 13.8935 12.6068C13.8003 12.7965 13.6705 12.9659 13.5116 13.1052C13.3527 13.2446 13.1679 13.3512 12.9677 13.419C12.7675 13.4867 12.5559 13.5143 12.345 13.5Z" fill="#45A4EC"/>
</g>
</g>
<defs>
<clipPath id="clip0_2576_95412">
<rect width="24" height="24" fill="white"/>
</clipPath>
</defs>
</svg>
