<svg width="24" height="24" viewBox="0 0 24 24" fill="none" xmlns="http://www.w3.org/2000/svg">
<g id="Icons" clip-path="url(#clip0_2576_95413)">
<g id="Layer 8">
<path id="Vector" d="M20.1 14.7H19.5V13.5C19.5 12.8635 19.2471 12.253 18.7971 11.803C18.347 11.3529 17.7365 11.1 17.1 11.1H12.9V9.30002H13.5H13.845H10.155H10.5H11.1V11.1H6.885C6.25108 11.104 5.64448 11.3586 5.19763 11.8082C4.75078 12.2579 4.49999 12.8661 4.5 13.5V14.7H3.9C3.26348 14.7 2.65303 14.9529 2.20294 15.403C1.75286 15.853 1.5 16.4635 1.5 17.1V20.1C1.5 20.7365 1.75286 21.347 2.20294 21.7971C2.65303 22.2472 3.26348 22.5 3.9 22.5H6.9C7.53652 22.5 8.14697 22.2472 8.59706 21.7971C9.04714 21.347 9.3 20.7365 9.3 20.1V17.1C9.3 16.4635 9.04714 15.853 8.59706 15.403C8.14697 14.9529 7.53652 14.7 6.9 14.7H6.3V13.5C6.29748 13.4211 6.31229 13.3426 6.34339 13.27C6.37449 13.1975 6.42112 13.1326 6.48 13.08C6.53435 13.0234 6.59954 12.9782 6.6717 12.9473C6.74385 12.9164 6.8215 12.9003 6.9 12.9H17.1C17.2591 12.9 17.4117 12.9632 17.5243 13.0758C17.6368 13.1883 17.7 13.3409 17.7 13.5V14.7H17.1C16.4635 14.7 15.853 14.9529 15.4029 15.403C14.9529 15.853 14.7 16.4635 14.7 17.1V20.1C14.7 20.7365 14.9529 21.347 15.4029 21.7971C15.853 22.2472 16.4635 22.5 17.1 22.5H20.1C20.7365 22.5 21.347 22.2472 21.7971 21.7971C22.2471 21.347 22.5 20.7365 22.5 20.1V17.1C22.5 16.4635 22.2471 15.853 21.7971 15.403C21.347 14.9529 20.7365 14.7 20.1 14.7ZM6.9 16.5C7.05913 16.5 7.21174 16.5632 7.32426 16.6758C7.43679 16.7883 7.5 16.9409 7.5 17.1V20.1C7.5 20.2591 7.43679 20.4118 7.32426 20.5243C7.21174 20.6368 7.05913 20.7 6.9 20.7H3.9C3.74087 20.7 3.58826 20.6368 3.47574 20.5243C3.36321 20.4118 3.3 20.2591 3.3 20.1V17.1C3.3 16.9409 3.36321 16.7883 3.47574 16.6758C3.58826 16.5632 3.74087 16.5 3.9 16.5H6.9ZM20.7 20.1C20.7 20.2591 20.6368 20.4118 20.5243 20.5243C20.4117 20.6368 20.2591 20.7 20.1 20.7H17.1C16.9409 20.7 16.7883 20.6368 16.6757 20.5243C16.5632 20.4118 16.5 20.2591 16.5 20.1V17.1C16.5 16.9409 16.5632 16.7883 16.6757 16.6758C16.7883 16.5632 16.9409 16.5 17.1 16.5H20.1C20.2591 16.5 20.4117 16.5632 20.5243 16.6758C20.6368 16.7883 20.7 16.9409 20.7 17.1V20.1Z" fill="#4A5868"/>
<path id="Vector_2" d="M10.5 9.3H13.5C14.1365 9.3 14.7469 9.04714 15.197 8.59706C15.6471 8.14697 15.9 7.53652 15.9 6.9V3.9C15.9 3.26348 15.6471 2.65303 15.197 2.20294C14.7469 1.75286 14.1365 1.5 13.5 1.5H10.5C9.86346 1.5 9.25301 1.75286 8.80292 2.20294C8.35283 2.65303 8.09998 3.26348 8.09998 3.9V6.9C8.09998 7.53652 8.35283 8.14697 8.80292 8.59706C9.25301 9.04714 9.86346 9.3 10.5 9.3ZM9.89998 3.9C9.89998 3.74087 9.96319 3.58826 10.0757 3.47574C10.1882 3.36321 10.3408 3.3 10.5 3.3H13.5C13.6591 3.3 13.8117 3.36321 13.9242 3.47574C14.0368 3.58826 14.1 3.74087 14.1 3.9V6.9C14.1 7.05913 14.0368 7.21174 13.9242 7.32426C13.8117 7.43679 13.6591 7.5 13.5 7.5H10.5C10.3408 7.5 10.1882 7.43679 10.0757 7.32426C9.96319 7.21174 9.89998 7.05913 9.89998 6.9V3.9Z" fill="#45A4EC"/>
</g>
</g>
<defs>
<clipPath id="clip0_2576_95413">
<rect width="24" height="24" fill="white"/>
</clipPath>
</defs>
</svg>
