<svg width="24" height="24" viewBox="0 0 24 24" fill="none" xmlns="http://www.w3.org/2000/svg">
<g id="Icons" clip-path="url(#clip0_2576_95406)">
<g id="Layer 8">
<path id="Vector" d="M4.30499 9.94502C4.16999 9.94502 4.03499 9.94502 3.88499 9.94502C3.76398 10.0024 3.65264 10.0783 3.55499 10.17C3.45837 10.2576 3.38061 10.364 3.32645 10.4826C3.2723 10.6012 3.24288 10.7296 3.23999 10.86V19.605C3.25552 19.8902 3.38183 20.158 3.59199 20.3513C3.80215 20.5447 4.07954 20.6483 4.36499 20.64H19.5C19.6418 20.6461 19.7835 20.6241 19.9168 20.5753C20.0502 20.5265 20.1726 20.4519 20.2771 20.3558C20.3816 20.2597 20.4661 20.1439 20.5258 20.015C20.5855 19.8862 20.6192 19.7469 20.625 19.605V10.92C20.6332 10.6798 20.5465 10.446 20.3837 10.2692C20.2209 10.0924 19.9951 9.9867 19.755 9.97502C19.6367 9.96557 19.5214 9.9328 19.4157 9.87861C19.3101 9.82441 19.2163 9.74985 19.1396 9.65922C19.0629 9.5686 19.0049 9.46369 18.9689 9.35056C18.933 9.23742 18.9197 9.11829 18.93 9.00002C18.9562 8.7654 19.0692 8.54906 19.2469 8.39361C19.4245 8.23815 19.654 8.15482 19.89 8.16002C20.2693 8.18749 20.6404 8.28408 20.985 8.44502C21.2496 8.54875 21.4907 8.70438 21.6942 8.90274C21.8978 9.1011 22.0595 9.33818 22.17 9.60002C22.3437 10.0808 22.43 10.5888 22.425 11.1C22.425 11.685 22.425 12.285 22.425 12.885V19.575C22.4311 19.9608 22.3596 20.3439 22.2147 20.7015C22.0699 21.0591 21.8546 21.384 21.5818 21.6568C21.309 21.9297 20.9841 22.1449 20.6265 22.2897C20.2689 22.4346 19.8858 22.5061 19.5 22.5H4.36499C3.6115 22.4962 2.88952 22.1972 2.35392 21.6672C1.81832 21.1372 1.51175 20.4184 1.49999 19.665V10.92C1.49533 10.3138 1.69147 9.72316 2.05779 9.24016C2.42411 8.75716 2.94001 8.40901 3.52499 8.25002C3.66961 8.23528 3.81536 8.23528 3.95999 8.25002C4.19868 8.25002 4.4276 8.34484 4.59639 8.51362C4.76517 8.68241 4.85999 8.91132 4.85999 9.15002C4.84954 9.32076 4.7922 9.48531 4.69429 9.62557C4.59637 9.76583 4.46166 9.87636 4.30499 9.94502Z" fill="#4A5868"/>
<path id="Vector_2" d="M12 16.68C11.4019 16.6801 10.8191 16.4911 10.335 16.14L2.51998 10.575C2.33525 10.4378 2.21006 10.2351 2.17015 10.0085C2.13023 9.78194 2.17861 9.54867 2.30535 9.35664C2.43209 9.16461 2.62756 9.02841 2.8516 8.97603C3.07564 8.92365 3.31123 8.95906 3.50998 9.07499L11.37 14.685C11.5537 14.8094 11.7706 14.876 11.9925 14.876C12.2144 14.876 12.4312 14.8094 12.615 14.685L20.325 9.19499C20.5239 9.05774 20.7692 9.00513 21.0069 9.04873C21.2446 9.09233 21.4552 9.22858 21.5925 9.42749C21.7297 9.6264 21.7823 9.87169 21.7387 10.1094C21.6951 10.3471 21.5589 10.5577 21.36 10.695L13.665 16.14C13.1808 16.4911 12.598 16.6801 12 16.68Z" fill="#4A5868"/>
<path id="Vector_3" d="M12 10.08C11.7613 10.08 11.5324 9.98519 11.3636 9.8164C11.1948 9.64762 11.1 9.4187 11.1 9.18001V5.22001C11.1 4.98131 11.1948 4.75239 11.3636 4.58361C11.5324 4.41483 11.7613 4.32001 12 4.32001C12.2387 4.32001 12.4676 4.41483 12.6364 4.58361C12.8052 4.75239 12.9 4.98131 12.9 5.22001V9.18001C12.9 9.4187 12.8052 9.64762 12.6364 9.8164C12.4676 9.98519 12.2387 10.08 12 10.08Z" fill="#DC6337"/>
<path id="Vector_4" d="M19.8 11.31C19.5613 11.31 19.3324 11.2152 19.1636 11.0464C18.9948 10.8776 18.9 10.6487 18.9 10.41V4.5C18.902 4.34116 18.8724 4.1835 18.813 4.03617C18.7536 3.88885 18.6655 3.75478 18.5539 3.64176C18.4422 3.52873 18.3093 3.439 18.1627 3.37776C18.0161 3.31652 17.8589 3.28499 17.7 3.285H6.075C5.75276 3.285 5.44372 3.41301 5.21587 3.64087C4.98801 3.86872 4.86 4.17776 4.86 4.5C4.86 4.74665 4.76202 4.9832 4.58761 5.15761C4.4132 5.33202 4.17665 5.43 3.93 5.43C3.68335 5.43 3.4468 5.33202 3.27239 5.15761C3.09798 4.9832 3 4.74665 3 4.5C3 3.70435 3.31607 2.94129 3.87868 2.37868C4.44129 1.81607 5.20435 1.5 6 1.5H17.7C18.4956 1.5 19.2587 1.81607 19.8213 2.37868C20.3839 2.94129 20.7 3.70435 20.7 4.5V10.41C20.7 10.6487 20.6052 10.8776 20.4364 11.0464C20.2676 11.2152 20.0387 11.31 19.8 11.31Z" fill="#4A5868"/>
<path id="Vector_5" d="M3.96 11.31C3.7213 11.31 3.49238 11.2152 3.3236 11.0464C3.15482 10.8776 3.06 10.6487 3.06 10.41V4.49998C3.06 4.38179 3.08328 4.26475 3.12851 4.15556C3.17374 4.04637 3.24003 3.94715 3.3236 3.86358C3.40717 3.78001 3.50639 3.71371 3.61558 3.66848C3.72478 3.62325 3.84181 3.59998 3.96 3.59998C4.07819 3.59998 4.19522 3.62325 4.30441 3.66848C4.41361 3.71371 4.51282 3.78001 4.59639 3.86358C4.67997 3.94715 4.74626 4.04637 4.79149 4.15556C4.83672 4.26475 4.86 4.38179 4.86 4.49998V10.41C4.86 10.6487 4.76518 10.8776 4.59639 11.0464C4.42761 11.2152 4.19869 11.31 3.96 11.31Z" fill="#4A5868"/>
<path id="Vector_6" d="M11.94 12.825C12.437 12.825 12.84 12.4221 12.84 11.925C12.84 11.428 12.437 11.025 11.94 11.025C11.4429 11.025 11.04 11.428 11.04 11.925C11.04 12.4221 11.4429 12.825 11.94 12.825Z" fill="#DC6337"/>
</g>
</g>
<defs>
<clipPath id="clip0_2576_95406">
<rect width="24" height="24" fill="white"/>
</clipPath>
</defs>
</svg>
