<svg width="24" height="24" viewBox="0 0 24 24" fill="none" xmlns="http://www.w3.org/2000/svg">
<g id="Icons" clip-path="url(#clip0_2576_95451)">
<g id="Layer 8">
<path id="Vector" d="M18.6 12.93H5.4C5.16131 12.93 4.93239 12.8352 4.7636 12.6664C4.59482 12.4976 4.5 12.2687 4.5 12.03C4.5 11.7913 4.59482 11.5624 4.7636 11.3936C4.93239 11.2248 5.16131 11.13 5.4 11.13H18.6C18.8387 11.13 19.0676 11.2248 19.2364 11.3936C19.4052 11.5624 19.5 11.7913 19.5 12.03C19.5 12.2687 19.4052 12.4976 19.2364 12.6664C19.0676 12.8352 18.8387 12.93 18.6 12.93Z" fill="#D33C4E"/>
<path id="Vector_2" d="M13.74 18H5.4C5.16131 18 4.93239 17.9052 4.7636 17.7364C4.59482 17.5676 4.5 17.3387 4.5 17.1C4.5 16.8613 4.59482 16.6324 4.7636 16.4636C4.93239 16.2948 5.16131 16.2 5.4 16.2H13.74C13.8582 16.2 13.9752 16.2233 14.0844 16.2685C14.1936 16.3137 14.2928 16.38 14.3764 16.4636C14.46 16.5472 14.5263 16.6464 14.5715 16.7556C14.6167 16.8648 14.64 16.9818 14.64 17.1C14.64 17.2182 14.6167 17.3352 14.5715 17.4444C14.5263 17.5536 14.46 17.6528 14.3764 17.7364C14.2928 17.82 14.1936 17.8862 14.0844 17.9315C13.9752 17.9767 13.8582 18 13.74 18Z" fill="#D33C4E"/>
<path id="Vector_3" d="M18.6 18H16.74C16.5013 18 16.2724 17.9052 16.1036 17.7364C15.9348 17.5676 15.84 17.3387 15.84 17.1C15.84 16.8613 15.9348 16.6324 16.1036 16.4636C16.2724 16.2948 16.5013 16.2 16.74 16.2H18.6C18.7182 16.2 18.8352 16.2233 18.9444 16.2685C19.0536 16.3137 19.1528 16.38 19.2364 16.4636C19.3199 16.5472 19.3862 16.6464 19.4315 16.7556C19.4767 16.8648 19.5 16.9818 19.5 17.1C19.5 17.2182 19.4767 17.3352 19.4315 17.4444C19.3862 17.5536 19.3199 17.6528 19.2364 17.7364C19.1528 17.82 19.0536 17.8862 18.9444 17.9315C18.8352 17.9767 18.7182 18 18.6 18Z" fill="#D33C4E"/>
<path id="Vector_4" d="M18.6 22.5H5.39997C4.37199 22.4961 3.38679 22.0881 2.6571 21.364C1.9274 20.6399 1.51178 19.6579 1.49997 18.63V5.43C1.49799 4.91587 1.59731 4.40639 1.79223 3.93065C1.98716 3.4549 2.27388 3.02221 2.63603 2.65728C2.99818 2.29234 3.42866 2.00231 3.9029 1.80374C4.37714 1.60518 4.88584 1.50197 5.39997 1.5H18.6C19.1147 1.49998 19.6243 1.60185 20.0994 1.79971C20.5745 1.99758 21.0058 2.28754 21.3683 2.65287C21.7309 3.0182 22.0175 3.45168 22.2118 3.92832C22.406 4.40496 22.5039 4.91533 22.5 5.43V18.63C22.4921 19.6591 22.0777 20.6434 21.3471 21.3683C20.6166 22.0933 19.6291 22.5 18.6 22.5ZM5.39997 3.33C4.84301 3.33 4.30887 3.55125 3.91504 3.94508C3.52122 4.3389 3.29997 4.87305 3.29997 5.43V18.63C3.29997 19.187 3.52122 19.7211 3.91504 20.1149C4.30887 20.5088 4.84301 20.73 5.39997 20.73H18.6C19.1569 20.73 19.6911 20.5088 20.0849 20.1149C20.4787 19.7211 20.7 19.187 20.7 18.63V5.43C20.7 4.87305 20.4787 4.3389 20.0849 3.94508C19.6911 3.55125 19.1569 3.33 18.6 3.33H5.39997Z" fill="#4A5868"/>
<path id="Vector_5" d="M21.6 7.815H2.4C2.16131 7.815 1.93239 7.72018 1.76361 7.5514C1.59482 7.38261 1.5 7.15369 1.5 6.915C1.49801 6.79555 1.51982 6.67691 1.56416 6.56598C1.60849 6.45505 1.67447 6.35405 1.75824 6.26888C1.84202 6.18372 1.94191 6.11608 2.05209 6.06991C2.16227 6.02375 2.28054 5.99998 2.4 6H21.6C21.8387 6 22.0676 6.09482 22.2364 6.2636C22.4052 6.43239 22.5 6.66131 22.5 6.9C22.502 7.01945 22.4802 7.13809 22.4358 7.24902C22.3915 7.35995 22.3255 7.46095 22.2418 7.54612C22.158 7.63128 22.0581 7.69892 21.9479 7.74509C21.8377 7.79125 21.7195 7.81502 21.6 7.815Z" fill="#4A5868"/>
</g>
</g>
<defs>
<clipPath id="clip0_2576_95451">
<rect width="24" height="24" fill="white"/>
</clipPath>
</defs>
</svg>
