<svg width="24" height="24" viewBox="0 0 24 24" fill="none" xmlns="http://www.w3.org/2000/svg">
<g id="Icons" clip-path="url(#clip0_2576_95458)">
<g id="Layer 8">
<path id="Vector" d="M17.37 22.5H6.645C5.71105 22.5284 4.80375 22.1863 4.12094 21.5485C3.43814 20.9107 3.0352 20.0287 3 19.095V4.88999C3.0352 3.96025 3.43655 3.08213 4.11655 2.44709C4.79654 1.81206 5.70002 1.47161 6.63 1.49999H13.38C14.1635 1.49487 14.9215 1.7778 15.51 2.29499L20.01 6.44999C20.3112 6.70282 20.5552 7.01679 20.7259 7.37107C20.8966 7.72535 20.99 8.11187 21 8.50499V19.11C20.9845 19.571 20.8783 20.0245 20.6874 20.4444C20.4966 20.8644 20.2248 21.2426 19.8877 21.5574C19.5505 21.8723 19.1547 22.1176 18.7227 22.2793C18.2907 22.441 17.831 22.516 17.37 22.5ZM6.63 3.29999C6.17715 3.27105 5.73114 3.42171 5.3886 3.71933C5.04606 4.01694 4.83459 4.43754 4.8 4.88999V19.095C4.8346 19.5514 5.04766 19.9758 5.39301 20.2763C5.73836 20.5767 6.18818 20.7289 6.645 20.7H17.37C17.8228 20.7289 18.2689 20.5783 18.6114 20.2807C18.9539 19.983 19.1654 19.5624 19.2 19.11V8.50499C19.1985 8.36708 19.1669 8.23115 19.1073 8.10677C19.0477 7.98239 18.9616 7.87256 18.855 7.78499L14.355 3.62999C14.0949 3.41156 13.7646 3.29438 13.425 3.29999H6.63Z" fill="#4A5868"/>
<path id="Vector_2" d="M11.175 14.22H7.11002C6.87133 14.22 6.64241 14.1252 6.47363 13.9564C6.30484 13.7876 6.21002 13.5587 6.21002 13.32C6.21002 13.0813 6.30484 12.8524 6.47363 12.6836C6.64241 12.5148 6.87133 12.42 7.11002 12.42H11.175C11.3535 12.437 11.5316 12.3839 11.6716 12.2719C11.8115 12.1599 11.9024 11.9979 11.925 11.82C11.9025 11.641 11.8121 11.4774 11.6726 11.363C11.5331 11.2486 11.355 11.1921 11.175 11.205H8.76002C8.43496 11.215 8.11112 11.1608 7.807 11.0456C7.50289 10.9304 7.22446 10.7564 6.98764 10.5335C6.75082 10.3106 6.56025 10.0432 6.42682 9.74663C6.29339 9.45005 6.21972 9.13008 6.21002 8.80501C6.21972 8.47994 6.29339 8.15997 6.42682 7.86339C6.56025 7.56681 6.75082 7.29943 6.98764 7.07654C7.22446 6.85366 7.50289 6.67962 7.807 6.5644C8.11112 6.44917 8.43496 6.39501 8.76002 6.40501H12.825C13.0637 6.40501 13.2926 6.49983 13.4614 6.66861C13.6302 6.8374 13.725 7.06631 13.725 7.30501C13.725 7.5437 13.6302 7.77262 13.4614 7.94141C13.2926 8.11019 13.0637 8.20501 12.825 8.20501H8.76002C8.58156 8.18799 8.40348 8.2411 8.26349 8.3531C8.1235 8.46509 8.0326 8.62716 8.01002 8.80501C8.0326 8.98286 8.1235 9.14493 8.26349 9.25692C8.40348 9.36892 8.58156 9.42203 8.76002 9.40501H11.175C11.8329 9.38886 12.4705 9.63382 12.9483 10.0864C13.4261 10.5389 13.7054 11.1622 13.725 11.82C13.7153 12.1451 13.6417 12.465 13.5082 12.7616C13.3748 13.0582 13.1842 13.3256 12.9474 13.5485C12.7106 13.7714 12.4322 13.9454 12.128 14.0606C11.8239 14.1758 11.5001 14.23 11.175 14.22Z" fill="#FFA800"/>
<path id="Vector_3" d="M9.89999 15.33C9.78124 15.3321 9.6633 15.3102 9.55319 15.2657C9.44308 15.2212 9.34305 15.1549 9.25907 15.071C9.17509 14.987 9.10888 14.8869 9.06437 14.7768C9.01985 14.6667 8.99796 14.5488 8.99999 14.43V6.33003C8.98351 6.20312 8.99427 6.07415 9.03158 5.95173C9.06889 5.8293 9.13188 5.71625 9.21634 5.6201C9.30081 5.52395 9.40481 5.44692 9.52141 5.39415C9.638 5.34138 9.76451 5.31409 9.89249 5.31409C10.0205 5.31409 10.147 5.34138 10.2636 5.39415C10.3802 5.44692 10.4842 5.52395 10.5686 5.6201C10.6531 5.71625 10.7161 5.8293 10.7534 5.95173C10.7907 6.07415 10.8015 6.20312 10.785 6.33003V14.43C10.787 14.5475 10.7656 14.6642 10.722 14.7733C10.6784 14.8824 10.6135 14.9818 10.5311 15.0655C10.4488 15.1493 10.3505 15.2159 10.2422 15.2613C10.1338 15.3067 10.0175 15.3301 9.89999 15.33Z" fill="#FFA800"/>
<path id="Vector_4" d="M16.905 11.28H15.405C15.1663 11.28 14.9374 11.1852 14.7686 11.0164C14.5998 10.8476 14.505 10.6187 14.505 10.38C14.505 10.1413 14.5998 9.9124 14.7686 9.74361C14.9374 9.57483 15.1663 9.48001 15.405 9.48001H16.905C17.1437 9.48001 17.3726 9.57483 17.5414 9.74361C17.7102 9.9124 17.805 10.1413 17.805 10.38C17.805 10.6187 17.7102 10.8476 17.5414 11.0164C17.3726 11.1852 17.1437 11.28 16.905 11.28Z" fill="#4A5868"/>
<path id="Vector_5" d="M16.905 15H15.405C15.1663 15 14.9374 14.9052 14.7686 14.7364C14.5998 14.5676 14.505 14.3387 14.505 14.1C14.505 13.8613 14.5998 13.6324 14.7686 13.4636C14.9374 13.2948 15.1663 13.2 15.405 13.2H16.905C17.1437 13.2 17.3726 13.2948 17.5414 13.4636C17.7102 13.6324 17.805 13.8613 17.805 14.1C17.805 14.3387 17.7102 14.5676 17.5414 14.7364C17.3726 14.9052 17.1437 15 16.905 15Z" fill="#4A5868"/>
<path id="Vector_6" d="M16.905 18.57H7.11002C6.87133 18.57 6.64241 18.4752 6.47363 18.3064C6.30484 18.1376 6.21002 17.9087 6.21002 17.67C6.21002 17.4313 6.30484 17.2024 6.47363 17.0336C6.64241 16.8648 6.87133 16.77 7.11002 16.77H16.905C17.1437 16.77 17.3726 16.8648 17.5414 17.0336C17.7102 17.2024 17.805 17.4313 17.805 17.67C17.805 17.9087 17.7102 18.1376 17.5414 18.3064C17.3726 18.4752 17.1437 18.57 16.905 18.57Z" fill="#4A5868"/>
</g>
</g>
<defs>
<clipPath id="clip0_2576_95458">
<rect width="24" height="24" fill="white"/>
</clipPath>
</defs>
</svg>
