<svg xmlns="http://www.w3.org/2000/svg" width="18" height="18" viewBox="0 0 18 18" fill="none">
  <rect width="18" height="18" fill="none"/>
  <path d="M7.52496 13.6547H4.1958V11.5796C4.1958 9.28672 6.05296 7.42957 8.34587 7.42957C9.53926 7.42957 10.6146 7.93265 11.3715 8.73841" stroke="#4D5867" stroke-width="1.4" stroke-linecap="round" stroke-linejoin="round"/>
  <path d="M8.34587 7.35666C9.73827 7.35666 10.867 6.2279 10.867 4.83549C10.867 3.44309 9.73827 2.31433 8.34587 2.31433C6.95347 2.31433 5.82471 3.44309 5.82471 4.83549C5.82471 6.2279 6.95347 7.35666 8.34587 7.35666Z" stroke="#4D5867" stroke-width="1.4" stroke-linecap="round" stroke-linejoin="round"/>
  <path d="M9.70654 11.3444H13.8041M13.8041 11.3444L12.7076 10.2479M13.8041 11.3444L12.7076 12.4409" stroke="#CA4251" stroke-width="1.4" stroke-linecap="round" stroke-linejoin="round"/>
  <path d="M13.8042 14.5891L9.70669 14.5891M9.70669 14.5891L10.8032 15.6856M9.70669 14.5891L10.8032 13.4927" stroke="#CA4251" stroke-width="1.4" stroke-linecap="round" stroke-linejoin="round"/>
</svg>
