<svg width="24" height="24" viewBox="0 0 24 24" fill="none" xmlns="http://www.w3.org/2000/svg">
<g id="Icons" clip-path="url(#clip0_2576_95459)">
<g id="Layer 8">
<path id="Vector" d="M17.58 3.96C16.7719 3.04039 15.7379 2.34756 14.58 1.95C13.4288 1.52485 12.1909 1.38868 10.9748 1.55344C9.75867 1.7182 8.60158 2.17886 7.60501 2.895C6.63988 3.59295 5.85485 4.51072 5.3149 5.57236C4.77496 6.63399 4.49562 7.80896 4.50001 9C4.50001 13.92 8.59501 19.815 10.17 21.675C10.3967 21.9383 10.6776 22.1495 10.9934 22.2944C11.3092 22.4392 11.6526 22.5141 12 22.5141C12.3474 22.5141 12.6908 22.4392 13.0066 22.2944C13.3224 22.1495 13.6033 21.9383 13.83 21.675C14.745 20.505 23.13 10.29 17.58 3.96ZM12.39 20.46C12.335 20.5259 12.2662 20.5788 12.1884 20.6151C12.1106 20.6514 12.0258 20.6701 11.94 20.67C11.8521 20.6694 11.7654 20.6503 11.6853 20.6142C11.6052 20.578 11.5336 20.5255 11.475 20.46C9.45001 18.105 6.24001 12.87 6.24001 9C6.23592 8.24525 6.38256 7.49728 6.67133 6.79995C6.9601 6.10261 7.38519 5.46995 7.92167 4.93905C8.45816 4.40816 9.09523 3.98972 9.79555 3.70826C10.4959 3.42681 11.2453 3.28801 12 3.3C12.6941 3.30474 13.3829 3.42123 14.04 3.645C14.9057 3.94489 15.6802 4.46126 16.29 5.145C20.85 10.5 12.735 20.07 12.39 20.49V20.46Z" fill="#4A5868"/>
<path id="Vector_2" d="M11.91 6.30004C11.2846 6.28813 10.6698 6.46269 10.1439 6.8015C9.61806 7.1403 9.205 7.628 8.95735 8.20243C8.70971 8.77687 8.63871 9.41203 8.75339 10.027C8.86807 10.6419 9.16325 11.2088 9.6013 11.6553C10.0394 12.1019 10.6004 12.4079 11.2131 12.5344C11.8257 12.6609 12.4621 12.6021 13.0412 12.3656C13.6203 12.129 14.1158 11.7254 14.4647 11.2062C14.8135 10.6869 14.9999 10.0756 15 9.45004C15.0001 8.6249 14.6765 7.83265 14.0987 7.2436C13.5209 6.65456 12.735 6.31576 11.91 6.30004ZM11.91 10.8C11.6437 10.7971 11.3841 10.7154 11.1641 10.5653C10.9441 10.4151 10.7734 10.2033 10.6735 9.95635C10.5736 9.70943 10.549 9.43847 10.6028 9.17759C10.6566 8.91672 10.7863 8.67757 10.9757 8.49027C11.1651 8.30297 11.4056 8.17587 11.6671 8.12499C11.9286 8.0741 12.1992 8.1017 12.445 8.2043C12.6908 8.30691 12.9008 8.47993 13.0485 8.7016C13.1962 8.92327 13.275 9.18368 13.275 9.45004C13.275 9.6286 13.2396 9.80538 13.1708 9.97015C13.102 10.1349 13.0013 10.2844 12.8743 10.41C12.7474 10.5355 12.5968 10.6347 12.4312 10.7016C12.2657 10.7686 12.0885 10.802 11.91 10.8Z" fill="#FFA800"/>
</g>
</g>
<defs>
<clipPath id="clip0_2576_95459">
<rect width="24" height="24" fill="white"/>
</clipPath>
</defs>
</svg>
