<svg width="16" height="16" viewBox="0 0 16 16" fill="none" xmlns="http://www.w3.org/2000/svg">
<path fill-rule="evenodd" clip-rule="evenodd" d="M7.54111 8.81714L7.68321 8.88727C8.1998 9.14221 8.5693 9.28269 9.08065 9.28269C9.3718 9.28269 9.60782 9.51872 9.60782 9.80987C9.60782 10.101 9.3718 10.337 9.08065 10.337C8.39406 10.337 7.88134 10.1504 7.36781 9.90613C6.2452 10.1149 5.43961 11.0458 5.43961 12.1716V12.987C5.43961 13.1457 5.56909 13.2752 5.7278 13.2752H9.08065C9.3718 13.2752 9.60782 13.5112 9.60782 13.8024C9.60782 14.0935 9.3718 14.3295 9.08065 14.3295H5.7278C4.98679 14.3295 4.38525 13.728 4.38525 12.987V12.1716C4.38525 10.4364 5.68712 9.05114 7.3839 8.83698L7.54111 8.81714Z" fill="#3B4854"/>
<path fill-rule="evenodd" clip-rule="evenodd" d="M9.08063 5.6276C8.07131 5.6276 7.25308 6.44582 7.25308 7.45514C7.25308 8.46447 8.07131 9.28269 9.08063 9.28269C10.09 9.28269 10.9082 8.46447 10.9082 7.45514C10.9082 6.44582 10.09 5.6276 9.08063 5.6276ZM6.19873 7.45514C6.19873 5.86351 7.489 4.57324 9.08063 4.57324C10.6723 4.57324 11.9625 5.86351 11.9625 7.45514C11.9625 9.04677 10.6723 10.337 9.08063 10.337C7.489 10.337 6.19873 9.04677 6.19873 7.45514Z" fill="#3B4854"/>
<path d="M2.94431 10.4916C3.67025 10.4916 4.25874 9.90316 4.25874 9.17722C4.25874 8.45128 3.67025 7.86279 2.94431 7.86279C2.21837 7.86279 1.62988 8.45128 1.62988 9.17722C1.62988 9.90316 2.21837 10.4916 2.94431 10.4916Z" fill="#3B4854"/>
<path fill-rule="evenodd" clip-rule="evenodd" d="M13.9963 9.42448C13.9959 9.42576 13.9954 9.42704 13.995 9.42834L13.9945 9.42991L13.7696 10.0977C13.6766 10.3736 13.3776 10.5219 13.1017 10.429C12.8258 10.336 12.6774 10.037 12.7704 9.7611L12.9948 9.09492C12.9949 9.09464 12.995 9.09436 12.995 9.09409C13.0664 8.88048 13.2031 8.60222 13.4686 8.43706C13.6128 8.34736 13.7852 8.2984 13.9723 8.31174C14.1284 8.32288 14.2703 8.37547 14.3949 8.44812C14.6741 8.55995 14.881 8.76867 14.9871 9.03475C15.0902 9.29327 15.0851 9.57014 15.0161 9.81806C15.0124 9.8415 15.0071 9.8736 14.9997 9.91367C14.9844 9.99708 14.9604 10.1152 14.9246 10.2618C14.853 10.5548 14.7337 10.9631 14.5411 11.4364C14.1575 12.379 13.4786 13.5906 12.2968 14.6564C12.1636 14.788 11.9691 14.95 11.7396 15.0415C11.5108 15.1328 11.1747 15.173 10.8805 14.9559C10.5836 14.8182 10.3969 14.5556 10.3246 14.2878C10.2473 14.0016 10.2845 13.64 10.5342 13.3687L11.0792 12.7132C11.2654 12.4893 11.5978 12.4588 11.8217 12.6449C12.0455 12.8311 12.0761 13.1635 11.8899 13.3873L11.3688 14.0141L11.4104 14.028C11.4186 14.0225 11.4274 14.0163 11.4368 14.0094C11.4774 13.9796 11.5202 13.9421 11.5617 13.9006L11.5716 13.8907L11.582 13.8813C12.6223 12.946 13.2234 11.8773 13.5645 11.039C13.7348 10.6204 13.8391 10.2622 13.9004 10.0115C13.931 9.88624 13.9508 9.78828 13.9627 9.72356C13.9686 9.69121 13.9725 9.66721 13.9749 9.65231L13.9772 9.63689L13.9774 9.63537L13.9775 9.63507L13.9775 9.63467L13.9775 9.63465L13.9775 9.63449L13.9833 9.59063L13.9969 9.54722C14.0176 9.48071 14.0121 9.44219 14.009 9.42958C14.0062 9.4282 14.0021 9.42643 13.9963 9.42448ZM14.049 9.31396C14.049 9.31397 14.0488 9.31417 14.0485 9.31455ZM11.3428 14.0644C11.3428 14.0644 11.3432 14.0643 11.344 14.0641Z" fill="#3B4854"/>
<path fill-rule="evenodd" clip-rule="evenodd" d="M2.19214 7.45517C2.19214 3.95176 5.0289 1.11499 8.53232 1.11499C11.8755 1.11499 14.6046 3.69912 14.8499 6.97295C14.8717 7.26329 14.654 7.51629 14.3636 7.53805C14.0733 7.55981 13.8203 7.34208 13.7985 7.05174C13.594 4.32278 11.3184 2.16934 8.53232 2.16934C5.61121 2.16934 3.24649 4.53406 3.24649 7.45517C3.24649 8.02523 3.34786 8.58047 3.52169 9.10196C3.61376 9.37817 3.46448 9.67672 3.18827 9.76879C2.91206 9.86086 2.61351 9.71158 2.52144 9.43537C2.3157 8.81816 2.19214 8.15034 2.19214 7.45517Z" fill="#3B4854"/>
</svg>
