<?xml version="1.0" encoding="UTF-8"?>
<svg width="512px" height="512px" viewBox="0 0 512 512" version="1.1" xmlns="http://www.w3.org/2000/svg" xmlns:xlink="http://www.w3.org/1999/xlink">
    <!-- Generator: Sketch 59.1 (86144) - https://sketch.com -->
    <title>problems</title>
    <desc>Created with Sketch.</desc>
    <g id="Page-3" stroke="none" stroke-width="1" fill="none" fill-rule="evenodd">
        <g id="Group-3" transform="translate(41.000000, 41.000000)" fill="#000000">
            <path d="M302.177929,284.25091 L301.640437,287.561436 C297.186932,316.969541 252.959021,363.437731 216.460756,394.319866 L214.745901,395.745567 L213.056641,394.319866 C202.153232,385.11322 181.011881,366.361626 161.841334,344.347835 C141.928536,321.560782 130.180497,302.011762 127.851365,287.827245 L127.416252,180.464704 L302.177929,180.464704 L302.177929,284.25091 Z M129.335866,143.807271 C133.277474,128.052066 142.1077,113.891713 154.802748,102.848571 L159.077089,98.9822629 L164.528793,95.4300924 C193.962878,76.2435389 235.196191,76.2435389 264.681465,95.5267501 L269.365324,98.4506455 L274.433105,102.848571 C287.256128,114.012535 296.060759,128.197053 299.874392,143.903929 L300.591048,146.876153 L129.259082,146.876153 L129.335866,143.807271 Z M425.340377,330.332469 C431.534332,324.436349 431.585521,315.471347 425.340377,309.526899 L405.094845,291.1861 C391.068864,278.233968 365.653172,268.495705 345.970728,268.495705 L334.197094,268.495705 L334.197094,239.25675 L345.970728,239.25675 C357.20687,239.25675 374.227449,245.732816 382.392208,253.151295 L402.305006,271.540422 C405.427579,274.246838 409.343592,275.720868 413.771502,275.696703 C417.994653,275.600046 422.013045,273.956865 425.033238,271.081298 C430.920055,265.426823 430.920055,256.485986 425.007643,250.710688 L405.094845,232.490711 C391.068864,219.562744 365.627577,209.800316 345.970728,209.800316 L334.197094,209.800316 L334.197094,180.561362 L345.970728,180.561362 C357.232465,180.561362 374.253044,187.085757 382.392208,194.504235 L402.202627,212.869198 C407.961469,218.354523 418.967257,218.112879 425.033238,212.893363 C428.027836,210.041961 429.665907,206.344803 429.640312,202.478495 C429.640312,198.612187 427.976647,194.91503 424.956454,192.087793 L405.069251,173.72283 C391.068864,160.794862 365.627577,151.032434 345.970728,151.032434 L333.634007,151.032434 L333.378059,148.881801 C330.639409,126.408885 320.503846,105.554987 303.995164,88.5432313 L302.331498,86.8275571 L310.13793,79.602394 C323.959152,66.7710843 333.992335,47.2220644 333.992335,33.0617113 L333.992335,14.7209126 C333.992335,6.60166582 326.800181,0.00477777778 317.969955,0.00477777778 C309.13973,0.00477777778 301.97317,6.60166582 301.97317,14.7209126 L301.97317,33.0617113 C301.97317,37.9429251 296.163138,50.725906 287.384102,58.9176461 L277.478893,68.0759632 L275.815228,67.1577151 C238.625902,46.7387759 190.609952,46.7387759 153.420626,67.1577151 L151.731365,68.0759632 L141.826156,58.9176461 C133.047121,50.9192214 127.211493,38.1120761 127.211493,33.158369 L127.211493,14.7209126 C127.211493,10.8062758 125.573423,7.10911875 122.55323,4.33020987 C116.512844,-1.25177233 105.942168,-1.25177233 99.901782,4.33020987 C96.8815889,7.10911875 95.2435182,10.8062758 95.2435182,14.7209126 L95.2435182,33.0617113 C95.2435182,47.2462288 105.302297,66.8194131 119.174709,79.602394 L126.98114,86.8275571 L125.317474,88.5432313 C108.911171,105.458329 98.7500134,126.336392 95.9089844,148.905965 L95.6530359,151.032434 L83.546669,151.032434 C63.8130349,151.032434 38.4741275,160.794862 24.5505258,173.72283 L4.66332262,192.087793 C1.64312961,194.866702 0.00505882353,198.51553 0.00505882353,202.381838 C0.00505882353,206.296475 1.61753475,209.945303 4.5609432,212.675883 C10.9596572,218.378687 20.8648665,218.402852 27.2635805,212.748376 L47.2275682,194.31092 C55.264353,186.892441 72.2849323,180.368047 83.6490484,180.368047 L95.4226822,180.368047 L95.4226822,209.631165 L83.6490484,209.631165 C63.9154144,209.631165 38.5765069,219.369429 24.6529052,232.297396 L4.76570205,250.759017 C1.77110389,253.465432 0.00505882353,257.33174 0.00505882353,261.14972 C0.00505882353,265.088521 1.71991418,268.9065 4.74010719,271.612916 C11.0620366,277.194898 20.9672459,277.194898 27.2635805,271.588751 L47.3043528,253.175459 C55.3667324,245.732816 72.3873117,239.25675 83.7514278,239.25675 L95.5506564,239.25675 L95.5506564,268.495705 L83.7514278,268.495705 C64.0433886,268.495705 38.6788863,278.233968 24.7552846,291.161936 L4.86808147,309.430241 C1.8222936,312.257479 0.209817672,315.882142 0.209817672,319.845108 C0.209817672,323.759745 1.8222936,327.408573 4.76570205,330.114989 C11.2412006,335.841957 21.1720048,335.866122 27.4683394,330.259975 L47.4067322,311.870848 C55.443517,304.428205 72.4896911,297.90381 83.8538072,297.90381 L97.8285986,297.90381 L98.3149009,299.716142 C104.585641,321.971577 122.655609,348.624938 152.064099,378.951292 C162.55799,389.728625 180.013681,406.595394 203.612139,425.661125 L204.763907,426.579374 C210.625129,431.218943 220.044036,431.049792 225.495741,426.651867 C234.812268,419.330046 316.792592,353.723632 332.021531,299.8128 L332.533429,298.000468 L346.380246,298.000468 C357.616387,298.000468 374.662562,304.524863 382.801726,311.943341 L402.714524,330.308304 C409.062048,335.793629 419.018447,335.769464 425.340377,330.332469 L425.340377,330.332469 Z" id="Fill-1"></path>
        </g>
    </g>
</svg>