<svg width="24" height="24" viewBox="0 0 24 24" fill="none" xmlns="http://www.w3.org/2000/svg">
<g id="Icons" clip-path="url(#clip0_2576_95460)">
<g id="Layer 8">
<path id="Vector" d="M8.7 21.345H3.78C3.17256 21.3371 2.59268 21.0903 2.16594 20.6579C1.7392 20.2256 1.49995 19.6425 1.5 19.035V7.50002C1.50094 7.17877 1.56801 6.86116 1.69705 6.56697C1.82608 6.27277 2.0143 6.0083 2.25 5.79002L6.36 2.02502C6.77001 1.64864 7.30353 1.43523 7.86 1.42502H16.215C16.825 1.42898 17.4088 1.6741 17.8387 2.10688C18.2687 2.53966 18.51 3.12496 18.51 3.73502V6.63002C18.51 6.86871 18.4152 7.09763 18.2464 7.26641C18.0776 7.4352 17.8487 7.53002 17.61 7.53002C17.3713 7.53002 17.1424 7.4352 16.9736 7.26641C16.8048 7.09763 16.71 6.86871 16.71 6.63002V3.76502C16.71 3.62976 16.6563 3.50004 16.5606 3.40439C16.465 3.30875 16.3353 3.25502 16.2 3.25502H7.86C7.73475 3.25494 7.61317 3.29724 7.515 3.37502L3.435 7.12502C3.33288 7.22349 3.27361 7.3582 3.27 7.50002V19.035C3.27 19.1703 3.32373 19.3 3.41938 19.3956C3.51502 19.4913 3.64474 19.545 3.78 19.545H8.7C8.93869 19.545 9.16761 19.6398 9.3364 19.8086C9.50518 19.9774 9.6 20.2063 9.6 20.445C9.6 20.6837 9.50518 20.9126 9.3364 21.0814C9.16761 21.2502 8.93869 21.345 8.7 21.345Z" fill="#4A5868"/>
<path id="Vector_2" d="M20.745 21.78H12.66C12.4066 21.7822 12.1556 21.7312 11.9231 21.6305C11.6905 21.5297 11.4817 21.3814 11.31 21.195C11.1481 21.0158 11.0268 20.8037 10.9544 20.5733C10.8819 20.343 10.8599 20.0997 10.89 19.86L11.58 13.5C11.645 13.0788 11.8598 12.6951 12.185 12.4196C12.5101 12.144 12.9238 11.995 13.35 12H20.22C20.6479 11.9945 21.0636 12.143 21.3912 12.4183C21.7189 12.6937 21.9367 13.0775 22.005 13.5L22.125 14.565L22.5 19.965C22.5173 20.1984 22.4848 20.4327 22.4046 20.6525C22.3245 20.8724 22.1985 21.0726 22.035 21.24C21.8708 21.4166 21.6707 21.5561 21.4483 21.6493C21.2258 21.7424 20.9861 21.787 20.745 21.78ZM20.205 13.74H13.35L12.675 20.025L16.365 19.935H20.745L20.205 13.74Z" fill="#FFA800"/>
<path id="Vector_3" d="M18.555 13.7849C18.3163 13.7849 18.0874 13.6901 17.9186 13.5213C17.7498 13.3526 17.655 13.1236 17.655 12.8849V11.8649C17.6274 11.6558 17.5246 11.4638 17.366 11.3247C17.2073 11.1856 17.0035 11.1089 16.7925 11.1089C16.5815 11.1089 16.3777 11.1856 16.219 11.3247C16.0604 11.4638 15.9576 11.6558 15.93 11.8649V12.8849C15.93 13.1236 15.8352 13.3526 15.6664 13.5213C15.4976 13.6901 15.2687 13.7849 15.03 13.7849C14.7913 13.7849 14.5624 13.6901 14.3936 13.5213C14.2248 13.3526 14.13 13.1236 14.13 12.8849V11.8649C14.1805 11.1933 14.4829 10.5656 14.9766 10.1075C15.4704 9.64946 16.119 9.39493 16.7925 9.39493C17.466 9.39493 18.1146 9.64946 18.6084 10.1075C19.1022 10.5656 19.4046 11.1933 19.455 11.8649V12.8849C19.455 13.1236 19.3602 13.3526 19.1914 13.5213C19.0226 13.6901 18.7937 13.7849 18.555 13.7849Z" fill="#FFA800"/>
<path id="Vector_4" d="M13.68 8.71495H5.99998C5.76128 8.71495 5.53236 8.62013 5.36358 8.45134C5.1948 8.28256 5.09998 8.05364 5.09998 7.81495C5.09998 7.57625 5.1948 7.34733 5.36358 7.17855C5.53236 7.00977 5.76128 6.91495 5.99998 6.91495H13.68C13.9187 6.91495 14.1476 7.00977 14.3164 7.17855C14.4852 7.34733 14.58 7.57625 14.58 7.81495C14.58 8.05364 14.4852 8.28256 14.3164 8.45134C14.1476 8.62013 13.9187 8.71495 13.68 8.71495Z" fill="#4A5868"/>
<path id="Vector_5" d="M9.26998 12H5.99998C5.76128 12 5.53236 11.9051 5.36358 11.7363C5.1948 11.5676 5.09998 11.3386 5.09998 11.1C5.09998 10.8613 5.1948 10.6323 5.36358 10.4636C5.53236 10.2948 5.76128 10.2 5.99998 10.2H9.26998C9.50867 10.2 9.73759 10.2948 9.90637 10.4636C10.0752 10.6323 10.17 10.8613 10.17 11.1C10.17 11.3386 10.0752 11.5676 9.90637 11.7363C9.73759 11.9051 9.50867 12 9.26998 12Z" fill="#4A5868"/>
</g>
</g>
<defs>
<clipPath id="clip0_2576_95460">
<rect width="24" height="24" fill="white"/>
</clipPath>
</defs>
</svg>
