<svg width="16" height="16" viewBox="0 0 16 16" fill="none" xmlns="http://www.w3.org/2000/svg">
<path fill-rule="evenodd" clip-rule="evenodd" d="M9.68393 1C9.95135 1 10.2164 1.08361 10.4272 1.235L12.5752 3.13536C12.797 3.33271 12.937 3.59934 12.9676 3.88331L12.9747 9.21832H14.37C14.7176 9.21832 15 9.48948 15 9.82165V14.3974C15 14.7296 14.7176 15 14.37 15H1.62764C1.28157 15 1 14.7296 1 14.3974V9.82165C1 9.48948 1.28157 9.21832 1.62764 9.21832H3.04494V2.19535C3.04494 1.57621 3.52944 1.06402 4.16966 1.00527L9.68393 1ZM3.2927 10.2547H2.07989V13.9643H13.917V10.2547H12.7742L10.413 11.7627C10.2227 11.8847 10.0001 11.9495 9.76966 11.9495H6.27674C6.04472 11.9495 5.82135 11.884 5.62944 11.7597L3.31236 10.2676L3.2927 10.2547ZM9.22618 2.03567H4.29315C4.22551 2.03567 4.16494 2.07408 4.13506 2.14715L4.12562 9.54371L6.2327 10.901L6.25315 10.9131H9.79326L11.8917 9.57309V5.05531L10.476 5.05606C9.82944 5.05606 9.29539 4.59133 9.23405 3.97821L9.22618 2.03567ZM10.217 8.08898C10.5157 8.08898 10.7585 8.32153 10.7585 8.60767C10.7585 8.86589 10.5575 9.08786 10.2951 9.12183L5.78376 9.12712C5.48427 9.12712 5.24153 8.89382 5.24153 8.60767C5.24153 8.34946 5.4425 8.12824 5.70337 8.09351L5.78376 8.08898H10.217ZM10.217 5.98305C10.5157 5.98305 10.7585 6.21635 10.7585 6.50174C10.7585 6.75995 10.5575 6.98117 10.2951 7.01666L5.78376 7.02119C5.48427 7.02119 5.24153 6.78789 5.24153 6.50174C5.24153 6.24353 5.4425 6.02231 5.70337 5.98758L5.78376 5.98305H10.217ZM10.3084 2.53204L10.31 3.85996C10.31 3.92549 10.3501 3.98348 10.4256 4.0121L10.476 4.02039L11.9821 4.01888L10.3084 2.53204Z" fill="#3B4854"/>
</svg>
