<svg width="24" height="24" viewBox="0 0 24 24" fill="none" xmlns="http://www.w3.org/2000/svg">
<g id="Icons" clip-path="url(#clip0_2576_95461)">
<g id="Layer 8">
<path id="Vector" d="M7.59 22.5H3.9C3.26348 22.5 2.65303 22.2471 2.20294 21.797C1.75286 21.3469 1.5 20.7365 1.5 20.1V7.88997C1.50011 7.55697 1.56951 7.22764 1.70379 6.92291C1.83808 6.61819 2.03431 6.34475 2.28 6.11997L6.645 2.11497C7.08957 1.71538 7.66726 1.49607 8.265 1.49997H17.07C17.3895 1.49391 17.707 1.55213 18.0036 1.67116C18.3001 1.79019 18.5697 1.96761 18.7964 2.19288C19.0231 2.41815 19.2022 2.68667 19.323 2.9825C19.4439 3.27833 19.5041 3.59543 19.5 3.91497V8.17497C19.5 8.41367 19.4052 8.64258 19.2364 8.81137C19.0676 8.98015 18.8387 9.07497 18.6 9.07497C18.3613 9.07497 18.1324 8.98015 17.9636 8.81137C17.7948 8.64258 17.7 8.41367 17.7 8.17497V3.91497C17.6962 3.76102 17.6333 3.61442 17.5244 3.50552C17.4156 3.39663 17.269 3.33377 17.115 3.32997H8.31C8.16321 3.33918 8.02237 3.39134 7.905 3.47997L3.495 7.49997C3.37328 7.61844 3.30321 7.78015 3.3 7.94997V20.1C3.3 20.2591 3.36321 20.4117 3.47574 20.5242C3.58826 20.6368 3.74087 20.7 3.9 20.7H7.59C7.70819 20.7 7.82522 20.7232 7.93441 20.7685C8.04361 20.8137 8.14282 20.88 8.2264 20.9636C8.30997 21.0471 8.37626 21.1464 8.42149 21.2556C8.46672 21.3647 8.49 21.4818 8.49 21.6C8.49 21.7182 8.46672 21.8352 8.42149 21.9444C8.37626 22.0536 8.30997 22.1528 8.2264 22.2364C8.14282 22.3199 8.04361 22.3862 7.93441 22.4315C7.82522 22.4767 7.70819 22.5 7.59 22.5Z" fill="#4A5868"/>
<path id="Vector_2" d="M19.725 22.53C20.3463 22.53 20.85 22.0263 20.85 21.405C20.85 20.7836 20.3463 20.28 19.725 20.28C19.1037 20.28 18.6 20.7836 18.6 21.405C18.6 22.0263 19.1037 22.53 19.725 22.53Z" fill="#FFA800"/>
<path id="Vector_3" d="M15.03 22.53C15.6513 22.53 16.155 22.0263 16.155 21.405C16.155 20.7836 15.6513 20.28 15.03 20.28C14.4086 20.28 13.905 20.7836 13.905 21.405C13.905 22.0263 14.4086 22.53 15.03 22.53Z" fill="#FFA800"/>
<path id="Vector_4" d="M20.115 19.5H15.27C15.0804 19.5026 14.895 19.4442 14.7411 19.3335C14.5871 19.2228 14.4728 19.0656 14.415 18.885L12.915 14.61C12.8706 14.4724 12.8583 14.3266 12.8791 14.1835C12.8999 14.0405 12.9532 13.9042 13.035 13.785C13.1187 13.6684 13.2291 13.5735 13.357 13.5083C13.4849 13.443 13.6265 13.4093 13.77 13.41H21.6C21.744 13.4068 21.8865 13.4393 22.0148 13.5048C22.1431 13.5702 22.2531 13.6665 22.335 13.785C22.4168 13.9042 22.4701 14.0405 22.4909 14.1835C22.5117 14.3266 22.4994 14.4724 22.455 14.61L20.955 18.885C20.8979 19.0631 20.7859 19.2186 20.635 19.3291C20.4841 19.4395 20.302 19.4994 20.115 19.5ZM15.9 17.7H19.5L20.37 15.21H15L15.9 17.7Z" fill="#FFA800"/>
<path id="Vector_5" d="M13.815 15.315C13.6283 15.3142 13.4463 15.2562 13.2935 15.149C13.1407 15.0417 13.0243 14.8903 12.96 14.715L12.255 12.645C12.2118 12.5292 12.1338 12.4296 12.0318 12.3598C11.9297 12.29 11.8086 12.2534 11.685 12.255H11.355C11.1163 12.255 10.8874 12.1602 10.7186 11.9914C10.5498 11.8226 10.455 11.5937 10.455 11.355C10.455 11.1163 10.5498 10.8874 10.7186 10.7186C10.8874 10.5498 11.1163 10.455 11.355 10.455H11.685C12.1751 10.4504 12.6549 10.596 13.0599 10.8722C13.4648 11.1484 13.7754 11.542 13.95 12L14.67 14.055C14.7464 14.2838 14.7294 14.5335 14.6227 14.7498C14.5159 14.9661 14.3281 15.1315 14.1 15.21C14.0113 15.2601 13.9151 15.2956 13.815 15.315Z" fill="#FFA800"/>
</g>
</g>
<defs>
<clipPath id="clip0_2576_95461">
<rect width="24" height="24" fill="white"/>
</clipPath>
</defs>
</svg>
