<svg width="16" height="16" viewBox="0 0 16 16" fill="none" xmlns="http://www.w3.org/2000/svg">
<path fill-rule="evenodd" clip-rule="evenodd" d="M11.9272 2.02672V6.06251H12.9609V1.51317C12.9609 1.23076 12.7316 1.00054 12.4482 1.00054H6.01712C5.9323 0.996812 5.85774 1.01266 5.78504 1.03969C5.75428 1.06019 5.70581 1.0984 5.66201 1.14408L2.15472 4.65043C2.10719 4.6989 2.07084 4.75482 2.0466 4.81633C2.01584 4.88531 2.00093 4.95241 2 5.01952V14.4872C2 14.7706 2.23022 14.9999 2.51263 14.9999H9.14879C9.4312 14.9999 9.66048 14.7706 9.66048 14.4872C9.66048 14.2058 9.4312 13.9755 9.14879 13.9755H3.02618V5.53121H6.01712C6.29953 5.53121 6.52974 5.30007 6.52974 5.01766V2.02672H11.9272ZM3.75038 4.50503H5.50449V2.75092L3.75038 4.50503Z" fill="#3B4854"/>
<path d="M7.31611 8.20405H4.98599C4.70358 8.20405 4.47337 7.97383 4.47337 7.69142C4.47337 7.40901 4.70358 7.1788 4.98599 7.1788H7.31611C7.59852 7.1788 7.82873 7.40901 7.82873 7.69142C7.82873 7.97383 7.59852 8.20405 7.31611 8.20405Z" fill="#3B4854"/>
<path d="M4.98599 10.5337H8.24815C8.53056 10.5337 8.76078 10.3044 8.76078 10.022C8.76078 9.73865 8.53056 9.50844 8.24815 9.50844H4.98599C4.70358 9.50844 4.47337 9.73865 4.47337 10.022C4.47337 10.3044 4.70358 10.5337 4.98599 10.5337Z" fill="#3B4854"/>
<path d="M7.31611 12.8638H4.98599C4.70358 12.8638 4.47337 12.6345 4.47337 12.3521C4.47337 12.0688 4.70358 11.8386 4.98599 11.8386H7.31611C7.59852 11.8386 7.82873 12.0688 7.82873 12.3521C7.82873 12.6345 7.59852 12.8638 7.31611 12.8638Z" fill="#3B4854"/>
<path d="M11.9519 7.71535V7.45535C11.9519 7.1348 12.2113 6.875 12.5322 6.875C12.853 6.875 13.1126 7.1348 13.1126 7.45535V7.71535C13.8071 7.87224 14.4267 8.31293 14.63 9.03934C14.745 9.33958 14.5577 9.71952 14.2491 9.80696C13.9406 9.8946 13.5761 9.67 13.5177 9.3537C13.4262 9.02716 13.0822 8.80952 12.5322 8.80952C12.2158 8.80952 11.9699 8.90547 11.8128 9.03934C11.6559 9.17302 11.571 9.33242 11.571 9.58333C11.5731 9.95046 12.0709 10.1384 12.5124 10.305C12.5969 10.3369 12.6794 10.3681 12.7559 10.3995C12.8532 10.44 12.9564 10.4776 13.0635 10.5166C13.3305 10.6138 13.6214 10.7197 13.9046 10.9011C14.3014 11.1555 14.6542 11.6717 14.6542 12.2917C14.6542 12.8612 14.4041 13.3802 14.0073 13.7184C13.7533 13.935 13.444 14.0815 13.1126 14.1598V14.4196C13.1126 14.7402 12.853 15 12.5322 15C12.2113 15 11.9519 14.7402 11.9519 14.4196V14.1598C11.2574 14.0028 10.6438 13.5621 10.4404 12.8357C10.3253 12.5356 10.513 12.1555 10.8214 12.068C11.1297 11.9806 11.4884 12.2052 11.5468 12.5213C11.6381 12.8478 11.9823 13.0655 12.5322 13.0655C12.8487 13.0655 13.0946 12.9635 13.2517 12.8297C13.4086 12.696 13.4935 12.5426 13.4935 12.2917C13.4912 11.9182 12.993 11.7302 12.5499 11.563C12.4663 11.5315 12.3846 11.5007 12.3086 11.4695C12.2128 11.4297 12.1118 11.3926 12.0073 11.3543C11.7406 11.2566 11.451 11.1504 11.1661 10.9677C10.7691 10.7133 10.4163 10.2033 10.4163 9.58333C10.4163 9.014 10.6664 8.49497 11.0632 8.15662C11.3172 7.94015 11.6205 7.79351 11.9519 7.71535Z" fill="#3B4854"/>
</svg>
