<svg width="24" height="24" viewBox="0 0 24 24" fill="none" xmlns="http://www.w3.org/2000/svg">
<g id="Icons" clip-path="url(#clip0_2576_95462)">
<g id="Layer 8">
<path id="Vector" d="M12.885 21.39C12.5563 21.3903 12.2288 21.35 11.91 21.27L4.57502 18.87C4.44712 18.8643 4.3223 18.8289 4.21045 18.7666C4.0986 18.7043 4.00278 18.6168 3.93058 18.5111C3.85837 18.4054 3.81176 18.2843 3.79444 18.1574C3.77711 18.0306 3.78955 17.9014 3.83076 17.7802C3.87197 17.659 3.94083 17.5491 4.03189 17.4591C4.12294 17.3691 4.23369 17.3015 4.35537 17.2617C4.47706 17.2219 4.60633 17.2109 4.73297 17.2297C4.85961 17.2485 4.98014 17.2966 5.08502 17.37L12.36 19.755C12.6593 19.8389 12.9758 19.8389 13.275 19.755C13.6332 19.4817 13.9739 19.1861 14.295 18.87L14.745 18.45C15.4418 17.8331 16.1029 17.1771 16.725 16.485L17.025 16.185C17.2369 16.0028 17.4147 15.7844 17.55 15.54C17.2338 15.2703 16.8801 15.048 16.5 14.88C15.93 14.61 15.345 14.385 14.745 14.16L13.5 13.71L12.27 13.275C11.94 13.155 11.58 13.035 11.235 12.87C10.6479 13.6074 9.9952 14.2902 9.28502 14.91C8.9638 15.1582 8.58645 15.3236 8.18623 15.3916C7.78601 15.4597 7.37521 15.4282 6.99002 15.3C6.57723 15.2208 6.20704 14.995 5.94785 14.6641C5.68867 14.3332 5.55801 13.9197 5.58002 13.5C5.6598 13.1937 5.80287 12.9076 6.00002 12.66C6.49502 11.895 7.00502 11.16 7.50002 10.38C7.99502 9.59998 8.28002 9.29998 8.68502 8.78998L9.79502 7.28998C10.036 6.98605 10.3586 6.7571 10.725 6.62998H10.98L18.72 6.44998C18.9388 6.44998 19.1487 6.5369 19.3034 6.69162C19.4581 6.84634 19.545 7.05618 19.545 7.27498C19.545 7.49378 19.4581 7.70363 19.3034 7.85834C19.1487 8.01306 18.9388 8.09998 18.72 8.09998L11.145 8.27998L11.055 8.35498L9.94502 9.85498C9.55502 10.335 9.18002 10.83 8.82002 11.355C8.46002 11.88 7.81502 12.855 7.32002 13.59V13.68L7.47002 13.755C7.59263 13.8194 7.72904 13.853 7.86752 13.853C8.006 13.853 8.14241 13.8194 8.26502 13.755C9.03768 13.0053 9.74057 12.1869 10.365 11.31C10.4997 11.1493 10.6887 11.0438 10.8961 11.0134C11.1035 10.983 11.3149 11.0298 11.49 11.145C11.9031 11.3817 12.3407 11.5728 12.795 11.715L14.04 12.15L15.345 12.615C15.975 12.855 16.62 13.095 17.235 13.38C17.7576 13.5971 18.2394 13.9014 18.66 14.28C18.8268 14.4328 18.9608 14.6181 19.0536 14.8244C19.1464 15.0307 19.1963 15.2538 19.2 15.48C19.161 15.8319 19.052 16.1724 18.8794 16.4815C18.7068 16.7906 18.4741 17.0621 18.195 17.28C18.1072 17.3573 18.0269 17.4427 17.955 17.535C17.295 18.255 16.59 18.945 15.855 19.605L15.435 19.995C15.0548 20.3681 14.6488 20.7139 14.22 21.03C13.8222 21.2835 13.3563 21.4091 12.885 21.39Z" fill="#4A5868"/>
<path id="Vector_2" d="M5.31003 10.395C5.09123 10.395 4.88139 10.3081 4.72667 10.1534C4.57195 9.99865 4.48503 9.7888 4.48503 9.57C4.48503 9.3512 4.57195 9.14136 4.72667 8.98664C4.88139 8.83192 5.09123 8.745 5.31003 8.745L9.00003 8.58C9.10859 8.56951 9.21813 8.58191 9.3216 8.61638C9.42507 8.65086 9.52016 8.70665 9.60073 8.78015C9.6813 8.85365 9.74556 8.94323 9.78936 9.04311C9.83317 9.14299 9.85554 9.25094 9.85503 9.36C9.86336 9.57789 9.78664 9.79049 9.64108 9.95284C9.49552 10.1152 9.29254 10.2146 9.07503 10.23L5.28003 10.395H5.31003Z" fill="#4A5868"/>
<path id="Vector_3" d="M11.01 12.66C10.822 12.6462 10.6433 12.5726 10.5 12.45C10.421 12.3744 10.3582 12.2836 10.3153 12.1831C10.2724 12.0825 10.2502 11.9744 10.2502 11.865C10.2502 11.7557 10.2724 11.6475 10.3153 11.547C10.3582 11.4465 10.421 11.3557 10.5 11.28L12 9.67504C12.0767 9.59794 12.1678 9.53676 12.2682 9.49501C12.3686 9.45326 12.4763 9.43176 12.585 9.43176C12.6937 9.43176 12.8014 9.45326 12.9018 9.49501C13.0022 9.53676 13.0933 9.59794 13.17 9.67504C13.3221 9.83179 13.4072 10.0416 13.4072 10.26C13.4072 10.4785 13.3221 10.6883 13.17 10.845L11.625 12.375C11.5498 12.4649 11.4557 12.5371 11.3494 12.5864C11.2431 12.6356 11.1272 12.6608 11.01 12.66Z" fill="#4A5868"/>
<path id="Vector_4" d="M4.66501 19.29H2.35501C2.23838 19.2911 2.12268 19.2691 2.01456 19.2254C1.90644 19.1816 1.80804 19.1169 1.72501 19.035C1.57347 18.8548 1.49339 18.6253 1.50001 18.39V8.99998C1.49971 8.8799 1.52344 8.76097 1.56981 8.65019C1.61618 8.53942 1.68425 8.43905 1.77001 8.35499C1.85304 8.27306 1.95144 8.20836 2.05956 8.1646C2.16768 8.12083 2.28338 8.09888 2.40001 8.09999H4.66501C4.78251 8.09997 4.89883 8.12335 5.00719 8.16876C5.11555 8.21417 5.21379 8.2807 5.29617 8.36448C5.37855 8.44825 5.44342 8.54759 5.487 8.6567C5.53058 8.76581 5.552 8.88251 5.55001 8.99998V18.345C5.5542 18.4643 5.53379 18.5832 5.49004 18.6943C5.4463 18.8054 5.38016 18.9063 5.29573 18.9907C5.21131 19.0751 5.11041 19.1413 4.99932 19.185C4.88824 19.2288 4.76933 19.2492 4.65001 19.245L4.66501 19.29ZM3.25501 17.49H3.76501V9.98998H3.27001L3.25501 17.49Z" fill="#FFA800"/>
<path id="Vector_5" d="M14.685 19.8901C14.5711 19.9127 14.4539 19.9127 14.34 19.8901C13.3126 19.4469 12.311 18.9461 11.34 18.3901C11.1799 18.2604 11.0741 18.0757 11.0434 17.872C11.0127 17.6684 11.0592 17.4606 11.1739 17.2895C11.2886 17.1185 11.4631 16.9965 11.6631 16.9475C11.8632 16.8986 12.0743 16.9262 12.255 17.0251C12.465 17.1451 13.755 17.7601 15.015 18.3151C15.1527 18.4074 15.2594 18.539 15.3211 18.6929C15.3829 18.8467 15.3969 19.0156 15.3613 19.1775C15.3257 19.3394 15.2421 19.4869 15.1214 19.6006C15.0008 19.7143 14.8487 19.789 14.685 19.8151V19.8901Z" fill="#4A5868"/>
<path id="Vector_6" d="M16.635 18C16.5268 18.0279 16.4132 18.0279 16.305 18C13.485 16.725 13.38 16.65 13.305 16.59C13.1332 16.4564 13.02 16.2613 12.9892 16.0458C12.9585 15.8304 13.0125 15.6114 13.14 15.435C13.2632 15.2694 13.4439 15.1559 13.6466 15.117C13.8494 15.0782 14.0593 15.1167 14.235 15.225L16.995 16.5C17.194 16.5917 17.3493 16.7575 17.4277 16.9621C17.5062 17.1666 17.5016 17.3938 17.415 17.595C17.3338 17.7268 17.2184 17.8341 17.081 17.9054C16.9436 17.9767 16.7895 18.0094 16.635 18Z" fill="#4A5868"/>
<path id="Vector_7" d="M21.645 16.5H19.5C19.3924 16.502 19.2854 16.4825 19.1854 16.4427C19.0854 16.4029 18.9944 16.3436 18.9175 16.2681C18.8407 16.1927 18.7797 16.1028 18.7381 16.0035C18.6964 15.9042 18.675 15.7977 18.675 15.69V5.91002C18.675 5.80168 18.6964 5.6944 18.7378 5.59431C18.7793 5.49421 18.84 5.40327 18.9167 5.32666C18.9933 5.25005 19.0842 5.18928 19.1843 5.14782C19.2844 5.10636 19.3917 5.08502 19.5 5.08502H21.66C21.8788 5.08502 22.0887 5.17194 22.2434 5.32666C22.3981 5.48138 22.485 5.69122 22.485 5.91002V15.63C22.4936 15.7439 22.4779 15.8583 22.4392 15.9657C22.4004 16.0731 22.3393 16.1711 22.26 16.2533C22.1807 16.3354 22.0849 16.3999 21.9789 16.4424C21.8729 16.4849 21.7591 16.5046 21.645 16.5ZM20.31 14.865H20.82V6.73502H20.31V14.865Z" fill="#4A5868"/>
</g>
</g>
<defs>
<clipPath id="clip0_2576_95462">
<rect width="24" height="24" fill="white"/>
</clipPath>
</defs>
</svg>
