<?xml version="1.0" encoding="UTF-8"?>
<svg width="512px" height="512px" viewBox="0 0 512 512" version="1.1" xmlns="http://www.w3.org/2000/svg" xmlns:xlink="http://www.w3.org/1999/xlink">
    <!-- Generator: Sketch 59.1 (86144) - https://sketch.com -->
    <title>release</title>
    <desc>Created with Sketch.</desc>
    <g id="Page-3" stroke="none" stroke-width="1" fill="none" fill-rule="evenodd">
        <path d="M256,41 C374.743982,41 471,137.256018 471,256 C471,374.743982 374.743982,471 256,471 C137.256018,471 41,374.743982 41,256 C41,137.256018 137.256018,41 256,41 Z M256,72.9909046 C207.448578,72.8971554 160.873085,92.1859956 126.623632,126.623632 C92.2800875,160.967177 72.9912473,207.54267 72.9912473,256.094092 C73.0853392,357.148796 155.039387,439.008753 256.094092,439.008753 C357.148796,439.008753 439.196937,356.960613 439.102925,255.905908 C439.008753,154.851204 357.054705,72.9909046 256,72.9909046 Z M289.214442,112.980306 C291.09628,112.980306 293.07221,113.262582 294.954048,113.827133 C304.269147,116.838074 309.444201,126.717724 306.527352,136.032823 L306.527352,136.032823 L283.568928,211.870897 L325.533917,211.870897 C329.203501,211.870897 332.684902,213 335.601751,215.070022 C343.599562,220.621444 345.575492,231.724289 340.02407,239.722101 L340.02407,239.722101 L339.929978,239.910284 L229.277899,392.43326 C225.890591,397.231947 220.43326,399.960613 214.787746,399.960613 C212.717724,399.960613 210.647702,399.678337 208.671772,398.925602 C204.249453,397.231947 200.673961,394.032823 198.698031,389.704595 C196.722101,385.47046 196.533917,380.765864 198.039387,376.343545 L198.039387,376.343545 L223.161926,301.164114 L181.949672,301.164114 C178.185996,301.164114 174.704595,300.035011 171.787746,297.964989 C167.835886,295.236324 165.295405,291.190372 164.448578,286.485777 C163.601751,281.781182 164.636761,277.076586 167.365427,273.218818 L167.365427,273.218818 L275.382932,120.225383 C278.487965,116.085339 283.286652,113.450766 288.461707,112.980306 L288.461707,112.980306 Z M273.595186,163.507659 L193.052516,277.547046 L255.623632,277.547046 L232.006565,348.398249 L314.148796,235.393873 L251.859956,235.393873 L273.595186,163.507659 Z" id="Combined-Shape" fill="#000000" fill-rule="nonzero"></path>
    </g>
</svg>