<svg width="24" height="24" viewBox="0 0 24 24" fill="none" xmlns="http://www.w3.org/2000/svg">
<g id="Icons" clip-path="url(#clip0_2576_95416)">
<g id="Layer 8">
<path id="Vector" d="M16.5 22.5C15.3133 22.5 14.1533 22.1481 13.1666 21.4888C12.1799 20.8295 11.4109 19.8925 10.9567 18.7961C10.5026 17.6997 10.3838 16.4933 10.6153 15.3295C10.8468 14.1656 11.4182 13.0965 12.2574 12.2574C13.0965 11.4182 14.1656 10.8468 15.3295 10.6153C16.4933 10.3838 17.6997 10.5026 18.7961 10.9567C19.8925 11.4109 20.8295 12.1799 21.4888 13.1666C22.1481 14.1533 22.5 15.3133 22.5 16.5C22.5 18.0913 21.8679 19.6174 20.7426 20.7426C19.6174 21.8679 18.0913 22.5 16.5 22.5ZM16.5 12.3C15.6693 12.3 14.8573 12.5463 14.1666 13.0078C13.4759 13.4693 12.9376 14.1253 12.6197 14.8927C12.3018 15.6602 12.2186 16.5047 12.3807 17.3194C12.5428 18.1341 12.9428 18.8825 13.5302 19.4699C14.1175 20.0572 14.8659 20.4572 15.6806 20.6193C16.4953 20.7814 17.3398 20.6982 18.1073 20.3803C18.8747 20.0624 19.5307 19.5241 19.9922 18.8334C20.4537 18.1427 20.7 17.3307 20.7 16.5C20.6961 15.3873 20.2523 14.3213 19.4655 13.5345C18.6787 12.7477 17.6127 12.304 16.5 12.3Z" fill="#45A4EC"/>
<path id="Vector_2" d="M16.5 19.65C16.2613 19.65 16.0324 19.5552 15.8636 19.3864C15.6948 19.2176 15.6 18.9887 15.6 18.75V14.34C15.6152 14.1119 15.7167 13.8981 15.8839 13.7421C16.051 13.586 16.2713 13.4995 16.5 13.5C16.7387 13.5 16.9676 13.5948 17.1364 13.7636C17.3052 13.9324 17.4 14.1613 17.4 14.4V18.75C17.4 18.9887 17.3052 19.2176 17.1364 19.3864C16.9676 19.5552 16.7387 19.65 16.5 19.65Z" fill="#45A4EC"/>
<path id="Vector_3" d="M7.39497 16.26H3.70497C3.12017 16.26 2.55932 16.0277 2.1458 15.6142C1.73228 15.2006 1.49997 14.6398 1.49997 14.055V12.75C1.49556 11.4815 1.98729 10.2615 2.87013 9.35068C3.75297 8.43981 4.95696 7.91021 6.22497 7.87498C6.3464 7.87154 6.4673 7.89232 6.58061 7.9361C6.69393 7.97989 6.79739 8.04579 6.88497 8.12998C7.42234 8.63736 8.13341 8.92002 8.87247 8.92002C9.61152 8.92002 10.3226 8.63736 10.86 8.12998C10.9423 8.04653 11.0404 7.98027 11.1485 7.93505C11.2567 7.88982 11.3727 7.86653 11.49 7.86653C11.6072 7.86653 11.7233 7.88982 11.8314 7.93505C11.9396 7.98027 12.0376 8.04653 12.12 8.12998C12.2039 8.21359 12.2704 8.31295 12.3159 8.42234C12.3613 8.53174 12.3847 8.64903 12.3847 8.76748C12.3847 8.88593 12.3613 9.00322 12.3159 9.11262C12.2704 9.22201 12.2039 9.32137 12.12 9.40498C11.2989 10.1685 10.2345 10.6173 9.11473 10.6722C7.99492 10.7271 6.89173 10.3845 5.99997 9.70498C5.26824 9.79341 4.59467 10.1481 4.10775 10.7014C3.62083 11.2547 3.35464 11.9679 3.35997 12.705V14.01C3.35997 14.1174 3.40264 14.2204 3.47859 14.2964C3.55454 14.3723 3.65756 14.415 3.76497 14.415H7.39497C7.63366 14.415 7.86258 14.5098 8.03136 14.6786C8.20015 14.8474 8.29497 15.0763 8.29497 15.315C8.29497 15.5537 8.20015 15.7826 8.03136 15.9514C7.86258 16.1202 7.63366 16.215 7.39497 16.215V16.26Z" fill="#4A5868"/>
<path id="Vector_4" d="M8.86498 10.755C7.94827 10.755 7.05214 10.4831 6.28991 9.97385C5.52769 9.46455 4.93361 8.74066 4.5828 7.89373C4.23199 7.04679 4.1402 6.11485 4.31904 5.21574C4.49789 4.31664 4.93933 3.49076 5.58754 2.84255C6.23576 2.19433 7.06164 1.75289 7.96074 1.57405C8.85984 1.39521 9.79178 1.48699 10.6387 1.83781C11.4857 2.18862 12.2095 2.7827 12.7188 3.54492C13.2281 4.30714 13.5 5.20327 13.5 6.11999C13.5 6.72866 13.3801 7.33138 13.1472 7.89373C12.9142 8.45607 12.5728 8.96703 12.1424 9.39743C11.712 9.82783 11.2011 10.1692 10.6387 10.4022C10.0764 10.6351 9.47366 10.755 8.86498 10.755ZM8.86498 3.25499C8.30556 3.25502 7.75864 3.42056 7.2931 3.73077C6.82756 4.04097 6.4642 4.48198 6.24878 4.99826C6.03335 5.51455 5.97548 6.08303 6.08246 6.63213C6.18944 7.18123 6.45648 7.68641 6.84997 8.08406C7.24346 8.48171 7.7458 8.75405 8.29374 8.86681C8.84169 8.97956 9.41074 8.92768 9.92926 8.7177C10.4478 8.50772 10.8926 8.14902 11.2077 7.68677C11.5228 7.22452 11.6941 6.67938 11.7 6.11999C11.696 5.3707 11.3956 4.65346 10.8643 4.12503C10.3331 3.5966 9.61428 3.29998 8.86498 3.29999V3.25499Z" fill="#4A5868"/>
<path id="Vector_5" d="M14.325 17.4C14.0995 17.3811 13.8894 17.2781 13.7366 17.1113C13.5837 16.9445 13.4992 16.7262 13.5 16.5C13.498 16.3825 13.5194 16.2658 13.563 16.1567C13.6066 16.0476 13.6715 15.9483 13.7539 15.8645C13.8362 15.7807 13.9345 15.7142 14.0428 15.6688C14.1512 15.6234 14.2675 15.6 14.385 15.6H18.705C18.9264 15.6226 19.1312 15.7277 19.2785 15.8945C19.4258 16.0613 19.5049 16.2775 19.5 16.5C19.502 16.6175 19.4806 16.7342 19.437 16.8433C19.3934 16.9524 19.3285 17.0517 19.2462 17.1355C19.1638 17.2193 19.0655 17.2858 18.9572 17.3312C18.8488 17.3766 18.7325 17.4 18.615 17.4H14.325Z" fill="#45A4EC"/>
</g>
</g>
<defs>
<clipPath id="clip0_2576_95416">
<rect width="24" height="24" fill="white"/>
</clipPath>
</defs>
</svg>
