<svg width="24" height="24" viewBox="0 0 24 24" fill="none" xmlns="http://www.w3.org/2000/svg">
<g id="Icons">
<g id="Layer 8">
<path id="Vector" d="M20.67 22.5H13.17C12.6886 22.5 12.227 22.3088 11.8866 21.9684C11.5462 21.628 11.355 21.1664 11.355 20.685V19.74C11.3467 18.7567 11.7233 17.8092 12.4045 17.1C13.0856 16.3909 14.0172 15.9763 15 15.945C15.116 15.9384 15.2321 15.9563 15.3406 15.9977C15.4492 16.0391 15.5478 16.1029 15.63 16.185C15.9766 16.5186 16.4389 16.705 16.92 16.705C17.4011 16.705 17.8634 16.5186 18.21 16.185C18.2933 16.1001 18.3943 16.0346 18.5057 15.9931C18.6172 15.9516 18.7365 15.9352 18.855 15.945C19.8338 15.9724 20.7631 16.3816 21.4443 17.0852C22.1254 17.7887 22.5043 18.7308 22.5 19.71V20.655C22.504 20.8971 22.4595 21.1376 22.3692 21.3623C22.2788 21.5869 22.1444 21.7913 21.9739 21.9632C21.8033 22.1351 21.6001 22.2712 21.3762 22.3634C21.1523 22.4556 20.9121 22.502 20.67 22.5ZM14.67 17.745C14.2053 17.8326 13.7859 18.08 13.4845 18.4444C13.1832 18.8088 13.0188 19.2671 13.02 19.74V20.685L20.61 20.76V19.74C20.6147 19.2685 20.4536 18.8103 20.1547 18.4456C19.8558 18.0809 19.4382 17.8329 18.975 17.745C18.3529 18.184 17.609 18.4171 16.8477 18.4117C16.0863 18.4064 15.3458 18.1627 14.73 17.715L14.67 17.745Z" fill="#4A5868"/>
<path id="Vector_2" d="M16.905 18.465C16.196 18.465 15.5028 18.2548 14.9133 17.8608C14.3237 17.4669 13.8642 16.907 13.5929 16.2519C13.3216 15.5969 13.2506 14.876 13.3889 14.1806C13.5272 13.4852 13.8687 12.8464 14.37 12.345C14.8714 11.8437 15.5102 11.5022 16.2056 11.3639C16.901 11.2256 17.6219 11.2966 18.2769 11.5679C18.932 11.8392 19.4919 12.2987 19.8858 12.8883C20.2798 13.4778 20.49 14.171 20.49 14.88C20.49 15.8308 20.1123 16.7427 19.44 17.415C18.7677 18.0873 17.8558 18.465 16.905 18.465ZM16.905 13.05C16.5395 13.05 16.1822 13.1586 15.8784 13.362C15.5747 13.5654 15.3383 13.8545 15.1991 14.1925C15.0599 14.5305 15.0242 14.9022 15.0966 15.2605C15.169 15.6188 15.3463 15.9475 15.6058 16.2049C15.8653 16.4624 16.1955 16.6369 16.5543 16.7064C16.9132 16.7759 17.2847 16.7372 17.6215 16.5952C17.9584 16.4533 18.2455 16.2145 18.4464 15.9091C18.6473 15.6037 18.753 15.2455 18.75 14.88C18.75 14.6384 18.7022 14.3992 18.6093 14.1762C18.5164 13.9532 18.3802 13.7508 18.2087 13.5807C18.0372 13.4105 17.8337 13.2761 17.6099 13.185C17.3862 13.0939 17.1466 13.048 16.905 13.05Z" fill="#4A5868"/>
<path id="Vector_3" d="M10.815 12.645H3.31497C2.83619 12.645 2.3768 12.4559 2.03685 12.1187C1.6969 11.7816 1.50393 11.3238 1.49997 10.845V9.9C1.49584 8.91968 1.87729 7.97704 2.56201 7.27548C3.24674 6.57391 4.17984 6.16968 5.15997 6.15C5.27842 6.14122 5.39737 6.15811 5.50869 6.19954C5.62001 6.24096 5.72107 6.30593 5.80497 6.39C6.14829 6.71825 6.60498 6.90144 7.07997 6.90144C7.55496 6.90144 8.01165 6.71825 8.35497 6.39C8.43763 6.30423 8.53851 6.23813 8.65016 6.19659C8.7618 6.15505 8.88135 6.13913 8.99997 6.15C9.97485 6.17741 10.9003 6.58504 11.5786 7.28577C12.257 7.9865 12.6343 8.92475 12.63 9.9V10.845C12.626 11.3238 12.433 11.7816 12.0931 12.1187C11.7531 12.4559 11.2938 12.645 10.815 12.645ZM4.90497 7.92C4.44427 8.00749 4.02866 8.2533 3.73008 8.61488C3.4315 8.97647 3.26874 9.43107 3.26997 9.9V10.845H10.77V9.84C10.7638 9.3979 10.612 8.97017 10.3381 8.62306C10.0642 8.27596 9.68352 8.02885 9.25497 7.92C8.62621 8.38755 7.86352 8.64004 7.07997 8.64004C6.29643 8.64004 5.53374 8.38755 4.90497 7.92Z" fill="#4A5868"/>
<path id="Vector_4" d="M7.08001 8.67C6.37393 8.67 5.68371 8.46062 5.09663 8.06835C4.50954 7.67607 4.05197 7.11851 3.78176 6.46618C3.51156 5.81385 3.44086 5.09604 3.57861 4.40353C3.71636 3.71102 4.05637 3.0749 4.55564 2.57563C5.05491 2.07636 5.69103 1.73635 6.38354 1.5986C7.07605 1.46085 7.79386 1.53155 8.44619 1.80175C9.09852 2.07196 9.65608 2.52953 10.0484 3.11661C10.4406 3.7037 10.65 4.39392 10.65 5.1C10.6461 6.04561 10.2687 6.95136 9.60002 7.62001C8.93137 8.28866 8.02562 8.66605 7.08001 8.67ZM7.08001 3.27C6.71807 3.27 6.36426 3.37733 6.06332 3.57841C5.76238 3.77949 5.52782 4.0653 5.38931 4.39969C5.2508 4.73408 5.21456 5.10203 5.28517 5.45702C5.35579 5.812 5.53008 6.13808 5.78601 6.39401C6.04194 6.64994 6.36801 6.82423 6.723 6.89484C7.07798 6.96545 7.44593 6.92921 7.78032 6.7907C8.11471 6.65219 8.40052 6.41764 8.6016 6.11669C8.80268 5.81575 8.91001 5.46194 8.91001 5.1C8.91001 4.85968 8.86268 4.62172 8.77071 4.39969C8.67874 4.17766 8.54395 3.97593 8.37402 3.80599C8.20409 3.63606 8.00235 3.50127 7.78032 3.4093C7.5583 3.31733 7.32033 3.27 7.08001 3.27Z" fill="#4A5868"/>
<path id="Vector_5" d="M17.235 9.75002C17.0042 9.75002 16.7829 9.65836 16.6198 9.4952C16.4566 9.33205 16.365 9.11076 16.365 8.88002V6.85502C16.365 6.4572 16.2069 6.07566 15.9256 5.79436C15.6443 5.51306 15.2628 5.35502 14.865 5.35502H13.845C13.6142 5.35502 13.3929 5.26336 13.2298 5.1002C13.0666 4.93705 12.975 4.71576 12.975 4.48502C12.975 4.25428 13.0666 4.03299 13.2298 3.86984C13.3929 3.70668 13.6142 3.61502 13.845 3.61502H15C15.8408 3.61501 16.6474 3.94799 17.2433 4.54111C17.8392 5.13424 18.176 5.93923 18.18 6.78002V8.88002C18.1804 9.00086 18.1557 9.12048 18.1074 9.23124C18.059 9.34199 17.9881 9.44147 17.8992 9.52332C17.8103 9.60517 17.7054 9.6676 17.591 9.70663C17.4766 9.74566 17.3554 9.76044 17.235 9.75002Z" fill="#45A4EC"/>
<path id="Vector_6" d="M17.235 9.77998C17.0043 9.77988 16.7831 9.68816 16.62 9.52498L15.375 8.27998C15.2924 8.20024 15.2268 8.10469 15.1819 7.99903C15.1371 7.89337 15.114 7.77976 15.114 7.66498C15.114 7.5502 15.1371 7.43659 15.1819 7.33093C15.2268 7.22527 15.2924 7.12972 15.375 7.04998C15.54 6.89051 15.7605 6.80138 15.99 6.80138C16.2195 6.80138 16.44 6.89051 16.605 7.04998L17.235 7.67998L17.85 7.04998C18.015 6.89051 18.2355 6.80138 18.465 6.80138C18.6945 6.80138 18.915 6.89051 19.08 7.04998C19.1625 7.12972 19.2282 7.22527 19.2731 7.33093C19.3179 7.43659 19.341 7.5502 19.341 7.66498C19.341 7.77976 19.3179 7.89337 19.2731 7.99903C19.2282 8.10469 19.1625 8.20024 19.08 8.27998L17.85 9.52498C17.6835 9.68296 17.4644 9.77378 17.235 9.77998Z" fill="#45A4EC"/>
<path id="Vector_7" d="M9.39001 19.86H8.31C7.46921 19.86 6.66263 19.527 6.06669 18.9339C5.47076 18.3408 5.13397 17.5358 5.13 16.695V14.67C5.13 14.4392 5.22167 14.218 5.38482 14.0548C5.54798 13.8916 5.76927 13.8 6 13.8C6.23074 13.8 6.45203 13.8916 6.61519 14.0548C6.77834 14.218 6.87 14.4392 6.87 14.67V16.695C6.88926 17.0797 7.05576 17.4422 7.335 17.7075C7.61425 17.9728 7.98484 18.1205 8.37 18.12H9.45001C9.68074 18.12 9.90203 18.2116 10.0652 18.3748C10.2283 18.538 10.32 18.7592 10.32 18.99C10.32 19.2207 10.2283 19.442 10.0652 19.6052C9.90203 19.7683 9.68074 19.86 9.45001 19.86H9.39001Z" fill="#45A4EC"/>
<path id="Vector_8" d="M7.24501 16.74C7.13139 16.7454 7.01791 16.7269 6.91195 16.6855C6.80599 16.6442 6.70992 16.5809 6.63001 16.5L6.00001 15.87L5.38501 16.5C5.30499 16.584 5.20896 16.6512 5.10259 16.6976C4.99622 16.7439 4.88164 16.7685 4.76562 16.7699C4.64959 16.7714 4.53445 16.7495 4.42698 16.7058C4.31951 16.662 4.22188 16.5972 4.13983 16.5152C4.05778 16.4331 3.99297 16.3355 3.94922 16.228C3.90547 16.1206 3.88366 16.0054 3.88507 15.8894C3.88649 15.7734 3.9111 15.6588 3.95746 15.5524C4.00382 15.4461 4.07098 15.35 4.15501 15.27L5.38501 14.04C5.46475 13.9574 5.5603 13.8918 5.66596 13.8469C5.77162 13.8021 5.88523 13.779 6.00001 13.779C6.11479 13.779 6.2284 13.8021 6.33406 13.8469C6.43972 13.8918 6.53527 13.9574 6.61501 14.04L7.86001 15.27C8.01948 15.435 8.10861 15.6555 8.10861 15.885C8.10861 16.1145 8.01948 16.335 7.86001 16.5C7.77902 16.5795 7.68278 16.6417 7.57708 16.683C7.47138 16.7242 7.35842 16.7436 7.24501 16.74Z" fill="#45A4EC"/>
</g>
</g>
</svg>
