<svg id="service-icon" width="25" height="25" viewBox="0 0 25 25" fill="none" xmlns="http://www.w3.org/2000/svg">
  <g clip-path="url(#clip0_207_11)">
    <path class="nav-icons-stroke"
      d="M15.61 12.34C15.61 15.43 14.32 18.16 12.34 19.76C10.37 18.18 9.06 15.45 9.06 12.34C9.06 9.23 10.37 6.5 12.34 4.92C14.31 6.51 15.61 9.24 15.61 12.34Z"
      stroke="#BBDCFE" stroke-width="1.52" stroke-linejoin="round" />
    <path class="nav-icons-stroke"
      d="M19.91 12.34C19.91 14.98 18.56 17.31 16.5 18.67C15.31 19.46 13.88 19.92 12.34 19.92C8.15 19.92 4.76 16.52 4.76 12.34C4.76 8.15999 8.15 4.75999 12.34 4.75999C13.88 4.75999 15.31 5.21999 16.5 6.00999C18.56 7.36999 19.91 9.69999 19.91 12.34Z"
      stroke="#BBDCFE" stroke-width="1.52" stroke-miterlimit="10" />
    <path class="nav-icons-stroke" d="M5.12 9.85001H19.55" stroke="#BBDCFE" stroke-width="1.52" stroke-miterlimit="10" />
    <path class="nav-icons-stroke" d="M5.12 14.83H19.55" stroke="#BBDCFE" stroke-width="1.52" stroke-miterlimit="10" />
  </g>
  <defs>
    <clipPath id="clip0_207_11">
      <rect width="16.67" height="16.68" fill="white" transform="translate(4 4)" />
    </clipPath>
  </defs>
</svg>