<svg width="24" height="24" viewBox="0 0 24 24" fill="none" xmlns="http://www.w3.org/2000/svg">
<g id="Icons" clip-path="url(#clip0_2576_95452)">
<g id="Layer 8">
<path id="Vector" d="M22.5 16.74V16.5L20.475 6.34501C20.3555 5.81871 20.0599 5.34897 19.6371 5.01348C19.2143 4.67799 18.6897 4.49685 18.15 4.50001H5.85C5.311 4.49957 4.78774 4.68172 4.36553 5.01677C3.94331 5.35182 3.64704 5.82001 3.525 6.34501L1.5 16.5V16.68C1.49264 16.7799 1.49264 16.8801 1.5 16.98V19.98C1.47491 20.3046 1.51785 20.6309 1.62606 20.938C1.73428 21.2451 1.90539 21.5262 2.12846 21.7634C2.35152 22.0006 2.62163 22.1886 2.92151 22.3155C3.22139 22.4423 3.54444 22.5052 3.87 22.5H20.13C20.4449 22.5042 20.7574 22.4447 21.0488 22.3251C21.3402 22.2056 21.6045 22.0285 21.8258 21.8044C22.0471 21.5803 22.2209 21.3138 22.3367 21.021C22.4526 20.7281 22.5081 20.4149 22.5 20.1V17.1C22.5106 16.9802 22.5106 16.8598 22.5 16.74ZM5.295 6.69001C5.31932 6.56021 5.38796 6.44288 5.48918 6.35807C5.59041 6.27326 5.71794 6.22623 5.85 6.22501H18.15C18.2821 6.22623 18.4096 6.27326 18.5108 6.35807C18.612 6.44288 18.6807 6.56021 18.705 6.69001L20.205 14.73H15.585C15.4675 14.724 15.35 14.7414 15.2394 14.7813C15.1287 14.8212 15.0272 14.8827 14.9406 14.9623C14.854 15.0419 14.7841 15.138 14.7351 15.2449C14.6861 15.3518 14.6588 15.4675 14.655 15.585C14.6053 16.2372 14.3111 16.8466 13.8314 17.2912C13.3516 17.7358 12.7216 17.9829 12.0675 17.9829C11.4134 17.9829 10.7834 17.7358 10.3036 17.2912C9.82386 16.8466 9.52969 16.2372 9.48 15.585C9.46466 15.4693 9.42621 15.358 9.36694 15.2575C9.30767 15.157 9.22879 15.0694 9.135 15C9.05394 14.9094 8.95447 14.8371 8.84325 14.7879C8.73202 14.7388 8.61159 14.7139 8.49 14.715H3.735L5.295 6.69001ZM20.7 20.1C20.6922 20.2446 20.6283 20.3804 20.5218 20.4785C20.4153 20.5765 20.2747 20.6291 20.13 20.625H3.87C3.72528 20.6291 3.58469 20.5765 3.4782 20.4785C3.37171 20.3804 3.30777 20.2446 3.3 20.1V17.1C3.29108 17.0216 3.29945 16.9422 3.3245 16.8674C3.34956 16.7926 3.3907 16.7242 3.44504 16.667C3.49937 16.6099 3.56558 16.5653 3.63899 16.5364C3.71241 16.5075 3.79126 16.4951 3.87 16.5H7.815C8.07087 17.4316 8.62556 18.2533 9.39383 18.839C10.1621 19.4247 11.1014 19.742 12.0675 19.742C13.0336 19.742 13.9729 19.4247 14.7412 18.839C15.5094 18.2533 16.0641 17.4316 16.32 16.5H20.13C20.2009 16.496 20.272 16.5059 20.339 16.5294C20.4061 16.5529 20.4679 16.5893 20.5209 16.6367C20.5738 16.6841 20.6169 16.7414 20.6476 16.8055C20.6784 16.8696 20.6962 16.9391 20.7 17.01V20.1Z" fill="#4A5868"/>
<path id="Vector_2" d="M22.5 16.74V16.5L20.475 6.34501C20.3555 5.81871 20.0599 5.34897 19.6371 5.01348C19.2143 4.67799 18.6897 4.49685 18.15 4.50001H5.85C5.311 4.49957 4.78774 4.68172 4.36553 5.01677C3.94331 5.35182 3.64704 5.82001 3.525 6.34501L1.5 16.5V16.68C1.49264 16.7799 1.49264 16.8801 1.5 16.98V19.98C1.47491 20.3046 1.51785 20.6309 1.62606 20.938C1.73428 21.2451 1.90539 21.5262 2.12846 21.7634C2.35152 22.0006 2.62163 22.1886 2.92151 22.3155C3.22139 22.4423 3.54444 22.5052 3.87 22.5H20.13C20.4449 22.5042 20.7574 22.4447 21.0488 22.3251C21.3402 22.2056 21.6045 22.0285 21.8258 21.8044C22.0471 21.5803 22.2209 21.3138 22.3367 21.021C22.4526 20.7281 22.5081 20.4149 22.5 20.1V17.1C22.5106 16.9802 22.5106 16.8598 22.5 16.74ZM5.295 6.69001C5.31932 6.56021 5.38796 6.44288 5.48918 6.35807C5.59041 6.27326 5.71794 6.22623 5.85 6.22501H18.15C18.2821 6.22623 18.4096 6.27326 18.5108 6.35807C18.612 6.44288 18.6807 6.56021 18.705 6.69001L20.205 14.73H15.585C15.4675 14.724 15.35 14.7414 15.2394 14.7813C15.1287 14.8212 15.0272 14.8827 14.9406 14.9623C14.854 15.0419 14.7841 15.138 14.7351 15.2449C14.6861 15.3518 14.6588 15.4675 14.655 15.585C14.6053 16.2372 14.3111 16.8466 13.8314 17.2912C13.3516 17.7358 12.7216 17.9829 12.0675 17.9829C11.4134 17.9829 10.7834 17.7358 10.3036 17.2912C9.82386 16.8466 9.52969 16.2372 9.48 15.585C9.46466 15.4693 9.42621 15.358 9.36694 15.2575C9.30767 15.157 9.22879 15.0694 9.135 15C9.05394 14.9094 8.95447 14.8371 8.84325 14.7879C8.73202 14.7388 8.61159 14.7139 8.49 14.715H3.735L5.295 6.69001ZM20.7 20.1C20.6922 20.2446 20.6283 20.3804 20.5218 20.4785C20.4153 20.5765 20.2747 20.6291 20.13 20.625H3.87C3.72528 20.6291 3.58469 20.5765 3.4782 20.4785C3.37171 20.3804 3.30777 20.2446 3.3 20.1V17.1C3.29108 17.0216 3.29945 16.9422 3.3245 16.8674C3.34956 16.7926 3.3907 16.7242 3.44504 16.667C3.49937 16.6099 3.56558 16.5653 3.63899 16.5364C3.71241 16.5075 3.79126 16.4951 3.87 16.5H7.815C8.07087 17.4316 8.62556 18.2533 9.39383 18.839C10.1621 19.4247 11.1014 19.742 12.0675 19.742C13.0336 19.742 13.9729 19.4247 14.7412 18.839C15.5094 18.2533 16.0641 17.4316 16.32 16.5H20.13C20.2009 16.496 20.272 16.5059 20.339 16.5294C20.4061 16.5529 20.4679 16.5893 20.5209 16.6367C20.5738 16.6841 20.6169 16.7414 20.6476 16.8055C20.6784 16.8696 20.6962 16.9391 20.7 17.01V20.1Z" fill="#4A5868"/>
<path id="Vector_3" d="M16.005 7.74C15.7902 7.74 15.5841 7.65466 15.4322 7.50276C15.2803 7.35085 15.195 7.14483 15.195 6.93V4.95H8.72999V6.93C8.72999 7.14483 8.64465 7.35085 8.49274 7.50276C8.34084 7.65466 8.13481 7.74 7.91999 7.74C7.70516 7.74 7.49913 7.65466 7.34723 7.50276C7.19532 7.35085 7.10999 7.14483 7.10999 6.93V4.14C7.10995 3.92377 7.19481 3.71617 7.3463 3.56188C7.49778 3.40759 7.70379 3.31893 7.91999 3.315H16.005C16.2212 3.31893 16.4272 3.40759 16.5787 3.56188C16.7302 3.71617 16.815 3.92377 16.815 4.14V6.93C16.815 7.03637 16.794 7.1417 16.7533 7.23998C16.7126 7.33825 16.653 7.42754 16.5777 7.50276C16.5025 7.57797 16.4132 7.63764 16.315 7.67834C16.2167 7.71905 16.1114 7.74 16.005 7.74Z" fill="#4A5868"/>
<path id="Vector_4" d="M16.815 12.72C16.5988 12.7161 16.3928 12.6274 16.2413 12.4731C16.0898 12.3188 16.005 12.1112 16.005 11.895V8.77498H7.995V11.895C7.995 12.1098 7.90966 12.3158 7.75776 12.4677C7.60585 12.6196 7.39983 12.705 7.185 12.705C6.97017 12.705 6.76415 12.6196 6.61224 12.4677C6.46034 12.3158 6.375 12.1098 6.375 11.895V7.94998C6.375 7.73516 6.46034 7.52913 6.61224 7.37723C6.76415 7.22532 6.97017 7.13998 7.185 7.13998H16.815C17.0298 7.13998 17.2359 7.22532 17.3878 7.37723C17.5397 7.52913 17.625 7.73516 17.625 7.94998V11.895C17.625 12.1112 17.5402 12.3188 17.3887 12.4731C17.2372 12.6274 17.0312 12.7161 16.815 12.72Z" fill="#4A5868"/>
<path id="Vector_5" d="M17.91 16.23C17.6713 16.23 17.4424 16.1352 17.2736 15.9664C17.1048 15.7976 17.01 15.5687 17.01 15.33V12.885H6.91501V15.33C6.91501 15.5687 6.82018 15.7976 6.6514 15.9664C6.48262 16.1352 6.2537 16.23 6.01501 16.23C5.77631 16.23 5.54739 16.1352 5.37861 15.9664C5.20983 15.7976 5.11501 15.5687 5.11501 15.33V12C5.11501 11.7613 5.20983 11.5324 5.37861 11.3636C5.54739 11.1948 5.77631 11.1 6.01501 11.1H17.91C18.1487 11.1 18.3776 11.1948 18.5464 11.3636C18.7152 11.5324 18.81 11.7613 18.81 12V15.345C18.8061 15.5811 18.7095 15.8062 18.5412 15.9717C18.3728 16.1373 18.1461 16.23 17.91 16.23Z" fill="#D33C4E"/>
<path id="Vector_6" d="M22.5 16.68V16.5L21.99 13.905H20.115L20.265 14.67H15.585C15.4675 14.664 15.35 14.6814 15.2394 14.7213C15.1287 14.7612 15.0272 14.8227 14.9406 14.9023C14.854 14.9819 14.7841 15.078 14.7351 15.1849C14.6861 15.2918 14.6588 15.4074 14.655 15.525C14.6053 16.1772 14.3111 16.7866 13.8314 17.2312C13.3516 17.6758 12.7216 17.9228 12.0675 17.9228C11.4134 17.9228 10.7834 17.6758 10.3036 17.2312C9.82386 16.7866 9.52969 16.1772 9.48 15.525C9.4344 15.3131 9.31137 15.1259 9.135 15C9.05394 14.9094 8.95447 14.8371 8.84325 14.7879C8.73202 14.7388 8.61159 14.7139 8.49 14.715H3.735L3.885 13.95H2.055L1.5 16.5V16.68C1.49264 16.7799 1.49264 16.8801 1.5 16.98V19.98C1.47491 20.3046 1.51785 20.6309 1.62606 20.938C1.73428 21.2451 1.90539 21.5262 2.12846 21.7634C2.35152 22.0006 2.62163 22.1886 2.92151 22.3154C3.22139 22.4423 3.54444 22.5051 3.87 22.5H20.13C20.4449 22.5041 20.7574 22.4447 21.0488 22.3251C21.3402 22.2056 21.6045 22.0285 21.8258 21.8044C22.0471 21.5803 22.2209 21.3138 22.3367 21.021C22.4526 20.7281 22.5081 20.4148 22.5 20.1V17.1C22.5074 17.0001 22.5074 16.8999 22.5 16.8V16.68ZM20.7 20.1C20.6922 20.2446 20.6283 20.3804 20.5218 20.4785C20.4153 20.5765 20.2747 20.6291 20.13 20.625H3.87C3.72528 20.6291 3.58469 20.5765 3.4782 20.4785C3.37171 20.3804 3.30777 20.2446 3.3 20.1V17.1C3.29108 17.0216 3.29945 16.9422 3.3245 16.8674C3.34956 16.7926 3.3907 16.7242 3.44504 16.667C3.49937 16.6098 3.56558 16.5652 3.63899 16.5364C3.71241 16.5075 3.79126 16.4951 3.87 16.5H7.815C8.07087 17.4316 8.62556 18.2533 9.39383 18.839C10.1621 19.4247 11.1014 19.7419 12.0675 19.7419C13.0336 19.7419 13.9729 19.4247 14.7412 18.839C15.5094 18.2533 16.0641 17.4316 16.32 16.5H20.13C20.2009 16.4959 20.272 16.5059 20.339 16.5294C20.4061 16.5528 20.4679 16.5893 20.5209 16.6367C20.5738 16.6841 20.6169 16.7414 20.6476 16.8055C20.6784 16.8696 20.6962 16.939 20.7 17.01V20.1Z" fill="#4A5868"/>
</g>
</g>
<defs>
<clipPath id="clip0_2576_95452">
<rect width="24" height="24" fill="white"/>
</clipPath>
</defs>
</svg>
