<svg width="24" height="24" viewBox="0 0 24 24" fill="none" xmlns="http://www.w3.org/2000/svg">
<g id="Icons" clip-path="url(#clip0_2576_95453)">
<g id="Layer 8">
<path id="Vector" d="M15.69 22.5C15.4766 22.4991 15.2701 22.425 15.105 22.29C14.9746 22.1809 14.8784 22.0367 14.8279 21.8744C14.7773 21.7121 14.7746 21.5388 14.82 21.375L16.17 16.245C16.2398 16.0258 16.3909 15.8416 16.5923 15.7303C16.7937 15.6191 17.0301 15.5892 17.2528 15.6468C17.4756 15.7044 17.6678 15.8452 17.79 16.0401C17.9122 16.235 17.9552 16.4694 17.91 16.695L17.04 19.995L17.67 19.71C17.9637 19.5837 18.2802 19.5186 18.6 19.5186C18.9197 19.5186 19.2362 19.5837 19.53 19.71L20.205 20.025L19.365 16.5C19.3226 16.3811 19.3057 16.2547 19.3153 16.1288C19.325 16.003 19.361 15.8806 19.421 15.7696C19.4811 15.6586 19.5638 15.5615 19.6638 15.4845C19.7638 15.4076 19.8788 15.3525 20.0015 15.3229C20.1242 15.2933 20.2517 15.2898 20.3758 15.3127C20.4999 15.3355 20.6178 15.3843 20.7219 15.4556C20.8259 15.527 20.9138 15.6195 20.9798 15.7271C21.0458 15.8346 21.0884 15.9549 21.105 16.08L22.395 21.39C22.4394 21.5529 22.4346 21.7252 22.3812 21.8854C22.3278 22.0456 22.2282 22.1863 22.095 22.29C21.9659 22.3988 21.8089 22.4692 21.6418 22.4931C21.4747 22.517 21.3043 22.4934 21.15 22.425L18.795 21.33C18.7356 21.3048 18.6719 21.2918 18.6075 21.2918C18.543 21.2918 18.4793 21.3048 18.42 21.33L16.05 22.5C15.9309 22.521 15.809 22.521 15.69 22.5Z" fill="#D33C4E"/>
<path id="Vector_2" d="M10.905 22.5H3.9C3.26348 22.5 2.65303 22.2471 2.20294 21.797C1.75286 21.3469 1.5 20.7365 1.5 20.1V7.90496C1.50127 7.57434 1.57126 7.2476 1.70554 6.94548C1.83982 6.64335 2.03544 6.37245 2.28 6.14996L6.645 2.15996C7.08355 1.74524 7.6615 1.50978 8.265 1.49996H17.07C17.3909 1.49794 17.7091 1.55991 18.0058 1.68226C18.3025 1.8046 18.5719 1.98487 18.7981 2.21251C19.0243 2.44015 19.2029 2.71061 19.3235 3.00807C19.444 3.30553 19.504 3.62403 19.5 3.94496V5.65496C19.5 5.89365 19.4052 6.12257 19.2364 6.29135C19.0676 6.46013 18.8387 6.55496 18.6 6.55496C18.3613 6.55496 18.1324 6.46013 17.9636 6.29135C17.7948 6.12257 17.7 5.89365 17.7 5.65496V3.94496C17.6961 3.78844 17.6311 3.63965 17.519 3.53036C17.4069 3.42106 17.2566 3.35991 17.1 3.35996H8.295C8.14555 3.3549 8.0001 3.40877 7.89 3.50996L3.495 7.49996C3.43518 7.55584 3.38712 7.6231 3.35364 7.69779C3.32015 7.77249 3.30192 7.85312 3.3 7.93496V20.1C3.30391 20.2565 3.36885 20.4053 3.48095 20.5146C3.59305 20.6239 3.74344 20.685 3.9 20.685H10.905C11.1437 20.685 11.3726 20.7798 11.5414 20.9486C11.7102 21.1173 11.805 21.3463 11.805 21.585C11.805 21.8237 11.7102 22.0526 11.5414 22.2214C11.3726 22.3901 11.1437 22.485 10.905 22.485V22.5Z" fill="#4A5868"/>
<path id="Vector_3" d="M18.6 17.1C17.8244 17.103 17.0654 16.8755 16.4193 16.4465C15.7732 16.0174 15.2691 15.4061 14.9709 14.6901C14.6728 13.9742 14.594 13.1857 14.7445 12.4249C14.8951 11.6641 15.2683 10.9651 15.8167 10.4167C16.3651 9.86827 17.0641 9.4951 17.8249 9.34452C18.5858 9.19394 19.3742 9.27273 20.0902 9.5709C20.8061 9.86908 21.4174 10.3732 21.8465 11.0193C22.2755 11.6654 22.503 12.4244 22.5 13.2C22.4961 14.2331 22.0839 15.2228 21.3534 15.9533C20.6228 16.6839 19.6331 17.096 18.6 17.1ZM18.6 11.1C18.1804 11.097 17.7695 11.2189 17.4194 11.4502C17.0693 11.6814 16.7959 12.0116 16.6339 12.3987C16.472 12.7857 16.4289 13.2122 16.51 13.6239C16.5911 14.0356 16.7929 14.4138 17.0895 14.7105C17.3862 15.0072 17.7645 15.2089 18.1761 15.29C18.5878 15.3712 19.0143 15.328 19.4013 15.1661C19.7884 15.0041 20.1186 14.7307 20.3498 14.3806C20.5811 14.0305 20.703 13.6196 20.7 13.2C20.7 12.6416 20.4793 12.106 20.0859 11.7097C19.6925 11.3135 19.1583 11.089 18.6 11.085V11.1Z" fill="#D33C4E"/>
</g>
</g>
<defs>
<clipPath id="clip0_2576_95453">
<rect width="24" height="24" fill="white"/>
</clipPath>
</defs>
</svg>
