<svg width="16" height="16" viewBox="0 0 16 16" fill="none" xmlns="http://www.w3.org/2000/svg">
<path fill-rule="evenodd" clip-rule="evenodd" d="M8.025 2.25C5.54126 2.25 3.41713 3.8194 2.60491 6.02744C2.48574 6.35139 2.12652 6.51741 1.80257 6.39824C1.47861 6.27907 1.3126 5.91985 1.43176 5.5959C2.41954 2.9106 5.00209 1 8.025 1H12.825C14.0585 1 15.05 2.00152 15.05 3.225V5.81167C15.05 6.15684 14.7702 6.43667 14.425 6.43667C14.0798 6.43667 13.8 6.15684 13.8 5.81167V3.225C13.8 2.68848 13.3648 2.25 12.825 2.25H8.025ZM6.27567 4.36044C6.49902 4.35233 6.70969 4.4641 6.82821 4.65358L8.50414 7.33286L10.1041 6.2014C10.3473 6.02942 10.6781 6.05295 10.8945 6.25762L12.3138 7.60003H14.4317C14.7768 7.60003 15.0567 7.87985 15.0567 8.22503C15.0567 8.5702 14.7768 8.85003 14.4317 8.85003H12.065C11.9053 8.85003 11.7516 8.78886 11.6355 8.67909L10.4077 7.51773L8.68587 8.73532C8.54552 8.83457 8.37049 8.87163 8.20196 8.8378C8.03344 8.80396 7.88628 8.7022 7.79513 8.55647L6.34374 6.23616L5.13751 8.51719C5.02924 8.72194 4.81661 8.85003 4.585 8.85003H1.625C1.27982 8.85003 1 8.5702 1 8.22503C1 7.87985 1.27982 7.60003 1.625 7.60003H4.2085L5.74583 4.69286C5.85031 4.49529 6.05233 4.36854 6.27567 4.36044ZM1.82223 9.72106C2.14473 9.59803 2.50591 9.75973 2.62895 10.0822C3.02641 11.124 3.71256 12.0264 4.60209 12.6816C5.55939 13.386 6.74395 13.8067 8.025 13.8067C10.4119 13.8067 12.4577 12.3583 13.3366 10.2936C13.4718 9.97596 13.8388 9.82809 14.1564 9.96327C14.4741 10.0985 14.6219 10.4655 14.4867 10.7831C13.4189 13.2918 10.9314 15.0567 8.025 15.0567C6.46606 15.0567 5.02395 14.544 3.86124 13.6884L3.86104 13.6883C2.77734 12.8901 1.94357 11.7926 1.46106 10.5278C1.33802 10.2053 1.49972 9.8441 1.82223 9.72106Z" fill="#3B4854"/>
</svg>
