<svg width="24" height="24" viewBox="0 0 24 24" fill="none" xmlns="http://www.w3.org/2000/svg">
<g id="Icons" clip-path="url(#clip0_2576_95438)">
<g id="Layer 8">
<path id="Vector" d="M9.585 18.075H3.87C3.24006 18.071 2.63727 17.818 2.19324 17.3711C1.7492 16.9243 1.49999 16.3199 1.5 15.69V14.19C1.49922 12.7845 2.04496 11.4337 3.02186 10.4232C3.99876 9.41275 5.33028 8.82168 6.735 8.77496C6.85477 8.76201 6.97592 8.77544 7.08994 8.81431C7.20396 8.85318 7.30809 8.91655 7.395 8.99996C8.03147 9.59577 8.87067 9.92728 9.7425 9.92728C10.6143 9.92728 11.4535 9.59577 12.09 8.99996C12.1754 8.91282 12.2785 8.84497 12.3924 8.80099C12.5062 8.757 12.6282 8.7379 12.75 8.74496C13.801 8.78077 14.8188 9.12183 15.6792 9.72649C16.5396 10.3312 17.2053 11.1732 17.595 12.15C17.6412 12.2591 17.665 12.3763 17.665 12.4948C17.665 12.6133 17.6412 12.7306 17.595 12.8397C17.5489 12.9488 17.4813 13.0475 17.3962 13.13C17.3112 13.2125 17.2105 13.2771 17.1 13.32C16.8792 13.409 16.632 13.4069 16.4128 13.3141C16.1935 13.2214 16.0199 13.0455 15.93 12.825C15.6919 12.2259 15.2979 11.7013 14.7889 11.3057C14.2799 10.9101 13.6743 10.6578 13.035 10.575C12.0997 11.321 10.9389 11.7273 9.7425 11.7273C8.54615 11.7273 7.38526 11.321 6.45 10.575C5.57519 10.6852 4.77123 11.1126 4.19061 11.7761C3.60999 12.4397 3.29309 13.2933 3.3 14.175V15.675C3.298 15.7511 3.31126 15.8268 3.33901 15.8977C3.36675 15.9686 3.40842 16.0332 3.46155 16.0877C3.51468 16.1423 3.5782 16.1856 3.64835 16.2152C3.7185 16.2448 3.79387 16.26 3.87 16.26H9.585C9.8237 16.26 10.0526 16.3548 10.2214 16.5236C10.3902 16.6923 10.485 16.9213 10.485 17.16C10.485 17.3987 10.3902 17.6276 10.2214 17.7964C10.0526 17.9651 9.8237 18.06 9.585 18.06V18.075Z" fill="#4A5868"/>
<path id="Vector_2" d="M9.75 11.805C8.72819 11.8109 7.72762 11.5133 6.87513 10.95C6.02263 10.3866 5.3566 9.58281 4.96145 8.64048C4.56629 7.69816 4.45982 6.65972 4.65552 5.65681C4.85122 4.6539 5.34028 3.73167 6.06071 3.00703C6.78114 2.28239 7.7005 1.78796 8.70225 1.58641C9.704 1.38487 10.743 1.48529 11.6877 1.87494C12.6323 2.26459 13.4399 2.92593 14.0083 3.77513C14.5766 4.62432 14.88 5.62314 14.88 6.64496C14.882 7.32061 14.7508 7.99004 14.4941 8.61501C14.2374 9.23999 13.86 9.80827 13.3837 10.2874C12.9073 10.7666 12.3412 11.1472 11.7178 11.4076C11.0943 11.668 10.4257 11.803 9.75 11.805ZM9.75 3.29996C9.08357 3.29402 8.43043 3.48639 7.87362 3.85263C7.31682 4.21886 6.8815 4.74241 6.62302 5.3567C6.36455 5.97099 6.29459 6.64827 6.42205 7.30242C6.54951 7.95658 6.86863 8.55805 7.33882 9.03036C7.80902 9.50267 8.40905 9.82449 9.06262 9.95489C9.71619 10.0853 10.3938 10.0184 11.0092 9.76266C11.6247 9.50695 12.1502 9.07399 12.5189 8.51884C12.8876 7.96368 13.0829 7.31141 13.08 6.64496C13.08 5.7604 12.7297 4.91186 12.1056 4.28498C11.4815 3.6581 10.6345 3.30393 9.75 3.29996Z" fill="#4A5868"/>
<path id="Vector_3" d="M21.6 18.12L14.37 18C14.1313 18 13.9024 17.9051 13.7336 17.7363C13.5649 17.5676 13.47 17.3386 13.47 17.1C13.4775 16.8636 13.5748 16.6391 13.742 16.4719C13.9091 16.3047 14.1337 16.2075 14.37 16.2L21.585 16.29C21.8237 16.29 22.0526 16.3848 22.2214 16.5536C22.3902 16.7223 22.485 16.9513 22.485 17.19C22.4891 17.4301 22.3986 17.6622 22.233 17.8362C22.0674 18.0102 21.8401 18.1121 21.6 18.12Z" fill="#9B65C3"/>
<path id="Vector_4" d="M21.45 22.5H14.37C14.1313 22.5 13.9024 22.4051 13.7336 22.2363C13.5649 22.0676 13.47 21.8386 13.47 21.6C13.47 21.3613 13.5649 21.1323 13.7336 20.9636C13.9024 20.7948 14.1313 20.7 14.37 20.7H21.45C21.5682 20.7 21.6853 20.7232 21.7944 20.7685C21.9036 20.8137 22.0029 20.88 22.0864 20.9636C22.17 21.0471 22.2363 21.1463 22.2815 21.2555C22.3268 21.3647 22.35 21.4818 22.35 21.6C22.35 21.7181 22.3268 21.8352 22.2815 21.9444C22.2363 22.0536 22.17 22.1528 22.0864 22.2363C22.0029 22.3199 21.9036 22.3862 21.7944 22.4314C21.6853 22.4767 21.5682 22.5 21.45 22.5Z" fill="#9B65C3"/>
</g>
</g>
<defs>
<clipPath id="clip0_2576_95438">
<rect width="24" height="24" fill="white"/>
</clipPath>
</defs>
</svg>
