<?xml version="1.0" encoding="UTF-8"?>
<svg width="16" height="16" viewBox="0 0 16 16" fill="none" xmlns="http://www.w3.org/2000/svg">
	<g clip-path="url(#clip0_5193_4308)">
		<path d="M8 15C6.61553 15 5.26216 14.5895 4.11101 13.8203C2.95987 13.0511 2.06266 11.9579 1.53285 10.6788C1.00303 9.3997 0.86441 7.99224 1.13451 6.63437C1.4046 5.2765 2.07129 4.02922 3.05026 3.05026C4.02922 2.07129 5.2765 1.4046 6.63437 1.13451C7.99224 0.86441 9.3997 1.00303 10.6788 1.53285C11.9579 2.06266 13.0511 2.95987 13.8203 4.11101C14.5895 5.26216 15 6.61553 15 8C15 9.85652 14.2625 11.637 12.9497 12.9497C11.637 14.2625 9.85652 15 8 15ZM8 2.2C6.85287 2.2 5.7315 2.54017 4.7777 3.17748C3.82389 3.81479 3.08049 4.72063 2.6415 5.78044C2.20251 6.84025 2.08765 8.00644 2.31145 9.13153C2.53524 10.2566 3.08764 11.2901 3.89878 12.1012C4.70993 12.9124 5.74339 13.4648 6.86848 13.6886C7.99357 13.9124 9.15975 13.7975 10.2196 13.3585C11.2794 12.9195 12.1852 12.1761 12.8225 11.2223C13.4598 10.2685 13.8 9.14713 13.8 8C13.8 6.46175 13.1889 4.98649 12.1012 3.89878C11.0135 2.81107 9.53826 2.2 8 2.2Z" fill="#4A5868"/>
		<path d="M6.91003 7.78043C6.7509 7.78043 6.59829 7.71722 6.48577 7.60469C6.37324 7.49217 6.31003 7.33956 6.31003 7.18043C6.31003 6.9046 6.20046 6.64008 6.00542 6.44504C5.81038 6.25 5.54585 6.14043 5.27003 6.14043C4.9942 6.14043 4.72968 6.25 4.53464 6.44504C4.3396 6.64008 4.23003 6.9046 4.23003 7.18043C4.23003 7.33956 4.16682 7.49217 4.05429 7.60469C3.94177 7.71722 3.78916 7.78043 3.63003 7.78043C3.4709 7.78043 3.31829 7.71722 3.20577 7.60469C3.09324 7.49217 3.03003 7.33956 3.03003 7.18043C3.03003 6.58634 3.26603 6.01659 3.68611 5.59651C4.10619 5.17643 4.67594 4.94043 5.27003 4.94043C5.86411 4.94043 6.43387 5.17643 6.85395 5.59651C7.27403 6.01659 7.51003 6.58634 7.51003 7.18043C7.51003 7.33956 7.44682 7.49217 7.33429 7.60469C7.22177 7.71722 7.06916 7.78043 6.91003 7.78043Z" fill="#D33C4E"/>
		<path d="M12.39 7.78016C12.2309 7.78016 12.0783 7.71695 11.9657 7.60443C11.8532 7.4919 11.79 7.33929 11.79 7.18016C11.79 6.90301 11.6799 6.63721 11.4839 6.44124C11.288 6.24526 11.0222 6.13516 10.745 6.13516C10.4678 6.13516 10.202 6.24526 10.0061 6.44124C9.8101 6.63721 9.7 6.90301 9.7 7.18016C9.7 7.25895 9.68448 7.33698 9.65433 7.40977C9.62417 7.48257 9.57998 7.54871 9.52426 7.60443C9.46855 7.66014 9.40241 7.70434 9.32961 7.73449C9.25681 7.76464 9.17879 7.78016 9.1 7.78016C9.02121 7.78016 8.94319 7.76464 8.87039 7.73449C8.79759 7.70434 8.73145 7.66014 8.67574 7.60443C8.62002 7.54871 8.57583 7.48257 8.54567 7.40977C8.51552 7.33698 8.5 7.25895 8.5 7.18016C8.53803 6.61064 8.79109 6.07687 9.20793 5.68694C9.62476 5.29701 10.1742 5.08008 10.745 5.08008C11.3158 5.08008 11.8652 5.29701 12.2821 5.68694C12.6989 6.07687 12.952 6.61064 12.99 7.18016C12.99 7.25895 12.9745 7.33698 12.9443 7.40977C12.9142 7.48257 12.87 7.54871 12.8143 7.60443C12.7585 7.66014 12.6924 7.70434 12.6196 7.73449C12.5468 7.76464 12.4688 7.78016 12.39 7.78016Z" fill="#D33C4E"/>
		<path d="M7.99997 10.9997C7.05121 11.0165 6.1344 10.657 5.44997 9.99973C5.33725 9.88701 5.27393 9.73413 5.27393 9.57473C5.27393 9.41532 5.33725 9.26244 5.44997 9.14973C5.56268 9.03701 5.71556 8.97369 5.87497 8.97369C6.03437 8.97369 6.18725 9.03701 6.29997 9.14973C6.7594 9.58804 7.36999 9.83258 8.00497 9.83258C8.63995 9.83258 9.25053 9.58804 9.70997 9.14973C9.76414 9.09285 9.8293 9.04756 9.90149 9.01662C9.97369 8.98568 10.0514 8.96973 10.13 8.96973C10.2085 8.96973 10.2862 8.98568 10.3584 9.01662C10.4306 9.04756 10.4958 9.09285 10.55 9.14973C10.6071 9.20477 10.6526 9.27078 10.6837 9.3438C10.7147 9.41683 10.7307 9.49537 10.7307 9.57473C10.7307 9.65408 10.7147 9.73262 10.6837 9.80565C10.6526 9.87867 10.6071 9.94468 10.55 9.99973C9.86613 10.6579 8.94892 11.0176 7.99997 10.9997Z" fill="#4A5868"/>
	</g>
	<defs>
		<clipPath id="clip0_5193_4308">
			<rect width="16" height="16" fill="white"/>
		</clipPath>
	</defs>
</svg>
