<svg id="task-icon" xmlns="http://www.w3.org/2000/svg" xmlns:xlink="http://www.w3.org/1999/xlink" viewBox="0 0 24 24" shape-rendering="geometricPrecision" text-rendering="geometricPrecision">
   <g mask="url(#eICsxRT5B9Z6)">
      <g id="task-icon-line-1" transform="translate(12.500033,23.356318)">
         <g transform="translate(-12.5375,-7.0875)">
            <path  class="nav-icons-fill" d="M11.6,7.9h8.5c.4,0,.8-.3.8-.8c0-.4-.4-.8-.8-.8h-8.5c-.4,0-.8.3-.8.8c0,.4.4.8.8.8Z" fill="363D42"/>
            <path  class="nav-icons-fill" d="M7.9,5.3L6.2,7.2l-.7-.7c-.3-.3-.8-.3-1.1,0s-.3.8,0,1.1L5.6,8.9c.1.1.3.2.5.2s.5-.1.6-.2L9,6.4c.3-.3.3-.8,0-1.1s-.8-.3-1.1,0Z" fill="363D42"/>
         </g>
      </g>
      <mask id="eICsxRT5B9Z6" mask-type="luminance" x="-150%" y="-150%" height="400%" width="400%">
         <rect width="18.646386" height="15.482731" rx="0" ry="0" transform="matrix(.926481 0 0 0.958204 3.862239 5.082192)" fill="#d2dbed" stroke-width="0"/>
      </mask>
   </g>
   <g id="task-icon-line-2" transform="translate(12.500033,17.92491)">
      <g transform="translate(-12.5375,-7.0875)">
         <path  class="nav-icons-fill" d="M11.6,7.9h8.5c.4,0,.8-.3.8-.8c0-.4-.4-.8-.8-.8h-8.5c-.4,0-.8.3-.8.8c0,.4.4.8.8.8Z" fill="363D42"/>
         <path  class="nav-icons-fill" d="M7.9,5.3L6.2,7.2l-.7-.7c-.3-.3-.8-.3-1.1,0s-.3.8,0,1.1L5.6,8.9c.1.1.3.2.5.2s.5-.1.6-.2L9,6.4c.3-.3.3-.8,0-1.1s-.8-.3-1.1,0Z" fill="363D42"/>
      </g>
   </g>
   <g id="task-icon-line-3" transform="translate(12.500033,12.517938)">
      <g transform="translate(-12.5375,-7.0875)">
         <path  class="nav-icons-fill" d="M11.6,7.9h8.5c.4,0,.8-.3.8-.8c0-.4-.4-.8-.8-.8h-8.5c-.4,0-.8.3-.8.8c0,.4.4.8.8.8Z" fill="363D42"/>
         <path  class="nav-icons-fill" d="M7.9,5.3L6.2,7.2l-.7-.7c-.3-.3-.8-.3-1.1,0s-.3.8,0,1.1L5.6,8.9c.1.1.3.2.5.2s.5-.1.6-.2L9,6.4c.3-.3.3-.8,0-1.1s-.8-.3-1.1,0Z" fill="363D42"/>
      </g>
   </g>
   <g mask="url(#eICsxRT5B9Z18)">
      <g id="task-icon-line-4" transform="translate(12.500033,7.072618)">
         <g transform="translate(-12.5375,-7.0875)">
            <path  class="nav-icons-fill" d="M11.6,7.9h8.5c.4,0,.8-.3.8-.8c0-.4-.4-.8-.8-.8h-8.5c-.4,0-.8.3-.8.8c0,.4.4.8.8.8Z" fill="363D42"/>
            <path  class="nav-icons-fill" d="M7.9,5.3L6.2,7.2l-.7-.7c-.3-.3-.8-.3-1.1,0s-.3.8,0,1.1L5.6,8.9c.1.1.3.2.5.2s.5-.1.6-.2L9,6.4c.3-.3.3-.8,0-1.1s-.8-.3-1.1,0Z" fill="363D42"/>
         </g>
      </g>
      <mask id="eICsxRT5B9Z18" mask-type="luminance" x="-150%" y="-150%" height="400%" width="400%">
         <rect width="18.646386" height="15.482731" rx="0" ry="0" transform="matrix(.926481 0 0 0.958204 3.862239 5.082192)" fill="#d2dbed" stroke-width="0"/>
      </mask>
   </g>
</svg>