<?xml version="1.0" encoding="UTF-8" standalone="no"?>
<svg width="512px" height="512px" viewBox="0 0 512 512" version="1.1" xmlns="http://www.w3.org/2000/svg" xmlns:xlink="http://www.w3.org/1999/xlink">
    <!-- Generator: Sketch 42 (36781) - http://www.bohemiancoding.com/sketch -->
    <title>Group</title>
    <desc>Created with Sketch.</desc>
    <defs></defs>
    <g id="Page-1" stroke="none" stroke-width="1" fill="none" fill-rule="evenodd">
        <g id="Group" transform="translate(48.000000, 17.000000)" fill="#000000">
            <path d="M402.982707,59.6597802 L268.655138,59.6597802 C268.655138,26.7126666 241.923951,-5.68434189e-14 208.953996,-5.68434189e-14 C175.98404,-5.68434189e-14 149.252854,26.7126666 149.252854,59.6597802 L14.9252854,59.6597802 C6.68652787,59.6597802 0,66.3416755 0,74.5747252 L0,462.363296 C0,470.596346 6.68652787,477.278241 14.9252854,477.278241 L402.982707,477.278241 C411.221464,477.278241 417.907992,470.596346 417.907992,462.363296 L417.907992,74.5747252 C417.907992,66.3416755 411.221464,59.6597802 402.982707,59.6597802 L402.982707,59.6597802 Z M208.953996,29.8298901 C225.446436,29.8298901 238.804567,43.1787659 238.804567,59.6597802 C238.804567,76.1407944 225.446436,89.4896703 208.953996,89.4896703 C192.461556,89.4896703 179.103425,76.1407944 179.103425,59.6597802 C179.103425,43.1787659 192.461556,29.8298901 208.953996,29.8298901 L208.953996,29.8298901 Z M388.057421,447.448351 L29.8505709,447.448351 L29.8505709,89.4896703 L89.5517126,89.4896703 L89.5517126,134.234505 C89.5517126,142.467555 96.2382404,149.14945 104.476998,149.14945 L313.430994,149.14945 C321.669752,149.14945 328.356279,142.467555 328.356279,134.234505 L328.356279,89.4896703 L388.057421,89.4896703 L388.057421,447.448351 L388.057421,447.448351 Z" id="Shape"></path>
            <polygon id="Shape" points="179.103425 400.138146 83.3726444 289.558743 110.656066 262.294224 179.103425 315.779216 307.251926 202.634443 334.550273 229.898963"></polygon>
        </g>
    </g>
</svg>