<?xml version="1.0" encoding="utf-8"?>
<!-- Generator: Adobe Illustrator 22.1.0, SVG Export Plug-In . SVG Version: 6.00 Build 0)  -->
<svg version="1.1" id="Layer_1" xmlns="http://www.w3.org/2000/svg" xmlns:xlink="http://www.w3.org/1999/xlink" x="0px" y="0px"
     viewBox="0 0 32 32" style="enable-background:new 0 0 32 32;" xml:space="preserve">
<style type="text/css">
	.st0{fill:#363D42;}
	.st1{fill:#448EE1;fill-opacity:0.3;}
	.st2{fill:#448EE1;}
</style>
  <path id="Path" class="st0" d="M2.9,13.9c0-1.3-0.9-2.3-2.1-2.5V7.9c0-0.5,0.4-1,1-1H26c0.5,0,1,0.4,1,1v3.8c0,0.2,0.2,0.4,0.4,0.4
	s0.4-0.2,0.4-0.4V7.9C27.8,6.8,27,6,26,6H1.8C0.8,6,0,6.8,0,7.9v3.9c0,0.2,0.2,0.4,0.4,0.4c0.9,0,1.6,0.8,1.6,1.7
	c0,0.9-0.7,1.7-1.6,1.7C0.2,15.6,0,15.8,0,16v3.9c0,1,0.8,1.8,1.8,1.8h15.4c0.2,0,0.4-0.2,0.4-0.4c0-0.2-0.2-0.4-0.4-0.4H1.8
	c-0.5,0-1-0.4-1-1v-3.5C2,16.2,2.9,15.1,2.9,13.9z"/>
  <path id="Path_1_" class="st1" d="M22.9,11.7v-1.6c0-0.7-0.6-1.3-1.3-1.3H5.9c-0.7,0-1.3,0.6-1.3,1.3v7.2c0,0.7,0.6,1.3,1.3,1.3
	h11.3c0.2-1.7,0.7-3.2,1.6-4.3C19.7,13.2,21.1,12.3,22.9,11.7z"/>
  <path class="st2" d="M23.3,11.7v-1.6c0-1-0.8-1.7-1.7-1.7H5.9c-0.9,0-1.7,0.8-1.7,1.7v7.2c0,1,0.8,1.7,1.7,1.7h11.3
	c0.2,0,0.4-0.2,0.4-0.4c0-0.2-0.2-0.4-0.4-0.4H5.9c-0.5,0-0.8-0.4-0.8-0.9v-7.2c0-0.5,0.4-0.9,0.8-0.9h15.7c0.5,0,0.8,0.4,0.8,0.9
	v1.6c0,0.2,0.2,0.4,0.4,0.4C23.1,12.1,23.3,11.9,23.3,11.7z M14.7,13.3l1.5,0.1l-1.2,1l0.5,1.6L14.1,15l-1.3,0.9l0.4-1.5l-1.2-1
	l1.5-0.1l0.5-1.5L14.7,13.3z M9.3,13.3l1.5,0.1l-1.2,1l0.5,1.6L8.8,15l-1.3,0.9l0.4-1.5l-1.2-1l1.5-0.1l0.5-1.5L9.3,13.3z M19,13.3
	l0.5-1.5l0.5,1.4c-0.2,0.2-0.4,0.3-0.6,0.6c-0.2,0.2-0.4,0.4-0.6,0.7l-1.2-1L19,13.3z M22.2,16h-1.4c-0.2,0-0.4-0.2-0.4-0.4
	c0-0.2,0.2-0.4,0.4-0.4h2.5c0.2,0,0.4,0.2,0.4,0.4V18c0,0.2-0.2,0.4-0.4,0.4s-0.4-0.2-0.4-0.4v-1.6c-1,0.9-1.7,2.3-1.7,3.7
	c0,2.7,2.1,4.8,4.7,5c0.2,0,0.4,0.2,0.4,0.4c0,0.2-0.2,0.4-0.4,0.4c-3.1-0.1-5.5-2.7-5.5-5.8C20.4,18.6,21,17,22.2,16z M29.5,23.9
	c1-0.9,1.7-2.3,1.7-3.7c0-2.7-2.1-4.8-4.7-5c-0.2,0-0.4-0.2-0.4-0.4c0-0.2,0.2-0.4,0.4-0.4c3.1,0.1,5.6,2.7,5.6,5.8
	c0,1.6-0.7,3.1-1.8,4.2h1.4c0.2,0,0.4,0.2,0.4,0.4c0,0.2-0.2,0.4-0.4,0.4h-2.5c-0.2,0-0.4-0.2-0.4-0.4v-2.5c0-0.2,0.2-0.4,0.4-0.4
	s0.4,0.2,0.4,0.4V23.9z"/>
</svg>
