<?xml version="1.0" encoding="UTF-8"?>
<svg width="512px" height="512px" viewBox="0 0 512 512" version="1.1" xmlns="http://www.w3.org/2000/svg" xmlns:xlink="http://www.w3.org/1999/xlink">
    <!-- Generator: Sketch 59.1 (86144) - https://sketch.com -->
    <title>tickets</title>
    <desc>Created with Sketch.</desc>
    <g id="Page-3" stroke="none" stroke-width="1" fill="none" fill-rule="evenodd">
        <path d="M418.830882,116 C447.64309,116 471,140.291186 471,170.255882 L471,207.700578 L457.093237,215.668591 C442.395222,224.089959 433.375,239.246702 433.375,255.75 C433.375,272.253298 442.395222,287.410041 457.093237,295.831409 L471,303.799422 L471,341.244118 C471,371.208814 447.64309,395.5 418.830882,395.5 L93.1691176,395.5 C64.3569096,395.5 41,371.208814 41,341.244118 L41,303.799422 L54.9067628,295.831409 C69.604778,287.410041 78.625,272.253298 78.625,255.75 C78.625,239.246702 69.604778,224.089959 54.9067628,215.668591 L41,207.700578 L41,170.255882 C41,140.291186 64.3569096,116 93.1691176,116 L418.830882,116 Z M418.830882,143.95 L93.1691176,143.95 C79.1995622,143.95 67.875,155.727545 67.875,170.255882 L67.875,191.1879 C90.3672766,204.075064 105.5,228.162144 105.5,255.75 C105.5,283.337856 90.3672766,307.424936 67.875,320.3121 L67.875,341.244118 C67.875,355.772455 79.1995622,367.55 93.1691176,367.55 L418.830882,367.55 C432.800438,367.55 444.125,355.772455 444.125,341.244118 L444.125,320.3121 C421.632723,307.424936 406.5,283.337856 406.5,255.75 C406.5,228.162144 421.632723,204.075064 444.125,191.1879 L444.125,170.255882 C444.125,155.727545 432.800438,143.95 418.830882,143.95 Z M324.768382,182.946564 C353.58059,182.946564 376.9375,207.23775 376.9375,237.202446 L376.9375,274.030683 C376.9375,303.995379 353.58059,328.286565 324.768382,328.286565 L187.231618,328.286565 C158.41941,328.286565 135.0625,303.995379 135.0625,274.030683 L135.0625,237.202446 C135.0625,207.23775 158.41941,182.946564 187.231618,182.946564 L324.768382,182.946564 Z M324.768382,210.896564 L187.231618,210.896564 C173.262062,210.896564 161.9375,222.674108 161.9375,237.202446 L161.9375,274.030683 C161.9375,288.55902 173.262062,300.336565 187.231618,300.336565 L324.768382,300.336565 C338.737938,300.336565 350.0625,288.55902 350.0625,274.030683 L350.0625,237.202446 C350.0625,222.674108 338.737938,210.896564 324.768382,210.896564 Z" id="tickets" fill="#000000" fill-rule="nonzero"></path>
    </g>
</svg>