<?xml version="1.0" encoding="UTF-8"?>
<svg width="16" height="16" viewBox="0 0 16 16" fill="none" xmlns="http://www.w3.org/2000/svg">
	<path d="M13.0005 10.1938C12.8405 10.1938 12.6805 10.1338 12.5671 10.0072L11.3005 8.67385C11.0738 8.43385 11.0805 8.05385 11.3205 7.82718C11.5605 7.60051 11.9405 7.60718 12.1671 7.84718L13.4338 9.18052C13.6605 9.42052 13.6538 9.80052 13.4138 10.0272C13.3005 10.1405 13.1471 10.1938 13.0005 10.1938ZM12.3338 6.19385C12.0738 6.19385 11.8271 6.02051 11.7538 5.75385C11.6671 5.43385 11.8538 5.10718 12.1738 5.01385L14.1071 4.48051C14.4271 4.39385 14.7538 4.58051 14.8471 4.90051C14.9338 5.22051 14.7471 5.54718 14.4271 5.64051L12.4938 6.17385C12.4405 6.18718 12.3871 6.19385 12.3338 6.19385ZM7.73381 4.86051C7.58715 4.86051 7.43381 4.80718 7.32048 4.69385L5.98714 3.42718C5.74714 3.20051 5.74048 2.82051 5.96714 2.58051C6.19381 2.34051 6.57381 2.32718 6.81381 2.56051L8.14715 3.82718C8.38715 4.05385 8.39381 4.43385 8.16715 4.67385C8.04715 4.80051 7.89381 4.86051 7.73381 4.86051ZM10.4005 4.26051C10.3471 4.26051 10.2938 4.25385 10.2405 4.24051C9.92048 4.15385 9.73381 3.82051 9.82048 3.50051L10.3538 1.56718C10.4405 1.24718 10.7738 1.06051 11.0938 1.14718C11.4138 1.23385 11.6005 1.56718 11.5138 1.88718L10.9805 3.82051C10.9071 4.08718 10.6671 4.26051 10.4005 4.26051Z" fill="#EE5A24"/>
	<path d="M6.40048 14.8607C6.40048 14.8607 6.34715 14.8607 6.32048 14.8607C6.12715 14.8474 5.94048 14.7674 5.78715 14.6407C5.64048 14.514 5.53381 14.3407 5.48715 14.1474L4.79381 11.254L4.74715 11.2074L1.84715 10.514C1.65381 10.4674 1.48048 10.3607 1.35381 10.214C1.22715 10.0674 1.14715 9.87405 1.13381 9.68072C1.12048 9.48072 1.16715 9.28738 1.27381 9.12072C1.37381 8.95405 1.53381 8.82072 1.71381 8.74738L9.04715 5.74738C9.21381 5.67405 9.40048 5.66072 9.58715 5.69405C9.76715 5.72738 9.93381 5.81405 10.0671 5.94738C10.2005 6.08072 10.2871 6.24738 10.3205 6.42738C10.3538 6.60738 10.3338 6.80072 10.2605 6.96738L7.26048 14.294C7.18715 14.474 7.05381 14.634 6.88715 14.734C6.74048 14.8274 6.57381 14.874 6.40048 14.874V14.8607ZM2.93381 9.52738L5.02715 10.0274C5.25381 10.0807 5.46048 10.2007 5.62715 10.3607C5.79381 10.5274 5.90715 10.734 5.96048 10.9607L6.46048 13.054L8.90715 7.07405L2.92715 9.52072L2.93381 9.52738ZM9.50715 6.83405H9.50048C9.50048 6.83405 9.50048 6.83405 9.50715 6.83405Z" fill="#4A5868"/>
</svg>
