<svg width="24" height="24" viewBox="0 0 24 24" fill="none" xmlns="http://www.w3.org/2000/svg">
<g id="Icons" clip-path="url(#clip0_2576_95418)">
<g id="Layer 8">
<path id="Vector" d="M20.115 22.5H3.88499C3.64629 22.5 3.41737 22.4051 3.24859 22.2364C3.07981 22.0676 2.98499 21.8387 2.98499 21.6C2.98499 21.3613 3.07981 21.1324 3.24859 20.9636C3.41737 20.7948 3.64629 20.7 3.88499 20.7H20.115C20.2332 20.7 20.3502 20.7232 20.4594 20.7685C20.5686 20.8137 20.6678 20.88 20.7514 20.9636C20.835 21.0471 20.9012 21.1464 20.9465 21.2556C20.9917 21.3647 21.015 21.4818 21.015 21.6C21.015 21.7182 20.9917 21.8352 20.9465 21.9444C20.9012 22.0536 20.835 22.1528 20.7514 22.2364C20.6678 22.3199 20.5686 22.3862 20.4594 22.4315C20.3502 22.4767 20.2332 22.5 20.115 22.5Z" fill="#4A5868"/>
<path id="Vector_2" d="M20.115 18H3.88499C3.7668 18 3.64976 17.9767 3.54057 17.9315C3.43138 17.8862 3.33216 17.8199 3.24859 17.7364C3.16502 17.6528 3.09872 17.5536 3.05349 17.4444C3.00826 17.3352 2.98499 17.2182 2.98499 17.1C2.98499 16.9818 3.00826 16.8647 3.05349 16.7556C3.09872 16.6464 3.16502 16.5471 3.24859 16.4636C3.33216 16.38 3.43138 16.3137 3.54057 16.2685C3.64976 16.2232 3.7668 16.2 3.88499 16.2H20.115C20.2332 16.2 20.3502 16.2232 20.4594 16.2685C20.5686 16.3137 20.6678 16.38 20.7514 16.4636C20.835 16.5471 20.9012 16.6464 20.9465 16.7556C20.9917 16.8647 21.015 16.9818 21.015 17.1C21.015 17.2182 20.9917 17.3352 20.9465 17.4444C20.9012 17.5536 20.835 17.6528 20.7514 17.7364C20.6678 17.8199 20.5686 17.8862 20.4594 17.9315C20.3502 17.9767 20.2332 18 20.115 18Z" fill="#4A5868"/>
<path id="Vector_3" d="M20.115 13.5H12C11.7613 13.5 11.5324 13.4051 11.3636 13.2364C11.1948 13.0676 11.1 12.8387 11.1 12.6C11.1 12.3613 11.1948 12.1324 11.3636 11.9636C11.5324 11.7948 11.7613 11.7 12 11.7H20.19C20.4287 11.7 20.6576 11.7948 20.8264 11.9636C20.9952 12.1324 21.09 12.3613 21.09 12.6C21.09 12.8387 20.9952 13.0676 20.8264 13.2364C20.6576 13.4051 20.4287 13.5 20.19 13.5H20.115Z" fill="#4A5868"/>
<path id="Vector_4" d="M7.83 13.5H4.905C4.39839 13.496 3.91387 13.292 3.55704 12.9324C3.20021 12.5727 2.99998 12.0866 3 11.58V10.5C2.99953 9.4543 3.40656 8.44957 4.13469 7.69903C4.86283 6.94849 5.85476 6.51122 6.9 6.48C7.01603 6.48222 7.1301 6.5103 7.2339 6.5622C7.3377 6.6141 7.42861 6.68851 7.5 6.78C7.88882 7.14272 8.40076 7.34444 8.9325 7.34444C9.46424 7.34444 9.97618 7.14272 10.365 6.78C10.4456 6.68435 10.5453 6.60656 10.6576 6.55158C10.77 6.4966 10.8926 6.46565 11.0176 6.4607C11.1426 6.45575 11.2672 6.4769 11.3836 6.52282C11.4999 6.56873 11.6054 6.6384 11.6933 6.72737C11.7813 6.81634 11.8497 6.92267 11.8942 7.03956C11.9388 7.15645 11.9584 7.28134 11.952 7.40626C11.9456 7.53118 11.9132 7.65339 11.8569 7.76509C11.8006 7.87679 11.7216 7.97553 11.625 8.055C10.953 8.69288 10.0772 9.0728 9.15226 9.12769C8.22733 9.18258 7.31275 8.90891 6.57 8.355C6.07201 8.45445 5.62317 8.72163 5.29834 9.11198C4.97351 9.50232 4.79232 9.99223 4.785 10.5V11.535C4.785 11.5668 4.79764 11.5973 4.82015 11.6199C4.84265 11.6424 4.87317 11.655 4.905 11.655H7.83C8.0687 11.655 8.29761 11.7498 8.4664 11.9186C8.63518 12.0874 8.73 12.3163 8.73 12.555C8.73 12.7937 8.63518 13.0226 8.4664 13.1914C8.29761 13.3602 8.0687 13.455 7.83 13.455V13.5Z" fill="#45A4EC"/>
<path id="Vector_5" d="M8.99999 9.16499C8.23924 9.16795 7.49476 8.94489 6.86098 8.52409C6.2272 8.10328 5.73269 7.50371 5.4402 6.80143C5.1477 6.09916 5.07039 5.32582 5.21808 4.57954C5.36577 3.83326 5.7318 3.14766 6.26973 2.60973C6.80767 2.07179 7.49326 1.70576 8.23955 1.55807C8.98583 1.41039 9.75916 1.48769 10.4614 1.78019C11.1637 2.07269 11.7633 2.56719 12.1841 3.20097C12.6049 3.83475 12.828 4.57924 12.825 5.33999C12.821 6.35323 12.4168 7.32384 11.7003 8.04031C10.9838 8.75678 10.0132 9.16104 8.99999 9.16499ZM8.99999 3.29999C8.59589 3.29702 8.20001 3.41413 7.86257 3.63647C7.52513 3.85882 7.26132 4.17637 7.10462 4.54886C6.94791 4.92135 6.90537 5.33199 6.98238 5.7287C7.05939 6.1254 7.25249 6.4903 7.53718 6.7771C7.82187 7.0639 8.18533 7.25969 8.58146 7.33962C8.97758 7.41956 9.38853 7.38005 9.76216 7.22609C10.1358 7.07214 10.4553 6.81069 10.6801 6.4749C10.9049 6.1391 11.025 5.7441 11.025 5.33999C11.025 4.80154 10.8121 4.28491 10.4328 3.90277C10.0535 3.52062 9.53843 3.30395 8.99999 3.29999Z" fill="#45A4EC"/>
</g>
</g>
<defs>
<clipPath id="clip0_2576_95418">
<rect width="24" height="24" fill="white"/>
</clipPath>
</defs>
</svg>
