<svg width="24" height="24" viewBox="0 0 24 24" fill="none" xmlns="http://www.w3.org/2000/svg">
<g id="Icons" clip-path="url(#clip0_2576_95466)">
<g id="Layer 8">
<path id="Vector" d="M7.395 16.26H3.705C3.1202 16.26 2.55935 16.0277 2.14583 15.6142C1.73231 15.2007 1.5 14.6398 1.5 14.055V12.75C1.49559 11.4815 1.98732 10.2616 2.87016 9.35072C3.753 8.43985 4.95699 7.91025 6.225 7.87503C6.4689 7.87582 6.70392 7.96663 6.885 8.13003C7.42237 8.63741 8.13344 8.92006 8.8725 8.92006C9.61156 8.92006 10.3226 8.63741 10.86 8.13003C10.9423 8.04658 11.0404 7.98032 11.1486 7.93509C11.2567 7.88987 11.3728 7.86658 11.49 7.86658C11.6072 7.86658 11.7233 7.88987 11.8314 7.93509C11.9396 7.98032 12.0377 8.04658 12.12 8.13003C12.2039 8.21364 12.2705 8.31299 12.3159 8.42239C12.3613 8.53179 12.3847 8.64907 12.3847 8.76753C12.3847 8.88598 12.3613 9.00327 12.3159 9.11266C12.2705 9.22206 12.2039 9.32141 12.12 9.40503C11.299 10.1685 10.2346 10.6173 9.11476 10.6722C7.99495 10.7271 6.89176 10.3845 6 9.70503C5.26827 9.79345 4.5947 10.1482 4.10778 10.7015C3.62086 11.2548 3.35468 11.968 3.36 12.705V14.01C3.36 14.1174 3.40267 14.2205 3.47862 14.2964C3.55457 14.3724 3.65759 14.415 3.765 14.415H7.395C7.51375 14.413 7.63169 14.4349 7.7418 14.4794C7.85191 14.5239 7.95194 14.5901 8.03592 14.6741C8.1199 14.7581 8.18612 14.8581 8.23063 14.9682C8.27514 15.0783 8.29703 15.1963 8.295 15.315C8.3011 15.4369 8.28234 15.5588 8.23985 15.6733C8.19736 15.7877 8.13204 15.8923 8.04785 15.9807C7.96366 16.0691 7.86237 16.1395 7.75013 16.1875C7.6379 16.2355 7.51707 16.2602 7.395 16.26Z" fill="#4A5868"/>
<path id="Vector_2" d="M8.86502 10.755C7.94766 10.755 7.05094 10.4828 6.2884 9.9728C5.52586 9.46283 4.93179 8.73805 4.58142 7.89024C4.23105 7.04243 4.14015 6.10972 4.32021 5.21021C4.50027 4.3107 4.9432 3.48486 5.59292 2.83724C6.24264 2.18962 7.06992 1.74937 7.97001 1.57223C8.87009 1.39508 9.80251 1.48901 10.6492 1.84213C11.4958 2.19524 12.2187 2.79165 12.7262 3.55585C13.2337 4.32004 13.503 5.21764 13.5 6.13499C13.496 7.36167 13.006 8.53675 12.1372 9.40274C11.2684 10.2687 10.0917 10.755 8.86502 10.755ZM8.86502 3.25499C8.30624 3.25506 7.75994 3.42025 7.29476 3.72982C6.82957 4.03939 6.46623 4.47953 6.2504 4.99494C6.03457 5.51035 5.97586 6.07805 6.08165 6.62673C6.18744 7.1754 6.45301 7.68057 6.84501 8.07879C7.237 8.477 7.73793 8.7505 8.28487 8.86492C8.83181 8.97934 9.40036 8.92957 9.91911 8.72188C10.4379 8.51419 10.8837 8.15784 11.2005 7.69758C11.5174 7.23732 11.6912 6.6937 11.7 6.13499C11.7 5.3831 11.4013 4.66201 10.8697 4.13034C10.338 3.59867 9.61691 3.29999 8.86502 3.29999V3.25499Z" fill="#4A5868"/>
<path id="Vector_3" d="M17.715 21H11.46C11.2145 21 10.9714 20.9514 10.7447 20.857C10.5181 20.7626 10.3124 20.6243 10.1395 20.4499C9.96654 20.2756 9.82985 20.0688 9.73726 19.8414C9.64467 19.614 9.59803 19.3705 9.60001 19.125V13.41C9.60001 12.9167 9.79597 12.4436 10.1448 12.0948C10.4936 11.746 10.9667 11.55 11.46 11.55H17.715C18.2071 11.5539 18.6779 11.7512 19.0259 12.0991C19.3739 12.4471 19.5711 12.9179 19.575 13.41V19.125C19.575 19.6197 19.3795 20.0944 19.0311 20.4456C18.6828 20.7968 18.2097 20.9961 17.715 21ZM11.46 13.35V19.125H17.775V13.41L11.46 13.35Z" fill="#FFA800"/>
<path id="Vector_4" d="M20.715 18C20.4763 18 20.2474 17.9052 20.0786 17.7364C19.9098 17.5676 19.815 17.3387 19.815 17.1C19.815 16.8613 19.9098 16.6324 20.0786 16.4636C20.2474 16.2948 20.4763 16.2 20.715 16.2V10.755H14.46C14.2213 10.755 13.9924 10.6602 13.8236 10.4914C13.6548 10.3226 13.56 10.0937 13.56 9.85502C13.56 9.61632 13.6548 9.38741 13.8236 9.21862C13.9924 9.04984 14.2213 8.95502 14.46 8.95502H20.715C21.2018 8.951 21.6704 9.1395 22.0188 9.47947C22.3672 9.81943 22.5671 10.2833 22.575 10.77V16.2C22.5632 16.6841 22.3616 17.1442 22.0136 17.4809C21.6656 17.8177 21.1992 18.0041 20.715 18Z" fill="#FFA800"/>
</g>
</g>
<defs>
<clipPath id="clip0_2576_95466">
<rect width="24" height="24" fill="white"/>
</clipPath>
</defs>
</svg>
