<svg width="24" height="24" viewBox="0 0 24 24" fill="none" xmlns="http://www.w3.org/2000/svg">
<g id="Icons" clip-path="url(#clip0_2576_95465)">
<g id="Layer 8">
<path id="Vector" d="M6.62999 22.2H3.88499C3.5725 22.202 3.2627 22.1421 2.97342 22.0239C2.68415 21.9057 2.42111 21.7314 2.19944 21.5112C1.97777 21.2909 1.80186 21.029 1.68182 20.7404C1.56178 20.4519 1.49998 20.1425 1.49999 19.83V7.83C1.49678 7.5023 1.56334 7.17767 1.69523 6.87767C1.82713 6.57767 2.02135 6.30917 2.26499 6.09L6.59999 2.145C7.0292 1.73643 7.59744 1.50592 8.18999 1.5H16.875C17.5011 1.50778 18.0994 1.75997 18.5422 2.20276C18.985 2.64554 19.2372 3.24385 19.245 3.87V6.87C19.245 6.98819 19.2217 7.10522 19.1765 7.21441C19.1313 7.32361 19.065 7.42282 18.9814 7.5064C18.8978 7.58997 18.7986 7.65626 18.6894 7.70149C18.5802 7.74672 18.4632 7.77 18.345 7.77C18.2268 7.77 18.1098 7.74672 18.0006 7.70149C17.8914 7.65626 17.7922 7.58997 17.7086 7.5064C17.625 7.42282 17.5587 7.32361 17.5135 7.21441C17.4683 7.10522 17.445 6.98819 17.445 6.87V3.87C17.4412 3.72002 17.3799 3.57724 17.2738 3.47115C17.1677 3.36507 17.025 3.3038 16.875 3.3H8.17499C8.10534 3.29625 8.03571 3.30773 7.97094 3.33364C7.90618 3.35954 7.84784 3.39925 7.79999 3.45L3.49499 7.395C3.43764 7.4488 3.39204 7.51389 3.36106 7.58617C3.33008 7.65845 3.3144 7.73636 3.31499 7.815V19.815C3.31499 19.9662 3.37504 20.1112 3.48194 20.2181C3.58883 20.3249 3.73382 20.385 3.88499 20.385H6.62999C6.86868 20.385 7.0976 20.4798 7.26639 20.6486C7.43517 20.8174 7.52999 21.0463 7.52999 21.285C7.52999 21.5237 7.43517 21.7526 7.26639 21.9214C7.0976 22.0902 6.86868 22.185 6.62999 22.185V22.2Z" fill="#4A5868"/>
<path id="Vector_2" d="M20.28 22.2H12.27C11.7648 22.2 11.2802 21.9993 10.923 21.6421C10.5657 21.2848 10.365 20.8003 10.365 20.295V19.275C10.3606 18.2426 10.7596 17.2494 11.4769 16.5068C12.1942 15.7643 13.1731 15.3313 14.205 15.3C14.45 15.2947 14.6872 15.3864 14.865 15.555C15.2456 15.9104 15.7468 16.108 16.2675 16.108C16.7882 16.108 17.2894 15.9104 17.67 15.555C17.7576 15.4708 17.861 15.4049 17.9744 15.3611C18.0877 15.3174 18.2086 15.2966 18.33 15.3C19.3633 15.3312 20.3438 15.7638 21.0635 16.5059C21.7832 17.248 22.1855 18.2412 22.185 19.275V20.295C22.185 20.8003 21.9843 21.2848 21.627 21.6421C21.2698 21.9993 20.7852 22.2 20.28 22.2ZM13.95 17.13C13.4467 17.2211 12.9912 17.4855 12.6624 17.8773C12.3336 18.269 12.1523 18.7636 12.15 19.275V20.295L20.28 20.4L20.385 19.275C20.3833 18.7657 20.2042 18.2729 19.8784 17.8814C19.5526 17.4899 19.1005 17.2242 18.6 17.13C17.9296 17.6339 17.1136 17.9063 16.275 17.9063C15.4364 17.9063 14.6204 17.6339 13.95 17.13Z" fill="#FFA800"/>
<path id="Vector_3" d="M16.275 18C15.5238 18 14.7895 17.777 14.1651 17.3594C13.5407 16.9417 13.0543 16.3481 12.7675 15.6538C12.4807 14.9595 12.4064 14.1957 12.5541 13.4591C12.7017 12.7225 13.0647 12.0464 13.5969 11.5162C14.1291 10.9861 14.8067 10.6258 15.5439 10.4811C16.281 10.3364 17.0445 10.4137 17.7377 10.7032C18.4309 10.9927 19.0226 11.4815 19.4377 12.1075C19.8529 12.7336 20.073 13.4688 20.07 14.22C20.07 14.7177 19.9718 15.2104 19.7809 15.67C19.59 16.1296 19.3102 16.547 18.9576 16.8982C18.605 17.2494 18.1865 17.5275 17.7262 17.7166C17.2658 17.9057 16.7727 18.002 16.275 18ZM16.275 12.225C15.8804 12.225 15.4947 12.342 15.1667 12.5612C14.8386 12.7804 14.5829 13.092 14.4319 13.4566C14.2809 13.8211 14.2414 14.2222 14.3183 14.6092C14.3953 14.9962 14.5853 15.3517 14.8643 15.6307C15.1433 15.9097 15.4988 16.0997 15.8858 16.1767C16.2728 16.2537 16.6739 16.2141 17.0385 16.0631C17.403 15.9121 17.7146 15.6564 17.9338 15.3284C18.153 15.0003 18.27 14.6146 18.27 14.22C18.278 13.953 18.2324 13.6871 18.1357 13.4381C18.0391 13.1891 17.8934 12.962 17.7073 12.7704C17.5213 12.5787 17.2986 12.4264 17.0526 12.3224C16.8065 12.2184 16.5421 12.1649 16.275 12.165V12.225Z" fill="#FFA800"/>
</g>
</g>
<defs>
<clipPath id="clip0_2576_95465">
<rect width="24" height="24" fill="white"/>
</clipPath>
</defs>
</svg>
