<svg width="16" height="16" viewBox="0 0 16 16" fill="none" xmlns="http://www.w3.org/2000/svg">
<path fill-rule="evenodd" clip-rule="evenodd" d="M8.59033 2.64404C8.59033 1.81562 9.2619 1.14404 10.0903 1.14404H13.3558C14.1842 1.14404 14.8558 1.81562 14.8558 2.64404V5.90953C14.8558 6.73796 14.1842 7.40953 13.3558 7.40953H10.0903C9.26191 7.40953 8.59033 6.73796 8.59033 5.90953V2.64404ZM10.0903 2.14404C9.81419 2.14404 9.59033 2.3679 9.59033 2.64404V5.90953C9.59033 6.18567 9.81419 6.40953 10.0903 6.40953H13.3558C13.632 6.40953 13.8558 6.18567 13.8558 5.90953V2.64404C13.8558 2.3679 13.632 2.14404 13.3558 2.14404H10.0903Z" fill="#3B4854"/>
<path fill-rule="evenodd" clip-rule="evenodd" d="M1.14404 2.64404C1.14404 1.81562 1.81562 1.14404 2.64404 1.14404H5.90953C6.73796 1.14404 7.40953 1.81562 7.40953 2.64404V5.90953C7.40953 6.73796 6.73796 7.40953 5.90953 7.40953H2.64404C1.81562 7.40953 1.14404 6.73796 1.14404 5.90953V2.64404ZM2.64404 2.14404C2.3679 2.14404 2.14404 2.3679 2.14404 2.64404V5.90953C2.14404 6.18567 2.3679 6.40953 2.64404 6.40953H5.90953C6.18567 6.40953 6.40953 6.18567 6.40953 5.90953V2.64404C6.40953 2.3679 6.18567 2.14404 5.90953 2.14404H2.64404Z" fill="#3B4854"/>
<path fill-rule="evenodd" clip-rule="evenodd" d="M1.14404 10.0903C1.14404 9.26191 1.81562 8.59033 2.64404 8.59033H5.90953C6.73796 8.59033 7.40953 9.2619 7.40953 10.0903V13.3558C7.40953 14.1842 6.73796 14.8558 5.90953 14.8558H2.64404C1.81562 14.8558 1.14404 14.1842 1.14404 13.3558V10.0903ZM2.64404 9.59033C2.3679 9.59033 2.14404 9.81419 2.14404 10.0903V13.3558C2.14404 13.632 2.3679 13.8558 2.64404 13.8558H5.90953C6.18567 13.8558 6.40953 13.632 6.40953 13.3558V10.0903C6.40953 9.81419 6.18567 9.59033 5.90953 9.59033H2.64404Z" fill="#3B4854"/>
<path fill-rule="evenodd" clip-rule="evenodd" d="M8.59033 9.98901C8.59033 9.71287 8.81419 9.48901 9.09033 9.48901H10.1194C10.3955 9.48901 10.6194 9.71287 10.6194 9.98901C10.6194 10.2652 10.3955 10.489 10.1194 10.489H9.09033C8.81419 10.489 8.59033 10.2652 8.59033 9.98901Z" fill="#3B4854"/>
<path fill-rule="evenodd" clip-rule="evenodd" d="M11.7695 8.76563C12.0457 8.76562 12.2695 8.98948 12.2695 9.26562L12.2695 9.48897H14.3557C14.6319 9.48897 14.8557 9.71283 14.8557 9.98897C14.8557 10.2651 14.6319 10.489 14.3557 10.489H12.2695V10.7123C12.2695 10.9885 12.0457 11.2123 11.7695 11.2123C11.4934 11.2123 11.2695 10.9885 11.2695 10.7123V9.26562C11.2695 8.98948 11.4934 8.76563 11.7695 8.76563Z" fill="#3B4854"/>
<path fill-rule="evenodd" clip-rule="evenodd" d="M14.8557 13.4573C14.8557 13.1811 14.6319 12.9573 14.3557 12.9573H13.3267C13.0505 12.9573 12.8267 13.1811 12.8267 13.4573C12.8267 13.7334 13.0505 13.9573 13.3267 13.9573H14.3557C14.6319 13.9573 14.8557 13.7334 14.8557 13.4573Z" fill="#3B4854"/>
<path fill-rule="evenodd" clip-rule="evenodd" d="M11.6765 12.2339C11.4004 12.2339 11.1765 12.4577 11.1765 12.7339L11.1765 12.9572H9.0903C8.81416 12.9572 8.5903 13.1811 8.5903 13.4572C8.5903 13.7334 8.81416 13.9572 9.0903 13.9572H11.1765V14.1806C11.1765 14.4567 11.4004 14.6806 11.6765 14.6806C11.9527 14.6806 12.1765 14.4567 12.1765 14.1806V12.7339C12.1765 12.4577 11.9527 12.2339 11.6765 12.2339Z" fill="#3B4854"/>
</svg>
