<svg width="24" height="24" viewBox="0 0 24 24" fill="none" xmlns="http://www.w3.org/2000/svg">
<g id="Icons" clip-path="url(#clip0_2576_95440)">
<g id="Layer 8">
<path id="Vector" d="M8.22 22.5H4.095C3.75455 22.5081 3.41595 22.4475 3.09943 22.3218C2.78291 22.1962 2.49496 22.008 2.25275 21.7686C2.01055 21.5292 1.81907 21.2435 1.68974 20.9284C1.56041 20.6134 1.49588 20.2755 1.5 19.935V15.795C1.5019 15.4583 1.57087 15.1253 1.70289 14.8155C1.83491 14.5057 2.02734 14.2253 2.26892 13.9907C2.5105 13.7561 2.79641 13.572 3.10994 13.4491C3.42347 13.3262 3.75835 13.267 4.095 13.275H8.22C8.88974 13.275 9.53226 13.54 10.0072 14.0122C10.4822 14.4843 10.751 15.1253 10.755 15.795V19.935C10.759 20.2704 10.6963 20.6033 10.5707 20.9143C10.4451 21.2254 10.259 21.5084 10.0232 21.7469C9.78742 21.9855 9.50662 22.1749 9.19709 22.3042C8.88755 22.4335 8.55544 22.5 8.22 22.5ZM4.095 15.075C3.9992 15.073 3.90396 15.0902 3.81486 15.1254C3.72577 15.1607 3.64462 15.2135 3.57616 15.2805C3.50771 15.3476 3.45333 15.4276 3.41621 15.516C3.37909 15.6043 3.35998 15.6992 3.36 15.795V19.935C3.36393 20.1273 3.4431 20.3104 3.58051 20.4451C3.71793 20.5797 3.90264 20.655 4.095 20.655H8.22C8.31899 20.6611 8.41819 20.6471 8.51162 20.6138C8.60505 20.5806 8.69079 20.5287 8.76366 20.4615C8.83654 20.3942 8.89505 20.3129 8.93566 20.2224C8.97628 20.1319 8.99817 20.0342 9 19.935V15.795C9.00002 15.6992 8.98092 15.6043 8.9438 15.516C8.90668 15.4276 8.8523 15.3476 8.78384 15.2805C8.71539 15.2135 8.63424 15.1607 8.54514 15.1254C8.45605 15.0902 8.36081 15.073 8.265 15.075H4.095Z" fill="#4A5868"/>
<path id="Vector_2" d="M18 22.4999C17.0863 22.5208 16.1871 22.2692 15.4168 21.7774C14.6465 21.2855 14.04 20.5756 13.6745 19.738C13.3089 18.9003 13.2009 17.9729 13.3641 17.0736C13.5274 16.1744 13.9545 15.3441 14.5911 14.6884C15.2277 14.0327 16.0451 13.5812 16.9391 13.3915C17.8331 13.2017 18.7633 13.2823 19.6114 13.6229C20.4595 13.9636 21.187 14.5488 21.7014 15.3042C22.2158 16.0597 22.4938 16.951 22.5 17.8649C22.5082 19.0735 22.0409 20.2368 21.1991 21.1039C20.3572 21.971 19.2082 22.4724 18 22.4999ZM18 14.9999C17.4446 14.997 16.9008 15.159 16.4376 15.4654C15.9743 15.7718 15.6125 16.2088 15.3978 16.7211C15.1832 17.2334 15.1255 17.7978 15.2321 18.3429C15.3386 18.888 15.6046 19.3892 15.9963 19.783C16.3879 20.1768 16.8877 20.4454 17.4322 20.5549C17.9768 20.6644 18.5415 20.6097 19.0549 20.3978C19.5684 20.186 20.0073 19.8265 20.3162 19.3649C20.6251 18.9033 20.79 18.3604 20.79 17.8049C20.79 17.0636 20.4965 16.3524 19.9737 15.8268C19.4509 15.3012 18.7413 15.0039 18 14.9999Z" fill="#4A5868"/>
<path id="Vector_3" d="M6.16409 10.65C5.2546 10.6529 4.36461 10.3865 3.60637 9.88423C2.84812 9.382 2.25557 8.66648 1.90345 7.82791C1.55133 6.98935 1.4554 6.06529 1.62777 5.17228C1.80015 4.27927 2.23309 3.45729 2.87201 2.81002C3.51093 2.16275 4.32721 1.71916 5.21791 1.53521C6.10861 1.35126 7.03383 1.43517 7.8769 1.77637C8.71997 2.11758 9.44312 2.70078 9.95516 3.45244C10.4672 4.20411 10.7452 5.09056 10.7541 6.00001C10.76 6.60726 10.6458 7.20969 10.418 7.77262C10.1901 8.33555 9.85323 8.84786 9.42662 9.28005C9 9.71224 8.49211 10.0558 7.93219 10.2909C7.37227 10.526 6.77137 10.6481 6.16409 10.65ZM6.16409 3.25501C5.61239 3.26398 5.07573 3.43634 4.62198 3.7503C4.16822 4.06425 3.81775 4.5057 3.61488 5.01883C3.412 5.53196 3.36583 6.09373 3.48221 6.63309C3.59859 7.17246 3.87229 7.66521 4.2687 8.04903C4.6651 8.43285 5.16642 8.69052 5.70926 8.78944C6.2521 8.88836 6.81208 8.8241 7.3184 8.60478C7.82472 8.38547 8.25464 8.02094 8.5538 7.5573C8.85296 7.09366 9.00792 6.55172 8.99909 6.00001C8.99323 5.63361 8.91525 5.27195 8.76959 4.93569C8.62394 4.59943 8.41347 4.29516 8.15021 4.04026C7.88694 3.78535 7.57604 3.5848 7.23526 3.45007C6.89448 3.31533 6.53049 3.24905 6.16409 3.25501Z" fill="#4A5868"/>
<path id="Vector_4" d="M6.16501 15.075C6.04683 15.075 5.92979 15.0517 5.8206 15.0065C5.71141 14.9613 5.61219 14.895 5.52862 14.8114C5.44505 14.7278 5.37875 14.6286 5.33352 14.5194C5.28829 14.4102 5.26501 14.2932 5.26501 14.175V9.75001C5.26501 9.51131 5.35984 9.28239 5.52862 9.11361C5.6974 8.94483 5.92632 8.85001 6.16501 8.85001C6.40371 8.85001 6.63263 8.94483 6.80141 9.11361C6.97019 9.28239 7.06501 9.51131 7.06501 9.75001V14.175C7.06501 14.2932 7.04174 14.4102 6.99651 14.5194C6.95128 14.6286 6.88498 14.7278 6.80141 14.8114C6.71784 14.895 6.61862 14.9613 6.50943 15.0065C6.40024 15.0517 6.2832 15.075 6.16501 15.075Z" fill="#4A5868"/>
<path id="Vector_5" d="M9.85502 6.94496C9.61632 6.94496 9.3874 6.85014 9.21862 6.68135C9.04984 6.51257 8.95502 6.28365 8.95502 6.04496C8.95502 5.80626 9.04984 5.57735 9.21862 5.40856C9.3874 5.23978 9.61632 5.14496 9.85502 5.14496H13.395C13.6337 5.14496 13.8626 5.23978 14.0314 5.40856C14.2002 5.57735 14.295 5.80626 14.295 6.04496C14.295 6.28365 14.2002 6.51257 14.0314 6.68135C13.8626 6.85014 13.6337 6.94496 13.395 6.94496H9.85502Z" fill="#4A5868"/>
<path id="Vector_6" d="M18 15C17.7613 15 17.5324 14.9052 17.3636 14.7364C17.1948 14.5676 17.1 14.3387 17.1 14.1V10.59C17.1 10.3513 17.1948 10.1224 17.3636 9.95361C17.5324 9.78482 17.7613 9.69 18 9.69C18.2387 9.69 18.4676 9.78482 18.6364 9.95361C18.8052 10.1224 18.9 10.3513 18.9 10.59V14.16C18.8847 14.3881 18.7832 14.6019 18.6161 14.758C18.4489 14.914 18.2286 15.0005 18 15Z" fill="#4A5868"/>
<path id="Vector_7" d="M17.835 11.01C17.2713 11.0067 16.7319 10.7802 16.335 10.38L13.725 7.78495C13.3293 7.38601 13.1072 6.84686 13.1072 6.28495C13.1072 5.72304 13.3293 5.1839 13.725 4.78495L16.32 2.18995C16.7189 1.79424 17.2581 1.5722 17.82 1.5722C18.3819 1.5722 18.921 1.79424 19.32 2.18995L21.915 4.78495C22.3107 5.1839 22.5327 5.72304 22.5327 6.28495C22.5327 6.84686 22.3107 7.38601 21.915 7.78495L19.35 10.38C19.1517 10.5799 18.9156 10.7385 18.6556 10.8467C18.3955 10.9548 18.1166 11.0103 17.835 11.01ZM17.835 3.32995C17.7446 3.33357 17.659 3.37106 17.595 3.43495L15 5.99995C14.9348 6.06304 14.8971 6.14926 14.895 6.23995C14.8942 6.28515 14.9032 6.32998 14.9214 6.37139C14.9395 6.4128 14.9663 6.44983 15 6.47995L17.595 9.07495C17.6208 9.11521 17.6563 9.14834 17.6982 9.17128C17.7401 9.19422 17.7872 9.20625 17.835 9.20625C17.8828 9.20625 17.9298 9.19422 17.9718 9.17128C18.0137 9.14834 18.0492 9.11521 18.075 9.07495L20.67 6.47995C20.7027 6.44911 20.7287 6.41191 20.7465 6.37064C20.7643 6.32937 20.7735 6.2849 20.7735 6.23995C20.7735 6.19501 20.7643 6.15054 20.7465 6.10927C20.7287 6.068 20.7027 6.0308 20.67 5.99995L18.075 3.43495C18.011 3.37106 17.9253 3.33357 17.835 3.32995Z" fill="#9B65C3"/>
</g>
</g>
<defs>
<clipPath id="clip0_2576_95440">
<rect width="24" height="24" fill="white"/>
</clipPath>
</defs>
</svg>
