<svg xmlns="http://www.w3.org/2000/svg" width="24" height="24" fill="none" xmlns:v="https://vecta.io/nano"><g clip-path="url(#A)"><g stroke="#8e9dac" stroke-width="1.8" stroke-miterlimit="10"><path d="M12.97 14.405c-.9 0-1.55-.26-2.32-.64-2.06.26-3.61 1.93-3.61 4v1.16a1.16 1.16 0 0 0 1.16 1.16h4.77" stroke-linecap="round"/><path d="M12.97 14.405a3.35 3.35 0 1 0 0-6.7 3.35 3.35 0 1 0 0 6.7z"/></g><path d="M4.24 15.375a1.87 1.87 0 1 0 0-3.74 1.87 1.87 0 1 0 0 3.74z" fill="#8e9dac"/><g stroke-width="1.8" stroke-linecap="round"><path d="M18.93 14.575l.32-.95c.16-.48.48-.79.95-.48.48.16.63.63.48 1.11 0 0-.48 3.65-3.65 6.5-.32.32-.79.63-1.11.32-.48-.16-.63-.79-.32-1.11l.79-.95" stroke="#2c4fb9" stroke-miterlimit="10"/><path d="M20.43 10.425c-.32-4.27-3.88-7.64-8.24-7.64a8.27 8.27 0 0 0-8.27 8.27c0 .9.16 1.77.43 2.58" stroke="#8e9dac" stroke-linejoin="round"/></g></g><defs><clipPath id="A"><path fill="#fff" transform="translate(2.37 1.885)" d="M0 0h19.26v20.23H0z"/></clipPath></defs></svg>