<svg width="24" height="24" viewBox="0 0 24 24" fill="none" xmlns="http://www.w3.org/2000/svg">
<g id="Icons" clip-path="url(#clip0_2576_95450)">
<g id="Layer 8">
<path id="Vector" d="M12 22.5C9.9233 22.5 7.89323 21.8842 6.16652 20.7304C4.4398 19.5767 3.09399 17.9368 2.29927 16.0182C1.50455 14.0996 1.29661 11.9884 1.70176 9.95156C2.1069 7.91476 3.10693 6.04383 4.57538 4.57538C6.04383 3.10693 7.91476 2.1069 9.95156 1.70176C11.9884 1.29661 14.0996 1.50455 16.0182 2.29927C17.9368 3.09399 19.5767 4.4398 20.7304 6.16652C21.8842 7.89323 22.5 9.9233 22.5 12C22.5 14.7848 21.3938 17.4555 19.4246 19.4246C17.4555 21.3938 14.7848 22.5 12 22.5ZM12 3.3C10.2793 3.3 8.59725 3.81025 7.16654 4.76622C5.73584 5.72219 4.62074 7.08094 3.96225 8.67066C3.30377 10.2604 3.13148 12.0097 3.46717 13.6973C3.80286 15.3849 4.63146 16.9351 5.84818 18.1518C7.06489 19.3685 8.61508 20.1971 10.3027 20.5328C11.9904 20.8685 13.7396 20.6962 15.3293 20.0378C16.9191 19.3793 18.2778 18.2642 19.2338 16.8335C20.1898 15.4028 20.7 13.7207 20.7 12C20.7 9.69262 19.7834 7.47974 18.1518 5.84818C16.5203 4.21661 14.3074 3.3 12 3.3Z" fill="#4A5868"/>
<path id="Vector_2" d="M10.365 11.67C10.1263 11.67 9.89737 11.5752 9.72859 11.4064C9.5598 11.2376 9.46498 11.0087 9.46498 10.77C9.46498 10.3563 9.30063 9.95947 9.00807 9.66692C8.71551 9.37436 8.31872 9.21 7.90498 9.21C7.49125 9.21 7.09445 9.37436 6.8019 9.66692C6.50934 9.95947 6.34498 10.3563 6.34498 10.77C6.34498 11.0087 6.25016 11.2376 6.08138 11.4064C5.9126 11.5752 5.68368 11.67 5.44498 11.67C5.20629 11.67 4.97737 11.5752 4.80859 11.4064C4.6398 11.2376 4.54498 11.0087 4.54498 10.77C4.54498 9.87888 4.89898 9.02425 5.5291 8.39412C6.15923 7.764 7.01386 7.41 7.90498 7.41C8.79611 7.41 9.65074 7.764 10.2809 8.39412C10.911 9.02425 11.265 9.87888 11.265 10.77C11.265 11.0087 11.1702 11.2376 11.0014 11.4064C10.8326 11.5752 10.6037 11.67 10.365 11.67Z" fill="#D33C4E"/>
<path id="Vector_3" d="M18.585 11.67C18.3463 11.67 18.1174 11.5751 17.9486 11.4064C17.7798 11.2376 17.685 11.0087 17.685 10.77C17.685 10.3542 17.5199 9.95554 17.2259 9.66158C16.9319 9.36761 16.5332 9.20247 16.1175 9.20247C15.7018 9.20247 15.3031 9.36761 15.0091 9.66158C14.7151 9.95554 14.55 10.3542 14.55 10.77C14.55 10.8882 14.5267 11.0052 14.4815 11.1144C14.4363 11.2236 14.37 11.3228 14.2864 11.4064C14.2028 11.4899 14.1036 11.5562 13.9944 11.6015C13.8852 11.6467 13.7682 11.67 13.65 11.67C13.5318 11.67 13.4148 11.6467 13.3056 11.6015C13.1964 11.5562 13.0972 11.4899 13.0136 11.4064C12.93 11.3228 12.8637 11.2236 12.8185 11.1144C12.7733 11.0052 12.75 10.8882 12.75 10.77C12.807 9.91569 13.1866 9.11503 13.8119 8.53013C14.4371 7.94524 15.2613 7.61984 16.1175 7.61984C16.9737 7.61984 17.7979 7.94524 18.4231 8.53013C19.0484 9.11503 19.428 9.91569 19.485 10.77C19.485 10.8882 19.4617 11.0052 19.4165 11.1144C19.3713 11.2236 19.305 11.3228 19.2214 11.4064C19.1378 11.4899 19.0386 11.5562 18.9294 11.6015C18.8202 11.6467 18.7032 11.67 18.585 11.67Z" fill="#D33C4E"/>
<path id="Vector_4" d="M12 16.5C10.5769 16.5252 9.20167 15.9859 8.17501 15C8.00594 14.831 7.91095 14.6017 7.91095 14.3625C7.91095 14.1234 8.00594 13.8941 8.17501 13.725C8.34409 13.556 8.5734 13.461 8.81251 13.461C9.05162 13.461 9.28094 13.556 9.45001 13.725C10.1392 14.3825 11.055 14.7493 12.0075 14.7493C12.96 14.7493 13.8759 14.3825 14.565 13.725C14.6463 13.6397 14.744 13.5718 14.8523 13.5254C14.9606 13.479 15.0772 13.455 15.195 13.455C15.3128 13.455 15.4294 13.479 15.5377 13.5254C15.646 13.5718 15.7438 13.6397 15.825 13.725C15.9108 13.8076 15.979 13.9066 16.0256 14.0162C16.0721 14.1257 16.0962 14.2435 16.0962 14.3625C16.0962 14.4816 16.0721 14.5994 16.0256 14.7089C15.979 14.8185 15.9108 14.9175 15.825 15C14.7993 15.9873 13.4234 16.5269 12 16.5Z" fill="#4A5868"/>
</g>
</g>
<defs>
<clipPath id="clip0_2576_95450">
<rect width="24" height="24" fill="white"/>
</clipPath>
</defs>
</svg>
