<svg xmlns="http://www.w3.org/2000/svg" xmlns:xlink="http://www.w3.org/1999/xlink" width="28" height="28" viewBox="0 0 28 28"><defs><path id="fs-tghrtznuya" d="M0 .015h19.977v20.213H0z"/></defs><g fill="none" fill-rule="evenodd"><g transform="translate(4 4.06)"><mask id="fs-oapz1hxstb" fill="#fff"><use xlink:href="#fs-tghrtznuya"/></mask><path fill="#DC7695" d="M18.167 18.966H1.802a.552.552 0 01-.54-.54V8.35h17.453v10.083a.552.552 0 01-.548.533m0-17.004h-1.916v1.262h1.916c.29 0 .54.251.54.54V7.08H1.262V3.764c0-.289.251-.54.54-.54h2.304v1.613c0 .35.282.63.632.63a.63.63 0 00.63-.63V3.224h.008V1.962H5.37V.646a.63.63 0 00-.631-.63.63.63 0 00-.632.63v1.316H1.802C.814 1.962 0 2.776 0 3.764v14.662c0 .988.806 1.802 1.802 1.802h16.373c.989 0 1.802-.806 1.802-1.802V3.772a1.82 1.82 0 00-1.81-1.81" mask="url(#fs-oapz1hxstb)"/></g><path fill="#DC7695" d="M9.004 15.68h2.988v1.4H9.004v3.916h4.258v-1.262h-2.996v-1.4h2.996v-3.916H9.004zm5.673 0h2.996v1.4h-2.996v1.255h2.996v1.399h-2.996v1.262h4.25v-6.578h-4.25zm2.882-6.783c0 .35.281.632.631.632a.63.63 0 00.631-.632v-4.19a.63.63 0 00-.63-.63.63.63 0 00-.632.63v1.316h-2.023v1.262h2.023v1.612zm-4.73 0c0 .35.281.632.631.632a.63.63 0 00.631-.632V7.285h.008V6.023h-.008V4.707a.63.63 0 00-.63-.63.63.63 0 00-.632.63v1.316h-2.023v1.262h2.023v1.612z"/></g></svg>