<svg xmlns="http://www.w3.org/2000/svg" width="28" height="28" viewBox="0 0 28 28"><path fill="#E86F25" fill-rule="evenodd" d="M9.606 5.862c1.762 0 3.432.671 4.678 1.898a6.427 6.427 0 011.927 4.606 6.414 6.414 0 01-1.387 3.981l3.69 3.634c.307.3.307.833 0 1.134a.822.822 0 01-.587.231.822.822 0 01-.587-.231l-3.691-3.61a6.644 6.644 0 01-4.043 1.365 6.631 6.631 0 01-4.678-1.898A6.427 6.427 0 013 12.366c0-1.736.682-3.38 1.928-4.606a6.631 6.631 0 014.678-1.898zm0 1.62a4.97 4.97 0 00-3.503 1.435 4.814 4.814 0 00-1.457 3.449c0 1.296.517 2.523 1.457 3.449a4.967 4.967 0 003.503 1.435c1.316 0 2.562-.51 3.502-1.435a4.814 4.814 0 001.458-3.45 4.814 4.814 0 00-1.458-3.448 4.967 4.967 0 00-3.502-1.435zm13.946 7.857a.888.888 0 110 1.777H17.08c.174-.549.314-1.145.413-1.777h6.06zm0-5.17a.888.888 0 110 1.778l-5.672-.001a14.724 14.724 0 00-.157-1.777h5.83zm0-5.169a.888.888 0 110 1.777h-7.514c-.34-.722-.755-1.327-1.223-1.777h8.737z"/></svg>