<svg xmlns="http://www.w3.org/2000/svg" viewBox="0 0 28 28"><path fill="#26a6ff" d="M5.14 18.36V12l-.45.34c-.94.69-1.59 1.03-1.94 1.03a.7.7 0 01-.52-.23.76.76 0 01-.23-.55c0-.23.08-.4.22-.52.13-.1.33-.2.61-.35l.18-.09a5.9 5.9 0 001.36-.84 5.73 5.73 0 00.9-.98l.32-.44.19-.23c.08-.1.22-.14.45-.14.24 0 .44.1.6.29s.22.45.22.8v8.01c0 .94-.32 1.41-.96 1.41a.88.88 0 01-.69-.29c-.17-.19-.26-.47-.26-.84zm7.67-.69h3.66c.36 0 .64.08.83.23s.29.35.29.6a.81.81 0 01-.23.59c-.15.16-.38.24-.7.24h-5.15c-.35 0-.62-.1-.82-.3a.93.93 0 01-.3-.69c0-.17.07-.39.2-.67s.26-.5.41-.65l.6-.61 1.08-1.05.35-.31.63-.53.1-.06c.37-.27.7-.55.95-.82a3.22 3.22 0 00.58-.84c.13-.29.2-.57.2-.84a1.52 1.52 0 00-.22-.8 1.48 1.48 0 00-.58-.55 1.68 1.68 0 00-.8-.2c-.61 0-1.1.27-1.44.8a1.84 1.84 0 00-.14.3l-.1.28c-.1.31-.23.55-.37.72s-.34.25-.6.25a.79.79 0 01-.58-.23.85.85 0 01-.23-.63 2.63 2.63 0 01.21-1c.15-.36.36-.67.65-.96a3.2 3.2 0 011.1-.69c.43-.17.95-.26 1.54-.26.72 0 1.32.11 1.83.34a2.8 2.8 0 011.64 2.59c0 .57-.14 1.1-.43 1.57s-.58.85-.88 1.12l-.36.32-.7.58-.44.36c-.62.5-1.07.92-1.35 1.23l-.1.1a3.97 3.97 0 00-.34.46zm9.25-4.54c.43 0 .8-.13 1.1-.38s.46-.61.46-1.08a1.3 1.3 0 00-1.37-1.32c-.28 0-.52.04-.7.12s-.33.18-.44.32a2.29 2.29 0 00-.3.5l-.18.4a7.1 7.1 0 00-.09.18.5.5 0 01-.25.23 1 1 0 01-.42.09.73.73 0 01-.51-.23.8.8 0 01-.24-.6 1.6 1.6 0 01.22-.77 2.81 2.81 0 01.65-.77 3.24 3.24 0 011.05-.59c.42-.14.9-.22 1.4-.22a3.95 3.95 0 011.25.19c.37.12.7.3.97.54s.48.5.62.8.2.65.2 1c0 .47-.1.87-.3 1.2a4.02 4.02 0 01-.87.98c.36.2.67.42.92.67s.43.53.56.84.2.63.2 1a3.1 3.1 0 01-1.02 2.29c-.33.3-.72.55-1.18.73a4.17 4.17 0 01-1.5.26 3.6 3.6 0 01-1.5-.3 3.42 3.42 0 01-1.76-1.69 2 2 0 01-.22-.8c0-.27.1-.49.27-.65a.92.92 0 01.65-.25.7.7 0 01.38.12.55.55 0 01.24.27c.24.65.5 1.13.78 1.45s.67.47 1.17.47a1.76 1.76 0 001.5-.85c.18-.28.26-.6.26-.97 0-.55-.15-.97-.44-1.28s-.72-.47-1.25-.47h-.18l-.59.06a.98.98 0 01-.04 0c-.26 0-.46-.07-.6-.2s-.2-.3-.2-.53.09-.4.26-.54.41-.21.75-.21h.28z"/></svg>