<svg xmlns="http://www.w3.org/2000/svg" width="28" height="28" viewBox="0 0 28 28"><path fill="#3772FF" fill-rule="evenodd" d="M21.549 6H6.45a.458.458 0 00-.45.464v4.548c0 .256.202.463.451.463h.52a.486.486 0 00.478-.428c.11-.8.581-2.437 2.602-2.4h1.502c.25 0 .452.208.452.464v10.034c0 .547-.431.99-.963.99H9.765v1.401c0 .255.202.463.451.463h7.568c.25 0 .451-.207.451-.464v-1.401H16.96a.977.977 0 01-.964-.989V9.111c0-.256.202-.463.452-.463h1.502c2.021-.038 2.493 1.6 2.602 2.399a.487.487 0 00.478.428h.52c.25 0 .451-.207.451-.463V6.464A.457.457 0 0021.549 6"/></svg>