<svg xmlns="http://www.w3.org/2000/svg" width="18" height="19" viewBox="0 0 18 19" fill="none" xmlns:v="https://vecta.io/nano">
  <g clip-path="url(#A)">
    <path d="M12.026 7.539c2.945 0 5.333 2.389 5.333 5.334s-2.388 5.333-5.333 5.333-5.334-2.388-5.334-5.333 2.388-5.334 5.334-5.334zm0 1.412c-2.166 0-3.922 1.756-3.922 3.922s1.756 3.921 3.922 3.921a3.92 3.92 0 0 0 3.921-3.921c0-2.166-1.755-3.922-3.921-3.922zm-.001.943c.39 0 .706.316.706.706v1.567h1.567l.143.015c.322.066.563.35.563.691s-.242.625-.563.691l-.143.015h-1.567v1.565c0 .39-.316.706-.706.706s-.706-.316-.706-.706V13.58H9.754c-.39 0-.706-.316-.706-.706s.316-.706.706-.706h1.565v-1.567c0-.39.316-.706.706-.706zM6.338.793a3.81 3.81 0 0 1 3.807 3.808 3.81 3.81 0 0 1-3.807 3.807 3.79 3.79 0 0 1-1.557-.333c-1.591.57-2.728 2.09-2.728 3.875v1.307c0 .106.086.192.192.192H4.25l.143.015c.322.066.563.35.563.691s-.242.626-.563.691l-.143.015H2.246c-.886 0-1.604-.718-1.604-1.604v-1.307c0-2.078 1.147-3.888 2.841-4.832a3.79 3.79 0 0 1-.952-2.517A3.81 3.81 0 0 1 6.338.793zm0 1.412c-1.323 0-2.396 1.073-2.396 2.396s1.073 2.395 2.396 2.395 2.394-1.072 2.395-2.395S7.66 2.205 6.338 2.205z" fill="var(--color-fill-surface)" />
  </g>
  <defs>
    <clipPath id="A">
      <path fill="var(--color-fill-surface)" transform="translate(0 .5)" d="M0 0h18v18H0z" />
    </clipPath>
  </defs>
</svg>