<svg xmlns="http://www.w3.org/2000/svg" width="18" height="18" fill="none" viewBox="0 0 18 18"><path fill="#12344D" fill-rule="evenodd" d="M5 17h-.78a2.68 2.68 0 01-2.68-2.67v-2.67c0-.85-.46-1.63-1.2-2.05a.71.71 0 010-1.22 2.36 2.36 0 001.2-2V3.67C1.54 2.19 2.74 1 4.22 1H5a.7.7 0 110 1.4h-.78a1.27 1.27 0 00-1.28 1.27v2.67c0 1-.4 1.95-1.1 2.66.7.7 1.1 1.66 1.1 2.66v2.67a1.27 1.27 0 001.28 1.27H5A.7.7 0 115 17zm8.79 0h-.8a.7.7 0 110-1.4h.8a1.27 1.27 0 001.28-1.27v-2.67c0-1 .4-1.95 1.1-2.66-.7-.7-1.1-1.66-1.1-2.66V3.67a1.27 1.27 0 00-1.28-1.27h-.8A.7.7 0 1113 1h.8c1.47 0 2.67 1.2 2.68 2.67v2.67c0 .85.45 1.63 1.19 2.05a.72.72 0 010 1.22 2.36 2.36 0 00-1.2 2.05v2.67c0 1.48-1.2 2.67-2.67 2.67z" clip-rule="evenodd"/><path fill="#12344D" fill-rule="evenodd" d="M11.76 8.3H9.7V6.24a.7.7 0 10-1.4 0V8.3H6.24a.7.7 0 000 1.4H8.3v2.06a.7.7 0 101.4 0V9.7h2.06a.7.7 0 100-1.4z" clip-rule="evenodd"/></svg>