<svg xmlns="http://www.w3.org/2000/svg" width="18" height="16" fill="none"><g fill="#12344D" fill-rule="evenodd" clip-path="url(#add-code __a)" clip-rule="evenodd"><path d="M5 16h-.78a2.68 2.68 0 01-2.68-2.67v-2.67A2.36 2.36 0 00.35 8.61a.71.71 0 010-1.22 2.36 2.36 0 001.19-2V2.67A2.68 2.68 0 014.22 0H5a.7.7 0 110 1.4h-.78a1.27 1.27 0 00-1.28 1.27v2.67A3.77 3.77 0 011.84 8a3.77 3.77 0 011.1 2.66v2.67a1.27 1.27 0 001.28 1.27H5A.7.7 0 115 16zm8.79 0H13a.7.7 0 110-1.4h.79a1.27 1.27 0 001.28-1.27v-2.67A3.77 3.77 0 0116.17 8a3.77 3.77 0 01-1.1-2.66V2.67a1.27 1.27 0 00-1.28-1.27H13A.7.7 0 1113 0h.79a2.68 2.68 0 012.68 2.67v2.67c0 .847.453 1.63 1.19 2.05a.72.72 0 010 1.22 2.36 2.36 0 00-1.19 2.05v2.67A2.68 2.68 0 0113.79 16z"/><path d="M11.76 7.3H9.7V5.24a.7.7 0 10-1.4 0V7.3H6.24a.7.7 0 000 1.4H8.3v2.06a.7.7 0 101.4 0V8.7h2.06a.7.7 0 100-1.4z"/></g><defs><clipPath id="add-code __a"><path fill="#fff" d="M0 0h18v16H0z"/></clipPath></defs></svg>