<svg xmlns="http://www.w3.org/2000/svg" width="13" height="13" fill="none" viewBox="0 0 13 13"><path fill="#475867" fill-rule="evenodd" d="M5.567 5.687a2.347 2.347 0 10.06-4.695 2.347 2.347 0 00-.06 4.695zm0-3.637a1.297 1.297 0 110 2.595 1.297 1.297 0 010-2.595zm6.908 8.175h-1.2v-1.2a.525.525 0 00-1.05 0v1.2h-1.2a.525.525 0 100 1.05h1.2v1.2a.525.525 0 101.05 0v-1.2h1.2a.525.525 0 000-1.05zM2.147 11.95H7.93a.525.525 0 110 1.05H1.532a.518.518 0 01-.412-.188.54.54 0 01-.12-.427L1.66 8.5a2.31 2.31 0 012.287-1.935h3.27A2.302 2.302 0 019.467 8.5a.517.517 0 01-.427.607.525.525 0 01-.608-.435 1.275 1.275 0 00-1.275-1.057h-3.21a1.267 1.267 0 00-1.252 1.057l-.548 3.278z" clip-rule="evenodd"/></svg>