<svg width="16" height="16" viewBox="0 0 16 16" fill="none" xmlns="http://www.w3.org/2000/svg">
<path fill-rule="evenodd" clip-rule="evenodd" d="M14.6292 9.85701L10.3995 2.40193C9.9024 1.53396 8.98848 1 8 1C7.01152 1 6.0976 1.53396 5.60051 2.40193L1.37075 9.85701C0.876937 10.7259 0.876382 11.7963 1.36929 12.6657C1.86221 13.5351 2.77386 14.0717 3.76148 14.0739H12.2385C13.2261 14.0717 14.1378 13.5351 14.6307 12.6657C15.1236 11.7963 15.1231 10.7259 14.6292 9.85701ZM13.5697 12.047C13.2964 12.5317 12.7884 12.8304 12.2386 12.8299H3.76156C3.21157 12.8286 2.70396 12.5296 2.42954 12.0454C2.15511 11.5612 2.15546 10.9652 2.43046 10.4813L6.66897 3.02622C6.94606 2.5578 7.44462 2.27127 7.98256 2.27127C8.52051 2.27127 9.01907 2.5578 9.29615 3.02622L13.5347 10.4813C13.8264 10.9577 13.8398 11.5576 13.5697 12.047ZM7.99989 8.72758C8.33845 8.72758 8.6129 8.44877 8.6129 8.10483V4.86657C8.6129 4.52264 8.33845 4.24383 7.99989 4.24383C7.66134 4.24383 7.38688 4.52264 7.38688 4.86657V8.06925C7.37724 8.24048 7.43754 8.40818 7.55356 8.53278C7.66958 8.65738 7.83106 8.72786 7.99989 8.72758ZM7.16864 10.588C7.1529 10.1029 7.52288 9.69447 8.0001 9.6702C8.23984 9.65801 8.47401 9.74632 8.64783 9.9145C8.82166 10.0827 8.91991 10.316 8.91961 10.5598C8.91901 11.0452 8.53551 11.4405 8.05776 11.4482C7.58 11.4559 7.18437 11.0731 7.16864 10.588Z" fill="#475867"/>
</svg>
