<svg xmlns="http://www.w3.org/2000/svg" data-name="Layer 2" viewBox="0 0 16 16"><path d="M16 4.25a.47.47 0 000-.17v-.07a.55.55 0 00-.14-.21L12.2.21a.7.7 0 00-.2-.14h-.07a.86.86 0 00-.17 0H6.15A2.43 2.43 0 003.77 2H2.43A2.43 2.43 0 000 4.43v9.14A2.43 2.43 0 002.43 16h7.42a2.43 2.43 0 002.43-2.43V13h1.29A2.43 2.43 0 0016 10.57V4.25zm-2.39-.65H12.4V2.39zm-2.73 10a1 1 0 01-1 1H2.43a1 1 0 01-1-1V4.43a1 1 0 011-1h1.29v7.17A2.43 2.43 0 006.15 13h4.73zm2.69-2H6.15a1 1 0 01-1-1V2.43a1 1 0 011-1H11V4.3a.7.7 0 00.7.7h2.9v5.57a1 1 0 01-1.03 1.03zm.06-2.23a.71.71 0 01-.7.7H6.8a.7.7 0 010-1.4h6.13a.7.7 0 01.7.7zM6.1 6.22a.7.7 0 01.7-.7h2.72a.7.7 0 010 1.4H6.8a.7.7 0 01-.7-.7z"/></svg>