<svg xmlns="http://www.w3.org/2000/svg" data-name="Layer 2" viewBox="0 0 16 16"><path d="M16 15.3a.7.7 0 01-.7.7H1.7A1.7 1.7 0 010 14.3V.7A.7.7 0 01.7 0a.7.7 0 01.7.7v13.6a.31.31 0 00.3.3h13.6a.7.7 0 01.7.7zM3.48 10.83a.7.7 0 00.5-.21l2.15-2.15a.22.22 0 01.15-.06.21.21 0 01.15.06l1.4 1.41a1.64 1.64 0 002.29 0l3.48-3.49v1.39a.7.7 0 101.4 0V4.7a.86.86 0 000-.27.71.71 0 00-.38-.38.86.86 0 00-.27 0h-3.13a.7.7 0 100 1.4h1.39L9.12 8.88a.2.2 0 01-.3 0l-1.4-1.4A1.61 1.61 0 006.28 7a1.61 1.61 0 00-1.14.47L3 9.63a.71.71 0 00.49 1.2z"/></svg>