<svg xmlns="http://www.w3.org/2000/svg" width="17" height="16" fill="none" viewBox="0 0 17 16"><path fill="var(--color-fill-neutral-bold)" fill-rule="evenodd" d="M13 3.85h-.26V2.2A1.7 1.7 0 0010.13.73L7.82 2.09a3.37 3.37 0 01-1.67.45H2.7A2.7 2.7 0 000 5.25v3.33a2.72 2.72 0 002.71 2.7h.37v2.16a2.07 2.07 0 002.06 2.06 2.06 2.06 0 002.06-2.06v-2c.222.073.436.167.64.28l2.31 1.35c.26.153.558.232.86.23a1.65 1.65 0 00.85-.23c.528-.3.853-.862.85-1.47V10H13a3.05 3.05 0 100-6.1v-.05zM5.15 14.1a.66.66 0 01-.46-.19.65.65 0 01-.2-.47v-2.16h1.3v2.17a.66.66 0 01-.64.65zm6-2.24a.29.29 0 01-.3 0l-2.32-1.35a4.72 4.72 0 00-1.9-.61H2.71A1.32 1.32 0 011.4 8.58V5.25a1.26 1.26 0 01.38-.92A1.28 1.28 0 012.7 4h3.45a4.57 4.57 0 002.37-.65L10.84 2a.29.29 0 01.3 0 .3.3 0 01.15.26v9.4a.28.28 0 01-.14.2zM13 8.55v-3.3a1.65 1.65 0 110 3.3z" clip-rule="evenodd"/></svg>
