<svg width="16" height="16" viewBox="0 0 16 16" fill="none" xmlns="http://www.w3.org/2000/svg">
<rect width="16" height="16" fill="white" fill-opacity="0.01"/>
<path fill-rule="evenodd" clip-rule="evenodd" d="M12.94 1.17006C12.7 0.940059 12.32 0.940059 12.09 1.17006C11.86 1.40006 11.86 1.78006 12.09 2.01006C13.18 3.08006 13.79 4.50006 13.79 6.02006C13.79 7.53006 13.19 8.96006 12.09 10.0301C11.85 10.2601 11.85 10.6401 12.09 10.8701C12.21 10.9901 12.36 11.0501 12.52 11.0501C12.68 11.0501 12.82 10.9901 12.94 10.8801C14.26 9.58006 14.99 7.86006 14.99 6.02006C14.99 4.18006 14.26 2.46006 12.94 1.16006V1.17006ZM5 3.08997C5.24 2.84997 5.62 2.85997 5.85 3.08997V3.10997C6.09 3.33997 6.09 3.71997 5.85 3.94997C5.28 4.49997 4.96 5.24997 4.96 6.03997C4.96 6.82997 5.28 7.56997 5.85 8.12997C6.08 8.35997 6.08 8.73997 5.85 8.96997C5.73 9.08997 5.57 9.14997 5.42 9.14997C5.27 9.14997 5.12 9.08997 5 8.97997C4.19 8.19997 3.75 7.15997 3.75 6.03997C3.75 4.91997 4.2 3.87997 5 3.08997ZM10.99 3.08998C10.75 2.85998 10.37 2.85998 10.14 3.08998C9.91002 3.31998 9.91002 3.69998 10.14 3.92998C10.71 4.48998 11.03 5.22998 11.03 6.01998C11.03 6.80998 10.71 7.54998 10.14 8.10998C9.90002 8.33998 9.90002 8.71998 10.14 8.94998C10.26 9.06998 10.41 9.12998 10.57 9.12998C10.73 9.12998 10.87 9.06998 10.99 8.95998C11.79 8.16998 12.24 7.12998 12.24 6.01998C12.24 4.90998 11.8 3.85998 10.99 3.06998V3.08998ZM8.00003 4.88C7.36003 4.88 6.84003 5.39001 6.84003 6.03C6.84003 6.44 7.07003 6.79 7.40003 6.99V14.41C7.40003 14.74 7.67003 15.01 8.00003 15.01C8.33003 15.01 8.60003 14.74 8.60003 14.41V6.99C8.93003 6.79 9.16003 6.44 9.16003 6.03C9.16003 5.4 8.64003 4.88 8.00003 4.88ZM3.9 2.02005C2.8 3.09005 2.2 4.52005 2.2 6.03005C2.2 7.55005 2.81 8.97005 3.9 10.0401C4.13 10.2701 4.13 10.6501 3.9 10.8801C3.78 11.0001 3.62 11.0601 3.47 11.0601C3.32 11.0601 3.17 11.0001 3.05 10.8901C1.73 9.59005 1 7.86005 1 6.03005C1 4.20005 1.73 2.47005 3.05 1.18005C3.29 0.940054 3.67 0.950054 3.9 1.18005C4.14 1.41005 4.14 1.79005 3.9 2.02005Z" fill="#2C5CC5"/>
</svg>
