<svg xmlns="http://www.w3.org/2000/svg" width="13" height="13" fill="none" viewBox="0 0 13 13"><path fill="var(--color-icon-primary)" d="M11.375 3.25A1.625 1.625 0 009.75 1.625h-6.5a1.625 1.625 0 00-1.083 2.827V9.75a1.625 1.625 0 001.625 1.625h5.416a1.625 1.625 0 001.626-1.625V4.452a1.625 1.625 0 00.541-1.202zM3.25 2.708h6.5a.542.542 0 010 1.084h-6.5a.542.542 0 010-1.084zm6.5 7.042a.542.542 0 01-.542.542H3.792a.542.542 0 01-.542-.542V4.875h6.5V9.75z"/><path fill="var(--color-icon-primary)" d="M7.654 6.5H5.346a.471.471 0 00-.471.471v.141c0 .26.211.471.471.471h2.308a.47.47 0 00.471-.47V6.97a.471.471 0 00-.471-.471z"/></svg>
