<svg width="16" height="16" viewBox="0 0 16 16" xmlns="http://www.w3.org/2000/svg">
<path d="M14.39 15C14.25 15 14.12 14.95 14.01 14.87L10.89 12.32C10.64 12.12 10.33 12.01 10.01 12.01H3.59C2.16 12.01 1 10.85 1 9.42V3.6C1 2.16 2.16 1 3.59 1H12.4C13.83 1 14.99 2.16 14.99 3.6V14.41C14.99 14.64 14.85 14.85 14.64 14.95C14.56 14.99 14.47 15.01 14.38 15.01L14.39 15ZM3.59 2.2C2.82 2.2 2.19 2.83 2.19 3.6V9.41C2.19 10.18 2.82 10.81 3.59 10.81H10.01C10.61 10.81 11.19 11.02 11.65 11.39L13.79 13.14V3.6C13.79 2.83 13.17 2.2 12.4 2.2H3.59ZM8.00002 7.01002C7.67002 7.01002 7.40002 6.74001 7.40002 6.41001V4.74001C7.40002 4.41001 7.67002 4.14001 8.00002 4.14001C8.33002 4.14001 8.60002 4.41001 8.60002 4.74001V6.41001C8.60002 6.74001 8.33002 7.01002 8.00002 7.01002ZM8.70998 8.10002C8.70998 8.49214 8.3921 8.81002 7.99998 8.81002C7.60786 8.81002 7.28998 8.49214 7.28998 8.10002C7.28998 7.70789 7.60786 7.39001 7.99998 7.39001C8.3921 7.39001 8.70998 7.70789 8.70998 8.10002Z"/>
</svg>
