<svg xmlns="http://www.w3.org/2000/svg" width="21" height="20" fill="none" viewBox="0 0 21 20"><path fill="var(--color-fill-neutral)" fill-rule="evenodd" d="M4.212 5a8.21 8.21 0 016.34-3 8.09 8.09 0 017.84 7.57c.03.64-.017 1.281-.14 1.91a2.67 2.67 0 01-4.42 1.46 2.362 2.362 0 01-.36-.42 4 4 0 11-.46-5.52.691.691 0 011.38.09V11a1.2 1.2 0 00.39.9c.245.237.58.357.92.33a1.26 1.26 0 001.18-1 7.001 7.001 0 00.1-1.59 6.66 6.66 0 00-6.43-6.24 6.79 6.79 0 00-5.26 2.45 6.53 6.53 0 00-1.38 5.45 6.62 6.62 0 009.73 4.39.69.69 0 011 .25.7.7 0 01-.25 1 8 8 0 01-4 1.06 8.564 8.564 0 01-1.4-.12 7.94 7.94 0 01-6.45-6.32A7.86 7.86 0 014.212 5zm3.58 5a2.6 2.6 0 105.2 0 2.6 2.6 0 00-5.2 0z" clip-rule="evenodd"/></svg>
