<svg xmlns="http://www.w3.org/2000/svg" width="16" height="17" fill="none" viewBox="0 0 16 17"><path fill="#12344D" fill-rule="evenodd" d="M4.24 16.005a3.27 3.27 0 01-2.34-1 3.31 3.31 0 010-4.69l6.77-6.75a2.008 2.008 0 112.84 2.84l-5.32 5.32a.69.69 0 01-1 0 .71.71 0 010-1l5.32-5.32a.59.59 0 000-.85.58.58 0 00-.43-.18.63.63 0 00-.43.17l-6.76 6.79a1.92 1.92 0 002.71 2.67l7.13-7.1a3.224 3.224 0 00-4.56-4.56L3 7.545a.71.71 0 01-1 0 .72.72 0 010-1l5.18-5.19a4.624 4.624 0 116.54 6.54l-7.13 7.11a3.31 3.31 0 01-2.35 1z" clip-rule="evenodd"/></svg>