<svg xmlns="http://www.w3.org/2000/svg" width="22" height="22" fill="none" viewBox="0 0 22 22"><circle cx="11" cy="11" r="11" fill="#000"/><path fill="#fff" fill-rule="evenodd" d="M7.08 6.306a6.124 6.124 0 017.655-.145 6.162 6.162 0 012.25 6.1.536.536 0 01-.52.43h-.115a.544.544 0 01-.414-.636 5.09 5.09 0 00-1.867-5.044 5.06 5.06 0 00-6.224.038h.727a.536.536 0 110 1.071H6.513a.466.466 0 01-.1 0 .643.643 0 01-.137-.076h-.054l-.069-.084-.145-.107a.429.429 0 010-.092.268.268 0 010-.107v-1.99a.536.536 0 111.072 0v.642zm8.864 7.885a.427.427 0 010 .092.269.269 0 010 .107v1.99a.536.536 0 01-1.072 0v-.643a6.124 6.124 0 01-3.865 1.409 6.078 6.078 0 01-3.698-1.248 6.162 6.162 0 01-2.296-6.124.536.536 0 111.048.214 5.09 5.09 0 001.891 5.114 5.06 5.06 0 006.239-.077h-.72a.536.536 0 010-1.071h2.06a.46.46 0 01.1 0 .642.642 0 01.106.045h.054l.069.085.084.107z" clip-rule="evenodd"/></svg>