<svg width="16" height="16" viewBox="0 0 16 16" fill="none" xmlns="http://www.w3.org/2000/svg">
<path fill-rule="evenodd" clip-rule="evenodd" d="M14.4075 4.29873V4.23748C14.3604 4.1713 14.301 4.11485 14.2325 4.07123V4.07123L8.40496 1.06998C8.23078 0.973419 8.01914 0.973419 7.84496 1.06998L2.09621 4.04498V4.04498C2.0277 4.0886 1.96828 4.14505 1.92121 4.21123L1.87746 4.27248C1.82902 4.36126 1.80205 4.46015 1.79871 4.56123V11.3862C1.80149 11.6144 1.92915 11.8227 2.13121 11.9287L7.87996 14.9037V14.9037C8.04549 14.9851 8.23942 14.9851 8.40496 14.9037V14.9037L14.1537 11.9287C14.3558 11.8227 14.4834 11.6144 14.4862 11.3862V4.58748C14.4829 4.4864 14.4559 4.38751 14.4075 4.29873ZM8.12496 2.30373L12.5437 4.58748L8.12496 6.87123L3.74996 4.58748L8.12496 2.30373ZM2.98871 5.59373L7.51246 7.92998V13.3812L2.98871 11.045V5.59373ZM8.73746 13.3812V7.92998L13.2612 5.59373V11.045L8.73746 13.3812Z" fill="#475867"/>
</svg>
