<svg xmlns="http://www.w3.org/2000/svg" width="20" height="20" viewBox="0 0 20 20" fill="none">
  <circle cx="10.3125" cy="10.1045" r="8.4375" fill="var(--color-fill-semantic-warning-mildest)"/>
  <path d="M18.542 10.1045C18.542 5.44459 14.7644 1.66699 10.1045 1.66699" stroke="var(--color-fill-semantic-warning-mild)" stroke-width="1.5" stroke-linecap="round"/>
  <path d="M14.4684 8.61706L11.6408 8.37168L10.5366 5.77191C10.338 5.29869 9.6603 5.29869 9.46166 5.77191L8.35749 8.37753L5.5357 8.61706C5.02159 8.65795 4.81127 9.30059 5.2027 9.63944L7.34679 11.4973L6.70414 14.2548C6.5873 14.7572 7.13063 15.1545 7.57463 14.8857L9.99915 13.4252L12.4237 14.8916C12.8677 15.1603 13.411 14.7631 13.2941 14.2606L12.6515 11.4973L14.7956 9.63944C15.187 9.30059 14.9825 8.65795 14.4684 8.61706ZM9.99915 12.3327L7.80248 13.6589L8.3867 11.1584L6.44709 9.47586L9.00597 9.25386L9.99915 6.89945L10.9982 9.2597L13.557 9.4817L11.6174 11.1643L12.2017 13.6647L9.99915 12.3327Z" fill="var(--color-fill-semantic-warning-mild)"/>
</svg>