<svg xmlns="http://www.w3.org/2000/svg" width="17" height="13" fill="none" viewBox="0 0 17 13"><path fill="var(--color-fill-neutral-bold)" fill-rule="evenodd" d="M1 1h1v1H1V1zM0 1a1 1 0 011-1h1a1 1 0 011 1v1a1 1 0 01-1 1H1a1 1 0 01-1-1V1zm1 5h1v1H1V6zM0 6a1 1 0 011-1h1a1 1 0 011 1v1a1 1 0 01-1 1H1a1 1 0 01-1-1V6zm2 5H1v1h1v-1zm-1-1a1 1 0 00-1 1v1a1 1 0 001 1h1a1 1 0 001-1v-1a1 1 0 00-1-1H1zM5.344.75a.75.75 0 000 1.5H15.87a.75.75 0 000-1.5H5.344zm-.75 5.75a.75.75 0 01.75-.75H15.87a.75.75 0 010 1.5H5.344a.75.75 0 01-.75-.75zm.75 4.25a.75.75 0 000 1.5H15.87a.75.75 0 000-1.5H5.344z" clip-rule="evenodd"/></svg>
