<svg xmlns="http://www.w3.org/2000/svg" viewBox="0 0 32 32"><g data-name="Layer 2"><g data-name="Layer 1"><path fill="#fff" stroke="#363d42" stroke-linejoin="round" d="M17.27 21.92v2.45H.5V2.95h3.02"/><path fill="#fff" stroke="#363d42" stroke-linejoin="round" d="M20.29 21.92H3.52V.5h12.42l2.16 2.13 2.19 2.18v17.11z"/><path fill="#fff" stroke="#363d42" stroke-linejoin="round" d="M6.88 6.2h2v1.98h-2z"/><path fill="none" d="M6.88 10.15h2v1.98h-2z"/><path fill="#c7ddf6" stroke="#4d94e2" stroke-miterlimit="10" d="M24.85 21.52a3.63 3.63 0 000-1.2l1.44-1.11a.12.12 0 000-.14L25 16.81a.31.31 0 00-.37-.13l-1.54.61a4.08 4.08 0 00-1-.6l-.26-1.79a.11.11 0 00-.1-.09h-2.85a.12.12 0 00-.11.09l-.25 1.79a4.33 4.33 0 00-1 .6l-1.69-.68a.1.1 0 00-.13.05l-1.42 2.4a.12.12 0 000 .14l1.46 1.11v1.2l-1.43 1.11a.12.12 0 000 .14L15.6 25a.31.31 0 00.37.14l1.53-.61a4.33 4.33 0 001 .6l.25 1.79a.11.11 0 00.11.09h2.81a.11.11 0 00.1-.09l.26-1.79a4.08 4.08 0 001-.6l1.69.68a.12.12 0 00.14 0l1.38-2.49a.09.09 0 000-.06.07.07 0 000-.06z"/><ellipse cx="20.28" cy="20.92" fill="#fff" stroke="#4d94e2" stroke-miterlimit="10" rx="2.41" ry="2.38"/><path fill="#fff" stroke="#363d42" stroke-linejoin="round" d="M6.88 10.15h2v1.98h-2zm0 3.87h2V16h-2z"/><path fill="none" stroke="#363d42" stroke-linecap="round" stroke-linejoin="round" d="M10.84 7.19h5.97m-5.97 4.02h5.97m-5.97 3.8h2.97"/><path fill="#fff" stroke="#363d42" stroke-linejoin="round" d="M20.29 4.81h-4.35V.5l2.16 2.13 2.19 2.18z"/></g></g></svg>