<svg xmlns="http://www.w3.org/2000/svg" width="12" height="12" fill="none" viewBox="0 0 16 16"><path fill="#12344D" fill-rule="evenodd" d="M11.3.85H11V.7a.7.7 0 10-1.4 0v.15H4.37V.7A.7.7 0 003 .7v.15h-.3A2.7 2.7 0 000 3.55v7.75A2.7 2.7 0 002.7 14h8.6a2.7 2.7 0 002.7-2.7V3.55a2.7 2.7 0 00-2.7-2.7zm-8.6 1.4H3v.21a.7.7 0 101.4 0v-.21h5.26v.21a.7.7 0 101.4 0v-.21h.27a1.3 1.3 0 011.3 1.3V4H1.4v-.45a1.3 1.3 0 011.3-1.3zm8.6 10.35H2.7a1.3 1.3 0 01-1.3-1.3V5.36h11.2v5.94a1.3 1.3 0 01-1.3 1.3zM3.73 9.23a1 1 0 10-.098 1.998A1 1 0 003.73 9.23zm2.342.63a1 1 0 111.858.74 1 1 0 01-1.858-.74zm4.198-.63a1 1 0 10.003 2 1 1 0 00-.003-2zM2.771 7.101a1 1 0 111.818.835 1 1 0 01-1.818-.835zM7 6.52a1 1 0 100 2 1 1 0 000-2zm2.27 1a1 1 0 112 0 1 1 0 01-2 0z" clip-rule="evenodd"/></svg>