<svg xmlns="http://www.w3.org/2000/svg" width="14" height="15" fill="none" viewBox="0 0 14 15"><path fill="var(--color-icon-disabled)" fill-rule="evenodd" d="M11.6.85H11V.7a.7.7 0 10-1.4 0v.15H4.37V.7A.7.7 0 003 .7v.15h-.6A2.41 2.41 0 000 3.25v8.35A2.41 2.41 0 002.4 14h3.06a.7.7 0 100-1.4H2.4a1 1 0 01-1-1V5.36h11.2v.1a.7.7 0 101.4 0V3.25a2.41 2.41 0 00-2.4-2.4zM1.4 4v-.75a1 1 0 011-1H3v.21a.7.7 0 101.4 0v-.21h5.26v.21a.7.7 0 001.4 0v-.21h.57a1 1 0 011 1V4H1.4zm8.71 2.21a3.9 3.9 0 103.89 3.9 3.91 3.91 0 00-3.89-3.9zm0 6.39a2.49 2.49 0 110-4.98 2.49 2.49 0 010 4.98zm.7-3.19h.43a.7.7 0 110 1.4h-1.13a.7.7 0 01-.7-.7v-1.4a.7.7 0 111.4 0v.7z" clip-rule="evenodd"/></svg>
