<svg xmlns="http://www.w3.org/2000/svg" viewBox="0 0 32 32"><g stroke-linecap="round" stroke-linejoin="round" stroke-width=".875"><path fill="none" stroke="var(--color-icon-primary)" d="M18.7 22.3l6.4 7.2v-7.2h3.6c.5 0 .9-.4.9-.9V3.3c0-.5-.4-.9-.9-.9H3.3c-.5 0-.9.4-.9.9v18.1c0 .5.4.9.9.9h15.4z"/><path fill="var(--color-icon-semantic-info)" fill-opacity=".3" stroke="var(--color-icon-semantic-info)" d="M16.3 7.1l1.6 3.2 3.5.5c.1 0 .2.1.3.3 0 .1 0 .3-.1.4L19.1 14l.6 3.5c0 .1 0 .3-.1.4-.1.1-.3.1-.4 0L16 16.1l-3.1 1.6c-.1.1-.3.1-.4 0-.1-.1-.2-.2-.1-.4l.6-3.5-2.5-2.4c-.1-.1-.1-.2-.1-.4 0-.1.1-.2.3-.3l3.5-.5L15.8 7h.2c.1 0 .3 0 .3.1z"/></g></svg>
