<svg xmlns="http://www.w3.org/2000/svg" width="17" height="17" fill="none" viewBox="0 0 17 17"><path fill="var(--color-fill-neutral-bold)" fill-rule="evenodd" d="M7.502 15.763a.8.8 0 00.572.24.8.8 0 00.617-.24l1.668-1.703h2.971a2.754 2.754 0 002.743-2.754V2.747A2.754 2.754 0 0013.33.004H2.817A2.754 2.754 0 00.074 2.747v8.56a2.754 2.754 0 002.743 2.753h3.028l1.657 1.703zM1.674 2.747c0-.631.512-1.143 1.143-1.143h10.514c.63 0 1.142.512 1.142 1.143v8.57c0 .632-.511 1.144-1.143 1.144h-3.268a.8.8 0 00-.56.228l-1.428 1.383-1.337-1.394a.8.8 0 00-.56-.229h-3.36a1.143 1.143 0 01-1.143-1.143V2.747zm8.194 8.32a.697.697 0 00.365.09.82.82 0 00.48-.148.788.788 0 00.309-.777l-.343-2 1.451-1.371a.811.811 0 00.206-.823.8.8 0 00-.64-.537l-2.011-.297-.891-1.817a.846.846 0 00-1.44 0l-.892 1.817-2.01.297a.8.8 0 00-.64.537.811.811 0 00.205.823l1.451 1.428-.343 2a.789.789 0 00.309.777.789.789 0 00.846 0l1.794-.937 1.794.937zM8.45 8.517a.766.766 0 00-.377-.091.766.766 0 00-.422.091l-.72.377.182-.754a.823.823 0 00-.228-.709l-.594-.571.811-.171a.811.811 0 00.606-.446l.365-.732.366.789a.811.811 0 00.606.446l.811.114-.64.514a.823.823 0 00-.137.709l.137.811-.766-.377z" clip-rule="evenodd"/></svg>
