<svg width="16" height="16" viewBox="0 0 16 16" fill="none" xmlns="http://www.w3.org/2000/svg">
<rect width="16" height="16" fill="white" fill-opacity="0.01"/>
<path fill-rule="evenodd" clip-rule="evenodd" d="M6.41023 11.8202H12.2002V11.8102C12.8602 11.8102 13.4402 11.3702 13.6202 10.7302L14.9302 5.95023C15.0502 5.51023 14.9602 5.04023 14.6802 4.67023C14.4002 4.30023 13.9702 4.09023 13.5102 4.09023H4.97023L4.62023 2.19023C4.49023 1.50023 3.88023 0.990234 3.17023 0.990234H1.59023C1.26023 0.990234 0.990234 1.26023 0.990234 1.59023C0.990234 1.92023 1.26023 2.19023 1.59023 2.19023H3.17023C3.30023 2.19023 3.42023 2.28023 3.44023 2.41023L4.96023 10.6202C5.09023 11.3102 5.70023 11.8202 6.41023 11.8202ZM6.15023 10.3902L5.20023 5.29023V5.28023H13.5102C13.6302 5.28023 13.7002 5.35023 13.7302 5.39023C13.7702 5.43023 13.8102 5.52023 13.7802 5.63023L12.4702 10.4102C12.4402 10.5302 12.3302 10.6102 12.2102 10.6102H6.42023C6.29023 10.6102 6.17023 10.5202 6.15023 10.3902ZM7.12024 14.9902C6.53024 14.9902 6.06024 14.5102 6.06024 13.9302C6.06024 13.3502 6.54024 12.8702 7.12024 12.8702C7.70024 12.8702 8.18024 13.3502 8.18024 13.9302C8.18024 14.5102 7.70024 14.9902 7.12024 14.9902ZM6.98024 13.9302C6.98024 13.8519 7.03776 13.7928 7.11524 13.7903C7.19273 13.7928 7.25024 13.8519 7.25024 13.9302C7.25024 14.0802 6.98024 14.0802 6.98024 13.9302ZM11.5002 14.9902C10.9102 14.9902 10.4402 14.5102 10.4402 13.9302C10.4402 13.3502 10.9202 12.8702 11.5002 12.8702C12.0802 12.8702 12.5602 13.3502 12.5602 13.9302C12.5602 14.5102 12.0802 14.9902 11.5002 14.9902ZM11.3602 13.9302C11.3602 13.8519 11.4178 13.7928 11.4952 13.7903C11.5727 13.7928 11.6302 13.8519 11.6302 13.9302C11.6302 14.0802 11.3602 14.0802 11.3602 13.9302Z" fill="#12344D"/>
</svg>
