<svg width="16" height="19" viewBox="0 0 16 19" fill="none" xmlns="http://www.w3.org/2000/svg">
<path fill-rule="evenodd" clip-rule="evenodd" d="M8.9 1.4998C8.9 1.11321 8.5866 0.799805 8.2 0.799805C7.8134 0.799805 7.5 1.11321 7.5 1.4998V3.25391H4C3.44772 3.25391 3 3.70162 3 4.25391V8.25391C3 8.80619 3.44772 9.25391 4 9.25391H7.5V10.2539H1.5C0.947715 10.2539 0.5 10.7016 0.5 11.2539V15.2539C0.5 15.8062 0.947715 16.2539 1.5 16.2539H7.5V18.0998C7.5 18.4864 7.8134 18.7998 8.2 18.7998C8.5866 18.7998 8.9 18.4864 8.9 18.0998V16.2539H14.5C15.0523 16.2539 15.5 15.8062 15.5 15.2539V11.2539C15.5 10.7016 15.0523 10.2539 14.5 10.2539H8.9V9.25391H12C12.5523 9.25391 13 8.80619 13 8.25391V4.25391C13 3.70162 12.5523 3.25391 12 3.25391H8.9V1.4998ZM4.4 4.65391V7.85391H11.6V4.65391H4.4ZM1.9 11.6539V14.8539H14.1V11.6539H1.9Z" fill="#12344D"/>
</svg>