<svg width="16" height="16" viewBox="0 0 16 16" fill="none" xmlns="http://www.w3.org/2000/svg">
<path fill-rule="evenodd" clip-rule="evenodd" d="M12.6638 1H3.3363C2.04802 1.0048 1.00485 2.04797 1.00005 3.33625V9.16375C0.959895 10.5311 1.97657 11.7001 3.3363 11.85H10.6251L13.9501 14.8425C14.0624 14.9449 14.2093 15.0012 14.3613 15C14.4458 15.0004 14.5294 14.9825 14.6063 14.9475C14.8409 14.8605 14.9975 14.6377 15.0001 14.3875V3.33625C14.9953 2.04797 13.9521 1.0048 12.6638 1ZM13.7751 13.0138L11.2988 10.7825C11.1864 10.6801 11.0396 10.6238 10.8875 10.625H3.3363C2.75005 10.625 2.22505 9.8025 2.22505 9.16375V3.33625C2.22505 2.72252 2.72257 2.225 3.3363 2.225H12.6638C13.2775 2.225 13.7751 2.72252 13.7751 3.33625V13.0138ZM11.5001 4.5H4.50005C4.16178 4.5 3.88755 4.77423 3.88755 5.1125C3.88755 5.45077 4.16178 5.725 4.50005 5.725H11.5001C11.8383 5.725 12.1126 5.45077 12.1126 5.1125C12.1126 4.77423 11.8383 4.5 11.5001 4.5ZM4.50005 7.125H8.87505C9.21333 7.125 9.48755 7.39923 9.48755 7.7375C9.48755 8.07577 9.21333 8.35 8.87505 8.35H4.50005C4.16178 8.35 3.88755 8.07577 3.88755 7.7375C3.88755 7.39923 4.16178 7.125 4.50005 7.125Z" fill="var(--color-icon-primary)"/>
</svg>
