<svg width="24" height="24" viewBox="0 0 24 24" fill="none" xmlns="http://www.w3.org/2000/svg">
<g clip-path="url(#clip0_2366_27540)">
<path d="M12.0048 0.5C18.3561 0.5 23.5048 5.64873 23.5048 12C23.5048 18.3513 18.3561 23.5 12.0048 23.5C10.0838 23.5 8.22993 23.0278 6.57547 22.1401L2.07044 23.4928C1.40925 23.6913 0.712294 23.3163 0.513749 22.6551C0.443305 22.4205 0.443335 22.1704 0.51383 21.9358L1.86691 17.4333C0.977838 15.7779 0.504824 13.9226 0.504824 12C0.504824 5.64873 5.65355 0.5 12.0048 0.5ZM12.0048 2C6.48198 2 2.00482 6.47715 2.00482 12C2.00482 13.7703 2.46479 15.4718 3.32666 16.9725L3.48751 17.2526L2.0841 21.9225L6.75606 20.5197L7.03595 20.6803C8.53576 21.5408 10.236 22 12.0048 22C17.5277 22 22.0048 17.5228 22.0048 12C22.0048 6.47715 17.5277 2 12.0048 2ZM8.25482 13.5H12.7531C13.1673 13.5 13.5031 13.8358 13.5031 14.25C13.5031 14.6297 13.2209 14.9435 12.8549 14.9932L12.7531 15H8.25482C7.84061 15 7.50482 14.6642 7.50482 14.25C7.50482 13.8703 7.78698 13.5565 8.15305 13.5068L8.25482 13.5H12.7531H8.25482ZM8.25482 9H15.7593C16.1735 9 16.5093 9.33579 16.5093 9.75C16.5093 10.1297 16.2271 10.4435 15.8611 10.4932L15.7593 10.5H8.25482C7.84061 10.5 7.50482 10.1642 7.50482 9.75C7.50482 9.3703 7.78698 9.05651 8.15305 9.00685L8.25482 9H15.7593H8.25482Z" fill="var(--color-icon-primary)"/>
</g>
<defs>
<clipPath id="clip0_2366_27540">
<rect width="24" height="24" fill="var(--color-text-inverse)"/>
</clipPath>
</defs>
</svg>
