<?xml version="1.0" encoding="utf-8"?>
<!-- Generator: Adobe Illustrator 24.2.3, SVG Export Plug-In . SVG Version: 6.00 Build 0)  -->
<svg version="1.1" id="Layer_1" xmlns="http://www.w3.org/2000/svg" xmlns:xlink="http://www.w3.org/1999/xlink" x="0px" y="0px"
	 viewBox="0 0 16 16" style="enable-background:new 0 0 16 16;" xml:space="preserve">
<style type="text/css">
	.st0{fill-rule:evenodd;clip-rule:evenodd;fill:var(--color-icon-primary);}
</style>
<path class="st0" d="M13.7,6.5h0.5c0.3,0,0.5,0.2,0.5,0.5v2c0,0.3-0.2,0.5-0.5,0.5h-1.6v3.8h1.1c0.3,0,0.5,0.2,0.5,0.5
	c0,0.3-0.2,0.5-0.5,0.5H2.2c-0.3,0-0.5-0.2-0.5-0.5c0-0.3,0.2-0.5,0.5-0.5h1.1V9.5H1.7C1.5,9.5,1.2,9.3,1.2,9V7
	c0-0.3,0.2-0.5,0.5-0.5h0.5V3.3C2,3.1,1.9,2.9,1.9,2.6c0-0.5,0.4-0.9,0.9-0.9s0.9,0.4,0.9,0.9c0,0.3-0.2,0.5-0.4,0.7v3.2h0.3
	c0.6-1.7,2.1-3,3.9-3.2V2.9c0-0.3,0.2-0.5,0.5-0.5c0.3,0,0.5,0.2,0.5,0.5v0.4c1.8,0.2,3.4,1.4,4,3.2h0.3V3.3
	c-0.2-0.2-0.4-0.4-0.4-0.7c0-0.5,0.4-0.9,0.9-0.9s0.9,0.4,0.9,0.9c0,0.3-0.2,0.5-0.4,0.7V6.5z M4.3,8.9V9v2h2l1.4-1.3
	c0.2-0.2,0.5-0.2,0.7,0L9.8,11h2V8.9H4.3z M7.5,4.3v1c0,0.3,0.2,0.5,0.5,0.5c0.3,0,0.5-0.2,0.5-0.5v-1c1.8,0.2,3.2,1.8,3.2,3.6H4.3
	C4.3,6.1,5.7,4.5,7.5,4.3z M2.2,7.5v1.1h1.1V7.5H2.2z M4.3,13.3V12h2.2c0.1,0,0.2,0,0.3-0.1L8,10.8l1.2,1.1C9.3,12,9.5,12,9.6,12
	h2.2v1.3H4.3z M12.7,8.5h1.1V7.5h-1.1V8.5z"/>
</svg>
