<svg width="14" height="16" viewBox="0 0 14 16" fill="none" xmlns="http://www.w3.org/2000/svg">
<path d="M12.8171 6.36855L10.1999 5.64876V3.38657C10.1999 2.75818 9.77704 2.20977 9.18276 2.03839L1.90276 0.0504056C1.49133 -0.0638466 1.0457 0.0161289 0.702846 0.290334C0.359989 0.553114 0.154297 0.964423 0.154297 1.39858V15.3145C0.154297 15.6915 0.46284 16 0.839983 16H13.16C13.5372 16 13.8457 15.6915 13.8457 15.3145V7.70529C13.8457 7.07691 13.4228 6.5285 12.8285 6.35712L12.8171 6.36855ZM1.52567 14.6404V1.38715L8.82854 3.38657V14.6404H1.52567ZM12.4742 14.6404H10.1999V7.07691L12.4742 7.70529V14.6404Z" fill="var(--color-icon-primary)"/>
<path d="M6.30287 5.55769H3.68569C3.30854 5.55769 3 5.86617 3 6.2432C3 6.62024 3.30854 6.92872 3.68569 6.92872H6.30287C6.68002 6.92872 6.98856 6.62024 6.98856 6.2432C6.98856 5.86617 6.68002 5.55769 6.30287 5.55769Z" fill="var(--color-icon-primary)"/>
<path d="M6.30287 10.07H3.68569C3.30854 10.07 3 10.3785 3 10.7555C3 11.1325 3.30854 11.441 3.68569 11.441H6.30287C6.68002 11.441 6.98856 11.1325 6.98856 10.7555C6.98856 10.3785 6.68002 10.07 6.30287 10.07Z" fill="var(--color-icon-primary)"/>
</svg>
