<svg xmlns="http://www.w3.org/2000/svg" data-name="Layer 2" viewBox="0 0 16 16"><path d="M2.94 5.34A3.77 3.77 0 011.84 8a3.77 3.77 0 011.1 2.66v2.67a1.27 1.27 0 001.28 1.27H5A.7.7 0 115 16h-.78a2.68 2.68 0 01-2.68-2.67v-2.67A2.36 2.36 0 00.35 8.61a.71.71 0 010-1.22 2.36 2.36 0 001.19-2V2.67A2.68 2.68 0 014.22 0H5a.7.7 0 01.71.7.7.7 0 01-.71.7h-.78a1.27 1.27 0 00-1.28 1.27zm12.72 2.05a2.36 2.36 0 01-1.19-2V2.67A2.68 2.68 0 0011.79 0H11a.7.7 0 000 1.4h.79a1.27 1.27 0 011.28 1.27v2.67A3.77 3.77 0 0014.17 8a3.77 3.77 0 00-1.1 2.66v2.67a1.27 1.27 0 01-1.28 1.27H11a.7.7 0 000 1.4h.79a2.68 2.68 0 002.68-2.67v-2.67a2.36 2.36 0 011.19-2.05.72.72 0 000-1.22z"/></svg>