<svg xmlns="http://www.w3.org/2000/svg" width="15" height="13" viewBox="0 0 23 21">
    <path fill-rule="nonzero" fill="var(--color-fill-neutral-bold)" d="M10.856 12.665l1.395-.115 8.575-8.9c.338-.353.327-.935-.027-1.303-.354-.368-.916-.38-1.255-.03l-8.577 8.903-.11 1.445zM22.128.956c1.129 1.169 1.166 3.026.085 4.144l-8.972 9.315a.301.301 0 0 1-.194.091l-3.338.276c-.442.037-.845-.308-.899-.769a.767.767 0 0 1-.003-.168l.264-3.464a.323.323 0 0 1 .09-.2L18.136.866c1.079-1.12 2.867-1.081 3.993.09zM2.6 19.052v-7.577h-.36c-.52 0-.94-.437-.94-.976 0-.537.42-.973.94-.973h.36V1.95H.94C.42 1.949 0 1.512 0 .974 0 .437.42 0 .938 0h5.056c.518 0 .94.436.94.974s-.422.975-.94.975H4.55v7.577h.36c.52 0 .94.436.94.973 0 .539-.42.976-.94.976h-.36v7.577h1.444c.518 0 .94.435.94.974 0 .538-.422.974-.94.974H.938C.421 21 0 20.564 0 20.026c0-.539.42-.974.938-.974H2.6z"/>
</svg>
