<?xml version="1.0" encoding="UTF-8" standalone="no"?>
<svg width="512px" height="512px" viewBox="0 0 512 512" version="1.1" xmlns="http://www.w3.org/2000/svg" xmlns:xlink="http://www.w3.org/1999/xlink">
    <g id="Page-1" stroke="none" stroke-width="1" fill="none" fill-rule="evenodd">
        <g id="Capa_1" transform="translate(19.000000, 28.000000)" fill="#000000">
            <g id="Page-1">
                <g>
                    <g id="Capa_1">
                        <g id="_x32__26_">
                            <path d="M311.354494,245.4375 L163.090449,245.4375 C154.906274,245.4375 148.264045,251.9055 148.264045,259.875 C148.264045,267.8445 154.906274,274.3125 163.090449,274.3125 L311.354494,274.3125 C319.53867,274.3125 326.180899,267.8445 326.180899,259.875 C326.180899,251.9055 319.53867,245.4375 311.354494,245.4375 L311.354494,245.4375 Z M341.007303,158.8125 L133.43764,158.8125 C125.253465,158.8125 118.611236,165.2805 118.611236,173.25 C118.611236,181.2195 125.253465,187.6875 133.43764,187.6875 L341.007303,187.6875 C349.191479,187.6875 355.833708,181.2195 355.833708,173.25 C355.833708,165.2805 349.191479,158.8125 341.007303,158.8125 L341.007303,158.8125 Z M237.222472,0 C106.216749,0 0,90.4938725 0,202.125 C0,265.924784 34.7678217,322.721343 88.958427,359.768158 L88.958427,462 L192.876599,400.597029 C207.258793,402.907784 222.054963,404.25 237.222472,404.25 C368.243698,404.25 474.444944,313.756128 474.444944,202.125 C474.444944,90.4938725 368.243698,0 237.222472,0 L237.222472,0 Z M237.222472,375.375 C219.905231,375.375 203.181047,373.4115 187.108837,370.076342 L117.305737,410.933902 L118.239897,343.973342 C64.7322758,312.629814 29.652809,260.828441 29.652809,202.125 C29.652809,106.447971 122.584325,28.875 237.222472,28.875 C351.86062,28.875 444.792135,106.447971 444.792135,202.125 C444.792135,297.802029 351.86062,375.375 237.222472,375.375 L237.222472,375.375 Z" id="Shape"></path>
                        </g>
                    </g>
                </g>
            </g>
        </g>
    </g>
</svg>