<svg width="13" height="16" viewBox="0 0 13 16" fill="none" xmlns="http://www.w3.org/2000/svg">
<path fill-rule="evenodd" clip-rule="evenodd" d="M4.1001 4.32249C4.58713 5.493 5.73214 6.25411 6.99992 6.25007C8.72077 6.24458 10.1144 4.85092 10.1199 3.13007C10.124 1.86229 9.36285 0.71728 8.19234 0.230253C7.02184 -0.256775 5.67315 0.0103787 4.77669 0.906838C3.88023 1.8033 3.61308 3.15199 4.1001 4.32249ZM5.39449 2.46107C5.66542 1.81494 6.2993 1.39602 6.99992 1.40007C7.95146 1.40557 8.71993 2.1785 8.71992 3.13007C8.7199 3.83069 8.29731 4.46214 7.64963 4.72931C7.00194 4.99649 6.25706 4.84663 5.76308 4.34978C5.2691 3.85293 5.12357 3.10719 5.39449 2.46107ZM1.16992 15.7501C1.29884 15.9103 1.49424 16.0025 1.69992 16.0001H12.2999H12.3099C12.5154 15.9968 12.7094 15.9046 12.8418 15.7473C12.9741 15.59 13.0318 15.3831 12.9999 15.1801L12.1299 10.0001C11.8806 8.51014 10.5906 7.4189 9.07992 7.42007H4.91992C3.40927 7.4189 2.11924 8.51014 1.86992 10.0001L0.999916 15.1801C0.961226 15.3864 1.02454 15.5987 1.16992 15.7501ZM11.4699 14.6001H2.52992L3.24992 10.2301C3.39066 9.41708 4.09484 8.82253 4.91992 8.82007H9.07992C9.90499 8.82253 10.6092 9.41708 10.7499 10.2301L11.4699 14.6001Z" fill="var(--color-text-primary)"/>
</svg>
