<svg width="26" height="26" viewBox="0 0 26 26" fill="none" xmlns="http://www.w3.org/2000/svg">
<path d="M12.2 18.6C12.2 20.2974 12.8743 21.9252 14.0746 23.1255C15.2748 24.3258 16.9026 25 18.6 25C20.2974 25 21.9252 24.3258 23.1255 23.1255C24.3258 21.9252 25 20.2974 25 18.6C25 16.9026 24.3258 15.2748 23.1255 14.0746C21.9252 12.8743 20.2974 12.2 18.6 12.2C16.9026 12.2 15.2748 12.8743 14.0746 14.0746C12.8743 15.2748 12.2 16.9026 12.2 18.6Z" stroke="#12344D" stroke-width="2" stroke-linecap="round" stroke-linejoin="round"/>
<path d="M18.6 15.4V21.8" stroke="#12344D" stroke-width="2" stroke-linecap="round" stroke-linejoin="round"/>
<path d="M15.4 18.6H21.8" stroke="#12344D" stroke-width="2" stroke-linecap="round" stroke-linejoin="round"/>
<path d="M9 21.8H2.6C2.17566 21.8 1.76868 21.6315 1.46863 21.3314C1.16857 21.0314 1 20.6243 1 20.2V2.6C1 2.17566 1.16857 1.76868 1.46863 1.46863C1.76868 1.16857 2.17566 1 2.6 1H13.9376C14.3616 1.00009 14.7683 1.16851 15.0683 1.46827L18.1317 4.53173C18.4315 4.83168 18.5999 5.23835 18.6 5.6624V9" stroke="#12344D" stroke-width="2" stroke-linecap="round" stroke-linejoin="round"/>
</svg>
