<svg width="10" height="11" viewBox="0 0 10 11" fill="none" xmlns="http://www.w3.org/2000/svg">
<path fill-rule="evenodd" clip-rule="evenodd" d="M6.84699 5.39749L9.61748 2.79419C10.1275 2.31494 10.1275 1.53791 9.61748 1.05866C9.10744 0.579405 8.28052 0.579405 7.77049 1.05866L5 3.66196L2.22951 1.05866C1.71948 0.579405 0.892557 0.579405 0.382524 1.05866C-0.127508 1.53791 -0.127508 2.31494 0.382524 2.79419L3.15301 5.39749L0.382524 8.0008C-0.127508 8.48005 -0.127508 9.25707 0.382524 9.73633C0.892557 10.2156 1.71948 10.2156 2.22951 9.73633L5 7.13303L7.77049 9.73633C8.28052 10.2156 9.10744 10.2156 9.61748 9.73633C10.1275 9.25707 10.1275 8.48005 9.61748 8.0008L6.84699 5.39749Z" fill="var(--color-text-placeholder)"/>
</svg>
