<svg width="16" height="16" fill="none" viewBox="0 0 16 16"><path fill="#00A886" fill-rule="evenodd" d="M16 7V3.333a.037.037 0 00-.002-.011l-.002-.01a.328.328 0 00-.018-.085l-.003-.01a.33.33 0 00-.077-.12l-3.13-3a.338.338 0 00-.128-.073l-.007-.002a.339.339 0 00-.091-.018c-.003 0-.005 0-.008-.002A.042.042 0 0012.522 0H3.826a.34.34 0 00-.348.333V7H0v7h3.478v1.667a.34.34 0 00.348.333h11.826a.34.34 0 00.348-.333V7zm-1.188-4H12.87V1.138L14.812 3zM12.174.667h-8V7h11.13V3.667h-2.782a.34.34 0 01-.348-.334V.667zM15.304 7v8.333H4.174V14h8.695V7h2.435zm-3.13 6.333H.696V7.667h11.478v5.666zM6.23 9.196a.47.47 0 00-.293.275.66.66 0 00-.044.255c0 .17.054.301.16.393.106.093.246.181.42.264.102.049.207.106.313.17.107.064.203.142.29.232.087.091.158.199.213.323.055.125.083.272.083.442 0 .197-.033.37-.098.522a1.15 1.15 0 01-.26.382 1.076 1.076 0 01-.382.235c-.146.053-.3.08-.461.08-.233 0-.447-.044-.645-.13a1.357 1.357 0 01-.473-.33l.385-.498a.973.973 0 00.721.34c.15 0 .275-.049.373-.147.098-.099.148-.236.148-.414a.518.518 0 00-.178-.414 2.034 2.034 0 00-.449-.283 2.7 2.7 0 01-.322-.176c-.1-.064-.19-.14-.266-.23a1.026 1.026 0 01-.184-.311 1.204 1.204 0 01-.068-.428c0-.207.035-.386.104-.535a1.096 1.096 0 01.654-.59 1.546 1.546 0 011.002.028 1.1 1.1 0 01.422.293l-.39.487a.734.734 0 00-.775-.235zm-3.039.422a.918.918 0 01.266-.315.617.617 0 01.373-.116.74.74 0 01.626.335l.408-.476a1.13 1.13 0 00-.443-.366 1.476 1.476 0 00-.633-.127c-.232 0-.444.052-.636.155a1.47 1.47 0 00-.488.437 2.13 2.13 0 00-.31.668c-.073.26-.109.542-.109.848 0 .306.037.587.11.844.072.257.175.479.307.666.132.187.293.333.485.439.19.106.405.159.641.159.26 0 .476-.05.648-.148.171-.098.312-.226.422-.385l-.408-.459a.94.94 0 01-.25.25.622.622 0 01-.358.101.638.638 0 01-.382-.116.902.902 0 01-.27-.314 1.66 1.66 0 01-.159-.468 2.929 2.929 0 01-.053-.57c0-.203.018-.395.053-.575.036-.179.09-.335.16-.467zm5.836 2.255h.018l.698-3.218h.757l-1.04 4.012h-.9L7.538 8.655h.792l.698 3.218z" class="Combined Shape" clip-rule="evenodd"/></svg>