<svg xmlns="http://www.w3.org/2000/svg" width="32" height="32" fill="none" viewBox="0 0 32 32"><path fill="var(--color-icon-semantic-success)" fill-rule="evenodd" d="M27.14 6.22h2A2.86 2.86 0 0132 9.08v3.52a6.26 6.26 0 01-5.9 6.22 11.22 11.22 0 01-8.7 6.38v4h3.46a1.4 1.4 0 110 2.8h-9.72a1.4 1.4 0 110-2.8h3.46v-4A11.22 11.22 0 016 18.82a6.26 6.26 0 01-6-6.22V9.08a2.86 2.86 0 012.86-2.86h2V2.8A2.8 2.8 0 017.66 0h16.68a2.8 2.8 0 012.8 2.8v3.42zM2.8 9.02v3.58a3.44 3.44 0 002.14 3.2 11.1 11.1 0 01-.14-1.64V9.02h-2zm4.86 5.14a8.34 8.34 0 0016.68 0V2.8H7.66v11.36zM27 15.78a3.52 3.52 0 002.2-3.18l-.06-3.56h-2v5.12a11.073 11.073 0 01-.14 1.62zM17.78 9.7l1.18.18a1.38 1.38 0 011.14 1.04 1.42 1.42 0 01-.36 1.44l-.86.84.2 1.16a1.4 1.4 0 01-.54 1.38 1.44 1.44 0 01-1.48 0L16 15.18l-.96.46a1.46 1.46 0 01-1.48 0 1.4 1.4 0 01-.54-1.38l.2-1.16-.86-.84a1.42 1.42 0 01-.36-1.44c.15-.48.548-.84 1.04-.94l1.18-.18.52-1.06a1.46 1.46 0 012.52 0l.52 1.06z" clip-rule="evenodd"/></svg>
