<svg width="16" height="16" viewBox="0 0 16 16" fill="none" xmlns="http://www.w3.org/2000/svg">
<path fill-rule="evenodd" clip-rule="evenodd" d="M8 1C4.13401 1 1 4.13401 1 8C1 11.866 4.13401 15 8 15C11.866 15 15 11.866 15 8C15 6.14348 14.2625 4.36301 12.9497 3.05025C11.637 1.7375 9.85652 1 8 1ZM8 13.775C4.81056 13.775 2.225 11.1894 2.225 8C2.225 4.81056 4.81056 2.225 8 2.225C11.1894 2.225 13.775 4.81056 13.775 8C13.7702 11.1874 11.1874 13.7702 8 13.775Z" fill="#475867"/>
<path fill-rule="evenodd" clip-rule="evenodd" d="M8.326 9.77068H6.87562L10.515 6.13755C10.6874 5.96376 10.6874 5.68347 10.515 5.50968C10.4332 5.42368 10.3198 5.375 10.2011 5.375C10.0824 5.375 9.96893 5.42368 9.88715 5.50968L6.25402 9.14908V7.6987C6.25402 7.45596 6.05725 7.25919 5.81451 7.25919C5.57178 7.25919 5.375 7.45596 5.375 7.6987V10.2102C5.37574 10.2681 5.38636 10.3254 5.40639 10.3797C5.45322 10.4863 5.53837 10.5715 5.64499 10.6183C5.70114 10.6272 5.75835 10.6272 5.81451 10.6183H8.326C8.56874 10.6183 8.76551 10.4215 8.76551 10.1788C8.76551 9.93606 8.56874 9.73928 8.326 9.73928V9.77068Z" fill="#475867"/>
</svg>
