<svg width="18" height="18" viewBox="0 0 18 18" fill="none" xmlns="http://www.w3.org/2000/svg">
<path d="M10.9463 10.4013V7.67632C10.9463 7.33233 10.6674 7.05347 10.3234 7.05347H7.59843C7.25444 7.05347 6.97557 7.33233 6.97557 7.67632V10.4013C6.97557 10.7453 7.25444 11.0242 7.59843 11.0242H10.3234C10.6674 11.0242 10.9463 10.7453 10.9463 10.4013Z" stroke="var(--color-icon-primary)" stroke-width="1.28571" stroke-miterlimit="10" stroke-linecap="round" stroke-linejoin="round"/>
<path d="M13.983 9.00004H15.7737M13.983 11.6473H15.7737M13.983 6.35309H15.7737M2.22656 9.00016H4.01728M2.22656 11.6474H4.01728M2.22656 6.35322H4.01728M9.0001 13.9831V15.7739M6.35291 13.9833V15.774M11.6473 13.9831V15.7739M9.0001 2.22662V4.01734M6.35291 2.22656V4.01728M11.6473 2.22662V4.01734M4.87365 4.32865H13.2044C13.5054 4.32865 13.7494 4.57266 13.7494 4.87365V13.2044C13.7494 13.5054 13.5054 13.7494 13.2044 13.7494H4.87365C4.57266 13.7494 4.32865 13.5054 4.32865 13.2044V4.87365C4.32865 4.57266 4.57266 4.32865 4.87365 4.32865Z" stroke="var(--color-icon-primary)" stroke-width="1.28571" stroke-miterlimit="10" stroke-linecap="round" stroke-linejoin="round"/>
</svg>
