<svg width="26" height="26" viewBox="0 0 26 26" fill="none" xmlns="http://www.w3.org/2000/svg">
<rect x="1" y="1" width="24" height="24" rx="4" fill="url(#paint0_linear_3607_27356)"/>
<rect x="1" y="1" width="24" height="24" rx="4" stroke="#CFD7DF"/>
<rect width="16" height="16" transform="translate(5 5)" fill="white" fill-opacity="0.01"/>
<path fill-rule="evenodd" clip-rule="evenodd" d="M19.4 7.84H16.03V7.58C16.03 6.71 15.32 6 14.45 6H11.56C10.69 6 9.98 6.71 9.98 7.58V7.84H6.6C6.27 7.84 6 8.11 6 8.44C6 8.77 6.27 9.04 6.6 9.04H7.95V18.21C7.95 19.2 8.75 20 9.74 20H16.24C17.23 20 18.03 19.2 18.03 18.21V9.04H19.4C19.73 9.04 20 8.77 20 8.44C20 8.11 19.73 7.84 19.4 7.84ZM11.17 7.58C11.17 7.37 11.34 7.2 11.55 7.2H14.44C14.65 7.2 14.82 7.37 14.82 7.58V7.84H11.16V7.58H11.17ZM16.83 18.21C16.83 18.54 16.56 18.8 16.24 18.8H9.74C9.41 18.8 9.15 18.54 9.15 18.21V9.04H16.83V18.21ZM11.5 17.05C11.83 17.05 12.1 16.78 12.1 16.45V11.26C12.1 10.93 11.83 10.66 11.5 10.66C11.17 10.66 10.9 10.93 10.9 11.26V16.45C10.9 16.78 11.17 17.05 11.5 17.05ZM15.08 16.48C15.08 16.81 14.81 17.08 14.48 17.08C14.15 17.08 13.88 16.81 13.88 16.48V11.29C13.88 10.96 14.15 10.69 14.48 10.69C14.81 10.69 15.08 10.96 15.08 11.29V16.48Z" fill="#264966"/>
<defs>
<linearGradient id="paint0_linear_3607_27356" x1="1.81633" y1="1.61333" x2="1.81633" y2="23.9807" gradientUnits="userSpaceOnUse">
<stop stop-color="white"/>
<stop offset="1" stop-color="#F5F7F9"/>
</linearGradient>
</defs>
</svg>
