<svg focusable="false" xmlns="http://www.w3.org/2000/svg" data-name="Layer 2" viewBox="0 0 16 16"><path d="M6.17 5a.7.7 0 00-.7.7v6.6a.71.71 0 001.41 0V5.7a.7.7 0 00-.71-.7zm2.95.7v6.6a.71.71 0 001.41 0V5.7a.71.71 0 00-1.41 0z"/><path d="M14.3 2h-3.63v-.3A1.7 1.7 0 009 0H7a1.7 1.7 0 00-1.7 1.7V2H1.7a.7.7 0 000 1.4H2v9.93A2.67 2.67 0 004.66 16h6.68A2.67 2.67 0 0014 13.33V3.4h.3a.7.7 0 000-1.4zm-7.57-.3A.29.29 0 017 1.4h2a.29.29 0 01.3.3V2H6.73zm5.87 11.63a1.27 1.27 0 01-1.26 1.27H4.66a1.27 1.27 0 01-1.26-1.27V3.4h9.2z"/></svg>
