<svg xmlns="http://www.w3.org/2000/svg" width="16" height="15" fill="none" viewBox="0 0 16 15"><path fill="var(--color-fill-neutral-bold)" fill-rule="evenodd" d="M8.65 2.25L7.24 3.66l.01.01a.707.707 0 01-1-1l1.41-1.41a4.303 4.303 0 116.08 6.09l-1.41 1.41a.66.66 0 01-.49.2.69.69 0 01-.5-.2.71.71 0 010-1l1.41-1.41a2.9 2.9 0 000-4.1 3 3 0 00-4.1 0zM5.28 3a.7.7 0 01-.61-.36l-.76-1.33a.7.7 0 111.21-.7l.77 1.3a.7.7 0 01-.26 1 .73.73 0 01-.35.09zM2.94 4.89l-1.33-.77a.7.7 0 11.7-1.21l1.33.74a.71.71 0 01.26 1 .7.7 0 01-.61.35.73.73 0 01-.35-.11zm6.57-.39l-4 4a.69.69 0 000 1 .67.67 0 00.49.21.7.7 0 00.5-.21l4-4a.69.69 0 000-1 .71.71 0 00-.99 0zm4.88 5.38l-1.33-.77a.703.703 0 00-.7 1.22l1.33.76a.64.64 0 00.35.1.7.7 0 00.35-1.31zm-3.06 1.48a.704.704 0 00-1.22.7l.77 1.33a.7.7 0 00.61.35.73.73 0 00.35-.09.7.7 0 00.25-1l-.76-1.29zm-2.57-1.02l-1.41 1.41a3 3 0 01-4.1 0 2.9 2.9 0 010-4.1l1.41-1.41a.707.707 0 00-1-1l-1.4 1.42a4.3 4.3 0 106.08 6.08l1.41-1.41a.707.707 0 00-1-1l.01.01z" clip-rule="evenodd"/></svg>
