<svg xmlns="http://www.w3.org/2000/svg" width="20" height="20" fill="none" viewBox="0 0 20 20"><path fill="#264966" fill-rule="evenodd" d="M2.714 11.85a2.89 2.89 0 002.19 1h2.38l-.8 2a2.34 2.34 0 00-.16.86 2.29 2.29 0 004.42.86l1.2-3a1.77 1.77 0 011.2-1.06l.28-.07a1.71 1.71 0 001.47.86h2.42a.7.7 0 00.7-.7V2.68a.7.7 0 00-.7-.7h-2.42a1.7 1.7 0 00-1.54 1h-7c-2.08 0-3.44 1-3.69 2.55l-.65 4a2.89 2.89 0 00.7 2.32zm12.18-8.47h1.72v8.54h-1.72a.29.29 0 01-.29-.3V3.68a.3.3 0 01.29-.3zM4.044 5.74l-.61 4a1.49 1.49 0 001.47 1.72h3.46a.7.7 0 01.65.96l-1.23 2.97a1 1 0 00-.06.33.88.88 0 00.56.83.89.89 0 00.68 0 .92.92 0 00.48-.49l1.2-3a3.2 3.2 0 012.16-1.89l.4-.1V4.38h-6.89c-.94 0-2.09.24-2.27 1.36z" clip-rule="evenodd"/></svg>