<svg width="32" height="32" viewBox="0 0 16 16" fill="none" xmlns="http://www.w3.org/2000/svg" class="svg-downvote">
  <path
    d="M9.62992 8.75C9.62992 8.75 10.4499 8.75 12.6499 8.75C13.2399 8.75 13.7299 8.29 13.7699 7.7C13.9099 5.28 12.9599 3.85 12.4099 3.24C12.1999 3.01 11.8999 2.88 11.5899 2.88H5.16992V9.19C5.16992 9.19 7.54992 9.32 8.28992 11.18C9.02992 13.04 8.57992 13.75 9.40992 13.75C10.2399 13.75 10.6599 12.48 10.6599 11.44C10.6599 10 9.61992 8.75 9.61992 8.75H9.62992Z"
    stroke="var(--color-icon-primary)" stroke-width="0.8" />
  <path
    d="M5.17996 9.85011V2.24011H2.79996C2.47996 2.24011 2.20996 2.50011 2.20996 2.83011V9.27011C2.20996 9.59011 2.46996 9.86011 2.79996 9.86011H5.17996V9.85011Z"
    stroke="var(--color-icon-primary)" stroke-width="0.8" />
</svg>