<svg width="32" height="32" viewBox="0 0 16 16" xmlns="http://www.w3.org/2000/svg" class="svg-downvote-fill">
  <path
    d="M9.62992 8.75C9.62992 8.75 10.4499 8.75 12.6499 8.75C13.2399 8.75 13.7299 8.29 13.7699 7.7C13.9099 5.28 12.9599 3.85 12.4099 3.24C12.1999 3.01 11.8999 2.88 11.5899 2.88L6 2.88L6 9.19C6 9.19 7.54992 9.32 8.28992 11.18C9.02992 13.04 8.57992 13.75 9.40992 13.75C10.2399 13.75 10.6599 12.48 10.6599 11.44C10.6599 10 9.61992 8.75 9.61992 8.75L9.62992 8.75Z" />
  <path
    d="M5.17996 9.8501L5.17996 2.49999L2.79996 2.49999C2.47996 2.49999 2.20996 2.75999 2.20996 3.08999L2.20996 9C2.20996 9.32 2.46996 9.59 2.79996 9.59L5.17996 9.59L5.17996 9.8501Z" />
</svg>