<svg xmlns="http://www.w3.org/2000/svg" width="16" height="16" fill="none" viewBox="0 0 16 16"><mask id="fs-3h6rmfjjfa" style="mask-type:alpha" width="14" height="16" x="1" y="0" maskUnits="userSpaceOnUse"><path fill="var(--color-icon-inverse)" fill-rule="evenodd" d="M10.178 1.789l-.859.859-.505-.503H2.418v11.71h9.741V7.701l1.218-1.218v7.574c0 .558-.454 1.01-1.015 1.01H2.215c-.56 0-1.015-.452-1.015-1.01V1.943c0-.558.455-1.01 1.015-1.01h7.103l.86.856zm4.08-.134c.694.693.697 1.815.007 2.505L8.529 9.896a.201.201 0 01-.123.058l-2.097.206a.51.51 0 01-.556-.555l.206-2.097a.201.201 0 01.058-.123l5.737-5.736a1.771 1.771 0 012.505.006zM7.923 8.781l-.876.086.087-.876 5.481-5.481a.557.557 0 01.788.002c.218.218.218.57.002.787L7.923 8.78z" clip-rule="evenodd"/></mask><g mask="url(#fs-3h6rmfjjfa)"><path fill="var(--color-icon-semantic-info)" d="M0 0h16v16H0z"/></g></svg>
