<svg xmlns="http://www.w3.org/2000/svg" viewBox="0 0 32 32"><g stroke-linejoin="round" stroke-width=".875"><path fill="none" stroke="var(--color-icon-primary)" d="M11.5 12.586c0-2.2-1.8-4-4-4s-4 1.8-4 4c0 .3 0 .6.1.9 0 .2-.1.4-.1.6 0 .7.3 1.2.6 1.2.1 0 .1 0 .2-.1.5 1.8 1.7 3.1 3.2 3.1s2.7-1.3 3.2-3.1c.1 0 .1.1.2.1.3 0 .6-.6.6-1.2 0-.2 0-.5-.1-.7.1-.2.1-.5.1-.8z"/><path fill="var(--color-fill-semantic-highlight-mild)" fill-opacity=".3" stroke="var(--color-fill-semantic-highlight-mild)" d="M11.5 12.586c0-2.2-1.8-4-4-4s-4 1.8-4 4c0 .3 0 .6.1.9h.9s-.1-1.8.3-1.8 1.8.1 1.8-1.2c0 .6 1.8 1.8 3.7 1.8 0 .4.1.8.3 1.2h.8c.1-.3.1-.6.1-.9z"/><g fill="none" stroke="var(--color-icon-primary)"><path stroke-linecap="round" d="M1.2 24.886v-1c0-3.5 2.8-5.2 6.3-5.2 1.4 0 2.5.3 3.6.8"/><path d="M23.329 8.7c0-3-2.4-5.4-5.4-5.4s-5.4 2.5-5.4 5.4c0 .4.1.8.1 1.2-.1.3-.1.6-.1.9 0 .9.4 1.7.8 1.7.1 0 .2 0 .2-.1.6 2.5 2.3 4.2 4.3 4.2s3.7-1.8 4.3-4.2c.1 0 .2.1.2.1.5 0 .8-.7.8-1.7 0-.3 0-.6-.1-.9.3-.4.3-.8.3-1.2z"/></g><path fill="var(--color-fill-semantic-highlight-mild)" fill-opacity=".3" stroke="var(--color-fill-semantic-highlight-mild)" d="M23.329 8.7c0-3-2.4-5.4-5.4-5.4s-5.4 2.5-5.4 5.4c0 .4.1.8.1 1.2.4 0 .7 0 1.1.1 0 0-.2-2.5.4-2.5s2.5.1 2.5-1.7c0 .8 2.5 2.5 5 2.5 0 .6.2 1.1.4 1.7l1.1-.1c.1-.4.2-.8.2-1.2z"/><path fill="none" stroke="var(--color-icon-primary)" stroke-linecap="round" d="M9.329 25.4v-1.3c0-4.7 3.8-7.1 8.5-7.1s8.5 2.4 8.5 7.1v1.3"/></g><circle cx="25.8" cy="24.4" r="5.3" fill="var(--color-icon-inverse)"/><circle cx="25.8" cy="24.4" r="4.4" fill="var(--color-fill-semantic-highlight-mild)" fill-opacity=".3" stroke="var(--color-fill-semantic-highlight-mild)" stroke-linejoin="round" stroke-width=".875"/><g fill="none" stroke="var(--color-fill-semantic-highlight-mild)" stroke-linecap="round" stroke-linejoin="round" stroke-width=".875"><path d="M25.807 22.054v4.101M23.756 24.105h4.102"/></g></svg>
