<svg id="Layer_1" data-name="Layer 1" xmlns="http://www.w3.org/2000/svg" viewBox="0 0 14 10.19"><defs><style>.cls-1{fill:#475867;fill-rule:evenodd;}</style></defs><path class="cls-1" d="M4.15,6.87A1.62,1.62,0,0,1,3,4.11,1.62,1.62,0,1,1,4.15,6.87Zm0-2.5a.89.89,0,1,0,.9.89.92.92,0,0,0-.26-.63.9.9,0,0,0-.64-.26Z" transform="translate(-1 -2.99)"/><path class="cls-1" d="M4.23,11.92H1.37a.37.37,0,0,1-.28-.13.4.4,0,0,1-.09-.3l.46-2.68A1.59,1.59,0,0,1,3,7.48H5.27a.36.36,0,0,1,0,.72H3a.87.87,0,0,0-.87.73l-.38,2.26H4.23a.36.36,0,0,1,.36.36A.37.37,0,0,1,4.23,11.92Z" transform="translate(-1 -2.99)"/><path class="cls-1" d="M8.69,7a2,2,0,1,0-2-2A2,2,0,0,0,8.69,7Zm0-3.09A1.1,1.1,0,1,1,7.59,5,1.1,1.1,0,0,1,8.69,3.89Zm5.86,6.94h-1v-1a.45.45,0,0,0-.45-.45.44.44,0,0,0-.44.45v1h-1a.45.45,0,1,0,0,.89h1v1a.44.44,0,0,0,.44.44.45.45,0,0,0,.45-.44v-1h1a.45.45,0,1,0,0-.89ZM5.79,12.29H10.7a.45.45,0,0,1,0,.89H5.27A.42.42,0,0,1,4.92,13a.47.47,0,0,1-.1-.36l.56-3.3A2,2,0,0,1,7.32,7.72h2.77A2,2,0,0,1,12,9.36a.45.45,0,0,1-.07.34.43.43,0,0,1-.29.18.42.42,0,0,1-.33-.08.44.44,0,0,1-.19-.29A1.09,1.09,0,0,0,10,8.61H7.32a1.07,1.07,0,0,0-1.06.9Z" transform="translate(-1 -2.99)"/></svg>