<svg xmlns="http://www.w3.org/2000/svg" xmlns:xlink="http://www.w3.org/1999/xlink" viewBox="0 0 512 512"><defs><path id="fs-eta69hp8ea" d="M-258 177.1c-.2 0-.4.1-.5.2-.1.1-.2.3-.2.5s.1.4.2.5c.1.1.3.2.5.2s.4-.1.5-.2c.1-.1.2-.3.2-.5s-.1-.4-.2-.5c-.2-.1-.3-.2-.5-.2zm.6-1.2v-3.7c0-.3-.1-.4-.2-.6-.1-.1-.3-.2-.5-.2s-.3.1-.5.2c-.1.1-.2.3-.2.6v3.6c0 .3.1.4.2.6.1.1.3.2.5.2s.3-.1.5-.2.2-.3.2-.5zm-.6-6.8c3.2 0 5.9 2.7 5.9 5.9s-2.7 5.9-5.9 5.9-5.9-2.7-5.9-5.9 2.7-5.9 5.9-5.9zm0-1.1c-3.9 0-7 3.1-7 7s3.1 7 7 7 7-3.1 7-7-3.1-7-7-7z"/></defs><clipPath id="fs-m8f8w6rq9b"><use overflow="visible" xlink:href="#fs-eta69hp8ea"/></clipPath><g clip-path="url(#fs-m8f8w6rq9b)"><defs><path id="fs-iy6enbbdoc" d="M-384-194H896v900H-384z"/></defs><clipPath id="fs-dz1m0enxad"><use overflow="visible" xlink:href="#fs-iy6enbbdoc"/></clipPath><path fill="var(--color-icon-semantic-error)" d="M-270 163h24v24h-24z" clip-path="url(#fs-dz1m0enxad)"/></g><path d="M256 9.8C120.5 9.8 9.8 120.5 9.8 256S120.5 502.2 256 502.2 502.2 391.5 502.2 256 391.5 9.8 256 9.8zm0 38.4c114.3 0 207.8 93.5 207.8 207.8S370.3 463.8 256 463.8 48.2 370.3 48.2 256 141.7 48.2 256 48.2zm21.6 238.4V158c0-8.9-2.1-15.6-6.4-20.2-4.2-4.6-9.6-6.8-16.1-6.8s-11.8 2.3-15.9 7-6.1 11.4-6.1 20v127.3c0 8.8 2 15.4 6.1 19.9s9.4 6.7 15.9 6.7 11.9-2.2 16.1-6.7 6.4-10.7 6.4-18.6zm-21.9 44.9c-6.6 0-12.4 2.1-17.4 6.4-4.9 4.3-7.4 10.3-7.4 18 0 6.8 2.4 12.6 7.2 17.3s10.6 7 17.6 7c6.8 0 12.6-2.3 17.3-7 4.7-4.7 7-10.4 7-17.3 0-7.6-2.4-13.6-7.3-17.9-4.9-4.3-10.5-6.5-17-6.5z"/></svg>
