<svg width="15" height="14" viewBox="0 0 15 14" fill="none" xmlns="http://www.w3.org/2000/svg">
<path fill-rule="evenodd" clip-rule="evenodd" d="M10.8501 0H14.3001C14.6867 0 15.0001 0.313401 15.0001 0.7V4.15C15.0001 4.5366 14.6867 4.85 14.3001 4.85C13.9135 4.85 13.6001 4.5366 13.6001 4.15V2.39L10.0001 6C9.86949 6.13472 9.68767 6.20745 9.50014 6.2C9.31327 6.20381 9.13284 6.13164 9.00014 6C8.72559 5.7232 8.72559 5.2768 9.00014 5L12.6101 1.4H10.8501C10.4635 1.4 10.1501 1.0866 10.1501 0.7C10.1501 0.313401 10.4635 0 10.8501 0ZM2.40014 11.61L6.00014 8C6.17878 7.82137 6.43914 7.7516 6.68316 7.81699C6.92717 7.88237 7.11777 8.07297 7.18316 8.31699C7.24854 8.561 7.17878 8.82137 7.00014 9L3.39014 12.55H5.15014C5.53674 12.55 5.85014 12.8634 5.85014 13.25C5.85014 13.6366 5.53674 13.95 5.15014 13.95H1.65014C1.59696 13.9556 1.54333 13.9556 1.49014 13.95H1.39014C1.21089 13.8809 1.06922 13.7393 1.00014 13.56V13.46C0.995394 13.4068 0.995394 13.3532 1.00014 13.3V9.85C1.00014 9.4634 1.31355 9.15 1.70014 9.15C2.08674 9.15 2.40014 9.4634 2.40014 9.85V11.61Z" fill="var(--color-fill-neutral-bold)"/>
</svg>
