<svg width="16" height="16" viewBox="0 0 16 16" fill="none" xmlns="http://www.w3.org/2000/svg">
<path fill-rule="evenodd" clip-rule="evenodd" d="M3.6 1H12.4C13.83 1 15 2.17 15 3.6V12.4C15 13.83 13.83 15 12.4 15H3.6C2.17 15 1 13.83 1 12.4V3.6C1 2.17 2.17 1 3.6 1ZM2.2 3.6V12.4C2.2 13.17 2.83 13.8 3.6 13.8H4.82V2.2H3.6C2.83 2.2 2.2 2.83 2.2 3.6ZM12.4 13.8C13.17 13.8 13.8 13.17 13.8 12.4V3.6C13.8 2.83 13.17 2.2 12.4 2.2H6.02V13.8H12.4ZM10.26 5.71986C10.5 5.48986 10.88 5.48986 11.11 5.71986L11.1 5.68986C11.33 5.92986 11.33 6.30986 11.1 6.53986L9.66997 7.96986L11.1 9.39986C11.33 9.63986 11.33 10.0199 11.1 10.2499C10.99 10.3699 10.83 10.4299 10.68 10.4299C10.53 10.4299 10.38 10.3799 10.26 10.2599L8.39997 8.40986C8.27997 8.29986 8.21997 8.13986 8.21997 7.98986C8.21997 7.83986 8.28997 7.67986 8.39997 7.56986L10.26 5.71986Z" fill="var(--color-icon-primary)"/>
</svg>
