<svg xmlns="http://www.w3.org/2000/svg" width="20" height="20" viewBox="0 0 20 20" fill="none">
  <g clip-path="url(#clip0_19122_51613)">
    <circle cx="10.3125" cy="9.6875" r="8.4375" fill="var(--color-fill-semantic-success-mildest)"/>
    <path d="M18.542 10.1045C18.542 14.7644 14.7644 18.542 10.1045 18.542C5.44459 18.542 1.66699 14.7644 1.66699 10.1045C1.66699 5.44459 5.44459 1.66699 10.1045 1.66699" stroke="var(--color-fill-semantic-success-mild)" stroke-width="1.5"/>
    <path d="M10.1045 18.542C5.44459 18.542 1.66699 14.7644 1.66699 10.1045C1.66699 5.44459 5.44459 1.66699 10.1045 1.66699" stroke="var(--color-fill-semantic-success-mild)" stroke-width="1.5"/>
    <path d="M18.542 10.1045C18.542 5.44459 14.7644 1.66699 10.1045 1.66699" stroke="var(--color-fill-semantic-success-mild)" stroke-width="1.5" stroke-linecap="round"/>
    <path d="M14.7809 8.20007L11.9533 7.95469L10.8491 5.35491C10.6505 4.8817 9.9728 4.8817 9.77416 5.35491L8.66999 7.96054L5.8482 8.20007C5.33409 8.24096 5.12377 8.8836 5.5152 9.22245L7.65929 11.0803L7.01664 13.8378C6.8998 14.3402 7.44313 14.7375 7.88713 14.4687L10.3116 13.0082L12.7362 14.4746C13.1802 14.7433 13.7235 14.3461 13.6066 13.8436L12.964 11.0803L15.1081 9.22245C15.4995 8.8836 15.295 8.24096 14.7809 8.20007ZM10.3116 11.9157L8.11498 13.2419L8.6992 10.7414L6.75959 9.05887L9.31847 8.83687L10.3116 6.48246L11.3107 8.84271L13.8695 9.06471L11.9299 10.7473L12.5142 13.2477L10.3116 11.9157Z" fill="var(--color-fill-semantic-success-mild)"/>
  </g>
  <defs>
    <clipPath id="clip0_19122_51613">
      <rect width="20" height="20" fill="var(--color-fill-surface)"/>
    </clipPath>
  </defs>
</svg>