<svg width="17" height="12" viewBox="0 0 17 12" fill="none" xmlns="http://www.w3.org/2000/svg">
<path fill-rule="evenodd" clip-rule="evenodd" d="M0.579836 6.31969C2.10396 9.28865 5.16252 11.1539 8.49984 11.1497C11.8372 11.1539 14.8957 9.28865 16.4198 6.31969C16.5302 6.12063 16.5302 5.87875 16.4198 5.67969C14.8917 2.71469 11.8355 0.851562 8.49984 0.851562C5.16421 0.851562 2.10796 2.71469 0.579836 5.67969C0.469482 5.87875 0.469482 6.12063 0.579836 6.31969ZM8.49984 9.74803C5.81952 9.74803 3.34237 8.31954 1.99984 5.99969C3.34237 3.67984 5.81952 2.25135 8.49984 2.25135C11.1802 2.25135 13.6573 3.67984 14.9998 5.99969C13.6573 8.31954 11.1802 9.74803 8.49984 9.74803ZM5.69984 5.99969C5.69984 7.54609 6.95344 8.79969 8.49984 8.79969C10.044 8.7942 11.2943 7.54381 11.2998 5.99969C11.2998 4.45329 10.0462 3.19969 8.49984 3.19969C6.95344 3.19969 5.69984 4.45329 5.69984 5.99969ZM7.09984 5.99969C7.09984 5.22649 7.72664 4.59969 8.49984 4.59969C9.27303 4.59969 9.89984 5.22649 9.89984 5.99969C9.89984 6.77289 9.27303 7.39969 8.49984 7.39969C7.72664 7.39969 7.09984 6.77289 7.09984 5.99969Z" fill="var(--color-icon-semantic-info)"/>
</svg>
