<svg width="18" height="16" viewBox="0 0 18 16" fill="none" xmlns="http://www.w3.org/2000/svg">
<path fill-rule="evenodd" clip-rule="evenodd" d="M13.7598 4.23989L16.7598 1.23989C16.8968 1.10964 16.9743 0.928902 16.9743 0.739891C16.9743 0.55088 16.8968 0.370144 16.7598 0.239891C16.6296 0.102927 16.4488 0.0253906 16.2598 0.0253906C16.0708 0.0253906 15.8901 0.102927 15.7598 0.239891L12.4498 3.55989L11.3598 4.65989L10.4098 5.60989L9.35983 6.64989L7.64984 8.35989L6.59984 9.40989L5.25984 10.7499L4.25984 11.7499L1.25984 14.7499C1.12287 14.8801 1.04534 15.0609 1.04534 15.2499C1.04534 15.4389 1.12287 15.6196 1.25984 15.7499C1.36818 15.8875 1.52613 15.9773 1.69984 15.9999C1.88795 15.9999 2.06816 15.9242 2.19984 15.7899L5.55984 12.4299C6.64549 12.9017 7.8161 13.1467 8.99984 13.1499C12.3372 13.1541 15.3957 11.2889 16.9198 8.31989C17.0302 8.12083 17.0302 7.87895 16.9198 7.67989C16.1916 6.27233 15.1007 5.08476 13.7598 4.23989ZM10.3998 7.99989C10.3998 8.77309 9.77303 9.39989 8.99984 9.39989C8.88104 9.39539 8.76335 9.37521 8.64984 9.33989L10.3398 7.64989C10.3752 7.76341 10.3953 7.88109 10.3998 7.99989ZM8.99984 11.7499C8.19675 11.7446 7.3998 11.6096 6.63984 11.3499L7.57984 10.4099C8.00891 10.6666 8.49985 10.8014 8.99984 10.7999C10.544 10.7944 11.7943 9.54401 11.7998 7.99989C11.8013 7.49991 11.6665 7.00897 11.4098 6.57989L12.7198 5.26989C13.8729 5.91639 14.8325 6.85879 15.4998 7.99989C14.1577 10.3204 11.6805 11.7495 8.99984 11.7499ZM3.11984 10.9099L4.11984 9.90989C3.47633 9.36879 2.92865 8.72308 2.49984 7.99989C3.84195 5.6794 6.31918 4.25023 8.99984 4.24989H9.71984L10.9398 3.08989C10.3038 2.93969 9.6533 2.85922 8.99984 2.84989C5.66252 2.84567 2.60396 4.71093 1.07984 7.67989C0.969482 7.87895 0.969482 8.12083 1.07984 8.31989C1.5908 9.3039 2.28291 10.1826 3.11984 10.9099ZM8.80984 5.21989C7.42132 5.31632 6.31627 6.42138 6.21984 7.80989L8.80984 5.21989Z" fill="#2C5CC5"/>
</svg>
