<svg xmlns="http://www.w3.org/2000/svg" width="18" height="12" fill="none" viewBox="0 0 18 12"><path fill="#92A2B1" d="M9 .3c2.85 0 5.52 1.47 7.95 4.35.57.69.57 1.68 0 2.37-2.43 2.91-5.1 4.38-7.95 4.38-2.85 0-5.52-1.47-7.95-4.35-.57-.69-.57-1.68 0-2.37C3.48 1.77 6.15.3 9 .3zM2.07 6.15c2.22 2.61 4.5 3.87 6.93 3.87 2.43 0 4.71-1.26 6.93-3.87.15-.18.15-.42 0-.6C13.71 2.94 11.4 1.68 9 1.68c-2.4 0-4.71 1.26-6.93 3.87-.15.18-.15.42 0 .6zM9 9.27c-1.89 0-3.42-1.53-3.42-3.42S7.11 2.43 9 2.43s3.42 1.53 3.42 3.42S10.89 9.27 9 9.27zm0-1.35c1.14 0 2.04-.93 2.04-2.07 0-1.14-.93-2.07-2.04-2.07-1.11 0-2.04.93-2.04 2.07 0 1.14.9 2.07 2.04 2.07z"/></svg>