<svg width="16" height="16" viewBox="0 0 16 16" fill="none" xmlns="http://www.w3.org/2000/svg">
<path fill-rule="evenodd" clip-rule="evenodd" d="M3.7 1H12.3C13.7912 1 15 2.20883 15 3.7V12.6C14.9945 13.9232 13.9232 14.9945 12.6 15H3.4C2.07679 14.9945 1.00548 13.9232 1 12.6V3.7C1 2.20883 2.20883 1 3.7 1ZM2.78076 2.78076C2.53696 3.02456 2.4 3.35522 2.4 3.7V5.83H13.6V3.7C13.6 2.98203 13.018 2.4 12.3 2.4H3.7C3.35522 2.4 3.02456 2.53696 2.78076 2.78076ZM12.6 13.6C13.1523 13.6 13.6 13.1523 13.6 12.6V7.23H2.4V12.6C2.4 13.1523 2.84772 13.6 3.4 13.6H12.6ZM3 4.11C3 3.55772 3.44772 3.11 4 3.11C4.55228 3.11 5 3.55772 5 4.11C5 4.66228 4.55228 5.11 4 5.11C3.44772 5.11 3 4.66228 3 4.11ZM6.58 3.11C6.02772 3.11 5.58 3.55772 5.58 4.11C5.58 4.66228 6.02772 5.11 6.58 5.11C7.13228 5.11 7.58 4.66228 7.58 4.11C7.58 3.55772 7.13228 3.11 6.58 3.11ZM8.17 4.11C8.17 3.55772 8.61772 3.11 9.17 3.11C9.72229 3.11 10.17 3.55772 10.17 4.11C10.17 4.66228 9.72229 5.11 9.17 5.11C8.61772 5.11 8.17 4.66228 8.17 4.11ZM3.88 9.82H12.12C12.5066 9.82 12.82 9.5066 12.82 9.12C12.82 8.7334 12.5066 8.42 12.12 8.42H3.88C3.4934 8.42 3.18 8.7334 3.18 9.12C3.18 9.5066 3.4934 9.82 3.88 9.82ZM12.12 12.41H3.88C3.4934 12.41 3.18 12.0966 3.18 11.71C3.18 11.3234 3.4934 11.01 3.88 11.01H12.12C12.5066 11.01 12.82 11.3234 12.82 11.71C12.82 12.0966 12.5066 12.41 12.12 12.41Z" fill="#475867"/>
</svg>
