<svg xmlns="http://www.w3.org/2000/svg" width="14" height="16" fill="none" viewBox="0 0 14 16"><path fill="#459FFC" fill-rule="evenodd" d="M13.49 4.42c.01.06.01.12 0 .18 0 .02.01.05.01.05v8.65a2.7 2.7 0 01-2.7 2.7H3.2a2.7 2.7 0 01-2.7-2.7V2.7A2.7 2.7 0 013.2 0h5.7a.57.57 0 01.19.07h.07a.66.66 0 01.2.14l4 3.94a.57.57 0 01.13.21v.06zM11.11 4L9.56 2.39V4h1.55zM3.2 14.6h7.6a1.3 1.3 0 001.3-1.25v-8H8.9a.7.7 0 01-.7-.7V1.4h-5a1.3 1.3 0 00-1.3 1.3v10.6a1.3 1.3 0 001.3 1.3zM4 7.34h6.1a.7.7 0 110 1.4H4a.7.7 0 110-1.4zM10.05 11H4a.7.7 0 100 1.4h6.1a.7.7 0 100-1.4h-.05zM6.11 5.09H4a.7.7 0 110-1.4h2.11a.7.7 0 110 1.4z" clip-rule="evenodd"/></svg>