<svg xmlns="http://www.w3.org/2000/svg" width="13" height="16" fill="none" viewBox="0 0 13 16"><path fill="var(--color-icon-primary)" fill-rule="evenodd" d="M12.99 4.42c.01.06.01.12 0 .18 0 .02.01.05.01.05v8.65a2.7 2.7 0 01-2.7 2.7H2.7A2.7 2.7 0 010 13.3V2.7A2.7 2.7 0 012.7 0h5.7a.57.57 0 01.19.07h.07a.66.66 0 01.2.14l4 3.94a.57.57 0 01.13.21v.06zM10.61 4L9.06 2.39V4h1.55zm-.31 10.6H2.7a1.3 1.3 0 01-1.3-1.3V2.7a1.3 1.3 0 011.3-1.3h5v3.25a.7.7 0 00.7.7h3.2v8a1.3 1.3 0 01-1.3 1.25zm-.75-5.9a.7.7 0 00.05-1.4H3.5a.7.7 0 100 1.4h6.05zm.7 2.91v.031A.7.7 0 009.6 11H3.5a.7.7 0 100 1.31h6.05a.7.7 0 00.7-.669v.009-.04zM2.955 3.895A.7.7 0 003.5 5.09h2.11a.7.7 0 100-1.4H3.45a.7.7 0 00-.495.205z" clip-rule="evenodd"/></svg>
