<svg viewBox="0 0 14 15" fill="none" xmlns="http://www.w3.org/2000/svg">
<path fill-rule="evenodd" clip-rule="evenodd" d="M5.54007 14C5.39781 14.0004 5.25862 13.9586 5.14007 13.88C4.94803 13.7491 4.83224 13.5324 4.83007 13.3V9.17L0.410072 4.74C0.144105 4.47562 -0.00375314 4.11499 7.24305e-05 3.74V1.4C7.24305e-05 0.626801 0.626874 0 1.40007 0H12.6001C12.9714 0 13.3275 0.1475 13.59 0.410051C13.8526 0.672601 14.0001 1.0287 14.0001 1.4V3.75C14.0039 4.12499 13.856 4.48562 13.5901 4.75L9.16007 9.18V12.18C9.15984 12.4722 8.97557 12.7326 8.70007 12.83L5.79007 14C5.70727 14.0133 5.62288 14.0133 5.54007 14ZM1.40007 1.4V3.75L5.83007 8.18C6.09414 8.44564 6.24165 8.80544 6.24007 9.18V12.29L7.76007 11.71V9.17C7.75772 8.79331 7.90946 8.43204 8.18007 8.17L12.6001 3.75V1.4H1.40007Z" fill="#12344D"/>
</svg>
