<svg xmlns="http://www.w3.org/2000/svg" data-name="Layer 2" viewBox="0 0 16 16"><path d="M15.86 6a.7.7 0 00-.56-.29h-1.76V5a2.34 2.34 0 00-2.34-2.36H6.73L5.3 1.21A.69.69 0 004.8 1H2.34A2.34 2.34 0 000 3.34v9.32a2.3 2.3 0 00.35 1.22 2.33 2.33 0 002 1.12h9A2.69 2.69 0 0014 13.11l2-6.47a.69.69 0 00-.14-.64zM2.34 2.4h2.17L6 3.83a.71.71 0 00.44.17h4.76a.94.94 0 01.94.94v.75h-9a.71.71 0 00-.67.49L1.4 9.72V3.34a.94.94 0 01.94-.94zm10.27 10.29a1.3 1.3 0 01-1.24.91h-9a.93.93 0 01-.62-.23l2-6.24h10.6z"/></svg>