<svg xmlns="http://www.w3.org/2000/svg" width="16" height="17" fill="none" xmlns:v="https://vecta.io/nano">
  <g clip-path="url(#A)">
    <path d="M16 .5H0v16h16V.5z" fill="var(--color-fill-surface)" />
    <path d="M6.125 12.1h3.75c.177 0 .325-.057.445-.172a.57.57 0 0 0 .18-.428.57.57 0 0 0-.18-.428c-.12-.115-.268-.172-.445-.172h-3.75c-.177 0-.326.057-.445.172a.57.57 0 0 0-.18.428.57.57 0 0 0 .18.428c.12.115.268.172.445.172zm0-2.4h3.75c.177 0 .325-.057.445-.172a.57.57 0 0 0 .18-.428.57.57 0 0 0-.18-.428c-.12-.115-.268-.172-.445-.172h-3.75c-.177 0-.326.057-.445.172a.57.57 0 0 0-.18.428.57.57 0 0 0 .18.428c.12.115.268.172.445.172zM4.25 14.5a1.23 1.23 0 0 1-.883-.352C3.122 13.913 3 13.63 3 13.3V3.7c0-.33.122-.613.367-.848A1.23 1.23 0 0 1 4.25 2.5h4.484a1.28 1.28 0 0 1 .477.09 1.22 1.22 0 0 1 .398.255l3.031 2.91a1.16 1.16 0 0 1 .266.383 1.14 1.14 0 0 1 .094.457V13.3c0 .33-.122.612-.367.848a1.23 1.23 0 0 1-.883.352h-7.5zm4.375-8.4a.57.57 0 0 0 .18.428c.12.115.268.173.445.173h2.5l-3.125-3v2.4z" fill="var(--color-fill-semantic-warning-mild)" />
  </g>
  <defs>
    <clipPath id="A">
      <path fill="var(--color-fill-surface)" transform="translate(0 .5)" d="M0 0h16v16H0z" />
    </clipPath>
  </defs>
</svg>