<svg width="36" height="36" viewBox="0 0 36 36" fill="none" xmlns="http://www.w3.org/2000/svg">
<path fill-rule="evenodd" clip-rule="evenodd" d="M10.1551 10.54C11.5151 10.54 12.6151 9.43998 12.6151 8.07998V7.18998C12.6151 5.82998 11.5151 4.72998 10.1551 4.72998C8.79507 4.72998 7.69507 5.82998 7.69507 7.18998V8.07998C7.69507 9.43998 8.79507 10.54 10.1551 10.54ZM29.4299 19.8851L22.8699 13.3101C21.5449 11.9801 19.7949 11.3351 18.0549 11.3651C16.2849 11.3101 14.4949 11.9551 13.1449 13.3051L6.58488 19.8801C5.32488 21.1401 4.62988 22.8151 4.62988 24.6001C4.62988 26.3851 5.32488 28.0601 6.58488 29.3201C7.88488 30.6201 9.58988 31.2701 11.2899 31.2701C12.9899 31.2701 14.6999 30.6201 15.9949 29.3201L18.0049 27.3051L20.0149 29.3201C21.3149 30.6201 23.0149 31.2701 24.7199 31.2701C26.4249 31.2701 28.1299 30.6251 29.4249 29.3251C30.6849 28.0651 31.3749 26.3901 31.3749 24.6051C31.3749 22.8201 30.6849 21.1451 29.4249 19.8851H29.4299ZM14.7199 28.0451C12.8249 29.9451 9.73988 29.9451 7.84488 28.0451C6.92488 27.1251 6.41988 25.9051 6.41988 24.6051C6.41988 23.3051 6.92988 22.0801 7.84488 21.1651L11.5249 17.4801C11.3649 19.3851 12.0249 21.3201 13.4549 22.7451L16.7349 26.0301L14.7249 28.0451H14.7199ZM28.1649 28.0451C26.2699 29.9451 23.1849 29.9451 21.2849 28.0451L19.2749 26.0301L22.5549 22.7451C23.8149 21.4851 24.5049 19.8101 24.5049 18.0251C24.5049 17.8401 24.4949 17.6601 24.4799 17.4801L28.1649 21.1751C29.0849 22.0901 29.5899 23.3151 29.5899 24.6101C29.5899 25.9051 29.0799 27.1301 28.1649 28.0451ZM28.42 8.07998C28.42 9.43998 27.32 10.54 25.96 10.54C24.6 10.54 23.5 9.43998 23.5 8.07998V7.18998C23.5 5.82998 24.6 4.72998 25.96 4.72998C27.32 4.72998 28.42 5.82998 28.42 7.18998V8.07998Z" fill="black"/>
</svg>
