<svg width="40" height="40" fill="none" xmlns="http://www.w3.org/2000/svg"><mask id="Group 3045062__a" style="mask-type:luminance" maskUnits="userSpaceOnUse" x="8" y="8" width="24" height="24"><path d="M32 8H8v24h24V8Z" fill="#fff"/></mask><g mask="url(#Group 3045062__a)" fill="#475867"><path d="M22.16 29.45h1.605a1.26 1.26 0 0 0 1.26-1.26v-.915a1.26 1.26 0 0 0-1.26-1.26H22.16a1.26 1.26 0 0 0-1.26 1.26v.915c0 .696.564 1.26 1.26 1.26Z"/><path d="M11.9 30.44c-.405 0-.81-.105-1.17-.315A2.385 2.385 0 0 1 9.5 28.04v-9.3c0-2.16 1.74-3.915 3.885-3.915h13.23c2.145 0 3.885 1.755 3.885 3.915v6.03c0 2.145-1.755 3.885-3.9 3.885h-3.735a.903.903 0 0 1-.9-.9c0-.495.405-.9.9-.9H26.6c1.155 0 2.1-.945 2.1-2.1v-6.03c0-1.17-.93-2.115-2.085-2.115h-13.23c-1.155 0-2.085.945-2.085 2.115v9.3c0 .315.21.465.315.525.09.06.345.15.615 0l1.815-1.125a3.94 3.94 0 0 1 2.055-.585h.825c.495 0 .9.405.9.9s-.405.9-.9.9H16.1c-.39 0-.765.105-1.11.315l-1.815 1.125a2.4 2.4 0 0 1-1.26.36H11.9Z"/><path d="M23.45 23.045c.82 0 1.485-.678 1.485-1.515 0-.837-.665-1.515-1.485-1.515-.82 0-1.485.678-1.485 1.515 0 .837.665 1.515 1.485 1.515Zm-6.87-.06c.82 0 1.485-.678 1.485-1.515 0-.837-.665-1.515-1.485-1.515-.82 0-1.485.678-1.485 1.515 0 .837.665 1.515 1.485 1.515ZM20 16.49a.903.903 0 0 1-.9-.9v-2.07c0-.495.405-.9.9-.9s.9.405.9.9v2.07c0 .495-.405.9-.9.9Z"/><path d="M20 14.225c-1.32 0-2.4-1.08-2.4-2.4 0-1.32 1.08-2.4 2.4-2.4 1.32 0 2.4 1.08 2.4 2.4 0 1.32-1.08 2.4-2.4 2.4Zm0-3c-.33 0-.6.27-.6.6 0 .33.27.6.6.6.33 0 .6-.27.6-.6 0-.33-.27-.6-.6-.6Z"/></g></svg>
