<svg width="20" height="20" viewBox="0 0 20 20" fill="none" xmlns="http://www.w3.org/2000/svg">
<g id="a" clip-path="url(#clip0_1_2821)">
<path id="Vector" d="M5.09707 5.33749C5.94707 5.33749 6.63457 4.64999 6.63457 3.79999V3.24374C6.63457 2.39374 5.94707 1.70624 5.09707 1.70624C4.24707 1.70624 3.55957 2.39374 3.55957 3.24374V3.79999C3.55957 4.64999 4.24707 5.33749 5.09707 5.33749Z" fill="var(--color-icon-disabled)"/>
<path id="Vector_2" d="M17.1436 11.1781L13.0436 7.06876C12.2154 6.23751 11.1217 5.83438 10.0342 5.85313C8.92793 5.81876 7.80918 6.22188 6.96543 7.06563L2.86543 11.175C2.07793 11.9625 1.64355 13.0094 1.64355 14.125C1.64355 15.2406 2.07793 16.2875 2.86543 17.075C3.67793 17.8875 4.74355 18.2938 5.80605 18.2938C6.86855 18.2938 7.9373 17.8875 8.74668 17.075L10.0029 15.8156L11.2592 17.075C12.0717 17.8875 13.1342 18.2938 14.1998 18.2938C15.2654 18.2938 16.3311 17.8906 17.1404 17.0781C17.9279 16.2906 18.3592 15.2438 18.3592 14.1281C18.3592 13.0125 17.9279 11.9656 17.1404 11.1781H17.1436ZM7.9498 16.2781C6.76543 17.4656 4.8373 17.4656 3.65293 16.2781C3.07793 15.7031 2.7623 14.9406 2.7623 14.1281C2.7623 13.3156 3.08105 12.55 3.65293 11.9781L5.95293 9.675C5.85293 10.8656 6.26543 12.075 7.15918 12.9656L9.20918 15.0188L7.95293 16.2781H7.9498ZM16.3529 16.2781C15.1686 17.4656 13.2404 17.4656 12.0529 16.2781L10.7967 15.0188L12.8467 12.9656C13.6342 12.1781 14.0654 11.1313 14.0654 10.0156C14.0654 9.90001 14.0592 9.7875 14.0498 9.675L16.3529 11.9844C16.9279 12.5563 17.2436 13.3219 17.2436 14.1313C17.2436 14.9406 16.9248 15.7063 16.3529 16.2781Z" fill="var(--color-icon-disabled)"/>
<path id="Vector_3" d="M14.975 5.33749C15.825 5.33749 16.5125 4.64999 16.5125 3.79999V3.24374C16.5125 2.39374 15.825 1.70624 14.975 1.70624C14.125 1.70624 13.4375 2.39374 13.4375 3.24374V3.79999C13.4375 4.64999 14.125 5.33749 14.975 5.33749Z" fill="var(--color-icon-disabled)"/>
</g>
<defs>
<clipPath id="clip0_1_2821">
<rect width="20" height="20" fill="var(--color-icon-inverse)"/>
</clipPath>
</defs>
</svg>
