<svg width="32" height="32" viewBox="0 0 32 32" fill="none" xmlns="http://www.w3.org/2000/svg">
<path d="M19.167 19.2925C20.9785 17.444 20.9785 14.443 19.167 12.5944C17.3556 10.7459 14.4045 10.7459 12.5931 12.5944L7.7586 17.516C5.94717 19.3646 5.94717 22.3655 7.7586 24.2141C9.57003 26.0627 12.5211 26.0627 14.3325 24.2141L19.167 19.2925Z" fill="#459FFC"/>
<path d="M24.2415 24.2141C26.0529 22.3655 26.0529 19.3646 24.2415 17.516L19.407 12.5944C17.5955 10.7459 14.6445 10.7459 12.833 12.5944C12.5691 12.8705 12.3412 13.1586 12.1492 13.4827C11.0576 15.3073 11.2855 17.72 12.833 19.2925L17.6675 24.2141C19.479 26.0627 22.43 26.0627 24.2415 24.2141Z" fill="#459FFC"/>
<path d="M20.5106 15.9196C20.5106 14.8513 20.1627 13.7589 19.431 12.8707C19.371 12.7746 19.275 12.6666 19.191 12.5826C18.3033 11.6703 17.1637 11.2142 16.012 11.2021C14.8604 11.2021 13.7087 11.6703 12.833 12.5826C12.749 12.6666 12.6531 12.7626 12.5931 12.8707C11.8733 13.7469 11.5134 14.8513 11.5134 15.9196C11.5134 17.12 11.9453 18.3324 12.833 19.2447L16.012 22.5337L19.191 19.2447C20.0788 18.3324 20.5106 17.12 20.5106 15.9196Z" fill="var(--color-fill-neutral-bold)"/>
<path d="M22.2626 10.2416C23.3186 10.2416 24.1706 9.37732 24.1706 8.32099C24.1706 7.26466 23.3186 6.40039 22.2626 6.40039C21.2066 6.40039 20.3546 7.26466 20.3546 8.32099C20.3546 9.37732 21.2066 10.2416 22.2626 10.2416Z" fill="var(--color-fill-neutral-bold)"/>
<path d="M9.69059 10.2416C10.7466 10.2416 11.5986 9.37732 11.5986 8.32099C11.5986 7.26466 10.7466 6.40039 9.69059 6.40039C8.63459 6.40039 7.78259 7.26466 7.78259 8.32099C7.78259 9.37732 8.63459 10.2416 9.69059 10.2416Z" fill="var(--color-fill-neutral-bold)"/>
</svg>
