<svg width="40" height="40" fill="none" xmlns="http://www.w3.org/2000/svg"><g mask="url(#freddy-insight-section (1) 2__freddy-insight-section (1) 2__freddy-insight-section (1) 2__a)" fill="#475867"><path d="M18.815 28.145c-5.13 0-9.315-4.185-9.315-9.315s4.185-9.33 9.315-9.33 9.315 4.185 9.315 9.315-4.185 9.315-9.315 9.315v.015Zm0-16.845c-4.14 0-7.515 3.375-7.515 7.515s3.375 7.515 7.515 7.515 7.515-3.375 7.515-7.515-3.375-7.515-7.515-7.515Z"/><path d="M29.6 30.5a.938.938 0 0 1-.63-.255l-4.725-4.65a.897.897 0 0 1-.27-.645c0-.24.09-.45.255-.63a.888.888 0 0 1 1.275 0l4.725 4.65c.18.18.27.405.27.645s-.09.45-.255.63a.897.897 0 0 1-.645.27V30.5Zm-14.085-7.935a.903.903 0 0 1-.9-.9v-1.89c0-.495.405-.9.9-.9s.9.405.9.9v1.89c0 .495-.405.9-.9.9Zm3.315 0a.903.903 0 0 1-.9-.9v-5.7c0-.495.405-.9.9-.9s.9.405.9.9v5.7c0 .495-.405.9-.9.9Zm3.285 0a.903.903 0 0 1-.9-.9v-3.78c0-.495.405-.9.9-.9s.9.405.9.9v3.78c0 .495-.405.9-.9.9Z"/></g></svg>
