<svg width="62" height="62" viewBox="0 0 62 62" fill="none" xmlns="http://www.w3.org/2000/svg"><path fill-rule="evenodd" clip-rule="evenodd" d="M26.323 0h19.819A6.609 6.609 0 0152.8 6.658v19.82C52.8 41.031 41.032 52.8 26.477 52.8h-.154C11.768 52.8 0 41.032 0 26.477 0 11.923 11.768.155 26.323 0z" fill="#148FCC"/><path fill-rule="evenodd" clip-rule="evenodd" d="M26.25 39.5c.33.33.825.165 1.155-.165l8.91-12.375 1.98-2.805c.33-.495.165-1.155-.165-1.485-.165-.165-.33-.165-.66-.165H24.105l3.3-9.9c.165-.33 0-.825-.33-.99-.33-.165-.825 0-.99.33l-8.91 12.375-2.145 2.64c-.33.495-.165 1.155.165 1.485.165.165.33.165.66.165H29.22l-3.3 9.9c-.165.33 0 .825.33.99z" fill="#fff"/><path d="M37.4 38.353a3.2 3.2 0 014.016-3.094l11.8 3.112a3.2 3.2 0 012.384 3.094v.995a1.6 1.6 0 00.95 1.462l3.5 1.556c.578.256.95.83.95 1.462V58.3a3.2 3.2 0 01-3.2 3.2H40.6a3.2 3.2 0 01-3.2-3.2V38.353z" fill="#fff"/><path d="M57.344 46.116l-3.664-1.008v-3.167c0-.88-.592-1.647-1.424-1.887L42.064 37.27a1.875 1.875 0 00-1.68.336c-.48.368-.768.943-.768 1.551v19.483c0 .527.432.96.96.96h17.248c.528 0 .96-.433.96-.96V47.988c0-.88-.592-1.648-1.424-1.888l-.016.016zm-15.808 11.58V39.143l10.224 2.8v15.755H41.536zm15.328 0H53.68V47.109l3.184.88v9.709z" fill="#148FCC"/><path d="M48.224 44.981H44.56a.963.963 0 00-.96.96c0 .527.432.96.96.96h3.664c.528 0 .96-.433.96-.96a.963.963 0 00-.96-.96zM48.224 51.298H44.56a.963.963 0 00-.96.96c0 .528.432.96.96.96h3.664c.528 0 .96-.432.96-.96a.963.963 0 00-.96-.96z" fill="#148FCC"/></svg>