<svg xmlns="http://www.w3.org/2000/svg" width="13" height="12" fill="none" viewBox="0 0 13 12"><path fill="#12344D" fill-rule="evenodd" d="M1.414 8.299A6 6 0 007 12a6 6 0 005.932-6.9.527.527 0 10-1.042.15c.042.248.062.499.06.75A4.95 4.95 0 117 1.05c.658.004 1.309.141 1.912.405a.526.526 0 10.413-.967 6 6 0 00-7.91 7.81zm4.423-.274a.503.503 0 00.368.158.525.525 0 00.375-.158L11.657 3a.53.53 0 10-.75-.75L6.212 6.908l-1.35-1.35a.517.517 0 00-.75 0 .532.532 0 000 .75l1.725 1.717z" clip-rule="evenodd"/></svg>