<svg xmlns="http://www.w3.org/2000/svg" width="14" height="14" fill="none" viewBox="0 0 14 14"><path fill="var(--color-fill-neutral-bold)" fill-rule="evenodd" d="M13.57 9.371c.56-1.519.56-3.188 0-4.707A7 7 0 007 0 7 7 0 00.42 4.629a6.939 6.939 0 000 4.707A7 7 0 007 14a7 7 0 006.57-4.629zm-8.25.368h3.36A8.199 8.199 0 017 12.52 8.199 8.199 0 015.32 9.74zm-.333-1.225A7.875 7.875 0 014.847 7a7.875 7.875 0 01.14-1.514h4.025c.095.5.142 1.006.14 1.514a7.875 7.875 0 01-.14 1.514H4.987zM1.224 7c.003-.512.073-1.02.21-1.514h2.319A9.546 9.546 0 003.622 7c.003.507.047 1.013.131 1.514H1.434A5.749 5.749 0 011.224 7zM7 1.479A8.199 8.199 0 018.68 4.26H5.32A8.199 8.199 0 017 1.48zm3.247 4.007h2.318c.28.99.28 2.038 0 3.028h-2.319A9.54 9.54 0 0010.377 7a9.54 9.54 0 00-.132-1.514zm1.828-1.225h-2.1A9.328 9.328 0 008.54 1.444a5.766 5.766 0 013.535 2.817zM5.46 1.444A9.327 9.327 0 004.024 4.26H1.915A5.784 5.784 0 015.46 1.444zM1.915 9.739h2.11a9.329 9.329 0 001.434 2.817A5.784 5.784 0 011.915 9.74zm6.624 2.817A9.329 9.329 0 009.974 9.74h2.1a5.766 5.766 0 01-3.535 2.817z" clip-rule="evenodd"/></svg>
