<svg width="16" height="16" viewBox="0 0 16 16" fill="none" xmlns="http://www.w3.org/2000/svg">
	<path fill-rule="evenodd" clip-rule="evenodd" d="M0 8C0 3.58172 3.58172 0 8 0C10.1217 0 12.1566 0.842855 13.6569 2.34315C15.1571 3.84344 16 5.87827 16 8C16 12.4183 12.4183 16 8 16C3.58172 16 0 12.4183 0 8ZM1.4 8C1.4 11.6451 4.35492 14.6 8 14.6C11.6428 14.5945 14.5945 11.6428 14.6 8C14.6 4.35492 11.6451 1.4 8 1.4C4.35492 1.4 1.4 4.35492 1.4 8ZM7 9.18L10.8 5.33C11.0756 5.06199 11.5144 5.06199 11.79 5.33C11.927 5.46025 12.0045 5.64099 12.0045 5.83C12.0045 6.01901 11.927 6.19975 11.79 6.33L7.45 10.68C7.1732 10.9546 6.7268 10.9546 6.45 10.68L4.2 8.42C4.02137 8.24137 3.9516 7.981 4.01699 7.73699C4.08237 7.49297 4.27297 7.30237 4.51699 7.23699C4.761 7.1716 5.02137 7.24137 5.2 7.42L7 9.18Z" fill="#00795B"/>
</svg>
