<svg xmlns="http://www.w3.org/2000/svg" width="17" height="17" fill="none" viewBox="0 0 17 17"><path fill="var(--color-fill-neutral-bold)" fill-rule="evenodd" d="M4.197 5.316a3.13 3.13 0 105.786-2.391 3.13 3.13 0 00-5.786 2.39zM5.36 4.13a1.73 1.73 0 113.46 0 1.73 1.73 0 01-3.46 0zM1.71 17h5.53a.7.7 0 100-1.4H2.53l.73-4.38a1.69 1.69 0 011.67-1.41h4.4a.69.69 0 00.62-.73.7.7 0 00-.7-.66H4.93A3.08 3.08 0 001.88 11L1 16.18a.72.72 0 00.17.57.69.69 0 00.54.25zm11.41-6.31a2.13 2.13 0 112.13-2.13 2.12 2.12 0 01-2.13 2.13zm0-2.86a.73.73 0 100 1.46.73.73 0 000-1.46zM10 17h6.3a.69.69 0 00.53-.25.72.72 0 00.16-.57l-.51-3a2.1 2.1 0 00-2.08-1.76h-2.5a2.1 2.1 0 00-2.08 1.76l-.51 3a.72.72 0 00.16.57.69.69 0 00.53.25zm5.47-1.4h-4.69l.37-2.24a.71.71 0 01.7-.59h2.55a.71.71 0 01.7.59l.37 2.24z" clip-rule="evenodd"/></svg>
