<svg xmlns="http://www.w3.org/2000/svg" width="12" height="12" fill="none" viewBox="0 0 12 12"><path fill="#647A8E" fill-rule="evenodd" d="M5.988 0C2.681 0 0 2.686 0 6v3.686A2.307 2.307 0 002.31 12h.906a.6.6 0 00.6-.6V7.457a.6.6 0 00-.6-.6H2.31a2.34 2.34 0 00-1.112.3V6c0-2.651 2.144-4.8 4.79-4.8a4.795 4.795 0 014.79 4.8v1.157a2.34 2.34 0 00-1.112-.3H8.76a.6.6 0 00-.6.6V11.4a.6.6 0 00.6.6h.906a2.312 2.312 0 002.31-2.314V6c0-3.314-2.68-6-5.988-6zM2.31 8.057h.308V10.8H2.31a1.113 1.113 0 01-1.112-1.114V9.17c0-.615.497-1.114 1.112-1.114zm8.468 1.629c0 .615-.497 1.114-1.112 1.114h-.308V8.057h.308c.615 0 1.112.499 1.112 1.114v.515z" clip-rule="evenodd"/></svg>