<svg xmlns="http://www.w3.org/2000/svg" width="16" height="16" fill="none" viewBox="0 0 16 16"><path fill="#fff" fill-rule="evenodd" d="M11.665 16H12a4.005 4.005 0 004-4V4a4.005 4.005 0 00-4-4H4a4.004 4.004 0 00-4 4v8a4.005 4.005 0 004 4h7.665zM8 2.286a5.714 5.714 0 110 11.428A5.714 5.714 0 018 2.286zM6.988 11.1l.314 1.413a4.17 4.17 0 001.396 0l.314-1.413c.048-.217.088-.435.126-.653-.379.027-.758.046-1.138.046-.38 0-.76-.02-1.139-.046.039.218.079.436.127.653zM3.428 8a4.53 4.53 0 01.058-.697l1.413-.315c.216-.048.435-.088.653-.126a15.658 15.658 0 000 2.276 15.136 15.136 0 01-.653-.126l-1.413-.315A4.596 4.596 0 013.428 8zm5.86-1.287a14.376 14.376 0 00-2.575 0 14.429 14.429 0 000 2.574 14.37 14.37 0 002.574 0 14.37 14.37 0 000-2.574zM12.57 8a4.51 4.51 0 01-.057.697l-1.414.315c-.216.048-.434.088-.653.126.056-.758.056-1.518 0-2.276.219.038.437.078.653.126l1.414.315c.037.23.056.464.057.697zm-2.446 3.347l-.171.78a4.594 4.594 0 002.17-2.168l-.78.172c-.34.073-.685.135-1.031.187-.052.343-.112.686-.188 1.029zm2-5.301l-.779-.172a15.496 15.496 0 00-1.032-.186 16.784 16.784 0 00-.187-1.033l-.172-.779a4.59 4.59 0 012.172 2.17h-.002zM9.011 4.9l-.314-1.413a4.168 4.168 0 00-1.396 0L6.987 4.9c-.048.216-.088.435-.126.654a15.58 15.58 0 012.276 0 15.116 15.116 0 00-.126-.654zM6.045 3.874a4.595 4.595 0 00-2.17 2.17l.78-.172c.34-.075.685-.135 1.032-.187.052-.346.112-.689.187-1.032l.171-.779h.002-.002zm-1.392 6.252l-.78-.172a4.588 4.588 0 002.171 2.17l-.171-.78c-.074-.34-.136-.685-.188-1.031a15.832 15.832 0 01-1.032-.187zM1.143 4v8A2.86 2.86 0 004 14.857h8A2.86 2.86 0 0014.857 12V4A2.86 2.86 0 0012 1.143H4A2.86 2.86 0 001.143 4z" clip-rule="evenodd"/></svg>