<svg width="18" height="18" viewBox="0 0 18 18" fill="none" xmlns="http://www.w3.org/2000/svg">
    <path fill-rule="evenodd" clip-rule="evenodd"
        d="M11.989 0.962002C11.824 0.896002 11.626 0.995001 11.56 1.16C11.494 1.325 11.593 1.523 11.758 1.589C14.794 2.645 16.84 5.516 16.84 8.75C16.84 12.941 13.441 16.34 9.25 16.34C5.059 16.34 1.66 12.941 1.66 8.75C1.66 5.516 3.706 2.645 6.709 1.589C6.874 1.523 6.973 1.325 6.907 1.16C6.841 0.995001 6.643 0.896002 6.478 0.962002C3.244 2.117 1 5.219 1 8.75C1 13.304 4.696 17 9.25 17C13.804 17 17.5 13.304 17.5 8.75C17.5 5.219 15.256 2.117 11.989 0.962002ZM9.481 12.809L13.441 8.816C13.738 8.519 13.276 8.024 12.979 8.354L9.811 11.522C9.679 11.654 9.58 11.621 9.58 11.423V3.47C9.58 3.305 9.448 3.14 9.25 3.14C9.052 3.14 8.92 3.272 8.92 3.47V11.423C8.92 11.588 8.821 11.654 8.689 11.522L5.521 8.354C5.224 8.057 4.729 8.519 5.059 8.816L9.019 12.809C9.151 12.941 9.349 12.941 9.481 12.809Z"
        fill="var(--color-icon-primary)" stroke="var(--color-icon-primary)" stroke-width="0.7" />
</svg>