<svg xmlns="http://www.w3.org/2000/svg" width="512" height="512" viewBox="0 0 512 512"><path d="M256 41C137.259 41 41 137.259 41 256s96.259 215 215 215 215-96.259 215-215A215 215 0 00256 41zm0 392.375c-97.962 0-177.375-79.413-177.375-177.375S158.038 78.625 256 78.625 433.375 158.038 433.375 256C433.227 353.9 353.9 433.227 256 433.375zm0-231.125c14.843 0 26.875-12.032 26.875-26.875S270.843 148.5 256 148.5s-26.875 12.032-26.875 26.875S241.157 202.25 256 202.25zm45.419 144.587c0 10.39-8.423 18.813-18.813 18.813h-53.481c-10.39 0-18.813-8.423-18.813-18.813 0-10.39 8.423-18.812 18.813-18.812h8.063v-62.887h-8.063c-10.39 0-18.813-8.423-18.813-18.813 0-10.39 8.423-18.813 18.813-18.813H256c10.39 0 18.813 8.423 18.813 18.813v81.969h8.062c10.285.147 18.545 8.526 18.544 18.812v-.269z"/></svg>