<svg xmlns="http://www.w3.org/2000/svg" width="20" height="20" viewBox="0 0 20 20" fill="none">
  <circle cx="10.1045" cy="10.1045" r="8.4375" fill="var(--color-fill-semantic-info-mildest)"/>
  <path d="M10 18.5C11.1162 18.5 12.2215 18.2801 13.2528 17.853C14.2841 17.4258 15.2211 16.7997 16.0104 16.0104C16.7997 15.2211 17.4258 14.2841 17.853 13.2528C18.2801 12.2215 18.5 11.1162 18.5 10C18.5 8.88376 18.2801 7.77846 17.853 6.74719C17.4258 5.71592 16.7997 4.77889 16.0104 3.98959C15.2211 3.20029 14.2841 2.57419 13.2528 2.14702C12.2215 1.71986 11.1162 1.5 10 1.5" stroke="var(--color-fill-semantic-info-mild)" stroke-width="1.5" stroke-linecap="round"/>
  <path d="M14.4684 8.20006L11.6408 7.95469L10.5366 5.35491C10.338 4.8817 9.6603 4.8817 9.46166 5.35491L8.35749 7.96053L5.5357 8.20006C5.02159 8.24096 4.81127 8.8836 5.2027 9.22245L7.34679 11.0803L6.70414 13.8378C6.5873 14.3402 7.13063 14.7375 7.57463 14.4687L9.99915 13.0082L12.4237 14.4746C12.8677 14.7433 13.411 14.3461 13.2941 13.8436L12.6515 11.0803L14.7956 9.22245C15.187 8.8836 14.9825 8.24096 14.4684 8.20006ZM9.99915 11.9157L7.80248 13.2419L8.3867 10.7414L6.44709 9.05887L9.00597 8.83686L9.99915 6.48246L10.9982 8.84271L13.557 9.06471L11.6174 10.7473L12.2017 13.2477L9.99915 11.9157Z" fill="var(--color-fill-semantic-info-mild)"/>
</svg>