<svg xmlns="http://www.w3.org/2000/svg" width="24" height="24" fill="none" viewBox="0 0 24 24"><path fill="#12344D" d="M10.618 7.763h8.674a.808.808 0 00.555-.224.768.768 0 00.237-.539c0-.416-.36-.763-.792-.763h-8.674a.81.81 0 00-.556.224.768.768 0 00-.237.539c0 .416.36.763.792.763h.001zM6.836 5.245L5.054 7.101l-.666-.694a.818.818 0 00-1.133-.035.73.73 0 00-.036 1.076L4.46 8.75a.79.79 0 00.576.243.79.79 0 00.576-.243l2.376-2.463a.73.73 0 00-.036-1.076c-.306-.295-.81-.277-1.116.035v-.001zm12.474 6.368h-8.692c-.432 0-.792.347-.792.763 0 .416.36.763.792.763h8.674c.432 0 .792-.347.792-.763a.74.74 0 00-.225-.538.78.78 0 00-.55-.225h.001zm-12.47-.987l-1.783 1.857-.666-.694a.818.818 0 00-1.134-.035.73.73 0 00-.036 1.076l1.242 1.302a.79.79 0 00.576.243.79.79 0 00.576-.243l2.376-2.463a.73.73 0 00-.036-1.076c-.306-.295-.81-.277-1.116.035v-.002zm12.47 6.366h-8.692c-.432 0-.792.347-.792.763 0 .416.36.763.792.763h8.674c.432 0 .792-.347.792-.763a.74.74 0 00-.225-.538.78.78 0 00-.55-.225h.001zm-12.47-.987l-1.782 1.857-.666-.694a.82.82 0 00-1.134-.034c-.324.295-.342.781-.036 1.076l1.242 1.302a.791.791 0 00.576.243.792.792 0 00.576-.243l2.394-2.447a.73.73 0 00-.036-1.076.837.837 0 00-1.134.018v-.002z"/></svg>