<svg xmlns="http://www.w3.org/2000/svg" width="16" height="16" fill="none" viewBox="0 0 16 16"><path fill="#475867" fill-rule="evenodd" d="M14.13 13.235c0 .3-.245.544-.545.544h-2.201a4.605 4.605 0 00-2.668.84l-.405.28a.529.529 0 01-.622 0l-.404-.28a4.62 4.62 0 00-2.668-.84H2.416a.544.544 0 110-1.089h2.2a5.732 5.732 0 013.29 1.035l.094.07.086-.063a5.701 5.701 0 013.298-1.065h2.2a.545.545 0 01.545.568zM15 1.545v9.442c0 .3-.244.544-.544.544h-3.508c-.94-.01-1.86.261-2.645.778H8.187a.466.466 0 01-.374 0H7.697a4.722 4.722 0 00-2.645-.778H1.544A.544.544 0 011 10.987V1.545C1 1.244 1.244 1 1.544 1h3.508A5.833 5.833 0 018 1.778 5.833 5.833 0 0110.948 1h3.508c.3 0 .544.244.544.545zm-9.948 8.899c.829 0 1.648.177 2.403.52V2.752a4.752 4.752 0 00-2.403-.66H2.088v8.352h2.964zM13.91 2.09h-2.963a4.752 4.752 0 00-2.404.661v8.214a5.81 5.81 0 012.404-.521h2.963V2.09z" clip-rule="evenodd"/></svg>