<svg xmlns="http://www.w3.org/2000/svg" viewBox="0 0 32 32"><path fill="#fff" d="M-.02-.02h32v32h-32z" opacity=".01"/><path fill="#448ee1" fill-opacity=".3" stroke="#448ee1" stroke-linejoin="round" stroke-width=".875" d="M1.13 27.59h29.71V5.85H1.13v21.74z"/><path fill="#fff" d="M16.04 27.59l1.94-1.82h10.58V4.37H17.98l-1.94 1.82-1.82-1.82H3.63v21.4h10.59l1.82 1.82z"/><g fill="none" stroke="#363d42" stroke-linejoin="round" stroke-width=".875"><path d="M28.46 25.77V4.37H17.88l-1.82 1.82-1.83-1.82H3.65v21.4h10.58l1.83 1.82 1.82-1.82h10.58z"/><path stroke-linecap="round" d="M6 16h7.74m2.19-9.58v20.49M6 19.06h7.74M6 22.25h7.74m4.69-6.72h7.74m-7.74 3.3h7.74m-7.74 3.42h7.74M18.43 8.81h7.74m-7.74 3.42h7.74"/></g><path fill="#448ee1" fill-opacity=".3" d="M6.02 8.24h7.74v-.79H6.02v.79zm0 5.47h7.74V9.84H6.02v3.87z"/></svg>