<svg width="16" height="19" viewBox="0 0 16 19" fill="none" xmlns="http://www.w3.org/2000/svg">
<path fill-rule="evenodd" clip-rule="evenodd" d="M1.27666 0.799805C1.66326 0.799805 1.97666 1.11321 1.97666 1.4998L1.97666 18.0998C1.97666 18.4864 1.66326 18.7998 1.27666 18.7998C0.890061 18.7998 0.57666 18.4864 0.57666 18.0998V1.4998C0.57666 1.11321 0.890061 0.799805 1.27666 0.799805ZM4.81416 4.24277V7.44277H10.0142V4.24277H4.81416ZM4.41416 2.84277C3.86188 2.84277 3.41416 3.29049 3.41416 3.84277V7.84277C3.41416 8.39506 3.86188 8.84277 4.41416 8.84277H10.4142C10.9664 8.84277 11.4142 8.39506 11.4142 7.84277V3.84277C11.4142 3.29049 10.9664 2.84277 10.4142 2.84277H4.41416ZM4.81416 15.4428V12.2428H14.0142V15.4428H4.81416ZM3.41416 11.8428C3.41416 11.2905 3.86188 10.8428 4.41416 10.8428H14.4142C14.9664 10.8428 15.4142 11.2905 15.4142 11.8428V15.8428C15.4142 16.3951 14.9664 16.8428 14.4142 16.8428H4.41416C3.86188 16.8428 3.41416 16.3951 3.41416 15.8428V11.8428Z" fill="var(--color-fill-neutral-bold)"/>
</svg>
