<svg xmlns="http://www.w3.org/2000/svg" width="10" height="12" fill="none" viewBox="0 0 10 12"><path fill="#475867" fill-rule="evenodd" d="M4.699 12a.756.756 0 01-.588-.28L1.108 7.75a4.714 4.714 0 117.213 0c-.136.168-3.034 3.97-3.034 3.97a.756.756 0 01-.588.28zm2.183-9.657a3.244 3.244 0 00-4.472.095 3.255 3.255 0 00-.179 4.4L4.7 10.06c.745-.931 1.654-2.137 2.145-2.79.201-.266.332-.44.353-.464a3.244 3.244 0 00-.315-4.463zM6.872 4.6a2.173 2.173 0 11-4.346 0 2.173 2.173 0 014.346 0zm-1.47 0a.703.703 0 10-1.407 0 .703.703 0 001.407 0z" clip-rule="evenodd"/></svg>