<svg xmlns="http://www.w3.org/2000/svg" fill="none" viewBox="0 0 14 15"><path fill="var(--color-fill-neutral-bold)" fill-rule="evenodd" d="M6.44 12.14a.72.72 0 001.12 0s2.76-3.62 2.89-3.78a4.49 4.49 0 10-6.87 0l2.86 3.78zM4.82 3.3a3.09 3.09 0 014.56 4.16c-.02.023-.145.189-.336.443-.468.62-1.334 1.77-2.043 2.657L4.65 7.49a3.1 3.1 0 01.17-4.19zM7 7.43a2.07 2.07 0 100-4.14 2.07 2.07 0 000 4.14zm0-2.74a.67.67 0 110 1.34.67.67 0 010-1.34zm5.93 5.5l1 2.93a1.45 1.45 0 01-.2 1.29c-.27.37-.7.59-1.16.59H1.43a1.44 1.44 0 01-1.16-.59 1.45 1.45 0 01-.2-1.29l1-2.93a1.43 1.43 0 011.36-1h.8a.7.7 0 110 1.4h-.8l-1 3H12.6l-1-3h-.83a.7.7 0 110-1.4h.8a1.43 1.43 0 011.36 1z" clip-rule="evenodd"/></svg>
