<!-- Generated by IcoMoon.io -->
<svg version="1.1" xmlns="http://www.w3.org/2000/svg" width="28" height="32" viewBox="0 0 28 32">
<title>lock-3</title>
<path d="M22.5 10h0.1c2.982 0 5.4 2.418 5.4 5.4v0 11.2c0 2.982-2.418 5.4-5.4 5.4v0h-17.2c-2.982 0-5.4-2.418-5.4-5.4v0-11.2c0-0 0-0.001 0-0.001 0-2.982 2.418-5.4 5.4-5.4 0.035 0 0.070 0 0.105 0.001l-0.005-0v-1.5c0-4.694 3.806-8.5 8.5-8.5s8.5 3.806 8.5 8.5v0 1.5zM14 2.8c-3.148 0-5.7 2.552-5.7 5.7v0 1.5h11.4v-1.5c0-3.148-2.552-5.7-5.7-5.7v0zM22.6 29.2c1.436 0 2.6-1.164 2.6-2.6v0-11.2c0-1.436-1.164-2.6-2.6-2.6v0h-17.2c-1.436 0-2.6 1.164-2.6 2.6v0 11.2c0 1.436 1.164 2.6 2.6 2.6v0h17.2zM11.4 19.66c0-1.436 1.164-2.6 2.6-2.6s2.6 1.164 2.6 2.6v0c-0.014 0.892-0.485 1.671-1.189 2.114l-0.011 0.006v1.62c0 0.773-0.627 1.4-1.4 1.4s-1.4-0.627-1.4-1.4v-1.62c-0.715-0.449-1.186-1.228-1.2-2.118l-0-0.002z"></path>
</svg>
