<svg width="14" height="16" viewBox="0 0 14 16" fill="none" xmlns="http://www.w3.org/2000/svg">
<path d="M11.9002 7.30078H2.1002C1.327 7.30078 0.700195 7.92758 0.700195 8.70078V13.6008C0.700195 14.374 1.327 15.0008 2.1002 15.0008H11.9002C12.6734 15.0008 13.3002 14.374 13.3002 13.6008V8.70078C13.3002 7.92758 12.6734 7.30078 11.9002 7.30078Z" stroke="#12344D" stroke-width="1.4" stroke-linecap="round" stroke-linejoin="round"/>
<path d="M3.5 7.3V4.5C3.5 3.57174 3.86875 2.6815 4.52513 2.02513C5.1815 1.36875 6.07174 1 7 1C7.92826 1 8.8185 1.36875 9.47487 2.02513C10.1313 2.6815 10.5 3.57174 10.5 4.5V7.3" stroke="#12344D" stroke-width="1.4" stroke-linecap="round" stroke-linejoin="round"/>
</svg>
