<svg xmlns="http://www.w3.org/2000/svg" width="512" height="512" viewBox="0 0 512 512"><path d="M177.94 201.55v-84.599c0-39.38 31.924-71.303 71.303-71.303h13.305c39.38 0 71.303 31.924 71.303 71.303v84.599h42.226v-86.107c0-60.71-49.215-109.925-109.925-109.925H245.64c-60.71 0-109.925 49.215-109.925 109.925v86.107h42.225zM404.954 224.55H106.838c-10.477 2.576-18.25 12.028-18.25 23.3v234.634c0 13.253 10.744 23.998 23.998 23.998h286.619c13.254 0 23.998-10.744 23.998-23.998V247.849c0-11.271-7.773-20.723-18.249-23.299zM274.401 378.294v50.892H237.39v-50.892c-12.932-6.704-21.775-20.203-21.775-35.775 0-22.246 18.034-40.281 40.281-40.281s40.281 18.033 40.281 40.281c0 15.573-8.843 29.071-21.776 35.775z"/></svg>