<svg xmlns="http://www.w3.org/2000/svg" width="11" height="12" fill="none" viewBox="0 0 11 12"><path fill="#96A2B0" fill-rule="evenodd" d="M5.25 0a3.187 3.187 0 013.188 3.188v.562h.037c1.118 0 2.025.907 2.025 2.025v4.2A2.025 2.025 0 018.475 12h-6.45A2.025 2.025 0 010 9.975v-4.2A2.025 2.025 0 012.063 3.75v-.563A3.187 3.187 0 015.25 0zm3.225 4.8h-6.45a.975.975 0 00-.975.975v4.2a.975.975 0 00.975.975h6.45a.975.975 0 00.975-.975v-4.2a.975.975 0 00-.975-.975zM5.25 6.398c.538 0 .975.436.975.974a.953.953 0 01-.45.796v.607a.525.525 0 11-1.05 0v-.607a.953.953 0 01-.45-.795c0-.539.437-.976.975-.976zm0-5.348c-1.18 0-2.138.957-2.138 2.138v.562h4.276v-.563c0-1.18-.957-2.137-2.138-2.137z" clip-rule="evenodd"/></svg>