<svg xmlns="http://www.w3.org/2000/svg" width="16" height="16" fill="none" viewBox="0 0 16 16"><path fill="#12344D" fill-rule="evenodd" d="M15.84 6.4l-1.543-2.069.823-2.434A.8.8 0 0014.103.88l-2.434.823L9.6.16a.811.811 0 00-.846-.069.823.823 0 00-.434.72l.034 2.618L6.252 4.88a.8.8 0 00.228 1.417l.377.126L.55 12.777a1.908 1.908 0 000 2.674c.355.354.836.551 1.337.549.5.002.982-.195 1.337-.549l6.343-6.308.137.411a.8.8 0 00.64.56h.126a.8.8 0 00.651-.343l1.452-2.125h2.582a.914.914 0 00.72-.446.789.789 0 00-.034-.8zM2.126 14.32a.24.24 0 01-.412 0 .286.286 0 010-.411L8.617 6.96l.32.103.103.308-6.914 6.949zM12.24 6.034a.743.743 0 00-.663.343L10.79 7.52v-.137l-.366-1.143a.8.8 0 00-.606-.526l-1.314-.468 1.143-.789a.8.8 0 00.343-.663V2.411l1.143.823a.8.8 0 00.73.126l1.304-.446-.446 1.303a.8.8 0 00.126.732l.823 1.142-1.429-.057z" clip-rule="evenodd"/></svg>