<svg width="16" height="16" viewBox="0 0 16 16" fill="none" xmlns="http://www.w3.org/2000/svg">
<rect width="16" height="16" fill="var(--color-fill-surface)"/>
<path d="M2.4 13.5999C2.015 13.5999 1.68542 13.4628 1.41125 13.1887C1.13708 12.9145 1 12.5849 1 12.1999V3.7999C1 3.4149 1.13708 3.08532 1.41125 2.81115C1.68542 2.53699 2.015 2.3999 2.4 2.3999H13.6C13.985 2.3999 14.3146 2.53699 14.5887 2.81115C14.8629 3.08532 15 3.4149 15 3.7999V12.1999C15 12.5849 14.8629 12.9145 14.5887 13.1887C14.3146 13.4628 13.985 13.5999 13.6 13.5999H2.4ZM8 8.5774C8.05833 8.5774 8.11958 8.56865 8.18375 8.55115C8.24792 8.53365 8.30917 8.5074 8.3675 8.4724L13.32 5.3749C13.4133 5.31657 13.4833 5.24365 13.53 5.15615C13.5767 5.06865 13.6 4.9724 13.6 4.8674C13.6 4.63407 13.5008 4.45907 13.3025 4.3424C13.1042 4.22574 12.9 4.23157 12.69 4.3599L8 7.2999L3.31 4.3599C3.1 4.23157 2.89583 4.22865 2.6975 4.35115C2.49917 4.47365 2.4 4.64574 2.4 4.8674C2.4 4.98407 2.42333 5.08615 2.47 5.17365C2.51667 5.26115 2.58667 5.32824 2.68 5.3749L7.6325 8.4724C7.69083 8.5074 7.75208 8.53365 7.81625 8.55115C7.88042 8.56865 7.94167 8.5774 8 8.5774Z" fill="var(--color-fill-semantic-info-bold)"/>
</svg>
