<svg xmlns="http://www.w3.org/2000/svg" fill="none" viewBox="0 0 14 11"><path fill="var(--color-fill-neutral-bold)" fill-rule="evenodd" d="M1.488 10.5h11.024c.822 0 1.488-.666 1.488-1.488V1.487C14 .666 13.334 0 12.512 0H1.489C.666 0 0 .666 0 1.488v7.524C0 9.834.666 10.5 1.488 10.5zm-.263-9.012c0-.145.118-.263.262-.263h11.025c.146 0 .263.118.263.262v7.525a.262.262 0 01-.263.263H1.489a.263.263 0 01-.263-.263V1.487zm4.9 4.716c.256.179.563.27.875.262a1.47 1.47 0 00.875-.262l4.104-2.809a.608.608 0 00-.683-1.006L7.158 5.197a.263.263 0 01-.29 0L2.705 2.38a.608.608 0 00-.683 1.006l4.104 2.818z" clip-rule="evenodd"/></svg>
