<svg width="16" height="16" viewBox="0 0 16 16" fill="none" xmlns="http://www.w3.org/2000/svg"><path d="M9.17961 15.3599H6.82961C6.68961 15.3599 6.55961 15.2599 6.53961 15.1099L6.23961 13.2999C5.52961 13.0599 4.85961 12.6799 4.29961 12.1799L2.57961 12.8199C2.44961 12.8699 2.28961 12.8199 2.21961 12.6899L1.03961 10.6499C0.969609 10.5299 0.999609 10.3699 1.10961 10.2799L2.51961 9.11989C2.44961 8.74989 2.40961 8.36989 2.40961 7.99989C2.40961 7.62989 2.44961 7.24989 2.51961 6.87989L1.10961 5.71989C0.999609 5.62989 0.969609 5.46989 1.03961 5.34989L2.21961 3.30989C2.28961 3.18989 2.43961 3.12989 2.57961 3.17989L4.29961 3.81989C4.86961 3.31989 5.52961 2.93989 6.23961 2.69989L6.53961 0.889893C6.55961 0.749893 6.68961 0.639893 6.82961 0.639893H9.17961C9.31961 0.639893 9.44961 0.739893 9.46961 0.889893L9.76961 2.69989C10.4796 2.93989 11.1496 3.31989 11.7096 3.81989L13.4296 3.17989C13.5596 3.12989 13.7196 3.17989 13.7896 3.30989L14.9696 5.34989C15.0396 5.46989 15.0096 5.62989 14.8996 5.71989L13.4896 6.87989C13.5696 7.24989 13.5996 7.62989 13.5996 7.99989C13.5996 8.36989 13.5596 8.74989 13.4896 9.11989L14.8996 10.2799C15.0096 10.3699 15.0396 10.5299 14.9696 10.6499L13.7896 12.6899C13.7196 12.8099 13.5696 12.8699 13.4296 12.8199L11.7096 12.1799C11.1396 12.6799 10.4796 13.0599 9.76961 13.2999L9.46961 15.1099C9.44961 15.2499 9.31961 15.3599 9.17961 15.3599Z" stroke="#12344D" stroke-width="1.5" stroke-miterlimit="10"/><path d="M8 5V8.33151L9.74559 10.0769" stroke="#12344D" stroke-linecap="round" stroke-linejoin="round"/></svg>