<svg xmlns="http://www.w3.org/2000/svg" width="18" height="18" fill="none" viewBox="0 0 18 18"><path fill="var(--color-fill-neutral-bold)" fill-rule="evenodd" d="M8 4.23c3.16 0 5.71 2.56 5.71 5.71S11.15 15.65 8 15.65c-3.16 0-5.71-2.56-5.71-5.71S4.85 4.23 8 4.23zm-1.01 8.82l.31 1.41c.46.08.93.08 1.4 0l.31-1.41c.05-.22.09-.43.13-.65-.38.03-.76.05-1.14.05-.38 0-.76-.02-1.14-.05.04.22.08.44.13.65zm-3.56-3.1c0-.23.02-.47.06-.7l1.41-.31c.22-.05.43-.09.65-.13-.06.76-.06 1.52 0 2.28-.22-.04-.44-.08-.65-.13l-1.41-.31a4.05 4.05 0 01-.06-.7zm5.86-1.29c-.86-.08-1.72-.08-2.57 0-.08.86-.08 1.72 0 2.57.86.08 1.72.08 2.57 0 .08-.86.08-1.72 0-2.57zm3.28 1.29c0 .23-.02.47-.06.7l-1.41.31c-.22.05-.43.09-.65.13.06-.76.06-1.52 0-2.28.22.04.44.08.65.13l1.41.31c.04.23.06.46.06.7zm-2.44 3.34l-.17.78c.95-.45 1.72-1.22 2.17-2.17l-.78.17c-.34.07-.69.13-1.03.19-.05.34-.11.69-.19 1.03zm2-5.3l-.78-.17c-.34-.08-.69-.13-1.03-.19-.05-.35-.11-.69-.19-1.03l-.17-.78c.95.45 1.72 1.22 2.17 2.17zM9.01 6.85L8.7 5.44c-.46-.08-.93-.08-1.4 0l-.31 1.41c-.05.22-.09.44-.13.65.76-.06 1.52-.06 2.28 0-.04-.22-.08-.44-.13-.65zM6.05 5.82c-.95.45-1.72 1.22-2.17 2.17l.78-.17c.34-.08.69-.13 1.03-.19.05-.35.11-.69.19-1.03l.17-.78zm-1.39 6.25l-.78-.17c.45.95 1.22 1.72 2.17 2.17l-.17-.78c-.07-.34-.14-.69-.19-1.03-.35-.05-.69-.11-1.03-.19z" clip-rule="evenodd"/><path fill="var(--color-fill-neutral-bold)" d="M12.12 17.95H3.89C1.75 17.95 0 16.21 0 14.06V5.84c0-2.15 1.74-3.89 3.89-3.89h7.62c.3 0 .55.25.55.55 0 .3-.25.55-.55.55H3.89C2.35 3.05 1.1 4.3 1.1 5.84v8.22c0 1.54 1.25 2.79 2.79 2.79h8.23c1.54 0 2.79-1.25 2.79-2.79V6.44c0-.3.25-.55.55-.55.3 0 .55.25.55.55v7.62c0 2.14-1.74 3.89-3.89 3.89zM17.94 2.5c0 .3-.24.55-.55.55H16v1.39c0 .3-.25.55-.55.55-.3 0-.55-.25-.55-.55V3.05h-1.39c-.31 0-.55-.25-.55-.55 0-.3.24-.55.55-.55h1.39V.55c0-.3.25-.55.55-.55.3 0 .55.25.55.55v1.4h1.39c.31 0 .55.24.55.55z"/></svg>
