<svg xmlns="http://www.w3.org/2000/svg" width="13" height="13" fill="none" viewBox="0 0 13 13"><path fill="#12344D" fill-rule="evenodd" d="M6.993 2.917a1.5 1.5 0 10-.986 0A.503.503 0 006 3v2.5H1.5A.5.5 0 001 6v4c0 .028.002.056.007.083a1.5 1.5 0 10.986 0A.503.503 0 002 10V6.5h4V10c0 .028.002.056.007.083a1.5 1.5 0 10.986 0A.503.503 0 007 10V6.5h4V10c0 .028.002.056.007.083a1.5 1.5 0 10.986 0A.504.504 0 0012 10V6a.5.5 0 00-.5-.5H7V3a.503.503 0 00-.007-.083zM6.5 2a.5.5 0 100-1 .5.5 0 000 1zm-5 10a.5.5 0 100-1 .5.5 0 000 1zm5.5-.5a.5.5 0 11-1 0 .5.5 0 011 0zm4.5.5a.5.5 0 100-1 .5.5 0 000 1z" clip-rule="evenodd"/></svg>