<svg xmlns="http://www.w3.org/2000/svg" width="20" height="20" fill="none" viewBox="0 0 20 20"><path fill="var(--color-icon-inverse)" fill-rule="evenodd" d="M18.41 16.16H7.95c-.56 0-1.06-.29-1.34-.78-.28-.49-.28-1.07 0-1.55l5.23-9.06c.28-.48.78-.77 1.34-.77s1.06.29 1.34.77l5.23 9.06c.28.49.28 1.07 0 1.55-.28.49-.78.77-1.34.77v.01zM13.14 5.53h-.01L7.9 14.59l10.51.08-5.19-9.13h-.08v-.01zM4.55 16.14H1.26c-.69 0-1.26-.57-1.26-1.26v-2.41c0-.59.41-1.11.99-1.22.53-.11.92-.59.92-1.13 0-.54-.39-1.02-.92-1.13C.42 8.87 0 8.36 0 7.77V5.36C0 4.67.56 4.1 1.26 4.1h8.43c.41 0 .75.34.75.75s-.34.75-.75.75h-8.2v1.97a2.67 2.67 0 011.91 2.55c0 1.18-.79 2.22-1.91 2.55v1.97h3.06c.41 0 .75.34.75.75s-.34.75-.75.75zm7.88-4.95c0 .41.34.75.75.75s.75-.34.75-.75V8.62c0-.41-.34-.75-.75-.75s-.75.34-.75.75v2.57zm-.22 2.11a.97.97 0 101.942-.002.97.97 0 00-1.942.002zm-6.44-1.19h-.88c-.41 0-.75-.34-.75-.75s.34-.75.75-.75h.88c.41 0 .75.34.75.75s-.34.75-.75.75zm-.88-2.49H7c.41 0 .75-.34.75-.75s-.34-.75-.75-.75H4.89c-.41 0-.75.34-.75.75s.34.75.75.75z" clip-rule="evenodd"/></svg>
