<svg width="9" height="14" viewBox="0 0 9 14" fill="none" xmlns="http://www.w3.org/2000/svg">
<path fill-rule="evenodd" clip-rule="evenodd" d="M7.28713 1.49289C7.0996 1.30535 6.84526 1.2 6.58004 1.2H6.20038L6.16003 1.35999C6.13636 1.46355 6.07967 1.55661 5.99851 1.62515C5.91734 1.69369 5.81611 1.734 5.71005 1.74H3.04004C2.92877 1.74057 2.82064 1.70325 2.7334 1.63419C2.64616 1.56512 2.585 1.46842 2.56003 1.35999L2.51968 1.2H2.20004C1.93482 1.2 1.68045 1.30535 1.49291 1.49289C1.30538 1.68043 1.20004 1.93478 1.20004 2.2V11.78C1.20004 12.0452 1.30538 12.2996 1.49291 12.4871C1.68045 12.6746 1.93482 12.78 2.20004 12.78H6.58004C6.84526 12.78 7.0996 12.6746 7.28713 12.4871C7.47467 12.2996 7.58004 12.0452 7.58004 11.78V2.2C7.58004 1.93478 7.47467 1.68043 7.28713 1.49289ZM2.20004 -7.58099e-06H6.58004C7.16352 -7.58099e-06 7.72309 0.231783 8.13567 0.644363C8.54825 1.05694 8.78002 1.61652 8.78002 2.2V11.78C8.78002 12.3635 8.54825 12.9231 8.13567 13.3356C7.72309 13.7482 7.16352 13.98 6.58004 13.98H2.20004C1.91076 13.9813 1.62407 13.9253 1.35656 13.8152C1.08905 13.7051 0.845994 13.5431 0.641441 13.3386C0.436888 13.134 0.274879 12.891 0.164787 12.6235C0.0546959 12.3559 -0.00130101 12.0693 2.29396e-05 11.78V2.2C-0.00130101 1.91072 0.0546959 1.62404 0.164787 1.35653C0.274879 1.08902 0.436888 0.845964 0.641441 0.641411C0.845994 0.436858 1.08905 0.274856 1.35656 0.164764C1.62407 0.054673 1.91076 -0.00133153 2.20004 -7.58099e-06Z" fill="var(--color-fill-neutral-bold)"/>
</svg>
