<svg width="17" height="17" viewBox="0 0 17 17" fill="none" xmlns="http://www.w3.org/2000/svg"><rect width="16" height="16" transform="translate(0.333008 0.0869446)" fill="var(--color-fill-surface)" fill-opacity="0.01"/><path fill-rule="evenodd" clip-rule="evenodd" d="M14.896 5.28942C14.9285 5.25697 14.9574 5.22197 14.9826 5.18498C15.2943 4.8123 15.3744 4.34095 15.3147 3.92149C15.2492 3.46087 15.0151 3.01539 14.6637 2.66402L13.7539 1.75416C13.4002 1.40049 12.9532 1.16988 12.4935 1.1064C12.034 1.04295 11.5139 1.14609 11.1285 1.53153L2.23322 10.4268C2.1319 10.5281 2.06278 10.6571 2.03452 10.7976L1.3473 14.2144C1.29932 14.4529 1.37384 14.6996 1.54585 14.8718C1.71787 15.0439 1.96457 15.1185 2.20314 15.0707L5.62961 14.3834C5.77023 14.3552 5.89937 14.2861 6.00078 14.1847L14.896 5.28942ZM12.1568 2.55985C12.1568 2.55985 12.1584 2.55834 12.1606 2.55708C12.163 2.55573 12.1684 2.553 12.1781 2.55025C12.1982 2.54459 12.2367 2.53901 12.2945 2.547C12.4132 2.56338 12.5759 2.63284 12.7256 2.78249L13.6354 3.69234C13.7874 3.84429 13.8582 4.0086 13.8749 4.12631C13.8831 4.1834 13.8774 4.2199 13.8724 4.23747C13.8699 4.24597 13.8668 4.25179 13.8668 4.25179L13.8658 4.25323L13.8646 4.25462C13.8382 4.28033 13.8141 4.3077 13.7923 4.33645L13.0123 5.11648L11.3062 3.41041L12.1568 2.55985ZM10.2779 4.43873L3.41692 11.2997L2.98846 13.4299L5.12798 13.0008L11.984 6.14481L10.2779 4.43873Z" fill="var(--color-icon-primary)"/></svg>