<svg xmlns="http://www.w3.org/2000/svg" viewBox="0 0 512 512"><path fill="var(--color-fill-neutral-bold)" d="M256.1 162.3c37.7 0 68.9-30.7 68.9-68.9s-31.2-68.5-68.9-68.5-68.9 30.7-68.9 68.9 30.7 68.5 68.9 68.5zm0-105.3c20.5 0 36.8 16.3 36.8 36.8s-16.3 36.8-36.8 36.8-36.8-16.3-36.8-36.8S235.6 57 256.1 57zm0 129.9c-37.7 0-68.9 30.7-68.9 68.9 0 37.7 30.7 68.9 68.9 68.9s68.4-31.2 68.4-68.9-30.7-68.9-68.4-68.9zm0 105.8c-20.5 0-36.8-16.3-36.8-36.8s16.3-36.8 36.8-36.8c20.5 0 36.8 16.3 36.8 36.8s-16.8 36.8-36.8 36.8zm0 56.9c-37.7 0-68.9 30.7-68.9 68.9 0 37.7 30.7 68.9 68.9 68.9s68.4-31.2 68.4-69.4c.1-37.7-30.7-68.4-68.4-68.4zm0 105.2c-20.5 0-36.8-16.3-36.8-36.8 0-20.5 16.3-36.8 36.8-36.8 20.5 0 36.8 16.3 36.8 36.8 0 20.4-16.8 36.8-36.8 36.8z"/></svg>
