<svg xmlns="http://www.w3.org/2000/svg" width="25" height="24" fill="none"><path fill="var(--color-icon-inverse)" fill-opacity=".01" d="M.5 0h24v24H.5z"/><path fill="var(--color-icon-primary)" d="M6.427 9.955 5.182 11.2l5.09-.015c.39 0 .704.315.705.704a.74.74 0 0 1-.22.502.7.7 0 0 1-.487.206H5.18l1.24 1.241a.699.699 0 0 1-.99.99L3 12.396a.8.8 0 0 1-.113-.183l-.07-.07a.68.68 0 0 1 0-.551l.071-.071A1 1 0 0 1 3 11.408l2.44-2.44a.699.699 0 1 1 .987.987M9.47 4.938l2.44-2.44a.7.7 0 0 1 .988-.001l2.432 2.432a.699.699 0 0 1-.99.99L13.1 4.678l-.001 5.09a.66.66 0 0 1-.213.495.7.7 0 0 1-.494.212.706.706 0 0 1-.705-.705l.015-5.09-1.245 1.245a.699.699 0 1 1-.987-.987M11.68 19.097v-5.09a.71.71 0 0 1 1.06-.614.7.7 0 0 1 .352.611l-.05 5.055 1.244-1.244a.699.699 0 1 1 .987.986l-2.475 2.475a1 1 0 0 1-.113.113l-.07.071a.68.68 0 0 1-.551.001l-.07-.07a1 1 0 0 1-.114-.113L9.45 18.846a.699.699 0 0 1 .99-.99zM18.36 8.948a.7.7 0 0 0-.002.988l1.24 1.24-5.09.002a.71.71 0 0 0-.613 1.06.7.7 0 0 0 .611.352l5.14-.008-1.266 1.265a.699.699 0 1 0 .987.987l2.44-2.44a.7.7 0 0 0 .001-.988l-2.46-2.46a.7.7 0 0 0-.988.002"/></svg>
