<svg width="22" height="21" viewBox="0 0 22 21" fill="none" xmlns="http://www.w3.org/2000/svg">
<path d="M15.8911 9.05374V3.70068L11.0323 6.40133V11.7544L15.8911 9.05374Z" stroke="#FEA800" stroke-width="1.2" stroke-linejoin="round"/>
<path d="M6.17358 9.05374V3.70068L11.0323 6.40133V11.7544L6.17358 9.05374Z" stroke="#FEA800" stroke-width="1.2" stroke-linejoin="round"/>
<path d="M6.17395 3.70064L11.0327 6.40128L15.8915 3.70064L11.0327 1L6.17395 3.70064Z" stroke="#4A5867" stroke-width="1.2" stroke-linejoin="round"/>
<path d="M20.7494 17.1065V11.7534L15.8906 14.4541V19.8071L20.7494 17.1065Z" stroke="#FEA800" stroke-width="1.2" stroke-linejoin="round"/>
<path d="M11.0319 17.1065V11.7534L15.8906 14.4541V19.8071L11.0319 17.1065Z" stroke="#FEA800" stroke-width="1.2" stroke-linejoin="round"/>
<path d="M11.0322 11.7534L15.891 14.454L20.7498 11.7534L15.891 9.05273L11.0322 11.7534Z" stroke="#4A5867" stroke-width="1.2" stroke-linejoin="round"/>
<path d="M11.0327 17.1065V11.7534L6.17395 14.4541V19.8071L11.0327 17.1065Z" stroke="#FEA800" stroke-width="1.2" stroke-linejoin="round"/>
<path d="M1.31519 17.1065V11.7534L6.17395 14.4541V19.8071L1.31519 17.1065Z" stroke="#FEA800" stroke-width="1.2" stroke-linejoin="round"/>
<path d="M1.31506 11.7534L6.17383 14.454L11.0326 11.7534L6.17383 9.05273L1.31506 11.7534Z" stroke="#4A5867" stroke-width="1.2" stroke-linejoin="round"/>
</svg>
