<svg width="16" height="16" viewBox="0 0 16 16" fill="none" xmlns="http://www.w3.org/2000/svg">
<rect width="16" height="16" fill="var(--color-icon-primary)" fill-opacity="0.01"/>
<path fill-rule="evenodd" clip-rule="evenodd" d="M10.88 4.21001L7.04001 8.05001L7.02001 8.04001L8.09001 9.11001C8.32001 9.35001 8.32001 9.73001 8.09001 9.96001C7.98001 10.08 7.82001 10.14 7.67001 10.14C7.52001 10.14 7.37001 10.09 7.25001 9.97001L6.18001 8.90001L3.03001 12.05C2.92001 12.16 2.76001 12.22 2.61001 12.22C2.46001 12.22 2.31001 12.16 2.19001 12.04C1.96001 11.8 1.96001 11.42 2.19001 11.19L5.34001 8.05001L4.14001 6.85001C3.91001 6.61001 3.90001 6.23001 4.14001 6.00001C4.38001 5.77001 4.76001 5.77001 4.99001 6.00001L6.19001 7.20001L9.18001 4.21001H1.61001C1.28001 4.21001 1.01001 3.94001 1.01001 3.61001C1.01001 3.28001 1.28001 3.01001 1.61001 3.01001H5.81001V1.61001C5.81001 1.28001 6.08001 1.01001 6.41001 1.01001C6.74001 1.01001 7.01001 1.28001 7.01001 1.61001V3.01001H11.42C11.75 3.01001 12.02 3.28001 12.02 3.61001C12.02 3.94001 11.75 4.21001 11.42 4.21001H10.88ZM12.51 8.12001L14.96 14.18V14.19C15.09 14.5 14.94 14.85 14.63 14.97C14.56 15 14.49 15.01 14.41 15.01C14.17 15.01 13.94 14.86 13.85 14.63L13.14 12.87H10.7L9.96002 14.64C9.83002 14.95 9.47002 15.09 9.17002 14.96C8.86002 14.83 8.72002 14.48 8.85002 14.17L11.4 8.11001C11.5 7.88001 11.72 7.74001 11.96 7.74001C12.2 7.75001 12.42 7.89001 12.51 8.12001ZM11.95 9.92001L11.21 11.67H12.66L11.95 9.92001Z" fill="var(--color-icon-primary)"/>
</svg>
