
<svg width="40" height="40" viewBox="0 0 40 40" fill="none" xmlns="http://www.w3.org/2000/svg">
    <path fill-rule="evenodd" clip-rule="evenodd" d="M28.1666 11.2497H25.7666C25.4894 9.56864 24.037 8.33477 22.3333 8.33301H17.6666C15.9629 8.33477 14.5104 9.56864 14.2333 11.2497H11.8333C9.90407 11.2588 8.3424 12.8205 8.33327 14.7497V19.4163C8.32977 20.4058 8.75535 21.3481 9.49994 21.9997V26.9997C9.49994 28.2374 9.99161 29.4243 10.8668 30.2995C11.7419 31.1747 12.9289 31.6663 14.1666 31.6663H25.8333C27.071 31.6663 28.2579 31.1747 29.1331 30.2995C30.0083 29.4243 30.4999 28.2374 30.4999 26.9997V21.9997C31.2445 21.3481 31.6701 20.4058 31.6666 19.4163V14.7497C31.6575 12.8205 30.0958 11.2588 28.1666 11.2497ZM17.6666 10.6663H22.3333C22.7413 10.6725 23.1156 10.8945 23.3166 11.2497H16.6666C16.8706 10.8894 17.2526 10.6666 17.6666 10.6663ZM10.6666 14.7497C10.6666 14.1053 11.1889 13.583 11.8333 13.583H28.1666C28.8109 13.583 29.3333 14.1053 29.3333 14.7497V19.4163C29.3391 19.8363 29.1155 20.2261 28.7499 20.433C28.5711 20.5311 28.3706 20.5827 28.1666 20.583H23.3333C22.8456 19.5548 21.8045 18.9041 20.6666 18.9163H19.4999C18.362 18.9041 17.3209 19.5548 16.8333 20.583H11.8333C11.6293 20.5827 11.4287 20.5311 11.2499 20.433C10.8844 20.2261 10.6608 19.8363 10.6666 19.4163V14.7497ZM21.1666 21.7497C21.1667 22.0746 20.9081 22.3406 20.5833 22.3497H19.4166C19.0918 22.3406 18.8331 22.0746 18.8333 21.7497C18.8423 21.434 19.1008 21.1829 19.4166 21.183H20.5833C20.899 21.1829 21.1576 21.434 21.1666 21.7497ZM25.8333 29.333H14.1666C12.8779 29.333 11.8333 28.2883 11.8333 26.9997V22.9163H16.7499C17.2078 23.9836 18.2553 24.6775 19.4166 24.683H20.5833C21.7748 24.7113 22.8637 24.0118 23.3333 22.9163H28.3333V26.9997C28.3349 27.6485 28.0664 28.2687 27.592 28.7114C27.1177 29.1541 26.4804 29.3794 25.8333 29.333Z" fill="var(--color-text-secondary)"/>
</svg>
