<svg width="150" height="150" viewBox="0 0 150 150" xmlns="http://www.w3.org/2000/svg">
<rect width="150" height="150" fill="var(--color-fill-container)"/>
<path d="M91.5 84.5C98.4036 84.5 104 90.0964 104 97V106L97 110V97C97 93.9624 94.5376 91.5 91.5 91.5H58.5C55.4624 91.5 53 93.9624 53 97V110L46 106V97C46 90.0964 51.5964 84.5 58.5 84.5H91.5ZM75 40C85.4941 40 94.5 47.7962 94.5 58C94.5 68.2038 85.4941 76 75 76C64.5059 76 55.5 68.2038 55.5 58C55.5 47.7962 64.5059 40 75 40ZM75 46C67.2687 46 61.5 51.6352 61.5 58C61.5 64.3648 67.2687 70 75 70C82.7313 70 88.5 64.3648 88.5 58C88.5 51.6352 82.7313 46 75 46Z" fill="var(--color-boundary-border-mildest)"/>
</svg>
