<svg xmlns="http://www.w3.org/2000/svg" width="14" height="16" fill="none" viewBox="0 0 14 16"><path fill="#CFD7DF" fill-rule="evenodd" d="M2.7 0h8.6A2.7 2.7 0 0114 2.7v10.6a2.7 2.7 0 01-2.7 2.7H2.7A2.7 2.7 0 010 13.3V2.7A2.7 2.7 0 012.7 0zm8.6 14.6a1.3 1.3 0 001.3-1.3V2.7a1.3 1.3 0 00-1.3-1.3H2.7a1.3 1.3 0 00-1.3 1.3v10.6a1.3 1.3 0 001.3 1.3h8.6zM3.45 7.34h7.1a.7.7 0 110 1.4h-7.1a.7.7 0 110-1.4zm7.1 3.66h-7.1a.7.7 0 100 1.4h7.1a.7.7 0 100-1.4zm-7.1-7.31h7.1a.7.7 0 110 1.4h-7.1a.7.7 0 110-1.4z" clip-rule="evenodd"/></svg>