<svg width="18" height="18" viewBox="0 0 18 18" fill="none" xmlns="http://www.w3.org/2000/svg">
<g id="Group 14727">
<path id="Shape 2" d="M3.79639 7.26785V5.81375C3.90824 3.12925 6.14532 0.892167 8.94168 1.00402C11.6262 1.00402 13.8633 3.2411 13.9751 5.9256V7.26785" stroke="var(--color-icon-inverse)" stroke-width="1.5" stroke-linecap="round" stroke-linejoin="round"/>
<path id="Shape 3" d="M9.9483 16.3267H12.0735C13.1921 16.3267 14.0869 15.4319 14.0869 14.3133V13.3066" stroke="var(--color-icon-inverse)" stroke-width="1.5" stroke-linecap="round" stroke-linejoin="round"/>
<path id="Shape 4" d="M5.1386 13.421H4.13192C3.34894 13.421 2.4541 13.0855 1.89483 12.5262C1.33556 11.9669 1 11.1839 1 10.2891C1 9.50613 1.33556 8.72315 1.89483 8.16388C2.4541 7.6046 3.23708 7.26904 4.02006 7.26904H5.02675L5.1386 13.421Z" stroke="var(--color-icon-inverse)" stroke-width="1.5" stroke-linecap="round" stroke-linejoin="round"/>
<path id="Shape 5" d="M13.6395 13.421H12.6328V7.26904H13.6395C14.4225 7.26904 15.2055 7.6046 15.8766 8.16388C16.4359 8.72315 16.7714 9.50612 16.7714 10.401C16.7714 11.1839 16.4359 11.9669 15.8766 12.5262C15.3173 13.0855 14.5343 13.421 13.6395 13.421Z" stroke="var(--color-icon-inverse)" stroke-width="1.5" stroke-linecap="round" stroke-linejoin="round"/>
<path id="Rectangle path" d="M10.5075 15.8818H8.49414V17.0004H10.5075V15.8818Z" stroke="var(--color-icon-inverse)" stroke-width="2" stroke-linecap="round" stroke-linejoin="round"/>
</g>
</svg>
