<svg xmlns="http://www.w3.org/2000/svg" width="12" height="12" fill="none" viewBox="0 0 12 12"><path fill="var(--color-icon-semantic-error)" fill-rule="evenodd" d="M1.753 10.247c-2.337-2.337-2.337-6.157 0-8.494 2.337-2.337 6.157-2.337 8.494 0 2.337 2.337 2.337 6.157 0 8.494-2.337 2.337-6.157 2.337-8.494 0zm.662-.662c1.971 1.972 5.198 1.972 7.17 0 1.972-1.972 1.972-5.199 0-7.17-1.972-1.972-5.199-1.972-7.17 0-1.972 1.971-1.972 5.198 0 7.17zm.482-3.648c.19-.19.498-.19.688 0l1.489 1.489L8.57 3.91a.486.486 0 01.69.687l-3.842 3.86a.486.486 0 01-.689 0L2.897 6.625a.486.486 0 010-.688z" clip-rule="evenodd"/></svg>
