<svg xmlns="http://www.w3.org/2000/svg" viewBox="-3 -5 32 32"><g fill="none" stroke="#363d42" stroke-linejoin="round" stroke-width=".65"><path d="M1.32.33h23.63a1 1 0 011 1V21.8h0H.33h0V1.32a1 1 0 01.99-.99z"/><path d="M12.55 8.46v3.55l-3.14-1.8.05-3.61 3.09 1.86zm0 0l3.14-1.86-.05 3.61-3.09 1.8V8.46z"/></g><path fill="#c6ddf6" stroke="#448ee1" stroke-linejoin="round" stroke-width=".62" d="M9.43 6.6l3.12-1.82 3.17 1.82-3.17 1.88L9.43 6.6z"/><path fill="none" stroke="#363d42" stroke-linejoin="round" stroke-width=".65" d="M8.69 15.2v3.6L5.55 17l.05-3.6 3.09 1.8zm0 0l3.14-1.8V17l-3.14 1.8v-3.6z"/><path fill="#c6ddf6" stroke="#448ee1" stroke-linejoin="round" stroke-width=".62" d="M5.57 13.4l3.12-1.83 3.18 1.83-3.18 1.82-3.12-1.82z"/><path fill="none" stroke="#363d42" stroke-linejoin="round" stroke-width=".65" d="M16.41 15.2v3.6L13.27 17l.05-3.6 3.09 1.8zm0 0l3.14-1.8-.05 3.6-3.09 1.8v-3.6z"/><path fill="#c6ddf6" stroke="#448ee1" stroke-linejoin="round" stroke-width=".62" d="M13.29 13.4l3.12-1.83 3.18 1.83-3.18 1.82-3.12-1.82z"/><path fill="#fff" d="M29.73 19.13a6.24 6.24 0 01-6.21 6.21 6.17 6.17 0 01-6.13-6.21 6.25 6.25 0 016.21-6.21 6.17 6.17 0 016.13 6.21z"/><g stroke-linejoin="round"><path fill="#c6ddf6" stroke="#448ee1" stroke-width=".61" d="M28.61 20.28v-2.17H27a4.82 4.82 0 00-.21-.56L28 16.36l-1.54-1.54L25.33 16l-.56-.21v-1.67H22.6v1.61a4.82 4.82 0 00-.56.21l-1.19-1.12-1.54 1.54 1.19 1.12-.21.56h-1.68v2.17h1.61a4.82 4.82 0 00.21.56L19.31 22l1.54 1.53L22 22.31l.56.21v1.74h2.14v-1.6a4.82 4.82 0 00.56-.21l1.18 1.18L28 22.1 26.79 21l.21-.56h1.61zm-5.1.35a1.44 1.44 0 01-1.33-.91 1.52 1.52 0 012-2 1.44 1.44 0 01.91 1.33 1.55 1.55 0 01-1.58 1.58z"/><path fill="none" stroke="#363d42" stroke-linecap="round" stroke-width=".65" d="M.33 3.28h25.61"/></g></svg>