<svg width="18" height="18" viewBox="0 0 18 18" fill="none" xmlns="http://www.w3.org/2000/svg">
<rect width="18" height="18" fill="white" fill-opacity="0.01"/>
<path d="M15.8626 3.72382L14.9401 2.63257C13.4326 0.832572 10.7438 0.596322 8.94381 2.09257C8.06631 2.82382 7.52631 3.84757 7.42506 4.97257C7.32381 6.09757 7.67256 7.20007 8.39256 8.07757L8.42631 8.12257L2.28381 13.2413C2.28381 13.2413 2.22756 13.2638 2.20506 13.2863C2.18256 13.3088 2.17131 13.3313 2.14881 13.3538L1.32756 14.0401C1.04631 14.2763 1.00131 14.7038 1.23756 14.9851C1.37256 15.1426 1.56381 15.2326 1.75506 15.2326C1.91256 15.2326 2.05881 15.1876 2.18256 15.0751L2.55381 14.7713L4.11756 16.6388C4.25256 16.7963 4.44381 16.8751 4.63506 16.8751C4.79256 16.8751 4.93881 16.8188 5.07381 16.7176C5.35506 16.4813 5.40006 16.0538 5.15256 15.7613L3.58881 13.8938L5.29881 12.4651L6.46881 13.8601C6.60381 14.0176 6.79506 14.0963 6.98631 14.0963C7.14381 14.0963 7.29006 14.0401 7.42506 13.9388C7.70631 13.7026 7.75131 13.2751 7.50381 12.9826L6.33381 11.5876L9.27006 9.14632L9.29256 9.16882C10.1363 10.1701 11.3513 10.6876 12.5663 10.6876C13.5226 10.6876 14.4901 10.3613 15.2888 9.70882C16.1663 8.97757 16.7063 7.96507 16.8076 6.82882C16.9088 5.70382 16.5601 4.60132 15.8401 3.72382H15.8626ZM14.4563 8.66257C13.2188 9.68632 11.3851 9.51757 10.3501 8.29132L9.42756 7.20007C8.93256 6.60382 8.69631 5.86132 8.76381 5.08507C8.83131 4.32007 9.20256 3.62257 9.79881 3.12757C10.3388 2.67757 11.0026 2.45257 11.6663 2.45257C12.4988 2.45257 13.3313 2.81257 13.9051 3.49882L14.8276 4.59007C15.3226 5.18632 15.5588 5.92882 15.4913 6.70507C15.4238 7.47007 15.0526 8.16757 14.4563 8.66257Z" fill="#2C5CC5"/>
</svg>
