<svg width="22" height="22" fill="none"><g clip-path="url(#a)"><path stroke="var(--color-icon-primary)" stroke-linecap="round" stroke-linejoin="round" stroke-width="1.27" d="M13.28 12.5c-.94-.93-2.66-2.69-3.92-3.92-1.86 1.09-5.39 1.5-5.39 1.5S3.94 17.03.64 21.22c4.12-3.29 11.12-3.36 11.12-3.36s.04-3.4 1.53-5.36z"/><path stroke="var(--color-icon-primary)" stroke-linecap="round" stroke-linejoin="round" stroke-width="1.27" d="M.64 21.22s5.34-5.33 7.34-7.34M16.27.67v9.11M14.76 2.15 16.27.64l1.52 1.51M17.79 8.88l-1.52 1.51-1.51-1.51M21.12 5.66h-9.11M19.63 4.15l1.52 1.51-1.52 1.52M12.91 7.18l-1.52-1.52 1.52-1.51"/><path fill="var(--color-icon-primary)" d="M8.19 14.67a1.05 1.05 0 1 0 0-2.1 1.05 1.05 0 0 0 0 2.1"/></g><defs><clipPath id="a"><path fill="var(--color-icon-inverse)" d="M0 0h21.78v21.86H0z"/></clipPath></defs></svg>
