<svg width="24" height="24" viewBox="0 0 24 24" fill="none" xmlns="http://www.w3.org/2000/svg">
<path d="M1.75 9.6H1.75026L5.10524 9.59852C5.00301 9.87779 4.93683 10.1745 4.91245 10.483L4.91151 10.4948L4.91104 10.5066L4.90239 10.7264L4.90193 10.7382V10.75V17.499C4.90193 18.485 5.10324 19.4252 5.46723 20.2797C5.15875 20.3582 4.83515 20.4 4.50124 20.4C2.34664 20.4 0.6 18.6534 0.6 16.4988V10.75C0.6 10.1149 1.11487 9.6 1.75 9.6ZM18.5383 20.2807C18.8585 19.5293 19.053 18.7115 19.0953 17.8544L19.0956 17.847L19.0958 17.8396L19.1038 17.5137L19.104 17.5063V17.499V10.75C19.104 10.3457 19.0322 9.95773 18.9007 9.59852L22.2497 9.6H22.25C22.8851 9.6 23.4 10.1149 23.4 10.75V16.5C23.4 18.6539 21.6539 20.4 19.5 20.4C19.1677 20.4 18.8456 20.3586 18.5383 20.2807ZM15.754 9.6C16.3892 9.6 16.904 10.1149 16.904 10.75V17.499C16.904 20.2057 14.7098 22.4 12.003 22.4C9.2962 22.4 7.10193 20.2057 7.10193 17.499V10.75C7.10193 10.1149 7.6168 9.6 8.25193 9.6H15.754ZM12 1.6C13.6016 1.6 14.9 2.89837 14.9 4.5C14.9 6.10163 13.6016 7.4 12 7.4C10.3984 7.4 9.1 6.10163 9.1 4.5C9.1 2.89837 10.3984 1.6 12 1.6ZM20.003 2.6C21.3285 2.6 22.403 3.67452 22.403 5C22.403 6.32548 21.3285 7.4 20.003 7.4C18.6775 7.4 17.603 6.32548 17.603 5C17.603 3.67452 18.6775 2.6 20.003 2.6ZM3.99702 2.6C5.3225 2.6 6.39702 3.67452 6.39702 5C6.39702 6.32548 5.3225 7.4 3.99702 7.4C2.67153 7.4 1.59702 6.32548 1.59702 5C1.59702 3.67452 2.67153 2.6 3.99702 2.6Z" fill="var(--color-icon-inverse)" stroke="var(--color-icon-primary)" stroke-width="1.2"/>
</svg>
