<svg xmlns="http://www.w3.org/2000/svg" width="14" height="17" fill="none" viewBox="0 0 14 17"><path fill="#647A8E" fill-rule="evenodd" d="M4.1 4.332a3.13 3.13 0 105.78-2.404A3.13 3.13 0 004.1 4.332zm1.295-1.86a1.73 1.73 0 113.19 1.337 1.73 1.73 0 01-3.19-1.338zM1.7 16.01h10.61a.71.71 0 00.69-.82l-.87-5.18a3.09 3.09 0 00-3.05-2.58H4.92a3.09 3.09 0 00-3.05 2.58L1 15.19a.65.65 0 00.17.57.67.67 0 00.53.25zm9.77-1.4H2.53l.72-4.37a1.7 1.7 0 011.67-1.41h4.16a1.7 1.7 0 011.67 1.41l.72 4.37z" clip-rule="evenodd"/></svg>