<svg width="13" height="17" viewBox="0 0 13 17" fill="none" xmlns="http://www.w3.org/2000/svg">
<g id="contact">
<path id="Combined Shape" fill-rule="evenodd" clip-rule="evenodd" d="M4.09961 4.40184C4.58664 5.57234 5.73165 6.33346 6.99943 6.32941C8.72028 6.32392 10.1139 4.93026 10.1194 3.20941C10.1235 1.94163 9.36236 0.796626 8.19185 0.309599C7.02135 -0.177429 5.67266 0.0897244 4.7762 0.986183C3.87974 1.88264 3.61259 3.23133 4.09961 4.40184ZM5.394 2.54041C5.66493 1.89429 6.29881 1.47536 6.99943 1.47941C7.95097 1.48491 8.71944 2.25785 8.71943 3.20941C8.71942 3.91004 8.29682 4.54148 7.64914 4.80866C7.00145 5.07583 6.25657 4.92598 5.76259 4.42913C5.26861 3.93227 5.12308 3.18654 5.394 2.54041ZM1.16943 15.8294C1.29835 15.9897 1.49375 16.0819 1.69943 16.0794H12.2994H12.3094C12.5149 16.0761 12.7089 15.9839 12.8413 15.8266C12.9736 15.6694 13.0313 15.4625 12.9994 15.2594L12.1294 10.0794C11.8801 8.58949 10.5901 7.49825 9.07943 7.49941H4.91943C3.40879 7.49825 2.11876 8.58949 1.86943 10.0794L0.999428 15.2594C0.960737 15.4657 1.02405 15.678 1.16943 15.8294ZM11.4694 14.6794H2.52943L3.24943 10.3094C3.39017 9.49643 4.09435 8.90188 4.91943 8.89941H9.07943C9.9045 8.90188 10.6087 9.49643 10.7494 10.3094L11.4694 14.6794Z" fill="var(--color-text-secondary)"/>
</g>
</svg>
