<svg xmlns="http://www.w3.org/2000/svg" width="16" height="17" fill="none" viewBox="0 0 16 17"><path fill="var(--color-fill-neutral-bold)" fill-rule="evenodd" d="M12.47 16a11.903 11.903 0 01-3-.38A12.08 12.08 0 01.71 6.1 11.59 11.59 0 01.5 3.86a12.19 12.19 0 01.3-2.72A1.49 1.49 0 012.24 0H4.7A2.27 2.27 0 017 2.28v1.58a.7.7 0 01-.42.64l-1.72.75a7.81 7.81 0 005.46 6.27.09.09 0 00.11 0l.67-1.58a.7.7 0 01.64-.43h1.56a2.27 2.27 0 012.25 2.28v2.64a1.48 1.48 0 01-1.24 1.47c-.61.08-1.225.113-1.84.1zM2.24 1.4a8.3 8.3 0 00-.34 2.46c-.004.67.057 1.34.18 2a10.71 10.71 0 007.77 8.43c1.372.35 2.8.42 4.2.21v-2.75a.86.86 0 00-.85-.88h-1.04L11.67 12a1.47 1.47 0 01-1.79.84 9.35 9.35 0 01-6.5-7.29A1.49 1.49 0 014.25 4l1.3-.56V2.28a.86.86 0 00-.85-.88H2.24z" clip-rule="evenodd"/></svg>
