<?xml version="1.0" encoding="utf-8"?>
<!-- Generator: Adobe Illustrator 24.2.3, SVG Export Plug-In . SVG Version: 6.00 Build 0)  -->
<svg version="1.1" id="Layer_1" xmlns="http://www.w3.org/2000/svg" xmlns:xlink="http://www.w3.org/1999/xlink" x="0px" y="0px"
	 viewBox="0 0 16 16" style="enable-background:new 0 0 16 16;" xml:space="preserve">
<style type="text/css">
	.st0{fill:var(--color-icon-primary);}
</style>
<path class="st0" d="M4.9,1C4.7,1,4.5,1.2,4.3,1.4C4.2,1.5,4.2,1.5,4.1,1.6C4.1,1.7,4,1.9,4,1.9C4,2,4-0.9,4,6.4c0,7.2,0,7.6,0,7.7
	c0,0.1,0.1,0.2,0.1,0.3c0.1,0.1,0.1,0.2,0.2,0.3c0.1,0.1,0.1,0.2,0.3,0.2C4.8,15,4.5,15,8,15c3.5,0,3.2,0,3.4-0.1
	c0.1-0.1,0.2-0.1,0.3-0.2c0.1-0.1,0.1-0.2,0.2-0.3c0-0.1,0.1-0.2,0.1-0.3c0-0.1,0-0.5,0-7.7c0-7.2,0-4.4,0-4.5
	c0-0.1-0.1-0.2-0.1-0.3c-0.1-0.1-0.1-0.2-0.2-0.3c-0.1-0.2-0.3-0.3-0.5-0.3l-0.1,0L8.1,1C6.4,1,5,1,4.9,1z M8.7,2.1c0,0,0,0.2,0,0.2
	c0,0-0.1,0-0.7,0s-0.7,0-0.7,0c0,0,0-0.2,0-0.2C7.3,2.1,8.7,2.1,8.7,2.1z M11.3,6.4v6.1H8H4.7V6.4V3.5c0,0,2,0,3.3,0s3.3,0,3.3,0
	V6.4z M8.1,13c0.3,0,0.5,0.3,0.5,0.6c0.1,0.4-0.2,0.7-0.5,0.8c-0.4,0.1-0.7-0.2-0.8-0.6c-0.1-0.4,0.2-0.8,0.5-0.8C8,13,8,13,8.1,13z
	"/>
</svg>
