<svg xmlns="http://www.w3.org/2000/svg" width="16" height="16" fill="none" xmlns:v="https://vecta.io/nano">
  <g clip-path="url(#A)">
    <path d="M16 0H0V16H16V0Z" fill="var(--color-fill-surface)" />
    <path d="M3.217 11.365l2.539-2.539c.143-.143.31-.212.501-.206a.72.72 0 0 1 .501.223c.131.143.197.31.197.501s-.066.358-.197.501l-3.022 3.04c-.143.143-.31.215-.501.215s-.358-.072-.501-.215l-1.538-1.538c-.131-.131-.197-.298-.197-.501s.066-.369.197-.501.298-.197.501-.197.37.066.501.197l1.019 1.019zm0-5.722l2.539-2.539c.143-.143.31-.212.501-.206a.72.72 0 0 1 .501.224c.131.143.197.31.197.501s-.066.358-.197.501l-3.022 3.04c-.143.143-.31.215-.501.215s-.358-.072-.501-.215L1.197 5.625C1.066 5.494 1 5.327 1 5.125s.066-.37.197-.501.298-.197.501-.197.37.066.501.197l1.019 1.019zm6.061 6.312a.69.69 0 0 1-.715-.715.69.69 0 0 1 .715-.715h5.006a.69.69 0 0 1 .715.715.69.69 0 0 1-.715.715H9.278zm0-5.722a.69.69 0 0 1-.51-.206.69.69 0 0 1-.206-.51.69.69 0 0 1 .206-.51.69.69 0 0 1 .51-.206h5.006a.69.69 0 0 1 .51.206.69.69 0 0 1 .206.51.69.69 0 0 1-.206.51.69.69 0 0 1-.51.206H9.278z" fill="var(--color-icon-primary)" />
  </g>
  <defs>
    <clipPath id="A">
      <path fill="var(--color-fill-surface)" d="M0 0h16v16H0z" />
    </clipPath>
  </defs>
</svg>