<svg width="15" height="14" viewBox="0 0 15 14" fill="none" xmlns="http://www.w3.org/2000/svg">
<path fill-rule="evenodd" clip-rule="evenodd" d="M13.7581 9.25834C14.2913 7.81145 14.2913 6.2219 13.7581 4.77501C12.8188 2.1218 10.3144 0.344361 7.4998 0.333344C4.69079 0.335806 2.18468 2.09874 1.23313 4.74168C0.710701 6.19046 0.710701 7.77622 1.23313 9.22501C2.17351 11.8811 4.68217 13.6592 7.4998 13.6667C10.3058 13.6607 12.8076 11.8984 13.7581 9.25834ZM5.8998 9.60834H9.0998C8.74866 10.5896 8.20464 11.4906 7.4998 12.2583C6.79496 11.4906 6.25094 10.5896 5.8998 9.60834ZM5.58313 8.44168C5.4923 7.96655 5.44765 7.48374 5.4498 7.00001C5.44765 6.51628 5.4923 6.03347 5.58313 5.55834H9.41646C9.5073 6.03347 9.55195 6.51628 9.5498 7.00001C9.55195 7.48374 9.5073 7.96655 9.41646 8.44168H5.58313ZM1.9998 7.00001C2.00201 6.5127 2.06927 6.02786 2.1998 5.55834H4.40813C4.32823 6.03481 4.28643 6.5169 4.28313 7.00001C4.28643 7.48312 4.32823 7.96521 4.40813 8.44168H2.1998C2.06927 7.97216 2.00201 7.48733 1.9998 7.00001ZM7.4998 1.74168C8.20464 2.50938 8.74866 3.41042 9.0998 4.39168H5.8998C6.25094 3.41042 6.79496 2.50938 7.4998 1.74168ZM10.5915 5.55834H12.7998C13.0663 6.50099 13.0663 7.49903 12.7998 8.44168H10.5915C10.6714 7.96521 10.7132 7.48312 10.7165 7.00001C10.7132 6.5169 10.6714 6.03481 10.5915 5.55834ZM12.3331 4.39168H10.3331C10.0336 3.42597 9.57141 2.51849 8.96646 1.70834C10.4071 2.10729 11.6229 3.07629 12.3331 4.39168ZM6.03313 1.70834C5.42819 2.51849 4.96599 3.42597 4.66647 4.39168H2.65813C3.37178 3.07579 4.59026 2.10704 6.03313 1.70834ZM2.65813 9.60834H4.66647C4.96599 10.574 5.42819 11.4815 6.03313 12.2917C4.59026 11.893 3.37178 10.9242 2.65813 9.60834ZM8.96646 12.2917C9.57141 11.4815 10.0336 10.574 10.3331 9.60834H12.3331C11.6229 10.9237 10.4071 11.8927 8.96646 12.2917Z" fill="var(--color-icon-primary)"/>
</svg>
