<svg xmlns="http://www.w3.org/2000/svg" width="60" height="60" fill="none" viewBox="0 0 60 60"><path fill="#12344D" fill-rule="evenodd" d="M30 60C13.431 60 0 46.569 0 30 0 13.431 13.431 0 30 0c16.569 0 30 13.431 30 30a30 30 0 01-30 30zm0-54.75C16.331 5.25 5.25 16.331 5.25 30S16.331 54.75 30 54.75 54.75 43.669 54.75 30C54.73 16.34 43.66 5.27 30 5.25z" clip-rule="evenodd"/><path fill="#12344D" fill-rule="evenodd" d="M15 30.25a3.294 3.294 0 116.587 0 3.294 3.294 0 01-6.587 0zm23.434 0a3.294 3.294 0 116.587 0 3.294 3.294 0 01-6.587 0zM30 26.956a3.294 3.294 0 00-3.294 3.294A3.315 3.315 0 0030 33.544a3.294 3.294 0 000-6.588z" clip-rule="evenodd"/></svg>