<svg xmlns="http://www.w3.org/2000/svg" width="24" height="24" fill="none" viewBox="0 0 24 24"><path fill="#12344D" d="M16.308 3c.995 0 1.801.851 1.801 1.901v5.074c0 .435-.334.787-.746.787s-.746-.353-.746-.787V4.901a.318.318 0 00-.309-.326H5.801a.318.318 0 00-.309.326v14.198c0 .18.138.326.309.326h5.222c.412 0 .746.353.746.788 0 .435-.334.787-.746.787H5.801C4.806 21 4 20.149 4 19.099V4.901C4 3.851 4.806 3 5.801 3h10.507zm3.463 10.496c.146.146.229.35.229.563a.8.8 0 01-.229.563l-4.635 4.882a.73.73 0 01-.462.224l-.017.001a.726.726 0 01-.533-.225l-2.44-2.543a.826.826 0 01-.195-.768.776.776 0 01.533-.562.728.728 0 01.728.206l1.908 1.991 4.049-4.331a.73.73 0 011.066 0l-.002-.001zM9.584 15.375c.412 0 .746.353.746.788 0 .435-.334.788-.746.788H7.272c-.412 0-.746-.352-.746-.787 0-.435.334-.787.746-.787l2.312-.002zm4.199-4.162c.412 0 .746.353.746.787 0 .434-.334.788-.746.788H7.271c-.412 0-.746-.353-.746-.787 0-.434.334-.787.746-.787l6.512-.001zm1.055-4.061c.412 0 .746.353.746.788 0 .435-.334.788-.746.788H7.271c-.412 0-.746-.353-.746-.787 0-.434.334-.787.746-.787l7.567-.002z"/></svg>