<svg xmlns="http://www.w3.org/2000/svg" width="16" height="16" fill="none" viewBox="0 0 16 16"><path fill="var(--color-fill-neutral-bold)" d="M9 8.6H4.13a.6.6 0 110-1.2H9a.6.6 0 110 1.2zm-3.41 2.961H4.13a.601.601 0 010-1.2h1.46a.6.6 0 110 1.2z"/><path fill="var(--color-fill-neutral-bold)" d="M5.16 14.23H3.45a1.68 1.68 0 01-1.68-1.68v-9.1a1.68 1.68 0 011.68-1.68h9.1a1.68 1.68 0 011.68 1.68v1.46a.6.6 0 11-1.2 0V3.45a.47.47 0 00-.48-.45h-9.1a.47.47 0 00-.45.45v9.1a.47.47 0 00.48.48h1.68a.6.6 0 110 1.2z"/><path fill="var(--color-fill-neutral-bold)" d="M13.63 5.6H2.37a.6.6 0 110-1.2h11.26a.6.6 0 110 1.2zM7 14.94a.79.79 0 01-.5-.16.7.7 0 01-.21-.71l.65-2.23a.62.62 0 01.18-.3l5-5a1.192 1.192 0 01.88-.35 1.18 1.18 0 01.85.36l.76.8a1.2 1.2 0 010 1.69l-5 4.88a.741.741 0 01-.22.14l-2.18.85a.659.659 0 01-.21.03zm1-2.64l-.32 1.12L8.79 13l4.94-4.81-.73-.8-5 4.91z"/><path fill="var(--color-fill-neutral-bold)" d="M13 10.051a.62.62 0 01-.44-.18l-1.39-1.47a.61.61 0 01.192-.983.58.58 0 01.649.133l1.42 1.45a.6.6 0 010 .85.61.61 0 01-.43.2z"/></svg>
