<svg xmlns="http://www.w3.org/2000/svg" width="32" height="32" viewBox="0 0 32 32"><path d="M6.882 23.229A11.858 11.858 0 018.208 7.934c4.687-4.654 12.285-4.656 16.97-.004s4.683 12.196-.004 16.851a11.954 11.954 0 01-4.677 2.878c-.639.212-.984.898-.771 1.533s.904.977 1.544.765a14.407 14.407 0 005.63-3.463c5.64-5.601 5.642-14.679.004-20.277S12.123.621 6.483 6.221a14.27 14.27 0 00-1.755 18.176l-2.717-.762c-.648-.182-1.323.193-1.506.836s.194 1.313.842 1.495l5.556 1.559a1.22 1.22 0 001.503-.827l1.613-5.505a1.22 1.22 0 00-2.343-.677l-.795 2.713z"/></svg>