<svg width="10" height="11" viewBox="0 0 10 11" fill="none" xmlns="http://www.w3.org/2000/svg">
<path fill-rule="evenodd" clip-rule="evenodd" d="M1.79372 2.15C3.59248 0.652456 6.18938 0.603115 8.04372 2.03125C9.55378 3.20704 10.266 5.13774 9.88122 7.0125C9.83993 7.21486 9.66274 7.36077 9.45622 7.3625H9.36247C9.12806 7.3095 8.97844 7.07953 9.02497 6.84375C9.34278 5.29242 8.75143 3.6953 7.49997 2.725C5.99932 1.56939 3.90505 1.58227 2.41872 2.75625H3.01247C3.2541 2.75625 3.44997 2.95213 3.44997 3.19375C3.44997 3.43537 3.2541 3.63125 3.01247 3.63125H1.38747H1.33122C1.30422 3.63414 1.27698 3.63414 1.24997 3.63125C1.21005 3.61511 1.17227 3.59412 1.13747 3.56875H1.09372L1.03747 3.5L0.918725 3.4125C0.916038 3.38757 0.916038 3.36243 0.918725 3.3375C0.912832 3.30863 0.912832 3.27887 0.918725 3.25V1.625C0.918725 1.4687 1.00211 1.32427 1.13747 1.24611C1.27284 1.16796 1.43961 1.16796 1.57497 1.24611C1.71034 1.32427 1.79372 1.4687 1.79372 1.625V2.15ZM9.03122 8.5875C9.03391 8.61243 9.03391 8.63757 9.03122 8.6625C9.03712 8.69137 9.03712 8.72113 9.03122 8.75V10.375C9.03122 10.6166 8.83535 10.8125 8.59372 10.8125C8.3521 10.8125 8.15622 10.6166 8.15622 10.375V9.85C7.4331 10.4491 6.55587 10.8325 5.62497 10.9562C5.41786 10.9848 5.20905 10.9995 4.99997 11C3.9091 11.0014 2.84815 10.6434 1.98122 9.98125C0.450345 8.81113 -0.277784 6.86945 0.106225 4.98125C0.130764 4.82171 0.241161 4.68864 0.39343 4.63506C0.545699 4.58148 0.715098 4.61611 0.834135 4.72513C0.953171 4.83416 1.0025 4.99987 0.962474 5.15625C0.625656 6.7294 1.22698 8.35565 2.50622 9.33125C4.01648 10.4843 6.11846 10.4585 7.59997 9.26875H7.01247C6.77085 9.26875 6.57497 9.07287 6.57497 8.83125C6.57497 8.58962 6.77085 8.39375 7.01247 8.39375H8.63747H8.69372C8.72073 8.39086 8.74797 8.39086 8.77497 8.39375C8.80522 8.40357 8.8345 8.41613 8.86247 8.43125H8.90622L8.96247 8.5L9.03122 8.5875Z" fill="var(--color-fill-neutral-bold)"/>
</svg>
