<svg xmlns="http://www.w3.org/2000/svg" width="22" height="18" fill="none"><path fill="var(--color-icon-primary)" fill-rule="evenodd" d="M5.713 9.061a.84.84 0 0 1 .308-1.147l4.365-2.52a.84.84 0 0 1 1.147.307l1.62 2.806a.84.84 0 0 1-.307 1.148l-4.365 2.52a.84.84 0 0 1-1.148-.308zm1.875-.112.78 1.35 2.91-1.68-.78-1.35z" clip-rule="evenodd"/><path fill="var(--color-icon-primary)" fill-rule="evenodd" d="M.885 7.854c.13-.488.468-.849.874-1.083l9.769-5.64c.98-.566 2.022-.098 2.459.659l1.08 1.87a.84.84 0 0 1-.308 1.148c-.43.248-.555.718-.307 1.147s.718.556 1.147.308a.84.84 0 0 1 .84 1.455c-1.233.712-2.73.31-3.442-.923-.564-.976-.43-2.118.263-2.905l-.728-1.26a.14.14 0 0 0-.076-.063.1.1 0 0 0-.03-.003.2.2 0 0 0-.058.022l-9.769 5.64a.4.4 0 0 0-.087.064c.004.017.015.05.043.1l.788 1.364c1.027-.206 2.083.249 2.647 1.225.352.61.429 1.283.226 1.907a2.4 2.4 0 0 1-.542.906l.781 1.353a.14.14 0 0 0 .076.063.1.1 0 0 0 .03.003.1.1 0 0 0 .048-.017l2.625-1.665a.84.84 0 1 1 .9 1.419l-2.645 1.677-.03.019c-.98.565-2.022.097-2.459-.66L3.86 14.01a.84.84 0 0 1 .308-1.147c.266-.154.4-.34.45-.496.047-.144.045-.326-.083-.548-.248-.43-.718-.555-1.147-.307a.84.84 0 0 1-1.148-.308L1.1 9.23C.866 8.824.754 8.342.885 7.854m14.949 2.393a.84.84 0 0 1 0 1.188l-1.806 1.806 1.806 1.806a.84.84 0 1 1-1.188 1.188l-2.4-2.4a.84.84 0 0 1 0-1.188l2.4-2.4a.84.84 0 0 1 1.188 0" clip-rule="evenodd"/><path fill="var(--color-icon-primary)" fill-rule="evenodd" d="M21.24 13.238a.84.84 0 0 1-.84.84h-7.56a.84.84 0 1 1 0-1.68h7.56a.84.84 0 0 1 .84.84" clip-rule="evenodd"/></svg>