<svg width="36" height="36" viewBox="0 0 36 36" fill="none" xmlns="http://www.w3.org/2000/svg">
<g filter="url(#filter0_d_5911_211382)">
<rect x="5.67773" y="3" width="24" height="24" rx="12" fill="var(--color-icon-inverse)"/>
<rect x="5.17773" y="2.5" width="25" height="25" rx="12.5" stroke="var(--color-icon-semantic-info)"/>
</g>
<path fill-rule="evenodd" clip-rule="evenodd" d="M18.3778 9.79906L18.3849 14.8973C18.3849 14.9388 18.3812 14.9797 18.3742 15.0198C18.381 15.0588 18.3847 15.099 18.3848 15.1399L18.3778 20.2382L19.6223 18.9937C19.8956 18.7203 20.3389 18.7203 20.6122 18.9937C20.8856 19.267 20.8856 19.7103 20.6122 19.9836L18.1727 22.4231C17.8993 22.6965 17.4561 22.6965 17.1828 22.4231L14.7432 19.9836C14.4699 19.7103 14.4699 19.267 14.7432 18.9937C15.0166 18.7203 15.4598 18.7203 15.7332 18.9937L16.9777 20.2382L16.9706 15.1399C16.97 15.0978 16.9734 15.0561 16.9806 15.0153C16.974 14.9767 16.9707 14.9372 16.9707 14.8973L17.0131 9.83442L15.7686 11.0789C15.4952 11.3523 15.052 11.3523 14.7786 11.0789C14.5053 10.8056 14.5053 10.3623 14.7786 10.089L17.2535 7.6141C17.2871 7.57252 17.3251 7.53459 17.3666 7.50097L17.4374 7.43026C17.613 7.35235 17.8133 7.35235 17.9889 7.43026L18.0596 7.50097C18.1006 7.53525 18.1385 7.57311 18.1727 7.6141L20.6123 10.0536C20.8856 10.327 20.8856 10.7702 20.6123 11.0436C20.3389 11.3169 19.8957 11.3169 19.6223 11.0436L18.3778 9.79906Z" fill="var(--color-fill-neutral-bold)"/>
<defs>
<filter id="filter0_d_5911_211382" x="0.344401" y="0.555556" width="34.6667" height="34.6667" filterUnits="userSpaceOnUse" color-interpolation-filters="sRGB">
<feFlood flood-opacity="0" result="BackgroundImageFix"/>
<feColorMatrix in="SourceAlpha" type="matrix" values="0 0 0 0 0 0 0 0 0 0 0 0 0 0 0 0 0 0 127 0" result="hardAlpha"/>
<feOffset dy="2.88889"/>
<feGaussianBlur stdDeviation="2.16667"/>
<feColorMatrix type="matrix" values="0 0 0 0 0 0 0 0 0 0 0 0 0 0 0 0 0 0 0.208698 0"/>
<feBlend mode="normal" in2="BackgroundImageFix" result="effect1_dropShadow_5911_211382"/>
<feBlend mode="normal" in="SourceGraphic" in2="effect1_dropShadow_5911_211382" result="shape"/>
</filter>
</defs>
</svg>
