<svg xmlns="http://www.w3.org/2000/svg" width="32" height="32" fill="none" viewBox="0 0 32 32"><path fill="#fff" stroke="#363D42" d="M1.94 5c0-.93.36-1.82 1-2.47a3.34 3.34 0 012.4-1.03h21.33c.9 0 1.76.37 2.4 1.03.63.65 1 1.54 1 2.47v14c0 .93-.37 1.82-1 2.47a3.34 3.34 0 01-2.4 1.03H9.6a1.41 1.41 0 00-1.03.44l-5.15 5.32c-.55.56-1.5.16-1.5-.64V5z"/><path fill="#08B6E5" fill-rule="evenodd" d="M19.4 4a.5.5 0 01.48.5V6a.5.5 0 01-.14.35.48.48 0 01-.69 0 .5.5 0 01-.14-.35V4.5a.5.5 0 01.14-.35c.1-.1.22-.15.34-.15zm1.74 4.5a.5.5 0 00.48.5h1.46c.13 0 .25-.05.34-.15a.5.5 0 000-.7.48.48 0 00-.34-.15h-1.46a.48.48 0 00-.34.15.5.5 0 00-.14.35zm1.02-2.85a.5.5 0 010 .7l-.97 1a.48.48 0 01-.34.16.47.47 0 01-.35-.15.5.5 0 01-.14-.36.51.51 0 01.15-.35l.97-1a.48.48 0 01.68 0z" clip-rule="evenodd"/><path fill="#C3F2FF" fill-rule="evenodd" d="M17.75 14.37a4.1 4.1 0 00.8-6.3 3.82 3.82 0 00-5.49 0 4.06 4.06 0 00.8 6.3v3.53h3.89v-3.53z" clip-rule="evenodd"/><path fill="#08B6E5" d="M15.86 6c-1.04 0-2.05.36-2.87 1.01a5.01 5.01 0 00-1.49 5.72c.4.99 1.1 1.82 2 2.35v3.35c0 .15.05.3.16.4.1.11.24.17.39.17h3.62c.15 0 .29-.06.39-.17.1-.1.16-.25.16-.4v-3.35c.9-.53 1.6-1.36 1.99-2.35A5.01 5.01 0 0018.72 7c-.82-.65-1.83-1-2.86-1.01zM14.6 17.86v-1.3h2.52v1.3H14.6zm2.83-3.64a.56.56 0 00-.22.21c-.05.1-.08.2-.08.3v.7H14.6v-.7a.58.58 0 00-.32-.5 3.62 3.62 0 01-1.5-1.37 3.8 3.8 0 01.51-4.62 3.57 3.57 0 015.13 0 3.8 3.8 0 01-.98 5.98zm.45-4.63a.57.57 0 01.11.44.57.57 0 01-.23.38l-1.35 1v1.82c0 .15-.06.3-.16.4a.54.54 0 01-.78 0 .58.58 0 01-.17-.4V11.4l-1.34-1.01a.55.55 0 01-.23-.38.58.58 0 01.11-.44.53.53 0 01.79-.12l1.23.96 1.25-.94a.53.53 0 01.76.12h.01z"/></svg>