<svg xmlns="http://www.w3.org/2000/svg" width="33" height="32" fill="none"><path fill="#fff" stroke="#363d42" d="M2 5a3.5 3.5 0 013.5-3.5h22A3.5 3.5 0 0131 5v14a3.5 3.5 0 01-3.5 3.5H9.914a1.5 1.5 0 00-1.061.439l-5.317 5.317C2.969 28.824 2 28.422 2 27.62V23z"/><g fill-rule="evenodd"><path fill="#08b6e5" d="M20 4a.5.5 0 01.5.5V6a.5.5 0 11-1 0V4.5A.5.5 0 0120 4zm1.8 4.5a.5.5 0 00.5.5h1.5a.5.5 0 100-1h-1.5a.5.5 0 00-.5.5zm1.054-2.854a.5.5 0 010 .707l-1 1a.5.5 0 11-.707-.707l1-1a.5.5 0 01.707 0z"/><path fill="#c3f2ff" d="M18.3 14.365a3.998 3.998 0 002-3.465 4 4 0 10-8 0 4 4 0 002 3.465V17.9h4z"/></g><path fill="#08b6e5" d="M16.353 6a4.87 4.87 0 00-4.685 3.612 4.87 4.87 0 002.248 5.472v3.348a.57.57 0 00.569.569h3.737a.57.57 0 00.569-.569v-3.348a4.87 4.87 0 002.248-5.472A4.873 4.873 0 0016.353 6zm-1.3 11.863v-1.3h2.6v1.3zm2.925-3.64a.57.57 0 00-.316.512v.691h-2.608v-.691c-.001-.107-.032-.212-.09-.302s-.139-.163-.235-.21a3.693 3.693 0 01-2.112-3.347 3.74 3.74 0 013.738-3.738 3.74 3.74 0 013.738 3.738 3.694 3.694 0 01-2.112 3.347zm.463-4.631a.56.56 0 01.116.433.56.56 0 01-.238.38l-1.398.999v1.828a.57.57 0 01-.569.569.57.57 0 01-.569-.569v-1.828l-1.389-1.016a.56.56 0 01-.238-.38.56.56 0 01.116-.433c.043-.065.098-.12.164-.161s.139-.069.215-.081.155-.007.229.014.144.057.204.106l1.268.959 1.292-.943a.549.549 0 01.199-.096.55.55 0 01.221-.011.546.546 0 01.368.229z"/></svg>