<svg width="15" height="19" viewBox="0 0 15 19" fill="none" xmlns="http://www.w3.org/2000/svg">
<path fill-rule="evenodd" clip-rule="evenodd" d="M14.3001 0.75C13.9135 0.75 13.6001 1.0634 13.6001 1.45L13.6001 18.05C13.6001 18.4366 13.9135 18.75 14.3001 18.75C14.6867 18.75 15.0001 18.4366 15.0001 18.05L15.0001 1.45C15.0001 1.0634 14.6867 0.75 14.3001 0.75ZM10.7626 4.19297V7.39297H5.5626V4.19297H10.7626ZM11.1626 2.79297C11.7149 2.79297 12.1626 3.24068 12.1626 3.79297V7.79297C12.1626 8.34525 11.7149 8.79297 11.1626 8.79297H5.1626C4.61031 8.79297 4.1626 8.34525 4.1626 7.79297V3.79297C4.1626 3.24068 4.61031 2.79297 5.1626 2.79297H11.1626ZM10.7626 15.393V12.193H1.5626V15.393H10.7626ZM12.1626 11.793C12.1626 11.2407 11.7149 10.793 11.1626 10.793H1.1626C0.610312 10.793 0.162598 11.2407 0.162598 11.793V15.793C0.162598 16.3453 0.610313 16.793 1.1626 16.793H11.1626C11.7149 16.793 12.1626 16.3453 12.1626 15.793V11.793Z" fill="var(--color-fill-neutral-bold)"/>
</svg>
