<svg xmlns="http://www.w3.org/2000/svg" viewBox="0 0 32 32"><path fill="var(--color-icon-inverse)" d="M32 0H0v32h32z" opacity=".01"/><path fill="none" stroke="var(--color-icon-primary)" stroke-linecap="round" stroke-linejoin="round" stroke-width=".8" d="M20.8 7.11A11.62 11.62 0 0127 17.4a11.23 11.23 0 01-.3 2.61m-22.56.24A11.59 11.59 0 0111.2 6.57m10.34 20.69a11.6 11.6 0 01-11.26.57"/><g fill="var(--color-icon-semantic-warning)"><path d="M22.5 15.5v-1.1a1.22 1.22 0 00-1.2-1.2H10.7a1.22 1.22 0 00-1.2 1.2v1.1a2.4 2.4 0 011.2 2 2.27 2.27 0 01-1.2 2v.9a1.22 1.22 0 001.2 1.2h10.5a1.22 1.22 0 001.2-1.2v-.9a2.4 2.4 0 01-1.2-2 2.59 2.59 0 011.3-2z" opacity=".3"/><path d="M18.3 19.7h-4.5a1.69 1.69 0 01-1.7-1.7v-1.2a1.69 1.69 0 011.7-1.7h4.5a1.69 1.69 0 011.7 1.7V18a1.83 1.83 0 01-1.7 1.7zM13.7 16a.86.86 0 00-.8.8V18a.86.86 0 00.8.8h4.5a.86.86 0 00.8-.8v-1.2a.86.86 0 00-.8-.8zm7.6 6.1H10.7A1.69 1.69 0 019 20.4v-.9a.52.52 0 01.2-.4 1.95 1.95 0 000-3.4.52.52 0 01-.2-.4v-1.1a1.69 1.69 0 011.7-1.7h10.5a1.69 1.69 0 011.7 1.7v1.1a.52.52 0 01-.2.4 1.95 1.95 0 000 3.4.52.52 0 01.2.4v.9a1.61 1.61 0 01-1.6 1.7zM9.9 19.8v.7a.86.86 0 00.8.8h10.5a.86.86 0 00.8-.8v-.7a2.94 2.94 0 01-1.2-2.3 2.8 2.8 0 011.2-2.3v-.9a.86.86 0 00-.8-.8H10.7a.86.86 0 00-.8.8v.9a2.94 2.94 0 011.2 2.3 2.8 2.8 0 01-1.2 2.3zm12.6-4.3z"/></g><g fill="none" stroke="var(--color-icon-primary)" stroke-linejoin="round" stroke-width=".8"><path d="M26 24.4a1.6 1.6 0 10-1.6-1.6 1.58 1.58 0 001.6 1.6z"/><path stroke-linecap="round" d="M23 27.8v-.5a2.66 2.66 0 012.9-2.6 2.66 2.66 0 012.9 2.6v.5"/><path d="M6.2 24.2a1.58 1.58 0 001.6-1.6A1.64 1.64 0 006.2 21a1.6 1.6 0 100 3.2z"/><path stroke-linecap="round" d="M3.2 27.6v-.5a2.74 2.74 0 012.9-2.7A2.74 2.74 0 019 27.1v.5"/><path d="M16 6.6A1.6 1.6 0 1014.4 5 1.58 1.58 0 0016 6.6z"/><path stroke-linecap="round" d="M13.1 9.9v-.4A2.82 2.82 0 0116 6.7a2.88 2.88 0 012.9 2.8v.5"/></g></svg>
