<svg xmlns="http://www.w3.org/2000/svg" viewBox="0 0 32 32"><g stroke-linecap="round" stroke-linejoin="round" stroke-width=".875" transform="translate(1)"><circle cx="22.8" cy="8.3" r="2.4" fill="#dadfe3" stroke="#363d42"/><path fill="none" stroke="#363d42" d="M22.8 2.4v1.2M22.8 13.1v1.2M16.9 8.3h1.2M27.5 8.3h1.2M18.6 4.2l.9.8M26.1 11.7l.8.8M26.1 5l.9-.8M2.2 26.6l15.3-15.3c.3-.3.9-.3 1.2 0l1.1 1.1c.3.3.3.9 0 1.2L4.5 28.9c-.3.3-.9.3-1.2 0l-1.1-1.1c-.4-.3-.4-.9 0-1.2z"/><path fill="#448ee1" fill-opacity=".3" stroke="#448ee1" d="M17 16.5l2.8-2.8c.3-.3.3-.9 0-1.2l-1.1-1.1c-.3-.3-.9-.3-1.2 0l-2.9 2.8 2.4 2.3z"/></g></svg>