<svg xmlns="http://www.w3.org/2000/svg" width="512" height="512" viewBox="0 0 512 512"><path fill-rule="evenodd" d="M463.944 434.454l-94.273-94.6a183.224 183.224 0 0040.976-114.664c.116-74.81-44.84-142.319-113.894-171.028C227.699 25.453 148.158 41.202 95.24 94.06c-52.918 52.858-68.783 132.408-40.193 201.535 28.59 69.127 96 114.207 170.78 114.207a182.769 182.769 0 00115.19-41.28l95.42 95.459a20.057 20.057 0 0014.326 6.02 19.195 19.195 0 0014.041-6.02 19.784 19.784 0 00-.86-29.526zM80 223.5C80 144.247 144.247 80 223.5 80S367 144.247 367 223.5 302.753 367 223.5 367 80 302.753 80 223.5z"/></svg>