<svg xmlns="http://www.w3.org/2000/svg" width="16" height="15" viewBox="0 0 16 15"><path fill="#465868" fill-rule="evenodd" d="M13.3 9.315a.69.69 0 01.5.215l2 2a.6.6 0 01.2.47l-.003.12-.017.12a.73.73 0 01-.16.23l-2 2a.67.67 0 01-.49.21.71.71 0 01-.5-1.2l.78-.78H8.7a.7.7 0 010-1.4h4.88l-.78-.77a.71.71 0 010-1 .69.69 0 01.5-.215zm1-8.655a1.7 1.7 0 011.7 1.7v7.9l-1.4-1.4v-6.5a.3.3 0 00-.3-.3H1.7a.3.3 0 00-.3.3V11a.29.29 0 00.3.3h5.45A1.83 1.83 0 007 12c0 .242.055.481.16.7H1.7A1.7 1.7 0 010 11V2.36A1.7 1.7 0 011.7.66zm-1.39 2.72a.7.7 0 11.78 1.16L9.06 7.75a1.68 1.68 0 01-1 .3 1.74 1.74 0 01-1-.29L2.31 4.54a.7.7 0 11.78-1.16L7.85 6.6c.1.069.23.069.33 0z"/></svg>