<svg xmlns="http://www.w3.org/2000/svg" width="13" height="13" fill="none" viewBox="0 0 13 13"><g clip-path="url(#a)"><path fill="var(--color-icon-semantic-info)" fill-rule="evenodd" d="M6.5 0C10.097 0 13 2.914 13 6.5S10.086 13 6.5 13A6.498 6.498 0 010 6.5C0 2.914 2.914 0 6.5 0zM5.35 10.04l.353 1.605a4.686 4.686 0 001.594 0l.353-1.605c.057-.25.102-.49.148-.74-.433.034-.865.057-1.298.057-.433 0-.865-.023-1.298-.057.046.25.091.501.148.74zM1.298 6.511c0-.261.022-.535.068-.796l1.605-.353c.25-.057.49-.103.74-.148a16.53 16.53 0 000 2.595c-.25-.045-.501-.09-.74-.148l-1.605-.353a4.61 4.61 0 01-.068-.797zm6.67-1.47a15.698 15.698 0 00-2.925 0 15.698 15.698 0 000 2.926c.979.092 1.958.092 2.926 0 .09-.978.09-1.957 0-2.925zm3.734 1.47c0 .262-.023.535-.068.797l-1.605.353c-.25.057-.49.103-.74.148a16.53 16.53 0 000-2.595c.25.045.5.09.74.148l1.605.353c.045.261.068.523.068.796zm-2.777 3.802l-.194.888a5.204 5.204 0 002.47-2.47l-.888.194c-.387.08-.785.148-1.172.216a14.12 14.12 0 01-.216 1.172zM11.2 4.28l-.888-.193c-.387-.092-.785-.148-1.172-.217a13.303 13.303 0 00-.216-1.172L8.73 1.81a5.205 5.205 0 012.47 2.47zM7.65 2.983l-.353-1.605a4.682 4.682 0 00-1.594 0L5.35 2.983c-.057.25-.102.5-.148.74.865-.068 1.73-.068 2.596 0-.046-.25-.091-.501-.148-.74zM4.28 1.81a5.205 5.205 0 00-2.47 2.47l.888-.193c.387-.092.785-.148 1.172-.217.057-.398.126-.785.217-1.172l.193-.888zM2.698 8.925L1.81 8.73a5.204 5.204 0 002.47 2.47l-.193-.888c-.08-.387-.16-.785-.216-1.172a13.303 13.303 0 01-1.173-.216z" clip-rule="evenodd"/></g><defs><clipPath id="a"><path fill="var(--color-icon-inverse)" d="M0 0h13v13H0z"/></clipPath></defs></svg>
