<svg xmlns="http://www.w3.org/2000/svg" viewBox="0 0 32 32"><path fill="var(--color-icon-inverse)" d="M4.5 22.5A4.48 4.48 0 009 27h15v-2H9c-1.4 0-2.5-1.1-2.5-2.5S7.6 20 9 20h17.5c1.4 0 2.6-.8 3.2-2H9a4.48 4.48 0 00-4.5 4.5"/><g stroke-linejoin="round" stroke-width=".875"><path fill="none" stroke="var(--color-icon-primary)" stroke-linecap="round" d="M24 25H9c-1.4 0-2.5-1.1-2.5-2.5S7.6 20 9 20h17.5c1.9 0 3.5-1.6 3.5-3.5V7H8.5L7 3H2v2h3l4 13a4.48 4.48 0 00-4.5 4.5A4.48 4.48 0 009 27h15"/><path fill="var(--color-fill-semantic-highlight-mild)" fill-opacity=".3" stroke="var(--color-fill-semantic-highlight-mild)" d="M30 26c0 1.7-1.3 3-3 3s-3-1.3-3-3 1.3-3 3-3 3 1.3 3 3z"/></g><path fill="var(--color-icon-inverse)" d="M15 26c0 1.7-1.3 3-3 3s-3-1.3-3-3 1.3-3 3-3 3 1.3 3 3"/><g stroke-linejoin="round" stroke-width=".875"><path fill="var(--color-fill-semantic-highlight-mild)" fill-opacity=".3" stroke="var(--color-fill-semantic-highlight-mild)" d="M15 26c0 1.7-1.3 3-3 3s-3-1.3-3-3 1.3-3 3-3 3 1.3 3 3z"/><path fill="none" stroke="var(--color-icon-primary)" stroke-linecap="round" d="M9 18h20.5"/></g><path fill="none" stroke="var(--color-fill-semantic-highlight-mild)" d="M11.5 26h1m14 0h1"/><path fill="none" stroke="var(--color-icon-primary)" stroke-linecap="round" stroke-linejoin="round" stroke-width=".875" d="M11.5 10H14m2 0h2.5m2 0H23m2 0h2.5m-16 2.5H14m2 0h2.5m2 0H23m2 0h2.5m-16 2.5H14m2 0h2.5m2 0H23m2 0h2.5"/></svg>
