<svg xmlns="http://www.w3.org/2000/svg" width="16" height="16" fill="none" viewBox="0 0 16 16"><path fill="var(--color-icon-inverse)" d="M16 0H0v16h16V0z" opacity=".01"/><path fill="var(--color-fill-neutral-bold)" d="M8.356 14h-.712a1.131 1.131 0 01-1.098-.909l-.127-.466-.624-.261-.396.269a1.138 1.138 0 01-1.351-.143l-.498-.498a1.138 1.138 0 01-.143-1.423l.27-.395-.301-.593-.467-.095A1.13 1.13 0 012 8.356v-.712a1.13 1.13 0 01.91-1.098l.466-.127.26-.624-.268-.396a1.138 1.138 0 01.142-1.351l.538-.538a1.138 1.138 0 011.423-.142l.395.269.553-.261.095-.467A1.13 1.13 0 017.644 2h.712a1.13 1.13 0 011.099.91l.095.466.624.26.395-.268a1.138 1.138 0 011.423.142l.498.498a1.138 1.138 0 01.143 1.423l-.27.395.262.625.466.095a1.13 1.13 0 01.91 1.098v.712a1.131 1.131 0 01-.91 1.099l-.466.095-.261.624.269.395a1.139 1.139 0 01-.143 1.423l-.498.498a1.138 1.138 0 01-1.423.143l-.395-.27-.624.262-.095.466a1.13 1.13 0 01-1.099.91zm-2.561-2.774a.91.91 0 01.324.063l.885.363a.855.855 0 01.506.617l.119.609h.727l.134-.625a.845.845 0 01.514-.616l.878-.364a.855.855 0 01.79.079l.514.34.522-.498-.34-.538a.87.87 0 01-.08-.79l.364-.878a.855.855 0 01.617-.506l.609-.118v-.735l-.609-.119a.845.845 0 01-.617-.514l-.363-.877a.853.853 0 01.079-.79l.34-.49-.498-.523-.538.34a.854.854 0 01-.79.08l-.886-.388a.854.854 0 01-.506-.617l-.118-.608h-.728l-.134.624a.846.846 0 01-.514.617l-.877.363a.854.854 0 01-.79-.079l-.49-.355-.523.498.34.537a.87.87 0 01.08.79l-.388.886a.854.854 0 01-.617.506l-.608.119v.727l.624.134a.846.846 0 01.617.514l.363.878a.854.854 0 01-.079.79l-.355.49.498.522.537-.34a.847.847 0 01.467-.118z"/><path fill="var(--color-fill-neutral-bold)" d="M8 10.301a2.3 2.3 0 110-4.6A2.293 2.293 0 0110.3 8 2.308 2.308 0 018 10.3zm0-3.494a1.194 1.194 0 101.105.736A1.186 1.186 0 008 6.807z"/><path fill="var(--color-fill-neutral-bold)" fill-rule="evenodd" d="M12 16H4a4.005 4.005 0 01-4-4V4a4.004 4.004 0 014-4h8a4.005 4.005 0 014 4v8a4.005 4.005 0 01-4 4zM1.143 4v8A2.86 2.86 0 004 14.857h8A2.86 2.86 0 0014.857 12V4A2.86 2.86 0 0012 1.143H4A2.86 2.86 0 001.143 4z" clip-rule="evenodd"/></svg>
