<svg xmlns="http://www.w3.org/2000/svg" width="19" height="18" fill="none" viewBox="0 0 19 18"><path fill="#475867" fill-rule="evenodd" d="M15.562 16.307c.582-.33.781-1.06.446-1.63l-.407-.691a1.388 1.388 0 01.009-1.425c.27-.446.758-.72 1.287-.72h.887c.671 0 1.216-.534 1.216-1.193V7.581c0-.66-.545-1.193-1.216-1.193H17.1c-.6 0-1.153-.316-1.45-.827a1.642 1.642 0 01.005-1.66l.342-.581a1.182 1.182 0 00-.445-1.631L12.863.165a1.229 1.229 0 00-1.66.437l-.38.644c-.28.476-.797.77-1.359.77-.561 0-1.08-.295-1.36-.772l-.38-.647A1.229 1.229 0 006.061.16L3.355 1.693a1.182 1.182 0 00-.445 1.631l.346.588c.3.511.303 1.14.006 1.653a1.662 1.662 0 01-1.441.823h-.604C.545 6.388 0 6.922 0 7.58v3.067c0 .66.545 1.194 1.217 1.194h.798c.532 0 1.025.275 1.297.723.267.44.27.99.009 1.433l-.402.683c-.336.57-.136 1.3.446 1.63l2.689 1.524c.581.33 1.326.134 1.661-.437l.38-.644c.28-.476.797-.769 1.358-.769.562 0 1.08.294 1.36.771l.381.647a1.23 1.23 0 001.662.437l2.706-1.533zm-1.1-4.415a2.679 2.679 0 00-.018 2.75l.345.588-2.498 1.415-.32-.544a2.918 2.918 0 00-2.517-1.428c-1.04 0-2 .543-2.518 1.426l-.319.541-2.48-1.405.341-.58a2.685 2.685 0 00-.018-2.76 2.857 2.857 0 00-2.445-1.365h-.678V7.7h.484c1.077 0 2.07-.568 2.603-1.487a2.925 2.925 0 00-.01-2.956L4.13 2.77l2.497-1.415.32.545a2.918 2.918 0 002.518 1.427 2.915 2.915 0 002.518-1.425l.319-.542 2.48 1.405-.282.478a2.934 2.934 0 00-.008 2.966 3.017 3.017 0 002.612 1.49h.561v2.83h-.766c-1 0-1.926.518-2.437 1.362zm-5.003.86c-2.115 0-3.83-1.68-3.83-3.751 0-2.072 1.714-3.751 3.83-3.751 2.115 0 3.831 1.679 3.831 3.75 0 2.072-1.715 3.752-3.83 3.752zM11.953 9c0 1.347-1.116 2.439-2.494 2.439-1.377 0-2.494-1.092-2.494-2.44 0-1.346 1.117-2.438 2.494-2.438 1.378 0 2.494 1.092 2.494 2.439z" clip-rule="evenodd"/></svg>