<svg xmlns="http://www.w3.org/2000/svg" viewBox="0 0 256 256"><path fill="#fff" stroke="#00c1f5" stroke-miterlimit="10" d="M246.94 149.32c1.32-7.19 2.01-14.56 2.01-21.91 0-16.32-3.19-32.15-9.5-47.06-6.09-14.39-14.8-27.32-25.91-38.42-11.1-11.1-24.03-19.81-38.42-25.9-14.9-6.31-30.73-9.5-47.05-9.5-7.69 0-15.39.72-22.89 2.16-.02 0-.04 0-.06.01C94.84 3.23 83.27.31 71.56.31c-19.11 0-37.08 7.44-50.6 20.96C7.45 34.79 0 52.76 0 71.88 0 84.04 3.13 96 9 106.57c-1.19 6.85-1.82 13.85-1.82 20.84 0 16.32 3.2 32.15 9.51 47.05 6.08 14.4 14.8 27.32 25.89 38.42 11.11 11.1 24.03 19.83 38.44 25.9 14.9 6.32 30.73 9.52 47.05 9.52 7.1 0 14.22-.65 21.17-1.88a71.589 71.589 0 0035.21 9.27c19.11 0 37.07-7.43 50.59-20.95 13.52-13.51 20.96-31.49 20.96-50.6 0-12.21-3.15-24.21-9.06-34.82zm-118.39 52.12c-42.94 0-62.15-21.11-62.15-36.94 0-8.11 5.99-13.8 14.25-13.8 18.37 0 13.61 26.39 47.9 26.39 17.56 0 27.25-9.54 27.25-19.29 0-5.87-2.89-12.37-14.45-15.22l-38.2-9.53C72.39 125.33 66.8 108.7 66.8 93.07c0-32.46 30.56-44.65 59.26-44.65 26.44 0 57.61 14.61 57.61 34.09 0 8.34-7.23 13.19-15.48 13.19-15.69 0-12.8-21.71-44.4-21.71-15.67 0-24.36 7.1-24.36 17.26s12.38 13.38 23.14 15.83l28.27 6.27c30.97 6.9 38.82 24.99 38.82 42.02 0 26.37-20.24 46.07-61.11 46.07z"/><path fill="#00c1f5" d="M189.66 155.37c0 26.37-20.24 46.07-61.11 46.07-42.94 0-62.15-21.11-62.15-36.94 0-8.11 5.99-13.8 14.25-13.8 18.37 0 13.61 26.39 47.9 26.39 17.56 0 27.25-9.54 27.25-19.29 0-5.87-2.89-12.37-14.45-15.22l-38.2-9.53C72.39 125.33 66.8 108.7 66.8 93.07c0-32.46 30.56-44.65 59.26-44.65 26.44 0 57.61 14.61 57.61 34.09 0 8.34-7.23 13.19-15.48 13.19-15.69 0-12.8-21.71-44.4-21.71-15.67 0-24.36 7.1-24.36 17.26s12.38 13.38 23.14 15.83l28.27 6.27c30.97 6.9 38.82 24.99 38.82 42.02z"/></svg>