<svg xmlns="http://www.w3.org/2000/svg" width="15" height="15" fill="none" viewBox="0 0 15 15"><path fill="var(--color-fill-neutral-bold)" fill-rule="evenodd" d="M13.3.7a.71.71 0 011 0 .71.71 0 010 .99l-3.64 3.64h1.76a.7.7 0 110 1.4H8.97a.7.7 0 01-.7-.7V2.58a.7.7 0 111.4 0v1.76L13.3.7zm-7 7.62a.71.71 0 01.38.38c.01.04.05.1.05.1.005.057.005.113 0 .17v3.45a.7.7 0 11-1.4 0v-1.76L1.7 14.29a.7.7 0 01-.5.21.67.67 0 01-.49-.2.69.69 0 010-1l3.63-3.58H2.58a.7.7 0 110-1.4h3.45a1 1 0 01.17 0h.1z" clip-rule="evenodd"/></svg>
