<svg width="16" height="16" viewBox="0 0 16 16" fill="none" xmlns="http://www.w3.org/2000/svg">
<g id="Group 1686551406">
<path id="Vector 75 (Stroke)" fill-rule="evenodd" clip-rule="evenodd" d="M14.0277 0C14.4294 0 14.755 0.325611 14.755 0.727273V3.84416C14.755 4.24582 14.4294 4.57143 14.0277 4.57143H10.9109C10.5092 4.57143 10.1836 4.24582 10.1836 3.84416C10.1836 3.44249 10.5092 3.11688 10.9109 3.11688H13.3005V0.727273C13.3005 0.325611 13.6261 0 14.0277 0Z" fill="var(--color-icon-primary)"/>
<path id="Ellipse 1189 (Stroke)" fill-rule="evenodd" clip-rule="evenodd" d="M8 1.45455C4.38505 1.45455 1.45455 4.38505 1.45455 8C1.45455 10.8431 3.26765 13.2646 5.80296 14.1678C6.18133 14.3026 6.37879 14.7186 6.244 15.097C6.10921 15.4753 5.69321 15.6728 5.31484 15.538C2.21835 14.4349 0 11.4775 0 8C0 3.58172 3.58172 0 8 0C10.5267 0 12.7801 1.17222 14.2451 2.99966C14.4963 3.31305 14.4459 3.77077 14.1325 4.022C13.8191 4.27323 13.3614 4.22283 13.1102 3.90943C11.9094 2.41156 10.0667 1.45455 8 1.45455ZM15.2727 7.27273C15.6744 7.27273 16 7.59834 16 8C16 9.69875 15.4697 11.2758 14.5657 12.5719C14.3359 12.9014 13.8825 12.9821 13.5531 12.7523C13.2236 12.5226 13.1429 12.0692 13.3727 11.7398C14.112 10.6799 14.5455 9.39164 14.5455 8C14.5455 7.59834 14.8711 7.27273 15.2727 7.27273ZM12.7523 13.5531C12.9821 13.8825 12.9014 14.3359 12.5719 14.5657C11.2758 15.4697 9.69875 16 8 16C7.59834 16 7.27273 15.6744 7.27273 15.2727C7.27273 14.8711 7.59834 14.5455 8 14.5455C9.39164 14.5455 10.6799 14.112 11.7398 13.3727C12.0692 13.1429 12.5226 13.2236 12.7523 13.5531Z" fill="var(--color-icon-primary)"/>
</g>
</svg>
