<svg xmlns="http://www.w3.org/2000/svg" width="18" height="18" fill="none" viewBox="0 0 18 18"><g clip-path="url(#clip0)"><path fill="#00ADEE" d="M17.4 10.5c.1-.5.1-1 .1-1.5 0-1.1-.2-2.3-.7-3.3-.4-1-1-1.9-1.8-2.7-.8-.8-1.7-1.4-2.7-1.8-1-.4-2.2-.7-3.3-.7-.5 0-1.1.1-1.6.2C6.7.2 5.9 0 5 0 3.7 0 2.4.5 1.5 1.5.5 2.4 0 3.7 0 5c0 .9.2 1.7.6 2.4 0 .6-.1 1-.1 1.5 0 1.1.2 2.3.7 3.3.4 1 1 1.9 1.8 2.7.8.8 1.7 1.4 2.7 1.8 1 .4 2.2.7 3.3.7.5 0 1 0 1.5-.1.8.4 1.6.7 2.5.7 1.3 0 2.6-.5 3.6-1.5s1.5-2.2 1.5-3.6c-.1-.8-.3-1.7-.7-2.4z"/><path fill="#fff" d="M9 14.1c-3 0-4.4-1.5-4.4-2.6 0-.6.4-1 1-1 1.3 0 1 1.9 3.4 1.9 1.2 0 1.9-.7 1.9-1.4 0-.4-.2-.9-1-1.1l-2.6-.6c-2.2-.5-2.6-1.7-2.6-2.8 0-2.3 2.2-3.1 4.2-3.1 1.9 0 4.1 1 4.1 2.4 0 .6-.5.9-1.1.9-1.1 0-.9-1.5-3.1-1.5-1.2 0-1.8.5-1.8 1.2s.9.9 1.6 1.1l2 .4c2.2.5 2.7 1.8 2.7 3 0 1.9-1.4 3.2-4.3 3.2z"/></g><defs><clipPath id="clip0"><path fill="#fff" d="M0 0h18v18H0z"/></clipPath></defs></svg>