<svg width="32" height="32" viewBox="0 0 32 32" fill="none" xmlns="http://www.w3.org/2000/svg">
<path d="M11.4081 7.87109H3.31292C2.69949 7.87109 2.1112 8.11478 1.67744 8.54853C1.24368 8.98229 1 9.57061 1 10.184V28.6875C1 29.3009 1.24368 29.8891 1.67744 30.323C2.1112 30.7566 2.69949 31.0004 3.31292 31.0004H24.1292C25.4066 31.0004 26.4421 29.9647 26.4421 28.6875V19.4357" stroke="var(--color-icon-primary)" stroke-width="1.8" stroke-linecap="round" stroke-linejoin="round"/>
<path d="M1 13.6533H16.034" stroke="var(--color-icon-primary)" stroke-width="1.8" stroke-linecap="round" stroke-linejoin="round"/>
<path d="M16.9037 8.94246C16.092 8.80126 16.092 7.63605 16.9037 7.49485C19.8442 6.98328 22.183 4.74351 22.8213 1.82785L22.8702 1.60435C23.0459 0.80215 24.188 0.797158 24.3707 1.59779L24.4301 1.85825C25.0919 4.76017 27.4314 6.98101 30.3637 7.49115C31.1795 7.63309 31.1795 8.80422 30.3637 8.94614C27.4314 9.4563 25.0919 11.6771 24.4301 14.5791L24.3707 14.8395C24.188 15.6402 23.0459 15.6352 22.8702 14.833L22.8213 14.6095C22.183 11.6938 19.8442 9.45403 16.9037 8.94246Z" stroke="var(--color-icon-primary)" stroke-width="1.8" stroke-linecap="round" stroke-linejoin="round"/>
</svg>
