<svg xmlns="http://www.w3.org/2000/svg" width="24" height="24" fill="#2C5CC5" viewBox="0 0 24 24"><path fill-rule="evenodd" d="M17.3 6h-3.91l.78-.77a.71.71 0 000-1 .69.69 0 00-1 0l-2 2a.63.63 0 00-.16.23.7.7 0 000 .53.73.73 0 00.16.23l2 2a.67.67 0 00.49.21.71.71 0 00.5-1.2l-.78-.78h3.92a1.3 1.3 0 011.3 1.3v8.55a1.3 1.3 0 01-1.3 1.3H8.67a1.3 1.3 0 01-1.3-1.3v-8h1.27a.7.7 0 00.7-.7V4.7a.7.7 0 00-.7-.7H4.7a.7.7 0 00-.7.7v4a.7.7 0 00.7.7H6v8A2.7 2.7 0 008.67 20h8.63a2.7 2.7 0 002.7-2.7V8.67A2.7 2.7 0 0017.3 6zM5.416 5.4h2.54V8h-2.54V5.4z" clip-rule="evenodd"/></svg>