<svg xmlns="http://www.w3.org/2000/svg" width="24" height="24" fill="none" viewBox="0 0 24 24"><path fill="#12344D" d="M19.357 6.295h-7.32a.65.65 0 110-1.29h7.32a.65.65 0 010 1.29zm-1.56 3.85h-5.76a.651.651 0 110-1.29h5.76a.65.65 0 110 1.29zm-1.49 3.85h-4.27a.651.651 0 110-1.291h4.27a.651.651 0 110 1.291zm-1.12 3.85h-3.15a.651.651 0 110-1.29h3.15a.65.65 0 010 1.29zm-8.23-3.59a.65.65 0 01-.64-.65v-8a.65.65 0 011.29 0v8a.65.65 0 01-.65.65zm-.12 3.92a.68.68 0 01-.46-.19l-2.19-2.22a.66.66 0 010-.92.65.65 0 01.91 0l1.74 1.74 1.91-1.91a.637.637 0 01.455-.188.64.64 0 01.594.397.65.65 0 010 .492.653.653 0 01-.14.209l-2.37 2.37a.65.65 0 01-.45.22z"/></svg>