<svg xmlns="http://www.w3.org/2000/svg" width="17" height="17" fill="none" viewBox="0 0 17 17"><path fill="var(--color-fill-neutral-bold)" fill-rule="evenodd" d="M13.819.21l2 2a.73.73 0 01.16.23.72.72 0 010 .54.69.69 0 01-.16.22l-2 2a.707.707 0 01-1-1l.78-.78h-3.9a2 2 0 00-2 2A3.34 3.34 0 016.429 8a3.34 3.34 0 011.33 2.65 2 2 0 001.95 1.95h3.9l-.78-.78a.7.7 0 01-.2-.49.74.74 0 01.2-.5.71.71 0 011 0l2 2a.69.69 0 01.12.17.72.72 0 010 .54.87.87 0 01-.16.26l-2 2a.71.71 0 01-1 0 .71.71 0 010-1l.82-.8h-3.9a3.35 3.35 0 01-3.35-3.35 2 2 0 00-1.95-2H.699a.7.7 0 110-1.4h3.71a2 2 0 001.95-2A3.35 3.35 0 019.709 2h3.9l-.78-.78a.71.71 0 010-1 .71.71 0 01.99-.01z" clip-rule="evenodd"/></svg>
