<svg xmlns="http://www.w3.org/2000/svg" width="12" height="12" fill="none" viewBox="0 0 12 12"><path fill="#12344D" fill-rule="evenodd" d="M11.4 0H.6a.6.6 0 00-.6.6v1.92a.6.6 0 00.6.6h10.8a.6.6 0 00.6-.6V.6a.6.6 0 00-.6-.6zm-.6 1.92H1.2V1.2h9.6v.72zm.6 2.52H.6a.6.6 0 00-.6.6v1.92a.6.6 0 00.6.6h10.8a.6.6 0 00.6-.6V5.04a.6.6 0 00-.6-.6zm-.6 1.92H1.2v-.72h9.6v.72zM.6 8.88h10.8a.6.6 0 01.6.6v1.92a.6.6 0 01-.6.6H.6a.6.6 0 01-.6-.6V9.48a.6.6 0 01.6-.6zm.6 1.92h9.6v-.72H1.2v.72z" clip-rule="evenodd"/></svg>