<svg xmlns="http://www.w3.org/2000/svg" data-name="Layer 2" viewBox="0 0 16 16"><path d="M16 6.14a.72.72 0 00-.57-.47L10.72 5 8.63.75a.73.73 0 00-1.26 0L5.28 5 .6 5.67a.72.72 0 00-.6.47.71.71 0 00.18.72l3.39 3.3-.8 4.66a.7.7 0 001 .74L8 13.36l4.19 2.2a.61.61 0 00.32.08.67.67 0 00.41-.13.69.69 0 00.28-.69l-.8-4.66 3.39-3.3a.71.71 0 00.21-.72zm-4.84 3.28A.71.71 0 0011 10l.62 3.62L8.33 12a.72.72 0 00-.66 0l-3.25 1.66L5 10a.71.71 0 00-.2-.62L2.2 6.85l3.64-.53a.7.7 0 00.53-.38L8 2.64l1.63 3.3a.7.7 0 00.53.38l3.64.53z"/></svg>