<svg xmlns="http://www.w3.org/2000/svg" width="17" height="17" fill="none" viewBox="0 0 17 17"><path fill="#345C7C" d="M5.34 4.29a.6.6 0 000 1.2h.71a.6.6 0 000-1.2h-.71zm2.14.6a.6.6 0 01.6-.6h.71a.6.6 0 010 1.2h-.71a.6.6 0 01-.6-.6zm3.33-.6a.6.6 0 100 1.2h.72a.6.6 0 100-1.2h-.72z"/><path fill="#345C7C" fill-rule="evenodd" d="M2.36 3.37c0-.619.502-1.12 1.12-1.12h9.91c.619 0 1.12.501 1.12 1.12v3.04a1.12 1.12 0 01-1.12 1.12H3.48a1.12 1.12 0 01-1.12-1.12V3.37zm1.2.08v2.88h9.75V3.45H3.56z" clip-rule="evenodd"/><path fill="#345C7C" fill-rule="evenodd" d="M2.15 16.86h12.57c.396 0 .788-.108 1.12-.323a2.15 2.15 0 001.02-1.827V2.14C16.86.946 15.899 0 14.72 0H2.15A2.15 2.15 0 000 2.14v12.57c0 .788.437 1.49 1.071 1.855a2.04 2.04 0 001.079.295zm0-15.66a.95.95 0 00-.95.94v12.57c0 .159.041.31.113.444a1.72 1.72 0 011.117-.414.54.54 0 00.385-.927l-.01-.009a1.76 1.76 0 01-.515-1.244c0-.44.168-.889.52-1.229l.29-.29a1.76 1.76 0 012.46 0l.004.005a.545.545 0 00.376.174c.307 0 .56-.228.56-.55 0-.951.769-1.76 1.75-1.76h.41c.968 0 1.75.805 1.75 1.76 0 .322.264.55.54.55a.567.567 0 00.405-.193c.319-.29.748-.497 1.215-.497.459 0 .909.2 1.224.516l.29.29a1.74 1.74 0 010 2.468.55.55 0 00-.164.376c0 .296.228.56.56.56.407 0 .787.14 1.085.382a.942.942 0 00.095-.412V2.14a.934.934 0 00-.94-.94H2.15zm11.368 14.46a1.787 1.787 0 01-.798-1.48c0-.425.17-.88.516-1.224a.54.54 0 000-.772l-.29-.29a.565.565 0 00-.376-.164.627.627 0 00-.398.176c-.336.33-.781.514-1.222.514-.884 0-1.74-.712-1.74-1.75a.565.565 0 00-.55-.56h-.41a.559.559 0 00-.55.56c0 1.058-.867 1.75-1.76 1.75a1.74 1.74 0 01-1.221-.523.559.559 0 00-.778 0l-.296.297a.498.498 0 00-.155.366.56.56 0 00.161.393c.359.346.529.802.529 1.227 0 .58-.289 1.152-.787 1.48h1.278a3.93 3.93 0 013.789-2.9 3.918 3.918 0 013.792 2.9h1.266zm-2.53 0H5.937a2.725 2.725 0 015.051 0z" clip-rule="evenodd"/></svg>