<svg xmlns="http://www.w3.org/2000/svg" data-name="Layer 2" viewBox="0 0 16 16"><path d="M4.7 12a.69.69 0 01-.48-.2.67.67 0 010-1l6.6-6.6a.68.68 0 111 1l-6.6 6.6a.69.69 0 01-.52.2zm4-.2l3.11-3.11a.69.69 0 000-1 .67.67 0 00-1 0l-3.1 3.13a.67.67 0 000 1 .68.68 0 001 0zm3.11 0a1.07 1.07 0 00.15-.22.75.75 0 00.04-.28.66.66 0 00-.2-.48 1.07 1.07 0 00-.22-.15.67.67 0 00-.52 0 .86.86 0 00-.22.15.66.66 0 00-.2.48.75.75 0 00.05.26.62.62 0 00.15.22.86.86 0 00.22.15.75.75 0 00.26.05.67.67 0 00.46-.2z"/></svg>