<svg xmlns="http://www.w3.org/2000/svg" viewBox="0 0 512 512"><path fill="var(--color-text-primary)" d="M449.9 142.5l-29.2-23.6-16.8 6.8c-13.1 5.3-27.7 3.4-38-4.9s-15.1-22.1-12.7-36.1l3.1-17.9-29.2-23.7c-23.5-19-58.2-15.4-77.3 8.1L54 293.1c-19 23.6-15.3 58.2 8.3 77.2l20.2 16.3-.9.4 8 5.3 2.8-3.9 1.7 4.3 14.1-5.7c13.1-5.3 27.7-3.4 38 4.9s15.1 22.1 12.7 36.1l-3.1 17.9 29.1 23.6.1.1c10.1 8.2 22.4 12.2 34.5 12.2 16 0 31.8-6.9 42.7-20.3l195.9-241.9c19-23.4 15.3-58-8.2-77.1zM170.5 365.9l-1.9-1.6c-19.7-15.9-46.7-20.1-71.2-11.3l-12.8-10.3c-8.2-6.6-9.5-18.7-2.9-27l196-241.9c6.7-8.2 18.8-9.4 27-2.8l12.8 10.3c-3.5 25.8 6.2 51.4 25.9 67.3 19.8 16 46.8 20.2 71.2 11.3l12.8 10.3c8.2 6.6 9.5 18.7 2.9 27l-196 241.9c-3.2 4-7.8 6.4-12.9 7-5.1.5-10.1-1-14.1-4.2l-12.8-10.3c3.5-25-5.6-49.8-24-65.7z"/><path fill="var(--color-text-primary)" d="M270.5 352.7l82.8-102.2c19-23.6 15.3-58.2-8.3-77.2l-26.4-21.4c-23.5-19.1-58.2-15.5-77.3 8l-81.2 100.4-1.6 1.9c-19 23.6-15.2 58.2 8.3 77.1l26.4 21.4c10.2 8.3 22.4 12.3 34.6 12.3 16 0 31.9-6.9 42.7-20.3zm25.6-173.1l26.4 21.4c8.2 6.6 9.5 18.7 2.9 27l-82.7 102.2c-6.7 8.2-18.8 9.4-27 2.8l-26.4-21.4c-8.2-6.6-9.5-18.7-2.9-27l82.7-102.2c6.7-8.2 18.8-9.4 27-2.8z"/></svg>
