<svg xmlns="http://www.w3.org/2000/svg" width="18" height="11" fill="none" viewBox="0 0 18 11"><g clip-path="url(#clip0)"><path fill="var(--color-icon-semantic-info)" d="M7.345 6.427a.508.508 0 010-.668L12.938.167a.508.508 0 01.668 0c.167.167.167.5 0 .667l-5.51 5.593c-.166.25-.5.25-.75 0zM17.53.167a.508.508 0 00-.668 0L8.097 8.93l-3.34-3.339c-.25-.25-.583-.25-.75 0a.508.508 0 000 .668l1.419 1.42L4.174 8.93.834 5.592c-.166-.167-.5-.167-.75 0-.251.167-.167.501 0 .752l3.756 3.672c.167.167.5.167.667 0L6.093 8.43l1.586 1.586a.508.508 0 00.668 0L17.53.834a.39.39 0 000-.667z"/></g><defs><clipPath id="clip0"><path fill="var(--color-icon-inverse)" d="M0 0h17.696v10.1H0z"/></clipPath></defs></svg>
