<!-- Generated by IcoMoon.io -->
<svg version="1.1" xmlns="http://www.w3.org/2000/svg" width="38" height="32" viewBox="0 0 38 32">
<title>unlock</title>
<path d="M23.741 10.001c3.133 0 5.673 2.418 5.673 5.4v11.2c0 1.432-0.598 2.806-1.661 3.818s-2.507 1.582-4.011 1.582h-18.069c-1.505 0-2.947-0.569-4.011-1.582s-1.661-2.386-1.661-3.818v-11.2c0-1.45 0.612-2.839 1.698-3.854s2.557-1.573 4.079-1.546h17.964zM23.741 12.801h-18.069c-1.508 0-2.731 1.164-2.731 2.6v11.2c0 0.69 0.288 1.351 0.8 1.838s1.207 0.761 1.931 0.761h18.069c1.508 0 2.731-1.164 2.731-2.6v-11.2c0-1.436-1.223-2.6-2.731-2.6zM14.707 17.061c1.508 0 2.731 1.164 2.731 2.6-0.014 0.865-0.489 1.664-1.261 2.12v1.62c0 0.773-0.658 1.4-1.471 1.4s-1.471-0.627-1.471-1.4v-1.62c-0.772-0.456-1.247-1.255-1.261-2.12 0-1.436 1.223-2.6 2.731-2.6z"></path>
<path d="M33.079 5.74c-1.021-1.753-2.985-2.94-5.241-2.94-3.307 0-5.988 2.552-5.988 5.7l-0.002 1.498-2.939 0.002v-1.5c0-4.694 3.998-8.5 8.929-8.5 3.369 0 6.302 1.776 7.822 4.397 0.626 1.079 1.012 2.302 1.092 3.603v0.018c0 0.775-0.66 1.404-1.475 1.404s-1.474-0.628-1.474-1.404v-0.018c-0.074-0.814-0.328-1.579-0.725-2.26z"></path>
</svg>
