<svg width="16" height="16" viewBox="0 0 16 16" fill="none" xmlns="http://www.w3.org/2000/svg">
<rect width="16" height="16" fill="var(--color-fill-surface)" fill-opacity="0.01"/>
<path fill-rule="evenodd" clip-rule="evenodd" d="M5.80001 4.84031C5.69001 4.95031 5.53001 5.01031 5.38001 5.01031L5.37001 5.02031C5.22001 5.02031 5.07001 4.96031 4.95001 4.84031C4.71001 4.60031 4.72001 4.22031 4.95001 3.99031L7.77001 1.18031C8.01001 0.950312 8.39001 0.950312 8.62001 1.18031L11.44 3.99031C11.67 4.22031 11.67 4.60031 11.44 4.84031C11.2 5.07031 10.82 5.07031 10.59 4.84031L8.79001 3.05031V10.0203C8.79001 10.3503 8.52001 10.6203 8.19001 10.6203C7.86001 10.6203 7.59001 10.3503 7.59001 10.0203V3.05031L5.80001 4.84031ZM13.8 10.0404C13.8 9.71043 14.07 9.44043 14.4 9.44043C14.73 9.44043 15 9.71043 15 10.0404V12.4104C15 13.8404 13.84 15.0004 12.41 15.0004H3.59C2.16 15.0004 1 13.8404 1 12.4104V10.0404C1 9.71043 1.27 9.44043 1.6 9.44043C1.93 9.44043 2.2 9.71043 2.2 10.0404V12.4104C2.2 13.1804 2.82 13.8004 3.59 13.8004H12.41C13.17 13.8004 13.8 13.1704 13.8 12.4104V10.0404Z" fill="var(--color-fill-neutral)"/>
</svg>
