<svg width="12" height="12" viewBox="0 0 20 20" fill="none" xmlns="http://www.w3.org/2000/svg">
<path fill-rule="evenodd" clip-rule="evenodd" d="M6.8 3.38957L4.03 6.16957H3.96C3.68386 6.44572 3.23614 6.44572 2.96 6.16957C2.68386 5.89343 2.68386 5.44572 2.96 5.16957L6.96 1.16957C7.02752 1.10416 7.10519 1.05013 7.19 1.00957C7.36318 0.939517 7.55682 0.939517 7.73 1.00957C7.81481 1.05013 7.89248 1.10416 7.96 1.16957L11.96 5.16957C12.1632 5.36864 12.2257 5.67086 12.1182 5.9342C12.0106 6.19753 11.7544 6.36962 11.47 6.36957C11.2841 6.36807 11.1056 6.29667 10.97 6.16957L8.2 3.38957V10.8496C8.2 11.2362 7.8866 11.5496 7.5 11.5496C7.1134 11.5496 6.8 11.2362 6.8 10.8496V3.38957ZM13.1 10.2396C13.1 9.85297 13.4134 9.53957 13.8 9.53957C14.1866 9.53957 14.5 9.85297 14.5 10.2396V12.5996C14.4945 13.9228 13.4232 14.9941 12.1 14.9996H2.9C1.57679 14.9941 0.505479 13.9228 0.5 12.5996V10.2396C0.5 9.98949 0.633419 9.7584 0.85 9.63336C1.06658 9.50831 1.33342 9.50831 1.55 9.63336C1.76658 9.7584 1.9 9.98949 1.9 10.2396V12.5996C1.9 13.1519 2.34772 13.5996 2.9 13.5996H12.1C12.6523 13.5996 13.1 13.1519 13.1 12.5996V10.2396Z" fill="#475867"/>
</svg>