<svg width="32" height="32" viewBox="0 0 16 16" fill="none" xmlns="http://www.w3.org/2000/svg" class="svg-upvote">
  <path
    d="M9.62992 7.25C9.62992 7.25 10.4499 7.25 12.6499 7.25C13.2399 7.25 13.7299 7.71 13.7699 8.3C13.9099 10.72 12.9599 12.15 12.4099 12.76C12.1999 12.99 11.8999 13.12 11.5899 13.12H5.16992V6.81C5.16992 6.81 7.54992 6.68 8.28992 4.82C9.02992 2.96 8.57992 2.25 9.40992 2.25C10.2399 2.25 10.6599 3.52 10.6599 4.56C10.6599 6 9.61992 7.25 9.61992 7.25H9.62992Z"
    stroke="var(--color-icon-primary)" stroke-width="0.8" stroke-linecap="round" stroke-linejoin="round" />
  <path
    d="M5.17996 6.14989V13.7599H2.79996C2.47996 13.7599 2.20996 13.4999 2.20996 13.1699V6.72989C2.20996 6.40989 2.46996 6.13989 2.79996 6.13989H5.17996V6.14989Z"
    stroke="var(--color-icon-primary)" stroke-width="0.8" stroke-linecap="round" stroke-linejoin="round" />
</svg>