<svg xmlns="http://www.w3.org/2000/svg" width="20" height="20" fill="none" viewBox="0 0 20 20"><path fill="var(--color-fill-neutral)" fill-rule="evenodd" d="M17.316 8.15a2.89 2.89 0 00-2.19-1h-2.38l.8-2a2.34 2.34 0 00.16-.86 2.29 2.29 0 00-4.42-.86l-1.2 2.98a1.77 1.77 0 01-1.2 1.06l-.28.07a1.71 1.71 0 00-1.47-.86h-2.42a.7.7 0 00-.7.7v9.94a.7.7 0 00.7.7h2.42a1.7 1.7 0 001.54-1h7c2 0 3.4-.95 3.65-2.55l.62-4a2.89 2.89 0 00-.63-2.32zm-12.18 8.47h-1.72V8.08h1.72a.29.29 0 01.29.3v7.94a.3.3 0 01-.29.3zm10.85-2.36l.61-4a1.49 1.49 0 00-1.47-1.72h-3.41a.7.7 0 01-.65-.96l1.18-2.97a.999.999 0 00.06-.33.88.88 0 00-.56-.83.89.89 0 00-.68 0 .92.92 0 00-.48.49l-1.2 3a3.2 3.2 0 01-2.16 1.89l-.4.1v6.69h6.89c.94 0 2.09-.24 2.27-1.36z" clip-rule="evenodd"/></svg>
