<svg width="32" height="32" viewBox="0 0 16 16" xmlns="http://www.w3.org/2000/svg" class="svg-upvote-fill">
  <path
    d="M9.62992 7.25C9.62992 7.25 10.4499 7.25 12.6499 7.25C13.2399 7.25 13.7299 7.71 13.7699 8.3C13.9099 10.72 12.9599 12.15 12.4099 12.76C12.1999 12.99 11.8999 13.12 11.5899 13.12H6V6.81C6 6.81 7.54992 6.68 8.28992 4.82C9.02992 2.96 8.57992 2.25 9.40992 2.25C10.2399 2.25 10.6599 3.52 10.6599 4.56C10.6599 6 9.61992 7.25 9.61992 7.25H9.62992Z" />
  <path
    d="M5.17996 6.42016V13.5H2.79996C2.47996 13.5 2.20996 13.24 2.20996 12.91V7.00016C2.20996 6.68016 2.46996 6.41016 2.79996 6.41016H5.17996V6.42016Z" />
</svg>