<?xml version="1.0" encoding="utf-8"?>
<!-- Generator: Adobe Illustrator 24.2.3, SVG Export Plug-In . SVG Version: 6.00 Build 0)  -->
<svg version="1.1" id="Layer_1" xmlns="http://www.w3.org/2000/svg" xmlns:xlink="http://www.w3.org/1999/xlink" x="0px" y="0px"
	 viewBox="0 0 16 16" style="enable-background:new 0 0 16 16;" xml:space="preserve">
<style type="text/css">
	.st0{fill:none;stroke:var(--color-icon-primary);}
	.st1{fill:var(--color-icon-primary);}
</style>
<path class="st0" d="M3,0.5h10c1.4,0,2.5,1.1,2.5,2.5v10c0,1.4-1.1,2.5-2.5,2.5H3c-1.4,0-2.5-1.1-2.5-2.5V3C0.5,1.6,1.6,0.5,3,0.5z"
	/>
<path class="st1" d="M8.6,4.4c0.5,0,1-0.4,1-1c0-0.5-0.4-1-1-1c-0.5,0-1,0.4-1,1C7.7,3.9,8.1,4.4,8.6,4.4z"/>
<path class="st1" d="M11.4,7.3L10.2,7L9.3,5.4L9.1,5.1C8.9,4.9,8.8,4.8,8.6,4.8L7.8,4.7l-0.2,0c-0.3,0-0.6,0.2-0.7,0.4L5.7,6.4
	L5.4,8.1c0,0,0,0.1,0,0.1c0,0.3,0.2,0.4,0.4,0.4c0.2,0,0.4-0.1,0.4-0.3v0l0.2-1.4L7,6.4L6.9,7.9l-0.3,2.3l0,0.2l0,0.1l-1.3,1.7
	L5,12.4c0,0.1,0,0.1,0,0.2c0,0.3,0.2,0.5,0.5,0.5c0.1,0,0.2,0,0.3-0.1L6,12.8l1.5-2.1l0.4-1.8l2.1,4.2c0.1,0.2,0.3,0.3,0.5,0.3
	c0.3,0,0.5-0.2,0.5-0.5c0,0,0-0.1,0-0.1l-0.1-0.2L8.8,8.3l0-0.4l0.1-1.5l0.7,1.1l0.1,0.2L10,7.7l1.2,0.4c0.1,0,0.1,0,0.2,0
	c0.2,0,0.4-0.2,0.4-0.4C11.8,7.5,11.6,7.4,11.4,7.3z M10.2,7L10.2,7L10.2,7C10.2,7,10.2,7,10.2,7z"/>
</svg>
