<svg xmlns="http://www.w3.org/2000/svg" width="18" height="16" fill="none" viewBox="0 0 18 16"><path fill="#12344D" fill-rule="evenodd" d="M13.51 15.64a.61.61 0 01-.32-.08L9 13.36l-4.19 2.2a.7.7 0 01-1-.74l.8-4.66-3.4-3.3A.71.71 0 011 6.14a.72.72 0 01.6-.47L6.28 5 8.37.75a.73.73 0 011.26 0L11.72 5l4.68.68a.72.72 0 01.57.47.71.71 0 01-.18.72l-3.39 3.3.8 4.66a.69.69 0 01-.28.69.67.67 0 01-.41.12zM9 11.87c.114.003.227.03.33.08l3.25 1.71L12 10a.71.71 0 01.2-.62l2.6-2.53-3.64-.53a.7.7 0 01-.53-.38L9 2.64l-1.63 3.3a.7.7 0 01-.53.38l-3.64.53 2.64 2.57A.71.71 0 016 10l-.62 3.62L8.67 12a.8.8 0 01.33-.13z" clip-rule="evenodd"/></svg>