<svg xmlns="http://www.w3.org/2000/svg" width="13" height="12" fill="none" viewBox="0 0 13 12"><path fill="var(--color-icon-primary)" fill-rule="evenodd" d="M3.09 0a.7.7 0 01.7.687h4.288a.7.7 0 011.4 0h.892a1.7 1.7 0 011.7 1.7V9.5a1.7 1.7 0 01-1.7 1.7H1.7A1.7 1.7 0 010 9.5V2.387a1.7 1.7 0 011.7-1.7h.69A.7.7 0 013.09 0zM1.4 4.677V9.5a.3.3 0 00.3.3h8.67a.3.3 0 00.3-.3V4.677H1.4zm9.27-1.4H1.4v-.89a.3.3 0 01.3-.3h.69a.7.7 0 001.4 0h4.288a.7.7 0 001.4 0h.892a.3.3 0 01.3.3v.89zM3.292 5.663a.7.7 0 01.7.7V8.34a.7.7 0 11-1.4 0V6.363a.7.7 0 01.7-.7zm3.443.7a.7.7 0 10-1.4 0V8.34a.7.7 0 101.4 0V6.363zm2.043-.7a.7.7 0 01.7.7V8.34a.7.7 0 11-1.4 0V6.363a.7.7 0 01.7-.7z" clip-rule="evenodd"/></svg>
