<svg xmlns="http://www.w3.org/2000/svg" viewBox="0 0 175.22 175.55"><defs><linearGradient id="fs-gosbl1fnha" x1="86.84" x2="87.46" y1="32.56" y2="137.09" gradientUnits="userSpaceOnUse"><stop offset="0" stop-color="#57d163"/><stop offset="1" stop-color="#23b33a"/></linearGradient></defs><path fill="#b3b3b3" d="M54.53 138.45l2.24 1.32a61.033 61.033 0 0031.13 8.52h.02c33.71 0 61.14-27.43 61.15-61.13 0-16.33-6.35-31.7-17.9-43.25a60.752 60.752 0 00-43.23-17.93c-33.73 0-61.17 27.42-61.18 61.13a60.87 60.87 0 009.35 32.53l1.46 2.31-6.18 22.56 23.15-6.07zm-40.81 23.54l10.44-38.11c-6.44-11.15-9.82-23.81-9.82-36.77.02-40.56 33.02-73.55 73.58-73.55 19.68.01 38.15 7.67 52.05 21.57 13.89 13.9 21.54 32.38 21.53 52.04-.02 40.55-33.03 73.55-73.58 73.55h-.03c-12.31 0-24.41-3.09-35.16-8.95l-39 10.23z"/><path fill="#fff" d="M12.97 161.24l10.44-38.11a73.348 73.348 0 01-9.82-36.77c.02-40.56 33.02-73.55 73.58-73.55 19.68.01 38.15 7.67 52.05 21.57 13.89 13.9 21.54 32.38 21.53 52.04-.02 40.55-33.03 73.55-73.58 73.55h-.03c-12.31 0-24.41-3.09-35.16-8.95l-39 10.23z"/><path fill="url(#fs-gosbl1fnha)" d="M87.18 25.23c-33.73 0-61.17 27.42-61.18 61.13a60.87 60.87 0 009.35 32.53l1.46 2.31-6.18 22.56 23.15-6.07 2.24 1.32a61.033 61.033 0 0031.13 8.52h.02c33.71 0 61.14-27.43 61.15-61.13a60.73 60.73 0 00-17.9-43.25 60.752 60.752 0 00-43.23-17.93z"/><path fill="#fff" fill-rule="evenodd" d="M68.77 55.6c-1.38-3.06-2.83-3.12-4.14-3.18l-3.52-.04c-1.23 0-3.22.46-4.9 2.3s-6.44 6.29-6.44 15.33 6.59 17.78 7.51 19.01S70 109.4 88.69 116.77c15.53 6.12 18.69 4.91 22.06 4.6s10.88-4.45 12.41-8.74 1.53-7.97 1.07-8.74-1.68-1.23-3.53-2.15-10.88-5.37-12.56-5.98-2.91-.92-4.14.92-4.75 5.98-5.82 7.21-2.14 1.38-3.98.46-7.76-2.86-14.78-9.12c-5.46-4.87-9.15-10.89-10.23-12.73s-.11-2.83.81-3.75c.82-.82 1.84-2.15 2.76-3.22s1.22-1.84 1.84-3.07.31-2.3-.15-3.22-4.03-10.01-5.67-13.65"/></svg>