<svg xmlns="http://www.w3.org/2000/svg" viewBox="0 0 32 32"><path fill="none" stroke="#363d42" stroke-linecap="round" stroke-linejoin="round" stroke-width=".875" d="M6 12.5c1.9 0 3.5 1.6 3.5 3.5S7.9 19.5 6 19.5 2.5 17.9 2.5 16s1.6-3.5 3.5-3.5zm6.5 17h7v-7h-7zm10-10h7v-7h-7zm-13-10h13v-7h-13zm10 16.5h3m-10-10h-3M26 19.5v3"/><path fill="#448ee1" fill-opacity=".3" stroke="#448ee1" stroke-linecap="round" stroke-linejoin="round" stroke-width=".875" d="M26 22.5c1.9 0 3.5 1.6 3.5 3.5s-1.6 3.5-3.5 3.5-3.5-1.6-3.5-3.5 1.6-3.5 3.5-3.5z"/><path fill="none" stroke="#363d42" stroke-linecap="round" stroke-linejoin="round" stroke-width=".875" d="M19.5 16h3m0-10h.5c1.7 0 3 1.3 3 3v3.5"/><path fill="none" stroke="#363d42" d="M15.5 6h1m-3 0h1m3 0h1"/><path fill="none" stroke="#363d42" stroke-linecap="round" stroke-linejoin="round" stroke-width=".875" d="M6 12.5V9c0-1.7 1.3-3 3-3h.5"/><path fill="#448ee1" fill-opacity=".3" stroke="#448ee1" stroke-linecap="round" stroke-linejoin="round" stroke-width=".875" d="M16 12.5l3.5 3.5-3.5 3.5-3.5-3.5z"/></svg>