<svg xmlns="http://www.w3.org/2000/svg" width="21" height="22" fill="none" stroke="var(--color-icon-primary)" stroke-linejoin="round" viewBox="0 0 21 22"><path d="M8.505 6.776a2.89 2.89 0 002.888-2.888A2.89 2.89 0 008.505 1a2.89 2.89 0 00-2.888 2.888 2.89 2.89 0 002.888 2.888z"/><path stroke-linecap="round" d="M16.088 19.089V20a1 1 0 01-1 1H2a1 1 0 01-1-1V17.24a7.55 7.55 0 017.536-7.274l.524.015"/><path d="M18.583 15.338a.61.61 0 01-.211.815l-1.282.767a.565.565 0 01-.787-.218l-.18-.324a.74.74 0 00-.644-.386.74.74 0 00-.644.384l-.179.322a.566.566 0 01-.787.218l-1.274-.762a.61.61 0 01-.211-.815l.19-.341a.73.73 0 00-.004-.716.71.71 0 00-.614-.362h-.378a.587.587 0 01-.576-.597V11.79c0-.33.258-.597.576-.597h.286a.78.78 0 00.682-.411.854.854 0 00-.003-.826l-.164-.294a.61.61 0 01.211-.816l1.282-.767a.565.565 0 01.787.218l.18.324a.74.74 0 00.644.386.74.74 0 00.644-.385l.179-.322a.565.565 0 01.787-.218l1.274.762a.61.61 0 01.211.816l-.162.29a.86.86 0 00-.003.83.786.786 0 00.687.413h.323c.318 0 .576.267.576.597v1.533c0 .33-.258.597-.576.597h-.42a.722.722 0 00-.614 1.073l.192.345z"/><path d="M15.5 14a1.5 1.5 0 100-3 1.5 1.5 0 100 3z"/></svg>
