<?xml version="1.0" encoding="utf-8"?>
<!-- Generator: Adobe Illustrator 24.2.3, SVG Export Plug-In . SVG Version: 6.00 Build 0)  -->
<svg version="1.1" id="Layer_1" xmlns="http://www.w3.org/2000/svg" xmlns:xlink="http://www.w3.org/1999/xlink" x="0px" y="0px"
	 viewBox="0 0 16 16" style="enable-background:new 0 0 16 16;" xml:space="preserve">
<style type="text/css">
	.st0{fill-rule:evenodd;clip-rule:evenodd;fill:#20252D;}
</style>
<path class="st0" d="M13,10.9c-0.2,0.2-0.5,0.6-1,0.6c-0.7,0-1-0.5-1.2-1.1L9.6,7.6l-1.1,2.8c-0.2,0.5-0.4,1.1-1.2,1.1
	c-0.8,0-1-0.6-1.2-1.1L4.2,5.7h1.6l1.5,3.8l1.1-2.8c0.2-0.4,0.4-1.1,1.2-1.1c0.8,0,1,0.7,1.2,1.1l1.2,3c0.5-0.8,0.8-1.7,0.8-2.6
	c0-2.6-2.1-4.7-4.7-4.7C7.4,2.4,6.6,2.6,6,2.9C5.3,3.1,4.7,3.6,4.2,4.1C3.6,4.6,3.2,5.2,3,5.9C2.7,6.5,2.5,7.3,2.5,8
	c0,0.7,0.1,1.5,0.4,2.1c0.3,0.7,0.7,1.3,1.2,1.8c0.5,0.5,1.1,0.9,1.8,1.2c0.7,0.3,1.4,0.4,2.1,0.4c0.5,0,1-0.1,1.5-0.2v1.5
	c-0.5,0.1-1,0.2-1.5,0.2c-0.9,0-1.8-0.2-2.7-0.5c-0.9-0.3-1.6-0.9-2.3-1.5c-0.7-0.7-1.2-1.4-1.5-2.3C1.2,9.8,1,8.9,1,8
	c0-0.9,0.2-1.8,0.5-2.7C1.9,4.4,2.4,3.7,3.1,3c0.7-0.7,1.4-1.2,2.3-1.5C6.2,1.2,7.2,1,8.1,1c3.4,0,6.1,2.8,6.1,6.1
	C14.2,8.5,13.8,9.8,13,10.9L13,10.9z"/>
</svg>
