<svg width="16" height="16" viewBox="0 0 16 16" fill="none" xmlns="http://www.w3.org/2000/svg">
<rect width="16" height="16" fill="white" fill-opacity="0.01"/>
<path d="M12.97 2.54H11.28V1.6C11.28 1.27 11.01 1 10.68 1C10.35 1 10.08 1.27 10.08 1.6V2.54H5.91999V1.6C5.91999 1.27 5.64999 1 5.31999 1C4.98999 1 4.71999 1.27 4.71999 1.6V2.54H3.01999C1.89999 2.54 0.98999 3.45 0.98999 4.57V12.98C0.98999 14.1 1.89999 15.01 3.01999 15.01H12.97C14.09 15.01 15 14.1 15 12.98V4.56C15 3.44 14.09 2.53 12.97 2.53V2.54ZM3.02999 3.73H4.72999V4.7C4.72999 5.03 4.99999 5.3 5.32999 5.3C5.65999 5.3 5.92999 5.03 5.92999 4.7V3.73H10.09V4.7C10.09 5.03 10.36 5.3 10.69 5.3C11.02 5.3 11.29 5.03 11.29 4.7V3.73H12.98C13.44 3.73 13.81 4.1 13.81 4.56V6.4H2.19999V4.56C2.19999 4.1 2.56999 3.73 3.02999 3.73ZM12.98 13.8H3.02999C2.56999 13.8 2.19999 13.43 2.19999 12.97V7.6H13.8V12.97C13.8 13.43 13.43 13.8 12.97 13.8H12.98Z" fill="#264966"/>
</svg>
