<svg xmlns="http://www.w3.org/2000/svg" width="16" height="16" fill="none" viewBox="0 0 16 16"><path stroke="#475867" stroke-linecap="round" stroke-linejoin="round" d="M8.002 10.31a1.655 1.655 0 100-3.31 1.655 1.655 0 000 3.31z"/><path fill="#475867" d="M3.25 3.8a.75.75 0 100-1.5.75.75 0 000 1.5zM5.25 3.8a.75.75 0 100-1.5.75.75 0 000 1.5z"/><path fill="#475867" d="M5.25 3.8a.75.75 0 100-1.5.75.75 0 000 1.5zM7.25 3.8a.75.75 0 100-1.5.75.75 0 000 1.5z"/><path stroke="#475867" stroke-linecap="round" stroke-linejoin="round" d="M10.923 12.412c-.422-1.216-1.564-2.101-2.92-2.101a3.093 3.093 0 00-2.921 2.101"/><path stroke="#475867" stroke-linecap="round" stroke-linejoin="round" d="M13.727 1H2.273C1.57 1 1 1.57 1 2.273v11.454C1 14.43 1.57 15 2.273 15h11.454C14.43 15 15 14.43 15 13.727V2.273C15 1.57 14.43 1 13.727 1zM1 5h14"/></svg>