<svg width="20" height="20" viewBox="0 0 20 20" fill="none" xmlns="http://www.w3.org/2000/svg">
<path fill-rule="evenodd" clip-rule="evenodd" d="M16.7563 17.5H3.23128C2.50628 17.5 1.85628 17.125 1.50628 16.5C1.15628 15.875 1.15628 15.125 1.53128 14.5125L8.30628 3.4625C8.66878 2.8625 9.30628 2.5 10.0063 2.5C10.7063 2.5 11.3438 2.8625 11.7063 3.4625L18.4688 14.5C18.8438 15.125 18.8438 15.8625 18.4938 16.4875C18.1313 17.1125 17.4938 17.4875 16.7688 17.4875L16.7563 17.5ZM9.99378 4C9.90628 4 9.70628 4.025 9.58128 4.2375L2.80628 15.275C2.68128 15.4875 2.75628 15.675 2.80628 15.75C2.84378 15.825 2.96878 16 3.23128 16H16.7563C17.0148 16 17.1279 15.8302 17.179 15.7535L17.1813 15.75C17.2313 15.675 17.3063 15.4875 17.1813 15.275L10.4188 4.2375C10.2938 4.025 10.0813 4 10.0063 4H9.99378ZM9.99381 12.175C9.58131 12.175 9.24381 11.8375 9.24381 11.425V7.59998C9.24381 7.18748 9.58131 6.84998 9.99381 6.84998C10.4063 6.84998 10.7438 7.18748 10.7438 7.59998V11.425C10.7438 11.8375 10.4063 12.175 9.99381 12.175ZM9.24381 13.725C9.24381 13.3125 9.58131 12.975 9.99381 12.975C10.4063 12.975 10.7438 13.3125 10.7438 13.725C10.7438 14.1375 10.4063 14.475 9.99381 14.475C9.58131 14.475 9.24381 14.1375 9.24381 13.725Z" fill="var(--color-icon-semantic-error)"/>
</svg>
