<svg xmlns="http://www.w3.org/2000/svg" width="512" height="512" viewBox="0 0 512 512"><path d="M256 41c118.327 0 215 96.673 215 215s-96.673 215-215 215S41 374.327 41 256 137.673 41 256 41zm89.241 139.785c-7.04-7.015-18.428-7.015-25.468 0l-59.427 59.212-59.427-59.212c-7.04-7.015-18.428-7.015-25.469 0l-.046.046c-6.982 7.007-6.962 18.349.046 25.331l59.427 59.213-59.427 59.213-.046.046c-6.982 7.007-6.962 18.349.046 25.331 7.04 7.015 18.428 7.015 25.469 0l59.427-59.213 59.427 59.213c7.04 7.015 18.428 7.015 25.468 0l.046-.046c6.982-7.007 6.962-18.349-.046-25.331l-59.427-59.213 59.427-59.213.046-.046c6.982-7.007 6.962-18.349-.046-25.331z"/></svg>