<svg xmlns="http://www.w3.org/2000/svg" width="512" height="512" viewBox="0 0 512 512"><path d="M254.62 41c117.568 0 213.621 94.943 213.621 211.15 0 116.21-96.053 211.152-213.62 211.152C137.052 463.302 41 368.359 41 252.15 41 135.943 137.053 41 254.62 41zm-.416 182.718H228.79c-9.825 0-17.79 7.965-17.79 17.79 0 9.826 7.965 17.79 17.79 17.79h7.624v59.47h-7.624c-9.825 0-17.79 7.965-17.79 17.79s7.965 17.79 17.79 17.79h50.575c9.715 0 17.61-7.787 17.787-17.46l.001-.203-.001-.203c-.174-9.575-7.918-17.322-17.533-17.46h-7.624v-77.514c0-9.825-7.965-17.79-17.79-17.79zm0-74.718c-14.036 0-25.414 11.378-25.414 25.414 0 14.036 11.378 25.415 25.414 25.415 14.036 0 25.415-11.379 25.415-25.415S268.24 149 254.204 149z"/></svg>