<svg xmlns="http://www.w3.org/2000/svg" width="512" height="512" viewBox="0 0 512 512"><path d="M254.62 41c117.568 0 213.621 94.943 213.621 211.15 0 116.21-96.053 211.152-213.62 211.152C137.052 463.302 41 368.359 41 252.15 41 135.943 137.053 41 254.62 41zm-2.693 275.933c-5.685 0-10.648 1.84-14.888 5.522-4.24 3.682-6.361 8.83-6.361 15.448 0 5.872 2.05 10.811 6.151 14.819 4.1 4.007 9.133 6.01 15.098 6.01 5.872 0 10.811-2.003 14.819-6.01 4.007-4.008 6.011-8.947 6.011-14.819 0-6.524-2.097-11.65-6.29-15.378-4.195-3.728-9.041-5.592-14.54-5.592zm-.559-172.063c-5.592 0-10.135 2.004-13.63 6.011-3.495 4.008-5.243 9.74-5.243 17.195V277.26c0 7.549 1.748 13.234 5.243 17.055 3.495 3.821 8.038 5.732 13.63 5.732 5.592 0 10.205-1.91 13.84-5.732 3.635-3.821 5.452-9.133 5.452-15.937v-110.3c0-7.643-1.817-13.421-5.452-17.336-3.635-3.914-8.248-5.871-13.84-5.871z"/></svg>