<svg xmlns="http://www.w3.org/2000/svg" width="167" height="158" fill="none" viewBox="0 0 167 158"><mask id="fs-hga8ozqv8a" width="157" height="158" x="10" y="0" maskUnits="userSpaceOnUse"><path fill="url(#paint0_linear)" d="M88.344 157.342c43.267 0 78.342-35.075 78.342-78.342 0-43.267-35.075-78.342-78.342-78.342C45.077.658 10.002 35.733 10.002 79c0 43.267 35.075 78.342 78.342 78.342z"/></mask><g mask="url(#fs-hga8ozqv8a)"><path fill="url(#paint1_linear)" d="M87.853 156.427c43.539 0 78.833-34.87 78.833-77.885 0-43.014-35.294-77.884-78.833-77.884-43.538 0-78.832 34.87-78.832 77.884 0 43.015 35.294 77.885 78.832 77.885z"/><path fill="#fff" d="M115.781 42.525a6.847 6.847 0 00-6.847 6.847v191.002h197.849V42.524H115.781zm190.421 12.299h-11.815V43.009h11.815v11.815zM208.1 128.812v-11.815h11.815v11.815H208.1zm11.815.581v11.815H208.1v-11.815h11.815zm-12.299-.581h-11.815v-11.815h11.815v11.815zm0 .581v11.815h-11.815v-11.815h11.815zm-12.396 11.815h-11.814v-11.815h11.814v11.815zm0 .484v11.815h-11.814v-11.815h11.814zm.581 0h11.815v11.815h-11.815v-11.815zm11.815 12.299v11.815h-11.815v-11.815h11.815zm.484 0h11.815v11.815H208.1v-11.815zm0-.484v-11.815h11.815v11.815H208.1zm12.299-11.815h11.815v11.815h-11.815v-11.815zm0-.484v-11.815h11.815v11.815h-11.815zm0-12.396v-11.815h11.815v11.815h-11.815zm0-12.299v-11.815h11.815v11.815h-11.815zm-.484 0H208.1v-11.815h11.815v11.815zm-12.299 0h-11.815v-11.815h11.815v11.815zm-12.396 0h-11.814v-11.815h11.814v11.815zm0 .484v11.815h-11.814v-11.815h11.814zm-12.299 11.815h-11.814v-11.815h11.814v11.815zm0 .581v11.815h-11.814v-11.815h11.814zm0 12.299v11.815h-11.814v-11.815h11.814zm0 12.299v11.815h-11.814v-11.815h11.814zm.485 0h11.814v11.815h-11.814v-11.815zm11.814 12.396v11.814h-11.814v-11.814h11.814zm.581 0h11.815v11.814h-11.815v-11.814zm12.299 0h11.815v11.814H208.1v-11.814zm12.299 0h11.815v11.814h-11.815v-11.814zm0-.581v-11.815h11.815v11.815h-11.815zm12.396-11.815h11.815v11.815h-11.815v-11.815zm0-.484v-11.815h11.815v11.815h-11.815zm0-12.299v-11.815h11.815v11.815h-11.815zm0-12.396v-11.815h11.815v11.815h-11.815zm0-12.299v-11.815h11.815v11.815h-11.815zm0-12.299V92.399h11.815v11.815h-11.815zm-.581 0h-11.815V92.399h11.815v11.815zm-12.299 0H208.1V92.399h11.815v11.815zm-12.299 0h-11.815V92.399h11.815v11.815zm-12.396 0h-11.814V92.399h11.814v11.815zm-12.299 0h-11.814V92.399h11.814v11.815zm0 .484v11.815h-11.814v-11.815h11.814zm-12.299 11.815h-11.814v-11.815h11.814v11.815zm0 .484v11.815h-11.814v-11.815h11.814zm0 12.396v11.815h-11.814v-11.815h11.814zm0 12.299v11.815h-11.814v-11.815h11.814zm0 12.299v11.815h-11.814v-11.815h11.814zm0 12.396v11.814h-11.814v-11.814h11.814zm.485 0h11.814v11.814h-11.814v-11.814zm11.814 12.299V190.5h-11.814v-11.814h11.814zm.485 0h11.814V190.5h-11.814v-11.814zm12.395 0h11.815V190.5h-11.815v-11.814zm12.299 0h11.815V190.5H208.1v-11.814zm12.299 0h11.815V190.5h-11.815v-11.814zm12.396 0h11.815V190.5h-11.815v-11.814zm0-.485v-11.814h11.815v11.814h-11.815zm12.299-11.814h11.815v11.814h-11.815v-11.814zm0-.581v-11.815h11.815v11.815h-11.815zm0-12.299v-11.815h11.815v11.815h-11.815zm0-12.299v-11.815h11.815v11.815h-11.815zm0-12.396v-11.815h11.815v11.815h-11.815zm0-12.299v-11.815h11.815v11.815h-11.815zm0-12.299V92.399h11.815v11.815h-11.815zm0-12.396V80.003h11.815v11.815h-11.815zm-.484 0h-11.815V80.003h11.815v11.815zm-12.396 0h-11.815V80.003h11.815v11.815zm-12.299 0H208.1V80.003h11.815v11.815zm-12.299 0h-11.815V80.003h11.815v11.815zm-12.396 0h-11.814V80.003h11.814v11.815zm-12.299 0h-11.814V80.003h11.814v11.815zm-12.299 0h-11.814V80.003h11.814v11.815zm0 .58v11.816h-11.814V92.399h11.814zm-12.395 11.816h-11.815V92.399h11.815v11.815zm0 .484v11.815h-11.815v-11.815h11.815zm0 12.299v11.815h-11.815v-11.815h11.815zm0 12.396v11.815h-11.815v-11.815h11.815zm0 12.299v11.815h-11.815v-11.815h11.815zm0 12.299v11.815h-11.815v-11.815h11.815zm0 12.396v11.814h-11.815v-11.814h11.815zm0 12.299V190.5h-11.815v-11.814h11.815zm.581 0h11.814V190.5h-11.814v-11.814zm11.814 12.299v11.814h-11.814v-11.814h11.814zm.485 0h11.814v11.814h-11.814v-11.814zm12.299 0h11.814v11.814h-11.814v-11.814zm12.395 0h11.815v11.814h-11.815v-11.814zm12.299 0h11.815v11.814H208.1v-11.814zm12.299 0h11.815v11.814h-11.815v-11.814zm12.396 0h11.815v11.814h-11.815v-11.814zm12.299 0h11.815v11.814h-11.815v-11.814zm0-.485v-11.814h11.815V190.5h-11.815zm12.299-11.814h11.815V190.5h-11.815v-11.814zm0-.485v-11.814h11.815v11.814h-11.815zm0-12.395v-11.815h11.815v11.815h-11.815zm0-12.299v-11.815h11.815v11.815h-11.815zm0-12.299v-11.815h11.815v11.815h-11.815zm0-12.396v-11.815h11.815v11.815h-11.815zm0-12.299v-11.815h11.815v11.815h-11.815zm0-12.299V92.399h11.815v11.815h-11.815zm0-12.396V80.003h11.815v11.815h-11.815zm0-12.3V67.705h11.815v11.815h-11.815zm-.484 0h-11.815V67.705h11.815v11.815zm-12.299 0h-11.815V67.705h11.815v11.815zm-12.396 0h-11.815V67.705h11.815v11.815zm-12.299 0H208.1V67.705h11.815v11.815zm-12.299 0h-11.815V67.705h11.815v11.815zm-12.396 0h-11.814V67.705h11.814v11.815zm-12.299 0h-11.814V67.705h11.814v11.815zm-12.299 0h-11.814V67.705h11.814v11.815zm-12.395 0h-11.815V67.705h11.815v11.815zm0 .485v11.815h-11.815V80.003h11.815zm-12.3 11.815h-11.814V80.003h11.814v11.815zm0 .58v11.816h-11.814V92.399h11.814zm0 12.3v11.815h-11.814v-11.815h11.814zm0 12.299v11.815h-11.814v-11.815h11.814zm0 12.396v11.815h-11.814v-11.815h11.814zm0 12.299v11.815h-11.814v-11.815h11.814zm0 12.299v11.815h-11.814v-11.815h11.814zm0 12.396v11.814h-11.814v-11.814h11.814zm0 12.299V190.5h-11.814v-11.814h11.814zm0 12.299v11.814h-11.814v-11.814h11.814zm.485 0h11.815v11.814h-11.815v-11.814zm11.815 12.396v11.814h-11.815v-11.814h11.815zm.581 0h11.814v11.814h-11.814v-11.814zm12.299 0h11.814v11.814h-11.814v-11.814zm12.299 0h11.814v11.814h-11.814v-11.814zm12.395 0h11.815v11.814h-11.815v-11.814zm12.299 0h11.815v11.814H208.1v-11.814zm12.299 0h11.815v11.814h-11.815v-11.814zm12.396 0h11.815v11.814h-11.815v-11.814zm12.299 0h11.815v11.814h-11.815v-11.814zm12.299 0h11.815v11.814h-11.815v-11.814zm0-.582v-11.814h11.815v11.814h-11.815zm12.396-11.814h11.815v11.814h-11.815v-11.814zm0-.485v-11.814h11.815V190.5h-11.815zm0-12.299v-11.814h11.815v11.814h-11.815zm0-12.395v-11.815h11.815v11.815h-11.815zm0-12.299v-11.815h11.815v11.815h-11.815zm0-12.299v-11.815h11.815v11.815h-11.815zm0-12.396v-11.815h11.815v11.815h-11.815zm0-12.299v-11.815h11.815v11.815h-11.815zm0-12.299V92.399h11.815v11.815h-11.815zm0-12.396V80.003h11.815v11.815h-11.815zm0-12.3V67.705h11.815v11.815h-11.815zm0-12.298V55.405h11.815V67.22h-11.815zm-.581 0h-11.815V55.405h11.815V67.22zm-12.299 0h-11.815V55.405h11.815V67.22zm-12.299 0h-11.815V55.405h11.815V67.22zm-12.396 0h-11.815V55.405h11.815V67.22zm-12.299 0H208.1V55.405h11.815V67.22zm-12.299 0h-11.815V55.405h11.815V67.22zm-12.396 0h-11.814V55.405h11.814V67.22zm-12.299 0h-11.814V55.405h11.814V67.22zm-12.299 0h-11.814V55.405h11.814V67.22zm-12.395 0h-11.815V55.405h11.815V67.22zm-12.3 0h-11.814V55.405h11.814V67.22zm0 .484v11.815h-11.814V67.704h11.814zm-12.299 11.815h-11.814V67.704h11.814v11.815zm0 .484v11.815h-11.814V80.003h11.814zm0 12.396v11.815h-11.814V92.399h11.814zm0 12.299v11.815h-11.814v-11.815h11.814zm0 12.299v11.815h-11.814v-11.815h11.814zm0 12.396v11.815h-11.814v-11.815h11.814zm0 12.299v11.815h-11.814v-11.815h11.814zm0 12.299v11.815h-11.814v-11.815h11.814zm0 12.396v11.814h-11.814v-11.814h11.814zm0 12.299V190.5h-11.814v-11.814h11.814zm0 12.299v11.814h-11.814v-11.814h11.814zm0 12.396v11.814h-11.814v-11.814h11.814zm.485 0h11.814v11.814h-11.814v-11.814zm11.814 12.299v11.814h-11.814V215.68h11.814zm.485 0h11.815v11.814h-11.815V215.68zm12.396 0h11.814v11.814h-11.814V215.68zm12.299 0h11.814v11.814h-11.814V215.68zm12.299 0h11.814v11.814h-11.814V215.68zm12.395 0h11.815v11.814h-11.815V215.68zm12.299 0h11.815v11.814H208.1V215.68zm12.299 0h11.815v11.814h-11.815V215.68zm12.396 0h11.815v11.814h-11.815V215.68zm12.299 0h11.815v11.814h-11.815V215.68zm12.299 0h11.815v11.814h-11.815V215.68zm12.396 0h11.815v11.814h-11.815V215.68zm0-.485v-11.814h11.815v11.814h-11.815zm12.299-11.814h11.815v11.814h-11.815v-11.814zm0-.582v-11.814h11.815v11.814h-11.815zm0-12.299v-11.814h11.815V190.5h-11.815zm0-12.299v-11.814h11.815v11.814h-11.815zm0-12.395v-11.815h11.815v11.815h-11.815zm0-12.299v-11.815h11.815v11.815h-11.815zm0-12.299v-11.815h11.815v11.815h-11.815zm0-12.396v-11.815h11.815v11.815h-11.815zm0-12.299v-11.815h11.815v11.815h-11.815zm0-12.299V92.399h11.815v11.815h-11.815zm0-12.396V80.003h11.815v11.815h-11.815zm0-12.3V67.705h11.815v11.815h-11.815zm0-12.298V55.405h11.815V67.22h-11.815zm0-12.396V43.009h11.815v11.815h-11.815zm-.484 0h-11.815V43.009h11.815v11.815zm-12.396 0h-11.815V43.009h11.815v11.815zm-12.299 0h-11.815V43.009h11.815v11.815zm-12.299 0h-11.815V43.009h11.815v11.815zm-12.396 0h-11.815V43.009h11.815v11.815zm-12.299 0H208.1V43.009h11.815v11.815zm-12.299 0h-11.815V43.009h11.815v11.815zm-12.396 0h-11.814V43.009h11.814v11.815zm-12.299 0h-11.814V43.009h11.814v11.815zm-12.299 0h-11.814V43.009h11.814v11.815zm-12.395 0h-11.815V43.009h11.815v11.815zm-12.3 0h-11.814V43.009h11.814v11.815zm-12.299 0h-11.814V43.009h11.814v11.815zm0 .581V67.22h-11.814V55.405h11.814zM121.233 67.22h-11.815V55.405h11.815V67.22zm0 .484v11.815h-11.815V67.704h11.815zm0 12.299v11.815h-11.815V80.003h11.815zm0 12.396v11.815h-11.815V92.399h11.815zm0 12.299v11.815h-11.815v-11.815h11.815zm0 12.299v11.815h-11.815v-11.815h11.815zm0 12.396v11.815h-11.815v-11.815h11.815zm0 12.299v11.815h-11.815v-11.815h11.815zm0 12.299v11.815h-11.815v-11.815h11.815zm0 12.396v11.814h-11.815v-11.814h11.815zm0 12.299V190.5h-11.815v-11.814h11.815zm0 12.299v11.814h-11.815v-11.814h11.815zm0 12.396v11.814h-11.815v-11.814h11.815zm0 12.299v11.814h-11.815V215.68h11.815zm.581 0h11.814v11.814h-11.814V215.68zm11.814 12.299v11.814h-11.814v-11.814h11.814zm.485 0h11.814v11.814h-11.814v-11.814zm12.299 0h11.815v11.814h-11.815v-11.814zm12.396 0h11.814v11.814h-11.814v-11.814zm12.299 0h11.814v11.814h-11.814v-11.814zm12.299 0h11.814v11.814h-11.814v-11.814zm12.395 0h11.815v11.814h-11.815v-11.814zm12.299 0h11.815v11.814H208.1v-11.814zm12.299 0h11.815v11.814h-11.815v-11.814zm12.396 0h11.815v11.814h-11.815v-11.814zm12.299 0h11.815v11.814h-11.815v-11.814zm12.299 0h11.815v11.814h-11.815v-11.814zm12.396 0h11.815v11.814h-11.815v-11.814zm12.299 0h11.815v11.814h-11.815v-11.814zm0-.485V215.68h11.815v11.814h-11.815zm12.299-11.814h11.815v11.814h-11.815V215.68zm0-.485v-11.814h11.815v11.814h-11.815zm0-12.396v-11.814h11.815v11.814h-11.815zm0-12.299v-11.814h11.815V190.5h-11.815zm0-12.299v-11.814h11.815v11.814h-11.815zm0-12.395v-11.815h11.815v11.815h-11.815zm0-12.299v-11.815h11.815v11.815h-11.815zm0-12.299v-11.815h11.815v11.815h-11.815zm0-12.396v-11.815h11.815v11.815h-11.815zm0-12.299v-11.815h11.815v11.815h-11.815zm0-12.299V92.399h11.815v11.815h-11.815zm0-12.396V80.003h11.815v11.815h-11.815zm0-12.3V67.705h11.815v11.815h-11.815zm0-12.298V55.405h11.815V67.22h-11.815zM121.233 43.01v11.814h-11.815v-4.968a6.847 6.847 0 016.847-6.847h4.968zm-11.815 184.969h11.815v11.814h-11.815v-11.814zm184.969 11.814v-11.814h11.815v11.814h-11.815z"/><path fill="url(#paint2_linear)" d="M8.224 106.891h160.239v53.413H8.224z"/></g><path fill="url(#paint3_radial)" d="M10.002 96.928c5.524 0 10.002-4.478 10.002-10.002 0-5.524-4.478-10.002-10.002-10.002C4.478 76.924 0 81.402 0 86.926c0 5.524 4.478 10.002 10.002 10.002z"/><path fill="url(#paint4_radial)" d="M4.217 86.438c-1.812-1.115-2.265-3.66-1.01-5.646 1.22-1.986 3.694-2.718 5.506-1.603 1.812 1.115 2.265 3.66 1.01 5.646-1.254 2.021-3.728 2.718-5.506 1.603z" opacity=".5"/><path fill="url(#paint5_radial)" d="M156.91 49.97a7.634 7.634 0 100-15.27 7.634 7.634 0 000 15.27z"/><g filter="url(#filter0_i)"><path fill="url(#paint6_linear)" d="M144.039 101.156c-.061-.016-.128-.028-.17-.075-.753-.854 1.562-11.034 1.783-11.799 1.131-3.905 3.004-7.705 6.016-10.493 2.132-1.973 7.827-5.834 10.783-3.564 2.49 1.915.157 6.724-.991 8.735-2.059 3.575-5.092 6.472-7.682 9.643-1.546 1.897-3.098 3.83-4.644 5.727-.093.121-.783 1.098-1.35 1.816-.448.567-1.099.681-1.799.503l-1.946-.493z"/></g><g filter="url(#filter1_i)"><path fill="url(#paint7_linear)" d="M147.405 104.28c1.264.272 2.39-.803 2.127-2.068-1.452-6.965-6.263-25.122-16.452-21.814-9.26 3.04 10.641 20.948 13.524 23.484.231.204.5.333.801.398z"/></g><path fill="#77FFE4" fill-opacity=".2" d="M135.854 84.02s11.916 15.552 12.052 18.843l-12.052-18.844zM158.928 78.293s-9.791 12.49-10.856 18.035l10.856-18.035z"/><g filter="url(#filter2_d)"><path fill="#647A8E" d="M30.625 116.884V53.026c0-4.087 3.296-7.663 7.063-7.663h84.762c3.767 0 7.063 3.576 7.063 7.663v63.858"/></g><g filter="url(#filter3_ii)"><path fill="#92A2B1" d="M92.613 110.553a3.33 3.33 0 01-3.331 3.33H70.855a3.33 3.33 0 01-3.33-3.33H22.366v6.661c0 1.999 2.007 3.331 5.018 3.331h105.369c3.011 0 5.018-1.332 5.018-3.331v-6.661H92.613z"/></g><path fill="url(#paint8_linear)" d="M135.344 101.773a2.95 2.95 0 012.937-3.233h15.38a2.95 2.95 0 012.937 3.233l-1.741 18.059a2.95 2.95 0 01-2.937 2.667h-11.898a2.95 2.95 0 01-2.937-2.667l-1.741-18.059z"/><g filter="url(#filter4_i)"><rect width="23.458" height="5.775" x="134.243" y="98.54" fill="url(#paint9_linear)" rx="1.475"/></g><path stroke="#CFD7DF" stroke-linecap="round" stroke-width="2.633" d="M66.322 76.356l-4.037 1.852a.092.092 0 00.001.167l18.746 8.15c.023.01.05.01.073 0l18.743-8.15a.092.092 0 00.002-.167l-4.118-1.852"/><path stroke="#CFD7DF" stroke-linecap="round" stroke-width="2.633" d="M66.322 85.257l-4.037 1.851a.092.092 0 00.001.167l18.746 8.15c.023.01.05.01.073 0l18.743-8.149a.092.092 0 00.002-.167l-4.118-1.852M81.106 78.038a.092.092 0 01-.073 0l-18.74-8.147a.092.092 0 010-.169l18.74-8.147c.023-.01.05-.01.073 0l18.74 8.147a.092.092 0 010 .169l-18.74 8.147z"/><defs><linearGradient id="paint2_linear" x1="78.709" x2="100.807" y1="106.891" y2="174.014" gradientUnits="userSpaceOnUse"><stop stop-color="#7FD3E9"/><stop offset="1" stop-color="#7FD3E9" stop-opacity="0"/></linearGradient><linearGradient id="paint9_linear" x1="157.7" x2="135.917" y1="102.341" y2="102.341" gradientUnits="userSpaceOnUse"><stop offset=".099" stop-color="#FFEEC5"/><stop offset=".607" stop-color="#FCBD27"/><stop offset=".984" stop-color="#EFB222"/></linearGradient><linearGradient id="paint8_linear" x1="156.91" x2="136.593" y1="114.312" y2="114.312" gradientUnits="userSpaceOnUse"><stop offset=".099" stop-color="#FFEEC5"/><stop offset=".607" stop-color="#FACD63"/><stop offset=".839" stop-color="#EAAF23"/><stop offset=".984" stop-color="#EDB52F"/></linearGradient><linearGradient id="paint7_linear" x1="156.603" x2="143.167" y1="82.658" y2="105.286" gradientUnits="userSpaceOnUse"><stop stop-color="#B7FDEF"/><stop offset=".682" stop-color="#09B794"/><stop offset=".969" stop-color="#7EE0CC"/></linearGradient><linearGradient id="paint6_linear" x1="166.432" x2="144.338" y1="74.958" y2="94.799" gradientUnits="userSpaceOnUse"><stop stop-color="#BAFFF1" stop-opacity=".26"/><stop offset=".682" stop-color="#4DC7AE"/><stop offset=".969" stop-color="#06896F"/></linearGradient><linearGradient id="paint0_linear" x1="88.344" x2="88.344" y1=".658" y2="157.342" gradientUnits="userSpaceOnUse"><stop stop-color="#B5EFFF"/><stop offset="1" stop-color="#E7F8FE"/></linearGradient><linearGradient id="paint1_linear" x1="87.853" x2="87.853" y1=".658" y2="156.427" gradientUnits="userSpaceOnUse"><stop stop-color="#B5EFFF"/><stop offset="1" stop-color="#EDFBFF"/></linearGradient><filter id="filter1_i" width="20.343" height="24.864" x="130.643" y="79.459" color-interpolation-filters="sRGB" filterUnits="userSpaceOnUse"><feFlood flood-opacity="0" result="BackgroundImageFix"/><feBlend in="SourceGraphic" in2="BackgroundImageFix" result="shape"/><feColorMatrix in="SourceAlpha" result="hardAlpha" values="0 0 0 0 0 0 0 0 0 0 0 0 0 0 0 0 0 0 127 0"/><feOffset dx="1.415" dy="-.541"/><feGaussianBlur stdDeviation="1.844"/><feComposite in2="hardAlpha" k2="-1" k3="1" operator="arithmetic"/><feColorMatrix values="0 0 0 0 0.0996528 0 0 0 0 0.683333 0 0 0 0 0.555806 0 0 0 1 0"/><feBlend in2="shape" result="effect1_innerShadow"/></filter><filter id="filter4_i" width="24.048" height="6.218" x="134.243" y="98.097" color-interpolation-filters="sRGB" filterUnits="userSpaceOnUse"><feFlood flood-opacity="0" result="BackgroundImageFix"/><feBlend in="SourceGraphic" in2="BackgroundImageFix" result="shape"/><feColorMatrix in="SourceAlpha" result="hardAlpha" values="0 0 0 0 0 0 0 0 0 0 0 0 0 0 0 0 0 0 127 0"/><feOffset dx=".59" dy="-.443"/><feGaussianBlur stdDeviation=".516"/><feComposite in2="hardAlpha" k2="-1" k3="1" operator="arithmetic"/><feColorMatrix values="0 0 0 0 0.833333 0 0 0 0 0.604343 0 0 0 0 0.0555555 0 0 0 1 0"/><feBlend in2="shape" result="effect1_innerShadow"/></filter><filter id="filter3_ii" width="116.203" height="12.392" x="21.568" y="109.153" color-interpolation-filters="sRGB" filterUnits="userSpaceOnUse"><feFlood flood-opacity="0" result="BackgroundImageFix"/><feBlend in="SourceGraphic" in2="BackgroundImageFix" result="shape"/><feColorMatrix in="SourceAlpha" result="hardAlpha" values="0 0 0 0 0 0 0 0 0 0 0 0 0 0 0 0 0 0 127 0"/><feOffset dx="-.799" dy="-1.4"/><feGaussianBlur stdDeviation="1.198"/><feComposite in2="hardAlpha" k2="-1" k3="1" operator="arithmetic"/><feColorMatrix values="0 0 0 0 0.392157 0 0 0 0 0.478431 0 0 0 0 0.556863 0 0 0 1 0"/><feBlend in2="shape" result="effect1_innerShadow"/><feColorMatrix in="SourceAlpha" result="hardAlpha" values="0 0 0 0 0 0 0 0 0 0 0 0 0 0 0 0 0 0 127 0"/><feOffset dy="1"/><feGaussianBlur stdDeviation=".5"/><feComposite in2="hardAlpha" k2="-1" k3="1" operator="arithmetic"/><feColorMatrix values="0 0 0 0 0.706597 0 0 0 0 0.81502 0 0 0 0 0.916667 0 0 0 1 0"/><feBlend in2="effect1_innerShadow" result="effect2_innerShadow"/></filter><filter id="filter2_d" width="106.874" height="79.506" x="26.632" y="43.766" color-interpolation-filters="sRGB" filterUnits="userSpaceOnUse"><feFlood flood-opacity="0" result="BackgroundImageFix"/><feColorMatrix in="SourceAlpha" values="0 0 0 0 0 0 0 0 0 0 0 0 0 0 0 0 0 0 127 0"/><feOffset dy="2.396"/><feGaussianBlur stdDeviation="1.996"/><feColorMatrix values="0 0 0 0 0 0 0 0 0 0 0 0 0 0 0 0 0 0 0.25 0"/><feBlend in2="BackgroundImageFix" result="effect1_dropShadow"/><feBlend in="SourceGraphic" in2="effect1_dropShadow" result="shape"/></filter><filter id="filter0_i" width="21.253" height="27.736" x="143.719" y="73.99" color-interpolation-filters="sRGB" filterUnits="userSpaceOnUse"><feFlood flood-opacity="0" result="BackgroundImageFix"/><feBlend in="SourceGraphic" in2="BackgroundImageFix" result="shape"/><feColorMatrix in="SourceAlpha" result="hardAlpha" values="0 0 0 0 0 0 0 0 0 0 0 0 0 0 0 0 0 0 127 0"/><feOffset dx="1.415" dy="-.541"/><feGaussianBlur stdDeviation="1.844"/><feComposite in2="hardAlpha" k2="-1" k3="1" operator="arithmetic"/><feColorMatrix values="0 0 0 0 0.113056 0 0 0 0 0.616667 0 0 0 0 0.58645 0 0 0 1 0"/><feBlend in2="shape" result="effect1_innerShadow"/></filter><radialGradient id="paint3_radial" cx="0" cy="0" r="1" gradientTransform="rotate(-15.177 313.7 21.76) scale(19.074)" gradientUnits="userSpaceOnUse"><stop stop-color="#FFF1CF"/><stop offset=".188" stop-color="#FFE4A2"/><stop offset=".318" stop-color="#FFD364"/><stop offset=".49" stop-color="#FFD364"/><stop offset=".651" stop-color="#FFC73A"/><stop offset=".948" stop-color="#D09500"/></radialGradient><radialGradient id="paint4_radial" cx="0" cy="0" r="1" gradientTransform="rotate(121.889 -19.793 43.21) scale(4.17733 3.80431)" gradientUnits="userSpaceOnUse"><stop stop-color="#fff"/><stop offset=".694" stop-color="#fff" stop-opacity="0"/></radialGradient><radialGradient id="paint5_radial" cx="0" cy="0" r="1" gradientTransform="rotate(-15.177 223.953 -555.63) scale(14.5586)" gradientUnits="userSpaceOnUse"><stop stop-color="#E6C6FF"/><stop offset=".188" stop-color="#C07DF5"/><stop offset=".318" stop-color="#BE6FFC"/><stop offset=".49" stop-color="#B56AF0"/><stop offset=".651" stop-color="#A745F4"/><stop offset=".948" stop-color="#9F3DED"/></radialGradient></defs></svg>