<svg width="336" height="200" viewBox="0 0 336 200" fill="none" xmlns="http://www.w3.org/2000/svg">
<circle cx="229.096" cy="47.0964" r="47.0964" fill="#02B190"/>
<path fill-rule="evenodd" clip-rule="evenodd" d="M221.324 38.8742H236.676C239.893 38.8742 242.5 41.5858 242.5 44.9307V49.0417C242.5 52.3866 239.893 55.0982 236.676 55.0982H221.324C218.107 55.0982 215.5 52.3866 215.5 49.0417V44.9307C215.5 41.5858 218.107 38.8742 221.324 38.8742ZM218.5 44.9302C218.5 43.3084 219.764 41.9937 221.324 41.9937H236.676C238.236 41.9937 239.5 43.3084 239.5 44.9302V49.0413C239.5 50.663 238.236 51.9777 236.676 51.9777H221.324C219.764 51.9777 218.5 50.663 218.5 49.0413V44.9302Z" fill="white"/>
<path fill-rule="evenodd" clip-rule="evenodd" d="M205 37.4565V41.6363L206.552 42.5258C208.193 43.4659 209.2 45.1578 209.2 47C209.2 48.8422 208.193 50.5341 206.552 51.4742L205 52.3637V56.5435C205 59.8884 207.607 62.6 210.824 62.6H247.176C250.393 62.6 253 59.8884 253 56.5435V52.3637L251.448 51.4742C249.807 50.5341 248.8 48.8422 248.8 47C248.8 45.1578 249.807 43.4659 251.448 42.5258L253 41.6363V37.4565C253 34.1116 250.393 31.4 247.176 31.4H210.824C207.607 31.4 205 34.1116 205 37.4565ZM208 54.2065C210.511 52.7679 212.2 50.0791 212.2 46.9995C212.2 43.92 210.511 41.2312 208 39.7926V37.456C208 35.8342 209.264 34.5195 210.824 34.5195H247.176C248.736 34.5195 250 35.8342 250 37.456V39.7926C247.489 41.2312 245.8 43.92 245.8 46.9995C245.8 50.0791 247.489 52.7679 250 54.2065V56.5431C250 58.1648 248.736 59.4795 247.176 59.4795H210.824C209.264 59.4795 208 58.1648 208 56.5431V54.2065Z" fill="white"/>
<path d="M145.823 141.854L155.826 157.459C159.594 163.334 165.801 167.194 172.733 167.968C181.628 168.963 190.301 164.732 195.011 157.106L220.475 115.873C218.811 115.736 214.046 115.129 209.628 111.399C205.103 107.575 203.733 102.827 203.343 101.217C193.977 114.645 184.61 128.073 175.243 141.505" fill="white"/>
<path d="M168.92 167.683C163.394 166.138 158.61 162.63 155.453 157.706L145.449 142.1C145.318 141.893 145.377 141.618 145.584 141.487C145.791 141.355 146.066 141.414 146.197 141.621L156.2 157.226C159.909 163.012 165.952 166.77 172.781 167.534C181.461 168.505 190.037 164.321 194.631 156.88L219.723 116.249C217.239 115.947 213.137 114.948 209.342 111.744C205.582 108.568 203.898 104.726 203.163 102.257L175.608 141.765C175.469 141.966 175.191 142.018 174.992 141.874C174.791 141.735 174.744 141.458 174.883 141.257L202.984 100.969C203.083 100.826 203.256 100.754 203.432 100.785C203.608 100.815 203.741 100.95 203.781 101.118C204.323 103.353 205.843 107.616 209.92 111.065C213.915 114.441 218.273 115.253 220.514 115.436C220.667 115.446 220.803 115.54 220.874 115.68C220.946 115.82 220.937 115.983 220.855 116.113L195.39 157.346C190.614 165.078 181.702 169.423 172.686 168.417C171.402 168.275 170.142 168.029 168.923 167.689L168.92 167.683Z" fill="#27313A"/>
<path d="M135.359 87.2644C135.359 87.2644 142.479 91.5918 148.749 95.0954C152.638 97.2681 155.534 100.914 156.935 105.144L160.173 113.222L176.893 144.594" fill="white"/>
<path d="M176.776 145.029C176.665 144.997 176.561 144.922 176.505 144.81L159.786 113.438C159.786 113.438 159.77 113.41 159.765 113.395L156.526 105.316C155.118 101.066 152.282 97.5846 148.532 95.4923C142.329 92.0262 130.127 84.9577 130.056 84.9148C129.848 84.7871 129.781 84.5144 129.908 84.3053C130.036 84.0962 130.313 84.0303 130.517 84.1568C130.588 84.1997 142.779 91.2603 148.965 94.7173C152.906 96.9185 155.888 100.574 157.358 105.013L160.578 113.045L177.289 144.396C177.404 144.613 177.324 144.882 177.108 144.997C177.004 145.055 176.886 145.064 176.779 145.034L176.776 145.029Z" fill="#27313A"/>
<path d="M220.656 115.226C219.368 116.778 213.246 114.378 209.178 110.848C205.396 107.569 202.197 102.282 203.463 100.789C204.715 99.314 210.27 101.615 213.959 104.503C218.333 107.929 221.96 113.646 220.657 115.221L220.656 115.226Z" fill="white"/>
<path d="M217.201 115.821C214.647 115.107 211.344 113.315 208.89 111.188C205.022 107.834 201.587 102.32 203.128 100.505C204.722 98.628 210.672 101.367 214.235 104.16C217.822 106.969 221.082 111.474 221.35 113.997C221.419 114.64 221.3 115.147 220.999 115.516C220.699 115.88 220.22 116.092 219.583 116.145C218.931 116.199 218.115 116.081 217.2 115.825L217.201 115.821ZM206.53 101.055C205.178 100.677 204.159 100.66 203.802 101.078C202.88 102.168 205.562 107.122 209.47 110.514C212.926 113.513 217.535 115.42 219.508 115.256C219.777 115.234 220.134 115.163 220.315 114.946C220.495 114.728 220.497 114.359 220.466 114.092C220.247 112.068 217.411 107.778 213.684 104.861C211.266 102.97 208.526 101.617 206.524 101.058L206.53 101.055Z" fill="#27313A"/>
<path d="M204.452 104.227L213.661 95.2942L221.92 108.631L215.928 114.627C209.538 111.071 206.902 109.157 204.452 104.227Z" fill="white" stroke="#27313A" stroke-width="1.17741" stroke-linejoin="round"/>
<path d="M248.046 106.886C248.2 107.608 247.714 108.308 246.981 108.414C242.945 109.008 238.352 109.433 233.302 109.488C230.543 109.517 227.923 109.433 225.465 109.27C221.214 108.986 217.307 106.63 215.264 102.901C214.621 101.726 214.124 100.384 213.908 98.874C213.698 97.3877 213.803 96.0367 214.028 94.9055C218.355 90.7893 222.681 86.6771 227.009 82.5608C227.738 81.9687 228.816 81.98 229.548 82.652C230.214 83.2664 230.321 84.2786 229.879 85.068L225.936 92.1083L245.064 92.7787C245.791 92.8043 246.385 93.3641 246.447 94.0869C246.512 94.8188 246.009 95.4831 245.286 95.6183L236.656 97.2424L248.788 96.7054C249.513 96.6744 250.165 97.1338 250.375 97.8283C250.652 98.7452 250.058 99.691 249.109 99.8411L237.127 101.722L251.201 100.694C252.127 100.624 252.967 101.253 253.155 102.162C253.377 103.202 252.673 104.212 251.621 104.377L237.933 106.46L246.713 105.882C247.35 105.839 247.919 106.271 248.049 106.891L248.046 106.886Z" fill="#FDFEFF"/>
<path d="M222.744 109.223C223.613 109.466 224.516 109.623 225.435 109.686C228.043 109.857 230.692 109.931 233.303 109.904C237.882 109.855 242.505 109.491 247.039 108.829C247.501 108.759 247.919 108.504 248.187 108.12C248.455 107.736 248.55 107.257 248.452 106.801C248.305 106.115 247.745 105.604 247.08 105.483L251.676 104.782C252.301 104.688 252.843 104.351 253.2 103.832C253.558 103.313 253.685 102.687 253.554 102.07C253.321 100.963 252.292 100.19 251.158 100.271L247.109 100.567L249.165 100.246C249.737 100.155 250.237 99.8237 250.547 99.339C250.853 98.8492 250.931 98.2568 250.765 97.7041C250.501 96.83 249.676 96.2444 248.761 96.2873L242.509 96.5641L245.358 96.028C246.297 95.8494 246.943 95.0001 246.861 94.0513C246.778 93.1197 246.009 92.3941 245.072 92.3615L226.628 91.7135L230.239 85.2685C230.785 84.296 230.612 83.0666 229.828 82.3456C228.955 81.5433 227.657 81.4964 226.743 82.236L213.739 94.6043C213.674 94.6642 213.636 94.7399 213.616 94.8253C213.343 96.2069 213.303 97.5891 213.491 98.9352C213.696 100.377 214.168 101.777 214.895 103.105C216.533 106.094 219.41 108.296 222.747 109.228L222.744 109.223ZM247.636 106.971C247.688 107.206 247.639 107.443 247.5 107.642C247.362 107.842 247.158 107.966 246.918 108.003C242.42 108.662 237.837 109.021 233.293 109.07C230.703 109.099 228.076 109.026 225.49 108.853C221.336 108.579 217.556 106.22 215.628 102.7C214.95 101.463 214.513 100.155 214.319 98.8161C214.149 97.605 214.18 96.3631 214.412 95.1128L227.293 82.8613C227.859 82.4051 228.695 82.4399 229.258 82.9564C229.762 83.4217 229.864 84.2204 229.507 84.8604L225.564 91.9008C225.494 92.0282 225.494 92.1839 225.564 92.3073C225.636 92.4357 225.77 92.5164 225.913 92.5174L245.041 93.1877C245.556 93.2064 245.978 93.6056 246.023 94.1155C246.067 94.6385 245.711 95.1057 245.197 95.2044L236.568 96.8286C236.353 96.868 236.205 97.0691 236.231 97.2882C236.256 97.5073 236.446 97.6684 236.666 97.6565L248.798 97.1195C249.329 97.0951 249.811 97.4374 249.965 97.9433C250.061 98.2645 250.017 98.6111 249.838 98.8942C249.659 99.1773 249.365 99.3723 249.035 99.4226L237.052 101.304C236.83 101.337 236.678 101.541 236.702 101.764C236.727 101.987 236.924 102.15 237.151 102.132L251.225 101.104C251.943 101.049 252.591 101.542 252.742 102.242C252.824 102.632 252.743 103.029 252.518 103.356C252.292 103.682 251.95 103.898 251.552 103.955L237.864 106.039C237.642 106.072 237.485 106.275 237.511 106.494C237.535 106.717 237.73 106.875 237.954 106.864L246.734 106.286C247.159 106.258 247.546 106.548 247.633 106.966L247.636 106.971Z" fill="#27313A"/>
<path d="M236.058 105.963C236.102 105.975 236.149 105.979 236.192 105.978C236.422 105.965 236.599 105.768 236.584 105.539C236.386 102.134 236.064 98.4921 235.071 94.9481C235.007 94.7269 234.778 94.598 234.558 94.6575C234.336 94.721 234.207 94.9489 234.267 95.169C235.237 98.6376 235.553 102.226 235.752 105.583C235.761 105.767 235.889 105.915 236.058 105.963Z" fill="#27313A"/>
<path d="M219.128 100.256C219.273 100.296 219.437 100.255 219.547 100.139C222.675 96.8038 227.542 96.2521 232.249 98.697C232.454 98.8019 232.705 98.7251 232.81 98.5208C232.915 98.3165 232.837 98.0655 232.632 97.9606C227.577 95.336 222.327 95.9537 218.933 99.5736C218.777 99.7421 218.786 100.004 218.954 100.164C219.006 100.213 219.063 100.242 219.127 100.26L219.128 100.256Z" fill="#27313A"/>
<path d="M214.93 94.6327L213.668 95.7182L212.85 96.928L212.993 99.8449L213.261 102.317L213.974 104.914L217.158 107.242L220.811 109.166L222.198 107.635L218.029 104.129L215.217 100.466L214.93 94.6327Z" fill="white"/>
<path d="M87.626 98.8618L90.2732 124.738L87.626 178.996L158.176 177.462L155.084 135.895L146.072 95.9614L128.32 85.5253L87.626 98.8618Z" fill="white"/>
<path d="M135.475 192.708C136.954 192.948 139.135 193.375 141.693 194.176C144.7 195.119 145.313 195.697 148.093 196.729C149.541 197.267 156.559 199.803 162.582 199.447C164.9 199.309 166.872 198.757 167.09 198.695C167.259 198.646 168.227 198.273 170.164 197.525C171.07 197.174 171.532 196.991 171.887 196.56C172.46 195.866 172.171 195.408 172.735 194.789C173.361 194.104 173.988 194.367 174.636 193.735C174.952 193.428 175.302 192.885 175.365 191.845C175.644 191.533 175.986 191.053 175.911 190.532C175.72 189.26 173.148 188.86 168.511 187.632C168.511 187.632 160.286 185.385 159.126 182.89C159.029 182.685 159.055 182.494 159.055 182.494C159.686 182.285 160.512 181.996 161.476 181.64C162.138 181.391 162.822 181.084 164.19 180.474C165.758 179.776 166.184 179.558 166.233 179.175C166.29 178.704 165.74 178.272 165.513 178.094C164.398 177.245 162.626 176.875 158.185 177.463C155.351 177.841 152.371 178.481 152.371 178.481C151.536 178.779 150.248 179.158 148.64 179.26C147.76 179.313 145.651 179.407 143.114 178.628C142.106 178.317 141.293 177.952 140.716 177.663C140.578 179.82 140.152 182.796 138.917 186.128C137.882 188.913 136.59 191.111 135.484 192.712L135.475 192.708Z" fill="white"/>
<path d="M161.383 199.928C156.035 199.928 150.283 198.019 147.943 197.147C146.757 196.707 145.97 196.351 145.215 196.009C144.221 195.559 143.279 195.137 141.564 194.598C139.552 193.971 137.478 193.482 135.408 193.148C135.257 193.126 135.129 193.024 135.071 192.881C135.013 192.739 135.026 192.579 135.115 192.454C136.51 190.439 137.647 188.259 138.5 185.968C139.495 183.295 140.09 180.488 140.272 177.632C140.281 177.485 140.365 177.347 140.494 177.276C140.623 177.2 140.783 177.196 140.916 177.267C141.662 177.645 142.448 177.961 143.243 178.206C145.815 178.993 147.92 178.864 148.609 178.82C149.83 178.744 151.047 178.491 152.215 178.068C152.233 178.063 152.251 178.055 152.273 178.05C152.304 178.046 155.302 177.401 158.123 177.027C162.871 176.395 164.616 176.858 165.78 177.743C166.051 177.948 166.766 178.495 166.673 179.233C166.588 179.896 165.984 180.168 164.372 180.884L163.914 181.088C162.831 181.569 162.231 181.836 161.636 182.058C160.952 182.312 160.263 182.556 159.579 182.792C160.601 184.661 166.437 186.605 168.636 187.205C169.422 187.414 170.15 187.597 170.817 187.766C174.37 188.669 176.155 189.122 176.36 190.47C176.435 190.973 176.249 191.493 175.809 192.027C175.733 192.899 175.445 193.584 174.961 194.06C174.57 194.443 174.17 194.567 173.85 194.665C173.553 194.759 173.317 194.834 173.073 195.097C172.864 195.323 172.82 195.51 172.753 195.768C172.678 196.062 172.589 196.431 172.238 196.849C171.798 197.379 171.247 197.592 170.332 197.948L170.19 198.001C168.076 198.816 167.401 199.078 167.223 199.127C167.001 199.189 164.976 199.754 162.622 199.897C162.218 199.919 161.809 199.932 161.396 199.932L161.383 199.928ZM136.23 192.388C138.118 192.721 139.997 193.179 141.827 193.753C143.594 194.305 144.558 194.741 145.58 195.199C146.326 195.533 147.094 195.884 148.253 196.311C150.723 197.227 157.052 199.323 162.56 199.002C164.816 198.869 166.757 198.326 166.97 198.268C167.112 198.228 168.147 197.828 169.862 197.17L170.004 197.116C170.892 196.774 171.265 196.618 171.545 196.28C171.767 196.013 171.816 195.808 171.883 195.55C171.958 195.239 172.047 194.888 172.407 194.492C172.811 194.051 173.233 193.918 173.57 193.811C173.859 193.722 174.086 193.651 174.325 193.415C174.676 193.073 174.876 192.534 174.921 191.814C174.925 191.711 174.965 191.618 175.036 191.542C175.36 191.182 175.511 190.857 175.471 190.595C175.356 189.834 173.459 189.349 170.59 188.62C169.919 188.451 169.191 188.264 168.396 188.055C167.53 187.819 159.935 185.679 158.718 183.072C158.576 182.765 158.602 182.49 158.607 182.436C158.629 182.267 158.744 182.125 158.909 182.067C159.708 181.8 160.517 181.515 161.316 181.217C161.889 181.004 162.475 180.741 163.546 180.27L164.003 180.065C164.785 179.718 165.762 179.282 165.784 179.118C165.793 179.051 165.758 178.846 165.234 178.446C164.381 177.797 162.942 177.281 158.234 177.903C155.595 178.255 152.793 178.842 152.482 178.909C151.238 179.354 149.955 179.62 148.658 179.701C147.925 179.745 145.704 179.887 142.977 179.051C142.342 178.855 141.711 178.62 141.103 178.339C140.867 181.057 140.272 183.726 139.326 186.275C138.531 188.419 137.492 190.47 136.23 192.383V192.388Z" fill="#27313A"/>
<path d="M163.336 189.461C163.336 189.461 170.323 192.317 175.239 192.015L163.336 189.461Z" fill="white"/>
<path d="M174.475 192.481C169.607 192.481 163.438 189.986 163.167 189.875C162.941 189.781 162.83 189.523 162.923 189.296C163.016 189.069 163.274 188.958 163.5 189.052C163.571 189.078 170.46 191.859 175.208 191.574C175.457 191.561 175.666 191.747 175.679 191.992C175.692 192.237 175.506 192.45 175.261 192.464C175.004 192.481 174.742 192.486 174.475 192.486V192.481Z" fill="#27313A"/>
<path d="M163.185 192.753C163.185 192.753 168.706 195.008 172.588 194.768L163.185 192.753Z" fill="white"/>
<path d="M171.993 195.235C168.129 195.235 163.239 193.255 163.021 193.166C162.795 193.073 162.684 192.815 162.777 192.588C162.87 192.361 163.128 192.25 163.354 192.343C163.407 192.365 168.826 194.554 172.562 194.327C172.819 194.318 173.019 194.501 173.032 194.745C173.046 194.99 172.859 195.204 172.615 195.217C172.411 195.23 172.202 195.235 171.989 195.235H171.993Z" fill="#27313A"/>
<path d="M162.155 196.386C162.155 196.386 165.753 197.961 169.732 197.717L162.155 196.386Z" fill="white"/>
<path d="M168.871 198.188C165.207 198.188 162.115 196.858 161.973 196.796C161.747 196.698 161.644 196.436 161.742 196.209C161.84 195.986 162.102 195.88 162.328 195.977C162.364 195.995 165.882 197.503 169.701 197.272C169.959 197.263 170.159 197.445 170.172 197.69C170.186 197.935 169.999 198.148 169.755 198.162C169.457 198.179 169.16 198.188 168.866 198.188H168.871Z" fill="#27313A"/>
<path d="M100.782 82.928C100.782 82.928 102.949 80.9974 109.128 81.5623C115.306 82.1228 112.095 92.0874 112.095 92.0874C112.095 92.0874 104.153 88.6309 100.782 82.928Z" fill="#27313A"/>
<path d="M104.153 32.7049C104.153 32.7049 99.9821 31.0189 96.451 36.6418C92.92 42.2646 98.4586 50.1428 100.862 56.731C103.349 63.3192 99.1782 73.7641 106.96 74.8896C114.741 76.0951 112.978 64.6048 112.978 64.6048C112.978 64.6048 113.622 33.7503 104.153 32.7049Z" fill="#27313A"/>
<path d="M103.029 85.2536C106.156 91.3258 121.524 98.4566 128.293 95.1025C130.425 94.0438 131.486 91.5927 130.984 89.2617L129.021 80.1157L127.498 72.9626L126.454 67.9803L106.396 62.9179C106.396 71.4367 104.872 80.7562 103.025 85.2581L103.029 85.2536Z" fill="white"/>
<path d="M124.086 96.3753C116.442 96.3753 105.356 90.7347 102.638 85.4588L102.545 85.2764L102.625 85.0851C104.526 80.4454 105.96 70.9168 105.96 62.914V62.3446L126.84 67.6161L127.942 72.8697L131.428 89.1688C131.983 91.7667 130.78 94.3691 128.497 95.5034C127.275 96.1084 125.77 96.3798 124.091 96.3798L124.086 96.3753ZM103.522 85.2275C106.818 91.184 121.848 97.8033 128.097 94.7027C130.016 93.7507 131.024 91.5532 130.553 89.3512L127.067 73.0521L126.081 68.3412L106.844 63.4834C106.782 71.4684 105.41 80.4721 103.522 85.223V85.2275Z" fill="#27313A"/>
<path d="M110.571 70.8725C118.837 82.3629 126.779 84.2134 129.506 83.3282L127.498 73.2035L110.571 70.8725Z" fill="#27313A"/>
<path d="M102.23 33.1051C102.23 33.1051 99.5027 25.0712 108.328 21.6147C117.877 17.9181 124.535 22.4199 124.535 22.4199C124.535 22.4199 137.691 19.3683 140.178 23.0649C142.666 26.7616 137.931 31.1789 137.931 31.1789C137.931 31.1789 144.913 32.0642 145.952 36.4815C146.996 40.8988 140.738 42.9095 140.738 42.9095C140.738 42.9095 145.233 48.212 142.666 50.7032C138.171 55.1205 134.24 51.8286 134.24 51.8286L102.23 33.1051Z" fill="#27313A"/>
<path d="M104.637 57.2111C104.637 58.0162 104.717 58.817 104.797 59.5421C105.037 61.228 105.441 62.6738 106.24 64.204C107.204 66.2147 108.648 68.221 110.651 70.9524C113.778 75.2095 118.996 76.8999 124.051 76.8999C137.451 77.0601 138.735 67.9007 137.771 54.0794C137.127 45.4805 139.614 40.7384 137.531 37.3665C137.371 37.2064 137.211 37.0462 137.131 36.8861C133.68 33.3496 128.865 31.3433 123.895 31.1832H120.364C120.125 31.1832 119.885 31.1832 119.72 31.2632H119.241C118.921 31.2632 118.517 31.3433 118.197 31.3433C107.284 32.7891 104.557 39.2971 104.157 45.8052C103.837 50.1425 104.637 54.4842 104.637 57.2155V57.2111Z" fill="white"/>
<path d="M124.393 77.3446C124.278 77.3446 124.162 77.3446 124.042 77.3446C115.994 77.3446 111.975 73.5056 110.291 71.2191C108.226 68.4077 106.8 66.4148 105.836 64.3996C105.068 62.9405 104.624 61.5037 104.353 59.6086C104.273 58.8835 104.189 58.0517 104.189 57.2154C104.189 56.2234 104.082 55.0312 103.958 53.6477C103.744 51.2544 103.5 48.5453 103.709 45.7739C104.251 36.9838 108.968 32.1172 118.135 30.9028H118.193C118.339 30.9028 118.504 30.8805 118.664 30.8627C118.855 30.8405 119.05 30.8182 119.232 30.8182H119.627C119.854 30.7382 120.112 30.7382 120.356 30.7382H123.887C129.048 30.9028 133.983 33.0336 137.443 36.579L137.522 36.6902C137.571 36.7881 137.713 36.9304 137.842 37.055L137.904 37.135C139.144 39.1368 138.886 41.4812 138.531 44.7197C138.26 47.1885 137.927 50.2624 138.206 54.0481C138.833 63.0428 138.491 69.8401 134.782 73.7725C132.517 76.1791 129.11 77.3491 124.389 77.3491L124.393 77.3446ZM118.224 31.7835C109.443 32.9535 105.112 37.4197 104.597 45.8318C104.397 48.5364 104.637 51.2099 104.846 53.5676C104.97 54.9733 105.081 56.1878 105.081 57.2154C105.081 58.0072 105.161 58.8079 105.241 59.4974C105.494 61.2679 105.912 62.6202 106.636 63.9993C107.578 65.9566 108.981 67.9228 111.015 70.6942C112.596 72.8472 116.394 76.4594 124.056 76.4594C128.702 76.5083 132.006 75.4362 134.151 73.1631C137.638 69.4664 137.944 62.8738 137.332 54.1148C137.043 50.2491 137.385 47.1307 137.656 44.6262C137.989 41.5879 138.229 39.3815 137.18 37.6466C137.029 37.4954 136.878 37.3352 136.772 37.1573C133.476 33.8031 128.777 31.788 123.878 31.6279H120.36C120.218 31.6279 119.983 31.6278 119.916 31.6634L119.823 31.7124H119.237C119.09 31.7124 118.926 31.7302 118.766 31.748C118.588 31.7658 118.402 31.788 118.228 31.7924L118.224 31.7835Z" fill="#27313A"/>
<path d="M124.051 60.8274C126.219 63.0783 129.186 63.6388 132.073 62.4333C132.632 62.1931 132.233 61.3879 131.673 61.6281C129.266 62.6735 126.618 62.1886 124.775 60.2625C124.376 59.782 123.652 60.3425 124.051 60.823V60.8274Z" fill="#27313A"/>
<path d="M129.585 66.3755C128.382 66.7759 127.178 66.7759 126.214 65.8951C125.735 65.4146 126.454 64.6895 126.938 65.17C127.662 65.815 128.542 65.6504 129.346 65.3301C129.905 65.17 130.149 66.2154 129.585 66.3755Z" fill="#27313A"/>
<path d="M129.585 50.9436C129.585 51.5041 129.505 52.2292 129.665 52.7897C129.905 53.5949 130.145 53.4348 130.709 53.9152C131.189 54.3155 131.513 54.9606 131.513 55.5211C131.593 57.0469 130.149 58.0923 128.706 57.9321C128.146 57.8521 128.226 56.9668 128.786 57.0469C130.229 57.2871 131.113 55.6812 130.07 54.7159C129.75 54.3956 129.266 54.3155 129.026 53.9908C128.546 53.2657 128.786 51.7399 128.706 50.9392C128.626 50.2941 129.51 50.3787 129.59 50.9392L129.585 50.9436Z" fill="#27313A"/>
<path d="M125.015 46.8459C124.211 46.5256 123.007 46.5256 122.608 47.4909C122.368 48.0514 121.804 48.4562 121.164 48.2961C120.605 48.1359 120.12 47.4108 120.36 46.8503C121.244 44.7596 123.572 43.7186 125.735 44.5994C126.294 44.8396 126.698 45.4046 126.538 46.0452C126.299 46.6057 125.655 47.0905 125.015 46.8503V46.8459Z" fill="#27313A"/>
<path d="M134.8 49.0974C134.48 48.1321 133.836 47.4915 132.792 47.4114C131.269 47.2513 131.509 44.9203 133.032 45.0805C134.875 45.2406 136.323 46.3661 136.963 48.1321C137.442 49.5778 135.279 50.5432 134.795 49.0974H134.8Z" fill="#27313A"/>
<path d="M124.291 51.5885C124.869 51.5885 125.335 51.0858 125.335 50.463C125.335 49.8402 124.869 49.3375 124.291 49.3375C123.714 49.3375 123.247 49.8402 123.247 50.463C123.247 51.0858 123.714 51.5885 124.291 51.5885Z" fill="#27313A"/>
<path d="M132.797 51.9086C133.374 51.9086 133.841 51.406 133.841 50.7832C133.841 50.1604 133.374 49.6577 132.797 49.6577C132.219 49.6577 131.753 50.1604 131.753 50.7832C131.753 51.406 132.219 51.9086 132.797 51.9086Z" fill="#27313A"/>
<path d="M109.447 60.9078C107.52 60.9878 105.996 60.4273 104.793 59.462C105.032 61.148 105.437 62.5937 106.236 64.124C107.52 63.479 108.643 62.438 109.447 60.9078Z" fill="#27313A"/>
<path d="M107.12 45.5428C112.494 46.9885 113.058 56.0678 115.785 54.4619C118.513 52.8561 113.298 37.9893 120.36 38.3897C127.422 38.71 126.538 40.0756 129.745 40.3203C135.199 40.6406 135.199 37.9092 137.447 37.2687C137.314 37.1085 137.18 36.9484 137.047 36.7882C133.596 33.2517 128.786 31.2455 123.811 31.0809H120.28C120.04 31.0809 119.801 31.0809 119.641 31.1609H119.161C118.841 31.1609 118.437 31.241 118.117 31.241C107.284 32.6868 104.557 39.1949 104.157 45.7029C104.961 45.3026 106.001 45.2225 107.124 45.5428H107.12Z" fill="#27313A"/>
<path d="M113.702 57.616C114.426 55.4451 114.022 53.1141 112.739 51.1879C111.135 48.6968 108.084 45.0001 105.277 45.4005C101.106 46.0455 100.622 49.7377 101.026 53.5945C101.426 57.3713 103.993 62.3536 109.208 61.5484C111.855 61.068 113.138 59.3775 113.702 57.6115V57.616Z" fill="white"/>
<path d="M108.106 62.0827C106.645 62.0827 105.33 61.6334 104.175 60.7437C101.897 58.9866 100.831 55.926 100.586 53.644C100.235 50.2765 100.333 45.7124 105.214 44.9606C108.568 44.4801 111.855 48.9864 113.116 50.9438C114.502 53.0256 114.875 55.5079 114.129 57.7499C113.609 59.378 112.352 61.4288 109.292 61.9893C108.888 62.0515 108.492 62.0827 108.11 62.0827H108.106ZM105.699 45.8147C105.579 45.8147 105.459 45.8236 105.339 45.8414C102.159 46.3307 100.964 48.7106 101.466 53.5505C101.688 55.6458 102.661 58.4527 104.713 60.0364C105.97 61.0062 107.462 61.3665 109.141 61.1085C111.237 60.7259 112.636 59.5026 113.28 57.4741C113.938 55.4901 113.605 53.2881 112.37 51.4286C110.584 48.6528 107.942 45.8102 105.699 45.8102V45.8147Z" fill="#27313A"/>
<path d="M108.728 56.9712C108.888 55.3653 109.048 53.6749 108.408 52.1491C107.848 50.7834 106.32 48.7727 104.557 49.4177C103.998 49.5779 103.593 48.7727 104.157 48.5325C105.841 47.972 107.449 48.9329 108.488 50.2985C109.931 52.2292 110.011 54.7159 109.692 57.0468C109.612 57.6919 108.648 57.5273 108.728 56.9668V56.9712Z" fill="#27313A"/>
<path d="M156.204 195.66C155.959 195.66 155.759 195.46 155.759 195.215C155.759 195.166 155.759 195.162 155.724 195.091C155.715 195.073 155.706 195.051 155.702 195.033C155.595 194.721 155.422 194.21 155.706 193.449C155.711 193.436 155.719 193.423 155.724 193.405C155.879 193.098 156.035 192.697 156.19 192.315C156.483 191.728 156.808 191.011 156.883 190.415C156.95 190.019 156.892 189.397 156.825 188.676L156.803 188.422C156.785 188.236 156.768 188.049 156.75 187.862C156.67 187.039 156.586 186.185 156.728 185.406C156.772 185.166 157.003 185.002 157.243 185.051C157.483 185.095 157.643 185.326 157.598 185.567C157.478 186.22 157.558 187.012 157.634 187.773C157.652 187.964 157.669 188.156 157.687 188.342L157.709 188.592C157.785 189.406 157.842 190.051 157.763 190.544C157.674 191.252 157.327 192.021 156.999 192.68C156.856 193.04 156.697 193.445 156.528 193.783C156.363 194.232 156.457 194.499 156.528 194.713C156.634 194.931 156.643 195.082 156.643 195.215C156.643 195.46 156.443 195.66 156.199 195.66H156.204Z" fill="#27313A"/>
<path d="M159.109 175.936C158.909 175.936 158.727 175.799 158.678 175.594C156.47 166.203 153.69 125.762 153.934 119.067C153.943 118.827 154.139 118.64 154.378 118.64C154.383 118.64 154.392 118.64 154.396 118.64C154.64 118.649 154.831 118.854 154.823 119.103C154.578 125.776 157.35 166.048 159.544 175.394C159.602 175.634 159.451 175.874 159.215 175.928C159.18 175.936 159.149 175.941 159.113 175.941L159.109 175.936Z" fill="#27313A"/>
<path d="M82.3318 153.396C93.2447 157.734 140.898 174.691 140.898 174.691C140.898 174.691 140.898 187.787 133.676 195.101C133.676 195.101 94.3639 188.993 70.6949 178.628C63.0776 175.252 59.9463 167.378 60.5104 159.019C61.6341 141.341 62.1937 117.155 64.1214 111.367C66.8485 103.173 71.7431 99.3165 77.7614 97.1457C83.7797 94.9749 102.554 86.6207 102.554 86.6207" fill="white"/>
<path d="M133.676 195.545C133.654 195.545 133.632 195.545 133.609 195.541C133.214 195.479 93.9685 189.309 70.5216 179.037C63.344 175.861 59.4355 168.365 60.0662 158.992C60.3815 154.05 60.6524 148.521 60.9189 143.178C61.6251 128.921 62.2914 115.46 63.6993 111.234C66.1466 103.881 70.566 99.272 77.6103 96.7319C83.5442 94.5922 102.185 86.3003 102.372 86.2157C102.598 86.1134 102.856 86.2158 102.958 86.4426C103.056 86.665 102.958 86.9319 102.732 87.0298C102.545 87.1143 83.8729 95.4196 77.9123 97.5682C71.0546 100.042 66.9328 104.343 64.5432 111.514C63.1752 115.624 62.4824 129.655 61.8072 143.223C61.5408 148.57 61.2698 154.104 60.9545 159.055C60.3504 168.041 64.0636 175.207 70.8813 178.228C93.2979 188.045 130.283 194.113 133.525 194.634C139.774 188.134 140.392 177.013 140.454 175.011C136.368 173.557 92.5162 157.934 82.1718 153.819C81.9453 153.73 81.8342 153.468 81.923 153.241C82.0119 153.014 82.2739 152.903 82.5005 152.992C93.2801 157.28 140.574 174.108 141.053 174.277C141.231 174.34 141.351 174.509 141.351 174.696C141.351 175.238 141.267 188.059 134 195.416C133.916 195.501 133.8 195.55 133.685 195.55L133.676 195.545Z" fill="#27313A"/>
<path d="M129.732 103.538C129.572 103.538 129.43 103.511 129.31 103.471C128.137 103.08 127.573 101.127 127.302 99.5519C126.929 97.2298 125.97 96.0821 125.961 96.0687C125.859 95.9486 125.828 95.7796 125.881 95.6328C125.934 95.486 126.059 95.3748 126.214 95.3436C128.133 94.9744 129.461 94.147 130.163 92.8881C131.358 90.7528 130.558 87.8391 129.972 86.2955C129.883 86.0642 130.003 85.8106 130.229 85.7216C130.46 85.6327 130.714 85.7528 130.802 85.9796C131.437 87.6701 132.304 90.8685 130.936 93.3196C130.185 94.6675 128.87 95.5883 127.031 96.0687C127.396 96.6826 127.92 97.7903 128.177 99.4051C128.546 101.554 129.15 102.475 129.59 102.626C129.812 102.701 130.087 102.586 130.403 102.288C137.922 95.6017 134.547 88.0126 134.396 87.6923C134.293 87.4699 134.391 87.203 134.613 87.1007C134.835 86.9983 135.097 87.0918 135.204 87.3142C135.244 87.3987 139.019 95.8107 131.002 102.942C130.518 103.4 130.083 103.538 129.732 103.538Z" fill="#27313A"/>
<path d="M87.6263 155.286C87.6263 155.286 87.5952 155.286 87.5818 155.286C87.3376 155.26 87.1599 155.042 87.1865 154.797L89.8337 128.6C89.8604 128.355 90.078 128.186 90.3223 128.204C90.5666 128.231 90.7442 128.449 90.7176 128.694L88.0704 154.891C88.0482 155.122 87.8528 155.291 87.6307 155.291L87.6263 155.286Z" fill="#27313A"/>
<path d="M101.905 96.0242C101.905 96.0242 123.007 106.789 125.01 103.898C127.018 101.007 126.294 95.8641 126.294 95.8641C126.294 95.8641 115.061 97.0696 104.952 87.9103C102.625 85.8195 102.305 84.614 101.825 83.6531C101.825 83.6531 100.862 82.6077 100.142 84.2981C99.498 85.904 97.8946 89.2804 97.8946 89.2804C97.8946 89.2804 95.5673 92.2519 101.905 96.0287V96.0242Z" fill="white"/>
<path d="M123.576 104.832C121.892 104.832 118.721 104.063 112.534 101.456C107.058 99.1473 101.759 96.4471 101.705 96.4204C101.697 96.4204 101.688 96.4115 101.679 96.4071C98.9606 94.7878 97.4194 93.0885 97.0952 91.3581C96.8598 90.1036 97.3705 89.2584 97.5127 89.0493C97.6859 88.6845 99.1383 85.6151 99.729 84.1293C100.04 83.3998 100.453 82.9905 100.955 82.9015C101.617 82.7859 102.101 83.2886 102.154 83.3464C102.181 83.3775 102.207 83.4131 102.225 83.4487C102.296 83.5911 102.367 83.7423 102.438 83.898C102.838 84.7699 103.336 85.8509 105.254 87.5769C115.101 96.5005 126.138 95.4328 126.25 95.4195C126.489 95.3928 126.703 95.5619 126.738 95.7976C126.769 96.0156 127.462 101.149 125.379 104.147C125.13 104.503 124.668 104.828 123.576 104.828V104.832ZM102.123 95.633C112.321 100.838 123.531 105.255 124.651 103.645C126.214 101.389 126.019 97.5814 125.903 96.3359C123.696 96.4382 113.671 96.4026 104.659 88.2397C102.603 86.3936 102.039 85.1658 101.63 84.2717C101.572 84.1471 101.519 84.0315 101.466 83.9158C101.39 83.8535 101.239 83.7468 101.106 83.7779C100.928 83.809 100.728 84.0626 100.555 84.4674C99.92 86.0599 98.3654 89.3251 98.3033 89.4675C98.2899 89.4986 98.2722 89.5253 98.25 89.552C98.2322 89.5742 97.7747 90.197 97.979 91.2246C98.1789 92.2255 99.0583 93.8047 102.127 95.6375L102.123 95.633Z" fill="#27313A"/>
</svg>
