<svg width="81" height="54" viewBox="0 0 81 54" fill="none" xmlns="http://www.w3.org/2000/svg">
<rect class="card-template-border" x="1" y="0.5" width="79" height="53" rx="3.5" stroke="#CFD7DF"/>
<path fill-rule="evenodd" clip-rule="evenodd" d="M35.4 5H44.6C45.9232 5.00548 46.9945 6.07679 47 7.4V16.6C47.008 17.2247 46.7711 17.8278 46.34 18.28L46.02 18.57H45.97C45.8482 18.6598 45.7175 18.7368 45.58 18.8C45.4371 18.8604 45.29 18.9105 45.14 18.95C44.9752 18.982 44.8078 18.9987 44.64 19H35.44C35.2935 19.0099 35.1465 19.0099 35 19L34.66 18.84L34.49 18.79L34.21 18.66L34.11 18.6C34.0161 18.5424 33.9259 18.479 33.84 18.41C33.3116 17.9564 33.0053 17.2964 33 16.6V7.4C33.0055 6.07679 34.0768 5.00548 35.4 5ZM35.4 17.6H44.6C44.6883 17.5931 44.7755 17.5763 44.86 17.55L41.7 13.34L39.05 16.93C38.9178 17.1063 38.7103 17.21 38.49 17.21C38.2697 17.21 38.0622 17.1063 37.93 16.93L36.93 15.6L35.4 17.6ZM42.26 11.75L45.6 16.2L45.57 7.4C45.57 6.84772 45.1223 6.4 44.57 6.4H35.37C34.8177 6.4 34.37 6.84772 34.37 7.4V16.64L36.37 14C36.5087 13.8341 36.7138 13.7383 36.93 13.7383C37.1462 13.7383 37.3513 13.8341 37.49 14L38.49 15.29L41.14 11.75C41.2787 11.5841 41.4838 11.4883 41.7 11.4883C41.9162 11.4883 42.1213 11.5841 42.26 11.75ZM35.7423 8.99363C36.1333 8.09982 37.0246 7.5299 38 7.55C39.3272 7.57735 40.3823 8.67275 40.36 10C40.3436 10.9754 39.7407 11.8448 38.8329 12.2021C37.9251 12.5593 36.8914 12.3341 36.2146 11.6314C35.5378 10.9288 35.3514 9.88744 35.7423 8.99363ZM37 10C37 10.5523 37.4477 11 38 11C38.5523 11 39 10.5523 39 10C39 9.44772 38.5523 9 38 9C37.4477 9 37 9.44772 37 10Z" fill="#CFD7DF"/>
<rect x="10.5" y="25" width="60" height="3" rx="1.5" fill="#CFD7DF"/>
<rect x="10.5" y="35" width="60" height="2" rx="1" fill="#CFD7DF"/>
<rect x="10.5" y="41" width="60" height="2" rx="1" fill="#CFD7DF"/>
</svg>
