<svg width="81" height="54" viewBox="0 0 81 54" fill="none" xmlns="http://www.w3.org/2000/svg">
<path fill-rule="evenodd" clip-rule="evenodd" d="M59.9 16H69.1C70.4232 16.0055 71.4945 17.0768 71.5 18.4V27.6C71.508 28.2247 71.2711 28.8278 70.84 29.28L70.52 29.57H70.47C70.3482 29.6598 70.2175 29.7368 70.08 29.8C69.9371 29.8604 69.79 29.9105 69.64 29.95C69.4752 29.982 69.3078 29.9987 69.14 30H59.94C59.7935 30.0099 59.6465 30.0099 59.5 30L59.16 29.84L58.99 29.79L58.71 29.66L58.61 29.6C58.5161 29.5424 58.4259 29.479 58.34 29.41C57.8116 28.9564 57.5053 28.2964 57.5 27.6V18.4C57.5055 17.0768 58.5768 16.0055 59.9 16ZM59.9 28.6H69.1C69.1883 28.5931 69.2755 28.5763 69.36 28.55L66.2 24.34L63.55 27.93C63.4178 28.1063 63.2103 28.21 62.99 28.21C62.7697 28.21 62.5622 28.1063 62.43 27.93L61.43 26.6L59.9 28.6ZM66.76 22.75L70.1 27.2L70.07 18.4C70.07 17.8477 69.6223 17.4 69.07 17.4H59.87C59.3177 17.4 58.87 17.8477 58.87 18.4V27.64L60.87 25C61.0087 24.8341 61.2138 24.7383 61.43 24.7383C61.6462 24.7383 61.8513 24.8341 61.99 25L62.99 26.29L65.64 22.75C65.7787 22.5841 65.9838 22.4883 66.2 22.4883C66.4162 22.4883 66.6213 22.5841 66.76 22.75ZM60.2423 19.9936C60.6333 19.0998 61.5246 18.5299 62.5 18.55C63.8272 18.5774 64.8823 19.6728 64.86 21C64.8436 21.9754 64.2407 22.8448 63.3329 23.2021C62.4251 23.5593 61.3914 23.3341 60.7146 22.6314C60.0378 21.9288 59.8514 20.8874 60.2423 19.9936ZM61.5 21C61.5 21.5523 61.9477 22 62.5 22C63.0523 22 63.5 21.5523 63.5 21C63.5 20.4477 63.0523 20 62.5 20C61.9477 20 61.5 20.4477 61.5 21Z" fill="#CFD7DF"/>
<rect class="card-template-border" x="1" y="0.5" width="79" height="53" rx="3.5" stroke="#CFD7DF"/>
<rect x="8.5" y="16" width="42" height="3" rx="1.5" fill="#CFD7DF"/>
<rect x="8.5" y="29" width="42" height="2" rx="1" fill="#CFD7DF"/>
<rect x="8.5" y="35" width="42" height="2" rx="1" fill="#CFD7DF"/>
</svg>
