<svg xmlns="http://www.w3.org/2000/svg" width="80" height="54" fill="none" viewBox="0 0 80 54"><path fill="#CFD7DF" fill-rule="evenodd" d="M11.4 16h9.2a2.41 2.41 0 012.4 2.4v9.2a2.39 2.39 0 01-.66 1.68l-.32.29h-.05c-.122.09-.252.167-.39.23-.143.06-.29.11-.44.15a2.734 2.734 0 01-.5.05h-9.2c-.146.01-.293.01-.44 0l-.34-.16-.17-.05-.28-.13-.1-.06a2.611 2.611 0 01-.27-.19A2.41 2.41 0 019 27.6v-9.2a2.41 2.41 0 012.4-2.4zm0 12.6h9.2c.088-.007.175-.024.26-.05l-3.16-4.21-2.65 3.59a.7.7 0 01-1.12 0l-1-1.33-1.53 2zm6.86-5.85l3.34 4.45-.03-8.8a1 1 0 00-1-1h-9.2a1 1 0 00-1 1v9.24l2-2.64a.73.73 0 011.12 0l1 1.29 2.65-3.54a.73.73 0 011.12 0zm-6.518-2.756a2.41 2.41 0 114.416 1.931 2.41 2.41 0 01-4.416-1.931zM13 21a1 1 0 102 0 1 1 0 00-2 0z" clip-rule="evenodd"/><rect width="79" height="53" x=".5" y=".5" stroke="#CFD7DF" class="card-template-border" rx="3.5"/><rect width="42" height="3" x="29" y="16" fill="#CFD7DF" rx="1.5"/><rect width="42" height="2" x="29" y="29" fill="#CFD7DF" rx="1"/><rect width="42" height="2" x="29" y="35" fill="#CFD7DF" rx="1"/></svg>