<svg width="22" height="21" viewBox="0 0 22 21" fill="none" xmlns="http://www.w3.org/2000/svg">
<path fill-rule="evenodd" clip-rule="evenodd" d="M4.33552 0.439453H17.6645C19.5815 0.447391 21.1336 1.99951 21.1416 3.91657V17.2455C21.1532 18.1506 20.81 19.0243 20.1854 19.6795L19.7218 20.0997H19.6493C19.4728 20.2297 19.2835 20.3413 19.0843 20.4329C18.8772 20.5204 18.6642 20.593 18.4468 20.6502C18.2081 20.6966 17.9656 20.7208 17.7224 20.7226H4.39347C4.18122 20.7369 3.96825 20.7369 3.756 20.7226L3.2634 20.4908L3.01711 20.4184L2.61144 20.23L2.46657 20.1431C2.33049 20.0597 2.19984 19.9678 2.07539 19.8678C1.30991 19.2106 0.866144 18.2544 0.858398 17.2455V3.91657C0.866337 1.99951 2.41845 0.447391 4.33552 0.439453ZM4.33528 18.6944H17.6642C17.7921 18.6843 17.9184 18.66 18.0409 18.6219L13.4627 12.5225L9.6234 17.7237C9.43187 17.9791 9.13128 18.1293 8.81207 18.1293C8.49285 18.1293 8.19227 17.9791 8.00074 17.7237L6.55194 15.7968L4.33528 18.6944ZM14.274 10.2186L19.113 16.6658L19.0695 3.91634C19.0695 3.11619 18.4208 2.46754 17.6207 2.46754H4.29175C3.4916 2.46754 2.84295 3.11619 2.84295 3.91634V17.3032L5.74054 13.4784C5.94149 13.2381 6.23862 13.0992 6.55187 13.0992C6.86512 13.0992 7.16225 13.2381 7.3632 13.4784L8.812 15.3474L12.6513 10.2186C12.8523 9.97831 13.1494 9.83945 13.4626 9.83945C13.7759 9.83945 14.073 9.97831 14.274 10.2186ZM4.83134 6.22541C5.3978 4.93046 6.68909 4.10475 8.10222 4.13388C10.025 4.17351 11.5537 5.76052 11.5214 7.68343C11.4976 9.09666 10.6242 10.3562 9.30896 10.8738C7.99372 11.3914 6.49615 11.065 5.51558 10.0471C4.53501 9.02909 4.26488 7.52036 4.83134 6.22541ZM6.65345 7.68313C6.65345 8.48328 7.3021 9.13193 8.10225 9.13193C8.9024 9.13193 9.55105 8.48328 9.55105 7.68313C9.55105 6.88298 8.9024 6.23433 8.10225 6.23433C7.3021 6.23433 6.65345 6.88298 6.65345 7.68313Z" fill="#12344D"/>
</svg>
