<svg width="22" height="22" viewBox="0 0 22 22" fill="none" xmlns="http://www.w3.org/2000/svg">
<path fill-rule="evenodd" clip-rule="evenodd" d="M1.37261 21.0879C1.51276 21.1576 1.66761 21.1926 1.82411 21.1899C2.21331 21.1912 2.5693 20.9708 2.74166 20.6219L6.1932 13.7188H15.8018L19.2576 20.6364C19.4189 20.9643 19.7428 21.1811 20.1074 21.2053C20.4719 21.2295 20.8217 21.0574 21.0249 20.7538C21.2282 20.4502 21.254 20.0613 21.0927 19.7335L11.9172 1.36784C11.7448 1.01888 11.3888 0.798506 10.9996 0.799831C10.6137 0.797032 10.2612 1.01872 10.0966 1.36784L0.906556 19.7335C0.673413 20.2369 0.879072 20.8346 1.37261 21.0879ZM14.7832 11.6798L10.9996 4.10593L7.2127 11.6798H14.7832Z" fill="#12344D"/>
</svg>