<svg xmlns="http://www.w3.org/2000/svg" width="159" height="132" fill="none" viewBox="0 0 159 132"><path fill="#fff" d="M66.559 131.456c-36.22 0-65.584-29.428-65.584-65.728S30.338 0 66.56 0c36.221 0 65.584 29.427 65.584 65.728 0 36.3-29.363 65.728-65.584 65.728z"/><path fill="#DDE1E8" d="M66.559 112.266c-25.646 0-46.436-20.836-46.436-46.538 0-25.703 20.79-46.538 46.436-46.538s46.436 20.835 46.436 46.538c0 25.702-20.79 46.538-46.436 46.538z"/><path fill="#fff" d="M114.523 77.37c-.15 1.411-.814 2.72-1.103 4.1-.128.617-.183 1.249-.354 1.855a6.33 6.33 0 01-1.357 2.392c-.897 1.038-2.021 1.846-3.135 2.645-4.924 3.542-5.126 10.7-9.662 15.077-2.802 2.705-6.497 4.331-9.31 7.022-2.07 1.981-3.667 4.533-6.168 5.933-3.201 1.788-7.135 1.283-10.756.729L61.446 115.4c-4.417-.678-8.843-1.36-13.175-2.448a71.25 71.25 0 01-15.766-6.027c-3.264-1.715-6.441-3.723-8.896-6.481-2.032-2.284-3.499-5.008-4.89-7.733-2.337-4.57-4.58-9.55-3.92-14.643.52-4.024 2.83-7.768 2.656-11.822-.096-2.28-.625-5.288 1.45-6.22 1.56-.706 3.557.495 5.032-.372.953-.56 1.284-1.758 1.524-2.838 2.703-12.142 4.871-25.167 13.148-34.438 2.426-2.72 5.39-5.053 8.852-6.168 2.783-.907 5.714-.94 8.594-.695 1.736.151 5.117-.261 6.585.698.42 2.696-1.25 5.571-3.795 6.54-.745.284-1.61.462-2.074 1.113-.337.473-.376 1.09-.388 1.67a29.69 29.69 0 001.674 10.373c-2.031 1.225-.876 4.28-.754 6.648.225 4.223-4.222 7.738-8.423 7.327-1.37 1.724-.284 4.746 1.868 5.2.521.11 1.084.096 1.548.357 1.818 1.023-.036 4.29 1.4 5.805 4.576-1.118 9.757 1.03 12.211 5.064a31.257 31.257 0 017.3-2.23c1.056-.186 2.316-.254 3.037.545.72.8-.151 2.514-1.084 1.98.105.755.212 1.51.316 2.266-1.507.204-3.46.325-4.27 1.76 1.383.283 2.773.688 3.985 1.443-.62.973-2.285.645-3.001 1.549-.66.832-.067 2.05.585 2.889a23.045 23.045 0 008 6.515c.667.33 1.38.63 2.124.605.643-.025 1.25-.295 1.881-.431 1.113-.242 2.262-.057 3.403.036 6.95.579 14.152-2.512 18.351-8.096.637-.844 1.235-1.769 2.141-2.313 3.05-1.842 6.159 1.567 5.848 4.542z"/><path fill="#F46300" d="M44.787 59.107L44.758 59c-.026-.556-.05-1.115-.081-1.673.048.314.095.629.132.944a.607.607 0 00.044.164c-.02.223-.042.447-.066.67z"/><path fill="#2C5CC5" d="M47.555 67.347c.083-1.947.322-4.008-.085-5.79-.095-.41-1.197-4.657-.734-4.641.905.03 1.692.119 2.233.34 2.046.832.576 5.767.576 6.216 0 .448 1.997.594 1.997.594 9.185.247 9.93 3.233 9.93 3.233s7.448 9.459 11.42 14.431c3.97 4.973 5.213 5.723 8.935 6.469 3.722.746 17.775-4.382 17.775-4.382l5.402 7.632S94.36 97.41 89.371 99.725c-4.989 2.315-7.642 3.558-9.88 2.789-2.237-.769-10.393-6.441-12.44-8.173-.723-.612-1.459-1.209-2.194-1.813-.468-.38-1.562-1.68-2.238-1.239-.26.17-.402.47-.529.755-.335.756-.67 1.511-1.206 2.142-.404.475-.905.855-1.357 1.296-2.453 2.45-2.613 6.679-3.145 9.912a175.144 175.144 0 00-1.045 7.21c-5.563.77-14.389 8.077-14.389 8.077.976-5.949 2.028-11.889 2.932-17.83 1.27-8.279 4.055-16.355 4.125-24.798.025-2.962-.292-5.91-.452-8.862a17.91 17.91 0 01.002-1.844z"/><path fill="#fff" d="M116.835 75.258l14.323-.201 5.188-43.326c.214-1.783-1.055-3.365-2.699-3.365H73.728c-1.357 0-2.5 1.085-2.694 2.547l-4.09 30.696"/><path fill="#131314" d="M116.835 75.597l14.322-.202a.336.336 0 00.332-.302l5.193-43.328a3.478 3.478 0 00-.827-2.72 2.932 2.932 0 00-2.205-1.024H73.727c-1.507 0-2.814 1.222-3.03 2.842l-4.09 30.696a.34.34 0 00.542.316.34.34 0 00.13-.225l4.09-30.696c.165-1.285 1.185-2.245 2.358-2.245h59.923a2.255 2.255 0 011.702.79 2.808 2.808 0 01.66 2.194l-5.149 43.028-14.033.197a.34.34 0 000 .68h.005zM52.43 50.24a14.477 14.477 0 001.603-.097c2.637-.294 2.84-3.102 3.144-7.35.057-.79.116-1.604.194-2.485.495-5.6-.229-13.614-.236-13.694a.445.445 0 00-.654-.368.443.443 0 00-.229.45c0 .08.724 8.008.236 13.534-.079.887-.139 1.706-.195 2.497-.316 4.382-.532 6.329-2.358 6.532-2.077.233-3.34.01-5.084-.515-1.076-.323-1.771-1.681-1.777-1.695a.443.443 0 00-.793.396c.035.07.87 1.715 2.316 2.15 1.337.403 2.451.645 3.832.645z"/><path fill="#131314" d="M48.467 54.07h.04a.452.452 0 00.403-.483c-.263-2.904.195-3.802.2-3.81a.438.438 0 00-.151-.605.452.452 0 00-.613.151c-.063.104-.61 1.115-.318 4.341a.444.444 0 00.44.405z"/><path fill="#131314" d="M46.548 54.114l.753-.054c1.858-.144 3.317-.257 4.101.435 1.847 1.643 1.785 3.799 1.111 6.528.151.108.812.379 3.535.379 3.027 0 6.497.565 9.291 4.764 2.642 3.97 11.202 14.085 11.29 14.188.023.029.044.06.06.094a10.935 10.935 0 001.81 2.5c1.563 1.619 3.337 2.44 5.276 2.44 4.852 0 17.371-4.667 17.489-4.715a.451.451 0 01.516.159l6.142 8.588a.444.444 0 01-.14.645c-.804.453-19.72 11.207-25.13 11.594-.067 0-.133.007-.202.007-5.72 0-23.172-15.97-23.92-16.66a.446.446 0 01.454-.745c.055.02.105.051.148.091 6.236 5.731 19.015 16.431 23.29 16.431h.166c4.777-.342 21.432-9.609 24.325-11.238l-5.654-7.91c-2.043.756-12.862 4.653-17.489 4.653-4.988 0-7.556-4.795-7.855-5.39-.686-.811-8.705-10.305-11.316-14.229-2.563-3.85-5.76-4.368-8.553-4.368-3.239 0-3.965-.361-4.27-.756a.755.755 0 01-.14-.666c.627-2.517.709-4.35-.825-5.713-.494-.441-1.926-.331-3.443-.215l-.754.056c-.017-.302-.04-.597-.066-.893zM24.531 59.333c1.57-1.236 5.514-1.543 6.923-1.614-.187-1.37-.502-4.915 1.007-6.086.641-.496 1.484-.513 2.505-.047l.236.107c3.423 1.56 4.285 1.952 6.56 2.267-.019.294-.03.59-.033.891-2.479-.337-3.392-.755-6.895-2.348l-.236-.109c-.707-.322-1.229-.341-1.594-.059-1.023.795-.904 3.938-.603 5.731a.445.445 0 01-.427.522c-1.453.035-5.525.362-6.899 1.443a.443.443 0 11-.547-.698h.003z"/><path fill="#131314" d="M58.445 110.12a.45.45 0 00.314-.13.438.438 0 00.13-.314c0-2.727.313-5.452.742-8.14.19-1.18.233-2.381.709-3.49.494-1.153 1.253-2.168 1.97-3.187 1.093-1.555 2.147-3.35 1.888-5.232-.084-.605-.33-1.229-.816-1.605-.208.535 0 1.129.052 1.7.083.894-.216 1.787-.652 2.569-.435.78-1.004 1.485-1.518 2.22a18.996 18.996 0 00-1.89 3.4c-.468 1.091-.4 2.126-.587 3.285-.452 2.8-.785 5.638-.785 8.477a.447.447 0 00.273.413.433.433 0 00.17.034zM107.632 90.244a.427.427 0 00.171-.035c1.078-.454 10.553-4.462 11.202-6.96.164-.634-.106-.995-.282-1.154-.905-.818-3.67-.104-5.476.486l2.028-3.014a4.807 4.807 0 001.658 1.502c.769.414 1.206.165 1.393-.021.641-.623.252-2.076-.274-3.133l-.103-.205c-.642-1.293-1.441-2.904-2.599-3.114-.505-.09-1.001.086-1.474.529a95.073 95.073 0 00-3.497 3.504.439.439 0 00-.155.327.438.438 0 00.139.335.452.452 0 00.342.118.442.442 0 00.317-.176c.019-.021 1.959-2.056 3.458-3.466.388-.363.632-.319.712-.302.719.13 1.468 1.638 1.96 2.636l.102.206c.585 1.175.56 1.984.453 2.096a.76.76 0 01-.356-.123 3.959 3.959 0 01-1.642-1.722.457.457 0 00-.366-.27.438.438 0 00-.411.193l-3.166 4.715a.444.444 0 00.523.664c2.398-.907 5.312-1.584 5.843-1.105.016.015.069.064.016.27-.407 1.561-6.769 4.731-10.685 6.363a.445.445 0 00.171.856h-.002z"/><path fill="#131314" d="M107.568 78.2a.439.439 0 00.283-.102c.023-.02 2.337-1.955 3.994-3.616.537-.538 1.006-.784 1.322-.689.431.127.68.866.733 1.115a.443.443 0 10.868-.182c-.031-.151-.336-1.483-1.346-1.785-.662-.198-1.402.109-2.204.907-1.63 1.633-3.92 3.543-3.935 3.561a.448.448 0 00-.133.493.443.443 0 00.418.293v.006z"/><path fill="#131314" d="M101.613 81.855a.453.453 0 00.323-.14c.069-.072 6.913-7.311 7.762-8.159.587-.589 1.507.026 1.546.052a.443.443 0 00.688-.446.442.442 0 00-.184-.286c-.537-.371-1.788-.841-2.678.052-.858.86-7.496 7.881-7.778 8.18a.447.447 0 00.017.629.45.45 0 00.304.118z"/><path fill="#131314" d="M71.875 74.642h35.751a.343.343 0 00.254-.09.348.348 0 00.108-.249.348.348 0 00-.225-.32.341.341 0 00-.137-.02h-34.78c.993-.656 1.721-.591 2.193-.55.302.028.603.054.811-.15.208-.204.211-.478.2-.706-.073-1.553-3.903-1.621-5.075-1.605a.339.339 0 00-.335.345.34.34 0 00.344.335c2.597-.039 4.372.467 4.39.958.004.055.004.11 0 .165-.066 0-.178-.007-.271-.016-.65-.06-1.856-.167-3.454 1.317a.339.339 0 00.229.588l-.003-.002zM5.106 117.044a.435.435 0 00.383-.219.442.442 0 00.047-.337 172.522 172.522 0 01-3.317-17.25C.983 90.395.023 77.98 2.458 69.028c1.174-4.318 5.126-6.414 8.246-7.41 4.083-1.31 9.316-1.596 14.736-.81 5.956.862 11.453 2.894 15.489 5.72 3.125 2.188 6.826 5.91 6.713 11.219-.22 10.403-4.933 36.968-4.975 37.235a.446.446 0 00.364.497.447.447 0 00.509-.346c.048-.267 4.773-26.895 4.995-37.373.21-9.936-11.75-16.21-22.953-17.83-5.55-.804-10.924-.505-15.132.844-4.766 1.526-7.82 4.3-8.832 8.023-2.477 9.1-1.508 21.65-.261 30.575a173.727 173.727 0 003.329 17.34.444.444 0 00.42.331zM77.113 82.047h17.403a.444.444 0 00.419-.445.446.446 0 00-.42-.445H77.114a.445.445 0 00-.298.75.444.444 0 00.298.14zM44.245 117.813a.45.45 0 00.314-.13c.078-.08 8.001-7.902 17.205-7.491 4.775.214 9.095 2.594 12.84 7.077a.443.443 0 10.68-.571c-3.913-4.684-8.443-7.171-13.485-7.393-9.596-.425-17.534 7.414-17.867 7.748a.454.454 0 00.313.756v.004zM46.827 61.377c1.845.148 3.7.138 5.545-.032a.254.254 0 01.217.407.254.254 0 01-.158.1c-.973.093-1.949.137-2.925.131-.79 0-1.703-.027-2.686-.103.004-.164.005-.334.007-.503zM42.39 60.684c.15.04.316.077.476.112.027.179.056.359.086.54l-.685-.152a.255.255 0 01.122-.496v-.004zM71.11 31.253h64.848v.709H71.109v-.71zM35.932 57.437a.186.186 0 00.04 0 .253.253 0 00.212-.292c-.246-1.541.362-4.26.372-4.291a.257.257 0 00-.193-.302.253.253 0 00-.301.192c-.026.116-.635 2.85-.374 4.481a.254.254 0 00.244.212zM44.848 58.436c-.02.223-.042.453-.066.67l-.029-.105-.059-1.248c0-.058.01-.115.015-.172.035.23.067.46.095.692a.607.607 0 00.044.163zM40.245 58.756a.252.252 0 00.252-.22c.186-1.41.371-4.373.373-4.404a.254.254 0 00-.482-.127.254.254 0 00-.025.096c0 .03-.185 2.976-.37 4.368a.256.256 0 00.22.286l.032.001z"/><path fill="#282A2B" d="M44.052 34.156c.024-1.27.36-2.903 1.615-3.086.904-.13 1.658.624 2.248 1.312a3.353 3.353 0 011.95-3.444c.332-.14.693-.228.982-.444 1.262-.941.246-3.372 1.508-4.306.467-.345 1.09-.345 1.669-.38 2.6-.161 5.22-1.44 6.534-3.692 1.313-2.253.983-5.484-1.066-7.094-2.197-1.724-4.9-1.442-7.45-1.708-3.467-.36-6.752-1.601-10.271-1.756-3.968-.173-8.224.801-10.937 3.708-3.331 3.572-3.512 8.968-3.618 13.858a318.967 318.967 0 01-2.158 30.87 1.43 1.43 0 00.03.697c.168.43.68.59 1.125.701a66.765 66.765 0 0113.514 4.986c2.353 1.168 4.523 2.543 6.002 4.77.48-2.086-.492-4.714-.685-6.836a259.733 259.733 0 01-.67-9.23 258.872 258.872 0 01-.322-18.926z"/><path fill="#131314" d="M103.15 92.431a.432.432 0 00.238-.07.44.44 0 00.198-.453.447.447 0 00-.064-.161l-5.788-9.039a.444.444 0 10-.746.48l5.788 9.038a.44.44 0 00.374.205z"/><path fill="#131314" d="M101.279 88.89c.038 0 .075-.01.108-.029l3.789-2.164a.224.224 0 00.102-.133.221.221 0 00-.319-.25l-3.791 2.163a.223.223 0 00-.104.25.223.223 0 00.215.163zM99.082 85.855c.039 0 .077-.01.11-.03l3.789-2.162a.218.218 0 00.103-.134.221.221 0 00-.154-.271.219.219 0 00-.167.021l-3.79 2.162a.222.222 0 00.11.414zM76.116 79.652h15.762a.266.266 0 00.17-.06l2.713-2.202a.267.267 0 00-.167-.476c-3.065 0-15.624-.024-15.75-.026a.271.271 0 00-.17.06l-2.727 2.228a.263.263 0 00-.083.302.268.268 0 00.252.174zm15.667-.537H76.867l2.07-1.69c1.09 0 11.128.022 14.9.024l-2.054 1.666zM45.014 120.889a.443.443 0 00.293-.11c6.23-5.464 12.405-7.393 18.35-5.742 4.441 1.239 7.096 4.131 7.122 4.16a.443.443 0 00.756-.282.447.447 0 00-.097-.315c-.115-.125-2.827-3.09-7.501-4.407-4.307-1.209-11.136-1.175-19.214 5.909a.442.442 0 00-.124.491.446.446 0 00.415.289v.007zM119.266 83.16c.065 0 .13-.02.185-.054l11.767-7.693a.339.339 0 10-.369-.568l-11.769 7.69a.339.339 0 00-.139.382.343.343 0 00.325.243zM94.707 98.202h55.579a.254.254 0 00.25-.256.253.253 0 00-.255-.254H94.707a.254.254 0 00-.235.255.256.256 0 00.235.255z"/><path fill="#131314" d="M126.556 75.511h32.191a.254.254 0 00.179-.433.256.256 0 00-.179-.076h-32.191a.252.252 0 00-.192.067.253.253 0 00-.061.29.253.253 0 00.15.139.252.252 0 00.103.013zM59.788 102.559h66.384a.257.257 0 00.193-.067.255.255 0 00.06-.29.25.25 0 00-.15-.138.24.24 0 00-.103-.014H59.788a.256.256 0 000 .509z"/><path fill="#fff" d="M75.617 69.64h47.887a1.77 1.77 0 001.753-1.56l3.87-32.345a1.763 1.763 0 00-.433-1.386 1.767 1.767 0 00-1.322-.595H79.73a1.765 1.765 0 00-1.755 1.56l-3.517 28.983"/><g clip-path="url(#clip0_6011_119703)"><path fill="#D3583C" d="M116.354 54.003c-.012-.008-.012-.008 0 0-.012-.008-.008.01 0 0z"/><path fill="#fff" d="M119.419 47.45c-.609-.408-.798-1.173-.427-1.726l-1.553-1.043c-.112-.075-.252-.054-.312.036l-6.496 9.65c-.068.102-.034.24.078.315l1.553 1.042c.396-.536 1.18-.631 1.774-.2.556.406.748 1.14.412 1.668l1.553 1.042c.112.075.252.055.313-.035l6.495-9.651c.069-.102.035-.239-.077-.314l-1.541-1.034c-.383.544-1.163.66-1.772.25z"/><path fill="#91AAE0" d="M119.442 47.417c-.597-.4-.806-1.163-.442-1.705l-1.553-1.042c-.112-.075-.252-.055-.313.036l-6.39 9.492c-.068.102-.026.228.086.303l1.553 1.043c.363-.542 1.057-.502 1.653-.102.597.4.897 1.028.533 1.57l1.553 1.042c.112.075.252.054.313-.036l6.402-9.484c.068-.102.027-.228-.065-.306l-1.578-1.06c-.384.546-1.156.649-1.752.249z"/><path fill="#525666" d="M120.868 51.68l-4.375 6.492a.51.51 0 01-.313.199.55.55 0 01-.387-.096l-1.354-.909c-.124-.083-.175-.249-.112-.37.281-.499.056-1.157-.496-1.462-.483-.275-1.063-.19-1.38.203-.088.104-.261.12-.385.036l-1.354-.909c-.229-.17-.301-.464-.15-.69l3.027-4.482c.053-.08.153-.094.24-.035.087.058.111.156.058.235l-3.027 4.482c-.045.068-.021.166.054.216l1.304.876c.516-.554 1.43-.546 2.04-.005.502.434.659 1.113.408 1.648l1.304.876a.18.18 0 00.122.032.145.145 0 00.098-.065l4.375-6.49c.053-.08.153-.095.24-.036.092.078.116.176.063.255zM114.993 48.245l-.477.71c-.053.08-.153.094-.24.036-.087-.059-.111-.157-.058-.236l.477-.71c.053-.08.153-.094.24-.036.075.05.104.168.058.236zM119.12 47.037c-.053.08-.166.086-.24.036a.116.116 0 01-.047-.065c-.215-.405-.246-.868-.054-1.263l-1.304-.875a.18.18 0 00-.122-.033.147.147 0 00-.098.065l-1.772 2.64c-.053.08-.153.094-.24.036-.087-.059-.112-.157-.059-.236l1.765-2.629c.144-.214.464-.261.7-.103l1.354.909c.125.083.176.249.113.37-.165.299-.165.675.017.994a.164.164 0 01-.013.154z"/><path fill="#fff" d="M113.174 53.129l3.696-5.507c.099-.146.319-.179.48-.07l2.622 1.76c.161.108.215.324.116.47l-3.696 5.507c-.098.146-.318.179-.48.07l-2.621-1.76c-.174-.116-.215-.324-.117-.47z"/><path fill="#525666" d="M120.237 49.882l-3.696 5.507c-.151.225-.471.272-.72.106l-2.621-1.76c-.249-.167-.326-.48-.175-.706l3.696-5.507c.152-.225.472-.273.72-.106l2.622 1.76c.248.167.326.48.174.706zm-6.914 3.347c-.053.079-.029.177.058.235l2.622 1.76c.087.058.187.044.24-.035l3.696-5.507c.053-.079.029-.177-.058-.235l-2.622-1.76c-.087-.058-.187-.044-.24.035l-3.696 5.507z"/><path fill="#525666" d="M117.489 49.413l-2.454 3.656c-.053.079-.153.093-.24.035-.087-.058-.111-.156-.058-.235l2.454-3.656c.053-.08.153-.094.24-.036.087.059.111.157.058.236zM118.058 50.874l-1.454 2.167c-.053.079-.153.094-.24.035-.087-.058-.112-.156-.059-.235l1.447-2.156c.053-.079.153-.093.24-.035.087.059.111.157.066.224z"/><path fill="#525666" fill-rule="evenodd" d="M118.918 46.904c.071-.063.186-.053.257.02.353.367.691.488.981.495.297.008.564-.103.759-.24a.526.526 0 01.593-.003l1.16.778c.253.17.345.374.35.526a.304.304 0 01-.055.175l-1.68 2.502c-.052.078-.164.095-.25.037-.086-.057-.113-.167-.061-.245l1.68-2.502.001-.001c-.007-.035-.038-.118-.175-.21l-1.159-.778c-.041-.028-.111-.033-.173.01a1.62 1.62 0 01-.968.302c-.402-.01-.84-.184-1.259-.62-.071-.073-.072-.184-.001-.246z" clip-rule="evenodd"/></g><path fill="#131314" d="M75.617 69.912h47.887a2.04 2.04 0 002.021-1.8l3.871-32.344a2.053 2.053 0 00-.499-1.599 2.035 2.035 0 00-1.525-.687H79.73a2.038 2.038 0 00-2.014 1.8l-3.518 28.982a.273.273 0 00.238.292.27.27 0 00.3-.226l3.517-28.983a1.501 1.501 0 011.485-1.323h47.634a1.495 1.495 0 011.429 1.053c.063.202.083.416.058.626l-3.87 32.346a1.5 1.5 0 01-1.485 1.32H75.617a.27.27 0 00-.269.163.273.273 0 00.16.365.271.271 0 00.11.015z"/><path fill="#131314" d="M77.628 38.388h50.908a.259.259 0 00.193-.067.257.257 0 00.082-.187.258.258 0 00-.275-.255H77.628a.254.254 0 00-.235.254.256.256 0 00.235.255z"/><path fill="#283549" d="M77.916 37.91l50.717.03.274-2.15c.179-1.246-.66-1.864-1.918-1.862l-47.114.03c-1 0-1.508.492-1.683 1.48l-.276 2.471z"/><path fill="#F6F7F9" d="M104.617 36.208h21.617a.253.253 0 00.274-.255.256.256 0 00-.171-.241.253.253 0 00-.103-.014h-21.617a.254.254 0 00-.167.428.252.252 0 00.167.082z"/><path fill="#131314" d="M127.707 125.122h.009a.256.256 0 00.246-.263l-.768-22.306a.257.257 0 00-.262-.246.256.256 0 00-.246.263l.768 22.305a.257.257 0 00.253.247zM124.254 115.893a.253.253 0 00.235-.255.253.253 0 00-.068-.173.25.25 0 00-.167-.082l-36.837-.116a.256.256 0 000 .509l36.836.117h.001zM69.536 72.168c.172 0 .358-.129.561-.27.302-.212.827-.584 1.547-1.104 1.08-.781 1.797-.74 2.429-.706.513.03 1.042.058 1.568-.364a1.614 1.614 0 00.64-1.133c.07-.825-.52-1.518-.587-1.595a.423.423 0 00-.733.257c-.008.11.027.22.098.305.116.134.413.57.377.964a.771.771 0 01-.324.539c-.262.21-.507.207-.992.18-.697-.038-1.648-.09-2.972.864-1.283.928-1.642 1.173-1.74 1.236a.433.433 0 00-.167.665.374.374 0 00.295.162z"/><path fill="#131314" d="M69.381 71.98a.425.425 0 00.418-.35 4.417 4.417 0 012.714-3.093c.904-.365 1.583-.566 2.076-.714.937-.28 1.456-.436 1.878-1.208.422-.772.254-1.286.036-1.582-.93-1.276-4.33-.715-5.349-.513-1.868.384-3.62 1.2-5.117 2.385a.425.425 0 00.404.731.425.425 0 00.145-.085 11.556 11.556 0 014.733-2.198c2.48-.491 4.17-.274 4.501.18.1.143.07.367-.095.674-.245.453-.47.529-1.38.8a22.96 22.96 0 00-2.147.74 5.259 5.259 0 00-3.234 3.734.424.424 0 00.417.5zM46.682 72.565h.057a.443.443 0 00.38-.366c.541-3.135.31-6.557.086-9.868-.075-1.106-.15-2.153-.189-3.187-.093-2.224-.114-4.475-.135-6.648-.024-2.458-.048-5-.175-7.52-.15-3.111-.302-6.144-.263-9.045a9.216 9.216 0 00-.135-1.375c-.074-.5-.15-1.017-.113-1.36.037-.343.252-.648.407-.698.098-.03.225.094.29.17.09.124.157.26.201.406l.855 2.266a.444.444 0 00.843-.039l1.184-4.358c.094-.344.186-.642.373-.798.183-.12.388-.2.603-.237.148-.035.294-.078.438-.128.428-.151.762-.5.993-1.022.66-1.488.31-4.037-.052-4.928a.445.445 0 10-.822.335c.325.8.571 3.085.063 4.23-.128.292-.292.477-.485.548-.109.037-.228.07-.355.101-.344.064-.67.207-.951.417-.416.348-.556.866-.66 1.245l-.827 3.022-.373-.988a2.117 2.117 0 00-.364-.679c-.488-.557-.978-.509-1.226-.429-.587.186-.958.87-1.02 1.45-.049.454.033 1.007.117 1.587.071.409.114.822.127 1.236-.032 2.926.107 5.975.264 9.1.125 2.5.15 5.033.173 7.482.021 2.185.042 4.444.136 6.681.044 1.046.114 2.098.19 3.211.188 2.788.383 5.656.107 8.323-1.497-2.392-3.831-4.059-5.559-5.153-4.683-2.967-9.396-4.274-15.01-5.598.47-.95.64-2.037.754-3.087.508-4.9 1.07-9.853 1.675-14.724.743-6.01 1.15-11.138 1.281-16.14.113-4.322.674-9.142 3.977-12.119 2.655-2.392 6.634-3.162 12.528-2.417 2.11.263 4.221.634 6.297 1.101l.13.029c.733.166 1.49.338 2.276.311 2.714-.089 5.264-.015 6.753 1.865 1.131 1.426.983 3.777.269 5.276-1.187 2.484-4.071 3.929-6.361 4.444a.442.442 0 00-.356.535.447.447 0 00.372.343c.06.008.12.004.178-.012 2.5-.565 5.642-2.155 6.967-4.926.85-1.78.995-4.485-.374-6.213-1.892-2.386-5.126-2.279-7.476-2.2-.673.022-1.344-.129-2.054-.289l-.128-.03a67.296 67.296 0 00-6.383-1.117c-3.88-.486-9.473-.742-13.23 2.645-3.554 3.203-4.154 8.245-4.271 12.755-.13 4.974-.536 10.075-1.276 16.054a752.285 752.285 0 00-1.676 14.743c-.118 1.142-.31 2.324-.917 3.23a.443.443 0 00.267.68c5.79 1.351 10.593 2.624 15.32 5.618 3.037 1.925 4.907 3.83 5.88 5.995a.452.452 0 00.405.264z"/><path fill="#131314" d="M57.451 34.148a12.52 12.52 0 011.226 2.224c.114.2.164.432.143.662a.812.812 0 01-.37.51c-.36.254-.753.47-1.124.702-.413.258-.793-.396-.38-.652l.952-.592c.06-.038.119-.074.176-.115.057-.04 0-.027.01 0 .02.055-.009 0-.016-.027a9.2 9.2 0 00-.198-.462c-.303-.653-.66-1.28-1.069-1.873a.382.382 0 01.135-.516.384.384 0 01.515.136v.003zM55.302 31.717l-.042.09c0 .014-.038.082-.02.039a3.17 3.17 0 00-.205.742c-.02.13 0-.032 0 .042l-.008.102a3.42 3.42 0 00-.01.413l-.74-.101c.105-.37.163-.752.172-1.136l.74.1c-.128.392-.226.792-.294 1.197l-.728-.2c.095-.261.173-.528.234-.798.058-.255.097-.514.117-.774l.703.19c-.037.048-.07.099-.1.151 0 0-.048.106-.024.046a.9.9 0 00-.03.089c-.009.03-.018.06-.024.09-.006.03-.02.103-.014.063.007-.041 0 .056 0 .063v.116h-.753l.025-.698.703.19a2.684 2.684 0 00-.097.196c-.013.03-.024.062-.036.092-.043.118-.079.24-.107.362-.053.23-.074.467-.062.703l-.74-.101a4.275 4.275 0 00.271-.941c0-.035.011-.07.016-.105v-.026c.015-.14.025-.28.028-.423l.74.1c-.092.262-.168.53-.227.801a5.7 5.7 0 00-.116.772l-.74-.101a5.458 5.458 0 00.192-.763c.019-.11.023-.136.034-.239.018-.18.028-.36.028-.54 0-.241.026-.477.252-.619.365-.23.828.044 1.001.387a1.334 1.334 0 010 1.092c-.15.408-.321.81-.48 1.21a.389.389 0 01-.465.262.38.38 0 01-.27-.46c.15-.379.302-.755.452-1.139.029-.075.058-.15.082-.228.013-.045.025-.09.034-.136.01-.045 0-.027 0 0v-.08c0-.027-.013-.137 0-.045 0-.032-.015-.063-.024-.095-.009-.032-.015-.041 0 0a.549.549 0 00-.031-.056c-.035-.065.036.029-.02-.024-.056-.053.053.016-.023-.017-.037-.02-.036-.02 0 0h-.012a.133.133 0 00.122-.026.217.217 0 00.109-.15.494.494 0 010 .123c0 .187-.01.375-.032.56-.04.402-.124.799-.25 1.182a.379.379 0 01-.647.148.373.373 0 01-.093-.247c.049-.605.173-1.2.37-1.774a.381.381 0 01.414-.27.377.377 0 01.327.37 4.748 4.748 0 01-.345 1.698.378.378 0 01-.74-.1c-.01-.604.137-1.2.428-1.728a.38.38 0 01.702.19l-.026.698a.378.378 0 01-.643.267.378.378 0 01-.11-.267 1.639 1.639 0 01.301-1.003.387.387 0 01.425-.174.38.38 0 01.27.36 6.918 6.918 0 01-.377 1.772.387.387 0 01-.464.264.389.389 0 01-.264-.465c.071-.406.172-.806.302-1.197a.379.379 0 01.646-.147c.06.068.094.156.094.247-.014.452-.08.9-.2 1.337-.114.417-.726.323-.74-.1a3.775 3.775 0 01.396-1.813.379.379 0 01.515-.136.385.385 0 01.135.517l-.007.01z"/><path fill="#131314" d="M55.008 31.71v.022a.486.486 0 01-.013-.052c0-.001.038.07 0 .02a.399.399 0 01-.027-.045c0 .007.051.057.009.013l-.038-.039c-.042-.044 0 .014.014 0a.332.332 0 01-.046-.03l-.048-.027c-.053-.03 0 .01.015 0a.72.72 0 01-.117-.035c-.033-.008-.04-.008 0 0h-.218c-.385.012-.774.104-1.145-.048a.386.386 0 01-.264-.464c.057-.177.268-.345.464-.265.049.021.1.038.151.05l.063.012c-.054-.009-.02 0 .016 0 .1.007.2.007.301 0 .216-.03.434-.037.651-.022.251.02.489.12.68.284a.888.888 0 01.302.633.381.381 0 01-.377.377.385.385 0 01-.377-.377l.005-.006zM56.38 41.634l-3.167-.875.478-.364c-.054 1.208.651 2.266 1.704 2.857.423.239.043.892-.38.653-1.259-.709-2.144-2.034-2.078-3.51a.383.383 0 01.477-.364l3.166.875c.467.128.268.858-.2.728zM54.25 44.864a3.125 3.125 0 01-1.174-1.035.38.38 0 01.427-.556.42.42 0 01.224.174l.09.124-.06-.077c.143.183.308.348.49.49l-.076-.058c.141.11.293.205.452.287.086.049.15.13.176.225a.394.394 0 01-.037.292.386.386 0 01-.516.134h.003zM54.971 28.175a5.881 5.881 0 00-1.185.343c-.327.135-.663.245-.989.384-.377.163-.565.453-.787.023a.142.142 0 01-.026-.097.167.167 0 01.049-.068c.236-.224.475-.444.723-.654.219-.216.462-.404.725-.562a5.807 5.807 0 011.45-.454c.253-.051 1.067-.312.975.216-.049.278-.14.547-.27.797a5.775 5.775 0 00-.665.072z"/><path fill="#fff" d="M92.932 52.337l-.518 4.848a.847.847 0 01-.932.753l-9.445-1.01a.848.848 0 01-.752-.932l.518-4.849 6.016-3.623 5.113 4.813z"/><path fill="#231F20" fill-rule="evenodd" d="M87.923 47.414a.151.151 0 00-.182-.02l-6.017 3.623a.151.151 0 00-.072.114l-.518 4.848a1 1 0 00.887 1.1l9.445 1.01a.999.999 0 001.098-.888l.519-4.849a.151.151 0 00-.047-.126l-5.113-4.812zm-.124.299l4.974 4.682-.51 4.774a.696.696 0 01-.765.618l-9.445-1.01a.696.696 0 01-.618-.766l.51-4.773 5.854-3.525z" clip-rule="evenodd"/><path fill="#fff" d="M92.932 52.336L88.88 54.17l-3.631-.388-3.446-2.635"/><path fill="#231F20" fill-rule="evenodd" d="M93.07 52.274a.151.151 0 00-.2-.076l-4.015 1.817-3.548-.38-3.413-2.608a.151.151 0 10-.184.24l3.446 2.635a.151.151 0 00.076.03l3.632.389a.152.152 0 00.078-.013l4.052-1.834a.151.151 0 00.076-.2z" clip-rule="evenodd"/><path fill="#231F20" fill-rule="evenodd" d="M88.776 54.06a.152.152 0 00-.007.213l2.18 2.347a.151.151 0 10.222-.207l-2.18-2.346a.152.152 0 00-.215-.008zM85.376 53.696a.151.151 0 00-.21-.038l-2.627 1.833a.151.151 0 10.173.248l2.627-1.832a.152.152 0 00.037-.211z" clip-rule="evenodd"/><path fill="#fff" d="M88.88 54.17l-3.632-.388-1.674-1.28.665-6.221a.53.53 0 01.583-.47l6.286.671a.53.53 0 01.471.583l-.66 6.183-2.04.922z"/><path fill="#231F20" fill-rule="evenodd" d="M91.582 46.581a.682.682 0 00-.458-.25l-6.287-.67a.68.68 0 00-.749.604l-.665 6.22a.152.152 0 00.059.137l1.674 1.28a.153.153 0 00.076.03l3.631.389a.152.152 0 00.079-.013l2.039-.922a.151.151 0 00.088-.122l.66-6.183a.681.681 0 00-.147-.5zm-.49.052a.379.379 0 01.336.416l-.651 6.097-1.923.87-3.548-.38-1.572-1.203.655-6.136a.378.378 0 01.416-.336l6.287.672z" clip-rule="evenodd"/><path fill="#231F20" fill-rule="evenodd" d="M90.3 48.013a.151.151 0 00-.134-.167l-1.368-.146a.152.152 0 00-.032.301l1.368.146a.151.151 0 00.167-.134zM89.77 49.707a.152.152 0 00-.135-.167l-4.275-.457a.151.151 0 10-.032.302l4.275.456a.152.152 0 00.167-.134zM89.665 50.676a.151.151 0 00-.134-.166l-4.275-.457a.151.151 0 10-.032.301l4.275.457a.151.151 0 00.166-.135zM89.562 51.645a.151.151 0 00-.135-.167l-4.274-.456a.151.151 0 10-.033.301l4.275.457a.151.151 0 00.167-.135zM82.129 44.592a.152.152 0 00.046.21l1.274.816a.151.151 0 10.163-.255l-1.274-.817a.151.151 0 00-.21.046zM84.746 43.474a.152.152 0 00-.166.134l-.14 1.3a.151.151 0 10.302.031l.139-1.299a.151.151 0 00-.135-.166zM83.554 46.695a.151.151 0 00-.135-.167l-1.346-.144a.152.152 0 00-.032.301l1.346.144a.151.151 0 00.167-.134z" clip-rule="evenodd"/><path fill="#000" fill-rule="evenodd" d="M106.007 51.255l1.71 1.71a.268.268 0 010 .38l-1.71 1.709a.268.268 0 01-.379-.38l1.387-1.387v-.265l-1.387-1.387a.268.268 0 01.379-.38zm-8.209 2.168h-.512v-.537h.512v.537zm2.048 0h-1.024v-.537h1.024v.537zm2.049 0h-1.025v-.537h1.025v.537zm2.048 0h-1.024v-.537h1.024v.537zm2.048 0h-1.024v-.537h1.024v.537z" clip-rule="evenodd"/><defs><clipPath id="clip0_6011_119703"><path fill="#fff" d="M0 0h14.142v14.142H0z" transform="rotate(-11.129 290.206 -534.33)"/></clipPath></defs></svg>