<svg xmlns="http://www.w3.org/2000/svg" width="153" height="133" fill="none" viewBox="0 0 153 133"><path fill="#fff" d="M73.155 132.845c36.684 0 66.423-29.739 66.423-66.423S109.839 0 73.155 0 6.733 29.738 6.733 66.422s29.738 66.423 66.422 66.423z"/><path fill="#DDE1E8" d="M81.865 102.578c14.112 0 25.551-11.44 25.551-25.551 0-14.111-11.44-25.55-25.55-25.55-14.112 0-25.551 11.439-25.551 25.55s11.44 25.551 25.55 25.551z"/><path fill="#282A2B" d="M21.512 28.91c.425-1.895.894-3.87 2.138-5.355 1.591-1.89 4.123-2.63 6.517-3.275l12.726-3.444c3.087-.835 5.767-1.557 8.887-.535a13.727 13.727 0 018.796 17.575c-.386 1.122-.916 2.196-1.198 3.35-.325 1.354-.289 2.765-.419 4.152-.204 2.206-.83 4.347-1.43 6.48a296.703 296.703 0 00-6.79 30.102c-.702-1.68-2.001-3.333-3.809-3.593-.51-.071-1.049-.033-1.527-.24-4.123-1.804-2.944-7.246-1.793-10.8.434-1.34.764-2.655 1.078-4.032-.087.386 3.587.153 3.992-.118.864-.563 1.706-2.13 2.29-2.982 1.879-2.77 3.027-5.998 3.636-9.275.61-3.276.89-6.675.466-10.006-.214-1.68-.677-3.234-1.172-4.842-.45-1.466-.82-1.56-2.42-1.406-3.278.315-6.523-.847-9.467-2.326a11.731 11.731 0 01-2.261-1.387c-1.058-.878-1.822-2.054-2.569-3.207.578 2.545 1.158 5.176.697 7.746-.568 3.175-2.634 5.833-4.244 8.627-.412-1.705-1.087-3.68-2.768-4.182-1.548-.458-3.237.725-3.762 2.254-.526 1.528-.124 3.232.581 4.685.36.74.813 1.46 1.48 1.942.667.48 1.582.68 2.325.331a54.745 54.745 0 00-1.047 10.86c-.104 1.09-.21 2.191-.571 3.223-.68 1.93-2.219 3.467-3.97 4.517-.503-.056-1.985.994-2.524 1.202-.855.331-1.68.61-2.576.698-2.074.215-4.172.406-6.26.651-.97.114.022-3.576.103-4.006.298-1.596.604-3.191.916-4.784a990.847 990.847 0 015.949-28.6z"/><path fill="#2C5CC5" d="M77.912 111.232a27.34 27.34 0 00-3.239-1.84c-2.869-1.45-5.915-2.837-7.932-5.344-1.527-1.893-2.321-4.254-3.218-6.515-2.548-6.433-6.124-12.4-9.683-18.336-.701-1.17-1.57-2.596-2.66-3.462-1.274-1.007-3.22-1.307-4.68-2.015-.639-.306-1.295-.672-1.672-1.274a1.965 1.965 0 01-.144-.275c.252.897.495 1.796.799 2.68.826 2.392 2.58 4.276 4.023 6.317 2.046 2.885 3.817 6.17 4.155 9.747.162 1.7.124 3.257-.493 4.85-.703 1.824-2.153 4.202-3.648 5.472 1.19-2.901 1.388-6.172.797-9.256-.591-3.085-1.942-5.992-3.717-8.585-1.392-2.035-3.069-3.932-3.927-6.245-.844-2.275-.826-4.763-1.622-7.048-.905-2.612-2.686-2.66-4.9-3.833-1.893-1.01-3.235-1.784-4.663-3.398a.763.763 0 00-.313-.247c-.337-.105-.61.272-.785.58a7.52 7.52 0 01-1.934 2.239c-1.697 1.314-3.858 1.832-5.946 2.327-2.703.632-5.116 1.19-7.713 2.208l-5.239 2.043c-1.425.557-2.76.843-3.798 2.041-1.009 1.168-1.57 2.69-1.832 4.196-.357 2.105-.185 4.258-.244 6.39-.078 2.786-.547 5.545-.753 8.323-.118 1.597-.153 3.206-.177 4.8l-.193 10.155c-.062 3.359-.117 6.788.85 10.009.966 3.22 3.142 6.26 6.304 7.405 2.178.787 4.092 1.782 6.377 2.167 1.727.292 3.483.371 5.234.458 7.094.319 14.212.639 21.286.032 1.985-.169 4.034-.479 6.033-.32 1.225.121 2.443.306 3.65.555.848.153 2.381.643 3.17.188 1.236-.714 0-2.279-.294-3.185a17.497 17.497 0 01-.838-4.41c-.168-2.948.458-5.993 2.176-8.436.586-.835 1.971-.037 1.374.806-1.43 2.037-2.03 4.543-1.985 7.01.027 1.235.202 2.462.52 3.656.164.611.213 1.718.805 2.092.54.34 1.187-.089 1.717-.22-.18-.293-.553-.388-.726-.684-.204-.348-.163-.973-.217-1.374a12.531 12.531 0 01-.04-3.044c.146-1.345.294-4.049 1.69-4.733 1.543-.764 3.374-.318 4.976-.895 1.841-.666 3.465-1.542 5.422-1.918 3.162-.611 6.413-.485 9.62-.232.006-.003-1.516-1.458-1.753-1.622zm-26.645 1.457l-.07.043c-.66.458-1.248 1.527-1.495 2.275.56-1.709-.434-3.521-1.546-4.935a13.91 13.91 0 00-2.234-2.321c-1.985-1.573-4.509-2.323-7.024-2.545-2.515-.223-5.048.041-7.561.305 2.565-.819 5.65-1.806 8.37-1.649 2.632.153 5.2 1.018 7.483 2.307 2.162 1.222 3.218 3.512 5.052 5.092.991.86-.48 1.161-.975 1.428z"/><path fill="#131314" fill-rule="evenodd" d="M84.699 38.42c-8.478-.471-17.096 1.886-23.767 6.993l-.824-1.076c6.955-5.324 15.902-7.758 24.668-7.27h.005c10.379.648 20.457 5.348 27.138 14.125l.965.966.032.046a46.878 46.878 0 014.7 8.263l.002.005.002.005c2.605 6.186 3.422 12.854 2.544 19.524l-1.344-.177c.848-6.441.059-12.863-2.447-18.815a45.498 45.498 0 00-4.528-7.973l-.95-.952-.028-.036c-6.414-8.45-16.122-13-26.168-13.629z" clip-rule="evenodd"/><path fill="#131314" d="M60.242 47.981a36.812 36.812 0 0116.022-7.088c.17-.029.098-.287-.072-.256a36.981 36.981 0 00-16.086 7.112c-.135.104 0 .336.136.232zM78.219 40.253c.906-.12 1.808-.25 2.715-.362a.058.058 0 100-.116 7.503 7.503 0 00-2.724.408c-.035.012-.034.076.009.07zM118.048 79.928c.432-1.872.239-4.02-.249-5.863a.064.064 0 00-.077-.044.063.063 0 00-.044.078c.396 1.984.4 3.826.353 5.826a.023.023 0 00.003.004l.005.002c.002 0 .004 0 .005-.002a.01.01 0 00.004-.004v.003zM42.183 66.117c.236-2.043.139-4.122.548-6.144.1-.53.253-1.048.458-1.547a.396.396 0 00-.137-.522.384.384 0 00-.523.136c-.844 1.985-.846 4.216-.966 6.334a29.055 29.055 0 01-.14 1.743.385.385 0 00.383.382.391.391 0 00.381-.382h-.004z"/><path fill="#131314" d="M32.22 50.327a18.662 18.662 0 002.75 3.523 16.695 16.695 0 003.531 2.767c1.326.754 2.772 1.28 4.228 1.724.72.218 1.446.43 2.176.61a2.739 2.739 0 001.985-.305c.611-.331 1.136-.816 1.648-1.284a19.63 19.63 0 001.504-1.5 18.085 18.085 0 002.443-3.622c1.45-2.8 2.236-5.879 2.733-8.978.272-1.68.458-3.372.666-5.059.202-1.585.379-3.18.199-4.775a13.172 13.172 0 00-.205-1.266c-.102-.48-.838-.276-.736.203.327 1.527.292 3.085.124 4.635-.173 1.597-.37 3.196-.593 4.787-.426 3.054-1.052 6.132-2.316 8.963a19.16 19.16 0 01-2.106 3.666 18.263 18.263 0 01-2.825 2.932c-.458.39-.97.763-1.57.892a1.76 1.76 0 01-.83-.045c-.36-.095-.716-.194-1.069-.296-1.405-.395-2.81-.83-4.123-1.46-2.568-1.221-4.765-3.273-6.366-5.61-.203-.29-.393-.586-.57-.887-.254-.42-.915-.036-.659.385h-.018zM43.075 37.18a4.981 4.981 0 00-.517 2.376c.014.424.633.527.75.102a7.717 7.717 0 00.266-1.771c.015-.444-.62-.5-.75-.1a11.105 11.105 0 00-.408 1.609.383.383 0 00.738.203c.272-.76.442-1.554.505-2.36a.383.383 0 00-.28-.367.397.397 0 00-.431.175 2.09 2.09 0 00-.386 1.289.382.382 0 00.763 0l.035-.94a.385.385 0 00-.712-.193 4.498 4.498 0 00-.528 2.273.383.383 0 00.33.376.39.39 0 00.42-.273 6.32 6.32 0 00.458-2.257.381.381 0 00-.591-.316.39.39 0 00-.16.214 9.577 9.577 0 00-.495 2.359.376.376 0 00.331.374.385.385 0 00.419-.273 7.466 7.466 0 00.375-2.317.675.675 0 000-.168c.058.034-.134.107-.152.113-.019.006-.022-.01.024 0-.025-.017-.018-.014.023.01.05.027.012 0 .055.042a.526.526 0 01.136.391c-.02.22-.08.434-.174.634-.202.513-.408 1.024-.61 1.537a.383.383 0 00.265.47.39.39 0 00.47-.267c.192-.487.386-.974.58-1.46.17-.425.329-.906.165-1.361-.152-.43-.574-.866-1.069-.745-.597.143-.447.865-.48 1.326a6.644 6.644 0 01-.329 1.589l.75.102c.064-.736.221-1.46.469-2.156l-.75-.101a5.75 5.75 0 01-.434 2.054l.75.1a3.725 3.725 0 01.424-1.888l-.711-.193-.035.94h.763a1.418 1.418 0 01.283-.903l-.712-.193a8.287 8.287 0 01-.492 2.16l.738.203c.093-.548.226-1.088.398-1.616l-.75-.102a6.818 6.818 0 01-.237 1.568l.75.1a4.152 4.152 0 01.412-1.984.393.393 0 00-.138-.523.386.386 0 00-.522.138h.008z"/><path fill="#131314" d="M51.2 39.243a5.437 5.437 0 00-.483 1.575.387.387 0 00.22.451.379.379 0 00.476-.153c.22-.416.318-.887.282-1.357a.388.388 0 00-.33-.376.378.378 0 00-.42.273l-.242 1.451a.39.39 0 00.221.45.379.379 0 00.477-.152 5.521 5.521 0 00.458-2.507l-.382.381c.252 0 .498.074.709.213l-.175-.431-.763 2.176.75.1.08-1.11a.379.379 0 00-.591-.314.39.39 0 00-.16.212l-.513 1.36.736.202a.36.36 0 01.017-.073c-.015.032-.012.03.01-.01l.009-.01c-.031.018-.028.017.01-.007a.385.385 0 00.14-.524.382.382 0 00-.523-.14.85.85 0 00-.397.555.384.384 0 00.266.47.382.382 0 00.47-.267l.513-1.359-.75-.1-.08 1.11a.379.379 0 00.59.315.387.387 0 00.16-.213l.764-2.176a.39.39 0 00-.176-.432 2.075 2.075 0 00-1.094-.316.383.383 0 00-.382.382 4.68 4.68 0 01-.358 2.122l.698.295.243-1.45-.75-.102c.036.335-.026.672-.177.973l.698.293c.065-.482.202-.952.406-1.394a.392.392 0 00-.136-.522.384.384 0 00-.522.137l.002-.001zM44.278 32.967a9.042 9.042 0 00-1.874-.052c-.536.041-1.069.046-1.608.096-.623.06-1.026.385-1.151-.334a.219.219 0 01.009-.153.211.211 0 01.1-.076c.447-.214.894-.422 1.35-.61.457-.19.842-.407 1.31-.477a8.86 8.86 0 012.31 0c.39.043 1.69.044 1.311.763-.2.379-.457.724-.763 1.023a9.228 9.228 0 00-.994-.18zM35.308 23.09c.622 1.434 1.76 2.563 3.01 3.471 1.25.909 2.619 1.59 4.002 2.244 1.6.763 3.233 1.488 4.96 1.908 1.769.43 3.604.514 5.405.248a11.253 11.253 0 005.462-2.323.386.386 0 000-.54.39.39 0 00-.54 0c-2.645 2.137-6.414 2.667-9.67 1.985-1.655-.347-3.217-.996-4.744-1.704-1.363-.634-2.728-1.288-3.983-2.121-1.352-.898-2.587-2.039-3.242-3.552a.386.386 0 00-.522-.137.393.393 0 00-.138.523v-.003z"/><path fill="#131314" d="M36.135 24.633c.476.886.819 1.838 1.018 2.825a14.86 14.86 0 01.391 3.414 8.95 8.95 0 01-.125 1.527 6.179 6.179 0 01-.168.702 3.235 3.235 0 01-.21.54c-.499.992-1.016 1.977-1.528 2.962-.586 1.123-1.172 2.253-1.832 3.334-.258.42.402.803.66.385 1.207-1.97 2.214-4.068 3.273-6.12.478-.927.654-1.936.692-2.973a15.247 15.247 0 00-.322-3.56c-.237-1.177-.585-2.375-1.185-3.423-.243-.426-.904-.04-.658.387h-.006zM29.096 40.089a1.16 1.16 0 011.178-.844c.75 0 1.49.5 2.102.9.412.27.795-.39.384-.66-.763-.497-1.68-1.068-2.632-1a1.929 1.929 0 00-1.768 1.4c-.133.474.61.677.736.204z"/><path fill="#131314" d="M30.96 39.035c-.631.417-.442 1.296-.199 1.886a3.677 3.677 0 001.295 1.618.385.385 0 00.522-.137.391.391 0 00-.136-.522 2.86 2.86 0 01-.93-1.133 3.003 3.003 0 01-.207-.68c0-.027 0-.026 0 0v-.038a.728.728 0 010-.08v-.099c0-.007.009-.08 0-.045-.01.035.052-.136.018-.07.01-.021.022-.041.035-.06-.049.062.055-.026-.01.017a.382.382 0 10-.384-.66l-.005.003z"/><path fill="#131314" d="M34.356 40.111c.02-1.6-.878-3.214-2.364-3.881a3.873 3.873 0 00-4.224.637c-.94.867-1.421 2.15-1.526 3.405-.106 1.296.224 2.657 1.108 3.639a4.449 4.449 0 004.412 1.299c.473-.133.271-.87-.204-.736a3.664 3.664 0 01-3.33-.771c-.863-.751-1.221-1.81-1.241-2.901-.012-1.048.285-2.167.943-2.987a3.073 3.073 0 013.207-1.076c1.51.393 2.477 1.85 2.457 3.38 0 .492.763.492.763 0l-.001-.008zM29.637 60.803c.24-3.437.14-6.91.692-10.319.147-.933.357-1.854.63-2.758.154-.47-.59-.672-.735-.203-1.032 3.349-1.069 6.925-1.206 10.397a90.938 90.938 0 01-.144 2.883.381.381 0 10.764 0z"/><path fill="#131314" d="M17.379 65.584c.647-3.947 1.295-7.894 1.892-11.849A326.23 326.23 0 0020.87 41.84c.433-3.833.72-7.702 1.617-11.465.209-.874.465-1.737.697-2.608.214-.801.42-1.604.659-2.4.458-1.536 1.052-3.068 2.049-4.343a7.001 7.001 0 013.664-2.412c1.41-.406 2.888-.486 4.348-.49.37 0 .743 0 1.114.01.492.01.492-.754 0-.763-2.971-.054-6.245.04-8.638 2.048-2.608 2.188-3.266 5.784-4.122 8.892a47.05 47.05 0 00-1.222 5.658c-.293 1.942-.496 3.895-.704 5.846-.427 4.026-.95 8.037-1.54 12.04-.589 4.004-1.242 8.03-1.899 12.04-.08.498-.163.996-.244 1.492a.394.394 0 00.266.47.384.384 0 00.47-.266l-.006-.004z"/><path fill="#131314" d="M33.77 17.878c3.174-.562 6.342-1.182 9.532-1.634 2.875-.408 5.866-.675 8.75-.197 1.35.206 2.659.618 3.882 1.222 1.157.594 2.2 1.388 3.079 2.347 1.772 1.925 2.863 4.397 3.249 6.975a15.128 15.128 0 01-1.06 8.137c-.134.305-.28.62-.436.916-.225.437.433.823.658.385a15.935 15.935 0 001.716-8.383c-.199-2.767-1.135-5.467-2.831-7.673-.813-1.072-1.798-2.001-2.916-2.749a12.61 12.61 0 00-3.941-1.68c-2.886-.71-5.914-.586-8.843-.245-3.3.385-6.566 1.038-9.838 1.617l-1.203.214a.384.384 0 00-.266.468.388.388 0 00.469.268v.012z"/><path fill="#131314" d="M59.231 33.778a12.87 12.87 0 01.206 4.497c-.088.746-.256 1.48-.37 2.223a35.977 35.977 0 00-.27 2.29c-.135 1.542-.236 3.086-.396 4.625-.16 1.54-.362 3.102-.585 4.647-.442 3.064-.974 6.117-1.51 9.161-.536 3.045-1.07 6.1-1.527 9.162-.458 3.062-.822 6.145-1.013 9.237-.024.382-.045.766-.064 1.15-.023.49.74.49.764 0 .152-3.105.482-6.197.916-9.274.434-3.076.963-6.117 1.498-9.161.54-3.077 1.085-6.154 1.548-9.246.463-3.092.808-6.193 1.05-9.314a55.2 55.2 0 01.213-2.29c.091-.764.238-1.485.365-2.227.274-1.512.314-3.057.117-4.581a11.664 11.664 0 00-.209-1.107c-.113-.478-.85-.276-.736.203l.003.005zM55.596 36.163a1.931 1.931 0 00-.571-1.535 5.883 5.883 0 00-.659-.603c-.07-.05-1.125-.64-1.094-.663-.265.221-.45.523-.527.86-.122.447.861 1.041 1.16 1.293.245.187.475.39.689.611.305.354.324.86.592 1.237.254-.27.266-.577.356-.916.026-.093.043-.188.054-.284z"/><path fill="#000" d="M20.405 61.31c.283.005.565-.028.839-.1 1.406-.34 2.725-.969 4.016-1.625.668-.34 1.343-.695 1.905-1.194 1.178-1.048 1.74-2.605 2.257-4.094-.188.54.015 1.895.038 2.522.035.958.058 1.89.014 2.854-1.461.306-2.124 1.962-3.16 3.039-1.126 1.173-2.76 1.68-4.319 2.138l-4.993 1.48c.295-.088.458-3.32.508-3.727.182-1.346.373-2.76.89-4.025.517 1.306.631 2.68 2.006 2.732zM42.737 67.317c-.153.634-.525 1.164-.287 1.87.153.444.502.787.857 1.096 1.192 1.04 2.21 1.559 3.654 2.1 1.336.499 2.64 1.22 3.512 2.377.417.593.771 1.227 1.056 1.893l2.146 4.581a46.576 46.576 0 001.14-10.527c-.923.593-2.12.504-3.19.297a18.69 18.69 0 01-5.21-1.824c-.47-.246-.95-.537-1.197-1.006-.458-.883.086-2.03-.33-2.936-.474-1.039-1.935-1.239-2.574-2.184-.429.55-.252 1.347 0 1.994.252.648.553 1.341.458 2.046a.847.847 0 01-.035.223z"/><path fill="#131314" d="M44.331 37.621c-.032-.649-.595-1.038-1.196-1.11a4.268 4.268 0 00-.86.03c-.26.041-.527.015-.775-.077a.385.385 0 00-.47.267.392.392 0 00.267.469c.489.201 1.006.076 1.513.061h.186c.062 0 .104.01.13.014.056.01.111.026.165.044.057.02-.044-.023.01 0l.065.035c.021.014.043.026.063.041.048.034-.035-.033.009.008l.052.052s.049.058.027.03c-.021-.027.017.03.02.035.003.007.032.07.02.034-.012-.037 0 .032 0 .038.017.058 0-.085 0 .023a.382.382 0 10.763 0l.011.006zM52.978 39.012c-.401-.316-.86-.397-1.358-.443l-.306-.029-.084-.009c-.035 0-.072-.009-.017 0l-.152-.024a2.226 2.226 0 01-.306-.084c-.067-.025.025.017-.014 0-.038-.017-.047-.025-.071-.037a1.415 1.415 0 01-.136-.09.381.381 0 00-.522.136.393.393 0 00.136.522c.372.277.845.33 1.291.371.103.01.205.017.306.03l.067.007c.108.01-.046-.01.017 0a2.216 2.216 0 01.45.11c.052.018-.05-.028 0 0 .023.014.047.024.072.036l.055.034c.008 0 .093.067.029.017a.394.394 0 00.54 0c.126-.137.167-.41 0-.54l.003-.007zM30.517 43.63c-.17.427-1.425 4.335-1.553 4.312-.185-.035.597-1.92.683-2.103.316-.673.78-1.267 1.09-1.936a.177.177 0 00-.277-.212c-.742.728-1.197 1.864-1.55 2.83-.143.393-.754 1.726-.247 2.094.568.412.764-.846.837-1.124.365-1.28.66-2.579 1.049-3.852.008-.02-.024-.028-.032-.01z"/><path fill="#131314" d="M30.608 43.8h.014l-.075.009h.019l-.077-.011h.017l-.07-.029.015.008a.328.328 0 00.153.044l-.153-.041-.061-.046-.047-.06-.03-.072-.012-.08a.01.01 0 01.002.004.01.01 0 01-.002.005l.042-.153.047-.061.134-.078a.536.536 0 00-.08.034l.071-.03.08-.012.08.011.07.03.06.048a.328.328 0 00-.13-.076l-.077-.011a.22.22 0 00-.113.026.136.136 0 00-.066.038.14.14 0 00-.052.052.152.152 0 00-.038.066.217.217 0 00-.026.113.328.328 0 00.153.273c.023.016.05.027.078.034a.363.363 0 00.161 0 .325.325 0 00.188-.145c0-.017.026-.059.032-.077a.373.373 0 00-.035-.249.342.342 0 00-.116-.113.327.327 0 00-.24-.029h.153a.339.339 0 00-.39.159l-.027.066-.01.073c0 .06.021.12.06.166.011.02.028.038.048.05a.163.163 0 00.061.036c.057.025.12.03.18.014l.01.014z"/><path fill="#231F20" d="M47.155 42.993l.458 1.779.224.872.113.435.055.218c.01.03.017.063.024.095.01-.045.005-.036-.018.027l.1-.167c-.077.097-.292.135-.411.183l-.584.227a.394.394 0 00-.267.47.385.385 0 00.47.266l.652-.253c.219-.06.426-.156.611-.286.382-.34.126-.898.02-1.31l-.711-2.76c-.123-.474-.86-.272-.736.204z"/><path fill="#131314" d="M42.015 65.311l.097.07-.078-.059c.128.098.242.212.34.339l-.06-.078c.1.131.185.274.25.426l-.038-.091c.015.036.03.074.043.111a.412.412 0 00.176.229.383.383 0 00.56-.43 2.35 2.35 0 00-.904-1.176.383.383 0 00-.562.432c.03.094.093.174.176.227z"/><path fill="#131314" d="M45.249 105.542a23.799 23.799 0 005.66-5.956c1.486-2.26 2.57-4.872 2.685-7.6.122-2.902-1.08-5.667-2.53-8.126-.764-1.294-1.62-2.533-2.482-3.765a141.286 141.286 0 01-2.76-4.053c-.88-1.342-1.802-2.689-2.462-4.157-.599-1.33-.945-2.856-.63-4.305.07-.345.182-.68.332-.999a.391.391 0 00-.137-.522.385.385 0 00-.522.136c-.66 1.393-.678 2.975-.294 4.448.394 1.507 1.191 2.875 2.019 4.18.902 1.426 1.834 2.831 2.797 4.217.854 1.233 1.73 2.452 2.552 3.709a28.301 28.301 0 012.205 3.935c.559 1.258 1.01 2.596 1.125 3.982.223 2.636-.62 5.233-1.92 7.5a22.374 22.374 0 01-5.29 6.145c-.24.195-.484.385-.73.568a.392.392 0 00-.136.522.38.38 0 00.522.137l-.004.004z"/><path fill="#131314" d="M42.568 65.726c-2.026.633-4.155-.099-6.036-.87a37.958 37.958 0 01-5.627-2.884 10.3 10.3 0 01-1.32-.89c-.285-.248-.648-.611-.575-1.028a.393.393 0 00-.267-.469.383.383 0 00-.469.266c-.19 1.082.725 1.799 1.527 2.324a38.32 38.32 0 002.918 1.725c.999.533 2.017 1.02 3.054 1.463a19.81 19.81 0 003.199 1.12c1.246.29 2.556.366 3.79-.02.467-.146.267-.883-.203-.737h.009z"/><path fill="#131314" d="M28.214 59.616c-.832 1.488-1.802 2.915-3.304 3.794-.896.527-1.91.86-2.901 1.157-1.061.318-2.138.569-3.222.814a67.436 67.436 0 00-6.525 1.787c-2.15.722-4.266 1.542-6.378 2.367-.812.317-1.593.633-2.277 1.184a5.023 5.023 0 00-1.302 1.616c-.745 1.445-.88 3.106-1.03 4.697-.439 4.722-.744 9.456-.915 14.2-.153 4.065-.107 8.133-.255 12.196-.124 3.41-.242 6.855.296 10.231.226 1.59.686 3.138 1.365 4.593a10.368 10.368 0 003.261 3.834c3.341 2.443 7.556 3.407 11.605 3.868 4.635.53 9.334.681 13.998.628 2.354-.026 4.704-.127 7.054-.274 2.35-.146 4.66-.282 6.995-.261a65.11 65.11 0 013.444.127c.49.03.488-.733 0-.764a65.218 65.218 0 00-6.95-.062c-2.29.099-4.58.284-6.87.375-4.658.187-9.321.118-13.97-.207-4.24-.297-8.578-.752-12.452-2.625-1.68-.809-3.3-1.872-4.445-3.359-.916-1.194-1.498-2.618-1.882-4.065-.863-3.236-.846-6.681-.756-10.014.043-1.56.119-3.121.153-4.682.04-2.13.027-4.254.076-6.38.107-4.676.346-9.347.72-14.012.09-1.16.192-2.319.304-3.478.061-.842.175-1.679.34-2.506.306-1.374.926-2.639 2.152-3.41.814-.513 1.769-.801 2.662-1.148 1.038-.403 2.078-.8 3.124-1.182a63.952 63.952 0 016.427-2.017c2.116-.528 4.275-.907 6.338-1.617.916-.318 1.842-.678 2.647-1.232a8.114 8.114 0 001.759-1.672c.512-.669.971-1.377 1.374-2.117.24-.429-.418-.813-.66-.384z"/><path fill="#131314" d="M52.338 111.379c-2.107-3.326-5.46-5.764-9.206-6.926a18.925 18.925 0 00-6.735-.785c-1.158.07-2.308.236-3.439.496-1.103.27-2.19.604-3.254 1-2.241.793-4.704 1.733-7.085.974-.468-.152-.67.588-.203.736 2.138.684 4.383.098 6.44-.61 1.048-.359 2.084-.764 3.148-1.069a19.943 19.943 0 013.272-.671c4.178-.487 8.458.373 11.973 2.726a15.332 15.332 0 014.428 4.508c.263.415.916.032.66-.385l.001.006z"/><path fill="#131314" d="M24.892 106.267c-1.77-1.889-2.523-4.459-3.326-6.858l-2.901-8.65-1.637-4.886c-.153-.458-.893-.266-.736.203l2.945 8.794 1.47 4.382c.43 1.281.837 2.573 1.358 3.817.568 1.358 1.275 2.656 2.29 3.737.338.359.877-.182.541-.541l-.004.002zM51.75 111.493c-.925.408-1.629 1.167-2.194 1.986a13.299 13.299 0 00-1.48 2.864 14.452 14.452 0 00-.879 6.444c.064.66.166 1.316.306 1.965.064.305.136.611.216.916.081.306.205.687.597.646a.394.394 0 00.382-.382.381.381 0 00-.382-.381h.017l.17.097-.01-.047c-.016-.069-.038-.139-.056-.208a13.27 13.27 0 01-.087-.349c-.07-.281-.13-.564-.183-.848a15.185 15.185 0 01-.215-1.548 13.868 13.868 0 01.073-3.019c.26-1.953.945-3.826 2.006-5.486.532-.823 1.191-1.582 2.106-1.985a.386.386 0 00.136-.523.39.39 0 00-.522-.137l-.002-.005zM59.149 115.264c0-.574-.205-1.265-.663-1.643a.799.799 0 00-.907-.077c-.25.159-.46.375-.61.631a8.915 8.915 0 00-1.317 2.915c-.544 2.13-.402 4.408.163 6.52.298 1.112.684 2.432 1.758 3.037.429.241.814-.418.386-.66-.763-.433-1.055-1.374-1.292-2.172a13.982 13.982 0 01-.54-2.766c-.165-1.853.047-3.787.89-5.466a7.79 7.79 0 01.41-.724c.118-.22.27-.421.448-.595a.918.918 0 01.078-.057c.027-.018.041-.026.058-.012-.037-.009-.043-.009-.02 0a.735.735 0 01.196.267c.134.245.203.521.2.8 0 .492.763.492.763 0l-.001.002z"/><path fill="#131314" d="M59.143 114.923a10.662 10.662 0 00-.34-1.87 6.687 6.687 0 00-.314-.917c-.152-.328-.43-.424-.763-.441a403.424 403.424 0 01-3.64-.203c-.718-.041-1.434-.081-2.152-.115-.492-.022-.49.741 0 .764 1.43.067 2.859.16 4.286.24.367.021.732.039 1.097.058.17.009.348 0 .517.029-.058-.066-.065-.064-.023 0a9.599 9.599 0 01.579 2.452.393.393 0 00.382.382.384.384 0 00.382-.382l-.011.003zM57.866 125.937a71.028 71.028 0 01-9.517-.421.381.381 0 00-.382.381.391.391 0 00.382.382c3.16.351 6.339.49 9.517.415.49-.01.493-.774 0-.763v.006zM42.26 70.329c1.604 1.221 3.565 1.763 5.343 2.67.75.358 1.428.85 2 1.45a8.348 8.348 0 011.189 1.833c2.01 3.92 4.075 7.81 6.13 11.707 1.057 2.005 2.16 3.993 3.166 6.024.798 1.613 1.432 3.298 2.212 4.92.78 1.622 1.744 3.185 3.054 4.437 1.236 1.176 2.727 2.036 4.244 2.792 2.938 1.462 6.248 2.637 8.357 5.289.29.335.528.712.705 1.118a.394.394 0 00.469.265.384.384 0 00.267-.468c-.325-.859-.983-1.619-1.625-2.263a12.717 12.717 0 00-1.945-1.578c-1.405-.937-2.945-1.641-4.468-2.36-1.522-.72-3.028-1.443-4.38-2.431-1.459-1.069-2.569-2.474-3.435-4.044-.865-1.57-1.527-3.28-2.266-4.926-.896-1.985-1.976-3.887-2.991-5.813l-3.27-6.205C53.97 80.76 52.89 78.8 51.893 76.79c-.327-.71-.7-1.4-1.114-2.062a6.632 6.632 0 00-1.598-1.666c-1.588-1.17-3.573-1.652-5.29-2.596a9.963 9.963 0 01-1.251-.804.384.384 0 00-.522.137.391.391 0 00.137.523l.003.006zM89.353 113.188a4.13 4.13 0 01-2.579 2.698c-.8.271-1.647.306-2.484.306-.476 0-.95.023-1.425.05-.508.031-1.018.076-1.526.078-.509.002-.492.763 0 .763.961 0 1.919-.126 2.88-.128.902 0 1.833-.032 2.693-.305a4.87 4.87 0 001.902-1.145 4.926 4.926 0 001.277-2.108c.14-.471-.596-.673-.736-.203l-.002-.006z"/><path fill="#131314" d="M89.769 112.975c-4.062-.122-8.125-.306-12.17-.709-1.13-.113-2.255-.245-3.375-.395a.395.395 0 00-.47.265.384.384 0 00.267.471c4.074.554 8.178.838 12.286 1.009 1.154.047 2.31.088 3.465.122.491.014.491-.75 0-.763h-.003z"/><path fill="#131314" d="M87.115 120.434l-5.525-4.027c-1.776-1.293-3.536-2.632-5.437-3.739a8.357 8.357 0 00-1.457-.697 5.527 5.527 0 00-1.556-.273c-.534-.024-1.069-.011-1.606-.029-.51-.018-1.02-.047-1.527-.024a5.258 5.258 0 00-1.527.276c-.52.188-1.03.414-1.547.611a65.673 65.673 0 01-10.344 3.014.386.386 0 00-.267.469.39.39 0 00.47.267 65.534 65.534 0 006.353-1.629 68.123 68.123 0 003.086-1.046 62.52 62.52 0 001.599-.611 8.253 8.253 0 011.48-.513c.97-.188 1.986-.044 2.968-.038a8.89 8.89 0 011.546.082c.5.099.982.271 1.431.512a25.396 25.396 0 012.712 1.696c.887.611 1.756 1.248 2.625 1.881l6.138 4.474a.385.385 0 00.522-.136.392.392 0 00-.136-.523l-.001.003z"/><path fill="#131314" d="M86.427 120.84c-1.359 1.209-3.377.763-4.834 0-.856-.443-1.649-.999-2.48-1.487-.412-.243-.826-.486-1.221-.764a13.49 13.49 0 01-1.142-.933 165.65 165.65 0 00-2.78-2.365.387.387 0 00-.54 0 .384.384 0 000 .539c.877.733 1.747 1.473 2.611 2.22.419.362.828.738 1.275 1.069.405.295.835.553 1.266.808 1.716 1.012 3.407 2.336 5.483 2.414a4.107 4.107 0 002.901-.968c.369-.327-.174-.866-.54-.541l.001.008z"/><path fill="#131314" d="M81.792 121.461a7.482 7.482 0 01-4.969-.044c-1.734-.628-3.04-1.985-4.356-3.216l-2.518-2.362c-.357-.336-.9.203-.54.541l2.29 2.156c.724.679 1.434 1.374 2.199 2.009a9.398 9.398 0 002.417 1.493 8.121 8.121 0 002.672.576 8.025 8.025 0 003.008-.423.388.388 0 00.266-.469.384.384 0 00-.47-.267v.006z"/><path fill="#131314" d="M75.063 121.087c-1.23.395-2.535.09-3.665-.458-1.205-.586-2.242-1.448-3.327-2.22a12.917 12.917 0 00-1.923-1.168.392.392 0 00-.522.136.384.384 0 00.138.522c2.49 1.192 4.368 3.559 7.192 4.051a4.809 4.809 0 002.31-.122c.467-.153.267-.888-.202-.736l-.001-.005zM61.421 125.259a11.59 11.59 0 01-4.306-.064.387.387 0 00-.469.267.386.386 0 00.266.469c1.553.316 3.151.339 4.712.066a.387.387 0 00.267-.471.39.39 0 00-.47-.267z"/><path fill="#fff" d="M86.205 126.371l13.031-44.242a1.417 1.417 0 011.361-1.017h49.761a1.419 1.419 0 011.361 1.818l-12.796 43.441H86.205z"/><path fill="#131314" fill-rule="evenodd" d="M150.69 81.867a.734.734 0 00-.331-.078h-49.763a.739.739 0 00-.71.531L87.11 125.694h51.305l12.653-42.954a.748.748 0 00-.379-.87zm-.332-1.433a2.096 2.096 0 012.011 2.688l-12.939 43.926H85.299l13.287-45.11a2.097 2.097 0 012.01-1.504h49.762z" clip-rule="evenodd"/><path fill="#fff" d="M124.662 106.394c1.904-1.657 2.424-4.176 1.162-5.627-1.263-1.452-3.83-1.285-5.734.371-1.905 1.657-2.425 4.176-1.162 5.628 1.262 1.451 3.829 1.284 5.734-.372z"/><path fill="#131314" fill-rule="evenodd" d="M119.427 104.257c-.155.754.002 1.364.353 1.767.35.403.933.643 1.701.594.769-.05 1.657-.396 2.439-1.077.783-.68 1.248-1.512 1.404-2.267.156-.754-.002-1.364-.352-1.767-.351-.403-.933-.643-1.701-.594-.77.05-1.658.396-2.44 1.077-.782.68-1.248 1.512-1.404 2.267zm-2.212-.457c.265-1.282 1.012-2.538 2.134-3.514 1.121-.976 2.47-1.542 3.775-1.627 1.308-.084 2.64.318 3.552 1.366.912 1.048 1.125 2.423.86 3.706-.264 1.282-1.011 2.539-2.133 3.515-1.122.975-2.47 1.541-3.776 1.626-1.307.084-2.64-.318-3.551-1.366-.912-1.048-1.126-2.423-.861-3.706z" clip-rule="evenodd"/><path fill="#fff" d="M86.898 122.462c-11.507-.025-23.092-.188-34.593-.573-1.244-.041-2.7-.078-3.788.645-1.089.722-.826 2.545-.916 3.695l38.659.065"/><path fill="#131314" d="M86.898 122.077c-3.017-.006-6.035-.023-9.053-.049a1101.058 1101.058 0 01-22.657-.432l-2.26-.07c-.627-.022-1.257-.054-1.884-.034-1.115.034-2.53.24-3.237 1.208-.587.803-.549 1.916-.564 2.861 0 .222-.009.443-.026.665a.386.386 0 00.382.381H60.685l5.557.011 5.628.009 5.228.009h7.594c.5 0 1.001.011 1.502 0h.064c.492 0 .494-.763 0-.763h-8.021l-5.074-.009-5.555-.009-5.628-.01-5.228-.009h-7.594c-.5 0-1.003-.023-1.504 0h-.064l.382.382c.068-.904-.062-1.857.255-2.723.34-.933 1.572-1.172 2.493-1.233.603-.039 1.206-.014 1.81 0l2.221.071c1.47.044 2.938.086 4.407.126a1100.888 1100.888 0 0017.78.31c2.952.028 5.904.046 8.856.055h1.092c.492 0 .492-.764 0-.764l.012.017z"/><path fill="#000" d="M21.732 101.543c-.33-.833-.346-1.746-.646-2.567a18.222 18.222 0 01-.695-2.228c-.64-2.808-1.849-5.396-2.684-8.156a30.185 30.185 0 01-.72-2.861c.228 1.159 1.348 2.562 1.896 3.62.654 1.257 1.304 2.52 1.948 3.793 1.179 2.318 2.12 4.734 3.732 6.795 1.19 1.527 2.74 2.845 4.604 3.36 2.32.644 4.927 0 7.108 1.029-1.07-.232-2.176.075-3.228.378-1.803.523-6.175 2.692-7.98 2.089-1.587-.536-2.778-3.851-3.335-5.252zM49.715 104.993c-.185-1.484.423-3.122.892-4.455.514-1.47 1.092-2.917 1.669-4.364a18.608 18.608 0 01-3.03 5.051c-1.273 1.527-3.038 2.564-4.194 4.146.18-.246 4.022 2.748 4.352 3.078.75.736 1.975 3.008 3.066 3.132.19.006.38-.01.568-.046a2.2 2.2 0 01.975.111l-3.044-4.09a8.127 8.127 0 01-.98-1.549 3.566 3.566 0 01-.274-1.014z"/><path fill="#131314" d="M118.734 57.641c.073-.07.148-.139.224-.206l.112-.092c.009-.007.073-.055.021-.017l.057-.042a4.566 4.566 0 01.768-.457l.082-.038s.07-.03.037-.017l.036-.014.068-.027c.195-.074.395-.136.598-.183a.383.383 0 00.266-.47.391.391 0 00-.469-.266 5.038 5.038 0 00-2.333 1.296.375.375 0 00-.117.271.375.375 0 00.111.274.386.386 0 00.421.081.385.385 0 00.124-.085l-.006-.008zM43.517 52.172a4.678 4.678 0 002.086.731.385.385 0 00.382-.382.393.393 0 00-.382-.381c-.018 0-.153-.022-.061 0l-.13-.02-.224-.046a3.774 3.774 0 01-.594-.185c-.008 0-.109-.046-.03-.01a4.24 4.24 0 01-.66-.36.385.385 0 00-.523.138.39.39 0 00.136.522v-.007z"/><path fill="#fff" d="M117.622 44.842H75.764v2.99h41.858v-2.99z"/><path fill="#E6EAED" d="M120.338 64.262V74.95a.496.496 0 01-.496.497H78.816a.498.498 0 01-.496-.497V47.567a.498.498 0 01.496-.496h41.031a.498.498 0 01.496.497v6.639"/><path fill="#1E1E1E" d="M69.863 77.792a.23.23 0 100-.458.23.23 0 000 .458zM69.863 73.816a.23.23 0 100-.458.23.23 0 000 .458zM69.863 69.84a.23.23 0 100-.458.23.23 0 000 .458zM69.863 65.862a.23.23 0 100-.458.23.23 0 000 .458zM69.863 61.886a.23.23 0 100-.458.23.23 0 000 .458zM69.863 57.91a.23.23 0 100-.458.23.23 0 000 .458zM73.229 77.792a.23.23 0 100-.458.23.23 0 000 .458zM73.229 73.816a.229.229 0 100-.458.229.229 0 000 .458zM73.229 69.84a.229.229 0 100-.458.229.229 0 000 .458zM73.229 65.862a.23.23 0 100-.458.23.23 0 000 .458zM73.229 61.886a.229.229 0 100-.458.229.229 0 000 .458zM73.229 57.91a.229.229 0 100-.458.229.229 0 000 .458zM76.593 77.792a.23.23 0 100-.458.23.23 0 000 .458zM76.593 73.816a.23.23 0 100-.458.23.23 0 000 .458zM76.593 69.84a.23.23 0 100-.458.23.23 0 000 .458zM76.593 65.862a.23.23 0 100-.458.23.23 0 000 .458zM76.593 61.886a.23.23 0 100-.458.23.23 0 000 .458zM76.593 57.91a.23.23 0 100-.458.23.23 0 000 .458zM79.958 77.792a.23.23 0 100-.458.23.23 0 000 .458zM79.958 73.816a.23.23 0 100-.458.23.23 0 000 .458zM79.958 69.84a.23.23 0 100-.458.23.23 0 000 .458zM79.958 65.862a.23.23 0 100-.458.23.23 0 000 .458zM79.958 61.886a.23.23 0 100-.458.23.23 0 000 .458zM79.958 57.91a.23.23 0 100-.458.23.23 0 000 .458zM83.323 77.64a.229.229 0 100-.458.229.229 0 000 .458zM83.323 73.663a.23.23 0 100-.458.23.23 0 000 .458zM83.323 69.686a.229.229 0 100-.458.229.229 0 000 .458zM83.323 65.71a.23.23 0 100-.459.23.23 0 000 .459zM83.323 61.733a.23.23 0 100-.458.23.23 0 000 .459zM83.323 57.757a.229.229 0 100-.458.229.229 0 000 .458zM86.687 77.64a.229.229 0 100-.458.229.229 0 000 .458zM86.687 73.663a.23.23 0 100-.458.23.23 0 000 .458zM86.687 69.686a.229.229 0 100-.458.229.229 0 000 .458zM86.687 65.71a.23.23 0 100-.459.23.23 0 000 .459zM86.687 61.733a.23.23 0 100-.458.23.23 0 000 .459zM86.687 57.757a.229.229 0 100-.458.229.229 0 000 .458zM90.053 77.64a.229.229 0 100-.458.229.229 0 000 .458zM90.053 73.663a.23.23 0 100-.458.23.23 0 000 .458zM90.053 69.686a.229.229 0 100-.458.229.229 0 000 .458zM90.053 65.71a.23.23 0 100-.459.23.23 0 000 .459zM90.053 61.733a.23.23 0 100-.458.23.23 0 000 .459zM90.053 57.757a.229.229 0 100-.458.229.229 0 000 .458zM93.418 77.64a.23.23 0 100-.458.23.23 0 000 .458zM93.418 73.663a.23.23 0 100-.458.23.23 0 000 .458zM93.418 69.686a.23.23 0 100-.459.23.23 0 000 .459zM93.418 65.71a.23.23 0 100-.459.23.23 0 000 .459zM93.418 61.733a.23.23 0 100-.458.23.23 0 000 .459zM93.418 57.757a.23.23 0 100-.458.23.23 0 000 .458z"/><path fill="#fff" d="M75.627 47.818v24.326a.924.924 0 00.924.916h40.176a.923.923 0 00.916-.916V47.818H75.627z"/><path fill="#E2EAED" d="M88.701 47.818H75.627v24.326a.924.924 0 00.924.916h12.15V47.818z"/><path fill="#D7DFE2" d="M88.701 47.818H75.627v15.196h13.074V47.818z"/><path fill="#BEC9CC" d="M75.559 48.021h2.692v25.02h-2.07a.623.623 0 01-.622-.622V48.02z"/><path fill="#fff" d="M117.682 47.864H78.32v1.742h39.362v-1.742z" opacity=".69"/><path fill="#191919" d="M117.154 73.227h-41.03a.655.655 0 01-.654-.655V45.198a.654.654 0 01.654-.654h41.03a.655.655 0 01.656.654v8.22a.159.159 0 11-.318 0v-8.22a.339.339 0 00-.338-.337h-41.03a.338.338 0 00-.338.337v27.374a.34.34 0 00.338.339h41.03a.339.339 0 00.338-.34V61.884c0-.042.017-.083.046-.112a.159.159 0 01.272.112v10.689a.654.654 0 01-.656.655z"/><path fill="#191919" d="M117.651 56.368a.15.15 0 01-.108-.045.151.151 0 01-.045-.108v-.999a.158.158 0 01.271-.112c.03.03.047.07.047.112v.999a.161.161 0 01-.049.113.158.158 0 01-.116.04zM117.81 48.007H75.47v-2.884a.585.585 0 01.585-.585h41.17a.587.587 0 01.585.585v2.884zm-42.024-.316h41.706v-2.568a.26.26 0 00-.078-.19.264.264 0 00-.189-.079H76.057a.269.269 0 00-.27.269v2.568z"/><path fill="#1E1E1E" d="M77.643 46.754a.476.476 0 100-.953.476.476 0 000 .953zM79.544 46.754a.476.476 0 100-.953.476.476 0 000 .953zM81.444 46.754a.476.476 0 100-.953.476.476 0 000 .953z"/><path fill="#191919" d="M89.257 70.984a.08.08 0 01-.08-.08V50.002a.08.08 0 01.16 0v20.902a.079.079 0 01-.08.08z"/><path fill="#E17A7B" d="M120.172 41.98c.274-.122 1.029-.53 1.178-1.374a.042.042 0 01.014-.023.04.04 0 01.025-.009c.01 0 .018.003.026.01a.04.04 0 01.013.022c.104.44.4 1.234 1.19 1.39a.041.041 0 01.033.035.037.037 0 01-.006.025.034.034 0 01-.02.016c-.644.255-1.114.72-1.185 1.417 0 .03-.008.06-.024.087a.06.06 0 01-.079.021.086.086 0 01-.026-.066c-.078-.743-.417-1.23-1.136-1.48a.036.036 0 01-.016-.014.03.03 0 01-.007-.02c0-.008.001-.015.005-.021a.034.034 0 01.015-.016zM118.755 45.207a.942.942 0 00.562-.654.016.016 0 01.007-.01.018.018 0 01.012-.004c.004 0 .008.002.012.004a.021.021 0 01.007.01c.049.211.191.59.568.665a.015.015 0 01.009.006.015.015 0 01.004.011.015.015 0 01-.004.011.015.015 0 01-.009.007.817.817 0 00-.565.676.08.08 0 01-.012.043.03.03 0 01-.008.008.026.026 0 01-.01.005.023.023 0 01-.01 0 .037.037 0 01-.011-.004c-.009 0-.01-.02-.012-.03a.765.765 0 00-.542-.707.021.021 0 01-.008-.008.022.022 0 01-.003-.011c0-.004.001-.008.004-.011a.017.017 0 01.009-.007z"/><path fill="#2D2D2D" d="M72.02 50.47c.48.213.597.894 1.154 1 .524.097.841-.404 1.174-.709.179-.165.394-.273.625-.14.23.132.36.348.531.52.157.184.38.298.621.318a.891.891 0 00.656-.345c.206-.228.406-.574.748-.588.482-.022.798.43 1.041.78.116.166.391.008.275-.16-.368-.529-.985-1.222-1.701-.832-.246.134-.403.374-.588.575-.185.202-.41.342-.667.168-.403-.275-.63-.87-1.205-.812-.536.053-.739.627-1.17.861-.294.153-.522-.058-.697-.284-.176-.226-.353-.5-.639-.626-.184-.082-.345.19-.152.273h-.007zM69.563 52.069c.279.525.778 1.148 1.441.823.415-.203.85-.984 1.358-.574.394.317.682.925 1.293.713.238-.107.451-.263.624-.458.187-.179.405-.407.683-.397.319.01.493.343.722.519.34.26.776.249 1.165.119.193-.064.11-.371-.084-.305-.356.117-.711.117-.992-.153-.185-.179-.342-.388-.6-.458-.562-.167-.944.319-1.318.646-.182.152-.405.288-.643.163-.238-.125-.368-.359-.545-.533a.877.877 0 00-.638-.293c-.247.03-.476.144-.65.322-.209.182-.44.469-.741.47-.394 0-.643-.458-.802-.763-.095-.18-.37-.02-.273.16v-.001z"/><path fill="#131314" d="M41.652 48.241a7.385 7.385 0 004.895 3.256c.57.102 1.15.133 1.727.095a.393.393 0 00.382-.382.385.385 0 00-.382-.382 6.61 6.61 0 01-5.963-2.971c-.264-.414-.925-.03-.66.384z"/><path fill="#fff" d="M112.387 51.049h-17.97v18.045h17.97V51.049z" opacity=".01"/><path fill="#789AE6" d="M99.774 67.424a.524.524 0 100-1.049.524.524 0 000 1.05z"/><path fill="#fff" d="M103.07 54.601l-6.072.008a1.659 1.659 0 01-1.655 1.658v6.535a1.656 1.656 0 011.659 1.655h11.597a1.664 1.664 0 01.484-1.173 1.646 1.646 0 011.171-.486v-6.545a1.654 1.654 0 01-1.655-1.655h-4.637"/><path fill="#525666" d="M97.067 64.71a.137.137 0 01-.141-.138 1.518 1.518 0 00-1.518-1.518.13.13 0 01-.094-.021.131.131 0 01-.043-.098v-6.549a.14.14 0 01.082-.127.128.128 0 01.051-.01 1.526 1.526 0 001.522-1.529.14.14 0 01.082-.127.132.132 0 01.052-.01h6.078a.137.137 0 01.138.137.134.134 0 01-.041.096.14.14 0 01-.044.029.14.14 0 01-.053.01H97.19c-.029.427-.212.829-.517 1.13-.3.313-.704.505-1.135.542v6.26c.429.03.832.216 1.135.52.305.302.49.704.52 1.132h11.338a1.804 1.804 0 011.651-1.655v-6.271a1.805 1.805 0 01-1.651-1.652h-4.507a.138.138 0 01-.147-.193.138.138 0 01.147-.078h4.633a.134.134 0 01.134.134 1.526 1.526 0 001.507 1.51.134.134 0 01.134.138v6.53a.147.147 0 01-.04.098.13.13 0 01-.094.04 1.52 1.52 0 00-1.522 1.521.141.141 0 01-.039.098.14.14 0 01-.094.04H97.041l.026.01z"/><path fill="#BBDCFE" d="M107.439 56.34h-9.15a.495.495 0 00-.496.495v5.62c0 .273.222.495.495.495h9.151a.495.495 0 00.495-.495v-5.62a.495.495 0 00-.495-.495z"/><path fill="#525666" d="M98.292 63.09a.634.634 0 01-.644-.632v-5.62a.63.63 0 01.633-.629h9.147a.63.63 0 01.633.633v5.605a.631.631 0 01-.181.45.627.627 0 01-.448.183l-9.14.01zm9.14-6.62h-9.148a.362.362 0 00-.36.361v5.62a.361.361 0 00.36.361h9.148a.36.36 0 00.361-.361v-5.62a.36.36 0 00-.361-.361z"/><path fill="#525666" d="M100.12 58.794a.133.133 0 01-.127-.082.138.138 0 01.127-.19h5.479a.137.137 0 01.115.136.137.137 0 01-.115.136h-5.479zM101.414 60.767a.13.13 0 01-.094-.04.146.146 0 01-.029-.043.137.137 0 01.123-.188h2.892a.138.138 0 01.115.136.138.138 0 01-.115.135h-2.892z"/><path fill="#789AE6" d="M110.779 54.72a.13.13 0 01-.087-.032 2.616 2.616 0 00-1.341-.582.13.13 0 01-.112-.083.135.135 0 01.022-.138c.313-.38.509-.843.567-1.333a.138.138 0 01.025-.068.137.137 0 01.13-.053.138.138 0 01.066.03c.383.309.845.503 1.333.56a.13.13 0 01.112.084.135.135 0 01-.022.137 2.58 2.58 0 00-.567 1.337.137.137 0 01-.083.112.124.124 0 01-.043.03zm-1.171-.845c.389.07.758.224 1.084.448.075-.389.228-.758.452-1.084a2.809 2.809 0 01-1.081-.434 2.832 2.832 0 01-.455 1.07z"/><path fill="#244663" d="M110.482 60.933a4.302 4.302 0 00-2.852-1.084c-2.768-.029-4.698 2.255-4.698 4.796" opacity=".2"/><path fill="#fff" d="M107.609 68.617a4.131 4.131 0 100-8.263 4.131 4.131 0 000 8.263z"/><path fill="#2C5CC5" d="M107.45 68.617c2.193 0 3.972-1.85 3.972-4.131 0-2.282-1.779-4.131-3.972-4.131-2.194 0-3.972 1.85-3.972 4.13 0 2.282 1.778 4.132 3.972 4.132z"/><path fill="#525666" d="M107.609 68.75a4.237 4.237 0 01-1.691-.361.122.122 0 01-.043-.03.133.133 0 01-.038-.096.137.137 0 01.189-.123 3.998 3.998 0 005.233-5.28.136.136 0 01.069-.178.135.135 0 01.177.069 4.18 4.18 0 01.361 1.735 4.268 4.268 0 01-4.257 4.264zM104.981 67.807a.129.129 0 01-.086-.032 4.254 4.254 0 01-1.538-3.025 4.258 4.258 0 012.577-4.181 4.263 4.263 0 014.805 1.018c.025.026.038.06.038.096a.136.136 0 01-.082.126.136.136 0 01-.104 0 .124.124 0 01-.044-.03 3.991 3.991 0 00-5.871-.076 4.005 4.005 0 00-1.084 3.017 4.006 4.006 0 001.483 2.841.137.137 0 010 .192.153.153 0 01-.094.054z"/><path fill="#fff" d="M107.667 66.802a.137.137 0 01-.134-.134v-4.405a.147.147 0 01.003-.059.14.14 0 01.133-.1.137.137 0 01.104.048.132.132 0 01.031.111v4.406a.14.14 0 01-.041.094.138.138 0 01-.096.04z"/><path fill="#fff" d="M109.871 64.601h-4.405a.136.136 0 01-.097-.233.135.135 0 01.097-.038h4.405c.018 0 .036.003.053.01a.133.133 0 01.074.177.15.15 0 01-.029.044.139.139 0 01-.098.04z"/><path fill="#789AE6" d="M98.09 53.29a.304.304 0 100-.608.304.304 0 000 .607z"/></svg>