<svg xmlns="http://www.w3.org/2000/svg" width="142" height="130" fill="none" viewBox="0 0 142 130"><path fill="#fff" d="M75.787 129.507c35.763 0 64.754-28.991 64.754-64.753C140.541 28.99 111.55 0 75.787 0 40.025 0 11.034 28.991 11.034 64.754c0 35.762 28.99 64.753 64.753 64.753z"/><path fill="#DDE1E8" d="M76.332 93.668c13.154 0 23.818-10.663 23.818-23.817S89.486 46.033 76.332 46.033c-13.154 0-23.817 10.664-23.817 23.818 0 13.154 10.663 23.817 23.817 23.817z"/><path fill="#282A2B" d="M20.074 24.998c.396-1.767.832-3.607 1.998-4.991 1.488-1.763 3.85-2.453 6.075-3.055l11.864-3.21c2.877-.778 5.375-1.452 8.284-.498a12.792 12.792 0 018.199 16.38c-.36 1.041-.858 2.047-1.117 3.125-.297 1.262-.269 2.578-.39 3.87-.192 2.058-.775 4.054-1.34 6.041a276.559 276.559 0 00-6.33 28.062c-.654-1.574-1.864-3.108-3.55-3.35-.475-.068-.977-.031-1.418-.223-3.84-1.682-2.743-6.757-1.67-10.067.405-1.25.712-2.477 1.005-3.76-.082.36 3.343.136 3.721-.11.806-.526 1.592-1.985 2.13-2.78 1.756-2.583 2.826-5.591 3.393-8.646.972-5.22.999-10.524-1.307-15.383-3.503 1.205-7.178.496-10.429-1.234-1.947-1.042-3.693-2.404-5.402-3.797l.834 3.654c.196.75.322 1.515.376 2.287.06 1.567-.475 3.068-1.157 4.454-.327.664-.665 1.412-1.13 1.988-.307.383-1.33.94-1.4 1.452.24-1.75-1.306-3.527-3.073-3.531-1.595 0-3.005 1.29-3.458 2.82-.31 1.05-.37 2.762.298 3.722.847 1.207 2.327.957 3.565 1.242a.7.7 0 01.337.149c.251.24.096.656-.04.976-.57 1.34-.237 2.721-.355 4.104-.157 1.85 0 3.722-.181 5.569-.096 1.015-.194 2.04-.532 3.004-.632 1.8-2.069 3.232-3.706 4.21-.47-.052-1.85.927-2.352 1.12a9.298 9.298 0 01-2.401.654c-1.936.2-3.89.378-5.83.607-.905.106.021-3.334.095-3.734a934.288 934.288 0 012.608-13.37 914.615 914.615 0 013.786-17.75z"/><path fill="#2C5CC5" d="M72.648 101.737a25.378 25.378 0 00-3.02-1.715c-2.679-1.352-5.507-2.646-7.395-4.977-1.423-1.765-2.162-3.967-2.998-6.075-2.381-5.997-5.708-11.56-9.026-17.092-.655-1.09-1.464-2.421-2.48-3.225-1.191-.941-3.001-1.22-4.363-1.88-.596-.29-1.206-.627-1.559-1.191a1.93 1.93 0 01-.134-.256c.235.835.462 1.673.744 2.498.77 2.232 2.407 3.995 3.747 5.891 1.907 2.689 3.556 5.752 3.87 9.08.15 1.586.115 3.036-.46 4.522-.654 1.697-2.006 3.912-3.4 5.09 1.11-2.709 1.293-5.753.745-8.633-.548-2.88-1.812-5.587-3.464-8.003-1.3-1.898-2.863-3.665-3.662-5.822-.788-2.121-.771-4.439-1.512-6.57-.844-2.428-2.504-2.473-4.567-3.573-1.766-.942-3.018-1.664-4.347-3.17a.702.702 0 00-.298-.229c-.316-.098-.57.254-.732.54a7.01 7.01 0 01-1.803 2.085c-1.58 1.225-3.595 1.713-5.543 2.169-2.52.595-4.764 1.11-7.189 2.059L8.93 65.186c-1.33.52-2.572.786-3.54 1.904-.94 1.088-1.466 2.506-1.703 3.916-.332 1.962-.173 3.969-.228 5.954-.071 2.597-.51 5.169-.7 7.758-.11 1.488-.14 2.977-.167 4.474l-.18 9.466c-.057 3.135-.11 6.33.793 9.331.902 3.001 2.93 5.836 5.877 6.902 2.03.734 3.815 1.663 5.944 2.022 1.61.271 3.248.345 4.88.418 6.612.298 13.248.595 19.842.031 1.854-.159 3.76-.446 5.623-.297 1.142.113 2.277.286 3.401.518.792.148 2.221.595 2.956.174 1.154-.666 0-2.124-.273-2.968a16.338 16.338 0 01-.782-4.112c-.156-2.748.43-5.585 2.029-7.863.546-.78 1.837-.034 1.285.745-1.333 1.899-1.89 4.235-1.846 6.535a14.4 14.4 0 00.487 3.407c.148.573.196 1.602.744 1.95.503.319 1.106-.082 1.6-.204-.168-.274-.515-.362-.677-.637-.19-.326-.15-.908-.201-1.277a11.682 11.682 0 01-.037-2.838c.135-1.253.272-3.773 1.575-4.412 1.439-.704 3.145-.297 4.638-.833 1.716-.621 3.229-1.438 5.054-1.787 2.949-.565 5.982-.446 8.975-.216-.012-.001-1.431-1.359-1.651-1.51zM47.809 103.1a.586.586 0 00-.064.039c-.616.431-1.164 1.42-1.395 2.121.523-1.593-.403-3.282-1.44-4.6a12.99 12.99 0 00-2.083-2.164c-1.843-1.465-4.203-2.164-6.55-2.373-2.348-.208-4.707.039-7.05.286 2.39-.764 5.268-1.684 7.803-1.538 2.453.142 4.847.951 6.979 2.151 2.017 1.134 3 3.275 4.71 4.747.924.795-.447 1.077-.91 1.331z"/><path fill="#131314" fill-rule="evenodd" d="M78.983 33.728c-7.933-.44-16 1.764-22.245 6.546l-.604-.789c6.454-4.941 14.761-7.202 22.905-6.75h.004c9.643.603 19.003 4.97 25.204 13.12l.898.898.024.034a43.6 43.6 0 014.367 7.68l.002.004.001.003c2.418 5.743 3.172 11.935 2.363 18.13l-.985-.13c.787-6.027.052-12.04-2.292-17.61a42.665 42.665 0 00-4.241-7.467l-.888-.887-.02-.027c-6.006-7.91-15.094-12.167-24.493-12.755z" clip-rule="evenodd"/><path fill="#131314" d="M56.178 42.78a34.362 34.362 0 0114.936-6.607c.165-.03.095-.28-.069-.252a34.509 34.509 0 00-14.998 6.632c-.13.101 0 .327.131.225v.001zM72.934 35.578c.844-.108 1.686-.228 2.53-.337a.057.057 0 100-.113 6.911 6.911 0 00-2.54.381c-.032.014-.03.075.01.069zM110.058 72.556c.406-1.746.229-3.747-.23-5.466a.06.06 0 00-.028-.037.062.062 0 00-.084.023.058.058 0 00-.005.046c.364 1.843.37 3.573.33 5.432a.019.019 0 00.003.004.013.013 0 00.005.002c.002 0 .004 0 .005-.002a.009.009 0 00.004-.004v.002zM39.359 59.676c.148-1.222.157-2.456.251-3.683.088-1.167.218-2.39.679-3.479a.386.386 0 00-.133-.509.378.378 0 00-.51.134c-.788 1.855-.79 3.94-.902 5.92a27.98 27.98 0 01-.13 1.617.373.373 0 00.372.372.381.381 0 00.373-.372z"/><path fill="#131314" d="M30.042 44.97a17.499 17.499 0 002.559 3.276 15.659 15.659 0 003.275 2.567c1.252.718 2.621 1.216 3.998 1.638.674.204 1.355.412 2.04.574a2.57 2.57 0 001.844-.297c.562-.307 1.042-.745 1.512-1.18.502-.448.979-.923 1.428-1.424a16.82 16.82 0 002.276-3.372c1.359-2.624 2.085-5.518 2.55-8.422.248-1.563.416-3.138.616-4.707.186-1.459.345-2.926.18-4.396-.044-.4-.109-.797-.193-1.19-.1-.468-.818-.27-.718.197.298 1.417.273 2.857.12 4.29-.16 1.482-.345 2.966-.55 4.441-.396 2.85-.975 5.72-2.15 8.363a17.948 17.948 0 01-1.957 3.4 16.943 16.943 0 01-2.653 2.763c-.423.361-.893.711-1.451.83-.26.051-.528.037-.782-.04-.33-.09-.66-.18-.99-.272-1.317-.371-2.634-.78-3.87-1.37-2.382-1.136-4.418-3.041-5.902-5.21a16.844 16.844 0 01-.538-.837c-.247-.409-.893-.035-.643.376l-.001.003zM40.152 32.698a4.67 4.67 0 00-.483 2.223c.013.413.617.513.73.1.148-.54.231-1.096.249-1.656.015-.433-.604-.487-.73-.098a10.5 10.5 0 00-.373 1.506.372.372 0 10.718.198c.254-.71.413-1.45.471-2.203a.373.373 0 00-.272-.359.388.388 0 00-.421.17c-.25.353-.378.78-.362 1.212a.372.372 0 10.744 0l.033-.878a.375.375 0 00-.694-.188 4.219 4.219 0 00-.494 2.129.373.373 0 00.322.364.381.381 0 00.409-.266c.271-.67.417-1.385.43-2.108a.374.374 0 00-.323-.366.38.38 0 00-.41.266 9 9 0 00-.46 2.203.367.367 0 00.32.367.376.376 0 00.41-.267 7.003 7.003 0 00.35-2.164c0-.027.014-.15 0-.15.075.055-.149.111-.162.122-.014.01-.029-.01.016 0-.027-.017-.02-.015.018.007.039.022 0-.014.05.037a.489.489 0 01.121.353c-.02.203-.075.402-.162.586-.188.478-.38.955-.57 1.432a.375.375 0 00.259.459.38.38 0 00.458-.26l.54-1.36c.16-.4.309-.851.15-1.278-.16-.428-.548-.822-1.025-.706-.565.137-.427.813-.46 1.252a6.187 6.187 0 01-.297 1.477l.73.098c.06-.684.207-1.358.437-2.005l-.731-.099a5.334 5.334 0 01-.405 1.91l.732.1a3.45 3.45 0 01.393-1.753l-.693-.188-.033.878h.744c-.012-.3.08-.595.26-.835l-.693-.187c-.06.685-.21 1.36-.447 2.005l.718.198c.087-.51.212-1.014.372-1.507l-.73-.1c-.017.493-.092.983-.223 1.458l.731.098a3.87 3.87 0 01.383-1.847.381.381 0 00-.134-.51.375.375 0 00-.51.135v-.005z"/><path fill="#131314" d="M47.735 34.616a5.127 5.127 0 00-.454 1.475.38.38 0 00.484.452.37.37 0 00.204-.162 2.35 2.35 0 00.265-1.274.375.375 0 00-.578-.31.366.366 0 00-.153.212l-.226 1.351a.38.38 0 00.216.44.367.367 0 00.464-.15 5.158 5.158 0 00.432-2.345l-.372.372c.232 0 .46.068.653.196l-.171-.42-.72 2.018.73.1.075-1.043a.368.368 0 00-.323-.364.377.377 0 00-.408.266l-.478 1.265.718.198a.373.373 0 01.016-.068c-.016.034-.015.033 0 0-.025.028-.024.027 0 0-.033.02-.03.02 0 0a.373.373 0 10-.375-.642.808.808 0 00-.377.527.372.372 0 10.718.198l.478-1.265-.731-.1-.075 1.042a.368.368 0 00.323.365.374.374 0 00.408-.267l.713-2.027a.377.377 0 00-.171-.421 1.935 1.935 0 00-1.029-.298.375.375 0 00-.372.372 4.338 4.338 0 01-.33 1.971l.68.287.226-1.351-.73-.1c.015.155.01.312-.017.466a1.533 1.533 0 01-.149.433l.68.287c.063-.448.19-.885.379-1.296a.382.382 0 00-.133-.51.375.375 0 00-.509.133l.02-.013zM41.295 28.779a8.453 8.453 0 00-1.746-.048c-.5.039-1.002.042-1.5.09-.58.055-.956.358-1.072-.312a.195.195 0 01.009-.14.188.188 0 01.093-.071c.416-.2.833-.393 1.258-.567.426-.174.785-.378 1.22-.447a8.198 8.198 0 012.153 0c.365.04 1.575.04 1.224.713a3.864 3.864 0 01-.709.954 8.49 8.49 0 00-.93-.172zM32.916 19.58c1.161 2.679 4.02 4.144 6.525 5.326 1.502.71 3.032 1.397 4.651 1.786 1.648.399 3.357.476 5.034.23a10.501 10.501 0 005.104-2.171.372.372 0 000-.526.378.378 0 00-.526 0c-2.462 1.99-5.964 2.479-9.001 1.843-1.535-.323-2.99-.926-4.408-1.585-1.273-.596-2.545-1.2-3.721-1.979-1.258-.835-2.409-1.896-3.018-3.306a.375.375 0 00-.51-.132.381.381 0 00-.133.509l.003.004z"/><path fill="#131314" d="M33.69 21.02c.443.824.762 1.71.947 2.627.243 1.041.365 2.108.363 3.178.002.475-.037.95-.116 1.418a4.441 4.441 0 01-.351 1.154c-.462.924-.943 1.838-1.42 2.754-.55 1.05-1.098 2.108-1.718 3.117-.25.41.393.785.643.377 1.125-1.834 2.063-3.789 3.048-5.699.447-.866.614-1.805.65-2.773a14.264 14.264 0 00-.297-3.345c-.22-1.095-.546-2.21-1.104-3.185-.237-.416-.882-.04-.642.376h-.003zM27.158 35.428a1.062 1.062 0 011.082-.775c.685 0 1.382.464 1.952.838.402.263.774-.381.375-.643-.712-.466-1.575-1.002-2.462-.935a1.814 1.814 0 00-1.664 1.317c-.13.462.595.66.717.198z"/><path fill="#131314" d="M28.872 34.422c-.596.393-.422 1.22-.192 1.776a3.44 3.44 0 001.214 1.518.373.373 0 00.51-.134.38.38 0 00-.135-.509 2.656 2.656 0 01-.858-1.05 2.665 2.665 0 01-.192-.63v-.029-.074-.092c0-.008.01-.078 0-.04-.011.037.016-.056.014-.054.008-.031.018-.039 0 0 .01-.02.021-.039.033-.057-.05.066.052-.022-.015.023a.38.38 0 00.134-.51.375.375 0 00-.509-.133l-.004-.005z"/><path fill="#131314" d="M32.063 35.44c.018-1.488-.813-2.995-2.191-3.623a3.625 3.625 0 00-3.98.587c-.883.815-1.339 2.022-1.425 3.201-.094 1.206.216 2.469 1.034 3.381a4.168 4.168 0 004.14 1.222c.46-.13.265-.848-.198-.717a3.4 3.4 0 01-3.098-.724c-.797-.697-1.132-1.679-1.143-2.699-.01-.969.265-2.005.872-2.764a2.846 2.846 0 012.961-1.002c1.404.362 2.3 1.717 2.284 3.137 0 .479.744.479.744 0v.001zM27.66 54.728c.223-3.208.13-6.449.646-9.631.139-.864.336-1.718.59-2.555.142-.458-.577-.655-.718-.198-.96 3.117-1.002 6.447-1.124 9.676a86.268 86.268 0 01-.134 2.705.372.372 0 10.744 0l-.004.003z"/><path fill="#131314" d="M16.244 59.19c.595-3.68 1.207-7.36 1.764-11.047.557-3.687 1.07-7.388 1.489-11.096.404-3.573.67-7.177 1.506-10.682.195-.817.435-1.621.652-2.433.198-.744.39-1.496.612-2.232.429-1.428.98-2.856 1.907-4.042a6.53 6.53 0 013.404-2.245c1.313-.376 2.689-.446 4.048-.455.346 0 .693 0 1.042.01.477.009.479-.735 0-.744-2.777-.05-5.83.038-8.064 1.913-2.434 2.042-3.049 5.397-3.854 8.297a43.932 43.932 0 00-1.134 5.274c-.273 1.812-.462 3.634-.657 5.454-.397 3.75-.893 7.49-1.435 11.22-.542 3.73-1.158 7.486-1.77 11.224l-.227 1.39a.381.381 0 00.259.457.375.375 0 00.458-.259v-.004z"/><path fill="#131314" d="M31.505 14.737c2.946-.522 5.887-1.097 8.848-1.518 2.68-.381 5.454-.631 8.137-.197 1.26.185 2.484.563 3.629 1.12a10.22 10.22 0 012.88 2.176c1.654 1.786 2.68 4.077 3.045 6.47.389 2.59.048 5.236-.984 7.642a14.94 14.94 0 01-.402.845c-.22.425.422.803.643.375a14.864 14.864 0 001.596-7.89 13.32 13.32 0 00-2.68-7.144 11.207 11.207 0 00-2.733-2.541 11.849 11.849 0 00-3.656-1.544c-2.699-.658-5.53-.536-8.268-.214-3.06.36-6.09.966-9.125 1.502l-1.118.2a.375.375 0 00-.26.456.381.381 0 00.457.26l-.009.002z"/><path fill="#131314" d="M55.218 29.54c.31 1.373.375 2.79.192 4.187-.082.695-.238 1.377-.345 2.068-.108.69-.188 1.424-.252 2.14-.127 1.437-.22 2.876-.37 4.317-.151 1.441-.336 2.888-.544 4.326-.412 2.858-.908 5.703-1.408 8.546-.5 2.843-1 5.686-1.422 8.541-.421 2.855-.766 5.73-.945 8.615-.023.357-.042.714-.058 1.072-.022.477.722.477.744 0 .139-2.893.447-5.775.855-8.634.407-2.86.893-5.703 1.396-8.546.503-2.869 1.012-5.737 1.442-8.62.43-2.881.754-5.775.98-8.684.055-.71.114-1.421.2-2.128.084-.707.22-1.38.337-2.07.261-1.42.301-2.871.118-4.303a10.78 10.78 0 00-.197-1.032c-.11-.465-.827-.269-.717.198l-.006.006zM51.839 31.757a1.8 1.8 0 00-.532-1.429 5.128 5.128 0 00-.614-.562c-.064-.048-1.042-.596-1.02-.618a1.46 1.46 0 00-.49.8c-.114.42.801.971 1.08 1.207.228.175.443.367.643.574.284.33.297.803.552 1.154.236-.252.247-.538.332-.85.023-.09.04-.183.049-.276z"/><path fill="#000" d="M19.042 55.202c.263.004.526-.028.78-.094 1.312-.317 2.541-.904 3.744-1.516.625-.317 1.252-.647 1.776-1.113 1.099-.977 1.623-2.428 2.105-3.817-.176.505.013 1.767.036 2.352.032.893.053 1.763.013 2.66-1.362.286-1.981 1.83-2.946 2.828-1.05 1.095-2.572 1.566-4.027 1.997L15.87 59.88c.275-.082.422-3.096.474-3.474.169-1.257.347-2.572.83-3.752.48 1.217.588 2.498 1.87 2.547zM39.859 60.8c-.137.596-.49 1.084-.267 1.742.14.414.468.735.797 1.023 1.113.969 2.061 1.452 3.407 1.956 1.245.467 2.46 1.137 3.275 2.218.39.553.719 1.145.984 1.768l2 4.268a43.43 43.43 0 001.063-9.813c-.861.55-1.973.467-2.977.277a17.444 17.444 0 01-4.858-1.699c-.437-.23-.885-.501-1.114-.938-.432-.824.079-1.893-.308-2.738-.447-.967-1.804-1.154-2.4-2.035-.399.512-.233 1.255 0 1.859.234.604.515 1.249.432 1.907-.008.069-.019.137-.034.205z"/><path fill="#131314" d="M41.36 33.118c-.029-.614-.56-.984-1.129-1.05a3.914 3.914 0 00-.802.026c-.242.04-.49.015-.72-.07a.375.375 0 00-.458.26.384.384 0 00.26.458c.46.187.941.071 1.416.056h.261c.068.01-.039-.007.03 0 .068.008.102.026.148.042.047.016-.046-.024 0 0l.062.033.058.037c.046.033-.036-.034 0 0l.049.048s.046.058.024.026c-.023-.03.014.026.017.032.003.006.03.067.017.03-.014-.038 0 .026.007.032.02.045 0-.073 0 .018a.372.372 0 10.744 0l.017.022zM49.417 34.403c-.378-.298-.81-.375-1.279-.419l-.285-.025-.08-.009h-.01l-.138-.022a1.974 1.974 0 01-.278-.079c-.067-.024.028.018-.01 0l-.066-.034a1.453 1.453 0 01-.128-.084.373.373 0 00-.51.134.384.384 0 00.134.51c.349.258.794.308 1.212.346.097.01.192.017.286.027l.064.008c.101.01-.048-.01.01 0l.137.023c.095.02.188.047.279.08.049.017-.052-.028 0 0 .022.014.046.023.067.035l.052.031c.01 0 .09.066.024.014a.383.383 0 00.527 0c.122-.134.162-.398 0-.527l-.008-.01zM28.466 38.72c-.148.39-1.303 4.03-1.443 4.01-.14-.02.564-1.786.634-1.935.297-.633.73-1.191 1.02-1.82.08-.169-.121-.352-.267-.208-.683.673-1.1 1.703-1.43 2.592-.15.395-.735 1.658-.245 2.011.551.396.745-.874.804-1.1.335-1.177.603-2.382.96-3.544 0-.021-.024-.029-.032-.01v.004z"/><path fill="#131314" d="M28.556 38.888h.013l-.073.01h.017l-.075-.009a.027.027 0 01.015 0l-.068-.03.016.01a.31.31 0 00.149.041l-.149-.039-.058-.046-.046-.06-.03-.07-.01-.077.01-.079.03-.071.046-.06.13-.075a.731.731 0 00-.078.034l.07-.03.078-.01.077.01.068.028.058.045a.33.33 0 00-.126-.074l-.076-.01a.219.219 0 00-.11.024.135.135 0 00-.063.038.149.149 0 00-.052.05.149.149 0 00-.037.064.209.209 0 00-.024.11.37.37 0 00.01.08.329.329 0 00.141.186.227.227 0 00.077.032l.079.01.079-.01a.308.308 0 00.213-.214v-.042a.149.149 0 000-.079.275.275 0 00-.04-.12.342.342 0 00-.112-.11.312.312 0 00-.234-.03h.149-.014l-.077-.01-.076.01h-.012a.467.467 0 00-.074.03.364.364 0 00-.124.124l-.026.064-.01.072.01.071a.192.192 0 00.047.091.13.13 0 00.05.05.129.129 0 00.057.034c.021.011.045.017.069.017.035.01.072.01.107 0l.009.02z"/><path fill="#231F20" d="M43.96 38.13l.429 1.663.21.814.11.424.044.178c.01.03.017.06.023.089.01-.05 0-.045-.015.016l.095-.163c-.061.078-.252.119-.368.163l-.556.218a.384.384 0 00-.26.458.373.373 0 00.458.259l.619-.243c.203-.053.394-.142.566-.263.357-.322.123-.837.023-1.227l-.662-2.584c-.12-.464-.838-.268-.719.198h.003z"/><path fill="#131314" d="M39.177 58.948c.031.021.063.043.09.066l-.074-.058c.118.092.224.198.316.315l-.058-.076c.094.122.172.256.232.398l-.037-.09c.015.035.028.07.04.105.028.092.09.172.171.223.088.05.19.062.288.037a.377.377 0 00.27-.31.366.366 0 00-.011-.148 2.203 2.203 0 00-.85-1.105.372.372 0 00-.377.643z"/><path fill="#131314" d="M42.208 96.446a22.163 22.163 0 005.274-5.547c1.386-2.103 2.4-4.535 2.512-7.076.12-2.713-.99-5.282-2.338-7.576-.716-1.216-1.52-2.382-2.328-3.537-.874-1.249-1.74-2.5-2.577-3.775-.823-1.252-1.684-2.51-2.3-3.88-.557-1.236-.88-2.655-.595-4.003.068-.32.172-.631.31-.928a.383.383 0 00-.133-.509.374.374 0 00-.51.134c-.616 1.298-.635 2.773-.278 4.149.367 1.407 1.11 2.68 1.88 3.901.84 1.33 1.71 2.642 2.61 3.935.8 1.158 1.625 2.301 2.395 3.482a26.119 26.119 0 012.038 3.64c.52 1.17.942 2.423 1.05 3.704.21 2.46-.578 4.886-1.786 6.997a20.85 20.85 0 01-4.924 5.713c-.222.181-.447.357-.676.527a.386.386 0 00-.133.515.375.375 0 00.509.134z"/><path fill="#131314" d="M39.697 59.301c-1.891.596-3.87-.097-5.629-.816a35.439 35.439 0 01-5.2-2.663 10.504 10.504 0 01-1.238-.829c-.265-.227-.62-.57-.552-.96a.383.383 0 00-.26-.457.375.375 0 00-.458.26c-.178 1.02.68 1.692 1.441 2.189a36.442 36.442 0 005.533 2.956c.984.445 2.005.802 3.052 1.066 1.154.264 2.362.328 3.503-.028.455-.142.26-.86-.198-.718h.006z"/><path fill="#131314" d="M26.307 53.611c-.774 1.386-1.676 2.713-3.074 3.533-.835.49-1.778.8-2.7 1.076-.99.298-1.997.53-3.005.76a62.386 62.386 0 00-6.082 1.665c-2.004.673-3.976 1.438-5.945 2.206-.76.298-1.489.596-2.13 1.108a4.733 4.733 0 00-1.221 1.51c-.695 1.35-.822 2.9-.96 4.387C.779 74.26.494 78.67.335 83.09.2 86.88.237 90.67.1 94.46c-.115 3.178-.23 6.39.276 9.545a15.163 15.163 0 001.28 4.284 9.666 9.666 0 003.046 3.572c3.117 2.287 7.05 3.177 10.82 3.609 4.318.494 8.703.634 13.048.585a128.77 128.77 0 006.577-.255c2.19-.135 4.344-.263 6.52-.242 1.072.009 2.142.047 3.21.116.479.029.477-.715 0-.745a61.135 61.135 0 00-6.477-.058c-2.137.094-4.27.265-6.402.352-4.337.174-8.682.11-13.013-.192-3.948-.276-7.988-.699-11.597-2.445-1.556-.744-3.071-1.741-4.137-3.126-.868-1.104-1.408-2.431-1.766-3.77-.803-3.025-.789-6.227-.704-9.334.04-1.456.112-2.908.15-4.364.038-1.982.024-3.966.07-5.955a228.666 228.666 0 01.953-16.301c.057-.784.163-1.563.317-2.333.283-1.279.86-2.452 1.998-3.169.76-.478 1.646-.744 2.477-1.069a162.32 162.32 0 012.912-1.101 60.233 60.233 0 015.991-1.882c1.971-.493 3.98-.846 5.907-1.508.86-.298 1.72-.631 2.473-1.15a7.614 7.614 0 001.64-1.553c.478-.624.907-1.285 1.282-1.976.233-.418-.408-.794-.643-.376v-.008z"/><path fill="#131314" d="M48.823 101.866c-1.966-3.103-5.092-5.379-8.586-6.464a17.715 17.715 0 00-6.288-.728 19.823 19.823 0 00-3.212.463 27.358 27.358 0 00-2.977.913c-2.104.744-4.416 1.637-6.651.929-.457-.15-.654.573-.198.717 1.984.631 4.051.102 5.954-.546.98-.334 1.947-.707 2.94-.999a18.55 18.55 0 013.048-.634c3.896-.465 7.89.327 11.172 2.516a14.289 14.289 0 014.15 4.214c.257.403.894.031.644-.375l.004-.006z"/><path fill="#131314" d="M23.24 97.097c-1.646-1.758-2.348-4.148-3.095-6.379l-2.71-8.088-1.52-4.537c-.15-.446-.871-.257-.718.198l2.733 8.16 1.378 4.114c.4 1.19.782 2.405 1.269 3.572.531 1.267 1.19 2.479 2.134 3.488.33.35.855-.177.527-.527l.002-.001zM48.248 101.968c-.863.381-1.521 1.091-2.051 1.855a12.319 12.319 0 00-1.373 2.65 13.474 13.474 0 00-.832 5.954 16.31 16.31 0 00.487 2.752c.078.298.2.663.576.624a.384.384 0 00.372-.372.374.374 0 00-.372-.372h.021l.164.097.013.026-.037-.135-.036-.137a19.645 19.645 0 01-.094-.378 9.511 9.511 0 01-.148-.731 13.98 13.98 0 01-.2-1.451 13.033 13.033 0 01.067-2.778c.24-1.817.874-3.56 1.86-5.106.495-.773 1.111-1.489 1.967-1.862a.376.376 0 00.133-.509.38.38 0 00-.517-.127zM55.173 105.495c0-.539-.192-1.191-.622-1.544a.761.761 0 00-.862-.077 1.768 1.768 0 00-.567.579c-.58.834-1 1.767-1.245 2.752-.504 1.985-.372 4.104.15 6.069.278 1.042.64 2.278 1.646 2.845.418.235.793-.406.376-.643-.719-.405-.982-1.291-1.201-2.031a13.013 13.013 0 01-.5-2.569c-.15-1.722.046-3.52.83-5.08.105-.206.218-.408.34-.603.116-.216.259-.416.426-.596a.424.424 0 01.116-.085c.037-.013 0 0 0 0 .08.032.148.191.189.259.12.223.182.473.178.727 0 .478.745.479.745 0l.001-.003z"/><path fill="#131314" d="M55.17 105.178a9.983 9.983 0 00-.331-1.774 5.687 5.687 0 00-.298-.858c-.14-.298-.415-.378-.72-.394-1.13-.057-2.259-.122-3.387-.189-.671-.039-1.34-.076-2.013-.108-.477-.022-.477.722 0 .745 1.328.062 2.653.149 3.98.223.34.019.683.037 1.023.054.027 0 .484.035.487.023.03.014.014 0-.05-.049a.252.252 0 01.03.057c.025.09.056.177.095.262a9.1 9.1 0 01.439 2.008.38.38 0 00.372.372.375.375 0 00.372-.372zM53.961 115.429a66.562 66.562 0 01-8.872-.389.375.375 0 00-.372.372.381.381 0 00.372.372c2.946.328 5.91.457 8.872.389.48-.012.481-.756 0-.744zM39.404 63.62c1.496 1.14 3.324 1.646 4.98 2.491a6.32 6.32 0 011.86 1.35 7.739 7.739 0 011.111 1.708c1.874 3.653 3.799 7.28 5.713 10.914.986 1.868 2.014 3.722 2.952 5.615.744 1.502 1.34 3.074 2.063 4.585.724 1.511 1.627 2.977 2.854 4.14 1.152 1.097 2.543 1.9 3.958 2.605 2.733 1.362 5.828 2.456 7.787 4.929.268.309.489.657.653 1.033a.385.385 0 00.457.26.377.377 0 00.26-.457c-.297-.804-.918-1.515-1.517-2.117a11.754 11.754 0 00-1.818-1.472c-1.308-.875-2.745-1.532-4.168-2.201-1.423-.67-2.828-1.34-4.083-2.266-1.356-.988-2.39-2.303-3.196-3.763-.807-1.46-1.419-3.058-2.111-4.593-.835-1.85-1.843-3.624-2.788-5.418l-3.053-5.79c-.974-1.845-1.98-3.677-2.909-5.547a17.088 17.088 0 00-1.042-1.92 6.174 6.174 0 00-1.489-1.563c-1.48-1.092-3.33-1.538-4.924-2.415a9.1 9.1 0 01-1.166-.744.373.373 0 00-.509.134.38.38 0 00.133.509l-.008-.006zM83.297 103.555a3.831 3.831 0 01-2.457 2.531c-.734.235-1.508.259-2.272.262-.447 0-.877.022-1.316.049-.469.027-.94.07-1.411.071-.47.002-.48.745 0 .745.893 0 1.786-.118 2.693-.121.828 0 1.676-.03 2.472-.278a4.538 4.538 0 001.808-1.076 4.61 4.61 0 001.2-1.983c.14-.46-.58-.657-.717-.198v-.002z"/><path fill="#131314" d="M83.7 103.344c-3.785-.113-7.573-.281-11.342-.659a89.291 89.291 0 01-3.146-.37.387.387 0 00-.458.261c-.048.173.06.43.26.457 3.8.518 7.628.783 11.463.942 1.077.045 2.154.083 3.23.113.48.015.48-.729 0-.744H83.7z"/><path fill="#131314" d="M81.234 110.305l-5.197-3.789c-1.658-1.208-3.303-2.463-5.085-3.489a7.91 7.91 0 00-1.283-.612 5.22 5.22 0 00-1.502-.262c-.482-.021-.966-.009-1.45-.025-.483-.016-.966-.046-1.448-.022a4.91 4.91 0 00-1.38.244c-.494.171-.975.388-1.463.576-.964.371-1.936.718-2.915 1.042a61.331 61.331 0 01-6.745 1.786.377.377 0 00-.26.457.382.382 0 00.458.261 61.299 61.299 0 0010.264-3.059 8.1 8.1 0 011.37-.48c.915-.186 1.878-.047 2.804-.043.477-.015.954.011 1.426.076.447.086.878.237 1.282.447.88.47 1.73.998 2.542 1.58a97.177 97.177 0 012.439 1.748l5.768 4.204a.376.376 0 00.509-.134.381.381 0 00-.134-.509v.003z"/><path fill="#131314" d="M80.575 110.681c-1.264 1.123-3.138.703-4.491 0-.8-.414-1.541-.933-2.317-1.39-.382-.225-.765-.447-1.13-.703-.368-.269-.722-.559-1.06-.868a211.205 211.205 0 00-2.59-2.203.378.378 0 00-.526 0 .372.372 0 000 .526c.823.687 1.64 1.382 2.451 2.084.384.33.758.673 1.167.972.378.268.769.516 1.172.744 1.61.951 3.197 2.194 5.144 2.263a3.843 3.843 0 002.707-.908c.358-.319-.17-.844-.527-.527v.01z"/><path fill="#131314" d="M76.26 111.256a6.958 6.958 0 01-4.633-.045c-1.6-.582-2.806-1.828-4.02-2.968l-2.368-2.223c-.348-.329-.877.197-.525.526l2.18 2.047c.678.637 1.339 1.293 2.065 1.881a8.727 8.727 0 002.242 1.367c.777.308 1.6.486 2.434.527.96.051 1.92-.083 2.828-.395a.38.38 0 00.26-.457.375.375 0 00-.458-.26h-.004z"/><path fill="#131314" d="M69.982 110.9c-1.128.363-2.325.091-3.367-.411-1.124-.54-2.084-1.339-3.1-2.06a12.36 12.36 0 00-1.83-1.116.383.383 0 00-.51.132.376.376 0 00.135.509c2.326 1.115 4.081 3.329 6.722 3.781a4.516 4.516 0 002.148-.116c.456-.149.26-.865-.198-.719zM57.272 114.798c-1.327.23-2.686.209-4.006-.061a.381.381 0 00-.458.26.378.378 0 00.26.459c1.454.296 2.95.316 4.41.059a.375.375 0 00.259-.458.38.38 0 00-.457-.259h-.008z"/><path fill="#fff" d="M80.378 115.848l12.148-41.234a1.323 1.323 0 011.269-.948h46.386a1.325 1.325 0 011.301 1.088c.036.202.025.41-.033.608l-11.924 40.486H80.378z"/><path fill="#131314" fill-rule="evenodd" d="M93.795 73.169h46.386a1.821 1.821 0 011.79 1.497c.05.278.035.565-.045.836l-12.029 40.843H79.714L92.05 74.473a1.82 1.82 0 011.745-1.304zm46.756 1.081a.83.83 0 00-.37-.087H93.795a.827.827 0 00-.792.592l-11.96 40.596h48.111l11.819-40.13a.824.824 0 00-.422-.97z" clip-rule="evenodd"/><path fill="#fff" d="M116.229 97.226c1.776-1.544 2.26-3.893 1.083-5.247-1.177-1.353-3.571-1.198-5.346.346s-2.26 3.893-1.083 5.247c1.178 1.353 3.571 1.198 5.346-.346z"/><path fill="#131314" fill-rule="evenodd" d="M111.128 95.188c-.156.755-.003 1.4.38 1.84.383.44 1 .681 1.77.631.771-.05 1.644-.394 2.407-1.058.763-.663 1.225-1.48 1.381-2.237.156-.755.004-1.4-.379-1.84-.383-.441-1.001-.681-1.771-.632-.771.05-1.644.394-2.407 1.058-.763.664-1.225 1.481-1.381 2.237zm-1.622-.335c.235-1.143.904-2.272 1.916-3.153 1.012-.88 2.223-1.386 3.387-1.46 1.165-.076 2.333.283 3.127 1.196.795.913.989 2.12.753 3.263-.236 1.142-.904 2.272-1.916 3.152-1.013.88-2.224 1.386-3.388 1.461-1.165.076-2.333-.283-3.127-1.196-.794-.914-.988-2.12-.752-3.263z" clip-rule="evenodd"/><path fill="#fff" d="M81.02 112.201c-10.717-.022-21.526-.174-32.245-.533-1.16-.038-2.517-.073-3.532.596-1.016.668-.77 2.373-.855 3.444l36.038.061"/><path fill="#131314" d="M81.021 111.829c-2.808-.006-5.617-.022-8.425-.046-2.809-.025-5.622-.06-8.44-.106a1081.41 1081.41 0 01-8.438-.177 846.084 846.084 0 01-4.212-.118l-2.104-.065c-.595-.02-1.19-.052-1.786-.034-1.042.032-2.367.223-3.037 1.128-.556.744-.52 1.803-.533 2.69 0 .204-.009.408-.023.612a.375.375 0 00.372.372H51.872l4.713.025 5.17.009 5.238.009h4.883l4.126.007h2.956c.47 0 .938.009 1.407 0h.06c.479 0 .479-.744 0-.744H72.948l-4.722-.009-5.168-.016h-5.237l-4.884-.008h-7.083c-.467 0-.94-.021-1.407 0h-.06l.373.372c.064-.847-.064-1.747.242-2.551.15-.386.438-.618.837-.798a4.254 4.254 0 011.5-.324c.565-.033 1.13-.009 1.693.01l2.068.065a954.735 954.735 0 0012.388.295 1132.74 1132.74 0 0016.5.161h1.032c.48 0 .48-.744 0-.744v-.015z"/><path fill="#000" d="M20.278 92.696c-.307-.775-.323-1.626-.595-2.392a16.883 16.883 0 01-.65-2.077c-.595-2.617-1.723-5.03-2.502-7.602a27.83 27.83 0 01-.671-2.668c.213 1.08 1.256 2.382 1.767 3.375.61 1.176 1.216 2.355 1.816 3.536 1.098 2.161 1.977 4.41 3.479 6.335 1.109 1.42 2.556 2.651 4.291 3.133 2.163.596 4.594 0 6.626.96-.997-.217-2.029.07-3.008.353-1.681.486-5.757 2.509-7.443 1.946-1.48-.494-2.589-3.585-3.11-4.899zM46.364 95.92c-.173-1.382.394-2.91.83-4.153.481-1.369 1.019-2.718 1.556-4.066a17.342 17.342 0 01-2.828 4.707c-1.191 1.417-2.829 2.39-3.91 3.87.167-.23 3.749 2.568 4.057 2.87.7.685 1.841 2.803 2.858 2.918.178.006.356-.008.53-.042a2.06 2.06 0 01.908.103l-2.837-3.813a7.504 7.504 0 01-.914-1.444 3.4 3.4 0 01-.25-.95z"/><path fill="#131314" d="M45.66 44.85a4.45 4.45 0 01-.826-.253 38.47 38.47 0 01-1.514-.566 24.868 24.868 0 01-3.075-1.377 7.62 7.62 0 01-.279-.165 2.202 2.202 0 01-.123-.082l-.048-.033c-.077-.053.046.045 0 0-.046-.044-.048-.04-.07-.06-.022-.022-.082-.117-.009 0-.045-.074 0 0 0 .023-.012-.046.009.118.009.07 0-.048-.028.122 0 .067.149-.389-.512-.673-.68-.287a4.466 4.466 0 00.062 3.78 3.792 3.792 0 004.137 2.047c.466-.089.87-.345 1.312-.509a.381.381 0 00.259-.457.375.375 0 00-.457-.26c-.362.135-.702.333-1.07.446-.302.086-.614.12-.927.103a2.922 2.922 0 01-1.48-.446 3.383 3.383 0 01-1.473-2.531c-.058-.61.039-1.224.281-1.786l-.68-.298c-.149.374.317.682.573.844.43.262.878.495 1.34.697 1.136.522 2.301.99 3.479 1.41.34.147.693.259 1.055.334a.384.384 0 00.457-.26c.048-.173-.058-.43-.259-.457l.006.006zM39.724 48.69a4.38 4.38 0 001.952.683.374.374 0 00.372-.373.383.383 0 00-.372-.372c-.018 0-.149-.013-.053 0a4.829 4.829 0 01-.329-.061 4.527 4.527 0 01-.44-.13l-.114-.042a2.958 2.958 0 01-.244-.112 4.353 4.353 0 01-.396-.23.375.375 0 00-.51.133.381.381 0 00.134.51v-.007z"/><path fill="#fff" d="M110.65 39.793h-45.6v3.257h45.6v-3.257z"/><path fill="#E6EAED" d="M113.614 60.949v11.64a.544.544 0 01-.333.5.542.542 0 01-.207.04h-44.7a.54.54 0 01-.54-.54V42.763a.54.54 0 01.54-.54h44.7a.54.54 0 01.54.54v7.228"/><path fill="#1E1E1E" d="M58.622 75.69a.25.25 0 100-.5.25.25 0 000 .5zM58.622 71.357a.25.25 0 100-.5.25.25 0 000 .5zM58.622 67.025a.25.25 0 100-.5.25.25 0 000 .5zM58.622 62.694a.25.25 0 100-.5.25.25 0 000 .5zM58.622 58.361a.25.25 0 100-.5.25.25 0 000 .5zM58.622 54.03a.25.25 0 100-.5.25.25 0 000 .5zM62.287 75.69a.25.25 0 100-.5.25.25 0 000 .5zM62.287 71.357a.25.25 0 100-.5.25.25 0 000 .5zM62.287 67.025a.25.25 0 100-.5.25.25 0 000 .5zM62.287 62.694a.25.25 0 100-.5.25.25 0 000 .5zM62.287 58.361a.25.25 0 100-.5.25.25 0 000 .5zM62.287 54.03a.25.25 0 100-.5.25.25 0 000 .5zM65.954 75.69a.25.25 0 100-.5.25.25 0 000 .5zM65.954 71.357a.25.25 0 100-.5.25.25 0 000 .5zM65.954 67.025a.25.25 0 100-.5.25.25 0 000 .5zM65.954 62.694a.25.25 0 100-.5.25.25 0 000 .5zM65.954 58.361a.25.25 0 100-.5.25.25 0 000 .5zM65.954 54.03a.25.25 0 100-.5.25.25 0 000 .5zM69.619 75.69a.25.25 0 100-.5.25.25 0 000 .5zM69.619 71.357a.25.25 0 100-.5.25.25 0 000 .5zM69.619 67.025a.25.25 0 100-.5.25.25 0 000 .5zM69.619 62.694a.25.25 0 100-.5.25.25 0 000 .5zM69.619 58.361a.25.25 0 100-.5.25.25 0 000 .5zM69.619 54.03a.25.25 0 100-.5.25.25 0 000 .5zM73.285 75.524a.25.25 0 100-.5.25.25 0 000 .5zM73.285 71.19a.25.25 0 100-.5.25.25 0 000 .5zM73.285 66.859a.25.25 0 100-.5.25.25 0 000 .5zM73.285 62.527a.25.25 0 100-.5.25.25 0 000 .5zM73.285 58.195a.25.25 0 100-.5.25.25 0 000 .5zM73.285 53.863a.25.25 0 100-.5.25.25 0 000 .5zM76.95 75.524a.25.25 0 100-.5.25.25 0 000 .5zM76.95 71.19a.25.25 0 100-.5.25.25 0 000 .5zM76.95 66.859a.25.25 0 100-.5.25.25 0 000 .5zM76.95 62.527a.25.25 0 100-.5.25.25 0 000 .5zM76.95 58.195a.25.25 0 100-.5.25.25 0 000 .5zM76.95 53.863a.25.25 0 100-.5.25.25 0 000 .5zM80.616 75.524a.25.25 0 100-.5.25.25 0 000 .5zM80.616 71.19a.25.25 0 100-.5.25.25 0 000 .5zM80.616 66.859a.25.25 0 100-.5.25.25 0 000 .5zM80.616 62.527a.25.25 0 100-.5.25.25 0 000 .5zM80.616 58.195a.25.25 0 100-.5.25.25 0 000 .5zM80.616 53.863a.25.25 0 100-.5.25.25 0 000 .5zM84.281 75.524a.25.25 0 100-.5.25.25 0 000 .5zM84.281 71.19a.25.25 0 100-.5.25.25 0 000 .5zM84.281 66.859a.25.25 0 100-.5.25.25 0 000 .5zM84.281 62.527a.25.25 0 100-.5.25.25 0 000 .5zM84.281 58.195a.25.25 0 100-.5.25.25 0 000 .5zM84.281 53.863a.25.25 0 100-.5.25.25 0 000 .5z"/><path fill="#BEC9CC" d="M64.901 43.037v26.497a1.006 1.006 0 001.007 1.006h43.764a1.008 1.008 0 001.007-1.007V43.038H64.901z"/><path fill="#E2EAED" d="M79.144 43.037H64.901v26.497a1.006 1.006 0 001.007 1.006h13.236V43.037z"/><path fill="#D7DFE2" d="M79.143 43.037H64.9V59.59h14.242V43.037z"/><path fill="#BEC9CC" d="M64.827 43.257h2.932v27.258h-2.325a.608.608 0 01-.607-.607V43.257z"/><path fill="#fff" d="M110.714 43.084h-42.88v1.898h42.88v-1.898z" opacity=".69"/><path fill="#191919" d="M110.141 70.715h-44.7a.713.713 0 01-.711-.713V40.174a.711.711 0 01.712-.712h44.699a.714.714 0 01.713.712v8.95a.17.17 0 01-.051.121.172.172 0 01-.294-.122v-8.95a.372.372 0 00-.368-.367h-44.7a.369.369 0 00-.367.368v29.828a.37.37 0 00.368.368h44.699a.372.372 0 00.368-.368v-11.64a.173.173 0 11.345 0v11.64a.715.715 0 01-.713.713z"/><path fill="#191919" d="M110.681 52.349a.175.175 0 01-.122-.05.174.174 0 01-.05-.123v-1.088c0-.046.018-.09.05-.122a.175.175 0 01.245 0c.032.032.05.076.05.122v1.088c0 .046-.018.09-.05.122a.176.176 0 01-.123.051zM110.854 43.242H64.73V40.1a.637.637 0 01.637-.638h44.851a.639.639 0 01.637.637l-.001 3.143zm-45.785-.345h45.44V40.1a.298.298 0 00-.298-.298H65.367a.298.298 0 00-.298.297v2.798z"/><path fill="#1E1E1E" d="M67.099 41.877a.52.52 0 100-1.04.52.52 0 000 1.04zM69.168 41.877a.52.52 0 100-1.04.52.52 0 000 1.04zM71.238 41.877a.52.52 0 100-1.04.52.52 0 000 1.04z"/><path fill="#191919" d="M79.749 68.271a.086.086 0 01-.086-.086V45.41a.085.085 0 01.025-.061.087.087 0 01.094-.02.088.088 0 01.047.047c.004.011.006.022.006.034v22.775a.086.086 0 01-.086.086z"/><path fill="#ECAD58" d="M113.428 36.676c.298-.134 1.121-.577 1.283-1.489a.043.043 0 01.015-.025.043.043 0 01.055 0 .043.043 0 01.015.026c.115.477.436 1.34 1.296 1.513a.044.044 0 01.024.014c.006.006.01.015.011.024a.04.04 0 01-.006.026.038.038 0 01-.02.018c-.702.279-1.216.786-1.29 1.544a.218.218 0 01-.027.097.066.066 0 01-.088.02.1.1 0 01-.021-.031.098.098 0 01-.006-.038c-.084-.812-.454-1.34-1.238-1.614a.044.044 0 01-.026-.014.04.04 0 01-.011-.027c0-.01.003-.02.009-.028a.043.043 0 01.025-.016zM111.884 40.192c.149-.064.535-.276.612-.712a.02.02 0 01.021-.02.02.02 0 01.021.02c.053.23.207.642.618.724.005 0 .01.002.013.005a.018.018 0 01.006.014c0 .005-.002.01-.006.014a.89.89 0 00-.63.742.094.094 0 01-.012.047.031.031 0 01-.018.013.032.032 0 01-.023-.003.036.036 0 01-.01-.016.04.04 0 01-.004-.018.822.822 0 00-.595-.77.023.023 0 01-.011-.01c-.002-.004-.003-.008-.002-.013a.02.02 0 01.007-.012.023.023 0 01.013-.005z"/><path fill="#2D2D2D" d="M60.97 45.923c.526.232.652.975 1.258 1.09.57.107.917-.44 1.28-.773.195-.178.429-.297.68-.149.252.15.392.38.58.567.171.2.414.325.677.347a.973.973 0 00.713-.378c.225-.247.447-.623.816-.64.524-.024.869.47 1.134.85.125.182.424.01.298-.174-.4-.575-1.072-1.34-1.852-.907-.268.15-.447.407-.64.627-.194.22-.447.374-.728.183-.44-.297-.685-.948-1.312-.886-.585.06-.805.685-1.274.938-.323.176-.57-.06-.76-.306-.191-.246-.386-.547-.696-.684-.2-.089-.376.207-.174.298v-.003zM58.295 47.662c.298.573.847 1.252 1.57.893.447-.22.927-1.07 1.479-.625.43.347.744 1.008 1.41.777a2.02 2.02 0 00.68-.499c.202-.193.439-.446.744-.431.347.011.536.373.786.565.37.283.846.271 1.27.13.21-.07.12-.404-.09-.332-.39.128-.776.128-1.082-.169-.2-.194-.373-.422-.655-.506-.611-.18-1.028.349-1.435.704-.198.173-.446.315-.7.18-.255-.136-.401-.392-.596-.581a.948.948 0 00-.697-.32 1.191 1.191 0 00-.705.35c-.23.199-.48.511-.81.513-.429 0-.7-.502-.872-.826-.105-.197-.402-.023-.298.172l.001.005z"/><path fill="#fff" d="M94.067 64.702a8.615 8.615 0 100-17.23 8.615 8.615 0 000 17.23z"/><path fill="#131314" d="M95.62 64.132a8.547 8.547 0 118.546-8.546 8.558 8.558 0 01-8.546 8.546zm0-16.822a8.278 8.278 0 105.852 2.426 8.289 8.289 0 00-5.852-2.428v.002z"/><path fill="#000" fill-rule="evenodd" d="M95.83 47.642h-.21a7.947 7.947 0 105.618 2.328 7.958 7.958 0 00-5.409-2.328zm-1.942-.763a8.878 8.878 0 0110.609 8.706 8.889 8.889 0 01-8.877 8.878 8.877 8.877 0 01-1.732-17.584z" clip-rule="evenodd"/><path fill="#12845E" fill-rule="evenodd" d="M100.544 52.406a.993.993 0 01.015 1.405l-5.47 5.588a1.497 1.497 0 01-2.154-.003l-.002-.003-2.176-2.29a.994.994 0 111.44-1.37l1.822 1.918 5.12-5.23a.993.993 0 011.405-.015z" clip-rule="evenodd"/></svg>